  0
SECTION
  2
ENTITIES
  0
LINE
  8
COSTRUZIONI
 10
25.8
 11
33.5
 20
-328.7
 21
-328.7
  0
ARC
  8
COSTRUZIONI
 10
38.5
 20
-340.7
 40
13.0
 50
67.38
 51
112.62
  0
LINE
  8
COSTRUZIONI
 10
43.5
 11
43.5
 20
-328.7
 21
-332.2
  0
LINE
  8
COSTRUZIONI
 10
43.5
 11
25.8
 20
-332.2
 21
-332.2
  0
LINE
  8
COSTRUZIONI
 10
25.8
 11
25.8
 20
-332.2
 21
-328.7
  0
LINE
  8
COSTRUZIONI
 10
25.977
 11
25.8
 20
-332.2
 21
-332.023
  0
LINE
  8
COSTRUZIONI
 10
25.8
 11
26.507
 20
-331.493
 21
-332.2
  0
LINE
  8
COSTRUZIONI
 10
26.684
 11
25.8
 20
-332.2
 21
-331.316
  0
LINE
  8
COSTRUZIONI
 10
25.8
 11
27.214
 20
-330.786
 21
-332.2
  0
LINE
  8
COSTRUZIONI
 10
27.391
 11
25.8
 20
-332.2
 21
-330.609
  0
LINE
  8
COSTRUZIONI
 10
25.8
 11
27.921
 20
-330.079
 21
-332.2
  0
LINE
  8
COSTRUZIONI
 10
28.098
 11
25.8
 20
-332.2
 21
-329.902
  0
LINE
  8
COSTRUZIONI
 10
25.8
 11
28.628
 20
-329.372
 21
-332.2
  0
LINE
  8
COSTRUZIONI
 10
28.805
 11
25.8
 20
-332.2
 21
-329.195
  0
LINE
  8
COSTRUZIONI
 10
25.836
 11
29.336
 20
-328.7
 21
-332.2
  0
LINE
  8
COSTRUZIONI
 10
29.512
 11
26.012
 20
-332.2
 21
-328.7
  0
LINE
  8
COSTRUZIONI
 10
26.543
 11
30.043
 20
-328.7
 21
-332.2
  0
LINE
  8
COSTRUZIONI
 10
30.219
 11
26.719
 20
-332.2
 21
-328.7
  0
LINE
  8
COSTRUZIONI
 10
27.25
 11
30.75
 20
-328.7
 21
-332.2
  0
LINE
  8
COSTRUZIONI
 10
30.927
 11
27.427
 20
-332.2
 21
-328.7
  0
LINE
  8
COSTRUZIONI
 10
27.957
 11
31.457
 20
-328.7
 21
-332.2
  0
LINE
  8
COSTRUZIONI
 10
31.634
 11
28.134
 20
-332.2
 21
-328.7
  0
LINE
  8
COSTRUZIONI
 10
28.664
 11
32.164
 20
-328.7
 21
-332.2
  0
LINE
  8
COSTRUZIONI
 10
32.341
 11
28.841
 20
-332.2
 21
-328.7
  0
LINE
  8
COSTRUZIONI
 10
29.371
 11
32.871
 20
-328.7
 21
-332.2
  0
LINE
  8
COSTRUZIONI
 10
33.048
 11
29.548
 20
-332.2
 21
-328.7
  0
LINE
  8
COSTRUZIONI
 10
30.078
 11
33.578
 20
-328.7
 21
-332.2
  0
LINE
  8
COSTRUZIONI
 10
33.755
 11
30.255
 20
-332.2
 21
-328.7
  0
LINE
  8
COSTRUZIONI
 10
30.785
 11
34.285
 20
-328.7
 21
-332.2
  0
LINE
  8
COSTRUZIONI
 10
34.462
 11
30.962
 20
-332.2
 21
-328.7
  0
LINE
  8
COSTRUZIONI
 10
31.492
 11
34.992
 20
-328.7
 21
-332.2
  0
LINE
  8
COSTRUZIONI
 10
35.169
 11
31.669
 20
-332.2
 21
-328.7
  0
LINE
  8
COSTRUZIONI
 10
32.199
 11
35.699
 20
-328.7
 21
-332.2
  0
LINE
  8
COSTRUZIONI
 10
35.876
 11
32.376
 20
-332.2
 21
-328.7
  0
LINE
  8
COSTRUZIONI
 10
32.907
 11
36.407
 20
-328.7
 21
-332.2
  0
LINE
  8
COSTRUZIONI
 10
36.583
 11
33.083
 20
-332.2
 21
-328.7
  0
LINE
  8
COSTRUZIONI
 10
33.58
 11
37.114
 20
-328.667
 21
-332.2
  0
LINE
  8
COSTRUZIONI
 10
37.29
 11
33.707
 20
-332.2
 21
-328.616
  0
LINE
  8
COSTRUZIONI
 10
34.091
 11
37.821
 20
-328.47
 21
-332.2
  0
LINE
  8
COSTRUZIONI
 10
37.998
 11
34.222
 20
-332.2
 21
-328.424
  0
LINE
  8
COSTRUZIONI
 10
34.62
 11
38.528
 20
-328.292
 21
-332.2
  0
LINE
  8
COSTRUZIONI
 10
38.705
 11
34.756
 20
-332.2
 21
-328.251
  0
LINE
  8
COSTRUZIONI
 10
35.169
 11
39.235
 20
-328.134
 21
-332.2
  0
LINE
  8
COSTRUZIONI
 10
39.412
 11
35.309
 20
-332.2
 21
-328.098
  0
LINE
  8
COSTRUZIONI
 10
35.739
 11
39.942
 20
-327.997
 21
-332.2
  0
LINE
  8
COSTRUZIONI
 10
40.119
 11
35.885
 20
-332.2
 21
-327.966
  0
LINE
  8
COSTRUZIONI
 10
36.331
 11
40.649
 20
-327.882
 21
-332.2
  0
LINE
  8
COSTRUZIONI
 10
40.826
 11
36.483
 20
-332.2
 21
-327.857
  0
LINE
  8
COSTRUZIONI
 10
36.949
 11
41.356
 20
-327.793
 21
-332.2
  0
LINE
  8
COSTRUZIONI
 10
41.533
 11
37.108
 20
-332.2
 21
-327.775
  0
LINE
  8
COSTRUZIONI
 10
37.595
 11
42.063
 20
-327.732
 21
-332.2
  0
LINE
  8
COSTRUZIONI
 10
42.24
 11
37.761
 20
-332.2
 21
-327.721
  0
LINE
  8
COSTRUZIONI
 10
38.273
 11
42.771
 20
-327.702
 21
-332.2
  0
LINE
  8
COSTRUZIONI
 10
42.947
 11
38.447
 20
-332.2
 21
-327.7
  0
LINE
  8
COSTRUZIONI
 10
38.987
 11
43.478
 20
-327.709
 21
-332.2
  0
LINE
  8
COSTRUZIONI
 10
43.5
 11
39.172
 20
-332.046
 21
-327.717
  0
LINE
  8
COSTRUZIONI
 10
39.744
 11
43.5
 20
-327.76
 21
-331.515
  0
LINE
  8
COSTRUZIONI
 10
43.5
 11
39.942
 20
-331.338
 21
-327.78
  0
LINE
  8
COSTRUZIONI
 10
40.555
 11
43.5
 20
-327.863
 21
-330.808
  0
LINE
  8
COSTRUZIONI
 10
43.5
 11
40.768
 20
-330.631
 21
-327.899
  0
LINE
  8
COSTRUZIONI
 10
41.435
 11
43.5
 20
-328.036
 21
-330.101
  0
LINE
  8
COSTRUZIONI
 10
43.5
 11
41.668
 20
-329.924
 21
-328.092
  0
LINE
  8
COSTRUZIONI
 10
42.407
 11
43.5
 20
-328.301
 21
-329.394
  0
LINE
  8
COSTRUZIONI
 10
43.5
 11
42.67
 20
-329.217
 21
-328.387
  0
ARC
  8
APS_GEOMETRY
 10
43.0
 20
-333.2
 40
1.0
 50
360.0
 51
90.0
  0
LINE
  8
APS_GEOMETRY
 10
0.0
 11
0.0
 20
-346.996
 21
-418.0
  0
LINE
  8
APS_GEOMETRY
 10
0.0
 11
6.7
 20
-418.0
 21
-418.0
  0
LINE
  8
APS_GEOMETRY
 10
6.7
 11
6.7
 20
-418.0
 21
-404.0
  0
LINE
  8
APS_GEOMETRY
 10
6.7
 11
11.0
 20
-404.0
 21
-404.0
  0
LINE
  8
APS_GEOMETRY
 10
11.0
 11
11.0
 20
-404.0
 21
-418.0
  0
LINE
  8
APS_GEOMETRY
 10
11.0
 11
42.0
 20
-418.0
 21
-418.0
  0
ARC
  8
APS_GEOMETRY
 10
42.0
 20
-416.0
 40
2.0
 50
270.0
 51
0.0
  0
LINE
  8
APS_GEOMETRY
 10
44.0
 11
44.0
 20
-416.0
 21
-333.2
  0
LINE
  8
APS_GEOMETRY
 10
33.5
 11
33.5
 20
-328.7
 21
-302.0
  0
ARC
  8
APS_GEOMETRY
 10
31.5
 20
-302.0
 40
2.0
 50
0.0
 51
90.0
  0
LINE
  8
APS_GEOMETRY
 10
31.5
 11
8.5
 20
-300.0
 21
-300.0
  0
LINE
  8
APS_GEOMETRY
 10
8.5
 11
8.5
 20
-300.0
 21
-314.0
  0
LINE
  8
APS_GEOMETRY
 10
8.5
 11
4.2
 20
-314.0
 21
-314.0
  0
LINE
  8
APS_GEOMETRY
 10
4.2
 11
4.2
 20
-314.0
 21
-300.0
  0
LINE
  8
APS_GEOMETRY
 10
4.2
 11
0.0
 20
-300.0
 21
-300.0
  0
LINE
  8
APS_GEOMETRY
 10
0.0
 11
0.0
 20
-300.0
 21
-418.0
  0
LINE
  8
COSTRUZIONI
 10
-1.5
 11
-1.5
 20
-300.0
 21
-418.0
  0
LINE
  8
COSTRUZIONI
 10
-21.5
 11
-21.5
 20
-300.0
 21
-418.0
  0
LINE
  8
COSTRUZIONI
 10
-1.5
 11
-136.543
 20
-300.0
 21
-300.0
  0
LINE
  8
COSTRUZIONI
 10
-1.5
 11
-136.543
 20
-418.0
 21
-418.0
  0
LINE
  8
COSTRUZIONI
 10
-21.5
 11
-1.5
 20
-418.0
 21
-300.0
  0
LINE
  8
COSTRUZIONI
 10
-21.5
 11
-1.5
 20
-300.0
 21
-418.0
  0
LINE
  8
APS_GEOMETRY
 10
-54.5
 11
0.0
 20
-297.0
 21
-297.0
  0
LINE
  8
APS_GEOMETRY
 10
0.0
 11
0.0
 20
-297.0
 21
-300.0
  0
LINE
  8
APS_GEOMETRY
 10
0.0
 11
4.5
 20
-300.0
 21
-300.0
  0
LINE
  8
APS_GEOMETRY
 10
4.5
 11
4.5
 20
-300.0
 21
-310.5
  0
LINE
  8
APS_GEOMETRY
 10
4.5
 11
6.0
 20
-310.5
 21
-312.0
  0
LINE
  8
APS_GEOMETRY
 10
6.0
 11
8.5
 20
-312.0
 21
-312.0
  0
LINE
  8
APS_GEOMETRY
 10
8.5
 11
8.5
 20
-312.0
 21
-294.0
  0
ARC
  8
APS_GEOMETRY
 10
4.5
 20
-294.0
 40
4.0
 50
0.0
 51
90.0
  0
LINE
  8
APS_GEOMETRY
 10
4.5
 11
-56.5
 20
-290.0
 21
-290.0
  0
ARC
  8
APS_GEOMETRY
 10
-56.5
 20
-294.0
 40
4.0
 50
90.0
 51
180.0
  0
LINE
  8
APS_GEOMETRY
 10
-60.5
 11
-60.5
 20
-294.0
 21
-300.0
  0
LINE
  8
APS_GEOMETRY
 10
-60.5
 11
-54.5
 20
-300.0
 21
-300.0
  0
LINE
  8
APS_GEOMETRY
 10
-54.5
 11
-54.5
 20
-300.0
 21
-297.0
  0
LINE
  8
APS_GEOMETRY
 10
-52.0
 11
2.5
 20
-421.0
 21
-421.0
  0
LINE
  8
APS_GEOMETRY
 10
2.5
 11
2.5
 20
-421.0
 21
-418.0
  0
LINE
  8
APS_GEOMETRY
 10
2.5
 11
7.0
 20
-418.0
 21
-418.0
  0
LINE
  8
APS_GEOMETRY
 10
7.0
 11
7.0
 20
-418.0
 21
-407.5
  0
LINE
  8
APS_GEOMETRY
 10
7.0
 11
8.5
 20
-407.5
 21
-406.0
  0
LINE
  8
APS_GEOMETRY
 10
8.5
 11
11.0
 20
-406.0
 21
-406.0
  0
LINE
  8
APS_GEOMETRY
 10
11.0
 11
11.0
 20
-406.0
 21
-424.0
  0
ARC
  8
APS_GEOMETRY
 10
7.0
 20
-424.0
 40
4.0
 50
270.0
 51
360.0
  0
LINE
  8
APS_GEOMETRY
 10
7.0
 11
-54.0
 20
-428.0
 21
-428.0
  0
ARC
  8
APS_GEOMETRY
 10
-54.0
 20
-424.0
 40
4.0
 50
180.0
 51
270.0
  0
LINE
  8
APS_GEOMETRY
 10
-58.0
 11
-58.0
 20
-424.0
 21
-418.0
  0
LINE
  8
APS_GEOMETRY
 10
-58.0
 11
-52.0
 20
-418.0
 21
-418.0
  0
LINE
  8
APS_GEOMETRY
 10
-52.0
 11
-52.0
 20
-418.0
 21
-421.0
  0
LINE
  8
APS_GEOMETRY
 10
26.5
 11
861.5
 20
0.0
 21
0.0
  0
LINE
  8
COSTRUZIONI
 10
862.2
 11
854.5
 20
-328.7
 21
-328.7
  0
ARC
  8
COSTRUZIONI
 10
849.5
 20
-340.7
 40
13.0
 50
67.38
 51
112.62
  0
LINE
  8
COSTRUZIONI
 10
844.5
 11
844.5
 20
-328.7
 21
-332.2
  0
LINE
  8
COSTRUZIONI
 10
844.5
 11
862.2
 20
-332.2
 21
-332.2
  0
LINE
  8
COSTRUZIONI
 10
862.2
 11
862.2
 20
-332.2
 21
-328.7
  0
LINE
  8
COSTRUZIONI
 10
862.023
 11
862.2
 20
-332.2
 21
-332.023
  0
LINE
  8
COSTRUZIONI
 10
862.2
 11
861.493
 20
-331.493
 21
-332.2
  0
LINE
  8
COSTRUZIONI
 10
861.316
 11
862.2
 20
-332.2
 21
-331.316
  0
LINE
  8
COSTRUZIONI
 10
862.2
 11
860.786
 20
-330.786
 21
-332.2
  0
LINE
  8
COSTRUZIONI
 10
860.609
 11
862.2
 20
-332.2
 21
-330.609
  0
LINE
  8
COSTRUZIONI
 10
862.2
 11
860.079
 20
-330.079
 21
-332.2
  0
LINE
  8
COSTRUZIONI
 10
859.902
 11
862.2
 20
-332.2
 21
-329.902
  0
LINE
  8
COSTRUZIONI
 10
862.2
 11
859.372
 20
-329.372
 21
-332.2
  0
LINE
  8
COSTRUZIONI
 10
859.195
 11
862.2
 20
-332.2
 21
-329.195
  0
LINE
  8
COSTRUZIONI
 10
862.164
 11
858.664
 20
-328.7
 21
-332.2
  0
LINE
  8
COSTRUZIONI
 10
858.488
 11
861.988
 20
-332.2
 21
-328.7
  0
LINE
  8
COSTRUZIONI
 10
861.457
 11
857.957
 20
-328.7
 21
-332.2
  0
LINE
  8
COSTRUZIONI
 10
857.781
 11
861.281
 20
-332.2
 21
-328.7
  0
LINE
  8
COSTRUZIONI
 10
860.75
 11
857.25
 20
-328.7
 21
-332.2
  0
LINE
  8
COSTRUZIONI
 10
857.073
 11
860.573
 20
-332.2
 21
-328.7
  0
LINE
  8
COSTRUZIONI
 10
860.043
 11
856.543
 20
-328.7
 21
-332.2
  0
LINE
  8
COSTRUZIONI
 10
856.366
 11
859.866
 20
-332.2
 21
-328.7
  0
LINE
  8
COSTRUZIONI
 10
859.336
 11
855.836
 20
-328.7
 21
-332.2
  0
LINE
  8
COSTRUZIONI
 10
855.659
 11
859.159
 20
-332.2
 21
-328.7
  0
LINE
  8
COSTRUZIONI
 10
858.629
 11
855.129
 20
-328.7
 21
-332.2
  0
LINE
  8
COSTRUZIONI
 10
854.952
 11
858.452
 20
-332.2
 21
-328.7
  0
LINE
  8
COSTRUZIONI
 10
857.922
 11
854.422
 20
-328.7
 21
-332.2
  0
LINE
  8
COSTRUZIONI
 10
854.245
 11
857.745
 20
-332.2
 21
-328.7
  0
LINE
  8
COSTRUZIONI
 10
857.215
 11
853.715
 20
-328.7
 21
-332.2
  0
LINE
  8
COSTRUZIONI
 10
853.538
 11
857.038
 20
-332.2
 21
-328.7
  0
LINE
  8
COSTRUZIONI
 10
856.508
 11
853.008
 20
-328.7
 21
-332.2
  0
LINE
  8
COSTRUZIONI
 10
852.831
 11
856.331
 20
-332.2
 21
-328.7
  0
LINE
  8
COSTRUZIONI
 10
855.801
 11
852.301
 20
-328.7
 21
-332.2
  0
LINE
  8
COSTRUZIONI
 10
852.124
 11
855.624
 20
-332.2
 21
-328.7
  0
LINE
  8
COSTRUZIONI
 10
855.093
 11
851.593
 20
-328.7
 21
-332.2
  0
LINE
  8
COSTRUZIONI
 10
851.417
 11
854.917
 20
-332.2
 21
-328.7
  0
LINE
  8
COSTRUZIONI
 10
854.42
 11
850.886
 20
-328.667
 21
-332.2
  0
LINE
  8
COSTRUZIONI
 10
850.71
 11
854.293
 20
-332.2
 21
-328.616
  0
LINE
  8
COSTRUZIONI
 10
853.909
 11
850.179
 20
-328.47
 21
-332.2
  0
LINE
  8
COSTRUZIONI
 10
850.002
 11
853.778
 20
-332.2
 21
-328.424
  0
LINE
  8
COSTRUZIONI
 10
853.38
 11
849.472
 20
-328.292
 21
-332.2
  0
LINE
  8
COSTRUZIONI
 10
849.295
 11
853.244
 20
-332.2
 21
-328.251
  0
LINE
  8
COSTRUZIONI
 10
852.831
 11
848.765
 20
-328.134
 21
-332.2
  0
LINE
  8
COSTRUZIONI
 10
848.588
 11
852.691
 20
-332.2
 21
-328.098
  0
LINE
  8
COSTRUZIONI
 10
852.261
 11
848.058
 20
-327.997
 21
-332.2
  0
LINE
  8
COSTRUZIONI
 10
847.881
 11
852.115
 20
-332.2
 21
-327.966
  0
LINE
  8
COSTRUZIONI
 10
851.669
 11
847.351
 20
-327.882
 21
-332.2
  0
LINE
  8
COSTRUZIONI
 10
847.174
 11
851.517
 20
-332.2
 21
-327.857
  0
LINE
  8
COSTRUZIONI
 10
851.051
 11
846.644
 20
-327.793
 21
-332.2
  0
LINE
  8
COSTRUZIONI
 10
846.467
 11
850.892
 20
-332.2
 21
-327.775
  0
LINE
  8
COSTRUZIONI
 10
850.405
 11
845.937
 20
-327.732
 21
-332.2
  0
LINE
  8
COSTRUZIONI
 10
845.76
 11
850.239
 20
-332.2
 21
-327.721
  0
LINE
  8
COSTRUZIONI
 10
849.727
 11
845.229
 20
-327.702
 21
-332.2
  0
LINE
  8
COSTRUZIONI
 10
845.053
 11
849.553
 20
-332.2
 21
-327.7
  0
LINE
  8
COSTRUZIONI
 10
849.013
 11
844.522
 20
-327.709
 21
-332.2
  0
LINE
  8
COSTRUZIONI
 10
844.5
 11
848.828
 20
-332.046
 21
-327.717
  0
LINE
  8
COSTRUZIONI
 10
848.256
 11
844.5
 20
-327.76
 21
-331.515
  0
LINE
  8
COSTRUZIONI
 10
844.5
 11
848.058
 20
-331.338
 21
-327.78
  0
LINE
  8
COSTRUZIONI
 10
847.445
 11
844.5
 20
-327.863
 21
-330.808
  0
LINE
  8
COSTRUZIONI
 10
844.5
 11
847.232
 20
-330.631
 21
-327.899
  0
LINE
  8
COSTRUZIONI
 10
846.565
 11
844.5
 20
-328.036
 21
-330.101
  0
LINE
  8
COSTRUZIONI
 10
844.5
 11
846.332
 20
-329.924
 21
-328.092
  0
LINE
  8
COSTRUZIONI
 10
845.593
 11
844.5
 20
-328.301
 21
-329.394
  0
LINE
  8
COSTRUZIONI
 10
844.5
 11
845.33
 20
-329.217
 21
-328.387
  0
ARC
  8
APS_GEOMETRY
 10
845.0
 20
-333.2
 40
1.0
 50
90.0
 51
180.0
  0
LINE
  8
APS_GEOMETRY
 10
888.0
 11
888.0
 20
-346.996
 21
-418.0
  0
LINE
  8
APS_GEOMETRY
 10
888.0
 11
881.3
 20
-418.0
 21
-418.0
  0
LINE
  8
APS_GEOMETRY
 10
881.3
 11
881.3
 20
-418.0
 21
-404.0
  0
LINE
  8
APS_GEOMETRY
 10
881.3
 11
877.0
 20
-404.0
 21
-404.0
  0
LINE
  8
APS_GEOMETRY
 10
877.0
 11
877.0
 20
-404.0
 21
-418.0
  0
LINE
  8
APS_GEOMETRY
 10
877.0
 11
846.0
 20
-418.0
 21
-418.0
  0
ARC
  8
APS_GEOMETRY
 10
846.0
 20
-416.0
 40
2.0
 50
180.0
 51
270.0
  0
LINE
  8
APS_GEOMETRY
 10
844.0
 11
844.0
 20
-416.0
 21
-333.2
  0
LINE
  8
APS_GEOMETRY
 10
854.5
 11
854.5
 20
-328.7
 21
-302.0
  0
ARC
  8
APS_GEOMETRY
 10
856.5
 20
-302.0
 40
2.0
 50
90.0
 51
180.0
  0
LINE
  8
APS_GEOMETRY
 10
856.5
 11
879.5
 20
-300.0
 21
-300.0
  0
LINE
  8
APS_GEOMETRY
 10
879.5
 11
879.5
 20
-300.0
 21
-314.0
  0
LINE
  8
APS_GEOMETRY
 10
879.5
 11
883.8
 20
-314.0
 21
-314.0
  0
LINE
  8
APS_GEOMETRY
 10
883.8
 11
883.8
 20
-314.0
 21
-300.0
  0
LINE
  8
APS_GEOMETRY
 10
883.8
 11
888.0
 20
-300.0
 21
-300.0
  0
LINE
  8
APS_GEOMETRY
 10
888.0
 11
888.0
 20
-300.0
 21
-418.0
  0
LINE
  8
COSTRUZIONI
 10
889.5
 11
889.5
 20
-300.0
 21
-418.0
  0
LINE
  8
COSTRUZIONI
 10
909.5
 11
909.5
 20
-300.0
 21
-418.0
  0
LINE
  8
COSTRUZIONI
 10
889.5
 11
1024.543
 20
-300.0
 21
-300.0
  0
LINE
  8
COSTRUZIONI
 10
889.5
 11
1024.543
 20
-418.0
 21
-418.0
  0
LINE
  8
COSTRUZIONI
 10
909.5
 11
889.5
 20
-418.0
 21
-300.0
  0
LINE
  8
COSTRUZIONI
 10
909.5
 11
889.5
 20
-300.0
 21
-418.0
  0
LINE
  8
APS_GEOMETRY
 10
942.5
 11
888.0
 20
-297.0
 21
-297.0
  0
LINE
  8
APS_GEOMETRY
 10
888.0
 11
888.0
 20
-297.0
 21
-300.0
  0
LINE
  8
APS_GEOMETRY
 10
888.0
 11
883.5
 20
-300.0
 21
-300.0
  0
LINE
  8
APS_GEOMETRY
 10
883.5
 11
883.5
 20
-300.0
 21
-310.5
  0
LINE
  8
APS_GEOMETRY
 10
883.5
 11
882.0
 20
-310.5
 21
-312.0
  0
LINE
  8
APS_GEOMETRY
 10
882.0
 11
879.5
 20
-312.0
 21
-312.0
  0
LINE
  8
APS_GEOMETRY
 10
879.5
 11
879.5
 20
-312.0
 21
-294.0
  0
ARC
  8
APS_GEOMETRY
 10
883.5
 20
-294.0
 40
4.0
 50
90.0
 51
180.0
  0
LINE
  8
APS_GEOMETRY
 10
883.5
 11
944.5
 20
-290.0
 21
-290.0
  0
ARC
  8
APS_GEOMETRY
 10
944.5
 20
-294.0
 40
4.0
 50
360.0
 51
90.0
  0
LINE
  8
APS_GEOMETRY
 10
948.5
 11
948.5
 20
-294.0
 21
-300.0
  0
LINE
  8
APS_GEOMETRY
 10
948.5
 11
942.5
 20
-300.0
 21
-300.0
  0
LINE
  8
APS_GEOMETRY
 10
942.5
 11
942.5
 20
-300.0
 21
-297.0
  0
LINE
  8
APS_GEOMETRY
 10
940.0
 11
885.5
 20
-421.0
 21
-421.0
  0
LINE
  8
APS_GEOMETRY
 10
885.5
 11
885.5
 20
-421.0
 21
-418.0
  0
LINE
  8
APS_GEOMETRY
 10
885.5
 11
881.0
 20
-418.0
 21
-418.0
  0
LINE
  8
APS_GEOMETRY
 10
881.0
 11
881.0
 20
-418.0
 21
-407.5
  0
LINE
  8
APS_GEOMETRY
 10
881.0
 11
879.5
 20
-407.5
 21
-406.0
  0
LINE
  8
APS_GEOMETRY
 10
879.5
 11
877.0
 20
-406.0
 21
-406.0
  0
LINE
  8
APS_GEOMETRY
 10
877.0
 11
877.0
 20
-406.0
 21
-424.0
  0
ARC
  8
APS_GEOMETRY
 10
881.0
 20
-424.0
 40
4.0
 50
180.0
 51
270.0
  0
LINE
  8
APS_GEOMETRY
 10
881.0
 11
942.0
 20
-428.0
 21
-428.0
  0
ARC
  8
APS_GEOMETRY
 10
942.0
 20
-424.0
 40
4.0
 50
270.0
 51
0.0
  0
LINE
  8
APS_GEOMETRY
 10
946.0
 11
946.0
 20
-424.0
 21
-418.0
  0
LINE
  8
APS_GEOMETRY
 10
946.0
 11
940.0
 20
-418.0
 21
-418.0
  0
LINE
  8
APS_GEOMETRY
 10
940.0
 11
940.0
 20
-418.0
 21
-421.0
  0
LINE
  8
APS_GEOMETRY
 10
861.5
 11
861.5
 20
0.0
 21
2110.0
  0
LINE
  8
APS_GEOMETRY
 10
861.5
 11
26.5
 20
2110.0
 21
2110.0
  0
LINE
  8
APS_GEOMETRY
 10
26.5
 11
26.5
 20
2110.0
 21
0.0
  0
LINE
  8
COSTRUZIONI
 10
844.0
 11
844.0
 20
-4.5
 21
0.0
  0
LINE
  8
COSTRUZIONI
 10
44.0
 11
44.0
 20
0.0
 21
-4.5
  0
LINE
  8
COSTRUZIONI
 10
0.0
 11
26.5
 20
2136.5
 21
2110.0
  0
LINE
  8
COSTRUZIONI
 10
861.5
 11
888.0
 20
2110.0
 21
2136.5
  0
LINE
  8
COSTRUZIONI
 10
0.0
 11
44.0
 20
-4.5
 21
-4.5
  0
LINE
  8
COSTRUZIONI
 10
844.0
 11
888.0
 20
-4.5
 21
-4.5
  0
LINE
  8
COSTRUZIONI
 10
877.5
 11
877.5
 20
-4.5
 21
2126.0
  0
LINE
  8
COSTRUZIONI
 10
877.5
 11
10.5
 20
2126.0
 21
2126.0
  0
LINE
  8
COSTRUZIONI
 10
10.5
 11
10.5
 20
2126.0
 21
-4.5
  0
LINE
  8
COSTRUZIONI
 10
946.5
 11
946.5
 20
-4.5
 21
2195.0
  0
LINE
  8
COSTRUZIONI
 10
946.5
 11
-58.5
 20
2195.0
 21
2195.0
  0
LINE
  8
COSTRUZIONI
 10
-58.5
 11
-58.5
 20
2195.0
 21
-4.5
  0
LINE
  8
APS_GEOMETRY
 10
10.5
 11
-58.5
 20
2126.0
 21
2195.0
  0
LINE
  8
APS_GEOMETRY
 10
877.5
 11
946.5
 20
2126.0
 21
2195.0
  0
LINE
  8
COSTRUZIONI
 10
-358.592
 11
-358.592
 20
2110.7
 21
2103.0
  0
ARC
  8
COSTRUZIONI
 10
-370.592
 20
2098.0
 40
13.0
 50
337.38
 51
22.62
  0
LINE
  8
COSTRUZIONI
 10
-358.592
 11
-362.092
 20
2093.0
 21
2093.0
  0
LINE
  8
COSTRUZIONI
 10
-362.092
 11
-362.092
 20
2093.0
 21
2110.7
  0
LINE
  8
COSTRUZIONI
 10
-362.092
 11
-358.592
 20
2110.7
 21
2110.7
  0
LINE
  8
COSTRUZIONI
 10
-362.092
 11
-361.915
 20
2110.523
 21
2110.7
  0
LINE
  8
COSTRUZIONI
 10
-361.385
 11
-362.092
 20
2110.7
 21
2109.993
  0
LINE
  8
COSTRUZIONI
 10
-362.092
 11
-361.208
 20
2109.816
 21
2110.7
  0
LINE
  8
COSTRUZIONI
 10
-360.678
 11
-362.092
 20
2110.7
 21
2109.286
  0
LINE
  8
COSTRUZIONI
 10
-362.092
 11
-360.501
 20
2109.109
 21
2110.7
  0
LINE
  8
COSTRUZIONI
 10
-359.971
 11
-362.092
 20
2110.7
 21
2108.579
  0
LINE
  8
COSTRUZIONI
 10
-362.092
 11
-359.794
 20
2108.402
 21
2110.7
  0
LINE
  8
COSTRUZIONI
 10
-359.264
 11
-362.092
 20
2110.7
 21
2107.872
  0
LINE
  8
COSTRUZIONI
 10
-362.092
 11
-359.087
 20
2107.695
 21
2110.7
  0
LINE
  8
COSTRUZIONI
 10
-358.592
 11
-362.092
 20
2110.664
 21
2107.164
  0
LINE
  8
COSTRUZIONI
 10
-362.092
 11
-358.592
 20
2106.988
 21
2110.488
  0
LINE
  8
COSTRUZIONI
 10
-358.592
 11
-362.092
 20
2109.957
 21
2106.457
  0
LINE
  8
COSTRUZIONI
 10
-362.092
 11
-358.592
 20
2106.281
 21
2109.781
  0
LINE
  8
COSTRUZIONI
 10
-358.592
 11
-362.092
 20
2109.25
 21
2105.75
  0
LINE
  8
COSTRUZIONI
 10
-362.092
 11
-358.592
 20
2105.573
 21
2109.073
  0
LINE
  8
COSTRUZIONI
 10
-358.592
 11
-362.092
 20
2108.543
 21
2105.043
  0
LINE
  8
COSTRUZIONI
 10
-362.092
 11
-358.592
 20
2104.866
 21
2108.366
  0
LINE
  8
COSTRUZIONI
 10
-358.592
 11
-362.092
 20
2107.836
 21
2104.336
  0
LINE
  8
COSTRUZIONI
 10
-362.092
 11
-358.592
 20
2104.159
 21
2107.659
  0
LINE
  8
COSTRUZIONI
 10
-358.592
 11
-362.092
 20
2107.129
 21
2103.629
  0
LINE
  8
COSTRUZIONI
 10
-362.092
 11
-358.592
 20
2103.452
 21
2106.952
  0
LINE
  8
COSTRUZIONI
 10
-358.592
 11
-362.092
 20
2106.422
 21
2102.922
  0
LINE
  8
COSTRUZIONI
 10
-362.092
 11
-358.592
 20
2102.745
 21
2106.245
  0
LINE
  8
COSTRUZIONI
 10
-358.592
 11
-362.092
 20
2105.715
 21
2102.215
  0
LINE
  8
COSTRUZIONI
 10
-362.092
 11
-358.592
 20
2102.038
 21
2105.538
  0
LINE
  8
COSTRUZIONI
 10
-358.592
 11
-362.092
 20
2105.008
 21
2101.508
  0
LINE
  8
COSTRUZIONI
 10
-362.092
 11
-358.592
 20
2101.331
 21
2104.831
  0
LINE
  8
COSTRUZIONI
 10
-358.592
 11
-362.092
 20
2104.301
 21
2100.801
  0
LINE
  8
COSTRUZIONI
 10
-362.092
 11
-358.592
 20
2100.624
 21
2104.124
  0
LINE
  8
COSTRUZIONI
 10
-358.592
 11
-362.092
 20
2103.593
 21
2100.093
  0
LINE
  8
COSTRUZIONI
 10
-362.092
 11
-358.592
 20
2099.917
 21
2103.417
  0
LINE
  8
COSTRUZIONI
 10
-358.559
 11
-362.092
 20
2102.92
 21
2099.386
  0
LINE
  8
COSTRUZIONI
 10
-362.092
 11
-358.508
 20
2099.21
 21
2102.793
  0
LINE
  8
COSTRUZIONI
 10
-358.362
 11
-362.092
 20
2102.409
 21
2098.679
  0
LINE
  8
COSTRUZIONI
 10
-362.092
 11
-358.316
 20
2098.502
 21
2102.278
  0
LINE
  8
COSTRUZIONI
 10
-358.184
 11
-362.092
 20
2101.88
 21
2097.972
  0
LINE
  8
COSTRUZIONI
 10
-362.092
 11
-358.143
 20
2097.795
 21
2101.744
  0
LINE
  8
COSTRUZIONI
 10
-358.026
 11
-362.092
 20
2101.331
 21
2097.265
  0
LINE
  8
COSTRUZIONI
 10
-362.092
 11
-357.99
 20
2097.088
 21
2101.191
  0
LINE
  8
COSTRUZIONI
 10
-357.889
 11
-362.092
 20
2100.761
 21
2096.558
  0
LINE
  8
COSTRUZIONI
 10
-362.092
 11
-357.858
 20
2096.381
 21
2100.615
  0
LINE
  8
COSTRUZIONI
 10
-357.774
 11
-362.092
 20
2100.169
 21
2095.851
  0
LINE
  8
COSTRUZIONI
 10
-362.092
 11
-357.749
 20
2095.674
 21
2100.017
  0
LINE
  8
COSTRUZIONI
 10
-357.685
 11
-362.092
 20
2099.551
 21
2095.144
  0
LINE
  8
COSTRUZIONI
 10
-362.092
 11
-357.667
 20
2094.967
 21
2099.392
  0
LINE
  8
COSTRUZIONI
 10
-357.624
 11
-362.092
 20
2098.905
 21
2094.437
  0
LINE
  8
COSTRUZIONI
 10
-362.092
 11
-357.613
 20
2094.26
 21
2098.739
  0
LINE
  8
COSTRUZIONI
 10
-357.594
 11
-362.092
 20
2098.227
 21
2093.729
  0
LINE
  8
COSTRUZIONI
 10
-362.092
 11
-357.592
 20
2093.553
 21
2098.053
  0
LINE
  8
COSTRUZIONI
 10
-357.601
 11
-362.092
 20
2097.513
 21
2093.022
  0
LINE
  8
COSTRUZIONI
 10
-361.938
 11
-357.609
 20
2093.0
 21
2097.328
  0
LINE
  8
COSTRUZIONI
 10
-357.652
 11
-361.407
 20
2096.756
 21
2093.0
  0
LINE
  8
COSTRUZIONI
 10
-361.23
 11
-357.672
 20
2093.0
 21
2096.558
  0
LINE
  8
COSTRUZIONI
 10
-357.756
 11
-360.7
 20
2095.945
 21
2093.0
  0
LINE
  8
COSTRUZIONI
 10
-360.523
 11
-357.791
 20
2093.0
 21
2095.732
  0
LINE
  8
COSTRUZIONI
 10
-357.928
 11
-359.993
 20
2095.065
 21
2093.0
  0
LINE
  8
COSTRUZIONI
 10
-359.816
 11
-357.984
 20
2093.0
 21
2094.832
  0
LINE
  8
COSTRUZIONI
 10
-358.193
 11
-359.286
 20
2094.093
 21
2093.0
  0
LINE
  8
COSTRUZIONI
 10
-359.109
 11
-358.279
 20
2093.0
 21
2093.83
  0
ARC
  8
APS_GEOMETRY
 10
-363.092
 20
2093.5
 40
1.0
 50
270.0
 51
360.0
  0
LINE
  8
APS_GEOMETRY
 10
-376.888
 11
-447.892
 20
2136.5
 21
2136.5
  0
LINE
  8
APS_GEOMETRY
 10
-447.892
 11
-447.892
 20
2136.5
 21
2129.8
  0
LINE
  8
APS_GEOMETRY
 10
-447.892
 11
-433.892
 20
2129.8
 21
2129.8
  0
LINE
  8
APS_GEOMETRY
 10
-433.892
 11
-433.892
 20
2129.8
 21
2125.5
  0
LINE
  8
APS_GEOMETRY
 10
-433.892
 11
-447.892
 20
2125.5
 21
2125.5
  0
LINE
  8
APS_GEOMETRY
 10
-447.892
 11
-447.892
 20
2125.5
 21
2094.5
  0
ARC
  8
APS_GEOMETRY
 10
-445.892
 20
2094.5
 40
2.0
 50
180.0
 51
270.0
  0
LINE
  8
APS_GEOMETRY
 10
-445.892
 11
-363.092
 20
2092.5
 21
2092.5
  0
LINE
  8
APS_GEOMETRY
 10
-358.592
 11
-331.892
 20
2103.0
 21
2103.0
  0
ARC
  8
APS_GEOMETRY
 10
-331.892
 20
2105.0
 40
2.0
 50
270.0
 51
360.0
  0
LINE
  8
APS_GEOMETRY
 10
-329.892
 11
-329.892
 20
2105.0
 21
2128.0
  0
LINE
  8
APS_GEOMETRY
 10
-329.892
 11
-343.892
 20
2128.0
 21
2128.0
  0
LINE
  8
APS_GEOMETRY
 10
-343.892
 11
-343.892
 20
2128.0
 21
2132.3
  0
LINE
  8
APS_GEOMETRY
 10
-343.892
 11
-329.892
 20
2132.3
 21
2132.3
  0
LINE
  8
APS_GEOMETRY
 10
-329.892
 11
-329.892
 20
2132.3
 21
2136.5
  0
LINE
  8
APS_GEOMETRY
 10
-329.892
 11
-447.892
 20
2136.5
 21
2136.5
  0
LINE
  8
COSTRUZIONI
 10
-329.892
 11
-447.892
 20
2138.0
 21
2138.0
  0
LINE
  8
COSTRUZIONI
 10
-329.892
 11
-447.892
 20
2158.0
 21
2158.0
  0
LINE
  8
COSTRUZIONI
 10
-329.892
 11
-329.892
 20
2138.0
 21
2273.043
  0
LINE
  8
COSTRUZIONI
 10
-447.892
 11
-447.892
 20
2138.0
 21
2273.043
  0
LINE
  8
COSTRUZIONI
 10
-447.892
 11
-329.892
 20
2158.0
 21
2138.0
  0
LINE
  8
COSTRUZIONI
 10
-329.892
 11
-447.892
 20
2158.0
 21
2138.0
  0
LINE
  8
APS_GEOMETRY
 10
-326.892
 11
-326.892
 20
2191.0
 21
2136.5
  0
LINE
  8
APS_GEOMETRY
 10
-326.892
 11
-329.892
 20
2136.5
 21
2136.5
  0
LINE
  8
APS_GEOMETRY
 10
-329.892
 11
-329.892
 20
2136.5
 21
2132.0
  0
LINE
  8
APS_GEOMETRY
 10
-329.892
 11
-340.392
 20
2132.0
 21
2132.0
  0
LINE
  8
APS_GEOMETRY
 10
-340.392
 11
-341.892
 20
2132.0
 21
2130.5
  0
LINE
  8
APS_GEOMETRY
 10
-341.892
 11
-341.892
 20
2130.5
 21
2128.0
  0
LINE
  8
APS_GEOMETRY
 10
-341.892
 11
-323.892
 20
2128.0
 21
2128.0
  0
ARC
  8
APS_GEOMETRY
 10
-323.892
 20
2132.0
 40
4.0
 50
270.0
 51
360.0
  0
LINE
  8
APS_GEOMETRY
 10
-319.892
 11
-319.892
 20
2132.0
 21
2193.0
  0
ARC
  8
APS_GEOMETRY
 10
-323.892
 20
2193.0
 40
4.0
 50
360.0
 51
90.0
  0
LINE
  8
APS_GEOMETRY
 10
-323.892
 11
-329.892
 20
2197.0
 21
2197.0
  0
LINE
  8
APS_GEOMETRY
 10
-329.892
 11
-329.892
 20
2197.0
 21
2191.0
  0
LINE
  8
APS_GEOMETRY
 10
-329.892
 11
-326.892
 20
2191.0
 21
2191.0
  0
LINE
  8
APS_GEOMETRY
 10
-450.892
 11
-450.892
 20
2188.5
 21
2134.0
  0
LINE
  8
APS_GEOMETRY
 10
-450.892
 11
-447.892
 20
2134.0
 21
2134.0
  0
LINE
  8
APS_GEOMETRY
 10
-447.892
 11
-447.892
 20
2134.0
 21
2129.5
  0
LINE
  8
APS_GEOMETRY
 10
-447.892
 11
-437.392
 20
2129.5
 21
2129.5
  0
LINE
  8
APS_GEOMETRY
 10
-437.392
 11
-435.892
 20
2129.5
 21
2128.0
  0
LINE
  8
APS_GEOMETRY
 10
-435.892
 11
-435.892
 20
2128.0
 21
2125.5
  0
LINE
  8
APS_GEOMETRY
 10
-435.892
 11
-453.892
 20
2125.5
 21
2125.5
  0
ARC
  8
APS_GEOMETRY
 10
-453.892
 20
2129.5
 40
4.0
 50
180.0
 51
270.0
  0
LINE
  8
APS_GEOMETRY
 10
-457.892
 11
-457.892
 20
2129.5
 21
2190.5
  0
ARC
  8
APS_GEOMETRY
 10
-453.892
 20
2190.5
 40
4.0
 50
90.0
 51
180.0
  0
LINE
  8
APS_GEOMETRY
 10
-453.892
 11
-447.892
 20
2194.5
 21
2194.5
  0
LINE
  8
APS_GEOMETRY
 10
-447.892
 11
-447.892
 20
2194.5
 21
2188.5
  0
LINE
  8
APS_GEOMETRY
 10
-447.892
 11
-450.892
 20
2188.5
 21
2188.5
  0
LINE
  8
APS_GEOMETRY
 10
-314.892
 11
-314.892
 20
237.4
 21
112.0
  0
LINE
  8
COSTRUZIONI
 10
0.0
 11
-782.426
 20
-4.5
 21
-4.5
  0
LINE
  8
APS_GEOMETRY
 10
-314.892
 11
-314.892
 20
253.0
 21
1.0
  0
ARC
  8
APS_GEOMETRY
 10
-315.892
 20
1.0
 40
1.0
 50
270.0
 51
360.0
  0
LINE
  8
APS_GEOMETRY
 10
-315.892
 11
-357.892
 20
0.0
 21
0.0
  0
ARC
  8
APS_GEOMETRY
 10
-357.892
 20
1.0
 40
1.0
 50
180.0
 51
270.0
  0
LINE
  8
APS_GEOMETRY
 10
-358.892
 11
-358.892
 20
1.0
 21
253.0
  0
LINE
  8
APS_GEOMETRY
 10
-358.892
 11
-358.892
 20
295.0
 21
733.0
  0
LINE
  8
APS_GEOMETRY
 10
-358.892
 11
-358.892
 20
880.0
 21
985.0
  0
LINE
  8
APS_GEOMETRY
 10
-358.892
 11
-358.892
 20
1027.0
 21
1090.0
  0
LINE
  8
APS_GEOMETRY
 10
-358.892
 11
-358.892
 20
1132.0
 21
1946.0
  0
LINE
  8
APS_GEOMETRY
 10
-358.892
 11
-358.892
 20
1988.0
 21
2099.0
  0
ARC
  8
APS_GEOMETRY
 10
-357.892
 20
2099.0
 40
1.0
 50
90.0
 51
180.0
  0
LINE
  8
APS_GEOMETRY
 10
-357.892
 11
-329.892
 20
2100.0
 21
2100.0
  0
LINE
  8
APS_GEOMETRY
 10
-329.892
 11
-329.892
 20
2100.0
 21
2108.0
  0
ARC
  8
APS_GEOMETRY
 10
-327.892
 20
2108.0
 40
2.0
 50
90.0
 51
180.0
  0
LINE
  8
APS_GEOMETRY
 10
-327.892
 11
-315.892
 20
2110.0
 21
2110.0
  0
ARC
  8
APS_GEOMETRY
 10
-315.892
 20
2109.0
 40
1.0
 50
360.0
 51
90.0
  0
LINE
  8
APS_GEOMETRY
 10
-314.892
 11
-314.892
 20
2109.0
 21
1988.0
  0
LINE
  8
APS_GEOMETRY
 10
-314.892
 11
-314.892
 20
1946.0
 21
1132.0
  0
LINE
  8
APS_GEOMETRY
 10
-314.892
 11
-314.892
 20
1090.0
 21
1027.0
  0
LINE
  8
APS_GEOMETRY
 10
-314.892
 11
-314.892
 20
985.0
 21
880.0
  0
LINE
  8
APS_GEOMETRY
 10
-314.892
 11
-314.892
 20
733.0
 21
295.0
  0
LINE
  8
QUOTATURA
 10
0.0
 11
0.0
 20
-418.0
 21
-558.115
  0
LINE
  8
QUOTATURA
 10
888.0
 11
888.0
 20
-418.0
 21
-558.115
  0
LINE
  8
QUOTATURA
 10
0.0
 11
247.147
 20
-558.115
 21
-558.115
  0
LINE
  8
QUOTATURA
 10
640.853
 11
888.0
 20
-558.115
 21
-558.115
  0
LINE
  8
QUOTATURA
 10
30.0
 11
0.0
 20
-563.116
 21
-558.115
  0
LINE
  8
QUOTATURA
 10
0.0
 11
30.0
 20
-558.115
 21
-553.114
  0
LINE
  8
QUOTATURA
 10
30.0
 11
30.0
 20
-553.114
 21
-563.116
  0
LINE
  8
QUOTATURA
 10
858.0
 11
888.0
 20
-553.114
 21
-558.115
  0
LINE
  8
QUOTATURA
 10
888.0
 11
858.0
 20
-558.115
 21
-563.116
  0
LINE
  8
QUOTATURA
 10
858.0
 11
858.0
 20
-563.116
 21
-553.114
  0
LINE
  8
QUOTATURA
 10
44.0
 11
44.0
 20
-416.0
 21
-485.989
  0
LINE
  8
QUOTATURA
 10
844.0
 11
844.0
 20
-416.0
 21
-485.989
  0
LINE
  8
QUOTATURA
 10
44.0
 11
249.153
 20
-485.989
 21
-485.989
  0
LINE
  8
QUOTATURA
 10
638.847
 11
844.0
 20
-485.989
 21
-485.989
  0
LINE
  8
QUOTATURA
 10
74.0
 11
44.0
 20
-490.99
 21
-485.989
  0
LINE
  8
QUOTATURA
 10
44.0
 11
74.0
 20
-485.989
 21
-480.988
  0
LINE
  8
QUOTATURA
 10
74.0
 11
74.0
 20
-480.988
 21
-490.99
  0
LINE
  8
QUOTATURA
 10
814.0
 11
844.0
 20
-480.988
 21
-485.989
  0
LINE
  8
QUOTATURA
 10
844.0
 11
814.0
 20
-485.989
 21
-490.99
  0
LINE
  8
QUOTATURA
 10
814.0
 11
814.0
 20
-490.99
 21
-480.988
  0
LINE
  8
QUOTATURA
 10
-315.892
 11
-196.315
 20
2110.0
 21
2110.0
  0
LINE
  8
QUOTATURA
 10
-315.892
 11
-196.315
 20
0.0
 21
0.0
  0
LINE
  8
QUOTATURA
 10
-196.315
 11
-196.315
 20
2110.0
 21
1171.589
  0
LINE
  8
QUOTATURA
 10
-196.315
 11
-196.315
 20
938.411
 21
0.0
  0
LINE
  8
QUOTATURA
 10
-201.316
 11
-196.315
 20
2080.0
 21
2110.0
  0
LINE
  8
QUOTATURA
 10
-196.315
 11
-191.314
 20
2110.0
 21
2080.0
  0
LINE
  8
QUOTATURA
 10
-191.314
 11
-201.316
 20
2080.0
 21
2080.0
  0
LINE
  8
QUOTATURA
 10
-191.314
 11
-196.315
 20
30.0
 21
0.0
  0
LINE
  8
QUOTATURA
 10
-196.315
 11
-201.316
 20
0.0
 21
30.0
  0
LINE
  8
QUOTATURA
 10
-201.316
 11
-191.314
 20
30.0
 21
30.0
  0
LINE
  8
QUOTATURA
 10
-447.892
 11
-503.611
 20
2092.5
 21
2092.5
  0
LINE
  8
QUOTATURA
 10
-503.611
 11
-503.611
 20
-4.5
 21
836.968
  0
LINE
  8
QUOTATURA
 10
-503.611
 11
-503.611
 20
1251.032
 21
2092.5
  0
LINE
  8
QUOTATURA
 10
-498.61
 11
-503.611
 20
25.5
 21
-4.5
  0
LINE
  8
QUOTATURA
 10
-503.611
 11
-508.612
 20
-4.5
 21
25.5
  0
LINE
  8
QUOTATURA
 10
-508.612
 11
-498.61
 20
25.5
 21
25.5
  0
LINE
  8
QUOTATURA
 10
-508.612
 11
-503.611
 20
2062.5
 21
2092.5
  0
LINE
  8
QUOTATURA
 10
-503.611
 11
-498.61
 20
2092.5
 21
2062.5
  0
LINE
  8
QUOTATURA
 10
-498.61
 11
-508.612
 20
2062.5
 21
2062.5
  0
LINE
  8
QUOTATURA
 10
-358.892
 11
-604.936
 20
-4.5
 21
-4.5
  0
LINE
  8
QUOTATURA
 10
-447.892
 11
-604.936
 20
2136.5
 21
2136.5
  0
LINE
  8
QUOTATURA
 10
-604.936
 11
-604.936
 20
-4.5
 21
866.02
  0
LINE
  8
QUOTATURA
 10
-604.936
 11
-604.936
 20
1265.98
 21
2136.5
  0
LINE
  8
QUOTATURA
 10
-599.935
 11
-604.936
 20
25.5
 21
-4.5
  0
LINE
  8
QUOTATURA
 10
-604.936
 11
-609.937
 20
-4.5
 21
25.5
  0
LINE
  8
QUOTATURA
 10
-609.937
 11
-599.935
 20
25.5
 21
25.5
  0
LINE
  8
QUOTATURA
 10
-609.937
 11
-604.936
 20
2106.5
 21
2136.5
  0
LINE
  8
QUOTATURA
 10
-604.936
 11
-599.935
 20
2136.5
 21
2106.5
  0
LINE
  8
QUOTATURA
 10
-599.935
 11
-609.937
 20
2106.5
 21
2106.5
  0
LINE
  8
QUOTATURA
 10
444.0
 11
445.949
 20
-329.0
 21
-329.0
  0
LINE
  8
QUOTATURA
 10
444.0
 11
445.949
 20
-285.0
 21
-285.0
  0
LINE
  8
QUOTATURA
 10
445.949
 11
445.949
 20
-329.0
 21
-407.664
  0
LINE
  8
QUOTATURA
 10
445.949
 11
507.764
 20
-407.664
 21
-407.664
  0
LINE
  8
QUOTATURA
 10
440.948
 11
445.949
 20
-359.0
 21
-329.0
  0
LINE
  8
QUOTATURA
 10
445.949
 11
450.95
 20
-329.0
 21
-359.0
  0
LINE
  8
QUOTATURA
 10
450.95
 11
440.948
 20
-359.0
 21
-359.0
  0
LINE
  8
QUOTATURA
 10
445.949
 11
445.949
 20
-285.0
 21
-225.0
  0
LINE
  8
QUOTATURA
 10
450.95
 11
445.949
 20
-255.0
 21
-285.0
  0
LINE
  8
QUOTATURA
 10
445.949
 11
440.948
 20
-285.0
 21
-255.0
  0
LINE
  8
QUOTATURA
 10
440.948
 11
450.95
 20
-255.0
 21
-255.0
  0
LINE
  8
APS_GEOMETRY
 10
-733.207
 11
-724.589
 20
-638.691
 21
-638.691
  0
ARC
  8
APS_GEOMETRY
 10
-725.025
 20
-626.343
 40
12.355
 50
272.021
 51
278.44
  0
ARC
  8
APS_GEOMETRY
 10
-724.539
 20
-629.621
 40
9.042
 50
278.44
 51
285.945
  0
ARC
  8
APS_GEOMETRY
 10
-720.88
 20
-642.72
 40
4.559
 50
98.584
 51
104.931
  0
ARC
  8
APS_GEOMETRY
 10
-721.188
 20
-640.679
 40
2.495
 50
90.0
 51
98.584
  0
ARC
  8
APS_GEOMETRY
 10
-721.188
 20
-640.06
 40
1.876
 50
52.871
 51
90.0
  0
ARC
  8
APS_GEOMETRY
 10
-723.732
 20
-643.42
 40
6.091
 50
32.518
 51
52.871
  0
ARC
  8
APS_GEOMETRY
 10
-725.748
 20
-644.705
 40
8.481
 50
17.209
 51
32.518
  0
ARC
  8
APS_GEOMETRY
 10
-724.068
 20
-644.185
 40
6.723
 50
360.0
 51
17.209
  0
ARC
  8
APS_GEOMETRY
 10
-720.704
 20
-644.185
 40
3.359
 50
337.348
 51
360.0
  0
ARC
  8
APS_GEOMETRY
 10
-719.354
 20
-644.748
 40
1.896
 50
307.042
 51
337.348
  0
ARC
  8
APS_GEOMETRY
 10
-719.589
 20
-644.426
 40
2.295
 50
287.186
 51
306.87
  0
ARC
  8
APS_GEOMETRY
 10
-719.798
 20
-643.749
 40
3.003
 50
270.0
 51
287.186
  0
ARC
  8
APS_GEOMETRY
 10
-719.798
 20
-644.056
 40
2.697
 50
252.221
 51
270.0
  0
ARC
  8
APS_GEOMETRY
 10
-719.924
 20
-644.447
 40
2.286
 50
232.896
 51
252.221
  0
ARC
  8
APS_GEOMETRY
 10
-719.439
 20
-643.806
 40
3.09
 50
218.3
 51
232.896
  0
ARC
  8
APS_GEOMETRY
 10
-715.648
 20
-640.812
 40
7.92
 50
209.197
 51
218.3
  0
ARC
  8
APS_GEOMETRY
 10
-734.925
 20
-651.256
 40
14.006
 50
28.025
 51
32.699
  0
ARC
  8
APS_GEOMETRY
 10
-724.847
 20
-644.786
 40
2.03
 50
32.699
 51
45.0
  0
ARC
  8
APS_GEOMETRY
 10
-724.16
 20
-644.099
 40
1.058
 50
45.0
 51
67.557
  0
ARC
  8
APS_GEOMETRY
 10
-724.164
 20
-644.109
 40
1.069
 50
67.557
 51
90.0
  0
ARC
  8
APS_GEOMETRY
 10
-724.164
 20
-644.025
 40
0.984
 50
90.0
 51
120.801
  0
ARC
  8
APS_GEOMETRY
 10
-724.197
 20
-643.969
 40
0.919
 50
120.801
 51
152.7
  0
ARC
  8
APS_GEOMETRY
 10
-723.468
 20
-644.346
 40
1.74
 50
152.7
 51
171.085
  0
ARC
  8
APS_GEOMETRY
 10
-717.924
 20
-645.215
 40
7.353
 50
171.085
 51
180.0
  0
LINE
  8
APS_GEOMETRY
 10
-725.276
 11
-725.276
 20
-645.215
 21
-654.372
  0
ARC
  8
APS_GEOMETRY
 10
-715.563
 20
-654.372
 40
9.714
 50
180.0
 51
188.194
  0
ARC
  8
APS_GEOMETRY
 10
-722.816
 20
-655.417
 40
2.385
 50
188.194
 51
204.775
  0
ARC
  8
APS_GEOMETRY
 10
-723.521
 20
-655.742
 40
1.609
 50
204.775
 51
228.576
  0
ARC
  8
APS_GEOMETRY
 10
-722.86
 20
-654.993
 40
2.608
 50
228.576
 51
247.218
  0
ARC
  8
APS_GEOMETRY
 10
-726.694
 20
-664.029
 40
7.208
 50
59.381
 51
66.93
  0
ARC
  8
APS_GEOMETRY
 10
-723.864
 20
-659.246
 40
1.65
 50
43.568
 51
59.381
  0
ARC
  8
APS_GEOMETRY
 10
-723.411
 20
-658.815
 40
1.025
 50
19.041
 51
43.568
  0
ARC
  8
APS_GEOMETRY
 10
-724.04
 20
-659.032
 40
1.691
 50
360.0
 51
19.041
  0
ARC
  8
APS_GEOMETRY
 10
-723.723
 20
-659.032
 40
1.374
 50
317.66
 51
360.0
  0
ARC
  8
APS_GEOMETRY
 10
-724.984
 20
-657.883
 40
3.08
 50
289.747
 51
317.66
  0
ARC
  8
APS_GEOMETRY
 10
-726.04
 20
-654.941
 40
6.206
 50
281.964
 51
289.747
  0
ARC
  8
APS_GEOMETRY
 10
-727.504
 20
-648.035
 40
13.265
 50
276.643
 51
281.964
  0
ARC
  8
APS_GEOMETRY
 10
-728.12
 20
-642.747
 40
18.589
 50
272.836
 51
276.643
  0
ARC
  8
APS_GEOMETRY
 10
-728.857
 20
-627.859
 40
33.495
 50
270.0
 51
272.836
  0
ARC
  8
APS_GEOMETRY
 10
-728.857
 20
-618.634
 40
42.72
 50
267.283
 51
270.0
  0
ARC
  8
APS_GEOMETRY
 10
-729.754
 20
-637.536
 40
23.797
 50
263.643
 51
267.283
  0
ARC
  8
APS_GEOMETRY
 10
-730.505
 20
-644.278
 40
17.014
 50
258.563
 51
263.643
  0
ARC
  8
APS_GEOMETRY
 10
-732.3
 20
-653.147
 40
7.964
 50
251.136
 51
258.563
  0
ARC
  8
APS_GEOMETRY
 10
-733.902
 20
-657.794
 40
3.05
 50
222.558
 51
251.395
  0
ARC
  8
APS_GEOMETRY
 10
-735.09
 20
-658.885
 40
1.436
 50
180.0
 51
222.558
  0
ARC
  8
APS_GEOMETRY
 10
-735.33
 20
-658.885
 40
1.196
 50
150.642
 51
180.0
  0
ARC
  8
APS_GEOMETRY
 10
-735.234
 20
-658.939
 40
1.306
 50
122.574
 51
150.642
  0
ARC
  8
APS_GEOMETRY
 10
-735.488
 20
-658.648
 40
0.926
 50
108.677
 51
119.055
  0
ARC
  8
APS_GEOMETRY
 10
-723.93
 20
-692.84
 40
37.018
 50
107.038
 51
108.677
  0
ARC
  8
APS_GEOMETRY
 10
-735.207
 20
-655.958
 40
1.549
 50
286.144
 51
308.66
  0
ARC
  8
APS_GEOMETRY
 10
-734.954
 20
-656.275
 40
1.143
 50
308.66
 51
334.933
  0
ARC
  8
APS_GEOMETRY
 10
-735.986
 20
-655.792
 40
2.283
 50
334.933
 51
348.829
  0
ARC
  8
APS_GEOMETRY
 10
-748.899
 20
-653.242
 40
15.445
 50
348.829
 51
354.161
  0
ARC
  8
APS_GEOMETRY
 10
-757.627
 20
-652.343
 40
24.219
 50
354.144
 51
355.66
  0
ARC
  8
APS_GEOMETRY
 10
-796.315
 20
-649.407
 40
63.019
 50
355.66
 51
356.6
  0
ARC
  8
APS_GEOMETRY
 10
-825.889
 20
-647.65
 40
92.646
 50
356.6
 51
357.24
  0
ARC
  8
APS_GEOMETRY
 10
-909.802
 20
-643.604
 40
176.656
 50
357.24
 51
357.703
  0
ARC
  8
APS_GEOMETRY
 10
-901.542
 20
-643.936
 40
168.389
 50
357.703
 51
358.674
  0
ARC
  8
APS_GEOMETRY
 10
-823.626
 20
-645.739
 40
90.452
 50
358.674
 51
0.0
  0
ARC
  8
APS_GEOMETRY
 10
-746.579
 20
-645.739
 40
13.405
 50
360.0
 51
6.242
  0
ARC
  8
APS_GEOMETRY
 10
-735.919
 20
-644.573
 40
2.682
 50
6.242
 51
20.225
  0
ARC
  8
APS_GEOMETRY
 10
-734.442
 20
-644.028
 40
1.107
 50
20.225
 51
50.44
  0
ARC
  8
APS_GEOMETRY
 10
-734.155
 20
-643.681
 40
0.657
 50
50.44
 51
90.0
  0
ARC
  8
APS_GEOMETRY
 10
-734.155
 20
-643.905
 40
0.881
 50
90.0
 51
126.747
  0
ARC
  8
APS_GEOMETRY
 10
-732.91
 20
-645.573
 40
2.962
 50
126.747
 51
146.547
  0
ARC
  8
APS_GEOMETRY
 10
-754.904
 20
-631.116
 40
23.357
 50
324.255
 51
326.701
  0
ARC
  8
APS_GEOMETRY
 10
-745.592
 20
-637.818
 40
11.885
 50
320.826
 51
324.255
  0
ARC
  8
APS_GEOMETRY
 10
-742.549
 20
-640.298
 40
7.959
 50
315.722
 51
320.826
  0
ARC
  8
APS_GEOMETRY
 10
-739.052
 20
-643.708
 40
3.075
 50
307.504
 51
315.722
  0
ARC
  8
APS_GEOMETRY
 10
-739.375
 20
-643.277
 40
3.613
 50
291.306
 51
307.405
  0
ARC
  8
APS_GEOMETRY
 10
-738.815
 20
-644.712
 40
2.073
 50
270.0
 51
291.306
  0
ARC
  8
APS_GEOMETRY
 10
-738.815
 20
-644.846
 40
1.939
 50
245.532
 51
270.0
  0
ARC
  8
APS_GEOMETRY
 10
-738.83
 20
-644.878
 40
1.904
 50
220.833
 51
245.532
  0
ARC
  8
APS_GEOMETRY
 10
-738.633
 20
-644.708
 40
2.164
 50
198.684
 51
220.833
  0
ARC
  8
APS_GEOMETRY
 10
-737.813
 20
-644.43
 40
3.03
 50
180.0
 51
198.684
  0
ARC
  8
APS_GEOMETRY
 10
-735.889
 20
-644.43
 40
4.954
 50
168.408
 51
180.0
  0
ARC
  8
APS_GEOMETRY
 10
-732.713
 20
-645.082
 40
8.196
 50
159.402
 51
168.408
  0
ARC
  8
APS_GEOMETRY
 10
-731.731
 20
-645.451
 40
9.245
 50
151.39
 51
159.402
  0
ARC
  8
APS_GEOMETRY
 10
-731.932
 20
-645.341
 40
9.016
 50
143.276
 51
151.39
  0
ARC
  8
APS_GEOMETRY
 10
-734.457
 20
-643.453
 40
5.863
 50
124.216
 51
143.31
  0
ARC
  8
APS_GEOMETRY
 10
-736.706
 20
-640.146
 40
1.864
 50
90.0
 51
124.216
  0
ARC
  8
APS_GEOMETRY
 10
-736.706
 20
-640.974
 40
2.692
 50
82.725
 51
90.0
  0
ARC
  8
APS_GEOMETRY
 10
-736.916
 20
-642.622
 40
4.353
 50
77.005
 51
82.725
  0
ARC
  8
APS_GEOMETRY
 10
-730.492
 20
-611.649
 40
27.28
 50
258.486
 51
260.378
  0
ARC
  8
APS_GEOMETRY
 10
-733.244
 20
-627.881
 40
10.816
 50
260.378
 51
263.382
  0
ARC
  8
APS_GEOMETRY
 10
-733.479
 20
-629.91
 40
8.774
 50
263.382
 51
267.084
  0
ARC
  8
APS_GEOMETRY
 10
-733.207
 20
-624.554
 40
14.137
 50
267.084
 51
270.0
  0
ARC
  8
APS_GEOMETRY
 10
-703.343
 20
-651.124
 40
12.891
 50
71.91
 51
90.0
  0
ARC
  8
APS_GEOMETRY
 10
-702.844
 20
-649.596
 40
11.283
 50
52.561
 51
71.91
  0
ARC
  8
APS_GEOMETRY
 10
-702.975
 20
-649.634
 40
11.393
 50
38.846
 51
52.156
  0
ARC
  8
APS_GEOMETRY
 10
-704.761
 20
-651.072
 40
13.686
 50
26.707
 51
38.846
  0
ARC
  8
APS_GEOMETRY
 10
-704.407
 20
-650.783
 40
13.241
 50
13.868
 51
26.278
  0
ARC
  8
APS_GEOMETRY
 10
-701.857
 20
-650.154
 40
10.614
 50
360.0
 51
13.868
  0
ARC
  8
APS_GEOMETRY
 10
-701.692
 20
-650.154
 40
10.449
 50
339.712
 51
360.0
  0
ARC
  8
APS_GEOMETRY
 10
-702.28
 20
-649.936
 40
11.076
 50
320.013
 51
339.712
  0
ARC
  8
APS_GEOMETRY
 10
-702.378
 20
-649.882
 40
11.186
 50
303.344
 51
320.123
  0
ARC
  8
APS_GEOMETRY
 10
-703.526
 20
-648.138
 40
13.274
 50
287.949
 51
303.344
  0
ARC
  8
APS_GEOMETRY
 10
-703.903
 20
-646.83
 40
14.634
 50
279.039
 51
287.776
  0
ARC
  8
APS_GEOMETRY
 10
-703.752
 20
-647.78
 40
13.673
 50
270.0
 51
279.039
  0
ARC
  8
APS_GEOMETRY
 10
-703.752
 20
-648.447
 40
13.005
 50
257.728
 51
270.0
  0
ARC
  8
APS_GEOMETRY
 10
-703.731
 20
-648.353
 40
13.102
 50
245.501
 51
257.728
  0
ARC
  8
APS_GEOMETRY
 10
-704.468
 20
-649.964
 40
11.33
 50
228.665
 51
245.511
  0
ARC
  8
APS_GEOMETRY
 10
-704.713
 20
-650.243
 40
10.959
 50
211.535
 51
228.665
  0
ARC
  8
APS_GEOMETRY
 10
-704.392
 20
-650.007
 40
11.356
 50
195.642
 51
211.701
  0
ARC
  8
APS_GEOMETRY
 10
-703.805
 20
-649.843
 40
11.966
 50
180.0
 51
195.642
  0
ARC
  8
APS_GEOMETRY
 10
-703.679
 20
-649.843
 40
12.091
 50
162.181
 51
180.0
  0
ARC
  8
APS_GEOMETRY
 10
-704.782
 20
-649.488
 40
10.933
 50
143.434
 51
162.181
  0
ARC
  8
APS_GEOMETRY
 10
-704.931
 20
-649.369
 40
10.742
 50
126.384
 51
143.471
  0
ARC
  8
APS_GEOMETRY
 10
-703.914
 20
-650.75
 40
12.457
 50
110.525
 51
126.384
  0
ARC
  8
APS_GEOMETRY
 10
-703.964
 20
-650.375
 40
12.089
 50
99.77
 51
110.925
  0
ARC
  8
APS_GEOMETRY
 10
-703.343
 20
-653.981
 40
15.748
 50
90.0
 51
99.77
  0
ARC
  8
APS_GEOMETRY
 10
-704.897
 20
-645.33
 40
2.404
 50
90.0
 51
119.604
  0
ARC
  8
APS_GEOMETRY
 10
-704.686
 20
-645.7
 40
2.83
 50
119.604
 51
146.842
  0
ARC
  8
APS_GEOMETRY
 10
-704.263
 20
-646.047
 40
3.374
 50
145.84
 51
164.055
  0
ARC
  8
APS_GEOMETRY
 10
-703.282
 20
-646.327
 40
4.394
 50
164.055
 51
180.0
  0
ARC
  8
APS_GEOMETRY
 10
-697.15
 20
-646.327
 40
10.526
 50
180.0
 51
189.977
  0
ARC
  8
APS_GEOMETRY
 10
-687.824
 20
-644.687
 40
19.995
 50
189.977
 51
197.211
  0
ARC
  8
APS_GEOMETRY
 10
-685.785
 20
-644.055
 40
22.131
 50
197.211
 51
203.76
  0
ARC
  8
APS_GEOMETRY
 10
-690.866
 20
-646.292
 40
16.579
 50
203.76
 51
211.329
  0
ARC
  8
APS_GEOMETRY
 10
-701.3
 20
-652.554
 40
4.411
 50
212.32
 51
224.441
  0
ARC
  8
APS_GEOMETRY
 10
-701.728
 20
-652.973
 40
3.812
 50
224.441
 51
237.484
  0
ARC
  8
APS_GEOMETRY
 10
-702.004
 20
-653.407
 40
3.298
 50
237.484
 51
252.416
  0
ARC
  8
APS_GEOMETRY
 10
-702.28
 20
-654.278
 40
2.383
 50
252.416
 51
270.0
  0
ARC
  8
APS_GEOMETRY
 10
-702.28
 20
-653.996
 40
2.666
 50
270.0
 51
294.953
  0
ARC
  8
APS_GEOMETRY
 10
-702.206
 20
-654.156
 40
2.489
 50
294.953
 51
320.793
  0
ARC
  8
APS_GEOMETRY
 10
-702.606
 20
-653.83
 40
3.005
 50
320.793
 51
342.777
  0
ARC
  8
APS_GEOMETRY
 10
-704.39
 20
-653.277
 40
4.873
 50
342.777
 51
0.0
  0
ARC
  8
APS_GEOMETRY
 10
-712.77
 20
-653.277
 40
13.254
 50
0.0
 51
8.499
  0
ARC
  8
APS_GEOMETRY
 10
-718.604
 20
-654.148
 40
19.152
 50
8.499
 51
15.566
  0
ARC
  8
APS_GEOMETRY
 10
-717.903
 20
-653.953
 40
18.424
 50
15.566
 51
22.909
  0
ARC
  8
APS_GEOMETRY
 10
-711.871
 20
-651.404
 40
11.876
 50
22.909
 51
32.057
  0
ARC
  8
APS_GEOMETRY
 10
-707.133
 20
-648.419
 40
6.276
 50
31.921
 51
42.51
  0
ARC
  8
APS_GEOMETRY
 10
-705.832
 20
-647.227
 40
4.511
 50
42.51
 51
55.008
  0
ARC
  8
APS_GEOMETRY
 10
-705.392
 20
-646.599
 40
3.745
 50
55.008
 51
69.88
  0
ARC
  8
APS_GEOMETRY
 10
-704.998
 20
-645.523
 40
2.599
 50
69.88
 51
87.754
  0
ARC
  8
APS_GEOMETRY
 10
-679.133
 20
-646.225
 40
7.992
 50
83.923
 51
90.0
  0
ARC
  8
APS_GEOMETRY
 10
-679.776
 20
-652.262
 40
14.063
 50
79.342
 51
83.923
  0
ARC
  8
APS_GEOMETRY
 10
-680.551
 20
-656.382
 40
18.256
 50
75.808
 51
79.342
  0
ARC
  8
APS_GEOMETRY
 10
-683.256
 20
-667.08
 40
29.29
 50
73.018
 51
75.808
  0
ARC
  8
APS_GEOMETRY
 10
-673.731
 20
-635.833
 40
3.376
 50
253.288
 51
259.046
  0
ARC
  8
APS_GEOMETRY
 10
-674.195
 20
-638.23
 40
0.935
 50
259.046
 51
270.0
  0
ARC
  8
APS_GEOMETRY
 10
-674.195
 20
-638.61
 40
0.555
 50
270.0
 51
286.699
  0
ARC
  8
APS_GEOMETRY
 10
-678.631
 20
-623.822
 40
15.995
 50
286.699
 51
289.799
  0
ARC
  8
APS_GEOMETRY
 10
-672.686
 20
-640.276
 40
1.501
 50
100.008
 51
110.556
  0
ARC
  8
APS_GEOMETRY
 10
-672.657
 20
-640.44
 40
1.667
 50
90.0
 51
100.008
  0
ARC
  8
APS_GEOMETRY
 10
-672.657
 20
-640.362
 40
1.59
 50
53.356
 51
90.0
  0
ARC
  8
APS_GEOMETRY
 10
-675.434
 20
-644.095
 40
6.242
 50
35.101
 51
53.356
  0
ARC
  8
APS_GEOMETRY
 10
-676.82
 20
-645.069
 40
7.936
 50
20.245
 51
35.101
  0
ARC
  8
APS_GEOMETRY
 10
-673.403
 20
-643.809
 40
4.294
 50
360.0
 51
20.245
  0
ARC
  8
APS_GEOMETRY
 10
-671.684
 20
-643.809
 40
2.575
 50
340.481
 51
360.0
  0
ARC
  8
APS_GEOMETRY
 10
-671.26
 20
-643.959
 40
2.125
 50
318.972
 51
340.481
  0
ARC
  8
APS_GEOMETRY
 10
-671.071
 20
-644.124
 40
1.874
 50
295.017
 51
318.972
  0
ARC
  8
APS_GEOMETRY
 10
-671.006
 20
-644.263
 40
1.721
 50
270.0
 51
295.017
  0
ARC
  8
APS_GEOMETRY
 10
-671.006
 20
-643.341
 40
2.643
 50
256.171
 51
270.0
  0
ARC
  8
APS_GEOMETRY
 10
-671.294
 20
-644.512
 40
1.437
 50
237.381
 51
256.171
  0
ARC
  8
APS_GEOMETRY
 10
-670.784
 20
-643.714
 40
2.384
 50
231.559
 51
237.381
  0
ARC
  8
APS_GEOMETRY
 10
-663.362
 20
-634.365
 40
14.321
 50
229.185
 51
231.559
  0
ARC
  8
APS_GEOMETRY
 10
-655.409
 20
-625.155
 40
26.49
 50
227.9
 51
229.185
  0
ARC
  8
APS_GEOMETRY
 10
-627.882
 20
-594.691
 40
67.548
 50
227.095
 51
227.9
  0
ARC
  8
APS_GEOMETRY
 10
-679.564
 20
-650.272
 40
8.348
 50
46.975
 51
64.612
  0
ARC
  8
APS_GEOMETRY
 10
-677.726
 20
-646.401
 40
4.063
 50
64.612
 51
90.0
  0
ARC
  8
APS_GEOMETRY
 10
-677.726
 20
-645.265
 40
2.928
 50
90.0
 51
106.966
  0
ARC
  8
APS_GEOMETRY
 10
-678.066
 20
-644.154
 40
1.766
 50
106.966
 51
128.868
  0
ARC
  8
APS_GEOMETRY
 10
-678.262
 20
-643.91
 40
1.453
 50
128.868
 51
154.741
  0
ARC
  8
APS_GEOMETRY
 10
-678.199
 20
-643.94
 40
1.523
 50
154.741
 51
180.0
  0
ARC
  8
APS_GEOMETRY
 10
-678.291
 20
-643.94
 40
1.43
 50
180.0
 51
206.64
  0
ARC
  8
APS_GEOMETRY
 10
-677.831
 20
-643.709
 40
1.945
 50
206.64
 51
229.43
  0
ARC
  8
APS_GEOMETRY
 10
-677.093
 20
-642.847
 40
3.08
 50
229.43
 51
244.493
  0
ARC
  8
APS_GEOMETRY
 10
-675.07
 20
-638.608
 40
7.777
 50
244.493
 51
253.956
  0
ARC
  8
APS_GEOMETRY
 10
-711.106
 20
-761.072
 40
119.879
 50
72.737
 51
73.58
  0
ARC
  8
APS_GEOMETRY
 10
-690.454
 20
-694.614
 40
50.287
 50
71.435
 51
72.737
  0
ARC
  8
APS_GEOMETRY
 10
-683.613
 20
-674.247
 40
28.801
 50
69.164
 51
71.435
  0
ARC
  8
APS_GEOMETRY
 10
-675.541
 20
-653.036
 40
6.106
 50
64.231
 51
69.164
  0
ARC
  8
APS_GEOMETRY
 10
-676.469
 20
-654.906
 40
8.193
 50
34.939
 51
64.068
  0
ARC
  8
APS_GEOMETRY
 10
-674.466
 20
-653.506
 40
5.749
 50
360.0
 51
34.939
  0
ARC
  8
APS_GEOMETRY
 10
-675.698
 20
-653.506
 40
6.981
 50
333.435
 51
360.0
  0
ARC
  8
APS_GEOMETRY
 10
-676.154
 20
-653.277
 40
7.491
 50
307.807
 51
333.435
  0
ARC
  8
APS_GEOMETRY
 10
-677.342
 20
-651.741
 40
9.433
 50
296.732
 51
307.786
  0
ARC
  8
APS_GEOMETRY
 10
-678.044
 20
-650.346
 40
10.995
 50
286.496
 51
296.732
  0
ARC
  8
APS_GEOMETRY
 10
-678.507
 20
-648.783
 40
12.625
 50
277.544
 51
286.496
  0
ARC
  8
APS_GEOMETRY
 10
-679.182
 20
-643.688
 40
17.765
 50
270.0
 51
277.544
  0
ARC
  8
APS_GEOMETRY
 10
-679.182
 20
-642.917
 40
18.535
 50
263.555
 51
270.0
  0
ARC
  8
APS_GEOMETRY
 10
-678.582
 20
-637.605
 40
23.881
 50
257.878
 51
263.555
  0
ARC
  8
APS_GEOMETRY
 10
-678.9
 20
-639.088
 40
22.364
 50
254.839
 51
257.878
  0
ARC
  8
APS_GEOMETRY
 10
-681.484
 20
-648.622
 40
12.487
 50
250.772
 51
254.839
  0
ARC
  8
APS_GEOMETRY
 10
-682.645
 20
-651.953
 40
8.959
 50
245.121
 51
250.772
  0
ARC
  8
APS_GEOMETRY
 10
-684.612
 20
-656.194
 40
4.284
 50
236.944
 51
245.121
  0
ARC
  8
APS_GEOMETRY
 10
-685.772
 20
-658.019
 40
2.122
 50
211.802
 51
236.31
  0
ARC
  8
APS_GEOMETRY
 10
-680.26
 20
-654.601
 40
8.608
 50
199.704
 51
211.802
  0
ARC
  8
APS_GEOMETRY
 10
-677.627
 20
-653.659
 40
11.404
 50
190.413
 51
199.704
  0
ARC
  8
APS_GEOMETRY
 10
-679.909
 20
-654.078
 40
9.084
 50
180.0
 51
190.413
  0
ARC
  8
APS_GEOMETRY
 10
-686.059
 20
-654.078
 40
2.934
 50
164.876
 51
180.0
  0
ARC
  8
APS_GEOMETRY
 10
-687.712
 20
-653.631
 40
1.222
 50
141.34
 51
164.876
  0
ARC
  8
APS_GEOMETRY
 10
-687.552
 20
-653.738
 40
1.414
 50
116.928
 51
142.001
  0
ARC
  8
APS_GEOMETRY
 10
-687.636
 20
-653.573
 40
1.229
 50
90.0
 51
116.928
  0
ARC
  8
APS_GEOMETRY
 10
-687.636
 20
-653.576
 40
1.232
 50
62.21
 51
90.0
  0
ARC
  8
APS_GEOMETRY
 10
-688.127
 20
-654.51
 40
2.287
 50
41.906
 51
62.21
  0
ARC
  8
APS_GEOMETRY
 10
-688.044
 20
-654.527
 40
2.237
 50
37.313
 51
43.668
  0
ARC
  8
APS_GEOMETRY
 10
-700.578
 20
-664.08
 40
17.997
 50
35.074
 51
37.313
  0
ARC
  8
APS_GEOMETRY
 10
-714.812
 20
-674.074
 40
35.389
 50
33.934
 51
35.074
  0
ARC
  8
APS_GEOMETRY
 10
-765.56
 20
-708.219
 40
96.555
 50
33.243
 51
33.934
  0
ARC
  8
APS_GEOMETRY
 10
-682.001
 20
-653.434
 40
3.363
 50
213.453
 51
231.637
  0
ARC
  8
APS_GEOMETRY
 10
-680.411
 20
-651.426
 40
5.924
 50
231.637
 51
245.313
  0
ARC
  8
APS_GEOMETRY
 10
-680.061
 20
-650.665
 40
6.762
 50
245.313
 51
257.398
  0
ARC
  8
APS_GEOMETRY
 10
-680.179
 20
-651.192
 40
6.222
 50
257.398
 51
270.0
  0
ARC
  8
APS_GEOMETRY
 10
-680.179
 20
-652.161
 40
5.253
 50
270.0
 51
282.907
  0
ARC
  8
APS_GEOMETRY
 10
-679.614
 20
-654.627
 40
2.722
 50
282.907
 51
300.872
  0
ARC
  8
APS_GEOMETRY
 10
-679.124
 20
-655.447
 40
1.767
 50
300.872
 51
326.876
  0
ARC
  8
APS_GEOMETRY
 10
-678.566
 20
-655.811
 40
1.101
 50
326.876
 51
0.0
  0
ARC
  8
APS_GEOMETRY
 10
-678.73
 20
-655.811
 40
1.266
 50
0.0
 51
27.553
  0
ARC
  8
APS_GEOMETRY
 10
-679.131
 20
-656.02
 40
1.717
 50
27.553
 51
51.147
  0
ARC
  8
APS_GEOMETRY
 10
-679.958
 20
-657.047
 40
3.036
 50
51.147
 51
65.225
  0
ARC
  8
APS_GEOMETRY
 10
-683.01
 20
-663.659
 40
10.318
 50
65.225
 51
72.848
  0
ARC
  8
APS_GEOMETRY
 10
-665.189
 20
-606.839
 40
49.231
 50
251.106
 51
252.532
  0
ARC
  8
APS_GEOMETRY
 10
-671.497
 20
-625.27
 40
29.751
 50
249.271
 51
251.106
  0
ARC
  8
APS_GEOMETRY
 10
-674.119
 20
-632.2
 40
22.341
 50
246.83
 51
249.271
  0
ARC
  8
APS_GEOMETRY
 10
-678.361
 20
-642.111
 40
11.56
 50
243.435
 51
246.83
  0
ARC
  8
APS_GEOMETRY
 10
-678.844
 20
-643.077
 40
10.481
 50
235.981
 51
243.435
  0
ARC
  8
APS_GEOMETRY
 10
-678.473
 20
-642.527
 40
11.144
 50
228.752
 51
235.981
  0
ARC
  8
APS_GEOMETRY
 10
-680.211
 20
-644.574
 40
8.459
 50
206.421
 51
228.457
  0
ARC
  8
APS_GEOMETRY
 10
-682.488
 20
-645.706
 40
5.916
 50
180.0
 51
206.421
  0
ARC
  8
APS_GEOMETRY
 10
-682.38
 20
-645.706
 40
6.024
 50
166.555
 51
180.0
  0
ARC
  8
APS_GEOMETRY
 10
-681.683
 20
-645.873
 40
6.741
 50
153.848
 51
166.555
  0
ARC
  8
APS_GEOMETRY
 10
-681.625
 20
-645.901
 40
6.806
 50
141.244
 51
153.848
  0
ARC
  8
APS_GEOMETRY
 10
-681.195
 20
-646.246
 40
7.357
 50
129.123
 51
141.244
  0
ARC
  8
APS_GEOMETRY
 10
-679.818
 20
-647.71
 40
9.362
 50
108.978
 51
130.006
  0
ARC
  8
APS_GEOMETRY
 10
-679.133
 20
-649.703
 40
11.47
 50
90.0
 51
108.978
  0
ARC
  8
APS_GEOMETRY
 10
-654.137
 20
-648.865
 40
10.632
 50
77.257
 51
90.0
  0
ARC
  8
APS_GEOMETRY
 10
-654.245
 20
-649.343
 40
11.122
 50
64.799
 51
77.257
  0
ARC
  8
APS_GEOMETRY
 10
-645.087
 20
-629.843
 40
10.421
 50
244.885
 51
251.175
  0
ARC
  8
APS_GEOMETRY
 10
-648.071
 20
-638.597
 40
1.173
 50
251.175
 51
270.0
  0
ARC
  8
APS_GEOMETRY
 10
-648.071
 20
-637.867
 40
1.903
 50
270.0
 51
278.82
  0
ARC
  8
APS_GEOMETRY
 10
-649.301
 20
-629.943
 40
9.922
 50
278.82
 51
282.68
  0
ARC
  8
APS_GEOMETRY
 10
-646.728
 20
-641.334
 40
1.755
 50
95.906
 51
102.995
  0
ARC
  8
APS_GEOMETRY
 10
-646.648
 20
-642.102
 40
2.528
 50
90.0
 51
95.906
  0
ARC
  8
APS_GEOMETRY
 10
-646.648
 20
-641.252
 40
1.678
 50
62.447
 51
90.0
  0
ARC
  8
APS_GEOMETRY
 10
-646.947
 20
-641.824
 40
2.323
 50
39.094
 51
62.447
  0
ARC
  8
APS_GEOMETRY
 10
-650.064
 20
-644.43
 40
6.386
 50
18.435
 51
39.611
  0
ARC
  8
APS_GEOMETRY
 10
-651.977
 20
-645.068
 40
8.403
 50
360.0
 51
18.435
  0
ARC
  8
APS_GEOMETRY
 10
-647.741
 20
-645.068
 40
4.167
 50
334.877
 51
360.0
  0
ARC
  8
APS_GEOMETRY
 10
-646.488
 20
-645.656
 40
2.783
 50
304.007
 51
334.877
  0
ARC
  8
APS_GEOMETRY
 10
-646.508
 20
-645.597
 40
2.843
 50
286.39
 51
303.69
  0
ARC
  8
APS_GEOMETRY
 10
-646.599
 20
-645.288
 40
3.165
 50
270.0
 51
286.39
  0
ARC
  8
APS_GEOMETRY
 10
-646.599
 20
-645.325
 40
3.128
 50
255.155
 51
270.0
  0
ARC
  8
APS_GEOMETRY
 10
-646.942
 20
-646.618
 40
1.791
 50
235.491
 51
255.155
  0
ARC
  8
APS_GEOMETRY
 10
-646.77
 20
-646.367
 40
2.094
 50
218.48
 51
235.491
  0
ARC
  8
APS_GEOMETRY
 10
-643.96
 20
-644.133
 40
5.684
 50
208.179
 51
218.48
  0
ARC
  8
APS_GEOMETRY
 10
-672.772
 20
-659.773
 40
27.099
 50
28.56
 51
31.664
  0
ARC
  8
APS_GEOMETRY
 10
-655.166
 20
-648.915
 40
6.414
 50
31.664
 51
38.047
  0
ARC
  8
APS_GEOMETRY
 10
-653.886
 20
-647.913
 40
4.788
 50
38.047
 51
46.56
  0
ARC
  8
APS_GEOMETRY
 10
-654.551
 20
-648.615
 40
5.756
 50
46.56
 51
54.324
  0
ARC
  8
APS_GEOMETRY
 10
-654.935
 20
-649.276
 40
6.517
 50
54.968
 51
71.48
  0
ARC
  8
APS_GEOMETRY
 10
-654.514
 20
-648.018
 40
5.19
 50
71.48
 51
90.0
  0
ARC
  8
APS_GEOMETRY
 10
-654.514
 20
-646.453
 40
3.625
 50
90.0
 51
114.63
  0
ARC
  8
APS_GEOMETRY
 10
-654.696
 20
-646.056
 40
3.188
 50
114.63
 51
140.921
  0
ARC
  8
APS_GEOMETRY
 10
-654.158
 20
-646.493
 40
3.881
 50
140.921
 51
163.13
  0
ARC
  8
APS_GEOMETRY
 10
-651.469
 20
-647.308
 40
6.691
 50
163.13
 51
180.0
  0
ARC
  8
APS_GEOMETRY
 10
-647.982
 20
-647.308
 40
10.178
 50
180.0
 51
195.44
  0
ARC
  8
APS_GEOMETRY
 10
-648.511
 20
-647.454
 40
9.629
 50
195.44
 51
211.316
  0
ARC
  8
APS_GEOMETRY
 10
-651.056
 20
-648.949
 40
6.678
 50
211.708
 51
240.457
  0
ARC
  8
APS_GEOMETRY
 10
-651.227
 20
-649.251
 40
6.332
 50
240.457
 51
270.0
  0
ARC
  8
APS_GEOMETRY
 10
-651.227
 20
-647.707
 40
7.875
 50
270.0
 51
279.549
  0
ARC
  8
APS_GEOMETRY
 10
-651.325
 20
-647.125
 40
8.466
 50
279.549
 51
288.759
  0
ARC
  8
APS_GEOMETRY
 10
-650.912
 20
-648.34
 40
7.182
 50
288.759
 51
299.545
  0
ARC
  8
APS_GEOMETRY
 10
-649.257
 20
-651.26
 40
3.826
 50
299.545
 51
314.341
  0
ARC
  8
APS_GEOMETRY
 10
-644.14
 20
-656.575
 40
3.553
 50
120.141
 51
133.452
  0
ARC
  8
APS_GEOMETRY
 10
-645.569
 20
-654.113
 40
0.706
 50
90.0
 51
120.141
  0
ARC
  8
APS_GEOMETRY
 10
-645.569
 20
-654.522
 40
1.115
 50
61.952
 51
90.0
  0
ARC
  8
APS_GEOMETRY
 10
-645.735
 20
-654.834
 40
1.468
 50
37.569
 51
61.952
  0
ARC
  8
APS_GEOMETRY
 10
-646.045
 20
-655.072
 40
1.859
 50
17.665
 51
37.569
  0
ARC
  8
APS_GEOMETRY
 10
-646.517
 20
-655.223
 40
2.354
 50
360.0
 51
17.665
  0
ARC
  8
APS_GEOMETRY
 10
-647.703
 20
-655.223
 40
3.54
 50
344.932
 51
0.0
  0
ARC
  8
APS_GEOMETRY
 10
-650.852
 20
-654.375
 40
6.801
 50
334.075
 51
344.932
  0
ARC
  8
APS_GEOMETRY
 10
-650.951
 20
-654.327
 40
6.912
 50
323.374
 51
334.075
  0
ARC
  8
APS_GEOMETRY
 10
-648.919
 20
-655.837
 40
4.38
 50
309.92
 51
323.374
  0
ARC
  8
APS_GEOMETRY
 10
-646.889
 20
-658.232
 40
1.24
 50
289.026
 51
308.991
  0
ARC
  8
APS_GEOMETRY
 10
-649.055
 20
-651.95
 40
7.886
 50
281.143
 51
289.026
  0
ARC
  8
APS_GEOMETRY
 10
-646.858
 20
-663.34
 40
3.715
 50
100.437
 51
110.12
  0
ARC
  8
APS_GEOMETRY
 10
-643.948
 20
-671.285
 40
12.177
 50
110.12
 51
115.463
  0
ARC
  8
APS_GEOMETRY
 10
-654.338
 20
-649.545
 40
11.919
 50
282.94
 51
295.628
  0
ARC
  8
APS_GEOMETRY
 10
-654.236
 20
-649.992
 40
11.46
 50
270.0
 51
282.94
  0
ARC
  8
APS_GEOMETRY
 10
-654.236
 20
-649.315
 40
12.137
 50
257.307
 51
270.0
  0
ARC
  8
APS_GEOMETRY
 10
-653.723
 20
-647.04
 40
14.469
 50
245.686
 51
257.307
  0
ARC
  8
APS_GEOMETRY
 10
-655.008
 20
-649.861
 40
11.37
 50
228.801
 51
245.735
  0
ARC
  8
APS_GEOMETRY
 10
-654.987
 20
-649.836
 40
11.402
 50
211.891
 51
228.801
  0
ARC
  8
APS_GEOMETRY
 10
-654.313
 20
-649.351
 40
12.231
 50
196.728
 51
212.152
  0
ARC
  8
APS_GEOMETRY
 10
-656.057
 20
-649.876
 40
10.41
 50
180.0
 51
196.728
  0
ARC
  8
APS_GEOMETRY
 10
-655.803
 20
-649.876
 40
10.663
 50
161.184
 51
180.0
  0
ARC
  8
APS_GEOMETRY
 10
-655.119
 20
-650.109
 40
11.386
 50
142.98
 51
161.184
  0
ARC
  8
APS_GEOMETRY
 10
-654.587
 20
-650.516
 40
12.056
 50
127.824
 51
142.958
  0
ARC
  8
APS_GEOMETRY
 10
-653.71
 20
-651.645
 40
13.486
 50
113.52
 51
127.824
  0
ARC
  8
APS_GEOMETRY
 10
-653.995
 20
-650.986
 40
12.768
 50
101.927
 51
113.527
  0
ARC
  8
APS_GEOMETRY
 10
-654.137
 20
-650.314
 40
12.08
 50
90.0
 51
101.927
  0
ARC
  8
APS_GEOMETRY
 10
-628.897
 20
-651.124
 40
12.891
 50
71.91
 51
90.0
  0
ARC
  8
APS_GEOMETRY
 10
-628.398
 20
-649.596
 40
11.283
 50
52.561
 51
71.91
  0
ARC
  8
APS_GEOMETRY
 10
-628.528
 20
-649.634
 40
11.393
 50
38.846
 51
52.156
  0
ARC
  8
APS_GEOMETRY
 10
-630.314
 20
-651.072
 40
13.686
 50
26.707
 51
38.846
  0
ARC
  8
APS_GEOMETRY
 10
-629.961
 20
-650.783
 40
13.241
 50
13.868
 51
26.278
  0
ARC
  8
APS_GEOMETRY
 10
-627.411
 20
-650.154
 40
10.614
 50
360.0
 51
13.868
  0
ARC
  8
APS_GEOMETRY
 10
-627.246
 20
-650.154
 40
10.449
 50
339.712
 51
360.0
  0
ARC
  8
APS_GEOMETRY
 10
-627.834
 20
-649.936
 40
11.076
 50
320.013
 51
339.712
  0
ARC
  8
APS_GEOMETRY
 10
-627.932
 20
-649.882
 40
11.186
 50
303.344
 51
320.123
  0
ARC
  8
APS_GEOMETRY
 10
-629.08
 20
-648.138
 40
13.274
 50
287.949
 51
303.344
  0
ARC
  8
APS_GEOMETRY
 10
-629.457
 20
-646.83
 40
14.634
 50
279.039
 51
287.776
  0
ARC
  8
APS_GEOMETRY
 10
-629.306
 20
-647.78
 40
13.673
 50
270.0
 51
279.039
  0
ARC
  8
APS_GEOMETRY
 10
-629.306
 20
-648.447
 40
13.005
 50
257.728
 51
270.0
  0
ARC
  8
APS_GEOMETRY
 10
-629.285
 20
-648.353
 40
13.102
 50
245.501
 51
257.728
  0
ARC
  8
APS_GEOMETRY
 10
-630.022
 20
-649.964
 40
11.33
 50
228.665
 51
245.511
  0
ARC
  8
APS_GEOMETRY
 10
-630.266
 20
-650.243
 40
10.959
 50
211.535
 51
228.665
  0
ARC
  8
APS_GEOMETRY
 10
-629.946
 20
-650.007
 40
11.356
 50
195.642
 51
211.701
  0
ARC
  8
APS_GEOMETRY
 10
-629.359
 20
-649.843
 40
11.966
 50
180.0
 51
195.642
  0
ARC
  8
APS_GEOMETRY
 10
-629.233
 20
-649.843
 40
12.091
 50
162.181
 51
180.0
  0
ARC
  8
APS_GEOMETRY
 10
-630.336
 20
-649.488
 40
10.933
 50
143.434
 51
162.181
  0
ARC
  8
APS_GEOMETRY
 10
-630.485
 20
-649.369
 40
10.742
 50
126.384
 51
143.471
  0
ARC
  8
APS_GEOMETRY
 10
-629.467
 20
-650.75
 40
12.457
 50
110.525
 51
126.384
  0
ARC
  8
APS_GEOMETRY
 10
-629.518
 20
-650.375
 40
12.089
 50
99.77
 51
110.925
  0
ARC
  8
APS_GEOMETRY
 10
-628.897
 20
-653.981
 40
15.748
 50
90.0
 51
99.77
  0
ARC
  8
APS_GEOMETRY
 10
-630.45
 20
-645.33
 40
2.404
 50
90.0
 51
119.604
  0
ARC
  8
APS_GEOMETRY
 10
-630.24
 20
-645.7
 40
2.83
 50
119.604
 51
146.842
  0
ARC
  8
APS_GEOMETRY
 10
-629.817
 20
-646.047
 40
3.374
 50
145.84
 51
164.055
  0
ARC
  8
APS_GEOMETRY
 10
-628.836
 20
-646.327
 40
4.394
 50
164.055
 51
180.0
  0
ARC
  8
APS_GEOMETRY
 10
-622.704
 20
-646.327
 40
10.526
 50
180.0
 51
189.977
  0
ARC
  8
APS_GEOMETRY
 10
-613.378
 20
-644.687
 40
19.995
 50
189.977
 51
197.211
  0
ARC
  8
APS_GEOMETRY
 10
-611.338
 20
-644.055
 40
22.131
 50
197.211
 51
203.76
  0
ARC
  8
APS_GEOMETRY
 10
-616.42
 20
-646.292
 40
16.579
 50
203.76
 51
211.329
  0
ARC
  8
APS_GEOMETRY
 10
-626.854
 20
-652.554
 40
4.411
 50
212.32
 51
224.441
  0
ARC
  8
APS_GEOMETRY
 10
-627.281
 20
-652.973
 40
3.812
 50
224.441
 51
237.484
  0
ARC
  8
APS_GEOMETRY
 10
-627.558
 20
-653.407
 40
3.298
 50
237.484
 51
252.416
  0
ARC
  8
APS_GEOMETRY
 10
-627.834
 20
-654.278
 40
2.383
 50
252.416
 51
270.0
  0
ARC
  8
APS_GEOMETRY
 10
-627.834
 20
-653.996
 40
2.666
 50
270.0
 51
294.953
  0
ARC
  8
APS_GEOMETRY
 10
-627.759
 20
-654.156
 40
2.489
 50
294.953
 51
320.793
  0
ARC
  8
APS_GEOMETRY
 10
-628.16
 20
-653.83
 40
3.005
 50
320.793
 51
342.777
  0
ARC
  8
APS_GEOMETRY
 10
-629.944
 20
-653.277
 40
4.873
 50
342.777
 51
0.0
  0
ARC
  8
APS_GEOMETRY
 10
-638.324
 20
-653.277
 40
13.254
 50
0.0
 51
8.499
  0
ARC
  8
APS_GEOMETRY
 10
-644.158
 20
-654.148
 40
19.152
 50
8.499
 51
15.566
  0
ARC
  8
APS_GEOMETRY
 10
-643.456
 20
-653.953
 40
18.424
 50
15.566
 51
22.909
  0
ARC
  8
APS_GEOMETRY
 10
-637.425
 20
-651.404
 40
11.876
 50
22.909
 51
32.057
  0
ARC
  8
APS_GEOMETRY
 10
-632.687
 20
-648.419
 40
6.276
 50
31.921
 51
42.51
  0
ARC
  8
APS_GEOMETRY
 10
-631.386
 20
-647.227
 40
4.511
 50
42.51
 51
55.008
  0
ARC
  8
APS_GEOMETRY
 10
-630.946
 20
-646.599
 40
3.745
 50
55.008
 51
69.88
  0
ARC
  8
APS_GEOMETRY
 10
-630.552
 20
-645.523
 40
2.599
 50
69.88
 51
87.754
  0
ARC
  8
APS_GEOMETRY
 10
-602.217
 20
-648.865
 40
10.632
 50
77.257
 51
90.0
  0
ARC
  8
APS_GEOMETRY
 10
-602.325
 20
-649.343
 40
11.122
 50
64.799
 51
77.257
  0
ARC
  8
APS_GEOMETRY
 10
-593.167
 20
-629.843
 40
10.421
 50
244.885
 51
251.175
  0
ARC
  8
APS_GEOMETRY
 10
-596.151
 20
-638.597
 40
1.173
 50
251.175
 51
270.0
  0
ARC
  8
APS_GEOMETRY
 10
-596.151
 20
-637.867
 40
1.903
 50
270.0
 51
278.82
  0
ARC
  8
APS_GEOMETRY
 10
-597.38
 20
-629.943
 40
9.922
 50
278.82
 51
282.68
  0
ARC
  8
APS_GEOMETRY
 10
-594.808
 20
-641.334
 40
1.755
 50
95.906
 51
102.995
  0
ARC
  8
APS_GEOMETRY
 10
-594.728
 20
-642.102
 40
2.528
 50
90.0
 51
95.906
  0
ARC
  8
APS_GEOMETRY
 10
-594.728
 20
-641.252
 40
1.678
 50
62.447
 51
90.0
  0
ARC
  8
APS_GEOMETRY
 10
-595.027
 20
-641.824
 40
2.323
 50
39.094
 51
62.447
  0
ARC
  8
APS_GEOMETRY
 10
-598.144
 20
-644.43
 40
6.386
 50
18.435
 51
39.611
  0
ARC
  8
APS_GEOMETRY
 10
-600.057
 20
-645.068
 40
8.403
 50
360.0
 51
18.435
  0
ARC
  8
APS_GEOMETRY
 10
-595.821
 20
-645.068
 40
4.167
 50
334.877
 51
360.0
  0
ARC
  8
APS_GEOMETRY
 10
-594.568
 20
-645.656
 40
2.783
 50
304.007
 51
334.877
  0
ARC
  8
APS_GEOMETRY
 10
-594.588
 20
-645.597
 40
2.843
 50
286.39
 51
303.69
  0
ARC
  8
APS_GEOMETRY
 10
-594.679
 20
-645.288
 40
3.165
 50
270.0
 51
286.39
  0
ARC
  8
APS_GEOMETRY
 10
-594.679
 20
-645.325
 40
3.128
 50
255.155
 51
270.0
  0
ARC
  8
APS_GEOMETRY
 10
-595.022
 20
-646.618
 40
1.791
 50
235.491
 51
255.155
  0
ARC
  8
APS_GEOMETRY
 10
-594.85
 20
-646.367
 40
2.094
 50
218.48
 51
235.491
  0
ARC
  8
APS_GEOMETRY
 10
-592.04
 20
-644.133
 40
5.684
 50
208.179
 51
218.48
  0
ARC
  8
APS_GEOMETRY
 10
-620.852
 20
-659.773
 40
27.099
 50
28.56
 51
31.664
  0
ARC
  8
APS_GEOMETRY
 10
-603.246
 20
-648.915
 40
6.414
 50
31.664
 51
38.047
  0
ARC
  8
APS_GEOMETRY
 10
-601.966
 20
-647.913
 40
4.788
 50
38.047
 51
46.56
  0
ARC
  8
APS_GEOMETRY
 10
-602.631
 20
-648.615
 40
5.756
 50
46.56
 51
54.324
  0
ARC
  8
APS_GEOMETRY
 10
-603.015
 20
-649.276
 40
6.517
 50
54.968
 51
71.48
  0
ARC
  8
APS_GEOMETRY
 10
-602.593
 20
-648.018
 40
5.19
 50
71.48
 51
90.0
  0
ARC
  8
APS_GEOMETRY
 10
-602.593
 20
-646.453
 40
3.625
 50
90.0
 51
114.63
  0
ARC
  8
APS_GEOMETRY
 10
-602.776
 20
-646.056
 40
3.188
 50
114.63
 51
140.921
  0
ARC
  8
APS_GEOMETRY
 10
-602.238
 20
-646.493
 40
3.881
 50
140.921
 51
163.13
  0
ARC
  8
APS_GEOMETRY
 10
-599.549
 20
-647.308
 40
6.691
 50
163.13
 51
180.0
  0
ARC
  8
APS_GEOMETRY
 10
-596.062
 20
-647.308
 40
10.178
 50
180.0
 51
195.44
  0
ARC
  8
APS_GEOMETRY
 10
-596.591
 20
-647.454
 40
9.629
 50
195.44
 51
211.316
  0
ARC
  8
APS_GEOMETRY
 10
-599.136
 20
-648.949
 40
6.678
 50
211.708
 51
240.457
  0
ARC
  8
APS_GEOMETRY
 10
-599.307
 20
-649.251
 40
6.332
 50
240.457
 51
270.0
  0
ARC
  8
APS_GEOMETRY
 10
-599.307
 20
-647.707
 40
7.875
 50
270.0
 51
279.549
  0
ARC
  8
APS_GEOMETRY
 10
-599.405
 20
-647.125
 40
8.466
 50
279.549
 51
288.759
  0
ARC
  8
APS_GEOMETRY
 10
-598.992
 20
-648.34
 40
7.182
 50
288.759
 51
299.545
  0
ARC
  8
APS_GEOMETRY
 10
-597.337
 20
-651.26
 40
3.826
 50
299.545
 51
314.341
  0
ARC
  8
APS_GEOMETRY
 10
-592.22
 20
-656.575
 40
3.553
 50
120.141
 51
133.452
  0
ARC
  8
APS_GEOMETRY
 10
-593.649
 20
-654.113
 40
0.706
 50
90.0
 51
120.141
  0
ARC
  8
APS_GEOMETRY
 10
-593.649
 20
-654.522
 40
1.115
 50
61.952
 51
90.0
  0
ARC
  8
APS_GEOMETRY
 10
-593.815
 20
-654.834
 40
1.468
 50
37.569
 51
61.952
  0
ARC
  8
APS_GEOMETRY
 10
-594.125
 20
-655.072
 40
1.859
 50
17.665
 51
37.569
  0
ARC
  8
APS_GEOMETRY
 10
-594.597
 20
-655.223
 40
2.354
 50
360.0
 51
17.665
  0
ARC
  8
APS_GEOMETRY
 10
-595.783
 20
-655.223
 40
3.54
 50
344.932
 51
0.0
  0
ARC
  8
APS_GEOMETRY
 10
-598.932
 20
-654.375
 40
6.801
 50
334.075
 51
344.932
  0
ARC
  8
APS_GEOMETRY
 10
-599.031
 20
-654.327
 40
6.912
 50
323.374
 51
334.075
  0
ARC
  8
APS_GEOMETRY
 10
-596.999
 20
-655.837
 40
4.38
 50
309.92
 51
323.374
  0
ARC
  8
APS_GEOMETRY
 10
-594.969
 20
-658.232
 40
1.24
 50
289.026
 51
308.991
  0
ARC
  8
APS_GEOMETRY
 10
-597.135
 20
-651.95
 40
7.886
 50
281.143
 51
289.026
  0
ARC
  8
APS_GEOMETRY
 10
-594.938
 20
-663.34
 40
3.715
 50
100.437
 51
110.12
  0
ARC
  8
APS_GEOMETRY
 10
-592.028
 20
-671.285
 40
12.177
 50
110.12
 51
115.463
  0
ARC
  8
APS_GEOMETRY
 10
-602.418
 20
-649.545
 40
11.919
 50
282.94
 51
295.628
  0
ARC
  8
APS_GEOMETRY
 10
-602.316
 20
-649.992
 40
11.46
 50
270.0
 51
282.94
  0
ARC
  8
APS_GEOMETRY
 10
-602.316
 20
-649.315
 40
12.137
 50
257.307
 51
270.0
  0
ARC
  8
APS_GEOMETRY
 10
-601.803
 20
-647.04
 40
14.469
 50
245.686
 51
257.307
  0
ARC
  8
APS_GEOMETRY
 10
-603.088
 20
-649.861
 40
11.37
 50
228.801
 51
245.735
  0
ARC
  8
APS_GEOMETRY
 10
-603.067
 20
-649.836
 40
11.402
 50
211.891
 51
228.801
  0
ARC
  8
APS_GEOMETRY
 10
-602.393
 20
-649.351
 40
12.231
 50
196.728
 51
212.152
  0
ARC
  8
APS_GEOMETRY
 10
-604.137
 20
-649.876
 40
10.41
 50
180.0
 51
196.728
  0
ARC
  8
APS_GEOMETRY
 10
-603.883
 20
-649.876
 40
10.663
 50
161.184
 51
180.0
  0
ARC
  8
APS_GEOMETRY
 10
-603.199
 20
-650.109
 40
11.386
 50
142.98
 51
161.184
  0
ARC
  8
APS_GEOMETRY
 10
-602.667
 20
-650.516
 40
12.056
 50
127.824
 51
142.958
  0
ARC
  8
APS_GEOMETRY
 10
-601.79
 20
-651.645
 40
13.486
 50
113.52
 51
127.824
  0
ARC
  8
APS_GEOMETRY
 10
-602.075
 20
-650.986
 40
12.768
 50
101.927
 51
113.527
  0
ARC
  8
APS_GEOMETRY
 10
-602.217
 20
-650.314
 40
12.08
 50
90.0
 51
101.927
  0
ARC
  8
APS_GEOMETRY
 10
-576.977
 20
-651.124
 40
12.891
 50
71.91
 51
90.0
  0
ARC
  8
APS_GEOMETRY
 10
-576.478
 20
-649.596
 40
11.283
 50
52.561
 51
71.91
  0
ARC
  8
APS_GEOMETRY
 10
-576.608
 20
-649.634
 40
11.393
 50
38.846
 51
52.156
  0
ARC
  8
APS_GEOMETRY
 10
-578.394
 20
-651.072
 40
13.686
 50
26.707
 51
38.846
  0
ARC
  8
APS_GEOMETRY
 10
-578.041
 20
-650.783
 40
13.241
 50
13.868
 51
26.278
  0
ARC
  8
APS_GEOMETRY
 10
-575.491
 20
-650.154
 40
10.614
 50
360.0
 51
13.868
  0
ARC
  8
APS_GEOMETRY
 10
-575.326
 20
-650.154
 40
10.449
 50
339.712
 51
360.0
  0
ARC
  8
APS_GEOMETRY
 10
-575.914
 20
-649.936
 40
11.076
 50
320.013
 51
339.712
  0
ARC
  8
APS_GEOMETRY
 10
-576.012
 20
-649.882
 40
11.186
 50
303.344
 51
320.123
  0
ARC
  8
APS_GEOMETRY
 10
-577.16
 20
-648.138
 40
13.274
 50
287.949
 51
303.344
  0
ARC
  8
APS_GEOMETRY
 10
-577.537
 20
-646.83
 40
14.634
 50
279.039
 51
287.776
  0
ARC
  8
APS_GEOMETRY
 10
-577.386
 20
-647.78
 40
13.673
 50
270.0
 51
279.039
  0
ARC
  8
APS_GEOMETRY
 10
-577.386
 20
-648.447
 40
13.005
 50
257.728
 51
270.0
  0
ARC
  8
APS_GEOMETRY
 10
-577.365
 20
-648.353
 40
13.102
 50
245.501
 51
257.728
  0
ARC
  8
APS_GEOMETRY
 10
-578.102
 20
-649.964
 40
11.33
 50
228.665
 51
245.511
  0
ARC
  8
APS_GEOMETRY
 10
-578.346
 20
-650.243
 40
10.959
 50
211.535
 51
228.665
  0
ARC
  8
APS_GEOMETRY
 10
-578.025
 20
-650.007
 40
11.356
 50
195.642
 51
211.701
  0
ARC
  8
APS_GEOMETRY
 10
-577.439
 20
-649.843
 40
11.966
 50
180.0
 51
195.642
  0
ARC
  8
APS_GEOMETRY
 10
-577.313
 20
-649.843
 40
12.091
 50
162.181
 51
180.0
  0
ARC
  8
APS_GEOMETRY
 10
-578.416
 20
-649.488
 40
10.933
 50
143.434
 51
162.181
  0
ARC
  8
APS_GEOMETRY
 10
-578.564
 20
-649.369
 40
10.742
 50
126.384
 51
143.471
  0
ARC
  8
APS_GEOMETRY
 10
-577.547
 20
-650.75
 40
12.457
 50
110.525
 51
126.384
  0
ARC
  8
APS_GEOMETRY
 10
-577.598
 20
-650.375
 40
12.089
 50
99.77
 51
110.925
  0
ARC
  8
APS_GEOMETRY
 10
-576.977
 20
-653.981
 40
15.748
 50
90.0
 51
99.77
  0
ARC
  8
APS_GEOMETRY
 10
-578.53
 20
-645.33
 40
2.404
 50
90.0
 51
119.604
  0
ARC
  8
APS_GEOMETRY
 10
-578.32
 20
-645.7
 40
2.83
 50
119.604
 51
146.842
  0
ARC
  8
APS_GEOMETRY
 10
-577.897
 20
-646.047
 40
3.374
 50
145.84
 51
164.055
  0
ARC
  8
APS_GEOMETRY
 10
-576.916
 20
-646.327
 40
4.394
 50
164.055
 51
180.0
  0
ARC
  8
APS_GEOMETRY
 10
-570.784
 20
-646.327
 40
10.526
 50
180.0
 51
189.977
  0
ARC
  8
APS_GEOMETRY
 10
-561.458
 20
-644.687
 40
19.995
 50
189.977
 51
197.211
  0
ARC
  8
APS_GEOMETRY
 10
-559.418
 20
-644.055
 40
22.131
 50
197.211
 51
203.76
  0
ARC
  8
APS_GEOMETRY
 10
-564.5
 20
-646.292
 40
16.579
 50
203.76
 51
211.329
  0
ARC
  8
APS_GEOMETRY
 10
-574.934
 20
-652.554
 40
4.411
 50
212.32
 51
224.441
  0
ARC
  8
APS_GEOMETRY
 10
-575.361
 20
-652.973
 40
3.812
 50
224.441
 51
237.484
  0
ARC
  8
APS_GEOMETRY
 10
-575.638
 20
-653.407
 40
3.298
 50
237.484
 51
252.416
  0
ARC
  8
APS_GEOMETRY
 10
-575.914
 20
-654.278
 40
2.383
 50
252.416
 51
270.0
  0
ARC
  8
APS_GEOMETRY
 10
-575.914
 20
-653.996
 40
2.666
 50
270.0
 51
294.953
  0
ARC
  8
APS_GEOMETRY
 10
-575.839
 20
-654.156
 40
2.489
 50
294.953
 51
320.793
  0
ARC
  8
APS_GEOMETRY
 10
-576.24
 20
-653.83
 40
3.005
 50
320.793
 51
342.777
  0
ARC
  8
APS_GEOMETRY
 10
-578.024
 20
-653.277
 40
4.873
 50
342.777
 51
0.0
  0
ARC
  8
APS_GEOMETRY
 10
-586.404
 20
-653.277
 40
13.254
 50
0.0
 51
8.499
  0
ARC
  8
APS_GEOMETRY
 10
-592.238
 20
-654.148
 40
19.152
 50
8.499
 51
15.566
  0
ARC
  8
APS_GEOMETRY
 10
-591.536
 20
-653.953
 40
18.424
 50
15.566
 51
22.909
  0
ARC
  8
APS_GEOMETRY
 10
-585.505
 20
-651.404
 40
11.876
 50
22.909
 51
32.057
  0
ARC
  8
APS_GEOMETRY
 10
-580.767
 20
-648.419
 40
6.276
 50
31.921
 51
42.51
  0
ARC
  8
APS_GEOMETRY
 10
-579.466
 20
-647.227
 40
4.511
 50
42.51
 51
55.008
  0
ARC
  8
APS_GEOMETRY
 10
-579.026
 20
-646.599
 40
3.745
 50
55.008
 51
69.88
  0
ARC
  8
APS_GEOMETRY
 10
-578.632
 20
-645.523
 40
2.599
 50
69.88
 51
87.754
  0
ARC
  8
APS_GEOMETRY
 10
-551.72
 20
-652.835
 40
1.21
 50
90.0
 51
115.837
  0
ARC
  8
APS_GEOMETRY
 10
-552.018
 20
-652.22
 40
0.526
 50
115.837
 51
155.462
  0
ARC
  8
APS_GEOMETRY
 10
-551.67
 20
-652.379
 40
0.909
 50
155.462
 51
168.366
  0
ARC
  8
APS_GEOMETRY
 10
-548.497
 20
-653.032
 40
4.148
 50
168.366
 51
174.395
  0
ARC
  8
APS_GEOMETRY
 10
-545.299
 20
-653.346
 40
7.361
 50
174.395
 51
177.813
  0
ARC
  8
APS_GEOMETRY
 10
-534.685
 20
-653.751
 40
17.983
 50
177.813
 51
180.0
  0
ARC
  8
APS_GEOMETRY
 10
-527.001
 20
-653.751
 40
25.667
 50
180.0
 51
184.62
  0
ARC
  8
APS_GEOMETRY
 10
-544.211
 20
-655.142
 40
8.401
 50
184.62
 51
192.7
  0
ARC
  8
APS_GEOMETRY
 10
-550.846
 20
-656.598
 40
1.609
 50
194.036
 51
205.821
  0
ARC
  8
APS_GEOMETRY
 10
-551.549
 20
-656.938
 40
0.828
 50
205.821
 51
222.274
  0
ARC
  8
APS_GEOMETRY
 10
-551.333
 20
-656.743
 40
1.119
 50
222.274
 51
234.605
  0
ARC
  8
APS_GEOMETRY
 10
-548.903
 20
-653.322
 40
5.315
 50
234.605
 51
240.255
  0
ARC
  8
APS_GEOMETRY
 10
-552.598
 20
-659.86
 40
2.194
 50
34.592
 51
61.189
  0
ARC
  8
APS_GEOMETRY
 10
-551.872
 20
-659.36
 40
1.313
 50
360.0
 51
34.592
  0
ARC
  8
APS_GEOMETRY
 10
-551.829
 20
-659.36
 40
1.27
 50
318.231
 51
360.0
  0
ARC
  8
APS_GEOMETRY
 10
-552.678
 20
-658.601
 40
2.408
 50
288.227
 51
318.231
  0
ARC
  8
APS_GEOMETRY
 10
-553.558
 20
-655.927
 40
5.223
 50
280.377
 51
288.227
  0
ARC
  8
APS_GEOMETRY
 10
-555.093
 20
-647.545
 40
13.744
 50
275.541
 51
280.377
  0
ARC
  8
APS_GEOMETRY
 10
-555.755
 20
-640.727
 40
20.595
 50
272.304
 51
275.541
  0
ARC
  8
APS_GEOMETRY
 10
-556.56
 20
-620.709
 40
40.629
 50
270.0
 51
272.304
  0
ARC
  8
APS_GEOMETRY
 10
-556.56
 20
-637.438
 40
23.9
 50
262.811
 51
270.0
  0
ARC
  8
APS_GEOMETRY
 10
-558.705
 20
-654.441
 40
6.762
 50
249.274
 51
262.811
  0
ARC
  8
APS_GEOMETRY
 10
-560.054
 20
-658.006
 40
2.95
 50
221.379
 51
249.274
  0
ARC
  8
APS_GEOMETRY
 10
-561.237
 20
-659.049
 40
1.373
 50
180.0
 51
221.379
  0
ARC
  8
APS_GEOMETRY
 10
-561.246
 20
-659.049
 40
1.364
 50
164.055
 51
180.0
  0
ARC
  8
APS_GEOMETRY
 10
-561.815
 20
-658.886
 40
0.773
 50
142.815
 51
164.055
  0
ARC
  8
APS_GEOMETRY
 10
-561.457
 20
-659.158
 40
1.222
 50
129.007
 51
142.815
  0
ARC
  8
APS_GEOMETRY
 10
-557.061
 20
-664.585
 40
8.206
 50
123.69
 51
129.007
  0
ARC
  8
APS_GEOMETRY
 10
-563.299
 20
-655.199
 40
3.064
 50
303.389
 51
319.022
  0
ARC
  8
APS_GEOMETRY
 10
-562.47
 20
-655.919
 40
1.966
 50
319.022
 51
338.575
  0
ARC
  8
APS_GEOMETRY
 10
-563.58
 20
-655.483
 40
3.158
 50
338.575
 51
351.049
  0
ARC
  8
APS_GEOMETRY
 10
-576.983
 20
-653.372
 40
16.726
 50
351.049
 51
356.46
  0
ARC
  8
APS_GEOMETRY
 10
-572.565
 20
-653.54
 40
12.307
 50
355.972
 51
358.68
  0
ARC
  8
APS_GEOMETRY
 10
-717.66
 20
-650.197
 40
157.441
 50
358.68
 51
359.437
  0
LINE
  8
APS_GEOMETRY
 10
-560.227
 11
-560.212
 20
-651.744
 21
-649.288
  0
LINE
  8
APS_GEOMETRY
 10
-560.212
 11
-560.207
 20
-649.288
 21
-646.082
  0
ARC
  8
APS_GEOMETRY
 10
-598.111
 20
-646.082
 40
37.905
 50
360.0
 51
1.717
  0
ARC
  8
APS_GEOMETRY
 10
-577.827
 20
-645.474
 40
17.611
 50
1.717
 51
4.236
  0
ARC
  8
APS_GEOMETRY
 10
-571.212
 20
-644.984
 40
10.979
 50
4.236
 51
8.269
  0
ARC
  8
APS_GEOMETRY
 10
-563.6
 20
-643.878
 40
3.287
 50
8.269
 51
15.642
  0
ARC
  8
APS_GEOMETRY
 10
-562.29
 20
-643.511
 40
1.926
 50
15.642
 51
39.417
  0
ARC
  8
APS_GEOMETRY
 10
-562.261
 20
-643.487
 40
1.888
 50
39.417
 51
63.435
  0
ARC
  8
APS_GEOMETRY
 10
-558.86
 20
-636.442
 40
5.935
 50
236.874
 51
244.486
  0
ARC
  8
APS_GEOMETRY
 10
-561.39
 20
-640.319
 40
1.306
 50
220.601
 51
236.874
  0
ARC
  8
APS_GEOMETRY
 10
-561.68
 20
-640.567
 40
0.923
 50
198.246
 51
220.601
  0
ARC
  8
APS_GEOMETRY
 10
-561.246
 20
-640.424
 40
1.38
 50
180.0
 51
198.246
  0
ARC
  8
APS_GEOMETRY
 10
-561.253
 20
-640.424
 40
1.374
 50
156.161
 51
180.0
  0
ARC
  8
APS_GEOMETRY
 10
-561.061
 20
-640.509
 40
1.583
 50
133.977
 51
156.161
  0
ARC
  8
APS_GEOMETRY
 10
-560.679
 20
-640.904
 40
2.133
 50
116.996
 51
133.977
  0
ARC
  8
APS_GEOMETRY
 10
-559.921
 20
-642.393
 40
3.804
 50
104.3
 51
116.996
  0
ARC
  8
APS_GEOMETRY
 10
-559.725
 20
-643.146
 40
4.582
 50
95.326
 51
104.349
  0
ARC
  8
APS_GEOMETRY
 10
-558.931
 20
-651.663
 40
13.136
 50
90.0
 51
95.326
  0
ARC
  8
APS_GEOMETRY
 10
-558.931
 20
-645.034
 40
6.506
 50
87.553
 51
90.0
  0
ARC
  8
APS_GEOMETRY
 10
-560.315
 20
-677.428
 40
38.93
 50
86.553
 51
87.553
  0
ARC
  8
APS_GEOMETRY
 10
-562.284
 20
-710.101
 40
71.662
 50
86.009
 51
86.553
  0
ARC
  8
APS_GEOMETRY
 10
-569.938
 20
-819.808
 40
181.636
 50
85.668
 51
86.009
  0
ARC
  8
APS_GEOMETRY
 10
-555.614
 20
-631.152
 40
7.563
 50
265.426
 51
268.531
  0
ARC
  8
APS_GEOMETRY
 10
-554.941
 20
-604.931
 40
33.793
 50
268.531
 51
270.0
  0
ARC
  8
APS_GEOMETRY
 10
-554.941
 20
-612.968
 40
25.755
 50
270.0
 51
271.637
  0
ARC
  8
APS_GEOMETRY
 10
-555.517
 20
-592.826
 40
45.906
 50
271.637
 51
272.862
  0
ARC
  8
APS_GEOMETRY
 10
-556.177
 20
-579.611
 40
59.137
 50
272.862
 51
273.814
  0
ARC
  8
APS_GEOMETRY
 10
-558.414
 20
-546.059
 40
92.764
 50
273.814
 51
274.574
  0
ARC
  8
APS_GEOMETRY
 10
-544.383
 20
-728.555
 40
90.271
 50
93.72
 51
94.214
  0
ARC
  8
APS_GEOMETRY
 10
-547.378
 20
-682.496
 40
44.115
 50
93.013
 51
93.72
  0
ARC
  8
APS_GEOMETRY
 10
-548.199
 20
-666.898
 40
28.496
 50
91.918
 51
93.013
  0
ARC
  8
APS_GEOMETRY
 10
-548.842
 20
-647.69
 40
9.277
 50
90.0
 51
91.918
  0
ARC
  8
APS_GEOMETRY
 10
-548.842
 20
-650.467
 40
12.054
 50
73.82
 51
90.0
  0
ARC
  8
APS_GEOMETRY
 10
-547.654
 20
-646.372
 40
7.791
 50
53.658
 51
73.82
  0
ARC
  8
APS_GEOMETRY
 10
-545.964
 20
-644.063
 40
4.929
 50
26.03
 51
53.569
  0
ARC
  8
APS_GEOMETRY
 10
-546.483
 20
-644.316
 40
5.506
 50
360.0
 51
26.03
  0
ARC
  8
APS_GEOMETRY
 10
-546.698
 20
-644.316
 40
5.722
 50
345.282
 51
360.0
  0
ARC
  8
APS_GEOMETRY
 10
-546.148
 20
-644.461
 40
5.152
 50
329.767
 51
345.282
  0
ARC
  8
APS_GEOMETRY
 10
-545.836
 20
-644.642
 40
4.792
 50
313.168
 51
329.767
  0
ARC
  8
APS_GEOMETRY
 10
-545.721
 20
-644.765
 40
4.623
 50
296.267
 51
313.168
  0
ARC
  8
APS_GEOMETRY
 10
-543.089
 20
-650.082
 40
1.31
 50
116.565
 51
139.899
  0
ARC
  8
APS_GEOMETRY
 10
-543.742
 20
-649.532
 40
0.456
 50
139.899
 51
180.0
  0
ARC
  8
APS_GEOMETRY
 10
-543.692
 20
-649.532
 40
0.506
 50
180.0
 51
226.193
  0
ARC
  8
APS_GEOMETRY
 10
-542.756
 20
-648.557
 40
1.858
 50
226.193
 51
249.829
  0
ARC
  8
APS_GEOMETRY
 10
-545.437
 20
-655.937
 40
5.995
 50
53.249
 51
70.105
  0
ARC
  8
APS_GEOMETRY
 10
-544.219
 20
-654.307
 40
3.96
 50
32.471
 51
53.249
  0
ARC
  8
APS_GEOMETRY
 10
-544.787
 20
-654.668
 40
4.632
 50
23.305
 51
32.471
  0
ARC
  8
APS_GEOMETRY
 10
-548.292
 20
-656.178
 40
8.449
 50
16.521
 51
23.305
  0
ARC
  8
APS_GEOMETRY
 10
-551.025
 20
-656.988
 40
11.299
 50
11.429
 51
16.521
  0
ARC
  8
APS_GEOMETRY
 10
-558.77
 20
-658.554
 40
19.201
 50
7.524
 51
11.429
  0
ARC
  8
APS_GEOMETRY
 10
-533.105
 20
-655.136
 40
6.69
 50
187.765
 51
196.914
  0
ARC
  8
APS_GEOMETRY
 10
-538.577
 20
-656.8
 40
0.971
 50
196.914
 51
221.082
  0
ARC
  8
APS_GEOMETRY
 10
-538.556
 20
-656.782
 40
0.999
 50
221.082
 51
244.607
  0
ARC
  8
APS_GEOMETRY
 10
-536.219
 20
-651.859
 40
6.448
 50
244.607
 51
253.811
  0
ARC
  8
APS_GEOMETRY
 10
-538.274
 20
-658.864
 40
0.852
 50
51.45
 51
72.474
  0
ARC
  8
APS_GEOMETRY
 10
-538.485
 20
-659.129
 40
1.191
 50
33.69
 51
51.45
  0
ARC
  8
APS_GEOMETRY
 10
-538.534
 20
-659.162
 40
1.25
 50
16.639
 51
33.69
  0
ARC
  8
APS_GEOMETRY
 10
-538.594
 20
-659.18
 40
1.312
 50
360.0
 51
16.639
  0
ARC
  8
APS_GEOMETRY
 10
-538.612
 20
-659.18
 40
1.331
 50
338.993
 51
360.0
  0
ARC
  8
APS_GEOMETRY
 10
-539.425
 20
-658.868
 40
2.201
 50
322.696
 51
338.993
  0
ARC
  8
APS_GEOMETRY
 10
-539.727
 20
-658.637
 40
2.582
 50
308.603
 51
322.696
  0
ARC
  8
APS_GEOMETRY
 10
-539.936
 20
-658.376
 40
2.916
 50
295.346
 51
308.603
  0
ARC
  8
APS_GEOMETRY
 10
-541.031
 20
-655.963
 40
5.566
 50
279.583
 51
294.905
  0
ARC
  8
APS_GEOMETRY
 10
-542.465
 20
-647.472
 40
14.176
 50
270.0
 51
279.583
  0
ARC
  8
APS_GEOMETRY
 10
-542.465
 20
-651.313
 40
10.336
 50
261.247
 51
270.0
  0
ARC
  8
APS_GEOMETRY
 10
-543.127
 20
-655.613
 40
5.985
 50
249.737
 51
261.247
  0
ARC
  8
APS_GEOMETRY
 10
-543.562
 20
-656.792
 40
4.728
 50
235.345
 51
249.737
  0
ARC
  8
APS_GEOMETRY
 10
-544.112
 20
-657.587
 40
3.762
 50
219.198
 51
235.345
  0
ARC
  8
APS_GEOMETRY
 10
-542.955
 20
-656.601
 40
5.281
 50
209.076
 51
219.56
  0
ARC
  8
APS_GEOMETRY
 10
-540.285
 20
-655.116
 40
8.337
 50
200.735
 51
209.076
  0
ARC
  8
APS_GEOMETRY
 10
-536.6
 20
-653.721
 40
12.277
 50
197.881
 51
200.735
  0
ARC
  8
APS_GEOMETRY
 10
-521.459
 20
-648.836
 40
28.186
 50
195.997
 51
197.881
  0
ARC
  8
APS_GEOMETRY
 10
-510.268
 20
-645.628
 40
39.828
 50
194.664
 51
195.997
  0
ARC
  8
APS_GEOMETRY
 10
-479.271
 20
-637.517
 40
71.869
 50
193.671
 51
194.664
  0
ARC
  8
APS_GEOMETRY
 10
-557.876
 20
-656.627
 40
9.026
 50
13.61
 51
23.585
  0
ARC
  8
APS_GEOMETRY
 10
-551.966
 20
-654.047
 40
2.577
 50
23.585
 51
42.31
  0
ARC
  8
APS_GEOMETRY
 10
-551.43
 20
-653.559
 40
1.853
 50
42.31
 51
67.521
  0
ARC
  8
APS_GEOMETRY
 10
-551.854
 20
-654.584
 40
2.962
 50
67.521
 51
87.397
  0
LINE
  8
APS_GEOMETRY
 10
-552.652
 11
-552.832
 20
-643.286
 21
-647.096
  0
LINE
  8
APS_GEOMETRY
 10
-552.832
 11
-552.832
 20
-647.096
 21
-647.157
  0
LINE
  8
APS_GEOMETRY
 10
-552.832
 11
-552.832
 20
-647.157
 21
-647.243
  0
ARC
  8
APS_GEOMETRY
 10
-550.185
 20
-647.243
 40
2.647
 50
180.0
 51
192.339
  0
ARC
  8
APS_GEOMETRY
 10
-552.289
 20
-647.703
 40
0.493
 50
192.339
 51
221.186
  0
ARC
  8
APS_GEOMETRY
 10
-552.34
 20
-647.747
 40
0.426
 50
221.186
 51
253.872
  0
ARC
  8
APS_GEOMETRY
 10
-551.982
 20
-646.509
 40
1.715
 50
253.872
 51
270.0
  0
ARC
  8
APS_GEOMETRY
 10
-551.982
 20
-644.239
 40
3.985
 50
270.0
 51
289.569
  0
ARC
  8
APS_GEOMETRY
 10
-551.257
 20
-646.277
 40
1.822
 50
289.569
 51
318.681
  0
ARC
  8
APS_GEOMETRY
 10
-551.453
 20
-646.105
 40
2.083
 50
318.681
 51
344.628
  0
ARC
  8
APS_GEOMETRY
 10
-555.104
 20
-645.101
 40
5.87
 50
344.628
 51
0.0
  0
ARC
  8
APS_GEOMETRY
 10
-553.369
 20
-645.101
 40
4.134
 50
0.0
 51
35.369
  0
ARC
  8
APS_GEOMETRY
 10
-551.475
 20
-643.756
 40
1.812
 50
35.369
 51
90.0
  0
ARC
  8
APS_GEOMETRY
 10
-551.475
 20
-643.776
 40
1.831
 50
90.0
 51
108.435
  0
ARC
  8
APS_GEOMETRY
 10
-551.831
 20
-642.707
 40
0.705
 50
108.435
 51
138.366
  0
ARC
  8
APS_GEOMETRY
 10
-551.735
 20
-642.792
 40
0.833
 50
138.366
 51
164.291
  0
ARC
  8
APS_GEOMETRY
 10
-549.493
 20
-643.423
 40
3.162
 50
164.291
 51
177.51
  0
LINE
  8
APS_GEOMETRY
 10
-523.543
 11
-515.399
 20
-639.476
 21
-646.605
  0
ARC
  8
APS_GEOMETRY
 10
-507.784
 20
-637.866
 40
11.592
 50
228.93
 51
232.674
  0
ARC
  8
APS_GEOMETRY
 10
-512.02
 20
-643.422
 40
4.605
 50
232.674
 51
238.617
  0
ARC
  8
APS_GEOMETRY
 10
-513.086
 20
-645.169
 40
2.558
 50
238.617
 51
249.131
  0
ARC
  8
APS_GEOMETRY
 10
-513.764
 20
-646.948
 40
0.655
 50
249.131
 51
270.0
  0
ARC
  8
APS_GEOMETRY
 10
-513.764
 20
-647.029
 40
0.574
 50
270.0
 51
334.898
  0
ARC
  8
APS_GEOMETRY
 10
-516.413
 20
-645.788
 40
3.499
 50
334.898
 51
0.0
  0
ARC
  8
APS_GEOMETRY
 10
-542.029
 20
-645.788
 40
29.115
 50
360.0
 51
2.026
  0
ARC
  8
APS_GEOMETRY
 10
-526.586
 20
-645.241
 40
13.662
 50
2.026
 51
4.984
  0
ARC
  8
APS_GEOMETRY
 10
-521.536
 20
-644.801
 40
8.593
 50
4.984
 51
9.673
  0
ARC
  8
APS_GEOMETRY
 10
-515.716
 20
-643.809
 40
2.689
 50
9.673
 51
18.06
  0
ARC
  8
APS_GEOMETRY
 10
-514.83
 20
-643.52
 40
1.758
 50
18.06
 51
42.397
  0
ARC
  8
APS_GEOMETRY
 10
-515.116
 20
-643.781
 40
2.145
 50
42.397
 51
64.398
  0
ARC
  8
APS_GEOMETRY
 10
-512.504
 20
-638.388
 40
3.847
 50
233.633
 51
244.026
  0
ARC
  8
APS_GEOMETRY
 10
-513.927
 20
-640.32
 40
1.448
 50
216.656
 51
233.633
  0
ARC
  8
APS_GEOMETRY
 10
-514.145
 20
-640.482
 40
1.176
 50
196.082
 51
216.656
  0
ARC
  8
APS_GEOMETRY
 10
-513.433
 20
-640.277
 40
1.917
 50
180.0
 51
196.082
  0
ARC
  8
APS_GEOMETRY
 10
-513.956
 20
-640.277
 40
1.394
 50
133.202
 51
180.0
  0
ARC
  8
APS_GEOMETRY
 10
-512.857
 20
-641.448
 40
3.0
 50
101.788
 51
133.202
  0
ARC
  8
APS_GEOMETRY
 10
-512.601
 20
-642.596
 40
4.176
 50
96.633
 51
102.011
  0
ARC
  8
APS_GEOMETRY
 10
-511.671
 20
-650.59
 40
12.225
 50
93.489
 51
96.633
  0
ARC
  8
APS_GEOMETRY
 10
-511.273
 20
-657.12
 40
18.766
 50
91.439
 51
93.489
  0
ARC
  8
APS_GEOMETRY
 10
-510.788
 20
-676.417
 40
38.069
 50
90.0
 51
91.439
  0
ARC
  8
APS_GEOMETRY
 10
-510.788
 20
-673.83
 40
35.482
 50
87.994
 51
90.0
  0
ARC
  8
APS_GEOMETRY
 10
-510.143
 20
-655.409
 40
17.05
 50
85.101
 51
87.994
  0
ARC
  8
APS_GEOMETRY
 10
-509.62
 20
-649.301
 40
10.92
 50
80.595
 51
85.101
  0
ARC
  8
APS_GEOMETRY
 10
-508.426
 20
-642.094
 40
3.615
 50
72.759
 51
80.595
  0
ARC
  8
APS_GEOMETRY
 10
-508.064
 20
-640.974
 40
2.438
 50
40.956
 51
73.072
  0
ARC
  8
APS_GEOMETRY
 10
-507.374
 20
-640.375
 40
1.524
 50
360.0
 51
40.956
  0
ARC
  8
APS_GEOMETRY
 10
-507.282
 20
-640.375
 40
1.432
 50
322.573
 51
360.0
  0
ARC
  8
APS_GEOMETRY
 10
-508.035
 20
-639.799
 40
2.38
 50
293.749
 51
322.573
  0
ARC
  8
APS_GEOMETRY
 10
-505.013
 20
-646.74
 40
5.19
 50
113.429
 51
119.291
  0
ARC
  8
APS_GEOMETRY
 10
-507.032
 20
-643.14
 40
1.062
 50
119.291
 51
132.274
  0
ARC
  8
APS_GEOMETRY
 10
-507.149
 20
-643.012
 40
0.889
 50
132.274
 51
147.653
  0
ARC
  8
APS_GEOMETRY
 10
-506.308
 20
-643.544
 40
1.884
 50
147.653
 51
158.199
  0
ARC
  8
APS_GEOMETRY
 10
-505.028
 20
-644.084
 40
3.273
 50
157.751
 51
167.885
  0
ARC
  8
APS_GEOMETRY
 10
-498.218
 20
-645.545
 40
10.238
 50
167.885
 51
173.61
  0
ARC
  8
APS_GEOMETRY
 10
-492.195
 20
-646.22
 40
16.299
 50
173.61
 51
177.221
  0
ARC
  8
APS_GEOMETRY
 10
-473.617
 20
-647.122
 40
34.899
 50
177.221
 51
179.689
  0
LINE
  8
APS_GEOMETRY
 10
-508.515
 11
-508.515
 20
-646.932
 21
-652.263
  0
ARC
  8
APS_GEOMETRY
 10
-290.833
 20
-652.263
 40
217.683
 50
180.0
 51
180.161
  0
ARC
  8
APS_GEOMETRY
 10
-101.923
 20
-651.731
 40
406.593
 50
180.161
 51
180.279
  0
LINE
  8
APS_GEOMETRY
 10
-508.511
 11
-508.506
 20
-653.714
 21
-654.608
  0
LINE
  8
APS_GEOMETRY
 10
-508.506
 11
-508.499
 20
-654.608
 21
-655.615
  0
ARC
  8
APS_GEOMETRY
 10
-547.341
 20
-655.836
 40
38.843
 50
358.204
 51
0.326
  0
ARC
  8
APS_GEOMETRY
 10
-528.864
 20
-656.415
 40
20.356
 50
355.274
 51
358.204
  0
ARC
  8
APS_GEOMETRY
 10
-522.433
 20
-656.947
 40
13.903
 50
350.991
 51
355.274
  0
ARC
  8
APS_GEOMETRY
 10
-514.243
 20
-658.245
 40
5.612
 50
344.249
 51
350.991
  0
ARC
  8
APS_GEOMETRY
 10
-511.475
 20
-659.035
 40
2.733
 50
314.415
 51
344.445
  0
ARC
  8
APS_GEOMETRY
 10
-510.461
 20
-660.07
 40
1.284
 50
270.0
 51
314.415
  0
ARC
  8
APS_GEOMETRY
 10
-510.461
 20
-659.274
 40
2.08
 50
256.342
 51
270.0
  0
ARC
  8
APS_GEOMETRY
 10
-510.609
 20
-659.884
 40
1.452
 50
239.982
 51
256.342
  0
ARC
  8
APS_GEOMETRY
 10
-509.962
 20
-658.764
 40
2.746
 50
231.153
 51
239.982
  0
ARC
  8
APS_GEOMETRY
 10
-499.088
 20
-645.262
 40
20.083
 50
227.891
 51
231.153
  0
LINE
  8
APS_GEOMETRY
 10
-512.554
 11
-522.251
 20
-660.161
 21
-651.478
  0
ARC
  8
APS_GEOMETRY
 10
-525.986
 20
-655.614
 40
5.573
 50
47.911
 51
61.468
  0
ARC
  8
APS_GEOMETRY
 10
-523.935
 20
-651.841
 40
1.278
 50
61.468
 51
90.0
  0
ARC
  8
APS_GEOMETRY
 10
-523.935
 20
-651.122
 40
0.56
 50
90.0
 51
133.195
  0
ARC
  8
APS_GEOMETRY
 10
-523.383
 20
-651.71
 40
1.367
 50
133.195
 51
160.454
  0
ARC
  8
APS_GEOMETRY
 10
-521.611
 20
-652.34
 40
3.247
 50
160.454
 51
173.251
  0
ARC
  8
APS_GEOMETRY
 10
-513.277
 20
-653.326
 40
11.639
 50
173.251
 51
180.0
  0
ARC
  8
APS_GEOMETRY
 10
-490.607
 20
-653.326
 40
34.309
 50
180.0
 51
181.897
  0
ARC
  8
APS_GEOMETRY
 10
-508.779
 20
-653.928
 40
16.128
 50
181.897
 51
184.664
  0
ARC
  8
APS_GEOMETRY
 10
-514.734
 20
-654.413
 40
10.152
 50
184.664
 51
189.048
  0
ARC
  8
APS_GEOMETRY
 10
-521.635
 20
-655.512
 40
3.165
 50
189.048
 51
196.905
  0
ARC
  8
APS_GEOMETRY
 10
-522.73
 20
-655.845
 40
2.02
 50
196.905
 51
220.253
  0
ARC
  8
APS_GEOMETRY
 10
-522.708
 20
-655.827
 40
2.049
 50
220.253
 51
243.435
  0
ARC
  8
APS_GEOMETRY
 10
-524.707
 20
-659.857
 40
2.45
 50
37.921
 51
63.778
  0
ARC
  8
APS_GEOMETRY
 10
-523.691
 20
-659.065
 40
1.162
 50
360.0
 51
37.921
  0
ARC
  8
APS_GEOMETRY
 10
-524.143
 20
-659.065
 40
1.614
 50
324.268
 51
360.0
  0
ARC
  8
APS_GEOMETRY
 10
-524.746
 20
-658.631
 40
2.357
 50
294.86
 51
324.268
  0
ARC
  8
APS_GEOMETRY
 10
-525.745
 20
-656.476
 40
4.732
 50
278.78
 51
294.86
  0
ARC
  8
APS_GEOMETRY
 10
-527.434
 20
-645.536
 40
15.802
 50
270.0
 51
278.78
  0
ARC
  8
APS_GEOMETRY
 10
-527.434
 20
-648.372
 40
12.966
 50
260.383
 51
270.0
  0
ARC
  8
APS_GEOMETRY
 10
-528.801
 20
-656.436
 40
4.787
 50
244.522
 51
260.383
  0
ARC
  8
APS_GEOMETRY
 10
-529.791
 20
-658.513
 40
2.486
 50
216.549
 51
244.522
  0
ARC
  8
APS_GEOMETRY
 10
-530.601
 20
-659.114
 40
1.477
 50
180.0
 51
216.549
  0
ARC
  8
APS_GEOMETRY
 10
-530.075
 20
-659.114
 40
2.003
 50
164.65
 51
180.0
  0
ARC
  8
APS_GEOMETRY
 10
-531.218
 20
-658.801
 40
0.818
 50
140.528
 51
164.65
  0
ARC
  8
APS_GEOMETRY
 10
-530.755
 20
-659.181
 40
1.417
 50
126.135
 51
140.528
  0
ARC
  8
APS_GEOMETRY
 10
-525.928
 20
-665.793
 40
9.603
 50
120.619
 51
126.135
  0
ARC
  8
APS_GEOMETRY
 10
-531.651
 20
-656.132
 40
1.625
 50
300.784
 51
330.068
  0
ARC
  8
APS_GEOMETRY
 10
-532.734
 20
-655.508
 40
2.875
 50
330.068
 51
351.983
  0
ARC
  8
APS_GEOMETRY
 10
-550.915
 20
-653.138
 40
21.21
 50
352.493
 51
355.365
  0
ARC
  8
APS_GEOMETRY
 10
-572.847
 20
-651.36
 40
43.213
 50
355.365
 51
357.376
  0
ARC
  8
APS_GEOMETRY
 10
-588.203
 20
-650.656
 40
58.586
 50
357.376
 51
358.861
  0
ARC
  8
APS_GEOMETRY
 10
-629.116
 20
-649.843
 40
99.507
 50
358.861
 51
0.0
  0
ARC
  8
APS_GEOMETRY
 10
-592.321
 20
-649.843
 40
62.712
 50
360.0
 51
1.926
  0
ARC
  8
APS_GEOMETRY
 10
-563.128
 20
-648.861
 40
33.503
 50
1.926
 51
4.562
  0
ARC
  8
APS_GEOMETRY
 10
-552.834
 20
-648.04
 40
23.176
 50
4.562
 51
8.366
  0
ARC
  8
APS_GEOMETRY
 10
-539.446
 20
-646.071
 40
9.644
 50
8.366
 51
14.265
  0
ARC
  8
APS_GEOMETRY
 10
-534.384
 20
-644.791
 40
4.422
 50
14.349
 51
23.629
  0
ARC
  8
APS_GEOMETRY
 10
-531.817
 20
-643.667
 40
1.62
 50
23.629
 51
38.991
  0
ARC
  8
APS_GEOMETRY
 10
-531.807
 20
-643.66
 40
1.608
 50
38.991
 51
54.462
  0
ARC
  8
APS_GEOMETRY
 10
-533.309
 20
-645.763
 40
4.192
 50
54.462
 51
64.026
  0
ARC
  8
APS_GEOMETRY
 10
-529.07
 20
-637.079
 40
5.471
 50
235.472
 51
243.947
  0
ARC
  8
APS_GEOMETRY
 10
-531.26
 20
-640.261
 40
1.608
 50
219.806
 51
235.472
  0
ARC
  8
APS_GEOMETRY
 10
-531.591
 20
-640.538
 40
1.176
 50
198.939
 51
219.806
  0
ARC
  8
APS_GEOMETRY
 10
-531.356
 20
-640.457
 40
1.425
 50
180.0
 51
198.939
  0
ARC
  8
APS_GEOMETRY
 10
-531.426
 20
-640.457
 40
1.356
 50
126.254
 51
180.0
  0
ARC
  8
APS_GEOMETRY
 10
-529.356
 20
-643.279
 40
4.856
 50
98.616
 51
126.254
  0
ARC
  8
APS_GEOMETRY
 10
-529.064
 20
-645.611
 40
7.205
 50
94.456
 51
98.13
  0
ARC
  8
APS_GEOMETRY
 10
-527.94
 20
-660.037
 40
21.675
 50
92.337
 51
94.456
  0
ARC
  8
APS_GEOMETRY
 10
-527.461
 20
-671.776
 40
33.424
 50
90.963
 51
92.337
  0
ARC
  8
APS_GEOMETRY
 10
-526.878
 20
-706.451
 40
68.103
 50
90.0
 51
90.963
  0
ARC
  8
APS_GEOMETRY
 10
-526.878
 20
-650.758
 40
12.411
 50
83.928
 51
90.0
  0
ARC
  8
APS_GEOMETRY
 10
-525.86
 20
-641.19
 40
2.788
 50
71.095
 51
83.928
  0
ARC
  8
APS_GEOMETRY
 10
-525.767
 20
-640.918
 40
2.501
 50
56.848
 51
71.095
  0
ARC
  8
APS_GEOMETRY
 10
-528.519
 20
-645.13
 40
7.532
 50
48.652
 51
56.848
  0
ARC
  8
APS_GEOMETRY
 10
-494.139
 20
-658.651
 40
20.304
 50
84.71
 51
90.0
  0
ARC
  8
APS_GEOMETRY
 10
-493.767
 20
-654.631
 40
16.267
 50
78.799
 51
84.71
  0
ARC
  8
APS_GEOMETRY
 10
-491.358
 20
-642.46
 40
3.859
 50
49.783
 51
78.771
  0
ARC
  8
APS_GEOMETRY
 10
-489.748
 20
-640.555
 40
1.365
 50
360.0
 51
49.783
  0
ARC
  8
APS_GEOMETRY
 10
-489.893
 20
-640.555
 40
1.51
 50
342.759
 51
360.0
  0
ARC
  8
APS_GEOMETRY
 10
-489.105
 20
-640.799
 40
0.685
 50
317.045
 51
342.759
  0
ARC
  8
APS_GEOMETRY
 10
-489.486
 20
-640.445
 40
1.205
 50
301.817
 51
317.045
  0
ARC
  8
APS_GEOMETRY
 10
-495.114
 20
-631.374
 40
11.88
 50
296.98
 51
301.817
  0
ARC
  8
APS_GEOMETRY
 10
-489.113
 20
-643.183
 40
1.366
 50
116.565
 51
149.078
  0
ARC
  8
APS_GEOMETRY
 10
-487.353
 20
-644.237
 40
3.417
 50
149.078
 51
169.469
  0
ARC
  8
APS_GEOMETRY
 10
-483.601
 20
-644.935
 40
7.234
 50
169.469
 51
174.598
  0
ARC
  8
APS_GEOMETRY
 10
-464.269
 20
-646.763
 40
26.652
 50
174.598
 51
177.269
  0
ARC
  8
APS_GEOMETRY
 10
-447.27
 20
-647.574
 40
43.67
 50
177.269
 51
178.901
  0
ARC
  8
APS_GEOMETRY
 10
-394.617
 20
-648.584
 40
96.333
 50
178.901
 51
180.0
  0
ARC
  8
APS_GEOMETRY
 10
-287.622
 20
-648.584
 40
203.328
 50
180.0
 51
180.88
  0
ARC
  8
APS_GEOMETRY
 10
-412.882
 20
-650.508
 40
78.054
 50
180.88
 51
182.3
  0
ARC
  8
APS_GEOMETRY
 10
-449.495
 20
-651.978
 40
41.411
 50
182.3
 51
184.974
  0
ARC
  8
APS_GEOMETRY
 10
-484.405
 20
-655.016
 40
6.369
 50
184.974
 51
191.793
  0
ARC
  8
APS_GEOMETRY
 10
-488.46
 20
-655.792
 40
2.242
 50
193.57
 51
205.787
  0
ARC
  8
APS_GEOMETRY
 10
-489.469
 20
-656.279
 40
1.122
 50
205.787
 51
223.091
  0
ARC
  8
APS_GEOMETRY
 10
-489.213
 20
-656.04
 40
1.472
 50
223.091
 51
236.441
  0
ARC
  8
APS_GEOMETRY
 10
-487.071
 20
-652.812
 40
5.346
 50
236.441
 51
243.435
  0
ARC
  8
APS_GEOMETRY
 10
-490.35
 20
-659.547
 40
2.146
 50
37.185
 51
65.556
  0
ARC
  8
APS_GEOMETRY
 10
-489.651
 20
-659.016
 40
1.268
 50
0.0
 51
37.185
  0
ARC
  8
APS_GEOMETRY
 10
-489.689
 20
-659.016
 40
1.306
 50
312.039
 51
360.0
  0
ARC
  8
APS_GEOMETRY
 10
-491.245
 20
-657.291
 40
3.629
 50
283.815
 51
312.039
  0
ARC
  8
APS_GEOMETRY
 10
-493.815
 20
-646.638
 40
14.587
 50
279.273
 51
283.627
  0
ARC
  8
APS_GEOMETRY
 10
-494.842
 20
-640.346
 40
20.963
 50
275.641
 51
279.273
  0
ARC
  8
APS_GEOMETRY
 10
-495.235
 20
-636.369
 40
24.959
 50
272.588
 51
275.641
  0
ARC
  8
APS_GEOMETRY
 10
-495.676
 20
-626.61
 40
34.728
 50
270.0
 51
272.588
  0
ARC
  8
APS_GEOMETRY
 10
-495.676
 20
-640.391
 40
20.947
 50
262.774
 51
270.0
  0
ARC
  8
APS_GEOMETRY
 10
-497.564
 20
-655.285
 40
5.934
 50
249.175
 51
262.774
  0
ARC
  8
APS_GEOMETRY
 10
-498.751
 20
-658.404
 40
2.597
 50
221.23
 51
249.175
  0
ARC
  8
APS_GEOMETRY
 10
-499.785
 20
-659.31
 40
1.221
 50
180.0
 51
221.23
  0
ARC
  8
APS_GEOMETRY
 10
-499.986
 20
-659.31
 40
1.021
 50
142.696
 51
180.0
  0
ARC
  8
APS_GEOMETRY
 10
-498.375
 20
-660.538
 40
3.046
 50
121.357
 51
142.696
  0
ARC
  8
APS_GEOMETRY
 10
-501.097
 20
-656.08
 40
2.177
 50
301.477
 51
324.728
  0
ARC
  8
APS_GEOMETRY
 10
-500.807
 20
-656.285
 40
1.822
 50
324.728
 51
350.181
  0
ARC
  8
APS_GEOMETRY
 10
-509.927
 20
-654.777
 40
11.066
 50
350.538
 51
355.423
  0
ARC
  8
APS_GEOMETRY
 10
-547.403
 20
-651.777
 40
48.662
 50
355.423
 51
357.752
  0
ARC
  8
APS_GEOMETRY
 10
-582.2
 20
-650.411
 40
83.485
 50
357.752
 51
359.111
  0
ARC
  8
APS_GEOMETRY
 10
-693.573
 20
-648.682
 40
194.872
 50
359.111
 51
0.0
  0
ARC
  8
APS_GEOMETRY
 10
-566.313
 20
-648.682
 40
67.612
 50
0.0
 51
1.773
  0
ARC
  8
APS_GEOMETRY
 10
-526.633
 20
-647.454
 40
27.913
 50
1.773
 51
4.532
  0
ARC
  8
APS_GEOMETRY
 10
-514.572
 20
-646.498
 40
15.814
 50
4.532
 51
9.384
  0
ARC
  8
APS_GEOMETRY
 10
-502.326
 20
-644.474
 40
3.402
 50
9.384
 51
19.855
  0
ARC
  8
APS_GEOMETRY
 10
-500.705
 20
-643.857
 40
1.668
 50
18.853
 51
42.158
  0
ARC
  8
APS_GEOMETRY
 10
-502.094
 20
-645.115
 40
3.542
 50
42.158
 51
58.092
  0
ARC
  8
APS_GEOMETRY
 10
-495.98
 20
-635.667
 40
7.713
 50
230.711
 51
236.634
  0
ARC
  8
APS_GEOMETRY
 10
-499.82
 20
-640.361
 40
1.648
 50
217.875
 51
230.711
  0
ARC
  8
APS_GEOMETRY
 10
-500.347
 20
-640.77
 40
0.981
 50
196.928
 51
217.875
  0
ARC
  8
APS_GEOMETRY
 10
-499.854
 20
-640.62
 40
1.496
 50
180.0
 51
196.928
  0
ARC
  8
APS_GEOMETRY
 10
-500.176
 20
-640.62
 40
1.174
 50
148.791
 51
180.0
  0
ARC
  8
APS_GEOMETRY
 10
-499.869
 20
-640.807
 40
1.533
 50
121.569
 51
148.791
  0
ARC
  8
APS_GEOMETRY
 10
-499.316
 20
-641.706
 40
2.589
 50
112.806
 51
121.569
  0
ARC
  8
APS_GEOMETRY
 10
-497.822
 20
-645.258
 40
6.443
 50
107.254
 51
112.806
  0
ARC
  8
APS_GEOMETRY
 10
-496.908
 20
-648.204
 40
9.527
 50
103.487
 51
107.254
  0
ARC
  8
APS_GEOMETRY
 10
-494.812
 20
-656.94
 40
18.511
 50
100.784
 51
103.487
  0
ARC
  8
APS_GEOMETRY
 10
-494.156
 20
-659.356
 40
21.008
 50
95.643
 51
101.31
  0
ARC
  8
APS_GEOMETRY
 10
-494.139
 20
-659.529
 40
21.181
 50
90.0
 51
95.643
  0
ARC
  8
APS_GEOMETRY
 10
-473.804
 20
-648.865
 40
10.632
 50
77.257
 51
90.0
  0
ARC
  8
APS_GEOMETRY
 10
-473.912
 20
-649.343
 40
11.122
 50
64.799
 51
77.257
  0
ARC
  8
APS_GEOMETRY
 10
-464.753
 20
-629.843
 40
10.421
 50
244.885
 51
251.175
  0
ARC
  8
APS_GEOMETRY
 10
-467.737
 20
-638.597
 40
1.173
 50
251.175
 51
270.0
  0
ARC
  8
APS_GEOMETRY
 10
-467.737
 20
-637.867
 40
1.903
 50
270.0
 51
278.82
  0
ARC
  8
APS_GEOMETRY
 10
-468.967
 20
-629.943
 40
9.922
 50
278.82
 51
282.68
  0
ARC
  8
APS_GEOMETRY
 10
-466.394
 20
-641.334
 40
1.755
 50
95.906
 51
102.995
  0
ARC
  8
APS_GEOMETRY
 10
-466.315
 20
-642.102
 40
2.528
 50
90.0
 51
95.906
  0
ARC
  8
APS_GEOMETRY
 10
-466.315
 20
-641.252
 40
1.678
 50
62.447
 51
90.0
  0
ARC
  8
APS_GEOMETRY
 10
-466.613
 20
-641.824
 40
2.323
 50
39.094
 51
62.447
  0
ARC
  8
APS_GEOMETRY
 10
-469.73
 20
-644.43
 40
6.386
 50
18.435
 51
39.611
  0
ARC
  8
APS_GEOMETRY
 10
-471.644
 20
-645.068
 40
8.403
 50
360.0
 51
18.435
  0
ARC
  8
APS_GEOMETRY
 10
-467.407
 20
-645.068
 40
4.167
 50
334.877
 51
360.0
  0
ARC
  8
APS_GEOMETRY
 10
-466.154
 20
-645.656
 40
2.783
 50
304.007
 51
334.877
  0
ARC
  8
APS_GEOMETRY
 10
-466.175
 20
-645.597
 40
2.843
 50
286.39
 51
303.69
  0
ARC
  8
APS_GEOMETRY
 10
-466.266
 20
-645.288
 40
3.165
 50
270.0
 51
286.39
  0
ARC
  8
APS_GEOMETRY
 10
-466.266
 20
-645.325
 40
3.128
 50
255.155
 51
270.0
  0
ARC
  8
APS_GEOMETRY
 10
-466.608
 20
-646.618
 40
1.791
 50
235.491
 51
255.155
  0
ARC
  8
APS_GEOMETRY
 10
-466.436
 20
-646.367
 40
2.094
 50
218.48
 51
235.491
  0
ARC
  8
APS_GEOMETRY
 10
-463.626
 20
-644.133
 40
5.684
 50
208.179
 51
218.48
  0
ARC
  8
APS_GEOMETRY
 10
-492.438
 20
-659.773
 40
27.099
 50
28.56
 51
31.664
  0
ARC
  8
APS_GEOMETRY
 10
-474.832
 20
-648.915
 40
6.414
 50
31.664
 51
38.047
  0
ARC
  8
APS_GEOMETRY
 10
-473.552
 20
-647.913
 40
4.788
 50
38.047
 51
46.56
  0
ARC
  8
APS_GEOMETRY
 10
-474.217
 20
-648.615
 40
5.756
 50
46.56
 51
54.324
  0
ARC
  8
APS_GEOMETRY
 10
-474.601
 20
-649.276
 40
6.517
 50
54.968
 51
71.48
  0
ARC
  8
APS_GEOMETRY
 10
-474.18
 20
-648.018
 40
5.19
 50
71.48
 51
90.0
  0
ARC
  8
APS_GEOMETRY
 10
-474.18
 20
-646.453
 40
3.625
 50
90.0
 51
114.63
  0
ARC
  8
APS_GEOMETRY
 10
-474.362
 20
-646.056
 40
3.188
 50
114.63
 51
140.921
  0
ARC
  8
APS_GEOMETRY
 10
-473.824
 20
-646.493
 40
3.881
 50
140.921
 51
163.13
  0
ARC
  8
APS_GEOMETRY
 10
-471.135
 20
-647.308
 40
6.691
 50
163.13
 51
180.0
  0
ARC
  8
APS_GEOMETRY
 10
-467.649
 20
-647.308
 40
10.178
 50
180.0
 51
195.44
  0
ARC
  8
APS_GEOMETRY
 10
-468.178
 20
-647.454
 40
9.629
 50
195.44
 51
211.316
  0
ARC
  8
APS_GEOMETRY
 10
-470.722
 20
-648.949
 40
6.678
 50
211.708
 51
240.457
  0
ARC
  8
APS_GEOMETRY
 10
-470.893
 20
-649.251
 40
6.332
 50
240.457
 51
270.0
  0
ARC
  8
APS_GEOMETRY
 10
-470.893
 20
-647.707
 40
7.875
 50
270.0
 51
279.549
  0
ARC
  8
APS_GEOMETRY
 10
-470.991
 20
-647.125
 40
8.466
 50
279.549
 51
288.759
  0
ARC
  8
APS_GEOMETRY
 10
-470.578
 20
-648.34
 40
7.182
 50
288.759
 51
299.545
  0
ARC
  8
APS_GEOMETRY
 10
-468.924
 20
-651.26
 40
3.826
 50
299.545
 51
314.341
  0
ARC
  8
APS_GEOMETRY
 10
-463.806
 20
-656.575
 40
3.553
 50
120.141
 51
133.452
  0
ARC
  8
APS_GEOMETRY
 10
-465.236
 20
-654.113
 40
0.706
 50
90.0
 51
120.141
  0
ARC
  8
APS_GEOMETRY
 10
-465.236
 20
-654.522
 40
1.115
 50
61.952
 51
90.0
  0
ARC
  8
APS_GEOMETRY
 10
-465.402
 20
-654.834
 40
1.468
 50
37.569
 51
61.952
  0
ARC
  8
APS_GEOMETRY
 10
-465.711
 20
-655.072
 40
1.859
 50
17.665
 51
37.569
  0
ARC
  8
APS_GEOMETRY
 10
-466.184
 20
-655.223
 40
2.354
 50
360.0
 51
17.665
  0
ARC
  8
APS_GEOMETRY
 10
-467.37
 20
-655.223
 40
3.54
 50
344.932
 51
0.0
  0
ARC
  8
APS_GEOMETRY
 10
-470.519
 20
-654.375
 40
6.801
 50
334.075
 51
344.932
  0
ARC
  8
APS_GEOMETRY
 10
-470.618
 20
-654.327
 40
6.912
 50
323.374
 51
334.075
  0
ARC
  8
APS_GEOMETRY
 10
-468.586
 20
-655.837
 40
4.38
 50
309.92
 51
323.374
  0
ARC
  8
APS_GEOMETRY
 10
-466.555
 20
-658.232
 40
1.24
 50
289.026
 51
308.991
  0
ARC
  8
APS_GEOMETRY
 10
-468.722
 20
-651.95
 40
7.886
 50
281.143
 51
289.026
  0
ARC
  8
APS_GEOMETRY
 10
-466.525
 20
-663.34
 40
3.715
 50
100.437
 51
110.12
  0
ARC
  8
APS_GEOMETRY
 10
-463.614
 20
-671.285
 40
12.177
 50
110.12
 51
115.463
  0
ARC
  8
APS_GEOMETRY
 10
-474.005
 20
-649.545
 40
11.919
 50
282.94
 51
295.628
  0
ARC
  8
APS_GEOMETRY
 10
-473.902
 20
-649.992
 40
11.46
 50
270.0
 51
282.94
  0
ARC
  8
APS_GEOMETRY
 10
-473.902
 20
-649.315
 40
12.137
 50
257.307
 51
270.0
  0
ARC
  8
APS_GEOMETRY
 10
-473.39
 20
-647.04
 40
14.469
 50
245.686
 51
257.307
  0
ARC
  8
APS_GEOMETRY
 10
-474.675
 20
-649.861
 40
11.37
 50
228.801
 51
245.735
  0
ARC
  8
APS_GEOMETRY
 10
-474.653
 20
-649.836
 40
11.402
 50
211.891
 51
228.801
  0
ARC
  8
APS_GEOMETRY
 10
-473.979
 20
-649.351
 40
12.231
 50
196.728
 51
212.152
  0
ARC
  8
APS_GEOMETRY
 10
-475.723
 20
-649.876
 40
10.41
 50
180.0
 51
196.728
  0
ARC
  8
APS_GEOMETRY
 10
-475.47
 20
-649.876
 40
10.663
 50
161.184
 51
180.0
  0
ARC
  8
APS_GEOMETRY
 10
-474.785
 20
-650.109
 40
11.386
 50
142.98
 51
161.184
  0
ARC
  8
APS_GEOMETRY
 10
-474.253
 20
-650.516
 40
12.056
 50
127.824
 51
142.958
  0
ARC
  8
APS_GEOMETRY
 10
-473.376
 20
-651.645
 40
13.486
 50
113.52
 51
127.824
  0
ARC
  8
APS_GEOMETRY
 10
-473.662
 20
-650.986
 40
12.768
 50
101.927
 51
113.527
  0
ARC
  8
APS_GEOMETRY
 10
-473.804
 20
-650.314
 40
12.08
 50
90.0
 51
101.927
  0
ARC
  8
APS_GEOMETRY
 10
-451.53
 20
-658.651
 40
20.304
 50
84.71
 51
90.0
  0
ARC
  8
APS_GEOMETRY
 10
-451.157
 20
-654.631
 40
16.267
 50
78.799
 51
84.71
  0
ARC
  8
APS_GEOMETRY
 10
-448.749
 20
-642.46
 40
3.859
 50
49.783
 51
78.771
  0
ARC
  8
APS_GEOMETRY
 10
-447.138
 20
-640.555
 40
1.365
 50
360.0
 51
49.783
  0
ARC
  8
APS_GEOMETRY
 10
-447.284
 20
-640.555
 40
1.51
 50
342.759
 51
360.0
  0
ARC
  8
APS_GEOMETRY
 10
-446.496
 20
-640.799
 40
0.685
 50
317.045
 51
342.759
  0
ARC
  8
APS_GEOMETRY
 10
-446.876
 20
-640.445
 40
1.205
 50
301.817
 51
317.045
  0
ARC
  8
APS_GEOMETRY
 10
-452.504
 20
-631.374
 40
11.88
 50
296.98
 51
301.817
  0
ARC
  8
APS_GEOMETRY
 10
-446.504
 20
-643.183
 40
1.366
 50
116.565
 51
149.078
  0
ARC
  8
APS_GEOMETRY
 10
-444.744
 20
-644.237
 40
3.417
 50
149.078
 51
169.469
  0
ARC
  8
APS_GEOMETRY
 10
-440.992
 20
-644.935
 40
7.234
 50
169.469
 51
174.598
  0
ARC
  8
APS_GEOMETRY
 10
-421.66
 20
-646.763
 40
26.652
 50
174.598
 51
177.269
  0
ARC
  8
APS_GEOMETRY
 10
-404.661
 20
-647.574
 40
43.67
 50
177.269
 51
178.901
  0
ARC
  8
APS_GEOMETRY
 10
-352.008
 20
-648.584
 40
96.333
 50
178.901
 51
180.0
  0
ARC
  8
APS_GEOMETRY
 10
-245.013
 20
-648.584
 40
203.328
 50
180.0
 51
180.88
  0
ARC
  8
APS_GEOMETRY
 10
-370.273
 20
-650.508
 40
78.054
 50
180.88
 51
182.3
  0
ARC
  8
APS_GEOMETRY
 10
-406.885
 20
-651.978
 40
41.411
 50
182.3
 51
184.974
  0
ARC
  8
APS_GEOMETRY
 10
-441.796
 20
-655.016
 40
6.369
 50
184.974
 51
191.793
  0
ARC
  8
APS_GEOMETRY
 10
-445.851
 20
-655.792
 40
2.242
 50
193.57
 51
205.787
  0
ARC
  8
APS_GEOMETRY
 10
-446.859
 20
-656.279
 40
1.122
 50
205.787
 51
223.091
  0
ARC
  8
APS_GEOMETRY
 10
-446.604
 20
-656.04
 40
1.472
 50
223.091
 51
236.441
  0
ARC
  8
APS_GEOMETRY
 10
-444.462
 20
-652.812
 40
5.346
 50
236.441
 51
243.435
  0
ARC
  8
APS_GEOMETRY
 10
-447.741
 20
-659.547
 40
2.146
 50
37.185
 51
65.556
  0
ARC
  8
APS_GEOMETRY
 10
-447.041
 20
-659.016
 40
1.268
 50
0.0
 51
37.185
  0
ARC
  8
APS_GEOMETRY
 10
-447.08
 20
-659.016
 40
1.306
 50
312.039
 51
360.0
  0
ARC
  8
APS_GEOMETRY
 10
-448.635
 20
-657.291
 40
3.629
 50
283.815
 51
312.039
  0
ARC
  8
APS_GEOMETRY
 10
-451.205
 20
-646.638
 40
14.587
 50
279.273
 51
283.627
  0
ARC
  8
APS_GEOMETRY
 10
-452.233
 20
-640.346
 40
20.963
 50
275.641
 51
279.273
  0
ARC
  8
APS_GEOMETRY
 10
-452.626
 20
-636.369
 40
24.959
 50
272.588
 51
275.641
  0
ARC
  8
APS_GEOMETRY
 10
-453.067
 20
-626.61
 40
34.728
 50
270.0
 51
272.588
  0
ARC
  8
APS_GEOMETRY
 10
-453.067
 20
-640.391
 40
20.947
 50
262.774
 51
270.0
  0
ARC
  8
APS_GEOMETRY
 10
-454.955
 20
-655.285
 40
5.934
 50
249.175
 51
262.774
  0
ARC
  8
APS_GEOMETRY
 10
-456.141
 20
-658.404
 40
2.597
 50
221.23
 51
249.175
  0
ARC
  8
APS_GEOMETRY
 10
-457.176
 20
-659.31
 40
1.221
 50
180.0
 51
221.23
  0
ARC
  8
APS_GEOMETRY
 10
-457.377
 20
-659.31
 40
1.021
 50
142.696
 51
180.0
  0
ARC
  8
APS_GEOMETRY
 10
-455.766
 20
-660.538
 40
3.046
 50
121.357
 51
142.696
  0
ARC
  8
APS_GEOMETRY
 10
-458.488
 20
-656.08
 40
2.177
 50
301.477
 51
324.728
  0
ARC
  8
APS_GEOMETRY
 10
-458.197
 20
-656.285
 40
1.822
 50
324.728
 51
350.181
  0
ARC
  8
APS_GEOMETRY
 10
-467.318
 20
-654.777
 40
11.066
 50
350.538
 51
355.423
  0
ARC
  8
APS_GEOMETRY
 10
-504.794
 20
-651.777
 40
48.662
 50
355.423
 51
357.752
  0
ARC
  8
APS_GEOMETRY
 10
-539.591
 20
-650.411
 40
83.485
 50
357.752
 51
359.111
  0
ARC
  8
APS_GEOMETRY
 10
-650.964
 20
-648.682
 40
194.872
 50
359.111
 51
0.0
  0
ARC
  8
APS_GEOMETRY
 10
-523.703
 20
-648.682
 40
67.612
 50
0.0
 51
1.773
  0
ARC
  8
APS_GEOMETRY
 10
-484.023
 20
-647.454
 40
27.913
 50
1.773
 51
4.532
  0
ARC
  8
APS_GEOMETRY
 10
-471.963
 20
-646.498
 40
15.814
 50
4.532
 51
9.384
  0
ARC
  8
APS_GEOMETRY
 10
-459.716
 20
-644.474
 40
3.402
 50
9.384
 51
19.855
  0
ARC
  8
APS_GEOMETRY
 10
-458.095
 20
-643.857
 40
1.668
 50
18.853
 51
42.158
  0
ARC
  8
APS_GEOMETRY
 10
-459.485
 20
-645.115
 40
3.542
 50
42.158
 51
58.092
  0
ARC
  8
APS_GEOMETRY
 10
-453.37
 20
-635.667
 40
7.713
 50
230.711
 51
236.634
  0
ARC
  8
APS_GEOMETRY
 10
-457.211
 20
-640.361
 40
1.648
 50
217.875
 51
230.711
  0
ARC
  8
APS_GEOMETRY
 10
-457.738
 20
-640.77
 40
0.981
 50
196.928
 51
217.875
  0
ARC
  8
APS_GEOMETRY
 10
-457.245
 20
-640.62
 40
1.496
 50
180.0
 51
196.928
  0
ARC
  8
APS_GEOMETRY
 10
-457.567
 20
-640.62
 40
1.174
 50
148.791
 51
180.0
  0
ARC
  8
APS_GEOMETRY
 10
-457.259
 20
-640.807
 40
1.533
 50
121.569
 51
148.791
  0
ARC
  8
APS_GEOMETRY
 10
-456.707
 20
-641.706
 40
2.589
 50
112.806
 51
121.569
  0
ARC
  8
APS_GEOMETRY
 10
-455.213
 20
-645.258
 40
6.443
 50
107.254
 51
112.806
  0
ARC
  8
APS_GEOMETRY
 10
-454.298
 20
-648.204
 40
9.527
 50
103.487
 51
107.254
  0
ARC
  8
APS_GEOMETRY
 10
-452.203
 20
-656.94
 40
18.511
 50
100.784
 51
103.487
  0
ARC
  8
APS_GEOMETRY
 10
-451.547
 20
-659.356
 40
21.008
 50
95.643
 51
101.31
  0
ARC
  8
APS_GEOMETRY
 10
-451.53
 20
-659.529
 40
21.181
 50
90.0
 51
95.643
  0
LINE
  8
APS_GEOMETRY
 10
-416.955
 11
-416.955
 20
-653.309
 21
-644.708
  0
ARC
  8
APS_GEOMETRY
 10
-436.816
 20
-644.708
 40
19.861
 50
0.0
 51
2.404
  0
ARC
  8
APS_GEOMETRY
 10
-425.057
 20
-644.215
 40
8.092
 50
2.404
 51
6.17
  0
ARC
  8
APS_GEOMETRY
 10
-421.533
 20
-643.834
 40
4.547
 50
6.17
 51
12.824
  0
ARC
  8
APS_GEOMETRY
 10
-418.083
 20
-643.048
 40
1.009
 50
12.824
 51
26.98
  0
ARC
  8
APS_GEOMETRY
 10
-417.922
 20
-642.966
 40
0.828
 50
26.98
 51
59.65
  0
ARC
  8
APS_GEOMETRY
 10
-419.441
 20
-645.561
 40
3.834
 50
59.65
 51
74.667
  0
ARC
  8
APS_GEOMETRY
 10
-417.69
 20
-639.311
 40
2.656
 50
225.0
 51
253.887
  0
ARC
  8
APS_GEOMETRY
 10
-418.77
 20
-640.392
 40
1.128
 50
180.0
 51
225.0
  0
ARC
  8
APS_GEOMETRY
 10
-418.563
 20
-640.392
 40
1.336
 50
151.157
 51
180.0
  0
ARC
  8
APS_GEOMETRY
 10
-418.566
 20
-640.39
 40
1.332
 50
122.276
 51
151.157
  0
ARC
  8
APS_GEOMETRY
 10
-418.184
 20
-640.995
 40
2.048
 50
102.308
 51
122.276
  0
ARC
  8
APS_GEOMETRY
 10
-417.479
 20
-644.227
 40
5.356
 50
90.0
 51
102.308
  0
ARC
  8
APS_GEOMETRY
 10
-417.479
 20
-650.454
 40
11.583
 50
88.989
 51
90.0
  0
ARC
  8
APS_GEOMETRY
 10
-418.452
 20
-705.626
 40
66.764
 50
88.568
 51
88.989
  0
ARC
  8
APS_GEOMETRY
 10
-419.827
 20
-760.629
 40
121.783
 50
88.337
 51
88.568
  0
ARC
  8
APS_GEOMETRY
 10
-425.156
 20
-944.186
 40
305.419
 50
88.191
 51
88.337
  0
LINE
  8
APS_GEOMETRY
 10
-415.516
 11
-414.552
 20
-638.92
 21
-638.92
  0
ARC
  8
APS_GEOMETRY
 10
-417.793
 20
-100.945
 40
537.985
 50
270.345
 51
270.49
  0
ARC
  8
APS_GEOMETRY
 10
-414.773
 20
-454.25
 40
184.666
 50
270.49
 51
270.736
  0
ARC
  8
APS_GEOMETRY
 10
-413.533
 20
-550.686
 40
88.223
 50
270.736
 51
271.253
  0
ARC
  8
APS_GEOMETRY
 10
-411.77
 20
-631.295
 40
7.595
 50
271.253
 51
273.013
  0
ARC
  8
APS_GEOMETRY
 10
-411.844
 20
-629.901
 40
8.991
 50
273.013
 51
274.5
  0
ARC
  8
APS_GEOMETRY
 10
-420.172
 20
-524.074
 40
115.145
 50
274.5
 51
274.915
  0
LINE
  8
APS_GEOMETRY
 10
-410.306
 11
-409.325
 20
-638.795
 21
-638.709
  0
LINE
  8
APS_GEOMETRY
 10
-409.325
 11
-408.044
 20
-638.709
 21
-638.593
  0
ARC
  8
APS_GEOMETRY
 10
-405.937
 20
-658.955
 40
20.471
 50
93.24
 51
95.906
  0
ARC
  8
APS_GEOMETRY
 10
-406.31
 20
-652.363
 40
13.868
 50
90.0
 51
93.24
  0
ARC
  8
APS_GEOMETRY
 10
-406.31
 20
-650.271
 40
11.777
 50
77.12
 51
90.0
  0
ARC
  8
APS_GEOMETRY
 10
-405.69
 20
-647.558
 40
8.993
 50
62.371
 51
77.12
  0
ARC
  8
APS_GEOMETRY
 10
-404.64
 20
-645.589
 40
6.761
 50
31.215
 51
62.517
  0
ARC
  8
APS_GEOMETRY
 10
-404.671
 20
-645.608
 40
6.798
 50
360.0
 51
31.215
  0
ARC
  8
APS_GEOMETRY
 10
-404.854
 20
-645.608
 40
6.981
 50
334.496
 51
360.0
  0
ARC
  8
APS_GEOMETRY
 10
-404.511
 20
-645.771
 40
6.601
 50
308.254
 51
334.496
  0
ARC
  8
APS_GEOMETRY
 10
-405.56
 20
-644.388
 40
8.337
 50
287.855
 51
308.034
  0
ARC
  8
APS_GEOMETRY
 10
-406.261
 20
-642.212
 40
10.623
 50
270.0
 51
287.855
  0
ARC
  8
APS_GEOMETRY
 10
-406.261
 20
-636.737
 40
16.098
 50
266.918
 51
270.0
  0
ARC
  8
APS_GEOMETRY
 10
-405.284
 20
-618.588
 40
34.273
 50
264.806
 51
266.918
  0
ARC
  8
APS_GEOMETRY
 10
-411.82
 20
-699.643
 40
47.047
 50
85.815
 51
86.634
  0
ARC
  8
APS_GEOMETRY
 10
-409.221
 20
-655.453
 40
2.782
 50
86.634
 51
90.0
  0
ARC
  8
APS_GEOMETRY
 10
-409.221
 20
-653.082
 40
0.41
 50
90.0
 51
139.686
  0
ARC
  8
APS_GEOMETRY
 10
-409.069
 20
-653.211
 40
0.61
 50
139.686
 51
180.0
  0
LINE
  8
APS_GEOMETRY
 10
-409.679
 11
-409.679
 20
-653.211
 21
-653.309
  0
LINE
  8
APS_GEOMETRY
 10
-409.679
 11
-409.564
 20
-653.309
 21
-655.991
  0
ARC
  8
APS_GEOMETRY
 10
-405.689
 20
-655.83
 40
3.879
 50
182.386
 51
193.753
  0
ARC
  8
APS_GEOMETRY
 10
-408.188
 20
-656.441
 40
1.306
 50
193.753
 51
213.408
  0
ARC
  8
APS_GEOMETRY
 10
-408.16
 20
-656.423
 40
1.339
 50
213.408
 51
232.628
  0
ARC
  8
APS_GEOMETRY
 10
-405.905
 20
-653.47
 40
5.055
 50
232.628
 51
242.488
  0
ARC
  8
APS_GEOMETRY
 10
-409.666
 20
-660.602
 40
3.009
 50
40.539
 51
61.699
  0
ARC
  8
APS_GEOMETRY
 10
-408.022
 20
-659.196
 40
0.845
 50
360.0
 51
40.539
  0
ARC
  8
APS_GEOMETRY
 10
-408.312
 20
-659.196
 40
1.135
 50
315.297
 51
360.0
  0
ARC
  8
APS_GEOMETRY
 10
-409.847
 20
-657.677
 40
3.294
 50
289.502
 51
315.297
  0
ARC
  8
APS_GEOMETRY
 10
-410.971
 20
-654.501
 40
6.663
 50
282.372
 51
289.502
  0
ARC
  8
APS_GEOMETRY
 10
-412.153
 20
-649.116
 40
12.176
 50
277.099
 51
282.372
  0
ARC
  8
APS_GEOMETRY
 10
-412.638
 20
-645.216
 40
16.106
 50
273.104
 51
277.099
  0
ARC
  8
APS_GEOMETRY
 10
-413.211
 20
-634.657
 40
26.681
 50
270.0
 51
273.104
  0
ARC
  8
APS_GEOMETRY
 10
-413.211
 20
-634.977
 40
26.361
 50
263.473
 51
270.0
  0
ARC
  8
APS_GEOMETRY
 10
-415.377
 20
-653.91
 40
7.304
 50
251.056
 51
263.473
  0
ARC
  8
APS_GEOMETRY
 10
-416.768
 20
-657.963
 40
3.02
 50
224.161
 51
251.056
  0
ARC
  8
APS_GEOMETRY
 10
-418.105
 20
-659.261
 40
1.156
 50
180.0
 51
224.161
  0
ARC
  8
APS_GEOMETRY
 10
-417.865
 20
-659.261
 40
1.396
 50
160.821
 51
180.0
  0
ARC
  8
APS_GEOMETRY
 10
-418.451
 20
-659.058
 40
0.776
 50
135.0
 51
160.821
  0
ARC
  8
APS_GEOMETRY
 10
-417.898
 20
-659.611
 40
1.558
 50
121.522
 51
135.0
  0
ARC
  8
APS_GEOMETRY
 10
-411.655
 20
-669.789
 40
13.498
 50
116.952
 51
121.522
  0
ARC
  8
APS_GEOMETRY
 10
-418.471
 20
-656.434
 40
1.496
 50
297.824
 51
321.605
  0
ARC
  8
APS_GEOMETRY
 10
-418.127
 20
-656.707
 40
1.057
 50
321.605
 51
349.992
  0
ARC
  8
APS_GEOMETRY
 10
-419.726
 20
-656.425
 40
2.681
 50
349.992
 51
356.014
  0
ARC
  8
APS_GEOMETRY
 10
-444.058
 20
-654.729
 40
27.071
 50
356.014
 51
357.908
  0
ARC
  8
APS_GEOMETRY
 10
-472.46
 20
-653.691
 40
55.492
 50
357.908
 51
358.833
  0
ARC
  8
APS_GEOMETRY
 10
-575.158
 20
-651.599
 40
158.212
 50
358.833
 51
359.381
  0
LINE
  8
APS_GEOMETRY
 10
-409.564
 11
-409.564
 20
-642.632
 21
-648.191
  0
ARC
  8
APS_GEOMETRY
 10
-407.877
 20
-648.191
 40
1.687
 50
180.0
 51
199.885
  0
ARC
  8
APS_GEOMETRY
 10
-409.14
 20
-648.648
 40
0.345
 50
199.885
 51
244.799
  0
ARC
  8
APS_GEOMETRY
 10
-408.414
 20
-647.153
 40
2.007
 50
244.231
 51
258.996
  0
ARC
  8
APS_GEOMETRY
 10
-408.109
 20
-645.584
 40
3.604
 50
258.996
 51
270.0
  0
ARC
  8
APS_GEOMETRY
 10
-408.109
 20
-645.964
 40
3.225
 50
270.0
 51
288.435
  0
ARC
  8
APS_GEOMETRY
 10
-407.878
 20
-646.658
 40
2.494
 50
288.435
 51
309.428
  0
ARC
  8
APS_GEOMETRY
 10
-407.793
 20
-646.745
 40
2.373
 50
309.193
 51
339.939
  0
ARC
  8
APS_GEOMETRY
 10
-410.728
 20
-645.673
 40
5.497
 50
339.939
 51
0.0
  0
ARC
  8
APS_GEOMETRY
 10
-410.405
 20
-645.673
 40
5.174
 50
360.0
 51
22.011
  0
ARC
  8
APS_GEOMETRY
 10
-408.113
 20
-644.746
 40
2.701
 50
22.011
 51
52.651
  0
ARC
  8
APS_GEOMETRY
 10
-408.148
 20
-644.771
 40
2.742
 50
52.374
 51
72.309
  0
ARC
  8
APS_GEOMETRY
 10
-408.371
 20
-645.469
 40
3.475
 50
72.309
 51
90.0
  0
ARC
  8
APS_GEOMETRY
 10
-408.371
 20
-644.02
 40
2.026
 50
90.0
 51
118.113
  0
ARC
  8
APS_GEOMETRY
 10
-409.112
 20
-642.632
 40
0.452
 50
118.113
 51
180.0
  0
ARC
  8
APS_GEOMETRY
 10
-383.196
 20
-651.124
 40
12.891
 50
71.91
 51
90.0
  0
ARC
  8
APS_GEOMETRY
 10
-382.696
 20
-649.596
 40
11.283
 50
52.561
 51
71.91
  0
ARC
  8
APS_GEOMETRY
 10
-382.827
 20
-649.634
 40
11.393
 50
38.846
 51
52.156
  0
ARC
  8
APS_GEOMETRY
 10
-384.613
 20
-651.072
 40
13.686
 50
26.707
 51
38.846
  0
ARC
  8
APS_GEOMETRY
 10
-384.26
 20
-650.783
 40
13.241
 50
13.868
 51
26.278
  0
ARC
  8
APS_GEOMETRY
 10
-381.71
 20
-650.154
 40
10.614
 50
360.0
 51
13.868
  0
ARC
  8
APS_GEOMETRY
 10
-381.545
 20
-650.154
 40
10.449
 50
339.712
 51
360.0
  0
ARC
  8
APS_GEOMETRY
 10
-382.133
 20
-649.936
 40
11.076
 50
320.013
 51
339.712
  0
ARC
  8
APS_GEOMETRY
 10
-382.23
 20
-649.882
 40
11.186
 50
303.344
 51
320.123
  0
ARC
  8
APS_GEOMETRY
 10
-383.378
 20
-648.138
 40
13.274
 50
287.949
 51
303.344
  0
ARC
  8
APS_GEOMETRY
 10
-383.755
 20
-646.83
 40
14.634
 50
279.039
 51
287.776
  0
ARC
  8
APS_GEOMETRY
 10
-383.604
 20
-647.78
 40
13.673
 50
270.0
 51
279.039
  0
ARC
  8
APS_GEOMETRY
 10
-383.604
 20
-648.447
 40
13.005
 50
257.728
 51
270.0
  0
ARC
  8
APS_GEOMETRY
 10
-383.584
 20
-648.353
 40
13.102
 50
245.501
 51
257.728
  0
ARC
  8
APS_GEOMETRY
 10
-384.32
 20
-649.964
 40
11.33
 50
228.665
 51
245.511
  0
ARC
  8
APS_GEOMETRY
 10
-384.565
 20
-650.243
 40
10.959
 50
211.535
 51
228.665
  0
ARC
  8
APS_GEOMETRY
 10
-384.244
 20
-650.007
 40
11.356
 50
195.642
 51
211.701
  0
ARC
  8
APS_GEOMETRY
 10
-383.657
 20
-649.843
 40
11.966
 50
180.0
 51
195.642
  0
ARC
  8
APS_GEOMETRY
 10
-383.532
 20
-649.843
 40
12.091
 50
162.181
 51
180.0
  0
ARC
  8
APS_GEOMETRY
 10
-384.635
 20
-649.488
 40
10.933
 50
143.434
 51
162.181
  0
ARC
  8
APS_GEOMETRY
 10
-384.783
 20
-649.369
 40
10.742
 50
126.384
 51
143.471
  0
ARC
  8
APS_GEOMETRY
 10
-383.766
 20
-650.75
 40
12.457
 50
110.525
 51
126.384
  0
ARC
  8
APS_GEOMETRY
 10
-383.817
 20
-650.375
 40
12.089
 50
99.77
 51
110.925
  0
ARC
  8
APS_GEOMETRY
 10
-383.196
 20
-653.981
 40
15.748
 50
90.0
 51
99.77
  0
ARC
  8
APS_GEOMETRY
 10
-384.749
 20
-645.33
 40
2.404
 50
90.0
 51
119.604
  0
ARC
  8
APS_GEOMETRY
 10
-384.539
 20
-645.7
 40
2.83
 50
119.604
 51
146.842
  0
ARC
  8
APS_GEOMETRY
 10
-384.115
 20
-646.047
 40
3.374
 50
145.84
 51
164.055
  0
ARC
  8
APS_GEOMETRY
 10
-383.135
 20
-646.327
 40
4.394
 50
164.055
 51
180.0
  0
ARC
  8
APS_GEOMETRY
 10
-377.003
 20
-646.327
 40
10.526
 50
180.0
 51
189.977
  0
ARC
  8
APS_GEOMETRY
 10
-367.677
 20
-644.687
 40
19.995
 50
189.977
 51
197.211
  0
ARC
  8
APS_GEOMETRY
 10
-365.637
 20
-644.055
 40
22.131
 50
197.211
 51
203.76
  0
ARC
  8
APS_GEOMETRY
 10
-370.718
 20
-646.292
 40
16.579
 50
203.76
 51
211.329
  0
ARC
  8
APS_GEOMETRY
 10
-381.152
 20
-652.554
 40
4.411
 50
212.32
 51
224.441
  0
ARC
  8
APS_GEOMETRY
 10
-381.58
 20
-652.973
 40
3.812
 50
224.441
 51
237.484
  0
ARC
  8
APS_GEOMETRY
 10
-381.857
 20
-653.407
 40
3.298
 50
237.484
 51
252.416
  0
ARC
  8
APS_GEOMETRY
 10
-382.133
 20
-654.278
 40
2.383
 50
252.416
 51
270.0
  0
ARC
  8
APS_GEOMETRY
 10
-382.133
 20
-653.996
 40
2.666
 50
270.0
 51
294.953
  0
ARC
  8
APS_GEOMETRY
 10
-382.058
 20
-654.156
 40
2.489
 50
294.953
 51
320.793
  0
ARC
  8
APS_GEOMETRY
 10
-382.458
 20
-653.83
 40
3.005
 50
320.793
 51
342.777
  0
ARC
  8
APS_GEOMETRY
 10
-384.242
 20
-653.277
 40
4.873
 50
342.777
 51
0.0
  0
ARC
  8
APS_GEOMETRY
 10
-392.623
 20
-653.277
 40
13.254
 50
0.0
 51
8.499
  0
ARC
  8
APS_GEOMETRY
 10
-398.457
 20
-654.148
 40
19.152
 50
8.499
 51
15.566
  0
ARC
  8
APS_GEOMETRY
 10
-397.755
 20
-653.953
 40
18.424
 50
15.566
 51
22.909
  0
ARC
  8
APS_GEOMETRY
 10
-391.723
 20
-651.404
 40
11.876
 50
22.909
 51
32.057
  0
ARC
  8
APS_GEOMETRY
 10
-386.985
 20
-648.419
 40
6.276
 50
31.921
 51
42.51
  0
ARC
  8
APS_GEOMETRY
 10
-385.684
 20
-647.227
 40
4.511
 50
42.51
 51
55.008
  0
ARC
  8
APS_GEOMETRY
 10
-385.245
 20
-646.599
 40
3.745
 50
55.008
 51
69.88
  0
ARC
  8
APS_GEOMETRY
 10
-384.851
 20
-645.523
 40
2.599
 50
69.88
 51
87.754
  0
ARC
  8
APS_GEOMETRY
 10
-357.939
 20
-652.835
 40
1.21
 50
90.0
 51
115.837
  0
ARC
  8
APS_GEOMETRY
 10
-358.237
 20
-652.22
 40
0.526
 50
115.837
 51
155.462
  0
ARC
  8
APS_GEOMETRY
 10
-357.889
 20
-652.379
 40
0.909
 50
155.462
 51
168.366
  0
ARC
  8
APS_GEOMETRY
 10
-354.716
 20
-653.032
 40
4.148
 50
168.366
 51
174.395
  0
ARC
  8
APS_GEOMETRY
 10
-351.518
 20
-653.346
 40
7.361
 50
174.395
 51
177.813
  0
ARC
  8
APS_GEOMETRY
 10
-340.904
 20
-653.751
 40
17.983
 50
177.813
 51
180.0
  0
ARC
  8
APS_GEOMETRY
 10
-333.22
 20
-653.751
 40
25.667
 50
180.0
 51
184.62
  0
ARC
  8
APS_GEOMETRY
 10
-350.43
 20
-655.142
 40
8.401
 50
184.62
 51
192.7
  0
ARC
  8
APS_GEOMETRY
 10
-357.065
 20
-656.598
 40
1.609
 50
194.036
 51
205.821
  0
ARC
  8
APS_GEOMETRY
 10
-357.767
 20
-656.938
 40
0.828
 50
205.821
 51
222.274
  0
ARC
  8
APS_GEOMETRY
 10
-357.552
 20
-656.743
 40
1.119
 50
222.274
 51
234.605
  0
ARC
  8
APS_GEOMETRY
 10
-355.122
 20
-653.322
 40
5.315
 50
234.605
 51
240.255
  0
ARC
  8
APS_GEOMETRY
 10
-358.816
 20
-659.86
 40
2.194
 50
34.592
 51
61.189
  0
ARC
  8
APS_GEOMETRY
 10
-358.091
 20
-659.36
 40
1.313
 50
360.0
 51
34.592
  0
ARC
  8
APS_GEOMETRY
 10
-358.047
 20
-659.36
 40
1.27
 50
318.231
 51
360.0
  0
ARC
  8
APS_GEOMETRY
 10
-358.896
 20
-658.601
 40
2.408
 50
288.227
 51
318.231
  0
ARC
  8
APS_GEOMETRY
 10
-359.777
 20
-655.927
 40
5.223
 50
280.377
 51
288.227
  0
ARC
  8
APS_GEOMETRY
 10
-361.312
 20
-647.545
 40
13.744
 50
275.541
 51
280.377
  0
ARC
  8
APS_GEOMETRY
 10
-361.973
 20
-640.727
 40
20.595
 50
272.304
 51
275.541
  0
ARC
  8
APS_GEOMETRY
 10
-362.779
 20
-620.709
 40
40.629
 50
270.0
 51
272.304
  0
ARC
  8
APS_GEOMETRY
 10
-362.779
 20
-637.438
 40
23.9
 50
262.811
 51
270.0
  0
ARC
  8
APS_GEOMETRY
 10
-364.923
 20
-654.441
 40
6.762
 50
249.274
 51
262.811
  0
ARC
  8
APS_GEOMETRY
 10
-366.272
 20
-658.006
 40
2.95
 50
221.379
 51
249.274
  0
ARC
  8
APS_GEOMETRY
 10
-367.456
 20
-659.049
 40
1.373
 50
180.0
 51
221.379
  0
ARC
  8
APS_GEOMETRY
 10
-367.465
 20
-659.049
 40
1.364
 50
164.055
 51
180.0
  0
ARC
  8
APS_GEOMETRY
 10
-368.033
 20
-658.886
 40
0.773
 50
142.815
 51
164.055
  0
ARC
  8
APS_GEOMETRY
 10
-367.676
 20
-659.158
 40
1.222
 50
129.007
 51
142.815
  0
ARC
  8
APS_GEOMETRY
 10
-363.28
 20
-664.585
 40
8.206
 50
123.69
 51
129.007
  0
ARC
  8
APS_GEOMETRY
 10
-369.518
 20
-655.199
 40
3.064
 50
303.389
 51
319.022
  0
ARC
  8
APS_GEOMETRY
 10
-368.689
 20
-655.919
 40
1.966
 50
319.022
 51
338.575
  0
ARC
  8
APS_GEOMETRY
 10
-369.798
 20
-655.483
 40
3.158
 50
338.575
 51
351.049
  0
ARC
  8
APS_GEOMETRY
 10
-383.201
 20
-653.372
 40
16.726
 50
351.049
 51
356.46
  0
ARC
  8
APS_GEOMETRY
 10
-378.783
 20
-653.54
 40
12.307
 50
355.972
 51
358.68
  0
ARC
  8
APS_GEOMETRY
 10
-523.879
 20
-650.197
 40
157.441
 50
358.68
 51
359.437
  0
LINE
  8
APS_GEOMETRY
 10
-366.446
 11
-366.43
 20
-651.744
 21
-649.288
  0
LINE
  8
APS_GEOMETRY
 10
-366.43
 11
-366.425
 20
-649.288
 21
-646.082
  0
ARC
  8
APS_GEOMETRY
 10
-404.33
 20
-646.082
 40
37.905
 50
360.0
 51
1.717
  0
ARC
  8
APS_GEOMETRY
 10
-384.046
 20
-645.474
 40
17.611
 50
1.717
 51
4.236
  0
ARC
  8
APS_GEOMETRY
 10
-377.431
 20
-644.984
 40
10.979
 50
4.236
 51
8.269
  0
ARC
  8
APS_GEOMETRY
 10
-369.819
 20
-643.878
 40
3.287
 50
8.269
 51
15.642
  0
ARC
  8
APS_GEOMETRY
 10
-368.509
 20
-643.511
 40
1.926
 50
15.642
 51
39.417
  0
ARC
  8
APS_GEOMETRY
 10
-368.48
 20
-643.487
 40
1.888
 50
39.417
 51
63.435
  0
ARC
  8
APS_GEOMETRY
 10
-365.079
 20
-636.442
 40
5.935
 50
236.874
 51
244.486
  0
ARC
  8
APS_GEOMETRY
 10
-367.609
 20
-640.319
 40
1.306
 50
220.601
 51
236.874
  0
ARC
  8
APS_GEOMETRY
 10
-367.899
 20
-640.567
 40
0.923
 50
198.246
 51
220.601
  0
ARC
  8
APS_GEOMETRY
 10
-367.465
 20
-640.424
 40
1.38
 50
180.0
 51
198.246
  0
ARC
  8
APS_GEOMETRY
 10
-367.472
 20
-640.424
 40
1.374
 50
156.161
 51
180.0
  0
ARC
  8
APS_GEOMETRY
 10
-367.28
 20
-640.509
 40
1.583
 50
133.977
 51
156.161
  0
ARC
  8
APS_GEOMETRY
 10
-366.898
 20
-640.904
 40
2.133
 50
116.996
 51
133.977
  0
ARC
  8
APS_GEOMETRY
 10
-366.14
 20
-642.393
 40
3.804
 50
104.3
 51
116.996
  0
ARC
  8
APS_GEOMETRY
 10
-365.944
 20
-643.146
 40
4.582
 50
95.326
 51
104.349
  0
ARC
  8
APS_GEOMETRY
 10
-365.15
 20
-651.663
 40
13.136
 50
90.0
 51
95.326
  0
ARC
  8
APS_GEOMETRY
 10
-365.15
 20
-645.034
 40
6.506
 50
87.553
 51
90.0
  0
ARC
  8
APS_GEOMETRY
 10
-366.534
 20
-677.428
 40
38.93
 50
86.553
 51
87.553
  0
ARC
  8
APS_GEOMETRY
 10
-368.502
 20
-710.101
 40
71.662
 50
86.009
 51
86.553
  0
ARC
  8
APS_GEOMETRY
 10
-376.156
 20
-819.808
 40
181.636
 50
85.668
 51
86.009
  0
ARC
  8
APS_GEOMETRY
 10
-361.832
 20
-631.152
 40
7.563
 50
265.426
 51
268.531
  0
ARC
  8
APS_GEOMETRY
 10
-361.16
 20
-604.931
 40
33.793
 50
268.531
 51
270.0
  0
ARC
  8
APS_GEOMETRY
 10
-361.16
 20
-612.968
 40
25.755
 50
270.0
 51
271.637
  0
ARC
  8
APS_GEOMETRY
 10
-361.735
 20
-592.826
 40
45.906
 50
271.637
 51
272.862
  0
ARC
  8
APS_GEOMETRY
 10
-362.396
 20
-579.611
 40
59.137
 50
272.862
 51
273.814
  0
ARC
  8
APS_GEOMETRY
 10
-364.633
 20
-546.059
 40
92.764
 50
273.814
 51
274.574
  0
ARC
  8
APS_GEOMETRY
 10
-350.602
 20
-728.555
 40
90.271
 50
93.72
 51
94.214
  0
ARC
  8
APS_GEOMETRY
 10
-353.597
 20
-682.496
 40
44.115
 50
93.013
 51
93.72
  0
ARC
  8
APS_GEOMETRY
 10
-354.417
 20
-666.898
 40
28.496
 50
91.918
 51
93.013
  0
ARC
  8
APS_GEOMETRY
 10
-355.061
 20
-647.69
 40
9.277
 50
90.0
 51
91.918
  0
ARC
  8
APS_GEOMETRY
 10
-355.061
 20
-650.467
 40
12.054
 50
73.82
 51
90.0
  0
ARC
  8
APS_GEOMETRY
 10
-353.873
 20
-646.372
 40
7.791
 50
53.658
 51
73.82
  0
ARC
  8
APS_GEOMETRY
 10
-352.183
 20
-644.063
 40
4.929
 50
26.03
 51
53.569
  0
ARC
  8
APS_GEOMETRY
 10
-352.701
 20
-644.316
 40
5.506
 50
360.0
 51
26.03
  0
ARC
  8
APS_GEOMETRY
 10
-352.917
 20
-644.316
 40
5.722
 50
345.282
 51
360.0
  0
ARC
  8
APS_GEOMETRY
 10
-352.367
 20
-644.461
 40
5.152
 50
329.767
 51
345.282
  0
ARC
  8
APS_GEOMETRY
 10
-352.055
 20
-644.642
 40
4.792
 50
313.168
 51
329.767
  0
ARC
  8
APS_GEOMETRY
 10
-351.939
 20
-644.765
 40
4.623
 50
296.267
 51
313.168
  0
ARC
  8
APS_GEOMETRY
 10
-349.308
 20
-650.082
 40
1.31
 50
116.565
 51
139.899
  0
ARC
  8
APS_GEOMETRY
 10
-349.961
 20
-649.532
 40
0.456
 50
139.899
 51
180.0
  0
ARC
  8
APS_GEOMETRY
 10
-349.911
 20
-649.532
 40
0.506
 50
180.0
 51
226.193
  0
ARC
  8
APS_GEOMETRY
 10
-348.975
 20
-648.557
 40
1.858
 50
226.193
 51
249.829
  0
ARC
  8
APS_GEOMETRY
 10
-351.656
 20
-655.937
 40
5.995
 50
53.249
 51
70.105
  0
ARC
  8
APS_GEOMETRY
 10
-350.438
 20
-654.307
 40
3.96
 50
32.471
 51
53.249
  0
ARC
  8
APS_GEOMETRY
 10
-351.006
 20
-654.668
 40
4.632
 50
23.305
 51
32.471
  0
ARC
  8
APS_GEOMETRY
 10
-354.511
 20
-656.178
 40
8.449
 50
16.521
 51
23.305
  0
ARC
  8
APS_GEOMETRY
 10
-357.243
 20
-656.988
 40
11.299
 50
11.429
 51
16.521
  0
ARC
  8
APS_GEOMETRY
 10
-364.988
 20
-658.554
 40
19.201
 50
7.524
 51
11.429
  0
ARC
  8
APS_GEOMETRY
 10
-339.324
 20
-655.136
 40
6.69
 50
187.765
 51
196.914
  0
ARC
  8
APS_GEOMETRY
 10
-344.796
 20
-656.8
 40
0.971
 50
196.914
 51
221.082
  0
ARC
  8
APS_GEOMETRY
 10
-344.775
 20
-656.782
 40
0.999
 50
221.082
 51
244.607
  0
ARC
  8
APS_GEOMETRY
 10
-342.438
 20
-651.859
 40
6.448
 50
244.607
 51
253.811
  0
ARC
  8
APS_GEOMETRY
 10
-344.493
 20
-658.864
 40
0.852
 50
51.45
 51
72.474
  0
ARC
  8
APS_GEOMETRY
 10
-344.704
 20
-659.129
 40
1.191
 50
33.69
 51
51.45
  0
ARC
  8
APS_GEOMETRY
 10
-344.753
 20
-659.162
 40
1.25
 50
16.639
 51
33.69
  0
ARC
  8
APS_GEOMETRY
 10
-344.813
 20
-659.18
 40
1.312
 50
360.0
 51
16.639
  0
ARC
  8
APS_GEOMETRY
 10
-344.831
 20
-659.18
 40
1.331
 50
338.993
 51
360.0
  0
ARC
  8
APS_GEOMETRY
 10
-345.643
 20
-658.868
 40
2.201
 50
322.696
 51
338.993
  0
ARC
  8
APS_GEOMETRY
 10
-345.946
 20
-658.637
 40
2.582
 50
308.603
 51
322.696
  0
ARC
  8
APS_GEOMETRY
 10
-346.155
 20
-658.376
 40
2.916
 50
295.346
 51
308.603
  0
ARC
  8
APS_GEOMETRY
 10
-347.25
 20
-655.963
 40
5.566
 50
279.583
 51
294.905
  0
ARC
  8
APS_GEOMETRY
 10
-348.684
 20
-647.472
 40
14.176
 50
270.0
 51
279.583
  0
ARC
  8
APS_GEOMETRY
 10
-348.684
 20
-651.313
 40
10.336
 50
261.247
 51
270.0
  0
ARC
  8
APS_GEOMETRY
 10
-349.346
 20
-655.613
 40
5.985
 50
249.737
 51
261.247
  0
ARC
  8
APS_GEOMETRY
 10
-349.781
 20
-656.792
 40
4.728
 50
235.345
 51
249.737
  0
ARC
  8
APS_GEOMETRY
 10
-350.33
 20
-657.587
 40
3.762
 50
219.198
 51
235.345
  0
ARC
  8
APS_GEOMETRY
 10
-349.174
 20
-656.601
 40
5.281
 50
209.076
 51
219.56
  0
ARC
  8
APS_GEOMETRY
 10
-346.504
 20
-655.116
 40
8.337
 50
200.735
 51
209.076
  0
ARC
  8
APS_GEOMETRY
 10
-342.819
 20
-653.721
 40
12.277
 50
197.881
 51
200.735
  0
ARC
  8
APS_GEOMETRY
 10
-327.678
 20
-648.836
 40
28.186
 50
195.997
 51
197.881
  0
ARC
  8
APS_GEOMETRY
 10
-316.487
 20
-645.628
 40
39.828
 50
194.664
 51
195.997
  0
ARC
  8
APS_GEOMETRY
 10
-285.489
 20
-637.517
 40
71.869
 50
193.671
 51
194.664
  0
ARC
  8
APS_GEOMETRY
 10
-364.095
 20
-656.627
 40
9.026
 50
13.61
 51
23.585
  0
ARC
  8
APS_GEOMETRY
 10
-358.185
 20
-654.047
 40
2.577
 50
23.585
 51
42.31
  0
ARC
  8
APS_GEOMETRY
 10
-357.649
 20
-653.559
 40
1.853
 50
42.31
 51
67.521
  0
ARC
  8
APS_GEOMETRY
 10
-358.073
 20
-654.584
 40
2.962
 50
67.521
 51
87.397
  0
LINE
  8
APS_GEOMETRY
 10
-358.871
 11
-359.051
 20
-643.286
 21
-647.096
  0
LINE
  8
APS_GEOMETRY
 10
-359.051
 11
-359.051
 20
-647.096
 21
-647.157
  0
LINE
  8
APS_GEOMETRY
 10
-359.051
 11
-359.051
 20
-647.157
 21
-647.243
  0
ARC
  8
APS_GEOMETRY
 10
-356.403
 20
-647.243
 40
2.647
 50
180.0
 51
192.339
  0
ARC
  8
APS_GEOMETRY
 10
-358.508
 20
-647.703
 40
0.493
 50
192.339
 51
221.186
  0
ARC
  8
APS_GEOMETRY
 10
-358.558
 20
-647.747
 40
0.426
 50
221.186
 51
253.872
  0
ARC
  8
APS_GEOMETRY
 10
-358.2
 20
-646.509
 40
1.715
 50
253.872
 51
270.0
  0
ARC
  8
APS_GEOMETRY
 10
-358.2
 20
-644.239
 40
3.985
 50
270.0
 51
289.569
  0
ARC
  8
APS_GEOMETRY
 10
-357.476
 20
-646.277
 40
1.822
 50
289.569
 51
318.681
  0
ARC
  8
APS_GEOMETRY
 10
-357.672
 20
-646.105
 40
2.083
 50
318.681
 51
344.628
  0
ARC
  8
APS_GEOMETRY
 10
-361.323
 20
-645.101
 40
5.87
 50
344.628
 51
0.0
  0
ARC
  8
APS_GEOMETRY
 10
-359.587
 20
-645.101
 40
4.134
 50
0.0
 51
35.369
  0
ARC
  8
APS_GEOMETRY
 10
-357.693
 20
-643.756
 40
1.812
 50
35.369
 51
90.0
  0
ARC
  8
APS_GEOMETRY
 10
-357.693
 20
-643.776
 40
1.831
 50
90.0
 51
108.435
  0
ARC
  8
APS_GEOMETRY
 10
-358.05
 20
-642.707
 40
0.705
 50
108.435
 51
138.366
  0
ARC
  8
APS_GEOMETRY
 10
-357.954
 20
-642.792
 40
0.833
 50
138.366
 51
164.291
  0
ARC
  8
APS_GEOMETRY
 10
-355.712
 20
-643.423
 40
3.162
 50
164.291
 51
177.51
  0
LINE
  8
APS_GEOMETRY
 10
-333.614
 11
-324.996
 20
-638.691
 21
-638.691
  0
ARC
  8
APS_GEOMETRY
 10
-325.432
 20
-626.343
 40
12.355
 50
272.021
 51
278.44
  0
ARC
  8
APS_GEOMETRY
 10
-324.946
 20
-629.621
 40
9.042
 50
278.44
 51
285.945
  0
ARC
  8
APS_GEOMETRY
 10
-321.287
 20
-642.72
 40
4.559
 50
98.584
 51
104.931
  0
ARC
  8
APS_GEOMETRY
 10
-321.595
 20
-640.679
 40
2.495
 50
90.0
 51
98.584
  0
ARC
  8
APS_GEOMETRY
 10
-321.595
 20
-640.06
 40
1.876
 50
52.871
 51
90.0
  0
ARC
  8
APS_GEOMETRY
 10
-324.14
 20
-643.42
 40
6.091
 50
32.518
 51
52.871
  0
ARC
  8
APS_GEOMETRY
 10
-326.155
 20
-644.705
 40
8.481
 50
17.209
 51
32.518
  0
ARC
  8
APS_GEOMETRY
 10
-324.475
 20
-644.185
 40
6.723
 50
360.0
 51
17.209
  0
ARC
  8
APS_GEOMETRY
 10
-321.111
 20
-644.185
 40
3.359
 50
337.348
 51
360.0
  0
ARC
  8
APS_GEOMETRY
 10
-319.761
 20
-644.748
 40
1.896
 50
307.042
 51
337.348
  0
ARC
  8
APS_GEOMETRY
 10
-319.996
 20
-644.426
 40
2.295
 50
287.186
 51
306.87
  0
ARC
  8
APS_GEOMETRY
 10
-320.205
 20
-643.749
 40
3.003
 50
270.0
 51
287.186
  0
ARC
  8
APS_GEOMETRY
 10
-320.205
 20
-644.056
 40
2.697
 50
252.221
 51
270.0
  0
ARC
  8
APS_GEOMETRY
 10
-320.331
 20
-644.447
 40
2.286
 50
232.896
 51
252.221
  0
ARC
  8
APS_GEOMETRY
 10
-319.846
 20
-643.806
 40
3.09
 50
218.3
 51
232.896
  0
ARC
  8
APS_GEOMETRY
 10
-316.056
 20
-640.812
 40
7.92
 50
209.197
 51
218.3
  0
ARC
  8
APS_GEOMETRY
 10
-335.332
 20
-651.256
 40
14.006
 50
28.025
 51
32.699
  0
ARC
  8
APS_GEOMETRY
 10
-325.254
 20
-644.786
 40
2.03
 50
32.699
 51
45.0
  0
ARC
  8
APS_GEOMETRY
 10
-324.567
 20
-644.099
 40
1.058
 50
45.0
 51
67.557
  0
ARC
  8
APS_GEOMETRY
 10
-324.571
 20
-644.109
 40
1.069
 50
67.557
 51
90.0
  0
ARC
  8
APS_GEOMETRY
 10
-324.571
 20
-644.025
 40
0.984
 50
90.0
 51
120.801
  0
ARC
  8
APS_GEOMETRY
 10
-324.605
 20
-643.969
 40
0.919
 50
120.801
 51
152.7
  0
ARC
  8
APS_GEOMETRY
 10
-323.875
 20
-644.346
 40
1.74
 50
152.7
 51
171.085
  0
ARC
  8
APS_GEOMETRY
 10
-318.331
 20
-645.215
 40
7.353
 50
171.085
 51
180.0
  0
LINE
  8
APS_GEOMETRY
 10
-325.683
 11
-325.683
 20
-645.215
 21
-654.372
  0
ARC
  8
APS_GEOMETRY
 10
-315.97
 20
-654.372
 40
9.714
 50
180.0
 51
188.194
  0
ARC
  8
APS_GEOMETRY
 10
-323.224
 20
-655.417
 40
2.385
 50
188.194
 51
204.775
  0
ARC
  8
APS_GEOMETRY
 10
-323.928
 20
-655.742
 40
1.609
 50
204.775
 51
228.576
  0
ARC
  8
APS_GEOMETRY
 10
-323.267
 20
-654.993
 40
2.608
 50
228.576
 51
247.218
  0
ARC
  8
APS_GEOMETRY
 10
-327.102
 20
-664.029
 40
7.208
 50
59.381
 51
66.93
  0
ARC
  8
APS_GEOMETRY
 10
-324.271
 20
-659.246
 40
1.65
 50
43.568
 51
59.381
  0
ARC
  8
APS_GEOMETRY
 10
-323.818
 20
-658.815
 40
1.025
 50
19.041
 51
43.568
  0
ARC
  8
APS_GEOMETRY
 10
-324.447
 20
-659.032
 40
1.691
 50
360.0
 51
19.041
  0
ARC
  8
APS_GEOMETRY
 10
-324.13
 20
-659.032
 40
1.374
 50
317.66
 51
360.0
  0
ARC
  8
APS_GEOMETRY
 10
-325.391
 20
-657.883
 40
3.08
 50
289.747
 51
317.66
  0
ARC
  8
APS_GEOMETRY
 10
-326.447
 20
-654.941
 40
6.206
 50
281.964
 51
289.747
  0
ARC
  8
APS_GEOMETRY
 10
-327.911
 20
-648.035
 40
13.265
 50
276.643
 51
281.964
  0
ARC
  8
APS_GEOMETRY
 10
-328.527
 20
-642.747
 40
18.589
 50
272.836
 51
276.643
  0
ARC
  8
APS_GEOMETRY
 10
-329.264
 20
-627.859
 40
33.495
 50
270.0
 51
272.836
  0
ARC
  8
APS_GEOMETRY
 10
-329.264
 20
-618.634
 40
42.72
 50
267.283
 51
270.0
  0
ARC
  8
APS_GEOMETRY
 10
-330.161
 20
-637.536
 40
23.797
 50
263.643
 51
267.283
  0
ARC
  8
APS_GEOMETRY
 10
-330.912
 20
-644.278
 40
17.014
 50
258.563
 51
263.643
  0
ARC
  8
APS_GEOMETRY
 10
-332.707
 20
-653.147
 40
7.964
 50
251.136
 51
258.563
  0
ARC
  8
APS_GEOMETRY
 10
-334.309
 20
-657.794
 40
3.05
 50
222.558
 51
251.395
  0
ARC
  8
APS_GEOMETRY
 10
-335.498
 20
-658.885
 40
1.436
 50
180.0
 51
222.558
  0
ARC
  8
APS_GEOMETRY
 10
-335.737
 20
-658.885
 40
1.196
 50
150.642
 51
180.0
  0
ARC
  8
APS_GEOMETRY
 10
-335.642
 20
-658.939
 40
1.306
 50
122.574
 51
150.642
  0
ARC
  8
APS_GEOMETRY
 10
-335.895
 20
-658.648
 40
0.926
 50
108.677
 51
119.055
  0
ARC
  8
APS_GEOMETRY
 10
-324.337
 20
-692.84
 40
37.018
 50
107.038
 51
108.677
  0
ARC
  8
APS_GEOMETRY
 10
-335.614
 20
-655.958
 40
1.549
 50
286.144
 51
308.66
  0
ARC
  8
APS_GEOMETRY
 10
-335.361
 20
-656.275
 40
1.143
 50
308.66
 51
334.933
  0
ARC
  8
APS_GEOMETRY
 10
-336.393
 20
-655.792
 40
2.283
 50
334.933
 51
348.829
  0
ARC
  8
APS_GEOMETRY
 10
-349.306
 20
-653.242
 40
15.445
 50
348.829
 51
354.161
  0
ARC
  8
APS_GEOMETRY
 10
-358.034
 20
-652.343
 40
24.219
 50
354.144
 51
355.66
  0
ARC
  8
APS_GEOMETRY
 10
-396.722
 20
-649.407
 40
63.019
 50
355.66
 51
356.6
  0
ARC
  8
APS_GEOMETRY
 10
-426.297
 20
-647.65
 40
92.646
 50
356.6
 51
357.24
  0
ARC
  8
APS_GEOMETRY
 10
-510.209
 20
-643.604
 40
176.656
 50
357.24
 51
357.703
  0
ARC
  8
APS_GEOMETRY
 10
-501.949
 20
-643.936
 40
168.389
 50
357.703
 51
358.674
  0
ARC
  8
APS_GEOMETRY
 10
-424.033
 20
-645.739
 40
90.452
 50
358.674
 51
0.0
  0
ARC
  8
APS_GEOMETRY
 10
-346.986
 20
-645.739
 40
13.405
 50
360.0
 51
6.242
  0
ARC
  8
APS_GEOMETRY
 10
-336.327
 20
-644.573
 40
2.682
 50
6.242
 51
20.225
  0
ARC
  8
APS_GEOMETRY
 10
-334.849
 20
-644.028
 40
1.107
 50
20.225
 51
50.44
  0
ARC
  8
APS_GEOMETRY
 10
-334.562
 20
-643.681
 40
0.657
 50
50.44
 51
90.0
  0
ARC
  8
APS_GEOMETRY
 10
-334.562
 20
-643.905
 40
0.881
 50
90.0
 51
126.747
  0
ARC
  8
APS_GEOMETRY
 10
-333.317
 20
-645.573
 40
2.962
 50
126.747
 51
146.547
  0
ARC
  8
APS_GEOMETRY
 10
-355.311
 20
-631.116
 40
23.357
 50
324.255
 51
326.701
  0
ARC
  8
APS_GEOMETRY
 10
-346.0
 20
-637.818
 40
11.885
 50
320.826
 51
324.255
  0
ARC
  8
APS_GEOMETRY
 10
-342.956
 20
-640.298
 40
7.959
 50
315.722
 51
320.826
  0
ARC
  8
APS_GEOMETRY
 10
-339.459
 20
-643.708
 40
3.075
 50
307.504
 51
315.722
  0
ARC
  8
APS_GEOMETRY
 10
-339.782
 20
-643.277
 40
3.613
 50
291.306
 51
307.405
  0
ARC
  8
APS_GEOMETRY
 10
-339.222
 20
-644.712
 40
2.073
 50
270.0
 51
291.306
  0
ARC
  8
APS_GEOMETRY
 10
-339.222
 20
-644.846
 40
1.939
 50
245.532
 51
270.0
  0
ARC
  8
APS_GEOMETRY
 10
-339.237
 20
-644.878
 40
1.904
 50
220.833
 51
245.532
  0
ARC
  8
APS_GEOMETRY
 10
-339.041
 20
-644.708
 40
2.164
 50
198.684
 51
220.833
  0
ARC
  8
APS_GEOMETRY
 10
-338.22
 20
-644.43
 40
3.03
 50
180.0
 51
198.684
  0
ARC
  8
APS_GEOMETRY
 10
-336.296
 20
-644.43
 40
4.954
 50
168.408
 51
180.0
  0
ARC
  8
APS_GEOMETRY
 10
-333.12
 20
-645.082
 40
8.196
 50
159.402
 51
168.408
  0
ARC
  8
APS_GEOMETRY
 10
-332.138
 20
-645.451
 40
9.245
 50
151.39
 51
159.402
  0
ARC
  8
APS_GEOMETRY
 10
-332.339
 20
-645.341
 40
9.016
 50
143.276
 51
151.39
  0
ARC
  8
APS_GEOMETRY
 10
-334.864
 20
-643.453
 40
5.863
 50
124.216
 51
143.31
  0
ARC
  8
APS_GEOMETRY
 10
-337.113
 20
-640.146
 40
1.864
 50
90.0
 51
124.216
  0
ARC
  8
APS_GEOMETRY
 10
-337.113
 20
-640.974
 40
2.692
 50
82.725
 51
90.0
  0
ARC
  8
APS_GEOMETRY
 10
-337.323
 20
-642.622
 40
4.353
 50
77.005
 51
82.725
  0
ARC
  8
APS_GEOMETRY
 10
-330.899
 20
-611.649
 40
27.28
 50
258.486
 51
260.378
  0
ARC
  8
APS_GEOMETRY
 10
-333.651
 20
-627.881
 40
10.816
 50
260.378
 51
263.382
  0
ARC
  8
APS_GEOMETRY
 10
-333.887
 20
-629.91
 40
8.774
 50
263.382
 51
267.084
  0
ARC
  8
APS_GEOMETRY
 10
-333.614
 20
-624.554
 40
14.137
 50
267.084
 51
270.0
  0
LINE
  8
APS_GEOMETRY
 10
-311.905
 11
-303.5
 20
-638.691
 21
-638.691
  0
ARC
  8
APS_GEOMETRY
 10
-303.5
 20
-532.831
 40
105.86
 50
270.0
 51
270.69
  0
ARC
  8
APS_GEOMETRY
 10
-302.904
 20
-582.359
 40
56.328
 50
270.69
 51
271.637
  0
ARC
  8
APS_GEOMETRY
 10
-302.401
 20
-599.956
 40
38.724
 50
271.637
 51
273.013
  0
ARC
  8
APS_GEOMETRY
 10
-301.176
 20
-623.237
 40
15.41
 50
273.013
 51
275.194
  0
ARC
  8
APS_GEOMETRY
 10
-300.872
 20
-626.578
 40
12.056
 50
275.194
 51
280.756
  0
ARC
  8
APS_GEOMETRY
 10
-300.815
 20
-626.879
 40
11.75
 50
280.756
 51
286.39
  0
ARC
  8
APS_GEOMETRY
 10
-296.508
 20
-641.621
 40
3.609
 50
100.305
 51
105.945
  0
ARC
  8
APS_GEOMETRY
 10
-296.96
 20
-639.136
 40
1.083
 50
90.0
 51
100.305
  0
ARC
  8
APS_GEOMETRY
 10
-296.96
 20
-639.523
 40
1.47
 50
58.946
 51
90.0
  0
ARC
  8
APS_GEOMETRY
 10
-297.522
 20
-640.457
 40
2.56
 50
35.538
 51
58.946
  0
ARC
  8
APS_GEOMETRY
 10
-299.716
 20
-642.071
 40
5.284
 50
16.699
 51
35.952
  0
ARC
  8
APS_GEOMETRY
 10
-301.367
 20
-642.566
 40
7.007
 50
360.0
 51
16.699
  0
ARC
  8
APS_GEOMETRY
 10
-298.292
 20
-642.566
 40
3.932
 50
344.982
 51
360.0
  0
ARC
  8
APS_GEOMETRY
 10
-296.405
 20
-643.073
 40
1.978
 50
323.746
 51
344.982
  0
ARC
  8
APS_GEOMETRY
 10
-295.985
 20
-643.38
 40
1.458
 50
296.114
 51
323.746
  0
ARC
  8
APS_GEOMETRY
 10
-296.06
 20
-643.227
 40
1.629
 50
270.0
 51
296.114
  0
ARC
  8
APS_GEOMETRY
 10
-296.06
 20
-642.813
 40
2.042
 50
255.311
 51
270.0
  0
ARC
  8
APS_GEOMETRY
 10
-296.333
 20
-643.855
 40
0.965
 50
233.881
 51
255.311
  0
ARC
  8
APS_GEOMETRY
 10
-296.046
 20
-643.461
 40
1.453
 50
219.289
 51
233.881
  0
ARC
  8
APS_GEOMETRY
 10
-290.281
 20
-638.744
 40
8.902
 50
213.408
 51
219.289
  0
ARC
  8
APS_GEOMETRY
 10
-301.082
 20
-645.858
 40
4.031
 50
33.294
 51
51.246
  0
ARC
  8
APS_GEOMETRY
 10
-300.533
 20
-645.175
 40
3.154
 50
51.246
 51
71.565
  0
ARC
  8
APS_GEOMETRY
 10
-300.896
 20
-646.263
 40
4.302
 50
71.565
 51
79.278
  0
ARC
  8
APS_GEOMETRY
 10
-302.06
 20
-652.411
 40
10.559
 50
79.278
 51
84.2
  0
ARC
  8
APS_GEOMETRY
 10
-302.556
 20
-657.3
 40
15.473
 50
84.2
 51
87.567
  0
ARC
  8
APS_GEOMETRY
 10
-303.157
 20
-671.439
 40
29.625
 50
87.567
 51
90.0
  0
ARC
  8
APS_GEOMETRY
 10
-303.157
 20
-650.142
 40
8.328
 50
90.0
 51
96.374
  0
ARC
  8
APS_GEOMETRY
 10
-303.71
 20
-645.194
 40
3.349
 50
96.374
 51
106.434
  0
ARC
  8
APS_GEOMETRY
 10
-304.103
 20
-643.862
 40
1.961
 50
106.434
 51
123.056
  0
ARC
  8
APS_GEOMETRY
 10
-304.716
 20
-642.92
 40
0.836
 50
123.056
 51
148.627
  0
ARC
  8
APS_GEOMETRY
 10
-304.156
 20
-643.237
 40
1.48
 50
149.421
 51
165.28
  0
ARC
  8
APS_GEOMETRY
 10
-302.541
 20
-643.662
 40
3.149
 50
165.28
 51
176.135
  0
ARC
  8
APS_GEOMETRY
 10
-297.92
 20
-643.974
 40
7.781
 50
176.135
 51
178.367
  0
ARC
  8
APS_GEOMETRY
 10
-255.167
 20
-645.193
 40
50.551
 50
178.367
 51
179.242
  0
ARC
  8
APS_GEOMETRY
 10
-210.983
 20
-645.777
 40
94.739
 50
179.242
 51
179.709
  0
ARC
  8
APS_GEOMETRY
 10
-60.658
 20
-646.54
 40
245.066
 50
179.709
 51
180.0
  0
ARC
  8
APS_GEOMETRY
 10
-302.179
 20
-646.54
 40
3.545
 50
180.0
 51
195.027
  0
ARC
  8
APS_GEOMETRY
 10
-305.078
 20
-647.318
 40
0.543
 50
195.027
 51
234.058
  0
ARC
  8
APS_GEOMETRY
 10
-305.05
 20
-647.279
 40
0.591
 50
234.058
 51
253.191
  0
ARC
  8
APS_GEOMETRY
 10
-304.432
 20
-645.231
 40
2.731
 50
253.191
 51
262.063
  0
ARC
  8
APS_GEOMETRY
 10
-304.115
 20
-642.959
 40
5.025
 50
262.063
 51
266.949
  0
ARC
  8
APS_GEOMETRY
 10
-303.697
 20
-635.118
 40
12.877
 50
266.949
 51
270.0
  0
ARC
  8
APS_GEOMETRY
 10
-303.697
 20
-645.634
 40
2.361
 50
270.0
 51
286.007
  0
ARC
  8
APS_GEOMETRY
 10
-303.283
 20
-647.075
 40
0.862
 50
286.007
 51
312.647
  0
ARC
  8
APS_GEOMETRY
 10
-303.292
 20
-647.065
 40
0.875
 50
312.647
 51
338.993
  0
ARC
  8
APS_GEOMETRY
 10
-305.08
 20
-646.379
 40
2.79
 50
338.993
 51
353.66
  0
ARC
  8
APS_GEOMETRY
 10
-286.62
 20
-648.58
 40
15.801
 50
169.663
 51
173.118
  0
ARC
  8
APS_GEOMETRY
 10
-299.815
 20
-646.174
 40
2.388
 50
160.769
 51
169.663
  0
ARC
  8
APS_GEOMETRY
 10
-300.918
 20
-645.789
 40
1.219
 50
143.746
 51
160.769
  0
ARC
  8
APS_GEOMETRY
 10
-300.652
 20
-645.984
 40
1.55
 50
128.66
 51
143.746
  0
ARC
  8
APS_GEOMETRY
 10
-300.83
 20
-645.696
 40
1.215
 50
110.171
 51
130.601
  0
ARC
  8
APS_GEOMETRY
 10
-300.819
 20
-645.725
 40
1.246
 50
90.0
 51
110.171
  0
ARC
  8
APS_GEOMETRY
 10
-300.819
 20
-645.743
 40
1.264
 50
61.22
 51
90.0
  0
ARC
  8
APS_GEOMETRY
 10
-301.039
 20
-646.144
 40
1.722
 50
36.634
 51
61.22
  0
ARC
  8
APS_GEOMETRY
 10
-301.246
 20
-646.267
 40
1.961
 50
19.103
 51
35.91
  0
ARC
  8
APS_GEOMETRY
 10
-307.644
 20
-648.483
 40
8.732
 50
11.16
 51
19.103
  0
ARC
  8
APS_GEOMETRY
 10
-310.986
 20
-649.143
 40
12.139
 50
5.396
 51
11.16
  0
ARC
  8
APS_GEOMETRY
 10
-312.686
 20
-649.303
 40
13.846
 50
0.0
 51
5.396
  0
ARC
  8
APS_GEOMETRY
 10
-312.445
 20
-649.303
 40
13.605
 50
349.287
 51
0.0
  0
ARC
  8
APS_GEOMETRY
 10
-305.766
 20
-650.567
 40
6.808
 50
334.12
 51
349.287
  0
ARC
  8
APS_GEOMETRY
 10
-301.165
 20
-652.79
 40
1.698
 50
303.53
 51
333.853
  0
ARC
  8
APS_GEOMETRY
 10
-300.999
 20
-653.042
 40
1.396
 50
270.0
 51
303.53
  0
ARC
  8
APS_GEOMETRY
 10
-300.999
 20
-652.977
 40
1.461
 50
249.578
 51
270.0
  0
ARC
  8
APS_GEOMETRY
 10
-301.309
 20
-653.811
 40
0.57
 50
216.607
 51
249.578
  0
ARC
  8
APS_GEOMETRY
 10
-301.012
 20
-653.591
 40
0.94
 50
195.422
 51
216.607
  0
ARC
  8
APS_GEOMETRY
 10
-295.881
 20
-652.175
 40
6.263
 50
187.253
 51
195.422
  0
ARC
  8
APS_GEOMETRY
 10
-304.168
 20
-653.241
 40
2.092
 50
7.561
 51
49.434
  0
ARC
  8
APS_GEOMETRY
 10
-304.253
 20
-653.341
 40
2.222
 50
49.434
 51
90.0
  0
ARC
  8
APS_GEOMETRY
 10
-304.253
 20
-652.614
 40
1.495
 50
90.0
 51
115.224
  0
ARC
  8
APS_GEOMETRY
 10
-304.548
 20
-651.986
 40
0.801
 50
115.224
 51
149.931
  0
ARC
  8
APS_GEOMETRY
 10
-304.014
 20
-652.295
 40
1.419
 50
149.931
 51
171.111
  0
ARC
  8
APS_GEOMETRY
 10
-297.53
 20
-653.309
 40
7.982
 50
171.111
 51
180.0
  0
ARC
  8
APS_GEOMETRY
 10
-291.142
 20
-653.309
 40
14.369
 50
180.0
 51
183.062
  0
ARC
  8
APS_GEOMETRY
 10
-269.148
 20
-652.133
 40
36.395
 50
183.062
 51
184.986
  0
ARC
  8
APS_GEOMETRY
 10
-280.685
 20
-653.139
 40
24.815
 50
184.986
 51
187.804
  0
ARC
  8
APS_GEOMETRY
 10
-302.535
 20
-656.134
 40
2.76
 50
187.804
 51
196.26
  0
ARC
  8
APS_GEOMETRY
 10
-304.462
 20
-656.714
 40
0.748
 50
194.931
 51
230.024
  0
ARC
  8
APS_GEOMETRY
 10
-303.972
 20
-656.129
 40
1.511
 50
230.024
 51
254.511
  0
ARC
  8
APS_GEOMETRY
 10
-303.376
 20
-653.979
 40
3.742
 50
254.511
 51
265.219
  0
ARC
  8
APS_GEOMETRY
 10
-302.127
 20
-639.045
 40
18.728
 50
265.219
 51
270.0
  0
ARC
  8
APS_GEOMETRY
 10
-302.127
 20
-641.025
 40
16.748
 50
270.0
 51
274.186
  0
ARC
  8
APS_GEOMETRY
 10
-301.618
 20
-647.983
 40
9.771
 50
274.186
 51
279.668
  0
ARC
  8
APS_GEOMETRY
 10
-301.2
 20
-650.437
 40
7.282
 50
279.668
 51
286.991
  0
ARC
  8
APS_GEOMETRY
 10
-300.243
 20
-653.567
 40
4.009
 50
286.991
 51
296.866
  0
ARC
  8
APS_GEOMETRY
 10
-300.044
 20
-653.96
 40
3.569
 50
296.866
 51
318.366
  0
ARC
  8
APS_GEOMETRY
 10
-302.044
 20
-652.182
 40
6.245
 50
318.366
 51
334.581
  0
ARC
  8
APS_GEOMETRY
 10
-288.879
 20
-658.495
 40
8.355
 50
147.08
 51
154.231
  0
ARC
  8
APS_GEOMETRY
 10
-294.383
 20
-654.932
 40
1.8
 50
131.634
 51
147.08
  0
ARC
  8
APS_GEOMETRY
 10
-294.793
 20
-654.471
 40
1.182
 50
108.875
 51
131.634
  0
ARC
  8
APS_GEOMETRY
 10
-294.621
 20
-654.972
 40
1.712
 50
90.0
 51
108.875
  0
ARC
  8
APS_GEOMETRY
 10
-294.621
 20
-654.624
 40
1.364
 50
62.628
 51
90.0
  0
ARC
  8
APS_GEOMETRY
 10
-294.708
 20
-654.791
 40
1.551
 50
36.995
 51
62.628
  0
ARC
  8
APS_GEOMETRY
 10
-295.094
 20
-655.082
 40
2.036
 50
16.728
 51
36.995
  0
ARC
  8
APS_GEOMETRY
 10
-295.997
 20
-655.353
 40
2.978
 50
360.0
 51
16.728
  0
ARC
  8
APS_GEOMETRY
 10
-297.785
 20
-655.353
 40
4.766
 50
348.323
 51
360.0
  0
ARC
  8
APS_GEOMETRY
 10
-304.94
 20
-653.875
 40
12.072
 50
340.994
 51
348.323
  0
ARC
  8
APS_GEOMETRY
 10
-306.636
 20
-653.29
 40
13.867
 50
334.592
 51
340.994
  0
ARC
  8
APS_GEOMETRY
 10
-303.675
 20
-654.697
 40
10.587
 50
327.265
 51
334.592
  0
ARC
  8
APS_GEOMETRY
 10
-300.234
 20
-656.725
 40
6.599
 50
320.133
 51
325.923
  0
ARC
  8
APS_GEOMETRY
 10
-296.233
 20
-660.067
 40
1.386
 50
307.476
 51
320.133
  0
ARC
  8
APS_GEOMETRY
 10
-295.883
 20
-660.524
 40
0.81
 50
286.429
 51
307.476
  0
ARC
  8
APS_GEOMETRY
 10
-296.028
 20
-660.032
 40
1.323
 50
270.0
 51
286.429
  0
ARC
  8
APS_GEOMETRY
 10
-296.028
 20
-658.502
 40
2.852
 50
263.774
 51
270.0
  0
ARC
  8
APS_GEOMETRY
 10
-295.193
 20
-650.854
 40
10.546
 50
260.538
 51
263.774
  0
ARC
  8
APS_GEOMETRY
 10
-298.928
 20
-671.927
 40
10.857
 50
79.38
 51
84.987
  0
ARC
  8
APS_GEOMETRY
 10
-300.547
 20
-690.382
 40
29.383
 50
84.987
 51
88.394
  0
LINE
  8
APS_GEOMETRY
 10
-299.723
 11
-313.59
 20
-661.011
 21
-661.011
  0
ARC
  8
APS_GEOMETRY
 10
-313.59
 20
-658.109
 40
2.902
 50
254.103
 51
270.0
  0
ARC
  8
APS_GEOMETRY
 10
-313.998
 20
-659.544
 40
1.41
 50
231.216
 51
254.103
  0
ARC
  8
APS_GEOMETRY
 10
-314.166
 20
-659.753
 40
1.142
 50
203.795
 51
231.216
  0
ARC
  8
APS_GEOMETRY
 10
-313.83
 20
-659.605
 40
1.509
 50
180.0
 51
203.795
  0
ARC
  8
APS_GEOMETRY
 10
-313.703
 20
-659.605
 40
1.637
 50
164.055
 51
180.0
  0
ARC
  8
APS_GEOMETRY
 10
-314.711
 20
-659.317
 40
0.588
 50
137.291
 51
164.055
  0
ARC
  8
APS_GEOMETRY
 10
-314.408
 20
-659.597
 40
1.001
 50
120.964
 51
137.291
  0
ARC
  8
APS_GEOMETRY
 10
-311.157
 20
-665.014
 40
7.318
 50
114.944
 51
120.964
  0
ARC
  8
APS_GEOMETRY
 10
-315.215
 20
-656.137
 40
2.443
 50
293.429
 51
305.72
  0
ARC
  8
APS_GEOMETRY
 10
-314.543
 20
-657.071
 40
1.292
 50
305.72
 51
322.651
  0
ARC
  8
APS_GEOMETRY
 10
-314.647
 20
-656.992
 40
1.423
 50
322.651
 51
338.11
  0
ARC
  8
APS_GEOMETRY
 10
-316.676
 20
-656.177
 40
3.61
 50
338.11
 51
347.8
  0
ARC
  8
APS_GEOMETRY
 10
-329.276
 20
-653.415
 40
16.509
 50
347.672
 51
352.051
  0
ARC
  8
APS_GEOMETRY
 10
-341.473
 20
-651.712
 40
28.824
 50
352.051
 51
355.365
  0
ARC
  8
APS_GEOMETRY
 10
-349.686
 20
-651.046
 40
37.064
 50
355.365
 51
357.943
  0
ARC
  8
APS_GEOMETRY
 10
-370.891
 20
-650.284
 40
58.283
 50
357.943
 51
0.0
  0
ARC
  8
APS_GEOMETRY
 10
-395.367
 20
-650.284
 40
82.759
 50
360.0
 51
2.183
  0
ARC
  8
APS_GEOMETRY
 10
-345.88
 20
-648.398
 40
33.235
 50
2.183
 51
5.629
  0
ARC
  8
APS_GEOMETRY
 10
-331.138
 20
-646.945
 40
18.422
 50
5.629
 51
11.805
  0
ARC
  8
APS_GEOMETRY
 10
-316.83
 20
-643.954
 40
3.805
 50
11.805
 51
25.419
  0
ARC
  8
APS_GEOMETRY
 10
-314.978
 20
-643.113
 40
1.772
 50
26.565
 51
38.157
  0
ARC
  8
APS_GEOMETRY
 10
-314.156
 20
-642.467
 40
0.726
 50
38.157
 51
56.31
  0
ARC
  8
APS_GEOMETRY
 10
-314.33
 20
-642.728
 40
1.04
 50
56.31
 51
69.193
  0
ARC
  8
APS_GEOMETRY
 10
-316.77
 20
-649.149
 40
7.908
 50
69.193
 51
73.856
  0
ARC
  8
APS_GEOMETRY
 10
-314.196
 20
-640.296
 40
1.312
 50
216.87
 51
253.393
  0
ARC
  8
APS_GEOMETRY
 10
-314.215
 20
-640.31
 40
1.288
 50
180.0
 51
216.87
  0
ARC
  8
APS_GEOMETRY
 10
-313.934
 20
-640.31
 40
1.569
 50
161.565
 51
180.0
  0
ARC
  8
APS_GEOMETRY
 10
-313.99
 20
-640.291
 40
1.509
 50
142.765
 51
161.565
  0
ARC
  8
APS_GEOMETRY
 10
-314.027
 20
-640.263
 40
1.464
 50
123.425
 51
142.765
  0
ARC
  8
APS_GEOMETRY
 10
-313.994
 20
-640.313
 40
1.523
 50
104.47
 51
123.425
  0
ARC
  8
APS_GEOMETRY
 10
-313.704
 20
-641.744
 40
2.982
 50
96.724
 51
102.995
  0
ARC
  8
APS_GEOMETRY
 10
-312.803
 20
-649.382
 40
10.673
 50
93.411
 51
96.724
  0
ARC
  8
APS_GEOMETRY
 10
-312.403
 20
-656.092
 40
17.395
 50
91.375
 51
93.411
  0
ARC
  8
APS_GEOMETRY
 10
-311.905
 20
-676.842
 40
38.151
 50
90.0
 51
91.375
  0
LINE
  8
COSTRUZIONI
 10
-748.679
 11
1251.321
 20
-803.306
 21
-803.306
  0
LINE
  8
COSTRUZIONI
 10
1251.321
 11
1251.321
 20
-803.306
 21
-603.306
  0
LINE
  8
COSTRUZIONI
 10
1251.321
 11
-748.679
 20
-603.306
 21
-603.306
  0
LINE
  8
COSTRUZIONI
 10
-748.679
 11
-748.679
 20
-603.306
 21
-803.306
  0
LINE
  8
COSTRUZIONI
 10
-282.828
 11
-282.828
 20
-803.306
 21
-603.306
  0
LINE
  8
COSTRUZIONI
 10
1052.429
 11
1052.429
 20
-803.306
 21
-603.306
  0
LINE
  8
COSTRUZIONI
 10
1251.321
 11
-282.828
 20
-653.306
 21
-653.306
  0
LINE
  8
COSTRUZIONI
 10
1052.429
 11
1251.321
 20
-753.306
 21
-753.306
  0
LINE
  8
COSTRUZIONI
 10
-282.828
 11
1251.321
 20
-703.306
 21
-703.306
  0
LINE
  8
COSTRUZIONI
 10
745.62
 11
745.62
 20
-703.306
 21
-653.306
  0
LINE
  8
COSTRUZIONI
 10
250.541
 11
250.541
 20
-703.306
 21
-653.306
  0
LINE
  8
APS_GEOMETRY
 10
141.5
 11
37.5
 20
-329.0
 21
-329.0
  0
ARC
  8
APS_GEOMETRY
 10
37.5
 20
-328.0
 40
1.0
 50
180.0
 51
270.0
  0
LINE
  8
APS_GEOMETRY
 10
36.5
 11
36.5
 20
-328.0
 21
-300.0
  0
LINE
  8
APS_GEOMETRY
 10
36.5
 11
28.5
 20
-300.0
 21
-300.0
  0
ARC
  8
APS_GEOMETRY
 10
28.5
 20
-298.0
 40
2.0
 50
180.0
 51
270.0
  0
LINE
  8
APS_GEOMETRY
 10
26.5
 11
26.5
 20
-298.0
 21
-286.0
  0
ARC
  8
APS_GEOMETRY
 10
27.5
 20
-286.0
 40
1.0
 50
90.0
 51
180.0
  0
LINE
  8
APS_GEOMETRY
 10
27.5
 11
141.5
 20
-285.0
 21
-285.0
  0
LINE
  8
APS_GEOMETRY
 10
183.5
 11
704.5
 20
-285.0
 21
-285.0
  0
LINE
  8
APS_GEOMETRY
 10
444.0
 11
183.5
 20
-329.0
 21
-329.0
  0
LINE
  8
QUOTATURA
 10
26.5
 11
26.5
 20
-286.0
 21
-233.191
  0
LINE
  8
QUOTATURA
 10
861.5
 11
861.5
 20
-286.0
 21
-233.191
  0
LINE
  8
QUOTATURA
 10
26.5
 11
185.203
 20
-233.191
 21
-233.191
  0
LINE
  8
QUOTATURA
 10
413.259
 11
861.5
 20
-233.191
 21
-233.191
  0
LINE
  8
QUOTATURA
 10
56.5
 11
26.5
 20
-238.192
 21
-233.191
  0
LINE
  8
QUOTATURA
 10
26.5
 11
56.5
 20
-233.191
 21
-228.19
  0
LINE
  8
QUOTATURA
 10
56.5
 11
56.5
 20
-228.19
 21
-238.192
  0
LINE
  8
QUOTATURA
 10
831.5
 11
861.5
 20
-228.19
 21
-233.191
  0
LINE
  8
QUOTATURA
 10
861.5
 11
831.5
 20
-233.191
 21
-238.192
  0
LINE
  8
QUOTATURA
 10
831.5
 11
831.5
 20
-238.192
 21
-228.19
  0
LINE
  8
QUOTATURA
 10
2449.597
 11
2449.597
 20
275.096
 21
129.344
  0
LINE
  8
QUOTATURA
 10
2669.597
 11
2669.597
 20
265.096
 21
129.344
  0
LINE
  8
QUOTATURA
 10
2449.597
 11
2524.097
 20
129.344
 21
129.344
  0
LINE
  8
QUOTATURA
 10
2595.097
 11
2669.597
 20
129.344
 21
129.344
  0
LINE
  8
QUOTATURA
 10
2479.597
 11
2449.597
 20
124.343
 21
129.344
  0
LINE
  8
QUOTATURA
 10
2449.597
 11
2479.597
 20
129.344
 21
134.345
  0
LINE
  8
QUOTATURA
 10
2479.597
 11
2479.597
 20
134.345
 21
124.343
  0
LINE
  8
QUOTATURA
 10
2639.597
 11
2669.597
 20
134.345
 21
129.344
  0
LINE
  8
QUOTATURA
 10
2669.597
 11
2639.597
 20
129.344
 21
124.343
  0
LINE
  8
QUOTATURA
 10
2639.597
 11
2639.597
 20
124.343
 21
134.345
  0
LINE
  8
QUOTATURA
 10
2168.597
 11
2116.601
 20
710.097
 21
710.097
  0
LINE
  8
QUOTATURA
 10
2193.597
 11
2116.601
 20
930.097
 21
930.097
  0
LINE
  8
QUOTATURA
 10
2116.601
 11
2116.601
 20
710.097
 21
797.607
  0
LINE
  8
QUOTATURA
 10
2116.601
 11
2116.601
 20
842.607
 21
930.097
  0
LINE
  8
QUOTATURA
 10
2121.602
 11
2116.601
 20
740.097
 21
710.097
  0
LINE
  8
QUOTATURA
 10
2116.601
 11
2111.6
 20
710.097
 21
740.097
  0
LINE
  8
QUOTATURA
 10
2111.6
 11
2121.602
 20
740.097
 21
740.097
  0
LINE
  8
QUOTATURA
 10
2111.6
 11
2116.601
 20
900.097
 21
930.097
  0
LINE
  8
QUOTATURA
 10
2116.601
 11
2121.602
 20
930.097
 21
900.097
  0
LINE
  8
QUOTATURA
 10
2121.602
 11
2111.6
 20
900.097
 21
900.097
  0
LINE
  8
QUOTATURA
 10
2502.097
 11
2577.06
 20
855.096
 21
855.096
  0
LINE
  8
QUOTATURA
 10
2502.097
 11
2577.06
 20
710.097
 21
710.097
  0
LINE
  8
QUOTATURA
 10
2577.06
 11
2577.06
 20
855.096
 21
805.191
  0
LINE
  8
QUOTATURA
 10
2577.06
 11
2577.06
 20
759.725
 21
710.097
  0
LINE
  8
QUOTATURA
 10
2572.059
 11
2577.06
 20
825.096
 21
855.096
  0
LINE
  8
QUOTATURA
 10
2577.06
 11
2582.061
 20
855.096
 21
825.096
  0
LINE
  8
QUOTATURA
 10
2582.061
 11
2572.059
 20
825.096
 21
825.096
  0
LINE
  8
QUOTATURA
 10
2582.061
 11
2577.06
 20
740.097
 21
710.097
  0
LINE
  8
QUOTATURA
 10
2577.06
 11
2572.059
 20
710.097
 21
740.097
  0
LINE
  8
QUOTATURA
 10
2572.059
 11
2582.061
 20
740.097
 21
740.097
  0
LINE
  8
QUOTATURA
 10
2487.097
 11
2487.097
 20
855.097
 21
986.514
  0
LINE
  8
QUOTATURA
 10
2537.097
 11
2537.097
 20
930.097
 21
986.514
  0
LINE
  8
QUOTATURA
 10
2537.097
 11
2624.184
 20
986.514
 21
986.514
  0
LINE
  8
QUOTATURA
 10
2567.097
 11
2537.097
 20
981.513
 21
986.514
  0
LINE
  8
QUOTATURA
 10
2537.097
 11
2567.097
 20
986.514
 21
991.515
  0
LINE
  8
QUOTATURA
 10
2567.097
 11
2567.097
 20
991.515
 21
981.513
  0
LINE
  8
QUOTATURA
 10
2487.097
 11
2427.097
 20
986.514
 21
986.514
  0
LINE
  8
QUOTATURA
 10
2457.097
 11
2487.097
 20
991.515
 21
986.514
  0
LINE
  8
QUOTATURA
 10
2487.097
 11
2457.097
 20
986.514
 21
981.513
  0
LINE
  8
QUOTATURA
 10
2457.097
 11
2457.097
 20
981.513
 21
991.515
  0
LINE
  8
QUOTATURA
 10
1585.112
 11
1595.576
 20
710.097
 21
710.097
  0
LINE
  8
QUOTATURA
 10
1597.661
 11
1595.576
 20
930.097
 21
930.097
  0
LINE
  8
QUOTATURA
 10
1595.576
 11
1595.576
 20
710.097
 21
797.607
  0
LINE
  8
QUOTATURA
 10
1595.576
 11
1595.576
 20
842.607
 21
930.097
  0
LINE
  8
QUOTATURA
 10
1600.577
 11
1595.576
 20
740.097
 21
710.097
  0
LINE
  8
QUOTATURA
 10
1595.576
 11
1590.575
 20
710.097
 21
740.097
  0
LINE
  8
QUOTATURA
 10
1590.575
 11
1600.577
 20
740.097
 21
740.097
  0
LINE
  8
QUOTATURA
 10
1590.575
 11
1595.576
 20
900.097
 21
930.097
  0
LINE
  8
QUOTATURA
 10
1595.576
 11
1600.577
 20
930.097
 21
900.097
  0
LINE
  8
QUOTATURA
 10
1600.577
 11
1590.575
 20
900.097
 21
900.097
  0
LINE
  8
APS_GEOMETRY
 10
183.5
 11
178.57
 20
-329.0
 21
-324.563
  0
ARC
  8
APS_GEOMETRY
 10
178.235
 20
-324.934
 40
0.5
 50
48.013
 51
69.274
  0
LINE
  8
APS_GEOMETRY
 10
178.412
 11
160.086
 20
-324.467
 21
-317.532
  0
ARC
  8
APS_GEOMETRY
 10
159.909
 20
-318.0
 40
0.5
 50
69.274
 51
90.0
  0
LINE
  8
APS_GEOMETRY
 10
159.909
 11
156.0
 20
-317.5
 21
-317.5
  0
ARC
  8
APS_GEOMETRY
 10
156.0
 20
-320.759
 40
3.259
 50
90.0
 51
184.242
  0
ARC
  8
APS_GEOMETRY
 10
149.5
 20
-321.241
 40
3.259
 50
270.0
 51
4.242
  0
LINE
  8
APS_GEOMETRY
 10
149.5
 11
147.825
 20
-324.5
 21
-324.5
  0
ARC
  8
APS_GEOMETRY
 10
147.825
 20
-325.0
 40
0.5
 50
90.0
 51
154.623
  0
ARC
  8
APS_GEOMETRY
 10
141.5
 20
-322.0
 40
6.5
 50
270.0
 51
334.623
  0
LINE
  8
APS_GEOMETRY
 10
141.5
 11
141.5
 20
-328.5
 21
-329.0
  0
LINE
  8
APS_GEOMETRY
 10
183.5
 11
178.57
 20
-285.0
 21
-289.437
  0
ARC
  8
APS_GEOMETRY
 10
178.235
 20
-289.065
 40
0.5
 50
290.726
 51
311.987
  0
LINE
  8
APS_GEOMETRY
 10
178.412
 11
160.086
 20
-289.533
 21
-296.468
  0
ARC
  8
APS_GEOMETRY
 10
159.909
 20
-296.0
 40
0.5
 50
270.0
 51
290.726
  0
LINE
  8
APS_GEOMETRY
 10
159.909
 11
156.0
 20
-296.5
 21
-296.5
  0
ARC
  8
APS_GEOMETRY
 10
156.0
 20
-293.241
 40
3.259
 50
175.758
 51
270.0
  0
ARC
  8
APS_GEOMETRY
 10
149.5
 20
-292.759
 40
3.259
 50
355.758
 51
90.0
  0
LINE
  8
APS_GEOMETRY
 10
149.5
 11
147.825
 20
-289.5
 21
-289.5
  0
ARC
  8
APS_GEOMETRY
 10
147.825
 20
-289.0
 40
0.5
 50
205.377
 51
270.0
  0
ARC
  8
APS_GEOMETRY
 10
141.5
 20
-292.0
 40
6.5
 50
25.377
 51
90.0
  0
LINE
  8
APS_GEOMETRY
 10
141.5
 11
141.5
 20
-285.5
 21
-285.0
  0
LINE
  8
APS_GEOMETRY
 10
746.5
 11
850.5
 20
-329.0
 21
-329.0
  0
ARC
  8
APS_GEOMETRY
 10
850.5
 20
-328.0
 40
1.0
 50
270.0
 51
0.0
  0
LINE
  8
APS_GEOMETRY
 10
851.5
 11
851.5
 20
-328.0
 21
-300.0
  0
LINE
  8
APS_GEOMETRY
 10
851.5
 11
859.5
 20
-300.0
 21
-300.0
  0
ARC
  8
APS_GEOMETRY
 10
859.5
 20
-298.0
 40
2.0
 50
270.0
 51
0.0
  0
LINE
  8
APS_GEOMETRY
 10
861.5
 11
861.5
 20
-298.0
 21
-286.0
  0
ARC
  8
APS_GEOMETRY
 10
860.5
 20
-286.0
 40
1.0
 50
0.0
 51
90.0
  0
LINE
  8
APS_GEOMETRY
 10
860.5
 11
746.5
 20
-285.0
 21
-285.0
  0
LINE
  8
APS_GEOMETRY
 10
444.0
 11
704.5
 20
-329.0
 21
-329.0
  0
LINE
  8
APS_GEOMETRY
 10
704.5
 11
709.43
 20
-329.0
 21
-324.563
  0
ARC
  8
APS_GEOMETRY
 10
709.765
 20
-324.934
 40
0.5
 50
110.726
 51
131.987
  0
LINE
  8
APS_GEOMETRY
 10
709.588
 11
727.914
 20
-324.467
 21
-317.532
  0
ARC
  8
APS_GEOMETRY
 10
728.091
 20
-318.0
 40
0.5
 50
90.0
 51
110.726
  0
LINE
  8
APS_GEOMETRY
 10
728.091
 11
732.0
 20
-317.5
 21
-317.5
  0
ARC
  8
APS_GEOMETRY
 10
732.0
 20
-320.759
 40
3.259
 50
355.758
 51
90.0
  0
ARC
  8
APS_GEOMETRY
 10
738.5
 20
-321.241
 40
3.259
 50
175.758
 51
270.0
  0
LINE
  8
APS_GEOMETRY
 10
738.5
 11
740.175
 20
-324.5
 21
-324.5
  0
ARC
  8
APS_GEOMETRY
 10
740.175
 20
-325.0
 40
0.5
 50
25.377
 51
90.0
  0
ARC
  8
APS_GEOMETRY
 10
746.5
 20
-322.0
 40
6.5
 50
205.377
 51
270.0
  0
LINE
  8
APS_GEOMETRY
 10
746.5
 11
746.5
 20
-328.5
 21
-329.0
  0
LINE
  8
APS_GEOMETRY
 10
704.5
 11
709.43
 20
-285.0
 21
-289.437
  0
ARC
  8
APS_GEOMETRY
 10
709.765
 20
-289.065
 40
0.5
 50
228.013
 51
249.274
  0
LINE
  8
APS_GEOMETRY
 10
709.588
 11
727.914
 20
-289.533
 21
-296.468
  0
ARC
  8
APS_GEOMETRY
 10
728.091
 20
-296.0
 40
0.5
 50
249.274
 51
270.0
  0
LINE
  8
APS_GEOMETRY
 10
728.091
 11
732.0
 20
-296.5
 21
-296.5
  0
ARC
  8
APS_GEOMETRY
 10
732.0
 20
-293.241
 40
3.259
 50
270.0
 51
4.242
  0
ARC
  8
APS_GEOMETRY
 10
738.5
 20
-292.759
 40
3.259
 50
90.0
 51
184.242
  0
LINE
  8
APS_GEOMETRY
 10
738.5
 11
740.175
 20
-289.5
 21
-289.5
  0
ARC
  8
APS_GEOMETRY
 10
740.175
 20
-289.0
 40
0.5
 50
270.0
 51
334.623
  0
ARC
  8
APS_GEOMETRY
 10
746.5
 20
-292.0
 40
6.5
 50
90.0
 51
154.623
  0
LINE
  8
APS_GEOMETRY
 10
746.5
 11
746.5
 20
-285.5
 21
-285.0
  0
LINE
  8
APS_GEOMETRY
 10
-314.892
 11
-319.329
 20
295.0
 21
290.07
  0
ARC
  8
APS_GEOMETRY
 10
-318.958
 20
289.735
 40
0.5
 50
138.013
 51
159.274
  0
LINE
  8
APS_GEOMETRY
 10
-319.425
 11
-326.36
 20
289.912
 21
271.586
  0
ARC
  8
APS_GEOMETRY
 10
-325.892
 20
271.409
 40
0.5
 50
159.274
 51
180.0
  0
LINE
  8
APS_GEOMETRY
 10
-326.392
 11
-326.392
 20
271.409
 21
267.5
  0
ARC
  8
APS_GEOMETRY
 10
-323.133
 20
267.5
 40
3.259
 50
180.0
 51
274.242
  0
ARC
  8
APS_GEOMETRY
 10
-322.651
 20
261.0
 40
3.259
 50
360.0
 51
94.242
  0
LINE
  8
APS_GEOMETRY
 10
-319.392
 11
-319.392
 20
261.0
 21
259.325
  0
ARC
  8
APS_GEOMETRY
 10
-318.892
 20
259.325
 40
0.5
 50
180.0
 51
244.623
  0
ARC
  8
APS_GEOMETRY
 10
-321.892
 20
253.0
 40
6.5
 50
360.0
 51
64.623
  0
LINE
  8
APS_GEOMETRY
 10
-315.392
 11
-314.892
 20
253.0
 21
253.0
  0
LINE
  8
APS_GEOMETRY
 10
-358.892
 11
-354.455
 20
295.0
 21
290.07
  0
ARC
  8
APS_GEOMETRY
 10
-354.826
 20
289.735
 40
0.5
 50
20.726
 51
41.987
  0
LINE
  8
APS_GEOMETRY
 10
-354.359
 11
-347.424
 20
289.912
 21
271.586
  0
ARC
  8
APS_GEOMETRY
 10
-347.892
 20
271.409
 40
0.5
 50
360.0
 51
20.726
  0
LINE
  8
APS_GEOMETRY
 10
-347.392
 11
-347.392
 20
271.409
 21
267.5
  0
ARC
  8
APS_GEOMETRY
 10
-350.651
 20
267.5
 40
3.259
 50
265.758
 51
360.0
  0
ARC
  8
APS_GEOMETRY
 10
-351.133
 20
261.0
 40
3.259
 50
85.758
 51
180.0
  0
LINE
  8
APS_GEOMETRY
 10
-354.392
 11
-354.392
 20
261.0
 21
259.325
  0
ARC
  8
APS_GEOMETRY
 10
-354.892
 20
259.325
 40
0.5
 50
295.377
 51
360.0
  0
ARC
  8
APS_GEOMETRY
 10
-351.892
 20
253.0
 40
6.5
 50
115.377
 51
180.0
  0
LINE
  8
APS_GEOMETRY
 10
-358.392
 11
-358.892
 20
253.0
 21
253.0
  0
LINE
  8
APS_GEOMETRY
 10
-358.892
 11
-354.455
 20
733.0
 21
737.93
  0
ARC
  8
APS_GEOMETRY
 10
-354.826
 20
738.265
 40
0.5
 50
318.013
 51
339.274
  0
LINE
  8
APS_GEOMETRY
 10
-354.359
 11
-347.424
 20
738.088
 21
756.414
  0
ARC
  8
APS_GEOMETRY
 10
-347.892
 20
756.591
 40
0.5
 50
339.274
 51
360.0
  0
LINE
  8
APS_GEOMETRY
 10
-347.392
 11
-347.392
 20
756.591
 21
760.5
  0
ARC
  8
APS_GEOMETRY
 10
-350.651
 20
760.5
 40
3.259
 50
360.0
 51
94.242
  0
ARC
  8
APS_GEOMETRY
 10
-351.133
 20
767.0
 40
3.259
 50
180.0
 51
274.242
  0
LINE
  8
APS_GEOMETRY
 10
-354.392
 11
-354.392
 20
767.0
 21
768.675
  0
ARC
  8
APS_GEOMETRY
 10
-354.892
 20
768.675
 40
0.5
 50
360.0
 51
64.623
  0
ARC
  8
APS_GEOMETRY
 10
-351.892
 20
775.0
 40
6.5
 50
180.0
 51
244.623
  0
LINE
  8
APS_GEOMETRY
 10
-358.392
 11
-358.892
 20
775.0
 21
775.0
  0
LINE
  8
APS_GEOMETRY
 10
-314.892
 11
-319.329
 20
733.0
 21
737.93
  0
ARC
  8
APS_GEOMETRY
 10
-318.958
 20
738.265
 40
0.5
 50
200.726
 51
221.987
  0
LINE
  8
APS_GEOMETRY
 10
-319.425
 11
-326.36
 20
738.088
 21
756.414
  0
ARC
  8
APS_GEOMETRY
 10
-325.892
 20
756.591
 40
0.5
 50
180.0
 51
200.726
  0
LINE
  8
APS_GEOMETRY
 10
-326.392
 11
-326.392
 20
756.591
 21
760.5
  0
ARC
  8
APS_GEOMETRY
 10
-323.133
 20
760.5
 40
3.259
 50
85.758
 51
180.0
  0
ARC
  8
APS_GEOMETRY
 10
-322.651
 20
767.0
 40
3.259
 50
265.758
 51
0.0
  0
LINE
  8
APS_GEOMETRY
 10
-319.392
 11
-319.392
 20
767.0
 21
768.675
  0
ARC
  8
APS_GEOMETRY
 10
-318.892
 20
768.675
 40
0.5
 50
115.377
 51
180.0
  0
ARC
  8
APS_GEOMETRY
 10
-321.892
 20
775.0
 40
6.5
 50
295.377
 51
360.0
  0
LINE
  8
APS_GEOMETRY
 10
-315.392
 11
-314.892
 20
775.0
 21
775.0
  0
LINE
  8
APS_GEOMETRY
 10
-314.892
 11
-319.329
 20
880.0
 21
875.07
  0
ARC
  8
APS_GEOMETRY
 10
-318.958
 20
874.735
 40
0.5
 50
138.013
 51
159.274
  0
LINE
  8
APS_GEOMETRY
 10
-319.425
 11
-326.36
 20
874.912
 21
856.586
  0
ARC
  8
APS_GEOMETRY
 10
-325.892
 20
856.409
 40
0.5
 50
159.274
 51
180.0
  0
LINE
  8
APS_GEOMETRY
 10
-326.392
 11
-326.392
 20
856.409
 21
852.5
  0
ARC
  8
APS_GEOMETRY
 10
-323.133
 20
852.5
 40
3.259
 50
180.0
 51
274.242
  0
ARC
  8
APS_GEOMETRY
 10
-322.651
 20
846.0
 40
3.259
 50
360.0
 51
94.242
  0
LINE
  8
APS_GEOMETRY
 10
-319.392
 11
-319.392
 20
846.0
 21
844.325
  0
ARC
  8
APS_GEOMETRY
 10
-318.892
 20
844.325
 40
0.5
 50
180.0
 51
244.623
  0
ARC
  8
APS_GEOMETRY
 10
-321.892
 20
838.0
 40
6.5
 50
360.0
 51
64.623
  0
LINE
  8
APS_GEOMETRY
 10
-315.392
 11
-314.892
 20
838.0
 21
838.0
  0
LINE
  8
APS_GEOMETRY
 10
-358.892
 11
-354.455
 20
880.0
 21
875.07
  0
ARC
  8
APS_GEOMETRY
 10
-354.826
 20
874.735
 40
0.5
 50
20.726
 51
41.987
  0
LINE
  8
APS_GEOMETRY
 10
-354.359
 11
-347.424
 20
874.912
 21
856.586
  0
ARC
  8
APS_GEOMETRY
 10
-347.892
 20
856.409
 40
0.5
 50
360.0
 51
20.726
  0
LINE
  8
APS_GEOMETRY
 10
-347.392
 11
-347.392
 20
856.409
 21
852.5
  0
ARC
  8
APS_GEOMETRY
 10
-350.651
 20
852.5
 40
3.259
 50
265.758
 51
360.0
  0
ARC
  8
APS_GEOMETRY
 10
-351.133
 20
846.0
 40
3.259
 50
85.758
 51
180.0
  0
LINE
  8
APS_GEOMETRY
 10
-354.392
 11
-354.392
 20
846.0
 21
844.325
  0
ARC
  8
APS_GEOMETRY
 10
-354.892
 20
844.325
 40
0.5
 50
295.377
 51
360.0
  0
ARC
  8
APS_GEOMETRY
 10
-351.892
 20
838.0
 40
6.5
 50
115.377
 51
180.0
  0
LINE
  8
APS_GEOMETRY
 10
-358.392
 11
-358.892
 20
838.0
 21
838.0
  0
LINE
  8
APS_GEOMETRY
 10
-358.892
 11
-358.892
 20
775.0
 21
838.0
  0
LINE
  8
APS_GEOMETRY
 10
-314.892
 11
-314.892
 20
775.0
 21
838.0
  0
LINE
  8
APS_GEOMETRY
 10
-358.892
 11
-354.455
 20
985.0
 21
989.93
  0
ARC
  8
APS_GEOMETRY
 10
-354.826
 20
990.265
 40
0.5
 50
318.013
 51
339.274
  0
LINE
  8
APS_GEOMETRY
 10
-354.359
 11
-347.424
 20
990.088
 21
1008.414
  0
ARC
  8
APS_GEOMETRY
 10
-347.892
 20
1008.591
 40
0.5
 50
339.274
 51
360.0
  0
LINE
  8
APS_GEOMETRY
 10
-347.392
 11
-347.392
 20
1008.591
 21
1012.5
  0
ARC
  8
APS_GEOMETRY
 10
-350.651
 20
1012.5
 40
3.259
 50
360.0
 51
94.242
  0
ARC
  8
APS_GEOMETRY
 10
-351.133
 20
1019.0
 40
3.259
 50
180.0
 51
274.242
  0
LINE
  8
APS_GEOMETRY
 10
-354.392
 11
-354.392
 20
1019.0
 21
1020.675
  0
ARC
  8
APS_GEOMETRY
 10
-354.892
 20
1020.675
 40
0.5
 50
360.0
 51
64.623
  0
ARC
  8
APS_GEOMETRY
 10
-351.892
 20
1027.0
 40
6.5
 50
180.0
 51
244.623
  0
LINE
  8
APS_GEOMETRY
 10
-358.392
 11
-358.892
 20
1027.0
 21
1027.0
  0
LINE
  8
APS_GEOMETRY
 10
-314.892
 11
-319.329
 20
985.0
 21
989.93
  0
ARC
  8
APS_GEOMETRY
 10
-318.958
 20
990.265
 40
0.5
 50
200.726
 51
221.987
  0
LINE
  8
APS_GEOMETRY
 10
-319.425
 11
-326.36
 20
990.088
 21
1008.414
  0
ARC
  8
APS_GEOMETRY
 10
-325.892
 20
1008.591
 40
0.5
 50
180.0
 51
200.726
  0
LINE
  8
APS_GEOMETRY
 10
-326.392
 11
-326.392
 20
1008.591
 21
1012.5
  0
ARC
  8
APS_GEOMETRY
 10
-323.133
 20
1012.5
 40
3.259
 50
85.758
 51
180.0
  0
ARC
  8
APS_GEOMETRY
 10
-322.651
 20
1019.0
 40
3.259
 50
265.758
 51
0.0
  0
LINE
  8
APS_GEOMETRY
 10
-319.392
 11
-319.392
 20
1019.0
 21
1020.675
  0
ARC
  8
APS_GEOMETRY
 10
-318.892
 20
1020.675
 40
0.5
 50
115.377
 51
180.0
  0
ARC
  8
APS_GEOMETRY
 10
-321.892
 20
1027.0
 40
6.5
 50
295.377
 51
360.0
  0
LINE
  8
APS_GEOMETRY
 10
-315.392
 11
-314.892
 20
1027.0
 21
1027.0
  0
LINE
  8
APS_GEOMETRY
 10
-314.892
 11
-319.329
 20
1132.0
 21
1127.07
  0
ARC
  8
APS_GEOMETRY
 10
-318.958
 20
1126.735
 40
0.5
 50
138.013
 51
159.274
  0
LINE
  8
APS_GEOMETRY
 10
-319.425
 11
-326.36
 20
1126.912
 21
1108.586
  0
ARC
  8
APS_GEOMETRY
 10
-325.892
 20
1108.409
 40
0.5
 50
159.274
 51
180.0
  0
LINE
  8
APS_GEOMETRY
 10
-326.392
 11
-326.392
 20
1108.409
 21
1104.5
  0
ARC
  8
APS_GEOMETRY
 10
-323.133
 20
1104.5
 40
3.259
 50
180.0
 51
274.242
  0
ARC
  8
APS_GEOMETRY
 10
-322.651
 20
1098.0
 40
3.259
 50
360.0
 51
94.242
  0
LINE
  8
APS_GEOMETRY
 10
-319.392
 11
-319.392
 20
1098.0
 21
1096.325
  0
ARC
  8
APS_GEOMETRY
 10
-318.892
 20
1096.325
 40
0.5
 50
180.0
 51
244.623
  0
ARC
  8
APS_GEOMETRY
 10
-321.892
 20
1090.0
 40
6.5
 50
360.0
 51
64.623
  0
LINE
  8
APS_GEOMETRY
 10
-315.392
 11
-314.892
 20
1090.0
 21
1090.0
  0
LINE
  8
APS_GEOMETRY
 10
-358.892
 11
-354.455
 20
1132.0
 21
1127.07
  0
ARC
  8
APS_GEOMETRY
 10
-354.826
 20
1126.735
 40
0.5
 50
20.726
 51
41.987
  0
LINE
  8
APS_GEOMETRY
 10
-354.359
 11
-347.424
 20
1126.912
 21
1108.586
  0
ARC
  8
APS_GEOMETRY
 10
-347.892
 20
1108.409
 40
0.5
 50
360.0
 51
20.726
  0
LINE
  8
APS_GEOMETRY
 10
-347.392
 11
-347.392
 20
1108.409
 21
1104.5
  0
ARC
  8
APS_GEOMETRY
 10
-350.651
 20
1104.5
 40
3.259
 50
265.758
 51
360.0
  0
ARC
  8
APS_GEOMETRY
 10
-351.133
 20
1098.0
 40
3.259
 50
85.758
 51
180.0
  0
LINE
  8
APS_GEOMETRY
 10
-354.392
 11
-354.392
 20
1098.0
 21
1096.325
  0
ARC
  8
APS_GEOMETRY
 10
-354.892
 20
1096.325
 40
0.5
 50
295.377
 51
360.0
  0
ARC
  8
APS_GEOMETRY
 10
-351.892
 20
1090.0
 40
6.5
 50
115.377
 51
180.0
  0
LINE
  8
APS_GEOMETRY
 10
-358.392
 11
-358.892
 20
1090.0
 21
1090.0
  0
LINE
  8
APS_GEOMETRY
 10
-358.892
 11
-358.892
 20
1027.0
 21
1090.0
  0
LINE
  8
APS_GEOMETRY
 10
-314.892
 11
-314.892
 20
1027.0
 21
1090.0
  0
LINE
  8
APS_GEOMETRY
 10
-358.892
 11
-354.455
 20
1946.0
 21
1950.93
  0
ARC
  8
APS_GEOMETRY
 10
-354.826
 20
1951.265
 40
0.5
 50
318.013
 51
339.274
  0
LINE
  8
APS_GEOMETRY
 10
-354.359
 11
-347.424
 20
1951.088
 21
1969.414
  0
ARC
  8
APS_GEOMETRY
 10
-347.892
 20
1969.591
 40
0.5
 50
339.274
 51
360.0
  0
LINE
  8
APS_GEOMETRY
 10
-347.392
 11
-347.392
 20
1969.591
 21
1973.5
  0
ARC
  8
APS_GEOMETRY
 10
-350.651
 20
1973.5
 40
3.259
 50
360.0
 51
94.242
  0
ARC
  8
APS_GEOMETRY
 10
-351.133
 20
1980.0
 40
3.259
 50
180.0
 51
274.242
  0
LINE
  8
APS_GEOMETRY
 10
-354.392
 11
-354.392
 20
1980.0
 21
1981.675
  0
ARC
  8
APS_GEOMETRY
 10
-354.892
 20
1981.675
 40
0.5
 50
360.0
 51
64.623
  0
ARC
  8
APS_GEOMETRY
 10
-351.892
 20
1988.0
 40
6.5
 50
180.0
 51
244.623
  0
LINE
  8
APS_GEOMETRY
 10
-358.392
 11
-358.892
 20
1988.0
 21
1988.0
  0
LINE
  8
APS_GEOMETRY
 10
-314.892
 11
-319.329
 20
1946.0
 21
1950.93
  0
ARC
  8
APS_GEOMETRY
 10
-318.958
 20
1951.265
 40
0.5
 50
200.726
 51
221.987
  0
LINE
  8
APS_GEOMETRY
 10
-319.425
 11
-326.36
 20
1951.088
 21
1969.414
  0
ARC
  8
APS_GEOMETRY
 10
-325.892
 20
1969.591
 40
0.5
 50
180.0
 51
200.726
  0
LINE
  8
APS_GEOMETRY
 10
-326.392
 11
-326.392
 20
1969.591
 21
1973.5
  0
ARC
  8
APS_GEOMETRY
 10
-323.133
 20
1973.5
 40
3.259
 50
85.758
 51
180.0
  0
ARC
  8
APS_GEOMETRY
 10
-322.651
 20
1980.0
 40
3.259
 50
265.758
 51
0.0
  0
LINE
  8
APS_GEOMETRY
 10
-319.392
 11
-319.392
 20
1980.0
 21
1981.675
  0
ARC
  8
APS_GEOMETRY
 10
-318.892
 20
1981.675
 40
0.5
 50
115.377
 51
180.0
  0
ARC
  8
APS_GEOMETRY
 10
-321.892
 20
1988.0
 40
6.5
 50
295.377
 51
360.0
  0
LINE
  8
APS_GEOMETRY
 10
-315.392
 11
-314.892
 20
1988.0
 21
1988.0
  0
LINE
  8
APS_GEOMETRY
 10
141.5
 11
746.5
 20
775.0
 21
775.0
  0
LINE
  8
APS_GEOMETRY
 10
746.5
 11
746.5
 20
775.0
 21
253.0
  0
LINE
  8
APS_GEOMETRY
 10
746.5
 11
141.5
 20
253.0
 21
253.0
  0
LINE
  8
APS_GEOMETRY
 10
141.5
 11
141.5
 20
253.0
 21
775.0
  0
LINE
  8
APS_GEOMETRY
 10
156.0
 11
732.0
 20
760.5
 21
760.5
  0
LINE
  8
APS_GEOMETRY
 10
732.0
 11
732.0
 20
760.5
 21
267.5
  0
LINE
  8
APS_GEOMETRY
 10
732.0
 11
156.0
 20
267.5
 21
267.5
  0
LINE
  8
APS_GEOMETRY
 10
156.0
 11
156.0
 20
267.5
 21
760.5
  0
LINE
  8
APS_GEOMETRY
 10
183.5
 11
704.5
 20
733.0
 21
733.0
  0
LINE
  8
APS_GEOMETRY
 10
704.5
 11
704.5
 20
733.0
 21
295.0
  0
LINE
  8
APS_GEOMETRY
 10
704.5
 11
183.5
 20
295.0
 21
295.0
  0
LINE
  8
APS_GEOMETRY
 10
183.5
 11
183.5
 20
295.0
 21
733.0
  0
LINE
  8
APS_GEOMETRY
 10
141.5
 11
156.0
 20
775.0
 21
760.5
  0
LINE
  8
APS_GEOMETRY
 10
156.0
 11
183.5
 20
760.5
 21
733.0
  0
LINE
  8
APS_GEOMETRY
 10
704.5
 11
732.0
 20
733.0
 21
760.5
  0
LINE
  8
APS_GEOMETRY
 10
732.0
 11
746.5
 20
760.5
 21
775.0
  0
LINE
  8
APS_GEOMETRY
 10
732.0
 11
746.5
 20
267.5
 21
253.0
  0
LINE
  8
APS_GEOMETRY
 10
704.5
 11
732.0
 20
295.0
 21
267.5
  0
LINE
  8
APS_GEOMETRY
 10
141.5
 11
156.0
 20
253.0
 21
267.5
  0
LINE
  8
APS_GEOMETRY
 10
156.0
 11
183.5
 20
267.5
 21
295.0
  0
LINE
  8
APS_GEOMETRY
 10
141.5
 11
746.5
 20
838.0
 21
838.0
  0
LINE
  8
APS_GEOMETRY
 10
746.5
 11
746.5
 20
838.0
 21
1027.0
  0
LINE
  8
APS_GEOMETRY
 10
746.5
 11
141.5
 20
1027.0
 21
1027.0
  0
LINE
  8
APS_GEOMETRY
 10
141.5
 11
141.5
 20
1027.0
 21
838.0
  0
LINE
  8
APS_GEOMETRY
 10
156.0
 11
732.0
 20
852.5
 21
852.5
  0
LINE
  8
APS_GEOMETRY
 10
732.0
 11
732.0
 20
852.5
 21
1012.5
  0
LINE
  8
APS_GEOMETRY
 10
732.0
 11
156.0
 20
1012.5
 21
1012.5
  0
LINE
  8
APS_GEOMETRY
 10
156.0
 11
156.0
 20
1012.5
 21
852.5
  0
LINE
  8
APS_GEOMETRY
 10
183.5
 11
704.5
 20
880.0
 21
880.0
  0
LINE
  8
APS_GEOMETRY
 10
704.5
 11
704.5
 20
880.0
 21
985.0
  0
LINE
  8
APS_GEOMETRY
 10
704.5
 11
183.5
 20
985.0
 21
985.0
  0
LINE
  8
APS_GEOMETRY
 10
183.5
 11
183.5
 20
985.0
 21
880.0
  0
LINE
  8
APS_GEOMETRY
 10
141.5
 11
156.0
 20
1027.0
 21
1012.5
  0
LINE
  8
APS_GEOMETRY
 10
183.5
 11
156.0
 20
985.0
 21
1012.5
  0
LINE
  8
APS_GEOMETRY
 10
141.5
 11
156.0
 20
838.0
 21
852.5
  0
LINE
  8
APS_GEOMETRY
 10
156.0
 11
183.5
 20
852.5
 21
880.0
  0
LINE
  8
APS_GEOMETRY
 10
746.5
 11
732.0
 20
838.0
 21
852.5
  0
LINE
  8
APS_GEOMETRY
 10
732.0
 11
704.5
 20
852.5
 21
880.0
  0
LINE
  8
APS_GEOMETRY
 10
704.5
 11
732.0
 20
985.0
 21
1012.5
  0
LINE
  8
APS_GEOMETRY
 10
732.0
 11
746.5
 20
1012.5
 21
1027.0
  0
LINE
  8
APS_GEOMETRY
 10
141.5
 11
141.5
 20
1988.0
 21
1090.0
  0
LINE
  8
APS_GEOMETRY
 10
141.5
 11
746.5
 20
1090.0
 21
1090.0
  0
LINE
  8
APS_GEOMETRY
 10
746.5
 11
746.5
 20
1090.0
 21
1988.0
  0
LINE
  8
APS_GEOMETRY
 10
746.5
 11
141.5
 20
1988.0
 21
1988.0
  0
LINE
  8
APS_GEOMETRY
 10
156.0
 11
156.0
 20
1973.5
 21
1104.5
  0
LINE
  8
APS_GEOMETRY
 10
156.0
 11
732.0
 20
1104.5
 21
1104.5
  0
LINE
  8
APS_GEOMETRY
 10
732.0
 11
732.0
 20
1104.5
 21
1973.5
  0
LINE
  8
APS_GEOMETRY
 10
732.0
 11
156.0
 20
1973.5
 21
1973.5
  0
LINE
  8
APS_GEOMETRY
 10
183.5
 11
183.5
 20
1946.0
 21
1132.0
  0
LINE
  8
APS_GEOMETRY
 10
183.5
 11
704.5
 20
1132.0
 21
1132.0
  0
LINE
  8
APS_GEOMETRY
 10
704.5
 11
704.5
 20
1132.0
 21
1946.0
  0
LINE
  8
APS_GEOMETRY
 10
704.5
 11
183.5
 20
1946.0
 21
1946.0
  0
LINE
  8
APS_GEOMETRY
 10
141.5
 11
156.0
 20
1988.0
 21
1973.5
  0
LINE
  8
APS_GEOMETRY
 10
156.0
 11
183.5
 20
1973.5
 21
1946.0
  0
LINE
  8
APS_GEOMETRY
 10
704.5
 11
732.0
 20
1946.0
 21
1973.5
  0
LINE
  8
APS_GEOMETRY
 10
732.0
 11
746.5
 20
1973.5
 21
1988.0
  0
LINE
  8
APS_GEOMETRY
 10
746.5
 11
732.0
 20
1090.0
 21
1104.5
  0
LINE
  8
APS_GEOMETRY
 10
732.0
 11
704.5
 20
1104.5
 21
1132.0
  0
LINE
  8
APS_GEOMETRY
 10
141.5
 11
156.0
 20
1090.0
 21
1104.5
  0
LINE
  8
APS_GEOMETRY
 10
156.0
 11
183.5
 20
1104.5
 21
1132.0
  0
LINE
  8
QUOTATURA
 10
444.0
 11
446.402
 20
0.0
 21
0.0
  0
LINE
  8
QUOTATURA
 10
444.0
 11
446.402
 20
267.5
 21
267.5
  0
LINE
  8
QUOTATURA
 10
446.402
 11
446.402
 20
0.0
 21
110.931
  0
LINE
  8
QUOTATURA
 10
446.402
 11
446.402
 20
156.344
 21
267.5
  0
LINE
  8
QUOTATURA
 10
451.403
 11
446.402
 20
30.0
 21
0.0
  0
LINE
  8
QUOTATURA
 10
446.402
 11
441.401
 20
0.0
 21
30.0
  0
LINE
  8
QUOTATURA
 10
441.401
 11
451.403
 20
30.0
 21
30.0
  0
LINE
  8
QUOTATURA
 10
441.401
 11
446.402
 20
237.5
 21
267.5
  0
LINE
  8
QUOTATURA
 10
446.402
 11
451.403
 20
267.5
 21
237.5
  0
LINE
  8
QUOTATURA
 10
451.403
 11
441.401
 20
237.5
 21
237.5
  0
LINE
  8
QUOTATURA
 10
156.0
 11
82.571
 20
760.5
 21
760.5
  0
LINE
  8
QUOTATURA
 10
156.0
 11
82.571
 20
852.5
 21
852.5
  0
LINE
  8
QUOTATURA
 10
82.571
 11
82.571
 20
760.5
 21
883.851
  0
LINE
  8
QUOTATURA
 10
82.571
 11
82.571
 20
906.723
 21
906.723
  0
LINE
  8
QUOTATURA
 10
77.57
 11
82.571
 20
790.5
 21
760.5
  0
LINE
  8
QUOTATURA
 10
82.571
 11
87.572
 20
760.5
 21
790.5
  0
LINE
  8
QUOTATURA
 10
87.572
 11
77.57
 20
790.5
 21
790.5
  0
LINE
  8
QUOTATURA
 10
87.572
 11
82.571
 20
822.5
 21
852.5
  0
LINE
  8
QUOTATURA
 10
82.571
 11
77.57
 20
852.5
 21
822.5
  0
LINE
  8
QUOTATURA
 10
77.57
 11
87.572
 20
822.5
 21
822.5
  0
LINE
  8
QUOTATURA
 10
444.0
 11
446.034
 20
1973.5
 21
1973.5
  0
LINE
  8
QUOTATURA
 10
444.0
 11
446.034
 20
2110.0
 21
2110.0
  0
LINE
  8
QUOTATURA
 10
446.034
 11
446.034
 20
1973.5
 21
2018.931
  0
LINE
  8
QUOTATURA
 10
446.034
 11
446.034
 20
2064.344
 21
2110.0
  0
LINE
  8
QUOTATURA
 10
451.035
 11
446.034
 20
2003.5
 21
1973.5
  0
LINE
  8
QUOTATURA
 10
446.034
 11
441.033
 20
1973.5
 21
2003.5
  0
LINE
  8
QUOTATURA
 10
441.033
 11
451.035
 20
2003.5
 21
2003.5
  0
LINE
  8
QUOTATURA
 10
441.033
 11
446.034
 20
2080.0
 21
2110.0
  0
LINE
  8
QUOTATURA
 10
446.034
 11
451.035
 20
2110.0
 21
2080.0
  0
LINE
  8
QUOTATURA
 10
451.035
 11
441.033
 20
2080.0
 21
2080.0
  0
LINE
  8
QUOTATURA
 10
156.0
 11
156.0
 20
267.5
 21
-75.565
  0
LINE
  8
QUOTATURA
 10
26.5
 11
26.5
 20
0.0
 21
-75.565
  0
LINE
  8
QUOTATURA
 10
26.5
 11
199.763
 20
-75.565
 21
-75.565
  0
LINE
  8
QUOTATURA
 10
126.0
 11
156.0
 20
-70.564
 21
-75.565
  0
LINE
  8
QUOTATURA
 10
156.0
 11
126.0
 20
-75.565
 21
-80.566
  0
LINE
  8
QUOTATURA
 10
126.0
 11
126.0
 20
-80.566
 21
-70.564
  0
LINE
  8
QUOTATURA
 10
56.5
 11
26.5
 20
-80.566
 21
-75.565
  0
LINE
  8
QUOTATURA
 10
26.5
 11
56.5
 20
-75.565
 21
-70.564
  0
LINE
  8
QUOTATURA
 10
56.5
 11
56.5
 20
-70.564
 21
-80.566
  0
LINE
  8
QUOTATURA
 10
546.696
 11
576.696
 20
-63.275
 21
-68.276
  0
LINE
  8
QUOTATURA
 10
576.696
 11
546.696
 20
-68.276
 21
-73.277
  0
LINE
  8
QUOTATURA
 10
546.696
 11
546.696
 20
-73.277
 21
-63.275
  0
LINE
  8
QUOTATURA
 10
576.696
 11
498.806
 20
-68.276
 21
-68.276
  0
LINE
  8
QUOTATURA
 10
498.806
 11
497.829
 20
-68.276
 21
0.0
  0
LINE
  8
QUOTATURA
 10
1094.017
 11
1089.016
 20
1292.357
 21
1262.357
  0
LINE
  8
QUOTATURA
 10
1089.016
 11
1084.015
 20
1262.357
 21
1292.357
  0
LINE
  8
QUOTATURA
 10
1084.015
 11
1094.017
 20
1292.357
 21
1292.357
  0
LINE
  8
QUOTATURA
 10
1089.016
 11
1089.016
 20
1262.357
 21
1376.604
  0
LINE
  8
QUOTATURA
 10
1089.016
 11
951.92
 20
1376.604
 21
1376.604
  0
CIRCLE
  8
QUOTATURA
 10
2257.901
 20
585.999
 40
888.206
  0
LINE
  8
QUOTATURA
 10
954.797
 11
1512.221
 20
-257.306
 21
103.432
  0
CIRCLE
  8
QUOTATURA
 10
805.661
 20
-353.819
 40
177.641
  0
LINE
  8
COSTRUZIONI
 10
2540.597
 11
2502.097
 20
711.596
 21
711.596
  0
ARC
  8
COSTRUZIONI
 10
2477.097
 20
651.596
 40
65.0
 50
67.38
 51
112.62
  0
LINE
  8
COSTRUZIONI
 10
2452.097
 11
2452.097
 20
711.596
 21
694.096
  0
LINE
  8
COSTRUZIONI
 10
2452.097
 11
2540.597
 20
694.096
 21
694.096
  0
LINE
  8
COSTRUZIONI
 10
2540.597
 11
2540.597
 20
694.096
 21
711.596
  0
LINE
  8
COSTRUZIONI
 10
2539.713
 11
2540.597
 20
694.096
 21
694.98
  0
LINE
  8
COSTRUZIONI
 10
2540.597
 11
2537.061
 20
697.632
 21
694.096
  0
LINE
  8
COSTRUZIONI
 10
2536.177
 11
2540.597
 20
694.096
 21
698.516
  0
LINE
  8
COSTRUZIONI
 10
2540.597
 11
2533.526
 20
701.168
 21
694.096
  0
LINE
  8
COSTRUZIONI
 10
2532.642
 11
2540.597
 20
694.096
 21
702.051
  0
LINE
  8
COSTRUZIONI
 10
2540.597
 11
2529.99
 20
704.703
 21
694.096
  0
LINE
  8
COSTRUZIONI
 10
2529.106
 11
2540.597
 20
694.096
 21
705.587
  0
LINE
  8
COSTRUZIONI
 10
2540.597
 11
2526.455
 20
708.239
 21
694.096
  0
LINE
  8
COSTRUZIONI
 10
2525.571
 11
2540.597
 20
694.096
 21
709.122
  0
LINE
  8
COSTRUZIONI
 10
2540.419
 11
2522.919
 20
711.596
 21
694.096
  0
LINE
  8
COSTRUZIONI
 10
2522.035
 11
2539.535
 20
694.096
 21
711.596
  0
LINE
  8
COSTRUZIONI
 10
2536.883
 11
2519.383
 20
711.596
 21
694.096
  0
LINE
  8
COSTRUZIONI
 10
2518.5
 11
2536.0
 20
694.096
 21
711.596
  0
LINE
  8
COSTRUZIONI
 10
2533.348
 11
2515.848
 20
711.596
 21
694.096
  0
LINE
  8
COSTRUZIONI
 10
2514.964
 11
2532.464
 20
694.096
 21
711.596
  0
LINE
  8
COSTRUZIONI
 10
2529.812
 11
2512.312
 20
711.596
 21
694.096
  0
LINE
  8
COSTRUZIONI
 10
2511.428
 11
2528.928
 20
694.096
 21
711.596
  0
LINE
  8
COSTRUZIONI
 10
2526.277
 11
2508.777
 20
711.596
 21
694.096
  0
LINE
  8
COSTRUZIONI
 10
2507.893
 11
2525.393
 20
694.096
 21
711.596
  0
LINE
  8
COSTRUZIONI
 10
2522.741
 11
2505.241
 20
711.596
 21
694.096
  0
LINE
  8
COSTRUZIONI
 10
2504.357
 11
2521.857
 20
694.096
 21
711.596
  0
LINE
  8
COSTRUZIONI
 10
2519.206
 11
2501.706
 20
711.596
 21
694.096
  0
LINE
  8
COSTRUZIONI
 10
2500.822
 11
2518.322
 20
694.096
 21
711.596
  0
LINE
  8
COSTRUZIONI
 10
2515.67
 11
2498.17
 20
711.596
 21
694.096
  0
LINE
  8
COSTRUZIONI
 10
2497.286
 11
2514.786
 20
694.096
 21
711.596
  0
LINE
  8
COSTRUZIONI
 10
2512.135
 11
2494.635
 20
711.596
 21
694.096
  0
LINE
  8
COSTRUZIONI
 10
2493.751
 11
2511.251
 20
694.096
 21
711.596
  0
LINE
  8
COSTRUZIONI
 10
2508.599
 11
2491.099
 20
711.596
 21
694.096
  0
LINE
  8
COSTRUZIONI
 10
2490.215
 11
2507.715
 20
694.096
 21
711.596
  0
LINE
  8
COSTRUZIONI
 10
2505.064
 11
2487.564
 20
711.596
 21
694.096
  0
LINE
  8
COSTRUZIONI
 10
2486.68
 11
2504.18
 20
694.096
 21
711.596
  0
LINE
  8
COSTRUZIONI
 10
2501.694
 11
2484.028
 20
711.763
 21
694.096
  0
LINE
  8
COSTRUZIONI
 10
2483.144
 11
2501.064
 20
694.096
 21
712.016
  0
LINE
  8
COSTRUZIONI
 10
2499.14
 11
2480.493
 20
712.744
 21
694.096
  0
LINE
  8
COSTRUZIONI
 10
2479.609
 11
2498.488
 20
694.096
 21
712.976
  0
LINE
  8
COSTRUZIONI
 10
2496.495
 11
2476.957
 20
713.634
 21
694.096
  0
LINE
  8
COSTRUZIONI
 10
2476.073
 11
2495.819
 20
694.096
 21
713.842
  0
LINE
  8
COSTRUZIONI
 10
2493.752
 11
2473.422
 20
714.427
 21
694.096
  0
LINE
  8
COSTRUZIONI
 10
2472.538
 11
2493.05
 20
694.096
 21
714.608
  0
LINE
  8
COSTRUZIONI
 10
2490.903
 11
2469.886
 20
715.113
 21
694.096
  0
LINE
  8
COSTRUZIONI
 10
2469.002
 11
2490.173
 20
694.096
 21
715.268
  0
LINE
  8
COSTRUZIONI
 10
2487.94
 11
2466.35
 20
715.686
 21
694.096
  0
LINE
  8
COSTRUZIONI
 10
2465.467
 11
2487.18
 20
694.096
 21
715.81
  0
LINE
  8
COSTRUZIONI
 10
2484.851
 11
2462.815
 20
716.132
 21
694.096
  0
LINE
  8
COSTRUZIONI
 10
2461.931
 11
2484.057
 20
694.096
 21
716.223
  0
LINE
  8
COSTRUZIONI
 10
2481.622
 11
2459.279
 20
716.439
 21
694.096
  0
LINE
  8
COSTRUZIONI
 10
2458.395
 11
2480.79
 20
694.096
 21
716.491
  0
LINE
  8
COSTRUZIONI
 10
2478.234
 11
2455.744
 20
716.587
 21
694.096
  0
LINE
  8
COSTRUZIONI
 10
2454.86
 11
2477.359
 20
694.096
 21
716.596
  0
LINE
  8
COSTRUZIONI
 10
2474.663
 11
2452.208
 20
716.551
 21
694.096
  0
LINE
  8
COSTRUZIONI
 10
2452.097
 11
2473.738
 20
694.869
 21
716.51
  0
LINE
  8
COSTRUZIONI
 10
2470.874
 11
2452.097
 20
716.298
 21
697.52
  0
LINE
  8
COSTRUZIONI
 10
2452.097
 11
2469.888
 20
698.404
 21
716.196
  0
LINE
  8
COSTRUZIONI
 10
2466.82
 11
2452.097
 20
715.779
 21
701.056
  0
LINE
  8
COSTRUZIONI
 10
2452.097
 11
2465.756
 20
701.94
 21
715.6
  0
LINE
  8
COSTRUZIONI
 10
2462.424
 11
2452.097
 20
714.919
 21
704.591
  0
LINE
  8
COSTRUZIONI
 10
2452.097
 11
2461.259
 20
705.475
 21
714.637
  0
LINE
  8
COSTRUZIONI
 10
2457.561
 11
2452.097
 20
713.591
 21
708.127
  0
LINE
  8
COSTRUZIONI
 10
2452.097
 11
2456.248
 20
709.011
 21
713.162
  0
ARC
  8
APS_GEOMETRY
 10
2454.597
 20
689.096
 40
5.0
 50
90.0
 51
180.0
  0
LINE
  8
APS_GEOMETRY
 10
2669.597
 11
2669.597
 20
620.117
 21
265.096
  0
LINE
  8
APS_GEOMETRY
 10
2669.597
 11
2636.096
 20
265.096
 21
265.096
  0
LINE
  8
APS_GEOMETRY
 10
2636.096
 11
2636.096
 20
265.096
 21
335.096
  0
LINE
  8
APS_GEOMETRY
 10
2636.096
 11
2614.596
 20
335.096
 21
335.096
  0
LINE
  8
APS_GEOMETRY
 10
2614.596
 11
2614.596
 20
335.096
 21
265.096
  0
LINE
  8
APS_GEOMETRY
 10
2614.596
 11
2459.597
 20
265.096
 21
265.096
  0
ARC
  8
APS_GEOMETRY
 10
2459.597
 20
275.096
 40
10.0
 50
180.0
 51
270.0
  0
LINE
  8
APS_GEOMETRY
 10
2449.597
 11
2449.597
 20
275.096
 21
689.096
  0
LINE
  8
APS_GEOMETRY
 10
2502.097
 11
2502.097
 20
711.596
 21
845.096
  0
ARC
  8
APS_GEOMETRY
 10
2512.097
 20
845.096
 40
10.0
 50
90.0
 51
180.0
  0
LINE
  8
APS_GEOMETRY
 10
2512.097
 11
2627.097
 20
855.096
 21
855.096
  0
LINE
  8
APS_GEOMETRY
 10
2627.097
 11
2627.097
 20
855.096
 21
785.096
  0
LINE
  8
APS_GEOMETRY
 10
2627.097
 11
2648.597
 20
785.096
 21
785.096
  0
LINE
  8
APS_GEOMETRY
 10
2648.597
 11
2648.597
 20
785.096
 21
855.096
  0
LINE
  8
APS_GEOMETRY
 10
2648.597
 11
2669.597
 20
855.096
 21
855.096
  0
LINE
  8
APS_GEOMETRY
 10
2669.597
 11
2669.597
 20
855.096
 21
265.096
  0
LINE
  8
COSTRUZIONI
 10
2677.097
 11
2677.097
 20
855.096
 21
265.096
  0
LINE
  8
COSTRUZIONI
 10
2777.097
 11
2777.097
 20
855.096
 21
265.096
  0
LINE
  8
COSTRUZIONI
 10
2677.097
 11
3104.362
 20
855.096
 21
855.096
  0
LINE
  8
COSTRUZIONI
 10
2677.097
 11
3086.111
 20
265.096
 21
265.096
  0
LINE
  8
COSTRUZIONI
 10
2777.097
 11
2677.097
 20
265.096
 21
855.096
  0
LINE
  8
COSTRUZIONI
 10
2777.097
 11
2677.097
 20
855.096
 21
265.096
  0
LINE
  8
APS_GEOMETRY
 10
2942.097
 11
2669.597
 20
870.096
 21
870.096
  0
LINE
  8
APS_GEOMETRY
 10
2669.597
 11
2669.597
 20
870.096
 21
855.096
  0
LINE
  8
APS_GEOMETRY
 10
2669.597
 11
2647.097
 20
855.096
 21
855.096
  0
LINE
  8
APS_GEOMETRY
 10
2647.097
 11
2647.097
 20
855.096
 21
802.596
  0
LINE
  8
APS_GEOMETRY
 10
2647.097
 11
2639.597
 20
802.596
 21
795.096
  0
LINE
  8
APS_GEOMETRY
 10
2639.597
 11
2627.097
 20
795.096
 21
795.096
  0
LINE
  8
APS_GEOMETRY
 10
2627.097
 11
2627.097
 20
795.096
 21
885.096
  0
ARC
  8
APS_GEOMETRY
 10
2647.097
 20
885.096
 40
20.0
 50
90.0
 51
180.0
  0
LINE
  8
APS_GEOMETRY
 10
2647.097
 11
2952.097
 20
905.096
 21
905.096
  0
ARC
  8
APS_GEOMETRY
 10
2952.097
 20
885.096
 40
20.0
 50
360.0
 51
90.0
  0
LINE
  8
APS_GEOMETRY
 10
2972.097
 11
2972.097
 20
885.096
 21
855.096
  0
LINE
  8
APS_GEOMETRY
 10
2972.097
 11
2942.097
 20
855.096
 21
855.096
  0
LINE
  8
APS_GEOMETRY
 10
2942.097
 11
2942.097
 20
855.096
 21
870.096
  0
LINE
  8
APS_GEOMETRY
 10
2929.596
 11
2657.096
 20
250.096
 21
250.096
  0
LINE
  8
APS_GEOMETRY
 10
2657.096
 11
2657.096
 20
250.096
 21
265.096
  0
LINE
  8
APS_GEOMETRY
 10
2657.096
 11
2634.596
 20
265.096
 21
265.096
  0
LINE
  8
APS_GEOMETRY
 10
2634.596
 11
2634.596
 20
265.096
 21
317.596
  0
LINE
  8
APS_GEOMETRY
 10
2634.596
 11
2627.096
 20
317.596
 21
325.096
  0
LINE
  8
APS_GEOMETRY
 10
2627.096
 11
2614.596
 20
325.096
 21
325.096
  0
LINE
  8
APS_GEOMETRY
 10
2614.596
 11
2614.596
 20
325.096
 21
235.096
  0
ARC
  8
APS_GEOMETRY
 10
2634.596
 20
235.096
 40
20.0
 50
180.0
 51
270.0
  0
LINE
  8
APS_GEOMETRY
 10
2634.596
 11
2939.596
 20
215.096
 21
215.096
  0
ARC
  8
APS_GEOMETRY
 10
2939.596
 20
235.096
 40
20.0
 50
270.0
 51
0.0
  0
LINE
  8
APS_GEOMETRY
 10
2959.596
 11
2959.596
 20
235.096
 21
265.096
  0
LINE
  8
APS_GEOMETRY
 10
2959.596
 11
2929.596
 20
265.096
 21
265.096
  0
LINE
  8
APS_GEOMETRY
 10
2929.596
 11
2929.596
 20
265.096
 21
250.096
  0
LINE
  8
APS_GEOMETRY
 10
1439.056
 11
1752.097
 20
930.097
 21
930.097
  0
LINE
  8
APS_GEOMETRY
 10
1962.097
 11
2482.097
 20
710.097
 21
710.097
  0
ARC
  8
APS_GEOMETRY
 10
2482.097
 20
715.097
 40
5.0
 50
270.0
 51
0.0
  0
LINE
  8
APS_GEOMETRY
 10
2487.097
 11
2487.097
 20
715.097
 21
855.097
  0
LINE
  8
APS_GEOMETRY
 10
2487.097
 11
2527.097
 20
855.097
 21
855.097
  0
ARC
  8
APS_GEOMETRY
 10
2527.097
 20
865.097
 40
10.0
 50
270.0
 51
0.0
  0
LINE
  8
APS_GEOMETRY
 10
2537.097
 11
2537.097
 20
865.097
 21
925.097
  0
ARC
  8
APS_GEOMETRY
 10
2532.097
 20
925.097
 40
5.0
 50
0.0
 51
90.0
  0
LINE
  8
APS_GEOMETRY
 10
2532.097
 11
1962.097
 20
930.097
 21
930.097
  0
LINE
  8
APS_GEOMETRY
 10
1378.407
 11
1752.097
 20
710.097
 21
710.097
  0
LINE
  8
APS_GEOMETRY
 10
1752.097
 11
1776.748
 20
710.097
 21
732.283
  0
ARC
  8
APS_GEOMETRY
 10
1778.42
 20
730.425
 40
2.5
 50
110.726
 51
131.987
  0
LINE
  8
APS_GEOMETRY
 10
1777.536
 11
1869.169
 20
732.763
 21
767.435
  0
ARC
  8
APS_GEOMETRY
 10
1870.054
 20
765.097
 40
2.5
 50
90.0
 51
110.726
  0
LINE
  8
APS_GEOMETRY
 10
1870.054
 11
1889.597
 20
767.597
 21
767.597
  0
ARC
  8
APS_GEOMETRY
 10
1889.597
 20
751.302
 40
16.295
 50
355.758
 51
90.0
  0
ARC
  8
APS_GEOMETRY
 10
1922.097
 20
748.892
 40
16.295
 50
175.758
 51
270.0
  0
LINE
  8
APS_GEOMETRY
 10
1922.097
 11
1930.474
 20
732.597
 21
732.597
  0
ARC
  8
APS_GEOMETRY
 10
1930.474
 20
730.097
 40
2.5
 50
25.377
 51
90.0
  0
ARC
  8
APS_GEOMETRY
 10
1962.097
 20
745.097
 40
32.5
 50
205.377
 51
270.0
  0
LINE
  8
APS_GEOMETRY
 10
1962.097
 11
1962.097
 20
712.597
 21
710.097
  0
LINE
  8
APS_GEOMETRY
 10
1752.097
 11
1776.748
 20
930.097
 21
907.911
  0
ARC
  8
APS_GEOMETRY
 10
1778.42
 20
909.769
 40
2.5
 50
228.013
 51
249.274
  0
LINE
  8
APS_GEOMETRY
 10
1777.536
 11
1869.169
 20
907.431
 21
872.759
  0
ARC
  8
APS_GEOMETRY
 10
1870.054
 20
875.097
 40
2.5
 50
249.274
 51
270.0
  0
LINE
  8
APS_GEOMETRY
 10
1870.054
 11
1889.597
 20
872.597
 21
872.597
  0
ARC
  8
APS_GEOMETRY
 10
1889.597
 20
888.892
 40
16.295
 50
270.0
 51
4.242
  0
ARC
  8
APS_GEOMETRY
 10
1922.097
 20
891.302
 40
16.295
 50
90.0
 51
184.242
  0
LINE
  8
APS_GEOMETRY
 10
1922.097
 11
1930.474
 20
907.597
 21
907.597
  0
ARC
  8
APS_GEOMETRY
 10
1930.474
 20
910.097
 40
2.5
 50
270.0
 51
334.623
  0
ARC
  8
APS_GEOMETRY
 10
1962.097
 20
895.097
 40
32.5
 50
90.0
 51
154.623
  0
LINE
  8
APS_GEOMETRY
 10
1962.097
 11
1962.097
 20
927.597
 21
930.097
  0
ARC
  8
QUOTATURA
 10
2160.086
 20
-329.007
 40
12.331
 50
42.904
 51
122.546
  0
ARC
  8
QUOTATURA
 10
2156.921
 20
-323.892
 40
6.317
 50
123.307
 51
253.426
  0
LINE
  8
QUOTATURA
 10
2155.119
 11
2165.119
 20
-329.946
 21
-333.279
  0
ARC
  8
QUOTATURA
 10
2163.083
 20
-339.738
 40
6.772
 50
299.838
 51
72.504
  0
ARC
  8
QUOTATURA
 10
2159.953
 20
-334.343
 40
13.01
 50
240.023
 51
299.974
  0
ARC
  8
QUOTATURA
 10
2157.009
 20
-339.388
 40
7.17
 50
209.759
 51
240.255
  0
ARC
  8
QUOTATURA
 10
2180.719
 20
-332.185
 40
18.236
 50
31.027
 51
40.045
  0
ARC
  8
QUOTATURA
 10
2187.012
 20
-326.592
 40
9.822
 50
38.687
 51
141.312
  0
ARC
  8
QUOTATURA
 10
2193.536
 20
-331.952
 40
18.265
 50
140.979
 51
219.022
  0
ARC
  8
QUOTATURA
 10
2187.013
 20
-337.313
 40
9.822
 50
218.688
 51
321.313
  0
ARC
  8
QUOTATURA
 10
2180.606
 20
-332.741
 40
17.685
 50
322.727
 51
335.346
  0
LINE
  8
QUOTATURA
 10
2206.581
 11
2224.914
 20
-338.146
 21
-338.146
  0
LINE
  8
QUOTATURA
 10
2202.914
 11
2214.581
 20
-347.207
 21
-317.207
  0
LINE
  8
QUOTATURA
 10
2214.581
 11
2217.247
 20
-317.207
 21
-317.207
  0
LINE
  8
QUOTATURA
 10
2217.247
 11
2228.247
 20
-317.207
 21
-347.207
  0
LINE
  8
QUOTATURA
 10
2234.247
 11
2234.247
 20
-317.207
 21
-347.207
  0
LINE
  8
QUOTATURA
 10
2234.247
 11
2254.247
 20
-347.207
 21
-347.207
  0
LINE
  8
QUOTATURA
 10
2263.914
 11
2282.247
 20
-338.146
 21
-338.146
  0
LINE
  8
QUOTATURA
 10
2260.247
 11
2271.914
 20
-347.207
 21
-317.207
  0
LINE
  8
QUOTATURA
 10
2271.914
 11
2274.581
 20
-317.207
 21
-317.207
  0
LINE
  8
QUOTATURA
 10
2274.581
 11
2285.581
 20
-317.207
 21
-347.207
  0
ARC
  8
QUOTATURA
 10
2330.509
 20
-336.204
 40
11.194
 50
202.727
 51
247.273
  0
ARC
  8
QUOTATURA
 10
2330.684
 20
-335.999
 40
11.451
 50
246.86
 51
293.141
  0
ARC
  8
QUOTATURA
 10
2330.927
 20
-336.461
 40
10.932
 50
292.922
 51
357.893
  0
ARC
  8
QUOTATURA
 10
2332.009
 20
-336.518
 40
9.848
 50
357.993
 51
71.191
  0
ARC
  8
QUOTATURA
 10
2330.684
 20
-340.431
 40
13.979
 50
71.219
 51
108.775
  0
ARC
  8
QUOTATURA
 10
2329.799
 20
-338.033
 40
11.424
 50
108.444
 51
138.941
  0
LINE
  8
QUOTATURA
 10
2321.184
 11
2323.518
 20
-330.529
 21
-317.196
  0
LINE
  8
QUOTATURA
 10
2323.518
 11
2338.518
 20
-317.196
 21
-317.196
  0
LINE
  8
QUOTATURA
 10
2349.253
 11
2347.753
 20
-332.826
 21
-332.826
  0
LINE
  8
QUOTATURA
 10
2347.753
 11
2347.753
 20
-332.826
 21
-331.326
  0
LINE
  8
QUOTATURA
 10
2347.753
 11
2349.253
 20
-331.326
 21
-331.326
  0
LINE
  8
QUOTATURA
 10
2349.253
 11
2349.253
 20
-331.326
 21
-332.826
  0
LINE
  8
QUOTATURA
 10
2349.253
 11
2347.753
 20
-340.269
 21
-340.269
  0
LINE
  8
QUOTATURA
 10
2347.753
 11
2347.753
 20
-340.269
 21
-338.769
  0
LINE
  8
QUOTATURA
 10
2347.753
 11
2349.253
 20
-338.769
 21
-338.769
  0
LINE
  8
QUOTATURA
 10
2349.253
 11
2349.253
 20
-338.769
 21
-340.269
  0
LINE
  8
QUOTATURA
 10
2355.253
 11
2360.4
 20
-347.207
 21
-347.207
  0
LINE
  8
QUOTATURA
 10
2360.4
 11
2365.547
 20
-347.207
 21
-347.207
  0
LINE
  8
QUOTATURA
 10
2360.4
 11
2360.4
 20
-347.207
 21
-317.207
  0
LINE
  8
QUOTATURA
 10
2360.4
 11
2355.253
 20
-317.207
 21
-322.354
  0
LINE
  8
QUOTATURA
 10
746.5
 11
1089.938
 20
838.0
 21
838.0
  0
LINE
  8
QUOTATURA
 10
1089.938
 11
1089.938
 20
0.0
 21
396.215
  0
LINE
  8
QUOTATURA
 10
1089.938
 11
1089.938
 20
441.594
 21
838.0
  0
LINE
  8
QUOTATURA
 10
1094.939
 11
1089.938
 20
30.0
 21
0.0
  0
LINE
  8
QUOTATURA
 10
1089.938
 11
1084.937
 20
0.0
 21
30.0
  0
LINE
  8
QUOTATURA
 10
1084.937
 11
1094.939
 20
30.0
 21
30.0
  0
LINE
  8
QUOTATURA
 10
1084.937
 11
1089.938
 20
808.0
 21
838.0
  0
LINE
  8
QUOTATURA
 10
1089.938
 11
1094.939
 20
838.0
 21
808.0
  0
LINE
  8
QUOTATURA
 10
1094.939
 11
1084.937
 20
808.0
 21
808.0
  0
LINE
  8
QUOTATURA
 10
861.5
 11
1202.08
 20
0.0
 21
0.0
  0
LINE
  8
QUOTATURA
 10
746.5
 11
1202.08
 20
1090.0
 21
1090.0
  0
LINE
  8
QUOTATURA
 10
1202.08
 11
1202.08
 20
0.0
 21
698.604
  0
LINE
  8
QUOTATURA
 10
1202.08
 11
1202.08
 20
743.977
 21
1090.0
  0
LINE
  8
QUOTATURA
 10
1207.081
 11
1202.08
 20
30.0
 21
0.0
  0
LINE
  8
QUOTATURA
 10
1202.08
 11
1197.079
 20
0.0
 21
30.0
  0
LINE
  8
QUOTATURA
 10
1197.079
 11
1207.081
 20
30.0
 21
30.0
  0
LINE
  8
QUOTATURA
 10
1197.079
 11
1202.08
 20
1060.0
 21
1090.0
  0
LINE
  8
QUOTATURA
 10
1202.08
 11
1207.081
 20
1090.0
 21
1060.0
  0
LINE
  8
QUOTATURA
 10
1207.081
 11
1197.079
 20
1060.0
 21
1060.0
  0
LINE
  8
QUOTATURA
 10
1962.097
 11
1879.825
 20
710.097
 21
710.097
  0
LINE
  8
QUOTATURA
 10
1879.825
 11
1879.825
 20
710.097
 21
651.331
  0
LINE
  8
QUOTATURA
 10
1879.825
 11
1857.513
 20
651.331
 21
651.331
  0
LINE
  8
QUOTATURA
 10
1876.491
 11
1879.825
 20
690.097
 21
710.097
  0
LINE
  8
QUOTATURA
 10
1879.825
 11
1883.159
 20
710.097
 21
690.097
  0
LINE
  8
QUOTATURA
 10
1883.159
 11
1876.491
 20
690.097
 21
690.097
  0
LINE
  8
QUOTATURA
 10
1879.825
 11
1879.825
 20
767.597
 21
807.597
  0
LINE
  8
QUOTATURA
 10
1883.159
 11
1879.825
 20
787.597
 21
767.597
  0
LINE
  8
QUOTATURA
 10
1879.825
 11
1876.491
 20
767.597
 21
787.597
  0
LINE
  8
QUOTATURA
 10
1876.491
 11
1883.159
 20
787.597
 21
787.597
  0
LINE
  8
QUOTATURA
 10
1752.097
 11
1752.097
 20
710.097
 21
590.529
  0
LINE
  8
QUOTATURA
 10
1962.097
 11
1962.097
 20
710.097
 21
590.529
  0
LINE
  8
QUOTATURA
 10
1752.097
 11
1824.545
 20
590.529
 21
590.529
  0
LINE
  8
QUOTATURA
 10
1889.648
 11
1962.097
 20
590.529
 21
590.529
  0
LINE
  8
QUOTATURA
 10
1782.097
 11
1752.097
 20
585.528
 21
590.529
  0
LINE
  8
QUOTATURA
 10
1752.097
 11
1782.097
 20
590.529
 21
595.53
  0
LINE
  8
QUOTATURA
 10
1782.097
 11
1782.097
 20
595.53
 21
585.528
  0
LINE
  8
QUOTATURA
 10
1932.097
 11
1962.097
 20
595.53
 21
590.529
  0
LINE
  8
QUOTATURA
 10
1962.097
 11
1932.097
 20
590.529
 21
585.528
  0
LINE
  8
QUOTATURA
 10
1932.097
 11
1932.097
 20
585.528
 21
595.53
  0
LINE
  8
QUOTATURA
 10
1889.597
 11
1889.597
 20
872.597
 21
1097.481
  0
LINE
  8
QUOTATURA
 10
2537.097
 11
2537.097
 20
925.097
 21
1097.481
  0
LINE
  8
QUOTATURA
 10
1889.597
 11
2154.222
 20
1097.481
 21
1097.481
  0
LINE
  8
QUOTATURA
 10
2272.472
 11
2537.097
 20
1097.481
 21
1097.481
  0
LINE
  8
QUOTATURA
 10
1919.597
 11
1889.597
 20
1092.48
 21
1097.481
  0
LINE
  8
QUOTATURA
 10
1889.597
 11
1919.597
 20
1097.481
 21
1102.482
  0
LINE
  8
QUOTATURA
 10
1919.597
 11
1919.597
 20
1102.482
 21
1092.48
  0
LINE
  8
QUOTATURA
 10
2507.097
 11
2537.097
 20
1102.482
 21
1097.481
  0
LINE
  8
QUOTATURA
 10
2537.097
 11
2507.097
 20
1097.481
 21
1092.48
  0
LINE
  8
QUOTATURA
 10
2507.097
 11
2507.097
 20
1092.48
 21
1102.482
  0
TEXT
  8
QUOTATURA
 10
254.647
 20
-573.115
 30
0.0
 40
30.0
 50
0.0
  1
EST. TELAIO=888
  0
TEXT
  8
QUOTATURA
 10
256.653
 20
-500.989
 30
0.0
 40
30.0
 50
0.0
  1
LUCE NETTA=800
  0
TEXT
  8
QUOTATURA
 10
-181.315
 20
945.911
 30
0.0
 40
30.0
 50
90.0
  1
ANTA=2110
  0
TEXT
  8
QUOTATURA
 10
-488.611
 20
844.468
 30
0.0
 40
30.0
 50
90.0
  1
LUCE NETTA=2097
  0
TEXT
  8
QUOTATURA
 10
-589.936
 20
873.52
 30
0.0
 40
30.0
 50
90.0
  1
EST. TELAIO=2141
  0
TEXT
  8
QUOTATURA
 10
514.367
 20
-422.664
 30
0.0
 40
30.0
 50
0.0
  1
44
  0
TEXT
  8
TEXT
 10
719.594
 20
-434.407
 30
0.0
 40
50.0
 50
0.0
  1
D1
  0
TEXT
  8
TEXT
 10
1159.319
 20
-744.741
 30
0.0
 40
20.0
 50
0.0
  1
B.Stefano
  0
TEXT
  8
TEXT
 10
-277.879
 20
-621.975
 30
0.0
 40
15.0
 50
0.0
  1
file:
  0
TEXT
  8
TEXT
 10
1059.34
 20
-622.284
 30
0.0
 40
15.0
 50
0.0
  1
data:
  0
TEXT
  8
TEXT
 10
1172.876
 20
-642.084
 30
0.0
 40
20.0
 50
0.0
  1
22/03/16
  0
TEXT
  8
TEXT
 10
1173.895
 20
-798.558
 30
0.0
 40
20.0
 50
0.0
  1
1 : 10(A1)
  0
TEXT
  8
TEXT
 10
1057.476
 20
-719.899
 30
0.0
 40
15.0
 50
0.0
  1
responsabile tecnico:
  0
TEXT
  8
TEXT
 10
1059.531
 20
-772.282
 30
0.0
 40
15.0
 50
0.0
  1
scala:
  0
TEXT
  8
TEXT
 10
-739.917
 20
-622.572
 30
0.0
 40
15.0
 50
0.0
  1
Ufficio tecnico:
  0
TEXT
  8
TEXT
 10
-740.916
 20
-695.293
 30
0.0
 40
20.0
 50
0.0
  1
tel. 0577-68.54.26
  0
TEXT
  8
TEXT
 10
-740.916
 20
-725.293
 30
0.0
 40
20.0
 50
0.0
  1
fax 0577-68.64.29
  0
TEXT
  8
TEXT
 10
-740.916
 20
-755.293
 30
0.0
 40
20.0
 50
0.0
  1
e-mail: tecnico@toscocornici.it
  0
TEXT
  8
TEXT
 10
-740.916
 20
-785.293
 30
0.0
 40
20.0
 50
0.0
  1
web: www.tosococornici.it
  0
TEXT
  8
TEXT
 10
-231.034
 20
-642.557
 30
0.0
 40
20.0
 50
0.0
  1
TLS5
  0
TEXT
  8
TEXT
 10
-277.879
 20
-671.975
 30
0.0
 40
15.0
 50
0.0
  1
pezzo:
  0
TEXT
  8
TEXT
 10
-231.034
 20
-692.557
 30
0.0
 40
20.0
 50
0.0
  1
MOD. BOSTON
  0
TEXT
  8
TEXT
 10
-277.879
 20
-721.975
 30
0.0
 40
20.0
 50
0.0
  1
firma per accettazione / must sign in acceptance
  0
TEXT
  8
TEXT
 10
256.27
 20
-671.975
 30
0.0
 40
15.0
 50
0.0
  1
lotto:
  0
TEXT
  8
TEXT
 10
304.32
 20
-692.557
 30
0.0
 40
20.0
 50
0.0
  1
________
  0
TEXT
  8
TEXT
 10
756.27
 20
-671.975
 30
0.0
 40
15.0
 50
0.0
  1
ordine:
  0
TEXT
  8
TEXT
 10
810.359
 20
-692.557
 30
0.0
 40
20.0
 50
0.0
  1
______
  0
TEXT
  8
TEXT
 10
1057.378
 20
-671.975
 30
0.0
 40
15.0
 50
0.0
  1
pos:
  0
TEXT
  8
TEXT
 10
1101.792
 20
-692.557
 30
0.0
 40
20.0
 50
0.0
  1
_______
  0
TEXT
  8
TEXT
 10
-247.184
 20
-793.036
 30
0.0
 40
20.0
 50
0.0
  1
__________________________________________________________________
  0
TEXT
  8
QUOTATURA
 10
192.703
 20
-248.191
 30
0.0
 40
30.0
 50
0.0
  1
ANTA=835
  0
TEXT
  8
TEXT
 10
1895.66
 20
-3.823
 30
0.0
 40
200.0
 50
0.0
  1
D1
  0
TEXT
  8
QUOTATURA
 10
2530.699
 20
114.344
 30
0.0
 40
30.0
 50
0.0
  1
44
  0
TEXT
  8
QUOTATURA
 10
2087.703
 20
805.097
 30
0.0
 40
30.0
 50
0.0
  1
44
  0
TEXT
  8
QUOTATURA
 10
2553.423
 20
767.597
 30
0.0
 40
30.0
 50
0.0
  1
29
  0
TEXT
  8
QUOTATURA
 10
2631.684
 20
971.514
 30
0.0
 40
30.0
 50
0.0
  1
10
  0
TEXT
  8
QUOTATURA
 10
1566.679
 20
805.097
 30
0.0
 40
30.0
 50
0.0
  1
44
  0
TEXT
  8
QUOTATURA
 10
389.09
 20
118.75
 30
0.0
 40
30.0
 50
0.0
  1
267.5
  0
TEXT
  8
QUOTATURA
 10
58.933
 20
891.723
 30
0.0
 40
30.0
 50
0.0
  1
92
  0
TEXT
  8
QUOTATURA
 10
393.625
 20
2026.75
 30
0.0
 40
30.0
 50
0.0
  1
136.5
  0
TEXT
  8
QUOTATURA
 10
207.263
 20
-90.565
 30
0.0
 40
30.0
 50
0.0
  1
129.5
  0
TEXT
  8
TEXT
 10
463.019
 20
-118.799
 30
0.0
 40
30.0
 50
0.0
  1
SEZ.A
  0
TEXT
  8
TEXT
 10
-184.225
 20
1239.629
 30
0.0
 40
30.0
 50
0.0
  1
SEZ.A
  0
TEXT
  8
TEXT
 10
186.104
 20
-389.799
 30
0.0
 40
30.0
 50
0.0
  1
SEZ.B
  0
TEXT
  8
TEXT
 10
962.865
 20
1394.682
 30
0.0
 40
30.0
 50
0.0
  1
SEZ.B
  0
TEXT
  8
QUOTATURA
 10
1051.244
 20
404.0
 30
0.0
 40
30.0
 50
0.0
  1
838
  0
TEXT
  8
QUOTATURA
 10
1153.806
 20
706.477
 30
0.0
 40
30.0
 50
0.0
  1
1090
  0
TEXT
  8
QUOTATURA
 10
1786.149
 20
641.331
 30
0.0
 40
30.0
 50
0.0
  1
11.5
  0
TEXT
  8
QUOTATURA
 10
1831.148
 20
575.529
 30
0.0
 40
30.0
 50
0.0
  1
42
  0
TEXT
  8
QUOTATURA
 10
2161.722
 20
1082.481
 30
0.0
 40
30.0
 50
0.0
  1
129.5
  0
ENDSEC
  0
EOF
