  0
SECTION
  2
ENTITIES
  0
LINE
  8
LIVELLO_1
 10
1585.847
 11
1889.847
 20
1132.21
 21
1132.21
  0
LINE
  8
LIVELLO_1
 10
1889.847
 11
1889.847
 20
1132.21
 21
1609.71
  0
LINE
  8
LIVELLO_1
 10
1889.847
 11
1585.847
 20
1609.71
 21
1609.71
  0
LINE
  8
LIVELLO_1
 10
1585.847
 11
1585.847
 20
1609.71
 21
1132.21
  0
LINE
  8
LIVELLO_1
 10
1585.847
 11
1889.847
 20
654.71
 21
654.71
  0
LINE
  8
LIVELLO_1
 10
1889.847
 11
1889.847
 20
654.71
 21
1132.21
  0
LINE
  8
LIVELLO_1
 10
1889.847
 11
1585.847
 20
1132.21
 21
1132.21
  0
LINE
  8
LIVELLO_1
 10
1585.847
 11
1585.847
 20
1132.21
 21
654.71
  0
LINE
  8
LIVELLO_1
 10
1585.847
 11
1889.847
 20
177.21
 21
177.21
  0
LINE
  8
LIVELLO_1
 10
1889.847
 11
1889.847
 20
177.21
 21
654.71
  0
LINE
  8
LIVELLO_1
 10
1889.847
 11
1585.847
 20
654.71
 21
654.71
  0
LINE
  8
LIVELLO_1
 10
1585.847
 11
1585.847
 20
654.71
 21
177.21
  0
LINE
  8
LIVELLO_1
 10
1585.847
 11
1889.847
 20
-300.29
 21
-300.29
  0
LINE
  8
LIVELLO_1
 10
1889.847
 11
1889.847
 20
-300.29
 21
177.21
  0
LINE
  8
LIVELLO_1
 10
1889.847
 11
1585.847
 20
177.21
 21
177.21
  0
LINE
  8
LIVELLO_1
 10
1585.847
 11
1585.847
 20
177.21
 21
-300.29
  0
LINE
  8
LIVELLO_1
 10
1281.847
 11
1585.847
 20
1132.21
 21
1132.21
  0
LINE
  8
LIVELLO_1
 10
1585.847
 11
1585.847
 20
1132.21
 21
1609.71
  0
LINE
  8
LIVELLO_1
 10
1585.847
 11
1281.847
 20
1609.71
 21
1609.71
  0
LINE
  8
LIVELLO_1
 10
1281.847
 11
1281.847
 20
1609.71
 21
1132.21
  0
LINE
  8
LIVELLO_1
 10
1281.847
 11
1585.847
 20
654.71
 21
654.71
  0
LINE
  8
LIVELLO_1
 10
1585.847
 11
1585.847
 20
654.71
 21
1132.21
  0
LINE
  8
LIVELLO_1
 10
1585.847
 11
1281.847
 20
1132.21
 21
1132.21
  0
LINE
  8
LIVELLO_1
 10
1281.847
 11
1281.847
 20
1132.21
 21
654.71
  0
LINE
  8
LIVELLO_1
 10
1281.847
 11
1585.847
 20
177.21
 21
177.21
  0
LINE
  8
LIVELLO_1
 10
1585.847
 11
1585.847
 20
177.21
 21
654.71
  0
LINE
  8
LIVELLO_1
 10
1585.847
 11
1281.847
 20
654.71
 21
654.71
  0
LINE
  8
LIVELLO_1
 10
1281.847
 11
1281.847
 20
654.71
 21
177.21
  0
LINE
  8
LIVELLO_1
 10
1281.847
 11
1585.847
 20
-300.29
 21
-300.29
  0
LINE
  8
LIVELLO_1
 10
1585.847
 11
1585.847
 20
-300.29
 21
177.21
  0
LINE
  8
LIVELLO_1
 10
1585.847
 11
1281.847
 20
177.21
 21
177.21
  0
LINE
  8
LIVELLO_1
 10
1281.847
 11
1281.847
 20
177.21
 21
-300.29
  0
ARC
  8
APS_GEOMETRY
 10
2933.299
 20
-1040.306
 40
86.683
 50
169.717
 51
185.322
  0
ARC
  8
APS_GEOMETRY
 10
3031.641
 20
-1058.148
 40
186.63
 50
155.856
 51
169.717
  0
ARC
  8
APS_GEOMETRY
 10
3098.101
 20
-1087.938
 40
259.461
 50
143.178
 51
155.856
  0
ARC
  8
APS_GEOMETRY
 10
3227.009
 20
-1184.449
 40
420.494
 50
128.13
 51
143.178
  0
LINE
  8
APS_GEOMETRY
 10
2967.375
 11
3012.518
 20
-853.683
 21
-821.412
  0
ARC
  8
APS_GEOMETRY
 10
2765.745
 20
-497.264
 40
407.393
 50
307.282
 51
324.983
  0
ARC
  8
APS_GEOMETRY
 10
2904.112
 20
-594.21
 40
238.443
 50
324.983
 51
338.823
  0
ARC
  8
APS_GEOMETRY
 10
2969.978
 20
-619.727
 40
167.808
 50
338.823
 51
351.719
  0
ARC
  8
APS_GEOMETRY
 10
3056.566
 20
-632.329
 40
80.307
 50
351.719
 51
4.937
  0
LINE
  8
APS_GEOMETRY
 10
3136.575
 11
3137.46
 20
-625.418
 21
-623.877
  0
LINE
  8
APS_GEOMETRY
 10
3137.46
 11
3158.463
 20
-623.877
 21
-623.877
  0
ARC
  8
APS_GEOMETRY
 10
3143.858
 20
-633.661
 40
17.58
 50
346.917
 51
33.817
  0
ARC
  8
APS_GEOMETRY
 10
2997.485
 20
-619.424
 40
164.508
 50
338.924
 51
353.643
  0
ARC
  8
APS_GEOMETRY
 10
2936.525
 20
-595.93
 40
229.839
 50
326.244
 51
338.924
  0
ARC
  8
APS_GEOMETRY
 10
2781.666
 20
-492.434
 40
416.099
 50
312.053
 51
326.244
  0
ARC
  8
APS_GEOMETRY
 10
2798.298
 20
-510.872
 40
391.268
 50
308.129
 51
312.053
  0
ARC
  8
APS_GEOMETRY
 10
2811.278
 20
-527.408
 40
370.246
 50
304.089
 51
308.129
  0
ARC
  8
APS_GEOMETRY
 10
3272.706
 20
-1209.219
 40
453.029
 50
124.089
 51
140.773
  0
ARC
  8
APS_GEOMETRY
 10
3129.342
 20
-1092.18
 40
267.958
 50
140.773
 51
155.794
  0
ARC
  8
APS_GEOMETRY
 10
3056.759
 20
-1059.551
 40
188.379
 50
155.794
 51
168.362
  0
ARC
  8
APS_GEOMETRY
 10
2956.74
 20
-1038.951
 40
86.26
 50
168.362
 51
181.628
  0
LINE
  8
APS_GEOMETRY
 10
2870.515
 11
2869.94
 20
-1041.401
 21
-1048.347
  0
LINE
  8
APS_GEOMETRY
 10
2869.94
 11
2846.99
 20
-1048.347
 21
-1048.347
  0
ARC
  8
APS_GEOMETRY
 10
2885.338
 20
-1040.306
 40
86.682
 50
169.717
 51
185.322
  0
ARC
  8
APS_GEOMETRY
 10
2983.67
 20
-1058.146
 40
186.62
 50
155.855
 51
169.717
  0
ARC
  8
APS_GEOMETRY
 10
3050.173
 20
-1087.957
 40
259.498
 50
143.178
 51
155.855
  0
ARC
  8
APS_GEOMETRY
 10
3179.04
 20
-1184.439
 40
420.481
 50
128.13
 51
143.178
  0
LINE
  8
APS_GEOMETRY
 10
2919.415
 11
2964.558
 20
-853.683
 21
-821.412
  0
ARC
  8
APS_GEOMETRY
 10
2717.784
 20
-497.263
 40
407.394
 50
307.282
 51
324.984
  0
ARC
  8
APS_GEOMETRY
 10
2856.161
 20
-594.215
 40
238.433
 50
324.984
 51
338.823
  0
ARC
  8
APS_GEOMETRY
 10
2922.031
 20
-619.733
 40
167.793
 50
338.823
 51
351.722
  0
ARC
  8
APS_GEOMETRY
 10
3008.589
 20
-632.327
 40
80.323
 50
351.722
 51
4.935
  0
LINE
  8
APS_GEOMETRY
 10
3088.614
 11
3089.499
 20
-625.418
 21
-623.877
  0
LINE
  8
APS_GEOMETRY
 10
3089.499
 11
3110.503
 20
-623.877
 21
-623.877
  0
ARC
  8
APS_GEOMETRY
 10
3095.897
 20
-633.66
 40
17.58
 50
346.914
 51
33.816
  0
ARC
  8
APS_GEOMETRY
 10
2949.496
 20
-619.417
 40
164.537
 50
338.925
 51
353.641
  0
ARC
  8
APS_GEOMETRY
 10
2888.597
 20
-595.948
 40
229.802
 50
326.245
 51
338.925
  0
ARC
  8
APS_GEOMETRY
 10
2733.702
 20
-492.431
 40
416.103
 50
312.053
 51
326.245
  0
ARC
  8
APS_GEOMETRY
 10
2750.342
 20
-510.878
 40
391.26
 50
308.129
 51
312.053
  0
ARC
  8
APS_GEOMETRY
 10
2763.325
 20
-527.418
 40
370.233
 50
304.089
 51
308.129
  0
ARC
  8
APS_GEOMETRY
 10
3224.737
 20
-1209.21
 40
453.018
 50
124.089
 51
140.773
  0
ARC
  8
APS_GEOMETRY
 10
3081.387
 20
-1092.183
 40
267.965
 50
140.773
 51
155.794
  0
ARC
  8
APS_GEOMETRY
 10
3008.802
 20
-1059.553
 40
188.382
 50
155.794
 51
168.362
  0
ARC
  8
APS_GEOMETRY
 10
2908.773
 20
-1038.95
 40
86.254
 50
168.362
 51
181.628
  0
LINE
  8
APS_GEOMETRY
 10
2822.554
 11
2821.979
 20
-1041.401
 21
-1048.347
  0
LINE
  8
APS_GEOMETRY
 10
2821.979
 11
2799.029
 20
-1048.347
 21
-1048.347
  0
ARC
  8
APS_GEOMETRY
 10
2837.377
 20
-1040.307
 40
86.682
 50
169.717
 51
185.322
  0
ARC
  8
APS_GEOMETRY
 10
2935.722
 20
-1058.149
 40
186.633
 50
155.856
 51
169.717
  0
ARC
  8
APS_GEOMETRY
 10
3002.182
 20
-1087.939
 40
259.463
 50
143.178
 51
155.856
  0
ARC
  8
APS_GEOMETRY
 10
3131.085
 20
-1184.447
 40
420.491
 50
128.13
 51
143.178
  0
LINE
  8
APS_GEOMETRY
 10
2871.454
 11
2916.597
 20
-853.683
 21
-821.412
  0
ARC
  8
APS_GEOMETRY
 10
2669.816
 20
-497.255
 40
407.405
 50
307.282
 51
324.983
  0
ARC
  8
APS_GEOMETRY
 10
2808.204
 20
-594.216
 40
238.43
 50
324.983
 51
338.823
  0
ARC
  8
APS_GEOMETRY
 10
2874.042
 20
-619.722
 40
167.824
 50
338.823
 51
351.72
  0
ARC
  8
APS_GEOMETRY
 10
2960.7
 20
-632.334
 40
80.252
 50
351.72
 51
4.944
  0
LINE
  8
APS_GEOMETRY
 10
3040.654
 11
3041.538
 20
-625.418
 21
-623.877
  0
LINE
  8
APS_GEOMETRY
 10
3041.538
 11
3062.542
 20
-623.877
 21
-623.877
  0
ARC
  8
APS_GEOMETRY
 10
3047.938
 20
-633.661
 40
17.579
 50
346.917
 51
33.82
  0
ARC
  8
APS_GEOMETRY
 10
2901.544
 20
-619.42
 40
164.529
 50
338.925
 51
353.642
  0
ARC
  8
APS_GEOMETRY
 10
2840.639
 20
-595.949
 40
229.799
 50
326.245
 51
338.925
  0
ARC
  8
APS_GEOMETRY
 10
2685.74
 20
-492.429
 40
416.105
 50
312.053
 51
326.245
  0
ARC
  8
APS_GEOMETRY
 10
2702.373
 20
-510.867
 40
391.274
 50
308.129
 51
312.053
  0
ARC
  8
APS_GEOMETRY
 10
2715.355
 20
-527.407
 40
370.247
 50
304.089
 51
308.129
  0
ARC
  8
APS_GEOMETRY
 10
3176.789
 20
-1209.223
 40
453.035
 50
124.089
 51
140.773
  0
ARC
  8
APS_GEOMETRY
 10
3033.411
 20
-1092.173
 40
267.946
 50
140.773
 51
155.795
  0
ARC
  8
APS_GEOMETRY
 10
2960.851
 20
-1059.555
 40
188.391
 50
155.795
 51
168.362
  0
ARC
  8
APS_GEOMETRY
 10
2860.811
 20
-1038.95
 40
86.252
 50
168.362
 51
181.628
  0
LINE
  8
APS_GEOMETRY
 10
2774.594
 11
2774.019
 20
-1041.401
 21
-1048.347
  0
LINE
  8
APS_GEOMETRY
 10
2774.019
 11
2751.069
 20
-1048.347
 21
-1048.347
  0
ARC
  8
APS_GEOMETRY
 10
1545.072
 20
-258.418
 40
161.599
 50
140.179
 51
181.107
  0
ARC
  8
APS_GEOMETRY
 10
1766.111
 20
-445.246
 40
451.015
 50
126.501
 51
139.932
  0
ARC
  8
APS_GEOMETRY
 10
-446.577
 20
2548.561
 40
3271.735
 50
306.463
 51
307.948
  0
ARC
  8
APS_GEOMETRY
 10
1366.537
 20
223.227
 40
323.081
 50
307.984
 51
320.717
  0
ARC
  8
APS_GEOMETRY
 10
1287.957
 20
287.912
 40
424.86
 50
320.674
 51
329.69
  0
ARC
  8
APS_GEOMETRY
 10
1536.482
 20
142.293
 40
136.816
 50
329.812
 51
358.395
  0
ARC
  8
APS_GEOMETRY
 10
1568.072
 20
-258.418
 40
161.599
 50
140.179
 51
181.107
  0
ARC
  8
APS_GEOMETRY
 10
1789.111
 20
-445.246
 40
451.015
 50
126.501
 51
139.932
  0
ARC
  8
APS_GEOMETRY
 10
-423.577
 20
2548.561
 40
3271.735
 50
306.463
 51
307.948
  0
ARC
  8
APS_GEOMETRY
 10
1389.537
 20
223.227
 40
323.081
 50
307.984
 51
320.717
  0
ARC
  8
APS_GEOMETRY
 10
1310.957
 20
287.912
 40
424.86
 50
320.674
 51
329.69
  0
ARC
  8
APS_GEOMETRY
 10
1559.482
 20
142.293
 40
136.816
 50
329.812
 51
358.395
  0
ARC
  8
APS_GEOMETRY
 10
1591.072
 20
-258.418
 40
161.599
 50
140.179
 51
181.107
  0
ARC
  8
APS_GEOMETRY
 10
1812.111
 20
-445.246
 40
451.015
 50
126.501
 51
139.932
  0
ARC
  8
APS_GEOMETRY
 10
-400.577
 20
2548.561
 40
3271.735
 50
306.463
 51
307.948
  0
ARC
  8
APS_GEOMETRY
 10
1412.537
 20
223.227
 40
323.081
 50
307.984
 51
320.717
  0
ARC
  8
APS_GEOMETRY
 10
1333.957
 20
287.912
 40
424.86
 50
320.674
 51
329.69
  0
ARC
  8
APS_GEOMETRY
 10
1582.482
 20
142.293
 40
136.816
 50
329.812
 51
358.395
  0
ARC
  8
APS_GEOMETRY
 10
1614.072
 20
-258.418
 40
161.599
 50
140.179
 51
181.107
  0
ARC
  8
APS_GEOMETRY
 10
1835.111
 20
-445.246
 40
451.015
 50
126.501
 51
139.932
  0
ARC
  8
APS_GEOMETRY
 10
-377.577
 20
2548.561
 40
3271.735
 50
306.463
 51
307.948
  0
ARC
  8
APS_GEOMETRY
 10
1435.537
 20
223.227
 40
323.081
 50
307.984
 51
320.717
  0
ARC
  8
APS_GEOMETRY
 10
1356.957
 20
287.912
 40
424.86
 50
320.674
 51
329.69
  0
ARC
  8
APS_GEOMETRY
 10
1605.482
 20
142.293
 40
136.816
 50
329.812
 51
358.395
  0
ARC
  8
APS_GEOMETRY
 10
1637.072
 20
-258.418
 40
161.599
 50
140.179
 51
181.107
  0
ARC
  8
APS_GEOMETRY
 10
1858.111
 20
-445.246
 40
451.015
 50
126.501
 51
139.932
  0
ARC
  8
APS_GEOMETRY
 10
-354.577
 20
2548.561
 40
3271.735
 50
306.463
 51
307.948
  0
ARC
  8
APS_GEOMETRY
 10
1458.537
 20
223.227
 40
323.081
 50
307.984
 51
320.717
  0
ARC
  8
APS_GEOMETRY
 10
1379.957
 20
287.912
 40
424.86
 50
320.674
 51
329.69
  0
ARC
  8
APS_GEOMETRY
 10
1628.482
 20
142.293
 40
136.816
 50
329.812
 51
358.395
  0
ARC
  8
APS_GEOMETRY
 10
1660.072
 20
-258.418
 40
161.599
 50
140.179
 51
181.107
  0
ARC
  8
APS_GEOMETRY
 10
1881.111
 20
-445.246
 40
451.015
 50
126.501
 51
139.932
  0
ARC
  8
APS_GEOMETRY
 10
-331.577
 20
2548.561
 40
3271.735
 50
306.463
 51
307.948
  0
ARC
  8
APS_GEOMETRY
 10
1481.537
 20
223.227
 40
323.081
 50
307.984
 51
320.717
  0
ARC
  8
APS_GEOMETRY
 10
1402.957
 20
287.912
 40
424.86
 50
320.674
 51
329.69
  0
ARC
  8
APS_GEOMETRY
 10
1651.482
 20
142.293
 40
136.816
 50
329.812
 51
358.395
  0
LINE
  8
APS_GEOMETRY
 10
1673.244
 11
1696.244
 20
138.46
 21
138.46
  0
LINE
  8
APS_GEOMETRY
 10
1719.244
 11
1742.244
 20
138.46
 21
138.46
  0
LINE
  8
APS_GEOMETRY
 10
1765.244
 11
1788.244
 20
138.46
 21
138.46
  0
LINE
  8
APS_GEOMETRY
 10
1383.503
 11
1406.503
 20
-261.54
 21
-261.54
  0
LINE
  8
APS_GEOMETRY
 10
1429.503
 11
1452.503
 20
-261.54
 21
-261.54
  0
LINE
  8
APS_GEOMETRY
 10
1475.503
 11
1498.503
 20
-261.54
 21
-261.54
  0
ARC
  8
APS_GEOMETRY
 10
1545.072
 20
-19.668
 40
161.599
 50
140.179
 51
181.107
  0
ARC
  8
APS_GEOMETRY
 10
1766.111
 20
-206.496
 40
451.015
 50
126.501
 51
139.932
  0
ARC
  8
APS_GEOMETRY
 10
-446.577
 20
2787.311
 40
3271.735
 50
306.463
 51
307.948
  0
ARC
  8
APS_GEOMETRY
 10
1366.537
 20
461.977
 40
323.081
 50
307.984
 51
320.717
  0
ARC
  8
APS_GEOMETRY
 10
1287.957
 20
526.662
 40
424.86
 50
320.674
 51
329.69
  0
ARC
  8
APS_GEOMETRY
 10
1536.482
 20
381.043
 40
136.816
 50
329.812
 51
358.395
  0
ARC
  8
APS_GEOMETRY
 10
1568.072
 20
-19.668
 40
161.599
 50
140.179
 51
181.107
  0
ARC
  8
APS_GEOMETRY
 10
1789.111
 20
-206.496
 40
451.015
 50
126.501
 51
139.932
  0
ARC
  8
APS_GEOMETRY
 10
-423.577
 20
2787.311
 40
3271.735
 50
306.463
 51
307.948
  0
ARC
  8
APS_GEOMETRY
 10
1389.537
 20
461.977
 40
323.081
 50
307.984
 51
320.717
  0
ARC
  8
APS_GEOMETRY
 10
1310.957
 20
526.662
 40
424.86
 50
320.674
 51
329.69
  0
ARC
  8
APS_GEOMETRY
 10
1559.482
 20
381.043
 40
136.816
 50
329.812
 51
358.395
  0
ARC
  8
APS_GEOMETRY
 10
1591.072
 20
-19.668
 40
161.599
 50
140.179
 51
181.107
  0
ARC
  8
APS_GEOMETRY
 10
1812.111
 20
-206.496
 40
451.015
 50
126.501
 51
139.932
  0
ARC
  8
APS_GEOMETRY
 10
-400.577
 20
2787.311
 40
3271.735
 50
306.463
 51
307.948
  0
ARC
  8
APS_GEOMETRY
 10
1412.537
 20
461.977
 40
323.081
 50
307.984
 51
320.717
  0
ARC
  8
APS_GEOMETRY
 10
1333.957
 20
526.662
 40
424.86
 50
320.674
 51
329.69
  0
ARC
  8
APS_GEOMETRY
 10
1582.482
 20
381.043
 40
136.816
 50
329.812
 51
358.395
  0
ARC
  8
APS_GEOMETRY
 10
1614.072
 20
-19.668
 40
161.599
 50
140.179
 51
181.107
  0
ARC
  8
APS_GEOMETRY
 10
1835.111
 20
-206.496
 40
451.015
 50
126.501
 51
139.932
  0
ARC
  8
APS_GEOMETRY
 10
-377.577
 20
2787.311
 40
3271.735
 50
306.463
 51
307.948
  0
ARC
  8
APS_GEOMETRY
 10
1435.537
 20
461.977
 40
323.081
 50
307.984
 51
320.717
  0
ARC
  8
APS_GEOMETRY
 10
1356.957
 20
526.662
 40
424.86
 50
320.674
 51
329.69
  0
ARC
  8
APS_GEOMETRY
 10
1605.482
 20
381.043
 40
136.816
 50
329.812
 51
358.395
  0
ARC
  8
APS_GEOMETRY
 10
1637.072
 20
-19.668
 40
161.599
 50
140.179
 51
181.107
  0
ARC
  8
APS_GEOMETRY
 10
1858.111
 20
-206.496
 40
451.015
 50
126.501
 51
139.932
  0
ARC
  8
APS_GEOMETRY
 10
-354.577
 20
2787.311
 40
3271.735
 50
306.463
 51
307.948
  0
ARC
  8
APS_GEOMETRY
 10
1458.537
 20
461.977
 40
323.081
 50
307.984
 51
320.717
  0
ARC
  8
APS_GEOMETRY
 10
1379.957
 20
526.662
 40
424.86
 50
320.674
 51
329.69
  0
ARC
  8
APS_GEOMETRY
 10
1628.482
 20
381.043
 40
136.816
 50
329.812
 51
358.395
  0
ARC
  8
APS_GEOMETRY
 10
1660.072
 20
-19.668
 40
161.599
 50
140.179
 51
181.107
  0
ARC
  8
APS_GEOMETRY
 10
1881.111
 20
-206.496
 40
451.015
 50
126.501
 51
139.932
  0
ARC
  8
APS_GEOMETRY
 10
-331.577
 20
2787.311
 40
3271.735
 50
306.463
 51
307.948
  0
ARC
  8
APS_GEOMETRY
 10
1481.537
 20
461.977
 40
323.081
 50
307.984
 51
320.717
  0
ARC
  8
APS_GEOMETRY
 10
1402.957
 20
526.662
 40
424.86
 50
320.674
 51
329.69
  0
ARC
  8
APS_GEOMETRY
 10
1651.482
 20
381.043
 40
136.816
 50
329.812
 51
358.395
  0
LINE
  8
APS_GEOMETRY
 10
1673.244
 11
1696.244
 20
377.21
 21
377.21
  0
LINE
  8
APS_GEOMETRY
 10
1719.244
 11
1742.244
 20
377.21
 21
377.21
  0
LINE
  8
APS_GEOMETRY
 10
1765.244
 11
1788.244
 20
377.21
 21
377.21
  0
LINE
  8
APS_GEOMETRY
 10
1383.503
 11
1406.503
 20
-22.79
 21
-22.79
  0
LINE
  8
APS_GEOMETRY
 10
1429.503
 11
1452.503
 20
-22.79
 21
-22.79
  0
LINE
  8
APS_GEOMETRY
 10
1475.503
 11
1498.503
 20
-22.79
 21
-22.79
  0
ARC
  8
APS_GEOMETRY
 10
1545.072
 20
219.082
 40
161.599
 50
140.179
 51
181.107
  0
ARC
  8
APS_GEOMETRY
 10
1766.111
 20
32.254
 40
451.015
 50
126.501
 51
139.932
  0
ARC
  8
APS_GEOMETRY
 10
-446.577
 20
3026.061
 40
3271.735
 50
306.463
 51
307.948
  0
ARC
  8
APS_GEOMETRY
 10
1366.537
 20
700.727
 40
323.081
 50
307.984
 51
320.717
  0
ARC
  8
APS_GEOMETRY
 10
1287.957
 20
765.412
 40
424.86
 50
320.674
 51
329.69
  0
ARC
  8
APS_GEOMETRY
 10
1536.482
 20
619.793
 40
136.816
 50
329.812
 51
358.395
  0
ARC
  8
APS_GEOMETRY
 10
1568.072
 20
219.082
 40
161.599
 50
140.179
 51
181.107
  0
ARC
  8
APS_GEOMETRY
 10
1789.111
 20
32.254
 40
451.015
 50
126.501
 51
139.932
  0
ARC
  8
APS_GEOMETRY
 10
-423.577
 20
3026.061
 40
3271.735
 50
306.463
 51
307.948
  0
ARC
  8
APS_GEOMETRY
 10
1389.537
 20
700.727
 40
323.081
 50
307.984
 51
320.717
  0
ARC
  8
APS_GEOMETRY
 10
1310.957
 20
765.412
 40
424.86
 50
320.674
 51
329.69
  0
ARC
  8
APS_GEOMETRY
 10
1559.482
 20
619.793
 40
136.816
 50
329.812
 51
358.395
  0
ARC
  8
APS_GEOMETRY
 10
1591.072
 20
219.082
 40
161.599
 50
140.179
 51
181.107
  0
ARC
  8
APS_GEOMETRY
 10
1812.111
 20
32.254
 40
451.015
 50
126.501
 51
139.932
  0
ARC
  8
APS_GEOMETRY
 10
-400.577
 20
3026.061
 40
3271.735
 50
306.463
 51
307.948
  0
ARC
  8
APS_GEOMETRY
 10
1412.537
 20
700.727
 40
323.081
 50
307.984
 51
320.717
  0
ARC
  8
APS_GEOMETRY
 10
1333.957
 20
765.412
 40
424.86
 50
320.674
 51
329.69
  0
ARC
  8
APS_GEOMETRY
 10
1582.482
 20
619.793
 40
136.816
 50
329.812
 51
358.395
  0
ARC
  8
APS_GEOMETRY
 10
1614.072
 20
219.082
 40
161.599
 50
140.179
 51
181.107
  0
ARC
  8
APS_GEOMETRY
 10
1835.111
 20
32.254
 40
451.015
 50
126.501
 51
139.932
  0
ARC
  8
APS_GEOMETRY
 10
-377.577
 20
3026.061
 40
3271.735
 50
306.463
 51
307.948
  0
ARC
  8
APS_GEOMETRY
 10
1435.537
 20
700.727
 40
323.081
 50
307.984
 51
320.717
  0
ARC
  8
APS_GEOMETRY
 10
1356.957
 20
765.412
 40
424.86
 50
320.674
 51
329.69
  0
ARC
  8
APS_GEOMETRY
 10
1605.482
 20
619.793
 40
136.816
 50
329.812
 51
358.395
  0
ARC
  8
APS_GEOMETRY
 10
1637.072
 20
219.082
 40
161.599
 50
140.179
 51
181.107
  0
ARC
  8
APS_GEOMETRY
 10
1858.111
 20
32.254
 40
451.015
 50
126.501
 51
139.932
  0
ARC
  8
APS_GEOMETRY
 10
-354.577
 20
3026.061
 40
3271.735
 50
306.463
 51
307.948
  0
ARC
  8
APS_GEOMETRY
 10
1458.537
 20
700.727
 40
323.081
 50
307.984
 51
320.717
  0
ARC
  8
APS_GEOMETRY
 10
1379.957
 20
765.412
 40
424.86
 50
320.674
 51
329.69
  0
ARC
  8
APS_GEOMETRY
 10
1628.482
 20
619.793
 40
136.816
 50
329.812
 51
358.395
  0
ARC
  8
APS_GEOMETRY
 10
1660.072
 20
219.082
 40
161.599
 50
140.179
 51
181.107
  0
ARC
  8
APS_GEOMETRY
 10
1881.111
 20
32.254
 40
451.015
 50
126.501
 51
139.932
  0
ARC
  8
APS_GEOMETRY
 10
-331.577
 20
3026.061
 40
3271.735
 50
306.463
 51
307.948
  0
ARC
  8
APS_GEOMETRY
 10
1481.537
 20
700.727
 40
323.081
 50
307.984
 51
320.717
  0
ARC
  8
APS_GEOMETRY
 10
1402.957
 20
765.412
 40
424.86
 50
320.674
 51
329.69
  0
ARC
  8
APS_GEOMETRY
 10
1651.482
 20
619.793
 40
136.816
 50
329.812
 51
358.395
  0
LINE
  8
APS_GEOMETRY
 10
1673.244
 11
1696.244
 20
615.96
 21
615.96
  0
LINE
  8
APS_GEOMETRY
 10
1719.244
 11
1742.244
 20
615.96
 21
615.96
  0
LINE
  8
APS_GEOMETRY
 10
1765.244
 11
1788.244
 20
615.96
 21
615.96
  0
LINE
  8
APS_GEOMETRY
 10
1383.503
 11
1406.503
 20
215.96
 21
215.96
  0
LINE
  8
APS_GEOMETRY
 10
1429.503
 11
1452.503
 20
215.96
 21
215.96
  0
LINE
  8
APS_GEOMETRY
 10
1475.503
 11
1498.503
 20
215.96
 21
215.96
  0
ARC
  8
APS_GEOMETRY
 10
1545.072
 20
457.832
 40
161.599
 50
140.179
 51
181.107
  0
ARC
  8
APS_GEOMETRY
 10
1766.111
 20
271.004
 40
451.015
 50
126.501
 51
139.932
  0
ARC
  8
APS_GEOMETRY
 10
-446.577
 20
3264.811
 40
3271.735
 50
306.463
 51
307.948
  0
ARC
  8
APS_GEOMETRY
 10
1366.537
 20
939.477
 40
323.081
 50
307.984
 51
320.717
  0
ARC
  8
APS_GEOMETRY
 10
1287.957
 20
1004.162
 40
424.86
 50
320.674
 51
329.69
  0
ARC
  8
APS_GEOMETRY
 10
1536.482
 20
858.543
 40
136.816
 50
329.812
 51
358.395
  0
ARC
  8
APS_GEOMETRY
 10
1568.072
 20
457.832
 40
161.599
 50
140.179
 51
181.107
  0
ARC
  8
APS_GEOMETRY
 10
1789.111
 20
271.004
 40
451.015
 50
126.501
 51
139.932
  0
ARC
  8
APS_GEOMETRY
 10
-423.577
 20
3264.811
 40
3271.735
 50
306.463
 51
307.948
  0
ARC
  8
APS_GEOMETRY
 10
1389.537
 20
939.477
 40
323.081
 50
307.984
 51
320.717
  0
ARC
  8
APS_GEOMETRY
 10
1310.957
 20
1004.162
 40
424.86
 50
320.674
 51
329.69
  0
ARC
  8
APS_GEOMETRY
 10
1559.482
 20
858.543
 40
136.816
 50
329.812
 51
358.395
  0
ARC
  8
APS_GEOMETRY
 10
1591.072
 20
457.832
 40
161.599
 50
140.179
 51
181.107
  0
ARC
  8
APS_GEOMETRY
 10
1812.111
 20
271.004
 40
451.015
 50
126.501
 51
139.932
  0
ARC
  8
APS_GEOMETRY
 10
-400.577
 20
3264.811
 40
3271.735
 50
306.463
 51
307.948
  0
ARC
  8
APS_GEOMETRY
 10
1412.537
 20
939.477
 40
323.081
 50
307.984
 51
320.717
  0
ARC
  8
APS_GEOMETRY
 10
1333.957
 20
1004.162
 40
424.86
 50
320.674
 51
329.69
  0
ARC
  8
APS_GEOMETRY
 10
1582.482
 20
858.543
 40
136.816
 50
329.812
 51
358.395
  0
ARC
  8
APS_GEOMETRY
 10
1614.072
 20
457.832
 40
161.599
 50
140.179
 51
181.107
  0
ARC
  8
APS_GEOMETRY
 10
1835.111
 20
271.004
 40
451.015
 50
126.501
 51
139.932
  0
ARC
  8
APS_GEOMETRY
 10
-377.577
 20
3264.811
 40
3271.735
 50
306.463
 51
307.948
  0
ARC
  8
APS_GEOMETRY
 10
1435.537
 20
939.477
 40
323.081
 50
307.984
 51
320.717
  0
ARC
  8
APS_GEOMETRY
 10
1356.957
 20
1004.162
 40
424.86
 50
320.674
 51
329.69
  0
ARC
  8
APS_GEOMETRY
 10
1605.482
 20
858.543
 40
136.816
 50
329.812
 51
358.395
  0
ARC
  8
APS_GEOMETRY
 10
1637.072
 20
457.832
 40
161.599
 50
140.179
 51
181.107
  0
ARC
  8
APS_GEOMETRY
 10
1858.111
 20
271.004
 40
451.015
 50
126.501
 51
139.932
  0
ARC
  8
APS_GEOMETRY
 10
-354.577
 20
3264.811
 40
3271.735
 50
306.463
 51
307.948
  0
ARC
  8
APS_GEOMETRY
 10
1458.537
 20
939.477
 40
323.081
 50
307.984
 51
320.717
  0
ARC
  8
APS_GEOMETRY
 10
1379.957
 20
1004.162
 40
424.86
 50
320.674
 51
329.69
  0
ARC
  8
APS_GEOMETRY
 10
1628.482
 20
858.543
 40
136.816
 50
329.812
 51
358.395
  0
ARC
  8
APS_GEOMETRY
 10
1660.072
 20
457.832
 40
161.599
 50
140.179
 51
181.107
  0
ARC
  8
APS_GEOMETRY
 10
1881.111
 20
271.004
 40
451.015
 50
126.501
 51
139.932
  0
ARC
  8
APS_GEOMETRY
 10
-331.577
 20
3264.811
 40
3271.735
 50
306.463
 51
307.948
  0
ARC
  8
APS_GEOMETRY
 10
1481.537
 20
939.477
 40
323.081
 50
307.984
 51
320.717
  0
ARC
  8
APS_GEOMETRY
 10
1402.957
 20
1004.162
 40
424.86
 50
320.674
 51
329.69
  0
ARC
  8
APS_GEOMETRY
 10
1651.482
 20
858.543
 40
136.816
 50
329.812
 51
358.395
  0
LINE
  8
APS_GEOMETRY
 10
1673.244
 11
1696.244
 20
854.71
 21
854.71
  0
LINE
  8
APS_GEOMETRY
 10
1719.244
 11
1742.244
 20
854.71
 21
854.71
  0
LINE
  8
APS_GEOMETRY
 10
1765.244
 11
1788.244
 20
854.71
 21
854.71
  0
LINE
  8
APS_GEOMETRY
 10
1383.503
 11
1406.503
 20
454.71
 21
454.71
  0
LINE
  8
APS_GEOMETRY
 10
1429.503
 11
1452.503
 20
454.71
 21
454.71
  0
LINE
  8
APS_GEOMETRY
 10
1475.503
 11
1498.503
 20
454.71
 21
454.71
  0
ARC
  8
APS_GEOMETRY
 10
1545.072
 20
696.582
 40
161.599
 50
140.179
 51
181.107
  0
ARC
  8
APS_GEOMETRY
 10
1766.111
 20
509.754
 40
451.015
 50
126.501
 51
139.932
  0
ARC
  8
APS_GEOMETRY
 10
-446.577
 20
3503.561
 40
3271.735
 50
306.463
 51
307.948
  0
ARC
  8
APS_GEOMETRY
 10
1366.537
 20
1178.227
 40
323.081
 50
307.984
 51
320.717
  0
ARC
  8
APS_GEOMETRY
 10
1287.957
 20
1242.912
 40
424.86
 50
320.674
 51
329.69
  0
ARC
  8
APS_GEOMETRY
 10
1536.482
 20
1097.293
 40
136.816
 50
329.812
 51
358.395
  0
ARC
  8
APS_GEOMETRY
 10
1568.072
 20
696.582
 40
161.599
 50
140.179
 51
181.107
  0
ARC
  8
APS_GEOMETRY
 10
1789.111
 20
509.754
 40
451.015
 50
126.501
 51
139.932
  0
ARC
  8
APS_GEOMETRY
 10
-423.577
 20
3503.561
 40
3271.735
 50
306.463
 51
307.948
  0
ARC
  8
APS_GEOMETRY
 10
1389.537
 20
1178.227
 40
323.081
 50
307.984
 51
320.717
  0
ARC
  8
APS_GEOMETRY
 10
1310.957
 20
1242.912
 40
424.86
 50
320.674
 51
329.69
  0
ARC
  8
APS_GEOMETRY
 10
1559.482
 20
1097.293
 40
136.816
 50
329.812
 51
358.395
  0
ARC
  8
APS_GEOMETRY
 10
1591.072
 20
696.582
 40
161.599
 50
140.179
 51
181.107
  0
ARC
  8
APS_GEOMETRY
 10
1812.111
 20
509.754
 40
451.015
 50
126.501
 51
139.932
  0
ARC
  8
APS_GEOMETRY
 10
-400.577
 20
3503.561
 40
3271.735
 50
306.463
 51
307.948
  0
ARC
  8
APS_GEOMETRY
 10
1412.537
 20
1178.227
 40
323.081
 50
307.984
 51
320.717
  0
ARC
  8
APS_GEOMETRY
 10
1333.957
 20
1242.912
 40
424.86
 50
320.674
 51
329.69
  0
ARC
  8
APS_GEOMETRY
 10
1582.482
 20
1097.293
 40
136.816
 50
329.812
 51
358.395
  0
ARC
  8
APS_GEOMETRY
 10
1614.072
 20
696.582
 40
161.599
 50
140.179
 51
181.107
  0
ARC
  8
APS_GEOMETRY
 10
1835.111
 20
509.754
 40
451.015
 50
126.501
 51
139.932
  0
ARC
  8
APS_GEOMETRY
 10
-377.577
 20
3503.561
 40
3271.735
 50
306.463
 51
307.948
  0
ARC
  8
APS_GEOMETRY
 10
1435.537
 20
1178.227
 40
323.081
 50
307.984
 51
320.717
  0
ARC
  8
APS_GEOMETRY
 10
1356.957
 20
1242.912
 40
424.86
 50
320.674
 51
329.69
  0
ARC
  8
APS_GEOMETRY
 10
1605.482
 20
1097.293
 40
136.816
 50
329.812
 51
358.395
  0
ARC
  8
APS_GEOMETRY
 10
1637.072
 20
696.582
 40
161.599
 50
140.179
 51
181.107
  0
ARC
  8
APS_GEOMETRY
 10
1858.111
 20
509.754
 40
451.015
 50
126.501
 51
139.932
  0
ARC
  8
APS_GEOMETRY
 10
-354.577
 20
3503.561
 40
3271.735
 50
306.463
 51
307.948
  0
ARC
  8
APS_GEOMETRY
 10
1458.537
 20
1178.227
 40
323.081
 50
307.984
 51
320.717
  0
ARC
  8
APS_GEOMETRY
 10
1379.957
 20
1242.912
 40
424.86
 50
320.674
 51
329.69
  0
ARC
  8
APS_GEOMETRY
 10
1628.482
 20
1097.293
 40
136.816
 50
329.812
 51
358.395
  0
ARC
  8
APS_GEOMETRY
 10
1660.072
 20
696.582
 40
161.599
 50
140.179
 51
181.107
  0
ARC
  8
APS_GEOMETRY
 10
1881.111
 20
509.754
 40
451.015
 50
126.501
 51
139.932
  0
ARC
  8
APS_GEOMETRY
 10
-331.577
 20
3503.561
 40
3271.735
 50
306.463
 51
307.948
  0
ARC
  8
APS_GEOMETRY
 10
1481.537
 20
1178.227
 40
323.081
 50
307.984
 51
320.717
  0
ARC
  8
APS_GEOMETRY
 10
1402.957
 20
1242.912
 40
424.86
 50
320.674
 51
329.69
  0
ARC
  8
APS_GEOMETRY
 10
1651.482
 20
1097.293
 40
136.816
 50
329.812
 51
358.395
  0
LINE
  8
APS_GEOMETRY
 10
1673.244
 11
1696.244
 20
1093.46
 21
1093.46
  0
LINE
  8
APS_GEOMETRY
 10
1719.244
 11
1742.244
 20
1093.46
 21
1093.46
  0
LINE
  8
APS_GEOMETRY
 10
1765.244
 11
1788.244
 20
1093.46
 21
1093.46
  0
LINE
  8
APS_GEOMETRY
 10
1383.503
 11
1406.503
 20
693.46
 21
693.46
  0
LINE
  8
APS_GEOMETRY
 10
1429.503
 11
1452.503
 20
693.46
 21
693.46
  0
LINE
  8
APS_GEOMETRY
 10
1475.503
 11
1498.503
 20
693.46
 21
693.46
  0
ARC
  8
APS_GEOMETRY
 10
1545.072
 20
935.332
 40
161.599
 50
140.179
 51
181.107
  0
ARC
  8
APS_GEOMETRY
 10
1766.111
 20
748.504
 40
451.015
 50
126.501
 51
139.932
  0
ARC
  8
APS_GEOMETRY
 10
-446.577
 20
3742.311
 40
3271.735
 50
306.463
 51
307.948
  0
ARC
  8
APS_GEOMETRY
 10
1366.537
 20
1416.977
 40
323.081
 50
307.984
 51
320.717
  0
ARC
  8
APS_GEOMETRY
 10
1287.957
 20
1481.662
 40
424.86
 50
320.674
 51
329.69
  0
ARC
  8
APS_GEOMETRY
 10
1536.482
 20
1336.043
 40
136.816
 50
329.812
 51
358.395
  0
ARC
  8
APS_GEOMETRY
 10
1568.072
 20
935.332
 40
161.599
 50
140.179
 51
181.107
  0
ARC
  8
APS_GEOMETRY
 10
1789.111
 20
748.504
 40
451.015
 50
126.501
 51
139.932
  0
ARC
  8
APS_GEOMETRY
 10
-423.577
 20
3742.311
 40
3271.735
 50
306.463
 51
307.948
  0
ARC
  8
APS_GEOMETRY
 10
1389.537
 20
1416.977
 40
323.081
 50
307.984
 51
320.717
  0
ARC
  8
APS_GEOMETRY
 10
1310.957
 20
1481.662
 40
424.86
 50
320.674
 51
329.69
  0
ARC
  8
APS_GEOMETRY
 10
1559.482
 20
1336.043
 40
136.816
 50
329.812
 51
358.395
  0
ARC
  8
APS_GEOMETRY
 10
1591.072
 20
935.332
 40
161.599
 50
140.179
 51
181.107
  0
ARC
  8
APS_GEOMETRY
 10
1812.111
 20
748.504
 40
451.015
 50
126.501
 51
139.932
  0
ARC
  8
APS_GEOMETRY
 10
-400.577
 20
3742.311
 40
3271.735
 50
306.463
 51
307.948
  0
ARC
  8
APS_GEOMETRY
 10
1412.537
 20
1416.977
 40
323.081
 50
307.984
 51
320.717
  0
ARC
  8
APS_GEOMETRY
 10
1333.957
 20
1481.662
 40
424.86
 50
320.674
 51
329.69
  0
ARC
  8
APS_GEOMETRY
 10
1582.482
 20
1336.043
 40
136.816
 50
329.812
 51
358.395
  0
ARC
  8
APS_GEOMETRY
 10
1614.072
 20
935.332
 40
161.599
 50
140.179
 51
181.107
  0
ARC
  8
APS_GEOMETRY
 10
1835.111
 20
748.504
 40
451.015
 50
126.501
 51
139.932
  0
ARC
  8
APS_GEOMETRY
 10
-377.577
 20
3742.311
 40
3271.735
 50
306.463
 51
307.948
  0
ARC
  8
APS_GEOMETRY
 10
1435.537
 20
1416.977
 40
323.081
 50
307.984
 51
320.717
  0
ARC
  8
APS_GEOMETRY
 10
1356.957
 20
1481.662
 40
424.86
 50
320.674
 51
329.69
  0
ARC
  8
APS_GEOMETRY
 10
1605.482
 20
1336.043
 40
136.816
 50
329.812
 51
358.395
  0
ARC
  8
APS_GEOMETRY
 10
1637.072
 20
935.332
 40
161.599
 50
140.179
 51
181.107
  0
ARC
  8
APS_GEOMETRY
 10
1858.111
 20
748.504
 40
451.015
 50
126.501
 51
139.932
  0
ARC
  8
APS_GEOMETRY
 10
-354.577
 20
3742.311
 40
3271.735
 50
306.463
 51
307.948
  0
ARC
  8
APS_GEOMETRY
 10
1458.537
 20
1416.977
 40
323.081
 50
307.984
 51
320.717
  0
ARC
  8
APS_GEOMETRY
 10
1379.957
 20
1481.662
 40
424.86
 50
320.674
 51
329.69
  0
ARC
  8
APS_GEOMETRY
 10
1628.482
 20
1336.043
 40
136.816
 50
329.812
 51
358.395
  0
ARC
  8
APS_GEOMETRY
 10
1660.072
 20
935.332
 40
161.599
 50
140.179
 51
181.107
  0
ARC
  8
APS_GEOMETRY
 10
1881.111
 20
748.504
 40
451.015
 50
126.501
 51
139.932
  0
ARC
  8
APS_GEOMETRY
 10
-331.577
 20
3742.311
 40
3271.735
 50
306.463
 51
307.948
  0
ARC
  8
APS_GEOMETRY
 10
1481.537
 20
1416.977
 40
323.081
 50
307.984
 51
320.717
  0
ARC
  8
APS_GEOMETRY
 10
1402.957
 20
1481.662
 40
424.86
 50
320.674
 51
329.69
  0
ARC
  8
APS_GEOMETRY
 10
1651.482
 20
1336.043
 40
136.816
 50
329.812
 51
358.395
  0
LINE
  8
APS_GEOMETRY
 10
1673.244
 11
1696.244
 20
1332.21
 21
1332.21
  0
LINE
  8
APS_GEOMETRY
 10
1719.244
 11
1742.244
 20
1332.21
 21
1332.21
  0
LINE
  8
APS_GEOMETRY
 10
1765.244
 11
1788.244
 20
1332.21
 21
1332.21
  0
LINE
  8
APS_GEOMETRY
 10
1383.503
 11
1406.503
 20
932.21
 21
932.21
  0
LINE
  8
APS_GEOMETRY
 10
1429.503
 11
1452.503
 20
932.21
 21
932.21
  0
LINE
  8
APS_GEOMETRY
 10
1475.503
 11
1498.503
 20
932.21
 21
932.21
  0
ARC
  8
APS_GEOMETRY
 10
1545.072
 20
1174.082
 40
161.599
 50
140.179
 51
181.107
  0
ARC
  8
APS_GEOMETRY
 10
1766.111
 20
987.254
 40
451.015
 50
126.501
 51
139.932
  0
ARC
  8
APS_GEOMETRY
 10
-446.577
 20
3981.061
 40
3271.735
 50
306.463
 51
307.948
  0
ARC
  8
APS_GEOMETRY
 10
1366.537
 20
1655.727
 40
323.081
 50
307.984
 51
320.717
  0
ARC
  8
APS_GEOMETRY
 10
1287.957
 20
1720.412
 40
424.86
 50
320.674
 51
329.69
  0
ARC
  8
APS_GEOMETRY
 10
1536.482
 20
1574.793
 40
136.816
 50
329.812
 51
358.395
  0
ARC
  8
APS_GEOMETRY
 10
1568.072
 20
1174.082
 40
161.599
 50
140.179
 51
181.107
  0
ARC
  8
APS_GEOMETRY
 10
1789.111
 20
987.254
 40
451.015
 50
126.501
 51
139.932
  0
ARC
  8
APS_GEOMETRY
 10
-423.577
 20
3981.061
 40
3271.735
 50
306.463
 51
307.948
  0
ARC
  8
APS_GEOMETRY
 10
1389.537
 20
1655.727
 40
323.081
 50
307.984
 51
320.717
  0
ARC
  8
APS_GEOMETRY
 10
1310.957
 20
1720.412
 40
424.86
 50
320.674
 51
329.69
  0
ARC
  8
APS_GEOMETRY
 10
1559.482
 20
1574.793
 40
136.816
 50
329.812
 51
358.395
  0
ARC
  8
APS_GEOMETRY
 10
1591.072
 20
1174.082
 40
161.599
 50
140.179
 51
181.107
  0
ARC
  8
APS_GEOMETRY
 10
1812.111
 20
987.254
 40
451.015
 50
126.501
 51
139.932
  0
ARC
  8
APS_GEOMETRY
 10
-400.577
 20
3981.061
 40
3271.735
 50
306.463
 51
307.948
  0
ARC
  8
APS_GEOMETRY
 10
1412.537
 20
1655.727
 40
323.081
 50
307.984
 51
320.717
  0
ARC
  8
APS_GEOMETRY
 10
1333.957
 20
1720.412
 40
424.86
 50
320.674
 51
329.69
  0
ARC
  8
APS_GEOMETRY
 10
1582.482
 20
1574.793
 40
136.816
 50
329.812
 51
358.395
  0
ARC
  8
APS_GEOMETRY
 10
1614.072
 20
1174.082
 40
161.599
 50
140.179
 51
181.107
  0
ARC
  8
APS_GEOMETRY
 10
1835.111
 20
987.254
 40
451.015
 50
126.501
 51
139.932
  0
ARC
  8
APS_GEOMETRY
 10
-377.577
 20
3981.061
 40
3271.735
 50
306.463
 51
307.948
  0
ARC
  8
APS_GEOMETRY
 10
1435.537
 20
1655.727
 40
323.081
 50
307.984
 51
320.717
  0
ARC
  8
APS_GEOMETRY
 10
1356.957
 20
1720.412
 40
424.86
 50
320.674
 51
329.69
  0
ARC
  8
APS_GEOMETRY
 10
1605.482
 20
1574.793
 40
136.816
 50
329.812
 51
358.395
  0
ARC
  8
APS_GEOMETRY
 10
1637.072
 20
1174.082
 40
161.599
 50
140.179
 51
181.107
  0
ARC
  8
APS_GEOMETRY
 10
1858.111
 20
987.254
 40
451.015
 50
126.501
 51
139.932
  0
ARC
  8
APS_GEOMETRY
 10
-354.577
 20
3981.061
 40
3271.735
 50
306.463
 51
307.948
  0
ARC
  8
APS_GEOMETRY
 10
1458.537
 20
1655.727
 40
323.081
 50
307.984
 51
320.717
  0
ARC
  8
APS_GEOMETRY
 10
1379.957
 20
1720.412
 40
424.86
 50
320.674
 51
329.69
  0
ARC
  8
APS_GEOMETRY
 10
1628.482
 20
1574.793
 40
136.816
 50
329.812
 51
358.395
  0
ARC
  8
APS_GEOMETRY
 10
1660.072
 20
1174.082
 40
161.599
 50
140.179
 51
181.107
  0
ARC
  8
APS_GEOMETRY
 10
1881.111
 20
987.254
 40
451.015
 50
126.501
 51
139.932
  0
ARC
  8
APS_GEOMETRY
 10
-331.577
 20
3981.061
 40
3271.735
 50
306.463
 51
307.948
  0
ARC
  8
APS_GEOMETRY
 10
1481.537
 20
1655.727
 40
323.081
 50
307.984
 51
320.717
  0
ARC
  8
APS_GEOMETRY
 10
1402.957
 20
1720.412
 40
424.86
 50
320.674
 51
329.69
  0
ARC
  8
APS_GEOMETRY
 10
1651.482
 20
1574.793
 40
136.816
 50
329.812
 51
358.395
  0
LINE
  8
APS_GEOMETRY
 10
1673.244
 11
1696.244
 20
1570.96
 21
1570.96
  0
LINE
  8
APS_GEOMETRY
 10
1719.244
 11
1742.244
 20
1570.96
 21
1570.96
  0
LINE
  8
APS_GEOMETRY
 10
1765.244
 11
1788.244
 20
1570.96
 21
1570.96
  0
LINE
  8
APS_GEOMETRY
 10
1383.503
 11
1406.503
 20
1170.96
 21
1170.96
  0
LINE
  8
APS_GEOMETRY
 10
1429.503
 11
1452.503
 20
1170.96
 21
1170.96
  0
LINE
  8
APS_GEOMETRY
 10
1475.503
 11
1498.503
 20
1170.96
 21
1170.96
  0
LINE
  8
APS_GEOMETRY
 10
3750.277
 11
3345.482
 20
-1051.522
 21
-1051.522
  0
LINE
  8
APS_GEOMETRY
 10
3345.482
 11
3345.482
 20
-1051.522
 21
-651.521
  0
LINE
  8
APS_GEOMETRY
 10
3345.482
 11
3750.277
 20
-651.521
 21
-651.521
  0
LINE
  8
APS_GEOMETRY
 10
3750.277
 11
3750.277
 20
-651.521
 21
-1051.522
  0
ARC
  8
APS_GEOMETRY
 10
3507.104
 20
-1048.4
 40
161.599
 50
140.179
 51
181.107
  0
ARC
  8
APS_GEOMETRY
 10
3728.144
 20
-1235.227
 40
451.015
 50
126.501
 51
139.932
  0
ARC
  8
APS_GEOMETRY
 10
1515.456
 20
1758.579
 40
3271.735
 50
306.463
 51
307.948
  0
ARC
  8
APS_GEOMETRY
 10
3328.57
 20
-566.755
 40
323.081
 50
307.984
 51
320.717
  0
ARC
  8
APS_GEOMETRY
 10
3249.99
 20
-502.069
 40
424.86
 50
320.674
 51
329.69
  0
ARC
  8
APS_GEOMETRY
 10
3498.514
 20
-647.689
 40
136.816
 50
329.812
 51
358.395
  0
ARC
  8
APS_GEOMETRY
 10
3530.104
 20
-1048.4
 40
161.599
 50
140.179
 51
181.107
  0
ARC
  8
APS_GEOMETRY
 10
3751.144
 20
-1235.227
 40
451.015
 50
126.501
 51
139.932
  0
ARC
  8
APS_GEOMETRY
 10
1538.456
 20
1758.579
 40
3271.735
 50
306.463
 51
307.948
  0
ARC
  8
APS_GEOMETRY
 10
3351.57
 20
-566.755
 40
323.081
 50
307.984
 51
320.717
  0
ARC
  8
APS_GEOMETRY
 10
3272.99
 20
-502.069
 40
424.86
 50
320.674
 51
329.69
  0
ARC
  8
APS_GEOMETRY
 10
3521.514
 20
-647.689
 40
136.816
 50
329.812
 51
358.395
  0
ARC
  8
APS_GEOMETRY
 10
3553.104
 20
-1048.4
 40
161.599
 50
140.179
 51
181.107
  0
ARC
  8
APS_GEOMETRY
 10
3774.144
 20
-1235.227
 40
451.015
 50
126.501
 51
139.932
  0
ARC
  8
APS_GEOMETRY
 10
1561.456
 20
1758.579
 40
3271.735
 50
306.463
 51
307.948
  0
ARC
  8
APS_GEOMETRY
 10
3374.57
 20
-566.755
 40
323.081
 50
307.984
 51
320.717
  0
ARC
  8
APS_GEOMETRY
 10
3295.99
 20
-502.069
 40
424.86
 50
320.674
 51
329.69
  0
ARC
  8
APS_GEOMETRY
 10
3544.514
 20
-647.689
 40
136.816
 50
329.812
 51
358.395
  0
ARC
  8
APS_GEOMETRY
 10
3576.104
 20
-1048.4
 40
161.599
 50
140.179
 51
181.107
  0
ARC
  8
APS_GEOMETRY
 10
3797.144
 20
-1235.227
 40
451.015
 50
126.501
 51
139.932
  0
ARC
  8
APS_GEOMETRY
 10
1584.456
 20
1758.579
 40
3271.735
 50
306.463
 51
307.948
  0
ARC
  8
APS_GEOMETRY
 10
3397.57
 20
-566.755
 40
323.081
 50
307.984
 51
320.717
  0
ARC
  8
APS_GEOMETRY
 10
3318.99
 20
-502.069
 40
424.86
 50
320.674
 51
329.69
  0
ARC
  8
APS_GEOMETRY
 10
3567.514
 20
-647.689
 40
136.816
 50
329.812
 51
358.395
  0
ARC
  8
APS_GEOMETRY
 10
3599.104
 20
-1048.4
 40
161.599
 50
140.179
 51
181.107
  0
ARC
  8
APS_GEOMETRY
 10
3820.144
 20
-1235.227
 40
451.015
 50
126.501
 51
139.932
  0
ARC
  8
APS_GEOMETRY
 10
1607.456
 20
1758.579
 40
3271.735
 50
306.463
 51
307.948
  0
ARC
  8
APS_GEOMETRY
 10
3420.57
 20
-566.755
 40
323.081
 50
307.984
 51
320.717
  0
ARC
  8
APS_GEOMETRY
 10
3341.99
 20
-502.069
 40
424.86
 50
320.674
 51
329.69
  0
ARC
  8
APS_GEOMETRY
 10
3590.514
 20
-647.689
 40
136.816
 50
329.812
 51
358.395
  0
ARC
  8
APS_GEOMETRY
 10
3622.104
 20
-1048.4
 40
161.599
 50
140.179
 51
181.107
  0
ARC
  8
APS_GEOMETRY
 10
3843.144
 20
-1235.227
 40
451.015
 50
126.501
 51
139.932
  0
ARC
  8
APS_GEOMETRY
 10
1630.456
 20
1758.579
 40
3271.735
 50
306.463
 51
307.948
  0
ARC
  8
APS_GEOMETRY
 10
3443.57
 20
-566.755
 40
323.081
 50
307.984
 51
320.717
  0
ARC
  8
APS_GEOMETRY
 10
3364.99
 20
-502.069
 40
424.86
 50
320.674
 51
329.69
  0
ARC
  8
APS_GEOMETRY
 10
3613.514
 20
-647.689
 40
136.816
 50
329.812
 51
358.395
  0
LINE
  8
APS_GEOMETRY
 10
3635.277
 11
3658.277
 20
-651.521
 21
-651.521
  0
LINE
  8
APS_GEOMETRY
 10
3681.277
 11
3704.277
 20
-651.521
 21
-651.521
  0
LINE
  8
APS_GEOMETRY
 10
3727.277
 11
3750.277
 20
-651.521
 21
-651.521
  0
LINE
  8
APS_GEOMETRY
 10
3345.535
 11
3368.535
 20
-1051.522
 21
-1051.522
  0
LINE
  8
APS_GEOMETRY
 10
3391.535
 11
3414.535
 20
-1051.522
 21
-1051.522
  0
LINE
  8
APS_GEOMETRY
 10
3437.535
 11
3460.535
 20
-1051.522
 21
-1051.522
  0
LINE
  8
QUOTATURA
 10
1813.244
 11
2265.151
 20
1570.96
 21
1570.96
  0
LINE
  8
QUOTATURA
 10
1523.503
 11
2265.151
 20
-261.54
 21
-261.54
  0
LINE
  8
QUOTATURA
 10
2240.151
 11
2240.151
 20
1570.96
 21
692.368
  0
LINE
  8
QUOTATURA
 10
2240.151
 11
2240.151
 20
616.735
 21
-261.54
  0
LINE
  8
QUOTATURA
 10
2231.816
 11
2240.151
 20
1520.96
 21
1570.96
  0
LINE
  8
QUOTATURA
 10
2240.151
 11
2248.486
 20
1570.96
 21
1520.96
  0
LINE
  8
QUOTATURA
 10
2248.486
 11
2231.816
 20
1520.96
 21
1520.96
  0
LINE
  8
QUOTATURA
 10
2248.486
 11
2240.151
 20
-211.54
 21
-261.54
  0
LINE
  8
QUOTATURA
 10
2240.151
 11
2231.816
 20
-261.54
 21
-211.54
  0
LINE
  8
QUOTATURA
 10
2231.816
 11
2248.486
 20
-211.54
 21
-211.54
  0
LINE
  8
QUOTATURA
 10
1813.244
 11
2127.257
 20
138.46
 21
138.46
  0
LINE
  8
QUOTATURA
 10
1523.503
 11
2127.257
 20
-261.54
 21
-261.54
  0
LINE
  8
QUOTATURA
 10
2102.257
 11
2102.257
 20
138.46
 21
-24.023
  0
LINE
  8
QUOTATURA
 10
2102.257
 11
2102.257
 20
-99.65
 21
-261.54
  0
LINE
  8
QUOTATURA
 10
2093.922
 11
2102.257
 20
88.46
 21
138.46
  0
LINE
  8
QUOTATURA
 10
2102.257
 11
2110.592
 20
138.46
 21
88.46
  0
LINE
  8
QUOTATURA
 10
2110.592
 11
2093.922
 20
88.46
 21
88.46
  0
LINE
  8
QUOTATURA
 10
2110.592
 11
2102.257
 20
-211.54
 21
-261.54
  0
LINE
  8
QUOTATURA
 10
2102.257
 11
2093.922
 20
-261.54
 21
-211.54
  0
LINE
  8
QUOTATURA
 10
2093.922
 11
2110.592
 20
-211.54
 21
-211.54
  0
TEXT
  8
QUOTATURA
 10
2133.192
 20
629.71
 30
0.0
 40
50.0
 50
0.0
  1
1832.5
  0
TEXT
  8
QUOTATURA
 10
2031.448
 20
-86.54
 30
0.0
 40
50.0
 50
0.0
  1
400
  0
ENDSEC
  0
EOF
