  0
SECTION
  2
ENTITIES
  0
LINE
  8
APS_GEOMETRY
 10
127.724915
 11
104.122304
 20
-423.744532
 21
-464.625452
  0
LINE
  8
APS_GEOMETRY
 10
104.122304
 11
112.319405
 20
-464.625452
 21
-511.113519
  0
LINE
  8
APS_GEOMETRY
 10
112.319405
 11
67.961008
 20
-511.113519
 21
-527.258655
  0
LINE
  8
APS_GEOMETRY
 10
67.961008
 11
44.358397
 20
-527.258655
 21
-568.139576
  0
LINE
  8
APS_GEOMETRY
 10
44.358397
 11
0.0
 20
-568.139576
 21
-551.994439
  0
LINE
  8
APS_GEOMETRY
 10
0.0
 11
-44.358397
 20
-551.994439
 21
-568.139576
  0
LINE
  8
APS_GEOMETRY
 10
-44.358397
 11
-67.961008
 20
-568.139576
 21
-527.258655
  0
LINE
  8
APS_GEOMETRY
 10
-67.961008
 11
-112.319405
 20
-527.258655
 21
-511.113519
  0
LINE
  8
APS_GEOMETRY
 10
-112.319405
 11
-104.122304
 20
-511.113519
 21
-464.625452
  0
LINE
  8
APS_GEOMETRY
 10
-104.122304
 11
-127.724915
 20
-464.625452
 21
-423.744532
  0
LINE
  8
APS_GEOMETRY
 10
-127.724915
 11
-91.563618
 20
-423.744532
 21
-393.401601
  0
LINE
  8
APS_GEOMETRY
 10
-91.563618
 11
-83.366517
 20
-393.401601
 21
-346.913534
  0
LINE
  8
APS_GEOMETRY
 10
-83.366517
 11
-36.161297
 20
-346.913534
 21
-346.913534
  0
LINE
  8
APS_GEOMETRY
 10
-36.161297
 11
0.0
 20
-346.913534
 21
-316.570603
  0
LINE
  8
APS_GEOMETRY
 10
0.0
 11
36.161297
 20
-316.570603
 21
-346.913534
  0
LINE
  8
APS_GEOMETRY
 10
36.161297
 11
83.366517
 20
-346.913534
 21
-346.913534
  0
LINE
  8
APS_GEOMETRY
 10
83.366517
 11
91.563618
 20
-346.913534
 21
-393.401601
  0
LINE
  8
APS_GEOMETRY
 10
91.563618
 11
127.724915
 20
-393.401601
 21
-423.744532
  0
LINE
  8
APS_GEOMETRY
 10
118.083101
 11
102.09619
 20
-425.444644
 21
-453.134785
  0
LINE
  8
APS_GEOMETRY
 10
102.09619
 11
99.661255
 20
-453.134785
 21
-439.325582
  0
LINE
  8
APS_GEOMETRY
 10
99.661255
 11
60.960556
 20
-439.325582
 21
-435.51689
  0
LINE
  8
APS_GEOMETRY
 10
60.960556
 11
96.024668
 20
-435.51689
 21
-418.701471
  0
LINE
  8
APS_GEOMETRY
 10
96.024668
 11
93.589732
 20
-418.701471
 21
-404.892268
  0
LINE
  8
APS_GEOMETRY
 10
93.589732
 11
118.083101
 20
-404.892268
 21
-425.444644
  0
LINE
  8
APS_GEOMETRY
 10
53.607813
 11
80.806088
 20
-477.216366
 21
-505.010323
  0
LINE
  8
APS_GEOMETRY
 10
80.806088
 11
73.794972
 20
-505.010323
 21
-517.153933
  0
LINE
  8
APS_GEOMETRY
 10
73.794972
 11
103.840536
 20
-517.153933
 21
-506.218242
  0
LINE
  8
APS_GEOMETRY
 10
103.840536
 11
98.28834
 20
-506.218242
 21
-474.730175
  0
LINE
  8
APS_GEOMETRY
 10
98.28834
 11
91.277224
 20
-474.730175
 21
-486.873785
  0
LINE
  8
APS_GEOMETRY
 10
18.395603
 11
20.067144
 20
-468.188907
 21
-490.015152
  0
LINE
  8
APS_GEOMETRY
 10
20.067144
 11
46.602495
 20
-490.015152
 21
-527.051185
  0
LINE
  8
APS_GEOMETRY
 10
46.602495
 11
62.830705
 20
-527.051185
 21
-521.144599
  0
LINE
  8
APS_GEOMETRY
 10
62.830705
 11
71.465556
 20
-521.144599
 21
-506.1886
  0
LINE
  8
APS_GEOMETRY
 10
71.465556
 11
39.599999
 20
-506.1886
 21
-473.625141
  0
LINE
  8
APS_GEOMETRY
 10
56.996741
 11
41.00983
 20
-531.249322
 21
-558.939464
  0
LINE
  8
APS_GEOMETRY
 10
41.00983
 11
10.964267
 20
-558.939464
 21
-548.003773
  0
LINE
  8
APS_GEOMETRY
 10
10.964267
 11
24.140855
 20
-548.003773
 21
-543.207887
  0
LINE
  8
APS_GEOMETRY
 10
24.140855
 11
21.171379
 20
-543.207887
 21
-504.433766
  0
LINE
  8
APS_GEOMETRY
 10
21.171379
 11
43.820152
 20
-504.433766
 21
-536.045208
  0
LINE
  8
APS_GEOMETRY
 10
43.820152
 11
56.996741
 20
-536.045208
 21
-531.249322
  0
LINE
  8
APS_GEOMETRY
 10
-10.964267
 11
-41.00983
 20
-548.003773
 21
-558.939464
  0
LINE
  8
APS_GEOMETRY
 10
-41.00983
 11
-56.996741
 20
-558.939464
 21
-531.249322
  0
LINE
  8
APS_GEOMETRY
 10
-56.996741
 11
-43.820152
 20
-531.249322
 21
-536.045208
  0
LINE
  8
APS_GEOMETRY
 10
-43.820152
 11
-21.171379
 20
-536.045208
 21
-504.433766
  0
LINE
  8
APS_GEOMETRY
 10
-21.171379
 11
-24.140855
 20
-504.433766
 21
-543.207887
  0
LINE
  8
APS_GEOMETRY
 10
-24.140855
 11
-10.964267
 20
-543.207887
 21
-548.003773
  0
LINE
  8
APS_GEOMETRY
 10
-73.794972
 11
-103.840536
 20
-517.153933
 21
-506.218242
  0
LINE
  8
APS_GEOMETRY
 10
-103.840536
 11
-98.28834
 20
-506.218242
 21
-474.730175
  0
LINE
  8
APS_GEOMETRY
 10
-98.28834
 11
-91.277224
 20
-474.730175
 21
-486.873785
  0
LINE
  8
APS_GEOMETRY
 10
-91.277224
 11
-53.607813
 20
-486.873785
 21
-477.216366
  0
LINE
  8
APS_GEOMETRY
 10
-53.607813
 11
-80.806088
 20
-477.216366
 21
-505.010323
  0
LINE
  8
APS_GEOMETRY
 10
-80.806088
 11
-73.794972
 20
-505.010323
 21
-517.153933
  0
LINE
  8
APS_GEOMETRY
 10
-102.09619
 11
-118.083101
 20
-453.134785
 21
-425.444644
  0
LINE
  8
APS_GEOMETRY
 10
-118.083101
 11
-93.589732
 20
-425.444644
 21
-404.892268
  0
LINE
  8
APS_GEOMETRY
 10
-93.589732
 11
-96.024668
 20
-404.892268
 21
-418.701471
  0
LINE
  8
APS_GEOMETRY
 10
-96.024668
 11
-60.960556
 20
-418.701471
 21
-435.51689
  0
LINE
  8
APS_GEOMETRY
 10
-60.960556
 11
-99.661255
 20
-435.51689
 21
-439.325582
  0
LINE
  8
APS_GEOMETRY
 10
-99.661255
 11
-102.09619
 20
-439.325582
 21
-453.134785
  0
LINE
  8
APS_GEOMETRY
 10
-82.625466
 11
-77.07327
 20
-385.901601
 21
-354.413534
  0
LINE
  8
APS_GEOMETRY
 10
-77.07327
 11
-45.099449
 20
-354.413534
 21
-354.413534
  0
LINE
  8
APS_GEOMETRY
 10
-45.099449
 11
-55.841102
 20
-354.413534
 21
-363.426852
  0
LINE
  8
APS_GEOMETRY
 10
-55.841102
 11
-39.789177
 20
-363.426852
 21
-398.846986
  0
LINE
  8
APS_GEOMETRY
 10
-39.789177
 11
-71.883812
 20
-398.846986
 21
-376.888284
  0
LINE
  8
APS_GEOMETRY
 10
-71.883812
 11
-82.625466
 20
-376.888284
 21
-385.901601
  0
LINE
  8
APS_GEOMETRY
 10
-24.493368
 11
0.0
 20
-346.913534
 21
-326.361158
  0
LINE
  8
APS_GEOMETRY
 10
0.0
 11
24.493368
 20
-326.361158
 21
-346.913534
  0
LINE
  8
APS_GEOMETRY
 10
24.493368
 11
10.471135
 20
-346.913534
 21
-346.913534
  0
LINE
  8
APS_GEOMETRY
 10
10.471135
 11
0.0
 20
-346.913534
 21
-384.36491
  0
LINE
  8
APS_GEOMETRY
 10
0.0
 11
-10.471135
 20
-384.36491
 21
-346.913534
  0
LINE
  8
APS_GEOMETRY
 10
-10.471135
 11
-24.493368
 20
-346.913534
 21
-346.913534
  0
LINE
  8
APS_GEOMETRY
 10
45.099449
 11
77.07327
 20
-354.413534
 21
-354.413534
  0
LINE
  8
APS_GEOMETRY
 10
77.07327
 11
82.625466
 20
-354.413534
 21
-385.901601
  0
LINE
  8
APS_GEOMETRY
 10
82.625466
 11
71.883812
 20
-385.901601
 21
-376.888284
  0
LINE
  8
APS_GEOMETRY
 10
71.883812
 11
39.789177
 20
-376.888284
 21
-398.846986
  0
LINE
  8
APS_GEOMETRY
 10
39.789177
 11
55.841102
 20
-398.846986
 21
-363.426852
  0
LINE
  8
APS_GEOMETRY
 10
55.841102
 11
45.099449
 20
-363.426852
 21
-354.413534
  0
LINE
  8
APS_GEOMETRY
 10
-27.854408
 11
-9.788096
 20
-407.012588
 21
-419.373308
  0
LINE
  8
APS_GEOMETRY
 10
-9.788096
 11
-3.893815
 20
-419.373308
 21
-398.291646
  0
LINE
  8
APS_GEOMETRY
 10
-3.893815
 11
-16.161819
 20
-398.291646
 21
-354.413534
  0
LINE
  8
APS_GEOMETRY
 10
-16.161819
 11
-33.43152
 20
-354.413534
 21
-354.413534
  0
LINE
  8
APS_GEOMETRY
 10
-33.43152
 11
-46.660878
 20
-354.413534
 21
-365.514284
  0
LINE
  8
APS_GEOMETRY
 10
-46.660878
 11
-27.854408
 20
-365.514284
 21
-407.012588
  0
LINE
  8
APS_GEOMETRY
 10
-3.250975
 11
0.0
 20
-423.845915
 21
-426.070187
  0
LINE
  8
APS_GEOMETRY
 10
0.0
 11
3.250975
 20
-426.070187
 21
-423.845915
  0
LINE
  8
APS_GEOMETRY
 10
3.250975
 11
0.0
 20
-423.845915
 21
-412.218381
  0
LINE
  8
APS_GEOMETRY
 10
0.0
 11
-3.250975
 20
-412.218381
 21
-423.845915
  0
LINE
  8
APS_GEOMETRY
 10
9.788096
 11
27.854408
 20
-419.373308
 21
-407.012588
  0
LINE
  8
APS_GEOMETRY
 10
27.854408
 11
46.660878
 20
-407.012588
 21
-365.514284
  0
LINE
  8
APS_GEOMETRY
 10
46.660878
 11
33.43152
 20
-365.514284
 21
-354.413534
  0
LINE
  8
APS_GEOMETRY
 10
33.43152
 11
16.161819
 20
-354.413534
 21
-354.413534
  0
LINE
  8
APS_GEOMETRY
 10
16.161819
 11
3.893815
 20
-354.413534
 21
-398.291646
  0
LINE
  8
APS_GEOMETRY
 10
3.893815
 11
9.788096
 20
-398.291646
 21
-419.373308
  0
LINE
  8
APS_GEOMETRY
 10
47.921552
 11
28.183699
 20
-441.769901
 21
-451.235427
  0
LINE
  8
APS_GEOMETRY
 10
28.183699
 11
43.493814
 20
-451.235427
 21
-466.880855
  0
LINE
  8
APS_GEOMETRY
 10
43.493814
 11
87.627375
 20
-466.880855
 21
-478.195508
  0
LINE
  8
APS_GEOMETRY
 10
87.627375
 11
96.262226
 20
-478.195508
 21
-463.239508
  0
LINE
  8
APS_GEOMETRY
 10
96.262226
 11
93.263373
 20
-463.239508
 21
-446.232173
  0
LINE
  8
APS_GEOMETRY
 10
93.263373
 11
47.921552
 20
-446.232173
 21
-441.769901
  0
LINE
  8
APS_GEOMETRY
 10
21.041747
 11
17.489984
 20
-454.660437
 21
-456.363727
  0
LINE
  8
APS_GEOMETRY
 10
17.489984
 11
17.790772
 20
-456.363727
 21
-460.29129
  0
LINE
  8
APS_GEOMETRY
 10
17.790772
 11
29.485999
 20
-460.29129
 21
-463.28963
  0
LINE
  8
APS_GEOMETRY
 10
29.485999
 11
21.041747
 20
-463.28963
 21
-454.660437
  0
LINE
  8
APS_GEOMETRY
 10
-20.067144
 11
-18.395603
 20
-490.015152
 21
-468.188907
  0
LINE
  8
APS_GEOMETRY
 10
-18.395603
 11
-39.599999
 20
-468.188907
 21
-473.625141
  0
LINE
  8
APS_GEOMETRY
 10
-39.599999
 11
-71.465556
 20
-473.625141
 21
-506.1886
  0
LINE
  8
APS_GEOMETRY
 10
-71.465556
 11
-62.830705
 20
-506.1886
 21
-521.144599
  0
LINE
  8
APS_GEOMETRY
 10
-62.830705
 11
-46.602495
 20
-521.144599
 21
-527.051185
  0
LINE
  8
APS_GEOMETRY
 10
-46.602495
 11
-20.067144
 20
-527.051185
 21
-490.015152
  0
LINE
  8
APS_GEOMETRY
 10
-17.790772
 11
-17.489984
 20
-460.29129
 21
-456.363727
  0
LINE
  8
APS_GEOMETRY
 10
-17.489984
 11
-21.041747
 20
-456.363727
 21
-454.660437
  0
LINE
  8
APS_GEOMETRY
 10
-21.041747
 11
-29.485999
 20
-454.660437
 21
-463.28963
  0
LINE
  8
APS_GEOMETRY
 10
-29.485999
 11
-17.790772
 20
-463.28963
 21
-460.29129
  0
LINE
  8
APS_GEOMETRY
 10
-28.183699
 11
-47.921552
 20
-451.235427
 21
-441.769901
  0
LINE
  8
APS_GEOMETRY
 10
-47.921552
 11
-93.263373
 20
-441.769901
 21
-446.232173
  0
LINE
  8
APS_GEOMETRY
 10
-93.263373
 11
-96.262226
 20
-446.232173
 21
-463.239508
  0
LINE
  8
APS_GEOMETRY
 10
-96.262226
 11
-87.627375
 20
-463.239508
 21
-478.195508
  0
LINE
  8
APS_GEOMETRY
 10
-87.627375
 11
-43.493814
 20
-478.195508
 21
-466.880855
  0
LINE
  8
APS_GEOMETRY
 10
-43.493814
 11
-28.183699
 20
-466.880855
 21
-451.235427
  0
LINE
  8
APS_GEOMETRY
 10
-84.65158
 11
-71.422222
 20
-397.392268
 21
-386.291518
  0
LINE
  8
APS_GEOMETRY
 10
-71.422222
 11
-33.820079
 20
-386.291518
 21
-412.018381
  0
LINE
  8
APS_GEOMETRY
 10
-33.820079
 11
-24.784329
 20
-412.018381
 21
-431.956641
  0
LINE
  8
APS_GEOMETRY
 10
-24.784329
 11
-46.569245
 20
-431.956641
 21
-434.100583
  0
LINE
  8
APS_GEOMETRY
 10
-46.569245
 11
-87.650432
 20
-434.100583
 21
-414.399603
  0
LINE
  8
APS_GEOMETRY
 10
-87.650432
 11
-84.65158
 20
-414.399603
 21
-397.392268
  0
LINE
  8
APS_GEOMETRY
 10
-21.885311
 11
-11.920885
 20
-420.183983
 21
-427.001504
  0
LINE
  8
APS_GEOMETRY
 10
-11.920885
 11
-12.981542
 20
-427.001504
 21
-430.795081
  0
LINE
  8
APS_GEOMETRY
 10
-12.981542
 11
-16.901667
 20
-430.795081
 21
-431.180877
  0
LINE
  8
APS_GEOMETRY
 10
-16.901667
 11
-21.885311
 20
-431.180877
 21
-420.183983
  0
LINE
  8
APS_GEOMETRY
 10
-5.383764
 11
0.0
 20
-431.474112
 21
-435.157608
  0
LINE
  8
APS_GEOMETRY
 10
0.0
 11
5.383764
 20
-435.157608
 21
-431.474112
  0
LINE
  8
APS_GEOMETRY
 10
5.383764
 11
7.14026
 20
-431.474112
 21
-437.75645
  0
LINE
  8
APS_GEOMETRY
 10
7.14026
 11
13.632168
 20
-437.75645
 21
-438.395345
  0
LINE
  8
APS_GEOMETRY
 10
13.632168
 11
10.939513
 20
-438.395345
 21
-444.336949
  0
LINE
  8
APS_GEOMETRY
 10
10.939513
 11
15.50193
 20
-444.336949
 21
-448.999289
  0
LINE
  8
APS_GEOMETRY
 10
15.50193
 11
9.620047
 20
-448.999289
 21
-451.820017
  0
LINE
  8
APS_GEOMETRY
 10
9.620047
 11
10.118166
 20
-451.820017
 21
-458.324241
  0
LINE
  8
APS_GEOMETRY
 10
10.118166
 11
3.799253
 20
-458.324241
 21
-456.704243
  0
LINE
  8
APS_GEOMETRY
 10
3.799253
 11
0.0
 20
-456.704243
 21
-462.006952
  0
LINE
  8
APS_GEOMETRY
 10
0.0
 11
-3.799253
 20
-462.006952
 21
-456.704243
  0
LINE
  8
APS_GEOMETRY
 10
-3.799253
 11
-10.118166
 20
-456.704243
 21
-458.324241
  0
LINE
  8
APS_GEOMETRY
 10
-10.118166
 11
-9.620047
 20
-458.324241
 21
-451.820017
  0
LINE
  8
APS_GEOMETRY
 10
-9.620047
 11
-15.50193
 20
-451.820017
 21
-448.999289
  0
LINE
  8
APS_GEOMETRY
 10
-15.50193
 11
-10.939513
 20
-448.999289
 21
-444.336949
  0
LINE
  8
APS_GEOMETRY
 10
-10.939513
 11
-13.632168
 20
-444.336949
 21
-438.395345
  0
LINE
  8
APS_GEOMETRY
 10
-13.632168
 11
-7.14026
 20
-438.395345
 21
-437.75645
  0
LINE
  8
APS_GEOMETRY
 10
-7.14026
 11
-5.383764
 20
-437.75645
 21
-431.474112
  0
LINE
  8
APS_GEOMETRY
 10
11.920885
 11
21.885311
 20
-427.001504
 21
-420.183983
  0
LINE
  8
APS_GEOMETRY
 10
21.885311
 11
16.901667
 20
-420.183983
 21
-431.180877
  0
LINE
  8
APS_GEOMETRY
 10
16.901667
 11
12.981542
 20
-431.180877
 21
-430.795081
  0
LINE
  8
APS_GEOMETRY
 10
12.981542
 11
11.920885
 20
-430.795081
 21
-427.001504
  0
LINE
  8
APS_GEOMETRY
 10
33.820079
 11
71.422222
 20
-412.018381
 21
-386.291518
  0
LINE
  8
APS_GEOMETRY
 10
71.422222
 11
84.65158
 20
-386.291518
 21
-397.392268
  0
LINE
  8
APS_GEOMETRY
 10
84.65158
 11
87.650432
 20
-397.392268
 21
-414.399603
  0
LINE
  8
APS_GEOMETRY
 10
87.650432
 11
46.569245
 20
-414.399603
 21
-434.100583
  0
LINE
  8
APS_GEOMETRY
 10
46.569245
 11
24.784329
 20
-434.100583
 21
-431.956641
  0
LINE
  8
APS_GEOMETRY
 10
24.784329
 11
33.820079
 20
-431.956641
 21
-412.018381
  0
LINE
  8
APS_GEOMETRY
 10
33.530241
 11
22.643882
 20
-440.353594
 21
-445.57428
  0
LINE
  8
APS_GEOMETRY
 10
22.643882
 11
19.888876
 20
-445.57428
 21
-442.758935
  0
LINE
  8
APS_GEOMETRY
 10
19.888876
 11
21.51483
 20
-442.758935
 21
-439.171109
  0
LINE
  8
APS_GEOMETRY
 10
21.51483
 11
33.530241
 20
-439.171109
 21
-440.353594
  0
LINE
  8
APS_GEOMETRY
 10
10.722997
 11
11.644931
 20
-466.221858
 21
-478.260064
  0
LINE
  8
APS_GEOMETRY
 10
11.644931
 11
4.613163
 20
-478.260064
 21
-468.445656
  0
LINE
  8
APS_GEOMETRY
 10
4.613163
 11
6.907334
 20
-468.445656
 21
-465.243625
  0
LINE
  8
APS_GEOMETRY
 10
6.907334
 11
10.722997
 20
-465.243625
 21
-466.221858
  0
LINE
  8
APS_GEOMETRY
 10
12.749165
 11
16.22821
 20
-492.678678
 21
-538.106521
  0
LINE
  8
APS_GEOMETRY
 10
16.22821
 11
0.0
 20
-538.106521
 21
-544.013106
  0
LINE
  8
APS_GEOMETRY
 10
0.0
 11
-16.22821
 20
-544.013106
 21
-538.106521
  0
LINE
  8
APS_GEOMETRY
 10
-16.22821
 11
-12.749165
 20
-538.106521
 21
-492.678678
  0
LINE
  8
APS_GEOMETRY
 10
-12.749165
 11
0.0
 20
-492.678678
 21
-474.884359
  0
LINE
  8
APS_GEOMETRY
 10
0.0
 11
12.749165
 20
-474.884359
 21
-492.678678
  0
LINE
  8
APS_GEOMETRY
 10
-11.644931
 11
-10.722997
 20
-478.260064
 21
-466.221858
  0
LINE
  8
APS_GEOMETRY
 10
-10.722997
 11
-6.907334
 20
-466.221858
 21
-465.243625
  0
LINE
  8
APS_GEOMETRY
 10
-6.907334
 11
-4.613163
 20
-465.243625
 21
-468.445656
  0
LINE
  8
APS_GEOMETRY
 10
-4.613163
 11
-11.644931
 20
-468.445656
 21
-478.260064
  0
LINE
  8
APS_GEOMETRY
 10
-22.643882
 11
-33.530241
 20
-445.57428
 21
-440.353594
  0
LINE
  8
APS_GEOMETRY
 10
-33.530241
 11
-21.51483
 20
-440.353594
 21
-439.171109
  0
LINE
  8
APS_GEOMETRY
 10
-21.51483
 11
-19.888876
 20
-439.171109
 21
-442.758935
  0
LINE
  8
APS_GEOMETRY
 10
-19.888876
 11
-22.643882
 20
-442.758935
 21
-445.57428
  0
LINE
  8
APS_GEOMETRY
 10
18.395603
 11
39.599999
 20
-468.188907
 21
-473.625141
  0
LINE
  8
APS_GEOMETRY
 10
53.607813
 11
91.277224
 20
-477.216366
 21
-486.873785
  0
ARC
  8
APS_GEOMETRY
 10
219.740561
 20
-446.265881
 40
91.759439
 50
0.0
 51
39.592327
  0
ARC
  8
APS_GEOMETRY
 10
115.464291
 20
-532.507196
 40
227.07797
 50
39.592327
 51
63.396701
  0
ARC
  8
APS_GEOMETRY
 10
45.854823
 20
-671.4941
 40
382.521972
 50
63.396701
 51
78.280086
  0
ARC
  8
APS_GEOMETRY
 10
0.0
 20
-892.531761
 40
608.265881
 50
78.280086
 51
90.0
  0
ARC
  8
APS_GEOMETRY
 10
0.0
 20
-892.531761
 40
608.265881
 50
90.0
 51
101.719914
  0
ARC
  8
APS_GEOMETRY
 10
-45.854823
 20
-671.4941
 40
382.521972
 50
101.719914
 51
116.603299
  0
ARC
  8
APS_GEOMETRY
 10
-115.464291
 20
-532.507196
 40
227.07797
 50
116.603299
 51
140.407673
  0
ARC
  8
APS_GEOMETRY
 10
-219.740561
 20
-446.265881
 40
91.759439
 50
140.407673
 51
180.0
  0
ARC
  8
APS_GEOMETRY
 10
-219.740561
 20
-446.265881
 40
91.759439
 50
180.0
 51
219.592327
  0
ARC
  8
APS_GEOMETRY
 10
-115.464291
 20
-360.024565
 40
227.07797
 50
219.592327
 51
243.396701
  0
ARC
  8
APS_GEOMETRY
 10
-45.854823
 20
-221.037661
 40
382.521972
 50
243.396701
 51
258.280086
  0
ARC
  8
APS_GEOMETRY
 10
0.0
 20
0.0
 40
608.265881
 50
258.280086
 51
270.0
  0
ARC
  8
APS_GEOMETRY
 10
0.0
 20
0.0
 40
608.265881
 50
270.0
 51
281.719914
  0
ARC
  8
APS_GEOMETRY
 10
45.854823
 20
-221.037661
 40
382.521972
 50
281.719914
 51
296.603299
  0
ARC
  8
APS_GEOMETRY
 10
115.464291
 20
-360.024565
 40
227.07797
 50
296.603299
 51
320.407673
  0
ARC
  8
APS_GEOMETRY
 10
219.740561
 20
-446.265881
 40
91.759439
 50
320.407673
 51
360.0
  0
ENDSEC
  0
EOF
