  0
SECTION
  2
ENTITIES
  0
LINE
  8
APS_GEOMETRY
 10
15725.034
 11
16552.034
 20
0.0
 21
0.0
  0
LINE
  8
APS_GEOMETRY
 10
16552.034
 11
16552.034
 20
0.0
 21
2048.0
  0
LINE
  8
APS_GEOMETRY
 10
15725.034
 11
15725.034
 20
2048.0
 21
0.0
  0
LINE
  8
QUOTATURA
 10
15725.034
 11
15725.034
 20
-10.0
 21
-102.996
  0
LINE
  8
QUOTATURA
 10
16552.034
 11
16552.034
 20
-10.0
 21
-102.996
  0
LINE
  8
QUOTATURA
 10
15725.034
 11
16108.199
 20
-92.996
 21
-92.996
  0
LINE
  8
QUOTATURA
 10
16168.869
 11
16552.034
 20
-92.996
 21
-92.996
  0
LINE
  8
QUOTATURA
 10
15745.034
 11
15725.034
 20
-96.33
 21
-92.996
  0
LINE
  8
QUOTATURA
 10
15725.034
 11
15745.034
 20
-92.996
 21
-89.662
  0
LINE
  8
QUOTATURA
 10
15745.034
 11
15745.034
 20
-89.662
 21
-96.33
  0
LINE
  8
QUOTATURA
 10
16532.034
 11
16552.034
 20
-89.662
 21
-92.996
  0
LINE
  8
QUOTATURA
 10
16552.034
 11
16532.034
 20
-92.996
 21
-96.33
  0
LINE
  8
QUOTATURA
 10
16532.034
 11
16532.034
 20
-96.33
 21
-89.662
  0
LINE
  8
APS_GEOMETRY
 10
15823.034
 11
15823.034
 20
2048.0
 21
0.0
  0
LINE
  8
APS_GEOMETRY
 10
16454.034
 11
16454.034
 20
0.0
 21
2048.0
  0
LINE
  8
APS_GEOMETRY
 10
15823.034
 11
16454.034
 20
160.0
 21
160.0
  0
LINE
  8
APS_GEOMETRY
 10
16454.034
 11
16424.034
 20
708.0
 21
708.0
  0
ARC
  8
APS_GEOMETRY
 10
16424.034
 20
344.0
 40
364.0
 50
90.0
 51
113.443
  0
ARC
  8
APS_GEOMETRY
 10
16138.534
 20
982.191
 40
335.191
 50
245.183
 51
294.817
  0
ARC
  8
APS_GEOMETRY
 10
15853.034
 20
344.0
 40
364.0
 50
66.557
 51
90.0
  0
LINE
  8
APS_GEOMETRY
 10
15853.034
 11
15823.034
 20
708.0
 21
708.0
  0
LINE
  8
APS_GEOMETRY
 10
16454.034
 11
16424.034
 20
788.0
 21
788.0
  0
ARC
  8
APS_GEOMETRY
 10
16424.034
 20
456.0
 40
332.0
 50
90.0
 51
113.38
  0
ARC
  8
APS_GEOMETRY
 10
16138.534
 20
1094.191
 40
367.191
 50
245.246
 51
294.754
  0
ARC
  8
APS_GEOMETRY
 10
15853.034
 20
456.0
 40
332.0
 50
66.62
 51
90.0
  0
LINE
  8
APS_GEOMETRY
 10
15853.034
 11
15823.034
 20
788.0
 21
788.0
  0
LINE
  8
APS_GEOMETRY
 10
15823.034
 11
15853.034
 20
1025.0
 21
1025.0
  0
ARC
  8
APS_GEOMETRY
 10
15853.034
 20
1357.0
 40
332.0
 50
270.0
 51
293.38
  0
ARC
  8
APS_GEOMETRY
 10
16138.534
 20
718.809
 40
367.191
 50
65.246
 51
114.754
  0
ARC
  8
APS_GEOMETRY
 10
16424.034
 20
1357.0
 40
332.0
 50
246.62
 51
270.0
  0
LINE
  8
APS_GEOMETRY
 10
16424.034
 11
16454.034
 20
1025.0
 21
1025.0
  0
LINE
  8
APS_GEOMETRY
 10
15823.034
 11
15853.034
 20
1105.0
 21
1105.0
  0
ARC
  8
APS_GEOMETRY
 10
15853.034
 20
1469.0
 40
364.0
 50
270.0
 51
293.443
  0
ARC
  8
APS_GEOMETRY
 10
16138.534
 20
830.809
 40
335.191
 50
65.183
 51
114.817
  0
ARC
  8
APS_GEOMETRY
 10
16424.034
 20
1469.0
 40
364.0
 50
246.557
 51
270.0
  0
LINE
  8
APS_GEOMETRY
 10
16424.034
 11
16454.034
 20
1105.0
 21
1105.0
  0
LINE
  8
APS_GEOMETRY
 10
15823.034
 11
15853.034
 20
1950.0
 21
1950.0
  0
ARC
  8
APS_GEOMETRY
 10
15853.034
 20
2282.0
 40
332.0
 50
270.0
 51
293.38
  0
ARC
  8
APS_GEOMETRY
 10
16138.534
 20
1643.809
 40
367.191
 50
65.246
 51
114.754
  0
ARC
  8
APS_GEOMETRY
 10
16424.034
 20
2282.0
 40
332.0
 50
246.62
 51
270.0
  0
LINE
  8
APS_GEOMETRY
 10
16424.034
 11
16454.034
 20
1950.0
 21
1950.0
  0
LINE
  8
APS_GEOMETRY
 10
15839.034
 11
15823.034
 20
176.0
 21
160.0
  0
LINE
  8
APS_GEOMETRY
 10
16438.034
 11
16454.034
 20
176.0
 21
160.0
  0
LINE
  8
APS_GEOMETRY
 10
15839.034
 11
15823.034
 20
692.0
 21
708.0
  0
LINE
  8
APS_GEOMETRY
 10
15823.034
 11
15839.034
 20
788.0
 21
804.0
  0
LINE
  8
APS_GEOMETRY
 10
16438.034
 11
16454.034
 20
804.0
 21
788.0
  0
LINE
  8
APS_GEOMETRY
 10
16454.034
 11
16438.034
 20
708.0
 21
692.0
  0
LINE
  8
APS_GEOMETRY
 10
15823.034
 11
15839.034
 20
1025.0
 21
1009.0
  0
LINE
  8
APS_GEOMETRY
 10
15823.034
 11
15839.034
 20
1105.0
 21
1121.0
  0
LINE
  8
APS_GEOMETRY
 10
16438.034
 11
16454.034
 20
1121.0
 21
1105.0
  0
LINE
  8
APS_GEOMETRY
 10
16438.034
 11
16454.034
 20
1009.0
 21
1025.0
  0
LINE
  8
APS_GEOMETRY
 10
15839.034
 11
15823.034
 20
1934.0
 21
1950.0
  0
LINE
  8
APS_GEOMETRY
 10
16438.034
 11
16454.034
 20
1934.0
 21
1950.0
  0
LINE
  8
APS_GEOMETRY
 10
15839.034
 11
15839.034
 20
1934.0
 21
1121.0
  0
LINE
  8
APS_GEOMETRY
 10
15839.034
 11
15853.034
 20
1121.0
 21
1121.0
  0
ARC
  8
APS_GEOMETRY
 10
15853.034
 20
1469.0
 40
348.0
 50
270.0
 51
293.412
  0
ARC
  8
APS_GEOMETRY
 10
16138.534
 20
830.809
 40
351.191
 50
65.215
 51
114.785
  0
ARC
  8
APS_GEOMETRY
 10
16424.034
 20
1469.0
 40
348.0
 50
246.588
 51
270.0
  0
LINE
  8
APS_GEOMETRY
 10
16424.034
 11
16438.034
 20
1121.0
 21
1121.0
  0
LINE
  8
APS_GEOMETRY
 10
16438.034
 11
16438.034
 20
1121.0
 21
1934.0
  0
LINE
  8
APS_GEOMETRY
 10
16438.034
 11
16424.034
 20
1934.0
 21
1934.0
  0
ARC
  8
APS_GEOMETRY
 10
16424.034
 20
2282.0
 40
348.0
 50
246.588
 51
270.0
  0
ARC
  8
APS_GEOMETRY
 10
16138.534
 20
1643.809
 40
351.191
 50
65.215
 51
114.785
  0
ARC
  8
APS_GEOMETRY
 10
15853.034
 20
2282.0
 40
348.0
 50
270.0
 51
293.412
  0
LINE
  8
APS_GEOMETRY
 10
15853.034
 11
15839.034
 20
1934.0
 21
1934.0
  0
LINE
  8
APS_GEOMETRY
 10
15839.034
 11
15839.034
 20
1009.0
 21
804.0
  0
LINE
  8
APS_GEOMETRY
 10
15839.034
 11
15853.034
 20
804.0
 21
804.0
  0
ARC
  8
APS_GEOMETRY
 10
15853.034
 20
456.0
 40
348.0
 50
66.588
 51
90.0
  0
ARC
  8
APS_GEOMETRY
 10
16138.534
 20
1094.191
 40
351.191
 50
245.215
 51
294.785
  0
ARC
  8
APS_GEOMETRY
 10
16424.034
 20
456.0
 40
348.0
 50
90.0
 51
113.412
  0
LINE
  8
APS_GEOMETRY
 10
16424.034
 11
16438.034
 20
804.0
 21
804.0
  0
LINE
  8
APS_GEOMETRY
 10
16438.034
 11
16438.034
 20
804.0
 21
1009.0
  0
LINE
  8
APS_GEOMETRY
 10
16438.034
 11
16424.034
 20
1009.0
 21
1009.0
  0
ARC
  8
APS_GEOMETRY
 10
16424.034
 20
1357.0
 40
348.0
 50
246.588
 51
270.0
  0
ARC
  8
APS_GEOMETRY
 10
16138.534
 20
718.809
 40
351.191
 50
65.215
 51
114.785
  0
ARC
  8
APS_GEOMETRY
 10
15853.034
 20
1357.0
 40
348.0
 50
270.0
 51
293.412
  0
LINE
  8
APS_GEOMETRY
 10
15853.034
 11
15839.034
 20
1009.0
 21
1009.0
  0
LINE
  8
APS_GEOMETRY
 10
15839.034
 11
15839.034
 20
692.0
 21
176.0
  0
LINE
  8
APS_GEOMETRY
 10
15839.034
 11
16438.034
 20
176.0
 21
176.0
  0
LINE
  8
APS_GEOMETRY
 10
16438.034
 11
16438.034
 20
176.0
 21
692.0
  0
LINE
  8
APS_GEOMETRY
 10
16438.034
 11
16424.034
 20
692.0
 21
692.0
  0
ARC
  8
APS_GEOMETRY
 10
16424.034
 20
344.0
 40
348.0
 50
90.0
 51
113.412
  0
ARC
  8
APS_GEOMETRY
 10
16138.534
 20
982.191
 40
351.191
 50
245.215
 51
294.785
  0
ARC
  8
APS_GEOMETRY
 10
15853.034
 20
344.0
 40
348.0
 50
66.588
 51
90.0
  0
LINE
  8
APS_GEOMETRY
 10
15853.034
 11
15839.034
 20
692.0
 21
692.0
  0
LINE
  8
APS_GEOMETRY
 10
15885.034
 11
15885.034
 20
644.3
 21
222.0
  0
LINE
  8
APS_GEOMETRY
 10
15885.034
 11
16392.034
 20
222.0
 21
222.0
  0
LINE
  8
APS_GEOMETRY
 10
16392.034
 11
16392.034
 20
222.0
 21
644.3
  0
ARC
  8
APS_GEOMETRY
 10
16424.034
 20
344.0
 40
302.0
 50
96.083
 51
113.315
  0
ARC
  8
APS_GEOMETRY
 10
16138.534
 20
982.191
 40
397.191
 50
245.3
 51
294.7
  0
ARC
  8
APS_GEOMETRY
 10
15853.034
 20
344.0
 40
302.0
 50
66.685
 51
83.917
  0
LINE
  8
APS_GEOMETRY
 10
15885.034
 11
15885.034
 20
964.302
 21
848.698
  0
ARC
  8
APS_GEOMETRY
 10
15853.034
 20
456.0
 40
394.0
 50
66.502
 51
85.341
  0
ARC
  8
APS_GEOMETRY
 10
16138.534
 20
1094.191
 40
305.191
 50
245.119
 51
294.881
  0
ARC
  8
APS_GEOMETRY
 10
16424.034
 20
456.0
 40
394.0
 50
94.659
 51
113.498
  0
LINE
  8
APS_GEOMETRY
 10
16392.034
 11
16392.034
 20
848.698
 21
964.302
  0
ARC
  8
APS_GEOMETRY
 10
16424.034
 20
1357.0
 40
394.0
 50
246.502
 51
265.341
  0
ARC
  8
APS_GEOMETRY
 10
16138.534
 20
718.809
 40
305.191
 50
65.119
 51
114.881
  0
ARC
  8
APS_GEOMETRY
 10
15853.034
 20
1357.0
 40
394.0
 50
274.659
 51
293.498
  0
LINE
  8
APS_GEOMETRY
 10
15885.034
 11
15885.034
 20
1889.302
 21
1168.7
  0
ARC
  8
APS_GEOMETRY
 10
15853.034
 20
1469.0
 40
302.0
 50
276.083
 51
293.315
  0
ARC
  8
APS_GEOMETRY
 10
16138.534
 20
830.809
 40
397.191
 50
65.3
 51
114.7
  0
ARC
  8
APS_GEOMETRY
 10
16424.034
 20
1469.0
 40
302.0
 50
246.685
 51
263.917
  0
LINE
  8
APS_GEOMETRY
 10
16392.034
 11
16392.034
 20
1168.7
 21
1889.302
  0
ARC
  8
APS_GEOMETRY
 10
16424.034
 20
2282.0
 40
394.0
 50
246.502
 51
265.341
  0
ARC
  8
APS_GEOMETRY
 10
16138.534
 20
1643.809
 40
305.191
 50
65.119
 51
114.881
  0
ARC
  8
APS_GEOMETRY
 10
15853.034
 20
2282.0
 40
394.0
 50
274.659
 51
293.498
  0
LINE
  8
APS_GEOMETRY
 10
15839.034
 11
15885.034
 20
1934.0
 21
1889.302
  0
LINE
  8
APS_GEOMETRY
 10
16392.034
 11
16438.034
 20
1889.302
 21
1934.0
  0
LINE
  8
APS_GEOMETRY
 10
15839.034
 11
15885.034
 20
1121.0
 21
1168.7
  0
LINE
  8
APS_GEOMETRY
 10
16392.034
 11
16438.034
 20
1168.7
 21
1121.0
  0
LINE
  8
APS_GEOMETRY
 10
15839.034
 11
15885.034
 20
1009.0
 21
964.302
  0
LINE
  8
APS_GEOMETRY
 10
15885.034
 11
15839.034
 20
848.698
 21
804.0
  0
LINE
  8
APS_GEOMETRY
 10
16392.034
 11
16438.034
 20
964.302
 21
1009.0
  0
LINE
  8
APS_GEOMETRY
 10
16392.034
 11
16438.034
 20
848.698
 21
804.0
  0
LINE
  8
APS_GEOMETRY
 10
15885.034
 11
15839.034
 20
644.3
 21
692.0
  0
LINE
  8
APS_GEOMETRY
 10
15839.034
 11
15885.034
 20
176.0
 21
222.0
  0
LINE
  8
APS_GEOMETRY
 10
16438.034
 11
16392.034
 20
176.0
 21
222.0
  0
LINE
  8
APS_GEOMETRY
 10
16392.034
 11
16438.034
 20
644.3
 21
692.0
  0
LINE
  8
APS_GEOMETRY
 10
15126.29
 11
15134.908
 20
-256.631
 21
-256.631
  0
ARC
  8
APS_GEOMETRY
 10
15134.472
 20
-244.283
 40
12.355
 50
272.021
 51
278.44
  0
ARC
  8
APS_GEOMETRY
 10
15134.958
 20
-247.561
 40
9.042
 50
278.44
 51
285.945
  0
ARC
  8
APS_GEOMETRY
 10
15138.617
 20
-260.659
 40
4.559
 50
98.584
 51
104.931
  0
ARC
  8
APS_GEOMETRY
 10
15138.309
 20
-258.619
 40
2.495
 50
90.0
 51
98.584
  0
ARC
  8
APS_GEOMETRY
 10
15138.309
 20
-258.0
 40
1.876
 50
52.871
 51
90.0
  0
ARC
  8
APS_GEOMETRY
 10
15135.764
 20
-261.36
 40
6.091
 50
32.518
 51
52.871
  0
ARC
  8
APS_GEOMETRY
 10
15133.749
 20
-262.645
 40
8.481
 50
17.209
 51
32.518
  0
ARC
  8
APS_GEOMETRY
 10
15135.429
 20
-262.125
 40
6.723
 50
360.0
 51
17.209
  0
ARC
  8
APS_GEOMETRY
 10
15138.793
 20
-262.125
 40
3.359
 50
337.348
 51
360.0
  0
ARC
  8
APS_GEOMETRY
 10
15140.143
 20
-262.688
 40
1.896
 50
307.042
 51
337.348
  0
ARC
  8
APS_GEOMETRY
 10
15139.908
 20
-262.366
 40
2.295
 50
287.186
 51
306.87
  0
ARC
  8
APS_GEOMETRY
 10
15139.699
 20
-261.689
 40
3.003
 50
270.0
 51
287.186
  0
ARC
  8
APS_GEOMETRY
 10
15139.699
 20
-261.995
 40
2.697
 50
252.221
 51
270.0
  0
ARC
  8
APS_GEOMETRY
 10
15139.573
 20
-262.387
 40
2.286
 50
232.896
 51
252.221
  0
ARC
  8
APS_GEOMETRY
 10
15140.058
 20
-261.745
 40
3.09
 50
218.3
 51
232.896
  0
ARC
  8
APS_GEOMETRY
 10
15143.848
 20
-258.752
 40
7.92
 50
209.197
 51
218.3
  0
ARC
  8
APS_GEOMETRY
 10
15124.572
 20
-269.196
 40
14.006
 50
28.025
 51
32.699
  0
ARC
  8
APS_GEOMETRY
 10
15134.65
 20
-262.726
 40
2.03
 50
32.699
 51
45.0
  0
ARC
  8
APS_GEOMETRY
 10
15135.337
 20
-262.039
 40
1.058
 50
45.0
 51
67.557
  0
ARC
  8
APS_GEOMETRY
 10
15135.333
 20
-262.049
 40
1.069
 50
67.557
 51
90.0
  0
ARC
  8
APS_GEOMETRY
 10
15135.333
 20
-261.965
 40
0.984
 50
90.0
 51
120.801
  0
ARC
  8
APS_GEOMETRY
 10
15135.299
 20
-261.909
 40
0.919
 50
120.801
 51
152.7
  0
ARC
  8
APS_GEOMETRY
 10
15136.029
 20
-262.285
 40
1.74
 50
152.7
 51
171.085
  0
ARC
  8
APS_GEOMETRY
 10
15141.573
 20
-263.155
 40
7.353
 50
171.085
 51
180.0
  0
LINE
  8
APS_GEOMETRY
 10
15134.221
 11
15134.221
 20
-263.155
 21
-272.312
  0
ARC
  8
APS_GEOMETRY
 10
15143.934
 20
-272.312
 40
9.714
 50
180.0
 51
188.194
  0
ARC
  8
APS_GEOMETRY
 10
15136.681
 20
-273.357
 40
2.385
 50
188.194
 51
204.775
  0
ARC
  8
APS_GEOMETRY
 10
15135.976
 20
-273.682
 40
1.609
 50
204.775
 51
228.576
  0
ARC
  8
APS_GEOMETRY
 10
15136.637
 20
-272.933
 40
2.608
 50
228.576
 51
247.218
  0
ARC
  8
APS_GEOMETRY
 10
15132.802
 20
-281.969
 40
7.208
 50
59.381
 51
66.93
  0
ARC
  8
APS_GEOMETRY
 10
15135.633
 20
-277.186
 40
1.65
 50
43.568
 51
59.381
  0
ARC
  8
APS_GEOMETRY
 10
15136.086
 20
-276.755
 40
1.025
 50
19.041
 51
43.568
  0
ARC
  8
APS_GEOMETRY
 10
15135.457
 20
-276.972
 40
1.691
 50
360.0
 51
19.041
  0
ARC
  8
APS_GEOMETRY
 10
15135.774
 20
-276.972
 40
1.374
 50
317.66
 51
360.0
  0
ARC
  8
APS_GEOMETRY
 10
15134.513
 20
-275.823
 40
3.08
 50
289.747
 51
317.66
  0
ARC
  8
APS_GEOMETRY
 10
15133.457
 20
-272.881
 40
6.206
 50
281.964
 51
289.747
  0
ARC
  8
APS_GEOMETRY
 10
15131.993
 20
-265.975
 40
13.265
 50
276.643
 51
281.964
  0
ARC
  8
APS_GEOMETRY
 10
15131.377
 20
-260.687
 40
18.589
 50
272.836
 51
276.643
  0
ARC
  8
APS_GEOMETRY
 10
15130.64
 20
-245.799
 40
33.495
 50
270.0
 51
272.836
  0
ARC
  8
APS_GEOMETRY
 10
15130.64
 20
-236.574
 40
42.72
 50
267.283
 51
270.0
  0
ARC
  8
APS_GEOMETRY
 10
15129.743
 20
-255.476
 40
23.797
 50
263.643
 51
267.283
  0
ARC
  8
APS_GEOMETRY
 10
15128.992
 20
-262.217
 40
17.014
 50
258.563
 51
263.643
  0
ARC
  8
APS_GEOMETRY
 10
15127.197
 20
-271.087
 40
7.964
 50
251.136
 51
258.563
  0
ARC
  8
APS_GEOMETRY
 10
15125.595
 20
-275.734
 40
3.05
 50
222.558
 51
251.395
  0
ARC
  8
APS_GEOMETRY
 10
15124.406
 20
-276.825
 40
1.436
 50
180.0
 51
222.558
  0
ARC
  8
APS_GEOMETRY
 10
15124.167
 20
-276.825
 40
1.196
 50
150.642
 51
180.0
  0
ARC
  8
APS_GEOMETRY
 10
15124.262
 20
-276.879
 40
1.306
 50
122.574
 51
150.642
  0
ARC
  8
APS_GEOMETRY
 10
15124.009
 20
-276.588
 40
0.926
 50
108.677
 51
119.055
  0
ARC
  8
APS_GEOMETRY
 10
15135.567
 20
-310.78
 40
37.018
 50
107.038
 51
108.677
  0
ARC
  8
APS_GEOMETRY
 10
15124.29
 20
-273.898
 40
1.549
 50
286.144
 51
308.66
  0
ARC
  8
APS_GEOMETRY
 10
15124.543
 20
-274.215
 40
1.143
 50
308.66
 51
334.933
  0
ARC
  8
APS_GEOMETRY
 10
15123.511
 20
-273.732
 40
2.283
 50
334.933
 51
348.829
  0
ARC
  8
APS_GEOMETRY
 10
15110.598
 20
-271.182
 40
15.445
 50
348.829
 51
354.161
  0
ARC
  8
APS_GEOMETRY
 10
15101.87
 20
-270.282
 40
24.219
 50
354.144
 51
355.66
  0
ARC
  8
APS_GEOMETRY
 10
15063.182
 20
-267.346
 40
63.019
 50
355.66
 51
356.6
  0
ARC
  8
APS_GEOMETRY
 10
15033.607
 20
-265.59
 40
92.646
 50
356.6
 51
357.24
  0
ARC
  8
APS_GEOMETRY
 10
14949.695
 20
-261.544
 40
176.656
 50
357.24
 51
357.703
  0
ARC
  8
APS_GEOMETRY
 10
14957.955
 20
-261.875
 40
168.389
 50
357.703
 51
358.674
  0
ARC
  8
APS_GEOMETRY
 10
15035.871
 20
-263.678
 40
90.452
 50
358.674
 51
0.0
  0
ARC
  8
APS_GEOMETRY
 10
15112.918
 20
-263.678
 40
13.405
 50
360.0
 51
6.242
  0
ARC
  8
APS_GEOMETRY
 10
15123.577
 20
-262.512
 40
2.682
 50
6.242
 51
20.225
  0
ARC
  8
APS_GEOMETRY
 10
15125.055
 20
-261.968
 40
1.107
 50
20.225
 51
50.44
  0
ARC
  8
APS_GEOMETRY
 10
15125.342
 20
-261.621
 40
0.657
 50
50.44
 51
90.0
  0
ARC
  8
APS_GEOMETRY
 10
15125.342
 20
-261.845
 40
0.881
 50
90.0
 51
126.747
  0
ARC
  8
APS_GEOMETRY
 10
15126.587
 20
-263.512
 40
2.962
 50
126.747
 51
146.547
  0
ARC
  8
APS_GEOMETRY
 10
15104.593
 20
-249.056
 40
23.357
 50
324.255
 51
326.701
  0
ARC
  8
APS_GEOMETRY
 10
15113.904
 20
-255.758
 40
11.885
 50
320.826
 51
324.255
  0
ARC
  8
APS_GEOMETRY
 10
15116.948
 20
-258.238
 40
7.959
 50
315.722
 51
320.826
  0
ARC
  8
APS_GEOMETRY
 10
15120.445
 20
-261.648
 40
3.075
 50
307.504
 51
315.722
  0
ARC
  8
APS_GEOMETRY
 10
15120.122
 20
-261.217
 40
3.613
 50
291.306
 51
307.405
  0
ARC
  8
APS_GEOMETRY
 10
15120.682
 20
-262.652
 40
2.073
 50
270.0
 51
291.306
  0
ARC
  8
APS_GEOMETRY
 10
15120.682
 20
-262.785
 40
1.939
 50
245.532
 51
270.0
  0
ARC
  8
APS_GEOMETRY
 10
15120.667
 20
-262.818
 40
1.904
 50
220.833
 51
245.532
  0
ARC
  8
APS_GEOMETRY
 10
15120.863
 20
-262.648
 40
2.164
 50
198.684
 51
220.833
  0
ARC
  8
APS_GEOMETRY
 10
15121.684
 20
-262.37
 40
3.03
 50
180.0
 51
198.684
  0
ARC
  8
APS_GEOMETRY
 10
15123.608
 20
-262.37
 40
4.954
 50
168.408
 51
180.0
  0
ARC
  8
APS_GEOMETRY
 10
15126.784
 20
-263.022
 40
8.196
 50
159.402
 51
168.408
  0
ARC
  8
APS_GEOMETRY
 10
15127.766
 20
-263.391
 40
9.245
 50
151.39
 51
159.402
  0
ARC
  8
APS_GEOMETRY
 10
15127.565
 20
-263.281
 40
9.016
 50
143.276
 51
151.39
  0
ARC
  8
APS_GEOMETRY
 10
15125.04
 20
-261.393
 40
5.863
 50
124.216
 51
143.31
  0
ARC
  8
APS_GEOMETRY
 10
15122.791
 20
-258.086
 40
1.864
 50
90.0
 51
124.216
  0
ARC
  8
APS_GEOMETRY
 10
15122.791
 20
-258.914
 40
2.692
 50
82.725
 51
90.0
  0
ARC
  8
APS_GEOMETRY
 10
15122.581
 20
-260.562
 40
4.353
 50
77.005
 51
82.725
  0
ARC
  8
APS_GEOMETRY
 10
15129.005
 20
-229.589
 40
27.28
 50
258.486
 51
260.378
  0
ARC
  8
APS_GEOMETRY
 10
15126.253
 20
-245.821
 40
10.816
 50
260.378
 51
263.382
  0
ARC
  8
APS_GEOMETRY
 10
15126.017
 20
-247.85
 40
8.774
 50
263.382
 51
267.084
  0
ARC
  8
APS_GEOMETRY
 10
15126.29
 20
-242.494
 40
14.137
 50
267.084
 51
270.0
  0
ARC
  8
APS_GEOMETRY
 10
15156.154
 20
-269.064
 40
12.891
 50
71.91
 51
90.0
  0
ARC
  8
APS_GEOMETRY
 10
15156.653
 20
-267.535
 40
11.283
 50
52.561
 51
71.91
  0
ARC
  8
APS_GEOMETRY
 10
15156.522
 20
-267.573
 40
11.393
 50
38.846
 51
52.156
  0
ARC
  8
APS_GEOMETRY
 10
15154.736
 20
-269.012
 40
13.686
 50
26.707
 51
38.846
  0
ARC
  8
APS_GEOMETRY
 10
15155.09
 20
-268.723
 40
13.241
 50
13.868
 51
26.278
  0
ARC
  8
APS_GEOMETRY
 10
15157.64
 20
-268.093
 40
10.614
 50
360.0
 51
13.868
  0
ARC
  8
APS_GEOMETRY
 10
15157.805
 20
-268.093
 40
10.449
 50
339.712
 51
360.0
  0
ARC
  8
APS_GEOMETRY
 10
15157.216
 20
-267.876
 40
11.076
 50
320.013
 51
339.712
  0
ARC
  8
APS_GEOMETRY
 10
15157.119
 20
-267.822
 40
11.186
 50
303.344
 51
320.123
  0
ARC
  8
APS_GEOMETRY
 10
15155.971
 20
-266.077
 40
13.274
 50
287.949
 51
303.344
  0
ARC
  8
APS_GEOMETRY
 10
15155.594
 20
-264.77
 40
14.634
 50
279.039
 51
287.776
  0
ARC
  8
APS_GEOMETRY
 10
15155.745
 20
-265.719
 40
13.673
 50
270.0
 51
279.039
  0
ARC
  8
APS_GEOMETRY
 10
15155.745
 20
-266.387
 40
13.005
 50
257.728
 51
270.0
  0
ARC
  8
APS_GEOMETRY
 10
15155.765
 20
-266.293
 40
13.102
 50
245.501
 51
257.728
  0
ARC
  8
APS_GEOMETRY
 10
15155.029
 20
-267.904
 40
11.33
 50
228.665
 51
245.511
  0
ARC
  8
APS_GEOMETRY
 10
15154.784
 20
-268.183
 40
10.959
 50
211.535
 51
228.665
  0
ARC
  8
APS_GEOMETRY
 10
15155.105
 20
-267.947
 40
11.356
 50
195.642
 51
211.701
  0
ARC
  8
APS_GEOMETRY
 10
15155.692
 20
-267.783
 40
11.966
 50
180.0
 51
195.642
  0
ARC
  8
APS_GEOMETRY
 10
15155.818
 20
-267.783
 40
12.091
 50
162.181
 51
180.0
  0
ARC
  8
APS_GEOMETRY
 10
15154.714
 20
-267.428
 40
10.933
 50
143.434
 51
162.181
  0
ARC
  8
APS_GEOMETRY
 10
15154.566
 20
-267.309
 40
10.742
 50
126.384
 51
143.471
  0
ARC
  8
APS_GEOMETRY
 10
15155.583
 20
-268.689
 40
12.457
 50
110.525
 51
126.384
  0
ARC
  8
APS_GEOMETRY
 10
15155.533
 20
-268.315
 40
12.089
 50
99.77
 51
110.925
  0
ARC
  8
APS_GEOMETRY
 10
15156.154
 20
-271.921
 40
15.748
 50
90.0
 51
99.77
  0
ARC
  8
APS_GEOMETRY
 10
15154.6
 20
-263.269
 40
2.404
 50
90.0
 51
119.604
  0
ARC
  8
APS_GEOMETRY
 10
15154.811
 20
-263.64
 40
2.83
 50
119.604
 51
146.842
  0
ARC
  8
APS_GEOMETRY
 10
15155.234
 20
-263.987
 40
3.374
 50
145.84
 51
164.055
  0
ARC
  8
APS_GEOMETRY
 10
15156.215
 20
-264.267
 40
4.394
 50
164.055
 51
180.0
  0
ARC
  8
APS_GEOMETRY
 10
15162.347
 20
-264.267
 40
10.526
 50
180.0
 51
189.977
  0
ARC
  8
APS_GEOMETRY
 10
15171.673
 20
-262.626
 40
19.995
 50
189.977
 51
197.211
  0
ARC
  8
APS_GEOMETRY
 10
15173.712
 20
-261.995
 40
22.131
 50
197.211
 51
203.76
  0
ARC
  8
APS_GEOMETRY
 10
15168.631
 20
-264.232
 40
16.579
 50
203.76
 51
211.329
  0
ARC
  8
APS_GEOMETRY
 10
15158.197
 20
-270.493
 40
4.411
 50
212.32
 51
224.441
  0
ARC
  8
APS_GEOMETRY
 10
15157.769
 20
-270.913
 40
3.812
 50
224.441
 51
237.484
  0
ARC
  8
APS_GEOMETRY
 10
15157.493
 20
-271.346
 40
3.298
 50
237.484
 51
252.416
  0
ARC
  8
APS_GEOMETRY
 10
15157.217
 20
-272.218
 40
2.383
 50
252.416
 51
270.0
  0
ARC
  8
APS_GEOMETRY
 10
15157.217
 20
-271.936
 40
2.666
 50
270.0
 51
294.953
  0
ARC
  8
APS_GEOMETRY
 10
15157.291
 20
-272.096
 40
2.489
 50
294.953
 51
320.793
  0
ARC
  8
APS_GEOMETRY
 10
15156.891
 20
-271.769
 40
3.005
 50
320.793
 51
342.777
  0
ARC
  8
APS_GEOMETRY
 10
15155.107
 20
-271.216
 40
4.873
 50
342.777
 51
0.0
  0
ARC
  8
APS_GEOMETRY
 10
15146.726
 20
-271.216
 40
13.254
 50
0.0
 51
8.499
  0
ARC
  8
APS_GEOMETRY
 10
15140.893
 20
-272.088
 40
19.152
 50
8.499
 51
15.566
  0
ARC
  8
APS_GEOMETRY
 10
15141.594
 20
-271.893
 40
18.424
 50
15.566
 51
22.909
  0
ARC
  8
APS_GEOMETRY
 10
15147.626
 20
-269.344
 40
11.876
 50
22.909
 51
32.057
  0
ARC
  8
APS_GEOMETRY
 10
15152.364
 20
-266.359
 40
6.276
 50
31.921
 51
42.51
  0
ARC
  8
APS_GEOMETRY
 10
15153.665
 20
-265.166
 40
4.511
 50
42.51
 51
55.008
  0
ARC
  8
APS_GEOMETRY
 10
15154.104
 20
-264.539
 40
3.745
 50
55.008
 51
69.88
  0
ARC
  8
APS_GEOMETRY
 10
15154.498
 20
-263.463
 40
2.599
 50
69.88
 51
87.754
  0
ARC
  8
APS_GEOMETRY
 10
15180.364
 20
-264.164
 40
7.992
 50
83.923
 51
90.0
  0
ARC
  8
APS_GEOMETRY
 10
15179.721
 20
-270.202
 40
14.063
 50
79.342
 51
83.923
  0
ARC
  8
APS_GEOMETRY
 10
15178.946
 20
-274.322
 40
18.256
 50
75.808
 51
79.342
  0
ARC
  8
APS_GEOMETRY
 10
15176.241
 20
-285.02
 40
29.29
 50
73.018
 51
75.808
  0
ARC
  8
APS_GEOMETRY
 10
15185.766
 20
-253.773
 40
3.376
 50
253.288
 51
259.046
  0
ARC
  8
APS_GEOMETRY
 10
15185.302
 20
-256.17
 40
0.935
 50
259.046
 51
270.0
  0
ARC
  8
APS_GEOMETRY
 10
15185.302
 20
-256.55
 40
0.555
 50
270.0
 51
286.699
  0
ARC
  8
APS_GEOMETRY
 10
15180.866
 20
-241.761
 40
15.995
 50
286.699
 51
289.799
  0
ARC
  8
APS_GEOMETRY
 10
15186.811
 20
-258.216
 40
1.501
 50
100.008
 51
110.556
  0
ARC
  8
APS_GEOMETRY
 10
15186.839
 20
-258.38
 40
1.667
 50
90.0
 51
100.008
  0
ARC
  8
APS_GEOMETRY
 10
15186.839
 20
-258.302
 40
1.59
 50
53.356
 51
90.0
  0
ARC
  8
APS_GEOMETRY
 10
15184.062
 20
-262.035
 40
6.242
 50
35.101
 51
53.356
  0
ARC
  8
APS_GEOMETRY
 10
15182.677
 20
-263.009
 40
7.936
 50
20.245
 51
35.101
  0
ARC
  8
APS_GEOMETRY
 10
15186.094
 20
-261.749
 40
4.294
 50
360.0
 51
20.245
  0
ARC
  8
APS_GEOMETRY
 10
15187.813
 20
-261.749
 40
2.575
 50
340.481
 51
360.0
  0
ARC
  8
APS_GEOMETRY
 10
15188.237
 20
-261.899
 40
2.125
 50
318.972
 51
340.481
  0
ARC
  8
APS_GEOMETRY
 10
15188.426
 20
-262.064
 40
1.874
 50
295.017
 51
318.972
  0
ARC
  8
APS_GEOMETRY
 10
15188.491
 20
-262.203
 40
1.721
 50
270.0
 51
295.017
  0
ARC
  8
APS_GEOMETRY
 10
15188.491
 20
-261.281
 40
2.643
 50
256.171
 51
270.0
  0
ARC
  8
APS_GEOMETRY
 10
15188.203
 20
-262.451
 40
1.437
 50
237.381
 51
256.171
  0
ARC
  8
APS_GEOMETRY
 10
15188.713
 20
-261.654
 40
2.384
 50
231.559
 51
237.381
  0
ARC
  8
APS_GEOMETRY
 10
15196.134
 20
-252.304
 40
14.321
 50
229.185
 51
231.559
  0
ARC
  8
APS_GEOMETRY
 10
15204.088
 20
-243.095
 40
26.49
 50
227.9
 51
229.185
  0
ARC
  8
APS_GEOMETRY
 10
15231.615
 20
-212.631
 40
67.548
 50
227.095
 51
227.9
  0
ARC
  8
APS_GEOMETRY
 10
15179.933
 20
-268.212
 40
8.348
 50
46.975
 51
64.612
  0
ARC
  8
APS_GEOMETRY
 10
15181.77
 20
-264.34
 40
4.063
 50
64.612
 51
90.0
  0
ARC
  8
APS_GEOMETRY
 10
15181.77
 20
-263.205
 40
2.928
 50
90.0
 51
106.966
  0
ARC
  8
APS_GEOMETRY
 10
15181.431
 20
-262.093
 40
1.766
 50
106.966
 51
128.868
  0
ARC
  8
APS_GEOMETRY
 10
15181.235
 20
-261.85
 40
1.453
 50
128.868
 51
154.741
  0
ARC
  8
APS_GEOMETRY
 10
15181.298
 20
-261.88
 40
1.523
 50
154.741
 51
180.0
  0
ARC
  8
APS_GEOMETRY
 10
15181.206
 20
-261.88
 40
1.43
 50
180.0
 51
206.64
  0
ARC
  8
APS_GEOMETRY
 10
15181.666
 20
-261.649
 40
1.945
 50
206.64
 51
229.43
  0
ARC
  8
APS_GEOMETRY
 10
15182.404
 20
-260.787
 40
3.08
 50
229.43
 51
244.493
  0
ARC
  8
APS_GEOMETRY
 10
15184.427
 20
-256.547
 40
7.777
 50
244.493
 51
253.956
  0
ARC
  8
APS_GEOMETRY
 10
15148.391
 20
-379.012
 40
119.879
 50
72.737
 51
73.58
  0
ARC
  8
APS_GEOMETRY
 10
15169.043
 20
-312.554
 40
50.287
 50
71.435
 51
72.737
  0
ARC
  8
APS_GEOMETRY
 10
15175.883
 20
-292.187
 40
28.801
 50
69.164
 51
71.435
  0
ARC
  8
APS_GEOMETRY
 10
15183.956
 20
-270.976
 40
6.106
 50
64.231
 51
69.164
  0
ARC
  8
APS_GEOMETRY
 10
15183.027
 20
-272.845
 40
8.193
 50
34.939
 51
64.068
  0
ARC
  8
APS_GEOMETRY
 10
15185.031
 20
-271.445
 40
5.749
 50
360.0
 51
34.939
  0
ARC
  8
APS_GEOMETRY
 10
15183.799
 20
-271.445
 40
6.981
 50
333.435
 51
360.0
  0
ARC
  8
APS_GEOMETRY
 10
15183.343
 20
-271.217
 40
7.491
 50
307.807
 51
333.435
  0
ARC
  8
APS_GEOMETRY
 10
15182.155
 20
-269.681
 40
9.433
 50
296.732
 51
307.786
  0
ARC
  8
APS_GEOMETRY
 10
15181.453
 20
-268.286
 40
10.995
 50
286.496
 51
296.732
  0
ARC
  8
APS_GEOMETRY
 10
15180.99
 20
-266.723
 40
12.625
 50
277.544
 51
286.496
  0
ARC
  8
APS_GEOMETRY
 10
15180.315
 20
-261.628
 40
17.765
 50
270.0
 51
277.544
  0
ARC
  8
APS_GEOMETRY
 10
15180.315
 20
-260.857
 40
18.535
 50
263.555
 51
270.0
  0
ARC
  8
APS_GEOMETRY
 10
15180.915
 20
-255.545
 40
23.881
 50
257.878
 51
263.555
  0
ARC
  8
APS_GEOMETRY
 10
15180.597
 20
-257.028
 40
22.364
 50
254.839
 51
257.878
  0
ARC
  8
APS_GEOMETRY
 10
15178.013
 20
-266.562
 40
12.487
 50
250.772
 51
254.839
  0
ARC
  8
APS_GEOMETRY
 10
15176.851
 20
-269.893
 40
8.959
 50
245.121
 51
250.772
  0
ARC
  8
APS_GEOMETRY
 10
15174.885
 20
-274.134
 40
4.284
 50
236.944
 51
245.121
  0
ARC
  8
APS_GEOMETRY
 10
15173.725
 20
-275.959
 40
2.122
 50
211.802
 51
236.31
  0
ARC
  8
APS_GEOMETRY
 10
15179.237
 20
-272.541
 40
8.608
 50
199.704
 51
211.802
  0
ARC
  8
APS_GEOMETRY
 10
15181.869
 20
-271.598
 40
11.404
 50
190.413
 51
199.704
  0
ARC
  8
APS_GEOMETRY
 10
15179.588
 20
-272.018
 40
9.084
 50
180.0
 51
190.413
  0
ARC
  8
APS_GEOMETRY
 10
15173.438
 20
-272.018
 40
2.934
 50
164.876
 51
180.0
  0
ARC
  8
APS_GEOMETRY
 10
15171.785
 20
-271.571
 40
1.222
 50
141.34
 51
164.876
  0
ARC
  8
APS_GEOMETRY
 10
15171.945
 20
-271.678
 40
1.414
 50
116.928
 51
142.001
  0
ARC
  8
APS_GEOMETRY
 10
15171.861
 20
-271.513
 40
1.229
 50
90.0
 51
116.928
  0
ARC
  8
APS_GEOMETRY
 10
15171.861
 20
-271.516
 40
1.232
 50
62.21
 51
90.0
  0
ARC
  8
APS_GEOMETRY
 10
15171.369
 20
-272.449
 40
2.287
 50
41.906
 51
62.21
  0
ARC
  8
APS_GEOMETRY
 10
15171.453
 20
-272.467
 40
2.237
 50
37.313
 51
43.668
  0
ARC
  8
APS_GEOMETRY
 10
15158.919
 20
-282.02
 40
17.997
 50
35.074
 51
37.313
  0
ARC
  8
APS_GEOMETRY
 10
15144.685
 20
-292.014
 40
35.389
 50
33.934
 51
35.074
  0
ARC
  8
APS_GEOMETRY
 10
15093.936
 20
-326.159
 40
96.555
 50
33.243
 51
33.934
  0
ARC
  8
APS_GEOMETRY
 10
15177.496
 20
-271.374
 40
3.363
 50
213.453
 51
231.637
  0
ARC
  8
APS_GEOMETRY
 10
15179.085
 20
-269.366
 40
5.924
 50
231.637
 51
245.313
  0
ARC
  8
APS_GEOMETRY
 10
15179.435
 20
-268.604
 40
6.762
 50
245.313
 51
257.398
  0
ARC
  8
APS_GEOMETRY
 10
15179.318
 20
-269.132
 40
6.222
 50
257.398
 51
270.0
  0
ARC
  8
APS_GEOMETRY
 10
15179.318
 20
-270.101
 40
5.253
 50
270.0
 51
282.907
  0
ARC
  8
APS_GEOMETRY
 10
15179.883
 20
-272.567
 40
2.722
 50
282.907
 51
300.872
  0
ARC
  8
APS_GEOMETRY
 10
15180.373
 20
-273.387
 40
1.767
 50
300.872
 51
326.876
  0
ARC
  8
APS_GEOMETRY
 10
15180.931
 20
-273.751
 40
1.101
 50
326.876
 51
0.0
  0
ARC
  8
APS_GEOMETRY
 10
15180.766
 20
-273.751
 40
1.266
 50
0.0
 51
27.553
  0
ARC
  8
APS_GEOMETRY
 10
15180.366
 20
-273.96
 40
1.717
 50
27.553
 51
51.147
  0
ARC
  8
APS_GEOMETRY
 10
15179.539
 20
-274.987
 40
3.036
 50
51.147
 51
65.225
  0
ARC
  8
APS_GEOMETRY
 10
15176.487
 20
-281.599
 40
10.318
 50
65.225
 51
72.848
  0
ARC
  8
APS_GEOMETRY
 10
15194.308
 20
-224.779
 40
49.231
 50
251.106
 51
252.532
  0
ARC
  8
APS_GEOMETRY
 10
15188.0
 20
-243.21
 40
29.751
 50
249.271
 51
251.106
  0
ARC
  8
APS_GEOMETRY
 10
15185.377
 20
-250.139
 40
22.341
 50
246.83
 51
249.271
  0
ARC
  8
APS_GEOMETRY
 10
15181.135
 20
-260.051
 40
11.56
 50
243.435
 51
246.83
  0
ARC
  8
APS_GEOMETRY
 10
15180.653
 20
-261.016
 40
10.481
 50
235.981
 51
243.435
  0
ARC
  8
APS_GEOMETRY
 10
15181.023
 20
-260.467
 40
11.144
 50
228.752
 51
235.981
  0
ARC
  8
APS_GEOMETRY
 10
15179.286
 20
-262.514
 40
8.459
 50
206.421
 51
228.457
  0
ARC
  8
APS_GEOMETRY
 10
15177.009
 20
-263.646
 40
5.916
 50
180.0
 51
206.421
  0
ARC
  8
APS_GEOMETRY
 10
15177.116
 20
-263.646
 40
6.024
 50
166.555
 51
180.0
  0
ARC
  8
APS_GEOMETRY
 10
15177.814
 20
-263.812
 40
6.741
 50
153.848
 51
166.555
  0
ARC
  8
APS_GEOMETRY
 10
15177.872
 20
-263.841
 40
6.806
 50
141.244
 51
153.848
  0
ARC
  8
APS_GEOMETRY
 10
15178.302
 20
-264.186
 40
7.357
 50
129.123
 51
141.244
  0
ARC
  8
APS_GEOMETRY
 10
15179.679
 20
-265.65
 40
9.362
 50
108.978
 51
130.006
  0
ARC
  8
APS_GEOMETRY
 10
15180.364
 20
-267.643
 40
11.47
 50
90.0
 51
108.978
  0
ARC
  8
APS_GEOMETRY
 10
15205.359
 20
-266.805
 40
10.632
 50
77.257
 51
90.0
  0
ARC
  8
APS_GEOMETRY
 10
15205.251
 20
-267.282
 40
11.122
 50
64.799
 51
77.257
  0
ARC
  8
APS_GEOMETRY
 10
15214.41
 20
-247.783
 40
10.421
 50
244.885
 51
251.175
  0
ARC
  8
APS_GEOMETRY
 10
15211.426
 20
-256.537
 40
1.173
 50
251.175
 51
270.0
  0
ARC
  8
APS_GEOMETRY
 10
15211.426
 20
-255.807
 40
1.903
 50
270.0
 51
278.82
  0
ARC
  8
APS_GEOMETRY
 10
15210.196
 20
-247.883
 40
9.922
 50
278.82
 51
282.68
  0
ARC
  8
APS_GEOMETRY
 10
15212.769
 20
-259.273
 40
1.755
 50
95.906
 51
102.995
  0
ARC
  8
APS_GEOMETRY
 10
15212.848
 20
-260.041
 40
2.528
 50
90.0
 51
95.906
  0
ARC
  8
APS_GEOMETRY
 10
15212.848
 20
-259.191
 40
1.678
 50
62.447
 51
90.0
  0
ARC
  8
APS_GEOMETRY
 10
15212.55
 20
-259.763
 40
2.323
 50
39.094
 51
62.447
  0
ARC
  8
APS_GEOMETRY
 10
15209.433
 20
-262.37
 40
6.386
 50
18.435
 51
39.611
  0
ARC
  8
APS_GEOMETRY
 10
15207.52
 20
-263.008
 40
8.403
 50
360.0
 51
18.435
  0
ARC
  8
APS_GEOMETRY
 10
15211.756
 20
-263.008
 40
4.167
 50
334.877
 51
360.0
  0
ARC
  8
APS_GEOMETRY
 10
15213.009
 20
-263.596
 40
2.783
 50
304.007
 51
334.877
  0
ARC
  8
APS_GEOMETRY
 10
15212.988
 20
-263.537
 40
2.843
 50
286.39
 51
303.69
  0
ARC
  8
APS_GEOMETRY
 10
15212.897
 20
-263.228
 40
3.165
 50
270.0
 51
286.39
  0
ARC
  8
APS_GEOMETRY
 10
15212.897
 20
-263.264
 40
3.128
 50
255.155
 51
270.0
  0
ARC
  8
APS_GEOMETRY
 10
15212.555
 20
-264.557
 40
1.791
 50
235.491
 51
255.155
  0
ARC
  8
APS_GEOMETRY
 10
15212.727
 20
-264.307
 40
2.094
 50
218.48
 51
235.491
  0
ARC
  8
APS_GEOMETRY
 10
15215.537
 20
-262.073
 40
5.684
 50
208.179
 51
218.48
  0
ARC
  8
APS_GEOMETRY
 10
15186.725
 20
-277.713
 40
27.099
 50
28.56
 51
31.664
  0
ARC
  8
APS_GEOMETRY
 10
15204.331
 20
-266.854
 40
6.414
 50
31.664
 51
38.047
  0
ARC
  8
APS_GEOMETRY
 10
15205.611
 20
-265.853
 40
4.788
 50
38.047
 51
46.56
  0
ARC
  8
APS_GEOMETRY
 10
15204.946
 20
-266.555
 40
5.756
 50
46.56
 51
54.324
  0
ARC
  8
APS_GEOMETRY
 10
15204.562
 20
-267.216
 40
6.517
 50
54.968
 51
71.48
  0
ARC
  8
APS_GEOMETRY
 10
15204.983
 20
-265.958
 40
5.19
 50
71.48
 51
90.0
  0
ARC
  8
APS_GEOMETRY
 10
15204.983
 20
-264.393
 40
3.625
 50
90.0
 51
114.63
  0
ARC
  8
APS_GEOMETRY
 10
15204.801
 20
-263.996
 40
3.188
 50
114.63
 51
140.921
  0
ARC
  8
APS_GEOMETRY
 10
15205.339
 20
-264.433
 40
3.881
 50
140.921
 51
163.13
  0
ARC
  8
APS_GEOMETRY
 10
15208.028
 20
-265.248
 40
6.691
 50
163.13
 51
180.0
  0
ARC
  8
APS_GEOMETRY
 10
15211.515
 20
-265.248
 40
10.178
 50
180.0
 51
195.44
  0
ARC
  8
APS_GEOMETRY
 10
15210.986
 20
-265.394
 40
9.629
 50
195.44
 51
211.316
  0
ARC
  8
APS_GEOMETRY
 10
15208.441
 20
-266.889
 40
6.678
 50
211.708
 51
240.457
  0
ARC
  8
APS_GEOMETRY
 10
15208.27
 20
-267.19
 40
6.332
 50
240.457
 51
270.0
  0
ARC
  8
APS_GEOMETRY
 10
15208.27
 20
-265.647
 40
7.875
 50
270.0
 51
279.549
  0
ARC
  8
APS_GEOMETRY
 10
15208.172
 20
-265.065
 40
8.466
 50
279.549
 51
288.759
  0
ARC
  8
APS_GEOMETRY
 10
15208.585
 20
-266.28
 40
7.182
 50
288.759
 51
299.545
  0
ARC
  8
APS_GEOMETRY
 10
15210.24
 20
-269.199
 40
3.826
 50
299.545
 51
314.341
  0
ARC
  8
APS_GEOMETRY
 10
15215.357
 20
-274.515
 40
3.553
 50
120.141
 51
133.452
  0
ARC
  8
APS_GEOMETRY
 10
15213.928
 20
-272.053
 40
0.706
 50
90.0
 51
120.141
  0
ARC
  8
APS_GEOMETRY
 10
15213.928
 20
-272.462
 40
1.115
 50
61.952
 51
90.0
  0
ARC
  8
APS_GEOMETRY
 10
15213.762
 20
-272.774
 40
1.468
 50
37.569
 51
61.952
  0
ARC
  8
APS_GEOMETRY
 10
15213.452
 20
-273.012
 40
1.859
 50
17.665
 51
37.569
  0
ARC
  8
APS_GEOMETRY
 10
15212.98
 20
-273.162
 40
2.354
 50
360.0
 51
17.665
  0
ARC
  8
APS_GEOMETRY
 10
15211.794
 20
-273.162
 40
3.54
 50
344.932
 51
0.0
  0
ARC
  8
APS_GEOMETRY
 10
15208.645
 20
-272.315
 40
6.801
 50
334.075
 51
344.932
  0
ARC
  8
APS_GEOMETRY
 10
15208.546
 20
-272.266
 40
6.912
 50
323.374
 51
334.075
  0
ARC
  8
APS_GEOMETRY
 10
15210.577
 20
-273.777
 40
4.38
 50
309.92
 51
323.374
  0
ARC
  8
APS_GEOMETRY
 10
15212.608
 20
-276.172
 40
1.24
 50
289.026
 51
308.991
  0
ARC
  8
APS_GEOMETRY
 10
15210.442
 20
-269.889
 40
7.886
 50
281.143
 51
289.026
  0
ARC
  8
APS_GEOMETRY
 10
15212.639
 20
-281.28
 40
3.715
 50
100.437
 51
110.12
  0
ARC
  8
APS_GEOMETRY
 10
15215.549
 20
-289.225
 40
12.177
 50
110.12
 51
115.463
  0
ARC
  8
APS_GEOMETRY
 10
15205.159
 20
-267.485
 40
11.919
 50
282.94
 51
295.628
  0
ARC
  8
APS_GEOMETRY
 10
15205.261
 20
-267.932
 40
11.46
 50
270.0
 51
282.94
  0
ARC
  8
APS_GEOMETRY
 10
15205.261
 20
-267.255
 40
12.137
 50
257.307
 51
270.0
  0
ARC
  8
APS_GEOMETRY
 10
15205.774
 20
-264.98
 40
14.469
 50
245.686
 51
257.307
  0
ARC
  8
APS_GEOMETRY
 10
15204.488
 20
-267.801
 40
11.37
 50
228.801
 51
245.735
  0
ARC
  8
APS_GEOMETRY
 10
15204.51
 20
-267.776
 40
11.402
 50
211.891
 51
228.801
  0
ARC
  8
APS_GEOMETRY
 10
15205.184
 20
-267.291
 40
12.231
 50
196.728
 51
212.152
  0
ARC
  8
APS_GEOMETRY
 10
15203.44
 20
-267.815
 40
10.41
 50
180.0
 51
196.728
  0
ARC
  8
APS_GEOMETRY
 10
15203.694
 20
-267.815
 40
10.663
 50
161.184
 51
180.0
  0
ARC
  8
APS_GEOMETRY
 10
15204.378
 20
-268.048
 40
11.386
 50
142.98
 51
161.184
  0
ARC
  8
APS_GEOMETRY
 10
15204.91
 20
-268.456
 40
12.056
 50
127.824
 51
142.958
  0
ARC
  8
APS_GEOMETRY
 10
15205.787
 20
-269.585
 40
13.486
 50
113.52
 51
127.824
  0
ARC
  8
APS_GEOMETRY
 10
15205.501
 20
-268.926
 40
12.768
 50
101.927
 51
113.527
  0
ARC
  8
APS_GEOMETRY
 10
15205.359
 20
-268.253
 40
12.08
 50
90.0
 51
101.927
  0
ARC
  8
APS_GEOMETRY
 10
15230.6
 20
-269.064
 40
12.891
 50
71.91
 51
90.0
  0
ARC
  8
APS_GEOMETRY
 10
15231.099
 20
-267.535
 40
11.283
 50
52.561
 51
71.91
  0
ARC
  8
APS_GEOMETRY
 10
15230.968
 20
-267.573
 40
11.393
 50
38.846
 51
52.156
  0
ARC
  8
APS_GEOMETRY
 10
15229.182
 20
-269.012
 40
13.686
 50
26.707
 51
38.846
  0
ARC
  8
APS_GEOMETRY
 10
15229.536
 20
-268.723
 40
13.241
 50
13.868
 51
26.278
  0
ARC
  8
APS_GEOMETRY
 10
15232.086
 20
-268.093
 40
10.614
 50
360.0
 51
13.868
  0
ARC
  8
APS_GEOMETRY
 10
15232.251
 20
-268.093
 40
10.449
 50
339.712
 51
360.0
  0
ARC
  8
APS_GEOMETRY
 10
15231.663
 20
-267.876
 40
11.076
 50
320.013
 51
339.712
  0
ARC
  8
APS_GEOMETRY
 10
15231.565
 20
-267.822
 40
11.186
 50
303.344
 51
320.123
  0
ARC
  8
APS_GEOMETRY
 10
15230.417
 20
-266.077
 40
13.274
 50
287.949
 51
303.344
  0
ARC
  8
APS_GEOMETRY
 10
15230.04
 20
-264.77
 40
14.634
 50
279.039
 51
287.776
  0
ARC
  8
APS_GEOMETRY
 10
15230.191
 20
-265.719
 40
13.673
 50
270.0
 51
279.039
  0
ARC
  8
APS_GEOMETRY
 10
15230.191
 20
-266.387
 40
13.005
 50
257.728
 51
270.0
  0
ARC
  8
APS_GEOMETRY
 10
15230.212
 20
-266.293
 40
13.102
 50
245.501
 51
257.728
  0
ARC
  8
APS_GEOMETRY
 10
15229.475
 20
-267.904
 40
11.33
 50
228.665
 51
245.511
  0
ARC
  8
APS_GEOMETRY
 10
15229.23
 20
-268.183
 40
10.959
 50
211.535
 51
228.665
  0
ARC
  8
APS_GEOMETRY
 10
15229.551
 20
-267.947
 40
11.356
 50
195.642
 51
211.701
  0
ARC
  8
APS_GEOMETRY
 10
15230.138
 20
-267.783
 40
11.966
 50
180.0
 51
195.642
  0
ARC
  8
APS_GEOMETRY
 10
15230.264
 20
-267.783
 40
12.091
 50
162.181
 51
180.0
  0
ARC
  8
APS_GEOMETRY
 10
15229.161
 20
-267.428
 40
10.933
 50
143.434
 51
162.181
  0
ARC
  8
APS_GEOMETRY
 10
15229.012
 20
-267.309
 40
10.742
 50
126.384
 51
143.471
  0
ARC
  8
APS_GEOMETRY
 10
15230.029
 20
-268.689
 40
12.457
 50
110.525
 51
126.384
  0
ARC
  8
APS_GEOMETRY
 10
15229.979
 20
-268.315
 40
12.089
 50
99.77
 51
110.925
  0
ARC
  8
APS_GEOMETRY
 10
15230.6
 20
-271.921
 40
15.748
 50
90.0
 51
99.77
  0
ARC
  8
APS_GEOMETRY
 10
15229.046
 20
-263.269
 40
2.404
 50
90.0
 51
119.604
  0
ARC
  8
APS_GEOMETRY
 10
15229.257
 20
-263.64
 40
2.83
 50
119.604
 51
146.842
  0
ARC
  8
APS_GEOMETRY
 10
15229.68
 20
-263.987
 40
3.374
 50
145.84
 51
164.055
  0
ARC
  8
APS_GEOMETRY
 10
15230.661
 20
-264.267
 40
4.394
 50
164.055
 51
180.0
  0
ARC
  8
APS_GEOMETRY
 10
15236.793
 20
-264.267
 40
10.526
 50
180.0
 51
189.977
  0
ARC
  8
APS_GEOMETRY
 10
15246.119
 20
-262.626
 40
19.995
 50
189.977
 51
197.211
  0
ARC
  8
APS_GEOMETRY
 10
15248.159
 20
-261.995
 40
22.131
 50
197.211
 51
203.76
  0
ARC
  8
APS_GEOMETRY
 10
15243.077
 20
-264.232
 40
16.579
 50
203.76
 51
211.329
  0
ARC
  8
APS_GEOMETRY
 10
15232.643
 20
-270.493
 40
4.411
 50
212.32
 51
224.441
  0
ARC
  8
APS_GEOMETRY
 10
15232.215
 20
-270.913
 40
3.812
 50
224.441
 51
237.484
  0
ARC
  8
APS_GEOMETRY
 10
15231.939
 20
-271.346
 40
3.298
 50
237.484
 51
252.416
  0
ARC
  8
APS_GEOMETRY
 10
15231.663
 20
-272.218
 40
2.383
 50
252.416
 51
270.0
  0
ARC
  8
APS_GEOMETRY
 10
15231.663
 20
-271.936
 40
2.666
 50
270.0
 51
294.953
  0
ARC
  8
APS_GEOMETRY
 10
15231.737
 20
-272.096
 40
2.489
 50
294.953
 51
320.793
  0
ARC
  8
APS_GEOMETRY
 10
15231.337
 20
-271.769
 40
3.005
 50
320.793
 51
342.777
  0
ARC
  8
APS_GEOMETRY
 10
15229.553
 20
-271.216
 40
4.873
 50
342.777
 51
0.0
  0
ARC
  8
APS_GEOMETRY
 10
15221.173
 20
-271.216
 40
13.254
 50
0.0
 51
8.499
  0
ARC
  8
APS_GEOMETRY
 10
15215.339
 20
-272.088
 40
19.152
 50
8.499
 51
15.566
  0
ARC
  8
APS_GEOMETRY
 10
15216.04
 20
-271.893
 40
18.424
 50
15.566
 51
22.909
  0
ARC
  8
APS_GEOMETRY
 10
15222.072
 20
-269.344
 40
11.876
 50
22.909
 51
32.057
  0
ARC
  8
APS_GEOMETRY
 10
15226.81
 20
-266.359
 40
6.276
 50
31.921
 51
42.51
  0
ARC
  8
APS_GEOMETRY
 10
15228.111
 20
-265.166
 40
4.511
 50
42.51
 51
55.008
  0
ARC
  8
APS_GEOMETRY
 10
15228.551
 20
-264.539
 40
3.745
 50
55.008
 51
69.88
  0
ARC
  8
APS_GEOMETRY
 10
15228.945
 20
-263.463
 40
2.599
 50
69.88
 51
87.754
  0
ARC
  8
APS_GEOMETRY
 10
15257.279
 20
-266.805
 40
10.632
 50
77.257
 51
90.0
  0
ARC
  8
APS_GEOMETRY
 10
15257.171
 20
-267.282
 40
11.122
 50
64.799
 51
77.257
  0
ARC
  8
APS_GEOMETRY
 10
15266.33
 20
-247.783
 40
10.421
 50
244.885
 51
251.175
  0
ARC
  8
APS_GEOMETRY
 10
15263.346
 20
-256.537
 40
1.173
 50
251.175
 51
270.0
  0
ARC
  8
APS_GEOMETRY
 10
15263.346
 20
-255.807
 40
1.903
 50
270.0
 51
278.82
  0
ARC
  8
APS_GEOMETRY
 10
15262.116
 20
-247.883
 40
9.922
 50
278.82
 51
282.68
  0
ARC
  8
APS_GEOMETRY
 10
15264.689
 20
-259.273
 40
1.755
 50
95.906
 51
102.995
  0
ARC
  8
APS_GEOMETRY
 10
15264.769
 20
-260.041
 40
2.528
 50
90.0
 51
95.906
  0
ARC
  8
APS_GEOMETRY
 10
15264.769
 20
-259.191
 40
1.678
 50
62.447
 51
90.0
  0
ARC
  8
APS_GEOMETRY
 10
15264.47
 20
-259.763
 40
2.323
 50
39.094
 51
62.447
  0
ARC
  8
APS_GEOMETRY
 10
15261.353
 20
-262.37
 40
6.386
 50
18.435
 51
39.611
  0
ARC
  8
APS_GEOMETRY
 10
15259.44
 20
-263.008
 40
8.403
 50
360.0
 51
18.435
  0
ARC
  8
APS_GEOMETRY
 10
15263.676
 20
-263.008
 40
4.167
 50
334.877
 51
360.0
  0
ARC
  8
APS_GEOMETRY
 10
15264.929
 20
-263.596
 40
2.783
 50
304.007
 51
334.877
  0
ARC
  8
APS_GEOMETRY
 10
15264.909
 20
-263.537
 40
2.843
 50
286.39
 51
303.69
  0
ARC
  8
APS_GEOMETRY
 10
15264.818
 20
-263.228
 40
3.165
 50
270.0
 51
286.39
  0
ARC
  8
APS_GEOMETRY
 10
15264.818
 20
-263.264
 40
3.128
 50
255.155
 51
270.0
  0
ARC
  8
APS_GEOMETRY
 10
15264.475
 20
-264.557
 40
1.791
 50
235.491
 51
255.155
  0
ARC
  8
APS_GEOMETRY
 10
15264.647
 20
-264.307
 40
2.094
 50
218.48
 51
235.491
  0
ARC
  8
APS_GEOMETRY
 10
15267.457
 20
-262.073
 40
5.684
 50
208.179
 51
218.48
  0
ARC
  8
APS_GEOMETRY
 10
15238.645
 20
-277.713
 40
27.099
 50
28.56
 51
31.664
  0
ARC
  8
APS_GEOMETRY
 10
15256.251
 20
-266.854
 40
6.414
 50
31.664
 51
38.047
  0
ARC
  8
APS_GEOMETRY
 10
15257.531
 20
-265.853
 40
4.788
 50
38.047
 51
46.56
  0
ARC
  8
APS_GEOMETRY
 10
15256.866
 20
-266.555
 40
5.756
 50
46.56
 51
54.324
  0
ARC
  8
APS_GEOMETRY
 10
15256.482
 20
-267.216
 40
6.517
 50
54.968
 51
71.48
  0
ARC
  8
APS_GEOMETRY
 10
15256.903
 20
-265.958
 40
5.19
 50
71.48
 51
90.0
  0
ARC
  8
APS_GEOMETRY
 10
15256.903
 20
-264.393
 40
3.625
 50
90.0
 51
114.63
  0
ARC
  8
APS_GEOMETRY
 10
15256.721
 20
-263.996
 40
3.188
 50
114.63
 51
140.921
  0
ARC
  8
APS_GEOMETRY
 10
15257.259
 20
-264.433
 40
3.881
 50
140.921
 51
163.13
  0
ARC
  8
APS_GEOMETRY
 10
15259.948
 20
-265.248
 40
6.691
 50
163.13
 51
180.0
  0
ARC
  8
APS_GEOMETRY
 10
15263.435
 20
-265.248
 40
10.178
 50
180.0
 51
195.44
  0
ARC
  8
APS_GEOMETRY
 10
15262.906
 20
-265.394
 40
9.629
 50
195.44
 51
211.316
  0
ARC
  8
APS_GEOMETRY
 10
15260.361
 20
-266.889
 40
6.678
 50
211.708
 51
240.457
  0
ARC
  8
APS_GEOMETRY
 10
15260.19
 20
-267.19
 40
6.332
 50
240.457
 51
270.0
  0
ARC
  8
APS_GEOMETRY
 10
15260.19
 20
-265.647
 40
7.875
 50
270.0
 51
279.549
  0
ARC
  8
APS_GEOMETRY
 10
15260.092
 20
-265.065
 40
8.466
 50
279.549
 51
288.759
  0
ARC
  8
APS_GEOMETRY
 10
15260.505
 20
-266.28
 40
7.182
 50
288.759
 51
299.545
  0
ARC
  8
APS_GEOMETRY
 10
15262.16
 20
-269.199
 40
3.826
 50
299.545
 51
314.341
  0
ARC
  8
APS_GEOMETRY
 10
15267.277
 20
-274.515
 40
3.553
 50
120.141
 51
133.452
  0
ARC
  8
APS_GEOMETRY
 10
15265.848
 20
-272.053
 40
0.706
 50
90.0
 51
120.141
  0
ARC
  8
APS_GEOMETRY
 10
15265.848
 20
-272.462
 40
1.115
 50
61.952
 51
90.0
  0
ARC
  8
APS_GEOMETRY
 10
15265.682
 20
-272.774
 40
1.468
 50
37.569
 51
61.952
  0
ARC
  8
APS_GEOMETRY
 10
15265.372
 20
-273.012
 40
1.859
 50
17.665
 51
37.569
  0
ARC
  8
APS_GEOMETRY
 10
15264.9
 20
-273.162
 40
2.354
 50
360.0
 51
17.665
  0
ARC
  8
APS_GEOMETRY
 10
15263.714
 20
-273.162
 40
3.54
 50
344.932
 51
0.0
  0
ARC
  8
APS_GEOMETRY
 10
15260.565
 20
-272.315
 40
6.801
 50
334.075
 51
344.932
  0
ARC
  8
APS_GEOMETRY
 10
15260.466
 20
-272.266
 40
6.912
 50
323.374
 51
334.075
  0
ARC
  8
APS_GEOMETRY
 10
15262.498
 20
-273.777
 40
4.38
 50
309.92
 51
323.374
  0
ARC
  8
APS_GEOMETRY
 10
15264.528
 20
-276.172
 40
1.24
 50
289.026
 51
308.991
  0
ARC
  8
APS_GEOMETRY
 10
15262.362
 20
-269.889
 40
7.886
 50
281.143
 51
289.026
  0
ARC
  8
APS_GEOMETRY
 10
15264.559
 20
-281.28
 40
3.715
 50
100.437
 51
110.12
  0
ARC
  8
APS_GEOMETRY
 10
15267.469
 20
-289.225
 40
12.177
 50
110.12
 51
115.463
  0
ARC
  8
APS_GEOMETRY
 10
15257.079
 20
-267.485
 40
11.919
 50
282.94
 51
295.628
  0
ARC
  8
APS_GEOMETRY
 10
15257.181
 20
-267.932
 40
11.46
 50
270.0
 51
282.94
  0
ARC
  8
APS_GEOMETRY
 10
15257.181
 20
-267.255
 40
12.137
 50
257.307
 51
270.0
  0
ARC
  8
APS_GEOMETRY
 10
15257.694
 20
-264.98
 40
14.469
 50
245.686
 51
257.307
  0
ARC
  8
APS_GEOMETRY
 10
15256.409
 20
-267.801
 40
11.37
 50
228.801
 51
245.735
  0
ARC
  8
APS_GEOMETRY
 10
15256.43
 20
-267.776
 40
11.402
 50
211.891
 51
228.801
  0
ARC
  8
APS_GEOMETRY
 10
15257.104
 20
-267.291
 40
12.231
 50
196.728
 51
212.152
  0
ARC
  8
APS_GEOMETRY
 10
15255.36
 20
-267.815
 40
10.41
 50
180.0
 51
196.728
  0
ARC
  8
APS_GEOMETRY
 10
15255.614
 20
-267.815
 40
10.663
 50
161.184
 51
180.0
  0
ARC
  8
APS_GEOMETRY
 10
15256.298
 20
-268.048
 40
11.386
 50
142.98
 51
161.184
  0
ARC
  8
APS_GEOMETRY
 10
15256.83
 20
-268.456
 40
12.056
 50
127.824
 51
142.958
  0
ARC
  8
APS_GEOMETRY
 10
15257.707
 20
-269.585
 40
13.486
 50
113.52
 51
127.824
  0
ARC
  8
APS_GEOMETRY
 10
15257.421
 20
-268.926
 40
12.768
 50
101.927
 51
113.527
  0
ARC
  8
APS_GEOMETRY
 10
15257.279
 20
-268.253
 40
12.08
 50
90.0
 51
101.927
  0
ARC
  8
APS_GEOMETRY
 10
15282.52
 20
-269.064
 40
12.891
 50
71.91
 51
90.0
  0
ARC
  8
APS_GEOMETRY
 10
15283.019
 20
-267.535
 40
11.283
 50
52.561
 51
71.91
  0
ARC
  8
APS_GEOMETRY
 10
15282.888
 20
-267.573
 40
11.393
 50
38.846
 51
52.156
  0
ARC
  8
APS_GEOMETRY
 10
15281.102
 20
-269.012
 40
13.686
 50
26.707
 51
38.846
  0
ARC
  8
APS_GEOMETRY
 10
15281.456
 20
-268.723
 40
13.241
 50
13.868
 51
26.278
  0
ARC
  8
APS_GEOMETRY
 10
15284.006
 20
-268.093
 40
10.614
 50
360.0
 51
13.868
  0
ARC
  8
APS_GEOMETRY
 10
15284.171
 20
-268.093
 40
10.449
 50
339.712
 51
360.0
  0
ARC
  8
APS_GEOMETRY
 10
15283.583
 20
-267.876
 40
11.076
 50
320.013
 51
339.712
  0
ARC
  8
APS_GEOMETRY
 10
15283.485
 20
-267.822
 40
11.186
 50
303.344
 51
320.123
  0
ARC
  8
APS_GEOMETRY
 10
15282.337
 20
-266.077
 40
13.274
 50
287.949
 51
303.344
  0
ARC
  8
APS_GEOMETRY
 10
15281.96
 20
-264.77
 40
14.634
 50
279.039
 51
287.776
  0
ARC
  8
APS_GEOMETRY
 10
15282.111
 20
-265.719
 40
13.673
 50
270.0
 51
279.039
  0
ARC
  8
APS_GEOMETRY
 10
15282.111
 20
-266.387
 40
13.005
 50
257.728
 51
270.0
  0
ARC
  8
APS_GEOMETRY
 10
15282.132
 20
-266.293
 40
13.102
 50
245.501
 51
257.728
  0
ARC
  8
APS_GEOMETRY
 10
15281.395
 20
-267.904
 40
11.33
 50
228.665
 51
245.511
  0
ARC
  8
APS_GEOMETRY
 10
15281.15
 20
-268.183
 40
10.959
 50
211.535
 51
228.665
  0
ARC
  8
APS_GEOMETRY
 10
15281.471
 20
-267.947
 40
11.356
 50
195.642
 51
211.701
  0
ARC
  8
APS_GEOMETRY
 10
15282.058
 20
-267.783
 40
11.966
 50
180.0
 51
195.642
  0
ARC
  8
APS_GEOMETRY
 10
15282.184
 20
-267.783
 40
12.091
 50
162.181
 51
180.0
  0
ARC
  8
APS_GEOMETRY
 10
15281.081
 20
-267.428
 40
10.933
 50
143.434
 51
162.181
  0
ARC
  8
APS_GEOMETRY
 10
15280.932
 20
-267.309
 40
10.742
 50
126.384
 51
143.471
  0
ARC
  8
APS_GEOMETRY
 10
15281.949
 20
-268.689
 40
12.457
 50
110.525
 51
126.384
  0
ARC
  8
APS_GEOMETRY
 10
15281.899
 20
-268.315
 40
12.089
 50
99.77
 51
110.925
  0
ARC
  8
APS_GEOMETRY
 10
15282.52
 20
-271.921
 40
15.748
 50
90.0
 51
99.77
  0
ARC
  8
APS_GEOMETRY
 10
15280.967
 20
-263.269
 40
2.404
 50
90.0
 51
119.604
  0
ARC
  8
APS_GEOMETRY
 10
15281.177
 20
-263.64
 40
2.83
 50
119.604
 51
146.842
  0
ARC
  8
APS_GEOMETRY
 10
15281.6
 20
-263.987
 40
3.374
 50
145.84
 51
164.055
  0
ARC
  8
APS_GEOMETRY
 10
15282.581
 20
-264.267
 40
4.394
 50
164.055
 51
180.0
  0
ARC
  8
APS_GEOMETRY
 10
15288.713
 20
-264.267
 40
10.526
 50
180.0
 51
189.977
  0
ARC
  8
APS_GEOMETRY
 10
15298.039
 20
-262.626
 40
19.995
 50
189.977
 51
197.211
  0
ARC
  8
APS_GEOMETRY
 10
15300.079
 20
-261.995
 40
22.131
 50
197.211
 51
203.76
  0
ARC
  8
APS_GEOMETRY
 10
15294.997
 20
-264.232
 40
16.579
 50
203.76
 51
211.329
  0
ARC
  8
APS_GEOMETRY
 10
15284.563
 20
-270.493
 40
4.411
 50
212.32
 51
224.441
  0
ARC
  8
APS_GEOMETRY
 10
15284.135
 20
-270.913
 40
3.812
 50
224.441
 51
237.484
  0
ARC
  8
APS_GEOMETRY
 10
15283.859
 20
-271.346
 40
3.298
 50
237.484
 51
252.416
  0
ARC
  8
APS_GEOMETRY
 10
15283.583
 20
-272.218
 40
2.383
 50
252.416
 51
270.0
  0
ARC
  8
APS_GEOMETRY
 10
15283.583
 20
-271.936
 40
2.666
 50
270.0
 51
294.953
  0
ARC
  8
APS_GEOMETRY
 10
15283.658
 20
-272.096
 40
2.489
 50
294.953
 51
320.793
  0
ARC
  8
APS_GEOMETRY
 10
15283.257
 20
-271.769
 40
3.005
 50
320.793
 51
342.777
  0
ARC
  8
APS_GEOMETRY
 10
15281.473
 20
-271.216
 40
4.873
 50
342.777
 51
0.0
  0
ARC
  8
APS_GEOMETRY
 10
15273.093
 20
-271.216
 40
13.254
 50
0.0
 51
8.499
  0
ARC
  8
APS_GEOMETRY
 10
15267.259
 20
-272.088
 40
19.152
 50
8.499
 51
15.566
  0
ARC
  8
APS_GEOMETRY
 10
15267.96
 20
-271.893
 40
18.424
 50
15.566
 51
22.909
  0
ARC
  8
APS_GEOMETRY
 10
15273.992
 20
-269.344
 40
11.876
 50
22.909
 51
32.057
  0
ARC
  8
APS_GEOMETRY
 10
15278.73
 20
-266.359
 40
6.276
 50
31.921
 51
42.51
  0
ARC
  8
APS_GEOMETRY
 10
15280.031
 20
-265.166
 40
4.511
 50
42.51
 51
55.008
  0
ARC
  8
APS_GEOMETRY
 10
15280.471
 20
-264.539
 40
3.745
 50
55.008
 51
69.88
  0
ARC
  8
APS_GEOMETRY
 10
15280.865
 20
-263.463
 40
2.599
 50
69.88
 51
87.754
  0
ARC
  8
APS_GEOMETRY
 10
15307.777
 20
-270.775
 40
1.21
 50
90.0
 51
115.837
  0
ARC
  8
APS_GEOMETRY
 10
15307.479
 20
-270.16
 40
0.526
 50
115.837
 51
155.462
  0
ARC
  8
APS_GEOMETRY
 10
15307.827
 20
-270.318
 40
0.909
 50
155.462
 51
168.366
  0
ARC
  8
APS_GEOMETRY
 10
15311.0
 20
-270.972
 40
4.148
 50
168.366
 51
174.395
  0
ARC
  8
APS_GEOMETRY
 10
15314.197
 20
-271.285
 40
7.361
 50
174.395
 51
177.813
  0
ARC
  8
APS_GEOMETRY
 10
15324.812
 20
-271.691
 40
17.983
 50
177.813
 51
180.0
  0
ARC
  8
APS_GEOMETRY
 10
15332.496
 20
-271.691
 40
25.667
 50
180.0
 51
184.62
  0
ARC
  8
APS_GEOMETRY
 10
15315.286
 20
-273.081
 40
8.401
 50
184.62
 51
192.7
  0
ARC
  8
APS_GEOMETRY
 10
15308.651
 20
-274.538
 40
1.609
 50
194.036
 51
205.821
  0
ARC
  8
APS_GEOMETRY
 10
15307.948
 20
-274.878
 40
0.828
 50
205.821
 51
222.274
  0
ARC
  8
APS_GEOMETRY
 10
15308.163
 20
-274.682
 40
1.119
 50
222.274
 51
234.605
  0
ARC
  8
APS_GEOMETRY
 10
15310.594
 20
-271.262
 40
5.315
 50
234.605
 51
240.255
  0
ARC
  8
APS_GEOMETRY
 10
15306.899
 20
-277.799
 40
2.194
 50
34.592
 51
61.189
  0
ARC
  8
APS_GEOMETRY
 10
15307.624
 20
-277.299
 40
1.313
 50
360.0
 51
34.592
  0
ARC
  8
APS_GEOMETRY
 10
15307.668
 20
-277.299
 40
1.27
 50
318.231
 51
360.0
  0
ARC
  8
APS_GEOMETRY
 10
15306.819
 20
-276.541
 40
2.408
 50
288.227
 51
318.231
  0
ARC
  8
APS_GEOMETRY
 10
15305.939
 20
-273.867
 40
5.223
 50
280.377
 51
288.227
  0
ARC
  8
APS_GEOMETRY
 10
15304.404
 20
-265.485
 40
13.744
 50
275.541
 51
280.377
  0
ARC
  8
APS_GEOMETRY
 10
15303.742
 20
-258.666
 40
20.595
 50
272.304
 51
275.541
  0
ARC
  8
APS_GEOMETRY
 10
15302.937
 20
-238.649
 40
40.629
 50
270.0
 51
272.304
  0
ARC
  8
APS_GEOMETRY
 10
15302.937
 20
-255.378
 40
23.9
 50
262.811
 51
270.0
  0
ARC
  8
APS_GEOMETRY
 10
15300.792
 20
-272.381
 40
6.762
 50
249.274
 51
262.811
  0
ARC
  8
APS_GEOMETRY
 10
15299.443
 20
-275.946
 40
2.95
 50
221.379
 51
249.274
  0
ARC
  8
APS_GEOMETRY
 10
15298.26
 20
-276.989
 40
1.373
 50
180.0
 51
221.379
  0
ARC
  8
APS_GEOMETRY
 10
15298.251
 20
-276.989
 40
1.364
 50
164.055
 51
180.0
  0
ARC
  8
APS_GEOMETRY
 10
15297.682
 20
-276.826
 40
0.773
 50
142.815
 51
164.055
  0
ARC
  8
APS_GEOMETRY
 10
15298.04
 20
-277.098
 40
1.222
 50
129.007
 51
142.815
  0
ARC
  8
APS_GEOMETRY
 10
15302.436
 20
-282.525
 40
8.206
 50
123.69
 51
129.007
  0
ARC
  8
APS_GEOMETRY
 10
15296.198
 20
-273.138
 40
3.064
 50
303.389
 51
319.022
  0
ARC
  8
APS_GEOMETRY
 10
15297.027
 20
-273.859
 40
1.966
 50
319.022
 51
338.575
  0
ARC
  8
APS_GEOMETRY
 10
15295.917
 20
-273.423
 40
3.158
 50
338.575
 51
351.049
  0
ARC
  8
APS_GEOMETRY
 10
15282.514
 20
-271.312
 40
16.726
 50
351.049
 51
356.46
  0
ARC
  8
APS_GEOMETRY
 10
15286.932
 20
-271.48
 40
12.307
 50
355.972
 51
358.68
  0
ARC
  8
APS_GEOMETRY
 10
15141.837
 20
-268.137
 40
157.441
 50
358.68
 51
359.437
  0
LINE
  8
APS_GEOMETRY
 10
15299.27
 11
15299.285
 20
-269.683
 21
-267.228
  0
LINE
  8
APS_GEOMETRY
 10
15299.285
 11
15299.29
 20
-267.228
 21
-264.022
  0
ARC
  8
APS_GEOMETRY
 10
15261.386
 20
-264.022
 40
37.905
 50
360.0
 51
1.717
  0
ARC
  8
APS_GEOMETRY
 10
15281.67
 20
-263.414
 40
17.611
 50
1.717
 51
4.236
  0
ARC
  8
APS_GEOMETRY
 10
15288.285
 20
-262.924
 40
10.979
 50
4.236
 51
8.269
  0
ARC
  8
APS_GEOMETRY
 10
15295.896
 20
-261.817
 40
3.287
 50
8.269
 51
15.642
  0
ARC
  8
APS_GEOMETRY
 10
15297.206
 20
-261.451
 40
1.926
 50
15.642
 51
39.417
  0
ARC
  8
APS_GEOMETRY
 10
15297.236
 20
-261.426
 40
1.888
 50
39.417
 51
63.435
  0
ARC
  8
APS_GEOMETRY
 10
15300.637
 20
-254.382
 40
5.935
 50
236.874
 51
244.486
  0
ARC
  8
APS_GEOMETRY
 10
15298.107
 20
-258.258
 40
1.306
 50
220.601
 51
236.874
  0
ARC
  8
APS_GEOMETRY
 10
15297.817
 20
-258.507
 40
0.923
 50
198.246
 51
220.601
  0
ARC
  8
APS_GEOMETRY
 10
15298.251
 20
-258.364
 40
1.38
 50
180.0
 51
198.246
  0
ARC
  8
APS_GEOMETRY
 10
15298.244
 20
-258.364
 40
1.374
 50
156.161
 51
180.0
  0
ARC
  8
APS_GEOMETRY
 10
15298.436
 20
-258.449
 40
1.583
 50
133.977
 51
156.161
  0
ARC
  8
APS_GEOMETRY
 10
15298.817
 20
-258.844
 40
2.133
 50
116.996
 51
133.977
  0
ARC
  8
APS_GEOMETRY
 10
15299.576
 20
-260.333
 40
3.804
 50
104.3
 51
116.996
  0
ARC
  8
APS_GEOMETRY
 10
15299.772
 20
-261.086
 40
4.582
 50
95.326
 51
104.349
  0
ARC
  8
APS_GEOMETRY
 10
15300.566
 20
-269.603
 40
13.136
 50
90.0
 51
95.326
  0
ARC
  8
APS_GEOMETRY
 10
15300.566
 20
-262.974
 40
6.506
 50
87.553
 51
90.0
  0
ARC
  8
APS_GEOMETRY
 10
15299.181
 20
-295.367
 40
38.93
 50
86.553
 51
87.553
  0
ARC
  8
APS_GEOMETRY
 10
15297.213
 20
-328.041
 40
71.662
 50
86.009
 51
86.553
  0
ARC
  8
APS_GEOMETRY
 10
15289.559
 20
-437.747
 40
181.636
 50
85.668
 51
86.009
  0
ARC
  8
APS_GEOMETRY
 10
15303.883
 20
-249.092
 40
7.563
 50
265.426
 51
268.531
  0
ARC
  8
APS_GEOMETRY
 10
15304.556
 20
-222.871
 40
33.793
 50
268.531
 51
270.0
  0
ARC
  8
APS_GEOMETRY
 10
15304.556
 20
-230.908
 40
25.755
 50
270.0
 51
271.637
  0
ARC
  8
APS_GEOMETRY
 10
15303.98
 20
-210.766
 40
45.906
 50
271.637
 51
272.862
  0
ARC
  8
APS_GEOMETRY
 10
15303.319
 20
-197.551
 40
59.137
 50
272.862
 51
273.814
  0
ARC
  8
APS_GEOMETRY
 10
15301.083
 20
-163.999
 40
92.764
 50
273.814
 51
274.574
  0
ARC
  8
APS_GEOMETRY
 10
15315.114
 20
-346.494
 40
90.271
 50
93.72
 51
94.214
  0
ARC
  8
APS_GEOMETRY
 10
15312.119
 20
-300.435
 40
44.115
 50
93.013
 51
93.72
  0
ARC
  8
APS_GEOMETRY
 10
15311.298
 20
-284.838
 40
28.496
 50
91.918
 51
93.013
  0
ARC
  8
APS_GEOMETRY
 10
15310.655
 20
-265.63
 40
9.277
 50
90.0
 51
91.918
  0
ARC
  8
APS_GEOMETRY
 10
15310.655
 20
-268.407
 40
12.054
 50
73.82
 51
90.0
  0
ARC
  8
APS_GEOMETRY
 10
15311.843
 20
-264.312
 40
7.791
 50
53.658
 51
73.82
  0
ARC
  8
APS_GEOMETRY
 10
15313.533
 20
-262.002
 40
4.929
 50
26.03
 51
53.569
  0
ARC
  8
APS_GEOMETRY
 10
15313.014
 20
-262.256
 40
5.506
 50
360.0
 51
26.03
  0
ARC
  8
APS_GEOMETRY
 10
15312.798
 20
-262.256
 40
5.722
 50
345.282
 51
360.0
  0
ARC
  8
APS_GEOMETRY
 10
15313.349
 20
-262.4
 40
5.152
 50
329.767
 51
345.282
  0
ARC
  8
APS_GEOMETRY
 10
15313.661
 20
-262.582
 40
4.792
 50
313.168
 51
329.767
  0
ARC
  8
APS_GEOMETRY
 10
15313.776
 20
-262.705
 40
4.623
 50
296.267
 51
313.168
  0
ARC
  8
APS_GEOMETRY
 10
15316.408
 20
-268.022
 40
1.31
 50
116.565
 51
139.899
  0
ARC
  8
APS_GEOMETRY
 10
15315.754
 20
-267.472
 40
0.456
 50
139.899
 51
180.0
  0
ARC
  8
APS_GEOMETRY
 10
15315.805
 20
-267.472
 40
0.506
 50
180.0
 51
226.193
  0
ARC
  8
APS_GEOMETRY
 10
15316.74
 20
-266.497
 40
1.858
 50
226.193
 51
249.829
  0
ARC
  8
APS_GEOMETRY
 10
15314.06
 20
-273.877
 40
5.995
 50
53.249
 51
70.105
  0
ARC
  8
APS_GEOMETRY
 10
15315.278
 20
-272.247
 40
3.96
 50
32.471
 51
53.249
  0
ARC
  8
APS_GEOMETRY
 10
15314.71
 20
-272.608
 40
4.632
 50
23.305
 51
32.471
  0
ARC
  8
APS_GEOMETRY
 10
15311.205
 20
-274.118
 40
8.449
 50
16.521
 51
23.305
  0
ARC
  8
APS_GEOMETRY
 10
15308.472
 20
-274.928
 40
11.299
 50
11.429
 51
16.521
  0
ARC
  8
APS_GEOMETRY
 10
15300.727
 20
-276.494
 40
19.201
 50
7.524
 51
11.429
  0
ARC
  8
APS_GEOMETRY
 10
15326.391
 20
-273.076
 40
6.69
 50
187.765
 51
196.914
  0
ARC
  8
APS_GEOMETRY
 10
15320.92
 20
-274.74
 40
0.971
 50
196.914
 51
221.082
  0
ARC
  8
APS_GEOMETRY
 10
15320.941
 20
-274.722
 40
0.999
 50
221.082
 51
244.607
  0
ARC
  8
APS_GEOMETRY
 10
15323.277
 20
-269.799
 40
6.448
 50
244.607
 51
253.811
  0
ARC
  8
APS_GEOMETRY
 10
15321.223
 20
-276.804
 40
0.852
 50
51.45
 51
72.474
  0
ARC
  8
APS_GEOMETRY
 10
15321.012
 20
-277.069
 40
1.191
 50
33.69
 51
51.45
  0
ARC
  8
APS_GEOMETRY
 10
15320.963
 20
-277.102
 40
1.25
 50
16.639
 51
33.69
  0
ARC
  8
APS_GEOMETRY
 10
15320.903
 20
-277.119
 40
1.312
 50
360.0
 51
16.639
  0
ARC
  8
APS_GEOMETRY
 10
15320.885
 20
-277.119
 40
1.331
 50
338.993
 51
360.0
  0
ARC
  8
APS_GEOMETRY
 10
15320.072
 20
-276.807
 40
2.201
 50
322.696
 51
338.993
  0
ARC
  8
APS_GEOMETRY
 10
15319.769
 20
-276.577
 40
2.582
 50
308.603
 51
322.696
  0
ARC
  8
APS_GEOMETRY
 10
15319.561
 20
-276.316
 40
2.916
 50
295.346
 51
308.603
  0
ARC
  8
APS_GEOMETRY
 10
15318.465
 20
-273.903
 40
5.566
 50
279.583
 51
294.905
  0
ARC
  8
APS_GEOMETRY
 10
15317.032
 20
-265.412
 40
14.176
 50
270.0
 51
279.583
  0
ARC
  8
APS_GEOMETRY
 10
15317.032
 20
-269.253
 40
10.336
 50
261.247
 51
270.0
  0
ARC
  8
APS_GEOMETRY
 10
15316.37
 20
-273.553
 40
5.985
 50
249.737
 51
261.247
  0
ARC
  8
APS_GEOMETRY
 10
15315.935
 20
-274.732
 40
4.728
 50
235.345
 51
249.737
  0
ARC
  8
APS_GEOMETRY
 10
15315.385
 20
-275.527
 40
3.762
 50
219.198
 51
235.345
  0
ARC
  8
APS_GEOMETRY
 10
15316.542
 20
-274.541
 40
5.281
 50
209.076
 51
219.56
  0
ARC
  8
APS_GEOMETRY
 10
15319.212
 20
-273.056
 40
8.337
 50
200.735
 51
209.076
  0
ARC
  8
APS_GEOMETRY
 10
15322.897
 20
-271.661
 40
12.277
 50
197.881
 51
200.735
  0
ARC
  8
APS_GEOMETRY
 10
15338.037
 20
-266.776
 40
28.186
 50
195.997
 51
197.881
  0
ARC
  8
APS_GEOMETRY
 10
15349.228
 20
-263.568
 40
39.828
 50
194.664
 51
195.997
  0
ARC
  8
APS_GEOMETRY
 10
15380.226
 20
-255.456
 40
71.869
 50
193.671
 51
194.664
  0
ARC
  8
APS_GEOMETRY
 10
15301.621
 20
-274.567
 40
9.026
 50
13.61
 51
23.585
  0
ARC
  8
APS_GEOMETRY
 10
15307.531
 20
-271.987
 40
2.577
 50
23.585
 51
42.31
  0
ARC
  8
APS_GEOMETRY
 10
15308.067
 20
-271.499
 40
1.853
 50
42.31
 51
67.521
  0
ARC
  8
APS_GEOMETRY
 10
15307.642
 20
-272.524
 40
2.962
 50
67.521
 51
87.397
  0
LINE
  8
APS_GEOMETRY
 10
15306.845
 11
15306.665
 20
-261.226
 21
-265.035
  0
LINE
  8
APS_GEOMETRY
 10
15306.665
 11
15306.665
 20
-265.035
 21
-265.097
  0
LINE
  8
APS_GEOMETRY
 10
15306.665
 11
15306.665
 20
-265.097
 21
-265.183
  0
ARC
  8
APS_GEOMETRY
 10
15309.312
 20
-265.183
 40
2.647
 50
180.0
 51
192.339
  0
ARC
  8
APS_GEOMETRY
 10
15307.207
 20
-265.643
 40
0.493
 50
192.339
 51
221.186
  0
ARC
  8
APS_GEOMETRY
 10
15307.157
 20
-265.687
 40
0.426
 50
221.186
 51
253.872
  0
ARC
  8
APS_GEOMETRY
 10
15307.515
 20
-264.449
 40
1.715
 50
253.872
 51
270.0
  0
ARC
  8
APS_GEOMETRY
 10
15307.515
 20
-262.178
 40
3.985
 50
270.0
 51
289.569
  0
ARC
  8
APS_GEOMETRY
 10
15308.24
 20
-264.217
 40
1.822
 50
289.569
 51
318.681
  0
ARC
  8
APS_GEOMETRY
 10
15308.044
 20
-264.044
 40
2.083
 50
318.681
 51
344.628
  0
ARC
  8
APS_GEOMETRY
 10
15304.392
 20
-263.041
 40
5.87
 50
344.628
 51
0.0
  0
ARC
  8
APS_GEOMETRY
 10
15306.128
 20
-263.041
 40
4.134
 50
0.0
 51
35.369
  0
ARC
  8
APS_GEOMETRY
 10
15308.022
 20
-261.696
 40
1.812
 50
35.369
 51
90.0
  0
ARC
  8
APS_GEOMETRY
 10
15308.022
 20
-261.716
 40
1.831
 50
90.0
 51
108.435
  0
ARC
  8
APS_GEOMETRY
 10
15307.666
 20
-260.647
 40
0.705
 50
108.435
 51
138.366
  0
ARC
  8
APS_GEOMETRY
 10
15307.761
 20
-260.732
 40
0.833
 50
138.366
 51
164.291
  0
ARC
  8
APS_GEOMETRY
 10
15310.004
 20
-261.363
 40
3.162
 50
164.291
 51
177.51
  0
LINE
  8
APS_GEOMETRY
 10
15335.954
 11
15344.097
 20
-257.416
 21
-264.545
  0
ARC
  8
APS_GEOMETRY
 10
15351.713
 20
-255.805
 40
11.592
 50
228.93
 51
232.674
  0
ARC
  8
APS_GEOMETRY
 10
15347.477
 20
-261.362
 40
4.605
 50
232.674
 51
238.617
  0
ARC
  8
APS_GEOMETRY
 10
15346.411
 20
-263.109
 40
2.558
 50
238.617
 51
249.131
  0
ARC
  8
APS_GEOMETRY
 10
15345.733
 20
-264.888
 40
0.655
 50
249.131
 51
270.0
  0
ARC
  8
APS_GEOMETRY
 10
15345.733
 20
-264.968
 40
0.574
 50
270.0
 51
334.898
  0
ARC
  8
APS_GEOMETRY
 10
15343.083
 20
-263.727
 40
3.499
 50
334.898
 51
0.0
  0
ARC
  8
APS_GEOMETRY
 10
15317.468
 20
-263.727
 40
29.115
 50
360.0
 51
2.026
  0
ARC
  8
APS_GEOMETRY
 10
15332.911
 20
-263.181
 40
13.662
 50
2.026
 51
4.984
  0
ARC
  8
APS_GEOMETRY
 10
15337.961
 20
-262.741
 40
8.593
 50
4.984
 51
9.673
  0
ARC
  8
APS_GEOMETRY
 10
15343.781
 20
-261.749
 40
2.689
 50
9.673
 51
18.06
  0
ARC
  8
APS_GEOMETRY
 10
15344.667
 20
-261.46
 40
1.758
 50
18.06
 51
42.397
  0
ARC
  8
APS_GEOMETRY
 10
15344.381
 20
-261.721
 40
2.145
 50
42.397
 51
64.398
  0
ARC
  8
APS_GEOMETRY
 10
15346.992
 20
-256.328
 40
3.847
 50
233.633
 51
244.026
  0
ARC
  8
APS_GEOMETRY
 10
15345.57
 20
-258.26
 40
1.448
 50
216.656
 51
233.633
  0
ARC
  8
APS_GEOMETRY
 10
15345.352
 20
-258.422
 40
1.176
 50
196.082
 51
216.656
  0
ARC
  8
APS_GEOMETRY
 10
15346.064
 20
-258.217
 40
1.917
 50
180.0
 51
196.082
  0
ARC
  8
APS_GEOMETRY
 10
15345.54
 20
-258.217
 40
1.394
 50
133.202
 51
180.0
  0
ARC
  8
APS_GEOMETRY
 10
15346.64
 20
-259.387
 40
3.0
 50
101.788
 51
133.202
  0
ARC
  8
APS_GEOMETRY
 10
15346.896
 20
-260.536
 40
4.176
 50
96.633
 51
102.011
  0
ARC
  8
APS_GEOMETRY
 10
15347.826
 20
-268.53
 40
12.225
 50
93.489
 51
96.633
  0
ARC
  8
APS_GEOMETRY
 10
15348.224
 20
-275.059
 40
18.766
 50
91.439
 51
93.489
  0
ARC
  8
APS_GEOMETRY
 10
15348.709
 20
-294.357
 40
38.069
 50
90.0
 51
91.439
  0
ARC
  8
APS_GEOMETRY
 10
15348.709
 20
-291.769
 40
35.482
 50
87.994
 51
90.0
  0
ARC
  8
APS_GEOMETRY
 10
15349.354
 20
-273.349
 40
17.05
 50
85.101
 51
87.994
  0
ARC
  8
APS_GEOMETRY
 10
15349.877
 20
-267.241
 40
10.92
 50
80.595
 51
85.101
  0
ARC
  8
APS_GEOMETRY
 10
15351.071
 20
-260.034
 40
3.615
 50
72.759
 51
80.595
  0
ARC
  8
APS_GEOMETRY
 10
15351.433
 20
-258.914
 40
2.438
 50
40.956
 51
73.072
  0
ARC
  8
APS_GEOMETRY
 10
15352.123
 20
-258.315
 40
1.524
 50
360.0
 51
40.956
  0
ARC
  8
APS_GEOMETRY
 10
15352.215
 20
-258.315
 40
1.432
 50
322.573
 51
360.0
  0
ARC
  8
APS_GEOMETRY
 10
15351.462
 20
-257.739
 40
2.38
 50
293.749
 51
322.573
  0
ARC
  8
APS_GEOMETRY
 10
15354.484
 20
-264.679
 40
5.19
 50
113.429
 51
119.291
  0
ARC
  8
APS_GEOMETRY
 10
15352.464
 20
-261.079
 40
1.062
 50
119.291
 51
132.274
  0
ARC
  8
APS_GEOMETRY
 10
15352.348
 20
-260.951
 40
0.889
 50
132.274
 51
147.653
  0
ARC
  8
APS_GEOMETRY
 10
15353.189
 20
-261.484
 40
1.884
 50
147.653
 51
158.199
  0
ARC
  8
APS_GEOMETRY
 10
15354.469
 20
-262.023
 40
3.273
 50
157.751
 51
167.885
  0
ARC
  8
APS_GEOMETRY
 10
15361.279
 20
-263.485
 40
10.238
 50
167.885
 51
173.61
  0
ARC
  8
APS_GEOMETRY
 10
15367.302
 20
-264.16
 40
16.299
 50
173.61
 51
177.221
  0
ARC
  8
APS_GEOMETRY
 10
15385.88
 20
-265.062
 40
34.899
 50
177.221
 51
179.689
  0
LINE
  8
APS_GEOMETRY
 10
15350.981
 11
15350.981
 20
-264.872
 21
-270.203
  0
ARC
  8
APS_GEOMETRY
 10
15568.664
 20
-270.203
 40
217.683
 50
180.0
 51
180.161
  0
ARC
  8
APS_GEOMETRY
 10
15757.574
 20
-269.671
 40
406.593
 50
180.161
 51
180.279
  0
LINE
  8
APS_GEOMETRY
 10
15350.986
 11
15350.991
 20
-271.654
 21
-272.548
  0
LINE
  8
APS_GEOMETRY
 10
15350.991
 11
15350.998
 20
-272.548
 21
-273.555
  0
ARC
  8
APS_GEOMETRY
 10
15312.156
 20
-273.775
 40
38.843
 50
358.204
 51
0.326
  0
ARC
  8
APS_GEOMETRY
 10
15330.633
 20
-274.355
 40
20.356
 50
355.274
 51
358.204
  0
ARC
  8
APS_GEOMETRY
 10
15337.064
 20
-274.886
 40
13.903
 50
350.991
 51
355.274
  0
ARC
  8
APS_GEOMETRY
 10
15345.254
 20
-276.185
 40
5.612
 50
344.249
 51
350.991
  0
ARC
  8
APS_GEOMETRY
 10
15348.022
 20
-276.975
 40
2.733
 50
314.415
 51
344.445
  0
ARC
  8
APS_GEOMETRY
 10
15349.036
 20
-278.01
 40
1.284
 50
270.0
 51
314.415
  0
ARC
  8
APS_GEOMETRY
 10
15349.036
 20
-277.214
 40
2.08
 50
256.342
 51
270.0
  0
ARC
  8
APS_GEOMETRY
 10
15348.887
 20
-277.824
 40
1.452
 50
239.982
 51
256.342
  0
ARC
  8
APS_GEOMETRY
 10
15349.535
 20
-276.704
 40
2.746
 50
231.153
 51
239.982
  0
ARC
  8
APS_GEOMETRY
 10
15360.409
 20
-263.202
 40
20.083
 50
227.891
 51
231.153
  0
LINE
  8
APS_GEOMETRY
 10
15346.943
 11
15337.246
 20
-278.101
 21
-269.418
  0
ARC
  8
APS_GEOMETRY
 10
15333.51
 20
-273.554
 40
5.573
 50
47.911
 51
61.468
  0
ARC
  8
APS_GEOMETRY
 10
15335.562
 20
-269.781
 40
1.278
 50
61.468
 51
90.0
  0
ARC
  8
APS_GEOMETRY
 10
15335.562
 20
-269.062
 40
0.56
 50
90.0
 51
133.195
  0
ARC
  8
APS_GEOMETRY
 10
15336.114
 20
-269.65
 40
1.367
 50
133.195
 51
160.454
  0
ARC
  8
APS_GEOMETRY
 10
15337.886
 20
-270.279
 40
3.247
 50
160.454
 51
173.251
  0
ARC
  8
APS_GEOMETRY
 10
15346.219
 20
-271.266
 40
11.639
 50
173.251
 51
180.0
  0
ARC
  8
APS_GEOMETRY
 10
15368.89
 20
-271.266
 40
34.309
 50
180.0
 51
181.897
  0
ARC
  8
APS_GEOMETRY
 10
15350.718
 20
-271.867
 40
16.128
 50
181.897
 51
184.664
  0
ARC
  8
APS_GEOMETRY
 10
15344.763
 20
-272.353
 40
10.152
 50
184.664
 51
189.048
  0
ARC
  8
APS_GEOMETRY
 10
15337.862
 20
-273.452
 40
3.165
 50
189.048
 51
196.905
  0
ARC
  8
APS_GEOMETRY
 10
15336.767
 20
-273.785
 40
2.02
 50
196.905
 51
220.253
  0
ARC
  8
APS_GEOMETRY
 10
15336.789
 20
-273.766
 40
2.049
 50
220.253
 51
243.435
  0
ARC
  8
APS_GEOMETRY
 10
15334.79
 20
-277.797
 40
2.45
 50
37.921
 51
63.778
  0
ARC
  8
APS_GEOMETRY
 10
15335.806
 20
-277.005
 40
1.162
 50
360.0
 51
37.921
  0
ARC
  8
APS_GEOMETRY
 10
15335.354
 20
-277.005
 40
1.614
 50
324.268
 51
360.0
  0
ARC
  8
APS_GEOMETRY
 10
15334.751
 20
-276.571
 40
2.357
 50
294.86
 51
324.268
  0
ARC
  8
APS_GEOMETRY
 10
15333.752
 20
-274.416
 40
4.732
 50
278.78
 51
294.86
  0
ARC
  8
APS_GEOMETRY
 10
15332.062
 20
-263.476
 40
15.802
 50
270.0
 51
278.78
  0
ARC
  8
APS_GEOMETRY
 10
15332.062
 20
-266.311
 40
12.966
 50
260.383
 51
270.0
  0
ARC
  8
APS_GEOMETRY
 10
15330.696
 20
-274.376
 40
4.787
 50
244.522
 51
260.383
  0
ARC
  8
APS_GEOMETRY
 10
15329.706
 20
-276.453
 40
2.486
 50
216.549
 51
244.522
  0
ARC
  8
APS_GEOMETRY
 10
15328.895
 20
-277.054
 40
1.477
 50
180.0
 51
216.549
  0
ARC
  8
APS_GEOMETRY
 10
15329.422
 20
-277.054
 40
2.003
 50
164.65
 51
180.0
  0
ARC
  8
APS_GEOMETRY
 10
15328.279
 20
-276.74
 40
0.818
 50
140.528
 51
164.65
  0
ARC
  8
APS_GEOMETRY
 10
15328.742
 20
-277.121
 40
1.417
 50
126.135
 51
140.528
  0
ARC
  8
APS_GEOMETRY
 10
15333.569
 20
-283.732
 40
9.603
 50
120.619
 51
126.135
  0
ARC
  8
APS_GEOMETRY
 10
15327.846
 20
-274.072
 40
1.625
 50
300.784
 51
330.068
  0
ARC
  8
APS_GEOMETRY
 10
15326.763
 20
-273.448
 40
2.875
 50
330.068
 51
351.983
  0
ARC
  8
APS_GEOMETRY
 10
15308.582
 20
-271.078
 40
21.21
 50
352.493
 51
355.365
  0
ARC
  8
APS_GEOMETRY
 10
15286.65
 20
-269.3
 40
43.213
 50
355.365
 51
357.376
  0
ARC
  8
APS_GEOMETRY
 10
15271.294
 20
-268.596
 40
58.586
 50
357.376
 51
358.861
  0
ARC
  8
APS_GEOMETRY
 10
15230.381
 20
-267.783
 40
99.507
 50
358.861
 51
0.0
  0
ARC
  8
APS_GEOMETRY
 10
15267.175
 20
-267.783
 40
62.712
 50
360.0
 51
1.926
  0
ARC
  8
APS_GEOMETRY
 10
15296.369
 20
-266.801
 40
33.503
 50
1.926
 51
4.562
  0
ARC
  8
APS_GEOMETRY
 10
15306.662
 20
-265.979
 40
23.176
 50
4.562
 51
8.366
  0
ARC
  8
APS_GEOMETRY
 10
15320.05
 20
-264.011
 40
9.644
 50
8.366
 51
14.265
  0
ARC
  8
APS_GEOMETRY
 10
15325.113
 20
-262.73
 40
4.422
 50
14.349
 51
23.629
  0
ARC
  8
APS_GEOMETRY
 10
15327.68
 20
-261.607
 40
1.62
 50
23.629
 51
38.991
  0
ARC
  8
APS_GEOMETRY
 10
15327.69
 20
-261.599
 40
1.608
 50
38.991
 51
54.462
  0
ARC
  8
APS_GEOMETRY
 10
15326.188
 20
-263.702
 40
4.192
 50
54.462
 51
64.026
  0
ARC
  8
APS_GEOMETRY
 10
15330.427
 20
-255.019
 40
5.471
 50
235.472
 51
243.947
  0
ARC
  8
APS_GEOMETRY
 10
15328.237
 20
-258.201
 40
1.608
 50
219.806
 51
235.472
  0
ARC
  8
APS_GEOMETRY
 10
15327.905
 20
-258.477
 40
1.176
 50
198.939
 51
219.806
  0
ARC
  8
APS_GEOMETRY
 10
15328.141
 20
-258.397
 40
1.425
 50
180.0
 51
198.939
  0
ARC
  8
APS_GEOMETRY
 10
15328.071
 20
-258.397
 40
1.356
 50
126.254
 51
180.0
  0
ARC
  8
APS_GEOMETRY
 10
15330.141
 20
-261.219
 40
4.856
 50
98.616
 51
126.254
  0
ARC
  8
APS_GEOMETRY
 10
15330.432
 20
-263.551
 40
7.205
 50
94.456
 51
98.13
  0
ARC
  8
APS_GEOMETRY
 10
15331.557
 20
-277.977
 40
21.675
 50
92.337
 51
94.456
  0
ARC
  8
APS_GEOMETRY
 10
15332.036
 20
-289.716
 40
33.424
 50
90.963
 51
92.337
  0
ARC
  8
APS_GEOMETRY
 10
15332.618
 20
-324.39
 40
68.103
 50
90.0
 51
90.963
  0
ARC
  8
APS_GEOMETRY
 10
15332.618
 20
-268.698
 40
12.411
 50
83.928
 51
90.0
  0
ARC
  8
APS_GEOMETRY
 10
15333.636
 20
-259.13
 40
2.788
 50
71.095
 51
83.928
  0
ARC
  8
APS_GEOMETRY
 10
15333.729
 20
-258.858
 40
2.501
 50
56.848
 51
71.095
  0
ARC
  8
APS_GEOMETRY
 10
15330.978
 20
-263.07
 40
7.532
 50
48.652
 51
56.848
  0
ARC
  8
APS_GEOMETRY
 10
15365.358
 20
-276.591
 40
20.304
 50
84.71
 51
90.0
  0
ARC
  8
APS_GEOMETRY
 10
15365.73
 20
-272.571
 40
16.267
 50
78.799
 51
84.71
  0
ARC
  8
APS_GEOMETRY
 10
15368.138
 20
-260.4
 40
3.859
 50
49.783
 51
78.771
  0
ARC
  8
APS_GEOMETRY
 10
15369.749
 20
-258.495
 40
1.365
 50
360.0
 51
49.783
  0
ARC
  8
APS_GEOMETRY
 10
15369.604
 20
-258.495
 40
1.51
 50
342.759
 51
360.0
  0
ARC
  8
APS_GEOMETRY
 10
15370.392
 20
-258.739
 40
0.685
 50
317.045
 51
342.759
  0
ARC
  8
APS_GEOMETRY
 10
15370.011
 20
-258.385
 40
1.205
 50
301.817
 51
317.045
  0
ARC
  8
APS_GEOMETRY
 10
15364.383
 20
-249.314
 40
11.88
 50
296.98
 51
301.817
  0
ARC
  8
APS_GEOMETRY
 10
15370.384
 20
-261.123
 40
1.366
 50
116.565
 51
149.078
  0
ARC
  8
APS_GEOMETRY
 10
15372.143
 20
-262.177
 40
3.417
 50
149.078
 51
169.469
  0
ARC
  8
APS_GEOMETRY
 10
15375.896
 20
-262.875
 40
7.234
 50
169.469
 51
174.598
  0
ARC
  8
APS_GEOMETRY
 10
15395.228
 20
-264.703
 40
26.652
 50
174.598
 51
177.269
  0
ARC
  8
APS_GEOMETRY
 10
15412.226
 20
-265.514
 40
43.67
 50
177.269
 51
178.901
  0
ARC
  8
APS_GEOMETRY
 10
15464.88
 20
-266.524
 40
96.333
 50
178.901
 51
180.0
  0
ARC
  8
APS_GEOMETRY
 10
15571.875
 20
-266.524
 40
203.328
 50
180.0
 51
180.88
  0
ARC
  8
APS_GEOMETRY
 10
15446.615
 20
-268.447
 40
78.054
 50
180.88
 51
182.3
  0
ARC
  8
APS_GEOMETRY
 10
15410.002
 20
-269.918
 40
41.411
 50
182.3
 51
184.974
  0
ARC
  8
APS_GEOMETRY
 10
15375.092
 20
-272.956
 40
6.369
 50
184.974
 51
191.793
  0
ARC
  8
APS_GEOMETRY
 10
15371.037
 20
-273.732
 40
2.242
 50
193.57
 51
205.787
  0
ARC
  8
APS_GEOMETRY
 10
15370.028
 20
-274.219
 40
1.122
 50
205.787
 51
223.091
  0
ARC
  8
APS_GEOMETRY
 10
15370.284
 20
-273.98
 40
1.472
 50
223.091
 51
236.441
  0
ARC
  8
APS_GEOMETRY
 10
15372.426
 20
-270.751
 40
5.346
 50
236.441
 51
243.435
  0
ARC
  8
APS_GEOMETRY
 10
15369.147
 20
-277.487
 40
2.146
 50
37.185
 51
65.556
  0
ARC
  8
APS_GEOMETRY
 10
15369.846
 20
-276.956
 40
1.268
 50
0.0
 51
37.185
  0
ARC
  8
APS_GEOMETRY
 10
15369.808
 20
-276.956
 40
1.306
 50
312.039
 51
360.0
  0
ARC
  8
APS_GEOMETRY
 10
15368.252
 20
-275.231
 40
3.629
 50
283.815
 51
312.039
  0
ARC
  8
APS_GEOMETRY
 10
15365.682
 20
-264.578
 40
14.587
 50
279.273
 51
283.627
  0
ARC
  8
APS_GEOMETRY
 10
15364.655
 20
-258.285
 40
20.963
 50
275.641
 51
279.273
  0
ARC
  8
APS_GEOMETRY
 10
15364.262
 20
-254.308
 40
24.959
 50
272.588
 51
275.641
  0
ARC
  8
APS_GEOMETRY
 10
15363.821
 20
-244.55
 40
34.728
 50
270.0
 51
272.588
  0
ARC
  8
APS_GEOMETRY
 10
15363.821
 20
-258.331
 40
20.947
 50
262.774
 51
270.0
  0
ARC
  8
APS_GEOMETRY
 10
15361.932
 20
-273.225
 40
5.934
 50
249.175
 51
262.774
  0
ARC
  8
APS_GEOMETRY
 10
15360.746
 20
-276.344
 40
2.597
 50
221.23
 51
249.175
  0
ARC
  8
APS_GEOMETRY
 10
15359.712
 20
-277.25
 40
1.221
 50
180.0
 51
221.23
  0
ARC
  8
APS_GEOMETRY
 10
15359.511
 20
-277.25
 40
1.021
 50
142.696
 51
180.0
  0
ARC
  8
APS_GEOMETRY
 10
15361.121
 20
-278.477
 40
3.046
 50
121.357
 51
142.696
  0
ARC
  8
APS_GEOMETRY
 10
15358.4
 20
-274.02
 40
2.177
 50
301.477
 51
324.728
  0
ARC
  8
APS_GEOMETRY
 10
15358.69
 20
-274.225
 40
1.822
 50
324.728
 51
350.181
  0
ARC
  8
APS_GEOMETRY
 10
15349.57
 20
-272.717
 40
11.066
 50
350.538
 51
355.423
  0
ARC
  8
APS_GEOMETRY
 10
15312.094
 20
-269.716
 40
48.662
 50
355.423
 51
357.752
  0
ARC
  8
APS_GEOMETRY
 10
15277.297
 20
-268.35
 40
83.485
 50
357.752
 51
359.111
  0
ARC
  8
APS_GEOMETRY
 10
15165.924
 20
-266.622
 40
194.872
 50
359.111
 51
0.0
  0
ARC
  8
APS_GEOMETRY
 10
15293.184
 20
-266.622
 40
67.612
 50
0.0
 51
1.773
  0
ARC
  8
APS_GEOMETRY
 10
15332.864
 20
-265.393
 40
27.913
 50
1.773
 51
4.532
  0
ARC
  8
APS_GEOMETRY
 10
15344.924
 20
-264.437
 40
15.814
 50
4.532
 51
9.384
  0
ARC
  8
APS_GEOMETRY
 10
15357.171
 20
-262.414
 40
3.402
 50
9.384
 51
19.855
  0
ARC
  8
APS_GEOMETRY
 10
15358.792
 20
-261.797
 40
1.668
 50
18.853
 51
42.158
  0
ARC
  8
APS_GEOMETRY
 10
15357.403
 20
-263.055
 40
3.542
 50
42.158
 51
58.092
  0
ARC
  8
APS_GEOMETRY
 10
15363.517
 20
-253.606
 40
7.713
 50
230.711
 51
236.634
  0
ARC
  8
APS_GEOMETRY
 10
15359.676
 20
-258.301
 40
1.648
 50
217.875
 51
230.711
  0
ARC
  8
APS_GEOMETRY
 10
15359.15
 20
-258.71
 40
0.981
 50
196.928
 51
217.875
  0
ARC
  8
APS_GEOMETRY
 10
15359.643
 20
-258.56
 40
1.496
 50
180.0
 51
196.928
  0
ARC
  8
APS_GEOMETRY
 10
15359.32
 20
-258.56
 40
1.174
 50
148.791
 51
180.0
  0
ARC
  8
APS_GEOMETRY
 10
15359.628
 20
-258.747
 40
1.533
 50
121.569
 51
148.791
  0
ARC
  8
APS_GEOMETRY
 10
15360.181
 20
-259.646
 40
2.589
 50
112.806
 51
121.569
  0
ARC
  8
APS_GEOMETRY
 10
15361.674
 20
-263.198
 40
6.443
 50
107.254
 51
112.806
  0
ARC
  8
APS_GEOMETRY
 10
15362.589
 20
-266.144
 40
9.527
 50
103.487
 51
107.254
  0
ARC
  8
APS_GEOMETRY
 10
15364.685
 20
-274.88
 40
18.511
 50
100.784
 51
103.487
  0
ARC
  8
APS_GEOMETRY
 10
15365.341
 20
-277.296
 40
21.008
 50
95.643
 51
101.31
  0
ARC
  8
APS_GEOMETRY
 10
15365.358
 20
-277.468
 40
21.181
 50
90.0
 51
95.643
  0
ARC
  8
APS_GEOMETRY
 10
15385.693
 20
-266.805
 40
10.632
 50
77.257
 51
90.0
  0
ARC
  8
APS_GEOMETRY
 10
15385.585
 20
-267.282
 40
11.122
 50
64.799
 51
77.257
  0
ARC
  8
APS_GEOMETRY
 10
15394.744
 20
-247.783
 40
10.421
 50
244.885
 51
251.175
  0
ARC
  8
APS_GEOMETRY
 10
15391.759
 20
-256.537
 40
1.173
 50
251.175
 51
270.0
  0
ARC
  8
APS_GEOMETRY
 10
15391.759
 20
-255.807
 40
1.903
 50
270.0
 51
278.82
  0
ARC
  8
APS_GEOMETRY
 10
15390.53
 20
-247.883
 40
9.922
 50
278.82
 51
282.68
  0
ARC
  8
APS_GEOMETRY
 10
15393.103
 20
-259.273
 40
1.755
 50
95.906
 51
102.995
  0
ARC
  8
APS_GEOMETRY
 10
15393.182
 20
-260.041
 40
2.528
 50
90.0
 51
95.906
  0
ARC
  8
APS_GEOMETRY
 10
15393.182
 20
-259.191
 40
1.678
 50
62.447
 51
90.0
  0
ARC
  8
APS_GEOMETRY
 10
15392.884
 20
-259.763
 40
2.323
 50
39.094
 51
62.447
  0
ARC
  8
APS_GEOMETRY
 10
15389.767
 20
-262.37
 40
6.386
 50
18.435
 51
39.611
  0
ARC
  8
APS_GEOMETRY
 10
15387.853
 20
-263.008
 40
8.403
 50
360.0
 51
18.435
  0
ARC
  8
APS_GEOMETRY
 10
15392.09
 20
-263.008
 40
4.167
 50
334.877
 51
360.0
  0
ARC
  8
APS_GEOMETRY
 10
15393.343
 20
-263.596
 40
2.783
 50
304.007
 51
334.877
  0
ARC
  8
APS_GEOMETRY
 10
15393.322
 20
-263.537
 40
2.843
 50
286.39
 51
303.69
  0
ARC
  8
APS_GEOMETRY
 10
15393.231
 20
-263.228
 40
3.165
 50
270.0
 51
286.39
  0
ARC
  8
APS_GEOMETRY
 10
15393.231
 20
-263.264
 40
3.128
 50
255.155
 51
270.0
  0
ARC
  8
APS_GEOMETRY
 10
15392.888
 20
-264.557
 40
1.791
 50
235.491
 51
255.155
  0
ARC
  8
APS_GEOMETRY
 10
15393.06
 20
-264.307
 40
2.094
 50
218.48
 51
235.491
  0
ARC
  8
APS_GEOMETRY
 10
15395.871
 20
-262.073
 40
5.684
 50
208.179
 51
218.48
  0
ARC
  8
APS_GEOMETRY
 10
15367.059
 20
-277.713
 40
27.099
 50
28.56
 51
31.664
  0
ARC
  8
APS_GEOMETRY
 10
15384.665
 20
-266.854
 40
6.414
 50
31.664
 51
38.047
  0
ARC
  8
APS_GEOMETRY
 10
15385.945
 20
-265.853
 40
4.788
 50
38.047
 51
46.56
  0
ARC
  8
APS_GEOMETRY
 10
15385.279
 20
-266.555
 40
5.756
 50
46.56
 51
54.324
  0
ARC
  8
APS_GEOMETRY
 10
15384.895
 20
-267.216
 40
6.517
 50
54.968
 51
71.48
  0
ARC
  8
APS_GEOMETRY
 10
15385.317
 20
-265.958
 40
5.19
 50
71.48
 51
90.0
  0
ARC
  8
APS_GEOMETRY
 10
15385.317
 20
-264.393
 40
3.625
 50
90.0
 51
114.63
  0
ARC
  8
APS_GEOMETRY
 10
15385.135
 20
-263.996
 40
3.188
 50
114.63
 51
140.921
  0
ARC
  8
APS_GEOMETRY
 10
15385.673
 20
-264.433
 40
3.881
 50
140.921
 51
163.13
  0
ARC
  8
APS_GEOMETRY
 10
15388.361
 20
-265.248
 40
6.691
 50
163.13
 51
180.0
  0
ARC
  8
APS_GEOMETRY
 10
15391.848
 20
-265.248
 40
10.178
 50
180.0
 51
195.44
  0
ARC
  8
APS_GEOMETRY
 10
15391.319
 20
-265.394
 40
9.629
 50
195.44
 51
211.316
  0
ARC
  8
APS_GEOMETRY
 10
15388.774
 20
-266.889
 40
6.678
 50
211.708
 51
240.457
  0
ARC
  8
APS_GEOMETRY
 10
15388.604
 20
-267.19
 40
6.332
 50
240.457
 51
270.0
  0
ARC
  8
APS_GEOMETRY
 10
15388.604
 20
-265.647
 40
7.875
 50
270.0
 51
279.549
  0
ARC
  8
APS_GEOMETRY
 10
15388.506
 20
-265.065
 40
8.466
 50
279.549
 51
288.759
  0
ARC
  8
APS_GEOMETRY
 10
15388.918
 20
-266.28
 40
7.182
 50
288.759
 51
299.545
  0
ARC
  8
APS_GEOMETRY
 10
15390.573
 20
-269.199
 40
3.826
 50
299.545
 51
314.341
  0
ARC
  8
APS_GEOMETRY
 10
15395.691
 20
-274.515
 40
3.553
 50
120.141
 51
133.452
  0
ARC
  8
APS_GEOMETRY
 10
15394.261
 20
-272.053
 40
0.706
 50
90.0
 51
120.141
  0
ARC
  8
APS_GEOMETRY
 10
15394.261
 20
-272.462
 40
1.115
 50
61.952
 51
90.0
  0
ARC
  8
APS_GEOMETRY
 10
15394.095
 20
-272.774
 40
1.468
 50
37.569
 51
61.952
  0
ARC
  8
APS_GEOMETRY
 10
15393.786
 20
-273.012
 40
1.859
 50
17.665
 51
37.569
  0
ARC
  8
APS_GEOMETRY
 10
15393.313
 20
-273.162
 40
2.354
 50
360.0
 51
17.665
  0
ARC
  8
APS_GEOMETRY
 10
15392.127
 20
-273.162
 40
3.54
 50
344.932
 51
0.0
  0
ARC
  8
APS_GEOMETRY
 10
15388.978
 20
-272.315
 40
6.801
 50
334.075
 51
344.932
  0
ARC
  8
APS_GEOMETRY
 10
15388.879
 20
-272.266
 40
6.912
 50
323.374
 51
334.075
  0
ARC
  8
APS_GEOMETRY
 10
15390.911
 20
-273.777
 40
4.38
 50
309.92
 51
323.374
  0
ARC
  8
APS_GEOMETRY
 10
15392.942
 20
-276.172
 40
1.24
 50
289.026
 51
308.991
  0
ARC
  8
APS_GEOMETRY
 10
15390.775
 20
-269.889
 40
7.886
 50
281.143
 51
289.026
  0
ARC
  8
APS_GEOMETRY
 10
15392.972
 20
-281.28
 40
3.715
 50
100.437
 51
110.12
  0
ARC
  8
APS_GEOMETRY
 10
15395.883
 20
-289.225
 40
12.177
 50
110.12
 51
115.463
  0
ARC
  8
APS_GEOMETRY
 10
15385.492
 20
-267.485
 40
11.919
 50
282.94
 51
295.628
  0
ARC
  8
APS_GEOMETRY
 10
15385.595
 20
-267.932
 40
11.46
 50
270.0
 51
282.94
  0
ARC
  8
APS_GEOMETRY
 10
15385.595
 20
-267.255
 40
12.137
 50
257.307
 51
270.0
  0
ARC
  8
APS_GEOMETRY
 10
15386.107
 20
-264.98
 40
14.469
 50
245.686
 51
257.307
  0
ARC
  8
APS_GEOMETRY
 10
15384.822
 20
-267.801
 40
11.37
 50
228.801
 51
245.735
  0
ARC
  8
APS_GEOMETRY
 10
15384.844
 20
-267.776
 40
11.402
 50
211.891
 51
228.801
  0
ARC
  8
APS_GEOMETRY
 10
15385.517
 20
-267.291
 40
12.231
 50
196.728
 51
212.152
  0
ARC
  8
APS_GEOMETRY
 10
15383.774
 20
-267.815
 40
10.41
 50
180.0
 51
196.728
  0
ARC
  8
APS_GEOMETRY
 10
15384.027
 20
-267.815
 40
10.663
 50
161.184
 51
180.0
  0
ARC
  8
APS_GEOMETRY
 10
15384.711
 20
-268.048
 40
11.386
 50
142.98
 51
161.184
  0
ARC
  8
APS_GEOMETRY
 10
15385.243
 20
-268.456
 40
12.056
 50
127.824
 51
142.958
  0
ARC
  8
APS_GEOMETRY
 10
15386.12
 20
-269.585
 40
13.486
 50
113.52
 51
127.824
  0
ARC
  8
APS_GEOMETRY
 10
15385.835
 20
-268.926
 40
12.768
 50
101.927
 51
113.527
  0
ARC
  8
APS_GEOMETRY
 10
15385.693
 20
-268.253
 40
12.08
 50
90.0
 51
101.927
  0
ARC
  8
APS_GEOMETRY
 10
15407.967
 20
-276.591
 40
20.304
 50
84.71
 51
90.0
  0
ARC
  8
APS_GEOMETRY
 10
15408.339
 20
-272.571
 40
16.267
 50
78.799
 51
84.71
  0
ARC
  8
APS_GEOMETRY
 10
15410.748
 20
-260.4
 40
3.859
 50
49.783
 51
78.771
  0
ARC
  8
APS_GEOMETRY
 10
15412.358
 20
-258.495
 40
1.365
 50
360.0
 51
49.783
  0
ARC
  8
APS_GEOMETRY
 10
15412.213
 20
-258.495
 40
1.51
 50
342.759
 51
360.0
  0
ARC
  8
APS_GEOMETRY
 10
15413.001
 20
-258.739
 40
0.685
 50
317.045
 51
342.759
  0
ARC
  8
APS_GEOMETRY
 10
15412.621
 20
-258.385
 40
1.205
 50
301.817
 51
317.045
  0
ARC
  8
APS_GEOMETRY
 10
15406.992
 20
-249.314
 40
11.88
 50
296.98
 51
301.817
  0
ARC
  8
APS_GEOMETRY
 10
15412.993
 20
-261.123
 40
1.366
 50
116.565
 51
149.078
  0
ARC
  8
APS_GEOMETRY
 10
15414.753
 20
-262.177
 40
3.417
 50
149.078
 51
169.469
  0
ARC
  8
APS_GEOMETRY
 10
15418.505
 20
-262.875
 40
7.234
 50
169.469
 51
174.598
  0
ARC
  8
APS_GEOMETRY
 10
15437.837
 20
-264.703
 40
26.652
 50
174.598
 51
177.269
  0
ARC
  8
APS_GEOMETRY
 10
15454.836
 20
-265.514
 40
43.67
 50
177.269
 51
178.901
  0
ARC
  8
APS_GEOMETRY
 10
15507.489
 20
-266.524
 40
96.333
 50
178.901
 51
180.0
  0
ARC
  8
APS_GEOMETRY
 10
15614.484
 20
-266.524
 40
203.328
 50
180.0
 51
180.88
  0
ARC
  8
APS_GEOMETRY
 10
15489.224
 20
-268.447
 40
78.054
 50
180.88
 51
182.3
  0
ARC
  8
APS_GEOMETRY
 10
15452.611
 20
-269.918
 40
41.411
 50
182.3
 51
184.974
  0
ARC
  8
APS_GEOMETRY
 10
15417.701
 20
-272.956
 40
6.369
 50
184.974
 51
191.793
  0
ARC
  8
APS_GEOMETRY
 10
15413.646
 20
-273.732
 40
2.242
 50
193.57
 51
205.787
  0
ARC
  8
APS_GEOMETRY
 10
15412.637
 20
-274.219
 40
1.122
 50
205.787
 51
223.091
  0
ARC
  8
APS_GEOMETRY
 10
15412.893
 20
-273.98
 40
1.472
 50
223.091
 51
236.441
  0
ARC
  8
APS_GEOMETRY
 10
15415.035
 20
-270.751
 40
5.346
 50
236.441
 51
243.435
  0
ARC
  8
APS_GEOMETRY
 10
15411.756
 20
-277.487
 40
2.146
 50
37.185
 51
65.556
  0
ARC
  8
APS_GEOMETRY
 10
15412.456
 20
-276.956
 40
1.268
 50
0.0
 51
37.185
  0
ARC
  8
APS_GEOMETRY
 10
15412.417
 20
-276.956
 40
1.306
 50
312.039
 51
360.0
  0
ARC
  8
APS_GEOMETRY
 10
15410.862
 20
-275.231
 40
3.629
 50
283.815
 51
312.039
  0
ARC
  8
APS_GEOMETRY
 10
15408.291
 20
-264.578
 40
14.587
 50
279.273
 51
283.627
  0
ARC
  8
APS_GEOMETRY
 10
15407.264
 20
-258.285
 40
20.963
 50
275.641
 51
279.273
  0
ARC
  8
APS_GEOMETRY
 10
15406.871
 20
-254.308
 40
24.959
 50
272.588
 51
275.641
  0
ARC
  8
APS_GEOMETRY
 10
15406.43
 20
-244.55
 40
34.728
 50
270.0
 51
272.588
  0
ARC
  8
APS_GEOMETRY
 10
15406.43
 20
-258.331
 40
20.947
 50
262.774
 51
270.0
  0
ARC
  8
APS_GEOMETRY
 10
15404.542
 20
-273.225
 40
5.934
 50
249.175
 51
262.774
  0
ARC
  8
APS_GEOMETRY
 10
15403.355
 20
-276.344
 40
2.597
 50
221.23
 51
249.175
  0
ARC
  8
APS_GEOMETRY
 10
15402.321
 20
-277.25
 40
1.221
 50
180.0
 51
221.23
  0
ARC
  8
APS_GEOMETRY
 10
15402.12
 20
-277.25
 40
1.021
 50
142.696
 51
180.0
  0
ARC
  8
APS_GEOMETRY
 10
15403.731
 20
-278.477
 40
3.046
 50
121.357
 51
142.696
  0
ARC
  8
APS_GEOMETRY
 10
15401.009
 20
-274.02
 40
2.177
 50
301.477
 51
324.728
  0
ARC
  8
APS_GEOMETRY
 10
15401.299
 20
-274.225
 40
1.822
 50
324.728
 51
350.181
  0
ARC
  8
APS_GEOMETRY
 10
15392.179
 20
-272.717
 40
11.066
 50
350.538
 51
355.423
  0
ARC
  8
APS_GEOMETRY
 10
15354.703
 20
-269.716
 40
48.662
 50
355.423
 51
357.752
  0
ARC
  8
APS_GEOMETRY
 10
15319.906
 20
-268.35
 40
83.485
 50
357.752
 51
359.111
  0
ARC
  8
APS_GEOMETRY
 10
15208.533
 20
-266.622
 40
194.872
 50
359.111
 51
0.0
  0
ARC
  8
APS_GEOMETRY
 10
15335.793
 20
-266.622
 40
67.612
 50
0.0
 51
1.773
  0
ARC
  8
APS_GEOMETRY
 10
15375.473
 20
-265.393
 40
27.913
 50
1.773
 51
4.532
  0
ARC
  8
APS_GEOMETRY
 10
15387.534
 20
-264.437
 40
15.814
 50
4.532
 51
9.384
  0
ARC
  8
APS_GEOMETRY
 10
15399.781
 20
-262.414
 40
3.402
 50
9.384
 51
19.855
  0
ARC
  8
APS_GEOMETRY
 10
15401.401
 20
-261.797
 40
1.668
 50
18.853
 51
42.158
  0
ARC
  8
APS_GEOMETRY
 10
15400.012
 20
-263.055
 40
3.542
 50
42.158
 51
58.092
  0
ARC
  8
APS_GEOMETRY
 10
15406.127
 20
-253.606
 40
7.713
 50
230.711
 51
236.634
  0
ARC
  8
APS_GEOMETRY
 10
15402.286
 20
-258.301
 40
1.648
 50
217.875
 51
230.711
  0
ARC
  8
APS_GEOMETRY
 10
15401.759
 20
-258.71
 40
0.981
 50
196.928
 51
217.875
  0
ARC
  8
APS_GEOMETRY
 10
15402.252
 20
-258.56
 40
1.496
 50
180.0
 51
196.928
  0
ARC
  8
APS_GEOMETRY
 10
15401.93
 20
-258.56
 40
1.174
 50
148.791
 51
180.0
  0
ARC
  8
APS_GEOMETRY
 10
15402.238
 20
-258.747
 40
1.533
 50
121.569
 51
148.791
  0
ARC
  8
APS_GEOMETRY
 10
15402.79
 20
-259.646
 40
2.589
 50
112.806
 51
121.569
  0
ARC
  8
APS_GEOMETRY
 10
15404.284
 20
-263.198
 40
6.443
 50
107.254
 51
112.806
  0
ARC
  8
APS_GEOMETRY
 10
15405.199
 20
-266.144
 40
9.527
 50
103.487
 51
107.254
  0
ARC
  8
APS_GEOMETRY
 10
15407.294
 20
-274.88
 40
18.511
 50
100.784
 51
103.487
  0
ARC
  8
APS_GEOMETRY
 10
15407.95
 20
-277.296
 40
21.008
 50
95.643
 51
101.31
  0
ARC
  8
APS_GEOMETRY
 10
15407.967
 20
-277.468
 40
21.181
 50
90.0
 51
95.643
  0
LINE
  8
APS_GEOMETRY
 10
15442.541
 11
15442.541
 20
-271.249
 21
-262.648
  0
ARC
  8
APS_GEOMETRY
 10
15422.681
 20
-262.648
 40
19.861
 50
0.0
 51
2.404
  0
ARC
  8
APS_GEOMETRY
 10
15434.439
 20
-262.155
 40
8.092
 50
2.404
 51
6.17
  0
ARC
  8
APS_GEOMETRY
 10
15437.964
 20
-261.773
 40
4.547
 50
6.17
 51
12.824
  0
ARC
  8
APS_GEOMETRY
 10
15441.414
 20
-260.988
 40
1.009
 50
12.824
 51
26.98
  0
ARC
  8
APS_GEOMETRY
 10
15441.575
 20
-260.906
 40
0.828
 50
26.98
 51
59.65
  0
ARC
  8
APS_GEOMETRY
 10
15440.056
 20
-263.5
 40
3.834
 50
59.65
 51
74.667
  0
ARC
  8
APS_GEOMETRY
 10
15441.807
 20
-257.251
 40
2.656
 50
225.0
 51
253.887
  0
ARC
  8
APS_GEOMETRY
 10
15440.727
 20
-258.331
 40
1.128
 50
180.0
 51
225.0
  0
ARC
  8
APS_GEOMETRY
 10
15440.934
 20
-258.331
 40
1.336
 50
151.157
 51
180.0
  0
ARC
  8
APS_GEOMETRY
 10
15440.931
 20
-258.33
 40
1.332
 50
122.276
 51
151.157
  0
ARC
  8
APS_GEOMETRY
 10
15441.313
 20
-258.934
 40
2.048
 50
102.308
 51
122.276
  0
ARC
  8
APS_GEOMETRY
 10
15442.018
 20
-262.166
 40
5.356
 50
90.0
 51
102.308
  0
ARC
  8
APS_GEOMETRY
 10
15442.018
 20
-268.394
 40
11.583
 50
88.989
 51
90.0
  0
ARC
  8
APS_GEOMETRY
 10
15441.045
 20
-323.566
 40
66.764
 50
88.568
 51
88.989
  0
ARC
  8
APS_GEOMETRY
 10
15439.669
 20
-378.568
 40
121.783
 50
88.337
 51
88.568
  0
ARC
  8
APS_GEOMETRY
 10
15434.34
 20
-562.126
 40
305.419
 50
88.191
 51
88.337
  0
LINE
  8
APS_GEOMETRY
 10
15443.98
 11
15444.945
 20
-256.86
 21
-256.86
  0
ARC
  8
APS_GEOMETRY
 10
15441.704
 20
281.115
 40
537.985
 50
270.345
 51
270.49
  0
ARC
  8
APS_GEOMETRY
 10
15444.724
 20
-72.19
 40
184.666
 50
270.49
 51
270.736
  0
ARC
  8
APS_GEOMETRY
 10
15445.964
 20
-168.626
 40
88.223
 50
270.736
 51
271.253
  0
ARC
  8
APS_GEOMETRY
 10
15447.726
 20
-249.234
 40
7.595
 50
271.253
 51
273.013
  0
ARC
  8
APS_GEOMETRY
 10
15447.653
 20
-247.84
 40
8.991
 50
273.013
 51
274.5
  0
ARC
  8
APS_GEOMETRY
 10
15439.325
 20
-142.014
 40
115.145
 50
274.5
 51
274.915
  0
LINE
  8
APS_GEOMETRY
 10
15449.19
 11
15450.172
 20
-256.735
 21
-256.649
  0
LINE
  8
APS_GEOMETRY
 10
15450.172
 11
15451.453
 20
-256.649
 21
-256.533
  0
ARC
  8
APS_GEOMETRY
 10
15453.559
 20
-276.894
 40
20.471
 50
93.24
 51
95.906
  0
ARC
  8
APS_GEOMETRY
 10
15453.186
 20
-270.303
 40
13.868
 50
90.0
 51
93.24
  0
ARC
  8
APS_GEOMETRY
 10
15453.186
 20
-268.211
 40
11.777
 50
77.12
 51
90.0
  0
ARC
  8
APS_GEOMETRY
 10
15453.807
 20
-265.498
 40
8.993
 50
62.371
 51
77.12
  0
ARC
  8
APS_GEOMETRY
 10
15454.857
 20
-263.528
 40
6.761
 50
31.215
 51
62.517
  0
ARC
  8
APS_GEOMETRY
 10
15454.826
 20
-263.547
 40
6.798
 50
360.0
 51
31.215
  0
ARC
  8
APS_GEOMETRY
 10
15454.643
 20
-263.547
 40
6.981
 50
334.496
 51
360.0
  0
ARC
  8
APS_GEOMETRY
 10
15454.986
 20
-263.711
 40
6.601
 50
308.254
 51
334.496
  0
ARC
  8
APS_GEOMETRY
 10
15453.937
 20
-262.328
 40
8.337
 50
287.855
 51
308.034
  0
ARC
  8
APS_GEOMETRY
 10
15453.235
 20
-260.152
 40
10.623
 50
270.0
 51
287.855
  0
ARC
  8
APS_GEOMETRY
 10
15453.235
 20
-254.677
 40
16.098
 50
266.918
 51
270.0
  0
ARC
  8
APS_GEOMETRY
 10
15454.213
 20
-236.528
 40
34.273
 50
264.806
 51
266.918
  0
ARC
  8
APS_GEOMETRY
 10
15447.676
 20
-317.583
 40
47.047
 50
85.815
 51
86.634
  0
ARC
  8
APS_GEOMETRY
 10
15450.276
 20
-273.393
 40
2.782
 50
86.634
 51
90.0
  0
ARC
  8
APS_GEOMETRY
 10
15450.276
 20
-271.022
 40
0.41
 50
90.0
 51
139.686
  0
ARC
  8
APS_GEOMETRY
 10
15450.428
 20
-271.151
 40
0.61
 50
139.686
 51
180.0
  0
LINE
  8
APS_GEOMETRY
 10
15449.818
 11
15449.818
 20
-271.151
 21
-271.249
  0
LINE
  8
APS_GEOMETRY
 10
15449.818
 11
15449.932
 20
-271.249
 21
-273.931
  0
ARC
  8
APS_GEOMETRY
 10
15453.808
 20
-273.769
 40
3.879
 50
182.386
 51
193.753
  0
ARC
  8
APS_GEOMETRY
 10
15451.309
 20
-274.381
 40
1.306
 50
193.753
 51
213.408
  0
ARC
  8
APS_GEOMETRY
 10
15451.337
 20
-274.362
 40
1.339
 50
213.408
 51
232.628
  0
ARC
  8
APS_GEOMETRY
 10
15453.592
 20
-271.41
 40
5.055
 50
232.628
 51
242.488
  0
ARC
  8
APS_GEOMETRY
 10
15449.831
 20
-278.542
 40
3.009
 50
40.539
 51
61.699
  0
ARC
  8
APS_GEOMETRY
 10
15451.475
 20
-277.136
 40
0.845
 50
360.0
 51
40.539
  0
ARC
  8
APS_GEOMETRY
 10
15451.185
 20
-277.136
 40
1.135
 50
315.297
 51
360.0
  0
ARC
  8
APS_GEOMETRY
 10
15449.65
 20
-275.617
 40
3.294
 50
289.502
 51
315.297
  0
ARC
  8
APS_GEOMETRY
 10
15448.526
 20
-272.441
 40
6.663
 50
282.372
 51
289.502
  0
ARC
  8
APS_GEOMETRY
 10
15447.344
 20
-267.056
 40
12.176
 50
277.099
 51
282.372
  0
ARC
  8
APS_GEOMETRY
 10
15446.859
 20
-263.156
 40
16.106
 50
273.104
 51
277.099
  0
ARC
  8
APS_GEOMETRY
 10
15446.286
 20
-252.597
 40
26.681
 50
270.0
 51
273.104
  0
ARC
  8
APS_GEOMETRY
 10
15446.286
 20
-252.917
 40
26.361
 50
263.473
 51
270.0
  0
ARC
  8
APS_GEOMETRY
 10
15444.12
 20
-271.85
 40
7.304
 50
251.056
 51
263.473
  0
ARC
  8
APS_GEOMETRY
 10
15442.729
 20
-275.903
 40
3.02
 50
224.161
 51
251.056
  0
ARC
  8
APS_GEOMETRY
 10
15441.391
 20
-277.201
 40
1.156
 50
180.0
 51
224.161
  0
ARC
  8
APS_GEOMETRY
 10
15441.631
 20
-277.201
 40
1.396
 50
160.821
 51
180.0
  0
ARC
  8
APS_GEOMETRY
 10
15441.046
 20
-276.998
 40
0.776
 50
135.0
 51
160.821
  0
ARC
  8
APS_GEOMETRY
 10
15441.599
 20
-277.551
 40
1.558
 50
121.522
 51
135.0
  0
ARC
  8
APS_GEOMETRY
 10
15447.842
 20
-287.729
 40
13.498
 50
116.952
 51
121.522
  0
ARC
  8
APS_GEOMETRY
 10
15441.025
 20
-274.373
 40
1.496
 50
297.824
 51
321.605
  0
ARC
  8
APS_GEOMETRY
 10
15441.37
 20
-274.647
 40
1.057
 50
321.605
 51
349.992
  0
ARC
  8
APS_GEOMETRY
 10
15439.77
 20
-274.364
 40
2.681
 50
349.992
 51
356.014
  0
ARC
  8
APS_GEOMETRY
 10
15415.439
 20
-272.669
 40
27.071
 50
356.014
 51
357.908
  0
ARC
  8
APS_GEOMETRY
 10
15387.037
 20
-271.631
 40
55.492
 50
357.908
 51
358.833
  0
ARC
  8
APS_GEOMETRY
 10
15284.339
 20
-269.539
 40
158.212
 50
358.833
 51
359.381
  0
LINE
  8
APS_GEOMETRY
 10
15449.932
 11
15449.932
 20
-260.571
 21
-266.131
  0
ARC
  8
APS_GEOMETRY
 10
15451.62
 20
-266.131
 40
1.687
 50
180.0
 51
199.885
  0
ARC
  8
APS_GEOMETRY
 10
15450.357
 20
-266.588
 40
0.345
 50
199.885
 51
244.799
  0
ARC
  8
APS_GEOMETRY
 10
15451.083
 20
-265.093
 40
2.007
 50
244.231
 51
258.996
  0
ARC
  8
APS_GEOMETRY
 10
15451.388
 20
-263.524
 40
3.604
 50
258.996
 51
270.0
  0
ARC
  8
APS_GEOMETRY
 10
15451.388
 20
-263.903
 40
3.225
 50
270.0
 51
288.435
  0
ARC
  8
APS_GEOMETRY
 10
15451.619
 20
-264.597
 40
2.494
 50
288.435
 51
309.428
  0
ARC
  8
APS_GEOMETRY
 10
15451.703
 20
-264.685
 40
2.373
 50
309.193
 51
339.939
  0
ARC
  8
APS_GEOMETRY
 10
15448.768
 20
-263.613
 40
5.497
 50
339.939
 51
0.0
  0
ARC
  8
APS_GEOMETRY
 10
15449.092
 20
-263.613
 40
5.174
 50
360.0
 51
22.011
  0
ARC
  8
APS_GEOMETRY
 10
15451.384
 20
-262.686
 40
2.701
 50
22.011
 51
52.651
  0
ARC
  8
APS_GEOMETRY
 10
15451.349
 20
-262.711
 40
2.742
 50
52.374
 51
72.309
  0
ARC
  8
APS_GEOMETRY
 10
15451.126
 20
-263.409
 40
3.475
 50
72.309
 51
90.0
  0
ARC
  8
APS_GEOMETRY
 10
15451.126
 20
-261.96
 40
2.026
 50
90.0
 51
118.113
  0
ARC
  8
APS_GEOMETRY
 10
15450.384
 20
-260.571
 40
0.452
 50
118.113
 51
180.0
  0
ARC
  8
APS_GEOMETRY
 10
15476.301
 20
-269.064
 40
12.891
 50
71.91
 51
90.0
  0
ARC
  8
APS_GEOMETRY
 10
15476.8
 20
-267.535
 40
11.283
 50
52.561
 51
71.91
  0
ARC
  8
APS_GEOMETRY
 10
15476.67
 20
-267.573
 40
11.393
 50
38.846
 51
52.156
  0
ARC
  8
APS_GEOMETRY
 10
15474.884
 20
-269.012
 40
13.686
 50
26.707
 51
38.846
  0
ARC
  8
APS_GEOMETRY
 10
15475.237
 20
-268.723
 40
13.241
 50
13.868
 51
26.278
  0
ARC
  8
APS_GEOMETRY
 10
15477.787
 20
-268.093
 40
10.614
 50
360.0
 51
13.868
  0
ARC
  8
APS_GEOMETRY
 10
15477.952
 20
-268.093
 40
10.449
 50
339.712
 51
360.0
  0
ARC
  8
APS_GEOMETRY
 10
15477.364
 20
-267.876
 40
11.076
 50
320.013
 51
339.712
  0
ARC
  8
APS_GEOMETRY
 10
15477.266
 20
-267.822
 40
11.186
 50
303.344
 51
320.123
  0
ARC
  8
APS_GEOMETRY
 10
15476.118
 20
-266.077
 40
13.274
 50
287.949
 51
303.344
  0
ARC
  8
APS_GEOMETRY
 10
15475.741
 20
-264.77
 40
14.634
 50
279.039
 51
287.776
  0
ARC
  8
APS_GEOMETRY
 10
15475.892
 20
-265.719
 40
13.673
 50
270.0
 51
279.039
  0
ARC
  8
APS_GEOMETRY
 10
15475.892
 20
-266.387
 40
13.005
 50
257.728
 51
270.0
  0
ARC
  8
APS_GEOMETRY
 10
15475.913
 20
-266.293
 40
13.102
 50
245.501
 51
257.728
  0
ARC
  8
APS_GEOMETRY
 10
15475.177
 20
-267.904
 40
11.33
 50
228.665
 51
245.511
  0
ARC
  8
APS_GEOMETRY
 10
15474.932
 20
-268.183
 40
10.959
 50
211.535
 51
228.665
  0
ARC
  8
APS_GEOMETRY
 10
15475.253
 20
-267.947
 40
11.356
 50
195.642
 51
211.701
  0
ARC
  8
APS_GEOMETRY
 10
15475.839
 20
-267.783
 40
11.966
 50
180.0
 51
195.642
  0
ARC
  8
APS_GEOMETRY
 10
15475.965
 20
-267.783
 40
12.091
 50
162.181
 51
180.0
  0
ARC
  8
APS_GEOMETRY
 10
15474.862
 20
-267.428
 40
10.933
 50
143.434
 51
162.181
  0
ARC
  8
APS_GEOMETRY
 10
15474.714
 20
-267.309
 40
10.742
 50
126.384
 51
143.471
  0
ARC
  8
APS_GEOMETRY
 10
15475.731
 20
-268.689
 40
12.457
 50
110.525
 51
126.384
  0
ARC
  8
APS_GEOMETRY
 10
15475.68
 20
-268.315
 40
12.089
 50
99.77
 51
110.925
  0
ARC
  8
APS_GEOMETRY
 10
15476.301
 20
-271.921
 40
15.748
 50
90.0
 51
99.77
  0
ARC
  8
APS_GEOMETRY
 10
15474.748
 20
-263.269
 40
2.404
 50
90.0
 51
119.604
  0
ARC
  8
APS_GEOMETRY
 10
15474.958
 20
-263.64
 40
2.83
 50
119.604
 51
146.842
  0
ARC
  8
APS_GEOMETRY
 10
15475.381
 20
-263.987
 40
3.374
 50
145.84
 51
164.055
  0
ARC
  8
APS_GEOMETRY
 10
15476.362
 20
-264.267
 40
4.394
 50
164.055
 51
180.0
  0
ARC
  8
APS_GEOMETRY
 10
15482.494
 20
-264.267
 40
10.526
 50
180.0
 51
189.977
  0
ARC
  8
APS_GEOMETRY
 10
15491.82
 20
-262.626
 40
19.995
 50
189.977
 51
197.211
  0
ARC
  8
APS_GEOMETRY
 10
15493.86
 20
-261.995
 40
22.131
 50
197.211
 51
203.76
  0
ARC
  8
APS_GEOMETRY
 10
15488.778
 20
-264.232
 40
16.579
 50
203.76
 51
211.329
  0
ARC
  8
APS_GEOMETRY
 10
15478.344
 20
-270.493
 40
4.411
 50
212.32
 51
224.441
  0
ARC
  8
APS_GEOMETRY
 10
15477.917
 20
-270.913
 40
3.812
 50
224.441
 51
237.484
  0
ARC
  8
APS_GEOMETRY
 10
15477.64
 20
-271.346
 40
3.298
 50
237.484
 51
252.416
  0
ARC
  8
APS_GEOMETRY
 10
15477.364
 20
-272.218
 40
2.383
 50
252.416
 51
270.0
  0
ARC
  8
APS_GEOMETRY
 10
15477.364
 20
-271.936
 40
2.666
 50
270.0
 51
294.953
  0
ARC
  8
APS_GEOMETRY
 10
15477.439
 20
-272.096
 40
2.489
 50
294.953
 51
320.793
  0
ARC
  8
APS_GEOMETRY
 10
15477.038
 20
-271.769
 40
3.005
 50
320.793
 51
342.777
  0
ARC
  8
APS_GEOMETRY
 10
15475.255
 20
-271.216
 40
4.873
 50
342.777
 51
0.0
  0
ARC
  8
APS_GEOMETRY
 10
15466.874
 20
-271.216
 40
13.254
 50
0.0
 51
8.499
  0
ARC
  8
APS_GEOMETRY
 10
15461.04
 20
-272.088
 40
19.152
 50
8.499
 51
15.566
  0
ARC
  8
APS_GEOMETRY
 10
15461.742
 20
-271.893
 40
18.424
 50
15.566
 51
22.909
  0
ARC
  8
APS_GEOMETRY
 10
15467.774
 20
-269.344
 40
11.876
 50
22.909
 51
32.057
  0
ARC
  8
APS_GEOMETRY
 10
15472.511
 20
-266.359
 40
6.276
 50
31.921
 51
42.51
  0
ARC
  8
APS_GEOMETRY
 10
15473.812
 20
-265.166
 40
4.511
 50
42.51
 51
55.008
  0
ARC
  8
APS_GEOMETRY
 10
15474.252
 20
-264.539
 40
3.745
 50
55.008
 51
69.88
  0
ARC
  8
APS_GEOMETRY
 10
15474.646
 20
-263.463
 40
2.599
 50
69.88
 51
87.754
  0
ARC
  8
APS_GEOMETRY
 10
15501.558
 20
-270.775
 40
1.21
 50
90.0
 51
115.837
  0
ARC
  8
APS_GEOMETRY
 10
15501.26
 20
-270.16
 40
0.526
 50
115.837
 51
155.462
  0
ARC
  8
APS_GEOMETRY
 10
15501.608
 20
-270.318
 40
0.909
 50
155.462
 51
168.366
  0
ARC
  8
APS_GEOMETRY
 10
15504.781
 20
-270.972
 40
4.148
 50
168.366
 51
174.395
  0
ARC
  8
APS_GEOMETRY
 10
15507.979
 20
-271.285
 40
7.361
 50
174.395
 51
177.813
  0
ARC
  8
APS_GEOMETRY
 10
15518.593
 20
-271.691
 40
17.983
 50
177.813
 51
180.0
  0
ARC
  8
APS_GEOMETRY
 10
15526.277
 20
-271.691
 40
25.667
 50
180.0
 51
184.62
  0
ARC
  8
APS_GEOMETRY
 10
15509.067
 20
-273.081
 40
8.401
 50
184.62
 51
192.7
  0
ARC
  8
APS_GEOMETRY
 10
15502.432
 20
-274.538
 40
1.609
 50
194.036
 51
205.821
  0
ARC
  8
APS_GEOMETRY
 10
15501.729
 20
-274.878
 40
0.828
 50
205.821
 51
222.274
  0
ARC
  8
APS_GEOMETRY
 10
15501.945
 20
-274.682
 40
1.119
 50
222.274
 51
234.605
  0
ARC
  8
APS_GEOMETRY
 10
15504.375
 20
-271.262
 40
5.315
 50
234.605
 51
240.255
  0
ARC
  8
APS_GEOMETRY
 10
15500.681
 20
-277.799
 40
2.194
 50
34.592
 51
61.189
  0
ARC
  8
APS_GEOMETRY
 10
15501.406
 20
-277.299
 40
1.313
 50
360.0
 51
34.592
  0
ARC
  8
APS_GEOMETRY
 10
15501.449
 20
-277.299
 40
1.27
 50
318.231
 51
360.0
  0
ARC
  8
APS_GEOMETRY
 10
15500.6
 20
-276.541
 40
2.408
 50
288.227
 51
318.231
  0
ARC
  8
APS_GEOMETRY
 10
15499.72
 20
-273.867
 40
5.223
 50
280.377
 51
288.227
  0
ARC
  8
APS_GEOMETRY
 10
15498.185
 20
-265.485
 40
13.744
 50
275.541
 51
280.377
  0
ARC
  8
APS_GEOMETRY
 10
15497.523
 20
-258.666
 40
20.595
 50
272.304
 51
275.541
  0
ARC
  8
APS_GEOMETRY
 10
15496.718
 20
-238.649
 40
40.629
 50
270.0
 51
272.304
  0
ARC
  8
APS_GEOMETRY
 10
15496.718
 20
-255.378
 40
23.9
 50
262.811
 51
270.0
  0
ARC
  8
APS_GEOMETRY
 10
15494.573
 20
-272.381
 40
6.762
 50
249.274
 51
262.811
  0
ARC
  8
APS_GEOMETRY
 10
15493.224
 20
-275.946
 40
2.95
 50
221.379
 51
249.274
  0
ARC
  8
APS_GEOMETRY
 10
15492.041
 20
-276.989
 40
1.373
 50
180.0
 51
221.379
  0
ARC
  8
APS_GEOMETRY
 10
15492.032
 20
-276.989
 40
1.364
 50
164.055
 51
180.0
  0
ARC
  8
APS_GEOMETRY
 10
15491.463
 20
-276.826
 40
0.773
 50
142.815
 51
164.055
  0
ARC
  8
APS_GEOMETRY
 10
15491.821
 20
-277.098
 40
1.222
 50
129.007
 51
142.815
  0
ARC
  8
APS_GEOMETRY
 10
15496.217
 20
-282.525
 40
8.206
 50
123.69
 51
129.007
  0
ARC
  8
APS_GEOMETRY
 10
15489.979
 20
-273.138
 40
3.064
 50
303.389
 51
319.022
  0
ARC
  8
APS_GEOMETRY
 10
15490.808
 20
-273.859
 40
1.966
 50
319.022
 51
338.575
  0
ARC
  8
APS_GEOMETRY
 10
15489.699
 20
-273.423
 40
3.158
 50
338.575
 51
351.049
  0
ARC
  8
APS_GEOMETRY
 10
15476.296
 20
-271.312
 40
16.726
 50
351.049
 51
356.46
  0
ARC
  8
APS_GEOMETRY
 10
15480.714
 20
-271.48
 40
12.307
 50
355.972
 51
358.68
  0
ARC
  8
APS_GEOMETRY
 10
15335.618
 20
-268.137
 40
157.441
 50
358.68
 51
359.437
  0
LINE
  8
APS_GEOMETRY
 10
15493.051
 11
15493.066
 20
-269.683
 21
-267.228
  0
LINE
  8
APS_GEOMETRY
 10
15493.066
 11
15493.072
 20
-267.228
 21
-264.022
  0
ARC
  8
APS_GEOMETRY
 10
15455.167
 20
-264.022
 40
37.905
 50
360.0
 51
1.717
  0
ARC
  8
APS_GEOMETRY
 10
15475.451
 20
-263.414
 40
17.611
 50
1.717
 51
4.236
  0
ARC
  8
APS_GEOMETRY
 10
15482.066
 20
-262.924
 40
10.979
 50
4.236
 51
8.269
  0
ARC
  8
APS_GEOMETRY
 10
15489.678
 20
-261.817
 40
3.287
 50
8.269
 51
15.642
  0
ARC
  8
APS_GEOMETRY
 10
15490.988
 20
-261.451
 40
1.926
 50
15.642
 51
39.417
  0
ARC
  8
APS_GEOMETRY
 10
15491.017
 20
-261.426
 40
1.888
 50
39.417
 51
63.435
  0
ARC
  8
APS_GEOMETRY
 10
15494.418
 20
-254.382
 40
5.935
 50
236.874
 51
244.486
  0
ARC
  8
APS_GEOMETRY
 10
15491.888
 20
-258.258
 40
1.306
 50
220.601
 51
236.874
  0
ARC
  8
APS_GEOMETRY
 10
15491.598
 20
-258.507
 40
0.923
 50
198.246
 51
220.601
  0
ARC
  8
APS_GEOMETRY
 10
15492.032
 20
-258.364
 40
1.38
 50
180.0
 51
198.246
  0
ARC
  8
APS_GEOMETRY
 10
15492.025
 20
-258.364
 40
1.374
 50
156.161
 51
180.0
  0
ARC
  8
APS_GEOMETRY
 10
15492.217
 20
-258.449
 40
1.583
 50
133.977
 51
156.161
  0
ARC
  8
APS_GEOMETRY
 10
15492.599
 20
-258.844
 40
2.133
 50
116.996
 51
133.977
  0
ARC
  8
APS_GEOMETRY
 10
15493.357
 20
-260.333
 40
3.804
 50
104.3
 51
116.996
  0
ARC
  8
APS_GEOMETRY
 10
15493.553
 20
-261.086
 40
4.582
 50
95.326
 51
104.349
  0
ARC
  8
APS_GEOMETRY
 10
15494.347
 20
-269.603
 40
13.136
 50
90.0
 51
95.326
  0
ARC
  8
APS_GEOMETRY
 10
15494.347
 20
-262.974
 40
6.506
 50
87.553
 51
90.0
  0
ARC
  8
APS_GEOMETRY
 10
15492.963
 20
-295.367
 40
38.93
 50
86.553
 51
87.553
  0
ARC
  8
APS_GEOMETRY
 10
15490.994
 20
-328.041
 40
71.662
 50
86.009
 51
86.553
  0
ARC
  8
APS_GEOMETRY
 10
15483.34
 20
-437.747
 40
181.636
 50
85.668
 51
86.009
  0
ARC
  8
APS_GEOMETRY
 10
15497.664
 20
-249.092
 40
7.563
 50
265.426
 51
268.531
  0
ARC
  8
APS_GEOMETRY
 10
15498.337
 20
-222.871
 40
33.793
 50
268.531
 51
270.0
  0
ARC
  8
APS_GEOMETRY
 10
15498.337
 20
-230.908
 40
25.755
 50
270.0
 51
271.637
  0
ARC
  8
APS_GEOMETRY
 10
15497.761
 20
-210.766
 40
45.906
 50
271.637
 51
272.862
  0
ARC
  8
APS_GEOMETRY
 10
15497.101
 20
-197.551
 40
59.137
 50
272.862
 51
273.814
  0
ARC
  8
APS_GEOMETRY
 10
15494.864
 20
-163.999
 40
92.764
 50
273.814
 51
274.574
  0
ARC
  8
APS_GEOMETRY
 10
15508.895
 20
-346.494
 40
90.271
 50
93.72
 51
94.214
  0
ARC
  8
APS_GEOMETRY
 10
15505.9
 20
-300.435
 40
44.115
 50
93.013
 51
93.72
  0
ARC
  8
APS_GEOMETRY
 10
15505.079
 20
-284.838
 40
28.496
 50
91.918
 51
93.013
  0
ARC
  8
APS_GEOMETRY
 10
15504.436
 20
-265.63
 40
9.277
 50
90.0
 51
91.918
  0
ARC
  8
APS_GEOMETRY
 10
15504.436
 20
-268.407
 40
12.054
 50
73.82
 51
90.0
  0
ARC
  8
APS_GEOMETRY
 10
15505.624
 20
-264.312
 40
7.791
 50
53.658
 51
73.82
  0
ARC
  8
APS_GEOMETRY
 10
15507.314
 20
-262.002
 40
4.929
 50
26.03
 51
53.569
  0
ARC
  8
APS_GEOMETRY
 10
15506.795
 20
-262.256
 40
5.506
 50
360.0
 51
26.03
  0
ARC
  8
APS_GEOMETRY
 10
15506.58
 20
-262.256
 40
5.722
 50
345.282
 51
360.0
  0
ARC
  8
APS_GEOMETRY
 10
15507.13
 20
-262.4
 40
5.152
 50
329.767
 51
345.282
  0
ARC
  8
APS_GEOMETRY
 10
15507.442
 20
-262.582
 40
4.792
 50
313.168
 51
329.767
  0
ARC
  8
APS_GEOMETRY
 10
15507.557
 20
-262.705
 40
4.623
 50
296.267
 51
313.168
  0
ARC
  8
APS_GEOMETRY
 10
15510.189
 20
-268.022
 40
1.31
 50
116.565
 51
139.899
  0
ARC
  8
APS_GEOMETRY
 10
15509.536
 20
-267.472
 40
0.456
 50
139.899
 51
180.0
  0
ARC
  8
APS_GEOMETRY
 10
15509.586
 20
-267.472
 40
0.506
 50
180.0
 51
226.193
  0
ARC
  8
APS_GEOMETRY
 10
15510.522
 20
-266.497
 40
1.858
 50
226.193
 51
249.829
  0
ARC
  8
APS_GEOMETRY
 10
15507.841
 20
-273.877
 40
5.995
 50
53.249
 51
70.105
  0
ARC
  8
APS_GEOMETRY
 10
15509.059
 20
-272.247
 40
3.96
 50
32.471
 51
53.249
  0
ARC
  8
APS_GEOMETRY
 10
15508.491
 20
-272.608
 40
4.632
 50
23.305
 51
32.471
  0
ARC
  8
APS_GEOMETRY
 10
15504.986
 20
-274.118
 40
8.449
 50
16.521
 51
23.305
  0
ARC
  8
APS_GEOMETRY
 10
15502.253
 20
-274.928
 40
11.299
 50
11.429
 51
16.521
  0
ARC
  8
APS_GEOMETRY
 10
15494.509
 20
-276.494
 40
19.201
 50
7.524
 51
11.429
  0
ARC
  8
APS_GEOMETRY
 10
15520.173
 20
-273.076
 40
6.69
 50
187.765
 51
196.914
  0
ARC
  8
APS_GEOMETRY
 10
15514.701
 20
-274.74
 40
0.971
 50
196.914
 51
221.082
  0
ARC
  8
APS_GEOMETRY
 10
15514.722
 20
-274.722
 40
0.999
 50
221.082
 51
244.607
  0
ARC
  8
APS_GEOMETRY
 10
15517.059
 20
-269.799
 40
6.448
 50
244.607
 51
253.811
  0
ARC
  8
APS_GEOMETRY
 10
15515.004
 20
-276.804
 40
0.852
 50
51.45
 51
72.474
  0
ARC
  8
APS_GEOMETRY
 10
15514.793
 20
-277.069
 40
1.191
 50
33.69
 51
51.45
  0
ARC
  8
APS_GEOMETRY
 10
15514.744
 20
-277.102
 40
1.25
 50
16.639
 51
33.69
  0
ARC
  8
APS_GEOMETRY
 10
15514.684
 20
-277.119
 40
1.312
 50
360.0
 51
16.639
  0
ARC
  8
APS_GEOMETRY
 10
15514.666
 20
-277.119
 40
1.331
 50
338.993
 51
360.0
  0
ARC
  8
APS_GEOMETRY
 10
15513.853
 20
-276.807
 40
2.201
 50
322.696
 51
338.993
  0
ARC
  8
APS_GEOMETRY
 10
15513.551
 20
-276.577
 40
2.582
 50
308.603
 51
322.696
  0
ARC
  8
APS_GEOMETRY
 10
15513.342
 20
-276.316
 40
2.916
 50
295.346
 51
308.603
  0
ARC
  8
APS_GEOMETRY
 10
15512.247
 20
-273.903
 40
5.566
 50
279.583
 51
294.905
  0
ARC
  8
APS_GEOMETRY
 10
15510.813
 20
-265.412
 40
14.176
 50
270.0
 51
279.583
  0
ARC
  8
APS_GEOMETRY
 10
15510.813
 20
-269.253
 40
10.336
 50
261.247
 51
270.0
  0
ARC
  8
APS_GEOMETRY
 10
15510.151
 20
-273.553
 40
5.985
 50
249.737
 51
261.247
  0
ARC
  8
APS_GEOMETRY
 10
15509.716
 20
-274.732
 40
4.728
 50
235.345
 51
249.737
  0
ARC
  8
APS_GEOMETRY
 10
15509.166
 20
-275.527
 40
3.762
 50
219.198
 51
235.345
  0
ARC
  8
APS_GEOMETRY
 10
15510.323
 20
-274.541
 40
5.281
 50
209.076
 51
219.56
  0
ARC
  8
APS_GEOMETRY
 10
15512.993
 20
-273.056
 40
8.337
 50
200.735
 51
209.076
  0
ARC
  8
APS_GEOMETRY
 10
15516.678
 20
-271.661
 40
12.277
 50
197.881
 51
200.735
  0
ARC
  8
APS_GEOMETRY
 10
15531.819
 20
-266.776
 40
28.186
 50
195.997
 51
197.881
  0
ARC
  8
APS_GEOMETRY
 10
15543.01
 20
-263.568
 40
39.828
 50
194.664
 51
195.997
  0
ARC
  8
APS_GEOMETRY
 10
15574.007
 20
-255.456
 40
71.869
 50
193.671
 51
194.664
  0
ARC
  8
APS_GEOMETRY
 10
15495.402
 20
-274.567
 40
9.026
 50
13.61
 51
23.585
  0
ARC
  8
APS_GEOMETRY
 10
15501.312
 20
-271.987
 40
2.577
 50
23.585
 51
42.31
  0
ARC
  8
APS_GEOMETRY
 10
15501.848
 20
-271.499
 40
1.853
 50
42.31
 51
67.521
  0
ARC
  8
APS_GEOMETRY
 10
15501.424
 20
-272.524
 40
2.962
 50
67.521
 51
87.397
  0
LINE
  8
APS_GEOMETRY
 10
15500.626
 11
15500.446
 20
-261.226
 21
-265.035
  0
LINE
  8
APS_GEOMETRY
 10
15500.446
 11
15500.446
 20
-265.035
 21
-265.097
  0
LINE
  8
APS_GEOMETRY
 10
15500.446
 11
15500.446
 20
-265.097
 21
-265.183
  0
ARC
  8
APS_GEOMETRY
 10
15503.093
 20
-265.183
 40
2.647
 50
180.0
 51
192.339
  0
ARC
  8
APS_GEOMETRY
 10
15500.989
 20
-265.643
 40
0.493
 50
192.339
 51
221.186
  0
ARC
  8
APS_GEOMETRY
 10
15500.939
 20
-265.687
 40
0.426
 50
221.186
 51
253.872
  0
ARC
  8
APS_GEOMETRY
 10
15501.296
 20
-264.449
 40
1.715
 50
253.872
 51
270.0
  0
ARC
  8
APS_GEOMETRY
 10
15501.296
 20
-262.178
 40
3.985
 50
270.0
 51
289.569
  0
ARC
  8
APS_GEOMETRY
 10
15502.021
 20
-264.217
 40
1.822
 50
289.569
 51
318.681
  0
ARC
  8
APS_GEOMETRY
 10
15501.825
 20
-264.044
 40
2.083
 50
318.681
 51
344.628
  0
ARC
  8
APS_GEOMETRY
 10
15498.174
 20
-263.041
 40
5.87
 50
344.628
 51
0.0
  0
ARC
  8
APS_GEOMETRY
 10
15499.91
 20
-263.041
 40
4.134
 50
0.0
 51
35.369
  0
ARC
  8
APS_GEOMETRY
 10
15501.803
 20
-261.696
 40
1.812
 50
35.369
 51
90.0
  0
ARC
  8
APS_GEOMETRY
 10
15501.803
 20
-261.716
 40
1.831
 50
90.0
 51
108.435
  0
ARC
  8
APS_GEOMETRY
 10
15501.447
 20
-260.647
 40
0.705
 50
108.435
 51
138.366
  0
ARC
  8
APS_GEOMETRY
 10
15501.543
 20
-260.732
 40
0.833
 50
138.366
 51
164.291
  0
ARC
  8
APS_GEOMETRY
 10
15503.785
 20
-261.363
 40
3.162
 50
164.291
 51
177.51
  0
LINE
  8
APS_GEOMETRY
 10
15525.883
 11
15534.5
 20
-256.631
 21
-256.631
  0
ARC
  8
APS_GEOMETRY
 10
15534.065
 20
-244.283
 40
12.355
 50
272.021
 51
278.44
  0
ARC
  8
APS_GEOMETRY
 10
15534.551
 20
-247.561
 40
9.042
 50
278.44
 51
285.945
  0
ARC
  8
APS_GEOMETRY
 10
15538.209
 20
-260.659
 40
4.559
 50
98.584
 51
104.931
  0
ARC
  8
APS_GEOMETRY
 10
15537.901
 20
-258.619
 40
2.495
 50
90.0
 51
98.584
  0
ARC
  8
APS_GEOMETRY
 10
15537.901
 20
-258.0
 40
1.876
 50
52.871
 51
90.0
  0
ARC
  8
APS_GEOMETRY
 10
15535.357
 20
-261.36
 40
6.091
 50
32.518
 51
52.871
  0
ARC
  8
APS_GEOMETRY
 10
15533.342
 20
-262.645
 40
8.481
 50
17.209
 51
32.518
  0
ARC
  8
APS_GEOMETRY
 10
15535.022
 20
-262.125
 40
6.723
 50
360.0
 51
17.209
  0
ARC
  8
APS_GEOMETRY
 10
15538.385
 20
-262.125
 40
3.359
 50
337.348
 51
360.0
  0
ARC
  8
APS_GEOMETRY
 10
15539.735
 20
-262.688
 40
1.896
 50
307.042
 51
337.348
  0
ARC
  8
APS_GEOMETRY
 10
15539.501
 20
-262.366
 40
2.295
 50
287.186
 51
306.87
  0
ARC
  8
APS_GEOMETRY
 10
15539.291
 20
-261.689
 40
3.003
 50
270.0
 51
287.186
  0
ARC
  8
APS_GEOMETRY
 10
15539.291
 20
-261.995
 40
2.697
 50
252.221
 51
270.0
  0
ARC
  8
APS_GEOMETRY
 10
15539.166
 20
-262.387
 40
2.286
 50
232.896
 51
252.221
  0
ARC
  8
APS_GEOMETRY
 10
15539.651
 20
-261.745
 40
3.09
 50
218.3
 51
232.896
  0
ARC
  8
APS_GEOMETRY
 10
15543.441
 20
-258.752
 40
7.92
 50
209.197
 51
218.3
  0
ARC
  8
APS_GEOMETRY
 10
15524.164
 20
-269.196
 40
14.006
 50
28.025
 51
32.699
  0
ARC
  8
APS_GEOMETRY
 10
15534.242
 20
-262.726
 40
2.03
 50
32.699
 51
45.0
  0
ARC
  8
APS_GEOMETRY
 10
15534.93
 20
-262.039
 40
1.058
 50
45.0
 51
67.557
  0
ARC
  8
APS_GEOMETRY
 10
15534.925
 20
-262.049
 40
1.069
 50
67.557
 51
90.0
  0
ARC
  8
APS_GEOMETRY
 10
15534.925
 20
-261.965
 40
0.984
 50
90.0
 51
120.801
  0
ARC
  8
APS_GEOMETRY
 10
15534.892
 20
-261.909
 40
0.919
 50
120.801
 51
152.7
  0
ARC
  8
APS_GEOMETRY
 10
15535.622
 20
-262.285
 40
1.74
 50
152.7
 51
171.085
  0
ARC
  8
APS_GEOMETRY
 10
15541.166
 20
-263.155
 40
7.353
 50
171.085
 51
180.0
  0
LINE
  8
APS_GEOMETRY
 10
15533.814
 11
15533.814
 20
-263.155
 21
-272.312
  0
ARC
  8
APS_GEOMETRY
 10
15543.527
 20
-272.312
 40
9.714
 50
180.0
 51
188.194
  0
ARC
  8
APS_GEOMETRY
 10
15536.273
 20
-273.357
 40
2.385
 50
188.194
 51
204.775
  0
ARC
  8
APS_GEOMETRY
 10
15535.569
 20
-273.682
 40
1.609
 50
204.775
 51
228.576
  0
ARC
  8
APS_GEOMETRY
 10
15536.23
 20
-272.933
 40
2.608
 50
228.576
 51
247.218
  0
ARC
  8
APS_GEOMETRY
 10
15532.395
 20
-281.969
 40
7.208
 50
59.381
 51
66.93
  0
ARC
  8
APS_GEOMETRY
 10
15535.226
 20
-277.186
 40
1.65
 50
43.568
 51
59.381
  0
ARC
  8
APS_GEOMETRY
 10
15535.679
 20
-276.755
 40
1.025
 50
19.041
 51
43.568
  0
ARC
  8
APS_GEOMETRY
 10
15535.05
 20
-276.972
 40
1.691
 50
360.0
 51
19.041
  0
ARC
  8
APS_GEOMETRY
 10
15535.367
 20
-276.972
 40
1.374
 50
317.66
 51
360.0
  0
ARC
  8
APS_GEOMETRY
 10
15534.106
 20
-275.823
 40
3.08
 50
289.747
 51
317.66
  0
ARC
  8
APS_GEOMETRY
 10
15533.049
 20
-272.881
 40
6.206
 50
281.964
 51
289.747
  0
ARC
  8
APS_GEOMETRY
 10
15531.586
 20
-265.975
 40
13.265
 50
276.643
 51
281.964
  0
ARC
  8
APS_GEOMETRY
 10
15530.97
 20
-260.687
 40
18.589
 50
272.836
 51
276.643
  0
ARC
  8
APS_GEOMETRY
 10
15530.233
 20
-245.799
 40
33.495
 50
270.0
 51
272.836
  0
ARC
  8
APS_GEOMETRY
 10
15530.233
 20
-236.574
 40
42.72
 50
267.283
 51
270.0
  0
ARC
  8
APS_GEOMETRY
 10
15529.336
 20
-255.476
 40
23.797
 50
263.643
 51
267.283
  0
ARC
  8
APS_GEOMETRY
 10
15528.584
 20
-262.217
 40
17.014
 50
258.563
 51
263.643
  0
ARC
  8
APS_GEOMETRY
 10
15526.79
 20
-271.087
 40
7.964
 50
251.136
 51
258.563
  0
ARC
  8
APS_GEOMETRY
 10
15525.188
 20
-275.734
 40
3.05
 50
222.558
 51
251.395
  0
ARC
  8
APS_GEOMETRY
 10
15523.999
 20
-276.825
 40
1.436
 50
180.0
 51
222.558
  0
ARC
  8
APS_GEOMETRY
 10
15523.759
 20
-276.825
 40
1.196
 50
150.642
 51
180.0
  0
ARC
  8
APS_GEOMETRY
 10
15523.855
 20
-276.879
 40
1.306
 50
122.574
 51
150.642
  0
ARC
  8
APS_GEOMETRY
 10
15523.602
 20
-276.588
 40
0.926
 50
108.677
 51
119.055
  0
ARC
  8
APS_GEOMETRY
 10
15535.16
 20
-310.78
 40
37.018
 50
107.038
 51
108.677
  0
ARC
  8
APS_GEOMETRY
 10
15523.882
 20
-273.898
 40
1.549
 50
286.144
 51
308.66
  0
ARC
  8
APS_GEOMETRY
 10
15524.136
 20
-274.215
 40
1.143
 50
308.66
 51
334.933
  0
ARC
  8
APS_GEOMETRY
 10
15523.104
 20
-273.732
 40
2.283
 50
334.933
 51
348.829
  0
ARC
  8
APS_GEOMETRY
 10
15510.191
 20
-271.182
 40
15.445
 50
348.829
 51
354.161
  0
ARC
  8
APS_GEOMETRY
 10
15501.463
 20
-270.282
 40
24.219
 50
354.144
 51
355.66
  0
ARC
  8
APS_GEOMETRY
 10
15462.775
 20
-267.346
 40
63.019
 50
355.66
 51
356.6
  0
ARC
  8
APS_GEOMETRY
 10
15433.2
 20
-265.59
 40
92.646
 50
356.6
 51
357.24
  0
ARC
  8
APS_GEOMETRY
 10
15349.288
 20
-261.544
 40
176.656
 50
357.24
 51
357.703
  0
ARC
  8
APS_GEOMETRY
 10
15357.548
 20
-261.875
 40
168.389
 50
357.703
 51
358.674
  0
ARC
  8
APS_GEOMETRY
 10
15435.464
 20
-263.678
 40
90.452
 50
358.674
 51
0.0
  0
ARC
  8
APS_GEOMETRY
 10
15512.511
 20
-263.678
 40
13.405
 50
360.0
 51
6.242
  0
ARC
  8
APS_GEOMETRY
 10
15523.17
 20
-262.512
 40
2.682
 50
6.242
 51
20.225
  0
ARC
  8
APS_GEOMETRY
 10
15524.648
 20
-261.968
 40
1.107
 50
20.225
 51
50.44
  0
ARC
  8
APS_GEOMETRY
 10
15524.935
 20
-261.621
 40
0.657
 50
50.44
 51
90.0
  0
ARC
  8
APS_GEOMETRY
 10
15524.935
 20
-261.845
 40
0.881
 50
90.0
 51
126.747
  0
ARC
  8
APS_GEOMETRY
 10
15526.18
 20
-263.512
 40
2.962
 50
126.747
 51
146.547
  0
ARC
  8
APS_GEOMETRY
 10
15504.186
 20
-249.056
 40
23.357
 50
324.255
 51
326.701
  0
ARC
  8
APS_GEOMETRY
 10
15513.497
 20
-255.758
 40
11.885
 50
320.826
 51
324.255
  0
ARC
  8
APS_GEOMETRY
 10
15516.54
 20
-258.238
 40
7.959
 50
315.722
 51
320.826
  0
ARC
  8
APS_GEOMETRY
 10
15520.038
 20
-261.648
 40
3.075
 50
307.504
 51
315.722
  0
ARC
  8
APS_GEOMETRY
 10
15519.715
 20
-261.217
 40
3.613
 50
291.306
 51
307.405
  0
ARC
  8
APS_GEOMETRY
 10
15520.274
 20
-262.652
 40
2.073
 50
270.0
 51
291.306
  0
ARC
  8
APS_GEOMETRY
 10
15520.274
 20
-262.785
 40
1.939
 50
245.532
 51
270.0
  0
ARC
  8
APS_GEOMETRY
 10
15520.26
 20
-262.818
 40
1.904
 50
220.833
 51
245.532
  0
ARC
  8
APS_GEOMETRY
 10
15520.456
 20
-262.648
 40
2.164
 50
198.684
 51
220.833
  0
ARC
  8
APS_GEOMETRY
 10
15521.277
 20
-262.37
 40
3.03
 50
180.0
 51
198.684
  0
ARC
  8
APS_GEOMETRY
 10
15523.201
 20
-262.37
 40
4.954
 50
168.408
 51
180.0
  0
ARC
  8
APS_GEOMETRY
 10
15526.377
 20
-263.022
 40
8.196
 50
159.402
 51
168.408
  0
ARC
  8
APS_GEOMETRY
 10
15527.359
 20
-263.391
 40
9.245
 50
151.39
 51
159.402
  0
ARC
  8
APS_GEOMETRY
 10
15527.157
 20
-263.281
 40
9.016
 50
143.276
 51
151.39
  0
ARC
  8
APS_GEOMETRY
 10
15524.633
 20
-261.393
 40
5.863
 50
124.216
 51
143.31
  0
ARC
  8
APS_GEOMETRY
 10
15522.384
 20
-258.086
 40
1.864
 50
90.0
 51
124.216
  0
ARC
  8
APS_GEOMETRY
 10
15522.384
 20
-258.914
 40
2.692
 50
82.725
 51
90.0
  0
ARC
  8
APS_GEOMETRY
 10
15522.173
 20
-260.562
 40
4.353
 50
77.005
 51
82.725
  0
ARC
  8
APS_GEOMETRY
 10
15528.598
 20
-229.589
 40
27.28
 50
258.486
 51
260.378
  0
ARC
  8
APS_GEOMETRY
 10
15525.846
 20
-245.821
 40
10.816
 50
260.378
 51
263.382
  0
ARC
  8
APS_GEOMETRY
 10
15525.61
 20
-247.85
 40
8.774
 50
263.382
 51
267.084
  0
ARC
  8
APS_GEOMETRY
 10
15525.883
 20
-242.494
 40
14.137
 50
267.084
 51
270.0
  0
LINE
  8
APS_GEOMETRY
 10
15547.592
 11
15555.996
 20
-256.631
 21
-256.631
  0
ARC
  8
APS_GEOMETRY
 10
15555.996
 20
-150.771
 40
105.86
 50
270.0
 51
270.69
  0
ARC
  8
APS_GEOMETRY
 10
15556.593
 20
-200.299
 40
56.328
 50
270.69
 51
271.637
  0
ARC
  8
APS_GEOMETRY
 10
15557.096
 20
-217.896
 40
38.724
 50
271.637
 51
273.013
  0
ARC
  8
APS_GEOMETRY
 10
15558.321
 20
-241.177
 40
15.41
 50
273.013
 51
275.194
  0
ARC
  8
APS_GEOMETRY
 10
15558.625
 20
-244.518
 40
12.056
 50
275.194
 51
280.756
  0
ARC
  8
APS_GEOMETRY
 10
15558.682
 20
-244.818
 40
11.75
 50
280.756
 51
286.39
  0
ARC
  8
APS_GEOMETRY
 10
15562.989
 20
-259.561
 40
3.609
 50
100.305
 51
105.945
  0
ARC
  8
APS_GEOMETRY
 10
15562.537
 20
-257.076
 40
1.083
 50
90.0
 51
100.305
  0
ARC
  8
APS_GEOMETRY
 10
15562.537
 20
-257.463
 40
1.47
 50
58.946
 51
90.0
  0
ARC
  8
APS_GEOMETRY
 10
15561.975
 20
-258.396
 40
2.56
 50
35.538
 51
58.946
  0
ARC
  8
APS_GEOMETRY
 10
15559.781
 20
-260.011
 40
5.284
 50
16.699
 51
35.952
  0
ARC
  8
APS_GEOMETRY
 10
15558.13
 20
-260.506
 40
7.007
 50
360.0
 51
16.699
  0
ARC
  8
APS_GEOMETRY
 10
15561.205
 20
-260.506
 40
3.932
 50
344.982
 51
360.0
  0
ARC
  8
APS_GEOMETRY
 10
15563.092
 20
-261.012
 40
1.978
 50
323.746
 51
344.982
  0
ARC
  8
APS_GEOMETRY
 10
15563.512
 20
-261.32
 40
1.458
 50
296.114
 51
323.746
  0
ARC
  8
APS_GEOMETRY
 10
15563.436
 20
-261.166
 40
1.629
 50
270.0
 51
296.114
  0
ARC
  8
APS_GEOMETRY
 10
15563.436
 20
-260.753
 40
2.042
 50
255.311
 51
270.0
  0
ARC
  8
APS_GEOMETRY
 10
15563.163
 20
-261.795
 40
0.965
 50
233.881
 51
255.311
  0
ARC
  8
APS_GEOMETRY
 10
15563.451
 20
-261.401
 40
1.453
 50
219.289
 51
233.881
  0
ARC
  8
APS_GEOMETRY
 10
15569.216
 20
-256.684
 40
8.902
 50
213.408
 51
219.289
  0
ARC
  8
APS_GEOMETRY
 10
15558.415
 20
-263.798
 40
4.031
 50
33.294
 51
51.246
  0
ARC
  8
APS_GEOMETRY
 10
15558.964
 20
-263.114
 40
3.154
 50
51.246
 51
71.565
  0
ARC
  8
APS_GEOMETRY
 10
15558.601
 20
-264.203
 40
4.302
 50
71.565
 51
79.278
  0
ARC
  8
APS_GEOMETRY
 10
15557.437
 20
-270.351
 40
10.559
 50
79.278
 51
84.2
  0
ARC
  8
APS_GEOMETRY
 10
15556.941
 20
-275.24
 40
15.473
 50
84.2
 51
87.567
  0
ARC
  8
APS_GEOMETRY
 10
15556.34
 20
-289.379
 40
29.625
 50
87.567
 51
90.0
  0
ARC
  8
APS_GEOMETRY
 10
15556.34
 20
-268.082
 40
8.328
 50
90.0
 51
96.374
  0
ARC
  8
APS_GEOMETRY
 10
15555.787
 20
-263.134
 40
3.349
 50
96.374
 51
106.434
  0
ARC
  8
APS_GEOMETRY
 10
15555.394
 20
-261.802
 40
1.961
 50
106.434
 51
123.056
  0
ARC
  8
APS_GEOMETRY
 10
15554.781
 20
-260.86
 40
0.836
 50
123.056
 51
148.627
  0
ARC
  8
APS_GEOMETRY
 10
15555.341
 20
-261.177
 40
1.48
 50
149.421
 51
165.28
  0
ARC
  8
APS_GEOMETRY
 10
15556.955
 20
-261.601
 40
3.149
 50
165.28
 51
176.135
  0
ARC
  8
APS_GEOMETRY
 10
15561.577
 20
-261.914
 40
7.781
 50
176.135
 51
178.367
  0
ARC
  8
APS_GEOMETRY
 10
15604.33
 20
-263.133
 40
50.551
 50
178.367
 51
179.242
  0
ARC
  8
APS_GEOMETRY
 10
15648.514
 20
-263.717
 40
94.739
 50
179.242
 51
179.709
  0
ARC
  8
APS_GEOMETRY
 10
15798.838
 20
-264.48
 40
245.066
 50
179.709
 51
180.0
  0
ARC
  8
APS_GEOMETRY
 10
15557.318
 20
-264.48
 40
3.545
 50
180.0
 51
195.027
  0
ARC
  8
APS_GEOMETRY
 10
15554.418
 20
-265.258
 40
0.543
 50
195.027
 51
234.058
  0
ARC
  8
APS_GEOMETRY
 10
15554.447
 20
-265.219
 40
0.591
 50
234.058
 51
253.191
  0
ARC
  8
APS_GEOMETRY
 10
15555.065
 20
-263.171
 40
2.731
 50
253.191
 51
262.063
  0
ARC
  8
APS_GEOMETRY
 10
15555.382
 20
-260.898
 40
5.025
 50
262.063
 51
266.949
  0
ARC
  8
APS_GEOMETRY
 10
15555.8
 20
-253.057
 40
12.877
 50
266.949
 51
270.0
  0
ARC
  8
APS_GEOMETRY
 10
15555.8
 20
-263.574
 40
2.361
 50
270.0
 51
286.007
  0
ARC
  8
APS_GEOMETRY
 10
15556.213
 20
-265.014
 40
0.862
 50
286.007
 51
312.647
  0
ARC
  8
APS_GEOMETRY
 10
15556.205
 20
-265.005
 40
0.875
 50
312.647
 51
338.993
  0
ARC
  8
APS_GEOMETRY
 10
15554.417
 20
-264.319
 40
2.79
 50
338.993
 51
353.66
  0
ARC
  8
APS_GEOMETRY
 10
15572.877
 20
-266.52
 40
15.801
 50
169.663
 51
173.118
  0
ARC
  8
APS_GEOMETRY
 10
15559.682
 20
-264.113
 40
2.388
 50
160.769
 51
169.663
  0
ARC
  8
APS_GEOMETRY
 10
15558.578
 20
-263.728
 40
1.219
 50
143.746
 51
160.769
  0
ARC
  8
APS_GEOMETRY
 10
15558.845
 20
-263.924
 40
1.55
 50
128.66
 51
143.746
  0
ARC
  8
APS_GEOMETRY
 10
15558.667
 20
-263.636
 40
1.215
 50
110.171
 51
130.601
  0
ARC
  8
APS_GEOMETRY
 10
15558.678
 20
-263.665
 40
1.246
 50
90.0
 51
110.171
  0
ARC
  8
APS_GEOMETRY
 10
15558.678
 20
-263.683
 40
1.264
 50
61.22
 51
90.0
  0
ARC
  8
APS_GEOMETRY
 10
15558.458
 20
-264.084
 40
1.722
 50
36.634
 51
61.22
  0
ARC
  8
APS_GEOMETRY
 10
15558.25
 20
-264.207
 40
1.961
 50
19.103
 51
35.91
  0
ARC
  8
APS_GEOMETRY
 10
15551.853
 20
-266.423
 40
8.732
 50
11.16
 51
19.103
  0
ARC
  8
APS_GEOMETRY
 10
15548.51
 20
-267.082
 40
12.139
 50
5.396
 51
11.16
  0
ARC
  8
APS_GEOMETRY
 10
15546.81
 20
-267.243
 40
13.846
 50
0.0
 51
5.396
  0
ARC
  8
APS_GEOMETRY
 10
15547.051
 20
-267.243
 40
13.605
 50
349.287
 51
0.0
  0
ARC
  8
APS_GEOMETRY
 10
15553.73
 20
-268.507
 40
6.808
 50
334.12
 51
349.287
  0
ARC
  8
APS_GEOMETRY
 10
15558.331
 20
-270.73
 40
1.698
 50
303.53
 51
333.853
  0
ARC
  8
APS_GEOMETRY
 10
15558.498
 20
-270.982
 40
1.396
 50
270.0
 51
303.53
  0
ARC
  8
APS_GEOMETRY
 10
15558.498
 20
-270.916
 40
1.461
 50
249.578
 51
270.0
  0
ARC
  8
APS_GEOMETRY
 10
15558.187
 20
-271.751
 40
0.57
 50
216.607
 51
249.578
  0
ARC
  8
APS_GEOMETRY
 10
15558.484
 20
-271.531
 40
0.94
 50
195.422
 51
216.607
  0
ARC
  8
APS_GEOMETRY
 10
15563.616
 20
-270.115
 40
6.263
 50
187.253
 51
195.422
  0
ARC
  8
APS_GEOMETRY
 10
15555.329
 20
-271.181
 40
2.092
 50
7.561
 51
49.434
  0
ARC
  8
APS_GEOMETRY
 10
15555.244
 20
-271.28
 40
2.222
 50
49.434
 51
90.0
  0
ARC
  8
APS_GEOMETRY
 10
15555.244
 20
-270.553
 40
1.495
 50
90.0
 51
115.224
  0
ARC
  8
APS_GEOMETRY
 10
15554.948
 20
-269.926
 40
0.801
 50
115.224
 51
149.931
  0
ARC
  8
APS_GEOMETRY
 10
15555.483
 20
-270.235
 40
1.419
 50
149.931
 51
171.111
  0
ARC
  8
APS_GEOMETRY
 10
15561.967
 20
-271.249
 40
7.982
 50
171.111
 51
180.0
  0
ARC
  8
APS_GEOMETRY
 10
15568.355
 20
-271.249
 40
14.369
 50
180.0
 51
183.062
  0
ARC
  8
APS_GEOMETRY
 10
15590.348
 20
-270.073
 40
36.395
 50
183.062
 51
184.986
  0
ARC
  8
APS_GEOMETRY
 10
15578.812
 20
-271.079
 40
24.815
 50
184.986
 51
187.804
  0
ARC
  8
APS_GEOMETRY
 10
15556.962
 20
-274.074
 40
2.76
 50
187.804
 51
196.26
  0
ARC
  8
APS_GEOMETRY
 10
15555.035
 20
-274.654
 40
0.748
 50
194.931
 51
230.024
  0
ARC
  8
APS_GEOMETRY
 10
15555.525
 20
-274.069
 40
1.511
 50
230.024
 51
254.511
  0
ARC
  8
APS_GEOMETRY
 10
15556.121
 20
-271.919
 40
3.742
 50
254.511
 51
265.219
  0
ARC
  8
APS_GEOMETRY
 10
15557.37
 20
-256.985
 40
18.728
 50
265.219
 51
270.0
  0
ARC
  8
APS_GEOMETRY
 10
15557.37
 20
-258.965
 40
16.748
 50
270.0
 51
274.186
  0
ARC
  8
APS_GEOMETRY
 10
15557.879
 20
-265.923
 40
9.771
 50
274.186
 51
279.668
  0
ARC
  8
APS_GEOMETRY
 10
15558.297
 20
-268.377
 40
7.282
 50
279.668
 51
286.991
  0
ARC
  8
APS_GEOMETRY
 10
15559.254
 20
-271.507
 40
4.009
 50
286.991
 51
296.866
  0
ARC
  8
APS_GEOMETRY
 10
15559.452
 20
-271.899
 40
3.569
 50
296.866
 51
318.366
  0
ARC
  8
APS_GEOMETRY
 10
15557.453
 20
-270.122
 40
6.245
 50
318.366
 51
334.581
  0
ARC
  8
APS_GEOMETRY
 10
15570.618
 20
-276.435
 40
8.355
 50
147.08
 51
154.231
  0
ARC
  8
APS_GEOMETRY
 10
15565.114
 20
-272.872
 40
1.8
 50
131.634
 51
147.08
  0
ARC
  8
APS_GEOMETRY
 10
15564.704
 20
-272.411
 40
1.182
 50
108.875
 51
131.634
  0
ARC
  8
APS_GEOMETRY
 10
15564.875
 20
-272.912
 40
1.712
 50
90.0
 51
108.875
  0
ARC
  8
APS_GEOMETRY
 10
15564.875
 20
-272.564
 40
1.364
 50
62.628
 51
90.0
  0
ARC
  8
APS_GEOMETRY
 10
15564.789
 20
-272.731
 40
1.551
 50
36.995
 51
62.628
  0
ARC
  8
APS_GEOMETRY
 10
15564.402
 20
-273.022
 40
2.036
 50
16.728
 51
36.995
  0
ARC
  8
APS_GEOMETRY
 10
15563.5
 20
-273.293
 40
2.978
 50
360.0
 51
16.728
  0
ARC
  8
APS_GEOMETRY
 10
15561.712
 20
-273.293
 40
4.766
 50
348.323
 51
360.0
  0
ARC
  8
APS_GEOMETRY
 10
15554.557
 20
-271.815
 40
12.072
 50
340.994
 51
348.323
  0
ARC
  8
APS_GEOMETRY
 10
15552.86
 20
-271.23
 40
13.867
 50
334.592
 51
340.994
  0
ARC
  8
APS_GEOMETRY
 10
15555.822
 20
-272.637
 40
10.587
 50
327.265
 51
334.592
  0
ARC
  8
APS_GEOMETRY
 10
15559.262
 20
-274.665
 40
6.599
 50
320.133
 51
325.923
  0
ARC
  8
APS_GEOMETRY
 10
15563.264
 20
-278.007
 40
1.386
 50
307.476
 51
320.133
  0
ARC
  8
APS_GEOMETRY
 10
15563.614
 20
-278.464
 40
0.81
 50
286.429
 51
307.476
  0
ARC
  8
APS_GEOMETRY
 10
15563.469
 20
-277.971
 40
1.323
 50
270.0
 51
286.429
  0
ARC
  8
APS_GEOMETRY
 10
15563.469
 20
-276.442
 40
2.852
 50
263.774
 51
270.0
  0
ARC
  8
APS_GEOMETRY
 10
15564.303
 20
-268.794
 40
10.546
 50
260.538
 51
263.774
  0
ARC
  8
APS_GEOMETRY
 10
15560.569
 20
-289.867
 40
10.857
 50
79.38
 51
84.987
  0
ARC
  8
APS_GEOMETRY
 10
15558.95
 20
-308.322
 40
29.383
 50
84.987
 51
88.394
  0
LINE
  8
APS_GEOMETRY
 10
15559.774
 11
15545.907
 20
-278.951
 21
-278.951
  0
ARC
  8
APS_GEOMETRY
 10
15545.907
 20
-276.049
 40
2.902
 50
254.103
 51
270.0
  0
ARC
  8
APS_GEOMETRY
 10
15545.499
 20
-277.484
 40
1.41
 50
231.216
 51
254.103
  0
ARC
  8
APS_GEOMETRY
 10
15545.331
 20
-277.693
 40
1.142
 50
203.795
 51
231.216
  0
ARC
  8
APS_GEOMETRY
 10
15545.667
 20
-277.545
 40
1.509
 50
180.0
 51
203.795
  0
ARC
  8
APS_GEOMETRY
 10
15545.794
 20
-277.545
 40
1.637
 50
164.055
 51
180.0
  0
ARC
  8
APS_GEOMETRY
 10
15544.786
 20
-277.256
 40
0.588
 50
137.291
 51
164.055
  0
ARC
  8
APS_GEOMETRY
 10
15545.089
 20
-277.537
 40
1.001
 50
120.964
 51
137.291
  0
ARC
  8
APS_GEOMETRY
 10
15548.34
 20
-282.954
 40
7.318
 50
114.944
 51
120.964
  0
ARC
  8
APS_GEOMETRY
 10
15544.282
 20
-274.077
 40
2.443
 50
293.429
 51
305.72
  0
ARC
  8
APS_GEOMETRY
 10
15544.954
 20
-275.011
 40
1.292
 50
305.72
 51
322.651
  0
ARC
  8
APS_GEOMETRY
 10
15544.85
 20
-274.932
 40
1.423
 50
322.651
 51
338.11
  0
ARC
  8
APS_GEOMETRY
 10
15542.821
 20
-274.116
 40
3.61
 50
338.11
 51
347.8
  0
ARC
  8
APS_GEOMETRY
 10
15530.22
 20
-271.355
 40
16.509
 50
347.672
 51
352.051
  0
ARC
  8
APS_GEOMETRY
 10
15518.024
 20
-269.651
 40
28.824
 50
352.051
 51
355.365
  0
ARC
  8
APS_GEOMETRY
 10
15509.811
 20
-268.986
 40
37.064
 50
355.365
 51
357.943
  0
ARC
  8
APS_GEOMETRY
 10
15488.606
 20
-268.224
 40
58.283
 50
357.943
 51
0.0
  0
ARC
  8
APS_GEOMETRY
 10
15464.13
 20
-268.224
 40
82.759
 50
360.0
 51
2.183
  0
ARC
  8
APS_GEOMETRY
 10
15513.617
 20
-266.337
 40
33.235
 50
2.183
 51
5.629
  0
ARC
  8
APS_GEOMETRY
 10
15528.359
 20
-264.884
 40
18.422
 50
5.629
 51
11.805
  0
ARC
  8
APS_GEOMETRY
 10
15542.667
 20
-261.894
 40
3.805
 50
11.805
 51
25.419
  0
ARC
  8
APS_GEOMETRY
 10
15544.519
 20
-261.053
 40
1.772
 50
26.565
 51
38.157
  0
ARC
  8
APS_GEOMETRY
 10
15545.341
 20
-260.407
 40
0.726
 50
38.157
 51
56.31
  0
ARC
  8
APS_GEOMETRY
 10
15545.167
 20
-260.668
 40
1.04
 50
56.31
 51
69.193
  0
ARC
  8
APS_GEOMETRY
 10
15542.727
 20
-267.089
 40
7.908
 50
69.193
 51
73.856
  0
ARC
  8
APS_GEOMETRY
 10
15545.301
 20
-258.235
 40
1.312
 50
216.87
 51
253.393
  0
ARC
  8
APS_GEOMETRY
 10
15545.282
 20
-258.25
 40
1.288
 50
180.0
 51
216.87
  0
ARC
  8
APS_GEOMETRY
 10
15545.563
 20
-258.25
 40
1.569
 50
161.565
 51
180.0
  0
ARC
  8
APS_GEOMETRY
 10
15545.506
 20
-258.231
 40
1.509
 50
142.765
 51
161.565
  0
ARC
  8
APS_GEOMETRY
 10
15545.47
 20
-258.203
 40
1.464
 50
123.425
 51
142.765
  0
ARC
  8
APS_GEOMETRY
 10
15545.503
 20
-258.253
 40
1.523
 50
104.47
 51
123.425
  0
ARC
  8
APS_GEOMETRY
 10
15545.793
 20
-259.684
 40
2.982
 50
96.724
 51
102.995
  0
ARC
  8
APS_GEOMETRY
 10
15546.694
 20
-267.322
 40
10.673
 50
93.411
 51
96.724
  0
ARC
  8
APS_GEOMETRY
 10
15547.094
 20
-274.032
 40
17.395
 50
91.375
 51
93.411
  0
ARC
  8
APS_GEOMETRY
 10
15547.592
 20
-294.782
 40
38.151
 50
90.0
 51
91.375
  0
LINE
  8
COSTRUZIONI
 10
15110.818
 11
17110.818
 20
-421.245
 21
-421.245
  0
LINE
  8
COSTRUZIONI
 10
17110.818
 11
17110.818
 20
-421.245
 21
-221.245
  0
LINE
  8
COSTRUZIONI
 10
17110.818
 11
15110.818
 20
-221.245
 21
-221.245
  0
LINE
  8
COSTRUZIONI
 10
15110.818
 11
15110.818
 20
-221.245
 21
-421.245
  0
LINE
  8
COSTRUZIONI
 10
15576.669
 11
15576.669
 20
-421.245
 21
-221.245
  0
LINE
  8
COSTRUZIONI
 10
16911.926
 11
16911.926
 20
-421.245
 21
-221.245
  0
LINE
  8
COSTRUZIONI
 10
17110.818
 11
15576.669
 20
-271.245
 21
-271.245
  0
LINE
  8
COSTRUZIONI
 10
16911.926
 11
17110.818
 20
-371.245
 21
-371.245
  0
LINE
  8
COSTRUZIONI
 10
15576.669
 11
17110.818
 20
-321.245
 21
-321.245
  0
LINE
  8
COSTRUZIONI
 10
16605.116
 11
16605.116
 20
-321.245
 21
-271.245
  0
LINE
  8
COSTRUZIONI
 10
16110.038
 11
16110.038
 20
-321.245
 21
-271.245
  0
LINE
  8
APS_GEOMETRY
 10
16552.034
 11
16424.034
 20
2048.0
 21
2048.0
  0
ARC
  8
APS_GEOMETRY
 10
16424.034
 20
2282.0
 40
234.0
 50
246.866
 51
270.0
  0
ARC
  8
APS_GEOMETRY
 10
16138.534
 20
1643.809
 40
465.191
 50
65.412
 51
114.588
  0
ARC
  8
APS_GEOMETRY
 10
15853.034
 20
2282.0
 40
234.0
 50
270.0
 51
293.134
  0
LINE
  8
APS_GEOMETRY
 10
15853.034
 11
15725.034
 20
2048.0
 21
2048.0
  0
LINE
  8
COSTRUZIONI
 10
15725.034
 11
15709.534
 20
2048.0
 21
2063.5
  0
LINE
  8
COSTRUZIONI
 10
16552.034
 11
16568.034
 20
2048.0
 21
2064.0
  0
LINE
  8
COSTRUZIONI
 10
15698.534
 11
15742.534
 20
-4.5
 21
-4.5
  0
LINE
  8
COSTRUZIONI
 10
16534.534
 11
16578.534
 20
-4.5
 21
-4.5
  0
LINE
  8
APS_GEOMETRY
 10
16643.534
 11
16424.034
 20
2064.0
 21
2064.0
  0
ARC
  8
APS_GEOMETRY
 10
16424.034
 20
2282.0
 40
218.0
 50
246.918
 51
270.0
  0
ARC
  8
APS_GEOMETRY
 10
16138.534
 20
1643.809
 40
481.191
 50
65.436
 51
114.564
  0
ARC
  8
APS_GEOMETRY
 10
15853.034
 20
2282.0
 40
218.0
 50
270.0
 51
293.082
  0
LINE
  8
APS_GEOMETRY
 10
15853.034
 11
15633.534
 20
2064.0
 21
2064.0
  0
LINE
  8
APS_GEOMETRY
 10
15709.534
 11
15709.534
 20
2064.0
 21
276.074
  0
LINE
  8
APS_GEOMETRY
 10
16567.534
 11
16567.534
 20
276.074
 21
2064.0
  0
LINE
  8
APS_GEOMETRY
 10
15640.534
 11
15640.534
 20
2064.0
 21
276.074
  0
LINE
  8
APS_GEOMETRY
 10
16636.534
 11
16636.534
 20
276.074
 21
2064.0
  0
LINE
  8
APS_GEOMETRY
 10
16643.534
 11
16424.034
 20
2091.0
 21
2091.0
  0
ARC
  8
APS_GEOMETRY
 10
16424.034
 20
2282.0
 40
191.0
 50
247.017
 51
270.0
  0
ARC
  8
APS_GEOMETRY
 10
16138.534
 20
1643.809
 40
508.191
 50
65.478
 51
114.522
  0
ARC
  8
APS_GEOMETRY
 10
15853.034
 20
2282.0
 40
191.0
 50
270.0
 51
292.983
  0
LINE
  8
APS_GEOMETRY
 10
15853.034
 11
15633.534
 20
2091.0
 21
2091.0
  0
ARC
  8
APS_GEOMETRY
 10
15633.534
 20
2077.5
 40
13.5
 50
90.0
 51
270.0
  0
ARC
  8
APS_GEOMETRY
 10
16643.534
 20
2077.5
 40
13.5
 50
270.0
 51
90.0
  0
LINE
  8
APS_GEOMETRY
 10
16643.534
 11
16424.034
 20
2145.0
 21
2145.0
  0
ARC
  8
APS_GEOMETRY
 10
16424.034
 20
2282.0
 40
137.0
 50
247.288
 51
270.0
  0
ARC
  8
APS_GEOMETRY
 10
16138.534
 20
1643.809
 40
562.191
 50
65.56
 51
114.44
  0
ARC
  8
APS_GEOMETRY
 10
15853.034
 20
2282.0
 40
137.0
 50
270.0
 51
292.712
  0
LINE
  8
APS_GEOMETRY
 10
15853.034
 11
15633.534
 20
2145.0
 21
2145.0
  0
LINE
  8
APS_GEOMETRY
 10
16643.534
 11
16424.034
 20
2180.0
 21
2180.0
  0
ARC
  8
APS_GEOMETRY
 10
16424.034
 20
2282.0
 40
102.0
 50
247.558
 51
270.0
  0
ARC
  8
APS_GEOMETRY
 10
16138.534
 20
1643.809
 40
597.191
 50
65.615
 51
114.385
  0
ARC
  8
APS_GEOMETRY
 10
15853.034
 20
2282.0
 40
102.0
 50
270.0
 51
292.442
  0
LINE
  8
APS_GEOMETRY
 10
15853.034
 11
15633.534
 20
2180.0
 21
2180.0
  0
ARC
  8
APS_GEOMETRY
 10
15633.534
 20
2162.5
 40
17.5
 50
90.0
 51
270.0
  0
ARC
  8
APS_GEOMETRY
 10
16643.534
 20
2162.5
 40
17.5
 50
270.0
 51
90.0
  0
LINE
  8
APS_GEOMETRY
 10
15633.534
 11
15633.534
 20
2091.0
 21
2145.0
  0
LINE
  8
APS_GEOMETRY
 10
16643.534
 11
16643.534
 20
2091.0
 21
2145.0
  0
LINE
  8
APS_GEOMETRY
 10
15702.534
 11
15702.534
 20
2145.0
 21
2091.0
  0
LINE
  8
APS_GEOMETRY
 10
16560.534
 11
16560.534
 20
2091.0
 21
2145.0
  0
CIRCLE
  8
APS_GEOMETRY
 10
15668.034
 20
2118.0
 40
20.0
  0
CIRCLE
  8
APS_GEOMETRY
 10
16595.034
 20
2118.0
 40
20.0
  0
LINE
  8
APS_GEOMETRY
 10
15640.534
 11
15709.534
 20
-4.5
 21
-4.5
  0
LINE
  8
COSTRUZIONI
 10
15640.534
 11
15709.534
 20
2064.0
 21
2064.0
  0
LINE
  8
SEZIONI
 10
15720.034
 11
15720.034
 20
167.5
 21
-1.5
  0
ARC
  8
SEZIONI
 10
15717.034
 20
-1.5
 40
3.0
 50
270.0
 51
0.0
  0
LINE
  8
SEZIONI
 10
15717.034
 11
15633.034
 20
-4.5
 21
-4.5
  0
ARC
  8
SEZIONI
 10
15633.034
 20
-1.5
 40
3.0
 50
180.0
 51
270.0
  0
LINE
  8
SEZIONI
 10
15630.034
 11
15630.034
 20
-1.5
 21
167.5
  0
ARC
  8
SEZIONI
 10
15633.034
 20
167.5
 40
3.0
 50
90.0
 51
180.0
  0
ARC
  8
SEZIONI
 10
15633.034
 20
173.5
 40
3.0
 50
180.0
 51
270.0
  0
LINE
  8
SEZIONI
 10
15630.034
 11
15630.034
 20
173.5
 21
245.5
  0
LINE
  8
SEZIONI
 10
15630.034
 11
15720.034
 20
245.5
 21
245.5
  0
LINE
  8
SEZIONI
 10
15720.034
 11
15720.034
 20
245.5
 21
173.5
  0
ARC
  8
SEZIONI
 10
15717.034
 20
173.5
 40
3.0
 50
270.0
 51
0.0
  0
ARC
  8
SEZIONI
 10
15717.034
 20
167.5
 40
3.0
 50
360.0
 51
90.0
  0
LINE
  8
PROSPETTO
 10
15630.034
 11
15720.034
 20
276.074
 21
276.074
  0
LINE
  8
PROSPETTO
 10
15720.034
 11
15720.034
 20
276.074
 21
245.5
  0
LINE
  8
PROSPETTO
 10
15720.034
 11
15630.034
 20
245.5
 21
245.5
  0
LINE
  8
PROSPETTO
 10
15630.034
 11
15630.034
 20
245.5
 21
276.074
  0
LINE
  8
SEZIONI
 10
15633.034
 11
15717.034
 20
170.5
 21
170.5
  0
LINE
  8
SEZIONI
 10
15717.034
 11
15633.034
 20
170.5
 21
170.5
  0
LINE
  8
SEZIONI
 10
15630.034
 11
15720.034
 20
266.977
 21
266.977
  0
LINE
  8
SEZIONI
 10
15630.034
 11
15720.034
 20
249.36
 21
249.36
  0
LINE
  8
APS_GEOMETRY
 10
15696.034
 11
15696.034
 20
2051.0
 21
289.074
  0
ARC
  8
APS_GEOMETRY
 10
15699.034
 20
289.074
 40
3.0
 50
180.0
 51
0.0
  0
LINE
  8
APS_GEOMETRY
 10
15702.034
 11
15702.034
 20
289.074
 21
2051.0
  0
ARC
  8
APS_GEOMETRY
 10
15699.034
 20
2051.0
 40
3.0
 50
0.0
 51
180.0
  0
LINE
  8
APS_GEOMETRY
 10
15654.034
 11
15654.034
 20
2051.0
 21
289.074
  0
ARC
  8
APS_GEOMETRY
 10
15651.034
 20
289.074
 40
3.0
 50
180.0
 51
360.0
  0
LINE
  8
APS_GEOMETRY
 10
15648.034
 11
15648.034
 20
289.074
 21
2051.0
  0
ARC
  8
APS_GEOMETRY
 10
15651.034
 20
2051.0
 40
3.0
 50
360.0
 51
180.0
  0
LINE
  8
COSTRUZIONI
 10
15742.534
 11
15742.534
 20
-4.5
 21
0.0
  0
LINE
  8
COSTRUZIONI
 10
16534.534
 11
16534.534
 20
-4.5
 21
0.0
  0
LINE
  8
SEZIONI
 10
16557.034
 11
16557.034
 20
167.5
 21
-1.5
  0
ARC
  8
SEZIONI
 10
16560.034
 20
-1.5
 40
3.0
 50
180.0
 51
270.0
  0
LINE
  8
SEZIONI
 10
16560.034
 11
16644.034
 20
-4.5
 21
-4.5
  0
ARC
  8
SEZIONI
 10
16644.034
 20
-1.5
 40
3.0
 50
270.0
 51
0.0
  0
LINE
  8
SEZIONI
 10
16647.034
 11
16647.034
 20
-1.5
 21
167.5
  0
ARC
  8
SEZIONI
 10
16644.034
 20
167.5
 40
3.0
 50
360.0
 51
90.0
  0
ARC
  8
SEZIONI
 10
16644.034
 20
173.5
 40
3.0
 50
270.0
 51
0.0
  0
LINE
  8
SEZIONI
 10
16647.034
 11
16647.034
 20
173.5
 21
245.5
  0
LINE
  8
SEZIONI
 10
16647.034
 11
16557.034
 20
245.5
 21
245.5
  0
LINE
  8
SEZIONI
 10
16557.034
 11
16557.034
 20
245.5
 21
173.5
  0
ARC
  8
SEZIONI
 10
16560.034
 20
173.5
 40
3.0
 50
180.0
 51
270.0
  0
ARC
  8
SEZIONI
 10
16560.034
 20
167.5
 40
3.0
 50
90.0
 51
180.0
  0
LINE
  8
PROSPETTO
 10
16647.034
 11
16557.034
 20
276.074
 21
276.074
  0
LINE
  8
PROSPETTO
 10
16557.034
 11
16557.034
 20
276.074
 21
245.5
  0
LINE
  8
PROSPETTO
 10
16557.034
 11
16647.034
 20
245.5
 21
245.5
  0
LINE
  8
PROSPETTO
 10
16647.034
 11
16647.034
 20
245.5
 21
276.074
  0
LINE
  8
SEZIONI
 10
16644.034
 11
16560.034
 20
170.5
 21
170.5
  0
LINE
  8
SEZIONI
 10
16560.034
 11
16644.034
 20
170.5
 21
170.5
  0
LINE
  8
SEZIONI
 10
16647.034
 11
16557.034
 20
266.977
 21
266.977
  0
LINE
  8
SEZIONI
 10
16647.034
 11
16557.034
 20
249.36
 21
249.36
  0
LINE
  8
APS_GEOMETRY
 10
16581.034
 11
16581.034
 20
2051.0
 21
289.074
  0
ARC
  8
APS_GEOMETRY
 10
16578.034
 20
289.074
 40
3.0
 50
180.0
 51
360.0
  0
LINE
  8
APS_GEOMETRY
 10
16575.034
 11
16575.034
 20
289.074
 21
2051.0
  0
ARC
  8
APS_GEOMETRY
 10
16578.034
 20
2051.0
 40
3.0
 50
360.0
 51
180.0
  0
LINE
  8
APS_GEOMETRY
 10
16623.034
 11
16623.034
 20
2051.0
 21
289.074
  0
ARC
  8
APS_GEOMETRY
 10
16626.034
 20
289.074
 40
3.0
 50
180.0
 51
0.0
  0
LINE
  8
APS_GEOMETRY
 10
16629.034
 11
16629.034
 20
289.074
 21
2051.0
  0
ARC
  8
APS_GEOMETRY
 10
16626.034
 20
2051.0
 40
3.0
 50
0.0
 51
180.0
  0
LINE
  8
QUOTATURA
 10
16578.534
 11
16578.534
 20
-14.5
 21
-146.408
  0
LINE
  8
QUOTATURA
 10
15698.534
 11
15698.534
 20
-14.5
 21
-146.408
  0
LINE
  8
QUOTATURA
 10
16578.534
 11
16169.805
 20
-136.408
 21
-136.408
  0
LINE
  8
QUOTATURA
 10
16107.262
 11
15698.534
 20
-136.408
 21
-136.408
  0
LINE
  8
QUOTATURA
 10
16558.534
 11
16578.534
 20
-133.074
 21
-136.408
  0
LINE
  8
QUOTATURA
 10
16578.534
 11
16558.534
 20
-136.408
 21
-139.742
  0
LINE
  8
QUOTATURA
 10
16558.534
 11
16558.534
 20
-139.742
 21
-133.074
  0
LINE
  8
QUOTATURA
 10
15718.534
 11
15698.534
 20
-139.742
 21
-136.408
  0
LINE
  8
QUOTATURA
 10
15698.534
 11
15718.534
 20
-136.408
 21
-133.074
  0
LINE
  8
QUOTATURA
 10
15718.534
 11
15718.534
 20
-133.074
 21
-139.742
  0
LINE
  8
QUOTATURA
 10
16128.534
 11
15555.852
 20
2109.0
 21
2109.0
  0
LINE
  8
QUOTATURA
 10
15715.034
 11
15555.852
 20
0.0
 21
0.0
  0
LINE
  8
QUOTATURA
 10
15565.852
 11
15565.852
 20
2109.0
 21
1069.563
  0
LINE
  8
QUOTATURA
 10
15565.852
 11
15565.852
 20
1039.252
 21
0.0
  0
LINE
  8
QUOTATURA
 10
15562.518
 11
15565.852
 20
2089.0
 21
2109.0
  0
LINE
  8
QUOTATURA
 10
15565.852
 11
15569.186
 20
2109.0
 21
2089.0
  0
LINE
  8
QUOTATURA
 10
15569.186
 11
15562.518
 20
2089.0
 21
2089.0
  0
LINE
  8
QUOTATURA
 10
15569.186
 11
15565.852
 20
20.0
 21
0.0
  0
LINE
  8
QUOTATURA
 10
15565.852
 11
15562.518
 20
0.0
 21
20.0
  0
LINE
  8
QUOTATURA
 10
15562.518
 11
15569.186
 20
20.0
 21
20.0
  0
LINE
  8
QUOTATURA
 10
16128.534
 11
15499.75
 20
2135.5
 21
2135.5
  0
LINE
  8
QUOTATURA
 10
15688.534
 11
15499.75
 20
-4.5
 21
-4.5
  0
LINE
  8
QUOTATURA
 10
15509.75
 11
15509.75
 20
2135.5
 21
1394.655
  0
LINE
  8
QUOTATURA
 10
15509.75
 11
15509.75
 20
1364.348
 21
-4.5
  0
LINE
  8
QUOTATURA
 10
15506.416
 11
15509.75
 20
2115.5
 21
2135.5
  0
LINE
  8
QUOTATURA
 10
15509.75
 11
15513.084
 20
2135.5
 21
2115.5
  0
LINE
  8
QUOTATURA
 10
15513.084
 11
15506.416
 20
2115.5
 21
2115.5
  0
LINE
  8
QUOTATURA
 10
15513.084
 11
15509.75
 20
15.5
 21
-4.5
  0
LINE
  8
QUOTATURA
 10
15509.75
 11
15506.416
 20
-4.5
 21
15.5
  0
LINE
  8
QUOTATURA
 10
15506.416
 11
15513.084
 20
15.5
 21
15.5
  0
LINE
  8
APS_GEOMETRY
 10
15678.034
 11
15678.034
 20
2051.0
 21
289.074
  0
ARC
  8
APS_GEOMETRY
 10
15675.034
 20
289.074
 40
3.0
 50
180.0
 51
360.0
  0
LINE
  8
APS_GEOMETRY
 10
15672.034
 11
15672.034
 20
289.074
 21
2051.0
  0
ARC
  8
APS_GEOMETRY
 10
15675.034
 20
2051.0
 40
3.0
 50
360.0
 51
180.0
  0
LINE
  8
APS_GEOMETRY
 10
16599.034
 11
16599.034
 20
2051.0
 21
289.074
  0
ARC
  8
APS_GEOMETRY
 10
16602.034
 20
289.074
 40
3.0
 50
180.0
 51
0.0
  0
LINE
  8
APS_GEOMETRY
 10
16605.034
 11
16605.034
 20
289.074
 21
2051.0
  0
ARC
  8
APS_GEOMETRY
 10
16602.034
 20
2051.0
 40
3.0
 50
0.0
 51
180.0
  0
TEXT
  8
QUOTATURA
 10
16113.066
 20
-102.996
 30
0.0
 40
20.0
 50
0.0
  1
827
  0
TEXT
  8
TEXT
 10
17018.816
 20
-362.68
 30
0.0
 40
20.0
 50
0.0
  1
B.Stefano
  0
TEXT
  8
TEXT
 10
15581.618
 20
-239.914
 30
0.0
 40
15.0
 50
0.0
  1
file:
  0
TEXT
  8
TEXT
 10
16918.837
 20
-240.223
 30
0.0
 40
15.0
 50
0.0
  1
data:
  0
TEXT
  8
TEXT
 10
17032.373
 20
-260.024
 30
0.0
 40
20.0
 50
0.0
  1
30/04/15
  0
TEXT
  8
TEXT
 10
17033.392
 20
-416.498
 30
0.0
 40
20.0
 50
0.0
  1
1 : 10
  0
TEXT
  8
TEXT
 10
16916.973
 20
-337.839
 30
0.0
 40
15.0
 50
0.0
  1
responsabile tecnico:
  0
TEXT
  8
TEXT
 10
16919.028
 20
-390.222
 30
0.0
 40
15.0
 50
0.0
  1
scala:
  0
TEXT
  8
TEXT
 10
15119.58
 20
-240.512
 30
0.0
 40
15.0
 50
0.0
  1
Ufficio tecnico:
  0
TEXT
  8
TEXT
 10
15118.581
 20
-313.233
 30
0.0
 40
20.0
 50
0.0
  1
tel. 0577-68.54.26
  0
TEXT
  8
TEXT
 10
15118.581
 20
-343.233
 30
0.0
 40
20.0
 50
0.0
  1
fax 0577-68.64.29
  0
TEXT
  8
TEXT
 10
15118.581
 20
-373.233
 30
0.0
 40
20.0
 50
0.0
  1
e-mail: tecnico@toscocornici.it
  0
TEXT
  8
TEXT
 10
15118.581
 20
-403.233
 30
0.0
 40
20.0
 50
0.0
  1
web: www.tosococornici.it
  0
TEXT
  8
TEXT
 10
15628.463
 20
-260.497
 30
0.0
 40
20.0
 50
0.0
  1
VIENNA-MODIFICATO+CAPITELLO
  0
TEXT
  8
TEXT
 10
15581.618
 20
-289.914
 30
0.0
 40
15.0
 50
0.0
  1
pezzo:
  0
TEXT
  8
TEXT
 10
15628.463
 20
-310.497
 30
0.0
 40
20.0
 50
0.0
  1
VERSIONE HT 748 (692)
  0
TEXT
  8
TEXT
 10
15581.618
 20
-339.914
 30
0.0
 40
15.0
 50
0.0
  1
note:
  0
TEXT
  8
TEXT
 10
15628.463
 20
-360.497
 30
0.0
 40
20.0
 50
0.0
  1
NOTE
  0
TEXT
  8
TEXT
 10
16115.767
 20
-289.914
 30
0.0
 40
15.0
 50
0.0
  1
lotto:
  0
TEXT
  8
TEXT
 10
16163.817
 20
-310.497
 30
0.0
 40
20.0
 50
0.0
  1
---
  0
TEXT
  8
TEXT
 10
16615.767
 20
-289.914
 30
0.0
 40
15.0
 50
0.0
  1
ordine:
  0
TEXT
  8
TEXT
 10
16669.856
 20
-310.497
 30
0.0
 40
20.0
 50
0.0
  1
---
  0
TEXT
  8
TEXT
 10
16916.875
 20
-289.914
 30
0.0
 40
15.0
 50
0.0
  1
pos:
  0
TEXT
  8
TEXT
 10
16961.289
 20
-310.497
 30
0.0
 40
20.0
 50
0.0
  1
---
  0
TEXT
  8
QUOTATURA
 10
16112.13
 20
-146.408
 30
0.0
 40
20.0
 50
0.0
  1
880
  0
TEXT
  8
QUOTATURA
 10
15534.835
 20
1044.5
 30
0.0
 40
20.0
 50
0.0
  1
2109
  0
TEXT
  8
QUOTATURA
 10
15477.455
 20
1369.592
 30
0.0
 40
20.0
 50
0.0
  1
2140
  0
ENDSEC
  0
EOF
