  0
SECTION
  2
ENTITIES
  0
LINE
  8
APS_GEOMETRY
 10
880.0
 11
880.0
 20
0.0
 21
2140.0
  0
LINE
  8
APS_GEOMETRY
 10
880.0
 11
0.0
 20
2140.0
 21
2140.0
  0
LINE
  8
APS_GEOMETRY
 10
0.0
 11
0.0
 20
2140.0
 21
0.0
  0
LINE
  8
APS_GEOMETRY
 10
836.0
 11
836.0
 20
0.0
 21
2140.0
  0
LINE
  8
APS_GEOMETRY
 10
836.0
 11
44.0
 20
2096.0
 21
2096.0
  0
LINE
  8
APS_GEOMETRY
 10
44.0
 11
44.0
 20
2140.0
 21
0.0
  0
LINE
  8
APS_GEOMETRY
 10
938.0
 11
938.0
 20
0.0
 21
2198.0
  0
LINE
  8
APS_GEOMETRY
 10
938.0
 11
-58.0
 20
2198.0
 21
2198.0
  0
LINE
  8
APS_GEOMETRY
 10
-58.0
 11
-58.0
 20
2198.0
 21
0.0
  0
LINE
  8
APS_GEOMETRY
 10
-58.0
 11
0.0
 20
2198.0
 21
2140.0
  0
LINE
  8
APS_GEOMETRY
 10
938.0
 11
880.0
 20
2198.0
 21
2140.0
  0
LINE
  8
APS_GEOMETRY
 10
853.5
 11
853.5
 20
4.5
 21
2113.5
  0
LINE
  8
APS_GEOMETRY
 10
26.5
 11
26.5
 20
2113.5
 21
4.5
  0
LINE
  8
APS_GEOMETRY
 10
627.5
 11
627.5
 20
230.5
 21
1887.5
  0
LINE
  8
APS_GEOMETRY
 10
252.5
 11
252.5
 20
1887.5
 21
230.5
  0
LINE
  8
APS_GEOMETRY
 10
26.5
 11
853.5
 20
4.5
 21
4.5
  0
LINE
  8
APS_GEOMETRY
 10
236.5
 11
236.5
 20
2113.5
 21
4.5
  0
LINE
  8
APS_GEOMETRY
 10
643.5
 11
643.5
 20
4.5
 21
2113.5
  0
LINE
  8
APS_GEOMETRY
 10
236.5
 11
252.5
 20
214.5
 21
230.5
  0
LINE
  8
APS_GEOMETRY
 10
643.5
 11
627.5
 20
214.5
 21
230.5
  0
LINE
  8
APS_GEOMETRY
 10
853.5
 11
26.5
 20
2113.5
 21
2113.5
  0
LINE
  8
APS_GEOMETRY
 10
643.5
 11
627.5
 20
1903.5
 21
1887.5
  0
LINE
  8
APS_GEOMETRY
 10
236.5
 11
252.5
 20
1903.5
 21
1887.5
  0
LINE
  8
APS_GEOMETRY
 10
236.5
 11
643.5
 20
214.5
 21
214.5
  0
LINE
  8
APS_GEOMETRY
 10
252.5
 11
627.5
 20
230.5
 21
230.5
  0
LINE
  8
APS_GEOMETRY
 10
643.5
 11
236.5
 20
1903.5
 21
1903.5
  0
LINE
  8
APS_GEOMETRY
 10
627.5
 11
252.5
 20
1887.5
 21
1887.5
  0
TEXT
  8
TEXT
 10
304.56
 20
-112.644
 30
0.0
 40
30.0
 50
0.0
  1
MOD. 100-CSTC1V
  0
ENDSEC
  0
EOF
