  0
SECTION
  2
ENTITIES
  0
LINE
  8
APS_GEOMETRY
 10
726.0
 11
1152.0
 20
0.0
 21
0.0
  0
LINE
  8
APS_GEOMETRY
 10
1152.0
 11
1152.0
 20
0.0
 21
2114.0
  0
LINE
  8
APS_GEOMETRY
 10
1152.0
 11
726.0
 20
2114.0
 21
2114.0
  0
LINE
  8
APS_GEOMETRY
 10
726.0
 11
726.0
 20
2114.0
 21
0.0
  0
LINE
  8
APS_GEOMETRY
 10
0.0
 11
736.0
 20
0.0
 21
0.0
  0
LINE
  8
APS_GEOMETRY
 10
736.0
 11
736.0
 20
0.0
 21
2114.0
  0
LINE
  8
APS_GEOMETRY
 10
736.0
 11
0.0
 20
2114.0
 21
2114.0
  0
LINE
  8
APS_GEOMETRY
 10
0.0
 11
0.0
 20
2114.0
 21
0.0
  0
LINE
  8
APS_GEOMETRY
 10
114.0
 11
114.0
 20
1710.0
 21
1324.0
  0
LINE
  8
APS_GEOMETRY
 10
114.0
 11
114.0
 20
1272.0
 21
886.0
  0
LINE
  8
APS_GEOMETRY
 10
1038.0
 11
840.0
 20
2000.0
 21
2000.0
  0
LINE
  8
APS_GEOMETRY
 10
1038.0
 11
1038.0
 20
226.0
 21
774.0
  0
LINE
  8
APS_GEOMETRY
 10
1038.0
 11
1038.0
 20
886.0
 21
1272.0
  0
LINE
  8
APS_GEOMETRY
 10
1038.0
 11
1038.0
 20
1324.0
 21
1710.0
  0
LINE
  8
APS_GEOMETRY
 10
1038.0
 11
1038.0
 20
1762.0
 21
2000.0
  0
LINE
  8
APS_GEOMETRY
 10
840.0
 11
840.0
 20
2000.0
 21
1762.0
  0
LINE
  8
APS_GEOMETRY
 10
840.0
 11
840.0
 20
1710.0
 21
1324.0
  0
LINE
  8
APS_GEOMETRY
 10
840.0
 11
840.0
 20
1272.0
 21
886.0
  0
LINE
  8
APS_GEOMETRY
 10
840.0
 11
840.0
 20
774.0
 21
226.0
  0
LINE
  8
APS_GEOMETRY
 10
622.0
 11
622.0
 20
226.0
 21
774.0
  0
LINE
  8
APS_GEOMETRY
 10
622.0
 11
622.0
 20
886.0
 21
1272.0
  0
LINE
  8
APS_GEOMETRY
 10
622.0
 11
622.0
 20
1324.0
 21
1710.0
  0
LINE
  8
APS_GEOMETRY
 10
424.0
 11
622.0
 20
226.0
 21
226.0
  0
LINE
  8
APS_GEOMETRY
 10
840.0
 11
1038.0
 20
226.0
 21
226.0
  0
LINE
  8
APS_GEOMETRY
 10
638.0
 11
98.0
 20
1746.0
 21
1746.0
  0
ARC
  8
APS_GEOMETRY
 10
368.0
 20
1746.0
 40
254.0
 50
140.875
 51
176.388
  0
ARC
  8
APS_GEOMETRY
 10
368.0
 20
1746.0
 40
254.0
 50
95.875
 51
129.125
  0
ARC
  8
APS_GEOMETRY
 10
368.0
 20
1746.0
 40
254.0
 50
50.875
 51
84.125
  0
ARC
  8
APS_GEOMETRY
 10
368.0
 20
1746.0
 40
254.0
 50
3.612
 51
39.125
  0
LINE
  8
APS_GEOMETRY
 10
1038.0
 11
840.0
 20
1762.0
 21
1762.0
  0
LINE
  8
APS_GEOMETRY
 10
622.0
 11
486.263
 20
1762.0
 21
1762.0
  0
LINE
  8
APS_GEOMETRY
 10
249.737
 11
114.0
 20
1762.0
 21
1762.0
  0
LINE
  8
APS_GEOMETRY
 10
1038.0
 11
840.0
 20
1710.0
 21
1710.0
  0
LINE
  8
APS_GEOMETRY
 10
622.0
 11
487.34
 20
1710.0
 21
1710.0
  0
LINE
  8
APS_GEOMETRY
 10
435.34
 11
300.66
 20
1710.0
 21
1710.0
  0
LINE
  8
APS_GEOMETRY
 10
248.66
 11
114.0
 20
1710.0
 21
1710.0
  0
LINE
  8
APS_GEOMETRY
 10
114.0
 11
248.66
 20
886.0
 21
886.0
  0
LINE
  8
APS_GEOMETRY
 10
300.66
 11
435.34
 20
886.0
 21
886.0
  0
LINE
  8
APS_GEOMETRY
 10
487.34
 11
622.0
 20
886.0
 21
886.0
  0
LINE
  8
APS_GEOMETRY
 10
840.0
 11
1038.0
 20
886.0
 21
886.0
  0
LINE
  8
APS_GEOMETRY
 10
424.0
 11
622.0
 20
774.0
 21
774.0
  0
LINE
  8
APS_GEOMETRY
 10
840.0
 11
1038.0
 20
774.0
 21
774.0
  0
LINE
  8
APS_GEOMETRY
 10
424.0
 11
424.0
 20
774.0
 21
226.0
  0
LINE
  8
APS_GEOMETRY
 10
114.0
 11
248.66
 20
1324.0
 21
1324.0
  0
LINE
  8
APS_GEOMETRY
 10
300.66
 11
435.34
 20
1324.0
 21
1324.0
  0
LINE
  8
APS_GEOMETRY
 10
487.34
 11
622.0
 20
1324.0
 21
1324.0
  0
LINE
  8
APS_GEOMETRY
 10
840.0
 11
1038.0
 20
1324.0
 21
1324.0
  0
LINE
  8
APS_GEOMETRY
 10
114.0
 11
248.66
 20
1272.0
 21
1272.0
  0
LINE
  8
APS_GEOMETRY
 10
300.66
 11
435.34
 20
1272.0
 21
1272.0
  0
LINE
  8
APS_GEOMETRY
 10
487.34
 11
622.0
 20
1272.0
 21
1272.0
  0
LINE
  8
APS_GEOMETRY
 10
840.0
 11
1038.0
 20
1272.0
 21
1272.0
  0
LINE
  8
APS_GEOMETRY
 10
248.66
 11
248.66
 20
1710.0
 21
1324.0
  0
LINE
  8
APS_GEOMETRY
 10
248.66
 11
248.66
 20
1272.0
 21
886.0
  0
LINE
  8
APS_GEOMETRY
 10
487.34
 11
487.34
 20
886.0
 21
1272.0
  0
LINE
  8
APS_GEOMETRY
 10
487.34
 11
487.34
 20
1324.0
 21
1710.0
  0
LINE
  8
APS_GEOMETRY
 10
300.66
 11
300.66
 20
1710.0
 21
1324.0
  0
LINE
  8
APS_GEOMETRY
 10
300.66
 11
300.66
 20
1272.0
 21
886.0
  0
LINE
  8
APS_GEOMETRY
 10
435.34
 11
435.34
 20
886.0
 21
1272.0
  0
LINE
  8
APS_GEOMETRY
 10
435.34
 11
435.34
 20
1324.0
 21
1710.0
  0
ARC
  8
APS_GEOMETRY
 10
368.0
 20
1746.0
 40
119.34
 50
147.584
 51
172.295
  0
ARC
  8
APS_GEOMETRY
 10
368.0
 20
1746.0
 40
119.34
 50
102.584
 51
122.416
  0
ARC
  8
APS_GEOMETRY
 10
368.0
 20
1746.0
 40
119.34
 50
57.584
 51
77.416
  0
ARC
  8
APS_GEOMETRY
 10
368.0
 20
1746.0
 40
119.34
 50
7.705
 51
32.416
  0
LINE
  8
APS_GEOMETRY
 10
638.0
 11
98.0
 20
1726.0
 21
1726.0
  0
LINE
  8
APS_GEOMETRY
 10
264.66
 11
264.66
 20
1726.0
 21
1308.0
  0
LINE
  8
APS_GEOMETRY
 10
284.66
 11
284.66
 20
1726.0
 21
1308.0
  0
LINE
  8
APS_GEOMETRY
 10
451.34
 11
451.34
 20
1308.0
 21
1726.0
  0
LINE
  8
APS_GEOMETRY
 10
471.34
 11
471.34
 20
1308.0
 21
1726.0
  0
LINE
  8
APS_GEOMETRY
 10
98.0
 11
638.0
 20
1308.0
 21
1308.0
  0
LINE
  8
APS_GEOMETRY
 10
98.0
 11
638.0
 20
1288.0
 21
1288.0
  0
LINE
  8
APS_GEOMETRY
 10
264.66
 11
264.66
 20
1288.0
 21
870.0
  0
LINE
  8
APS_GEOMETRY
 10
284.66
 11
284.66
 20
1288.0
 21
870.0
  0
LINE
  8
APS_GEOMETRY
 10
451.34
 11
451.34
 20
870.0
 21
1288.0
  0
LINE
  8
APS_GEOMETRY
 10
471.34
 11
471.34
 20
870.0
 21
1288.0
  0
ARC
  8
APS_GEOMETRY
 10
368.0
 20
1746.0
 40
103.34
 50
0.0
 51
180.0
  0
LINE
  8
APS_GEOMETRY
 10
98.0
 11
98.0
 20
2114.0
 21
0.0
  0
LINE
  8
APS_GEOMETRY
 10
638.0
 11
638.0
 20
0.0
 21
2114.0
  0
LINE
  8
APS_GEOMETRY
 10
824.0
 11
824.0
 20
2114.0
 21
0.0
  0
LINE
  8
APS_GEOMETRY
 10
328.0
 11
328.0
 20
790.0
 21
210.0
  0
LINE
  8
APS_GEOMETRY
 10
408.0
 11
408.0
 20
790.0
 21
210.0
  0
LINE
  8
APS_GEOMETRY
 10
98.0
 11
638.0
 20
790.0
 21
790.0
  0
LINE
  8
APS_GEOMETRY
 10
98.0
 11
638.0
 20
870.0
 21
870.0
  0
LINE
  8
APS_GEOMETRY
 10
98.0
 11
638.0
 20
210.0
 21
210.0
  0
LINE
  8
APS_GEOMETRY
 10
824.0
 11
1054.0
 20
210.0
 21
210.0
  0
LINE
  8
APS_GEOMETRY
 10
1054.0
 11
1054.0
 20
0.0
 21
2114.0
  0
LINE
  8
APS_GEOMETRY
 10
824.0
 11
1054.0
 20
790.0
 21
790.0
  0
LINE
  8
APS_GEOMETRY
 10
824.0
 11
1054.0
 20
870.0
 21
870.0
  0
LINE
  8
APS_GEOMETRY
 10
824.0
 11
1054.0
 20
1288.0
 21
1288.0
  0
LINE
  8
APS_GEOMETRY
 10
824.0
 11
1054.0
 20
1308.0
 21
1308.0
  0
LINE
  8
APS_GEOMETRY
 10
1054.0
 11
824.0
 20
1726.0
 21
1726.0
  0
LINE
  8
APS_GEOMETRY
 10
1054.0
 11
824.0
 20
1746.0
 21
1746.0
  0
LINE
  8
APS_GEOMETRY
 10
1054.0
 11
824.0
 20
2016.0
 21
2016.0
  0
ARC
  8
APS_GEOMETRY
 10
368.0
 20
1746.0
 40
270.0
 50
360.0
 51
180.0
  0
LINE
  8
APS_GEOMETRY
 10
304.026
 11
206.78
 20
1846.744
 21
1943.99
  0
LINE
  8
APS_GEOMETRY
 10
267.256
 11
170.01
 20
1809.974
 21
1907.22
  0
LINE
  8
APS_GEOMETRY
 10
342.0
 11
342.0
 20
1862.473
 21
2000.0
  0
LINE
  8
APS_GEOMETRY
 10
394.0
 11
394.0
 20
1862.473
 21
2000.0
  0
LINE
  8
APS_GEOMETRY
 10
431.974
 11
529.22
 20
1846.744
 21
1943.99
  0
LINE
  8
APS_GEOMETRY
 10
468.744
 11
565.99
 20
1809.974
 21
1907.22
  0
LINE
  8
APS_GEOMETRY
 10
288.199
 11
170.141
 20
1811.658
 21
1929.717
  0
LINE
  8
APS_GEOMETRY
 10
302.342
 11
184.283
 20
1825.801
 21
1943.859
  0
LINE
  8
APS_GEOMETRY
 10
358.0
 11
358.0
 20
1848.855
 21
2015.815
  0
LINE
  8
APS_GEOMETRY
 10
378.0
 11
378.0
 20
1848.855
 21
2015.815
  0
LINE
  8
APS_GEOMETRY
 10
433.658
 11
551.717
 20
1825.801
 21
1943.859
  0
LINE
  8
APS_GEOMETRY
 10
447.801
 11
565.859
 20
1811.658
 21
1929.717
  0
LINE
  8
APS_GEOMETRY
 10
302.342
 11
304.026
 20
1825.801
 21
1846.744
  0
LINE
  8
APS_GEOMETRY
 10
342.0
 11
358.0
 20
1862.473
 21
1848.855
  0
LINE
  8
APS_GEOMETRY
 10
267.256
 11
288.199
 20
1809.974
 21
1811.658
  0
LINE
  8
APS_GEOMETRY
 10
249.737
 11
264.66
 20
1762.0
 21
1746.0
  0
LINE
  8
APS_GEOMETRY
 10
394.0
 11
378.0
 20
1862.473
 21
1848.855
  0
LINE
  8
APS_GEOMETRY
 10
433.658
 11
431.974
 20
1825.801
 21
1846.744
  0
LINE
  8
APS_GEOMETRY
 10
447.801
 11
468.744
 20
1811.658
 21
1809.974
  0
LINE
  8
APS_GEOMETRY
 10
486.263
 11
471.34
 20
1762.0
 21
1746.0
  0
LINE
  8
APS_GEOMETRY
 10
98.0
 11
114.0
 20
1746.0
 21
1762.0
  0
LINE
  8
APS_GEOMETRY
 10
638.0
 11
622.0
 20
1746.0
 21
1762.0
  0
LINE
  8
APS_GEOMETRY
 10
565.99
 11
565.859
 20
1907.22
 21
1929.717
  0
LINE
  8
APS_GEOMETRY
 10
551.717
 11
529.22
 20
1943.859
 21
1943.99
  0
LINE
  8
APS_GEOMETRY
 10
394.0
 11
378.0
 20
2000.0
 21
2015.815
  0
LINE
  8
APS_GEOMETRY
 10
358.0
 11
342.0
 20
2015.815
 21
2000.0
  0
LINE
  8
APS_GEOMETRY
 10
206.78
 11
184.283
 20
1943.99
 21
1943.859
  0
LINE
  8
APS_GEOMETRY
 10
170.141
 11
170.01
 20
1929.717
 21
1907.22
  0
LINE
  8
APS_GEOMETRY
 10
114.0
 11
98.0
 20
1762.0
 21
1746.0
  0
LINE
  8
APS_GEOMETRY
 10
114.0
 11
98.0
 20
1710.0
 21
1726.0
  0
LINE
  8
APS_GEOMETRY
 10
638.0
 11
622.0
 20
1726.0
 21
1710.0
  0
LINE
  8
APS_GEOMETRY
 10
248.66
 11
264.66
 20
1710.0
 21
1726.0
  0
LINE
  8
APS_GEOMETRY
 10
248.66
 11
264.66
 20
1324.0
 21
1308.0
  0
LINE
  8
APS_GEOMETRY
 10
98.0
 11
114.0
 20
1308.0
 21
1324.0
  0
LINE
  8
APS_GEOMETRY
 10
300.66
 11
284.66
 20
1710.0
 21
1726.0
  0
LINE
  8
APS_GEOMETRY
 10
435.32
 11
451.32
 20
1710.0
 21
1726.0
  0
LINE
  8
APS_GEOMETRY
 10
435.32
 11
451.32
 20
1324.0
 21
1308.0
  0
LINE
  8
APS_GEOMETRY
 10
284.66
 11
300.66
 20
1308.0
 21
1324.0
  0
LINE
  8
APS_GEOMETRY
 10
487.34
 11
471.34
 20
1710.0
 21
1726.0
  0
LINE
  8
APS_GEOMETRY
 10
622.0
 11
638.0
 20
1710.0
 21
1726.0
  0
LINE
  8
APS_GEOMETRY
 10
622.0
 11
638.0
 20
1324.0
 21
1308.0
  0
LINE
  8
APS_GEOMETRY
 10
471.34
 11
487.34
 20
1308.0
 21
1324.0
  0
LINE
  8
APS_GEOMETRY
 10
114.0
 11
98.0
 20
1272.0
 21
1288.0
  0
LINE
  8
APS_GEOMETRY
 10
248.66
 11
264.66
 20
1272.0
 21
1288.0
  0
LINE
  8
APS_GEOMETRY
 10
248.66
 11
264.66
 20
886.0
 21
870.0
  0
LINE
  8
APS_GEOMETRY
 10
98.0
 11
114.0
 20
870.0
 21
886.0
  0
LINE
  8
APS_GEOMETRY
 10
300.66
 11
284.66
 20
1272.0
 21
1288.0
  0
LINE
  8
APS_GEOMETRY
 10
435.32
 11
451.32
 20
1272.0
 21
1288.0
  0
LINE
  8
APS_GEOMETRY
 10
435.32
 11
451.32
 20
886.0
 21
870.0
  0
LINE
  8
APS_GEOMETRY
 10
284.66
 11
300.66
 20
870.0
 21
886.0
  0
LINE
  8
APS_GEOMETRY
 10
487.34
 11
471.34
 20
1272.0
 21
1288.0
  0
LINE
  8
APS_GEOMETRY
 10
622.0
 11
638.0
 20
1272.0
 21
1288.0
  0
LINE
  8
APS_GEOMETRY
 10
622.0
 11
638.0
 20
886.0
 21
870.0
  0
LINE
  8
APS_GEOMETRY
 10
471.34
 11
487.34
 20
870.0
 21
886.0
  0
LINE
  8
APS_GEOMETRY
 10
114.0
 11
98.0
 20
774.0
 21
790.0
  0
LINE
  8
APS_GEOMETRY
 10
312.0
 11
328.0
 20
774.0
 21
790.0
  0
LINE
  8
APS_GEOMETRY
 10
328.0
 11
312.0
 20
210.0
 21
226.0
  0
LINE
  8
APS_GEOMETRY
 10
114.0
 11
98.0
 20
226.0
 21
210.0
  0
LINE
  8
APS_GEOMETRY
 10
424.0
 11
408.0
 20
774.0
 21
790.0
  0
LINE
  8
APS_GEOMETRY
 10
622.0
 11
638.0
 20
774.0
 21
790.0
  0
LINE
  8
APS_GEOMETRY
 10
638.0
 11
622.0
 20
210.0
 21
226.0
  0
LINE
  8
APS_GEOMETRY
 10
424.0
 11
408.0
 20
226.0
 21
210.0
  0
LINE
  8
APS_GEOMETRY
 10
840.0
 11
824.0
 20
774.0
 21
790.0
  0
LINE
  8
APS_GEOMETRY
 10
1038.0
 11
1054.0
 20
774.0
 21
790.0
  0
LINE
  8
APS_GEOMETRY
 10
1054.0
 11
1038.0
 20
210.0
 21
226.0
  0
LINE
  8
APS_GEOMETRY
 10
840.0
 11
824.0
 20
226.0
 21
210.0
  0
LINE
  8
APS_GEOMETRY
 10
840.0
 11
824.0
 20
886.0
 21
870.0
  0
LINE
  8
APS_GEOMETRY
 10
840.0
 11
824.0
 20
1272.0
 21
1288.0
  0
LINE
  8
APS_GEOMETRY
 10
1038.0
 11
1054.0
 20
1272.0
 21
1288.0
  0
LINE
  8
APS_GEOMETRY
 10
1038.0
 11
1054.0
 20
886.0
 21
870.0
  0
LINE
  8
APS_GEOMETRY
 10
840.0
 11
824.0
 20
1324.0
 21
1308.0
  0
LINE
  8
APS_GEOMETRY
 10
840.0
 11
824.0
 20
1710.0
 21
1726.0
  0
LINE
  8
APS_GEOMETRY
 10
1038.0
 11
1054.0
 20
1710.0
 21
1726.0
  0
LINE
  8
APS_GEOMETRY
 10
1038.0
 11
1054.0
 20
1324.0
 21
1308.0
  0
LINE
  8
APS_GEOMETRY
 10
840.0
 11
824.0
 20
1762.0
 21
1746.0
  0
LINE
  8
APS_GEOMETRY
 10
840.0
 11
824.0
 20
2000.0
 21
2016.0
  0
LINE
  8
APS_GEOMETRY
 10
1038.0
 11
1054.0
 20
2000.0
 21
2016.0
  0
LINE
  8
APS_GEOMETRY
 10
1038.0
 11
1054.0
 20
1762.0
 21
1746.0
  0
LINE
  8
APS_GEOMETRY
 10
114.0
 11
114.0
 20
774.0
 21
226.0
  0
LINE
  8
APS_GEOMETRY
 10
114.0
 11
312.0
 20
226.0
 21
226.0
  0
LINE
  8
APS_GEOMETRY
 10
312.0
 11
312.0
 20
226.0
 21
774.0
  0
LINE
  8
APS_GEOMETRY
 10
312.0
 11
114.0
 20
774.0
 21
774.0
  0
LINE
  8
APS_GEOMETRY
 10
153.0
 11
153.0
 20
735.0
 21
265.0
  0
LINE
  8
APS_GEOMETRY
 10
153.0
 11
273.0
 20
265.0
 21
265.0
  0
LINE
  8
APS_GEOMETRY
 10
273.0
 11
273.0
 20
265.0
 21
735.0
  0
LINE
  8
APS_GEOMETRY
 10
273.0
 11
153.0
 20
735.0
 21
735.0
  0
LINE
  8
APS_GEOMETRY
 10
153.0
 11
114.0
 20
735.0
 21
774.0
  0
LINE
  8
APS_GEOMETRY
 10
153.0
 11
114.0
 20
265.0
 21
226.0
  0
LINE
  8
APS_GEOMETRY
 10
273.0
 11
312.0
 20
735.0
 21
774.0
  0
LINE
  8
APS_GEOMETRY
 10
273.0
 11
312.0
 20
265.0
 21
226.0
  0
LINE
  8
APS_GEOMETRY
 10
463.0
 11
463.0
 20
735.0
 21
265.0
  0
LINE
  8
APS_GEOMETRY
 10
463.0
 11
583.0
 20
265.0
 21
265.0
  0
LINE
  8
APS_GEOMETRY
 10
583.0
 11
583.0
 20
265.0
 21
735.0
  0
LINE
  8
APS_GEOMETRY
 10
583.0
 11
463.0
 20
735.0
 21
735.0
  0
LINE
  8
APS_GEOMETRY
 10
463.0
 11
424.0
 20
735.0
 21
774.0
  0
LINE
  8
APS_GEOMETRY
 10
463.0
 11
424.0
 20
265.0
 21
226.0
  0
LINE
  8
APS_GEOMETRY
 10
583.0
 11
622.0
 20
735.0
 21
774.0
  0
LINE
  8
APS_GEOMETRY
 10
583.0
 11
622.0
 20
265.0
 21
226.0
  0
LINE
  8
APS_GEOMETRY
 10
879.0
 11
879.0
 20
735.0
 21
265.0
  0
LINE
  8
APS_GEOMETRY
 10
879.0
 11
999.0
 20
265.0
 21
265.0
  0
LINE
  8
APS_GEOMETRY
 10
999.0
 11
999.0
 20
265.0
 21
735.0
  0
LINE
  8
APS_GEOMETRY
 10
999.0
 11
879.0
 20
735.0
 21
735.0
  0
LINE
  8
APS_GEOMETRY
 10
879.0
 11
840.0
 20
735.0
 21
774.0
  0
LINE
  8
APS_GEOMETRY
 10
879.0
 11
840.0
 20
265.0
 21
226.0
  0
LINE
  8
APS_GEOMETRY
 10
999.0
 11
1038.0
 20
735.0
 21
774.0
  0
LINE
  8
APS_GEOMETRY
 10
999.0
 11
1038.0
 20
265.0
 21
226.0
  0
LINE
  8
VETRO
 10
1024.698
 11
1038.0
 20
1762.0
 21
1798.548
  0
LINE
  8
VETRO
 10
1038.0
 11
984.791
 20
1908.19
 21
1762.0
  0
LINE
  8
VETRO
 10
971.489
 11
1038.0
 20
1762.0
 21
1944.738
  0
LINE
  8
VETRO
 10
1018.207
 11
931.582
 20
2000.0
 21
1762.0
  0
LINE
  8
VETRO
 10
918.28
 11
1004.905
 20
1762.0
 21
2000.0
  0
LINE
  8
VETRO
 10
964.998
 11
878.373
 20
2000.0
 21
1762.0
  0
LINE
  8
VETRO
 10
865.071
 11
951.696
 20
1762.0
 21
2000.0
  0
LINE
  8
VETRO
 10
911.789
 11
840.0
 20
2000.0
 21
1802.76
  0
LINE
  8
VETRO
 10
840.0
 11
898.487
 20
1839.308
 21
2000.0
  0
LINE
  8
VETRO
 10
858.58
 11
840.0
 20
2000.0
 21
1948.951
  0
LINE
  8
VETRO
 10
840.0
 11
845.278
 20
1985.498
 21
2000.0
  0
LINE
  8
VETRO
 10
1024.698
 11
1038.0
 20
1324.0
 21
1360.548
  0
LINE
  8
VETRO
 10
1038.0
 11
984.791
 20
1470.19
 21
1324.0
  0
LINE
  8
VETRO
 10
971.489
 11
1038.0
 20
1324.0
 21
1506.738
  0
LINE
  8
VETRO
 10
1038.0
 11
931.582
 20
1616.38
 21
1324.0
  0
LINE
  8
VETRO
 10
918.28
 11
1038.0
 20
1324.0
 21
1652.928
  0
LINE
  8
VETRO
 10
1018.866
 11
878.373
 20
1710.0
 21
1324.0
  0
LINE
  8
VETRO
 10
865.071
 11
1005.564
 20
1324.0
 21
1710.0
  0
LINE
  8
VETRO
 10
965.657
 11
840.0
 20
1710.0
 21
1364.76
  0
LINE
  8
VETRO
 10
840.0
 11
952.355
 20
1401.308
 21
1710.0
  0
LINE
  8
VETRO
 10
912.448
 11
840.0
 20
1710.0
 21
1510.951
  0
LINE
  8
VETRO
 10
840.0
 11
899.146
 20
1547.498
 21
1710.0
  0
LINE
  8
VETRO
 10
859.239
 11
840.0
 20
1710.0
 21
1657.141
  0
LINE
  8
VETRO
 10
840.0
 11
845.937
 20
1693.688
 21
1710.0
  0
LINE
  8
VETRO
 10
1024.698
 11
1038.0
 20
886.0
 21
922.548
  0
LINE
  8
VETRO
 10
1038.0
 11
984.791
 20
1032.19
 21
886.0
  0
LINE
  8
VETRO
 10
971.489
 11
1038.0
 20
886.0
 21
1068.738
  0
LINE
  8
VETRO
 10
1038.0
 11
931.582
 20
1178.38
 21
886.0
  0
LINE
  8
VETRO
 10
918.28
 11
1038.0
 20
886.0
 21
1214.928
  0
LINE
  8
VETRO
 10
1018.866
 11
878.373
 20
1272.0
 21
886.0
  0
LINE
  8
VETRO
 10
865.071
 11
1005.564
 20
886.0
 21
1272.0
  0
LINE
  8
VETRO
 10
965.657
 11
840.0
 20
1272.0
 21
926.76
  0
LINE
  8
VETRO
 10
840.0
 11
952.355
 20
963.308
 21
1272.0
  0
LINE
  8
VETRO
 10
912.448
 11
840.0
 20
1272.0
 21
1072.951
  0
LINE
  8
VETRO
 10
840.0
 11
899.146
 20
1109.498
 21
1272.0
  0
LINE
  8
VETRO
 10
859.239
 11
840.0
 20
1272.0
 21
1219.141
  0
LINE
  8
VETRO
 10
840.0
 11
845.937
 20
1255.688
 21
1272.0
  0
LINE
  8
VETRO
 10
235.358
 11
248.66
 20
886.0
 21
922.548
  0
LINE
  8
VETRO
 10
248.66
 11
195.451
 20
1032.19
 21
886.0
  0
LINE
  8
VETRO
 10
182.149
 11
248.66
 20
886.0
 21
1068.738
  0
LINE
  8
VETRO
 10
248.66
 11
142.242
 20
1178.38
 21
886.0
  0
LINE
  8
VETRO
 10
128.94
 11
248.66
 20
886.0
 21
1214.928
  0
LINE
  8
VETRO
 10
229.526
 11
114.0
 20
1272.0
 21
954.595
  0
LINE
  8
VETRO
 10
114.0
 11
216.224
 20
991.143
 21
1272.0
  0
LINE
  8
VETRO
 10
176.317
 11
114.0
 20
1272.0
 21
1100.786
  0
LINE
  8
VETRO
 10
114.0
 11
163.015
 20
1137.333
 21
1272.0
  0
LINE
  8
VETRO
 10
123.108
 11
114.0
 20
1272.0
 21
1246.976
  0
LINE
  8
VETRO
 10
422.038
 11
435.34
 20
886.0
 21
922.548
  0
LINE
  8
VETRO
 10
435.34
 11
382.131
 20
1032.19
 21
886.0
  0
LINE
  8
VETRO
 10
368.829
 11
435.34
 20
886.0
 21
1068.738
  0
LINE
  8
VETRO
 10
435.34
 11
328.922
 20
1178.38
 21
886.0
  0
LINE
  8
VETRO
 10
315.62
 11
435.34
 20
886.0
 21
1214.928
  0
LINE
  8
VETRO
 10
416.206
 11
300.66
 20
1272.0
 21
954.54
  0
LINE
  8
VETRO
 10
300.66
 11
402.904
 20
991.088
 21
1272.0
  0
LINE
  8
VETRO
 10
362.997
 11
300.66
 20
1272.0
 21
1100.731
  0
LINE
  8
VETRO
 10
300.66
 11
349.695
 20
1137.278
 21
1272.0
  0
LINE
  8
VETRO
 10
309.788
 11
300.66
 20
1272.0
 21
1246.921
  0
LINE
  8
VETRO
 10
608.698
 11
622.0
 20
886.0
 21
922.548
  0
LINE
  8
VETRO
 10
622.0
 11
568.791
 20
1032.19
 21
886.0
  0
LINE
  8
VETRO
 10
555.489
 11
622.0
 20
886.0
 21
1068.738
  0
LINE
  8
VETRO
 10
622.0
 11
515.582
 20
1178.38
 21
886.0
  0
LINE
  8
VETRO
 10
502.28
 11
622.0
 20
886.0
 21
1214.928
  0
LINE
  8
VETRO
 10
602.866
 11
487.34
 20
1272.0
 21
954.595
  0
LINE
  8
VETRO
 10
487.34
 11
589.564
 20
991.143
 21
1272.0
  0
LINE
  8
VETRO
 10
549.657
 11
487.34
 20
1272.0
 21
1100.786
  0
LINE
  8
VETRO
 10
487.34
 11
536.355
 20
1137.333
 21
1272.0
  0
LINE
  8
VETRO
 10
496.448
 11
487.34
 20
1272.0
 21
1246.976
  0
LINE
  8
VETRO
 10
608.698
 11
622.0
 20
1324.0
 21
1360.548
  0
LINE
  8
VETRO
 10
622.0
 11
568.791
 20
1470.19
 21
1324.0
  0
LINE
  8
VETRO
 10
555.489
 11
622.0
 20
1324.0
 21
1506.738
  0
LINE
  8
VETRO
 10
622.0
 11
515.582
 20
1616.38
 21
1324.0
  0
LINE
  8
VETRO
 10
502.28
 11
622.0
 20
1324.0
 21
1652.928
  0
LINE
  8
VETRO
 10
602.866
 11
487.34
 20
1710.0
 21
1392.595
  0
LINE
  8
VETRO
 10
487.34
 11
589.564
 20
1429.143
 21
1710.0
  0
LINE
  8
VETRO
 10
549.657
 11
487.34
 20
1710.0
 21
1538.786
  0
LINE
  8
VETRO
 10
487.34
 11
536.355
 20
1575.333
 21
1710.0
  0
LINE
  8
VETRO
 10
496.448
 11
487.34
 20
1710.0
 21
1684.976
  0
LINE
  8
VETRO
 10
422.038
 11
435.34
 20
1324.0
 21
1360.548
  0
LINE
  8
VETRO
 10
435.34
 11
382.131
 20
1470.19
 21
1324.0
  0
LINE
  8
VETRO
 10
368.829
 11
435.34
 20
1324.0
 21
1506.738
  0
LINE
  8
VETRO
 10
435.34
 11
328.922
 20
1616.38
 21
1324.0
  0
LINE
  8
VETRO
 10
315.62
 11
435.34
 20
1324.0
 21
1652.928
  0
LINE
  8
VETRO
 10
416.206
 11
300.66
 20
1710.0
 21
1392.54
  0
LINE
  8
VETRO
 10
300.66
 11
402.904
 20
1429.088
 21
1710.0
  0
LINE
  8
VETRO
 10
362.997
 11
300.66
 20
1710.0
 21
1538.731
  0
LINE
  8
VETRO
 10
300.66
 11
349.695
 20
1575.278
 21
1710.0
  0
LINE
  8
VETRO
 10
309.788
 11
300.66
 20
1710.0
 21
1684.921
  0
LINE
  8
VETRO
 10
235.358
 11
248.66
 20
1324.0
 21
1360.548
  0
LINE
  8
VETRO
 10
248.66
 11
195.451
 20
1470.19
 21
1324.0
  0
LINE
  8
VETRO
 10
182.149
 11
248.66
 20
1324.0
 21
1506.738
  0
LINE
  8
VETRO
 10
248.66
 11
142.242
 20
1616.38
 21
1324.0
  0
LINE
  8
VETRO
 10
128.94
 11
248.66
 20
1324.0
 21
1652.928
  0
LINE
  8
VETRO
 10
229.526
 11
114.0
 20
1710.0
 21
1392.595
  0
LINE
  8
VETRO
 10
114.0
 11
216.224
 20
1429.143
 21
1710.0
  0
LINE
  8
VETRO
 10
176.317
 11
114.0
 20
1710.0
 21
1538.786
  0
LINE
  8
VETRO
 10
114.0
 11
163.015
 20
1575.333
 21
1710.0
  0
LINE
  8
VETRO
 10
123.108
 11
114.0
 20
1710.0
 21
1684.976
  0
LINE
  8
VETRO
 10
214.047
 11
241.048
 20
1762.0
 21
1836.183
  0
LINE
  8
VETRO
 10
231.295
 11
200.745
 20
1845.935
 21
1762.0
  0
LINE
  8
VETRO
 10
160.838
 11
202.037
 20
1762.0
 21
1875.193
  0
LINE
  8
VETRO
 10
192.285
 11
147.536
 20
1884.946
 21
1762.0
  0
LINE
  8
VETRO
 10
117.858
 11
148.031
 20
1790.103
 21
1873.003
  0
LINE
  8
VETRO
 10
333.625
 11
342.0
 20
1860.282
 21
1883.291
  0
LINE
  8
VETRO
 10
342.0
 11
292.856
 20
1992.934
 21
1857.913
  0
LINE
  8
VETRO
 10
283.104
 11
330.242
 20
1867.666
 21
1997.178
  0
LINE
  8
VETRO
 10
286.471
 11
253.846
 20
1986.56
 21
1896.923
  0
LINE
  8
VETRO
 10
244.094
 11
271.063
 20
1906.676
 21
1980.775
  0
LINE
  8
VETRO
 10
221.133
 11
214.836
 20
1953.234
 21
1935.934
  0
LINE
  8
VETRO
 10
499.729
 11
514.04
 20
1914.498
 21
1953.818
  0
LINE
  8
VETRO
 10
503.332
 11
478.814
 20
1960.945
 21
1893.584
  0
LINE
  8
VETRO
 10
423.621
 11
469.878
 20
1851.586
 21
1978.673
  0
LINE
  8
VETRO
 10
458.298
 11
412.232
 20
1983.407
 21
1856.84
  0
LINE
  8
VETRO
 10
394.0
 11
422.294
 20
1916.392
 21
1994.129
  0
LINE
  8
VETRO
 10
409.864
 11
394.0
 20
1996.526
 21
1952.939
  0
LINE
  8
VETRO
 10
608.193
 11
618.233
 20
1762.0
 21
1789.583
  0
LINE
  8
VETRO
 10
600.054
 11
568.287
 20
1849.28
 21
1762.0
  0
LINE
  8
VETRO
 10
554.984
 11
592.443
 20
1762.0
 21
1864.917
  0
LINE
  8
VETRO
 10
566.798
 11
515.078
 20
1904.099
 21
1762.0
  0
LINE
  8
VETRO
 10
501.776
 11
548.132
 20
1762.0
 21
1889.362
  0
LINE
  8
VETRO
 10
485.388
 11
475.161
 20
1826.619
 21
1798.521
  0
LINE
  8
APS_GEOMETRY
 10
-24.0
 11
736.0
 20
2140.0
 21
2140.0
  0
LINE
  8
APS_GEOMETRY
 10
726.0
 11
1176.0
 20
2140.0
 21
2140.0
  0
LINE
  8
APS_GEOMETRY
 10
-24.0
 11
-24.0
 20
2209.0
 21
0.0
  0
LINE
  8
APS_GEOMETRY
 10
1176.0
 11
1176.0
 20
0.0
 21
2209.0
  0
LINE
  8
APS_GEOMETRY
 10
736.0
 11
-93.0
 20
2209.0
 21
2209.0
  0
LINE
  8
APS_GEOMETRY
 10
-93.0
 11
-93.0
 20
2209.0
 21
0.0
  0
LINE
  8
APS_GEOMETRY
 10
726.0
 11
1245.0
 20
2209.0
 21
2209.0
  0
LINE
  8
APS_GEOMETRY
 10
1245.0
 11
1245.0
 20
2209.0
 21
0.0
  0
LINE
  8
APS_GEOMETRY
 10
-93.0
 11
1245.0
 20
0.0
 21
0.0
  0
LINE
  8
APS_GEOMETRY
 10
178.657
 11
178.657
 20
-90.76
 21
-60.76
  0
LINE
  8
APS_GEOMETRY
 10
178.657
 11
180.323
 20
-60.76
 21
-60.76
  0
LINE
  8
APS_GEOMETRY
 10
180.323
 11
191.99
 20
-60.76
 21
-90.76
  0
LINE
  8
APS_GEOMETRY
 10
191.99
 11
203.657
 20
-90.76
 21
-60.76
  0
LINE
  8
APS_GEOMETRY
 10
203.657
 11
205.323
 20
-60.76
 21
-60.76
  0
LINE
  8
APS_GEOMETRY
 10
205.323
 11
205.323
 20
-60.76
 21
-90.76
  0
ARC
  8
APS_GEOMETRY
 10
220.138
 20
-80.833
 40
9.822
 50
218.689
 51
321.311
  0
ARC
  8
APS_GEOMETRY
 10
213.614
 20
-75.472
 40
18.265
 50
320.978
 51
39.021
  0
ARC
  8
APS_GEOMETRY
 10
220.138
 20
-70.112
 40
9.822
 50
38.688
 51
141.313
  0
ARC
  8
APS_GEOMETRY
 10
226.662
 20
-75.472
 40
18.265
 50
140.979
 51
219.021
  0
ARC
  8
APS_GEOMETRY
 10
243.501
 20
-70.549
 40
9.789
 50
38.715
 51
90.165
  0
LINE
  8
APS_GEOMETRY
 10
243.473
 11
234.806
 20
-60.76
 21
-60.76
  0
LINE
  8
APS_GEOMETRY
 10
234.806
 11
234.806
 20
-60.76
 21
-90.76
  0
LINE
  8
APS_GEOMETRY
 10
234.806
 11
243.473
 20
-90.76
 21
-90.76
  0
ARC
  8
APS_GEOMETRY
 10
243.501
 20
-80.971
 40
9.789
 50
269.834
 51
321.286
  0
ARC
  8
APS_GEOMETRY
 10
237.155
 20
-75.76
 40
18.0
 50
320.978
 51
39.022
  0
LINE
  8
APS_GEOMETRY
 10
261.155
 11
258.155
 20
-90.76
 21
-90.76
  0
LINE
  8
APS_GEOMETRY
 10
258.155
 11
258.155
 20
-90.76
 21
-87.76
  0
LINE
  8
APS_GEOMETRY
 10
258.155
 11
261.155
 20
-87.76
 21
-87.76
  0
LINE
  8
APS_GEOMETRY
 10
261.155
 11
261.155
 20
-87.76
 21
-90.76
  0
LINE
  8
APS_GEOMETRY
 10
267.981
 11
289.648
 20
-60.744
 21
-60.744
  0
LINE
  8
APS_GEOMETRY
 10
289.648
 11
289.648
 20
-60.744
 21
-62.411
  0
ARC
  8
APS_GEOMETRY
 10
310.104
 20
-89.741
 40
34.138
 50
126.815
 51
181.684
  0
ARC
  8
APS_GEOMETRY
 10
306.671
 20
-81.304
 40
9.822
 50
218.689
 51
321.311
  0
ARC
  8
APS_GEOMETRY
 10
300.147
 20
-75.943
 40
18.265
 50
320.978
 51
39.021
  0
ARC
  8
APS_GEOMETRY
 10
306.671
 20
-70.583
 40
9.822
 50
38.688
 51
141.313
  0
ARC
  8
APS_GEOMETRY
 10
313.195
 20
-75.944
 40
18.265
 50
140.979
 51
219.021
  0
ARC
  8
APS_GEOMETRY
 10
336.154
 20
-81.304
 40
9.822
 50
218.689
 51
321.311
  0
ARC
  8
APS_GEOMETRY
 10
329.63
 20
-75.943
 40
18.265
 50
320.978
 51
39.021
  0
ARC
  8
APS_GEOMETRY
 10
336.154
 20
-70.583
 40
9.822
 50
38.688
 51
141.313
  0
ARC
  8
APS_GEOMETRY
 10
342.678
 20
-75.944
 40
18.265
 50
140.979
 51
219.021
  0
LINE
  8
APS_GEOMETRY
 10
353.97
 11
362.97
 20
-77.555
 21
-77.555
  0
ARC
  8
APS_GEOMETRY
 10
371.001
 20
-75.738
 40
18.236
 50
31.027
 51
40.045
  0
ARC
  8
APS_GEOMETRY
 10
377.294
 20
-70.145
 40
9.822
 50
38.687
 51
141.312
  0
ARC
  8
APS_GEOMETRY
 10
383.818
 20
-75.505
 40
18.265
 50
140.979
 51
219.022
  0
ARC
  8
APS_GEOMETRY
 10
377.295
 20
-80.866
 40
9.822
 50
218.688
 51
321.313
  0
ARC
  8
APS_GEOMETRY
 10
370.888
 20
-76.294
 40
17.685
 50
322.727
 51
335.346
  0
LINE
  8
APS_GEOMETRY
 10
413.196
 11
393.196
 20
-90.76
 21
-90.76
  0
ARC
  8
APS_GEOMETRY
 10
403.77
 20
-90.746
 40
10.574
 50
121.814
 51
180.077
  0
LINE
  8
APS_GEOMETRY
 10
398.196
 11
409.529
 20
-81.76
 21
-74.76
  0
ARC
  8
APS_GEOMETRY
 10
405.84
 20
-68.427
 40
7.329
 50
300.22
 51
59.779
  0
ARC
  8
APS_GEOMETRY
 10
403.862
 20
-72.624
 40
11.959
 50
61.714
 51
118.284
  0
ARC
  8
APS_GEOMETRY
 10
401.551
 20
-68.398
 40
7.142
 50
118.021
 51
169.472
  0
LINE
  8
APS_GEOMETRY
 10
419.196
 11
431.196
 20
-75.093
 21
-75.093
  0
ARC
  8
APS_GEOMETRY
 10
431.196
 20
-67.927
 40
7.167
 50
270.0
 51
90.0
  0
LINE
  8
APS_GEOMETRY
 10
431.196
 11
419.196
 20
-60.76
 21
-60.76
  0
LINE
  8
APS_GEOMETRY
 10
419.196
 11
419.196
 20
-60.76
 21
-90.76
  0
LINE
  8
APS_GEOMETRY
 10
419.196
 11
431.529
 20
-90.76
 21
-90.76
  0
ARC
  8
APS_GEOMETRY
 10
431.529
 20
-82.927
 40
7.833
 50
270.0
 51
90.0
  0
LINE
  8
APS_GEOMETRY
 10
493.862
 11
473.862
 20
-90.76
 21
-90.76
  0
ARC
  8
APS_GEOMETRY
 10
484.437
 20
-90.746
 40
10.574
 50
121.814
 51
180.077
  0
LINE
  8
APS_GEOMETRY
 10
478.862
 11
490.196
 20
-81.76
 21
-74.76
  0
ARC
  8
APS_GEOMETRY
 10
486.507
 20
-68.427
 40
7.329
 50
300.22
 51
59.779
  0
ARC
  8
APS_GEOMETRY
 10
484.529
 20
-72.624
 40
11.959
 50
61.714
 51
118.284
  0
ARC
  8
APS_GEOMETRY
 10
482.218
 20
-68.398
 40
7.142
 50
118.021
 51
169.472
  0
LINE
  8
APS_GEOMETRY
 10
500.529
 11
518.862
 20
-84.093
 21
-84.093
  0
LINE
  8
APS_GEOMETRY
 10
496.862
 11
508.529
 20
-90.76
 21
-60.76
  0
LINE
  8
APS_GEOMETRY
 10
508.529
 11
511.196
 20
-60.76
 21
-60.76
  0
LINE
  8
APS_GEOMETRY
 10
511.196
 11
522.196
 20
-60.76
 21
-90.76
  0
LINE
  8
APS_GEOMETRY
 10
528.862
 11
547.196
 20
-84.093
 21
-84.093
  0
LINE
  8
APS_GEOMETRY
 10
525.196
 11
536.862
 20
-90.76
 21
-60.76
  0
LINE
  8
APS_GEOMETRY
 10
536.862
 11
539.529
 20
-60.76
 21
-60.76
  0
LINE
  8
APS_GEOMETRY
 10
539.529
 11
550.529
 20
-60.76
 21
-90.76
  0
ARC
  8
APS_GEOMETRY
 10
591.861
 20
-72.56
 40
12.331
 50
42.904
 51
122.546
  0
ARC
  8
APS_GEOMETRY
 10
588.695
 20
-67.445
 40
6.317
 50
123.307
 51
253.426
  0
LINE
  8
APS_GEOMETRY
 10
586.893
 11
596.893
 20
-73.499
 21
-76.832
  0
ARC
  8
APS_GEOMETRY
 10
594.857
 20
-83.291
 40
6.772
 50
299.838
 51
72.504
  0
ARC
  8
APS_GEOMETRY
 10
591.727
 20
-77.896
 40
13.01
 50
240.023
 51
299.974
  0
ARC
  8
APS_GEOMETRY
 10
588.784
 20
-82.941
 40
7.17
 50
209.759
 51
240.255
  0
LINE
  8
APS_GEOMETRY
 10
607.947
 11
630.614
 20
-60.76
 21
-90.76
  0
LINE
  8
APS_GEOMETRY
 10
607.28
 11
629.947
 20
-90.76
 21
-60.76
  0
LINE
  8
APS_GEOMETRY
 10
693.614
 11
698.76
 20
-90.76
 21
-90.76
  0
LINE
  8
APS_GEOMETRY
 10
698.76
 11
703.907
 20
-90.76
 21
-90.76
  0
LINE
  8
APS_GEOMETRY
 10
698.76
 11
698.76
 20
-90.76
 21
-60.76
  0
LINE
  8
APS_GEOMETRY
 10
698.76
 11
693.614
 20
-60.76
 21
-65.907
  0
LINE
  8
APS_GEOMETRY
 10
709.907
 11
715.054
 20
-90.76
 21
-90.76
  0
LINE
  8
APS_GEOMETRY
 10
715.054
 11
720.201
 20
-90.76
 21
-90.76
  0
LINE
  8
APS_GEOMETRY
 10
715.054
 11
715.054
 20
-90.76
 21
-60.76
  0
LINE
  8
APS_GEOMETRY
 10
715.054
 11
709.907
 20
-60.76
 21
-65.907
  0
LINE
  8
APS_GEOMETRY
 10
746.201
 11
726.201
 20
-90.76
 21
-90.76
  0
ARC
  8
APS_GEOMETRY
 10
736.775
 20
-90.746
 40
10.574
 50
121.814
 51
180.077
  0
LINE
  8
APS_GEOMETRY
 10
731.201
 11
742.534
 20
-81.76
 21
-74.76
  0
ARC
  8
APS_GEOMETRY
 10
738.845
 20
-68.427
 40
7.329
 50
300.22
 51
59.779
  0
ARC
  8
APS_GEOMETRY
 10
736.867
 20
-72.624
 40
11.959
 50
61.714
 51
118.284
  0
ARC
  8
APS_GEOMETRY
 10
734.556
 20
-68.398
 40
7.142
 50
118.021
 51
169.472
  0
ARC
  8
APS_GEOMETRY
 10
764.05
 20
-81.304
 40
9.822
 50
218.689
 51
321.311
  0
ARC
  8
APS_GEOMETRY
 10
757.526
 20
-75.943
 40
18.265
 50
320.978
 51
39.021
  0
ARC
  8
APS_GEOMETRY
 10
764.05
 20
-70.583
 40
9.822
 50
38.688
 51
141.313
  0
ARC
  8
APS_GEOMETRY
 10
770.574
 20
-75.944
 40
18.265
 50
140.979
 51
219.021
  0
LINE
  8
APS_GEOMETRY
 10
782.351
 11
805.017
 20
-60.76
 21
-90.76
  0
LINE
  8
APS_GEOMETRY
 10
781.684
 11
804.351
 20
-90.76
 21
-60.76
  0
LINE
  8
APS_GEOMETRY
 10
831.017
 11
811.017
 20
-90.76
 21
-90.76
  0
ARC
  8
APS_GEOMETRY
 10
821.592
 20
-90.746
 40
10.574
 50
121.814
 51
180.077
  0
LINE
  8
APS_GEOMETRY
 10
816.017
 11
827.35
 20
-81.76
 21
-74.76
  0
ARC
  8
APS_GEOMETRY
 10
823.661
 20
-68.427
 40
7.329
 50
300.22
 51
59.779
  0
ARC
  8
APS_GEOMETRY
 10
821.684
 20
-72.624
 40
11.959
 50
61.714
 51
118.284
  0
ARC
  8
APS_GEOMETRY
 10
819.373
 20
-68.398
 40
7.142
 50
118.021
 51
169.472
  0
LINE
  8
APS_GEOMETRY
 10
837.017
 11
842.164
 20
-90.76
 21
-90.76
  0
LINE
  8
APS_GEOMETRY
 10
842.164
 11
847.311
 20
-90.76
 21
-90.76
  0
LINE
  8
APS_GEOMETRY
 10
842.164
 11
842.164
 20
-90.76
 21
-60.76
  0
LINE
  8
APS_GEOMETRY
 10
842.164
 11
837.017
 20
-60.76
 21
-65.907
  0
ARC
  8
APS_GEOMETRY
 10
865.16
 20
-81.304
 40
9.822
 50
218.689
 51
321.311
  0
ARC
  8
APS_GEOMETRY
 10
858.636
 20
-75.943
 40
18.265
 50
320.978
 51
39.021
  0
ARC
  8
APS_GEOMETRY
 10
865.16
 20
-70.583
 40
9.822
 50
38.688
 51
141.313
  0
ARC
  8
APS_GEOMETRY
 10
871.684
 20
-75.944
 40
18.265
 50
140.979
 51
219.021
  0
ARC
  8
APS_GEOMETRY
 10
894.643
 20
-81.304
 40
9.822
 50
218.689
 51
321.311
  0
ARC
  8
APS_GEOMETRY
 10
888.119
 20
-75.943
 40
18.265
 50
320.978
 51
39.021
  0
ARC
  8
APS_GEOMETRY
 10
894.643
 20
-70.583
 40
9.822
 50
38.688
 51
141.313
  0
ARC
  8
APS_GEOMETRY
 10
901.167
 20
-75.944
 40
18.265
 50
140.979
 51
219.021
  0
LINE
  8
APS_GEOMETRY
 10
940.777
 11
940.777
 20
-60.76
 21
-90.76
  0
LINE
  8
APS_GEOMETRY
 10
940.777
 11
960.777
 20
-90.76
 21
-90.76
  0
LINE
  8
APS_GEOMETRY
 10
963.777
 11
963.777
 20
-90.76
 21
-60.76
  0
LINE
  8
APS_GEOMETRY
 10
963.777
 11
965.443
 20
-60.76
 21
-60.76
  0
LINE
  8
APS_GEOMETRY
 10
965.443
 11
982.11
 20
-60.76
 21
-90.76
  0
LINE
  8
APS_GEOMETRY
 10
982.11
 11
983.777
 20
-90.76
 21
-90.76
  0
LINE
  8
APS_GEOMETRY
 10
983.777
 11
983.777
 20
-90.76
 21
-60.76
  0
ENDSEC
  0
EOF
