  0
SECTION
  2
ENTITIES
  0
LINE
  8
APS_GEOMETRY
 10
880.0
 11
880.0
 20
0.0
 21
2140.0
  0
LINE
  8
APS_GEOMETRY
 10
880.0
 11
0.0
 20
2140.0
 21
2140.0
  0
LINE
  8
APS_GEOMETRY
 10
0.0
 11
0.0
 20
2140.0
 21
0.0
  0
LINE
  8
APS_GEOMETRY
 10
836.0
 11
836.0
 20
2113.5
 21
2140.0
  0
LINE
  8
APS_GEOMETRY
 10
44.0
 11
44.0
 20
2140.0
 21
2113.5
  0
LINE
  8
APS_GEOMETRY
 10
938.0
 11
938.0
 20
0.0
 21
2198.0
  0
LINE
  8
APS_GEOMETRY
 10
938.0
 11
-58.0
 20
2198.0
 21
2198.0
  0
LINE
  8
APS_GEOMETRY
 10
-58.0
 11
-58.0
 20
2198.0
 21
0.0
  0
LINE
  8
APS_GEOMETRY
 10
-58.0
 11
0.0
 20
2198.0
 21
2140.0
  0
LINE
  8
APS_GEOMETRY
 10
938.0
 11
880.0
 20
2198.0
 21
2140.0
  0
LINE
  8
APS_GEOMETRY
 10
853.5
 11
853.5
 20
4.5
 21
2113.5
  0
LINE
  8
APS_GEOMETRY
 10
853.5
 11
26.5
 20
2113.5
 21
2113.5
  0
LINE
  8
APS_GEOMETRY
 10
26.5
 11
26.5
 20
2113.5
 21
4.5
  0
LINE
  8
APS_GEOMETRY
 10
739.5
 11
739.5
 20
230.5
 21
778.5
  0
LINE
  8
APS_GEOMETRY
 10
739.5
 11
739.5
 20
890.5
 21
1700.0
  0
LINE
  8
APS_GEOMETRY
 10
140.5
 11
140.5
 20
1700.0
 21
890.5
  0
LINE
  8
APS_GEOMETRY
 10
140.5
 11
140.5
 20
778.5
 21
230.5
  0
LINE
  8
APS_GEOMETRY
 10
26.5
 11
853.5
 20
4.5
 21
4.5
  0
LINE
  8
APS_GEOMETRY
 10
124.5
 11
124.5
 20
2113.5
 21
4.5
  0
LINE
  8
APS_GEOMETRY
 10
755.5
 11
755.5
 20
4.5
 21
2113.5
  0
LINE
  8
APS_GEOMETRY
 10
124.5
 11
755.5
 20
214.5
 21
214.5
  0
LINE
  8
APS_GEOMETRY
 10
124.5
 11
140.5
 20
214.5
 21
230.5
  0
LINE
  8
APS_GEOMETRY
 10
755.5
 11
739.5
 20
214.5
 21
230.5
  0
LINE
  8
APS_GEOMETRY
 10
140.5
 11
739.5
 20
230.5
 21
230.5
  0
ARC
  8
APS_GEOMETRY
 10
440.0
 20
1700.0
 40
299.5
 50
360.0
 51
180.0
  0
ARC
  8
APS_GEOMETRY
 10
440.0
 20
1700.0
 40
315.5
 50
3.062
 51
176.938
  0
ARC
  8
APS_GEOMETRY
 10
140.928
 20
1716.0
 40
16.0
 50
176.938
 51
268.468
  0
ARC
  8
APS_GEOMETRY
 10
739.072
 20
1716.0
 40
16.0
 50
271.532
 51
3.062
  0
LINE
  8
APS_GEOMETRY
 10
140.5
 11
739.5
 20
778.5
 21
778.5
  0
LINE
  8
APS_GEOMETRY
 10
140.5
 11
739.5
 20
890.5
 21
890.5
  0
LINE
  8
APS_GEOMETRY
 10
124.5
 11
755.5
 20
874.5
 21
874.5
  0
LINE
  8
APS_GEOMETRY
 10
124.5
 11
755.5
 20
794.5
 21
794.5
  0
LINE
  8
APS_GEOMETRY
 10
124.5
 11
140.5
 20
874.5
 21
890.5
  0
LINE
  8
APS_GEOMETRY
 10
755.5
 11
739.5
 20
874.5
 21
890.5
  0
LINE
  8
APS_GEOMETRY
 10
140.5
 11
124.5
 20
778.5
 21
794.5
  0
LINE
  8
APS_GEOMETRY
 10
739.5
 11
755.5
 20
778.5
 21
794.5
  0
TEXT
  8
TEXT
 10
304.56
 20
-112.644
 30
0.0
 40
30.0
 50
0.0
  1
MOD. 700-CSG
  0
ENDSEC
  0
EOF
