  0
SECTION
  2
ENTITIES
  0
LINE
  8
APS_GEOMETRY
 10
880.0
 11
880.0
 20
0.0
 21
2140.0
  0
LINE
  8
APS_GEOMETRY
 10
880.0
 11
0.0
 20
2140.0
 21
2140.0
  0
LINE
  8
APS_GEOMETRY
 10
0.0
 11
0.0
 20
2140.0
 21
0.0
  0
LINE
  8
APS_GEOMETRY
 10
836.0
 11
836.0
 20
0.0
 21
2140.0
  0
LINE
  8
APS_GEOMETRY
 10
836.0
 11
44.0
 20
2096.0
 21
2096.0
  0
LINE
  8
APS_GEOMETRY
 10
44.0
 11
44.0
 20
2140.0
 21
0.0
  0
LINE
  8
APS_GEOMETRY
 10
938.0
 11
938.0
 20
0.0
 21
2198.0
  0
LINE
  8
APS_GEOMETRY
 10
938.0
 11
-58.0
 20
2198.0
 21
2198.0
  0
LINE
  8
APS_GEOMETRY
 10
-58.0
 11
-58.0
 20
2198.0
 21
0.0
  0
LINE
  8
APS_GEOMETRY
 10
-58.0
 11
0.0
 20
2198.0
 21
2140.0
  0
LINE
  8
APS_GEOMETRY
 10
938.0
 11
880.0
 20
2198.0
 21
2140.0
  0
LINE
  8
APS_GEOMETRY
 10
853.5
 11
853.5
 20
4.5
 21
2113.5
  0
LINE
  8
APS_GEOMETRY
 10
853.5
 11
26.5
 20
2113.5
 21
2113.5
  0
LINE
  8
APS_GEOMETRY
 10
26.5
 11
26.5
 20
2113.5
 21
4.5
  0
LINE
  8
APS_GEOMETRY
 10
739.5
 11
739.5
 20
890.5
 21
1944.74
  0
LINE
  8
APS_GEOMETRY
 10
140.5
 11
140.5
 20
1944.74
 21
890.5
  0
LINE
  8
APS_GEOMETRY
 10
26.5
 11
853.5
 20
4.5
 21
4.5
  0
LINE
  8
APS_GEOMETRY
 10
124.5
 11
124.5
 20
2113.5
 21
4.5
  0
LINE
  8
APS_GEOMETRY
 10
755.5
 11
755.5
 20
4.5
 21
2113.5
  0
ARC
  8
APS_GEOMETRY
 10
440.0
 20
1153.096
 40
846.404
 50
69.277
 51
110.723
  0
LINE
  8
APS_GEOMETRY
 10
124.5
 11
755.5
 20
164.5
 21
164.5
  0
LINE
  8
APS_GEOMETRY
 10
140.5
 11
739.5
 20
890.5
 21
890.5
  0
LINE
  8
APS_GEOMETRY
 10
124.5
 11
140.5
 20
164.5
 21
180.5
  0
LINE
  8
APS_GEOMETRY
 10
755.5
 11
739.5
 20
164.5
 21
180.5
  0
LINE
  8
APS_GEOMETRY
 10
124.5
 11
755.5
 20
794.5
 21
794.5
  0
LINE
  8
APS_GEOMETRY
 10
124.5
 11
755.5
 20
874.5
 21
874.5
  0
LINE
  8
APS_GEOMETRY
 10
124.5
 11
140.5
 20
794.5
 21
778.5
  0
LINE
  8
APS_GEOMETRY
 10
124.5
 11
140.5
 20
874.5
 21
890.5
  0
LINE
  8
APS_GEOMETRY
 10
755.5
 11
739.5
 20
874.5
 21
890.5
  0
LINE
  8
APS_GEOMETRY
 10
755.5
 11
739.5
 20
794.5
 21
778.5
  0
LINE
  8
APS_GEOMETRY
 10
739.5
 11
739.5
 20
180.5
 21
778.5
  0
LINE
  8
APS_GEOMETRY
 10
739.5
 11
140.5
 20
778.5
 21
778.5
  0
LINE
  8
APS_GEOMETRY
 10
140.5
 11
140.5
 20
778.5
 21
180.5
  0
LINE
  8
APS_GEOMETRY
 10
140.5
 11
739.5
 20
180.5
 21
180.5
  0
LINE
  8
APS_GEOMETRY
 10
700.5
 11
700.5
 20
219.5
 21
739.5
  0
LINE
  8
APS_GEOMETRY
 10
700.5
 11
179.5
 20
739.5
 21
739.5
  0
LINE
  8
APS_GEOMETRY
 10
179.5
 11
179.5
 20
739.5
 21
219.5
  0
LINE
  8
APS_GEOMETRY
 10
179.5
 11
700.5
 20
219.5
 21
219.5
  0
LINE
  8
APS_GEOMETRY
 10
179.5
 11
140.5
 20
739.5
 21
778.5
  0
LINE
  8
APS_GEOMETRY
 10
700.5
 11
739.5
 20
739.5
 21
778.5
  0
LINE
  8
APS_GEOMETRY
 10
179.5
 11
140.5
 20
219.5
 21
180.5
  0
LINE
  8
APS_GEOMETRY
 10
700.5
 11
739.5
 20
219.5
 21
180.5
  0
ARC
  8
APS_GEOMETRY
 10
440.0
 20
1153.096
 40
862.404
 50
68.541
 51
111.459
  0
LINE
  8
APS_GEOMETRY
 10
140.5
 11
124.5
 20
1944.74
 21
1955.717
  0
LINE
  8
APS_GEOMETRY
 10
739.5
 11
755.5
 20
1944.74
 21
1955.717
  0
TEXT
  8
TEXT
 10
304.56
 20
-112.644
 30
0.0
 40
30.0
 50
0.0
  1
MOD. 700SG
  0
ENDSEC
  0
EOF
