  0
SECTION
  2
ENTITIES
  0
LINE
  8
APS_GEOMETRY
 10
0.0
 11
210.0
 20
0.0
 21
0.0
  0
LINE
  8
APS_GEOMETRY
 10
210.0
 11
210.0
 20
0.0
 21
350.0
  0
LINE
  8
APS_GEOMETRY
 10
210.0
 11
0.0
 20
350.0
 21
350.0
  0
LINE
  8
APS_GEOMETRY
 10
0.0
 11
0.0
 20
350.0
 21
0.0
  0
LINE
  8
COSTRUZIONI
 10
-421.787
 11
578.213
 20
-438.546
 21
-438.546
  0
LINE
  8
COSTRUZIONI
 10
578.213
 11
578.213
 20
-438.546
 21
-338.546
  0
LINE
  8
COSTRUZIONI
 10
578.213
 11
-421.787
 20
-338.546
 21
-338.546
  0
LINE
  8
COSTRUZIONI
 10
-421.787
 11
-421.787
 20
-338.546
 21
-438.546
  0
LINE
  8
COSTRUZIONI
 10
78.213
 11
78.213
 20
-438.546
 21
-338.546
  0
LINE
  8
COSTRUZIONI
 10
78.213
 11
578.213
 20
-388.546
 21
-388.546
  0
LINE
  8
COSTRUZIONI
 10
328.213
 11
328.213
 20
-438.546
 21
-338.546
  0
LINE
  8
APS_GEOMETRY
 10
-389.402
 11
-380.785
 20
-370.551
 21
-370.551
  0
ARC
  8
APS_GEOMETRY
 10
-381.221
 20
-358.204
 40
12.355
 50
272.021
 51
278.44
  0
ARC
  8
APS_GEOMETRY
 10
-380.734
 20
-361.482
 40
9.042
 50
278.44
 51
285.945
  0
ARC
  8
APS_GEOMETRY
 10
-377.076
 20
-374.58
 40
4.559
 50
98.584
 51
104.931
  0
ARC
  8
APS_GEOMETRY
 10
-377.384
 20
-372.54
 40
2.495
 50
90.0
 51
98.584
  0
ARC
  8
APS_GEOMETRY
 10
-377.384
 20
-371.92
 40
1.876
 50
52.871
 51
90.0
  0
ARC
  8
APS_GEOMETRY
 10
-379.928
 20
-375.281
 40
6.091
 50
32.518
 51
52.871
  0
ARC
  8
APS_GEOMETRY
 10
-381.944
 20
-376.566
 40
8.481
 50
17.209
 51
32.518
  0
ARC
  8
APS_GEOMETRY
 10
-380.264
 20
-376.046
 40
6.723
 50
360.0
 51
17.209
  0
ARC
  8
APS_GEOMETRY
 10
-376.9
 20
-376.046
 40
3.359
 50
337.348
 51
360.0
  0
ARC
  8
APS_GEOMETRY
 10
-375.55
 20
-376.609
 40
1.896
 50
307.042
 51
337.348
  0
ARC
  8
APS_GEOMETRY
 10
-375.784
 20
-376.287
 40
2.295
 50
287.186
 51
306.87
  0
ARC
  8
APS_GEOMETRY
 10
-375.994
 20
-375.61
 40
3.003
 50
270.0
 51
287.186
  0
ARC
  8
APS_GEOMETRY
 10
-375.994
 20
-375.916
 40
2.697
 50
252.221
 51
270.0
  0
ARC
  8
APS_GEOMETRY
 10
-376.119
 20
-376.308
 40
2.286
 50
232.896
 51
252.221
  0
ARC
  8
APS_GEOMETRY
 10
-375.634
 20
-375.666
 40
3.09
 50
218.3
 51
232.896
  0
ARC
  8
APS_GEOMETRY
 10
-371.844
 20
-372.673
 40
7.92
 50
209.197
 51
218.3
  0
ARC
  8
APS_GEOMETRY
 10
-391.121
 20
-383.117
 40
14.006
 50
28.025
 51
32.699
  0
ARC
  8
APS_GEOMETRY
 10
-381.043
 20
-376.647
 40
2.03
 50
32.699
 51
45.0
  0
ARC
  8
APS_GEOMETRY
 10
-380.356
 20
-375.96
 40
1.058
 50
45.0
 51
67.557
  0
ARC
  8
APS_GEOMETRY
 10
-380.36
 20
-375.97
 40
1.069
 50
67.557
 51
90.0
  0
ARC
  8
APS_GEOMETRY
 10
-380.36
 20
-375.885
 40
0.984
 50
90.0
 51
120.801
  0
ARC
  8
APS_GEOMETRY
 10
-380.393
 20
-375.83
 40
0.919
 50
120.801
 51
152.7
  0
ARC
  8
APS_GEOMETRY
 10
-379.664
 20
-376.206
 40
1.74
 50
152.7
 51
171.085
  0
ARC
  8
APS_GEOMETRY
 10
-374.119
 20
-377.076
 40
7.353
 50
171.085
 51
180.0
  0
LINE
  8
APS_GEOMETRY
 10
-381.472
 11
-381.472
 20
-377.076
 21
-386.233
  0
ARC
  8
APS_GEOMETRY
 10
-371.758
 20
-386.233
 40
9.714
 50
180.0
 51
188.194
  0
ARC
  8
APS_GEOMETRY
 10
-379.012
 20
-387.277
 40
2.385
 50
188.194
 51
204.775
  0
ARC
  8
APS_GEOMETRY
 10
-379.717
 20
-387.603
 40
1.609
 50
204.775
 51
228.576
  0
ARC
  8
APS_GEOMETRY
 10
-379.055
 20
-386.853
 40
2.608
 50
228.576
 51
247.218
  0
ARC
  8
APS_GEOMETRY
 10
-382.89
 20
-395.889
 40
7.208
 50
59.381
 51
66.93
  0
ARC
  8
APS_GEOMETRY
 10
-380.059
 20
-391.107
 40
1.65
 50
43.568
 51
59.381
  0
ARC
  8
APS_GEOMETRY
 10
-379.607
 20
-390.676
 40
1.025
 50
19.041
 51
43.568
  0
ARC
  8
APS_GEOMETRY
 10
-380.236
 20
-390.893
 40
1.691
 50
360.0
 51
19.041
  0
ARC
  8
APS_GEOMETRY
 10
-379.918
 20
-390.893
 40
1.374
 50
317.66
 51
360.0
  0
ARC
  8
APS_GEOMETRY
 10
-381.18
 20
-389.744
 40
3.08
 50
289.747
 51
317.66
  0
ARC
  8
APS_GEOMETRY
 10
-382.236
 20
-386.801
 40
6.206
 50
281.964
 51
289.747
  0
ARC
  8
APS_GEOMETRY
 10
-383.699
 20
-379.896
 40
13.265
 50
276.643
 51
281.964
  0
ARC
  8
APS_GEOMETRY
 10
-384.315
 20
-374.608
 40
18.589
 50
272.836
 51
276.643
  0
ARC
  8
APS_GEOMETRY
 10
-385.053
 20
-359.72
 40
33.495
 50
270.0
 51
272.836
  0
ARC
  8
APS_GEOMETRY
 10
-385.053
 20
-350.495
 40
42.72
 50
267.283
 51
270.0
  0
ARC
  8
APS_GEOMETRY
 10
-385.95
 20
-369.396
 40
23.797
 50
263.643
 51
267.283
  0
ARC
  8
APS_GEOMETRY
 10
-386.701
 20
-376.138
 40
17.014
 50
258.563
 51
263.643
  0
ARC
  8
APS_GEOMETRY
 10
-388.495
 20
-385.008
 40
7.964
 50
251.136
 51
258.563
  0
ARC
  8
APS_GEOMETRY
 10
-390.097
 20
-389.654
 40
3.05
 50
222.558
 51
251.395
  0
ARC
  8
APS_GEOMETRY
 10
-391.286
 20
-390.746
 40
1.436
 50
180.0
 51
222.558
  0
ARC
  8
APS_GEOMETRY
 10
-391.526
 20
-390.746
 40
1.196
 50
150.642
 51
180.0
  0
ARC
  8
APS_GEOMETRY
 10
-391.43
 20
-390.8
 40
1.306
 50
122.574
 51
150.642
  0
ARC
  8
APS_GEOMETRY
 10
-391.683
 20
-390.509
 40
0.926
 50
108.677
 51
119.055
  0
ARC
  8
APS_GEOMETRY
 10
-380.126
 20
-424.7
 40
37.018
 50
107.038
 51
108.677
  0
ARC
  8
APS_GEOMETRY
 10
-391.403
 20
-387.819
 40
1.549
 50
286.144
 51
308.66
  0
ARC
  8
APS_GEOMETRY
 10
-391.149
 20
-388.136
 40
1.143
 50
308.66
 51
334.933
  0
ARC
  8
APS_GEOMETRY
 10
-392.181
 20
-387.653
 40
2.283
 50
334.933
 51
348.829
  0
ARC
  8
APS_GEOMETRY
 10
-405.094
 20
-385.103
 40
15.445
 50
348.829
 51
354.161
  0
ARC
  8
APS_GEOMETRY
 10
-413.822
 20
-384.203
 40
24.219
 50
354.144
 51
355.66
  0
ARC
  8
APS_GEOMETRY
 10
-452.511
 20
-381.267
 40
63.019
 50
355.66
 51
356.6
  0
ARC
  8
APS_GEOMETRY
 10
-482.085
 20
-379.51
 40
92.646
 50
356.6
 51
357.24
  0
ARC
  8
APS_GEOMETRY
 10
-565.998
 20
-375.465
 40
176.656
 50
357.24
 51
357.703
  0
ARC
  8
APS_GEOMETRY
 10
-557.737
 20
-375.796
 40
168.389
 50
357.703
 51
358.674
  0
ARC
  8
APS_GEOMETRY
 10
-479.821
 20
-377.599
 40
90.452
 50
358.674
 51
0.0
  0
ARC
  8
APS_GEOMETRY
 10
-402.775
 20
-377.599
 40
13.405
 50
0.0
 51
6.242
  0
ARC
  8
APS_GEOMETRY
 10
-392.115
 20
-376.433
 40
2.682
 50
6.242
 51
20.225
  0
ARC
  8
APS_GEOMETRY
 10
-390.638
 20
-375.889
 40
1.107
 50
20.225
 51
50.44
  0
ARC
  8
APS_GEOMETRY
 10
-390.351
 20
-375.542
 40
0.657
 50
50.44
 51
90.0
  0
ARC
  8
APS_GEOMETRY
 10
-390.351
 20
-375.766
 40
0.881
 50
90.0
 51
126.747
  0
ARC
  8
APS_GEOMETRY
 10
-389.106
 20
-377.433
 40
2.962
 50
126.747
 51
146.547
  0
ARC
  8
APS_GEOMETRY
 10
-411.1
 20
-362.977
 40
23.357
 50
324.255
 51
326.701
  0
ARC
  8
APS_GEOMETRY
 10
-401.788
 20
-369.679
 40
11.885
 50
320.826
 51
324.255
  0
ARC
  8
APS_GEOMETRY
 10
-398.745
 20
-372.159
 40
7.959
 50
315.722
 51
320.826
  0
ARC
  8
APS_GEOMETRY
 10
-395.248
 20
-375.569
 40
3.075
 50
307.504
 51
315.722
  0
ARC
  8
APS_GEOMETRY
 10
-395.57
 20
-375.138
 40
3.613
 50
291.306
 51
307.405
  0
ARC
  8
APS_GEOMETRY
 10
-395.011
 20
-376.572
 40
2.073
 50
270.0
 51
291.306
  0
ARC
  8
APS_GEOMETRY
 10
-395.011
 20
-376.706
 40
1.939
 50
245.532
 51
270.0
  0
ARC
  8
APS_GEOMETRY
 10
-395.026
 20
-376.738
 40
1.904
 50
220.833
 51
245.532
  0
ARC
  8
APS_GEOMETRY
 10
-394.829
 20
-376.568
 40
2.164
 50
198.684
 51
220.833
  0
ARC
  8
APS_GEOMETRY
 10
-394.008
 20
-376.291
 40
3.03
 50
180.0
 51
198.684
  0
ARC
  8
APS_GEOMETRY
 10
-392.085
 20
-376.291
 40
4.954
 50
168.408
 51
180.0
  0
ARC
  8
APS_GEOMETRY
 10
-388.908
 20
-376.942
 40
8.196
 50
159.402
 51
168.408
  0
ARC
  8
APS_GEOMETRY
 10
-387.927
 20
-377.311
 40
9.245
 50
151.39
 51
159.402
  0
ARC
  8
APS_GEOMETRY
 10
-388.128
 20
-377.202
 40
9.016
 50
143.276
 51
151.39
  0
ARC
  8
APS_GEOMETRY
 10
-390.653
 20
-375.314
 40
5.863
 50
124.216
 51
143.31
  0
ARC
  8
APS_GEOMETRY
 10
-392.902
 20
-372.007
 40
1.864
 50
90.0
 51
124.216
  0
ARC
  8
APS_GEOMETRY
 10
-392.902
 20
-372.835
 40
2.692
 50
82.725
 51
90.0
  0
ARC
  8
APS_GEOMETRY
 10
-393.112
 20
-374.483
 40
4.353
 50
77.005
 51
82.725
  0
ARC
  8
APS_GEOMETRY
 10
-386.688
 20
-343.509
 40
27.28
 50
258.486
 51
260.378
  0
ARC
  8
APS_GEOMETRY
 10
-389.44
 20
-359.742
 40
10.816
 50
260.378
 51
263.382
  0
ARC
  8
APS_GEOMETRY
 10
-389.675
 20
-361.771
 40
8.774
 50
263.382
 51
267.084
  0
ARC
  8
APS_GEOMETRY
 10
-389.402
 20
-356.415
 40
14.137
 50
267.084
 51
270.0
  0
ARC
  8
APS_GEOMETRY
 10
-359.539
 20
-382.984
 40
12.891
 50
71.91
 51
90.0
  0
ARC
  8
APS_GEOMETRY
 10
-359.039
 20
-381.456
 40
11.283
 50
52.561
 51
71.91
  0
ARC
  8
APS_GEOMETRY
 10
-359.17
 20
-381.494
 40
11.393
 50
38.846
 51
52.156
  0
ARC
  8
APS_GEOMETRY
 10
-360.956
 20
-382.932
 40
13.686
 50
26.707
 51
38.846
  0
ARC
  8
APS_GEOMETRY
 10
-360.603
 20
-382.644
 40
13.241
 50
13.868
 51
26.278
  0
ARC
  8
APS_GEOMETRY
 10
-358.053
 20
-382.014
 40
10.614
 50
360.0
 51
13.868
  0
ARC
  8
APS_GEOMETRY
 10
-357.888
 20
-382.014
 40
10.449
 50
339.712
 51
360.0
  0
ARC
  8
APS_GEOMETRY
 10
-358.476
 20
-381.797
 40
11.076
 50
320.013
 51
339.712
  0
ARC
  8
APS_GEOMETRY
 10
-358.574
 20
-381.743
 40
11.186
 50
303.344
 51
320.123
  0
ARC
  8
APS_GEOMETRY
 10
-359.721
 20
-379.998
 40
13.274
 50
287.949
 51
303.344
  0
ARC
  8
APS_GEOMETRY
 10
-360.099
 20
-378.691
 40
14.634
 50
279.039
 51
287.776
  0
ARC
  8
APS_GEOMETRY
 10
-359.948
 20
-379.64
 40
13.673
 50
270.0
 51
279.039
  0
ARC
  8
APS_GEOMETRY
 10
-359.948
 20
-380.308
 40
13.005
 50
257.728
 51
270.0
  0
ARC
  8
APS_GEOMETRY
 10
-359.927
 20
-380.214
 40
13.102
 50
245.501
 51
257.728
  0
ARC
  8
APS_GEOMETRY
 10
-360.663
 20
-381.825
 40
11.33
 50
228.665
 51
245.511
  0
ARC
  8
APS_GEOMETRY
 10
-360.908
 20
-382.103
 40
10.959
 50
211.535
 51
228.665
  0
ARC
  8
APS_GEOMETRY
 10
-360.587
 20
-381.868
 40
11.356
 50
195.642
 51
211.701
  0
ARC
  8
APS_GEOMETRY
 10
-360.0
 20
-381.703
 40
11.966
 50
180.0
 51
195.642
  0
ARC
  8
APS_GEOMETRY
 10
-359.875
 20
-381.703
 40
12.091
 50
162.181
 51
180.0
  0
ARC
  8
APS_GEOMETRY
 10
-360.978
 20
-381.349
 40
10.933
 50
143.434
 51
162.181
  0
ARC
  8
APS_GEOMETRY
 10
-361.126
 20
-381.23
 40
10.742
 50
126.384
 51
143.471
  0
ARC
  8
APS_GEOMETRY
 10
-360.109
 20
-382.61
 40
12.457
 50
110.525
 51
126.384
  0
ARC
  8
APS_GEOMETRY
 10
-360.16
 20
-382.235
 40
12.089
 50
99.77
 51
110.925
  0
ARC
  8
APS_GEOMETRY
 10
-359.539
 20
-385.841
 40
15.748
 50
90.0
 51
99.77
  0
ARC
  8
APS_GEOMETRY
 10
-361.092
 20
-377.19
 40
2.404
 50
90.0
 51
119.604
  0
ARC
  8
APS_GEOMETRY
 10
-360.882
 20
-377.561
 40
2.83
 50
119.604
 51
146.842
  0
ARC
  8
APS_GEOMETRY
 10
-360.459
 20
-377.908
 40
3.374
 50
145.84
 51
164.055
  0
ARC
  8
APS_GEOMETRY
 10
-359.478
 20
-378.188
 40
4.394
 50
164.055
 51
180.0
  0
ARC
  8
APS_GEOMETRY
 10
-353.346
 20
-378.188
 40
10.526
 50
180.0
 51
189.977
  0
ARC
  8
APS_GEOMETRY
 10
-344.02
 20
-376.547
 40
19.995
 50
189.977
 51
197.211
  0
ARC
  8
APS_GEOMETRY
 10
-341.98
 20
-375.915
 40
22.131
 50
197.211
 51
203.76
  0
ARC
  8
APS_GEOMETRY
 10
-347.061
 20
-378.152
 40
16.579
 50
203.76
 51
211.329
  0
ARC
  8
APS_GEOMETRY
 10
-357.496
 20
-384.414
 40
4.411
 50
212.32
 51
224.441
  0
ARC
  8
APS_GEOMETRY
 10
-357.923
 20
-384.834
 40
3.812
 50
224.441
 51
237.484
  0
ARC
  8
APS_GEOMETRY
 10
-358.2
 20
-385.267
 40
3.298
 50
237.484
 51
252.416
  0
ARC
  8
APS_GEOMETRY
 10
-358.476
 20
-386.139
 40
2.383
 50
252.416
 51
270.0
  0
ARC
  8
APS_GEOMETRY
 10
-358.476
 20
-385.856
 40
2.666
 50
270.0
 51
294.953
  0
ARC
  8
APS_GEOMETRY
 10
-358.401
 20
-386.017
 40
2.489
 50
294.953
 51
320.793
  0
ARC
  8
APS_GEOMETRY
 10
-358.802
 20
-385.69
 40
3.005
 50
320.793
 51
342.777
  0
ARC
  8
APS_GEOMETRY
 10
-360.585
 20
-385.137
 40
4.873
 50
342.777
 51
0.0
  0
ARC
  8
APS_GEOMETRY
 10
-368.966
 20
-385.137
 40
13.254
 50
0.0
 51
8.499
  0
ARC
  8
APS_GEOMETRY
 10
-374.8
 20
-386.009
 40
19.152
 50
8.499
 51
15.566
  0
ARC
  8
APS_GEOMETRY
 10
-374.098
 20
-385.814
 40
18.424
 50
15.566
 51
22.909
  0
ARC
  8
APS_GEOMETRY
 10
-368.066
 20
-383.264
 40
11.876
 50
22.909
 51
32.057
  0
ARC
  8
APS_GEOMETRY
 10
-363.329
 20
-380.28
 40
6.276
 50
31.921
 51
42.51
  0
ARC
  8
APS_GEOMETRY
 10
-362.027
 20
-379.087
 40
4.511
 50
42.51
 51
55.008
  0
ARC
  8
APS_GEOMETRY
 10
-361.588
 20
-378.459
 40
3.745
 50
55.008
 51
69.88
  0
ARC
  8
APS_GEOMETRY
 10
-361.194
 20
-377.384
 40
2.599
 50
69.88
 51
87.754
  0
ARC
  8
APS_GEOMETRY
 10
-335.328
 20
-378.085
 40
7.992
 50
83.923
 51
90.0
  0
ARC
  8
APS_GEOMETRY
 10
-335.971
 20
-384.123
 40
14.063
 50
79.342
 51
83.923
  0
ARC
  8
APS_GEOMETRY
 10
-336.747
 20
-388.243
 40
18.256
 50
75.808
 51
79.342
  0
ARC
  8
APS_GEOMETRY
 10
-339.452
 20
-398.94
 40
29.29
 50
73.018
 51
75.808
  0
ARC
  8
APS_GEOMETRY
 10
-329.926
 20
-367.694
 40
3.376
 50
253.288
 51
259.046
  0
ARC
  8
APS_GEOMETRY
 10
-330.39
 20
-370.091
 40
0.935
 50
259.046
 51
270.0
  0
ARC
  8
APS_GEOMETRY
 10
-330.39
 20
-370.471
 40
0.555
 50
270.0
 51
286.699
  0
ARC
  8
APS_GEOMETRY
 10
-334.827
 20
-355.682
 40
15.995
 50
286.699
 51
289.799
  0
ARC
  8
APS_GEOMETRY
 10
-328.882
 20
-372.137
 40
1.501
 50
100.008
 51
110.556
  0
ARC
  8
APS_GEOMETRY
 10
-328.853
 20
-372.3
 40
1.667
 50
90.0
 51
100.008
  0
ARC
  8
APS_GEOMETRY
 10
-328.853
 20
-372.223
 40
1.59
 50
53.356
 51
90.0
  0
ARC
  8
APS_GEOMETRY
 10
-331.63
 20
-375.956
 40
6.242
 50
35.101
 51
53.356
  0
ARC
  8
APS_GEOMETRY
 10
-333.015
 20
-376.93
 40
7.936
 50
20.245
 51
35.101
  0
ARC
  8
APS_GEOMETRY
 10
-329.599
 20
-375.67
 40
4.294
 50
360.0
 51
20.245
  0
ARC
  8
APS_GEOMETRY
 10
-327.88
 20
-375.67
 40
2.575
 50
340.481
 51
360.0
  0
ARC
  8
APS_GEOMETRY
 10
-327.456
 20
-375.82
 40
2.125
 50
318.972
 51
340.481
  0
ARC
  8
APS_GEOMETRY
 10
-327.266
 20
-375.985
 40
1.874
 50
295.017
 51
318.972
  0
ARC
  8
APS_GEOMETRY
 10
-327.202
 20
-376.124
 40
1.721
 50
270.0
 51
295.017
  0
ARC
  8
APS_GEOMETRY
 10
-327.202
 20
-375.202
 40
2.643
 50
256.171
 51
270.0
  0
ARC
  8
APS_GEOMETRY
 10
-327.49
 20
-376.372
 40
1.437
 50
237.381
 51
256.171
  0
ARC
  8
APS_GEOMETRY
 10
-326.979
 20
-375.575
 40
2.384
 50
231.559
 51
237.381
  0
ARC
  8
APS_GEOMETRY
 10
-319.558
 20
-366.225
 40
14.321
 50
229.185
 51
231.559
  0
ARC
  8
APS_GEOMETRY
 10
-311.604
 20
-357.016
 40
26.49
 50
227.9
 51
229.185
  0
ARC
  8
APS_GEOMETRY
 10
-284.078
 20
-326.551
 40
67.548
 50
227.095
 51
227.9
  0
ARC
  8
APS_GEOMETRY
 10
-335.759
 20
-382.132
 40
8.348
 50
46.975
 51
64.612
  0
ARC
  8
APS_GEOMETRY
 10
-333.922
 20
-378.261
 40
4.063
 50
64.612
 51
90.0
  0
ARC
  8
APS_GEOMETRY
 10
-333.922
 20
-377.126
 40
2.928
 50
90.0
 51
106.966
  0
ARC
  8
APS_GEOMETRY
 10
-334.261
 20
-376.014
 40
1.766
 50
106.966
 51
128.868
  0
ARC
  8
APS_GEOMETRY
 10
-334.458
 20
-375.77
 40
1.453
 50
128.868
 51
154.741
  0
ARC
  8
APS_GEOMETRY
 10
-334.394
 20
-375.8
 40
1.523
 50
154.741
 51
180.0
  0
ARC
  8
APS_GEOMETRY
 10
-334.487
 20
-375.8
 40
1.43
 50
180.0
 51
206.64
  0
ARC
  8
APS_GEOMETRY
 10
-334.026
 20
-375.57
 40
1.945
 50
206.64
 51
229.43
  0
ARC
  8
APS_GEOMETRY
 10
-333.289
 20
-374.708
 40
3.08
 50
229.43
 51
244.493
  0
ARC
  8
APS_GEOMETRY
 10
-331.266
 20
-370.468
 40
7.777
 50
244.493
 51
253.956
  0
ARC
  8
APS_GEOMETRY
 10
-367.301
 20
-492.933
 40
119.879
 50
72.737
 51
73.58
  0
ARC
  8
APS_GEOMETRY
 10
-346.649
 20
-426.475
 40
50.287
 50
71.435
 51
72.737
  0
ARC
  8
APS_GEOMETRY
 10
-339.809
 20
-406.108
 40
28.801
 50
69.164
 51
71.435
  0
ARC
  8
APS_GEOMETRY
 10
-331.737
 20
-384.897
 40
6.106
 50
64.231
 51
69.164
  0
ARC
  8
APS_GEOMETRY
 10
-332.665
 20
-386.766
 40
8.193
 50
34.939
 51
64.068
  0
ARC
  8
APS_GEOMETRY
 10
-330.661
 20
-385.366
 40
5.749
 50
360.0
 51
34.939
  0
ARC
  8
APS_GEOMETRY
 10
-331.893
 20
-385.366
 40
6.981
 50
333.435
 51
360.0
  0
ARC
  8
APS_GEOMETRY
 10
-332.349
 20
-385.138
 40
7.491
 50
307.807
 51
333.435
  0
ARC
  8
APS_GEOMETRY
 10
-333.537
 20
-383.602
 40
9.433
 50
296.732
 51
307.786
  0
ARC
  8
APS_GEOMETRY
 10
-334.24
 20
-382.207
 40
10.995
 50
286.496
 51
296.732
  0
ARC
  8
APS_GEOMETRY
 10
-334.703
 20
-380.644
 40
12.625
 50
277.544
 51
286.496
  0
ARC
  8
APS_GEOMETRY
 10
-335.377
 20
-375.548
 40
17.765
 50
270.0
 51
277.544
  0
ARC
  8
APS_GEOMETRY
 10
-335.377
 20
-374.778
 40
18.535
 50
263.555
 51
270.0
  0
ARC
  8
APS_GEOMETRY
 10
-334.777
 20
-369.466
 40
23.881
 50
257.878
 51
263.555
  0
ARC
  8
APS_GEOMETRY
 10
-335.096
 20
-370.949
 40
22.364
 50
254.839
 51
257.878
  0
ARC
  8
APS_GEOMETRY
 10
-337.679
 20
-380.482
 40
12.487
 50
250.772
 51
254.839
  0
ARC
  8
APS_GEOMETRY
 10
-338.841
 20
-383.814
 40
8.959
 50
245.121
 51
250.772
  0
ARC
  8
APS_GEOMETRY
 10
-340.808
 20
-388.055
 40
4.284
 50
236.944
 51
245.121
  0
ARC
  8
APS_GEOMETRY
 10
-341.968
 20
-389.88
 40
2.122
 50
211.802
 51
236.31
  0
ARC
  8
APS_GEOMETRY
 10
-336.455
 20
-386.462
 40
8.608
 50
199.704
 51
211.802
  0
ARC
  8
APS_GEOMETRY
 10
-333.823
 20
-385.519
 40
11.404
 50
190.413
 51
199.704
  0
ARC
  8
APS_GEOMETRY
 10
-336.104
 20
-385.938
 40
9.084
 50
180.0
 51
190.413
  0
ARC
  8
APS_GEOMETRY
 10
-342.254
 20
-385.938
 40
2.934
 50
164.876
 51
180.0
  0
ARC
  8
APS_GEOMETRY
 10
-343.907
 20
-385.492
 40
1.222
 50
141.34
 51
164.876
  0
ARC
  8
APS_GEOMETRY
 10
-343.747
 20
-385.599
 40
1.414
 50
116.928
 51
142.001
  0
ARC
  8
APS_GEOMETRY
 10
-343.831
 20
-385.434
 40
1.229
 50
90.0
 51
116.928
  0
ARC
  8
APS_GEOMETRY
 10
-343.831
 20
-385.437
 40
1.232
 50
62.21
 51
90.0
  0
ARC
  8
APS_GEOMETRY
 10
-344.323
 20
-386.37
 40
2.287
 50
41.906
 51
62.21
  0
ARC
  8
APS_GEOMETRY
 10
-344.24
 20
-386.388
 40
2.237
 50
37.313
 51
43.668
  0
ARC
  8
APS_GEOMETRY
 10
-356.773
 20
-395.941
 40
17.997
 50
35.074
 51
37.313
  0
ARC
  8
APS_GEOMETRY
 10
-371.007
 20
-405.934
 40
35.389
 50
33.934
 51
35.074
  0
ARC
  8
APS_GEOMETRY
 10
-421.756
 20
-440.079
 40
96.555
 50
33.243
 51
33.934
  0
ARC
  8
APS_GEOMETRY
 10
-338.196
 20
-385.294
 40
3.363
 50
213.453
 51
231.637
  0
ARC
  8
APS_GEOMETRY
 10
-336.607
 20
-383.287
 40
5.924
 50
231.637
 51
245.313
  0
ARC
  8
APS_GEOMETRY
 10
-336.257
 20
-382.525
 40
6.762
 50
245.313
 51
257.398
  0
ARC
  8
APS_GEOMETRY
 10
-336.375
 20
-383.053
 40
6.222
 50
257.398
 51
270.0
  0
ARC
  8
APS_GEOMETRY
 10
-336.375
 20
-384.021
 40
5.253
 50
270.0
 51
282.907
  0
ARC
  8
APS_GEOMETRY
 10
-335.81
 20
-386.488
 40
2.722
 50
282.907
 51
300.872
  0
ARC
  8
APS_GEOMETRY
 10
-335.319
 20
-387.308
 40
1.767
 50
300.872
 51
326.876
  0
ARC
  8
APS_GEOMETRY
 10
-334.761
 20
-387.672
 40
1.101
 50
326.876
 51
0.0
  0
ARC
  8
APS_GEOMETRY
 10
-334.926
 20
-387.672
 40
1.266
 50
0.0
 51
27.553
  0
ARC
  8
APS_GEOMETRY
 10
-335.326
 20
-387.881
 40
1.717
 50
27.553
 51
51.147
  0
ARC
  8
APS_GEOMETRY
 10
-336.154
 20
-388.908
 40
3.036
 50
51.147
 51
65.225
  0
ARC
  8
APS_GEOMETRY
 10
-339.205
 20
-395.519
 40
10.318
 50
65.225
 51
72.848
  0
ARC
  8
APS_GEOMETRY
 10
-321.384
 20
-338.7
 40
49.231
 50
251.106
 51
252.532
  0
ARC
  8
APS_GEOMETRY
 10
-327.693
 20
-357.131
 40
29.751
 50
249.271
 51
251.106
  0
ARC
  8
APS_GEOMETRY
 10
-330.315
 20
-364.06
 40
22.341
 50
246.83
 51
249.271
  0
ARC
  8
APS_GEOMETRY
 10
-334.557
 20
-373.971
 40
11.56
 50
243.435
 51
246.83
  0
ARC
  8
APS_GEOMETRY
 10
-335.04
 20
-374.937
 40
10.481
 50
235.981
 51
243.435
  0
ARC
  8
APS_GEOMETRY
 10
-334.669
 20
-374.388
 40
11.144
 50
228.752
 51
235.981
  0
ARC
  8
APS_GEOMETRY
 10
-336.406
 20
-376.435
 40
8.459
 50
206.421
 51
228.457
  0
ARC
  8
APS_GEOMETRY
 10
-338.683
 20
-377.566
 40
5.916
 50
180.0
 51
206.421
  0
ARC
  8
APS_GEOMETRY
 10
-338.576
 20
-377.566
 40
6.024
 50
166.555
 51
180.0
  0
ARC
  8
APS_GEOMETRY
 10
-337.878
 20
-377.733
 40
6.741
 50
153.848
 51
166.555
  0
ARC
  8
APS_GEOMETRY
 10
-337.82
 20
-377.762
 40
6.806
 50
141.244
 51
153.848
  0
ARC
  8
APS_GEOMETRY
 10
-337.39
 20
-378.107
 40
7.357
 50
129.123
 51
141.244
  0
ARC
  8
APS_GEOMETRY
 10
-336.014
 20
-379.57
 40
9.362
 50
108.978
 51
130.006
  0
ARC
  8
APS_GEOMETRY
 10
-335.328
 20
-381.564
 40
11.47
 50
90.0
 51
108.978
  0
ARC
  8
APS_GEOMETRY
 10
-310.333
 20
-380.726
 40
10.632
 50
77.257
 51
90.0
  0
ARC
  8
APS_GEOMETRY
 10
-310.441
 20
-381.203
 40
11.122
 50
64.799
 51
77.257
  0
ARC
  8
APS_GEOMETRY
 10
-301.282
 20
-361.704
 40
10.421
 50
244.885
 51
251.175
  0
ARC
  8
APS_GEOMETRY
 10
-304.267
 20
-370.458
 40
1.173
 50
251.175
 51
270.0
  0
ARC
  8
APS_GEOMETRY
 10
-304.267
 20
-369.727
 40
1.903
 50
270.0
 51
278.82
  0
ARC
  8
APS_GEOMETRY
 10
-305.496
 20
-361.804
 40
9.922
 50
278.82
 51
282.68
  0
ARC
  8
APS_GEOMETRY
 10
-302.923
 20
-373.194
 40
1.755
 50
95.906
 51
102.995
  0
ARC
  8
APS_GEOMETRY
 10
-302.844
 20
-373.962
 40
2.528
 50
90.0
 51
95.906
  0
ARC
  8
APS_GEOMETRY
 10
-302.844
 20
-373.112
 40
1.678
 50
62.447
 51
90.0
  0
ARC
  8
APS_GEOMETRY
 10
-303.142
 20
-373.684
 40
2.323
 50
39.094
 51
62.447
  0
ARC
  8
APS_GEOMETRY
 10
-306.259
 20
-376.291
 40
6.386
 50
18.435
 51
39.611
  0
ARC
  8
APS_GEOMETRY
 10
-308.173
 20
-376.929
 40
8.403
 50
360.0
 51
18.435
  0
ARC
  8
APS_GEOMETRY
 10
-303.936
 20
-376.929
 40
4.167
 50
334.877
 51
360.0
  0
ARC
  8
APS_GEOMETRY
 10
-302.683
 20
-377.516
 40
2.783
 50
304.007
 51
334.877
  0
ARC
  8
APS_GEOMETRY
 10
-302.704
 20
-377.457
 40
2.843
 50
286.39
 51
303.69
  0
ARC
  8
APS_GEOMETRY
 10
-302.795
 20
-377.148
 40
3.165
 50
270.0
 51
286.39
  0
ARC
  8
APS_GEOMETRY
 10
-302.795
 20
-377.185
 40
3.128
 50
255.155
 51
270.0
  0
ARC
  8
APS_GEOMETRY
 10
-303.138
 20
-378.478
 40
1.791
 50
235.491
 51
255.155
  0
ARC
  8
APS_GEOMETRY
 10
-302.966
 20
-378.228
 40
2.094
 50
218.48
 51
235.491
  0
ARC
  8
APS_GEOMETRY
 10
-300.155
 20
-375.994
 40
5.684
 50
208.179
 51
218.48
  0
ARC
  8
APS_GEOMETRY
 10
-328.967
 20
-391.634
 40
27.099
 50
28.56
 51
31.664
  0
ARC
  8
APS_GEOMETRY
 10
-311.361
 20
-380.775
 40
6.414
 50
31.664
 51
38.047
  0
ARC
  8
APS_GEOMETRY
 10
-310.081
 20
-379.773
 40
4.788
 50
38.047
 51
46.56
  0
ARC
  8
APS_GEOMETRY
 10
-310.747
 20
-380.476
 40
5.756
 50
46.56
 51
54.324
  0
ARC
  8
APS_GEOMETRY
 10
-311.131
 20
-381.137
 40
6.517
 50
54.968
 51
71.48
  0
ARC
  8
APS_GEOMETRY
 10
-310.709
 20
-379.878
 40
5.19
 50
71.48
 51
90.0
  0
ARC
  8
APS_GEOMETRY
 10
-310.709
 20
-378.314
 40
3.625
 50
90.0
 51
114.63
  0
ARC
  8
APS_GEOMETRY
 10
-310.891
 20
-377.917
 40
3.188
 50
114.63
 51
140.921
  0
ARC
  8
APS_GEOMETRY
 10
-310.353
 20
-378.353
 40
3.881
 50
140.921
 51
163.13
  0
ARC
  8
APS_GEOMETRY
 10
-307.665
 20
-379.169
 40
6.691
 50
163.13
 51
180.0
  0
ARC
  8
APS_GEOMETRY
 10
-304.178
 20
-379.169
 40
10.178
 50
180.0
 51
195.44
  0
ARC
  8
APS_GEOMETRY
 10
-304.707
 20
-379.315
 40
9.629
 50
195.44
 51
211.316
  0
ARC
  8
APS_GEOMETRY
 10
-307.252
 20
-380.81
 40
6.678
 50
211.708
 51
240.457
  0
ARC
  8
APS_GEOMETRY
 10
-307.422
 20
-381.111
 40
6.332
 50
240.457
 51
270.0
  0
ARC
  8
APS_GEOMETRY
 10
-307.422
 20
-379.567
 40
7.875
 50
270.0
 51
279.549
  0
ARC
  8
APS_GEOMETRY
 10
-307.52
 20
-378.985
 40
8.466
 50
279.549
 51
288.759
  0
ARC
  8
APS_GEOMETRY
 10
-307.108
 20
-380.201
 40
7.182
 50
288.759
 51
299.545
  0
ARC
  8
APS_GEOMETRY
 10
-305.453
 20
-383.12
 40
3.826
 50
299.545
 51
314.341
  0
ARC
  8
APS_GEOMETRY
 10
-300.335
 20
-388.436
 40
3.553
 50
120.141
 51
133.452
  0
ARC
  8
APS_GEOMETRY
 10
-301.765
 20
-385.974
 40
0.706
 50
90.0
 51
120.141
  0
ARC
  8
APS_GEOMETRY
 10
-301.765
 20
-386.383
 40
1.115
 50
61.952
 51
90.0
  0
ARC
  8
APS_GEOMETRY
 10
-301.931
 20
-386.694
 40
1.468
 50
37.569
 51
61.952
  0
ARC
  8
APS_GEOMETRY
 10
-302.24
 20
-386.933
 40
1.859
 50
17.665
 51
37.569
  0
ARC
  8
APS_GEOMETRY
 10
-302.713
 20
-387.083
 40
2.354
 50
360.0
 51
17.665
  0
ARC
  8
APS_GEOMETRY
 10
-303.899
 20
-387.083
 40
3.54
 50
344.932
 51
360.0
  0
ARC
  8
APS_GEOMETRY
 10
-307.048
 20
-386.235
 40
6.801
 50
334.075
 51
344.932
  0
ARC
  8
APS_GEOMETRY
 10
-307.147
 20
-386.187
 40
6.912
 50
323.374
 51
334.075
  0
ARC
  8
APS_GEOMETRY
 10
-305.115
 20
-387.698
 40
4.38
 50
309.92
 51
323.374
  0
ARC
  8
APS_GEOMETRY
 10
-303.084
 20
-390.093
 40
1.24
 50
289.026
 51
308.991
  0
ARC
  8
APS_GEOMETRY
 10
-305.251
 20
-383.81
 40
7.886
 50
281.143
 51
289.026
  0
ARC
  8
APS_GEOMETRY
 10
-303.054
 20
-395.201
 40
3.715
 50
100.437
 51
110.12
  0
ARC
  8
APS_GEOMETRY
 10
-300.143
 20
-403.146
 40
12.177
 50
110.12
 51
115.463
  0
ARC
  8
APS_GEOMETRY
 10
-310.534
 20
-381.406
 40
11.919
 50
282.94
 51
295.628
  0
ARC
  8
APS_GEOMETRY
 10
-310.431
 20
-381.853
 40
11.46
 50
270.0
 51
282.94
  0
ARC
  8
APS_GEOMETRY
 10
-310.431
 20
-381.176
 40
12.137
 50
257.307
 51
270.0
  0
ARC
  8
APS_GEOMETRY
 10
-309.919
 20
-378.901
 40
14.469
 50
245.686
 51
257.307
  0
ARC
  8
APS_GEOMETRY
 10
-311.204
 20
-381.722
 40
11.37
 50
228.801
 51
245.735
  0
ARC
  8
APS_GEOMETRY
 10
-311.182
 20
-381.697
 40
11.402
 50
211.891
 51
228.801
  0
ARC
  8
APS_GEOMETRY
 10
-310.509
 20
-381.212
 40
12.231
 50
196.728
 51
212.152
  0
ARC
  8
APS_GEOMETRY
 10
-312.252
 20
-381.736
 40
10.41
 50
180.0
 51
196.728
  0
ARC
  8
APS_GEOMETRY
 10
-311.999
 20
-381.736
 40
10.663
 50
161.184
 51
180.0
  0
ARC
  8
APS_GEOMETRY
 10
-311.315
 20
-381.969
 40
11.386
 50
142.98
 51
161.184
  0
ARC
  8
APS_GEOMETRY
 10
-310.783
 20
-382.376
 40
12.056
 50
127.824
 51
142.958
  0
ARC
  8
APS_GEOMETRY
 10
-309.906
 20
-383.506
 40
13.486
 50
113.52
 51
127.824
  0
ARC
  8
APS_GEOMETRY
 10
-310.191
 20
-382.846
 40
12.768
 50
101.927
 51
113.527
  0
ARC
  8
APS_GEOMETRY
 10
-310.333
 20
-382.174
 40
12.08
 50
90.0
 51
101.927
  0
ARC
  8
APS_GEOMETRY
 10
-285.093
 20
-382.984
 40
12.891
 50
71.91
 51
90.0
  0
ARC
  8
APS_GEOMETRY
 10
-284.593
 20
-381.456
 40
11.283
 50
52.561
 51
71.91
  0
ARC
  8
APS_GEOMETRY
 10
-284.724
 20
-381.494
 40
11.393
 50
38.846
 51
52.156
  0
ARC
  8
APS_GEOMETRY
 10
-286.51
 20
-382.932
 40
13.686
 50
26.707
 51
38.846
  0
ARC
  8
APS_GEOMETRY
 10
-286.157
 20
-382.644
 40
13.241
 50
13.868
 51
26.278
  0
ARC
  8
APS_GEOMETRY
 10
-283.607
 20
-382.014
 40
10.614
 50
360.0
 51
13.868
  0
ARC
  8
APS_GEOMETRY
 10
-283.442
 20
-382.014
 40
10.449
 50
339.712
 51
360.0
  0
ARC
  8
APS_GEOMETRY
 10
-284.03
 20
-381.797
 40
11.076
 50
320.013
 51
339.712
  0
ARC
  8
APS_GEOMETRY
 10
-284.127
 20
-381.743
 40
11.186
 50
303.344
 51
320.123
  0
ARC
  8
APS_GEOMETRY
 10
-285.275
 20
-379.998
 40
13.274
 50
287.949
 51
303.344
  0
ARC
  8
APS_GEOMETRY
 10
-285.652
 20
-378.691
 40
14.634
 50
279.039
 51
287.776
  0
ARC
  8
APS_GEOMETRY
 10
-285.501
 20
-379.64
 40
13.673
 50
270.0
 51
279.039
  0
ARC
  8
APS_GEOMETRY
 10
-285.501
 20
-380.308
 40
13.005
 50
257.728
 51
270.0
  0
ARC
  8
APS_GEOMETRY
 10
-285.481
 20
-380.214
 40
13.102
 50
245.501
 51
257.728
  0
ARC
  8
APS_GEOMETRY
 10
-286.217
 20
-381.825
 40
11.33
 50
228.665
 51
245.511
  0
ARC
  8
APS_GEOMETRY
 10
-286.462
 20
-382.103
 40
10.959
 50
211.535
 51
228.665
  0
ARC
  8
APS_GEOMETRY
 10
-286.141
 20
-381.868
 40
11.356
 50
195.642
 51
211.701
  0
ARC
  8
APS_GEOMETRY
 10
-285.554
 20
-381.703
 40
11.966
 50
180.0
 51
195.642
  0
ARC
  8
APS_GEOMETRY
 10
-285.428
 20
-381.703
 40
12.091
 50
162.181
 51
180.0
  0
ARC
  8
APS_GEOMETRY
 10
-286.532
 20
-381.349
 40
10.933
 50
143.434
 51
162.181
  0
ARC
  8
APS_GEOMETRY
 10
-286.68
 20
-381.23
 40
10.742
 50
126.384
 51
143.471
  0
ARC
  8
APS_GEOMETRY
 10
-285.663
 20
-382.61
 40
12.457
 50
110.525
 51
126.384
  0
ARC
  8
APS_GEOMETRY
 10
-285.713
 20
-382.235
 40
12.089
 50
99.77
 51
110.925
  0
ARC
  8
APS_GEOMETRY
 10
-285.093
 20
-385.841
 40
15.748
 50
90.0
 51
99.77
  0
ARC
  8
APS_GEOMETRY
 10
-286.646
 20
-377.19
 40
2.404
 50
90.0
 51
119.604
  0
ARC
  8
APS_GEOMETRY
 10
-286.435
 20
-377.561
 40
2.83
 50
119.604
 51
146.842
  0
ARC
  8
APS_GEOMETRY
 10
-286.012
 20
-377.908
 40
3.374
 50
145.84
 51
164.055
  0
ARC
  8
APS_GEOMETRY
 10
-285.032
 20
-378.188
 40
4.394
 50
164.055
 51
180.0
  0
ARC
  8
APS_GEOMETRY
 10
-278.899
 20
-378.188
 40
10.526
 50
180.0
 51
189.977
  0
ARC
  8
APS_GEOMETRY
 10
-269.574
 20
-376.547
 40
19.995
 50
189.977
 51
197.211
  0
ARC
  8
APS_GEOMETRY
 10
-267.534
 20
-375.915
 40
22.131
 50
197.211
 51
203.76
  0
ARC
  8
APS_GEOMETRY
 10
-272.615
 20
-378.152
 40
16.579
 50
203.76
 51
211.329
  0
ARC
  8
APS_GEOMETRY
 10
-283.049
 20
-384.414
 40
4.411
 50
212.32
 51
224.441
  0
ARC
  8
APS_GEOMETRY
 10
-283.477
 20
-384.834
 40
3.812
 50
224.441
 51
237.484
  0
ARC
  8
APS_GEOMETRY
 10
-283.753
 20
-385.267
 40
3.298
 50
237.484
 51
252.416
  0
ARC
  8
APS_GEOMETRY
 10
-284.03
 20
-386.139
 40
2.383
 50
252.416
 51
270.0
  0
ARC
  8
APS_GEOMETRY
 10
-284.03
 20
-385.856
 40
2.666
 50
270.0
 51
294.953
  0
ARC
  8
APS_GEOMETRY
 10
-283.955
 20
-386.017
 40
2.489
 50
294.953
 51
320.793
  0
ARC
  8
APS_GEOMETRY
 10
-284.355
 20
-385.69
 40
3.005
 50
320.793
 51
342.777
  0
ARC
  8
APS_GEOMETRY
 10
-286.139
 20
-385.137
 40
4.873
 50
342.777
 51
0.0
  0
ARC
  8
APS_GEOMETRY
 10
-294.52
 20
-385.137
 40
13.254
 50
0.0
 51
8.499
  0
ARC
  8
APS_GEOMETRY
 10
-300.353
 20
-386.009
 40
19.152
 50
8.499
 51
15.566
  0
ARC
  8
APS_GEOMETRY
 10
-299.652
 20
-385.814
 40
18.424
 50
15.566
 51
22.909
  0
ARC
  8
APS_GEOMETRY
 10
-293.62
 20
-383.264
 40
11.876
 50
22.909
 51
32.057
  0
ARC
  8
APS_GEOMETRY
 10
-288.882
 20
-380.28
 40
6.276
 50
31.921
 51
42.51
  0
ARC
  8
APS_GEOMETRY
 10
-287.581
 20
-379.087
 40
4.511
 50
42.51
 51
55.008
  0
ARC
  8
APS_GEOMETRY
 10
-287.142
 20
-378.459
 40
3.745
 50
55.008
 51
69.88
  0
ARC
  8
APS_GEOMETRY
 10
-286.748
 20
-377.384
 40
2.599
 50
69.88
 51
87.754
  0
ARC
  8
APS_GEOMETRY
 10
-258.413
 20
-380.726
 40
10.632
 50
77.257
 51
90.0
  0
ARC
  8
APS_GEOMETRY
 10
-258.521
 20
-381.203
 40
11.122
 50
64.799
 51
77.257
  0
ARC
  8
APS_GEOMETRY
 10
-249.362
 20
-361.704
 40
10.421
 50
244.885
 51
251.175
  0
ARC
  8
APS_GEOMETRY
 10
-252.347
 20
-370.458
 40
1.173
 50
251.175
 51
270.0
  0
ARC
  8
APS_GEOMETRY
 10
-252.347
 20
-369.727
 40
1.903
 50
270.0
 51
278.82
  0
ARC
  8
APS_GEOMETRY
 10
-253.576
 20
-361.804
 40
9.922
 50
278.82
 51
282.68
  0
ARC
  8
APS_GEOMETRY
 10
-251.003
 20
-373.194
 40
1.755
 50
95.906
 51
102.995
  0
ARC
  8
APS_GEOMETRY
 10
-250.924
 20
-373.962
 40
2.528
 50
90.0
 51
95.906
  0
ARC
  8
APS_GEOMETRY
 10
-250.924
 20
-373.112
 40
1.678
 50
62.447
 51
90.0
  0
ARC
  8
APS_GEOMETRY
 10
-251.222
 20
-373.684
 40
2.323
 50
39.094
 51
62.447
  0
ARC
  8
APS_GEOMETRY
 10
-254.339
 20
-376.291
 40
6.386
 50
18.435
 51
39.611
  0
ARC
  8
APS_GEOMETRY
 10
-256.253
 20
-376.929
 40
8.403
 50
360.0
 51
18.435
  0
ARC
  8
APS_GEOMETRY
 10
-252.016
 20
-376.929
 40
4.167
 50
334.877
 51
360.0
  0
ARC
  8
APS_GEOMETRY
 10
-250.763
 20
-377.516
 40
2.783
 50
304.007
 51
334.877
  0
ARC
  8
APS_GEOMETRY
 10
-250.784
 20
-377.457
 40
2.843
 50
286.39
 51
303.69
  0
ARC
  8
APS_GEOMETRY
 10
-250.875
 20
-377.148
 40
3.165
 50
270.0
 51
286.39
  0
ARC
  8
APS_GEOMETRY
 10
-250.875
 20
-377.185
 40
3.128
 50
255.155
 51
270.0
  0
ARC
  8
APS_GEOMETRY
 10
-251.218
 20
-378.478
 40
1.791
 50
235.491
 51
255.155
  0
ARC
  8
APS_GEOMETRY
 10
-251.046
 20
-378.228
 40
2.094
 50
218.48
 51
235.491
  0
ARC
  8
APS_GEOMETRY
 10
-248.235
 20
-375.994
 40
5.684
 50
208.179
 51
218.48
  0
ARC
  8
APS_GEOMETRY
 10
-277.047
 20
-391.634
 40
27.099
 50
28.56
 51
31.664
  0
ARC
  8
APS_GEOMETRY
 10
-259.441
 20
-380.775
 40
6.414
 50
31.664
 51
38.047
  0
ARC
  8
APS_GEOMETRY
 10
-258.161
 20
-379.773
 40
4.788
 50
38.047
 51
46.56
  0
ARC
  8
APS_GEOMETRY
 10
-258.827
 20
-380.476
 40
5.756
 50
46.56
 51
54.324
  0
ARC
  8
APS_GEOMETRY
 10
-259.211
 20
-381.137
 40
6.517
 50
54.968
 51
71.48
  0
ARC
  8
APS_GEOMETRY
 10
-258.789
 20
-379.878
 40
5.19
 50
71.48
 51
90.0
  0
ARC
  8
APS_GEOMETRY
 10
-258.789
 20
-378.314
 40
3.625
 50
90.0
 51
114.63
  0
ARC
  8
APS_GEOMETRY
 10
-258.971
 20
-377.917
 40
3.188
 50
114.63
 51
140.921
  0
ARC
  8
APS_GEOMETRY
 10
-258.433
 20
-378.353
 40
3.881
 50
140.921
 51
163.13
  0
ARC
  8
APS_GEOMETRY
 10
-255.745
 20
-379.169
 40
6.691
 50
163.13
 51
180.0
  0
ARC
  8
APS_GEOMETRY
 10
-252.258
 20
-379.169
 40
10.178
 50
180.0
 51
195.44
  0
ARC
  8
APS_GEOMETRY
 10
-252.787
 20
-379.315
 40
9.629
 50
195.44
 51
211.316
  0
ARC
  8
APS_GEOMETRY
 10
-255.331
 20
-380.81
 40
6.678
 50
211.708
 51
240.457
  0
ARC
  8
APS_GEOMETRY
 10
-255.502
 20
-381.111
 40
6.332
 50
240.457
 51
270.0
  0
ARC
  8
APS_GEOMETRY
 10
-255.502
 20
-379.567
 40
7.875
 50
270.0
 51
279.549
  0
ARC
  8
APS_GEOMETRY
 10
-255.6
 20
-378.985
 40
8.466
 50
279.549
 51
288.759
  0
ARC
  8
APS_GEOMETRY
 10
-255.188
 20
-380.201
 40
7.182
 50
288.759
 51
299.545
  0
ARC
  8
APS_GEOMETRY
 10
-253.533
 20
-383.12
 40
3.826
 50
299.545
 51
314.341
  0
ARC
  8
APS_GEOMETRY
 10
-248.415
 20
-388.436
 40
3.553
 50
120.141
 51
133.452
  0
ARC
  8
APS_GEOMETRY
 10
-249.845
 20
-385.974
 40
0.706
 50
90.0
 51
120.141
  0
ARC
  8
APS_GEOMETRY
 10
-249.845
 20
-386.383
 40
1.115
 50
61.952
 51
90.0
  0
ARC
  8
APS_GEOMETRY
 10
-250.011
 20
-386.694
 40
1.468
 50
37.569
 51
61.952
  0
ARC
  8
APS_GEOMETRY
 10
-250.32
 20
-386.933
 40
1.859
 50
17.665
 51
37.569
  0
ARC
  8
APS_GEOMETRY
 10
-250.793
 20
-387.083
 40
2.354
 50
360.0
 51
17.665
  0
ARC
  8
APS_GEOMETRY
 10
-251.979
 20
-387.083
 40
3.54
 50
344.932
 51
360.0
  0
ARC
  8
APS_GEOMETRY
 10
-255.128
 20
-386.235
 40
6.801
 50
334.075
 51
344.932
  0
ARC
  8
APS_GEOMETRY
 10
-255.227
 20
-386.187
 40
6.912
 50
323.374
 51
334.075
  0
ARC
  8
APS_GEOMETRY
 10
-253.195
 20
-387.698
 40
4.38
 50
309.92
 51
323.374
  0
ARC
  8
APS_GEOMETRY
 10
-251.164
 20
-390.093
 40
1.24
 50
289.026
 51
308.991
  0
ARC
  8
APS_GEOMETRY
 10
-253.331
 20
-383.81
 40
7.886
 50
281.143
 51
289.026
  0
ARC
  8
APS_GEOMETRY
 10
-251.134
 20
-395.201
 40
3.715
 50
100.437
 51
110.12
  0
ARC
  8
APS_GEOMETRY
 10
-248.223
 20
-403.146
 40
12.177
 50
110.12
 51
115.463
  0
ARC
  8
APS_GEOMETRY
 10
-258.614
 20
-381.406
 40
11.919
 50
282.94
 51
295.628
  0
ARC
  8
APS_GEOMETRY
 10
-258.511
 20
-381.853
 40
11.46
 50
270.0
 51
282.94
  0
ARC
  8
APS_GEOMETRY
 10
-258.511
 20
-381.176
 40
12.137
 50
257.307
 51
270.0
  0
ARC
  8
APS_GEOMETRY
 10
-257.999
 20
-378.901
 40
14.469
 50
245.686
 51
257.307
  0
ARC
  8
APS_GEOMETRY
 10
-259.284
 20
-381.722
 40
11.37
 50
228.801
 51
245.735
  0
ARC
  8
APS_GEOMETRY
 10
-259.262
 20
-381.697
 40
11.402
 50
211.891
 51
228.801
  0
ARC
  8
APS_GEOMETRY
 10
-258.589
 20
-381.212
 40
12.231
 50
196.728
 51
212.152
  0
ARC
  8
APS_GEOMETRY
 10
-260.332
 20
-381.736
 40
10.41
 50
180.0
 51
196.728
  0
ARC
  8
APS_GEOMETRY
 10
-260.079
 20
-381.736
 40
10.663
 50
161.184
 51
180.0
  0
ARC
  8
APS_GEOMETRY
 10
-259.395
 20
-381.969
 40
11.386
 50
142.98
 51
161.184
  0
ARC
  8
APS_GEOMETRY
 10
-258.863
 20
-382.376
 40
12.056
 50
127.824
 51
142.958
  0
ARC
  8
APS_GEOMETRY
 10
-257.986
 20
-383.506
 40
13.486
 50
113.52
 51
127.824
  0
ARC
  8
APS_GEOMETRY
 10
-258.271
 20
-382.846
 40
12.768
 50
101.927
 51
113.527
  0
ARC
  8
APS_GEOMETRY
 10
-258.413
 20
-382.174
 40
12.08
 50
90.0
 51
101.927
  0
ARC
  8
APS_GEOMETRY
 10
-233.172
 20
-382.984
 40
12.891
 50
71.91
 51
90.0
  0
ARC
  8
APS_GEOMETRY
 10
-232.673
 20
-381.456
 40
11.283
 50
52.561
 51
71.91
  0
ARC
  8
APS_GEOMETRY
 10
-232.804
 20
-381.494
 40
11.393
 50
38.846
 51
52.156
  0
ARC
  8
APS_GEOMETRY
 10
-234.59
 20
-382.932
 40
13.686
 50
26.707
 51
38.846
  0
ARC
  8
APS_GEOMETRY
 10
-234.236
 20
-382.644
 40
13.241
 50
13.868
 51
26.278
  0
ARC
  8
APS_GEOMETRY
 10
-231.687
 20
-382.014
 40
10.614
 50
360.0
 51
13.868
  0
ARC
  8
APS_GEOMETRY
 10
-231.522
 20
-382.014
 40
10.449
 50
339.712
 51
360.0
  0
ARC
  8
APS_GEOMETRY
 10
-232.11
 20
-381.797
 40
11.076
 50
320.013
 51
339.712
  0
ARC
  8
APS_GEOMETRY
 10
-232.207
 20
-381.743
 40
11.186
 50
303.344
 51
320.123
  0
ARC
  8
APS_GEOMETRY
 10
-233.355
 20
-379.998
 40
13.274
 50
287.949
 51
303.344
  0
ARC
  8
APS_GEOMETRY
 10
-233.732
 20
-378.691
 40
14.634
 50
279.039
 51
287.776
  0
ARC
  8
APS_GEOMETRY
 10
-233.581
 20
-379.64
 40
13.673
 50
270.0
 51
279.039
  0
ARC
  8
APS_GEOMETRY
 10
-233.581
 20
-380.308
 40
13.005
 50
257.728
 51
270.0
  0
ARC
  8
APS_GEOMETRY
 10
-233.561
 20
-380.214
 40
13.102
 50
245.501
 51
257.728
  0
ARC
  8
APS_GEOMETRY
 10
-234.297
 20
-381.825
 40
11.33
 50
228.665
 51
245.511
  0
ARC
  8
APS_GEOMETRY
 10
-234.542
 20
-382.103
 40
10.959
 50
211.535
 51
228.665
  0
ARC
  8
APS_GEOMETRY
 10
-234.221
 20
-381.868
 40
11.356
 50
195.642
 51
211.701
  0
ARC
  8
APS_GEOMETRY
 10
-233.634
 20
-381.703
 40
11.966
 50
180.0
 51
195.642
  0
ARC
  8
APS_GEOMETRY
 10
-233.508
 20
-381.703
 40
12.091
 50
162.181
 51
180.0
  0
ARC
  8
APS_GEOMETRY
 10
-234.612
 20
-381.349
 40
10.933
 50
143.434
 51
162.181
  0
ARC
  8
APS_GEOMETRY
 10
-234.76
 20
-381.23
 40
10.742
 50
126.384
 51
143.471
  0
ARC
  8
APS_GEOMETRY
 10
-233.743
 20
-382.61
 40
12.457
 50
110.525
 51
126.384
  0
ARC
  8
APS_GEOMETRY
 10
-233.793
 20
-382.235
 40
12.089
 50
99.77
 51
110.925
  0
ARC
  8
APS_GEOMETRY
 10
-233.172
 20
-385.841
 40
15.748
 50
90.0
 51
99.77
  0
ARC
  8
APS_GEOMETRY
 10
-234.726
 20
-377.19
 40
2.404
 50
90.0
 51
119.604
  0
ARC
  8
APS_GEOMETRY
 10
-234.515
 20
-377.561
 40
2.83
 50
119.604
 51
146.842
  0
ARC
  8
APS_GEOMETRY
 10
-234.092
 20
-377.908
 40
3.374
 50
145.84
 51
164.055
  0
ARC
  8
APS_GEOMETRY
 10
-233.112
 20
-378.188
 40
4.394
 50
164.055
 51
180.0
  0
ARC
  8
APS_GEOMETRY
 10
-226.979
 20
-378.188
 40
10.526
 50
180.0
 51
189.977
  0
ARC
  8
APS_GEOMETRY
 10
-217.654
 20
-376.547
 40
19.995
 50
189.977
 51
197.211
  0
ARC
  8
APS_GEOMETRY
 10
-215.614
 20
-375.915
 40
22.131
 50
197.211
 51
203.76
  0
ARC
  8
APS_GEOMETRY
 10
-220.695
 20
-378.152
 40
16.579
 50
203.76
 51
211.329
  0
ARC
  8
APS_GEOMETRY
 10
-231.129
 20
-384.414
 40
4.411
 50
212.32
 51
224.441
  0
ARC
  8
APS_GEOMETRY
 10
-231.557
 20
-384.834
 40
3.812
 50
224.441
 51
237.484
  0
ARC
  8
APS_GEOMETRY
 10
-231.833
 20
-385.267
 40
3.298
 50
237.484
 51
252.416
  0
ARC
  8
APS_GEOMETRY
 10
-232.11
 20
-386.139
 40
2.383
 50
252.416
 51
270.0
  0
ARC
  8
APS_GEOMETRY
 10
-232.11
 20
-385.856
 40
2.666
 50
270.0
 51
294.953
  0
ARC
  8
APS_GEOMETRY
 10
-232.035
 20
-386.017
 40
2.489
 50
294.953
 51
320.793
  0
ARC
  8
APS_GEOMETRY
 10
-232.435
 20
-385.69
 40
3.005
 50
320.793
 51
342.777
  0
ARC
  8
APS_GEOMETRY
 10
-234.219
 20
-385.137
 40
4.873
 50
342.777
 51
0.0
  0
ARC
  8
APS_GEOMETRY
 10
-242.6
 20
-385.137
 40
13.254
 50
0.0
 51
8.499
  0
ARC
  8
APS_GEOMETRY
 10
-248.433
 20
-386.009
 40
19.152
 50
8.499
 51
15.566
  0
ARC
  8
APS_GEOMETRY
 10
-247.732
 20
-385.814
 40
18.424
 50
15.566
 51
22.909
  0
ARC
  8
APS_GEOMETRY
 10
-241.7
 20
-383.264
 40
11.876
 50
22.909
 51
32.057
  0
ARC
  8
APS_GEOMETRY
 10
-236.962
 20
-380.28
 40
6.276
 50
31.921
 51
42.51
  0
ARC
  8
APS_GEOMETRY
 10
-235.661
 20
-379.087
 40
4.511
 50
42.51
 51
55.008
  0
ARC
  8
APS_GEOMETRY
 10
-235.222
 20
-378.459
 40
3.745
 50
55.008
 51
69.88
  0
ARC
  8
APS_GEOMETRY
 10
-234.828
 20
-377.384
 40
2.599
 50
69.88
 51
87.754
  0
ARC
  8
APS_GEOMETRY
 10
-207.916
 20
-384.696
 40
1.21
 50
90.0
 51
115.837
  0
ARC
  8
APS_GEOMETRY
 10
-208.213
 20
-384.08
 40
0.526
 50
115.837
 51
155.462
  0
ARC
  8
APS_GEOMETRY
 10
-207.866
 20
-384.239
 40
0.909
 50
155.462
 51
168.366
  0
ARC
  8
APS_GEOMETRY
 10
-204.693
 20
-384.892
 40
4.148
 50
168.366
 51
174.395
  0
ARC
  8
APS_GEOMETRY
 10
-201.495
 20
-385.206
 40
7.361
 50
174.395
 51
177.813
  0
ARC
  8
APS_GEOMETRY
 10
-190.881
 20
-385.611
 40
17.983
 50
177.813
 51
180.0
  0
ARC
  8
APS_GEOMETRY
 10
-183.197
 20
-385.611
 40
25.667
 50
180.0
 51
184.62
  0
ARC
  8
APS_GEOMETRY
 10
-200.407
 20
-387.002
 40
8.401
 50
184.62
 51
192.7
  0
ARC
  8
APS_GEOMETRY
 10
-207.042
 20
-388.459
 40
1.609
 50
194.036
 51
205.821
  0
ARC
  8
APS_GEOMETRY
 10
-207.744
 20
-388.799
 40
0.828
 50
205.821
 51
222.274
  0
ARC
  8
APS_GEOMETRY
 10
-207.529
 20
-388.603
 40
1.119
 50
222.274
 51
234.605
  0
ARC
  8
APS_GEOMETRY
 10
-205.099
 20
-385.183
 40
5.315
 50
234.605
 51
240.255
  0
ARC
  8
APS_GEOMETRY
 10
-208.793
 20
-391.72
 40
2.194
 50
34.592
 51
61.189
  0
ARC
  8
APS_GEOMETRY
 10
-208.068
 20
-391.22
 40
1.313
 50
360.0
 51
34.592
  0
ARC
  8
APS_GEOMETRY
 10
-208.024
 20
-391.22
 40
1.27
 50
318.231
 51
360.0
  0
ARC
  8
APS_GEOMETRY
 10
-208.873
 20
-390.462
 40
2.408
 50
288.227
 51
318.231
  0
ARC
  8
APS_GEOMETRY
 10
-209.754
 20
-387.788
 40
5.223
 50
280.377
 51
288.227
  0
ARC
  8
APS_GEOMETRY
 10
-211.289
 20
-379.406
 40
13.744
 50
275.541
 51
280.377
  0
ARC
  8
APS_GEOMETRY
 10
-211.95
 20
-372.587
 40
20.595
 50
272.304
 51
275.541
  0
ARC
  8
APS_GEOMETRY
 10
-212.756
 20
-352.569
 40
40.629
 50
270.0
 51
272.304
  0
ARC
  8
APS_GEOMETRY
 10
-212.756
 20
-369.299
 40
23.9
 50
262.811
 51
270.0
  0
ARC
  8
APS_GEOMETRY
 10
-214.9
 20
-386.302
 40
6.762
 50
249.274
 51
262.811
  0
ARC
  8
APS_GEOMETRY
 10
-216.249
 20
-389.867
 40
2.95
 50
221.379
 51
249.274
  0
ARC
  8
APS_GEOMETRY
 10
-217.433
 20
-390.909
 40
1.373
 50
180.0
 51
221.379
  0
ARC
  8
APS_GEOMETRY
 10
-217.442
 20
-390.909
 40
1.364
 50
164.055
 51
180.0
  0
ARC
  8
APS_GEOMETRY
 10
-218.01
 20
-390.747
 40
0.773
 50
142.815
 51
164.055
  0
ARC
  8
APS_GEOMETRY
 10
-217.652
 20
-391.018
 40
1.222
 50
129.007
 51
142.815
  0
ARC
  8
APS_GEOMETRY
 10
-213.256
 20
-396.446
 40
8.206
 50
123.69
 51
129.007
  0
ARC
  8
APS_GEOMETRY
 10
-219.495
 20
-387.059
 40
3.064
 50
303.389
 51
319.022
  0
ARC
  8
APS_GEOMETRY
 10
-218.665
 20
-387.779
 40
1.966
 50
319.022
 51
338.575
  0
ARC
  8
APS_GEOMETRY
 10
-219.775
 20
-387.344
 40
3.158
 50
338.575
 51
351.049
  0
ARC
  8
APS_GEOMETRY
 10
-233.178
 20
-385.233
 40
16.726
 50
351.049
 51
356.46
  0
ARC
  8
APS_GEOMETRY
 10
-228.76
 20
-385.401
 40
12.307
 50
355.972
 51
358.68
  0
ARC
  8
APS_GEOMETRY
 10
-373.856
 20
-382.058
 40
157.441
 50
358.68
 51
359.437
  0
LINE
  8
APS_GEOMETRY
 10
-216.423
 11
-216.407
 20
-383.604
 21
-381.148
  0
LINE
  8
APS_GEOMETRY
 10
-216.407
 11
-216.402
 20
-381.148
 21
-377.942
  0
ARC
  8
APS_GEOMETRY
 10
-254.307
 20
-377.942
 40
37.905
 50
360.0
 51
1.717
  0
ARC
  8
APS_GEOMETRY
 10
-234.022
 20
-377.334
 40
17.611
 50
1.717
 51
4.236
  0
ARC
  8
APS_GEOMETRY
 10
-227.408
 20
-376.844
 40
10.979
 50
4.236
 51
8.269
  0
ARC
  8
APS_GEOMETRY
 10
-219.796
 20
-375.738
 40
3.287
 50
8.269
 51
15.642
  0
ARC
  8
APS_GEOMETRY
 10
-218.486
 20
-375.371
 40
1.926
 50
15.642
 51
39.417
  0
ARC
  8
APS_GEOMETRY
 10
-218.457
 20
-375.347
 40
1.888
 50
39.417
 51
63.435
  0
ARC
  8
APS_GEOMETRY
 10
-215.056
 20
-368.302
 40
5.935
 50
236.874
 51
244.486
  0
ARC
  8
APS_GEOMETRY
 10
-217.586
 20
-372.179
 40
1.306
 50
220.601
 51
236.874
  0
ARC
  8
APS_GEOMETRY
 10
-217.876
 20
-372.428
 40
0.923
 50
198.246
 51
220.601
  0
ARC
  8
APS_GEOMETRY
 10
-217.442
 20
-372.285
 40
1.38
 50
180.0
 51
198.246
  0
ARC
  8
APS_GEOMETRY
 10
-217.448
 20
-372.285
 40
1.374
 50
156.161
 51
180.0
  0
ARC
  8
APS_GEOMETRY
 10
-217.257
 20
-372.369
 40
1.583
 50
133.977
 51
156.161
  0
ARC
  8
APS_GEOMETRY
 10
-216.875
 20
-372.765
 40
2.133
 50
116.996
 51
133.977
  0
ARC
  8
APS_GEOMETRY
 10
-216.117
 20
-374.254
 40
3.804
 50
104.3
 51
116.996
  0
ARC
  8
APS_GEOMETRY
 10
-215.921
 20
-375.007
 40
4.582
 50
95.326
 51
104.349
  0
ARC
  8
APS_GEOMETRY
 10
-215.127
 20
-383.524
 40
13.136
 50
90.0
 51
95.326
  0
ARC
  8
APS_GEOMETRY
 10
-215.127
 20
-376.894
 40
6.506
 50
87.553
 51
90.0
  0
ARC
  8
APS_GEOMETRY
 10
-216.511
 20
-409.288
 40
38.93
 50
86.553
 51
87.553
  0
ARC
  8
APS_GEOMETRY
 10
-218.479
 20
-441.962
 40
71.662
 50
86.009
 51
86.553
  0
ARC
  8
APS_GEOMETRY
 10
-226.133
 20
-551.668
 40
181.636
 50
85.668
 51
86.009
  0
ARC
  8
APS_GEOMETRY
 10
-211.809
 20
-363.013
 40
7.563
 50
265.426
 51
268.531
  0
ARC
  8
APS_GEOMETRY
 10
-211.137
 20
-336.791
 40
33.793
 50
268.531
 51
270.0
  0
ARC
  8
APS_GEOMETRY
 10
-211.137
 20
-344.829
 40
25.755
 50
270.0
 51
271.637
  0
ARC
  8
APS_GEOMETRY
 10
-211.712
 20
-324.687
 40
45.906
 50
271.637
 51
272.862
  0
ARC
  8
APS_GEOMETRY
 10
-212.373
 20
-311.472
 40
59.137
 50
272.862
 51
273.814
  0
ARC
  8
APS_GEOMETRY
 10
-214.61
 20
-277.92
 40
92.764
 50
273.814
 51
274.574
  0
ARC
  8
APS_GEOMETRY
 10
-200.579
 20
-460.415
 40
90.271
 50
93.72
 51
94.214
  0
ARC
  8
APS_GEOMETRY
 10
-203.573
 20
-414.356
 40
44.115
 50
93.013
 51
93.72
  0
ARC
  8
APS_GEOMETRY
 10
-204.394
 20
-398.758
 40
28.496
 50
91.918
 51
93.013
  0
ARC
  8
APS_GEOMETRY
 10
-205.038
 20
-379.551
 40
9.277
 50
90.0
 51
91.918
  0
ARC
  8
APS_GEOMETRY
 10
-205.038
 20
-382.328
 40
12.054
 50
73.82
 51
90.0
  0
ARC
  8
APS_GEOMETRY
 10
-203.85
 20
-378.233
 40
7.791
 50
53.658
 51
73.82
  0
ARC
  8
APS_GEOMETRY
 10
-202.16
 20
-375.923
 40
4.929
 50
26.03
 51
53.569
  0
ARC
  8
APS_GEOMETRY
 10
-202.678
 20
-376.176
 40
5.506
 50
360.0
 51
26.03
  0
ARC
  8
APS_GEOMETRY
 10
-202.894
 20
-376.176
 40
5.722
 50
345.282
 51
360.0
  0
ARC
  8
APS_GEOMETRY
 10
-202.344
 20
-376.321
 40
5.152
 50
329.767
 51
345.282
  0
ARC
  8
APS_GEOMETRY
 10
-202.032
 20
-376.503
 40
4.792
 50
313.168
 51
329.767
  0
ARC
  8
APS_GEOMETRY
 10
-201.916
 20
-376.626
 40
4.623
 50
296.267
 51
313.168
  0
ARC
  8
APS_GEOMETRY
 10
-199.285
 20
-381.943
 40
1.31
 50
116.565
 51
139.899
  0
ARC
  8
APS_GEOMETRY
 10
-199.938
 20
-381.393
 40
0.456
 50
139.899
 51
180.0
  0
ARC
  8
APS_GEOMETRY
 10
-199.887
 20
-381.393
 40
0.506
 50
180.0
 51
226.193
  0
ARC
  8
APS_GEOMETRY
 10
-198.952
 20
-380.417
 40
1.858
 50
226.193
 51
249.829
  0
ARC
  8
APS_GEOMETRY
 10
-201.633
 20
-387.798
 40
5.995
 50
53.249
 51
70.105
  0
ARC
  8
APS_GEOMETRY
 10
-200.415
 20
-386.167
 40
3.96
 50
32.471
 51
53.249
  0
ARC
  8
APS_GEOMETRY
 10
-200.982
 20
-386.529
 40
4.632
 50
23.305
 51
32.471
  0
ARC
  8
APS_GEOMETRY
 10
-204.487
 20
-388.038
 40
8.449
 50
16.521
 51
23.305
  0
ARC
  8
APS_GEOMETRY
 10
-207.22
 20
-388.849
 40
11.299
 50
11.429
 51
16.521
  0
ARC
  8
APS_GEOMETRY
 10
-214.965
 20
-390.415
 40
19.201
 50
7.524
 51
11.429
  0
ARC
  8
APS_GEOMETRY
 10
-189.301
 20
-386.997
 40
6.69
 50
187.765
 51
196.914
  0
ARC
  8
APS_GEOMETRY
 10
-194.773
 20
-388.661
 40
0.971
 50
196.914
 51
221.082
  0
ARC
  8
APS_GEOMETRY
 10
-194.752
 20
-388.642
 40
0.999
 50
221.082
 51
244.607
  0
ARC
  8
APS_GEOMETRY
 10
-192.415
 20
-383.72
 40
6.448
 50
244.607
 51
253.811
  0
ARC
  8
APS_GEOMETRY
 10
-194.469
 20
-390.725
 40
0.852
 50
51.45
 51
72.474
  0
ARC
  8
APS_GEOMETRY
 10
-194.68
 20
-390.989
 40
1.191
 50
33.69
 51
51.45
  0
ARC
  8
APS_GEOMETRY
 10
-194.73
 20
-391.022
 40
1.25
 50
16.639
 51
33.69
  0
ARC
  8
APS_GEOMETRY
 10
-194.789
 20
-391.04
 40
1.312
 50
360.0
 51
16.639
  0
ARC
  8
APS_GEOMETRY
 10
-194.808
 20
-391.04
 40
1.331
 50
338.993
 51
360.0
  0
ARC
  8
APS_GEOMETRY
 10
-195.62
 20
-390.728
 40
2.201
 50
322.696
 51
338.993
  0
ARC
  8
APS_GEOMETRY
 10
-195.923
 20
-390.497
 40
2.582
 50
308.603
 51
322.696
  0
ARC
  8
APS_GEOMETRY
 10
-196.131
 20
-390.237
 40
2.916
 50
295.346
 51
308.603
  0
ARC
  8
APS_GEOMETRY
 10
-197.227
 20
-387.823
 40
5.566
 50
279.583
 51
294.905
  0
ARC
  8
APS_GEOMETRY
 10
-198.66
 20
-379.333
 40
14.176
 50
270.0
 51
279.583
  0
ARC
  8
APS_GEOMETRY
 10
-198.66
 20
-383.173
 40
10.336
 50
261.247
 51
270.0
  0
ARC
  8
APS_GEOMETRY
 10
-199.323
 20
-387.474
 40
5.985
 50
249.737
 51
261.247
  0
ARC
  8
APS_GEOMETRY
 10
-199.758
 20
-388.653
 40
4.728
 50
235.345
 51
249.737
  0
ARC
  8
APS_GEOMETRY
 10
-200.307
 20
-389.448
 40
3.762
 50
219.198
 51
235.345
  0
ARC
  8
APS_GEOMETRY
 10
-199.151
 20
-388.461
 40
5.281
 50
209.076
 51
219.56
  0
ARC
  8
APS_GEOMETRY
 10
-196.48
 20
-386.977
 40
8.337
 50
200.735
 51
209.076
  0
ARC
  8
APS_GEOMETRY
 10
-192.796
 20
-385.582
 40
12.277
 50
197.881
 51
200.735
  0
ARC
  8
APS_GEOMETRY
 10
-177.655
 20
-380.697
 40
28.186
 50
195.997
 51
197.881
  0
ARC
  8
APS_GEOMETRY
 10
-166.464
 20
-377.488
 40
39.828
 50
194.664
 51
195.997
  0
ARC
  8
APS_GEOMETRY
 10
-135.466
 20
-369.377
 40
71.869
 50
193.671
 51
194.664
  0
ARC
  8
APS_GEOMETRY
 10
-214.072
 20
-388.487
 40
9.026
 50
13.61
 51
23.585
  0
ARC
  8
APS_GEOMETRY
 10
-208.162
 20
-385.907
 40
2.577
 50
23.585
 51
42.31
  0
ARC
  8
APS_GEOMETRY
 10
-207.626
 20
-385.42
 40
1.853
 50
42.31
 51
67.521
  0
ARC
  8
APS_GEOMETRY
 10
-208.05
 20
-386.445
 40
2.962
 50
67.521
 51
87.397
  0
LINE
  8
APS_GEOMETRY
 10
-208.848
 11
-209.027
 20
-375.146
 21
-378.956
  0
LINE
  8
APS_GEOMETRY
 10
-209.027
 11
-209.027
 20
-378.956
 21
-379.018
  0
LINE
  8
APS_GEOMETRY
 10
-209.027
 11
-209.027
 20
-379.018
 21
-379.103
  0
ARC
  8
APS_GEOMETRY
 10
-206.38
 20
-379.103
 40
2.647
 50
180.0
 51
192.339
  0
ARC
  8
APS_GEOMETRY
 10
-208.485
 20
-379.564
 40
0.493
 50
192.339
 51
221.186
  0
ARC
  8
APS_GEOMETRY
 10
-208.535
 20
-379.608
 40
0.426
 50
221.186
 51
253.872
  0
ARC
  8
APS_GEOMETRY
 10
-208.177
 20
-378.37
 40
1.715
 50
253.872
 51
270.0
  0
ARC
  8
APS_GEOMETRY
 10
-208.177
 20
-376.099
 40
3.985
 50
270.0
 51
289.569
  0
ARC
  8
APS_GEOMETRY
 10
-207.453
 20
-378.137
 40
1.822
 50
289.569
 51
318.681
  0
ARC
  8
APS_GEOMETRY
 10
-207.649
 20
-377.965
 40
2.083
 50
318.681
 51
344.628
  0
ARC
  8
APS_GEOMETRY
 10
-211.3
 20
-376.961
 40
5.87
 50
344.628
 51
0.0
  0
ARC
  8
APS_GEOMETRY
 10
-209.564
 20
-376.961
 40
4.134
 50
0.0
 51
35.369
  0
ARC
  8
APS_GEOMETRY
 10
-207.67
 20
-375.617
 40
1.812
 50
35.369
 51
90.0
  0
ARC
  8
APS_GEOMETRY
 10
-207.67
 20
-375.637
 40
1.831
 50
90.0
 51
108.435
  0
ARC
  8
APS_GEOMETRY
 10
-208.027
 20
-374.568
 40
0.705
 50
108.435
 51
138.366
  0
ARC
  8
APS_GEOMETRY
 10
-207.931
 20
-374.653
 40
0.833
 50
138.366
 51
164.291
  0
ARC
  8
APS_GEOMETRY
 10
-205.688
 20
-375.284
 40
3.162
 50
164.291
 51
177.51
  0
LINE
  8
APS_GEOMETRY
 10
-179.738
 11
-171.595
 20
-371.336
 21
-378.466
  0
ARC
  8
APS_GEOMETRY
 10
-163.979
 20
-369.726
 40
11.592
 50
228.93
 51
232.674
  0
ARC
  8
APS_GEOMETRY
 10
-168.216
 20
-375.282
 40
4.605
 50
232.674
 51
238.617
  0
ARC
  8
APS_GEOMETRY
 10
-169.282
 20
-377.03
 40
2.558
 50
238.617
 51
249.131
  0
ARC
  8
APS_GEOMETRY
 10
-169.96
 20
-378.808
 40
0.655
 50
249.131
 51
270.0
  0
ARC
  8
APS_GEOMETRY
 10
-169.96
 20
-378.889
 40
0.574
 50
270.0
 51
334.898
  0
ARC
  8
APS_GEOMETRY
 10
-172.609
 20
-377.648
 40
3.499
 50
334.898
 51
0.0
  0
ARC
  8
APS_GEOMETRY
 10
-198.225
 20
-377.648
 40
29.115
 50
0.0
 51
2.026
  0
ARC
  8
APS_GEOMETRY
 10
-182.781
 20
-377.102
 40
13.662
 50
2.026
 51
4.984
  0
ARC
  8
APS_GEOMETRY
 10
-177.732
 20
-376.661
 40
8.593
 50
4.984
 51
9.673
  0
ARC
  8
APS_GEOMETRY
 10
-171.912
 20
-375.669
 40
2.689
 50
9.673
 51
18.06
  0
ARC
  8
APS_GEOMETRY
 10
-171.026
 20
-375.38
 40
1.758
 50
18.06
 51
42.397
  0
ARC
  8
APS_GEOMETRY
 10
-171.312
 20
-375.642
 40
2.145
 50
42.397
 51
64.398
  0
ARC
  8
APS_GEOMETRY
 10
-168.7
 20
-370.249
 40
3.847
 50
233.633
 51
244.026
  0
ARC
  8
APS_GEOMETRY
 10
-170.123
 20
-372.18
 40
1.448
 50
216.656
 51
233.633
  0
ARC
  8
APS_GEOMETRY
 10
-170.341
 20
-372.343
 40
1.176
 50
196.082
 51
216.656
  0
ARC
  8
APS_GEOMETRY
 10
-169.629
 20
-372.138
 40
1.917
 50
180.0
 51
196.082
  0
ARC
  8
APS_GEOMETRY
 10
-170.152
 20
-372.138
 40
1.394
 50
133.202
 51
180.0
  0
ARC
  8
APS_GEOMETRY
 10
-169.053
 20
-373.308
 40
3.0
 50
101.788
 51
133.202
  0
ARC
  8
APS_GEOMETRY
 10
-168.796
 20
-374.456
 40
4.176
 50
96.633
 51
102.011
  0
ARC
  8
APS_GEOMETRY
 10
-167.867
 20
-382.451
 40
12.225
 50
93.489
 51
96.633
  0
ARC
  8
APS_GEOMETRY
 10
-167.469
 20
-388.98
 40
18.766
 50
91.439
 51
93.489
  0
ARC
  8
APS_GEOMETRY
 10
-166.984
 20
-408.277
 40
38.069
 50
90.0
 51
91.439
  0
ARC
  8
APS_GEOMETRY
 10
-166.984
 20
-405.69
 40
35.482
 50
87.994
 51
90.0
  0
ARC
  8
APS_GEOMETRY
 10
-166.339
 20
-387.27
 40
17.05
 50
85.101
 51
87.994
  0
ARC
  8
APS_GEOMETRY
 10
-165.815
 20
-381.162
 40
10.92
 50
80.595
 51
85.101
  0
ARC
  8
APS_GEOMETRY
 10
-164.621
 20
-373.955
 40
3.615
 50
72.759
 51
80.595
  0
ARC
  8
APS_GEOMETRY
 10
-164.26
 20
-372.835
 40
2.438
 50
40.956
 51
73.072
  0
ARC
  8
APS_GEOMETRY
 10
-163.57
 20
-372.236
 40
1.524
 50
360.0
 51
40.956
  0
ARC
  8
APS_GEOMETRY
 10
-163.478
 20
-372.236
 40
1.432
 50
322.573
 51
360.0
  0
ARC
  8
APS_GEOMETRY
 10
-164.231
 20
-371.66
 40
2.38
 50
293.749
 51
322.573
  0
ARC
  8
APS_GEOMETRY
 10
-161.208
 20
-378.6
 40
5.19
 50
113.429
 51
119.291
  0
ARC
  8
APS_GEOMETRY
 10
-163.228
 20
-375.0
 40
1.062
 50
119.291
 51
132.274
  0
ARC
  8
APS_GEOMETRY
 10
-163.344
 20
-374.872
 40
0.889
 50
132.274
 51
147.653
  0
ARC
  8
APS_GEOMETRY
 10
-162.503
 20
-375.405
 40
1.884
 50
147.653
 51
158.199
  0
ARC
  8
APS_GEOMETRY
 10
-161.224
 20
-375.944
 40
3.273
 50
157.751
 51
167.885
  0
ARC
  8
APS_GEOMETRY
 10
-154.414
 20
-377.406
 40
10.238
 50
167.885
 51
173.61
  0
ARC
  8
APS_GEOMETRY
 10
-148.39
 20
-378.081
 40
16.299
 50
173.61
 51
177.221
  0
ARC
  8
APS_GEOMETRY
 10
-129.813
 20
-378.982
 40
34.899
 50
177.221
 51
179.689
  0
LINE
  8
APS_GEOMETRY
 10
-164.711
 11
-164.711
 20
-378.793
 21
-384.123
  0
ARC
  8
APS_GEOMETRY
 10
52.972
 20
-384.123
 40
217.683
 50
180.0
 51
180.161
  0
ARC
  8
APS_GEOMETRY
 10
241.881
 20
-383.591
 40
406.593
 50
180.161
 51
180.279
  0
LINE
  8
APS_GEOMETRY
 10
-164.707
 11
-164.702
 20
-385.575
 21
-386.469
  0
LINE
  8
APS_GEOMETRY
 10
-164.702
 11
-164.695
 20
-386.469
 21
-387.475
  0
ARC
  8
APS_GEOMETRY
 10
-203.537
 20
-387.696
 40
38.843
 50
358.204
 51
0.326
  0
ARC
  8
APS_GEOMETRY
 10
-185.059
 20
-388.276
 40
20.356
 50
355.274
 51
358.204
  0
ARC
  8
APS_GEOMETRY
 10
-178.628
 20
-388.807
 40
13.903
 50
350.991
 51
355.274
  0
ARC
  8
APS_GEOMETRY
 10
-170.439
 20
-390.106
 40
5.612
 50
344.249
 51
350.991
  0
ARC
  8
APS_GEOMETRY
 10
-167.671
 20
-390.896
 40
2.733
 50
314.415
 51
344.445
  0
ARC
  8
APS_GEOMETRY
 10
-166.657
 20
-391.931
 40
1.284
 50
270.0
 51
314.415
  0
ARC
  8
APS_GEOMETRY
 10
-166.657
 20
-391.135
 40
2.08
 50
256.342
 51
270.0
  0
ARC
  8
APS_GEOMETRY
 10
-166.805
 20
-391.745
 40
1.452
 50
239.982
 51
256.342
  0
ARC
  8
APS_GEOMETRY
 10
-166.158
 20
-390.625
 40
2.746
 50
231.153
 51
239.982
  0
ARC
  8
APS_GEOMETRY
 10
-155.284
 20
-377.122
 40
20.083
 50
227.891
 51
231.153
  0
LINE
  8
APS_GEOMETRY
 10
-168.75
 11
-178.446
 20
-392.021
 21
-383.339
  0
ARC
  8
APS_GEOMETRY
 10
-182.182
 20
-387.474
 40
5.573
 50
47.911
 51
61.468
  0
ARC
  8
APS_GEOMETRY
 10
-180.131
 20
-383.701
 40
1.278
 50
61.468
 51
90.0
  0
ARC
  8
APS_GEOMETRY
 10
-180.131
 20
-382.983
 40
0.56
 50
90.0
 51
133.195
  0
ARC
  8
APS_GEOMETRY
 10
-179.579
 20
-383.571
 40
1.367
 50
133.195
 51
160.454
  0
ARC
  8
APS_GEOMETRY
 10
-177.807
 20
-384.2
 40
3.247
 50
160.454
 51
173.251
  0
ARC
  8
APS_GEOMETRY
 10
-169.473
 20
-385.186
 40
11.639
 50
173.251
 51
180.0
  0
ARC
  8
APS_GEOMETRY
 10
-146.803
 20
-385.186
 40
34.309
 50
180.0
 51
181.897
  0
ARC
  8
APS_GEOMETRY
 10
-164.974
 20
-385.788
 40
16.128
 50
181.897
 51
184.664
  0
ARC
  8
APS_GEOMETRY
 10
-170.93
 20
-386.274
 40
10.152
 50
184.664
 51
189.048
  0
ARC
  8
APS_GEOMETRY
 10
-177.83
 20
-387.373
 40
3.165
 50
189.048
 51
196.905
  0
ARC
  8
APS_GEOMETRY
 10
-178.926
 20
-387.706
 40
2.02
 50
196.905
 51
220.253
  0
ARC
  8
APS_GEOMETRY
 10
-178.904
 20
-387.687
 40
2.049
 50
220.253
 51
243.435
  0
ARC
  8
APS_GEOMETRY
 10
-180.903
 20
-391.718
 40
2.45
 50
37.921
 51
63.778
  0
ARC
  8
APS_GEOMETRY
 10
-179.886
 20
-390.926
 40
1.162
 50
360.0
 51
37.921
  0
ARC
  8
APS_GEOMETRY
 10
-180.338
 20
-390.926
 40
1.614
 50
324.268
 51
360.0
  0
ARC
  8
APS_GEOMETRY
 10
-180.942
 20
-390.491
 40
2.357
 50
294.86
 51
324.268
  0
ARC
  8
APS_GEOMETRY
 10
-181.94
 20
-388.336
 40
4.732
 50
278.78
 51
294.86
  0
ARC
  8
APS_GEOMETRY
 10
-183.63
 20
-377.397
 40
15.802
 50
270.0
 51
278.78
  0
ARC
  8
APS_GEOMETRY
 10
-183.63
 20
-380.232
 40
12.966
 50
260.383
 51
270.0
  0
ARC
  8
APS_GEOMETRY
 10
-184.996
 20
-388.297
 40
4.787
 50
244.522
 51
260.383
  0
ARC
  8
APS_GEOMETRY
 10
-185.986
 20
-390.374
 40
2.486
 50
216.549
 51
244.522
  0
ARC
  8
APS_GEOMETRY
 10
-186.797
 20
-390.975
 40
1.477
 50
180.0
 51
216.549
  0
ARC
  8
APS_GEOMETRY
 10
-186.27
 20
-390.975
 40
2.003
 50
164.65
 51
180.0
  0
ARC
  8
APS_GEOMETRY
 10
-187.413
 20
-390.661
 40
0.818
 50
140.528
 51
164.65
  0
ARC
  8
APS_GEOMETRY
 10
-186.951
 20
-391.042
 40
1.417
 50
126.135
 51
140.528
  0
ARC
  8
APS_GEOMETRY
 10
-182.124
 20
-397.653
 40
9.603
 50
120.619
 51
126.135
  0
ARC
  8
APS_GEOMETRY
 10
-187.847
 20
-387.992
 40
1.625
 50
300.784
 51
330.068
  0
ARC
  8
APS_GEOMETRY
 10
-188.929
 20
-387.369
 40
2.875
 50
330.068
 51
351.983
  0
ARC
  8
APS_GEOMETRY
 10
-207.111
 20
-384.999
 40
21.21
 50
352.493
 51
355.365
  0
ARC
  8
APS_GEOMETRY
 10
-229.042
 20
-383.22
 40
43.213
 50
355.365
 51
357.376
  0
ARC
  8
APS_GEOMETRY
 10
-244.399
 20
-382.517
 40
58.586
 50
357.376
 51
358.861
  0
ARC
  8
APS_GEOMETRY
 10
-285.312
 20
-381.703
 40
99.507
 50
358.861
 51
0.0
  0
ARC
  8
APS_GEOMETRY
 10
-248.517
 20
-381.703
 40
62.712
 50
360.0
 51
1.926
  0
ARC
  8
APS_GEOMETRY
 10
-219.324
 20
-380.721
 40
33.503
 50
1.926
 51
4.562
  0
ARC
  8
APS_GEOMETRY
 10
-209.03
 20
-379.9
 40
23.176
 50
4.562
 51
8.366
  0
ARC
  8
APS_GEOMETRY
 10
-195.642
 20
-377.931
 40
9.644
 50
8.366
 51
14.265
  0
ARC
  8
APS_GEOMETRY
 10
-190.58
 20
-376.651
 40
4.422
 50
14.349
 51
23.629
  0
ARC
  8
APS_GEOMETRY
 10
-188.012
 20
-375.528
 40
1.62
 50
23.629
 51
38.991
  0
ARC
  8
APS_GEOMETRY
 10
-188.003
 20
-375.52
 40
1.608
 50
38.991
 51
54.462
  0
ARC
  8
APS_GEOMETRY
 10
-189.505
 20
-377.623
 40
4.192
 50
54.462
 51
64.026
  0
ARC
  8
APS_GEOMETRY
 10
-185.266
 20
-368.939
 40
5.471
 50
235.472
 51
243.947
  0
ARC
  8
APS_GEOMETRY
 10
-187.456
 20
-372.122
 40
1.608
 50
219.806
 51
235.472
  0
ARC
  8
APS_GEOMETRY
 10
-187.787
 20
-372.398
 40
1.176
 50
198.939
 51
219.806
  0
ARC
  8
APS_GEOMETRY
 10
-187.552
 20
-372.317
 40
1.425
 50
180.0
 51
198.939
  0
ARC
  8
APS_GEOMETRY
 10
-187.621
 20
-372.317
 40
1.356
 50
126.254
 51
180.0
  0
ARC
  8
APS_GEOMETRY
 10
-185.552
 20
-375.14
 40
4.856
 50
98.616
 51
126.254
  0
ARC
  8
APS_GEOMETRY
 10
-185.26
 20
-377.471
 40
7.205
 50
94.456
 51
98.13
  0
ARC
  8
APS_GEOMETRY
 10
-184.136
 20
-391.897
 40
21.675
 50
92.337
 51
94.456
  0
ARC
  8
APS_GEOMETRY
 10
-183.657
 20
-403.637
 40
33.424
 50
90.963
 51
92.337
  0
ARC
  8
APS_GEOMETRY
 10
-183.074
 20
-438.311
 40
68.103
 50
90.0
 51
90.963
  0
ARC
  8
APS_GEOMETRY
 10
-183.074
 20
-382.619
 40
12.411
 50
83.928
 51
90.0
  0
ARC
  8
APS_GEOMETRY
 10
-182.056
 20
-373.05
 40
2.788
 50
71.095
 51
83.928
  0
ARC
  8
APS_GEOMETRY
 10
-181.963
 20
-372.779
 40
2.501
 50
56.848
 51
71.095
  0
ARC
  8
APS_GEOMETRY
 10
-184.714
 20
-376.991
 40
7.532
 50
48.652
 51
56.848
  0
ARC
  8
APS_GEOMETRY
 10
-150.335
 20
-390.512
 40
20.304
 50
84.71
 51
90.0
  0
ARC
  8
APS_GEOMETRY
 10
-149.962
 20
-386.492
 40
16.267
 50
78.799
 51
84.71
  0
ARC
  8
APS_GEOMETRY
 10
-147.554
 20
-374.32
 40
3.859
 50
49.783
 51
78.771
  0
ARC
  8
APS_GEOMETRY
 10
-145.943
 20
-372.416
 40
1.365
 50
360.0
 51
49.783
  0
ARC
  8
APS_GEOMETRY
 10
-146.089
 20
-372.416
 40
1.51
 50
342.759
 51
360.0
  0
ARC
  8
APS_GEOMETRY
 10
-145.301
 20
-372.66
 40
0.685
 50
317.045
 51
342.759
  0
ARC
  8
APS_GEOMETRY
 10
-145.681
 20
-372.306
 40
1.205
 50
301.817
 51
317.045
  0
ARC
  8
APS_GEOMETRY
 10
-151.309
 20
-363.235
 40
11.88
 50
296.98
 51
301.817
  0
ARC
  8
APS_GEOMETRY
 10
-145.308
 20
-375.044
 40
1.366
 50
116.565
 51
149.078
  0
ARC
  8
APS_GEOMETRY
 10
-143.549
 20
-376.098
 40
3.417
 50
149.078
 51
169.469
  0
ARC
  8
APS_GEOMETRY
 10
-139.797
 20
-376.795
 40
7.234
 50
169.469
 51
174.598
  0
ARC
  8
APS_GEOMETRY
 10
-120.465
 20
-378.624
 40
26.652
 50
174.598
 51
177.269
  0
ARC
  8
APS_GEOMETRY
 10
-103.466
 20
-379.434
 40
43.67
 50
177.269
 51
178.901
  0
ARC
  8
APS_GEOMETRY
 10
-50.813
 20
-380.444
 40
96.333
 50
178.901
 51
180.0
  0
ARC
  8
APS_GEOMETRY
 10
56.182
 20
-380.444
 40
203.328
 50
180.0
 51
180.88
  0
ARC
  8
APS_GEOMETRY
 10
-69.078
 20
-382.368
 40
78.054
 50
180.88
 51
182.3
  0
ARC
  8
APS_GEOMETRY
 10
-105.69
 20
-383.839
 40
41.411
 50
182.3
 51
184.974
  0
ARC
  8
APS_GEOMETRY
 10
-140.601
 20
-386.877
 40
6.369
 50
184.974
 51
191.793
  0
ARC
  8
APS_GEOMETRY
 10
-144.656
 20
-387.653
 40
2.242
 50
193.57
 51
205.787
  0
ARC
  8
APS_GEOMETRY
 10
-145.664
 20
-388.14
 40
1.122
 50
205.787
 51
223.091
  0
ARC
  8
APS_GEOMETRY
 10
-145.409
 20
-387.901
 40
1.472
 50
223.091
 51
236.441
  0
ARC
  8
APS_GEOMETRY
 10
-143.267
 20
-384.672
 40
5.346
 50
236.441
 51
243.435
  0
ARC
  8
APS_GEOMETRY
 10
-146.546
 20
-391.407
 40
2.146
 50
37.185
 51
65.556
  0
ARC
  8
APS_GEOMETRY
 10
-145.846
 20
-390.877
 40
1.268
 50
360.0
 51
37.185
  0
ARC
  8
APS_GEOMETRY
 10
-145.885
 20
-390.877
 40
1.306
 50
312.039
 51
360.0
  0
ARC
  8
APS_GEOMETRY
 10
-147.44
 20
-389.152
 40
3.629
 50
283.815
 51
312.039
  0
ARC
  8
APS_GEOMETRY
 10
-150.01
 20
-378.499
 40
14.587
 50
279.273
 51
283.627
  0
ARC
  8
APS_GEOMETRY
 10
-151.038
 20
-372.206
 40
20.963
 50
275.641
 51
279.273
  0
ARC
  8
APS_GEOMETRY
 10
-151.431
 20
-368.229
 40
24.959
 50
272.588
 51
275.641
  0
ARC
  8
APS_GEOMETRY
 10
-151.872
 20
-358.471
 40
34.728
 50
270.0
 51
272.588
  0
ARC
  8
APS_GEOMETRY
 10
-151.872
 20
-372.252
 40
20.947
 50
262.774
 51
270.0
  0
ARC
  8
APS_GEOMETRY
 10
-153.76
 20
-387.145
 40
5.934
 50
249.175
 51
262.774
  0
ARC
  8
APS_GEOMETRY
 10
-154.946
 20
-390.264
 40
2.597
 50
221.23
 51
249.175
  0
ARC
  8
APS_GEOMETRY
 10
-155.981
 20
-391.171
 40
1.221
 50
180.0
 51
221.23
  0
ARC
  8
APS_GEOMETRY
 10
-156.182
 20
-391.171
 40
1.021
 50
142.696
 51
180.0
  0
ARC
  8
APS_GEOMETRY
 10
-154.571
 20
-392.398
 40
3.046
 50
121.357
 51
142.696
  0
ARC
  8
APS_GEOMETRY
 10
-157.293
 20
-387.941
 40
2.177
 50
301.477
 51
324.728
  0
ARC
  8
APS_GEOMETRY
 10
-157.002
 20
-388.146
 40
1.822
 50
324.728
 51
350.181
  0
ARC
  8
APS_GEOMETRY
 10
-166.123
 20
-386.637
 40
11.066
 50
350.538
 51
355.423
  0
ARC
  8
APS_GEOMETRY
 10
-203.599
 20
-383.637
 40
48.662
 50
355.423
 51
357.752
  0
ARC
  8
APS_GEOMETRY
 10
-238.396
 20
-382.271
 40
83.485
 50
357.752
 51
359.111
  0
ARC
  8
APS_GEOMETRY
 10
-349.769
 20
-380.542
 40
194.872
 50
359.111
 51
0.0
  0
ARC
  8
APS_GEOMETRY
 10
-222.508
 20
-380.542
 40
67.612
 50
0.0
 51
1.773
  0
ARC
  8
APS_GEOMETRY
 10
-182.828
 20
-379.314
 40
27.913
 50
1.773
 51
4.532
  0
ARC
  8
APS_GEOMETRY
 10
-170.768
 20
-378.358
 40
15.814
 50
4.532
 51
9.384
  0
ARC
  8
APS_GEOMETRY
 10
-158.521
 20
-376.334
 40
3.402
 50
9.384
 51
19.855
  0
ARC
  8
APS_GEOMETRY
 10
-156.9
 20
-375.718
 40
1.668
 50
18.853
 51
42.158
  0
ARC
  8
APS_GEOMETRY
 10
-158.29
 20
-376.976
 40
3.542
 50
42.158
 51
58.092
  0
ARC
  8
APS_GEOMETRY
 10
-152.175
 20
-367.527
 40
7.713
 50
230.711
 51
236.634
  0
ARC
  8
APS_GEOMETRY
 10
-156.016
 20
-372.221
 40
1.648
 50
217.875
 51
230.711
  0
ARC
  8
APS_GEOMETRY
 10
-156.543
 20
-372.631
 40
0.981
 50
196.928
 51
217.875
  0
ARC
  8
APS_GEOMETRY
 10
-156.05
 20
-372.481
 40
1.496
 50
180.0
 51
196.928
  0
ARC
  8
APS_GEOMETRY
 10
-156.372
 20
-372.481
 40
1.174
 50
148.791
 51
180.0
  0
ARC
  8
APS_GEOMETRY
 10
-156.064
 20
-372.667
 40
1.533
 50
121.569
 51
148.791
  0
ARC
  8
APS_GEOMETRY
 10
-155.512
 20
-373.567
 40
2.589
 50
112.806
 51
121.569
  0
ARC
  8
APS_GEOMETRY
 10
-154.018
 20
-377.119
 40
6.443
 50
107.254
 51
112.806
  0
ARC
  8
APS_GEOMETRY
 10
-153.103
 20
-380.065
 40
9.527
 50
103.487
 51
107.254
  0
ARC
  8
APS_GEOMETRY
 10
-151.008
 20
-388.801
 40
18.511
 50
100.784
 51
103.487
  0
ARC
  8
APS_GEOMETRY
 10
-150.352
 20
-391.216
 40
21.008
 50
95.643
 51
101.31
  0
ARC
  8
APS_GEOMETRY
 10
-150.335
 20
-391.389
 40
21.181
 50
90.0
 51
95.643
  0
ARC
  8
APS_GEOMETRY
 10
-129.999
 20
-380.726
 40
10.632
 50
77.257
 51
90.0
  0
ARC
  8
APS_GEOMETRY
 10
-130.108
 20
-381.203
 40
11.122
 50
64.799
 51
77.257
  0
ARC
  8
APS_GEOMETRY
 10
-120.949
 20
-361.704
 40
10.421
 50
244.885
 51
251.175
  0
ARC
  8
APS_GEOMETRY
 10
-123.933
 20
-370.458
 40
1.173
 50
251.175
 51
270.0
  0
ARC
  8
APS_GEOMETRY
 10
-123.933
 20
-369.727
 40
1.903
 50
270.0
 51
278.82
  0
ARC
  8
APS_GEOMETRY
 10
-125.163
 20
-361.804
 40
9.922
 50
278.82
 51
282.68
  0
ARC
  8
APS_GEOMETRY
 10
-122.59
 20
-373.194
 40
1.755
 50
95.906
 51
102.995
  0
ARC
  8
APS_GEOMETRY
 10
-122.51
 20
-373.962
 40
2.528
 50
90.0
 51
95.906
  0
ARC
  8
APS_GEOMETRY
 10
-122.51
 20
-373.112
 40
1.678
 50
62.447
 51
90.0
  0
ARC
  8
APS_GEOMETRY
 10
-122.809
 20
-373.684
 40
2.323
 50
39.094
 51
62.447
  0
ARC
  8
APS_GEOMETRY
 10
-125.926
 20
-376.291
 40
6.386
 50
18.435
 51
39.611
  0
ARC
  8
APS_GEOMETRY
 10
-127.839
 20
-376.929
 40
8.403
 50
360.0
 51
18.435
  0
ARC
  8
APS_GEOMETRY
 10
-123.603
 20
-376.929
 40
4.167
 50
334.877
 51
360.0
  0
ARC
  8
APS_GEOMETRY
 10
-122.35
 20
-377.516
 40
2.783
 50
304.007
 51
334.877
  0
ARC
  8
APS_GEOMETRY
 10
-122.37
 20
-377.457
 40
2.843
 50
286.39
 51
303.69
  0
ARC
  8
APS_GEOMETRY
 10
-122.461
 20
-377.148
 40
3.165
 50
270.0
 51
286.39
  0
ARC
  8
APS_GEOMETRY
 10
-122.461
 20
-377.185
 40
3.128
 50
255.155
 51
270.0
  0
ARC
  8
APS_GEOMETRY
 10
-122.804
 20
-378.478
 40
1.791
 50
235.491
 51
255.155
  0
ARC
  8
APS_GEOMETRY
 10
-122.632
 20
-378.228
 40
2.094
 50
218.48
 51
235.491
  0
ARC
  8
APS_GEOMETRY
 10
-119.822
 20
-375.994
 40
5.684
 50
208.179
 51
218.48
  0
ARC
  8
APS_GEOMETRY
 10
-148.634
 20
-391.634
 40
27.099
 50
28.56
 51
31.664
  0
ARC
  8
APS_GEOMETRY
 10
-131.028
 20
-380.775
 40
6.414
 50
31.664
 51
38.047
  0
ARC
  8
APS_GEOMETRY
 10
-129.748
 20
-379.773
 40
4.788
 50
38.047
 51
46.56
  0
ARC
  8
APS_GEOMETRY
 10
-130.413
 20
-380.476
 40
5.756
 50
46.56
 51
54.324
  0
ARC
  8
APS_GEOMETRY
 10
-130.797
 20
-381.137
 40
6.517
 50
54.968
 51
71.48
  0
ARC
  8
APS_GEOMETRY
 10
-130.376
 20
-379.878
 40
5.19
 50
71.48
 51
90.0
  0
ARC
  8
APS_GEOMETRY
 10
-130.376
 20
-378.314
 40
3.625
 50
90.0
 51
114.63
  0
ARC
  8
APS_GEOMETRY
 10
-130.558
 20
-377.917
 40
3.188
 50
114.63
 51
140.921
  0
ARC
  8
APS_GEOMETRY
 10
-130.02
 20
-378.353
 40
3.881
 50
140.921
 51
163.13
  0
ARC
  8
APS_GEOMETRY
 10
-127.331
 20
-379.169
 40
6.691
 50
163.13
 51
180.0
  0
ARC
  8
APS_GEOMETRY
 10
-123.844
 20
-379.169
 40
10.178
 50
180.0
 51
195.44
  0
ARC
  8
APS_GEOMETRY
 10
-124.373
 20
-379.315
 40
9.629
 50
195.44
 51
211.316
  0
ARC
  8
APS_GEOMETRY
 10
-126.918
 20
-380.81
 40
6.678
 50
211.708
 51
240.457
  0
ARC
  8
APS_GEOMETRY
 10
-127.089
 20
-381.111
 40
6.332
 50
240.457
 51
270.0
  0
ARC
  8
APS_GEOMETRY
 10
-127.089
 20
-379.567
 40
7.875
 50
270.0
 51
279.549
  0
ARC
  8
APS_GEOMETRY
 10
-127.187
 20
-378.985
 40
8.466
 50
279.549
 51
288.759
  0
ARC
  8
APS_GEOMETRY
 10
-126.774
 20
-380.201
 40
7.182
 50
288.759
 51
299.545
  0
ARC
  8
APS_GEOMETRY
 10
-125.119
 20
-383.12
 40
3.826
 50
299.545
 51
314.341
  0
ARC
  8
APS_GEOMETRY
 10
-120.002
 20
-388.436
 40
3.553
 50
120.141
 51
133.452
  0
ARC
  8
APS_GEOMETRY
 10
-121.431
 20
-385.974
 40
0.706
 50
90.0
 51
120.141
  0
ARC
  8
APS_GEOMETRY
 10
-121.431
 20
-386.383
 40
1.115
 50
61.952
 51
90.0
  0
ARC
  8
APS_GEOMETRY
 10
-121.597
 20
-386.694
 40
1.468
 50
37.569
 51
61.952
  0
ARC
  8
APS_GEOMETRY
 10
-121.907
 20
-386.933
 40
1.859
 50
17.665
 51
37.569
  0
ARC
  8
APS_GEOMETRY
 10
-122.379
 20
-387.083
 40
2.354
 50
360.0
 51
17.665
  0
ARC
  8
APS_GEOMETRY
 10
-123.565
 20
-387.083
 40
3.54
 50
344.932
 51
360.0
  0
ARC
  8
APS_GEOMETRY
 10
-126.714
 20
-386.235
 40
6.801
 50
334.075
 51
344.932
  0
ARC
  8
APS_GEOMETRY
 10
-126.813
 20
-386.187
 40
6.912
 50
323.374
 51
334.075
  0
ARC
  8
APS_GEOMETRY
 10
-124.781
 20
-387.698
 40
4.38
 50
309.92
 51
323.374
  0
ARC
  8
APS_GEOMETRY
 10
-122.751
 20
-390.093
 40
1.24
 50
289.026
 51
308.991
  0
ARC
  8
APS_GEOMETRY
 10
-124.917
 20
-383.81
 40
7.886
 50
281.143
 51
289.026
  0
ARC
  8
APS_GEOMETRY
 10
-122.72
 20
-395.201
 40
3.715
 50
100.437
 51
110.12
  0
ARC
  8
APS_GEOMETRY
 10
-119.81
 20
-403.146
 40
12.177
 50
110.12
 51
115.463
  0
ARC
  8
APS_GEOMETRY
 10
-130.2
 20
-381.406
 40
11.919
 50
282.94
 51
295.628
  0
ARC
  8
APS_GEOMETRY
 10
-130.098
 20
-381.853
 40
11.46
 50
270.0
 51
282.94
  0
ARC
  8
APS_GEOMETRY
 10
-130.098
 20
-381.176
 40
12.137
 50
257.307
 51
270.0
  0
ARC
  8
APS_GEOMETRY
 10
-129.585
 20
-378.901
 40
14.469
 50
245.686
 51
257.307
  0
ARC
  8
APS_GEOMETRY
 10
-130.87
 20
-381.722
 40
11.37
 50
228.801
 51
245.735
  0
ARC
  8
APS_GEOMETRY
 10
-130.849
 20
-381.697
 40
11.402
 50
211.891
 51
228.801
  0
ARC
  8
APS_GEOMETRY
 10
-130.175
 20
-381.212
 40
12.231
 50
196.728
 51
212.152
  0
ARC
  8
APS_GEOMETRY
 10
-131.919
 20
-381.736
 40
10.41
 50
180.0
 51
196.728
  0
ARC
  8
APS_GEOMETRY
 10
-131.665
 20
-381.736
 40
10.663
 50
161.184
 51
180.0
  0
ARC
  8
APS_GEOMETRY
 10
-130.981
 20
-381.969
 40
11.386
 50
142.98
 51
161.184
  0
ARC
  8
APS_GEOMETRY
 10
-130.449
 20
-382.376
 40
12.056
 50
127.824
 51
142.958
  0
ARC
  8
APS_GEOMETRY
 10
-129.572
 20
-383.506
 40
13.486
 50
113.52
 51
127.824
  0
ARC
  8
APS_GEOMETRY
 10
-129.858
 20
-382.846
 40
12.768
 50
101.927
 51
113.527
  0
ARC
  8
APS_GEOMETRY
 10
-129.999
 20
-382.174
 40
12.08
 50
90.0
 51
101.927
  0
ARC
  8
APS_GEOMETRY
 10
-107.725
 20
-390.512
 40
20.304
 50
84.71
 51
90.0
  0
ARC
  8
APS_GEOMETRY
 10
-107.353
 20
-386.492
 40
16.267
 50
78.799
 51
84.71
  0
ARC
  8
APS_GEOMETRY
 10
-104.945
 20
-374.32
 40
3.859
 50
49.783
 51
78.771
  0
ARC
  8
APS_GEOMETRY
 10
-103.334
 20
-372.416
 40
1.365
 50
360.0
 51
49.783
  0
ARC
  8
APS_GEOMETRY
 10
-103.479
 20
-372.416
 40
1.51
 50
342.759
 51
360.0
  0
ARC
  8
APS_GEOMETRY
 10
-102.692
 20
-372.66
 40
0.685
 50
317.045
 51
342.759
  0
ARC
  8
APS_GEOMETRY
 10
-103.072
 20
-372.306
 40
1.205
 50
301.817
 51
317.045
  0
ARC
  8
APS_GEOMETRY
 10
-108.7
 20
-363.235
 40
11.88
 50
296.98
 51
301.817
  0
ARC
  8
APS_GEOMETRY
 10
-102.699
 20
-375.044
 40
1.366
 50
116.565
 51
149.078
  0
ARC
  8
APS_GEOMETRY
 10
-100.94
 20
-376.098
 40
3.417
 50
149.078
 51
169.469
  0
ARC
  8
APS_GEOMETRY
 10
-97.187
 20
-376.795
 40
7.234
 50
169.469
 51
174.598
  0
ARC
  8
APS_GEOMETRY
 10
-77.855
 20
-378.624
 40
26.652
 50
174.598
 51
177.269
  0
ARC
  8
APS_GEOMETRY
 10
-60.857
 20
-379.434
 40
43.67
 50
177.269
 51
178.901
  0
ARC
  8
APS_GEOMETRY
 10
-8.203
 20
-380.444
 40
96.333
 50
178.901
 51
180.0
  0
ARC
  8
APS_GEOMETRY
 10
98.792
 20
-380.444
 40
203.328
 50
180.0
 51
180.88
  0
ARC
  8
APS_GEOMETRY
 10
-26.468
 20
-382.368
 40
78.054
 50
180.88
 51
182.3
  0
ARC
  8
APS_GEOMETRY
 10
-63.081
 20
-383.839
 40
41.411
 50
182.3
 51
184.974
  0
ARC
  8
APS_GEOMETRY
 10
-97.991
 20
-386.877
 40
6.369
 50
184.974
 51
191.793
  0
ARC
  8
APS_GEOMETRY
 10
-102.046
 20
-387.653
 40
2.242
 50
193.57
 51
205.787
  0
ARC
  8
APS_GEOMETRY
 10
-103.055
 20
-388.14
 40
1.122
 50
205.787
 51
223.091
  0
ARC
  8
APS_GEOMETRY
 10
-102.799
 20
-387.901
 40
1.472
 50
223.091
 51
236.441
  0
ARC
  8
APS_GEOMETRY
 10
-100.658
 20
-384.672
 40
5.346
 50
236.441
 51
243.435
  0
ARC
  8
APS_GEOMETRY
 10
-103.936
 20
-391.407
 40
2.146
 50
37.185
 51
65.556
  0
ARC
  8
APS_GEOMETRY
 10
-103.237
 20
-390.877
 40
1.268
 50
360.0
 51
37.185
  0
ARC
  8
APS_GEOMETRY
 10
-103.275
 20
-390.877
 40
1.306
 50
312.039
 51
360.0
  0
ARC
  8
APS_GEOMETRY
 10
-104.831
 20
-389.152
 40
3.629
 50
283.815
 51
312.039
  0
ARC
  8
APS_GEOMETRY
 10
-107.401
 20
-378.499
 40
14.587
 50
279.273
 51
283.627
  0
ARC
  8
APS_GEOMETRY
 10
-108.428
 20
-372.206
 40
20.963
 50
275.641
 51
279.273
  0
ARC
  8
APS_GEOMETRY
 10
-108.821
 20
-368.229
 40
24.959
 50
272.588
 51
275.641
  0
ARC
  8
APS_GEOMETRY
 10
-109.262
 20
-358.471
 40
34.728
 50
270.0
 51
272.588
  0
ARC
  8
APS_GEOMETRY
 10
-109.262
 20
-372.252
 40
20.947
 50
262.774
 51
270.0
  0
ARC
  8
APS_GEOMETRY
 10
-111.151
 20
-387.145
 40
5.934
 50
249.175
 51
262.774
  0
ARC
  8
APS_GEOMETRY
 10
-112.337
 20
-390.264
 40
2.597
 50
221.23
 51
249.175
  0
ARC
  8
APS_GEOMETRY
 10
-113.371
 20
-391.171
 40
1.221
 50
180.0
 51
221.23
  0
ARC
  8
APS_GEOMETRY
 10
-113.572
 20
-391.171
 40
1.021
 50
142.696
 51
180.0
  0
ARC
  8
APS_GEOMETRY
 10
-111.962
 20
-392.398
 40
3.046
 50
121.357
 51
142.696
  0
ARC
  8
APS_GEOMETRY
 10
-114.683
 20
-387.941
 40
2.177
 50
301.477
 51
324.728
  0
ARC
  8
APS_GEOMETRY
 10
-114.393
 20
-388.146
 40
1.822
 50
324.728
 51
350.181
  0
ARC
  8
APS_GEOMETRY
 10
-123.513
 20
-386.637
 40
11.066
 50
350.538
 51
355.423
  0
ARC
  8
APS_GEOMETRY
 10
-160.989
 20
-383.637
 40
48.662
 50
355.423
 51
357.752
  0
ARC
  8
APS_GEOMETRY
 10
-195.786
 20
-382.271
 40
83.485
 50
357.752
 51
359.111
  0
ARC
  8
APS_GEOMETRY
 10
-307.159
 20
-380.542
 40
194.872
 50
359.111
 51
0.0
  0
ARC
  8
APS_GEOMETRY
 10
-179.899
 20
-380.542
 40
67.612
 50
0.0
 51
1.773
  0
ARC
  8
APS_GEOMETRY
 10
-140.219
 20
-379.314
 40
27.913
 50
1.773
 51
4.532
  0
ARC
  8
APS_GEOMETRY
 10
-128.159
 20
-378.358
 40
15.814
 50
4.532
 51
9.384
  0
ARC
  8
APS_GEOMETRY
 10
-115.912
 20
-376.334
 40
3.402
 50
9.384
 51
19.855
  0
ARC
  8
APS_GEOMETRY
 10
-114.291
 20
-375.718
 40
1.668
 50
18.853
 51
42.158
  0
ARC
  8
APS_GEOMETRY
 10
-115.68
 20
-376.976
 40
3.542
 50
42.158
 51
58.092
  0
ARC
  8
APS_GEOMETRY
 10
-109.566
 20
-367.527
 40
7.713
 50
230.711
 51
236.634
  0
ARC
  8
APS_GEOMETRY
 10
-113.407
 20
-372.221
 40
1.648
 50
217.875
 51
230.711
  0
ARC
  8
APS_GEOMETRY
 10
-113.933
 20
-372.631
 40
0.981
 50
196.928
 51
217.875
  0
ARC
  8
APS_GEOMETRY
 10
-113.44
 20
-372.481
 40
1.496
 50
180.0
 51
196.928
  0
ARC
  8
APS_GEOMETRY
 10
-113.763
 20
-372.481
 40
1.174
 50
148.791
 51
180.0
  0
ARC
  8
APS_GEOMETRY
 10
-113.455
 20
-372.667
 40
1.533
 50
121.569
 51
148.791
  0
ARC
  8
APS_GEOMETRY
 10
-112.902
 20
-373.567
 40
2.589
 50
112.806
 51
121.569
  0
ARC
  8
APS_GEOMETRY
 10
-111.409
 20
-377.119
 40
6.443
 50
107.254
 51
112.806
  0
ARC
  8
APS_GEOMETRY
 10
-110.494
 20
-380.065
 40
9.527
 50
103.487
 51
107.254
  0
ARC
  8
APS_GEOMETRY
 10
-108.398
 20
-388.801
 40
18.511
 50
100.784
 51
103.487
  0
ARC
  8
APS_GEOMETRY
 10
-107.742
 20
-391.216
 40
21.008
 50
95.643
 51
101.31
  0
ARC
  8
APS_GEOMETRY
 10
-107.725
 20
-391.389
 40
21.181
 50
90.0
 51
95.643
  0
LINE
  8
APS_GEOMETRY
 10
-73.151
 11
-73.151
 20
-385.17
 21
-376.569
  0
ARC
  8
APS_GEOMETRY
 10
-93.012
 20
-376.569
 40
19.861
 50
0.0
 51
2.404
  0
ARC
  8
APS_GEOMETRY
 10
-81.253
 20
-376.075
 40
8.092
 50
2.404
 51
6.17
  0
ARC
  8
APS_GEOMETRY
 10
-77.729
 20
-375.694
 40
4.547
 50
6.17
 51
12.824
  0
ARC
  8
APS_GEOMETRY
 10
-74.279
 20
-374.909
 40
1.009
 50
12.824
 51
26.98
  0
ARC
  8
APS_GEOMETRY
 10
-74.117
 20
-374.827
 40
0.828
 50
26.98
 51
59.65
  0
ARC
  8
APS_GEOMETRY
 10
-75.636
 20
-377.421
 40
3.834
 50
59.65
 51
74.667
  0
ARC
  8
APS_GEOMETRY
 10
-73.885
 20
-371.172
 40
2.656
 50
225.0
 51
253.887
  0
ARC
  8
APS_GEOMETRY
 10
-74.966
 20
-372.252
 40
1.128
 50
180.0
 51
225.0
  0
ARC
  8
APS_GEOMETRY
 10
-74.758
 20
-372.252
 40
1.336
 50
151.157
 51
180.0
  0
ARC
  8
APS_GEOMETRY
 10
-74.761
 20
-372.25
 40
1.332
 50
122.276
 51
151.157
  0
ARC
  8
APS_GEOMETRY
 10
-74.379
 20
-372.855
 40
2.048
 50
102.308
 51
122.276
  0
ARC
  8
APS_GEOMETRY
 10
-73.674
 20
-376.087
 40
5.356
 50
90.0
 51
102.308
  0
ARC
  8
APS_GEOMETRY
 10
-73.674
 20
-382.314
 40
11.583
 50
88.989
 51
90.0
  0
ARC
  8
APS_GEOMETRY
 10
-74.648
 20
-437.487
 40
66.764
 50
88.568
 51
88.989
  0
ARC
  8
APS_GEOMETRY
 10
-76.023
 20
-492.489
 40
121.783
 50
88.337
 51
88.568
  0
ARC
  8
APS_GEOMETRY
 10
-81.352
 20
-676.047
 40
305.419
 50
88.191
 51
88.337
  0
LINE
  8
APS_GEOMETRY
 10
-71.712
 11
-70.747
 20
-370.78
 21
-370.78
  0
ARC
  8
APS_GEOMETRY
 10
-73.988
 20
167.194
 40
537.985
 50
270.345
 51
270.49
  0
ARC
  8
APS_GEOMETRY
 10
-70.968
 20
-186.111
 40
184.666
 50
270.49
 51
270.736
  0
ARC
  8
APS_GEOMETRY
 10
-69.729
 20
-282.547
 40
88.223
 50
270.736
 51
271.253
  0
ARC
  8
APS_GEOMETRY
 10
-67.966
 20
-363.155
 40
7.595
 50
271.253
 51
273.013
  0
ARC
  8
APS_GEOMETRY
 10
-68.039
 20
-361.761
 40
8.991
 50
273.013
 51
274.5
  0
ARC
  8
APS_GEOMETRY
 10
-76.367
 20
-255.934
 40
115.145
 50
274.5
 51
274.915
  0
LINE
  8
APS_GEOMETRY
 10
-66.502
 11
-65.52
 20
-370.656
 21
-370.569
  0
LINE
  8
APS_GEOMETRY
 10
-65.52
 11
-64.239
 20
-370.569
 21
-370.453
  0
ARC
  8
APS_GEOMETRY
 10
-62.133
 20
-390.815
 40
20.471
 50
93.24
 51
95.906
  0
ARC
  8
APS_GEOMETRY
 10
-62.506
 20
-384.223
 40
13.868
 50
90.0
 51
93.24
  0
ARC
  8
APS_GEOMETRY
 10
-62.506
 20
-382.132
 40
11.777
 50
77.12
 51
90.0
  0
ARC
  8
APS_GEOMETRY
 10
-61.886
 20
-379.419
 40
8.993
 50
62.371
 51
77.12
  0
ARC
  8
APS_GEOMETRY
 10
-60.835
 20
-377.449
 40
6.761
 50
31.215
 51
62.517
  0
ARC
  8
APS_GEOMETRY
 10
-60.867
 20
-377.468
 40
6.798
 50
360.0
 51
31.215
  0
ARC
  8
APS_GEOMETRY
 10
-61.049
 20
-377.468
 40
6.981
 50
334.496
 51
360.0
  0
ARC
  8
APS_GEOMETRY
 10
-60.706
 20
-377.632
 40
6.601
 50
308.254
 51
334.496
  0
ARC
  8
APS_GEOMETRY
 10
-61.756
 20
-376.249
 40
8.337
 50
287.855
 51
308.034
  0
ARC
  8
APS_GEOMETRY
 10
-62.457
 20
-374.072
 40
10.623
 50
270.0
 51
287.855
  0
ARC
  8
APS_GEOMETRY
 10
-62.457
 20
-368.597
 40
16.098
 50
266.918
 51
270.0
  0
ARC
  8
APS_GEOMETRY
 10
-61.48
 20
-350.449
 40
34.273
 50
264.806
 51
266.918
  0
ARC
  8
APS_GEOMETRY
 10
-68.016
 20
-431.503
 40
47.047
 50
85.815
 51
86.634
  0
ARC
  8
APS_GEOMETRY
 10
-65.417
 20
-387.314
 40
2.782
 50
86.634
 51
90.0
  0
ARC
  8
APS_GEOMETRY
 10
-65.417
 20
-384.943
 40
0.41
 50
90.0
 51
139.686
  0
ARC
  8
APS_GEOMETRY
 10
-65.264
 20
-385.072
 40
0.61
 50
139.686
 51
180.0
  0
LINE
  8
APS_GEOMETRY
 10
-65.874
 11
-65.874
 20
-385.072
 21
-385.17
  0
LINE
  8
APS_GEOMETRY
 10
-65.874
 11
-65.76
 20
-385.17
 21
-387.852
  0
ARC
  8
APS_GEOMETRY
 10
-61.885
 20
-387.69
 40
3.879
 50
182.386
 51
193.753
  0
ARC
  8
APS_GEOMETRY
 10
-64.384
 20
-388.302
 40
1.306
 50
193.753
 51
213.408
  0
ARC
  8
APS_GEOMETRY
 10
-64.356
 20
-388.283
 40
1.339
 50
213.408
 51
232.628
  0
ARC
  8
APS_GEOMETRY
 10
-62.101
 20
-385.331
 40
5.055
 50
232.628
 51
242.488
  0
ARC
  8
APS_GEOMETRY
 10
-65.862
 20
-392.463
 40
3.009
 50
40.539
 51
61.699
  0
ARC
  8
APS_GEOMETRY
 10
-64.218
 20
-391.057
 40
0.845
 50
360.0
 51
40.539
  0
ARC
  8
APS_GEOMETRY
 10
-64.507
 20
-391.057
 40
1.135
 50
315.297
 51
360.0
  0
ARC
  8
APS_GEOMETRY
 10
-66.042
 20
-389.538
 40
3.294
 50
289.502
 51
315.297
  0
ARC
  8
APS_GEOMETRY
 10
-67.167
 20
-386.362
 40
6.663
 50
282.372
 51
289.502
  0
ARC
  8
APS_GEOMETRY
 10
-68.348
 20
-380.976
 40
12.176
 50
277.099
 51
282.372
  0
ARC
  8
APS_GEOMETRY
 10
-68.834
 20
-377.077
 40
16.106
 50
273.104
 51
277.099
  0
ARC
  8
APS_GEOMETRY
 10
-69.406
 20
-366.517
 40
26.681
 50
270.0
 51
273.104
  0
ARC
  8
APS_GEOMETRY
 10
-69.406
 20
-366.837
 40
26.361
 50
263.473
 51
270.0
  0
ARC
  8
APS_GEOMETRY
 10
-71.573
 20
-385.771
 40
7.304
 50
251.056
 51
263.473
  0
ARC
  8
APS_GEOMETRY
 10
-72.964
 20
-389.823
 40
3.02
 50
224.161
 51
251.056
  0
ARC
  8
APS_GEOMETRY
 10
-74.301
 20
-391.122
 40
1.156
 50
180.0
 51
224.161
  0
ARC
  8
APS_GEOMETRY
 10
-74.061
 20
-391.122
 40
1.396
 50
160.821
 51
180.0
  0
ARC
  8
APS_GEOMETRY
 10
-74.646
 20
-390.918
 40
0.776
 50
135.0
 51
160.821
  0
ARC
  8
APS_GEOMETRY
 10
-74.093
 20
-391.472
 40
1.558
 50
121.522
 51
135.0
  0
ARC
  8
APS_GEOMETRY
 10
-67.851
 20
-401.65
 40
13.498
 50
116.952
 51
121.522
  0
ARC
  8
APS_GEOMETRY
 10
-74.667
 20
-388.294
 40
1.496
 50
297.824
 51
321.605
  0
ARC
  8
APS_GEOMETRY
 10
-74.322
 20
-388.567
 40
1.057
 50
321.605
 51
349.992
  0
ARC
  8
APS_GEOMETRY
 10
-75.922
 20
-388.285
 40
2.681
 50
349.992
 51
356.014
  0
ARC
  8
APS_GEOMETRY
 10
-100.253
 20
-386.589
 40
27.071
 50
356.014
 51
357.908
  0
ARC
  8
APS_GEOMETRY
 10
-128.656
 20
-385.552
 40
55.492
 50
357.908
 51
358.833
  0
ARC
  8
APS_GEOMETRY
 10
-231.354
 20
-383.46
 40
158.212
 50
358.833
 51
359.381
  0
LINE
  8
APS_GEOMETRY
 10
-65.76
 11
-65.76
 20
-374.492
 21
-380.052
  0
ARC
  8
APS_GEOMETRY
 10
-64.073
 20
-380.052
 40
1.687
 50
180.0
 51
199.885
  0
ARC
  8
APS_GEOMETRY
 10
-65.335
 20
-380.508
 40
0.345
 50
199.885
 51
244.799
  0
ARC
  8
APS_GEOMETRY
 10
-64.61
 20
-379.013
 40
2.007
 50
244.231
 51
258.996
  0
ARC
  8
APS_GEOMETRY
 10
-64.305
 20
-377.445
 40
3.604
 50
258.996
 51
270.0
  0
ARC
  8
APS_GEOMETRY
 10
-64.305
 20
-377.824
 40
3.225
 50
270.0
 51
288.435
  0
ARC
  8
APS_GEOMETRY
 10
-64.073
 20
-378.518
 40
2.494
 50
288.435
 51
309.428
  0
ARC
  8
APS_GEOMETRY
 10
-63.989
 20
-378.605
 40
2.373
 50
309.193
 51
339.939
  0
ARC
  8
APS_GEOMETRY
 10
-66.924
 20
-377.534
 40
5.497
 50
339.939
 51
0.0
  0
ARC
  8
APS_GEOMETRY
 10
-66.601
 20
-377.534
 40
5.174
 50
0.0
 51
22.011
  0
ARC
  8
APS_GEOMETRY
 10
-64.308
 20
-376.607
 40
2.701
 50
22.011
 51
52.651
  0
ARC
  8
APS_GEOMETRY
 10
-64.344
 20
-376.631
 40
2.742
 50
52.374
 51
72.309
  0
ARC
  8
APS_GEOMETRY
 10
-64.566
 20
-377.329
 40
3.475
 50
72.309
 51
90.0
  0
ARC
  8
APS_GEOMETRY
 10
-64.566
 20
-375.88
 40
2.026
 50
90.0
 51
118.113
  0
ARC
  8
APS_GEOMETRY
 10
-65.308
 20
-374.492
 40
0.452
 50
118.113
 51
180.0
  0
ARC
  8
APS_GEOMETRY
 10
-39.391
 20
-382.984
 40
12.891
 50
71.91
 51
90.0
  0
ARC
  8
APS_GEOMETRY
 10
-38.892
 20
-381.456
 40
11.283
 50
52.561
 51
71.91
  0
ARC
  8
APS_GEOMETRY
 10
-39.023
 20
-381.494
 40
11.393
 50
38.846
 51
52.156
  0
ARC
  8
APS_GEOMETRY
 10
-40.809
 20
-382.932
 40
13.686
 50
26.707
 51
38.846
  0
ARC
  8
APS_GEOMETRY
 10
-40.455
 20
-382.644
 40
13.241
 50
13.868
 51
26.278
  0
ARC
  8
APS_GEOMETRY
 10
-37.905
 20
-382.014
 40
10.614
 50
360.0
 51
13.868
  0
ARC
  8
APS_GEOMETRY
 10
-37.74
 20
-382.014
 40
10.449
 50
339.712
 51
360.0
  0
ARC
  8
APS_GEOMETRY
 10
-38.329
 20
-381.797
 40
11.076
 50
320.013
 51
339.712
  0
ARC
  8
APS_GEOMETRY
 10
-38.426
 20
-381.743
 40
11.186
 50
303.344
 51
320.123
  0
ARC
  8
APS_GEOMETRY
 10
-39.574
 20
-379.998
 40
13.274
 50
287.949
 51
303.344
  0
ARC
  8
APS_GEOMETRY
 10
-39.951
 20
-378.691
 40
14.634
 50
279.039
 51
287.776
  0
ARC
  8
APS_GEOMETRY
 10
-39.8
 20
-379.64
 40
13.673
 50
270.0
 51
279.039
  0
ARC
  8
APS_GEOMETRY
 10
-39.8
 20
-380.308
 40
13.005
 50
257.728
 51
270.0
  0
ARC
  8
APS_GEOMETRY
 10
-39.78
 20
-380.214
 40
13.102
 50
245.501
 51
257.728
  0
ARC
  8
APS_GEOMETRY
 10
-40.516
 20
-381.825
 40
11.33
 50
228.665
 51
245.511
  0
ARC
  8
APS_GEOMETRY
 10
-40.761
 20
-382.103
 40
10.959
 50
211.535
 51
228.665
  0
ARC
  8
APS_GEOMETRY
 10
-40.44
 20
-381.868
 40
11.356
 50
195.642
 51
211.701
  0
ARC
  8
APS_GEOMETRY
 10
-39.853
 20
-381.703
 40
11.966
 50
180.0
 51
195.642
  0
ARC
  8
APS_GEOMETRY
 10
-39.727
 20
-381.703
 40
12.091
 50
162.181
 51
180.0
  0
ARC
  8
APS_GEOMETRY
 10
-40.83
 20
-381.349
 40
10.933
 50
143.434
 51
162.181
  0
ARC
  8
APS_GEOMETRY
 10
-40.979
 20
-381.23
 40
10.742
 50
126.384
 51
143.471
  0
ARC
  8
APS_GEOMETRY
 10
-39.962
 20
-382.61
 40
12.457
 50
110.525
 51
126.384
  0
ARC
  8
APS_GEOMETRY
 10
-40.012
 20
-382.235
 40
12.089
 50
99.77
 51
110.925
  0
ARC
  8
APS_GEOMETRY
 10
-39.391
 20
-385.841
 40
15.748
 50
90.0
 51
99.77
  0
ARC
  8
APS_GEOMETRY
 10
-40.945
 20
-377.19
 40
2.404
 50
90.0
 51
119.604
  0
ARC
  8
APS_GEOMETRY
 10
-40.734
 20
-377.561
 40
2.83
 50
119.604
 51
146.842
  0
ARC
  8
APS_GEOMETRY
 10
-40.311
 20
-377.908
 40
3.374
 50
145.84
 51
164.055
  0
ARC
  8
APS_GEOMETRY
 10
-39.33
 20
-378.188
 40
4.394
 50
164.055
 51
180.0
  0
ARC
  8
APS_GEOMETRY
 10
-33.198
 20
-378.188
 40
10.526
 50
180.0
 51
189.977
  0
ARC
  8
APS_GEOMETRY
 10
-23.872
 20
-376.547
 40
19.995
 50
189.977
 51
197.211
  0
ARC
  8
APS_GEOMETRY
 10
-21.833
 20
-375.915
 40
22.131
 50
197.211
 51
203.76
  0
ARC
  8
APS_GEOMETRY
 10
-26.914
 20
-378.152
 40
16.579
 50
203.76
 51
211.329
  0
ARC
  8
APS_GEOMETRY
 10
-37.348
 20
-384.414
 40
4.411
 50
212.32
 51
224.441
  0
ARC
  8
APS_GEOMETRY
 10
-37.776
 20
-384.834
 40
3.812
 50
224.441
 51
237.484
  0
ARC
  8
APS_GEOMETRY
 10
-38.052
 20
-385.267
 40
3.298
 50
237.484
 51
252.416
  0
ARC
  8
APS_GEOMETRY
 10
-38.328
 20
-386.139
 40
2.383
 50
252.416
 51
270.0
  0
ARC
  8
APS_GEOMETRY
 10
-38.328
 20
-385.856
 40
2.666
 50
270.0
 51
294.953
  0
ARC
  8
APS_GEOMETRY
 10
-38.254
 20
-386.017
 40
2.489
 50
294.953
 51
320.793
  0
ARC
  8
APS_GEOMETRY
 10
-38.654
 20
-385.69
 40
3.005
 50
320.793
 51
342.777
  0
ARC
  8
APS_GEOMETRY
 10
-40.438
 20
-385.137
 40
4.873
 50
342.777
 51
0.0
  0
ARC
  8
APS_GEOMETRY
 10
-48.818
 20
-385.137
 40
13.254
 50
0.0
 51
8.499
  0
ARC
  8
APS_GEOMETRY
 10
-54.652
 20
-386.009
 40
19.152
 50
8.499
 51
15.566
  0
ARC
  8
APS_GEOMETRY
 10
-53.951
 20
-385.814
 40
18.424
 50
15.566
 51
22.909
  0
ARC
  8
APS_GEOMETRY
 10
-47.919
 20
-383.264
 40
11.876
 50
22.909
 51
32.057
  0
ARC
  8
APS_GEOMETRY
 10
-43.181
 20
-380.28
 40
6.276
 50
31.921
 51
42.51
  0
ARC
  8
APS_GEOMETRY
 10
-41.88
 20
-379.087
 40
4.511
 50
42.51
 51
55.008
  0
ARC
  8
APS_GEOMETRY
 10
-41.441
 20
-378.459
 40
3.745
 50
55.008
 51
69.88
  0
ARC
  8
APS_GEOMETRY
 10
-41.046
 20
-377.384
 40
2.599
 50
69.88
 51
87.754
  0
ARC
  8
APS_GEOMETRY
 10
-14.134
 20
-384.696
 40
1.21
 50
90.0
 51
115.837
  0
ARC
  8
APS_GEOMETRY
 10
-14.432
 20
-384.08
 40
0.526
 50
115.837
 51
155.462
  0
ARC
  8
APS_GEOMETRY
 10
-14.085
 20
-384.239
 40
0.909
 50
155.462
 51
168.366
  0
ARC
  8
APS_GEOMETRY
 10
-10.912
 20
-384.892
 40
4.148
 50
168.366
 51
174.395
  0
ARC
  8
APS_GEOMETRY
 10
-7.714
 20
-385.206
 40
7.361
 50
174.395
 51
177.813
  0
ARC
  8
APS_GEOMETRY
 10
2.901
 20
-385.611
 40
17.983
 50
177.813
 51
180.0
  0
ARC
  8
APS_GEOMETRY
 10
10.585
 20
-385.611
 40
25.667
 50
180.0
 51
184.62
  0
ARC
  8
APS_GEOMETRY
 10
-6.625
 20
-387.002
 40
8.401
 50
184.62
 51
192.7
  0
ARC
  8
APS_GEOMETRY
 10
-13.26
 20
-388.459
 40
1.609
 50
194.036
 51
205.821
  0
ARC
  8
APS_GEOMETRY
 10
-13.963
 20
-388.799
 40
0.828
 50
205.821
 51
222.274
  0
ARC
  8
APS_GEOMETRY
 10
-13.748
 20
-388.603
 40
1.119
 50
222.274
 51
234.605
  0
ARC
  8
APS_GEOMETRY
 10
-11.318
 20
-385.183
 40
5.315
 50
234.605
 51
240.255
  0
ARC
  8
APS_GEOMETRY
 10
-15.012
 20
-391.72
 40
2.194
 50
34.592
 51
61.189
  0
ARC
  8
APS_GEOMETRY
 10
-14.287
 20
-391.22
 40
1.313
 50
360.0
 51
34.592
  0
ARC
  8
APS_GEOMETRY
 10
-14.243
 20
-391.22
 40
1.27
 50
318.231
 51
360.0
  0
ARC
  8
APS_GEOMETRY
 10
-15.092
 20
-390.462
 40
2.408
 50
288.227
 51
318.231
  0
ARC
  8
APS_GEOMETRY
 10
-15.973
 20
-387.788
 40
5.223
 50
280.377
 51
288.227
  0
ARC
  8
APS_GEOMETRY
 10
-17.508
 20
-379.406
 40
13.744
 50
275.541
 51
280.377
  0
ARC
  8
APS_GEOMETRY
 10
-18.169
 20
-372.587
 40
20.595
 50
272.304
 51
275.541
  0
ARC
  8
APS_GEOMETRY
 10
-18.974
 20
-352.569
 40
40.629
 50
270.0
 51
272.304
  0
ARC
  8
APS_GEOMETRY
 10
-18.974
 20
-369.299
 40
23.9
 50
262.811
 51
270.0
  0
ARC
  8
APS_GEOMETRY
 10
-21.119
 20
-386.302
 40
6.762
 50
249.274
 51
262.811
  0
ARC
  8
APS_GEOMETRY
 10
-22.468
 20
-389.867
 40
2.95
 50
221.379
 51
249.274
  0
ARC
  8
APS_GEOMETRY
 10
-23.651
 20
-390.909
 40
1.373
 50
180.0
 51
221.379
  0
ARC
  8
APS_GEOMETRY
 10
-23.66
 20
-390.909
 40
1.364
 50
164.055
 51
180.0
  0
ARC
  8
APS_GEOMETRY
 10
-24.229
 20
-390.747
 40
0.773
 50
142.815
 51
164.055
  0
ARC
  8
APS_GEOMETRY
 10
-23.871
 20
-391.018
 40
1.222
 50
129.007
 51
142.815
  0
ARC
  8
APS_GEOMETRY
 10
-19.475
 20
-396.446
 40
8.206
 50
123.69
 51
129.007
  0
ARC
  8
APS_GEOMETRY
 10
-25.713
 20
-387.059
 40
3.064
 50
303.389
 51
319.022
  0
ARC
  8
APS_GEOMETRY
 10
-24.884
 20
-387.779
 40
1.966
 50
319.022
 51
338.575
  0
ARC
  8
APS_GEOMETRY
 10
-25.994
 20
-387.344
 40
3.158
 50
338.575
 51
351.049
  0
ARC
  8
APS_GEOMETRY
 10
-39.397
 20
-385.233
 40
16.726
 50
351.049
 51
356.46
  0
ARC
  8
APS_GEOMETRY
 10
-34.979
 20
-385.401
 40
12.307
 50
355.972
 51
358.68
  0
ARC
  8
APS_GEOMETRY
 10
-180.074
 20
-382.058
 40
157.441
 50
358.68
 51
359.437
  0
LINE
  8
APS_GEOMETRY
 10
-22.641
 11
-22.626
 20
-383.604
 21
-381.148
  0
LINE
  8
APS_GEOMETRY
 10
-22.626
 11
-22.621
 20
-381.148
 21
-377.942
  0
ARC
  8
APS_GEOMETRY
 10
-60.525
 20
-377.942
 40
37.905
 50
360.0
 51
1.717
  0
ARC
  8
APS_GEOMETRY
 10
-40.241
 20
-377.334
 40
17.611
 50
1.717
 51
4.236
  0
ARC
  8
APS_GEOMETRY
 10
-33.627
 20
-376.844
 40
10.979
 50
4.236
 51
8.269
  0
ARC
  8
APS_GEOMETRY
 10
-26.015
 20
-375.738
 40
3.287
 50
8.269
 51
15.642
  0
ARC
  8
APS_GEOMETRY
 10
-24.705
 20
-375.371
 40
1.926
 50
15.642
 51
39.417
  0
ARC
  8
APS_GEOMETRY
 10
-24.675
 20
-375.347
 40
1.888
 50
39.417
 51
63.435
  0
ARC
  8
APS_GEOMETRY
 10
-21.275
 20
-368.302
 40
5.935
 50
236.874
 51
244.486
  0
ARC
  8
APS_GEOMETRY
 10
-23.804
 20
-372.179
 40
1.306
 50
220.601
 51
236.874
  0
ARC
  8
APS_GEOMETRY
 10
-24.095
 20
-372.428
 40
0.923
 50
198.246
 51
220.601
  0
ARC
  8
APS_GEOMETRY
 10
-23.661
 20
-372.285
 40
1.38
 50
180.0
 51
198.246
  0
ARC
  8
APS_GEOMETRY
 10
-23.667
 20
-372.285
 40
1.374
 50
156.161
 51
180.0
  0
ARC
  8
APS_GEOMETRY
 10
-23.476
 20
-372.369
 40
1.583
 50
133.977
 51
156.161
  0
ARC
  8
APS_GEOMETRY
 10
-23.094
 20
-372.765
 40
2.133
 50
116.996
 51
133.977
  0
ARC
  8
APS_GEOMETRY
 10
-22.335
 20
-374.254
 40
3.804
 50
104.3
 51
116.996
  0
ARC
  8
APS_GEOMETRY
 10
-22.139
 20
-375.007
 40
4.582
 50
95.326
 51
104.349
  0
ARC
  8
APS_GEOMETRY
 10
-21.345
 20
-383.524
 40
13.136
 50
90.0
 51
95.326
  0
ARC
  8
APS_GEOMETRY
 10
-21.345
 20
-376.894
 40
6.506
 50
87.553
 51
90.0
  0
ARC
  8
APS_GEOMETRY
 10
-22.73
 20
-409.288
 40
38.93
 50
86.553
 51
87.553
  0
ARC
  8
APS_GEOMETRY
 10
-24.698
 20
-441.962
 40
71.662
 50
86.009
 51
86.553
  0
ARC
  8
APS_GEOMETRY
 10
-32.352
 20
-551.668
 40
181.636
 50
85.668
 51
86.009
  0
ARC
  8
APS_GEOMETRY
 10
-18.028
 20
-363.013
 40
7.563
 50
265.426
 51
268.531
  0
ARC
  8
APS_GEOMETRY
 10
-17.356
 20
-336.791
 40
33.793
 50
268.531
 51
270.0
  0
ARC
  8
APS_GEOMETRY
 10
-17.356
 20
-344.829
 40
25.755
 50
270.0
 51
271.637
  0
ARC
  8
APS_GEOMETRY
 10
-17.931
 20
-324.687
 40
45.906
 50
271.637
 51
272.862
  0
ARC
  8
APS_GEOMETRY
 10
-18.592
 20
-311.472
 40
59.137
 50
272.862
 51
273.814
  0
ARC
  8
APS_GEOMETRY
 10
-20.829
 20
-277.92
 40
92.764
 50
273.814
 51
274.574
  0
ARC
  8
APS_GEOMETRY
 10
-6.798
 20
-460.415
 40
90.271
 50
93.72
 51
94.214
  0
ARC
  8
APS_GEOMETRY
 10
-9.792
 20
-414.356
 40
44.115
 50
93.013
 51
93.72
  0
ARC
  8
APS_GEOMETRY
 10
-10.613
 20
-398.758
 40
28.496
 50
91.918
 51
93.013
  0
ARC
  8
APS_GEOMETRY
 10
-11.256
 20
-379.551
 40
9.277
 50
90.0
 51
91.918
  0
ARC
  8
APS_GEOMETRY
 10
-11.256
 20
-382.328
 40
12.054
 50
73.82
 51
90.0
  0
ARC
  8
APS_GEOMETRY
 10
-10.068
 20
-378.233
 40
7.791
 50
53.658
 51
73.82
  0
ARC
  8
APS_GEOMETRY
 10
-8.378
 20
-375.923
 40
4.929
 50
26.03
 51
53.569
  0
ARC
  8
APS_GEOMETRY
 10
-8.897
 20
-376.176
 40
5.506
 50
360.0
 51
26.03
  0
ARC
  8
APS_GEOMETRY
 10
-9.113
 20
-376.176
 40
5.722
 50
345.282
 51
360.0
  0
ARC
  8
APS_GEOMETRY
 10
-8.562
 20
-376.321
 40
5.152
 50
329.767
 51
345.282
  0
ARC
  8
APS_GEOMETRY
 10
-8.251
 20
-376.503
 40
4.792
 50
313.168
 51
329.767
  0
ARC
  8
APS_GEOMETRY
 10
-8.135
 20
-376.626
 40
4.623
 50
296.267
 51
313.168
  0
ARC
  8
APS_GEOMETRY
 10
-5.503
 20
-381.943
 40
1.31
 50
116.565
 51
139.899
  0
ARC
  8
APS_GEOMETRY
 10
-6.157
 20
-381.393
 40
0.456
 50
139.899
 51
180.0
  0
ARC
  8
APS_GEOMETRY
 10
-6.106
 20
-381.393
 40
0.506
 50
180.0
 51
226.193
  0
ARC
  8
APS_GEOMETRY
 10
-5.171
 20
-380.417
 40
1.858
 50
226.193
 51
249.829
  0
ARC
  8
APS_GEOMETRY
 10
-7.851
 20
-387.798
 40
5.995
 50
53.249
 51
70.105
  0
ARC
  8
APS_GEOMETRY
 10
-6.634
 20
-386.167
 40
3.96
 50
32.471
 51
53.249
  0
ARC
  8
APS_GEOMETRY
 10
-7.201
 20
-386.529
 40
4.632
 50
23.305
 51
32.471
  0
ARC
  8
APS_GEOMETRY
 10
-10.706
 20
-388.038
 40
8.449
 50
16.521
 51
23.305
  0
ARC
  8
APS_GEOMETRY
 10
-13.439
 20
-388.849
 40
11.299
 50
11.429
 51
16.521
  0
ARC
  8
APS_GEOMETRY
 10
-21.184
 20
-390.415
 40
19.201
 50
7.524
 51
11.429
  0
ARC
  8
APS_GEOMETRY
 10
4.48
 20
-386.997
 40
6.69
 50
187.765
 51
196.914
  0
ARC
  8
APS_GEOMETRY
 10
-0.991
 20
-388.661
 40
0.971
 50
196.914
 51
221.082
  0
ARC
  8
APS_GEOMETRY
 10
-0.971
 20
-388.642
 40
0.999
 50
221.082
 51
244.607
  0
ARC
  8
APS_GEOMETRY
 10
1.366
 20
-383.72
 40
6.448
 50
244.607
 51
253.811
  0
ARC
  8
APS_GEOMETRY
 10
-0.688
 20
-390.725
 40
0.852
 50
51.45
 51
72.474
  0
ARC
  8
APS_GEOMETRY
 10
-0.899
 20
-390.989
 40
1.191
 50
33.69
 51
51.45
  0
ARC
  8
APS_GEOMETRY
 10
-0.948
 20
-391.022
 40
1.25
 50
16.639
 51
33.69
  0
ARC
  8
APS_GEOMETRY
 10
-1.008
 20
-391.04
 40
1.312
 50
360.0
 51
16.639
  0
ARC
  8
APS_GEOMETRY
 10
-1.026
 20
-391.04
 40
1.331
 50
338.993
 51
360.0
  0
ARC
  8
APS_GEOMETRY
 10
-1.839
 20
-390.728
 40
2.201
 50
322.696
 51
338.993
  0
ARC
  8
APS_GEOMETRY
 10
-2.142
 20
-390.497
 40
2.582
 50
308.603
 51
322.696
  0
ARC
  8
APS_GEOMETRY
 10
-2.35
 20
-390.237
 40
2.916
 50
295.346
 51
308.603
  0
ARC
  8
APS_GEOMETRY
 10
-3.446
 20
-387.823
 40
5.566
 50
279.583
 51
294.905
  0
ARC
  8
APS_GEOMETRY
 10
-4.879
 20
-379.333
 40
14.176
 50
270.0
 51
279.583
  0
ARC
  8
APS_GEOMETRY
 10
-4.879
 20
-383.173
 40
10.336
 50
261.247
 51
270.0
  0
ARC
  8
APS_GEOMETRY
 10
-5.541
 20
-387.474
 40
5.985
 50
249.737
 51
261.247
  0
ARC
  8
APS_GEOMETRY
 10
-5.976
 20
-388.653
 40
4.728
 50
235.345
 51
249.737
  0
ARC
  8
APS_GEOMETRY
 10
-6.526
 20
-389.448
 40
3.762
 50
219.198
 51
235.345
  0
ARC
  8
APS_GEOMETRY
 10
-5.37
 20
-388.461
 40
5.281
 50
209.076
 51
219.56
  0
ARC
  8
APS_GEOMETRY
 10
-2.699
 20
-386.977
 40
8.337
 50
200.735
 51
209.076
  0
ARC
  8
APS_GEOMETRY
 10
0.986
 20
-385.582
 40
12.277
 50
197.881
 51
200.735
  0
ARC
  8
APS_GEOMETRY
 10
16.126
 20
-380.697
 40
28.186
 50
195.997
 51
197.881
  0
ARC
  8
APS_GEOMETRY
 10
27.317
 20
-377.488
 40
39.828
 50
194.664
 51
195.997
  0
ARC
  8
APS_GEOMETRY
 10
58.315
 20
-369.377
 40
71.869
 50
193.671
 51
194.664
  0
ARC
  8
APS_GEOMETRY
 10
-20.29
 20
-388.487
 40
9.026
 50
13.61
 51
23.585
  0
ARC
  8
APS_GEOMETRY
 10
-14.381
 20
-385.907
 40
2.577
 50
23.585
 51
42.31
  0
ARC
  8
APS_GEOMETRY
 10
-13.845
 20
-385.42
 40
1.853
 50
42.31
 51
67.521
  0
ARC
  8
APS_GEOMETRY
 10
-14.269
 20
-386.445
 40
2.962
 50
67.521
 51
87.397
  0
LINE
  8
APS_GEOMETRY
 10
-15.066
 11
-15.246
 20
-375.146
 21
-378.956
  0
LINE
  8
APS_GEOMETRY
 10
-15.246
 11
-15.246
 20
-378.956
 21
-379.018
  0
LINE
  8
APS_GEOMETRY
 10
-15.246
 11
-15.246
 20
-379.018
 21
-379.103
  0
ARC
  8
APS_GEOMETRY
 10
-12.599
 20
-379.103
 40
2.647
 50
180.0
 51
192.339
  0
ARC
  8
APS_GEOMETRY
 10
-14.704
 20
-379.564
 40
0.493
 50
192.339
 51
221.186
  0
ARC
  8
APS_GEOMETRY
 10
-14.754
 20
-379.608
 40
0.426
 50
221.186
 51
253.872
  0
ARC
  8
APS_GEOMETRY
 10
-14.396
 20
-378.37
 40
1.715
 50
253.872
 51
270.0
  0
ARC
  8
APS_GEOMETRY
 10
-14.396
 20
-376.099
 40
3.985
 50
270.0
 51
289.569
  0
ARC
  8
APS_GEOMETRY
 10
-13.671
 20
-378.137
 40
1.822
 50
289.569
 51
318.681
  0
ARC
  8
APS_GEOMETRY
 10
-13.867
 20
-377.965
 40
2.083
 50
318.681
 51
344.628
  0
ARC
  8
APS_GEOMETRY
 10
-17.519
 20
-376.961
 40
5.87
 50
344.628
 51
0.0
  0
ARC
  8
APS_GEOMETRY
 10
-15.783
 20
-376.961
 40
4.134
 50
0.0
 51
35.369
  0
ARC
  8
APS_GEOMETRY
 10
-13.889
 20
-375.617
 40
1.812
 50
35.369
 51
90.0
  0
ARC
  8
APS_GEOMETRY
 10
-13.889
 20
-375.637
 40
1.831
 50
90.0
 51
108.435
  0
ARC
  8
APS_GEOMETRY
 10
-14.245
 20
-374.568
 40
0.705
 50
108.435
 51
138.366
  0
ARC
  8
APS_GEOMETRY
 10
-14.15
 20
-374.653
 40
0.833
 50
138.366
 51
164.291
  0
ARC
  8
APS_GEOMETRY
 10
-11.907
 20
-375.284
 40
3.162
 50
164.291
 51
177.51
  0
LINE
  8
APS_GEOMETRY
 10
10.191
 11
18.808
 20
-370.551
 21
-370.551
  0
ARC
  8
APS_GEOMETRY
 10
18.372
 20
-358.204
 40
12.355
 50
272.021
 51
278.44
  0
ARC
  8
APS_GEOMETRY
 10
18.858
 20
-361.482
 40
9.042
 50
278.44
 51
285.945
  0
ARC
  8
APS_GEOMETRY
 10
22.517
 20
-374.58
 40
4.559
 50
98.584
 51
104.931
  0
ARC
  8
APS_GEOMETRY
 10
22.209
 20
-372.54
 40
2.495
 50
90.0
 51
98.584
  0
ARC
  8
APS_GEOMETRY
 10
22.209
 20
-371.92
 40
1.876
 50
52.871
 51
90.0
  0
ARC
  8
APS_GEOMETRY
 10
19.665
 20
-375.281
 40
6.091
 50
32.518
 51
52.871
  0
ARC
  8
APS_GEOMETRY
 10
17.649
 20
-376.566
 40
8.481
 50
17.209
 51
32.518
  0
ARC
  8
APS_GEOMETRY
 10
19.329
 20
-376.046
 40
6.723
 50
360.0
 51
17.209
  0
ARC
  8
APS_GEOMETRY
 10
22.693
 20
-376.046
 40
3.359
 50
337.348
 51
360.0
  0
ARC
  8
APS_GEOMETRY
 10
24.043
 20
-376.609
 40
1.896
 50
307.042
 51
337.348
  0
ARC
  8
APS_GEOMETRY
 10
23.808
 20
-376.287
 40
2.295
 50
287.186
 51
306.87
  0
ARC
  8
APS_GEOMETRY
 10
23.599
 20
-375.61
 40
3.003
 50
270.0
 51
287.186
  0
ARC
  8
APS_GEOMETRY
 10
23.599
 20
-375.916
 40
2.697
 50
252.221
 51
270.0
  0
ARC
  8
APS_GEOMETRY
 10
23.473
 20
-376.308
 40
2.286
 50
232.896
 51
252.221
  0
ARC
  8
APS_GEOMETRY
 10
23.959
 20
-375.666
 40
3.09
 50
218.3
 51
232.896
  0
ARC
  8
APS_GEOMETRY
 10
27.749
 20
-372.673
 40
7.92
 50
209.197
 51
218.3
  0
ARC
  8
APS_GEOMETRY
 10
8.472
 20
-383.117
 40
14.006
 50
28.025
 51
32.699
  0
ARC
  8
APS_GEOMETRY
 10
18.55
 20
-376.647
 40
2.03
 50
32.699
 51
45.0
  0
ARC
  8
APS_GEOMETRY
 10
19.237
 20
-375.96
 40
1.058
 50
45.0
 51
67.557
  0
ARC
  8
APS_GEOMETRY
 10
19.233
 20
-375.97
 40
1.069
 50
67.557
 51
90.0
  0
ARC
  8
APS_GEOMETRY
 10
19.233
 20
-375.885
 40
0.984
 50
90.0
 51
120.801
  0
ARC
  8
APS_GEOMETRY
 10
19.2
 20
-375.83
 40
0.919
 50
120.801
 51
152.7
  0
ARC
  8
APS_GEOMETRY
 10
19.929
 20
-376.206
 40
1.74
 50
152.7
 51
171.085
  0
ARC
  8
APS_GEOMETRY
 10
25.474
 20
-377.076
 40
7.353
 50
171.085
 51
180.0
  0
LINE
  8
APS_GEOMETRY
 10
18.121
 11
18.121
 20
-377.076
 21
-386.233
  0
ARC
  8
APS_GEOMETRY
 10
27.835
 20
-386.233
 40
9.714
 50
180.0
 51
188.194
  0
ARC
  8
APS_GEOMETRY
 10
20.581
 20
-387.277
 40
2.385
 50
188.194
 51
204.775
  0
ARC
  8
APS_GEOMETRY
 10
19.876
 20
-387.603
 40
1.609
 50
204.775
 51
228.576
  0
ARC
  8
APS_GEOMETRY
 10
20.537
 20
-386.853
 40
2.608
 50
228.576
 51
247.218
  0
ARC
  8
APS_GEOMETRY
 10
16.703
 20
-395.889
 40
7.208
 50
59.381
 51
66.93
  0
ARC
  8
APS_GEOMETRY
 10
19.533
 20
-391.107
 40
1.65
 50
43.568
 51
59.381
  0
ARC
  8
APS_GEOMETRY
 10
19.986
 20
-390.676
 40
1.025
 50
19.041
 51
43.568
  0
ARC
  8
APS_GEOMETRY
 10
19.357
 20
-390.893
 40
1.691
 50
360.0
 51
19.041
  0
ARC
  8
APS_GEOMETRY
 10
19.674
 20
-390.893
 40
1.374
 50
317.66
 51
360.0
  0
ARC
  8
APS_GEOMETRY
 10
18.413
 20
-389.744
 40
3.08
 50
289.747
 51
317.66
  0
ARC
  8
APS_GEOMETRY
 10
17.357
 20
-386.801
 40
6.206
 50
281.964
 51
289.747
  0
ARC
  8
APS_GEOMETRY
 10
15.894
 20
-379.896
 40
13.265
 50
276.643
 51
281.964
  0
ARC
  8
APS_GEOMETRY
 10
15.278
 20
-374.608
 40
18.589
 50
272.836
 51
276.643
  0
ARC
  8
APS_GEOMETRY
 10
14.54
 20
-359.72
 40
33.495
 50
270.0
 51
272.836
  0
ARC
  8
APS_GEOMETRY
 10
14.54
 20
-350.495
 40
42.72
 50
267.283
 51
270.0
  0
ARC
  8
APS_GEOMETRY
 10
13.643
 20
-369.396
 40
23.797
 50
263.643
 51
267.283
  0
ARC
  8
APS_GEOMETRY
 10
12.892
 20
-376.138
 40
17.014
 50
258.563
 51
263.643
  0
ARC
  8
APS_GEOMETRY
 10
11.098
 20
-385.008
 40
7.964
 50
251.136
 51
258.563
  0
ARC
  8
APS_GEOMETRY
 10
9.496
 20
-389.654
 40
3.05
 50
222.558
 51
251.395
  0
ARC
  8
APS_GEOMETRY
 10
8.307
 20
-390.746
 40
1.436
 50
180.0
 51
222.558
  0
ARC
  8
APS_GEOMETRY
 10
8.067
 20
-390.746
 40
1.196
 50
150.642
 51
180.0
  0
ARC
  8
APS_GEOMETRY
 10
8.163
 20
-390.8
 40
1.306
 50
122.574
 51
150.642
  0
ARC
  8
APS_GEOMETRY
 10
7.909
 20
-390.509
 40
0.926
 50
108.677
 51
119.055
  0
ARC
  8
APS_GEOMETRY
 10
19.467
 20
-424.7
 40
37.018
 50
107.038
 51
108.677
  0
ARC
  8
APS_GEOMETRY
 10
8.19
 20
-387.819
 40
1.549
 50
286.144
 51
308.66
  0
ARC
  8
APS_GEOMETRY
 10
8.444
 20
-388.136
 40
1.143
 50
308.66
 51
334.933
  0
ARC
  8
APS_GEOMETRY
 10
7.411
 20
-387.653
 40
2.283
 50
334.933
 51
348.829
  0
ARC
  8
APS_GEOMETRY
 10
-5.502
 20
-385.103
 40
15.445
 50
348.829
 51
354.161
  0
ARC
  8
APS_GEOMETRY
 10
-14.23
 20
-384.203
 40
24.219
 50
354.144
 51
355.66
  0
ARC
  8
APS_GEOMETRY
 10
-52.918
 20
-381.267
 40
63.019
 50
355.66
 51
356.6
  0
ARC
  8
APS_GEOMETRY
 10
-82.492
 20
-379.51
 40
92.646
 50
356.6
 51
357.24
  0
ARC
  8
APS_GEOMETRY
 10
-166.405
 20
-375.465
 40
176.656
 50
357.24
 51
357.703
  0
ARC
  8
APS_GEOMETRY
 10
-158.145
 20
-375.796
 40
168.389
 50
357.703
 51
358.674
  0
ARC
  8
APS_GEOMETRY
 10
-80.228
 20
-377.599
 40
90.452
 50
358.674
 51
0.0
  0
ARC
  8
APS_GEOMETRY
 10
-3.182
 20
-377.599
 40
13.405
 50
0.0
 51
6.242
  0
ARC
  8
APS_GEOMETRY
 10
7.478
 20
-376.433
 40
2.682
 50
6.242
 51
20.225
  0
ARC
  8
APS_GEOMETRY
 10
8.955
 20
-375.889
 40
1.107
 50
20.225
 51
50.44
  0
ARC
  8
APS_GEOMETRY
 10
9.242
 20
-375.542
 40
0.657
 50
50.44
 51
90.0
  0
ARC
  8
APS_GEOMETRY
 10
9.242
 20
-375.766
 40
0.881
 50
90.0
 51
126.747
  0
ARC
  8
APS_GEOMETRY
 10
10.487
 20
-377.433
 40
2.962
 50
126.747
 51
146.547
  0
ARC
  8
APS_GEOMETRY
 10
-11.507
 20
-362.977
 40
23.357
 50
324.255
 51
326.701
  0
ARC
  8
APS_GEOMETRY
 10
-2.195
 20
-369.679
 40
11.885
 50
320.826
 51
324.255
  0
ARC
  8
APS_GEOMETRY
 10
0.848
 20
-372.159
 40
7.959
 50
315.722
 51
320.826
  0
ARC
  8
APS_GEOMETRY
 10
4.345
 20
-375.569
 40
3.075
 50
307.504
 51
315.722
  0
ARC
  8
APS_GEOMETRY
 10
4.022
 20
-375.138
 40
3.613
 50
291.306
 51
307.405
  0
ARC
  8
APS_GEOMETRY
 10
4.582
 20
-376.572
 40
2.073
 50
270.0
 51
291.306
  0
ARC
  8
APS_GEOMETRY
 10
4.582
 20
-376.706
 40
1.939
 50
245.532
 51
270.0
  0
ARC
  8
APS_GEOMETRY
 10
4.567
 20
-376.738
 40
1.904
 50
220.833
 51
245.532
  0
ARC
  8
APS_GEOMETRY
 10
4.764
 20
-376.568
 40
2.164
 50
198.684
 51
220.833
  0
ARC
  8
APS_GEOMETRY
 10
5.585
 20
-376.291
 40
3.03
 50
180.0
 51
198.684
  0
ARC
  8
APS_GEOMETRY
 10
7.508
 20
-376.291
 40
4.954
 50
168.408
 51
180.0
  0
ARC
  8
APS_GEOMETRY
 10
10.685
 20
-376.942
 40
8.196
 50
159.402
 51
168.408
  0
ARC
  8
APS_GEOMETRY
 10
11.666
 20
-377.311
 40
9.245
 50
151.39
 51
159.402
  0
ARC
  8
APS_GEOMETRY
 10
11.465
 20
-377.202
 40
9.016
 50
143.276
 51
151.39
  0
ARC
  8
APS_GEOMETRY
 10
8.94
 20
-375.314
 40
5.863
 50
124.216
 51
143.31
  0
ARC
  8
APS_GEOMETRY
 10
6.691
 20
-372.007
 40
1.864
 50
90.0
 51
124.216
  0
ARC
  8
APS_GEOMETRY
 10
6.691
 20
-372.835
 40
2.692
 50
82.725
 51
90.0
  0
ARC
  8
APS_GEOMETRY
 10
6.481
 20
-374.483
 40
4.353
 50
77.005
 51
82.725
  0
ARC
  8
APS_GEOMETRY
 10
12.905
 20
-343.509
 40
27.28
 50
258.486
 51
260.378
  0
ARC
  8
APS_GEOMETRY
 10
10.153
 20
-359.742
 40
10.816
 50
260.378
 51
263.382
  0
ARC
  8
APS_GEOMETRY
 10
9.918
 20
-361.771
 40
8.774
 50
263.382
 51
267.084
  0
ARC
  8
APS_GEOMETRY
 10
10.191
 20
-356.415
 40
14.137
 50
267.084
 51
270.0
  0
LINE
  8
APS_GEOMETRY
 10
31.899
 11
40.304
 20
-370.551
 21
-370.551
  0
ARC
  8
APS_GEOMETRY
 10
40.304
 20
-264.692
 40
105.86
 50
270.0
 51
270.69
  0
ARC
  8
APS_GEOMETRY
 10
40.901
 20
-314.22
 40
56.328
 50
270.69
 51
271.637
  0
ARC
  8
APS_GEOMETRY
 10
41.403
 20
-331.817
 40
38.724
 50
271.637
 51
273.013
  0
ARC
  8
APS_GEOMETRY
 10
42.629
 20
-355.098
 40
15.41
 50
273.013
 51
275.194
  0
ARC
  8
APS_GEOMETRY
 10
42.932
 20
-358.439
 40
12.056
 50
275.194
 51
280.756
  0
ARC
  8
APS_GEOMETRY
 10
42.99
 20
-358.739
 40
11.75
 50
280.756
 51
286.39
  0
ARC
  8
APS_GEOMETRY
 10
47.296
 20
-373.482
 40
3.609
 50
100.305
 51
105.945
  0
ARC
  8
APS_GEOMETRY
 10
46.845
 20
-370.997
 40
1.083
 50
90.0
 51
100.305
  0
ARC
  8
APS_GEOMETRY
 10
46.845
 20
-371.384
 40
1.47
 50
58.946
 51
90.0
  0
ARC
  8
APS_GEOMETRY
 10
46.282
 20
-372.317
 40
2.56
 50
35.538
 51
58.946
  0
ARC
  8
APS_GEOMETRY
 10
44.088
 20
-373.932
 40
5.284
 50
16.699
 51
35.952
  0
ARC
  8
APS_GEOMETRY
 10
42.437
 20
-374.427
 40
7.007
 50
360.0
 51
16.699
  0
ARC
  8
APS_GEOMETRY
 10
45.513
 20
-374.427
 40
3.932
 50
344.982
 51
360.0
  0
ARC
  8
APS_GEOMETRY
 10
47.4
 20
-374.933
 40
1.978
 50
323.746
 51
344.982
  0
ARC
  8
APS_GEOMETRY
 10
47.819
 20
-375.241
 40
1.458
 50
296.114
 51
323.746
  0
ARC
  8
APS_GEOMETRY
 10
47.744
 20
-375.087
 40
1.629
 50
270.0
 51
296.114
  0
ARC
  8
APS_GEOMETRY
 10
47.744
 20
-374.674
 40
2.042
 50
255.311
 51
270.0
  0
ARC
  8
APS_GEOMETRY
 10
47.471
 20
-375.715
 40
0.965
 50
233.881
 51
255.311
  0
ARC
  8
APS_GEOMETRY
 10
47.758
 20
-375.322
 40
1.453
 50
219.289
 51
233.881
  0
ARC
  8
APS_GEOMETRY
 10
53.523
 20
-370.605
 40
8.902
 50
213.408
 51
219.289
  0
ARC
  8
APS_GEOMETRY
 10
42.723
 20
-377.719
 40
4.031
 50
33.294
 51
51.246
  0
ARC
  8
APS_GEOMETRY
 10
43.272
 20
-377.035
 40
3.154
 50
51.246
 51
71.565
  0
ARC
  8
APS_GEOMETRY
 10
42.909
 20
-378.124
 40
4.302
 50
71.565
 51
79.278
  0
ARC
  8
APS_GEOMETRY
 10
41.745
 20
-384.272
 40
10.559
 50
79.278
 51
84.2
  0
ARC
  8
APS_GEOMETRY
 10
41.248
 20
-389.161
 40
15.473
 50
84.2
 51
87.567
  0
ARC
  8
APS_GEOMETRY
 10
40.647
 20
-403.3
 40
29.625
 50
87.567
 51
90.0
  0
ARC
  8
APS_GEOMETRY
 10
40.647
 20
-382.003
 40
8.328
 50
90.0
 51
96.374
  0
ARC
  8
APS_GEOMETRY
 10
40.095
 20
-377.054
 40
3.349
 50
96.374
 51
106.434
  0
ARC
  8
APS_GEOMETRY
 10
39.702
 20
-375.723
 40
1.961
 50
106.434
 51
123.056
  0
ARC
  8
APS_GEOMETRY
 10
39.089
 20
-374.78
 40
0.836
 50
123.056
 51
148.627
  0
ARC
  8
APS_GEOMETRY
 10
39.649
 20
-375.098
 40
1.48
 50
149.421
 51
165.28
  0
ARC
  8
APS_GEOMETRY
 10
41.263
 20
-375.522
 40
3.149
 50
165.28
 51
176.135
  0
ARC
  8
APS_GEOMETRY
 10
45.884
 20
-375.834
 40
7.781
 50
176.135
 51
178.367
  0
ARC
  8
APS_GEOMETRY
 10
88.637
 20
-377.054
 40
50.551
 50
178.367
 51
179.242
  0
ARC
  8
APS_GEOMETRY
 10
132.821
 20
-377.638
 40
94.739
 50
179.242
 51
179.709
  0
ARC
  8
APS_GEOMETRY
 10
283.146
 20
-378.4
 40
245.066
 50
179.709
 51
180.0
  0
ARC
  8
APS_GEOMETRY
 10
41.626
 20
-378.4
 40
3.545
 50
180.0
 51
195.027
  0
ARC
  8
APS_GEOMETRY
 10
38.726
 20
-379.179
 40
0.543
 50
195.027
 51
234.058
  0
ARC
  8
APS_GEOMETRY
 10
38.754
 20
-379.14
 40
0.591
 50
234.058
 51
253.191
  0
ARC
  8
APS_GEOMETRY
 10
39.373
 20
-377.092
 40
2.731
 50
253.191
 51
262.063
  0
ARC
  8
APS_GEOMETRY
 10
39.69
 20
-374.819
 40
5.025
 50
262.063
 51
266.949
  0
ARC
  8
APS_GEOMETRY
 10
40.108
 20
-366.978
 40
12.877
 50
266.949
 51
270.0
  0
ARC
  8
APS_GEOMETRY
 10
40.108
 20
-377.495
 40
2.361
 50
270.0
 51
286.007
  0
ARC
  8
APS_GEOMETRY
 10
40.521
 20
-378.935
 40
0.862
 50
286.007
 51
312.647
  0
ARC
  8
APS_GEOMETRY
 10
40.512
 20
-378.926
 40
0.875
 50
312.647
 51
338.993
  0
ARC
  8
APS_GEOMETRY
 10
38.725
 20
-378.239
 40
2.79
 50
338.993
 51
353.66
  0
ARC
  8
APS_GEOMETRY
 10
57.184
 20
-380.441
 40
15.801
 50
169.663
 51
173.118
  0
ARC
  8
APS_GEOMETRY
 10
43.99
 20
-378.034
 40
2.388
 50
160.769
 51
169.663
  0
ARC
  8
APS_GEOMETRY
 10
42.886
 20
-377.649
 40
1.219
 50
143.746
 51
160.769
  0
ARC
  8
APS_GEOMETRY
 10
43.153
 20
-377.845
 40
1.55
 50
128.66
 51
143.746
  0
ARC
  8
APS_GEOMETRY
 10
42.975
 20
-377.557
 40
1.215
 50
110.171
 51
130.601
  0
ARC
  8
APS_GEOMETRY
 10
42.986
 20
-377.586
 40
1.246
 50
90.0
 51
110.171
  0
ARC
  8
APS_GEOMETRY
 10
42.986
 20
-377.604
 40
1.264
 50
61.22
 51
90.0
  0
ARC
  8
APS_GEOMETRY
 10
42.765
 20
-378.005
 40
1.722
 50
36.634
 51
61.22
  0
ARC
  8
APS_GEOMETRY
 10
42.558
 20
-378.128
 40
1.961
 50
19.103
 51
35.91
  0
ARC
  8
APS_GEOMETRY
 10
36.16
 20
-380.344
 40
8.732
 50
11.16
 51
19.103
  0
ARC
  8
APS_GEOMETRY
 10
32.818
 20
-381.003
 40
12.139
 50
5.396
 51
11.16
  0
ARC
  8
APS_GEOMETRY
 10
31.118
 20
-381.164
 40
13.846
 50
360.0
 51
5.396
  0
ARC
  8
APS_GEOMETRY
 10
31.359
 20
-381.164
 40
13.605
 50
349.287
 51
360.0
  0
ARC
  8
APS_GEOMETRY
 10
38.038
 20
-382.427
 40
6.808
 50
334.12
 51
349.287
  0
ARC
  8
APS_GEOMETRY
 10
42.639
 20
-384.651
 40
1.698
 50
303.53
 51
333.853
  0
ARC
  8
APS_GEOMETRY
 10
42.806
 20
-384.902
 40
1.396
 50
270.0
 51
303.53
  0
ARC
  8
APS_GEOMETRY
 10
42.806
 20
-384.837
 40
1.461
 50
249.578
 51
270.0
  0
ARC
  8
APS_GEOMETRY
 10
42.495
 20
-385.672
 40
0.57
 50
216.607
 51
249.578
  0
ARC
  8
APS_GEOMETRY
 10
42.792
 20
-385.451
 40
0.94
 50
195.422
 51
216.607
  0
ARC
  8
APS_GEOMETRY
 10
47.923
 20
-384.036
 40
6.263
 50
187.253
 51
195.422
  0
ARC
  8
APS_GEOMETRY
 10
39.637
 20
-385.102
 40
2.092
 50
7.561
 51
49.434
  0
ARC
  8
APS_GEOMETRY
 10
39.552
 20
-385.201
 40
2.222
 50
49.434
 51
90.0
  0
ARC
  8
APS_GEOMETRY
 10
39.552
 20
-384.474
 40
1.495
 50
90.0
 51
115.224
  0
ARC
  8
APS_GEOMETRY
 10
39.256
 20
-383.846
 40
0.801
 50
115.224
 51
149.931
  0
ARC
  8
APS_GEOMETRY
 10
39.791
 20
-384.156
 40
1.419
 50
149.931
 51
171.111
  0
ARC
  8
APS_GEOMETRY
 10
46.274
 20
-385.17
 40
7.982
 50
171.111
 51
180.0
  0
ARC
  8
APS_GEOMETRY
 10
52.662
 20
-385.17
 40
14.369
 50
180.0
 51
183.062
  0
ARC
  8
APS_GEOMETRY
 10
74.656
 20
-383.993
 40
36.395
 50
183.062
 51
184.986
  0
ARC
  8
APS_GEOMETRY
 10
63.12
 20
-385.0
 40
24.815
 50
184.986
 51
187.804
  0
ARC
  8
APS_GEOMETRY
 10
41.269
 20
-387.995
 40
2.76
 50
187.804
 51
196.26
  0
ARC
  8
APS_GEOMETRY
 10
39.342
 20
-388.575
 40
0.748
 50
194.931
 51
230.024
  0
ARC
  8
APS_GEOMETRY
 10
39.833
 20
-387.99
 40
1.511
 50
230.024
 51
254.511
  0
ARC
  8
APS_GEOMETRY
 10
40.428
 20
-385.839
 40
3.742
 50
254.511
 51
265.219
  0
ARC
  8
APS_GEOMETRY
 10
41.677
 20
-370.906
 40
18.728
 50
265.219
 51
270.0
  0
ARC
  8
APS_GEOMETRY
 10
41.677
 20
-372.886
 40
16.748
 50
270.0
 51
274.186
  0
ARC
  8
APS_GEOMETRY
 10
42.187
 20
-379.844
 40
9.771
 50
274.186
 51
279.668
  0
ARC
  8
APS_GEOMETRY
 10
42.605
 20
-382.298
 40
7.282
 50
279.668
 51
286.991
  0
ARC
  8
APS_GEOMETRY
 10
43.561
 20
-385.428
 40
4.009
 50
286.991
 51
296.866
  0
ARC
  8
APS_GEOMETRY
 10
43.76
 20
-385.82
 40
3.569
 50
296.866
 51
318.366
  0
ARC
  8
APS_GEOMETRY
 10
41.76
 20
-384.043
 40
6.245
 50
318.366
 51
334.581
  0
ARC
  8
APS_GEOMETRY
 10
54.925
 20
-390.356
 40
8.355
 50
147.08
 51
154.231
  0
ARC
  8
APS_GEOMETRY
 10
49.422
 20
-386.793
 40
1.8
 50
131.634
 51
147.08
  0
ARC
  8
APS_GEOMETRY
 10
49.012
 20
-386.331
 40
1.182
 50
108.875
 51
131.634
  0
ARC
  8
APS_GEOMETRY
 10
49.183
 20
-386.832
 40
1.712
 50
90.0
 51
108.875
  0
ARC
  8
APS_GEOMETRY
 10
49.183
 20
-386.485
 40
1.364
 50
62.628
 51
90.0
  0
ARC
  8
APS_GEOMETRY
 10
49.097
 20
-386.651
 40
1.551
 50
36.995
 51
62.628
  0
ARC
  8
APS_GEOMETRY
 10
48.71
 20
-386.943
 40
2.036
 50
16.728
 51
36.995
  0
ARC
  8
APS_GEOMETRY
 10
47.807
 20
-387.214
 40
2.978
 50
360.0
 51
16.728
  0
ARC
  8
APS_GEOMETRY
 10
46.019
 20
-387.214
 40
4.766
 50
348.323
 51
360.0
  0
ARC
  8
APS_GEOMETRY
 10
38.865
 20
-385.735
 40
12.072
 50
340.994
 51
348.323
  0
ARC
  8
APS_GEOMETRY
 10
37.168
 20
-385.151
 40
13.867
 50
334.592
 51
340.994
  0
ARC
  8
APS_GEOMETRY
 10
40.13
 20
-386.558
 40
10.587
 50
327.265
 51
334.592
  0
ARC
  8
APS_GEOMETRY
 10
43.57
 20
-388.585
 40
6.599
 50
320.133
 51
325.923
  0
ARC
  8
APS_GEOMETRY
 10
47.571
 20
-391.927
 40
1.386
 50
307.476
 51
320.133
  0
ARC
  8
APS_GEOMETRY
 10
47.922
 20
-392.384
 40
0.81
 50
286.429
 51
307.476
  0
ARC
  8
APS_GEOMETRY
 10
47.777
 20
-391.892
 40
1.323
 50
270.0
 51
286.429
  0
ARC
  8
APS_GEOMETRY
 10
47.777
 20
-390.363
 40
2.852
 50
263.774
 51
270.0
  0
ARC
  8
APS_GEOMETRY
 10
48.611
 20
-382.715
 40
10.546
 50
260.538
 51
263.774
  0
ARC
  8
APS_GEOMETRY
 10
44.877
 20
-403.788
 40
10.857
 50
79.38
 51
84.987
  0
ARC
  8
APS_GEOMETRY
 10
43.258
 20
-422.243
 40
29.383
 50
84.987
 51
88.394
  0
LINE
  8
APS_GEOMETRY
 10
44.081
 11
30.215
 20
-392.872
 21
-392.872
  0
ARC
  8
APS_GEOMETRY
 10
30.215
 20
-389.97
 40
2.902
 50
254.103
 51
270.0
  0
ARC
  8
APS_GEOMETRY
 10
29.806
 20
-391.405
 40
1.41
 50
231.216
 51
254.103
  0
ARC
  8
APS_GEOMETRY
 10
29.638
 20
-391.614
 40
1.142
 50
203.795
 51
231.216
  0
ARC
  8
APS_GEOMETRY
 10
29.975
 20
-391.465
 40
1.509
 50
180.0
 51
203.795
  0
ARC
  8
APS_GEOMETRY
 10
30.102
 20
-391.465
 40
1.637
 50
164.055
 51
180.0
  0
ARC
  8
APS_GEOMETRY
 10
29.093
 20
-391.177
 40
0.588
 50
137.291
 51
164.055
  0
ARC
  8
APS_GEOMETRY
 10
29.397
 20
-391.457
 40
1.001
 50
120.964
 51
137.291
  0
ARC
  8
APS_GEOMETRY
 10
32.647
 20
-396.875
 40
7.318
 50
114.944
 51
120.964
  0
ARC
  8
APS_GEOMETRY
 10
28.59
 20
-387.998
 40
2.443
 50
293.429
 51
305.72
  0
ARC
  8
APS_GEOMETRY
 10
29.261
 20
-388.932
 40
1.292
 50
305.72
 51
322.651
  0
ARC
  8
APS_GEOMETRY
 10
29.157
 20
-388.852
 40
1.423
 50
322.651
 51
338.11
  0
ARC
  8
APS_GEOMETRY
 10
27.128
 20
-388.037
 40
3.61
 50
338.11
 51
347.8
  0
ARC
  8
APS_GEOMETRY
 10
14.528
 20
-385.275
 40
16.509
 50
347.672
 51
352.051
  0
ARC
  8
APS_GEOMETRY
 10
2.332
 20
-383.572
 40
28.824
 50
352.051
 51
355.365
  0
ARC
  8
APS_GEOMETRY
 10
-5.882
 20
-382.906
 40
37.064
 50
355.365
 51
357.943
  0
ARC
  8
APS_GEOMETRY
 10
-27.087
 20
-382.145
 40
58.283
 50
357.943
 51
0.0
  0
ARC
  8
APS_GEOMETRY
 10
-51.563
 20
-382.145
 40
82.759
 50
360.0
 51
2.183
  0
ARC
  8
APS_GEOMETRY
 10
-2.075
 20
-380.258
 40
33.235
 50
2.183
 51
5.629
  0
ARC
  8
APS_GEOMETRY
 10
12.667
 20
-378.805
 40
18.422
 50
5.629
 51
11.805
  0
ARC
  8
APS_GEOMETRY
 10
26.975
 20
-375.815
 40
3.805
 50
11.805
 51
25.419
  0
ARC
  8
APS_GEOMETRY
 10
28.826
 20
-374.974
 40
1.772
 50
26.565
 51
38.157
  0
ARC
  8
APS_GEOMETRY
 10
29.649
 20
-374.328
 40
0.726
 50
38.157
 51
56.31
  0
ARC
  8
APS_GEOMETRY
 10
29.475
 20
-374.589
 40
1.04
 50
56.31
 51
69.193
  0
ARC
  8
APS_GEOMETRY
 10
27.035
 20
-381.01
 40
7.908
 50
69.193
 51
73.856
  0
ARC
  8
APS_GEOMETRY
 10
29.609
 20
-372.156
 40
1.312
 50
216.87
 51
253.393
  0
ARC
  8
APS_GEOMETRY
 10
29.59
 20
-372.17
 40
1.288
 50
180.0
 51
216.87
  0
ARC
  8
APS_GEOMETRY
 10
29.871
 20
-372.17
 40
1.569
 50
161.565
 51
180.0
  0
ARC
  8
APS_GEOMETRY
 10
29.814
 20
-372.151
 40
1.509
 50
142.765
 51
161.565
  0
ARC
  8
APS_GEOMETRY
 10
29.778
 20
-372.124
 40
1.464
 50
123.425
 51
142.765
  0
ARC
  8
APS_GEOMETRY
 10
29.811
 20
-372.174
 40
1.523
 50
104.47
 51
123.425
  0
ARC
  8
APS_GEOMETRY
 10
30.101
 20
-373.605
 40
2.982
 50
96.724
 51
102.995
  0
ARC
  8
APS_GEOMETRY
 10
31.001
 20
-381.242
 40
10.673
 50
93.411
 51
96.724
  0
ARC
  8
APS_GEOMETRY
 10
31.401
 20
-387.953
 40
17.395
 50
91.375
 51
93.411
  0
ARC
  8
APS_GEOMETRY
 10
31.899
 20
-408.703
 40
38.151
 50
90.0
 51
91.375
  0
LINE
  8
QUOTATURA
 10
0.0
 11
0.0
 20
-10.0
 21
-107.05
  0
LINE
  8
QUOTATURA
 10
210.0
 11
210.0
 20
-10.0
 21
-107.05
  0
LINE
  8
QUOTATURA
 10
0.0
 11
78.038
 20
-97.05
 21
-97.05
  0
LINE
  8
QUOTATURA
 10
131.962
 11
210.0
 20
-97.05
 21
-97.05
  0
LINE
  8
QUOTATURA
 10
20.0
 11
0.0
 20
-100.384
 21
-97.05
  0
LINE
  8
QUOTATURA
 10
0.0
 11
20.0
 20
-97.05
 21
-93.716
  0
LINE
  8
QUOTATURA
 10
20.0
 11
20.0
 20
-93.716
 21
-100.384
  0
LINE
  8
QUOTATURA
 10
190.0
 11
210.0
 20
-93.716
 21
-97.05
  0
LINE
  8
QUOTATURA
 10
210.0
 11
190.0
 20
-97.05
 21
-100.384
  0
LINE
  8
QUOTATURA
 10
190.0
 11
190.0
 20
-100.384
 21
-93.716
  0
LINE
  8
QUOTATURA
 10
-10.0
 11
-129.192
 20
0.0
 21
0.0
  0
LINE
  8
QUOTATURA
 10
-10.0
 11
-129.192
 20
350.0
 21
350.0
  0
LINE
  8
QUOTATURA
 10
-119.192
 11
-119.192
 20
0.0
 21
159.756
  0
LINE
  8
QUOTATURA
 10
-119.192
 11
-119.192
 20
190.063
 21
350.0
  0
LINE
  8
QUOTATURA
 10
-115.858
 11
-119.192
 20
20.0
 21
0.0
  0
LINE
  8
QUOTATURA
 10
-119.192
 11
-122.526
 20
0.0
 21
20.0
  0
LINE
  8
QUOTATURA
 10
-122.526
 11
-115.858
 20
20.0
 21
20.0
  0
LINE
  8
QUOTATURA
 10
-122.526
 11
-119.192
 20
330.0
 21
350.0
  0
LINE
  8
QUOTATURA
 10
-119.192
 11
-115.858
 20
350.0
 21
330.0
  0
LINE
  8
QUOTATURA
 10
-115.858
 11
-122.526
 20
330.0
 21
330.0
  0
LINE
  8
QUOTATURA
 10
41.595
 11
21.595
 20
20.588
 21
23.922
  0
LINE
  8
QUOTATURA
 10
21.595
 11
41.595
 20
23.922
 21
27.256
  0
LINE
  8
QUOTATURA
 10
41.595
 11
41.595
 20
27.256
 21
20.588
  0
LINE
  8
QUOTATURA
 10
21.595
 11
193.147
 20
23.922
 21
23.922
  0
LINE
  8
QUOTATURA
 10
193.147
 11
269.797
 20
23.922
 21
-12.578
  0
LINE
  8
QUOTATURA
 10
269.797
 11
291.698
 20
-12.578
 21
-12.578
  0
LINE
  8
COSTRUZIONI
 10
90.0
 11
90.0
 20
30.0
 21
160.0
  0
LINE
  8
COSTRUZIONI
 10
90.0
 11
90.0
 20
190.0
 21
320.0
  0
LINE
  8
COSTRUZIONI
 10
120.0
 11
120.0
 20
30.0
 21
160.0
  0
LINE
  8
COSTRUZIONI
 10
120.0
 11
120.0
 20
190.0
 21
320.0
  0
LINE
  8
COSTRUZIONI
 10
30.0
 11
180.0
 20
160.0
 21
160.0
  0
LINE
  8
COSTRUZIONI
 10
30.0
 11
90.0
 20
190.0
 21
190.0
  0
LINE
  8
QUOTATURA
 10
105.0
 11
105.0
 20
-10.0
 21
-50.038
  0
LINE
  8
QUOTATURA
 10
0.0
 11
24.982
 20
-40.038
 21
-40.038
  0
LINE
  8
QUOTATURA
 10
80.018
 11
105.0
 20
-40.038
 21
-40.038
  0
LINE
  8
QUOTATURA
 10
20.0
 11
0.0
 20
-43.372
 21
-40.038
  0
LINE
  8
QUOTATURA
 10
0.0
 11
20.0
 20
-40.038
 21
-36.704
  0
LINE
  8
QUOTATURA
 10
20.0
 11
20.0
 20
-36.704
 21
-43.372
  0
LINE
  8
QUOTATURA
 10
85.0
 11
105.0
 20
-36.704
 21
-40.038
  0
LINE
  8
QUOTATURA
 10
105.0
 11
85.0
 20
-40.038
 21
-43.372
  0
LINE
  8
QUOTATURA
 10
85.0
 11
85.0
 20
-43.372
 21
-36.704
  0
LINE
  8
QUOTATURA
 10
-10.0
 11
-53.848
 20
175.0
 21
175.0
  0
LINE
  8
QUOTATURA
 10
-43.848
 11
-43.848
 20
0.0
 21
72.338
  0
LINE
  8
QUOTATURA
 10
-43.848
 11
-43.848
 20
102.511
 21
175.0
  0
LINE
  8
QUOTATURA
 10
-40.514
 11
-43.848
 20
20.0
 21
0.0
  0
LINE
  8
QUOTATURA
 10
-43.848
 11
-47.182
 20
0.0
 21
20.0
  0
LINE
  8
QUOTATURA
 10
-47.182
 11
-40.514
 20
20.0
 21
20.0
  0
LINE
  8
QUOTATURA
 10
-47.182
 11
-43.848
 20
155.0
 21
175.0
  0
LINE
  8
QUOTATURA
 10
-43.848
 11
-40.514
 20
175.0
 21
155.0
  0
LINE
  8
QUOTATURA
 10
-40.514
 11
-47.182
 20
155.0
 21
155.0
  0
LINE
  8
QUOTATURA
 10
90.0
 11
90.0
 20
360.0
 21
424.785
  0
LINE
  8
QUOTATURA
 10
120.0
 11
120.0
 20
360.0
 21
424.785
  0
LINE
  8
QUOTATURA
 10
90.0
 11
48.37
 20
414.785
 21
414.785
  0
LINE
  8
QUOTATURA
 10
70.0
 11
90.0
 20
418.119
 21
414.785
  0
LINE
  8
QUOTATURA
 10
90.0
 11
70.0
 20
414.785
 21
411.451
  0
LINE
  8
QUOTATURA
 10
70.0
 11
70.0
 20
411.451
 21
418.119
  0
LINE
  8
QUOTATURA
 10
120.0
 11
160.0
 20
414.785
 21
414.785
  0
LINE
  8
QUOTATURA
 10
140.0
 11
120.0
 20
411.451
 21
414.785
  0
LINE
  8
QUOTATURA
 10
120.0
 11
140.0
 20
414.785
 21
418.119
  0
LINE
  8
QUOTATURA
 10
140.0
 11
140.0
 20
418.119
 21
411.451
  0
LINE
  8
APS_GEOMETRY
 10
210.0
 11
0.0
 20
175.0
 21
175.0
  0
LINE
  8
APS_GEOMETRY
 10
105.0
 11
105.0
 20
0.0
 21
350.0
  0
LINE
  8
QUOTATURA
 10
223.841
 11
214.328
 20
192.038
 21
174.132
  0
LINE
  8
QUOTATURA
 10
214.328
 11
217.518
 20
174.132
 21
194.156
  0
LINE
  8
QUOTATURA
 10
217.518
 11
223.841
 20
194.156
 21
192.038
  0
LINE
  8
QUOTATURA
 10
214.328
 11
275.772
 20
174.132
 21
357.609
  0
LINE
  8
QUOTATURA
 10
275.772
 11
291.986
 20
357.609
 21
376.383
  0
LINE
  8
QUOTATURA
 10
127.915
 11
107.656
 20
352.515
 21
353.342
  0
LINE
  8
QUOTATURA
 10
107.656
 11
127.088
 20
353.342
 21
359.131
  0
LINE
  8
QUOTATURA
 10
127.088
 11
127.915
 20
359.131
 21
352.515
  0
LINE
  8
QUOTATURA
 10
107.656
 11
291.986
 20
353.342
 21
376.383
  0
LINE
  8
COSTRUZIONI
 10
180.0
 11
30.0
 20
320.0
 21
320.0
  0
LINE
  8
COSTRUZIONI
 10
30.0
 11
30.0
 20
350.0
 21
0.0
  0
LINE
  8
COSTRUZIONI
 10
30.0
 11
180.0
 20
30.0
 21
30.0
  0
LINE
  8
COSTRUZIONI
 10
180.0
 11
180.0
 20
0.0
 21
350.0
  0
LINE
  8
APS_GEOMETRY
 10
41.569
 11
30.0
 20
190.0
 21
201.569
  0
LINE
  8
APS_GEOMETRY
 10
30.0
 11
48.64
 20
208.64
 21
190.0
  0
LINE
  8
APS_GEOMETRY
 10
69.853
 11
30.0
 20
190.0
 21
229.853
  0
LINE
  8
APS_GEOMETRY
 10
30.0
 11
76.924
 20
236.924
 21
190.0
  0
LINE
  8
APS_GEOMETRY
 10
90.0
 11
30.0
 20
198.137
 21
258.137
  0
LINE
  8
APS_GEOMETRY
 10
30.0
 11
90.0
 20
265.208
 21
205.208
  0
LINE
  8
APS_GEOMETRY
 10
90.0
 11
30.0
 20
226.421
 21
286.421
  0
LINE
  8
APS_GEOMETRY
 10
30.0
 11
90.0
 20
293.492
 21
233.492
  0
LINE
  8
APS_GEOMETRY
 10
90.0
 11
30.0
 20
254.706
 21
314.706
  0
LINE
  8
APS_GEOMETRY
 10
31.777
 11
90.0
 20
320.0
 21
261.777
  0
LINE
  8
APS_GEOMETRY
 10
90.0
 11
52.99
 20
282.99
 21
320.0
  0
LINE
  8
APS_GEOMETRY
 10
60.061
 11
90.0
 20
320.0
 21
290.061
  0
LINE
  8
APS_GEOMETRY
 10
90.0
 11
81.274
 20
311.274
 21
320.0
  0
LINE
  8
APS_GEOMETRY
 10
88.345
 11
90.0
 20
320.0
 21
318.345
  0
LINE
  8
COSTRUZIONI
 10
180.0
 11
180.0
 20
190.0
 21
320.0
  0
LINE
  8
COSTRUZIONI
 10
120.0
 11
180.0
 20
190.0
 21
190.0
  0
LINE
  8
APS_GEOMETRY
 10
131.569
 11
120.0
 20
190.0
 21
201.569
  0
LINE
  8
APS_GEOMETRY
 10
120.0
 11
138.64
 20
208.64
 21
190.0
  0
LINE
  8
APS_GEOMETRY
 10
159.853
 11
120.0
 20
190.0
 21
229.853
  0
LINE
  8
APS_GEOMETRY
 10
120.0
 11
166.924
 20
236.924
 21
190.0
  0
LINE
  8
APS_GEOMETRY
 10
180.0
 11
120.0
 20
198.137
 21
258.137
  0
LINE
  8
APS_GEOMETRY
 10
120.0
 11
180.0
 20
265.208
 21
205.208
  0
LINE
  8
APS_GEOMETRY
 10
180.0
 11
120.0
 20
226.421
 21
286.421
  0
LINE
  8
APS_GEOMETRY
 10
120.0
 11
180.0
 20
293.492
 21
233.492
  0
LINE
  8
APS_GEOMETRY
 10
180.0
 11
120.0
 20
254.706
 21
314.706
  0
LINE
  8
APS_GEOMETRY
 10
121.777
 11
180.0
 20
320.0
 21
261.777
  0
LINE
  8
APS_GEOMETRY
 10
180.0
 11
142.99
 20
282.99
 21
320.0
  0
LINE
  8
APS_GEOMETRY
 10
150.061
 11
180.0
 20
320.0
 21
290.061
  0
LINE
  8
APS_GEOMETRY
 10
180.0
 11
171.274
 20
311.274
 21
320.0
  0
LINE
  8
APS_GEOMETRY
 10
178.345
 11
180.0
 20
320.0
 21
318.345
  0
LINE
  8
APS_GEOMETRY
 10
41.569
 11
30.0
 20
30.0
 21
41.569
  0
LINE
  8
APS_GEOMETRY
 10
30.0
 11
48.64
 20
48.64
 21
30.0
  0
LINE
  8
APS_GEOMETRY
 10
69.853
 11
30.0
 20
30.0
 21
69.853
  0
LINE
  8
APS_GEOMETRY
 10
30.0
 11
76.924
 20
76.924
 21
30.0
  0
LINE
  8
APS_GEOMETRY
 10
90.0
 11
30.0
 20
38.137
 21
98.137
  0
LINE
  8
APS_GEOMETRY
 10
30.0
 11
90.0
 20
105.208
 21
45.208
  0
LINE
  8
APS_GEOMETRY
 10
90.0
 11
30.0
 20
66.421
 21
126.421
  0
LINE
  8
APS_GEOMETRY
 10
30.0
 11
90.0
 20
133.492
 21
73.492
  0
LINE
  8
APS_GEOMETRY
 10
90.0
 11
30.0
 20
94.706
 21
154.706
  0
LINE
  8
APS_GEOMETRY
 10
31.777
 11
90.0
 20
160.0
 21
101.777
  0
LINE
  8
APS_GEOMETRY
 10
90.0
 11
52.99
 20
122.99
 21
160.0
  0
LINE
  8
APS_GEOMETRY
 10
60.061
 11
90.0
 20
160.0
 21
130.061
  0
LINE
  8
APS_GEOMETRY
 10
90.0
 11
81.274
 20
151.274
 21
160.0
  0
LINE
  8
APS_GEOMETRY
 10
88.345
 11
90.0
 20
160.0
 21
158.345
  0
LINE
  8
APS_GEOMETRY
 10
131.569
 11
120.0
 20
30.0
 21
41.569
  0
LINE
  8
APS_GEOMETRY
 10
120.0
 11
138.64
 20
48.64
 21
30.0
  0
LINE
  8
APS_GEOMETRY
 10
159.853
 11
120.0
 20
30.0
 21
69.853
  0
LINE
  8
APS_GEOMETRY
 10
120.0
 11
166.924
 20
76.924
 21
30.0
  0
LINE
  8
APS_GEOMETRY
 10
180.0
 11
120.0
 20
38.137
 21
98.137
  0
LINE
  8
APS_GEOMETRY
 10
120.0
 11
180.0
 20
105.208
 21
45.208
  0
LINE
  8
APS_GEOMETRY
 10
180.0
 11
120.0
 20
66.421
 21
126.421
  0
LINE
  8
APS_GEOMETRY
 10
120.0
 11
180.0
 20
133.492
 21
73.492
  0
LINE
  8
APS_GEOMETRY
 10
180.0
 11
120.0
 20
94.706
 21
154.706
  0
LINE
  8
APS_GEOMETRY
 10
121.777
 11
180.0
 20
160.0
 21
101.777
  0
LINE
  8
APS_GEOMETRY
 10
180.0
 11
142.99
 20
122.99
 21
160.0
  0
LINE
  8
APS_GEOMETRY
 10
150.061
 11
180.0
 20
160.0
 21
130.061
  0
LINE
  8
APS_GEOMETRY
 10
180.0
 11
171.274
 20
151.274
 21
160.0
  0
LINE
  8
APS_GEOMETRY
 10
178.345
 11
180.0
 20
160.0
 21
158.345
  0
TEXT
  8
TEXT
 10
-419.012
 20
-350.017
 30
0.0
 40
10.0
 50
0.0
  1
Ufficio tecnico:
  0
TEXT
  8
TEXT
 10
81.368
 20
-348.99
 30
0.0
 40
10.0
 50
0.0
  1
documento:
  0
TEXT
  8
TEXT
 10
206.766
 20
-378.317
 30
0.0
 40
10.0
 50
0.0
  1
CAMPIONE ANGOLI TOSCO LIGHT
  0
TEXT
  8
TEXT
 10
331.315
 20
-349.484
 30
0.0
 40
10.0
 50
0.0
  1
data:
  0
TEXT
  8
TEXT
 10
452.678
 20
-377.675
 30
0.0
 40
15.0
 50
0.0
  1
17/02/11
  0
TEXT
  8
TEXT
 10
203.108
 20
-427.574
 30
0.0
 40
20.0
 50
0.0
  1
B.Stefano
  0
TEXT
  8
TEXT
 10
448.956
 20
-426.278
 30
0.0
 40
15.0
 50
0.0
  1
1 : 5
  0
TEXT
  8
TEXT
 10
330.207
 20
-398.691
 30
0.0
 40
10.0
 50
0.0
  1
scala:
  0
TEXT
  8
TEXT
 10
80.634
 20
-399.173
 30
0.0
 40
10.0
 50
0.0
  1
responsabile tecnico:
  0
TEXT
  8
TEXT
 10
-173.363
 20
-418.208
 30
0.0
 40
12.0
 50
0.0
  1
tel. 0577-68.54.26 - fax 0577-68.64.29
  0
TEXT
  8
TEXT
 10
-173.363
 20
-436.208
 30
0.0
 40
12.0
 50
0.0
  1
e-mail: tecnico@toscocornici.it - web: www.tosococornici.it
  0
TEXT
  8
QUOTATURA
 10
83.039
 20
-107.05
 30
0.0
 40
20.0
 50
0.0
  1
210
  0
TEXT
  8
QUOTATURA
 10
-145.738
 20
165.0
 30
0.0
 40
20.0
 50
0.0
  1
350
  0
TEXT
  8
TEXT
 10
298.998
 20
-22.311
 30
0.0
 40
20.0
 50
0.0
  1
VENA ORIZZONTALE
  0
TEXT
  8
QUOTATURA
 10
29.982
 20
-50.038
 30
0.0
 40
20.0
 50
0.0
  1
105
  0
TEXT
  8
QUOTATURA
 10
-65.76
 20
77.5
 30
0.0
 40
20.0
 50
0.0
  1
175
  0
TEXT
  8
QUOTATURA
 10
9.264
 20
404.785
 30
0.0
 40
20.0
 50
0.0
  1
30
  0
TEXT
  8
TEXT
 10
298.813
 20
370.41
 30
0.0
 40
20.0
 50
0.0
  1
LINEE DI TAGLIO
  0
TEXT
  8
TEXT
 10
298.813
 20
340.41
 30
0.0
 40
20.0
 50
0.0
  1
DOPO VERNICIATO
  0
ENDSEC
  0
EOF
