  0
SECTION
  2
ENTITIES
  0
LINE
  8
APS_GEOMETRY
 10
869.0
 11
869.0
 20
0.0
 21
2140.0
  0
LINE
  8
APS_GEOMETRY
 10
869.0
 11
-11.0
 20
2140.0
 21
2140.0
  0
LINE
  8
APS_GEOMETRY
 10
-11.0
 11
-11.0
 20
2140.0
 21
0.0
  0
LINE
  8
APS_GEOMETRY
 10
825.0
 11
825.0
 20
0.0
 21
2096.0
  0
LINE
  8
APS_GEOMETRY
 10
825.0
 11
33.0
 20
2096.0
 21
2096.0
  0
LINE
  8
APS_GEOMETRY
 10
33.0
 11
33.0
 20
2096.0
 21
0.0
  0
LINE
  8
APS_GEOMETRY
 10
33.0
 11
-11.0
 20
2096.0
 21
2140.0
  0
LINE
  8
APS_GEOMETRY
 10
825.0
 11
869.0
 20
2096.0
 21
2140.0
  0
LINE
  8
APS_GEOMETRY
 10
842.5
 11
842.5
 20
4.5
 21
2113.5
  0
LINE
  8
APS_GEOMETRY
 10
842.5
 11
15.5
 20
2113.5
 21
2113.5
  0
LINE
  8
APS_GEOMETRY
 10
15.5
 11
15.5
 20
2113.5
 21
4.5
  0
LINE
  8
APS_GEOMETRY
 10
728.5
 11
728.5
 20
180.5
 21
778.5
  0
LINE
  8
APS_GEOMETRY
 10
728.5
 11
728.5
 20
890.5
 21
1225.5
  0
LINE
  8
APS_GEOMETRY
 10
728.5
 11
728.5
 20
1277.5
 21
1612.5
  0
LINE
  8
APS_GEOMETRY
 10
728.5
 11
728.5
 20
1664.5
 21
1999.5
  0
LINE
  8
APS_GEOMETRY
 10
129.5
 11
129.5
 20
1999.5
 21
1664.5
  0
LINE
  8
APS_GEOMETRY
 10
129.5
 11
129.5
 20
1612.5
 21
1277.5
  0
LINE
  8
APS_GEOMETRY
 10
129.5
 11
129.5
 20
1225.5
 21
890.5
  0
LINE
  8
APS_GEOMETRY
 10
129.5
 11
129.5
 20
778.5
 21
180.5
  0
LINE
  8
APS_GEOMETRY
 10
15.5
 11
842.5
 20
4.5
 21
4.5
  0
LINE
  8
APS_GEOMETRY
 10
858.0
 11
858.0
 20
0.0
 21
2129.0
  0
LINE
  8
APS_GEOMETRY
 10
858.0
 11
0.0
 20
2129.0
 21
2129.0
  0
LINE
  8
APS_GEOMETRY
 10
0.0
 11
0.0
 20
2129.0
 21
0.0
  0
LINE
  8
APS_GEOMETRY
 10
927.0
 11
927.0
 20
0.0
 21
2198.0
  0
LINE
  8
APS_GEOMETRY
 10
927.0
 11
-69.0
 20
2198.0
 21
2198.0
  0
LINE
  8
APS_GEOMETRY
 10
-69.0
 11
-69.0
 20
2198.0
 21
0.0
  0
LINE
  8
APS_GEOMETRY
 10
-69.0
 11
0.0
 20
2198.0
 21
2129.0
  0
LINE
  8
APS_GEOMETRY
 10
927.0
 11
858.0
 20
2198.0
 21
2129.0
  0
LINE
  8
APS_GEOMETRY
 10
129.5
 11
728.5
 20
180.5
 21
180.5
  0
LINE
  8
APS_GEOMETRY
 10
129.5
 11
728.5
 20
778.5
 21
778.5
  0
LINE
  8
APS_GEOMETRY
 10
129.5
 11
403.0
 20
890.5
 21
890.5
  0
LINE
  8
APS_GEOMETRY
 10
455.0
 11
728.5
 20
890.5
 21
890.5
  0
LINE
  8
APS_GEOMETRY
 10
113.5
 11
744.5
 20
164.5
 21
164.5
  0
LINE
  8
APS_GEOMETRY
 10
113.5
 11
129.5
 20
164.5
 21
180.5
  0
LINE
  8
APS_GEOMETRY
 10
744.5
 11
728.5
 20
164.5
 21
180.5
  0
LINE
  8
APS_GEOMETRY
 10
113.5
 11
113.5
 20
2113.5
 21
4.5
  0
LINE
  8
APS_GEOMETRY
 10
744.5
 11
744.5
 20
4.5
 21
2113.5
  0
LINE
  8
APS_GEOMETRY
 10
113.5
 11
744.5
 20
794.5
 21
794.5
  0
LINE
  8
APS_GEOMETRY
 10
113.5
 11
744.5
 20
874.5
 21
874.5
  0
LINE
  8
APS_GEOMETRY
 10
113.5
 11
129.5
 20
794.5
 21
778.5
  0
LINE
  8
APS_GEOMETRY
 10
113.5
 11
129.5
 20
874.5
 21
890.5
  0
LINE
  8
APS_GEOMETRY
 10
744.5
 11
728.5
 20
874.5
 21
890.5
  0
LINE
  8
APS_GEOMETRY
 10
744.5
 11
728.5
 20
794.5
 21
778.5
  0
LINE
  8
APS_GEOMETRY
 10
682.5
 11
175.5
 20
732.5
 21
732.5
  0
LINE
  8
APS_GEOMETRY
 10
175.5
 11
175.5
 20
732.5
 21
226.5
  0
LINE
  8
APS_GEOMETRY
 10
175.5
 11
682.5
 20
226.5
 21
226.5
  0
LINE
  8
APS_GEOMETRY
 10
682.5
 11
682.5
 20
226.5
 21
732.5
  0
LINE
  8
APS_GEOMETRY
 10
175.5
 11
129.5
 20
732.5
 21
778.5
  0
LINE
  8
APS_GEOMETRY
 10
682.5
 11
728.5
 20
732.5
 21
778.5
  0
LINE
  8
APS_GEOMETRY
 10
682.5
 11
728.5
 20
226.5
 21
180.5
  0
LINE
  8
APS_GEOMETRY
 10
175.5
 11
129.5
 20
226.5
 21
180.5
  0
LINE
  8
APS_GEOMETRY
 10
728.5
 11
455.0
 20
1999.5
 21
1999.5
  0
LINE
  8
APS_GEOMETRY
 10
403.0
 11
129.5
 20
1999.5
 21
1999.5
  0
LINE
  8
APS_GEOMETRY
 10
744.5
 11
113.5
 20
2015.5
 21
2015.5
  0
LINE
  8
APS_GEOMETRY
 10
113.5
 11
129.5
 20
2015.5
 21
1999.5
  0
LINE
  8
APS_GEOMETRY
 10
744.5
 11
728.5
 20
2015.5
 21
1999.5
  0
LINE
  8
APS_GEOMETRY
 10
455.0
 11
455.0
 20
1999.5
 21
1664.5
  0
LINE
  8
APS_GEOMETRY
 10
455.0
 11
455.0
 20
1612.5
 21
1277.5
  0
LINE
  8
APS_GEOMETRY
 10
455.0
 11
455.0
 20
1225.5
 21
890.5
  0
LINE
  8
APS_GEOMETRY
 10
403.0
 11
403.0
 20
1999.5
 21
1664.5
  0
LINE
  8
APS_GEOMETRY
 10
403.0
 11
403.0
 20
1612.5
 21
1277.5
  0
LINE
  8
APS_GEOMETRY
 10
403.0
 11
403.0
 20
1225.5
 21
890.5
  0
LINE
  8
APS_GEOMETRY
 10
129.5
 11
403.0
 20
1225.5
 21
1225.5
  0
LINE
  8
APS_GEOMETRY
 10
455.0
 11
728.5
 20
1225.5
 21
1225.5
  0
LINE
  8
APS_GEOMETRY
 10
728.5
 11
455.0
 20
1664.5
 21
1664.5
  0
LINE
  8
APS_GEOMETRY
 10
403.0
 11
129.5
 20
1664.5
 21
1664.5
  0
LINE
  8
APS_GEOMETRY
 10
728.5
 11
455.0
 20
1612.5
 21
1612.5
  0
LINE
  8
APS_GEOMETRY
 10
403.0
 11
129.5
 20
1612.5
 21
1612.5
  0
LINE
  8
APS_GEOMETRY
 10
129.5
 11
403.0
 20
1277.5
 21
1277.5
  0
LINE
  8
APS_GEOMETRY
 10
455.0
 11
728.5
 20
1277.5
 21
1277.5
  0
LINE
  8
APS_GEOMETRY
 10
419.0
 11
419.0
 20
2015.5
 21
1648.5
  0
LINE
  8
APS_GEOMETRY
 10
439.0
 11
439.0
 20
2015.5
 21
1648.5
  0
LINE
  8
APS_GEOMETRY
 10
744.5
 11
113.5
 20
1648.5
 21
1648.5
  0
LINE
  8
APS_GEOMETRY
 10
744.5
 11
113.5
 20
1628.5
 21
1628.5
  0
LINE
  8
APS_GEOMETRY
 10
419.0
 11
419.0
 20
1628.5
 21
1261.5
  0
LINE
  8
APS_GEOMETRY
 10
439.0
 11
439.0
 20
1628.5
 21
1261.5
  0
LINE
  8
APS_GEOMETRY
 10
113.5
 11
744.5
 20
1261.5
 21
1261.5
  0
LINE
  8
APS_GEOMETRY
 10
113.5
 11
744.5
 20
1241.5
 21
1241.5
  0
LINE
  8
APS_GEOMETRY
 10
419.0
 11
419.0
 20
1241.5
 21
874.5
  0
LINE
  8
APS_GEOMETRY
 10
439.0
 11
439.0
 20
1241.5
 21
874.5
  0
LINE
  8
APS_GEOMETRY
 10
403.0
 11
419.0
 20
890.5
 21
874.5
  0
LINE
  8
APS_GEOMETRY
 10
455.0
 11
439.0
 20
890.5
 21
874.5
  0
LINE
  8
APS_GEOMETRY
 10
403.0
 11
419.0
 20
1225.5
 21
1241.5
  0
LINE
  8
APS_GEOMETRY
 10
455.0
 11
439.0
 20
1225.5
 21
1241.5
  0
LINE
  8
APS_GEOMETRY
 10
403.0
 11
419.0
 20
1277.5
 21
1261.5
  0
LINE
  8
APS_GEOMETRY
 10
455.0
 11
439.0
 20
1277.5
 21
1261.5
  0
LINE
  8
APS_GEOMETRY
 10
403.0
 11
419.0
 20
1612.5
 21
1628.5
  0
LINE
  8
APS_GEOMETRY
 10
455.0
 11
439.0
 20
1612.5
 21
1628.5
  0
LINE
  8
APS_GEOMETRY
 10
403.0
 11
419.0
 20
1664.5
 21
1648.5
  0
LINE
  8
APS_GEOMETRY
 10
455.0
 11
439.0
 20
1664.5
 21
1648.5
  0
LINE
  8
APS_GEOMETRY
 10
403.0
 11
419.0
 20
1999.5
 21
2015.5
  0
LINE
  8
APS_GEOMETRY
 10
455.0
 11
439.0
 20
1999.5
 21
2015.5
  0
LINE
  8
APS_GEOMETRY
 10
113.5
 11
129.5
 20
1241.5
 21
1225.5
  0
LINE
  8
APS_GEOMETRY
 10
129.5
 11
113.5
 20
1277.5
 21
1261.5
  0
LINE
  8
APS_GEOMETRY
 10
744.5
 11
728.5
 20
1241.5
 21
1225.5
  0
LINE
  8
APS_GEOMETRY
 10
728.5
 11
744.5
 20
1277.5
 21
1261.5
  0
LINE
  8
APS_GEOMETRY
 10
113.5
 11
129.5
 20
1628.5
 21
1612.5
  0
LINE
  8
APS_GEOMETRY
 10
129.5
 11
113.5
 20
1664.5
 21
1648.5
  0
LINE
  8
APS_GEOMETRY
 10
744.5
 11
728.5
 20
1628.5
 21
1612.5
  0
LINE
  8
APS_GEOMETRY
 10
728.5
 11
744.5
 20
1664.5
 21
1648.5
  0
TEXT
  8
TEXT
 10
293.56
 20
-112.644
 30
0.0
 40
30.0
 50
0.0
  1
MOD. 600-6V
  0
ENDSEC
  0
EOF
