  0
SECTION
  2
ENTITIES
  0
LINE
  8
APS_GEOMETRY
 10
0.0
 11
835.0
 20
0.0
 21
0.0
  0
LINE
  8
APS_GEOMETRY
 10
835.0
 11
835.0
 20
0.0
 21
2114.0
  0
LINE
  8
APS_GEOMETRY
 10
835.0
 11
0.0
 20
2114.0
 21
2114.0
  0
LINE
  8
APS_GEOMETRY
 10
0.0
 11
0.0
 20
2114.0
 21
0.0
  0
LINE
  8
APS_GEOMETRY
 10
114.0
 11
114.0
 20
2114.0
 21
0.0
  0
LINE
  8
APS_GEOMETRY
 10
721.0
 11
721.0
 20
0.0
 21
2114.0
  0
ARC
  8
APS_GEOMETRY
 10
417.5
 20
1132.777
 40
867.223
 50
69.515
 51
110.485
  0
ARC
  8
APS_GEOMETRY
 10
417.5
 20
1753.223
 40
867.223
 50
249.515
 51
290.485
  0
ARC
  8
APS_GEOMETRY
 10
417.5
 20
-93.223
 40
867.223
 50
69.515
 51
110.485
  0
ARC
  8
APS_GEOMETRY
 10
417.5
 20
981.223
 40
867.223
 50
249.515
 51
290.485
  0
LINE
  8
APS_GEOMETRY
 10
1716.897
 11
2551.897
 20
0.0
 21
0.0
  0
LINE
  8
APS_GEOMETRY
 10
2551.897
 11
2551.897
 20
0.0
 21
2114.0
  0
LINE
  8
APS_GEOMETRY
 10
2551.897
 11
1716.897
 20
2114.0
 21
2114.0
  0
LINE
  8
APS_GEOMETRY
 10
1716.897
 11
1716.897
 20
2114.0
 21
0.0
  0
LINE
  8
APS_GEOMETRY
 10
1830.897
 11
1830.897
 20
2114.0
 21
0.0
  0
LINE
  8
APS_GEOMETRY
 10
2437.897
 11
2437.897
 20
0.0
 21
2114.0
  0
ARC
  8
APS_GEOMETRY
 10
2134.397
 20
1132.777
 40
867.223
 50
69.515
 51
110.485
  0
ARC
  8
APS_GEOMETRY
 10
2134.397
 20
1753.223
 40
867.223
 50
249.515
 51
290.485
  0
ARC
  8
APS_GEOMETRY
 10
2134.397
 20
-93.223
 40
867.223
 50
69.515
 51
110.485
  0
ARC
  8
APS_GEOMETRY
 10
2134.397
 20
1045.223
 40
867.223
 50
249.515
 51
290.485
  0
LINE
  8
COSTRUZIONI
 10
1830.897
 11
2437.897
 20
89.0
 21
89.0
  0
LINE
  8
COSTRUZIONI
 10
1830.897
 11
2437.897
 20
830.0
 21
830.0
  0
LINE
  8
QUOTATURA
 10
2144.397
 11
2785.127
 20
886.0
 21
886.0
  0
LINE
  8
QUOTATURA
 10
2561.897
 11
2785.127
 20
0.0
 21
0.0
  0
LINE
  8
QUOTATURA
 10
2775.127
 11
2775.127
 20
886.0
 21
814.332
  0
LINE
  8
QUOTATURA
 10
2775.127
 11
2775.127
 20
784.089
 21
0.0
  0
LINE
  8
QUOTATURA
 10
2771.793
 11
2775.127
 20
866.0
 21
886.0
  0
LINE
  8
QUOTATURA
 10
2775.127
 11
2778.461
 20
886.0
 21
866.0
  0
LINE
  8
QUOTATURA
 10
2778.461
 11
2771.793
 20
866.0
 21
866.0
  0
LINE
  8
QUOTATURA
 10
2778.461
 11
2775.127
 20
20.0
 21
0.0
  0
LINE
  8
QUOTATURA
 10
2775.127
 11
2771.793
 20
0.0
 21
20.0
  0
LINE
  8
QUOTATURA
 10
2771.793
 11
2778.461
 20
20.0
 21
20.0
  0
ARC
  8
QUOTATURA
 10
2755.662
 20
807.554
 40
8.666
 50
295.988
 51
313.996
  0
ARC
  8
QUOTATURA
 10
2758.684
 20
804.431
 40
4.32
 50
313.931
 51
46.072
  0
ARC
  8
QUOTATURA
 10
2756.792
 20
801.679
 40
7.634
 50
50.179
 51
129.82
  0
ARC
  8
QUOTATURA
 10
2754.435
 20
804.543
 40
3.926
 50
130.163
 51
229.839
  0
ARC
  8
QUOTATURA
 10
2756.279
 20
806.744
 40
6.798
 50
229.931
 51
276.21
  0
ARC
  8
QUOTATURA
 10
2757.75
 20
793.229
 40
6.798
 50
49.934
 51
96.213
  0
ARC
  8
QUOTATURA
 10
2759.329
 20
794.654
 40
4.7
 50
306.51
 51
53.491
  0
ARC
  8
QUOTATURA
 10
2756.792
 20
798.057
 40
8.945
 50
233.401
 51
306.599
  0
ARC
  8
QUOTATURA
 10
2754.255
 20
794.654
 40
4.7
 50
126.51
 51
233.49
  0
ARC
  8
QUOTATURA
 10
2760.042
 20
787.022
 40
14.277
 50
112.535
 51
126.953
  0
ARC
  8
QUOTATURA
 10
2774.136
 20
807.554
 40
8.666
 50
295.988
 51
313.996
  0
ARC
  8
QUOTATURA
 10
2777.158
 20
804.431
 40
4.32
 50
313.931
 51
46.072
  0
ARC
  8
QUOTATURA
 10
2775.266
 20
801.679
 40
7.634
 50
50.179
 51
129.82
  0
ARC
  8
QUOTATURA
 10
2772.909
 20
804.543
 40
3.926
 50
130.163
 51
229.839
  0
ARC
  8
QUOTATURA
 10
2774.753
 20
806.744
 40
6.798
 50
229.931
 51
276.21
  0
ARC
  8
QUOTATURA
 10
2776.224
 20
793.229
 40
6.798
 50
49.934
 51
96.213
  0
ARC
  8
QUOTATURA
 10
2777.803
 20
794.654
 40
4.7
 50
306.51
 51
53.491
  0
ARC
  8
QUOTATURA
 10
2775.266
 20
798.057
 40
8.945
 50
233.401
 51
306.599
  0
ARC
  8
QUOTATURA
 10
2772.73
 20
794.654
 40
4.7
 50
126.51
 51
233.49
  0
ARC
  8
QUOTATURA
 10
2778.516
 20
787.022
 40
14.277
 50
112.535
 51
126.953
  0
ARC
  8
QUOTATURA
 10
2794.407
 20
802.784
 40
6.548
 50
38.687
 51
141.312
  0
ARC
  8
QUOTATURA
 10
2798.756
 20
799.211
 40
12.177
 50
140.979
 51
219.022
  0
ARC
  8
QUOTATURA
 10
2794.407
 20
795.637
 40
6.548
 50
218.688
 51
321.312
  0
ARC
  8
QUOTATURA
 10
2795.405
 20
794.877
 40
5.294
 50
320.978
 51
39.022
  0
ARC
  8
QUOTATURA
 10
2794.073
 20
793.851
 40
6.975
 50
38.688
 51
141.312
  0
ARC
  8
QUOTATURA
 10
2793.604
 20
794.162
 40
6.414
 50
140.864
 51
169.586
  0
LINE
  8
QUOTATURA
 10
2132.869
 11
2132.869
 20
774.0
 21
1002.596
  0
LINE
  8
QUOTATURA
 10
2132.869
 11
2066.858
 20
1002.596
 21
1002.596
  0
LINE
  8
QUOTATURA
 10
2129.535
 11
2132.869
 20
866.0
 21
886.0
  0
LINE
  8
QUOTATURA
 10
2132.869
 11
2136.203
 20
886.0
 21
866.0
  0
LINE
  8
QUOTATURA
 10
2136.203
 11
2129.535
 20
866.0
 21
866.0
  0
LINE
  8
QUOTATURA
 10
2136.203
 11
2132.869
 20
794.0
 21
774.0
  0
LINE
  8
QUOTATURA
 10
2132.869
 11
2129.535
 20
774.0
 21
794.0
  0
LINE
  8
QUOTATURA
 10
2129.535
 11
2136.203
 20
794.0
 21
794.0
  0
LINE
  8
QUOTATURA
 10
2026.8
 11
2030.231
 20
992.596
 21
992.596
  0
LINE
  8
QUOTATURA
 10
2030.231
 11
2033.663
 20
992.596
 21
992.596
  0
LINE
  8
QUOTATURA
 10
2030.231
 11
2030.231
 20
992.596
 21
1012.596
  0
LINE
  8
QUOTATURA
 10
2030.231
 11
2026.8
 20
1012.596
 21
1009.165
  0
LINE
  8
QUOTATURA
 10
2037.663
 11
2041.094
 20
992.596
 21
992.596
  0
LINE
  8
QUOTATURA
 10
2041.094
 11
2044.525
 20
992.596
 21
992.596
  0
LINE
  8
QUOTATURA
 10
2041.094
 11
2041.094
 20
992.596
 21
1012.596
  0
LINE
  8
QUOTATURA
 10
2041.094
 11
2037.663
 20
1012.596
 21
1009.165
  0
LINE
  8
QUOTATURA
 10
2061.858
 11
2048.525
 20
992.596
 21
992.596
  0
ARC
  8
QUOTATURA
 10
2055.575
 20
992.606
 40
7.05
 50
121.814
 51
180.077
  0
LINE
  8
QUOTATURA
 10
2051.858
 11
2059.414
 20
998.596
 21
1003.263
  0
ARC
  8
QUOTATURA
 10
2056.955
 20
1007.485
 40
4.886
 50
300.22
 51
59.779
  0
ARC
  8
QUOTATURA
 10
2055.636
 20
1004.687
 40
7.972
 50
61.714
 51
118.284
  0
ARC
  8
QUOTATURA
 10
2054.095
 20
1007.504
 40
4.762
 50
118.021
 51
169.472
  0
LINE
  8
QUOTATURA
 10
2124.397
 11
2056.464
 20
830.0
 21
830.0
  0
LINE
  8
QUOTATURA
 10
2124.397
 11
2056.464
 20
774.0
 21
774.0
  0
LINE
  8
QUOTATURA
 10
2066.464
 11
2066.464
 20
774.0
 21
724.33
  0
LINE
  8
QUOTATURA
 10
2066.464
 11
2038.805
 20
724.33
 21
724.33
  0
LINE
  8
QUOTATURA
 10
2063.13
 11
2066.464
 20
754.0
 21
774.0
  0
LINE
  8
QUOTATURA
 10
2066.464
 11
2069.798
 20
774.0
 21
754.0
  0
LINE
  8
QUOTATURA
 10
2069.798
 11
2063.13
 20
754.0
 21
754.0
  0
LINE
  8
QUOTATURA
 10
2066.464
 11
2066.464
 20
830.0
 21
870.0
  0
LINE
  8
QUOTATURA
 10
2069.798
 11
2066.464
 20
850.0
 21
830.0
  0
LINE
  8
QUOTATURA
 10
2066.464
 11
2063.13
 20
830.0
 21
850.0
  0
LINE
  8
QUOTATURA
 10
2063.13
 11
2069.798
 20
850.0
 21
850.0
  0
ARC
  8
QUOTATURA
 10
2007.981
 20
721.665
 40
7.463
 50
202.727
 51
247.273
  0
ARC
  8
QUOTATURA
 10
2008.098
 20
721.801
 40
7.634
 50
246.86
 51
293.141
  0
ARC
  8
QUOTATURA
 10
2008.259
 20
721.494
 40
7.288
 50
292.922
 51
357.893
  0
ARC
  8
QUOTATURA
 10
2008.981
 20
721.456
 40
6.565
 50
357.993
 51
71.191
  0
ARC
  8
QUOTATURA
 10
2008.097
 20
718.847
 40
9.32
 50
71.219
 51
108.775
  0
ARC
  8
QUOTATURA
 10
2007.507
 20
720.446
 40
7.616
 50
108.444
 51
138.941
  0
LINE
  8
QUOTATURA
 10
2001.764
 11
2003.32
 20
725.448
 21
734.337
  0
LINE
  8
QUOTATURA
 10
2003.32
 11
2013.32
 20
734.337
 21
734.337
  0
ARC
  8
QUOTATURA
 10
2027.513
 20
727.812
 40
6.548
 50
38.687
 51
141.312
  0
ARC
  8
QUOTATURA
 10
2031.862
 20
724.239
 40
12.177
 50
140.979
 51
219.022
  0
ARC
  8
QUOTATURA
 10
2027.513
 20
720.665
 40
6.548
 50
218.688
 51
321.312
  0
ARC
  8
QUOTATURA
 10
2028.511
 20
719.905
 40
5.294
 50
320.978
 51
39.022
  0
ARC
  8
QUOTATURA
 10
2027.179
 20
718.878
 40
6.975
 50
38.688
 51
141.312
  0
ARC
  8
QUOTATURA
 10
2026.71
 20
719.19
 40
6.414
 50
140.864
 51
169.586
  0
LINE
  8
QUOTATURA
 10
2447.897
 11
2725.916
 20
830.0
 21
830.0
  0
LINE
  8
QUOTATURA
 10
2561.897
 11
2725.916
 20
0.0
 21
0.0
  0
LINE
  8
QUOTATURA
 10
2715.916
 11
2715.916
 20
830.0
 21
756.037
  0
LINE
  8
QUOTATURA
 10
2715.916
 11
2715.916
 20
725.73
 21
0.0
  0
LINE
  8
QUOTATURA
 10
2712.582
 11
2715.916
 20
810.0
 21
830.0
  0
LINE
  8
QUOTATURA
 10
2715.916
 11
2719.25
 20
830.0
 21
810.0
  0
LINE
  8
QUOTATURA
 10
2719.25
 11
2712.582
 20
810.0
 21
810.0
  0
LINE
  8
QUOTATURA
 10
2719.25
 11
2715.916
 20
20.0
 21
0.0
  0
LINE
  8
QUOTATURA
 10
2715.916
 11
2712.582
 20
0.0
 21
20.0
  0
LINE
  8
QUOTATURA
 10
2712.582
 11
2719.25
 20
20.0
 21
20.0
  0
ARC
  8
QUOTATURA
 10
2695.799
 20
749.226
 40
8.666
 50
295.988
 51
313.996
  0
ARC
  8
QUOTATURA
 10
2698.821
 20
746.103
 40
4.32
 50
313.931
 51
46.072
  0
ARC
  8
QUOTATURA
 10
2696.929
 20
743.351
 40
7.634
 50
50.179
 51
129.82
  0
ARC
  8
QUOTATURA
 10
2694.572
 20
746.215
 40
3.926
 50
130.163
 51
229.839
  0
ARC
  8
QUOTATURA
 10
2696.416
 20
748.416
 40
6.798
 50
229.931
 51
276.21
  0
ARC
  8
QUOTATURA
 10
2697.887
 20
734.901
 40
6.798
 50
49.934
 51
96.213
  0
ARC
  8
QUOTATURA
 10
2699.466
 20
736.326
 40
4.7
 50
306.51
 51
53.491
  0
ARC
  8
QUOTATURA
 10
2696.93
 20
739.729
 40
8.945
 50
233.401
 51
306.599
  0
ARC
  8
QUOTATURA
 10
2694.393
 20
736.326
 40
4.7
 50
126.51
 51
233.49
  0
ARC
  8
QUOTATURA
 10
2700.179
 20
728.694
 40
14.277
 50
112.535
 51
126.953
  0
ARC
  8
QUOTATURA
 10
2714.037
 20
737.37
 40
6.236
 50
208.752
 51
258.484
  0
ARC
  8
QUOTATURA
 10
2715.359
 20
743.087
 40
12.104
 50
257.758
 51
286.48
  0
ARC
  8
QUOTATURA
 10
2717.237
 20
736.947
 40
5.683
 50
285.885
 51
325.197
  0
ARC
  8
QUOTATURA
 10
2717.281
 20
736.984
 40
5.668
 50
324.639
 51
31.269
  0
ARC
  8
QUOTATURA
 10
2717.093
 20
736.919
 40
5.863
 50
30.855
 51
75.402
  0
ARC
  8
QUOTATURA
 10
2715.904
 20
732.177
 40
10.751
 50
75.639
 51
104.361
  0
ARC
  8
QUOTATURA
 10
2709.279
 20
754.042
 40
12.114
 50
289.068
 51
345.638
  0
LINE
  8
QUOTATURA
 10
2721.015
 11
2708.792
 20
751.037
 21
751.037
  0
ARC
  8
QUOTATURA
 10
2734.313
 20
737.278
 40
6.548
 50
218.689
 51
321.311
  0
ARC
  8
QUOTATURA
 10
2729.964
 20
740.852
 40
12.177
 50
320.978
 51
39.021
  0
ARC
  8
QUOTATURA
 10
2734.313
 20
744.425
 40
6.548
 50
38.688
 51
141.313
  0
ARC
  8
QUOTATURA
 10
2738.662
 20
740.852
 40
12.177
 50
140.979
 51
219.021
  0
LINE
  8
QUOTATURA
 10
2561.897
 11
2845.713
 20
947.0
 21
947.0
  0
LINE
  8
QUOTATURA
 10
2561.897
 11
2845.713
 20
0.0
 21
0.0
  0
LINE
  8
QUOTATURA
 10
2835.713
 11
2835.713
 20
947.0
 21
875.781
  0
LINE
  8
QUOTATURA
 10
2835.713
 11
2835.713
 20
845.523
 21
0.0
  0
LINE
  8
QUOTATURA
 10
2832.379
 11
2835.713
 20
927.0
 21
947.0
  0
LINE
  8
QUOTATURA
 10
2835.713
 11
2839.047
 20
947.0
 21
927.0
  0
LINE
  8
QUOTATURA
 10
2839.047
 11
2832.379
 20
927.0
 21
927.0
  0
LINE
  8
QUOTATURA
 10
2839.047
 11
2835.713
 20
20.0
 21
0.0
  0
LINE
  8
QUOTATURA
 10
2835.713
 11
2832.379
 20
0.0
 21
20.0
  0
LINE
  8
QUOTATURA
 10
2832.379
 11
2839.047
 20
20.0
 21
20.0
  0
ARC
  8
QUOTATURA
 10
2815.146
 20
857.071
 40
6.548
 50
218.687
 51
321.312
  0
ARC
  8
QUOTATURA
 10
2810.797
 20
860.644
 40
12.177
 50
320.979
 51
39.022
  0
ARC
  8
QUOTATURA
 10
2815.146
 20
864.218
 40
6.548
 50
38.688
 51
141.312
  0
ARC
  8
QUOTATURA
 10
2814.148
 20
864.978
 40
5.294
 50
140.978
 51
219.022
  0
ARC
  8
QUOTATURA
 10
2815.479
 20
866.004
 40
6.975
 50
218.688
 51
321.312
  0
ARC
  8
QUOTATURA
 10
2815.949
 20
865.692
 40
6.414
 50
320.864
 51
349.586
  0
LINE
  8
QUOTATURA
 10
2844.175
 11
2827.509
 20
857.444
 21
857.444
  0
LINE
  8
QUOTATURA
 10
2827.509
 11
2827.509
 20
857.444
 21
858.555
  0
LINE
  8
QUOTATURA
 10
2827.509
 11
2838.62
 20
858.555
 21
870.777
  0
LINE
  8
QUOTATURA
 10
2838.62
 11
2839.731
 20
870.777
 21
870.777
  0
LINE
  8
QUOTATURA
 10
2839.731
 11
2839.731
 20
870.777
 21
850.777
  0
LINE
  8
QUOTATURA
 10
2848.128
 11
2862.572
 20
870.781
 21
870.781
  0
LINE
  8
QUOTATURA
 10
2862.572
 11
2862.572
 20
870.781
 21
869.67
  0
ARC
  8
QUOTATURA
 10
2876.21
 20
851.45
 40
22.759
 50
126.815
 51
181.684
  0
LINE
  8
QUOTATURA
 10
2144.397
 11
2650.255
 20
774.0
 21
774.0
  0
LINE
  8
QUOTATURA
 10
2561.897
 11
2650.255
 20
0.0
 21
0.0
  0
LINE
  8
QUOTATURA
 10
2640.255
 11
2640.255
 20
774.0
 21
702.391
  0
LINE
  8
QUOTATURA
 10
2640.255
 11
2640.255
 20
672.387
 21
0.0
  0
LINE
  8
QUOTATURA
 10
2636.921
 11
2640.255
 20
754.0
 21
774.0
  0
LINE
  8
QUOTATURA
 10
2640.255
 11
2643.589
 20
774.0
 21
754.0
  0
LINE
  8
QUOTATURA
 10
2643.589
 11
2636.921
 20
754.0
 21
754.0
  0
LINE
  8
QUOTATURA
 10
2643.589
 11
2640.255
 20
20.0
 21
0.0
  0
LINE
  8
QUOTATURA
 10
2640.255
 11
2636.921
 20
0.0
 21
20.0
  0
LINE
  8
QUOTATURA
 10
2636.921
 11
2643.589
 20
20.0
 21
20.0
  0
LINE
  8
QUOTATURA
 10
2613.454
 11
2627.898
 20
697.391
 21
697.391
  0
LINE
  8
QUOTATURA
 10
2627.898
 11
2627.898
 20
697.391
 21
696.28
  0
ARC
  8
QUOTATURA
 10
2641.536
 20
678.06
 40
22.759
 50
126.815
 51
181.684
  0
LINE
  8
QUOTATURA
 10
2631.898
 11
2646.343
 20
697.391
 21
697.391
  0
LINE
  8
QUOTATURA
 10
2646.343
 11
2646.343
 20
697.391
 21
696.28
  0
ARC
  8
QUOTATURA
 10
2659.98
 20
678.06
 40
22.759
 50
126.815
 51
181.684
  0
LINE
  8
QUOTATURA
 10
2667.057
 11
2650.39
 20
684.054
 21
684.054
  0
LINE
  8
QUOTATURA
 10
2650.39
 11
2650.39
 20
684.054
 21
685.165
  0
LINE
  8
QUOTATURA
 10
2650.39
 11
2661.501
 20
685.165
 21
697.387
  0
LINE
  8
QUOTATURA
 10
2661.501
 11
2662.612
 20
697.387
 21
697.387
  0
LINE
  8
QUOTATURA
 10
2662.612
 11
2662.612
 20
697.387
 21
677.387
  0
LINE
  8
QUOTATURA
 10
2133.582
 11
2133.582
 20
0.0
 21
264.811
  0
LINE
  8
QUOTATURA
 10
2133.582
 11
2090.373
 20
264.811
 21
264.811
  0
LINE
  8
QUOTATURA
 10
2130.248
 11
2133.582
 20
158.0
 21
178.0
  0
LINE
  8
QUOTATURA
 10
2133.582
 11
2136.916
 20
178.0
 21
158.0
  0
LINE
  8
QUOTATURA
 10
2136.916
 11
2130.248
 20
158.0
 21
158.0
  0
LINE
  8
QUOTATURA
 10
2136.916
 11
2133.582
 20
20.0
 21
0.0
  0
LINE
  8
QUOTATURA
 10
2133.582
 11
2130.248
 20
0.0
 21
20.0
  0
LINE
  8
QUOTATURA
 10
2130.248
 11
2136.916
 20
20.0
 21
20.0
  0
LINE
  8
QUOTATURA
 10
2041.46
 11
2044.891
 20
254.811
 21
254.811
  0
LINE
  8
QUOTATURA
 10
2044.891
 11
2048.322
 20
254.811
 21
254.811
  0
LINE
  8
QUOTATURA
 10
2044.891
 11
2044.891
 20
254.811
 21
274.811
  0
LINE
  8
QUOTATURA
 10
2044.891
 11
2041.46
 20
274.811
 21
271.379
  0
LINE
  8
QUOTATURA
 10
2052.873
 11
2067.317
 20
274.821
 21
274.821
  0
LINE
  8
QUOTATURA
 10
2067.317
 11
2067.317
 20
274.821
 21
273.71
  0
ARC
  8
QUOTATURA
 10
2080.955
 20
255.49
 40
22.759
 50
126.815
 51
181.684
  0
ARC
  8
QUOTATURA
 10
2077.006
 20
273.063
 40
8.666
 50
295.988
 51
313.996
  0
ARC
  8
QUOTATURA
 10
2080.028
 20
269.94
 40
4.32
 50
313.931
 51
46.072
  0
ARC
  8
QUOTATURA
 10
2078.136
 20
267.188
 40
7.634
 50
50.179
 51
129.82
  0
ARC
  8
QUOTATURA
 10
2075.779
 20
270.051
 40
3.926
 50
130.163
 51
229.839
  0
ARC
  8
QUOTATURA
 10
2077.623
 20
272.253
 40
6.798
 50
229.931
 51
276.21
  0
ARC
  8
QUOTATURA
 10
2079.094
 20
258.738
 40
6.798
 50
49.934
 51
96.213
  0
ARC
  8
QUOTATURA
 10
2080.673
 20
260.162
 40
4.7
 50
306.51
 51
53.491
  0
ARC
  8
QUOTATURA
 10
2078.136
 20
263.566
 40
8.945
 50
233.401
 51
306.599
  0
ARC
  8
QUOTATURA
 10
2075.599
 20
260.162
 40
4.7
 50
126.51
 51
233.49
  0
ARC
  8
QUOTATURA
 10
2081.386
 20
252.531
 40
14.277
 50
112.535
 51
126.953
  0
LINE
  8
QUOTATURA
 10
2447.897
 11
2490.85
 20
239.0
 21
239.0
  0
LINE
  8
QUOTATURA
 10
2447.897
 11
2490.85
 20
0.0
 21
0.0
  0
LINE
  8
QUOTATURA
 10
2480.85
 11
2480.85
 20
0.0
 21
275.484
  0
LINE
  8
QUOTATURA
 10
2480.85
 11
2480.85
 20
290.732
 21
290.732
  0
LINE
  8
QUOTATURA
 10
2477.516
 11
2480.85
 20
219.0
 21
239.0
  0
LINE
  8
QUOTATURA
 10
2480.85
 11
2484.184
 20
239.0
 21
219.0
  0
LINE
  8
QUOTATURA
 10
2484.184
 11
2477.516
 20
219.0
 21
219.0
  0
LINE
  8
QUOTATURA
 10
2484.184
 11
2480.85
 20
20.0
 21
0.0
  0
LINE
  8
QUOTATURA
 10
2480.85
 11
2477.516
 20
0.0
 21
20.0
  0
LINE
  8
QUOTATURA
 10
2477.516
 11
2484.184
 20
20.0
 21
20.0
  0
LINE
  8
QUOTATURA
 10
2467.178
 11
2453.845
 20
280.732
 21
280.732
  0
ARC
  8
QUOTATURA
 10
2460.894
 20
280.741
 40
7.05
 50
121.814
 51
180.077
  0
LINE
  8
QUOTATURA
 10
2457.178
 11
2464.734
 20
286.732
 21
291.399
  0
ARC
  8
QUOTATURA
 10
2462.274
 20
295.621
 40
4.886
 50
300.22
 51
59.779
  0
ARC
  8
QUOTATURA
 10
2460.956
 20
292.822
 40
7.972
 50
61.714
 51
118.284
  0
ARC
  8
QUOTATURA
 10
2459.415
 20
295.64
 40
4.762
 50
118.021
 51
169.472
  0
ARC
  8
QUOTATURA
 10
2477.181
 20
287.128
 40
6.236
 50
208.752
 51
258.484
  0
ARC
  8
QUOTATURA
 10
2478.503
 20
292.846
 40
12.104
 50
257.758
 51
286.48
  0
ARC
  8
QUOTATURA
 10
2480.381
 20
286.706
 40
5.683
 50
285.885
 51
325.197
  0
ARC
  8
QUOTATURA
 10
2480.425
 20
286.742
 40
5.668
 50
324.639
 51
31.269
  0
ARC
  8
QUOTATURA
 10
2480.236
 20
286.677
 40
5.863
 50
30.855
 51
75.402
  0
ARC
  8
QUOTATURA
 10
2479.047
 20
281.935
 40
10.751
 50
75.639
 51
104.361
  0
ARC
  8
QUOTATURA
 10
2472.423
 20
303.8
 40
12.114
 50
289.068
 51
345.638
  0
LINE
  8
QUOTATURA
 10
2484.159
 11
2471.936
 20
300.795
 21
300.795
  0
ARC
  8
QUOTATURA
 10
2495.913
 20
287.032
 40
6.548
 50
218.687
 51
321.312
  0
ARC
  8
QUOTATURA
 10
2491.563
 20
290.606
 40
12.177
 50
320.979
 51
39.022
  0
ARC
  8
QUOTATURA
 10
2495.912
 20
294.179
 40
6.548
 50
38.688
 51
141.312
  0
ARC
  8
QUOTATURA
 10
2494.914
 20
294.939
 40
5.294
 50
140.978
 51
219.022
  0
ARC
  8
QUOTATURA
 10
2496.246
 20
295.966
 40
6.975
 50
218.688
 51
321.312
  0
ARC
  8
QUOTATURA
 10
2496.715
 20
295.654
 40
6.414
 50
320.864
 51
349.586
  0
LINE
  8
QUOTATURA
 10
2144.397
 11
2256.303
 20
0.0
 21
0.0
  0
LINE
  8
QUOTATURA
 10
2144.397
 11
2256.303
 20
89.0
 21
89.0
  0
LINE
  8
QUOTATURA
 10
2246.303
 11
2246.303
 20
0.0
 21
29.252
  0
LINE
  8
QUOTATURA
 10
2246.303
 11
2246.303
 20
59.511
 21
89.0
  0
LINE
  8
QUOTATURA
 10
2249.637
 11
2246.303
 20
20.0
 21
0.0
  0
LINE
  8
QUOTATURA
 10
2246.303
 11
2242.969
 20
0.0
 21
20.0
  0
LINE
  8
QUOTATURA
 10
2242.969
 11
2249.637
 20
20.0
 21
20.0
  0
LINE
  8
QUOTATURA
 10
2242.969
 11
2246.303
 20
69.0
 21
89.0
  0
LINE
  8
QUOTATURA
 10
2246.303
 11
2249.637
 20
89.0
 21
69.0
  0
LINE
  8
QUOTATURA
 10
2249.637
 11
2242.969
 20
69.0
 21
69.0
  0
ARC
  8
QUOTATURA
 10
2236.147
 20
52.752
 40
8.666
 50
295.988
 51
313.996
  0
ARC
  8
QUOTATURA
 10
2239.169
 20
49.629
 40
4.32
 50
313.931
 51
46.072
  0
ARC
  8
QUOTATURA
 10
2237.277
 20
46.877
 40
7.634
 50
50.179
 51
129.82
  0
ARC
  8
QUOTATURA
 10
2234.92
 20
49.741
 40
3.926
 50
130.163
 51
229.839
  0
ARC
  8
QUOTATURA
 10
2236.764
 20
51.943
 40
6.798
 50
229.931
 51
276.21
  0
ARC
  8
QUOTATURA
 10
2238.235
 20
38.427
 40
6.798
 50
49.934
 51
96.213
  0
ARC
  8
QUOTATURA
 10
2239.814
 20
39.852
 40
4.7
 50
306.51
 51
53.491
  0
ARC
  8
QUOTATURA
 10
2237.277
 20
43.255
 40
8.945
 50
233.401
 51
306.599
  0
ARC
  8
QUOTATURA
 10
2234.74
 20
39.852
 40
4.7
 50
126.51
 51
233.49
  0
ARC
  8
QUOTATURA
 10
2240.527
 20
32.22
 40
14.277
 50
112.535
 51
126.953
  0
ARC
  8
QUOTATURA
 10
2254.737
 20
40.8
 40
6.548
 50
218.687
 51
321.312
  0
ARC
  8
QUOTATURA
 10
2250.388
 20
44.374
 40
12.177
 50
320.979
 51
39.022
  0
ARC
  8
QUOTATURA
 10
2254.737
 20
47.947
 40
6.548
 50
38.688
 51
141.312
  0
ARC
  8
QUOTATURA
 10
2253.739
 20
48.707
 40
5.294
 50
140.978
 51
219.022
  0
ARC
  8
QUOTATURA
 10
2255.071
 20
49.734
 40
6.975
 50
218.688
 51
321.312
  0
ARC
  8
QUOTATURA
 10
2255.54
 20
49.422
 40
6.414
 50
320.864
 51
349.586
  0
LINE
  8
QUOTATURA
 10
2144.397
 11
2256.303
 20
178.0
 21
178.0
  0
LINE
  8
QUOTATURA
 10
2144.397
 11
2256.303
 20
89.0
 21
89.0
  0
LINE
  8
QUOTATURA
 10
2246.303
 11
2246.303
 20
178.0
 21
148.511
  0
LINE
  8
QUOTATURA
 10
2246.303
 11
2246.303
 20
118.252
 21
89.0
  0
LINE
  8
QUOTATURA
 10
2242.969
 11
2246.303
 20
158.0
 21
178.0
  0
LINE
  8
QUOTATURA
 10
2246.303
 11
2249.637
 20
178.0
 21
158.0
  0
LINE
  8
QUOTATURA
 10
2249.637
 11
2242.969
 20
158.0
 21
158.0
  0
LINE
  8
QUOTATURA
 10
2249.637
 11
2246.303
 20
109.0
 21
89.0
  0
LINE
  8
QUOTATURA
 10
2246.303
 11
2242.969
 20
89.0
 21
109.0
  0
LINE
  8
QUOTATURA
 10
2242.969
 11
2249.637
 20
109.0
 21
109.0
  0
ARC
  8
QUOTATURA
 10
2236.147
 20
141.752
 40
8.666
 50
295.988
 51
313.996
  0
ARC
  8
QUOTATURA
 10
2239.169
 20
138.629
 40
4.32
 50
313.931
 51
46.072
  0
ARC
  8
QUOTATURA
 10
2237.277
 20
135.877
 40
7.634
 50
50.179
 51
129.82
  0
ARC
  8
QUOTATURA
 10
2234.92
 20
138.741
 40
3.926
 50
130.163
 51
229.839
  0
ARC
  8
QUOTATURA
 10
2236.764
 20
140.943
 40
6.798
 50
229.931
 51
276.21
  0
ARC
  8
QUOTATURA
 10
2238.235
 20
127.427
 40
6.798
 50
49.934
 51
96.213
  0
ARC
  8
QUOTATURA
 10
2239.814
 20
128.852
 40
4.7
 50
306.51
 51
53.491
  0
ARC
  8
QUOTATURA
 10
2237.277
 20
132.255
 40
8.945
 50
233.401
 51
306.599
  0
ARC
  8
QUOTATURA
 10
2234.74
 20
128.852
 40
4.7
 50
126.51
 51
233.49
  0
ARC
  8
QUOTATURA
 10
2240.527
 20
121.22
 40
14.277
 50
112.535
 51
126.953
  0
ARC
  8
QUOTATURA
 10
2254.737
 20
129.8
 40
6.548
 50
218.687
 51
321.312
  0
ARC
  8
QUOTATURA
 10
2250.388
 20
133.374
 40
12.177
 50
320.979
 51
39.022
  0
ARC
  8
QUOTATURA
 10
2254.737
 20
136.947
 40
6.548
 50
38.688
 51
141.312
  0
ARC
  8
QUOTATURA
 10
2253.739
 20
137.707
 40
5.294
 50
140.978
 51
219.022
  0
ARC
  8
QUOTATURA
 10
2255.071
 20
138.734
 40
6.975
 50
218.688
 51
321.312
  0
ARC
  8
QUOTATURA
 10
2255.54
 20
138.422
 40
6.414
 50
320.864
 51
349.586
  0
LINE
  8
COSTRUZIONI
 10
1640.831
 11
1667.831
 20
267.34
 21
267.34
  0
LINE
  8
COSTRUZIONI
 10
1667.831
 11
1667.831
 20
267.34
 21
108.34
  0
LINE
  8
COSTRUZIONI
 10
1640.831
 11
1640.831
 20
267.34
 21
283.34
  0
LINE
  8
COSTRUZIONI
 10
1640.831
 11
1622.831
 20
283.34
 21
283.34
  0
LINE
  8
COSTRUZIONI
 10
1622.831
 11
1622.831
 20
283.34
 21
108.34
  0
LINE
  8
COSTRUZIONI
 10
1622.831
 11
1667.831
 20
108.34
 21
108.34
  0
LINE
  8
APS_GEOMETRY
 10
1667.831
 11
1640.831
 20
49.016
 21
49.016
  0
LINE
  8
APS_GEOMETRY
 10
1640.831
 11
1640.831
 20
49.016
 21
65.016
  0
LINE
  8
APS_GEOMETRY
 10
1640.831
 11
1622.831
 20
65.016
 21
65.016
  0
LINE
  8
APS_GEOMETRY
 10
1622.831
 11
1622.831
 20
65.016
 21
40.016
  0
LINE
  8
APS_GEOMETRY
 10
1622.831
 11
1622.831
 20
40.016
 21
-48.984
  0
LINE
  8
APS_GEOMETRY
 10
1622.831
 11
1667.831
 20
-48.984
 21
-48.984
  0
LINE
  8
APS_GEOMETRY
 10
1667.831
 11
1667.831
 20
-48.984
 21
40.016
  0
LINE
  8
APS_GEOMETRY
 10
1667.831
 11
1667.831
 20
40.016
 21
49.016
  0
CIRCLE
  8
APS_GEOMETRY
 10
1651.831
 20
181.34
 40
6.0
  0
CIRCLE
  8
APS_GEOMETRY
 10
1651.831
 20
149.34
 40
6.0
  0
CIRCLE
  8
APS_GEOMETRY
 10
1651.831
 20
24.016
 40
6.0
  0
CIRCLE
  8
APS_GEOMETRY
 10
1651.831
 20
-7.984
 40
6.0
  0
LINE
  8
APS_GEOMETRY
 10
1622.831
 11
1667.831
 20
40.016
 21
40.016
  0
LINE
  8
APS_GEOMETRY
 10
1667.478
 11
1667.831
 20
40.016
 21
40.369
  0
LINE
  8
APS_GEOMETRY
 10
1667.831
 11
1666.417
 20
41.43
 21
40.016
  0
LINE
  8
APS_GEOMETRY
 10
1666.063
 11
1667.831
 20
40.016
 21
41.783
  0
LINE
  8
APS_GEOMETRY
 10
1667.831
 11
1665.003
 20
42.844
 21
40.016
  0
LINE
  8
APS_GEOMETRY
 10
1664.649
 11
1667.831
 20
40.016
 21
43.198
  0
LINE
  8
APS_GEOMETRY
 10
1667.831
 11
1663.588
 20
44.258
 21
40.016
  0
LINE
  8
APS_GEOMETRY
 10
1663.235
 11
1667.831
 20
40.016
 21
44.612
  0
LINE
  8
APS_GEOMETRY
 10
1667.831
 11
1662.174
 20
45.672
 21
40.016
  0
LINE
  8
APS_GEOMETRY
 10
1661.821
 11
1667.831
 20
40.016
 21
46.026
  0
LINE
  8
APS_GEOMETRY
 10
1667.831
 11
1660.76
 20
47.087
 21
40.016
  0
LINE
  8
APS_GEOMETRY
 10
1660.406
 11
1667.831
 20
40.016
 21
47.44
  0
LINE
  8
APS_GEOMETRY
 10
1667.831
 11
1659.346
 20
48.501
 21
40.016
  0
LINE
  8
APS_GEOMETRY
 10
1658.992
 11
1667.831
 20
40.016
 21
48.854
  0
LINE
  8
APS_GEOMETRY
 10
1666.932
 11
1657.932
 20
49.016
 21
40.016
  0
LINE
  8
APS_GEOMETRY
 10
1657.578
 11
1666.578
 20
40.016
 21
49.016
  0
LINE
  8
APS_GEOMETRY
 10
1665.517
 11
1656.517
 20
49.016
 21
40.016
  0
LINE
  8
APS_GEOMETRY
 10
1656.164
 11
1665.164
 20
40.016
 21
49.016
  0
LINE
  8
APS_GEOMETRY
 10
1664.103
 11
1655.103
 20
49.016
 21
40.016
  0
LINE
  8
APS_GEOMETRY
 10
1654.75
 11
1663.75
 20
40.016
 21
49.016
  0
LINE
  8
APS_GEOMETRY
 10
1662.689
 11
1653.689
 20
49.016
 21
40.016
  0
LINE
  8
APS_GEOMETRY
 10
1653.335
 11
1662.335
 20
40.016
 21
49.016
  0
LINE
  8
APS_GEOMETRY
 10
1661.275
 11
1652.275
 20
49.016
 21
40.016
  0
LINE
  8
APS_GEOMETRY
 10
1651.921
 11
1660.921
 20
40.016
 21
49.016
  0
LINE
  8
APS_GEOMETRY
 10
1659.861
 11
1650.861
 20
49.016
 21
40.016
  0
LINE
  8
APS_GEOMETRY
 10
1650.507
 11
1659.507
 20
40.016
 21
49.016
  0
LINE
  8
APS_GEOMETRY
 10
1658.446
 11
1649.446
 20
49.016
 21
40.016
  0
LINE
  8
APS_GEOMETRY
 10
1649.093
 11
1658.093
 20
40.016
 21
49.016
  0
LINE
  8
APS_GEOMETRY
 10
1657.032
 11
1648.032
 20
49.016
 21
40.016
  0
LINE
  8
APS_GEOMETRY
 10
1647.679
 11
1656.679
 20
40.016
 21
49.016
  0
LINE
  8
APS_GEOMETRY
 10
1655.618
 11
1646.618
 20
49.016
 21
40.016
  0
LINE
  8
APS_GEOMETRY
 10
1646.264
 11
1655.264
 20
40.016
 21
49.016
  0
LINE
  8
APS_GEOMETRY
 10
1654.204
 11
1645.204
 20
49.016
 21
40.016
  0
LINE
  8
APS_GEOMETRY
 10
1644.85
 11
1653.85
 20
40.016
 21
49.016
  0
LINE
  8
APS_GEOMETRY
 10
1652.789
 11
1643.789
 20
49.016
 21
40.016
  0
LINE
  8
APS_GEOMETRY
 10
1643.436
 11
1652.436
 20
40.016
 21
49.016
  0
LINE
  8
APS_GEOMETRY
 10
1651.375
 11
1642.375
 20
49.016
 21
40.016
  0
LINE
  8
APS_GEOMETRY
 10
1642.022
 11
1651.022
 20
40.016
 21
49.016
  0
LINE
  8
APS_GEOMETRY
 10
1649.961
 11
1640.961
 20
49.016
 21
40.016
  0
LINE
  8
APS_GEOMETRY
 10
1640.607
 11
1649.607
 20
40.016
 21
49.016
  0
LINE
  8
APS_GEOMETRY
 10
1648.547
 11
1639.547
 20
49.016
 21
40.016
  0
LINE
  8
APS_GEOMETRY
 10
1639.193
 11
1648.193
 20
40.016
 21
49.016
  0
LINE
  8
APS_GEOMETRY
 10
1647.133
 11
1638.133
 20
49.016
 21
40.016
  0
LINE
  8
APS_GEOMETRY
 10
1637.779
 11
1646.779
 20
40.016
 21
49.016
  0
LINE
  8
APS_GEOMETRY
 10
1645.718
 11
1636.718
 20
49.016
 21
40.016
  0
LINE
  8
APS_GEOMETRY
 10
1636.365
 11
1645.365
 20
40.016
 21
49.016
  0
LINE
  8
APS_GEOMETRY
 10
1644.304
 11
1635.304
 20
49.016
 21
40.016
  0
LINE
  8
APS_GEOMETRY
 10
1634.951
 11
1643.951
 20
40.016
 21
49.016
  0
LINE
  8
APS_GEOMETRY
 10
1642.89
 11
1633.89
 20
49.016
 21
40.016
  0
LINE
  8
APS_GEOMETRY
 10
1633.536
 11
1642.536
 20
40.016
 21
49.016
  0
LINE
  8
APS_GEOMETRY
 10
1641.476
 11
1632.476
 20
49.016
 21
40.016
  0
LINE
  8
APS_GEOMETRY
 10
1632.122
 11
1641.122
 20
40.016
 21
49.016
  0
LINE
  8
APS_GEOMETRY
 10
1640.831
 11
1631.062
 20
49.785
 21
40.016
  0
LINE
  8
APS_GEOMETRY
 10
1630.708
 11
1640.831
 20
40.016
 21
50.139
  0
LINE
  8
APS_GEOMETRY
 10
1640.831
 11
1629.647
 20
51.199
 21
40.016
  0
LINE
  8
APS_GEOMETRY
 10
1629.294
 11
1640.831
 20
40.016
 21
51.553
  0
LINE
  8
APS_GEOMETRY
 10
1640.831
 11
1628.233
 20
52.614
 21
40.016
  0
LINE
  8
APS_GEOMETRY
 10
1627.88
 11
1640.831
 20
40.016
 21
52.967
  0
LINE
  8
APS_GEOMETRY
 10
1640.831
 11
1626.819
 20
54.028
 21
40.016
  0
LINE
  8
APS_GEOMETRY
 10
1626.465
 11
1640.831
 20
40.016
 21
54.381
  0
LINE
  8
APS_GEOMETRY
 10
1640.831
 11
1625.405
 20
55.442
 21
40.016
  0
LINE
  8
APS_GEOMETRY
 10
1625.051
 11
1640.831
 20
40.016
 21
55.795
  0
LINE
  8
APS_GEOMETRY
 10
1640.831
 11
1623.99
 20
56.856
 21
40.016
  0
LINE
  8
APS_GEOMETRY
 10
1623.637
 11
1640.831
 20
40.016
 21
57.21
  0
LINE
  8
APS_GEOMETRY
 10
1640.831
 11
1622.831
 20
58.27
 21
40.27
  0
LINE
  8
APS_GEOMETRY
 10
1622.831
 11
1640.831
 20
40.624
 21
58.624
  0
LINE
  8
APS_GEOMETRY
 10
1640.831
 11
1622.831
 20
59.685
 21
41.685
  0
LINE
  8
APS_GEOMETRY
 10
1622.831
 11
1640.831
 20
42.038
 21
60.038
  0
LINE
  8
APS_GEOMETRY
 10
1640.831
 11
1622.831
 20
61.099
 21
43.099
  0
LINE
  8
APS_GEOMETRY
 10
1622.831
 11
1640.831
 20
43.452
 21
61.452
  0
LINE
  8
APS_GEOMETRY
 10
1640.831
 11
1622.831
 20
62.513
 21
44.513
  0
LINE
  8
APS_GEOMETRY
 10
1622.831
 11
1640.831
 20
44.867
 21
62.867
  0
LINE
  8
APS_GEOMETRY
 10
1640.831
 11
1622.831
 20
63.927
 21
45.927
  0
LINE
  8
APS_GEOMETRY
 10
1622.831
 11
1640.831
 20
46.281
 21
64.281
  0
LINE
  8
APS_GEOMETRY
 10
1640.505
 11
1622.831
 20
65.016
 21
47.341
  0
LINE
  8
APS_GEOMETRY
 10
1622.831
 11
1640.152
 20
47.695
 21
65.016
  0
LINE
  8
APS_GEOMETRY
 10
1639.091
 11
1622.831
 20
65.016
 21
48.756
  0
LINE
  8
APS_GEOMETRY
 10
1622.831
 11
1638.737
 20
49.109
 21
65.016
  0
LINE
  8
APS_GEOMETRY
 10
1637.677
 11
1622.831
 20
65.016
 21
50.17
  0
LINE
  8
APS_GEOMETRY
 10
1622.831
 11
1637.323
 20
50.523
 21
65.016
  0
LINE
  8
APS_GEOMETRY
 10
1636.263
 11
1622.831
 20
65.016
 21
51.584
  0
LINE
  8
APS_GEOMETRY
 10
1622.831
 11
1635.909
 20
51.938
 21
65.016
  0
LINE
  8
APS_GEOMETRY
 10
1634.848
 11
1622.831
 20
65.016
 21
52.998
  0
LINE
  8
APS_GEOMETRY
 10
1622.831
 11
1634.495
 20
53.352
 21
65.016
  0
LINE
  8
APS_GEOMETRY
 10
1633.434
 11
1622.831
 20
65.016
 21
54.412
  0
LINE
  8
APS_GEOMETRY
 10
1622.831
 11
1633.081
 20
54.766
 21
65.016
  0
LINE
  8
APS_GEOMETRY
 10
1632.02
 11
1622.831
 20
65.016
 21
55.827
  0
LINE
  8
APS_GEOMETRY
 10
1622.831
 11
1631.666
 20
56.18
 21
65.016
  0
LINE
  8
APS_GEOMETRY
 10
1630.606
 11
1622.831
 20
65.016
 21
57.241
  0
LINE
  8
APS_GEOMETRY
 10
1622.831
 11
1630.252
 20
57.594
 21
65.016
  0
LINE
  8
APS_GEOMETRY
 10
1629.191
 11
1622.831
 20
65.016
 21
58.655
  0
LINE
  8
APS_GEOMETRY
 10
1622.831
 11
1628.838
 20
59.009
 21
65.016
  0
LINE
  8
APS_GEOMETRY
 10
1627.777
 11
1622.831
 20
65.016
 21
60.069
  0
LINE
  8
APS_GEOMETRY
 10
1622.831
 11
1627.424
 20
60.423
 21
65.016
  0
LINE
  8
APS_GEOMETRY
 10
1626.363
 11
1622.831
 20
65.016
 21
61.484
  0
LINE
  8
APS_GEOMETRY
 10
1622.831
 11
1626.009
 20
61.837
 21
65.016
  0
LINE
  8
APS_GEOMETRY
 10
1624.949
 11
1622.831
 20
65.016
 21
62.898
  0
LINE
  8
APS_GEOMETRY
 10
1622.831
 11
1624.595
 20
63.251
 21
65.016
  0
LINE
  8
APS_GEOMETRY
 10
1623.535
 11
1622.831
 20
65.016
 21
64.312
  0
LINE
  8
APS_GEOMETRY
 10
1622.831
 11
1623.181
 20
64.666
 21
65.016
  0
LINE
  8
COSTRUZIONI
 10
1667.831
 11
1622.831
 20
222.34
 21
222.34
  0
LINE
  8
APS_GEOMETRY
 10
1667.831
 11
1622.831
 20
133.34
 21
133.34
  0
LINE
  8
QUOTATURA
 10
1612.831
 11
1530.077
 20
40.016
 21
40.016
  0
LINE
  8
QUOTATURA
 10
1612.831
 11
1530.077
 20
-48.984
 21
-48.984
  0
LINE
  8
QUOTATURA
 10
1540.077
 11
1540.077
 20
40.016
 21
10.527
  0
LINE
  8
QUOTATURA
 10
1540.077
 11
1540.077
 20
-19.733
 21
-48.984
  0
LINE
  8
QUOTATURA
 10
1536.743
 11
1540.077
 20
20.016
 21
40.016
  0
LINE
  8
QUOTATURA
 10
1540.077
 11
1543.411
 20
40.016
 21
20.016
  0
LINE
  8
QUOTATURA
 10
1543.411
 11
1536.743
 20
20.016
 21
20.016
  0
LINE
  8
QUOTATURA
 10
1543.411
 11
1540.077
 20
-28.984
 21
-48.984
  0
LINE
  8
QUOTATURA
 10
1540.077
 11
1536.743
 20
-48.984
 21
-28.984
  0
LINE
  8
QUOTATURA
 10
1536.743
 11
1543.411
 20
-28.984
 21
-28.984
  0
ARC
  8
QUOTATURA
 10
1529.921
 20
3.768
 40
8.666
 50
295.988
 51
313.996
  0
ARC
  8
QUOTATURA
 10
1532.943
 20
0.645
 40
4.32
 50
313.931
 51
46.072
  0
ARC
  8
QUOTATURA
 10
1531.051
 20
-2.107
 40
7.634
 50
50.179
 51
129.82
  0
ARC
  8
QUOTATURA
 10
1528.694
 20
0.756
 40
3.926
 50
130.163
 51
229.839
  0
ARC
  8
QUOTATURA
 10
1530.538
 20
2.958
 40
6.798
 50
229.931
 51
276.21
  0
ARC
  8
QUOTATURA
 10
1532.009
 20
-10.557
 40
6.798
 50
49.934
 51
96.213
  0
ARC
  8
QUOTATURA
 10
1533.588
 20
-9.133
 40
4.7
 50
306.51
 51
53.491
  0
ARC
  8
QUOTATURA
 10
1531.051
 20
-5.729
 40
8.945
 50
233.401
 51
306.599
  0
ARC
  8
QUOTATURA
 10
1528.514
 20
-9.133
 40
4.7
 50
126.51
 51
233.49
  0
ARC
  8
QUOTATURA
 10
1534.301
 20
-16.764
 40
14.277
 50
112.535
 51
126.953
  0
ARC
  8
QUOTATURA
 10
1548.511
 20
-8.185
 40
6.548
 50
218.687
 51
321.312
  0
ARC
  8
QUOTATURA
 10
1544.162
 20
-4.611
 40
12.177
 50
320.979
 51
39.022
  0
ARC
  8
QUOTATURA
 10
1548.511
 20
-1.037
 40
6.548
 50
38.688
 51
141.312
  0
ARC
  8
QUOTATURA
 10
1547.513
 20
-0.278
 40
5.294
 50
140.978
 51
219.022
  0
ARC
  8
QUOTATURA
 10
1548.845
 20
0.749
 40
6.975
 50
218.688
 51
321.312
  0
ARC
  8
QUOTATURA
 10
1549.314
 20
0.437
 40
6.414
 50
320.864
 51
349.586
  0
LINE
  8
APS_GEOMETRY
 10
1667.478
 11
1667.831
 20
108.34
 21
108.693
  0
LINE
  8
APS_GEOMETRY
 10
1667.831
 11
1666.417
 20
109.754
 21
108.34
  0
LINE
  8
APS_GEOMETRY
 10
1666.063
 11
1667.831
 20
108.34
 21
110.107
  0
LINE
  8
APS_GEOMETRY
 10
1667.831
 11
1665.003
 20
111.168
 21
108.34
  0
LINE
  8
APS_GEOMETRY
 10
1664.649
 11
1667.831
 20
108.34
 21
111.522
  0
LINE
  8
APS_GEOMETRY
 10
1667.831
 11
1663.588
 20
112.582
 21
108.34
  0
LINE
  8
APS_GEOMETRY
 10
1663.235
 11
1667.831
 20
108.34
 21
112.936
  0
LINE
  8
APS_GEOMETRY
 10
1667.831
 11
1662.174
 20
113.996
 21
108.34
  0
LINE
  8
APS_GEOMETRY
 10
1661.821
 11
1667.831
 20
108.34
 21
114.35
  0
LINE
  8
APS_GEOMETRY
 10
1667.831
 11
1660.76
 20
115.411
 21
108.34
  0
LINE
  8
APS_GEOMETRY
 10
1660.406
 11
1667.831
 20
108.34
 21
115.764
  0
LINE
  8
APS_GEOMETRY
 10
1667.831
 11
1659.346
 20
116.825
 21
108.34
  0
LINE
  8
APS_GEOMETRY
 10
1658.992
 11
1667.831
 20
108.34
 21
117.178
  0
LINE
  8
APS_GEOMETRY
 10
1667.831
 11
1657.932
 20
118.239
 21
108.34
  0
LINE
  8
APS_GEOMETRY
 10
1657.578
 11
1667.831
 20
108.34
 21
118.593
  0
LINE
  8
APS_GEOMETRY
 10
1667.831
 11
1656.517
 20
119.653
 21
108.34
  0
LINE
  8
APS_GEOMETRY
 10
1656.164
 11
1667.831
 20
108.34
 21
120.007
  0
LINE
  8
APS_GEOMETRY
 10
1667.831
 11
1655.103
 20
121.068
 21
108.34
  0
LINE
  8
APS_GEOMETRY
 10
1654.75
 11
1667.831
 20
108.34
 21
121.421
  0
LINE
  8
APS_GEOMETRY
 10
1667.831
 11
1653.689
 20
122.482
 21
108.34
  0
LINE
  8
APS_GEOMETRY
 10
1653.335
 11
1667.831
 20
108.34
 21
122.835
  0
LINE
  8
APS_GEOMETRY
 10
1667.831
 11
1652.275
 20
123.896
 21
108.34
  0
LINE
  8
APS_GEOMETRY
 10
1651.921
 11
1667.831
 20
108.34
 21
124.25
  0
LINE
  8
APS_GEOMETRY
 10
1667.831
 11
1650.861
 20
125.31
 21
108.34
  0
LINE
  8
APS_GEOMETRY
 10
1650.507
 11
1667.831
 20
108.34
 21
125.664
  0
LINE
  8
APS_GEOMETRY
 10
1667.831
 11
1649.446
 20
126.724
 21
108.34
  0
LINE
  8
APS_GEOMETRY
 10
1649.093
 11
1667.831
 20
108.34
 21
127.078
  0
LINE
  8
APS_GEOMETRY
 10
1667.831
 11
1648.032
 20
128.139
 21
108.34
  0
LINE
  8
APS_GEOMETRY
 10
1647.679
 11
1667.831
 20
108.34
 21
128.492
  0
LINE
  8
APS_GEOMETRY
 10
1667.831
 11
1646.618
 20
129.553
 21
108.34
  0
LINE
  8
APS_GEOMETRY
 10
1646.264
 11
1667.831
 20
108.34
 21
129.906
  0
LINE
  8
APS_GEOMETRY
 10
1667.831
 11
1645.204
 20
130.967
 21
108.34
  0
LINE
  8
APS_GEOMETRY
 10
1644.85
 11
1667.831
 20
108.34
 21
131.321
  0
LINE
  8
APS_GEOMETRY
 10
1667.831
 11
1643.789
 20
132.381
 21
108.34
  0
LINE
  8
APS_GEOMETRY
 10
1643.436
 11
1667.831
 20
108.34
 21
132.735
  0
LINE
  8
APS_GEOMETRY
 10
1667.375
 11
1642.375
 20
133.34
 21
108.34
  0
LINE
  8
APS_GEOMETRY
 10
1642.022
 11
1667.022
 20
108.34
 21
133.34
  0
LINE
  8
APS_GEOMETRY
 10
1665.961
 11
1640.961
 20
133.34
 21
108.34
  0
LINE
  8
APS_GEOMETRY
 10
1640.607
 11
1665.607
 20
108.34
 21
133.34
  0
LINE
  8
APS_GEOMETRY
 10
1664.547
 11
1639.547
 20
133.34
 21
108.34
  0
LINE
  8
APS_GEOMETRY
 10
1639.193
 11
1664.193
 20
108.34
 21
133.34
  0
LINE
  8
APS_GEOMETRY
 10
1663.133
 11
1638.133
 20
133.34
 21
108.34
  0
LINE
  8
APS_GEOMETRY
 10
1637.779
 11
1662.779
 20
108.34
 21
133.34
  0
LINE
  8
APS_GEOMETRY
 10
1661.718
 11
1636.718
 20
133.34
 21
108.34
  0
LINE
  8
APS_GEOMETRY
 10
1636.365
 11
1661.365
 20
108.34
 21
133.34
  0
LINE
  8
APS_GEOMETRY
 10
1660.304
 11
1635.304
 20
133.34
 21
108.34
  0
LINE
  8
APS_GEOMETRY
 10
1634.951
 11
1659.951
 20
108.34
 21
133.34
  0
LINE
  8
APS_GEOMETRY
 10
1658.89
 11
1633.89
 20
133.34
 21
108.34
  0
LINE
  8
APS_GEOMETRY
 10
1633.536
 11
1658.536
 20
108.34
 21
133.34
  0
LINE
  8
APS_GEOMETRY
 10
1657.476
 11
1632.476
 20
133.34
 21
108.34
  0
LINE
  8
APS_GEOMETRY
 10
1632.122
 11
1657.122
 20
108.34
 21
133.34
  0
LINE
  8
APS_GEOMETRY
 10
1656.062
 11
1631.062
 20
133.34
 21
108.34
  0
LINE
  8
APS_GEOMETRY
 10
1630.708
 11
1655.708
 20
108.34
 21
133.34
  0
LINE
  8
APS_GEOMETRY
 10
1654.647
 11
1629.647
 20
133.34
 21
108.34
  0
LINE
  8
APS_GEOMETRY
 10
1629.294
 11
1654.294
 20
108.34
 21
133.34
  0
LINE
  8
APS_GEOMETRY
 10
1653.233
 11
1628.233
 20
133.34
 21
108.34
  0
LINE
  8
APS_GEOMETRY
 10
1627.88
 11
1652.88
 20
108.34
 21
133.34
  0
LINE
  8
APS_GEOMETRY
 10
1651.819
 11
1626.819
 20
133.34
 21
108.34
  0
LINE
  8
APS_GEOMETRY
 10
1626.465
 11
1651.465
 20
108.34
 21
133.34
  0
LINE
  8
APS_GEOMETRY
 10
1650.405
 11
1625.405
 20
133.34
 21
108.34
  0
LINE
  8
APS_GEOMETRY
 10
1625.051
 11
1650.051
 20
108.34
 21
133.34
  0
LINE
  8
APS_GEOMETRY
 10
1648.99
 11
1623.99
 20
133.34
 21
108.34
  0
LINE
  8
APS_GEOMETRY
 10
1623.637
 11
1648.637
 20
108.34
 21
133.34
  0
LINE
  8
APS_GEOMETRY
 10
1647.576
 11
1622.831
 20
133.34
 21
108.594
  0
LINE
  8
APS_GEOMETRY
 10
1622.831
 11
1647.223
 20
108.948
 21
133.34
  0
LINE
  8
APS_GEOMETRY
 10
1646.162
 11
1622.831
 20
133.34
 21
110.009
  0
LINE
  8
APS_GEOMETRY
 10
1622.831
 11
1645.808
 20
110.362
 21
133.34
  0
LINE
  8
APS_GEOMETRY
 10
1644.748
 11
1622.831
 20
133.34
 21
111.423
  0
LINE
  8
APS_GEOMETRY
 10
1622.831
 11
1644.394
 20
111.776
 21
133.34
  0
LINE
  8
APS_GEOMETRY
 10
1643.334
 11
1622.831
 20
133.34
 21
112.837
  0
LINE
  8
APS_GEOMETRY
 10
1622.831
 11
1642.98
 20
113.191
 21
133.34
  0
LINE
  8
APS_GEOMETRY
 10
1641.919
 11
1622.831
 20
133.34
 21
114.251
  0
LINE
  8
APS_GEOMETRY
 10
1622.831
 11
1641.566
 20
114.605
 21
133.34
  0
LINE
  8
APS_GEOMETRY
 10
1640.505
 11
1622.831
 20
133.34
 21
115.666
  0
LINE
  8
APS_GEOMETRY
 10
1622.831
 11
1640.152
 20
116.019
 21
133.34
  0
LINE
  8
APS_GEOMETRY
 10
1639.091
 11
1622.831
 20
133.34
 21
117.08
  0
LINE
  8
APS_GEOMETRY
 10
1622.831
 11
1638.737
 20
117.433
 21
133.34
  0
LINE
  8
APS_GEOMETRY
 10
1637.677
 11
1622.831
 20
133.34
 21
118.494
  0
LINE
  8
APS_GEOMETRY
 10
1622.831
 11
1637.323
 20
118.847
 21
133.34
  0
LINE
  8
APS_GEOMETRY
 10
1636.263
 11
1622.831
 20
133.34
 21
119.908
  0
LINE
  8
APS_GEOMETRY
 10
1622.831
 11
1635.909
 20
120.262
 21
133.34
  0
LINE
  8
APS_GEOMETRY
 10
1634.848
 11
1622.831
 20
133.34
 21
121.322
  0
LINE
  8
APS_GEOMETRY
 10
1622.831
 11
1634.495
 20
121.676
 21
133.34
  0
LINE
  8
APS_GEOMETRY
 10
1633.434
 11
1622.831
 20
133.34
 21
122.737
  0
LINE
  8
APS_GEOMETRY
 10
1622.831
 11
1633.081
 20
123.09
 21
133.34
  0
LINE
  8
APS_GEOMETRY
 10
1632.02
 11
1622.831
 20
133.34
 21
124.151
  0
LINE
  8
APS_GEOMETRY
 10
1622.831
 11
1631.666
 20
124.504
 21
133.34
  0
LINE
  8
APS_GEOMETRY
 10
1630.606
 11
1622.831
 20
133.34
 21
125.565
  0
LINE
  8
APS_GEOMETRY
 10
1622.831
 11
1630.252
 20
125.919
 21
133.34
  0
LINE
  8
APS_GEOMETRY
 10
1629.191
 11
1622.831
 20
133.34
 21
126.979
  0
LINE
  8
APS_GEOMETRY
 10
1622.831
 11
1628.838
 20
127.333
 21
133.34
  0
LINE
  8
APS_GEOMETRY
 10
1627.777
 11
1622.831
 20
133.34
 21
128.393
  0
LINE
  8
APS_GEOMETRY
 10
1622.831
 11
1627.424
 20
128.747
 21
133.34
  0
LINE
  8
APS_GEOMETRY
 10
1626.363
 11
1622.831
 20
133.34
 21
129.808
  0
LINE
  8
APS_GEOMETRY
 10
1622.831
 11
1626.009
 20
130.161
 21
133.34
  0
LINE
  8
APS_GEOMETRY
 10
1624.949
 11
1622.831
 20
133.34
 21
131.222
  0
LINE
  8
APS_GEOMETRY
 10
1622.831
 11
1624.595
 20
131.575
 21
133.34
  0
LINE
  8
APS_GEOMETRY
 10
1623.535
 11
1622.831
 20
133.34
 21
132.636
  0
LINE
  8
APS_GEOMETRY
 10
1622.831
 11
1623.181
 20
132.99
 21
133.34
  0
LINE
  8
QUOTATURA
 10
1612.831
 11
1582.248
 20
133.34
 21
133.34
  0
LINE
  8
QUOTATURA
 10
1641.831
 11
1582.248
 20
149.34
 21
149.34
  0
LINE
  8
QUOTATURA
 10
1592.248
 11
1592.248
 20
133.34
 21
106.809
  0
LINE
  8
QUOTATURA
 10
1592.248
 11
1576.177
 20
106.809
 21
106.809
  0
LINE
  8
QUOTATURA
 10
1588.914
 11
1592.248
 20
113.34
 21
133.34
  0
LINE
  8
QUOTATURA
 10
1592.248
 11
1595.582
 20
133.34
 21
113.34
  0
LINE
  8
QUOTATURA
 10
1595.582
 11
1588.914
 20
113.34
 21
113.34
  0
LINE
  8
QUOTATURA
 10
1592.248
 11
1592.248
 20
149.34
 21
189.34
  0
LINE
  8
QUOTATURA
 10
1595.582
 11
1592.248
 20
169.34
 21
149.34
  0
LINE
  8
QUOTATURA
 10
1592.248
 11
1588.914
 20
149.34
 21
169.34
  0
LINE
  8
QUOTATURA
 10
1588.914
 11
1595.582
 20
169.34
 21
169.34
  0
LINE
  8
QUOTATURA
 10
1651.831
 11
1651.831
 20
146.006
 21
152.674
  0
LINE
  8
QUOTATURA
 10
1648.497
 11
1655.165
 20
149.34
 21
149.34
  0
LINE
  8
QUOTATURA
 10
1545.987
 11
1549.418
 20
96.809
 21
96.809
  0
LINE
  8
QUOTATURA
 10
1549.418
 11
1552.849
 20
96.809
 21
96.809
  0
LINE
  8
QUOTATURA
 10
1549.418
 11
1549.418
 20
96.809
 21
116.809
  0
LINE
  8
QUOTATURA
 10
1549.418
 11
1545.987
 20
116.809
 21
113.378
  0
ARC
  8
QUOTATURA
 10
1564.885
 20
110.292
 40
6.548
 50
38.687
 51
141.312
  0
ARC
  8
QUOTATURA
 10
1569.234
 20
106.718
 40
12.177
 50
140.979
 51
219.022
  0
ARC
  8
QUOTATURA
 10
1564.885
 20
103.144
 40
6.548
 50
218.688
 51
321.312
  0
ARC
  8
QUOTATURA
 10
1565.883
 20
102.385
 40
5.294
 50
320.978
 51
39.022
  0
ARC
  8
QUOTATURA
 10
1564.552
 20
101.358
 40
6.975
 50
38.688
 51
141.312
  0
ARC
  8
QUOTATURA
 10
1564.082
 20
101.67
 40
6.414
 50
140.864
 51
169.586
  0
LINE
  8
QUOTATURA
 10
1641.831
 11
1577.759
 20
24.016
 21
24.016
  0
LINE
  8
QUOTATURA
 10
1612.831
 11
1577.759
 20
40.016
 21
40.016
  0
LINE
  8
QUOTATURA
 10
1587.759
 11
1587.759
 20
40.016
 21
69.029
  0
LINE
  8
QUOTATURA
 10
1587.759
 11
1576.177
 20
69.029
 21
69.029
  0
LINE
  8
QUOTATURA
 10
1591.093
 11
1587.759
 20
60.016
 21
40.016
  0
LINE
  8
QUOTATURA
 10
1587.759
 11
1584.425
 20
40.016
 21
60.016
  0
LINE
  8
QUOTATURA
 10
1584.425
 11
1591.093
 20
60.016
 21
60.016
  0
LINE
  8
QUOTATURA
 10
1587.759
 11
1587.759
 20
24.016
 21
-15.984
  0
LINE
  8
QUOTATURA
 10
1584.425
 11
1587.759
 20
4.016
 21
24.016
  0
LINE
  8
QUOTATURA
 10
1587.759
 11
1591.093
 20
24.016
 21
4.016
  0
LINE
  8
QUOTATURA
 10
1591.093
 11
1584.425
 20
4.016
 21
4.016
  0
LINE
  8
QUOTATURA
 10
1651.831
 11
1651.831
 20
20.682
 21
27.35
  0
LINE
  8
QUOTATURA
 10
1648.497
 11
1655.165
 20
24.016
 21
24.016
  0
LINE
  8
QUOTATURA
 10
1545.987
 11
1549.418
 20
59.029
 21
59.029
  0
LINE
  8
QUOTATURA
 10
1549.418
 11
1552.849
 20
59.029
 21
59.029
  0
LINE
  8
QUOTATURA
 10
1549.418
 11
1549.418
 20
59.029
 21
79.029
  0
LINE
  8
QUOTATURA
 10
1549.418
 11
1545.987
 20
79.029
 21
75.597
  0
ARC
  8
QUOTATURA
 10
1564.885
 20
72.511
 40
6.548
 50
38.687
 51
141.312
  0
ARC
  8
QUOTATURA
 10
1569.234
 20
68.938
 40
12.177
 50
140.979
 51
219.022
  0
ARC
  8
QUOTATURA
 10
1564.885
 20
65.364
 40
6.548
 50
218.688
 51
321.312
  0
ARC
  8
QUOTATURA
 10
1565.883
 20
64.604
 40
5.294
 50
320.978
 51
39.022
  0
ARC
  8
QUOTATURA
 10
1564.552
 20
63.577
 40
6.975
 50
38.688
 51
141.312
  0
ARC
  8
QUOTATURA
 10
1564.082
 20
63.889
 40
6.414
 50
140.864
 51
169.586
  0
LINE
  8
QUOTATURA
 10
1602.831
 11
1525.623
 20
133.34
 21
133.34
  0
LINE
  8
QUOTATURA
 10
1612.831
 11
1525.623
 20
222.34
 21
222.34
  0
LINE
  8
QUOTATURA
 10
1535.623
 11
1535.623
 20
133.34
 21
162.592
  0
LINE
  8
QUOTATURA
 10
1535.623
 11
1535.623
 20
192.851
 21
222.34
  0
LINE
  8
QUOTATURA
 10
1538.957
 11
1535.623
 20
153.34
 21
133.34
  0
LINE
  8
QUOTATURA
 10
1535.623
 11
1532.289
 20
133.34
 21
153.34
  0
LINE
  8
QUOTATURA
 10
1532.289
 11
1538.957
 20
153.34
 21
153.34
  0
LINE
  8
QUOTATURA
 10
1532.289
 11
1535.623
 20
202.34
 21
222.34
  0
LINE
  8
QUOTATURA
 10
1535.623
 11
1538.957
 20
222.34
 21
202.34
  0
LINE
  8
QUOTATURA
 10
1538.957
 11
1532.289
 20
202.34
 21
202.34
  0
ARC
  8
QUOTATURA
 10
1525.467
 20
186.092
 40
8.666
 50
295.988
 51
313.996
  0
ARC
  8
QUOTATURA
 10
1528.489
 20
182.969
 40
4.32
 50
313.931
 51
46.072
  0
ARC
  8
QUOTATURA
 10
1526.597
 20
180.217
 40
7.634
 50
50.179
 51
129.82
  0
ARC
  8
QUOTATURA
 10
1524.24
 20
183.08
 40
3.926
 50
130.163
 51
229.839
  0
ARC
  8
QUOTATURA
 10
1526.084
 20
185.282
 40
6.798
 50
229.931
 51
276.21
  0
ARC
  8
QUOTATURA
 10
1527.555
 20
171.767
 40
6.798
 50
49.934
 51
96.213
  0
ARC
  8
QUOTATURA
 10
1529.134
 20
173.191
 40
4.7
 50
306.51
 51
53.491
  0
ARC
  8
QUOTATURA
 10
1526.597
 20
176.595
 40
8.945
 50
233.401
 51
306.599
  0
ARC
  8
QUOTATURA
 10
1524.06
 20
173.191
 40
4.7
 50
126.51
 51
233.49
  0
ARC
  8
QUOTATURA
 10
1529.847
 20
165.56
 40
14.277
 50
112.535
 51
126.953
  0
ARC
  8
QUOTATURA
 10
1544.057
 20
174.14
 40
6.548
 50
218.687
 51
321.312
  0
ARC
  8
QUOTATURA
 10
1539.708
 20
177.713
 40
12.177
 50
320.979
 51
39.022
  0
ARC
  8
QUOTATURA
 10
1544.057
 20
181.287
 40
6.548
 50
38.688
 51
141.312
  0
ARC
  8
QUOTATURA
 10
1543.059
 20
182.047
 40
5.294
 50
140.978
 51
219.022
  0
ARC
  8
QUOTATURA
 10
1544.391
 20
183.073
 40
6.975
 50
218.688
 51
321.312
  0
ARC
  8
QUOTATURA
 10
1544.86
 20
182.761
 40
6.414
 50
320.864
 51
349.586
  0
LINE
  8
APS_GEOMETRY
 10
1653.991
 11
1657.429
 20
175.742
 21
179.18
  0
LINE
  8
APS_GEOMETRY
 10
1657.606
 11
1653.46
 20
179.71
 21
175.565
  0
LINE
  8
APS_GEOMETRY
 10
1652.185
 11
1657.821
 20
175.35
 21
180.986
  0
LINE
  8
APS_GEOMETRY
 10
1657.831
 11
1651.821
 20
181.35
 21
175.34
  0
LINE
  8
APS_GEOMETRY
 10
1650.842
 11
1657.749
 20
175.422
 21
182.329
  0
LINE
  8
APS_GEOMETRY
 10
1657.692
 11
1650.546
 20
182.625
 21
175.479
  0
LINE
  8
APS_GEOMETRY
 10
1649.727
 11
1657.45
 20
175.721
 21
183.444
  0
LINE
  8
APS_GEOMETRY
 10
1657.349
 11
1649.474
 20
183.696
 21
175.822
  0
LINE
  8
APS_GEOMETRY
 10
1648.771
 11
1656.992
 20
176.179
 21
184.4
  0
LINE
  8
APS_GEOMETRY
 10
1656.856
 11
1648.553
 20
184.618
 21
176.314
  0
LINE
  8
APS_GEOMETRY
 10
1647.945
 11
1656.403
 20
176.768
 21
185.225
  0
LINE
  8
APS_GEOMETRY
 10
1656.237
 11
1647.758
 20
185.413
 21
176.934
  0
LINE
  8
APS_GEOMETRY
 10
1647.24
 11
1655.694
 20
177.477
 21
185.931
  0
LINE
  8
APS_GEOMETRY
 10
1655.498
 11
1647.082
 20
186.088
 21
177.672
  0
LINE
  8
APS_GEOMETRY
 10
1646.655
 11
1654.865
 20
178.305
 21
186.516
  0
LINE
  8
APS_GEOMETRY
 10
1654.638
 11
1646.528
 20
186.642
 21
178.532
  0
LINE
  8
APS_GEOMETRY
 10
1646.201
 11
1653.905
 20
179.266
 21
186.97
  0
LINE
  8
APS_GEOMETRY
 10
1653.642
 11
1646.111
 20
187.06
 21
179.529
  0
LINE
  8
APS_GEOMETRY
 10
1645.907
 11
1652.784
 20
180.386
 21
187.263
  0
LINE
  8
APS_GEOMETRY
 10
1652.473
 11
1645.865
 20
187.305
 21
180.698
  0
LINE
  8
APS_GEOMETRY
 10
1645.844
 11
1651.433
 20
181.738
 21
187.326
  0
LINE
  8
APS_GEOMETRY
 10
1651.04
 11
1645.883
 20
187.287
 21
182.13
  0
LINE
  8
APS_GEOMETRY
 10
1646.26
 11
1649.603
 20
183.568
 21
186.911
  0
LINE
  8
APS_GEOMETRY
 10
1648.931
 11
1646.578
 20
186.592
 21
184.239
  0
LINE
  8
APS_GEOMETRY
 10
1645.95
 11
1600.95
 20
889.885
 21
889.885
  0
LINE
  8
APS_GEOMETRY
 10
1600.95
 11
1600.95
 20
889.885
 21
1064.885
  0
LINE
  8
APS_GEOMETRY
 10
1600.95
 11
1618.95
 20
1064.885
 21
1064.885
  0
LINE
  8
APS_GEOMETRY
 10
1618.95
 11
1618.95
 20
1064.885
 21
1048.885
  0
LINE
  8
APS_GEOMETRY
 10
1618.95
 11
1645.95
 20
1048.885
 21
1048.885
  0
LINE
  8
APS_GEOMETRY
 10
1645.95
 11
1645.95
 20
1048.885
 21
889.885
  0
LINE
  8
APS_GEOMETRY
 10
1645.95
 11
1600.95
 20
778.896
 21
778.896
  0
LINE
  8
APS_GEOMETRY
 10
1600.95
 11
1600.95
 20
778.896
 21
603.896
  0
LINE
  8
APS_GEOMETRY
 10
1600.95
 11
1618.95
 20
603.896
 21
603.896
  0
LINE
  8
APS_GEOMETRY
 10
1618.95
 11
1618.95
 20
603.896
 21
619.896
  0
LINE
  8
APS_GEOMETRY
 10
1618.95
 11
1645.95
 20
619.896
 21
619.896
  0
LINE
  8
APS_GEOMETRY
 10
1645.95
 11
1645.95
 20
619.896
 21
778.896
  0
CIRCLE
  8
APS_GEOMETRY
 10
1651.831
 20
213.34
 40
6.0
  0
LINE
  8
APS_GEOMETRY
 10
1653.991
 11
1657.429
 20
207.742
 21
211.18
  0
LINE
  8
APS_GEOMETRY
 10
1657.606
 11
1653.46
 20
211.71
 21
207.565
  0
LINE
  8
APS_GEOMETRY
 10
1652.185
 11
1657.821
 20
207.35
 21
212.986
  0
LINE
  8
APS_GEOMETRY
 10
1657.831
 11
1651.821
 20
213.35
 21
207.34
  0
LINE
  8
APS_GEOMETRY
 10
1650.842
 11
1657.749
 20
207.422
 21
214.329
  0
LINE
  8
APS_GEOMETRY
 10
1657.692
 11
1650.546
 20
214.625
 21
207.479
  0
LINE
  8
APS_GEOMETRY
 10
1649.727
 11
1657.45
 20
207.721
 21
215.444
  0
LINE
  8
APS_GEOMETRY
 10
1657.349
 11
1649.474
 20
215.696
 21
207.822
  0
LINE
  8
APS_GEOMETRY
 10
1648.771
 11
1656.992
 20
208.179
 21
216.4
  0
LINE
  8
APS_GEOMETRY
 10
1656.856
 11
1648.553
 20
216.618
 21
208.314
  0
LINE
  8
APS_GEOMETRY
 10
1647.946
 11
1656.403
 20
208.768
 21
217.225
  0
LINE
  8
APS_GEOMETRY
 10
1656.237
 11
1647.758
 20
217.413
 21
208.934
  0
LINE
  8
APS_GEOMETRY
 10
1647.24
 11
1655.694
 20
209.477
 21
217.931
  0
LINE
  8
APS_GEOMETRY
 10
1655.498
 11
1647.082
 20
218.088
 21
209.672
  0
LINE
  8
APS_GEOMETRY
 10
1646.655
 11
1654.865
 20
210.305
 21
218.516
  0
LINE
  8
APS_GEOMETRY
 10
1654.638
 11
1646.528
 20
218.642
 21
210.532
  0
LINE
  8
APS_GEOMETRY
 10
1646.201
 11
1653.905
 20
211.266
 21
218.97
  0
LINE
  8
APS_GEOMETRY
 10
1653.642
 11
1646.111
 20
219.06
 21
211.529
  0
LINE
  8
APS_GEOMETRY
 10
1645.907
 11
1652.784
 20
212.386
 21
219.263
  0
LINE
  8
APS_GEOMETRY
 10
1652.473
 11
1645.865
 20
219.305
 21
212.698
  0
LINE
  8
APS_GEOMETRY
 10
1645.844
 11
1651.433
 20
213.738
 21
219.326
  0
LINE
  8
APS_GEOMETRY
 10
1651.04
 11
1645.883
 20
219.287
 21
214.13
  0
LINE
  8
APS_GEOMETRY
 10
1646.26
 11
1649.603
 20
215.568
 21
218.911
  0
LINE
  8
APS_GEOMETRY
 10
1648.931
 11
1646.578
 20
218.592
 21
216.239
  0
CIRCLE
  8
APS_GEOMETRY
 10
1629.95
 20
930.885
 40
6.0
  0
CIRCLE
  8
APS_GEOMETRY
 10
1629.95
 20
962.885
 40
6.0
  0
CIRCLE
  8
APS_GEOMETRY
 10
1629.95
 20
994.885
 40
6.0
  0
CIRCLE
  8
APS_GEOMETRY
 10
1629.95
 20
737.896
 40
6.0
  0
CIRCLE
  8
APS_GEOMETRY
 10
1629.95
 20
705.896
 40
6.0
  0
CIRCLE
  8
APS_GEOMETRY
 10
1629.95
 20
673.896
 40
6.0
  0
LINE
  8
COSTRUZIONI
 10
1645.95
 11
1600.95
 20
1003.885
 21
1003.885
  0
LINE
  8
COSTRUZIONI
 10
1645.95
 11
1600.95
 20
664.896
 21
664.896
  0
LINE
  8
APS_GEOMETRY
 10
1645.95
 11
1600.95
 20
720.896
 21
720.896
  0
LINE
  8
APS_GEOMETRY
 10
1645.95
 11
1600.95
 20
947.885
 21
947.885
  0
LINE
  8
APS_GEOMETRY
 10
1645.596
 11
1645.95
 20
889.885
 21
890.239
  0
LINE
  8
APS_GEOMETRY
 10
1645.95
 11
1644.536
 20
891.299
 21
889.885
  0
LINE
  8
APS_GEOMETRY
 10
1644.182
 11
1645.95
 20
889.885
 21
891.653
  0
LINE
  8
APS_GEOMETRY
 10
1645.95
 11
1643.121
 20
892.713
 21
889.885
  0
LINE
  8
APS_GEOMETRY
 10
1642.768
 11
1645.95
 20
889.885
 21
893.067
  0
LINE
  8
APS_GEOMETRY
 10
1645.95
 11
1641.707
 20
894.128
 21
889.885
  0
LINE
  8
APS_GEOMETRY
 10
1641.354
 11
1645.95
 20
889.885
 21
894.481
  0
LINE
  8
APS_GEOMETRY
 10
1645.95
 11
1640.293
 20
895.542
 21
889.885
  0
LINE
  8
APS_GEOMETRY
 10
1639.939
 11
1645.95
 20
889.885
 21
895.895
  0
LINE
  8
APS_GEOMETRY
 10
1645.95
 11
1638.879
 20
896.956
 21
889.885
  0
LINE
  8
APS_GEOMETRY
 10
1638.525
 11
1645.95
 20
889.885
 21
897.31
  0
LINE
  8
APS_GEOMETRY
 10
1645.95
 11
1637.465
 20
898.37
 21
889.885
  0
LINE
  8
APS_GEOMETRY
 10
1637.111
 11
1645.95
 20
889.885
 21
898.724
  0
LINE
  8
APS_GEOMETRY
 10
1645.95
 11
1636.05
 20
899.784
 21
889.885
  0
LINE
  8
APS_GEOMETRY
 10
1635.697
 11
1645.95
 20
889.885
 21
900.138
  0
LINE
  8
APS_GEOMETRY
 10
1645.95
 11
1634.636
 20
901.199
 21
889.885
  0
LINE
  8
APS_GEOMETRY
 10
1634.283
 11
1645.95
 20
889.885
 21
901.552
  0
LINE
  8
APS_GEOMETRY
 10
1645.95
 11
1633.222
 20
902.613
 21
889.885
  0
LINE
  8
APS_GEOMETRY
 10
1632.868
 11
1645.95
 20
889.885
 21
902.966
  0
LINE
  8
APS_GEOMETRY
 10
1645.95
 11
1631.808
 20
904.027
 21
889.885
  0
LINE
  8
APS_GEOMETRY
 10
1631.454
 11
1645.95
 20
889.885
 21
904.381
  0
LINE
  8
APS_GEOMETRY
 10
1645.95
 11
1630.394
 20
905.441
 21
889.885
  0
LINE
  8
APS_GEOMETRY
 10
1630.04
 11
1645.95
 20
889.885
 21
905.795
  0
LINE
  8
APS_GEOMETRY
 10
1645.95
 11
1628.979
 20
906.856
 21
889.885
  0
LINE
  8
APS_GEOMETRY
 10
1628.626
 11
1645.95
 20
889.885
 21
907.209
  0
LINE
  8
APS_GEOMETRY
 10
1645.95
 11
1627.565
 20
908.27
 21
889.885
  0
LINE
  8
APS_GEOMETRY
 10
1627.212
 11
1645.95
 20
889.885
 21
908.623
  0
LINE
  8
APS_GEOMETRY
 10
1645.95
 11
1626.151
 20
909.684
 21
889.885
  0
LINE
  8
APS_GEOMETRY
 10
1625.797
 11
1645.95
 20
889.885
 21
910.038
  0
LINE
  8
APS_GEOMETRY
 10
1645.95
 11
1624.737
 20
911.098
 21
889.885
  0
LINE
  8
APS_GEOMETRY
 10
1624.383
 11
1645.95
 20
889.885
 21
911.452
  0
LINE
  8
APS_GEOMETRY
 10
1645.95
 11
1623.322
 20
912.512
 21
889.885
  0
LINE
  8
APS_GEOMETRY
 10
1622.969
 11
1645.95
 20
889.885
 21
912.866
  0
LINE
  8
APS_GEOMETRY
 10
1645.95
 11
1621.908
 20
913.927
 21
889.885
  0
LINE
  8
APS_GEOMETRY
 10
1621.555
 11
1645.95
 20
889.885
 21
914.28
  0
LINE
  8
APS_GEOMETRY
 10
1645.95
 11
1620.494
 20
915.341
 21
889.885
  0
LINE
  8
APS_GEOMETRY
 10
1620.14
 11
1645.95
 20
889.885
 21
915.694
  0
LINE
  8
APS_GEOMETRY
 10
1645.95
 11
1619.08
 20
916.755
 21
889.885
  0
LINE
  8
APS_GEOMETRY
 10
1618.726
 11
1645.95
 20
889.885
 21
917.109
  0
LINE
  8
APS_GEOMETRY
 10
1645.95
 11
1617.666
 20
918.169
 21
889.885
  0
LINE
  8
APS_GEOMETRY
 10
1617.312
 11
1645.95
 20
889.885
 21
918.523
  0
LINE
  8
APS_GEOMETRY
 10
1645.95
 11
1616.251
 20
919.583
 21
889.885
  0
LINE
  8
APS_GEOMETRY
 10
1615.898
 11
1645.95
 20
889.885
 21
919.937
  0
LINE
  8
APS_GEOMETRY
 10
1645.95
 11
1614.837
 20
920.998
 21
889.885
  0
LINE
  8
APS_GEOMETRY
 10
1614.484
 11
1645.95
 20
889.885
 21
921.351
  0
LINE
  8
APS_GEOMETRY
 10
1645.95
 11
1613.423
 20
922.412
 21
889.885
  0
LINE
  8
APS_GEOMETRY
 10
1613.069
 11
1645.95
 20
889.885
 21
922.765
  0
LINE
  8
APS_GEOMETRY
 10
1645.95
 11
1612.009
 20
923.826
 21
889.885
  0
LINE
  8
APS_GEOMETRY
 10
1611.655
 11
1645.95
 20
889.885
 21
924.18
  0
LINE
  8
APS_GEOMETRY
 10
1645.95
 11
1610.595
 20
925.24
 21
889.885
  0
LINE
  8
APS_GEOMETRY
 10
1610.241
 11
1645.95
 20
889.885
 21
925.594
  0
LINE
  8
APS_GEOMETRY
 10
1645.95
 11
1609.18
 20
926.655
 21
889.885
  0
LINE
  8
APS_GEOMETRY
 10
1608.827
 11
1645.95
 20
889.885
 21
927.008
  0
LINE
  8
APS_GEOMETRY
 10
1645.95
 11
1607.766
 20
928.069
 21
889.885
  0
LINE
  8
APS_GEOMETRY
 10
1607.413
 11
1645.95
 20
889.885
 21
928.422
  0
LINE
  8
APS_GEOMETRY
 10
1645.95
 11
1606.352
 20
929.483
 21
889.885
  0
LINE
  8
APS_GEOMETRY
 10
1605.998
 11
1645.95
 20
889.885
 21
929.837
  0
LINE
  8
APS_GEOMETRY
 10
1645.95
 11
1604.938
 20
930.897
 21
889.885
  0
LINE
  8
APS_GEOMETRY
 10
1604.584
 11
1645.95
 20
889.885
 21
931.251
  0
LINE
  8
APS_GEOMETRY
 10
1645.95
 11
1603.523
 20
932.311
 21
889.885
  0
LINE
  8
APS_GEOMETRY
 10
1603.17
 11
1645.95
 20
889.885
 21
932.665
  0
LINE
  8
APS_GEOMETRY
 10
1645.95
 11
1602.109
 20
933.726
 21
889.885
  0
LINE
  8
APS_GEOMETRY
 10
1601.756
 11
1645.95
 20
889.885
 21
934.079
  0
LINE
  8
APS_GEOMETRY
 10
1645.95
 11
1600.95
 20
935.14
 21
890.14
  0
LINE
  8
APS_GEOMETRY
 10
1600.95
 11
1645.95
 20
890.493
 21
935.493
  0
LINE
  8
APS_GEOMETRY
 10
1645.95
 11
1600.95
 20
936.554
 21
891.554
  0
LINE
  8
APS_GEOMETRY
 10
1600.95
 11
1645.95
 20
891.908
 21
936.908
  0
LINE
  8
APS_GEOMETRY
 10
1645.95
 11
1600.95
 20
937.968
 21
892.968
  0
LINE
  8
APS_GEOMETRY
 10
1600.95
 11
1645.95
 20
893.322
 21
938.322
  0
LINE
  8
APS_GEOMETRY
 10
1645.95
 11
1635.683
 20
939.382
 21
929.116
  0
LINE
  8
APS_GEOMETRY
 10
1631.719
 11
1600.95
 20
925.152
 21
894.382
  0
LINE
  8
APS_GEOMETRY
 10
1600.95
 11
1631.239
 20
894.736
 21
925.025
  0
LINE
  8
APS_GEOMETRY
 10
1635.81
 11
1645.95
 20
929.596
 21
939.736
  0
LINE
  8
APS_GEOMETRY
 10
1645.95
 11
1635.949
 20
940.797
 21
930.796
  0
LINE
  8
APS_GEOMETRY
 10
1630.039
 11
1600.95
 20
924.886
 21
895.797
  0
LINE
  8
APS_GEOMETRY
 10
1600.95
 11
1629.69
 20
896.15
 21
924.891
  0
LINE
  8
APS_GEOMETRY
 10
1635.944
 11
1645.95
 20
931.145
 21
941.15
  0
LINE
  8
APS_GEOMETRY
 10
1645.95
 11
1635.828
 20
942.211
 21
932.089
  0
LINE
  8
APS_GEOMETRY
 10
1628.746
 11
1600.95
 20
925.007
 21
897.211
  0
LINE
  8
APS_GEOMETRY
 10
1600.95
 11
1628.459
 20
897.564
 21
925.073
  0
LINE
  8
APS_GEOMETRY
 10
1635.762
 11
1645.95
 20
932.376
 21
942.564
  0
LINE
  8
APS_GEOMETRY
 10
1645.95
 11
1635.497
 20
943.625
 21
933.172
  0
LINE
  8
APS_GEOMETRY
 10
1627.663
 11
1600.95
 20
925.338
 21
898.625
  0
LINE
  8
APS_GEOMETRY
 10
1600.95
 11
1627.417
 20
898.979
 21
925.446
  0
LINE
  8
APS_GEOMETRY
 10
1635.389
 11
1645.95
 20
933.418
 21
943.979
  0
LINE
  8
APS_GEOMETRY
 10
1645.95
 11
1635.014
 20
945.039
 21
934.103
  0
LINE
  8
APS_GEOMETRY
 10
1626.732
 11
1600.95
 20
925.821
 21
900.039
  0
LINE
  8
APS_GEOMETRY
 10
1600.95
 11
1626.519
 20
900.393
 21
925.962
  0
LINE
  8
APS_GEOMETRY
 10
1634.872
 11
1645.95
 20
934.315
 21
945.393
  0
LINE
  8
APS_GEOMETRY
 10
1645.95
 11
1634.403
 20
946.454
 21
934.906
  0
LINE
  8
APS_GEOMETRY
 10
1625.928
 11
1600.95
 20
926.432
 21
901.454
  0
LINE
  8
APS_GEOMETRY
 10
1600.95
 11
1625.746
 20
901.807
 21
926.604
  0
LINE
  8
APS_GEOMETRY
 10
1634.231
 11
1645.95
 20
935.089
 21
946.807
  0
LINE
  8
APS_GEOMETRY
 10
1645.95
 11
1633.673
 20
947.868
 21
935.59
  0
LINE
  8
APS_GEOMETRY
 10
1625.244
 11
1600.95
 20
927.162
 21
902.868
  0
LINE
  8
APS_GEOMETRY
 10
1600.95
 11
1625.092
 20
903.221
 21
927.363
  0
LINE
  8
APS_GEOMETRY
 10
1633.471
 11
1645.614
 20
935.743
 21
947.885
  0
LINE
  8
APS_GEOMETRY
 10
1644.553
 11
1632.821
 20
947.885
 21
936.153
  0
LINE
  8
APS_GEOMETRY
 10
1624.682
 11
1600.95
 20
928.014
 21
904.282
  0
LINE
  8
APS_GEOMETRY
 10
1600.95
 11
1624.561
 20
904.636
 21
928.247
  0
LINE
  8
APS_GEOMETRY
 10
1632.588
 11
1644.199
 20
936.274
 21
947.885
  0
LINE
  8
APS_GEOMETRY
 10
1643.139
 11
1631.835
 20
947.885
 21
936.581
  0
LINE
  8
APS_GEOMETRY
 10
1624.254
 11
1600.95
 20
929.0
 21
905.696
  0
LINE
  8
APS_GEOMETRY
 10
1600.95
 11
1624.171
 20
906.05
 21
929.271
  0
LINE
  8
APS_GEOMETRY
 10
1631.564
 11
1642.785
 20
936.664
 21
947.885
  0
LINE
  8
APS_GEOMETRY
 10
1641.724
 11
1630.68
 20
947.885
 21
936.84
  0
LINE
  8
APS_GEOMETRY
 10
1623.994
 11
1600.95
 20
930.155
 21
907.11
  0
LINE
  8
APS_GEOMETRY
 10
1600.95
 11
1623.964
 20
907.464
 21
930.478
  0
LINE
  8
APS_GEOMETRY
 10
1630.357
 11
1641.371
 20
936.871
 21
947.885
  0
LINE
  8
APS_GEOMETRY
 10
1640.31
 11
1629.272
 20
947.885
 21
936.847
  0
LINE
  8
APS_GEOMETRY
 10
1623.988
 11
1600.95
 20
931.563
 21
908.525
  0
LINE
  8
APS_GEOMETRY
 10
1600.95
 11
1624.05
 20
908.878
 21
931.979
  0
LINE
  8
APS_GEOMETRY
 10
1628.856
 11
1639.957
 20
936.784
 21
947.885
  0
LINE
  8
APS_GEOMETRY
 10
1638.896
 11
1627.259
 20
947.885
 21
936.248
  0
LINE
  8
APS_GEOMETRY
 10
1624.587
 11
1600.95
 20
933.576
 21
909.939
  0
LINE
  8
APS_GEOMETRY
 10
1600.95
 11
1625.173
 20
910.292
 21
934.515
  0
LINE
  8
APS_GEOMETRY
 10
1626.32
 11
1638.543
 20
935.662
 21
947.885
  0
LINE
  8
APS_GEOMETRY
 10
1637.482
 11
1600.95
 20
947.885
 21
911.353
  0
LINE
  8
APS_GEOMETRY
 10
1600.95
 11
1637.128
 20
911.707
 21
947.885
  0
LINE
  8
APS_GEOMETRY
 10
1636.068
 11
1600.95
 20
947.885
 21
912.767
  0
LINE
  8
APS_GEOMETRY
 10
1600.95
 11
1635.714
 20
913.121
 21
947.885
  0
LINE
  8
APS_GEOMETRY
 10
1634.653
 11
1600.95
 20
947.885
 21
914.181
  0
LINE
  8
APS_GEOMETRY
 10
1600.95
 11
1634.3
 20
914.535
 21
947.885
  0
LINE
  8
APS_GEOMETRY
 10
1633.239
 11
1600.95
 20
947.885
 21
915.596
  0
LINE
  8
APS_GEOMETRY
 10
1600.95
 11
1632.886
 20
915.949
 21
947.885
  0
LINE
  8
APS_GEOMETRY
 10
1631.825
 11
1600.95
 20
947.885
 21
917.01
  0
LINE
  8
APS_GEOMETRY
 10
1600.95
 11
1631.471
 20
917.363
 21
947.885
  0
LINE
  8
APS_GEOMETRY
 10
1630.411
 11
1600.95
 20
947.885
 21
918.424
  0
LINE
  8
APS_GEOMETRY
 10
1600.95
 11
1630.057
 20
918.778
 21
947.885
  0
LINE
  8
APS_GEOMETRY
 10
1628.997
 11
1600.95
 20
947.885
 21
919.838
  0
LINE
  8
APS_GEOMETRY
 10
1600.95
 11
1628.643
 20
920.192
 21
947.885
  0
LINE
  8
APS_GEOMETRY
 10
1627.582
 11
1600.95
 20
947.885
 21
921.253
  0
LINE
  8
APS_GEOMETRY
 10
1600.95
 11
1627.229
 20
921.606
 21
947.885
  0
LINE
  8
APS_GEOMETRY
 10
1626.168
 11
1600.95
 20
947.885
 21
922.667
  0
LINE
  8
APS_GEOMETRY
 10
1600.95
 11
1625.815
 20
923.02
 21
947.885
  0
LINE
  8
APS_GEOMETRY
 10
1624.754
 11
1600.95
 20
947.885
 21
924.081
  0
LINE
  8
APS_GEOMETRY
 10
1600.95
 11
1624.4
 20
924.435
 21
947.885
  0
LINE
  8
APS_GEOMETRY
 10
1623.34
 11
1600.95
 20
947.885
 21
925.495
  0
LINE
  8
APS_GEOMETRY
 10
1600.95
 11
1622.986
 20
925.849
 21
947.885
  0
LINE
  8
APS_GEOMETRY
 10
1621.925
 11
1600.95
 20
947.885
 21
926.909
  0
LINE
  8
APS_GEOMETRY
 10
1600.95
 11
1621.572
 20
927.263
 21
947.885
  0
LINE
  8
APS_GEOMETRY
 10
1620.511
 11
1600.95
 20
947.885
 21
928.324
  0
LINE
  8
APS_GEOMETRY
 10
1600.95
 11
1620.158
 20
928.677
 21
947.885
  0
LINE
  8
APS_GEOMETRY
 10
1619.097
 11
1600.95
 20
947.885
 21
929.738
  0
LINE
  8
APS_GEOMETRY
 10
1600.95
 11
1618.744
 20
930.091
 21
947.885
  0
LINE
  8
APS_GEOMETRY
 10
1617.683
 11
1600.95
 20
947.885
 21
931.152
  0
LINE
  8
APS_GEOMETRY
 10
1600.95
 11
1617.329
 20
931.506
 21
947.885
  0
LINE
  8
APS_GEOMETRY
 10
1616.269
 11
1600.95
 20
947.885
 21
932.566
  0
LINE
  8
APS_GEOMETRY
 10
1600.95
 11
1615.915
 20
932.92
 21
947.885
  0
LINE
  8
APS_GEOMETRY
 10
1614.854
 11
1600.95
 20
947.885
 21
933.98
  0
LINE
  8
APS_GEOMETRY
 10
1600.95
 11
1614.501
 20
934.334
 21
947.885
  0
LINE
  8
APS_GEOMETRY
 10
1613.44
 11
1600.95
 20
947.885
 21
935.395
  0
LINE
  8
APS_GEOMETRY
 10
1600.95
 11
1613.087
 20
935.748
 21
947.885
  0
LINE
  8
APS_GEOMETRY
 10
1612.026
 11
1600.95
 20
947.885
 21
936.809
  0
LINE
  8
APS_GEOMETRY
 10
1600.95
 11
1611.672
 20
937.162
 21
947.885
  0
LINE
  8
APS_GEOMETRY
 10
1610.612
 11
1600.95
 20
947.885
 21
938.223
  0
LINE
  8
APS_GEOMETRY
 10
1600.95
 11
1610.258
 20
938.577
 21
947.885
  0
LINE
  8
APS_GEOMETRY
 10
1609.198
 11
1600.95
 20
947.885
 21
939.637
  0
LINE
  8
APS_GEOMETRY
 10
1600.95
 11
1608.844
 20
939.991
 21
947.885
  0
LINE
  8
APS_GEOMETRY
 10
1607.783
 11
1600.95
 20
947.885
 21
941.052
  0
LINE
  8
APS_GEOMETRY
 10
1600.95
 11
1607.43
 20
941.405
 21
947.885
  0
LINE
  8
APS_GEOMETRY
 10
1606.369
 11
1600.95
 20
947.885
 21
942.466
  0
LINE
  8
APS_GEOMETRY
 10
1600.95
 11
1606.016
 20
942.819
 21
947.885
  0
LINE
  8
APS_GEOMETRY
 10
1604.955
 11
1600.95
 20
947.885
 21
943.88
  0
LINE
  8
APS_GEOMETRY
 10
1600.95
 11
1604.601
 20
944.233
 21
947.885
  0
LINE
  8
APS_GEOMETRY
 10
1603.541
 11
1600.95
 20
947.885
 21
945.294
  0
LINE
  8
APS_GEOMETRY
 10
1600.95
 11
1603.187
 20
945.648
 21
947.885
  0
LINE
  8
APS_GEOMETRY
 10
1602.127
 11
1600.95
 20
947.885
 21
946.708
  0
LINE
  8
APS_GEOMETRY
 10
1600.95
 11
1601.773
 20
947.062
 21
947.885
  0
LINE
  8
APS_GEOMETRY
 10
1632.109
 11
1635.548
 20
925.287
 21
928.726
  0
LINE
  8
APS_GEOMETRY
 10
1635.724
 11
1631.579
 20
929.256
 21
925.11
  0
LINE
  8
APS_GEOMETRY
 10
1630.303
 11
1635.939
 20
924.895
 21
930.531
  0
LINE
  8
APS_GEOMETRY
 10
1635.95
 11
1629.939
 20
930.895
 21
924.885
  0
LINE
  8
APS_GEOMETRY
 10
1628.961
 11
1635.868
 20
924.967
 21
931.874
  0
LINE
  8
APS_GEOMETRY
 10
1635.811
 11
1628.665
 20
932.17
 21
925.024
  0
LINE
  8
APS_GEOMETRY
 10
1627.846
 11
1635.569
 20
925.266
 21
932.989
  0
LINE
  8
APS_GEOMETRY
 10
1635.468
 11
1627.593
 20
933.242
 21
925.367
  0
LINE
  8
APS_GEOMETRY
 10
1626.89
 11
1635.111
 20
925.724
 21
933.945
  0
LINE
  8
APS_GEOMETRY
 10
1634.975
 11
1626.672
 20
934.163
 21
925.86
  0
LINE
  8
APS_GEOMETRY
 10
1626.064
 11
1634.522
 20
926.313
 21
934.771
  0
LINE
  8
APS_GEOMETRY
 10
1634.356
 11
1625.877
 20
934.958
 21
926.479
  0
LINE
  8
APS_GEOMETRY
 10
1625.359
 11
1633.813
 20
927.022
 21
935.476
  0
LINE
  8
APS_GEOMETRY
 10
1633.617
 11
1625.201
 20
935.634
 21
927.218
  0
LINE
  8
APS_GEOMETRY
 10
1624.774
 11
1632.984
 20
927.851
 21
936.061
  0
LINE
  8
APS_GEOMETRY
 10
1632.757
 11
1624.647
 20
936.188
 21
928.078
  0
LINE
  8
APS_GEOMETRY
 10
1624.32
 11
1632.024
 20
928.811
 21
936.515
  0
LINE
  8
APS_GEOMETRY
 10
1631.76
 11
1624.23
 20
936.605
 21
929.075
  0
LINE
  8
APS_GEOMETRY
 10
1624.026
 11
1630.903
 20
929.932
 21
936.809
  0
LINE
  8
APS_GEOMETRY
 10
1630.591
 11
1623.984
 20
936.851
 21
930.244
  0
LINE
  8
APS_GEOMETRY
 10
1623.963
 11
1629.552
 20
931.283
 21
936.872
  0
LINE
  8
APS_GEOMETRY
 10
1629.159
 11
1624.002
 20
936.833
 21
931.676
  0
LINE
  8
APS_GEOMETRY
 10
1624.379
 11
1627.722
 20
933.113
 21
936.456
  0
LINE
  8
APS_GEOMETRY
 10
1627.05
 11
1624.697
 20
936.138
 21
933.785
  0
LINE
  8
APS_GEOMETRY
 10
1645.596
 11
1645.95
 20
720.896
 21
721.249
  0
LINE
  8
APS_GEOMETRY
 10
1645.95
 11
1644.536
 20
722.31
 21
720.896
  0
LINE
  8
APS_GEOMETRY
 10
1644.182
 11
1645.95
 20
720.896
 21
722.664
  0
LINE
  8
APS_GEOMETRY
 10
1645.95
 11
1643.121
 20
723.724
 21
720.896
  0
LINE
  8
APS_GEOMETRY
 10
1642.768
 11
1645.95
 20
720.896
 21
724.078
  0
LINE
  8
APS_GEOMETRY
 10
1645.95
 11
1641.707
 20
725.139
 21
720.896
  0
LINE
  8
APS_GEOMETRY
 10
1641.354
 11
1645.95
 20
720.896
 21
725.492
  0
LINE
  8
APS_GEOMETRY
 10
1645.95
 11
1640.293
 20
726.553
 21
720.896
  0
LINE
  8
APS_GEOMETRY
 10
1639.939
 11
1645.95
 20
720.896
 21
726.906
  0
LINE
  8
APS_GEOMETRY
 10
1645.95
 11
1638.879
 20
727.967
 21
720.896
  0
LINE
  8
APS_GEOMETRY
 10
1638.525
 11
1645.95
 20
720.896
 21
728.321
  0
LINE
  8
APS_GEOMETRY
 10
1645.95
 11
1637.465
 20
729.381
 21
720.896
  0
LINE
  8
APS_GEOMETRY
 10
1637.111
 11
1645.95
 20
720.896
 21
729.735
  0
LINE
  8
APS_GEOMETRY
 10
1645.95
 11
1636.05
 20
730.795
 21
720.896
  0
LINE
  8
APS_GEOMETRY
 10
1635.697
 11
1645.95
 20
720.896
 21
731.149
  0
LINE
  8
APS_GEOMETRY
 10
1645.95
 11
1634.636
 20
732.21
 21
720.896
  0
LINE
  8
APS_GEOMETRY
 10
1634.283
 11
1645.95
 20
720.896
 21
732.563
  0
LINE
  8
APS_GEOMETRY
 10
1645.95
 11
1633.222
 20
733.624
 21
720.896
  0
LINE
  8
APS_GEOMETRY
 10
1632.868
 11
1645.95
 20
720.896
 21
733.977
  0
LINE
  8
APS_GEOMETRY
 10
1645.95
 11
1631.808
 20
735.038
 21
720.896
  0
LINE
  8
APS_GEOMETRY
 10
1631.454
 11
1645.95
 20
720.896
 21
735.392
  0
LINE
  8
APS_GEOMETRY
 10
1645.95
 11
1630.394
 20
736.452
 21
720.896
  0
LINE
  8
APS_GEOMETRY
 10
1630.04
 11
1645.95
 20
720.896
 21
736.806
  0
LINE
  8
APS_GEOMETRY
 10
1645.95
 11
1628.979
 20
737.867
 21
720.896
  0
LINE
  8
APS_GEOMETRY
 10
1628.626
 11
1645.95
 20
720.896
 21
738.22
  0
LINE
  8
APS_GEOMETRY
 10
1645.95
 11
1627.565
 20
739.281
 21
720.896
  0
LINE
  8
APS_GEOMETRY
 10
1627.212
 11
1645.95
 20
720.896
 21
739.634
  0
LINE
  8
APS_GEOMETRY
 10
1645.95
 11
1626.151
 20
740.695
 21
720.896
  0
LINE
  8
APS_GEOMETRY
 10
1625.797
 11
1645.95
 20
720.896
 21
741.048
  0
LINE
  8
APS_GEOMETRY
 10
1645.95
 11
1624.737
 20
742.109
 21
720.896
  0
LINE
  8
APS_GEOMETRY
 10
1624.383
 11
1645.95
 20
720.896
 21
742.463
  0
LINE
  8
APS_GEOMETRY
 10
1645.95
 11
1623.322
 20
743.523
 21
720.896
  0
LINE
  8
APS_GEOMETRY
 10
1622.969
 11
1645.95
 20
720.896
 21
743.877
  0
LINE
  8
APS_GEOMETRY
 10
1645.95
 11
1621.908
 20
744.938
 21
720.896
  0
LINE
  8
APS_GEOMETRY
 10
1621.555
 11
1645.95
 20
720.896
 21
745.291
  0
LINE
  8
APS_GEOMETRY
 10
1645.95
 11
1635.664
 20
746.352
 21
736.066
  0
LINE
  8
APS_GEOMETRY
 10
1631.78
 11
1620.494
 20
732.182
 21
720.896
  0
LINE
  8
APS_GEOMETRY
 10
1620.14
 11
1631.293
 20
720.896
 21
732.048
  0
LINE
  8
APS_GEOMETRY
 10
1635.798
 11
1645.95
 20
736.553
 21
746.705
  0
LINE
  8
APS_GEOMETRY
 10
1645.95
 11
1635.948
 20
747.766
 21
737.765
  0
LINE
  8
APS_GEOMETRY
 10
1630.081
 11
1619.08
 20
731.897
 21
720.896
  0
LINE
  8
APS_GEOMETRY
 10
1618.726
 11
1629.73
 20
720.896
 21
731.9
  0
LINE
  8
APS_GEOMETRY
 10
1635.946
 11
1645.95
 20
738.116
 21
748.12
  0
LINE
  8
APS_GEOMETRY
 10
1645.95
 11
1635.835
 20
749.18
 21
739.065
  0
LINE
  8
APS_GEOMETRY
 10
1628.781
 11
1617.666
 20
732.011
 21
720.896
  0
LINE
  8
APS_GEOMETRY
 10
1617.312
 11
1628.492
 20
720.896
 21
732.076
  0
LINE
  8
APS_GEOMETRY
 10
1635.77
 11
1645.95
 20
739.354
 21
749.534
  0
LINE
  8
APS_GEOMETRY
 10
1645.95
 11
1635.509
 20
750.594
 21
740.154
  0
LINE
  8
APS_GEOMETRY
 10
1627.692
 11
1616.251
 20
732.337
 21
720.896
  0
LINE
  8
APS_GEOMETRY
 10
1615.898
 11
1627.446
 20
720.896
 21
732.444
  0
LINE
  8
APS_GEOMETRY
 10
1635.402
 11
1645.95
 20
740.4
 21
750.948
  0
LINE
  8
APS_GEOMETRY
 10
1645.95
 11
1635.03
 20
752.009
 21
741.089
  0
LINE
  8
APS_GEOMETRY
 10
1626.757
 11
1614.837
 20
732.816
 21
720.896
  0
LINE
  8
APS_GEOMETRY
 10
1614.484
 11
1626.544
 20
720.896
 21
732.956
  0
LINE
  8
APS_GEOMETRY
 10
1634.89
 11
1645.95
 20
741.302
 21
752.362
  0
LINE
  8
APS_GEOMETRY
 10
1645.95
 11
1634.422
 20
753.423
 21
741.895
  0
LINE
  8
APS_GEOMETRY
 10
1625.95
 11
1613.423
 20
733.423
 21
720.896
  0
LINE
  8
APS_GEOMETRY
 10
1613.069
 11
1625.767
 20
720.896
 21
733.594
  0
LINE
  8
APS_GEOMETRY
 10
1634.252
 11
1645.95
 20
742.078
 21
753.776
  0
LINE
  8
APS_GEOMETRY
 10
1645.95
 11
1633.696
 20
754.837
 21
742.583
  0
LINE
  8
APS_GEOMETRY
 10
1625.263
 11
1612.009
 20
734.15
 21
720.896
  0
LINE
  8
APS_GEOMETRY
 10
1611.655
 11
1625.11
 20
720.896
 21
734.35
  0
LINE
  8
APS_GEOMETRY
 10
1633.496
 11
1645.95
 20
742.736
 21
755.191
  0
LINE
  8
APS_GEOMETRY
 10
1645.95
 11
1632.848
 20
756.251
 21
743.15
  0
LINE
  8
APS_GEOMETRY
 10
1624.696
 11
1610.595
 20
734.998
 21
720.896
  0
LINE
  8
APS_GEOMETRY
 10
1610.241
 11
1624.575
 20
720.896
 21
735.23
  0
LINE
  8
APS_GEOMETRY
 10
1632.616
 11
1645.95
 20
743.271
 21
756.605
  0
LINE
  8
APS_GEOMETRY
 10
1645.95
 11
1631.866
 20
757.665
 21
743.582
  0
LINE
  8
APS_GEOMETRY
 10
1624.264
 11
1609.18
 20
735.98
 21
720.896
  0
LINE
  8
APS_GEOMETRY
 10
1608.827
 11
1624.18
 20
720.896
 21
736.249
  0
LINE
  8
APS_GEOMETRY
 10
1631.596
 11
1645.95
 20
743.666
 21
758.019
  0
LINE
  8
APS_GEOMETRY
 10
1645.95
 11
1630.717
 20
759.08
 21
743.847
  0
LINE
  8
APS_GEOMETRY
 10
1623.999
 11
1607.766
 20
737.129
 21
720.896
  0
LINE
  8
APS_GEOMETRY
 10
1607.413
 11
1623.966
 20
720.896
 21
737.45
  0
LINE
  8
APS_GEOMETRY
 10
1630.396
 11
1645.95
 20
743.879
 21
759.433
  0
LINE
  8
APS_GEOMETRY
 10
1645.95
 11
1629.319
 20
760.494
 21
743.863
  0
LINE
  8
APS_GEOMETRY
 10
1623.983
 11
1606.352
 20
738.527
 21
720.896
  0
LINE
  8
APS_GEOMETRY
 10
1605.998
 11
1624.041
 20
720.896
 21
738.939
  0
LINE
  8
APS_GEOMETRY
 10
1628.907
 11
1645.95
 20
743.805
 21
760.847
  0
LINE
  8
APS_GEOMETRY
 10
1645.95
 11
1627.341
 20
761.908
 21
743.299
  0
LINE
  8
APS_GEOMETRY
 10
1624.547
 11
1604.938
 20
740.505
 21
720.896
  0
LINE
  8
APS_GEOMETRY
 10
1604.584
 11
1625.057
 20
720.896
 21
741.369
  0
LINE
  8
APS_GEOMETRY
 10
1626.477
 11
1645.95
 20
742.788
 21
762.262
  0
LINE
  8
APS_GEOMETRY
 10
1645.95
 11
1603.523
 20
763.322
 21
720.896
  0
LINE
  8
APS_GEOMETRY
 10
1603.17
 11
1645.95
 20
720.896
 21
763.676
  0
LINE
  8
APS_GEOMETRY
 10
1645.95
 11
1602.109
 20
764.737
 21
720.896
  0
LINE
  8
APS_GEOMETRY
 10
1601.756
 11
1645.95
 20
720.896
 21
765.09
  0
LINE
  8
APS_GEOMETRY
 10
1645.95
 11
1600.95
 20
766.151
 21
721.151
  0
LINE
  8
APS_GEOMETRY
 10
1600.95
 11
1645.95
 20
721.504
 21
766.504
  0
LINE
  8
APS_GEOMETRY
 10
1645.95
 11
1600.95
 20
767.565
 21
722.565
  0
LINE
  8
APS_GEOMETRY
 10
1600.95
 11
1645.95
 20
722.919
 21
767.919
  0
LINE
  8
APS_GEOMETRY
 10
1645.95
 11
1600.95
 20
768.979
 21
723.979
  0
LINE
  8
APS_GEOMETRY
 10
1600.95
 11
1645.95
 20
724.333
 21
769.333
  0
LINE
  8
APS_GEOMETRY
 10
1645.95
 11
1600.95
 20
770.393
 21
725.393
  0
LINE
  8
APS_GEOMETRY
 10
1600.95
 11
1645.95
 20
725.747
 21
770.747
  0
LINE
  8
APS_GEOMETRY
 10
1645.95
 11
1600.95
 20
771.808
 21
726.808
  0
LINE
  8
APS_GEOMETRY
 10
1600.95
 11
1645.95
 20
727.161
 21
772.161
  0
LINE
  8
APS_GEOMETRY
 10
1645.95
 11
1600.95
 20
773.222
 21
728.222
  0
LINE
  8
APS_GEOMETRY
 10
1600.95
 11
1645.95
 20
728.575
 21
773.575
  0
LINE
  8
APS_GEOMETRY
 10
1645.95
 11
1600.95
 20
774.636
 21
729.636
  0
LINE
  8
APS_GEOMETRY
 10
1600.95
 11
1645.95
 20
729.99
 21
774.99
  0
LINE
  8
APS_GEOMETRY
 10
1645.95
 11
1600.95
 20
776.05
 21
731.05
  0
LINE
  8
APS_GEOMETRY
 10
1600.95
 11
1645.95
 20
731.404
 21
776.404
  0
LINE
  8
APS_GEOMETRY
 10
1645.95
 11
1600.95
 20
777.464
 21
732.464
  0
LINE
  8
APS_GEOMETRY
 10
1600.95
 11
1645.95
 20
732.818
 21
777.818
  0
LINE
  8
APS_GEOMETRY
 10
1645.95
 11
1600.95
 20
778.879
 21
733.879
  0
LINE
  8
APS_GEOMETRY
 10
1600.95
 11
1645.614
 20
734.232
 21
778.896
  0
LINE
  8
APS_GEOMETRY
 10
1644.553
 11
1600.95
 20
778.896
 21
735.293
  0
LINE
  8
APS_GEOMETRY
 10
1600.95
 11
1644.199
 20
735.646
 21
778.896
  0
LINE
  8
APS_GEOMETRY
 10
1643.139
 11
1600.95
 20
778.896
 21
736.707
  0
LINE
  8
APS_GEOMETRY
 10
1600.95
 11
1642.785
 20
737.061
 21
778.896
  0
LINE
  8
APS_GEOMETRY
 10
1641.724
 11
1600.95
 20
778.896
 21
738.121
  0
LINE
  8
APS_GEOMETRY
 10
1600.95
 11
1641.371
 20
738.475
 21
778.896
  0
LINE
  8
APS_GEOMETRY
 10
1640.31
 11
1600.95
 20
778.896
 21
739.536
  0
LINE
  8
APS_GEOMETRY
 10
1600.95
 11
1639.957
 20
739.889
 21
778.896
  0
LINE
  8
APS_GEOMETRY
 10
1638.896
 11
1600.95
 20
778.896
 21
740.95
  0
LINE
  8
APS_GEOMETRY
 10
1600.95
 11
1638.543
 20
741.303
 21
778.896
  0
LINE
  8
APS_GEOMETRY
 10
1637.482
 11
1600.95
 20
778.896
 21
742.364
  0
LINE
  8
APS_GEOMETRY
 10
1600.95
 11
1637.128
 20
742.718
 21
778.896
  0
LINE
  8
APS_GEOMETRY
 10
1636.068
 11
1600.95
 20
778.896
 21
743.778
  0
LINE
  8
APS_GEOMETRY
 10
1600.95
 11
1635.714
 20
744.132
 21
778.896
  0
LINE
  8
APS_GEOMETRY
 10
1634.653
 11
1600.95
 20
778.896
 21
745.192
  0
LINE
  8
APS_GEOMETRY
 10
1600.95
 11
1634.3
 20
745.546
 21
778.896
  0
LINE
  8
APS_GEOMETRY
 10
1633.239
 11
1600.95
 20
778.896
 21
746.607
  0
LINE
  8
APS_GEOMETRY
 10
1600.95
 11
1632.886
 20
746.96
 21
778.896
  0
LINE
  8
APS_GEOMETRY
 10
1631.825
 11
1600.95
 20
778.896
 21
748.021
  0
LINE
  8
APS_GEOMETRY
 10
1600.95
 11
1631.471
 20
748.374
 21
778.896
  0
LINE
  8
APS_GEOMETRY
 10
1630.411
 11
1600.95
 20
778.896
 21
749.435
  0
LINE
  8
APS_GEOMETRY
 10
1600.95
 11
1630.057
 20
749.789
 21
778.896
  0
LINE
  8
APS_GEOMETRY
 10
1628.997
 11
1600.95
 20
778.896
 21
750.849
  0
LINE
  8
APS_GEOMETRY
 10
1600.95
 11
1628.643
 20
751.203
 21
778.896
  0
LINE
  8
APS_GEOMETRY
 10
1627.582
 11
1600.95
 20
778.896
 21
752.263
  0
LINE
  8
APS_GEOMETRY
 10
1600.95
 11
1627.229
 20
752.617
 21
778.896
  0
LINE
  8
APS_GEOMETRY
 10
1626.168
 11
1600.95
 20
778.896
 21
753.678
  0
LINE
  8
APS_GEOMETRY
 10
1600.95
 11
1625.815
 20
754.031
 21
778.896
  0
LINE
  8
APS_GEOMETRY
 10
1624.754
 11
1600.95
 20
778.896
 21
755.092
  0
LINE
  8
APS_GEOMETRY
 10
1600.95
 11
1624.4
 20
755.445
 21
778.896
  0
LINE
  8
APS_GEOMETRY
 10
1623.34
 11
1600.95
 20
778.896
 21
756.506
  0
LINE
  8
APS_GEOMETRY
 10
1600.95
 11
1622.986
 20
756.86
 21
778.896
  0
LINE
  8
APS_GEOMETRY
 10
1621.925
 11
1600.95
 20
778.896
 21
757.92
  0
LINE
  8
APS_GEOMETRY
 10
1600.95
 11
1621.572
 20
758.274
 21
778.896
  0
LINE
  8
APS_GEOMETRY
 10
1620.511
 11
1600.95
 20
778.896
 21
759.335
  0
LINE
  8
APS_GEOMETRY
 10
1600.95
 11
1620.158
 20
759.688
 21
778.896
  0
LINE
  8
APS_GEOMETRY
 10
1619.097
 11
1600.95
 20
778.896
 21
760.749
  0
LINE
  8
APS_GEOMETRY
 10
1600.95
 11
1618.744
 20
761.102
 21
778.896
  0
LINE
  8
APS_GEOMETRY
 10
1617.683
 11
1600.95
 20
778.896
 21
762.163
  0
LINE
  8
APS_GEOMETRY
 10
1600.95
 11
1617.329
 20
762.517
 21
778.896
  0
LINE
  8
APS_GEOMETRY
 10
1616.269
 11
1600.95
 20
778.896
 21
763.577
  0
LINE
  8
APS_GEOMETRY
 10
1600.95
 11
1615.915
 20
763.931
 21
778.896
  0
LINE
  8
APS_GEOMETRY
 10
1614.854
 11
1600.95
 20
778.896
 21
764.991
  0
LINE
  8
APS_GEOMETRY
 10
1600.95
 11
1614.501
 20
765.345
 21
778.896
  0
LINE
  8
APS_GEOMETRY
 10
1613.44
 11
1600.95
 20
778.896
 21
766.406
  0
LINE
  8
APS_GEOMETRY
 10
1600.95
 11
1613.087
 20
766.759
 21
778.896
  0
LINE
  8
APS_GEOMETRY
 10
1612.026
 11
1600.95
 20
778.896
 21
767.82
  0
LINE
  8
APS_GEOMETRY
 10
1600.95
 11
1611.672
 20
768.173
 21
778.896
  0
LINE
  8
APS_GEOMETRY
 10
1610.612
 11
1600.95
 20
778.896
 21
769.234
  0
LINE
  8
APS_GEOMETRY
 10
1600.95
 11
1610.258
 20
769.588
 21
778.896
  0
LINE
  8
APS_GEOMETRY
 10
1609.198
 11
1600.95
 20
778.896
 21
770.648
  0
LINE
  8
APS_GEOMETRY
 10
1600.95
 11
1608.844
 20
771.002
 21
778.896
  0
LINE
  8
APS_GEOMETRY
 10
1607.783
 11
1600.95
 20
778.896
 21
772.062
  0
LINE
  8
APS_GEOMETRY
 10
1600.95
 11
1607.43
 20
772.416
 21
778.896
  0
LINE
  8
APS_GEOMETRY
 10
1606.369
 11
1600.95
 20
778.896
 21
773.477
  0
LINE
  8
APS_GEOMETRY
 10
1600.95
 11
1606.016
 20
773.83
 21
778.896
  0
LINE
  8
APS_GEOMETRY
 10
1604.955
 11
1600.95
 20
778.896
 21
774.891
  0
LINE
  8
APS_GEOMETRY
 10
1600.95
 11
1604.601
 20
775.244
 21
778.896
  0
LINE
  8
APS_GEOMETRY
 10
1603.541
 11
1600.95
 20
778.896
 21
776.305
  0
LINE
  8
APS_GEOMETRY
 10
1600.95
 11
1603.187
 20
776.659
 21
778.896
  0
LINE
  8
APS_GEOMETRY
 10
1602.127
 11
1600.95
 20
778.896
 21
777.719
  0
LINE
  8
APS_GEOMETRY
 10
1600.95
 11
1601.773
 20
778.073
 21
778.896
  0
LINE
  8
APS_GEOMETRY
 10
1632.109
 11
1635.548
 20
732.298
 21
735.737
  0
LINE
  8
APS_GEOMETRY
 10
1635.724
 11
1631.579
 20
736.267
 21
732.121
  0
LINE
  8
APS_GEOMETRY
 10
1630.303
 11
1635.939
 20
731.906
 21
737.542
  0
LINE
  8
APS_GEOMETRY
 10
1635.95
 11
1629.939
 20
737.906
 21
731.896
  0
LINE
  8
APS_GEOMETRY
 10
1628.961
 11
1635.868
 20
731.978
 21
738.885
  0
LINE
  8
APS_GEOMETRY
 10
1635.811
 11
1628.665
 20
739.181
 21
732.035
  0
LINE
  8
APS_GEOMETRY
 10
1627.846
 11
1635.569
 20
732.277
 21
740.0
  0
LINE
  8
APS_GEOMETRY
 10
1635.468
 11
1627.593
 20
740.253
 21
732.378
  0
LINE
  8
APS_GEOMETRY
 10
1626.89
 11
1635.111
 20
732.735
 21
740.956
  0
LINE
  8
APS_GEOMETRY
 10
1634.975
 11
1626.672
 20
741.174
 21
732.871
  0
LINE
  8
APS_GEOMETRY
 10
1626.064
 11
1634.522
 20
733.324
 21
741.782
  0
LINE
  8
APS_GEOMETRY
 10
1634.356
 11
1625.877
 20
741.969
 21
733.49
  0
LINE
  8
APS_GEOMETRY
 10
1625.359
 11
1633.813
 20
734.033
 21
742.487
  0
LINE
  8
APS_GEOMETRY
 10
1633.617
 11
1625.201
 20
742.645
 21
734.229
  0
LINE
  8
APS_GEOMETRY
 10
1624.774
 11
1632.984
 20
734.862
 21
743.072
  0
LINE
  8
APS_GEOMETRY
 10
1632.757
 11
1624.647
 20
743.199
 21
735.089
  0
LINE
  8
APS_GEOMETRY
 10
1624.32
 11
1632.024
 20
735.822
 21
743.526
  0
LINE
  8
APS_GEOMETRY
 10
1631.76
 11
1624.23
 20
743.616
 21
736.086
  0
LINE
  8
APS_GEOMETRY
 10
1624.026
 11
1630.903
 20
736.943
 21
743.82
  0
LINE
  8
APS_GEOMETRY
 10
1630.591
 11
1623.984
 20
743.862
 21
737.254
  0
LINE
  8
APS_GEOMETRY
 10
1623.963
 11
1629.552
 20
738.294
 21
743.883
  0
LINE
  8
APS_GEOMETRY
 10
1629.159
 11
1624.002
 20
743.844
 21
738.687
  0
LINE
  8
APS_GEOMETRY
 10
1624.379
 11
1627.722
 20
740.124
 21
743.467
  0
LINE
  8
APS_GEOMETRY
 10
1627.05
 11
1624.697
 20
743.149
 21
740.796
  0
LINE
  8
QUOTATURA
 10
1590.95
 11
1565.442
 20
947.885
 21
947.885
  0
LINE
  8
QUOTATURA
 10
1619.95
 11
1565.442
 20
962.885
 21
962.885
  0
LINE
  8
QUOTATURA
 10
1575.442
 11
1575.442
 20
947.885
 21
908.54
  0
LINE
  8
QUOTATURA
 10
1575.442
 11
1564.601
 20
908.54
 21
908.54
  0
LINE
  8
QUOTATURA
 10
1572.108
 11
1575.442
 20
927.885
 21
947.885
  0
LINE
  8
QUOTATURA
 10
1575.442
 11
1578.776
 20
947.885
 21
927.885
  0
LINE
  8
QUOTATURA
 10
1578.776
 11
1572.108
 20
927.885
 21
927.885
  0
LINE
  8
QUOTATURA
 10
1575.442
 11
1575.442
 20
962.885
 21
1002.885
  0
LINE
  8
QUOTATURA
 10
1578.776
 11
1575.442
 20
982.885
 21
962.885
  0
LINE
  8
QUOTATURA
 10
1575.442
 11
1572.108
 20
962.885
 21
982.885
  0
LINE
  8
QUOTATURA
 10
1572.108
 11
1578.776
 20
982.885
 21
982.885
  0
LINE
  8
QUOTATURA
 10
1629.95
 11
1629.95
 20
959.551
 21
966.219
  0
LINE
  8
QUOTATURA
 10
1626.616
 11
1633.284
 20
962.885
 21
962.885
  0
LINE
  8
QUOTATURA
 10
1534.221
 11
1537.652
 20
898.54
 21
898.54
  0
LINE
  8
QUOTATURA
 10
1537.652
 11
1541.084
 20
898.54
 21
898.54
  0
LINE
  8
QUOTATURA
 10
1537.652
 11
1537.652
 20
898.54
 21
918.54
  0
LINE
  8
QUOTATURA
 10
1537.652
 11
1534.221
 20
918.54
 21
915.108
  0
ARC
  8
QUOTATURA
 10
1552.036
 20
905.875
 40
7.463
 50
202.727
 51
247.273
  0
ARC
  8
QUOTATURA
 10
1552.153
 20
906.011
 40
7.634
 50
246.86
 51
293.141
  0
ARC
  8
QUOTATURA
 10
1552.314
 20
905.704
 40
7.288
 50
292.922
 51
357.893
  0
ARC
  8
QUOTATURA
 10
1553.036
 20
905.666
 40
6.565
 50
357.993
 51
71.191
  0
ARC
  8
QUOTATURA
 10
1552.152
 20
903.057
 40
9.32
 50
71.219
 51
108.775
  0
ARC
  8
QUOTATURA
 10
1551.562
 20
904.656
 40
7.616
 50
108.444
 51
138.941
  0
LINE
  8
QUOTATURA
 10
1545.819
 11
1547.375
 20
909.658
 21
918.547
  0
LINE
  8
QUOTATURA
 10
1547.375
 11
1557.375
 20
918.547
 21
918.547
  0
LINE
  8
QUOTATURA
 10
1590.95
 11
1565.024
 20
720.896
 21
720.896
  0
LINE
  8
QUOTATURA
 10
1619.95
 11
1565.024
 20
705.896
 21
705.896
  0
LINE
  8
QUOTATURA
 10
1575.024
 11
1575.024
 20
720.896
 21
761.256
  0
LINE
  8
QUOTATURA
 10
1575.024
 11
1567.337
 20
761.256
 21
761.256
  0
LINE
  8
QUOTATURA
 10
1578.358
 11
1575.024
 20
740.896
 21
720.896
  0
LINE
  8
QUOTATURA
 10
1575.024
 11
1571.69
 20
720.896
 21
740.896
  0
LINE
  8
QUOTATURA
 10
1571.69
 11
1578.358
 20
740.896
 21
740.896
  0
LINE
  8
QUOTATURA
 10
1575.024
 11
1575.024
 20
705.896
 21
665.896
  0
LINE
  8
QUOTATURA
 10
1571.69
 11
1575.024
 20
685.896
 21
705.896
  0
LINE
  8
QUOTATURA
 10
1575.024
 11
1578.358
 20
705.896
 21
685.896
  0
LINE
  8
QUOTATURA
 10
1578.358
 11
1571.69
 20
685.896
 21
685.896
  0
LINE
  8
QUOTATURA
 10
1629.95
 11
1629.95
 20
702.562
 21
709.23
  0
LINE
  8
QUOTATURA
 10
1626.616
 11
1633.284
 20
705.896
 21
705.896
  0
LINE
  8
QUOTATURA
 10
1536.957
 11
1540.388
 20
751.256
 21
751.256
  0
LINE
  8
QUOTATURA
 10
1540.388
 11
1543.819
 20
751.256
 21
751.256
  0
LINE
  8
QUOTATURA
 10
1540.388
 11
1540.388
 20
751.256
 21
771.256
  0
LINE
  8
QUOTATURA
 10
1540.388
 11
1536.957
 20
771.256
 21
767.825
  0
ARC
  8
QUOTATURA
 10
1554.772
 20
758.592
 40
7.463
 50
202.727
 51
247.273
  0
ARC
  8
QUOTATURA
 10
1554.888
 20
758.728
 40
7.634
 50
246.86
 51
293.141
  0
ARC
  8
QUOTATURA
 10
1555.05
 20
758.421
 40
7.288
 50
292.922
 51
357.893
  0
ARC
  8
QUOTATURA
 10
1555.772
 20
758.383
 40
6.565
 50
357.993
 51
71.191
  0
ARC
  8
QUOTATURA
 10
1554.888
 20
755.774
 40
9.32
 50
71.219
 51
108.775
  0
ARC
  8
QUOTATURA
 10
1554.298
 20
757.372
 40
7.616
 50
108.444
 51
138.941
  0
LINE
  8
QUOTATURA
 10
1548.555
 11
1550.111
 20
762.375
 21
771.264
  0
LINE
  8
QUOTATURA
 10
1550.111
 11
1560.111
 20
771.264
 21
771.264
  0
LINE
  8
QUOTATURA
 10
1655.95
 11
1687.36
 20
720.896
 21
720.896
  0
LINE
  8
QUOTATURA
 10
1655.95
 11
1687.36
 20
778.896
 21
778.896
  0
LINE
  8
QUOTATURA
 10
1677.36
 11
1677.36
 20
778.896
 21
814.667
  0
LINE
  8
QUOTATURA
 10
1677.36
 11
1670.198
 20
814.667
 21
814.667
  0
LINE
  8
QUOTATURA
 10
1680.694
 11
1677.36
 20
798.896
 21
778.896
  0
LINE
  8
QUOTATURA
 10
1677.36
 11
1674.026
 20
778.896
 21
798.896
  0
LINE
  8
QUOTATURA
 10
1674.026
 11
1680.694
 20
798.896
 21
798.896
  0
LINE
  8
QUOTATURA
 10
1677.36
 11
1677.36
 20
720.896
 21
680.896
  0
LINE
  8
QUOTATURA
 10
1674.026
 11
1677.36
 20
700.896
 21
720.896
  0
LINE
  8
QUOTATURA
 10
1677.36
 11
1680.694
 20
720.896
 21
700.896
  0
LINE
  8
QUOTATURA
 10
1680.694
 11
1674.026
 20
700.896
 21
700.896
  0
ARC
  8
QUOTATURA
 10
1639.095
 20
812.003
 40
7.463
 50
202.727
 51
247.273
  0
ARC
  8
QUOTATURA
 10
1639.211
 20
812.139
 40
7.634
 50
246.86
 51
293.141
  0
ARC
  8
QUOTATURA
 10
1639.373
 20
811.832
 40
7.288
 50
292.922
 51
357.893
  0
ARC
  8
QUOTATURA
 10
1640.095
 20
811.794
 40
6.565
 50
357.993
 51
71.191
  0
ARC
  8
QUOTATURA
 10
1639.211
 20
809.185
 40
9.32
 50
71.219
 51
108.775
  0
ARC
  8
QUOTATURA
 10
1638.621
 20
810.783
 40
7.616
 50
108.444
 51
138.941
  0
LINE
  8
QUOTATURA
 10
1632.878
 11
1634.434
 20
815.786
 21
824.675
  0
LINE
  8
QUOTATURA
 10
1634.434
 11
1644.434
 20
824.675
 21
824.675
  0
ARC
  8
QUOTATURA
 10
1656.83
 20
822.92
 40
8.666
 50
295.988
 51
313.996
  0
ARC
  8
QUOTATURA
 10
1659.852
 20
819.797
 40
4.32
 50
313.931
 51
46.072
  0
ARC
  8
QUOTATURA
 10
1657.96
 20
817.044
 40
7.634
 50
50.179
 51
129.82
  0
ARC
  8
QUOTATURA
 10
1655.603
 20
819.908
 40
3.926
 50
130.163
 51
229.839
  0
ARC
  8
QUOTATURA
 10
1657.447
 20
822.11
 40
6.798
 50
229.931
 51
276.21
  0
ARC
  8
QUOTATURA
 10
1658.918
 20
808.595
 40
6.798
 50
49.934
 51
96.213
  0
ARC
  8
QUOTATURA
 10
1660.497
 20
810.019
 40
4.7
 50
306.51
 51
53.491
  0
ARC
  8
QUOTATURA
 10
1657.961
 20
813.423
 40
8.945
 50
233.401
 51
306.599
  0
ARC
  8
QUOTATURA
 10
1655.424
 20
810.019
 40
4.7
 50
126.51
 51
233.49
  0
ARC
  8
QUOTATURA
 10
1661.21
 20
802.387
 40
14.277
 50
112.535
 51
126.953
  0
LINE
  8
QUOTATURA
 10
1655.95
 11
1686.689
 20
889.885
 21
889.885
  0
LINE
  8
QUOTATURA
 10
1655.95
 11
1686.689
 20
947.885
 21
947.885
  0
LINE
  8
QUOTATURA
 10
1676.689
 11
1676.689
 20
889.885
 21
850.576
  0
LINE
  8
QUOTATURA
 10
1676.689
 11
1669.21
 20
850.576
 21
850.576
  0
LINE
  8
QUOTATURA
 10
1673.355
 11
1676.689
 20
869.885
 21
889.885
  0
LINE
  8
QUOTATURA
 10
1676.689
 11
1680.023
 20
889.885
 21
869.885
  0
LINE
  8
QUOTATURA
 10
1680.023
 11
1673.355
 20
869.885
 21
869.885
  0
LINE
  8
QUOTATURA
 10
1676.689
 11
1676.689
 20
947.885
 21
987.885
  0
LINE
  8
QUOTATURA
 10
1680.023
 11
1676.689
 20
967.885
 21
947.885
  0
LINE
  8
QUOTATURA
 10
1676.689
 11
1673.355
 20
947.885
 21
967.885
  0
LINE
  8
QUOTATURA
 10
1673.355
 11
1680.023
 20
967.885
 21
967.885
  0
ARC
  8
QUOTATURA
 10
1638.107
 20
847.912
 40
7.463
 50
202.727
 51
247.273
  0
ARC
  8
QUOTATURA
 10
1638.224
 20
848.048
 40
7.634
 50
246.86
 51
293.141
  0
ARC
  8
QUOTATURA
 10
1638.385
 20
847.741
 40
7.288
 50
292.922
 51
357.893
  0
ARC
  8
QUOTATURA
 10
1639.107
 20
847.703
 40
6.565
 50
357.993
 51
71.191
  0
ARC
  8
QUOTATURA
 10
1638.223
 20
845.094
 40
9.32
 50
71.219
 51
108.775
  0
ARC
  8
QUOTATURA
 10
1637.633
 20
846.693
 40
7.616
 50
108.444
 51
138.941
  0
LINE
  8
QUOTATURA
 10
1631.891
 11
1633.446
 20
851.695
 21
860.584
  0
LINE
  8
QUOTATURA
 10
1633.446
 11
1643.446
 20
860.584
 21
860.584
  0
ARC
  8
QUOTATURA
 10
1655.842
 20
858.829
 40
8.666
 50
295.988
 51
313.996
  0
ARC
  8
QUOTATURA
 10
1658.865
 20
855.706
 40
4.32
 50
313.931
 51
46.072
  0
ARC
  8
QUOTATURA
 10
1656.973
 20
852.954
 40
7.634
 50
50.179
 51
129.82
  0
ARC
  8
QUOTATURA
 10
1654.616
 20
855.817
 40
3.926
 50
130.163
 51
229.839
  0
ARC
  8
QUOTATURA
 10
1656.46
 20
858.019
 40
6.798
 50
229.931
 51
276.21
  0
ARC
  8
QUOTATURA
 10
1657.931
 20
844.504
 40
6.798
 50
49.934
 51
96.213
  0
ARC
  8
QUOTATURA
 10
1659.51
 20
845.928
 40
4.7
 50
306.51
 51
53.491
  0
ARC
  8
QUOTATURA
 10
1656.973
 20
849.332
 40
8.945
 50
233.401
 51
306.599
  0
ARC
  8
QUOTATURA
 10
1654.436
 20
845.928
 40
4.7
 50
126.51
 51
233.49
  0
ARC
  8
QUOTATURA
 10
1660.222
 20
838.296
 40
14.277
 50
112.535
 51
126.953
  0
LINE
  8
QUOTATURA
 10
1580.95
 11
1507.327
 20
947.885
 21
947.885
  0
LINE
  8
QUOTATURA
 10
1590.95
 11
1507.327
 20
1003.885
 21
1003.885
  0
LINE
  8
QUOTATURA
 10
1517.327
 11
1517.327
 20
1003.885
 21
1039.248
  0
LINE
  8
QUOTATURA
 10
1517.327
 11
1507.968
 20
1039.248
 21
1039.248
  0
LINE
  8
QUOTATURA
 10
1520.661
 11
1517.327
 20
1023.885
 21
1003.885
  0
LINE
  8
QUOTATURA
 10
1517.327
 11
1513.993
 20
1003.885
 21
1023.885
  0
LINE
  8
QUOTATURA
 10
1513.993
 11
1520.661
 20
1023.885
 21
1023.885
  0
LINE
  8
QUOTATURA
 10
1517.327
 11
1517.327
 20
947.885
 21
907.885
  0
LINE
  8
QUOTATURA
 10
1513.993
 11
1517.327
 20
927.885
 21
947.885
  0
LINE
  8
QUOTATURA
 10
1517.327
 11
1520.661
 20
947.885
 21
927.885
  0
LINE
  8
QUOTATURA
 10
1520.661
 11
1513.993
 20
927.885
 21
927.885
  0
ARC
  8
QUOTATURA
 10
1477.144
 20
1036.583
 40
7.463
 50
202.727
 51
247.273
  0
ARC
  8
QUOTATURA
 10
1477.261
 20
1036.72
 40
7.634
 50
246.86
 51
293.141
  0
ARC
  8
QUOTATURA
 10
1477.423
 20
1036.412
 40
7.288
 50
292.922
 51
357.893
  0
ARC
  8
QUOTATURA
 10
1478.145
 20
1036.374
 40
6.565
 50
357.993
 51
71.191
  0
ARC
  8
QUOTATURA
 10
1477.261
 20
1033.765
 40
9.32
 50
71.219
 51
108.775
  0
ARC
  8
QUOTATURA
 10
1476.671
 20
1035.364
 40
7.616
 50
108.444
 51
138.941
  0
LINE
  8
QUOTATURA
 10
1470.928
 11
1472.483
 20
1040.366
 21
1049.255
  0
LINE
  8
QUOTATURA
 10
1472.483
 11
1482.483
 20
1049.255
 21
1049.255
  0
ARC
  8
QUOTATURA
 10
1496.676
 20
1042.73
 40
6.548
 50
38.687
 51
141.312
  0
ARC
  8
QUOTATURA
 10
1501.025
 20
1039.157
 40
12.177
 50
140.979
 51
219.022
  0
ARC
  8
QUOTATURA
 10
1496.676
 20
1035.583
 40
6.548
 50
218.688
 51
321.312
  0
ARC
  8
QUOTATURA
 10
1497.674
 20
1034.823
 40
5.294
 50
320.978
 51
39.022
  0
ARC
  8
QUOTATURA
 10
1496.343
 20
1033.797
 40
6.975
 50
38.688
 51
141.312
  0
ARC
  8
QUOTATURA
 10
1495.873
 20
1034.108
 40
6.414
 50
140.864
 51
169.586
  0
LINE
  8
QUOTATURA
 10
1580.95
 11
1503.38
 20
720.896
 21
720.896
  0
LINE
  8
QUOTATURA
 10
1590.95
 11
1503.38
 20
664.896
 21
664.896
  0
LINE
  8
QUOTATURA
 10
1513.38
 11
1513.38
 20
664.896
 21
623.629
  0
LINE
  8
QUOTATURA
 10
1513.38
 11
1508.983
 20
623.629
 21
623.629
  0
LINE
  8
QUOTATURA
 10
1510.046
 11
1513.38
 20
644.896
 21
664.896
  0
LINE
  8
QUOTATURA
 10
1513.38
 11
1516.714
 20
664.896
 21
644.896
  0
LINE
  8
QUOTATURA
 10
1516.714
 11
1510.046
 20
644.896
 21
644.896
  0
LINE
  8
QUOTATURA
 10
1513.38
 11
1513.38
 20
720.896
 21
760.896
  0
LINE
  8
QUOTATURA
 10
1516.714
 11
1513.38
 20
740.896
 21
720.896
  0
LINE
  8
QUOTATURA
 10
1513.38
 11
1510.046
 20
720.896
 21
740.896
  0
LINE
  8
QUOTATURA
 10
1510.046
 11
1516.714
 20
740.896
 21
740.896
  0
ARC
  8
QUOTATURA
 10
1478.159
 20
620.964
 40
7.463
 50
202.727
 51
247.273
  0
ARC
  8
QUOTATURA
 10
1478.276
 20
621.101
 40
7.634
 50
246.86
 51
293.141
  0
ARC
  8
QUOTATURA
 10
1478.438
 20
620.793
 40
7.288
 50
292.922
 51
357.893
  0
ARC
  8
QUOTATURA
 10
1479.159
 20
620.755
 40
6.565
 50
357.993
 51
71.191
  0
ARC
  8
QUOTATURA
 10
1478.276
 20
618.147
 40
9.32
 50
71.219
 51
108.775
  0
ARC
  8
QUOTATURA
 10
1477.686
 20
619.745
 40
7.616
 50
108.444
 51
138.941
  0
LINE
  8
QUOTATURA
 10
1471.943
 11
1473.498
 20
624.748
 21
633.637
  0
LINE
  8
QUOTATURA
 10
1473.498
 11
1483.498
 20
633.637
 21
633.637
  0
ARC
  8
QUOTATURA
 10
1497.691
 20
627.112
 40
6.548
 50
38.687
 51
141.312
  0
ARC
  8
QUOTATURA
 10
1502.04
 20
623.538
 40
12.177
 50
140.979
 51
219.022
  0
ARC
  8
QUOTATURA
 10
1497.691
 20
619.964
 40
6.548
 50
218.688
 51
321.312
  0
ARC
  8
QUOTATURA
 10
1498.689
 20
619.205
 40
5.294
 50
320.978
 51
39.022
  0
ARC
  8
QUOTATURA
 10
1497.358
 20
618.178
 40
6.975
 50
38.688
 51
141.312
  0
ARC
  8
QUOTATURA
 10
1496.888
 20
618.49
 40
6.414
 50
140.864
 51
169.586
  0
LINE
  8
APS_GEOMETRY
 10
1713.565
 11
1713.565
 20
-105.583
 21
-75.583
  0
LINE
  8
APS_GEOMETRY
 10
1713.565
 11
1715.232
 20
-75.583
 21
-75.583
  0
LINE
  8
APS_GEOMETRY
 10
1715.232
 11
1726.899
 20
-75.583
 21
-105.583
  0
LINE
  8
APS_GEOMETRY
 10
1726.899
 11
1738.565
 20
-105.583
 21
-75.583
  0
LINE
  8
APS_GEOMETRY
 10
1738.565
 11
1740.232
 20
-75.583
 21
-75.583
  0
LINE
  8
APS_GEOMETRY
 10
1740.232
 11
1740.232
 20
-75.583
 21
-105.583
  0
ARC
  8
APS_GEOMETRY
 10
1755.047
 20
-95.655
 40
9.822
 50
218.689
 51
321.311
  0
ARC
  8
APS_GEOMETRY
 10
1748.523
 20
-90.295
 40
18.265
 50
320.978
 51
39.021
  0
ARC
  8
APS_GEOMETRY
 10
1755.047
 20
-84.935
 40
9.822
 50
38.688
 51
141.313
  0
ARC
  8
APS_GEOMETRY
 10
1761.571
 20
-90.295
 40
18.265
 50
140.979
 51
219.021
  0
ARC
  8
APS_GEOMETRY
 10
1778.41
 20
-85.372
 40
9.789
 50
38.715
 51
90.166
  0
LINE
  8
APS_GEOMETRY
 10
1778.382
 11
1769.715
 20
-75.583
 21
-75.583
  0
LINE
  8
APS_GEOMETRY
 10
1769.715
 11
1769.715
 20
-75.583
 21
-105.583
  0
LINE
  8
APS_GEOMETRY
 10
1769.715
 11
1778.382
 20
-105.583
 21
-105.583
  0
ARC
  8
APS_GEOMETRY
 10
1778.41
 20
-95.794
 40
9.789
 50
269.834
 51
321.286
  0
ARC
  8
APS_GEOMETRY
 10
1772.064
 20
-90.583
 40
18.0
 50
320.978
 51
39.022
  0
LINE
  8
APS_GEOMETRY
 10
1813.064
 11
1793.064
 20
-75.583
 21
-75.583
  0
LINE
  8
APS_GEOMETRY
 10
1793.064
 11
1793.064
 20
-75.583
 21
-105.583
  0
LINE
  8
APS_GEOMETRY
 10
1793.064
 11
1813.064
 20
-105.583
 21
-105.583
  0
LINE
  8
APS_GEOMETRY
 10
1793.397
 11
1806.397
 20
-89.583
 21
-89.583
  0
LINE
  8
APS_GEOMETRY
 10
1819.064
 11
1819.064
 20
-75.583
 21
-105.583
  0
LINE
  8
APS_GEOMETRY
 10
1819.064
 11
1839.064
 20
-105.583
 21
-105.583
  0
LINE
  8
APS_GEOMETRY
 10
1842.064
 11
1842.064
 20
-75.583
 21
-105.583
  0
LINE
  8
APS_GEOMETRY
 10
1842.064
 11
1862.064
 20
-105.583
 21
-105.583
  0
ARC
  8
APS_GEOMETRY
 10
1875.978
 20
-95.655
 40
9.822
 50
218.689
 51
321.311
  0
ARC
  8
APS_GEOMETRY
 10
1869.455
 20
-90.295
 40
18.265
 50
320.978
 51
39.021
  0
ARC
  8
APS_GEOMETRY
 10
1875.979
 20
-84.935
 40
9.822
 50
38.688
 51
141.313
  0
ARC
  8
APS_GEOMETRY
 10
1882.502
 20
-90.295
 40
18.265
 50
140.979
 51
219.021
  0
LINE
  8
APS_GEOMETRY
 10
1919.147
 11
1924.294
 20
-105.583
 21
-105.583
  0
LINE
  8
APS_GEOMETRY
 10
1924.294
 11
1929.441
 20
-105.583
 21
-105.583
  0
LINE
  8
APS_GEOMETRY
 10
1924.294
 11
1924.294
 20
-105.583
 21
-75.583
  0
LINE
  8
APS_GEOMETRY
 10
1924.294
 11
1919.147
 20
-75.583
 21
-80.73
  0
ARC
  8
APS_GEOMETRY
 10
1947.29
 20
-96.127
 40
9.822
 50
218.689
 51
321.311
  0
ARC
  8
APS_GEOMETRY
 10
1940.766
 20
-90.766
 40
18.265
 50
320.978
 51
39.021
  0
ARC
  8
APS_GEOMETRY
 10
1947.29
 20
-85.406
 40
9.822
 50
38.688
 51
141.313
  0
ARC
  8
APS_GEOMETRY
 10
1953.814
 20
-90.766
 40
18.265
 50
140.979
 51
219.021
  0
ARC
  8
APS_GEOMETRY
 10
1976.773
 20
-96.127
 40
9.822
 50
218.689
 51
321.311
  0
ARC
  8
APS_GEOMETRY
 10
1970.249
 20
-90.766
 40
18.265
 50
320.978
 51
39.021
  0
ARC
  8
APS_GEOMETRY
 10
1976.773
 20
-85.406
 40
9.822
 50
38.688
 51
141.313
  0
ARC
  8
APS_GEOMETRY
 10
1983.297
 20
-90.766
 40
18.265
 50
140.979
 51
219.021
  0
LINE
  8
APS_GEOMETRY
 10
2000.665
 11
2000.665
 20
-97.962
 21
-85.962
  0
LINE
  8
APS_GEOMETRY
 10
1994.665
 11
2006.665
 20
-91.962
 21
-91.962
  0
LINE
  8
APS_GEOMETRY
 10
2032.406
 11
2012.406
 20
-105.583
 21
-105.583
  0
ARC
  8
APS_GEOMETRY
 10
2022.981
 20
-105.569
 40
10.574
 50
121.814
 51
180.077
  0
LINE
  8
APS_GEOMETRY
 10
2017.406
 11
2028.74
 20
-96.583
 21
-89.583
  0
ARC
  8
APS_GEOMETRY
 10
2025.051
 20
-83.25
 40
7.329
 50
300.22
 51
59.779
  0
ARC
  8
APS_GEOMETRY
 10
2023.073
 20
-87.447
 40
11.959
 50
61.714
 51
118.284
  0
ARC
  8
APS_GEOMETRY
 10
2020.762
 20
-83.221
 40
7.142
 50
118.021
 51
169.472
  0
LINE
  8
APS_GEOMETRY
 10
2038.406
 11
2050.406
 20
-89.916
 21
-89.916
  0
ARC
  8
APS_GEOMETRY
 10
2050.406
 20
-82.75
 40
7.167
 50
270.0
 51
90.0
  0
LINE
  8
APS_GEOMETRY
 10
2050.406
 11
2038.406
 20
-75.583
 21
-75.583
  0
LINE
  8
APS_GEOMETRY
 10
2038.406
 11
2038.406
 20
-75.583
 21
-105.583
  0
LINE
  8
APS_GEOMETRY
 10
2038.406
 11
2050.74
 20
-105.583
 21
-105.583
  0
ARC
  8
APS_GEOMETRY
 10
2050.74
 20
-97.75
 40
7.833
 50
270.0
 51
90.0
  0
ENDSEC
  0
EOF
