  0
SECTION
  2
ENTITIES
  0
LINE
  8
APS_GEOMETRY
 10
0.0
 11
835.0
 20
0.0
 21
0.0
  0
LINE
  8
APS_GEOMETRY
 10
835.0
 11
835.0
 20
0.0
 21
2114.0
  0
LINE
  8
APS_GEOMETRY
 10
835.0
 11
0.0
 20
2114.0
 21
2114.0
  0
LINE
  8
APS_GEOMETRY
 10
0.0
 11
0.0
 20
2114.0
 21
0.0
  0
LINE
  8
APS_GEOMETRY
 10
243.018
 11
243.018
 20
-136.677
 21
-106.677
  0
LINE
  8
APS_GEOMETRY
 10
243.018
 11
244.685
 20
-106.677
 21
-106.677
  0
LINE
  8
APS_GEOMETRY
 10
244.685
 11
256.351
 20
-106.677
 21
-136.677
  0
LINE
  8
APS_GEOMETRY
 10
256.351
 11
268.018
 20
-136.677
 21
-106.677
  0
LINE
  8
APS_GEOMETRY
 10
268.018
 11
269.685
 20
-106.677
 21
-106.677
  0
LINE
  8
APS_GEOMETRY
 10
269.685
 11
269.685
 20
-106.677
 21
-136.677
  0
ARC
  8
APS_GEOMETRY
 10
284.499
 20
-126.75
 40
9.822
 50
218.689
 51
321.311
  0
ARC
  8
APS_GEOMETRY
 10
277.975
 20
-121.389
 40
18.265
 50
320.978
 51
39.021
  0
ARC
  8
APS_GEOMETRY
 10
284.499
 20
-116.029
 40
9.822
 50
38.688
 51
141.313
  0
ARC
  8
APS_GEOMETRY
 10
291.023
 20
-121.39
 40
18.265
 50
140.979
 51
219.021
  0
ARC
  8
APS_GEOMETRY
 10
307.863
 20
-116.467
 40
9.789
 50
38.715
 51
90.166
  0
LINE
  8
APS_GEOMETRY
 10
307.834
 11
299.168
 20
-106.677
 21
-106.677
  0
LINE
  8
APS_GEOMETRY
 10
299.168
 11
299.168
 20
-106.677
 21
-136.677
  0
LINE
  8
APS_GEOMETRY
 10
299.168
 11
307.834
 20
-136.677
 21
-136.677
  0
ARC
  8
APS_GEOMETRY
 10
307.863
 20
-126.888
 40
9.789
 50
269.834
 51
321.286
  0
ARC
  8
APS_GEOMETRY
 10
301.516
 20
-121.677
 40
18.0
 50
320.978
 51
39.022
  0
LINE
  8
APS_GEOMETRY
 10
342.517
 11
322.517
 20
-106.677
 21
-106.677
  0
LINE
  8
APS_GEOMETRY
 10
322.517
 11
322.517
 20
-106.677
 21
-136.677
  0
LINE
  8
APS_GEOMETRY
 10
322.517
 11
342.517
 20
-136.677
 21
-136.677
  0
LINE
  8
APS_GEOMETRY
 10
322.85
 11
335.85
 20
-120.677
 21
-120.677
  0
LINE
  8
APS_GEOMETRY
 10
348.517
 11
348.517
 20
-106.677
 21
-136.677
  0
LINE
  8
APS_GEOMETRY
 10
348.517
 11
368.517
 20
-136.677
 21
-136.677
  0
LINE
  8
APS_GEOMETRY
 10
371.517
 11
371.517
 20
-106.677
 21
-136.677
  0
LINE
  8
APS_GEOMETRY
 10
371.517
 11
391.517
 20
-136.677
 21
-136.677
  0
ARC
  8
APS_GEOMETRY
 10
405.431
 20
-126.75
 40
9.822
 50
218.689
 51
321.311
  0
ARC
  8
APS_GEOMETRY
 10
398.907
 20
-121.389
 40
18.265
 50
320.978
 51
39.021
  0
ARC
  8
APS_GEOMETRY
 10
405.431
 20
-116.029
 40
9.822
 50
38.688
 51
141.313
  0
ARC
  8
APS_GEOMETRY
 10
411.955
 20
-121.39
 40
18.265
 50
140.979
 51
219.021
  0
ARC
  8
APS_GEOMETRY
 10
460.653
 20
-116.454
 40
9.822
 50
38.687
 51
141.312
  0
ARC
  8
APS_GEOMETRY
 10
467.177
 20
-121.814
 40
18.265
 50
140.979
 51
219.022
  0
ARC
  8
APS_GEOMETRY
 10
460.653
 20
-127.175
 40
9.822
 50
218.688
 51
321.312
  0
ARC
  8
APS_GEOMETRY
 10
462.15
 20
-128.314
 40
7.941
 50
320.978
 51
39.022
  0
ARC
  8
APS_GEOMETRY
 10
460.153
 20
-129.854
 40
10.463
 50
38.688
 51
141.312
  0
ARC
  8
APS_GEOMETRY
 10
459.449
 20
-129.387
 40
9.621
 50
140.864
 51
169.586
  0
ARC
  8
APS_GEOMETRY
 10
487.629
 20
-127.221
 40
9.822
 50
218.689
 51
321.311
  0
ARC
  8
APS_GEOMETRY
 10
481.105
 20
-121.861
 40
18.265
 50
320.978
 51
39.021
  0
ARC
  8
APS_GEOMETRY
 10
487.629
 20
-116.5
 40
9.822
 50
38.688
 51
141.313
  0
ARC
  8
APS_GEOMETRY
 10
494.153
 20
-121.861
 40
18.265
 50
140.979
 51
219.021
  0
ARC
  8
APS_GEOMETRY
 10
517.111
 20
-127.221
 40
9.822
 50
218.689
 51
321.311
  0
ARC
  8
APS_GEOMETRY
 10
510.588
 20
-121.861
 40
18.265
 50
320.978
 51
39.021
  0
ARC
  8
APS_GEOMETRY
 10
517.112
 20
-116.5
 40
9.822
 50
38.688
 51
141.313
  0
ARC
  8
APS_GEOMETRY
 10
523.636
 20
-121.861
 40
18.265
 50
140.979
 51
219.021
  0
LINE
  8
APS_GEOMETRY
 10
721.0
 11
721.0
 20
176.0
 21
774.0
  0
LINE
  8
APS_GEOMETRY
 10
721.0
 11
721.0
 20
886.0
 21
1222.667
  0
LINE
  8
APS_GEOMETRY
 10
721.0
 11
721.0
 20
1274.667
 21
1611.333
  0
LINE
  8
APS_GEOMETRY
 10
721.0
 11
721.0
 20
1663.333
 21
2000.0
  0
LINE
  8
APS_GEOMETRY
 10
114.0
 11
114.0
 20
2000.0
 21
1663.333
  0
LINE
  8
APS_GEOMETRY
 10
114.0
 11
114.0
 20
1611.333
 21
1274.667
  0
LINE
  8
APS_GEOMETRY
 10
114.0
 11
114.0
 20
1222.667
 21
886.0
  0
LINE
  8
APS_GEOMETRY
 10
114.0
 11
114.0
 20
774.0
 21
176.0
  0
LINE
  8
APS_GEOMETRY
 10
721.0
 11
553.333
 20
2000.0
 21
2000.0
  0
LINE
  8
APS_GEOMETRY
 10
501.333
 11
333.667
 20
2000.0
 21
2000.0
  0
LINE
  8
APS_GEOMETRY
 10
281.667
 11
114.0
 20
2000.0
 21
2000.0
  0
LINE
  8
APS_GEOMETRY
 10
114.0
 11
721.0
 20
176.0
 21
176.0
  0
LINE
  8
APS_GEOMETRY
 10
114.0
 11
281.667
 20
886.0
 21
886.0
  0
LINE
  8
APS_GEOMETRY
 10
333.667
 11
501.333
 20
886.0
 21
886.0
  0
LINE
  8
APS_GEOMETRY
 10
553.333
 11
721.0
 20
886.0
 21
886.0
  0
LINE
  8
APS_GEOMETRY
 10
114.0
 11
721.0
 20
774.0
 21
774.0
  0
LINE
  8
APS_GEOMETRY
 10
114.0
 11
281.667
 20
1222.667
 21
1222.667
  0
LINE
  8
APS_GEOMETRY
 10
333.667
 11
501.333
 20
1222.667
 21
1222.667
  0
LINE
  8
APS_GEOMETRY
 10
553.333
 11
721.0
 20
1222.667
 21
1222.667
  0
LINE
  8
APS_GEOMETRY
 10
721.0
 11
553.333
 20
1663.333
 21
1663.333
  0
LINE
  8
APS_GEOMETRY
 10
501.333
 11
333.667
 20
1663.333
 21
1663.333
  0
LINE
  8
APS_GEOMETRY
 10
281.667
 11
114.0
 20
1663.333
 21
1663.333
  0
LINE
  8
APS_GEOMETRY
 10
721.0
 11
553.333
 20
1611.333
 21
1611.333
  0
LINE
  8
APS_GEOMETRY
 10
501.333
 11
333.667
 20
1611.333
 21
1611.333
  0
LINE
  8
APS_GEOMETRY
 10
281.667
 11
114.0
 20
1611.333
 21
1611.333
  0
LINE
  8
APS_GEOMETRY
 10
114.0
 11
281.667
 20
1274.667
 21
1274.667
  0
LINE
  8
APS_GEOMETRY
 10
333.667
 11
501.333
 20
1274.667
 21
1274.667
  0
LINE
  8
APS_GEOMETRY
 10
553.333
 11
721.0
 20
1274.667
 21
1274.667
  0
LINE
  8
APS_GEOMETRY
 10
281.667
 11
281.667
 20
2000.0
 21
1663.333
  0
LINE
  8
APS_GEOMETRY
 10
281.667
 11
281.667
 20
1611.333
 21
1274.667
  0
LINE
  8
APS_GEOMETRY
 10
281.667
 11
281.667
 20
1222.667
 21
886.0
  0
LINE
  8
APS_GEOMETRY
 10
553.333
 11
553.333
 20
886.0
 21
1222.667
  0
LINE
  8
APS_GEOMETRY
 10
553.333
 11
553.333
 20
1274.667
 21
1611.333
  0
LINE
  8
APS_GEOMETRY
 10
553.333
 11
553.333
 20
1663.333
 21
2000.0
  0
LINE
  8
APS_GEOMETRY
 10
333.667
 11
333.667
 20
2000.0
 21
1663.333
  0
LINE
  8
APS_GEOMETRY
 10
333.667
 11
333.667
 20
1611.333
 21
1274.667
  0
LINE
  8
APS_GEOMETRY
 10
333.667
 11
333.667
 20
1222.667
 21
886.0
  0
LINE
  8
APS_GEOMETRY
 10
501.333
 11
501.333
 20
886.0
 21
1222.667
  0
LINE
  8
APS_GEOMETRY
 10
501.333
 11
501.333
 20
1274.667
 21
1611.333
  0
LINE
  8
APS_GEOMETRY
 10
501.333
 11
501.333
 20
1663.333
 21
2000.0
  0
LINE
  8
APS_GEOMETRY
 10
153.0
 11
682.0
 20
735.0
 21
735.0
  0
LINE
  8
APS_GEOMETRY
 10
682.0
 11
682.0
 20
735.0
 21
215.0
  0
LINE
  8
APS_GEOMETRY
 10
153.0
 11
153.0
 20
735.0
 21
215.0
  0
LINE
  8
APS_GEOMETRY
 10
153.0
 11
682.0
 20
215.0
 21
215.0
  0
LINE
  8
APS_GEOMETRY
 10
98.0
 11
737.0
 20
790.0
 21
790.0
  0
LINE
  8
APS_GEOMETRY
 10
98.0
 11
737.0
 20
870.0
 21
870.0
  0
LINE
  8
APS_GEOMETRY
 10
297.667
 11
297.667
 20
1238.667
 21
870.0
  0
LINE
  8
APS_GEOMETRY
 10
317.667
 11
317.667
 20
1238.667
 21
870.0
  0
LINE
  8
APS_GEOMETRY
 10
517.333
 11
517.333
 20
870.0
 21
1238.667
  0
LINE
  8
APS_GEOMETRY
 10
537.333
 11
537.333
 20
870.0
 21
1238.667
  0
LINE
  8
APS_GEOMETRY
 10
98.0
 11
737.0
 20
1238.667
 21
1238.667
  0
LINE
  8
APS_GEOMETRY
 10
98.0
 11
737.0
 20
1258.667
 21
1258.667
  0
LINE
  8
APS_GEOMETRY
 10
317.667
 11
317.667
 20
1627.333
 21
1258.667
  0
LINE
  8
APS_GEOMETRY
 10
297.667
 11
297.667
 20
1627.333
 21
1258.667
  0
LINE
  8
APS_GEOMETRY
 10
517.333
 11
517.333
 20
1258.667
 21
1627.333
  0
LINE
  8
APS_GEOMETRY
 10
537.333
 11
537.333
 20
1258.667
 21
1627.333
  0
LINE
  8
APS_GEOMETRY
 10
737.0
 11
98.0
 20
1627.333
 21
1627.333
  0
LINE
  8
APS_GEOMETRY
 10
737.0
 11
98.0
 20
1647.333
 21
1647.333
  0
LINE
  8
APS_GEOMETRY
 10
317.667
 11
317.667
 20
2016.0
 21
1647.333
  0
LINE
  8
APS_GEOMETRY
 10
297.667
 11
297.667
 20
2016.0
 21
1647.333
  0
LINE
  8
APS_GEOMETRY
 10
517.333
 11
517.333
 20
1647.333
 21
2016.0
  0
LINE
  8
APS_GEOMETRY
 10
537.333
 11
537.333
 20
1647.333
 21
2016.0
  0
LINE
  8
APS_GEOMETRY
 10
737.0
 11
98.0
 20
2016.0
 21
2016.0
  0
LINE
  8
APS_GEOMETRY
 10
98.0
 11
98.0
 20
2114.0
 21
0.0
  0
LINE
  8
APS_GEOMETRY
 10
737.0
 11
737.0
 20
0.0
 21
2114.0
  0
LINE
  8
APS_GEOMETRY
 10
98.0
 11
737.0
 20
160.0
 21
160.0
  0
LINE
  8
APS_GEOMETRY
 10
153.0
 11
98.0
 20
735.0
 21
790.0
  0
LINE
  8
APS_GEOMETRY
 10
682.0
 11
737.0
 20
735.0
 21
790.0
  0
LINE
  8
APS_GEOMETRY
 10
98.0
 11
114.0
 20
870.0
 21
886.0
  0
LINE
  8
APS_GEOMETRY
 10
114.0
 11
98.0
 20
1222.667
 21
1238.667
  0
LINE
  8
APS_GEOMETRY
 10
281.667
 11
297.667
 20
1222.667
 21
1238.667
  0
LINE
  8
APS_GEOMETRY
 10
281.667
 11
297.667
 20
886.0
 21
870.0
  0
LINE
  8
APS_GEOMETRY
 10
317.667
 11
333.667
 20
870.0
 21
886.0
  0
LINE
  8
APS_GEOMETRY
 10
333.667
 11
317.667
 20
1222.667
 21
1238.667
  0
LINE
  8
APS_GEOMETRY
 10
501.333
 11
517.333
 20
1222.667
 21
1238.667
  0
LINE
  8
APS_GEOMETRY
 10
501.333
 11
517.333
 20
886.0
 21
870.0
  0
LINE
  8
APS_GEOMETRY
 10
537.333
 11
553.333
 20
870.0
 21
886.0
  0
LINE
  8
APS_GEOMETRY
 10
553.333
 11
537.333
 20
1222.667
 21
1238.667
  0
LINE
  8
APS_GEOMETRY
 10
721.0
 11
737.0
 20
1222.667
 21
1238.667
  0
LINE
  8
APS_GEOMETRY
 10
721.0
 11
737.0
 20
886.0
 21
870.0
  0
LINE
  8
APS_GEOMETRY
 10
98.0
 11
114.0
 20
1647.333
 21
1663.333
  0
LINE
  8
APS_GEOMETRY
 10
114.0
 11
98.0
 20
2000.0
 21
2016.0
  0
LINE
  8
APS_GEOMETRY
 10
281.667
 11
297.667
 20
2000.0
 21
2016.0
  0
LINE
  8
APS_GEOMETRY
 10
281.667
 11
297.667
 20
1663.333
 21
1647.333
  0
LINE
  8
APS_GEOMETRY
 10
317.667
 11
333.667
 20
1647.333
 21
1663.333
  0
LINE
  8
APS_GEOMETRY
 10
333.667
 11
317.667
 20
2000.0
 21
2016.0
  0
LINE
  8
APS_GEOMETRY
 10
501.333
 11
517.333
 20
2000.0
 21
2016.0
  0
LINE
  8
APS_GEOMETRY
 10
501.333
 11
517.333
 20
1663.333
 21
1647.333
  0
LINE
  8
APS_GEOMETRY
 10
537.333
 11
553.333
 20
1647.333
 21
1663.333
  0
LINE
  8
APS_GEOMETRY
 10
553.333
 11
537.333
 20
2000.0
 21
2016.0
  0
LINE
  8
APS_GEOMETRY
 10
721.0
 11
737.0
 20
2000.0
 21
2016.0
  0
LINE
  8
APS_GEOMETRY
 10
721.0
 11
737.0
 20
1663.333
 21
1647.333
  0
LINE
  8
APS_GEOMETRY
 10
98.0
 11
114.0
 20
1258.667
 21
1274.667
  0
LINE
  8
APS_GEOMETRY
 10
114.0
 11
98.0
 20
1611.333
 21
1627.333
  0
LINE
  8
APS_GEOMETRY
 10
281.667
 11
297.667
 20
1611.333
 21
1627.333
  0
LINE
  8
APS_GEOMETRY
 10
281.667
 11
297.667
 20
1274.667
 21
1258.667
  0
LINE
  8
APS_GEOMETRY
 10
317.667
 11
333.667
 20
1258.667
 21
1274.667
  0
LINE
  8
APS_GEOMETRY
 10
333.667
 11
317.667
 20
1611.333
 21
1627.333
  0
LINE
  8
APS_GEOMETRY
 10
501.333
 11
517.333
 20
1611.333
 21
1627.333
  0
LINE
  8
APS_GEOMETRY
 10
501.333
 11
517.333
 20
1274.667
 21
1258.667
  0
LINE
  8
APS_GEOMETRY
 10
537.333
 11
553.333
 20
1258.667
 21
1274.667
  0
LINE
  8
APS_GEOMETRY
 10
553.333
 11
537.333
 20
1611.333
 21
1627.333
  0
LINE
  8
APS_GEOMETRY
 10
721.0
 11
737.0
 20
1611.333
 21
1627.333
  0
LINE
  8
APS_GEOMETRY
 10
721.0
 11
737.0
 20
1274.667
 21
1258.667
  0
LINE
  8
APS_GEOMETRY
 10
153.0
 11
98.0
 20
215.0
 21
160.0
  0
LINE
  8
APS_GEOMETRY
 10
682.0
 11
737.0
 20
215.0
 21
160.0
  0
ARC
  8
APS_GEOMETRY
 10
247.437
 20
-187.705
 40
12.331
 50
42.904
 51
122.546
  0
ARC
  8
APS_GEOMETRY
 10
244.271
 20
-182.589
 40
6.317
 50
123.307
 51
253.426
  0
LINE
  8
APS_GEOMETRY
 10
242.47
 11
252.469
 20
-188.644
 21
-191.977
  0
ARC
  8
APS_GEOMETRY
 10
250.433
 20
-198.436
 40
6.772
 50
299.838
 51
72.504
  0
ARC
  8
APS_GEOMETRY
 10
247.303
 20
-193.041
 40
13.01
 50
240.023
 51
299.974
  0
ARC
  8
APS_GEOMETRY
 10
244.36
 20
-198.085
 40
7.17
 50
209.759
 51
240.255
  0
ARC
  8
APS_GEOMETRY
 10
265.069
 20
-190.883
 40
18.236
 50
31.027
 51
40.045
  0
ARC
  8
APS_GEOMETRY
 10
271.363
 20
-185.289
 40
9.822
 50
38.687
 51
141.312
  0
ARC
  8
APS_GEOMETRY
 10
277.887
 20
-190.65
 40
18.265
 50
140.979
 51
219.022
  0
ARC
  8
APS_GEOMETRY
 10
271.363
 20
-196.01
 40
9.822
 50
218.688
 51
321.313
  0
ARC
  8
APS_GEOMETRY
 10
264.957
 20
-191.439
 40
17.685
 50
322.727
 51
335.346
  0
LINE
  8
APS_GEOMETRY
 10
287.931
 11
306.265
 20
-199.238
 21
-199.238
  0
LINE
  8
APS_GEOMETRY
 10
284.265
 11
295.931
 20
-205.905
 21
-175.905
  0
LINE
  8
APS_GEOMETRY
 10
295.931
 11
298.598
 20
-175.905
 21
-175.905
  0
LINE
  8
APS_GEOMETRY
 10
298.598
 11
309.598
 20
-175.905
 21
-205.905
  0
LINE
  8
APS_GEOMETRY
 10
312.598
 11
312.598
 20
-175.905
 21
-205.905
  0
LINE
  8
APS_GEOMETRY
 10
312.598
 11
332.598
 20
-205.905
 21
-205.905
  0
LINE
  8
APS_GEOMETRY
 10
339.265
 11
357.598
 20
-199.238
 21
-199.238
  0
LINE
  8
APS_GEOMETRY
 10
335.598
 11
347.265
 20
-205.905
 21
-175.905
  0
LINE
  8
APS_GEOMETRY
 10
347.265
 11
349.931
 20
-175.905
 21
-175.905
  0
LINE
  8
APS_GEOMETRY
 10
349.931
 11
360.931
 20
-175.905
 21
-205.905
  0
LINE
  8
APS_GEOMETRY
 10
392.431
 11
397.578
 20
-205.905
 21
-205.905
  0
LINE
  8
APS_GEOMETRY
 10
397.578
 11
402.725
 20
-205.905
 21
-205.905
  0
LINE
  8
APS_GEOMETRY
 10
397.578
 11
397.578
 20
-205.905
 21
-175.905
  0
LINE
  8
APS_GEOMETRY
 10
397.578
 11
392.431
 20
-175.905
 21
-181.052
  0
LINE
  8
APS_GEOMETRY
 10
410.225
 11
408.725
 20
-186.967
 21
-186.967
  0
LINE
  8
APS_GEOMETRY
 10
408.725
 11
408.725
 20
-186.967
 21
-185.467
  0
LINE
  8
APS_GEOMETRY
 10
408.725
 11
410.225
 20
-185.467
 21
-185.467
  0
LINE
  8
APS_GEOMETRY
 10
410.225
 11
410.225
 20
-185.467
 21
-186.967
  0
LINE
  8
APS_GEOMETRY
 10
410.225
 11
408.725
 20
-198.967
 21
-198.967
  0
LINE
  8
APS_GEOMETRY
 10
408.725
 11
408.725
 20
-198.967
 21
-197.467
  0
LINE
  8
APS_GEOMETRY
 10
408.725
 11
410.225
 20
-197.467
 21
-197.467
  0
LINE
  8
APS_GEOMETRY
 10
410.225
 11
410.225
 20
-197.467
 21
-198.967
  0
LINE
  8
APS_GEOMETRY
 10
416.225
 11
421.372
 20
-205.905
 21
-205.905
  0
LINE
  8
APS_GEOMETRY
 10
421.372
 11
426.519
 20
-205.905
 21
-205.905
  0
LINE
  8
APS_GEOMETRY
 10
421.372
 11
421.372
 20
-205.905
 21
-175.905
  0
LINE
  8
APS_GEOMETRY
 10
421.372
 11
416.225
 20
-175.905
 21
-181.052
  0
ARC
  8
APS_GEOMETRY
 10
444.368
 20
-196.449
 40
9.822
 50
218.689
 51
321.311
  0
ARC
  8
APS_GEOMETRY
 10
437.844
 20
-191.088
 40
18.265
 50
320.978
 51
39.021
  0
ARC
  8
APS_GEOMETRY
 10
444.368
 20
-185.728
 40
9.822
 50
38.688
 51
141.313
  0
ARC
  8
APS_GEOMETRY
 10
450.892
 20
-191.088
 40
18.265
 50
140.979
 51
219.021
  0
ENDSEC
  0
EOF
