  0
SECTION
  2
ENTITIES
  0
ARC
  8
BASE
 10
231.52
 20
151.174
 40
38.626
 50
77.781
 51
102.219
  0
LINE
  8
BASE
 10
223.345
 11
223.745
 20
188.925
 21
188.525
  0
ARC
  8
BASE
 10
231.508
 20
154.524
 40
34.876
 50
95.418
 51
102.861
  0
LINE
  8
BASE
 10
228.215
 11
228.215
 20
189.244
 21
181.345
  0
LINE
  8
BASE
 10
228.215
 11
223.745
 20
181.345
 21
181.345
  0
LINE
  8
BASE
 10
223.745
 11
223.745
 20
181.345
 21
188.525
  0
LINE
  8
BASE
 10
223.745
 11
224.245
 20
188.525
 21
188.124
  0
ARC
  8
BASE
 10
231.508
 20
154.524
 40
34.376
 50
96.335
 51
102.198
  0
LINE
  8
BASE
 10
227.715
 11
227.715
 20
188.69
 21
181.845
  0
LINE
  8
BASE
 10
227.715
 11
224.245
 20
181.845
 21
181.845
  0
LINE
  8
BASE
 10
224.245
 11
223.345
 20
181.845
 21
180.945
  0
LINE
  8
BASE
 10
223.345
 11
239.695
 20
180.945
 21
180.945
  0
LINE
  8
BASE
 10
239.695
 11
238.795
 20
180.945
 21
181.845
  0
LINE
  8
BASE
 10
238.795
 11
238.795
 20
181.845
 21
188.119
  0
LINE
  8
BASE
 10
238.795
 11
239.272
 20
188.119
 21
188.525
  0
LINE
  8
BASE
 10
239.272
 11
239.695
 20
188.525
 21
188.925
  0
ARC
  8
BASE
 10
231.508
 20
154.524
 40
34.376
 50
87.192
 51
92.776
  0
LINE
  8
BASE
 10
229.844
 11
229.844
 20
188.86
 21
181.962
  0
LINE
  8
BASE
 10
229.844
 11
233.192
 20
181.962
 21
181.962
  0
LINE
  8
BASE
 10
233.192
 11
234.065
 20
181.962
 21
180.945
  0
LINE
  8
BASE
 10
234.065
 11
234.065
 20
180.945
 21
189.716
  0
LINE
  8
BASE
 10
234.065
 11
233.675
 20
189.716
 21
189.333
  0
LINE
  8
BASE
 10
233.675
 11
233.192
 20
189.333
 21
188.859
  0
LINE
  8
BASE
 10
233.192
 11
233.192
 20
188.859
 21
181.962
  0
ARC
  8
BASE
 10
231.508
 20
154.524
 40
34.876
 50
86.439
 51
93.53
  0
LINE
  8
BASE
 10
229.361
 11
229.361
 20
189.334
 21
181.397
  0
LINE
  8
BASE
 10
229.361
 11
233.675
 20
181.397
 21
181.397
  0
LINE
  8
BASE
 10
233.675
 11
233.675
 20
181.397
 21
189.333
  0
ARC
  8
BASE
 10
231.508
 20
154.524
 40
34.376
 50
77.762
 51
83.625
  0
LINE
  8
BASE
 10
235.325
 11
235.325
 20
188.687
 21
181.845
  0
LINE
  8
BASE
 10
235.325
 11
238.795
 20
181.845
 21
181.845
  0
ARC
  8
BASE
 10
231.508
 20
154.524
 40
34.876
 50
77.139
 51
84.543
  0
LINE
  8
BASE
 10
234.825
 11
234.825
 20
189.242
 21
181.345
  0
LINE
  8
BASE
 10
234.825
 11
239.295
 20
181.345
 21
181.345
  0
LINE
  8
BASE
 10
239.295
 11
239.295
 20
181.345
 21
188.525
  0
LINE
  8
BASE
 10
223.345
 11
223.345
 20
193.4
 21
144.5
  0
LINE
  8
BASE
 10
223.345
 11
239.695
 20
144.5
 21
144.5
  0
LINE
  8
BASE
 10
239.695
 11
238.42
 20
144.5
 21
145.775
  0
LINE
  8
BASE
 10
238.42
 11
238.42
 20
145.775
 21
159.025
  0
LINE
  8
BASE
 10
238.42
 11
224.62
 20
159.025
 21
159.025
  0
LINE
  8
BASE
 10
224.62
 11
223.345
 20
159.025
 21
160.3
  0
LINE
  8
BASE
 10
223.345
 11
239.695
 20
160.3
 21
160.3
  0
LINE
  8
BASE
 10
239.695
 11
238.42
 20
160.3
 21
159.025
  0
LINE
  8
BASE
 10
223.345
 11
223.345
 20
140.4
 21
144.5
  0
LINE
  8
BASE
 10
223.345
 11
224.62
 20
144.5
 21
145.775
  0
LINE
  8
BASE
 10
224.62
 11
224.62
 20
145.775
 21
159.025
  0
LINE
  8
BASE
 10
223.745
 11
223.745
 20
144.9
 21
159.9
  0
LINE
  8
BASE
 10
223.745
 11
239.295
 20
159.9
 21
159.9
  0
LINE
  8
BASE
 10
239.295
 11
239.295
 20
159.9
 21
144.9
  0
LINE
  8
BASE
 10
239.295
 11
223.745
 20
144.9
 21
144.9
  0
LINE
  8
BASE
 10
239.695
 11
239.695
 20
140.4
 21
193.4
  0
LINE
  8
BASE
 10
239.695
 11
223.345
 20
162.375
 21
162.375
  0
LINE
  8
BASE
 10
223.345
 11
239.695
 20
162.375
 21
162.375
  0
LINE
  8
BASE
 10
238.42
 11
224.62
 20
145.775
 21
145.775
  0
LINE
  8
BASE
 10
220.995
 11
220.995
 20
140.4
 21
193.275
  0
LINE
  8
BASE
 10
220.995
 11
242.045
 20
193.275
 21
193.275
  0
LINE
  8
BASE
 10
242.045
 11
242.045
 20
193.275
 21
140.4
  0
LINE
  8
BASE
 10
242.17
 11
242.17
 20
140.4
 21
193.4
  0
LINE
  8
BASE
 10
242.17
 11
220.87
 20
193.4
 21
193.4
  0
LINE
  8
BASE
 10
220.87
 11
220.87
 20
193.4
 21
193.9
  0
LINE
  8
BASE
 10
244.245
 11
244.245
 20
140.4
 21
195.47
  0
LINE
  8
BASE
 10
244.245
 11
242.67
 20
195.47
 21
195.475
  0
LINE
  8
BASE
 10
242.67
 11
220.37
 20
195.475
 21
195.475
  0
LINE
  8
BASE
 10
220.37
 11
218.795
 20
195.475
 21
195.484
  0
LINE
  8
BASE
 10
218.795
 11
220.37
 20
195.484
 21
193.9
  0
LINE
  8
BASE
 10
220.37
 11
220.37
 20
193.9
 21
140.4
  0
LINE
  8
BASE
 10
220.37
 11
242.67
 20
140.4
 21
140.4
  0
LINE
  8
BASE
 10
242.67
 11
242.67
 20
140.4
 21
193.9
  0
LINE
  8
BASE
 10
242.67
 11
220.37
 20
193.9
 21
193.9
  0
LINE
  8
BASE
 10
242.17
 11
242.17
 20
193.4
 21
193.9
  0
LINE
  8
BASE
 10
242.67
 11
244.245
 20
193.9
 21
195.47
  0
LINE
  8
BASE
 10
218.795
 11
218.795
 20
140.4
 21
195.484
  0
LINE
  8
BASE
 10
220.87
 11
220.87
 20
140.4
 21
193.4
  0
LINE
  8
BASE
 10
220.37
 11
212.77
 20
140.4
 21
140.4
  0
LINE
  8
BASE
 10
228.215
 11
223.745
 20
162.775
 21
162.775
  0
LINE
  8
BASE
 10
223.745
 11
223.745
 20
162.775
 21
170.9
  0
LINE
  8
BASE
 10
223.745
 11
228.215
 20
170.9
 21
170.9
  0
LINE
  8
BASE
 10
228.215
 11
228.215
 20
170.9
 21
162.775
  0
LINE
  8
BASE
 10
239.695
 11
223.345
 20
171.3
 21
171.3
  0
LINE
  8
BASE
 10
223.345
 11
224.241
 20
171.3
 21
170.416
  0
LINE
  8
BASE
 10
224.241
 11
227.693
 20
170.416
 21
170.416
  0
LINE
  8
BASE
 10
227.693
 11
227.693
 20
170.416
 21
163.257
  0
LINE
  8
BASE
 10
227.693
 11
228.589
 20
163.257
 21
162.375
  0
LINE
  8
BASE
 10
239.695
 11
223.345
 20
171.66
 21
171.66
  0
LINE
  8
BASE
 10
223.345
 11
224.233
 20
171.66
 21
172.535
  0
LINE
  8
BASE
 10
224.233
 11
224.233
 20
172.535
 21
179.636
  0
LINE
  8
BASE
 10
224.233
 11
223.345
 20
179.636
 21
180.511
  0
LINE
  8
BASE
 10
228.215
 11
223.745
 20
172.06
 21
172.06
  0
LINE
  8
BASE
 10
223.745
 11
223.745
 20
172.06
 21
180.185
  0
LINE
  8
BASE
 10
223.745
 11
228.215
 20
180.185
 21
180.185
  0
LINE
  8
BASE
 10
228.215
 11
228.215
 20
180.185
 21
172.06
  0
LINE
  8
BASE
 10
239.695
 11
223.345
 20
180.585
 21
180.585
  0
LINE
  8
BASE
 10
224.672
 11
224.907
 20
181.448
 21
181.697
  0
LINE
  8
BASE
 10
224.567
 11
226.5
 20
185.444
 21
182.35
  0
LINE
  8
BASE
 10
224.245
 11
224.245
 20
181.845
 21
188.124
  0
LINE
  8
BASE
 10
224.188
 11
223.914
 20
185.444
 21
185.024
  0
LINE
  8
BASE
 10
224.045
 11
223.914
 20
185.351
 21
185.475
  0
LINE
  8
BASE
 10
224.319
 11
224.672
 20
182.925
 21
182.397
  0
LINE
  8
BASE
 10
224.019
 11
223.836
 20
184.776
 21
184.573
  0
LINE
  8
BASE
 10
224.149
 11
223.875
 20
187.947
 21
187.621
  0
LINE
  8
BASE
 10
228.615
 11
228.615
 20
171.3
 21
162.375
  0
LINE
  8
BASE
 10
228.975
 11
228.975
 20
171.3
 21
162.375
  0
LINE
  8
BASE
 10
228.975
 11
229.844
 20
162.375
 21
163.257
  0
LINE
  8
BASE
 10
229.844
 11
229.844
 20
163.257
 21
170.416
  0
LINE
  8
BASE
 10
229.844
 11
228.975
 20
170.416
 21
171.3
  0
LINE
  8
BASE
 10
229.844
 11
233.192
 20
170.416
 21
170.416
  0
LINE
  8
BASE
 10
233.192
 11
234.065
 20
170.416
 21
171.3
  0
LINE
  8
BASE
 10
234.065
 11
234.065
 20
171.3
 21
162.375
  0
LINE
  8
BASE
 10
234.065
 11
233.192
 20
162.375
 21
163.257
  0
LINE
  8
BASE
 10
233.192
 11
229.844
 20
163.257
 21
163.257
  0
LINE
  8
BASE
 10
234.425
 11
234.425
 20
171.3
 21
162.375
  0
LINE
  8
BASE
 10
234.425
 11
235.321
 20
162.375
 21
163.257
  0
LINE
  8
BASE
 10
235.321
 11
235.321
 20
163.257
 21
170.416
  0
LINE
  8
BASE
 10
235.321
 11
234.425
 20
170.416
 21
171.3
  0
LINE
  8
BASE
 10
239.295
 11
239.295
 20
170.9
 21
162.775
  0
LINE
  8
BASE
 10
239.295
 11
234.825
 20
162.775
 21
162.775
  0
LINE
  8
BASE
 10
234.825
 11
234.825
 20
162.775
 21
170.9
  0
LINE
  8
BASE
 10
234.825
 11
239.295
 20
170.9
 21
170.9
  0
LINE
  8
BASE
 10
229.375
 11
229.375
 20
170.9
 21
162.775
  0
LINE
  8
BASE
 10
229.375
 11
233.665
 20
162.775
 21
162.775
  0
LINE
  8
BASE
 10
233.665
 11
233.665
 20
162.775
 21
170.9
  0
LINE
  8
BASE
 10
233.665
 11
229.375
 20
170.9
 21
170.9
  0
LINE
  8
BASE
 10
235.325
 11
234.825
 20
188.687
 21
189.242
  0
LINE
  8
BASE
 10
234.825
 11
234.425
 20
189.242
 21
189.691
  0
LINE
  8
BASE
 10
234.425
 11
234.425
 20
189.691
 21
180.945
  0
LINE
  8
BASE
 10
234.425
 11
235.325
 20
180.945
 21
181.845
  0
LINE
  8
BASE
 10
229.844
 11
229.361
 20
188.86
 21
189.334
  0
LINE
  8
BASE
 10
229.361
 11
228.975
 20
189.334
 21
189.716
  0
LINE
  8
BASE
 10
228.975
 11
228.975
 20
189.716
 21
180.945
  0
LINE
  8
BASE
 10
228.975
 11
229.843
 20
180.945
 21
181.962
  0
LINE
  8
BASE
 10
227.715
 11
228.215
 20
188.69
 21
189.244
  0
LINE
  8
BASE
 10
228.215
 11
228.615
 20
189.244
 21
189.691
  0
LINE
  8
BASE
 10
228.615
 11
228.615
 20
189.691
 21
180.945
  0
LINE
  8
BASE
 10
228.615
 11
227.715
 20
180.945
 21
181.845
  0
LINE
  8
BASE
 10
239.295
 11
239.295
 20
180.185
 21
172.06
  0
LINE
  8
BASE
 10
239.295
 11
234.825
 20
172.06
 21
172.06
  0
LINE
  8
BASE
 10
234.825
 11
234.825
 20
172.06
 21
180.185
  0
LINE
  8
BASE
 10
234.825
 11
239.295
 20
180.185
 21
180.185
  0
LINE
  8
BASE
 10
233.665
 11
233.665
 20
180.185
 21
172.06
  0
LINE
  8
BASE
 10
233.665
 11
229.375
 20
172.06
 21
172.06
  0
LINE
  8
BASE
 10
229.375
 11
229.375
 20
172.06
 21
180.185
  0
LINE
  8
BASE
 10
229.375
 11
233.665
 20
180.185
 21
180.185
  0
LINE
  8
BASE
 10
234.425
 11
234.425
 20
180.585
 21
171.66
  0
LINE
  8
BASE
 10
234.425
 11
235.321
 20
171.66
 21
172.535
  0
LINE
  8
BASE
 10
235.321
 11
235.321
 20
172.535
 21
179.636
  0
LINE
  8
BASE
 10
235.321
 11
234.425
 20
179.636
 21
180.511
  0
LINE
  8
BASE
 10
234.065
 11
234.065
 20
180.585
 21
171.66
  0
LINE
  8
BASE
 10
228.975
 11
228.975
 20
180.585
 21
171.66
  0
LINE
  8
BASE
 10
228.975
 11
229.851
 20
171.66
 21
172.536
  0
LINE
  8
BASE
 10
229.851
 11
229.851
 20
172.536
 21
179.643
  0
LINE
  8
BASE
 10
229.851
 11
228.975
 20
179.643
 21
180.519
  0
LINE
  8
BASE
 10
228.615
 11
228.615
 20
180.585
 21
171.66
  0
LINE
  8
BASE
 10
236.814
 11
236.396
 20
186.595
 21
185.848
  0
LINE
  8
BASE
 10
226.226
 11
226.644
 20
186.595
 21
185.848
  0
LINE
  8
BASE
 10
231.726
 11
232.144
 20
186.695
 21
185.948
  0
LINE
  8
BASE
 10
232.692
 11
232.901
 20
181.875
 21
181.719
  0
LINE
  8
BASE
 10
229.688
 11
229.414
 20
185.544
 21
185.124
  0
LINE
  8
BASE
 10
226.813
 11
227.231
 20
186.393
 21
185.646
  0
LINE
  8
BASE
 10
227.845
 11
228.093
 20
185.444
 21
185.242
  0
LINE
  8
BASE
 10
228.028
 11
228.159
 20
185.444
 21
185.6
  0
LINE
  8
BASE
 10
226.709
 11
226.853
 20
181.573
 21
181.448
  0
LINE
  8
BASE
 10
225.599
 11
226.082
 20
182.599
 21
181.899
  0
LINE
  8
BASE
 10
225.09
 11
225.325
 20
181.573
 21
181.775
  0
LINE
  8
BASE
 10
232.209
 11
232.353
 20
181.673
 21
181.548
  0
LINE
  8
BASE
 10
230.59
 11
230.825
 20
181.673
 21
181.875
  0
LINE
  8
BASE
 10
230.172
 11
230.407
 20
181.548
 21
181.797
  0
LINE
  8
BASE
 10
229.819
 11
230.172
 20
183.025
 21
182.497
  0
LINE
  8
BASE
 10
229.519
 11
229.336
 20
184.876
 21
184.673
  0
LINE
  8
BASE
 10
227.78
 11
227.989
 20
182.599
 21
182.35
  0
LINE
  8
BASE
 10
227.924
 11
228.133
 20
183.298
 21
183.019
  0
LINE
  8
BASE
 10
227.884
 11
228.028
 20
182.894
 21
182.77
  0
LINE
  8
BASE
 10
227.192
 11
227.401
 20
181.775
 21
181.619
  0
LINE
  8
BASE
 10
230.067
 11
232.0
 20
185.544
 21
182.45
  0
LINE
  8
BASE
 10
233.528
 11
233.659
 20
185.544
 21
185.7
  0
LINE
  8
BASE
 10
233.345
 11
233.593
 20
185.544
 21
185.342
  0
LINE
  8
BASE
 10
238.995
 11
239.126
 20
185.351
 21
185.475
  0
LINE
  8
BASE
 10
235.012
 11
234.881
 20
185.444
 21
185.6
  0
LINE
  8
BASE
 10
235.195
 11
234.947
 20
185.444
 21
185.242
  0
LINE
  8
BASE
 10
238.852
 11
239.126
 20
185.444
 21
185.024
  0
LINE
  8
BASE
 10
236.227
 11
235.809
 20
186.393
 21
185.646
  0
LINE
  8
BASE
 10
233.384
 11
233.528
 20
182.994
 21
182.87
  0
LINE
  8
BASE
 10
233.424
 11
233.633
 20
183.398
 21
183.119
  0
LINE
  8
BASE
 10
233.28
 11
233.489
 20
182.699
 21
182.45
  0
LINE
  8
BASE
 10
235.848
 11
235.639
 20
181.775
 21
181.619
  0
LINE
  8
BASE
 10
236.331
 11
236.187
 20
181.573
 21
181.448
  0
LINE
  8
BASE
 10
237.95
 11
237.715
 20
181.573
 21
181.775
  0
LINE
  8
BASE
 10
238.368
 11
238.133
 20
181.448
 21
181.697
  0
LINE
  8
BASE
 10
235.156
 11
235.012
 20
182.894
 21
182.77
  0
LINE
  8
BASE
 10
235.116
 11
234.907
 20
183.298
 21
183.019
  0
LINE
  8
BASE
 10
235.26
 11
235.051
 20
182.599
 21
182.35
  0
LINE
  8
BASE
 10
239.021
 11
239.204
 20
184.776
 21
184.573
  0
LINE
  8
BASE
 10
238.721
 11
238.368
 20
182.925
 21
182.397
  0
LINE
  8
BASE
 10
237.441
 11
236.958
 20
182.599
 21
181.899
  0
LINE
  8
BASE
 10
238.473
 11
236.54
 20
185.444
 21
182.35
  0
LINE
  8
BASE
 10
226.187
 11
227.088
 20
188.398
 21
186.719
  0
LINE
  8
BASE
 10
229.649
 11
229.375
 20
188.047
 21
187.721
  0
LINE
  8
BASE
 10
231.687
 11
232.588
 20
188.498
 21
186.819
  0
LINE
  8
BASE
 10
227.819
 11
227.989
 20
187.994
 21
188.243
  0
LINE
  8
BASE
 10
227.884
 11
228.093
 20
188.321
 21
188.694
  0
LINE
  8
BASE
 10
233.384
 11
233.593
 20
188.421
 21
188.794
  0
LINE
  8
BASE
 10
233.319
 11
233.489
 20
188.094
 21
188.343
  0
LINE
  8
BASE
 10
235.156
 11
234.947
 20
188.321
 21
188.694
  0
LINE
  8
BASE
 10
235.221
 11
235.051
 20
187.994
 21
188.243
  0
LINE
  8
BASE
 10
238.891
 11
239.165
 20
187.947
 21
187.621
  0
LINE
  8
BASE
 10
236.853
 11
235.952
 20
188.398
 21
186.719
  0
LINE
  8
BASE
 10
239.695
 11
239.695
 20
189.65
 21
190.05
  0
LINE
  8
BASE
 10
239.695
 11
239.695
 20
190.05
 21
189.65
  0
LINE
  8
BASE
 10
227.693
 11
224.241
 20
163.257
 21
163.257
  0
LINE
  8
BASE
 10
224.241
 11
224.241
 20
163.257
 21
170.416
  0
LINE
  8
BASE
 10
227.693
 11
228.589
 20
170.416
 21
171.298
  0
LINE
  8
BASE
 10
226.172
 11
227.069
 20
169.679
 21
168.034
  0
LINE
  8
BASE
 10
224.145
 11
224.015
 20
169.649
 21
169.436
  0
LINE
  8
BASE
 10
224.145
 11
223.872
 20
169.237
 21
168.917
  0
LINE
  8
BASE
 10
225.38
 11
225.588
 20
170.807
 21
170.609
  0
LINE
  8
BASE
 10
227.238
 11
227.446
 20
170.533
 21
170.685
  0
LINE
  8
BASE
 10
227.797
 11
227.966
 20
169.283
 21
169.527
  0
LINE
  8
BASE
 10
227.862
 11
228.07
 20
169.603
 21
169.969
  0
LINE
  8
BASE
 10
224.561
 11
226.484
 20
166.784
 21
163.752
  0
LINE
  8
BASE
 10
224.015
 11
223.833
 20
166.129
 21
165.931
  0
LINE
  8
BASE
 10
224.241
 11
223.345
 20
163.257
 21
162.375
  0
LINE
  8
BASE
 10
225.588
 11
226.068
 20
163.996
 21
163.31
  0
LINE
  8
BASE
 10
224.314
 11
224.665
 20
164.316
 21
163.798
  0
LINE
  8
BASE
 10
227.758
 11
227.966
 20
163.996
 21
163.752
  0
LINE
  8
BASE
 10
227.901
 11
228.109
 20
164.681
 21
164.407
  0
LINE
  8
BASE
 10
227.862
 11
228.005
 20
164.285
 21
164.163
  0
LINE
  8
BASE
 10
224.665
 11
224.899
 20
162.868
 21
163.112
  0
LINE
  8
BASE
 10
225.081
 11
225.315
 20
162.99
 21
163.188
  0
LINE
  8
BASE
 10
226.692
 11
226.835
 20
162.99
 21
162.868
  0
LINE
  8
BASE
 10
227.173
 11
227.381
 20
163.188
 21
163.036
  0
LINE
  8
BASE
 10
226.211
 11
226.627
 20
167.912
 21
167.18
  0
LINE
  8
BASE
 10
226.796
 11
227.212
 20
167.714
 21
166.982
  0
LINE
  8
BASE
 10
224.184
 11
223.911
 20
166.784
 21
166.373
  0
LINE
  8
BASE
 10
227.823
 11
228.07
 20
166.784
 21
166.586
  0
LINE
  8
BASE
 10
228.005
 11
228.135
 20
166.784
 21
166.937
  0
LINE
  8
BASE
 10
224.041
 11
223.911
 20
166.693
 21
166.815
  0
LINE
  8
BASE
 10
228.547
 11
227.658
 20
180.511
 21
179.636
  0
LINE
  8
BASE
 10
227.658
 11
227.658
 20
179.636
 21
172.535
  0
LINE
  8
BASE
 10
227.658
 11
228.547
 20
172.535
 21
171.66
  0
LINE
  8
BASE
 10
224.233
 11
227.658
 20
179.636
 21
179.636
  0
LINE
  8
BASE
 10
226.15
 11
227.039
 20
178.905
 21
177.273
  0
LINE
  8
BASE
 10
224.139
 11
224.01
 20
178.875
 21
178.663
  0
LINE
  8
BASE
 10
224.139
 11
223.868
 20
178.467
 21
178.149
  0
LINE
  8
BASE
 10
225.363
 11
225.57
 20
180.024
 21
179.827
  0
LINE
  8
BASE
 10
227.207
 11
227.413
 20
179.752
 21
179.903
  0
LINE
  8
BASE
 10
227.761
 11
227.929
 20
178.512
 21
178.754
  0
LINE
  8
BASE
 10
227.825
 11
228.032
 20
178.83
 21
179.192
  0
LINE
  8
BASE
 10
224.551
 11
226.459
 20
176.033
 21
173.026
  0
LINE
  8
BASE
 10
224.01
 11
223.829
 20
175.384
 21
175.187
  0
LINE
  8
BASE
 10
227.658
 11
224.233
 20
172.535
 21
172.535
  0
LINE
  8
BASE
 10
225.57
 11
226.047
 20
173.268
 21
172.587
  0
LINE
  8
BASE
 10
224.306
 11
224.654
 20
173.585
 21
173.071
  0
LINE
  8
BASE
 10
227.722
 11
227.929
 20
173.268
 21
173.026
  0
LINE
  8
BASE
 10
227.864
 11
228.07
 20
173.948
 21
173.676
  0
LINE
  8
BASE
 10
227.825
 11
227.967
 20
173.555
 21
173.434
  0
LINE
  8
BASE
 10
224.654
 11
224.886
 20
172.149
 21
172.391
  0
LINE
  8
BASE
 10
225.067
 11
225.299
 20
172.27
 21
172.466
  0
LINE
  8
BASE
 10
226.665
 11
226.807
 20
172.27
 21
172.149
  0
LINE
  8
BASE
 10
227.142
 11
227.349
 20
172.466
 21
172.315
  0
LINE
  8
BASE
 10
226.188
 11
226.601
 20
177.152
 21
176.426
  0
LINE
  8
BASE
 10
226.768
 11
227.181
 20
176.955
 21
176.23
  0
LINE
  8
BASE
 10
224.177
 11
223.907
 20
176.033
 21
175.625
  0
LINE
  8
BASE
 10
227.787
 11
228.032
 20
176.033
 21
175.837
  0
LINE
  8
BASE
 10
227.967
 11
228.096
 20
176.033
 21
176.185
  0
LINE
  8
BASE
 10
224.036
 11
223.907
 20
175.943
 21
176.064
  0
LINE
  8
BASE
 10
239.669
 11
238.773
 20
171.298
 21
170.416
  0
LINE
  8
BASE
 10
238.773
 11
238.773
 20
170.416
 21
163.257
  0
LINE
  8
BASE
 10
238.773
 11
239.669
 20
163.257
 21
162.375
  0
LINE
  8
BASE
 10
235.321
 11
238.773
 20
170.416
 21
170.416
  0
LINE
  8
BASE
 10
237.252
 11
238.149
 20
169.679
 21
168.034
  0
LINE
  8
BASE
 10
235.225
 11
235.095
 20
169.649
 21
169.436
  0
LINE
  8
BASE
 10
235.225
 11
234.952
 20
169.237
 21
168.917
  0
LINE
  8
BASE
 10
236.46
 11
236.668
 20
170.807
 21
170.609
  0
LINE
  8
BASE
 10
238.318
 11
238.526
 20
170.533
 21
170.685
  0
LINE
  8
BASE
 10
238.877
 11
239.046
 20
169.283
 21
169.527
  0
LINE
  8
BASE
 10
238.942
 11
239.15
 20
169.603
 21
169.969
  0
LINE
  8
BASE
 10
235.641
 11
237.564
 20
166.784
 21
163.752
  0
LINE
  8
BASE
 10
235.095
 11
234.913
 20
166.129
 21
165.931
  0
LINE
  8
BASE
 10
238.773
 11
235.321
 20
163.257
 21
163.257
  0
LINE
  8
BASE
 10
236.668
 11
237.148
 20
163.996
 21
163.31
  0
LINE
  8
BASE
 10
235.394
 11
235.745
 20
164.316
 21
163.798
  0
LINE
  8
BASE
 10
238.838
 11
239.046
 20
163.996
 21
163.752
  0
LINE
  8
BASE
 10
238.981
 11
239.189
 20
164.681
 21
164.407
  0
LINE
  8
BASE
 10
238.942
 11
239.085
 20
164.285
 21
164.163
  0
LINE
  8
BASE
 10
235.745
 11
235.979
 20
162.868
 21
163.112
  0
LINE
  8
BASE
 10
236.161
 11
236.395
 20
162.99
 21
163.188
  0
LINE
  8
BASE
 10
237.772
 11
237.915
 20
162.99
 21
162.868
  0
LINE
  8
BASE
 10
238.253
 11
238.461
 20
163.188
 21
163.036
  0
LINE
  8
BASE
 10
237.291
 11
237.707
 20
167.912
 21
167.18
  0
LINE
  8
BASE
 10
237.876
 11
238.292
 20
167.714
 21
166.982
  0
LINE
  8
BASE
 10
235.264
 11
234.991
 20
166.784
 21
166.373
  0
LINE
  8
BASE
 10
238.903
 11
239.15
 20
166.784
 21
166.586
  0
LINE
  8
BASE
 10
239.085
 11
239.215
 20
166.784
 21
166.937
  0
LINE
  8
BASE
 10
235.121
 11
234.991
 20
166.693
 21
166.815
  0
LINE
  8
BASE
 10
233.192
 11
233.192
 20
170.416
 21
163.257
  0
LINE
  8
BASE
 10
231.717
 11
232.587
 20
169.679
 21
168.034
  0
LINE
  8
BASE
 10
229.751
 11
229.625
 20
169.649
 21
169.436
  0
LINE
  8
BASE
 10
229.751
 11
229.486
 20
169.237
 21
168.917
  0
LINE
  8
BASE
 10
230.948
 11
231.15
 20
170.807
 21
170.609
  0
LINE
  8
BASE
 10
232.751
 11
232.952
 20
170.533
 21
170.685
  0
LINE
  8
BASE
 10
233.293
 11
233.456
 20
169.283
 21
169.527
  0
LINE
  8
BASE
 10
233.356
 11
233.557
 20
169.603
 21
169.969
  0
LINE
  8
BASE
 10
230.154
 11
232.02
 20
166.784
 21
163.752
  0
LINE
  8
BASE
 10
229.625
 11
229.449
 20
166.129
 21
165.931
  0
LINE
  8
BASE
 10
231.15
 11
231.616
 20
163.996
 21
163.31
  0
LINE
  8
BASE
 10
229.915
 11
230.255
 20
164.316
 21
163.798
  0
LINE
  8
BASE
 10
233.255
 11
233.456
 20
163.996
 21
163.752
  0
LINE
  8
BASE
 10
233.393
 11
233.595
 20
164.681
 21
164.407
  0
LINE
  8
BASE
 10
233.356
 11
233.494
 20
164.285
 21
164.163
  0
LINE
  8
BASE
 10
230.255
 11
230.482
 20
162.868
 21
163.112
  0
LINE
  8
BASE
 10
230.658
 11
230.885
 20
162.99
 21
163.188
  0
LINE
  8
BASE
 10
232.221
 11
232.36
 20
162.99
 21
162.868
  0
LINE
  8
BASE
 10
232.688
 11
232.889
 20
163.188
 21
163.036
  0
LINE
  8
BASE
 10
231.755
 11
232.158
 20
167.912
 21
167.18
  0
LINE
  8
BASE
 10
232.322
 11
232.725
 20
167.714
 21
166.982
  0
LINE
  8
BASE
 10
229.789
 11
229.524
 20
166.784
 21
166.373
  0
LINE
  8
BASE
 10
233.318
 11
233.557
 20
166.784
 21
166.586
  0
LINE
  8
BASE
 10
233.494
 11
233.62
 20
166.784
 21
166.937
  0
LINE
  8
BASE
 10
229.65
 11
229.524
 20
166.693
 21
166.815
  0
LINE
  8
BASE
 10
239.67
 11
238.774
 20
180.511
 21
179.636
  0
LINE
  8
BASE
 10
238.774
 11
238.774
 20
179.636
 21
172.535
  0
LINE
  8
BASE
 10
238.774
 11
239.67
 20
172.535
 21
171.66
  0
LINE
  8
BASE
 10
235.321
 11
238.774
 20
179.636
 21
179.636
  0
LINE
  8
BASE
 10
237.253
 11
238.15
 20
178.905
 21
177.273
  0
LINE
  8
BASE
 10
235.225
 11
235.095
 20
178.875
 21
178.663
  0
LINE
  8
BASE
 10
235.225
 11
234.952
 20
178.467
 21
178.149
  0
LINE
  8
BASE
 10
236.46
 11
236.668
 20
180.024
 21
179.827
  0
LINE
  8
BASE
 10
238.319
 11
238.527
 20
179.752
 21
179.903
  0
LINE
  8
BASE
 10
238.878
 11
239.046
 20
178.512
 21
178.754
  0
LINE
  8
BASE
 10
238.943
 11
239.15
 20
178.83
 21
179.192
  0
LINE
  8
BASE
 10
235.641
 11
237.565
 20
176.033
 21
173.026
  0
LINE
  8
BASE
 10
235.095
 11
234.913
 20
175.384
 21
175.187
  0
LINE
  8
BASE
 10
238.774
 11
235.321
 20
172.535
 21
172.535
  0
LINE
  8
BASE
 10
236.668
 11
237.149
 20
173.268
 21
172.587
  0
LINE
  8
BASE
 10
235.394
 11
235.745
 20
173.585
 21
173.071
  0
LINE
  8
BASE
 10
238.839
 11
239.046
 20
173.268
 21
173.026
  0
LINE
  8
BASE
 10
238.982
 11
239.189
 20
173.948
 21
173.676
  0
LINE
  8
BASE
 10
238.943
 11
239.085
 20
173.555
 21
173.434
  0
LINE
  8
BASE
 10
235.745
 11
235.979
 20
172.149
 21
172.391
  0
LINE
  8
BASE
 10
236.161
 11
236.395
 20
172.27
 21
172.466
  0
LINE
  8
BASE
 10
237.773
 11
237.916
 20
172.27
 21
172.149
  0
LINE
  8
BASE
 10
238.254
 11
238.462
 20
172.466
 21
172.315
  0
LINE
  8
BASE
 10
237.292
 11
237.708
 20
177.152
 21
176.426
  0
LINE
  8
BASE
 10
237.877
 11
238.293
 20
176.955
 21
176.23
  0
LINE
  8
BASE
 10
235.264
 11
234.991
 20
176.033
 21
175.625
  0
LINE
  8
BASE
 10
238.904
 11
239.15
 20
176.033
 21
175.837
  0
LINE
  8
BASE
 10
239.085
 11
239.215
 20
176.033
 21
176.185
  0
LINE
  8
BASE
 10
235.121
 11
234.991
 20
175.943
 21
176.064
  0
LINE
  8
BASE
 10
234.102
 11
233.227
 20
180.519
 21
179.643
  0
LINE
  8
BASE
 10
233.227
 11
233.227
 20
179.643
 21
172.536
  0
LINE
  8
BASE
 10
233.227
 11
234.102
 20
172.536
 21
171.66
  0
LINE
  8
BASE
 10
229.851
 11
233.227
 20
179.643
 21
179.643
  0
LINE
  8
BASE
 10
231.74
 11
232.616
 20
178.912
 21
177.278
  0
LINE
  8
BASE
 10
229.757
 11
229.63
 20
178.881
 21
178.67
  0
LINE
  8
BASE
 10
229.757
 11
229.491
 20
178.473
 21
178.155
  0
LINE
  8
BASE
 10
230.965
 11
231.168
 20
180.031
 21
179.834
  0
LINE
  8
BASE
 10
232.782
 11
232.985
 20
179.759
 21
179.91
  0
LINE
  8
BASE
 10
233.328
 11
233.493
 20
178.518
 21
178.76
  0
LINE
  8
BASE
 10
233.392
 11
233.595
 20
178.836
 21
179.199
  0
LINE
  8
BASE
 10
230.164
 11
232.045
 20
176.037
 21
173.027
  0
LINE
  8
BASE
 10
229.63
 11
229.452
 20
175.387
 21
175.19
  0
LINE
  8
BASE
 10
233.227
 11
229.851
 20
172.536
 21
172.536
  0
LINE
  8
BASE
 10
231.168
 11
231.638
 20
173.269
 21
172.588
  0
LINE
  8
BASE
 10
229.923
 11
230.266
 20
173.587
 21
173.072
  0
LINE
  8
BASE
 10
233.29
 11
233.493
 20
173.269
 21
173.027
  0
LINE
  8
BASE
 10
233.43
 11
233.633
 20
173.95
 21
173.677
  0
LINE
  8
BASE
 10
233.392
 11
233.531
 20
173.556
 21
173.435
  0
LINE
  8
BASE
 10
230.266
 11
230.494
 20
172.15
 21
172.392
  0
LINE
  8
BASE
 10
230.672
 11
230.901
 20
172.271
 21
172.467
  0
LINE
  8
BASE
 10
232.248
 11
232.388
 20
172.271
 21
172.15
  0
LINE
  8
BASE
 10
232.718
 11
232.921
 20
172.467
 21
172.316
  0
LINE
  8
BASE
 10
231.778
 11
232.184
 20
177.157
 21
176.431
  0
LINE
  8
BASE
 10
232.35
 11
232.756
 20
176.96
 21
176.234
  0
LINE
  8
BASE
 10
229.796
 11
229.529
 20
176.037
 21
175.629
  0
LINE
  8
BASE
 10
233.353
 11
233.595
 20
176.037
 21
175.841
  0
LINE
  8
BASE
 10
233.531
 11
233.658
 20
176.037
 21
176.189
  0
LINE
  8
BASE
 10
229.656
 11
229.529
 20
175.947
 21
176.068
  0
ARC
  8
BASE
 10
231.52
 20
151.174
 40
38.626
 50
77.781
 51
102.219
  0
LINE
  8
BASE
 10
223.345
 11
223.745
 20
188.925
 21
188.525
  0
ARC
  8
BASE
 10
231.508
 20
154.524
 40
34.876
 50
95.418
 51
102.861
  0
LINE
  8
BASE
 10
228.215
 11
228.215
 20
189.244
 21
181.345
  0
LINE
  8
BASE
 10
228.215
 11
223.745
 20
181.345
 21
181.345
  0
LINE
  8
BASE
 10
223.745
 11
223.745
 20
181.345
 21
188.525
  0
LINE
  8
BASE
 10
223.745
 11
224.245
 20
188.525
 21
188.124
  0
ARC
  8
BASE
 10
231.508
 20
154.524
 40
34.376
 50
96.335
 51
102.198
  0
LINE
  8
BASE
 10
227.715
 11
227.715
 20
188.69
 21
181.845
  0
LINE
  8
BASE
 10
227.715
 11
224.245
 20
181.845
 21
181.845
  0
LINE
  8
BASE
 10
224.245
 11
223.345
 20
181.845
 21
180.945
  0
LINE
  8
BASE
 10
223.345
 11
239.695
 20
180.945
 21
180.945
  0
LINE
  8
BASE
 10
239.695
 11
238.795
 20
180.945
 21
181.845
  0
LINE
  8
BASE
 10
238.795
 11
238.795
 20
181.845
 21
188.119
  0
LINE
  8
BASE
 10
238.795
 11
239.272
 20
188.119
 21
188.525
  0
LINE
  8
BASE
 10
239.272
 11
239.695
 20
188.525
 21
188.925
  0
ARC
  8
BASE
 10
231.508
 20
154.524
 40
34.376
 50
87.192
 51
92.776
  0
LINE
  8
BASE
 10
229.844
 11
229.844
 20
188.86
 21
181.962
  0
LINE
  8
BASE
 10
229.844
 11
233.192
 20
181.962
 21
181.962
  0
LINE
  8
BASE
 10
233.192
 11
234.065
 20
181.962
 21
180.945
  0
LINE
  8
BASE
 10
234.065
 11
234.065
 20
180.945
 21
189.716
  0
LINE
  8
BASE
 10
234.065
 11
233.675
 20
189.716
 21
189.333
  0
LINE
  8
BASE
 10
233.675
 11
233.192
 20
189.333
 21
188.859
  0
LINE
  8
BASE
 10
233.192
 11
233.192
 20
188.859
 21
181.962
  0
ARC
  8
BASE
 10
231.508
 20
154.524
 40
34.876
 50
86.439
 51
93.53
  0
LINE
  8
BASE
 10
229.361
 11
229.361
 20
189.334
 21
181.397
  0
LINE
  8
BASE
 10
229.361
 11
233.675
 20
181.397
 21
181.397
  0
LINE
  8
BASE
 10
233.675
 11
233.675
 20
181.397
 21
189.333
  0
ARC
  8
BASE
 10
231.508
 20
154.524
 40
34.376
 50
77.762
 51
83.625
  0
LINE
  8
BASE
 10
235.325
 11
235.325
 20
188.687
 21
181.845
  0
LINE
  8
BASE
 10
235.325
 11
238.795
 20
181.845
 21
181.845
  0
ARC
  8
BASE
 10
231.508
 20
154.524
 40
34.876
 50
77.139
 51
84.543
  0
LINE
  8
BASE
 10
234.825
 11
234.825
 20
189.242
 21
181.345
  0
LINE
  8
BASE
 10
234.825
 11
239.295
 20
181.345
 21
181.345
  0
LINE
  8
BASE
 10
239.295
 11
239.295
 20
181.345
 21
188.525
  0
LINE
  8
BASE
 10
223.345
 11
223.345
 20
193.4
 21
144.5
  0
LINE
  8
BASE
 10
223.345
 11
239.695
 20
144.5
 21
144.5
  0
LINE
  8
BASE
 10
239.695
 11
238.42
 20
144.5
 21
145.775
  0
LINE
  8
BASE
 10
238.42
 11
238.42
 20
145.775
 21
159.025
  0
LINE
  8
BASE
 10
238.42
 11
224.62
 20
159.025
 21
159.025
  0
LINE
  8
BASE
 10
224.62
 11
223.345
 20
159.025
 21
160.3
  0
LINE
  8
BASE
 10
223.345
 11
239.695
 20
160.3
 21
160.3
  0
LINE
  8
BASE
 10
239.695
 11
238.42
 20
160.3
 21
159.025
  0
LINE
  8
BASE
 10
223.345
 11
223.345
 20
140.4
 21
144.5
  0
LINE
  8
BASE
 10
223.345
 11
224.62
 20
144.5
 21
145.775
  0
LINE
  8
BASE
 10
224.62
 11
224.62
 20
145.775
 21
159.025
  0
LINE
  8
BASE
 10
223.745
 11
223.745
 20
144.9
 21
159.9
  0
LINE
  8
BASE
 10
223.745
 11
239.295
 20
159.9
 21
159.9
  0
LINE
  8
BASE
 10
239.295
 11
239.295
 20
159.9
 21
144.9
  0
LINE
  8
BASE
 10
239.295
 11
223.745
 20
144.9
 21
144.9
  0
LINE
  8
BASE
 10
239.695
 11
239.695
 20
140.4
 21
193.4
  0
LINE
  8
BASE
 10
239.695
 11
223.345
 20
162.375
 21
162.375
  0
LINE
  8
BASE
 10
223.345
 11
239.695
 20
162.375
 21
162.375
  0
LINE
  8
BASE
 10
238.42
 11
224.62
 20
145.775
 21
145.775
  0
LINE
  8
BASE
 10
220.995
 11
220.995
 20
140.4
 21
193.275
  0
LINE
  8
BASE
 10
220.995
 11
242.045
 20
193.275
 21
193.275
  0
LINE
  8
BASE
 10
242.045
 11
242.045
 20
193.275
 21
140.4
  0
LINE
  8
BASE
 10
242.17
 11
242.17
 20
140.4
 21
193.4
  0
LINE
  8
BASE
 10
242.17
 11
220.87
 20
193.4
 21
193.4
  0
LINE
  8
BASE
 10
220.87
 11
220.87
 20
193.4
 21
193.9
  0
LINE
  8
BASE
 10
244.245
 11
244.245
 20
140.4
 21
195.47
  0
LINE
  8
BASE
 10
244.245
 11
242.67
 20
195.47
 21
195.475
  0
LINE
  8
BASE
 10
242.67
 11
220.37
 20
195.475
 21
195.475
  0
LINE
  8
BASE
 10
220.37
 11
218.795
 20
195.475
 21
195.484
  0
LINE
  8
BASE
 10
218.795
 11
220.37
 20
195.484
 21
193.9
  0
LINE
  8
BASE
 10
220.37
 11
220.37
 20
193.9
 21
140.4
  0
LINE
  8
BASE
 10
220.37
 11
242.67
 20
140.4
 21
140.4
  0
LINE
  8
BASE
 10
242.67
 11
242.67
 20
140.4
 21
193.9
  0
LINE
  8
BASE
 10
242.67
 11
220.37
 20
193.9
 21
193.9
  0
LINE
  8
BASE
 10
242.17
 11
242.17
 20
193.4
 21
193.9
  0
LINE
  8
BASE
 10
242.67
 11
244.245
 20
193.9
 21
195.47
  0
LINE
  8
BASE
 10
218.795
 11
218.795
 20
140.4
 21
195.484
  0
LINE
  8
BASE
 10
220.87
 11
220.87
 20
140.4
 21
193.4
  0
LINE
  8
BASE
 10
220.37
 11
212.77
 20
140.4
 21
140.4
  0
LINE
  8
BASE
 10
228.215
 11
223.745
 20
162.775
 21
162.775
  0
LINE
  8
BASE
 10
223.745
 11
223.745
 20
162.775
 21
170.9
  0
LINE
  8
BASE
 10
223.745
 11
228.215
 20
170.9
 21
170.9
  0
LINE
  8
BASE
 10
228.215
 11
228.215
 20
170.9
 21
162.775
  0
LINE
  8
BASE
 10
239.695
 11
223.345
 20
171.3
 21
171.3
  0
LINE
  8
BASE
 10
223.345
 11
224.241
 20
171.3
 21
170.416
  0
LINE
  8
BASE
 10
224.241
 11
227.693
 20
170.416
 21
170.416
  0
LINE
  8
BASE
 10
227.693
 11
227.693
 20
170.416
 21
163.257
  0
LINE
  8
BASE
 10
227.693
 11
228.589
 20
163.257
 21
162.375
  0
LINE
  8
BASE
 10
239.695
 11
223.345
 20
171.66
 21
171.66
  0
LINE
  8
BASE
 10
223.345
 11
224.233
 20
171.66
 21
172.535
  0
LINE
  8
BASE
 10
224.233
 11
224.233
 20
172.535
 21
179.636
  0
LINE
  8
BASE
 10
224.233
 11
223.345
 20
179.636
 21
180.511
  0
LINE
  8
BASE
 10
228.215
 11
223.745
 20
172.06
 21
172.06
  0
LINE
  8
BASE
 10
223.745
 11
223.745
 20
172.06
 21
180.185
  0
LINE
  8
BASE
 10
223.745
 11
228.215
 20
180.185
 21
180.185
  0
LINE
  8
BASE
 10
228.215
 11
228.215
 20
180.185
 21
172.06
  0
LINE
  8
BASE
 10
239.695
 11
223.345
 20
180.585
 21
180.585
  0
LINE
  8
BASE
 10
224.672
 11
224.907
 20
181.448
 21
181.697
  0
LINE
  8
BASE
 10
224.567
 11
226.5
 20
185.444
 21
182.35
  0
LINE
  8
BASE
 10
224.245
 11
224.245
 20
181.845
 21
188.124
  0
LINE
  8
BASE
 10
224.188
 11
223.914
 20
185.444
 21
185.024
  0
LINE
  8
BASE
 10
224.045
 11
223.914
 20
185.351
 21
185.475
  0
LINE
  8
BASE
 10
224.319
 11
224.672
 20
182.925
 21
182.397
  0
LINE
  8
BASE
 10
224.019
 11
223.836
 20
184.776
 21
184.573
  0
LINE
  8
BASE
 10
224.149
 11
223.875
 20
187.947
 21
187.621
  0
LINE
  8
BASE
 10
228.615
 11
228.615
 20
171.3
 21
162.375
  0
LINE
  8
BASE
 10
228.975
 11
228.975
 20
171.3
 21
162.375
  0
LINE
  8
BASE
 10
228.975
 11
229.844
 20
162.375
 21
163.257
  0
LINE
  8
BASE
 10
229.844
 11
229.844
 20
163.257
 21
170.416
  0
LINE
  8
BASE
 10
229.844
 11
228.975
 20
170.416
 21
171.3
  0
LINE
  8
BASE
 10
229.844
 11
233.192
 20
170.416
 21
170.416
  0
LINE
  8
BASE
 10
233.192
 11
234.065
 20
170.416
 21
171.3
  0
LINE
  8
BASE
 10
234.065
 11
234.065
 20
171.3
 21
162.375
  0
LINE
  8
BASE
 10
234.065
 11
233.192
 20
162.375
 21
163.257
  0
LINE
  8
BASE
 10
233.192
 11
229.844
 20
163.257
 21
163.257
  0
LINE
  8
BASE
 10
234.425
 11
234.425
 20
171.3
 21
162.375
  0
LINE
  8
BASE
 10
234.425
 11
235.321
 20
162.375
 21
163.257
  0
LINE
  8
BASE
 10
235.321
 11
235.321
 20
163.257
 21
170.416
  0
LINE
  8
BASE
 10
235.321
 11
234.425
 20
170.416
 21
171.3
  0
LINE
  8
BASE
 10
239.295
 11
239.295
 20
170.9
 21
162.775
  0
LINE
  8
BASE
 10
239.295
 11
234.825
 20
162.775
 21
162.775
  0
LINE
  8
BASE
 10
234.825
 11
234.825
 20
162.775
 21
170.9
  0
LINE
  8
BASE
 10
234.825
 11
239.295
 20
170.9
 21
170.9
  0
LINE
  8
BASE
 10
229.375
 11
229.375
 20
170.9
 21
162.775
  0
LINE
  8
BASE
 10
229.375
 11
233.665
 20
162.775
 21
162.775
  0
LINE
  8
BASE
 10
233.665
 11
233.665
 20
162.775
 21
170.9
  0
LINE
  8
BASE
 10
233.665
 11
229.375
 20
170.9
 21
170.9
  0
LINE
  8
BASE
 10
235.325
 11
234.825
 20
188.687
 21
189.242
  0
LINE
  8
BASE
 10
234.825
 11
234.425
 20
189.242
 21
189.691
  0
LINE
  8
BASE
 10
234.425
 11
234.425
 20
189.691
 21
180.945
  0
LINE
  8
BASE
 10
234.425
 11
235.325
 20
180.945
 21
181.845
  0
LINE
  8
BASE
 10
229.844
 11
229.361
 20
188.86
 21
189.334
  0
LINE
  8
BASE
 10
229.361
 11
228.975
 20
189.334
 21
189.716
  0
LINE
  8
BASE
 10
228.975
 11
228.975
 20
189.716
 21
180.945
  0
LINE
  8
BASE
 10
228.975
 11
229.844
 20
180.945
 21
181.962
  0
LINE
  8
BASE
 10
227.715
 11
228.215
 20
188.69
 21
189.244
  0
LINE
  8
BASE
 10
228.215
 11
228.615
 20
189.244
 21
189.691
  0
LINE
  8
BASE
 10
228.615
 11
228.615
 20
189.691
 21
180.945
  0
LINE
  8
BASE
 10
228.615
 11
227.715
 20
180.945
 21
181.845
  0
LINE
  8
BASE
 10
239.295
 11
239.295
 20
180.185
 21
172.06
  0
LINE
  8
BASE
 10
239.295
 11
234.825
 20
172.06
 21
172.06
  0
LINE
  8
BASE
 10
234.825
 11
234.825
 20
172.06
 21
180.185
  0
LINE
  8
BASE
 10
234.825
 11
239.295
 20
180.185
 21
180.185
  0
LINE
  8
BASE
 10
233.665
 11
233.665
 20
180.185
 21
172.06
  0
LINE
  8
BASE
 10
233.665
 11
229.375
 20
172.06
 21
172.06
  0
LINE
  8
BASE
 10
229.375
 11
229.375
 20
172.06
 21
180.185
  0
LINE
  8
BASE
 10
229.375
 11
233.665
 20
180.185
 21
180.185
  0
LINE
  8
BASE
 10
234.425
 11
234.425
 20
180.585
 21
171.66
  0
LINE
  8
BASE
 10
234.425
 11
235.321
 20
171.66
 21
172.535
  0
LINE
  8
BASE
 10
235.321
 11
235.321
 20
172.535
 21
179.636
  0
LINE
  8
BASE
 10
235.321
 11
234.425
 20
179.636
 21
180.511
  0
LINE
  8
BASE
 10
234.065
 11
234.065
 20
180.585
 21
171.66
  0
LINE
  8
BASE
 10
228.975
 11
228.975
 20
180.585
 21
171.66
  0
LINE
  8
BASE
 10
228.975
 11
229.851
 20
171.66
 21
172.536
  0
LINE
  8
BASE
 10
229.851
 11
229.851
 20
172.536
 21
179.643
  0
LINE
  8
BASE
 10
229.851
 11
228.975
 20
179.643
 21
180.519
  0
LINE
  8
BASE
 10
228.615
 11
228.615
 20
180.585
 21
171.66
  0
LINE
  8
BASE
 10
236.814
 11
236.396
 20
186.595
 21
185.848
  0
LINE
  8
BASE
 10
226.226
 11
226.644
 20
186.595
 21
185.848
  0
LINE
  8
BASE
 10
231.726
 11
232.144
 20
186.695
 21
185.948
  0
LINE
  8
BASE
 10
232.692
 11
232.901
 20
181.875
 21
181.719
  0
LINE
  8
BASE
 10
229.688
 11
229.414
 20
185.544
 21
185.124
  0
LINE
  8
BASE
 10
226.813
 11
227.231
 20
186.393
 21
185.646
  0
LINE
  8
BASE
 10
227.845
 11
228.093
 20
185.444
 21
185.242
  0
LINE
  8
BASE
 10
228.028
 11
228.159
 20
185.444
 21
185.6
  0
LINE
  8
BASE
 10
226.709
 11
226.853
 20
181.573
 21
181.448
  0
LINE
  8
BASE
 10
225.599
 11
226.082
 20
182.599
 21
181.899
  0
LINE
  8
BASE
 10
225.09
 11
225.325
 20
181.573
 21
181.775
  0
LINE
  8
BASE
 10
232.209
 11
232.353
 20
181.673
 21
181.548
  0
LINE
  8
BASE
 10
230.59
 11
230.825
 20
181.673
 21
181.875
  0
LINE
  8
BASE
 10
230.172
 11
230.407
 20
181.548
 21
181.797
  0
LINE
  8
BASE
 10
229.819
 11
230.172
 20
183.025
 21
182.497
  0
LINE
  8
BASE
 10
229.519
 11
229.336
 20
184.876
 21
184.673
  0
LINE
  8
BASE
 10
227.78
 11
227.989
 20
182.599
 21
182.35
  0
LINE
  8
BASE
 10
227.924
 11
228.133
 20
183.298
 21
183.019
  0
LINE
  8
BASE
 10
227.884
 11
228.028
 20
182.894
 21
182.77
  0
LINE
  8
BASE
 10
227.192
 11
227.401
 20
181.775
 21
181.619
  0
LINE
  8
BASE
 10
230.067
 11
232.0
 20
185.544
 21
182.45
  0
LINE
  8
BASE
 10
233.528
 11
233.659
 20
185.544
 21
185.7
  0
LINE
  8
BASE
 10
233.345
 11
233.593
 20
185.544
 21
185.342
  0
LINE
  8
BASE
 10
238.995
 11
239.126
 20
185.351
 21
185.475
  0
LINE
  8
BASE
 10
235.012
 11
234.881
 20
185.444
 21
185.6
  0
LINE
  8
BASE
 10
235.195
 11
234.947
 20
185.444
 21
185.242
  0
LINE
  8
BASE
 10
238.852
 11
239.126
 20
185.444
 21
185.024
  0
LINE
  8
BASE
 10
236.227
 11
235.809
 20
186.393
 21
185.646
  0
LINE
  8
BASE
 10
233.384
 11
233.528
 20
182.994
 21
182.87
  0
LINE
  8
BASE
 10
233.424
 11
233.633
 20
183.398
 21
183.119
  0
LINE
  8
BASE
 10
233.28
 11
233.489
 20
182.699
 21
182.45
  0
LINE
  8
BASE
 10
235.848
 11
235.639
 20
181.775
 21
181.619
  0
LINE
  8
BASE
 10
236.331
 11
236.187
 20
181.573
 21
181.448
  0
LINE
  8
BASE
 10
237.95
 11
237.715
 20
181.573
 21
181.775
  0
LINE
  8
BASE
 10
238.368
 11
238.133
 20
181.448
 21
181.697
  0
LINE
  8
BASE
 10
235.156
 11
235.012
 20
182.894
 21
182.77
  0
LINE
  8
BASE
 10
235.116
 11
234.907
 20
183.298
 21
183.019
  0
LINE
  8
BASE
 10
235.26
 11
235.051
 20
182.599
 21
182.35
  0
LINE
  8
BASE
 10
239.021
 11
239.204
 20
184.776
 21
184.573
  0
LINE
  8
BASE
 10
238.721
 11
238.368
 20
182.925
 21
182.397
  0
LINE
  8
BASE
 10
237.441
 11
236.958
 20
182.599
 21
181.899
  0
LINE
  8
BASE
 10
238.473
 11
236.54
 20
185.444
 21
182.35
  0
LINE
  8
BASE
 10
226.187
 11
227.088
 20
188.398
 21
186.719
  0
LINE
  8
BASE
 10
229.649
 11
229.375
 20
188.047
 21
187.721
  0
LINE
  8
BASE
 10
231.687
 11
232.588
 20
188.498
 21
186.819
  0
LINE
  8
BASE
 10
227.819
 11
227.989
 20
187.994
 21
188.243
  0
LINE
  8
BASE
 10
227.884
 11
228.093
 20
188.321
 21
188.694
  0
LINE
  8
BASE
 10
233.384
 11
233.593
 20
188.421
 21
188.794
  0
LINE
  8
BASE
 10
233.319
 11
233.489
 20
188.094
 21
188.343
  0
LINE
  8
BASE
 10
235.156
 11
234.947
 20
188.321
 21
188.694
  0
LINE
  8
BASE
 10
235.221
 11
235.051
 20
187.994
 21
188.243
  0
LINE
  8
BASE
 10
238.891
 11
239.165
 20
187.947
 21
187.621
  0
LINE
  8
BASE
 10
236.853
 11
235.952
 20
188.398
 21
186.719
  0
LINE
  8
BASE
 10
239.695
 11
239.695
 20
189.65
 21
190.05
  0
LINE
  8
BASE
 10
239.695
 11
239.695
 20
190.05
 21
189.65
  0
LINE
  8
BASE
 10
227.693
 11
224.241
 20
163.257
 21
163.257
  0
LINE
  8
BASE
 10
224.241
 11
224.241
 20
163.257
 21
170.416
  0
LINE
  8
BASE
 10
227.693
 11
228.589
 20
170.416
 21
171.298
  0
LINE
  8
BASE
 10
226.172
 11
227.069
 20
169.679
 21
168.034
  0
LINE
  8
BASE
 10
224.145
 11
224.015
 20
169.649
 21
169.436
  0
LINE
  8
BASE
 10
224.145
 11
223.872
 20
169.237
 21
168.917
  0
LINE
  8
BASE
 10
225.38
 11
225.588
 20
170.807
 21
170.609
  0
LINE
  8
BASE
 10
227.238
 11
227.446
 20
170.533
 21
170.685
  0
LINE
  8
BASE
 10
227.797
 11
227.966
 20
169.283
 21
169.527
  0
LINE
  8
BASE
 10
227.862
 11
228.07
 20
169.603
 21
169.969
  0
LINE
  8
BASE
 10
224.561
 11
226.484
 20
166.784
 21
163.752
  0
LINE
  8
BASE
 10
224.015
 11
223.833
 20
166.129
 21
165.931
  0
LINE
  8
BASE
 10
224.241
 11
223.345
 20
163.257
 21
162.375
  0
LINE
  8
BASE
 10
225.588
 11
226.068
 20
163.996
 21
163.31
  0
LINE
  8
BASE
 10
224.314
 11
224.665
 20
164.316
 21
163.798
  0
LINE
  8
BASE
 10
227.758
 11
227.966
 20
163.996
 21
163.752
  0
LINE
  8
BASE
 10
227.901
 11
228.109
 20
164.681
 21
164.407
  0
LINE
  8
BASE
 10
227.862
 11
228.005
 20
164.285
 21
164.163
  0
LINE
  8
BASE
 10
224.665
 11
224.899
 20
162.868
 21
163.112
  0
LINE
  8
BASE
 10
225.081
 11
225.315
 20
162.99
 21
163.188
  0
LINE
  8
BASE
 10
226.692
 11
226.835
 20
162.99
 21
162.868
  0
LINE
  8
BASE
 10
227.173
 11
227.381
 20
163.188
 21
163.036
  0
LINE
  8
BASE
 10
226.211
 11
226.627
 20
167.912
 21
167.18
  0
LINE
  8
BASE
 10
226.796
 11
227.212
 20
167.714
 21
166.982
  0
LINE
  8
BASE
 10
224.184
 11
223.911
 20
166.784
 21
166.373
  0
LINE
  8
BASE
 10
227.823
 11
228.07
 20
166.784
 21
166.586
  0
LINE
  8
BASE
 10
228.005
 11
228.135
 20
166.784
 21
166.937
  0
LINE
  8
BASE
 10
224.041
 11
223.911
 20
166.693
 21
166.815
  0
LINE
  8
BASE
 10
228.547
 11
227.658
 20
180.511
 21
179.636
  0
LINE
  8
BASE
 10
227.658
 11
227.658
 20
179.636
 21
172.535
  0
LINE
  8
BASE
 10
227.658
 11
228.547
 20
172.535
 21
171.66
  0
LINE
  8
BASE
 10
224.233
 11
227.658
 20
179.636
 21
179.636
  0
LINE
  8
BASE
 10
226.15
 11
227.039
 20
178.905
 21
177.273
  0
LINE
  8
BASE
 10
224.139
 11
224.01
 20
178.875
 21
178.663
  0
LINE
  8
BASE
 10
224.139
 11
223.868
 20
178.467
 21
178.149
  0
LINE
  8
BASE
 10
225.363
 11
225.57
 20
180.024
 21
179.827
  0
LINE
  8
BASE
 10
227.207
 11
227.413
 20
179.752
 21
179.903
  0
LINE
  8
BASE
 10
227.761
 11
227.929
 20
178.512
 21
178.754
  0
LINE
  8
BASE
 10
227.825
 11
228.032
 20
178.83
 21
179.192
  0
LINE
  8
BASE
 10
224.551
 11
226.459
 20
176.033
 21
173.026
  0
LINE
  8
BASE
 10
224.01
 11
223.829
 20
175.384
 21
175.187
  0
LINE
  8
BASE
 10
227.658
 11
224.233
 20
172.535
 21
172.535
  0
LINE
  8
BASE
 10
225.57
 11
226.047
 20
173.268
 21
172.587
  0
LINE
  8
BASE
 10
224.306
 11
224.654
 20
173.585
 21
173.071
  0
LINE
  8
BASE
 10
227.722
 11
227.929
 20
173.268
 21
173.026
  0
LINE
  8
BASE
 10
227.864
 11
228.07
 20
173.948
 21
173.676
  0
LINE
  8
BASE
 10
227.825
 11
227.967
 20
173.555
 21
173.434
  0
LINE
  8
BASE
 10
224.654
 11
224.886
 20
172.149
 21
172.391
  0
LINE
  8
BASE
 10
225.067
 11
225.299
 20
172.27
 21
172.466
  0
LINE
  8
BASE
 10
226.665
 11
226.807
 20
172.27
 21
172.149
  0
LINE
  8
BASE
 10
227.142
 11
227.349
 20
172.466
 21
172.315
  0
LINE
  8
BASE
 10
226.188
 11
226.601
 20
177.152
 21
176.426
  0
LINE
  8
BASE
 10
226.768
 11
227.181
 20
176.955
 21
176.23
  0
LINE
  8
BASE
 10
224.177
 11
223.907
 20
176.033
 21
175.625
  0
LINE
  8
BASE
 10
227.787
 11
228.032
 20
176.033
 21
175.837
  0
LINE
  8
BASE
 10
227.967
 11
228.096
 20
176.033
 21
176.185
  0
LINE
  8
BASE
 10
224.036
 11
223.907
 20
175.943
 21
176.064
  0
LINE
  8
BASE
 10
239.669
 11
238.773
 20
171.298
 21
170.416
  0
LINE
  8
BASE
 10
238.773
 11
238.773
 20
170.416
 21
163.257
  0
LINE
  8
BASE
 10
238.773
 11
239.669
 20
163.257
 21
162.375
  0
LINE
  8
BASE
 10
235.321
 11
238.773
 20
170.416
 21
170.416
  0
LINE
  8
BASE
 10
237.252
 11
238.149
 20
169.679
 21
168.034
  0
LINE
  8
BASE
 10
235.225
 11
235.095
 20
169.649
 21
169.436
  0
LINE
  8
BASE
 10
235.225
 11
234.952
 20
169.237
 21
168.917
  0
LINE
  8
BASE
 10
236.46
 11
236.668
 20
170.807
 21
170.609
  0
LINE
  8
BASE
 10
238.318
 11
238.526
 20
170.533
 21
170.685
  0
LINE
  8
BASE
 10
238.877
 11
239.046
 20
169.283
 21
169.527
  0
LINE
  8
BASE
 10
238.942
 11
239.15
 20
169.603
 21
169.969
  0
LINE
  8
BASE
 10
235.641
 11
237.564
 20
166.784
 21
163.752
  0
LINE
  8
BASE
 10
235.095
 11
234.913
 20
166.129
 21
165.931
  0
LINE
  8
BASE
 10
238.773
 11
235.321
 20
163.257
 21
163.257
  0
LINE
  8
BASE
 10
236.668
 11
237.148
 20
163.996
 21
163.31
  0
LINE
  8
BASE
 10
235.394
 11
235.745
 20
164.316
 21
163.798
  0
LINE
  8
BASE
 10
238.838
 11
239.046
 20
163.996
 21
163.752
  0
LINE
  8
BASE
 10
238.981
 11
239.189
 20
164.681
 21
164.407
  0
LINE
  8
BASE
 10
238.942
 11
239.085
 20
164.285
 21
164.163
  0
LINE
  8
BASE
 10
235.745
 11
235.979
 20
162.868
 21
163.112
  0
LINE
  8
BASE
 10
236.161
 11
236.395
 20
162.99
 21
163.188
  0
LINE
  8
BASE
 10
237.772
 11
237.915
 20
162.99
 21
162.868
  0
LINE
  8
BASE
 10
238.253
 11
238.461
 20
163.188
 21
163.036
  0
LINE
  8
BASE
 10
237.291
 11
237.707
 20
167.912
 21
167.18
  0
LINE
  8
BASE
 10
237.876
 11
238.292
 20
167.714
 21
166.982
  0
LINE
  8
BASE
 10
235.264
 11
234.991
 20
166.784
 21
166.373
  0
LINE
  8
BASE
 10
238.903
 11
239.15
 20
166.784
 21
166.586
  0
LINE
  8
BASE
 10
239.085
 11
239.215
 20
166.784
 21
166.937
  0
LINE
  8
BASE
 10
235.121
 11
234.991
 20
166.693
 21
166.815
  0
LINE
  8
BASE
 10
233.192
 11
233.192
 20
170.416
 21
163.257
  0
LINE
  8
BASE
 10
231.717
 11
232.587
 20
169.679
 21
168.034
  0
LINE
  8
BASE
 10
229.751
 11
229.625
 20
169.649
 21
169.436
  0
LINE
  8
BASE
 10
229.751
 11
229.486
 20
169.237
 21
168.917
  0
LINE
  8
BASE
 10
230.948
 11
231.15
 20
170.807
 21
170.609
  0
LINE
  8
BASE
 10
232.751
 11
232.952
 20
170.533
 21
170.685
  0
LINE
  8
BASE
 10
233.293
 11
233.456
 20
169.283
 21
169.527
  0
LINE
  8
BASE
 10
233.356
 11
233.557
 20
169.603
 21
169.969
  0
LINE
  8
BASE
 10
230.154
 11
232.02
 20
166.784
 21
163.752
  0
LINE
  8
BASE
 10
229.625
 11
229.449
 20
166.129
 21
165.931
  0
LINE
  8
BASE
 10
231.15
 11
231.616
 20
163.996
 21
163.31
  0
LINE
  8
BASE
 10
229.915
 11
230.255
 20
164.316
 21
163.798
  0
LINE
  8
BASE
 10
233.255
 11
233.456
 20
163.996
 21
163.752
  0
LINE
  8
BASE
 10
233.393
 11
233.595
 20
164.681
 21
164.407
  0
LINE
  8
BASE
 10
233.356
 11
233.494
 20
164.285
 21
164.163
  0
LINE
  8
BASE
 10
230.255
 11
230.482
 20
162.868
 21
163.112
  0
LINE
  8
BASE
 10
230.658
 11
230.885
 20
162.99
 21
163.188
  0
LINE
  8
BASE
 10
232.221
 11
232.36
 20
162.99
 21
162.868
  0
LINE
  8
BASE
 10
232.688
 11
232.889
 20
163.188
 21
163.036
  0
LINE
  8
BASE
 10
231.755
 11
232.158
 20
167.912
 21
167.18
  0
LINE
  8
BASE
 10
232.322
 11
232.725
 20
167.714
 21
166.982
  0
LINE
  8
BASE
 10
229.789
 11
229.524
 20
166.784
 21
166.373
  0
LINE
  8
BASE
 10
233.318
 11
233.557
 20
166.784
 21
166.586
  0
LINE
  8
BASE
 10
233.494
 11
233.62
 20
166.784
 21
166.937
  0
LINE
  8
BASE
 10
229.65
 11
229.524
 20
166.693
 21
166.815
  0
LINE
  8
BASE
 10
239.67
 11
238.774
 20
180.511
 21
179.636
  0
LINE
  8
BASE
 10
238.774
 11
238.774
 20
179.636
 21
172.535
  0
LINE
  8
BASE
 10
238.774
 11
239.67
 20
172.535
 21
171.66
  0
LINE
  8
BASE
 10
235.321
 11
238.774
 20
179.636
 21
179.636
  0
LINE
  8
BASE
 10
237.253
 11
238.15
 20
178.905
 21
177.273
  0
LINE
  8
BASE
 10
235.225
 11
235.095
 20
178.875
 21
178.663
  0
LINE
  8
BASE
 10
235.225
 11
234.952
 20
178.467
 21
178.149
  0
LINE
  8
BASE
 10
236.46
 11
236.668
 20
180.024
 21
179.827
  0
LINE
  8
BASE
 10
238.319
 11
238.527
 20
179.752
 21
179.903
  0
LINE
  8
BASE
 10
238.878
 11
239.046
 20
178.512
 21
178.754
  0
LINE
  8
BASE
 10
238.943
 11
239.15
 20
178.83
 21
179.192
  0
LINE
  8
BASE
 10
235.641
 11
237.565
 20
176.033
 21
173.026
  0
LINE
  8
BASE
 10
235.095
 11
234.913
 20
175.384
 21
175.187
  0
LINE
  8
BASE
 10
238.774
 11
235.321
 20
172.535
 21
172.535
  0
LINE
  8
BASE
 10
236.668
 11
237.149
 20
173.268
 21
172.587
  0
LINE
  8
BASE
 10
235.394
 11
235.745
 20
173.585
 21
173.071
  0
LINE
  8
BASE
 10
238.839
 11
239.046
 20
173.268
 21
173.026
  0
LINE
  8
BASE
 10
238.982
 11
239.189
 20
173.948
 21
173.676
  0
LINE
  8
BASE
 10
238.943
 11
239.085
 20
173.555
 21
173.434
  0
LINE
  8
BASE
 10
235.745
 11
235.979
 20
172.149
 21
172.391
  0
LINE
  8
BASE
 10
236.161
 11
236.395
 20
172.27
 21
172.466
  0
LINE
  8
BASE
 10
237.773
 11
237.916
 20
172.27
 21
172.149
  0
LINE
  8
BASE
 10
238.254
 11
238.462
 20
172.466
 21
172.315
  0
LINE
  8
BASE
 10
237.292
 11
237.708
 20
177.152
 21
176.426
  0
LINE
  8
BASE
 10
237.877
 11
238.293
 20
176.955
 21
176.23
  0
LINE
  8
BASE
 10
235.264
 11
234.991
 20
176.033
 21
175.625
  0
LINE
  8
BASE
 10
238.904
 11
239.15
 20
176.033
 21
175.837
  0
LINE
  8
BASE
 10
239.085
 11
239.215
 20
176.033
 21
176.185
  0
LINE
  8
BASE
 10
235.121
 11
234.991
 20
175.943
 21
176.064
  0
LINE
  8
BASE
 10
234.102
 11
233.227
 20
180.519
 21
179.643
  0
LINE
  8
BASE
 10
233.227
 11
233.227
 20
179.643
 21
172.536
  0
LINE
  8
BASE
 10
233.227
 11
234.102
 20
172.536
 21
171.66
  0
LINE
  8
BASE
 10
229.851
 11
233.227
 20
179.643
 21
179.643
  0
LINE
  8
BASE
 10
231.74
 11
232.616
 20
178.912
 21
177.278
  0
LINE
  8
BASE
 10
229.757
 11
229.63
 20
178.881
 21
178.67
  0
LINE
  8
BASE
 10
229.757
 11
229.491
 20
178.473
 21
178.155
  0
LINE
  8
BASE
 10
230.965
 11
231.168
 20
180.031
 21
179.834
  0
LINE
  8
BASE
 10
232.782
 11
232.985
 20
179.759
 21
179.91
  0
LINE
  8
BASE
 10
233.328
 11
233.493
 20
178.518
 21
178.76
  0
LINE
  8
BASE
 10
233.392
 11
233.595
 20
178.836
 21
179.199
  0
LINE
  8
BASE
 10
230.164
 11
232.045
 20
176.037
 21
173.027
  0
LINE
  8
BASE
 10
229.63
 11
229.452
 20
175.387
 21
175.19
  0
LINE
  8
BASE
 10
233.227
 11
229.851
 20
172.536
 21
172.536
  0
LINE
  8
BASE
 10
231.168
 11
231.638
 20
173.269
 21
172.588
  0
LINE
  8
BASE
 10
229.923
 11
230.266
 20
173.587
 21
173.072
  0
LINE
  8
BASE
 10
233.29
 11
233.493
 20
173.269
 21
173.027
  0
LINE
  8
BASE
 10
233.43
 11
233.633
 20
173.95
 21
173.677
  0
LINE
  8
BASE
 10
233.392
 11
233.531
 20
173.556
 21
173.435
  0
LINE
  8
BASE
 10
230.266
 11
230.494
 20
172.15
 21
172.392
  0
LINE
  8
BASE
 10
230.672
 11
230.901
 20
172.271
 21
172.467
  0
LINE
  8
BASE
 10
232.248
 11
232.388
 20
172.271
 21
172.15
  0
LINE
  8
BASE
 10
232.718
 11
232.921
 20
172.467
 21
172.316
  0
LINE
  8
BASE
 10
231.778
 11
232.184
 20
177.157
 21
176.431
  0
LINE
  8
BASE
 10
232.35
 11
232.756
 20
176.96
 21
176.234
  0
LINE
  8
BASE
 10
229.796
 11
229.529
 20
176.037
 21
175.629
  0
LINE
  8
BASE
 10
233.353
 11
233.595
 20
176.037
 21
175.841
  0
LINE
  8
BASE
 10
233.531
 11
233.658
 20
176.037
 21
176.189
  0
LINE
  8
BASE
 10
229.656
 11
229.529
 20
175.947
 21
176.068
  0
ARC
  8
BASE
 10
231.52
 20
151.174
 40
38.626
 50
77.781
 51
102.219
  0
LINE
  8
BASE
 10
223.345
 11
223.745
 20
188.925
 21
188.525
  0
ARC
  8
BASE
 10
231.508
 20
154.524
 40
34.876
 50
95.418
 51
102.861
  0
LINE
  8
BASE
 10
228.215
 11
228.215
 20
189.244
 21
181.345
  0
LINE
  8
BASE
 10
228.215
 11
223.745
 20
181.345
 21
181.345
  0
LINE
  8
BASE
 10
223.745
 11
223.745
 20
181.345
 21
188.525
  0
LINE
  8
BASE
 10
223.745
 11
224.245
 20
188.525
 21
188.124
  0
ARC
  8
BASE
 10
231.508
 20
154.524
 40
34.376
 50
96.335
 51
102.198
  0
LINE
  8
BASE
 10
227.715
 11
227.715
 20
188.69
 21
181.845
  0
LINE
  8
BASE
 10
227.715
 11
224.245
 20
181.845
 21
181.845
  0
LINE
  8
BASE
 10
224.245
 11
223.345
 20
181.845
 21
180.945
  0
LINE
  8
BASE
 10
223.345
 11
239.695
 20
180.945
 21
180.945
  0
LINE
  8
BASE
 10
239.695
 11
238.795
 20
180.945
 21
181.845
  0
LINE
  8
BASE
 10
238.795
 11
238.795
 20
181.845
 21
188.119
  0
LINE
  8
BASE
 10
238.795
 11
239.272
 20
188.119
 21
188.525
  0
LINE
  8
BASE
 10
239.272
 11
239.695
 20
188.525
 21
188.925
  0
ARC
  8
BASE
 10
231.508
 20
154.524
 40
34.376
 50
87.192
 51
92.776
  0
LINE
  8
BASE
 10
229.844
 11
229.844
 20
188.86
 21
181.962
  0
LINE
  8
BASE
 10
229.844
 11
233.192
 20
181.962
 21
181.962
  0
LINE
  8
BASE
 10
233.192
 11
234.065
 20
181.962
 21
180.945
  0
LINE
  8
BASE
 10
234.065
 11
234.065
 20
180.945
 21
189.716
  0
LINE
  8
BASE
 10
234.065
 11
233.675
 20
189.716
 21
189.333
  0
LINE
  8
BASE
 10
233.675
 11
233.192
 20
189.333
 21
188.859
  0
LINE
  8
BASE
 10
233.192
 11
233.192
 20
188.859
 21
181.962
  0
ARC
  8
BASE
 10
231.508
 20
154.524
 40
34.876
 50
86.439
 51
93.53
  0
LINE
  8
BASE
 10
229.361
 11
229.361
 20
189.334
 21
181.397
  0
LINE
  8
BASE
 10
229.361
 11
233.675
 20
181.397
 21
181.397
  0
LINE
  8
BASE
 10
233.675
 11
233.675
 20
181.397
 21
189.333
  0
ARC
  8
BASE
 10
231.508
 20
154.524
 40
34.376
 50
77.762
 51
83.625
  0
LINE
  8
BASE
 10
235.325
 11
235.325
 20
188.687
 21
181.845
  0
LINE
  8
BASE
 10
235.325
 11
238.795
 20
181.845
 21
181.845
  0
ARC
  8
BASE
 10
231.508
 20
154.524
 40
34.876
 50
77.139
 51
84.543
  0
LINE
  8
BASE
 10
234.825
 11
234.825
 20
189.242
 21
181.345
  0
LINE
  8
BASE
 10
234.825
 11
239.295
 20
181.345
 21
181.345
  0
LINE
  8
BASE
 10
239.295
 11
239.295
 20
181.345
 21
188.525
  0
LINE
  8
BASE
 10
223.345
 11
223.345
 20
193.4
 21
144.5
  0
LINE
  8
BASE
 10
223.345
 11
239.695
 20
144.5
 21
144.5
  0
LINE
  8
BASE
 10
239.695
 11
238.42
 20
144.5
 21
145.775
  0
LINE
  8
BASE
 10
238.42
 11
238.42
 20
145.775
 21
159.025
  0
LINE
  8
BASE
 10
238.42
 11
224.62
 20
159.025
 21
159.025
  0
LINE
  8
BASE
 10
224.62
 11
223.345
 20
159.025
 21
160.3
  0
LINE
  8
BASE
 10
223.345
 11
239.695
 20
160.3
 21
160.3
  0
LINE
  8
BASE
 10
239.695
 11
238.42
 20
160.3
 21
159.025
  0
LINE
  8
BASE
 10
223.345
 11
223.345
 20
140.4
 21
144.5
  0
LINE
  8
BASE
 10
223.345
 11
224.62
 20
144.5
 21
145.775
  0
LINE
  8
BASE
 10
224.62
 11
224.62
 20
145.775
 21
159.025
  0
LINE
  8
BASE
 10
223.745
 11
223.745
 20
144.9
 21
159.9
  0
LINE
  8
BASE
 10
223.745
 11
239.295
 20
159.9
 21
159.9
  0
LINE
  8
BASE
 10
239.295
 11
239.295
 20
159.9
 21
144.9
  0
LINE
  8
BASE
 10
239.295
 11
223.745
 20
144.9
 21
144.9
  0
LINE
  8
BASE
 10
239.695
 11
239.695
 20
140.4
 21
193.4
  0
LINE
  8
BASE
 10
239.695
 11
223.345
 20
162.375
 21
162.375
  0
LINE
  8
BASE
 10
223.345
 11
239.695
 20
162.375
 21
162.375
  0
LINE
  8
BASE
 10
238.42
 11
224.62
 20
145.775
 21
145.775
  0
LINE
  8
BASE
 10
220.995
 11
220.995
 20
140.4
 21
193.275
  0
LINE
  8
BASE
 10
220.995
 11
242.045
 20
193.275
 21
193.275
  0
LINE
  8
BASE
 10
242.045
 11
242.045
 20
193.275
 21
140.4
  0
LINE
  8
BASE
 10
242.17
 11
242.17
 20
140.4
 21
193.4
  0
LINE
  8
BASE
 10
242.17
 11
220.87
 20
193.4
 21
193.4
  0
LINE
  8
BASE
 10
220.87
 11
220.87
 20
193.4
 21
193.9
  0
LINE
  8
BASE
 10
244.245
 11
244.245
 20
140.4
 21
195.47
  0
LINE
  8
BASE
 10
244.245
 11
242.67
 20
195.47
 21
195.475
  0
LINE
  8
BASE
 10
242.67
 11
220.37
 20
195.475
 21
195.475
  0
LINE
  8
BASE
 10
220.37
 11
218.795
 20
195.475
 21
195.484
  0
LINE
  8
BASE
 10
218.795
 11
220.37
 20
195.484
 21
193.9
  0
LINE
  8
BASE
 10
220.37
 11
220.37
 20
193.9
 21
140.4
  0
LINE
  8
BASE
 10
220.37
 11
242.67
 20
140.4
 21
140.4
  0
LINE
  8
BASE
 10
242.67
 11
242.67
 20
140.4
 21
193.9
  0
LINE
  8
BASE
 10
242.67
 11
220.37
 20
193.9
 21
193.9
  0
LINE
  8
BASE
 10
242.17
 11
242.17
 20
193.4
 21
193.9
  0
LINE
  8
BASE
 10
242.67
 11
244.245
 20
193.9
 21
195.47
  0
LINE
  8
BASE
 10
218.795
 11
218.795
 20
140.4
 21
195.484
  0
LINE
  8
BASE
 10
220.87
 11
220.87
 20
140.4
 21
193.4
  0
LINE
  8
BASE
 10
220.37
 11
212.77
 20
140.4
 21
140.4
  0
LINE
  8
BASE
 10
228.215
 11
223.745
 20
162.775
 21
162.775
  0
LINE
  8
BASE
 10
223.745
 11
223.745
 20
162.775
 21
170.9
  0
LINE
  8
BASE
 10
223.745
 11
228.215
 20
170.9
 21
170.9
  0
LINE
  8
BASE
 10
228.215
 11
228.215
 20
170.9
 21
162.775
  0
LINE
  8
BASE
 10
239.695
 11
223.345
 20
171.3
 21
171.3
  0
LINE
  8
BASE
 10
223.345
 11
224.241
 20
171.3
 21
170.416
  0
LINE
  8
BASE
 10
224.241
 11
227.693
 20
170.416
 21
170.416
  0
LINE
  8
BASE
 10
227.693
 11
227.693
 20
170.416
 21
163.257
  0
LINE
  8
BASE
 10
227.693
 11
228.589
 20
163.257
 21
162.375
  0
LINE
  8
BASE
 10
239.695
 11
223.345
 20
171.66
 21
171.66
  0
LINE
  8
BASE
 10
223.345
 11
224.233
 20
171.66
 21
172.535
  0
LINE
  8
BASE
 10
224.233
 11
224.233
 20
172.535
 21
179.636
  0
LINE
  8
BASE
 10
224.233
 11
223.345
 20
179.636
 21
180.511
  0
LINE
  8
BASE
 10
228.215
 11
223.745
 20
172.06
 21
172.06
  0
LINE
  8
BASE
 10
223.745
 11
223.745
 20
172.06
 21
180.185
  0
LINE
  8
BASE
 10
223.745
 11
228.215
 20
180.185
 21
180.185
  0
LINE
  8
BASE
 10
228.215
 11
228.215
 20
180.185
 21
172.06
  0
LINE
  8
BASE
 10
239.695
 11
223.345
 20
180.585
 21
180.585
  0
LINE
  8
BASE
 10
224.672
 11
224.907
 20
181.448
 21
181.697
  0
LINE
  8
BASE
 10
224.567
 11
226.5
 20
185.444
 21
182.35
  0
LINE
  8
BASE
 10
224.245
 11
224.245
 20
181.845
 21
188.124
  0
LINE
  8
BASE
 10
224.188
 11
223.914
 20
185.444
 21
185.024
  0
LINE
  8
BASE
 10
224.045
 11
223.914
 20
185.351
 21
185.475
  0
LINE
  8
BASE
 10
224.319
 11
224.672
 20
182.925
 21
182.397
  0
LINE
  8
BASE
 10
224.019
 11
223.836
 20
184.776
 21
184.573
  0
LINE
  8
BASE
 10
224.149
 11
223.875
 20
187.947
 21
187.621
  0
LINE
  8
BASE
 10
228.615
 11
228.615
 20
171.3
 21
162.375
  0
LINE
  8
BASE
 10
228.975
 11
228.975
 20
171.3
 21
162.375
  0
LINE
  8
BASE
 10
228.975
 11
229.844
 20
162.375
 21
163.257
  0
LINE
  8
BASE
 10
229.844
 11
229.844
 20
163.257
 21
170.416
  0
LINE
  8
BASE
 10
229.844
 11
228.975
 20
170.416
 21
171.3
  0
LINE
  8
BASE
 10
229.844
 11
233.192
 20
170.416
 21
170.416
  0
LINE
  8
BASE
 10
233.192
 11
234.065
 20
170.416
 21
171.3
  0
LINE
  8
BASE
 10
234.065
 11
234.065
 20
171.3
 21
162.375
  0
LINE
  8
BASE
 10
234.065
 11
233.192
 20
162.375
 21
163.257
  0
LINE
  8
BASE
 10
233.192
 11
229.844
 20
163.257
 21
163.257
  0
LINE
  8
BASE
 10
234.425
 11
234.425
 20
171.3
 21
162.375
  0
LINE
  8
BASE
 10
234.425
 11
235.321
 20
162.375
 21
163.257
  0
LINE
  8
BASE
 10
235.321
 11
235.321
 20
163.257
 21
170.416
  0
LINE
  8
BASE
 10
235.321
 11
234.425
 20
170.416
 21
171.3
  0
LINE
  8
BASE
 10
239.295
 11
239.295
 20
170.9
 21
162.775
  0
LINE
  8
BASE
 10
239.295
 11
234.825
 20
162.775
 21
162.775
  0
LINE
  8
BASE
 10
234.825
 11
234.825
 20
162.775
 21
170.9
  0
LINE
  8
BASE
 10
234.825
 11
239.295
 20
170.9
 21
170.9
  0
LINE
  8
BASE
 10
229.375
 11
229.375
 20
170.9
 21
162.775
  0
LINE
  8
BASE
 10
229.375
 11
233.665
 20
162.775
 21
162.775
  0
LINE
  8
BASE
 10
233.665
 11
233.665
 20
162.775
 21
170.9
  0
LINE
  8
BASE
 10
233.665
 11
229.375
 20
170.9
 21
170.9
  0
LINE
  8
BASE
 10
235.325
 11
234.825
 20
188.687
 21
189.242
  0
LINE
  8
BASE
 10
234.825
 11
234.425
 20
189.242
 21
189.691
  0
LINE
  8
BASE
 10
234.425
 11
234.425
 20
189.691
 21
180.945
  0
LINE
  8
BASE
 10
234.425
 11
235.325
 20
180.945
 21
181.845
  0
LINE
  8
BASE
 10
229.844
 11
229.361
 20
188.86
 21
189.334
  0
LINE
  8
BASE
 10
229.361
 11
228.975
 20
189.334
 21
189.716
  0
LINE
  8
BASE
 10
228.975
 11
228.975
 20
189.716
 21
180.945
  0
LINE
  8
BASE
 10
228.975
 11
229.843
 20
180.945
 21
181.962
  0
LINE
  8
BASE
 10
227.715
 11
228.215
 20
188.69
 21
189.244
  0
LINE
  8
BASE
 10
228.215
 11
228.615
 20
189.244
 21
189.691
  0
LINE
  8
BASE
 10
228.615
 11
228.615
 20
189.691
 21
180.945
  0
LINE
  8
BASE
 10
228.615
 11
227.715
 20
180.945
 21
181.845
  0
LINE
  8
BASE
 10
239.295
 11
239.295
 20
180.185
 21
172.06
  0
LINE
  8
BASE
 10
239.295
 11
234.825
 20
172.06
 21
172.06
  0
LINE
  8
BASE
 10
234.825
 11
234.825
 20
172.06
 21
180.185
  0
LINE
  8
BASE
 10
234.825
 11
239.295
 20
180.185
 21
180.185
  0
LINE
  8
BASE
 10
233.665
 11
233.665
 20
180.185
 21
172.06
  0
LINE
  8
BASE
 10
233.665
 11
229.375
 20
172.06
 21
172.06
  0
LINE
  8
BASE
 10
229.375
 11
229.375
 20
172.06
 21
180.185
  0
LINE
  8
BASE
 10
229.375
 11
233.665
 20
180.185
 21
180.185
  0
LINE
  8
BASE
 10
234.425
 11
234.425
 20
180.585
 21
171.66
  0
LINE
  8
BASE
 10
234.425
 11
235.321
 20
171.66
 21
172.535
  0
LINE
  8
BASE
 10
235.321
 11
235.321
 20
172.535
 21
179.636
  0
LINE
  8
BASE
 10
235.321
 11
234.425
 20
179.636
 21
180.511
  0
LINE
  8
BASE
 10
234.065
 11
234.065
 20
180.585
 21
171.66
  0
LINE
  8
BASE
 10
228.975
 11
228.975
 20
180.585
 21
171.66
  0
LINE
  8
BASE
 10
228.975
 11
229.851
 20
171.66
 21
172.536
  0
LINE
  8
BASE
 10
229.851
 11
229.851
 20
172.536
 21
179.643
  0
LINE
  8
BASE
 10
229.851
 11
228.975
 20
179.643
 21
180.519
  0
LINE
  8
BASE
 10
228.615
 11
228.615
 20
180.585
 21
171.66
  0
LINE
  8
BASE
 10
236.814
 11
236.396
 20
186.595
 21
185.848
  0
LINE
  8
BASE
 10
226.226
 11
226.644
 20
186.595
 21
185.848
  0
LINE
  8
BASE
 10
231.726
 11
232.144
 20
186.695
 21
185.948
  0
LINE
  8
BASE
 10
232.692
 11
232.901
 20
181.875
 21
181.719
  0
LINE
  8
BASE
 10
229.688
 11
229.414
 20
185.544
 21
185.124
  0
LINE
  8
BASE
 10
226.813
 11
227.231
 20
186.393
 21
185.646
  0
LINE
  8
BASE
 10
227.845
 11
228.093
 20
185.444
 21
185.242
  0
LINE
  8
BASE
 10
228.028
 11
228.159
 20
185.444
 21
185.6
  0
LINE
  8
BASE
 10
226.709
 11
226.853
 20
181.573
 21
181.448
  0
LINE
  8
BASE
 10
225.599
 11
226.082
 20
182.599
 21
181.899
  0
LINE
  8
BASE
 10
225.09
 11
225.325
 20
181.573
 21
181.775
  0
LINE
  8
BASE
 10
232.209
 11
232.353
 20
181.673
 21
181.548
  0
LINE
  8
BASE
 10
230.59
 11
230.825
 20
181.673
 21
181.875
  0
LINE
  8
BASE
 10
230.172
 11
230.407
 20
181.548
 21
181.797
  0
LINE
  8
BASE
 10
229.819
 11
230.172
 20
183.025
 21
182.497
  0
LINE
  8
BASE
 10
229.519
 11
229.336
 20
184.876
 21
184.673
  0
LINE
  8
BASE
 10
227.78
 11
227.989
 20
182.599
 21
182.35
  0
LINE
  8
BASE
 10
227.924
 11
228.133
 20
183.298
 21
183.019
  0
LINE
  8
BASE
 10
227.884
 11
228.028
 20
182.894
 21
182.77
  0
LINE
  8
BASE
 10
227.192
 11
227.401
 20
181.775
 21
181.619
  0
LINE
  8
BASE
 10
230.067
 11
232.0
 20
185.544
 21
182.45
  0
LINE
  8
BASE
 10
233.528
 11
233.659
 20
185.544
 21
185.7
  0
LINE
  8
BASE
 10
233.345
 11
233.593
 20
185.544
 21
185.342
  0
LINE
  8
BASE
 10
238.995
 11
239.126
 20
185.351
 21
185.475
  0
LINE
  8
BASE
 10
235.012
 11
234.881
 20
185.444
 21
185.6
  0
LINE
  8
BASE
 10
235.195
 11
234.947
 20
185.444
 21
185.242
  0
LINE
  8
BASE
 10
238.852
 11
239.126
 20
185.444
 21
185.024
  0
LINE
  8
BASE
 10
236.227
 11
235.809
 20
186.393
 21
185.646
  0
LINE
  8
BASE
 10
233.384
 11
233.528
 20
182.994
 21
182.87
  0
LINE
  8
BASE
 10
233.424
 11
233.633
 20
183.398
 21
183.119
  0
LINE
  8
BASE
 10
233.28
 11
233.489
 20
182.699
 21
182.45
  0
LINE
  8
BASE
 10
235.848
 11
235.639
 20
181.775
 21
181.619
  0
LINE
  8
BASE
 10
236.331
 11
236.187
 20
181.573
 21
181.448
  0
LINE
  8
BASE
 10
237.95
 11
237.715
 20
181.573
 21
181.775
  0
LINE
  8
BASE
 10
238.368
 11
238.133
 20
181.448
 21
181.697
  0
LINE
  8
BASE
 10
235.156
 11
235.012
 20
182.894
 21
182.77
  0
LINE
  8
BASE
 10
235.116
 11
234.907
 20
183.298
 21
183.019
  0
LINE
  8
BASE
 10
235.26
 11
235.051
 20
182.599
 21
182.35
  0
LINE
  8
BASE
 10
239.021
 11
239.204
 20
184.776
 21
184.573
  0
LINE
  8
BASE
 10
238.721
 11
238.368
 20
182.925
 21
182.397
  0
LINE
  8
BASE
 10
237.441
 11
236.958
 20
182.599
 21
181.899
  0
LINE
  8
BASE
 10
238.473
 11
236.54
 20
185.444
 21
182.35
  0
LINE
  8
BASE
 10
226.187
 11
227.088
 20
188.398
 21
186.719
  0
LINE
  8
BASE
 10
229.649
 11
229.375
 20
188.047
 21
187.721
  0
LINE
  8
BASE
 10
231.687
 11
232.588
 20
188.498
 21
186.819
  0
LINE
  8
BASE
 10
227.819
 11
227.989
 20
187.994
 21
188.243
  0
LINE
  8
BASE
 10
227.884
 11
228.093
 20
188.321
 21
188.694
  0
LINE
  8
BASE
 10
233.384
 11
233.593
 20
188.421
 21
188.794
  0
LINE
  8
BASE
 10
233.319
 11
233.489
 20
188.094
 21
188.343
  0
LINE
  8
BASE
 10
235.156
 11
234.947
 20
188.321
 21
188.694
  0
LINE
  8
BASE
 10
235.221
 11
235.051
 20
187.994
 21
188.243
  0
LINE
  8
BASE
 10
238.891
 11
239.165
 20
187.947
 21
187.621
  0
LINE
  8
BASE
 10
236.853
 11
235.952
 20
188.398
 21
186.719
  0
LINE
  8
BASE
 10
239.695
 11
239.695
 20
189.65
 21
190.05
  0
LINE
  8
BASE
 10
239.695
 11
239.695
 20
190.05
 21
189.65
  0
LINE
  8
BASE
 10
227.693
 11
224.241
 20
163.257
 21
163.257
  0
LINE
  8
BASE
 10
224.241
 11
224.241
 20
163.257
 21
170.416
  0
LINE
  8
BASE
 10
227.693
 11
228.589
 20
170.416
 21
171.298
  0
LINE
  8
BASE
 10
226.172
 11
227.069
 20
169.679
 21
168.034
  0
LINE
  8
BASE
 10
224.145
 11
224.015
 20
169.649
 21
169.436
  0
LINE
  8
BASE
 10
224.145
 11
223.872
 20
169.237
 21
168.917
  0
LINE
  8
BASE
 10
225.38
 11
225.588
 20
170.807
 21
170.609
  0
LINE
  8
BASE
 10
227.238
 11
227.446
 20
170.533
 21
170.685
  0
LINE
  8
BASE
 10
227.797
 11
227.966
 20
169.283
 21
169.527
  0
LINE
  8
BASE
 10
227.862
 11
228.07
 20
169.603
 21
169.969
  0
LINE
  8
BASE
 10
224.561
 11
226.484
 20
166.784
 21
163.752
  0
LINE
  8
BASE
 10
224.015
 11
223.833
 20
166.129
 21
165.931
  0
LINE
  8
BASE
 10
224.241
 11
223.345
 20
163.257
 21
162.375
  0
LINE
  8
BASE
 10
225.588
 11
226.068
 20
163.996
 21
163.31
  0
LINE
  8
BASE
 10
224.314
 11
224.665
 20
164.316
 21
163.798
  0
LINE
  8
BASE
 10
227.758
 11
227.966
 20
163.996
 21
163.752
  0
LINE
  8
BASE
 10
227.901
 11
228.109
 20
164.681
 21
164.407
  0
LINE
  8
BASE
 10
227.862
 11
228.005
 20
164.285
 21
164.163
  0
LINE
  8
BASE
 10
224.665
 11
224.899
 20
162.868
 21
163.112
  0
LINE
  8
BASE
 10
225.081
 11
225.315
 20
162.99
 21
163.188
  0
LINE
  8
BASE
 10
226.692
 11
226.835
 20
162.99
 21
162.868
  0
LINE
  8
BASE
 10
227.173
 11
227.381
 20
163.188
 21
163.036
  0
LINE
  8
BASE
 10
226.211
 11
226.627
 20
167.912
 21
167.18
  0
LINE
  8
BASE
 10
226.796
 11
227.212
 20
167.714
 21
166.982
  0
LINE
  8
BASE
 10
224.184
 11
223.911
 20
166.784
 21
166.373
  0
LINE
  8
BASE
 10
227.823
 11
228.07
 20
166.784
 21
166.586
  0
LINE
  8
BASE
 10
228.005
 11
228.135
 20
166.784
 21
166.937
  0
LINE
  8
BASE
 10
224.041
 11
223.911
 20
166.693
 21
166.815
  0
LINE
  8
BASE
 10
228.547
 11
227.658
 20
180.511
 21
179.636
  0
LINE
  8
BASE
 10
227.658
 11
227.658
 20
179.636
 21
172.535
  0
LINE
  8
BASE
 10
227.658
 11
228.547
 20
172.535
 21
171.66
  0
LINE
  8
BASE
 10
224.233
 11
227.658
 20
179.636
 21
179.636
  0
LINE
  8
BASE
 10
226.15
 11
227.039
 20
178.905
 21
177.273
  0
LINE
  8
BASE
 10
224.139
 11
224.01
 20
178.875
 21
178.663
  0
LINE
  8
BASE
 10
224.139
 11
223.868
 20
178.467
 21
178.149
  0
LINE
  8
BASE
 10
225.363
 11
225.57
 20
180.024
 21
179.827
  0
LINE
  8
BASE
 10
227.207
 11
227.413
 20
179.752
 21
179.903
  0
LINE
  8
BASE
 10
227.761
 11
227.929
 20
178.512
 21
178.754
  0
LINE
  8
BASE
 10
227.825
 11
228.032
 20
178.83
 21
179.192
  0
LINE
  8
BASE
 10
224.551
 11
226.459
 20
176.033
 21
173.026
  0
LINE
  8
BASE
 10
224.01
 11
223.829
 20
175.384
 21
175.187
  0
LINE
  8
BASE
 10
227.658
 11
224.233
 20
172.535
 21
172.535
  0
LINE
  8
BASE
 10
225.57
 11
226.047
 20
173.268
 21
172.587
  0
LINE
  8
BASE
 10
224.306
 11
224.654
 20
173.585
 21
173.071
  0
LINE
  8
BASE
 10
227.722
 11
227.929
 20
173.268
 21
173.026
  0
LINE
  8
BASE
 10
227.864
 11
228.07
 20
173.948
 21
173.676
  0
LINE
  8
BASE
 10
227.825
 11
227.967
 20
173.555
 21
173.434
  0
LINE
  8
BASE
 10
224.654
 11
224.886
 20
172.149
 21
172.391
  0
LINE
  8
BASE
 10
225.067
 11
225.299
 20
172.27
 21
172.466
  0
LINE
  8
BASE
 10
226.665
 11
226.807
 20
172.27
 21
172.149
  0
LINE
  8
BASE
 10
227.142
 11
227.349
 20
172.466
 21
172.315
  0
LINE
  8
BASE
 10
226.188
 11
226.601
 20
177.152
 21
176.426
  0
LINE
  8
BASE
 10
226.768
 11
227.181
 20
176.955
 21
176.23
  0
LINE
  8
BASE
 10
224.177
 11
223.907
 20
176.033
 21
175.625
  0
LINE
  8
BASE
 10
227.787
 11
228.032
 20
176.033
 21
175.837
  0
LINE
  8
BASE
 10
227.967
 11
228.096
 20
176.033
 21
176.185
  0
LINE
  8
BASE
 10
224.036
 11
223.907
 20
175.943
 21
176.064
  0
LINE
  8
BASE
 10
239.669
 11
238.773
 20
171.298
 21
170.416
  0
LINE
  8
BASE
 10
238.773
 11
238.773
 20
170.416
 21
163.257
  0
LINE
  8
BASE
 10
238.773
 11
239.669
 20
163.257
 21
162.375
  0
LINE
  8
BASE
 10
235.321
 11
238.773
 20
170.416
 21
170.416
  0
LINE
  8
BASE
 10
237.252
 11
238.149
 20
169.679
 21
168.034
  0
LINE
  8
BASE
 10
235.225
 11
235.095
 20
169.649
 21
169.436
  0
LINE
  8
BASE
 10
235.225
 11
234.952
 20
169.237
 21
168.917
  0
LINE
  8
BASE
 10
236.46
 11
236.668
 20
170.807
 21
170.609
  0
LINE
  8
BASE
 10
238.318
 11
238.526
 20
170.533
 21
170.685
  0
LINE
  8
BASE
 10
238.877
 11
239.046
 20
169.283
 21
169.527
  0
LINE
  8
BASE
 10
238.942
 11
239.15
 20
169.603
 21
169.969
  0
LINE
  8
BASE
 10
235.641
 11
237.564
 20
166.784
 21
163.752
  0
LINE
  8
BASE
 10
235.095
 11
234.913
 20
166.129
 21
165.931
  0
LINE
  8
BASE
 10
238.773
 11
235.321
 20
163.257
 21
163.257
  0
LINE
  8
BASE
 10
236.668
 11
237.148
 20
163.996
 21
163.31
  0
LINE
  8
BASE
 10
235.394
 11
235.745
 20
164.316
 21
163.798
  0
LINE
  8
BASE
 10
238.838
 11
239.046
 20
163.996
 21
163.752
  0
LINE
  8
BASE
 10
238.981
 11
239.189
 20
164.681
 21
164.407
  0
LINE
  8
BASE
 10
238.942
 11
239.085
 20
164.285
 21
164.163
  0
LINE
  8
BASE
 10
235.745
 11
235.979
 20
162.868
 21
163.112
  0
LINE
  8
BASE
 10
236.161
 11
236.395
 20
162.99
 21
163.188
  0
LINE
  8
BASE
 10
237.772
 11
237.915
 20
162.99
 21
162.868
  0
LINE
  8
BASE
 10
238.253
 11
238.461
 20
163.188
 21
163.036
  0
LINE
  8
BASE
 10
237.291
 11
237.707
 20
167.912
 21
167.18
  0
LINE
  8
BASE
 10
237.876
 11
238.292
 20
167.714
 21
166.982
  0
LINE
  8
BASE
 10
235.264
 11
234.991
 20
166.784
 21
166.373
  0
LINE
  8
BASE
 10
238.903
 11
239.15
 20
166.784
 21
166.586
  0
LINE
  8
BASE
 10
239.085
 11
239.215
 20
166.784
 21
166.937
  0
LINE
  8
BASE
 10
235.121
 11
234.991
 20
166.693
 21
166.815
  0
LINE
  8
BASE
 10
233.192
 11
233.192
 20
170.416
 21
163.257
  0
LINE
  8
BASE
 10
231.717
 11
232.587
 20
169.679
 21
168.034
  0
LINE
  8
BASE
 10
229.751
 11
229.625
 20
169.649
 21
169.436
  0
LINE
  8
BASE
 10
229.751
 11
229.486
 20
169.237
 21
168.917
  0
LINE
  8
BASE
 10
230.948
 11
231.15
 20
170.807
 21
170.609
  0
LINE
  8
BASE
 10
232.751
 11
232.952
 20
170.533
 21
170.685
  0
LINE
  8
BASE
 10
233.293
 11
233.456
 20
169.283
 21
169.527
  0
LINE
  8
BASE
 10
233.356
 11
233.557
 20
169.603
 21
169.969
  0
LINE
  8
BASE
 10
230.154
 11
232.02
 20
166.784
 21
163.752
  0
LINE
  8
BASE
 10
229.625
 11
229.449
 20
166.129
 21
165.931
  0
LINE
  8
BASE
 10
231.15
 11
231.616
 20
163.996
 21
163.31
  0
LINE
  8
BASE
 10
229.915
 11
230.255
 20
164.316
 21
163.798
  0
LINE
  8
BASE
 10
233.255
 11
233.456
 20
163.996
 21
163.752
  0
LINE
  8
BASE
 10
233.393
 11
233.595
 20
164.681
 21
164.407
  0
LINE
  8
BASE
 10
233.356
 11
233.494
 20
164.285
 21
164.163
  0
LINE
  8
BASE
 10
230.255
 11
230.482
 20
162.868
 21
163.112
  0
LINE
  8
BASE
 10
230.658
 11
230.885
 20
162.99
 21
163.188
  0
LINE
  8
BASE
 10
232.221
 11
232.36
 20
162.99
 21
162.868
  0
LINE
  8
BASE
 10
232.688
 11
232.889
 20
163.188
 21
163.036
  0
LINE
  8
BASE
 10
231.755
 11
232.158
 20
167.912
 21
167.18
  0
LINE
  8
BASE
 10
232.322
 11
232.725
 20
167.714
 21
166.982
  0
LINE
  8
BASE
 10
229.789
 11
229.524
 20
166.784
 21
166.373
  0
LINE
  8
BASE
 10
233.318
 11
233.557
 20
166.784
 21
166.586
  0
LINE
  8
BASE
 10
233.494
 11
233.62
 20
166.784
 21
166.937
  0
LINE
  8
BASE
 10
229.65
 11
229.524
 20
166.693
 21
166.815
  0
LINE
  8
BASE
 10
239.67
 11
238.774
 20
180.511
 21
179.636
  0
LINE
  8
BASE
 10
238.774
 11
238.774
 20
179.636
 21
172.535
  0
LINE
  8
BASE
 10
238.774
 11
239.67
 20
172.535
 21
171.66
  0
LINE
  8
BASE
 10
235.321
 11
238.774
 20
179.636
 21
179.636
  0
LINE
  8
BASE
 10
237.253
 11
238.15
 20
178.905
 21
177.273
  0
LINE
  8
BASE
 10
235.225
 11
235.095
 20
178.875
 21
178.663
  0
LINE
  8
BASE
 10
235.225
 11
234.952
 20
178.467
 21
178.149
  0
LINE
  8
BASE
 10
236.46
 11
236.668
 20
180.024
 21
179.827
  0
LINE
  8
BASE
 10
238.319
 11
238.527
 20
179.752
 21
179.903
  0
LINE
  8
BASE
 10
238.878
 11
239.046
 20
178.512
 21
178.754
  0
LINE
  8
BASE
 10
238.943
 11
239.15
 20
178.83
 21
179.192
  0
LINE
  8
BASE
 10
235.641
 11
237.565
 20
176.033
 21
173.026
  0
LINE
  8
BASE
 10
235.095
 11
234.913
 20
175.384
 21
175.187
  0
LINE
  8
BASE
 10
238.774
 11
235.321
 20
172.535
 21
172.535
  0
LINE
  8
BASE
 10
236.668
 11
237.149
 20
173.268
 21
172.587
  0
LINE
  8
BASE
 10
235.394
 11
235.745
 20
173.585
 21
173.071
  0
LINE
  8
BASE
 10
238.839
 11
239.046
 20
173.268
 21
173.026
  0
LINE
  8
BASE
 10
238.982
 11
239.189
 20
173.948
 21
173.676
  0
LINE
  8
BASE
 10
238.943
 11
239.085
 20
173.555
 21
173.434
  0
LINE
  8
BASE
 10
235.745
 11
235.979
 20
172.149
 21
172.391
  0
LINE
  8
BASE
 10
236.161
 11
236.395
 20
172.27
 21
172.466
  0
LINE
  8
BASE
 10
237.773
 11
237.916
 20
172.27
 21
172.149
  0
LINE
  8
BASE
 10
238.254
 11
238.462
 20
172.466
 21
172.315
  0
LINE
  8
BASE
 10
237.292
 11
237.708
 20
177.152
 21
176.426
  0
LINE
  8
BASE
 10
237.877
 11
238.293
 20
176.955
 21
176.23
  0
LINE
  8
BASE
 10
235.264
 11
234.991
 20
176.033
 21
175.625
  0
LINE
  8
BASE
 10
238.904
 11
239.15
 20
176.033
 21
175.837
  0
LINE
  8
BASE
 10
239.085
 11
239.215
 20
176.033
 21
176.185
  0
LINE
  8
BASE
 10
235.121
 11
234.991
 20
175.943
 21
176.064
  0
LINE
  8
BASE
 10
234.102
 11
233.227
 20
180.519
 21
179.643
  0
LINE
  8
BASE
 10
233.227
 11
233.227
 20
179.643
 21
172.536
  0
LINE
  8
BASE
 10
233.227
 11
234.102
 20
172.536
 21
171.66
  0
LINE
  8
BASE
 10
229.851
 11
233.227
 20
179.643
 21
179.643
  0
LINE
  8
BASE
 10
231.74
 11
232.616
 20
178.912
 21
177.278
  0
LINE
  8
BASE
 10
229.757
 11
229.63
 20
178.881
 21
178.67
  0
LINE
  8
BASE
 10
229.757
 11
229.491
 20
178.473
 21
178.155
  0
LINE
  8
BASE
 10
230.965
 11
231.168
 20
180.031
 21
179.834
  0
LINE
  8
BASE
 10
232.782
 11
232.985
 20
179.759
 21
179.91
  0
LINE
  8
BASE
 10
233.328
 11
233.493
 20
178.518
 21
178.76
  0
LINE
  8
BASE
 10
233.392
 11
233.595
 20
178.836
 21
179.199
  0
LINE
  8
BASE
 10
230.164
 11
232.045
 20
176.037
 21
173.027
  0
LINE
  8
BASE
 10
229.63
 11
229.452
 20
175.387
 21
175.19
  0
LINE
  8
BASE
 10
233.227
 11
229.851
 20
172.536
 21
172.536
  0
LINE
  8
BASE
 10
231.168
 11
231.638
 20
173.269
 21
172.588
  0
LINE
  8
BASE
 10
229.923
 11
230.266
 20
173.587
 21
173.072
  0
LINE
  8
BASE
 10
233.29
 11
233.493
 20
173.269
 21
173.027
  0
LINE
  8
BASE
 10
233.43
 11
233.633
 20
173.95
 21
173.677
  0
LINE
  8
BASE
 10
233.392
 11
233.531
 20
173.556
 21
173.435
  0
LINE
  8
BASE
 10
230.266
 11
230.494
 20
172.15
 21
172.392
  0
LINE
  8
BASE
 10
230.672
 11
230.901
 20
172.271
 21
172.467
  0
LINE
  8
BASE
 10
232.248
 11
232.388
 20
172.271
 21
172.15
  0
LINE
  8
BASE
 10
232.718
 11
232.921
 20
172.467
 21
172.316
  0
LINE
  8
BASE
 10
231.778
 11
232.184
 20
177.157
 21
176.431
  0
LINE
  8
BASE
 10
232.35
 11
232.756
 20
176.96
 21
176.234
  0
LINE
  8
BASE
 10
229.796
 11
229.529
 20
176.037
 21
175.629
  0
LINE
  8
BASE
 10
233.353
 11
233.595
 20
176.037
 21
175.841
  0
LINE
  8
BASE
 10
233.531
 11
233.658
 20
176.037
 21
176.189
  0
LINE
  8
BASE
 10
229.656
 11
229.529
 20
175.947
 21
176.068
  0
ARC
  8
BASE
 10
231.52
 20
151.174
 40
38.626
 50
77.781
 51
102.219
  0
LINE
  8
BASE
 10
223.345
 11
223.745
 20
188.925
 21
188.525
  0
ARC
  8
BASE
 10
231.508
 20
154.524
 40
34.876
 50
95.418
 51
102.861
  0
LINE
  8
BASE
 10
228.215
 11
228.215
 20
189.244
 21
181.345
  0
LINE
  8
BASE
 10
228.215
 11
223.745
 20
181.345
 21
181.345
  0
LINE
  8
BASE
 10
223.745
 11
223.745
 20
181.345
 21
188.525
  0
LINE
  8
BASE
 10
223.745
 11
224.245
 20
188.525
 21
188.124
  0
ARC
  8
BASE
 10
231.508
 20
154.524
 40
34.376
 50
96.335
 51
102.198
  0
LINE
  8
BASE
 10
227.715
 11
227.715
 20
188.69
 21
181.845
  0
LINE
  8
BASE
 10
227.715
 11
224.245
 20
181.845
 21
181.845
  0
LINE
  8
BASE
 10
224.245
 11
223.345
 20
181.845
 21
180.945
  0
LINE
  8
BASE
 10
223.345
 11
239.695
 20
180.945
 21
180.945
  0
LINE
  8
BASE
 10
239.695
 11
238.795
 20
180.945
 21
181.845
  0
LINE
  8
BASE
 10
238.795
 11
238.795
 20
181.845
 21
188.119
  0
LINE
  8
BASE
 10
238.795
 11
239.272
 20
188.119
 21
188.525
  0
LINE
  8
BASE
 10
239.272
 11
239.695
 20
188.525
 21
188.925
  0
ARC
  8
BASE
 10
231.508
 20
154.524
 40
34.376
 50
87.192
 51
92.776
  0
LINE
  8
BASE
 10
229.844
 11
229.844
 20
188.86
 21
181.962
  0
LINE
  8
BASE
 10
229.844
 11
233.192
 20
181.962
 21
181.962
  0
LINE
  8
BASE
 10
233.192
 11
234.065
 20
181.962
 21
180.945
  0
LINE
  8
BASE
 10
234.065
 11
234.065
 20
180.945
 21
189.716
  0
LINE
  8
BASE
 10
234.065
 11
233.675
 20
189.716
 21
189.333
  0
LINE
  8
BASE
 10
233.675
 11
233.192
 20
189.333
 21
188.859
  0
LINE
  8
BASE
 10
233.192
 11
233.192
 20
188.859
 21
181.962
  0
ARC
  8
BASE
 10
231.508
 20
154.524
 40
34.876
 50
86.439
 51
93.53
  0
LINE
  8
BASE
 10
229.361
 11
229.361
 20
189.334
 21
181.397
  0
LINE
  8
BASE
 10
229.361
 11
233.675
 20
181.397
 21
181.397
  0
LINE
  8
BASE
 10
233.675
 11
233.675
 20
181.397
 21
189.333
  0
ARC
  8
BASE
 10
231.508
 20
154.524
 40
34.376
 50
77.762
 51
83.625
  0
LINE
  8
BASE
 10
235.325
 11
235.325
 20
188.687
 21
181.845
  0
LINE
  8
BASE
 10
235.325
 11
238.795
 20
181.845
 21
181.845
  0
ARC
  8
BASE
 10
231.508
 20
154.524
 40
34.876
 50
77.139
 51
84.543
  0
LINE
  8
BASE
 10
234.825
 11
234.825
 20
189.242
 21
181.345
  0
LINE
  8
BASE
 10
234.825
 11
239.295
 20
181.345
 21
181.345
  0
LINE
  8
BASE
 10
239.295
 11
239.295
 20
181.345
 21
188.525
  0
LINE
  8
BASE
 10
223.345
 11
223.345
 20
193.4
 21
144.5
  0
LINE
  8
BASE
 10
223.345
 11
239.695
 20
144.5
 21
144.5
  0
LINE
  8
BASE
 10
239.695
 11
238.42
 20
144.5
 21
145.775
  0
LINE
  8
BASE
 10
238.42
 11
238.42
 20
145.775
 21
159.025
  0
LINE
  8
BASE
 10
238.42
 11
224.62
 20
159.025
 21
159.025
  0
LINE
  8
BASE
 10
224.62
 11
223.345
 20
159.025
 21
160.3
  0
LINE
  8
BASE
 10
223.345
 11
239.695
 20
160.3
 21
160.3
  0
LINE
  8
BASE
 10
239.695
 11
238.42
 20
160.3
 21
159.025
  0
LINE
  8
BASE
 10
223.345
 11
223.345
 20
140.4
 21
144.5
  0
LINE
  8
BASE
 10
223.345
 11
224.62
 20
144.5
 21
145.775
  0
LINE
  8
BASE
 10
224.62
 11
224.62
 20
145.775
 21
159.025
  0
LINE
  8
BASE
 10
223.745
 11
223.745
 20
144.9
 21
159.9
  0
LINE
  8
BASE
 10
223.745
 11
239.295
 20
159.9
 21
159.9
  0
LINE
  8
BASE
 10
239.295
 11
239.295
 20
159.9
 21
144.9
  0
LINE
  8
BASE
 10
239.295
 11
223.745
 20
144.9
 21
144.9
  0
LINE
  8
BASE
 10
239.695
 11
239.695
 20
140.4
 21
193.4
  0
LINE
  8
BASE
 10
239.695
 11
223.345
 20
162.375
 21
162.375
  0
LINE
  8
BASE
 10
223.345
 11
239.695
 20
162.375
 21
162.375
  0
LINE
  8
BASE
 10
238.42
 11
224.62
 20
145.775
 21
145.775
  0
LINE
  8
BASE
 10
220.995
 11
220.995
 20
140.4
 21
193.275
  0
LINE
  8
BASE
 10
220.995
 11
242.045
 20
193.275
 21
193.275
  0
LINE
  8
BASE
 10
242.045
 11
242.045
 20
193.275
 21
140.4
  0
LINE
  8
BASE
 10
242.17
 11
242.17
 20
140.4
 21
193.4
  0
LINE
  8
BASE
 10
242.17
 11
220.87
 20
193.4
 21
193.4
  0
LINE
  8
BASE
 10
220.87
 11
220.87
 20
193.4
 21
193.9
  0
LINE
  8
BASE
 10
244.245
 11
244.245
 20
140.4
 21
195.47
  0
LINE
  8
BASE
 10
244.245
 11
242.67
 20
195.47
 21
195.475
  0
LINE
  8
BASE
 10
242.67
 11
220.37
 20
195.475
 21
195.475
  0
LINE
  8
BASE
 10
220.37
 11
218.795
 20
195.475
 21
195.484
  0
LINE
  8
BASE
 10
218.795
 11
220.37
 20
195.484
 21
193.9
  0
LINE
  8
BASE
 10
220.37
 11
220.37
 20
193.9
 21
140.4
  0
LINE
  8
BASE
 10
220.37
 11
242.67
 20
140.4
 21
140.4
  0
LINE
  8
BASE
 10
242.67
 11
242.67
 20
140.4
 21
193.9
  0
LINE
  8
BASE
 10
242.67
 11
220.37
 20
193.9
 21
193.9
  0
LINE
  8
BASE
 10
242.17
 11
242.17
 20
193.4
 21
193.9
  0
LINE
  8
BASE
 10
242.67
 11
244.245
 20
193.9
 21
195.47
  0
LINE
  8
BASE
 10
218.795
 11
218.795
 20
140.4
 21
195.484
  0
LINE
  8
BASE
 10
220.87
 11
220.87
 20
140.4
 21
193.4
  0
LINE
  8
BASE
 10
220.37
 11
212.77
 20
140.4
 21
140.4
  0
LINE
  8
BASE
 10
228.215
 11
223.745
 20
162.775
 21
162.775
  0
LINE
  8
BASE
 10
223.745
 11
223.745
 20
162.775
 21
170.9
  0
LINE
  8
BASE
 10
223.745
 11
228.215
 20
170.9
 21
170.9
  0
LINE
  8
BASE
 10
228.215
 11
228.215
 20
170.9
 21
162.775
  0
LINE
  8
BASE
 10
239.695
 11
223.345
 20
171.3
 21
171.3
  0
LINE
  8
BASE
 10
223.345
 11
224.241
 20
171.3
 21
170.416
  0
LINE
  8
BASE
 10
224.241
 11
227.693
 20
170.416
 21
170.416
  0
LINE
  8
BASE
 10
227.693
 11
227.693
 20
170.416
 21
163.257
  0
LINE
  8
BASE
 10
227.693
 11
228.589
 20
163.257
 21
162.375
  0
LINE
  8
BASE
 10
239.695
 11
223.345
 20
171.66
 21
171.66
  0
LINE
  8
BASE
 10
223.345
 11
224.233
 20
171.66
 21
172.535
  0
LINE
  8
BASE
 10
224.233
 11
224.233
 20
172.535
 21
179.636
  0
LINE
  8
BASE
 10
224.233
 11
223.345
 20
179.636
 21
180.511
  0
LINE
  8
BASE
 10
228.215
 11
223.745
 20
172.06
 21
172.06
  0
LINE
  8
BASE
 10
223.745
 11
223.745
 20
172.06
 21
180.185
  0
LINE
  8
BASE
 10
223.745
 11
228.215
 20
180.185
 21
180.185
  0
LINE
  8
BASE
 10
228.215
 11
228.215
 20
180.185
 21
172.06
  0
LINE
  8
BASE
 10
239.695
 11
223.345
 20
180.585
 21
180.585
  0
LINE
  8
BASE
 10
224.672
 11
224.907
 20
181.448
 21
181.697
  0
LINE
  8
BASE
 10
224.567
 11
226.5
 20
185.444
 21
182.35
  0
LINE
  8
BASE
 10
224.245
 11
224.245
 20
181.845
 21
188.124
  0
LINE
  8
BASE
 10
224.188
 11
223.914
 20
185.444
 21
185.024
  0
LINE
  8
BASE
 10
224.045
 11
223.914
 20
185.351
 21
185.475
  0
LINE
  8
BASE
 10
224.319
 11
224.672
 20
182.925
 21
182.397
  0
LINE
  8
BASE
 10
224.019
 11
223.836
 20
184.776
 21
184.573
  0
LINE
  8
BASE
 10
224.149
 11
223.875
 20
187.947
 21
187.621
  0
LINE
  8
BASE
 10
228.615
 11
228.615
 20
171.3
 21
162.375
  0
LINE
  8
BASE
 10
228.975
 11
228.975
 20
171.3
 21
162.375
  0
LINE
  8
BASE
 10
228.975
 11
229.844
 20
162.375
 21
163.257
  0
LINE
  8
BASE
 10
229.844
 11
229.844
 20
163.257
 21
170.416
  0
LINE
  8
BASE
 10
229.844
 11
228.975
 20
170.416
 21
171.3
  0
LINE
  8
BASE
 10
229.844
 11
233.192
 20
170.416
 21
170.416
  0
LINE
  8
BASE
 10
233.192
 11
234.065
 20
170.416
 21
171.3
  0
LINE
  8
BASE
 10
234.065
 11
234.065
 20
171.3
 21
162.375
  0
LINE
  8
BASE
 10
234.065
 11
233.192
 20
162.375
 21
163.257
  0
LINE
  8
BASE
 10
233.192
 11
229.844
 20
163.257
 21
163.257
  0
LINE
  8
BASE
 10
234.425
 11
234.425
 20
171.3
 21
162.375
  0
LINE
  8
BASE
 10
234.425
 11
235.321
 20
162.375
 21
163.257
  0
LINE
  8
BASE
 10
235.321
 11
235.321
 20
163.257
 21
170.416
  0
LINE
  8
BASE
 10
235.321
 11
234.425
 20
170.416
 21
171.3
  0
LINE
  8
BASE
 10
239.295
 11
239.295
 20
170.9
 21
162.775
  0
LINE
  8
BASE
 10
239.295
 11
234.825
 20
162.775
 21
162.775
  0
LINE
  8
BASE
 10
234.825
 11
234.825
 20
162.775
 21
170.9
  0
LINE
  8
BASE
 10
234.825
 11
239.295
 20
170.9
 21
170.9
  0
LINE
  8
BASE
 10
229.375
 11
229.375
 20
170.9
 21
162.775
  0
LINE
  8
BASE
 10
229.375
 11
233.665
 20
162.775
 21
162.775
  0
LINE
  8
BASE
 10
233.665
 11
233.665
 20
162.775
 21
170.9
  0
LINE
  8
BASE
 10
233.665
 11
229.375
 20
170.9
 21
170.9
  0
LINE
  8
BASE
 10
235.325
 11
234.825
 20
188.687
 21
189.242
  0
LINE
  8
BASE
 10
234.825
 11
234.425
 20
189.242
 21
189.691
  0
LINE
  8
BASE
 10
234.425
 11
234.425
 20
189.691
 21
180.945
  0
LINE
  8
BASE
 10
234.425
 11
235.325
 20
180.945
 21
181.845
  0
LINE
  8
BASE
 10
229.844
 11
229.361
 20
188.86
 21
189.334
  0
LINE
  8
BASE
 10
229.361
 11
228.975
 20
189.334
 21
189.716
  0
LINE
  8
BASE
 10
228.975
 11
228.975
 20
189.716
 21
180.945
  0
LINE
  8
BASE
 10
228.975
 11
229.844
 20
180.945
 21
181.962
  0
LINE
  8
BASE
 10
227.715
 11
228.215
 20
188.69
 21
189.244
  0
LINE
  8
BASE
 10
228.215
 11
228.615
 20
189.244
 21
189.691
  0
LINE
  8
BASE
 10
228.615
 11
228.615
 20
189.691
 21
180.945
  0
LINE
  8
BASE
 10
228.615
 11
227.715
 20
180.945
 21
181.845
  0
LINE
  8
BASE
 10
239.295
 11
239.295
 20
180.185
 21
172.06
  0
LINE
  8
BASE
 10
239.295
 11
234.825
 20
172.06
 21
172.06
  0
LINE
  8
BASE
 10
234.825
 11
234.825
 20
172.06
 21
180.185
  0
LINE
  8
BASE
 10
234.825
 11
239.295
 20
180.185
 21
180.185
  0
LINE
  8
BASE
 10
233.665
 11
233.665
 20
180.185
 21
172.06
  0
LINE
  8
BASE
 10
233.665
 11
229.375
 20
172.06
 21
172.06
  0
LINE
  8
BASE
 10
229.375
 11
229.375
 20
172.06
 21
180.185
  0
LINE
  8
BASE
 10
229.375
 11
233.665
 20
180.185
 21
180.185
  0
LINE
  8
BASE
 10
234.425
 11
234.425
 20
180.585
 21
171.66
  0
LINE
  8
BASE
 10
234.425
 11
235.321
 20
171.66
 21
172.535
  0
LINE
  8
BASE
 10
235.321
 11
235.321
 20
172.535
 21
179.636
  0
LINE
  8
BASE
 10
235.321
 11
234.425
 20
179.636
 21
180.511
  0
LINE
  8
BASE
 10
234.065
 11
234.065
 20
180.585
 21
171.66
  0
LINE
  8
BASE
 10
228.975
 11
228.975
 20
180.585
 21
171.66
  0
LINE
  8
BASE
 10
228.975
 11
229.851
 20
171.66
 21
172.536
  0
LINE
  8
BASE
 10
229.851
 11
229.851
 20
172.536
 21
179.643
  0
LINE
  8
BASE
 10
229.851
 11
228.975
 20
179.643
 21
180.519
  0
LINE
  8
BASE
 10
228.615
 11
228.615
 20
180.585
 21
171.66
  0
LINE
  8
BASE
 10
236.814
 11
236.396
 20
186.595
 21
185.848
  0
LINE
  8
BASE
 10
226.226
 11
226.644
 20
186.595
 21
185.848
  0
LINE
  8
BASE
 10
231.726
 11
232.144
 20
186.695
 21
185.948
  0
LINE
  8
BASE
 10
232.692
 11
232.901
 20
181.875
 21
181.719
  0
LINE
  8
BASE
 10
229.688
 11
229.414
 20
185.544
 21
185.124
  0
LINE
  8
BASE
 10
226.813
 11
227.231
 20
186.393
 21
185.646
  0
LINE
  8
BASE
 10
227.845
 11
228.093
 20
185.444
 21
185.242
  0
LINE
  8
BASE
 10
228.028
 11
228.159
 20
185.444
 21
185.6
  0
LINE
  8
BASE
 10
226.709
 11
226.853
 20
181.573
 21
181.448
  0
LINE
  8
BASE
 10
225.599
 11
226.082
 20
182.599
 21
181.899
  0
LINE
  8
BASE
 10
225.09
 11
225.325
 20
181.573
 21
181.775
  0
LINE
  8
BASE
 10
232.209
 11
232.353
 20
181.673
 21
181.548
  0
LINE
  8
BASE
 10
230.59
 11
230.825
 20
181.673
 21
181.875
  0
LINE
  8
BASE
 10
230.172
 11
230.407
 20
181.548
 21
181.797
  0
LINE
  8
BASE
 10
229.819
 11
230.172
 20
183.025
 21
182.497
  0
LINE
  8
BASE
 10
229.519
 11
229.336
 20
184.876
 21
184.673
  0
LINE
  8
BASE
 10
227.78
 11
227.989
 20
182.599
 21
182.35
  0
LINE
  8
BASE
 10
227.924
 11
228.133
 20
183.298
 21
183.019
  0
LINE
  8
BASE
 10
227.884
 11
228.028
 20
182.894
 21
182.77
  0
LINE
  8
BASE
 10
227.192
 11
227.401
 20
181.775
 21
181.619
  0
LINE
  8
BASE
 10
230.067
 11
232.0
 20
185.544
 21
182.45
  0
LINE
  8
BASE
 10
233.528
 11
233.659
 20
185.544
 21
185.7
  0
LINE
  8
BASE
 10
233.345
 11
233.593
 20
185.544
 21
185.342
  0
LINE
  8
BASE
 10
238.995
 11
239.126
 20
185.351
 21
185.475
  0
LINE
  8
BASE
 10
235.012
 11
234.881
 20
185.444
 21
185.6
  0
LINE
  8
BASE
 10
235.195
 11
234.947
 20
185.444
 21
185.242
  0
LINE
  8
BASE
 10
238.852
 11
239.126
 20
185.444
 21
185.024
  0
LINE
  8
BASE
 10
236.227
 11
235.809
 20
186.393
 21
185.646
  0
LINE
  8
BASE
 10
233.384
 11
233.528
 20
182.994
 21
182.87
  0
LINE
  8
BASE
 10
233.424
 11
233.633
 20
183.398
 21
183.119
  0
LINE
  8
BASE
 10
233.28
 11
233.489
 20
182.699
 21
182.45
  0
LINE
  8
BASE
 10
235.848
 11
235.639
 20
181.775
 21
181.619
  0
LINE
  8
BASE
 10
236.331
 11
236.187
 20
181.573
 21
181.448
  0
LINE
  8
BASE
 10
237.95
 11
237.715
 20
181.573
 21
181.775
  0
LINE
  8
BASE
 10
238.368
 11
238.133
 20
181.448
 21
181.697
  0
LINE
  8
BASE
 10
235.156
 11
235.012
 20
182.894
 21
182.77
  0
LINE
  8
BASE
 10
235.116
 11
234.907
 20
183.298
 21
183.019
  0
LINE
  8
BASE
 10
235.26
 11
235.051
 20
182.599
 21
182.35
  0
LINE
  8
BASE
 10
239.021
 11
239.204
 20
184.776
 21
184.573
  0
LINE
  8
BASE
 10
238.721
 11
238.368
 20
182.925
 21
182.397
  0
LINE
  8
BASE
 10
237.441
 11
236.958
 20
182.599
 21
181.899
  0
LINE
  8
BASE
 10
238.473
 11
236.54
 20
185.444
 21
182.35
  0
LINE
  8
BASE
 10
226.187
 11
227.088
 20
188.398
 21
186.719
  0
LINE
  8
BASE
 10
229.649
 11
229.375
 20
188.047
 21
187.721
  0
LINE
  8
BASE
 10
231.687
 11
232.588
 20
188.498
 21
186.819
  0
LINE
  8
BASE
 10
227.819
 11
227.989
 20
187.994
 21
188.243
  0
LINE
  8
BASE
 10
227.884
 11
228.093
 20
188.321
 21
188.694
  0
LINE
  8
BASE
 10
233.384
 11
233.593
 20
188.421
 21
188.794
  0
LINE
  8
BASE
 10
233.319
 11
233.489
 20
188.094
 21
188.343
  0
LINE
  8
BASE
 10
235.156
 11
234.947
 20
188.321
 21
188.694
  0
LINE
  8
BASE
 10
235.221
 11
235.051
 20
187.994
 21
188.243
  0
LINE
  8
BASE
 10
238.891
 11
239.165
 20
187.947
 21
187.621
  0
LINE
  8
BASE
 10
236.853
 11
235.952
 20
188.398
 21
186.719
  0
LINE
  8
BASE
 10
239.695
 11
239.695
 20
189.65
 21
190.05
  0
LINE
  8
BASE
 10
239.695
 11
239.695
 20
190.05
 21
189.65
  0
LINE
  8
BASE
 10
227.693
 11
224.241
 20
163.257
 21
163.257
  0
LINE
  8
BASE
 10
224.241
 11
224.241
 20
163.257
 21
170.416
  0
LINE
  8
BASE
 10
227.693
 11
228.589
 20
170.416
 21
171.298
  0
LINE
  8
BASE
 10
226.172
 11
227.069
 20
169.679
 21
168.034
  0
LINE
  8
BASE
 10
224.145
 11
224.015
 20
169.649
 21
169.436
  0
LINE
  8
BASE
 10
224.145
 11
223.872
 20
169.237
 21
168.917
  0
LINE
  8
BASE
 10
225.38
 11
225.588
 20
170.807
 21
170.609
  0
LINE
  8
BASE
 10
227.238
 11
227.446
 20
170.533
 21
170.685
  0
LINE
  8
BASE
 10
227.797
 11
227.966
 20
169.283
 21
169.527
  0
LINE
  8
BASE
 10
227.862
 11
228.07
 20
169.603
 21
169.969
  0
LINE
  8
BASE
 10
224.561
 11
226.484
 20
166.784
 21
163.752
  0
LINE
  8
BASE
 10
224.015
 11
223.833
 20
166.129
 21
165.931
  0
LINE
  8
BASE
 10
224.241
 11
223.345
 20
163.257
 21
162.375
  0
LINE
  8
BASE
 10
225.588
 11
226.068
 20
163.996
 21
163.31
  0
LINE
  8
BASE
 10
224.314
 11
224.665
 20
164.316
 21
163.798
  0
LINE
  8
BASE
 10
227.758
 11
227.966
 20
163.996
 21
163.752
  0
LINE
  8
BASE
 10
227.901
 11
228.109
 20
164.681
 21
164.407
  0
LINE
  8
BASE
 10
227.862
 11
228.005
 20
164.285
 21
164.163
  0
LINE
  8
BASE
 10
224.665
 11
224.899
 20
162.868
 21
163.112
  0
LINE
  8
BASE
 10
225.081
 11
225.315
 20
162.99
 21
163.188
  0
LINE
  8
BASE
 10
226.692
 11
226.835
 20
162.99
 21
162.868
  0
LINE
  8
BASE
 10
227.173
 11
227.381
 20
163.188
 21
163.036
  0
LINE
  8
BASE
 10
226.211
 11
226.627
 20
167.912
 21
167.18
  0
LINE
  8
BASE
 10
226.796
 11
227.212
 20
167.714
 21
166.982
  0
LINE
  8
BASE
 10
224.184
 11
223.911
 20
166.784
 21
166.373
  0
LINE
  8
BASE
 10
227.823
 11
228.07
 20
166.784
 21
166.586
  0
LINE
  8
BASE
 10
228.005
 11
228.135
 20
166.784
 21
166.937
  0
LINE
  8
BASE
 10
224.041
 11
223.911
 20
166.693
 21
166.815
  0
LINE
  8
BASE
 10
228.547
 11
227.658
 20
180.511
 21
179.636
  0
LINE
  8
BASE
 10
227.658
 11
227.658
 20
179.636
 21
172.535
  0
LINE
  8
BASE
 10
227.658
 11
228.547
 20
172.535
 21
171.66
  0
LINE
  8
BASE
 10
224.233
 11
227.658
 20
179.636
 21
179.636
  0
LINE
  8
BASE
 10
226.15
 11
227.039
 20
178.905
 21
177.273
  0
LINE
  8
BASE
 10
224.139
 11
224.01
 20
178.875
 21
178.663
  0
LINE
  8
BASE
 10
224.139
 11
223.868
 20
178.467
 21
178.149
  0
LINE
  8
BASE
 10
225.363
 11
225.57
 20
180.024
 21
179.827
  0
LINE
  8
BASE
 10
227.207
 11
227.413
 20
179.752
 21
179.903
  0
LINE
  8
BASE
 10
227.761
 11
227.929
 20
178.512
 21
178.754
  0
LINE
  8
BASE
 10
227.825
 11
228.032
 20
178.83
 21
179.192
  0
LINE
  8
BASE
 10
224.551
 11
226.459
 20
176.033
 21
173.026
  0
LINE
  8
BASE
 10
224.01
 11
223.829
 20
175.384
 21
175.187
  0
LINE
  8
BASE
 10
227.658
 11
224.233
 20
172.535
 21
172.535
  0
LINE
  8
BASE
 10
225.57
 11
226.047
 20
173.268
 21
172.587
  0
LINE
  8
BASE
 10
224.306
 11
224.654
 20
173.585
 21
173.071
  0
LINE
  8
BASE
 10
227.722
 11
227.929
 20
173.268
 21
173.026
  0
LINE
  8
BASE
 10
227.864
 11
228.07
 20
173.948
 21
173.676
  0
LINE
  8
BASE
 10
227.825
 11
227.967
 20
173.555
 21
173.434
  0
LINE
  8
BASE
 10
224.654
 11
224.886
 20
172.149
 21
172.391
  0
LINE
  8
BASE
 10
225.067
 11
225.299
 20
172.27
 21
172.466
  0
LINE
  8
BASE
 10
226.665
 11
226.807
 20
172.27
 21
172.149
  0
LINE
  8
BASE
 10
227.142
 11
227.349
 20
172.466
 21
172.315
  0
LINE
  8
BASE
 10
226.188
 11
226.601
 20
177.152
 21
176.426
  0
LINE
  8
BASE
 10
226.768
 11
227.181
 20
176.955
 21
176.23
  0
LINE
  8
BASE
 10
224.177
 11
223.907
 20
176.033
 21
175.625
  0
LINE
  8
BASE
 10
227.787
 11
228.032
 20
176.033
 21
175.837
  0
LINE
  8
BASE
 10
227.967
 11
228.096
 20
176.033
 21
176.185
  0
LINE
  8
BASE
 10
224.036
 11
223.907
 20
175.943
 21
176.064
  0
LINE
  8
BASE
 10
239.669
 11
238.773
 20
171.298
 21
170.416
  0
LINE
  8
BASE
 10
238.773
 11
238.773
 20
170.416
 21
163.257
  0
LINE
  8
BASE
 10
238.773
 11
239.669
 20
163.257
 21
162.375
  0
LINE
  8
BASE
 10
235.321
 11
238.773
 20
170.416
 21
170.416
  0
LINE
  8
BASE
 10
237.252
 11
238.149
 20
169.679
 21
168.034
  0
LINE
  8
BASE
 10
235.225
 11
235.095
 20
169.649
 21
169.436
  0
LINE
  8
BASE
 10
235.225
 11
234.952
 20
169.237
 21
168.917
  0
LINE
  8
BASE
 10
236.46
 11
236.668
 20
170.807
 21
170.609
  0
LINE
  8
BASE
 10
238.318
 11
238.526
 20
170.533
 21
170.685
  0
LINE
  8
BASE
 10
238.877
 11
239.046
 20
169.283
 21
169.527
  0
LINE
  8
BASE
 10
238.942
 11
239.15
 20
169.603
 21
169.969
  0
LINE
  8
BASE
 10
235.641
 11
237.564
 20
166.784
 21
163.752
  0
LINE
  8
BASE
 10
235.095
 11
234.913
 20
166.129
 21
165.931
  0
LINE
  8
BASE
 10
238.773
 11
235.321
 20
163.257
 21
163.257
  0
LINE
  8
BASE
 10
236.668
 11
237.148
 20
163.996
 21
163.31
  0
LINE
  8
BASE
 10
235.394
 11
235.745
 20
164.316
 21
163.798
  0
LINE
  8
BASE
 10
238.838
 11
239.046
 20
163.996
 21
163.752
  0
LINE
  8
BASE
 10
238.981
 11
239.189
 20
164.681
 21
164.407
  0
LINE
  8
BASE
 10
238.942
 11
239.085
 20
164.285
 21
164.163
  0
LINE
  8
BASE
 10
235.745
 11
235.979
 20
162.868
 21
163.112
  0
LINE
  8
BASE
 10
236.161
 11
236.395
 20
162.99
 21
163.188
  0
LINE
  8
BASE
 10
237.772
 11
237.915
 20
162.99
 21
162.868
  0
LINE
  8
BASE
 10
238.253
 11
238.461
 20
163.188
 21
163.036
  0
LINE
  8
BASE
 10
237.291
 11
237.707
 20
167.912
 21
167.18
  0
LINE
  8
BASE
 10
237.876
 11
238.292
 20
167.714
 21
166.982
  0
LINE
  8
BASE
 10
235.264
 11
234.991
 20
166.784
 21
166.373
  0
LINE
  8
BASE
 10
238.903
 11
239.15
 20
166.784
 21
166.586
  0
LINE
  8
BASE
 10
239.085
 11
239.215
 20
166.784
 21
166.937
  0
LINE
  8
BASE
 10
235.121
 11
234.991
 20
166.693
 21
166.815
  0
LINE
  8
BASE
 10
233.192
 11
233.192
 20
170.416
 21
163.257
  0
LINE
  8
BASE
 10
231.717
 11
232.587
 20
169.679
 21
168.034
  0
LINE
  8
BASE
 10
229.751
 11
229.625
 20
169.649
 21
169.436
  0
LINE
  8
BASE
 10
229.751
 11
229.486
 20
169.237
 21
168.917
  0
LINE
  8
BASE
 10
230.948
 11
231.15
 20
170.807
 21
170.609
  0
LINE
  8
BASE
 10
232.751
 11
232.952
 20
170.533
 21
170.685
  0
LINE
  8
BASE
 10
233.293
 11
233.456
 20
169.283
 21
169.527
  0
LINE
  8
BASE
 10
233.356
 11
233.557
 20
169.603
 21
169.969
  0
LINE
  8
BASE
 10
230.154
 11
232.02
 20
166.784
 21
163.752
  0
LINE
  8
BASE
 10
229.625
 11
229.449
 20
166.129
 21
165.931
  0
LINE
  8
BASE
 10
231.15
 11
231.616
 20
163.996
 21
163.31
  0
LINE
  8
BASE
 10
229.915
 11
230.255
 20
164.316
 21
163.798
  0
LINE
  8
BASE
 10
233.255
 11
233.456
 20
163.996
 21
163.752
  0
LINE
  8
BASE
 10
233.393
 11
233.595
 20
164.681
 21
164.407
  0
LINE
  8
BASE
 10
233.356
 11
233.494
 20
164.285
 21
164.163
  0
LINE
  8
BASE
 10
230.255
 11
230.482
 20
162.868
 21
163.112
  0
LINE
  8
BASE
 10
230.658
 11
230.885
 20
162.99
 21
163.188
  0
LINE
  8
BASE
 10
232.221
 11
232.36
 20
162.99
 21
162.868
  0
LINE
  8
BASE
 10
232.688
 11
232.889
 20
163.188
 21
163.036
  0
LINE
  8
BASE
 10
231.755
 11
232.158
 20
167.912
 21
167.18
  0
LINE
  8
BASE
 10
232.322
 11
232.725
 20
167.714
 21
166.982
  0
LINE
  8
BASE
 10
229.789
 11
229.524
 20
166.784
 21
166.373
  0
LINE
  8
BASE
 10
233.318
 11
233.557
 20
166.784
 21
166.586
  0
LINE
  8
BASE
 10
233.494
 11
233.62
 20
166.784
 21
166.937
  0
LINE
  8
BASE
 10
229.65
 11
229.524
 20
166.693
 21
166.815
  0
LINE
  8
BASE
 10
239.67
 11
238.774
 20
180.511
 21
179.636
  0
LINE
  8
BASE
 10
238.774
 11
238.774
 20
179.636
 21
172.535
  0
LINE
  8
BASE
 10
238.774
 11
239.67
 20
172.535
 21
171.66
  0
LINE
  8
BASE
 10
235.321
 11
238.774
 20
179.636
 21
179.636
  0
LINE
  8
BASE
 10
237.253
 11
238.15
 20
178.905
 21
177.273
  0
LINE
  8
BASE
 10
235.225
 11
235.095
 20
178.875
 21
178.663
  0
LINE
  8
BASE
 10
235.225
 11
234.952
 20
178.467
 21
178.149
  0
LINE
  8
BASE
 10
236.46
 11
236.668
 20
180.024
 21
179.827
  0
LINE
  8
BASE
 10
238.319
 11
238.527
 20
179.752
 21
179.903
  0
LINE
  8
BASE
 10
238.878
 11
239.046
 20
178.512
 21
178.754
  0
LINE
  8
BASE
 10
238.943
 11
239.15
 20
178.83
 21
179.192
  0
LINE
  8
BASE
 10
235.641
 11
237.565
 20
176.033
 21
173.026
  0
LINE
  8
BASE
 10
235.095
 11
234.913
 20
175.384
 21
175.187
  0
LINE
  8
BASE
 10
238.774
 11
235.321
 20
172.535
 21
172.535
  0
LINE
  8
BASE
 10
236.668
 11
237.149
 20
173.268
 21
172.587
  0
LINE
  8
BASE
 10
235.394
 11
235.745
 20
173.585
 21
173.071
  0
LINE
  8
BASE
 10
238.839
 11
239.046
 20
173.268
 21
173.026
  0
LINE
  8
BASE
 10
238.982
 11
239.189
 20
173.948
 21
173.676
  0
LINE
  8
BASE
 10
238.943
 11
239.085
 20
173.555
 21
173.434
  0
LINE
  8
BASE
 10
235.745
 11
235.979
 20
172.149
 21
172.391
  0
LINE
  8
BASE
 10
236.161
 11
236.395
 20
172.27
 21
172.466
  0
LINE
  8
BASE
 10
237.773
 11
237.916
 20
172.27
 21
172.149
  0
LINE
  8
BASE
 10
238.254
 11
238.462
 20
172.466
 21
172.315
  0
LINE
  8
BASE
 10
237.292
 11
237.708
 20
177.152
 21
176.426
  0
LINE
  8
BASE
 10
237.877
 11
238.293
 20
176.955
 21
176.23
  0
LINE
  8
BASE
 10
235.264
 11
234.991
 20
176.033
 21
175.625
  0
LINE
  8
BASE
 10
238.904
 11
239.15
 20
176.033
 21
175.837
  0
LINE
  8
BASE
 10
239.085
 11
239.215
 20
176.033
 21
176.185
  0
LINE
  8
BASE
 10
235.121
 11
234.991
 20
175.943
 21
176.064
  0
LINE
  8
BASE
 10
234.102
 11
233.227
 20
180.519
 21
179.643
  0
LINE
  8
BASE
 10
233.227
 11
233.227
 20
179.643
 21
172.536
  0
LINE
  8
BASE
 10
233.227
 11
234.102
 20
172.536
 21
171.66
  0
LINE
  8
BASE
 10
229.851
 11
233.227
 20
179.643
 21
179.643
  0
LINE
  8
BASE
 10
231.74
 11
232.616
 20
178.912
 21
177.278
  0
LINE
  8
BASE
 10
229.757
 11
229.63
 20
178.881
 21
178.67
  0
LINE
  8
BASE
 10
229.757
 11
229.491
 20
178.473
 21
178.155
  0
LINE
  8
BASE
 10
230.965
 11
231.168
 20
180.031
 21
179.834
  0
LINE
  8
BASE
 10
232.782
 11
232.985
 20
179.759
 21
179.91
  0
LINE
  8
BASE
 10
233.328
 11
233.493
 20
178.518
 21
178.76
  0
LINE
  8
BASE
 10
233.392
 11
233.595
 20
178.836
 21
179.199
  0
LINE
  8
BASE
 10
230.164
 11
232.045
 20
176.037
 21
173.027
  0
LINE
  8
BASE
 10
229.63
 11
229.452
 20
175.387
 21
175.19
  0
LINE
  8
BASE
 10
233.227
 11
229.851
 20
172.536
 21
172.536
  0
LINE
  8
BASE
 10
231.168
 11
231.638
 20
173.269
 21
172.588
  0
LINE
  8
BASE
 10
229.923
 11
230.266
 20
173.587
 21
173.072
  0
LINE
  8
BASE
 10
233.29
 11
233.493
 20
173.269
 21
173.027
  0
LINE
  8
BASE
 10
233.43
 11
233.633
 20
173.95
 21
173.677
  0
LINE
  8
BASE
 10
233.392
 11
233.531
 20
173.556
 21
173.435
  0
LINE
  8
BASE
 10
230.266
 11
230.494
 20
172.15
 21
172.392
  0
LINE
  8
BASE
 10
230.672
 11
230.901
 20
172.271
 21
172.467
  0
LINE
  8
BASE
 10
232.248
 11
232.388
 20
172.271
 21
172.15
  0
LINE
  8
BASE
 10
232.718
 11
232.921
 20
172.467
 21
172.316
  0
LINE
  8
BASE
 10
231.778
 11
232.184
 20
177.157
 21
176.431
  0
LINE
  8
BASE
 10
232.35
 11
232.756
 20
176.96
 21
176.234
  0
LINE
  8
BASE
 10
229.796
 11
229.529
 20
176.037
 21
175.629
  0
LINE
  8
BASE
 10
233.353
 11
233.595
 20
176.037
 21
175.841
  0
LINE
  8
BASE
 10
233.531
 11
233.658
 20
176.037
 21
176.189
  0
LINE
  8
BASE
 10
229.656
 11
229.529
 20
175.947
 21
176.068
  0
LINE
  8
COSTRUZIONI
 10
226.872
 11
226.872
 20
135.8
 21
137.3
  0
LINE
  8
COSTRUZIONI
 10
226.872
 11
226.955
 20
137.3
 21
137.3
  0
LINE
  8
COSTRUZIONI
 10
226.955
 11
227.538
 20
137.3
 21
135.8
  0
LINE
  8
COSTRUZIONI
 10
227.538
 11
228.122
 20
135.8
 21
137.3
  0
LINE
  8
COSTRUZIONI
 10
228.122
 11
228.205
 20
137.3
 21
137.3
  0
LINE
  8
COSTRUZIONI
 10
228.205
 11
228.205
 20
137.3
 21
135.8
  0
ARC
  8
COSTRUZIONI
 10
228.916
 20
136.158
 40
0.351
 50
206.233
 51
333.767
  0
ARC
  8
COSTRUZIONI
 10
228.692
 20
136.273
 40
0.603
 50
333.418
 51
26.581
  0
ARC
  8
COSTRUZIONI
 10
228.916
 20
136.388
 40
0.351
 50
26.232
 51
153.768
  0
ARC
  8
COSTRUZIONI
 10
229.141
 20
136.273
 40
0.603
 50
153.418
 51
206.582
  0
LINE
  8
COSTRUZIONI
 10
230.257
 11
230.257
 20
135.8
 21
137.15
  0
ARC
  8
COSTRUZIONI
 10
229.94
 20
136.329
 40
0.386
 50
34.919
 51
89.788
  0
ARC
  8
COSTRUZIONI
 10
229.942
 20
136.362
 40
0.353
 50
90.108
 51
153.411
  0
ARC
  8
COSTRUZIONI
 10
230.166
 20
136.25
 40
0.603
 50
153.418
 51
206.581
  0
ARC
  8
COSTRUZIONI
 10
229.942
 20
136.138
 40
0.353
 50
206.589
 51
269.893
  0
ARC
  8
COSTRUZIONI
 10
229.94
 20
136.171
 40
0.386
 50
270.211
 51
325.081
  0
LINE
  8
COSTRUZIONI
 10
230.706
 11
230.556
 20
135.8
 21
135.8
  0
LINE
  8
COSTRUZIONI
 10
230.556
 11
230.556
 20
135.8
 21
135.95
  0
LINE
  8
COSTRUZIONI
 10
230.556
 11
230.706
 20
135.95
 21
135.95
  0
LINE
  8
COSTRUZIONI
 10
230.706
 11
230.706
 20
135.95
 21
135.8
  0
LINE
  8
COSTRUZIONI
 10
232.473
 11
233.556
 20
137.301
 21
137.301
  0
LINE
  8
COSTRUZIONI
 10
233.556
 11
233.556
 20
137.301
 21
137.217
  0
ARC
  8
COSTRUZIONI
 10
234.579
 20
135.851
 40
1.707
 50
126.815
 51
181.684
  0
ARC
  8
COSTRUZIONI
 10
234.407
 20
136.273
 40
0.491
 50
218.689
 51
321.311
  0
ARC
  8
COSTRUZIONI
 10
234.081
 20
136.541
 40
0.913
 50
320.978
 51
39.021
  0
ARC
  8
COSTRUZIONI
 10
234.407
 20
136.809
 40
0.491
 50
38.688
 51
141.313
  0
ARC
  8
COSTRUZIONI
 10
234.733
 20
136.541
 40
0.913
 50
140.979
 51
219.021
  0
ARC
  8
COSTRUZIONI
 10
235.881
 20
136.273
 40
0.491
 50
218.689
 51
321.311
  0
ARC
  8
COSTRUZIONI
 10
235.555
 20
136.541
 40
0.913
 50
320.978
 51
39.021
  0
ARC
  8
COSTRUZIONI
 10
235.881
 20
136.809
 40
0.491
 50
38.688
 51
141.313
  0
ARC
  8
COSTRUZIONI
 10
236.207
 20
136.541
 40
0.913
 50
140.979
 51
219.021
  0
ARC
  8
COSTRUZIONI
 10
228.363
 20
138.951
 40
0.411
 50
42.904
 51
122.546
  0
ARC
  8
COSTRUZIONI
 10
228.258
 20
139.121
 40
0.211
 50
123.307
 51
253.426
  0
LINE
  8
COSTRUZIONI
 10
228.198
 11
228.531
 20
138.919
 21
138.808
  0
ARC
  8
COSTRUZIONI
 10
228.463
 20
138.593
 40
0.226
 50
299.838
 51
72.504
  0
ARC
  8
COSTRUZIONI
 10
228.359
 20
138.773
 40
0.434
 50
240.023
 51
299.974
  0
ARC
  8
COSTRUZIONI
 10
228.261
 20
138.605
 40
0.239
 50
209.759
 51
240.255
  0
ARC
  8
COSTRUZIONI
 10
229.135
 20
138.697
 40
0.257
 50
34.919
 51
89.788
  0
ARC
  8
COSTRUZIONI
 10
229.136
 20
138.719
 40
0.235
 50
90.108
 51
153.411
  0
ARC
  8
COSTRUZIONI
 10
229.285
 20
138.644
 40
0.402
 50
153.418
 51
206.581
  0
ARC
  8
COSTRUZIONI
 10
229.136
 20
138.569
 40
0.235
 50
206.589
 51
269.893
  0
ARC
  8
COSTRUZIONI
 10
229.135
 20
138.591
 40
0.257
 50
270.211
 51
325.081
  0
ARC
  8
COSTRUZIONI
 10
229.795
 20
138.709
 40
0.257
 50
34.919
 51
89.788
  0
ARC
  8
COSTRUZIONI
 10
229.797
 20
138.731
 40
0.235
 50
90.108
 51
153.411
  0
ARC
  8
COSTRUZIONI
 10
229.946
 20
138.656
 40
0.402
 50
153.418
 51
206.581
  0
ARC
  8
COSTRUZIONI
 10
229.797
 20
138.582
 40
0.235
 50
206.589
 51
269.893
  0
ARC
  8
COSTRUZIONI
 10
229.795
 20
138.604
 40
0.257
 50
270.211
 51
325.081
  0
LINE
  8
COSTRUZIONI
 10
230.01
 11
230.01
 20
138.991
 21
138.361
  0
LINE
  8
COSTRUZIONI
 10
230.363
 11
230.363
 20
138.344
 21
139.244
  0
LINE
  8
COSTRUZIONI
 10
230.363
 11
230.29
 20
139.244
 21
139.244
  0
LINE
  8
COSTRUZIONI
 10
230.206
 11
230.363
 20
138.344
 21
138.344
  0
LINE
  8
COSTRUZIONI
 10
230.363
 11
230.521
 20
138.344
 21
138.344
  0
ARC
  8
COSTRUZIONI
 10
230.977
 20
138.709
 40
0.257
 50
34.919
 51
89.788
  0
ARC
  8
COSTRUZIONI
 10
230.978
 20
138.731
 40
0.235
 50
90.108
 51
153.411
  0
ARC
  8
COSTRUZIONI
 10
231.127
 20
138.656
 40
0.402
 50
153.418
 51
206.581
  0
ARC
  8
COSTRUZIONI
 10
230.978
 20
138.582
 40
0.235
 50
206.589
 51
269.893
  0
ARC
  8
COSTRUZIONI
 10
230.977
 20
138.604
 40
0.257
 50
270.211
 51
325.081
  0
LINE
  8
COSTRUZIONI
 10
231.191
 11
231.191
 20
138.991
 21
138.361
  0
LINE
  8
COSTRUZIONI
 10
232.337
 11
232.508
 20
138.344
 21
138.344
  0
LINE
  8
COSTRUZIONI
 10
232.508
 11
232.68
 20
138.344
 21
138.344
  0
LINE
  8
COSTRUZIONI
 10
232.508
 11
232.508
 20
138.344
 21
139.344
  0
LINE
  8
COSTRUZIONI
 10
232.508
 11
232.337
 20
139.344
 21
139.172
  0
LINE
  8
COSTRUZIONI
 10
232.93
 11
232.88
 20
138.975
 21
138.975
  0
LINE
  8
COSTRUZIONI
 10
232.88
 11
232.88
 20
138.975
 21
139.025
  0
LINE
  8
COSTRUZIONI
 10
232.88
 11
232.93
 20
139.025
 21
139.025
  0
LINE
  8
COSTRUZIONI
 10
232.93
 11
232.93
 20
139.025
 21
138.975
  0
LINE
  8
COSTRUZIONI
 10
232.93
 11
232.88
 20
138.575
 21
138.575
  0
LINE
  8
COSTRUZIONI
 10
232.88
 11
232.88
 20
138.575
 21
138.625
  0
LINE
  8
COSTRUZIONI
 10
232.88
 11
232.93
 20
138.625
 21
138.625
  0
LINE
  8
COSTRUZIONI
 10
232.93
 11
232.93
 20
138.625
 21
138.575
  0
LINE
  8
COSTRUZIONI
 10
233.993
 11
233.16
 20
138.678
 21
138.678
  0
LINE
  8
COSTRUZIONI
 10
233.16
 11
233.16
 20
138.678
 21
138.733
  0
LINE
  8
COSTRUZIONI
 10
233.16
 11
233.715
 20
138.733
 21
139.344
  0
LINE
  8
COSTRUZIONI
 10
233.715
 11
233.771
 20
139.344
 21
139.344
  0
LINE
  8
COSTRUZIONI
 10
233.771
 11
233.771
 20
139.344
 21
138.344
  0
ARC
  8
COSTRUZIONI
 10
234.558
 20
138.659
 40
0.327
 50
218.689
 51
321.311
  0
ARC
  8
COSTRUZIONI
 10
234.341
 20
138.838
 40
0.609
 50
320.978
 51
39.021
  0
ARC
  8
COSTRUZIONI
 10
234.558
 20
139.017
 40
0.327
 50
38.688
 51
141.313
  0
ARC
  8
COSTRUZIONI
 10
234.776
 20
138.838
 40
0.609
 50
140.979
 51
219.021
  0
ARC
  8
BASE
 10
231.52
 20
151.174
 40
38.626
 50
77.781
 51
102.219
  0
LINE
  8
BASE
 10
223.345
 11
223.745
 20
188.925
 21
188.525
  0
ARC
  8
BASE
 10
231.508
 20
154.524
 40
34.876
 50
95.418
 51
102.861
  0
LINE
  8
BASE
 10
228.215
 11
228.215
 20
189.244
 21
181.345
  0
LINE
  8
BASE
 10
228.215
 11
223.745
 20
181.345
 21
181.345
  0
LINE
  8
BASE
 10
223.745
 11
223.745
 20
181.345
 21
188.525
  0
LINE
  8
BASE
 10
223.745
 11
224.245
 20
188.525
 21
188.124
  0
ARC
  8
BASE
 10
231.508
 20
154.524
 40
34.376
 50
96.335
 51
102.198
  0
LINE
  8
BASE
 10
227.715
 11
227.715
 20
188.69
 21
181.845
  0
LINE
  8
BASE
 10
227.715
 11
224.245
 20
181.845
 21
181.845
  0
LINE
  8
BASE
 10
224.245
 11
223.345
 20
181.845
 21
180.945
  0
LINE
  8
BASE
 10
223.345
 11
239.695
 20
180.945
 21
180.945
  0
LINE
  8
BASE
 10
239.695
 11
238.795
 20
180.945
 21
181.845
  0
LINE
  8
BASE
 10
238.795
 11
238.795
 20
181.845
 21
188.119
  0
LINE
  8
BASE
 10
238.795
 11
239.272
 20
188.119
 21
188.525
  0
LINE
  8
BASE
 10
239.272
 11
239.695
 20
188.525
 21
188.925
  0
ARC
  8
BASE
 10
231.508
 20
154.524
 40
34.376
 50
87.192
 51
92.776
  0
LINE
  8
BASE
 10
229.844
 11
229.844
 20
188.86
 21
181.962
  0
LINE
  8
BASE
 10
229.844
 11
233.192
 20
181.962
 21
181.962
  0
LINE
  8
BASE
 10
233.192
 11
234.065
 20
181.962
 21
180.945
  0
LINE
  8
BASE
 10
234.065
 11
234.065
 20
180.945
 21
189.716
  0
LINE
  8
BASE
 10
234.065
 11
233.675
 20
189.716
 21
189.333
  0
LINE
  8
BASE
 10
233.675
 11
233.192
 20
189.333
 21
188.859
  0
LINE
  8
BASE
 10
233.192
 11
233.192
 20
188.859
 21
181.962
  0
ARC
  8
BASE
 10
231.508
 20
154.524
 40
34.876
 50
86.439
 51
93.53
  0
LINE
  8
BASE
 10
229.361
 11
229.361
 20
189.334
 21
181.397
  0
LINE
  8
BASE
 10
229.361
 11
233.675
 20
181.397
 21
181.397
  0
LINE
  8
BASE
 10
233.675
 11
233.675
 20
181.397
 21
189.333
  0
ARC
  8
BASE
 10
231.508
 20
154.524
 40
34.376
 50
77.762
 51
83.625
  0
LINE
  8
BASE
 10
235.325
 11
235.325
 20
188.687
 21
181.845
  0
LINE
  8
BASE
 10
235.325
 11
238.795
 20
181.845
 21
181.845
  0
ARC
  8
BASE
 10
231.508
 20
154.524
 40
34.876
 50
77.139
 51
84.543
  0
LINE
  8
BASE
 10
234.825
 11
234.825
 20
189.242
 21
181.345
  0
LINE
  8
BASE
 10
234.825
 11
239.295
 20
181.345
 21
181.345
  0
LINE
  8
BASE
 10
239.295
 11
239.295
 20
181.345
 21
188.525
  0
LINE
  8
BASE
 10
223.345
 11
223.345
 20
193.4
 21
144.5
  0
LINE
  8
BASE
 10
223.345
 11
239.695
 20
144.5
 21
144.5
  0
LINE
  8
BASE
 10
239.695
 11
238.42
 20
144.5
 21
145.775
  0
LINE
  8
BASE
 10
238.42
 11
238.42
 20
145.775
 21
159.025
  0
LINE
  8
BASE
 10
238.42
 11
224.62
 20
159.025
 21
159.025
  0
LINE
  8
BASE
 10
224.62
 11
223.345
 20
159.025
 21
160.3
  0
LINE
  8
BASE
 10
223.345
 11
239.695
 20
160.3
 21
160.3
  0
LINE
  8
BASE
 10
239.695
 11
238.42
 20
160.3
 21
159.025
  0
LINE
  8
BASE
 10
223.345
 11
223.345
 20
140.4
 21
144.5
  0
LINE
  8
BASE
 10
223.345
 11
224.62
 20
144.5
 21
145.775
  0
LINE
  8
BASE
 10
224.62
 11
224.62
 20
145.775
 21
159.025
  0
LINE
  8
BASE
 10
223.745
 11
223.745
 20
144.9
 21
159.9
  0
LINE
  8
BASE
 10
223.745
 11
239.295
 20
159.9
 21
159.9
  0
LINE
  8
BASE
 10
239.295
 11
239.295
 20
159.9
 21
144.9
  0
LINE
  8
BASE
 10
239.295
 11
223.745
 20
144.9
 21
144.9
  0
LINE
  8
BASE
 10
239.695
 11
239.695
 20
140.4
 21
193.4
  0
LINE
  8
BASE
 10
239.695
 11
223.345
 20
162.375
 21
162.375
  0
LINE
  8
BASE
 10
223.345
 11
239.695
 20
162.375
 21
162.375
  0
LINE
  8
BASE
 10
238.42
 11
224.62
 20
145.775
 21
145.775
  0
LINE
  8
BASE
 10
220.995
 11
220.995
 20
140.4
 21
193.275
  0
LINE
  8
BASE
 10
220.995
 11
242.045
 20
193.275
 21
193.275
  0
LINE
  8
BASE
 10
242.045
 11
242.045
 20
193.275
 21
140.4
  0
LINE
  8
BASE
 10
242.17
 11
242.17
 20
140.4
 21
193.4
  0
LINE
  8
BASE
 10
242.17
 11
220.87
 20
193.4
 21
193.4
  0
LINE
  8
BASE
 10
220.87
 11
220.87
 20
193.4
 21
193.9
  0
LINE
  8
BASE
 10
244.245
 11
244.245
 20
140.4
 21
195.47
  0
LINE
  8
BASE
 10
244.245
 11
242.67
 20
195.47
 21
195.475
  0
LINE
  8
BASE
 10
242.67
 11
220.37
 20
195.475
 21
195.475
  0
LINE
  8
BASE
 10
220.37
 11
218.795
 20
195.475
 21
195.484
  0
LINE
  8
BASE
 10
218.795
 11
220.37
 20
195.484
 21
193.9
  0
LINE
  8
BASE
 10
220.37
 11
220.37
 20
193.9
 21
140.4
  0
LINE
  8
BASE
 10
220.37
 11
242.67
 20
140.4
 21
140.4
  0
LINE
  8
BASE
 10
242.67
 11
242.67
 20
140.4
 21
193.9
  0
LINE
  8
BASE
 10
242.67
 11
220.37
 20
193.9
 21
193.9
  0
LINE
  8
BASE
 10
242.17
 11
242.17
 20
193.4
 21
193.9
  0
LINE
  8
BASE
 10
242.67
 11
244.245
 20
193.9
 21
195.47
  0
LINE
  8
BASE
 10
218.795
 11
218.795
 20
140.4
 21
195.484
  0
LINE
  8
BASE
 10
220.87
 11
220.87
 20
140.4
 21
193.4
  0
LINE
  8
BASE
 10
242.67
 11
250.437
 20
140.4
 21
140.4
  0
LINE
  8
BASE
 10
220.37
 11
212.77
 20
140.4
 21
140.4
  0
LINE
  8
BASE
 10
228.215
 11
223.745
 20
162.775
 21
162.775
  0
LINE
  8
BASE
 10
223.745
 11
223.745
 20
162.775
 21
170.9
  0
LINE
  8
BASE
 10
223.745
 11
228.215
 20
170.9
 21
170.9
  0
LINE
  8
BASE
 10
228.215
 11
228.215
 20
170.9
 21
162.775
  0
LINE
  8
BASE
 10
239.695
 11
223.345
 20
171.3
 21
171.3
  0
LINE
  8
BASE
 10
223.345
 11
224.241
 20
171.3
 21
170.416
  0
LINE
  8
BASE
 10
224.241
 11
227.693
 20
170.416
 21
170.416
  0
LINE
  8
BASE
 10
227.693
 11
227.693
 20
170.416
 21
163.257
  0
LINE
  8
BASE
 10
227.693
 11
228.589
 20
163.257
 21
162.375
  0
LINE
  8
BASE
 10
239.695
 11
223.345
 20
171.66
 21
171.66
  0
LINE
  8
BASE
 10
223.345
 11
224.233
 20
171.66
 21
172.535
  0
LINE
  8
BASE
 10
224.233
 11
224.233
 20
172.535
 21
179.636
  0
LINE
  8
BASE
 10
224.233
 11
223.345
 20
179.636
 21
180.511
  0
LINE
  8
BASE
 10
228.215
 11
223.745
 20
172.06
 21
172.06
  0
LINE
  8
BASE
 10
223.745
 11
223.745
 20
172.06
 21
180.185
  0
LINE
  8
BASE
 10
223.745
 11
228.215
 20
180.185
 21
180.185
  0
LINE
  8
BASE
 10
228.215
 11
228.215
 20
180.185
 21
172.06
  0
LINE
  8
BASE
 10
239.695
 11
223.345
 20
180.585
 21
180.585
  0
LINE
  8
BASE
 10
224.672
 11
224.907
 20
181.448
 21
181.697
  0
LINE
  8
BASE
 10
224.567
 11
226.5
 20
185.444
 21
182.35
  0
LINE
  8
BASE
 10
224.245
 11
224.245
 20
181.845
 21
188.124
  0
LINE
  8
BASE
 10
224.188
 11
223.914
 20
185.444
 21
185.024
  0
LINE
  8
BASE
 10
224.045
 11
223.914
 20
185.351
 21
185.475
  0
LINE
  8
BASE
 10
224.319
 11
224.672
 20
182.925
 21
182.397
  0
LINE
  8
BASE
 10
224.019
 11
223.836
 20
184.776
 21
184.573
  0
LINE
  8
BASE
 10
224.149
 11
223.875
 20
187.947
 21
187.621
  0
LINE
  8
BASE
 10
228.615
 11
228.615
 20
171.3
 21
162.375
  0
LINE
  8
BASE
 10
228.975
 11
228.975
 20
171.3
 21
162.375
  0
LINE
  8
BASE
 10
228.975
 11
229.844
 20
162.375
 21
163.257
  0
LINE
  8
BASE
 10
229.844
 11
229.844
 20
163.257
 21
170.416
  0
LINE
  8
BASE
 10
229.844
 11
228.975
 20
170.416
 21
171.3
  0
LINE
  8
BASE
 10
229.844
 11
233.192
 20
170.416
 21
170.416
  0
LINE
  8
BASE
 10
233.192
 11
234.065
 20
170.416
 21
171.3
  0
LINE
  8
BASE
 10
234.065
 11
234.065
 20
171.3
 21
162.375
  0
LINE
  8
BASE
 10
234.065
 11
233.192
 20
162.375
 21
163.257
  0
LINE
  8
BASE
 10
233.192
 11
229.844
 20
163.257
 21
163.257
  0
LINE
  8
BASE
 10
234.425
 11
234.425
 20
171.3
 21
162.375
  0
LINE
  8
BASE
 10
234.425
 11
235.321
 20
162.375
 21
163.257
  0
LINE
  8
BASE
 10
235.321
 11
235.321
 20
163.257
 21
170.416
  0
LINE
  8
BASE
 10
235.321
 11
234.425
 20
170.416
 21
171.3
  0
LINE
  8
BASE
 10
239.295
 11
239.295
 20
170.9
 21
162.775
  0
LINE
  8
BASE
 10
239.295
 11
234.825
 20
162.775
 21
162.775
  0
LINE
  8
BASE
 10
234.825
 11
234.825
 20
162.775
 21
170.9
  0
LINE
  8
BASE
 10
234.825
 11
239.295
 20
170.9
 21
170.9
  0
LINE
  8
BASE
 10
229.375
 11
229.375
 20
170.9
 21
162.775
  0
LINE
  8
BASE
 10
229.375
 11
233.665
 20
162.775
 21
162.775
  0
LINE
  8
BASE
 10
233.665
 11
233.665
 20
162.775
 21
170.9
  0
LINE
  8
BASE
 10
233.665
 11
229.375
 20
170.9
 21
170.9
  0
LINE
  8
BASE
 10
235.325
 11
234.825
 20
188.687
 21
189.242
  0
LINE
  8
BASE
 10
234.825
 11
234.425
 20
189.242
 21
189.691
  0
LINE
  8
BASE
 10
234.425
 11
234.425
 20
189.691
 21
180.945
  0
LINE
  8
BASE
 10
234.425
 11
235.325
 20
180.945
 21
181.845
  0
LINE
  8
BASE
 10
229.844
 11
229.361
 20
188.86
 21
189.334
  0
LINE
  8
BASE
 10
229.361
 11
228.975
 20
189.334
 21
189.716
  0
LINE
  8
BASE
 10
228.975
 11
228.975
 20
189.716
 21
180.945
  0
LINE
  8
BASE
 10
228.975
 11
229.844
 20
180.945
 21
181.962
  0
LINE
  8
BASE
 10
227.715
 11
228.215
 20
188.69
 21
189.244
  0
LINE
  8
BASE
 10
228.215
 11
228.615
 20
189.244
 21
189.691
  0
LINE
  8
BASE
 10
228.615
 11
228.615
 20
189.691
 21
180.945
  0
LINE
  8
BASE
 10
228.615
 11
227.715
 20
180.945
 21
181.845
  0
LINE
  8
BASE
 10
239.295
 11
239.295
 20
180.185
 21
172.06
  0
LINE
  8
BASE
 10
239.295
 11
234.825
 20
172.06
 21
172.06
  0
LINE
  8
BASE
 10
234.825
 11
234.825
 20
172.06
 21
180.185
  0
LINE
  8
BASE
 10
234.825
 11
239.295
 20
180.185
 21
180.185
  0
LINE
  8
BASE
 10
233.665
 11
233.665
 20
180.185
 21
172.06
  0
LINE
  8
BASE
 10
233.665
 11
229.375
 20
172.06
 21
172.06
  0
LINE
  8
BASE
 10
229.375
 11
229.375
 20
172.06
 21
180.185
  0
LINE
  8
BASE
 10
229.375
 11
233.665
 20
180.185
 21
180.185
  0
LINE
  8
BASE
 10
234.425
 11
234.425
 20
180.585
 21
171.66
  0
LINE
  8
BASE
 10
234.425
 11
235.321
 20
171.66
 21
172.535
  0
LINE
  8
BASE
 10
235.321
 11
235.321
 20
172.535
 21
179.636
  0
LINE
  8
BASE
 10
235.321
 11
234.425
 20
179.636
 21
180.511
  0
LINE
  8
BASE
 10
234.065
 11
234.065
 20
180.585
 21
171.66
  0
LINE
  8
BASE
 10
228.975
 11
228.975
 20
180.585
 21
171.66
  0
LINE
  8
BASE
 10
228.975
 11
229.851
 20
171.66
 21
172.536
  0
LINE
  8
BASE
 10
229.851
 11
229.851
 20
172.536
 21
179.643
  0
LINE
  8
BASE
 10
229.851
 11
228.975
 20
179.643
 21
180.519
  0
LINE
  8
BASE
 10
228.615
 11
228.615
 20
180.585
 21
171.66
  0
LINE
  8
BASE
 10
236.814
 11
236.396
 20
186.595
 21
185.848
  0
LINE
  8
BASE
 10
226.226
 11
226.644
 20
186.595
 21
185.848
  0
LINE
  8
BASE
 10
231.726
 11
232.144
 20
186.695
 21
185.948
  0
LINE
  8
BASE
 10
232.692
 11
232.901
 20
181.875
 21
181.719
  0
LINE
  8
BASE
 10
229.688
 11
229.414
 20
185.544
 21
185.124
  0
LINE
  8
BASE
 10
226.813
 11
227.231
 20
186.393
 21
185.646
  0
LINE
  8
BASE
 10
227.845
 11
228.093
 20
185.444
 21
185.242
  0
LINE
  8
BASE
 10
228.028
 11
228.159
 20
185.444
 21
185.6
  0
LINE
  8
BASE
 10
226.709
 11
226.853
 20
181.573
 21
181.448
  0
LINE
  8
BASE
 10
225.599
 11
226.082
 20
182.599
 21
181.899
  0
LINE
  8
BASE
 10
225.09
 11
225.325
 20
181.573
 21
181.775
  0
LINE
  8
BASE
 10
232.209
 11
232.353
 20
181.673
 21
181.548
  0
LINE
  8
BASE
 10
230.59
 11
230.825
 20
181.673
 21
181.875
  0
LINE
  8
BASE
 10
230.172
 11
230.407
 20
181.548
 21
181.797
  0
LINE
  8
BASE
 10
229.819
 11
230.172
 20
183.025
 21
182.497
  0
LINE
  8
BASE
 10
229.519
 11
229.336
 20
184.876
 21
184.673
  0
LINE
  8
BASE
 10
227.78
 11
227.989
 20
182.599
 21
182.35
  0
LINE
  8
BASE
 10
227.924
 11
228.133
 20
183.298
 21
183.019
  0
LINE
  8
BASE
 10
227.884
 11
228.028
 20
182.894
 21
182.77
  0
LINE
  8
BASE
 10
227.192
 11
227.401
 20
181.775
 21
181.619
  0
LINE
  8
BASE
 10
230.067
 11
232.0
 20
185.544
 21
182.45
  0
LINE
  8
BASE
 10
233.528
 11
233.659
 20
185.544
 21
185.7
  0
LINE
  8
BASE
 10
233.345
 11
233.593
 20
185.544
 21
185.342
  0
LINE
  8
BASE
 10
238.995
 11
239.126
 20
185.351
 21
185.475
  0
LINE
  8
BASE
 10
235.012
 11
234.881
 20
185.444
 21
185.6
  0
LINE
  8
BASE
 10
235.195
 11
234.947
 20
185.444
 21
185.242
  0
LINE
  8
BASE
 10
238.852
 11
239.126
 20
185.444
 21
185.024
  0
LINE
  8
BASE
 10
236.227
 11
235.809
 20
186.393
 21
185.646
  0
LINE
  8
BASE
 10
233.384
 11
233.528
 20
182.994
 21
182.87
  0
LINE
  8
BASE
 10
233.424
 11
233.633
 20
183.398
 21
183.119
  0
LINE
  8
BASE
 10
233.28
 11
233.489
 20
182.699
 21
182.45
  0
LINE
  8
BASE
 10
235.848
 11
235.639
 20
181.775
 21
181.619
  0
LINE
  8
BASE
 10
236.331
 11
236.187
 20
181.573
 21
181.448
  0
LINE
  8
BASE
 10
237.95
 11
237.715
 20
181.573
 21
181.775
  0
LINE
  8
BASE
 10
238.368
 11
238.133
 20
181.448
 21
181.697
  0
LINE
  8
BASE
 10
235.156
 11
235.012
 20
182.894
 21
182.77
  0
LINE
  8
BASE
 10
235.116
 11
234.907
 20
183.298
 21
183.019
  0
LINE
  8
BASE
 10
235.26
 11
235.051
 20
182.599
 21
182.35
  0
LINE
  8
BASE
 10
239.021
 11
239.204
 20
184.776
 21
184.573
  0
LINE
  8
BASE
 10
238.721
 11
238.368
 20
182.925
 21
182.397
  0
LINE
  8
BASE
 10
237.441
 11
236.958
 20
182.599
 21
181.899
  0
LINE
  8
BASE
 10
238.473
 11
236.54
 20
185.444
 21
182.35
  0
LINE
  8
BASE
 10
226.187
 11
227.088
 20
188.398
 21
186.719
  0
LINE
  8
BASE
 10
229.649
 11
229.375
 20
188.047
 21
187.721
  0
LINE
  8
BASE
 10
231.687
 11
232.588
 20
188.498
 21
186.819
  0
LINE
  8
BASE
 10
227.819
 11
227.989
 20
187.994
 21
188.243
  0
LINE
  8
BASE
 10
227.884
 11
228.093
 20
188.321
 21
188.694
  0
LINE
  8
BASE
 10
233.384
 11
233.593
 20
188.421
 21
188.794
  0
LINE
  8
BASE
 10
233.319
 11
233.489
 20
188.094
 21
188.343
  0
LINE
  8
BASE
 10
235.156
 11
234.947
 20
188.321
 21
188.694
  0
LINE
  8
BASE
 10
235.221
 11
235.051
 20
187.994
 21
188.243
  0
LINE
  8
BASE
 10
238.891
 11
239.165
 20
187.947
 21
187.621
  0
LINE
  8
BASE
 10
236.853
 11
235.952
 20
188.398
 21
186.719
  0
LINE
  8
BASE
 10
239.695
 11
239.695
 20
189.65
 21
190.05
  0
LINE
  8
BASE
 10
239.695
 11
239.695
 20
190.05
 21
189.65
  0
LINE
  8
BASE
 10
227.693
 11
224.241
 20
163.257
 21
163.257
  0
LINE
  8
BASE
 10
224.241
 11
224.241
 20
163.257
 21
170.416
  0
LINE
  8
BASE
 10
227.693
 11
228.589
 20
170.416
 21
171.298
  0
LINE
  8
BASE
 10
226.172
 11
227.069
 20
169.679
 21
168.034
  0
LINE
  8
BASE
 10
224.145
 11
224.015
 20
169.649
 21
169.436
  0
LINE
  8
BASE
 10
224.145
 11
223.872
 20
169.237
 21
168.917
  0
LINE
  8
BASE
 10
225.38
 11
225.588
 20
170.807
 21
170.609
  0
LINE
  8
BASE
 10
227.238
 11
227.446
 20
170.533
 21
170.685
  0
LINE
  8
BASE
 10
227.797
 11
227.966
 20
169.283
 21
169.527
  0
LINE
  8
BASE
 10
227.862
 11
228.07
 20
169.603
 21
169.969
  0
LINE
  8
BASE
 10
224.561
 11
226.484
 20
166.784
 21
163.752
  0
LINE
  8
BASE
 10
224.015
 11
223.833
 20
166.129
 21
165.931
  0
LINE
  8
BASE
 10
224.241
 11
223.345
 20
163.257
 21
162.375
  0
LINE
  8
BASE
 10
225.588
 11
226.068
 20
163.996
 21
163.31
  0
LINE
  8
BASE
 10
224.314
 11
224.665
 20
164.316
 21
163.798
  0
LINE
  8
BASE
 10
227.758
 11
227.966
 20
163.996
 21
163.752
  0
LINE
  8
BASE
 10
227.901
 11
228.109
 20
164.681
 21
164.407
  0
LINE
  8
BASE
 10
227.862
 11
228.005
 20
164.285
 21
164.163
  0
LINE
  8
BASE
 10
224.665
 11
224.899
 20
162.868
 21
163.112
  0
LINE
  8
BASE
 10
225.081
 11
225.315
 20
162.99
 21
163.188
  0
LINE
  8
BASE
 10
226.692
 11
226.835
 20
162.99
 21
162.868
  0
LINE
  8
BASE
 10
227.173
 11
227.381
 20
163.188
 21
163.036
  0
LINE
  8
BASE
 10
226.211
 11
226.627
 20
167.912
 21
167.18
  0
LINE
  8
BASE
 10
226.796
 11
227.212
 20
167.714
 21
166.982
  0
LINE
  8
BASE
 10
224.184
 11
223.911
 20
166.784
 21
166.373
  0
LINE
  8
BASE
 10
227.823
 11
228.07
 20
166.784
 21
166.586
  0
LINE
  8
BASE
 10
228.005
 11
228.135
 20
166.784
 21
166.937
  0
LINE
  8
BASE
 10
224.041
 11
223.911
 20
166.693
 21
166.815
  0
LINE
  8
BASE
 10
228.547
 11
227.658
 20
180.511
 21
179.636
  0
LINE
  8
BASE
 10
227.658
 11
227.658
 20
179.636
 21
172.535
  0
LINE
  8
BASE
 10
227.658
 11
228.547
 20
172.535
 21
171.66
  0
LINE
  8
BASE
 10
224.233
 11
227.658
 20
179.636
 21
179.636
  0
LINE
  8
BASE
 10
226.15
 11
227.039
 20
178.905
 21
177.273
  0
LINE
  8
BASE
 10
224.139
 11
224.01
 20
178.875
 21
178.663
  0
LINE
  8
BASE
 10
224.139
 11
223.868
 20
178.467
 21
178.149
  0
LINE
  8
BASE
 10
225.363
 11
225.57
 20
180.024
 21
179.827
  0
LINE
  8
BASE
 10
227.207
 11
227.413
 20
179.752
 21
179.903
  0
LINE
  8
BASE
 10
227.761
 11
227.929
 20
178.512
 21
178.754
  0
LINE
  8
BASE
 10
227.825
 11
228.032
 20
178.83
 21
179.192
  0
LINE
  8
BASE
 10
224.551
 11
226.459
 20
176.033
 21
173.026
  0
LINE
  8
BASE
 10
224.01
 11
223.829
 20
175.384
 21
175.187
  0
LINE
  8
BASE
 10
227.658
 11
224.233
 20
172.535
 21
172.535
  0
LINE
  8
BASE
 10
225.57
 11
226.047
 20
173.268
 21
172.587
  0
LINE
  8
BASE
 10
224.306
 11
224.654
 20
173.585
 21
173.071
  0
LINE
  8
BASE
 10
227.722
 11
227.929
 20
173.268
 21
173.026
  0
LINE
  8
BASE
 10
227.864
 11
228.07
 20
173.948
 21
173.676
  0
LINE
  8
BASE
 10
227.825
 11
227.967
 20
173.555
 21
173.434
  0
LINE
  8
BASE
 10
224.654
 11
224.886
 20
172.149
 21
172.391
  0
LINE
  8
BASE
 10
225.067
 11
225.299
 20
172.27
 21
172.466
  0
LINE
  8
BASE
 10
226.665
 11
226.807
 20
172.27
 21
172.149
  0
LINE
  8
BASE
 10
227.142
 11
227.349
 20
172.466
 21
172.315
  0
LINE
  8
BASE
 10
226.188
 11
226.601
 20
177.152
 21
176.426
  0
LINE
  8
BASE
 10
226.768
 11
227.181
 20
176.955
 21
176.23
  0
LINE
  8
BASE
 10
224.177
 11
223.907
 20
176.033
 21
175.625
  0
LINE
  8
BASE
 10
227.787
 11
228.032
 20
176.033
 21
175.837
  0
LINE
  8
BASE
 10
227.967
 11
228.096
 20
176.033
 21
176.185
  0
LINE
  8
BASE
 10
224.036
 11
223.907
 20
175.943
 21
176.064
  0
LINE
  8
BASE
 10
239.669
 11
238.773
 20
171.298
 21
170.416
  0
LINE
  8
BASE
 10
238.773
 11
238.773
 20
170.416
 21
163.257
  0
LINE
  8
BASE
 10
238.773
 11
239.669
 20
163.257
 21
162.375
  0
LINE
  8
BASE
 10
235.321
 11
238.773
 20
170.416
 21
170.416
  0
LINE
  8
BASE
 10
237.252
 11
238.149
 20
169.679
 21
168.034
  0
LINE
  8
BASE
 10
235.225
 11
235.095
 20
169.649
 21
169.436
  0
LINE
  8
BASE
 10
235.225
 11
234.952
 20
169.237
 21
168.917
  0
LINE
  8
BASE
 10
236.46
 11
236.668
 20
170.807
 21
170.609
  0
LINE
  8
BASE
 10
238.318
 11
238.526
 20
170.533
 21
170.685
  0
LINE
  8
BASE
 10
238.877
 11
239.046
 20
169.283
 21
169.527
  0
LINE
  8
BASE
 10
238.942
 11
239.15
 20
169.603
 21
169.969
  0
LINE
  8
BASE
 10
235.641
 11
237.564
 20
166.784
 21
163.752
  0
LINE
  8
BASE
 10
235.095
 11
234.913
 20
166.129
 21
165.931
  0
LINE
  8
BASE
 10
238.773
 11
235.321
 20
163.257
 21
163.257
  0
LINE
  8
BASE
 10
236.668
 11
237.148
 20
163.996
 21
163.31
  0
LINE
  8
BASE
 10
235.394
 11
235.745
 20
164.316
 21
163.798
  0
LINE
  8
BASE
 10
238.838
 11
239.046
 20
163.996
 21
163.752
  0
LINE
  8
BASE
 10
238.981
 11
239.189
 20
164.681
 21
164.407
  0
LINE
  8
BASE
 10
238.942
 11
239.085
 20
164.285
 21
164.163
  0
LINE
  8
BASE
 10
235.745
 11
235.979
 20
162.868
 21
163.112
  0
LINE
  8
BASE
 10
236.161
 11
236.395
 20
162.99
 21
163.188
  0
LINE
  8
BASE
 10
237.772
 11
237.915
 20
162.99
 21
162.868
  0
LINE
  8
BASE
 10
238.253
 11
238.461
 20
163.188
 21
163.036
  0
LINE
  8
BASE
 10
237.291
 11
237.707
 20
167.912
 21
167.18
  0
LINE
  8
BASE
 10
237.876
 11
238.292
 20
167.714
 21
166.982
  0
LINE
  8
BASE
 10
235.264
 11
234.991
 20
166.784
 21
166.373
  0
LINE
  8
BASE
 10
238.903
 11
239.15
 20
166.784
 21
166.586
  0
LINE
  8
BASE
 10
239.085
 11
239.215
 20
166.784
 21
166.937
  0
LINE
  8
BASE
 10
235.121
 11
234.991
 20
166.693
 21
166.815
  0
LINE
  8
BASE
 10
233.192
 11
233.192
 20
170.416
 21
163.257
  0
LINE
  8
BASE
 10
231.717
 11
232.587
 20
169.679
 21
168.034
  0
LINE
  8
BASE
 10
229.751
 11
229.625
 20
169.649
 21
169.436
  0
LINE
  8
BASE
 10
229.751
 11
229.486
 20
169.237
 21
168.917
  0
LINE
  8
BASE
 10
230.948
 11
231.15
 20
170.807
 21
170.609
  0
LINE
  8
BASE
 10
232.751
 11
232.952
 20
170.533
 21
170.685
  0
LINE
  8
BASE
 10
233.293
 11
233.456
 20
169.283
 21
169.527
  0
LINE
  8
BASE
 10
233.356
 11
233.557
 20
169.603
 21
169.969
  0
LINE
  8
BASE
 10
230.154
 11
232.02
 20
166.784
 21
163.752
  0
LINE
  8
BASE
 10
229.625
 11
229.449
 20
166.129
 21
165.931
  0
LINE
  8
BASE
 10
231.15
 11
231.616
 20
163.996
 21
163.31
  0
LINE
  8
BASE
 10
229.915
 11
230.255
 20
164.316
 21
163.798
  0
LINE
  8
BASE
 10
233.255
 11
233.456
 20
163.996
 21
163.752
  0
LINE
  8
BASE
 10
233.393
 11
233.595
 20
164.681
 21
164.407
  0
LINE
  8
BASE
 10
233.356
 11
233.494
 20
164.285
 21
164.163
  0
LINE
  8
BASE
 10
230.255
 11
230.482
 20
162.868
 21
163.112
  0
LINE
  8
BASE
 10
230.658
 11
230.885
 20
162.99
 21
163.188
  0
LINE
  8
BASE
 10
232.221
 11
232.36
 20
162.99
 21
162.868
  0
LINE
  8
BASE
 10
232.688
 11
232.889
 20
163.188
 21
163.036
  0
LINE
  8
BASE
 10
231.755
 11
232.158
 20
167.912
 21
167.18
  0
LINE
  8
BASE
 10
232.322
 11
232.725
 20
167.714
 21
166.982
  0
LINE
  8
BASE
 10
229.789
 11
229.524
 20
166.784
 21
166.373
  0
LINE
  8
BASE
 10
233.318
 11
233.557
 20
166.784
 21
166.586
  0
LINE
  8
BASE
 10
233.494
 11
233.62
 20
166.784
 21
166.937
  0
LINE
  8
BASE
 10
229.65
 11
229.524
 20
166.693
 21
166.815
  0
LINE
  8
BASE
 10
239.67
 11
238.774
 20
180.511
 21
179.636
  0
LINE
  8
BASE
 10
238.774
 11
238.774
 20
179.636
 21
172.535
  0
LINE
  8
BASE
 10
238.774
 11
239.67
 20
172.535
 21
171.66
  0
LINE
  8
BASE
 10
235.321
 11
238.774
 20
179.636
 21
179.636
  0
LINE
  8
BASE
 10
237.253
 11
238.15
 20
178.905
 21
177.273
  0
LINE
  8
BASE
 10
235.225
 11
235.095
 20
178.875
 21
178.663
  0
LINE
  8
BASE
 10
235.225
 11
234.952
 20
178.467
 21
178.149
  0
LINE
  8
BASE
 10
236.46
 11
236.668
 20
180.024
 21
179.827
  0
LINE
  8
BASE
 10
238.319
 11
238.527
 20
179.752
 21
179.903
  0
LINE
  8
BASE
 10
238.878
 11
239.046
 20
178.512
 21
178.754
  0
LINE
  8
BASE
 10
238.943
 11
239.15
 20
178.83
 21
179.192
  0
LINE
  8
BASE
 10
235.641
 11
237.565
 20
176.033
 21
173.026
  0
LINE
  8
BASE
 10
235.095
 11
234.913
 20
175.384
 21
175.187
  0
LINE
  8
BASE
 10
238.774
 11
235.321
 20
172.535
 21
172.535
  0
LINE
  8
BASE
 10
236.668
 11
237.149
 20
173.268
 21
172.587
  0
LINE
  8
BASE
 10
235.394
 11
235.745
 20
173.585
 21
173.071
  0
LINE
  8
BASE
 10
238.839
 11
239.046
 20
173.268
 21
173.026
  0
LINE
  8
BASE
 10
238.982
 11
239.189
 20
173.948
 21
173.676
  0
LINE
  8
BASE
 10
238.943
 11
239.085
 20
173.555
 21
173.434
  0
LINE
  8
BASE
 10
235.745
 11
235.979
 20
172.149
 21
172.391
  0
LINE
  8
BASE
 10
236.161
 11
236.395
 20
172.27
 21
172.466
  0
LINE
  8
BASE
 10
237.773
 11
237.916
 20
172.27
 21
172.149
  0
LINE
  8
BASE
 10
238.254
 11
238.462
 20
172.466
 21
172.315
  0
LINE
  8
BASE
 10
237.292
 11
237.708
 20
177.152
 21
176.426
  0
LINE
  8
BASE
 10
237.877
 11
238.293
 20
176.955
 21
176.23
  0
LINE
  8
BASE
 10
235.264
 11
234.991
 20
176.033
 21
175.625
  0
LINE
  8
BASE
 10
238.904
 11
239.15
 20
176.033
 21
175.837
  0
LINE
  8
BASE
 10
239.085
 11
239.215
 20
176.033
 21
176.185
  0
LINE
  8
BASE
 10
235.121
 11
234.991
 20
175.943
 21
176.064
  0
LINE
  8
BASE
 10
234.102
 11
233.227
 20
180.519
 21
179.643
  0
LINE
  8
BASE
 10
233.227
 11
233.227
 20
179.643
 21
172.536
  0
LINE
  8
BASE
 10
233.227
 11
234.102
 20
172.536
 21
171.66
  0
LINE
  8
BASE
 10
229.851
 11
233.227
 20
179.643
 21
179.643
  0
LINE
  8
BASE
 10
231.74
 11
232.616
 20
178.912
 21
177.278
  0
LINE
  8
BASE
 10
229.757
 11
229.63
 20
178.881
 21
178.67
  0
LINE
  8
BASE
 10
229.757
 11
229.491
 20
178.473
 21
178.155
  0
LINE
  8
BASE
 10
230.965
 11
231.168
 20
180.031
 21
179.834
  0
LINE
  8
BASE
 10
232.782
 11
232.985
 20
179.759
 21
179.91
  0
LINE
  8
BASE
 10
233.328
 11
233.493
 20
178.518
 21
178.76
  0
LINE
  8
BASE
 10
233.392
 11
233.595
 20
178.836
 21
179.199
  0
LINE
  8
BASE
 10
230.164
 11
232.045
 20
176.037
 21
173.027
  0
LINE
  8
BASE
 10
229.63
 11
229.452
 20
175.387
 21
175.19
  0
LINE
  8
BASE
 10
233.227
 11
229.851
 20
172.536
 21
172.536
  0
LINE
  8
BASE
 10
231.168
 11
231.638
 20
173.269
 21
172.588
  0
LINE
  8
BASE
 10
229.923
 11
230.266
 20
173.587
 21
173.072
  0
LINE
  8
BASE
 10
233.29
 11
233.493
 20
173.269
 21
173.027
  0
LINE
  8
BASE
 10
233.43
 11
233.633
 20
173.95
 21
173.677
  0
LINE
  8
BASE
 10
233.392
 11
233.531
 20
173.556
 21
173.435
  0
LINE
  8
BASE
 10
230.266
 11
230.494
 20
172.15
 21
172.392
  0
LINE
  8
BASE
 10
230.672
 11
230.901
 20
172.271
 21
172.467
  0
LINE
  8
BASE
 10
232.248
 11
232.388
 20
172.271
 21
172.15
  0
LINE
  8
BASE
 10
232.718
 11
232.921
 20
172.467
 21
172.316
  0
LINE
  8
BASE
 10
231.778
 11
232.184
 20
177.157
 21
176.431
  0
LINE
  8
BASE
 10
232.35
 11
232.756
 20
176.96
 21
176.234
  0
LINE
  8
BASE
 10
229.796
 11
229.529
 20
176.037
 21
175.629
  0
LINE
  8
BASE
 10
233.353
 11
233.595
 20
176.037
 21
175.841
  0
LINE
  8
BASE
 10
233.531
 11
233.658
 20
176.037
 21
176.189
  0
LINE
  8
BASE
 10
229.656
 11
229.529
 20
175.947
 21
176.068
  0
ENDSEC
  0
EOF
