  0
SECTION
  2
ENTITIES
  0
LINE
  8
APS_GEOMETRY
 10
869.0
 11
869.0
 20
0.0
 21
2140.0
  0
LINE
  8
APS_GEOMETRY
 10
869.0
 11
-11.0
 20
2140.0
 21
2140.0
  0
LINE
  8
APS_GEOMETRY
 10
-11.0
 11
-11.0
 20
2140.0
 21
0.0
  0
LINE
  8
APS_GEOMETRY
 10
825.0
 11
825.0
 20
0.0
 21
2096.0
  0
LINE
  8
APS_GEOMETRY
 10
825.0
 11
33.0
 20
2096.0
 21
2096.0
  0
LINE
  8
APS_GEOMETRY
 10
33.0
 11
33.0
 20
2096.0
 21
0.0
  0
LINE
  8
APS_GEOMETRY
 10
33.0
 11
-11.0
 20
2096.0
 21
2140.0
  0
LINE
  8
APS_GEOMETRY
 10
825.0
 11
869.0
 20
2096.0
 21
2140.0
  0
LINE
  8
APS_GEOMETRY
 10
842.5
 11
842.5
 20
4.5
 21
2113.5
  0
LINE
  8
APS_GEOMETRY
 10
842.5
 11
15.5
 20
2113.5
 21
2113.5
  0
LINE
  8
APS_GEOMETRY
 10
15.5
 11
15.5
 20
2113.5
 21
4.5
  0
LINE
  8
APS_GEOMETRY
 10
728.5
 11
728.5
 20
230.5
 21
778.5
  0
LINE
  8
APS_GEOMETRY
 10
728.5
 11
728.5
 20
890.5
 21
1251.25
  0
LINE
  8
APS_GEOMETRY
 10
728.5
 11
728.5
 20
1303.25
 21
1664.0
  0
LINE
  8
APS_GEOMETRY
 10
129.5
 11
129.5
 20
1664.0
 21
1303.25
  0
LINE
  8
APS_GEOMETRY
 10
129.5
 11
129.5
 20
1251.25
 21
890.5
  0
LINE
  8
APS_GEOMETRY
 10
129.5
 11
129.5
 20
778.5
 21
230.5
  0
LINE
  8
APS_GEOMETRY
 10
15.5
 11
842.5
 20
4.5
 21
4.5
  0
LINE
  8
APS_GEOMETRY
 10
858.0
 11
858.0
 20
0.0
 21
2129.0
  0
LINE
  8
APS_GEOMETRY
 10
858.0
 11
0.0
 20
2129.0
 21
2129.0
  0
LINE
  8
APS_GEOMETRY
 10
0.0
 11
0.0
 20
2129.0
 21
0.0
  0
LINE
  8
APS_GEOMETRY
 10
927.0
 11
927.0
 20
0.0
 21
2198.0
  0
LINE
  8
APS_GEOMETRY
 10
927.0
 11
-69.0
 20
2198.0
 21
2198.0
  0
LINE
  8
APS_GEOMETRY
 10
-69.0
 11
-69.0
 20
2198.0
 21
0.0
  0
LINE
  8
APS_GEOMETRY
 10
-69.0
 11
0.0
 20
2198.0
 21
2129.0
  0
LINE
  8
APS_GEOMETRY
 10
927.0
 11
858.0
 20
2198.0
 21
2129.0
  0
LINE
  8
APS_GEOMETRY
 10
129.5
 11
728.5
 20
778.5
 21
778.5
  0
LINE
  8
APS_GEOMETRY
 10
129.5
 11
294.5
 20
890.5
 21
890.5
  0
LINE
  8
APS_GEOMETRY
 10
346.5
 11
511.5
 20
890.5
 21
890.5
  0
LINE
  8
APS_GEOMETRY
 10
563.5
 11
728.5
 20
890.5
 21
890.5
  0
LINE
  8
APS_GEOMETRY
 10
113.5
 11
113.5
 20
2113.5
 21
4.5
  0
LINE
  8
APS_GEOMETRY
 10
744.5
 11
744.5
 20
4.5
 21
2113.5
  0
LINE
  8
APS_GEOMETRY
 10
113.5
 11
744.5
 20
794.5
 21
794.5
  0
LINE
  8
APS_GEOMETRY
 10
113.5
 11
744.5
 20
874.5
 21
874.5
  0
LINE
  8
APS_GEOMETRY
 10
113.5
 11
129.5
 20
794.5
 21
778.5
  0
LINE
  8
APS_GEOMETRY
 10
113.5
 11
129.5
 20
874.5
 21
890.5
  0
LINE
  8
APS_GEOMETRY
 10
744.5
 11
728.5
 20
874.5
 21
890.5
  0
LINE
  8
APS_GEOMETRY
 10
744.5
 11
728.5
 20
794.5
 21
778.5
  0
ARC
  8
APS_GEOMETRY
 10
429.0
 20
1700.0
 40
299.5
 50
139.98
 51
176.938
  0
ARC
  8
APS_GEOMETRY
 10
429.0
 20
1700.0
 40
299.5
 50
94.98
 51
130.02
  0
ARC
  8
APS_GEOMETRY
 10
429.0
 20
1700.0
 40
299.5
 50
49.98
 51
85.02
  0
ARC
  8
APS_GEOMETRY
 10
429.0
 20
1700.0
 40
299.5
 50
3.062
 51
40.02
  0
ARC
  8
APS_GEOMETRY
 10
429.0
 20
1700.0
 40
315.5
 50
3.062
 51
176.938
  0
ARC
  8
APS_GEOMETRY
 10
129.928
 20
1716.0
 40
16.0
 50
176.938
 51
180.0
  0
ARC
  8
APS_GEOMETRY
 10
728.072
 20
1716.0
 40
16.0
 50
0.0
 51
3.062
  0
LINE
  8
APS_GEOMETRY
 10
113.5
 11
744.5
 20
214.5
 21
214.5
  0
LINE
  8
APS_GEOMETRY
 10
113.5
 11
129.5
 20
214.5
 21
230.5
  0
LINE
  8
APS_GEOMETRY
 10
744.5
 11
728.5
 20
214.5
 21
230.5
  0
LINE
  8
APS_GEOMETRY
 10
129.5
 11
728.5
 20
230.5
 21
230.5
  0
LINE
  8
APS_GEOMETRY
 10
682.5
 11
175.5
 20
732.5
 21
732.5
  0
LINE
  8
APS_GEOMETRY
 10
175.5
 11
175.5
 20
732.5
 21
276.5
  0
LINE
  8
APS_GEOMETRY
 10
175.5
 11
682.5
 20
276.5
 21
276.5
  0
LINE
  8
APS_GEOMETRY
 10
682.5
 11
682.5
 20
276.5
 21
732.5
  0
LINE
  8
APS_GEOMETRY
 10
175.5
 11
129.5
 20
732.5
 21
778.5
  0
LINE
  8
APS_GEOMETRY
 10
175.5
 11
129.5
 20
276.5
 21
230.5
  0
LINE
  8
APS_GEOMETRY
 10
682.5
 11
728.5
 20
276.5
 21
230.5
  0
LINE
  8
APS_GEOMETRY
 10
682.5
 11
728.5
 20
732.5
 21
778.5
  0
LINE
  8
APS_GEOMETRY
 10
744.5
 11
113.5
 20
1700.0
 21
1700.0
  0
LINE
  8
APS_GEOMETRY
 10
728.072
 11
562.545
 20
1716.0
 21
1716.0
  0
LINE
  8
APS_GEOMETRY
 10
295.455
 11
129.928
 20
1716.0
 21
1716.0
  0
LINE
  8
APS_GEOMETRY
 10
129.5
 11
294.5
 20
1251.25
 21
1251.25
  0
LINE
  8
APS_GEOMETRY
 10
346.5
 11
511.5
 20
1251.25
 21
1251.25
  0
LINE
  8
APS_GEOMETRY
 10
563.5
 11
728.5
 20
1251.25
 21
1251.25
  0
LINE
  8
APS_GEOMETRY
 10
129.5
 11
294.5
 20
1303.25
 21
1303.25
  0
LINE
  8
APS_GEOMETRY
 10
346.5
 11
511.5
 20
1303.25
 21
1303.25
  0
LINE
  8
APS_GEOMETRY
 10
563.5
 11
728.5
 20
1303.25
 21
1303.25
  0
LINE
  8
APS_GEOMETRY
 10
113.5
 11
744.5
 20
1287.25
 21
1287.25
  0
LINE
  8
APS_GEOMETRY
 10
113.5
 11
744.5
 20
1267.25
 21
1267.25
  0
LINE
  8
APS_GEOMETRY
 10
113.5
 11
129.5
 20
1267.25
 21
1251.25
  0
LINE
  8
APS_GEOMETRY
 10
129.5
 11
113.5
 20
1303.25
 21
1287.25
  0
LINE
  8
APS_GEOMETRY
 10
744.5
 11
728.5
 20
1267.25
 21
1251.25
  0
LINE
  8
APS_GEOMETRY
 10
728.5
 11
744.5
 20
1303.25
 21
1287.25
  0
LINE
  8
APS_GEOMETRY
 10
129.5
 11
294.5
 20
1664.0
 21
1664.0
  0
LINE
  8
APS_GEOMETRY
 10
346.5
 11
511.5
 20
1664.0
 21
1664.0
  0
LINE
  8
APS_GEOMETRY
 10
563.5
 11
728.5
 20
1664.0
 21
1664.0
  0
LINE
  8
APS_GEOMETRY
 10
113.5
 11
744.5
 20
1680.0
 21
1680.0
  0
LINE
  8
APS_GEOMETRY
 10
113.5
 11
129.5
 20
1680.0
 21
1664.0
  0
LINE
  8
APS_GEOMETRY
 10
744.5
 11
728.5
 20
1680.0
 21
1664.0
  0
LINE
  8
APS_GEOMETRY
 10
346.5
 11
346.5
 20
1251.25
 21
890.5
  0
LINE
  8
APS_GEOMETRY
 10
294.5
 11
294.5
 20
1251.25
 21
890.5
  0
LINE
  8
APS_GEOMETRY
 10
310.5
 11
310.5
 20
1267.25
 21
874.5
  0
LINE
  8
APS_GEOMETRY
 10
330.5
 11
330.5
 20
1267.25
 21
874.5
  0
LINE
  8
APS_GEOMETRY
 10
294.5
 11
310.5
 20
890.5
 21
874.5
  0
LINE
  8
APS_GEOMETRY
 10
346.5
 11
330.5
 20
890.5
 21
874.5
  0
LINE
  8
APS_GEOMETRY
 10
563.5
 11
563.5
 20
1251.25
 21
890.5
  0
LINE
  8
APS_GEOMETRY
 10
511.5
 11
511.5
 20
1251.25
 21
890.5
  0
LINE
  8
APS_GEOMETRY
 10
527.5
 11
527.5
 20
1267.25
 21
874.5
  0
LINE
  8
APS_GEOMETRY
 10
547.5
 11
547.5
 20
1267.25
 21
874.5
  0
LINE
  8
APS_GEOMETRY
 10
511.5
 11
527.5
 20
890.5
 21
874.5
  0
LINE
  8
APS_GEOMETRY
 10
563.5
 11
547.5
 20
890.5
 21
874.5
  0
LINE
  8
APS_GEOMETRY
 10
511.5
 11
527.5
 20
1251.25
 21
1267.25
  0
LINE
  8
APS_GEOMETRY
 10
563.5
 11
547.5
 20
1251.25
 21
1267.25
  0
LINE
  8
APS_GEOMETRY
 10
294.5
 11
310.5
 20
1251.25
 21
1267.25
  0
LINE
  8
APS_GEOMETRY
 10
346.5
 11
330.5
 20
1251.25
 21
1267.25
  0
LINE
  8
APS_GEOMETRY
 10
346.5
 11
346.5
 20
1664.0
 21
1303.25
  0
LINE
  8
APS_GEOMETRY
 10
294.5
 11
294.5
 20
1664.0
 21
1303.25
  0
LINE
  8
APS_GEOMETRY
 10
310.5
 11
310.5
 20
1680.0
 21
1287.25
  0
LINE
  8
APS_GEOMETRY
 10
330.5
 11
330.5
 20
1680.0
 21
1287.25
  0
LINE
  8
APS_GEOMETRY
 10
294.5
 11
310.5
 20
1303.25
 21
1287.25
  0
LINE
  8
APS_GEOMETRY
 10
346.5
 11
330.5
 20
1303.25
 21
1287.25
  0
LINE
  8
APS_GEOMETRY
 10
294.5
 11
310.5
 20
1664.0
 21
1680.0
  0
LINE
  8
APS_GEOMETRY
 10
346.5
 11
330.5
 20
1664.0
 21
1680.0
  0
LINE
  8
APS_GEOMETRY
 10
563.5
 11
563.5
 20
1664.0
 21
1303.25
  0
LINE
  8
APS_GEOMETRY
 10
511.5
 11
511.5
 20
1664.0
 21
1303.25
  0
LINE
  8
APS_GEOMETRY
 10
527.5
 11
527.5
 20
1680.0
 21
1287.25
  0
LINE
  8
APS_GEOMETRY
 10
547.5
 11
547.5
 20
1680.0
 21
1287.25
  0
LINE
  8
APS_GEOMETRY
 10
511.5
 11
527.5
 20
1303.25
 21
1287.25
  0
LINE
  8
APS_GEOMETRY
 10
563.5
 11
547.5
 20
1303.25
 21
1287.25
  0
LINE
  8
APS_GEOMETRY
 10
511.5
 11
527.5
 20
1664.0
 21
1680.0
  0
LINE
  8
APS_GEOMETRY
 10
563.5
 11
547.5
 20
1664.0
 21
1680.0
  0
ARC
  8
APS_GEOMETRY
 10
429.0
 20
1700.0
 40
118.5
 50
0.0
 51
90.0
  0
ARC
  8
APS_GEOMETRY
 10
429.0
 20
1700.0
 40
118.5
 50
90.0
 51
180.0
  0
LINE
  8
APS_GEOMETRY
 10
295.455
 11
310.5
 20
1716.0
 21
1700.0
  0
LINE
  8
APS_GEOMETRY
 10
562.545
 11
547.5
 20
1716.0
 21
1700.0
  0
LINE
  8
APS_GEOMETRY
 10
113.5
 11
129.928
 20
1700.0
 21
1716.0
  0
LINE
  8
APS_GEOMETRY
 10
744.5
 11
728.072
 20
1700.0
 21
1716.0
  0
LINE
  8
COSTRUZIONI
 10
297.125
 11
278.74
 20
1831.875
 21
1850.26
  0
LINE
  8
COSTRUZIONI
 10
429.0
 11
429.0
 20
1886.5
 21
1912.5
  0
LINE
  8
COSTRUZIONI
 10
560.875
 11
579.26
 20
1831.875
 21
1850.26
  0
LINE
  8
APS_GEOMETRY
 10
317.303
 11
199.636
 20
1774.927
 21
1892.594
  0
LINE
  8
APS_GEOMETRY
 10
354.073
 11
236.406
 20
1811.697
 21
1929.364
  0
LINE
  8
APS_GEOMETRY
 10
403.0
 11
403.0
 20
1831.963
 21
1998.369
  0
LINE
  8
APS_GEOMETRY
 10
455.0
 11
455.0
 20
1831.963
 21
1998.369
  0
LINE
  8
APS_GEOMETRY
 10
503.927
 11
621.594
 20
1811.697
 21
1929.364
  0
LINE
  8
APS_GEOMETRY
 10
540.697
 11
658.364
 20
1774.927
 21
1892.594
  0
ARC
  8
APS_GEOMETRY
 10
429.0
 20
1700.0
 40
134.5
 50
6.832
 51
33.854
  0
ARC
  8
APS_GEOMETRY
 10
429.0
 20
1700.0
 40
134.5
 50
56.146
 51
78.854
  0
ARC
  8
APS_GEOMETRY
 10
429.0
 20
1700.0
 40
134.5
 50
101.146
 51
123.854
  0
ARC
  8
APS_GEOMETRY
 10
429.0
 20
1700.0
 40
134.5
 50
146.146
 51
173.168
  0
LINE
  8
APS_GEOMETRY
 10
338.436
 11
198.949
 20
1776.422
 21
1915.909
  0
LINE
  8
APS_GEOMETRY
 10
352.578
 11
213.091
 20
1790.564
 21
1930.051
  0
LINE
  8
APS_GEOMETRY
 10
419.0
 11
419.0
 20
1818.077
 21
2015.341
  0
LINE
  8
APS_GEOMETRY
 10
439.0
 11
439.0
 20
1818.077
 21
2015.341
  0
LINE
  8
APS_GEOMETRY
 10
505.422
 11
644.909
 20
1790.564
 21
1930.051
  0
LINE
  8
APS_GEOMETRY
 10
519.564
 11
659.051
 20
1776.422
 21
1915.909
  0
LINE
  8
APS_GEOMETRY
 10
199.636
 11
198.949
 20
1892.594
 21
1915.909
  0
LINE
  8
APS_GEOMETRY
 10
236.406
 11
213.091
 20
1929.364
 21
1930.051
  0
LINE
  8
APS_GEOMETRY
 10
317.303
 11
338.436
 20
1774.927
 21
1776.422
  0
LINE
  8
APS_GEOMETRY
 10
354.073
 11
352.578
 20
1811.697
 21
1790.564
  0
LINE
  8
APS_GEOMETRY
 10
658.364
 11
659.051
 20
1892.594
 21
1915.909
  0
LINE
  8
APS_GEOMETRY
 10
621.594
 11
644.909
 20
1929.364
 21
1930.051
  0
LINE
  8
APS_GEOMETRY
 10
540.697
 11
519.564
 20
1774.927
 21
1776.422
  0
LINE
  8
APS_GEOMETRY
 10
503.927
 11
505.422
 20
1811.697
 21
1790.564
  0
LINE
  8
APS_GEOMETRY
 10
403.0
 11
419.0
 20
1998.369
 21
2015.341
  0
LINE
  8
APS_GEOMETRY
 10
455.0
 11
439.0
 20
1998.369
 21
2015.341
  0
LINE
  8
APS_GEOMETRY
 10
403.0
 11
419.0
 20
1831.963
 21
1818.077
  0
LINE
  8
APS_GEOMETRY
 10
455.0
 11
439.0
 20
1831.963
 21
1818.077
  0
TEXT
  8
TEXT
 10
293.56
 20
-112.644
 30
0.0
 40
30.0
 50
0.0
  1
MOD. 700-C
  0
ENDSEC
  0
EOF
