  0
SECTION
  2
ENTITIES
  0
LINE
  8
APS_GEOMETRY
 10
-313.01233
 11
-313.01233
 20
-1559.877967
 21
-1540.377967
  0
LINE
  8
APS_GEOMETRY
 10
-313.01233
 11
-414.012293
 20
-1540.377967
 21
-1540.377967
  0
ARC
  8
APS_GEOMETRY
 10
-414.012293
 20
-1543.377967
 40
3.0
 50
90.0
 51
180.0
  0
LINE
  8
APS_GEOMETRY
 10
-417.012293
 11
-417.012293
 20
-1543.377967
 21
-1568.877967
  0
ARC
  8
APS_GEOMETRY
 10
-415.512293
 20
-1568.877967
 40
1.5
 50
180.0
 51
270.0
  0
LINE
  8
APS_GEOMETRY
 10
-415.512293
 11
-407.012293
 20
-1570.377967
 21
-1570.377967
  0
LINE
  8
APS_GEOMETRY
 10
-407.012293
 11
-407.012293
 20
-1570.377967
 21
-1582.377967
  0
ARC
  8
APS_GEOMETRY
 10
-404.012293
 20
-1582.377967
 40
3.0
 50
180.0
 51
270.0
  0
LINE
  8
APS_GEOMETRY
 10
-313.01233
 11
-313.01233
 20
-1565.877967
 21
-1585.377967
  0
LINE
  8
APS_GEOMETRY
 10
-313.01233
 11
-404.012293
 20
-1585.377967
 21
-1585.377967
  0
ARC
  8
APS_GEOMETRY
 10
-251.440417
 20
-1553.377976
 40
1.0
 50
90.0
 51
174.278201
  0
ARC
  8
APS_GEOMETRY
 10
-254.425471
 20
-1553.078881
 40
2.0
 50
276.7
 51
354.278201
  0
ARC
  8
APS_GEOMETRY
 10
-251.626184
 20
-1693.541163
 40
138.499713
 50
91.061564
 51
104.375515
  0
LINE
  8
APS_GEOMETRY
 10
-286.01233
 11
-306.01233
 20
-1559.377967
 21
-1560.377967
  0
LINE
  8
APS_GEOMETRY
 10
-306.01233
 11
-311.01233
 20
-1560.377967
 21
-1560.377967
  0
LINE
  8
APS_GEOMETRY
 10
-311.01233
 11
-311.01233
 20
-1560.377967
 21
-1565.377967
  0
LINE
  8
APS_GEOMETRY
 10
-311.01233
 11
-306.01233
 20
-1565.377967
 21
-1565.377967
  0
LINE
  8
APS_GEOMETRY
 10
-306.01233
 11
-286.01233
 20
-1565.377967
 21
-1566.377967
  0
ARC
  8
APS_GEOMETRY
 10
-251.626184
 20
-1432.21477
 40
138.499713
 50
255.624485
 51
268.938436
  0
ARC
  8
APS_GEOMETRY
 10
-254.425471
 20
-1572.677053
 40
2.0
 50
5.721799
 51
83.3
  0
ARC
  8
APS_GEOMETRY
 10
-251.440417
 20
-1572.377958
 40
1.0
 50
185.721799
 51
270.0
  0
LINE
  8
APS_GEOMETRY
 10
-313.01233
 11
-416.970333
 20
-1542.877967
 21
-1542.877967
  0
LINE
  8
APS_GEOMETRY
 10
-313.01233
 11
-406.970333
 20
-1582.877967
 21
-1582.877967
  0
LINE
  8
APS_GEOMETRY
 10
-313.01233
 11
-313.01233
 20
-1565.877967
 21
-1559.877967
  0
LINE
  8
APS_GEOMETRY
 10
-313.01233
 11
-298.51233
 20
-1559.877967
 21
-1559.877967
  0
ARC
  8
APS_GEOMETRY
 10
-298.51233
 20
-1558.377967
 40
1.5
 50
270.0
 51
0.0
  0
LINE
  8
APS_GEOMETRY
 10
-297.01233
 11
-297.01233
 20
-1558.377967
 21
-1555.077967
  0
ARC
  8
APS_GEOMETRY
 10
-297.21233
 20
-1555.077967
 40
0.2
 50
0.0
 51
90.0
  0
LINE
  8
APS_GEOMETRY
 10
-297.21233
 11
-297.81233
 20
-1554.877967
 21
-1554.877967
  0
ARC
  8
APS_GEOMETRY
 10
-297.81233
 20
-1554.677967
 40
0.2
 50
180.0
 51
270.0
  0
LINE
  8
APS_GEOMETRY
 10
-298.01233
 11
-298.01233
 20
-1554.677967
 21
-1554.075369
  0
ARC
  8
APS_GEOMETRY
 10
-298.21233
 20
-1554.075369
 40
0.2
 50
0.0
 51
88.511631
  0
ARC
  8
APS_GEOMETRY
 10
-298.01233
 20
-1546.377967
 40
7.5
 50
180.0
 51
268.511631
  0
ARC
  8
APS_GEOMETRY
 10
-315.51233
 20
-1546.377967
 40
10.0
 50
0.0
 51
143.130102
  0
LINE
  8
APS_GEOMETRY
 10
-313.01233
 11
-298.51233
 20
-1565.877967
 21
-1565.877967
  0
ARC
  8
APS_GEOMETRY
 10
-298.51233
 20
-1567.377967
 40
1.5
 50
0.0
 51
90.0
  0
LINE
  8
APS_GEOMETRY
 10
-297.01233
 11
-297.01233
 20
-1567.377967
 21
-1570.677967
  0
ARC
  8
APS_GEOMETRY
 10
-297.21233
 20
-1570.677967
 40
0.2
 50
270.0
 51
0.0
  0
LINE
  8
APS_GEOMETRY
 10
-297.21233
 11
-297.81233
 20
-1570.877967
 21
-1570.877967
  0
ARC
  8
APS_GEOMETRY
 10
-297.81233
 20
-1571.077967
 40
0.2
 50
90.0
 51
180.0
  0
LINE
  8
APS_GEOMETRY
 10
-298.01233
 11
-298.01233
 20
-1571.077967
 21
-1571.680565
  0
ARC
  8
APS_GEOMETRY
 10
-298.21233
 20
-1571.680565
 40
0.2
 50
271.488369
 51
0.0
  0
ARC
  8
APS_GEOMETRY
 10
-298.01233
 20
-1579.377967
 40
7.5
 50
91.488369
 51
180.0
  0
ARC
  8
APS_GEOMETRY
 10
-315.51233
 20
-1579.377967
 40
10.0
 50
216.869898
 51
0.0
  0
LINE
  8
APS_GEOMETRY
 10
-264.954833
 11
-264.954833
 20
-1511.412973
 21
-1513.412973
  0
ARC
  8
APS_GEOMETRY
 10
-265.954833
 20
-1513.412973
 40
1.0
 50
270.0
 51
0.0
  0
LINE
  8
APS_GEOMETRY
 10
-265.954833
 11
-280.954833
 20
-1514.412973
 21
-1514.412973
  0
LINE
  8
APS_GEOMETRY
 10
-280.954833
 11
-280.954833
 20
-1514.412973
 21
-1511.412973
  0
LINE
  8
APS_GEOMETRY
 10
-280.954833
 11
-280.954833
 20
-1511.412973
 21
-1494.912973
  0
LINE
  8
APS_GEOMETRY
 10
-280.954833
 11
-265.954833
 20
-1511.412973
 21
-1511.412973
  0
ARC
  8
APS_GEOMETRY
 10
-265.954833
 20
-1510.412973
 40
1.0
 50
270.0
 51
0.0
  0
LINE
  8
APS_GEOMETRY
 10
-264.954833
 11
-264.954833
 20
-1510.412973
 21
-1509.612973
  0
ARC
  8
APS_GEOMETRY
 10
-265.154833
 20
-1509.612973
 40
0.2
 50
0.0
 51
90.0
  0
LINE
  8
APS_GEOMETRY
 10
-265.154833
 11
-265.754833
 20
-1509.412973
 21
-1509.412973
  0
ARC
  8
APS_GEOMETRY
 10
-265.754833
 20
-1509.212973
 40
0.2
 50
180.0
 51
270.0
  0
LINE
  8
APS_GEOMETRY
 10
-265.954833
 11
-265.954833
 20
-1509.212973
 21
-1508.610375
  0
ARC
  8
APS_GEOMETRY
 10
-266.154833
 20
-1508.610375
 40
0.2
 50
0.0
 51
88.511631
  0
ARC
  8
APS_GEOMETRY
 10
-265.954833
 20
-1500.912973
 40
7.5
 50
180.0
 51
268.511631
  0
ARC
  8
APS_GEOMETRY
 10
-283.454833
 20
-1500.912973
 40
10.0
 50
0.0
 51
136.826449
  0
ARC
  8
APS_GEOMETRY
 10
-290.383037
 20
-1494.412973
 40
0.5
 50
136.826449
 51
270.0
  0
LINE
  8
APS_GEOMETRY
 10
-290.383037
 11
-280.954833
 20
-1494.912973
 21
-1494.912973
  0
LINE
  8
QUOTATURA
 10
-264.954833
 11
-253.775028
 20
-1511.412973
 21
-1511.412973
  0
LINE
  8
QUOTATURA
 10
-254.775028
 11
-254.775028
 20
-1511.412973
 21
-1502.687367
  0
LINE
  8
QUOTATURA
 10
-254.775028
 11
-254.775028
 20
-1499.656684
 21
-1490.912973
  0
LINE
  8
QUOTATURA
 10
-254.441628
 11
-254.775028
 20
-1509.412973
 21
-1511.412973
  0
LINE
  8
QUOTATURA
 10
-254.775028
 11
-255.108428
 20
-1511.412973
 21
-1509.412973
  0
LINE
  8
QUOTATURA
 10
-255.108428
 11
-254.441628
 20
-1509.412973
 21
-1509.412973
  0
LINE
  8
QUOTATURA
 10
-255.108428
 11
-254.775028
 20
-1492.912973
 21
-1490.912973
  0
LINE
  8
QUOTATURA
 10
-254.775028
 11
-254.441628
 20
-1490.912973
 21
-1492.912973
  0
LINE
  8
QUOTATURA
 10
-254.441628
 11
-255.108428
 20
-1492.912973
 21
-1492.912973
  0
LINE
  8
QUOTATURA
 10
-282.454833
 11
-245.423847
 20
-1490.912973
 21
-1490.912973
  0
LINE
  8
QUOTATURA
 10
-264.954833
 11
-245.423847
 20
-1514.412973
 21
-1514.412973
  0
LINE
  8
QUOTATURA
 10
-246.423847
 11
-246.423847
 20
-1490.912973
 21
-1501.156678
  0
LINE
  8
QUOTATURA
 10
-246.423847
 11
-246.423847
 20
-1504.179199
 21
-1514.412973
  0
LINE
  8
QUOTATURA
 10
-246.757247
 11
-246.423847
 20
-1492.912973
 21
-1490.912973
  0
LINE
  8
QUOTATURA
 10
-246.423847
 11
-246.090447
 20
-1490.912973
 21
-1492.912973
  0
LINE
  8
QUOTATURA
 10
-246.090447
 11
-246.757247
 20
-1492.912973
 21
-1492.912973
  0
LINE
  8
QUOTATURA
 10
-246.090447
 11
-246.423847
 20
-1512.412973
 21
-1514.412973
  0
LINE
  8
QUOTATURA
 10
-246.423847
 11
-246.757247
 20
-1514.412973
 21
-1512.412973
  0
LINE
  8
QUOTATURA
 10
-246.757247
 11
-246.090447
 20
-1512.412973
 21
-1512.412973
  0
LINE
  8
QUOTATURA
 10
-264.954833
 11
-253.725903
 20
-1511.412973
 21
-1511.412973
  0
LINE
  8
QUOTATURA
 10
-254.725903
 11
-254.725903
 20
-1514.412973
 21
-1517.794988
  0
LINE
  8
QUOTATURA
 10
-254.725903
 11
-252.604384
 20
-1517.794988
 21
-1517.794988
  0
LINE
  8
QUOTATURA
 10
-255.059303
 11
-254.725903
 20
-1516.412973
 21
-1514.412973
  0
LINE
  8
QUOTATURA
 10
-254.725903
 11
-254.392503
 20
-1514.412973
 21
-1516.412973
  0
LINE
  8
QUOTATURA
 10
-254.392503
 11
-255.059303
 20
-1516.412973
 21
-1516.412973
  0
LINE
  8
QUOTATURA
 10
-254.725903
 11
-254.725903
 20
-1511.412973
 21
-1507.412973
  0
LINE
  8
QUOTATURA
 10
-254.392503
 11
-254.725903
 20
-1509.412973
 21
-1511.412973
  0
LINE
  8
QUOTATURA
 10
-254.725903
 11
-255.059303
 20
-1511.412973
 21
-1509.412973
  0
LINE
  8
QUOTATURA
 10
-255.059303
 11
-254.392503
 20
-1509.412973
 21
-1509.412973
  0
LINE
  8
QUOTATURA
 10
-281.954833
 11
-304.982331
 20
-1514.412973
 21
-1514.412973
  0
LINE
  8
QUOTATURA
 10
-281.954833
 11
-304.982331
 20
-1494.912973
 21
-1494.912973
  0
LINE
  8
QUOTATURA
 10
-303.982331
 11
-303.982331
 20
-1514.412973
 21
-1506.187777
  0
LINE
  8
QUOTATURA
 10
-303.982331
 11
-303.982331
 20
-1503.162217
 21
-1494.912973
  0
LINE
  8
QUOTATURA
 10
-303.648931
 11
-303.982331
 20
-1512.412973
 21
-1514.412973
  0
LINE
  8
QUOTATURA
 10
-303.982331
 11
-304.315731
 20
-1514.412973
 21
-1512.412973
  0
LINE
  8
QUOTATURA
 10
-304.315731
 11
-303.648931
 20
-1512.412973
 21
-1512.412973
  0
LINE
  8
QUOTATURA
 10
-304.315731
 11
-303.982331
 20
-1496.912973
 21
-1494.912973
  0
LINE
  8
QUOTATURA
 10
-303.982331
 11
-303.648931
 20
-1494.912973
 21
-1496.912973
  0
LINE
  8
QUOTATURA
 10
-303.648931
 11
-304.315731
 20
-1496.912973
 21
-1496.912973
  0
LINE
  8
QUOTATURA
 10
-281.954833
 11
-298.653674
 20
-1511.412973
 21
-1511.412973
  0
LINE
  8
QUOTATURA
 10
-281.954833
 11
-298.653674
 20
-1494.912973
 21
-1494.912973
  0
LINE
  8
QUOTATURA
 10
-297.653674
 11
-297.653674
 20
-1511.412973
 21
-1504.684259
  0
LINE
  8
QUOTATURA
 10
-297.653674
 11
-297.653674
 20
-1501.659929
 21
-1494.912973
  0
LINE
  8
QUOTATURA
 10
-297.320274
 11
-297.653674
 20
-1509.412973
 21
-1511.412973
  0
LINE
  8
QUOTATURA
 10
-297.653674
 11
-297.987074
 20
-1511.412973
 21
-1509.412973
  0
LINE
  8
QUOTATURA
 10
-297.987074
 11
-297.320274
 20
-1509.412973
 21
-1509.412973
  0
LINE
  8
QUOTATURA
 10
-297.987074
 11
-297.653674
 20
-1496.912973
 21
-1494.912973
  0
LINE
  8
QUOTATURA
 10
-297.653674
 11
-297.320274
 20
-1494.912973
 21
-1496.912973
  0
LINE
  8
QUOTATURA
 10
-297.320274
 11
-297.987074
 20
-1496.912973
 21
-1496.912973
  0
LINE
  8
QUOTATURA
 10
-290.883037
 11
-290.883037
 20
-1495.412973
 21
-1499.696454
  0
LINE
  8
QUOTATURA
 10
-280.954833
 11
-280.954833
 20
-1513.412973
 21
-1497.696454
  0
LINE
  8
QUOTATURA
 10
-290.883037
 11
-288.330926
 20
-1498.696454
 21
-1498.696454
  0
LINE
  8
QUOTATURA
 10
-283.506944
 11
-280.954833
 20
-1498.696454
 21
-1498.696454
  0
LINE
  8
QUOTATURA
 10
-288.883037
 11
-290.883037
 20
-1499.029854
 21
-1498.696454
  0
LINE
  8
QUOTATURA
 10
-290.883037
 11
-288.883037
 20
-1498.696454
 21
-1498.363054
  0
LINE
  8
QUOTATURA
 10
-288.883037
 11
-288.883037
 20
-1498.363054
 21
-1499.029854
  0
LINE
  8
QUOTATURA
 10
-282.954833
 11
-280.954833
 20
-1498.363054
 21
-1498.696454
  0
LINE
  8
QUOTATURA
 10
-280.954833
 11
-282.954833
 20
-1498.696454
 21
-1499.029854
  0
LINE
  8
QUOTATURA
 10
-282.954833
 11
-282.954833
 20
-1499.029854
 21
-1498.363054
  0
LINE
  8
APS_GEOMETRY
 10
38.566272
 11
39.428009
 20
-1610.708653
 21
-1610.708653
  0
ARC
  8
APS_GEOMETRY
 10
39.384429
 20
-1609.47389
 40
1.235531
 50
272.021365
 51
278.440365
  0
ARC
  8
APS_GEOMETRY
 10
39.433066
 20
-1609.801662
 40
0.904171
 50
278.440365
 51
285.945396
  0
ARC
  8
APS_GEOMETRY
 10
39.798923
 20
-1611.111527
 40
0.455876
 50
98.583621
 51
104.931417
  0
ARC
  8
APS_GEOMETRY
 10
39.768125
 20
-1610.90749
 40
0.249528
 50
90.0
 51
98.583621
  0
ARC
  8
APS_GEOMETRY
 10
39.768125
 20
-1610.845547
 40
0.187585
 50
52.870717
 51
90.0
  0
ARC
  8
APS_GEOMETRY
 10
39.513695
 20
-1611.181606
 40
0.609095
 50
32.517511
 51
52.870717
  0
ARC
  8
APS_GEOMETRY
 10
39.312134
 20
-1611.310102
 40
0.84813
 50
17.208621
 51
32.517511
  0
ARC
  8
APS_GEOMETRY
 10
39.480128
 20
-1611.258071
 40
0.672264
 50
0.0
 51
17.208621
  0
ARC
  8
APS_GEOMETRY
 10
39.81652
 20
-1611.258071
 40
0.335872
 50
337.348108
 51
0.0
  0
ARC
  8
APS_GEOMETRY
 10
39.951516
 20
-1611.314408
 40
0.189592
 50
307.042475
 51
337.348108
  0
ARC
  8
APS_GEOMETRY
 10
39.928053
 20
-1611.282173
 40
0.229457
 50
287.185706
 51
306.869898
  0
ARC
  8
APS_GEOMETRY
 10
39.907115
 20
-1611.214474
 40
0.30032
 50
270.0
 51
287.185706
  0
ARC
  8
APS_GEOMETRY
 10
39.907115
 20
-1611.245119
 40
0.269674
 50
252.221439
 51
270.0
  0
ARC
  8
APS_GEOMETRY
 10
39.894561
 20
-1611.284272
 40
0.228559
 50
232.895765
 51
252.221439
  0
ARC
  8
APS_GEOMETRY
 10
39.943087
 20
-1611.220118
 40
0.308998
 50
218.299689
 51
232.895765
  0
ARC
  8
APS_GEOMETRY
 10
40.322099
 20
-1610.920796
 40
0.791951
 50
209.197486
 51
218.299689
  0
ARC
  8
APS_GEOMETRY
 10
38.394411
 20
-1611.965189
 40
1.400583
 50
28.024501
 51
32.699461
  0
ARC
  8
APS_GEOMETRY
 10
39.402216
 20
-1611.318203
 40
0.202976
 50
32.699461
 51
45.0
  0
ARC
  8
APS_GEOMETRY
 10
39.470931
 20
-1611.249488
 40
0.105798
 50
45.0
 51
67.557247
  0
ARC
  8
APS_GEOMETRY
 10
39.470524
 20
-1611.250475
 40
0.106866
 50
67.557247
 51
90.0
  0
ARC
  8
APS_GEOMETRY
 10
39.470524
 20
-1611.242048
 40
0.098439
 50
90.0
 51
120.801446
  0
ARC
  8
APS_GEOMETRY
 10
39.467197
 20
-1611.236469
 40
0.091943
 50
120.801446
 51
152.700428
  0
ARC
  8
APS_GEOMETRY
 10
39.540138
 20
-1611.274115
 40
0.174026
 50
152.700428
 51
171.085073
  0
ARC
  8
APS_GEOMETRY
 10
40.094584
 20
-1611.361087
 40
0.735252
 50
171.085073
 51
180.0
  0
LINE
  8
APS_GEOMETRY
 10
39.359332
 11
39.359332
 20
-1611.361087
 21
-1612.276785
  0
ARC
  8
APS_GEOMETRY
 10
40.330685
 20
-1612.276785
 40
0.971354
 50
180.0
 51
188.194263
  0
ARC
  8
APS_GEOMETRY
 10
39.605306
 20
-1612.381239
 40
0.238493
 50
188.194263
 51
204.775141
  0
ARC
  8
APS_GEOMETRY
 10
39.534833
 20
-1612.413766
 40
0.160875
 50
204.775141
 51
228.576334
  0
ARC
  8
APS_GEOMETRY
 10
39.600949
 20
-1612.338834
 40
0.260805
 50
228.576334
 51
247.217594
  0
ARC
  8
APS_GEOMETRY
 10
39.217504
 20
-1613.242442
 40
0.720796
 50
59.381395
 51
66.929588
  0
ARC
  8
APS_GEOMETRY
 10
39.500565
 20
-1612.764166
 40
0.165034
 50
43.567904
 51
59.381395
  0
ARC
  8
APS_GEOMETRY
 10
39.545845
 20
-1612.721095
 40
0.102541
 50
19.041231
 51
43.567904
  0
ARC
  8
APS_GEOMETRY
 10
39.482928
 20
-1612.74281
 40
0.1691
 50
0.0
 51
19.041231
  0
ARC
  8
APS_GEOMETRY
 10
39.514656
 20
-1612.74281
 40
0.137372
 50
317.65975
 51
0.0
  0
ARC
  8
APS_GEOMETRY
 10
39.388537
 20
-1612.627888
 40
0.307997
 50
289.746837
 51
317.65975
  0
ARC
  8
APS_GEOMETRY
 10
39.282914
 20
-1612.333653
 40
0.620616
 50
281.964396
 51
289.746837
  0
ARC
  8
APS_GEOMETRY
 10
39.136573
 20
-1611.643061
 40
1.326543
 50
276.643452
 51
281.964396
  0
ARC
  8
APS_GEOMETRY
 10
39.074983
 20
-1611.114268
 40
1.85891
 50
272.836113
 51
276.643452
  0
ARC
  8
APS_GEOMETRY
 10
39.001229
 20
-1609.625481
 40
3.349523
 50
270.0
 51
272.836113
  0
ARC
  8
APS_GEOMETRY
 10
39.001229
 20
-1608.702992
 40
4.272013
 50
267.283141
 51
270.0
  0
ARC
  8
APS_GEOMETRY
 10
38.911534
 20
-1610.593144
 40
2.379733
 50
263.64272
 51
267.283141
  0
ARC
  8
APS_GEOMETRY
 10
38.836421
 20
-1611.267332
 40
1.701374
 50
258.563267
 51
263.64272
  0
ARC
  8
APS_GEOMETRY
 10
38.656983
 20
-1612.154308
 40
0.79643
 50
251.136412
 51
258.563267
  0
ARC
  8
APS_GEOMETRY
 10
38.496778
 20
-1612.618944
 40
0.304954
 50
222.557585
 51
251.395035
  0
ARC
  8
APS_GEOMETRY
 10
38.377903
 20
-1612.728093
 40
0.143571
 50
180.0
 51
222.557585
  0
ARC
  8
APS_GEOMETRY
 10
38.35392
 20
-1612.728093
 40
0.119588
 50
150.642246
 51
180.0
  0
ARC
  8
APS_GEOMETRY
 10
38.363502
 20
-1612.733483
 40
0.130582
 50
122.574057
 51
150.642246
  0
ARC
  8
APS_GEOMETRY
 10
38.338155
 20
-1612.704364
 40
0.092571
 50
108.676702
 51
119.054604
  0
ARC
  8
APS_GEOMETRY
 10
39.493933
 20
-1616.123542
 40
3.70181
 50
107.037768
 51
108.676702
  0
ARC
  8
APS_GEOMETRY
 10
38.366213
 20
-1612.435367
 40
0.15494
 50
286.144339
 51
308.659808
  0
ARC
  8
APS_GEOMETRY
 10
38.391585
 20
-1612.467082
 40
0.114326
 50
308.659808
 51
334.932537
  0
ARC
  8
APS_GEOMETRY
 10
38.288349
 20
-1612.418795
 40
0.228296
 50
334.932537
 51
348.829022
  0
ARC
  8
APS_GEOMETRY
 10
36.997055
 20
-1612.163791
 40
1.544528
 50
348.829022
 51
354.160508
  0
ARC
  8
APS_GEOMETRY
 10
36.12426
 20
-1612.073826
 40
2.421948
 50
354.143986
 51
355.660291
  0
ARC
  8
APS_GEOMETRY
 10
32.255446
 20
-1611.780232
 40
6.301886
 50
355.660291
 51
356.600286
  0
ARC
  8
APS_GEOMETRY
 10
29.297995
 20
-1611.604542
 40
9.264551
 50
356.600286
 51
357.239747
  0
ARC
  8
APS_GEOMETRY
 10
20.90674
 20
-1611.199976
 40
17.665553
 50
357.239747
 51
357.702834
  0
ARC
  8
APS_GEOMETRY
 10
21.732755
 20
-1611.233111
 40
16.838874
 50
357.702834
 51
358.674384
  0
ARC
  8
APS_GEOMETRY
 10
29.524369
 20
-1611.413413
 40
9.045174
 50
358.674384
 51
0.0
  0
ARC
  8
APS_GEOMETRY
 10
37.229039
 20
-1611.413413
 40
1.340503
 50
360.0
 51
6.241914
  0
ARC
  8
APS_GEOMETRY
 10
38.295001
 20
-1611.296823
 40
0.268184
 50
6.241914
 51
20.224859
  0
ARC
  8
APS_GEOMETRY
 10
38.442741
 20
-1611.242393
 40
0.110737
 50
20.224859
 51
50.440332
  0
ARC
  8
APS_GEOMETRY
 10
38.471432
 20
-1611.207661
 40
0.065687
 50
50.440332
 51
90.0
  0
ARC
  8
APS_GEOMETRY
 10
38.471432
 20
-1611.23009
 40
0.088116
 50
90.0
 51
126.747471
  0
ARC
  8
APS_GEOMETRY
 10
38.595933
 20
-1611.396832
 40
0.29621
 50
126.747471
 51
146.546691
  0
ARC
  8
APS_GEOMETRY
 10
36.396546
 20
-1609.951185
 40
2.335747
 50
324.255019
 51
326.700579
  0
ARC
  8
APS_GEOMETRY
 10
37.327694
 20
-1610.621391
 40
1.188484
 50
320.826342
 51
324.255019
  0
ARC
  8
APS_GEOMETRY
 10
37.632022
 20
-1610.869362
 40
0.795922
 50
315.721571
 51
320.826342
  0
ARC
  8
APS_GEOMETRY
 10
37.981729
 20
-1611.21037
 40
0.307474
 50
307.504142
 51
315.721571
  0
ARC
  8
APS_GEOMETRY
 10
37.949464
 20
-1611.167305
 40
0.361282
 50
291.305784
 51
307.405357
  0
ARC
  8
APS_GEOMETRY
 10
38.005407
 20
-1611.310749
 40
0.207315
 50
270.0
 51
291.305784
  0
ARC
  8
APS_GEOMETRY
 10
38.005407
 20
-1611.324116
 40
0.193948
 50
245.531798
 51
270.0
  0
ARC
  8
APS_GEOMETRY
 10
38.00394
 20
-1611.32734
 40
0.190406
 50
220.833495
 51
245.531798
  0
ARC
  8
APS_GEOMETRY
 10
38.023597
 20
-1611.310353
 40
0.216385
 50
198.683699
 51
220.833495
  0
ARC
  8
APS_GEOMETRY
 10
38.10567
 20
-1611.282599
 40
0.303024
 50
180.0
 51
198.683699
  0
ARC
  8
APS_GEOMETRY
 10
38.298031
 20
-1611.282599
 40
0.495385
 50
168.407825
 51
180.0
  0
ARC
  8
APS_GEOMETRY
 10
38.615668
 20
-1611.347755
 40
0.819636
 50
159.401826
 51
168.407825
  0
ARC
  8
APS_GEOMETRY
 10
38.713828
 20
-1611.384647
 40
0.9245
 50
151.38954
 51
159.401826
  0
ARC
  8
APS_GEOMETRY
 10
38.693709
 20
-1611.373673
 40
0.901582
 50
143.275893
 51
151.38954
  0
ARC
  8
APS_GEOMETRY
 10
38.441229
 20
-1611.184876
 40
0.58632
 50
124.215702
 51
143.310277
  0
ARC
  8
APS_GEOMETRY
 10
38.216345
 20
-1610.854165
 40
0.186391
 50
90.0
 51
124.215702
  0
ARC
  8
APS_GEOMETRY
 10
38.216345
 20
-1610.936993
 40
0.26922
 50
82.724995
 51
90.0
  0
ARC
  8
APS_GEOMETRY
 10
38.19531
 20
-1611.101765
 40
0.435329
 50
77.005383
 51
82.724995
  0
ARC
  8
APS_GEOMETRY
 10
38.837728
 20
-1608.004436
 40
2.728046
 50
258.486169
 51
260.377772
  0
ARC
  8
APS_GEOMETRY
 10
38.562529
 20
-1609.627682
 40
1.081637
 50
260.377772
 51
263.382083
  0
ARC
  8
APS_GEOMETRY
 10
38.538991
 20
-1609.830563
 40
0.877395
 50
263.382083
 51
267.083862
  0
ARC
  8
APS_GEOMETRY
 10
38.566272
 20
-1609.295
 40
1.413652
 50
267.083862
 51
270.0
  0
ARC
  8
APS_GEOMETRY
 10
41.552624
 20
-1611.951944
 40
1.289076
 50
71.909511
 51
90.0
  0
ARC
  8
APS_GEOMETRY
 10
41.602549
 20
-1611.799112
 40
1.128297
 50
52.561428
 51
71.909511
  0
ARC
  8
APS_GEOMETRY
 10
41.589473
 20
-1611.802915
 40
1.139294
 50
38.846006
 51
52.155542
  0
ARC
  8
APS_GEOMETRY
 10
41.410866
 20
-1611.946755
 40
1.36862
 50
26.707224
 51
38.846006
  0
ARC
  8
APS_GEOMETRY
 10
41.446223
 20
-1611.91786
 40
1.324086
 50
13.867603
 51
26.277857
  0
ARC
  8
APS_GEOMETRY
 10
41.701209
 20
-1611.85491
 40
1.061444
 50
0.0
 51
13.867603
  0
ARC
  8
APS_GEOMETRY
 10
41.717719
 20
-1611.85491
 40
1.044934
 50
339.712247
 51
0.0
  0
ARC
  8
APS_GEOMETRY
 10
41.658894
 20
-1611.833164
 40
1.10765
 50
320.013114
 51
339.712247
  0
ARC
  8
APS_GEOMETRY
 10
41.649139
 20
-1611.827787
 40
1.118582
 50
303.343757
 51
320.123166
  0
ARC
  8
APS_GEOMETRY
 10
41.534352
 20
-1611.653332
 40
1.327413
 50
287.949403
 51
303.343757
  0
ARC
  8
APS_GEOMETRY
 10
41.49664
 20
-1611.522576
 40
1.463433
 50
279.039483
 51
287.776406
  0
ARC
  8
APS_GEOMETRY
 10
41.511745
 20
-1611.617521
 40
1.367295
 50
270.0
 51
279.039483
  0
ARC
  8
APS_GEOMETRY
 10
41.511745
 20
-1611.684273
 40
1.300543
 50
257.72804
 51
270.0
  0
ARC
  8
APS_GEOMETRY
 10
41.513791
 20
-1611.674865
 40
1.31017
 50
245.501426
 51
257.72804
  0
ARC
  8
APS_GEOMETRY
 10
41.440156
 20
-1611.836004
 40
1.133004
 50
228.665185
 51
245.510859
  0
ARC
  8
APS_GEOMETRY
 10
41.415666
 20
-1611.863846
 40
1.095924
 50
211.534792
 51
228.665185
  0
ARC
  8
APS_GEOMETRY
 10
41.447765
 20
-1611.840274
 40
1.135616
 50
195.642246
 51
211.70143
  0
ARC
  8
APS_GEOMETRY
 10
41.506451
 20
-1611.823842
 40
1.19656
 50
180.0
 51
195.642246
  0
ARC
  8
APS_GEOMETRY
 10
41.519029
 20
-1611.823842
 40
1.209138
 50
162.181111
 51
180.0
  0
ARC
  8
APS_GEOMETRY
 10
41.408705
 20
-1611.78838
 40
1.093254
 50
143.433519
 51
162.181111
  0
ARC
  8
APS_GEOMETRY
 10
41.393861
 20
-1611.776491
 40
1.074249
 50
126.384352
 51
143.471145
  0
ARC
  8
APS_GEOMETRY
 10
41.495567
 20
-1611.914521
 40
1.245703
 50
110.525108
 51
126.384352
  0
ARC
  8
APS_GEOMETRY
 10
41.490533
 20
-1611.877041
 40
1.208866
 50
99.7697
 51
110.924502
  0
ARC
  8
APS_GEOMETRY
 10
41.552624
 20
-1612.237647
 40
1.57478
 50
90.0
 51
99.7697
  0
ARC
  8
APS_GEOMETRY
 10
41.397282
 20
-1611.372521
 40
0.240358
 50
90.0
 51
119.604451
  0
ARC
  8
APS_GEOMETRY
 10
41.418335
 20
-1611.409572
 40
0.282973
 50
119.604451
 51
146.842076
  0
ARC
  8
APS_GEOMETRY
 10
41.460643
 20
-1611.444261
 40
0.337416
 50
145.840305
 51
164.054604
  0
ARC
  8
APS_GEOMETRY
 10
41.558708
 20
-1611.472279
 40
0.439405
 50
164.054604
 51
180.0
  0
ARC
  8
APS_GEOMETRY
 10
42.17193
 20
-1611.472279
 40
1.052628
 50
180.0
 51
189.976729
  0
ARC
  8
APS_GEOMETRY
 10
43.10451
 20
-1611.308231
 40
1.999526
 50
189.976729
 51
197.211115
  0
ARC
  8
APS_GEOMETRY
 10
43.308486
 20
-1611.245046
 40
2.213064
 50
197.211115
 51
203.760424
  0
ARC
  8
APS_GEOMETRY
 10
42.800351
 20
-1611.468741
 40
1.65787
 50
203.760424
 51
211.328693
  0
ARC
  8
APS_GEOMETRY
 10
41.756944
 20
-1612.094929
 40
0.441075
 50
212.319617
 51
224.440823
  0
ARC
  8
APS_GEOMETRY
 10
41.714173
 20
-1612.136873
 40
0.381169
 50
224.440823
 51
237.483626
  0
ARC
  8
APS_GEOMETRY
 10
41.686533
 20
-1612.180231
 40
0.329751
 50
237.483626
 51
252.415923
  0
ARC
  8
APS_GEOMETRY
 10
41.65891
 20
-1612.267394
 40
0.238315
 50
252.415923
 51
270.0
  0
ARC
  8
APS_GEOMETRY
 10
41.65891
 20
-1612.239136
 40
0.266573
 50
270.0
 51
294.952847
  0
ARC
  8
APS_GEOMETRY
 10
41.666379
 20
-1612.255187
 40
0.248869
 50
294.952847
 51
320.792796
  0
ARC
  8
APS_GEOMETRY
 10
41.626346
 20
-1612.222529
 40
0.300533
 50
320.792796
 51
342.776564
  0
ARC
  8
APS_GEOMETRY
 10
41.447956
 20
-1612.167228
 40
0.487299
 50
342.776564
 51
0.0
  0
ARC
  8
APS_GEOMETRY
 10
40.6099
 20
-1612.167228
 40
1.325355
 50
0.0
 51
8.498559
  0
ARC
  8
APS_GEOMETRY
 10
40.026533
 20
-1612.254398
 40
1.915198
 50
8.498559
 51
15.566318
  0
ARC
  8
APS_GEOMETRY
 10
40.096674
 20
-1612.234859
 40
1.842387
 50
15.566318
 51
22.908635
  0
ARC
  8
APS_GEOMETRY
 10
40.699859
 20
-1611.979956
 40
1.187553
 50
22.908635
 51
32.057376
  0
ARC
  8
APS_GEOMETRY
 10
41.173646
 20
-1611.681477
 40
0.627589
 50
31.920876
 51
42.510447
  0
ARC
  8
APS_GEOMETRY
 10
41.303748
 20
-1611.562217
 40
0.451096
 50
42.510447
 51
55.00798
  0
ARC
  8
APS_GEOMETRY
 10
41.347692
 20
-1611.49944
 40
0.374468
 50
55.00798
 51
69.880367
  0
ARC
  8
APS_GEOMETRY
 10
41.387098
 20
-1611.391873
 40
0.25991
 50
69.880367
 51
87.754257
  0
ARC
  8
APS_GEOMETRY
 10
43.973663
 20
-1611.462031
 40
0.799163
 50
83.922511
 51
90.0
  0
ARC
  8
APS_GEOMETRY
 10
43.909379
 20
-1612.065795
 40
1.40634
 50
79.342054
 51
83.922511
  0
ARC
  8
APS_GEOMETRY
 10
43.831842
 20
-1612.477805
 40
1.825583
 50
75.80788
 51
79.342054
  0
ARC
  8
APS_GEOMETRY
 10
43.56131
 20
-1613.547556
 40
2.929011
 50
73.017894
 51
75.80788
  0
ARC
  8
APS_GEOMETRY
 10
44.513877
 20
-1610.422908
 40
0.337613
 50
253.288427
 51
259.045937
  0
ARC
  8
APS_GEOMETRY
 10
44.467486
 20
-1610.662598
 40
0.093475
 50
259.045937
 51
270.0
  0
ARC
  8
APS_GEOMETRY
 10
44.467486
 20
-1610.700588
 40
0.055485
 50
270.0
 51
286.699244
  0
ARC
  8
APS_GEOMETRY
 10
44.023826
 20
-1609.221722
 40
1.599466
 50
286.699244
 51
289.798876
  0
ARC
  8
APS_GEOMETRY
 10
44.618309
 20
-1610.867206
 40
0.150125
 50
100.00798
 51
110.556045
  0
ARC
  8
APS_GEOMETRY
 10
44.621192
 20
-1610.883546
 40
0.166718
 50
90.0
 51
100.00798
  0
ARC
  8
APS_GEOMETRY
 10
44.621192
 20
-1610.875786
 40
0.158957
 50
53.355929
 51
90.0
  0
ARC
  8
APS_GEOMETRY
 10
44.343505
 20
-1611.249092
 40
0.624219
 50
35.100706
 51
53.355929
  0
ARC
  8
APS_GEOMETRY
 10
44.204949
 20
-1611.346474
 40
0.793573
 50
20.244574
 51
35.100706
  0
ARC
  8
APS_GEOMETRY
 10
44.546617
 20
-1611.220462
 40
0.429408
 50
0.0
 51
20.244574
  0
ARC
  8
APS_GEOMETRY
 10
44.718537
 20
-1611.220462
 40
0.257488
 50
340.480718
 51
0.0
  0
ARC
  8
APS_GEOMETRY
 10
44.760931
 20
-1611.235491
 40
0.212509
 50
318.972496
 51
340.480718
  0
ARC
  8
APS_GEOMETRY
 10
44.779859
 20
-1611.251961
 40
0.187419
 50
295.016893
 51
318.972496
  0
ARC
  8
APS_GEOMETRY
 10
44.786345
 20
-1611.265859
 40
0.172082
 50
270.0
 51
295.016893
  0
ARC
  8
APS_GEOMETRY
 10
44.786345
 20
-1611.17367
 40
0.26427
 50
256.171349
 51
270.0
  0
ARC
  8
APS_GEOMETRY
 10
44.757531
 20
-1611.290727
 40
0.143719
 50
237.380757
 51
256.171349
  0
ARC
  8
APS_GEOMETRY
 10
44.80856
 20
-1611.210995
 40
0.238383
 50
231.559211
 51
237.380757
  0
ARC
  8
APS_GEOMETRY
 10
45.550694
 20
-1610.276022
 40
1.43209
 50
229.184916
 51
231.559211
  0
ARC
  8
APS_GEOMETRY
 10
46.346065
 20
-1609.355066
 40
2.648961
 50
227.899934
 51
229.184916
  0
ARC
  8
APS_GEOMETRY
 10
49.098713
 20
-1606.308657
 40
6.754772
 50
227.095253
 51
227.899934
  0
ARC
  8
APS_GEOMETRY
 10
43.930577
 20
-1611.866735
 40
0.83482
 50
46.974934
 51
64.612094
  0
ARC
  8
APS_GEOMETRY
 10
44.114288
 20
-1611.479629
 40
0.406332
 50
64.612094
 51
90.0
  0
ARC
  8
APS_GEOMETRY
 10
44.114288
 20
-1611.366088
 40
0.292792
 50
90.0
 51
106.966148
  0
ARC
  8
APS_GEOMETRY
 10
44.080371
 20
-1611.254915
 40
0.17656
 50
106.966148
 51
128.867778
  0
ARC
  8
APS_GEOMETRY
 10
44.060732
 20
-1611.230548
 40
0.145264
 50
128.867778
 51
154.740609
  0
ARC
  8
APS_GEOMETRY
 10
44.067081
 20
-1611.233544
 40
0.152284
 50
154.740609
 51
180.0
  0
ARC
  8
APS_GEOMETRY
 10
44.057845
 20
-1611.233544
 40
0.143048
 50
180.0
 51
206.640144
  0
ARC
  8
APS_GEOMETRY
 10
44.10386
 20
-1611.21046
 40
0.194529
 50
206.640144
 51
229.429559
  0
ARC
  8
APS_GEOMETRY
 10
44.177643
 20
-1611.124287
 40
0.307973
 50
229.429559
 51
244.493062
  0
ARC
  8
APS_GEOMETRY
 10
44.379924
 20
-1610.700327
 40
0.777717
 50
244.493062
 51
253.955733
  0
ARC
  8
APS_GEOMETRY
 10
40.776377
 20
-1622.946776
 40
11.987918
 50
72.73731
 51
73.580493
  0
ARC
  8
APS_GEOMETRY
 10
42.84156
 20
-1616.300997
 40
5.028654
 50
71.435423
 51
72.73731
  0
ARC
  8
APS_GEOMETRY
 10
43.525592
 20
-1614.264273
 40
2.880133
 50
69.164305
 51
71.435423
  0
ARC
  8
APS_GEOMETRY
 10
44.332834
 20
-1612.143175
 40
0.610618
 50
64.230672
 51
69.164305
  0
ARC
  8
APS_GEOMETRY
 10
44.239997
 20
-1612.330114
 40
0.81933
 50
34.93931
 51
64.067526
  0
ARC
  8
APS_GEOMETRY
 10
44.44038
 20
-1612.190121
 40
0.574889
 50
0.0
 51
34.93931
  0
ARC
  8
APS_GEOMETRY
 10
44.317185
 20
-1612.190121
 40
0.698084
 50
333.434949
 51
0.0
  0
ARC
  8
APS_GEOMETRY
 10
44.271548
 20
-1612.167302
 40
0.749108
 50
307.80653
 51
333.434949
  0
ARC
  8
APS_GEOMETRY
 10
44.152786
 20
-1612.013673
 40
0.943289
 50
296.732094
 51
307.785738
  0
ARC
  8
APS_GEOMETRY
 10
44.08252
 20
-1611.87416
 40
1.099498
 50
286.495988
 51
296.732094
  0
ARC
  8
APS_GEOMETRY
 10
44.036241
 20
-1611.717883
 40
1.262483
 50
277.544213
 51
286.495988
  0
ARC
  8
APS_GEOMETRY
 10
43.968758
 20
-1611.208337
 40
1.776479
 50
270.0
 51
277.544213
  0
ARC
  8
APS_GEOMETRY
 10
43.968758
 20
-1611.131272
 40
1.853543
 50
263.55502
 51
270.0
  0
ARC
  8
APS_GEOMETRY
 10
44.028763
 20
-1610.60008
 40
2.388113
 50
257.87769
 51
263.55502
  0
ARC
  8
APS_GEOMETRY
 10
43.996911
 20
-1610.748373
 40
2.236439
 50
254.83911
 51
257.87769
  0
ARC
  8
APS_GEOMETRY
 10
43.738585
 20
-1611.701741
 40
1.248692
 50
250.772225
 51
254.83911
  0
ARC
  8
APS_GEOMETRY
 10
43.622398
 20
-1612.034866
 40
0.895887
 50
245.120665
 51
250.772225
  0
ARC
  8
APS_GEOMETRY
 10
43.425719
 20
-1612.458975
 40
0.428392
 50
236.944177
 51
245.120665
  0
ARC
  8
APS_GEOMETRY
 10
43.309735
 20
-1612.6415
 40
0.21216
 50
211.80188
 51
236.309932
  0
ARC
  8
APS_GEOMETRY
 10
43.860957
 20
-1612.299702
 40
0.860752
 50
199.704454
 51
211.80188
  0
ARC
  8
APS_GEOMETRY
 10
44.12419
 20
-1612.205428
 40
1.140358
 50
190.41311
 51
199.704454
  0
ARC
  8
APS_GEOMETRY
 10
43.896061
 20
-1612.247352
 40
0.908408
 50
180.0
 51
190.41311
  0
ARC
  8
APS_GEOMETRY
 10
43.281083
 20
-1612.247352
 40
0.29343
 50
164.875993
 51
180.0
  0
ARC
  8
APS_GEOMETRY
 10
43.115757
 20
-1612.202669
 40
0.122172
 50
141.340192
 51
164.875993
  0
ARC
  8
APS_GEOMETRY
 10
43.131748
 20
-1612.213373
 40
0.141355
 50
116.927678
 51
142.001268
  0
ARC
  8
APS_GEOMETRY
 10
43.123372
 20
-1612.196884
 40
0.122861
 50
90.0
 51
116.927678
  0
ARC
  8
APS_GEOMETRY
 10
43.123372
 20
-1612.197205
 40
0.123182
 50
62.209558
 51
90.0
  0
ARC
  8
APS_GEOMETRY
 10
43.07419
 20
-1612.290526
 40
0.228669
 50
41.905942
 51
62.209558
  0
ARC
  8
APS_GEOMETRY
 10
43.082537
 20
-1612.292277
 40
0.223733
 50
37.313278
 51
43.66778
  0
ARC
  8
APS_GEOMETRY
 10
41.829149
 20
-1613.247562
 40
1.799662
 50
35.073754
 51
37.313278
  0
ARC
  8
APS_GEOMETRY
 10
40.405773
 20
-1614.246953
 40
3.538851
 50
33.933582
 51
35.073754
  0
ARC
  8
APS_GEOMETRY
 10
35.330891
 20
-1617.661452
 40
9.655487
 50
33.243326
 51
33.933582
  0
ARC
  8
APS_GEOMETRY
 10
43.686874
 20
-1612.182947
 40
0.336335
 50
213.453309
 51
231.636906
  0
ARC
  8
APS_GEOMETRY
 10
43.845801
 20
-1611.982166
 40
0.592403
 50
231.636906
 51
245.313085
  0
ARC
  8
APS_GEOMETRY
 10
43.880806
 20
-1611.906014
 40
0.676215
 50
245.313085
 51
257.398477
  0
ARC
  8
APS_GEOMETRY
 10
43.869012
 20
-1611.958769
 40
0.622158
 50
257.398477
 51
270.0
  0
ARC
  8
APS_GEOMETRY
 10
43.869012
 20
-1612.055634
 40
0.525293
 50
270.0
 51
282.907409
  0
ARC
  8
APS_GEOMETRY
 10
43.925536
 20
-1612.302286
 40
0.272248
 50
282.907409
 51
300.872083
  0
ARC
  8
APS_GEOMETRY
 10
43.974548
 20
-1612.384269
 40
0.176731
 50
300.872083
 51
326.876264
  0
ARC
  8
APS_GEOMETRY
 10
44.030352
 20
-1612.42068
 40
0.110099
 50
326.876264
 51
0.0
  0
ARC
  8
APS_GEOMETRY
 10
44.013899
 20
-1612.42068
 40
0.126552
 50
0.0
 51
27.552812
  0
ARC
  8
APS_GEOMETRY
 10
43.973874
 20
-1612.441563
 40
0.171697
 50
27.552812
 51
51.146626
  0
ARC
  8
APS_GEOMETRY
 10
43.891145
 20
-1612.544261
 40
0.303571
 50
51.146626
 51
65.224859
  0
ARC
  8
APS_GEOMETRY
 10
43.585979
 20
-1613.205455
 40
1.031791
 50
65.224859
 51
72.847578
  0
ARC
  8
APS_GEOMETRY
 10
45.368053
 20
-1607.523486
 40
4.923098
 50
251.105878
 51
252.531977
  0
ARC
  8
APS_GEOMETRY
 10
44.737238
 20
-1609.366561
 40
2.97506
 50
249.271334
 51
251.105878
  0
ARC
  8
APS_GEOMETRY
 10
44.474993
 20
-1610.059524
 40
2.234135
 50
246.829602
 51
249.271334
  0
ARC
  8
APS_GEOMETRY
 10
44.050802
 20
-1611.05065
 40
1.156049
 50
243.434949
 51
246.829602
  0
ARC
  8
APS_GEOMETRY
 10
44.002514
 20
-1611.147225
 40
1.048075
 50
235.98065
 51
243.434949
  0
ARC
  8
APS_GEOMETRY
 10
44.039595
 20
-1611.092292
 40
1.114352
 50
228.751729
 51
235.98065
  0
ARC
  8
APS_GEOMETRY
 10
43.865882
 20
-1611.296993
 40
0.845923
 50
206.42073
 51
228.456619
  0
ARC
  8
APS_GEOMETRY
 10
43.638152
 20
-1611.410142
 40
0.591632
 50
180.0
 51
206.42073
  0
ARC
  8
APS_GEOMETRY
 10
43.648893
 20
-1611.410142
 40
0.602373
 50
166.55482
 51
180.0
  0
ARC
  8
APS_GEOMETRY
 10
43.718649
 20
-1611.426819
 40
0.674095
 50
153.848132
 51
166.55482
  0
ARC
  8
APS_GEOMETRY
 10
43.724458
 20
-1611.429671
 40
0.680567
 50
141.243612
 51
153.848132
  0
ARC
  8
APS_GEOMETRY
 10
43.76747
 20
-1611.4642
 40
0.735723
 50
129.122607
 51
141.243612
  0
ARC
  8
APS_GEOMETRY
 10
43.905119
 20
-1611.610558
 40
0.936233
 50
108.978219
 51
130.006256
  0
ARC
  8
APS_GEOMETRY
 10
43.973663
 20
-1611.809871
 40
1.147003
 50
90.0
 51
108.978219
  0
ARC
  8
APS_GEOMETRY
 10
46.473191
 20
-1611.726059
 40
1.063191
 50
77.257003
 51
90.0
  0
ARC
  8
APS_GEOMETRY
 10
46.462388
 20
-1611.773828
 40
1.112167
 50
64.798876
 51
77.257003
  0
ARC
  8
APS_GEOMETRY
 10
47.378267
 20
-1609.823899
 40
1.042145
 50
244.885165
 51
251.17529
  0
ARC
  8
APS_GEOMETRY
 10
47.079841
 20
-1610.699283
 40
0.117291
 50
251.17529
 51
270.0
  0
ARC
  8
APS_GEOMETRY
 10
47.079841
 20
-1610.626255
 40
0.190319
 50
270.0
 51
278.82038
  0
ARC
  8
APS_GEOMETRY
 10
46.956886
 20
-1609.833882
 40
0.992175
 50
278.82038
 51
282.680383
  0
ARC
  8
APS_GEOMETRY
 10
47.214155
 20
-1610.972911
 40
0.175549
 50
95.906141
 51
102.994617
  0
ARC
  8
APS_GEOMETRY
 10
47.222101
 20
-1611.049724
 40
0.252772
 50
90.0
 51
95.906141
  0
ARC
  8
APS_GEOMETRY
 10
47.222101
 20
-1610.964728
 40
0.167776
 50
62.447188
 51
90.0
  0
ARC
  8
APS_GEOMETRY
 10
47.192266
 20
-1611.02191
 40
0.232273
 50
39.093859
 51
62.447188
  0
ARC
  8
APS_GEOMETRY
 10
46.880559
 20
-1611.282594
 40
0.638605
 50
18.434949
 51
39.610688
  0
ARC
  8
APS_GEOMETRY
 10
46.68923
 20
-1611.346371
 40
0.840284
 50
0.0
 51
18.434949
  0
ARC
  8
APS_GEOMETRY
 10
47.11285
 20
-1611.346371
 40
0.416664
 50
334.876872
 51
0.0
  0
ARC
  8
APS_GEOMETRY
 10
47.238167
 20
-1611.405135
 40
0.278252
 50
304.007492
 51
334.876872
  0
ARC
  8
APS_GEOMETRY
 10
47.236102
 20
-1611.399258
 40
0.284284
 50
286.38954
 51
303.690068
  0
ARC
  8
APS_GEOMETRY
 10
47.227006
 20
-1611.368334
 40
0.316518
 50
270.0
 51
286.38954
  0
ARC
  8
APS_GEOMETRY
 10
47.227006
 20
-1611.372023
 40
0.312829
 50
255.154548
 51
270.0
  0
ARC
  8
APS_GEOMETRY
 10
47.192736
 20
-1611.501315
 40
0.179072
 50
235.491477
 51
255.154548
  0
ARC
  8
APS_GEOMETRY
 10
47.209938
 20
-1611.476295
 40
0.209435
 50
218.480198
 51
235.491477
  0
ARC
  8
APS_GEOMETRY
 10
47.490981
 20
-1611.252901
 40
0.568448
 50
208.17859
 51
218.480198
  0
ARC
  8
APS_GEOMETRY
 10
44.609756
 20
-1612.816859
 40
2.709888
 50
28.55962
 51
31.663799
  0
ARC
  8
APS_GEOMETRY
 10
46.370366
 20
-1611.73102
 40
0.641364
 50
31.663799
 51
38.047043
  0
ARC
  8
APS_GEOMETRY
 10
46.498379
 20
-1611.630836
 40
0.47881
 50
38.047043
 51
46.5602
  0
ARC
  8
APS_GEOMETRY
 10
46.431839
 20
-1611.701102
 40
0.575581
 50
46.5602
 51
54.323592
  0
ARC
  8
APS_GEOMETRY
 10
46.393432
 20
-1611.767172
 40
0.651693
 50
54.968356
 51
71.480419
  0
ARC
  8
APS_GEOMETRY
 10
46.435582
 20
-1611.641343
 40
0.518991
 50
71.480419
 51
90.0
  0
ARC
  8
APS_GEOMETRY
 10
46.435582
 20
-1611.48488
 40
0.362528
 50
90.0
 51
114.629635
  0
ARC
  8
APS_GEOMETRY
 10
46.417377
 20
-1611.445171
 40
0.318845
 50
114.629635
 51
140.920621
  0
ARC
  8
APS_GEOMETRY
 10
46.471166
 20
-1611.488852
 40
0.388137
 50
140.920621
 51
163.129646
  0
ARC
  8
APS_GEOMETRY
 10
46.740037
 20
-1611.57039
 40
0.669099
 50
163.129646
 51
180.0
  0
ARC
  8
APS_GEOMETRY
 10
47.088711
 20
-1611.57039
 40
1.017773
 50
180.0
 51
195.439646
  0
ARC
  8
APS_GEOMETRY
 10
47.035807
 20
-1611.585001
 40
0.962889
 50
195.439646
 51
211.31598
  0
ARC
  8
APS_GEOMETRY
 10
46.781345
 20
-1611.734468
 40
0.667827
 50
211.707816
 51
240.456928
  0
ARC
  8
APS_GEOMETRY
 10
46.764252
 20
-1611.764627
 40
0.633161
 50
240.456928
 51
270.0
  0
ARC
  8
APS_GEOMETRY
 10
46.764252
 20
-1611.610254
 40
0.787534
 50
270.0
 51
279.549134
  0
ARC
  8
APS_GEOMETRY
 10
46.754461
 20
-1611.552054
 40
0.846552
 50
279.549134
 51
288.75865
  0
ARC
  8
APS_GEOMETRY
 10
46.795731
 20
-1611.67357
 40
0.718218
 50
288.75865
 51
299.544635
  0
ARC
  8
APS_GEOMETRY
 10
46.961213
 20
-1611.965529
 40
0.382623
 50
299.544635
 51
314.341457
  0
ARC
  8
APS_GEOMETRY
 10
47.472969
 20
-1612.497077
 40
0.355259
 50
120.141386
 51
133.451842
  0
ARC
  8
APS_GEOMETRY
 10
47.330022
 20
-1612.250891
 40
0.070581
 50
90.0
 51
120.141386
  0
ARC
  8
APS_GEOMETRY
 10
47.330022
 20
-1612.29179
 40
0.11148
 50
61.951894
 51
90.0
  0
ARC
  8
APS_GEOMETRY
 10
47.31342
 20
-1612.322951
 40
0.146789
 50
37.568592
 51
61.951894
  0
ARC
  8
APS_GEOMETRY
 10
47.282456
 20
-1612.34677
 40
0.185854
 50
17.665186
 51
37.568592
  0
ARC
  8
APS_GEOMETRY
 10
47.235217
 20
-1612.361814
 40
0.23543
 50
0.0
 51
17.665186
  0
ARC
  8
APS_GEOMETRY
 10
47.116618
 20
-1612.361814
 40
0.354029
 50
344.931512
 51
0.0
  0
ARC
  8
APS_GEOMETRY
 10
46.801717
 20
-1612.277033
 40
0.680144
 50
334.075098
 51
344.931512
  0
ARC
  8
APS_GEOMETRY
 10
46.791814
 20
-1612.272219
 40
0.691154
 50
323.374259
 51
334.075098
  0
ARC
  8
APS_GEOMETRY
 10
46.995003
 20
-1612.423262
 40
0.437976
 50
309.920392
 51
323.374259
  0
ARC
  8
APS_GEOMETRY
 10
47.198055
 20
-1612.6628
 40
0.123978
 50
289.025606
 51
308.990994
  0
ARC
  8
APS_GEOMETRY
 10
46.981407
 20
-1612.034521
 40
0.788561
 50
281.14289
 51
289.025606
  0
ARC
  8
APS_GEOMETRY
 10
47.201108
 20
-1613.173595
 40
0.371526
 50
100.437475
 51
110.119633
  0
ARC
  8
APS_GEOMETRY
 10
47.492165
 20
-1613.968102
 40
1.217667
 50
110.119633
 51
115.463345
  0
ARC
  8
APS_GEOMETRY
 10
46.453109
 20
-1611.794072
 40
1.191908
 50
282.940436
 51
295.628419
  0
ARC
  8
APS_GEOMETRY
 10
46.46338
 20
-1611.838771
 40
1.146044
 50
270.0
 51
282.940436
  0
ARC
  8
APS_GEOMETRY
 10
46.46338
 20
-1611.771075
 40
1.21374
 50
257.307334
 51
270.0
  0
ARC
  8
APS_GEOMETRY
 10
46.514616
 20
-1611.543585
 40
1.446929
 50
245.686204
 51
257.307334
  0
ARC
  8
APS_GEOMETRY
 10
46.386105
 20
-1611.82566
 40
1.136961
 50
228.800778
 51
245.735234
  0
ARC
  8
APS_GEOMETRY
 10
46.388258
 20
-1611.8232
 40
1.14023
 50
211.890792
 51
228.800778
  0
ARC
  8
APS_GEOMETRY
 10
46.455639
 20
-1611.7747
 40
1.223075
 50
196.727964
 51
212.152295
  0
ARC
  8
APS_GEOMETRY
 10
46.281249
 20
-1611.827112
 40
1.04098
 50
180.0
 51
196.727964
  0
ARC
  8
APS_GEOMETRY
 10
46.306616
 20
-1611.827112
 40
1.066347
 50
161.183932
 51
180.0
  0
ARC
  8
APS_GEOMETRY
 10
46.375033
 20
-1611.850424
 40
1.138626
 50
142.980114
 51
161.183932
  0
ARC
  8
APS_GEOMETRY
 10
46.428236
 20
-1611.89114
 40
1.20562
 50
127.824257
 51
142.957525
  0
ARC
  8
APS_GEOMETRY
 10
46.515935
 20
-1612.004102
 40
1.348629
 50
113.520273
 51
127.824257
  0
ARC
  8
APS_GEOMETRY
 10
46.48739
 20
-1611.938137
 40
1.276753
 50
101.926773
 51
113.527064
  0
ARC
  8
APS_GEOMETRY
 10
46.473191
 20
-1611.870913
 40
1.208046
 50
90.0
 51
101.926773
  0
ARC
  8
APS_GEOMETRY
 10
48.997246
 20
-1611.951944
 40
1.289076
 50
71.909511
 51
90.0
  0
ARC
  8
APS_GEOMETRY
 10
49.047171
 20
-1611.799112
 40
1.128297
 50
52.561428
 51
71.909511
  0
ARC
  8
APS_GEOMETRY
 10
49.034095
 20
-1611.802915
 40
1.139294
 50
38.846006
 51
52.155542
  0
ARC
  8
APS_GEOMETRY
 10
48.855488
 20
-1611.946755
 40
1.36862
 50
26.707224
 51
38.846006
  0
ARC
  8
APS_GEOMETRY
 10
48.890845
 20
-1611.91786
 40
1.324086
 50
13.867603
 51
26.277857
  0
ARC
  8
APS_GEOMETRY
 10
49.145831
 20
-1611.85491
 40
1.061444
 50
0.0
 51
13.867603
  0
ARC
  8
APS_GEOMETRY
 10
49.162341
 20
-1611.85491
 40
1.044934
 50
339.712247
 51
0.0
  0
ARC
  8
APS_GEOMETRY
 10
49.103516
 20
-1611.833164
 40
1.10765
 50
320.013114
 51
339.712247
  0
ARC
  8
APS_GEOMETRY
 10
49.093761
 20
-1611.827787
 40
1.118582
 50
303.343757
 51
320.123166
  0
ARC
  8
APS_GEOMETRY
 10
48.978975
 20
-1611.653332
 40
1.327413
 50
287.949403
 51
303.343757
  0
ARC
  8
APS_GEOMETRY
 10
48.941262
 20
-1611.522576
 40
1.463433
 50
279.039483
 51
287.776406
  0
ARC
  8
APS_GEOMETRY
 10
48.956367
 20
-1611.617521
 40
1.367295
 50
270.0
 51
279.039483
  0
ARC
  8
APS_GEOMETRY
 10
48.956367
 20
-1611.684273
 40
1.300543
 50
257.72804
 51
270.0
  0
ARC
  8
APS_GEOMETRY
 10
48.958413
 20
-1611.674865
 40
1.31017
 50
245.501426
 51
257.72804
  0
ARC
  8
APS_GEOMETRY
 10
48.884778
 20
-1611.836004
 40
1.133004
 50
228.665185
 51
245.510859
  0
ARC
  8
APS_GEOMETRY
 10
48.860288
 20
-1611.863846
 40
1.095924
 50
211.534792
 51
228.665185
  0
ARC
  8
APS_GEOMETRY
 10
48.892387
 20
-1611.840274
 40
1.135616
 50
195.642246
 51
211.70143
  0
ARC
  8
APS_GEOMETRY
 10
48.951073
 20
-1611.823842
 40
1.19656
 50
180.0
 51
195.642246
  0
ARC
  8
APS_GEOMETRY
 10
48.963651
 20
-1611.823842
 40
1.209138
 50
162.181111
 51
180.0
  0
ARC
  8
APS_GEOMETRY
 10
48.853327
 20
-1611.78838
 40
1.093254
 50
143.433519
 51
162.181111
  0
ARC
  8
APS_GEOMETRY
 10
48.838483
 20
-1611.776491
 40
1.074249
 50
126.384352
 51
143.471145
  0
ARC
  8
APS_GEOMETRY
 10
48.940189
 20
-1611.914521
 40
1.245703
 50
110.525108
 51
126.384352
  0
ARC
  8
APS_GEOMETRY
 10
48.935155
 20
-1611.877041
 40
1.208866
 50
99.7697
 51
110.924502
  0
ARC
  8
APS_GEOMETRY
 10
48.997246
 20
-1612.237647
 40
1.57478
 50
90.0
 51
99.7697
  0
ARC
  8
APS_GEOMETRY
 10
48.841904
 20
-1611.372521
 40
0.240358
 50
90.0
 51
119.604451
  0
ARC
  8
APS_GEOMETRY
 10
48.862957
 20
-1611.409572
 40
0.282973
 50
119.604451
 51
146.842076
  0
ARC
  8
APS_GEOMETRY
 10
48.905265
 20
-1611.444261
 40
0.337416
 50
145.840305
 51
164.054604
  0
ARC
  8
APS_GEOMETRY
 10
49.00333
 20
-1611.472279
 40
0.439405
 50
164.054604
 51
180.0
  0
ARC
  8
APS_GEOMETRY
 10
49.616552
 20
-1611.472279
 40
1.052628
 50
180.0
 51
189.976729
  0
ARC
  8
APS_GEOMETRY
 10
50.549132
 20
-1611.308231
 40
1.999526
 50
189.976729
 51
197.211115
  0
ARC
  8
APS_GEOMETRY
 10
50.753108
 20
-1611.245046
 40
2.213064
 50
197.211115
 51
203.760424
  0
ARC
  8
APS_GEOMETRY
 10
50.244973
 20
-1611.468741
 40
1.65787
 50
203.760424
 51
211.328693
  0
ARC
  8
APS_GEOMETRY
 10
49.201566
 20
-1612.094929
 40
0.441075
 50
212.319617
 51
224.440823
  0
ARC
  8
APS_GEOMETRY
 10
49.158795
 20
-1612.136873
 40
0.381169
 50
224.440823
 51
237.483626
  0
ARC
  8
APS_GEOMETRY
 10
49.131155
 20
-1612.180231
 40
0.329751
 50
237.483626
 51
252.415923
  0
ARC
  8
APS_GEOMETRY
 10
49.103532
 20
-1612.267394
 40
0.238315
 50
252.415923
 51
270.0
  0
ARC
  8
APS_GEOMETRY
 10
49.103532
 20
-1612.239136
 40
0.266573
 50
270.0
 51
294.952847
  0
ARC
  8
APS_GEOMETRY
 10
49.111001
 20
-1612.255187
 40
0.248869
 50
294.952847
 51
320.792796
  0
ARC
  8
APS_GEOMETRY
 10
49.070969
 20
-1612.222529
 40
0.300533
 50
320.792796
 51
342.776564
  0
ARC
  8
APS_GEOMETRY
 10
48.892578
 20
-1612.167228
 40
0.487299
 50
342.776564
 51
0.0
  0
ARC
  8
APS_GEOMETRY
 10
48.054522
 20
-1612.167228
 40
1.325355
 50
0.0
 51
8.498559
  0
ARC
  8
APS_GEOMETRY
 10
47.471156
 20
-1612.254398
 40
1.915198
 50
8.498559
 51
15.566318
  0
ARC
  8
APS_GEOMETRY
 10
47.541296
 20
-1612.234859
 40
1.842387
 50
15.566318
 51
22.908635
  0
ARC
  8
APS_GEOMETRY
 10
48.144481
 20
-1611.979956
 40
1.187553
 50
22.908635
 51
32.057376
  0
ARC
  8
APS_GEOMETRY
 10
48.618268
 20
-1611.681477
 40
0.627589
 50
31.920876
 51
42.510447
  0
ARC
  8
APS_GEOMETRY
 10
48.74837
 20
-1611.562217
 40
0.451096
 50
42.510447
 51
55.00798
  0
ARC
  8
APS_GEOMETRY
 10
48.792314
 20
-1611.49944
 40
0.374468
 50
55.00798
 51
69.880367
  0
ARC
  8
APS_GEOMETRY
 10
48.83172
 20
-1611.391873
 40
0.25991
 50
69.880367
 51
87.754257
  0
ARC
  8
APS_GEOMETRY
 10
51.665197
 20
-1611.726059
 40
1.063191
 50
77.257003
 51
90.0
  0
ARC
  8
APS_GEOMETRY
 10
51.654394
 20
-1611.773828
 40
1.112167
 50
64.798876
 51
77.257003
  0
ARC
  8
APS_GEOMETRY
 10
52.570273
 20
-1609.823899
 40
1.042145
 50
244.885165
 51
251.17529
  0
ARC
  8
APS_GEOMETRY
 10
52.271846
 20
-1610.699283
 40
0.117291
 50
251.17529
 51
270.0
  0
ARC
  8
APS_GEOMETRY
 10
52.271846
 20
-1610.626255
 40
0.190319
 50
270.0
 51
278.82038
  0
ARC
  8
APS_GEOMETRY
 10
52.148892
 20
-1609.833882
 40
0.992175
 50
278.82038
 51
282.680383
  0
ARC
  8
APS_GEOMETRY
 10
52.40616
 20
-1610.972911
 40
0.175549
 50
95.906141
 51
102.994617
  0
ARC
  8
APS_GEOMETRY
 10
52.414107
 20
-1611.049724
 40
0.252772
 50
90.0
 51
95.906141
  0
ARC
  8
APS_GEOMETRY
 10
52.414107
 20
-1610.964728
 40
0.167776
 50
62.447188
 51
90.0
  0
ARC
  8
APS_GEOMETRY
 10
52.384272
 20
-1611.02191
 40
0.232273
 50
39.093859
 51
62.447188
  0
ARC
  8
APS_GEOMETRY
 10
52.072565
 20
-1611.282594
 40
0.638605
 50
18.434949
 51
39.610688
  0
ARC
  8
APS_GEOMETRY
 10
51.881235
 20
-1611.346371
 40
0.840284
 50
0.0
 51
18.434949
  0
ARC
  8
APS_GEOMETRY
 10
52.304856
 20
-1611.346371
 40
0.416664
 50
334.876872
 51
0.0
  0
ARC
  8
APS_GEOMETRY
 10
52.430173
 20
-1611.405135
 40
0.278252
 50
304.007492
 51
334.876872
  0
ARC
  8
APS_GEOMETRY
 10
52.428107
 20
-1611.399258
 40
0.284284
 50
286.38954
 51
303.690068
  0
ARC
  8
APS_GEOMETRY
 10
52.419012
 20
-1611.368334
 40
0.316518
 50
270.0
 51
286.38954
  0
ARC
  8
APS_GEOMETRY
 10
52.419012
 20
-1611.372023
 40
0.312829
 50
255.154548
 51
270.0
  0
ARC
  8
APS_GEOMETRY
 10
52.384742
 20
-1611.501315
 40
0.179072
 50
235.491477
 51
255.154548
  0
ARC
  8
APS_GEOMETRY
 10
52.401943
 20
-1611.476295
 40
0.209435
 50
218.480198
 51
235.491477
  0
ARC
  8
APS_GEOMETRY
 10
52.682987
 20
-1611.252901
 40
0.568448
 50
208.17859
 51
218.480198
  0
ARC
  8
APS_GEOMETRY
 10
49.801762
 20
-1612.816859
 40
2.709888
 50
28.55962
 51
31.663799
  0
ARC
  8
APS_GEOMETRY
 10
51.562372
 20
-1611.73102
 40
0.641364
 50
31.663799
 51
38.047043
  0
ARC
  8
APS_GEOMETRY
 10
51.690384
 20
-1611.630836
 40
0.47881
 50
38.047043
 51
46.5602
  0
ARC
  8
APS_GEOMETRY
 10
51.623845
 20
-1611.701102
 40
0.575581
 50
46.5602
 51
54.323592
  0
ARC
  8
APS_GEOMETRY
 10
51.585438
 20
-1611.767172
 40
0.651693
 50
54.968356
 51
71.480419
  0
ARC
  8
APS_GEOMETRY
 10
51.627588
 20
-1611.641343
 40
0.518991
 50
71.480419
 51
90.0
  0
ARC
  8
APS_GEOMETRY
 10
51.627588
 20
-1611.48488
 40
0.362528
 50
90.0
 51
114.629635
  0
ARC
  8
APS_GEOMETRY
 10
51.609383
 20
-1611.445171
 40
0.318845
 50
114.629635
 51
140.920621
  0
ARC
  8
APS_GEOMETRY
 10
51.663172
 20
-1611.488852
 40
0.388137
 50
140.920621
 51
163.129646
  0
ARC
  8
APS_GEOMETRY
 10
51.932043
 20
-1611.57039
 40
0.669099
 50
163.129646
 51
180.0
  0
ARC
  8
APS_GEOMETRY
 10
52.280717
 20
-1611.57039
 40
1.017773
 50
180.0
 51
195.439646
  0
ARC
  8
APS_GEOMETRY
 10
52.227813
 20
-1611.585001
 40
0.962889
 50
195.439646
 51
211.31598
  0
ARC
  8
APS_GEOMETRY
 10
51.973351
 20
-1611.734468
 40
0.667827
 50
211.707816
 51
240.456928
  0
ARC
  8
APS_GEOMETRY
 10
51.956258
 20
-1611.764627
 40
0.633161
 50
240.456928
 51
270.0
  0
ARC
  8
APS_GEOMETRY
 10
51.956258
 20
-1611.610254
 40
0.787534
 50
270.0
 51
279.549134
  0
ARC
  8
APS_GEOMETRY
 10
51.946467
 20
-1611.552054
 40
0.846552
 50
279.549134
 51
288.75865
  0
ARC
  8
APS_GEOMETRY
 10
51.987737
 20
-1611.67357
 40
0.718218
 50
288.75865
 51
299.544635
  0
ARC
  8
APS_GEOMETRY
 10
52.153219
 20
-1611.965529
 40
0.382623
 50
299.544635
 51
314.341457
  0
ARC
  8
APS_GEOMETRY
 10
52.664975
 20
-1612.497077
 40
0.355259
 50
120.141386
 51
133.451842
  0
ARC
  8
APS_GEOMETRY
 10
52.522028
 20
-1612.250891
 40
0.070581
 50
90.0
 51
120.141386
  0
ARC
  8
APS_GEOMETRY
 10
52.522028
 20
-1612.29179
 40
0.11148
 50
61.951894
 51
90.0
  0
ARC
  8
APS_GEOMETRY
 10
52.505425
 20
-1612.322951
 40
0.146789
 50
37.568592
 51
61.951894
  0
ARC
  8
APS_GEOMETRY
 10
52.474461
 20
-1612.34677
 40
0.185854
 50
17.665186
 51
37.568592
  0
ARC
  8
APS_GEOMETRY
 10
52.427223
 20
-1612.361814
 40
0.23543
 50
0.0
 51
17.665186
  0
ARC
  8
APS_GEOMETRY
 10
52.308624
 20
-1612.361814
 40
0.354029
 50
344.931512
 51
0.0
  0
ARC
  8
APS_GEOMETRY
 10
51.993723
 20
-1612.277033
 40
0.680144
 50
334.075098
 51
344.931512
  0
ARC
  8
APS_GEOMETRY
 10
51.98382
 20
-1612.272219
 40
0.691154
 50
323.374259
 51
334.075098
  0
ARC
  8
APS_GEOMETRY
 10
52.187008
 20
-1612.423262
 40
0.437976
 50
309.920392
 51
323.374259
  0
ARC
  8
APS_GEOMETRY
 10
52.39006
 20
-1612.6628
 40
0.123978
 50
289.025606
 51
308.990994
  0
ARC
  8
APS_GEOMETRY
 10
52.173413
 20
-1612.034521
 40
0.788561
 50
281.14289
 51
289.025606
  0
ARC
  8
APS_GEOMETRY
 10
52.393114
 20
-1613.173595
 40
0.371526
 50
100.437475
 51
110.119633
  0
ARC
  8
APS_GEOMETRY
 10
52.684171
 20
-1613.968102
 40
1.217667
 50
110.119633
 51
115.463345
  0
ARC
  8
APS_GEOMETRY
 10
51.645115
 20
-1611.794072
 40
1.191908
 50
282.940436
 51
295.628419
  0
ARC
  8
APS_GEOMETRY
 10
51.655386
 20
-1611.838771
 40
1.146044
 50
270.0
 51
282.940436
  0
ARC
  8
APS_GEOMETRY
 10
51.655386
 20
-1611.771075
 40
1.21374
 50
257.307334
 51
270.0
  0
ARC
  8
APS_GEOMETRY
 10
51.706622
 20
-1611.543585
 40
1.446929
 50
245.686204
 51
257.307334
  0
ARC
  8
APS_GEOMETRY
 10
51.578111
 20
-1611.82566
 40
1.136961
 50
228.800778
 51
245.735234
  0
ARC
  8
APS_GEOMETRY
 10
51.580264
 20
-1611.8232
 40
1.14023
 50
211.890792
 51
228.800778
  0
ARC
  8
APS_GEOMETRY
 10
51.647645
 20
-1611.7747
 40
1.223075
 50
196.727964
 51
212.152295
  0
ARC
  8
APS_GEOMETRY
 10
51.473255
 20
-1611.827112
 40
1.04098
 50
180.0
 51
196.727964
  0
ARC
  8
APS_GEOMETRY
 10
51.498622
 20
-1611.827112
 40
1.066347
 50
161.183932
 51
180.0
  0
ARC
  8
APS_GEOMETRY
 10
51.567038
 20
-1611.850424
 40
1.138626
 50
142.980114
 51
161.183932
  0
ARC
  8
APS_GEOMETRY
 10
51.620242
 20
-1611.89114
 40
1.20562
 50
127.824257
 51
142.957525
  0
ARC
  8
APS_GEOMETRY
 10
51.707941
 20
-1612.004102
 40
1.348629
 50
113.520273
 51
127.824257
  0
ARC
  8
APS_GEOMETRY
 10
51.679396
 20
-1611.938137
 40
1.276753
 50
101.926773
 51
113.527064
  0
ARC
  8
APS_GEOMETRY
 10
51.665197
 20
-1611.870913
 40
1.208046
 50
90.0
 51
101.926773
  0
ARC
  8
APS_GEOMETRY
 10
54.189252
 20
-1611.951944
 40
1.289076
 50
71.909511
 51
90.0
  0
ARC
  8
APS_GEOMETRY
 10
54.239177
 20
-1611.799112
 40
1.128297
 50
52.561428
 51
71.909511
  0
ARC
  8
APS_GEOMETRY
 10
54.2261
 20
-1611.802915
 40
1.139294
 50
38.846006
 51
52.155542
  0
ARC
  8
APS_GEOMETRY
 10
54.047494
 20
-1611.946755
 40
1.36862
 50
26.707224
 51
38.846006
  0
ARC
  8
APS_GEOMETRY
 10
54.082851
 20
-1611.91786
 40
1.324086
 50
13.867603
 51
26.277857
  0
ARC
  8
APS_GEOMETRY
 10
54.337837
 20
-1611.85491
 40
1.061444
 50
0.0
 51
13.867603
  0
ARC
  8
APS_GEOMETRY
 10
54.354347
 20
-1611.85491
 40
1.044934
 50
339.712247
 51
0.0
  0
ARC
  8
APS_GEOMETRY
 10
54.295522
 20
-1611.833164
 40
1.10765
 50
320.013114
 51
339.712247
  0
ARC
  8
APS_GEOMETRY
 10
54.285767
 20
-1611.827787
 40
1.118582
 50
303.343757
 51
320.123166
  0
ARC
  8
APS_GEOMETRY
 10
54.17098
 20
-1611.653332
 40
1.327413
 50
287.949403
 51
303.343757
  0
ARC
  8
APS_GEOMETRY
 10
54.133268
 20
-1611.522576
 40
1.463433
 50
279.039483
 51
287.776406
  0
ARC
  8
APS_GEOMETRY
 10
54.148372
 20
-1611.617521
 40
1.367295
 50
270.0
 51
279.039483
  0
ARC
  8
APS_GEOMETRY
 10
54.148372
 20
-1611.684273
 40
1.300543
 50
257.72804
 51
270.0
  0
ARC
  8
APS_GEOMETRY
 10
54.150419
 20
-1611.674865
 40
1.31017
 50
245.501426
 51
257.72804
  0
ARC
  8
APS_GEOMETRY
 10
54.076784
 20
-1611.836004
 40
1.133004
 50
228.665185
 51
245.510859
  0
ARC
  8
APS_GEOMETRY
 10
54.052294
 20
-1611.863846
 40
1.095924
 50
211.534792
 51
228.665185
  0
ARC
  8
APS_GEOMETRY
 10
54.084393
 20
-1611.840274
 40
1.135616
 50
195.642246
 51
211.70143
  0
ARC
  8
APS_GEOMETRY
 10
54.143079
 20
-1611.823842
 40
1.19656
 50
180.0
 51
195.642246
  0
ARC
  8
APS_GEOMETRY
 10
54.155657
 20
-1611.823842
 40
1.209138
 50
162.181111
 51
180.0
  0
ARC
  8
APS_GEOMETRY
 10
54.045333
 20
-1611.78838
 40
1.093254
 50
143.433519
 51
162.181111
  0
ARC
  8
APS_GEOMETRY
 10
54.030488
 20
-1611.776491
 40
1.074249
 50
126.384352
 51
143.471145
  0
ARC
  8
APS_GEOMETRY
 10
54.132195
 20
-1611.914521
 40
1.245703
 50
110.525108
 51
126.384352
  0
ARC
  8
APS_GEOMETRY
 10
54.127161
 20
-1611.877041
 40
1.208866
 50
99.7697
 51
110.924502
  0
ARC
  8
APS_GEOMETRY
 10
54.189252
 20
-1612.237647
 40
1.57478
 50
90.0
 51
99.7697
  0
ARC
  8
APS_GEOMETRY
 10
54.03391
 20
-1611.372521
 40
0.240358
 50
90.0
 51
119.604451
  0
ARC
  8
APS_GEOMETRY
 10
54.054962
 20
-1611.409572
 40
0.282973
 50
119.604451
 51
146.842076
  0
ARC
  8
APS_GEOMETRY
 10
54.097271
 20
-1611.444261
 40
0.337416
 50
145.840305
 51
164.054604
  0
ARC
  8
APS_GEOMETRY
 10
54.195335
 20
-1611.472279
 40
0.439405
 50
164.054604
 51
180.0
  0
ARC
  8
APS_GEOMETRY
 10
54.808558
 20
-1611.472279
 40
1.052628
 50
180.0
 51
189.976729
  0
ARC
  8
APS_GEOMETRY
 10
55.741138
 20
-1611.308231
 40
1.999526
 50
189.976729
 51
197.211115
  0
ARC
  8
APS_GEOMETRY
 10
55.945114
 20
-1611.245046
 40
2.213064
 50
197.211115
 51
203.760424
  0
ARC
  8
APS_GEOMETRY
 10
55.436979
 20
-1611.468741
 40
1.65787
 50
203.760424
 51
211.328693
  0
ARC
  8
APS_GEOMETRY
 10
54.393572
 20
-1612.094929
 40
0.441075
 50
212.319617
 51
224.440823
  0
ARC
  8
APS_GEOMETRY
 10
54.350801
 20
-1612.136873
 40
0.381169
 50
224.440823
 51
237.483626
  0
ARC
  8
APS_GEOMETRY
 10
54.323161
 20
-1612.180231
 40
0.329751
 50
237.483626
 51
252.415923
  0
ARC
  8
APS_GEOMETRY
 10
54.295538
 20
-1612.267394
 40
0.238315
 50
252.415923
 51
270.0
  0
ARC
  8
APS_GEOMETRY
 10
54.295538
 20
-1612.239136
 40
0.266573
 50
270.0
 51
294.952847
  0
ARC
  8
APS_GEOMETRY
 10
54.303007
 20
-1612.255187
 40
0.248869
 50
294.952847
 51
320.792796
  0
ARC
  8
APS_GEOMETRY
 10
54.262974
 20
-1612.222529
 40
0.300533
 50
320.792796
 51
342.776564
  0
ARC
  8
APS_GEOMETRY
 10
54.084584
 20
-1612.167228
 40
0.487299
 50
342.776564
 51
0.0
  0
ARC
  8
APS_GEOMETRY
 10
53.246528
 20
-1612.167228
 40
1.325355
 50
0.0
 51
8.498559
  0
ARC
  8
APS_GEOMETRY
 10
52.663161
 20
-1612.254398
 40
1.915198
 50
8.498559
 51
15.566318
  0
ARC
  8
APS_GEOMETRY
 10
52.733302
 20
-1612.234859
 40
1.842387
 50
15.566318
 51
22.908635
  0
ARC
  8
APS_GEOMETRY
 10
53.336487
 20
-1611.979956
 40
1.187553
 50
22.908635
 51
32.057376
  0
ARC
  8
APS_GEOMETRY
 10
53.810274
 20
-1611.681477
 40
0.627589
 50
31.920876
 51
42.510447
  0
ARC
  8
APS_GEOMETRY
 10
53.940376
 20
-1611.562217
 40
0.451096
 50
42.510447
 51
55.00798
  0
ARC
  8
APS_GEOMETRY
 10
53.98432
 20
-1611.49944
 40
0.374468
 50
55.00798
 51
69.880367
  0
ARC
  8
APS_GEOMETRY
 10
54.023726
 20
-1611.391873
 40
0.25991
 50
69.880367
 51
87.754257
  0
ARC
  8
APS_GEOMETRY
 10
56.714942
 20
-1612.123064
 40
0.120989
 50
90.0
 51
115.836754
  0
ARC
  8
APS_GEOMETRY
 10
56.685153
 20
-1612.061544
 40
0.052636
 50
115.836754
 51
155.462272
  0
ARC
  8
APS_GEOMETRY
 10
56.719917
 20
-1612.077414
 40
0.090851
 50
155.462272
 51
168.366366
  0
ARC
  8
APS_GEOMETRY
 10
57.037217
 20
-1612.142741
 40
0.414805
 50
168.366366
 51
174.395461
  0
ARC
  8
APS_GEOMETRY
 10
57.356999
 20
-1612.174121
 40
0.736123
 50
174.395461
 51
177.813405
  0
ARC
  8
APS_GEOMETRY
 10
58.418425
 20
-1612.214648
 40
1.798323
 50
177.813405
 51
180.0
  0
ARC
  8
APS_GEOMETRY
 10
59.186838
 20
-1612.214648
 40
2.566736
 50
180.0
 51
184.619923
  0
ARC
  8
APS_GEOMETRY
 10
57.465847
 20
-1612.353718
 40
0.840135
 50
184.619923
 51
192.699584
  0
ARC
  8
APS_GEOMETRY
 10
56.80234
 20
-1612.499394
 40
0.160878
 50
194.036243
 51
205.820992
  0
ARC
  8
APS_GEOMETRY
 10
56.732072
 20
-1612.533395
 40
0.082817
 50
205.820992
 51
222.273689
  0
ARC
  8
APS_GEOMETRY
 10
56.753598
 20
-1612.513825
 40
0.111909
 50
222.273689
 51
234.605204
  0
ARC
  8
APS_GEOMETRY
 10
56.996618
 20
-1612.171798
 40
0.531481
 50
234.605204
 51
240.255119
  0
ARC
  8
APS_GEOMETRY
 10
56.627182
 20
-1612.825521
 40
0.21943
 50
34.592289
 51
61.189206
  0
ARC
  8
APS_GEOMETRY
 10
56.699693
 20
-1612.775513
 40
0.131347
 50
0.0
 51
34.592289
  0
ARC
  8
APS_GEOMETRY
 10
56.704076
 20
-1612.775513
 40
0.126963
 50
318.230949
 51
0.0
  0
ARC
  8
APS_GEOMETRY
 10
56.619169
 20
-1612.69968
 40
0.240805
 50
288.227257
 51
318.230949
  0
ARC
  8
APS_GEOMETRY
 10
56.531114
 20
-1612.432287
 40
0.522323
 50
280.377402
 51
288.227257
  0
ARC
  8
APS_GEOMETRY
 10
56.377621
 20
-1611.594109
 40
1.37444
 50
275.540609
 51
280.377402
  0
ARC
  8
APS_GEOMETRY
 10
56.311476
 20
-1610.912226
 40
2.059523
 50
272.304132
 51
275.540609
  0
ARC
  8
APS_GEOMETRY
 10
56.230931
 20
-1608.910433
 40
4.062936
 50
270.0
 51
272.304132
  0
ARC
  8
APS_GEOMETRY
 10
56.230931
 20
-1610.583369
 40
2.39
 50
262.811463
 51
270.0
  0
ARC
  8
APS_GEOMETRY
 10
56.016476
 20
-1612.283685
 40
0.676214
 50
249.274441
 51
262.811463
  0
ARC
  8
APS_GEOMETRY
 10
55.881579
 20
-1612.640198
 40
0.295032
 50
221.378515
 51
249.274441
  0
ARC
  8
APS_GEOMETRY
 10
55.763246
 20
-1612.744445
 40
0.13733
 50
180.0
 51
221.378515
  0
ARC
  8
APS_GEOMETRY
 10
55.76234
 20
-1612.744445
 40
0.136424
 50
164.054604
 51
180.0
  0
ARC
  8
APS_GEOMETRY
 10
55.705469
 20
-1612.728196
 40
0.077278
 50
142.815294
 51
164.054604
  0
ARC
  8
APS_GEOMETRY
 10
55.741261
 20
-1612.755348
 40
0.122203
 50
129.007473
 51
142.815294
  0
ARC
  8
APS_GEOMETRY
 10
56.180859
 20
-1613.298062
 40
0.820619
 50
123.690068
 51
129.007473
  0
ARC
  8
APS_GEOMETRY
 10
55.557035
 20
-1612.359418
 40
0.30642
 50
303.388514
 51
319.02199
  0
ARC
  8
APS_GEOMETRY
 10
55.639961
 20
-1612.431449
 40
0.196579
 50
319.02199
 51
338.574706
  0
ARC
  8
APS_GEOMETRY
 10
55.528986
 20
-1612.387902
 40
0.315792
 50
338.574706
 51
351.048929
  0
ARC
  8
APS_GEOMETRY
 10
54.188682
 20
-1612.176792
 40
1.67262
 50
351.048929
 51
356.460441
  0
ARC
  8
APS_GEOMETRY
 10
54.630483
 20
-1612.193603
 40
1.230668
 50
355.971736
 51
358.680054
  0
ARC
  8
APS_GEOMETRY
 10
40.120936
 20
-1611.859281
 40
15.744066
 50
358.680054
 51
359.437191
  0
LINE
  8
APS_GEOMETRY
 10
55.864243
 11
55.865776
 20
-1612.013931
 21
-1611.768348
  0
LINE
  8
APS_GEOMETRY
 10
55.865776
 11
55.866287
 20
-1611.768348
 21
-1611.447751
  0
ARC
  8
APS_GEOMETRY
 10
52.075825
 20
-1611.447751
 40
3.790462
 50
360.0
 51
1.717132
  0
ARC
  8
APS_GEOMETRY
 10
54.10425
 20
-1611.386942
 40
1.761125
 50
1.717132
 51
4.236395
  0
ARC
  8
APS_GEOMETRY
 10
54.765712
 20
-1611.337945
 40
1.097851
 50
4.236395
 51
8.268833
  0
ARC
  8
APS_GEOMETRY
 10
55.526896
 20
-1611.227323
 40
0.328671
 50
8.268833
 51
15.642246
  0
ARC
  8
APS_GEOMETRY
 10
55.657895
 20
-1611.190643
 40
0.192634
 50
15.642246
 51
39.417394
  0
ARC
  8
APS_GEOMETRY
 10
55.660841
 20
-1611.188222
 40
0.188821
 50
39.417394
 51
63.434949
  0
ARC
  8
APS_GEOMETRY
 10
56.000908
 20
-1610.483743
 40
0.593467
 50
236.873849
 51
244.48613
  0
ARC
  8
APS_GEOMETRY
 10
55.747934
 20
-1610.871417
 40
0.130556
 50
220.601295
 51
236.873849
  0
ARC
  8
APS_GEOMETRY
 10
55.718918
 20
-1610.896287
 40
0.09234
 50
198.245855
 51
220.601295
  0
ARC
  8
APS_GEOMETRY
 10
55.762314
 20
-1610.881981
 40
0.138033
 50
180.0
 51
198.245855
  0
ARC
  8
APS_GEOMETRY
 10
55.76166
 20
-1610.881981
 40
0.137379
 50
156.16126
 51
180.0
  0
ARC
  8
APS_GEOMETRY
 10
55.780821
 20
-1610.890447
 40
0.158327
 50
133.97697
 51
156.16126
  0
ARC
  8
APS_GEOMETRY
 10
55.818993
 20
-1610.930008
 40
0.213302
 50
116.995838
 51
133.97697
  0
ARC
  8
APS_GEOMETRY
 10
55.894835
 20
-1611.078883
 40
0.380382
 50
104.300277
 51
116.995838
  0
ARC
  8
APS_GEOMETRY
 10
55.914434
 20
-1611.154183
 40
0.458189
 50
95.325741
 51
104.349332
  0
ARC
  8
APS_GEOMETRY
 10
55.99383
 20
-1612.005886
 40
1.313585
 50
90.0
 51
95.325741
  0
ARC
  8
APS_GEOMETRY
 10
55.99383
 20
-1611.342949
 40
0.650648
 50
87.552951
 51
90.0
  0
ARC
  8
APS_GEOMETRY
 10
55.855395
 20
-1614.582327
 40
3.892983
 50
86.552613
 51
87.552951
  0
ARC
  8
APS_GEOMETRY
 10
55.658568
 20
-1617.849663
 40
7.166242
 50
86.009087
 51
86.552613
  0
ARC
  8
APS_GEOMETRY
 10
54.893173
 20
-1628.820326
 40
18.163573
 50
85.667686
 51
86.009087
  0
ARC
  8
APS_GEOMETRY
 10
56.325578
 20
-1609.954792
 40
0.756269
 50
265.426079
 51
268.531199
  0
ARC
  8
APS_GEOMETRY
 10
56.392813
 20
-1607.332636
 40
3.379287
 50
268.531199
 51
270.0
  0
ARC
  8
APS_GEOMETRY
 10
56.392813
 20
-1608.136391
 40
2.575532
 50
270.0
 51
271.636577
  0
ARC
  8
APS_GEOMETRY
 10
56.335264
 20
-1606.122164
 40
4.590581
 50
271.636577
 51
272.862405
  0
ARC
  8
APS_GEOMETRY
 10
56.26919
 20
-1604.800685
 40
5.91371
 50
272.862405
 51
273.814075
  0
ARC
  8
APS_GEOMETRY
 10
56.04551
 20
-1601.445492
 40
9.276351
 50
273.814075
 51
274.573921
  0
ARC
  8
APS_GEOMETRY
 10
57.448614
 20
-1619.695032
 40
9.027138
 50
93.719877
 51
94.214179
  0
ARC
  8
APS_GEOMETRY
 10
57.149159
 20
-1615.089131
 40
4.411512
 50
93.012788
 51
93.719877
  0
ARC
  8
APS_GEOMETRY
 10
57.067065
 20
-1613.529337
 40
2.84956
 50
91.91828
 51
93.012788
  0
ARC
  8
APS_GEOMETRY
 10
57.002733
 20
-1611.608577
 40
0.927723
 50
90.0
 51
91.91828
  0
ARC
  8
APS_GEOMETRY
 10
57.002733
 20
-1611.886283
 40
1.205429
 50
73.820397
 51
90.0
  0
ARC
  8
APS_GEOMETRY
 10
57.12154
 20
-1611.476804
 40
0.779062
 50
53.657551
 51
73.820397
  0
ARC
  8
APS_GEOMETRY
 10
57.290527
 20
-1611.24583
 40
0.492872
 50
26.029592
 51
53.569142
  0
ARC
  8
APS_GEOMETRY
 10
57.238675
 20
-1611.271153
 40
0.550577
 50
0.0
 51
26.029592
  0
ARC
  8
APS_GEOMETRY
 10
57.217101
 20
-1611.271153
 40
0.572151
 50
345.281696
 51
0.0
  0
ARC
  8
APS_GEOMETRY
 10
57.272139
 20
-1611.28561
 40
0.515245
 50
329.767161
 51
345.281696
  0
ARC
  8
APS_GEOMETRY
 10
57.303321
 20
-1611.303783
 40
0.479155
 50
313.168137
 51
329.767161
  0
ARC
  8
APS_GEOMETRY
 10
57.314868
 20
-1611.316092
 40
0.462277
 50
296.266638
 51
313.168137
  0
ARC
  8
APS_GEOMETRY
 10
57.578025
 20
-1611.847791
 40
0.130982
 50
116.565051
 51
139.899092
  0
ARC
  8
APS_GEOMETRY
 10
57.512692
 20
-1611.792773
 40
0.045569
 50
139.899092
 51
180.0
  0
ARC
  8
APS_GEOMETRY
 10
57.517758
 20
-1611.792773
 40
0.050635
 50
180.0
 51
226.193489
  0
ARC
  8
APS_GEOMETRY
 10
57.611304
 20
-1611.695246
 40
0.185774
 50
226.193489
 51
249.829347
  0
ARC
  8
APS_GEOMETRY
 10
57.343247
 20
-1612.433308
 40
0.59946
 50
53.249344
 51
70.104569
  0
ARC
  8
APS_GEOMETRY
 10
57.465011
 20
-1612.27025
 40
0.395955
 50
32.471192
 51
53.249344
  0
ARC
  8
APS_GEOMETRY
 10
57.40826
 20
-1612.306364
 40
0.463222
 50
23.304891
 51
32.471192
  0
ARC
  8
APS_GEOMETRY
 10
57.057755
 20
-1612.457351
 40
0.844864
 50
16.520892
 51
23.304891
  0
ARC
  8
APS_GEOMETRY
 10
56.784479
 20
-1612.538407
 40
1.129908
 50
11.429216
 51
16.520892
  0
ARC
  8
APS_GEOMETRY
 10
56.009986
 20
-1612.694983
 40
1.92007
 50
7.52382
 51
11.429216
  0
ARC
  8
APS_GEOMETRY
 10
58.576396
 20
-1612.353181
 40
0.669005
 50
187.765166
 51
196.914179
  0
ARC
  8
APS_GEOMETRY
 10
58.029234
 20
-1612.51957
 40
0.097104
 50
196.914179
 51
221.081751
  0
ARC
  8
APS_GEOMETRY
 10
58.03132
 20
-1612.517751
 40
0.099872
 50
221.081751
 51
244.607077
  0
ARC
  8
APS_GEOMETRY
 10
58.26499
 20
-1612.025487
 40
0.64478
 50
244.607077
 51
253.810794
  0
ARC
  8
APS_GEOMETRY
 10
58.059549
 20
-1612.725985
 40
0.085243
 50
51.449535
 51
72.474432
  0
ARC
  8
APS_GEOMETRY
 10
58.038457
 20
-1612.752454
 40
0.119088
 50
33.690068
 51
51.449535
  0
ARC
  8
APS_GEOMETRY
 10
58.033524
 20
-1612.755743
 40
0.125016
 50
16.638806
 51
33.690068
  0
ARC
  8
APS_GEOMETRY
 10
58.027556
 20
-1612.757526
 40
0.131245
 50
360.0
 51
16.638806
  0
ARC
  8
APS_GEOMETRY
 10
58.025725
 20
-1612.757526
 40
0.133076
 50
338.993211
 51
360.0
  0
ARC
  8
APS_GEOMETRY
 10
57.944468
 20
-1612.726324
 40
0.220118
 50
322.696052
 51
338.993211
  0
ARC
  8
APS_GEOMETRY
 10
57.914193
 20
-1612.703257
 40
0.258179
 50
308.603415
 51
322.696052
  0
ARC
  8
APS_GEOMETRY
 10
57.893358
 20
-1612.67716
 40
0.291573
 50
295.346176
 51
308.603415
  0
ARC
  8
APS_GEOMETRY
 10
57.783798
 20
-1612.435851
 40
0.556571
 50
279.582945
 51
294.904769
  0
ARC
  8
APS_GEOMETRY
 10
57.640451
 20
-1611.586796
 40
1.417642
 50
270.0
 51
279.582945
  0
ARC
  8
APS_GEOMETRY
 10
57.640451
 20
-1611.970853
 40
1.033584
 50
261.247402
 51
270.0
  0
ARC
  8
APS_GEOMETRY
 10
57.574244
 20
-1612.400874
 40
0.598496
 50
249.737083
 51
261.247402
  0
ARC
  8
APS_GEOMETRY
 10
57.530723
 20
-1612.518761
 40
0.472832
 50
235.344857
 51
249.737083
  0
ARC
  8
APS_GEOMETRY
 10
57.475766
 20
-1612.598263
 40
0.376184
 50
219.198413
 51
235.344857
  0
ARC
  8
APS_GEOMETRY
 10
57.591415
 20
-1612.49965
 40
0.528143
 50
209.075569
 51
219.559668
  0
ARC
  8
APS_GEOMETRY
 10
57.858452
 20
-1612.351168
 40
0.833684
 50
200.735234
 51
209.075569
  0
ARC
  8
APS_GEOMETRY
 10
58.226929
 20
-1612.211673
 40
1.227682
 50
197.881035
 51
200.735234
  0
ARC
  8
APS_GEOMETRY
 10
59.741004
 20
-1611.723194
 40
2.818605
 50
195.997451
 51
197.881035
  0
ARC
  8
APS_GEOMETRY
 10
60.860101
 20
-1611.402352
 40
3.982786
 50
194.663974
 51
195.997451
  0
ARC
  8
APS_GEOMETRY
 10
63.959863
 20
-1610.591227
 40
7.186916
 50
193.671307
 51
194.663974
  0
ARC
  8
APS_GEOMETRY
 10
56.099339
 20
-1612.502249
 40
0.902575
 50
13.609732
 51
23.584501
  0
ARC
  8
APS_GEOMETRY
 10
56.69031
 20
-1612.24425
 40
0.257741
 50
23.584501
 51
42.31023
  0
ARC
  8
APS_GEOMETRY
 10
56.743911
 20
-1612.19546
 40
0.18526
 50
42.31023
 51
67.520566
  0
ARC
  8
APS_GEOMETRY
 10
56.701493
 20
-1612.29797
 40
0.2962
 50
67.520566
 51
87.397438
  0
LINE
  8
APS_GEOMETRY
 10
56.621737
 11
56.60375
 20
-1611.168137
 21
-1611.549132
  0
LINE
  8
APS_GEOMETRY
 10
56.60375
 11
56.60375
 20
-1611.549132
 21
-1611.555264
  0
LINE
  8
APS_GEOMETRY
 10
56.60375
 11
56.60375
 20
-1611.555264
 21
-1611.563849
  0
ARC
  8
APS_GEOMETRY
 10
56.868465
 20
-1611.563849
 40
0.264715
 50
180.0
 51
192.339087
  0
ARC
  8
APS_GEOMETRY
 10
56.658006
 20
-1611.609887
 40
0.049279
 50
192.339087
 51
221.185925
  0
ARC
  8
APS_GEOMETRY
 10
56.652987
 20
-1611.614278
 40
0.04261
 50
221.185925
 51
253.872424
  0
ARC
  8
APS_GEOMETRY
 10
56.688779
 20
-1611.490496
 40
0.171463
 50
253.872424
 51
270.0
  0
ARC
  8
APS_GEOMETRY
 10
56.688779
 20
-1611.263429
 40
0.39853
 50
270.0
 51
289.56871
  0
ARC
  8
APS_GEOMETRY
 10
56.761232
 20
-1611.467251
 40
0.182214
 50
289.56871
 51
318.680622
  0
ARC
  8
APS_GEOMETRY
 10
56.741634
 20
-1611.450022
 40
0.208308
 50
318.680622
 51
344.628325
  0
ARC
  8
APS_GEOMETRY
 10
56.376497
 20
-1611.349641
 40
0.586992
 50
344.628325
 51
0.0
  0
ARC
  8
APS_GEOMETRY
 10
56.550087
 20
-1611.349641
 40
0.413402
 50
0.0
 51
35.36883
  0
ARC
  8
APS_GEOMETRY
 10
56.73947
 20
-1611.215209
 40
0.181156
 50
35.36883
 51
90.0
  0
ARC
  8
APS_GEOMETRY
 10
56.73947
 20
-1611.217199
 40
0.183147
 50
90.0
 51
108.434949
  0
ARC
  8
APS_GEOMETRY
 10
56.703837
 20
-1611.1103
 40
0.070465
 50
108.434949
 51
138.366461
  0
ARC
  8
APS_GEOMETRY
 10
56.713401
 20
-1611.118801
 40
0.083261
 50
138.366461
 51
164.291362
  0
ARC
  8
APS_GEOMETRY
 10
56.937652
 20
-1611.181872
 40
0.316213
 50
164.291362
 51
177.510447
  0
LINE
  8
APS_GEOMETRY
 10
59.532675
 11
60.346992
 20
-1610.787141
 21
-1611.500077
  0
ARC
  8
APS_GEOMETRY
 10
61.108586
 20
-1610.626117
 40
1.159237
 50
228.930176
 51
232.67448
  0
ARC
  8
APS_GEOMETRY
 10
60.684915
 20
-1611.18175
 40
0.460507
 50
232.67448
 51
238.616809
  0
ARC
  8
APS_GEOMETRY
 10
60.578317
 20
-1611.356502
 40
0.255809
 50
238.616809
 51
249.130652
  0
ARC
  8
APS_GEOMETRY
 10
60.510509
 20
-1611.534358
 40
0.065465
 50
249.130652
 51
270.0
  0
ARC
  8
APS_GEOMETRY
 10
60.510509
 20
-1611.542422
 40
0.0574
 50
270.0
 51
334.898391
  0
ARC
  8
APS_GEOMETRY
 10
60.245595
 20
-1611.418318
 40
0.349943
 50
334.898391
 51
0.0
  0
ARC
  8
APS_GEOMETRY
 10
57.684039
 20
-1611.418318
 40
2.9115
 50
360.0
 51
2.026128
  0
ARC
  8
APS_GEOMETRY
 10
59.228387
 20
-1611.363683
 40
1.366185
 50
2.026128
 51
4.984115
  0
ARC
  8
APS_GEOMETRY
 10
59.733346
 20
-1611.319646
 40
0.85931
 50
4.984115
 51
9.673355
  0
ARC
  8
APS_GEOMETRY
 10
60.315317
 20
-1611.220447
 40
0.268944
 50
9.673355
 51
18.060472
  0
ARC
  8
APS_GEOMETRY
 10
60.403908
 20
-1611.191558
 40
0.175762
 50
18.060472
 51
42.397438
  0
ARC
  8
APS_GEOMETRY
 10
60.37531
 20
-1611.217669
 40
0.214487
 50
42.397438
 51
64.397812
  0
ARC
  8
APS_GEOMETRY
 10
60.636497
 20
-1610.678368
 40
0.384735
 50
233.63342
 51
244.025606
  0
ARC
  8
APS_GEOMETRY
 10
60.494239
 20
-1610.871558
 40
0.144819
 50
216.656108
 51
233.63342
  0
ARC
  8
APS_GEOMETRY
 10
60.472426
 20
-1610.887791
 40
0.117629
 50
196.081652
 51
216.656108
  0
ARC
  8
APS_GEOMETRY
 10
60.543627
 20
-1610.867265
 40
0.19173
 50
180.0
 51
196.081652
  0
ARC
  8
APS_GEOMETRY
 10
60.491296
 20
-1610.867265
 40
0.139398
 50
133.202068
 51
180.0
  0
ARC
  8
APS_GEOMETRY
 10
60.601227
 20
-1610.984321
 40
0.299982
 50
101.788183
 51
133.202068
  0
ARC
  8
APS_GEOMETRY
 10
60.626854
 20
-1611.099151
 40
0.417629
 50
96.632515
 51
102.011478
  0
ARC
  8
APS_GEOMETRY
 10
60.719813
 20
-1611.898602
 40
1.222466
 50
93.489325
 51
96.632515
  0
ARC
  8
APS_GEOMETRY
 10
60.759626
 20
-1612.551521
 40
1.876598
 50
91.43929
 51
93.489325
  0
ARC
  8
APS_GEOMETRY
 10
60.808111
 20
-1614.481236
 40
3.806922
 50
90.0
 51
91.43929
  0
ARC
  8
APS_GEOMETRY
 10
60.808111
 20
-1614.222524
 40
3.54821
 50
87.994353
 51
90.0
  0
ARC
  8
APS_GEOMETRY
 10
60.872618
 20
-1612.380489
 40
1.705045
 50
85.100908
 51
87.994353
  0
ARC
  8
APS_GEOMETRY
 10
60.924972
 20
-1611.769695
 40
1.092012
 50
80.594688
 51
85.100908
  0
ARC
  8
APS_GEOMETRY
 10
61.044351
 20
-1611.048996
 40
0.361493
 50
72.758541
 51
80.594688
  0
ARC
  8
APS_GEOMETRY
 10
61.080518
 20
-1610.936967
 40
0.243782
 50
40.955514
 51
73.072487
  0
ARC
  8
APS_GEOMETRY
 10
61.149523
 20
-1610.877076
 40
0.152411
 50
0.0
 51
40.955514
  0
ARC
  8
APS_GEOMETRY
 10
61.158707
 20
-1610.877076
 40
0.143226
 50
322.572949
 51
0.0
  0
ARC
  8
APS_GEOMETRY
 10
61.083442
 20
-1610.819475
 40
0.238003
 50
293.749494
 51
322.572949
  0
ARC
  8
APS_GEOMETRY
 10
61.385652
 20
-1611.51353
 40
0.518995
 50
113.428693
 51
119.291362
  0
ARC
  8
APS_GEOMETRY
 10
61.183692
 20
-1611.153514
 40
0.106201
 50
119.291362
 51
132.273689
  0
ARC
  8
APS_GEOMETRY
 10
61.172053
 20
-1611.140711
 40
0.088898
 50
132.273689
 51
147.652557
  0
ARC
  8
APS_GEOMETRY
 10
61.256151
 20
-1611.193973
 40
0.188444
 50
147.652557
 51
158.198591
  0
ARC
  8
APS_GEOMETRY
 10
61.384131
 20
-1611.247919
 40
0.327316
 50
157.750976
 51
167.884758
  0
ARC
  8
APS_GEOMETRY
 10
62.065129
 20
-1611.394102
 40
1.023826
 50
167.884758
 51
173.609505
  0
ARC
  8
APS_GEOMETRY
 10
62.667462
 20
-1611.461563
 40
1.629926
 50
173.609505
 51
177.220833
  0
ARC
  8
APS_GEOMETRY
 10
64.525244
 20
-1611.551747
 40
3.489895
 50
177.220833
 51
179.688613
  0
LINE
  8
APS_GEOMETRY
 10
61.0354
 11
61.0354
 20
-1611.532781
 21
-1612.065847
  0
ARC
  8
APS_GEOMETRY
 10
82.803671
 20
-1612.065847
 40
21.768271
 50
180.0
 51
180.161396
  0
ARC
  8
APS_GEOMETRY
 10
101.694623
 20
-1612.012633
 40
40.659298
 50
180.161396
 51
180.279489
  0
LINE
  8
APS_GEOMETRY
 10
61.035809
 11
61.03632
 20
-1612.210969
 21
-1612.300393
  0
LINE
  8
APS_GEOMETRY
 10
61.03632
 11
61.037035
 20
-1612.300393
 21
-1612.401058
  0
ARC
  8
APS_GEOMETRY
 10
57.152843
 20
-1612.423127
 40
3.884255
 50
358.204186
 51
0.325541
  0
ARC
  8
APS_GEOMETRY
 10
59.000559
 20
-1612.481059
 40
2.035631
 50
355.273697
 51
358.204186
  0
ARC
  8
APS_GEOMETRY
 10
59.643682
 20
-1612.534231
 40
1.390314
 50
350.991496
 51
355.273697
  0
ARC
  8
APS_GEOMETRY
 10
60.462614
 20
-1612.664061
 40
0.561154
 50
344.248826
 51
350.991496
  0
ARC
  8
APS_GEOMETRY
 10
60.73941
 20
-1612.743106
 40
0.273296
 50
314.415369
 51
344.445429
  0
ARC
  8
APS_GEOMETRY
 10
60.840814
 20
-1612.846602
 40
0.128402
 50
270.0
 51
314.415369
  0
ARC
  8
APS_GEOMETRY
 10
60.840814
 20
-1612.767002
 40
0.208002
 50
256.342357
 51
270.0
  0
ARC
  8
APS_GEOMETRY
 10
60.825997
 20
-1612.827982
 40
0.145248
 50
239.981633
 51
256.342357
  0
ARC
  8
APS_GEOMETRY
 10
60.890713
 20
-1612.715973
 40
0.274609
 50
231.153104
 51
239.981633
  0
ARC
  8
APS_GEOMETRY
 10
61.978146
 20
-1611.365743
 40
2.008284
 50
227.89127
 51
231.153104
  0
LINE
  8
APS_GEOMETRY
 10
60.631512
 11
59.661854
 20
-1612.855637
 21
-1611.987359
  0
ARC
  8
APS_GEOMETRY
 10
59.288294
 20
-1612.400943
 40
0.557313
 50
47.910838
 51
61.467547
  0
ARC
  8
APS_GEOMETRY
 10
59.493431
 20
-1612.023638
 40
0.127849
 50
61.467547
 51
90.0
  0
ARC
  8
APS_GEOMETRY
 10
59.493431
 20
-1611.9518
 40
0.056011
 50
90.0
 51
133.194713
  0
ARC
  8
APS_GEOMETRY
 10
59.548636
 20
-1612.010599
 40
0.136664
 50
133.194713
 51
160.453632
  0
ARC
  8
APS_GEOMETRY
 10
59.725837
 20
-1612.073511
 40
0.324702
 50
160.453632
 51
173.250825
  0
ARC
  8
APS_GEOMETRY
 10
60.559202
 20
-1612.172134
 40
1.163882
 50
173.250825
 51
180.0
  0
ARC
  8
APS_GEOMETRY
 10
62.826223
 20
-1612.172134
 40
3.430903
 50
180.0
 51
181.896923
  0
ARC
  8
APS_GEOMETRY
 10
61.009087
 20
-1612.232317
 40
1.61277
 50
181.896923
 51
184.663802
  0
ARC
  8
APS_GEOMETRY
 10
60.413508
 20
-1612.280903
 40
1.015213
 50
184.663802
 51
189.048181
  0
ARC
  8
APS_GEOMETRY
 10
59.723459
 20
-1612.390791
 40
0.316469
 50
189.048181
 51
196.905158
  0
ARC
  8
APS_GEOMETRY
 10
59.613918
 20
-1612.424083
 40
0.201981
 50
196.905158
 51
220.253477
  0
ARC
  8
APS_GEOMETRY
 10
59.616115
 20
-1612.422224
 40
0.204859
 50
220.253477
 51
243.434949
  0
ARC
  8
APS_GEOMETRY
 10
59.416234
 20
-1612.825265
 40
0.245026
 50
37.921078
 51
63.778033
  0
ARC
  8
APS_GEOMETRY
 10
59.517875
 20
-1612.74608
 40
0.116181
 50
0.0
 51
37.921078
  0
ARC
  8
APS_GEOMETRY
 10
59.472685
 20
-1612.74608
 40
0.161371
 50
324.267836
 51
0.0
  0
ARC
  8
APS_GEOMETRY
 10
59.412309
 20
-1612.702644
 40
0.235747
 50
294.859862
 51
324.267836
  0
ARC
  8
APS_GEOMETRY
 10
59.312464
 20
-1612.487152
 40
0.473247
 50
278.779646
 51
294.859862
  0
ARC
  8
APS_GEOMETRY
 10
59.143503
 20
-1611.393159
 40
1.58021
 50
270.0
 51
278.779646
  0
ARC
  8
APS_GEOMETRY
 10
59.143503
 20
-1611.676732
 40
1.296637
 50
260.382525
 51
270.0
  0
ARC
  8
APS_GEOMETRY
 10
59.006848
 20
-1612.483192
 40
0.478681
 50
244.52173
 51
260.382525
  0
ARC
  8
APS_GEOMETRY
 10
58.907879
 20
-1612.690886
 40
0.248612
 50
216.549301
 51
244.52173
  0
ARC
  8
APS_GEOMETRY
 10
58.826806
 20
-1612.750985
 40
0.147692
 50
180.0
 51
216.549301
  0
ARC
  8
APS_GEOMETRY
 10
58.879448
 20
-1612.750985
 40
0.200334
 50
164.649864
 51
180.0
  0
ARC
  8
APS_GEOMETRY
 10
58.765181
 20
-1612.719618
 40
0.08184
 50
140.52754
 51
164.649864
  0
ARC
  8
APS_GEOMETRY
 10
58.811419
 20
-1612.757696
 40
0.141739
 50
126.135377
 51
140.52754
  0
ARC
  8
APS_GEOMETRY
 10
59.294141
 20
-1613.418815
 40
0.960335
 50
120.618605
 51
126.135377
  0
ARC
  8
APS_GEOMETRY
 10
58.721833
 20
-1612.452735
 40
0.16254
 50
300.784147
 51
330.068488
  0
ARC
  8
APS_GEOMETRY
 10
58.613563
 20
-1612.390398
 40
0.287473
 50
330.068488
 51
351.982907
  0
ARC
  8
APS_GEOMETRY
 10
56.795429
 20
-1612.153378
 40
2.120979
 50
352.492653
 51
355.364537
  0
ARC
  8
APS_GEOMETRY
 10
54.602279
 20
-1611.975555
 40
4.321326
 50
355.364537
 51
357.376422
  0
ARC
  8
APS_GEOMETRY
 10
53.066646
 20
-1611.905189
 40
5.858571
 50
357.376422
 51
358.860936
  0
ARC
  8
APS_GEOMETRY
 10
48.975325
 20
-1611.823842
 40
9.9507
 50
358.860936
 51
0.0
  0
ARC
  8
APS_GEOMETRY
 10
52.654803
 20
-1611.823842
 40
6.271222
 50
360.0
 51
1.926262
  0
ARC
  8
APS_GEOMETRY
 10
55.574123
 20
-1611.725658
 40
3.350251
 50
1.926262
 51
4.561808
  0
ARC
  8
APS_GEOMETRY
 10
56.603496
 20
-1611.643527
 40
2.317607
 50
4.561808
 51
8.365886
  0
ARC
  8
APS_GEOMETRY
 10
57.942295
 20
-1611.446645
 40
0.964409
 50
8.365886
 51
14.264512
  0
ARC
  8
APS_GEOMETRY
 10
58.448545
 20
-1611.318613
 40
0.442221
 50
14.349332
 51
23.629378
  0
ARC
  8
APS_GEOMETRY
 10
58.70527
 20
-1611.206296
 40
0.162001
 50
23.629378
 51
38.990994
  0
ARC
  8
APS_GEOMETRY
 10
58.706227
 20
-1611.205522
 40
0.160771
 50
38.990994
 51
54.462322
  0
ARC
  8
APS_GEOMETRY
 10
58.55602
 20
-1611.41581
 40
0.419195
 50
54.462322
 51
64.025606
  0
ARC
  8
APS_GEOMETRY
 10
58.979916
 20
-1610.547434
 40
0.547119
 50
235.472028
 51
243.946505
  0
ARC
  8
APS_GEOMETRY
 10
58.760946
 20
-1610.865705
 40
0.160798
 50
219.805571
 51
235.472028
  0
ARC
  8
APS_GEOMETRY
 10
58.727796
 20
-1610.893329
 40
0.117648
 50
198.939004
 51
219.805571
  0
ARC
  8
APS_GEOMETRY
 10
58.751337
 20
-1610.885251
 40
0.142536
 50
180.0
 51
198.939004
  0
ARC
  8
APS_GEOMETRY
 10
58.744384
 20
-1610.885251
 40
0.135583
 50
126.253838
 51
180.0
  0
ARC
  8
APS_GEOMETRY
 10
58.951343
 20
-1611.167468
 40
0.485552
 50
98.615648
 51
126.253838
  0
ARC
  8
APS_GEOMETRY
 10
58.980497
 20
-1611.400642
 40
0.720488
 50
94.455603
 51
98.130102
  0
ARC
  8
APS_GEOMETRY
 10
59.092907
 20
-1612.843237
 40
2.167456
 50
92.337306
 51
94.455603
  0
ARC
  8
APS_GEOMETRY
 10
59.140823
 20
-1614.017163
 40
3.34236
 50
90.962864
 51
92.337306
  0
ARC
  8
APS_GEOMETRY
 10
59.199099
 20
-1617.48461
 40
6.810296
 50
90.0
 51
90.962864
  0
ARC
  8
APS_GEOMETRY
 10
59.199099
 20
-1611.915401
 40
1.241087
 50
83.927544
 51
90.0
  0
ARC
  8
APS_GEOMETRY
 10
59.300892
 20
-1610.958546
 40
0.278833
 50
71.095424
 51
83.927544
  0
ARC
  8
APS_GEOMETRY
 10
59.310189
 20
-1610.9314
 40
0.250139
 50
56.848266
 51
71.095424
  0
ARC
  8
APS_GEOMETRY
 10
59.035067
 20
-1611.352605
 40
0.753235
 50
48.652223
 51
56.848266
  0
ARC
  8
APS_GEOMETRY
 10
62.473045
 20
-1612.70469
 40
2.030376
 50
84.709919
 51
90.0
  0
ARC
  8
APS_GEOMETRY
 10
62.510267
 20
-1612.302696
 40
1.626663
 50
78.799202
 51
84.709919
  0
ARC
  8
APS_GEOMETRY
 10
62.751094
 20
-1611.085548
 40
0.385919
 50
49.782532
 51
78.771108
  0
ARC
  8
APS_GEOMETRY
 10
62.912166
 20
-1610.895062
 40
0.136461
 50
0.0
 51
49.782532
  0
ARC
  8
APS_GEOMETRY
 10
62.897646
 20
-1610.895062
 40
0.150981
 50
342.758541
 51
0.0
  0
ARC
  8
APS_GEOMETRY
 10
62.976407
 20
-1610.919506
 40
0.068514
 50
317.045408
 51
342.758541
  0
ARC
  8
APS_GEOMETRY
 10
62.938371
 20
-1610.884093
 40
0.120483
 50
301.817035
 51
317.045408
  0
ARC
  8
APS_GEOMETRY
 10
62.375567
 20
-1609.976985
 40
1.188001
 50
296.980231
 51
301.817035
  0
ARC
  8
APS_GEOMETRY
 10
62.975649
 20
-1611.1579
 40
0.136638
 50
116.565051
 51
149.077974
  0
ARC
  8
APS_GEOMETRY
 10
63.151606
 20
-1611.2633
 40
0.341747
 50
149.077974
 51
169.469072
  0
ARC
  8
APS_GEOMETRY
 10
63.526814
 20
-1611.33305
 40
0.723384
 50
169.469072
 51
174.597877
  0
ARC
  8
APS_GEOMETRY
 10
65.460025
 20
-1611.515865
 40
2.66522
 50
174.597877
 51
177.269212
  0
ARC
  8
APS_GEOMETRY
 10
67.159901
 20
-1611.596944
 40
4.367028
 50
177.269212
 51
178.901208
  0
ARC
  8
APS_GEOMETRY
 10
72.425246
 20
-1611.697933
 40
9.633341
 50
178.901208
 51
180.0
  0
ARC
  8
APS_GEOMETRY
 10
83.124734
 20
-1611.697933
 40
20.33283
 50
180.0
 51
180.879979
  0
ARC
  8
APS_GEOMETRY
 10
70.598734
 20
-1611.890329
 40
7.805352
 50
180.879979
 51
182.300285
  0
ARC
  8
APS_GEOMETRY
 10
66.937462
 20
-1612.037399
 40
4.141127
 50
182.300285
 51
184.973515
  0
ARC
  8
APS_GEOMETRY
 10
63.446423
 20
-1612.3412
 40
0.636895
 50
184.973515
 51
191.79343
  0
ARC
  8
APS_GEOMETRY
 10
63.040916
 20
-1612.418764
 40
0.224203
 50
193.570434
 51
205.787328
  0
ARC
  8
APS_GEOMETRY
 10
62.940058
 20
-1612.467493
 40
0.112189
 50
205.787328
 51
223.090848
  0
ARC
  8
APS_GEOMETRY
 10
62.965637
 20
-1612.443563
 40
0.147217
 50
223.090848
 51
236.441044
  0
ARC
  8
APS_GEOMETRY
 10
63.179807
 20
-1612.120711
 40
0.534648
 50
236.441044
 51
243.434949
  0
ARC
  8
APS_GEOMETRY
 10
62.851922
 20
-1612.794238
 40
0.214555
 50
37.184706
 51
65.556045
  0
ARC
  8
APS_GEOMETRY
 10
62.921869
 20
-1612.741174
 40
0.126758
 50
0.0
 51
37.184706
  0
ARC
  8
APS_GEOMETRY
 10
62.918029
 20
-1612.741174
 40
0.130598
 50
312.039064
 51
0.0
  0
ARC
  8
APS_GEOMETRY
 10
62.762484
 20
-1612.568661
 40
0.36288
 50
283.815025
 51
312.039064
  0
ARC
  8
APS_GEOMETRY
 10
62.505462
 20
-1611.50339
 40
1.458716
 50
279.272602
 51
283.626995
  0
ARC
  8
APS_GEOMETRY
 10
62.402723
 20
-1610.874115
 40
2.096323
 50
275.640549
 51
279.272602
  0
ARC
  8
APS_GEOMETRY
 10
62.363445
 20
-1610.476425
 40
2.495948
 50
272.587879
 51
275.640549
  0
ARC
  8
APS_GEOMETRY
 10
62.319339
 20
-1609.500577
 40
3.472792
 50
270.0
 51
272.587879
  0
ARC
  8
APS_GEOMETRY
 10
62.319339
 20
-1610.87867
 40
2.094699
 50
262.77406
 51
270.0
  0
ARC
  8
APS_GEOMETRY
 10
62.130501
 20
-1612.368052
 40
0.593394
 50
249.174782
 51
262.77406
  0
ARC
  8
APS_GEOMETRY
 10
62.011866
 20
-1612.679948
 40
0.259697
 50
221.229513
 51
249.174782
  0
ARC
  8
APS_GEOMETRY
 10
61.908414
 20
-1612.770608
 40
0.122141
 50
180.0
 51
221.229513
  0
ARC
  8
APS_GEOMETRY
 10
61.888337
 20
-1612.770608
 40
0.102065
 50
142.696052
 51
180.0
  0
ARC
  8
APS_GEOMETRY
 10
62.049406
 20
-1612.893327
 40
0.304557
 50
121.357085
 51
142.696052
  0
ARC
  8
APS_GEOMETRY
 10
61.777242
 20
-1612.447573
 40
0.217717
 50
301.476839
 51
324.727579
  0
ARC
  8
APS_GEOMETRY
 10
61.806265
 20
-1612.468102
 40
0.182167
 50
324.727579
 51
350.180699
  0
ARC
  8
APS_GEOMETRY
 10
60.894225
 20
-1612.317246
 40
1.106595
 50
350.537678
 51
355.42288
  0
ARC
  8
APS_GEOMETRY
 10
57.146617
 20
-1612.017226
 40
4.866193
 50
355.42288
 51
357.75194
  0
ARC
  8
APS_GEOMETRY
 10
53.666942
 20
-1611.880628
 40
8.348548
 50
357.75194
 51
359.110676
  0
ARC
  8
APS_GEOMETRY
 10
42.529615
 20
-1611.707744
 40
19.487217
 50
359.110676
 51
0.0
  0
ARC
  8
APS_GEOMETRY
 10
55.255658
 20
-1611.707744
 40
6.761174
 50
0.0
 51
1.772875
  0
ARC
  8
APS_GEOMETRY
 10
59.223659
 20
-1611.584925
 40
2.791273
 50
1.772875
 51
4.532262
  0
ARC
  8
APS_GEOMETRY
 10
60.429705
 20
-1611.489324
 40
1.581443
 50
4.532262
 51
9.383565
  0
ARC
  8
APS_GEOMETRY
 10
61.654373
 20
-1611.286942
 40
0.340165
 50
9.383565
 51
19.855214
  0
ARC
  8
APS_GEOMETRY
 10
61.816461
 20
-1611.225309
 40
0.166806
 50
18.853159
 51
42.157862
  0
ARC
  8
APS_GEOMETRY
 10
61.677544
 20
-1611.351085
 40
0.354202
 50
42.157862
 51
58.091893
  0
ARC
  8
APS_GEOMETRY
 10
62.288974
 20
-1610.406229
 40
0.77131
 50
230.710593
 51
236.633634
  0
ARC
  8
APS_GEOMETRY
 10
61.904899
 20
-1610.875653
 40
0.164784
 50
217.874984
 51
230.710593
  0
ARC
  8
APS_GEOMETRY
 10
61.852243
 20
-1610.916608
 40
0.098077
 50
196.927513
 51
217.874984
  0
ARC
  8
APS_GEOMETRY
 10
61.901544
 20
-1610.901603
 40
0.149611
 50
180.0
 51
196.927513
  0
ARC
  8
APS_GEOMETRY
 10
61.869298
 20
-1610.901603
 40
0.117365
 50
148.790867
 51
180.0
  0
ARC
  8
APS_GEOMETRY
 10
61.900076
 20
-1610.92025
 40
0.15335
 50
121.568971
 51
148.790867
  0
ARC
  8
APS_GEOMETRY
 10
61.955334
 20
-1611.010179
 40
0.2589
 50
112.805746
 51
121.568971
  0
ARC
  8
APS_GEOMETRY
 10
62.104699
 20
-1611.365406
 40
0.644252
 50
107.25376
 51
112.805746
  0
ARC
  8
APS_GEOMETRY
 10
62.196185
 20
-1611.659972
 40
0.952697
 50
103.486615
 51
107.25376
  0
ARC
  8
APS_GEOMETRY
 10
62.40571
 20
-1612.533605
 40
1.851105
 50
100.784298
 51
103.486615
  0
ARC
  8
APS_GEOMETRY
 10
62.471338
 20
-1612.775151
 40
2.100753
 50
95.643318
 51
101.309932
  0
ARC
  8
APS_GEOMETRY
 10
62.473045
 20
-1612.792432
 40
2.118118
 50
90.0
 51
95.643318
  0
ARC
  8
APS_GEOMETRY
 10
64.506548
 20
-1611.726059
 40
1.063191
 50
77.257003
 51
90.0
  0
ARC
  8
APS_GEOMETRY
 10
64.495745
 20
-1611.773828
 40
1.112167
 50
64.798876
 51
77.257003
  0
ARC
  8
APS_GEOMETRY
 10
65.411624
 20
-1609.823899
 40
1.042145
 50
244.885165
 51
251.17529
  0
ARC
  8
APS_GEOMETRY
 10
65.113198
 20
-1610.699283
 40
0.117291
 50
251.17529
 51
270.0
  0
ARC
  8
APS_GEOMETRY
 10
65.113198
 20
-1610.626255
 40
0.190319
 50
270.0
 51
278.82038
  0
ARC
  8
APS_GEOMETRY
 10
64.990244
 20
-1609.833882
 40
0.992175
 50
278.82038
 51
282.680383
  0
ARC
  8
APS_GEOMETRY
 10
65.247512
 20
-1610.972911
 40
0.175549
 50
95.906141
 51
102.994617
  0
ARC
  8
APS_GEOMETRY
 10
65.255458
 20
-1611.049724
 40
0.252772
 50
90.0
 51
95.906141
  0
ARC
  8
APS_GEOMETRY
 10
65.255458
 20
-1610.964728
 40
0.167776
 50
62.447188
 51
90.0
  0
ARC
  8
APS_GEOMETRY
 10
65.225624
 20
-1611.02191
 40
0.232273
 50
39.093859
 51
62.447188
  0
ARC
  8
APS_GEOMETRY
 10
64.913917
 20
-1611.282594
 40
0.638605
 50
18.434949
 51
39.610688
  0
ARC
  8
APS_GEOMETRY
 10
64.722587
 20
-1611.346371
 40
0.840284
 50
0.0
 51
18.434949
  0
ARC
  8
APS_GEOMETRY
 10
65.146207
 20
-1611.346371
 40
0.416664
 50
334.876872
 51
0.0
  0
ARC
  8
APS_GEOMETRY
 10
65.271525
 20
-1611.405135
 40
0.278252
 50
304.007492
 51
334.876872
  0
ARC
  8
APS_GEOMETRY
 10
65.269459
 20
-1611.399258
 40
0.284284
 50
286.38954
 51
303.690068
  0
ARC
  8
APS_GEOMETRY
 10
65.260364
 20
-1611.368334
 40
0.316518
 50
270.0
 51
286.38954
  0
ARC
  8
APS_GEOMETRY
 10
65.260364
 20
-1611.372023
 40
0.312829
 50
255.154548
 51
270.0
  0
ARC
  8
APS_GEOMETRY
 10
65.226093
 20
-1611.501315
 40
0.179072
 50
235.491477
 51
255.154548
  0
ARC
  8
APS_GEOMETRY
 10
65.243295
 20
-1611.476295
 40
0.209435
 50
218.480198
 51
235.491477
  0
ARC
  8
APS_GEOMETRY
 10
65.524339
 20
-1611.252901
 40
0.568448
 50
208.17859
 51
218.480198
  0
ARC
  8
APS_GEOMETRY
 10
62.643114
 20
-1612.816859
 40
2.709888
 50
28.55962
 51
31.663799
  0
ARC
  8
APS_GEOMETRY
 10
64.403724
 20
-1611.73102
 40
0.641364
 50
31.663799
 51
38.047043
  0
ARC
  8
APS_GEOMETRY
 10
64.531736
 20
-1611.630836
 40
0.47881
 50
38.047043
 51
46.5602
  0
ARC
  8
APS_GEOMETRY
 10
64.465197
 20
-1611.701102
 40
0.575581
 50
46.5602
 51
54.323592
  0
ARC
  8
APS_GEOMETRY
 10
64.426789
 20
-1611.767172
 40
0.651693
 50
54.968356
 51
71.480419
  0
ARC
  8
APS_GEOMETRY
 10
64.468939
 20
-1611.641343
 40
0.518991
 50
71.480419
 51
90.0
  0
ARC
  8
APS_GEOMETRY
 10
64.468939
 20
-1611.48488
 40
0.362528
 50
90.0
 51
114.629635
  0
ARC
  8
APS_GEOMETRY
 10
64.450734
 20
-1611.445171
 40
0.318845
 50
114.629635
 51
140.920621
  0
ARC
  8
APS_GEOMETRY
 10
64.504524
 20
-1611.488852
 40
0.388137
 50
140.920621
 51
163.129646
  0
ARC
  8
APS_GEOMETRY
 10
64.773395
 20
-1611.57039
 40
0.669099
 50
163.129646
 51
180.0
  0
ARC
  8
APS_GEOMETRY
 10
65.122068
 20
-1611.57039
 40
1.017773
 50
180.0
 51
195.439646
  0
ARC
  8
APS_GEOMETRY
 10
65.069165
 20
-1611.585001
 40
0.962889
 50
195.439646
 51
211.31598
  0
ARC
  8
APS_GEOMETRY
 10
64.814703
 20
-1611.734468
 40
0.667827
 50
211.707816
 51
240.456928
  0
ARC
  8
APS_GEOMETRY
 10
64.797609
 20
-1611.764627
 40
0.633161
 50
240.456928
 51
270.0
  0
ARC
  8
APS_GEOMETRY
 10
64.797609
 20
-1611.610254
 40
0.787534
 50
270.0
 51
279.549134
  0
ARC
  8
APS_GEOMETRY
 10
64.787819
 20
-1611.552054
 40
0.846552
 50
279.549134
 51
288.75865
  0
ARC
  8
APS_GEOMETRY
 10
64.829088
 20
-1611.67357
 40
0.718218
 50
288.75865
 51
299.544635
  0
ARC
  8
APS_GEOMETRY
 10
64.994571
 20
-1611.965529
 40
0.382623
 50
299.544635
 51
314.341457
  0
ARC
  8
APS_GEOMETRY
 10
65.506327
 20
-1612.497077
 40
0.355259
 50
120.141386
 51
133.451842
  0
ARC
  8
APS_GEOMETRY
 10
65.36338
 20
-1612.250891
 40
0.070581
 50
90.0
 51
120.141386
  0
ARC
  8
APS_GEOMETRY
 10
65.36338
 20
-1612.29179
 40
0.11148
 50
61.951894
 51
90.0
  0
ARC
  8
APS_GEOMETRY
 10
65.346777
 20
-1612.322951
 40
0.146789
 50
37.568592
 51
61.951894
  0
ARC
  8
APS_GEOMETRY
 10
65.315813
 20
-1612.34677
 40
0.185854
 50
17.665186
 51
37.568592
  0
ARC
  8
APS_GEOMETRY
 10
65.268575
 20
-1612.361814
 40
0.23543
 50
0.0
 51
17.665186
  0
ARC
  8
APS_GEOMETRY
 10
65.149976
 20
-1612.361814
 40
0.354029
 50
344.931512
 51
0.0
  0
ARC
  8
APS_GEOMETRY
 10
64.835074
 20
-1612.277033
 40
0.680144
 50
334.075098
 51
344.931512
  0
ARC
  8
APS_GEOMETRY
 10
64.825172
 20
-1612.272219
 40
0.691154
 50
323.374259
 51
334.075098
  0
ARC
  8
APS_GEOMETRY
 10
65.02836
 20
-1612.423262
 40
0.437976
 50
309.920392
 51
323.374259
  0
ARC
  8
APS_GEOMETRY
 10
65.231412
 20
-1612.6628
 40
0.123978
 50
289.025606
 51
308.990994
  0
ARC
  8
APS_GEOMETRY
 10
65.014764
 20
-1612.034521
 40
0.788561
 50
281.14289
 51
289.025606
  0
ARC
  8
APS_GEOMETRY
 10
65.234465
 20
-1613.173595
 40
0.371526
 50
100.437475
 51
110.119633
  0
ARC
  8
APS_GEOMETRY
 10
65.525522
 20
-1613.968102
 40
1.217667
 50
110.119633
 51
115.463345
  0
ARC
  8
APS_GEOMETRY
 10
64.486467
 20
-1611.794072
 40
1.191908
 50
282.940436
 51
295.628419
  0
ARC
  8
APS_GEOMETRY
 10
64.496737
 20
-1611.838771
 40
1.146044
 50
270.0
 51
282.940436
  0
ARC
  8
APS_GEOMETRY
 10
64.496737
 20
-1611.771075
 40
1.21374
 50
257.307334
 51
270.0
  0
ARC
  8
APS_GEOMETRY
 10
64.547974
 20
-1611.543585
 40
1.446929
 50
245.686204
 51
257.307334
  0
ARC
  8
APS_GEOMETRY
 10
64.419463
 20
-1611.82566
 40
1.136961
 50
228.800778
 51
245.735234
  0
ARC
  8
APS_GEOMETRY
 10
64.421616
 20
-1611.8232
 40
1.14023
 50
211.890792
 51
228.800778
  0
ARC
  8
APS_GEOMETRY
 10
64.488996
 20
-1611.7747
 40
1.223075
 50
196.727964
 51
212.152295
  0
ARC
  8
APS_GEOMETRY
 10
64.314607
 20
-1611.827112
 40
1.04098
 50
180.0
 51
196.727964
  0
ARC
  8
APS_GEOMETRY
 10
64.339974
 20
-1611.827112
 40
1.066347
 50
161.183932
 51
180.0
  0
ARC
  8
APS_GEOMETRY
 10
64.40839
 20
-1611.850424
 40
1.138626
 50
142.980114
 51
161.183932
  0
ARC
  8
APS_GEOMETRY
 10
64.461594
 20
-1611.89114
 40
1.20562
 50
127.824257
 51
142.957525
  0
ARC
  8
APS_GEOMETRY
 10
64.549292
 20
-1612.004102
 40
1.348629
 50
113.520273
 51
127.824257
  0
ARC
  8
APS_GEOMETRY
 10
64.520747
 20
-1611.938137
 40
1.276753
 50
101.926773
 51
113.527064
  0
ARC
  8
APS_GEOMETRY
 10
64.506548
 20
-1611.870913
 40
1.208046
 50
90.0
 51
101.926773
  0
ARC
  8
APS_GEOMETRY
 10
66.733983
 20
-1612.70469
 40
2.030376
 50
84.709919
 51
90.0
  0
ARC
  8
APS_GEOMETRY
 10
66.771205
 20
-1612.302696
 40
1.626663
 50
78.799202
 51
84.709919
  0
ARC
  8
APS_GEOMETRY
 10
67.012031
 20
-1611.085548
 40
0.385919
 50
49.782532
 51
78.771108
  0
ARC
  8
APS_GEOMETRY
 10
67.173104
 20
-1610.895062
 40
0.136461
 50
0.0
 51
49.782532
  0
ARC
  8
APS_GEOMETRY
 10
67.158583
 20
-1610.895062
 40
0.150981
 50
342.758541
 51
0.0
  0
ARC
  8
APS_GEOMETRY
 10
67.237344
 20
-1610.919506
 40
0.068514
 50
317.045408
 51
342.758541
  0
ARC
  8
APS_GEOMETRY
 10
67.199308
 20
-1610.884093
 40
0.120483
 50
301.817035
 51
317.045408
  0
ARC
  8
APS_GEOMETRY
 10
66.636504
 20
-1609.976985
 40
1.188001
 50
296.980231
 51
301.817035
  0
ARC
  8
APS_GEOMETRY
 10
67.236586
 20
-1611.1579
 40
0.136638
 50
116.565051
 51
149.077974
  0
ARC
  8
APS_GEOMETRY
 10
67.412543
 20
-1611.2633
 40
0.341747
 50
149.077974
 51
169.469072
  0
ARC
  8
APS_GEOMETRY
 10
67.787751
 20
-1611.33305
 40
0.723384
 50
169.469072
 51
174.597877
  0
ARC
  8
APS_GEOMETRY
 10
69.720963
 20
-1611.515865
 40
2.66522
 50
174.597877
 51
177.269212
  0
ARC
  8
APS_GEOMETRY
 10
71.420839
 20
-1611.596944
 40
4.367028
 50
177.269212
 51
178.901208
  0
ARC
  8
APS_GEOMETRY
 10
76.686183
 20
-1611.697933
 40
9.633341
 50
178.901208
 51
180.0
  0
ARC
  8
APS_GEOMETRY
 10
87.385672
 20
-1611.697933
 40
20.33283
 50
180.0
 51
180.879979
  0
ARC
  8
APS_GEOMETRY
 10
74.859671
 20
-1611.890329
 40
7.805352
 50
180.879979
 51
182.300285
  0
ARC
  8
APS_GEOMETRY
 10
71.198399
 20
-1612.037399
 40
4.141127
 50
182.300285
 51
184.973515
  0
ARC
  8
APS_GEOMETRY
 10
67.707361
 20
-1612.3412
 40
0.636895
 50
184.973515
 51
191.79343
  0
ARC
  8
APS_GEOMETRY
 10
67.301854
 20
-1612.418764
 40
0.224203
 50
193.570434
 51
205.787328
  0
ARC
  8
APS_GEOMETRY
 10
67.200995
 20
-1612.467493
 40
0.112189
 50
205.787328
 51
223.090848
  0
ARC
  8
APS_GEOMETRY
 10
67.226575
 20
-1612.443563
 40
0.147217
 50
223.090848
 51
236.441044
  0
ARC
  8
APS_GEOMETRY
 10
67.440745
 20
-1612.120711
 40
0.534648
 50
236.441044
 51
243.434949
  0
ARC
  8
APS_GEOMETRY
 10
67.112859
 20
-1612.794238
 40
0.214555
 50
37.184706
 51
65.556045
  0
ARC
  8
APS_GEOMETRY
 10
67.182807
 20
-1612.741174
 40
0.126758
 50
0.0
 51
37.184706
  0
ARC
  8
APS_GEOMETRY
 10
67.178967
 20
-1612.741174
 40
0.130598
 50
312.039064
 51
0.0
  0
ARC
  8
APS_GEOMETRY
 10
67.023422
 20
-1612.568661
 40
0.36288
 50
283.815025
 51
312.039064
  0
ARC
  8
APS_GEOMETRY
 10
66.766399
 20
-1611.50339
 40
1.458716
 50
279.272602
 51
283.626995
  0
ARC
  8
APS_GEOMETRY
 10
66.663661
 20
-1610.874115
 40
2.096323
 50
275.640549
 51
279.272602
  0
ARC
  8
APS_GEOMETRY
 10
66.624383
 20
-1610.476425
 40
2.495948
 50
272.587879
 51
275.640549
  0
ARC
  8
APS_GEOMETRY
 10
66.580277
 20
-1609.500577
 40
3.472792
 50
270.0
 51
272.587879
  0
ARC
  8
APS_GEOMETRY
 10
66.580277
 20
-1610.87867
 40
2.094699
 50
262.77406
 51
270.0
  0
ARC
  8
APS_GEOMETRY
 10
66.391439
 20
-1612.368052
 40
0.593394
 50
249.174782
 51
262.77406
  0
ARC
  8
APS_GEOMETRY
 10
66.272804
 20
-1612.679948
 40
0.259697
 50
221.229513
 51
249.174782
  0
ARC
  8
APS_GEOMETRY
 10
66.169351
 20
-1612.770608
 40
0.122141
 50
180.0
 51
221.229513
  0
ARC
  8
APS_GEOMETRY
 10
66.149275
 20
-1612.770608
 40
0.102065
 50
142.696052
 51
180.0
  0
ARC
  8
APS_GEOMETRY
 10
66.310343
 20
-1612.893327
 40
0.304557
 50
121.357085
 51
142.696052
  0
ARC
  8
APS_GEOMETRY
 10
66.038179
 20
-1612.447573
 40
0.217717
 50
301.476839
 51
324.727579
  0
ARC
  8
APS_GEOMETRY
 10
66.067203
 20
-1612.468102
 40
0.182167
 50
324.727579
 51
350.180699
  0
ARC
  8
APS_GEOMETRY
 10
65.155163
 20
-1612.317246
 40
1.106595
 50
350.537678
 51
355.42288
  0
ARC
  8
APS_GEOMETRY
 10
61.407554
 20
-1612.017226
 40
4.866193
 50
355.42288
 51
357.75194
  0
ARC
  8
APS_GEOMETRY
 10
57.927879
 20
-1611.880628
 40
8.348548
 50
357.75194
 51
359.110676
  0
ARC
  8
APS_GEOMETRY
 10
46.790552
 20
-1611.707744
 40
19.487217
 50
359.110676
 51
0.0
  0
ARC
  8
APS_GEOMETRY
 10
59.516595
 20
-1611.707744
 40
6.761174
 50
0.0
 51
1.772875
  0
ARC
  8
APS_GEOMETRY
 10
63.484596
 20
-1611.584925
 40
2.791273
 50
1.772875
 51
4.532262
  0
ARC
  8
APS_GEOMETRY
 10
64.690643
 20
-1611.489324
 40
1.581443
 50
4.532262
 51
9.383565
  0
ARC
  8
APS_GEOMETRY
 10
65.915311
 20
-1611.286942
 40
0.340165
 50
9.383565
 51
19.855214
  0
ARC
  8
APS_GEOMETRY
 10
66.077398
 20
-1611.225309
 40
0.166806
 50
18.853159
 51
42.157862
  0
ARC
  8
APS_GEOMETRY
 10
65.938481
 20
-1611.351085
 40
0.354202
 50
42.157862
 51
58.091893
  0
ARC
  8
APS_GEOMETRY
 10
66.549911
 20
-1610.406229
 40
0.77131
 50
230.710593
 51
236.633634
  0
ARC
  8
APS_GEOMETRY
 10
66.165836
 20
-1610.875653
 40
0.164784
 50
217.874984
 51
230.710593
  0
ARC
  8
APS_GEOMETRY
 10
66.113181
 20
-1610.916608
 40
0.098077
 50
196.927513
 51
217.874984
  0
ARC
  8
APS_GEOMETRY
 10
66.162482
 20
-1610.901603
 40
0.149611
 50
180.0
 51
196.927513
  0
ARC
  8
APS_GEOMETRY
 10
66.130236
 20
-1610.901603
 40
0.117365
 50
148.790867
 51
180.0
  0
ARC
  8
APS_GEOMETRY
 10
66.161013
 20
-1610.92025
 40
0.15335
 50
121.568971
 51
148.790867
  0
ARC
  8
APS_GEOMETRY
 10
66.216271
 20
-1611.010179
 40
0.2589
 50
112.805746
 51
121.568971
  0
ARC
  8
APS_GEOMETRY
 10
66.365637
 20
-1611.365406
 40
0.644252
 50
107.25376
 51
112.805746
  0
ARC
  8
APS_GEOMETRY
 10
66.457123
 20
-1611.659972
 40
0.952697
 50
103.486615
 51
107.25376
  0
ARC
  8
APS_GEOMETRY
 10
66.666648
 20
-1612.533605
 40
1.851105
 50
100.784298
 51
103.486615
  0
ARC
  8
APS_GEOMETRY
 10
66.732275
 20
-1612.775151
 40
2.100753
 50
95.643318
 51
101.309932
  0
ARC
  8
APS_GEOMETRY
 10
66.733983
 20
-1612.792432
 40
2.118118
 50
90.0
 51
95.643318
  0
LINE
  8
APS_GEOMETRY
 10
70.191396
 11
70.191396
 20
-1612.170499
 21
-1611.310397
  0
ARC
  8
APS_GEOMETRY
 10
68.20533
 20
-1611.310397
 40
1.986066
 50
0.0
 51
2.403809
  0
ARC
  8
APS_GEOMETRY
 10
69.381188
 20
-1611.261035
 40
0.809172
 50
2.403809
 51
6.170175
  0
ARC
  8
APS_GEOMETRY
 10
69.733646
 20
-1611.222932
 40
0.454661
 50
6.170175
 51
12.824398
  0
ARC
  8
APS_GEOMETRY
 10
70.078618
 20
-1611.144402
 40
0.100863
 50
12.824398
 51
26.980231
  0
ARC
  8
APS_GEOMETRY
 10
70.094752
 20
-1611.136188
 40
0.082759
 50
26.980231
 51
59.649904
  0
ARC
  8
APS_GEOMETRY
 10
69.94285
 20
-1611.395616
 40
0.383387
 50
59.649904
 51
74.666715
  0
ARC
  8
APS_GEOMETRY
 10
70.117958
 20
-1610.770665
 40
0.265647
 50
225.0
 51
253.886582
  0
ARC
  8
APS_GEOMETRY
 10
70.009912
 20
-1610.878711
 40
0.112848
 50
180.0
 51
225.0
  0
ARC
  8
APS_GEOMETRY
 10
70.030662
 20
-1610.878711
 40
0.133598
 50
151.15734
 51
180.0
  0
ARC
  8
APS_GEOMETRY
 10
70.030353
 20
-1610.87854
 40
0.133244
 50
122.275644
 51
151.15734
  0
ARC
  8
APS_GEOMETRY
 10
70.068552
 20
-1610.939023
 40
0.20478
 50
102.308016
 51
122.275644
  0
ARC
  8
APS_GEOMETRY
 10
70.13907
 20
-1611.262232
 40
0.535592
 50
90.0
 51
102.308016
  0
ARC
  8
APS_GEOMETRY
 10
70.13907
 20
-1611.884941
 40
1.158301
 50
88.989003
 51
90.0
  0
ARC
  8
APS_GEOMETRY
 10
70.041707
 20
-1617.402195
 40
6.676414
 50
88.567904
 51
88.989003
  0
ARC
  8
APS_GEOMETRY
 10
69.904201
 20
-1622.902412
 40
12.17835
 50
88.337041
 51
88.567904
  0
ARC
  8
APS_GEOMETRY
 10
69.371291
 20
-1641.258206
 40
30.541878
 50
88.191261
 51
88.337041
  0
LINE
  8
APS_GEOMETRY
 10
70.335291
 11
70.431766
 20
-1610.731545
 21
-1610.731545
  0
ARC
  8
APS_GEOMETRY
 10
70.107685
 20
-1556.934067
 40
53.798454
 50
270.345151
 51
270.489696
  0
ARC
  8
APS_GEOMETRY
 10
70.409656
 20
-1592.264607
 40
18.466624
 50
270.489696
 51
270.736409
  0
ARC
  8
APS_GEOMETRY
 10
70.533609
 20
-1601.908184
 40
8.822251
 50
270.736409
 51
271.25279
  0
ARC
  8
APS_GEOMETRY
 10
70.70989
 20
-1609.96901
 40
0.759497
 50
271.25279
 51
273.012788
  0
ARC
  8
APS_GEOMETRY
 10
70.702553
 20
-1609.829618
 40
0.899081
 50
273.012788
 51
274.499608
  0
ARC
  8
APS_GEOMETRY
 10
69.869752
 20
-1599.246946
 40
11.514472
 50
274.499608
 51
274.915063
  0
LINE
  8
APS_GEOMETRY
 10
70.856299
 11
70.95446
 20
-1610.719077
 21
-1610.710441
  0
LINE
  8
APS_GEOMETRY
 10
70.95446
 11
71.082566
 20
-1610.710441
 21
-1610.698842
  0
ARC
  8
APS_GEOMETRY
 10
71.293206
 20
-1612.735032
 40
2.047057
 50
93.2397
 51
95.906141
  0
ARC
  8
APS_GEOMETRY
 10
71.255894
 20
-1612.075855
 40
1.386824
 50
90.0
 51
93.2397
  0
ARC
  8
APS_GEOMETRY
 10
71.255894
 20
-1611.866687
 40
1.177656
 50
77.119689
 51
90.0
  0
ARC
  8
APS_GEOMETRY
 10
71.317937
 20
-1611.595365
 40
0.899331
 50
62.370753
 51
77.119689
  0
ARC
  8
APS_GEOMETRY
 10
71.422984
 20
-1611.398412
 40
0.676124
 50
31.214952
 51
62.517479
  0
ARC
  8
APS_GEOMETRY
 10
71.419816
 20
-1611.400331
 40
0.679828
 50
0.0
 51
31.214952
  0
ARC
  8
APS_GEOMETRY
 10
71.401548
 20
-1611.400331
 40
0.698096
 50
334.495861
 51
0.0
  0
ARC
  8
APS_GEOMETRY
 10
71.435878
 20
-1611.416709
 40
0.66006
 50
308.25442
 51
334.495861
  0
ARC
  8
APS_GEOMETRY
 10
71.330909
 20
-1611.278387
 40
0.833678
 50
287.855247
 51
308.033576
  0
ARC
  8
APS_GEOMETRY
 10
71.2608
 20
-1611.060744
 40
1.062334
 50
270.0
 51
287.855247
  0
ARC
  8
APS_GEOMETRY
 10
71.2608
 20
-1610.513233
 40
1.609846
 50
266.917819
 51
270.0
  0
ARC
  8
APS_GEOMETRY
 10
71.358522
 20
-1608.698384
 40
3.427324
 50
264.805571
 51
266.917819
  0
ARC
  8
APS_GEOMETRY
 10
70.704895
 20
-1616.803837
 40
4.704749
 50
85.815084
 51
86.633539
  0
ARC
  8
APS_GEOMETRY
 10
70.964833
 20
-1612.384888
 40
0.278162
 50
86.633539
 51
90.0
  0
ARC
  8
APS_GEOMETRY
 10
70.964833
 20
-1612.14777
 40
0.041043
 50
90.0
 51
139.6859
  0
ARC
  8
APS_GEOMETRY
 10
70.980058
 20
-1612.160687
 40
0.061009
 50
139.6859
 51
180.0
  0
LINE
  8
APS_GEOMETRY
 10
70.919048
 11
70.919048
 20
-1612.160687
 21
-1612.170499
  0
LINE
  8
APS_GEOMETRY
 10
70.919048
 11
70.930495
 20
-1612.170499
 21
-1612.438667
  0
ARC
  8
APS_GEOMETRY
 10
71.318017
 20
-1612.42252
 40
0.387859
 50
182.385944
 51
193.753071
  0
ARC
  8
APS_GEOMETRY
 10
71.068115
 20
-1612.483685
 40
0.13058
 50
193.753071
 51
213.407825
  0
ARC
  8
APS_GEOMETRY
 10
71.070926
 20
-1612.481831
 40
0.133948
 50
213.407825
 51
232.62815
  0
ARC
  8
APS_GEOMETRY
 10
71.296447
 20
-1612.186561
 40
0.50549
 50
232.62815
 51
242.487997
  0
ARC
  8
APS_GEOMETRY
 10
70.920311
 20
-1612.899778
 40
0.30085
 50
40.539152
 51
61.699244
  0
ARC
  8
APS_GEOMETRY
 10
71.084724
 20
-1612.759161
 40
0.084506
 50
0.0
 51
40.539152
  0
ARC
  8
APS_GEOMETRY
 10
71.055756
 20
-1612.759161
 40
0.113474
 50
315.296867
 51
0.0
  0
ARC
  8
APS_GEOMETRY
 10
70.902284
 20
-1612.607271
 40
0.329401
 50
289.502449
 51
315.296867
  0
ARC
  8
APS_GEOMETRY
 10
70.78981
 20
-1612.289698
 40
0.666303
 50
282.372155
 51
289.502449
  0
ARC
  8
APS_GEOMETRY
 10
70.671678
 20
-1611.751157
 40
1.217648
 50
277.099184
 51
282.372155
  0
ARC
  8
APS_GEOMETRY
 10
70.62311
 20
-1611.361179
 40
1.610639
 50
273.103908
 51
277.099184
  0
ARC
  8
APS_GEOMETRY
 10
70.565851
 20
-1610.305256
 40
2.668113
 50
270.0
 51
273.103908
  0
ARC
  8
APS_GEOMETRY
 10
70.565851
 20
-1610.337238
 40
2.636131
 50
263.472919
 51
270.0
  0
ARC
  8
APS_GEOMETRY
 10
70.349224
 20
-1612.230589
 40
0.730428
 50
251.055563
 51
263.472919
  0
ARC
  8
APS_GEOMETRY
 10
70.210123
 20
-1612.635843
 40
0.301966
 50
224.160841
 51
251.055563
  0
ARC
  8
APS_GEOMETRY
 10
70.076404
 20
-1612.765702
 40
0.115567
 50
180.0
 51
224.160841
  0
ARC
  8
APS_GEOMETRY
 10
70.100392
 20
-1612.765702
 40
0.139555
 50
160.820992
 51
180.0
  0
ARC
  8
APS_GEOMETRY
 10
70.041857
 20
-1612.745342
 40
0.077581
 50
135.0
 51
160.820992
  0
ARC
  8
APS_GEOMETRY
 10
70.097185
 20
-1612.80067
 40
0.155826
 50
121.522177
 51
135.0
  0
ARC
  8
APS_GEOMETRY
 10
70.721437
 20
-1613.818472
 40
1.349816
 50
116.952179
 51
121.522177
  0
ARC
  8
APS_GEOMETRY
 10
70.03979
 20
-1612.482924
 40
0.149644
 50
297.824096
 51
321.604835
  0
ARC
  8
APS_GEOMETRY
 10
70.074259
 20
-1612.510239
 40
0.105663
 50
321.604835
 51
349.99202
  0
ARC
  8
APS_GEOMETRY
 10
69.914293
 20
-1612.48201
 40
0.268101
 50
349.99202
 51
356.013707
  0
ARC
  8
APS_GEOMETRY
 10
67.481152
 20
-1612.312453
 40
2.707143
 50
356.013707
 51
357.907934
  0
ARC
  8
APS_GEOMETRY
 10
64.640941
 20
-1612.208701
 40
5.549248
 50
357.907934
 51
358.832845
  0
ARC
  8
APS_GEOMETRY
 10
54.371124
 20
-1611.999469
 40
15.821196
 50
358.832845
 51
359.38061
  0
LINE
  8
APS_GEOMETRY
 10
70.930495
 11
70.930495
 20
-1611.10273
 21
-1611.658689
  0
ARC
  8
APS_GEOMETRY
 10
71.099215
 20
-1611.658689
 40
0.16872
 50
180.0
 51
199.885165
  0
ARC
  8
APS_GEOMETRY
 10
70.97297
 20
-1611.704352
 40
0.034471
 50
199.885165
 51
244.798876
  0
ARC
  8
APS_GEOMETRY
 10
71.045528
 20
-1611.554841
 40
0.200656
 50
244.230672
 51
258.996459
  0
ARC
  8
APS_GEOMETRY
 10
71.076025
 20
-1611.397997
 40
0.360438
 50
258.996459
 51
270.0
  0
ARC
  8
APS_GEOMETRY
 10
71.076025
 20
-1611.435911
 40
0.322524
 50
270.0
 51
288.434949
  0
ARC
  8
APS_GEOMETRY
 10
71.099163
 20
-1611.505326
 40
0.249354
 50
288.434949
 51
309.427802
  0
ARC
  8
APS_GEOMETRY
 10
71.107588
 20
-1611.514043
 40
0.237272
 50
309.193273
 51
339.939397
  0
ARC
  8
APS_GEOMETRY
 10
70.814105
 20
-1611.406872
 40
0.54971
 50
339.939397
 51
0.0
  0
ARC
  8
APS_GEOMETRY
 10
70.846423
 20
-1611.406872
 40
0.517393
 50
360.0
 51
22.011283
  0
ARC
  8
APS_GEOMETRY
 10
71.07566
 20
-1611.314202
 40
0.270133
 50
22.011283
 51
52.650651
  0
ARC
  8
APS_GEOMETRY
 10
71.072122
 20
-1611.316654
 40
0.274232
 50
52.373766
 51
72.30911
  0
ARC
  8
APS_GEOMETRY
 10
71.049862
 20
-1611.38644
 40
0.347483
 50
72.30911
 51
90.0
  0
ARC
  8
APS_GEOMETRY
 10
71.049862
 20
-1611.241552
 40
0.202594
 50
90.0
 51
118.113209
  0
ARC
  8
APS_GEOMETRY
 10
70.975697
 20
-1611.10273
 40
0.045202
 50
118.113209
 51
180.0
  0
ARC
  8
APS_GEOMETRY
 10
73.567377
 20
-1611.951944
 40
1.289076
 50
71.909511
 51
90.0
  0
ARC
  8
APS_GEOMETRY
 10
73.617302
 20
-1611.799112
 40
1.128297
 50
52.561428
 51
71.909511
  0
ARC
  8
APS_GEOMETRY
 10
73.604225
 20
-1611.802915
 40
1.139294
 50
38.846006
 51
52.155542
  0
ARC
  8
APS_GEOMETRY
 10
73.425619
 20
-1611.946755
 40
1.36862
 50
26.707224
 51
38.846006
  0
ARC
  8
APS_GEOMETRY
 10
73.460976
 20
-1611.91786
 40
1.324086
 50
13.867603
 51
26.277857
  0
ARC
  8
APS_GEOMETRY
 10
73.715962
 20
-1611.85491
 40
1.061444
 50
0.0
 51
13.867603
  0
ARC
  8
APS_GEOMETRY
 10
73.732472
 20
-1611.85491
 40
1.044934
 50
339.712247
 51
0.0
  0
ARC
  8
APS_GEOMETRY
 10
73.673647
 20
-1611.833164
 40
1.10765
 50
320.013114
 51
339.712247
  0
ARC
  8
APS_GEOMETRY
 10
73.663892
 20
-1611.827787
 40
1.118582
 50
303.343757
 51
320.123166
  0
ARC
  8
APS_GEOMETRY
 10
73.549105
 20
-1611.653332
 40
1.327413
 50
287.949403
 51
303.343757
  0
ARC
  8
APS_GEOMETRY
 10
73.511393
 20
-1611.522576
 40
1.463433
 50
279.039483
 51
287.776406
  0
ARC
  8
APS_GEOMETRY
 10
73.526497
 20
-1611.617521
 40
1.367295
 50
270.0
 51
279.039483
  0
ARC
  8
APS_GEOMETRY
 10
73.526497
 20
-1611.684273
 40
1.300543
 50
257.72804
 51
270.0
  0
ARC
  8
APS_GEOMETRY
 10
73.528544
 20
-1611.674865
 40
1.31017
 50
245.501426
 51
257.72804
  0
ARC
  8
APS_GEOMETRY
 10
73.454909
 20
-1611.836004
 40
1.133004
 50
228.665185
 51
245.510859
  0
ARC
  8
APS_GEOMETRY
 10
73.430419
 20
-1611.863846
 40
1.095924
 50
211.534792
 51
228.665185
  0
ARC
  8
APS_GEOMETRY
 10
73.462518
 20
-1611.840274
 40
1.135616
 50
195.642246
 51
211.70143
  0
ARC
  8
APS_GEOMETRY
 10
73.521204
 20
-1611.823842
 40
1.19656
 50
180.0
 51
195.642246
  0
ARC
  8
APS_GEOMETRY
 10
73.533782
 20
-1611.823842
 40
1.209138
 50
162.181111
 51
180.0
  0
ARC
  8
APS_GEOMETRY
 10
73.423458
 20
-1611.78838
 40
1.093254
 50
143.433519
 51
162.181111
  0
ARC
  8
APS_GEOMETRY
 10
73.408613
 20
-1611.776491
 40
1.074249
 50
126.384352
 51
143.471145
  0
ARC
  8
APS_GEOMETRY
 10
73.51032
 20
-1611.914521
 40
1.245703
 50
110.525108
 51
126.384352
  0
ARC
  8
APS_GEOMETRY
 10
73.505286
 20
-1611.877041
 40
1.208866
 50
99.7697
 51
110.924502
  0
ARC
  8
APS_GEOMETRY
 10
73.567377
 20
-1612.237647
 40
1.57478
 50
90.0
 51
99.7697
  0
ARC
  8
APS_GEOMETRY
 10
73.412035
 20
-1611.372521
 40
0.240358
 50
90.0
 51
119.604451
  0
ARC
  8
APS_GEOMETRY
 10
73.433087
 20
-1611.409572
 40
0.282973
 50
119.604451
 51
146.842076
  0
ARC
  8
APS_GEOMETRY
 10
73.475396
 20
-1611.444261
 40
0.337416
 50
145.840305
 51
164.054604
  0
ARC
  8
APS_GEOMETRY
 10
73.57346
 20
-1611.472279
 40
0.439405
 50
164.054604
 51
180.0
  0
ARC
  8
APS_GEOMETRY
 10
74.186683
 20
-1611.472279
 40
1.052628
 50
180.0
 51
189.976729
  0
ARC
  8
APS_GEOMETRY
 10
75.119263
 20
-1611.308231
 40
1.999526
 50
189.976729
 51
197.211115
  0
ARC
  8
APS_GEOMETRY
 10
75.323239
 20
-1611.245046
 40
2.213064
 50
197.211115
 51
203.760424
  0
ARC
  8
APS_GEOMETRY
 10
74.815104
 20
-1611.468741
 40
1.65787
 50
203.760424
 51
211.328693
  0
ARC
  8
APS_GEOMETRY
 10
73.771697
 20
-1612.094929
 40
0.441075
 50
212.319617
 51
224.440823
  0
ARC
  8
APS_GEOMETRY
 10
73.728926
 20
-1612.136873
 40
0.381169
 50
224.440823
 51
237.483626
  0
ARC
  8
APS_GEOMETRY
 10
73.701286
 20
-1612.180231
 40
0.329751
 50
237.483626
 51
252.415923
  0
ARC
  8
APS_GEOMETRY
 10
73.673663
 20
-1612.267394
 40
0.238315
 50
252.415923
 51
270.0
  0
ARC
  8
APS_GEOMETRY
 10
73.673663
 20
-1612.239136
 40
0.266573
 50
270.0
 51
294.952847
  0
ARC
  8
APS_GEOMETRY
 10
73.681132
 20
-1612.255187
 40
0.248869
 50
294.952847
 51
320.792796
  0
ARC
  8
APS_GEOMETRY
 10
73.641099
 20
-1612.222529
 40
0.300533
 50
320.792796
 51
342.776564
  0
ARC
  8
APS_GEOMETRY
 10
73.462709
 20
-1612.167228
 40
0.487299
 50
342.776564
 51
0.0
  0
ARC
  8
APS_GEOMETRY
 10
72.624653
 20
-1612.167228
 40
1.325355
 50
0.0
 51
8.498559
  0
ARC
  8
APS_GEOMETRY
 10
72.041286
 20
-1612.254398
 40
1.915198
 50
8.498559
 51
15.566318
  0
ARC
  8
APS_GEOMETRY
 10
72.111427
 20
-1612.234859
 40
1.842387
 50
15.566318
 51
22.908635
  0
ARC
  8
APS_GEOMETRY
 10
72.714612
 20
-1611.979956
 40
1.187553
 50
22.908635
 51
32.057376
  0
ARC
  8
APS_GEOMETRY
 10
73.188399
 20
-1611.681477
 40
0.627589
 50
31.920876
 51
42.510447
  0
ARC
  8
APS_GEOMETRY
 10
73.318501
 20
-1611.562217
 40
0.451096
 50
42.510447
 51
55.00798
  0
ARC
  8
APS_GEOMETRY
 10
73.362445
 20
-1611.49944
 40
0.374468
 50
55.00798
 51
69.880367
  0
ARC
  8
APS_GEOMETRY
 10
73.401851
 20
-1611.391873
 40
0.25991
 50
69.880367
 51
87.754257
  0
ARC
  8
APS_GEOMETRY
 10
76.093067
 20
-1612.123064
 40
0.120989
 50
90.0
 51
115.836754
  0
ARC
  8
APS_GEOMETRY
 10
76.063278
 20
-1612.061544
 40
0.052636
 50
115.836754
 51
155.462272
  0
ARC
  8
APS_GEOMETRY
 10
76.098042
 20
-1612.077414
 40
0.090851
 50
155.462272
 51
168.366366
  0
ARC
  8
APS_GEOMETRY
 10
76.415342
 20
-1612.142741
 40
0.414805
 50
168.366366
 51
174.395461
  0
ARC
  8
APS_GEOMETRY
 10
76.735124
 20
-1612.174121
 40
0.736123
 50
174.395461
 51
177.813405
  0
ARC
  8
APS_GEOMETRY
 10
77.79655
 20
-1612.214648
 40
1.798323
 50
177.813405
 51
180.0
  0
ARC
  8
APS_GEOMETRY
 10
78.564963
 20
-1612.214648
 40
2.566736
 50
180.0
 51
184.619923
  0
ARC
  8
APS_GEOMETRY
 10
76.843972
 20
-1612.353718
 40
0.840135
 50
184.619923
 51
192.699584
  0
ARC
  8
APS_GEOMETRY
 10
76.180465
 20
-1612.499394
 40
0.160878
 50
194.036243
 51
205.820992
  0
ARC
  8
APS_GEOMETRY
 10
76.110197
 20
-1612.533395
 40
0.082817
 50
205.820992
 51
222.273689
  0
ARC
  8
APS_GEOMETRY
 10
76.131723
 20
-1612.513825
 40
0.111909
 50
222.273689
 51
234.605204
  0
ARC
  8
APS_GEOMETRY
 10
76.374743
 20
-1612.171798
 40
0.531481
 50
234.605204
 51
240.255119
  0
ARC
  8
APS_GEOMETRY
 10
76.005307
 20
-1612.825521
 40
0.21943
 50
34.592289
 51
61.189206
  0
ARC
  8
APS_GEOMETRY
 10
76.077818
 20
-1612.775513
 40
0.131347
 50
0.0
 51
34.592289
  0
ARC
  8
APS_GEOMETRY
 10
76.082201
 20
-1612.775513
 40
0.126963
 50
318.230949
 51
0.0
  0
ARC
  8
APS_GEOMETRY
 10
75.997294
 20
-1612.69968
 40
0.240805
 50
288.227257
 51
318.230949
  0
ARC
  8
APS_GEOMETRY
 10
75.909239
 20
-1612.432287
 40
0.522323
 50
280.377402
 51
288.227257
  0
ARC
  8
APS_GEOMETRY
 10
75.755746
 20
-1611.594109
 40
1.37444
 50
275.540609
 51
280.377402
  0
ARC
  8
APS_GEOMETRY
 10
75.689601
 20
-1610.912226
 40
2.059523
 50
272.304132
 51
275.540609
  0
ARC
  8
APS_GEOMETRY
 10
75.609056
 20
-1608.910433
 40
4.062936
 50
270.0
 51
272.304132
  0
ARC
  8
APS_GEOMETRY
 10
75.609056
 20
-1610.583369
 40
2.39
 50
262.811463
 51
270.0
  0
ARC
  8
APS_GEOMETRY
 10
75.394601
 20
-1612.283685
 40
0.676214
 50
249.274441
 51
262.811463
  0
ARC
  8
APS_GEOMETRY
 10
75.259704
 20
-1612.640198
 40
0.295032
 50
221.378515
 51
249.274441
  0
ARC
  8
APS_GEOMETRY
 10
75.141371
 20
-1612.744445
 40
0.13733
 50
180.0
 51
221.378515
  0
ARC
  8
APS_GEOMETRY
 10
75.140465
 20
-1612.744445
 40
0.136424
 50
164.054604
 51
180.0
  0
ARC
  8
APS_GEOMETRY
 10
75.083594
 20
-1612.728196
 40
0.077278
 50
142.815294
 51
164.054604
  0
ARC
  8
APS_GEOMETRY
 10
75.119386
 20
-1612.755348
 40
0.122203
 50
129.007473
 51
142.815294
  0
ARC
  8
APS_GEOMETRY
 10
75.558984
 20
-1613.298062
 40
0.820619
 50
123.690068
 51
129.007473
  0
ARC
  8
APS_GEOMETRY
 10
74.93516
 20
-1612.359418
 40
0.30642
 50
303.388514
 51
319.02199
  0
ARC
  8
APS_GEOMETRY
 10
75.018086
 20
-1612.431449
 40
0.196579
 50
319.02199
 51
338.574706
  0
ARC
  8
APS_GEOMETRY
 10
74.907111
 20
-1612.387902
 40
0.315792
 50
338.574706
 51
351.048929
  0
ARC
  8
APS_GEOMETRY
 10
73.566807
 20
-1612.176792
 40
1.67262
 50
351.048929
 51
356.460441
  0
ARC
  8
APS_GEOMETRY
 10
74.008608
 20
-1612.193603
 40
1.230668
 50
355.971736
 51
358.680054
  0
ARC
  8
APS_GEOMETRY
 10
59.499061
 20
-1611.859281
 40
15.744066
 50
358.680054
 51
359.437191
  0
LINE
  8
APS_GEOMETRY
 10
75.242368
 11
75.243901
 20
-1612.013931
 21
-1611.768348
  0
LINE
  8
APS_GEOMETRY
 10
75.243901
 11
75.244412
 20
-1611.768348
 21
-1611.447751
  0
ARC
  8
APS_GEOMETRY
 10
71.45395
 20
-1611.447751
 40
3.790462
 50
360.0
 51
1.717132
  0
ARC
  8
APS_GEOMETRY
 10
73.482375
 20
-1611.386942
 40
1.761125
 50
1.717132
 51
4.236395
  0
ARC
  8
APS_GEOMETRY
 10
74.143837
 20
-1611.337945
 40
1.097851
 50
4.236395
 51
8.268833
  0
ARC
  8
APS_GEOMETRY
 10
74.905021
 20
-1611.227323
 40
0.328671
 50
8.268833
 51
15.642246
  0
ARC
  8
APS_GEOMETRY
 10
75.03602
 20
-1611.190643
 40
0.192634
 50
15.642246
 51
39.417394
  0
ARC
  8
APS_GEOMETRY
 10
75.038966
 20
-1611.188222
 40
0.188821
 50
39.417394
 51
63.434949
  0
ARC
  8
APS_GEOMETRY
 10
75.379033
 20
-1610.483743
 40
0.593467
 50
236.873849
 51
244.48613
  0
ARC
  8
APS_GEOMETRY
 10
75.126059
 20
-1610.871417
 40
0.130556
 50
220.601295
 51
236.873849
  0
ARC
  8
APS_GEOMETRY
 10
75.097043
 20
-1610.896287
 40
0.09234
 50
198.245855
 51
220.601295
  0
ARC
  8
APS_GEOMETRY
 10
75.140439
 20
-1610.881981
 40
0.138033
 50
180.0
 51
198.245855
  0
ARC
  8
APS_GEOMETRY
 10
75.139785
 20
-1610.881981
 40
0.137379
 50
156.16126
 51
180.0
  0
ARC
  8
APS_GEOMETRY
 10
75.158946
 20
-1610.890447
 40
0.158327
 50
133.97697
 51
156.16126
  0
ARC
  8
APS_GEOMETRY
 10
75.197118
 20
-1610.930008
 40
0.213302
 50
116.995838
 51
133.97697
  0
ARC
  8
APS_GEOMETRY
 10
75.27296
 20
-1611.078883
 40
0.380382
 50
104.300277
 51
116.995838
  0
ARC
  8
APS_GEOMETRY
 10
75.292559
 20
-1611.154183
 40
0.458189
 50
95.325741
 51
104.349332
  0
ARC
  8
APS_GEOMETRY
 10
75.371955
 20
-1612.005886
 40
1.313585
 50
90.0
 51
95.325741
  0
ARC
  8
APS_GEOMETRY
 10
75.371955
 20
-1611.342949
 40
0.650648
 50
87.552951
 51
90.0
  0
ARC
  8
APS_GEOMETRY
 10
75.23352
 20
-1614.582327
 40
3.892983
 50
86.552613
 51
87.552951
  0
ARC
  8
APS_GEOMETRY
 10
75.036693
 20
-1617.849663
 40
7.166242
 50
86.009087
 51
86.552613
  0
ARC
  8
APS_GEOMETRY
 10
74.271298
 20
-1628.820326
 40
18.163573
 50
85.667686
 51
86.009087
  0
ARC
  8
APS_GEOMETRY
 10
75.703703
 20
-1609.954792
 40
0.756269
 50
265.426079
 51
268.531199
  0
ARC
  8
APS_GEOMETRY
 10
75.770938
 20
-1607.332636
 40
3.379287
 50
268.531199
 51
270.0
  0
ARC
  8
APS_GEOMETRY
 10
75.770938
 20
-1608.136391
 40
2.575532
 50
270.0
 51
271.636577
  0
ARC
  8
APS_GEOMETRY
 10
75.713389
 20
-1606.122164
 40
4.590581
 50
271.636577
 51
272.862405
  0
ARC
  8
APS_GEOMETRY
 10
75.647315
 20
-1604.800685
 40
5.91371
 50
272.862405
 51
273.814075
  0
ARC
  8
APS_GEOMETRY
 10
75.423635
 20
-1601.445492
 40
9.276351
 50
273.814075
 51
274.573921
  0
ARC
  8
APS_GEOMETRY
 10
76.826739
 20
-1619.695032
 40
9.027138
 50
93.719877
 51
94.214179
  0
ARC
  8
APS_GEOMETRY
 10
76.527284
 20
-1615.089131
 40
4.411512
 50
93.012788
 51
93.719877
  0
ARC
  8
APS_GEOMETRY
 10
76.44519
 20
-1613.529337
 40
2.84956
 50
91.91828
 51
93.012788
  0
ARC
  8
APS_GEOMETRY
 10
76.380858
 20
-1611.608577
 40
0.927723
 50
90.0
 51
91.91828
  0
ARC
  8
APS_GEOMETRY
 10
76.380858
 20
-1611.886283
 40
1.205429
 50
73.820397
 51
90.0
  0
ARC
  8
APS_GEOMETRY
 10
76.499665
 20
-1611.476804
 40
0.779062
 50
53.657551
 51
73.820397
  0
ARC
  8
APS_GEOMETRY
 10
76.668652
 20
-1611.24583
 40
0.492872
 50
26.029592
 51
53.569142
  0
ARC
  8
APS_GEOMETRY
 10
76.6168
 20
-1611.271153
 40
0.550577
 50
0.0
 51
26.029592
  0
ARC
  8
APS_GEOMETRY
 10
76.595226
 20
-1611.271153
 40
0.572151
 50
345.281696
 51
0.0
  0
ARC
  8
APS_GEOMETRY
 10
76.650264
 20
-1611.28561
 40
0.515245
 50
329.767161
 51
345.281696
  0
ARC
  8
APS_GEOMETRY
 10
76.681446
 20
-1611.303783
 40
0.479155
 50
313.168137
 51
329.767161
  0
ARC
  8
APS_GEOMETRY
 10
76.692993
 20
-1611.316092
 40
0.462277
 50
296.266638
 51
313.168137
  0
ARC
  8
APS_GEOMETRY
 10
76.95615
 20
-1611.847791
 40
0.130982
 50
116.565051
 51
139.899092
  0
ARC
  8
APS_GEOMETRY
 10
76.890817
 20
-1611.792773
 40
0.045569
 50
139.899092
 51
180.0
  0
ARC
  8
APS_GEOMETRY
 10
76.895883
 20
-1611.792773
 40
0.050635
 50
180.0
 51
226.193489
  0
ARC
  8
APS_GEOMETRY
 10
76.989429
 20
-1611.695246
 40
0.185774
 50
226.193489
 51
249.829347
  0
ARC
  8
APS_GEOMETRY
 10
76.721372
 20
-1612.433308
 40
0.59946
 50
53.249344
 51
70.104569
  0
ARC
  8
APS_GEOMETRY
 10
76.843136
 20
-1612.27025
 40
0.395955
 50
32.471192
 51
53.249344
  0
ARC
  8
APS_GEOMETRY
 10
76.786385
 20
-1612.306364
 40
0.463222
 50
23.304891
 51
32.471192
  0
ARC
  8
APS_GEOMETRY
 10
76.43588
 20
-1612.457351
 40
0.844864
 50
16.520892
 51
23.304891
  0
ARC
  8
APS_GEOMETRY
 10
76.162604
 20
-1612.538407
 40
1.129908
 50
11.429216
 51
16.520892
  0
ARC
  8
APS_GEOMETRY
 10
75.388111
 20
-1612.694983
 40
1.92007
 50
7.52382
 51
11.429216
  0
ARC
  8
APS_GEOMETRY
 10
77.954521
 20
-1612.353181
 40
0.669005
 50
187.765166
 51
196.914179
  0
ARC
  8
APS_GEOMETRY
 10
77.407359
 20
-1612.51957
 40
0.097104
 50
196.914179
 51
221.081751
  0
ARC
  8
APS_GEOMETRY
 10
77.409445
 20
-1612.517751
 40
0.099872
 50
221.081751
 51
244.607077
  0
ARC
  8
APS_GEOMETRY
 10
77.643115
 20
-1612.025487
 40
0.64478
 50
244.607077
 51
253.810794
  0
ARC
  8
APS_GEOMETRY
 10
77.437674
 20
-1612.725985
 40
0.085243
 50
51.449535
 51
72.474432
  0
ARC
  8
APS_GEOMETRY
 10
77.416582
 20
-1612.752454
 40
0.119088
 50
33.690068
 51
51.449535
  0
ARC
  8
APS_GEOMETRY
 10
77.411649
 20
-1612.755743
 40
0.125016
 50
16.638806
 51
33.690068
  0
ARC
  8
APS_GEOMETRY
 10
77.405681
 20
-1612.757526
 40
0.131245
 50
360.0
 51
16.638806
  0
ARC
  8
APS_GEOMETRY
 10
77.40385
 20
-1612.757526
 40
0.133076
 50
338.993211
 51
360.0
  0
ARC
  8
APS_GEOMETRY
 10
77.322593
 20
-1612.726324
 40
0.220118
 50
322.696052
 51
338.993211
  0
ARC
  8
APS_GEOMETRY
 10
77.292318
 20
-1612.703257
 40
0.258179
 50
308.603415
 51
322.696052
  0
ARC
  8
APS_GEOMETRY
 10
77.271483
 20
-1612.67716
 40
0.291573
 50
295.346176
 51
308.603415
  0
ARC
  8
APS_GEOMETRY
 10
77.161923
 20
-1612.435851
 40
0.556571
 50
279.582945
 51
294.904769
  0
ARC
  8
APS_GEOMETRY
 10
77.018576
 20
-1611.586796
 40
1.417642
 50
270.0
 51
279.582945
  0
ARC
  8
APS_GEOMETRY
 10
77.018576
 20
-1611.970853
 40
1.033584
 50
261.247402
 51
270.0
  0
ARC
  8
APS_GEOMETRY
 10
76.952369
 20
-1612.400874
 40
0.598496
 50
249.737083
 51
261.247402
  0
ARC
  8
APS_GEOMETRY
 10
76.908848
 20
-1612.518761
 40
0.472832
 50
235.344857
 51
249.737083
  0
ARC
  8
APS_GEOMETRY
 10
76.853891
 20
-1612.598263
 40
0.376184
 50
219.198413
 51
235.344857
  0
ARC
  8
APS_GEOMETRY
 10
76.96954
 20
-1612.49965
 40
0.528143
 50
209.075569
 51
219.559668
  0
ARC
  8
APS_GEOMETRY
 10
77.236577
 20
-1612.351168
 40
0.833684
 50
200.735234
 51
209.075569
  0
ARC
  8
APS_GEOMETRY
 10
77.605054
 20
-1612.211673
 40
1.227682
 50
197.881035
 51
200.735234
  0
ARC
  8
APS_GEOMETRY
 10
79.119129
 20
-1611.723194
 40
2.818605
 50
195.997451
 51
197.881035
  0
ARC
  8
APS_GEOMETRY
 10
80.238226
 20
-1611.402352
 40
3.982786
 50
194.663974
 51
195.997451
  0
ARC
  8
APS_GEOMETRY
 10
83.337988
 20
-1610.591227
 40
7.186916
 50
193.671307
 51
194.663974
  0
ARC
  8
APS_GEOMETRY
 10
75.477464
 20
-1612.502249
 40
0.902575
 50
13.609732
 51
23.584501
  0
ARC
  8
APS_GEOMETRY
 10
76.068435
 20
-1612.24425
 40
0.257741
 50
23.584501
 51
42.31023
  0
ARC
  8
APS_GEOMETRY
 10
76.122036
 20
-1612.19546
 40
0.18526
 50
42.31023
 51
67.520566
  0
ARC
  8
APS_GEOMETRY
 10
76.079618
 20
-1612.29797
 40
0.2962
 50
67.520566
 51
87.397438
  0
LINE
  8
APS_GEOMETRY
 10
75.999862
 11
75.981875
 20
-1611.168137
 21
-1611.549132
  0
LINE
  8
APS_GEOMETRY
 10
75.981875
 11
75.981875
 20
-1611.549132
 21
-1611.555264
  0
LINE
  8
APS_GEOMETRY
 10
75.981875
 11
75.981875
 20
-1611.555264
 21
-1611.563849
  0
ARC
  8
APS_GEOMETRY
 10
76.24659
 20
-1611.563849
 40
0.264715
 50
180.0
 51
192.339087
  0
ARC
  8
APS_GEOMETRY
 10
76.036131
 20
-1611.609887
 40
0.049279
 50
192.339087
 51
221.185925
  0
ARC
  8
APS_GEOMETRY
 10
76.031112
 20
-1611.614278
 40
0.04261
 50
221.185925
 51
253.872424
  0
ARC
  8
APS_GEOMETRY
 10
76.066904
 20
-1611.490496
 40
0.171463
 50
253.872424
 51
270.0
  0
ARC
  8
APS_GEOMETRY
 10
76.066904
 20
-1611.263429
 40
0.39853
 50
270.0
 51
289.56871
  0
ARC
  8
APS_GEOMETRY
 10
76.139357
 20
-1611.467251
 40
0.182214
 50
289.56871
 51
318.680622
  0
ARC
  8
APS_GEOMETRY
 10
76.119759
 20
-1611.450022
 40
0.208308
 50
318.680622
 51
344.628325
  0
ARC
  8
APS_GEOMETRY
 10
75.754622
 20
-1611.349641
 40
0.586992
 50
344.628325
 51
0.0
  0
ARC
  8
APS_GEOMETRY
 10
75.928212
 20
-1611.349641
 40
0.413402
 50
0.0
 51
35.36883
  0
ARC
  8
APS_GEOMETRY
 10
76.117595
 20
-1611.215209
 40
0.181156
 50
35.36883
 51
90.0
  0
ARC
  8
APS_GEOMETRY
 10
76.117595
 20
-1611.217199
 40
0.183147
 50
90.0
 51
108.434949
  0
ARC
  8
APS_GEOMETRY
 10
76.081962
 20
-1611.1103
 40
0.070465
 50
108.434949
 51
138.366461
  0
ARC
  8
APS_GEOMETRY
 10
76.091526
 20
-1611.118801
 40
0.083261
 50
138.366461
 51
164.291362
  0
ARC
  8
APS_GEOMETRY
 10
76.315777
 20
-1611.181872
 40
0.316213
 50
164.291362
 51
177.510447
  0
LINE
  8
APS_GEOMETRY
 10
78.525553
 11
79.38729
 20
-1610.708653
 21
-1610.708653
  0
ARC
  8
APS_GEOMETRY
 10
79.34371
 20
-1609.47389
 40
1.235531
 50
272.021365
 51
278.440365
  0
ARC
  8
APS_GEOMETRY
 10
79.392347
 20
-1609.801662
 40
0.904171
 50
278.440365
 51
285.945396
  0
ARC
  8
APS_GEOMETRY
 10
79.758204
 20
-1611.111527
 40
0.455876
 50
98.583621
 51
104.931417
  0
ARC
  8
APS_GEOMETRY
 10
79.727406
 20
-1610.90749
 40
0.249528
 50
90.0
 51
98.583621
  0
ARC
  8
APS_GEOMETRY
 10
79.727406
 20
-1610.845547
 40
0.187585
 50
52.870717
 51
90.0
  0
ARC
  8
APS_GEOMETRY
 10
79.472976
 20
-1611.181606
 40
0.609095
 50
32.517511
 51
52.870717
  0
ARC
  8
APS_GEOMETRY
 10
79.271415
 20
-1611.310102
 40
0.84813
 50
17.208621
 51
32.517511
  0
ARC
  8
APS_GEOMETRY
 10
79.439408
 20
-1611.258071
 40
0.672264
 50
0.0
 51
17.208621
  0
ARC
  8
APS_GEOMETRY
 10
79.7758
 20
-1611.258071
 40
0.335872
 50
337.348108
 51
0.0
  0
ARC
  8
APS_GEOMETRY
 10
79.910796
 20
-1611.314408
 40
0.189592
 50
307.042475
 51
337.348108
  0
ARC
  8
APS_GEOMETRY
 10
79.887334
 20
-1611.282173
 40
0.229457
 50
287.185706
 51
306.869898
  0
ARC
  8
APS_GEOMETRY
 10
79.866396
 20
-1611.214474
 40
0.30032
 50
270.0
 51
287.185706
  0
ARC
  8
APS_GEOMETRY
 10
79.866396
 20
-1611.245119
 40
0.269674
 50
252.221439
 51
270.0
  0
ARC
  8
APS_GEOMETRY
 10
79.853842
 20
-1611.284272
 40
0.228559
 50
232.895765
 51
252.221439
  0
ARC
  8
APS_GEOMETRY
 10
79.902368
 20
-1611.220118
 40
0.308998
 50
218.299689
 51
232.895765
  0
ARC
  8
APS_GEOMETRY
 10
80.28138
 20
-1610.920796
 40
0.791951
 50
209.197486
 51
218.299689
  0
ARC
  8
APS_GEOMETRY
 10
78.353691
 20
-1611.965189
 40
1.400583
 50
28.024501
 51
32.699461
  0
ARC
  8
APS_GEOMETRY
 10
79.361497
 20
-1611.318203
 40
0.202976
 50
32.699461
 51
45.0
  0
ARC
  8
APS_GEOMETRY
 10
79.430212
 20
-1611.249488
 40
0.105798
 50
45.0
 51
67.557247
  0
ARC
  8
APS_GEOMETRY
 10
79.429804
 20
-1611.250475
 40
0.106866
 50
67.557247
 51
90.0
  0
ARC
  8
APS_GEOMETRY
 10
79.429804
 20
-1611.242048
 40
0.098439
 50
90.0
 51
120.801446
  0
ARC
  8
APS_GEOMETRY
 10
79.426478
 20
-1611.236469
 40
0.091943
 50
120.801446
 51
152.700428
  0
ARC
  8
APS_GEOMETRY
 10
79.499418
 20
-1611.274115
 40
0.174026
 50
152.700428
 51
171.085073
  0
ARC
  8
APS_GEOMETRY
 10
80.053864
 20
-1611.361087
 40
0.735252
 50
171.085073
 51
180.0
  0
LINE
  8
APS_GEOMETRY
 10
79.318612
 11
79.318612
 20
-1611.361087
 21
-1612.276785
  0
ARC
  8
APS_GEOMETRY
 10
80.289966
 20
-1612.276785
 40
0.971354
 50
180.0
 51
188.194263
  0
ARC
  8
APS_GEOMETRY
 10
79.564587
 20
-1612.381239
 40
0.238493
 50
188.194263
 51
204.775141
  0
ARC
  8
APS_GEOMETRY
 10
79.494114
 20
-1612.413766
 40
0.160875
 50
204.775141
 51
228.576334
  0
ARC
  8
APS_GEOMETRY
 10
79.56023
 20
-1612.338834
 40
0.260805
 50
228.576334
 51
247.217594
  0
ARC
  8
APS_GEOMETRY
 10
79.176785
 20
-1613.242442
 40
0.720796
 50
59.381395
 51
66.929588
  0
ARC
  8
APS_GEOMETRY
 10
79.459846
 20
-1612.764166
 40
0.165034
 50
43.567904
 51
59.381395
  0
ARC
  8
APS_GEOMETRY
 10
79.505126
 20
-1612.721095
 40
0.102541
 50
19.041231
 51
43.567904
  0
ARC
  8
APS_GEOMETRY
 10
79.442209
 20
-1612.74281
 40
0.1691
 50
0.0
 51
19.041231
  0
ARC
  8
APS_GEOMETRY
 10
79.473937
 20
-1612.74281
 40
0.137372
 50
317.65975
 51
0.0
  0
ARC
  8
APS_GEOMETRY
 10
79.347818
 20
-1612.627888
 40
0.307997
 50
289.746837
 51
317.65975
  0
ARC
  8
APS_GEOMETRY
 10
79.242195
 20
-1612.333653
 40
0.620616
 50
281.964396
 51
289.746837
  0
ARC
  8
APS_GEOMETRY
 10
79.095853
 20
-1611.643061
 40
1.326543
 50
276.643452
 51
281.964396
  0
ARC
  8
APS_GEOMETRY
 10
79.034264
 20
-1611.114268
 40
1.85891
 50
272.836113
 51
276.643452
  0
ARC
  8
APS_GEOMETRY
 10
78.960509
 20
-1609.625481
 40
3.349523
 50
270.0
 51
272.836113
  0
ARC
  8
APS_GEOMETRY
 10
78.960509
 20
-1608.702992
 40
4.272013
 50
267.283141
 51
270.0
  0
ARC
  8
APS_GEOMETRY
 10
78.870814
 20
-1610.593144
 40
2.379733
 50
263.64272
 51
267.283141
  0
ARC
  8
APS_GEOMETRY
 10
78.795701
 20
-1611.267332
 40
1.701374
 50
258.563267
 51
263.64272
  0
ARC
  8
APS_GEOMETRY
 10
78.616264
 20
-1612.154308
 40
0.79643
 50
251.136412
 51
258.563267
  0
ARC
  8
APS_GEOMETRY
 10
78.456058
 20
-1612.618944
 40
0.304954
 50
222.557585
 51
251.395035
  0
ARC
  8
APS_GEOMETRY
 10
78.337183
 20
-1612.728093
 40
0.143571
 50
180.0
 51
222.557585
  0
ARC
  8
APS_GEOMETRY
 10
78.3132
 20
-1612.728093
 40
0.119588
 50
150.642246
 51
180.0
  0
ARC
  8
APS_GEOMETRY
 10
78.322783
 20
-1612.733483
 40
0.130582
 50
122.574057
 51
150.642246
  0
ARC
  8
APS_GEOMETRY
 10
78.297435
 20
-1612.704364
 40
0.092571
 50
108.676702
 51
119.054604
  0
ARC
  8
APS_GEOMETRY
 10
79.453214
 20
-1616.123542
 40
3.70181
 50
107.037768
 51
108.676702
  0
ARC
  8
APS_GEOMETRY
 10
78.325494
 20
-1612.435367
 40
0.15494
 50
286.144339
 51
308.659808
  0
ARC
  8
APS_GEOMETRY
 10
78.350865
 20
-1612.467082
 40
0.114326
 50
308.659808
 51
334.932537
  0
ARC
  8
APS_GEOMETRY
 10
78.24763
 20
-1612.418795
 40
0.228296
 50
334.932537
 51
348.829022
  0
ARC
  8
APS_GEOMETRY
 10
76.956336
 20
-1612.163791
 40
1.544528
 50
348.829022
 51
354.160508
  0
ARC
  8
APS_GEOMETRY
 10
76.08354
 20
-1612.073826
 40
2.421948
 50
354.143986
 51
355.660291
  0
ARC
  8
APS_GEOMETRY
 10
72.214727
 20
-1611.780232
 40
6.301886
 50
355.660291
 51
356.600286
  0
ARC
  8
APS_GEOMETRY
 10
69.257275
 20
-1611.604542
 40
9.264551
 50
356.600286
 51
357.239747
  0
ARC
  8
APS_GEOMETRY
 10
60.86602
 20
-1611.199976
 40
17.665553
 50
357.239747
 51
357.702834
  0
ARC
  8
APS_GEOMETRY
 10
61.692035
 20
-1611.233111
 40
16.838874
 50
357.702834
 51
358.674384
  0
ARC
  8
APS_GEOMETRY
 10
69.483649
 20
-1611.413413
 40
9.045174
 50
358.674384
 51
0.0
  0
ARC
  8
APS_GEOMETRY
 10
77.18832
 20
-1611.413413
 40
1.340503
 50
360.0
 51
6.241914
  0
ARC
  8
APS_GEOMETRY
 10
78.254282
 20
-1611.296823
 40
0.268184
 50
6.241914
 51
20.224859
  0
ARC
  8
APS_GEOMETRY
 10
78.402021
 20
-1611.242393
 40
0.110737
 50
20.224859
 51
50.440332
  0
ARC
  8
APS_GEOMETRY
 10
78.430713
 20
-1611.207661
 40
0.065687
 50
50.440332
 51
90.0
  0
ARC
  8
APS_GEOMETRY
 10
78.430713
 20
-1611.23009
 40
0.088116
 50
90.0
 51
126.747471
  0
ARC
  8
APS_GEOMETRY
 10
78.555213
 20
-1611.396832
 40
0.29621
 50
126.747471
 51
146.546691
  0
ARC
  8
APS_GEOMETRY
 10
76.355827
 20
-1609.951185
 40
2.335747
 50
324.255019
 51
326.700579
  0
ARC
  8
APS_GEOMETRY
 10
77.286974
 20
-1610.621391
 40
1.188484
 50
320.826342
 51
324.255019
  0
ARC
  8
APS_GEOMETRY
 10
77.591302
 20
-1610.869362
 40
0.795922
 50
315.721571
 51
320.826342
  0
ARC
  8
APS_GEOMETRY
 10
77.941009
 20
-1611.21037
 40
0.307474
 50
307.504142
 51
315.721571
  0
ARC
  8
APS_GEOMETRY
 10
77.908745
 20
-1611.167305
 40
0.361282
 50
291.305784
 51
307.405357
  0
ARC
  8
APS_GEOMETRY
 10
77.964688
 20
-1611.310749
 40
0.207315
 50
270.0
 51
291.305784
  0
ARC
  8
APS_GEOMETRY
 10
77.964688
 20
-1611.324116
 40
0.193948
 50
245.531798
 51
270.0
  0
ARC
  8
APS_GEOMETRY
 10
77.963221
 20
-1611.32734
 40
0.190406
 50
220.833495
 51
245.531798
  0
ARC
  8
APS_GEOMETRY
 10
77.982877
 20
-1611.310353
 40
0.216385
 50
198.683699
 51
220.833495
  0
ARC
  8
APS_GEOMETRY
 10
78.064951
 20
-1611.282599
 40
0.303024
 50
180.0
 51
198.683699
  0
ARC
  8
APS_GEOMETRY
 10
78.257311
 20
-1611.282599
 40
0.495385
 50
168.407825
 51
180.0
  0
ARC
  8
APS_GEOMETRY
 10
78.574949
 20
-1611.347755
 40
0.819636
 50
159.401826
 51
168.407825
  0
ARC
  8
APS_GEOMETRY
 10
78.673108
 20
-1611.384647
 40
0.9245
 50
151.38954
 51
159.401826
  0
ARC
  8
APS_GEOMETRY
 10
78.652989
 20
-1611.373673
 40
0.901582
 50
143.275893
 51
151.38954
  0
ARC
  8
APS_GEOMETRY
 10
78.400509
 20
-1611.184876
 40
0.58632
 50
124.215702
 51
143.310277
  0
ARC
  8
APS_GEOMETRY
 10
78.175625
 20
-1610.854165
 40
0.186391
 50
90.0
 51
124.215702
  0
ARC
  8
APS_GEOMETRY
 10
78.175625
 20
-1610.936993
 40
0.26922
 50
82.724995
 51
90.0
  0
ARC
  8
APS_GEOMETRY
 10
78.154591
 20
-1611.101765
 40
0.435329
 50
77.005383
 51
82.724995
  0
ARC
  8
APS_GEOMETRY
 10
78.797009
 20
-1608.004436
 40
2.728046
 50
258.486169
 51
260.377772
  0
ARC
  8
APS_GEOMETRY
 10
78.521809
 20
-1609.627682
 40
1.081637
 50
260.377772
 51
263.382083
  0
ARC
  8
APS_GEOMETRY
 10
78.498271
 20
-1609.830563
 40
0.877395
 50
263.382083
 51
267.083862
  0
ARC
  8
APS_GEOMETRY
 10
78.525553
 20
-1609.295
 40
1.413652
 50
267.083862
 51
270.0
  0
LINE
  8
APS_GEOMETRY
 10
80.69641
 11
81.53689
 20
-1610.708653
 21
-1610.708653
  0
ARC
  8
APS_GEOMETRY
 10
81.53689
 20
-1600.122676
 40
10.585977
 50
270.0
 51
270.690277
  0
ARC
  8
APS_GEOMETRY
 10
81.596562
 20
-1605.075484
 40
5.63281
 50
270.690277
 51
271.636577
  0
ARC
  8
APS_GEOMETRY
 10
81.646839
 20
-1606.835175
 40
3.8724
 50
271.636577
 51
273.012788
  0
ARC
  8
APS_GEOMETRY
 10
81.769373
 20
-1609.163309
 40
1.541043
 50
273.012788
 51
275.194429
  0
ARC
  8
APS_GEOMETRY
 10
81.799742
 20
-1609.497375
 40
1.2056
 50
275.194429
 51
280.755985
  0
ARC
  8
APS_GEOMETRY
 10
81.805452
 20
-1609.527432
 40
1.175005
 50
280.755985
 51
286.38954
  0
ARC
  8
APS_GEOMETRY
 10
82.236135
 20
-1611.001668
 40
0.360861
 50
100.304846
 51
105.945396
  0
ARC
  8
APS_GEOMETRY
 10
82.19096
 20
-1610.753204
 40
0.108323
 50
90.0
 51
100.304846
  0
ARC
  8
APS_GEOMETRY
 10
82.19096
 20
-1610.791868
 40
0.146987
 50
58.945729
 51
90.0
  0
ARC
  8
APS_GEOMETRY
 10
82.134743
 20
-1610.885228
 40
0.255966
 50
35.537678
 51
58.945729
  0
ARC
  8
APS_GEOMETRY
 10
81.915307
 20
-1611.046668
 40
0.528377
 50
16.699244
 51
35.952428
  0
ARC
  8
APS_GEOMETRY
 10
81.750237
 20
-1611.096189
 40
0.700715
 50
0.0
 51
16.699244
  0
ARC
  8
APS_GEOMETRY
 10
82.057752
 20
-1611.096189
 40
0.393201
 50
344.981639
 51
0.0
  0
ARC
  8
APS_GEOMETRY
 10
82.246479
 20
-1611.146823
 40
0.197799
 50
323.746162
 51
344.981639
  0
ARC
  8
APS_GEOMETRY
 10
82.288424
 20
-1611.177583
 40
0.145784
 50
296.113913
 51
323.746162
  0
ARC
  8
APS_GEOMETRY
 10
82.280894
 20
-1611.162222
 40
0.162891
 50
270.0
 51
296.113913
  0
ARC
  8
APS_GEOMETRY
 10
82.280894
 20
-1611.120891
 40
0.204222
 50
255.311213
 51
270.0
  0
ARC
  8
APS_GEOMETRY
 10
82.253589
 20
-1611.225056
 40
0.096538
 50
233.880659
 51
255.311213
  0
ARC
  8
APS_GEOMETRY
 10
82.282329
 20
-1611.185672
 40
0.145293
 50
219.289407
 51
233.880659
  0
ARC
  8
APS_GEOMETRY
 10
82.858834
 20
-1610.713985
 40
0.890174
 50
213.407825
 51
219.289407
  0
ARC
  8
APS_GEOMETRY
 10
81.778776
 20
-1611.425402
 40
0.403133
 50
33.293563
 51
51.246316
  0
ARC
  8
APS_GEOMETRY
 10
81.833669
 20
-1611.357015
 40
0.31544
 50
51.246316
 51
71.565051
  0
ARC
  8
APS_GEOMETRY
 10
81.797377
 20
-1611.46589
 40
0.430204
 50
71.565051
 51
79.27849
  0
ARC
  8
APS_GEOMETRY
 10
81.680975
 20
-1612.080664
 40
1.055901
 50
79.27849
 51
84.199782
  0
ARC
  8
APS_GEOMETRY
 10
81.63131
 20
-1612.569595
 40
1.547349
 50
84.199782
 51
87.566799
  0
ARC
  8
APS_GEOMETRY
 10
81.571229
 20
-1613.983503
 40
2.962532
 50
87.566799
 51
90.0
  0
ARC
  8
APS_GEOMETRY
 10
81.571229
 20
-1611.853762
 40
0.832791
 50
90.0
 51
96.37446
  0
ARC
  8
APS_GEOMETRY
 10
81.51595
 20
-1611.358953
 40
0.334904
 50
96.37446
 51
106.434163
  0
ARC
  8
APS_GEOMETRY
 10
81.476668
 20
-1611.225778
 40
0.196056
 50
106.434163
 51
123.055823
  0
ARC
  8
APS_GEOMETRY
 10
81.415349
 20
-1611.131555
 40
0.083638
 50
123.055823
 51
148.626995
  0
ARC
  8
APS_GEOMETRY
 10
81.471362
 20
-1611.163308
 40
0.148007
 50
149.420773
 51
165.28034
  0
ARC
  8
APS_GEOMETRY
 10
81.632792
 20
-1611.205718
 40
0.314915
 50
165.28034
 51
176.134539
  0
ARC
  8
APS_GEOMETRY
 10
82.094923
 20
-1611.236943
 40
0.778099
 50
176.134539
 51
178.366533
  0
ARC
  8
APS_GEOMETRY
 10
86.370216
 20
-1611.358862
 40
5.05513
 50
178.366533
 51
179.242164
  0
ARC
  8
APS_GEOMETRY
 10
90.788645
 20
-1611.417307
 40
9.473945
 50
179.242164
 51
179.709456
  0
ARC
  8
APS_GEOMETRY
 10
105.821096
 20
-1611.493536
 40
24.50659
 50
179.709456
 51
180.0
  0
ARC
  8
APS_GEOMETRY
 10
81.669052
 20
-1611.493536
 40
0.354545
 50
180.0
 51
195.027109
  0
ARC
  8
APS_GEOMETRY
 10
81.379095
 20
-1611.571377
 40
0.054322
 50
195.027109
 51
234.057888
  0
ARC
  8
APS_GEOMETRY
 10
81.38192
 20
-1611.567481
 40
0.059134
 50
234.057888
 51
253.191308
  0
ARC
  8
APS_GEOMETRY
 10
81.443782
 20
-1611.362695
 40
0.273061
 50
253.191308
 51
262.062812
  0
ARC
  8
APS_GEOMETRY
 10
81.475468
 20
-1611.13543
 40
0.502523
 50
262.062812
 51
266.948518
  0
ARC
  8
APS_GEOMETRY
 10
81.517268
 20
-1610.351325
 40
1.287742
 50
266.948518
 51
270.0
  0
ARC
  8
APS_GEOMETRY
 10
81.517268
 20
-1611.402979
 40
0.236088
 50
270.0
 51
286.007404
  0
ARC
  8
APS_GEOMETRY
 10
81.558592
 20
-1611.547022
 40
0.086235
 50
286.007404
 51
312.646703
  0
ARC
  8
APS_GEOMETRY
 10
81.557725
 20
-1611.546081
 40
0.087514
 50
312.646703
 51
338.993211
  0
ARC
  8
APS_GEOMETRY
 10
81.378985
 20
-1611.477445
 40
0.278979
 50
338.993211
 51
353.659808
  0
ARC
  8
APS_GEOMETRY
 10
83.224946
 20
-1611.697577
 40
1.580071
 50
169.663446
 51
173.118276
  0
ARC
  8
APS_GEOMETRY
 10
81.905459
 20
-1611.456916
 40
0.238817
 50
160.769328
 51
169.663446
  0
ARC
  8
APS_GEOMETRY
 10
81.795096
 20
-1611.418417
 40
0.121932
 50
143.746162
 51
160.769328
  0
ARC
  8
APS_GEOMETRY
 10
81.821765
 20
-1611.437975
 40
0.155004
 50
128.659808
 51
143.746162
  0
ARC
  8
APS_GEOMETRY
 10
81.803983
 20
-1611.409161
 40
0.121465
 50
110.170653
 51
130.601295
  0
ARC
  8
APS_GEOMETRY
 10
81.805059
 20
-1611.412087
 40
0.124583
 50
90.0
 51
110.170653
  0
ARC
  8
APS_GEOMETRY
 10
81.805059
 20
-1611.41386
 40
0.126356
 50
61.220194
 51
90.0
  0
ARC
  8
APS_GEOMETRY
 10
81.783009
 20
-1611.454
 40
0.172153
 50
36.634114
 51
61.220194
  0
ARC
  8
APS_GEOMETRY
 10
81.762302
 20
-1611.466308
 40
0.19613
 50
19.103091
 51
35.909723
  0
ARC
  8
APS_GEOMETRY
 10
81.122546
 20
-1611.687882
 40
0.87317
 50
11.159944
 51
19.103091
  0
ARC
  8
APS_GEOMETRY
 10
80.788296
 20
-1611.753823
 40
1.213862
 50
5.396292
 51
11.159944
  0
ARC
  8
APS_GEOMETRY
 10
80.618301
 20
-1611.769881
 40
1.384613
 50
0.0
 51
5.396292
  0
ARC
  8
APS_GEOMETRY
 10
80.642397
 20
-1611.769881
 40
1.360518
 50
349.286877
 51
0.0
  0
ARC
  8
APS_GEOMETRY
 10
81.310297
 20
-1611.89624
 40
0.68077
 50
334.119726
 51
349.286877
  0
ARC
  8
APS_GEOMETRY
 10
81.770388
 20
-1612.118575
 40
0.169777
 50
303.53047
 51
333.853159
  0
ARC
  8
APS_GEOMETRY
 10
81.787072
 20
-1612.143752
 40
0.139574
 50
270.0
 51
303.53047
  0
ARC
  8
APS_GEOMETRY
 10
81.787072
 20
-1612.13723
 40
0.146096
 50
249.577667
 51
270.0
  0
ARC
  8
APS_GEOMETRY
 10
81.755989
 20
-1612.220709
 40
0.057018
 50
216.607075
 51
249.577667
  0
ARC
  8
APS_GEOMETRY
 10
81.785705
 20
-1612.198634
 40
0.094036
 50
195.422161
 51
216.607075
  0
ARC
  8
APS_GEOMETRY
 10
82.298823
 20
-1612.057084
 40
0.62632
 50
187.253195
 51
195.422161
  0
ARC
  8
APS_GEOMETRY
 10
81.470182
 20
-1612.163682
 40
0.209152
 50
7.561428
 51
49.434471
  0
ARC
  8
APS_GEOMETRY
 10
81.461672
 20
-1612.173623
 40
0.222238
 50
49.434471
 51
90.0
  0
ARC
  8
APS_GEOMETRY
 10
81.461672
 20
-1612.100924
 40
0.149538
 50
90.0
 51
115.223923
  0
ARC
  8
APS_GEOMETRY
 10
81.432096
 20
-1612.038139
 40
0.080136
 50
115.223923
 51
149.931417
  0
ARC
  8
APS_GEOMETRY
 10
81.485564
 20
-1612.069094
 40
0.141919
 50
149.931417
 51
171.111058
  0
ARC
  8
APS_GEOMETRY
 10
82.133938
 20
-1612.170499
 40
0.798174
 50
171.111058
 51
180.0
  0
ARC
  8
APS_GEOMETRY
 10
82.772709
 20
-1612.170499
 40
1.436945
 50
180.0
 51
183.062287
  0
ARC
  8
APS_GEOMETRY
 10
84.97209
 20
-1612.052836
 40
3.639471
 50
183.062287
 51
184.986334
  0
ARC
  8
APS_GEOMETRY
 10
83.81846
 20
-1612.153488
 40
2.481459
 50
184.986334
 51
187.804099
  0
ARC
  8
APS_GEOMETRY
 10
81.633407
 20
-1612.452963
 40
0.275979
 50
187.804099
 51
196.260205
  0
ARC
  8
APS_GEOMETRY
 10
81.440717
 20
-1612.51097
 40
0.074775
 50
194.931417
 51
230.024075
  0
ARC
  8
APS_GEOMETRY
 10
81.489762
 20
-1612.452471
 40
0.151114
 50
230.024075
 51
254.511499
  0
ARC
  8
APS_GEOMETRY
 10
81.549344
 20
-1612.237457
 40
0.37423
 50
254.511499
 51
265.219116
  0
ARC
  8
APS_GEOMETRY
 10
81.674245
 20
-1610.744084
 40
1.872817
 50
265.219116
 51
270.0
  0
ARC
  8
APS_GEOMETRY
 10
81.674245
 20
-1610.942073
 40
1.674829
 50
270.0
 51
274.186237
  0
ARC
  8
APS_GEOMETRY
 10
81.725175
 20
-1611.637905
 40
0.977134
 50
274.186237
 51
279.667756
  0
ARC
  8
APS_GEOMETRY
 10
81.766979
 20
-1611.883298
 40
0.728207
 50
279.667756
 51
286.990823
  0
ARC
  8
APS_GEOMETRY
 10
81.86262
 20
-1612.196304
 40
0.400914
 50
286.990823
 51
296.865814
  0
ARC
  8
APS_GEOMETRY
 10
81.882488
 20
-1612.235525
 40
0.356948
 50
296.865814
 51
318.366461
  0
ARC
  8
APS_GEOMETRY
 10
81.682539
 20
-1612.057793
 40
0.624471
 50
318.366461
 51
334.580712
  0
ARC
  8
APS_GEOMETRY
 10
82.999008
 20
-1612.689093
 40
0.835546
 50
147.079531
 51
154.230672
  0
ARC
  8
APS_GEOMETRY
 10
82.448686
 20
-1612.332795
 40
0.179952
 50
131.633539
 51
147.079531
  0
ARC
  8
APS_GEOMETRY
 10
82.40766
 20
-1612.28664
 40
0.1182
 50
108.87455
 51
131.633539
  0
ARC
  8
APS_GEOMETRY
 10
82.42479
 20
-1612.336745
 40
0.171152
 50
90.0
 51
108.87455
  0
ARC
  8
APS_GEOMETRY
 10
82.42479
 20
-1612.301965
 40
0.136372
 50
62.628019
 51
90.0
  0
ARC
  8
APS_GEOMETRY
 10
82.41616
 20
-1612.318633
 40
0.155142
 50
36.995271
 51
62.628019
  0
ARC
  8
APS_GEOMETRY
 10
82.377493
 20
-1612.347766
 40
0.203555
 50
16.727964
 51
36.995271
  0
ARC
  8
APS_GEOMETRY
 10
82.287226
 20
-1612.374895
 40
0.297811
 50
360.0
 51
16.727964
  0
ARC
  8
APS_GEOMETRY
 10
82.108434
 20
-1612.374895
 40
0.476602
 50
348.323262
 51
360.0
  0
ARC
  8
APS_GEOMETRY
 10
81.392984
 20
-1612.227036
 40
1.207172
 50
340.994016
 51
348.323262
  0
ARC
  8
APS_GEOMETRY
 10
81.22329
 20
-1612.168585
 40
1.386651
 50
334.592282
 51
340.994016
  0
ARC
  8
APS_GEOMETRY
 10
81.519483
 20
-1612.309277
 40
1.058741
 50
327.264774
 51
334.592282
  0
ARC
  8
APS_GEOMETRY
 10
81.86349
 20
-1612.512052
 40
0.659898
 50
320.132554
 51
325.922805
  0
ARC
  8
APS_GEOMETRY
 10
82.26363
 20
-1612.846235
 40
0.138564
 50
307.47618
 51
320.132554
  0
ARC
  8
APS_GEOMETRY
 10
82.298679
 20
-1612.891951
 40
0.080958
 50
286.429301
 51
307.47618
  0
ARC
  8
APS_GEOMETRY
 10
82.284165
 20
-1612.842728
 40
0.132277
 50
270.0
 51
286.429301
  0
ARC
  8
APS_GEOMETRY
 10
82.284165
 20
-1612.689806
 40
0.285199
 50
263.774171
 51
270.0
  0
ARC
  8
APS_GEOMETRY
 10
82.367602
 20
-1611.924959
 40
1.054583
 50
260.537678
 51
263.774171
  0
ARC
  8
APS_GEOMETRY
 10
81.994155
 20
-1614.032261
 40
1.085663
 50
79.380345
 51
84.986886
  0
ARC
  8
APS_GEOMETRY
 10
81.832266
 20
-1615.877797
 40
2.938285
 50
84.986886
 51
88.393997
  0
LINE
  8
APS_GEOMETRY
 10
81.914615
 11
80.527987
 20
-1612.940666
 21
-1612.940666
  0
ARC
  8
APS_GEOMETRY
 10
80.527987
 20
-1612.650479
 40
0.290187
 50
254.10251
 51
270.0
  0
ARC
  8
APS_GEOMETRY
 10
80.487117
 20
-1612.793979
 40
0.14098
 50
231.215636
 51
254.10251
  0
ARC
  8
APS_GEOMETRY
 10
80.470336
 20
-1612.814863
 40
0.114189
 50
203.794835
 51
231.215636
  0
ARC
  8
APS_GEOMETRY
 10
80.50395
 20
-1612.800041
 40
0.150926
 50
180.0
 51
203.794835
  0
ARC
  8
APS_GEOMETRY
 10
80.516674
 20
-1612.800041
 40
0.16365
 50
164.054604
 51
180.0
  0
ARC
  8
APS_GEOMETRY
 10
80.415834
 20
-1612.771229
 40
0.058775
 50
137.29061
 51
164.054604
  0
ARC
  8
APS_GEOMETRY
 10
80.446179
 20
-1612.799241
 40
0.100073
 50
120.963757
 51
137.29061
  0
ARC
  8
APS_GEOMETRY
 10
80.771214
 20
-1613.340964
 40
0.731826
 50
114.943905
 51
120.963757
  0
ARC
  8
APS_GEOMETRY
 10
80.365452
 20
-1612.45326
 40
0.244283
 50
293.428693
 51
305.719954
  0
ARC
  8
APS_GEOMETRY
 10
80.432645
 20
-1612.5467
 40
0.129191
 50
305.719954
 51
322.650651
  0
ARC
  8
APS_GEOMETRY
 10
80.422219
 20
-1612.538743
 40
0.142307
 50
322.650651
 51
338.110443
  0
ARC
  8
APS_GEOMETRY
 10
80.219325
 20
-1612.457224
 40
0.360965
 50
338.110443
 51
347.799531
  0
ARC
  8
APS_GEOMETRY
 10
78.959303
 20
-1612.181034
 40
1.6509
 50
347.672229
 51
352.050998
  0
ARC
  8
APS_GEOMETRY
 10
77.739661
 20
-1612.010731
 40
2.882374
 50
352.050998
 51
355.364537
  0
ARC
  8
APS_GEOMETRY
 10
76.918311
 20
-1611.944135
 40
3.70642
 50
355.364537
 51
357.943473
  0
ARC
  8
APS_GEOMETRY
 10
74.797822
 20
-1611.867991
 40
5.828275
 50
357.943473
 51
0.0
  0
ARC
  8
APS_GEOMETRY
 10
72.350209
 20
-1611.867991
 40
8.275888
 50
360.0
 51
2.183373
  0
ARC
  8
APS_GEOMETRY
 10
77.298958
 20
-1611.679318
 40
3.323545
 50
2.183373
 51
5.629042
  0
ARC
  8
APS_GEOMETRY
 10
78.773157
 20
-1611.534017
 40
1.842202
 50
5.629042
 51
11.804813
  0
ARC
  8
APS_GEOMETRY
 10
80.203956
 20
-1611.234982
 40
0.380489
 50
11.804813
 51
25.419288
  0
ARC
  8
APS_GEOMETRY
 10
80.389132
 20
-1611.1509
 40
0.177183
 50
26.565051
 51
38.157227
  0
ARC
  8
APS_GEOMETRY
 10
80.471356
 20
-1611.086295
 40
0.072614
 50
38.157227
 51
56.309932
  0
ARC
  8
APS_GEOMETRY
 10
80.45397
 20
-1611.112374
 40
0.103958
 50
56.309932
 51
69.193209
  0
ARC
  8
APS_GEOMETRY
 10
80.209977
 20
-1611.754461
 40
0.790841
 50
69.193209
 51
73.855661
  0
ARC
  8
APS_GEOMETRY
 10
80.467365
 20
-1610.869112
 40
0.131168
 50
216.869898
 51
253.393019
  0
ARC
  8
APS_GEOMETRY
 10
80.465468
 20
-1610.870535
 40
0.128796
 50
180.0
 51
216.869898
  0
ARC
  8
APS_GEOMETRY
 10
80.493563
 20
-1610.870535
 40
0.156891
 50
161.565051
 51
180.0
  0
ARC
  8
APS_GEOMETRY
 10
80.48789
 20
-1610.868644
 40
0.150911
 50
142.765166
 51
161.565051
  0
ARC
  8
APS_GEOMETRY
 10
80.484281
 20
-1610.865901
 40
0.146378
 50
123.424811
 51
142.765166
  0
ARC
  8
APS_GEOMETRY
 10
80.487566
 20
-1610.870878
 40
0.152341
 50
104.470294
 51
123.424811
  0
ARC
  8
APS_GEOMETRY
 10
80.516563
 20
-1611.013981
 40
0.29825
 50
96.724353
 51
102.994617
  0
ARC
  8
APS_GEOMETRY
 10
80.606614
 20
-1611.777748
 40
1.067307
 50
93.410945
 51
96.724353
  0
ARC
  8
APS_GEOMETRY
 10
80.64661
 20
-1612.448789
 40
1.739539
 50
91.374835
 51
93.410945
  0
ARC
  8
APS_GEOMETRY
 10
80.69641
 20
-1614.523795
 40
3.815143
 50
90.0
 51
91.374835
  0
LINE
  8
COSTRUZIONI
 10
37.019035
 11
237.019035
 20
-1627.170128
 21
-1627.170128
  0
LINE
  8
COSTRUZIONI
 10
237.019035
 11
237.019035
 20
-1627.170128
 21
-1607.170128
  0
LINE
  8
COSTRUZIONI
 10
237.019035
 11
37.019035
 20
-1607.170128
 21
-1607.170128
  0
LINE
  8
COSTRUZIONI
 10
37.019035
 11
37.019035
 20
-1607.170128
 21
-1627.170128
  0
LINE
  8
COSTRUZIONI
 10
83.604157
 11
83.604157
 20
-1627.170128
 21
-1607.170128
  0
LINE
  8
COSTRUZIONI
 10
217.129822
 11
217.129822
 20
-1627.170128
 21
-1607.170128
  0
LINE
  8
COSTRUZIONI
 10
237.019035
 11
83.604157
 20
-1612.170128
 21
-1612.170128
  0
LINE
  8
COSTRUZIONI
 10
217.129822
 11
237.019035
 20
-1622.170128
 21
-1622.170128
  0
LINE
  8
COSTRUZIONI
 10
83.604157
 11
237.019035
 20
-1617.170128
 21
-1617.170128
  0
LINE
  8
COSTRUZIONI
 10
186.448904
 11
186.448904
 20
-1617.170128
 21
-1612.170128
  0
LINE
  8
COSTRUZIONI
 10
136.941058
 11
136.941058
 20
-1617.170128
 21
-1612.170128
  0
LINE
  8
QUOTATURA
 10
-280.954833
 11
-280.954833
 20
-1514.412973
 21
-1524.148851
  0
LINE
  8
QUOTATURA
 10
-264.954833
 11
-264.954833
 20
-1514.412973
 21
-1524.148851
  0
LINE
  8
QUOTATURA
 10
-280.954833
 11
-274.71435
 20
-1523.148851
 21
-1523.148851
  0
LINE
  8
QUOTATURA
 10
-271.195317
 11
-264.954833
 20
-1523.148851
 21
-1523.148851
  0
LINE
  8
QUOTATURA
 10
-278.954833
 11
-280.954833
 20
-1523.482251
 21
-1523.148851
  0
LINE
  8
QUOTATURA
 10
-280.954833
 11
-278.954833
 20
-1523.148851
 21
-1522.815451
  0
LINE
  8
QUOTATURA
 10
-278.954833
 11
-278.954833
 20
-1522.815451
 21
-1523.482251
  0
LINE
  8
QUOTATURA
 10
-266.954833
 11
-264.954833
 20
-1522.815451
 21
-1523.148851
  0
LINE
  8
QUOTATURA
 10
-264.954833
 11
-266.954833
 20
-1523.148851
 21
-1523.482251
  0
LINE
  8
QUOTATURA
 10
-266.954833
 11
-266.954833
 20
-1523.482251
 21
-1522.815451
  0
LINE
  8
QUOTATURA
 10
-264.954833
 11
-264.954833
 20
-1511.412973
 21
-1533.274328
  0
LINE
  8
QUOTATURA
 10
-290.883037
 11
-290.883037
 20
-1495.412973
 21
-1533.274328
  0
LINE
  8
QUOTATURA
 10
-264.954833
 11
-273.697968
 20
-1532.274328
 21
-1532.274328
  0
LINE
  8
QUOTATURA
 10
-282.139902
 11
-290.883037
 20
-1532.274328
 21
-1532.274328
  0
LINE
  8
QUOTATURA
 10
-266.954833
 11
-264.954833
 20
-1531.940928
 21
-1532.274328
  0
LINE
  8
QUOTATURA
 10
-264.954833
 11
-266.954833
 20
-1532.274328
 21
-1532.607728
  0
LINE
  8
QUOTATURA
 10
-266.954833
 11
-266.954833
 20
-1532.607728
 21
-1531.940928
  0
LINE
  8
QUOTATURA
 10
-288.883037
 11
-290.883037
 20
-1532.607728
 21
-1532.274328
  0
LINE
  8
QUOTATURA
 10
-290.883037
 11
-288.883037
 20
-1532.274328
 21
-1531.940928
  0
LINE
  8
QUOTATURA
 10
-288.883037
 11
-288.883037
 20
-1531.940928
 21
-1532.607728
  0
LINE
  8
QUOTATURA
 10
-264.954833
 11
-264.954833
 20
-1509.412973
 21
-1475.455377
  0
LINE
  8
QUOTATURA
 10
-283.454833
 11
-283.454833
 20
-1489.912973
 21
-1475.455377
  0
LINE
  8
QUOTATURA
 10
-264.954833
 11
-271.212122
 20
-1476.455377
 21
-1476.455377
  0
LINE
  8
QUOTATURA
 10
-277.197545
 11
-283.454833
 20
-1476.455377
 21
-1476.455377
  0
LINE
  8
QUOTATURA
 10
-266.954833
 11
-264.954833
 20
-1476.121977
 21
-1476.455377
  0
LINE
  8
QUOTATURA
 10
-264.954833
 11
-266.954833
 20
-1476.455377
 21
-1476.788777
  0
LINE
  8
QUOTATURA
 10
-266.954833
 11
-266.954833
 20
-1476.788777
 21
-1476.121977
  0
LINE
  8
QUOTATURA
 10
-281.454833
 11
-283.454833
 20
-1476.788777
 21
-1476.455377
  0
LINE
  8
QUOTATURA
 10
-283.454833
 11
-281.454833
 20
-1476.455377
 21
-1476.121977
  0
LINE
  8
QUOTATURA
 10
-281.454833
 11
-281.454833
 20
-1476.121977
 21
-1476.788777
  0
LINE
  8
APS_GEOMETRY
 10
-138.644951
 11
-139.617805
 20
-1406.370783
 21
-1406.370783
  0
ARC
  8
APS_GEOMETRY
 10
-139.617805
 20
-1408.370783
 40
2.0
 50
90.0
 51
180.0
  0
LINE
  8
APS_GEOMETRY
 10
-141.617805
 11
-141.617805
 20
-1408.370783
 21
-1409.370783
  0
LINE
  8
APS_GEOMETRY
 10
-141.617805
 11
-137.617805
 20
-1409.370783
 21
-1409.370783
  0
LINE
  8
APS_GEOMETRY
 10
-137.617805
 11
-137.617805
 20
-1409.370783
 21
-1428.870783
  0
LINE
  8
APS_GEOMETRY
 10
-137.617805
 11
-116.617805
 20
-1428.870783
 21
-1428.870783
  0
LINE
  8
APS_GEOMETRY
 10
-116.617805
 11
-116.617805
 20
-1428.870783
 21
-1416.774844
  0
ARC
  8
APS_GEOMETRY
 10
-118.617805
 20
-1416.774844
 40
2.0
 50
0.0
 51
90.0
  0
LINE
  8
APS_GEOMETRY
 10
-118.617805
 11
-120.430403
 20
-1414.774844
 21
-1414.774844
  0
LINE
  8
APS_GEOMETRY
 10
-120.430403
 11
-120.430403
 20
-1414.774844
 21
-1412.443295
  0
ARC
  8
APS_GEOMETRY
 10
-121.430403
 20
-1412.443295
 40
1.0
 50
0.0
 51
75.340429
  0
ARC
  8
APS_GEOMETRY
 10
-119.349932
 20
-1404.490153
 40
7.220756
 50
195.096637
 51
255.340429
  0
ARC
  8
APS_GEOMETRY
 10
-131.874328
 20
-1408.731737
 40
6.033918
 50
23.034196
 51
147.124331
  0
ARC
  8
APS_GEOMETRY
 10
-138.621705
 20
-1404.370918
 40
2.0
 50
269.33403
 51
327.12894
  0
LINE
  8
APS_GEOMETRY
 10
224.408808
 11
173.949195
 20
-1462.660701
 21
-1462.660701
  0
LINE
  8
APS_GEOMETRY
 10
173.949195
 11
173.617809
 20
-1462.660701
 21
-1462.781316
  0
ARC
  8
APS_GEOMETRY
 10
174.301849
 20
-1464.660701
 40
2.0
 50
110.0
 51
180.0
  0
LINE
  8
APS_GEOMETRY
 10
172.301849
 11
172.301849
 20
-1464.660701
 21
-1465.660701
  0
ARC
  8
APS_GEOMETRY
 10
172.301849
 20
-1471.160701
 40
5.5
 50
90.0
 51
180.0
  0
LINE
  8
APS_GEOMETRY
 10
166.801849
 11
121.321482
 20
-1471.160701
 21
-1471.160701
  0
LINE
  8
APS_GEOMETRY
 10
109.321482
 11
47.03329
 20
-1462.660701
 21
-1462.660701
  0
LINE
  8
APS_GEOMETRY
 10
121.321482
 11
109.321482
 20
-1471.160701
 21
-1471.160701
  0
LINE
  8
APS_GEOMETRY
 10
109.321482
 11
109.321482
 20
-1471.160701
 21
-1462.660701
  0
LINE
  8
APS_GEOMETRY
 10
120.088388
 11
119.115535
 20
-1511.439798
 21
-1511.439798
  0
ARC
  8
APS_GEOMETRY
 10
119.115535
 20
-1513.439798
 40
2.0
 50
90.0
 51
180.0
  0
LINE
  8
APS_GEOMETRY
 10
117.115535
 11
117.115535
 20
-1513.439798
 21
-1513.639798
  0
LINE
  8
APS_GEOMETRY
 10
117.115535
 11
117.915535
 20
-1513.639798
 21
-1514.439798
  0
LINE
  8
APS_GEOMETRY
 10
117.915535
 11
121.115535
 20
-1514.439798
 21
-1514.439798
  0
LINE
  8
APS_GEOMETRY
 10
121.115535
 11
121.115535
 20
-1514.439798
 21
-1522.939798
  0
LINE
  8
APS_GEOMETRY
 10
121.115535
 11
141.315535
 20
-1522.939798
 21
-1522.939798
  0
LINE
  8
APS_GEOMETRY
 10
141.315535
 11
142.115535
 20
-1522.939798
 21
-1522.139798
  0
LINE
  8
APS_GEOMETRY
 10
142.115535
 11
142.115535
 20
-1522.139798
 21
-1521.843858
  0
ARC
  8
APS_GEOMETRY
 10
140.115535
 20
-1521.843858
 40
2.0
 50
0.0
 51
90.0
  0
LINE
  8
APS_GEOMETRY
 10
140.115535
 11
138.302936
 20
-1519.843858
 21
-1519.843858
  0
LINE
  8
APS_GEOMETRY
 10
138.302936
 11
138.302936
 20
-1519.843858
 21
-1517.512309
  0
ARC
  8
APS_GEOMETRY
 10
137.302936
 20
-1517.512309
 40
1.0
 50
0.0
 51
75.340429
  0
ARC
  8
APS_GEOMETRY
 10
139.383407
 20
-1509.559167
 40
7.220756
 50
195.096637
 51
255.340429
  0
ARC
  8
APS_GEOMETRY
 10
126.859011
 20
-1513.800752
 40
6.033918
 50
23.034196
 51
147.124331
  0
ARC
  8
APS_GEOMETRY
 10
120.111634
 20
-1509.439933
 40
2.0
 50
269.33403
 51
327.12894
  0
LINE
  8
APS_GEOMETRY
 10
108.294335
 11
107.321482
 20
-1459.660701
 21
-1459.660701
  0
ARC
  8
APS_GEOMETRY
 10
107.321482
 20
-1461.660701
 40
2.0
 50
90.0
 51
180.0
  0
LINE
  8
APS_GEOMETRY
 10
105.321482
 11
105.321482
 20
-1461.660701
 21
-1461.860701
  0
LINE
  8
APS_GEOMETRY
 10
105.321482
 11
106.121482
 20
-1461.860701
 21
-1462.660701
  0
LINE
  8
APS_GEOMETRY
 10
106.121482
 11
109.321482
 20
-1462.660701
 21
-1462.660701
  0
LINE
  8
APS_GEOMETRY
 10
109.321482
 11
109.321482
 20
-1462.660701
 21
-1471.160701
  0
LINE
  8
APS_GEOMETRY
 10
109.321482
 11
129.521482
 20
-1471.160701
 21
-1471.160701
  0
LINE
  8
APS_GEOMETRY
 10
129.521482
 11
130.321482
 20
-1471.160701
 21
-1470.360701
  0
LINE
  8
APS_GEOMETRY
 10
130.321482
 11
130.321482
 20
-1470.360701
 21
-1470.064762
  0
ARC
  8
APS_GEOMETRY
 10
128.321482
 20
-1470.064762
 40
2.0
 50
0.0
 51
90.0
  0
LINE
  8
APS_GEOMETRY
 10
128.321482
 11
126.508883
 20
-1468.064762
 21
-1468.064762
  0
LINE
  8
APS_GEOMETRY
 10
126.508883
 11
126.508883
 20
-1468.064762
 21
-1465.733213
  0
ARC
  8
APS_GEOMETRY
 10
125.508883
 20
-1465.733213
 40
1.0
 50
0.0
 51
75.340429
  0
ARC
  8
APS_GEOMETRY
 10
127.589354
 20
-1457.780071
 40
7.220756
 50
195.096637
 51
255.340429
  0
ARC
  8
APS_GEOMETRY
 10
115.064958
 20
-1462.021655
 40
6.033918
 50
23.034196
 51
147.124331
  0
ARC
  8
APS_GEOMETRY
 10
108.317581
 20
-1457.660836
 40
2.0
 50
269.33403
 51
327.12894
  0
LINE
  8
APS_GEOMETRY
 10
-32.531291
 11
-32.531291
 20
-1538.081436
 21
-1540.081436
  0
ARC
  8
APS_GEOMETRY
 10
-33.531291
 20
-1540.081436
 40
1.0
 50
270.0
 51
0.0
  0
LINE
  8
APS_GEOMETRY
 10
-33.531291
 11
-48.531291
 20
-1541.081436
 21
-1541.081436
  0
LINE
  8
APS_GEOMETRY
 10
-48.531291
 11
-48.531291
 20
-1541.081436
 21
-1538.081436
  0
LINE
  8
APS_GEOMETRY
 10
-48.531291
 11
-48.531291
 20
-1538.081436
 21
-1521.581436
  0
LINE
  8
APS_GEOMETRY
 10
-48.531291
 11
-33.531291
 20
-1538.081436
 21
-1538.081436
  0
ARC
  8
APS_GEOMETRY
 10
-33.531291
 20
-1537.081436
 40
1.0
 50
270.0
 51
0.0
  0
LINE
  8
APS_GEOMETRY
 10
-32.531291
 11
-32.531291
 20
-1537.081436
 21
-1536.281436
  0
ARC
  8
APS_GEOMETRY
 10
-32.731291
 20
-1536.281436
 40
0.2
 50
0.0
 51
90.0
  0
LINE
  8
APS_GEOMETRY
 10
-32.731291
 11
-33.331291
 20
-1536.081436
 21
-1536.081436
  0
ARC
  8
APS_GEOMETRY
 10
-33.331291
 20
-1535.881436
 40
0.2
 50
180.0
 51
270.0
  0
LINE
  8
APS_GEOMETRY
 10
-33.531291
 11
-33.531291
 20
-1535.881436
 21
-1535.278838
  0
ARC
  8
APS_GEOMETRY
 10
-33.731291
 20
-1535.278838
 40
0.2
 50
0.0
 51
88.511631
  0
ARC
  8
APS_GEOMETRY
 10
-33.531291
 20
-1527.581436
 40
7.5
 50
180.0
 51
268.511631
  0
ARC
  8
APS_GEOMETRY
 10
-51.031291
 20
-1527.581436
 40
10.0
 50
0.0
 51
136.826449
  0
ARC
  8
APS_GEOMETRY
 10
-57.959494
 20
-1521.081436
 40
0.5
 50
136.826449
 51
270.0
  0
LINE
  8
APS_GEOMETRY
 10
-57.959494
 11
-48.531291
 20
-1521.581436
 21
-1521.581436
  0
LINE
  8
APS_GEOMETRY
 10
-27.243925
 11
-7.243925
 20
-1438.581436
 21
-1438.581436
  0
LINE
  8
APS_GEOMETRY
 10
-7.243925
 11
-7.243925
 20
-1438.581436
 21
-1479.085707
  0
LINE
  8
APS_GEOMETRY
 10
-7.243925
 11
-0.712844
 20
-1479.085707
 21
-1479.085707
  0
LINE
  8
APS_GEOMETRY
 10
-0.712844
 11
0.221826
 20
-1479.085707
 21
-1480.085707
  0
ARC
  8
APS_GEOMETRY
 10
11.958947
 20
-1475.785707
 40
12.5
 50
200.120764
 51
270.0
  0
LINE
  8
APS_GEOMETRY
 10
11.958947
 11
15.456075
 20
-1488.285707
 21
-1488.285707
  0
ARC
  8
APS_GEOMETRY
 10
15.456075
 20
-1489.085707
 40
0.8
 50
0.0
 51
90.0
  0
LINE
  8
APS_GEOMETRY
 10
16.256075
 11
16.256075
 20
-1489.085707
 21
-1505.544324
  0
LINE
  8
APS_GEOMETRY
 10
16.256075
 11
11.756075
 20
-1505.544324
 21
-1510.207465
  0
LINE
  8
APS_GEOMETRY
 10
11.756075
 11
11.756075
 20
-1510.207465
 21
-1511.947411
  0
LINE
  8
APS_GEOMETRY
 10
11.756075
 11
8.656075
 20
-1511.947411
 21
-1515.047411
  0
LINE
  8
APS_GEOMETRY
 10
8.656075
 11
8.656075
 20
-1515.047411
 21
-1517.122195
  0
LINE
  8
APS_GEOMETRY
 10
8.656075
 11
7.256075
 20
-1517.122195
 21
-1517.122195
  0
ARC
  8
APS_GEOMETRY
 10
7.256075
 20
-1527.122195
 40
10.0
 50
90.0
 51
180.0
  0
ARC
  8
APS_GEOMETRY
 10
-10.243925
 20
-1527.122195
 40
7.5
 50
271.488369
 51
359.999999
  0
ARC
  8
APS_GEOMETRY
 10
-10.043925
 20
-1534.819597
 40
0.2
 50
91.488369
 51
180.0
  0
LINE
  8
APS_GEOMETRY
 10
-10.243925
 11
-10.243925
 20
-1534.819597
 21
-1535.422195
  0
ARC
  8
APS_GEOMETRY
 10
-10.443925
 20
-1535.422195
 40
0.2
 50
270.0
 51
0.0
  0
LINE
  8
APS_GEOMETRY
 10
-10.443925
 11
-11.043925
 20
-1535.622195
 21
-1535.622195
  0
ARC
  8
APS_GEOMETRY
 10
-11.043925
 20
-1535.822195
 40
0.2
 50
90.0
 51
180.0
  0
LINE
  8
APS_GEOMETRY
 10
-11.243925
 11
-11.243925
 20
-1535.822195
 21
-1540.331436
  0
LINE
  8
APS_GEOMETRY
 10
-11.243925
 11
-10.493925
 20
-1540.331436
 21
-1541.081436
  0
LINE
  8
APS_GEOMETRY
 10
-10.493925
 11
-23.993925
 20
-1541.081436
 21
-1541.081436
  0
LINE
  8
APS_GEOMETRY
 10
-23.993925
 11
-23.243925
 20
-1541.081436
 21
-1540.331436
  0
LINE
  8
APS_GEOMETRY
 10
-23.243925
 11
-23.243925
 20
-1540.331436
 21
-1535.822195
  0
ARC
  8
APS_GEOMETRY
 10
-23.443925
 20
-1535.822195
 40
0.2
 50
0.0
 51
90.0
  0
LINE
  8
APS_GEOMETRY
 10
-23.443925
 11
-24.043925
 20
-1535.622195
 21
-1535.622195
  0
ARC
  8
APS_GEOMETRY
 10
-24.043925
 20
-1535.422195
 40
0.2
 50
180.0
 51
270.0
  0
LINE
  8
APS_GEOMETRY
 10
-24.243925
 11
-24.243925
 20
-1535.422195
 21
-1534.819597
  0
ARC
  8
APS_GEOMETRY
 10
-24.443925
 20
-1534.819597
 40
0.2
 50
0.0
 51
88.511631
  0
ARC
  8
APS_GEOMETRY
 10
-24.243925
 20
-1527.122195
 40
7.5
 50
180.000001
 51
268.511631
  0
ARC
  8
APS_GEOMETRY
 10
-41.743925
 20
-1527.122195
 40
10.0
 50
0.0
 51
90.0
  0
LINE
  8
APS_GEOMETRY
 10
-41.743925
 11
-43.143925
 20
-1517.122195
 21
-1517.122195
  0
LINE
  8
APS_GEOMETRY
 10
-43.143925
 11
-43.143925
 20
-1517.122195
 21
-1515.047411
  0
LINE
  8
APS_GEOMETRY
 10
-43.143925
 11
-46.243925
 20
-1515.047411
 21
-1511.947411
  0
LINE
  8
APS_GEOMETRY
 10
-46.243925
 11
-46.243925
 20
-1511.947411
 21
-1510.207465
  0
LINE
  8
APS_GEOMETRY
 10
-46.243925
 11
-50.743925
 20
-1510.207465
 21
-1505.544324
  0
LINE
  8
APS_GEOMETRY
 10
-50.743925
 11
-50.743925
 20
-1505.544324
 21
-1489.085707
  0
ARC
  8
APS_GEOMETRY
 10
-49.943925
 20
-1489.085707
 40
0.8
 50
90.0
 51
180.0
  0
LINE
  8
APS_GEOMETRY
 10
-49.943925
 11
-46.446798
 20
-1488.285707
 21
-1488.285707
  0
ARC
  8
APS_GEOMETRY
 10
-46.446798
 20
-1475.785707
 40
12.5
 50
270.0
 51
339.879236
  0
LINE
  8
APS_GEOMETRY
 10
-34.709677
 11
-33.775007
 20
-1480.085707
 21
-1479.085707
  0
LINE
  8
APS_GEOMETRY
 10
-33.775007
 11
-27.243925
 20
-1479.085707
 21
-1479.085707
  0
LINE
  8
APS_GEOMETRY
 10
-27.243925
 11
-27.243925
 20
-1479.085707
 21
-1438.581436
  0
LINE
  8
APS_GEOMETRY
 10
-74.928881
 11
-74.928881
 20
-1441.581436
 21
-1484.253354
  0
LINE
  8
APS_GEOMETRY
 10
-74.928881
 11
-71.3978
 20
-1484.253354
 21
-1484.253354
  0
LINE
  8
APS_GEOMETRY
 10
-71.3978
 11
-70.463019
 20
-1484.253354
 21
-1485.253473
  0
ARC
  8
APS_GEOMETRY
 10
-66.463129
 20
-1485.283247
 40
4.0
 50
179.573509
 51
270.0
  0
LINE
  8
APS_GEOMETRY
 10
-66.463129
 11
-66.415301
 20
-1489.283247
 21
-1489.287431
  0
ARC
  8
APS_GEOMETRY
 10
-66.546035
 20
-1490.781723
 40
1.5
 50
360.0
 51
85.0
  0
LINE
  8
APS_GEOMETRY
 10
-65.046035
 11
-65.046035
 20
-1490.781723
 21
-1501.081436
  0
LINE
  8
APS_GEOMETRY
 10
-65.046035
 11
-63.024239
 20
-1501.081436
 21
-1501.081436
  0
LINE
  8
APS_GEOMETRY
 10
-63.024239
 11
-63.024239
 20
-1501.081436
 21
-1517.581436
  0
LINE
  8
APS_GEOMETRY
 10
-63.024239
 11
-65.500677
 20
-1517.581436
 21
-1517.581436
  0
ARC
  8
APS_GEOMETRY
 10
-65.500677
 20
-1527.581436
 40
10.0
 50
90.0
 51
136.826449
  0
ARC
  8
APS_GEOMETRY
 10
-72.42888
 20
-1521.081436
 40
0.5
 50
136.826451
 51
269.999912
  0
LINE
  8
APS_GEOMETRY
 10
-72.428881
 11
-63.024239
 20
-1521.581436
 21
-1521.581436
  0
LINE
  8
APS_GEOMETRY
 10
-63.024239
 11
-63.024239
 20
-1521.581436
 21
-1541.081436
  0
LINE
  8
APS_GEOMETRY
 10
-63.024239
 11
-106.833523
 20
-1541.081436
 21
-1541.081436
  0
LINE
  8
APS_GEOMETRY
 10
-106.833523
 11
-106.833523
 20
-1541.081436
 21
-1521.581436
  0
LINE
  8
APS_GEOMETRY
 10
-106.833523
 11
-97.428881
 20
-1521.581436
 21
-1521.581436
  0
ARC
  8
APS_GEOMETRY
 10
-97.428882
 20
-1521.081436
 40
0.5
 50
270.000088
 51
43.173549
  0
ARC
  8
APS_GEOMETRY
 10
-104.357085
 20
-1527.581436
 40
10.0
 50
43.173551
 51
90.0
  0
LINE
  8
APS_GEOMETRY
 10
-104.357085
 11
-106.833523
 20
-1517.581436
 21
-1517.581436
  0
LINE
  8
APS_GEOMETRY
 10
-106.833523
 11
-106.833523
 20
-1517.581436
 21
-1501.081436
  0
LINE
  8
APS_GEOMETRY
 10
-106.833523
 11
-104.811727
 20
-1501.081436
 21
-1501.081436
  0
LINE
  8
APS_GEOMETRY
 10
-104.811727
 11
-104.811727
 20
-1501.081436
 21
-1490.781723
  0
ARC
  8
APS_GEOMETRY
 10
-103.311727
 20
-1490.781723
 40
1.5
 50
95.0
 51
180.0
  0
LINE
  8
APS_GEOMETRY
 10
-103.442461
 11
-103.394633
 20
-1489.287431
 21
-1489.283247
  0
ARC
  8
APS_GEOMETRY
 10
-103.394633
 20
-1485.283247
 40
4.0
 50
270.0
 51
0.426491
  0
LINE
  8
APS_GEOMETRY
 10
-99.394743
 11
-98.459962
 20
-1485.253473
 21
-1484.253354
  0
LINE
  8
APS_GEOMETRY
 10
-98.459962
 11
-94.928881
 20
-1484.253354
 21
-1484.253354
  0
LINE
  8
APS_GEOMETRY
 10
-94.928881
 11
-94.928881
 20
-1484.253354
 21
-1441.581436
  0
LINE
  8
APS_GEOMETRY
 10
-94.928881
 11
-74.928881
 20
-1441.581436
 21
-1441.581436
  0
LINE
  8
COSTRUZIONI
 10
-51.031291
 11
-51.031291
 20
-1517.581436
 21
-1566.547634
  0
LINE
  8
APS_GEOMETRY
 10
-57.801915
 11
-58.774768
 20
-1521.2544
 21
-1521.2544
  0
ARC
  8
APS_GEOMETRY
 10
-58.774768
 20
-1523.2544
 40
2.0
 50
90.0
 51
180.0
  0
LINE
  8
APS_GEOMETRY
 10
-60.774768
 11
-60.774768
 20
-1523.2544
 21
-1523.4544
  0
LINE
  8
APS_GEOMETRY
 10
-60.774768
 11
-59.974768
 20
-1523.4544
 21
-1524.2544
  0
LINE
  8
APS_GEOMETRY
 10
-59.974768
 11
-56.774768
 20
-1524.2544
 21
-1524.2544
  0
LINE
  8
APS_GEOMETRY
 10
-56.774768
 11
-56.774768
 20
-1524.2544
 21
-1532.7544
  0
LINE
  8
APS_GEOMETRY
 10
-56.774768
 11
-36.574768
 20
-1532.7544
 21
-1532.7544
  0
LINE
  8
APS_GEOMETRY
 10
-36.574768
 11
-35.774768
 20
-1532.7544
 21
-1531.9544
  0
LINE
  8
APS_GEOMETRY
 10
-35.774768
 11
-35.774768
 20
-1531.9544
 21
-1531.658461
  0
ARC
  8
APS_GEOMETRY
 10
-37.774768
 20
-1531.658461
 40
2.0
 50
0.0
 51
90.0
  0
LINE
  8
APS_GEOMETRY
 10
-37.774768
 11
-39.587367
 20
-1529.658461
 21
-1529.658461
  0
LINE
  8
APS_GEOMETRY
 10
-39.587367
 11
-39.587367
 20
-1529.658461
 21
-1527.326912
  0
ARC
  8
APS_GEOMETRY
 10
-40.587367
 20
-1527.326912
 40
1.0
 50
0.0
 51
75.340429
  0
ARC
  8
APS_GEOMETRY
 10
-38.506896
 20
-1519.37377
 40
7.220756
 50
195.096637
 51
255.340429
  0
ARC
  8
APS_GEOMETRY
 10
-51.031291
 20
-1523.615354
 40
6.033918
 50
23.034196
 51
147.124331
  0
ARC
  8
APS_GEOMETRY
 10
-57.778668
 20
-1519.254535
 40
2.0
 50
269.33403
 51
327.12894
  0
LINE
  8
COSTRUZIONI
 10
-106.833523
 11
1.246999
 20
-1541.081436
 21
-1541.081436
  0
LINE
  8
QUOTATURA
 10
-46.450262
 11
-49.188268
 20
-1545.710422
 21
-1541.444505
  0
LINE
  8
QUOTATURA
 10
-49.188268
 11
-45.214518
 20
-1541.444505
 21
-1544.591573
  0
LINE
  8
QUOTATURA
 10
-45.214518
 11
-46.450262
 20
-1544.591573
 21
-1545.710422
  0
LINE
  8
QUOTATURA
 10
-49.188268
 11
-40.926256
 20
-1541.444505
 21
-1550.569713
  0
LINE
  8
QUOTATURA
 10
-40.926256
 11
-31.431108
 20
-1550.569713
 21
-1550.569713
  0
LINE
  8
QUOTATURA
 10
-68.084946
 11
-68.918446
 20
-1543.226754
 21
-1548.226754
  0
LINE
  8
QUOTATURA
 10
-68.918446
 11
-69.751946
 20
-1548.226754
 21
-1543.226754
  0
LINE
  8
QUOTATURA
 10
-69.751946
 11
-68.084946
 20
-1543.226754
 21
-1543.226754
  0
LINE
  8
QUOTATURA
 10
-68.918446
 11
-68.918446
 20
-1548.226754
 21
-1533.05918
  0
LINE
  8
QUOTATURA
 10
-19.622696
 11
-20.456196
 20
-1543.226754
 21
-1548.226754
  0
LINE
  8
QUOTATURA
 10
-20.456196
 11
-21.289696
 20
-1548.226754
 21
-1543.226754
  0
LINE
  8
QUOTATURA
 10
-21.289696
 11
-19.622696
 20
-1543.226754
 21
-1543.226754
  0
LINE
  8
QUOTATURA
 10
-20.456196
 11
-20.456196
 20
-1548.226754
 21
-1533.05918
  0
LINE
  8
COSTRUZIONI
 10
-68.918446
 11
-20.57951
 20
-1533.05918
 21
-1533.05918
  0
LINE
  8
QUOTATURA
 10
117.115535
 11
117.115535
 20
-1516.139798
 21
-1541.947275
  0
LINE
  8
QUOTATURA
 10
142.115535
 11
142.115535
 20
-1524.639798
 21
-1541.947275
  0
LINE
  8
QUOTATURA
 10
117.115535
 11
124.384175
 20
-1539.447275
 21
-1539.447275
  0
LINE
  8
QUOTATURA
 10
134.846895
 11
142.115535
 20
-1539.447275
 21
-1539.447275
  0
LINE
  8
QUOTATURA
 10
122.115535
 11
117.115535
 20
-1540.280775
 21
-1539.447275
  0
LINE
  8
QUOTATURA
 10
117.115535
 11
122.115535
 20
-1539.447275
 21
-1538.613775
  0
LINE
  8
QUOTATURA
 10
122.115535
 11
122.115535
 20
-1538.613775
 21
-1540.280775
  0
LINE
  8
QUOTATURA
 10
137.115535
 11
142.115535
 20
-1538.613775
 21
-1539.447275
  0
LINE
  8
QUOTATURA
 10
142.115535
 11
137.115535
 20
-1539.447275
 21
-1540.280775
  0
LINE
  8
QUOTATURA
 10
137.115535
 11
137.115535
 20
-1540.280775
 21
-1538.613775
  0
LINE
  8
QUOTATURA
 10
118.615535
 11
97.671985
 20
-1522.939798
 21
-1522.939798
  0
LINE
  8
QUOTATURA
 10
124.359011
 11
97.671985
 20
-1507.766834
 21
-1507.766834
  0
LINE
  8
QUOTATURA
 10
100.171985
 11
100.171985
 20
-1507.766834
 21
-1532.108645
  0
LINE
  8
QUOTATURA
 10
100.171985
 11
95.008944
 20
-1532.108645
 21
-1532.108645
  0
LINE
  8
QUOTATURA
 10
101.005485
 11
100.171985
 20
-1517.939798
 21
-1522.939798
  0
LINE
  8
QUOTATURA
 10
100.171985
 11
99.338485
 20
-1522.939798
 21
-1517.939798
  0
LINE
  8
QUOTATURA
 10
99.338485
 11
101.005485
 20
-1517.939798
 21
-1517.939798
  0
LINE
  8
QUOTATURA
 10
99.338485
 11
100.171985
 20
-1512.766834
 21
-1507.766834
  0
LINE
  8
QUOTATURA
 10
100.171985
 11
101.005485
 20
-1507.766834
 21
-1512.766834
  0
LINE
  8
QUOTATURA
 10
101.005485
 11
99.338485
 20
-1512.766834
 21
-1512.766834
  0
LINE
  8
QUOTATURA
 10
118.615535
 11
107.317041
 20
-1514.439798
 21
-1514.439798
  0
LINE
  8
QUOTATURA
 10
109.817041
 11
109.817041
 20
-1522.939798
 21
-1543.95529
  0
LINE
  8
QUOTATURA
 10
109.817041
 11
99.150441
 20
-1543.95529
 21
-1543.95529
  0
LINE
  8
QUOTATURA
 10
108.983541
 11
109.817041
 20
-1527.939798
 21
-1522.939798
  0
LINE
  8
QUOTATURA
 10
109.817041
 11
110.650541
 20
-1522.939798
 21
-1527.939798
  0
LINE
  8
QUOTATURA
 10
110.650541
 11
108.983541
 20
-1527.939798
 21
-1527.939798
  0
LINE
  8
QUOTATURA
 10
109.817041
 11
109.817041
 20
-1514.439798
 21
-1504.439798
  0
LINE
  8
QUOTATURA
 10
110.650541
 11
109.817041
 20
-1509.439798
 21
-1514.439798
  0
LINE
  8
QUOTATURA
 10
109.817041
 11
108.983541
 20
-1514.439798
 21
-1509.439798
  0
LINE
  8
QUOTATURA
 10
108.983541
 11
110.650541
 20
-1509.439798
 21
-1509.439798
  0
TEXT
  8
QUOTATURA
 10
-257.650332
 20
-1502.162973
 30
0.0
 40
2.0
 50
0.0
  1
20.5
  0
TEXT
  8
QUOTATURA
 10
-249.235344
 20
-1503.662973
 30
0.0
 40
2.0
 50
0.0
  1
23.5
  0
TEXT
  8
QUOTATURA
 10
-252.157973
 20
-1518.794988
 30
0.0
 40
2.0
 50
0.0
  1
3
  0
TEXT
  8
QUOTATURA
 10
-306.457329
 20
-1505.662973
 30
0.0
 40
2.0
 50
0.0
  1
19.5
  0
TEXT
  8
QUOTATURA
 10
-300.128672
 20
-1504.162973
 30
0.0
 40
2.0
 50
0.0
  1
16.5
  0
TEXT
  8
QUOTATURA
 10
-287.837237
 20
-1499.696454
 30
0.0
 40
2.0
 50
0.0
  1
9.9
  0
TEXT
  8
TEXT
 10
227.818865
 20
-1621.313612
 30
0.0
 40
2.0
 50
0.0
  1
B.Stefano
  0
TEXT
  8
TEXT
 10
84.099061
 20
-1609.037012
 30
0.0
 40
1.5
 50
0.0
  1
file:
  0
TEXT
  8
TEXT
 10
217.820907
 20
-1609.06793
 30
0.0
 40
1.5
 50
0.0
  1
data:
  0
TEXT
  8
TEXT
 10
229.174549
 20
-1611.047968
 30
0.0
 40
2.0
 50
0.0
  1
28/12/17
  0
TEXT
  8
TEXT
 10
229.276482
 20
-1626.695393
 30
0.0
 40
2.0
 50
0.0
  1
1 : 1
  0
TEXT
  8
TEXT
 10
217.634509
 20
-1618.829459
 30
0.0
 40
1.5
 50
0.0
  1
responsabile tecnico:
  0
TEXT
  8
TEXT
 10
217.840009
 20
-1624.067799
 30
0.0
 40
1.5
 50
0.0
  1
scala:
  0
TEXT
  8
TEXT
 10
37.895258
 20
-1609.096741
 30
0.0
 40
1.5
 50
0.0
  1
Ufficio tecnico:
  0
TEXT
  8
TEXT
 10
37.795378
 20
-1616.368858
 30
0.0
 40
2.0
 50
0.0
  1
tel. 0577-68.54.26
  0
TEXT
  8
TEXT
 10
37.795378
 20
-1619.368858
 30
0.0
 40
2.0
 50
0.0
  1
fax 0577-68.64.29
  0
TEXT
  8
TEXT
 10
37.795378
 20
-1622.368858
 30
0.0
 40
2.0
 50
0.0
  1
e-mail: tecnico@toscocornici.it
  0
TEXT
  8
TEXT
 10
37.795378
 20
-1625.368858
 30
0.0
 40
2.0
 50
0.0
  1
web: www.tosococornici.it
  0
TEXT
  8
TEXT
 10
88.783586
 20
-1611.0953
 30
0.0
 40
2.0
 50
0.0
  1
CORNICE BRACHETTONE2 =CORNICE P1 PER PANTOGRAFATO UB1
  0
TEXT
  8
TEXT
 10
84.099061
 20
-1614.037012
 30
0.0
 40
1.5
 50
0.0
  1
pezzo:
  0
TEXT
  8
TEXT
 10
88.783586
 20
-1616.0953
 30
0.0
 40
2.0
 50
0.0
  1
PEZZO
  0
TEXT
  8
TEXT
 10
84.099061
 20
-1619.037012
 30
0.0
 40
1.5
 50
0.0
  1
note:
  0
TEXT
  8
TEXT
 10
88.783586
 20
-1621.0953
 30
0.0
 40
2.0
 50
0.0
  1
NOTE
  0
TEXT
  8
TEXT
 10
137.513939
 20
-1614.037012
 30
0.0
 40
1.5
 50
0.0
  1
lotto:
  0
TEXT
  8
TEXT
 10
142.318912
 20
-1616.0953
 30
0.0
 40
2.0
 50
0.0
  1
________
  0
TEXT
  8
TEXT
 10
187.513939
 20
-1614.037012
 30
0.0
 40
1.5
 50
0.0
  1
ordine:
  0
TEXT
  8
TEXT
 10
192.922854
 20
-1616.0953
 30
0.0
 40
2.0
 50
0.0
  1
______
  0
TEXT
  8
TEXT
 10
217.624727
 20
-1614.037012
 30
0.0
 40
1.5
 50
0.0
  1
pos:
  0
TEXT
  8
TEXT
 10
222.066173
 20
-1616.0953
 30
0.0
 40
2.0
 50
0.0
  1
_______
  0
TEXT
  8
QUOTATURA
 10
-274.21435
 20
-1524.148851
 30
0.0
 40
2.0
 50
0.0
  1
16
  0
TEXT
  8
TEXT
 10
-290.308378
 20
-1504.953201
 30
0.0
 40
3.0
 50
0.0
  1
9.65
  0
TEXT
  8
QUOTATURA
 10
-281.639901
 20
-1533.274328
 30
0.0
 40
2.0
 50
0.0
  1
25.65
  0
TEXT
  8
QUOTATURA
 10
-276.697545
 20
-1477.455377
 30
0.0
 40
2.0
 50
0.0
  1
18.5
  0
TEXT
  8
TEXT
 10
-140.869375
 20
-1438.655419
 30
0.0
 40
2.0
 50
0.0
  1
versione vano ricavanto per mm 6
  0
TEXT
  8
TEXT
 10
76.702219
 20
-1482.117217
 30
0.0
 40
5.0
 50
0.0
  1
versione di riporto su pantografato UB1-COR
  0
TEXT
  8
TEXT
 10
-80.738977
 20
-1579.033767
 30
0.0
 40
2.0
 50
0.0
  1
STUDIO VARIANTE COLTELLI ESEISTENTI
  0
TEXT
  8
TEXT
 10
-80.738977
 20
-1582.033767
 30
0.0
 40
2.0
 50
0.0
  1
SE FORTEMENTE NECESSARIO PER LA FORTE
  0
TEXT
  8
TEXT
 10
-80.738977
 20
-1585.033767
 30
0.0
 40
2.0
 50
0.0
  1
DIFFERENZA IN ALTENZZA VALUTO NUOVE TESTE
  0
TEXT
  8
TEXT
 10
-80.738977
 20
-1588.033767
 30
0.0
 40
2.0
 50
0.0
  1
MA
  0
TEXT
  8
TEXT
 10
-80.738977
 20
-1591.033767
 30
0.0
 40
2.0
 50
0.0
  1
OCCHIO CHE IL PROFILO PUO' VARIARE FINO A QUELLO SOPRA
  0
TEXT
  8
TEXT
 10
-30.321285
 20
-1551.309594
 30
0.0
 40
2.0
 50
0.0
  1
base inizio profilo
  0
TEXT
  8
QUOTATURA
 10
125.634176
 20
-1541.947275
 30
0.0
 40
5.0
 50
0.0
  1
25
  0
TEXT
  8
QUOTATURA
 10
73.875706
 20
-1534.608645
 30
0.0
 40
5.0
 50
0.0
  1
15.173
  0
TEXT
  8
QUOTATURA
 10
88.152511
 20
-1546.45529
 30
0.0
 40
5.0
 50
0.0
  1
8.5
  0
ENDSEC
  0
EOF
