  0
SECTION
  2
ENTITIES
  0
LINE
  8
COSTRUZIONI
 10
-661.312686
 11
1338.687314
 20
-667.378474
 21
-667.378474
  0
LINE
  8
COSTRUZIONI
 10
1338.687314
 11
1338.687314
 20
-667.378474
 21
-467.378474
  0
LINE
  8
COSTRUZIONI
 10
1338.687314
 11
-661.312686
 20
-467.378474
 21
-467.378474
  0
LINE
  8
COSTRUZIONI
 10
-661.312686
 11
-661.312686
 20
-467.378474
 21
-667.378474
  0
LINE
  8
COSTRUZIONI
 10
338.687314
 11
338.687314
 20
-667.378474
 21
-467.378474
  0
LINE
  8
COSTRUZIONI
 10
338.687314
 11
1338.687314
 20
-567.378474
 21
-567.378474
  0
LINE
  8
COSTRUZIONI
 10
838.687314
 11
838.687314
 20
-667.378474
 21
-467.378474
  0
LINE
  8
APS_GEOMETRY
 10
-598.627614
 11
-581.392875
 20
-521.363584
 21
-521.363584
  0
ARC
  8
APS_GEOMETRY
 10
-582.264472
 20
-496.668332
 40
24.710628
 50
272.021365
 51
278.440365
  0
ARC
  8
APS_GEOMETRY
 10
-581.29173
 20
-503.223769
 40
18.083413
 50
278.440365
 51
285.945396
  0
ARC
  8
APS_GEOMETRY
 10
-573.97459
 20
-529.421069
 40
9.117519
 50
98.583621
 51
104.931417
  0
ARC
  8
APS_GEOMETRY
 10
-574.59055
 20
-525.340339
 40
4.990564
 50
90.0
 51
98.583621
  0
ARC
  8
APS_GEOMETRY
 10
-574.59055
 20
-524.101468
 40
3.751692
 50
52.870717
 51
90.0
  0
ARC
  8
APS_GEOMETRY
 10
-579.679149
 20
-530.822659
 40
12.181891
 50
32.517511
 51
52.870717
  0
ARC
  8
APS_GEOMETRY
 10
-583.710371
 20
-533.392563
 40
16.962598
 50
17.208621
 51
32.517511
  0
ARC
  8
APS_GEOMETRY
 10
-580.350501
 20
-532.351956
 40
13.445271
 50
0.0
 51
17.208621
  0
ARC
  8
APS_GEOMETRY
 10
-573.622661
 20
-532.351956
 40
6.717431
 50
337.348108
 51
0.0
  0
ARC
  8
APS_GEOMETRY
 10
-570.922747
 20
-533.478692
 40
3.791842
 50
307.042475
 51
337.348108
  0
ARC
  8
APS_GEOMETRY
 10
-571.391996
 20
-532.833991
 40
4.589135
 50
287.185706
 51
306.869898
  0
ARC
  8
APS_GEOMETRY
 10
-571.810753
 20
-531.480009
 40
6.006395
 50
270.0
 51
287.185706
  0
ARC
  8
APS_GEOMETRY
 10
-571.810753
 20
-532.092918
 40
5.393486
 50
252.221439
 51
270.0
  0
ARC
  8
APS_GEOMETRY
 10
-572.061838
 20
-532.875962
 40
4.57117
 50
232.895765
 51
252.221439
  0
ARC
  8
APS_GEOMETRY
 10
-571.09131
 20
-531.592892
 40
6.179957
 50
218.299689
 51
232.895765
  0
ARC
  8
APS_GEOMETRY
 10
-563.511073
 20
-525.606448
 40
15.83902
 50
209.197486
 51
218.299689
  0
ARC
  8
APS_GEOMETRY
 10
-602.064842
 20
-546.494312
 40
28.011657
 50
28.024501
 51
32.699461
  0
ARC
  8
APS_GEOMETRY
 10
-581.908735
 20
-533.554589
 40
4.059515
 50
32.699461
 51
45.0
  0
ARC
  8
APS_GEOMETRY
 10
-580.534428
 20
-532.180283
 40
2.115953
 50
45.0
 51
67.557247
  0
ARC
  8
APS_GEOMETRY
 10
-580.542584
 20
-532.200029
 40
2.137317
 50
67.557247
 51
90.0
  0
ARC
  8
APS_GEOMETRY
 10
-580.542584
 20
-532.031498
 40
1.968787
 50
90.0
 51
120.801446
  0
ARC
  8
APS_GEOMETRY
 10
-580.609113
 20
-531.919902
 40
1.838864
 50
120.801446
 51
152.700428
  0
ARC
  8
APS_GEOMETRY
 10
-579.150302
 20
-532.672837
 40
3.480522
 50
152.700428
 51
171.085073
  0
ARC
  8
APS_GEOMETRY
 10
-568.061379
 20
-534.412276
 40
14.705043
 50
171.085073
 51
180.0
  0
LINE
  8
APS_GEOMETRY
 10
-582.766422
 11
-582.766422
 20
-534.412276
 21
-552.726229
  0
ARC
  8
APS_GEOMETRY
 10
-563.339351
 20
-552.726229
 40
19.42707
 50
180.0
 51
188.194263
  0
ARC
  8
APS_GEOMETRY
 10
-577.846928
 20
-554.81532
 40
4.769851
 50
188.194263
 51
204.775141
  0
ARC
  8
APS_GEOMETRY
 10
-579.256392
 20
-555.465842
 40
3.217508
 50
204.775141
 51
228.576334
  0
ARC
  8
APS_GEOMETRY
 10
-577.934075
 20
-553.967216
 40
5.216108
 50
228.576334
 51
247.217594
  0
ARC
  8
APS_GEOMETRY
 10
-585.602975
 20
-572.03937
 40
14.415923
 50
59.381395
 51
66.929588
  0
ARC
  8
APS_GEOMETRY
 10
-579.941749
 20
-562.47385
 40
3.30068
 50
43.567904
 51
59.381395
  0
ARC
  8
APS_GEOMETRY
 10
-579.036152
 20
-561.612428
 40
2.050818
 50
19.041231
 51
43.567904
  0
ARC
  8
APS_GEOMETRY
 10
-580.294494
 20
-562.046723
 40
3.381997
 50
0.0
 51
19.041231
  0
ARC
  8
APS_GEOMETRY
 10
-579.659934
 20
-562.046723
 40
2.747437
 50
317.65975
 51
0.0
  0
ARC
  8
APS_GEOMETRY
 10
-582.182314
 20
-559.748293
 40
6.159941
 50
289.746837
 51
317.65975
  0
ARC
  8
APS_GEOMETRY
 10
-584.294771
 20
-553.863592
 40
12.412315
 50
281.964396
 51
289.746837
  0
ARC
  8
APS_GEOMETRY
 10
-587.2216
 20
-540.051748
 40
26.530862
 50
276.643452
 51
281.964396
  0
ARC
  8
APS_GEOMETRY
 10
-588.453396
 20
-529.475902
 40
37.178202
 50
272.836113
 51
276.643452
  0
ARC
  8
APS_GEOMETRY
 10
-589.928486
 20
-499.700155
 40
66.990463
 50
270.0
 51
272.836113
  0
ARC
  8
APS_GEOMETRY
 10
-589.928486
 20
-481.250365
 40
85.440254
 50
267.283141
 51
270.0
  0
ARC
  8
APS_GEOMETRY
 10
-591.722381
 20
-519.053419
 40
47.59466
 50
263.64272
 51
267.283141
  0
ARC
  8
APS_GEOMETRY
 10
-593.224646
 20
-532.537172
 40
34.02748
 50
258.563267
 51
263.64272
  0
ARC
  8
APS_GEOMETRY
 10
-596.813397
 20
-550.276685
 40
15.928599
 50
251.136412
 51
258.563267
  0
ARC
  8
APS_GEOMETRY
 10
-600.017507
 20
-559.569421
 40
6.099088
 50
222.557585
 51
251.395035
  0
ARC
  8
APS_GEOMETRY
 10
-602.395001
 20
-561.752392
 40
2.871421
 50
180.0
 51
222.557585
  0
ARC
  8
APS_GEOMETRY
 10
-602.874662
 20
-561.752392
 40
2.39176
 50
150.642246
 51
180.0
  0
ARC
  8
APS_GEOMETRY
 10
-602.683013
 20
-561.860194
 40
2.611648
 50
122.574057
 51
150.642246
  0
ARC
  8
APS_GEOMETRY
 10
-603.189965
 20
-561.277805
 40
1.851424
 50
108.676702
 51
119.054604
  0
ARC
  8
APS_GEOMETRY
 10
-580.074391
 20
-629.661379
 40
74.036208
 50
107.037768
 51
108.676702
  0
ARC
  8
APS_GEOMETRY
 10
-602.628797
 20
-555.897881
 40
3.098808
 50
286.144339
 51
308.659808
  0
ARC
  8
APS_GEOMETRY
 10
-602.121359
 20
-556.532178
 40
2.286512
 50
308.659808
 51
334.932537
  0
ARC
  8
APS_GEOMETRY
 10
-604.186076
 20
-555.566423
 40
4.565927
 50
334.932537
 51
348.829022
  0
ARC
  8
APS_GEOMETRY
 10
-630.011954
 20
-550.466355
 40
30.890567
 50
348.829022
 51
354.160508
  0
ARC
  8
APS_GEOMETRY
 10
-647.467864
 20
-548.667051
 40
48.438962
 50
354.143986
 51
355.660291
  0
ARC
  8
APS_GEOMETRY
 10
-724.844135
 20
-542.795168
 40
126.037715
 50
355.660291
 51
356.600286
  0
ARC
  8
APS_GEOMETRY
 10
-783.993161
 20
-539.281364
 40
185.291018
 50
356.600286
 51
357.239747
  0
ARC
  8
APS_GEOMETRY
 10
-951.818261
 20
-531.190046
 40
353.311058
 50
357.239747
 51
357.702834
  0
ARC
  8
APS_GEOMETRY
 10
-935.297965
 20
-531.852751
 40
336.777476
 50
357.702834
 51
358.674384
  0
ARC
  8
APS_GEOMETRY
 10
-779.465684
 20
-535.458787
 40
180.903478
 50
358.674384
 51
0.0
  0
ARC
  8
APS_GEOMETRY
 10
-625.372273
 20
-535.458787
 40
26.810067
 50
0.0
 51
6.241914
  0
ARC
  8
APS_GEOMETRY
 10
-604.053032
 20
-533.126995
 40
5.363685
 50
6.241914
 51
20.224859
  0
ARC
  8
APS_GEOMETRY
 10
-601.098247
 20
-532.03839
 40
2.214746
 50
20.224859
 51
50.440332
  0
ARC
  8
APS_GEOMETRY
 10
-600.524416
 20
-531.343753
 40
1.313744
 50
50.440332
 51
90.0
  0
ARC
  8
APS_GEOMETRY
 10
-600.524416
 20
-531.792326
 40
1.762317
 50
90.0
 51
126.747471
  0
ARC
  8
APS_GEOMETRY
 10
-598.034401
 20
-535.127166
 40
5.924208
 50
126.747471
 51
146.546691
  0
ARC
  8
APS_GEOMETRY
 10
-642.022133
 20
-506.214227
 40
46.714947
 50
324.255019
 51
326.700579
  0
ARC
  8
APS_GEOMETRY
 10
-623.399182
 20
-519.618357
 40
23.769686
 50
320.826342
 51
324.255019
  0
ARC
  8
APS_GEOMETRY
 10
-617.312623
 20
-524.577775
 40
15.918442
 50
315.721571
 51
320.826342
  0
ARC
  8
APS_GEOMETRY
 10
-610.31848
 20
-531.397934
 40
6.14948
 50
307.504142
 51
315.721571
  0
ARC
  8
APS_GEOMETRY
 10
-610.963772
 20
-530.536637
 40
7.225632
 50
291.305784
 51
307.405357
  0
ARC
  8
APS_GEOMETRY
 10
-609.84491
 20
-533.405514
 40
4.146296
 50
270.0
 51
291.305784
  0
ARC
  8
APS_GEOMETRY
 10
-609.84491
 20
-533.672854
 40
3.878957
 50
245.531798
 51
270.0
  0
ARC
  8
APS_GEOMETRY
 10
-609.874252
 20
-533.737335
 40
3.808114
 50
220.833495
 51
245.531798
  0
ARC
  8
APS_GEOMETRY
 10
-609.481125
 20
-533.397594
 40
4.327703
 50
198.683699
 51
220.833495
  0
ARC
  8
APS_GEOMETRY
 10
-607.839656
 20
-532.842508
 40
6.060487
 50
180.0
 51
198.683699
  0
ARC
  8
APS_GEOMETRY
 10
-603.992446
 20
-532.842508
 40
9.907696
 50
168.407825
 51
180.0
  0
ARC
  8
APS_GEOMETRY
 10
-597.639693
 20
-534.145637
 40
16.392726
 50
159.401826
 51
168.407825
  0
ARC
  8
APS_GEOMETRY
 10
-595.676501
 20
-534.883481
 40
18.489996
 50
151.38954
 51
159.401826
  0
ARC
  8
APS_GEOMETRY
 10
-596.078884
 20
-534.663999
 40
18.031646
 50
143.275893
 51
151.38954
  0
ARC
  8
APS_GEOMETRY
 10
-601.128479
 20
-530.888062
 40
11.726407
 50
124.215702
 51
143.310277
  0
ARC
  8
APS_GEOMETRY
 10
-605.62616
 20
-524.273825
 40
3.727828
 50
90.0
 51
124.215702
  0
ARC
  8
APS_GEOMETRY
 10
-605.62616
 20
-525.930397
 40
5.3844
 50
82.724995
 51
90.0
  0
ARC
  8
APS_GEOMETRY
 10
-606.046855
 20
-529.225839
 40
8.706586
 50
77.005383
 51
82.724995
  0
ARC
  8
APS_GEOMETRY
 10
-593.198492
 20
-467.279254
 40
54.560918
 50
258.486169
 51
260.377772
  0
ARC
  8
APS_GEOMETRY
 10
-598.702479
 20
-499.744172
 40
21.632741
 50
260.377772
 51
263.382083
  0
ARC
  8
APS_GEOMETRY
 10
-599.173247
 20
-503.801791
 40
17.547904
 50
263.382083
 51
267.083862
  0
ARC
  8
APS_GEOMETRY
 10
-598.627614
 20
-493.090539
 40
28.273045
 50
267.083862
 51
270.0
  0
ARC
  8
APS_GEOMETRY
 10
-538.900579
 20
-546.229411
 40
25.781524
 50
71.909511
 51
90.0
  0
ARC
  8
APS_GEOMETRY
 10
-537.902079
 20
-543.172778
 40
22.565936
 50
52.561428
 51
71.909511
  0
ARC
  8
APS_GEOMETRY
 10
-538.163606
 20
-543.24884
 40
22.785888
 50
38.846006
 51
52.155542
  0
ARC
  8
APS_GEOMETRY
 10
-541.73574
 20
-546.125635
 40
27.372399
 50
26.707224
 51
38.846006
  0
ARC
  8
APS_GEOMETRY
 10
-541.028606
 20
-545.547723
 40
26.481717
 50
13.867603
 51
26.277857
  0
ARC
  8
APS_GEOMETRY
 10
-535.928884
 20
-544.288729
 40
21.228887
 50
0.0
 51
13.867603
  0
ARC
  8
APS_GEOMETRY
 10
-535.598678
 20
-544.288729
 40
20.898681
 50
339.712247
 51
0.0
  0
ARC
  8
APS_GEOMETRY
 10
-536.775181
 20
-543.853814
 40
22.152997
 50
320.013114
 51
339.712247
  0
ARC
  8
APS_GEOMETRY
 10
-536.970279
 20
-543.746266
 40
22.371633
 50
303.343757
 51
320.123166
  0
ARC
  8
APS_GEOMETRY
 10
-539.266009
 20
-540.257162
 40
26.548261
 50
287.949403
 51
303.343757
  0
ARC
  8
APS_GEOMETRY
 10
-540.020263
 20
-537.642052
 40
29.268668
 50
279.039483
 51
287.776406
  0
ARC
  8
APS_GEOMETRY
 10
-539.718166
 20
-539.540947
 40
27.345893
 50
270.0
 51
279.039483
  0
ARC
  8
APS_GEOMETRY
 10
-539.718166
 20
-540.875987
 40
26.010853
 50
257.72804
 51
270.0
  0
ARC
  8
APS_GEOMETRY
 10
-539.677238
 20
-540.687832
 40
26.203407
 50
245.501426
 51
257.72804
  0
ARC
  8
APS_GEOMETRY
 10
-541.149944
 20
-543.910607
 40
22.660086
 50
228.665185
 51
245.510859
  0
ARC
  8
APS_GEOMETRY
 10
-541.639741
 20
-544.467448
 40
21.918485
 50
211.534792
 51
228.665185
  0
ARC
  8
APS_GEOMETRY
 10
-540.997763
 20
-543.996006
 40
22.712325
 50
195.642246
 51
211.70143
  0
ARC
  8
APS_GEOMETRY
 10
-539.824037
 20
-543.667363
 40
23.931193
 50
180.0
 51
195.642246
  0
ARC
  8
APS_GEOMETRY
 10
-539.572471
 20
-543.667363
 40
24.182759
 50
162.181111
 51
180.0
  0
ARC
  8
APS_GEOMETRY
 10
-541.778964
 20
-542.958133
 40
21.865083
 50
143.433519
 51
162.181111
  0
ARC
  8
APS_GEOMETRY
 10
-542.075847
 20
-542.720351
 40
21.484982
 50
126.384352
 51
143.471145
  0
ARC
  8
APS_GEOMETRY
 10
-540.041716
 20
-545.480958
 40
24.91407
 50
110.525108
 51
126.384352
  0
ARC
  8
APS_GEOMETRY
 10
-540.142404
 20
-544.731342
 40
24.177325
 50
99.7697
 51
110.924502
  0
ARC
  8
APS_GEOMETRY
 10
-538.900579
 20
-551.94348
 40
31.495593
 50
90.0
 51
99.7697
  0
ARC
  8
APS_GEOMETRY
 10
-542.00741
 20
-534.640944
 40
4.807157
 50
90.0
 51
119.604451
  0
ARC
  8
APS_GEOMETRY
 10
-541.586367
 20
-535.381979
 40
5.659453
 50
119.604451
 51
146.842076
  0
ARC
  8
APS_GEOMETRY
 10
-540.740191
 20
-536.075746
 40
6.74833
 50
145.840305
 51
164.054604
  0
ARC
  8
APS_GEOMETRY
 10
-538.778906
 20
-536.636113
 40
8.788097
 50
164.054604
 51
180.0
  0
ARC
  8
APS_GEOMETRY
 10
-526.51445
 20
-536.636113
 40
21.052553
 50
180.0
 51
189.976729
  0
ARC
  8
APS_GEOMETRY
 10
-507.862853
 20
-533.355144
 40
39.990527
 50
189.976729
 51
197.211115
  0
ARC
  8
APS_GEOMETRY
 10
-503.783339
 20
-532.091456
 40
44.261281
 50
197.211115
 51
203.760424
  0
ARC
  8
APS_GEOMETRY
 10
-513.946039
 20
-536.565358
 40
33.157396
 50
203.760424
 51
211.328693
  0
ARC
  8
APS_GEOMETRY
 10
-534.814176
 20
-549.089103
 40
8.821499
 50
212.319617
 51
224.440823
  0
ARC
  8
APS_GEOMETRY
 10
-535.669596
 20
-549.927987
 40
7.623388
 50
224.440823
 51
237.483626
  0
ARC
  8
APS_GEOMETRY
 10
-536.22239
 20
-550.795152
 40
6.595013
 50
237.483626
 51
252.415923
  0
ARC
  8
APS_GEOMETRY
 10
-536.774852
 20
-552.538415
 40
4.766303
 50
252.415923
 51
270.0
  0
ARC
  8
APS_GEOMETRY
 10
-536.774852
 20
-551.973257
 40
5.331461
 50
270.0
 51
294.952847
  0
ARC
  8
APS_GEOMETRY
 10
-536.625478
 20
-552.294279
 40
4.977388
 50
294.952847
 51
320.792796
  0
ARC
  8
APS_GEOMETRY
 10
-537.426128
 20
-551.641117
 40
6.010664
 50
320.792796
 51
342.776564
  0
ARC
  8
APS_GEOMETRY
 10
-540.99394
 20
-550.535096
 40
9.745978
 50
342.776564
 51
0.0
  0
ARC
  8
APS_GEOMETRY
 10
-557.75506
 20
-550.535096
 40
26.507098
 50
0.0
 51
8.498559
  0
ARC
  8
APS_GEOMETRY
 10
-569.422388
 20
-552.278489
 40
38.30396
 50
8.498559
 51
15.566318
  0
ARC
  8
APS_GEOMETRY
 10
-568.019575
 20
-551.887706
 40
36.847733
 50
15.566318
 51
22.908635
  0
ARC
  8
APS_GEOMETRY
 10
-555.955872
 20
-546.789655
 40
23.751053
 50
22.908635
 51
32.057376
  0
ARC
  8
APS_GEOMETRY
 10
-546.480137
 20
-540.820074
 40
12.551777
 50
31.920876
 51
42.510447
  0
ARC
  8
APS_GEOMETRY
 10
-543.878093
 20
-538.434867
 40
9.021927
 50
42.510447
 51
55.00798
  0
ARC
  8
APS_GEOMETRY
 10
-542.99922
 20
-537.179335
 40
7.489354
 50
55.00798
 51
69.880367
  0
ARC
  8
APS_GEOMETRY
 10
-542.211104
 20
-535.027991
 40
5.198196
 50
69.880367
 51
87.754257
  0
ARC
  8
APS_GEOMETRY
 10
-490.479794
 20
-536.431146
 40
15.98326
 50
83.922511
 51
90.0
  0
ARC
  8
APS_GEOMETRY
 10
-491.765472
 20
-548.506433
 40
28.126798
 50
79.342054
 51
83.922511
  0
ARC
  8
APS_GEOMETRY
 10
-493.316211
 20
-556.746637
 40
36.511651
 50
75.80788
 51
79.342054
  0
ARC
  8
APS_GEOMETRY
 10
-498.726853
 20
-578.14166
 40
58.580227
 50
73.017894
 51
75.80788
  0
ARC
  8
APS_GEOMETRY
 10
-479.675509
 20
-515.64869
 40
6.752259
 50
253.288427
 51
259.045937
  0
ARC
  8
APS_GEOMETRY
 10
-480.60334
 20
-520.442483
 40
1.869502
 50
259.045937
 51
270.0
  0
ARC
  8
APS_GEOMETRY
 10
-480.60334
 20
-521.202294
 40
1.109691
 50
270.0
 51
286.699244
  0
ARC
  8
APS_GEOMETRY
 10
-489.476535
 20
-491.624977
 40
31.989317
 50
286.699244
 51
289.798876
  0
ARC
  8
APS_GEOMETRY
 10
-477.586886
 20
-524.534643
 40
3.002492
 50
100.00798
 51
110.556045
  0
ARC
  8
APS_GEOMETRY
 10
-477.529212
 20
-524.861459
 40
3.334357
 50
90.0
 51
100.00798
  0
ARC
  8
APS_GEOMETRY
 10
-477.529212
 20
-524.70625
 40
3.179149
 50
53.355929
 51
90.0
  0
ARC
  8
APS_GEOMETRY
 10
-483.082963
 20
-532.172377
 40
12.484373
 50
35.100706
 51
53.355929
  0
ARC
  8
APS_GEOMETRY
 10
-485.854088
 20
-534.120007
 40
15.871465
 50
20.244574
 51
35.100706
  0
ARC
  8
APS_GEOMETRY
 10
-479.020709
 20
-531.599776
 40
8.588153
 50
0.0
 51
20.244574
  0
ARC
  8
APS_GEOMETRY
 10
-475.582316
 20
-531.599776
 40
5.149761
 50
340.480718
 51
0.0
  0
ARC
  8
APS_GEOMETRY
 10
-474.734434
 20
-531.900348
 40
4.250179
 50
318.972496
 51
340.480718
  0
ARC
  8
APS_GEOMETRY
 10
-474.355875
 20
-532.229744
 40
3.748373
 50
295.016893
 51
318.972496
  0
ARC
  8
APS_GEOMETRY
 10
-474.22616
 20
-532.507703
 40
3.441636
 50
270.0
 51
295.016893
  0
ARC
  8
APS_GEOMETRY
 10
-474.22616
 20
-530.663931
 40
5.285409
 50
256.171349
 51
270.0
  0
ARC
  8
APS_GEOMETRY
 10
-474.802442
 20
-533.005076
 40
2.874379
 50
237.380757
 51
256.171349
  0
ARC
  8
APS_GEOMETRY
 10
-473.781866
 20
-531.410426
 40
4.767653
 50
231.559211
 51
237.380757
  0
ARC
  8
APS_GEOMETRY
 10
-458.939174
 20
-512.710971
 40
28.641805
 50
229.184916
 51
231.559211
  0
ARC
  8
APS_GEOMETRY
 10
-443.031752
 20
-494.291852
 40
52.979225
 50
227.899934
 51
229.184916
  0
ARC
  8
APS_GEOMETRY
 10
-387.978788
 20
-433.36367
 40
135.095437
 50
227.095253
 51
227.899934
  0
ARC
  8
APS_GEOMETRY
 10
-491.341524
 20
-544.525238
 40
16.696392
 50
46.974934
 51
64.612094
  0
ARC
  8
APS_GEOMETRY
 10
-487.667294
 20
-536.783111
 40
8.126649
 50
64.612094
 51
90.0
  0
ARC
  8
APS_GEOMETRY
 10
-487.667294
 20
-534.512297
 40
5.855835
 50
90.0
 51
106.966148
  0
ARC
  8
APS_GEOMETRY
 10
-488.34564
 20
-532.288829
 40
3.531193
 50
106.966148
 51
128.867778
  0
ARC
  8
APS_GEOMETRY
 10
-488.738416
 20
-531.801496
 40
2.90528
 50
128.867778
 51
154.740609
  0
ARC
  8
APS_GEOMETRY
 10
-488.611447
 20
-531.861404
 40
3.045672
 50
154.740609
 51
180.0
  0
ARC
  8
APS_GEOMETRY
 10
-488.796161
 20
-531.861404
 40
2.860958
 50
180.0
 51
206.640144
  0
ARC
  8
APS_GEOMETRY
 10
-487.875852
 20
-531.39974
 40
3.89057
 50
206.640144
 51
229.429559
  0
ARC
  8
APS_GEOMETRY
 10
-486.400204
 20
-529.676273
 40
6.159464
 50
229.429559
 51
244.493062
  0
ARC
  8
APS_GEOMETRY
 10
-482.354577
 20
-521.197082
 40
15.554345
 50
244.493062
 51
253.955733
  0
ARC
  8
APS_GEOMETRY
 10
-554.425515
 20
-766.126053
 40
239.758367
 50
72.73731
 51
73.580493
  0
ARC
  8
APS_GEOMETRY
 10
-513.121851
 20
-633.210473
 40
100.573081
 50
71.435423
 51
72.73731
  0
ARC
  8
APS_GEOMETRY
 10
-499.441216
 20
-592.475995
 40
57.602655
 50
69.164305
 51
71.435423
  0
ARC
  8
APS_GEOMETRY
 10
-483.296376
 20
-550.054037
 40
12.212366
 50
64.230672
 51
69.164305
  0
ARC
  8
APS_GEOMETRY
 10
-485.153114
 20
-553.792812
 40
16.386607
 50
34.93931
 51
64.067526
  0
ARC
  8
APS_GEOMETRY
 10
-481.145461
 20
-550.992944
 40
11.497789
 50
0.0
 51
34.93931
  0
ARC
  8
APS_GEOMETRY
 10
-483.609355
 20
-550.992944
 40
13.961684
 50
333.434949
 51
0.0
  0
ARC
  8
APS_GEOMETRY
 10
-484.522104
 20
-550.53657
 40
14.982168
 50
307.80653
 51
333.434949
  0
ARC
  8
APS_GEOMETRY
 10
-486.897343
 20
-547.463983
 40
18.865789
 50
296.732094
 51
307.785738
  0
ARC
  8
APS_GEOMETRY
 10
-488.302655
 20
-544.673724
 40
21.98996
 50
286.495988
 51
296.732094
  0
ARC
  8
APS_GEOMETRY
 10
-489.228243
 20
-541.54819
 40
25.249665
 50
277.544213
 51
286.495988
  0
ARC
  8
APS_GEOMETRY
 10
-490.577904
 20
-531.357268
 40
35.529571
 50
270.0
 51
277.544213
  0
ARC
  8
APS_GEOMETRY
 10
-490.577904
 20
-529.815974
 40
37.070866
 50
263.55502
 51
270.0
  0
ARC
  8
APS_GEOMETRY
 10
-489.377805
 20
-519.192141
 40
47.762268
 50
257.87769
 51
263.55502
  0
ARC
  8
APS_GEOMETRY
 10
-490.014836
 20
-522.15799
 40
44.728776
 50
254.83911
 51
257.87769
  0
ARC
  8
APS_GEOMETRY
 10
-495.18135
 20
-541.225354
 40
24.973847
 50
250.772225
 51
254.83911
  0
ARC
  8
APS_GEOMETRY
 10
-497.505097
 20
-547.887844
 40
17.917745
 50
245.120665
 51
250.772225
  0
ARC
  8
APS_GEOMETRY
 10
-501.438683
 20
-556.370039
 40
8.56784
 50
236.944177
 51
245.120665
  0
ARC
  8
APS_GEOMETRY
 10
-503.758354
 20
-560.020523
 40
4.243206
 50
211.80188
 51
236.309932
  0
ARC
  8
APS_GEOMETRY
 10
-492.733915
 20
-553.184581
 40
17.215035
 50
199.704454
 51
211.80188
  0
ARC
  8
APS_GEOMETRY
 10
-487.469248
 20
-551.299095
 40
22.807153
 50
190.41311
 51
199.704454
  0
ARC
  8
APS_GEOMETRY
 10
-492.031838
 20
-552.137566
 40
18.168159
 50
180.0
 51
190.41311
  0
ARC
  8
APS_GEOMETRY
 10
-504.331406
 20
-552.137566
 40
5.868591
 50
164.875993
 51
180.0
  0
ARC
  8
APS_GEOMETRY
 10
-507.63792
 20
-551.243914
 40
2.443441
 50
141.340192
 51
164.875993
  0
ARC
  8
APS_GEOMETRY
 10
-507.318099
 20
-551.458
 40
2.827106
 50
116.927678
 51
142.001268
  0
ARC
  8
APS_GEOMETRY
 10
-507.485608
 20
-551.128216
 40
2.45722
 50
90.0
 51
116.927678
  0
ARC
  8
APS_GEOMETRY
 10
-507.485608
 20
-551.134628
 40
2.463631
 50
62.209558
 51
90.0
  0
ARC
  8
APS_GEOMETRY
 10
-508.46926
 20
-553.001044
 40
4.57339
 50
41.905942
 51
62.209558
  0
ARC
  8
APS_GEOMETRY
 10
-508.302313
 20
-553.03607
 40
4.474651
 50
37.313278
 51
43.66778
  0
ARC
  8
APS_GEOMETRY
 10
-533.370082
 20
-572.141775
 40
35.993232
 50
35.073754
 51
37.313278
  0
ARC
  8
APS_GEOMETRY
 10
-561.837592
 20
-592.129601
 40
70.777026
 50
33.933582
 51
35.073754
  0
ARC
  8
APS_GEOMETRY
 10
-663.335232
 20
-660.41957
 40
193.109731
 50
33.243326
 51
33.933582
  0
ARC
  8
APS_GEOMETRY
 10
-496.215576
 20
-550.849479
 40
6.726706
 50
213.453309
 51
231.636906
  0
ARC
  8
APS_GEOMETRY
 10
-493.037044
 20
-546.83386
 40
11.848059
 50
231.636906
 51
245.313085
  0
ARC
  8
APS_GEOMETRY
 10
-492.336946
 20
-545.310819
 40
13.524302
 50
245.313085
 51
257.398477
  0
ARC
  8
APS_GEOMETRY
 10
-492.572817
 20
-546.365916
 40
12.443162
 50
257.398477
 51
270.0
  0
ARC
  8
APS_GEOMETRY
 10
-492.572817
 20
-548.303217
 40
10.505861
 50
270.0
 51
282.907409
  0
ARC
  8
APS_GEOMETRY
 10
-491.442332
 20
-553.236244
 40
5.444957
 50
282.907409
 51
300.872083
  0
ARC
  8
APS_GEOMETRY
 10
-490.462094
 20
-554.875914
 40
3.534621
 50
300.872083
 51
326.876264
  0
ARC
  8
APS_GEOMETRY
 10
-489.346014
 20
-555.604136
 40
2.201976
 50
326.876264
 51
0.0
  0
ARC
  8
APS_GEOMETRY
 10
-489.675069
 20
-555.604136
 40
2.531031
 50
0.0
 51
27.552812
  0
ARC
  8
APS_GEOMETRY
 10
-490.475578
 20
-556.021793
 40
3.433944
 50
27.552812
 51
51.146626
  0
ARC
  8
APS_GEOMETRY
 10
-492.130149
 20
-558.075743
 40
6.071427
 50
51.146626
 51
65.224859
  0
ARC
  8
APS_GEOMETRY
 10
-498.233481
 20
-571.299628
 40
20.635828
 50
65.224859
 51
72.847578
  0
ARC
  8
APS_GEOMETRY
 10
-462.592002
 20
-457.660258
 40
98.461959
 50
251.105878
 51
252.531977
  0
ARC
  8
APS_GEOMETRY
 10
-475.208288
 20
-494.521752
 40
59.501204
 50
249.271334
 51
251.105878
  0
ARC
  8
APS_GEOMETRY
 10
-480.453192
 20
-508.381016
 40
44.682696
 50
246.829602
 51
249.271334
  0
ARC
  8
APS_GEOMETRY
 10
-488.937016
 20
-528.203537
 40
23.120979
 50
243.434949
 51
246.829602
  0
ARC
  8
APS_GEOMETRY
 10
-489.902768
 20
-530.135041
 40
20.961492
 50
235.98065
 51
243.434949
  0
ARC
  8
APS_GEOMETRY
 10
-489.161161
 20
-529.036364
 40
22.287038
 50
228.751729
 51
235.98065
  0
ARC
  8
APS_GEOMETRY
 10
-492.635416
 20
-533.1304
 40
16.918465
 50
206.42073
 51
228.456619
  0
ARC
  8
APS_GEOMETRY
 10
-497.190022
 20
-535.39338
 40
11.83265
 50
180.0
 51
206.42073
  0
ARC
  8
APS_GEOMETRY
 10
-496.975202
 20
-535.39338
 40
12.04747
 50
166.55482
 51
180.0
  0
ARC
  8
APS_GEOMETRY
 10
-495.58008
 20
-535.726908
 40
13.481906
 50
153.848132
 51
166.55482
  0
ARC
  8
APS_GEOMETRY
 10
-495.463891
 20
-535.783959
 40
13.611345
 50
141.243612
 51
153.848132
  0
ARC
  8
APS_GEOMETRY
 10
-494.603661
 20
-536.474524
 40
14.714466
 50
129.122607
 51
141.243612
  0
ARC
  8
APS_GEOMETRY
 10
-491.85068
 20
-539.401684
 40
18.724658
 50
108.978219
 51
130.006256
  0
ARC
  8
APS_GEOMETRY
 10
-490.479794
 20
-543.387948
 40
22.940062
 50
90.0
 51
108.978219
  0
ARC
  8
APS_GEOMETRY
 10
-440.489241
 20
-541.711713
 40
21.263827
 50
77.257003
 51
90.0
  0
ARC
  8
APS_GEOMETRY
 10
-440.705299
 20
-542.667092
 40
22.243331
 50
64.798876
 51
77.257003
  0
ARC
  8
APS_GEOMETRY
 10
-422.38772
 20
-503.668516
 40
20.842904
 50
244.885165
 51
251.17529
  0
ARC
  8
APS_GEOMETRY
 10
-428.356247
 20
-521.176197
 40
2.345817
 50
251.17529
 51
270.0
  0
ARC
  8
APS_GEOMETRY
 10
-428.356247
 20
-519.715628
 40
3.806387
 50
270.0
 51
278.82038
  0
ARC
  8
APS_GEOMETRY
 10
-430.815336
 20
-503.868167
 40
19.843503
 50
278.82038
 51
282.680383
  0
ARC
  8
APS_GEOMETRY
 10
-425.669966
 20
-526.64876
 40
3.51099
 50
95.906141
 51
102.994617
  0
ARC
  8
APS_GEOMETRY
 10
-425.511044
 20
-528.185004
 40
5.055431
 50
90.0
 51
95.906141
  0
ARC
  8
APS_GEOMETRY
 10
-425.511044
 20
-526.485086
 40
3.355514
 50
62.447188
 51
90.0
  0
ARC
  8
APS_GEOMETRY
 10
-426.107728
 20
-527.628732
 40
4.645459
 50
39.093859
 51
62.447188
  0
ARC
  8
APS_GEOMETRY
 10
-432.341869
 20
-532.842412
 40
12.772091
 50
18.434949
 51
39.610688
  0
ARC
  8
APS_GEOMETRY
 10
-436.168465
 20
-534.117944
 40
16.805677
 50
0.0
 51
18.434949
  0
ARC
  8
APS_GEOMETRY
 10
-427.696062
 20
-534.117944
 40
8.333274
 50
334.876872
 51
0.0
  0
ARC
  8
APS_GEOMETRY
 10
-425.189715
 20
-535.293237
 40
5.565045
 50
304.007492
 51
334.876872
  0
ARC
  8
APS_GEOMETRY
 10
-425.231025
 20
-535.17569
 40
5.68568
 50
286.38954
 51
303.690068
  0
ARC
  8
APS_GEOMETRY
 10
-425.412933
 20
-534.557203
 40
6.330364
 50
270.0
 51
286.38954
  0
ARC
  8
APS_GEOMETRY
 10
-425.412933
 20
-534.630991
 40
6.256576
 50
255.154548
 51
270.0
  0
ARC
  8
APS_GEOMETRY
 10
-426.098339
 20
-537.216841
 40
3.58143
 50
235.491477
 51
255.154548
  0
ARC
  8
APS_GEOMETRY
 10
-425.754304
 20
-536.716426
 40
4.188699
 50
218.480198
 51
235.491477
  0
ARC
  8
APS_GEOMETRY
 10
-420.133431
 20
-532.248552
 40
11.368958
 50
208.17859
 51
218.480198
  0
ARC
  8
APS_GEOMETRY
 10
-477.757928
 20
-563.527705
 40
54.197767
 50
28.55962
 51
31.663799
  0
ARC
  8
APS_GEOMETRY
 10
-442.545737
 20
-541.810935
 40
12.827288
 50
31.663799
 51
38.047043
  0
ARC
  8
APS_GEOMETRY
 10
-439.985485
 20
-539.80726
 40
9.576196
 50
38.047043
 51
46.5602
  0
ARC
  8
APS_GEOMETRY
 10
-441.316272
 20
-541.212571
 40
11.511627
 50
46.5602
 51
54.323592
  0
ARC
  8
APS_GEOMETRY
 10
-442.084419
 20
-542.53398
 40
13.033852
 50
54.968356
 51
71.480419
  0
ARC
  8
APS_GEOMETRY
 10
-441.241422
 20
-540.017384
 40
10.379817
 50
71.480419
 51
90.0
  0
ARC
  8
APS_GEOMETRY
 10
-441.241422
 20
-536.888128
 40
7.250562
 50
90.0
 51
114.629635
  0
ARC
  8
APS_GEOMETRY
 10
-441.605521
 20
-536.093951
 40
6.3769
 50
114.629635
 51
140.920621
  0
ARC
  8
APS_GEOMETRY
 10
-440.529737
 20
-536.967575
 40
7.762732
 50
140.920621
 51
163.129646
  0
ARC
  8
APS_GEOMETRY
 10
-435.152314
 20
-538.598322
 40
13.381985
 50
163.129646
 51
180.0
  0
ARC
  8
APS_GEOMETRY
 10
-428.178841
 20
-538.598322
 40
20.355459
 50
180.0
 51
195.439646
  0
ARC
  8
APS_GEOMETRY
 10
-429.236915
 20
-538.890552
 40
19.25777
 50
195.439646
 51
211.31598
  0
ARC
  8
APS_GEOMETRY
 10
-434.326158
 20
-541.879886
 40
13.356544
 50
211.707816
 51
240.456928
  0
ARC
  8
APS_GEOMETRY
 10
-434.668021
 20
-542.483068
 40
12.663219
 50
240.456928
 51
270.0
  0
ARC
  8
APS_GEOMETRY
 10
-434.668021
 20
-539.395606
 40
15.750681
 50
270.0
 51
279.549134
  0
ARC
  8
APS_GEOMETRY
 10
-434.863833
 20
-538.231612
 40
16.931031
 50
279.549134
 51
288.75865
  0
ARC
  8
APS_GEOMETRY
 10
-434.038439
 20
-540.661937
 40
14.364369
 50
288.75865
 51
299.544635
  0
ARC
  8
APS_GEOMETRY
 10
-430.72879
 20
-546.501104
 40
7.652465
 50
299.544635
 51
314.341457
  0
ARC
  8
APS_GEOMETRY
 10
-420.493674
 20
-557.13208
 40
7.10519
 50
120.141386
 51
133.451842
  0
ARC
  8
APS_GEOMETRY
 10
-423.352614
 20
-552.208351
 40
1.411627
 50
90.0
 51
120.141386
  0
ARC
  8
APS_GEOMETRY
 10
-423.352614
 20
-553.026322
 40
2.229599
 50
61.951894
 51
90.0
  0
ARC
  8
APS_GEOMETRY
 10
-423.684667
 20
-553.649561
 40
2.935776
 50
37.568592
 51
61.951894
  0
ARC
  8
APS_GEOMETRY
 10
-424.303948
 20
-554.125931
 40
3.71708
 50
17.665186
 51
37.568592
  0
ARC
  8
APS_GEOMETRY
 10
-425.248711
 20
-554.426811
 40
4.708598
 50
0.0
 51
17.665186
  0
ARC
  8
APS_GEOMETRY
 10
-427.620694
 20
-554.426811
 40
7.08058
 50
344.931512
 51
0.0
  0
ARC
  8
APS_GEOMETRY
 10
-433.918721
 20
-552.731188
 40
13.602871
 50
334.075098
 51
344.931512
  0
ARC
  8
APS_GEOMETRY
 10
-434.116771
 20
-552.634914
 40
13.823082
 50
323.374259
 51
334.075098
  0
ARC
  8
APS_GEOMETRY
 10
-430.053007
 20
-555.655765
 40
8.759514
 50
309.920392
 51
323.374259
  0
ARC
  8
APS_GEOMETRY
 10
-425.991967
 20
-560.446529
 40
2.479565
 50
289.025606
 51
308.990994
  0
ARC
  8
APS_GEOMETRY
 10
-430.324923
 20
-547.880955
 40
15.771223
 50
281.14289
 51
289.025606
  0
ARC
  8
APS_GEOMETRY
 10
-425.930901
 20
-570.662434
 40
7.430522
 50
100.437475
 51
110.119633
  0
ARC
  8
APS_GEOMETRY
 10
-420.109762
 20
-586.552569
 40
24.353349
 50
110.119633
 51
115.463345
  0
ARC
  8
APS_GEOMETRY
 10
-440.890875
 20
-543.071977
 40
23.838158
 50
282.940436
 51
295.628419
  0
ARC
  8
APS_GEOMETRY
 10
-440.685462
 20
-543.965955
 40
22.920885
 50
270.0
 51
282.940436
  0
ARC
  8
APS_GEOMETRY
 10
-440.685462
 20
-542.612033
 40
24.274807
 50
257.307334
 51
270.0
  0
ARC
  8
APS_GEOMETRY
 10
-439.660732
 20
-538.062229
 40
28.938581
 50
245.686204
 51
257.307334
  0
ARC
  8
APS_GEOMETRY
 10
-442.230953
 20
-543.703724
 40
22.739224
 50
228.800778
 51
245.735234
  0
ARC
  8
APS_GEOMETRY
 10
-442.18789
 20
-543.654533
 40
22.804602
 50
211.890792
 51
228.800778
  0
ARC
  8
APS_GEOMETRY
 10
-440.840281
 20
-542.684528
 40
24.461509
 50
196.727964
 51
212.152295
  0
ARC
  8
APS_GEOMETRY
 10
-444.328068
 20
-543.73277
 40
20.819604
 50
180.0
 51
196.727964
  0
ARC
  8
APS_GEOMETRY
 10
-443.820728
 20
-543.73277
 40
21.326944
 50
161.183932
 51
180.0
  0
ARC
  8
APS_GEOMETRY
 10
-442.452405
 20
-544.199013
 40
22.77252
 50
142.980114
 51
161.183932
  0
ARC
  8
APS_GEOMETRY
 10
-441.388338
 20
-545.013331
 40
24.112395
 50
127.824257
 51
142.957525
  0
ARC
  8
APS_GEOMETRY
 10
-439.63436
 20
-547.27257
 40
26.972571
 50
113.520273
 51
127.824257
  0
ARC
  8
APS_GEOMETRY
 10
-440.205261
 20
-545.953273
 40
25.535051
 50
101.926773
 51
113.527064
  0
ARC
  8
APS_GEOMETRY
 10
-440.489241
 20
-544.608801
 40
24.160915
 50
90.0
 51
101.926773
  0
ARC
  8
APS_GEOMETRY
 10
-390.008137
 20
-546.229411
 40
25.781524
 50
71.909511
 51
90.0
  0
ARC
  8
APS_GEOMETRY
 10
-389.009637
 20
-543.172778
 40
22.565936
 50
52.561428
 51
71.909511
  0
ARC
  8
APS_GEOMETRY
 10
-389.271165
 20
-543.24884
 40
22.785888
 50
38.846006
 51
52.155542
  0
ARC
  8
APS_GEOMETRY
 10
-392.843298
 20
-546.125635
 40
27.372399
 50
26.707224
 51
38.846006
  0
ARC
  8
APS_GEOMETRY
 10
-392.136164
 20
-545.547723
 40
26.481717
 50
13.867603
 51
26.277857
  0
ARC
  8
APS_GEOMETRY
 10
-387.036443
 20
-544.288729
 40
21.228887
 50
0.0
 51
13.867603
  0
ARC
  8
APS_GEOMETRY
 10
-386.706236
 20
-544.288729
 40
20.898681
 50
339.712247
 51
0.0
  0
ARC
  8
APS_GEOMETRY
 10
-387.882739
 20
-543.853814
 40
22.152997
 50
320.013114
 51
339.712247
  0
ARC
  8
APS_GEOMETRY
 10
-388.077837
 20
-543.746266
 40
22.371633
 50
303.343757
 51
320.123166
  0
ARC
  8
APS_GEOMETRY
 10
-390.373567
 20
-540.257162
 40
26.548261
 50
287.949403
 51
303.343757
  0
ARC
  8
APS_GEOMETRY
 10
-391.127821
 20
-537.642052
 40
29.268668
 50
279.039483
 51
287.776406
  0
ARC
  8
APS_GEOMETRY
 10
-390.825724
 20
-539.540947
 40
27.345893
 50
270.0
 51
279.039483
  0
ARC
  8
APS_GEOMETRY
 10
-390.825724
 20
-540.875987
 40
26.010853
 50
257.72804
 51
270.0
  0
ARC
  8
APS_GEOMETRY
 10
-390.784796
 20
-540.687832
 40
26.203407
 50
245.501426
 51
257.72804
  0
ARC
  8
APS_GEOMETRY
 10
-392.257502
 20
-543.910607
 40
22.660086
 50
228.665185
 51
245.510859
  0
ARC
  8
APS_GEOMETRY
 10
-392.747299
 20
-544.467448
 40
21.918485
 50
211.534792
 51
228.665185
  0
ARC
  8
APS_GEOMETRY
 10
-392.105321
 20
-543.996006
 40
22.712325
 50
195.642246
 51
211.70143
  0
ARC
  8
APS_GEOMETRY
 10
-390.931595
 20
-543.667363
 40
23.931193
 50
180.0
 51
195.642246
  0
ARC
  8
APS_GEOMETRY
 10
-390.680029
 20
-543.667363
 40
24.182759
 50
162.181111
 51
180.0
  0
ARC
  8
APS_GEOMETRY
 10
-392.886522
 20
-542.958133
 40
21.865083
 50
143.433519
 51
162.181111
  0
ARC
  8
APS_GEOMETRY
 10
-393.183405
 20
-542.720351
 40
21.484982
 50
126.384352
 51
143.471145
  0
ARC
  8
APS_GEOMETRY
 10
-391.149274
 20
-545.480958
 40
24.91407
 50
110.525108
 51
126.384352
  0
ARC
  8
APS_GEOMETRY
 10
-391.249962
 20
-544.731342
 40
24.177325
 50
99.7697
 51
110.924502
  0
ARC
  8
APS_GEOMETRY
 10
-390.008137
 20
-551.94348
 40
31.495593
 50
90.0
 51
99.7697
  0
ARC
  8
APS_GEOMETRY
 10
-393.114968
 20
-534.640944
 40
4.807157
 50
90.0
 51
119.604451
  0
ARC
  8
APS_GEOMETRY
 10
-392.693926
 20
-535.381979
 40
5.659453
 50
119.604451
 51
146.842076
  0
ARC
  8
APS_GEOMETRY
 10
-391.847749
 20
-536.075746
 40
6.74833
 50
145.840305
 51
164.054604
  0
ARC
  8
APS_GEOMETRY
 10
-389.886464
 20
-536.636113
 40
8.788097
 50
164.054604
 51
180.0
  0
ARC
  8
APS_GEOMETRY
 10
-377.622008
 20
-536.636113
 40
21.052553
 50
180.0
 51
189.976729
  0
ARC
  8
APS_GEOMETRY
 10
-358.970411
 20
-533.355144
 40
39.990527
 50
189.976729
 51
197.211115
  0
ARC
  8
APS_GEOMETRY
 10
-354.890897
 20
-532.091456
 40
44.261281
 50
197.211115
 51
203.760424
  0
ARC
  8
APS_GEOMETRY
 10
-365.053597
 20
-536.565358
 40
33.157396
 50
203.760424
 51
211.328693
  0
ARC
  8
APS_GEOMETRY
 10
-385.921734
 20
-549.089103
 40
8.821499
 50
212.319617
 51
224.440823
  0
ARC
  8
APS_GEOMETRY
 10
-386.777154
 20
-549.927987
 40
7.623388
 50
224.440823
 51
237.483626
  0
ARC
  8
APS_GEOMETRY
 10
-387.329948
 20
-550.795152
 40
6.595013
 50
237.483626
 51
252.415923
  0
ARC
  8
APS_GEOMETRY
 10
-387.88241
 20
-552.538415
 40
4.766303
 50
252.415923
 51
270.0
  0
ARC
  8
APS_GEOMETRY
 10
-387.88241
 20
-551.973257
 40
5.331461
 50
270.0
 51
294.952847
  0
ARC
  8
APS_GEOMETRY
 10
-387.733037
 20
-552.294279
 40
4.977388
 50
294.952847
 51
320.792796
  0
ARC
  8
APS_GEOMETRY
 10
-388.533686
 20
-551.641117
 40
6.010664
 50
320.792796
 51
342.776564
  0
ARC
  8
APS_GEOMETRY
 10
-392.101498
 20
-550.535096
 40
9.745978
 50
342.776564
 51
0.0
  0
ARC
  8
APS_GEOMETRY
 10
-408.862618
 20
-550.535096
 40
26.507098
 50
0.0
 51
8.498559
  0
ARC
  8
APS_GEOMETRY
 10
-420.529947
 20
-552.278489
 40
38.30396
 50
8.498559
 51
15.566318
  0
ARC
  8
APS_GEOMETRY
 10
-419.127133
 20
-551.887706
 40
36.847733
 50
15.566318
 51
22.908635
  0
ARC
  8
APS_GEOMETRY
 10
-407.06343
 20
-546.789655
 40
23.751053
 50
22.908635
 51
32.057376
  0
ARC
  8
APS_GEOMETRY
 10
-397.587695
 20
-540.820074
 40
12.551777
 50
31.920876
 51
42.510447
  0
ARC
  8
APS_GEOMETRY
 10
-394.985651
 20
-538.434867
 40
9.021927
 50
42.510447
 51
55.00798
  0
ARC
  8
APS_GEOMETRY
 10
-394.106779
 20
-537.179335
 40
7.489354
 50
55.00798
 51
69.880367
  0
ARC
  8
APS_GEOMETRY
 10
-393.318662
 20
-535.027991
 40
5.198196
 50
69.880367
 51
87.754257
  0
ARC
  8
APS_GEOMETRY
 10
-336.649125
 20
-541.711713
 40
21.263827
 50
77.257003
 51
90.0
  0
ARC
  8
APS_GEOMETRY
 10
-336.865183
 20
-542.667092
 40
22.243331
 50
64.798876
 51
77.257003
  0
ARC
  8
APS_GEOMETRY
 10
-318.547603
 20
-503.668516
 40
20.842904
 50
244.885165
 51
251.17529
  0
ARC
  8
APS_GEOMETRY
 10
-324.516131
 20
-521.176197
 40
2.345817
 50
251.17529
 51
270.0
  0
ARC
  8
APS_GEOMETRY
 10
-324.516131
 20
-519.715628
 40
3.806387
 50
270.0
 51
278.82038
  0
ARC
  8
APS_GEOMETRY
 10
-326.97522
 20
-503.868167
 40
19.843503
 50
278.82038
 51
282.680383
  0
ARC
  8
APS_GEOMETRY
 10
-321.829849
 20
-526.64876
 40
3.51099
 50
95.906141
 51
102.994617
  0
ARC
  8
APS_GEOMETRY
 10
-321.670928
 20
-528.185004
 40
5.055431
 50
90.0
 51
95.906141
  0
ARC
  8
APS_GEOMETRY
 10
-321.670928
 20
-526.485086
 40
3.355514
 50
62.447188
 51
90.0
  0
ARC
  8
APS_GEOMETRY
 10
-322.267612
 20
-527.628732
 40
4.645459
 50
39.093859
 51
62.447188
  0
ARC
  8
APS_GEOMETRY
 10
-328.501753
 20
-532.842412
 40
12.772091
 50
18.434949
 51
39.610688
  0
ARC
  8
APS_GEOMETRY
 10
-332.328349
 20
-534.117944
 40
16.805677
 50
0.0
 51
18.434949
  0
ARC
  8
APS_GEOMETRY
 10
-323.855946
 20
-534.117944
 40
8.333274
 50
334.876872
 51
0.0
  0
ARC
  8
APS_GEOMETRY
 10
-321.349598
 20
-535.293237
 40
5.565045
 50
304.007492
 51
334.876872
  0
ARC
  8
APS_GEOMETRY
 10
-321.390909
 20
-535.17569
 40
5.68568
 50
286.38954
 51
303.690068
  0
ARC
  8
APS_GEOMETRY
 10
-321.572817
 20
-534.557203
 40
6.330364
 50
270.0
 51
286.38954
  0
ARC
  8
APS_GEOMETRY
 10
-321.572817
 20
-534.630991
 40
6.256576
 50
255.154548
 51
270.0
  0
ARC
  8
APS_GEOMETRY
 10
-322.258223
 20
-537.216841
 40
3.58143
 50
235.491477
 51
255.154548
  0
ARC
  8
APS_GEOMETRY
 10
-321.914188
 20
-536.716426
 40
4.188699
 50
218.480198
 51
235.491477
  0
ARC
  8
APS_GEOMETRY
 10
-316.293315
 20
-532.248552
 40
11.368958
 50
208.17859
 51
218.480198
  0
ARC
  8
APS_GEOMETRY
 10
-373.917812
 20
-563.527705
 40
54.197767
 50
28.55962
 51
31.663799
  0
ARC
  8
APS_GEOMETRY
 10
-338.705621
 20
-541.810935
 40
12.827288
 50
31.663799
 51
38.047043
  0
ARC
  8
APS_GEOMETRY
 10
-336.145369
 20
-539.80726
 40
9.576196
 50
38.047043
 51
46.5602
  0
ARC
  8
APS_GEOMETRY
 10
-337.476156
 20
-541.212571
 40
11.511627
 50
46.5602
 51
54.323592
  0
ARC
  8
APS_GEOMETRY
 10
-338.244303
 20
-542.53398
 40
13.033852
 50
54.968356
 51
71.480419
  0
ARC
  8
APS_GEOMETRY
 10
-337.401305
 20
-540.017384
 40
10.379817
 50
71.480419
 51
90.0
  0
ARC
  8
APS_GEOMETRY
 10
-337.401305
 20
-536.888128
 40
7.250562
 50
90.0
 51
114.629635
  0
ARC
  8
APS_GEOMETRY
 10
-337.765405
 20
-536.093951
 40
6.3769
 50
114.629635
 51
140.920621
  0
ARC
  8
APS_GEOMETRY
 10
-336.68962
 20
-536.967575
 40
7.762732
 50
140.920621
 51
163.129646
  0
ARC
  8
APS_GEOMETRY
 10
-331.312198
 20
-538.598322
 40
13.381985
 50
163.129646
 51
180.0
  0
ARC
  8
APS_GEOMETRY
 10
-324.338725
 20
-538.598322
 40
20.355459
 50
180.0
 51
195.439646
  0
ARC
  8
APS_GEOMETRY
 10
-325.396799
 20
-538.890552
 40
19.25777
 50
195.439646
 51
211.31598
  0
ARC
  8
APS_GEOMETRY
 10
-330.486041
 20
-541.879886
 40
13.356544
 50
211.707816
 51
240.456928
  0
ARC
  8
APS_GEOMETRY
 10
-330.827904
 20
-542.483068
 40
12.663219
 50
240.456928
 51
270.0
  0
ARC
  8
APS_GEOMETRY
 10
-330.827904
 20
-539.395606
 40
15.750681
 50
270.0
 51
279.549134
  0
ARC
  8
APS_GEOMETRY
 10
-331.023716
 20
-538.231612
 40
16.931031
 50
279.549134
 51
288.75865
  0
ARC
  8
APS_GEOMETRY
 10
-330.198323
 20
-540.661937
 40
14.364369
 50
288.75865
 51
299.544635
  0
ARC
  8
APS_GEOMETRY
 10
-326.888674
 20
-546.501104
 40
7.652465
 50
299.544635
 51
314.341457
  0
ARC
  8
APS_GEOMETRY
 10
-316.653557
 20
-557.13208
 40
7.10519
 50
120.141386
 51
133.451842
  0
ARC
  8
APS_GEOMETRY
 10
-319.512497
 20
-552.208351
 40
1.411627
 50
90.0
 51
120.141386
  0
ARC
  8
APS_GEOMETRY
 10
-319.512497
 20
-553.026322
 40
2.229599
 50
61.951894
 51
90.0
  0
ARC
  8
APS_GEOMETRY
 10
-319.844551
 20
-553.649561
 40
2.935776
 50
37.568592
 51
61.951894
  0
ARC
  8
APS_GEOMETRY
 10
-320.463831
 20
-554.125931
 40
3.71708
 50
17.665186
 51
37.568592
  0
ARC
  8
APS_GEOMETRY
 10
-321.408595
 20
-554.426811
 40
4.708598
 50
0.0
 51
17.665186
  0
ARC
  8
APS_GEOMETRY
 10
-323.780578
 20
-554.426811
 40
7.08058
 50
344.931512
 51
0.0
  0
ARC
  8
APS_GEOMETRY
 10
-330.078604
 20
-552.731188
 40
13.602871
 50
334.075098
 51
344.931512
  0
ARC
  8
APS_GEOMETRY
 10
-330.276655
 20
-552.634914
 40
13.823082
 50
323.374259
 51
334.075098
  0
ARC
  8
APS_GEOMETRY
 10
-326.212891
 20
-555.655765
 40
8.759514
 50
309.920392
 51
323.374259
  0
ARC
  8
APS_GEOMETRY
 10
-322.15185
 20
-560.446529
 40
2.479565
 50
289.025606
 51
308.990994
  0
ARC
  8
APS_GEOMETRY
 10
-326.484807
 20
-547.880955
 40
15.771223
 50
281.14289
 51
289.025606
  0
ARC
  8
APS_GEOMETRY
 10
-322.090784
 20
-570.662434
 40
7.430522
 50
100.437475
 51
110.119633
  0
ARC
  8
APS_GEOMETRY
 10
-316.269646
 20
-586.552569
 40
24.353349
 50
110.119633
 51
115.463345
  0
ARC
  8
APS_GEOMETRY
 10
-337.050758
 20
-543.071977
 40
23.838158
 50
282.940436
 51
295.628419
  0
ARC
  8
APS_GEOMETRY
 10
-336.845346
 20
-543.965955
 40
22.920885
 50
270.0
 51
282.940436
  0
ARC
  8
APS_GEOMETRY
 10
-336.845346
 20
-542.612033
 40
24.274807
 50
257.307334
 51
270.0
  0
ARC
  8
APS_GEOMETRY
 10
-335.820616
 20
-538.062229
 40
28.938581
 50
245.686204
 51
257.307334
  0
ARC
  8
APS_GEOMETRY
 10
-338.390837
 20
-543.703724
 40
22.739224
 50
228.800778
 51
245.735234
  0
ARC
  8
APS_GEOMETRY
 10
-338.347774
 20
-543.654533
 40
22.804602
 50
211.890792
 51
228.800778
  0
ARC
  8
APS_GEOMETRY
 10
-337.000164
 20
-542.684528
 40
24.461509
 50
196.727964
 51
212.152295
  0
ARC
  8
APS_GEOMETRY
 10
-340.487952
 20
-543.73277
 40
20.819604
 50
180.0
 51
196.727964
  0
ARC
  8
APS_GEOMETRY
 10
-339.980612
 20
-543.73277
 40
21.326944
 50
161.183932
 51
180.0
  0
ARC
  8
APS_GEOMETRY
 10
-338.612289
 20
-544.199013
 40
22.77252
 50
142.980114
 51
161.183932
  0
ARC
  8
APS_GEOMETRY
 10
-337.548222
 20
-545.013331
 40
24.112395
 50
127.824257
 51
142.957525
  0
ARC
  8
APS_GEOMETRY
 10
-335.794243
 20
-547.27257
 40
26.972571
 50
113.520273
 51
127.824257
  0
ARC
  8
APS_GEOMETRY
 10
-336.365144
 20
-545.953273
 40
25.535051
 50
101.926773
 51
113.527064
  0
ARC
  8
APS_GEOMETRY
 10
-336.649125
 20
-544.608801
 40
24.160915
 50
90.0
 51
101.926773
  0
ARC
  8
APS_GEOMETRY
 10
-286.168021
 20
-546.229411
 40
25.781524
 50
71.909511
 51
90.0
  0
ARC
  8
APS_GEOMETRY
 10
-285.169521
 20
-543.172778
 40
22.565936
 50
52.561428
 51
71.909511
  0
ARC
  8
APS_GEOMETRY
 10
-285.431048
 20
-543.24884
 40
22.785888
 50
38.846006
 51
52.155542
  0
ARC
  8
APS_GEOMETRY
 10
-289.003182
 20
-546.125635
 40
27.372399
 50
26.707224
 51
38.846006
  0
ARC
  8
APS_GEOMETRY
 10
-288.296048
 20
-545.547723
 40
26.481717
 50
13.867603
 51
26.277857
  0
ARC
  8
APS_GEOMETRY
 10
-283.196326
 20
-544.288729
 40
21.228887
 50
0.0
 51
13.867603
  0
ARC
  8
APS_GEOMETRY
 10
-282.86612
 20
-544.288729
 40
20.898681
 50
339.712247
 51
0.0
  0
ARC
  8
APS_GEOMETRY
 10
-284.042623
 20
-543.853814
 40
22.152997
 50
320.013114
 51
339.712247
  0
ARC
  8
APS_GEOMETRY
 10
-284.237721
 20
-543.746266
 40
22.371633
 50
303.343757
 51
320.123166
  0
ARC
  8
APS_GEOMETRY
 10
-286.53345
 20
-540.257162
 40
26.548261
 50
287.949403
 51
303.343757
  0
ARC
  8
APS_GEOMETRY
 10
-287.287705
 20
-537.642052
 40
29.268668
 50
279.039483
 51
287.776406
  0
ARC
  8
APS_GEOMETRY
 10
-286.985608
 20
-539.540947
 40
27.345893
 50
270.0
 51
279.039483
  0
ARC
  8
APS_GEOMETRY
 10
-286.985608
 20
-540.875987
 40
26.010853
 50
257.72804
 51
270.0
  0
ARC
  8
APS_GEOMETRY
 10
-286.94468
 20
-540.687832
 40
26.203407
 50
245.501426
 51
257.72804
  0
ARC
  8
APS_GEOMETRY
 10
-288.417386
 20
-543.910607
 40
22.660086
 50
228.665185
 51
245.510859
  0
ARC
  8
APS_GEOMETRY
 10
-288.907182
 20
-544.467448
 40
21.918485
 50
211.534792
 51
228.665185
  0
ARC
  8
APS_GEOMETRY
 10
-288.265205
 20
-543.996006
 40
22.712325
 50
195.642246
 51
211.70143
  0
ARC
  8
APS_GEOMETRY
 10
-287.091479
 20
-543.667363
 40
23.931193
 50
180.0
 51
195.642246
  0
ARC
  8
APS_GEOMETRY
 10
-286.839913
 20
-543.667363
 40
24.182759
 50
162.181111
 51
180.0
  0
ARC
  8
APS_GEOMETRY
 10
-289.046406
 20
-542.958133
 40
21.865083
 50
143.433519
 51
162.181111
  0
ARC
  8
APS_GEOMETRY
 10
-289.343289
 20
-542.720351
 40
21.484982
 50
126.384352
 51
143.471145
  0
ARC
  8
APS_GEOMETRY
 10
-287.309157
 20
-545.480958
 40
24.91407
 50
110.525108
 51
126.384352
  0
ARC
  8
APS_GEOMETRY
 10
-287.409846
 20
-544.731342
 40
24.177325
 50
99.7697
 51
110.924502
  0
ARC
  8
APS_GEOMETRY
 10
-286.168021
 20
-551.94348
 40
31.495593
 50
90.0
 51
99.7697
  0
ARC
  8
APS_GEOMETRY
 10
-289.274852
 20
-534.640944
 40
4.807157
 50
90.0
 51
119.604451
  0
ARC
  8
APS_GEOMETRY
 10
-288.853809
 20
-535.381979
 40
5.659453
 50
119.604451
 51
146.842076
  0
ARC
  8
APS_GEOMETRY
 10
-288.007633
 20
-536.075746
 40
6.74833
 50
145.840305
 51
164.054604
  0
ARC
  8
APS_GEOMETRY
 10
-286.046348
 20
-536.636113
 40
8.788097
 50
164.054604
 51
180.0
  0
ARC
  8
APS_GEOMETRY
 10
-273.781892
 20
-536.636113
 40
21.052553
 50
180.0
 51
189.976729
  0
ARC
  8
APS_GEOMETRY
 10
-255.130294
 20
-533.355144
 40
39.990527
 50
189.976729
 51
197.211115
  0
ARC
  8
APS_GEOMETRY
 10
-251.050781
 20
-532.091456
 40
44.261281
 50
197.211115
 51
203.760424
  0
ARC
  8
APS_GEOMETRY
 10
-261.21348
 20
-536.565358
 40
33.157396
 50
203.760424
 51
211.328693
  0
ARC
  8
APS_GEOMETRY
 10
-282.081618
 20
-549.089103
 40
8.821499
 50
212.319617
 51
224.440823
  0
ARC
  8
APS_GEOMETRY
 10
-282.937038
 20
-549.927987
 40
7.623388
 50
224.440823
 51
237.483626
  0
ARC
  8
APS_GEOMETRY
 10
-283.489831
 20
-550.795152
 40
6.595013
 50
237.483626
 51
252.415923
  0
ARC
  8
APS_GEOMETRY
 10
-284.042294
 20
-552.538415
 40
4.766303
 50
252.415923
 51
270.0
  0
ARC
  8
APS_GEOMETRY
 10
-284.042294
 20
-551.973257
 40
5.331461
 50
270.0
 51
294.952847
  0
ARC
  8
APS_GEOMETRY
 10
-283.89292
 20
-552.294279
 40
4.977388
 50
294.952847
 51
320.792796
  0
ARC
  8
APS_GEOMETRY
 10
-284.69357
 20
-551.641117
 40
6.010664
 50
320.792796
 51
342.776564
  0
ARC
  8
APS_GEOMETRY
 10
-288.261382
 20
-550.535096
 40
9.745978
 50
342.776564
 51
0.0
  0
ARC
  8
APS_GEOMETRY
 10
-305.022502
 20
-550.535096
 40
26.507098
 50
0.0
 51
8.498559
  0
ARC
  8
APS_GEOMETRY
 10
-316.68983
 20
-552.278489
 40
38.30396
 50
8.498559
 51
15.566318
  0
ARC
  8
APS_GEOMETRY
 10
-315.287016
 20
-551.887706
 40
36.847733
 50
15.566318
 51
22.908635
  0
ARC
  8
APS_GEOMETRY
 10
-303.223314
 20
-546.789655
 40
23.751053
 50
22.908635
 51
32.057376
  0
ARC
  8
APS_GEOMETRY
 10
-293.747579
 20
-540.820074
 40
12.551777
 50
31.920876
 51
42.510447
  0
ARC
  8
APS_GEOMETRY
 10
-291.145535
 20
-538.434867
 40
9.021927
 50
42.510447
 51
55.00798
  0
ARC
  8
APS_GEOMETRY
 10
-290.266662
 20
-537.179335
 40
7.489354
 50
55.00798
 51
69.880367
  0
ARC
  8
APS_GEOMETRY
 10
-289.478546
 20
-535.027991
 40
5.198196
 50
69.880367
 51
87.754257
  0
ARC
  8
APS_GEOMETRY
 10
-235.654212
 20
-549.651817
 40
2.419773
 50
90.0
 51
115.836754
  0
ARC
  8
APS_GEOMETRY
 10
-236.24999
 20
-548.421406
 40
1.05271
 50
115.836754
 51
155.462272
  0
ARC
  8
APS_GEOMETRY
 10
-235.554709
 20
-548.738817
 40
1.817018
 50
155.462272
 51
168.366366
  0
ARC
  8
APS_GEOMETRY
 10
-229.208721
 20
-550.045344
 40
8.296105
 50
168.366366
 51
174.395461
  0
ARC
  8
APS_GEOMETRY
 10
-222.813085
 20
-550.672953
 40
14.722461
 50
174.395461
 51
177.813405
  0
ARC
  8
APS_GEOMETRY
 10
-201.584562
 20
-551.483497
 40
35.966453
 50
177.813405
 51
180.0
  0
ARC
  8
APS_GEOMETRY
 10
-186.216291
 20
-551.483497
 40
51.334724
 50
180.0
 51
184.619923
  0
ARC
  8
APS_GEOMETRY
 10
-220.63612
 20
-554.264897
 40
16.802697
 50
184.619923
 51
192.699584
  0
ARC
  8
APS_GEOMETRY
 10
-233.906263
 20
-557.178413
 40
3.217564
 50
194.036243
 51
205.820992
  0
ARC
  8
APS_GEOMETRY
 10
-235.311618
 20
-557.858424
 40
1.656336
 50
205.820992
 51
222.273689
  0
ARC
  8
APS_GEOMETRY
 10
-234.881091
 20
-557.467036
 40
2.238175
 50
222.273689
 51
234.605204
  0
ARC
  8
APS_GEOMETRY
 10
-230.020701
 20
-550.626488
 40
10.629629
 50
234.605204
 51
240.255119
  0
ARC
  8
APS_GEOMETRY
 10
-237.40942
 20
-563.700946
 40
4.388594
 50
34.592289
 51
61.189206
  0
ARC
  8
APS_GEOMETRY
 10
-235.959199
 20
-562.700793
 40
2.626934
 50
0.0
 51
34.592289
  0
ARC
  8
APS_GEOMETRY
 10
-235.87153
 20
-562.700793
 40
2.539265
 50
318.230949
 51
0.0
  0
ARC
  8
APS_GEOMETRY
 10
-237.569673
 20
-561.184127
 40
4.816098
 50
288.227257
 51
318.230949
  0
ARC
  8
APS_GEOMETRY
 10
-239.330775
 20
-555.836281
 40
10.446456
 50
280.377402
 51
288.227257
  0
ARC
  8
APS_GEOMETRY
 10
-242.400634
 20
-539.072703
 40
27.488803
 50
275.540609
 51
280.377402
  0
ARC
  8
APS_GEOMETRY
 10
-243.723546
 20
-525.43505
 40
41.19047
 50
272.304132
 51
275.540609
  0
ARC
  8
APS_GEOMETRY
 10
-245.334445
 20
-485.399188
 40
81.258728
 50
270.0
 51
272.304132
  0
ARC
  8
APS_GEOMETRY
 10
-245.334445
 20
-518.85792
 40
47.799995
 50
262.811463
 51
270.0
  0
ARC
  8
APS_GEOMETRY
 10
-249.623528
 20
-552.864223
 40
13.524277
 50
249.274441
 51
262.811463
  0
ARC
  8
APS_GEOMETRY
 10
-252.321471
 20
-559.9945
 40
5.900647
 50
221.378515
 51
249.274441
  0
ARC
  8
APS_GEOMETRY
 10
-254.688145
 20
-562.079427
 40
2.746591
 50
180.0
 51
221.378515
  0
ARC
  8
APS_GEOMETRY
 10
-254.706262
 20
-562.079427
 40
2.728474
 50
164.054604
 51
180.0
  0
ARC
  8
APS_GEOMETRY
 10
-255.843669
 20
-561.754453
 40
1.545552
 50
142.815294
 51
164.054604
  0
ARC
  8
APS_GEOMETRY
 10
-255.127837
 20
-562.297499
 40
2.444059
 50
129.007473
 51
142.815294
  0
ARC
  8
APS_GEOMETRY
 10
-246.335877
 20
-573.15177
 40
16.412372
 50
123.690068
 51
129.007473
  0
ARC
  8
APS_GEOMETRY
 10
-258.812359
 20
-554.3789
 40
6.128392
 50
303.388514
 51
319.02199
  0
ARC
  8
APS_GEOMETRY
 10
-257.153845
 20
-555.819507
 40
3.931572
 50
319.02199
 51
338.574706
  0
ARC
  8
APS_GEOMETRY
 10
-259.37334
 20
-554.948566
 40
6.315832
 50
338.574706
 51
351.048929
  0
ARC
  8
APS_GEOMETRY
 10
-286.179417
 20
-550.726363
 40
33.45239
 50
351.048929
 51
356.460441
  0
ARC
  8
APS_GEOMETRY
 10
-277.343396
 20
-551.062583
 40
24.613362
 50
355.971736
 51
358.680054
  0
ARC
  8
APS_GEOMETRY
 10
-567.534328
 20
-544.376156
 40
314.881317
 50
358.680054
 51
359.437191
  0
LINE
  8
APS_GEOMETRY
 10
-252.668202
 11
-252.637543
 20
-547.469144
 21
-542.557488
  0
LINE
  8
APS_GEOMETRY
 10
-252.637543
 11
-252.627323
 20
-542.557488
 21
-536.145561
  0
ARC
  8
APS_GEOMETRY
 10
-328.436563
 20
-536.145561
 40
75.80924
 50
0.0
 51
1.717132
  0
ARC
  8
APS_GEOMETRY
 10
-287.868051
 20
-534.929374
 40
35.222502
 50
1.717132
 51
4.236395
  0
ARC
  8
APS_GEOMETRY
 10
-274.638817
 20
-533.949431
 40
21.957024
 50
4.236395
 51
8.268833
  0
ARC
  8
APS_GEOMETRY
 10
-259.415146
 20
-531.736994
 40
6.573427
 50
8.268833
 51
15.642246
  0
ARC
  8
APS_GEOMETRY
 10
-256.795161
 20
-531.003398
 40
3.852677
 50
15.642246
 51
39.417394
  0
ARC
  8
APS_GEOMETRY
 10
-256.736245
 20
-530.954974
 40
3.776414
 50
39.417394
 51
63.434949
  0
ARC
  8
APS_GEOMETRY
 10
-249.934905
 20
-516.865392
 40
11.86934
 50
236.873849
 51
244.48613
  0
ARC
  8
APS_GEOMETRY
 10
-254.994376
 20
-524.618868
 40
2.611121
 50
220.601295
 51
236.873849
  0
ARC
  8
APS_GEOMETRY
 10
-255.574693
 20
-525.116282
 40
1.846799
 50
198.245855
 51
220.601295
  0
ARC
  8
APS_GEOMETRY
 10
-254.706771
 20
-524.830154
 40
2.760668
 50
180.0
 51
198.245855
  0
ARC
  8
APS_GEOMETRY
 10
-254.719855
 20
-524.830154
 40
2.747584
 50
156.16126
 51
180.0
  0
ARC
  8
APS_GEOMETRY
 10
-254.336643
 20
-524.99948
 40
3.166539
 50
133.97697
 51
156.16126
  0
ARC
  8
APS_GEOMETRY
 10
-253.573189
 20
-525.790696
 40
4.266032
 50
116.995838
 51
133.97697
  0
ARC
  8
APS_GEOMETRY
 10
-252.056348
 20
-528.768199
 40
7.607638
 50
104.300277
 51
116.995838
  0
ARC
  8
APS_GEOMETRY
 10
-251.664373
 20
-530.274182
 40
9.16378
 50
95.325741
 51
104.349332
  0
ARC
  8
APS_GEOMETRY
 10
-250.076451
 20
-547.308258
 40
26.271709
 50
90.0
 51
95.325741
  0
ARC
  8
APS_GEOMETRY
 10
-250.076451
 20
-534.049507
 40
13.012958
 50
87.552951
 51
90.0
  0
ARC
  8
APS_GEOMETRY
 10
-252.845151
 20
-598.837081
 40
77.859665
 50
86.552613
 51
87.552951
  0
ARC
  8
APS_GEOMETRY
 10
-256.7817
 20
-664.1838
 40
143.324848
 50
86.009087
 51
86.552613
  0
ARC
  8
APS_GEOMETRY
 10
-272.089602
 20
-883.59706
 40
363.271456
 50
85.667686
 51
86.009087
  0
ARC
  8
APS_GEOMETRY
 10
-243.441495
 20
-506.286372
 40
15.125382
 50
265.426079
 51
268.531199
  0
ARC
  8
APS_GEOMETRY
 10
-242.0968
 20
-453.843261
 40
67.58573
 50
268.531199
 51
270.0
  0
ARC
  8
APS_GEOMETRY
 10
-242.0968
 20
-469.918359
 40
51.510632
 50
270.0
 51
271.636577
  0
ARC
  8
APS_GEOMETRY
 10
-243.247787
 20
-429.633816
 40
91.811614
 50
271.636577
 51
272.862405
  0
ARC
  8
APS_GEOMETRY
 10
-244.569265
 20
-403.204238
 40
118.274209
 50
272.862405
 51
273.814075
  0
ARC
  8
APS_GEOMETRY
 10
-249.042856
 20
-336.100375
 40
185.527026
 50
273.814075
 51
274.573921
  0
ARC
  8
APS_GEOMETRY
 10
-220.98078
 20
-701.09117
 40
180.54275
 50
93.719877
 51
94.214179
  0
ARC
  8
APS_GEOMETRY
 10
-226.969877
 20
-608.973151
 40
88.230244
 50
93.012788
 51
93.719877
  0
ARC
  8
APS_GEOMETRY
 10
-228.611765
 20
-577.77728
 40
56.991196
 50
91.91828
 51
93.012788
  0
ARC
  8
APS_GEOMETRY
 10
-229.898398
 20
-539.36208
 40
18.554456
 50
90.0
 51
91.91828
  0
ARC
  8
APS_GEOMETRY
 10
-229.898398
 20
-544.916201
 40
24.108577
 50
73.820397
 51
90.0
  0
ARC
  8
APS_GEOMETRY
 10
-227.522265
 20
-536.726615
 40
15.581248
 50
53.657551
 51
73.820397
  0
ARC
  8
APS_GEOMETRY
 10
-224.142523
 20
-532.107124
 40
9.857439
 50
26.029592
 51
53.569142
  0
ARC
  8
APS_GEOMETRY
 10
-225.17956
 20
-532.613584
 40
11.011539
 50
0.0
 51
26.029592
  0
ARC
  8
APS_GEOMETRY
 10
-225.611037
 20
-532.613584
 40
11.443017
 50
345.281696
 51
0.0
  0
ARC
  8
APS_GEOMETRY
 10
-224.510276
 20
-532.902739
 40
10.30491
 50
329.767161
 51
345.281696
  0
ARC
  8
APS_GEOMETRY
 10
-223.886636
 20
-533.266185
 40
9.583094
 50
313.168137
 51
329.767161
  0
ARC
  8
APS_GEOMETRY
 10
-223.655702
 20
-533.512379
 40
9.24554
 50
296.266638
 51
313.168137
  0
ARC
  8
APS_GEOMETRY
 10
-218.392556
 20
-544.146344
 40
2.619643
 50
116.565051
 51
139.899092
  0
ARC
  8
APS_GEOMETRY
 10
-219.699219
 20
-543.045997
 40
0.911389
 50
139.899092
 51
180.0
  0
ARC
  8
APS_GEOMETRY
 10
-219.597906
 20
-543.045997
 40
1.012702
 50
180.0
 51
226.193489
  0
ARC
  8
APS_GEOMETRY
 10
-217.726974
 20
-541.095451
 40
3.715481
 50
226.193489
 51
249.829347
  0
ARC
  8
APS_GEOMETRY
 10
-223.088115
 20
-555.856684
 40
11.989195
 50
53.249344
 51
70.104569
  0
ARC
  8
APS_GEOMETRY
 10
-220.652839
 20
-552.595533
 40
7.9191
 50
32.471192
 51
53.249344
  0
ARC
  8
APS_GEOMETRY
 10
-221.787848
 20
-553.317811
 40
9.264437
 50
23.304891
 51
32.471192
  0
ARC
  8
APS_GEOMETRY
 10
-228.797948
 20
-556.337546
 40
16.89728
 50
16.520892
 51
23.304891
  0
ARC
  8
APS_GEOMETRY
 10
-234.263474
 20
-557.958677
 40
22.598161
 50
11.429216
 51
16.520892
  0
ARC
  8
APS_GEOMETRY
 10
-249.753338
 20
-561.090202
 40
38.401399
 50
7.52382
 51
11.429216
  0
ARC
  8
APS_GEOMETRY
 10
-198.425144
 20
-554.254156
 40
13.380105
 50
187.765166
 51
196.914179
  0
ARC
  8
APS_GEOMETRY
 10
-209.368376
 20
-557.581923
 40
1.942082
 50
196.914179
 51
221.081751
  0
ARC
  8
APS_GEOMETRY
 10
-209.326654
 20
-557.545549
 40
1.997434
 50
221.081751
 51
244.607077
  0
ARC
  8
APS_GEOMETRY
 10
-204.653266
 20
-547.70028
 40
12.895593
 50
244.607077
 51
253.810794
  0
ARC
  8
APS_GEOMETRY
 10
-208.762077
 20
-561.710241
 40
1.704862
 50
51.449535
 51
72.474432
  0
ARC
  8
APS_GEOMETRY
 10
-209.183923
 20
-562.239617
 40
2.381761
 50
33.690068
 51
51.449535
  0
ARC
  8
APS_GEOMETRY
 10
-209.282577
 20
-562.305386
 40
2.500329
 50
16.638806
 51
33.690068
  0
ARC
  8
APS_GEOMETRY
 10
-209.40193
 20
-562.341055
 40
2.624898
 50
0.0
 51
16.638806
  0
ARC
  8
APS_GEOMETRY
 10
-209.438556
 20
-562.341055
 40
2.661524
 50
338.993211
 51
0.0
  0
ARC
  8
APS_GEOMETRY
 10
-211.063693
 20
-561.717002
 40
4.40236
 50
322.696052
 51
338.993211
  0
ARC
  8
APS_GEOMETRY
 10
-211.669195
 20
-561.255667
 40
5.163585
 50
308.603415
 51
322.696052
  0
ARC
  8
APS_GEOMETRY
 10
-212.085902
 20
-560.733731
 40
5.831464
 50
295.346176
 51
308.603415
  0
ARC
  8
APS_GEOMETRY
 10
-214.277098
 20
-555.907549
 40
11.131419
 50
279.582945
 51
294.904769
  0
ARC
  8
APS_GEOMETRY
 10
-217.144038
 20
-538.926445
 40
28.352836
 50
270.0
 51
279.582945
  0
ARC
  8
APS_GEOMETRY
 10
-217.144038
 20
-546.607596
 40
20.671686
 50
261.247402
 51
270.0
  0
ARC
  8
APS_GEOMETRY
 10
-218.468169
 20
-555.20802
 40
11.969926
 50
249.737083
 51
261.247402
  0
ARC
  8
APS_GEOMETRY
 10
-219.338589
 20
-557.565759
 40
9.456649
 50
235.344857
 51
249.737083
  0
ARC
  8
APS_GEOMETRY
 10
-220.43774
 20
-559.155794
 40
7.523686
 50
219.198413
 51
235.344857
  0
ARC
  8
APS_GEOMETRY
 10
-218.124751
 20
-557.183533
 40
10.562859
 50
209.075569
 51
219.559668
  0
ARC
  8
APS_GEOMETRY
 10
-212.784011
 20
-554.213898
 40
16.673689
 50
200.735234
 51
209.075569
  0
ARC
  8
APS_GEOMETRY
 10
-205.414469
 20
-551.424
 40
24.553643
 50
197.881035
 51
200.735234
  0
ARC
  8
APS_GEOMETRY
 10
-175.132968
 20
-541.654409
 40
56.3721
 50
195.997451
 51
197.881035
  0
ARC
  8
APS_GEOMETRY
 10
-152.751028
 20
-535.237569
 40
79.655722
 50
194.663974
 51
195.997451
  0
ARC
  8
APS_GEOMETRY
 10
-90.755792
 20
-519.01508
 40
143.738313
 50
193.671307
 51
194.663974
  0
ARC
  8
APS_GEOMETRY
 10
-247.966285
 20
-557.235505
 40
18.051498
 50
13.609732
 51
23.584501
  0
ARC
  8
APS_GEOMETRY
 10
-236.146855
 20
-552.07553
 40
5.154821
 50
23.584501
 51
42.31023
  0
ARC
  8
APS_GEOMETRY
 10
-235.074846
 20
-551.099727
 40
3.705202
 50
42.31023
 51
67.520566
  0
ARC
  8
APS_GEOMETRY
 10
-235.923207
 20
-553.149933
 40
5.924
 50
67.520566
 51
87.397438
  0
LINE
  8
APS_GEOMETRY
 10
-237.518311
 11
-237.87805
 20
-530.553264
 21
-538.173177
  0
LINE
  8
APS_GEOMETRY
 10
-237.87805
 11
-237.87805
 20
-538.173177
 21
-538.295815
  0
LINE
  8
APS_GEOMETRY
 10
-237.87805
 11
-237.87805
 20
-538.295815
 21
-538.467508
  0
ARC
  8
APS_GEOMETRY
 10
-232.583757
 20
-538.467508
 40
5.294293
 50
180.0
 51
192.339087
  0
ARC
  8
APS_GEOMETRY
 10
-236.792939
 20
-539.388267
 40
0.98558
 50
192.339087
 51
221.185925
  0
ARC
  8
APS_GEOMETRY
 10
-236.893315
 20
-539.476096
 40
0.852203
 50
221.185925
 51
253.872424
  0
ARC
  8
APS_GEOMETRY
 10
-236.177468
 20
-537.000459
 40
3.429258
 50
253.872424
 51
270.0
  0
ARC
  8
APS_GEOMETRY
 10
-236.177468
 20
-532.45912
 40
7.970597
 50
270.0
 51
289.56871
  0
ARC
  8
APS_GEOMETRY
 10
-234.728424
 20
-536.535553
 40
3.644278
 50
289.56871
 51
318.680622
  0
ARC
  8
APS_GEOMETRY
 10
-235.120376
 20
-536.19098
 40
4.166157
 50
318.680622
 51
344.628325
  0
ARC
  8
APS_GEOMETRY
 10
-242.423125
 20
-534.183351
 40
11.739843
 50
344.628325
 51
0.0
  0
ARC
  8
APS_GEOMETRY
 10
-238.951315
 20
-534.183351
 40
8.268032
 50
0.0
 51
35.36883
  0
ARC
  8
APS_GEOMETRY
 10
-235.16366
 20
-531.494705
 40
3.623127
 50
35.36883
 51
90.0
  0
ARC
  8
APS_GEOMETRY
 10
-235.16366
 20
-531.534513
 40
3.662935
 50
90.0
 51
108.434949
  0
ARC
  8
APS_GEOMETRY
 10
-235.87632
 20
-529.396533
 40
1.409306
 50
108.434949
 51
138.366461
  0
ARC
  8
APS_GEOMETRY
 10
-235.685041
 20
-529.566558
 40
1.665228
 50
138.366461
 51
164.291362
  0
ARC
  8
APS_GEOMETRY
 10
-231.200012
 20
-530.827973
 40
6.324268
 50
164.291362
 51
177.510447
  0
LINE
  8
APS_GEOMETRY
 10
-179.299561
 11
-163.013224
 20
-522.933351
 21
-537.192072
  0
ARC
  8
APS_GEOMETRY
 10
-147.781347
 20
-519.712869
 40
23.18475
 50
228.930176
 51
232.67448
  0
ARC
  8
APS_GEOMETRY
 10
-156.254753
 20
-530.825533
 40
9.210133
 50
232.67448
 51
238.616809
  0
ARC
  8
APS_GEOMETRY
 10
-158.386721
 20
-534.320562
 40
5.116172
 50
238.616809
 51
249.130652
  0
ARC
  8
APS_GEOMETRY
 10
-159.742875
 20
-537.877688
 40
1.309297
 50
249.130652
 51
270.0
  0
ARC
  8
APS_GEOMETRY
 10
-159.742875
 20
-538.038977
 40
1.148008
 50
270.0
 51
334.898391
  0
ARC
  8
APS_GEOMETRY
 10
-165.041159
 20
-535.556898
 40
6.998865
 50
334.898391
 51
0.0
  0
ARC
  8
APS_GEOMETRY
 10
-216.272285
 20
-535.556898
 40
58.229991
 50
0.0
 51
2.026128
  0
ARC
  8
APS_GEOMETRY
 10
-185.38531
 20
-534.464198
 40
27.323694
 50
2.026128
 51
4.984115
  0
ARC
  8
APS_GEOMETRY
 10
-175.286139
 20
-533.583457
 40
17.186191
 50
4.984115
 51
9.673355
  0
ARC
  8
APS_GEOMETRY
 10
-163.646715
 20
-531.599464
 40
5.378888
 50
9.673355
 51
18.060472
  0
ARC
  8
APS_GEOMETRY
 10
-161.874894
 20
-531.021696
 40
3.515245
 50
18.060472
 51
42.397438
  0
ARC
  8
APS_GEOMETRY
 10
-162.446851
 20
-531.543917
 40
4.289744
 50
42.397438
 51
64.397812
  0
ARC
  8
APS_GEOMETRY
 10
-157.223121
 20
-520.757897
 40
7.694704
 50
233.63342
 51
244.025606
  0
ARC
  8
APS_GEOMETRY
 10
-160.068278
 20
-524.621691
 40
2.896389
 50
216.656108
 51
233.63342
  0
ARC
  8
APS_GEOMETRY
 10
-160.504544
 20
-524.946354
 40
2.352574
 50
196.081652
 51
216.656108
  0
ARC
  8
APS_GEOMETRY
 10
-159.080514
 20
-524.535822
 40
3.8346
 50
180.0
 51
196.081652
  0
ARC
  8
APS_GEOMETRY
 10
-160.127144
 20
-524.535822
 40
2.78797
 50
133.202068
 51
180.0
  0
ARC
  8
APS_GEOMETRY
 10
-157.928521
 20
-526.876948
 40
5.999637
 50
101.788183
 51
133.202068
  0
ARC
  8
APS_GEOMETRY
 10
-157.415976
 20
-529.173557
 40
8.352584
 50
96.632515
 51
102.011478
  0
ARC
  8
APS_GEOMETRY
 10
-155.556789
 20
-545.162566
 40
24.449322
 50
93.489325
 51
96.632515
  0
ARC
  8
APS_GEOMETRY
 10
-154.760546
 20
-558.220943
 40
37.531952
 50
91.43929
 51
93.489325
  0
ARC
  8
APS_GEOMETRY
 10
-153.79084
 20
-596.815243
 40
76.138432
 50
90.0
 51
91.43929
  0
ARC
  8
APS_GEOMETRY
 10
-153.79084
 20
-591.641015
 40
70.964205
 50
87.994353
 51
90.0
  0
ARC
  8
APS_GEOMETRY
 10
-152.500699
 20
-554.800303
 40
34.100909
 50
85.100908
 51
87.994353
  0
ARC
  8
APS_GEOMETRY
 10
-151.453624
 20
-542.584428
 40
21.840241
 50
80.594688
 51
85.100908
  0
ARC
  8
APS_GEOMETRY
 10
-149.066033
 20
-528.170455
 40
7.229861
 50
72.758541
 51
80.594688
  0
ARC
  8
APS_GEOMETRY
 10
-148.342707
 20
-525.92987
 40
4.875639
 50
40.955514
 51
73.072487
  0
ARC
  8
APS_GEOMETRY
 10
-146.962602
 20
-524.732043
 40
3.048215
 50
0.0
 51
40.955514
  0
ARC
  8
APS_GEOMETRY
 10
-146.778913
 20
-524.732043
 40
2.864527
 50
322.572949
 51
0.0
  0
ARC
  8
APS_GEOMETRY
 10
-148.284208
 20
-523.580032
 40
4.760058
 50
293.749494
 51
322.572949
  0
ARC
  8
APS_GEOMETRY
 10
-142.240022
 20
-537.461124
 40
10.379904
 50
113.428693
 51
119.291362
  0
ARC
  8
APS_GEOMETRY
 10
-146.27922
 20
-530.260814
 40
2.124022
 50
119.291362
 51
132.273689
  0
ARC
  8
APS_GEOMETRY
 10
-146.512
 20
-530.004756
 40
1.77797
 50
132.273689
 51
147.652557
  0
ARC
  8
APS_GEOMETRY
 10
-144.830041
 20
-531.069997
 40
3.768879
 50
147.652557
 51
158.198591
  0
ARC
  8
APS_GEOMETRY
 10
-142.270437
 20
-532.148919
 40
6.546314
 50
157.750976
 51
167.884758
  0
ARC
  8
APS_GEOMETRY
 10
-128.650485
 20
-535.072574
 40
20.476528
 50
167.884758
 51
173.609505
  0
ARC
  8
APS_GEOMETRY
 10
-116.603813
 20
-536.421801
 40
32.59852
 50
173.609505
 51
177.220833
  0
ARC
  8
APS_GEOMETRY
 10
-79.448178
 20
-538.225473
 40
69.797908
 50
177.220833
 51
179.688613
  0
LINE
  8
APS_GEOMETRY
 10
-149.245055
 11
-149.245055
 20
-537.846142
 21
-548.507479
  0
ARC
  8
APS_GEOMETRY
 10
286.120365
 20
-548.507479
 40
435.36542
 50
180.0
 51
180.161396
  0
ARC
  8
APS_GEOMETRY
 10
663.939403
 20
-547.4432
 40
813.185957
 50
180.161396
 51
180.279489
  0
LINE
  8
APS_GEOMETRY
 10
-149.23688
 11
-149.22666
 20
-551.409914
 21
-553.198386
  0
LINE
  8
APS_GEOMETRY
 10
-149.22666
 11
-149.212352
 20
-553.198386
 21
-555.211694
  0
ARC
  8
APS_GEOMETRY
 10
-226.896203
 20
-555.65308
 40
77.685105
 50
358.204186
 51
0.325541
  0
ARC
  8
APS_GEOMETRY
 10
-189.941887
 20
-556.811714
 40
40.71263
 50
355.273697
 51
358.204186
  0
ARC
  8
APS_GEOMETRY
 10
-177.079426
 20
-557.875145
 40
27.806283
 50
350.991496
 51
355.273697
  0
ARC
  8
APS_GEOMETRY
 10
-160.700779
 20
-560.47176
 40
11.223084
 50
344.248826
 51
350.991496
  0
ARC
  8
APS_GEOMETRY
 10
-155.164866
 20
-562.052659
 40
5.465928
 50
314.415369
 51
344.445429
  0
ARC
  8
APS_GEOMETRY
 10
-153.136771
 20
-564.122571
 40
2.568048
 50
270.0
 51
314.415369
  0
ARC
  8
APS_GEOMETRY
 10
-153.136771
 20
-562.530574
 40
4.160045
 50
256.342357
 51
270.0
  0
ARC
  8
APS_GEOMETRY
 10
-153.433121
 20
-563.750171
 40
2.904959
 50
239.981633
 51
256.342357
  0
ARC
  8
APS_GEOMETRY
 10
-152.138794
 20
-561.509988
 40
5.492178
 50
231.153104
 51
239.981633
  0
ARC
  8
APS_GEOMETRY
 10
-130.390129
 20
-534.505396
 40
40.16569
 50
227.89127
 51
231.153104
  0
LINE
  8
APS_GEOMETRY
 10
-157.322817
 11
-176.715986
 20
-564.303264
 21
-546.937712
  0
ARC
  8
APS_GEOMETRY
 10
-184.187177
 20
-555.209388
 40
11.14627
 50
47.910838
 51
61.467547
  0
ARC
  8
APS_GEOMETRY
 10
-180.084445
 20
-547.663291
 40
2.556975
 50
61.467547
 51
90.0
  0
ARC
  8
APS_GEOMETRY
 10
-180.084445
 20
-546.226533
 40
1.120217
 50
90.0
 51
133.194713
  0
ARC
  8
APS_GEOMETRY
 10
-178.980329
 20
-547.402514
 40
2.733289
 50
133.194713
 51
160.453632
  0
ARC
  8
APS_GEOMETRY
 10
-175.436311
 20
-548.660746
 40
6.494036
 50
160.453632
 51
173.250825
  0
ARC
  8
APS_GEOMETRY
 10
-158.769022
 20
-550.633206
 40
23.277632
 50
173.250825
 51
180.0
  0
ARC
  8
APS_GEOMETRY
 10
-113.428598
 20
-550.633206
 40
68.618057
 50
180.0
 51
181.896923
  0
ARC
  8
APS_GEOMETRY
 10
-149.77132
 20
-551.836865
 40
32.255407
 50
181.896923
 51
184.663802
  0
ARC
  8
APS_GEOMETRY
 10
-161.682888
 20
-552.808598
 40
20.304269
 50
184.663802
 51
189.048181
  0
ARC
  8
APS_GEOMETRY
 10
-175.483874
 20
-555.006358
 40
6.329385
 50
189.048181
 51
196.905158
  0
ARC
  8
APS_GEOMETRY
 10
-177.674688
 20
-555.672193
 40
4.039625
 50
196.905158
 51
220.253477
  0
ARC
  8
APS_GEOMETRY
 10
-177.630767
 20
-555.635006
 40
4.097174
 50
220.253477
 51
243.434949
  0
ARC
  8
APS_GEOMETRY
 10
-181.628373
 20
-563.695835
 40
4.900522
 50
37.921078
 51
63.778033
  0
ARC
  8
APS_GEOMETRY
 10
-179.595559
 20
-562.11213
 40
2.323614
 50
0.0
 51
37.921078
  0
ARC
  8
APS_GEOMETRY
 10
-180.499359
 20
-562.11213
 40
3.227414
 50
324.267836
 51
0.0
  0
ARC
  8
APS_GEOMETRY
 10
-181.706871
 20
-561.243417
 40
4.714945
 50
294.859862
 51
324.267836
  0
ARC
  8
APS_GEOMETRY
 10
-183.703769
 20
-556.933564
 40
9.464938
 50
278.779646
 51
294.859862
  0
ARC
  8
APS_GEOMETRY
 10
-187.082991
 20
-535.053707
 40
31.604208
 50
270.0
 51
278.779646
  0
ARC
  8
APS_GEOMETRY
 10
-187.082991
 20
-540.72517
 40
25.932746
 50
260.382525
 51
270.0
  0
ARC
  8
APS_GEOMETRY
 10
-189.816103
 20
-556.854376
 40
9.573614
 50
244.52173
 51
260.382525
  0
ARC
  8
APS_GEOMETRY
 10
-191.795471
 20
-561.00826
 40
4.972239
 50
216.549301
 51
244.52173
  0
ARC
  8
APS_GEOMETRY
 10
-193.416934
 20
-562.210241
 40
2.953848
 50
180.0
 51
216.549301
  0
ARC
  8
APS_GEOMETRY
 10
-192.364092
 20
-562.210241
 40
4.00669
 50
164.649864
 51
180.0
  0
ARC
  8
APS_GEOMETRY
 10
-194.649433
 20
-561.582892
 40
1.636806
 50
140.52754
 51
164.649864
  0
ARC
  8
APS_GEOMETRY
 10
-193.72468
 20
-562.344454
 40
2.834781
 50
126.135377
 51
140.52754
  0
ARC
  8
APS_GEOMETRY
 10
-184.070244
 20
-575.566833
 40
19.206691
 50
120.618605
 51
126.135377
  0
ARC
  8
APS_GEOMETRY
 10
-195.516392
 20
-556.245232
 40
3.250804
 50
300.784147
 51
330.068488
  0
ARC
  8
APS_GEOMETRY
 10
-197.681791
 20
-554.998487
 40
5.749468
 50
330.068488
 51
351.982907
  0
ARC
  8
APS_GEOMETRY
 10
-234.044471
 20
-550.258099
 40
42.419572
 50
352.492653
 51
355.364537
  0
ARC
  8
APS_GEOMETRY
 10
-277.907469
 20
-546.70164
 40
86.426514
 50
355.364537
 51
357.376422
  0
ARC
  8
APS_GEOMETRY
 10
-308.62014
 20
-545.294321
 40
117.171412
 50
357.376422
 51
358.860936
  0
ARC
  8
APS_GEOMETRY
 10
-390.446554
 20
-543.667363
 40
199.013999
 50
358.860936
 51
0.0
  0
ARC
  8
APS_GEOMETRY
 10
-316.856994
 20
-543.667363
 40
125.424438
 50
360.0
 51
1.926262
  0
ARC
  8
APS_GEOMETRY
 10
-258.470594
 20
-541.703695
 40
67.005026
 50
1.926262
 51
4.561808
  0
ARC
  8
APS_GEOMETRY
 10
-237.883139
 20
-540.061079
 40
46.352146
 50
4.561808
 51
8.365886
  0
ARC
  8
APS_GEOMETRY
 10
-211.107148
 20
-536.123433
 40
19.28817
 50
8.365886
 51
14.264512
  0
ARC
  8
APS_GEOMETRY
 10
-200.98215
 20
-533.562791
 40
8.844412
 50
14.349332
 51
23.629378
  0
ARC
  8
APS_GEOMETRY
 10
-195.847653
 20
-531.316448
 40
3.240029
 50
23.629378
 51
38.990994
  0
ARC
  8
APS_GEOMETRY
 10
-195.828524
 20
-531.300963
 40
3.215417
 50
38.990994
 51
54.462322
  0
ARC
  8
APS_GEOMETRY
 10
-198.832648
 20
-535.506736
 40
8.383907
 50
54.462322
 51
64.025606
  0
ARC
  8
APS_GEOMETRY
 10
-190.354746
 20
-518.139219
 40
10.942387
 50
235.472028
 51
243.946505
  0
ARC
  8
APS_GEOMETRY
 10
-194.734145
 20
-524.504625
 40
3.215969
 50
219.805571
 51
235.472028
  0
ARC
  8
APS_GEOMETRY
 10
-195.397132
 20
-525.057114
 40
2.352954
 50
198.939004
 51
219.805571
  0
ARC
  8
APS_GEOMETRY
 10
-194.926319
 20
-524.895561
 40
2.850713
 50
180.0
 51
198.939004
  0
ARC
  8
APS_GEOMETRY
 10
-195.065372
 20
-524.895561
 40
2.71166
 50
126.253838
 51
180.0
  0
ARC
  8
APS_GEOMETRY
 10
-190.92619
 20
-530.5399
 40
9.711046
 50
98.615648
 51
126.253838
  0
ARC
  8
APS_GEOMETRY
 10
-190.343108
 20
-535.203381
 40
14.409768
 50
94.455603
 51
98.130102
  0
ARC
  8
APS_GEOMETRY
 10
-188.094908
 20
-564.055276
 40
43.349122
 50
92.337306
 51
94.455603
  0
ARC
  8
APS_GEOMETRY
 10
-187.136601
 20
-587.533795
 40
66.847191
 50
90.962864
 51
92.337306
  0
ARC
  8
APS_GEOMETRY
 10
-185.971073
 20
-656.882728
 40
136.205917
 50
90.0
 51
90.962864
  0
ARC
  8
APS_GEOMETRY
 10
-185.971073
 20
-545.498559
 40
24.821748
 50
83.927544
 51
90.0
  0
ARC
  8
APS_GEOMETRY
 10
-183.935211
 20
-526.361453
 40
5.576657
 50
71.095424
 51
83.927544
  0
ARC
  8
APS_GEOMETRY
 10
-183.749277
 20
-525.818526
 40
5.002774
 50
56.848266
 51
71.095424
  0
ARC
  8
APS_GEOMETRY
 10
-189.251725
 20
-534.242628
 40
15.064704
 50
48.652223
 51
56.848266
  0
ARC
  8
APS_GEOMETRY
 10
-120.492148
 20
-561.284334
 40
40.607524
 50
84.709919
 51
90.0
  0
ARC
  8
APS_GEOMETRY
 10
-119.747716
 20
-553.24446
 40
32.533258
 50
78.799202
 51
84.709919
  0
ARC
  8
APS_GEOMETRY
 10
-114.931186
 20
-528.9015
 40
7.718372
 50
49.782532
 51
78.771108
  0
ARC
  8
APS_GEOMETRY
 10
-111.709733
 20
-525.091782
 40
2.729212
 50
0.0
 51
49.782532
  0
ARC
  8
APS_GEOMETRY
 10
-112.000143
 20
-525.091782
 40
3.019623
 50
342.758541
 51
0.0
  0
ARC
  8
APS_GEOMETRY
 10
-110.424924
 20
-525.580643
 40
1.37029
 50
317.045408
 51
342.758541
  0
ARC
  8
APS_GEOMETRY
 10
-111.185638
 20
-524.872392
 40
2.409666
 50
301.817035
 51
317.045408
  0
ARC
  8
APS_GEOMETRY
 10
-122.441723
 20
-506.730231
 40
23.760017
 50
296.980231
 51
301.817035
  0
ARC
  8
APS_GEOMETRY
 10
-110.44008
 20
-530.348534
 40
2.732757
 50
116.565051
 51
149.077974
  0
ARC
  8
APS_GEOMETRY
 10
-106.920943
 20
-532.456532
 40
6.83495
 50
149.077974
 51
169.469072
  0
ARC
  8
APS_GEOMETRY
 10
-99.416783
 20
-533.851536
 40
14.467672
 50
169.469072
 51
174.597877
  0
ARC
  8
APS_GEOMETRY
 10
-60.752556
 20
-537.507827
 40
53.304393
 50
174.597877
 51
177.269212
  0
ARC
  8
APS_GEOMETRY
 10
-26.755038
 20
-539.129419
 40
87.340563
 50
177.269212
 51
178.901208
  0
ARC
  8
APS_GEOMETRY
 10
78.551854
 20
-541.149194
 40
192.666822
 50
178.901208
 51
180.0
  0
ARC
  8
APS_GEOMETRY
 10
292.541624
 20
-541.149194
 40
406.656592
 50
180.0
 51
180.879979
  0
ARC
  8
APS_GEOMETRY
 10
42.021614
 20
-544.997117
 40
156.107032
 50
180.879979
 51
182.300285
  0
ARC
  8
APS_GEOMETRY
 10
-31.203818
 20
-547.938519
 40
82.822547
 50
182.300285
 51
184.973515
  0
ARC
  8
APS_GEOMETRY
 10
-101.024597
 20
-554.014526
 40
12.737891
 50
184.973515
 51
191.79343
  0
ARC
  8
APS_GEOMETRY
 10
-109.134732
 20
-555.565803
 40
4.484055
 50
193.570434
 51
205.787328
  0
ARC
  8
APS_GEOMETRY
 10
-111.151906
 20
-556.540393
 40
2.243783
 50
205.787328
 51
223.090848
  0
ARC
  8
APS_GEOMETRY
 10
-110.640308
 20
-556.061802
 40
2.944342
 50
223.090848
 51
236.441044
  0
ARC
  8
APS_GEOMETRY
 10
-106.356917
 20
-549.604749
 40
10.692952
 50
236.441044
 51
243.434949
  0
ARC
  8
APS_GEOMETRY
 10
-112.914619
 20
-563.075288
 40
4.291097
 50
37.184706
 51
65.556045
  0
ARC
  8
APS_GEOMETRY
 10
-111.515676
 20
-562.01402
 40
2.535155
 50
0.0
 51
37.184706
  0
ARC
  8
APS_GEOMETRY
 10
-111.592474
 20
-562.01402
 40
2.611953
 50
312.039064
 51
0.0
  0
ARC
  8
APS_GEOMETRY
 10
-114.703377
 20
-558.563746
 40
7.257608
 50
283.815025
 51
312.039064
  0
ARC
  8
APS_GEOMETRY
 10
-119.843818
 20
-537.258333
 40
29.174325
 50
279.272602
 51
283.626995
  0
ARC
  8
APS_GEOMETRY
 10
-121.898595
 20
-524.672824
 40
41.926468
 50
275.640549
 51
279.272602
  0
ARC
  8
APS_GEOMETRY
 10
-122.684154
 20
-516.71904
 40
49.918951
 50
272.587879
 51
275.640549
  0
ARC
  8
APS_GEOMETRY
 10
-123.566276
 20
-497.202077
 40
69.455838
 50
270.0
 51
272.587879
  0
ARC
  8
APS_GEOMETRY
 10
-123.566276
 20
-524.763927
 40
41.893989
 50
262.77406
 51
270.0
  0
ARC
  8
APS_GEOMETRY
 10
-127.343033
 20
-554.551573
 40
11.867871
 50
249.174782
 51
262.77406
  0
ARC
  8
APS_GEOMETRY
 10
-129.715735
 20
-560.789483
 40
5.193948
 50
221.229513
 51
249.174782
  0
ARC
  8
APS_GEOMETRY
 10
-131.784785
 20
-562.602683
 40
2.442829
 50
180.0
 51
221.229513
  0
ARC
  8
APS_GEOMETRY
 10
-132.186317
 20
-562.602683
 40
2.041296
 50
142.696052
 51
180.0
  0
ARC
  8
APS_GEOMETRY
 10
-128.964942
 20
-565.057064
 40
6.091141
 50
121.357085
 51
142.696052
  0
ARC
  8
APS_GEOMETRY
 10
-134.408225
 20
-556.141987
 40
4.354338
 50
301.476839
 51
324.727579
  0
ARC
  8
APS_GEOMETRY
 10
-133.827755
 20
-556.552563
 40
3.64334
 50
324.727579
 51
350.180699
  0
ARC
  8
APS_GEOMETRY
 10
-152.068557
 20
-553.535442
 40
22.131897
 50
350.537678
 51
355.42288
  0
ARC
  8
APS_GEOMETRY
 10
-227.020719
 20
-547.535058
 40
97.323859
 50
355.42288
 51
357.75194
  0
ARC
  8
APS_GEOMETRY
 10
-296.614219
 20
-544.803082
 40
166.970963
 50
357.75194
 51
359.110676
  0
ARC
  8
APS_GEOMETRY
 10
-519.360761
 20
-541.345415
 40
389.744339
 50
359.110676
 51
0.0
  0
ARC
  8
APS_GEOMETRY
 10
-264.839898
 20
-541.345415
 40
135.223477
 50
0.0
 51
1.772875
  0
ARC
  8
APS_GEOMETRY
 10
-185.479887
 20
-538.889034
 40
55.825459
 50
1.772875
 51
4.532262
  0
ARC
  8
APS_GEOMETRY
 10
-161.358953
 20
-536.977009
 40
31.628862
 50
4.532262
 51
9.383565
  0
ARC
  8
APS_GEOMETRY
 10
-136.865589
 20
-532.929377
 40
6.803307
 50
9.383565
 51
19.855214
  0
ARC
  8
APS_GEOMETRY
 10
-133.62384
 20
-531.696715
 40
3.33611
 50
18.853159
 51
42.157862
  0
ARC
  8
APS_GEOMETRY
 10
-136.402178
 20
-534.212237
 40
7.084045
 50
42.157862
 51
58.091893
  0
ARC
  8
APS_GEOMETRY
 10
-124.173583
 20
-515.315103
 40
15.426197
 50
230.710593
 51
236.633634
  0
ARC
  8
APS_GEOMETRY
 10
-131.855082
 20
-524.703602
 40
3.295684
 50
217.874984
 51
230.710593
  0
ARC
  8
APS_GEOMETRY
 10
-132.908193
 20
-525.522688
 40
1.961539
 50
196.927513
 51
217.874984
  0
ARC
  8
APS_GEOMETRY
 10
-131.922176
 20
-525.222596
 40
2.992211
 50
180.0
 51
196.927513
  0
ARC
  8
APS_GEOMETRY
 10
-132.567097
 20
-525.222596
 40
2.34729
 50
148.790867
 51
180.0
  0
ARC
  8
APS_GEOMETRY
 10
-131.951542
 20
-525.595523
 40
3.067
 50
121.568971
 51
148.790867
  0
ARC
  8
APS_GEOMETRY
 10
-130.846385
 20
-527.394112
 40
5.177994
 50
112.805746
 51
121.568971
  0
ARC
  8
APS_GEOMETRY
 10
-127.859071
 20
-534.498656
 40
12.885042
 50
107.25376
 51
112.805746
  0
ARC
  8
APS_GEOMETRY
 10
-126.029348
 20
-540.389963
 40
19.053947
 50
103.486615
 51
107.25376
  0
ARC
  8
APS_GEOMETRY
 10
-121.838849
 20
-557.862628
 40
37.022094
 50
100.784298
 51
103.486615
  0
ARC
  8
APS_GEOMETRY
 10
-120.526302
 20
-562.693545
 40
42.015051
 50
95.643318
 51
101.309932
  0
ARC
  8
APS_GEOMETRY
 10
-120.492148
 20
-563.039175
 40
42.362364
 50
90.0
 51
95.643318
  0
ARC
  8
APS_GEOMETRY
 10
-79.82209
 20
-541.711713
 40
21.263827
 50
77.257003
 51
90.0
  0
ARC
  8
APS_GEOMETRY
 10
-80.038148
 20
-542.667092
 40
22.243331
 50
64.798876
 51
77.257003
  0
ARC
  8
APS_GEOMETRY
 10
-61.720568
 20
-503.668516
 40
20.842904
 50
244.885165
 51
251.17529
  0
ARC
  8
APS_GEOMETRY
 10
-67.689096
 20
-521.176197
 40
2.345817
 50
251.17529
 51
270.0
  0
ARC
  8
APS_GEOMETRY
 10
-67.689096
 20
-519.715628
 40
3.806387
 50
270.0
 51
278.82038
  0
ARC
  8
APS_GEOMETRY
 10
-70.148185
 20
-503.868167
 40
19.843503
 50
278.82038
 51
282.680383
  0
ARC
  8
APS_GEOMETRY
 10
-65.002814
 20
-526.64876
 40
3.51099
 50
95.906141
 51
102.994617
  0
ARC
  8
APS_GEOMETRY
 10
-64.843893
 20
-528.185004
 40
5.055431
 50
90.0
 51
95.906141
  0
ARC
  8
APS_GEOMETRY
 10
-64.843893
 20
-526.485086
 40
3.355514
 50
62.447188
 51
90.0
  0
ARC
  8
APS_GEOMETRY
 10
-65.440577
 20
-527.628732
 40
4.645459
 50
39.093859
 51
62.447188
  0
ARC
  8
APS_GEOMETRY
 10
-71.674718
 20
-532.842412
 40
12.772091
 50
18.434949
 51
39.610688
  0
ARC
  8
APS_GEOMETRY
 10
-75.501314
 20
-534.117944
 40
16.805677
 50
0.0
 51
18.434949
  0
ARC
  8
APS_GEOMETRY
 10
-67.028911
 20
-534.117944
 40
8.333274
 50
334.876872
 51
0.0
  0
ARC
  8
APS_GEOMETRY
 10
-64.522563
 20
-535.293237
 40
5.565045
 50
304.007492
 51
334.876872
  0
ARC
  8
APS_GEOMETRY
 10
-64.563874
 20
-535.17569
 40
5.68568
 50
286.38954
 51
303.690068
  0
ARC
  8
APS_GEOMETRY
 10
-64.745782
 20
-534.557203
 40
6.330364
 50
270.0
 51
286.38954
  0
ARC
  8
APS_GEOMETRY
 10
-64.745782
 20
-534.630991
 40
6.256576
 50
255.154548
 51
270.0
  0
ARC
  8
APS_GEOMETRY
 10
-65.431188
 20
-537.216841
 40
3.58143
 50
235.491477
 51
255.154548
  0
ARC
  8
APS_GEOMETRY
 10
-65.087153
 20
-536.716426
 40
4.188699
 50
218.480198
 51
235.491477
  0
ARC
  8
APS_GEOMETRY
 10
-59.46628
 20
-532.248552
 40
11.368958
 50
208.17859
 51
218.480198
  0
ARC
  8
APS_GEOMETRY
 10
-117.090777
 20
-563.527705
 40
54.197767
 50
28.55962
 51
31.663799
  0
ARC
  8
APS_GEOMETRY
 10
-81.878586
 20
-541.810935
 40
12.827288
 50
31.663799
 51
38.047043
  0
ARC
  8
APS_GEOMETRY
 10
-79.318334
 20
-539.80726
 40
9.576196
 50
38.047043
 51
46.5602
  0
ARC
  8
APS_GEOMETRY
 10
-80.649121
 20
-541.212571
 40
11.511627
 50
46.5602
 51
54.323592
  0
ARC
  8
APS_GEOMETRY
 10
-81.417268
 20
-542.53398
 40
13.033852
 50
54.968356
 51
71.480419
  0
ARC
  8
APS_GEOMETRY
 10
-80.574271
 20
-540.017384
 40
10.379817
 50
71.480419
 51
90.0
  0
ARC
  8
APS_GEOMETRY
 10
-80.574271
 20
-536.888128
 40
7.250562
 50
90.0
 51
114.629635
  0
ARC
  8
APS_GEOMETRY
 10
-80.93837
 20
-536.093951
 40
6.3769
 50
114.629635
 51
140.920621
  0
ARC
  8
APS_GEOMETRY
 10
-79.862586
 20
-536.967575
 40
7.762732
 50
140.920621
 51
163.129646
  0
ARC
  8
APS_GEOMETRY
 10
-74.485163
 20
-538.598322
 40
13.381985
 50
163.129646
 51
180.0
  0
ARC
  8
APS_GEOMETRY
 10
-67.51169
 20
-538.598322
 40
20.355459
 50
180.0
 51
195.439646
  0
ARC
  8
APS_GEOMETRY
 10
-68.569764
 20
-538.890552
 40
19.25777
 50
195.439646
 51
211.31598
  0
ARC
  8
APS_GEOMETRY
 10
-73.659006
 20
-541.879886
 40
13.356544
 50
211.707816
 51
240.456928
  0
ARC
  8
APS_GEOMETRY
 10
-74.000869
 20
-542.483068
 40
12.663219
 50
240.456928
 51
270.0
  0
ARC
  8
APS_GEOMETRY
 10
-74.000869
 20
-539.395606
 40
15.750681
 50
270.0
 51
279.549134
  0
ARC
  8
APS_GEOMETRY
 10
-74.196681
 20
-538.231612
 40
16.931031
 50
279.549134
 51
288.75865
  0
ARC
  8
APS_GEOMETRY
 10
-73.371288
 20
-540.661937
 40
14.364369
 50
288.75865
 51
299.544635
  0
ARC
  8
APS_GEOMETRY
 10
-70.061639
 20
-546.501104
 40
7.652465
 50
299.544635
 51
314.341457
  0
ARC
  8
APS_GEOMETRY
 10
-59.826523
 20
-557.13208
 40
7.10519
 50
120.141386
 51
133.451842
  0
ARC
  8
APS_GEOMETRY
 10
-62.685462
 20
-552.208351
 40
1.411627
 50
90.0
 51
120.141386
  0
ARC
  8
APS_GEOMETRY
 10
-62.685462
 20
-553.026322
 40
2.229599
 50
61.951894
 51
90.0
  0
ARC
  8
APS_GEOMETRY
 10
-63.017516
 20
-553.649561
 40
2.935776
 50
37.568592
 51
61.951894
  0
ARC
  8
APS_GEOMETRY
 10
-63.636796
 20
-554.125931
 40
3.71708
 50
17.665186
 51
37.568592
  0
ARC
  8
APS_GEOMETRY
 10
-64.58156
 20
-554.426811
 40
4.708598
 50
0.0
 51
17.665186
  0
ARC
  8
APS_GEOMETRY
 10
-66.953543
 20
-554.426811
 40
7.08058
 50
344.931512
 51
0.0
  0
ARC
  8
APS_GEOMETRY
 10
-73.251569
 20
-552.731188
 40
13.602871
 50
334.075098
 51
344.931512
  0
ARC
  8
APS_GEOMETRY
 10
-73.44962
 20
-552.634914
 40
13.823082
 50
323.374259
 51
334.075098
  0
ARC
  8
APS_GEOMETRY
 10
-69.385856
 20
-555.655765
 40
8.759514
 50
309.920392
 51
323.374259
  0
ARC
  8
APS_GEOMETRY
 10
-65.324815
 20
-560.446529
 40
2.479565
 50
289.025606
 51
308.990994
  0
ARC
  8
APS_GEOMETRY
 10
-69.657772
 20
-547.880955
 40
15.771223
 50
281.14289
 51
289.025606
  0
ARC
  8
APS_GEOMETRY
 10
-65.263749
 20
-570.662434
 40
7.430522
 50
100.437475
 51
110.119633
  0
ARC
  8
APS_GEOMETRY
 10
-59.442611
 20
-586.552569
 40
24.353349
 50
110.119633
 51
115.463345
  0
ARC
  8
APS_GEOMETRY
 10
-80.223724
 20
-543.071977
 40
23.838158
 50
282.940436
 51
295.628419
  0
ARC
  8
APS_GEOMETRY
 10
-80.018311
 20
-543.965955
 40
22.920885
 50
270.0
 51
282.940436
  0
ARC
  8
APS_GEOMETRY
 10
-80.018311
 20
-542.612033
 40
24.274807
 50
257.307334
 51
270.0
  0
ARC
  8
APS_GEOMETRY
 10
-78.993581
 20
-538.062229
 40
28.938581
 50
245.686204
 51
257.307334
  0
ARC
  8
APS_GEOMETRY
 10
-81.563802
 20
-543.703724
 40
22.739224
 50
228.800778
 51
245.735234
  0
ARC
  8
APS_GEOMETRY
 10
-81.520739
 20
-543.654533
 40
22.804602
 50
211.890792
 51
228.800778
  0
ARC
  8
APS_GEOMETRY
 10
-80.173129
 20
-542.684528
 40
24.461509
 50
196.727964
 51
212.152295
  0
ARC
  8
APS_GEOMETRY
 10
-83.660917
 20
-543.73277
 40
20.819604
 50
180.0
 51
196.727964
  0
ARC
  8
APS_GEOMETRY
 10
-83.153577
 20
-543.73277
 40
21.326944
 50
161.183932
 51
180.0
  0
ARC
  8
APS_GEOMETRY
 10
-81.785254
 20
-544.199013
 40
22.77252
 50
142.980114
 51
161.183932
  0
ARC
  8
APS_GEOMETRY
 10
-80.721187
 20
-545.013331
 40
24.112395
 50
127.824257
 51
142.957525
  0
ARC
  8
APS_GEOMETRY
 10
-78.967208
 20
-547.27257
 40
26.972571
 50
113.520273
 51
127.824257
  0
ARC
  8
APS_GEOMETRY
 10
-79.538109
 20
-545.953273
 40
25.535051
 50
101.926773
 51
113.527064
  0
ARC
  8
APS_GEOMETRY
 10
-79.82209
 20
-544.608801
 40
24.160915
 50
90.0
 51
101.926773
  0
ARC
  8
APS_GEOMETRY
 10
-35.273398
 20
-561.284334
 40
40.607524
 50
84.709919
 51
90.0
  0
ARC
  8
APS_GEOMETRY
 10
-34.528966
 20
-553.24446
 40
32.533258
 50
78.799202
 51
84.709919
  0
ARC
  8
APS_GEOMETRY
 10
-29.712436
 20
-528.9015
 40
7.718372
 50
49.782532
 51
78.771108
  0
ARC
  8
APS_GEOMETRY
 10
-26.490983
 20
-525.091782
 40
2.729212
 50
0.0
 51
49.782532
  0
ARC
  8
APS_GEOMETRY
 10
-26.781393
 20
-525.091782
 40
3.019623
 50
342.758541
 51
0.0
  0
ARC
  8
APS_GEOMETRY
 10
-25.206174
 20
-525.580643
 40
1.37029
 50
317.045408
 51
342.758541
  0
ARC
  8
APS_GEOMETRY
 10
-25.966888
 20
-524.872392
 40
2.409666
 50
301.817035
 51
317.045408
  0
ARC
  8
APS_GEOMETRY
 10
-37.222973
 20
-506.730231
 40
23.760017
 50
296.980231
 51
301.817035
  0
ARC
  8
APS_GEOMETRY
 10
-25.22133
 20
-530.348534
 40
2.732757
 50
116.565051
 51
149.077974
  0
ARC
  8
APS_GEOMETRY
 10
-21.702193
 20
-532.456532
 40
6.83495
 50
149.077974
 51
169.469072
  0
ARC
  8
APS_GEOMETRY
 10
-14.198033
 20
-533.851536
 40
14.467672
 50
169.469072
 51
174.597877
  0
ARC
  8
APS_GEOMETRY
 10
24.466194
 20
-537.507827
 40
53.304393
 50
174.597877
 51
177.269212
  0
ARC
  8
APS_GEOMETRY
 10
58.463712
 20
-539.129419
 40
87.340563
 50
177.269212
 51
178.901208
  0
ARC
  8
APS_GEOMETRY
 10
163.770604
 20
-541.149194
 40
192.666822
 50
178.901208
 51
180.0
  0
ARC
  8
APS_GEOMETRY
 10
377.760374
 20
-541.149194
 40
406.656592
 50
180.0
 51
180.879979
  0
ARC
  8
APS_GEOMETRY
 10
127.240364
 20
-544.997117
 40
156.107032
 50
180.879979
 51
182.300285
  0
ARC
  8
APS_GEOMETRY
 10
54.014932
 20
-547.938519
 40
82.822547
 50
182.300285
 51
184.973515
  0
ARC
  8
APS_GEOMETRY
 10
-15.805847
 20
-554.014526
 40
12.737891
 50
184.973515
 51
191.79343
  0
ARC
  8
APS_GEOMETRY
 10
-23.915982
 20
-555.565803
 40
4.484055
 50
193.570434
 51
205.787328
  0
ARC
  8
APS_GEOMETRY
 10
-25.933156
 20
-556.540393
 40
2.243783
 50
205.787328
 51
223.090848
  0
ARC
  8
APS_GEOMETRY
 10
-25.421558
 20
-556.061802
 40
2.944342
 50
223.090848
 51
236.441044
  0
ARC
  8
APS_GEOMETRY
 10
-21.138167
 20
-549.604749
 40
10.692952
 50
236.441044
 51
243.434949
  0
ARC
  8
APS_GEOMETRY
 10
-27.695869
 20
-563.075288
 40
4.291097
 50
37.184706
 51
65.556045
  0
ARC
  8
APS_GEOMETRY
 10
-26.296926
 20
-562.01402
 40
2.535155
 50
0.0
 51
37.184706
  0
ARC
  8
APS_GEOMETRY
 10
-26.373724
 20
-562.01402
 40
2.611953
 50
312.039064
 51
0.0
  0
ARC
  8
APS_GEOMETRY
 10
-29.484627
 20
-558.563746
 40
7.257608
 50
283.815025
 51
312.039064
  0
ARC
  8
APS_GEOMETRY
 10
-34.625068
 20
-537.258333
 40
29.174325
 50
279.272602
 51
283.626995
  0
ARC
  8
APS_GEOMETRY
 10
-36.679845
 20
-524.672824
 40
41.926468
 50
275.640549
 51
279.272602
  0
ARC
  8
APS_GEOMETRY
 10
-37.465404
 20
-516.71904
 40
49.918951
 50
272.587879
 51
275.640549
  0
ARC
  8
APS_GEOMETRY
 10
-38.347526
 20
-497.202077
 40
69.455838
 50
270.0
 51
272.587879
  0
ARC
  8
APS_GEOMETRY
 10
-38.347526
 20
-524.763927
 40
41.893989
 50
262.77406
 51
270.0
  0
ARC
  8
APS_GEOMETRY
 10
-42.124283
 20
-554.551573
 40
11.867871
 50
249.174782
 51
262.77406
  0
ARC
  8
APS_GEOMETRY
 10
-44.496985
 20
-560.789483
 40
5.193948
 50
221.229513
 51
249.174782
  0
ARC
  8
APS_GEOMETRY
 10
-46.566035
 20
-562.602683
 40
2.442829
 50
180.0
 51
221.229513
  0
ARC
  8
APS_GEOMETRY
 10
-46.967567
 20
-562.602683
 40
2.041296
 50
142.696052
 51
180.0
  0
ARC
  8
APS_GEOMETRY
 10
-43.746192
 20
-565.057064
 40
6.091141
 50
121.357085
 51
142.696052
  0
ARC
  8
APS_GEOMETRY
 10
-49.189475
 20
-556.141987
 40
4.354338
 50
301.476839
 51
324.727579
  0
ARC
  8
APS_GEOMETRY
 10
-48.609005
 20
-556.552563
 40
3.64334
 50
324.727579
 51
350.180699
  0
ARC
  8
APS_GEOMETRY
 10
-66.849807
 20
-553.535442
 40
22.131897
 50
350.537678
 51
355.42288
  0
ARC
  8
APS_GEOMETRY
 10
-141.801969
 20
-547.535058
 40
97.323859
 50
355.42288
 51
357.75194
  0
ARC
  8
APS_GEOMETRY
 10
-211.395469
 20
-544.803082
 40
166.970963
 50
357.75194
 51
359.110676
  0
ARC
  8
APS_GEOMETRY
 10
-434.142011
 20
-541.345415
 40
389.744339
 50
359.110676
 51
0.0
  0
ARC
  8
APS_GEOMETRY
 10
-179.621148
 20
-541.345415
 40
135.223477
 50
0.0
 51
1.772875
  0
ARC
  8
APS_GEOMETRY
 10
-100.261137
 20
-538.889034
 40
55.825459
 50
1.772875
 51
4.532262
  0
ARC
  8
APS_GEOMETRY
 10
-76.140203
 20
-536.977009
 40
31.628862
 50
4.532262
 51
9.383565
  0
ARC
  8
APS_GEOMETRY
 10
-51.646839
 20
-532.929377
 40
6.803307
 50
9.383565
 51
19.855214
  0
ARC
  8
APS_GEOMETRY
 10
-48.40509
 20
-531.696715
 40
3.33611
 50
18.853159
 51
42.157862
  0
ARC
  8
APS_GEOMETRY
 10
-51.183428
 20
-534.212237
 40
7.084045
 50
42.157862
 51
58.091893
  0
ARC
  8
APS_GEOMETRY
 10
-38.954833
 20
-515.315103
 40
15.426197
 50
230.710593
 51
236.633634
  0
ARC
  8
APS_GEOMETRY
 10
-46.636332
 20
-524.703602
 40
3.295684
 50
217.874984
 51
230.710593
  0
ARC
  8
APS_GEOMETRY
 10
-47.689443
 20
-525.522688
 40
1.961539
 50
196.927513
 51
217.874984
  0
ARC
  8
APS_GEOMETRY
 10
-46.703426
 20
-525.222596
 40
2.992211
 50
180.0
 51
196.927513
  0
ARC
  8
APS_GEOMETRY
 10
-47.348347
 20
-525.222596
 40
2.34729
 50
148.790867
 51
180.0
  0
ARC
  8
APS_GEOMETRY
 10
-46.732792
 20
-525.595523
 40
3.067
 50
121.568971
 51
148.790867
  0
ARC
  8
APS_GEOMETRY
 10
-45.627635
 20
-527.394112
 40
5.177994
 50
112.805746
 51
121.568971
  0
ARC
  8
APS_GEOMETRY
 10
-42.640321
 20
-534.498656
 40
12.885042
 50
107.25376
 51
112.805746
  0
ARC
  8
APS_GEOMETRY
 10
-40.810598
 20
-540.389963
 40
19.053947
 50
103.486615
 51
107.25376
  0
ARC
  8
APS_GEOMETRY
 10
-36.620099
 20
-557.862628
 40
37.022094
 50
100.784298
 51
103.486615
  0
ARC
  8
APS_GEOMETRY
 10
-35.307552
 20
-562.693545
 40
42.015051
 50
95.643318
 51
101.309932
  0
ARC
  8
APS_GEOMETRY
 10
-35.273398
 20
-563.039175
 40
42.362364
 50
90.0
 51
95.643318
  0
LINE
  8
APS_GEOMETRY
 10
33.874857
 11
33.874857
 20
-550.600503
 21
-533.398468
  0
ARC
  8
APS_GEOMETRY
 10
-5.846454
 20
-533.398468
 40
39.721311
 50
0.0
 51
2.403809
  0
ARC
  8
APS_GEOMETRY
 10
17.6707
 20
-532.411241
 40
16.183445
 50
2.403809
 51
6.170175
  0
ARC
  8
APS_GEOMETRY
 10
24.719855
 20
-531.64917
 40
9.093217
 50
6.170175
 51
12.824398
  0
ARC
  8
APS_GEOMETRY
 10
31.619294
 20
-530.078566
 40
2.017268
 50
12.824398
 51
26.980231
  0
ARC
  8
APS_GEOMETRY
 10
31.941978
 20
-529.91429
 40
1.655174
 50
26.980231
 51
59.649904
  0
ARC
  8
APS_GEOMETRY
 10
28.90394
 20
-535.10285
 40
7.667731
 50
59.649904
 51
74.666715
  0
ARC
  8
APS_GEOMETRY
 10
32.406096
 20
-522.603842
 40
5.312942
 50
225.0
 51
253.886582
  0
ARC
  8
APS_GEOMETRY
 10
30.245191
 20
-524.764747
 40
2.256961
 50
180.0
 51
225.0
  0
ARC
  8
APS_GEOMETRY
 10
30.660181
 20
-524.764747
 40
2.671952
 50
151.15734
 51
180.0
  0
ARC
  8
APS_GEOMETRY
 10
30.653993
 20
-524.761339
 40
2.664887
 50
122.275644
 51
151.15734
  0
ARC
  8
APS_GEOMETRY
 10
31.417979
 20
-525.970983
 40
4.095591
 50
102.308016
 51
122.275644
  0
ARC
  8
APS_GEOMETRY
 10
32.828346
 20
-532.435164
 40
10.711842
 50
90.0
 51
102.308016
  0
ARC
  8
APS_GEOMETRY
 10
32.828346
 20
-544.889345
 40
23.166023
 50
88.989003
 51
90.0
  0
ARC
  8
APS_GEOMETRY
 10
30.88108
 20
-655.234423
 40
133.528281
 50
88.567904
 51
88.989003
  0
ARC
  8
APS_GEOMETRY
 10
28.130971
 20
-765.238763
 40
243.566992
 50
88.337041
 51
88.567904
  0
ARC
  8
APS_GEOMETRY
 10
17.472768
 20
-1132.354655
 40
610.837567
 50
88.191261
 51
88.337041
  0
LINE
  8
APS_GEOMETRY
 10
36.752764
 11
38.68227
 20
-521.821433
 21
-521.821433
  0
ARC
  8
APS_GEOMETRY
 10
32.200646
 20
554.128132
 40
1075.969087
 50
270.345151
 51
270.489696
  0
ARC
  8
APS_GEOMETRY
 10
38.240055
 20
-152.482668
 40
369.332478
 50
270.489696
 51
270.736409
  0
ARC
  8
APS_GEOMETRY
 10
40.719123
 20
-345.354202
 40
176.445013
 50
270.736409
 51
271.25279
  0
ARC
  8
APS_GEOMETRY
 10
44.244733
 20
-506.570735
 40
15.189934
 50
271.25279
 51
273.012788
  0
ARC
  8
APS_GEOMETRY
 10
44.098005
 20
-503.7829
 40
17.981628
 50
273.012788
 51
274.499608
  0
ARC
  8
APS_GEOMETRY
 10
27.441976
 20
-292.129453
 40
230.289435
 50
274.499608
 51
274.915063
  0
LINE
  8
APS_GEOMETRY
 10
47.172913
 11
49.136145
 20
-521.572069
 21
-521.399353
  0
LINE
  8
APS_GEOMETRY
 10
49.136145
 11
51.698259
 20
-521.399353
 21
-521.167363
  0
ARC
  8
APS_GEOMETRY
 10
55.911067
 20
-561.891176
 40
40.941137
 50
93.2397
 51
95.906141
  0
ARC
  8
APS_GEOMETRY
 10
55.164828
 20
-548.707629
 40
27.736487
 50
90.0
 51
93.2397
  0
ARC
  8
APS_GEOMETRY
 10
55.164828
 20
-544.524262
 40
23.55312
 50
77.119689
 51
90.0
  0
ARC
  8
APS_GEOMETRY
 10
56.405686
 20
-539.097826
 40
17.986619
 50
62.370753
 51
77.119689
  0
ARC
  8
APS_GEOMETRY
 10
58.506624
 20
-535.158766
 40
13.52248
 50
31.214952
 51
62.517479
  0
ARC
  8
APS_GEOMETRY
 10
58.443266
 20
-535.197159
 40
13.596563
 50
0.0
 51
31.214952
  0
ARC
  8
APS_GEOMETRY
 10
58.077909
 20
-535.197159
 40
13.961919
 50
334.495861
 51
0.0
  0
ARC
  8
APS_GEOMETRY
 10
58.764505
 20
-535.52471
 40
13.201193
 50
308.25442
 51
334.495861
  0
ARC
  8
APS_GEOMETRY
 10
56.665118
 20
-532.758274
 40
16.673559
 50
287.855247
 51
308.033576
  0
ARC
  8
APS_GEOMETRY
 10
55.262939
 20
-528.405421
 40
21.24668
 50
270.0
 51
287.855247
  0
ARC
  8
APS_GEOMETRY
 10
55.262939
 20
-517.455186
 40
32.196916
 50
266.917819
 51
270.0
  0
ARC
  8
APS_GEOMETRY
 10
57.217391
 20
-481.158212
 40
68.546471
 50
264.805571
 51
266.917819
  0
ARC
  8
APS_GEOMETRY
 10
44.144844
 20
-643.267276
 40
94.094982
 50
85.815084
 51
86.633539
  0
ARC
  8
APS_GEOMETRY
 10
49.343607
 20
-554.888297
 40
5.56323
 50
86.633539
 51
90.0
  0
ARC
  8
APS_GEOMETRY
 10
49.343607
 20
-550.145929
 40
0.820862
 50
90.0
 51
139.6859
  0
ARC
  8
APS_GEOMETRY
 10
49.648095
 20
-550.404282
 40
1.220185
 50
139.6859
 51
180.0
  0
LINE
  8
APS_GEOMETRY
 10
48.42791
 11
48.42791
 20
-550.404282
 21
-550.600503
  0
LINE
  8
APS_GEOMETRY
 10
48.42791
 11
48.656834
 20
-550.600503
 21
-555.963875
  0
ARC
  8
APS_GEOMETRY
 10
56.407287
 20
-555.640939
 40
7.757178
 50
182.385944
 51
193.753071
  0
ARC
  8
APS_GEOMETRY
 10
51.409244
 20
-556.864236
 40
2.611608
 50
193.753071
 51
213.407825
  0
ARC
  8
APS_GEOMETRY
 10
51.465469
 20
-556.827152
 40
2.678961
 50
213.407825
 51
232.62815
  0
ARC
  8
APS_GEOMETRY
 10
55.975886
 20
-550.921761
 40
10.109809
 50
232.62815
 51
242.487997
  0
ARC
  8
APS_GEOMETRY
 10
48.453157
 20
-565.186089
 40
6.017001
 50
40.539152
 51
61.699244
  0
ARC
  8
APS_GEOMETRY
 10
51.741421
 20
-562.373758
 40
1.690122
 50
0.0
 51
40.539152
  0
ARC
  8
APS_GEOMETRY
 10
51.162064
 20
-562.373758
 40
2.269479
 50
315.296867
 51
0.0
  0
ARC
  8
APS_GEOMETRY
 10
48.09262
 20
-559.335957
 40
6.588012
 50
289.502449
 51
315.296867
  0
ARC
  8
APS_GEOMETRY
 10
45.843141
 20
-552.984488
 40
13.326061
 50
282.372155
 51
289.502449
  0
ARC
  8
APS_GEOMETRY
 10
43.48051
 20
-542.213671
 40
24.352962
 50
277.099184
 51
282.372155
  0
ARC
  8
APS_GEOMETRY
 10
42.509136
 20
-534.414108
 40
32.212781
 50
273.103908
 51
277.099184
  0
ARC
  8
APS_GEOMETRY
 10
41.363956
 20
-513.295647
 40
53.362268
 50
270.0
 51
273.103908
  0
ARC
  8
APS_GEOMETRY
 10
41.363956
 20
-513.935291
 40
52.722625
 50
263.472919
 51
270.0
  0
ARC
  8
APS_GEOMETRY
 10
37.031424
 20
-551.802307
 40
14.608562
 50
251.055563
 51
263.472919
  0
ARC
  8
APS_GEOMETRY
 10
34.249408
 20
-559.907391
 40
6.039315
 50
224.160841
 51
251.055563
  0
ARC
  8
APS_GEOMETRY
 10
31.575013
 20
-562.504572
 40
2.311348
 50
180.0
 51
224.160841
  0
ARC
  8
APS_GEOMETRY
 10
32.054774
 20
-562.504572
 40
2.791108
 50
160.820992
 51
180.0
  0
ARC
  8
APS_GEOMETRY
 10
30.884086
 20
-562.097377
 40
1.551625
 50
135.0
 51
160.820992
  0
ARC
  8
APS_GEOMETRY
 10
31.990636
 20
-563.203926
 40
3.116523
 50
121.522177
 51
135.0
  0
ARC
  8
APS_GEOMETRY
 10
44.475673
 20
-583.559965
 40
26.996315
 50
116.952179
 51
121.522177
  0
ARC
  8
APS_GEOMETRY
 10
30.842735
 20
-556.849002
 40
2.992871
 50
297.824096
 51
321.604835
  0
ARC
  8
APS_GEOMETRY
 10
31.532127
 20
-557.395313
 40
2.113258
 50
321.604835
 51
349.99202
  0
ARC
  8
APS_GEOMETRY
 10
28.332795
 20
-556.830725
 40
5.362025
 50
349.99202
 51
356.013707
  0
ARC
  8
APS_GEOMETRY
 10
-20.330017
 20
-553.439588
 40
54.142852
 50
356.013707
 51
357.907934
  0
ARC
  8
APS_GEOMETRY
 10
-77.134231
 20
-551.364549
 40
110.984954
 50
357.907934
 51
358.832845
  0
ARC
  8
APS_GEOMETRY
 10
-282.530573
 20
-547.179903
 40
316.423919
 50
358.832845
 51
359.38061
  0
LINE
  8
APS_GEOMETRY
 10
48.656834
 11
48.656834
 20
-529.245125
 21
-540.364311
  0
ARC
  8
APS_GEOMETRY
 10
52.031239
 20
-540.364311
 40
3.374405
 50
180.0
 51
199.885165
  0
ARC
  8
APS_GEOMETRY
 10
49.506349
 20
-541.277569
 40
0.689427
 50
199.885165
 51
244.798876
  0
ARC
  8
APS_GEOMETRY
 10
50.957494
 20
-538.287353
 40
4.01312
 50
244.230672
 51
258.996459
  0
ARC
  8
APS_GEOMETRY
 10
51.567445
 20
-535.150462
 40
7.208761
 50
258.996459
 51
270.0
  0
ARC
  8
APS_GEOMETRY
 10
51.567445
 20
-535.908751
 40
6.450472
 50
270.0
 51
288.434949
  0
ARC
  8
APS_GEOMETRY
 10
52.030209
 20
-537.297045
 40
4.987082
 50
288.434949
 51
309.427802
  0
ARC
  8
APS_GEOMETRY
 10
52.198704
 20
-537.471386
 40
4.745445
 50
309.193273
 51
339.939397
  0
ARC
  8
APS_GEOMETRY
 10
46.32905
 20
-535.327973
 40
10.994208
 50
339.939397
 51
0.0
  0
ARC
  8
APS_GEOMETRY
 10
46.975407
 20
-535.327973
 40
10.347852
 50
0.0
 51
22.011283
  0
ARC
  8
APS_GEOMETRY
 10
51.560144
 20
-533.474569
 40
5.40266
 50
22.011283
 51
52.650651
  0
ARC
  8
APS_GEOMETRY
 10
51.489381
 20
-533.523604
 40
5.484635
 50
52.373766
 51
72.30911
  0
ARC
  8
APS_GEOMETRY
 10
51.044189
 20
-534.919342
 40
6.949653
 50
72.30911
 51
90.0
  0
ARC
  8
APS_GEOMETRY
 10
51.044189
 20
-532.021567
 40
4.051879
 50
90.0
 51
118.113209
  0
ARC
  8
APS_GEOMETRY
 10
49.560884
 20
-529.245125
 40
0.90405
 50
118.113209
 51
180.0
  0
ARC
  8
APS_GEOMETRY
 10
101.394479
 20
-546.229411
 40
25.781524
 50
71.909511
 51
90.0
  0
ARC
  8
APS_GEOMETRY
 10
102.392979
 20
-543.172778
 40
22.565936
 50
52.561428
 51
71.909511
  0
ARC
  8
APS_GEOMETRY
 10
102.131452
 20
-543.24884
 40
22.785888
 50
38.846006
 51
52.155542
  0
ARC
  8
APS_GEOMETRY
 10
98.559318
 20
-546.125635
 40
27.372399
 50
26.707224
 51
38.846006
  0
ARC
  8
APS_GEOMETRY
 10
99.266452
 20
-545.547723
 40
26.481717
 50
13.867603
 51
26.277857
  0
ARC
  8
APS_GEOMETRY
 10
104.366174
 20
-544.288729
 40
21.228887
 50
0.0
 51
13.867603
  0
ARC
  8
APS_GEOMETRY
 10
104.69638
 20
-544.288729
 40
20.898681
 50
339.712247
 51
0.0
  0
ARC
  8
APS_GEOMETRY
 10
103.519877
 20
-543.853814
 40
22.152997
 50
320.013114
 51
339.712247
  0
ARC
  8
APS_GEOMETRY
 10
103.324779
 20
-543.746266
 40
22.371633
 50
303.343757
 51
320.123166
  0
ARC
  8
APS_GEOMETRY
 10
101.02905
 20
-540.257162
 40
26.548261
 50
287.949403
 51
303.343757
  0
ARC
  8
APS_GEOMETRY
 10
100.274795
 20
-537.642052
 40
29.268668
 50
279.039483
 51
287.776406
  0
ARC
  8
APS_GEOMETRY
 10
100.576892
 20
-539.540947
 40
27.345893
 50
270.0
 51
279.039483
  0
ARC
  8
APS_GEOMETRY
 10
100.576892
 20
-540.875987
 40
26.010853
 50
257.72804
 51
270.0
  0
ARC
  8
APS_GEOMETRY
 10
100.61782
 20
-540.687832
 40
26.203407
 50
245.501426
 51
257.72804
  0
ARC
  8
APS_GEOMETRY
 10
99.145114
 20
-543.910607
 40
22.660086
 50
228.665185
 51
245.510859
  0
ARC
  8
APS_GEOMETRY
 10
98.655318
 20
-544.467448
 40
21.918485
 50
211.534792
 51
228.665185
  0
ARC
  8
APS_GEOMETRY
 10
99.297295
 20
-543.996006
 40
22.712325
 50
195.642246
 51
211.70143
  0
ARC
  8
APS_GEOMETRY
 10
100.471021
 20
-543.667363
 40
23.931193
 50
180.0
 51
195.642246
  0
ARC
  8
APS_GEOMETRY
 10
100.722587
 20
-543.667363
 40
24.182759
 50
162.181111
 51
180.0
  0
ARC
  8
APS_GEOMETRY
 10
98.516094
 20
-542.958133
 40
21.865083
 50
143.433519
 51
162.181111
  0
ARC
  8
APS_GEOMETRY
 10
98.219211
 20
-542.720351
 40
21.484982
 50
126.384352
 51
143.471145
  0
ARC
  8
APS_GEOMETRY
 10
100.253343
 20
-545.480958
 40
24.91407
 50
110.525108
 51
126.384352
  0
ARC
  8
APS_GEOMETRY
 10
100.152654
 20
-544.731342
 40
24.177325
 50
99.7697
 51
110.924502
  0
ARC
  8
APS_GEOMETRY
 10
101.394479
 20
-551.94348
 40
31.495593
 50
90.0
 51
99.7697
  0
ARC
  8
APS_GEOMETRY
 10
98.287648
 20
-534.640944
 40
4.807157
 50
90.0
 51
119.604451
  0
ARC
  8
APS_GEOMETRY
 10
98.708691
 20
-535.381979
 40
5.659453
 50
119.604451
 51
146.842076
  0
ARC
  8
APS_GEOMETRY
 10
99.554867
 20
-536.075746
 40
6.74833
 50
145.840305
 51
164.054604
  0
ARC
  8
APS_GEOMETRY
 10
101.516152
 20
-536.636113
 40
8.788097
 50
164.054604
 51
180.0
  0
ARC
  8
APS_GEOMETRY
 10
113.780608
 20
-536.636113
 40
21.052553
 50
180.0
 51
189.976729
  0
ARC
  8
APS_GEOMETRY
 10
132.432206
 20
-533.355144
 40
39.990527
 50
189.976729
 51
197.211115
  0
ARC
  8
APS_GEOMETRY
 10
136.511719
 20
-532.091456
 40
44.261281
 50
197.211115
 51
203.760424
  0
ARC
  8
APS_GEOMETRY
 10
126.34902
 20
-536.565358
 40
33.157396
 50
203.760424
 51
211.328693
  0
ARC
  8
APS_GEOMETRY
 10
105.480882
 20
-549.089103
 40
8.821499
 50
212.319617
 51
224.440823
  0
ARC
  8
APS_GEOMETRY
 10
104.625462
 20
-549.927987
 40
7.623388
 50
224.440823
 51
237.483626
  0
ARC
  8
APS_GEOMETRY
 10
104.072669
 20
-550.795152
 40
6.595013
 50
237.483626
 51
252.415923
  0
ARC
  8
APS_GEOMETRY
 10
103.520206
 20
-552.538415
 40
4.766303
 50
252.415923
 51
270.0
  0
ARC
  8
APS_GEOMETRY
 10
103.520206
 20
-551.973257
 40
5.331461
 50
270.0
 51
294.952847
  0
ARC
  8
APS_GEOMETRY
 10
103.66958
 20
-552.294279
 40
4.977388
 50
294.952847
 51
320.792796
  0
ARC
  8
APS_GEOMETRY
 10
102.86893
 20
-551.641117
 40
6.010664
 50
320.792796
 51
342.776564
  0
ARC
  8
APS_GEOMETRY
 10
99.301118
 20
-550.535096
 40
9.745978
 50
342.776564
 51
0.0
  0
ARC
  8
APS_GEOMETRY
 10
82.539998
 20
-550.535096
 40
26.507098
 50
0.0
 51
8.498559
  0
ARC
  8
APS_GEOMETRY
 10
70.87267
 20
-552.278489
 40
38.30396
 50
8.498559
 51
15.566318
  0
ARC
  8
APS_GEOMETRY
 10
72.275484
 20
-551.887706
 40
36.847733
 50
15.566318
 51
22.908635
  0
ARC
  8
APS_GEOMETRY
 10
84.339186
 20
-546.789655
 40
23.751053
 50
22.908635
 51
32.057376
  0
ARC
  8
APS_GEOMETRY
 10
93.814921
 20
-540.820074
 40
12.551777
 50
31.920876
 51
42.510447
  0
ARC
  8
APS_GEOMETRY
 10
96.416965
 20
-538.434867
 40
9.021927
 50
42.510447
 51
55.00798
  0
ARC
  8
APS_GEOMETRY
 10
97.295838
 20
-537.179335
 40
7.489354
 50
55.00798
 51
69.880367
  0
ARC
  8
APS_GEOMETRY
 10
98.083954
 20
-535.027991
 40
5.198196
 50
69.880367
 51
87.754257
  0
ARC
  8
APS_GEOMETRY
 10
151.908288
 20
-549.651817
 40
2.419773
 50
90.0
 51
115.836754
  0
ARC
  8
APS_GEOMETRY
 10
151.31251
 20
-548.421406
 40
1.05271
 50
115.836754
 51
155.462272
  0
ARC
  8
APS_GEOMETRY
 10
152.007791
 20
-548.738817
 40
1.817018
 50
155.462272
 51
168.366366
  0
ARC
  8
APS_GEOMETRY
 10
158.353779
 20
-550.045344
 40
8.296105
 50
168.366366
 51
174.395461
  0
ARC
  8
APS_GEOMETRY
 10
164.749415
 20
-550.672953
 40
14.722461
 50
174.395461
 51
177.813405
  0
ARC
  8
APS_GEOMETRY
 10
185.977938
 20
-551.483497
 40
35.966453
 50
177.813405
 51
180.0
  0
ARC
  8
APS_GEOMETRY
 10
201.346209
 20
-551.483497
 40
51.334724
 50
180.0
 51
184.619923
  0
ARC
  8
APS_GEOMETRY
 10
166.92638
 20
-554.264897
 40
16.802697
 50
184.619923
 51
192.699584
  0
ARC
  8
APS_GEOMETRY
 10
153.656237
 20
-557.178413
 40
3.217564
 50
194.036243
 51
205.820992
  0
ARC
  8
APS_GEOMETRY
 10
152.250882
 20
-557.858424
 40
1.656336
 50
205.820992
 51
222.273689
  0
ARC
  8
APS_GEOMETRY
 10
152.681409
 20
-557.467036
 40
2.238175
 50
222.273689
 51
234.605204
  0
ARC
  8
APS_GEOMETRY
 10
157.541799
 20
-550.626488
 40
10.629629
 50
234.605204
 51
240.255119
  0
ARC
  8
APS_GEOMETRY
 10
150.15308
 20
-563.700946
 40
4.388594
 50
34.592289
 51
61.189206
  0
ARC
  8
APS_GEOMETRY
 10
151.603301
 20
-562.700793
 40
2.626934
 50
0.0
 51
34.592289
  0
ARC
  8
APS_GEOMETRY
 10
151.69097
 20
-562.700793
 40
2.539265
 50
318.230949
 51
0.0
  0
ARC
  8
APS_GEOMETRY
 10
149.992827
 20
-561.184127
 40
4.816098
 50
288.227257
 51
318.230949
  0
ARC
  8
APS_GEOMETRY
 10
148.231725
 20
-555.836281
 40
10.446456
 50
280.377402
 51
288.227257
  0
ARC
  8
APS_GEOMETRY
 10
145.161866
 20
-539.072703
 40
27.488803
 50
275.540609
 51
280.377402
  0
ARC
  8
APS_GEOMETRY
 10
143.838954
 20
-525.43505
 40
41.19047
 50
272.304132
 51
275.540609
  0
ARC
  8
APS_GEOMETRY
 10
142.228055
 20
-485.399188
 40
81.258728
 50
270.0
 51
272.304132
  0
ARC
  8
APS_GEOMETRY
 10
142.228055
 20
-518.85792
 40
47.799995
 50
262.811463
 51
270.0
  0
ARC
  8
APS_GEOMETRY
 10
137.938972
 20
-552.864223
 40
13.524277
 50
249.274441
 51
262.811463
  0
ARC
  8
APS_GEOMETRY
 10
135.241029
 20
-559.9945
 40
5.900647
 50
221.378515
 51
249.274441
  0
ARC
  8
APS_GEOMETRY
 10
132.874355
 20
-562.079427
 40
2.746591
 50
180.0
 51
221.378515
  0
ARC
  8
APS_GEOMETRY
 10
132.856238
 20
-562.079427
 40
2.728474
 50
164.054604
 51
180.0
  0
ARC
  8
APS_GEOMETRY
 10
131.718831
 20
-561.754453
 40
1.545552
 50
142.815294
 51
164.054604
  0
ARC
  8
APS_GEOMETRY
 10
132.434663
 20
-562.297499
 40
2.444059
 50
129.007473
 51
142.815294
  0
ARC
  8
APS_GEOMETRY
 10
141.226623
 20
-573.15177
 40
16.412372
 50
123.690068
 51
129.007473
  0
ARC
  8
APS_GEOMETRY
 10
128.750141
 20
-554.3789
 40
6.128392
 50
303.388514
 51
319.02199
  0
ARC
  8
APS_GEOMETRY
 10
130.408655
 20
-555.819507
 40
3.931572
 50
319.02199
 51
338.574706
  0
ARC
  8
APS_GEOMETRY
 10
128.18916
 20
-554.948566
 40
6.315832
 50
338.574706
 51
351.048929
  0
ARC
  8
APS_GEOMETRY
 10
101.383083
 20
-550.726363
 40
33.45239
 50
351.048929
 51
356.460441
  0
ARC
  8
APS_GEOMETRY
 10
110.219104
 20
-551.062583
 40
24.613362
 50
355.971736
 51
358.680054
  0
ARC
  8
APS_GEOMETRY
 10
-179.971828
 20
-544.376156
 40
314.881317
 50
358.680054
 51
359.437191
  0
LINE
  8
APS_GEOMETRY
 10
134.894298
 11
134.924957
 20
-547.469144
 21
-542.557488
  0
LINE
  8
APS_GEOMETRY
 10
134.924957
 11
134.935177
 20
-542.557488
 21
-536.145561
  0
ARC
  8
APS_GEOMETRY
 10
59.125937
 20
-536.145561
 40
75.80924
 50
0.0
 51
1.717132
  0
ARC
  8
APS_GEOMETRY
 10
99.694449
 20
-534.929374
 40
35.222502
 50
1.717132
 51
4.236395
  0
ARC
  8
APS_GEOMETRY
 10
112.923683
 20
-533.949431
 40
21.957024
 50
4.236395
 51
8.268833
  0
ARC
  8
APS_GEOMETRY
 10
128.147354
 20
-531.736994
 40
6.573427
 50
8.268833
 51
15.642246
  0
ARC
  8
APS_GEOMETRY
 10
130.767339
 20
-531.003398
 40
3.852677
 50
15.642246
 51
39.417394
  0
ARC
  8
APS_GEOMETRY
 10
130.826255
 20
-530.954974
 40
3.776414
 50
39.417394
 51
63.434949
  0
ARC
  8
APS_GEOMETRY
 10
137.627595
 20
-516.865392
 40
11.86934
 50
236.873849
 51
244.48613
  0
ARC
  8
APS_GEOMETRY
 10
132.568124
 20
-524.618868
 40
2.611121
 50
220.601295
 51
236.873849
  0
ARC
  8
APS_GEOMETRY
 10
131.987807
 20
-525.116282
 40
1.846799
 50
198.245855
 51
220.601295
  0
ARC
  8
APS_GEOMETRY
 10
132.855729
 20
-524.830154
 40
2.760668
 50
180.0
 51
198.245855
  0
ARC
  8
APS_GEOMETRY
 10
132.842645
 20
-524.830154
 40
2.747584
 50
156.16126
 51
180.0
  0
ARC
  8
APS_GEOMETRY
 10
133.225857
 20
-524.99948
 40
3.166539
 50
133.97697
 51
156.16126
  0
ARC
  8
APS_GEOMETRY
 10
133.989311
 20
-525.790696
 40
4.266032
 50
116.995838
 51
133.97697
  0
ARC
  8
APS_GEOMETRY
 10
135.506152
 20
-528.768199
 40
7.607638
 50
104.300277
 51
116.995838
  0
ARC
  8
APS_GEOMETRY
 10
135.898127
 20
-530.274182
 40
9.16378
 50
95.325741
 51
104.349332
  0
ARC
  8
APS_GEOMETRY
 10
137.486049
 20
-547.308258
 40
26.271709
 50
90.0
 51
95.325741
  0
ARC
  8
APS_GEOMETRY
 10
137.486049
 20
-534.049507
 40
13.012958
 50
87.552951
 51
90.0
  0
ARC
  8
APS_GEOMETRY
 10
134.717349
 20
-598.837081
 40
77.859665
 50
86.552613
 51
87.552951
  0
ARC
  8
APS_GEOMETRY
 10
130.7808
 20
-664.1838
 40
143.324848
 50
86.009087
 51
86.552613
  0
ARC
  8
APS_GEOMETRY
 10
115.472898
 20
-883.59706
 40
363.271456
 50
85.667686
 51
86.009087
  0
ARC
  8
APS_GEOMETRY
 10
144.121005
 20
-506.286372
 40
15.125382
 50
265.426079
 51
268.531199
  0
ARC
  8
APS_GEOMETRY
 10
145.4657
 20
-453.843261
 40
67.58573
 50
268.531199
 51
270.0
  0
ARC
  8
APS_GEOMETRY
 10
145.4657
 20
-469.918359
 40
51.510632
 50
270.0
 51
271.636577
  0
ARC
  8
APS_GEOMETRY
 10
144.314713
 20
-429.633816
 40
91.811614
 50
271.636577
 51
272.862405
  0
ARC
  8
APS_GEOMETRY
 10
142.993235
 20
-403.204238
 40
118.274209
 50
272.862405
 51
273.814075
  0
ARC
  8
APS_GEOMETRY
 10
138.519644
 20
-336.100375
 40
185.527026
 50
273.814075
 51
274.573921
  0
ARC
  8
APS_GEOMETRY
 10
166.58172
 20
-701.09117
 40
180.54275
 50
93.719877
 51
94.214179
  0
ARC
  8
APS_GEOMETRY
 10
160.592623
 20
-608.973151
 40
88.230244
 50
93.012788
 51
93.719877
  0
ARC
  8
APS_GEOMETRY
 10
158.950735
 20
-577.77728
 40
56.991196
 50
91.91828
 51
93.012788
  0
ARC
  8
APS_GEOMETRY
 10
157.664102
 20
-539.36208
 40
18.554456
 50
90.0
 51
91.91828
  0
ARC
  8
APS_GEOMETRY
 10
157.664102
 20
-544.916201
 40
24.108577
 50
73.820397
 51
90.0
  0
ARC
  8
APS_GEOMETRY
 10
160.040235
 20
-536.726615
 40
15.581248
 50
53.657551
 51
73.820397
  0
ARC
  8
APS_GEOMETRY
 10
163.419977
 20
-532.107124
 40
9.857439
 50
26.029592
 51
53.569142
  0
ARC
  8
APS_GEOMETRY
 10
162.38294
 20
-532.613584
 40
11.011539
 50
0.0
 51
26.029592
  0
ARC
  8
APS_GEOMETRY
 10
161.951463
 20
-532.613584
 40
11.443017
 50
345.281696
 51
0.0
  0
ARC
  8
APS_GEOMETRY
 10
163.052224
 20
-532.902739
 40
10.30491
 50
329.767161
 51
345.281696
  0
ARC
  8
APS_GEOMETRY
 10
163.675864
 20
-533.266185
 40
9.583094
 50
313.168137
 51
329.767161
  0
ARC
  8
APS_GEOMETRY
 10
163.906798
 20
-533.512379
 40
9.24554
 50
296.266638
 51
313.168137
  0
ARC
  8
APS_GEOMETRY
 10
169.169944
 20
-544.146344
 40
2.619643
 50
116.565051
 51
139.899092
  0
ARC
  8
APS_GEOMETRY
 10
167.863281
 20
-543.045997
 40
0.911389
 50
139.899092
 51
180.0
  0
ARC
  8
APS_GEOMETRY
 10
167.964594
 20
-543.045997
 40
1.012702
 50
180.0
 51
226.193489
  0
ARC
  8
APS_GEOMETRY
 10
169.835526
 20
-541.095451
 40
3.715481
 50
226.193489
 51
249.829347
  0
ARC
  8
APS_GEOMETRY
 10
164.474385
 20
-555.856684
 40
11.989195
 50
53.249344
 51
70.104569
  0
ARC
  8
APS_GEOMETRY
 10
166.909661
 20
-552.595533
 40
7.9191
 50
32.471192
 51
53.249344
  0
ARC
  8
APS_GEOMETRY
 10
165.774652
 20
-553.317811
 40
9.264437
 50
23.304891
 51
32.471192
  0
ARC
  8
APS_GEOMETRY
 10
158.764552
 20
-556.337546
 40
16.89728
 50
16.520892
 51
23.304891
  0
ARC
  8
APS_GEOMETRY
 10
153.299026
 20
-557.958677
 40
22.598161
 50
11.429216
 51
16.520892
  0
ARC
  8
APS_GEOMETRY
 10
137.809162
 20
-561.090202
 40
38.401399
 50
7.52382
 51
11.429216
  0
ARC
  8
APS_GEOMETRY
 10
189.137356
 20
-554.254156
 40
13.380105
 50
187.765166
 51
196.914179
  0
ARC
  8
APS_GEOMETRY
 10
178.194124
 20
-557.581923
 40
1.942082
 50
196.914179
 51
221.081751
  0
ARC
  8
APS_GEOMETRY
 10
178.235846
 20
-557.545549
 40
1.997434
 50
221.081751
 51
244.607077
  0
ARC
  8
APS_GEOMETRY
 10
182.909234
 20
-547.70028
 40
12.895593
 50
244.607077
 51
253.810794
  0
ARC
  8
APS_GEOMETRY
 10
178.800423
 20
-561.710241
 40
1.704862
 50
51.449535
 51
72.474432
  0
ARC
  8
APS_GEOMETRY
 10
178.378577
 20
-562.239617
 40
2.381761
 50
33.690068
 51
51.449535
  0
ARC
  8
APS_GEOMETRY
 10
178.279923
 20
-562.305386
 40
2.500329
 50
16.638806
 51
33.690068
  0
ARC
  8
APS_GEOMETRY
 10
178.16057
 20
-562.341055
 40
2.624898
 50
0.0
 51
16.638806
  0
ARC
  8
APS_GEOMETRY
 10
178.123944
 20
-562.341055
 40
2.661524
 50
338.993211
 51
0.0
  0
ARC
  8
APS_GEOMETRY
 10
176.498807
 20
-561.717002
 40
4.40236
 50
322.696052
 51
338.993211
  0
ARC
  8
APS_GEOMETRY
 10
175.893305
 20
-561.255667
 40
5.163585
 50
308.603415
 51
322.696052
  0
ARC
  8
APS_GEOMETRY
 10
175.476598
 20
-560.733731
 40
5.831464
 50
295.346176
 51
308.603415
  0
ARC
  8
APS_GEOMETRY
 10
173.285402
 20
-555.907549
 40
11.131419
 50
279.582945
 51
294.904769
  0
ARC
  8
APS_GEOMETRY
 10
170.418462
 20
-538.926445
 40
28.352836
 50
270.0
 51
279.582945
  0
ARC
  8
APS_GEOMETRY
 10
170.418462
 20
-546.607596
 40
20.671686
 50
261.247402
 51
270.0
  0
ARC
  8
APS_GEOMETRY
 10
169.094331
 20
-555.20802
 40
11.969926
 50
249.737083
 51
261.247402
  0
ARC
  8
APS_GEOMETRY
 10
168.223911
 20
-557.565759
 40
9.456649
 50
235.344857
 51
249.737083
  0
ARC
  8
APS_GEOMETRY
 10
167.12476
 20
-559.155794
 40
7.523686
 50
219.198413
 51
235.344857
  0
ARC
  8
APS_GEOMETRY
 10
169.437749
 20
-557.183533
 40
10.562859
 50
209.075569
 51
219.559668
  0
ARC
  8
APS_GEOMETRY
 10
174.778489
 20
-554.213898
 40
16.673689
 50
200.735234
 51
209.075569
  0
ARC
  8
APS_GEOMETRY
 10
182.148031
 20
-551.424
 40
24.553643
 50
197.881035
 51
200.735234
  0
ARC
  8
APS_GEOMETRY
 10
212.429532
 20
-541.654409
 40
56.3721
 50
195.997451
 51
197.881035
  0
ARC
  8
APS_GEOMETRY
 10
234.811472
 20
-535.237569
 40
79.655722
 50
194.663974
 51
195.997451
  0
ARC
  8
APS_GEOMETRY
 10
296.806708
 20
-519.01508
 40
143.738313
 50
193.671307
 51
194.663974
  0
ARC
  8
APS_GEOMETRY
 10
139.596215
 20
-557.235505
 40
18.051498
 50
13.609732
 51
23.584501
  0
ARC
  8
APS_GEOMETRY
 10
151.415645
 20
-552.07553
 40
5.154821
 50
23.584501
 51
42.31023
  0
ARC
  8
APS_GEOMETRY
 10
152.487654
 20
-551.099727
 40
3.705202
 50
42.31023
 51
67.520566
  0
ARC
  8
APS_GEOMETRY
 10
151.639293
 20
-553.149933
 40
5.924
 50
67.520566
 51
87.397438
  0
LINE
  8
APS_GEOMETRY
 10
150.044189
 11
149.68445
 20
-530.553264
 21
-538.173177
  0
LINE
  8
APS_GEOMETRY
 10
149.68445
 11
149.68445
 20
-538.173177
 21
-538.295815
  0
LINE
  8
APS_GEOMETRY
 10
149.68445
 11
149.68445
 20
-538.295815
 21
-538.467508
  0
ARC
  8
APS_GEOMETRY
 10
154.978743
 20
-538.467508
 40
5.294293
 50
180.0
 51
192.339087
  0
ARC
  8
APS_GEOMETRY
 10
150.769561
 20
-539.388267
 40
0.98558
 50
192.339087
 51
221.185925
  0
ARC
  8
APS_GEOMETRY
 10
150.669185
 20
-539.476096
 40
0.852203
 50
221.185925
 51
253.872424
  0
ARC
  8
APS_GEOMETRY
 10
151.385032
 20
-537.000459
 40
3.429258
 50
253.872424
 51
270.0
  0
ARC
  8
APS_GEOMETRY
 10
151.385032
 20
-532.45912
 40
7.970597
 50
270.0
 51
289.56871
  0
ARC
  8
APS_GEOMETRY
 10
152.834076
 20
-536.535553
 40
3.644278
 50
289.56871
 51
318.680622
  0
ARC
  8
APS_GEOMETRY
 10
152.442124
 20
-536.19098
 40
4.166157
 50
318.680622
 51
344.628325
  0
ARC
  8
APS_GEOMETRY
 10
145.139375
 20
-534.183351
 40
11.739843
 50
344.628325
 51
0.0
  0
ARC
  8
APS_GEOMETRY
 10
148.611185
 20
-534.183351
 40
8.268032
 50
0.0
 51
35.36883
  0
ARC
  8
APS_GEOMETRY
 10
152.39884
 20
-531.494705
 40
3.623127
 50
35.36883
 51
90.0
  0
ARC
  8
APS_GEOMETRY
 10
152.39884
 20
-531.534513
 40
3.662935
 50
90.0
 51
108.434949
  0
ARC
  8
APS_GEOMETRY
 10
151.68618
 20
-529.396533
 40
1.409306
 50
108.434949
 51
138.366461
  0
ARC
  8
APS_GEOMETRY
 10
151.877459
 20
-529.566558
 40
1.665228
 50
138.366461
 51
164.291362
  0
ARC
  8
APS_GEOMETRY
 10
156.362488
 20
-530.827973
 40
6.324268
 50
164.291362
 51
177.510447
  0
LINE
  8
APS_GEOMETRY
 10
200.557997
 11
217.792735
 20
-521.363584
 21
-521.363584
  0
ARC
  8
APS_GEOMETRY
 10
216.921138
 20
-496.668332
 40
24.710628
 50
272.021365
 51
278.440365
  0
ARC
  8
APS_GEOMETRY
 10
217.89388
 20
-503.223769
 40
18.083413
 50
278.440365
 51
285.945396
  0
ARC
  8
APS_GEOMETRY
 10
225.21102
 20
-529.421069
 40
9.117519
 50
98.583621
 51
104.931417
  0
ARC
  8
APS_GEOMETRY
 10
224.595061
 20
-525.340339
 40
4.990564
 50
90.0
 51
98.583621
  0
ARC
  8
APS_GEOMETRY
 10
224.595061
 20
-524.101468
 40
3.751692
 50
52.870717
 51
90.0
  0
ARC
  8
APS_GEOMETRY
 10
219.506462
 20
-530.822659
 40
12.181891
 50
32.517511
 51
52.870717
  0
ARC
  8
APS_GEOMETRY
 10
215.47524
 20
-533.392563
 40
16.962598
 50
17.208621
 51
32.517511
  0
ARC
  8
APS_GEOMETRY
 10
218.835109
 20
-532.351956
 40
13.445271
 50
0.0
 51
17.208621
  0
ARC
  8
APS_GEOMETRY
 10
225.56295
 20
-532.351956
 40
6.717431
 50
337.348108
 51
0.0
  0
ARC
  8
APS_GEOMETRY
 10
228.262864
 20
-533.478692
 40
3.791842
 50
307.042475
 51
337.348108
  0
ARC
  8
APS_GEOMETRY
 10
227.793615
 20
-532.833991
 40
4.589135
 50
287.185706
 51
306.869898
  0
ARC
  8
APS_GEOMETRY
 10
227.374857
 20
-531.480009
 40
6.006395
 50
270.0
 51
287.185706
  0
ARC
  8
APS_GEOMETRY
 10
227.374857
 20
-532.092918
 40
5.393486
 50
252.221439
 51
270.0
  0
ARC
  8
APS_GEOMETRY
 10
227.123772
 20
-532.875962
 40
4.57117
 50
232.895765
 51
252.221439
  0
ARC
  8
APS_GEOMETRY
 10
228.0943
 20
-531.592892
 40
6.179957
 50
218.299689
 51
232.895765
  0
ARC
  8
APS_GEOMETRY
 10
235.674537
 20
-525.606448
 40
15.83902
 50
209.197486
 51
218.299689
  0
ARC
  8
APS_GEOMETRY
 10
197.120769
 20
-546.494312
 40
28.011657
 50
28.024501
 51
32.699461
  0
ARC
  8
APS_GEOMETRY
 10
217.276876
 20
-533.554589
 40
4.059515
 50
32.699461
 51
45.0
  0
ARC
  8
APS_GEOMETRY
 10
218.651182
 20
-532.180283
 40
2.115953
 50
45.0
 51
67.557247
  0
ARC
  8
APS_GEOMETRY
 10
218.643026
 20
-532.200029
 40
2.137317
 50
67.557247
 51
90.0
  0
ARC
  8
APS_GEOMETRY
 10
218.643026
 20
-532.031498
 40
1.968787
 50
90.0
 51
120.801446
  0
ARC
  8
APS_GEOMETRY
 10
218.576497
 20
-531.919902
 40
1.838864
 50
120.801446
 51
152.700428
  0
ARC
  8
APS_GEOMETRY
 10
220.035309
 20
-532.672837
 40
3.480522
 50
152.700428
 51
171.085073
  0
ARC
  8
APS_GEOMETRY
 10
231.124232
 20
-534.412276
 40
14.705043
 50
171.085073
 51
180.0
  0
LINE
  8
APS_GEOMETRY
 10
216.419189
 11
216.419189
 20
-534.412276
 21
-552.726229
  0
ARC
  8
APS_GEOMETRY
 10
235.846259
 20
-552.726229
 40
19.42707
 50
180.0
 51
188.194263
  0
ARC
  8
APS_GEOMETRY
 10
221.338682
 20
-554.81532
 40
4.769851
 50
188.194263
 51
204.775141
  0
ARC
  8
APS_GEOMETRY
 10
219.929218
 20
-555.465842
 40
3.217508
 50
204.775141
 51
228.576334
  0
ARC
  8
APS_GEOMETRY
 10
221.251535
 20
-553.967216
 40
5.216108
 50
228.576334
 51
247.217594
  0
ARC
  8
APS_GEOMETRY
 10
213.582635
 20
-572.03937
 40
14.415923
 50
59.381395
 51
66.929588
  0
ARC
  8
APS_GEOMETRY
 10
219.243861
 20
-562.47385
 40
3.30068
 50
43.567904
 51
59.381395
  0
ARC
  8
APS_GEOMETRY
 10
220.149458
 20
-561.612428
 40
2.050818
 50
19.041231
 51
43.567904
  0
ARC
  8
APS_GEOMETRY
 10
218.891116
 20
-562.046723
 40
3.381997
 50
0.0
 51
19.041231
  0
ARC
  8
APS_GEOMETRY
 10
219.525676
 20
-562.046723
 40
2.747437
 50
317.65975
 51
0.0
  0
ARC
  8
APS_GEOMETRY
 10
217.003296
 20
-559.748293
 40
6.159941
 50
289.746837
 51
317.65975
  0
ARC
  8
APS_GEOMETRY
 10
214.890839
 20
-553.863592
 40
12.412315
 50
281.964396
 51
289.746837
  0
ARC
  8
APS_GEOMETRY
 10
211.964011
 20
-540.051748
 40
26.530862
 50
276.643452
 51
281.964396
  0
ARC
  8
APS_GEOMETRY
 10
210.732215
 20
-529.475902
 40
37.178202
 50
272.836113
 51
276.643452
  0
ARC
  8
APS_GEOMETRY
 10
209.257125
 20
-499.700155
 40
66.990463
 50
270.0
 51
272.836113
  0
ARC
  8
APS_GEOMETRY
 10
209.257125
 20
-481.250365
 40
85.440254
 50
267.283141
 51
270.0
  0
ARC
  8
APS_GEOMETRY
 10
207.46323
 20
-519.053419
 40
47.59466
 50
263.64272
 51
267.283141
  0
ARC
  8
APS_GEOMETRY
 10
205.960964
 20
-532.537172
 40
34.02748
 50
258.563267
 51
263.64272
  0
ARC
  8
APS_GEOMETRY
 10
202.372214
 20
-550.276685
 40
15.928599
 50
251.136412
 51
258.563267
  0
ARC
  8
APS_GEOMETRY
 10
199.168103
 20
-559.569421
 40
6.099088
 50
222.557585
 51
251.395035
  0
ARC
  8
APS_GEOMETRY
 10
196.79061
 20
-561.752392
 40
2.871421
 50
180.0
 51
222.557585
  0
ARC
  8
APS_GEOMETRY
 10
196.310949
 20
-561.752392
 40
2.39176
 50
150.642246
 51
180.0
  0
ARC
  8
APS_GEOMETRY
 10
196.502597
 20
-561.860194
 40
2.611648
 50
122.574057
 51
150.642246
  0
ARC
  8
APS_GEOMETRY
 10
195.995645
 20
-561.277805
 40
1.851424
 50
108.676702
 51
119.054604
  0
ARC
  8
APS_GEOMETRY
 10
219.11122
 20
-629.661379
 40
74.036208
 50
107.037768
 51
108.676702
  0
ARC
  8
APS_GEOMETRY
 10
196.556813
 20
-555.897881
 40
3.098808
 50
286.144339
 51
308.659808
  0
ARC
  8
APS_GEOMETRY
 10
197.064251
 20
-556.532178
 40
2.286512
 50
308.659808
 51
334.932537
  0
ARC
  8
APS_GEOMETRY
 10
194.999535
 20
-555.566423
 40
4.565927
 50
334.932537
 51
348.829022
  0
ARC
  8
APS_GEOMETRY
 10
169.173657
 20
-550.466355
 40
30.890567
 50
348.829022
 51
354.160508
  0
ARC
  8
APS_GEOMETRY
 10
151.717747
 20
-548.667051
 40
48.438962
 50
354.143986
 51
355.660291
  0
ARC
  8
APS_GEOMETRY
 10
74.341475
 20
-542.795168
 40
126.037715
 50
355.660291
 51
356.600286
  0
ARC
  8
APS_GEOMETRY
 10
15.19245
 20
-539.281364
 40
185.291018
 50
356.600286
 51
357.239747
  0
ARC
  8
APS_GEOMETRY
 10
-152.632651
 20
-531.190046
 40
353.311058
 50
357.239747
 51
357.702834
  0
ARC
  8
APS_GEOMETRY
 10
-136.112355
 20
-531.852751
 40
336.777476
 50
357.702834
 51
358.674384
  0
ARC
  8
APS_GEOMETRY
 10
19.719926
 20
-535.458787
 40
180.903478
 50
358.674384
 51
0.0
  0
ARC
  8
APS_GEOMETRY
 10
173.813337
 20
-535.458787
 40
26.810067
 50
0.0
 51
6.241914
  0
ARC
  8
APS_GEOMETRY
 10
195.132579
 20
-533.126995
 40
5.363685
 50
6.241914
 51
20.224859
  0
ARC
  8
APS_GEOMETRY
 10
198.087364
 20
-532.03839
 40
2.214746
 50
20.224859
 51
50.440332
  0
ARC
  8
APS_GEOMETRY
 10
198.661195
 20
-531.343753
 40
1.313744
 50
50.440332
 51
90.0
  0
ARC
  8
APS_GEOMETRY
 10
198.661195
 20
-531.792326
 40
1.762317
 50
90.0
 51
126.747471
  0
ARC
  8
APS_GEOMETRY
 10
201.151209
 20
-535.127166
 40
5.924208
 50
126.747471
 51
146.546691
  0
ARC
  8
APS_GEOMETRY
 10
157.163477
 20
-506.214227
 40
46.714947
 50
324.255019
 51
326.700579
  0
ARC
  8
APS_GEOMETRY
 10
175.786428
 20
-519.618357
 40
23.769686
 50
320.826342
 51
324.255019
  0
ARC
  8
APS_GEOMETRY
 10
181.872987
 20
-524.577775
 40
15.918442
 50
315.721571
 51
320.826342
  0
ARC
  8
APS_GEOMETRY
 10
188.86713
 20
-531.397934
 40
6.14948
 50
307.504142
 51
315.721571
  0
ARC
  8
APS_GEOMETRY
 10
188.221838
 20
-530.536637
 40
7.225632
 50
291.305784
 51
307.405357
  0
ARC
  8
APS_GEOMETRY
 10
189.3407
 20
-533.405514
 40
4.146296
 50
270.0
 51
291.305784
  0
ARC
  8
APS_GEOMETRY
 10
189.3407
 20
-533.672854
 40
3.878957
 50
245.531798
 51
270.0
  0
ARC
  8
APS_GEOMETRY
 10
189.311358
 20
-533.737335
 40
3.808114
 50
220.833495
 51
245.531798
  0
ARC
  8
APS_GEOMETRY
 10
189.704486
 20
-533.397594
 40
4.327703
 50
198.683699
 51
220.833495
  0
ARC
  8
APS_GEOMETRY
 10
191.345955
 20
-532.842508
 40
6.060487
 50
180.0
 51
198.683699
  0
ARC
  8
APS_GEOMETRY
 10
195.193164
 20
-532.842508
 40
9.907696
 50
168.407825
 51
180.0
  0
ARC
  8
APS_GEOMETRY
 10
201.545917
 20
-534.145637
 40
16.392726
 50
159.401826
 51
168.407825
  0
ARC
  8
APS_GEOMETRY
 10
203.50911
 20
-534.883481
 40
18.489996
 50
151.38954
 51
159.401826
  0
ARC
  8
APS_GEOMETRY
 10
203.106726
 20
-534.663999
 40
18.031646
 50
143.275893
 51
151.38954
  0
ARC
  8
APS_GEOMETRY
 10
198.057132
 20
-530.888062
 40
11.726407
 50
124.215702
 51
143.310277
  0
ARC
  8
APS_GEOMETRY
 10
193.55945
 20
-524.273825
 40
3.727828
 50
90.0
 51
124.215702
  0
ARC
  8
APS_GEOMETRY
 10
193.55945
 20
-525.930397
 40
5.3844
 50
82.724995
 51
90.0
  0
ARC
  8
APS_GEOMETRY
 10
193.138756
 20
-529.225839
 40
8.706586
 50
77.005383
 51
82.724995
  0
ARC
  8
APS_GEOMETRY
 10
205.987118
 20
-467.279254
 40
54.560918
 50
258.486169
 51
260.377772
  0
ARC
  8
APS_GEOMETRY
 10
200.483132
 20
-499.744172
 40
21.632741
 50
260.377772
 51
263.382083
  0
ARC
  8
APS_GEOMETRY
 10
200.012364
 20
-503.801791
 40
17.547904
 50
263.382083
 51
267.083862
  0
ARC
  8
APS_GEOMETRY
 10
200.557997
 20
-493.090539
 40
28.273045
 50
267.083862
 51
270.0
  0
LINE
  8
APS_GEOMETRY
 10
243.975148
 11
260.784741
 20
-521.363584
 21
-521.363584
  0
ARC
  8
APS_GEOMETRY
 10
260.784741
 20
-309.64405
 40
211.719534
 50
270.0
 51
270.690277
  0
ARC
  8
APS_GEOMETRY
 10
261.978189
 20
-408.700203
 40
112.656192
 50
270.690277
 51
271.636577
  0
ARC
  8
APS_GEOMETRY
 10
262.983727
 20
-443.894025
 40
77.448008
 50
271.636577
 51
273.012788
  0
ARC
  8
APS_GEOMETRY
 10
265.434395
 20
-490.456722
 40
30.820865
 50
273.012788
 51
275.194429
  0
ARC
  8
APS_GEOMETRY
 10
266.041786
 20
-497.138028
 40
24.112006
 50
275.194429
 51
280.755985
  0
ARC
  8
APS_GEOMETRY
 10
266.155984
 20
-497.739181
 40
23.500103
 50
280.755985
 51
286.38954
  0
ARC
  8
APS_GEOMETRY
 10
274.769645
 20
-527.223901
 40
7.217223
 50
100.304846
 51
105.945396
  0
ARC
  8
APS_GEOMETRY
 10
273.866136
 20
-522.254605
 40
2.166457
 50
90.0
 51
100.304846
  0
ARC
  8
APS_GEOMETRY
 10
273.866136
 20
-523.027886
 40
2.939738
 50
58.945729
 51
90.0
  0
ARC
  8
APS_GEOMETRY
 10
272.741801
 20
-524.895086
 40
5.119318
 50
35.537678
 51
58.945729
  0
ARC
  8
APS_GEOMETRY
 10
268.353082
 20
-528.123891
 40
10.567546
 50
16.699244
 51
35.952428
  0
ARC
  8
APS_GEOMETRY
 10
265.051682
 20
-529.114311
 40
14.014309
 50
0.0
 51
16.699244
  0
ARC
  8
APS_GEOMETRY
 10
271.201976
 20
-529.114311
 40
7.864015
 50
344.981639
 51
0.0
  0
ARC
  8
APS_GEOMETRY
 10
274.97652
 20
-530.126993
 40
3.955984
 50
323.746162
 51
344.981639
  0
ARC
  8
APS_GEOMETRY
 10
275.815419
 20
-530.742186
 40
2.915689
 50
296.113913
 51
323.746162
  0
ARC
  8
APS_GEOMETRY
 10
275.664828
 20
-530.434981
 40
3.257818
 50
270.0
 51
296.113913
  0
ARC
  8
APS_GEOMETRY
 10
275.664828
 20
-529.608352
 40
4.084447
 50
255.311213
 51
270.0
  0
ARC
  8
APS_GEOMETRY
 10
275.11872
 20
-531.691654
 40
1.930756
 50
233.880659
 51
255.311213
  0
ARC
  8
APS_GEOMETRY
 10
275.693515
 20
-530.903972
 40
2.905863
 50
219.289407
 51
233.880659
  0
ARC
  8
APS_GEOMETRY
 10
287.223632
 20
-521.47024
 40
17.803477
 50
213.407825
 51
219.289407
  0
ARC
  8
APS_GEOMETRY
 10
265.622454
 20
-535.698564
 40
8.062653
 50
33.293563
 51
51.246316
  0
ARC
  8
APS_GEOMETRY
 10
266.720319
 20
-534.330833
 40
6.308801
 50
51.246316
 51
71.565051
  0
ARC
  8
APS_GEOMETRY
 10
265.994487
 20
-536.508329
 40
8.604083
 50
71.565051
 51
79.27849
  0
ARC
  8
APS_GEOMETRY
 10
263.666449
 20
-548.803818
 40
21.118028
 50
79.27849
 51
84.199782
  0
ARC
  8
APS_GEOMETRY
 10
262.673135
 20
-558.582441
 40
30.946973
 50
84.199782
 51
87.566799
  0
ARC
  8
APS_GEOMETRY
 10
261.471514
 20
-586.860584
 40
59.250634
 50
87.566799
 51
90.0
  0
ARC
  8
APS_GEOMETRY
 10
261.471514
 20
-544.265776
 40
16.655826
 50
90.0
 51
96.37446
  0
ARC
  8
APS_GEOMETRY
 10
260.365947
 20
-534.369596
 40
6.698082
 50
96.37446
 51
106.434163
  0
ARC
  8
APS_GEOMETRY
 10
259.580309
 20
-531.706095
 40
3.92113
 50
106.434163
 51
123.055823
  0
ARC
  8
APS_GEOMETRY
 10
258.353918
 20
-529.82164
 40
1.672752
 50
123.055823
 51
148.626995
  0
ARC
  8
APS_GEOMETRY
 10
259.474185
 20
-530.456699
 40
2.960132
 50
149.420773
 51
165.28034
  0
ARC
  8
APS_GEOMETRY
 10
262.702788
 20
-531.304891
 40
6.29829
 50
165.28034
 51
176.134539
  0
ARC
  8
APS_GEOMETRY
 10
271.945408
 20
-531.929392
 40
15.561985
 50
176.134539
 51
178.366533
  0
ARC
  8
APS_GEOMETRY
 10
357.451266
 20
-534.367772
 40
101.102604
 50
178.366533
 51
179.242164
  0
ARC
  8
APS_GEOMETRY
 10
445.819841
 20
-535.536669
 40
189.478909
 50
179.242164
 51
179.709456
  0
ARC
  8
APS_GEOMETRY
 10
746.468871
 20
-537.061258
 40
490.131804
 50
179.709456
 51
180.0
  0
ARC
  8
APS_GEOMETRY
 10
263.427973
 20
-537.061258
 40
7.090907
 50
180.0
 51
195.027109
  0
ARC
  8
APS_GEOMETRY
 10
257.628844
 20
-538.618072
 40
1.086444
 50
195.027109
 51
234.057888
  0
ARC
  8
APS_GEOMETRY
 10
257.685336
 20
-538.540152
 40
1.182688
 50
234.057888
 51
253.191308
  0
ARC
  8
APS_GEOMETRY
 10
258.922587
 20
-534.444425
 40
5.461212
 50
253.191308
 51
262.062812
  0
ARC
  8
APS_GEOMETRY
 10
259.556305
 20
-529.899134
 40
10.050468
 50
262.062812
 51
266.948518
  0
ARC
  8
APS_GEOMETRY
 10
260.392299
 20
-514.217037
 40
25.754832
 50
266.948518
 51
270.0
  0
ARC
  8
APS_GEOMETRY
 10
260.392299
 20
-535.250108
 40
4.721761
 50
270.0
 51
286.007404
  0
ARC
  8
APS_GEOMETRY
 10
261.218776
 20
-538.13097
 40
1.724691
 50
286.007404
 51
312.646703
  0
ARC
  8
APS_GEOMETRY
 10
261.201441
 20
-538.11215
 40
1.750278
 50
312.646703
 51
338.993211
  0
ARC
  8
APS_GEOMETRY
 10
257.626648
 20
-536.739429
 40
5.579574
 50
338.993211
 51
353.659808
  0
ARC
  8
APS_GEOMETRY
 10
294.545852
 20
-541.142078
 40
31.601426
 50
169.663446
 51
173.118276
  0
ARC
  8
APS_GEOMETRY
 10
268.156116
 20
-536.328855
 40
4.776338
 50
160.769328
 51
169.663446
  0
ARC
  8
APS_GEOMETRY
 10
265.948854
 20
-535.55888
 40
2.438633
 50
143.746162
 51
160.769328
  0
ARC
  8
APS_GEOMETRY
 10
266.482242
 20
-535.950032
 40
3.100073
 50
128.659808
 51
143.746162
  0
ARC
  8
APS_GEOMETRY
 10
266.126611
 20
-535.373745
 40
2.429302
 50
110.170653
 51
130.601295
  0
ARC
  8
APS_GEOMETRY
 10
266.148113
 20
-535.432279
 40
2.49166
 50
90.0
 51
110.170653
  0
ARC
  8
APS_GEOMETRY
 10
266.148113
 20
-535.467729
 40
2.52711
 50
61.220194
 51
90.0
  0
ARC
  8
APS_GEOMETRY
 10
265.707132
 20
-536.27054
 40
3.443063
 50
36.634114
 51
61.220194
  0
ARC
  8
APS_GEOMETRY
 10
265.292989
 20
-536.516693
 40
3.922591
 50
19.103091
 51
35.909723
  0
ARC
  8
APS_GEOMETRY
 10
252.497861
 20
-540.948176
 40
17.463394
 50
11.159944
 51
19.103091
  0
ARC
  8
APS_GEOMETRY
 10
245.812866
 20
-542.266985
 40
24.277234
 50
5.396292
 51
11.159944
  0
ARC
  8
APS_GEOMETRY
 10
242.412967
 20
-542.588148
 40
27.692268
 50
0.0
 51
5.396292
  0
ARC
  8
APS_GEOMETRY
 10
242.894876
 20
-542.588148
 40
27.21036
 50
349.286877
 51
0.0
  0
ARC
  8
APS_GEOMETRY
 10
256.252879
 20
-545.115338
 40
13.615399
 50
334.119726
 51
349.286877
  0
ARC
  8
APS_GEOMETRY
 10
265.454706
 20
-549.562032
 40
3.395531
 50
303.53047
 51
333.853159
  0
ARC
  8
APS_GEOMETRY
 10
265.788375
 20
-550.065568
 40
2.791475
 50
270.0
 51
303.53047
  0
ARC
  8
APS_GEOMETRY
 10
265.788375
 20
-549.93513
 40
2.921913
 50
249.577667
 51
270.0
  0
ARC
  8
APS_GEOMETRY
 10
265.166722
 20
-551.604713
 40
1.140353
 50
216.607075
 51
249.577667
  0
ARC
  8
APS_GEOMETRY
 10
265.76105
 20
-551.163212
 40
1.880723
 50
195.422161
 51
216.607075
  0
ARC
  8
APS_GEOMETRY
 10
276.023404
 20
-548.332218
 40
12.526401
 50
187.253195
 51
195.422161
  0
ARC
  8
APS_GEOMETRY
 10
259.45058
 20
-550.464171
 40
4.183036
 50
7.561428
 51
49.434471
  0
ARC
  8
APS_GEOMETRY
 10
259.280381
 20
-550.662988
 40
4.444753
 50
49.434471
 51
90.0
  0
ARC
  8
APS_GEOMETRY
 10
259.280381
 20
-549.209003
 40
2.990768
 50
90.0
 51
115.223923
  0
ARC
  8
APS_GEOMETRY
 10
258.688853
 20
-547.953304
 40
1.602717
 50
115.223923
 51
149.931417
  0
ARC
  8
APS_GEOMETRY
 10
259.758227
 20
-548.572415
 40
2.838379
 50
149.931417
 51
171.111058
  0
ARC
  8
APS_GEOMETRY
 10
272.725694
 20
-550.600503
 40
15.963482
 50
171.111058
 51
180.0
  0
ARC
  8
APS_GEOMETRY
 10
285.501122
 20
-550.600503
 40
28.73891
 50
180.0
 51
183.062287
  0
ARC
  8
APS_GEOMETRY
 10
329.488739
 20
-548.247256
 40
72.789429
 50
183.062287
 51
184.986334
  0
ARC
  8
APS_GEOMETRY
 10
306.416136
 20
-550.260301
 40
49.629175
 50
184.986334
 51
187.804099
  0
ARC
  8
APS_GEOMETRY
 10
262.715086
 20
-556.249785
 40
5.519587
 50
187.804099
 51
196.260205
  0
ARC
  8
APS_GEOMETRY
 10
258.861287
 20
-557.409935
 40
1.4955
 50
194.931417
 51
230.024075
  0
ARC
  8
APS_GEOMETRY
 10
259.842189
 20
-556.239944
 40
3.022278
 50
230.024075
 51
254.511499
  0
ARC
  8
APS_GEOMETRY
 10
261.033828
 20
-551.939679
 40
7.484596
 50
254.511499
 51
265.219116
  0
ARC
  8
APS_GEOMETRY
 10
263.531834
 20
-522.072217
 40
37.456338
 50
265.219116
 51
270.0
  0
ARC
  8
APS_GEOMETRY
 10
263.531834
 20
-526.031984
 40
33.49657
 50
270.0
 51
274.186237
  0
ARC
  8
APS_GEOMETRY
 10
264.550448
 20
-539.948638
 40
19.542689
 50
274.186237
 51
279.667756
  0
ARC
  8
APS_GEOMETRY
 10
265.38652
 20
-544.856483
 40
14.564138
 50
279.667756
 51
286.990823
  0
ARC
  8
APS_GEOMETRY
 10
267.299339
 20
-551.11662
 40
8.018285
 50
286.990823
 51
296.865814
  0
ARC
  8
APS_GEOMETRY
 10
267.696708
 20
-551.901036
 40
7.138962
 50
296.865814
 51
318.366461
  0
ARC
  8
APS_GEOMETRY
 10
263.697725
 20
-548.346385
 40
12.48942
 50
318.366461
 51
334.580712
  0
ARC
  8
APS_GEOMETRY
 10
290.027107
 20
-560.972393
 40
16.710926
 50
147.079531
 51
154.230672
  0
ARC
  8
APS_GEOMETRY
 10
279.020658
 20
-553.846424
 40
3.599048
 50
131.633539
 51
147.079531
  0
ARC
  8
APS_GEOMETRY
 10
278.200136
 20
-552.923336
 40
2.363998
 50
108.87455
 51
131.633539
  0
ARC
  8
APS_GEOMETRY
 10
278.542735
 20
-553.925439
 40
3.423047
 50
90.0
 51
108.87455
  0
ARC
  8
APS_GEOMETRY
 10
278.542735
 20
-553.229837
 40
2.727445
 50
62.628019
 51
90.0
  0
ARC
  8
APS_GEOMETRY
 10
278.370146
 20
-553.563195
 40
3.102832
 50
36.995271
 51
62.628019
  0
ARC
  8
APS_GEOMETRY
 10
277.59681
 20
-554.145846
 40
4.071093
 50
16.727964
 51
36.995271
  0
ARC
  8
APS_GEOMETRY
 10
275.791456
 20
-554.688439
 40
5.956222
 50
0.0
 51
16.727964
  0
ARC
  8
APS_GEOMETRY
 10
272.215632
 20
-554.688439
 40
9.532045
 50
348.323262
 51
0.0
  0
ARC
  8
APS_GEOMETRY
 10
257.90662
 20
-551.731243
 40
24.143439
 50
340.994016
 51
348.323262
  0
ARC
  8
APS_GEOMETRY
 10
254.512733
 20
-550.562237
 40
27.733013
 50
334.592282
 51
340.994016
  0
ARC
  8
APS_GEOMETRY
 10
260.436597
 20
-553.376072
 40
21.174825
 50
327.264774
 51
334.592282
  0
ARC
  8
APS_GEOMETRY
 10
267.31675
 20
-557.431577
 40
13.197963
 50
320.132554
 51
325.922805
  0
ARC
  8
APS_GEOMETRY
 10
275.319539
 20
-564.115226
 40
2.771277
 50
307.47618
 51
320.132554
  0
ARC
  8
APS_GEOMETRY
 10
276.020529
 20
-565.029561
 40
1.619151
 50
286.429301
 51
307.47618
  0
ARC
  8
APS_GEOMETRY
 10
275.730235
 20
-564.045086
 40
2.645533
 50
270.0
 51
286.429301
  0
ARC
  8
APS_GEOMETRY
 10
275.730235
 20
-560.986642
 40
5.703977
 50
263.774171
 51
270.0
  0
ARC
  8
APS_GEOMETRY
 10
277.398992
 20
-545.689708
 40
21.091665
 50
260.537678
 51
263.774171
  0
ARC
  8
APS_GEOMETRY
 10
269.930039
 20
-587.835753
 40
21.713256
 50
79.380345
 51
84.986886
  0
ARC
  8
APS_GEOMETRY
 10
266.692258
 20
-624.746465
 40
58.765704
 50
84.986886
 51
88.393997
  0
LINE
  8
APS_GEOMETRY
 10
268.339247
 11
240.606689
 20
-566.003846
 21
-566.003846
  0
ARC
  8
APS_GEOMETRY
 10
240.606689
 20
-560.200109
 40
5.803737
 50
254.10251
 51
270.0
  0
ARC
  8
APS_GEOMETRY
 10
239.789281
 20
-563.07012
 40
2.819592
 50
231.215636
 51
254.10251
  0
ARC
  8
APS_GEOMETRY
 10
239.453654
 20
-563.487789
 40
2.283782
 50
203.794835
 51
231.215636
  0
ARC
  8
APS_GEOMETRY
 10
240.125944
 20
-563.191346
 40
3.018529
 50
180.0
 51
203.794835
  0
ARC
  8
APS_GEOMETRY
 10
240.380421
 20
-563.191346
 40
3.273005
 50
164.054604
 51
180.0
  0
ARC
  8
APS_GEOMETRY
 10
238.363618
 20
-562.615116
 40
1.175498
 50
137.29061
 51
164.054604
  0
ARC
  8
APS_GEOMETRY
 10
238.970532
 20
-563.175345
 40
2.001453
 50
120.963757
 51
137.29061
  0
ARC
  8
APS_GEOMETRY
 10
245.471218
 20
-574.009821
 40
14.636515
 50
114.943905
 51
120.963757
  0
ARC
  8
APS_GEOMETRY
 10
237.355976
 20
-556.255722
 40
4.885656
 50
293.428693
 51
305.719954
  0
ARC
  8
APS_GEOMETRY
 10
238.699842
 20
-558.124537
 40
2.583821
 50
305.719954
 51
322.650651
  0
ARC
  8
APS_GEOMETRY
 10
238.49132
 20
-557.965401
 40
2.84613
 50
322.650651
 51
338.110443
  0
ARC
  8
APS_GEOMETRY
 10
234.433439
 20
-556.335003
 40
7.219298
 50
338.110443
 51
347.799531
  0
ARC
  8
APS_GEOMETRY
 10
209.232999
 20
-550.811203
 40
33.018006
 50
347.672229
 51
352.050998
  0
ARC
  8
APS_GEOMETRY
 10
184.840167
 20
-547.405152
 40
57.64749
 50
352.050998
 51
355.364537
  0
ARC
  8
APS_GEOMETRY
 10
168.413166
 20
-546.073233
 40
74.128399
 50
355.364537
 51
357.943473
  0
ARC
  8
APS_GEOMETRY
 10
126.003391
 20
-544.550357
 40
116.565507
 50
357.943473
 51
0.0
  0
ARC
  8
APS_GEOMETRY
 10
77.051131
 20
-544.550357
 40
165.517767
 50
0.0
 51
2.183373
  0
ARC
  8
APS_GEOMETRY
 10
176.026097
 20
-540.776887
 40
66.470894
 50
2.183373
 51
5.629042
  0
ARC
  8
APS_GEOMETRY
 10
205.510078
 20
-537.870869
 40
36.844048
 50
5.629042
 51
11.804813
  0
ARC
  8
APS_GEOMETRY
 10
234.126053
 20
-531.890172
 40
7.609774
 50
11.804813
 51
25.419288
  0
ARC
  8
APS_GEOMETRY
 10
237.829588
 20
-530.20853
 40
3.543656
 50
26.565051
 51
38.157227
  0
ARC
  8
APS_GEOMETRY
 10
239.47407
 20
-528.916437
 40
1.452288
 50
38.157227
 51
56.309932
  0
ARC
  8
APS_GEOMETRY
 10
239.126348
 20
-529.438019
 40
2.079151
 50
56.309932
 51
69.193209
  0
ARC
  8
APS_GEOMETRY
 10
234.246487
 20
-542.27976
 40
15.816813
 50
69.193209
 51
73.855661
  0
ARC
  8
APS_GEOMETRY
 10
239.394248
 20
-524.572765
 40
2.623355
 50
216.869898
 51
253.393019
  0
ARC
  8
APS_GEOMETRY
 10
239.356296
 20
-524.601229
 40
2.575915
 50
180.0
 51
216.869898
  0
ARC
  8
APS_GEOMETRY
 10
239.918204
 20
-524.601229
 40
3.137824
 50
161.565051
 51
180.0
  0
ARC
  8
APS_GEOMETRY
 10
239.804746
 20
-524.56341
 40
3.018228
 50
142.765166
 51
161.565051
  0
ARC
  8
APS_GEOMETRY
 10
239.732564
 20
-524.508552
 40
2.927566
 50
123.424811
 51
142.765166
  0
ARC
  8
APS_GEOMETRY
 10
239.798255
 20
-524.608083
 40
3.046821
 50
104.470294
 51
123.424811
  0
ARC
  8
APS_GEOMETRY
 10
240.378206
 20
-527.470151
 40
5.964992
 50
96.724353
 51
102.994617
  0
ARC
  8
APS_GEOMETRY
 10
242.179228
 20
-542.745482
 40
21.346131
 50
93.410945
 51
96.724353
  0
ARC
  8
APS_GEOMETRY
 10
242.979145
 20
-556.166311
 40
34.790777
 50
91.374835
 51
93.410945
  0
ARC
  8
APS_GEOMETRY
 10
243.975148
 20
-597.666438
 40
76.302854
 50
90.0
 51
91.374835
  0
LINE
  8
APS_GEOMETRY
 10
836.0
 11
836.0
 20
0.0
 21
4.5
  0
LINE
  8
APS_GEOMETRY
 10
44.0
 11
44.0
 20
4.5
 21
0.0
  0
LINE
  8
APS_GEOMETRY
 10
26.5
 11
11.0
 20
2113.5
 21
2129.0
  0
LINE
  8
APS_GEOMETRY
 10
853.5
 11
869.0
 20
2113.5
 21
2129.0
  0
LINE
  8
COSTRUZIONI
 10
853.5
 11
853.5
 20
4.5
 21
2113.5
  0
LINE
  8
COSTRUZIONI
 10
853.5
 11
26.5
 20
2113.5
 21
2113.5
  0
LINE
  8
COSTRUZIONI
 10
26.5
 11
26.5
 20
2113.5
 21
4.5
  0
LINE
  8
COSTRUZIONI
 10
26.5
 11
853.5
 20
4.5
 21
4.5
  0
LINE
  8
APS_GEOMETRY
 10
869.0
 11
869.0
 20
0.0
 21
2129.0
  0
LINE
  8
APS_GEOMETRY
 10
869.0
 11
11.0
 20
2129.0
 21
2129.0
  0
LINE
  8
APS_GEOMETRY
 10
11.0
 11
11.0
 20
2129.0
 21
0.0
  0
LINE
  8
APS_GEOMETRY
 10
938.0
 11
938.0
 20
0.0
 21
2198.0
  0
LINE
  8
APS_GEOMETRY
 10
938.0
 11
-58.0
 20
2198.0
 21
2198.0
  0
LINE
  8
APS_GEOMETRY
 10
-58.0
 11
-58.0
 20
2198.0
 21
0.0
  0
LINE
  8
APS_GEOMETRY
 10
44.0
 11
11.0
 20
0.0
 21
0.0
  0
LINE
  8
APS_GEOMETRY
 10
836.0
 11
869.0
 20
0.0
 21
0.0
  0
LINE
  8
COSTRUZIONI
 10
-1.499996
 11
-1.499996
 20
-166.500102
 21
-284.500147
  0
LINE
  8
COSTRUZIONI
 10
-21.499996
 11
-21.499996
 20
-166.500102
 21
-284.500147
  0
LINE
  8
COSTRUZIONI
 10
-1.499996
 11
-136.543168
 20
-166.500102
 21
-166.500102
  0
LINE
  8
COSTRUZIONI
 10
-1.499996
 11
-136.543168
 20
-284.500147
 21
-284.500147
  0
LINE
  8
COSTRUZIONI
 10
-21.499996
 11
-1.499996
 20
-284.500147
 21
-166.500102
  0
LINE
  8
COSTRUZIONI
 10
-21.499996
 11
-1.499996
 20
-166.500102
 21
-284.500147
  0
LINE
  8
APS_GEOMETRY
 10
-54.499996
 11
0.000004
 20
-163.500102
 21
-163.500102
  0
LINE
  8
APS_GEOMETRY
 10
0.000004
 11
0.000004
 20
-163.500102
 21
-166.500102
  0
LINE
  8
APS_GEOMETRY
 10
0.000004
 11
4.500004
 20
-166.500102
 21
-166.500102
  0
LINE
  8
APS_GEOMETRY
 10
4.500004
 11
4.500004
 20
-166.500102
 21
-177.000102
  0
LINE
  8
APS_GEOMETRY
 10
4.500004
 11
6.000004
 20
-177.000102
 21
-178.500102
  0
LINE
  8
APS_GEOMETRY
 10
6.000004
 11
8.500004
 20
-178.500102
 21
-178.500102
  0
LINE
  8
APS_GEOMETRY
 10
8.500004
 11
8.500004
 20
-178.500102
 21
-160.500102
  0
ARC
  8
APS_GEOMETRY
 10
4.500004
 20
-160.500102
 40
4.0
 50
0.0
 51
90.0
  0
LINE
  8
APS_GEOMETRY
 10
4.500004
 11
-56.499996
 20
-156.500102
 21
-156.500102
  0
ARC
  8
APS_GEOMETRY
 10
-56.499996
 20
-160.500102
 40
4.0
 50
90.0
 51
180.0
  0
LINE
  8
APS_GEOMETRY
 10
-60.499996
 11
-60.499996
 20
-160.500102
 21
-166.500102
  0
LINE
  8
APS_GEOMETRY
 10
-60.499996
 11
-54.499996
 20
-166.500102
 21
-166.500102
  0
LINE
  8
APS_GEOMETRY
 10
-54.499996
 11
-54.499996
 20
-166.500102
 21
-163.500102
  0
LINE
  8
APS_GEOMETRY
 10
-51.999958
 11
2.500042
 20
-287.500147
 21
-287.500147
  0
LINE
  8
APS_GEOMETRY
 10
2.500042
 11
2.500042
 20
-287.500147
 21
-284.500147
  0
LINE
  8
APS_GEOMETRY
 10
2.500042
 11
7.000042
 20
-284.500147
 21
-284.500147
  0
LINE
  8
APS_GEOMETRY
 10
7.000042
 11
7.000042
 20
-284.500147
 21
-274.000147
  0
LINE
  8
APS_GEOMETRY
 10
7.000042
 11
8.500042
 20
-274.000147
 21
-272.500147
  0
LINE
  8
APS_GEOMETRY
 10
8.500042
 11
11.000042
 20
-272.500147
 21
-272.500147
  0
LINE
  8
APS_GEOMETRY
 10
11.000042
 11
11.000042
 20
-272.500147
 21
-290.500147
  0
ARC
  8
APS_GEOMETRY
 10
7.000042
 20
-290.500147
 40
4.0
 50
270.0
 51
0.0
  0
LINE
  8
APS_GEOMETRY
 10
7.000042
 11
-53.999958
 20
-294.500147
 21
-294.500147
  0
ARC
  8
APS_GEOMETRY
 10
-53.999958
 20
-290.500147
 40
4.0
 50
180.0
 51
270.0
  0
LINE
  8
APS_GEOMETRY
 10
-57.999958
 11
-57.999958
 20
-290.500147
 21
-284.500147
  0
LINE
  8
APS_GEOMETRY
 10
-57.999958
 11
-51.999958
 20
-284.500147
 21
-284.500147
  0
LINE
  8
APS_GEOMETRY
 10
-51.999958
 11
-51.999958
 20
-284.500147
 21
-287.500147
  0
LINE
  8
APS_GEOMETRY
 10
0.000004
 11
0.000004
 20
-213.49587
 21
-284.500147
  0
LINE
  8
APS_GEOMETRY
 10
0.000004
 11
6.700042
 20
-284.500147
 21
-284.500147
  0
LINE
  8
APS_GEOMETRY
 10
6.700042
 11
6.700042
 20
-284.500147
 21
-270.500147
  0
LINE
  8
APS_GEOMETRY
 10
6.700042
 11
11.000042
 20
-270.500147
 21
-270.500147
  0
LINE
  8
APS_GEOMETRY
 10
11.000042
 11
11.000042
 20
-270.500147
 21
-284.500111
  0
LINE
  8
APS_GEOMETRY
 10
11.000042
 11
33.999996
 20
-284.500111
 21
-284.500111
  0
ARC
  8
APS_GEOMETRY
 10
33.999996
 20
-274.500111
 40
10.0
 50
270.0
 51
0.0
  0
LINE
  8
APS_GEOMETRY
 10
43.999996
 11
43.999996
 20
-274.500111
 21
-200.700067
  0
ARC
  8
APS_GEOMETRY
 10
42.999996
 20
-200.700067
 40
1.0
 50
0.0
 51
90.0
  0
LINE
  8
APS_GEOMETRY
 10
42.999996
 11
25.799958
 20
-199.700067
 21
-199.700067
  0
LINE
  8
APS_GEOMETRY
 10
25.799958
 11
25.799958
 20
-199.700067
 21
-196.200067
  0
LINE
  8
APS_GEOMETRY
 10
25.799958
 11
33.499959
 20
-196.200067
 21
-196.200067
  0
LINE
  8
APS_GEOMETRY
 10
33.499959
 11
33.499996
 20
-196.200067
 21
-169.500066
  0
ARC
  8
APS_GEOMETRY
 10
30.499996
 20
-169.500066
 40
3.0
 50
0.0
 51
90.0
  0
LINE
  8
APS_GEOMETRY
 10
30.499996
 11
8.500004
 20
-166.500066
 21
-166.500066
  0
LINE
  8
APS_GEOMETRY
 10
8.500004
 11
8.500004
 20
-166.500066
 21
-180.500102
  0
LINE
  8
APS_GEOMETRY
 10
8.500004
 11
4.200004
 20
-180.500102
 21
-180.500102
  0
LINE
  8
APS_GEOMETRY
 10
4.200004
 11
4.200004
 20
-180.500102
 21
-166.500102
  0
LINE
  8
APS_GEOMETRY
 10
4.200004
 11
0.000004
 20
-166.500102
 21
-166.500102
  0
LINE
  8
APS_GEOMETRY
 10
0.000004
 11
0.000004
 20
-166.500102
 21
-284.500147
  0
LINE
  8
COSTRUZIONI
 10
881.499996
 11
881.499996
 20
-166.500102
 21
-284.500147
  0
LINE
  8
COSTRUZIONI
 10
901.499996
 11
901.499996
 20
-166.500102
 21
-284.500147
  0
LINE
  8
COSTRUZIONI
 10
881.499996
 11
1016.543168
 20
-166.500102
 21
-166.500102
  0
LINE
  8
COSTRUZIONI
 10
881.499996
 11
1016.543168
 20
-284.500147
 21
-284.500147
  0
LINE
  8
COSTRUZIONI
 10
901.499996
 11
881.499996
 20
-284.500147
 21
-166.500102
  0
LINE
  8
COSTRUZIONI
 10
901.499996
 11
881.499996
 20
-166.500102
 21
-284.500147
  0
LINE
  8
APS_GEOMETRY
 10
934.499996
 11
879.999996
 20
-163.500102
 21
-163.500102
  0
LINE
  8
APS_GEOMETRY
 10
879.999996
 11
879.999996
 20
-163.500102
 21
-166.500102
  0
LINE
  8
APS_GEOMETRY
 10
879.999996
 11
875.499996
 20
-166.500102
 21
-166.500102
  0
LINE
  8
APS_GEOMETRY
 10
875.499996
 11
875.499996
 20
-166.500102
 21
-177.000102
  0
LINE
  8
APS_GEOMETRY
 10
875.499996
 11
873.999996
 20
-177.000102
 21
-178.500102
  0
LINE
  8
APS_GEOMETRY
 10
873.999996
 11
871.499996
 20
-178.500102
 21
-178.500102
  0
LINE
  8
APS_GEOMETRY
 10
871.499996
 11
871.499996
 20
-178.500102
 21
-160.500102
  0
ARC
  8
APS_GEOMETRY
 10
875.499996
 20
-160.500102
 40
4.0
 50
90.0
 51
180.0
  0
LINE
  8
APS_GEOMETRY
 10
875.499996
 11
936.499996
 20
-156.500102
 21
-156.500102
  0
ARC
  8
APS_GEOMETRY
 10
936.499996
 20
-160.500102
 40
4.0
 50
0.0
 51
90.0
  0
LINE
  8
APS_GEOMETRY
 10
940.499996
 11
940.499996
 20
-160.500102
 21
-166.500102
  0
LINE
  8
APS_GEOMETRY
 10
940.499996
 11
934.499996
 20
-166.500102
 21
-166.500102
  0
LINE
  8
APS_GEOMETRY
 10
934.499996
 11
934.499996
 20
-166.500102
 21
-163.500102
  0
LINE
  8
APS_GEOMETRY
 10
931.999958
 11
877.499958
 20
-287.500147
 21
-287.500147
  0
LINE
  8
APS_GEOMETRY
 10
877.499958
 11
877.499958
 20
-287.500147
 21
-284.500147
  0
LINE
  8
APS_GEOMETRY
 10
877.499958
 11
872.999958
 20
-284.500147
 21
-284.500147
  0
LINE
  8
APS_GEOMETRY
 10
872.999958
 11
872.999958
 20
-284.500147
 21
-274.000147
  0
LINE
  8
APS_GEOMETRY
 10
872.999958
 11
871.499958
 20
-274.000147
 21
-272.500147
  0
LINE
  8
APS_GEOMETRY
 10
871.499958
 11
868.999958
 20
-272.500147
 21
-272.500147
  0
LINE
  8
APS_GEOMETRY
 10
868.999958
 11
868.999958
 20
-272.500147
 21
-290.500147
  0
ARC
  8
APS_GEOMETRY
 10
872.999958
 20
-290.500147
 40
4.0
 50
180.0
 51
270.0
  0
LINE
  8
APS_GEOMETRY
 10
872.999958
 11
933.999958
 20
-294.500147
 21
-294.500147
  0
ARC
  8
APS_GEOMETRY
 10
933.999958
 20
-290.500147
 40
4.0
 50
270.0
 51
0.0
  0
LINE
  8
APS_GEOMETRY
 10
937.999958
 11
937.999958
 20
-290.500147
 21
-284.500147
  0
LINE
  8
APS_GEOMETRY
 10
937.999958
 11
931.999958
 20
-284.500147
 21
-284.500147
  0
LINE
  8
APS_GEOMETRY
 10
931.999958
 11
931.999958
 20
-284.500147
 21
-287.500147
  0
LINE
  8
APS_GEOMETRY
 10
879.999996
 11
879.999996
 20
-213.49587
 21
-284.500147
  0
LINE
  8
APS_GEOMETRY
 10
879.999996
 11
873.299958
 20
-284.500147
 21
-284.500147
  0
LINE
  8
APS_GEOMETRY
 10
873.299958
 11
873.299958
 20
-284.500147
 21
-270.500147
  0
LINE
  8
APS_GEOMETRY
 10
873.299958
 11
868.999958
 20
-270.500147
 21
-270.500147
  0
LINE
  8
APS_GEOMETRY
 10
868.999958
 11
868.999958
 20
-270.500147
 21
-284.500111
  0
LINE
  8
APS_GEOMETRY
 10
868.999958
 11
846.000004
 20
-284.500111
 21
-284.500111
  0
ARC
  8
APS_GEOMETRY
 10
846.000004
 20
-274.500111
 40
10.0
 50
180.0
 51
270.0
  0
LINE
  8
APS_GEOMETRY
 10
836.000004
 11
836.000004
 20
-274.500111
 21
-200.700067
  0
ARC
  8
APS_GEOMETRY
 10
837.000004
 20
-200.700067
 40
1.0
 50
90.0
 51
180.0
  0
LINE
  8
APS_GEOMETRY
 10
837.000004
 11
854.200042
 20
-199.700067
 21
-199.700067
  0
LINE
  8
APS_GEOMETRY
 10
854.200042
 11
854.200042
 20
-199.700067
 21
-196.200067
  0
LINE
  8
APS_GEOMETRY
 10
854.200042
 11
846.500041
 20
-196.200067
 21
-196.200067
  0
LINE
  8
APS_GEOMETRY
 10
846.500041
 11
846.500004
 20
-196.200067
 21
-169.500066
  0
ARC
  8
APS_GEOMETRY
 10
849.500004
 20
-169.500066
 40
3.0
 50
90.0
 51
180.0
  0
LINE
  8
APS_GEOMETRY
 10
849.500004
 11
871.499996
 20
-166.500066
 21
-166.500066
  0
LINE
  8
APS_GEOMETRY
 10
871.499996
 11
871.499996
 20
-166.500066
 21
-180.500102
  0
LINE
  8
APS_GEOMETRY
 10
871.499996
 11
875.799996
 20
-180.500102
 21
-180.500102
  0
LINE
  8
APS_GEOMETRY
 10
875.799996
 11
875.799996
 20
-180.500102
 21
-166.500102
  0
LINE
  8
APS_GEOMETRY
 10
875.799996
 11
879.999996
 20
-166.500102
 21
-166.500102
  0
LINE
  8
APS_GEOMETRY
 10
879.999996
 11
879.999996
 20
-166.500102
 21
-284.500147
  0
LINE
  8
APS_GEOMETRY
 10
39.499996
 11
840.500004
 20
-196.499961
 21
-196.499961
  0
ARC
  8
APS_GEOMETRY
 10
840.500004
 20
-193.499961
 40
3.0
 50
270.0
 51
0.0
  0
LINE
  8
APS_GEOMETRY
 10
843.500004
 11
843.500004
 20
-193.499961
 21
-166.499961
  0
LINE
  8
APS_GEOMETRY
 10
843.500004
 11
851.500004
 20
-166.499961
 21
-166.499961
  0
ARC
  8
APS_GEOMETRY
 10
851.500004
 20
-164.499961
 40
2.0
 50
270.0
 51
0.0
  0
LINE
  8
APS_GEOMETRY
 10
853.500004
 11
853.500004
 20
-164.499961
 21
-153.999961
  0
ARC
  8
APS_GEOMETRY
 10
850.500004
 20
-153.999961
 40
3.0
 50
0.0
 51
90.0
  0
LINE
  8
APS_GEOMETRY
 10
850.500004
 11
29.499996
 20
-150.999961
 21
-150.999961
  0
ARC
  8
APS_GEOMETRY
 10
29.499996
 20
-153.999961
 40
3.0
 50
90.0
 51
180.0
  0
LINE
  8
APS_GEOMETRY
 10
26.499996
 11
26.499996
 20
-153.999961
 21
-164.499961
  0
ARC
  8
APS_GEOMETRY
 10
28.499996
 20
-164.499961
 40
2.0
 50
180.0
 51
270.0
  0
LINE
  8
APS_GEOMETRY
 10
28.499996
 11
36.499996
 20
-166.499961
 21
-166.499961
  0
LINE
  8
APS_GEOMETRY
 10
36.499996
 11
36.499996
 20
-166.499961
 21
-193.499961
  0
ARC
  8
APS_GEOMETRY
 10
39.499996
 20
-193.499961
 40
3.0
 50
180.0
 51
270.0
  0
LINE
  8
QUOTATURA
 10
1040.562289
 11
1037.228289
 20
729.372986
 21
709.372986
  0
LINE
  8
QUOTATURA
 10
1037.228289
 11
1033.894289
 20
709.372986
 21
729.372986
  0
LINE
  8
QUOTATURA
 10
1033.894289
 11
1040.562289
 20
729.372986
 21
729.372986
  0
LINE
  8
QUOTATURA
 10
1037.228289
 11
1037.228289
 20
709.372986
 21
767.57217
  0
LINE
  8
QUOTATURA
 10
1037.228289
 11
958.488217
 20
767.57217
 21
767.57217
  0
LINE
  8
QUOTATURA
 10
425.687331
 11
445.637667
 20
-25.076463
 21
-28.695808
  0
LINE
  8
QUOTATURA
 10
445.637667
 11
425.592084
 20
-28.695808
 21
-31.743783
  0
LINE
  8
QUOTATURA
 10
425.592084
 11
425.687331
 20
-31.743783
 21
-25.076463
  0
LINE
  8
QUOTATURA
 10
445.637667
 11
389.384463
 20
-28.695808
 21
-27.892191
  0
LINE
  8
QUOTATURA
 10
389.384463
 11
389.384463
 20
-27.892191
 21
3.44888
  0
LINE
  8
QUOTATURA
 10
43.999996
 11
43.999996
 20
-294.500111
 21
-352.323315
  0
LINE
  8
QUOTATURA
 10
836.000004
 11
836.000004
 20
-294.500111
 21
-352.323315
  0
LINE
  8
QUOTATURA
 10
43.999996
 11
277.545772
 20
-342.323315
 21
-342.323315
  0
LINE
  8
QUOTATURA
 10
602.454228
 11
836.000004
 20
-342.323315
 21
-342.323315
  0
LINE
  8
QUOTATURA
 10
63.999996
 11
43.999996
 20
-345.657315
 21
-342.323315
  0
LINE
  8
QUOTATURA
 10
43.999996
 11
63.999996
 20
-342.323315
 21
-338.989315
  0
LINE
  8
QUOTATURA
 10
63.999996
 11
63.999996
 20
-338.989315
 21
-345.657315
  0
LINE
  8
QUOTATURA
 10
816.000004
 11
836.000004
 20
-338.989315
 21
-342.323315
  0
LINE
  8
QUOTATURA
 10
836.000004
 11
816.000004
 20
-342.323315
 21
-345.657315
  0
LINE
  8
QUOTATURA
 10
816.000004
 11
816.000004
 20
-345.657315
 21
-338.989315
  0
LINE
  8
QUOTATURA
 10
0.000004
 11
0.000004
 20
-294.500147
 21
-400.848114
  0
LINE
  8
QUOTATURA
 10
879.999996
 11
879.999996
 20
-294.500147
 21
-400.848114
  0
LINE
  8
QUOTATURA
 10
0.000004
 11
308.20444
 20
-390.848114
 21
-390.848114
  0
LINE
  8
QUOTATURA
 10
571.79556
 11
879.999996
 20
-390.848114
 21
-390.848114
  0
LINE
  8
QUOTATURA
 10
20.000004
 11
0.000004
 20
-394.182114
 21
-390.848114
  0
LINE
  8
QUOTATURA
 10
0.000004
 11
20.000004
 20
-390.848114
 21
-387.514114
  0
LINE
  8
QUOTATURA
 10
20.000004
 11
20.000004
 20
-387.514114
 21
-394.182114
  0
LINE
  8
QUOTATURA
 10
859.999996
 11
879.999996
 20
-387.514114
 21
-390.848114
  0
LINE
  8
QUOTATURA
 10
879.999996
 11
859.999996
 20
-390.848114
 21
-394.182114
  0
LINE
  8
QUOTATURA
 10
859.999996
 11
859.999996
 20
-394.182114
 21
-387.514114
  0
LINE
  8
QUOTATURA
 10
26.499996
 11
26.499996
 20
-141.499961
 21
-94.900048
  0
LINE
  8
QUOTATURA
 10
853.500004
 11
853.500004
 20
-141.499961
 21
-94.900048
  0
LINE
  8
QUOTATURA
 10
26.499996
 11
354.765326
 20
-104.900048
 21
-104.900048
  0
LINE
  8
QUOTATURA
 10
525.234674
 11
853.500004
 20
-104.900048
 21
-104.900048
  0
LINE
  8
QUOTATURA
 10
46.499996
 11
26.499996
 20
-108.234048
 21
-104.900048
  0
LINE
  8
QUOTATURA
 10
26.499996
 11
46.499996
 20
-104.900048
 21
-101.566048
  0
LINE
  8
QUOTATURA
 10
46.499996
 11
46.499996
 20
-101.566048
 21
-108.234048
  0
LINE
  8
QUOTATURA
 10
833.500004
 11
853.500004
 20
-101.566048
 21
-104.900048
  0
LINE
  8
QUOTATURA
 10
853.500004
 11
833.500004
 20
-104.900048
 21
-108.234048
  0
LINE
  8
QUOTATURA
 10
833.500004
 11
833.500004
 20
-108.234048
 21
-101.566048
  0
ARC
  8
APS_GEOMETRY
 10
-321.800538
 20
7.5
 40
3.0
 50
270.0
 51
0.0
  0
LINE
  8
APS_GEOMETRY
 10
-321.800538
 11
-360.800538
 20
4.5
 21
4.5
  0
ARC
  8
APS_GEOMETRY
 10
-360.800538
 20
7.5
 40
3.0
 50
180.0
 51
270.0
  0
LINE
  8
APS_GEOMETRY
 10
-363.800538
 11
-363.800538
 20
2100.5
 21
7.5
  0
LINE
  8
APS_GEOMETRY
 10
-318.800538
 11
-318.800538
 20
7.5
 21
2108.5
  0
ARC
  8
APS_GEOMETRY
 10
-323.800538
 20
2108.5
 40
5.0
 50
0.0
 51
90.0
  0
LINE
  8
APS_GEOMETRY
 10
-323.800538
 11
-331.800538
 20
2113.5
 21
2113.5
  0
ARC
  8
APS_GEOMETRY
 10
-331.800538
 20
2111.5
 40
2.0
 50
90.0
 51
180.0
  0
LINE
  8
APS_GEOMETRY
 10
-333.800538
 11
-333.800538
 20
2111.5
 21
2103.5
  0
LINE
  8
APS_GEOMETRY
 10
-333.800538
 11
-360.800538
 20
2103.5
 21
2103.5
  0
ARC
  8
APS_GEOMETRY
 10
-360.800538
 20
2100.5
 40
3.0
 50
90.0
 51
180.0
  0
LINE
  8
APS_GEOMETRY
 10
-451.800689
 11
-245.780727
 20
0.0
 21
0.0
  0
LINE
  8
COSTRUZIONI
 10
-333.800679
 11
-451.800725
 20
2141.499992
 21
2141.499992
  0
LINE
  8
COSTRUZIONI
 10
-333.800679
 11
-451.800725
 20
2161.499992
 21
2161.499992
  0
LINE
  8
COSTRUZIONI
 10
-333.800679
 11
-333.800679
 20
2141.499992
 21
2276.543164
  0
LINE
  8
COSTRUZIONI
 10
-451.800725
 11
-451.800725
 20
2141.499992
 21
2276.543164
  0
LINE
  8
COSTRUZIONI
 10
-451.800725
 11
-333.800679
 20
2161.499992
 21
2141.499992
  0
LINE
  8
COSTRUZIONI
 10
-333.800679
 11
-451.800725
 20
2161.499992
 21
2141.499992
  0
LINE
  8
APS_GEOMETRY
 10
-330.800679
 11
-330.800679
 20
2194.499992
 21
2139.999992
  0
LINE
  8
APS_GEOMETRY
 10
-330.800679
 11
-333.800679
 20
2139.999992
 21
2139.999992
  0
LINE
  8
APS_GEOMETRY
 10
-333.800679
 11
-333.800679
 20
2139.999992
 21
2135.499992
  0
LINE
  8
APS_GEOMETRY
 10
-333.800679
 11
-344.300679
 20
2135.499992
 21
2135.499992
  0
LINE
  8
APS_GEOMETRY
 10
-344.300679
 11
-345.800679
 20
2135.499992
 21
2133.999992
  0
LINE
  8
APS_GEOMETRY
 10
-345.800679
 11
-345.800679
 20
2133.999992
 21
2131.499992
  0
LINE
  8
APS_GEOMETRY
 10
-345.800679
 11
-327.800679
 20
2131.499992
 21
2131.499992
  0
ARC
  8
APS_GEOMETRY
 10
-327.800679
 20
2135.499992
 40
4.0
 50
270.0
 51
360.0
  0
LINE
  8
APS_GEOMETRY
 10
-323.800679
 11
-323.800679
 20
2135.499992
 21
2196.499992
  0
ARC
  8
APS_GEOMETRY
 10
-327.800679
 20
2196.499992
 40
4.0
 50
360.0
 51
90.0
  0
LINE
  8
APS_GEOMETRY
 10
-327.800679
 11
-333.800679
 20
2200.499992
 21
2200.499992
  0
LINE
  8
APS_GEOMETRY
 10
-333.800679
 11
-333.800679
 20
2200.499992
 21
2194.499992
  0
LINE
  8
APS_GEOMETRY
 10
-333.800679
 11
-330.800679
 20
2194.499992
 21
2194.499992
  0
LINE
  8
APS_GEOMETRY
 10
-454.800725
 11
-454.800725
 20
2191.999954
 21
2137.499954
  0
LINE
  8
APS_GEOMETRY
 10
-454.800725
 11
-451.800725
 20
2137.499954
 21
2137.499954
  0
LINE
  8
APS_GEOMETRY
 10
-451.800725
 11
-451.800725
 20
2137.499954
 21
2132.999954
  0
LINE
  8
APS_GEOMETRY
 10
-451.800725
 11
-441.300725
 20
2132.999954
 21
2132.999954
  0
LINE
  8
APS_GEOMETRY
 10
-441.300725
 11
-439.800725
 20
2132.999954
 21
2131.499954
  0
LINE
  8
APS_GEOMETRY
 10
-439.800725
 11
-439.800725
 20
2131.499954
 21
2128.999954
  0
LINE
  8
APS_GEOMETRY
 10
-439.800725
 11
-457.800725
 20
2128.999954
 21
2128.999954
  0
ARC
  8
APS_GEOMETRY
 10
-457.800725
 20
2132.999954
 40
4.0
 50
180.0
 51
270.0
  0
LINE
  8
APS_GEOMETRY
 10
-461.800725
 11
-461.800725
 20
2132.999954
 21
2193.999954
  0
ARC
  8
APS_GEOMETRY
 10
-457.800725
 20
2193.999954
 40
4.0
 50
90.0
 51
180.0
  0
LINE
  8
APS_GEOMETRY
 10
-457.800725
 11
-451.800725
 20
2197.999954
 21
2197.999954
  0
LINE
  8
APS_GEOMETRY
 10
-451.800725
 11
-451.800725
 20
2197.999954
 21
2191.999954
  0
LINE
  8
APS_GEOMETRY
 10
-451.800725
 11
-454.800725
 20
2191.999954
 21
2191.999954
  0
LINE
  8
APS_GEOMETRY
 10
-380.796448
 11
-451.800725
 20
2139.999992
 21
2139.999992
  0
LINE
  8
APS_GEOMETRY
 10
-451.800725
 11
-451.800725
 20
2139.999992
 21
2133.299954
  0
LINE
  8
APS_GEOMETRY
 10
-451.800725
 11
-437.800725
 20
2133.299954
 21
2133.299954
  0
LINE
  8
APS_GEOMETRY
 10
-437.800725
 11
-437.800725
 20
2133.299954
 21
2128.999954
  0
LINE
  8
APS_GEOMETRY
 10
-437.800725
 11
-451.800689
 20
2128.999954
 21
2128.999954
  0
LINE
  8
APS_GEOMETRY
 10
-451.800689
 11
-451.800689
 20
2128.999954
 21
2106.0
  0
ARC
  8
APS_GEOMETRY
 10
-441.800689
 20
2106.0
 40
10.0
 50
180.0
 51
270.0
  0
LINE
  8
APS_GEOMETRY
 10
-441.800689
 11
-368.000644
 20
2096.0
 21
2096.0
  0
ARC
  8
APS_GEOMETRY
 10
-368.000644
 20
2097.0
 40
1.0
 50
270.0
 51
360.0
  0
LINE
  8
APS_GEOMETRY
 10
-367.000644
 11
-367.000644
 20
2097.0
 21
2114.200038
  0
LINE
  8
APS_GEOMETRY
 10
-367.000644
 11
-363.500644
 20
2114.200038
 21
2114.200038
  0
LINE
  8
APS_GEOMETRY
 10
-363.500644
 11
-363.500644
 20
2114.200038
 21
2106.500037
  0
LINE
  8
APS_GEOMETRY
 10
-363.500644
 11
-336.800643
 20
2106.500037
 21
2106.5
  0
ARC
  8
APS_GEOMETRY
 10
-336.800643
 20
2109.5
 40
3.0
 50
270.0
 51
360.0
  0
LINE
  8
APS_GEOMETRY
 10
-333.800643
 11
-333.800643
 20
2109.5
 21
2131.499992
  0
LINE
  8
APS_GEOMETRY
 10
-333.800643
 11
-347.800679
 20
2131.499992
 21
2131.499992
  0
LINE
  8
APS_GEOMETRY
 10
-347.800679
 11
-347.800679
 20
2131.499992
 21
2135.799992
  0
LINE
  8
APS_GEOMETRY
 10
-347.800679
 11
-333.800679
 20
2135.799992
 21
2135.799992
  0
LINE
  8
APS_GEOMETRY
 10
-333.800679
 11
-333.800679
 20
2135.799992
 21
2139.999992
  0
LINE
  8
APS_GEOMETRY
 10
-333.800679
 11
-451.800725
 20
2139.999992
 21
2139.999992
  0
LINE
  8
APS_GEOMETRY
 10
11.0
 11
-58.0
 20
2129.0
 21
2198.0
  0
LINE
  8
APS_GEOMETRY
 10
869.0
 11
938.0
 20
2129.0
 21
2198.0
  0
LINE
  8
QUOTATURA
 10
-308.800538
 11
-240.156515
 20
4.5
 21
4.5
  0
LINE
  8
QUOTATURA
 10
-308.800538
 11
-240.156515
 20
2113.5
 21
2113.5
  0
LINE
  8
QUOTATURA
 10
-250.156515
 11
-250.156515
 20
4.5
 21
977.64963
  0
LINE
  8
QUOTATURA
 10
-250.156515
 11
-250.156515
 20
1140.35037
 21
2113.5
  0
LINE
  8
QUOTATURA
 10
-246.822515
 11
-250.156515
 20
24.5
 21
4.5
  0
LINE
  8
QUOTATURA
 10
-250.156515
 11
-253.490515
 20
4.5
 21
24.5
  0
LINE
  8
QUOTATURA
 10
-253.490515
 11
-246.822515
 20
24.5
 21
24.5
  0
LINE
  8
QUOTATURA
 10
-253.490515
 11
-250.156515
 20
2093.5
 21
2113.5
  0
LINE
  8
QUOTATURA
 10
-250.156515
 11
-246.822515
 20
2113.5
 21
2093.5
  0
LINE
  8
QUOTATURA
 10
-246.822515
 11
-253.490515
 20
2093.5
 21
2093.5
  0
LINE
  8
QUOTATURA
 10
-461.800689
 11
-503.416682
 20
0.0
 21
0.0
  0
LINE
  8
QUOTATURA
 10
-461.800689
 11
-503.416682
 20
2096.0
 21
2096.0
  0
LINE
  8
QUOTATURA
 10
-493.416682
 11
-493.416682
 20
0.0
 21
900.812407
  0
LINE
  8
QUOTATURA
 10
-493.416682
 11
-493.416682
 20
1195.187593
 21
2096.0
  0
LINE
  8
QUOTATURA
 10
-490.082682
 11
-493.416682
 20
20.0
 21
0.0
  0
LINE
  8
QUOTATURA
 10
-493.416682
 11
-496.750682
 20
0.0
 21
20.0
  0
LINE
  8
QUOTATURA
 10
-496.750682
 11
-490.082682
 20
20.0
 21
20.0
  0
LINE
  8
QUOTATURA
 10
-496.750682
 11
-493.416682
 20
2076.0
 21
2096.0
  0
LINE
  8
QUOTATURA
 10
-493.416682
 11
-490.082682
 20
2096.0
 21
2076.0
  0
LINE
  8
QUOTATURA
 10
-490.082682
 11
-496.750682
 20
2076.0
 21
2076.0
  0
LINE
  8
QUOTATURA
 10
-461.800725
 11
-570.136329
 20
2139.999992
 21
2139.999992
  0
LINE
  8
QUOTATURA
 10
-461.800689
 11
-570.136329
 20
0.0
 21
0.0
  0
LINE
  8
QUOTATURA
 10
-560.136329
 11
-560.136329
 20
2139.999992
 21
1536.795344
  0
LINE
  8
QUOTATURA
 10
-560.136329
 11
-560.136329
 20
1242.290075
 21
0.0
  0
LINE
  8
QUOTATURA
 10
-563.470329
 11
-560.136329
 20
2119.999992
 21
2139.999992
  0
LINE
  8
QUOTATURA
 10
-560.136329
 11
-556.802329
 20
2139.999992
 21
2119.999992
  0
LINE
  8
QUOTATURA
 10
-556.802329
 11
-563.470329
 20
2119.999992
 21
2119.999992
  0
LINE
  8
QUOTATURA
 10
-556.802329
 11
-560.136329
 20
20.0
 21
0.0
  0
LINE
  8
QUOTATURA
 10
-560.136329
 11
-563.470329
 20
0.0
 21
20.0
  0
LINE
  8
QUOTATURA
 10
-563.470329
 11
-556.802329
 20
20.0
 21
20.0
  0
LINE
  8
QUOTATURA
 10
49.499996
 11
137.488973
 20
-196.499961
 21
-196.499961
  0
LINE
  8
QUOTATURA
 10
39.499996
 11
137.488973
 20
-150.999961
 21
-150.999961
  0
LINE
  8
QUOTATURA
 10
127.488973
 11
127.488973
 20
-150.999961
 21
-129.107229
  0
LINE
  8
QUOTATURA
 10
127.488973
 11
154.136628
 20
-129.107229
 21
-129.107229
  0
LINE
  8
QUOTATURA
 10
130.822973
 11
127.488973
 20
-130.999961
 21
-150.999961
  0
LINE
  8
QUOTATURA
 10
127.488973
 11
124.154973
 20
-150.999961
 21
-130.999961
  0
LINE
  8
QUOTATURA
 10
124.154973
 11
130.822973
 20
-130.999961
 21
-130.999961
  0
LINE
  8
QUOTATURA
 10
127.488973
 11
127.488973
 20
-196.499961
 21
-236.499961
  0
LINE
  8
QUOTATURA
 10
124.154973
 11
127.488973
 20
-216.499961
 21
-196.499961
  0
LINE
  8
QUOTATURA
 10
127.488973
 11
130.822973
 20
-196.499961
 21
-216.499961
  0
LINE
  8
QUOTATURA
 10
130.822973
 11
124.154973
 20
-216.499961
 21
-216.499961
  0
TEXT
  8
TEXT
 10
-654.781545
 20
-492.773308
 30
0.0
 40
20.0
 50
0.0
  1
Ufficio tecnico:
  0
TEXT
  8
TEXT
 10
-161.433063
 20
-617.115028
 30
0.0
 40
25.0
 50
0.0
  1
tel. 0577-68.54.26 - fax 0577-68.64.29
  0
TEXT
  8
TEXT
 10
-161.433063
 20
-654.615028
 30
0.0
 40
25.0
 50
0.0
  1
e-mail: tecnico@toscocornici.it - web: www.tosococornici.it
  0
TEXT
  8
TEXT
 10
449.656373
 20
-646.307272
 30
0.0
 40
40.0
 50
0.0
  1
B.Ste
  0
TEXT
  8
TEXT
 10
598.075953
 20
-646.307272
 30
0.0
 40
40.0
 50
0.0
  1
f
  0
TEXT
  8
TEXT
 10
628.761268
 20
-646.307272
 30
0.0
 40
40.0
 50
0.0
  1
ano
  0
TEXT
  8
TEXT
 10
345.436773
 20
-489.810799
 30
0.0
 40
20.0
 50
0.0
  1
documento:
  0
TEXT
  8
TEXT
 10
630.432191
 20
-522.721887
 30
0.0
 40
20.0
 50
0.0
  1
TELAIO STD
  0
TEXT
  8
TEXT
 10
630.432191
 20
-552.721887
 30
0.0
 40
20.0
 50
0.0
  1
+ PORTA LISCIA
  0
TEXT
  8
TEXT
 10
846.638241
 20
-489.72507
 30
0.0
 40
20.0
 50
0.0
  1
data:
  0
TEXT
  8
TEXT
 10
1095.737179
 20
-541.216771
 30
0.0
 40
30.0
 50
0.0
  1
15/02/13
  0
TEXT
  8
TEXT
 10
1104.490773
 20
-641.925822
 30
0.0
 40
30.0
 50
0.0
  1
1 : 10
  0
TEXT
  8
TEXT
 10
343.623478
 20
-588.035236
 30
0.0
 40
20.0
 50
0.0
  1
responsabile tecnico:
  0
TEXT
  8
TEXT
 10
845.219003
 20
-588.325338
 30
0.0
 40
20.0
 50
0.0
  1
scala:
  0
TEXT
  8
TEXT
 10
956.401345
 20
785.76055
 30
0.0
 40
20.0
 50
0.0
  1
SEZ. B
  0
TEXT
  8
TEXT
 10
376.143222
 20
-60.274312
 30
0.0
 40
20.0
 50
0.0
  1
SEZ. A
  0
TEXT
  8
TEXT
 10
386.538867
 20
-295.43986
 30
0.0
 40
20.0
 50
0.0
  1
SEZ. B
  0
TEXT
  8
QUOTATURA
 10
282.545772
 20
-352.323315
 30
0.0
 40
20.0
 50
0.0
  1
LUCE PASSAGGIO=792
  0
TEXT
  8
QUOTATURA
 10
313.20444
 20
-400.848114
 30
0.0
 40
20.0
 50
0.0
  1
EST. TELAIO=880
  0
TEXT
  8
QUOTATURA
 10
359.765326
 20
-114.900048
 30
0.0
 40
20.0
 50
0.0
  1
ANTA= 827
  0
TEXT
  8
TEXT
 10
-193.224253
 20
744.371292
 30
0.0
 40
20.0
 50
0.0
  1
SEZ. A
  0
TEXT
  8
QUOTATURA
 10
-240.156515
 20
982.64963
 30
0.0
 40
20.0
 50
90.0
  1
ANTA=2109
  0
TEXT
  8
QUOTATURA
 10
-483.416682
 20
905.812407
 30
0.0
 40
20.0
 50
90.0
  1
LUCE NETTA= 2096
  0
TEXT
  8
QUOTATURA
 10
-550.136329
 20
1247.290075
 30
0.0
 40
20.0
 50
90.0
  1
EST. TELAIO= 2140
  0
TEXT
  8
QUOTATURA
 10
158.53844
 20
-139.107229
 30
0.0
 40
20.0
 50
0.0
  1
45.5
  0
ENDSEC
  0
EOF
