  0
SECTION
  2
ENTITIES
  0
LINE
  8
COSTRUZIONI
 10
-661.313
 11
1338.687
 20
-667.378
 21
-667.378
  0
LINE
  8
COSTRUZIONI
 10
1338.687
 11
1338.687
 20
-667.378
 21
-467.378
  0
LINE
  8
COSTRUZIONI
 10
1338.687
 11
-661.313
 20
-467.378
 21
-467.378
  0
LINE
  8
COSTRUZIONI
 10
-661.313
 11
-661.313
 20
-467.378
 21
-667.378
  0
LINE
  8
COSTRUZIONI
 10
338.687
 11
338.687
 20
-667.378
 21
-467.378
  0
LINE
  8
COSTRUZIONI
 10
338.687
 11
1338.687
 20
-567.378
 21
-567.378
  0
LINE
  8
COSTRUZIONI
 10
838.687
 11
838.687
 20
-667.378
 21
-467.378
  0
LINE
  8
APS_GEOMETRY
 10
-598.628
 11
-581.393
 20
-521.364
 21
-521.364
  0
ARC
  8
APS_GEOMETRY
 10
-582.264
 20
-496.668
 40
24.711
 50
272.021
 51
278.44
  0
ARC
  8
APS_GEOMETRY
 10
-581.292
 20
-503.224
 40
18.083
 50
278.44
 51
285.945
  0
ARC
  8
APS_GEOMETRY
 10
-573.975
 20
-529.421
 40
9.118
 50
98.584
 51
104.931
  0
ARC
  8
APS_GEOMETRY
 10
-574.591
 20
-525.34
 40
4.991
 50
90.0
 51
98.584
  0
ARC
  8
APS_GEOMETRY
 10
-574.591
 20
-524.101
 40
3.752
 50
52.871
 51
90.0
  0
ARC
  8
APS_GEOMETRY
 10
-579.679
 20
-530.823
 40
12.182
 50
32.518
 51
52.871
  0
ARC
  8
APS_GEOMETRY
 10
-583.71
 20
-533.393
 40
16.963
 50
17.209
 51
32.518
  0
ARC
  8
APS_GEOMETRY
 10
-580.351
 20
-532.352
 40
13.445
 50
360.0
 51
17.209
  0
ARC
  8
APS_GEOMETRY
 10
-573.623
 20
-532.352
 40
6.717
 50
337.348
 51
360.0
  0
ARC
  8
APS_GEOMETRY
 10
-570.923
 20
-533.479
 40
3.792
 50
307.042
 51
337.348
  0
ARC
  8
APS_GEOMETRY
 10
-571.392
 20
-532.834
 40
4.589
 50
287.186
 51
306.87
  0
ARC
  8
APS_GEOMETRY
 10
-571.811
 20
-531.48
 40
6.006
 50
270.0
 51
287.186
  0
ARC
  8
APS_GEOMETRY
 10
-571.811
 20
-532.093
 40
5.393
 50
252.221
 51
270.0
  0
ARC
  8
APS_GEOMETRY
 10
-572.062
 20
-532.876
 40
4.571
 50
232.896
 51
252.221
  0
ARC
  8
APS_GEOMETRY
 10
-571.091
 20
-531.593
 40
6.18
 50
218.3
 51
232.896
  0
ARC
  8
APS_GEOMETRY
 10
-563.511
 20
-525.606
 40
15.839
 50
209.197
 51
218.3
  0
ARC
  8
APS_GEOMETRY
 10
-602.065
 20
-546.494
 40
28.012
 50
28.025
 51
32.699
  0
ARC
  8
APS_GEOMETRY
 10
-581.909
 20
-533.555
 40
4.06
 50
32.699
 51
45.0
  0
ARC
  8
APS_GEOMETRY
 10
-580.534
 20
-532.18
 40
2.116
 50
45.0
 51
67.557
  0
ARC
  8
APS_GEOMETRY
 10
-580.543
 20
-532.2
 40
2.137
 50
67.557
 51
90.0
  0
ARC
  8
APS_GEOMETRY
 10
-580.543
 20
-532.031
 40
1.969
 50
90.0
 51
120.801
  0
ARC
  8
APS_GEOMETRY
 10
-580.609
 20
-531.92
 40
1.839
 50
120.801
 51
152.7
  0
ARC
  8
APS_GEOMETRY
 10
-579.15
 20
-532.673
 40
3.481
 50
152.7
 51
171.085
  0
ARC
  8
APS_GEOMETRY
 10
-568.061
 20
-534.412
 40
14.705
 50
171.085
 51
180.0
  0
LINE
  8
APS_GEOMETRY
 10
-582.766
 11
-582.766
 20
-534.412
 21
-552.726
  0
ARC
  8
APS_GEOMETRY
 10
-563.339
 20
-552.726
 40
19.427
 50
180.0
 51
188.194
  0
ARC
  8
APS_GEOMETRY
 10
-577.847
 20
-554.815
 40
4.77
 50
188.194
 51
204.775
  0
ARC
  8
APS_GEOMETRY
 10
-579.256
 20
-555.466
 40
3.218
 50
204.775
 51
228.576
  0
ARC
  8
APS_GEOMETRY
 10
-577.934
 20
-553.967
 40
5.216
 50
228.576
 51
247.218
  0
ARC
  8
APS_GEOMETRY
 10
-585.603
 20
-572.039
 40
14.416
 50
59.381
 51
66.93
  0
ARC
  8
APS_GEOMETRY
 10
-579.942
 20
-562.474
 40
3.301
 50
43.568
 51
59.381
  0
ARC
  8
APS_GEOMETRY
 10
-579.036
 20
-561.612
 40
2.051
 50
19.041
 51
43.568
  0
ARC
  8
APS_GEOMETRY
 10
-580.294
 20
-562.047
 40
3.382
 50
360.0
 51
19.041
  0
ARC
  8
APS_GEOMETRY
 10
-579.66
 20
-562.047
 40
2.747
 50
317.66
 51
360.0
  0
ARC
  8
APS_GEOMETRY
 10
-582.182
 20
-559.748
 40
6.16
 50
289.747
 51
317.66
  0
ARC
  8
APS_GEOMETRY
 10
-584.295
 20
-553.864
 40
12.412
 50
281.964
 51
289.747
  0
ARC
  8
APS_GEOMETRY
 10
-587.222
 20
-540.052
 40
26.531
 50
276.643
 51
281.964
  0
ARC
  8
APS_GEOMETRY
 10
-588.453
 20
-529.476
 40
37.178
 50
272.836
 51
276.643
  0
ARC
  8
APS_GEOMETRY
 10
-589.928
 20
-499.7
 40
66.99
 50
270.0
 51
272.836
  0
ARC
  8
APS_GEOMETRY
 10
-589.928
 20
-481.25
 40
85.44
 50
267.283
 51
270.0
  0
ARC
  8
APS_GEOMETRY
 10
-591.722
 20
-519.053
 40
47.595
 50
263.643
 51
267.283
  0
ARC
  8
APS_GEOMETRY
 10
-593.225
 20
-532.537
 40
34.027
 50
258.563
 51
263.643
  0
ARC
  8
APS_GEOMETRY
 10
-596.813
 20
-550.277
 40
15.929
 50
251.136
 51
258.563
  0
ARC
  8
APS_GEOMETRY
 10
-600.018
 20
-559.569
 40
6.099
 50
222.558
 51
251.395
  0
ARC
  8
APS_GEOMETRY
 10
-602.395
 20
-561.752
 40
2.871
 50
180.0
 51
222.558
  0
ARC
  8
APS_GEOMETRY
 10
-602.875
 20
-561.752
 40
2.392
 50
150.642
 51
180.0
  0
ARC
  8
APS_GEOMETRY
 10
-602.683
 20
-561.86
 40
2.612
 50
122.574
 51
150.642
  0
ARC
  8
APS_GEOMETRY
 10
-603.19
 20
-561.278
 40
1.851
 50
108.677
 51
119.055
  0
ARC
  8
APS_GEOMETRY
 10
-580.074
 20
-629.661
 40
74.036
 50
107.038
 51
108.677
  0
ARC
  8
APS_GEOMETRY
 10
-602.629
 20
-555.898
 40
3.099
 50
286.144
 51
308.66
  0
ARC
  8
APS_GEOMETRY
 10
-602.121
 20
-556.532
 40
2.287
 50
308.66
 51
334.933
  0
ARC
  8
APS_GEOMETRY
 10
-604.186
 20
-555.566
 40
4.566
 50
334.933
 51
348.829
  0
ARC
  8
APS_GEOMETRY
 10
-630.012
 20
-550.466
 40
30.891
 50
348.829
 51
354.161
  0
ARC
  8
APS_GEOMETRY
 10
-647.468
 20
-548.667
 40
48.439
 50
354.144
 51
355.66
  0
ARC
  8
APS_GEOMETRY
 10
-724.844
 20
-542.795
 40
126.038
 50
355.66
 51
356.6
  0
ARC
  8
APS_GEOMETRY
 10
-783.993
 20
-539.281
 40
185.291
 50
356.6
 51
357.24
  0
ARC
  8
APS_GEOMETRY
 10
-951.818
 20
-531.19
 40
353.311
 50
357.24
 51
357.703
  0
ARC
  8
APS_GEOMETRY
 10
-935.298
 20
-531.853
 40
336.777
 50
357.703
 51
358.674
  0
ARC
  8
APS_GEOMETRY
 10
-779.466
 20
-535.459
 40
180.903
 50
358.674
 51
0.0
  0
ARC
  8
APS_GEOMETRY
 10
-625.372
 20
-535.459
 40
26.81
 50
0.0
 51
6.242
  0
ARC
  8
APS_GEOMETRY
 10
-604.053
 20
-533.127
 40
5.364
 50
6.242
 51
20.225
  0
ARC
  8
APS_GEOMETRY
 10
-601.098
 20
-532.038
 40
2.215
 50
20.225
 51
50.44
  0
ARC
  8
APS_GEOMETRY
 10
-600.524
 20
-531.344
 40
1.314
 50
50.44
 51
90.0
  0
ARC
  8
APS_GEOMETRY
 10
-600.524
 20
-531.792
 40
1.762
 50
90.0
 51
126.747
  0
ARC
  8
APS_GEOMETRY
 10
-598.034
 20
-535.127
 40
5.924
 50
126.747
 51
146.547
  0
ARC
  8
APS_GEOMETRY
 10
-642.022
 20
-506.214
 40
46.715
 50
324.255
 51
326.701
  0
ARC
  8
APS_GEOMETRY
 10
-623.399
 20
-519.618
 40
23.77
 50
320.826
 51
324.255
  0
ARC
  8
APS_GEOMETRY
 10
-617.313
 20
-524.578
 40
15.918
 50
315.722
 51
320.826
  0
ARC
  8
APS_GEOMETRY
 10
-610.318
 20
-531.398
 40
6.149
 50
307.504
 51
315.722
  0
ARC
  8
APS_GEOMETRY
 10
-610.964
 20
-530.537
 40
7.226
 50
291.306
 51
307.405
  0
ARC
  8
APS_GEOMETRY
 10
-609.845
 20
-533.406
 40
4.146
 50
270.0
 51
291.306
  0
ARC
  8
APS_GEOMETRY
 10
-609.845
 20
-533.673
 40
3.879
 50
245.532
 51
270.0
  0
ARC
  8
APS_GEOMETRY
 10
-609.874
 20
-533.737
 40
3.808
 50
220.833
 51
245.532
  0
ARC
  8
APS_GEOMETRY
 10
-609.481
 20
-533.398
 40
4.328
 50
198.684
 51
220.833
  0
ARC
  8
APS_GEOMETRY
 10
-607.84
 20
-532.843
 40
6.06
 50
180.0
 51
198.684
  0
ARC
  8
APS_GEOMETRY
 10
-603.992
 20
-532.843
 40
9.908
 50
168.408
 51
180.0
  0
ARC
  8
APS_GEOMETRY
 10
-597.64
 20
-534.146
 40
16.393
 50
159.402
 51
168.408
  0
ARC
  8
APS_GEOMETRY
 10
-595.677
 20
-534.883
 40
18.49
 50
151.39
 51
159.402
  0
ARC
  8
APS_GEOMETRY
 10
-596.079
 20
-534.664
 40
18.032
 50
143.276
 51
151.39
  0
ARC
  8
APS_GEOMETRY
 10
-601.128
 20
-530.888
 40
11.726
 50
124.216
 51
143.31
  0
ARC
  8
APS_GEOMETRY
 10
-605.626
 20
-524.274
 40
3.728
 50
90.0
 51
124.216
  0
ARC
  8
APS_GEOMETRY
 10
-605.626
 20
-525.93
 40
5.384
 50
82.725
 51
90.0
  0
ARC
  8
APS_GEOMETRY
 10
-606.047
 20
-529.226
 40
8.707
 50
77.005
 51
82.725
  0
ARC
  8
APS_GEOMETRY
 10
-593.198
 20
-467.279
 40
54.561
 50
258.486
 51
260.378
  0
ARC
  8
APS_GEOMETRY
 10
-598.702
 20
-499.744
 40
21.633
 50
260.378
 51
263.382
  0
ARC
  8
APS_GEOMETRY
 10
-599.173
 20
-503.802
 40
17.548
 50
263.382
 51
267.084
  0
ARC
  8
APS_GEOMETRY
 10
-598.628
 20
-493.091
 40
28.273
 50
267.084
 51
270.0
  0
ARC
  8
APS_GEOMETRY
 10
-538.901
 20
-546.229
 40
25.782
 50
71.91
 51
90.0
  0
ARC
  8
APS_GEOMETRY
 10
-537.902
 20
-543.173
 40
22.566
 50
52.561
 51
71.91
  0
ARC
  8
APS_GEOMETRY
 10
-538.164
 20
-543.249
 40
22.786
 50
38.846
 51
52.156
  0
ARC
  8
APS_GEOMETRY
 10
-541.736
 20
-546.126
 40
27.372
 50
26.707
 51
38.846
  0
ARC
  8
APS_GEOMETRY
 10
-541.029
 20
-545.548
 40
26.482
 50
13.868
 51
26.278
  0
ARC
  8
APS_GEOMETRY
 10
-535.929
 20
-544.289
 40
21.229
 50
360.0
 51
13.868
  0
ARC
  8
APS_GEOMETRY
 10
-535.599
 20
-544.289
 40
20.899
 50
339.712
 51
360.0
  0
ARC
  8
APS_GEOMETRY
 10
-536.775
 20
-543.854
 40
22.153
 50
320.013
 51
339.712
  0
ARC
  8
APS_GEOMETRY
 10
-536.97
 20
-543.746
 40
22.372
 50
303.344
 51
320.123
  0
ARC
  8
APS_GEOMETRY
 10
-539.266
 20
-540.257
 40
26.548
 50
287.949
 51
303.344
  0
ARC
  8
APS_GEOMETRY
 10
-540.02
 20
-537.642
 40
29.269
 50
279.039
 51
287.776
  0
ARC
  8
APS_GEOMETRY
 10
-539.718
 20
-539.541
 40
27.346
 50
270.0
 51
279.039
  0
ARC
  8
APS_GEOMETRY
 10
-539.718
 20
-540.876
 40
26.011
 50
257.728
 51
270.0
  0
ARC
  8
APS_GEOMETRY
 10
-539.677
 20
-540.688
 40
26.203
 50
245.501
 51
257.728
  0
ARC
  8
APS_GEOMETRY
 10
-541.15
 20
-543.911
 40
22.66
 50
228.665
 51
245.511
  0
ARC
  8
APS_GEOMETRY
 10
-541.64
 20
-544.467
 40
21.918
 50
211.535
 51
228.665
  0
ARC
  8
APS_GEOMETRY
 10
-540.998
 20
-543.996
 40
22.712
 50
195.642
 51
211.701
  0
ARC
  8
APS_GEOMETRY
 10
-539.824
 20
-543.667
 40
23.931
 50
180.0
 51
195.642
  0
ARC
  8
APS_GEOMETRY
 10
-539.572
 20
-543.667
 40
24.183
 50
162.181
 51
180.0
  0
ARC
  8
APS_GEOMETRY
 10
-541.779
 20
-542.958
 40
21.865
 50
143.434
 51
162.181
  0
ARC
  8
APS_GEOMETRY
 10
-542.076
 20
-542.72
 40
21.485
 50
126.384
 51
143.471
  0
ARC
  8
APS_GEOMETRY
 10
-540.042
 20
-545.481
 40
24.914
 50
110.525
 51
126.384
  0
ARC
  8
APS_GEOMETRY
 10
-540.142
 20
-544.731
 40
24.177
 50
99.77
 51
110.925
  0
ARC
  8
APS_GEOMETRY
 10
-538.901
 20
-551.943
 40
31.496
 50
90.0
 51
99.77
  0
ARC
  8
APS_GEOMETRY
 10
-542.007
 20
-534.641
 40
4.807
 50
90.0
 51
119.604
  0
ARC
  8
APS_GEOMETRY
 10
-541.586
 20
-535.382
 40
5.659
 50
119.604
 51
146.842
  0
ARC
  8
APS_GEOMETRY
 10
-540.74
 20
-536.076
 40
6.748
 50
145.84
 51
164.055
  0
ARC
  8
APS_GEOMETRY
 10
-538.779
 20
-536.636
 40
8.788
 50
164.055
 51
180.0
  0
ARC
  8
APS_GEOMETRY
 10
-526.514
 20
-536.636
 40
21.053
 50
180.0
 51
189.977
  0
ARC
  8
APS_GEOMETRY
 10
-507.863
 20
-533.355
 40
39.991
 50
189.977
 51
197.211
  0
ARC
  8
APS_GEOMETRY
 10
-503.783
 20
-532.091
 40
44.261
 50
197.211
 51
203.76
  0
ARC
  8
APS_GEOMETRY
 10
-513.946
 20
-536.565
 40
33.157
 50
203.76
 51
211.329
  0
ARC
  8
APS_GEOMETRY
 10
-534.814
 20
-549.089
 40
8.821
 50
212.32
 51
224.441
  0
ARC
  8
APS_GEOMETRY
 10
-535.67
 20
-549.928
 40
7.623
 50
224.441
 51
237.484
  0
ARC
  8
APS_GEOMETRY
 10
-536.222
 20
-550.795
 40
6.595
 50
237.484
 51
252.416
  0
ARC
  8
APS_GEOMETRY
 10
-536.775
 20
-552.538
 40
4.766
 50
252.416
 51
270.0
  0
ARC
  8
APS_GEOMETRY
 10
-536.775
 20
-551.973
 40
5.331
 50
270.0
 51
294.953
  0
ARC
  8
APS_GEOMETRY
 10
-536.625
 20
-552.294
 40
4.977
 50
294.953
 51
320.793
  0
ARC
  8
APS_GEOMETRY
 10
-537.426
 20
-551.641
 40
6.011
 50
320.793
 51
342.777
  0
ARC
  8
APS_GEOMETRY
 10
-540.994
 20
-550.535
 40
9.746
 50
342.777
 51
0.0
  0
ARC
  8
APS_GEOMETRY
 10
-557.755
 20
-550.535
 40
26.507
 50
0.0
 51
8.499
  0
ARC
  8
APS_GEOMETRY
 10
-569.422
 20
-552.278
 40
38.304
 50
8.499
 51
15.566
  0
ARC
  8
APS_GEOMETRY
 10
-568.02
 20
-551.888
 40
36.848
 50
15.566
 51
22.909
  0
ARC
  8
APS_GEOMETRY
 10
-555.956
 20
-546.79
 40
23.751
 50
22.909
 51
32.057
  0
ARC
  8
APS_GEOMETRY
 10
-546.48
 20
-540.82
 40
12.552
 50
31.921
 51
42.51
  0
ARC
  8
APS_GEOMETRY
 10
-543.878
 20
-538.435
 40
9.022
 50
42.51
 51
55.008
  0
ARC
  8
APS_GEOMETRY
 10
-542.999
 20
-537.179
 40
7.489
 50
55.008
 51
69.88
  0
ARC
  8
APS_GEOMETRY
 10
-542.211
 20
-535.028
 40
5.198
 50
69.88
 51
87.754
  0
ARC
  8
APS_GEOMETRY
 10
-490.48
 20
-536.431
 40
15.983
 50
83.923
 51
90.0
  0
ARC
  8
APS_GEOMETRY
 10
-491.765
 20
-548.506
 40
28.127
 50
79.342
 51
83.923
  0
ARC
  8
APS_GEOMETRY
 10
-493.316
 20
-556.747
 40
36.512
 50
75.808
 51
79.342
  0
ARC
  8
APS_GEOMETRY
 10
-498.727
 20
-578.142
 40
58.58
 50
73.018
 51
75.808
  0
ARC
  8
APS_GEOMETRY
 10
-479.676
 20
-515.649
 40
6.752
 50
253.288
 51
259.046
  0
ARC
  8
APS_GEOMETRY
 10
-480.603
 20
-520.442
 40
1.87
 50
259.046
 51
270.0
  0
ARC
  8
APS_GEOMETRY
 10
-480.603
 20
-521.202
 40
1.11
 50
270.0
 51
286.699
  0
ARC
  8
APS_GEOMETRY
 10
-489.477
 20
-491.625
 40
31.989
 50
286.699
 51
289.799
  0
ARC
  8
APS_GEOMETRY
 10
-477.587
 20
-524.535
 40
3.002
 50
100.008
 51
110.556
  0
ARC
  8
APS_GEOMETRY
 10
-477.529
 20
-524.861
 40
3.334
 50
90.0
 51
100.008
  0
ARC
  8
APS_GEOMETRY
 10
-477.529
 20
-524.706
 40
3.179
 50
53.356
 51
90.0
  0
ARC
  8
APS_GEOMETRY
 10
-483.083
 20
-532.172
 40
12.484
 50
35.101
 51
53.356
  0
ARC
  8
APS_GEOMETRY
 10
-485.854
 20
-534.12
 40
15.871
 50
20.245
 51
35.101
  0
ARC
  8
APS_GEOMETRY
 10
-479.021
 20
-531.6
 40
8.588
 50
360.0
 51
20.245
  0
ARC
  8
APS_GEOMETRY
 10
-475.582
 20
-531.6
 40
5.15
 50
340.481
 51
360.0
  0
ARC
  8
APS_GEOMETRY
 10
-474.734
 20
-531.9
 40
4.25
 50
318.972
 51
340.481
  0
ARC
  8
APS_GEOMETRY
 10
-474.356
 20
-532.23
 40
3.748
 50
295.017
 51
318.972
  0
ARC
  8
APS_GEOMETRY
 10
-474.226
 20
-532.508
 40
3.442
 50
270.0
 51
295.017
  0
ARC
  8
APS_GEOMETRY
 10
-474.226
 20
-530.664
 40
5.285
 50
256.171
 51
270.0
  0
ARC
  8
APS_GEOMETRY
 10
-474.802
 20
-533.005
 40
2.874
 50
237.381
 51
256.171
  0
ARC
  8
APS_GEOMETRY
 10
-473.782
 20
-531.41
 40
4.768
 50
231.559
 51
237.381
  0
ARC
  8
APS_GEOMETRY
 10
-458.939
 20
-512.711
 40
28.642
 50
229.185
 51
231.559
  0
ARC
  8
APS_GEOMETRY
 10
-443.032
 20
-494.292
 40
52.979
 50
227.9
 51
229.185
  0
ARC
  8
APS_GEOMETRY
 10
-387.979
 20
-433.364
 40
135.095
 50
227.095
 51
227.9
  0
ARC
  8
APS_GEOMETRY
 10
-491.342
 20
-544.525
 40
16.696
 50
46.975
 51
64.612
  0
ARC
  8
APS_GEOMETRY
 10
-487.667
 20
-536.783
 40
8.127
 50
64.612
 51
90.0
  0
ARC
  8
APS_GEOMETRY
 10
-487.667
 20
-534.512
 40
5.856
 50
90.0
 51
106.966
  0
ARC
  8
APS_GEOMETRY
 10
-488.346
 20
-532.289
 40
3.531
 50
106.966
 51
128.868
  0
ARC
  8
APS_GEOMETRY
 10
-488.738
 20
-531.801
 40
2.905
 50
128.868
 51
154.741
  0
ARC
  8
APS_GEOMETRY
 10
-488.611
 20
-531.861
 40
3.046
 50
154.741
 51
180.0
  0
ARC
  8
APS_GEOMETRY
 10
-488.796
 20
-531.861
 40
2.861
 50
180.0
 51
206.64
  0
ARC
  8
APS_GEOMETRY
 10
-487.876
 20
-531.4
 40
3.891
 50
206.64
 51
229.43
  0
ARC
  8
APS_GEOMETRY
 10
-486.4
 20
-529.676
 40
6.159
 50
229.43
 51
244.493
  0
ARC
  8
APS_GEOMETRY
 10
-482.355
 20
-521.197
 40
15.554
 50
244.493
 51
253.956
  0
ARC
  8
APS_GEOMETRY
 10
-554.426
 20
-766.126
 40
239.758
 50
72.737
 51
73.58
  0
ARC
  8
APS_GEOMETRY
 10
-513.122
 20
-633.21
 40
100.573
 50
71.435
 51
72.737
  0
ARC
  8
APS_GEOMETRY
 10
-499.441
 20
-592.476
 40
57.603
 50
69.164
 51
71.435
  0
ARC
  8
APS_GEOMETRY
 10
-483.296
 20
-550.054
 40
12.212
 50
64.231
 51
69.164
  0
ARC
  8
APS_GEOMETRY
 10
-485.153
 20
-553.793
 40
16.387
 50
34.939
 51
64.068
  0
ARC
  8
APS_GEOMETRY
 10
-481.145
 20
-550.993
 40
11.498
 50
360.0
 51
34.939
  0
ARC
  8
APS_GEOMETRY
 10
-483.609
 20
-550.993
 40
13.962
 50
333.435
 51
360.0
  0
ARC
  8
APS_GEOMETRY
 10
-484.522
 20
-550.537
 40
14.982
 50
307.807
 51
333.435
  0
ARC
  8
APS_GEOMETRY
 10
-486.897
 20
-547.464
 40
18.866
 50
296.732
 51
307.786
  0
ARC
  8
APS_GEOMETRY
 10
-488.303
 20
-544.674
 40
21.99
 50
286.496
 51
296.732
  0
ARC
  8
APS_GEOMETRY
 10
-489.228
 20
-541.548
 40
25.25
 50
277.544
 51
286.496
  0
ARC
  8
APS_GEOMETRY
 10
-490.578
 20
-531.357
 40
35.53
 50
270.0
 51
277.544
  0
ARC
  8
APS_GEOMETRY
 10
-490.578
 20
-529.816
 40
37.071
 50
263.555
 51
270.0
  0
ARC
  8
APS_GEOMETRY
 10
-489.378
 20
-519.192
 40
47.762
 50
257.878
 51
263.555
  0
ARC
  8
APS_GEOMETRY
 10
-490.015
 20
-522.158
 40
44.729
 50
254.839
 51
257.878
  0
ARC
  8
APS_GEOMETRY
 10
-495.181
 20
-541.225
 40
24.974
 50
250.772
 51
254.839
  0
ARC
  8
APS_GEOMETRY
 10
-497.505
 20
-547.888
 40
17.918
 50
245.121
 51
250.772
  0
ARC
  8
APS_GEOMETRY
 10
-501.439
 20
-556.37
 40
8.568
 50
236.944
 51
245.121
  0
ARC
  8
APS_GEOMETRY
 10
-503.758
 20
-560.021
 40
4.243
 50
211.802
 51
236.31
  0
ARC
  8
APS_GEOMETRY
 10
-492.734
 20
-553.185
 40
17.215
 50
199.704
 51
211.802
  0
ARC
  8
APS_GEOMETRY
 10
-487.469
 20
-551.299
 40
22.807
 50
190.413
 51
199.704
  0
ARC
  8
APS_GEOMETRY
 10
-492.032
 20
-552.138
 40
18.168
 50
180.0
 51
190.413
  0
ARC
  8
APS_GEOMETRY
 10
-504.331
 20
-552.138
 40
5.869
 50
164.876
 51
180.0
  0
ARC
  8
APS_GEOMETRY
 10
-507.638
 20
-551.244
 40
2.443
 50
141.34
 51
164.876
  0
ARC
  8
APS_GEOMETRY
 10
-507.318
 20
-551.458
 40
2.827
 50
116.928
 51
142.001
  0
ARC
  8
APS_GEOMETRY
 10
-507.486
 20
-551.128
 40
2.457
 50
90.0
 51
116.928
  0
ARC
  8
APS_GEOMETRY
 10
-507.486
 20
-551.135
 40
2.464
 50
62.21
 51
90.0
  0
ARC
  8
APS_GEOMETRY
 10
-508.469
 20
-553.001
 40
4.573
 50
41.906
 51
62.21
  0
ARC
  8
APS_GEOMETRY
 10
-508.302
 20
-553.036
 40
4.475
 50
37.313
 51
43.668
  0
ARC
  8
APS_GEOMETRY
 10
-533.37
 20
-572.142
 40
35.993
 50
35.074
 51
37.313
  0
ARC
  8
APS_GEOMETRY
 10
-561.838
 20
-592.13
 40
70.777
 50
33.934
 51
35.074
  0
ARC
  8
APS_GEOMETRY
 10
-663.335
 20
-660.42
 40
193.11
 50
33.243
 51
33.934
  0
ARC
  8
APS_GEOMETRY
 10
-496.216
 20
-550.849
 40
6.727
 50
213.453
 51
231.637
  0
ARC
  8
APS_GEOMETRY
 10
-493.037
 20
-546.834
 40
11.848
 50
231.637
 51
245.313
  0
ARC
  8
APS_GEOMETRY
 10
-492.337
 20
-545.311
 40
13.524
 50
245.313
 51
257.398
  0
ARC
  8
APS_GEOMETRY
 10
-492.573
 20
-546.366
 40
12.443
 50
257.398
 51
270.0
  0
ARC
  8
APS_GEOMETRY
 10
-492.573
 20
-548.303
 40
10.506
 50
270.0
 51
282.907
  0
ARC
  8
APS_GEOMETRY
 10
-491.442
 20
-553.236
 40
5.445
 50
282.907
 51
300.872
  0
ARC
  8
APS_GEOMETRY
 10
-490.462
 20
-554.876
 40
3.535
 50
300.872
 51
326.876
  0
ARC
  8
APS_GEOMETRY
 10
-489.346
 20
-555.604
 40
2.202
 50
326.876
 51
0.0
  0
ARC
  8
APS_GEOMETRY
 10
-489.675
 20
-555.604
 40
2.531
 50
0.0
 51
27.553
  0
ARC
  8
APS_GEOMETRY
 10
-490.476
 20
-556.022
 40
3.434
 50
27.553
 51
51.147
  0
ARC
  8
APS_GEOMETRY
 10
-492.13
 20
-558.076
 40
6.071
 50
51.147
 51
65.225
  0
ARC
  8
APS_GEOMETRY
 10
-498.233
 20
-571.3
 40
20.636
 50
65.225
 51
72.848
  0
ARC
  8
APS_GEOMETRY
 10
-462.592
 20
-457.66
 40
98.462
 50
251.106
 51
252.532
  0
ARC
  8
APS_GEOMETRY
 10
-475.208
 20
-494.522
 40
59.501
 50
249.271
 51
251.106
  0
ARC
  8
APS_GEOMETRY
 10
-480.453
 20
-508.381
 40
44.683
 50
246.83
 51
249.271
  0
ARC
  8
APS_GEOMETRY
 10
-488.937
 20
-528.204
 40
23.121
 50
243.435
 51
246.83
  0
ARC
  8
APS_GEOMETRY
 10
-489.903
 20
-530.135
 40
20.961
 50
235.981
 51
243.435
  0
ARC
  8
APS_GEOMETRY
 10
-489.161
 20
-529.036
 40
22.287
 50
228.752
 51
235.981
  0
ARC
  8
APS_GEOMETRY
 10
-492.635
 20
-533.13
 40
16.918
 50
206.421
 51
228.457
  0
ARC
  8
APS_GEOMETRY
 10
-497.19
 20
-535.393
 40
11.833
 50
180.0
 51
206.421
  0
ARC
  8
APS_GEOMETRY
 10
-496.975
 20
-535.393
 40
12.047
 50
166.555
 51
180.0
  0
ARC
  8
APS_GEOMETRY
 10
-495.58
 20
-535.727
 40
13.482
 50
153.848
 51
166.555
  0
ARC
  8
APS_GEOMETRY
 10
-495.464
 20
-535.784
 40
13.611
 50
141.244
 51
153.848
  0
ARC
  8
APS_GEOMETRY
 10
-494.604
 20
-536.475
 40
14.714
 50
129.123
 51
141.244
  0
ARC
  8
APS_GEOMETRY
 10
-491.851
 20
-539.402
 40
18.725
 50
108.978
 51
130.006
  0
ARC
  8
APS_GEOMETRY
 10
-490.48
 20
-543.388
 40
22.94
 50
90.0
 51
108.978
  0
ARC
  8
APS_GEOMETRY
 10
-440.489
 20
-541.712
 40
21.264
 50
77.257
 51
90.0
  0
ARC
  8
APS_GEOMETRY
 10
-440.705
 20
-542.667
 40
22.243
 50
64.799
 51
77.257
  0
ARC
  8
APS_GEOMETRY
 10
-422.388
 20
-503.669
 40
20.843
 50
244.885
 51
251.175
  0
ARC
  8
APS_GEOMETRY
 10
-428.356
 20
-521.176
 40
2.346
 50
251.175
 51
270.0
  0
ARC
  8
APS_GEOMETRY
 10
-428.356
 20
-519.716
 40
3.806
 50
270.0
 51
278.82
  0
ARC
  8
APS_GEOMETRY
 10
-430.815
 20
-503.868
 40
19.844
 50
278.82
 51
282.68
  0
ARC
  8
APS_GEOMETRY
 10
-425.67
 20
-526.649
 40
3.511
 50
95.906
 51
102.995
  0
ARC
  8
APS_GEOMETRY
 10
-425.511
 20
-528.185
 40
5.055
 50
90.0
 51
95.906
  0
ARC
  8
APS_GEOMETRY
 10
-425.511
 20
-526.485
 40
3.356
 50
62.447
 51
90.0
  0
ARC
  8
APS_GEOMETRY
 10
-426.108
 20
-527.629
 40
4.645
 50
39.094
 51
62.447
  0
ARC
  8
APS_GEOMETRY
 10
-432.342
 20
-532.842
 40
12.772
 50
18.435
 51
39.611
  0
ARC
  8
APS_GEOMETRY
 10
-436.168
 20
-534.118
 40
16.806
 50
360.0
 51
18.435
  0
ARC
  8
APS_GEOMETRY
 10
-427.696
 20
-534.118
 40
8.333
 50
334.877
 51
360.0
  0
ARC
  8
APS_GEOMETRY
 10
-425.19
 20
-535.293
 40
5.565
 50
304.007
 51
334.877
  0
ARC
  8
APS_GEOMETRY
 10
-425.231
 20
-535.176
 40
5.686
 50
286.39
 51
303.69
  0
ARC
  8
APS_GEOMETRY
 10
-425.413
 20
-534.557
 40
6.33
 50
270.0
 51
286.39
  0
ARC
  8
APS_GEOMETRY
 10
-425.413
 20
-534.631
 40
6.257
 50
255.155
 51
270.0
  0
ARC
  8
APS_GEOMETRY
 10
-426.098
 20
-537.217
 40
3.581
 50
235.491
 51
255.155
  0
ARC
  8
APS_GEOMETRY
 10
-425.754
 20
-536.716
 40
4.189
 50
218.48
 51
235.491
  0
ARC
  8
APS_GEOMETRY
 10
-420.133
 20
-532.249
 40
11.369
 50
208.179
 51
218.48
  0
ARC
  8
APS_GEOMETRY
 10
-477.758
 20
-563.528
 40
54.198
 50
28.56
 51
31.664
  0
ARC
  8
APS_GEOMETRY
 10
-442.546
 20
-541.811
 40
12.827
 50
31.664
 51
38.047
  0
ARC
  8
APS_GEOMETRY
 10
-439.985
 20
-539.807
 40
9.576
 50
38.047
 51
46.56
  0
ARC
  8
APS_GEOMETRY
 10
-441.316
 20
-541.213
 40
11.512
 50
46.56
 51
54.324
  0
ARC
  8
APS_GEOMETRY
 10
-442.084
 20
-542.534
 40
13.034
 50
54.968
 51
71.48
  0
ARC
  8
APS_GEOMETRY
 10
-441.241
 20
-540.017
 40
10.38
 50
71.48
 51
90.0
  0
ARC
  8
APS_GEOMETRY
 10
-441.241
 20
-536.888
 40
7.251
 50
90.0
 51
114.63
  0
ARC
  8
APS_GEOMETRY
 10
-441.606
 20
-536.094
 40
6.377
 50
114.63
 51
140.921
  0
ARC
  8
APS_GEOMETRY
 10
-440.53
 20
-536.968
 40
7.763
 50
140.921
 51
163.13
  0
ARC
  8
APS_GEOMETRY
 10
-435.152
 20
-538.598
 40
13.382
 50
163.13
 51
180.0
  0
ARC
  8
APS_GEOMETRY
 10
-428.179
 20
-538.598
 40
20.355
 50
180.0
 51
195.44
  0
ARC
  8
APS_GEOMETRY
 10
-429.237
 20
-538.891
 40
19.258
 50
195.44
 51
211.316
  0
ARC
  8
APS_GEOMETRY
 10
-434.326
 20
-541.88
 40
13.357
 50
211.708
 51
240.457
  0
ARC
  8
APS_GEOMETRY
 10
-434.668
 20
-542.483
 40
12.663
 50
240.457
 51
270.0
  0
ARC
  8
APS_GEOMETRY
 10
-434.668
 20
-539.396
 40
15.751
 50
270.0
 51
279.549
  0
ARC
  8
APS_GEOMETRY
 10
-434.864
 20
-538.232
 40
16.931
 50
279.549
 51
288.759
  0
ARC
  8
APS_GEOMETRY
 10
-434.038
 20
-540.662
 40
14.364
 50
288.759
 51
299.545
  0
ARC
  8
APS_GEOMETRY
 10
-430.729
 20
-546.501
 40
7.652
 50
299.545
 51
314.341
  0
ARC
  8
APS_GEOMETRY
 10
-420.494
 20
-557.132
 40
7.105
 50
120.141
 51
133.452
  0
ARC
  8
APS_GEOMETRY
 10
-423.353
 20
-552.208
 40
1.412
 50
90.0
 51
120.141
  0
ARC
  8
APS_GEOMETRY
 10
-423.353
 20
-553.026
 40
2.23
 50
61.952
 51
90.0
  0
ARC
  8
APS_GEOMETRY
 10
-423.685
 20
-553.65
 40
2.936
 50
37.569
 51
61.952
  0
ARC
  8
APS_GEOMETRY
 10
-424.304
 20
-554.126
 40
3.717
 50
17.665
 51
37.569
  0
ARC
  8
APS_GEOMETRY
 10
-425.249
 20
-554.427
 40
4.709
 50
360.0
 51
17.665
  0
ARC
  8
APS_GEOMETRY
 10
-427.621
 20
-554.427
 40
7.081
 50
344.932
 51
360.0
  0
ARC
  8
APS_GEOMETRY
 10
-433.919
 20
-552.731
 40
13.603
 50
334.075
 51
344.932
  0
ARC
  8
APS_GEOMETRY
 10
-434.117
 20
-552.635
 40
13.823
 50
323.374
 51
334.075
  0
ARC
  8
APS_GEOMETRY
 10
-430.053
 20
-555.656
 40
8.76
 50
309.92
 51
323.374
  0
ARC
  8
APS_GEOMETRY
 10
-425.992
 20
-560.447
 40
2.48
 50
289.026
 51
308.991
  0
ARC
  8
APS_GEOMETRY
 10
-430.325
 20
-547.881
 40
15.771
 50
281.143
 51
289.026
  0
ARC
  8
APS_GEOMETRY
 10
-425.931
 20
-570.662
 40
7.431
 50
100.437
 51
110.12
  0
ARC
  8
APS_GEOMETRY
 10
-420.11
 20
-586.553
 40
24.353
 50
110.12
 51
115.463
  0
ARC
  8
APS_GEOMETRY
 10
-440.891
 20
-543.072
 40
23.838
 50
282.94
 51
295.628
  0
ARC
  8
APS_GEOMETRY
 10
-440.685
 20
-543.966
 40
22.921
 50
270.0
 51
282.94
  0
ARC
  8
APS_GEOMETRY
 10
-440.685
 20
-542.612
 40
24.275
 50
257.307
 51
270.0
  0
ARC
  8
APS_GEOMETRY
 10
-439.661
 20
-538.062
 40
28.939
 50
245.686
 51
257.307
  0
ARC
  8
APS_GEOMETRY
 10
-442.231
 20
-543.704
 40
22.739
 50
228.801
 51
245.735
  0
ARC
  8
APS_GEOMETRY
 10
-442.188
 20
-543.655
 40
22.805
 50
211.891
 51
228.801
  0
ARC
  8
APS_GEOMETRY
 10
-440.84
 20
-542.685
 40
24.462
 50
196.728
 51
212.152
  0
ARC
  8
APS_GEOMETRY
 10
-444.328
 20
-543.733
 40
20.82
 50
180.0
 51
196.728
  0
ARC
  8
APS_GEOMETRY
 10
-443.821
 20
-543.733
 40
21.327
 50
161.184
 51
180.0
  0
ARC
  8
APS_GEOMETRY
 10
-442.452
 20
-544.199
 40
22.773
 50
142.98
 51
161.184
  0
ARC
  8
APS_GEOMETRY
 10
-441.388
 20
-545.013
 40
24.112
 50
127.824
 51
142.958
  0
ARC
  8
APS_GEOMETRY
 10
-439.634
 20
-547.273
 40
26.973
 50
113.52
 51
127.824
  0
ARC
  8
APS_GEOMETRY
 10
-440.205
 20
-545.953
 40
25.535
 50
101.927
 51
113.527
  0
ARC
  8
APS_GEOMETRY
 10
-440.489
 20
-544.609
 40
24.161
 50
90.0
 51
101.927
  0
ARC
  8
APS_GEOMETRY
 10
-390.008
 20
-546.229
 40
25.782
 50
71.91
 51
90.0
  0
ARC
  8
APS_GEOMETRY
 10
-389.01
 20
-543.173
 40
22.566
 50
52.561
 51
71.91
  0
ARC
  8
APS_GEOMETRY
 10
-389.271
 20
-543.249
 40
22.786
 50
38.846
 51
52.156
  0
ARC
  8
APS_GEOMETRY
 10
-392.843
 20
-546.126
 40
27.372
 50
26.707
 51
38.846
  0
ARC
  8
APS_GEOMETRY
 10
-392.136
 20
-545.548
 40
26.482
 50
13.868
 51
26.278
  0
ARC
  8
APS_GEOMETRY
 10
-387.036
 20
-544.289
 40
21.229
 50
360.0
 51
13.868
  0
ARC
  8
APS_GEOMETRY
 10
-386.706
 20
-544.289
 40
20.899
 50
339.712
 51
360.0
  0
ARC
  8
APS_GEOMETRY
 10
-387.883
 20
-543.854
 40
22.153
 50
320.013
 51
339.712
  0
ARC
  8
APS_GEOMETRY
 10
-388.078
 20
-543.746
 40
22.372
 50
303.344
 51
320.123
  0
ARC
  8
APS_GEOMETRY
 10
-390.374
 20
-540.257
 40
26.548
 50
287.949
 51
303.344
  0
ARC
  8
APS_GEOMETRY
 10
-391.128
 20
-537.642
 40
29.269
 50
279.039
 51
287.776
  0
ARC
  8
APS_GEOMETRY
 10
-390.826
 20
-539.541
 40
27.346
 50
270.0
 51
279.039
  0
ARC
  8
APS_GEOMETRY
 10
-390.826
 20
-540.876
 40
26.011
 50
257.728
 51
270.0
  0
ARC
  8
APS_GEOMETRY
 10
-390.785
 20
-540.688
 40
26.203
 50
245.501
 51
257.728
  0
ARC
  8
APS_GEOMETRY
 10
-392.258
 20
-543.911
 40
22.66
 50
228.665
 51
245.511
  0
ARC
  8
APS_GEOMETRY
 10
-392.747
 20
-544.467
 40
21.918
 50
211.535
 51
228.665
  0
ARC
  8
APS_GEOMETRY
 10
-392.105
 20
-543.996
 40
22.712
 50
195.642
 51
211.701
  0
ARC
  8
APS_GEOMETRY
 10
-390.932
 20
-543.667
 40
23.931
 50
180.0
 51
195.642
  0
ARC
  8
APS_GEOMETRY
 10
-390.68
 20
-543.667
 40
24.183
 50
162.181
 51
180.0
  0
ARC
  8
APS_GEOMETRY
 10
-392.887
 20
-542.958
 40
21.865
 50
143.434
 51
162.181
  0
ARC
  8
APS_GEOMETRY
 10
-393.183
 20
-542.72
 40
21.485
 50
126.384
 51
143.471
  0
ARC
  8
APS_GEOMETRY
 10
-391.149
 20
-545.481
 40
24.914
 50
110.525
 51
126.384
  0
ARC
  8
APS_GEOMETRY
 10
-391.25
 20
-544.731
 40
24.177
 50
99.77
 51
110.925
  0
ARC
  8
APS_GEOMETRY
 10
-390.008
 20
-551.943
 40
31.496
 50
90.0
 51
99.77
  0
ARC
  8
APS_GEOMETRY
 10
-393.115
 20
-534.641
 40
4.807
 50
90.0
 51
119.604
  0
ARC
  8
APS_GEOMETRY
 10
-392.694
 20
-535.382
 40
5.659
 50
119.604
 51
146.842
  0
ARC
  8
APS_GEOMETRY
 10
-391.848
 20
-536.076
 40
6.748
 50
145.84
 51
164.055
  0
ARC
  8
APS_GEOMETRY
 10
-389.886
 20
-536.636
 40
8.788
 50
164.055
 51
180.0
  0
ARC
  8
APS_GEOMETRY
 10
-377.622
 20
-536.636
 40
21.053
 50
180.0
 51
189.977
  0
ARC
  8
APS_GEOMETRY
 10
-358.97
 20
-533.355
 40
39.991
 50
189.977
 51
197.211
  0
ARC
  8
APS_GEOMETRY
 10
-354.891
 20
-532.091
 40
44.261
 50
197.211
 51
203.76
  0
ARC
  8
APS_GEOMETRY
 10
-365.054
 20
-536.565
 40
33.157
 50
203.76
 51
211.329
  0
ARC
  8
APS_GEOMETRY
 10
-385.922
 20
-549.089
 40
8.821
 50
212.32
 51
224.441
  0
ARC
  8
APS_GEOMETRY
 10
-386.777
 20
-549.928
 40
7.623
 50
224.441
 51
237.484
  0
ARC
  8
APS_GEOMETRY
 10
-387.33
 20
-550.795
 40
6.595
 50
237.484
 51
252.416
  0
ARC
  8
APS_GEOMETRY
 10
-387.882
 20
-552.538
 40
4.766
 50
252.416
 51
270.0
  0
ARC
  8
APS_GEOMETRY
 10
-387.882
 20
-551.973
 40
5.331
 50
270.0
 51
294.953
  0
ARC
  8
APS_GEOMETRY
 10
-387.733
 20
-552.294
 40
4.977
 50
294.953
 51
320.793
  0
ARC
  8
APS_GEOMETRY
 10
-388.534
 20
-551.641
 40
6.011
 50
320.793
 51
342.777
  0
ARC
  8
APS_GEOMETRY
 10
-392.101
 20
-550.535
 40
9.746
 50
342.777
 51
0.0
  0
ARC
  8
APS_GEOMETRY
 10
-408.863
 20
-550.535
 40
26.507
 50
0.0
 51
8.499
  0
ARC
  8
APS_GEOMETRY
 10
-420.53
 20
-552.278
 40
38.304
 50
8.499
 51
15.566
  0
ARC
  8
APS_GEOMETRY
 10
-419.127
 20
-551.888
 40
36.848
 50
15.566
 51
22.909
  0
ARC
  8
APS_GEOMETRY
 10
-407.063
 20
-546.79
 40
23.751
 50
22.909
 51
32.057
  0
ARC
  8
APS_GEOMETRY
 10
-397.588
 20
-540.82
 40
12.552
 50
31.921
 51
42.51
  0
ARC
  8
APS_GEOMETRY
 10
-394.986
 20
-538.435
 40
9.022
 50
42.51
 51
55.008
  0
ARC
  8
APS_GEOMETRY
 10
-394.107
 20
-537.179
 40
7.489
 50
55.008
 51
69.88
  0
ARC
  8
APS_GEOMETRY
 10
-393.319
 20
-535.028
 40
5.198
 50
69.88
 51
87.754
  0
ARC
  8
APS_GEOMETRY
 10
-336.649
 20
-541.712
 40
21.264
 50
77.257
 51
90.0
  0
ARC
  8
APS_GEOMETRY
 10
-336.865
 20
-542.667
 40
22.243
 50
64.799
 51
77.257
  0
ARC
  8
APS_GEOMETRY
 10
-318.548
 20
-503.669
 40
20.843
 50
244.885
 51
251.175
  0
ARC
  8
APS_GEOMETRY
 10
-324.516
 20
-521.176
 40
2.346
 50
251.175
 51
270.0
  0
ARC
  8
APS_GEOMETRY
 10
-324.516
 20
-519.716
 40
3.806
 50
270.0
 51
278.82
  0
ARC
  8
APS_GEOMETRY
 10
-326.975
 20
-503.868
 40
19.844
 50
278.82
 51
282.68
  0
ARC
  8
APS_GEOMETRY
 10
-321.83
 20
-526.649
 40
3.511
 50
95.906
 51
102.995
  0
ARC
  8
APS_GEOMETRY
 10
-321.671
 20
-528.185
 40
5.055
 50
90.0
 51
95.906
  0
ARC
  8
APS_GEOMETRY
 10
-321.671
 20
-526.485
 40
3.356
 50
62.447
 51
90.0
  0
ARC
  8
APS_GEOMETRY
 10
-322.268
 20
-527.629
 40
4.645
 50
39.094
 51
62.447
  0
ARC
  8
APS_GEOMETRY
 10
-328.502
 20
-532.842
 40
12.772
 50
18.435
 51
39.611
  0
ARC
  8
APS_GEOMETRY
 10
-332.328
 20
-534.118
 40
16.806
 50
360.0
 51
18.435
  0
ARC
  8
APS_GEOMETRY
 10
-323.856
 20
-534.118
 40
8.333
 50
334.877
 51
360.0
  0
ARC
  8
APS_GEOMETRY
 10
-321.35
 20
-535.293
 40
5.565
 50
304.007
 51
334.877
  0
ARC
  8
APS_GEOMETRY
 10
-321.391
 20
-535.176
 40
5.686
 50
286.39
 51
303.69
  0
ARC
  8
APS_GEOMETRY
 10
-321.573
 20
-534.557
 40
6.33
 50
270.0
 51
286.39
  0
ARC
  8
APS_GEOMETRY
 10
-321.573
 20
-534.631
 40
6.257
 50
255.155
 51
270.0
  0
ARC
  8
APS_GEOMETRY
 10
-322.258
 20
-537.217
 40
3.581
 50
235.491
 51
255.155
  0
ARC
  8
APS_GEOMETRY
 10
-321.914
 20
-536.716
 40
4.189
 50
218.48
 51
235.491
  0
ARC
  8
APS_GEOMETRY
 10
-316.293
 20
-532.249
 40
11.369
 50
208.179
 51
218.48
  0
ARC
  8
APS_GEOMETRY
 10
-373.918
 20
-563.528
 40
54.198
 50
28.56
 51
31.664
  0
ARC
  8
APS_GEOMETRY
 10
-338.706
 20
-541.811
 40
12.827
 50
31.664
 51
38.047
  0
ARC
  8
APS_GEOMETRY
 10
-336.145
 20
-539.807
 40
9.576
 50
38.047
 51
46.56
  0
ARC
  8
APS_GEOMETRY
 10
-337.476
 20
-541.213
 40
11.512
 50
46.56
 51
54.324
  0
ARC
  8
APS_GEOMETRY
 10
-338.244
 20
-542.534
 40
13.034
 50
54.968
 51
71.48
  0
ARC
  8
APS_GEOMETRY
 10
-337.401
 20
-540.017
 40
10.38
 50
71.48
 51
90.0
  0
ARC
  8
APS_GEOMETRY
 10
-337.401
 20
-536.888
 40
7.251
 50
90.0
 51
114.63
  0
ARC
  8
APS_GEOMETRY
 10
-337.765
 20
-536.094
 40
6.377
 50
114.63
 51
140.921
  0
ARC
  8
APS_GEOMETRY
 10
-336.69
 20
-536.968
 40
7.763
 50
140.921
 51
163.13
  0
ARC
  8
APS_GEOMETRY
 10
-331.312
 20
-538.598
 40
13.382
 50
163.13
 51
180.0
  0
ARC
  8
APS_GEOMETRY
 10
-324.339
 20
-538.598
 40
20.355
 50
180.0
 51
195.44
  0
ARC
  8
APS_GEOMETRY
 10
-325.397
 20
-538.891
 40
19.258
 50
195.44
 51
211.316
  0
ARC
  8
APS_GEOMETRY
 10
-330.486
 20
-541.88
 40
13.357
 50
211.708
 51
240.457
  0
ARC
  8
APS_GEOMETRY
 10
-330.828
 20
-542.483
 40
12.663
 50
240.457
 51
270.0
  0
ARC
  8
APS_GEOMETRY
 10
-330.828
 20
-539.396
 40
15.751
 50
270.0
 51
279.549
  0
ARC
  8
APS_GEOMETRY
 10
-331.024
 20
-538.232
 40
16.931
 50
279.549
 51
288.759
  0
ARC
  8
APS_GEOMETRY
 10
-330.198
 20
-540.662
 40
14.364
 50
288.759
 51
299.545
  0
ARC
  8
APS_GEOMETRY
 10
-326.889
 20
-546.501
 40
7.652
 50
299.545
 51
314.341
  0
ARC
  8
APS_GEOMETRY
 10
-316.654
 20
-557.132
 40
7.105
 50
120.141
 51
133.452
  0
ARC
  8
APS_GEOMETRY
 10
-319.512
 20
-552.208
 40
1.412
 50
90.0
 51
120.141
  0
ARC
  8
APS_GEOMETRY
 10
-319.512
 20
-553.026
 40
2.23
 50
61.952
 51
90.0
  0
ARC
  8
APS_GEOMETRY
 10
-319.845
 20
-553.65
 40
2.936
 50
37.569
 51
61.952
  0
ARC
  8
APS_GEOMETRY
 10
-320.464
 20
-554.126
 40
3.717
 50
17.665
 51
37.569
  0
ARC
  8
APS_GEOMETRY
 10
-321.409
 20
-554.427
 40
4.709
 50
360.0
 51
17.665
  0
ARC
  8
APS_GEOMETRY
 10
-323.781
 20
-554.427
 40
7.081
 50
344.932
 51
360.0
  0
ARC
  8
APS_GEOMETRY
 10
-330.079
 20
-552.731
 40
13.603
 50
334.075
 51
344.932
  0
ARC
  8
APS_GEOMETRY
 10
-330.277
 20
-552.635
 40
13.823
 50
323.374
 51
334.075
  0
ARC
  8
APS_GEOMETRY
 10
-326.213
 20
-555.656
 40
8.76
 50
309.92
 51
323.374
  0
ARC
  8
APS_GEOMETRY
 10
-322.152
 20
-560.447
 40
2.48
 50
289.026
 51
308.991
  0
ARC
  8
APS_GEOMETRY
 10
-326.485
 20
-547.881
 40
15.771
 50
281.143
 51
289.026
  0
ARC
  8
APS_GEOMETRY
 10
-322.091
 20
-570.662
 40
7.431
 50
100.437
 51
110.12
  0
ARC
  8
APS_GEOMETRY
 10
-316.27
 20
-586.553
 40
24.353
 50
110.12
 51
115.463
  0
ARC
  8
APS_GEOMETRY
 10
-337.051
 20
-543.072
 40
23.838
 50
282.94
 51
295.628
  0
ARC
  8
APS_GEOMETRY
 10
-336.845
 20
-543.966
 40
22.921
 50
270.0
 51
282.94
  0
ARC
  8
APS_GEOMETRY
 10
-336.845
 20
-542.612
 40
24.275
 50
257.307
 51
270.0
  0
ARC
  8
APS_GEOMETRY
 10
-335.821
 20
-538.062
 40
28.939
 50
245.686
 51
257.307
  0
ARC
  8
APS_GEOMETRY
 10
-338.391
 20
-543.704
 40
22.739
 50
228.801
 51
245.735
  0
ARC
  8
APS_GEOMETRY
 10
-338.348
 20
-543.655
 40
22.805
 50
211.891
 51
228.801
  0
ARC
  8
APS_GEOMETRY
 10
-337.0
 20
-542.685
 40
24.462
 50
196.728
 51
212.152
  0
ARC
  8
APS_GEOMETRY
 10
-340.488
 20
-543.733
 40
20.82
 50
180.0
 51
196.728
  0
ARC
  8
APS_GEOMETRY
 10
-339.981
 20
-543.733
 40
21.327
 50
161.184
 51
180.0
  0
ARC
  8
APS_GEOMETRY
 10
-338.612
 20
-544.199
 40
22.773
 50
142.98
 51
161.184
  0
ARC
  8
APS_GEOMETRY
 10
-337.548
 20
-545.013
 40
24.112
 50
127.824
 51
142.958
  0
ARC
  8
APS_GEOMETRY
 10
-335.794
 20
-547.273
 40
26.973
 50
113.52
 51
127.824
  0
ARC
  8
APS_GEOMETRY
 10
-336.365
 20
-545.953
 40
25.535
 50
101.927
 51
113.527
  0
ARC
  8
APS_GEOMETRY
 10
-336.649
 20
-544.609
 40
24.161
 50
90.0
 51
101.927
  0
ARC
  8
APS_GEOMETRY
 10
-286.168
 20
-546.229
 40
25.782
 50
71.91
 51
90.0
  0
ARC
  8
APS_GEOMETRY
 10
-285.17
 20
-543.173
 40
22.566
 50
52.561
 51
71.91
  0
ARC
  8
APS_GEOMETRY
 10
-285.431
 20
-543.249
 40
22.786
 50
38.846
 51
52.156
  0
ARC
  8
APS_GEOMETRY
 10
-289.003
 20
-546.126
 40
27.372
 50
26.707
 51
38.846
  0
ARC
  8
APS_GEOMETRY
 10
-288.296
 20
-545.548
 40
26.482
 50
13.868
 51
26.278
  0
ARC
  8
APS_GEOMETRY
 10
-283.196
 20
-544.289
 40
21.229
 50
360.0
 51
13.868
  0
ARC
  8
APS_GEOMETRY
 10
-282.866
 20
-544.289
 40
20.899
 50
339.712
 51
360.0
  0
ARC
  8
APS_GEOMETRY
 10
-284.043
 20
-543.854
 40
22.153
 50
320.013
 51
339.712
  0
ARC
  8
APS_GEOMETRY
 10
-284.238
 20
-543.746
 40
22.372
 50
303.344
 51
320.123
  0
ARC
  8
APS_GEOMETRY
 10
-286.533
 20
-540.257
 40
26.548
 50
287.949
 51
303.344
  0
ARC
  8
APS_GEOMETRY
 10
-287.288
 20
-537.642
 40
29.269
 50
279.039
 51
287.776
  0
ARC
  8
APS_GEOMETRY
 10
-286.986
 20
-539.541
 40
27.346
 50
270.0
 51
279.039
  0
ARC
  8
APS_GEOMETRY
 10
-286.986
 20
-540.876
 40
26.011
 50
257.728
 51
270.0
  0
ARC
  8
APS_GEOMETRY
 10
-286.945
 20
-540.688
 40
26.203
 50
245.501
 51
257.728
  0
ARC
  8
APS_GEOMETRY
 10
-288.417
 20
-543.911
 40
22.66
 50
228.665
 51
245.511
  0
ARC
  8
APS_GEOMETRY
 10
-288.907
 20
-544.467
 40
21.918
 50
211.535
 51
228.665
  0
ARC
  8
APS_GEOMETRY
 10
-288.265
 20
-543.996
 40
22.712
 50
195.642
 51
211.701
  0
ARC
  8
APS_GEOMETRY
 10
-287.091
 20
-543.667
 40
23.931
 50
180.0
 51
195.642
  0
ARC
  8
APS_GEOMETRY
 10
-286.84
 20
-543.667
 40
24.183
 50
162.181
 51
180.0
  0
ARC
  8
APS_GEOMETRY
 10
-289.046
 20
-542.958
 40
21.865
 50
143.434
 51
162.181
  0
ARC
  8
APS_GEOMETRY
 10
-289.343
 20
-542.72
 40
21.485
 50
126.384
 51
143.471
  0
ARC
  8
APS_GEOMETRY
 10
-287.309
 20
-545.481
 40
24.914
 50
110.525
 51
126.384
  0
ARC
  8
APS_GEOMETRY
 10
-287.41
 20
-544.731
 40
24.177
 50
99.77
 51
110.925
  0
ARC
  8
APS_GEOMETRY
 10
-286.168
 20
-551.943
 40
31.496
 50
90.0
 51
99.77
  0
ARC
  8
APS_GEOMETRY
 10
-289.275
 20
-534.641
 40
4.807
 50
90.0
 51
119.604
  0
ARC
  8
APS_GEOMETRY
 10
-288.854
 20
-535.382
 40
5.659
 50
119.604
 51
146.842
  0
ARC
  8
APS_GEOMETRY
 10
-288.008
 20
-536.076
 40
6.748
 50
145.84
 51
164.055
  0
ARC
  8
APS_GEOMETRY
 10
-286.046
 20
-536.636
 40
8.788
 50
164.055
 51
180.0
  0
ARC
  8
APS_GEOMETRY
 10
-273.782
 20
-536.636
 40
21.053
 50
180.0
 51
189.977
  0
ARC
  8
APS_GEOMETRY
 10
-255.13
 20
-533.355
 40
39.991
 50
189.977
 51
197.211
  0
ARC
  8
APS_GEOMETRY
 10
-251.051
 20
-532.091
 40
44.261
 50
197.211
 51
203.76
  0
ARC
  8
APS_GEOMETRY
 10
-261.213
 20
-536.565
 40
33.157
 50
203.76
 51
211.329
  0
ARC
  8
APS_GEOMETRY
 10
-282.082
 20
-549.089
 40
8.821
 50
212.32
 51
224.441
  0
ARC
  8
APS_GEOMETRY
 10
-282.937
 20
-549.928
 40
7.623
 50
224.441
 51
237.484
  0
ARC
  8
APS_GEOMETRY
 10
-283.49
 20
-550.795
 40
6.595
 50
237.484
 51
252.416
  0
ARC
  8
APS_GEOMETRY
 10
-284.042
 20
-552.538
 40
4.766
 50
252.416
 51
270.0
  0
ARC
  8
APS_GEOMETRY
 10
-284.042
 20
-551.973
 40
5.331
 50
270.0
 51
294.953
  0
ARC
  8
APS_GEOMETRY
 10
-283.893
 20
-552.294
 40
4.977
 50
294.953
 51
320.793
  0
ARC
  8
APS_GEOMETRY
 10
-284.694
 20
-551.641
 40
6.011
 50
320.793
 51
342.777
  0
ARC
  8
APS_GEOMETRY
 10
-288.261
 20
-550.535
 40
9.746
 50
342.777
 51
0.0
  0
ARC
  8
APS_GEOMETRY
 10
-305.023
 20
-550.535
 40
26.507
 50
0.0
 51
8.499
  0
ARC
  8
APS_GEOMETRY
 10
-316.69
 20
-552.278
 40
38.304
 50
8.499
 51
15.566
  0
ARC
  8
APS_GEOMETRY
 10
-315.287
 20
-551.888
 40
36.848
 50
15.566
 51
22.909
  0
ARC
  8
APS_GEOMETRY
 10
-303.223
 20
-546.79
 40
23.751
 50
22.909
 51
32.057
  0
ARC
  8
APS_GEOMETRY
 10
-293.748
 20
-540.82
 40
12.552
 50
31.921
 51
42.51
  0
ARC
  8
APS_GEOMETRY
 10
-291.146
 20
-538.435
 40
9.022
 50
42.51
 51
55.008
  0
ARC
  8
APS_GEOMETRY
 10
-290.267
 20
-537.179
 40
7.489
 50
55.008
 51
69.88
  0
ARC
  8
APS_GEOMETRY
 10
-289.479
 20
-535.028
 40
5.198
 50
69.88
 51
87.754
  0
ARC
  8
APS_GEOMETRY
 10
-235.654
 20
-549.652
 40
2.42
 50
90.0
 51
115.837
  0
ARC
  8
APS_GEOMETRY
 10
-236.25
 20
-548.421
 40
1.053
 50
115.837
 51
155.462
  0
ARC
  8
APS_GEOMETRY
 10
-235.555
 20
-548.739
 40
1.817
 50
155.462
 51
168.366
  0
ARC
  8
APS_GEOMETRY
 10
-229.209
 20
-550.045
 40
8.296
 50
168.366
 51
174.395
  0
ARC
  8
APS_GEOMETRY
 10
-222.813
 20
-550.673
 40
14.722
 50
174.395
 51
177.813
  0
ARC
  8
APS_GEOMETRY
 10
-201.585
 20
-551.483
 40
35.966
 50
177.813
 51
180.0
  0
ARC
  8
APS_GEOMETRY
 10
-186.216
 20
-551.483
 40
51.335
 50
180.0
 51
184.62
  0
ARC
  8
APS_GEOMETRY
 10
-220.636
 20
-554.265
 40
16.803
 50
184.62
 51
192.7
  0
ARC
  8
APS_GEOMETRY
 10
-233.906
 20
-557.178
 40
3.218
 50
194.036
 51
205.821
  0
ARC
  8
APS_GEOMETRY
 10
-235.312
 20
-557.858
 40
1.656
 50
205.821
 51
222.274
  0
ARC
  8
APS_GEOMETRY
 10
-234.881
 20
-557.467
 40
2.238
 50
222.274
 51
234.605
  0
ARC
  8
APS_GEOMETRY
 10
-230.021
 20
-550.626
 40
10.63
 50
234.605
 51
240.255
  0
ARC
  8
APS_GEOMETRY
 10
-237.409
 20
-563.701
 40
4.389
 50
34.592
 51
61.189
  0
ARC
  8
APS_GEOMETRY
 10
-235.959
 20
-562.701
 40
2.627
 50
360.0
 51
34.592
  0
ARC
  8
APS_GEOMETRY
 10
-235.872
 20
-562.701
 40
2.539
 50
318.231
 51
360.0
  0
ARC
  8
APS_GEOMETRY
 10
-237.57
 20
-561.184
 40
4.816
 50
288.227
 51
318.231
  0
ARC
  8
APS_GEOMETRY
 10
-239.331
 20
-555.836
 40
10.446
 50
280.377
 51
288.227
  0
ARC
  8
APS_GEOMETRY
 10
-242.401
 20
-539.073
 40
27.489
 50
275.541
 51
280.377
  0
ARC
  8
APS_GEOMETRY
 10
-243.724
 20
-525.435
 40
41.19
 50
272.304
 51
275.541
  0
ARC
  8
APS_GEOMETRY
 10
-245.334
 20
-485.399
 40
81.259
 50
270.0
 51
272.304
  0
ARC
  8
APS_GEOMETRY
 10
-245.334
 20
-518.858
 40
47.8
 50
262.811
 51
270.0
  0
ARC
  8
APS_GEOMETRY
 10
-249.624
 20
-552.864
 40
13.524
 50
249.274
 51
262.811
  0
ARC
  8
APS_GEOMETRY
 10
-252.321
 20
-559.994
 40
5.901
 50
221.379
 51
249.274
  0
ARC
  8
APS_GEOMETRY
 10
-254.688
 20
-562.079
 40
2.747
 50
180.0
 51
221.379
  0
ARC
  8
APS_GEOMETRY
 10
-254.706
 20
-562.079
 40
2.728
 50
164.055
 51
180.0
  0
ARC
  8
APS_GEOMETRY
 10
-255.844
 20
-561.754
 40
1.546
 50
142.815
 51
164.055
  0
ARC
  8
APS_GEOMETRY
 10
-255.128
 20
-562.297
 40
2.444
 50
129.007
 51
142.815
  0
ARC
  8
APS_GEOMETRY
 10
-246.336
 20
-573.152
 40
16.412
 50
123.69
 51
129.007
  0
ARC
  8
APS_GEOMETRY
 10
-258.812
 20
-554.379
 40
6.128
 50
303.389
 51
319.022
  0
ARC
  8
APS_GEOMETRY
 10
-257.154
 20
-555.82
 40
3.932
 50
319.022
 51
338.575
  0
ARC
  8
APS_GEOMETRY
 10
-259.373
 20
-554.949
 40
6.316
 50
338.575
 51
351.049
  0
ARC
  8
APS_GEOMETRY
 10
-286.179
 20
-550.726
 40
33.452
 50
351.049
 51
356.46
  0
ARC
  8
APS_GEOMETRY
 10
-277.343
 20
-551.063
 40
24.613
 50
355.972
 51
358.68
  0
ARC
  8
APS_GEOMETRY
 10
-567.534
 20
-544.376
 40
314.881
 50
358.68
 51
359.437
  0
LINE
  8
APS_GEOMETRY
 10
-252.668
 11
-252.638
 20
-547.469
 21
-542.557
  0
LINE
  8
APS_GEOMETRY
 10
-252.638
 11
-252.627
 20
-542.557
 21
-536.146
  0
ARC
  8
APS_GEOMETRY
 10
-328.437
 20
-536.146
 40
75.809
 50
0.0
 51
1.717
  0
ARC
  8
APS_GEOMETRY
 10
-287.868
 20
-534.929
 40
35.223
 50
1.717
 51
4.236
  0
ARC
  8
APS_GEOMETRY
 10
-274.639
 20
-533.949
 40
21.957
 50
4.236
 51
8.269
  0
ARC
  8
APS_GEOMETRY
 10
-259.415
 20
-531.737
 40
6.573
 50
8.269
 51
15.642
  0
ARC
  8
APS_GEOMETRY
 10
-256.795
 20
-531.003
 40
3.853
 50
15.642
 51
39.417
  0
ARC
  8
APS_GEOMETRY
 10
-256.736
 20
-530.955
 40
3.776
 50
39.417
 51
63.435
  0
ARC
  8
APS_GEOMETRY
 10
-249.935
 20
-516.865
 40
11.869
 50
236.874
 51
244.486
  0
ARC
  8
APS_GEOMETRY
 10
-254.994
 20
-524.619
 40
2.611
 50
220.601
 51
236.874
  0
ARC
  8
APS_GEOMETRY
 10
-255.575
 20
-525.116
 40
1.847
 50
198.246
 51
220.601
  0
ARC
  8
APS_GEOMETRY
 10
-254.707
 20
-524.83
 40
2.761
 50
180.0
 51
198.246
  0
ARC
  8
APS_GEOMETRY
 10
-254.72
 20
-524.83
 40
2.748
 50
156.161
 51
180.0
  0
ARC
  8
APS_GEOMETRY
 10
-254.337
 20
-524.999
 40
3.167
 50
133.977
 51
156.161
  0
ARC
  8
APS_GEOMETRY
 10
-253.573
 20
-525.791
 40
4.266
 50
116.996
 51
133.977
  0
ARC
  8
APS_GEOMETRY
 10
-252.056
 20
-528.768
 40
7.608
 50
104.3
 51
116.996
  0
ARC
  8
APS_GEOMETRY
 10
-251.664
 20
-530.274
 40
9.164
 50
95.326
 51
104.349
  0
ARC
  8
APS_GEOMETRY
 10
-250.076
 20
-547.308
 40
26.272
 50
90.0
 51
95.326
  0
ARC
  8
APS_GEOMETRY
 10
-250.076
 20
-534.05
 40
13.013
 50
87.553
 51
90.0
  0
ARC
  8
APS_GEOMETRY
 10
-252.845
 20
-598.837
 40
77.86
 50
86.553
 51
87.553
  0
ARC
  8
APS_GEOMETRY
 10
-256.782
 20
-664.184
 40
143.325
 50
86.009
 51
86.553
  0
ARC
  8
APS_GEOMETRY
 10
-272.09
 20
-883.597
 40
363.271
 50
85.668
 51
86.009
  0
ARC
  8
APS_GEOMETRY
 10
-243.441
 20
-506.286
 40
15.125
 50
265.426
 51
268.531
  0
ARC
  8
APS_GEOMETRY
 10
-242.097
 20
-453.843
 40
67.586
 50
268.531
 51
270.0
  0
ARC
  8
APS_GEOMETRY
 10
-242.097
 20
-469.918
 40
51.511
 50
270.0
 51
271.637
  0
ARC
  8
APS_GEOMETRY
 10
-243.248
 20
-429.634
 40
91.812
 50
271.637
 51
272.862
  0
ARC
  8
APS_GEOMETRY
 10
-244.569
 20
-403.204
 40
118.274
 50
272.862
 51
273.814
  0
ARC
  8
APS_GEOMETRY
 10
-249.043
 20
-336.1
 40
185.527
 50
273.814
 51
274.574
  0
ARC
  8
APS_GEOMETRY
 10
-220.981
 20
-701.091
 40
180.543
 50
93.72
 51
94.214
  0
ARC
  8
APS_GEOMETRY
 10
-226.97
 20
-608.973
 40
88.23
 50
93.013
 51
93.72
  0
ARC
  8
APS_GEOMETRY
 10
-228.612
 20
-577.777
 40
56.991
 50
91.918
 51
93.013
  0
ARC
  8
APS_GEOMETRY
 10
-229.898
 20
-539.362
 40
18.554
 50
90.0
 51
91.918
  0
ARC
  8
APS_GEOMETRY
 10
-229.898
 20
-544.916
 40
24.109
 50
73.82
 51
90.0
  0
ARC
  8
APS_GEOMETRY
 10
-227.522
 20
-536.727
 40
15.581
 50
53.658
 51
73.82
  0
ARC
  8
APS_GEOMETRY
 10
-224.143
 20
-532.107
 40
9.857
 50
26.03
 51
53.569
  0
ARC
  8
APS_GEOMETRY
 10
-225.18
 20
-532.614
 40
11.012
 50
360.0
 51
26.03
  0
ARC
  8
APS_GEOMETRY
 10
-225.611
 20
-532.614
 40
11.443
 50
345.282
 51
360.0
  0
ARC
  8
APS_GEOMETRY
 10
-224.51
 20
-532.903
 40
10.305
 50
329.767
 51
345.282
  0
ARC
  8
APS_GEOMETRY
 10
-223.887
 20
-533.266
 40
9.583
 50
313.168
 51
329.767
  0
ARC
  8
APS_GEOMETRY
 10
-223.656
 20
-533.512
 40
9.246
 50
296.267
 51
313.168
  0
ARC
  8
APS_GEOMETRY
 10
-218.393
 20
-544.146
 40
2.62
 50
116.565
 51
139.899
  0
ARC
  8
APS_GEOMETRY
 10
-219.699
 20
-543.046
 40
0.911
 50
139.899
 51
180.0
  0
ARC
  8
APS_GEOMETRY
 10
-219.598
 20
-543.046
 40
1.013
 50
180.0
 51
226.193
  0
ARC
  8
APS_GEOMETRY
 10
-217.727
 20
-541.095
 40
3.715
 50
226.193
 51
249.829
  0
ARC
  8
APS_GEOMETRY
 10
-223.088
 20
-555.857
 40
11.989
 50
53.249
 51
70.105
  0
ARC
  8
APS_GEOMETRY
 10
-220.653
 20
-552.596
 40
7.919
 50
32.471
 51
53.249
  0
ARC
  8
APS_GEOMETRY
 10
-221.788
 20
-553.318
 40
9.264
 50
23.305
 51
32.471
  0
ARC
  8
APS_GEOMETRY
 10
-228.798
 20
-556.338
 40
16.897
 50
16.521
 51
23.305
  0
ARC
  8
APS_GEOMETRY
 10
-234.263
 20
-557.959
 40
22.598
 50
11.429
 51
16.521
  0
ARC
  8
APS_GEOMETRY
 10
-249.753
 20
-561.09
 40
38.401
 50
7.524
 51
11.429
  0
ARC
  8
APS_GEOMETRY
 10
-198.425
 20
-554.254
 40
13.38
 50
187.765
 51
196.914
  0
ARC
  8
APS_GEOMETRY
 10
-209.368
 20
-557.582
 40
1.942
 50
196.914
 51
221.082
  0
ARC
  8
APS_GEOMETRY
 10
-209.327
 20
-557.546
 40
1.997
 50
221.082
 51
244.607
  0
ARC
  8
APS_GEOMETRY
 10
-204.653
 20
-547.7
 40
12.896
 50
244.607
 51
253.811
  0
ARC
  8
APS_GEOMETRY
 10
-208.762
 20
-561.71
 40
1.705
 50
51.45
 51
72.474
  0
ARC
  8
APS_GEOMETRY
 10
-209.184
 20
-562.24
 40
2.382
 50
33.69
 51
51.45
  0
ARC
  8
APS_GEOMETRY
 10
-209.283
 20
-562.305
 40
2.5
 50
16.639
 51
33.69
  0
ARC
  8
APS_GEOMETRY
 10
-209.402
 20
-562.341
 40
2.625
 50
360.0
 51
16.639
  0
ARC
  8
APS_GEOMETRY
 10
-209.439
 20
-562.341
 40
2.662
 50
338.993
 51
360.0
  0
ARC
  8
APS_GEOMETRY
 10
-211.064
 20
-561.717
 40
4.402
 50
322.696
 51
338.993
  0
ARC
  8
APS_GEOMETRY
 10
-211.669
 20
-561.256
 40
5.164
 50
308.603
 51
322.696
  0
ARC
  8
APS_GEOMETRY
 10
-212.086
 20
-560.734
 40
5.831
 50
295.346
 51
308.603
  0
ARC
  8
APS_GEOMETRY
 10
-214.277
 20
-555.908
 40
11.131
 50
279.583
 51
294.905
  0
ARC
  8
APS_GEOMETRY
 10
-217.144
 20
-538.926
 40
28.353
 50
270.0
 51
279.583
  0
ARC
  8
APS_GEOMETRY
 10
-217.144
 20
-546.608
 40
20.672
 50
261.247
 51
270.0
  0
ARC
  8
APS_GEOMETRY
 10
-218.468
 20
-555.208
 40
11.97
 50
249.737
 51
261.247
  0
ARC
  8
APS_GEOMETRY
 10
-219.339
 20
-557.566
 40
9.457
 50
235.345
 51
249.737
  0
ARC
  8
APS_GEOMETRY
 10
-220.438
 20
-559.156
 40
7.524
 50
219.198
 51
235.345
  0
ARC
  8
APS_GEOMETRY
 10
-218.125
 20
-557.184
 40
10.563
 50
209.076
 51
219.56
  0
ARC
  8
APS_GEOMETRY
 10
-212.784
 20
-554.214
 40
16.674
 50
200.735
 51
209.076
  0
ARC
  8
APS_GEOMETRY
 10
-205.414
 20
-551.424
 40
24.554
 50
197.881
 51
200.735
  0
ARC
  8
APS_GEOMETRY
 10
-175.133
 20
-541.654
 40
56.372
 50
195.997
 51
197.881
  0
ARC
  8
APS_GEOMETRY
 10
-152.751
 20
-535.238
 40
79.656
 50
194.664
 51
195.997
  0
ARC
  8
APS_GEOMETRY
 10
-90.756
 20
-519.015
 40
143.738
 50
193.671
 51
194.664
  0
ARC
  8
APS_GEOMETRY
 10
-247.966
 20
-557.236
 40
18.051
 50
13.61
 51
23.585
  0
ARC
  8
APS_GEOMETRY
 10
-236.147
 20
-552.076
 40
5.155
 50
23.585
 51
42.31
  0
ARC
  8
APS_GEOMETRY
 10
-235.075
 20
-551.1
 40
3.705
 50
42.31
 51
67.521
  0
ARC
  8
APS_GEOMETRY
 10
-235.923
 20
-553.15
 40
5.924
 50
67.521
 51
87.397
  0
LINE
  8
APS_GEOMETRY
 10
-237.518
 11
-237.878
 20
-530.553
 21
-538.173
  0
LINE
  8
APS_GEOMETRY
 10
-237.878
 11
-237.878
 20
-538.173
 21
-538.296
  0
LINE
  8
APS_GEOMETRY
 10
-237.878
 11
-237.878
 20
-538.296
 21
-538.468
  0
ARC
  8
APS_GEOMETRY
 10
-232.584
 20
-538.468
 40
5.294
 50
180.0
 51
192.339
  0
ARC
  8
APS_GEOMETRY
 10
-236.793
 20
-539.388
 40
0.986
 50
192.339
 51
221.186
  0
ARC
  8
APS_GEOMETRY
 10
-236.893
 20
-539.476
 40
0.852
 50
221.186
 51
253.872
  0
ARC
  8
APS_GEOMETRY
 10
-236.177
 20
-537.0
 40
3.429
 50
253.872
 51
270.0
  0
ARC
  8
APS_GEOMETRY
 10
-236.177
 20
-532.459
 40
7.971
 50
270.0
 51
289.569
  0
ARC
  8
APS_GEOMETRY
 10
-234.728
 20
-536.536
 40
3.644
 50
289.569
 51
318.681
  0
ARC
  8
APS_GEOMETRY
 10
-235.12
 20
-536.191
 40
4.166
 50
318.681
 51
344.628
  0
ARC
  8
APS_GEOMETRY
 10
-242.423
 20
-534.183
 40
11.74
 50
344.628
 51
0.0
  0
ARC
  8
APS_GEOMETRY
 10
-238.951
 20
-534.183
 40
8.268
 50
0.0
 51
35.369
  0
ARC
  8
APS_GEOMETRY
 10
-235.164
 20
-531.495
 40
3.623
 50
35.369
 51
90.0
  0
ARC
  8
APS_GEOMETRY
 10
-235.164
 20
-531.535
 40
3.663
 50
90.0
 51
108.435
  0
ARC
  8
APS_GEOMETRY
 10
-235.876
 20
-529.397
 40
1.409
 50
108.435
 51
138.366
  0
ARC
  8
APS_GEOMETRY
 10
-235.685
 20
-529.567
 40
1.665
 50
138.366
 51
164.291
  0
ARC
  8
APS_GEOMETRY
 10
-231.2
 20
-530.828
 40
6.324
 50
164.291
 51
177.51
  0
LINE
  8
APS_GEOMETRY
 10
-179.3
 11
-163.013
 20
-522.933
 21
-537.192
  0
ARC
  8
APS_GEOMETRY
 10
-147.781
 20
-519.713
 40
23.185
 50
228.93
 51
232.674
  0
ARC
  8
APS_GEOMETRY
 10
-156.255
 20
-530.826
 40
9.21
 50
232.674
 51
238.617
  0
ARC
  8
APS_GEOMETRY
 10
-158.387
 20
-534.321
 40
5.116
 50
238.617
 51
249.131
  0
ARC
  8
APS_GEOMETRY
 10
-159.743
 20
-537.878
 40
1.309
 50
249.131
 51
270.0
  0
ARC
  8
APS_GEOMETRY
 10
-159.743
 20
-538.039
 40
1.148
 50
270.0
 51
334.898
  0
ARC
  8
APS_GEOMETRY
 10
-165.041
 20
-535.557
 40
6.999
 50
334.898
 51
0.0
  0
ARC
  8
APS_GEOMETRY
 10
-216.272
 20
-535.557
 40
58.23
 50
0.0
 51
2.026
  0
ARC
  8
APS_GEOMETRY
 10
-185.385
 20
-534.464
 40
27.324
 50
2.026
 51
4.984
  0
ARC
  8
APS_GEOMETRY
 10
-175.286
 20
-533.583
 40
17.186
 50
4.984
 51
9.673
  0
ARC
  8
APS_GEOMETRY
 10
-163.647
 20
-531.599
 40
5.379
 50
9.673
 51
18.06
  0
ARC
  8
APS_GEOMETRY
 10
-161.875
 20
-531.022
 40
3.515
 50
18.06
 51
42.397
  0
ARC
  8
APS_GEOMETRY
 10
-162.447
 20
-531.544
 40
4.29
 50
42.397
 51
64.398
  0
ARC
  8
APS_GEOMETRY
 10
-157.223
 20
-520.758
 40
7.695
 50
233.633
 51
244.026
  0
ARC
  8
APS_GEOMETRY
 10
-160.068
 20
-524.622
 40
2.896
 50
216.656
 51
233.633
  0
ARC
  8
APS_GEOMETRY
 10
-160.505
 20
-524.946
 40
2.353
 50
196.082
 51
216.656
  0
ARC
  8
APS_GEOMETRY
 10
-159.081
 20
-524.536
 40
3.835
 50
180.0
 51
196.082
  0
ARC
  8
APS_GEOMETRY
 10
-160.127
 20
-524.536
 40
2.788
 50
133.202
 51
180.0
  0
ARC
  8
APS_GEOMETRY
 10
-157.929
 20
-526.877
 40
6.0
 50
101.788
 51
133.202
  0
ARC
  8
APS_GEOMETRY
 10
-157.416
 20
-529.174
 40
8.353
 50
96.633
 51
102.011
  0
ARC
  8
APS_GEOMETRY
 10
-155.557
 20
-545.163
 40
24.449
 50
93.489
 51
96.633
  0
ARC
  8
APS_GEOMETRY
 10
-154.761
 20
-558.221
 40
37.532
 50
91.439
 51
93.489
  0
ARC
  8
APS_GEOMETRY
 10
-153.791
 20
-596.815
 40
76.138
 50
90.0
 51
91.439
  0
ARC
  8
APS_GEOMETRY
 10
-153.791
 20
-591.641
 40
70.964
 50
87.994
 51
90.0
  0
ARC
  8
APS_GEOMETRY
 10
-152.501
 20
-554.8
 40
34.101
 50
85.101
 51
87.994
  0
ARC
  8
APS_GEOMETRY
 10
-151.454
 20
-542.584
 40
21.84
 50
80.595
 51
85.101
  0
ARC
  8
APS_GEOMETRY
 10
-149.066
 20
-528.17
 40
7.23
 50
72.759
 51
80.595
  0
ARC
  8
APS_GEOMETRY
 10
-148.343
 20
-525.93
 40
4.876
 50
40.956
 51
73.072
  0
ARC
  8
APS_GEOMETRY
 10
-146.963
 20
-524.732
 40
3.048
 50
360.0
 51
40.956
  0
ARC
  8
APS_GEOMETRY
 10
-146.779
 20
-524.732
 40
2.865
 50
322.573
 51
360.0
  0
ARC
  8
APS_GEOMETRY
 10
-148.284
 20
-523.58
 40
4.76
 50
293.749
 51
322.573
  0
ARC
  8
APS_GEOMETRY
 10
-142.24
 20
-537.461
 40
10.38
 50
113.429
 51
119.291
  0
ARC
  8
APS_GEOMETRY
 10
-146.279
 20
-530.261
 40
2.124
 50
119.291
 51
132.274
  0
ARC
  8
APS_GEOMETRY
 10
-146.512
 20
-530.005
 40
1.778
 50
132.274
 51
147.653
  0
ARC
  8
APS_GEOMETRY
 10
-144.83
 20
-531.07
 40
3.769
 50
147.653
 51
158.199
  0
ARC
  8
APS_GEOMETRY
 10
-142.27
 20
-532.149
 40
6.546
 50
157.751
 51
167.885
  0
ARC
  8
APS_GEOMETRY
 10
-128.65
 20
-535.073
 40
20.477
 50
167.885
 51
173.61
  0
ARC
  8
APS_GEOMETRY
 10
-116.604
 20
-536.422
 40
32.599
 50
173.61
 51
177.221
  0
ARC
  8
APS_GEOMETRY
 10
-79.448
 20
-538.225
 40
69.798
 50
177.221
 51
179.689
  0
LINE
  8
APS_GEOMETRY
 10
-149.245
 11
-149.245
 20
-537.846
 21
-548.507
  0
ARC
  8
APS_GEOMETRY
 10
286.12
 20
-548.507
 40
435.365
 50
180.0
 51
180.161
  0
ARC
  8
APS_GEOMETRY
 10
663.939
 20
-547.443
 40
813.186
 50
180.161
 51
180.279
  0
LINE
  8
APS_GEOMETRY
 10
-149.237
 11
-149.227
 20
-551.41
 21
-553.198
  0
LINE
  8
APS_GEOMETRY
 10
-149.227
 11
-149.212
 20
-553.198
 21
-555.212
  0
ARC
  8
APS_GEOMETRY
 10
-226.896
 20
-555.653
 40
77.685
 50
358.204
 51
0.326
  0
ARC
  8
APS_GEOMETRY
 10
-189.942
 20
-556.812
 40
40.713
 50
355.274
 51
358.204
  0
ARC
  8
APS_GEOMETRY
 10
-177.079
 20
-557.875
 40
27.806
 50
350.991
 51
355.274
  0
ARC
  8
APS_GEOMETRY
 10
-160.701
 20
-560.472
 40
11.223
 50
344.249
 51
350.991
  0
ARC
  8
APS_GEOMETRY
 10
-155.165
 20
-562.053
 40
5.466
 50
314.415
 51
344.445
  0
ARC
  8
APS_GEOMETRY
 10
-153.137
 20
-564.123
 40
2.568
 50
270.0
 51
314.415
  0
ARC
  8
APS_GEOMETRY
 10
-153.137
 20
-562.531
 40
4.16
 50
256.342
 51
270.0
  0
ARC
  8
APS_GEOMETRY
 10
-153.433
 20
-563.75
 40
2.905
 50
239.982
 51
256.342
  0
ARC
  8
APS_GEOMETRY
 10
-152.139
 20
-561.51
 40
5.492
 50
231.153
 51
239.982
  0
ARC
  8
APS_GEOMETRY
 10
-130.39
 20
-534.505
 40
40.166
 50
227.891
 51
231.153
  0
LINE
  8
APS_GEOMETRY
 10
-157.323
 11
-176.716
 20
-564.303
 21
-546.938
  0
ARC
  8
APS_GEOMETRY
 10
-184.187
 20
-555.209
 40
11.146
 50
47.911
 51
61.468
  0
ARC
  8
APS_GEOMETRY
 10
-180.084
 20
-547.663
 40
2.557
 50
61.468
 51
90.0
  0
ARC
  8
APS_GEOMETRY
 10
-180.084
 20
-546.227
 40
1.12
 50
90.0
 51
133.195
  0
ARC
  8
APS_GEOMETRY
 10
-178.98
 20
-547.403
 40
2.733
 50
133.195
 51
160.454
  0
ARC
  8
APS_GEOMETRY
 10
-175.436
 20
-548.661
 40
6.494
 50
160.454
 51
173.251
  0
ARC
  8
APS_GEOMETRY
 10
-158.769
 20
-550.633
 40
23.278
 50
173.251
 51
180.0
  0
ARC
  8
APS_GEOMETRY
 10
-113.429
 20
-550.633
 40
68.618
 50
180.0
 51
181.897
  0
ARC
  8
APS_GEOMETRY
 10
-149.771
 20
-551.837
 40
32.255
 50
181.897
 51
184.664
  0
ARC
  8
APS_GEOMETRY
 10
-161.683
 20
-552.809
 40
20.304
 50
184.664
 51
189.048
  0
ARC
  8
APS_GEOMETRY
 10
-175.484
 20
-555.006
 40
6.329
 50
189.048
 51
196.905
  0
ARC
  8
APS_GEOMETRY
 10
-177.675
 20
-555.672
 40
4.04
 50
196.905
 51
220.253
  0
ARC
  8
APS_GEOMETRY
 10
-177.631
 20
-555.635
 40
4.097
 50
220.253
 51
243.435
  0
ARC
  8
APS_GEOMETRY
 10
-181.628
 20
-563.696
 40
4.901
 50
37.921
 51
63.778
  0
ARC
  8
APS_GEOMETRY
 10
-179.596
 20
-562.112
 40
2.324
 50
360.0
 51
37.921
  0
ARC
  8
APS_GEOMETRY
 10
-180.499
 20
-562.112
 40
3.227
 50
324.268
 51
360.0
  0
ARC
  8
APS_GEOMETRY
 10
-181.707
 20
-561.243
 40
4.715
 50
294.86
 51
324.268
  0
ARC
  8
APS_GEOMETRY
 10
-183.704
 20
-556.934
 40
9.465
 50
278.78
 51
294.86
  0
ARC
  8
APS_GEOMETRY
 10
-187.083
 20
-535.054
 40
31.604
 50
270.0
 51
278.78
  0
ARC
  8
APS_GEOMETRY
 10
-187.083
 20
-540.725
 40
25.933
 50
260.383
 51
270.0
  0
ARC
  8
APS_GEOMETRY
 10
-189.816
 20
-556.854
 40
9.574
 50
244.522
 51
260.383
  0
ARC
  8
APS_GEOMETRY
 10
-191.795
 20
-561.008
 40
4.972
 50
216.549
 51
244.522
  0
ARC
  8
APS_GEOMETRY
 10
-193.417
 20
-562.21
 40
2.954
 50
180.0
 51
216.549
  0
ARC
  8
APS_GEOMETRY
 10
-192.364
 20
-562.21
 40
4.007
 50
164.65
 51
180.0
  0
ARC
  8
APS_GEOMETRY
 10
-194.649
 20
-561.583
 40
1.637
 50
140.528
 51
164.65
  0
ARC
  8
APS_GEOMETRY
 10
-193.725
 20
-562.344
 40
2.835
 50
126.135
 51
140.528
  0
ARC
  8
APS_GEOMETRY
 10
-184.07
 20
-575.567
 40
19.207
 50
120.619
 51
126.135
  0
ARC
  8
APS_GEOMETRY
 10
-195.516
 20
-556.245
 40
3.251
 50
300.784
 51
330.068
  0
ARC
  8
APS_GEOMETRY
 10
-197.682
 20
-554.998
 40
5.749
 50
330.068
 51
351.983
  0
ARC
  8
APS_GEOMETRY
 10
-234.044
 20
-550.258
 40
42.42
 50
352.493
 51
355.365
  0
ARC
  8
APS_GEOMETRY
 10
-277.907
 20
-546.702
 40
86.427
 50
355.365
 51
357.376
  0
ARC
  8
APS_GEOMETRY
 10
-308.62
 20
-545.294
 40
117.171
 50
357.376
 51
358.861
  0
ARC
  8
APS_GEOMETRY
 10
-390.447
 20
-543.667
 40
199.014
 50
358.861
 51
0.0
  0
ARC
  8
APS_GEOMETRY
 10
-316.857
 20
-543.667
 40
125.424
 50
360.0
 51
1.926
  0
ARC
  8
APS_GEOMETRY
 10
-258.471
 20
-541.704
 40
67.005
 50
1.926
 51
4.562
  0
ARC
  8
APS_GEOMETRY
 10
-237.883
 20
-540.061
 40
46.352
 50
4.562
 51
8.366
  0
ARC
  8
APS_GEOMETRY
 10
-211.107
 20
-536.123
 40
19.288
 50
8.366
 51
14.265
  0
ARC
  8
APS_GEOMETRY
 10
-200.982
 20
-533.563
 40
8.844
 50
14.349
 51
23.629
  0
ARC
  8
APS_GEOMETRY
 10
-195.848
 20
-531.316
 40
3.24
 50
23.629
 51
38.991
  0
ARC
  8
APS_GEOMETRY
 10
-195.829
 20
-531.301
 40
3.215
 50
38.991
 51
54.462
  0
ARC
  8
APS_GEOMETRY
 10
-198.833
 20
-535.507
 40
8.384
 50
54.462
 51
64.026
  0
ARC
  8
APS_GEOMETRY
 10
-190.355
 20
-518.139
 40
10.942
 50
235.472
 51
243.947
  0
ARC
  8
APS_GEOMETRY
 10
-194.734
 20
-524.505
 40
3.216
 50
219.806
 51
235.472
  0
ARC
  8
APS_GEOMETRY
 10
-195.397
 20
-525.057
 40
2.353
 50
198.939
 51
219.806
  0
ARC
  8
APS_GEOMETRY
 10
-194.926
 20
-524.896
 40
2.851
 50
180.0
 51
198.939
  0
ARC
  8
APS_GEOMETRY
 10
-195.065
 20
-524.896
 40
2.712
 50
126.254
 51
180.0
  0
ARC
  8
APS_GEOMETRY
 10
-190.926
 20
-530.54
 40
9.711
 50
98.616
 51
126.254
  0
ARC
  8
APS_GEOMETRY
 10
-190.343
 20
-535.203
 40
14.41
 50
94.456
 51
98.13
  0
ARC
  8
APS_GEOMETRY
 10
-188.095
 20
-564.055
 40
43.349
 50
92.337
 51
94.456
  0
ARC
  8
APS_GEOMETRY
 10
-187.137
 20
-587.534
 40
66.847
 50
90.963
 51
92.337
  0
ARC
  8
APS_GEOMETRY
 10
-185.971
 20
-656.883
 40
136.206
 50
90.0
 51
90.963
  0
ARC
  8
APS_GEOMETRY
 10
-185.971
 20
-545.499
 40
24.822
 50
83.928
 51
90.0
  0
ARC
  8
APS_GEOMETRY
 10
-183.935
 20
-526.361
 40
5.577
 50
71.095
 51
83.928
  0
ARC
  8
APS_GEOMETRY
 10
-183.749
 20
-525.819
 40
5.003
 50
56.848
 51
71.095
  0
ARC
  8
APS_GEOMETRY
 10
-189.252
 20
-534.243
 40
15.065
 50
48.652
 51
56.848
  0
ARC
  8
APS_GEOMETRY
 10
-120.492
 20
-561.284
 40
40.608
 50
84.71
 51
90.0
  0
ARC
  8
APS_GEOMETRY
 10
-119.748
 20
-553.244
 40
32.533
 50
78.799
 51
84.71
  0
ARC
  8
APS_GEOMETRY
 10
-114.931
 20
-528.901
 40
7.718
 50
49.783
 51
78.771
  0
ARC
  8
APS_GEOMETRY
 10
-111.71
 20
-525.092
 40
2.729
 50
360.0
 51
49.783
  0
ARC
  8
APS_GEOMETRY
 10
-112.0
 20
-525.092
 40
3.02
 50
342.759
 51
360.0
  0
ARC
  8
APS_GEOMETRY
 10
-110.425
 20
-525.581
 40
1.37
 50
317.045
 51
342.759
  0
ARC
  8
APS_GEOMETRY
 10
-111.186
 20
-524.872
 40
2.41
 50
301.817
 51
317.045
  0
ARC
  8
APS_GEOMETRY
 10
-122.442
 20
-506.73
 40
23.76
 50
296.98
 51
301.817
  0
ARC
  8
APS_GEOMETRY
 10
-110.44
 20
-530.349
 40
2.733
 50
116.565
 51
149.078
  0
ARC
  8
APS_GEOMETRY
 10
-106.921
 20
-532.457
 40
6.835
 50
149.078
 51
169.469
  0
ARC
  8
APS_GEOMETRY
 10
-99.417
 20
-533.852
 40
14.468
 50
169.469
 51
174.598
  0
ARC
  8
APS_GEOMETRY
 10
-60.753
 20
-537.508
 40
53.304
 50
174.598
 51
177.269
  0
ARC
  8
APS_GEOMETRY
 10
-26.755
 20
-539.129
 40
87.341
 50
177.269
 51
178.901
  0
ARC
  8
APS_GEOMETRY
 10
78.552
 20
-541.149
 40
192.667
 50
178.901
 51
180.0
  0
ARC
  8
APS_GEOMETRY
 10
292.542
 20
-541.149
 40
406.657
 50
180.0
 51
180.88
  0
ARC
  8
APS_GEOMETRY
 10
42.022
 20
-544.997
 40
156.107
 50
180.88
 51
182.3
  0
ARC
  8
APS_GEOMETRY
 10
-31.204
 20
-547.939
 40
82.823
 50
182.3
 51
184.974
  0
ARC
  8
APS_GEOMETRY
 10
-101.025
 20
-554.015
 40
12.738
 50
184.974
 51
191.793
  0
ARC
  8
APS_GEOMETRY
 10
-109.135
 20
-555.566
 40
4.484
 50
193.57
 51
205.787
  0
ARC
  8
APS_GEOMETRY
 10
-111.152
 20
-556.54
 40
2.244
 50
205.787
 51
223.091
  0
ARC
  8
APS_GEOMETRY
 10
-110.64
 20
-556.062
 40
2.944
 50
223.091
 51
236.441
  0
ARC
  8
APS_GEOMETRY
 10
-106.357
 20
-549.605
 40
10.693
 50
236.441
 51
243.435
  0
ARC
  8
APS_GEOMETRY
 10
-112.915
 20
-563.075
 40
4.291
 50
37.185
 51
65.556
  0
ARC
  8
APS_GEOMETRY
 10
-111.516
 20
-562.014
 40
2.535
 50
360.0
 51
37.185
  0
ARC
  8
APS_GEOMETRY
 10
-111.592
 20
-562.014
 40
2.612
 50
312.039
 51
360.0
  0
ARC
  8
APS_GEOMETRY
 10
-114.703
 20
-558.564
 40
7.258
 50
283.815
 51
312.039
  0
ARC
  8
APS_GEOMETRY
 10
-119.844
 20
-537.258
 40
29.174
 50
279.273
 51
283.627
  0
ARC
  8
APS_GEOMETRY
 10
-121.899
 20
-524.673
 40
41.926
 50
275.641
 51
279.273
  0
ARC
  8
APS_GEOMETRY
 10
-122.684
 20
-516.719
 40
49.919
 50
272.588
 51
275.641
  0
ARC
  8
APS_GEOMETRY
 10
-123.566
 20
-497.202
 40
69.456
 50
270.0
 51
272.588
  0
ARC
  8
APS_GEOMETRY
 10
-123.566
 20
-524.764
 40
41.894
 50
262.774
 51
270.0
  0
ARC
  8
APS_GEOMETRY
 10
-127.343
 20
-554.552
 40
11.868
 50
249.175
 51
262.774
  0
ARC
  8
APS_GEOMETRY
 10
-129.716
 20
-560.789
 40
5.194
 50
221.23
 51
249.175
  0
ARC
  8
APS_GEOMETRY
 10
-131.785
 20
-562.603
 40
2.443
 50
180.0
 51
221.23
  0
ARC
  8
APS_GEOMETRY
 10
-132.186
 20
-562.603
 40
2.041
 50
142.696
 51
180.0
  0
ARC
  8
APS_GEOMETRY
 10
-128.965
 20
-565.057
 40
6.091
 50
121.357
 51
142.696
  0
ARC
  8
APS_GEOMETRY
 10
-134.408
 20
-556.142
 40
4.354
 50
301.477
 51
324.728
  0
ARC
  8
APS_GEOMETRY
 10
-133.828
 20
-556.553
 40
3.643
 50
324.728
 51
350.181
  0
ARC
  8
APS_GEOMETRY
 10
-152.069
 20
-553.535
 40
22.132
 50
350.538
 51
355.423
  0
ARC
  8
APS_GEOMETRY
 10
-227.021
 20
-547.535
 40
97.324
 50
355.423
 51
357.752
  0
ARC
  8
APS_GEOMETRY
 10
-296.614
 20
-544.803
 40
166.971
 50
357.752
 51
359.111
  0
ARC
  8
APS_GEOMETRY
 10
-519.361
 20
-541.345
 40
389.744
 50
359.111
 51
0.0
  0
ARC
  8
APS_GEOMETRY
 10
-264.84
 20
-541.345
 40
135.223
 50
0.0
 51
1.773
  0
ARC
  8
APS_GEOMETRY
 10
-185.48
 20
-538.889
 40
55.825
 50
1.773
 51
4.532
  0
ARC
  8
APS_GEOMETRY
 10
-161.359
 20
-536.977
 40
31.629
 50
4.532
 51
9.384
  0
ARC
  8
APS_GEOMETRY
 10
-136.866
 20
-532.929
 40
6.803
 50
9.384
 51
19.855
  0
ARC
  8
APS_GEOMETRY
 10
-133.624
 20
-531.697
 40
3.336
 50
18.853
 51
42.158
  0
ARC
  8
APS_GEOMETRY
 10
-136.402
 20
-534.212
 40
7.084
 50
42.158
 51
58.092
  0
ARC
  8
APS_GEOMETRY
 10
-124.174
 20
-515.315
 40
15.426
 50
230.711
 51
236.634
  0
ARC
  8
APS_GEOMETRY
 10
-131.855
 20
-524.704
 40
3.296
 50
217.875
 51
230.711
  0
ARC
  8
APS_GEOMETRY
 10
-132.908
 20
-525.523
 40
1.962
 50
196.928
 51
217.875
  0
ARC
  8
APS_GEOMETRY
 10
-131.922
 20
-525.223
 40
2.992
 50
180.0
 51
196.928
  0
ARC
  8
APS_GEOMETRY
 10
-132.567
 20
-525.223
 40
2.347
 50
148.791
 51
180.0
  0
ARC
  8
APS_GEOMETRY
 10
-131.952
 20
-525.596
 40
3.067
 50
121.569
 51
148.791
  0
ARC
  8
APS_GEOMETRY
 10
-130.846
 20
-527.394
 40
5.178
 50
112.806
 51
121.569
  0
ARC
  8
APS_GEOMETRY
 10
-127.859
 20
-534.499
 40
12.885
 50
107.254
 51
112.806
  0
ARC
  8
APS_GEOMETRY
 10
-126.029
 20
-540.39
 40
19.054
 50
103.487
 51
107.254
  0
ARC
  8
APS_GEOMETRY
 10
-121.839
 20
-557.863
 40
37.022
 50
100.784
 51
103.487
  0
ARC
  8
APS_GEOMETRY
 10
-120.526
 20
-562.694
 40
42.015
 50
95.643
 51
101.31
  0
ARC
  8
APS_GEOMETRY
 10
-120.492
 20
-563.039
 40
42.362
 50
90.0
 51
95.643
  0
ARC
  8
APS_GEOMETRY
 10
-79.822
 20
-541.712
 40
21.264
 50
77.257
 51
90.0
  0
ARC
  8
APS_GEOMETRY
 10
-80.038
 20
-542.667
 40
22.243
 50
64.799
 51
77.257
  0
ARC
  8
APS_GEOMETRY
 10
-61.721
 20
-503.669
 40
20.843
 50
244.885
 51
251.175
  0
ARC
  8
APS_GEOMETRY
 10
-67.689
 20
-521.176
 40
2.346
 50
251.175
 51
270.0
  0
ARC
  8
APS_GEOMETRY
 10
-67.689
 20
-519.716
 40
3.806
 50
270.0
 51
278.82
  0
ARC
  8
APS_GEOMETRY
 10
-70.148
 20
-503.868
 40
19.844
 50
278.82
 51
282.68
  0
ARC
  8
APS_GEOMETRY
 10
-65.003
 20
-526.649
 40
3.511
 50
95.906
 51
102.995
  0
ARC
  8
APS_GEOMETRY
 10
-64.844
 20
-528.185
 40
5.055
 50
90.0
 51
95.906
  0
ARC
  8
APS_GEOMETRY
 10
-64.844
 20
-526.485
 40
3.356
 50
62.447
 51
90.0
  0
ARC
  8
APS_GEOMETRY
 10
-65.441
 20
-527.629
 40
4.645
 50
39.094
 51
62.447
  0
ARC
  8
APS_GEOMETRY
 10
-71.675
 20
-532.842
 40
12.772
 50
18.435
 51
39.611
  0
ARC
  8
APS_GEOMETRY
 10
-75.501
 20
-534.118
 40
16.806
 50
360.0
 51
18.435
  0
ARC
  8
APS_GEOMETRY
 10
-67.029
 20
-534.118
 40
8.333
 50
334.877
 51
360.0
  0
ARC
  8
APS_GEOMETRY
 10
-64.523
 20
-535.293
 40
5.565
 50
304.007
 51
334.877
  0
ARC
  8
APS_GEOMETRY
 10
-64.564
 20
-535.176
 40
5.686
 50
286.39
 51
303.69
  0
ARC
  8
APS_GEOMETRY
 10
-64.746
 20
-534.557
 40
6.33
 50
270.0
 51
286.39
  0
ARC
  8
APS_GEOMETRY
 10
-64.746
 20
-534.631
 40
6.257
 50
255.155
 51
270.0
  0
ARC
  8
APS_GEOMETRY
 10
-65.431
 20
-537.217
 40
3.581
 50
235.491
 51
255.155
  0
ARC
  8
APS_GEOMETRY
 10
-65.087
 20
-536.716
 40
4.189
 50
218.48
 51
235.491
  0
ARC
  8
APS_GEOMETRY
 10
-59.466
 20
-532.249
 40
11.369
 50
208.179
 51
218.48
  0
ARC
  8
APS_GEOMETRY
 10
-117.091
 20
-563.528
 40
54.198
 50
28.56
 51
31.664
  0
ARC
  8
APS_GEOMETRY
 10
-81.879
 20
-541.811
 40
12.827
 50
31.664
 51
38.047
  0
ARC
  8
APS_GEOMETRY
 10
-79.318
 20
-539.807
 40
9.576
 50
38.047
 51
46.56
  0
ARC
  8
APS_GEOMETRY
 10
-80.649
 20
-541.213
 40
11.512
 50
46.56
 51
54.324
  0
ARC
  8
APS_GEOMETRY
 10
-81.417
 20
-542.534
 40
13.034
 50
54.968
 51
71.48
  0
ARC
  8
APS_GEOMETRY
 10
-80.574
 20
-540.017
 40
10.38
 50
71.48
 51
90.0
  0
ARC
  8
APS_GEOMETRY
 10
-80.574
 20
-536.888
 40
7.251
 50
90.0
 51
114.63
  0
ARC
  8
APS_GEOMETRY
 10
-80.938
 20
-536.094
 40
6.377
 50
114.63
 51
140.921
  0
ARC
  8
APS_GEOMETRY
 10
-79.863
 20
-536.968
 40
7.763
 50
140.921
 51
163.13
  0
ARC
  8
APS_GEOMETRY
 10
-74.485
 20
-538.598
 40
13.382
 50
163.13
 51
180.0
  0
ARC
  8
APS_GEOMETRY
 10
-67.512
 20
-538.598
 40
20.355
 50
180.0
 51
195.44
  0
ARC
  8
APS_GEOMETRY
 10
-68.57
 20
-538.891
 40
19.258
 50
195.44
 51
211.316
  0
ARC
  8
APS_GEOMETRY
 10
-73.659
 20
-541.88
 40
13.357
 50
211.708
 51
240.457
  0
ARC
  8
APS_GEOMETRY
 10
-74.001
 20
-542.483
 40
12.663
 50
240.457
 51
270.0
  0
ARC
  8
APS_GEOMETRY
 10
-74.001
 20
-539.396
 40
15.751
 50
270.0
 51
279.549
  0
ARC
  8
APS_GEOMETRY
 10
-74.197
 20
-538.232
 40
16.931
 50
279.549
 51
288.759
  0
ARC
  8
APS_GEOMETRY
 10
-73.371
 20
-540.662
 40
14.364
 50
288.759
 51
299.545
  0
ARC
  8
APS_GEOMETRY
 10
-70.062
 20
-546.501
 40
7.652
 50
299.545
 51
314.341
  0
ARC
  8
APS_GEOMETRY
 10
-59.827
 20
-557.132
 40
7.105
 50
120.141
 51
133.452
  0
ARC
  8
APS_GEOMETRY
 10
-62.685
 20
-552.208
 40
1.412
 50
90.0
 51
120.141
  0
ARC
  8
APS_GEOMETRY
 10
-62.685
 20
-553.026
 40
2.23
 50
61.952
 51
90.0
  0
ARC
  8
APS_GEOMETRY
 10
-63.018
 20
-553.65
 40
2.936
 50
37.569
 51
61.952
  0
ARC
  8
APS_GEOMETRY
 10
-63.637
 20
-554.126
 40
3.717
 50
17.665
 51
37.569
  0
ARC
  8
APS_GEOMETRY
 10
-64.582
 20
-554.427
 40
4.709
 50
360.0
 51
17.665
  0
ARC
  8
APS_GEOMETRY
 10
-66.954
 20
-554.427
 40
7.081
 50
344.932
 51
360.0
  0
ARC
  8
APS_GEOMETRY
 10
-73.252
 20
-552.731
 40
13.603
 50
334.075
 51
344.932
  0
ARC
  8
APS_GEOMETRY
 10
-73.45
 20
-552.635
 40
13.823
 50
323.374
 51
334.075
  0
ARC
  8
APS_GEOMETRY
 10
-69.386
 20
-555.656
 40
8.76
 50
309.92
 51
323.374
  0
ARC
  8
APS_GEOMETRY
 10
-65.325
 20
-560.447
 40
2.48
 50
289.026
 51
308.991
  0
ARC
  8
APS_GEOMETRY
 10
-69.658
 20
-547.881
 40
15.771
 50
281.143
 51
289.026
  0
ARC
  8
APS_GEOMETRY
 10
-65.264
 20
-570.662
 40
7.431
 50
100.437
 51
110.12
  0
ARC
  8
APS_GEOMETRY
 10
-59.443
 20
-586.553
 40
24.353
 50
110.12
 51
115.463
  0
ARC
  8
APS_GEOMETRY
 10
-80.224
 20
-543.072
 40
23.838
 50
282.94
 51
295.628
  0
ARC
  8
APS_GEOMETRY
 10
-80.018
 20
-543.966
 40
22.921
 50
270.0
 51
282.94
  0
ARC
  8
APS_GEOMETRY
 10
-80.018
 20
-542.612
 40
24.275
 50
257.307
 51
270.0
  0
ARC
  8
APS_GEOMETRY
 10
-78.994
 20
-538.062
 40
28.939
 50
245.686
 51
257.307
  0
ARC
  8
APS_GEOMETRY
 10
-81.564
 20
-543.704
 40
22.739
 50
228.801
 51
245.735
  0
ARC
  8
APS_GEOMETRY
 10
-81.521
 20
-543.655
 40
22.805
 50
211.891
 51
228.801
  0
ARC
  8
APS_GEOMETRY
 10
-80.173
 20
-542.685
 40
24.462
 50
196.728
 51
212.152
  0
ARC
  8
APS_GEOMETRY
 10
-83.661
 20
-543.733
 40
20.82
 50
180.0
 51
196.728
  0
ARC
  8
APS_GEOMETRY
 10
-83.154
 20
-543.733
 40
21.327
 50
161.184
 51
180.0
  0
ARC
  8
APS_GEOMETRY
 10
-81.785
 20
-544.199
 40
22.773
 50
142.98
 51
161.184
  0
ARC
  8
APS_GEOMETRY
 10
-80.721
 20
-545.013
 40
24.112
 50
127.824
 51
142.958
  0
ARC
  8
APS_GEOMETRY
 10
-78.967
 20
-547.273
 40
26.973
 50
113.52
 51
127.824
  0
ARC
  8
APS_GEOMETRY
 10
-79.538
 20
-545.953
 40
25.535
 50
101.927
 51
113.527
  0
ARC
  8
APS_GEOMETRY
 10
-79.822
 20
-544.609
 40
24.161
 50
90.0
 51
101.927
  0
ARC
  8
APS_GEOMETRY
 10
-35.273
 20
-561.284
 40
40.608
 50
84.71
 51
90.0
  0
ARC
  8
APS_GEOMETRY
 10
-34.529
 20
-553.244
 40
32.533
 50
78.799
 51
84.71
  0
ARC
  8
APS_GEOMETRY
 10
-29.712
 20
-528.901
 40
7.718
 50
49.783
 51
78.771
  0
ARC
  8
APS_GEOMETRY
 10
-26.491
 20
-525.092
 40
2.729
 50
360.0
 51
49.783
  0
ARC
  8
APS_GEOMETRY
 10
-26.781
 20
-525.092
 40
3.02
 50
342.759
 51
360.0
  0
ARC
  8
APS_GEOMETRY
 10
-25.206
 20
-525.581
 40
1.37
 50
317.045
 51
342.759
  0
ARC
  8
APS_GEOMETRY
 10
-25.967
 20
-524.872
 40
2.41
 50
301.817
 51
317.045
  0
ARC
  8
APS_GEOMETRY
 10
-37.223
 20
-506.73
 40
23.76
 50
296.98
 51
301.817
  0
ARC
  8
APS_GEOMETRY
 10
-25.221
 20
-530.349
 40
2.733
 50
116.565
 51
149.078
  0
ARC
  8
APS_GEOMETRY
 10
-21.702
 20
-532.457
 40
6.835
 50
149.078
 51
169.469
  0
ARC
  8
APS_GEOMETRY
 10
-14.198
 20
-533.852
 40
14.468
 50
169.469
 51
174.598
  0
ARC
  8
APS_GEOMETRY
 10
24.466
 20
-537.508
 40
53.304
 50
174.598
 51
177.269
  0
ARC
  8
APS_GEOMETRY
 10
58.464
 20
-539.129
 40
87.341
 50
177.269
 51
178.901
  0
ARC
  8
APS_GEOMETRY
 10
163.771
 20
-541.149
 40
192.667
 50
178.901
 51
180.0
  0
ARC
  8
APS_GEOMETRY
 10
377.76
 20
-541.149
 40
406.657
 50
180.0
 51
180.88
  0
ARC
  8
APS_GEOMETRY
 10
127.24
 20
-544.997
 40
156.107
 50
180.88
 51
182.3
  0
ARC
  8
APS_GEOMETRY
 10
54.015
 20
-547.939
 40
82.823
 50
182.3
 51
184.974
  0
ARC
  8
APS_GEOMETRY
 10
-15.806
 20
-554.015
 40
12.738
 50
184.974
 51
191.793
  0
ARC
  8
APS_GEOMETRY
 10
-23.916
 20
-555.566
 40
4.484
 50
193.57
 51
205.787
  0
ARC
  8
APS_GEOMETRY
 10
-25.933
 20
-556.54
 40
2.244
 50
205.787
 51
223.091
  0
ARC
  8
APS_GEOMETRY
 10
-25.422
 20
-556.062
 40
2.944
 50
223.091
 51
236.441
  0
ARC
  8
APS_GEOMETRY
 10
-21.138
 20
-549.605
 40
10.693
 50
236.441
 51
243.435
  0
ARC
  8
APS_GEOMETRY
 10
-27.696
 20
-563.075
 40
4.291
 50
37.185
 51
65.556
  0
ARC
  8
APS_GEOMETRY
 10
-26.297
 20
-562.014
 40
2.535
 50
360.0
 51
37.185
  0
ARC
  8
APS_GEOMETRY
 10
-26.374
 20
-562.014
 40
2.612
 50
312.039
 51
360.0
  0
ARC
  8
APS_GEOMETRY
 10
-29.485
 20
-558.564
 40
7.258
 50
283.815
 51
312.039
  0
ARC
  8
APS_GEOMETRY
 10
-34.625
 20
-537.258
 40
29.174
 50
279.273
 51
283.627
  0
ARC
  8
APS_GEOMETRY
 10
-36.68
 20
-524.673
 40
41.926
 50
275.641
 51
279.273
  0
ARC
  8
APS_GEOMETRY
 10
-37.465
 20
-516.719
 40
49.919
 50
272.588
 51
275.641
  0
ARC
  8
APS_GEOMETRY
 10
-38.348
 20
-497.202
 40
69.456
 50
270.0
 51
272.588
  0
ARC
  8
APS_GEOMETRY
 10
-38.348
 20
-524.764
 40
41.894
 50
262.774
 51
270.0
  0
ARC
  8
APS_GEOMETRY
 10
-42.124
 20
-554.552
 40
11.868
 50
249.175
 51
262.774
  0
ARC
  8
APS_GEOMETRY
 10
-44.497
 20
-560.789
 40
5.194
 50
221.23
 51
249.175
  0
ARC
  8
APS_GEOMETRY
 10
-46.566
 20
-562.603
 40
2.443
 50
180.0
 51
221.23
  0
ARC
  8
APS_GEOMETRY
 10
-46.968
 20
-562.603
 40
2.041
 50
142.696
 51
180.0
  0
ARC
  8
APS_GEOMETRY
 10
-43.746
 20
-565.057
 40
6.091
 50
121.357
 51
142.696
  0
ARC
  8
APS_GEOMETRY
 10
-49.189
 20
-556.142
 40
4.354
 50
301.477
 51
324.728
  0
ARC
  8
APS_GEOMETRY
 10
-48.609
 20
-556.553
 40
3.643
 50
324.728
 51
350.181
  0
ARC
  8
APS_GEOMETRY
 10
-66.85
 20
-553.535
 40
22.132
 50
350.538
 51
355.423
  0
ARC
  8
APS_GEOMETRY
 10
-141.802
 20
-547.535
 40
97.324
 50
355.423
 51
357.752
  0
ARC
  8
APS_GEOMETRY
 10
-211.395
 20
-544.803
 40
166.971
 50
357.752
 51
359.111
  0
ARC
  8
APS_GEOMETRY
 10
-434.142
 20
-541.345
 40
389.744
 50
359.111
 51
0.0
  0
ARC
  8
APS_GEOMETRY
 10
-179.621
 20
-541.345
 40
135.223
 50
0.0
 51
1.773
  0
ARC
  8
APS_GEOMETRY
 10
-100.261
 20
-538.889
 40
55.825
 50
1.773
 51
4.532
  0
ARC
  8
APS_GEOMETRY
 10
-76.14
 20
-536.977
 40
31.629
 50
4.532
 51
9.384
  0
ARC
  8
APS_GEOMETRY
 10
-51.647
 20
-532.929
 40
6.803
 50
9.384
 51
19.855
  0
ARC
  8
APS_GEOMETRY
 10
-48.405
 20
-531.697
 40
3.336
 50
18.853
 51
42.158
  0
ARC
  8
APS_GEOMETRY
 10
-51.183
 20
-534.212
 40
7.084
 50
42.158
 51
58.092
  0
ARC
  8
APS_GEOMETRY
 10
-38.955
 20
-515.315
 40
15.426
 50
230.711
 51
236.634
  0
ARC
  8
APS_GEOMETRY
 10
-46.636
 20
-524.704
 40
3.296
 50
217.875
 51
230.711
  0
ARC
  8
APS_GEOMETRY
 10
-47.689
 20
-525.523
 40
1.962
 50
196.928
 51
217.875
  0
ARC
  8
APS_GEOMETRY
 10
-46.703
 20
-525.223
 40
2.992
 50
180.0
 51
196.928
  0
ARC
  8
APS_GEOMETRY
 10
-47.348
 20
-525.223
 40
2.347
 50
148.791
 51
180.0
  0
ARC
  8
APS_GEOMETRY
 10
-46.733
 20
-525.596
 40
3.067
 50
121.569
 51
148.791
  0
ARC
  8
APS_GEOMETRY
 10
-45.628
 20
-527.394
 40
5.178
 50
112.806
 51
121.569
  0
ARC
  8
APS_GEOMETRY
 10
-42.64
 20
-534.499
 40
12.885
 50
107.254
 51
112.806
  0
ARC
  8
APS_GEOMETRY
 10
-40.811
 20
-540.39
 40
19.054
 50
103.487
 51
107.254
  0
ARC
  8
APS_GEOMETRY
 10
-36.62
 20
-557.863
 40
37.022
 50
100.784
 51
103.487
  0
ARC
  8
APS_GEOMETRY
 10
-35.308
 20
-562.694
 40
42.015
 50
95.643
 51
101.31
  0
ARC
  8
APS_GEOMETRY
 10
-35.273
 20
-563.039
 40
42.362
 50
90.0
 51
95.643
  0
LINE
  8
APS_GEOMETRY
 10
33.875
 11
33.875
 20
-550.601
 21
-533.398
  0
ARC
  8
APS_GEOMETRY
 10
-5.846
 20
-533.398
 40
39.721
 50
0.0
 51
2.404
  0
ARC
  8
APS_GEOMETRY
 10
17.671
 20
-532.411
 40
16.183
 50
2.404
 51
6.17
  0
ARC
  8
APS_GEOMETRY
 10
24.72
 20
-531.649
 40
9.093
 50
6.17
 51
12.824
  0
ARC
  8
APS_GEOMETRY
 10
31.619
 20
-530.079
 40
2.017
 50
12.824
 51
26.98
  0
ARC
  8
APS_GEOMETRY
 10
31.942
 20
-529.914
 40
1.655
 50
26.98
 51
59.65
  0
ARC
  8
APS_GEOMETRY
 10
28.904
 20
-535.103
 40
7.668
 50
59.65
 51
74.667
  0
ARC
  8
APS_GEOMETRY
 10
32.406
 20
-522.604
 40
5.313
 50
225.0
 51
253.887
  0
ARC
  8
APS_GEOMETRY
 10
30.245
 20
-524.765
 40
2.257
 50
180.0
 51
225.0
  0
ARC
  8
APS_GEOMETRY
 10
30.66
 20
-524.765
 40
2.672
 50
151.157
 51
180.0
  0
ARC
  8
APS_GEOMETRY
 10
30.654
 20
-524.761
 40
2.665
 50
122.276
 51
151.157
  0
ARC
  8
APS_GEOMETRY
 10
31.418
 20
-525.971
 40
4.096
 50
102.308
 51
122.276
  0
ARC
  8
APS_GEOMETRY
 10
32.828
 20
-532.435
 40
10.712
 50
90.0
 51
102.308
  0
ARC
  8
APS_GEOMETRY
 10
32.828
 20
-544.889
 40
23.166
 50
88.989
 51
90.0
  0
ARC
  8
APS_GEOMETRY
 10
30.881
 20
-655.234
 40
133.528
 50
88.568
 51
88.989
  0
ARC
  8
APS_GEOMETRY
 10
28.131
 20
-765.239
 40
243.567
 50
88.337
 51
88.568
  0
ARC
  8
APS_GEOMETRY
 10
17.473
 20
-1132.355
 40
610.838
 50
88.191
 51
88.337
  0
LINE
  8
APS_GEOMETRY
 10
36.753
 11
38.682
 20
-521.821
 21
-521.821
  0
ARC
  8
APS_GEOMETRY
 10
32.201
 20
554.128
 40
1075.969
 50
270.345
 51
270.49
  0
ARC
  8
APS_GEOMETRY
 10
38.24
 20
-152.483
 40
369.332
 50
270.49
 51
270.736
  0
ARC
  8
APS_GEOMETRY
 10
40.719
 20
-345.354
 40
176.445
 50
270.736
 51
271.253
  0
ARC
  8
APS_GEOMETRY
 10
44.245
 20
-506.571
 40
15.19
 50
271.253
 51
273.013
  0
ARC
  8
APS_GEOMETRY
 10
44.098
 20
-503.783
 40
17.982
 50
273.013
 51
274.5
  0
ARC
  8
APS_GEOMETRY
 10
27.442
 20
-292.129
 40
230.289
 50
274.5
 51
274.915
  0
LINE
  8
APS_GEOMETRY
 10
47.173
 11
49.136
 20
-521.572
 21
-521.399
  0
LINE
  8
APS_GEOMETRY
 10
49.136
 11
51.698
 20
-521.399
 21
-521.167
  0
ARC
  8
APS_GEOMETRY
 10
55.911
 20
-561.891
 40
40.941
 50
93.24
 51
95.906
  0
ARC
  8
APS_GEOMETRY
 10
55.165
 20
-548.708
 40
27.736
 50
90.0
 51
93.24
  0
ARC
  8
APS_GEOMETRY
 10
55.165
 20
-544.524
 40
23.553
 50
77.12
 51
90.0
  0
ARC
  8
APS_GEOMETRY
 10
56.406
 20
-539.098
 40
17.987
 50
62.371
 51
77.12
  0
ARC
  8
APS_GEOMETRY
 10
58.507
 20
-535.159
 40
13.522
 50
31.215
 51
62.517
  0
ARC
  8
APS_GEOMETRY
 10
58.443
 20
-535.197
 40
13.597
 50
360.0
 51
31.215
  0
ARC
  8
APS_GEOMETRY
 10
58.078
 20
-535.197
 40
13.962
 50
334.496
 51
360.0
  0
ARC
  8
APS_GEOMETRY
 10
58.765
 20
-535.525
 40
13.201
 50
308.254
 51
334.496
  0
ARC
  8
APS_GEOMETRY
 10
56.665
 20
-532.758
 40
16.674
 50
287.855
 51
308.034
  0
ARC
  8
APS_GEOMETRY
 10
55.263
 20
-528.405
 40
21.247
 50
270.0
 51
287.855
  0
ARC
  8
APS_GEOMETRY
 10
55.263
 20
-517.455
 40
32.197
 50
266.918
 51
270.0
  0
ARC
  8
APS_GEOMETRY
 10
57.217
 20
-481.158
 40
68.546
 50
264.806
 51
266.918
  0
ARC
  8
APS_GEOMETRY
 10
44.145
 20
-643.267
 40
94.095
 50
85.815
 51
86.634
  0
ARC
  8
APS_GEOMETRY
 10
49.344
 20
-554.888
 40
5.563
 50
86.634
 51
90.0
  0
ARC
  8
APS_GEOMETRY
 10
49.344
 20
-550.146
 40
0.821
 50
90.0
 51
139.686
  0
ARC
  8
APS_GEOMETRY
 10
49.648
 20
-550.404
 40
1.22
 50
139.686
 51
180.0
  0
LINE
  8
APS_GEOMETRY
 10
48.428
 11
48.428
 20
-550.404
 21
-550.601
  0
LINE
  8
APS_GEOMETRY
 10
48.428
 11
48.657
 20
-550.601
 21
-555.964
  0
ARC
  8
APS_GEOMETRY
 10
56.407
 20
-555.641
 40
7.757
 50
182.386
 51
193.753
  0
ARC
  8
APS_GEOMETRY
 10
51.409
 20
-556.864
 40
2.612
 50
193.753
 51
213.408
  0
ARC
  8
APS_GEOMETRY
 10
51.465
 20
-556.827
 40
2.679
 50
213.408
 51
232.628
  0
ARC
  8
APS_GEOMETRY
 10
55.976
 20
-550.922
 40
10.11
 50
232.628
 51
242.488
  0
ARC
  8
APS_GEOMETRY
 10
48.453
 20
-565.186
 40
6.017
 50
40.539
 51
61.699
  0
ARC
  8
APS_GEOMETRY
 10
51.741
 20
-562.374
 40
1.69
 50
360.0
 51
40.539
  0
ARC
  8
APS_GEOMETRY
 10
51.162
 20
-562.374
 40
2.269
 50
315.297
 51
360.0
  0
ARC
  8
APS_GEOMETRY
 10
48.093
 20
-559.336
 40
6.588
 50
289.502
 51
315.297
  0
ARC
  8
APS_GEOMETRY
 10
45.843
 20
-552.984
 40
13.326
 50
282.372
 51
289.502
  0
ARC
  8
APS_GEOMETRY
 10
43.481
 20
-542.214
 40
24.353
 50
277.099
 51
282.372
  0
ARC
  8
APS_GEOMETRY
 10
42.509
 20
-534.414
 40
32.213
 50
273.104
 51
277.099
  0
ARC
  8
APS_GEOMETRY
 10
41.364
 20
-513.296
 40
53.362
 50
270.0
 51
273.104
  0
ARC
  8
APS_GEOMETRY
 10
41.364
 20
-513.935
 40
52.723
 50
263.473
 51
270.0
  0
ARC
  8
APS_GEOMETRY
 10
37.031
 20
-551.802
 40
14.609
 50
251.056
 51
263.473
  0
ARC
  8
APS_GEOMETRY
 10
34.249
 20
-559.907
 40
6.039
 50
224.161
 51
251.056
  0
ARC
  8
APS_GEOMETRY
 10
31.575
 20
-562.505
 40
2.311
 50
180.0
 51
224.161
  0
ARC
  8
APS_GEOMETRY
 10
32.055
 20
-562.505
 40
2.791
 50
160.821
 51
180.0
  0
ARC
  8
APS_GEOMETRY
 10
30.884
 20
-562.097
 40
1.552
 50
135.0
 51
160.821
  0
ARC
  8
APS_GEOMETRY
 10
31.991
 20
-563.204
 40
3.117
 50
121.522
 51
135.0
  0
ARC
  8
APS_GEOMETRY
 10
44.476
 20
-583.56
 40
26.996
 50
116.952
 51
121.522
  0
ARC
  8
APS_GEOMETRY
 10
30.843
 20
-556.849
 40
2.993
 50
297.824
 51
321.605
  0
ARC
  8
APS_GEOMETRY
 10
31.532
 20
-557.395
 40
2.113
 50
321.605
 51
349.992
  0
ARC
  8
APS_GEOMETRY
 10
28.333
 20
-556.831
 40
5.362
 50
349.992
 51
356.014
  0
ARC
  8
APS_GEOMETRY
 10
-20.33
 20
-553.44
 40
54.143
 50
356.014
 51
357.908
  0
ARC
  8
APS_GEOMETRY
 10
-77.134
 20
-551.365
 40
110.985
 50
357.908
 51
358.833
  0
ARC
  8
APS_GEOMETRY
 10
-282.531
 20
-547.18
 40
316.424
 50
358.833
 51
359.381
  0
LINE
  8
APS_GEOMETRY
 10
48.657
 11
48.657
 20
-529.245
 21
-540.364
  0
ARC
  8
APS_GEOMETRY
 10
52.031
 20
-540.364
 40
3.374
 50
180.0
 51
199.885
  0
ARC
  8
APS_GEOMETRY
 10
49.506
 20
-541.278
 40
0.689
 50
199.885
 51
244.799
  0
ARC
  8
APS_GEOMETRY
 10
50.957
 20
-538.287
 40
4.013
 50
244.231
 51
258.996
  0
ARC
  8
APS_GEOMETRY
 10
51.567
 20
-535.15
 40
7.209
 50
258.996
 51
270.0
  0
ARC
  8
APS_GEOMETRY
 10
51.567
 20
-535.909
 40
6.45
 50
270.0
 51
288.435
  0
ARC
  8
APS_GEOMETRY
 10
52.03
 20
-537.297
 40
4.987
 50
288.435
 51
309.428
  0
ARC
  8
APS_GEOMETRY
 10
52.199
 20
-537.471
 40
4.745
 50
309.193
 51
339.939
  0
ARC
  8
APS_GEOMETRY
 10
46.329
 20
-535.328
 40
10.994
 50
339.939
 51
0.0
  0
ARC
  8
APS_GEOMETRY
 10
46.975
 20
-535.328
 40
10.348
 50
0.0
 51
22.011
  0
ARC
  8
APS_GEOMETRY
 10
51.56
 20
-533.475
 40
5.403
 50
22.011
 51
52.651
  0
ARC
  8
APS_GEOMETRY
 10
51.489
 20
-533.524
 40
5.485
 50
52.374
 51
72.309
  0
ARC
  8
APS_GEOMETRY
 10
51.044
 20
-534.919
 40
6.95
 50
72.309
 51
90.0
  0
ARC
  8
APS_GEOMETRY
 10
51.044
 20
-532.022
 40
4.052
 50
90.0
 51
118.113
  0
ARC
  8
APS_GEOMETRY
 10
49.561
 20
-529.245
 40
0.904
 50
118.113
 51
180.0
  0
ARC
  8
APS_GEOMETRY
 10
101.394
 20
-546.229
 40
25.782
 50
71.91
 51
90.0
  0
ARC
  8
APS_GEOMETRY
 10
102.393
 20
-543.173
 40
22.566
 50
52.561
 51
71.91
  0
ARC
  8
APS_GEOMETRY
 10
102.131
 20
-543.249
 40
22.786
 50
38.846
 51
52.156
  0
ARC
  8
APS_GEOMETRY
 10
98.559
 20
-546.126
 40
27.372
 50
26.707
 51
38.846
  0
ARC
  8
APS_GEOMETRY
 10
99.266
 20
-545.548
 40
26.482
 50
13.868
 51
26.278
  0
ARC
  8
APS_GEOMETRY
 10
104.366
 20
-544.289
 40
21.229
 50
360.0
 51
13.868
  0
ARC
  8
APS_GEOMETRY
 10
104.696
 20
-544.289
 40
20.899
 50
339.712
 51
360.0
  0
ARC
  8
APS_GEOMETRY
 10
103.52
 20
-543.854
 40
22.153
 50
320.013
 51
339.712
  0
ARC
  8
APS_GEOMETRY
 10
103.325
 20
-543.746
 40
22.372
 50
303.344
 51
320.123
  0
ARC
  8
APS_GEOMETRY
 10
101.029
 20
-540.257
 40
26.548
 50
287.949
 51
303.344
  0
ARC
  8
APS_GEOMETRY
 10
100.275
 20
-537.642
 40
29.269
 50
279.039
 51
287.776
  0
ARC
  8
APS_GEOMETRY
 10
100.577
 20
-539.541
 40
27.346
 50
270.0
 51
279.039
  0
ARC
  8
APS_GEOMETRY
 10
100.577
 20
-540.876
 40
26.011
 50
257.728
 51
270.0
  0
ARC
  8
APS_GEOMETRY
 10
100.618
 20
-540.688
 40
26.203
 50
245.501
 51
257.728
  0
ARC
  8
APS_GEOMETRY
 10
99.145
 20
-543.911
 40
22.66
 50
228.665
 51
245.511
  0
ARC
  8
APS_GEOMETRY
 10
98.655
 20
-544.467
 40
21.918
 50
211.535
 51
228.665
  0
ARC
  8
APS_GEOMETRY
 10
99.297
 20
-543.996
 40
22.712
 50
195.642
 51
211.701
  0
ARC
  8
APS_GEOMETRY
 10
100.471
 20
-543.667
 40
23.931
 50
180.0
 51
195.642
  0
ARC
  8
APS_GEOMETRY
 10
100.723
 20
-543.667
 40
24.183
 50
162.181
 51
180.0
  0
ARC
  8
APS_GEOMETRY
 10
98.516
 20
-542.958
 40
21.865
 50
143.434
 51
162.181
  0
ARC
  8
APS_GEOMETRY
 10
98.219
 20
-542.72
 40
21.485
 50
126.384
 51
143.471
  0
ARC
  8
APS_GEOMETRY
 10
100.253
 20
-545.481
 40
24.914
 50
110.525
 51
126.384
  0
ARC
  8
APS_GEOMETRY
 10
100.153
 20
-544.731
 40
24.177
 50
99.77
 51
110.925
  0
ARC
  8
APS_GEOMETRY
 10
101.394
 20
-551.943
 40
31.496
 50
90.0
 51
99.77
  0
ARC
  8
APS_GEOMETRY
 10
98.288
 20
-534.641
 40
4.807
 50
90.0
 51
119.604
  0
ARC
  8
APS_GEOMETRY
 10
98.709
 20
-535.382
 40
5.659
 50
119.604
 51
146.842
  0
ARC
  8
APS_GEOMETRY
 10
99.555
 20
-536.076
 40
6.748
 50
145.84
 51
164.055
  0
ARC
  8
APS_GEOMETRY
 10
101.516
 20
-536.636
 40
8.788
 50
164.055
 51
180.0
  0
ARC
  8
APS_GEOMETRY
 10
113.781
 20
-536.636
 40
21.053
 50
180.0
 51
189.977
  0
ARC
  8
APS_GEOMETRY
 10
132.432
 20
-533.355
 40
39.991
 50
189.977
 51
197.211
  0
ARC
  8
APS_GEOMETRY
 10
136.512
 20
-532.091
 40
44.261
 50
197.211
 51
203.76
  0
ARC
  8
APS_GEOMETRY
 10
126.349
 20
-536.565
 40
33.157
 50
203.76
 51
211.329
  0
ARC
  8
APS_GEOMETRY
 10
105.481
 20
-549.089
 40
8.821
 50
212.32
 51
224.441
  0
ARC
  8
APS_GEOMETRY
 10
104.625
 20
-549.928
 40
7.623
 50
224.441
 51
237.484
  0
ARC
  8
APS_GEOMETRY
 10
104.073
 20
-550.795
 40
6.595
 50
237.484
 51
252.416
  0
ARC
  8
APS_GEOMETRY
 10
103.52
 20
-552.538
 40
4.766
 50
252.416
 51
270.0
  0
ARC
  8
APS_GEOMETRY
 10
103.52
 20
-551.973
 40
5.331
 50
270.0
 51
294.953
  0
ARC
  8
APS_GEOMETRY
 10
103.67
 20
-552.294
 40
4.977
 50
294.953
 51
320.793
  0
ARC
  8
APS_GEOMETRY
 10
102.869
 20
-551.641
 40
6.011
 50
320.793
 51
342.777
  0
ARC
  8
APS_GEOMETRY
 10
99.301
 20
-550.535
 40
9.746
 50
342.777
 51
0.0
  0
ARC
  8
APS_GEOMETRY
 10
82.54
 20
-550.535
 40
26.507
 50
0.0
 51
8.499
  0
ARC
  8
APS_GEOMETRY
 10
70.873
 20
-552.278
 40
38.304
 50
8.499
 51
15.566
  0
ARC
  8
APS_GEOMETRY
 10
72.275
 20
-551.888
 40
36.848
 50
15.566
 51
22.909
  0
ARC
  8
APS_GEOMETRY
 10
84.339
 20
-546.79
 40
23.751
 50
22.909
 51
32.057
  0
ARC
  8
APS_GEOMETRY
 10
93.815
 20
-540.82
 40
12.552
 50
31.921
 51
42.51
  0
ARC
  8
APS_GEOMETRY
 10
96.417
 20
-538.435
 40
9.022
 50
42.51
 51
55.008
  0
ARC
  8
APS_GEOMETRY
 10
97.296
 20
-537.179
 40
7.489
 50
55.008
 51
69.88
  0
ARC
  8
APS_GEOMETRY
 10
98.084
 20
-535.028
 40
5.198
 50
69.88
 51
87.754
  0
ARC
  8
APS_GEOMETRY
 10
151.908
 20
-549.652
 40
2.42
 50
90.0
 51
115.837
  0
ARC
  8
APS_GEOMETRY
 10
151.313
 20
-548.421
 40
1.053
 50
115.837
 51
155.462
  0
ARC
  8
APS_GEOMETRY
 10
152.008
 20
-548.739
 40
1.817
 50
155.462
 51
168.366
  0
ARC
  8
APS_GEOMETRY
 10
158.354
 20
-550.045
 40
8.296
 50
168.366
 51
174.395
  0
ARC
  8
APS_GEOMETRY
 10
164.749
 20
-550.673
 40
14.722
 50
174.395
 51
177.813
  0
ARC
  8
APS_GEOMETRY
 10
185.978
 20
-551.483
 40
35.966
 50
177.813
 51
180.0
  0
ARC
  8
APS_GEOMETRY
 10
201.346
 20
-551.483
 40
51.335
 50
180.0
 51
184.62
  0
ARC
  8
APS_GEOMETRY
 10
166.926
 20
-554.265
 40
16.803
 50
184.62
 51
192.7
  0
ARC
  8
APS_GEOMETRY
 10
153.656
 20
-557.178
 40
3.218
 50
194.036
 51
205.821
  0
ARC
  8
APS_GEOMETRY
 10
152.251
 20
-557.858
 40
1.656
 50
205.821
 51
222.274
  0
ARC
  8
APS_GEOMETRY
 10
152.681
 20
-557.467
 40
2.238
 50
222.274
 51
234.605
  0
ARC
  8
APS_GEOMETRY
 10
157.542
 20
-550.626
 40
10.63
 50
234.605
 51
240.255
  0
ARC
  8
APS_GEOMETRY
 10
150.153
 20
-563.701
 40
4.389
 50
34.592
 51
61.189
  0
ARC
  8
APS_GEOMETRY
 10
151.603
 20
-562.701
 40
2.627
 50
360.0
 51
34.592
  0
ARC
  8
APS_GEOMETRY
 10
151.691
 20
-562.701
 40
2.539
 50
318.231
 51
360.0
  0
ARC
  8
APS_GEOMETRY
 10
149.993
 20
-561.184
 40
4.816
 50
288.227
 51
318.231
  0
ARC
  8
APS_GEOMETRY
 10
148.232
 20
-555.836
 40
10.446
 50
280.377
 51
288.227
  0
ARC
  8
APS_GEOMETRY
 10
145.162
 20
-539.073
 40
27.489
 50
275.541
 51
280.377
  0
ARC
  8
APS_GEOMETRY
 10
143.839
 20
-525.435
 40
41.19
 50
272.304
 51
275.541
  0
ARC
  8
APS_GEOMETRY
 10
142.228
 20
-485.399
 40
81.259
 50
270.0
 51
272.304
  0
ARC
  8
APS_GEOMETRY
 10
142.228
 20
-518.858
 40
47.8
 50
262.811
 51
270.0
  0
ARC
  8
APS_GEOMETRY
 10
137.939
 20
-552.864
 40
13.524
 50
249.274
 51
262.811
  0
ARC
  8
APS_GEOMETRY
 10
135.241
 20
-559.994
 40
5.901
 50
221.379
 51
249.274
  0
ARC
  8
APS_GEOMETRY
 10
132.874
 20
-562.079
 40
2.747
 50
180.0
 51
221.379
  0
ARC
  8
APS_GEOMETRY
 10
132.856
 20
-562.079
 40
2.728
 50
164.055
 51
180.0
  0
ARC
  8
APS_GEOMETRY
 10
131.719
 20
-561.754
 40
1.546
 50
142.815
 51
164.055
  0
ARC
  8
APS_GEOMETRY
 10
132.435
 20
-562.297
 40
2.444
 50
129.007
 51
142.815
  0
ARC
  8
APS_GEOMETRY
 10
141.227
 20
-573.152
 40
16.412
 50
123.69
 51
129.007
  0
ARC
  8
APS_GEOMETRY
 10
128.75
 20
-554.379
 40
6.128
 50
303.389
 51
319.022
  0
ARC
  8
APS_GEOMETRY
 10
130.409
 20
-555.82
 40
3.932
 50
319.022
 51
338.575
  0
ARC
  8
APS_GEOMETRY
 10
128.189
 20
-554.949
 40
6.316
 50
338.575
 51
351.049
  0
ARC
  8
APS_GEOMETRY
 10
101.383
 20
-550.726
 40
33.452
 50
351.049
 51
356.46
  0
ARC
  8
APS_GEOMETRY
 10
110.219
 20
-551.063
 40
24.613
 50
355.972
 51
358.68
  0
ARC
  8
APS_GEOMETRY
 10
-179.972
 20
-544.376
 40
314.881
 50
358.68
 51
359.437
  0
LINE
  8
APS_GEOMETRY
 10
134.894
 11
134.925
 20
-547.469
 21
-542.557
  0
LINE
  8
APS_GEOMETRY
 10
134.925
 11
134.935
 20
-542.557
 21
-536.146
  0
ARC
  8
APS_GEOMETRY
 10
59.126
 20
-536.146
 40
75.809
 50
0.0
 51
1.717
  0
ARC
  8
APS_GEOMETRY
 10
99.694
 20
-534.929
 40
35.223
 50
1.717
 51
4.236
  0
ARC
  8
APS_GEOMETRY
 10
112.924
 20
-533.949
 40
21.957
 50
4.236
 51
8.269
  0
ARC
  8
APS_GEOMETRY
 10
128.147
 20
-531.737
 40
6.573
 50
8.269
 51
15.642
  0
ARC
  8
APS_GEOMETRY
 10
130.767
 20
-531.003
 40
3.853
 50
15.642
 51
39.417
  0
ARC
  8
APS_GEOMETRY
 10
130.826
 20
-530.955
 40
3.776
 50
39.417
 51
63.435
  0
ARC
  8
APS_GEOMETRY
 10
137.628
 20
-516.865
 40
11.869
 50
236.874
 51
244.486
  0
ARC
  8
APS_GEOMETRY
 10
132.568
 20
-524.619
 40
2.611
 50
220.601
 51
236.874
  0
ARC
  8
APS_GEOMETRY
 10
131.988
 20
-525.116
 40
1.847
 50
198.246
 51
220.601
  0
ARC
  8
APS_GEOMETRY
 10
132.856
 20
-524.83
 40
2.761
 50
180.0
 51
198.246
  0
ARC
  8
APS_GEOMETRY
 10
132.843
 20
-524.83
 40
2.748
 50
156.161
 51
180.0
  0
ARC
  8
APS_GEOMETRY
 10
133.226
 20
-524.999
 40
3.167
 50
133.977
 51
156.161
  0
ARC
  8
APS_GEOMETRY
 10
133.989
 20
-525.791
 40
4.266
 50
116.996
 51
133.977
  0
ARC
  8
APS_GEOMETRY
 10
135.506
 20
-528.768
 40
7.608
 50
104.3
 51
116.996
  0
ARC
  8
APS_GEOMETRY
 10
135.898
 20
-530.274
 40
9.164
 50
95.326
 51
104.349
  0
ARC
  8
APS_GEOMETRY
 10
137.486
 20
-547.308
 40
26.272
 50
90.0
 51
95.326
  0
ARC
  8
APS_GEOMETRY
 10
137.486
 20
-534.05
 40
13.013
 50
87.553
 51
90.0
  0
ARC
  8
APS_GEOMETRY
 10
134.717
 20
-598.837
 40
77.86
 50
86.553
 51
87.553
  0
ARC
  8
APS_GEOMETRY
 10
130.781
 20
-664.184
 40
143.325
 50
86.009
 51
86.553
  0
ARC
  8
APS_GEOMETRY
 10
115.473
 20
-883.597
 40
363.271
 50
85.668
 51
86.009
  0
ARC
  8
APS_GEOMETRY
 10
144.121
 20
-506.286
 40
15.125
 50
265.426
 51
268.531
  0
ARC
  8
APS_GEOMETRY
 10
145.466
 20
-453.843
 40
67.586
 50
268.531
 51
270.0
  0
ARC
  8
APS_GEOMETRY
 10
145.466
 20
-469.918
 40
51.511
 50
270.0
 51
271.637
  0
ARC
  8
APS_GEOMETRY
 10
144.315
 20
-429.634
 40
91.812
 50
271.637
 51
272.862
  0
ARC
  8
APS_GEOMETRY
 10
142.993
 20
-403.204
 40
118.274
 50
272.862
 51
273.814
  0
ARC
  8
APS_GEOMETRY
 10
138.52
 20
-336.1
 40
185.527
 50
273.814
 51
274.574
  0
ARC
  8
APS_GEOMETRY
 10
166.582
 20
-701.091
 40
180.543
 50
93.72
 51
94.214
  0
ARC
  8
APS_GEOMETRY
 10
160.593
 20
-608.973
 40
88.23
 50
93.013
 51
93.72
  0
ARC
  8
APS_GEOMETRY
 10
158.951
 20
-577.777
 40
56.991
 50
91.918
 51
93.013
  0
ARC
  8
APS_GEOMETRY
 10
157.664
 20
-539.362
 40
18.554
 50
90.0
 51
91.918
  0
ARC
  8
APS_GEOMETRY
 10
157.664
 20
-544.916
 40
24.109
 50
73.82
 51
90.0
  0
ARC
  8
APS_GEOMETRY
 10
160.04
 20
-536.727
 40
15.581
 50
53.658
 51
73.82
  0
ARC
  8
APS_GEOMETRY
 10
163.42
 20
-532.107
 40
9.857
 50
26.03
 51
53.569
  0
ARC
  8
APS_GEOMETRY
 10
162.383
 20
-532.614
 40
11.012
 50
360.0
 51
26.03
  0
ARC
  8
APS_GEOMETRY
 10
161.951
 20
-532.614
 40
11.443
 50
345.282
 51
360.0
  0
ARC
  8
APS_GEOMETRY
 10
163.052
 20
-532.903
 40
10.305
 50
329.767
 51
345.282
  0
ARC
  8
APS_GEOMETRY
 10
163.676
 20
-533.266
 40
9.583
 50
313.168
 51
329.767
  0
ARC
  8
APS_GEOMETRY
 10
163.907
 20
-533.512
 40
9.246
 50
296.267
 51
313.168
  0
ARC
  8
APS_GEOMETRY
 10
169.17
 20
-544.146
 40
2.62
 50
116.565
 51
139.899
  0
ARC
  8
APS_GEOMETRY
 10
167.863
 20
-543.046
 40
0.911
 50
139.899
 51
180.0
  0
ARC
  8
APS_GEOMETRY
 10
167.965
 20
-543.046
 40
1.013
 50
180.0
 51
226.193
  0
ARC
  8
APS_GEOMETRY
 10
169.836
 20
-541.095
 40
3.715
 50
226.193
 51
249.829
  0
ARC
  8
APS_GEOMETRY
 10
164.474
 20
-555.857
 40
11.989
 50
53.249
 51
70.105
  0
ARC
  8
APS_GEOMETRY
 10
166.91
 20
-552.596
 40
7.919
 50
32.471
 51
53.249
  0
ARC
  8
APS_GEOMETRY
 10
165.775
 20
-553.318
 40
9.264
 50
23.305
 51
32.471
  0
ARC
  8
APS_GEOMETRY
 10
158.765
 20
-556.338
 40
16.897
 50
16.521
 51
23.305
  0
ARC
  8
APS_GEOMETRY
 10
153.299
 20
-557.959
 40
22.598
 50
11.429
 51
16.521
  0
ARC
  8
APS_GEOMETRY
 10
137.809
 20
-561.09
 40
38.401
 50
7.524
 51
11.429
  0
ARC
  8
APS_GEOMETRY
 10
189.137
 20
-554.254
 40
13.38
 50
187.765
 51
196.914
  0
ARC
  8
APS_GEOMETRY
 10
178.194
 20
-557.582
 40
1.942
 50
196.914
 51
221.082
  0
ARC
  8
APS_GEOMETRY
 10
178.236
 20
-557.546
 40
1.997
 50
221.082
 51
244.607
  0
ARC
  8
APS_GEOMETRY
 10
182.909
 20
-547.7
 40
12.896
 50
244.607
 51
253.811
  0
ARC
  8
APS_GEOMETRY
 10
178.8
 20
-561.71
 40
1.705
 50
51.45
 51
72.474
  0
ARC
  8
APS_GEOMETRY
 10
178.379
 20
-562.24
 40
2.382
 50
33.69
 51
51.45
  0
ARC
  8
APS_GEOMETRY
 10
178.28
 20
-562.305
 40
2.5
 50
16.639
 51
33.69
  0
ARC
  8
APS_GEOMETRY
 10
178.161
 20
-562.341
 40
2.625
 50
360.0
 51
16.639
  0
ARC
  8
APS_GEOMETRY
 10
178.124
 20
-562.341
 40
2.662
 50
338.993
 51
360.0
  0
ARC
  8
APS_GEOMETRY
 10
176.499
 20
-561.717
 40
4.402
 50
322.696
 51
338.993
  0
ARC
  8
APS_GEOMETRY
 10
175.893
 20
-561.256
 40
5.164
 50
308.603
 51
322.696
  0
ARC
  8
APS_GEOMETRY
 10
175.477
 20
-560.734
 40
5.831
 50
295.346
 51
308.603
  0
ARC
  8
APS_GEOMETRY
 10
173.285
 20
-555.908
 40
11.131
 50
279.583
 51
294.905
  0
ARC
  8
APS_GEOMETRY
 10
170.418
 20
-538.926
 40
28.353
 50
270.0
 51
279.583
  0
ARC
  8
APS_GEOMETRY
 10
170.418
 20
-546.608
 40
20.672
 50
261.247
 51
270.0
  0
ARC
  8
APS_GEOMETRY
 10
169.094
 20
-555.208
 40
11.97
 50
249.737
 51
261.247
  0
ARC
  8
APS_GEOMETRY
 10
168.224
 20
-557.566
 40
9.457
 50
235.345
 51
249.737
  0
ARC
  8
APS_GEOMETRY
 10
167.125
 20
-559.156
 40
7.524
 50
219.198
 51
235.345
  0
ARC
  8
APS_GEOMETRY
 10
169.438
 20
-557.184
 40
10.563
 50
209.076
 51
219.56
  0
ARC
  8
APS_GEOMETRY
 10
174.778
 20
-554.214
 40
16.674
 50
200.735
 51
209.076
  0
ARC
  8
APS_GEOMETRY
 10
182.148
 20
-551.424
 40
24.554
 50
197.881
 51
200.735
  0
ARC
  8
APS_GEOMETRY
 10
212.43
 20
-541.654
 40
56.372
 50
195.997
 51
197.881
  0
ARC
  8
APS_GEOMETRY
 10
234.811
 20
-535.238
 40
79.656
 50
194.664
 51
195.997
  0
ARC
  8
APS_GEOMETRY
 10
296.807
 20
-519.015
 40
143.738
 50
193.671
 51
194.664
  0
ARC
  8
APS_GEOMETRY
 10
139.596
 20
-557.236
 40
18.051
 50
13.61
 51
23.585
  0
ARC
  8
APS_GEOMETRY
 10
151.416
 20
-552.076
 40
5.155
 50
23.585
 51
42.31
  0
ARC
  8
APS_GEOMETRY
 10
152.488
 20
-551.1
 40
3.705
 50
42.31
 51
67.521
  0
ARC
  8
APS_GEOMETRY
 10
151.639
 20
-553.15
 40
5.924
 50
67.521
 51
87.397
  0
LINE
  8
APS_GEOMETRY
 10
150.044
 11
149.684
 20
-530.553
 21
-538.173
  0
LINE
  8
APS_GEOMETRY
 10
149.684
 11
149.684
 20
-538.173
 21
-538.296
  0
LINE
  8
APS_GEOMETRY
 10
149.684
 11
149.684
 20
-538.296
 21
-538.468
  0
ARC
  8
APS_GEOMETRY
 10
154.979
 20
-538.468
 40
5.294
 50
180.0
 51
192.339
  0
ARC
  8
APS_GEOMETRY
 10
150.77
 20
-539.388
 40
0.986
 50
192.339
 51
221.186
  0
ARC
  8
APS_GEOMETRY
 10
150.669
 20
-539.476
 40
0.852
 50
221.186
 51
253.872
  0
ARC
  8
APS_GEOMETRY
 10
151.385
 20
-537.0
 40
3.429
 50
253.872
 51
270.0
  0
ARC
  8
APS_GEOMETRY
 10
151.385
 20
-532.459
 40
7.971
 50
270.0
 51
289.569
  0
ARC
  8
APS_GEOMETRY
 10
152.834
 20
-536.536
 40
3.644
 50
289.569
 51
318.681
  0
ARC
  8
APS_GEOMETRY
 10
152.442
 20
-536.191
 40
4.166
 50
318.681
 51
344.628
  0
ARC
  8
APS_GEOMETRY
 10
145.139
 20
-534.183
 40
11.74
 50
344.628
 51
0.0
  0
ARC
  8
APS_GEOMETRY
 10
148.611
 20
-534.183
 40
8.268
 50
0.0
 51
35.369
  0
ARC
  8
APS_GEOMETRY
 10
152.399
 20
-531.495
 40
3.623
 50
35.369
 51
90.0
  0
ARC
  8
APS_GEOMETRY
 10
152.399
 20
-531.535
 40
3.663
 50
90.0
 51
108.435
  0
ARC
  8
APS_GEOMETRY
 10
151.686
 20
-529.397
 40
1.409
 50
108.435
 51
138.366
  0
ARC
  8
APS_GEOMETRY
 10
151.877
 20
-529.567
 40
1.665
 50
138.366
 51
164.291
  0
ARC
  8
APS_GEOMETRY
 10
156.362
 20
-530.828
 40
6.324
 50
164.291
 51
177.51
  0
LINE
  8
APS_GEOMETRY
 10
200.558
 11
217.793
 20
-521.364
 21
-521.364
  0
ARC
  8
APS_GEOMETRY
 10
216.921
 20
-496.668
 40
24.711
 50
272.021
 51
278.44
  0
ARC
  8
APS_GEOMETRY
 10
217.894
 20
-503.224
 40
18.083
 50
278.44
 51
285.945
  0
ARC
  8
APS_GEOMETRY
 10
225.211
 20
-529.421
 40
9.118
 50
98.584
 51
104.931
  0
ARC
  8
APS_GEOMETRY
 10
224.595
 20
-525.34
 40
4.991
 50
90.0
 51
98.584
  0
ARC
  8
APS_GEOMETRY
 10
224.595
 20
-524.101
 40
3.752
 50
52.871
 51
90.0
  0
ARC
  8
APS_GEOMETRY
 10
219.506
 20
-530.823
 40
12.182
 50
32.518
 51
52.871
  0
ARC
  8
APS_GEOMETRY
 10
215.475
 20
-533.393
 40
16.963
 50
17.209
 51
32.518
  0
ARC
  8
APS_GEOMETRY
 10
218.835
 20
-532.352
 40
13.445
 50
360.0
 51
17.209
  0
ARC
  8
APS_GEOMETRY
 10
225.563
 20
-532.352
 40
6.717
 50
337.348
 51
360.0
  0
ARC
  8
APS_GEOMETRY
 10
228.263
 20
-533.479
 40
3.792
 50
307.042
 51
337.348
  0
ARC
  8
APS_GEOMETRY
 10
227.794
 20
-532.834
 40
4.589
 50
287.186
 51
306.87
  0
ARC
  8
APS_GEOMETRY
 10
227.375
 20
-531.48
 40
6.006
 50
270.0
 51
287.186
  0
ARC
  8
APS_GEOMETRY
 10
227.375
 20
-532.093
 40
5.393
 50
252.221
 51
270.0
  0
ARC
  8
APS_GEOMETRY
 10
227.124
 20
-532.876
 40
4.571
 50
232.896
 51
252.221
  0
ARC
  8
APS_GEOMETRY
 10
228.094
 20
-531.593
 40
6.18
 50
218.3
 51
232.896
  0
ARC
  8
APS_GEOMETRY
 10
235.675
 20
-525.606
 40
15.839
 50
209.197
 51
218.3
  0
ARC
  8
APS_GEOMETRY
 10
197.121
 20
-546.494
 40
28.012
 50
28.025
 51
32.699
  0
ARC
  8
APS_GEOMETRY
 10
217.277
 20
-533.555
 40
4.06
 50
32.699
 51
45.0
  0
ARC
  8
APS_GEOMETRY
 10
218.651
 20
-532.18
 40
2.116
 50
45.0
 51
67.557
  0
ARC
  8
APS_GEOMETRY
 10
218.643
 20
-532.2
 40
2.137
 50
67.557
 51
90.0
  0
ARC
  8
APS_GEOMETRY
 10
218.643
 20
-532.031
 40
1.969
 50
90.0
 51
120.801
  0
ARC
  8
APS_GEOMETRY
 10
218.576
 20
-531.92
 40
1.839
 50
120.801
 51
152.7
  0
ARC
  8
APS_GEOMETRY
 10
220.035
 20
-532.673
 40
3.481
 50
152.7
 51
171.085
  0
ARC
  8
APS_GEOMETRY
 10
231.124
 20
-534.412
 40
14.705
 50
171.085
 51
180.0
  0
LINE
  8
APS_GEOMETRY
 10
216.419
 11
216.419
 20
-534.412
 21
-552.726
  0
ARC
  8
APS_GEOMETRY
 10
235.846
 20
-552.726
 40
19.427
 50
180.0
 51
188.194
  0
ARC
  8
APS_GEOMETRY
 10
221.339
 20
-554.815
 40
4.77
 50
188.194
 51
204.775
  0
ARC
  8
APS_GEOMETRY
 10
219.929
 20
-555.466
 40
3.218
 50
204.775
 51
228.576
  0
ARC
  8
APS_GEOMETRY
 10
221.252
 20
-553.967
 40
5.216
 50
228.576
 51
247.218
  0
ARC
  8
APS_GEOMETRY
 10
213.583
 20
-572.039
 40
14.416
 50
59.381
 51
66.93
  0
ARC
  8
APS_GEOMETRY
 10
219.244
 20
-562.474
 40
3.301
 50
43.568
 51
59.381
  0
ARC
  8
APS_GEOMETRY
 10
220.149
 20
-561.612
 40
2.051
 50
19.041
 51
43.568
  0
ARC
  8
APS_GEOMETRY
 10
218.891
 20
-562.047
 40
3.382
 50
360.0
 51
19.041
  0
ARC
  8
APS_GEOMETRY
 10
219.526
 20
-562.047
 40
2.747
 50
317.66
 51
360.0
  0
ARC
  8
APS_GEOMETRY
 10
217.003
 20
-559.748
 40
6.16
 50
289.747
 51
317.66
  0
ARC
  8
APS_GEOMETRY
 10
214.891
 20
-553.864
 40
12.412
 50
281.964
 51
289.747
  0
ARC
  8
APS_GEOMETRY
 10
211.964
 20
-540.052
 40
26.531
 50
276.643
 51
281.964
  0
ARC
  8
APS_GEOMETRY
 10
210.732
 20
-529.476
 40
37.178
 50
272.836
 51
276.643
  0
ARC
  8
APS_GEOMETRY
 10
209.257
 20
-499.7
 40
66.99
 50
270.0
 51
272.836
  0
ARC
  8
APS_GEOMETRY
 10
209.257
 20
-481.25
 40
85.44
 50
267.283
 51
270.0
  0
ARC
  8
APS_GEOMETRY
 10
207.463
 20
-519.053
 40
47.595
 50
263.643
 51
267.283
  0
ARC
  8
APS_GEOMETRY
 10
205.961
 20
-532.537
 40
34.027
 50
258.563
 51
263.643
  0
ARC
  8
APS_GEOMETRY
 10
202.372
 20
-550.277
 40
15.929
 50
251.136
 51
258.563
  0
ARC
  8
APS_GEOMETRY
 10
199.168
 20
-559.569
 40
6.099
 50
222.558
 51
251.395
  0
ARC
  8
APS_GEOMETRY
 10
196.791
 20
-561.752
 40
2.871
 50
180.0
 51
222.558
  0
ARC
  8
APS_GEOMETRY
 10
196.311
 20
-561.752
 40
2.392
 50
150.642
 51
180.0
  0
ARC
  8
APS_GEOMETRY
 10
196.503
 20
-561.86
 40
2.612
 50
122.574
 51
150.642
  0
ARC
  8
APS_GEOMETRY
 10
195.996
 20
-561.278
 40
1.851
 50
108.677
 51
119.055
  0
ARC
  8
APS_GEOMETRY
 10
219.111
 20
-629.661
 40
74.036
 50
107.038
 51
108.677
  0
ARC
  8
APS_GEOMETRY
 10
196.557
 20
-555.898
 40
3.099
 50
286.144
 51
308.66
  0
ARC
  8
APS_GEOMETRY
 10
197.064
 20
-556.532
 40
2.287
 50
308.66
 51
334.933
  0
ARC
  8
APS_GEOMETRY
 10
195.0
 20
-555.566
 40
4.566
 50
334.933
 51
348.829
  0
ARC
  8
APS_GEOMETRY
 10
169.174
 20
-550.466
 40
30.891
 50
348.829
 51
354.161
  0
ARC
  8
APS_GEOMETRY
 10
151.718
 20
-548.667
 40
48.439
 50
354.144
 51
355.66
  0
ARC
  8
APS_GEOMETRY
 10
74.341
 20
-542.795
 40
126.038
 50
355.66
 51
356.6
  0
ARC
  8
APS_GEOMETRY
 10
15.192
 20
-539.281
 40
185.291
 50
356.6
 51
357.24
  0
ARC
  8
APS_GEOMETRY
 10
-152.633
 20
-531.19
 40
353.311
 50
357.24
 51
357.703
  0
ARC
  8
APS_GEOMETRY
 10
-136.112
 20
-531.853
 40
336.777
 50
357.703
 51
358.674
  0
ARC
  8
APS_GEOMETRY
 10
19.72
 20
-535.459
 40
180.903
 50
358.674
 51
0.0
  0
ARC
  8
APS_GEOMETRY
 10
173.813
 20
-535.459
 40
26.81
 50
0.0
 51
6.242
  0
ARC
  8
APS_GEOMETRY
 10
195.133
 20
-533.127
 40
5.364
 50
6.242
 51
20.225
  0
ARC
  8
APS_GEOMETRY
 10
198.087
 20
-532.038
 40
2.215
 50
20.225
 51
50.44
  0
ARC
  8
APS_GEOMETRY
 10
198.661
 20
-531.344
 40
1.314
 50
50.44
 51
90.0
  0
ARC
  8
APS_GEOMETRY
 10
198.661
 20
-531.792
 40
1.762
 50
90.0
 51
126.747
  0
ARC
  8
APS_GEOMETRY
 10
201.151
 20
-535.127
 40
5.924
 50
126.747
 51
146.547
  0
ARC
  8
APS_GEOMETRY
 10
157.163
 20
-506.214
 40
46.715
 50
324.255
 51
326.701
  0
ARC
  8
APS_GEOMETRY
 10
175.786
 20
-519.618
 40
23.77
 50
320.826
 51
324.255
  0
ARC
  8
APS_GEOMETRY
 10
181.873
 20
-524.578
 40
15.918
 50
315.722
 51
320.826
  0
ARC
  8
APS_GEOMETRY
 10
188.867
 20
-531.398
 40
6.149
 50
307.504
 51
315.722
  0
ARC
  8
APS_GEOMETRY
 10
188.222
 20
-530.537
 40
7.226
 50
291.306
 51
307.405
  0
ARC
  8
APS_GEOMETRY
 10
189.341
 20
-533.406
 40
4.146
 50
270.0
 51
291.306
  0
ARC
  8
APS_GEOMETRY
 10
189.341
 20
-533.673
 40
3.879
 50
245.532
 51
270.0
  0
ARC
  8
APS_GEOMETRY
 10
189.311
 20
-533.737
 40
3.808
 50
220.833
 51
245.532
  0
ARC
  8
APS_GEOMETRY
 10
189.704
 20
-533.398
 40
4.328
 50
198.684
 51
220.833
  0
ARC
  8
APS_GEOMETRY
 10
191.346
 20
-532.843
 40
6.06
 50
180.0
 51
198.684
  0
ARC
  8
APS_GEOMETRY
 10
195.193
 20
-532.843
 40
9.908
 50
168.408
 51
180.0
  0
ARC
  8
APS_GEOMETRY
 10
201.546
 20
-534.146
 40
16.393
 50
159.402
 51
168.408
  0
ARC
  8
APS_GEOMETRY
 10
203.509
 20
-534.883
 40
18.49
 50
151.39
 51
159.402
  0
ARC
  8
APS_GEOMETRY
 10
203.107
 20
-534.664
 40
18.032
 50
143.276
 51
151.39
  0
ARC
  8
APS_GEOMETRY
 10
198.057
 20
-530.888
 40
11.726
 50
124.216
 51
143.31
  0
ARC
  8
APS_GEOMETRY
 10
193.559
 20
-524.274
 40
3.728
 50
90.0
 51
124.216
  0
ARC
  8
APS_GEOMETRY
 10
193.559
 20
-525.93
 40
5.384
 50
82.725
 51
90.0
  0
ARC
  8
APS_GEOMETRY
 10
193.139
 20
-529.226
 40
8.707
 50
77.005
 51
82.725
  0
ARC
  8
APS_GEOMETRY
 10
205.987
 20
-467.279
 40
54.561
 50
258.486
 51
260.378
  0
ARC
  8
APS_GEOMETRY
 10
200.483
 20
-499.744
 40
21.633
 50
260.378
 51
263.382
  0
ARC
  8
APS_GEOMETRY
 10
200.012
 20
-503.802
 40
17.548
 50
263.382
 51
267.084
  0
ARC
  8
APS_GEOMETRY
 10
200.558
 20
-493.091
 40
28.273
 50
267.084
 51
270.0
  0
LINE
  8
APS_GEOMETRY
 10
243.975
 11
260.785
 20
-521.364
 21
-521.364
  0
ARC
  8
APS_GEOMETRY
 10
260.785
 20
-309.644
 40
211.72
 50
270.0
 51
270.69
  0
ARC
  8
APS_GEOMETRY
 10
261.978
 20
-408.7
 40
112.656
 50
270.69
 51
271.637
  0
ARC
  8
APS_GEOMETRY
 10
262.984
 20
-443.894
 40
77.448
 50
271.637
 51
273.013
  0
ARC
  8
APS_GEOMETRY
 10
265.434
 20
-490.457
 40
30.821
 50
273.013
 51
275.194
  0
ARC
  8
APS_GEOMETRY
 10
266.042
 20
-497.138
 40
24.112
 50
275.194
 51
280.756
  0
ARC
  8
APS_GEOMETRY
 10
266.156
 20
-497.739
 40
23.5
 50
280.756
 51
286.39
  0
ARC
  8
APS_GEOMETRY
 10
274.77
 20
-527.224
 40
7.217
 50
100.305
 51
105.945
  0
ARC
  8
APS_GEOMETRY
 10
273.866
 20
-522.255
 40
2.166
 50
90.0
 51
100.305
  0
ARC
  8
APS_GEOMETRY
 10
273.866
 20
-523.028
 40
2.94
 50
58.946
 51
90.0
  0
ARC
  8
APS_GEOMETRY
 10
272.742
 20
-524.895
 40
5.119
 50
35.538
 51
58.946
  0
ARC
  8
APS_GEOMETRY
 10
268.353
 20
-528.124
 40
10.568
 50
16.699
 51
35.952
  0
ARC
  8
APS_GEOMETRY
 10
265.052
 20
-529.114
 40
14.014
 50
360.0
 51
16.699
  0
ARC
  8
APS_GEOMETRY
 10
271.202
 20
-529.114
 40
7.864
 50
344.982
 51
360.0
  0
ARC
  8
APS_GEOMETRY
 10
274.977
 20
-530.127
 40
3.956
 50
323.746
 51
344.982
  0
ARC
  8
APS_GEOMETRY
 10
275.815
 20
-530.742
 40
2.916
 50
296.114
 51
323.746
  0
ARC
  8
APS_GEOMETRY
 10
275.665
 20
-530.435
 40
3.258
 50
270.0
 51
296.114
  0
ARC
  8
APS_GEOMETRY
 10
275.665
 20
-529.608
 40
4.084
 50
255.311
 51
270.0
  0
ARC
  8
APS_GEOMETRY
 10
275.119
 20
-531.692
 40
1.931
 50
233.881
 51
255.311
  0
ARC
  8
APS_GEOMETRY
 10
275.694
 20
-530.904
 40
2.906
 50
219.289
 51
233.881
  0
ARC
  8
APS_GEOMETRY
 10
287.224
 20
-521.47
 40
17.803
 50
213.408
 51
219.289
  0
ARC
  8
APS_GEOMETRY
 10
265.622
 20
-535.699
 40
8.063
 50
33.294
 51
51.246
  0
ARC
  8
APS_GEOMETRY
 10
266.72
 20
-534.331
 40
6.309
 50
51.246
 51
71.565
  0
ARC
  8
APS_GEOMETRY
 10
265.994
 20
-536.508
 40
8.604
 50
71.565
 51
79.278
  0
ARC
  8
APS_GEOMETRY
 10
263.666
 20
-548.804
 40
21.118
 50
79.278
 51
84.2
  0
ARC
  8
APS_GEOMETRY
 10
262.673
 20
-558.582
 40
30.947
 50
84.2
 51
87.567
  0
ARC
  8
APS_GEOMETRY
 10
261.472
 20
-586.861
 40
59.251
 50
87.567
 51
90.0
  0
ARC
  8
APS_GEOMETRY
 10
261.472
 20
-544.266
 40
16.656
 50
90.0
 51
96.374
  0
ARC
  8
APS_GEOMETRY
 10
260.366
 20
-534.37
 40
6.698
 50
96.374
 51
106.434
  0
ARC
  8
APS_GEOMETRY
 10
259.58
 20
-531.706
 40
3.921
 50
106.434
 51
123.056
  0
ARC
  8
APS_GEOMETRY
 10
258.354
 20
-529.822
 40
1.673
 50
123.056
 51
148.627
  0
ARC
  8
APS_GEOMETRY
 10
259.474
 20
-530.457
 40
2.96
 50
149.421
 51
165.28
  0
ARC
  8
APS_GEOMETRY
 10
262.703
 20
-531.305
 40
6.298
 50
165.28
 51
176.135
  0
ARC
  8
APS_GEOMETRY
 10
271.945
 20
-531.929
 40
15.562
 50
176.135
 51
178.367
  0
ARC
  8
APS_GEOMETRY
 10
357.451
 20
-534.368
 40
101.103
 50
178.367
 51
179.242
  0
ARC
  8
APS_GEOMETRY
 10
445.82
 20
-535.537
 40
189.479
 50
179.242
 51
179.709
  0
ARC
  8
APS_GEOMETRY
 10
746.469
 20
-537.061
 40
490.132
 50
179.709
 51
180.0
  0
ARC
  8
APS_GEOMETRY
 10
263.428
 20
-537.061
 40
7.091
 50
180.0
 51
195.027
  0
ARC
  8
APS_GEOMETRY
 10
257.629
 20
-538.618
 40
1.086
 50
195.027
 51
234.058
  0
ARC
  8
APS_GEOMETRY
 10
257.685
 20
-538.54
 40
1.183
 50
234.058
 51
253.191
  0
ARC
  8
APS_GEOMETRY
 10
258.923
 20
-534.444
 40
5.461
 50
253.191
 51
262.063
  0
ARC
  8
APS_GEOMETRY
 10
259.556
 20
-529.899
 40
10.05
 50
262.063
 51
266.949
  0
ARC
  8
APS_GEOMETRY
 10
260.392
 20
-514.217
 40
25.755
 50
266.949
 51
270.0
  0
ARC
  8
APS_GEOMETRY
 10
260.392
 20
-535.25
 40
4.722
 50
270.0
 51
286.007
  0
ARC
  8
APS_GEOMETRY
 10
261.219
 20
-538.131
 40
1.725
 50
286.007
 51
312.647
  0
ARC
  8
APS_GEOMETRY
 10
261.201
 20
-538.112
 40
1.75
 50
312.647
 51
338.993
  0
ARC
  8
APS_GEOMETRY
 10
257.627
 20
-536.739
 40
5.58
 50
338.993
 51
353.66
  0
ARC
  8
APS_GEOMETRY
 10
294.546
 20
-541.142
 40
31.601
 50
169.663
 51
173.118
  0
ARC
  8
APS_GEOMETRY
 10
268.156
 20
-536.329
 40
4.776
 50
160.769
 51
169.663
  0
ARC
  8
APS_GEOMETRY
 10
265.949
 20
-535.559
 40
2.439
 50
143.746
 51
160.769
  0
ARC
  8
APS_GEOMETRY
 10
266.482
 20
-535.95
 40
3.1
 50
128.66
 51
143.746
  0
ARC
  8
APS_GEOMETRY
 10
266.127
 20
-535.374
 40
2.429
 50
110.171
 51
130.601
  0
ARC
  8
APS_GEOMETRY
 10
266.148
 20
-535.432
 40
2.492
 50
90.0
 51
110.171
  0
ARC
  8
APS_GEOMETRY
 10
266.148
 20
-535.468
 40
2.527
 50
61.22
 51
90.0
  0
ARC
  8
APS_GEOMETRY
 10
265.707
 20
-536.271
 40
3.443
 50
36.634
 51
61.22
  0
ARC
  8
APS_GEOMETRY
 10
265.293
 20
-536.517
 40
3.923
 50
19.103
 51
35.91
  0
ARC
  8
APS_GEOMETRY
 10
252.498
 20
-540.948
 40
17.463
 50
11.16
 51
19.103
  0
ARC
  8
APS_GEOMETRY
 10
245.813
 20
-542.267
 40
24.277
 50
5.396
 51
11.16
  0
ARC
  8
APS_GEOMETRY
 10
242.413
 20
-542.588
 40
27.692
 50
0.0
 51
5.396
  0
ARC
  8
APS_GEOMETRY
 10
242.895
 20
-542.588
 40
27.21
 50
349.287
 51
0.0
  0
ARC
  8
APS_GEOMETRY
 10
256.253
 20
-545.115
 40
13.615
 50
334.12
 51
349.287
  0
ARC
  8
APS_GEOMETRY
 10
265.455
 20
-549.562
 40
3.396
 50
303.53
 51
333.853
  0
ARC
  8
APS_GEOMETRY
 10
265.788
 20
-550.066
 40
2.791
 50
270.0
 51
303.53
  0
ARC
  8
APS_GEOMETRY
 10
265.788
 20
-549.935
 40
2.922
 50
249.578
 51
270.0
  0
ARC
  8
APS_GEOMETRY
 10
265.167
 20
-551.605
 40
1.14
 50
216.607
 51
249.578
  0
ARC
  8
APS_GEOMETRY
 10
265.761
 20
-551.163
 40
1.881
 50
195.422
 51
216.607
  0
ARC
  8
APS_GEOMETRY
 10
276.023
 20
-548.332
 40
12.526
 50
187.253
 51
195.422
  0
ARC
  8
APS_GEOMETRY
 10
259.451
 20
-550.464
 40
4.183
 50
7.561
 51
49.434
  0
ARC
  8
APS_GEOMETRY
 10
259.28
 20
-550.663
 40
4.445
 50
49.434
 51
90.0
  0
ARC
  8
APS_GEOMETRY
 10
259.28
 20
-549.209
 40
2.991
 50
90.0
 51
115.224
  0
ARC
  8
APS_GEOMETRY
 10
258.689
 20
-547.953
 40
1.603
 50
115.224
 51
149.931
  0
ARC
  8
APS_GEOMETRY
 10
259.758
 20
-548.572
 40
2.838
 50
149.931
 51
171.111
  0
ARC
  8
APS_GEOMETRY
 10
272.726
 20
-550.601
 40
15.963
 50
171.111
 51
180.0
  0
ARC
  8
APS_GEOMETRY
 10
285.501
 20
-550.601
 40
28.739
 50
180.0
 51
183.062
  0
ARC
  8
APS_GEOMETRY
 10
329.489
 20
-548.247
 40
72.789
 50
183.062
 51
184.986
  0
ARC
  8
APS_GEOMETRY
 10
306.416
 20
-550.26
 40
49.629
 50
184.986
 51
187.804
  0
ARC
  8
APS_GEOMETRY
 10
262.715
 20
-556.25
 40
5.52
 50
187.804
 51
196.26
  0
ARC
  8
APS_GEOMETRY
 10
258.861
 20
-557.41
 40
1.496
 50
194.931
 51
230.024
  0
ARC
  8
APS_GEOMETRY
 10
259.842
 20
-556.24
 40
3.022
 50
230.024
 51
254.511
  0
ARC
  8
APS_GEOMETRY
 10
261.034
 20
-551.94
 40
7.485
 50
254.511
 51
265.219
  0
ARC
  8
APS_GEOMETRY
 10
263.532
 20
-522.072
 40
37.456
 50
265.219
 51
270.0
  0
ARC
  8
APS_GEOMETRY
 10
263.532
 20
-526.032
 40
33.497
 50
270.0
 51
274.186
  0
ARC
  8
APS_GEOMETRY
 10
264.55
 20
-539.949
 40
19.543
 50
274.186
 51
279.668
  0
ARC
  8
APS_GEOMETRY
 10
265.387
 20
-544.856
 40
14.564
 50
279.668
 51
286.991
  0
ARC
  8
APS_GEOMETRY
 10
267.299
 20
-551.117
 40
8.018
 50
286.991
 51
296.866
  0
ARC
  8
APS_GEOMETRY
 10
267.697
 20
-551.901
 40
7.139
 50
296.866
 51
318.366
  0
ARC
  8
APS_GEOMETRY
 10
263.698
 20
-548.346
 40
12.489
 50
318.366
 51
334.581
  0
ARC
  8
APS_GEOMETRY
 10
290.027
 20
-560.972
 40
16.711
 50
147.08
 51
154.231
  0
ARC
  8
APS_GEOMETRY
 10
279.021
 20
-553.846
 40
3.599
 50
131.634
 51
147.08
  0
ARC
  8
APS_GEOMETRY
 10
278.2
 20
-552.923
 40
2.364
 50
108.875
 51
131.634
  0
ARC
  8
APS_GEOMETRY
 10
278.543
 20
-553.925
 40
3.423
 50
90.0
 51
108.875
  0
ARC
  8
APS_GEOMETRY
 10
278.543
 20
-553.23
 40
2.727
 50
62.628
 51
90.0
  0
ARC
  8
APS_GEOMETRY
 10
278.37
 20
-553.563
 40
3.103
 50
36.995
 51
62.628
  0
ARC
  8
APS_GEOMETRY
 10
277.597
 20
-554.146
 40
4.071
 50
16.728
 51
36.995
  0
ARC
  8
APS_GEOMETRY
 10
275.791
 20
-554.688
 40
5.956
 50
360.0
 51
16.728
  0
ARC
  8
APS_GEOMETRY
 10
272.216
 20
-554.688
 40
9.532
 50
348.323
 51
360.0
  0
ARC
  8
APS_GEOMETRY
 10
257.907
 20
-551.731
 40
24.143
 50
340.994
 51
348.323
  0
ARC
  8
APS_GEOMETRY
 10
254.513
 20
-550.562
 40
27.733
 50
334.592
 51
340.994
  0
ARC
  8
APS_GEOMETRY
 10
260.437
 20
-553.376
 40
21.175
 50
327.265
 51
334.592
  0
ARC
  8
APS_GEOMETRY
 10
267.317
 20
-557.432
 40
13.198
 50
320.133
 51
325.923
  0
ARC
  8
APS_GEOMETRY
 10
275.32
 20
-564.115
 40
2.771
 50
307.476
 51
320.133
  0
ARC
  8
APS_GEOMETRY
 10
276.021
 20
-565.03
 40
1.619
 50
286.429
 51
307.476
  0
ARC
  8
APS_GEOMETRY
 10
275.73
 20
-564.045
 40
2.646
 50
270.0
 51
286.429
  0
ARC
  8
APS_GEOMETRY
 10
275.73
 20
-560.987
 40
5.704
 50
263.774
 51
270.0
  0
ARC
  8
APS_GEOMETRY
 10
277.399
 20
-545.69
 40
21.092
 50
260.538
 51
263.774
  0
ARC
  8
APS_GEOMETRY
 10
269.93
 20
-587.836
 40
21.713
 50
79.38
 51
84.987
  0
ARC
  8
APS_GEOMETRY
 10
266.692
 20
-624.746
 40
58.766
 50
84.987
 51
88.394
  0
LINE
  8
APS_GEOMETRY
 10
268.339
 11
240.607
 20
-566.004
 21
-566.004
  0
ARC
  8
APS_GEOMETRY
 10
240.607
 20
-560.2
 40
5.804
 50
254.103
 51
270.0
  0
ARC
  8
APS_GEOMETRY
 10
239.789
 20
-563.07
 40
2.82
 50
231.216
 51
254.103
  0
ARC
  8
APS_GEOMETRY
 10
239.454
 20
-563.488
 40
2.284
 50
203.795
 51
231.216
  0
ARC
  8
APS_GEOMETRY
 10
240.126
 20
-563.191
 40
3.019
 50
180.0
 51
203.795
  0
ARC
  8
APS_GEOMETRY
 10
240.38
 20
-563.191
 40
3.273
 50
164.055
 51
180.0
  0
ARC
  8
APS_GEOMETRY
 10
238.364
 20
-562.615
 40
1.175
 50
137.291
 51
164.055
  0
ARC
  8
APS_GEOMETRY
 10
238.971
 20
-563.175
 40
2.001
 50
120.964
 51
137.291
  0
ARC
  8
APS_GEOMETRY
 10
245.471
 20
-574.01
 40
14.637
 50
114.944
 51
120.964
  0
ARC
  8
APS_GEOMETRY
 10
237.356
 20
-556.256
 40
4.886
 50
293.429
 51
305.72
  0
ARC
  8
APS_GEOMETRY
 10
238.7
 20
-558.125
 40
2.584
 50
305.72
 51
322.651
  0
ARC
  8
APS_GEOMETRY
 10
238.491
 20
-557.965
 40
2.846
 50
322.651
 51
338.11
  0
ARC
  8
APS_GEOMETRY
 10
234.433
 20
-556.335
 40
7.219
 50
338.11
 51
347.8
  0
ARC
  8
APS_GEOMETRY
 10
209.233
 20
-550.811
 40
33.018
 50
347.672
 51
352.051
  0
ARC
  8
APS_GEOMETRY
 10
184.84
 20
-547.405
 40
57.647
 50
352.051
 51
355.365
  0
ARC
  8
APS_GEOMETRY
 10
168.413
 20
-546.073
 40
74.128
 50
355.365
 51
357.943
  0
ARC
  8
APS_GEOMETRY
 10
126.003
 20
-544.55
 40
116.566
 50
357.943
 51
0.0
  0
ARC
  8
APS_GEOMETRY
 10
77.051
 20
-544.55
 40
165.518
 50
0.0
 51
2.183
  0
ARC
  8
APS_GEOMETRY
 10
176.026
 20
-540.777
 40
66.471
 50
2.183
 51
5.629
  0
ARC
  8
APS_GEOMETRY
 10
205.51
 20
-537.871
 40
36.844
 50
5.629
 51
11.805
  0
ARC
  8
APS_GEOMETRY
 10
234.126
 20
-531.89
 40
7.61
 50
11.805
 51
25.419
  0
ARC
  8
APS_GEOMETRY
 10
237.83
 20
-530.209
 40
3.544
 50
26.565
 51
38.157
  0
ARC
  8
APS_GEOMETRY
 10
239.474
 20
-528.916
 40
1.452
 50
38.157
 51
56.31
  0
ARC
  8
APS_GEOMETRY
 10
239.126
 20
-529.438
 40
2.079
 50
56.31
 51
69.193
  0
ARC
  8
APS_GEOMETRY
 10
234.246
 20
-542.28
 40
15.817
 50
69.193
 51
73.856
  0
ARC
  8
APS_GEOMETRY
 10
239.394
 20
-524.573
 40
2.623
 50
216.87
 51
253.393
  0
ARC
  8
APS_GEOMETRY
 10
239.356
 20
-524.601
 40
2.576
 50
180.0
 51
216.87
  0
ARC
  8
APS_GEOMETRY
 10
239.918
 20
-524.601
 40
3.138
 50
161.565
 51
180.0
  0
ARC
  8
APS_GEOMETRY
 10
239.805
 20
-524.563
 40
3.018
 50
142.765
 51
161.565
  0
ARC
  8
APS_GEOMETRY
 10
239.733
 20
-524.509
 40
2.928
 50
123.425
 51
142.765
  0
ARC
  8
APS_GEOMETRY
 10
239.798
 20
-524.608
 40
3.047
 50
104.47
 51
123.425
  0
ARC
  8
APS_GEOMETRY
 10
240.378
 20
-527.47
 40
5.965
 50
96.724
 51
102.995
  0
ARC
  8
APS_GEOMETRY
 10
242.179
 20
-542.745
 40
21.346
 50
93.411
 51
96.724
  0
ARC
  8
APS_GEOMETRY
 10
242.979
 20
-556.166
 40
34.791
 50
91.375
 51
93.411
  0
ARC
  8
APS_GEOMETRY
 10
243.975
 20
-597.666
 40
76.303
 50
90.0
 51
91.375
  0
LINE
  8
APS_GEOMETRY
 10
44.0
 11
44.0
 20
0.0
 21
2096.0
  0
LINE
  8
APS_GEOMETRY
 10
44.0
 11
836.0
 20
2096.0
 21
2096.0
  0
LINE
  8
APS_GEOMETRY
 10
836.0
 11
836.0
 20
2096.0
 21
0.0
  0
LINE
  8
APS_GEOMETRY
 10
44.0
 11
11.0
 20
2096.0
 21
2129.0
  0
LINE
  8
APS_GEOMETRY
 10
836.0
 11
869.0
 20
2096.0
 21
2129.0
  0
LINE
  8
APS_GEOMETRY
 10
869.0
 11
869.0
 20
0.0
 21
2129.0
  0
LINE
  8
APS_GEOMETRY
 10
869.0
 11
11.0
 20
2129.0
 21
2129.0
  0
LINE
  8
APS_GEOMETRY
 10
11.0
 11
11.0
 20
2129.0
 21
0.0
  0
LINE
  8
APS_GEOMETRY
 10
938.0
 11
938.0
 20
0.0
 21
2198.0
  0
LINE
  8
APS_GEOMETRY
 10
938.0
 11
-58.0
 20
2198.0
 21
2198.0
  0
LINE
  8
APS_GEOMETRY
 10
-58.0
 11
-58.0
 20
2198.0
 21
0.0
  0
LINE
  8
APS_GEOMETRY
 10
44.0
 11
11.0
 20
0.0
 21
0.0
  0
LINE
  8
APS_GEOMETRY
 10
836.0
 11
869.0
 20
0.0
 21
0.0
  0
LINE
  8
COSTRUZIONI
 10
-1.5
 11
-1.5
 20
-166.5
 21
-284.5
  0
LINE
  8
COSTRUZIONI
 10
-21.5
 11
-21.5
 20
-166.5
 21
-284.5
  0
LINE
  8
COSTRUZIONI
 10
-1.5
 11
-136.543
 20
-166.5
 21
-166.5
  0
LINE
  8
COSTRUZIONI
 10
-1.5
 11
-136.543
 20
-284.5
 21
-284.5
  0
LINE
  8
COSTRUZIONI
 10
-21.5
 11
-1.5
 20
-284.5
 21
-166.5
  0
LINE
  8
COSTRUZIONI
 10
-21.5
 11
-1.5
 20
-166.5
 21
-284.5
  0
LINE
  8
APS_GEOMETRY
 10
-54.5
 11
0.0
 20
-163.5
 21
-163.5
  0
LINE
  8
APS_GEOMETRY
 10
0.0
 11
0.0
 20
-163.5
 21
-166.5
  0
LINE
  8
APS_GEOMETRY
 10
0.0
 11
4.5
 20
-166.5
 21
-166.5
  0
LINE
  8
APS_GEOMETRY
 10
4.5
 11
4.5
 20
-166.5
 21
-177.0
  0
LINE
  8
APS_GEOMETRY
 10
4.5
 11
6.0
 20
-177.0
 21
-178.5
  0
LINE
  8
APS_GEOMETRY
 10
6.0
 11
8.5
 20
-178.5
 21
-178.5
  0
LINE
  8
APS_GEOMETRY
 10
8.5
 11
8.5
 20
-178.5
 21
-160.5
  0
ARC
  8
APS_GEOMETRY
 10
4.5
 20
-160.5
 40
4.0
 50
0.0
 51
90.0
  0
LINE
  8
APS_GEOMETRY
 10
4.5
 11
-56.5
 20
-156.5
 21
-156.5
  0
ARC
  8
APS_GEOMETRY
 10
-56.5
 20
-160.5
 40
4.0
 50
90.0
 51
180.0
  0
LINE
  8
APS_GEOMETRY
 10
-60.5
 11
-60.5
 20
-160.5
 21
-166.5
  0
LINE
  8
APS_GEOMETRY
 10
-60.5
 11
-54.5
 20
-166.5
 21
-166.5
  0
LINE
  8
APS_GEOMETRY
 10
-54.5
 11
-54.5
 20
-166.5
 21
-163.5
  0
LINE
  8
APS_GEOMETRY
 10
-52.0
 11
2.5
 20
-287.5
 21
-287.5
  0
LINE
  8
APS_GEOMETRY
 10
2.5
 11
2.5
 20
-287.5
 21
-284.5
  0
LINE
  8
APS_GEOMETRY
 10
2.5
 11
7.0
 20
-284.5
 21
-284.5
  0
LINE
  8
APS_GEOMETRY
 10
7.0
 11
7.0
 20
-284.5
 21
-274.0
  0
LINE
  8
APS_GEOMETRY
 10
7.0
 11
8.5
 20
-274.0
 21
-272.5
  0
LINE
  8
APS_GEOMETRY
 10
8.5
 11
11.0
 20
-272.5
 21
-272.5
  0
LINE
  8
APS_GEOMETRY
 10
11.0
 11
11.0
 20
-272.5
 21
-290.5
  0
ARC
  8
APS_GEOMETRY
 10
7.0
 20
-290.5
 40
4.0
 50
270.0
 51
360.0
  0
LINE
  8
APS_GEOMETRY
 10
7.0
 11
-54.0
 20
-294.5
 21
-294.5
  0
ARC
  8
APS_GEOMETRY
 10
-54.0
 20
-290.5
 40
4.0
 50
180.0
 51
270.0
  0
LINE
  8
APS_GEOMETRY
 10
-58.0
 11
-58.0
 20
-290.5
 21
-284.5
  0
LINE
  8
APS_GEOMETRY
 10
-58.0
 11
-52.0
 20
-284.5
 21
-284.5
  0
LINE
  8
APS_GEOMETRY
 10
-52.0
 11
-52.0
 20
-284.5
 21
-287.5
  0
LINE
  8
APS_GEOMETRY
 10
0.0
 11
0.0
 20
-213.496
 21
-284.5
  0
LINE
  8
APS_GEOMETRY
 10
0.0
 11
6.7
 20
-284.5
 21
-284.5
  0
LINE
  8
APS_GEOMETRY
 10
6.7
 11
6.7
 20
-284.5
 21
-270.5
  0
LINE
  8
APS_GEOMETRY
 10
6.7
 11
11.0
 20
-270.5
 21
-270.5
  0
LINE
  8
APS_GEOMETRY
 10
11.0
 11
11.0
 20
-270.5
 21
-284.5
  0
LINE
  8
APS_GEOMETRY
 10
11.0
 11
34.0
 20
-284.5
 21
-284.5
  0
ARC
  8
APS_GEOMETRY
 10
34.0
 20
-274.5
 40
10.0
 50
270.0
 51
0.0
  0
LINE
  8
APS_GEOMETRY
 10
44.0
 11
44.0
 20
-274.5
 21
-200.7
  0
ARC
  8
APS_GEOMETRY
 10
43.0
 20
-200.7
 40
1.0
 50
0.0
 51
90.0
  0
LINE
  8
APS_GEOMETRY
 10
43.0
 11
25.8
 20
-199.7
 21
-199.7
  0
LINE
  8
APS_GEOMETRY
 10
25.8
 11
25.8
 20
-199.7
 21
-196.2
  0
LINE
  8
APS_GEOMETRY
 10
25.8
 11
33.5
 20
-196.2
 21
-196.2
  0
LINE
  8
APS_GEOMETRY
 10
33.5
 11
33.5
 20
-196.2
 21
-166.5
  0
LINE
  8
APS_GEOMETRY
 10
33.5
 11
8.5
 20
-166.5
 21
-166.5
  0
LINE
  8
APS_GEOMETRY
 10
8.5
 11
8.5
 20
-166.5
 21
-180.5
  0
LINE
  8
APS_GEOMETRY
 10
8.5
 11
4.2
 20
-180.5
 21
-180.5
  0
LINE
  8
APS_GEOMETRY
 10
4.2
 11
4.2
 20
-180.5
 21
-166.5
  0
LINE
  8
APS_GEOMETRY
 10
4.2
 11
0.0
 20
-166.5
 21
-166.5
  0
LINE
  8
APS_GEOMETRY
 10
0.0
 11
0.0
 20
-166.5
 21
-284.5
  0
LINE
  8
COSTRUZIONI
 10
881.5
 11
881.5
 20
-166.5
 21
-284.5
  0
LINE
  8
COSTRUZIONI
 10
901.5
 11
901.5
 20
-166.5
 21
-284.5
  0
LINE
  8
COSTRUZIONI
 10
881.5
 11
1016.543
 20
-166.5
 21
-166.5
  0
LINE
  8
COSTRUZIONI
 10
881.5
 11
1016.543
 20
-284.5
 21
-284.5
  0
LINE
  8
COSTRUZIONI
 10
901.5
 11
881.5
 20
-284.5
 21
-166.5
  0
LINE
  8
COSTRUZIONI
 10
901.5
 11
881.5
 20
-166.5
 21
-284.5
  0
LINE
  8
APS_GEOMETRY
 10
934.5
 11
880.0
 20
-163.5
 21
-163.5
  0
LINE
  8
APS_GEOMETRY
 10
880.0
 11
880.0
 20
-163.5
 21
-166.5
  0
LINE
  8
APS_GEOMETRY
 10
880.0
 11
875.5
 20
-166.5
 21
-166.5
  0
LINE
  8
APS_GEOMETRY
 10
875.5
 11
875.5
 20
-166.5
 21
-177.0
  0
LINE
  8
APS_GEOMETRY
 10
875.5
 11
874.0
 20
-177.0
 21
-178.5
  0
LINE
  8
APS_GEOMETRY
 10
874.0
 11
871.5
 20
-178.5
 21
-178.5
  0
LINE
  8
APS_GEOMETRY
 10
871.5
 11
871.5
 20
-178.5
 21
-160.5
  0
ARC
  8
APS_GEOMETRY
 10
875.5
 20
-160.5
 40
4.0
 50
90.0
 51
180.0
  0
LINE
  8
APS_GEOMETRY
 10
875.5
 11
936.5
 20
-156.5
 21
-156.5
  0
ARC
  8
APS_GEOMETRY
 10
936.5
 20
-160.5
 40
4.0
 50
360.0
 51
90.0
  0
LINE
  8
APS_GEOMETRY
 10
940.5
 11
940.5
 20
-160.5
 21
-166.5
  0
LINE
  8
APS_GEOMETRY
 10
940.5
 11
934.5
 20
-166.5
 21
-166.5
  0
LINE
  8
APS_GEOMETRY
 10
934.5
 11
934.5
 20
-166.5
 21
-163.5
  0
LINE
  8
APS_GEOMETRY
 10
932.0
 11
877.5
 20
-287.5
 21
-287.5
  0
LINE
  8
APS_GEOMETRY
 10
877.5
 11
877.5
 20
-287.5
 21
-284.5
  0
LINE
  8
APS_GEOMETRY
 10
877.5
 11
873.0
 20
-284.5
 21
-284.5
  0
LINE
  8
APS_GEOMETRY
 10
873.0
 11
873.0
 20
-284.5
 21
-274.0
  0
LINE
  8
APS_GEOMETRY
 10
873.0
 11
871.5
 20
-274.0
 21
-272.5
  0
LINE
  8
APS_GEOMETRY
 10
871.5
 11
869.0
 20
-272.5
 21
-272.5
  0
LINE
  8
APS_GEOMETRY
 10
869.0
 11
869.0
 20
-272.5
 21
-290.5
  0
ARC
  8
APS_GEOMETRY
 10
873.0
 20
-290.5
 40
4.0
 50
180.0
 51
270.0
  0
LINE
  8
APS_GEOMETRY
 10
873.0
 11
934.0
 20
-294.5
 21
-294.5
  0
ARC
  8
APS_GEOMETRY
 10
934.0
 20
-290.5
 40
4.0
 50
270.0
 51
0.0
  0
LINE
  8
APS_GEOMETRY
 10
938.0
 11
938.0
 20
-290.5
 21
-284.5
  0
LINE
  8
APS_GEOMETRY
 10
938.0
 11
932.0
 20
-284.5
 21
-284.5
  0
LINE
  8
APS_GEOMETRY
 10
932.0
 11
932.0
 20
-284.5
 21
-287.5
  0
LINE
  8
APS_GEOMETRY
 10
880.0
 11
880.0
 20
-213.496
 21
-284.5
  0
LINE
  8
APS_GEOMETRY
 10
880.0
 11
873.3
 20
-284.5
 21
-284.5
  0
LINE
  8
APS_GEOMETRY
 10
873.3
 11
873.3
 20
-284.5
 21
-270.5
  0
LINE
  8
APS_GEOMETRY
 10
873.3
 11
869.0
 20
-270.5
 21
-270.5
  0
LINE
  8
APS_GEOMETRY
 10
869.0
 11
869.0
 20
-270.5
 21
-284.5
  0
LINE
  8
APS_GEOMETRY
 10
869.0
 11
846.0
 20
-284.5
 21
-284.5
  0
ARC
  8
APS_GEOMETRY
 10
846.0
 20
-274.5
 40
10.0
 50
180.0
 51
270.0
  0
LINE
  8
APS_GEOMETRY
 10
836.0
 11
836.0
 20
-274.5
 21
-200.7
  0
ARC
  8
APS_GEOMETRY
 10
837.0
 20
-200.7
 40
1.0
 50
90.0
 51
180.0
  0
LINE
  8
APS_GEOMETRY
 10
837.0
 11
854.2
 20
-199.7
 21
-199.7
  0
LINE
  8
APS_GEOMETRY
 10
854.2
 11
854.2
 20
-199.7
 21
-196.2
  0
LINE
  8
APS_GEOMETRY
 10
854.2
 11
846.5
 20
-196.2
 21
-196.2
  0
LINE
  8
APS_GEOMETRY
 10
846.5
 11
846.5
 20
-196.2
 21
-169.5
  0
ARC
  8
APS_GEOMETRY
 10
849.5
 20
-169.5
 40
3.0
 50
90.0
 51
180.0
  0
LINE
  8
APS_GEOMETRY
 10
849.5
 11
871.5
 20
-166.5
 21
-166.5
  0
LINE
  8
APS_GEOMETRY
 10
871.5
 11
871.5
 20
-166.5
 21
-180.5
  0
LINE
  8
APS_GEOMETRY
 10
871.5
 11
875.8
 20
-180.5
 21
-180.5
  0
LINE
  8
APS_GEOMETRY
 10
875.8
 11
875.8
 20
-180.5
 21
-166.5
  0
LINE
  8
APS_GEOMETRY
 10
875.8
 11
880.0
 20
-166.5
 21
-166.5
  0
LINE
  8
APS_GEOMETRY
 10
880.0
 11
880.0
 20
-166.5
 21
-284.5
  0
LINE
  8
QUOTATURA
 10
1040.562
 11
1037.228
 20
729.373
 21
709.373
  0
LINE
  8
QUOTATURA
 10
1037.228
 11
1033.894
 20
709.373
 21
729.373
  0
LINE
  8
QUOTATURA
 10
1033.894
 11
1040.562
 20
729.373
 21
729.373
  0
LINE
  8
QUOTATURA
 10
1037.228
 11
1037.228
 20
709.373
 21
767.572
  0
LINE
  8
QUOTATURA
 10
1037.228
 11
958.488
 20
767.572
 21
767.572
  0
LINE
  8
QUOTATURA
 10
425.687
 11
445.638
 20
-25.076
 21
-28.696
  0
LINE
  8
QUOTATURA
 10
445.638
 11
425.592
 20
-28.696
 21
-31.744
  0
LINE
  8
QUOTATURA
 10
425.592
 11
425.687
 20
-31.744
 21
-25.076
  0
LINE
  8
QUOTATURA
 10
445.638
 11
389.384
 20
-28.696
 21
-27.892
  0
LINE
  8
QUOTATURA
 10
389.384
 11
389.384
 20
-27.892
 21
3.449
  0
LINE
  8
QUOTATURA
 10
44.0
 11
44.0
 20
-294.5
 21
-352.323
  0
LINE
  8
QUOTATURA
 10
836.0
 11
836.0
 20
-294.5
 21
-352.323
  0
LINE
  8
QUOTATURA
 10
44.0
 11
277.546
 20
-342.323
 21
-342.323
  0
LINE
  8
QUOTATURA
 10
602.454
 11
836.0
 20
-342.323
 21
-342.323
  0
LINE
  8
QUOTATURA
 10
64.0
 11
44.0
 20
-345.657
 21
-342.323
  0
LINE
  8
QUOTATURA
 10
44.0
 11
64.0
 20
-342.323
 21
-338.989
  0
LINE
  8
QUOTATURA
 10
64.0
 11
64.0
 20
-338.989
 21
-345.657
  0
LINE
  8
QUOTATURA
 10
816.0
 11
836.0
 20
-338.989
 21
-342.323
  0
LINE
  8
QUOTATURA
 10
836.0
 11
816.0
 20
-342.323
 21
-345.657
  0
LINE
  8
QUOTATURA
 10
816.0
 11
816.0
 20
-345.657
 21
-338.989
  0
LINE
  8
QUOTATURA
 10
0.0
 11
0.0
 20
-294.5
 21
-400.848
  0
LINE
  8
QUOTATURA
 10
880.0
 11
880.0
 20
-294.5
 21
-400.848
  0
LINE
  8
QUOTATURA
 10
0.0
 11
308.204
 20
-390.848
 21
-390.848
  0
LINE
  8
QUOTATURA
 10
571.796
 11
880.0
 20
-390.848
 21
-390.848
  0
LINE
  8
QUOTATURA
 10
20.0
 11
0.0
 20
-394.182
 21
-390.848
  0
LINE
  8
QUOTATURA
 10
0.0
 11
20.0
 20
-390.848
 21
-387.514
  0
LINE
  8
QUOTATURA
 10
20.0
 11
20.0
 20
-387.514
 21
-394.182
  0
LINE
  8
QUOTATURA
 10
860.0
 11
880.0
 20
-387.514
 21
-390.848
  0
LINE
  8
QUOTATURA
 10
880.0
 11
860.0
 20
-390.848
 21
-394.182
  0
LINE
  8
QUOTATURA
 10
860.0
 11
860.0
 20
-394.182
 21
-387.514
  0
LINE
  8
APS_GEOMETRY
 10
-451.801
 11
-245.781
 20
0.0
 21
0.0
  0
LINE
  8
COSTRUZIONI
 10
-333.801
 11
-451.801
 20
2141.5
 21
2141.5
  0
LINE
  8
COSTRUZIONI
 10
-333.801
 11
-451.801
 20
2161.5
 21
2161.5
  0
LINE
  8
COSTRUZIONI
 10
-333.801
 11
-333.801
 20
2141.5
 21
2276.543
  0
LINE
  8
COSTRUZIONI
 10
-451.801
 11
-451.801
 20
2141.5
 21
2276.543
  0
LINE
  8
COSTRUZIONI
 10
-451.801
 11
-333.801
 20
2161.5
 21
2141.5
  0
LINE
  8
COSTRUZIONI
 10
-333.801
 11
-451.801
 20
2161.5
 21
2141.5
  0
LINE
  8
APS_GEOMETRY
 10
-330.801
 11
-330.801
 20
2194.5
 21
2140.0
  0
LINE
  8
APS_GEOMETRY
 10
-330.801
 11
-333.801
 20
2140.0
 21
2140.0
  0
LINE
  8
APS_GEOMETRY
 10
-333.801
 11
-333.801
 20
2140.0
 21
2135.5
  0
LINE
  8
APS_GEOMETRY
 10
-333.801
 11
-344.301
 20
2135.5
 21
2135.5
  0
LINE
  8
APS_GEOMETRY
 10
-344.301
 11
-345.801
 20
2135.5
 21
2134.0
  0
LINE
  8
APS_GEOMETRY
 10
-345.801
 11
-345.801
 20
2134.0
 21
2131.5
  0
LINE
  8
APS_GEOMETRY
 10
-345.801
 11
-327.801
 20
2131.5
 21
2131.5
  0
ARC
  8
APS_GEOMETRY
 10
-327.801
 20
2135.5
 40
4.0
 50
270.0
 51
360.0
  0
LINE
  8
APS_GEOMETRY
 10
-323.801
 11
-323.801
 20
2135.5
 21
2196.5
  0
ARC
  8
APS_GEOMETRY
 10
-327.801
 20
2196.5
 40
4.0
 50
360.0
 51
90.0
  0
LINE
  8
APS_GEOMETRY
 10
-327.801
 11
-333.801
 20
2200.5
 21
2200.5
  0
LINE
  8
APS_GEOMETRY
 10
-333.801
 11
-333.801
 20
2200.5
 21
2194.5
  0
LINE
  8
APS_GEOMETRY
 10
-333.801
 11
-330.801
 20
2194.5
 21
2194.5
  0
LINE
  8
APS_GEOMETRY
 10
-454.801
 11
-454.801
 20
2192.0
 21
2137.5
  0
LINE
  8
APS_GEOMETRY
 10
-454.801
 11
-451.801
 20
2137.5
 21
2137.5
  0
LINE
  8
APS_GEOMETRY
 10
-451.801
 11
-451.801
 20
2137.5
 21
2133.0
  0
LINE
  8
APS_GEOMETRY
 10
-451.801
 11
-441.301
 20
2133.0
 21
2133.0
  0
LINE
  8
APS_GEOMETRY
 10
-441.301
 11
-439.801
 20
2133.0
 21
2131.5
  0
LINE
  8
APS_GEOMETRY
 10
-439.801
 11
-439.801
 20
2131.5
 21
2129.0
  0
LINE
  8
APS_GEOMETRY
 10
-439.801
 11
-457.801
 20
2129.0
 21
2129.0
  0
ARC
  8
APS_GEOMETRY
 10
-457.801
 20
2133.0
 40
4.0
 50
180.0
 51
270.0
  0
LINE
  8
APS_GEOMETRY
 10
-461.801
 11
-461.801
 20
2133.0
 21
2194.0
  0
ARC
  8
APS_GEOMETRY
 10
-457.801
 20
2194.0
 40
4.0
 50
90.0
 51
180.0
  0
LINE
  8
APS_GEOMETRY
 10
-457.801
 11
-451.801
 20
2198.0
 21
2198.0
  0
LINE
  8
APS_GEOMETRY
 10
-451.801
 11
-451.801
 20
2198.0
 21
2192.0
  0
LINE
  8
APS_GEOMETRY
 10
-451.801
 11
-454.801
 20
2192.0
 21
2192.0
  0
LINE
  8
APS_GEOMETRY
 10
-380.796
 11
-451.801
 20
2140.0
 21
2140.0
  0
LINE
  8
APS_GEOMETRY
 10
-451.801
 11
-451.801
 20
2140.0
 21
2133.3
  0
LINE
  8
APS_GEOMETRY
 10
-451.801
 11
-437.801
 20
2133.3
 21
2133.3
  0
LINE
  8
APS_GEOMETRY
 10
-437.801
 11
-437.801
 20
2133.3
 21
2129.0
  0
LINE
  8
APS_GEOMETRY
 10
-437.801
 11
-451.801
 20
2129.0
 21
2129.0
  0
LINE
  8
APS_GEOMETRY
 10
-451.801
 11
-451.801
 20
2129.0
 21
2106.0
  0
ARC
  8
APS_GEOMETRY
 10
-441.801
 20
2106.0
 40
10.0
 50
180.0
 51
270.0
  0
LINE
  8
APS_GEOMETRY
 10
-441.801
 11
-368.001
 20
2096.0
 21
2096.0
  0
ARC
  8
APS_GEOMETRY
 10
-368.001
 20
2097.0
 40
1.0
 50
270.0
 51
360.0
  0
LINE
  8
APS_GEOMETRY
 10
-367.001
 11
-367.001
 20
2097.0
 21
2114.2
  0
LINE
  8
APS_GEOMETRY
 10
-367.001
 11
-363.501
 20
2114.2
 21
2114.2
  0
LINE
  8
APS_GEOMETRY
 10
-363.501
 11
-363.501
 20
2114.2
 21
2106.5
  0
LINE
  8
APS_GEOMETRY
 10
-363.501
 11
-336.801
 20
2106.5
 21
2106.5
  0
ARC
  8
APS_GEOMETRY
 10
-336.801
 20
2109.5
 40
3.0
 50
270.0
 51
360.0
  0
LINE
  8
APS_GEOMETRY
 10
-333.801
 11
-333.801
 20
2109.5
 21
2131.5
  0
LINE
  8
APS_GEOMETRY
 10
-333.801
 11
-347.801
 20
2131.5
 21
2131.5
  0
LINE
  8
APS_GEOMETRY
 10
-347.801
 11
-347.801
 20
2131.5
 21
2135.8
  0
LINE
  8
APS_GEOMETRY
 10
-347.801
 11
-333.801
 20
2135.8
 21
2135.8
  0
LINE
  8
APS_GEOMETRY
 10
-333.801
 11
-333.801
 20
2135.8
 21
2140.0
  0
LINE
  8
APS_GEOMETRY
 10
-333.801
 11
-451.801
 20
2140.0
 21
2140.0
  0
LINE
  8
APS_GEOMETRY
 10
11.0
 11
-58.0
 20
2129.0
 21
2198.0
  0
LINE
  8
APS_GEOMETRY
 10
869.0
 11
938.0
 20
2129.0
 21
2198.0
  0
LINE
  8
QUOTATURA
 10
-461.801
 11
-503.417
 20
0.0
 21
0.0
  0
LINE
  8
QUOTATURA
 10
-461.801
 11
-503.417
 20
2096.0
 21
2096.0
  0
LINE
  8
QUOTATURA
 10
-493.417
 11
-493.417
 20
0.0
 21
900.812
  0
LINE
  8
QUOTATURA
 10
-493.417
 11
-493.417
 20
1195.188
 21
2096.0
  0
LINE
  8
QUOTATURA
 10
-490.083
 11
-493.417
 20
20.0
 21
0.0
  0
LINE
  8
QUOTATURA
 10
-493.417
 11
-496.751
 20
0.0
 21
20.0
  0
LINE
  8
QUOTATURA
 10
-496.751
 11
-490.083
 20
20.0
 21
20.0
  0
LINE
  8
QUOTATURA
 10
-496.751
 11
-493.417
 20
2076.0
 21
2096.0
  0
LINE
  8
QUOTATURA
 10
-493.417
 11
-490.083
 20
2096.0
 21
2076.0
  0
LINE
  8
QUOTATURA
 10
-490.083
 11
-496.751
 20
2076.0
 21
2076.0
  0
LINE
  8
QUOTATURA
 10
-461.801
 11
-570.136
 20
2140.0
 21
2140.0
  0
LINE
  8
QUOTATURA
 10
-461.801
 11
-570.136
 20
0.0
 21
0.0
  0
LINE
  8
QUOTATURA
 10
-560.136
 11
-560.136
 20
2140.0
 21
1536.795
  0
LINE
  8
QUOTATURA
 10
-560.136
 11
-560.136
 20
1242.29
 21
0.0
  0
LINE
  8
QUOTATURA
 10
-563.47
 11
-560.136
 20
2120.0
 21
2140.0
  0
LINE
  8
QUOTATURA
 10
-560.136
 11
-556.802
 20
2140.0
 21
2120.0
  0
LINE
  8
QUOTATURA
 10
-556.802
 11
-563.47
 20
2120.0
 21
2120.0
  0
LINE
  8
QUOTATURA
 10
-556.802
 11
-560.136
 20
20.0
 21
0.0
  0
LINE
  8
QUOTATURA
 10
-560.136
 11
-563.47
 20
0.0
 21
20.0
  0
LINE
  8
QUOTATURA
 10
-563.47
 11
-556.802
 20
20.0
 21
20.0
  0
LINE
  8
COSTRUZIONI
 10
846.0
 11
846.0
 20
0.0
 21
2106.0
  0
LINE
  8
COSTRUZIONI
 10
846.0
 11
34.0
 20
2106.0
 21
2106.0
  0
LINE
  8
COSTRUZIONI
 10
34.0
 11
34.0
 20
2106.0
 21
0.0
  0
LINE
  8
APS_GEOMETRY
 10
841.0
 11
841.0
 20
5.0
 21
2101.0
  0
LINE
  8
APS_GEOMETRY
 10
841.0
 11
39.0
 20
2101.0
 21
2101.0
  0
LINE
  8
APS_GEOMETRY
 10
39.0
 11
39.0
 20
2101.0
 21
5.0
  0
LINE
  8
APS_GEOMETRY
 10
39.0
 11
841.0
 20
5.0
 21
5.0
  0
LINE
  8
APS_GEOMETRY
 10
-353.501
 11
-353.501
 20
2101.0
 21
5.0
  0
LINE
  8
APS_GEOMETRY
 10
-353.501
 11
-363.501
 20
5.0
 21
5.0
  0
LINE
  8
APS_GEOMETRY
 10
-363.501
 11
-363.501
 20
5.0
 21
2101.0
  0
LINE
  8
APS_GEOMETRY
 10
-363.501
 11
-353.501
 20
2101.0
 21
2101.0
  0
LINE
  8
COSTRUZIONI
 10
-363.501
 11
-363.501
 20
2114.2
 21
2106.5
  0
ARC
  8
COSTRUZIONI
 10
-375.501
 20
2101.5
 40
13.0
 50
337.38
 51
22.62
  0
LINE
  8
COSTRUZIONI
 10
-363.501
 11
-367.001
 20
2096.5
 21
2096.5
  0
LINE
  8
COSTRUZIONI
 10
-367.001
 11
-367.001
 20
2096.5
 21
2114.2
  0
LINE
  8
COSTRUZIONI
 10
-367.001
 11
-363.501
 20
2114.2
 21
2114.2
  0
LINE
  8
COSTRUZIONI
 10
-367.001
 11
-366.824
 20
2114.023
 21
2114.2
  0
LINE
  8
COSTRUZIONI
 10
-366.294
 11
-367.001
 20
2114.2
 21
2113.493
  0
LINE
  8
COSTRUZIONI
 10
-367.001
 11
-366.117
 20
2113.316
 21
2114.2
  0
LINE
  8
COSTRUZIONI
 10
-365.586
 11
-367.001
 20
2114.2
 21
2112.786
  0
LINE
  8
COSTRUZIONI
 10
-367.001
 11
-365.41
 20
2112.609
 21
2114.2
  0
LINE
  8
COSTRUZIONI
 10
-364.879
 11
-367.001
 20
2114.2
 21
2112.079
  0
LINE
  8
COSTRUZIONI
 10
-367.001
 11
-364.703
 20
2111.902
 21
2114.2
  0
LINE
  8
COSTRUZIONI
 10
-364.172
 11
-367.001
 20
2114.2
 21
2111.372
  0
LINE
  8
COSTRUZIONI
 10
-367.001
 11
-363.995
 20
2111.195
 21
2114.2
  0
LINE
  8
COSTRUZIONI
 10
-363.501
 11
-367.001
 20
2114.165
 21
2110.665
  0
LINE
  8
COSTRUZIONI
 10
-367.001
 11
-363.501
 20
2110.488
 21
2113.988
  0
LINE
  8
COSTRUZIONI
 10
-363.501
 11
-367.001
 20
2113.457
 21
2109.957
  0
LINE
  8
COSTRUZIONI
 10
-367.001
 11
-363.501
 20
2109.781
 21
2113.281
  0
LINE
  8
COSTRUZIONI
 10
-363.501
 11
-367.001
 20
2112.75
 21
2109.25
  0
LINE
  8
COSTRUZIONI
 10
-367.001
 11
-363.501
 20
2109.074
 21
2112.574
  0
LINE
  8
COSTRUZIONI
 10
-363.501
 11
-367.001
 20
2112.043
 21
2108.543
  0
LINE
  8
COSTRUZIONI
 10
-367.001
 11
-363.501
 20
2108.366
 21
2111.866
  0
LINE
  8
COSTRUZIONI
 10
-363.501
 11
-367.001
 20
2111.336
 21
2107.836
  0
LINE
  8
COSTRUZIONI
 10
-367.001
 11
-363.501
 20
2107.659
 21
2111.159
  0
LINE
  8
COSTRUZIONI
 10
-363.501
 11
-367.001
 20
2110.629
 21
2107.129
  0
LINE
  8
COSTRUZIONI
 10
-367.001
 11
-363.501
 20
2106.952
 21
2110.452
  0
LINE
  8
COSTRUZIONI
 10
-363.501
 11
-367.001
 20
2109.922
 21
2106.422
  0
LINE
  8
COSTRUZIONI
 10
-367.001
 11
-363.501
 20
2106.245
 21
2109.745
  0
LINE
  8
COSTRUZIONI
 10
-363.501
 11
-367.001
 20
2109.215
 21
2105.715
  0
LINE
  8
COSTRUZIONI
 10
-367.001
 11
-363.501
 20
2105.538
 21
2109.038
  0
LINE
  8
COSTRUZIONI
 10
-363.501
 11
-367.001
 20
2108.508
 21
2105.008
  0
LINE
  8
COSTRUZIONI
 10
-367.001
 11
-363.501
 20
2104.831
 21
2108.331
  0
LINE
  8
COSTRUZIONI
 10
-363.501
 11
-367.001
 20
2107.801
 21
2104.301
  0
LINE
  8
COSTRUZIONI
 10
-367.001
 11
-363.501
 20
2104.124
 21
2107.624
  0
LINE
  8
COSTRUZIONI
 10
-363.501
 11
-367.001
 20
2107.093
 21
2103.593
  0
LINE
  8
COSTRUZIONI
 10
-367.001
 11
-363.501
 20
2103.417
 21
2106.917
  0
LINE
  8
COSTRUZIONI
 10
-363.467
 11
-367.001
 20
2106.42
 21
2102.886
  0
LINE
  8
COSTRUZIONI
 10
-367.001
 11
-363.417
 20
2102.71
 21
2106.294
  0
LINE
  8
COSTRUZIONI
 10
-363.271
 11
-367.001
 20
2105.909
 21
2102.179
  0
LINE
  8
COSTRUZIONI
 10
-367.001
 11
-363.225
 20
2102.002
 21
2105.778
  0
LINE
  8
COSTRUZIONI
 10
-363.093
 11
-367.001
 20
2105.38
 21
2101.472
  0
LINE
  8
COSTRUZIONI
 10
-367.001
 11
-363.052
 20
2101.295
 21
2105.244
  0
LINE
  8
COSTRUZIONI
 10
-362.935
 11
-367.001
 20
2104.831
 21
2100.765
  0
LINE
  8
COSTRUZIONI
 10
-367.001
 11
-362.898
 20
2100.588
 21
2104.691
  0
LINE
  8
COSTRUZIONI
 10
-362.797
 11
-367.001
 20
2104.261
 21
2100.058
  0
LINE
  8
COSTRUZIONI
 10
-367.001
 11
-362.766
 20
2099.881
 21
2104.115
  0
LINE
  8
COSTRUZIONI
 10
-362.683
 11
-367.001
 20
2103.669
 21
2099.351
  0
LINE
  8
COSTRUZIONI
 10
-367.001
 11
-362.658
 20
2099.174
 21
2103.517
  0
LINE
  8
COSTRUZIONI
 10
-362.593
 11
-367.001
 20
2103.051
 21
2098.644
  0
LINE
  8
COSTRUZIONI
 10
-367.001
 11
-362.575
 20
2098.467
 21
2102.892
  0
LINE
  8
COSTRUZIONI
 10
-362.532
 11
-367.001
 20
2102.405
 21
2097.937
  0
LINE
  8
COSTRUZIONI
 10
-367.001
 11
-362.522
 20
2097.76
 21
2102.239
  0
LINE
  8
COSTRUZIONI
 10
-362.503
 11
-367.001
 20
2101.727
 21
2097.229
  0
LINE
  8
COSTRUZIONI
 10
-367.001
 11
-362.501
 20
2097.053
 21
2101.553
  0
LINE
  8
COSTRUZIONI
 10
-362.51
 11
-367.001
 20
2101.013
 21
2096.522
  0
LINE
  8
COSTRUZIONI
 10
-366.846
 11
-362.518
 20
2096.5
 21
2100.828
  0
LINE
  8
COSTRUZIONI
 10
-362.56
 11
-366.316
 20
2100.256
 21
2096.5
  0
LINE
  8
COSTRUZIONI
 10
-366.139
 11
-362.581
 20
2096.5
 21
2100.058
  0
LINE
  8
COSTRUZIONI
 10
-362.664
 11
-365.609
 20
2099.445
 21
2096.5
  0
LINE
  8
COSTRUZIONI
 10
-365.432
 11
-362.7
 20
2096.5
 21
2099.232
  0
LINE
  8
COSTRUZIONI
 10
-362.836
 11
-364.902
 20
2098.566
 21
2096.5
  0
LINE
  8
COSTRUZIONI
 10
-364.725
 11
-362.892
 20
2096.5
 21
2098.332
  0
LINE
  8
COSTRUZIONI
 10
-363.102
 11
-364.195
 20
2097.593
 21
2096.5
  0
LINE
  8
COSTRUZIONI
 10
-364.018
 11
-363.188
 20
2096.5
 21
2097.33
  0
LINE
  8
QUOTATURA
 10
-338.501
 11
-289.743
 20
2101.0
 21
2101.0
  0
LINE
  8
QUOTATURA
 10
-338.501
 11
-289.743
 20
5.0
 21
5.0
  0
LINE
  8
QUOTATURA
 10
-304.743
 11
-304.743
 20
2101.0
 21
1218.987
  0
LINE
  8
QUOTATURA
 10
-304.743
 11
-304.743
 20
887.013
 21
5.0
  0
LINE
  8
QUOTATURA
 10
-309.744
 11
-304.743
 20
2071.0
 21
2101.0
  0
LINE
  8
QUOTATURA
 10
-304.743
 11
-299.742
 20
2101.0
 21
2071.0
  0
LINE
  8
QUOTATURA
 10
-299.742
 11
-309.744
 20
2071.0
 21
2071.0
  0
LINE
  8
QUOTATURA
 10
-299.742
 11
-304.743
 20
35.0
 21
5.0
  0
LINE
  8
QUOTATURA
 10
-304.743
 11
-309.744
 20
5.0
 21
35.0
  0
LINE
  8
QUOTATURA
 10
-309.744
 11
-299.742
 20
35.0
 21
35.0
  0
LINE
  8
QUOTATURA
 10
39.0
 11
39.0
 20
-15.0
 21
-119.868
  0
LINE
  8
QUOTATURA
 10
841.0
 11
841.0
 20
-15.0
 21
-119.868
  0
LINE
  8
QUOTATURA
 10
39.0
 11
287.603
 20
-104.868
 21
-104.868
  0
LINE
  8
QUOTATURA
 10
592.617
 11
841.0
 20
-104.868
 21
-104.868
  0
LINE
  8
QUOTATURA
 10
69.0
 11
39.0
 20
-109.869
 21
-104.868
  0
LINE
  8
QUOTATURA
 10
39.0
 11
69.0
 20
-104.868
 21
-99.867
  0
LINE
  8
QUOTATURA
 10
69.0
 11
69.0
 20
-99.867
 21
-109.869
  0
LINE
  8
QUOTATURA
 10
811.0
 11
841.0
 20
-99.867
 21
-104.868
  0
LINE
  8
QUOTATURA
 10
841.0
 11
811.0
 20
-104.868
 21
-109.869
  0
LINE
  8
QUOTATURA
 10
811.0
 11
811.0
 20
-109.869
 21
-99.867
  0
LINE
  8
COSTRUZIONI
 10
25.8
 11
33.5
 20
-196.2
 21
-196.2
  0
ARC
  8
COSTRUZIONI
 10
38.5
 20
-208.2
 40
13.0
 50
67.38
 51
112.62
  0
LINE
  8
COSTRUZIONI
 10
43.5
 11
43.5
 20
-196.2
 21
-199.7
  0
LINE
  8
COSTRUZIONI
 10
43.5
 11
25.8
 20
-199.7
 21
-199.7
  0
LINE
  8
COSTRUZIONI
 10
25.8
 11
25.8
 20
-199.7
 21
-196.2
  0
LINE
  8
COSTRUZIONI
 10
25.977
 11
25.8
 20
-199.7
 21
-199.523
  0
LINE
  8
COSTRUZIONI
 10
25.8
 11
26.507
 20
-198.993
 21
-199.7
  0
LINE
  8
COSTRUZIONI
 10
26.684
 11
25.8
 20
-199.7
 21
-198.816
  0
LINE
  8
COSTRUZIONI
 10
25.8
 11
27.214
 20
-198.286
 21
-199.7
  0
LINE
  8
COSTRUZIONI
 10
27.391
 11
25.8
 20
-199.7
 21
-198.109
  0
LINE
  8
COSTRUZIONI
 10
25.8
 11
27.921
 20
-197.579
 21
-199.7
  0
LINE
  8
COSTRUZIONI
 10
28.098
 11
25.8
 20
-199.7
 21
-197.402
  0
LINE
  8
COSTRUZIONI
 10
25.8
 11
28.628
 20
-196.872
 21
-199.7
  0
LINE
  8
COSTRUZIONI
 10
28.805
 11
25.8
 20
-199.7
 21
-196.695
  0
LINE
  8
COSTRUZIONI
 10
25.835
 11
29.335
 20
-196.2
 21
-199.7
  0
LINE
  8
COSTRUZIONI
 10
29.512
 11
26.012
 20
-199.7
 21
-196.2
  0
LINE
  8
COSTRUZIONI
 10
26.543
 11
30.043
 20
-196.2
 21
-199.7
  0
LINE
  8
COSTRUZIONI
 10
30.219
 11
26.719
 20
-199.7
 21
-196.2
  0
LINE
  8
COSTRUZIONI
 10
27.25
 11
30.75
 20
-196.2
 21
-199.7
  0
LINE
  8
COSTRUZIONI
 10
30.926
 11
27.426
 20
-199.7
 21
-196.2
  0
LINE
  8
COSTRUZIONI
 10
27.957
 11
31.457
 20
-196.2
 21
-199.7
  0
LINE
  8
COSTRUZIONI
 10
31.634
 11
28.134
 20
-199.7
 21
-196.2
  0
LINE
  8
COSTRUZIONI
 10
28.664
 11
32.164
 20
-196.2
 21
-199.7
  0
LINE
  8
COSTRUZIONI
 10
32.341
 11
28.841
 20
-199.7
 21
-196.2
  0
LINE
  8
COSTRUZIONI
 10
29.371
 11
32.871
 20
-196.2
 21
-199.7
  0
LINE
  8
COSTRUZIONI
 10
33.048
 11
29.548
 20
-199.7
 21
-196.2
  0
LINE
  8
COSTRUZIONI
 10
30.078
 11
33.578
 20
-196.2
 21
-199.7
  0
LINE
  8
COSTRUZIONI
 10
33.755
 11
30.255
 20
-199.7
 21
-196.2
  0
LINE
  8
COSTRUZIONI
 10
30.785
 11
34.285
 20
-196.2
 21
-199.7
  0
LINE
  8
COSTRUZIONI
 10
34.462
 11
30.962
 20
-199.7
 21
-196.2
  0
LINE
  8
COSTRUZIONI
 10
31.492
 11
34.992
 20
-196.2
 21
-199.7
  0
LINE
  8
COSTRUZIONI
 10
35.169
 11
31.669
 20
-199.7
 21
-196.2
  0
LINE
  8
COSTRUZIONI
 10
32.199
 11
35.699
 20
-196.2
 21
-199.7
  0
LINE
  8
COSTRUZIONI
 10
35.876
 11
32.376
 20
-199.7
 21
-196.2
  0
LINE
  8
COSTRUZIONI
 10
32.907
 11
36.407
 20
-196.2
 21
-199.7
  0
LINE
  8
COSTRUZIONI
 10
36.583
 11
33.083
 20
-199.7
 21
-196.2
  0
LINE
  8
COSTRUZIONI
 10
33.58
 11
37.114
 20
-196.167
 21
-199.7
  0
LINE
  8
COSTRUZIONI
 10
37.29
 11
33.706
 20
-199.7
 21
-196.116
  0
LINE
  8
COSTRUZIONI
 10
34.091
 11
37.821
 20
-195.97
 21
-199.7
  0
LINE
  8
COSTRUZIONI
 10
37.998
 11
34.222
 20
-199.7
 21
-195.924
  0
LINE
  8
COSTRUZIONI
 10
34.62
 11
38.528
 20
-195.792
 21
-199.7
  0
LINE
  8
COSTRUZIONI
 10
38.705
 11
34.756
 20
-199.7
 21
-195.751
  0
LINE
  8
COSTRUZIONI
 10
35.169
 11
39.235
 20
-195.634
 21
-199.7
  0
LINE
  8
COSTRUZIONI
 10
39.412
 11
35.309
 20
-199.7
 21
-195.598
  0
LINE
  8
COSTRUZIONI
 10
35.739
 11
39.942
 20
-195.497
 21
-199.7
  0
LINE
  8
COSTRUZIONI
 10
40.119
 11
35.885
 20
-199.7
 21
-195.466
  0
LINE
  8
COSTRUZIONI
 10
36.331
 11
40.649
 20
-195.382
 21
-199.7
  0
LINE
  8
COSTRUZIONI
 10
40.826
 11
36.483
 20
-199.7
 21
-195.357
  0
LINE
  8
COSTRUZIONI
 10
36.949
 11
41.356
 20
-195.293
 21
-199.7
  0
LINE
  8
COSTRUZIONI
 10
41.533
 11
37.108
 20
-199.7
 21
-195.275
  0
LINE
  8
COSTRUZIONI
 10
37.595
 11
42.063
 20
-195.232
 21
-199.7
  0
LINE
  8
COSTRUZIONI
 10
42.24
 11
37.761
 20
-199.7
 21
-195.221
  0
LINE
  8
COSTRUZIONI
 10
38.273
 11
42.771
 20
-195.202
 21
-199.7
  0
LINE
  8
COSTRUZIONI
 10
42.947
 11
38.447
 20
-199.7
 21
-195.2
  0
LINE
  8
COSTRUZIONI
 10
38.987
 11
43.478
 20
-195.209
 21
-199.7
  0
LINE
  8
COSTRUZIONI
 10
43.5
 11
39.172
 20
-199.546
 21
-195.217
  0
LINE
  8
COSTRUZIONI
 10
39.744
 11
43.5
 20
-195.26
 21
-199.015
  0
LINE
  8
COSTRUZIONI
 10
43.5
 11
39.942
 20
-198.839
 21
-195.28
  0
LINE
  8
COSTRUZIONI
 10
40.555
 11
43.5
 20
-195.364
 21
-198.308
  0
LINE
  8
COSTRUZIONI
 10
43.5
 11
40.768
 20
-198.131
 21
-195.399
  0
LINE
  8
COSTRUZIONI
 10
41.434
 11
43.5
 20
-195.536
 21
-197.601
  0
LINE
  8
COSTRUZIONI
 10
43.5
 11
41.668
 20
-197.424
 21
-195.592
  0
LINE
  8
COSTRUZIONI
 10
42.407
 11
43.5
 20
-195.801
 21
-196.894
  0
LINE
  8
COSTRUZIONI
 10
43.5
 11
42.67
 20
-196.717
 21
-195.887
  0
LINE
  8
COSTRUZIONI
 10
854.2
 11
846.5
 20
-196.2
 21
-196.2
  0
ARC
  8
COSTRUZIONI
 10
841.5
 20
-208.2
 40
13.0
 50
67.38
 51
112.62
  0
LINE
  8
COSTRUZIONI
 10
836.5
 11
836.5
 20
-196.2
 21
-199.7
  0
LINE
  8
COSTRUZIONI
 10
836.5
 11
854.2
 20
-199.7
 21
-199.7
  0
LINE
  8
COSTRUZIONI
 10
854.2
 11
854.2
 20
-199.7
 21
-196.2
  0
LINE
  8
COSTRUZIONI
 10
854.023
 11
854.2
 20
-199.7
 21
-199.523
  0
LINE
  8
COSTRUZIONI
 10
854.2
 11
853.493
 20
-198.993
 21
-199.7
  0
LINE
  8
COSTRUZIONI
 10
853.316
 11
854.2
 20
-199.7
 21
-198.816
  0
LINE
  8
COSTRUZIONI
 10
854.2
 11
852.786
 20
-198.286
 21
-199.7
  0
LINE
  8
COSTRUZIONI
 10
852.609
 11
854.2
 20
-199.7
 21
-198.109
  0
LINE
  8
COSTRUZIONI
 10
854.2
 11
852.079
 20
-197.579
 21
-199.7
  0
LINE
  8
COSTRUZIONI
 10
851.902
 11
854.2
 20
-199.7
 21
-197.402
  0
LINE
  8
COSTRUZIONI
 10
854.2
 11
851.372
 20
-196.872
 21
-199.7
  0
LINE
  8
COSTRUZIONI
 10
851.195
 11
854.2
 20
-199.7
 21
-196.695
  0
LINE
  8
COSTRUZIONI
 10
854.165
 11
850.665
 20
-196.2
 21
-199.7
  0
LINE
  8
COSTRUZIONI
 10
850.488
 11
853.988
 20
-199.7
 21
-196.2
  0
LINE
  8
COSTRUZIONI
 10
853.457
 11
849.957
 20
-196.2
 21
-199.7
  0
LINE
  8
COSTRUZIONI
 10
849.781
 11
853.281
 20
-199.7
 21
-196.2
  0
LINE
  8
COSTRUZIONI
 10
852.75
 11
849.25
 20
-196.2
 21
-199.7
  0
LINE
  8
COSTRUZIONI
 10
849.074
 11
852.574
 20
-199.7
 21
-196.2
  0
LINE
  8
COSTRUZIONI
 10
852.043
 11
848.543
 20
-196.2
 21
-199.7
  0
LINE
  8
COSTRUZIONI
 10
848.366
 11
851.866
 20
-199.7
 21
-196.2
  0
LINE
  8
COSTRUZIONI
 10
851.336
 11
847.836
 20
-196.2
 21
-199.7
  0
LINE
  8
COSTRUZIONI
 10
847.659
 11
851.159
 20
-199.7
 21
-196.2
  0
LINE
  8
COSTRUZIONI
 10
850.629
 11
847.129
 20
-196.2
 21
-199.7
  0
LINE
  8
COSTRUZIONI
 10
846.952
 11
850.452
 20
-199.7
 21
-196.2
  0
LINE
  8
COSTRUZIONI
 10
849.922
 11
846.422
 20
-196.2
 21
-199.7
  0
LINE
  8
COSTRUZIONI
 10
846.245
 11
849.745
 20
-199.7
 21
-196.2
  0
LINE
  8
COSTRUZIONI
 10
849.215
 11
845.715
 20
-196.2
 21
-199.7
  0
LINE
  8
COSTRUZIONI
 10
845.538
 11
849.038
 20
-199.7
 21
-196.2
  0
LINE
  8
COSTRUZIONI
 10
848.508
 11
845.008
 20
-196.2
 21
-199.7
  0
LINE
  8
COSTRUZIONI
 10
844.831
 11
848.331
 20
-199.7
 21
-196.2
  0
LINE
  8
COSTRUZIONI
 10
847.801
 11
844.301
 20
-196.2
 21
-199.7
  0
LINE
  8
COSTRUZIONI
 10
844.124
 11
847.624
 20
-199.7
 21
-196.2
  0
LINE
  8
COSTRUZIONI
 10
847.093
 11
843.593
 20
-196.2
 21
-199.7
  0
LINE
  8
COSTRUZIONI
 10
843.417
 11
846.917
 20
-199.7
 21
-196.2
  0
LINE
  8
COSTRUZIONI
 10
846.42
 11
842.886
 20
-196.167
 21
-199.7
  0
LINE
  8
COSTRUZIONI
 10
842.71
 11
846.294
 20
-199.7
 21
-196.116
  0
LINE
  8
COSTRUZIONI
 10
845.909
 11
842.179
 20
-195.97
 21
-199.7
  0
LINE
  8
COSTRUZIONI
 10
842.002
 11
845.778
 20
-199.7
 21
-195.924
  0
LINE
  8
COSTRUZIONI
 10
845.38
 11
841.472
 20
-195.792
 21
-199.7
  0
LINE
  8
COSTRUZIONI
 10
841.295
 11
845.244
 20
-199.7
 21
-195.751
  0
LINE
  8
COSTRUZIONI
 10
844.831
 11
840.765
 20
-195.634
 21
-199.7
  0
LINE
  8
COSTRUZIONI
 10
840.588
 11
844.691
 20
-199.7
 21
-195.598
  0
LINE
  8
COSTRUZIONI
 10
844.261
 11
840.058
 20
-195.497
 21
-199.7
  0
LINE
  8
COSTRUZIONI
 10
839.881
 11
844.115
 20
-199.7
 21
-195.466
  0
LINE
  8
COSTRUZIONI
 10
843.669
 11
839.351
 20
-195.382
 21
-199.7
  0
LINE
  8
COSTRUZIONI
 10
839.174
 11
843.517
 20
-199.7
 21
-195.357
  0
LINE
  8
COSTRUZIONI
 10
843.051
 11
838.644
 20
-195.293
 21
-199.7
  0
LINE
  8
COSTRUZIONI
 10
838.467
 11
842.892
 20
-199.7
 21
-195.275
  0
LINE
  8
COSTRUZIONI
 10
842.405
 11
837.937
 20
-195.232
 21
-199.7
  0
LINE
  8
COSTRUZIONI
 10
837.76
 11
842.239
 20
-199.7
 21
-195.221
  0
LINE
  8
COSTRUZIONI
 10
841.727
 11
837.229
 20
-195.202
 21
-199.7
  0
LINE
  8
COSTRUZIONI
 10
837.053
 11
841.553
 20
-199.7
 21
-195.2
  0
LINE
  8
COSTRUZIONI
 10
841.013
 11
836.522
 20
-195.209
 21
-199.7
  0
LINE
  8
COSTRUZIONI
 10
836.5
 11
840.828
 20
-199.546
 21
-195.217
  0
LINE
  8
COSTRUZIONI
 10
840.256
 11
836.5
 20
-195.26
 21
-199.015
  0
LINE
  8
COSTRUZIONI
 10
836.5
 11
840.058
 20
-198.839
 21
-195.28
  0
LINE
  8
COSTRUZIONI
 10
839.445
 11
836.5
 20
-195.364
 21
-198.308
  0
LINE
  8
COSTRUZIONI
 10
836.5
 11
839.232
 20
-198.131
 21
-195.399
  0
LINE
  8
COSTRUZIONI
 10
838.566
 11
836.5
 20
-195.536
 21
-197.601
  0
LINE
  8
COSTRUZIONI
 10
836.5
 11
838.332
 20
-197.424
 21
-195.592
  0
LINE
  8
COSTRUZIONI
 10
837.593
 11
836.5
 20
-195.801
 21
-196.894
  0
LINE
  8
COSTRUZIONI
 10
836.5
 11
837.33
 20
-196.717
 21
-195.887
  0
LINE
  8
APS_GEOMETRY
 10
39.0
 11
841.0
 20
-196.2
 21
-196.2
  0
LINE
  8
APS_GEOMETRY
 10
841.0
 11
841.0
 20
-196.2
 21
-186.2
  0
LINE
  8
APS_GEOMETRY
 10
841.0
 11
39.0
 20
-186.2
 21
-186.2
  0
LINE
  8
APS_GEOMETRY
 10
39.0
 11
39.0
 20
-186.2
 21
-196.2
  0
LINE
  8
COSTRUZIONI
 10
28.5
 11
219.0
 20
-172.2
 21
-172.2
  0
LINE
  8
COSTRUZIONI
 10
219.0
 11
219.0
 20
-172.2
 21
-186.2
  0
LINE
  8
APS_GEOMETRY
 10
39.0
 11
39.0
 20
-186.2
 21
-179.98
  0
LINE
  8
APS_GEOMETRY
 10
39.0
 11
28.5
 20
-179.98
 21
-172.2
  0
LINE
  8
COSTRUZIONI
 10
33.5
 11
31.0
 20
-188.5
 21
-188.5
  0
LINE
  8
COSTRUZIONI
 10
31.0
 11
31.0
 20
-188.5
 21
-166.542
  0
LINE
  8
APS_GEOMETRY
 10
31.0
 11
33.5
 20
-172.2
 21
-172.2
  0
LINE
  8
APS_GEOMETRY
 10
33.5
 11
33.5
 20
-172.2
 21
-166.5
  0
LINE
  8
APS_GEOMETRY
 10
33.5
 11
31.0
 20
-166.5
 21
-166.5
  0
LINE
  8
APS_GEOMETRY
 10
31.0
 11
31.0
 20
-166.5
 21
-172.2
  0
LINE
  8
APS_GEOMETRY
 10
31.0
 11
33.5
 20
-171.7
 21
-171.7
  0
LINE
  8
APS_GEOMETRY
 10
33.5
 11
31.0
 20
-171.2
 21
-171.2
  0
LINE
  8
APS_GEOMETRY
 10
31.0
 11
33.5
 20
-170.7
 21
-170.7
  0
LINE
  8
APS_GEOMETRY
 10
33.5
 11
31.0
 20
-170.2
 21
-170.2
  0
LINE
  8
APS_GEOMETRY
 10
31.0
 11
33.5
 20
-169.7
 21
-169.7
  0
LINE
  8
APS_GEOMETRY
 10
33.5
 11
31.0
 20
-169.2
 21
-169.2
  0
LINE
  8
APS_GEOMETRY
 10
31.0
 11
33.5
 20
-168.7
 21
-168.7
  0
LINE
  8
APS_GEOMETRY
 10
33.5
 11
31.0
 20
-168.2
 21
-168.2
  0
LINE
  8
APS_GEOMETRY
 10
31.0
 11
33.5
 20
-167.7
 21
-167.7
  0
LINE
  8
APS_GEOMETRY
 10
33.5
 11
31.0
 20
-167.2
 21
-167.2
  0
LINE
  8
APS_GEOMETRY
 10
31.0
 11
33.5
 20
-166.7
 21
-166.7
  0
LINE
  8
COSTRUZIONI
 10
239.0
 11
239.0
 20
1095.0
 21
1015.0
  0
LINE
  8
COSTRUZIONI
 10
39.0
 11
239.0
 20
1055.0
 21
1055.0
  0
LINE
  8
COSTRUZIONI
 10
39.0
 11
239.0
 20
1095.0
 21
1095.0
  0
LINE
  8
COSTRUZIONI
 10
39.0
 11
239.0
 20
1015.0
 21
1015.0
  0
LINE
  8
COSTRUZIONI
 10
99.0
 11
99.0
 20
1095.0
 21
1015.0
  0
LINE
  8
COSTRUZIONI
 10
160.0
 11
160.0
 20
1095.0
 21
1015.0
  0
CIRCLE
  8
APS_GEOMETRY
 10
99.0
 20
1055.0
 40
23.5
  0
CIRCLE
  8
APS_GEOMETRY
 10
160.0
 20
1055.0
 40
23.5
  0
LINE
  8
QUOTATURA
 10
54.0
 11
351.889
 20
5.0
 21
5.0
  0
LINE
  8
QUOTATURA
 10
254.0
 11
351.889
 20
1055.0
 21
1055.0
  0
LINE
  8
QUOTATURA
 10
336.889
 11
336.889
 20
5.0
 21
915.361
  0
LINE
  8
QUOTATURA
 10
336.889
 11
336.889
 20
960.738
 21
1055.0
  0
LINE
  8
QUOTATURA
 10
341.89
 11
336.889
 20
35.0
 21
5.0
  0
LINE
  8
QUOTATURA
 10
336.889
 11
331.888
 20
5.0
 21
35.0
  0
LINE
  8
QUOTATURA
 10
331.888
 11
341.89
 20
35.0
 21
35.0
  0
LINE
  8
QUOTATURA
 10
331.888
 11
336.889
 20
1025.0
 21
1055.0
  0
LINE
  8
QUOTATURA
 10
336.889
 11
341.89
 20
1055.0
 21
1025.0
  0
LINE
  8
QUOTATURA
 10
341.89
 11
331.888
 20
1025.0
 21
1025.0
  0
LINE
  8
QUOTATURA
 10
54.0
 11
154.81
 20
-196.2
 21
-196.2
  0
LINE
  8
QUOTATURA
 10
43.5
 11
154.81
 20
-172.2
 21
-172.2
  0
LINE
  8
QUOTATURA
 10
139.81
 11
139.81
 20
-196.2
 21
-271.217
  0
LINE
  8
QUOTATURA
 10
139.81
 11
201.789
 20
-271.217
 21
-271.217
  0
LINE
  8
QUOTATURA
 10
134.809
 11
139.81
 20
-226.2
 21
-196.2
  0
LINE
  8
QUOTATURA
 10
139.81
 11
144.811
 20
-196.2
 21
-226.2
  0
LINE
  8
QUOTATURA
 10
144.811
 11
134.809
 20
-226.2
 21
-226.2
  0
LINE
  8
QUOTATURA
 10
139.81
 11
139.81
 20
-172.2
 21
-112.2
  0
LINE
  8
QUOTATURA
 10
144.811
 11
139.81
 20
-142.2
 21
-172.2
  0
LINE
  8
QUOTATURA
 10
139.81
 11
134.809
 20
-172.2
 21
-142.2
  0
LINE
  8
QUOTATURA
 10
134.809
 11
144.811
 20
-142.2
 21
-142.2
  0
CIRCLE
  8
APS_GEOMETRY
 10
34.916
 20
-181.707
 40
6.0
  0
LINE
  8
APS_GEOMETRY
 10
32.518
 11
37.314
 20
-187.207
 21
-187.207
  0
LINE
  8
APS_GEOMETRY
 10
38.233
 11
31.6
 20
-186.707
 21
-186.707
  0
LINE
  8
APS_GEOMETRY
 10
30.948
 11
38.885
 20
-186.207
 21
-186.207
  0
LINE
  8
APS_GEOMETRY
 10
39.388
 11
30.444
 20
-185.707
 21
-185.707
  0
LINE
  8
APS_GEOMETRY
 10
30.043
 11
39.79
 20
-185.207
 21
-185.207
  0
LINE
  8
APS_GEOMETRY
 10
40.112
 11
29.72
 20
-184.707
 21
-184.707
  0
LINE
  8
APS_GEOMETRY
 10
29.462
 11
40.371
 20
-184.207
 21
-184.207
  0
LINE
  8
APS_GEOMETRY
 10
40.573
 11
29.259
 20
-183.707
 21
-183.707
  0
LINE
  8
APS_GEOMETRY
 10
29.107
 11
40.726
 20
-183.207
 21
-183.207
  0
LINE
  8
APS_GEOMETRY
 10
40.832
 11
29.0
 20
-182.707
 21
-182.707
  0
LINE
  8
APS_GEOMETRY
 10
28.937
 11
40.895
 20
-182.207
 21
-182.207
  0
LINE
  8
APS_GEOMETRY
 10
40.916
 11
28.916
 20
-181.707
 21
-181.707
  0
LINE
  8
APS_GEOMETRY
 10
28.937
 11
40.895
 20
-181.207
 21
-181.207
  0
LINE
  8
APS_GEOMETRY
 10
40.832
 11
29.0
 20
-180.707
 21
-180.707
  0
LINE
  8
APS_GEOMETRY
 10
29.107
 11
40.726
 20
-180.207
 21
-180.207
  0
LINE
  8
APS_GEOMETRY
 10
40.573
 11
29.259
 20
-179.707
 21
-179.707
  0
LINE
  8
APS_GEOMETRY
 10
29.462
 11
40.371
 20
-179.207
 21
-179.207
  0
LINE
  8
APS_GEOMETRY
 10
40.112
 11
29.72
 20
-178.707
 21
-178.707
  0
LINE
  8
APS_GEOMETRY
 10
30.043
 11
39.79
 20
-178.207
 21
-178.207
  0
LINE
  8
APS_GEOMETRY
 10
39.388
 11
30.444
 20
-177.707
 21
-177.707
  0
LINE
  8
APS_GEOMETRY
 10
30.948
 11
38.885
 20
-177.207
 21
-177.207
  0
LINE
  8
APS_GEOMETRY
 10
38.233
 11
31.6
 20
-176.707
 21
-176.707
  0
LINE
  8
APS_GEOMETRY
 10
32.518
 11
37.314
 20
-176.207
 21
-176.207
  0
LINE
  8
QUOTATURA
 10
31.03
 11
139.44
 20
-177.136
 21
-304.657
  0
LINE
  8
QUOTATURA
 10
145.206
 11
145.206
 20
-311.438
 21
-311.438
  0
LINE
  8
QUOTATURA
 10
54.424
 11
38.803
 20
-212.374
 21
-186.278
  0
LINE
  8
QUOTATURA
 10
38.803
 11
62.044
 20
-186.278
 21
-205.896
  0
LINE
  8
QUOTATURA
 10
62.044
 11
54.424
 20
-205.896
 21
-212.374
  0
CIRCLE
  8
QUOTATURA
 10
-2547.431
 20
-8.505
 40
620.219
  0
LINE
  8
QUOTATURA
 10
-22.359
 11
-1928.856
 20
-192.706
 21
-53.629
  0
CIRCLE
  8
QUOTATURA
 10
39.499
 20
-197.218
 40
62.022
  0
LINE
  8
COSTRUZIONI
 10
-2957.42
 11
-2957.42
 20
298.678
 21
-473.886
  0
LINE
  8
COSTRUZIONI
 10
-3157.42
 11
-3157.42
 20
103.674
 21
-120.684
  0
LINE
  8
COSTRUZIONI
 10
-2957.42
 11
-3086.235
 20
298.678
 21
298.678
  0
LINE
  8
COSTRUZIONI
 10
-3066.914
 11
-2957.42
 20
-347.338
 21
298.678
  0
LINE
  8
COSTRUZIONI
 10
-3137.652
 11
-3041.898
 20
182.047
 21
-382.902
  0
LINE
  8
APS_GEOMETRY
 10
-3067.987
 11
-2942.42
 20
328.678
 21
328.678
  0
LINE
  8
APS_GEOMETRY
 10
-2942.42
 11
-2942.42
 20
328.678
 21
298.678
  0
LINE
  8
APS_GEOMETRY
 10
-2942.42
 11
-2897.42
 20
298.678
 21
298.678
  0
LINE
  8
APS_GEOMETRY
 10
-2897.42
 11
-2897.42
 20
298.678
 21
193.678
  0
LINE
  8
APS_GEOMETRY
 10
-2897.42
 11
-2882.42
 20
193.678
 21
178.678
  0
LINE
  8
APS_GEOMETRY
 10
-2882.42
 11
-2857.42
 20
178.678
 21
178.678
  0
LINE
  8
APS_GEOMETRY
 10
-2857.42
 11
-2857.42
 20
178.678
 21
358.678
  0
ARC
  8
APS_GEOMETRY
 10
-2897.42
 20
358.678
 40
40.0
 50
0.0
 51
90.0
  0
LINE
  8
APS_GEOMETRY
 10
-2897.42
 11
-3015.269
 20
398.678
 21
398.678
  0
LINE
  8
APS_GEOMETRY
 10
-2942.42
 11
-2942.42
 20
-171.279
 21
-486.683
  0
LINE
  8
APS_GEOMETRY
 10
-2502.42
 11
-2502.42
 20
-627.088
 21
-43.321
  0
ARC
  8
APS_GEOMETRY
 10
-2512.42
 20
-43.321
 40
10.0
 50
0.0
 51
90.0
  0
LINE
  8
APS_GEOMETRY
 10
-2512.42
 11
-2684.42
 20
-33.321
 21
-33.321
  0
LINE
  8
APS_GEOMETRY
 10
-2684.42
 11
-2684.42
 20
-33.321
 21
1.679
  0
LINE
  8
APS_GEOMETRY
 10
-2684.42
 11
-2607.42
 20
1.679
 21
1.679
  0
LINE
  8
APS_GEOMETRY
 10
-2607.42
 11
-2607.42
 20
1.679
 21
298.679
  0
LINE
  8
APS_GEOMETRY
 10
-2607.42
 11
-2857.42
 20
298.679
 21
298.679
  0
LINE
  8
APS_GEOMETRY
 10
-2857.42
 11
-2857.42
 20
298.679
 21
158.678
  0
LINE
  8
APS_GEOMETRY
 10
-2857.42
 11
-2900.42
 20
158.678
 21
158.678
  0
LINE
  8
APS_GEOMETRY
 10
-2900.42
 11
-2900.42
 20
158.678
 21
298.678
  0
LINE
  8
APS_GEOMETRY
 10
-2900.42
 11
-2942.42
 20
298.678
 21
298.678
  0
LINE
  8
APS_GEOMETRY
 10
-2942.42
 11
-2942.42
 20
298.678
 21
-486.683
  0
LINE
  8
COSTRUZIONI
 10
-2684.42
 11
-2607.42
 20
1.679
 21
1.679
  0
ARC
  8
COSTRUZIONI
 10
-2557.42
 20
-118.321
 40
130.0
 50
67.38
 51
112.62
  0
LINE
  8
COSTRUZIONI
 10
-2507.42
 11
-2507.42
 20
1.679
 21
-33.321
  0
LINE
  8
COSTRUZIONI
 10
-2507.42
 11
-2684.42
 20
-33.321
 21
-33.321
  0
LINE
  8
COSTRUZIONI
 10
-2684.42
 11
-2684.42
 20
-33.321
 21
1.679
  0
LINE
  8
COSTRUZIONI
 10
-2682.653
 11
-2684.42
 20
-33.321
 21
-31.554
  0
LINE
  8
COSTRUZIONI
 10
-2684.42
 11
-2677.349
 20
-26.25
 21
-33.321
  0
LINE
  8
COSTRUZIONI
 10
-2675.582
 11
-2684.42
 20
-33.321
 21
-24.483
  0
LINE
  8
COSTRUZIONI
 10
-2684.42
 11
-2670.278
 20
-19.179
 21
-33.321
  0
LINE
  8
COSTRUZIONI
 10
-2668.51
 11
-2684.42
 20
-33.321
 21
-17.411
  0
LINE
  8
COSTRUZIONI
 10
-2684.42
 11
-2663.207
 20
-12.108
 21
-33.321
  0
LINE
  8
COSTRUZIONI
 10
-2661.439
 11
-2684.42
 20
-33.321
 21
-10.34
  0
LINE
  8
COSTRUZIONI
 10
-2684.42
 11
-2656.136
 20
-5.037
 21
-33.321
  0
LINE
  8
COSTRUZIONI
 10
-2654.368
 11
-2684.42
 20
-33.321
 21
-3.269
  0
LINE
  8
COSTRUZIONI
 10
-2684.065
 11
-2649.065
 20
1.679
 21
-33.321
  0
LINE
  8
COSTRUZIONI
 10
-2647.297
 11
-2682.297
 20
-33.321
 21
1.679
  0
LINE
  8
COSTRUZIONI
 10
-2676.994
 11
-2641.994
 20
1.679
 21
-33.321
  0
LINE
  8
COSTRUZIONI
 10
-2640.226
 11
-2675.226
 20
-33.321
 21
1.679
  0
LINE
  8
COSTRUZIONI
 10
-2669.923
 11
-2634.923
 20
1.679
 21
-33.321
  0
LINE
  8
COSTRUZIONI
 10
-2633.155
 11
-2668.155
 20
-33.321
 21
1.679
  0
LINE
  8
COSTRUZIONI
 10
-2662.852
 11
-2627.852
 20
1.679
 21
-33.321
  0
LINE
  8
COSTRUZIONI
 10
-2626.084
 11
-2661.084
 20
-33.321
 21
1.679
  0
LINE
  8
COSTRUZIONI
 10
-2655.781
 11
-2620.781
 20
1.679
 21
-33.321
  0
LINE
  8
COSTRUZIONI
 10
-2619.013
 11
-2654.013
 20
-33.321
 21
1.679
  0
LINE
  8
COSTRUZIONI
 10
-2648.71
 11
-2613.71
 20
1.679
 21
-33.321
  0
LINE
  8
COSTRUZIONI
 10
-2611.942
 11
-2646.942
 20
-33.321
 21
1.679
  0
LINE
  8
COSTRUZIONI
 10
-2641.639
 11
-2606.639
 20
1.679
 21
-33.321
  0
LINE
  8
COSTRUZIONI
 10
-2604.871
 11
-2639.871
 20
-33.321
 21
1.679
  0
LINE
  8
COSTRUZIONI
 10
-2634.568
 11
-2599.568
 20
1.679
 21
-33.321
  0
LINE
  8
COSTRUZIONI
 10
-2597.8
 11
-2632.8
 20
-33.321
 21
1.679
  0
LINE
  8
COSTRUZIONI
 10
-2627.497
 11
-2592.497
 20
1.679
 21
-33.321
  0
LINE
  8
COSTRUZIONI
 10
-2590.729
 11
-2625.729
 20
-33.321
 21
1.679
  0
LINE
  8
COSTRUZIONI
 10
-2620.425
 11
-2585.425
 20
1.679
 21
-33.321
  0
LINE
  8
COSTRUZIONI
 10
-2583.658
 11
-2618.658
 20
-33.321
 21
1.679
  0
LINE
  8
COSTRUZIONI
 10
-2613.354
 11
-2578.354
 20
1.679
 21
-33.321
  0
LINE
  8
COSTRUZIONI
 10
-2576.587
 11
-2611.587
 20
-33.321
 21
1.679
  0
LINE
  8
COSTRUZIONI
 10
-2606.616
 11
-2571.283
 20
2.011
 21
-33.321
  0
LINE
  8
COSTRUZIONI
 10
-2569.516
 11
-2605.355
 20
-33.321
 21
2.518
  0
LINE
  8
COSTRUZIONI
 10
-2601.508
 11
-2564.212
 20
3.974
 21
-33.321
  0
LINE
  8
COSTRUZIONI
 10
-2562.444
 11
-2600.203
 20
-33.321
 21
4.437
  0
LINE
  8
COSTRUZIONI
 10
-2596.217
 11
-2557.141
 20
5.754
 21
-33.321
  0
LINE
  8
COSTRUZIONI
 10
-2555.373
 11
-2594.864
 20
-33.321
 21
6.169
  0
LINE
  8
COSTRUZIONI
 10
-2590.73
 11
-2550.07
 20
7.339
 21
-33.321
  0
LINE
  8
COSTRUZIONI
 10
-2548.302
 11
-2589.326
 20
-33.321
 21
7.703
  0
LINE
  8
COSTRUZIONI
 10
-2585.033
 11
-2542.999
 20
8.712
 21
-33.321
  0
LINE
  8
COSTRUZIONI
 10
-2541.231
 11
-2583.573
 20
-33.321
 21
9.021
  0
LINE
  8
COSTRUZIONI
 10
-2579.106
 11
-2535.928
 20
9.857
 21
-33.321
  0
LINE
  8
COSTRUZIONI
 10
-2534.16
 11
-2577.587
 20
-33.321
 21
10.105
  0
LINE
  8
COSTRUZIONI
 10
-2572.929
 11
-2528.857
 20
10.75
 21
-33.321
  0
LINE
  8
COSTRUZIONI
 10
-2527.089
 11
-2571.342
 20
-33.321
 21
10.931
  0
LINE
  8
COSTRUZIONI
 10
-2566.47
 11
-2521.786
 20
11.363
 21
-33.321
  0
LINE
  8
COSTRUZIONI
 10
-2520.018
 11
-2564.808
 20
-33.321
 21
11.469
  0
LINE
  8
COSTRUZIONI
 10
-2559.695
 11
-2514.715
 20
11.659
 21
-33.321
  0
LINE
  8
COSTRUZIONI
 10
-2512.947
 11
-2557.946
 20
-33.321
 21
11.678
  0
LINE
  8
COSTRUZIONI
 10
-2552.553
 11
-2507.644
 20
11.587
 21
-33.321
  0
LINE
  8
COSTRUZIONI
 10
-2507.42
 11
-2550.702
 20
-31.777
 21
11.505
  0
LINE
  8
COSTRUZIONI
 10
-2544.976
 11
-2507.42
 20
11.082
 21
-26.474
  0
LINE
  8
COSTRUZIONI
 10
-2507.42
 11
-2543.003
 20
-24.706
 21
10.877
  0
LINE
  8
COSTRUZIONI
 10
-2536.866
 11
-2507.42
 20
10.043
 21
-19.403
  0
LINE
  8
COSTRUZIONI
 10
-2507.42
 11
-2534.74
 20
-17.635
 21
9.685
  0
LINE
  8
COSTRUZIONI
 10
-2528.075
 11
-2507.42
 20
8.323
 21
-12.331
  0
LINE
  8
COSTRUZIONI
 10
-2507.42
 11
-2525.745
 20
-10.564
 21
7.761
  0
LINE
  8
COSTRUZIONI
 10
-2518.349
 11
-2507.42
 20
5.668
 21
-5.26
  0
LINE
  8
COSTRUZIONI
 10
-2507.42
 11
-2515.723
 20
-3.493
 21
4.81
  0
LINE
  8
APS_GEOMETRY
 10
-2552.42
 11
-1927.296
 20
1.679
 21
1.679
  0
LINE
  8
APS_GEOMETRY
 10
-1937.078
 11
-2552.42
 20
101.679
 21
101.679
  0
LINE
  8
APS_GEOMETRY
 10
-2552.42
 11
-2552.42
 20
101.679
 21
1.679
  0
LINE
  8
COSTRUZIONI
 10
-2657.42
 11
-1979.91
 20
241.679
 21
241.679
  0
LINE
  8
APS_GEOMETRY
 10
-2552.42
 11
-2552.42
 20
101.679
 21
163.879
  0
LINE
  8
APS_GEOMETRY
 10
-2552.42
 11
-2657.42
 20
163.879
 21
241.679
  0
LINE
  8
COSTRUZIONI
 10
-2607.42
 11
-2632.42
 20
78.679
 21
78.679
  0
LINE
  8
COSTRUZIONI
 10
-2632.42
 11
-2632.42
 20
78.679
 21
298.259
  0
LINE
  8
APS_GEOMETRY
 10
-2632.42
 11
-2607.42
 20
241.679
 21
241.679
  0
LINE
  8
APS_GEOMETRY
 10
-2607.42
 11
-2607.42
 20
241.679
 21
298.679
  0
LINE
  8
APS_GEOMETRY
 10
-2607.42
 11
-2632.42
 20
298.679
 21
298.679
  0
LINE
  8
APS_GEOMETRY
 10
-2632.42
 11
-2632.42
 20
298.679
 21
241.679
  0
LINE
  8
APS_GEOMETRY
 10
-2632.42
 11
-2607.42
 20
246.679
 21
246.679
  0
LINE
  8
APS_GEOMETRY
 10
-2607.42
 11
-2632.42
 20
251.679
 21
251.679
  0
LINE
  8
APS_GEOMETRY
 10
-2632.42
 11
-2607.42
 20
256.679
 21
256.679
  0
LINE
  8
APS_GEOMETRY
 10
-2607.42
 11
-2632.42
 20
261.679
 21
261.679
  0
LINE
  8
APS_GEOMETRY
 10
-2632.42
 11
-2607.42
 20
266.679
 21
266.679
  0
LINE
  8
APS_GEOMETRY
 10
-2607.42
 11
-2632.42
 20
271.679
 21
271.679
  0
LINE
  8
APS_GEOMETRY
 10
-2632.42
 11
-2607.42
 20
276.679
 21
276.679
  0
LINE
  8
APS_GEOMETRY
 10
-2607.42
 11
-2632.42
 20
281.679
 21
281.679
  0
LINE
  8
APS_GEOMETRY
 10
-2632.42
 11
-2607.42
 20
286.679
 21
286.679
  0
LINE
  8
APS_GEOMETRY
 10
-2607.42
 11
-2632.42
 20
291.679
 21
291.679
  0
LINE
  8
APS_GEOMETRY
 10
-2632.42
 11
-2607.42
 20
296.679
 21
296.679
  0
CIRCLE
  8
APS_GEOMETRY
 10
-2582.42
 20
148.679
 40
60.0
  0
LINE
  8
APS_GEOMETRY
 10
-2606.399
 11
-2558.441
 20
93.679
 21
93.679
  0
LINE
  8
APS_GEOMETRY
 10
-2549.254
 11
-2615.586
 20
98.679
 21
98.679
  0
LINE
  8
APS_GEOMETRY
 10
-2622.106
 11
-2542.734
 20
103.679
 21
103.679
  0
LINE
  8
APS_GEOMETRY
 10
-2537.699
 11
-2627.141
 20
108.679
 21
108.679
  0
LINE
  8
APS_GEOMETRY
 10
-2631.154
 11
-2533.686
 20
113.679
 21
113.679
  0
LINE
  8
APS_GEOMETRY
 10
-2530.458
 11
-2634.382
 20
118.679
 21
118.679
  0
LINE
  8
APS_GEOMETRY
 10
-2636.964
 11
-2527.876
 20
123.679
 21
123.679
  0
LINE
  8
APS_GEOMETRY
 10
-2525.851
 11
-2638.989
 20
128.679
 21
128.679
  0
LINE
  8
APS_GEOMETRY
 10
-2640.515
 11
-2524.325
 20
133.679
 21
133.679
  0
LINE
  8
APS_GEOMETRY
 10
-2523.259
 11
-2641.581
 20
138.679
 21
138.679
  0
LINE
  8
APS_GEOMETRY
 10
-2642.211
 11
-2522.629
 20
143.679
 21
143.679
  0
LINE
  8
APS_GEOMETRY
 10
-2522.42
 11
-2642.42
 20
148.679
 21
148.679
  0
LINE
  8
APS_GEOMETRY
 10
-2642.211
 11
-2522.629
 20
153.679
 21
153.679
  0
LINE
  8
APS_GEOMETRY
 10
-2523.259
 11
-2641.581
 20
158.679
 21
158.679
  0
LINE
  8
APS_GEOMETRY
 10
-2640.515
 11
-2524.325
 20
163.679
 21
163.679
  0
LINE
  8
APS_GEOMETRY
 10
-2525.851
 11
-2638.989
 20
168.679
 21
168.679
  0
LINE
  8
APS_GEOMETRY
 10
-2636.964
 11
-2527.876
 20
173.679
 21
173.679
  0
LINE
  8
APS_GEOMETRY
 10
-2530.458
 11
-2634.382
 20
178.679
 21
178.679
  0
LINE
  8
APS_GEOMETRY
 10
-2631.154
 11
-2533.686
 20
183.679
 21
183.679
  0
LINE
  8
APS_GEOMETRY
 10
-2537.699
 11
-2627.141
 20
188.679
 21
188.679
  0
LINE
  8
APS_GEOMETRY
 10
-2622.106
 11
-2542.734
 20
193.679
 21
193.679
  0
LINE
  8
APS_GEOMETRY
 10
-2549.254
 11
-2615.586
 20
198.679
 21
198.679
  0
LINE
  8
APS_GEOMETRY
 10
-2606.399
 11
-2558.441
 20
203.679
 21
203.679
  0
ARC
  8
QUOTATURA
 10
-2654.297
 20
-655.524
 40
12.331
 50
42.904
 51
122.546
  0
ARC
  8
QUOTATURA
 10
-2657.463
 20
-650.408
 40
6.317
 50
123.307
 51
253.426
  0
LINE
  8
QUOTATURA
 10
-2659.265
 11
-2649.265
 20
-656.462
 21
-659.796
  0
ARC
  8
QUOTATURA
 10
-2651.301
 20
-666.255
 40
6.772
 50
299.838
 51
72.504
  0
ARC
  8
QUOTATURA
 10
-2654.431
 20
-660.86
 40
13.01
 50
240.023
 51
299.974
  0
ARC
  8
QUOTATURA
 10
-2657.374
 20
-665.904
 40
7.17
 50
209.759
 51
240.255
  0
ARC
  8
QUOTATURA
 10
-2633.665
 20
-658.702
 40
18.236
 50
31.027
 51
40.045
  0
ARC
  8
QUOTATURA
 10
-2627.371
 20
-653.108
 40
9.822
 50
38.687
 51
141.312
  0
ARC
  8
QUOTATURA
 10
-2620.847
 20
-658.468
 40
18.265
 50
140.979
 51
219.022
  0
ARC
  8
QUOTATURA
 10
-2627.371
 20
-663.829
 40
9.822
 50
218.688
 51
321.313
  0
ARC
  8
QUOTATURA
 10
-2633.777
 20
-659.258
 40
17.685
 50
322.727
 51
335.346
  0
LINE
  8
QUOTATURA
 10
-2607.803
 11
-2589.47
 20
-667.057
 21
-667.057
  0
LINE
  8
QUOTATURA
 10
-2611.47
 11
-2599.803
 20
-673.723
 21
-643.723
  0
LINE
  8
QUOTATURA
 10
-2599.803
 11
-2597.136
 20
-643.723
 21
-643.723
  0
LINE
  8
QUOTATURA
 10
-2597.136
 11
-2586.136
 20
-643.723
 21
-673.723
  0
LINE
  8
QUOTATURA
 10
-2580.136
 11
-2580.136
 20
-643.723
 21
-673.723
  0
LINE
  8
QUOTATURA
 10
-2580.136
 11
-2560.136
 20
-673.723
 21
-673.723
  0
LINE
  8
QUOTATURA
 10
-2550.47
 11
-2532.136
 20
-667.057
 21
-667.057
  0
LINE
  8
QUOTATURA
 10
-2554.136
 11
-2542.47
 20
-673.723
 21
-643.723
  0
LINE
  8
QUOTATURA
 10
-2542.47
 11
-2539.803
 20
-643.723
 21
-643.723
  0
LINE
  8
QUOTATURA
 10
-2539.803
 11
-2528.803
 20
-643.723
 21
-673.723
  0
LINE
  8
QUOTATURA
 10
-2494.303
 11
-2489.156
 20
-673.723
 21
-673.723
  0
LINE
  8
QUOTATURA
 10
-2489.156
 11
-2484.009
 20
-673.723
 21
-673.723
  0
LINE
  8
QUOTATURA
 10
-2489.156
 11
-2489.156
 20
-673.723
 21
-643.723
  0
LINE
  8
QUOTATURA
 10
-2489.156
 11
-2494.303
 20
-643.723
 21
-648.87
  0
ARC
  8
QUOTATURA
 10
-2466.16
 20
-664.267
 40
9.822
 50
218.689
 51
321.311
  0
ARC
  8
QUOTATURA
 10
-2472.684
 20
-658.907
 40
18.265
 50
320.978
 51
39.021
  0
ARC
  8
QUOTATURA
 10
-2466.16
 20
-653.546
 40
9.822
 50
38.688
 51
141.313
  0
ARC
  8
QUOTATURA
 10
-2459.636
 20
-658.907
 40
18.265
 50
140.979
 51
219.021
  0
LINE
  8
QUOTATURA
 10
-2447.026
 11
-2448.526
 20
-654.785
 21
-654.785
  0
LINE
  8
QUOTATURA
 10
-2448.526
 11
-2448.526
 20
-654.785
 21
-653.285
  0
LINE
  8
QUOTATURA
 10
-2448.526
 11
-2447.026
 20
-653.285
 21
-653.285
  0
LINE
  8
QUOTATURA
 10
-2447.026
 11
-2447.026
 20
-653.285
 21
-654.785
  0
LINE
  8
QUOTATURA
 10
-2447.026
 11
-2448.526
 20
-666.785
 21
-666.785
  0
LINE
  8
QUOTATURA
 10
-2448.526
 11
-2448.526
 20
-666.785
 21
-665.285
  0
LINE
  8
QUOTATURA
 10
-2448.526
 11
-2447.026
 20
-665.285
 21
-665.285
  0
LINE
  8
QUOTATURA
 10
-2447.026
 11
-2447.026
 20
-665.285
 21
-666.785
  0
LINE
  8
QUOTATURA
 10
-2441.026
 11
-2435.879
 20
-673.723
 21
-673.723
  0
LINE
  8
QUOTATURA
 10
-2435.879
 11
-2430.733
 20
-673.723
 21
-673.723
  0
LINE
  8
QUOTATURA
 10
-2435.879
 11
-2435.879
 20
-673.723
 21
-643.723
  0
LINE
  8
QUOTATURA
 10
-2435.879
 11
-2441.026
 20
-643.723
 21
-648.87
  0
LINE
  8
QUOTATURA
 10
-2632.42
 11
-2300.98
 20
241.679
 21
241.679
  0
LINE
  8
QUOTATURA
 10
-2582.42
 11
-2300.98
 20
298.679
 21
298.679
  0
LINE
  8
QUOTATURA
 10
-2325.98
 11
-2325.98
 20
298.679
 21
366.448
  0
LINE
  8
QUOTATURA
 10
-2325.98
 11
-2359.063
 20
366.448
 21
366.448
  0
LINE
  8
QUOTATURA
 10
-2317.645
 11
-2325.98
 20
348.679
 21
298.679
  0
LINE
  8
QUOTATURA
 10
-2325.98
 11
-2334.315
 20
298.679
 21
348.679
  0
LINE
  8
QUOTATURA
 10
-2334.315
 11
-2317.645
 20
348.679
 21
348.679
  0
LINE
  8
QUOTATURA
 10
-2325.98
 11
-2325.98
 20
241.679
 21
141.679
  0
LINE
  8
QUOTATURA
 10
-2334.315
 11
-2325.98
 20
191.679
 21
241.679
  0
LINE
  8
QUOTATURA
 10
-2325.98
 11
-2317.645
 20
241.679
 21
191.679
  0
LINE
  8
QUOTATURA
 10
-2317.645
 11
-2334.315
 20
191.679
 21
191.679
  0
LINE
  8
QUOTATURA
 10
-2537.42
 11
-2208.791
 20
1.679
 21
1.679
  0
LINE
  8
QUOTATURA
 10
-2537.42
 11
-2208.791
 20
101.679
 21
101.679
  0
LINE
  8
QUOTATURA
 10
-2223.791
 11
-2223.791
 20
1.679
 21
28.813
  0
LINE
  8
QUOTATURA
 10
-2223.791
 11
-2223.791
 20
74.179
 21
101.679
  0
LINE
  8
QUOTATURA
 10
-2218.79
 11
-2223.791
 20
31.679
 21
1.679
  0
LINE
  8
QUOTATURA
 10
-2223.791
 11
-2228.792
 20
1.679
 21
31.679
  0
LINE
  8
QUOTATURA
 10
-2228.792
 11
-2218.79
 20
31.679
 21
31.679
  0
LINE
  8
QUOTATURA
 10
-2228.792
 11
-2223.791
 20
71.679
 21
101.679
  0
LINE
  8
QUOTATURA
 10
-2223.791
 11
-2218.79
 20
101.679
 21
71.679
  0
LINE
  8
QUOTATURA
 10
-2218.79
 11
-2228.792
 20
71.679
 21
71.679
  0
LINE
  8
QUOTATURA
 10
-2522.42
 11
-2080.748
 20
1.679
 21
1.679
  0
LINE
  8
QUOTATURA
 10
-1994.91
 11
-2110.748
 20
241.679
 21
241.679
  0
LINE
  8
QUOTATURA
 10
-2095.748
 11
-2095.748
 20
1.679
 21
129.721
  0
LINE
  8
QUOTATURA
 10
-2095.748
 11
-2095.748
 20
174.816
 21
241.679
  0
LINE
  8
QUOTATURA
 10
-2090.747
 11
-2095.748
 20
31.679
 21
1.679
  0
LINE
  8
QUOTATURA
 10
-2095.748
 11
-2100.749
 20
1.679
 21
31.679
  0
LINE
  8
QUOTATURA
 10
-2100.749
 11
-2090.747
 20
31.679
 21
31.679
  0
LINE
  8
QUOTATURA
 10
-2100.749
 11
-2095.748
 20
211.679
 21
241.679
  0
LINE
  8
QUOTATURA
 10
-2095.748
 11
-2090.747
 20
241.679
 21
211.679
  0
LINE
  8
QUOTATURA
 10
-2090.747
 11
-2100.749
 20
211.679
 21
211.679
  0
LINE
  8
QUOTATURA
 10
-2552.42
 11
-2552.42
 20
16.679
 21
66.984
  0
LINE
  8
QUOTATURA
 10
-2607.42
 11
-2607.42
 20
16.679
 21
66.984
  0
LINE
  8
QUOTATURA
 10
-2607.42
 11
-2687.153
 20
51.984
 21
51.984
  0
LINE
  8
QUOTATURA
 10
-2637.42
 11
-2607.42
 20
56.985
 21
51.984
  0
LINE
  8
QUOTATURA
 10
-2607.42
 11
-2637.42
 20
51.984
 21
46.983
  0
LINE
  8
QUOTATURA
 10
-2637.42
 11
-2637.42
 20
46.983
 21
56.985
  0
LINE
  8
QUOTATURA
 10
-2552.42
 11
-2492.42
 20
51.984
 21
51.984
  0
LINE
  8
QUOTATURA
 10
-2522.42
 11
-2552.42
 20
46.983
 21
51.984
  0
LINE
  8
QUOTATURA
 10
-2552.42
 11
-2522.42
 20
51.984
 21
56.985
  0
LINE
  8
QUOTATURA
 10
-2522.42
 11
-2522.42
 20
56.985
 21
46.983
  0
LINE
  8
COSTRUZIONI
 10
39.0
 11
29.0
 20
1070.0
 21
1070.0
  0
LINE
  8
COSTRUZIONI
 10
29.0
 11
29.0
 20
1070.0
 21
1040.0
  0
LINE
  8
COSTRUZIONI
 10
29.0
 11
39.0
 20
1040.0
 21
1040.0
  0
LINE
  8
COSTRUZIONI
 10
-2582.42
 11
-2857.42
 20
148.679
 21
148.679
  0
LINE
  8
QUOTATURA
 10
-2630.225
 11
-2069.589
 20
184.938
 21
-240.296
  0
LINE
  8
QUOTATURA
 10
-2069.589
 11
-2220.184
 20
-240.296
 21
-240.296
  0
LINE
  8
QUOTATURA
 10
-2513.735
 11
-2534.615
 20
90.306
 21
112.42
  0
LINE
  8
QUOTATURA
 10
-2534.615
 11
-2507.691
 20
112.42
 21
98.275
  0
LINE
  8
QUOTATURA
 10
-2507.691
 11
-2513.735
 20
98.275
 21
90.306
  0
TEXT
  8
TEXT
 10
-654.782
 20
-492.773
 30
0.0
 40
20.0
 50
0.0
  1
Ufficio tecnico:
  0
TEXT
  8
TEXT
 10
-161.433
 20
-617.115
 30
0.0
 40
25.0
 50
0.0
  1
tel. 0577-68.54.26 - fax 0577-68.64.29
  0
TEXT
  8
TEXT
 10
-161.433
 20
-654.615
 30
0.0
 40
25.0
 50
0.0
  1
e-mail: tecnico@toscocornici.it - web: www.tosococornici.it
  0
TEXT
  8
TEXT
 10
449.656
 20
-646.307
 30
0.0
 40
40.0
 50
0.0
  1
B.Ste
  0
TEXT
  8
TEXT
 10
598.076
 20
-646.307
 30
0.0
 40
40.0
 50
0.0
  1
f
  0
TEXT
  8
TEXT
 10
628.761
 20
-646.307
 30
0.0
 40
40.0
 50
0.0
  1
ano
  0
TEXT
  8
TEXT
 10
345.437
 20
-489.811
 30
0.0
 40
20.0
 50
0.0
  1
documento:
  0
TEXT
  8
TEXT
 10
630.432
 20
-522.722
 30
0.0
 40
20.0
 50
0.0
  1
TELAIO STD
  0
TEXT
  8
TEXT
 10
630.432
 20
-552.722
 30
0.0
 40
20.0
 50
0.0
  1
+ PORTA VETRO
  0
TEXT
  8
TEXT
 10
846.638
 20
-489.725
 30
0.0
 40
20.0
 50
0.0
  1
data:
  0
TEXT
  8
TEXT
 10
1095.737
 20
-541.217
 30
0.0
 40
30.0
 50
0.0
  1
30/03/16
  0
TEXT
  8
TEXT
 10
1104.491
 20
-641.926
 30
0.0
 40
30.0
 50
0.0
  1
1 : 10
  0
TEXT
  8
TEXT
 10
343.623
 20
-588.035
 30
0.0
 40
20.0
 50
0.0
  1
responsabile tecnico:
  0
TEXT
  8
TEXT
 10
845.219
 20
-588.325
 30
0.0
 40
20.0
 50
0.0
  1
scala:
  0
TEXT
  8
TEXT
 10
956.401
 20
785.761
 30
0.0
 40
20.0
 50
0.0
  1
SEZ. B
  0
TEXT
  8
TEXT
 10
376.143
 20
-60.274
 30
0.0
 40
20.0
 50
0.0
  1
SEZ. A
  0
TEXT
  8
TEXT
 10
386.539
 20
-295.44
 30
0.0
 40
20.0
 50
0.0
  1
SEZ. B
  0
TEXT
  8
QUOTATURA
 10
282.546
 20
-352.323
 30
0.0
 40
20.0
 50
0.0
  1
LUCE PASSAGGIO=792
  0
TEXT
  8
QUOTATURA
 10
313.204
 20
-400.848
 30
0.0
 40
20.0
 50
0.0
  1
EST. TELAIO=880
  0
TEXT
  8
TEXT
 10
-193.224
 20
744.371
 30
0.0
 40
20.0
 50
0.0
  1
SEZ. A
  0
TEXT
  8
QUOTATURA
 10
-483.417
 20
905.812
 30
0.0
 40
20.0
 50
90.0
  1
LUCE NETTA= 2096
  0
TEXT
  8
QUOTATURA
 10
-550.136
 20
1247.29
 30
0.0
 40
20.0
 50
90.0
  1
EST. TELAIO= 2140
  0
TEXT
  8
QUOTATURA
 10
-289.743
 20
894.398
 30
0.0
 40
30.0
 50
90.0
  1
anta vetro=2096
  0
TEXT
  8
QUOTATURA
 10
294.988
 20
-119.868
 30
0.0
 40
30.0
 50
0.0
  1
anta vetro=802
  0
TEXT
  8
QUOTATURA
 10
288.369
 20
923.227
 30
0.0
 40
30.0
 50
0.0
  1
1050
  0
TEXT
  8
QUOTATURA
 10
209.289
 20
-286.217
 30
0.0
 40
30.0
 50
0.0
  1
24
  0
TEXT
  8
QUOTATURA
 10
146.94
 20
-326.438
 30
0.0
 40
30.0
 50
0.0
  1
Ø12
  0
TEXT
  8
TEXT
 10
-2637.495
 20
-558.927
 30
0.0
 40
100.0
 50
0.0
  1
D1
  0
TEXT
  8
QUOTATURA
 10
-2470.172
 20
341.448
 30
0.0
 40
50.0
 50
0.0
  1
5.7
  0
TEXT
  8
QUOTATURA
 10
-2243.734
 20
36.679
 30
0.0
 40
30.0
 50
0.0
  1
10
  0
TEXT
  8
QUOTATURA
 10
-2121.697
 20
137.221
 30
0.0
 40
30.0
 50
0.0
  1
24
  0
TEXT
  8
QUOTATURA
 10
-3068.705
 20
36.984
 30
0.0
 40
30.0
 50
0.0
  1
ARIA=5.5 batt.10.5
  0
TEXT
  8
TEXT
 10
-2553.682
 20
413.667
 30
0.0
 40
30.0
 50
0.0
  1
PIASTRINA
  0
TEXT
  8
QUOTATURA
 10
-2676.402
 20
-255.296
 30
0.0
 40
30.0
 50
0.0
  1
ØSCROCCO RULLO=12
  0
TEXT
  8
TEXT
 10
-2801.247
 20
573.9
 30
0.0
 40
30.0
 50
0.0
  1
PARTICOLARI CHIUSURA
  0
TEXT
  8
TEXT
 10
-2801.247
 20
528.9
 30
0.0
 40
30.0
 50
0.0
  1
VETRO A SERRATURA E 
  0
TEXT
  8
TEXT
 10
-2801.247
 20
483.9
 30
0.0
 40
30.0
 50
0.0
  1
SCROCCO A RULLO
  0
ENDSEC
  0
EOF
