  0
SECTION
  2
ENTITIES
  0
LINE
  8
APS_GEOMETRY
 10
869.0
 11
869.0
 20
0.0
 21
2140.0
  0
LINE
  8
APS_GEOMETRY
 10
869.0
 11
-11.0
 20
2140.0
 21
2140.0
  0
LINE
  8
APS_GEOMETRY
 10
-11.0
 11
-11.0
 20
2140.0
 21
0.0
  0
LINE
  8
APS_GEOMETRY
 10
15.5
 11
-11.0
 20
2113.5
 21
2140.0
  0
LINE
  8
APS_GEOMETRY
 10
842.5
 11
869.0
 20
2113.5
 21
2140.0
  0
LINE
  8
APS_GEOMETRY
 10
842.5
 11
842.5
 20
4.5
 21
2113.5
  0
LINE
  8
APS_GEOMETRY
 10
842.5
 11
15.5
 20
2113.5
 21
2113.5
  0
LINE
  8
APS_GEOMETRY
 10
15.5
 11
15.5
 20
2113.5
 21
4.5
  0
LINE
  8
APS_GEOMETRY
 10
728.5
 11
728.5
 20
230.5
 21
778.5
  0
LINE
  8
APS_GEOMETRY
 10
728.5
 11
728.5
 20
890.5
 21
1251.25
  0
LINE
  8
APS_GEOMETRY
 10
728.5
 11
728.5
 20
1303.25
 21
1664.0
  0
LINE
  8
APS_GEOMETRY
 10
129.5
 11
129.5
 20
1664.0
 21
1303.25
  0
LINE
  8
APS_GEOMETRY
 10
129.5
 11
129.5
 20
1251.25
 21
890.5
  0
LINE
  8
APS_GEOMETRY
 10
129.5
 11
129.5
 20
778.5
 21
230.5
  0
LINE
  8
APS_GEOMETRY
 10
15.5
 11
842.5
 20
4.5
 21
4.5
  0
LINE
  8
APS_GEOMETRY
 10
858.0
 11
858.0
 20
0.0
 21
2129.0
  0
LINE
  8
APS_GEOMETRY
 10
858.0
 11
0.0
 20
2129.0
 21
2129.0
  0
LINE
  8
APS_GEOMETRY
 10
0.0
 11
0.0
 20
2129.0
 21
0.0
  0
LINE
  8
APS_GEOMETRY
 10
927.0
 11
927.0
 20
0.0
 21
2198.0
  0
LINE
  8
APS_GEOMETRY
 10
927.0
 11
-69.0
 20
2198.0
 21
2198.0
  0
LINE
  8
APS_GEOMETRY
 10
-69.0
 11
-69.0
 20
2198.0
 21
0.0
  0
LINE
  8
APS_GEOMETRY
 10
-69.0
 11
0.0
 20
2198.0
 21
2129.0
  0
LINE
  8
APS_GEOMETRY
 10
927.0
 11
858.0
 20
2198.0
 21
2129.0
  0
LINE
  8
APS_GEOMETRY
 10
129.5
 11
728.5
 20
778.5
 21
778.5
  0
LINE
  8
APS_GEOMETRY
 10
129.5
 11
294.5
 20
890.5
 21
890.5
  0
LINE
  8
APS_GEOMETRY
 10
346.5
 11
511.5
 20
890.5
 21
890.5
  0
LINE
  8
APS_GEOMETRY
 10
563.5
 11
728.5
 20
890.5
 21
890.5
  0
LINE
  8
APS_GEOMETRY
 10
113.5
 11
113.5
 20
2113.5
 21
4.5
  0
LINE
  8
APS_GEOMETRY
 10
744.5
 11
744.5
 20
4.5
 21
2113.5
  0
LINE
  8
APS_GEOMETRY
 10
113.5
 11
744.5
 20
794.5
 21
794.5
  0
LINE
  8
APS_GEOMETRY
 10
113.5
 11
744.5
 20
874.5
 21
874.5
  0
LINE
  8
APS_GEOMETRY
 10
113.5
 11
129.5
 20
794.5
 21
778.5
  0
LINE
  8
APS_GEOMETRY
 10
113.5
 11
129.5
 20
874.5
 21
890.5
  0
LINE
  8
APS_GEOMETRY
 10
744.5
 11
728.5
 20
874.5
 21
890.5
  0
LINE
  8
APS_GEOMETRY
 10
744.5
 11
728.5
 20
794.5
 21
778.5
  0
ARC
  8
APS_GEOMETRY
 10
429.0
 20
1700.0
 40
299.5
 50
139.980193
 51
176.937666
  0
ARC
  8
APS_GEOMETRY
 10
429.0
 20
1700.0
 40
299.5
 50
94.980193
 51
130.019807
  0
ARC
  8
APS_GEOMETRY
 10
429.0
 20
1700.0
 40
299.5
 50
49.980193
 51
85.019807
  0
ARC
  8
APS_GEOMETRY
 10
429.0
 20
1700.0
 40
299.5
 50
3.062334
 51
40.019807
  0
ARC
  8
APS_GEOMETRY
 10
429.0
 20
1700.0
 40
315.5
 50
3.062334
 51
176.937666
  0
ARC
  8
APS_GEOMETRY
 10
129.927684
 20
1716.0
 40
16.0
 50
176.937666
 51
180.0
  0
ARC
  8
APS_GEOMETRY
 10
728.072316
 20
1716.0
 40
16.0
 50
0.0
 51
3.062334
  0
LINE
  8
APS_GEOMETRY
 10
113.5
 11
744.5
 20
214.5
 21
214.5
  0
LINE
  8
APS_GEOMETRY
 10
113.5
 11
129.5
 20
214.5
 21
230.5
  0
LINE
  8
APS_GEOMETRY
 10
744.5
 11
728.5
 20
214.5
 21
230.5
  0
LINE
  8
APS_GEOMETRY
 10
129.5
 11
728.5
 20
230.5
 21
230.5
  0
LINE
  8
APS_GEOMETRY
 10
682.5
 11
175.5
 20
732.5
 21
732.5
  0
LINE
  8
APS_GEOMETRY
 10
175.5
 11
175.5
 20
732.5
 21
276.5
  0
LINE
  8
APS_GEOMETRY
 10
175.5
 11
682.5
 20
276.5
 21
276.5
  0
LINE
  8
APS_GEOMETRY
 10
682.5
 11
682.5
 20
276.5
 21
732.5
  0
LINE
  8
APS_GEOMETRY
 10
175.5
 11
129.5
 20
732.5
 21
778.5
  0
LINE
  8
APS_GEOMETRY
 10
175.5
 11
129.5
 20
276.5
 21
230.5
  0
LINE
  8
APS_GEOMETRY
 10
682.5
 11
728.5
 20
276.5
 21
230.5
  0
LINE
  8
APS_GEOMETRY
 10
682.5
 11
728.5
 20
732.5
 21
778.5
  0
LINE
  8
APS_GEOMETRY
 10
744.5
 11
113.5
 20
1700.0
 21
1700.0
  0
LINE
  8
APS_GEOMETRY
 10
728.072316
 11
562.544936
 20
1716.0
 21
1716.0
  0
LINE
  8
APS_GEOMETRY
 10
295.455064
 11
129.927684
 20
1716.0
 21
1716.0
  0
LINE
  8
APS_GEOMETRY
 10
129.5
 11
294.5
 20
1251.25
 21
1251.25
  0
LINE
  8
APS_GEOMETRY
 10
346.5
 11
511.5
 20
1251.25
 21
1251.25
  0
LINE
  8
APS_GEOMETRY
 10
563.5
 11
728.5
 20
1251.25
 21
1251.25
  0
LINE
  8
APS_GEOMETRY
 10
129.5
 11
294.5
 20
1303.25
 21
1303.25
  0
LINE
  8
APS_GEOMETRY
 10
346.5
 11
511.5
 20
1303.25
 21
1303.25
  0
LINE
  8
APS_GEOMETRY
 10
563.5
 11
728.5
 20
1303.25
 21
1303.25
  0
LINE
  8
APS_GEOMETRY
 10
113.5
 11
744.5
 20
1287.25
 21
1287.25
  0
LINE
  8
APS_GEOMETRY
 10
113.5
 11
744.5
 20
1267.25
 21
1267.25
  0
LINE
  8
APS_GEOMETRY
 10
113.5
 11
129.5
 20
1267.25
 21
1251.25
  0
LINE
  8
APS_GEOMETRY
 10
129.5
 11
113.5
 20
1303.25
 21
1287.25
  0
LINE
  8
APS_GEOMETRY
 10
744.5
 11
728.5
 20
1267.25
 21
1251.25
  0
LINE
  8
APS_GEOMETRY
 10
728.5
 11
744.5
 20
1303.25
 21
1287.25
  0
LINE
  8
APS_GEOMETRY
 10
129.5
 11
294.5
 20
1664.0
 21
1664.0
  0
LINE
  8
APS_GEOMETRY
 10
346.5
 11
511.5
 20
1664.0
 21
1664.0
  0
LINE
  8
APS_GEOMETRY
 10
563.5
 11
728.5
 20
1664.0
 21
1664.0
  0
LINE
  8
APS_GEOMETRY
 10
113.5
 11
744.5
 20
1680.0
 21
1680.0
  0
LINE
  8
APS_GEOMETRY
 10
113.5
 11
129.5
 20
1680.0
 21
1664.0
  0
LINE
  8
APS_GEOMETRY
 10
744.5
 11
728.5
 20
1680.0
 21
1664.0
  0
LINE
  8
APS_GEOMETRY
 10
346.5
 11
346.5
 20
1251.25
 21
890.5
  0
LINE
  8
APS_GEOMETRY
 10
294.5
 11
294.5
 20
1251.25
 21
890.5
  0
LINE
  8
APS_GEOMETRY
 10
310.5
 11
310.5
 20
1267.25
 21
874.5
  0
LINE
  8
APS_GEOMETRY
 10
330.5
 11
330.5
 20
1267.25
 21
874.5
  0
LINE
  8
APS_GEOMETRY
 10
294.5
 11
310.5
 20
890.5
 21
874.5
  0
LINE
  8
APS_GEOMETRY
 10
346.5
 11
330.5
 20
890.5
 21
874.5
  0
LINE
  8
APS_GEOMETRY
 10
563.5
 11
563.5
 20
1251.25
 21
890.5
  0
LINE
  8
APS_GEOMETRY
 10
511.5
 11
511.5
 20
1251.25
 21
890.5
  0
LINE
  8
APS_GEOMETRY
 10
527.5
 11
527.5
 20
1267.25
 21
874.5
  0
LINE
  8
APS_GEOMETRY
 10
547.5
 11
547.5
 20
1267.25
 21
874.5
  0
LINE
  8
APS_GEOMETRY
 10
511.5
 11
527.5
 20
890.5
 21
874.5
  0
LINE
  8
APS_GEOMETRY
 10
563.5
 11
547.5
 20
890.5
 21
874.5
  0
LINE
  8
APS_GEOMETRY
 10
511.5
 11
527.5
 20
1251.25
 21
1267.25
  0
LINE
  8
APS_GEOMETRY
 10
563.5
 11
547.5
 20
1251.25
 21
1267.25
  0
LINE
  8
APS_GEOMETRY
 10
294.5
 11
310.5
 20
1251.25
 21
1267.25
  0
LINE
  8
APS_GEOMETRY
 10
346.5
 11
330.5
 20
1251.25
 21
1267.25
  0
LINE
  8
APS_GEOMETRY
 10
346.5
 11
346.5
 20
1664.0
 21
1303.25
  0
LINE
  8
APS_GEOMETRY
 10
294.5
 11
294.5
 20
1664.0
 21
1303.25
  0
LINE
  8
APS_GEOMETRY
 10
310.5
 11
310.5
 20
1680.0
 21
1287.25
  0
LINE
  8
APS_GEOMETRY
 10
330.5
 11
330.5
 20
1680.0
 21
1287.25
  0
LINE
  8
APS_GEOMETRY
 10
294.5
 11
310.5
 20
1303.25
 21
1287.25
  0
LINE
  8
APS_GEOMETRY
 10
346.5
 11
330.5
 20
1303.25
 21
1287.25
  0
LINE
  8
APS_GEOMETRY
 10
294.5
 11
310.5
 20
1664.0
 21
1680.0
  0
LINE
  8
APS_GEOMETRY
 10
346.5
 11
330.5
 20
1664.0
 21
1680.0
  0
LINE
  8
APS_GEOMETRY
 10
563.5
 11
563.5
 20
1664.0
 21
1303.25
  0
LINE
  8
APS_GEOMETRY
 10
511.5
 11
511.5
 20
1664.0
 21
1303.25
  0
LINE
  8
APS_GEOMETRY
 10
527.5
 11
527.5
 20
1680.0
 21
1287.25
  0
LINE
  8
APS_GEOMETRY
 10
547.5
 11
547.5
 20
1680.0
 21
1287.25
  0
LINE
  8
APS_GEOMETRY
 10
511.5
 11
527.5
 20
1303.25
 21
1287.25
  0
LINE
  8
APS_GEOMETRY
 10
563.5
 11
547.5
 20
1303.25
 21
1287.25
  0
LINE
  8
APS_GEOMETRY
 10
511.5
 11
527.5
 20
1664.0
 21
1680.0
  0
LINE
  8
APS_GEOMETRY
 10
563.5
 11
547.5
 20
1664.0
 21
1680.0
  0
ARC
  8
APS_GEOMETRY
 10
429.0
 20
1700.0
 40
118.5
 50
0.0
 51
90.0
  0
ARC
  8
APS_GEOMETRY
 10
429.0
 20
1700.0
 40
118.5
 50
90.0
 51
180.0
  0
LINE
  8
APS_GEOMETRY
 10
295.455064
 11
310.5
 20
1716.0
 21
1700.0
  0
LINE
  8
APS_GEOMETRY
 10
562.544936
 11
547.5
 20
1716.0
 21
1700.0
  0
LINE
  8
APS_GEOMETRY
 10
113.5
 11
129.927684
 20
1700.0
 21
1716.0
  0
LINE
  8
APS_GEOMETRY
 10
744.5
 11
728.072316
 20
1700.0
 21
1716.0
  0
LINE
  8
APS_GEOMETRY
 10
317.303247
 11
199.636256
 20
1774.9272
 21
1892.594192
  0
LINE
  8
APS_GEOMETRY
 10
354.0728
 11
236.405808
 20
1811.696753
 21
1929.363744
  0
LINE
  8
APS_GEOMETRY
 10
403.0
 11
403.0
 20
1831.963063
 21
1998.369318
  0
LINE
  8
APS_GEOMETRY
 10
455.0
 11
455.0
 20
1831.963063
 21
1998.369318
  0
LINE
  8
APS_GEOMETRY
 10
503.9272
 11
621.594192
 20
1811.696753
 21
1929.363744
  0
LINE
  8
APS_GEOMETRY
 10
540.696753
 11
658.363744
 20
1774.9272
 21
1892.594192
  0
ARC
  8
APS_GEOMETRY
 10
429.0
 20
1700.0
 40
134.5
 50
6.832034
 51
33.854069
  0
ARC
  8
APS_GEOMETRY
 10
429.0
 20
1700.0
 40
134.5
 50
56.145931
 51
78.854069
  0
ARC
  8
APS_GEOMETRY
 10
429.0
 20
1700.0
 40
134.5
 50
101.145931
 51
123.854069
  0
ARC
  8
APS_GEOMETRY
 10
429.0
 20
1700.0
 40
134.5
 50
146.145931
 51
173.167966
  0
LINE
  8
APS_GEOMETRY
 10
338.435669
 11
198.948832
 20
1776.422195
 21
1915.909032
  0
LINE
  8
APS_GEOMETRY
 10
352.577805
 11
213.090968
 20
1790.564331
 21
1930.051168
  0
LINE
  8
APS_GEOMETRY
 10
419.0
 11
419.0
 20
1818.077305
 21
2015.341482
  0
LINE
  8
APS_GEOMETRY
 10
439.0
 11
439.0
 20
1818.077305
 21
2015.341482
  0
LINE
  8
APS_GEOMETRY
 10
505.422195
 11
644.909032
 20
1790.564331
 21
1930.051168
  0
LINE
  8
APS_GEOMETRY
 10
519.564331
 11
659.051168
 20
1776.422195
 21
1915.909032
  0
LINE
  8
APS_GEOMETRY
 10
199.636256
 11
198.948832
 20
1892.594192
 21
1915.909032
  0
LINE
  8
APS_GEOMETRY
 10
236.405808
 11
213.090968
 20
1929.363744
 21
1930.051168
  0
LINE
  8
APS_GEOMETRY
 10
317.303247
 11
338.435669
 20
1774.9272
 21
1776.422195
  0
LINE
  8
APS_GEOMETRY
 10
354.0728
 11
352.577805
 20
1811.696753
 21
1790.564331
  0
LINE
  8
APS_GEOMETRY
 10
658.363744
 11
659.051168
 20
1892.594192
 21
1915.909032
  0
LINE
  8
APS_GEOMETRY
 10
621.594192
 11
644.909032
 20
1929.363744
 21
1930.051168
  0
LINE
  8
APS_GEOMETRY
 10
540.696753
 11
519.564331
 20
1774.9272
 21
1776.422195
  0
LINE
  8
APS_GEOMETRY
 10
503.9272
 11
505.422195
 20
1811.696753
 21
1790.564331
  0
LINE
  8
APS_GEOMETRY
 10
403.0
 11
419.0
 20
1998.369318
 21
2015.341482
  0
LINE
  8
APS_GEOMETRY
 10
455.0
 11
439.0
 20
1998.369318
 21
2015.341482
  0
LINE
  8
APS_GEOMETRY
 10
403.0
 11
419.0
 20
1831.963063
 21
1818.077305
  0
LINE
  8
APS_GEOMETRY
 10
455.0
 11
439.0
 20
1831.963063
 21
1818.077305
  0
ENDSEC
  0
EOF
