  0
SECTION
  2
ENTITIES
  0
LINE
  8
APS_GEOMETRY
 10
0.0
 11
3760.0
 20
0.0
 21
0.0
  0
LINE
  8
APS_GEOMETRY
 10
3760.0
 11
3760.0
 20
0.0
 21
2200.0
  0
LINE
  8
APS_GEOMETRY
 10
3760.0
 11
0.0
 20
2200.0
 21
2200.0
  0
LINE
  8
APS_GEOMETRY
 10
0.0
 11
0.0
 20
2200.0
 21
0.0
  0
LINE
  8
QUOTATURA
 10
0.0
 11
0.0
 20
-50.0
 21
-268.516
  0
LINE
  8
QUOTATURA
 10
3760.0
 11
3760.0
 20
-50.0
 21
-268.516
  0
LINE
  8
QUOTATURA
 10
0.0
 11
1679.663
 20
-218.516
 21
-218.516
  0
LINE
  8
QUOTATURA
 10
2080.337
 11
3760.0
 20
-218.516
 21
-218.516
  0
LINE
  8
QUOTATURA
 10
100.0
 11
0.0
 20
-235.186
 21
-218.516
  0
LINE
  8
QUOTATURA
 10
0.0
 11
100.0
 20
-218.516
 21
-201.846
  0
LINE
  8
QUOTATURA
 10
100.0
 11
100.0
 20
-201.846
 21
-235.186
  0
LINE
  8
QUOTATURA
 10
3660.0
 11
3760.0
 20
-201.846
 21
-218.516
  0
LINE
  8
QUOTATURA
 10
3760.0
 11
3660.0
 20
-218.516
 21
-235.186
  0
LINE
  8
QUOTATURA
 10
3660.0
 11
3660.0
 20
-235.186
 21
-201.846
  0
LINE
  8
QUOTATURA
 10
-50.0
 11
-399.025
 20
0.0
 21
0.0
  0
LINE
  8
QUOTATURA
 10
-50.0
 11
-399.025
 20
2200.0
 21
2200.0
  0
LINE
  8
QUOTATURA
 10
-349.025
 11
-349.025
 20
0.0
 21
1023.78
  0
LINE
  8
QUOTATURA
 10
-349.025
 11
-349.025
 20
1175.314
 21
2200.0
  0
LINE
  8
QUOTATURA
 10
-332.355
 11
-349.025
 20
100.0
 21
0.0
  0
LINE
  8
QUOTATURA
 10
-349.025
 11
-365.695
 20
0.0
 21
100.0
  0
LINE
  8
QUOTATURA
 10
-365.695
 11
-332.355
 20
100.0
 21
100.0
  0
LINE
  8
QUOTATURA
 10
-365.695
 11
-349.025
 20
2100.0
 21
2200.0
  0
LINE
  8
QUOTATURA
 10
-349.025
 11
-332.355
 20
2200.0
 21
2100.0
  0
LINE
  8
QUOTATURA
 10
-332.355
 11
-365.695
 20
2100.0
 21
2100.0
  0
LINE
  8
QUOTATURA
 10
3760.0
 11
3892.936
 20
2200.0
 21
2332.936
  0
CIRCLE
  8
QUOTATURA
 10
4025.872
 20
2465.872
 40
188.0
  0
LINE
  8
APS_GEOMETRY
 10
833.0
 11
833.0
 20
0.0
 21
2119.0
  0
LINE
  8
APS_GEOMETRY
 10
833.0
 11
0.0
 20
2119.0
 21
2119.0
  0
LINE
  8
APS_GEOMETRY
 10
0.0
 11
0.0
 20
2119.0
 21
0.0
  0
LINE
  8
APS_GEOMETRY
 10
0.0
 11
833.0
 20
0.0
 21
0.0
  0
LINE
  8
APS_GEOMETRY
 10
1671.0
 11
1671.0
 20
0.0
 21
2119.0
  0
LINE
  8
APS_GEOMETRY
 10
1671.0
 11
838.0
 20
2119.0
 21
2119.0
  0
LINE
  8
APS_GEOMETRY
 10
838.0
 11
838.0
 20
2119.0
 21
0.0
  0
LINE
  8
APS_GEOMETRY
 10
838.0
 11
1671.0
 20
0.0
 21
0.0
  0
LINE
  8
APS_GEOMETRY
 10
2509.0
 11
2509.0
 20
0.0
 21
2119.0
  0
LINE
  8
APS_GEOMETRY
 10
2509.0
 11
1676.0
 20
2119.0
 21
2119.0
  0
LINE
  8
APS_GEOMETRY
 10
1676.0
 11
1676.0
 20
2119.0
 21
0.0
  0
LINE
  8
APS_GEOMETRY
 10
1676.0
 11
2509.0
 20
0.0
 21
0.0
  0
LINE
  8
APS_GEOMETRY
 10
3347.0
 11
3347.0
 20
0.0
 21
2119.0
  0
LINE
  8
APS_GEOMETRY
 10
3347.0
 11
2514.0
 20
2119.0
 21
2119.0
  0
LINE
  8
APS_GEOMETRY
 10
2514.0
 11
2514.0
 20
2119.0
 21
0.0
  0
LINE
  8
APS_GEOMETRY
 10
2514.0
 11
3347.0
 20
0.0
 21
0.0
  0
LINE
  8
APS_GEOMETRY
 10
0.0
 11
3760.0
 20
2596.0
 21
2596.0
  0
LINE
  8
APS_GEOMETRY
 10
3760.0
 11
3760.0
 20
2596.0
 21
4796.0
  0
LINE
  8
APS_GEOMETRY
 10
3760.0
 11
0.0
 20
4796.0
 21
4796.0
  0
LINE
  8
APS_GEOMETRY
 10
0.0
 11
0.0
 20
4796.0
 21
2596.0
  0
LINE
  8
QUOTATURA
 10
3760.0
 11
3892.936
 20
4796.0
 21
4928.936
  0
CIRCLE
  8
QUOTATURA
 10
4025.872
 20
5061.872
 40
188.0
  0
LINE
  8
APS_GEOMETRY
 10
733.0
 11
733.0
 20
2596.0
 21
4715.0
  0
LINE
  8
APS_GEOMETRY
 10
733.0
 11
0.0
 20
4715.0
 21
4715.0
  0
LINE
  8
APS_GEOMETRY
 10
0.0
 11
0.0
 20
4715.0
 21
2596.0
  0
LINE
  8
APS_GEOMETRY
 10
0.0
 11
733.0
 20
2596.0
 21
2596.0
  0
LINE
  8
APS_GEOMETRY
 10
1571.0
 11
1571.0
 20
2596.0
 21
4715.0
  0
LINE
  8
APS_GEOMETRY
 10
1571.0
 11
738.0
 20
4715.0
 21
4715.0
  0
LINE
  8
APS_GEOMETRY
 10
738.0
 11
738.0
 20
4715.0
 21
2596.0
  0
LINE
  8
APS_GEOMETRY
 10
738.0
 11
1571.0
 20
2596.0
 21
2596.0
  0
LINE
  8
APS_GEOMETRY
 10
1984.0
 11
1984.0
 20
2596.0
 21
4681.0
  0
LINE
  8
APS_GEOMETRY
 10
1984.0
 11
1576.0
 20
4681.0
 21
4681.0
  0
LINE
  8
APS_GEOMETRY
 10
1576.0
 11
1576.0
 20
4681.0
 21
2596.0
  0
LINE
  8
APS_GEOMETRY
 10
1576.0
 11
1984.0
 20
2596.0
 21
2596.0
  0
LINE
  8
APS_GEOMETRY
 10
2822.0
 11
2822.0
 20
2596.0
 21
4715.0
  0
LINE
  8
APS_GEOMETRY
 10
2822.0
 11
1989.0
 20
4715.0
 21
4715.0
  0
LINE
  8
APS_GEOMETRY
 10
1989.0
 11
1989.0
 20
4715.0
 21
2596.0
  0
LINE
  8
APS_GEOMETRY
 10
1989.0
 11
2822.0
 20
2596.0
 21
2596.0
  0
LINE
  8
APS_GEOMETRY
 10
3560.0
 11
3560.0
 20
2596.0
 21
4715.0
  0
LINE
  8
APS_GEOMETRY
 10
3560.0
 11
2827.0
 20
4715.0
 21
4715.0
  0
LINE
  8
APS_GEOMETRY
 10
2827.0
 11
2827.0
 20
4715.0
 21
2596.0
  0
LINE
  8
APS_GEOMETRY
 10
2827.0
 11
3560.0
 20
2596.0
 21
2596.0
  0
LINE
  8
APS_GEOMETRY
 10
4436.8
 11
8196.8
 20
2596.0
 21
2596.0
  0
LINE
  8
APS_GEOMETRY
 10
8196.8
 11
8196.8
 20
2596.0
 21
4796.0
  0
LINE
  8
APS_GEOMETRY
 10
8196.8
 11
4436.8
 20
4796.0
 21
4796.0
  0
LINE
  8
APS_GEOMETRY
 10
4436.8
 11
4436.8
 20
4796.0
 21
2596.0
  0
LINE
  8
QUOTATURA
 10
8196.8
 11
8329.736
 20
4796.0
 21
4928.936
  0
CIRCLE
  8
QUOTATURA
 10
8462.672
 20
5061.872
 40
188.0
  0
LINE
  8
APS_GEOMETRY
 10
5169.8
 11
5169.8
 20
2596.0
 21
4715.0
  0
LINE
  8
APS_GEOMETRY
 10
5169.8
 11
4436.8
 20
4715.0
 21
4715.0
  0
LINE
  8
APS_GEOMETRY
 10
4436.8
 11
4436.8
 20
4715.0
 21
2596.0
  0
LINE
  8
APS_GEOMETRY
 10
4436.8
 11
5169.8
 20
2596.0
 21
2596.0
  0
LINE
  8
APS_GEOMETRY
 10
5907.8
 11
5907.8
 20
2596.0
 21
4715.0
  0
LINE
  8
APS_GEOMETRY
 10
5907.8
 11
5174.8
 20
4715.0
 21
4715.0
  0
LINE
  8
APS_GEOMETRY
 10
5174.8
 11
5174.8
 20
4715.0
 21
2596.0
  0
LINE
  8
APS_GEOMETRY
 10
5174.8
 11
5907.8
 20
2596.0
 21
2596.0
  0
LINE
  8
APS_GEOMETRY
 10
6645.8
 11
6645.8
 20
2596.0
 21
4715.0
  0
LINE
  8
APS_GEOMETRY
 10
6645.8
 11
5912.8
 20
4715.0
 21
4715.0
  0
LINE
  8
APS_GEOMETRY
 10
5912.8
 11
5912.8
 20
4715.0
 21
2596.0
  0
LINE
  8
APS_GEOMETRY
 10
5912.8
 11
6645.8
 20
2596.0
 21
2596.0
  0
LINE
  8
APS_GEOMETRY
 10
7383.8
 11
7383.8
 20
2596.0
 21
4715.0
  0
LINE
  8
APS_GEOMETRY
 10
7383.8
 11
6650.8
 20
4715.0
 21
4715.0
  0
LINE
  8
APS_GEOMETRY
 10
6650.8
 11
6650.8
 20
4715.0
 21
2596.0
  0
LINE
  8
APS_GEOMETRY
 10
6650.8
 11
7383.8
 20
2596.0
 21
2596.0
  0
LINE
  8
APS_GEOMETRY
 10
8121.8
 11
8121.8
 20
2596.0
 21
4715.0
  0
LINE
  8
APS_GEOMETRY
 10
8121.8
 11
7388.8
 20
4715.0
 21
4715.0
  0
LINE
  8
APS_GEOMETRY
 10
7388.8
 11
7388.8
 20
4715.0
 21
2596.0
  0
LINE
  8
APS_GEOMETRY
 10
7388.8
 11
8121.8
 20
2596.0
 21
2596.0
  0
LINE
  8
APS_GEOMETRY
 10
8873.6
 11
12633.6
 20
2596.0
 21
2596.0
  0
LINE
  8
APS_GEOMETRY
 10
12633.6
 11
12633.6
 20
2596.0
 21
4796.0
  0
LINE
  8
APS_GEOMETRY
 10
12633.6
 11
8873.6
 20
4796.0
 21
4796.0
  0
LINE
  8
APS_GEOMETRY
 10
8873.6
 11
8873.6
 20
4796.0
 21
2596.0
  0
LINE
  8
QUOTATURA
 10
12633.6
 11
12766.536
 20
4796.0
 21
4928.936
  0
CIRCLE
  8
QUOTATURA
 10
12899.472
 20
5061.872
 40
188.0
  0
LINE
  8
APS_GEOMETRY
 10
9281.6
 11
9281.6
 20
2596.0
 21
4681.0
  0
LINE
  8
APS_GEOMETRY
 10
9281.6
 11
8873.6
 20
4681.0
 21
4681.0
  0
LINE
  8
APS_GEOMETRY
 10
8873.6
 11
8873.6
 20
4681.0
 21
2596.0
  0
LINE
  8
APS_GEOMETRY
 10
8873.6
 11
9281.6
 20
2596.0
 21
2596.0
  0
LINE
  8
APS_GEOMETRY
 10
10019.6
 11
10019.6
 20
2596.0
 21
4715.0
  0
LINE
  8
APS_GEOMETRY
 10
10019.6
 11
9286.6
 20
4715.0
 21
4715.0
  0
LINE
  8
APS_GEOMETRY
 10
9286.6
 11
9286.6
 20
4715.0
 21
2596.0
  0
LINE
  8
APS_GEOMETRY
 10
9286.6
 11
10019.6
 20
2596.0
 21
2596.0
  0
LINE
  8
APS_GEOMETRY
 10
10432.6
 11
10432.6
 20
2596.0
 21
4681.0
  0
LINE
  8
APS_GEOMETRY
 10
10432.6
 11
10024.6
 20
4681.0
 21
4681.0
  0
LINE
  8
APS_GEOMETRY
 10
10024.6
 11
10024.6
 20
4681.0
 21
2596.0
  0
LINE
  8
APS_GEOMETRY
 10
10024.6
 11
10432.6
 20
2596.0
 21
2596.0
  0
LINE
  8
APS_GEOMETRY
 10
11170.6
 11
11170.6
 20
2596.0
 21
4715.0
  0
LINE
  8
APS_GEOMETRY
 10
11170.6
 11
10437.6
 20
4715.0
 21
4715.0
  0
LINE
  8
APS_GEOMETRY
 10
10437.6
 11
10437.6
 20
4715.0
 21
2596.0
  0
LINE
  8
APS_GEOMETRY
 10
10437.6
 11
11170.6
 20
2596.0
 21
2596.0
  0
LINE
  8
APS_GEOMETRY
 10
11583.6
 11
11583.6
 20
2596.0
 21
4681.0
  0
LINE
  8
APS_GEOMETRY
 10
11583.6
 11
11175.6
 20
4681.0
 21
4681.0
  0
LINE
  8
APS_GEOMETRY
 10
11175.6
 11
11175.6
 20
4681.0
 21
2596.0
  0
LINE
  8
APS_GEOMETRY
 10
11175.6
 11
11583.6
 20
2596.0
 21
2596.0
  0
LINE
  8
APS_GEOMETRY
 10
12321.6
 11
12321.6
 20
2596.0
 21
4715.0
  0
LINE
  8
APS_GEOMETRY
 10
12321.6
 11
11588.6
 20
4715.0
 21
4715.0
  0
LINE
  8
APS_GEOMETRY
 10
11588.6
 11
11588.6
 20
4715.0
 21
2596.0
  0
LINE
  8
APS_GEOMETRY
 10
11588.6
 11
12321.6
 20
2596.0
 21
2596.0
  0
TEXT
  8
QUOTATURA
 10
1701.984
 20
-268.516
 30
0.0
 40
100.0
 50
0.0
  1
3760
  0
TEXT
  8
QUOTATURA
 10
-524.147
 20
1050.0
 30
0.0
 40
100.0
 50
0.0
  1
2200
  0
TEXT
  8
TEXT
 10
3892.936
 20
2362.626
 30
0.0
 40
206.491
 50
0.0
  1
A1
  0
TEXT
  8
TEXT
 10
812.105
 20
22.344
 30
0.0
 40
100.0
 50
90.0
  1
833x2119
  0
TEXT
  8
TEXT
 10
309.245
 20
920.529
 30
0.0
 40
277.667
 50
0.0
  1
3
  0
TEXT
  8
TEXT
 10
1650.105
 20
22.344
 30
0.0
 40
100.0
 50
90.0
  1
833x2119
  0
TEXT
  8
TEXT
 10
1147.245
 20
920.529
 30
0.0
 40
277.667
 50
0.0
  1
3
  0
TEXT
  8
TEXT
 10
2488.105
 20
22.344
 30
0.0
 40
100.0
 50
90.0
  1
833x2119
  0
TEXT
  8
TEXT
 10
1985.245
 20
920.529
 30
0.0
 40
277.667
 50
0.0
  1
3
  0
TEXT
  8
TEXT
 10
3326.105
 20
22.344
 30
0.0
 40
100.0
 50
90.0
  1
833x2119
  0
TEXT
  8
TEXT
 10
2823.245
 20
920.529
 30
0.0
 40
277.667
 50
0.0
  1
3
  0
TEXT
  8
TEXT
 10
3892.936
 20
4979.361
 30
0.0
 40
165.024
 50
0.0
  1
A2
  0
TEXT
  8
TEXT
 10
713.963
 20
2612.065
 30
0.0
 40
100.0
 50
90.0
  1
733x2119
  0
TEXT
  8
TEXT
 10
285.056
 20
3533.334
 30
0.0
 40
244.333
 50
0.0
  1
2
  0
TEXT
  8
TEXT
 10
1550.105
 20
2618.344
 30
0.0
 40
100.0
 50
90.0
  1
833x2119
  0
TEXT
  8
TEXT
 10
1047.245
 20
3516.529
 30
0.0
 40
277.667
 50
0.0
  1
3
  0
TEXT
  8
TEXT
 10
1969.751
 20
2616.108
 30
0.0
 40
100.0
 50
90.0
  1
408x2085
  0
TEXT
  8
TEXT
 10
1756.667
 20
3570.5
 30
0.0
 40
136.0
 50
0.0
  1
1
  0
TEXT
  8
TEXT
 10
2801.105
 20
2618.344
 30
0.0
 40
100.0
 50
90.0
  1
833x2119
  0
TEXT
  8
TEXT
 10
2298.245
 20
3516.529
 30
0.0
 40
277.667
 50
0.0
  1
3
  0
TEXT
  8
TEXT
 10
3540.963
 20
2612.065
 30
0.0
 40
100.0
 50
90.0
  1
733x2119
  0
TEXT
  8
TEXT
 10
3112.056
 20
3533.334
 30
0.0
 40
244.333
 50
0.0
  1
2
  0
TEXT
  8
TEXT
 10
8329.736
 20
4983.221
 30
0.0
 40
157.303
 50
0.0
  1
A3
  0
TEXT
  8
TEXT
 10
5150.763
 20
2612.065
 30
0.0
 40
100.0
 50
90.0
  1
733x2119
  0
TEXT
  8
TEXT
 10
4721.856
 20
3533.334
 30
0.0
 40
244.333
 50
0.0
  1
2
  0
TEXT
  8
TEXT
 10
5888.763
 20
2612.065
 30
0.0
 40
100.0
 50
90.0
  1
733x2119
  0
TEXT
  8
TEXT
 10
5459.856
 20
3533.334
 30
0.0
 40
244.333
 50
0.0
  1
2
  0
TEXT
  8
TEXT
 10
6626.763
 20
2612.065
 30
0.0
 40
100.0
 50
90.0
  1
733x2119
  0
TEXT
  8
TEXT
 10
6197.856
 20
3533.334
 30
0.0
 40
244.333
 50
0.0
  1
2
  0
TEXT
  8
TEXT
 10
7364.763
 20
2612.065
 30
0.0
 40
100.0
 50
90.0
  1
733x2119
  0
TEXT
  8
TEXT
 10
6935.856
 20
3533.334
 30
0.0
 40
244.333
 50
0.0
  1
2
  0
TEXT
  8
TEXT
 10
8102.763
 20
2612.065
 30
0.0
 40
100.0
 50
90.0
  1
733x2119
  0
TEXT
  8
TEXT
 10
7673.856
 20
3533.334
 30
0.0
 40
244.333
 50
0.0
  1
2
  0
TEXT
  8
TEXT
 10
12766.536
 20
4988.333
 30
0.0
 40
147.079
 50
0.0
  1
A4
  0
TEXT
  8
TEXT
 10
9267.351
 20
2616.108
 30
0.0
 40
100.0
 50
90.0
  1
408x2085
  0
TEXT
  8
TEXT
 10
9054.267
 20
3570.5
 30
0.0
 40
136.0
 50
0.0
  1
1
  0
TEXT
  8
TEXT
 10
10000.563
 20
2612.065
 30
0.0
 40
100.0
 50
90.0
  1
733x2119
  0
TEXT
  8
TEXT
 10
9571.656
 20
3533.334
 30
0.0
 40
244.333
 50
0.0
  1
2
  0
TEXT
  8
TEXT
 10
10418.351
 20
2616.108
 30
0.0
 40
100.0
 50
90.0
  1
408x2085
  0
TEXT
  8
TEXT
 10
10205.267
 20
3570.5
 30
0.0
 40
136.0
 50
0.0
  1
1
  0
TEXT
  8
TEXT
 10
11151.563
 20
2612.065
 30
0.0
 40
100.0
 50
90.0
  1
733x2119
  0
TEXT
  8
TEXT
 10
10722.656
 20
3533.334
 30
0.0
 40
244.333
 50
0.0
  1
2
  0
TEXT
  8
TEXT
 10
11569.351
 20
2616.108
 30
0.0
 40
100.0
 50
90.0
  1
408x2085
  0
TEXT
  8
TEXT
 10
11356.267
 20
3570.5
 30
0.0
 40
136.0
 50
0.0
  1
1
  0
TEXT
  8
TEXT
 10
12302.563
 20
2612.065
 30
0.0
 40
100.0
 50
90.0
  1
733x2119
  0
TEXT
  8
TEXT
 10
11873.656
 20
3533.334
 30
0.0
 40
244.333
 50
0.0
  1
2
  0
ENDSEC
  0
EOF
