  0
SECTION
  2
ENTITIES
  0
LINE
  8
APS_GEOMETRY
 10
836.0
 11
836.0
 20
0.0
 21
4.5
  0
LINE
  8
APS_GEOMETRY
 10
44.0
 11
44.0
 20
4.5
 21
0.0
  0
LINE
  8
APS_GEOMETRY
 10
36.5
 11
11.0
 20
2103.5
 21
2129.0
  0
LINE
  8
APS_GEOMETRY
 10
843.5
 11
869.0
 20
2103.5
 21
2129.0
  0
LINE
  8
APS_GEOMETRY
 10
843.5
 11
843.5
 20
4.5
 21
2103.5
  0
LINE
  8
APS_GEOMETRY
 10
843.5
 11
36.5
 20
2103.5
 21
2103.5
  0
LINE
  8
APS_GEOMETRY
 10
36.5
 11
36.5
 20
2103.5
 21
4.5
  0
LINE
  8
APS_GEOMETRY
 10
36.5
 11
843.5
 20
4.5
 21
4.5
  0
CIRCLE
  8
APS_GEOMETRY
 10
96.5
 20
1044.5
 40
2.0
  0
LINE
  8
APS_GEOMETRY
 10
96.5
 11
196.5
 20
1054.5
 21
1054.5
  0
LINE
  8
APS_GEOMETRY
 10
196.5
 11
196.5
 20
1054.5
 21
1034.5
  0
LINE
  8
APS_GEOMETRY
 10
196.5
 11
86.5
 20
1034.5
 21
1034.5
  0
LINE
  8
APS_GEOMETRY
 10
86.5
 11
86.5
 20
1034.5
 21
1054.5
  0
LINE
  8
APS_GEOMETRY
 10
86.5
 11
186.5
 20
1054.5
 21
1054.5
  0
ARC
  8
APS_GEOMETRY
 10
96.5
 20
943.5
 40
7.0
 50
180.0
 51
360.0
  0
LINE
  8
APS_GEOMETRY
 10
89.5
 11
89.5
 20
943.5
 21
954.5
  0
ARC
  8
APS_GEOMETRY
 10
96.5
 20
954.5
 40
7.0
 50
360.0
 51
180.0
  0
LINE
  8
APS_GEOMETRY
 10
103.5
 11
103.5
 20
954.5
 21
943.5
  0
CIRCLE
  8
APS_GEOMETRY
 10
96.5
 20
1044.5
 40
1.0
  0
LINE
  8
APS_GEOMETRY
 10
71.5
 11
71.5
 20
924.0
 21
974.0
  0
LINE
  8
APS_GEOMETRY
 10
71.5
 11
121.5
 20
974.0
 21
974.0
  0
LINE
  8
APS_GEOMETRY
 10
121.5
 11
121.5
 20
974.0
 21
924.0
  0
LINE
  8
APS_GEOMETRY
 10
121.5
 11
71.5
 20
924.0
 21
924.0
  0
LINE
  8
APS_GEOMETRY
 10
121.5
 11
121.5
 20
1034.5
 21
1019.5
  0
LINE
  8
APS_GEOMETRY
 10
121.5
 11
71.5
 20
1019.5
 21
1019.5
  0
LINE
  8
APS_GEOMETRY
 10
71.5
 11
71.5
 20
1019.5
 21
1069.5
  0
LINE
  8
APS_GEOMETRY
 10
71.5
 11
121.5
 20
1069.5
 21
1069.5
  0
LINE
  8
APS_GEOMETRY
 10
121.5
 11
121.5
 20
1069.5
 21
1054.5
  0
LINE
  8
APS_GEOMETRY
 10
934.5
 11
880.0
 20
-106.191
 21
-106.191
  0
LINE
  8
APS_GEOMETRY
 10
880.0
 11
880.0
 20
-106.191
 21
-109.191
  0
LINE
  8
APS_GEOMETRY
 10
880.0
 11
875.5
 20
-109.191
 21
-109.191
  0
LINE
  8
APS_GEOMETRY
 10
875.5
 11
875.5
 20
-109.191
 21
-119.691
  0
LINE
  8
APS_GEOMETRY
 10
875.5
 11
874.0
 20
-119.691
 21
-121.191
  0
LINE
  8
APS_GEOMETRY
 10
874.0
 11
871.5
 20
-121.191
 21
-121.191
  0
LINE
  8
APS_GEOMETRY
 10
871.5
 11
871.5
 20
-121.191
 21
-103.191
  0
ARC
  8
APS_GEOMETRY
 10
875.5
 20
-103.191
 40
4.0
 50
90.0
 51
180.0
  0
LINE
  8
APS_GEOMETRY
 10
875.5
 11
936.5
 20
-99.191
 21
-99.191
  0
ARC
  8
APS_GEOMETRY
 10
936.5
 20
-103.191
 40
4.0
 50
360.0
 51
90.0
  0
LINE
  8
APS_GEOMETRY
 10
940.5
 11
940.5
 20
-103.191
 21
-109.191
  0
LINE
  8
APS_GEOMETRY
 10
940.5
 11
934.5
 20
-109.191
 21
-109.191
  0
LINE
  8
APS_GEOMETRY
 10
934.5
 11
934.5
 20
-109.191
 21
-106.191
  0
LINE
  8
APS_GEOMETRY
 10
932.5
 11
878.0
 20
-230.191
 21
-230.191
  0
LINE
  8
APS_GEOMETRY
 10
878.0
 11
878.0
 20
-230.191
 21
-227.191
  0
LINE
  8
APS_GEOMETRY
 10
878.0
 11
873.5
 20
-227.191
 21
-227.191
  0
LINE
  8
APS_GEOMETRY
 10
873.5
 11
873.5
 20
-227.191
 21
-216.691
  0
LINE
  8
APS_GEOMETRY
 10
873.5
 11
872.0
 20
-216.691
 21
-215.191
  0
LINE
  8
APS_GEOMETRY
 10
872.0
 11
869.5
 20
-215.191
 21
-215.191
  0
LINE
  8
APS_GEOMETRY
 10
869.5
 11
869.5
 20
-215.191
 21
-233.191
  0
ARC
  8
APS_GEOMETRY
 10
873.5
 20
-233.191
 40
4.0
 50
180.0
 51
270.0
  0
LINE
  8
APS_GEOMETRY
 10
873.5
 11
934.5
 20
-237.191
 21
-237.191
  0
ARC
  8
APS_GEOMETRY
 10
934.5
 20
-233.191
 40
4.0
 50
270.0
 51
0.0
  0
LINE
  8
APS_GEOMETRY
 10
938.5
 11
938.5
 20
-233.191
 21
-227.191
  0
LINE
  8
APS_GEOMETRY
 10
938.5
 11
932.5
 20
-227.191
 21
-227.191
  0
LINE
  8
APS_GEOMETRY
 10
932.5
 11
932.5
 20
-227.191
 21
-230.191
  0
LINE
  8
COSTRUZIONI
 10
25.8
 11
43.5
 20
-128.691
 21
-128.691
  0
LINE
  8
COSTRUZIONI
 10
43.5
 11
43.5
 20
-128.691
 21
-132.191
  0
LINE
  8
COSTRUZIONI
 10
43.5
 11
25.8
 20
-132.191
 21
-132.191
  0
LINE
  8
COSTRUZIONI
 10
25.8
 11
25.8
 20
-132.191
 21
-128.691
  0
ARC
  8
APS_GEOMETRY
 10
43.0
 20
-133.191
 40
1.0
 50
360.0
 51
90.0
  0
LINE
  8
APS_GEOMETRY
 10
-54.5
 11
0.0
 20
-106.191
 21
-106.191
  0
LINE
  8
APS_GEOMETRY
 10
0.0
 11
0.0
 20
-106.191
 21
-109.191
  0
LINE
  8
APS_GEOMETRY
 10
0.0
 11
4.5
 20
-109.191
 21
-109.191
  0
LINE
  8
APS_GEOMETRY
 10
4.5
 11
4.5
 20
-109.191
 21
-119.691
  0
LINE
  8
APS_GEOMETRY
 10
4.5
 11
6.0
 20
-119.691
 21
-121.191
  0
LINE
  8
APS_GEOMETRY
 10
6.0
 11
8.5
 20
-121.191
 21
-121.191
  0
LINE
  8
APS_GEOMETRY
 10
8.5
 11
8.5
 20
-121.191
 21
-103.191
  0
ARC
  8
APS_GEOMETRY
 10
4.5
 20
-103.191
 40
4.0
 50
0.0
 51
90.0
  0
LINE
  8
APS_GEOMETRY
 10
4.5
 11
-56.5
 20
-99.191
 21
-99.191
  0
ARC
  8
APS_GEOMETRY
 10
-56.5
 20
-103.191
 40
4.0
 50
90.0
 51
180.0
  0
LINE
  8
APS_GEOMETRY
 10
-60.5
 11
-60.5
 20
-103.191
 21
-109.191
  0
LINE
  8
APS_GEOMETRY
 10
-60.5
 11
-54.5
 20
-109.191
 21
-109.191
  0
LINE
  8
APS_GEOMETRY
 10
-54.5
 11
-54.5
 20
-109.191
 21
-106.191
  0
LINE
  8
APS_GEOMETRY
 10
-52.5
 11
2.0
 20
-230.191
 21
-230.191
  0
LINE
  8
APS_GEOMETRY
 10
2.0
 11
2.0
 20
-230.191
 21
-227.191
  0
LINE
  8
APS_GEOMETRY
 10
2.0
 11
6.5
 20
-227.191
 21
-227.191
  0
LINE
  8
APS_GEOMETRY
 10
6.5
 11
6.5
 20
-227.191
 21
-216.691
  0
LINE
  8
APS_GEOMETRY
 10
6.5
 11
8.0
 20
-216.691
 21
-215.191
  0
LINE
  8
APS_GEOMETRY
 10
8.0
 11
10.5
 20
-215.191
 21
-215.191
  0
LINE
  8
APS_GEOMETRY
 10
10.5
 11
10.5
 20
-215.191
 21
-233.191
  0
ARC
  8
APS_GEOMETRY
 10
6.5
 20
-233.191
 40
4.0
 50
270.0
 51
360.0
  0
LINE
  8
APS_GEOMETRY
 10
6.5
 11
-54.5
 20
-237.191
 21
-237.191
  0
ARC
  8
APS_GEOMETRY
 10
-54.5
 20
-233.191
 40
4.0
 50
180.0
 51
270.0
  0
LINE
  8
APS_GEOMETRY
 10
-58.5
 11
-58.5
 20
-233.191
 21
-227.191
  0
LINE
  8
APS_GEOMETRY
 10
-58.5
 11
-52.5
 20
-227.191
 21
-227.191
  0
LINE
  8
APS_GEOMETRY
 10
-52.5
 11
-52.5
 20
-227.191
 21
-230.191
  0
LINE
  8
COSTRUZIONI
 10
854.2
 11
836.5
 20
-128.691
 21
-128.691
  0
LINE
  8
COSTRUZIONI
 10
836.5
 11
836.5
 20
-128.691
 21
-132.191
  0
LINE
  8
COSTRUZIONI
 10
836.5
 11
854.2
 20
-132.191
 21
-132.191
  0
LINE
  8
COSTRUZIONI
 10
854.2
 11
854.2
 20
-132.191
 21
-128.691
  0
LINE
  8
APS_GEOMETRY
 10
869.0
 11
869.0
 20
0.0
 21
2129.0
  0
LINE
  8
APS_GEOMETRY
 10
869.0
 11
11.0
 20
2129.0
 21
2129.0
  0
LINE
  8
APS_GEOMETRY
 10
11.0
 11
11.0
 20
2129.0
 21
0.0
  0
LINE
  8
APS_GEOMETRY
 10
938.0
 11
938.0
 20
0.0
 21
2198.0
  0
LINE
  8
APS_GEOMETRY
 10
938.0
 11
-58.0
 20
2198.0
 21
2198.0
  0
LINE
  8
APS_GEOMETRY
 10
-58.0
 11
-58.0
 20
2198.0
 21
0.0
  0
LINE
  8
COSTRUZIONI
 10
-643.063
 11
1356.937
 20
-594.097
 21
-594.097
  0
LINE
  8
COSTRUZIONI
 10
1356.937
 11
1356.937
 20
-594.097
 21
-394.097
  0
LINE
  8
COSTRUZIONI
 10
1356.937
 11
-643.063
 20
-394.097
 21
-394.097
  0
LINE
  8
COSTRUZIONI
 10
-643.063
 11
-643.063
 20
-394.097
 21
-594.097
  0
LINE
  8
COSTRUZIONI
 10
356.937
 11
356.937
 20
-594.097
 21
-394.097
  0
LINE
  8
COSTRUZIONI
 10
356.937
 11
1356.937
 20
-494.097
 21
-494.097
  0
LINE
  8
COSTRUZIONI
 10
856.937
 11
856.937
 20
-594.097
 21
-394.097
  0
LINE
  8
APS_GEOMETRY
 10
-580.378
 11
-563.143
 20
-448.082
 21
-448.082
  0
ARC
  8
APS_GEOMETRY
 10
-564.014
 20
-423.387
 40
24.711
 50
272.021
 51
278.44
  0
ARC
  8
APS_GEOMETRY
 10
-563.042
 20
-429.942
 40
18.083
 50
278.44
 51
285.945
  0
ARC
  8
APS_GEOMETRY
 10
-555.725
 20
-456.14
 40
9.118
 50
98.584
 51
104.931
  0
ARC
  8
APS_GEOMETRY
 10
-556.341
 20
-452.059
 40
4.991
 50
90.0
 51
98.584
  0
ARC
  8
APS_GEOMETRY
 10
-556.341
 20
-450.82
 40
3.752
 50
52.871
 51
90.0
  0
ARC
  8
APS_GEOMETRY
 10
-561.429
 20
-457.541
 40
12.182
 50
32.518
 51
52.871
  0
ARC
  8
APS_GEOMETRY
 10
-565.46
 20
-460.111
 40
16.963
 50
17.209
 51
32.518
  0
ARC
  8
APS_GEOMETRY
 10
-562.101
 20
-459.071
 40
13.445
 50
360.0
 51
17.209
  0
ARC
  8
APS_GEOMETRY
 10
-555.373
 20
-459.071
 40
6.717
 50
337.348
 51
360.0
  0
ARC
  8
APS_GEOMETRY
 10
-552.673
 20
-460.197
 40
3.792
 50
307.042
 51
337.348
  0
ARC
  8
APS_GEOMETRY
 10
-553.142
 20
-459.553
 40
4.589
 50
287.186
 51
306.87
  0
ARC
  8
APS_GEOMETRY
 10
-553.561
 20
-458.199
 40
6.006
 50
270.0
 51
287.186
  0
ARC
  8
APS_GEOMETRY
 10
-553.561
 20
-458.812
 40
5.393
 50
252.221
 51
270.0
  0
ARC
  8
APS_GEOMETRY
 10
-553.812
 20
-459.595
 40
4.571
 50
232.896
 51
252.221
  0
ARC
  8
APS_GEOMETRY
 10
-552.841
 20
-458.312
 40
6.18
 50
218.3
 51
232.896
  0
ARC
  8
APS_GEOMETRY
 10
-545.261
 20
-452.325
 40
15.839
 50
209.197
 51
218.3
  0
ARC
  8
APS_GEOMETRY
 10
-583.815
 20
-473.213
 40
28.012
 50
28.025
 51
32.699
  0
ARC
  8
APS_GEOMETRY
 10
-563.659
 20
-460.273
 40
4.06
 50
32.699
 51
45.0
  0
ARC
  8
APS_GEOMETRY
 10
-562.284
 20
-458.899
 40
2.116
 50
45.0
 51
67.557
  0
ARC
  8
APS_GEOMETRY
 10
-562.293
 20
-458.919
 40
2.137
 50
67.557
 51
90.0
  0
ARC
  8
APS_GEOMETRY
 10
-562.293
 20
-458.75
 40
1.969
 50
90.0
 51
120.801
  0
ARC
  8
APS_GEOMETRY
 10
-562.359
 20
-458.639
 40
1.839
 50
120.801
 51
152.7
  0
ARC
  8
APS_GEOMETRY
 10
-560.9
 20
-459.391
 40
3.481
 50
152.7
 51
171.085
  0
ARC
  8
APS_GEOMETRY
 10
-549.811
 20
-461.131
 40
14.705
 50
171.085
 51
180.0
  0
LINE
  8
APS_GEOMETRY
 10
-564.516
 11
-564.516
 20
-461.131
 21
-479.445
  0
ARC
  8
APS_GEOMETRY
 10
-545.089
 20
-479.445
 40
19.427
 50
180.0
 51
188.194
  0
ARC
  8
APS_GEOMETRY
 10
-559.597
 20
-481.534
 40
4.77
 50
188.194
 51
204.775
  0
ARC
  8
APS_GEOMETRY
 10
-561.006
 20
-482.184
 40
3.218
 50
204.775
 51
228.576
  0
ARC
  8
APS_GEOMETRY
 10
-559.684
 20
-480.686
 40
5.216
 50
228.576
 51
247.218
  0
ARC
  8
APS_GEOMETRY
 10
-567.353
 20
-498.758
 40
14.416
 50
59.381
 51
66.93
  0
ARC
  8
APS_GEOMETRY
 10
-561.692
 20
-489.192
 40
3.301
 50
43.568
 51
59.381
  0
ARC
  8
APS_GEOMETRY
 10
-560.786
 20
-488.331
 40
2.051
 50
19.041
 51
43.568
  0
ARC
  8
APS_GEOMETRY
 10
-562.044
 20
-488.765
 40
3.382
 50
360.0
 51
19.041
  0
ARC
  8
APS_GEOMETRY
 10
-561.41
 20
-488.765
 40
2.747
 50
317.66
 51
360.0
  0
ARC
  8
APS_GEOMETRY
 10
-563.932
 20
-486.467
 40
6.16
 50
289.747
 51
317.66
  0
ARC
  8
APS_GEOMETRY
 10
-566.045
 20
-480.582
 40
12.412
 50
281.964
 51
289.747
  0
ARC
  8
APS_GEOMETRY
 10
-568.972
 20
-466.77
 40
26.531
 50
276.643
 51
281.964
  0
ARC
  8
APS_GEOMETRY
 10
-570.203
 20
-456.195
 40
37.178
 50
272.836
 51
276.643
  0
ARC
  8
APS_GEOMETRY
 10
-571.678
 20
-426.419
 40
66.99
 50
270.0
 51
272.836
  0
ARC
  8
APS_GEOMETRY
 10
-571.678
 20
-407.969
 40
85.44
 50
267.283
 51
270.0
  0
ARC
  8
APS_GEOMETRY
 10
-573.472
 20
-445.772
 40
47.595
 50
263.643
 51
267.283
  0
ARC
  8
APS_GEOMETRY
 10
-574.975
 20
-459.256
 40
34.027
 50
258.563
 51
263.643
  0
ARC
  8
APS_GEOMETRY
 10
-578.563
 20
-476.995
 40
15.929
 50
251.136
 51
258.563
  0
ARC
  8
APS_GEOMETRY
 10
-581.768
 20
-486.288
 40
6.099
 50
222.558
 51
251.395
  0
ARC
  8
APS_GEOMETRY
 10
-584.145
 20
-488.471
 40
2.871
 50
180.0
 51
222.558
  0
ARC
  8
APS_GEOMETRY
 10
-584.625
 20
-488.471
 40
2.392
 50
150.642
 51
180.0
  0
ARC
  8
APS_GEOMETRY
 10
-584.433
 20
-488.579
 40
2.612
 50
122.574
 51
150.642
  0
ARC
  8
APS_GEOMETRY
 10
-584.94
 20
-487.996
 40
1.851
 50
108.677
 51
119.055
  0
ARC
  8
APS_GEOMETRY
 10
-561.824
 20
-556.38
 40
74.036
 50
107.038
 51
108.677
  0
ARC
  8
APS_GEOMETRY
 10
-584.379
 20
-482.617
 40
3.099
 50
286.144
 51
308.66
  0
ARC
  8
APS_GEOMETRY
 10
-583.871
 20
-483.251
 40
2.287
 50
308.66
 51
334.933
  0
ARC
  8
APS_GEOMETRY
 10
-585.936
 20
-482.285
 40
4.566
 50
334.933
 51
348.829
  0
ARC
  8
APS_GEOMETRY
 10
-611.762
 20
-477.185
 40
30.891
 50
348.829
 51
354.161
  0
ARC
  8
APS_GEOMETRY
 10
-629.218
 20
-475.386
 40
48.439
 50
354.144
 51
355.66
  0
ARC
  8
APS_GEOMETRY
 10
-706.594
 20
-469.514
 40
126.038
 50
355.66
 51
356.6
  0
ARC
  8
APS_GEOMETRY
 10
-765.743
 20
-466.0
 40
185.291
 50
356.6
 51
357.24
  0
ARC
  8
APS_GEOMETRY
 10
-933.568
 20
-457.909
 40
353.311
 50
357.24
 51
357.703
  0
ARC
  8
APS_GEOMETRY
 10
-917.048
 20
-458.571
 40
336.777
 50
357.703
 51
358.674
  0
ARC
  8
APS_GEOMETRY
 10
-761.216
 20
-462.177
 40
180.903
 50
358.674
 51
0.0
  0
ARC
  8
APS_GEOMETRY
 10
-607.122
 20
-462.177
 40
26.81
 50
0.0
 51
6.242
  0
ARC
  8
APS_GEOMETRY
 10
-585.803
 20
-459.846
 40
5.364
 50
6.242
 51
20.225
  0
ARC
  8
APS_GEOMETRY
 10
-582.848
 20
-458.757
 40
2.215
 50
20.225
 51
50.44
  0
ARC
  8
APS_GEOMETRY
 10
-582.274
 20
-458.062
 40
1.314
 50
50.44
 51
90.0
  0
ARC
  8
APS_GEOMETRY
 10
-582.274
 20
-458.511
 40
1.762
 50
90.0
 51
126.747
  0
ARC
  8
APS_GEOMETRY
 10
-579.784
 20
-461.846
 40
5.924
 50
126.747
 51
146.547
  0
ARC
  8
APS_GEOMETRY
 10
-623.772
 20
-432.933
 40
46.715
 50
324.255
 51
326.701
  0
ARC
  8
APS_GEOMETRY
 10
-605.149
 20
-446.337
 40
23.77
 50
320.826
 51
324.255
  0
ARC
  8
APS_GEOMETRY
 10
-599.063
 20
-451.296
 40
15.918
 50
315.722
 51
320.826
  0
ARC
  8
APS_GEOMETRY
 10
-592.068
 20
-458.117
 40
6.149
 50
307.504
 51
315.722
  0
ARC
  8
APS_GEOMETRY
 10
-592.714
 20
-457.255
 40
7.226
 50
291.306
 51
307.405
  0
ARC
  8
APS_GEOMETRY
 10
-591.595
 20
-460.124
 40
4.146
 50
270.0
 51
291.306
  0
ARC
  8
APS_GEOMETRY
 10
-591.595
 20
-460.391
 40
3.879
 50
245.532
 51
270.0
  0
ARC
  8
APS_GEOMETRY
 10
-591.624
 20
-460.456
 40
3.808
 50
220.833
 51
245.532
  0
ARC
  8
APS_GEOMETRY
 10
-591.231
 20
-460.116
 40
4.328
 50
198.684
 51
220.833
  0
ARC
  8
APS_GEOMETRY
 10
-589.59
 20
-459.561
 40
6.06
 50
180.0
 51
198.684
  0
ARC
  8
APS_GEOMETRY
 10
-585.742
 20
-459.561
 40
9.908
 50
168.408
 51
180.0
  0
ARC
  8
APS_GEOMETRY
 10
-579.39
 20
-460.864
 40
16.393
 50
159.402
 51
168.408
  0
ARC
  8
APS_GEOMETRY
 10
-577.427
 20
-461.602
 40
18.49
 50
151.39
 51
159.402
  0
ARC
  8
APS_GEOMETRY
 10
-577.829
 20
-461.383
 40
18.032
 50
143.276
 51
151.39
  0
ARC
  8
APS_GEOMETRY
 10
-582.878
 20
-457.607
 40
11.726
 50
124.216
 51
143.31
  0
ARC
  8
APS_GEOMETRY
 10
-587.376
 20
-450.992
 40
3.728
 50
90.0
 51
124.216
  0
ARC
  8
APS_GEOMETRY
 10
-587.376
 20
-452.649
 40
5.384
 50
82.725
 51
90.0
  0
ARC
  8
APS_GEOMETRY
 10
-587.797
 20
-455.944
 40
8.707
 50
77.005
 51
82.725
  0
ARC
  8
APS_GEOMETRY
 10
-574.948
 20
-393.998
 40
54.561
 50
258.486
 51
260.378
  0
ARC
  8
APS_GEOMETRY
 10
-580.452
 20
-426.463
 40
21.633
 50
260.378
 51
263.382
  0
ARC
  8
APS_GEOMETRY
 10
-580.923
 20
-430.52
 40
17.548
 50
263.382
 51
267.084
  0
ARC
  8
APS_GEOMETRY
 10
-580.378
 20
-419.809
 40
28.273
 50
267.084
 51
270.0
  0
ARC
  8
APS_GEOMETRY
 10
-520.651
 20
-472.948
 40
25.782
 50
71.91
 51
90.0
  0
ARC
  8
APS_GEOMETRY
 10
-519.652
 20
-469.891
 40
22.566
 50
52.561
 51
71.91
  0
ARC
  8
APS_GEOMETRY
 10
-519.914
 20
-469.967
 40
22.786
 50
38.846
 51
52.156
  0
ARC
  8
APS_GEOMETRY
 10
-523.486
 20
-472.844
 40
27.372
 50
26.707
 51
38.846
  0
ARC
  8
APS_GEOMETRY
 10
-522.779
 20
-472.266
 40
26.482
 50
13.868
 51
26.278
  0
ARC
  8
APS_GEOMETRY
 10
-517.679
 20
-471.007
 40
21.229
 50
360.0
 51
13.868
  0
ARC
  8
APS_GEOMETRY
 10
-517.349
 20
-471.007
 40
20.899
 50
339.712
 51
360.0
  0
ARC
  8
APS_GEOMETRY
 10
-518.525
 20
-470.572
 40
22.153
 50
320.013
 51
339.712
  0
ARC
  8
APS_GEOMETRY
 10
-518.72
 20
-470.465
 40
22.372
 50
303.344
 51
320.123
  0
ARC
  8
APS_GEOMETRY
 10
-521.016
 20
-466.976
 40
26.548
 50
287.949
 51
303.344
  0
ARC
  8
APS_GEOMETRY
 10
-521.77
 20
-464.361
 40
29.269
 50
279.039
 51
287.776
  0
ARC
  8
APS_GEOMETRY
 10
-521.468
 20
-466.26
 40
27.346
 50
270.0
 51
279.039
  0
ARC
  8
APS_GEOMETRY
 10
-521.468
 20
-467.595
 40
26.011
 50
257.728
 51
270.0
  0
ARC
  8
APS_GEOMETRY
 10
-521.427
 20
-467.406
 40
26.203
 50
245.501
 51
257.728
  0
ARC
  8
APS_GEOMETRY
 10
-522.9
 20
-470.629
 40
22.66
 50
228.665
 51
245.511
  0
ARC
  8
APS_GEOMETRY
 10
-523.39
 20
-471.186
 40
21.918
 50
211.535
 51
228.665
  0
ARC
  8
APS_GEOMETRY
 10
-522.748
 20
-470.715
 40
22.712
 50
195.642
 51
211.701
  0
ARC
  8
APS_GEOMETRY
 10
-521.574
 20
-470.386
 40
23.931
 50
180.0
 51
195.642
  0
ARC
  8
APS_GEOMETRY
 10
-521.322
 20
-470.386
 40
24.183
 50
162.181
 51
180.0
  0
ARC
  8
APS_GEOMETRY
 10
-523.529
 20
-469.677
 40
21.865
 50
143.434
 51
162.181
  0
ARC
  8
APS_GEOMETRY
 10
-523.826
 20
-469.439
 40
21.485
 50
126.384
 51
143.471
  0
ARC
  8
APS_GEOMETRY
 10
-521.792
 20
-472.2
 40
24.914
 50
110.525
 51
126.384
  0
ARC
  8
APS_GEOMETRY
 10
-521.892
 20
-471.45
 40
24.177
 50
99.77
 51
110.925
  0
ARC
  8
APS_GEOMETRY
 10
-520.651
 20
-478.662
 40
31.496
 50
90.0
 51
99.77
  0
ARC
  8
APS_GEOMETRY
 10
-523.757
 20
-461.36
 40
4.807
 50
90.0
 51
119.604
  0
ARC
  8
APS_GEOMETRY
 10
-523.336
 20
-462.101
 40
5.659
 50
119.604
 51
146.842
  0
ARC
  8
APS_GEOMETRY
 10
-522.49
 20
-462.794
 40
6.748
 50
145.84
 51
164.055
  0
ARC
  8
APS_GEOMETRY
 10
-520.529
 20
-463.355
 40
8.788
 50
164.055
 51
180.0
  0
ARC
  8
APS_GEOMETRY
 10
-508.264
 20
-463.355
 40
21.053
 50
180.0
 51
189.977
  0
ARC
  8
APS_GEOMETRY
 10
-489.613
 20
-460.074
 40
39.991
 50
189.977
 51
197.211
  0
ARC
  8
APS_GEOMETRY
 10
-485.533
 20
-458.81
 40
44.261
 50
197.211
 51
203.76
  0
ARC
  8
APS_GEOMETRY
 10
-495.696
 20
-463.284
 40
33.157
 50
203.76
 51
211.329
  0
ARC
  8
APS_GEOMETRY
 10
-516.564
 20
-475.808
 40
8.821
 50
212.32
 51
224.441
  0
ARC
  8
APS_GEOMETRY
 10
-517.42
 20
-476.647
 40
7.623
 50
224.441
 51
237.484
  0
ARC
  8
APS_GEOMETRY
 10
-517.972
 20
-477.514
 40
6.595
 50
237.484
 51
252.416
  0
ARC
  8
APS_GEOMETRY
 10
-518.525
 20
-479.257
 40
4.766
 50
252.416
 51
270.0
  0
ARC
  8
APS_GEOMETRY
 10
-518.525
 20
-478.692
 40
5.331
 50
270.0
 51
294.953
  0
ARC
  8
APS_GEOMETRY
 10
-518.375
 20
-479.013
 40
4.977
 50
294.953
 51
320.793
  0
ARC
  8
APS_GEOMETRY
 10
-519.176
 20
-478.36
 40
6.011
 50
320.793
 51
342.777
  0
ARC
  8
APS_GEOMETRY
 10
-522.744
 20
-477.254
 40
9.746
 50
342.777
 51
0.0
  0
ARC
  8
APS_GEOMETRY
 10
-539.505
 20
-477.254
 40
26.507
 50
0.0
 51
8.499
  0
ARC
  8
APS_GEOMETRY
 10
-551.172
 20
-478.997
 40
38.304
 50
8.499
 51
15.566
  0
ARC
  8
APS_GEOMETRY
 10
-549.77
 20
-478.606
 40
36.848
 50
15.566
 51
22.909
  0
ARC
  8
APS_GEOMETRY
 10
-537.706
 20
-473.508
 40
23.751
 50
22.909
 51
32.057
  0
ARC
  8
APS_GEOMETRY
 10
-528.23
 20
-467.539
 40
12.552
 50
31.921
 51
42.51
  0
ARC
  8
APS_GEOMETRY
 10
-525.628
 20
-465.153
 40
9.022
 50
42.51
 51
55.008
  0
ARC
  8
APS_GEOMETRY
 10
-524.749
 20
-463.898
 40
7.489
 50
55.008
 51
69.88
  0
ARC
  8
APS_GEOMETRY
 10
-523.961
 20
-461.747
 40
5.198
 50
69.88
 51
87.754
  0
ARC
  8
APS_GEOMETRY
 10
-472.23
 20
-463.15
 40
15.983
 50
83.923
 51
90.0
  0
ARC
  8
APS_GEOMETRY
 10
-473.515
 20
-475.225
 40
28.127
 50
79.342
 51
83.923
  0
ARC
  8
APS_GEOMETRY
 10
-475.066
 20
-483.465
 40
36.512
 50
75.808
 51
79.342
  0
ARC
  8
APS_GEOMETRY
 10
-480.477
 20
-504.86
 40
58.58
 50
73.018
 51
75.808
  0
ARC
  8
APS_GEOMETRY
 10
-461.426
 20
-442.367
 40
6.752
 50
253.288
 51
259.046
  0
ARC
  8
APS_GEOMETRY
 10
-462.353
 20
-447.161
 40
1.87
 50
259.046
 51
270.0
  0
ARC
  8
APS_GEOMETRY
 10
-462.353
 20
-447.921
 40
1.11
 50
270.0
 51
286.699
  0
ARC
  8
APS_GEOMETRY
 10
-471.227
 20
-418.344
 40
31.989
 50
286.699
 51
289.799
  0
ARC
  8
APS_GEOMETRY
 10
-459.337
 20
-451.253
 40
3.002
 50
100.008
 51
110.556
  0
ARC
  8
APS_GEOMETRY
 10
-459.279
 20
-451.58
 40
3.334
 50
90.0
 51
100.008
  0
ARC
  8
APS_GEOMETRY
 10
-459.279
 20
-451.425
 40
3.179
 50
53.356
 51
90.0
  0
ARC
  8
APS_GEOMETRY
 10
-464.833
 20
-458.891
 40
12.484
 50
35.101
 51
53.356
  0
ARC
  8
APS_GEOMETRY
 10
-467.604
 20
-460.839
 40
15.871
 50
20.245
 51
35.101
  0
ARC
  8
APS_GEOMETRY
 10
-460.771
 20
-458.318
 40
8.588
 50
360.0
 51
20.245
  0
ARC
  8
APS_GEOMETRY
 10
-457.332
 20
-458.318
 40
5.15
 50
340.481
 51
360.0
  0
ARC
  8
APS_GEOMETRY
 10
-456.484
 20
-458.619
 40
4.25
 50
318.972
 51
340.481
  0
ARC
  8
APS_GEOMETRY
 10
-456.106
 20
-458.948
 40
3.748
 50
295.017
 51
318.972
  0
ARC
  8
APS_GEOMETRY
 10
-455.976
 20
-459.226
 40
3.442
 50
270.0
 51
295.017
  0
ARC
  8
APS_GEOMETRY
 10
-455.976
 20
-457.383
 40
5.285
 50
256.171
 51
270.0
  0
ARC
  8
APS_GEOMETRY
 10
-456.552
 20
-459.724
 40
2.874
 50
237.381
 51
256.171
  0
ARC
  8
APS_GEOMETRY
 10
-455.532
 20
-458.129
 40
4.768
 50
231.559
 51
237.381
  0
ARC
  8
APS_GEOMETRY
 10
-440.689
 20
-439.43
 40
28.642
 50
229.185
 51
231.559
  0
ARC
  8
APS_GEOMETRY
 10
-424.782
 20
-421.01
 40
52.979
 50
227.9
 51
229.185
  0
ARC
  8
APS_GEOMETRY
 10
-369.729
 20
-360.082
 40
135.095
 50
227.095
 51
227.9
  0
ARC
  8
APS_GEOMETRY
 10
-473.092
 20
-471.244
 40
16.696
 50
46.975
 51
64.612
  0
ARC
  8
APS_GEOMETRY
 10
-469.417
 20
-463.502
 40
8.127
 50
64.612
 51
90.0
  0
ARC
  8
APS_GEOMETRY
 10
-469.417
 20
-461.231
 40
5.856
 50
90.0
 51
106.966
  0
ARC
  8
APS_GEOMETRY
 10
-470.096
 20
-459.007
 40
3.531
 50
106.966
 51
128.868
  0
ARC
  8
APS_GEOMETRY
 10
-470.488
 20
-458.52
 40
2.905
 50
128.868
 51
154.741
  0
ARC
  8
APS_GEOMETRY
 10
-470.361
 20
-458.58
 40
3.046
 50
154.741
 51
180.0
  0
ARC
  8
APS_GEOMETRY
 10
-470.546
 20
-458.58
 40
2.861
 50
180.0
 51
206.64
  0
ARC
  8
APS_GEOMETRY
 10
-469.626
 20
-458.118
 40
3.891
 50
206.64
 51
229.43
  0
ARC
  8
APS_GEOMETRY
 10
-468.15
 20
-456.395
 40
6.159
 50
229.43
 51
244.493
  0
ARC
  8
APS_GEOMETRY
 10
-464.105
 20
-447.916
 40
15.554
 50
244.493
 51
253.956
  0
ARC
  8
APS_GEOMETRY
 10
-536.176
 20
-692.845
 40
239.758
 50
72.737
 51
73.58
  0
ARC
  8
APS_GEOMETRY
 10
-494.872
 20
-559.929
 40
100.573
 50
71.435
 51
72.737
  0
ARC
  8
APS_GEOMETRY
 10
-481.191
 20
-519.195
 40
57.603
 50
69.164
 51
71.435
  0
ARC
  8
APS_GEOMETRY
 10
-465.046
 20
-476.773
 40
12.212
 50
64.231
 51
69.164
  0
ARC
  8
APS_GEOMETRY
 10
-466.903
 20
-480.511
 40
16.387
 50
34.939
 51
64.068
  0
ARC
  8
APS_GEOMETRY
 10
-462.895
 20
-477.712
 40
11.498
 50
360.0
 51
34.939
  0
ARC
  8
APS_GEOMETRY
 10
-465.359
 20
-477.712
 40
13.962
 50
333.435
 51
360.0
  0
ARC
  8
APS_GEOMETRY
 10
-466.272
 20
-477.255
 40
14.982
 50
307.807
 51
333.435
  0
ARC
  8
APS_GEOMETRY
 10
-468.647
 20
-474.183
 40
18.866
 50
296.732
 51
307.786
  0
ARC
  8
APS_GEOMETRY
 10
-470.053
 20
-471.392
 40
21.99
 50
286.496
 51
296.732
  0
ARC
  8
APS_GEOMETRY
 10
-470.978
 20
-468.267
 40
25.25
 50
277.544
 51
286.496
  0
ARC
  8
APS_GEOMETRY
 10
-472.328
 20
-458.076
 40
35.53
 50
270.0
 51
277.544
  0
ARC
  8
APS_GEOMETRY
 10
-472.328
 20
-456.535
 40
37.071
 50
263.555
 51
270.0
  0
ARC
  8
APS_GEOMETRY
 10
-471.128
 20
-445.911
 40
47.762
 50
257.878
 51
263.555
  0
ARC
  8
APS_GEOMETRY
 10
-471.765
 20
-448.877
 40
44.729
 50
254.839
 51
257.878
  0
ARC
  8
APS_GEOMETRY
 10
-476.931
 20
-467.944
 40
24.974
 50
250.772
 51
254.839
  0
ARC
  8
APS_GEOMETRY
 10
-479.255
 20
-474.606
 40
17.918
 50
245.121
 51
250.772
  0
ARC
  8
APS_GEOMETRY
 10
-483.189
 20
-483.089
 40
8.568
 50
236.944
 51
245.121
  0
ARC
  8
APS_GEOMETRY
 10
-485.508
 20
-486.739
 40
4.243
 50
211.802
 51
236.31
  0
ARC
  8
APS_GEOMETRY
 10
-474.484
 20
-479.903
 40
17.215
 50
199.704
 51
211.802
  0
ARC
  8
APS_GEOMETRY
 10
-469.219
 20
-478.018
 40
22.807
 50
190.413
 51
199.704
  0
ARC
  8
APS_GEOMETRY
 10
-473.782
 20
-478.856
 40
18.168
 50
180.0
 51
190.413
  0
ARC
  8
APS_GEOMETRY
 10
-486.081
 20
-478.856
 40
5.869
 50
164.876
 51
180.0
  0
ARC
  8
APS_GEOMETRY
 10
-489.388
 20
-477.963
 40
2.443
 50
141.34
 51
164.876
  0
ARC
  8
APS_GEOMETRY
 10
-489.068
 20
-478.177
 40
2.827
 50
116.928
 51
142.001
  0
ARC
  8
APS_GEOMETRY
 10
-489.236
 20
-477.847
 40
2.457
 50
90.0
 51
116.928
  0
ARC
  8
APS_GEOMETRY
 10
-489.236
 20
-477.853
 40
2.464
 50
62.21
 51
90.0
  0
ARC
  8
APS_GEOMETRY
 10
-490.219
 20
-479.72
 40
4.573
 50
41.906
 51
62.21
  0
ARC
  8
APS_GEOMETRY
 10
-490.052
 20
-479.755
 40
4.475
 50
37.313
 51
43.668
  0
ARC
  8
APS_GEOMETRY
 10
-515.12
 20
-498.86
 40
35.993
 50
35.074
 51
37.313
  0
ARC
  8
APS_GEOMETRY
 10
-543.588
 20
-518.848
 40
70.777
 50
33.934
 51
35.074
  0
ARC
  8
APS_GEOMETRY
 10
-645.085
 20
-587.138
 40
193.11
 50
33.243
 51
33.934
  0
ARC
  8
APS_GEOMETRY
 10
-477.966
 20
-477.568
 40
6.727
 50
213.453
 51
231.637
  0
ARC
  8
APS_GEOMETRY
 10
-474.787
 20
-473.552
 40
11.848
 50
231.637
 51
245.313
  0
ARC
  8
APS_GEOMETRY
 10
-474.087
 20
-472.029
 40
13.524
 50
245.313
 51
257.398
  0
ARC
  8
APS_GEOMETRY
 10
-474.323
 20
-473.085
 40
12.443
 50
257.398
 51
270.0
  0
ARC
  8
APS_GEOMETRY
 10
-474.323
 20
-475.022
 40
10.506
 50
270.0
 51
282.907
  0
ARC
  8
APS_GEOMETRY
 10
-473.192
 20
-479.955
 40
5.445
 50
282.907
 51
300.872
  0
ARC
  8
APS_GEOMETRY
 10
-472.212
 20
-481.595
 40
3.535
 50
300.872
 51
326.876
  0
ARC
  8
APS_GEOMETRY
 10
-471.096
 20
-482.323
 40
2.202
 50
326.876
 51
0.0
  0
ARC
  8
APS_GEOMETRY
 10
-471.425
 20
-482.323
 40
2.531
 50
0.0
 51
27.553
  0
ARC
  8
APS_GEOMETRY
 10
-472.226
 20
-482.74
 40
3.434
 50
27.553
 51
51.147
  0
ARC
  8
APS_GEOMETRY
 10
-473.88
 20
-484.794
 40
6.071
 50
51.147
 51
65.225
  0
ARC
  8
APS_GEOMETRY
 10
-479.983
 20
-498.018
 40
20.636
 50
65.225
 51
72.848
  0
ARC
  8
APS_GEOMETRY
 10
-444.342
 20
-384.379
 40
98.462
 50
251.106
 51
252.532
  0
ARC
  8
APS_GEOMETRY
 10
-456.958
 20
-421.24
 40
59.501
 50
249.271
 51
251.106
  0
ARC
  8
APS_GEOMETRY
 10
-462.203
 20
-435.1
 40
44.683
 50
246.83
 51
249.271
  0
ARC
  8
APS_GEOMETRY
 10
-470.687
 20
-454.922
 40
23.121
 50
243.435
 51
246.83
  0
ARC
  8
APS_GEOMETRY
 10
-471.653
 20
-456.854
 40
20.961
 50
235.981
 51
243.435
  0
ARC
  8
APS_GEOMETRY
 10
-470.911
 20
-455.755
 40
22.287
 50
228.752
 51
235.981
  0
ARC
  8
APS_GEOMETRY
 10
-474.385
 20
-459.849
 40
16.918
 50
206.421
 51
228.457
  0
ARC
  8
APS_GEOMETRY
 10
-478.94
 20
-462.112
 40
11.833
 50
180.0
 51
206.421
  0
ARC
  8
APS_GEOMETRY
 10
-478.725
 20
-462.112
 40
12.047
 50
166.555
 51
180.0
  0
ARC
  8
APS_GEOMETRY
 10
-477.33
 20
-462.446
 40
13.482
 50
153.848
 51
166.555
  0
ARC
  8
APS_GEOMETRY
 10
-477.214
 20
-462.503
 40
13.611
 50
141.244
 51
153.848
  0
ARC
  8
APS_GEOMETRY
 10
-476.354
 20
-463.193
 40
14.714
 50
129.123
 51
141.244
  0
ARC
  8
APS_GEOMETRY
 10
-473.601
 20
-466.12
 40
18.725
 50
108.978
 51
130.006
  0
ARC
  8
APS_GEOMETRY
 10
-472.23
 20
-470.107
 40
22.94
 50
90.0
 51
108.978
  0
ARC
  8
APS_GEOMETRY
 10
-422.239
 20
-468.43
 40
21.264
 50
77.257
 51
90.0
  0
ARC
  8
APS_GEOMETRY
 10
-422.455
 20
-469.386
 40
22.243
 50
64.799
 51
77.257
  0
ARC
  8
APS_GEOMETRY
 10
-404.138
 20
-430.387
 40
20.843
 50
244.885
 51
251.175
  0
ARC
  8
APS_GEOMETRY
 10
-410.106
 20
-447.895
 40
2.346
 50
251.175
 51
270.0
  0
ARC
  8
APS_GEOMETRY
 10
-410.106
 20
-446.434
 40
3.806
 50
270.0
 51
278.82
  0
ARC
  8
APS_GEOMETRY
 10
-412.565
 20
-430.587
 40
19.844
 50
278.82
 51
282.68
  0
ARC
  8
APS_GEOMETRY
 10
-407.42
 20
-453.367
 40
3.511
 50
95.906
 51
102.995
  0
ARC
  8
APS_GEOMETRY
 10
-407.261
 20
-454.904
 40
5.055
 50
90.0
 51
95.906
  0
ARC
  8
APS_GEOMETRY
 10
-407.261
 20
-453.204
 40
3.356
 50
62.447
 51
90.0
  0
ARC
  8
APS_GEOMETRY
 10
-407.858
 20
-454.347
 40
4.645
 50
39.094
 51
62.447
  0
ARC
  8
APS_GEOMETRY
 10
-414.092
 20
-459.561
 40
12.772
 50
18.435
 51
39.611
  0
ARC
  8
APS_GEOMETRY
 10
-417.918
 20
-460.837
 40
16.806
 50
360.0
 51
18.435
  0
ARC
  8
APS_GEOMETRY
 10
-409.446
 20
-460.837
 40
8.333
 50
334.877
 51
360.0
  0
ARC
  8
APS_GEOMETRY
 10
-406.94
 20
-462.012
 40
5.565
 50
304.007
 51
334.877
  0
ARC
  8
APS_GEOMETRY
 10
-406.981
 20
-461.894
 40
5.686
 50
286.39
 51
303.69
  0
ARC
  8
APS_GEOMETRY
 10
-407.163
 20
-461.276
 40
6.33
 50
270.0
 51
286.39
  0
ARC
  8
APS_GEOMETRY
 10
-407.163
 20
-461.35
 40
6.257
 50
255.155
 51
270.0
  0
ARC
  8
APS_GEOMETRY
 10
-407.848
 20
-463.935
 40
3.581
 50
235.491
 51
255.155
  0
ARC
  8
APS_GEOMETRY
 10
-407.504
 20
-463.435
 40
4.189
 50
218.48
 51
235.491
  0
ARC
  8
APS_GEOMETRY
 10
-401.883
 20
-458.967
 40
11.369
 50
208.179
 51
218.48
  0
ARC
  8
APS_GEOMETRY
 10
-459.508
 20
-490.246
 40
54.198
 50
28.56
 51
31.664
  0
ARC
  8
APS_GEOMETRY
 10
-424.296
 20
-468.53
 40
12.827
 50
31.664
 51
38.047
  0
ARC
  8
APS_GEOMETRY
 10
-421.735
 20
-466.526
 40
9.576
 50
38.047
 51
46.56
  0
ARC
  8
APS_GEOMETRY
 10
-423.066
 20
-467.931
 40
11.512
 50
46.56
 51
54.324
  0
ARC
  8
APS_GEOMETRY
 10
-423.834
 20
-469.253
 40
13.034
 50
54.968
 51
71.48
  0
ARC
  8
APS_GEOMETRY
 10
-422.991
 20
-466.736
 40
10.38
 50
71.48
 51
90.0
  0
ARC
  8
APS_GEOMETRY
 10
-422.991
 20
-463.607
 40
7.251
 50
90.0
 51
114.63
  0
ARC
  8
APS_GEOMETRY
 10
-423.356
 20
-462.813
 40
6.377
 50
114.63
 51
140.921
  0
ARC
  8
APS_GEOMETRY
 10
-422.28
 20
-463.686
 40
7.763
 50
140.921
 51
163.13
  0
ARC
  8
APS_GEOMETRY
 10
-416.902
 20
-465.317
 40
13.382
 50
163.13
 51
180.0
  0
ARC
  8
APS_GEOMETRY
 10
-409.929
 20
-465.317
 40
20.355
 50
180.0
 51
195.44
  0
ARC
  8
APS_GEOMETRY
 10
-410.987
 20
-465.609
 40
19.258
 50
195.44
 51
211.316
  0
ARC
  8
APS_GEOMETRY
 10
-416.076
 20
-468.599
 40
13.357
 50
211.708
 51
240.457
  0
ARC
  8
APS_GEOMETRY
 10
-416.418
 20
-469.202
 40
12.663
 50
240.457
 51
270.0
  0
ARC
  8
APS_GEOMETRY
 10
-416.418
 20
-466.114
 40
15.751
 50
270.0
 51
279.549
  0
ARC
  8
APS_GEOMETRY
 10
-416.614
 20
-464.95
 40
16.931
 50
279.549
 51
288.759
  0
ARC
  8
APS_GEOMETRY
 10
-415.788
 20
-467.381
 40
14.364
 50
288.759
 51
299.545
  0
ARC
  8
APS_GEOMETRY
 10
-412.479
 20
-473.22
 40
7.652
 50
299.545
 51
314.341
  0
ARC
  8
APS_GEOMETRY
 10
-402.244
 20
-483.851
 40
7.105
 50
120.141
 51
133.452
  0
ARC
  8
APS_GEOMETRY
 10
-405.103
 20
-478.927
 40
1.412
 50
90.0
 51
120.141
  0
ARC
  8
APS_GEOMETRY
 10
-405.103
 20
-479.745
 40
2.23
 50
61.952
 51
90.0
  0
ARC
  8
APS_GEOMETRY
 10
-405.435
 20
-480.368
 40
2.936
 50
37.569
 51
61.952
  0
ARC
  8
APS_GEOMETRY
 10
-406.054
 20
-480.845
 40
3.717
 50
17.665
 51
37.569
  0
ARC
  8
APS_GEOMETRY
 10
-406.999
 20
-481.145
 40
4.709
 50
360.0
 51
17.665
  0
ARC
  8
APS_GEOMETRY
 10
-409.371
 20
-481.145
 40
7.081
 50
344.932
 51
360.0
  0
ARC
  8
APS_GEOMETRY
 10
-415.669
 20
-479.45
 40
13.603
 50
334.075
 51
344.932
  0
ARC
  8
APS_GEOMETRY
 10
-415.867
 20
-479.354
 40
13.823
 50
323.374
 51
334.075
  0
ARC
  8
APS_GEOMETRY
 10
-411.803
 20
-482.374
 40
8.76
 50
309.92
 51
323.374
  0
ARC
  8
APS_GEOMETRY
 10
-407.742
 20
-487.165
 40
2.48
 50
289.026
 51
308.991
  0
ARC
  8
APS_GEOMETRY
 10
-412.075
 20
-474.6
 40
15.771
 50
281.143
 51
289.026
  0
ARC
  8
APS_GEOMETRY
 10
-407.681
 20
-497.381
 40
7.431
 50
100.437
 51
110.12
  0
ARC
  8
APS_GEOMETRY
 10
-401.86
 20
-513.271
 40
24.353
 50
110.12
 51
115.463
  0
ARC
  8
APS_GEOMETRY
 10
-422.641
 20
-469.791
 40
23.838
 50
282.94
 51
295.628
  0
ARC
  8
APS_GEOMETRY
 10
-422.435
 20
-470.685
 40
22.921
 50
270.0
 51
282.94
  0
ARC
  8
APS_GEOMETRY
 10
-422.435
 20
-469.331
 40
24.275
 50
257.307
 51
270.0
  0
ARC
  8
APS_GEOMETRY
 10
-421.411
 20
-464.781
 40
28.939
 50
245.686
 51
257.307
  0
ARC
  8
APS_GEOMETRY
 10
-423.981
 20
-470.422
 40
22.739
 50
228.801
 51
245.735
  0
ARC
  8
APS_GEOMETRY
 10
-423.938
 20
-470.373
 40
22.805
 50
211.891
 51
228.801
  0
ARC
  8
APS_GEOMETRY
 10
-422.59
 20
-469.403
 40
24.462
 50
196.728
 51
212.152
  0
ARC
  8
APS_GEOMETRY
 10
-426.078
 20
-470.451
 40
20.82
 50
180.0
 51
196.728
  0
ARC
  8
APS_GEOMETRY
 10
-425.571
 20
-470.451
 40
21.327
 50
161.184
 51
180.0
  0
ARC
  8
APS_GEOMETRY
 10
-424.202
 20
-470.918
 40
22.773
 50
142.98
 51
161.184
  0
ARC
  8
APS_GEOMETRY
 10
-423.138
 20
-471.732
 40
24.112
 50
127.824
 51
142.958
  0
ARC
  8
APS_GEOMETRY
 10
-421.384
 20
-473.991
 40
26.973
 50
113.52
 51
127.824
  0
ARC
  8
APS_GEOMETRY
 10
-421.955
 20
-472.672
 40
25.535
 50
101.927
 51
113.527
  0
ARC
  8
APS_GEOMETRY
 10
-422.239
 20
-471.327
 40
24.161
 50
90.0
 51
101.927
  0
ARC
  8
APS_GEOMETRY
 10
-371.758
 20
-472.948
 40
25.782
 50
71.91
 51
90.0
  0
ARC
  8
APS_GEOMETRY
 10
-370.76
 20
-469.891
 40
22.566
 50
52.561
 51
71.91
  0
ARC
  8
APS_GEOMETRY
 10
-371.021
 20
-469.967
 40
22.786
 50
38.846
 51
52.156
  0
ARC
  8
APS_GEOMETRY
 10
-374.593
 20
-472.844
 40
27.372
 50
26.707
 51
38.846
  0
ARC
  8
APS_GEOMETRY
 10
-373.886
 20
-472.266
 40
26.482
 50
13.868
 51
26.278
  0
ARC
  8
APS_GEOMETRY
 10
-368.786
 20
-471.007
 40
21.229
 50
360.0
 51
13.868
  0
ARC
  8
APS_GEOMETRY
 10
-368.456
 20
-471.007
 40
20.899
 50
339.712
 51
360.0
  0
ARC
  8
APS_GEOMETRY
 10
-369.633
 20
-470.572
 40
22.153
 50
320.013
 51
339.712
  0
ARC
  8
APS_GEOMETRY
 10
-369.828
 20
-470.465
 40
22.372
 50
303.344
 51
320.123
  0
ARC
  8
APS_GEOMETRY
 10
-372.124
 20
-466.976
 40
26.548
 50
287.949
 51
303.344
  0
ARC
  8
APS_GEOMETRY
 10
-372.878
 20
-464.361
 40
29.269
 50
279.039
 51
287.776
  0
ARC
  8
APS_GEOMETRY
 10
-372.576
 20
-466.26
 40
27.346
 50
270.0
 51
279.039
  0
ARC
  8
APS_GEOMETRY
 10
-372.576
 20
-467.595
 40
26.011
 50
257.728
 51
270.0
  0
ARC
  8
APS_GEOMETRY
 10
-372.535
 20
-467.406
 40
26.203
 50
245.501
 51
257.728
  0
ARC
  8
APS_GEOMETRY
 10
-374.008
 20
-470.629
 40
22.66
 50
228.665
 51
245.511
  0
ARC
  8
APS_GEOMETRY
 10
-374.497
 20
-471.186
 40
21.918
 50
211.535
 51
228.665
  0
ARC
  8
APS_GEOMETRY
 10
-373.855
 20
-470.715
 40
22.712
 50
195.642
 51
211.701
  0
ARC
  8
APS_GEOMETRY
 10
-372.682
 20
-470.386
 40
23.931
 50
180.0
 51
195.642
  0
ARC
  8
APS_GEOMETRY
 10
-372.43
 20
-470.386
 40
24.183
 50
162.181
 51
180.0
  0
ARC
  8
APS_GEOMETRY
 10
-374.637
 20
-469.677
 40
21.865
 50
143.434
 51
162.181
  0
ARC
  8
APS_GEOMETRY
 10
-374.933
 20
-469.439
 40
21.485
 50
126.384
 51
143.471
  0
ARC
  8
APS_GEOMETRY
 10
-372.899
 20
-472.2
 40
24.914
 50
110.525
 51
126.384
  0
ARC
  8
APS_GEOMETRY
 10
-373.0
 20
-471.45
 40
24.177
 50
99.77
 51
110.925
  0
ARC
  8
APS_GEOMETRY
 10
-371.758
 20
-478.662
 40
31.496
 50
90.0
 51
99.77
  0
ARC
  8
APS_GEOMETRY
 10
-374.865
 20
-461.36
 40
4.807
 50
90.0
 51
119.604
  0
ARC
  8
APS_GEOMETRY
 10
-374.444
 20
-462.101
 40
5.659
 50
119.604
 51
146.842
  0
ARC
  8
APS_GEOMETRY
 10
-373.598
 20
-462.794
 40
6.748
 50
145.84
 51
164.055
  0
ARC
  8
APS_GEOMETRY
 10
-371.636
 20
-463.355
 40
8.788
 50
164.055
 51
180.0
  0
ARC
  8
APS_GEOMETRY
 10
-359.372
 20
-463.355
 40
21.053
 50
180.0
 51
189.977
  0
ARC
  8
APS_GEOMETRY
 10
-340.72
 20
-460.074
 40
39.991
 50
189.977
 51
197.211
  0
ARC
  8
APS_GEOMETRY
 10
-336.641
 20
-458.81
 40
44.261
 50
197.211
 51
203.76
  0
ARC
  8
APS_GEOMETRY
 10
-346.804
 20
-463.284
 40
33.157
 50
203.76
 51
211.329
  0
ARC
  8
APS_GEOMETRY
 10
-367.672
 20
-475.808
 40
8.821
 50
212.32
 51
224.441
  0
ARC
  8
APS_GEOMETRY
 10
-368.527
 20
-476.647
 40
7.623
 50
224.441
 51
237.484
  0
ARC
  8
APS_GEOMETRY
 10
-369.08
 20
-477.514
 40
6.595
 50
237.484
 51
252.416
  0
ARC
  8
APS_GEOMETRY
 10
-369.632
 20
-479.257
 40
4.766
 50
252.416
 51
270.0
  0
ARC
  8
APS_GEOMETRY
 10
-369.632
 20
-478.692
 40
5.331
 50
270.0
 51
294.953
  0
ARC
  8
APS_GEOMETRY
 10
-369.483
 20
-479.013
 40
4.977
 50
294.953
 51
320.793
  0
ARC
  8
APS_GEOMETRY
 10
-370.284
 20
-478.36
 40
6.011
 50
320.793
 51
342.777
  0
ARC
  8
APS_GEOMETRY
 10
-373.852
 20
-477.254
 40
9.746
 50
342.777
 51
0.0
  0
ARC
  8
APS_GEOMETRY
 10
-390.613
 20
-477.254
 40
26.507
 50
0.0
 51
8.499
  0
ARC
  8
APS_GEOMETRY
 10
-402.28
 20
-478.997
 40
38.304
 50
8.499
 51
15.566
  0
ARC
  8
APS_GEOMETRY
 10
-400.877
 20
-478.606
 40
36.848
 50
15.566
 51
22.909
  0
ARC
  8
APS_GEOMETRY
 10
-388.813
 20
-473.508
 40
23.751
 50
22.909
 51
32.057
  0
ARC
  8
APS_GEOMETRY
 10
-379.338
 20
-467.539
 40
12.552
 50
31.921
 51
42.51
  0
ARC
  8
APS_GEOMETRY
 10
-376.736
 20
-465.153
 40
9.022
 50
42.51
 51
55.008
  0
ARC
  8
APS_GEOMETRY
 10
-375.857
 20
-463.898
 40
7.489
 50
55.008
 51
69.88
  0
ARC
  8
APS_GEOMETRY
 10
-375.069
 20
-461.747
 40
5.198
 50
69.88
 51
87.754
  0
ARC
  8
APS_GEOMETRY
 10
-318.399
 20
-468.43
 40
21.264
 50
77.257
 51
90.0
  0
ARC
  8
APS_GEOMETRY
 10
-318.615
 20
-469.386
 40
22.243
 50
64.799
 51
77.257
  0
ARC
  8
APS_GEOMETRY
 10
-300.298
 20
-430.387
 40
20.843
 50
244.885
 51
251.175
  0
ARC
  8
APS_GEOMETRY
 10
-306.266
 20
-447.895
 40
2.346
 50
251.175
 51
270.0
  0
ARC
  8
APS_GEOMETRY
 10
-306.266
 20
-446.434
 40
3.806
 50
270.0
 51
278.82
  0
ARC
  8
APS_GEOMETRY
 10
-308.725
 20
-430.587
 40
19.844
 50
278.82
 51
282.68
  0
ARC
  8
APS_GEOMETRY
 10
-303.58
 20
-453.367
 40
3.511
 50
95.906
 51
102.995
  0
ARC
  8
APS_GEOMETRY
 10
-303.421
 20
-454.904
 40
5.055
 50
90.0
 51
95.906
  0
ARC
  8
APS_GEOMETRY
 10
-303.421
 20
-453.204
 40
3.356
 50
62.447
 51
90.0
  0
ARC
  8
APS_GEOMETRY
 10
-304.018
 20
-454.347
 40
4.645
 50
39.094
 51
62.447
  0
ARC
  8
APS_GEOMETRY
 10
-310.252
 20
-459.561
 40
12.772
 50
18.435
 51
39.611
  0
ARC
  8
APS_GEOMETRY
 10
-314.078
 20
-460.837
 40
16.806
 50
360.0
 51
18.435
  0
ARC
  8
APS_GEOMETRY
 10
-305.606
 20
-460.837
 40
8.333
 50
334.877
 51
360.0
  0
ARC
  8
APS_GEOMETRY
 10
-303.1
 20
-462.012
 40
5.565
 50
304.007
 51
334.877
  0
ARC
  8
APS_GEOMETRY
 10
-303.141
 20
-461.894
 40
5.686
 50
286.39
 51
303.69
  0
ARC
  8
APS_GEOMETRY
 10
-303.323
 20
-461.276
 40
6.33
 50
270.0
 51
286.39
  0
ARC
  8
APS_GEOMETRY
 10
-303.323
 20
-461.35
 40
6.257
 50
255.155
 51
270.0
  0
ARC
  8
APS_GEOMETRY
 10
-304.008
 20
-463.935
 40
3.581
 50
235.491
 51
255.155
  0
ARC
  8
APS_GEOMETRY
 10
-303.664
 20
-463.435
 40
4.189
 50
218.48
 51
235.491
  0
ARC
  8
APS_GEOMETRY
 10
-298.043
 20
-458.967
 40
11.369
 50
208.179
 51
218.48
  0
ARC
  8
APS_GEOMETRY
 10
-355.668
 20
-490.246
 40
54.198
 50
28.56
 51
31.664
  0
ARC
  8
APS_GEOMETRY
 10
-320.456
 20
-468.53
 40
12.827
 50
31.664
 51
38.047
  0
ARC
  8
APS_GEOMETRY
 10
-317.895
 20
-466.526
 40
9.576
 50
38.047
 51
46.56
  0
ARC
  8
APS_GEOMETRY
 10
-319.226
 20
-467.931
 40
11.512
 50
46.56
 51
54.324
  0
ARC
  8
APS_GEOMETRY
 10
-319.994
 20
-469.253
 40
13.034
 50
54.968
 51
71.48
  0
ARC
  8
APS_GEOMETRY
 10
-319.151
 20
-466.736
 40
10.38
 50
71.48
 51
90.0
  0
ARC
  8
APS_GEOMETRY
 10
-319.151
 20
-463.607
 40
7.251
 50
90.0
 51
114.63
  0
ARC
  8
APS_GEOMETRY
 10
-319.515
 20
-462.813
 40
6.377
 50
114.63
 51
140.921
  0
ARC
  8
APS_GEOMETRY
 10
-318.44
 20
-463.686
 40
7.763
 50
140.921
 51
163.13
  0
ARC
  8
APS_GEOMETRY
 10
-313.062
 20
-465.317
 40
13.382
 50
163.13
 51
180.0
  0
ARC
  8
APS_GEOMETRY
 10
-306.089
 20
-465.317
 40
20.355
 50
180.0
 51
195.44
  0
ARC
  8
APS_GEOMETRY
 10
-307.147
 20
-465.609
 40
19.258
 50
195.44
 51
211.316
  0
ARC
  8
APS_GEOMETRY
 10
-312.236
 20
-468.599
 40
13.357
 50
211.708
 51
240.457
  0
ARC
  8
APS_GEOMETRY
 10
-312.578
 20
-469.202
 40
12.663
 50
240.457
 51
270.0
  0
ARC
  8
APS_GEOMETRY
 10
-312.578
 20
-466.114
 40
15.751
 50
270.0
 51
279.549
  0
ARC
  8
APS_GEOMETRY
 10
-312.774
 20
-464.95
 40
16.931
 50
279.549
 51
288.759
  0
ARC
  8
APS_GEOMETRY
 10
-311.948
 20
-467.381
 40
14.364
 50
288.759
 51
299.545
  0
ARC
  8
APS_GEOMETRY
 10
-308.639
 20
-473.22
 40
7.652
 50
299.545
 51
314.341
  0
ARC
  8
APS_GEOMETRY
 10
-298.404
 20
-483.851
 40
7.105
 50
120.141
 51
133.452
  0
ARC
  8
APS_GEOMETRY
 10
-301.263
 20
-478.927
 40
1.412
 50
90.0
 51
120.141
  0
ARC
  8
APS_GEOMETRY
 10
-301.263
 20
-479.745
 40
2.23
 50
61.952
 51
90.0
  0
ARC
  8
APS_GEOMETRY
 10
-301.595
 20
-480.368
 40
2.936
 50
37.569
 51
61.952
  0
ARC
  8
APS_GEOMETRY
 10
-302.214
 20
-480.845
 40
3.717
 50
17.665
 51
37.569
  0
ARC
  8
APS_GEOMETRY
 10
-303.159
 20
-481.145
 40
4.709
 50
360.0
 51
17.665
  0
ARC
  8
APS_GEOMETRY
 10
-305.531
 20
-481.145
 40
7.081
 50
344.932
 51
360.0
  0
ARC
  8
APS_GEOMETRY
 10
-311.829
 20
-479.45
 40
13.603
 50
334.075
 51
344.932
  0
ARC
  8
APS_GEOMETRY
 10
-312.027
 20
-479.354
 40
13.823
 50
323.374
 51
334.075
  0
ARC
  8
APS_GEOMETRY
 10
-307.963
 20
-482.374
 40
8.76
 50
309.92
 51
323.374
  0
ARC
  8
APS_GEOMETRY
 10
-303.902
 20
-487.165
 40
2.48
 50
289.026
 51
308.991
  0
ARC
  8
APS_GEOMETRY
 10
-308.235
 20
-474.6
 40
15.771
 50
281.143
 51
289.026
  0
ARC
  8
APS_GEOMETRY
 10
-303.841
 20
-497.381
 40
7.431
 50
100.437
 51
110.12
  0
ARC
  8
APS_GEOMETRY
 10
-298.02
 20
-513.271
 40
24.353
 50
110.12
 51
115.463
  0
ARC
  8
APS_GEOMETRY
 10
-318.801
 20
-469.791
 40
23.838
 50
282.94
 51
295.628
  0
ARC
  8
APS_GEOMETRY
 10
-318.595
 20
-470.685
 40
22.921
 50
270.0
 51
282.94
  0
ARC
  8
APS_GEOMETRY
 10
-318.595
 20
-469.331
 40
24.275
 50
257.307
 51
270.0
  0
ARC
  8
APS_GEOMETRY
 10
-317.571
 20
-464.781
 40
28.939
 50
245.686
 51
257.307
  0
ARC
  8
APS_GEOMETRY
 10
-320.141
 20
-470.422
 40
22.739
 50
228.801
 51
245.735
  0
ARC
  8
APS_GEOMETRY
 10
-320.098
 20
-470.373
 40
22.805
 50
211.891
 51
228.801
  0
ARC
  8
APS_GEOMETRY
 10
-318.75
 20
-469.403
 40
24.462
 50
196.728
 51
212.152
  0
ARC
  8
APS_GEOMETRY
 10
-322.238
 20
-470.451
 40
20.82
 50
180.0
 51
196.728
  0
ARC
  8
APS_GEOMETRY
 10
-321.731
 20
-470.451
 40
21.327
 50
161.184
 51
180.0
  0
ARC
  8
APS_GEOMETRY
 10
-320.362
 20
-470.918
 40
22.773
 50
142.98
 51
161.184
  0
ARC
  8
APS_GEOMETRY
 10
-319.298
 20
-471.732
 40
24.112
 50
127.824
 51
142.958
  0
ARC
  8
APS_GEOMETRY
 10
-317.544
 20
-473.991
 40
26.973
 50
113.52
 51
127.824
  0
ARC
  8
APS_GEOMETRY
 10
-318.115
 20
-472.672
 40
25.535
 50
101.927
 51
113.527
  0
ARC
  8
APS_GEOMETRY
 10
-318.399
 20
-471.327
 40
24.161
 50
90.0
 51
101.927
  0
ARC
  8
APS_GEOMETRY
 10
-267.918
 20
-472.948
 40
25.782
 50
71.91
 51
90.0
  0
ARC
  8
APS_GEOMETRY
 10
-266.92
 20
-469.891
 40
22.566
 50
52.561
 51
71.91
  0
ARC
  8
APS_GEOMETRY
 10
-267.181
 20
-469.967
 40
22.786
 50
38.846
 51
52.156
  0
ARC
  8
APS_GEOMETRY
 10
-270.753
 20
-472.844
 40
27.372
 50
26.707
 51
38.846
  0
ARC
  8
APS_GEOMETRY
 10
-270.046
 20
-472.266
 40
26.482
 50
13.868
 51
26.278
  0
ARC
  8
APS_GEOMETRY
 10
-264.946
 20
-471.007
 40
21.229
 50
360.0
 51
13.868
  0
ARC
  8
APS_GEOMETRY
 10
-264.616
 20
-471.007
 40
20.899
 50
339.712
 51
360.0
  0
ARC
  8
APS_GEOMETRY
 10
-265.793
 20
-470.572
 40
22.153
 50
320.013
 51
339.712
  0
ARC
  8
APS_GEOMETRY
 10
-265.988
 20
-470.465
 40
22.372
 50
303.344
 51
320.123
  0
ARC
  8
APS_GEOMETRY
 10
-268.283
 20
-466.976
 40
26.548
 50
287.949
 51
303.344
  0
ARC
  8
APS_GEOMETRY
 10
-269.038
 20
-464.361
 40
29.269
 50
279.039
 51
287.776
  0
ARC
  8
APS_GEOMETRY
 10
-268.736
 20
-466.26
 40
27.346
 50
270.0
 51
279.039
  0
ARC
  8
APS_GEOMETRY
 10
-268.736
 20
-467.595
 40
26.011
 50
257.728
 51
270.0
  0
ARC
  8
APS_GEOMETRY
 10
-268.695
 20
-467.406
 40
26.203
 50
245.501
 51
257.728
  0
ARC
  8
APS_GEOMETRY
 10
-270.167
 20
-470.629
 40
22.66
 50
228.665
 51
245.511
  0
ARC
  8
APS_GEOMETRY
 10
-270.657
 20
-471.186
 40
21.918
 50
211.535
 51
228.665
  0
ARC
  8
APS_GEOMETRY
 10
-270.015
 20
-470.715
 40
22.712
 50
195.642
 51
211.701
  0
ARC
  8
APS_GEOMETRY
 10
-268.841
 20
-470.386
 40
23.931
 50
180.0
 51
195.642
  0
ARC
  8
APS_GEOMETRY
 10
-268.59
 20
-470.386
 40
24.183
 50
162.181
 51
180.0
  0
ARC
  8
APS_GEOMETRY
 10
-270.796
 20
-469.677
 40
21.865
 50
143.434
 51
162.181
  0
ARC
  8
APS_GEOMETRY
 10
-271.093
 20
-469.439
 40
21.485
 50
126.384
 51
143.471
  0
ARC
  8
APS_GEOMETRY
 10
-269.059
 20
-472.2
 40
24.914
 50
110.525
 51
126.384
  0
ARC
  8
APS_GEOMETRY
 10
-269.16
 20
-471.45
 40
24.177
 50
99.77
 51
110.925
  0
ARC
  8
APS_GEOMETRY
 10
-267.918
 20
-478.662
 40
31.496
 50
90.0
 51
99.77
  0
ARC
  8
APS_GEOMETRY
 10
-271.025
 20
-461.36
 40
4.807
 50
90.0
 51
119.604
  0
ARC
  8
APS_GEOMETRY
 10
-270.604
 20
-462.101
 40
5.659
 50
119.604
 51
146.842
  0
ARC
  8
APS_GEOMETRY
 10
-269.758
 20
-462.794
 40
6.748
 50
145.84
 51
164.055
  0
ARC
  8
APS_GEOMETRY
 10
-267.796
 20
-463.355
 40
8.788
 50
164.055
 51
180.0
  0
ARC
  8
APS_GEOMETRY
 10
-255.532
 20
-463.355
 40
21.053
 50
180.0
 51
189.977
  0
ARC
  8
APS_GEOMETRY
 10
-236.88
 20
-460.074
 40
39.991
 50
189.977
 51
197.211
  0
ARC
  8
APS_GEOMETRY
 10
-232.801
 20
-458.81
 40
44.261
 50
197.211
 51
203.76
  0
ARC
  8
APS_GEOMETRY
 10
-242.963
 20
-463.284
 40
33.157
 50
203.76
 51
211.329
  0
ARC
  8
APS_GEOMETRY
 10
-263.832
 20
-475.808
 40
8.821
 50
212.32
 51
224.441
  0
ARC
  8
APS_GEOMETRY
 10
-264.687
 20
-476.647
 40
7.623
 50
224.441
 51
237.484
  0
ARC
  8
APS_GEOMETRY
 10
-265.24
 20
-477.514
 40
6.595
 50
237.484
 51
252.416
  0
ARC
  8
APS_GEOMETRY
 10
-265.792
 20
-479.257
 40
4.766
 50
252.416
 51
270.0
  0
ARC
  8
APS_GEOMETRY
 10
-265.792
 20
-478.692
 40
5.331
 50
270.0
 51
294.953
  0
ARC
  8
APS_GEOMETRY
 10
-265.643
 20
-479.013
 40
4.977
 50
294.953
 51
320.793
  0
ARC
  8
APS_GEOMETRY
 10
-266.444
 20
-478.36
 40
6.011
 50
320.793
 51
342.777
  0
ARC
  8
APS_GEOMETRY
 10
-270.011
 20
-477.254
 40
9.746
 50
342.777
 51
0.0
  0
ARC
  8
APS_GEOMETRY
 10
-286.773
 20
-477.254
 40
26.507
 50
0.0
 51
8.499
  0
ARC
  8
APS_GEOMETRY
 10
-298.44
 20
-478.997
 40
38.304
 50
8.499
 51
15.566
  0
ARC
  8
APS_GEOMETRY
 10
-297.037
 20
-478.606
 40
36.848
 50
15.566
 51
22.909
  0
ARC
  8
APS_GEOMETRY
 10
-284.973
 20
-473.508
 40
23.751
 50
22.909
 51
32.057
  0
ARC
  8
APS_GEOMETRY
 10
-275.498
 20
-467.539
 40
12.552
 50
31.921
 51
42.51
  0
ARC
  8
APS_GEOMETRY
 10
-272.896
 20
-465.153
 40
9.022
 50
42.51
 51
55.008
  0
ARC
  8
APS_GEOMETRY
 10
-272.017
 20
-463.898
 40
7.489
 50
55.008
 51
69.88
  0
ARC
  8
APS_GEOMETRY
 10
-271.229
 20
-461.747
 40
5.198
 50
69.88
 51
87.754
  0
ARC
  8
APS_GEOMETRY
 10
-217.404
 20
-476.37
 40
2.42
 50
90.0
 51
115.837
  0
ARC
  8
APS_GEOMETRY
 10
-218.0
 20
-475.14
 40
1.053
 50
115.837
 51
155.462
  0
ARC
  8
APS_GEOMETRY
 10
-217.305
 20
-475.457
 40
1.817
 50
155.462
 51
168.366
  0
ARC
  8
APS_GEOMETRY
 10
-210.959
 20
-476.764
 40
8.296
 50
168.366
 51
174.395
  0
ARC
  8
APS_GEOMETRY
 10
-204.563
 20
-477.392
 40
14.722
 50
174.395
 51
177.813
  0
ARC
  8
APS_GEOMETRY
 10
-183.335
 20
-478.202
 40
35.966
 50
177.813
 51
180.0
  0
ARC
  8
APS_GEOMETRY
 10
-167.966
 20
-478.202
 40
51.335
 50
180.0
 51
184.62
  0
ARC
  8
APS_GEOMETRY
 10
-202.386
 20
-480.984
 40
16.803
 50
184.62
 51
192.7
  0
ARC
  8
APS_GEOMETRY
 10
-215.656
 20
-483.897
 40
3.218
 50
194.036
 51
205.821
  0
ARC
  8
APS_GEOMETRY
 10
-217.062
 20
-484.577
 40
1.656
 50
205.821
 51
222.274
  0
ARC
  8
APS_GEOMETRY
 10
-216.631
 20
-484.186
 40
2.238
 50
222.274
 51
234.605
  0
ARC
  8
APS_GEOMETRY
 10
-211.771
 20
-477.345
 40
10.63
 50
234.605
 51
240.255
  0
ARC
  8
APS_GEOMETRY
 10
-219.159
 20
-490.42
 40
4.389
 50
34.592
 51
61.189
  0
ARC
  8
APS_GEOMETRY
 10
-217.709
 20
-489.419
 40
2.627
 50
360.0
 51
34.592
  0
ARC
  8
APS_GEOMETRY
 10
-217.622
 20
-489.419
 40
2.539
 50
318.231
 51
360.0
  0
ARC
  8
APS_GEOMETRY
 10
-219.32
 20
-487.903
 40
4.816
 50
288.227
 51
318.231
  0
ARC
  8
APS_GEOMETRY
 10
-221.081
 20
-482.555
 40
10.446
 50
280.377
 51
288.227
  0
ARC
  8
APS_GEOMETRY
 10
-224.151
 20
-465.791
 40
27.489
 50
275.541
 51
280.377
  0
ARC
  8
APS_GEOMETRY
 10
-225.474
 20
-452.154
 40
41.19
 50
272.304
 51
275.541
  0
ARC
  8
APS_GEOMETRY
 10
-227.084
 20
-412.118
 40
81.259
 50
270.0
 51
272.304
  0
ARC
  8
APS_GEOMETRY
 10
-227.084
 20
-445.577
 40
47.8
 50
262.811
 51
270.0
  0
ARC
  8
APS_GEOMETRY
 10
-231.374
 20
-479.583
 40
13.524
 50
249.274
 51
262.811
  0
ARC
  8
APS_GEOMETRY
 10
-234.071
 20
-486.713
 40
5.901
 50
221.379
 51
249.274
  0
ARC
  8
APS_GEOMETRY
 10
-236.438
 20
-488.798
 40
2.747
 50
180.0
 51
221.379
  0
ARC
  8
APS_GEOMETRY
 10
-236.456
 20
-488.798
 40
2.728
 50
164.055
 51
180.0
  0
ARC
  8
APS_GEOMETRY
 10
-237.594
 20
-488.473
 40
1.546
 50
142.815
 51
164.055
  0
ARC
  8
APS_GEOMETRY
 10
-236.878
 20
-489.016
 40
2.444
 50
129.007
 51
142.815
  0
ARC
  8
APS_GEOMETRY
 10
-228.086
 20
-499.87
 40
16.412
 50
123.69
 51
129.007
  0
ARC
  8
APS_GEOMETRY
 10
-240.562
 20
-481.098
 40
6.128
 50
303.389
 51
319.022
  0
ARC
  8
APS_GEOMETRY
 10
-238.904
 20
-482.538
 40
3.932
 50
319.022
 51
338.575
  0
ARC
  8
APS_GEOMETRY
 10
-241.123
 20
-481.667
 40
6.316
 50
338.575
 51
351.049
  0
ARC
  8
APS_GEOMETRY
 10
-267.929
 20
-477.445
 40
33.452
 50
351.049
 51
356.46
  0
ARC
  8
APS_GEOMETRY
 10
-259.093
 20
-477.781
 40
24.613
 50
355.972
 51
358.68
  0
ARC
  8
APS_GEOMETRY
 10
-549.284
 20
-471.095
 40
314.881
 50
358.68
 51
359.437
  0
LINE
  8
APS_GEOMETRY
 10
-234.418
 11
-234.388
 20
-474.188
 21
-469.276
  0
LINE
  8
APS_GEOMETRY
 10
-234.388
 11
-234.377
 20
-469.276
 21
-462.864
  0
ARC
  8
APS_GEOMETRY
 10
-310.187
 20
-462.864
 40
75.809
 50
0.0
 51
1.717
  0
ARC
  8
APS_GEOMETRY
 10
-269.618
 20
-461.648
 40
35.223
 50
1.717
 51
4.236
  0
ARC
  8
APS_GEOMETRY
 10
-256.389
 20
-460.668
 40
21.957
 50
4.236
 51
8.269
  0
ARC
  8
APS_GEOMETRY
 10
-241.165
 20
-458.456
 40
6.573
 50
8.269
 51
15.642
  0
ARC
  8
APS_GEOMETRY
 10
-238.545
 20
-457.722
 40
3.853
 50
15.642
 51
39.417
  0
ARC
  8
APS_GEOMETRY
 10
-238.486
 20
-457.674
 40
3.776
 50
39.417
 51
63.435
  0
ARC
  8
APS_GEOMETRY
 10
-231.685
 20
-443.584
 40
11.869
 50
236.874
 51
244.486
  0
ARC
  8
APS_GEOMETRY
 10
-236.744
 20
-451.337
 40
2.611
 50
220.601
 51
236.874
  0
ARC
  8
APS_GEOMETRY
 10
-237.325
 20
-451.835
 40
1.847
 50
198.246
 51
220.601
  0
ARC
  8
APS_GEOMETRY
 10
-236.457
 20
-451.549
 40
2.761
 50
180.0
 51
198.246
  0
ARC
  8
APS_GEOMETRY
 10
-236.47
 20
-451.549
 40
2.748
 50
156.161
 51
180.0
  0
ARC
  8
APS_GEOMETRY
 10
-236.087
 20
-451.718
 40
3.167
 50
133.977
 51
156.161
  0
ARC
  8
APS_GEOMETRY
 10
-235.323
 20
-452.509
 40
4.266
 50
116.996
 51
133.977
  0
ARC
  8
APS_GEOMETRY
 10
-233.806
 20
-455.487
 40
7.608
 50
104.3
 51
116.996
  0
ARC
  8
APS_GEOMETRY
 10
-233.414
 20
-456.993
 40
9.164
 50
95.326
 51
104.349
  0
ARC
  8
APS_GEOMETRY
 10
-231.826
 20
-474.027
 40
26.272
 50
90.0
 51
95.326
  0
ARC
  8
APS_GEOMETRY
 10
-231.826
 20
-460.768
 40
13.013
 50
87.553
 51
90.0
  0
ARC
  8
APS_GEOMETRY
 10
-234.595
 20
-525.556
 40
77.86
 50
86.553
 51
87.553
  0
ARC
  8
APS_GEOMETRY
 10
-238.532
 20
-590.902
 40
143.325
 50
86.009
 51
86.553
  0
ARC
  8
APS_GEOMETRY
 10
-253.84
 20
-810.316
 40
363.271
 50
85.668
 51
86.009
  0
ARC
  8
APS_GEOMETRY
 10
-225.191
 20
-433.005
 40
15.125
 50
265.426
 51
268.531
  0
ARC
  8
APS_GEOMETRY
 10
-223.847
 20
-380.562
 40
67.586
 50
268.531
 51
270.0
  0
ARC
  8
APS_GEOMETRY
 10
-223.847
 20
-396.637
 40
51.511
 50
270.0
 51
271.637
  0
ARC
  8
APS_GEOMETRY
 10
-224.998
 20
-356.352
 40
91.812
 50
271.637
 51
272.862
  0
ARC
  8
APS_GEOMETRY
 10
-226.319
 20
-329.923
 40
118.274
 50
272.862
 51
273.814
  0
ARC
  8
APS_GEOMETRY
 10
-230.793
 20
-262.819
 40
185.527
 50
273.814
 51
274.574
  0
ARC
  8
APS_GEOMETRY
 10
-202.731
 20
-627.81
 40
180.543
 50
93.72
 51
94.214
  0
ARC
  8
APS_GEOMETRY
 10
-208.72
 20
-535.692
 40
88.23
 50
93.013
 51
93.72
  0
ARC
  8
APS_GEOMETRY
 10
-210.362
 20
-504.496
 40
56.991
 50
91.918
 51
93.013
  0
ARC
  8
APS_GEOMETRY
 10
-211.648
 20
-466.081
 40
18.554
 50
90.0
 51
91.918
  0
ARC
  8
APS_GEOMETRY
 10
-211.648
 20
-471.635
 40
24.109
 50
73.82
 51
90.0
  0
ARC
  8
APS_GEOMETRY
 10
-209.272
 20
-463.445
 40
15.581
 50
53.658
 51
73.82
  0
ARC
  8
APS_GEOMETRY
 10
-205.893
 20
-458.826
 40
9.857
 50
26.03
 51
53.569
  0
ARC
  8
APS_GEOMETRY
 10
-206.93
 20
-459.332
 40
11.012
 50
360.0
 51
26.03
  0
ARC
  8
APS_GEOMETRY
 10
-207.361
 20
-459.332
 40
11.443
 50
345.282
 51
360.0
  0
ARC
  8
APS_GEOMETRY
 10
-206.26
 20
-459.621
 40
10.305
 50
329.767
 51
345.282
  0
ARC
  8
APS_GEOMETRY
 10
-205.637
 20
-459.985
 40
9.583
 50
313.168
 51
329.767
  0
ARC
  8
APS_GEOMETRY
 10
-205.406
 20
-460.231
 40
9.246
 50
296.267
 51
313.168
  0
ARC
  8
APS_GEOMETRY
 10
-200.143
 20
-470.865
 40
2.62
 50
116.565
 51
139.899
  0
ARC
  8
APS_GEOMETRY
 10
-201.449
 20
-469.765
 40
0.911
 50
139.899
 51
180.0
  0
ARC
  8
APS_GEOMETRY
 10
-201.348
 20
-469.765
 40
1.013
 50
180.0
 51
226.193
  0
ARC
  8
APS_GEOMETRY
 10
-199.477
 20
-467.814
 40
3.715
 50
226.193
 51
249.829
  0
ARC
  8
APS_GEOMETRY
 10
-204.838
 20
-482.575
 40
11.989
 50
53.249
 51
70.105
  0
ARC
  8
APS_GEOMETRY
 10
-202.403
 20
-479.314
 40
7.919
 50
32.471
 51
53.249
  0
ARC
  8
APS_GEOMETRY
 10
-203.538
 20
-480.036
 40
9.264
 50
23.305
 51
32.471
  0
ARC
  8
APS_GEOMETRY
 10
-210.548
 20
-483.056
 40
16.897
 50
16.521
 51
23.305
  0
ARC
  8
APS_GEOMETRY
 10
-216.013
 20
-484.677
 40
22.598
 50
11.429
 51
16.521
  0
ARC
  8
APS_GEOMETRY
 10
-231.503
 20
-487.809
 40
38.401
 50
7.524
 51
11.429
  0
ARC
  8
APS_GEOMETRY
 10
-180.175
 20
-480.973
 40
13.38
 50
187.765
 51
196.914
  0
ARC
  8
APS_GEOMETRY
 10
-191.118
 20
-484.301
 40
1.942
 50
196.914
 51
221.082
  0
ARC
  8
APS_GEOMETRY
 10
-191.077
 20
-484.264
 40
1.997
 50
221.082
 51
244.607
  0
ARC
  8
APS_GEOMETRY
 10
-186.403
 20
-474.419
 40
12.896
 50
244.607
 51
253.811
  0
ARC
  8
APS_GEOMETRY
 10
-190.512
 20
-488.429
 40
1.705
 50
51.45
 51
72.474
  0
ARC
  8
APS_GEOMETRY
 10
-190.934
 20
-488.958
 40
2.382
 50
33.69
 51
51.45
  0
ARC
  8
APS_GEOMETRY
 10
-191.033
 20
-489.024
 40
2.5
 50
16.639
 51
33.69
  0
ARC
  8
APS_GEOMETRY
 10
-191.152
 20
-489.06
 40
2.625
 50
360.0
 51
16.639
  0
ARC
  8
APS_GEOMETRY
 10
-191.189
 20
-489.06
 40
2.662
 50
338.993
 51
360.0
  0
ARC
  8
APS_GEOMETRY
 10
-192.814
 20
-488.436
 40
4.402
 50
322.696
 51
338.993
  0
ARC
  8
APS_GEOMETRY
 10
-193.419
 20
-487.974
 40
5.164
 50
308.603
 51
322.696
  0
ARC
  8
APS_GEOMETRY
 10
-193.836
 20
-487.452
 40
5.831
 50
295.346
 51
308.603
  0
ARC
  8
APS_GEOMETRY
 10
-196.027
 20
-482.626
 40
11.131
 50
279.583
 51
294.905
  0
ARC
  8
APS_GEOMETRY
 10
-198.894
 20
-465.645
 40
28.353
 50
270.0
 51
279.583
  0
ARC
  8
APS_GEOMETRY
 10
-198.894
 20
-473.326
 40
20.672
 50
261.247
 51
270.0
  0
ARC
  8
APS_GEOMETRY
 10
-200.218
 20
-481.927
 40
11.97
 50
249.737
 51
261.247
  0
ARC
  8
APS_GEOMETRY
 10
-201.089
 20
-484.284
 40
9.457
 50
235.345
 51
249.737
  0
ARC
  8
APS_GEOMETRY
 10
-202.188
 20
-485.874
 40
7.524
 50
219.198
 51
235.345
  0
ARC
  8
APS_GEOMETRY
 10
-199.875
 20
-483.902
 40
10.563
 50
209.076
 51
219.56
  0
ARC
  8
APS_GEOMETRY
 10
-194.534
 20
-480.933
 40
16.674
 50
200.735
 51
209.076
  0
ARC
  8
APS_GEOMETRY
 10
-187.164
 20
-478.143
 40
24.554
 50
197.881
 51
200.735
  0
ARC
  8
APS_GEOMETRY
 10
-156.883
 20
-468.373
 40
56.372
 50
195.997
 51
197.881
  0
ARC
  8
APS_GEOMETRY
 10
-134.501
 20
-461.956
 40
79.656
 50
194.664
 51
195.997
  0
ARC
  8
APS_GEOMETRY
 10
-72.506
 20
-445.734
 40
143.738
 50
193.671
 51
194.664
  0
ARC
  8
APS_GEOMETRY
 10
-229.716
 20
-483.954
 40
18.051
 50
13.61
 51
23.585
  0
ARC
  8
APS_GEOMETRY
 10
-217.897
 20
-478.794
 40
5.155
 50
23.585
 51
42.31
  0
ARC
  8
APS_GEOMETRY
 10
-216.825
 20
-477.818
 40
3.705
 50
42.31
 51
67.521
  0
ARC
  8
APS_GEOMETRY
 10
-217.673
 20
-479.869
 40
5.924
 50
67.521
 51
87.397
  0
LINE
  8
APS_GEOMETRY
 10
-219.268
 11
-219.628
 20
-457.272
 21
-464.892
  0
LINE
  8
APS_GEOMETRY
 10
-219.628
 11
-219.628
 20
-464.892
 21
-465.014
  0
LINE
  8
APS_GEOMETRY
 10
-219.628
 11
-219.628
 20
-465.014
 21
-465.186
  0
ARC
  8
APS_GEOMETRY
 10
-214.334
 20
-465.186
 40
5.294
 50
180.0
 51
192.339
  0
ARC
  8
APS_GEOMETRY
 10
-218.543
 20
-466.107
 40
0.986
 50
192.339
 51
221.186
  0
ARC
  8
APS_GEOMETRY
 10
-218.643
 20
-466.195
 40
0.852
 50
221.186
 51
253.872
  0
ARC
  8
APS_GEOMETRY
 10
-217.927
 20
-463.719
 40
3.429
 50
253.872
 51
270.0
  0
ARC
  8
APS_GEOMETRY
 10
-217.927
 20
-459.178
 40
7.971
 50
270.0
 51
289.569
  0
ARC
  8
APS_GEOMETRY
 10
-216.478
 20
-463.254
 40
3.644
 50
289.569
 51
318.681
  0
ARC
  8
APS_GEOMETRY
 10
-216.87
 20
-462.91
 40
4.166
 50
318.681
 51
344.628
  0
ARC
  8
APS_GEOMETRY
 10
-224.173
 20
-460.902
 40
11.74
 50
344.628
 51
0.0
  0
ARC
  8
APS_GEOMETRY
 10
-220.701
 20
-460.902
 40
8.268
 50
0.0
 51
35.369
  0
ARC
  8
APS_GEOMETRY
 10
-216.914
 20
-458.213
 40
3.623
 50
35.369
 51
90.0
  0
ARC
  8
APS_GEOMETRY
 10
-216.914
 20
-458.253
 40
3.663
 50
90.0
 51
108.435
  0
ARC
  8
APS_GEOMETRY
 10
-217.626
 20
-456.115
 40
1.409
 50
108.435
 51
138.366
  0
ARC
  8
APS_GEOMETRY
 10
-217.435
 20
-456.285
 40
1.665
 50
138.366
 51
164.291
  0
ARC
  8
APS_GEOMETRY
 10
-212.95
 20
-457.547
 40
6.324
 50
164.291
 51
177.51
  0
LINE
  8
APS_GEOMETRY
 10
-161.05
 11
-144.763
 20
-449.652
 21
-463.911
  0
ARC
  8
APS_GEOMETRY
 10
-129.531
 20
-446.431
 40
23.185
 50
228.93
 51
232.674
  0
ARC
  8
APS_GEOMETRY
 10
-138.005
 20
-457.544
 40
9.21
 50
232.674
 51
238.617
  0
ARC
  8
APS_GEOMETRY
 10
-140.137
 20
-461.039
 40
5.116
 50
238.617
 51
249.131
  0
ARC
  8
APS_GEOMETRY
 10
-141.493
 20
-464.596
 40
1.309
 50
249.131
 51
270.0
  0
ARC
  8
APS_GEOMETRY
 10
-141.493
 20
-464.758
 40
1.148
 50
270.0
 51
334.898
  0
ARC
  8
APS_GEOMETRY
 10
-146.791
 20
-462.276
 40
6.999
 50
334.898
 51
0.0
  0
ARC
  8
APS_GEOMETRY
 10
-198.022
 20
-462.276
 40
58.23
 50
0.0
 51
2.026
  0
ARC
  8
APS_GEOMETRY
 10
-167.135
 20
-461.183
 40
27.324
 50
2.026
 51
4.984
  0
ARC
  8
APS_GEOMETRY
 10
-157.036
 20
-460.302
 40
17.186
 50
4.984
 51
9.673
  0
ARC
  8
APS_GEOMETRY
 10
-145.397
 20
-458.318
 40
5.379
 50
9.673
 51
18.06
  0
ARC
  8
APS_GEOMETRY
 10
-143.625
 20
-457.74
 40
3.515
 50
18.06
 51
42.397
  0
ARC
  8
APS_GEOMETRY
 10
-144.197
 20
-458.263
 40
4.29
 50
42.397
 51
64.398
  0
ARC
  8
APS_GEOMETRY
 10
-138.973
 20
-447.477
 40
7.695
 50
233.633
 51
244.026
  0
ARC
  8
APS_GEOMETRY
 10
-141.818
 20
-451.34
 40
2.896
 50
216.656
 51
233.633
  0
ARC
  8
APS_GEOMETRY
 10
-142.255
 20
-451.665
 40
2.353
 50
196.082
 51
216.656
  0
ARC
  8
APS_GEOMETRY
 10
-140.831
 20
-451.254
 40
3.835
 50
180.0
 51
196.082
  0
ARC
  8
APS_GEOMETRY
 10
-141.877
 20
-451.254
 40
2.788
 50
133.202
 51
180.0
  0
ARC
  8
APS_GEOMETRY
 10
-139.679
 20
-453.596
 40
6.0
 50
101.788
 51
133.202
  0
ARC
  8
APS_GEOMETRY
 10
-139.166
 20
-455.892
 40
8.353
 50
96.633
 51
102.011
  0
ARC
  8
APS_GEOMETRY
 10
-137.307
 20
-471.881
 40
24.449
 50
93.489
 51
96.633
  0
ARC
  8
APS_GEOMETRY
 10
-136.511
 20
-484.94
 40
37.532
 50
91.439
 51
93.489
  0
ARC
  8
APS_GEOMETRY
 10
-135.541
 20
-523.534
 40
76.138
 50
90.0
 51
91.439
  0
ARC
  8
APS_GEOMETRY
 10
-135.541
 20
-518.36
 40
70.964
 50
87.994
 51
90.0
  0
ARC
  8
APS_GEOMETRY
 10
-134.251
 20
-481.519
 40
34.101
 50
85.101
 51
87.994
  0
ARC
  8
APS_GEOMETRY
 10
-133.204
 20
-469.303
 40
21.84
 50
80.595
 51
85.101
  0
ARC
  8
APS_GEOMETRY
 10
-130.816
 20
-454.889
 40
7.23
 50
72.759
 51
80.595
  0
ARC
  8
APS_GEOMETRY
 10
-130.093
 20
-452.648
 40
4.876
 50
40.956
 51
73.072
  0
ARC
  8
APS_GEOMETRY
 10
-128.713
 20
-451.451
 40
3.048
 50
360.0
 51
40.956
  0
ARC
  8
APS_GEOMETRY
 10
-128.529
 20
-451.451
 40
2.865
 50
322.573
 51
360.0
  0
ARC
  8
APS_GEOMETRY
 10
-130.034
 20
-450.299
 40
4.76
 50
293.749
 51
322.573
  0
ARC
  8
APS_GEOMETRY
 10
-123.99
 20
-464.18
 40
10.38
 50
113.429
 51
119.291
  0
ARC
  8
APS_GEOMETRY
 10
-128.029
 20
-456.979
 40
2.124
 50
119.291
 51
132.274
  0
ARC
  8
APS_GEOMETRY
 10
-128.262
 20
-456.723
 40
1.778
 50
132.274
 51
147.653
  0
ARC
  8
APS_GEOMETRY
 10
-126.58
 20
-457.789
 40
3.769
 50
147.653
 51
158.199
  0
ARC
  8
APS_GEOMETRY
 10
-124.02
 20
-458.868
 40
6.546
 50
157.751
 51
167.885
  0
ARC
  8
APS_GEOMETRY
 10
-110.4
 20
-461.791
 40
20.477
 50
167.885
 51
173.61
  0
ARC
  8
APS_GEOMETRY
 10
-98.354
 20
-463.14
 40
32.599
 50
173.61
 51
177.221
  0
ARC
  8
APS_GEOMETRY
 10
-61.198
 20
-464.944
 40
69.798
 50
177.221
 51
179.689
  0
LINE
  8
APS_GEOMETRY
 10
-130.995
 11
-130.995
 20
-464.565
 21
-475.226
  0
ARC
  8
APS_GEOMETRY
 10
304.37
 20
-475.226
 40
435.365
 50
180.0
 51
180.161
  0
ARC
  8
APS_GEOMETRY
 10
682.189
 20
-474.162
 40
813.186
 50
180.161
 51
180.279
  0
LINE
  8
APS_GEOMETRY
 10
-130.987
 11
-130.977
 20
-478.129
 21
-479.917
  0
LINE
  8
APS_GEOMETRY
 10
-130.977
 11
-130.962
 20
-479.917
 21
-481.93
  0
ARC
  8
APS_GEOMETRY
 10
-208.646
 20
-482.372
 40
77.685
 50
358.204
 51
0.326
  0
ARC
  8
APS_GEOMETRY
 10
-171.692
 20
-483.53
 40
40.713
 50
355.274
 51
358.204
  0
ARC
  8
APS_GEOMETRY
 10
-158.829
 20
-484.594
 40
27.806
 50
350.991
 51
355.274
  0
ARC
  8
APS_GEOMETRY
 10
-142.451
 20
-487.19
 40
11.223
 50
344.249
 51
350.991
  0
ARC
  8
APS_GEOMETRY
 10
-136.915
 20
-488.771
 40
5.466
 50
314.415
 51
344.445
  0
ARC
  8
APS_GEOMETRY
 10
-134.887
 20
-490.841
 40
2.568
 50
270.0
 51
314.415
  0
ARC
  8
APS_GEOMETRY
 10
-134.887
 20
-489.249
 40
4.16
 50
256.342
 51
270.0
  0
ARC
  8
APS_GEOMETRY
 10
-135.183
 20
-490.469
 40
2.905
 50
239.982
 51
256.342
  0
ARC
  8
APS_GEOMETRY
 10
-133.889
 20
-488.229
 40
5.492
 50
231.153
 51
239.982
  0
ARC
  8
APS_GEOMETRY
 10
-112.14
 20
-461.224
 40
40.166
 50
227.891
 51
231.153
  0
LINE
  8
APS_GEOMETRY
 10
-139.073
 11
-158.466
 20
-491.022
 21
-473.656
  0
ARC
  8
APS_GEOMETRY
 10
-165.937
 20
-481.928
 40
11.146
 50
47.911
 51
61.468
  0
ARC
  8
APS_GEOMETRY
 10
-161.834
 20
-474.382
 40
2.557
 50
61.468
 51
90.0
  0
ARC
  8
APS_GEOMETRY
 10
-161.834
 20
-472.945
 40
1.12
 50
90.0
 51
133.195
  0
ARC
  8
APS_GEOMETRY
 10
-160.73
 20
-474.121
 40
2.733
 50
133.195
 51
160.454
  0
ARC
  8
APS_GEOMETRY
 10
-157.186
 20
-475.379
 40
6.494
 50
160.454
 51
173.251
  0
ARC
  8
APS_GEOMETRY
 10
-140.519
 20
-477.352
 40
23.278
 50
173.251
 51
180.0
  0
ARC
  8
APS_GEOMETRY
 10
-95.179
 20
-477.352
 40
68.618
 50
180.0
 51
181.897
  0
ARC
  8
APS_GEOMETRY
 10
-131.521
 20
-478.555
 40
32.255
 50
181.897
 51
184.664
  0
ARC
  8
APS_GEOMETRY
 10
-143.433
 20
-479.527
 40
20.304
 50
184.664
 51
189.048
  0
ARC
  8
APS_GEOMETRY
 10
-157.234
 20
-481.725
 40
6.329
 50
189.048
 51
196.905
  0
ARC
  8
APS_GEOMETRY
 10
-159.425
 20
-482.391
 40
4.04
 50
196.905
 51
220.253
  0
ARC
  8
APS_GEOMETRY
 10
-159.381
 20
-482.354
 40
4.097
 50
220.253
 51
243.435
  0
ARC
  8
APS_GEOMETRY
 10
-163.378
 20
-490.414
 40
4.901
 50
37.921
 51
63.778
  0
ARC
  8
APS_GEOMETRY
 10
-161.346
 20
-488.831
 40
2.324
 50
360.0
 51
37.921
  0
ARC
  8
APS_GEOMETRY
 10
-162.249
 20
-488.831
 40
3.227
 50
324.268
 51
360.0
  0
ARC
  8
APS_GEOMETRY
 10
-163.457
 20
-487.962
 40
4.715
 50
294.86
 51
324.268
  0
ARC
  8
APS_GEOMETRY
 10
-165.454
 20
-483.652
 40
9.465
 50
278.78
 51
294.86
  0
ARC
  8
APS_GEOMETRY
 10
-168.833
 20
-461.772
 40
31.604
 50
270.0
 51
278.78
  0
ARC
  8
APS_GEOMETRY
 10
-168.833
 20
-467.444
 40
25.933
 50
260.383
 51
270.0
  0
ARC
  8
APS_GEOMETRY
 10
-171.566
 20
-483.573
 40
9.574
 50
244.522
 51
260.383
  0
ARC
  8
APS_GEOMETRY
 10
-173.545
 20
-487.727
 40
4.972
 50
216.549
 51
244.522
  0
ARC
  8
APS_GEOMETRY
 10
-175.167
 20
-488.929
 40
2.954
 50
180.0
 51
216.549
  0
ARC
  8
APS_GEOMETRY
 10
-174.114
 20
-488.929
 40
4.007
 50
164.65
 51
180.0
  0
ARC
  8
APS_GEOMETRY
 10
-176.399
 20
-488.302
 40
1.637
 50
140.528
 51
164.65
  0
ARC
  8
APS_GEOMETRY
 10
-175.475
 20
-489.063
 40
2.835
 50
126.135
 51
140.528
  0
ARC
  8
APS_GEOMETRY
 10
-165.82
 20
-502.285
 40
19.207
 50
120.619
 51
126.135
  0
ARC
  8
APS_GEOMETRY
 10
-177.266
 20
-482.964
 40
3.251
 50
300.784
 51
330.068
  0
ARC
  8
APS_GEOMETRY
 10
-179.432
 20
-481.717
 40
5.749
 50
330.068
 51
351.983
  0
ARC
  8
APS_GEOMETRY
 10
-215.794
 20
-476.977
 40
42.42
 50
352.493
 51
355.365
  0
ARC
  8
APS_GEOMETRY
 10
-259.657
 20
-473.42
 40
86.427
 50
355.365
 51
357.376
  0
ARC
  8
APS_GEOMETRY
 10
-290.37
 20
-472.013
 40
117.171
 50
357.376
 51
358.861
  0
ARC
  8
APS_GEOMETRY
 10
-372.197
 20
-470.386
 40
199.014
 50
358.861
 51
0.0
  0
ARC
  8
APS_GEOMETRY
 10
-298.607
 20
-470.386
 40
125.424
 50
360.0
 51
1.926
  0
ARC
  8
APS_GEOMETRY
 10
-240.221
 20
-468.422
 40
67.005
 50
1.926
 51
4.562
  0
ARC
  8
APS_GEOMETRY
 10
-219.633
 20
-466.78
 40
46.352
 50
4.562
 51
8.366
  0
ARC
  8
APS_GEOMETRY
 10
-192.857
 20
-462.842
 40
19.288
 50
8.366
 51
14.265
  0
ARC
  8
APS_GEOMETRY
 10
-182.732
 20
-460.281
 40
8.844
 50
14.349
 51
23.629
  0
ARC
  8
APS_GEOMETRY
 10
-177.598
 20
-458.035
 40
3.24
 50
23.629
 51
38.991
  0
ARC
  8
APS_GEOMETRY
 10
-177.579
 20
-458.02
 40
3.215
 50
38.991
 51
54.462
  0
ARC
  8
APS_GEOMETRY
 10
-180.583
 20
-462.225
 40
8.384
 50
54.462
 51
64.026
  0
ARC
  8
APS_GEOMETRY
 10
-172.105
 20
-444.858
 40
10.942
 50
235.472
 51
243.947
  0
ARC
  8
APS_GEOMETRY
 10
-176.484
 20
-451.223
 40
3.216
 50
219.806
 51
235.472
  0
ARC
  8
APS_GEOMETRY
 10
-177.147
 20
-451.776
 40
2.353
 50
198.939
 51
219.806
  0
ARC
  8
APS_GEOMETRY
 10
-176.676
 20
-451.614
 40
2.851
 50
180.0
 51
198.939
  0
ARC
  8
APS_GEOMETRY
 10
-176.815
 20
-451.614
 40
2.712
 50
126.254
 51
180.0
  0
ARC
  8
APS_GEOMETRY
 10
-172.676
 20
-457.259
 40
9.711
 50
98.616
 51
126.254
  0
ARC
  8
APS_GEOMETRY
 10
-172.093
 20
-461.922
 40
14.41
 50
94.456
 51
98.13
  0
ARC
  8
APS_GEOMETRY
 10
-169.845
 20
-490.774
 40
43.349
 50
92.337
 51
94.456
  0
ARC
  8
APS_GEOMETRY
 10
-168.887
 20
-514.252
 40
66.847
 50
90.963
 51
92.337
  0
ARC
  8
APS_GEOMETRY
 10
-167.721
 20
-583.601
 40
136.206
 50
90.0
 51
90.963
  0
ARC
  8
APS_GEOMETRY
 10
-167.721
 20
-472.217
 40
24.822
 50
83.928
 51
90.0
  0
ARC
  8
APS_GEOMETRY
 10
-165.685
 20
-453.08
 40
5.577
 50
71.095
 51
83.928
  0
ARC
  8
APS_GEOMETRY
 10
-165.499
 20
-452.537
 40
5.003
 50
56.848
 51
71.095
  0
ARC
  8
APS_GEOMETRY
 10
-171.002
 20
-460.961
 40
15.065
 50
48.652
 51
56.848
  0
ARC
  8
APS_GEOMETRY
 10
-102.242
 20
-488.003
 40
40.608
 50
84.71
 51
90.0
  0
ARC
  8
APS_GEOMETRY
 10
-101.498
 20
-479.963
 40
32.533
 50
78.799
 51
84.71
  0
ARC
  8
APS_GEOMETRY
 10
-96.681
 20
-455.62
 40
7.718
 50
49.783
 51
78.771
  0
ARC
  8
APS_GEOMETRY
 10
-93.46
 20
-451.81
 40
2.729
 50
360.0
 51
49.783
  0
ARC
  8
APS_GEOMETRY
 10
-93.75
 20
-451.81
 40
3.02
 50
342.759
 51
360.0
  0
ARC
  8
APS_GEOMETRY
 10
-92.175
 20
-452.299
 40
1.37
 50
317.045
 51
342.759
  0
ARC
  8
APS_GEOMETRY
 10
-92.936
 20
-451.591
 40
2.41
 50
301.817
 51
317.045
  0
ARC
  8
APS_GEOMETRY
 10
-104.192
 20
-433.449
 40
23.76
 50
296.98
 51
301.817
  0
ARC
  8
APS_GEOMETRY
 10
-92.19
 20
-457.067
 40
2.733
 50
116.565
 51
149.078
  0
ARC
  8
APS_GEOMETRY
 10
-88.671
 20
-459.175
 40
6.835
 50
149.078
 51
169.469
  0
ARC
  8
APS_GEOMETRY
 10
-81.167
 20
-460.57
 40
14.468
 50
169.469
 51
174.598
  0
ARC
  8
APS_GEOMETRY
 10
-42.503
 20
-464.226
 40
53.304
 50
174.598
 51
177.269
  0
ARC
  8
APS_GEOMETRY
 10
-8.505
 20
-465.848
 40
87.341
 50
177.269
 51
178.901
  0
ARC
  8
APS_GEOMETRY
 10
96.802
 20
-467.868
 40
192.667
 50
178.901
 51
180.0
  0
ARC
  8
APS_GEOMETRY
 10
310.792
 20
-467.868
 40
406.657
 50
180.0
 51
180.88
  0
ARC
  8
APS_GEOMETRY
 10
60.272
 20
-471.716
 40
156.107
 50
180.88
 51
182.3
  0
ARC
  8
APS_GEOMETRY
 10
-12.954
 20
-474.657
 40
82.823
 50
182.3
 51
184.974
  0
ARC
  8
APS_GEOMETRY
 10
-82.775
 20
-480.733
 40
12.738
 50
184.974
 51
191.793
  0
ARC
  8
APS_GEOMETRY
 10
-90.885
 20
-482.284
 40
4.484
 50
193.57
 51
205.787
  0
ARC
  8
APS_GEOMETRY
 10
-92.902
 20
-483.259
 40
2.244
 50
205.787
 51
223.091
  0
ARC
  8
APS_GEOMETRY
 10
-92.39
 20
-482.78
 40
2.944
 50
223.091
 51
236.441
  0
ARC
  8
APS_GEOMETRY
 10
-88.107
 20
-476.323
 40
10.693
 50
236.441
 51
243.435
  0
ARC
  8
APS_GEOMETRY
 10
-94.665
 20
-489.794
 40
4.291
 50
37.185
 51
65.556
  0
ARC
  8
APS_GEOMETRY
 10
-93.266
 20
-488.733
 40
2.535
 50
360.0
 51
37.185
  0
ARC
  8
APS_GEOMETRY
 10
-93.342
 20
-488.733
 40
2.612
 50
312.039
 51
360.0
  0
ARC
  8
APS_GEOMETRY
 10
-96.453
 20
-485.282
 40
7.258
 50
283.815
 51
312.039
  0
ARC
  8
APS_GEOMETRY
 10
-101.594
 20
-463.977
 40
29.174
 50
279.273
 51
283.627
  0
ARC
  8
APS_GEOMETRY
 10
-103.649
 20
-451.391
 40
41.926
 50
275.641
 51
279.273
  0
ARC
  8
APS_GEOMETRY
 10
-104.434
 20
-443.438
 40
49.919
 50
272.588
 51
275.641
  0
ARC
  8
APS_GEOMETRY
 10
-105.316
 20
-423.921
 40
69.456
 50
270.0
 51
272.588
  0
ARC
  8
APS_GEOMETRY
 10
-105.316
 20
-451.483
 40
41.894
 50
262.774
 51
270.0
  0
ARC
  8
APS_GEOMETRY
 10
-109.093
 20
-481.27
 40
11.868
 50
249.175
 51
262.774
  0
ARC
  8
APS_GEOMETRY
 10
-111.466
 20
-487.508
 40
5.194
 50
221.23
 51
249.175
  0
ARC
  8
APS_GEOMETRY
 10
-113.535
 20
-489.321
 40
2.443
 50
180.0
 51
221.23
  0
ARC
  8
APS_GEOMETRY
 10
-113.936
 20
-489.321
 40
2.041
 50
142.696
 51
180.0
  0
ARC
  8
APS_GEOMETRY
 10
-110.715
 20
-491.776
 40
6.091
 50
121.357
 51
142.696
  0
ARC
  8
APS_GEOMETRY
 10
-116.158
 20
-482.861
 40
4.354
 50
301.477
 51
324.728
  0
ARC
  8
APS_GEOMETRY
 10
-115.578
 20
-483.271
 40
3.643
 50
324.728
 51
350.181
  0
ARC
  8
APS_GEOMETRY
 10
-133.819
 20
-480.254
 40
22.132
 50
350.538
 51
355.423
  0
ARC
  8
APS_GEOMETRY
 10
-208.771
 20
-474.254
 40
97.324
 50
355.423
 51
357.752
  0
ARC
  8
APS_GEOMETRY
 10
-278.364
 20
-471.522
 40
166.971
 50
357.752
 51
359.111
  0
ARC
  8
APS_GEOMETRY
 10
-501.111
 20
-468.064
 40
389.744
 50
359.111
 51
0.0
  0
ARC
  8
APS_GEOMETRY
 10
-246.59
 20
-468.064
 40
135.223
 50
0.0
 51
1.773
  0
ARC
  8
APS_GEOMETRY
 10
-167.23
 20
-465.608
 40
55.825
 50
1.773
 51
4.532
  0
ARC
  8
APS_GEOMETRY
 10
-143.109
 20
-463.696
 40
31.629
 50
4.532
 51
9.384
  0
ARC
  8
APS_GEOMETRY
 10
-118.616
 20
-459.648
 40
6.803
 50
9.384
 51
19.855
  0
ARC
  8
APS_GEOMETRY
 10
-115.374
 20
-458.415
 40
3.336
 50
18.853
 51
42.158
  0
ARC
  8
APS_GEOMETRY
 10
-118.152
 20
-460.931
 40
7.084
 50
42.158
 51
58.092
  0
ARC
  8
APS_GEOMETRY
 10
-105.924
 20
-442.034
 40
15.426
 50
230.711
 51
236.634
  0
ARC
  8
APS_GEOMETRY
 10
-113.605
 20
-451.422
 40
3.296
 50
217.875
 51
230.711
  0
ARC
  8
APS_GEOMETRY
 10
-114.658
 20
-452.241
 40
1.962
 50
196.928
 51
217.875
  0
ARC
  8
APS_GEOMETRY
 10
-113.672
 20
-451.941
 40
2.992
 50
180.0
 51
196.928
  0
ARC
  8
APS_GEOMETRY
 10
-114.317
 20
-451.941
 40
2.347
 50
148.791
 51
180.0
  0
ARC
  8
APS_GEOMETRY
 10
-113.702
 20
-452.314
 40
3.067
 50
121.569
 51
148.791
  0
ARC
  8
APS_GEOMETRY
 10
-112.596
 20
-454.113
 40
5.178
 50
112.806
 51
121.569
  0
ARC
  8
APS_GEOMETRY
 10
-109.609
 20
-461.217
 40
12.885
 50
107.254
 51
112.806
  0
ARC
  8
APS_GEOMETRY
 10
-107.779
 20
-467.109
 40
19.054
 50
103.487
 51
107.254
  0
ARC
  8
APS_GEOMETRY
 10
-103.589
 20
-484.581
 40
37.022
 50
100.784
 51
103.487
  0
ARC
  8
APS_GEOMETRY
 10
-102.276
 20
-489.412
 40
42.015
 50
95.643
 51
101.31
  0
ARC
  8
APS_GEOMETRY
 10
-102.242
 20
-489.758
 40
42.362
 50
90.0
 51
95.643
  0
ARC
  8
APS_GEOMETRY
 10
-61.572
 20
-468.43
 40
21.264
 50
77.257
 51
90.0
  0
ARC
  8
APS_GEOMETRY
 10
-61.788
 20
-469.386
 40
22.243
 50
64.799
 51
77.257
  0
ARC
  8
APS_GEOMETRY
 10
-43.471
 20
-430.387
 40
20.843
 50
244.885
 51
251.175
  0
ARC
  8
APS_GEOMETRY
 10
-49.439
 20
-447.895
 40
2.346
 50
251.175
 51
270.0
  0
ARC
  8
APS_GEOMETRY
 10
-49.439
 20
-446.434
 40
3.806
 50
270.0
 51
278.82
  0
ARC
  8
APS_GEOMETRY
 10
-51.898
 20
-430.587
 40
19.844
 50
278.82
 51
282.68
  0
ARC
  8
APS_GEOMETRY
 10
-46.753
 20
-453.367
 40
3.511
 50
95.906
 51
102.995
  0
ARC
  8
APS_GEOMETRY
 10
-46.594
 20
-454.904
 40
5.055
 50
90.0
 51
95.906
  0
ARC
  8
APS_GEOMETRY
 10
-46.594
 20
-453.204
 40
3.356
 50
62.447
 51
90.0
  0
ARC
  8
APS_GEOMETRY
 10
-47.191
 20
-454.347
 40
4.645
 50
39.094
 51
62.447
  0
ARC
  8
APS_GEOMETRY
 10
-53.425
 20
-459.561
 40
12.772
 50
18.435
 51
39.611
  0
ARC
  8
APS_GEOMETRY
 10
-57.251
 20
-460.837
 40
16.806
 50
360.0
 51
18.435
  0
ARC
  8
APS_GEOMETRY
 10
-48.779
 20
-460.837
 40
8.333
 50
334.877
 51
360.0
  0
ARC
  8
APS_GEOMETRY
 10
-46.273
 20
-462.012
 40
5.565
 50
304.007
 51
334.877
  0
ARC
  8
APS_GEOMETRY
 10
-46.314
 20
-461.894
 40
5.686
 50
286.39
 51
303.69
  0
ARC
  8
APS_GEOMETRY
 10
-46.496
 20
-461.276
 40
6.33
 50
270.0
 51
286.39
  0
ARC
  8
APS_GEOMETRY
 10
-46.496
 20
-461.35
 40
6.257
 50
255.155
 51
270.0
  0
ARC
  8
APS_GEOMETRY
 10
-47.181
 20
-463.935
 40
3.581
 50
235.491
 51
255.155
  0
ARC
  8
APS_GEOMETRY
 10
-46.837
 20
-463.435
 40
4.189
 50
218.48
 51
235.491
  0
ARC
  8
APS_GEOMETRY
 10
-41.216
 20
-458.967
 40
11.369
 50
208.179
 51
218.48
  0
ARC
  8
APS_GEOMETRY
 10
-98.841
 20
-490.246
 40
54.198
 50
28.56
 51
31.664
  0
ARC
  8
APS_GEOMETRY
 10
-63.629
 20
-468.53
 40
12.827
 50
31.664
 51
38.047
  0
ARC
  8
APS_GEOMETRY
 10
-61.068
 20
-466.526
 40
9.576
 50
38.047
 51
46.56
  0
ARC
  8
APS_GEOMETRY
 10
-62.399
 20
-467.931
 40
11.512
 50
46.56
 51
54.324
  0
ARC
  8
APS_GEOMETRY
 10
-63.167
 20
-469.253
 40
13.034
 50
54.968
 51
71.48
  0
ARC
  8
APS_GEOMETRY
 10
-62.324
 20
-466.736
 40
10.38
 50
71.48
 51
90.0
  0
ARC
  8
APS_GEOMETRY
 10
-62.324
 20
-463.607
 40
7.251
 50
90.0
 51
114.63
  0
ARC
  8
APS_GEOMETRY
 10
-62.688
 20
-462.813
 40
6.377
 50
114.63
 51
140.921
  0
ARC
  8
APS_GEOMETRY
 10
-61.613
 20
-463.686
 40
7.763
 50
140.921
 51
163.13
  0
ARC
  8
APS_GEOMETRY
 10
-56.235
 20
-465.317
 40
13.382
 50
163.13
 51
180.0
  0
ARC
  8
APS_GEOMETRY
 10
-49.262
 20
-465.317
 40
20.355
 50
180.0
 51
195.44
  0
ARC
  8
APS_GEOMETRY
 10
-50.32
 20
-465.609
 40
19.258
 50
195.44
 51
211.316
  0
ARC
  8
APS_GEOMETRY
 10
-55.409
 20
-468.599
 40
13.357
 50
211.708
 51
240.457
  0
ARC
  8
APS_GEOMETRY
 10
-55.751
 20
-469.202
 40
12.663
 50
240.457
 51
270.0
  0
ARC
  8
APS_GEOMETRY
 10
-55.751
 20
-466.114
 40
15.751
 50
270.0
 51
279.549
  0
ARC
  8
APS_GEOMETRY
 10
-55.947
 20
-464.95
 40
16.931
 50
279.549
 51
288.759
  0
ARC
  8
APS_GEOMETRY
 10
-55.121
 20
-467.381
 40
14.364
 50
288.759
 51
299.545
  0
ARC
  8
APS_GEOMETRY
 10
-51.812
 20
-473.22
 40
7.652
 50
299.545
 51
314.341
  0
ARC
  8
APS_GEOMETRY
 10
-41.577
 20
-483.851
 40
7.105
 50
120.141
 51
133.452
  0
ARC
  8
APS_GEOMETRY
 10
-44.435
 20
-478.927
 40
1.412
 50
90.0
 51
120.141
  0
ARC
  8
APS_GEOMETRY
 10
-44.435
 20
-479.745
 40
2.23
 50
61.952
 51
90.0
  0
ARC
  8
APS_GEOMETRY
 10
-44.768
 20
-480.368
 40
2.936
 50
37.569
 51
61.952
  0
ARC
  8
APS_GEOMETRY
 10
-45.387
 20
-480.845
 40
3.717
 50
17.665
 51
37.569
  0
ARC
  8
APS_GEOMETRY
 10
-46.332
 20
-481.145
 40
4.709
 50
360.0
 51
17.665
  0
ARC
  8
APS_GEOMETRY
 10
-48.704
 20
-481.145
 40
7.081
 50
344.932
 51
360.0
  0
ARC
  8
APS_GEOMETRY
 10
-55.002
 20
-479.45
 40
13.603
 50
334.075
 51
344.932
  0
ARC
  8
APS_GEOMETRY
 10
-55.2
 20
-479.354
 40
13.823
 50
323.374
 51
334.075
  0
ARC
  8
APS_GEOMETRY
 10
-51.136
 20
-482.374
 40
8.76
 50
309.92
 51
323.374
  0
ARC
  8
APS_GEOMETRY
 10
-47.075
 20
-487.165
 40
2.48
 50
289.026
 51
308.991
  0
ARC
  8
APS_GEOMETRY
 10
-51.408
 20
-474.6
 40
15.771
 50
281.143
 51
289.026
  0
ARC
  8
APS_GEOMETRY
 10
-47.014
 20
-497.381
 40
7.431
 50
100.437
 51
110.12
  0
ARC
  8
APS_GEOMETRY
 10
-41.193
 20
-513.271
 40
24.353
 50
110.12
 51
115.463
  0
ARC
  8
APS_GEOMETRY
 10
-61.974
 20
-469.791
 40
23.838
 50
282.94
 51
295.628
  0
ARC
  8
APS_GEOMETRY
 10
-61.768
 20
-470.685
 40
22.921
 50
270.0
 51
282.94
  0
ARC
  8
APS_GEOMETRY
 10
-61.768
 20
-469.331
 40
24.275
 50
257.307
 51
270.0
  0
ARC
  8
APS_GEOMETRY
 10
-60.744
 20
-464.781
 40
28.939
 50
245.686
 51
257.307
  0
ARC
  8
APS_GEOMETRY
 10
-63.314
 20
-470.422
 40
22.739
 50
228.801
 51
245.735
  0
ARC
  8
APS_GEOMETRY
 10
-63.271
 20
-470.373
 40
22.805
 50
211.891
 51
228.801
  0
ARC
  8
APS_GEOMETRY
 10
-61.923
 20
-469.403
 40
24.462
 50
196.728
 51
212.152
  0
ARC
  8
APS_GEOMETRY
 10
-65.411
 20
-470.451
 40
20.82
 50
180.0
 51
196.728
  0
ARC
  8
APS_GEOMETRY
 10
-64.904
 20
-470.451
 40
21.327
 50
161.184
 51
180.0
  0
ARC
  8
APS_GEOMETRY
 10
-63.535
 20
-470.918
 40
22.773
 50
142.98
 51
161.184
  0
ARC
  8
APS_GEOMETRY
 10
-62.471
 20
-471.732
 40
24.112
 50
127.824
 51
142.958
  0
ARC
  8
APS_GEOMETRY
 10
-60.717
 20
-473.991
 40
26.973
 50
113.52
 51
127.824
  0
ARC
  8
APS_GEOMETRY
 10
-61.288
 20
-472.672
 40
25.535
 50
101.927
 51
113.527
  0
ARC
  8
APS_GEOMETRY
 10
-61.572
 20
-471.327
 40
24.161
 50
90.0
 51
101.927
  0
ARC
  8
APS_GEOMETRY
 10
-17.023
 20
-488.003
 40
40.608
 50
84.71
 51
90.0
  0
ARC
  8
APS_GEOMETRY
 10
-16.279
 20
-479.963
 40
32.533
 50
78.799
 51
84.71
  0
ARC
  8
APS_GEOMETRY
 10
-11.462
 20
-455.62
 40
7.718
 50
49.783
 51
78.771
  0
ARC
  8
APS_GEOMETRY
 10
-8.241
 20
-451.81
 40
2.729
 50
360.0
 51
49.783
  0
ARC
  8
APS_GEOMETRY
 10
-8.531
 20
-451.81
 40
3.02
 50
342.759
 51
360.0
  0
ARC
  8
APS_GEOMETRY
 10
-6.956
 20
-452.299
 40
1.37
 50
317.045
 51
342.759
  0
ARC
  8
APS_GEOMETRY
 10
-7.717
 20
-451.591
 40
2.41
 50
301.817
 51
317.045
  0
ARC
  8
APS_GEOMETRY
 10
-18.973
 20
-433.449
 40
23.76
 50
296.98
 51
301.817
  0
ARC
  8
APS_GEOMETRY
 10
-6.971
 20
-457.067
 40
2.733
 50
116.565
 51
149.078
  0
ARC
  8
APS_GEOMETRY
 10
-3.452
 20
-459.175
 40
6.835
 50
149.078
 51
169.469
  0
ARC
  8
APS_GEOMETRY
 10
4.052
 20
-460.57
 40
14.468
 50
169.469
 51
174.598
  0
ARC
  8
APS_GEOMETRY
 10
42.716
 20
-464.226
 40
53.304
 50
174.598
 51
177.269
  0
ARC
  8
APS_GEOMETRY
 10
76.714
 20
-465.848
 40
87.341
 50
177.269
 51
178.901
  0
ARC
  8
APS_GEOMETRY
 10
182.021
 20
-467.868
 40
192.667
 50
178.901
 51
180.0
  0
ARC
  8
APS_GEOMETRY
 10
396.01
 20
-467.868
 40
406.657
 50
180.0
 51
180.88
  0
ARC
  8
APS_GEOMETRY
 10
145.49
 20
-471.716
 40
156.107
 50
180.88
 51
182.3
  0
ARC
  8
APS_GEOMETRY
 10
72.265
 20
-474.657
 40
82.823
 50
182.3
 51
184.974
  0
ARC
  8
APS_GEOMETRY
 10
2.444
 20
-480.733
 40
12.738
 50
184.974
 51
191.793
  0
ARC
  8
APS_GEOMETRY
 10
-5.666
 20
-482.284
 40
4.484
 50
193.57
 51
205.787
  0
ARC
  8
APS_GEOMETRY
 10
-7.683
 20
-483.259
 40
2.244
 50
205.787
 51
223.091
  0
ARC
  8
APS_GEOMETRY
 10
-7.172
 20
-482.78
 40
2.944
 50
223.091
 51
236.441
  0
ARC
  8
APS_GEOMETRY
 10
-2.888
 20
-476.323
 40
10.693
 50
236.441
 51
243.435
  0
ARC
  8
APS_GEOMETRY
 10
-9.446
 20
-489.794
 40
4.291
 50
37.185
 51
65.556
  0
ARC
  8
APS_GEOMETRY
 10
-8.047
 20
-488.733
 40
2.535
 50
360.0
 51
37.185
  0
ARC
  8
APS_GEOMETRY
 10
-8.124
 20
-488.733
 40
2.612
 50
312.039
 51
360.0
  0
ARC
  8
APS_GEOMETRY
 10
-11.235
 20
-485.282
 40
7.258
 50
283.815
 51
312.039
  0
ARC
  8
APS_GEOMETRY
 10
-16.375
 20
-463.977
 40
29.174
 50
279.273
 51
283.627
  0
ARC
  8
APS_GEOMETRY
 10
-18.43
 20
-451.391
 40
41.926
 50
275.641
 51
279.273
  0
ARC
  8
APS_GEOMETRY
 10
-19.215
 20
-443.438
 40
49.919
 50
272.588
 51
275.641
  0
ARC
  8
APS_GEOMETRY
 10
-20.098
 20
-423.921
 40
69.456
 50
270.0
 51
272.588
  0
ARC
  8
APS_GEOMETRY
 10
-20.098
 20
-451.483
 40
41.894
 50
262.774
 51
270.0
  0
ARC
  8
APS_GEOMETRY
 10
-23.874
 20
-481.27
 40
11.868
 50
249.175
 51
262.774
  0
ARC
  8
APS_GEOMETRY
 10
-26.247
 20
-487.508
 40
5.194
 50
221.23
 51
249.175
  0
ARC
  8
APS_GEOMETRY
 10
-28.316
 20
-489.321
 40
2.443
 50
180.0
 51
221.23
  0
ARC
  8
APS_GEOMETRY
 10
-28.718
 20
-489.321
 40
2.041
 50
142.696
 51
180.0
  0
ARC
  8
APS_GEOMETRY
 10
-25.496
 20
-491.776
 40
6.091
 50
121.357
 51
142.696
  0
ARC
  8
APS_GEOMETRY
 10
-30.939
 20
-482.861
 40
4.354
 50
301.477
 51
324.728
  0
ARC
  8
APS_GEOMETRY
 10
-30.359
 20
-483.271
 40
3.643
 50
324.728
 51
350.181
  0
ARC
  8
APS_GEOMETRY
 10
-48.6
 20
-480.254
 40
22.132
 50
350.538
 51
355.423
  0
ARC
  8
APS_GEOMETRY
 10
-123.552
 20
-474.254
 40
97.324
 50
355.423
 51
357.752
  0
ARC
  8
APS_GEOMETRY
 10
-193.145
 20
-471.522
 40
166.971
 50
357.752
 51
359.111
  0
ARC
  8
APS_GEOMETRY
 10
-415.892
 20
-468.064
 40
389.744
 50
359.111
 51
0.0
  0
ARC
  8
APS_GEOMETRY
 10
-161.371
 20
-468.064
 40
135.223
 50
0.0
 51
1.773
  0
ARC
  8
APS_GEOMETRY
 10
-82.011
 20
-465.608
 40
55.825
 50
1.773
 51
4.532
  0
ARC
  8
APS_GEOMETRY
 10
-57.89
 20
-463.696
 40
31.629
 50
4.532
 51
9.384
  0
ARC
  8
APS_GEOMETRY
 10
-33.397
 20
-459.648
 40
6.803
 50
9.384
 51
19.855
  0
ARC
  8
APS_GEOMETRY
 10
-30.155
 20
-458.415
 40
3.336
 50
18.853
 51
42.158
  0
ARC
  8
APS_GEOMETRY
 10
-32.933
 20
-460.931
 40
7.084
 50
42.158
 51
58.092
  0
ARC
  8
APS_GEOMETRY
 10
-20.705
 20
-442.034
 40
15.426
 50
230.711
 51
236.634
  0
ARC
  8
APS_GEOMETRY
 10
-28.386
 20
-451.422
 40
3.296
 50
217.875
 51
230.711
  0
ARC
  8
APS_GEOMETRY
 10
-29.439
 20
-452.241
 40
1.962
 50
196.928
 51
217.875
  0
ARC
  8
APS_GEOMETRY
 10
-28.453
 20
-451.941
 40
2.992
 50
180.0
 51
196.928
  0
ARC
  8
APS_GEOMETRY
 10
-29.098
 20
-451.941
 40
2.347
 50
148.791
 51
180.0
  0
ARC
  8
APS_GEOMETRY
 10
-28.483
 20
-452.314
 40
3.067
 50
121.569
 51
148.791
  0
ARC
  8
APS_GEOMETRY
 10
-27.378
 20
-454.113
 40
5.178
 50
112.806
 51
121.569
  0
ARC
  8
APS_GEOMETRY
 10
-24.39
 20
-461.217
 40
12.885
 50
107.254
 51
112.806
  0
ARC
  8
APS_GEOMETRY
 10
-22.561
 20
-467.109
 40
19.054
 50
103.487
 51
107.254
  0
ARC
  8
APS_GEOMETRY
 10
-18.37
 20
-484.581
 40
37.022
 50
100.784
 51
103.487
  0
ARC
  8
APS_GEOMETRY
 10
-17.058
 20
-489.412
 40
42.015
 50
95.643
 51
101.31
  0
ARC
  8
APS_GEOMETRY
 10
-17.023
 20
-489.758
 40
42.362
 50
90.0
 51
95.643
  0
LINE
  8
APS_GEOMETRY
 10
52.125
 11
52.125
 20
-477.319
 21
-460.117
  0
ARC
  8
APS_GEOMETRY
 10
12.404
 20
-460.117
 40
39.721
 50
0.0
 51
2.404
  0
ARC
  8
APS_GEOMETRY
 10
35.921
 20
-459.13
 40
16.183
 50
2.404
 51
6.17
  0
ARC
  8
APS_GEOMETRY
 10
42.97
 20
-458.368
 40
9.093
 50
6.17
 51
12.824
  0
ARC
  8
APS_GEOMETRY
 10
49.869
 20
-456.797
 40
2.017
 50
12.824
 51
26.98
  0
ARC
  8
APS_GEOMETRY
 10
50.192
 20
-456.633
 40
1.655
 50
26.98
 51
59.65
  0
ARC
  8
APS_GEOMETRY
 10
47.154
 20
-461.821
 40
7.668
 50
59.65
 51
74.667
  0
ARC
  8
APS_GEOMETRY
 10
50.656
 20
-449.322
 40
5.313
 50
225.0
 51
253.887
  0
ARC
  8
APS_GEOMETRY
 10
48.495
 20
-451.483
 40
2.257
 50
180.0
 51
225.0
  0
ARC
  8
APS_GEOMETRY
 10
48.91
 20
-451.483
 40
2.672
 50
151.157
 51
180.0
  0
ARC
  8
APS_GEOMETRY
 10
48.904
 20
-451.48
 40
2.665
 50
122.276
 51
151.157
  0
ARC
  8
APS_GEOMETRY
 10
49.668
 20
-452.69
 40
4.096
 50
102.308
 51
122.276
  0
ARC
  8
APS_GEOMETRY
 10
51.078
 20
-459.154
 40
10.712
 50
90.0
 51
102.308
  0
ARC
  8
APS_GEOMETRY
 10
51.078
 20
-471.608
 40
23.166
 50
88.989
 51
90.0
  0
ARC
  8
APS_GEOMETRY
 10
49.131
 20
-581.953
 40
133.528
 50
88.568
 51
88.989
  0
ARC
  8
APS_GEOMETRY
 10
46.381
 20
-691.957
 40
243.567
 50
88.337
 51
88.568
  0
ARC
  8
APS_GEOMETRY
 10
35.723
 20
-1059.073
 40
610.838
 50
88.191
 51
88.337
  0
LINE
  8
APS_GEOMETRY
 10
55.003
 11
56.932
 20
-448.54
 21
-448.54
  0
ARC
  8
APS_GEOMETRY
 10
50.451
 20
627.41
 40
1075.969
 50
270.345
 51
270.49
  0
ARC
  8
APS_GEOMETRY
 10
56.49
 20
-79.201
 40
369.332
 50
270.49
 51
270.736
  0
ARC
  8
APS_GEOMETRY
 10
58.969
 20
-272.073
 40
176.445
 50
270.736
 51
271.253
  0
ARC
  8
APS_GEOMETRY
 10
62.495
 20
-433.289
 40
15.19
 50
271.253
 51
273.013
  0
ARC
  8
APS_GEOMETRY
 10
62.348
 20
-430.502
 40
17.982
 50
273.013
 51
274.5
  0
ARC
  8
APS_GEOMETRY
 10
45.692
 20
-218.848
 40
230.289
 50
274.5
 51
274.915
  0
LINE
  8
APS_GEOMETRY
 10
65.423
 11
67.386
 20
-448.291
 21
-448.118
  0
LINE
  8
APS_GEOMETRY
 10
67.386
 11
69.948
 20
-448.118
 21
-447.886
  0
ARC
  8
APS_GEOMETRY
 10
74.161
 20
-488.61
 40
40.941
 50
93.24
 51
95.906
  0
ARC
  8
APS_GEOMETRY
 10
73.415
 20
-475.426
 40
27.736
 50
90.0
 51
93.24
  0
ARC
  8
APS_GEOMETRY
 10
73.415
 20
-471.243
 40
23.553
 50
77.12
 51
90.0
  0
ARC
  8
APS_GEOMETRY
 10
74.656
 20
-465.816
 40
17.987
 50
62.371
 51
77.12
  0
ARC
  8
APS_GEOMETRY
 10
76.757
 20
-461.877
 40
13.522
 50
31.215
 51
62.517
  0
ARC
  8
APS_GEOMETRY
 10
76.693
 20
-461.916
 40
13.597
 50
360.0
 51
31.215
  0
ARC
  8
APS_GEOMETRY
 10
76.328
 20
-461.916
 40
13.962
 50
334.496
 51
360.0
  0
ARC
  8
APS_GEOMETRY
 10
77.015
 20
-462.243
 40
13.201
 50
308.254
 51
334.496
  0
ARC
  8
APS_GEOMETRY
 10
74.915
 20
-459.477
 40
16.674
 50
287.855
 51
308.034
  0
ARC
  8
APS_GEOMETRY
 10
73.513
 20
-455.124
 40
21.247
 50
270.0
 51
287.855
  0
ARC
  8
APS_GEOMETRY
 10
73.513
 20
-444.174
 40
32.197
 50
266.918
 51
270.0
  0
ARC
  8
APS_GEOMETRY
 10
75.467
 20
-407.877
 40
68.546
 50
264.806
 51
266.918
  0
ARC
  8
APS_GEOMETRY
 10
62.395
 20
-569.986
 40
94.095
 50
85.815
 51
86.634
  0
ARC
  8
APS_GEOMETRY
 10
67.594
 20
-481.607
 40
5.563
 50
86.634
 51
90.0
  0
ARC
  8
APS_GEOMETRY
 10
67.594
 20
-476.865
 40
0.821
 50
90.0
 51
139.686
  0
ARC
  8
APS_GEOMETRY
 10
67.898
 20
-477.123
 40
1.22
 50
139.686
 51
180.0
  0
LINE
  8
APS_GEOMETRY
 10
66.678
 11
66.678
 20
-477.123
 21
-477.319
  0
LINE
  8
APS_GEOMETRY
 10
66.678
 11
66.907
 20
-477.319
 21
-482.683
  0
ARC
  8
APS_GEOMETRY
 10
74.657
 20
-482.36
 40
7.757
 50
182.386
 51
193.753
  0
ARC
  8
APS_GEOMETRY
 10
69.659
 20
-483.583
 40
2.612
 50
193.753
 51
213.408
  0
ARC
  8
APS_GEOMETRY
 10
69.715
 20
-483.546
 40
2.679
 50
213.408
 51
232.628
  0
ARC
  8
APS_GEOMETRY
 10
74.226
 20
-477.64
 40
10.11
 50
232.628
 51
242.488
  0
ARC
  8
APS_GEOMETRY
 10
66.703
 20
-491.905
 40
6.017
 50
40.539
 51
61.699
  0
ARC
  8
APS_GEOMETRY
 10
69.991
 20
-489.092
 40
1.69
 50
360.0
 51
40.539
  0
ARC
  8
APS_GEOMETRY
 10
69.412
 20
-489.092
 40
2.269
 50
315.297
 51
360.0
  0
ARC
  8
APS_GEOMETRY
 10
66.343
 20
-486.055
 40
6.588
 50
289.502
 51
315.297
  0
ARC
  8
APS_GEOMETRY
 10
64.093
 20
-479.703
 40
13.326
 50
282.372
 51
289.502
  0
ARC
  8
APS_GEOMETRY
 10
61.731
 20
-468.932
 40
24.353
 50
277.099
 51
282.372
  0
ARC
  8
APS_GEOMETRY
 10
60.759
 20
-461.133
 40
32.213
 50
273.104
 51
277.099
  0
ARC
  8
APS_GEOMETRY
 10
59.614
 20
-440.014
 40
53.362
 50
270.0
 51
273.104
  0
ARC
  8
APS_GEOMETRY
 10
59.614
 20
-440.654
 40
52.723
 50
263.473
 51
270.0
  0
ARC
  8
APS_GEOMETRY
 10
55.281
 20
-478.521
 40
14.609
 50
251.056
 51
263.473
  0
ARC
  8
APS_GEOMETRY
 10
52.499
 20
-486.626
 40
6.039
 50
224.161
 51
251.056
  0
ARC
  8
APS_GEOMETRY
 10
49.825
 20
-489.223
 40
2.311
 50
180.0
 51
224.161
  0
ARC
  8
APS_GEOMETRY
 10
50.305
 20
-489.223
 40
2.791
 50
160.821
 51
180.0
  0
ARC
  8
APS_GEOMETRY
 10
49.134
 20
-488.816
 40
1.552
 50
135.0
 51
160.821
  0
ARC
  8
APS_GEOMETRY
 10
50.241
 20
-489.923
 40
3.117
 50
121.522
 51
135.0
  0
ARC
  8
APS_GEOMETRY
 10
62.726
 20
-510.279
 40
26.996
 50
116.952
 51
121.522
  0
ARC
  8
APS_GEOMETRY
 10
49.093
 20
-483.568
 40
2.993
 50
297.824
 51
321.605
  0
ARC
  8
APS_GEOMETRY
 10
49.782
 20
-484.114
 40
2.113
 50
321.605
 51
349.992
  0
ARC
  8
APS_GEOMETRY
 10
46.583
 20
-483.549
 40
5.362
 50
349.992
 51
356.014
  0
ARC
  8
APS_GEOMETRY
 10
-2.08
 20
-480.158
 40
54.143
 50
356.014
 51
357.908
  0
ARC
  8
APS_GEOMETRY
 10
-58.884
 20
-478.083
 40
110.985
 50
357.908
 51
358.833
  0
ARC
  8
APS_GEOMETRY
 10
-264.281
 20
-473.899
 40
316.424
 50
358.833
 51
359.381
  0
LINE
  8
APS_GEOMETRY
 10
66.907
 11
66.907
 20
-455.964
 21
-467.083
  0
ARC
  8
APS_GEOMETRY
 10
70.281
 20
-467.083
 40
3.374
 50
180.0
 51
199.885
  0
ARC
  8
APS_GEOMETRY
 10
67.756
 20
-467.996
 40
0.689
 50
199.885
 51
244.799
  0
ARC
  8
APS_GEOMETRY
 10
69.207
 20
-465.006
 40
4.013
 50
244.231
 51
258.996
  0
ARC
  8
APS_GEOMETRY
 10
69.817
 20
-461.869
 40
7.209
 50
258.996
 51
270.0
  0
ARC
  8
APS_GEOMETRY
 10
69.817
 20
-462.627
 40
6.45
 50
270.0
 51
288.435
  0
ARC
  8
APS_GEOMETRY
 10
70.28
 20
-464.016
 40
4.987
 50
288.435
 51
309.428
  0
ARC
  8
APS_GEOMETRY
 10
70.449
 20
-464.19
 40
4.745
 50
309.193
 51
339.939
  0
ARC
  8
APS_GEOMETRY
 10
64.579
 20
-462.047
 40
10.994
 50
339.939
 51
0.0
  0
ARC
  8
APS_GEOMETRY
 10
65.225
 20
-462.047
 40
10.348
 50
0.0
 51
22.011
  0
ARC
  8
APS_GEOMETRY
 10
69.81
 20
-460.193
 40
5.403
 50
22.011
 51
52.651
  0
ARC
  8
APS_GEOMETRY
 10
69.739
 20
-460.242
 40
5.485
 50
52.374
 51
72.309
  0
ARC
  8
APS_GEOMETRY
 10
69.294
 20
-461.638
 40
6.95
 50
72.309
 51
90.0
  0
ARC
  8
APS_GEOMETRY
 10
69.294
 20
-458.74
 40
4.052
 50
90.0
 51
118.113
  0
ARC
  8
APS_GEOMETRY
 10
67.811
 20
-455.964
 40
0.904
 50
118.113
 51
180.0
  0
ARC
  8
APS_GEOMETRY
 10
119.644
 20
-472.948
 40
25.782
 50
71.91
 51
90.0
  0
ARC
  8
APS_GEOMETRY
 10
120.643
 20
-469.891
 40
22.566
 50
52.561
 51
71.91
  0
ARC
  8
APS_GEOMETRY
 10
120.381
 20
-469.967
 40
22.786
 50
38.846
 51
52.156
  0
ARC
  8
APS_GEOMETRY
 10
116.809
 20
-472.844
 40
27.372
 50
26.707
 51
38.846
  0
ARC
  8
APS_GEOMETRY
 10
117.516
 20
-472.266
 40
26.482
 50
13.868
 51
26.278
  0
ARC
  8
APS_GEOMETRY
 10
122.616
 20
-471.007
 40
21.229
 50
360.0
 51
13.868
  0
ARC
  8
APS_GEOMETRY
 10
122.946
 20
-471.007
 40
20.899
 50
339.712
 51
360.0
  0
ARC
  8
APS_GEOMETRY
 10
121.77
 20
-470.572
 40
22.153
 50
320.013
 51
339.712
  0
ARC
  8
APS_GEOMETRY
 10
121.575
 20
-470.465
 40
22.372
 50
303.344
 51
320.123
  0
ARC
  8
APS_GEOMETRY
 10
119.279
 20
-466.976
 40
26.548
 50
287.949
 51
303.344
  0
ARC
  8
APS_GEOMETRY
 10
118.525
 20
-464.361
 40
29.269
 50
279.039
 51
287.776
  0
ARC
  8
APS_GEOMETRY
 10
118.827
 20
-466.26
 40
27.346
 50
270.0
 51
279.039
  0
ARC
  8
APS_GEOMETRY
 10
118.827
 20
-467.595
 40
26.011
 50
257.728
 51
270.0
  0
ARC
  8
APS_GEOMETRY
 10
118.868
 20
-467.406
 40
26.203
 50
245.501
 51
257.728
  0
ARC
  8
APS_GEOMETRY
 10
117.395
 20
-470.629
 40
22.66
 50
228.665
 51
245.511
  0
ARC
  8
APS_GEOMETRY
 10
116.905
 20
-471.186
 40
21.918
 50
211.535
 51
228.665
  0
ARC
  8
APS_GEOMETRY
 10
117.547
 20
-470.715
 40
22.712
 50
195.642
 51
211.701
  0
ARC
  8
APS_GEOMETRY
 10
118.721
 20
-470.386
 40
23.931
 50
180.0
 51
195.642
  0
ARC
  8
APS_GEOMETRY
 10
118.973
 20
-470.386
 40
24.183
 50
162.181
 51
180.0
  0
ARC
  8
APS_GEOMETRY
 10
116.766
 20
-469.677
 40
21.865
 50
143.434
 51
162.181
  0
ARC
  8
APS_GEOMETRY
 10
116.469
 20
-469.439
 40
21.485
 50
126.384
 51
143.471
  0
ARC
  8
APS_GEOMETRY
 10
118.503
 20
-472.2
 40
24.914
 50
110.525
 51
126.384
  0
ARC
  8
APS_GEOMETRY
 10
118.403
 20
-471.45
 40
24.177
 50
99.77
 51
110.925
  0
ARC
  8
APS_GEOMETRY
 10
119.644
 20
-478.662
 40
31.496
 50
90.0
 51
99.77
  0
ARC
  8
APS_GEOMETRY
 10
116.538
 20
-461.36
 40
4.807
 50
90.0
 51
119.604
  0
ARC
  8
APS_GEOMETRY
 10
116.959
 20
-462.101
 40
5.659
 50
119.604
 51
146.842
  0
ARC
  8
APS_GEOMETRY
 10
117.805
 20
-462.794
 40
6.748
 50
145.84
 51
164.055
  0
ARC
  8
APS_GEOMETRY
 10
119.766
 20
-463.355
 40
8.788
 50
164.055
 51
180.0
  0
ARC
  8
APS_GEOMETRY
 10
132.031
 20
-463.355
 40
21.053
 50
180.0
 51
189.977
  0
ARC
  8
APS_GEOMETRY
 10
150.682
 20
-460.074
 40
39.991
 50
189.977
 51
197.211
  0
ARC
  8
APS_GEOMETRY
 10
154.762
 20
-458.81
 40
44.261
 50
197.211
 51
203.76
  0
ARC
  8
APS_GEOMETRY
 10
144.599
 20
-463.284
 40
33.157
 50
203.76
 51
211.329
  0
ARC
  8
APS_GEOMETRY
 10
123.731
 20
-475.808
 40
8.821
 50
212.32
 51
224.441
  0
ARC
  8
APS_GEOMETRY
 10
122.875
 20
-476.647
 40
7.623
 50
224.441
 51
237.484
  0
ARC
  8
APS_GEOMETRY
 10
122.323
 20
-477.514
 40
6.595
 50
237.484
 51
252.416
  0
ARC
  8
APS_GEOMETRY
 10
121.77
 20
-479.257
 40
4.766
 50
252.416
 51
270.0
  0
ARC
  8
APS_GEOMETRY
 10
121.77
 20
-478.692
 40
5.331
 50
270.0
 51
294.953
  0
ARC
  8
APS_GEOMETRY
 10
121.92
 20
-479.013
 40
4.977
 50
294.953
 51
320.793
  0
ARC
  8
APS_GEOMETRY
 10
121.119
 20
-478.36
 40
6.011
 50
320.793
 51
342.777
  0
ARC
  8
APS_GEOMETRY
 10
117.551
 20
-477.254
 40
9.746
 50
342.777
 51
0.0
  0
ARC
  8
APS_GEOMETRY
 10
100.79
 20
-477.254
 40
26.507
 50
0.0
 51
8.499
  0
ARC
  8
APS_GEOMETRY
 10
89.123
 20
-478.997
 40
38.304
 50
8.499
 51
15.566
  0
ARC
  8
APS_GEOMETRY
 10
90.525
 20
-478.606
 40
36.848
 50
15.566
 51
22.909
  0
ARC
  8
APS_GEOMETRY
 10
102.589
 20
-473.508
 40
23.751
 50
22.909
 51
32.057
  0
ARC
  8
APS_GEOMETRY
 10
112.065
 20
-467.539
 40
12.552
 50
31.921
 51
42.51
  0
ARC
  8
APS_GEOMETRY
 10
114.667
 20
-465.153
 40
9.022
 50
42.51
 51
55.008
  0
ARC
  8
APS_GEOMETRY
 10
115.546
 20
-463.898
 40
7.489
 50
55.008
 51
69.88
  0
ARC
  8
APS_GEOMETRY
 10
116.334
 20
-461.747
 40
5.198
 50
69.88
 51
87.754
  0
ARC
  8
APS_GEOMETRY
 10
170.158
 20
-476.37
 40
2.42
 50
90.0
 51
115.837
  0
ARC
  8
APS_GEOMETRY
 10
169.563
 20
-475.14
 40
1.053
 50
115.837
 51
155.462
  0
ARC
  8
APS_GEOMETRY
 10
170.258
 20
-475.457
 40
1.817
 50
155.462
 51
168.366
  0
ARC
  8
APS_GEOMETRY
 10
176.604
 20
-476.764
 40
8.296
 50
168.366
 51
174.395
  0
ARC
  8
APS_GEOMETRY
 10
182.999
 20
-477.392
 40
14.722
 50
174.395
 51
177.813
  0
ARC
  8
APS_GEOMETRY
 10
204.228
 20
-478.202
 40
35.966
 50
177.813
 51
180.0
  0
ARC
  8
APS_GEOMETRY
 10
219.596
 20
-478.202
 40
51.335
 50
180.0
 51
184.62
  0
ARC
  8
APS_GEOMETRY
 10
185.176
 20
-480.984
 40
16.803
 50
184.62
 51
192.7
  0
ARC
  8
APS_GEOMETRY
 10
171.906
 20
-483.897
 40
3.218
 50
194.036
 51
205.821
  0
ARC
  8
APS_GEOMETRY
 10
170.501
 20
-484.577
 40
1.656
 50
205.821
 51
222.274
  0
ARC
  8
APS_GEOMETRY
 10
170.931
 20
-484.186
 40
2.238
 50
222.274
 51
234.605
  0
ARC
  8
APS_GEOMETRY
 10
175.792
 20
-477.345
 40
10.63
 50
234.605
 51
240.255
  0
ARC
  8
APS_GEOMETRY
 10
168.403
 20
-490.42
 40
4.389
 50
34.592
 51
61.189
  0
ARC
  8
APS_GEOMETRY
 10
169.853
 20
-489.419
 40
2.627
 50
360.0
 51
34.592
  0
ARC
  8
APS_GEOMETRY
 10
169.941
 20
-489.419
 40
2.539
 50
318.231
 51
360.0
  0
ARC
  8
APS_GEOMETRY
 10
168.243
 20
-487.903
 40
4.816
 50
288.227
 51
318.231
  0
ARC
  8
APS_GEOMETRY
 10
166.482
 20
-482.555
 40
10.446
 50
280.377
 51
288.227
  0
ARC
  8
APS_GEOMETRY
 10
163.412
 20
-465.791
 40
27.489
 50
275.541
 51
280.377
  0
ARC
  8
APS_GEOMETRY
 10
162.089
 20
-452.154
 40
41.19
 50
272.304
 51
275.541
  0
ARC
  8
APS_GEOMETRY
 10
160.478
 20
-412.118
 40
81.259
 50
270.0
 51
272.304
  0
ARC
  8
APS_GEOMETRY
 10
160.478
 20
-445.577
 40
47.8
 50
262.811
 51
270.0
  0
ARC
  8
APS_GEOMETRY
 10
156.189
 20
-479.583
 40
13.524
 50
249.274
 51
262.811
  0
ARC
  8
APS_GEOMETRY
 10
153.491
 20
-486.713
 40
5.901
 50
221.379
 51
249.274
  0
ARC
  8
APS_GEOMETRY
 10
151.124
 20
-488.798
 40
2.747
 50
180.0
 51
221.379
  0
ARC
  8
APS_GEOMETRY
 10
151.106
 20
-488.798
 40
2.728
 50
164.055
 51
180.0
  0
ARC
  8
APS_GEOMETRY
 10
149.969
 20
-488.473
 40
1.546
 50
142.815
 51
164.055
  0
ARC
  8
APS_GEOMETRY
 10
150.685
 20
-489.016
 40
2.444
 50
129.007
 51
142.815
  0
ARC
  8
APS_GEOMETRY
 10
159.477
 20
-499.87
 40
16.412
 50
123.69
 51
129.007
  0
ARC
  8
APS_GEOMETRY
 10
147.0
 20
-481.098
 40
6.128
 50
303.389
 51
319.022
  0
ARC
  8
APS_GEOMETRY
 10
148.659
 20
-482.538
 40
3.932
 50
319.022
 51
338.575
  0
ARC
  8
APS_GEOMETRY
 10
146.439
 20
-481.667
 40
6.316
 50
338.575
 51
351.049
  0
ARC
  8
APS_GEOMETRY
 10
119.633
 20
-477.445
 40
33.452
 50
351.049
 51
356.46
  0
ARC
  8
APS_GEOMETRY
 10
128.469
 20
-477.781
 40
24.613
 50
355.972
 51
358.68
  0
ARC
  8
APS_GEOMETRY
 10
-161.722
 20
-471.095
 40
314.881
 50
358.68
 51
359.437
  0
LINE
  8
APS_GEOMETRY
 10
153.144
 11
153.175
 20
-474.188
 21
-469.276
  0
LINE
  8
APS_GEOMETRY
 10
153.175
 11
153.185
 20
-469.276
 21
-462.864
  0
ARC
  8
APS_GEOMETRY
 10
77.376
 20
-462.864
 40
75.809
 50
0.0
 51
1.717
  0
ARC
  8
APS_GEOMETRY
 10
117.944
 20
-461.648
 40
35.223
 50
1.717
 51
4.236
  0
ARC
  8
APS_GEOMETRY
 10
131.174
 20
-460.668
 40
21.957
 50
4.236
 51
8.269
  0
ARC
  8
APS_GEOMETRY
 10
146.397
 20
-458.456
 40
6.573
 50
8.269
 51
15.642
  0
ARC
  8
APS_GEOMETRY
 10
149.017
 20
-457.722
 40
3.853
 50
15.642
 51
39.417
  0
ARC
  8
APS_GEOMETRY
 10
149.076
 20
-457.674
 40
3.776
 50
39.417
 51
63.435
  0
ARC
  8
APS_GEOMETRY
 10
155.878
 20
-443.584
 40
11.869
 50
236.874
 51
244.486
  0
ARC
  8
APS_GEOMETRY
 10
150.818
 20
-451.337
 40
2.611
 50
220.601
 51
236.874
  0
ARC
  8
APS_GEOMETRY
 10
150.238
 20
-451.835
 40
1.847
 50
198.246
 51
220.601
  0
ARC
  8
APS_GEOMETRY
 10
151.106
 20
-451.549
 40
2.761
 50
180.0
 51
198.246
  0
ARC
  8
APS_GEOMETRY
 10
151.093
 20
-451.549
 40
2.748
 50
156.161
 51
180.0
  0
ARC
  8
APS_GEOMETRY
 10
151.476
 20
-451.718
 40
3.167
 50
133.977
 51
156.161
  0
ARC
  8
APS_GEOMETRY
 10
152.239
 20
-452.509
 40
4.266
 50
116.996
 51
133.977
  0
ARC
  8
APS_GEOMETRY
 10
153.756
 20
-455.487
 40
7.608
 50
104.3
 51
116.996
  0
ARC
  8
APS_GEOMETRY
 10
154.148
 20
-456.993
 40
9.164
 50
95.326
 51
104.349
  0
ARC
  8
APS_GEOMETRY
 10
155.736
 20
-474.027
 40
26.272
 50
90.0
 51
95.326
  0
ARC
  8
APS_GEOMETRY
 10
155.736
 20
-460.768
 40
13.013
 50
87.553
 51
90.0
  0
ARC
  8
APS_GEOMETRY
 10
152.967
 20
-525.556
 40
77.86
 50
86.553
 51
87.553
  0
ARC
  8
APS_GEOMETRY
 10
149.031
 20
-590.902
 40
143.325
 50
86.009
 51
86.553
  0
ARC
  8
APS_GEOMETRY
 10
133.723
 20
-810.316
 40
363.271
 50
85.668
 51
86.009
  0
ARC
  8
APS_GEOMETRY
 10
162.371
 20
-433.005
 40
15.125
 50
265.426
 51
268.531
  0
ARC
  8
APS_GEOMETRY
 10
163.716
 20
-380.562
 40
67.586
 50
268.531
 51
270.0
  0
ARC
  8
APS_GEOMETRY
 10
163.716
 20
-396.637
 40
51.511
 50
270.0
 51
271.637
  0
ARC
  8
APS_GEOMETRY
 10
162.565
 20
-356.352
 40
91.812
 50
271.637
 51
272.862
  0
ARC
  8
APS_GEOMETRY
 10
161.243
 20
-329.923
 40
118.274
 50
272.862
 51
273.814
  0
ARC
  8
APS_GEOMETRY
 10
156.77
 20
-262.819
 40
185.527
 50
273.814
 51
274.574
  0
ARC
  8
APS_GEOMETRY
 10
184.832
 20
-627.81
 40
180.543
 50
93.72
 51
94.214
  0
ARC
  8
APS_GEOMETRY
 10
178.843
 20
-535.692
 40
88.23
 50
93.013
 51
93.72
  0
ARC
  8
APS_GEOMETRY
 10
177.201
 20
-504.496
 40
56.991
 50
91.918
 51
93.013
  0
ARC
  8
APS_GEOMETRY
 10
175.914
 20
-466.081
 40
18.554
 50
90.0
 51
91.918
  0
ARC
  8
APS_GEOMETRY
 10
175.914
 20
-471.635
 40
24.109
 50
73.82
 51
90.0
  0
ARC
  8
APS_GEOMETRY
 10
178.29
 20
-463.445
 40
15.581
 50
53.658
 51
73.82
  0
ARC
  8
APS_GEOMETRY
 10
181.67
 20
-458.826
 40
9.857
 50
26.03
 51
53.569
  0
ARC
  8
APS_GEOMETRY
 10
180.633
 20
-459.332
 40
11.012
 50
360.0
 51
26.03
  0
ARC
  8
APS_GEOMETRY
 10
180.201
 20
-459.332
 40
11.443
 50
345.282
 51
360.0
  0
ARC
  8
APS_GEOMETRY
 10
181.302
 20
-459.621
 40
10.305
 50
329.767
 51
345.282
  0
ARC
  8
APS_GEOMETRY
 10
181.926
 20
-459.985
 40
9.583
 50
313.168
 51
329.767
  0
ARC
  8
APS_GEOMETRY
 10
182.157
 20
-460.231
 40
9.246
 50
296.267
 51
313.168
  0
ARC
  8
APS_GEOMETRY
 10
187.42
 20
-470.865
 40
2.62
 50
116.565
 51
139.899
  0
ARC
  8
APS_GEOMETRY
 10
186.113
 20
-469.765
 40
0.911
 50
139.899
 51
180.0
  0
ARC
  8
APS_GEOMETRY
 10
186.215
 20
-469.765
 40
1.013
 50
180.0
 51
226.193
  0
ARC
  8
APS_GEOMETRY
 10
188.086
 20
-467.814
 40
3.715
 50
226.193
 51
249.829
  0
ARC
  8
APS_GEOMETRY
 10
182.724
 20
-482.575
 40
11.989
 50
53.249
 51
70.105
  0
ARC
  8
APS_GEOMETRY
 10
185.16
 20
-479.314
 40
7.919
 50
32.471
 51
53.249
  0
ARC
  8
APS_GEOMETRY
 10
184.025
 20
-480.036
 40
9.264
 50
23.305
 51
32.471
  0
ARC
  8
APS_GEOMETRY
 10
177.015
 20
-483.056
 40
16.897
 50
16.521
 51
23.305
  0
ARC
  8
APS_GEOMETRY
 10
171.549
 20
-484.677
 40
22.598
 50
11.429
 51
16.521
  0
ARC
  8
APS_GEOMETRY
 10
156.059
 20
-487.809
 40
38.401
 50
7.524
 51
11.429
  0
ARC
  8
APS_GEOMETRY
 10
207.387
 20
-480.973
 40
13.38
 50
187.765
 51
196.914
  0
ARC
  8
APS_GEOMETRY
 10
196.444
 20
-484.301
 40
1.942
 50
196.914
 51
221.082
  0
ARC
  8
APS_GEOMETRY
 10
196.486
 20
-484.264
 40
1.997
 50
221.082
 51
244.607
  0
ARC
  8
APS_GEOMETRY
 10
201.159
 20
-474.419
 40
12.896
 50
244.607
 51
253.811
  0
ARC
  8
APS_GEOMETRY
 10
197.05
 20
-488.429
 40
1.705
 50
51.45
 51
72.474
  0
ARC
  8
APS_GEOMETRY
 10
196.629
 20
-488.958
 40
2.382
 50
33.69
 51
51.45
  0
ARC
  8
APS_GEOMETRY
 10
196.53
 20
-489.024
 40
2.5
 50
16.639
 51
33.69
  0
ARC
  8
APS_GEOMETRY
 10
196.411
 20
-489.06
 40
2.625
 50
360.0
 51
16.639
  0
ARC
  8
APS_GEOMETRY
 10
196.374
 20
-489.06
 40
2.662
 50
338.993
 51
360.0
  0
ARC
  8
APS_GEOMETRY
 10
194.749
 20
-488.436
 40
4.402
 50
322.696
 51
338.993
  0
ARC
  8
APS_GEOMETRY
 10
194.143
 20
-487.974
 40
5.164
 50
308.603
 51
322.696
  0
ARC
  8
APS_GEOMETRY
 10
193.727
 20
-487.452
 40
5.831
 50
295.346
 51
308.603
  0
ARC
  8
APS_GEOMETRY
 10
191.535
 20
-482.626
 40
11.131
 50
279.583
 51
294.905
  0
ARC
  8
APS_GEOMETRY
 10
188.668
 20
-465.645
 40
28.353
 50
270.0
 51
279.583
  0
ARC
  8
APS_GEOMETRY
 10
188.668
 20
-473.326
 40
20.672
 50
261.247
 51
270.0
  0
ARC
  8
APS_GEOMETRY
 10
187.344
 20
-481.927
 40
11.97
 50
249.737
 51
261.247
  0
ARC
  8
APS_GEOMETRY
 10
186.474
 20
-484.284
 40
9.457
 50
235.345
 51
249.737
  0
ARC
  8
APS_GEOMETRY
 10
185.375
 20
-485.874
 40
7.524
 50
219.198
 51
235.345
  0
ARC
  8
APS_GEOMETRY
 10
187.688
 20
-483.902
 40
10.563
 50
209.076
 51
219.56
  0
ARC
  8
APS_GEOMETRY
 10
193.028
 20
-480.933
 40
16.674
 50
200.735
 51
209.076
  0
ARC
  8
APS_GEOMETRY
 10
200.398
 20
-478.143
 40
24.554
 50
197.881
 51
200.735
  0
ARC
  8
APS_GEOMETRY
 10
230.68
 20
-468.373
 40
56.372
 50
195.997
 51
197.881
  0
ARC
  8
APS_GEOMETRY
 10
253.061
 20
-461.956
 40
79.656
 50
194.664
 51
195.997
  0
ARC
  8
APS_GEOMETRY
 10
315.057
 20
-445.734
 40
143.738
 50
193.671
 51
194.664
  0
ARC
  8
APS_GEOMETRY
 10
157.846
 20
-483.954
 40
18.051
 50
13.61
 51
23.585
  0
ARC
  8
APS_GEOMETRY
 10
169.666
 20
-478.794
 40
5.155
 50
23.585
 51
42.31
  0
ARC
  8
APS_GEOMETRY
 10
170.738
 20
-477.818
 40
3.705
 50
42.31
 51
67.521
  0
ARC
  8
APS_GEOMETRY
 10
169.889
 20
-479.869
 40
5.924
 50
67.521
 51
87.397
  0
LINE
  8
APS_GEOMETRY
 10
168.294
 11
167.934
 20
-457.272
 21
-464.892
  0
LINE
  8
APS_GEOMETRY
 10
167.934
 11
167.934
 20
-464.892
 21
-465.014
  0
LINE
  8
APS_GEOMETRY
 10
167.934
 11
167.934
 20
-465.014
 21
-465.186
  0
ARC
  8
APS_GEOMETRY
 10
173.229
 20
-465.186
 40
5.294
 50
180.0
 51
192.339
  0
ARC
  8
APS_GEOMETRY
 10
169.02
 20
-466.107
 40
0.986
 50
192.339
 51
221.186
  0
ARC
  8
APS_GEOMETRY
 10
168.919
 20
-466.195
 40
0.852
 50
221.186
 51
253.872
  0
ARC
  8
APS_GEOMETRY
 10
169.635
 20
-463.719
 40
3.429
 50
253.872
 51
270.0
  0
ARC
  8
APS_GEOMETRY
 10
169.635
 20
-459.178
 40
7.971
 50
270.0
 51
289.569
  0
ARC
  8
APS_GEOMETRY
 10
171.084
 20
-463.254
 40
3.644
 50
289.569
 51
318.681
  0
ARC
  8
APS_GEOMETRY
 10
170.692
 20
-462.91
 40
4.166
 50
318.681
 51
344.628
  0
ARC
  8
APS_GEOMETRY
 10
163.389
 20
-460.902
 40
11.74
 50
344.628
 51
0.0
  0
ARC
  8
APS_GEOMETRY
 10
166.861
 20
-460.902
 40
8.268
 50
0.0
 51
35.369
  0
ARC
  8
APS_GEOMETRY
 10
170.649
 20
-458.213
 40
3.623
 50
35.369
 51
90.0
  0
ARC
  8
APS_GEOMETRY
 10
170.649
 20
-458.253
 40
3.663
 50
90.0
 51
108.435
  0
ARC
  8
APS_GEOMETRY
 10
169.936
 20
-456.115
 40
1.409
 50
108.435
 51
138.366
  0
ARC
  8
APS_GEOMETRY
 10
170.127
 20
-456.285
 40
1.665
 50
138.366
 51
164.291
  0
ARC
  8
APS_GEOMETRY
 10
174.612
 20
-457.547
 40
6.324
 50
164.291
 51
177.51
  0
LINE
  8
APS_GEOMETRY
 10
218.808
 11
236.043
 20
-448.082
 21
-448.082
  0
ARC
  8
APS_GEOMETRY
 10
235.171
 20
-423.387
 40
24.711
 50
272.021
 51
278.44
  0
ARC
  8
APS_GEOMETRY
 10
236.144
 20
-429.942
 40
18.083
 50
278.44
 51
285.945
  0
ARC
  8
APS_GEOMETRY
 10
243.461
 20
-456.14
 40
9.118
 50
98.584
 51
104.931
  0
ARC
  8
APS_GEOMETRY
 10
242.845
 20
-452.059
 40
4.991
 50
90.0
 51
98.584
  0
ARC
  8
APS_GEOMETRY
 10
242.845
 20
-450.82
 40
3.752
 50
52.871
 51
90.0
  0
ARC
  8
APS_GEOMETRY
 10
237.756
 20
-457.541
 40
12.182
 50
32.518
 51
52.871
  0
ARC
  8
APS_GEOMETRY
 10
233.725
 20
-460.111
 40
16.963
 50
17.209
 51
32.518
  0
ARC
  8
APS_GEOMETRY
 10
237.085
 20
-459.071
 40
13.445
 50
360.0
 51
17.209
  0
ARC
  8
APS_GEOMETRY
 10
243.813
 20
-459.071
 40
6.717
 50
337.348
 51
360.0
  0
ARC
  8
APS_GEOMETRY
 10
246.513
 20
-460.197
 40
3.792
 50
307.042
 51
337.348
  0
ARC
  8
APS_GEOMETRY
 10
246.044
 20
-459.553
 40
4.589
 50
287.186
 51
306.87
  0
ARC
  8
APS_GEOMETRY
 10
245.625
 20
-458.199
 40
6.006
 50
270.0
 51
287.186
  0
ARC
  8
APS_GEOMETRY
 10
245.625
 20
-458.812
 40
5.393
 50
252.221
 51
270.0
  0
ARC
  8
APS_GEOMETRY
 10
245.374
 20
-459.595
 40
4.571
 50
232.896
 51
252.221
  0
ARC
  8
APS_GEOMETRY
 10
246.344
 20
-458.312
 40
6.18
 50
218.3
 51
232.896
  0
ARC
  8
APS_GEOMETRY
 10
253.925
 20
-452.325
 40
15.839
 50
209.197
 51
218.3
  0
ARC
  8
APS_GEOMETRY
 10
215.371
 20
-473.213
 40
28.012
 50
28.025
 51
32.699
  0
ARC
  8
APS_GEOMETRY
 10
235.527
 20
-460.273
 40
4.06
 50
32.699
 51
45.0
  0
ARC
  8
APS_GEOMETRY
 10
236.901
 20
-458.899
 40
2.116
 50
45.0
 51
67.557
  0
ARC
  8
APS_GEOMETRY
 10
236.893
 20
-458.919
 40
2.137
 50
67.557
 51
90.0
  0
ARC
  8
APS_GEOMETRY
 10
236.893
 20
-458.75
 40
1.969
 50
90.0
 51
120.801
  0
ARC
  8
APS_GEOMETRY
 10
236.826
 20
-458.639
 40
1.839
 50
120.801
 51
152.7
  0
ARC
  8
APS_GEOMETRY
 10
238.285
 20
-459.391
 40
3.481
 50
152.7
 51
171.085
  0
ARC
  8
APS_GEOMETRY
 10
249.374
 20
-461.131
 40
14.705
 50
171.085
 51
180.0
  0
LINE
  8
APS_GEOMETRY
 10
234.669
 11
234.669
 20
-461.131
 21
-479.445
  0
ARC
  8
APS_GEOMETRY
 10
254.096
 20
-479.445
 40
19.427
 50
180.0
 51
188.194
  0
ARC
  8
APS_GEOMETRY
 10
239.589
 20
-481.534
 40
4.77
 50
188.194
 51
204.775
  0
ARC
  8
APS_GEOMETRY
 10
238.179
 20
-482.184
 40
3.218
 50
204.775
 51
228.576
  0
ARC
  8
APS_GEOMETRY
 10
239.502
 20
-480.686
 40
5.216
 50
228.576
 51
247.218
  0
ARC
  8
APS_GEOMETRY
 10
231.833
 20
-498.758
 40
14.416
 50
59.381
 51
66.93
  0
ARC
  8
APS_GEOMETRY
 10
237.494
 20
-489.192
 40
3.301
 50
43.568
 51
59.381
  0
ARC
  8
APS_GEOMETRY
 10
238.399
 20
-488.331
 40
2.051
 50
19.041
 51
43.568
  0
ARC
  8
APS_GEOMETRY
 10
237.141
 20
-488.765
 40
3.382
 50
360.0
 51
19.041
  0
ARC
  8
APS_GEOMETRY
 10
237.776
 20
-488.765
 40
2.747
 50
317.66
 51
360.0
  0
ARC
  8
APS_GEOMETRY
 10
235.253
 20
-486.467
 40
6.16
 50
289.747
 51
317.66
  0
ARC
  8
APS_GEOMETRY
 10
233.141
 20
-480.582
 40
12.412
 50
281.964
 51
289.747
  0
ARC
  8
APS_GEOMETRY
 10
230.214
 20
-466.77
 40
26.531
 50
276.643
 51
281.964
  0
ARC
  8
APS_GEOMETRY
 10
228.982
 20
-456.195
 40
37.178
 50
272.836
 51
276.643
  0
ARC
  8
APS_GEOMETRY
 10
227.507
 20
-426.419
 40
66.99
 50
270.0
 51
272.836
  0
ARC
  8
APS_GEOMETRY
 10
227.507
 20
-407.969
 40
85.44
 50
267.283
 51
270.0
  0
ARC
  8
APS_GEOMETRY
 10
225.713
 20
-445.772
 40
47.595
 50
263.643
 51
267.283
  0
ARC
  8
APS_GEOMETRY
 10
224.211
 20
-459.256
 40
34.027
 50
258.563
 51
263.643
  0
ARC
  8
APS_GEOMETRY
 10
220.622
 20
-476.995
 40
15.929
 50
251.136
 51
258.563
  0
ARC
  8
APS_GEOMETRY
 10
217.418
 20
-486.288
 40
6.099
 50
222.558
 51
251.395
  0
ARC
  8
APS_GEOMETRY
 10
215.041
 20
-488.471
 40
2.871
 50
180.0
 51
222.558
  0
ARC
  8
APS_GEOMETRY
 10
214.561
 20
-488.471
 40
2.392
 50
150.642
 51
180.0
  0
ARC
  8
APS_GEOMETRY
 10
214.753
 20
-488.579
 40
2.612
 50
122.574
 51
150.642
  0
ARC
  8
APS_GEOMETRY
 10
214.246
 20
-487.996
 40
1.851
 50
108.677
 51
119.055
  0
ARC
  8
APS_GEOMETRY
 10
237.361
 20
-556.38
 40
74.036
 50
107.038
 51
108.677
  0
ARC
  8
APS_GEOMETRY
 10
214.807
 20
-482.617
 40
3.099
 50
286.144
 51
308.66
  0
ARC
  8
APS_GEOMETRY
 10
215.314
 20
-483.251
 40
2.287
 50
308.66
 51
334.933
  0
ARC
  8
APS_GEOMETRY
 10
213.25
 20
-482.285
 40
4.566
 50
334.933
 51
348.829
  0
ARC
  8
APS_GEOMETRY
 10
187.424
 20
-477.185
 40
30.891
 50
348.829
 51
354.161
  0
ARC
  8
APS_GEOMETRY
 10
169.968
 20
-475.386
 40
48.439
 50
354.144
 51
355.66
  0
ARC
  8
APS_GEOMETRY
 10
92.591
 20
-469.514
 40
126.038
 50
355.66
 51
356.6
  0
ARC
  8
APS_GEOMETRY
 10
33.442
 20
-466.0
 40
185.291
 50
356.6
 51
357.24
  0
ARC
  8
APS_GEOMETRY
 10
-134.383
 20
-457.909
 40
353.311
 50
357.24
 51
357.703
  0
ARC
  8
APS_GEOMETRY
 10
-117.862
 20
-458.571
 40
336.777
 50
357.703
 51
358.674
  0
ARC
  8
APS_GEOMETRY
 10
37.97
 20
-462.177
 40
180.903
 50
358.674
 51
0.0
  0
ARC
  8
APS_GEOMETRY
 10
192.063
 20
-462.177
 40
26.81
 50
0.0
 51
6.242
  0
ARC
  8
APS_GEOMETRY
 10
213.383
 20
-459.846
 40
5.364
 50
6.242
 51
20.225
  0
ARC
  8
APS_GEOMETRY
 10
216.337
 20
-458.757
 40
2.215
 50
20.225
 51
50.44
  0
ARC
  8
APS_GEOMETRY
 10
216.911
 20
-458.062
 40
1.314
 50
50.44
 51
90.0
  0
ARC
  8
APS_GEOMETRY
 10
216.911
 20
-458.511
 40
1.762
 50
90.0
 51
126.747
  0
ARC
  8
APS_GEOMETRY
 10
219.401
 20
-461.846
 40
5.924
 50
126.747
 51
146.547
  0
ARC
  8
APS_GEOMETRY
 10
175.413
 20
-432.933
 40
46.715
 50
324.255
 51
326.701
  0
ARC
  8
APS_GEOMETRY
 10
194.036
 20
-446.337
 40
23.77
 50
320.826
 51
324.255
  0
ARC
  8
APS_GEOMETRY
 10
200.123
 20
-451.296
 40
15.918
 50
315.722
 51
320.826
  0
ARC
  8
APS_GEOMETRY
 10
207.117
 20
-458.117
 40
6.149
 50
307.504
 51
315.722
  0
ARC
  8
APS_GEOMETRY
 10
206.472
 20
-457.255
 40
7.226
 50
291.306
 51
307.405
  0
ARC
  8
APS_GEOMETRY
 10
207.591
 20
-460.124
 40
4.146
 50
270.0
 51
291.306
  0
ARC
  8
APS_GEOMETRY
 10
207.591
 20
-460.391
 40
3.879
 50
245.532
 51
270.0
  0
ARC
  8
APS_GEOMETRY
 10
207.561
 20
-460.456
 40
3.808
 50
220.833
 51
245.532
  0
ARC
  8
APS_GEOMETRY
 10
207.954
 20
-460.116
 40
4.328
 50
198.684
 51
220.833
  0
ARC
  8
APS_GEOMETRY
 10
209.596
 20
-459.561
 40
6.06
 50
180.0
 51
198.684
  0
ARC
  8
APS_GEOMETRY
 10
213.443
 20
-459.561
 40
9.908
 50
168.408
 51
180.0
  0
ARC
  8
APS_GEOMETRY
 10
219.796
 20
-460.864
 40
16.393
 50
159.402
 51
168.408
  0
ARC
  8
APS_GEOMETRY
 10
221.759
 20
-461.602
 40
18.49
 50
151.39
 51
159.402
  0
ARC
  8
APS_GEOMETRY
 10
221.357
 20
-461.383
 40
18.032
 50
143.276
 51
151.39
  0
ARC
  8
APS_GEOMETRY
 10
216.307
 20
-457.607
 40
11.726
 50
124.216
 51
143.31
  0
ARC
  8
APS_GEOMETRY
 10
211.809
 20
-450.992
 40
3.728
 50
90.0
 51
124.216
  0
ARC
  8
APS_GEOMETRY
 10
211.809
 20
-452.649
 40
5.384
 50
82.725
 51
90.0
  0
ARC
  8
APS_GEOMETRY
 10
211.389
 20
-455.944
 40
8.707
 50
77.005
 51
82.725
  0
ARC
  8
APS_GEOMETRY
 10
224.237
 20
-393.998
 40
54.561
 50
258.486
 51
260.378
  0
ARC
  8
APS_GEOMETRY
 10
218.733
 20
-426.463
 40
21.633
 50
260.378
 51
263.382
  0
ARC
  8
APS_GEOMETRY
 10
218.262
 20
-430.52
 40
17.548
 50
263.382
 51
267.084
  0
ARC
  8
APS_GEOMETRY
 10
218.808
 20
-419.809
 40
28.273
 50
267.084
 51
270.0
  0
LINE
  8
APS_GEOMETRY
 10
262.225
 11
279.035
 20
-448.082
 21
-448.082
  0
ARC
  8
APS_GEOMETRY
 10
279.035
 20
-236.363
 40
211.72
 50
270.0
 51
270.69
  0
ARC
  8
APS_GEOMETRY
 10
280.228
 20
-335.419
 40
112.656
 50
270.69
 51
271.637
  0
ARC
  8
APS_GEOMETRY
 10
281.234
 20
-370.613
 40
77.448
 50
271.637
 51
273.013
  0
ARC
  8
APS_GEOMETRY
 10
283.684
 20
-417.175
 40
30.821
 50
273.013
 51
275.194
  0
ARC
  8
APS_GEOMETRY
 10
284.292
 20
-423.857
 40
24.112
 50
275.194
 51
280.756
  0
ARC
  8
APS_GEOMETRY
 10
284.406
 20
-424.458
 40
23.5
 50
280.756
 51
286.39
  0
ARC
  8
APS_GEOMETRY
 10
293.02
 20
-453.943
 40
7.217
 50
100.305
 51
105.945
  0
ARC
  8
APS_GEOMETRY
 10
292.116
 20
-448.973
 40
2.166
 50
90.0
 51
100.305
  0
ARC
  8
APS_GEOMETRY
 10
292.116
 20
-449.747
 40
2.94
 50
58.946
 51
90.0
  0
ARC
  8
APS_GEOMETRY
 10
290.992
 20
-451.614
 40
5.119
 50
35.538
 51
58.946
  0
ARC
  8
APS_GEOMETRY
 10
286.603
 20
-454.843
 40
10.568
 50
16.699
 51
35.952
  0
ARC
  8
APS_GEOMETRY
 10
283.302
 20
-455.833
 40
14.014
 50
360.0
 51
16.699
  0
ARC
  8
APS_GEOMETRY
 10
289.452
 20
-455.833
 40
7.864
 50
344.982
 51
360.0
  0
ARC
  8
APS_GEOMETRY
 10
293.227
 20
-456.846
 40
3.956
 50
323.746
 51
344.982
  0
ARC
  8
APS_GEOMETRY
 10
294.065
 20
-457.461
 40
2.916
 50
296.114
 51
323.746
  0
ARC
  8
APS_GEOMETRY
 10
293.915
 20
-457.154
 40
3.258
 50
270.0
 51
296.114
  0
ARC
  8
APS_GEOMETRY
 10
293.915
 20
-456.327
 40
4.084
 50
255.311
 51
270.0
  0
ARC
  8
APS_GEOMETRY
 10
293.369
 20
-458.41
 40
1.931
 50
233.881
 51
255.311
  0
ARC
  8
APS_GEOMETRY
 10
293.944
 20
-457.623
 40
2.906
 50
219.289
 51
233.881
  0
ARC
  8
APS_GEOMETRY
 10
305.474
 20
-448.189
 40
17.803
 50
213.408
 51
219.289
  0
ARC
  8
APS_GEOMETRY
 10
283.872
 20
-462.417
 40
8.063
 50
33.294
 51
51.246
  0
ARC
  8
APS_GEOMETRY
 10
284.97
 20
-461.049
 40
6.309
 50
51.246
 51
71.565
  0
ARC
  8
APS_GEOMETRY
 10
284.244
 20
-463.227
 40
8.604
 50
71.565
 51
79.278
  0
ARC
  8
APS_GEOMETRY
 10
281.916
 20
-475.522
 40
21.118
 50
79.278
 51
84.2
  0
ARC
  8
APS_GEOMETRY
 10
280.923
 20
-485.301
 40
30.947
 50
84.2
 51
87.567
  0
ARC
  8
APS_GEOMETRY
 10
279.722
 20
-513.579
 40
59.251
 50
87.567
 51
90.0
  0
ARC
  8
APS_GEOMETRY
 10
279.722
 20
-470.984
 40
16.656
 50
90.0
 51
96.374
  0
ARC
  8
APS_GEOMETRY
 10
278.616
 20
-461.088
 40
6.698
 50
96.374
 51
106.434
  0
ARC
  8
APS_GEOMETRY
 10
277.83
 20
-458.425
 40
3.921
 50
106.434
 51
123.056
  0
ARC
  8
APS_GEOMETRY
 10
276.604
 20
-456.54
 40
1.673
 50
123.056
 51
148.627
  0
ARC
  8
APS_GEOMETRY
 10
277.724
 20
-457.175
 40
2.96
 50
149.421
 51
165.28
  0
ARC
  8
APS_GEOMETRY
 10
280.953
 20
-458.024
 40
6.298
 50
165.28
 51
176.135
  0
ARC
  8
APS_GEOMETRY
 10
290.195
 20
-458.648
 40
15.562
 50
176.135
 51
178.367
  0
ARC
  8
APS_GEOMETRY
 10
375.701
 20
-461.086
 40
101.103
 50
178.367
 51
179.242
  0
ARC
  8
APS_GEOMETRY
 10
464.07
 20
-462.255
 40
189.479
 50
179.242
 51
179.709
  0
ARC
  8
APS_GEOMETRY
 10
764.719
 20
-463.78
 40
490.132
 50
179.709
 51
180.0
  0
ARC
  8
APS_GEOMETRY
 10
281.678
 20
-463.78
 40
7.091
 50
180.0
 51
195.027
  0
ARC
  8
APS_GEOMETRY
 10
275.879
 20
-465.337
 40
1.086
 50
195.027
 51
234.058
  0
ARC
  8
APS_GEOMETRY
 10
275.935
 20
-465.259
 40
1.183
 50
234.058
 51
253.191
  0
ARC
  8
APS_GEOMETRY
 10
277.173
 20
-461.163
 40
5.461
 50
253.191
 51
262.063
  0
ARC
  8
APS_GEOMETRY
 10
277.806
 20
-456.618
 40
10.05
 50
262.063
 51
266.949
  0
ARC
  8
APS_GEOMETRY
 10
278.642
 20
-440.936
 40
25.755
 50
266.949
 51
270.0
  0
ARC
  8
APS_GEOMETRY
 10
278.642
 20
-461.969
 40
4.722
 50
270.0
 51
286.007
  0
ARC
  8
APS_GEOMETRY
 10
279.469
 20
-464.85
 40
1.725
 50
286.007
 51
312.647
  0
ARC
  8
APS_GEOMETRY
 10
279.451
 20
-464.831
 40
1.75
 50
312.647
 51
338.993
  0
ARC
  8
APS_GEOMETRY
 10
275.877
 20
-463.458
 40
5.58
 50
338.993
 51
353.66
  0
ARC
  8
APS_GEOMETRY
 10
312.796
 20
-467.861
 40
31.601
 50
169.663
 51
173.118
  0
ARC
  8
APS_GEOMETRY
 10
286.406
 20
-463.047
 40
4.776
 50
160.769
 51
169.663
  0
ARC
  8
APS_GEOMETRY
 10
284.199
 20
-462.278
 40
2.439
 50
143.746
 51
160.769
  0
ARC
  8
APS_GEOMETRY
 10
284.732
 20
-462.669
 40
3.1
 50
128.66
 51
143.746
  0
ARC
  8
APS_GEOMETRY
 10
284.377
 20
-462.092
 40
2.429
 50
110.171
 51
130.601
  0
ARC
  8
APS_GEOMETRY
 10
284.398
 20
-462.151
 40
2.492
 50
90.0
 51
110.171
  0
ARC
  8
APS_GEOMETRY
 10
284.398
 20
-462.186
 40
2.527
 50
61.22
 51
90.0
  0
ARC
  8
APS_GEOMETRY
 10
283.957
 20
-462.989
 40
3.443
 50
36.634
 51
61.22
  0
ARC
  8
APS_GEOMETRY
 10
283.543
 20
-463.235
 40
3.923
 50
19.103
 51
35.91
  0
ARC
  8
APS_GEOMETRY
 10
270.748
 20
-467.667
 40
17.463
 50
11.16
 51
19.103
  0
ARC
  8
APS_GEOMETRY
 10
264.063
 20
-468.986
 40
24.277
 50
5.396
 51
11.16
  0
ARC
  8
APS_GEOMETRY
 10
260.663
 20
-469.307
 40
27.692
 50
0.0
 51
5.396
  0
ARC
  8
APS_GEOMETRY
 10
261.145
 20
-469.307
 40
27.21
 50
349.287
 51
0.0
  0
ARC
  8
APS_GEOMETRY
 10
274.503
 20
-471.834
 40
13.615
 50
334.12
 51
349.287
  0
ARC
  8
APS_GEOMETRY
 10
283.705
 20
-476.281
 40
3.396
 50
303.53
 51
333.853
  0
ARC
  8
APS_GEOMETRY
 10
284.038
 20
-476.784
 40
2.791
 50
270.0
 51
303.53
  0
ARC
  8
APS_GEOMETRY
 10
284.038
 20
-476.654
 40
2.922
 50
249.578
 51
270.0
  0
ARC
  8
APS_GEOMETRY
 10
283.417
 20
-478.323
 40
1.14
 50
216.607
 51
249.578
  0
ARC
  8
APS_GEOMETRY
 10
284.011
 20
-477.882
 40
1.881
 50
195.422
 51
216.607
  0
ARC
  8
APS_GEOMETRY
 10
294.273
 20
-475.051
 40
12.526
 50
187.253
 51
195.422
  0
ARC
  8
APS_GEOMETRY
 10
277.701
 20
-477.183
 40
4.183
 50
7.561
 51
49.434
  0
ARC
  8
APS_GEOMETRY
 10
277.53
 20
-477.382
 40
4.445
 50
49.434
 51
90.0
  0
ARC
  8
APS_GEOMETRY
 10
277.53
 20
-475.928
 40
2.991
 50
90.0
 51
115.224
  0
ARC
  8
APS_GEOMETRY
 10
276.939
 20
-474.672
 40
1.603
 50
115.224
 51
149.931
  0
ARC
  8
APS_GEOMETRY
 10
278.008
 20
-475.291
 40
2.838
 50
149.931
 51
171.111
  0
ARC
  8
APS_GEOMETRY
 10
290.976
 20
-477.319
 40
15.963
 50
171.111
 51
180.0
  0
ARC
  8
APS_GEOMETRY
 10
303.751
 20
-477.319
 40
28.739
 50
180.0
 51
183.062
  0
ARC
  8
APS_GEOMETRY
 10
347.739
 20
-474.966
 40
72.789
 50
183.062
 51
184.986
  0
ARC
  8
APS_GEOMETRY
 10
324.666
 20
-476.979
 40
49.629
 50
184.986
 51
187.804
  0
ARC
  8
APS_GEOMETRY
 10
280.965
 20
-482.968
 40
5.52
 50
187.804
 51
196.26
  0
ARC
  8
APS_GEOMETRY
 10
277.111
 20
-484.129
 40
1.496
 50
194.931
 51
230.024
  0
ARC
  8
APS_GEOMETRY
 10
278.092
 20
-482.959
 40
3.022
 50
230.024
 51
254.511
  0
ARC
  8
APS_GEOMETRY
 10
279.284
 20
-478.658
 40
7.485
 50
254.511
 51
265.219
  0
ARC
  8
APS_GEOMETRY
 10
281.782
 20
-448.791
 40
37.456
 50
265.219
 51
270.0
  0
ARC
  8
APS_GEOMETRY
 10
281.782
 20
-452.751
 40
33.497
 50
270.0
 51
274.186
  0
ARC
  8
APS_GEOMETRY
 10
282.8
 20
-466.667
 40
19.543
 50
274.186
 51
279.668
  0
ARC
  8
APS_GEOMETRY
 10
283.637
 20
-471.575
 40
14.564
 50
279.668
 51
286.991
  0
ARC
  8
APS_GEOMETRY
 10
285.549
 20
-477.835
 40
8.018
 50
286.991
 51
296.866
  0
ARC
  8
APS_GEOMETRY
 10
285.947
 20
-478.62
 40
7.139
 50
296.866
 51
318.366
  0
ARC
  8
APS_GEOMETRY
 10
281.948
 20
-475.065
 40
12.489
 50
318.366
 51
334.581
  0
ARC
  8
APS_GEOMETRY
 10
308.277
 20
-487.691
 40
16.711
 50
147.08
 51
154.231
  0
ARC
  8
APS_GEOMETRY
 10
297.271
 20
-480.565
 40
3.599
 50
131.634
 51
147.08
  0
ARC
  8
APS_GEOMETRY
 10
296.45
 20
-479.642
 40
2.364
 50
108.875
 51
131.634
  0
ARC
  8
APS_GEOMETRY
 10
296.793
 20
-480.644
 40
3.423
 50
90.0
 51
108.875
  0
ARC
  8
APS_GEOMETRY
 10
296.793
 20
-479.948
 40
2.727
 50
62.628
 51
90.0
  0
ARC
  8
APS_GEOMETRY
 10
296.62
 20
-480.282
 40
3.103
 50
36.995
 51
62.628
  0
ARC
  8
APS_GEOMETRY
 10
295.847
 20
-480.864
 40
4.071
 50
16.728
 51
36.995
  0
ARC
  8
APS_GEOMETRY
 10
294.041
 20
-481.407
 40
5.956
 50
360.0
 51
16.728
  0
ARC
  8
APS_GEOMETRY
 10
290.466
 20
-481.407
 40
9.532
 50
348.323
 51
360.0
  0
ARC
  8
APS_GEOMETRY
 10
276.157
 20
-478.45
 40
24.143
 50
340.994
 51
348.323
  0
ARC
  8
APS_GEOMETRY
 10
272.763
 20
-477.281
 40
27.733
 50
334.592
 51
340.994
  0
ARC
  8
APS_GEOMETRY
 10
278.687
 20
-480.095
 40
21.175
 50
327.265
 51
334.592
  0
ARC
  8
APS_GEOMETRY
 10
285.567
 20
-484.15
 40
13.198
 50
320.133
 51
325.923
  0
ARC
  8
APS_GEOMETRY
 10
293.57
 20
-490.834
 40
2.771
 50
307.476
 51
320.133
  0
ARC
  8
APS_GEOMETRY
 10
294.271
 20
-491.748
 40
1.619
 50
286.429
 51
307.476
  0
ARC
  8
APS_GEOMETRY
 10
293.98
 20
-490.764
 40
2.646
 50
270.0
 51
286.429
  0
ARC
  8
APS_GEOMETRY
 10
293.98
 20
-487.705
 40
5.704
 50
263.774
 51
270.0
  0
ARC
  8
APS_GEOMETRY
 10
295.649
 20
-472.408
 40
21.092
 50
260.538
 51
263.774
  0
ARC
  8
APS_GEOMETRY
 10
288.18
 20
-514.554
 40
21.713
 50
79.38
 51
84.987
  0
ARC
  8
APS_GEOMETRY
 10
284.942
 20
-551.465
 40
58.766
 50
84.987
 51
88.394
  0
LINE
  8
APS_GEOMETRY
 10
286.589
 11
258.857
 20
-492.722
 21
-492.722
  0
ARC
  8
APS_GEOMETRY
 10
258.857
 20
-486.919
 40
5.804
 50
254.103
 51
270.0
  0
ARC
  8
APS_GEOMETRY
 10
258.039
 20
-489.789
 40
2.82
 50
231.216
 51
254.103
  0
ARC
  8
APS_GEOMETRY
 10
257.704
 20
-490.206
 40
2.284
 50
203.795
 51
231.216
  0
ARC
  8
APS_GEOMETRY
 10
258.376
 20
-489.91
 40
3.019
 50
180.0
 51
203.795
  0
ARC
  8
APS_GEOMETRY
 10
258.63
 20
-489.91
 40
3.273
 50
164.055
 51
180.0
  0
ARC
  8
APS_GEOMETRY
 10
256.614
 20
-489.334
 40
1.175
 50
137.291
 51
164.055
  0
ARC
  8
APS_GEOMETRY
 10
257.221
 20
-489.894
 40
2.001
 50
120.964
 51
137.291
  0
ARC
  8
APS_GEOMETRY
 10
263.721
 20
-500.728
 40
14.637
 50
114.944
 51
120.964
  0
ARC
  8
APS_GEOMETRY
 10
255.606
 20
-482.974
 40
4.886
 50
293.429
 51
305.72
  0
ARC
  8
APS_GEOMETRY
 10
256.95
 20
-484.843
 40
2.584
 50
305.72
 51
322.651
  0
ARC
  8
APS_GEOMETRY
 10
256.741
 20
-484.684
 40
2.846
 50
322.651
 51
338.11
  0
ARC
  8
APS_GEOMETRY
 10
252.683
 20
-483.054
 40
7.219
 50
338.11
 51
347.8
  0
ARC
  8
APS_GEOMETRY
 10
227.483
 20
-477.53
 40
33.018
 50
347.672
 51
352.051
  0
ARC
  8
APS_GEOMETRY
 10
203.09
 20
-474.124
 40
57.647
 50
352.051
 51
355.365
  0
ARC
  8
APS_GEOMETRY
 10
186.663
 20
-472.792
 40
74.128
 50
355.365
 51
357.943
  0
ARC
  8
APS_GEOMETRY
 10
144.253
 20
-471.269
 40
116.566
 50
357.943
 51
0.0
  0
ARC
  8
APS_GEOMETRY
 10
95.301
 20
-471.269
 40
165.518
 50
0.0
 51
2.183
  0
ARC
  8
APS_GEOMETRY
 10
194.276
 20
-467.496
 40
66.471
 50
2.183
 51
5.629
  0
ARC
  8
APS_GEOMETRY
 10
223.76
 20
-464.589
 40
36.844
 50
5.629
 51
11.805
  0
ARC
  8
APS_GEOMETRY
 10
252.376
 20
-458.609
 40
7.61
 50
11.805
 51
25.419
  0
ARC
  8
APS_GEOMETRY
 10
256.08
 20
-456.927
 40
3.544
 50
26.565
 51
38.157
  0
ARC
  8
APS_GEOMETRY
 10
257.724
 20
-455.635
 40
1.452
 50
38.157
 51
56.31
  0
ARC
  8
APS_GEOMETRY
 10
257.376
 20
-456.157
 40
2.079
 50
56.31
 51
69.193
  0
ARC
  8
APS_GEOMETRY
 10
252.496
 20
-468.998
 40
15.817
 50
69.193
 51
73.856
  0
ARC
  8
APS_GEOMETRY
 10
257.644
 20
-451.291
 40
2.623
 50
216.87
 51
253.393
  0
ARC
  8
APS_GEOMETRY
 10
257.606
 20
-451.32
 40
2.576
 50
180.0
 51
216.87
  0
ARC
  8
APS_GEOMETRY
 10
258.168
 20
-451.32
 40
3.138
 50
161.565
 51
180.0
  0
ARC
  8
APS_GEOMETRY
 10
258.055
 20
-451.282
 40
3.018
 50
142.765
 51
161.565
  0
ARC
  8
APS_GEOMETRY
 10
257.983
 20
-451.227
 40
2.928
 50
123.425
 51
142.765
  0
ARC
  8
APS_GEOMETRY
 10
258.048
 20
-451.327
 40
3.047
 50
104.47
 51
123.425
  0
ARC
  8
APS_GEOMETRY
 10
258.628
 20
-454.189
 40
5.965
 50
96.724
 51
102.995
  0
ARC
  8
APS_GEOMETRY
 10
260.429
 20
-469.464
 40
21.346
 50
93.411
 51
96.724
  0
ARC
  8
APS_GEOMETRY
 10
261.229
 20
-482.885
 40
34.791
 50
91.375
 51
93.411
  0
ARC
  8
APS_GEOMETRY
 10
262.225
 20
-524.385
 40
76.303
 50
90.0
 51
91.375
  0
LINE
  8
QUOTATURA
 10
987.665
 11
984.331
 20
623.945
 21
603.945
  0
LINE
  8
QUOTATURA
 10
984.331
 11
980.997
 20
603.945
 21
623.945
  0
LINE
  8
QUOTATURA
 10
980.997
 11
987.665
 20
623.945
 21
623.945
  0
LINE
  8
QUOTATURA
 10
984.331
 11
984.331
 20
603.945
 21
646.075
  0
LINE
  8
QUOTATURA
 10
984.331
 11
945.074
 20
646.075
 21
646.075
  0
LINE
  8
COSTRUZIONI
 10
-1.5
 11
-1.5
 20
-109.191
 21
-227.191
  0
LINE
  8
COSTRUZIONI
 10
-21.5
 11
-21.5
 20
-109.191
 21
-227.191
  0
LINE
  8
COSTRUZIONI
 10
-1.5
 11
-136.543
 20
-109.191
 21
-109.191
  0
LINE
  8
COSTRUZIONI
 10
-1.5
 11
-136.543
 20
-227.191
 21
-227.191
  0
LINE
  8
COSTRUZIONI
 10
-21.5
 11
-1.5
 20
-227.191
 21
-109.191
  0
LINE
  8
COSTRUZIONI
 10
-21.5
 11
-1.5
 20
-109.191
 21
-227.191
  0
LINE
  8
COSTRUZIONI
 10
881.5
 11
881.5
 20
-109.191
 21
-227.191
  0
LINE
  8
COSTRUZIONI
 10
901.5
 11
901.5
 20
-109.191
 21
-227.191
  0
LINE
  8
COSTRUZIONI
 10
881.5
 11
1016.543
 20
-109.191
 21
-109.191
  0
LINE
  8
COSTRUZIONI
 10
881.5
 11
1016.543
 20
-227.191
 21
-227.191
  0
LINE
  8
COSTRUZIONI
 10
901.5
 11
881.5
 20
-227.191
 21
-109.191
  0
LINE
  8
COSTRUZIONI
 10
901.5
 11
881.5
 20
-109.191
 21
-227.191
  0
LINE
  8
APS_GEOMETRY
 10
33.5
 11
33.5
 20
-128.691
 21
-102.191
  0
ARC
  8
APS_GEOMETRY
 10
30.5
 20
-102.191
 40
3.0
 50
0.0
 51
90.0
  0
LINE
  8
APS_GEOMETRY
 10
30.5
 11
11.5
 20
-99.191
 21
-99.191
  0
ARC
  8
APS_GEOMETRY
 10
11.5
 20
-102.191
 40
3.0
 50
90.0
 51
180.0
  0
LINE
  8
APS_GEOMETRY
 10
8.5
 11
8.5
 20
-102.191
 21
-123.191
  0
LINE
  8
APS_GEOMETRY
 10
8.5
 11
4.0
 20
-123.191
 21
-123.191
  0
LINE
  8
APS_GEOMETRY
 10
4.0
 11
4.0
 20
-123.191
 21
-109.191
  0
LINE
  8
APS_GEOMETRY
 10
4.0
 11
0.0
 20
-109.191
 21
-109.191
  0
LINE
  8
APS_GEOMETRY
 10
0.0
 11
0.0
 20
-109.191
 21
-227.191
  0
LINE
  8
APS_GEOMETRY
 10
0.0
 11
6.5
 20
-227.191
 21
-227.191
  0
LINE
  8
APS_GEOMETRY
 10
6.5
 11
6.5
 20
-227.191
 21
-213.191
  0
LINE
  8
APS_GEOMETRY
 10
6.5
 11
11.0
 20
-213.191
 21
-213.191
  0
LINE
  8
APS_GEOMETRY
 10
11.0
 11
11.0
 20
-213.191
 21
-234.191
  0
ARC
  8
APS_GEOMETRY
 10
14.0
 20
-234.191
 40
3.0
 50
180.0
 51
270.0
  0
LINE
  8
APS_GEOMETRY
 10
14.0
 11
41.0
 20
-237.191
 21
-237.191
  0
ARC
  8
APS_GEOMETRY
 10
41.0
 20
-234.191
 40
3.0
 50
270.0
 51
0.0
  0
LINE
  8
APS_GEOMETRY
 10
44.0
 11
44.0
 20
-234.191
 21
-133.191
  0
LINE
  8
COSTRUZIONI
 10
-287.5
 11
-287.5
 20
2114.2
 21
2096.5
  0
LINE
  8
COSTRUZIONI
 10
-287.5
 11
-291.0
 20
2096.5
 21
2096.5
  0
LINE
  8
COSTRUZIONI
 10
-291.0
 11
-291.0
 20
2096.5
 21
2114.2
  0
LINE
  8
COSTRUZIONI
 10
-291.0
 11
-287.5
 20
2114.2
 21
2114.2
  0
LINE
  8
APS_GEOMETRY
 10
-265.0
 11
-265.0
 20
2194.5
 21
2140.0
  0
LINE
  8
APS_GEOMETRY
 10
-265.0
 11
-268.0
 20
2140.0
 21
2140.0
  0
LINE
  8
APS_GEOMETRY
 10
-268.0
 11
-268.0
 20
2140.0
 21
2135.5
  0
LINE
  8
APS_GEOMETRY
 10
-268.0
 11
-278.5
 20
2135.5
 21
2135.5
  0
LINE
  8
APS_GEOMETRY
 10
-278.5
 11
-280.0
 20
2135.5
 21
2134.0
  0
LINE
  8
APS_GEOMETRY
 10
-280.0
 11
-280.0
 20
2134.0
 21
2131.5
  0
LINE
  8
APS_GEOMETRY
 10
-280.0
 11
-262.0
 20
2131.5
 21
2131.5
  0
ARC
  8
APS_GEOMETRY
 10
-262.0
 20
2135.5
 40
4.0
 50
270.0
 51
360.0
  0
LINE
  8
APS_GEOMETRY
 10
-258.0
 11
-258.0
 20
2135.5
 21
2196.5
  0
ARC
  8
APS_GEOMETRY
 10
-262.0
 20
2196.5
 40
4.0
 50
360.0
 51
90.0
  0
LINE
  8
APS_GEOMETRY
 10
-262.0
 11
-268.0
 20
2200.5
 21
2200.5
  0
LINE
  8
APS_GEOMETRY
 10
-268.0
 11
-268.0
 20
2200.5
 21
2194.5
  0
LINE
  8
APS_GEOMETRY
 10
-268.0
 11
-265.0
 20
2194.5
 21
2194.5
  0
LINE
  8
APS_GEOMETRY
 10
-389.0
 11
-389.0
 20
2192.5
 21
2138.0
  0
LINE
  8
APS_GEOMETRY
 10
-389.0
 11
-386.0
 20
2138.0
 21
2138.0
  0
LINE
  8
APS_GEOMETRY
 10
-386.0
 11
-386.0
 20
2138.0
 21
2133.5
  0
LINE
  8
APS_GEOMETRY
 10
-386.0
 11
-375.5
 20
2133.5
 21
2133.5
  0
LINE
  8
APS_GEOMETRY
 10
-375.5
 11
-374.0
 20
2133.5
 21
2132.0
  0
LINE
  8
APS_GEOMETRY
 10
-374.0
 11
-374.0
 20
2132.0
 21
2129.5
  0
LINE
  8
APS_GEOMETRY
 10
-374.0
 11
-392.0
 20
2129.5
 21
2129.5
  0
ARC
  8
APS_GEOMETRY
 10
-392.0
 20
2133.5
 40
4.0
 50
180.0
 51
270.0
  0
LINE
  8
APS_GEOMETRY
 10
-396.0
 11
-396.0
 20
2133.5
 21
2194.5
  0
ARC
  8
APS_GEOMETRY
 10
-392.0
 20
2194.5
 40
4.0
 50
90.0
 51
180.0
  0
LINE
  8
APS_GEOMETRY
 10
-392.0
 11
-386.0
 20
2198.5
 21
2198.5
  0
LINE
  8
APS_GEOMETRY
 10
-386.0
 11
-386.0
 20
2198.5
 21
2192.5
  0
LINE
  8
APS_GEOMETRY
 10
-386.0
 11
-389.0
 20
2192.5
 21
2192.5
  0
LINE
  8
COSTRUZIONI
 10
-268.0
 11
-386.0
 20
2141.5
 21
2141.5
  0
LINE
  8
COSTRUZIONI
 10
-268.0
 11
-386.0
 20
2161.5
 21
2161.5
  0
LINE
  8
COSTRUZIONI
 10
-268.0
 11
-268.0
 20
2141.5
 21
2276.543
  0
LINE
  8
COSTRUZIONI
 10
-386.0
 11
-386.0
 20
2141.5
 21
2276.543
  0
LINE
  8
COSTRUZIONI
 10
-386.0
 11
-268.0
 20
2161.5
 21
2141.5
  0
LINE
  8
COSTRUZIONI
 10
-268.0
 11
-386.0
 20
2161.5
 21
2141.5
  0
LINE
  8
APS_GEOMETRY
 10
-287.5
 11
-261.0
 20
2106.5
 21
2106.5
  0
ARC
  8
APS_GEOMETRY
 10
-261.0
 20
2109.5
 40
3.0
 50
270.0
 51
360.0
  0
LINE
  8
APS_GEOMETRY
 10
-258.0
 11
-258.0
 20
2109.5
 21
2128.5
  0
ARC
  8
APS_GEOMETRY
 10
-261.0
 20
2128.5
 40
3.0
 50
360.0
 51
90.0
  0
LINE
  8
APS_GEOMETRY
 10
-261.0
 11
-282.0
 20
2131.5
 21
2131.5
  0
LINE
  8
APS_GEOMETRY
 10
-282.0
 11
-282.0
 20
2131.5
 21
2136.0
  0
LINE
  8
APS_GEOMETRY
 10
-282.0
 11
-268.0
 20
2136.0
 21
2136.0
  0
LINE
  8
APS_GEOMETRY
 10
-268.0
 11
-268.0
 20
2136.0
 21
2140.0
  0
LINE
  8
APS_GEOMETRY
 10
-268.0
 11
-386.0
 20
2140.0
 21
2140.0
  0
LINE
  8
APS_GEOMETRY
 10
-386.0
 11
-386.0
 20
2140.0
 21
2133.5
  0
LINE
  8
APS_GEOMETRY
 10
-386.0
 11
-372.0
 20
2133.5
 21
2133.5
  0
LINE
  8
APS_GEOMETRY
 10
-372.0
 11
-372.0
 20
2133.5
 21
2129.0
  0
LINE
  8
APS_GEOMETRY
 10
-372.0
 11
-393.0
 20
2129.0
 21
2129.0
  0
ARC
  8
APS_GEOMETRY
 10
-393.0
 20
2126.0
 40
3.0
 50
90.0
 51
180.0
  0
LINE
  8
APS_GEOMETRY
 10
-396.0
 11
-396.0
 20
2126.0
 21
2099.0
  0
ARC
  8
APS_GEOMETRY
 10
-393.0
 20
2099.0
 40
3.0
 50
180.0
 51
270.0
  0
LINE
  8
APS_GEOMETRY
 10
-393.0
 11
-292.0
 20
2096.0
 21
2096.0
  0
LINE
  8
APS_GEOMETRY
 10
-400.0
 11
-161.0
 20
0.0
 21
0.0
  0
LINE
  8
QUOTATURA
 10
434.176
 11
454.176
 20
-28.336
 21
-31.67
  0
LINE
  8
QUOTATURA
 10
454.176
 11
434.176
 20
-31.67
 21
-35.004
  0
LINE
  8
QUOTATURA
 10
434.176
 11
434.176
 20
-35.004
 21
-28.336
  0
LINE
  8
QUOTATURA
 10
454.176
 11
413.25
 20
-31.67
 21
-31.67
  0
LINE
  8
QUOTATURA
 10
413.25
 11
413.25
 20
-31.67
 21
-4.069
  0
LINE
  8
COSTRUZIONI
 10
11.0
 11
44.0
 20
0.0
 21
0.0
  0
LINE
  8
COSTRUZIONI
 10
869.0
 11
836.0
 20
0.0
 21
0.0
  0
LINE
  8
APS_GEOMETRY
 10
-58.0
 11
11.0
 20
2198.0
 21
2129.0
  0
LINE
  8
APS_GEOMETRY
 10
869.0
 11
938.0
 20
2129.0
 21
2198.0
  0
LINE
  8
APS_GEOMETRY
 10
846.5
 11
846.5
 20
-128.691
 21
-102.191
  0
ARC
  8
APS_GEOMETRY
 10
849.5
 20
-102.191
 40
3.0
 50
90.0
 51
180.0
  0
LINE
  8
APS_GEOMETRY
 10
849.5
 11
868.5
 20
-99.191
 21
-99.191
  0
ARC
  8
APS_GEOMETRY
 10
868.5
 20
-102.191
 40
3.0
 50
360.0
 51
90.0
  0
LINE
  8
APS_GEOMETRY
 10
871.5
 11
871.5
 20
-102.191
 21
-123.191
  0
LINE
  8
APS_GEOMETRY
 10
871.5
 11
876.0
 20
-123.191
 21
-123.191
  0
LINE
  8
APS_GEOMETRY
 10
876.0
 11
876.0
 20
-123.191
 21
-109.191
  0
LINE
  8
APS_GEOMETRY
 10
876.0
 11
880.0
 20
-109.191
 21
-109.191
  0
LINE
  8
APS_GEOMETRY
 10
880.0
 11
880.0
 20
-109.191
 21
-227.191
  0
LINE
  8
APS_GEOMETRY
 10
880.0
 11
873.5
 20
-227.191
 21
-227.191
  0
LINE
  8
APS_GEOMETRY
 10
873.5
 11
873.5
 20
-227.191
 21
-213.191
  0
LINE
  8
APS_GEOMETRY
 10
873.5
 11
869.0
 20
-213.191
 21
-213.191
  0
LINE
  8
APS_GEOMETRY
 10
869.0
 11
869.0
 20
-213.191
 21
-234.191
  0
ARC
  8
APS_GEOMETRY
 10
866.0
 20
-234.191
 40
3.0
 50
270.0
 51
360.0
  0
LINE
  8
APS_GEOMETRY
 10
866.0
 11
839.0
 20
-237.191
 21
-237.191
  0
ARC
  8
APS_GEOMETRY
 10
839.0
 20
-234.191
 40
3.0
 50
180.0
 51
270.0
  0
LINE
  8
APS_GEOMETRY
 10
836.0
 11
836.0
 20
-234.191
 21
-133.191
  0
LINE
  8
APS_GEOMETRY
 10
49.5
 11
830.5
 20
-144.691
 21
-144.691
  0
ARC
  8
APS_GEOMETRY
 10
830.5
 20
-141.691
 40
3.0
 50
270.0
 51
0.0
  0
LINE
  8
APS_GEOMETRY
 10
833.5
 11
833.5
 20
-141.691
 21
-129.191
  0
LINE
  8
APS_GEOMETRY
 10
833.5
 11
842.0
 20
-129.191
 21
-129.191
  0
ARC
  8
APS_GEOMETRY
 10
842.0
 20
-127.691
 40
1.5
 50
270.0
 51
0.0
  0
LINE
  8
APS_GEOMETRY
 10
843.5
 11
843.5
 20
-127.691
 21
-102.191
  0
ARC
  8
APS_GEOMETRY
 10
840.5
 20
-102.191
 40
3.0
 50
0.0
 51
90.0
  0
LINE
  8
APS_GEOMETRY
 10
840.5
 11
39.5
 20
-99.191
 21
-99.191
  0
ARC
  8
APS_GEOMETRY
 10
39.5
 20
-102.191
 40
3.0
 50
90.0
 51
180.0
  0
LINE
  8
APS_GEOMETRY
 10
36.5
 11
36.5
 20
-102.191
 21
-127.691
  0
ARC
  8
APS_GEOMETRY
 10
38.0
 20
-127.691
 40
1.5
 50
180.0
 51
270.0
  0
LINE
  8
APS_GEOMETRY
 10
38.0
 11
46.5
 20
-129.191
 21
-129.191
  0
LINE
  8
APS_GEOMETRY
 10
46.5
 11
46.5
 20
-129.191
 21
-141.691
  0
ARC
  8
APS_GEOMETRY
 10
49.5
 20
-141.691
 40
3.0
 50
180.0
 51
270.0
  0
LINE
  8
APS_GEOMETRY
 10
145.5
 11
145.5
 20
2103.5
 21
1054.5
  0
LINE
  8
APS_GEOMETRY
 10
145.5
 11
145.5
 20
1034.5
 21
4.5
  0
LINE
  8
APS_GEOMETRY
 10
155.5
 11
155.5
 20
2103.5
 21
1994.5
  0
LINE
  8
APS_GEOMETRY
 10
155.5
 11
155.5
 20
1984.5
 21
1054.5
  0
LINE
  8
APS_GEOMETRY
 10
155.5
 11
155.5
 20
1034.5
 21
123.5
  0
LINE
  8
APS_GEOMETRY
 10
155.5
 11
155.5
 20
113.5
 21
4.5
  0
LINE
  8
APS_GEOMETRY
 10
724.5
 11
724.5
 20
4.5
 21
113.5
  0
LINE
  8
APS_GEOMETRY
 10
724.5
 11
724.5
 20
123.5
 21
1984.5
  0
LINE
  8
APS_GEOMETRY
 10
724.5
 11
724.5
 20
1994.5
 21
2103.5
  0
LINE
  8
APS_GEOMETRY
 10
734.5
 11
734.5
 20
4.5
 21
2103.5
  0
LINE
  8
APS_GEOMETRY
 10
155.5
 11
724.5
 20
113.5
 21
113.5
  0
LINE
  8
APS_GEOMETRY
 10
155.5
 11
724.5
 20
123.5
 21
123.5
  0
LINE
  8
APS_GEOMETRY
 10
724.5
 11
155.5
 20
1994.5
 21
1994.5
  0
LINE
  8
APS_GEOMETRY
 10
724.5
 11
155.5
 20
1984.5
 21
1984.5
  0
LINE
  8
QUOTATURA
 10
0.0
 11
0.0
 20
-252.191
 21
-355.22
  0
LINE
  8
QUOTATURA
 10
880.0
 11
880.0
 20
-252.191
 21
-355.22
  0
LINE
  8
QUOTATURA
 10
0.0
 11
110.511
 20
-330.22
 21
-330.22
  0
LINE
  8
QUOTATURA
 10
769.489
 11
880.0
 20
-330.22
 21
-330.22
  0
LINE
  8
QUOTATURA
 10
50.0
 11
0.0
 20
-338.555
 21
-330.22
  0
LINE
  8
QUOTATURA
 10
0.0
 11
50.0
 20
-330.22
 21
-321.885
  0
LINE
  8
QUOTATURA
 10
50.0
 11
50.0
 20
-321.885
 21
-338.555
  0
LINE
  8
QUOTATURA
 10
830.0
 11
880.0
 20
-321.885
 21
-330.22
  0
LINE
  8
QUOTATURA
 10
880.0
 11
830.0
 20
-330.22
 21
-338.555
  0
LINE
  8
QUOTATURA
 10
830.0
 11
830.0
 20
-338.555
 21
-321.885
  0
LINE
  8
QUOTATURA
 10
-425.0
 11
-531.928
 20
0.0
 21
0.0
  0
LINE
  8
QUOTATURA
 10
-411.0
 11
-531.928
 20
2140.0
 21
2140.0
  0
LINE
  8
QUOTATURA
 10
-506.928
 11
-506.928
 20
0.0
 21
725.618
  0
LINE
  8
QUOTATURA
 10
-506.928
 11
-506.928
 20
1414.382
 21
2140.0
  0
LINE
  8
QUOTATURA
 10
-498.593
 11
-506.928
 20
50.0
 21
0.0
  0
LINE
  8
QUOTATURA
 10
-506.928
 11
-515.263
 20
0.0
 21
50.0
  0
LINE
  8
QUOTATURA
 10
-515.263
 11
-498.593
 20
50.0
 21
50.0
  0
LINE
  8
QUOTATURA
 10
-515.263
 11
-506.928
 20
2090.0
 21
2140.0
  0
LINE
  8
QUOTATURA
 10
-506.928
 11
-498.593
 20
2140.0
 21
2090.0
  0
LINE
  8
QUOTATURA
 10
-498.593
 11
-515.263
 20
2090.0
 21
2090.0
  0
CIRCLE
  8
QUOTATURA
 10
281.11
 20
2658.42
 40
331.354
  0
LINE
  8
QUOTATURA
 10
-228.284
 11
72.281
 20
2030.878
 21
2401.155
  0
CIRCLE
  8
QUOTATURA
 10
-270.05
 20
1979.425
 40
66.271
  0
LINE
  8
APS_GEOMETRY
 10
116.358
 11
116.358
 20
2945.913
 21
2370.928
  0
LINE
  8
APS_GEOMETRY
 10
341.358
 11
341.358
 20
2332.59
 21
2660.725
  0
LINE
  8
APS_GEOMETRY
 10
341.358
 11
341.358
 20
2756.865
 21
2984.251
  0
LINE
  8
APS_GEOMETRY
 10
321.358
 11
321.358
 20
2708.795
 21
2688.396
  0
ARC
  8
APS_GEOMETRY
 10
324.358
 20
2688.396
 40
3.0
 50
180.0
 51
250.0
  0
LINE
  8
APS_GEOMETRY
 10
323.332
 11
330.633
 20
2685.577
 21
2682.919
  0
ARC
  8
APS_GEOMETRY
 10
326.358
 20
2671.173
 40
12.5
 50
12.0
 51
70.0
  0
LINE
  8
APS_GEOMETRY
 10
338.585
 11
341.358
 20
2673.772
 21
2660.725
  0
LINE
  8
APS_GEOMETRY
 10
341.358
 11
341.358
 20
2660.725
 21
2610.215
  0
LINE
  8
APS_GEOMETRY
 10
341.358
 11
341.358
 20
2804.168
 21
2756.865
  0
LINE
  8
APS_GEOMETRY
 10
341.358
 11
338.585
 20
2756.865
 21
2743.818
  0
ARC
  8
APS_GEOMETRY
 10
326.358
 20
2746.417
 40
12.5
 50
290.0
 51
348.0
  0
LINE
  8
APS_GEOMETRY
 10
330.633
 11
323.332
 20
2734.671
 21
2732.014
  0
ARC
  8
APS_GEOMETRY
 10
324.358
 20
2729.195
 40
3.0
 50
110.0
 51
180.0
  0
LINE
  8
APS_GEOMETRY
 10
321.358
 11
321.358
 20
2729.195
 21
2708.795
  0
ARC
  8
QUOTATURA
 10
118.086
 20
3028.805
 40
20.552
 50
42.904
 51
122.546
  0
ARC
  8
QUOTATURA
 10
112.81
 20
3037.332
 40
10.528
 50
123.307
 51
253.426
  0
LINE
  8
QUOTATURA
 10
109.807
 11
126.473
 20
3027.241
 21
3021.685
  0
ARC
  8
QUOTATURA
 10
123.08
 20
3010.92
 40
11.287
 50
299.838
 51
72.504
  0
ARC
  8
QUOTATURA
 10
117.863
 20
3019.912
 40
21.683
 50
240.023
 51
299.974
  0
ARC
  8
QUOTATURA
 10
112.958
 20
3011.505
 40
11.949
 50
209.759
 51
240.255
  0
ARC
  8
QUOTATURA
 10
152.473
 20
3023.509
 40
30.394
 50
31.027
 51
40.045
  0
ARC
  8
QUOTATURA
 10
162.963
 20
3032.832
 40
16.37
 50
38.687
 51
141.312
  0
ARC
  8
QUOTATURA
 10
173.836
 20
3023.898
 40
30.442
 50
140.979
 51
219.022
  0
ARC
  8
QUOTATURA
 10
162.963
 20
3014.964
 40
16.37
 50
218.688
 51
321.313
  0
ARC
  8
QUOTATURA
 10
152.286
 20
3022.582
 40
29.476
 50
322.727
 51
335.346
  0
LINE
  8
QUOTATURA
 10
195.576
 11
226.132
 20
3013.574
 21
3013.574
  0
LINE
  8
QUOTATURA
 10
189.465
 11
208.91
 20
2998.473
 21
3048.473
  0
LINE
  8
QUOTATURA
 10
208.91
 11
213.354
 20
3048.473
 21
3048.473
  0
LINE
  8
QUOTATURA
 10
213.354
 11
231.687
 20
3048.473
 21
2998.473
  0
LINE
  8
QUOTATURA
 10
241.687
 11
241.687
 20
3048.473
 21
2998.473
  0
LINE
  8
QUOTATURA
 10
241.687
 11
275.021
 20
2998.473
 21
2998.473
  0
LINE
  8
QUOTATURA
 10
291.132
 11
321.687
 20
3013.574
 21
3013.574
  0
LINE
  8
QUOTATURA
 10
285.021
 11
304.465
 20
2998.473
 21
3048.473
  0
LINE
  8
QUOTATURA
 10
304.465
 11
308.91
 20
3048.473
 21
3048.473
  0
LINE
  8
QUOTATURA
 10
308.91
 11
327.243
 20
3048.473
 21
2998.473
  0
ARC
  8
QUOTATURA
 10
402.124
 20
3016.811
 40
18.657
 50
202.727
 51
247.273
  0
ARC
  8
QUOTATURA
 10
402.416
 20
3017.152
 40
19.085
 50
246.86
 51
293.141
  0
ARC
  8
QUOTATURA
 10
402.82
 20
3016.383
 40
18.219
 50
292.922
 51
357.893
  0
ARC
  8
QUOTATURA
 10
404.624
 20
3016.288
 40
16.413
 50
357.993
 51
71.191
  0
ARC
  8
QUOTATURA
 10
402.415
 20
3009.766
 40
23.299
 50
71.219
 51
108.775
  0
ARC
  8
QUOTATURA
 10
400.94
 20
3013.763
 40
19.041
 50
108.444
 51
138.941
  0
LINE
  8
QUOTATURA
 10
386.582
 11
390.471
 20
3026.269
 21
3048.492
  0
LINE
  8
QUOTATURA
 10
390.471
 11
415.471
 20
3048.492
 21
3048.492
  0
LINE
  8
QUOTATURA
 10
433.364
 11
430.864
 20
3022.441
 21
3022.441
  0
LINE
  8
QUOTATURA
 10
430.864
 11
430.864
 20
3022.441
 21
3024.941
  0
LINE
  8
QUOTATURA
 10
430.864
 11
433.364
 20
3024.941
 21
3024.941
  0
LINE
  8
QUOTATURA
 10
433.364
 11
433.364
 20
3024.941
 21
3022.441
  0
LINE
  8
QUOTATURA
 10
433.364
 11
430.864
 20
3010.036
 21
3010.036
  0
LINE
  8
QUOTATURA
 10
430.864
 11
430.864
 20
3010.036
 21
3012.536
  0
LINE
  8
QUOTATURA
 10
430.864
 11
433.364
 20
3012.536
 21
3012.536
  0
LINE
  8
QUOTATURA
 10
433.364
 11
433.364
 20
3012.536
 21
3010.036
  0
LINE
  8
QUOTATURA
 10
443.364
 11
451.943
 20
2998.473
 21
2998.473
  0
LINE
  8
QUOTATURA
 10
451.943
 11
460.521
 20
2998.473
 21
2998.473
  0
LINE
  8
QUOTATURA
 10
451.943
 11
451.943
 20
2998.473
 21
3048.473
  0
LINE
  8
QUOTATURA
 10
451.943
 11
443.364
 20
3048.473
 21
3039.895
  0
LINE
  8
QUOTATURA
 10
296.358
 11
212.001
 20
2686.295
 21
2686.295
  0
LINE
  8
QUOTATURA
 10
296.358
 11
212.001
 20
2731.295
 21
2731.295
  0
LINE
  8
QUOTATURA
 10
237.001
 11
237.001
 20
2686.295
 21
2592.395
  0
LINE
  8
QUOTATURA
 10
228.666
 11
237.001
 20
2636.295
 21
2686.295
  0
LINE
  8
QUOTATURA
 10
237.001
 11
245.336
 20
2686.295
 21
2636.295
  0
LINE
  8
QUOTATURA
 10
245.336
 11
228.666
 20
2636.295
 21
2636.295
  0
LINE
  8
QUOTATURA
 10
237.001
 11
237.001
 20
2731.295
 21
2831.295
  0
LINE
  8
QUOTATURA
 10
245.336
 11
237.001
 20
2781.295
 21
2731.295
  0
LINE
  8
QUOTATURA
 10
237.001
 11
228.666
 20
2731.295
 21
2781.295
  0
LINE
  8
QUOTATURA
 10
228.666
 11
245.336
 20
2781.295
 21
2781.295
  0
LINE
  8
QUOTATURA
 10
321.358
 11
321.358
 20
2754.195
 21
2816.915
  0
LINE
  8
QUOTATURA
 10
341.358
 11
451.078
 20
2791.915
 21
2791.915
  0
LINE
  8
QUOTATURA
 10
391.358
 11
341.358
 20
2783.58
 21
2791.915
  0
LINE
  8
QUOTATURA
 10
341.358
 11
391.358
 20
2791.915
 21
2800.25
  0
LINE
  8
QUOTATURA
 10
391.358
 11
391.358
 20
2800.25
 21
2783.58
  0
LINE
  8
QUOTATURA
 10
321.358
 11
221.358
 20
2791.915
 21
2791.915
  0
LINE
  8
QUOTATURA
 10
271.358
 11
321.358
 20
2800.25
 21
2791.915
  0
LINE
  8
QUOTATURA
 10
321.358
 11
271.358
 20
2791.915
 21
2783.58
  0
LINE
  8
QUOTATURA
 10
271.358
 11
271.358
 20
2783.58
 21
2800.25
  0
LINE
  8
APS_GEOMETRY
 10
-303.0
 11
-303.0
 20
2090.5
 21
7.5
  0
ARC
  8
APS_GEOMETRY
 10
-300.0
 20
7.5
 40
3.0
 50
180.0
 51
270.0
  0
LINE
  8
APS_GEOMETRY
 10
-300.0
 11
-261.0
 20
4.5
 21
4.5
  0
ARC
  8
APS_GEOMETRY
 10
-261.0
 20
7.5
 40
3.0
 50
270.0
 51
360.0
  0
LINE
  8
APS_GEOMETRY
 10
-258.0
 11
-258.0
 20
7.5
 21
108.886
  0
LINE
  8
APS_GEOMETRY
 10
-258.0
 11
-258.555
 20
108.886
 21
111.495
  0
ARC
  8
APS_GEOMETRY
 10
-261.0
 20
110.976
 40
2.5
 50
12.0
 51
70.0
  0
LINE
  8
APS_GEOMETRY
 10
-260.145
 11
-261.605
 20
113.325
 21
113.856
  0
ARC
  8
APS_GEOMETRY
 10
-261.4
 20
114.42
 40
0.6
 50
180.0
 51
250.0
  0
LINE
  8
APS_GEOMETRY
 10
-262.0
 11
-262.0
 20
114.42
 21
122.58
  0
ARC
  8
APS_GEOMETRY
 10
-261.4
 20
122.58
 40
0.6
 50
110.0
 51
180.0
  0
LINE
  8
APS_GEOMETRY
 10
-261.605
 11
-260.145
 20
123.144
 21
123.675
  0
ARC
  8
APS_GEOMETRY
 10
-261.0
 20
126.024
 40
2.5
 50
290.0
 51
348.0
  0
LINE
  8
APS_GEOMETRY
 10
-258.555
 11
-258.0
 20
125.505
 21
128.114
  0
LINE
  8
APS_GEOMETRY
 10
-258.0
 11
-258.0
 20
128.114
 21
1979.886
  0
LINE
  8
APS_GEOMETRY
 10
-258.0
 11
-258.555
 20
1979.886
 21
1982.495
  0
ARC
  8
APS_GEOMETRY
 10
-261.0
 20
1981.976
 40
2.5
 50
12.0
 51
70.0
  0
LINE
  8
APS_GEOMETRY
 10
-260.145
 11
-261.605
 20
1984.325
 21
1984.856
  0
ARC
  8
APS_GEOMETRY
 10
-261.4
 20
1985.42
 40
0.6
 50
180.0
 51
250.0
  0
LINE
  8
APS_GEOMETRY
 10
-262.0
 11
-262.0
 20
1985.42
 21
1993.58
  0
ARC
  8
APS_GEOMETRY
 10
-261.4
 20
1993.58
 40
0.6
 50
110.0
 51
180.0
  0
LINE
  8
APS_GEOMETRY
 10
-261.605
 11
-260.145
 20
1994.144
 21
1994.675
  0
ARC
  8
APS_GEOMETRY
 10
-261.0
 20
1997.024
 40
2.5
 50
290.0
 51
348.0
  0
LINE
  8
APS_GEOMETRY
 10
-258.555
 11
-258.0
 20
1996.505
 21
1999.114
  0
LINE
  8
APS_GEOMETRY
 10
-258.0
 11
-258.0
 20
1999.114
 21
2100.5
  0
ARC
  8
APS_GEOMETRY
 10
-261.0
 20
2100.5
 40
3.0
 50
0.0
 51
90.0
  0
LINE
  8
APS_GEOMETRY
 10
-261.0
 11
-286.5
 20
2103.5
 21
2103.5
  0
ARC
  8
APS_GEOMETRY
 10
-286.5
 20
2102.0
 40
1.5
 50
90.0
 51
180.0
  0
LINE
  8
APS_GEOMETRY
 10
-288.0
 11
-288.0
 20
2102.0
 21
2093.5
  0
LINE
  8
APS_GEOMETRY
 10
-288.0
 11
-300.0
 20
2093.5
 21
2093.5
  0
ARC
  8
APS_GEOMETRY
 10
-300.0
 20
2090.5
 40
3.0
 50
90.0
 51
180.0
  0
TEXT
  8
TEXT
 10
-636.532
 20
-419.492
 30
0.0
 40
20.0
 50
0.0
  1
Ufficio tecnico:
  0
TEXT
  8
TEXT
 10
-143.183
 20
-543.834
 30
0.0
 40
25.0
 50
0.0
  1
tel. 0577-68.54.26 - fax 0577-68.64.29
  0
TEXT
  8
TEXT
 10
-143.183
 20
-581.334
 30
0.0
 40
25.0
 50
0.0
  1
e-mail: tecnico@toscocornici.it - web: www.tosococornici.it
  0
TEXT
  8
TEXT
 10
467.906
 20
-573.026
 30
0.0
 40
40.0
 50
0.0
  1
B.Ste
  0
TEXT
  8
TEXT
 10
616.326
 20
-573.026
 30
0.0
 40
40.0
 50
0.0
  1
f
  0
TEXT
  8
TEXT
 10
647.011
 20
-573.026
 30
0.0
 40
40.0
 50
0.0
  1
ano
  0
TEXT
  8
TEXT
 10
363.687
 20
-416.529
 30
0.0
 40
20.0
 50
0.0
  1
documento:
  0
TEXT
  8
TEXT
 10
607.343
 20
-469.651
 30
0.0
 40
30.0
 50
0.0
  1
MOD-TL-UI_200-1TAB
  0
TEXT
  8
TEXT
 10
864.888
 20
-416.444
 30
0.0
 40
20.0
 50
0.0
  1
data:
  0
TEXT
  8
TEXT
 10
1113.987
 20
-467.935
 30
0.0
 40
30.0
 50
0.0
  1
14/05/15
  0
TEXT
  8
TEXT
 10
1122.741
 20
-568.644
 30
0.0
 40
30.0
 50
0.0
  1
1 : 10
  0
TEXT
  8
TEXT
 10
361.873
 20
-514.754
 30
0.0
 40
20.0
 50
0.0
  1
responsabile tecnico:
  0
TEXT
  8
TEXT
 10
863.469
 20
-515.044
 30
0.0
 40
20.0
 50
0.0
  1
scala:
  0
TEXT
  8
TEXT
 10
380.843
 20
-172.421
 30
0.0
 40
20.0
 50
0.0
  1
SEZ-B
  0
TEXT
  8
TEXT
 10
963.665
 20
663.882
 30
0.0
 40
20.0
 50
0.0
  1
SEZ-B
  0
TEXT
  8
TEXT
 10
-234.169
 20
821.127
 30
0.0
 40
20.0
 50
0.0
  1
SEZ-A
  0
TEXT
  8
TEXT
 10
399.608
 20
-68.294
 30
0.0
 40
20.0
 50
0.0
  1
SEZ-A
  0
TEXT
  8
QUOTATURA
 10
123.011
 20
-355.22
 30
0.0
 40
50.0
 50
0.0
  1
EST. TELAIO=880
  0
TEXT
  8
QUOTATURA
 10
-481.928
 20
738.118
 30
0.0
 40
50.0
 50
90.0
  1
EST. TELAIO=2140
  0
TEXT
  8
QUOTATURA
 10
262.001
 20
2544.438
 30
0.0
 40
50.0
 50
90.0
  1
9
  0
TEXT
  8
QUOTATURA
 10
462.083
 20
2766.915
 30
0.0
 40
50.0
 50
0.0
  1
4
  0
TEXT
  8
TEXT
 10
407.325
 20
2476.118
 30
0.0
 40
100.0
 50
0.0
  1
D1
  0
TEXT
  8
TEXT
 10
-247.933
 20
1938.572
 30
0.0
 40
25.0
 50
0.0
  1
D1
  0
ENDSEC
  0
EOF
