  0
SECTION
  2
ENTITIES
  0
LINE
  8
APS_GEOMETRY
 10
0.0
 11
827.0
 20
0.0
 21
0.0
  0
LINE
  8
APS_GEOMETRY
 10
827.0
 11
827.0
 20
0.0
 21
2109.0
  0
LINE
  8
APS_GEOMETRY
 10
827.0
 11
0.0
 20
2109.0
 21
2109.0
  0
LINE
  8
APS_GEOMETRY
 10
0.0
 11
0.0
 20
2109.0
 21
0.0
  0
LINE
  8
APS_GEOMETRY
 10
98.0
 11
98.0
 20
2109.0
 21
0.0
  0
LINE
  8
APS_GEOMETRY
 10
729.0
 11
729.0
 20
0.0
 21
1030.0
  0
LINE
  8
APS_GEOMETRY
 10
729.0
 11
729.0
 20
1050.0
 21
2109.0
  0
LINE
  8
QUOTATURA
 10
-321.533
 11
-320.867
 20
2092.5
 21
2092.5
  0
LINE
  8
COSTRUZIONI
 10
-316.7
 11
-316.7
 20
2109.7
 21
2102.0
  0
ARC
  8
COSTRUZIONI
 10
-328.7
 20
2097.0
 40
13.0
 50
337.38
 51
22.62
  0
LINE
  8
COSTRUZIONI
 10
-316.7
 11
-320.2
 20
2092.0
 21
2092.0
  0
LINE
  8
COSTRUZIONI
 10
-320.2
 11
-320.2
 20
2092.0
 21
2109.7
  0
LINE
  8
COSTRUZIONI
 10
-320.2
 11
-316.7
 20
2109.7
 21
2109.7
  0
LINE
  8
COSTRUZIONI
 10
-320.2
 11
-320.023
 20
2109.523
 21
2109.7
  0
LINE
  8
COSTRUZIONI
 10
-319.493
 11
-320.2
 20
2109.7
 21
2108.993
  0
LINE
  8
COSTRUZIONI
 10
-320.2
 11
-319.316
 20
2108.816
 21
2109.7
  0
LINE
  8
COSTRUZIONI
 10
-318.786
 11
-320.2
 20
2109.7
 21
2108.286
  0
LINE
  8
COSTRUZIONI
 10
-320.2
 11
-318.609
 20
2108.109
 21
2109.7
  0
LINE
  8
COSTRUZIONI
 10
-318.079
 11
-320.2
 20
2109.7
 21
2107.579
  0
LINE
  8
COSTRUZIONI
 10
-320.2
 11
-317.902
 20
2107.402
 21
2109.7
  0
LINE
  8
COSTRUZIONI
 10
-317.372
 11
-320.2
 20
2109.7
 21
2106.872
  0
LINE
  8
COSTRUZIONI
 10
-320.2
 11
-317.195
 20
2106.695
 21
2109.7
  0
LINE
  8
COSTRUZIONI
 10
-316.7
 11
-320.2
 20
2109.664
 21
2106.164
  0
LINE
  8
COSTRUZIONI
 10
-320.2
 11
-316.7
 20
2105.988
 21
2109.488
  0
LINE
  8
COSTRUZIONI
 10
-316.7
 11
-320.2
 20
2108.957
 21
2105.457
  0
LINE
  8
COSTRUZIONI
 10
-320.2
 11
-316.7
 20
2105.281
 21
2108.781
  0
LINE
  8
COSTRUZIONI
 10
-316.7
 11
-320.2
 20
2108.25
 21
2104.75
  0
LINE
  8
COSTRUZIONI
 10
-320.2
 11
-316.7
 20
2104.574
 21
2108.074
  0
LINE
  8
COSTRUZIONI
 10
-316.7
 11
-320.2
 20
2107.543
 21
2104.043
  0
LINE
  8
COSTRUZIONI
 10
-320.2
 11
-316.7
 20
2103.866
 21
2107.366
  0
LINE
  8
COSTRUZIONI
 10
-316.7
 11
-320.2
 20
2106.836
 21
2103.336
  0
LINE
  8
COSTRUZIONI
 10
-320.2
 11
-316.7
 20
2103.159
 21
2106.659
  0
LINE
  8
COSTRUZIONI
 10
-316.7
 11
-320.2
 20
2106.129
 21
2102.629
  0
LINE
  8
COSTRUZIONI
 10
-320.2
 11
-316.7
 20
2102.452
 21
2105.952
  0
LINE
  8
COSTRUZIONI
 10
-316.7
 11
-320.2
 20
2105.422
 21
2101.922
  0
LINE
  8
COSTRUZIONI
 10
-320.2
 11
-316.7
 20
2101.745
 21
2105.245
  0
LINE
  8
COSTRUZIONI
 10
-316.7
 11
-320.2
 20
2104.715
 21
2101.215
  0
LINE
  8
COSTRUZIONI
 10
-320.2
 11
-316.7
 20
2101.038
 21
2104.538
  0
LINE
  8
COSTRUZIONI
 10
-316.7
 11
-320.2
 20
2104.008
 21
2100.508
  0
LINE
  8
COSTRUZIONI
 10
-320.2
 11
-316.7
 20
2100.331
 21
2103.831
  0
LINE
  8
COSTRUZIONI
 10
-316.7
 11
-320.2
 20
2103.301
 21
2099.801
  0
LINE
  8
COSTRUZIONI
 10
-320.2
 11
-316.7
 20
2099.624
 21
2103.124
  0
LINE
  8
COSTRUZIONI
 10
-316.7
 11
-320.2
 20
2102.593
 21
2099.093
  0
LINE
  8
COSTRUZIONI
 10
-320.2
 11
-316.7
 20
2098.917
 21
2102.417
  0
LINE
  8
COSTRUZIONI
 10
-316.667
 11
-320.2
 20
2101.92
 21
2098.386
  0
LINE
  8
COSTRUZIONI
 10
-320.2
 11
-316.616
 20
2098.21
 21
2101.794
  0
LINE
  8
COSTRUZIONI
 10
-316.47
 11
-320.2
 20
2101.409
 21
2097.679
  0
LINE
  8
COSTRUZIONI
 10
-320.2
 11
-316.424
 20
2097.502
 21
2101.278
  0
LINE
  8
COSTRUZIONI
 10
-316.292
 11
-320.2
 20
2100.88
 21
2096.972
  0
LINE
  8
COSTRUZIONI
 10
-320.2
 11
-316.251
 20
2096.795
 21
2100.744
  0
LINE
  8
COSTRUZIONI
 10
-316.134
 11
-320.2
 20
2100.331
 21
2096.265
  0
LINE
  8
COSTRUZIONI
 10
-320.2
 11
-316.098
 20
2096.088
 21
2100.191
  0
LINE
  8
COSTRUZIONI
 10
-315.997
 11
-320.2
 20
2099.761
 21
2095.558
  0
LINE
  8
COSTRUZIONI
 10
-320.2
 11
-315.966
 20
2095.381
 21
2099.615
  0
LINE
  8
COSTRUZIONI
 10
-315.882
 11
-320.2
 20
2099.169
 21
2094.851
  0
LINE
  8
COSTRUZIONI
 10
-320.2
 11
-315.857
 20
2094.674
 21
2099.017
  0
LINE
  8
COSTRUZIONI
 10
-315.793
 11
-320.2
 20
2098.551
 21
2094.144
  0
LINE
  8
COSTRUZIONI
 10
-320.2
 11
-315.775
 20
2093.967
 21
2098.392
  0
LINE
  8
COSTRUZIONI
 10
-315.732
 11
-320.2
 20
2097.905
 21
2093.437
  0
LINE
  8
COSTRUZIONI
 10
-320.2
 11
-315.721
 20
2093.26
 21
2097.739
  0
LINE
  8
COSTRUZIONI
 10
-315.702
 11
-320.2
 20
2097.227
 21
2092.729
  0
LINE
  8
COSTRUZIONI
 10
-320.2
 11
-315.7
 20
2092.553
 21
2097.053
  0
LINE
  8
COSTRUZIONI
 10
-315.709
 11
-320.2
 20
2096.513
 21
2092.022
  0
LINE
  8
COSTRUZIONI
 10
-320.046
 11
-315.717
 20
2092.0
 21
2096.328
  0
LINE
  8
COSTRUZIONI
 10
-315.76
 11
-319.515
 20
2095.756
 21
2092.0
  0
LINE
  8
COSTRUZIONI
 10
-319.338
 11
-315.78
 20
2092.0
 21
2095.558
  0
LINE
  8
COSTRUZIONI
 10
-315.864
 11
-318.808
 20
2094.945
 21
2092.0
  0
LINE
  8
COSTRUZIONI
 10
-318.631
 11
-315.899
 20
2092.0
 21
2094.732
  0
LINE
  8
COSTRUZIONI
 10
-316.036
 11
-318.101
 20
2094.066
 21
2092.0
  0
LINE
  8
COSTRUZIONI
 10
-317.924
 11
-316.092
 20
2092.0
 21
2093.832
  0
LINE
  8
COSTRUZIONI
 10
-316.301
 11
-317.394
 20
2093.093
 21
2092.0
  0
LINE
  8
COSTRUZIONI
 10
-317.217
 11
-316.387
 20
2092.0
 21
2092.83
  0
ARC
  8
APS_GEOMETRY
 10
-321.2
 20
2092.5
 40
1.0
 50
270.0
 51
360.0
  0
LINE
  8
APS_GEOMETRY
 10
-287.0
 11
-405.0
 20
2135.5
 21
2135.5
  0
LINE
  8
APS_GEOMETRY
 10
-405.0
 11
-405.0
 20
2135.5
 21
2128.8
  0
LINE
  8
APS_GEOMETRY
 10
-405.0
 11
-391.0
 20
2128.8
 21
2128.8
  0
LINE
  8
APS_GEOMETRY
 10
-391.0
 11
-391.0
 20
2128.8
 21
2124.5
  0
LINE
  8
APS_GEOMETRY
 10
-391.0
 11
-405.0
 20
2124.5
 21
2124.5
  0
LINE
  8
APS_GEOMETRY
 10
-405.0
 11
-405.0
 20
2124.5
 21
2101.5
  0
ARC
  8
APS_GEOMETRY
 10
-395.0
 20
2101.5
 40
10.0
 50
180.0
 51
270.0
  0
LINE
  8
APS_GEOMETRY
 10
-395.0
 11
-321.2
 20
2091.5
 21
2091.5
  0
LINE
  8
APS_GEOMETRY
 10
-316.7
 11
-290.0
 20
2102.0
 21
2102.0
  0
ARC
  8
APS_GEOMETRY
 10
-290.0
 20
2105.0
 40
3.0
 50
270.0
 51
360.0
  0
LINE
  8
APS_GEOMETRY
 10
-287.0
 11
-287.0
 20
2105.0
 21
2127.0
  0
LINE
  8
APS_GEOMETRY
 10
-287.0
 11
-301.0
 20
2127.0
 21
2127.0
  0
LINE
  8
APS_GEOMETRY
 10
-301.0
 11
-301.0
 20
2127.0
 21
2131.3
  0
LINE
  8
APS_GEOMETRY
 10
-301.0
 11
-287.0
 20
2131.3
 21
2131.3
  0
LINE
  8
APS_GEOMETRY
 10
-287.0
 11
-287.0
 20
2131.3
 21
2135.5
  0
LINE
  8
COSTRUZIONI
 10
-287.0
 11
-405.0
 20
2137.0
 21
2137.0
  0
LINE
  8
COSTRUZIONI
 10
-287.0
 11
-405.0
 20
2157.0
 21
2157.0
  0
LINE
  8
COSTRUZIONI
 10
-287.0
 11
-287.0
 20
2137.0
 21
2272.043
  0
LINE
  8
COSTRUZIONI
 10
-405.0
 11
-405.0
 20
2137.0
 21
2272.043
  0
LINE
  8
COSTRUZIONI
 10
-405.0
 11
-287.0
 20
2157.0
 21
2137.0
  0
LINE
  8
COSTRUZIONI
 10
-287.0
 11
-405.0
 20
2157.0
 21
2137.0
  0
LINE
  8
COSTRUZIONI
 10
17.5
 11
17.5
 20
0.0
 21
-4.5
  0
LINE
  8
COSTRUZIONI
 10
17.5
 11
-19.0
 20
-4.5
 21
-4.5
  0
LINE
  8
COSTRUZIONI
 10
809.5
 11
809.5
 20
0.0
 21
-4.5
  0
LINE
  8
COSTRUZIONI
 10
809.5
 11
846.0
 20
-4.5
 21
-4.5
  0
LINE
  8
APS_GEOMETRY
 10
-405.0
 11
-231.287
 20
-4.5
 21
-4.5
  0
LINE
  8
QUOTATURA
 10
-437.0
 11
-604.585
 20
-4.5
 21
-4.5
  0
LINE
  8
QUOTATURA
 10
-415.0
 11
-604.585
 20
2135.5
 21
2135.5
  0
LINE
  8
QUOTATURA
 10
-594.585
 11
-594.585
 20
-4.5
 21
895.253
  0
LINE
  8
QUOTATURA
 10
-594.585
 11
-594.585
 20
1235.747
 21
2135.5
  0
LINE
  8
QUOTATURA
 10
-591.251
 11
-594.585
 20
15.5
 21
-4.5
  0
LINE
  8
QUOTATURA
 10
-594.585
 11
-597.919
 20
-4.5
 21
15.5
  0
LINE
  8
QUOTATURA
 10
-597.919
 11
-591.251
 20
15.5
 21
15.5
  0
LINE
  8
QUOTATURA
 10
-597.919
 11
-594.585
 20
2115.5
 21
2135.5
  0
LINE
  8
QUOTATURA
 10
-594.585
 11
-591.251
 20
2135.5
 21
2115.5
  0
LINE
  8
QUOTATURA
 10
-591.251
 11
-597.919
 20
2115.5
 21
2115.5
  0
LINE
  8
QUOTATURA
 10
-415.0
 11
-508.673
 20
2091.5
 21
2091.5
  0
LINE
  8
QUOTATURA
 10
-498.673
 11
-498.673
 20
-4.5
 21
905.812
  0
LINE
  8
QUOTATURA
 10
-498.673
 11
-498.673
 20
1181.188
 21
2091.5
  0
LINE
  8
QUOTATURA
 10
-495.339
 11
-498.673
 20
15.5
 21
-4.5
  0
LINE
  8
QUOTATURA
 10
-498.673
 11
-502.007
 20
-4.5
 21
15.5
  0
LINE
  8
QUOTATURA
 10
-502.007
 11
-495.339
 20
15.5
 21
15.5
  0
LINE
  8
QUOTATURA
 10
-502.007
 11
-498.673
 20
2071.5
 21
2091.5
  0
LINE
  8
QUOTATURA
 10
-498.673
 11
-495.339
 20
2091.5
 21
2071.5
  0
LINE
  8
QUOTATURA
 10
-495.339
 11
-502.007
 20
2071.5
 21
2071.5
  0
LINE
  8
QUOTATURA
 10
407.676
 11
427.676
 20
-32.836
 21
-36.17
  0
LINE
  8
QUOTATURA
 10
427.676
 11
407.676
 20
-36.17
 21
-39.504
  0
LINE
  8
QUOTATURA
 10
407.676
 11
407.676
 20
-39.504
 21
-32.836
  0
LINE
  8
QUOTATURA
 10
427.676
 11
386.75
 20
-36.17
 21
-36.17
  0
LINE
  8
QUOTATURA
 10
386.75
 11
386.75
 20
-36.17
 21
-8.569
  0
LINE
  8
QUOTATURA
 10
965.016
 11
961.682
 20
936.095
 21
916.095
  0
LINE
  8
QUOTATURA
 10
961.682
 11
958.348
 20
916.095
 21
936.095
  0
LINE
  8
QUOTATURA
 10
958.348
 11
965.016
 20
936.095
 21
936.095
  0
LINE
  8
QUOTATURA
 10
961.682
 11
961.682
 20
916.095
 21
958.224
  0
LINE
  8
QUOTATURA
 10
961.682
 11
922.425
 20
958.224
 21
958.224
  0
CIRCLE
  8
APS_GEOMETRY
 10
767.0
 20
1040.0
 40
2.0
  0
LINE
  8
APS_GEOMETRY
 10
767.0
 11
667.0
 20
1050.0
 21
1050.0
  0
LINE
  8
APS_GEOMETRY
 10
667.0
 11
667.0
 20
1050.0
 21
1030.0
  0
LINE
  8
APS_GEOMETRY
 10
667.0
 11
777.0
 20
1030.0
 21
1030.0
  0
LINE
  8
APS_GEOMETRY
 10
777.0
 11
777.0
 20
1030.0
 21
1050.0
  0
LINE
  8
APS_GEOMETRY
 10
777.0
 11
677.0
 20
1050.0
 21
1050.0
  0
ARC
  8
APS_GEOMETRY
 10
767.0
 20
939.0
 40
7.0
 50
180.0
 51
360.0
  0
LINE
  8
APS_GEOMETRY
 10
774.0
 11
774.0
 20
939.0
 21
950.0
  0
ARC
  8
APS_GEOMETRY
 10
767.0
 20
950.0
 40
7.0
 50
360.0
 51
180.0
  0
LINE
  8
APS_GEOMETRY
 10
760.0
 11
760.0
 20
950.0
 21
939.0
  0
CIRCLE
  8
APS_GEOMETRY
 10
767.0
 20
1040.0
 40
1.0
  0
LINE
  8
APS_GEOMETRY
 10
792.0
 11
792.0
 20
919.5
 21
969.5
  0
LINE
  8
APS_GEOMETRY
 10
792.0
 11
742.0
 20
969.5
 21
969.5
  0
LINE
  8
APS_GEOMETRY
 10
742.0
 11
742.0
 20
969.5
 21
919.5
  0
LINE
  8
APS_GEOMETRY
 10
742.0
 11
792.0
 20
919.5
 21
919.5
  0
LINE
  8
APS_GEOMETRY
 10
742.0
 11
742.0
 20
1030.0
 21
1015.0
  0
LINE
  8
APS_GEOMETRY
 10
742.0
 11
792.0
 20
1015.0
 21
1015.0
  0
LINE
  8
APS_GEOMETRY
 10
792.0
 11
792.0
 20
1015.0
 21
1065.0
  0
LINE
  8
APS_GEOMETRY
 10
792.0
 11
742.0
 20
1065.0
 21
1065.0
  0
LINE
  8
APS_GEOMETRY
 10
742.0
 11
742.0
 20
1065.0
 21
1050.0
  0
LINE
  8
APS_GEOMETRY
 10
114.0
 11
114.0
 20
774.0
 21
176.0
  0
LINE
  8
APS_GEOMETRY
 10
114.0
 11
713.0
 20
176.0
 21
176.0
  0
LINE
  8
APS_GEOMETRY
 10
98.0
 11
729.0
 20
160.0
 21
160.0
  0
LINE
  8
APS_GEOMETRY
 10
713.0
 11
729.0
 20
176.0
 21
160.0
  0
LINE
  8
APS_GEOMETRY
 10
98.0
 11
114.0
 20
160.0
 21
176.0
  0
LINE
  8
APS_GEOMETRY
 10
729.0
 11
98.0
 20
2011.0
 21
2011.0
  0
LINE
  8
APS_GEOMETRY
 10
114.0
 11
98.0
 20
1995.0
 21
2011.0
  0
LINE
  8
APS_GEOMETRY
 10
713.0
 11
729.0
 20
1995.0
 21
2011.0
  0
LINE
  8
APS_GEOMETRY
 10
713.0
 11
713.0
 20
1136.0
 21
1050.0
  0
LINE
  8
APS_GEOMETRY
 10
713.0
 11
713.0
 20
1030.0
 21
886.0
  0
LINE
  8
APS_GEOMETRY
 10
713.0
 11
713.0
 20
774.0
 21
176.0
  0
LINE
  8
APS_GEOMETRY
 10
172.0
 11
655.0
 20
234.0
 21
234.0
  0
LINE
  8
APS_GEOMETRY
 10
172.0
 11
172.0
 20
716.0
 21
234.0
  0
LINE
  8
APS_GEOMETRY
 10
655.0
 11
655.0
 20
716.0
 21
234.0
  0
LINE
  8
APS_GEOMETRY
 10
172.0
 11
114.0
 20
234.0
 21
176.0
  0
LINE
  8
APS_GEOMETRY
 10
655.0
 11
713.0
 20
234.0
 21
176.0
  0
LINE
  8
APS_GEOMETRY
 10
172.0
 11
114.0
 20
1937.0
 21
1995.0
  0
LINE
  8
APS_GEOMETRY
 10
655.0
 11
713.0
 20
1937.0
 21
1995.0
  0
LINE
  8
APS_GEOMETRY
 10
98.0
 11
729.0
 20
870.0
 21
870.0
  0
LINE
  8
APS_GEOMETRY
 10
713.0
 11
729.0
 20
886.0
 21
870.0
  0
LINE
  8
APS_GEOMETRY
 10
98.0
 11
114.0
 20
870.0
 21
886.0
  0
LINE
  8
APS_GEOMETRY
 10
172.0
 11
114.0
 20
944.0
 21
886.0
  0
LINE
  8
APS_GEOMETRY
 10
655.0
 11
713.0
 20
944.0
 21
886.0
  0
LINE
  8
APS_GEOMETRY
 10
98.0
 11
729.0
 20
1232.0
 21
1232.0
  0
LINE
  8
APS_GEOMETRY
 10
713.0
 11
729.0
 20
1248.0
 21
1232.0
  0
LINE
  8
APS_GEOMETRY
 10
98.0
 11
114.0
 20
1232.0
 21
1248.0
  0
LINE
  8
APS_GEOMETRY
 10
172.0
 11
114.0
 20
1306.0
 21
1248.0
  0
LINE
  8
APS_GEOMETRY
 10
655.0
 11
713.0
 20
1306.0
 21
1248.0
  0
LINE
  8
APS_GEOMETRY
 10
729.0
 11
98.0
 20
1152.0
 21
1152.0
  0
LINE
  8
APS_GEOMETRY
 10
114.0
 11
98.0
 20
1136.0
 21
1152.0
  0
LINE
  8
APS_GEOMETRY
 10
713.0
 11
729.0
 20
1136.0
 21
1152.0
  0
LINE
  8
APS_GEOMETRY
 10
172.0
 11
114.0
 20
1078.0
 21
1136.0
  0
LINE
  8
APS_GEOMETRY
 10
655.0
 11
713.0
 20
1078.0
 21
1136.0
  0
LINE
  8
APS_GEOMETRY
 10
713.0
 11
114.0
 20
774.0
 21
774.0
  0
LINE
  8
APS_GEOMETRY
 10
729.0
 11
98.0
 20
790.0
 21
790.0
  0
LINE
  8
APS_GEOMETRY
 10
114.0
 11
98.0
 20
774.0
 21
790.0
  0
LINE
  8
APS_GEOMETRY
 10
713.0
 11
729.0
 20
774.0
 21
790.0
  0
LINE
  8
APS_GEOMETRY
 10
655.0
 11
172.0
 20
716.0
 21
716.0
  0
LINE
  8
APS_GEOMETRY
 10
172.0
 11
114.0
 20
716.0
 21
774.0
  0
LINE
  8
APS_GEOMETRY
 10
655.0
 11
713.0
 20
716.0
 21
774.0
  0
ARC
  8
APS_GEOMETRY
 10
-288.258
 20
2010.583
 40
11.091
 50
300.225
 51
2.153
  0
ARC
  8
APS_GEOMETRY
 10
-278.508
 20
1992.833
 40
9.168
 50
117.031
 51
161.855
  0
ARC
  8
APS_GEOMETRY
 10
-288.171
 20
1996.0
 40
1.0
 50
270.0
 51
341.855
  0
LINE
  8
APS_GEOMETRY
 10
-288.171
 11
-292.0
 20
1995.0
 21
1995.0
  0
ARC
  8
APS_GEOMETRY
 10
-292.0
 20
1996.0
 40
1.0
 50
180.0
 51
270.0
  0
LINE
  8
APS_GEOMETRY
 10
-293.0
 11
-293.0
 20
1996.0
 21
2011.0
  0
LINE
  8
APS_GEOMETRY
 10
-317.0
 11
-317.0
 20
2096.0
 21
2014.0
  0
LINE
  8
APS_GEOMETRY
 10
-317.0
 11
-314.0
 20
2014.0
 21
2011.0
  0
LINE
  8
APS_GEOMETRY
 10
-314.0
 11
-311.824
 20
2011.0
 21
2011.0
  0
ARC
  8
APS_GEOMETRY
 10
-298.595
 20
2010.553
 40
13.236
 50
178.063
 51
203.672
  0
ARC
  8
APS_GEOMETRY
 10
-301.18
 20
2009.335
 40
10.38
 50
203.243
 51
233.413
  0
ARC
  8
APS_GEOMETRY
 10
-312.336
 20
1993.621
 40
8.896
 50
13.437
 51
56.043
  0
ARC
  8
APS_GEOMETRY
 10
-302.643
 20
1995.959
 40
1.075
 50
194.545
 51
215.813
  0
ARC
  8
APS_GEOMETRY
 10
-302.831
 20
1995.821
 40
0.842
 50
215.67
 51
240.722
  0
ARC
  8
APS_GEOMETRY
 10
-302.911
 20
1995.682
 40
0.682
 50
240.899
 51
269.762
  0
LINE
  8
APS_GEOMETRY
 10
-302.913
 11
-299.811
 20
1995.0
 21
1995.0
  0
ARC
  8
APS_GEOMETRY
 10
-299.813
 20
1995.679
 40
0.679
 50
270.198
 51
297.386
  0
ARC
  8
APS_GEOMETRY
 10
-299.881
 20
1995.805
 40
0.823
 50
297.555
 51
321.463
  0
ARC
  8
APS_GEOMETRY
 10
-300.051
 20
1995.943
 40
1.041
 50
321.362
 51
341.773
  0
ARC
  8
APS_GEOMETRY
 10
-300.207
 20
1995.998
 40
1.206
 50
341.597
 51
0.091
  0
LINE
  8
APS_GEOMETRY
 10
-299.0
 11
-299.0
 20
1996.0
 21
2011.0
  0
LINE
  8
APS_GEOMETRY
 10
-299.0
 11
-275.0
 20
2011.0
 21
2011.0
  0
LINE
  8
APS_GEOMETRY
 10
-275.0
 11
-272.0
 20
2011.0
 21
2014.0
  0
LINE
  8
APS_GEOMETRY
 10
-272.0
 11
-272.0
 20
2014.0
 21
2104.0
  0
ARC
  8
APS_GEOMETRY
 10
-277.0
 20
2104.0
 40
5.0
 50
360.0
 51
90.0
  0
LINE
  8
APS_GEOMETRY
 10
-277.0
 11
-285.0
 20
2109.0
 21
2109.0
  0
ARC
  8
APS_GEOMETRY
 10
-285.0
 20
2107.0
 40
2.0
 50
90.0
 51
180.0
  0
LINE
  8
APS_GEOMETRY
 10
-287.0
 11
-287.0
 20
2107.0
 21
2099.0
  0
LINE
  8
APS_GEOMETRY
 10
-287.0
 11
-314.0
 20
2099.0
 21
2099.0
  0
ARC
  8
APS_GEOMETRY
 10
-314.0
 20
2096.0
 40
3.0
 50
90.0
 51
180.0
  0
ARC
  8
APS_GEOMETRY
 10
-288.258
 20
1151.583
 40
11.091
 50
300.225
 51
2.153
  0
ARC
  8
APS_GEOMETRY
 10
-278.508
 20
1133.833
 40
9.168
 50
117.031
 51
161.855
  0
ARC
  8
APS_GEOMETRY
 10
-288.171
 20
1137.0
 40
1.0
 50
270.0
 51
341.855
  0
LINE
  8
APS_GEOMETRY
 10
-288.171
 11
-292.0
 20
1136.0
 21
1136.0
  0
ARC
  8
APS_GEOMETRY
 10
-292.0
 20
1137.0
 40
1.0
 50
180.0
 51
270.0
  0
LINE
  8
APS_GEOMETRY
 10
-293.0
 11
-293.0
 20
1137.0
 21
1152.0
  0
LINE
  8
APS_GEOMETRY
 10
-317.0
 11
-314.0
 20
1155.0
 21
1152.0
  0
LINE
  8
APS_GEOMETRY
 10
-314.0
 11
-311.824
 20
1152.0
 21
1152.0
  0
ARC
  8
APS_GEOMETRY
 10
-298.595
 20
1151.553
 40
13.236
 50
178.063
 51
203.672
  0
ARC
  8
APS_GEOMETRY
 10
-301.18
 20
1150.335
 40
10.38
 50
203.243
 51
233.413
  0
ARC
  8
APS_GEOMETRY
 10
-312.336
 20
1134.621
 40
8.896
 50
13.437
 51
56.043
  0
ARC
  8
APS_GEOMETRY
 10
-302.643
 20
1136.958
 40
1.075
 50
194.545
 51
215.813
  0
ARC
  8
APS_GEOMETRY
 10
-302.831
 20
1136.821
 40
0.842
 50
215.67
 51
240.722
  0
ARC
  8
APS_GEOMETRY
 10
-302.911
 20
1136.682
 40
0.682
 50
240.899
 51
269.762
  0
LINE
  8
APS_GEOMETRY
 10
-302.913
 11
-299.811
 20
1136.0
 21
1136.0
  0
ARC
  8
APS_GEOMETRY
 10
-299.813
 20
1136.679
 40
0.679
 50
270.198
 51
297.386
  0
ARC
  8
APS_GEOMETRY
 10
-299.881
 20
1136.805
 40
0.823
 50
297.555
 51
321.463
  0
ARC
  8
APS_GEOMETRY
 10
-300.051
 20
1136.943
 40
1.041
 50
321.362
 51
341.773
  0
ARC
  8
APS_GEOMETRY
 10
-300.207
 20
1136.998
 40
1.206
 50
341.597
 51
0.091
  0
LINE
  8
APS_GEOMETRY
 10
-299.0
 11
-299.0
 20
1137.0
 21
1152.0
  0
LINE
  8
APS_GEOMETRY
 10
-299.0
 11
-275.0
 20
1152.0
 21
1152.0
  0
LINE
  8
APS_GEOMETRY
 10
-275.0
 11
-272.0
 20
1152.0
 21
1155.0
  0
LINE
  8
APS_GEOMETRY
 10
-272.0
 11
-272.0
 20
1155.0
 21
1229.0
  0
LINE
  8
APS_GEOMETRY
 10
-272.0
 11
-275.0
 20
1229.0
 21
1232.0
  0
LINE
  8
APS_GEOMETRY
 10
-275.0
 11
-299.0
 20
1232.0
 21
1232.0
  0
LINE
  8
APS_GEOMETRY
 10
-299.0
 11
-299.0
 20
1232.0
 21
1247.0
  0
ARC
  8
APS_GEOMETRY
 10
-300.207
 20
1247.002
 40
1.206
 50
359.909
 51
18.403
  0
ARC
  8
APS_GEOMETRY
 10
-300.051
 20
1247.057
 40
1.041
 50
18.227
 51
38.638
  0
ARC
  8
APS_GEOMETRY
 10
-299.881
 20
1247.195
 40
0.823
 50
38.537
 51
62.445
  0
ARC
  8
APS_GEOMETRY
 10
-299.813
 20
1247.321
 40
0.679
 50
62.614
 51
89.802
  0
LINE
  8
APS_GEOMETRY
 10
-299.811
 11
-302.913
 20
1248.0
 21
1248.0
  0
ARC
  8
APS_GEOMETRY
 10
-302.911
 20
1247.318
 40
0.682
 50
90.238
 51
119.101
  0
ARC
  8
APS_GEOMETRY
 10
-302.831
 20
1247.179
 40
0.842
 50
119.278
 51
144.33
  0
ARC
  8
APS_GEOMETRY
 10
-302.643
 20
1247.042
 40
1.075
 50
144.187
 51
165.455
  0
ARC
  8
APS_GEOMETRY
 10
-312.336
 20
1249.379
 40
8.896
 50
303.957
 51
346.563
  0
ARC
  8
APS_GEOMETRY
 10
-301.18
 20
1233.665
 40
10.38
 50
126.587
 51
156.757
  0
ARC
  8
APS_GEOMETRY
 10
-298.595
 20
1232.447
 40
13.236
 50
156.328
 51
181.937
  0
LINE
  8
APS_GEOMETRY
 10
-311.824
 11
-314.0
 20
1232.0
 21
1232.0
  0
LINE
  8
APS_GEOMETRY
 10
-314.0
 11
-317.0
 20
1232.0
 21
1229.0
  0
LINE
  8
APS_GEOMETRY
 10
-317.0
 11
-317.0
 20
1229.0
 21
1155.0
  0
ARC
  8
APS_GEOMETRY
 10
-288.258
 20
1232.417
 40
11.091
 50
357.847
 51
59.775
  0
ARC
  8
APS_GEOMETRY
 10
-278.508
 20
1250.167
 40
9.168
 50
198.145
 51
242.969
  0
ARC
  8
APS_GEOMETRY
 10
-288.171
 20
1247.0
 40
1.0
 50
18.145
 51
90.0
  0
LINE
  8
APS_GEOMETRY
 10
-288.171
 11
-292.0
 20
1248.0
 21
1248.0
  0
ARC
  8
APS_GEOMETRY
 10
-292.0
 20
1247.0
 40
1.0
 50
90.0
 51
180.0
  0
LINE
  8
APS_GEOMETRY
 10
-293.0
 11
-293.0
 20
1247.0
 21
1232.0
  0
ARC
  8
APS_GEOMETRY
 10
-288.258
 20
789.583
 40
11.091
 50
300.225
 51
2.153
  0
ARC
  8
APS_GEOMETRY
 10
-278.508
 20
771.833
 40
9.168
 50
117.031
 51
161.855
  0
ARC
  8
APS_GEOMETRY
 10
-288.171
 20
775.0
 40
1.0
 50
270.0
 51
341.855
  0
LINE
  8
APS_GEOMETRY
 10
-288.171
 11
-292.0
 20
774.0
 21
774.0
  0
ARC
  8
APS_GEOMETRY
 10
-292.0
 20
775.0
 40
1.0
 50
180.0
 51
270.0
  0
LINE
  8
APS_GEOMETRY
 10
-293.0
 11
-293.0
 20
775.0
 21
790.0
  0
LINE
  8
APS_GEOMETRY
 10
-317.0
 11
-314.0
 20
793.0
 21
790.0
  0
LINE
  8
APS_GEOMETRY
 10
-314.0
 11
-311.824
 20
790.0
 21
790.0
  0
ARC
  8
APS_GEOMETRY
 10
-298.595
 20
789.553
 40
13.236
 50
178.063
 51
203.672
  0
ARC
  8
APS_GEOMETRY
 10
-301.18
 20
788.335
 40
10.38
 50
203.243
 51
233.413
  0
ARC
  8
APS_GEOMETRY
 10
-312.336
 20
772.621
 40
8.896
 50
13.437
 51
56.043
  0
ARC
  8
APS_GEOMETRY
 10
-302.643
 20
774.958
 40
1.075
 50
194.545
 51
215.813
  0
ARC
  8
APS_GEOMETRY
 10
-302.831
 20
774.821
 40
0.842
 50
215.67
 51
240.722
  0
ARC
  8
APS_GEOMETRY
 10
-302.911
 20
774.682
 40
0.682
 50
240.899
 51
269.762
  0
LINE
  8
APS_GEOMETRY
 10
-302.913
 11
-299.811
 20
774.0
 21
774.0
  0
ARC
  8
APS_GEOMETRY
 10
-299.813
 20
774.679
 40
0.679
 50
270.198
 51
297.386
  0
ARC
  8
APS_GEOMETRY
 10
-299.881
 20
774.805
 40
0.823
 50
297.555
 51
321.463
  0
ARC
  8
APS_GEOMETRY
 10
-300.051
 20
774.943
 40
1.041
 50
321.362
 51
341.773
  0
ARC
  8
APS_GEOMETRY
 10
-300.207
 20
774.998
 40
1.206
 50
341.597
 51
0.091
  0
LINE
  8
APS_GEOMETRY
 10
-299.0
 11
-299.0
 20
775.0
 21
790.0
  0
LINE
  8
APS_GEOMETRY
 10
-299.0
 11
-275.0
 20
790.0
 21
790.0
  0
LINE
  8
APS_GEOMETRY
 10
-275.0
 11
-272.0
 20
790.0
 21
793.0
  0
LINE
  8
APS_GEOMETRY
 10
-272.0
 11
-272.0
 20
793.0
 21
867.0
  0
LINE
  8
APS_GEOMETRY
 10
-272.0
 11
-275.0
 20
867.0
 21
870.0
  0
LINE
  8
APS_GEOMETRY
 10
-275.0
 11
-299.0
 20
870.0
 21
870.0
  0
LINE
  8
APS_GEOMETRY
 10
-299.0
 11
-299.0
 20
870.0
 21
885.0
  0
ARC
  8
APS_GEOMETRY
 10
-300.207
 20
885.002
 40
1.206
 50
359.909
 51
18.403
  0
ARC
  8
APS_GEOMETRY
 10
-300.051
 20
885.057
 40
1.041
 50
18.227
 51
38.638
  0
ARC
  8
APS_GEOMETRY
 10
-299.881
 20
885.195
 40
0.823
 50
38.537
 51
62.445
  0
ARC
  8
APS_GEOMETRY
 10
-299.813
 20
885.321
 40
0.679
 50
62.614
 51
89.802
  0
LINE
  8
APS_GEOMETRY
 10
-299.811
 11
-302.913
 20
886.0
 21
886.0
  0
ARC
  8
APS_GEOMETRY
 10
-302.911
 20
885.318
 40
0.682
 50
90.238
 51
119.101
  0
ARC
  8
APS_GEOMETRY
 10
-302.831
 20
885.179
 40
0.842
 50
119.278
 51
144.33
  0
ARC
  8
APS_GEOMETRY
 10
-302.643
 20
885.042
 40
1.075
 50
144.187
 51
165.455
  0
ARC
  8
APS_GEOMETRY
 10
-312.336
 20
887.379
 40
8.896
 50
303.957
 51
346.563
  0
ARC
  8
APS_GEOMETRY
 10
-301.18
 20
871.665
 40
10.38
 50
126.587
 51
156.757
  0
ARC
  8
APS_GEOMETRY
 10
-298.595
 20
870.447
 40
13.236
 50
156.328
 51
181.937
  0
LINE
  8
APS_GEOMETRY
 10
-311.824
 11
-314.0
 20
870.0
 21
870.0
  0
LINE
  8
APS_GEOMETRY
 10
-314.0
 11
-317.0
 20
870.0
 21
867.0
  0
LINE
  8
APS_GEOMETRY
 10
-317.0
 11
-317.0
 20
867.0
 21
793.0
  0
ARC
  8
APS_GEOMETRY
 10
-288.258
 20
870.417
 40
11.091
 50
357.847
 51
59.775
  0
ARC
  8
APS_GEOMETRY
 10
-278.508
 20
888.167
 40
9.168
 50
198.145
 51
242.969
  0
ARC
  8
APS_GEOMETRY
 10
-288.171
 20
885.0
 40
1.0
 50
18.145
 51
90.0
  0
LINE
  8
APS_GEOMETRY
 10
-288.171
 11
-292.0
 20
886.0
 21
886.0
  0
ARC
  8
APS_GEOMETRY
 10
-292.0
 20
885.0
 40
1.0
 50
90.0
 51
180.0
  0
LINE
  8
APS_GEOMETRY
 10
-293.0
 11
-293.0
 20
885.0
 21
870.0
  0
ARC
  8
APS_GEOMETRY
 10
-288.258
 20
160.417
 40
11.091
 50
357.847
 51
59.775
  0
ARC
  8
APS_GEOMETRY
 10
-278.508
 20
178.167
 40
9.168
 50
198.145
 51
242.969
  0
ARC
  8
APS_GEOMETRY
 10
-288.171
 20
175.0
 40
1.0
 50
18.145
 51
90.0
  0
LINE
  8
APS_GEOMETRY
 10
-288.171
 11
-292.0
 20
176.0
 21
176.0
  0
ARC
  8
APS_GEOMETRY
 10
-292.0
 20
175.0
 40
1.0
 50
90.0
 51
180.0
  0
LINE
  8
APS_GEOMETRY
 10
-293.0
 11
-293.0
 20
175.0
 21
160.0
  0
LINE
  8
APS_GEOMETRY
 10
-317.0
 11
-314.0
 20
157.0
 21
160.0
  0
LINE
  8
APS_GEOMETRY
 10
-314.0
 11
-311.824
 20
160.0
 21
160.0
  0
ARC
  8
APS_GEOMETRY
 10
-298.595
 20
160.447
 40
13.236
 50
156.328
 51
181.937
  0
ARC
  8
APS_GEOMETRY
 10
-301.18
 20
161.665
 40
10.38
 50
126.587
 51
156.757
  0
ARC
  8
APS_GEOMETRY
 10
-312.336
 20
177.379
 40
8.896
 50
303.957
 51
346.563
  0
ARC
  8
APS_GEOMETRY
 10
-302.643
 20
175.042
 40
1.075
 50
144.187
 51
165.455
  0
ARC
  8
APS_GEOMETRY
 10
-302.831
 20
175.179
 40
0.842
 50
119.278
 51
144.33
  0
ARC
  8
APS_GEOMETRY
 10
-302.911
 20
175.318
 40
0.682
 50
90.238
 51
119.101
  0
LINE
  8
APS_GEOMETRY
 10
-302.913
 11
-299.811
 20
176.0
 21
176.0
  0
ARC
  8
APS_GEOMETRY
 10
-299.813
 20
175.321
 40
0.679
 50
62.614
 51
89.802
  0
ARC
  8
APS_GEOMETRY
 10
-299.881
 20
175.195
 40
0.823
 50
38.537
 51
62.445
  0
ARC
  8
APS_GEOMETRY
 10
-300.051
 20
175.057
 40
1.041
 50
18.227
 51
38.638
  0
ARC
  8
APS_GEOMETRY
 10
-300.207
 20
175.002
 40
1.206
 50
359.909
 51
18.403
  0
LINE
  8
APS_GEOMETRY
 10
-299.0
 11
-299.0
 20
175.0
 21
160.0
  0
LINE
  8
APS_GEOMETRY
 10
-299.0
 11
-275.0
 20
160.0
 21
160.0
  0
LINE
  8
APS_GEOMETRY
 10
-275.0
 11
-272.0
 20
160.0
 21
157.0
  0
LINE
  8
APS_GEOMETRY
 10
-272.0
 11
-272.0
 20
157.0
 21
5.0
  0
ARC
  8
APS_GEOMETRY
 10
-277.0
 20
5.0
 40
5.0
 50
270.0
 51
360.0
  0
LINE
  8
APS_GEOMETRY
 10
-277.0
 11
-312.0
 20
0.0
 21
0.0
  0
ARC
  8
APS_GEOMETRY
 10
-312.0
 20
5.0
 40
5.0
 50
180.0
 51
270.0
  0
LINE
  8
APS_GEOMETRY
 10
-317.0
 11
-317.0
 20
5.0
 21
157.0
  0
LINE
  8
COSTRUZIONI
 10
-299.0
 11
-299.0
 20
163.0
 21
189.08
  0
ARC
  8
COSTRUZIONI
 10
-326.484
 20
189.216
 40
27.485
 50
359.715
 51
22.333
  0
ARC
  8
COSTRUZIONI
 10
-275.869
 20
210.043
 40
27.248
 50
181.83
 51
202.398
  0
LINE
  8
COSTRUZIONI
 10
-303.103
 11
-303.447
 20
209.172
 21
218.561
  0
ARC
  8
COSTRUZIONI
 10
-305.446
 20
218.488
 40
2.0
 50
2.101
 51
70.0
  0
LINE
  8
COSTRUZIONI
 10
-304.762
 11
-305.842
 20
220.367
 21
220.761
  0
ARC
  8
COSTRUZIONI
 10
-305.5
 20
221.7
 40
1.0
 50
180.0
 51
250.0
  0
LINE
  8
COSTRUZIONI
 10
-306.5
 11
-306.5
 20
221.7
 21
728.3
  0
ARC
  8
COSTRUZIONI
 10
-305.5
 20
728.3
 40
1.0
 50
110.0
 51
180.0
  0
LINE
  8
COSTRUZIONI
 10
-305.842
 11
-304.762
 20
729.239
 21
729.633
  0
ARC
  8
COSTRUZIONI
 10
-305.446
 20
731.512
 40
2.0
 50
290.0
 51
357.899
  0
LINE
  8
COSTRUZIONI
 10
-303.447
 11
-303.103
 20
731.439
 21
740.828
  0
ARC
  8
COSTRUZIONI
 10
-275.869
 20
739.957
 40
27.248
 50
157.602
 51
178.17
  0
ARC
  8
COSTRUZIONI
 10
-326.484
 20
760.784
 40
27.485
 50
337.667
 51
0.285
  0
LINE
  8
COSTRUZIONI
 10
-299.0
 11
-299.0
 20
760.92
 21
787.0
  0
LINE
  8
COSTRUZIONI
 10
-299.0
 11
-293.0
 20
787.0
 21
787.0
  0
LINE
  8
COSTRUZIONI
 10
-293.0
 11
-293.0
 20
787.0
 21
760.92
  0
ARC
  8
COSTRUZIONI
 10
-265.516
 20
760.784
 40
27.485
 50
179.715
 51
202.333
  0
ARC
  8
COSTRUZIONI
 10
-316.132
 20
739.957
 40
27.248
 50
1.83
 51
22.398
  0
LINE
  8
COSTRUZIONI
 10
-288.897
 11
-288.553
 20
740.828
 21
731.439
  0
ARC
  8
COSTRUZIONI
 10
-286.554
 20
731.512
 40
2.0
 50
182.101
 51
250.0
  0
LINE
  8
COSTRUZIONI
 10
-287.238
 11
-286.158
 20
729.633
 21
729.239
  0
ARC
  8
COSTRUZIONI
 10
-286.5
 20
728.3
 40
1.0
 50
360.0
 51
70.0
  0
LINE
  8
COSTRUZIONI
 10
-285.5
 11
-285.5
 20
728.3
 21
221.7
  0
ARC
  8
COSTRUZIONI
 10
-286.5
 20
221.7
 40
1.0
 50
290.0
 51
360.0
  0
LINE
  8
COSTRUZIONI
 10
-286.158
 11
-287.238
 20
220.761
 21
220.367
  0
ARC
  8
COSTRUZIONI
 10
-286.554
 20
218.488
 40
2.0
 50
110.0
 51
177.899
  0
LINE
  8
COSTRUZIONI
 10
-288.553
 11
-288.897
 20
218.561
 21
209.172
  0
ARC
  8
COSTRUZIONI
 10
-316.132
 20
210.043
 40
27.248
 50
337.602
 51
358.17
  0
ARC
  8
COSTRUZIONI
 10
-265.516
 20
189.216
 40
27.485
 50
157.667
 51
180.285
  0
LINE
  8
COSTRUZIONI
 10
-293.0
 11
-293.0
 20
189.08
 21
163.0
  0
LINE
  8
COSTRUZIONI
 10
-293.0
 11
-299.0
 20
163.0
 21
163.0
  0
LINE
  8
QUOTATURA
 10
88.0
 11
-186.357
 20
886.0
 21
886.0
  0
LINE
  8
QUOTATURA
 10
-176.357
 11
-176.357
 20
0.0
 21
355.427
  0
LINE
  8
QUOTATURA
 10
-176.357
 11
-176.357
 20
717.643
 21
886.0
  0
LINE
  8
QUOTATURA
 10
-173.023
 11
-176.357
 20
20.0
 21
0.0
  0
LINE
  8
QUOTATURA
 10
-176.357
 11
-179.691
 20
0.0
 21
20.0
  0
LINE
  8
QUOTATURA
 10
-179.691
 11
-173.023
 20
20.0
 21
20.0
  0
LINE
  8
QUOTATURA
 10
-179.691
 11
-176.357
 20
866.0
 21
886.0
  0
LINE
  8
QUOTATURA
 10
-176.357
 11
-173.023
 20
886.0
 21
866.0
  0
LINE
  8
QUOTATURA
 10
-173.023
 11
-179.691
 20
866.0
 21
866.0
  0
LINE
  8
COSTRUZIONI
 10
0.0
 11
-18.0
 20
2109.0
 21
2127.0
  0
LINE
  8
COSTRUZIONI
 10
827.0
 11
845.0
 20
2109.0
 21
2127.0
  0
LINE
  8
APS_GEOMETRY
 10
845.0
 11
-18.0
 20
2127.0
 21
2127.0
  0
LINE
  8
APS_GEOMETRY
 10
-18.0
 11
-18.0
 20
2127.0
 21
-4.5
  0
LINE
  8
APS_GEOMETRY
 10
845.0
 11
845.0
 20
-4.5
 21
2127.0
  0
LINE
  8
APS_GEOMETRY
 10
-87.0
 11
-87.0
 20
-4.5
 21
2196.0
  0
LINE
  8
APS_GEOMETRY
 10
-87.0
 11
914.0
 20
2196.0
 21
2196.0
  0
LINE
  8
APS_GEOMETRY
 10
914.0
 11
914.0
 20
2196.0
 21
-4.5
  0
LINE
  8
APS_GEOMETRY
 10
-87.0
 11
-18.0
 20
-4.5
 21
-4.5
  0
LINE
  8
APS_GEOMETRY
 10
845.0
 11
914.0
 20
-4.5
 21
-4.5
  0
LINE
  8
APS_GEOMETRY
 10
-18.0
 11
-87.0
 20
2127.0
 21
2196.0
  0
LINE
  8
APS_GEOMETRY
 10
845.0
 11
914.0
 20
2127.0
 21
2196.0
  0
LINE
  8
QUOTATURA
 10
16.5
 11
16.5
 20
-205.533
 21
-204.867
  0
LINE
  8
COSTRUZIONI
 10
-0.7
 11
7.0
 20
-200.7
 21
-200.7
  0
ARC
  8
COSTRUZIONI
 10
12.0
 20
-212.7
 40
13.0
 50
67.38
 51
112.62
  0
LINE
  8
COSTRUZIONI
 10
17.0
 11
17.0
 20
-200.7
 21
-204.2
  0
LINE
  8
COSTRUZIONI
 10
17.0
 11
-0.7
 20
-204.2
 21
-204.2
  0
LINE
  8
COSTRUZIONI
 10
-0.7
 11
-0.7
 20
-204.2
 21
-200.7
  0
LINE
  8
COSTRUZIONI
 10
-0.523
 11
-0.7
 20
-204.2
 21
-204.023
  0
LINE
  8
COSTRUZIONI
 10
-0.7
 11
0.007
 20
-203.493
 21
-204.2
  0
LINE
  8
COSTRUZIONI
 10
0.184
 11
-0.7
 20
-204.2
 21
-203.316
  0
LINE
  8
COSTRUZIONI
 10
-0.7
 11
0.714
 20
-202.786
 21
-204.2
  0
LINE
  8
COSTRUZIONI
 10
0.891
 11
-0.7
 20
-204.2
 21
-202.609
  0
LINE
  8
COSTRUZIONI
 10
-0.7
 11
1.421
 20
-202.079
 21
-204.2
  0
LINE
  8
COSTRUZIONI
 10
1.598
 11
-0.7
 20
-204.2
 21
-201.902
  0
LINE
  8
COSTRUZIONI
 10
-0.7
 11
2.128
 20
-201.372
 21
-204.2
  0
LINE
  8
COSTRUZIONI
 10
2.305
 11
-0.7
 20
-204.2
 21
-201.195
  0
LINE
  8
COSTRUZIONI
 10
-0.664
 11
2.836
 20
-200.7
 21
-204.2
  0
LINE
  8
COSTRUZIONI
 10
3.012
 11
-0.488
 20
-204.2
 21
-200.7
  0
LINE
  8
COSTRUZIONI
 10
0.043
 11
3.543
 20
-200.7
 21
-204.2
  0
LINE
  8
COSTRUZIONI
 10
3.719
 11
0.219
 20
-204.2
 21
-200.7
  0
LINE
  8
COSTRUZIONI
 10
0.75
 11
4.25
 20
-200.7
 21
-204.2
  0
LINE
  8
COSTRUZIONI
 10
4.427
 11
0.927
 20
-204.2
 21
-200.7
  0
LINE
  8
COSTRUZIONI
 10
1.457
 11
4.957
 20
-200.7
 21
-204.2
  0
LINE
  8
COSTRUZIONI
 10
5.134
 11
1.634
 20
-204.2
 21
-200.7
  0
LINE
  8
COSTRUZIONI
 10
2.164
 11
5.664
 20
-200.7
 21
-204.2
  0
LINE
  8
COSTRUZIONI
 10
5.841
 11
2.341
 20
-204.2
 21
-200.7
  0
LINE
  8
COSTRUZIONI
 10
2.871
 11
6.371
 20
-200.7
 21
-204.2
  0
LINE
  8
COSTRUZIONI
 10
6.548
 11
3.048
 20
-204.2
 21
-200.7
  0
LINE
  8
COSTRUZIONI
 10
3.578
 11
7.078
 20
-200.7
 21
-204.2
  0
LINE
  8
COSTRUZIONI
 10
7.255
 11
3.755
 20
-204.2
 21
-200.7
  0
LINE
  8
COSTRUZIONI
 10
4.285
 11
7.785
 20
-200.7
 21
-204.2
  0
LINE
  8
COSTRUZIONI
 10
7.962
 11
4.462
 20
-204.2
 21
-200.7
  0
LINE
  8
COSTRUZIONI
 10
4.992
 11
8.492
 20
-200.7
 21
-204.2
  0
LINE
  8
COSTRUZIONI
 10
8.669
 11
5.169
 20
-204.2
 21
-200.7
  0
LINE
  8
COSTRUZIONI
 10
5.699
 11
9.199
 20
-200.7
 21
-204.2
  0
LINE
  8
COSTRUZIONI
 10
9.376
 11
5.876
 20
-204.2
 21
-200.7
  0
LINE
  8
COSTRUZIONI
 10
6.407
 11
9.907
 20
-200.7
 21
-204.2
  0
LINE
  8
COSTRUZIONI
 10
10.083
 11
6.583
 20
-204.2
 21
-200.7
  0
LINE
  8
COSTRUZIONI
 10
7.08
 11
10.614
 20
-200.667
 21
-204.2
  0
LINE
  8
COSTRUZIONI
 10
10.79
 11
7.207
 20
-204.2
 21
-200.616
  0
LINE
  8
COSTRUZIONI
 10
7.591
 11
11.321
 20
-200.47
 21
-204.2
  0
LINE
  8
COSTRUZIONI
 10
11.498
 11
7.722
 20
-204.2
 21
-200.424
  0
LINE
  8
COSTRUZIONI
 10
8.12
 11
12.028
 20
-200.292
 21
-204.2
  0
LINE
  8
COSTRUZIONI
 10
12.205
 11
8.256
 20
-204.2
 21
-200.251
  0
LINE
  8
COSTRUZIONI
 10
8.669
 11
12.735
 20
-200.134
 21
-204.2
  0
LINE
  8
COSTRUZIONI
 10
12.912
 11
8.809
 20
-204.2
 21
-200.098
  0
LINE
  8
COSTRUZIONI
 10
9.239
 11
13.442
 20
-199.997
 21
-204.2
  0
LINE
  8
COSTRUZIONI
 10
13.619
 11
9.385
 20
-204.2
 21
-199.966
  0
LINE
  8
COSTRUZIONI
 10
9.831
 11
14.149
 20
-199.882
 21
-204.2
  0
LINE
  8
COSTRUZIONI
 10
14.326
 11
9.983
 20
-204.2
 21
-199.857
  0
LINE
  8
COSTRUZIONI
 10
10.449
 11
14.856
 20
-199.793
 21
-204.2
  0
LINE
  8
COSTRUZIONI
 10
15.033
 11
10.608
 20
-204.2
 21
-199.775
  0
LINE
  8
COSTRUZIONI
 10
11.095
 11
15.563
 20
-199.732
 21
-204.2
  0
LINE
  8
COSTRUZIONI
 10
15.74
 11
11.261
 20
-204.2
 21
-199.721
  0
LINE
  8
COSTRUZIONI
 10
11.773
 11
16.271
 20
-199.702
 21
-204.2
  0
LINE
  8
COSTRUZIONI
 10
16.447
 11
11.947
 20
-204.2
 21
-199.7
  0
LINE
  8
COSTRUZIONI
 10
12.487
 11
16.978
 20
-199.709
 21
-204.2
  0
LINE
  8
COSTRUZIONI
 10
17.0
 11
12.672
 20
-204.046
 21
-199.717
  0
LINE
  8
COSTRUZIONI
 10
13.244
 11
17.0
 20
-199.76
 21
-203.515
  0
LINE
  8
COSTRUZIONI
 10
17.0
 11
13.442
 20
-203.339
 21
-199.78
  0
LINE
  8
COSTRUZIONI
 10
14.055
 11
17.0
 20
-199.864
 21
-202.808
  0
LINE
  8
COSTRUZIONI
 10
17.0
 11
14.268
 20
-202.631
 21
-199.899
  0
LINE
  8
COSTRUZIONI
 10
14.935
 11
17.0
 20
-200.036
 21
-202.101
  0
LINE
  8
COSTRUZIONI
 10
17.0
 11
15.168
 20
-201.924
 21
-200.092
  0
LINE
  8
COSTRUZIONI
 10
15.907
 11
17.0
 20
-200.301
 21
-201.394
  0
LINE
  8
COSTRUZIONI
 10
17.0
 11
16.17
 20
-201.217
 21
-200.387
  0
ARC
  8
APS_GEOMETRY
 10
16.5
 20
-205.2
 40
1.0
 50
360.0
 51
90.0
  0
LINE
  8
APS_GEOMETRY
 10
-26.5
 11
-26.5
 20
-217.996
 21
-289.0
  0
LINE
  8
APS_GEOMETRY
 10
-26.5
 11
-19.8
 20
-289.0
 21
-289.0
  0
LINE
  8
APS_GEOMETRY
 10
-19.8
 11
-19.8
 20
-289.0
 21
-275.0
  0
LINE
  8
APS_GEOMETRY
 10
-19.8
 11
-15.5
 20
-275.0
 21
-275.0
  0
LINE
  8
APS_GEOMETRY
 10
-15.5
 11
-15.5
 20
-275.0
 21
-289.0
  0
LINE
  8
APS_GEOMETRY
 10
-15.5
 11
7.5
 20
-289.0
 21
-289.0
  0
ARC
  8
APS_GEOMETRY
 10
7.5
 20
-279.0
 40
10.0
 50
270.0
 51
0.0
  0
LINE
  8
APS_GEOMETRY
 10
17.5
 11
17.5
 20
-279.0
 21
-205.2
  0
LINE
  8
APS_GEOMETRY
 10
7.0
 11
7.0
 20
-200.7
 21
-174.0
  0
ARC
  8
APS_GEOMETRY
 10
4.0
 20
-174.0
 40
3.0
 50
0.0
 51
90.0
  0
LINE
  8
APS_GEOMETRY
 10
4.0
 11
-18.0
 20
-171.0
 21
-171.0
  0
LINE
  8
APS_GEOMETRY
 10
-18.0
 11
-18.0
 20
-171.0
 21
-185.0
  0
LINE
  8
APS_GEOMETRY
 10
-18.0
 11
-22.3
 20
-185.0
 21
-185.0
  0
LINE
  8
APS_GEOMETRY
 10
-22.3
 11
-22.3
 20
-185.0
 21
-171.0
  0
LINE
  8
APS_GEOMETRY
 10
-22.3
 11
-26.5
 20
-171.0
 21
-171.0
  0
LINE
  8
APS_GEOMETRY
 10
-26.5
 11
-26.5
 20
-171.0
 21
-289.0
  0
ARC
  8
APS_GEOMETRY
 10
98.417
 20
-172.258
 40
11.091
 50
30.225
 51
92.153
  0
ARC
  8
APS_GEOMETRY
 10
116.167
 20
-162.508
 40
9.168
 50
207.031
 51
251.855
  0
ARC
  8
APS_GEOMETRY
 10
113.0
 20
-172.171
 40
1.0
 50
360.0
 51
71.855
  0
LINE
  8
APS_GEOMETRY
 10
114.0
 11
114.0
 20
-172.171
 21
-176.0
  0
ARC
  8
APS_GEOMETRY
 10
113.0
 20
-176.0
 40
1.0
 50
270.0
 51
360.0
  0
LINE
  8
APS_GEOMETRY
 10
113.0
 11
98.0
 20
-177.0
 21
-177.0
  0
LINE
  8
APS_GEOMETRY
 10
13.0
 11
95.0
 20
-201.0
 21
-201.0
  0
LINE
  8
APS_GEOMETRY
 10
95.0
 11
98.0
 20
-201.0
 21
-198.0
  0
LINE
  8
APS_GEOMETRY
 10
98.0
 11
98.0
 20
-198.0
 21
-195.824
  0
ARC
  8
APS_GEOMETRY
 10
98.447
 20
-182.595
 40
13.236
 50
268.063
 51
293.672
  0
ARC
  8
APS_GEOMETRY
 10
99.665
 20
-185.18
 40
10.38
 50
293.243
 51
323.413
  0
ARC
  8
APS_GEOMETRY
 10
115.379
 20
-196.336
 40
8.896
 50
103.437
 51
146.043
  0
ARC
  8
APS_GEOMETRY
 10
113.042
 20
-186.643
 40
1.075
 50
284.545
 51
305.813
  0
ARC
  8
APS_GEOMETRY
 10
113.179
 20
-186.831
 40
0.842
 50
305.67
 51
330.722
  0
ARC
  8
APS_GEOMETRY
 10
113.318
 20
-186.911
 40
0.682
 50
330.899
 51
359.762
  0
LINE
  8
APS_GEOMETRY
 10
114.0
 11
114.0
 20
-186.914
 21
-183.811
  0
ARC
  8
APS_GEOMETRY
 10
113.321
 20
-183.813
 40
0.679
 50
0.198
 51
27.386
  0
ARC
  8
APS_GEOMETRY
 10
113.195
 20
-183.881
 40
0.823
 50
27.555
 51
51.463
  0
ARC
  8
APS_GEOMETRY
 10
113.057
 20
-184.051
 40
1.041
 50
51.362
 51
71.773
  0
ARC
  8
APS_GEOMETRY
 10
113.002
 20
-184.207
 40
1.206
 50
71.597
 51
90.091
  0
LINE
  8
APS_GEOMETRY
 10
113.0
 11
98.0
 20
-183.0
 21
-183.0
  0
LINE
  8
APS_GEOMETRY
 10
98.0
 11
98.0
 20
-183.0
 21
-159.0
  0
LINE
  8
APS_GEOMETRY
 10
98.0
 11
95.0
 20
-159.0
 21
-156.0
  0
LINE
  8
APS_GEOMETRY
 10
95.0
 11
5.0
 20
-156.0
 21
-156.0
  0
ARC
  8
APS_GEOMETRY
 10
5.0
 20
-161.0
 40
5.0
 50
90.0
 51
180.0
  0
LINE
  8
APS_GEOMETRY
 10
0.0
 11
0.0
 20
-161.0
 21
-169.0
  0
ARC
  8
APS_GEOMETRY
 10
2.0
 20
-169.0
 40
2.0
 50
180.0
 51
270.0
  0
LINE
  8
APS_GEOMETRY
 10
2.0
 11
10.0
 20
-171.0
 21
-171.0
  0
LINE
  8
APS_GEOMETRY
 10
10.0
 11
10.0
 20
-171.0
 21
-198.0
  0
ARC
  8
APS_GEOMETRY
 10
13.0
 20
-198.0
 40
3.0
 50
180.0
 51
270.0
  0
LINE
  8
COSTRUZIONI
 10
101.0
 11
101.0
 20
-180.0
 21
-177.0
  0
LINE
  8
COSTRUZIONI
 10
101.0
 11
127.08
 20
-177.0
 21
-177.0
  0
ARC
  8
COSTRUZIONI
 10
127.216
 20
-149.516
 40
27.485
 50
269.715
 51
292.333
  0
ARC
  8
COSTRUZIONI
 10
148.043
 20
-200.132
 40
27.248
 50
91.83
 51
112.398
  0
LINE
  8
COSTRUZIONI
 10
147.172
 11
156.561
 20
-172.897
 21
-172.553
  0
ARC
  8
COSTRUZIONI
 10
156.488
 20
-170.554
 40
2.0
 50
272.101
 51
340.0
  0
LINE
  8
COSTRUZIONI
 10
158.367
 11
158.761
 20
-171.238
 21
-170.158
  0
ARC
  8
COSTRUZIONI
 10
159.7
 20
-170.5
 40
1.0
 50
90.0
 51
160.0
  0
LINE
  8
COSTRUZIONI
 10
159.7
 11
161.0
 20
-169.5
 21
-169.5
  0
LINE
  8
COSTRUZIONI
 10
101.0
 11
101.0
 20
-180.0
 21
-183.0
  0
LINE
  8
COSTRUZIONI
 10
101.0
 11
127.08
 20
-183.0
 21
-183.0
  0
ARC
  8
COSTRUZIONI
 10
127.216
 20
-210.484
 40
27.485
 50
67.667
 51
90.285
  0
ARC
  8
COSTRUZIONI
 10
148.043
 20
-159.869
 40
27.248
 50
247.602
 51
268.17
  0
LINE
  8
COSTRUZIONI
 10
147.172
 11
156.561
 20
-187.103
 21
-187.447
  0
ARC
  8
COSTRUZIONI
 10
156.488
 20
-189.446
 40
2.0
 50
20.0
 51
87.899
  0
LINE
  8
COSTRUZIONI
 10
158.367
 11
158.761
 20
-188.762
 21
-189.842
  0
ARC
  8
COSTRUZIONI
 10
159.7
 20
-189.5
 40
1.0
 50
200.0
 51
270.0
  0
LINE
  8
COSTRUZIONI
 10
159.7
 11
161.0
 20
-190.5
 21
-190.5
  0
LINE
  8
COSTRUZIONI
 10
-28.0
 11
-28.0
 20
-171.0
 21
-289.0
  0
LINE
  8
COSTRUZIONI
 10
-48.0
 11
-48.0
 20
-171.0
 21
-289.0
  0
LINE
  8
COSTRUZIONI
 10
-28.0
 11
-163.043
 20
-171.0
 21
-171.0
  0
LINE
  8
COSTRUZIONI
 10
-28.0
 11
-163.043
 20
-289.0
 21
-289.0
  0
LINE
  8
COSTRUZIONI
 10
-48.0
 11
-28.0
 20
-289.0
 21
-171.0
  0
LINE
  8
COSTRUZIONI
 10
-48.0
 11
-28.0
 20
-171.0
 21
-289.0
  0
LINE
  8
QUOTATURA
 10
810.5
 11
810.5
 20
-205.533
 21
-204.867
  0
LINE
  8
COSTRUZIONI
 10
827.7
 11
820.0
 20
-200.7
 21
-200.7
  0
ARC
  8
COSTRUZIONI
 10
815.0
 20
-212.7
 40
13.0
 50
67.38
 51
112.62
  0
LINE
  8
COSTRUZIONI
 10
810.0
 11
810.0
 20
-200.7
 21
-204.2
  0
LINE
  8
COSTRUZIONI
 10
810.0
 11
827.7
 20
-204.2
 21
-204.2
  0
LINE
  8
COSTRUZIONI
 10
827.7
 11
827.7
 20
-204.2
 21
-200.7
  0
LINE
  8
COSTRUZIONI
 10
827.523
 11
827.7
 20
-204.2
 21
-204.023
  0
LINE
  8
COSTRUZIONI
 10
827.7
 11
826.993
 20
-203.493
 21
-204.2
  0
LINE
  8
COSTRUZIONI
 10
826.816
 11
827.7
 20
-204.2
 21
-203.316
  0
LINE
  8
COSTRUZIONI
 10
827.7
 11
826.286
 20
-202.786
 21
-204.2
  0
LINE
  8
COSTRUZIONI
 10
826.109
 11
827.7
 20
-204.2
 21
-202.609
  0
LINE
  8
COSTRUZIONI
 10
827.7
 11
825.579
 20
-202.079
 21
-204.2
  0
LINE
  8
COSTRUZIONI
 10
825.402
 11
827.7
 20
-204.2
 21
-201.902
  0
LINE
  8
COSTRUZIONI
 10
827.7
 11
824.872
 20
-201.372
 21
-204.2
  0
LINE
  8
COSTRUZIONI
 10
824.695
 11
827.7
 20
-204.2
 21
-201.195
  0
LINE
  8
COSTRUZIONI
 10
827.664
 11
824.164
 20
-200.7
 21
-204.2
  0
LINE
  8
COSTRUZIONI
 10
823.988
 11
827.488
 20
-204.2
 21
-200.7
  0
LINE
  8
COSTRUZIONI
 10
826.957
 11
823.457
 20
-200.7
 21
-204.2
  0
LINE
  8
COSTRUZIONI
 10
823.281
 11
826.781
 20
-204.2
 21
-200.7
  0
LINE
  8
COSTRUZIONI
 10
826.25
 11
822.75
 20
-200.7
 21
-204.2
  0
LINE
  8
COSTRUZIONI
 10
822.573
 11
826.073
 20
-204.2
 21
-200.7
  0
LINE
  8
COSTRUZIONI
 10
825.543
 11
822.043
 20
-200.7
 21
-204.2
  0
LINE
  8
COSTRUZIONI
 10
821.866
 11
825.366
 20
-204.2
 21
-200.7
  0
LINE
  8
COSTRUZIONI
 10
824.836
 11
821.336
 20
-200.7
 21
-204.2
  0
LINE
  8
COSTRUZIONI
 10
821.159
 11
824.659
 20
-204.2
 21
-200.7
  0
LINE
  8
COSTRUZIONI
 10
824.129
 11
820.629
 20
-200.7
 21
-204.2
  0
LINE
  8
COSTRUZIONI
 10
820.452
 11
823.952
 20
-204.2
 21
-200.7
  0
LINE
  8
COSTRUZIONI
 10
823.422
 11
819.922
 20
-200.7
 21
-204.2
  0
LINE
  8
COSTRUZIONI
 10
819.745
 11
823.245
 20
-204.2
 21
-200.7
  0
LINE
  8
COSTRUZIONI
 10
822.715
 11
819.215
 20
-200.7
 21
-204.2
  0
LINE
  8
COSTRUZIONI
 10
819.038
 11
822.538
 20
-204.2
 21
-200.7
  0
LINE
  8
COSTRUZIONI
 10
822.008
 11
818.508
 20
-200.7
 21
-204.2
  0
LINE
  8
COSTRUZIONI
 10
818.331
 11
821.831
 20
-204.2
 21
-200.7
  0
LINE
  8
COSTRUZIONI
 10
821.301
 11
817.801
 20
-200.7
 21
-204.2
  0
LINE
  8
COSTRUZIONI
 10
817.624
 11
821.124
 20
-204.2
 21
-200.7
  0
LINE
  8
COSTRUZIONI
 10
820.593
 11
817.093
 20
-200.7
 21
-204.2
  0
LINE
  8
COSTRUZIONI
 10
816.917
 11
820.417
 20
-204.2
 21
-200.7
  0
LINE
  8
COSTRUZIONI
 10
819.92
 11
816.386
 20
-200.667
 21
-204.2
  0
LINE
  8
COSTRUZIONI
 10
816.21
 11
819.793
 20
-204.2
 21
-200.616
  0
LINE
  8
COSTRUZIONI
 10
819.409
 11
815.679
 20
-200.47
 21
-204.2
  0
LINE
  8
COSTRUZIONI
 10
815.502
 11
819.278
 20
-204.2
 21
-200.424
  0
LINE
  8
COSTRUZIONI
 10
818.88
 11
814.972
 20
-200.292
 21
-204.2
  0
LINE
  8
COSTRUZIONI
 10
814.795
 11
818.744
 20
-204.2
 21
-200.251
  0
LINE
  8
COSTRUZIONI
 10
818.331
 11
814.265
 20
-200.134
 21
-204.2
  0
LINE
  8
COSTRUZIONI
 10
814.088
 11
818.191
 20
-204.2
 21
-200.098
  0
LINE
  8
COSTRUZIONI
 10
817.761
 11
813.558
 20
-199.997
 21
-204.2
  0
LINE
  8
COSTRUZIONI
 10
813.381
 11
817.615
 20
-204.2
 21
-199.966
  0
LINE
  8
COSTRUZIONI
 10
817.169
 11
812.851
 20
-199.882
 21
-204.2
  0
LINE
  8
COSTRUZIONI
 10
812.674
 11
817.017
 20
-204.2
 21
-199.857
  0
LINE
  8
COSTRUZIONI
 10
816.551
 11
812.144
 20
-199.793
 21
-204.2
  0
LINE
  8
COSTRUZIONI
 10
811.967
 11
816.392
 20
-204.2
 21
-199.775
  0
LINE
  8
COSTRUZIONI
 10
815.905
 11
811.437
 20
-199.732
 21
-204.2
  0
LINE
  8
COSTRUZIONI
 10
811.26
 11
815.739
 20
-204.2
 21
-199.721
  0
LINE
  8
COSTRUZIONI
 10
815.227
 11
810.729
 20
-199.702
 21
-204.2
  0
LINE
  8
COSTRUZIONI
 10
810.553
 11
815.053
 20
-204.2
 21
-199.7
  0
LINE
  8
COSTRUZIONI
 10
814.513
 11
810.022
 20
-199.709
 21
-204.2
  0
LINE
  8
COSTRUZIONI
 10
810.0
 11
814.328
 20
-204.046
 21
-199.717
  0
LINE
  8
COSTRUZIONI
 10
813.756
 11
810.0
 20
-199.76
 21
-203.515
  0
LINE
  8
COSTRUZIONI
 10
810.0
 11
813.558
 20
-203.339
 21
-199.78
  0
LINE
  8
COSTRUZIONI
 10
812.945
 11
810.0
 20
-199.864
 21
-202.808
  0
LINE
  8
COSTRUZIONI
 10
810.0
 11
812.732
 20
-202.631
 21
-199.899
  0
LINE
  8
COSTRUZIONI
 10
812.065
 11
810.0
 20
-200.036
 21
-202.101
  0
LINE
  8
COSTRUZIONI
 10
810.0
 11
811.832
 20
-201.924
 21
-200.092
  0
LINE
  8
COSTRUZIONI
 10
811.093
 11
810.0
 20
-200.301
 21
-201.394
  0
LINE
  8
COSTRUZIONI
 10
810.0
 11
810.83
 20
-201.217
 21
-200.387
  0
ARC
  8
APS_GEOMETRY
 10
810.5
 20
-205.2
 40
1.0
 50
90.0
 51
180.0
  0
LINE
  8
APS_GEOMETRY
 10
853.5
 11
853.5
 20
-217.996
 21
-289.0
  0
LINE
  8
APS_GEOMETRY
 10
853.5
 11
846.8
 20
-289.0
 21
-289.0
  0
LINE
  8
APS_GEOMETRY
 10
846.8
 11
846.8
 20
-289.0
 21
-275.0
  0
LINE
  8
APS_GEOMETRY
 10
846.8
 11
842.5
 20
-275.0
 21
-275.0
  0
LINE
  8
APS_GEOMETRY
 10
842.5
 11
842.5
 20
-275.0
 21
-289.0
  0
LINE
  8
APS_GEOMETRY
 10
842.5
 11
819.5
 20
-289.0
 21
-289.0
  0
ARC
  8
APS_GEOMETRY
 10
819.5
 20
-279.0
 40
10.0
 50
180.0
 51
270.0
  0
LINE
  8
APS_GEOMETRY
 10
809.5
 11
809.5
 20
-279.0
 21
-205.2
  0
LINE
  8
APS_GEOMETRY
 10
820.0
 11
820.0
 20
-200.7
 21
-174.0
  0
ARC
  8
APS_GEOMETRY
 10
823.0
 20
-174.0
 40
3.0
 50
90.0
 51
180.0
  0
LINE
  8
APS_GEOMETRY
 10
823.0
 11
845.0
 20
-171.0
 21
-171.0
  0
LINE
  8
APS_GEOMETRY
 10
845.0
 11
845.0
 20
-171.0
 21
-185.0
  0
LINE
  8
APS_GEOMETRY
 10
845.0
 11
849.3
 20
-185.0
 21
-185.0
  0
LINE
  8
APS_GEOMETRY
 10
849.3
 11
849.3
 20
-185.0
 21
-171.0
  0
LINE
  8
APS_GEOMETRY
 10
849.3
 11
853.5
 20
-171.0
 21
-171.0
  0
LINE
  8
APS_GEOMETRY
 10
853.5
 11
853.5
 20
-171.0
 21
-289.0
  0
ARC
  8
APS_GEOMETRY
 10
728.583
 20
-172.258
 40
11.091
 50
87.847
 51
149.775
  0
ARC
  8
APS_GEOMETRY
 10
710.833
 20
-162.508
 40
9.168
 50
288.145
 51
332.969
  0
ARC
  8
APS_GEOMETRY
 10
714.0
 20
-172.171
 40
1.0
 50
108.145
 51
180.0
  0
LINE
  8
APS_GEOMETRY
 10
713.0
 11
713.0
 20
-172.171
 21
-176.0
  0
ARC
  8
APS_GEOMETRY
 10
714.0
 20
-176.0
 40
1.0
 50
180.0
 51
270.0
  0
LINE
  8
APS_GEOMETRY
 10
714.0
 11
729.0
 20
-177.0
 21
-177.0
  0
LINE
  8
APS_GEOMETRY
 10
814.0
 11
732.0
 20
-201.0
 21
-201.0
  0
LINE
  8
APS_GEOMETRY
 10
732.0
 11
729.0
 20
-201.0
 21
-198.0
  0
LINE
  8
APS_GEOMETRY
 10
729.0
 11
729.0
 20
-198.0
 21
-195.824
  0
ARC
  8
APS_GEOMETRY
 10
728.553
 20
-182.595
 40
13.236
 50
246.328
 51
271.937
  0
ARC
  8
APS_GEOMETRY
 10
727.335
 20
-185.18
 40
10.38
 50
216.587
 51
246.757
  0
ARC
  8
APS_GEOMETRY
 10
711.621
 20
-196.336
 40
8.896
 50
33.957
 51
76.563
  0
ARC
  8
APS_GEOMETRY
 10
713.958
 20
-186.643
 40
1.075
 50
234.187
 51
255.455
  0
ARC
  8
APS_GEOMETRY
 10
713.821
 20
-186.831
 40
0.842
 50
209.278
 51
234.33
  0
ARC
  8
APS_GEOMETRY
 10
713.682
 20
-186.911
 40
0.682
 50
180.238
 51
209.101
  0
LINE
  8
APS_GEOMETRY
 10
713.0
 11
713.0
 20
-186.914
 21
-183.811
  0
ARC
  8
APS_GEOMETRY
 10
713.679
 20
-183.813
 40
0.679
 50
152.614
 51
179.802
  0
ARC
  8
APS_GEOMETRY
 10
713.805
 20
-183.881
 40
0.823
 50
128.537
 51
152.445
  0
ARC
  8
APS_GEOMETRY
 10
713.943
 20
-184.051
 40
1.041
 50
108.227
 51
128.638
  0
ARC
  8
APS_GEOMETRY
 10
713.998
 20
-184.207
 40
1.206
 50
89.909
 51
108.403
  0
LINE
  8
APS_GEOMETRY
 10
714.0
 11
729.0
 20
-183.0
 21
-183.0
  0
LINE
  8
APS_GEOMETRY
 10
729.0
 11
729.0
 20
-183.0
 21
-159.0
  0
LINE
  8
APS_GEOMETRY
 10
729.0
 11
732.0
 20
-159.0
 21
-156.0
  0
LINE
  8
APS_GEOMETRY
 10
732.0
 11
822.0
 20
-156.0
 21
-156.0
  0
ARC
  8
APS_GEOMETRY
 10
822.0
 20
-161.0
 40
5.0
 50
360.0
 51
90.0
  0
LINE
  8
APS_GEOMETRY
 10
827.0
 11
827.0
 20
-161.0
 21
-169.0
  0
ARC
  8
APS_GEOMETRY
 10
825.0
 20
-169.0
 40
2.0
 50
270.0
 51
360.0
  0
LINE
  8
APS_GEOMETRY
 10
825.0
 11
817.0
 20
-171.0
 21
-171.0
  0
LINE
  8
APS_GEOMETRY
 10
817.0
 11
817.0
 20
-171.0
 21
-198.0
  0
ARC
  8
APS_GEOMETRY
 10
814.0
 20
-198.0
 40
3.0
 50
270.0
 51
360.0
  0
LINE
  8
COSTRUZIONI
 10
726.0
 11
726.0
 20
-180.0
 21
-177.0
  0
LINE
  8
COSTRUZIONI
 10
726.0
 11
699.92
 20
-177.0
 21
-177.0
  0
ARC
  8
COSTRUZIONI
 10
699.784
 20
-149.516
 40
27.485
 50
247.667
 51
270.285
  0
ARC
  8
COSTRUZIONI
 10
678.957
 20
-200.132
 40
27.248
 50
67.602
 51
88.17
  0
LINE
  8
COSTRUZIONI
 10
679.828
 11
670.439
 20
-172.897
 21
-172.553
  0
ARC
  8
COSTRUZIONI
 10
670.512
 20
-170.554
 40
2.0
 50
200.0
 51
267.899
  0
LINE
  8
COSTRUZIONI
 10
668.633
 11
668.239
 20
-171.238
 21
-170.158
  0
ARC
  8
COSTRUZIONI
 10
667.3
 20
-170.5
 40
1.0
 50
20.0
 51
90.0
  0
LINE
  8
COSTRUZIONI
 10
667.3
 11
666.0
 20
-169.5
 21
-169.5
  0
LINE
  8
COSTRUZIONI
 10
726.0
 11
726.0
 20
-180.0
 21
-183.0
  0
LINE
  8
COSTRUZIONI
 10
726.0
 11
699.92
 20
-183.0
 21
-183.0
  0
ARC
  8
COSTRUZIONI
 10
699.784
 20
-210.484
 40
27.485
 50
89.715
 51
112.333
  0
ARC
  8
COSTRUZIONI
 10
678.957
 20
-159.869
 40
27.248
 50
271.83
 51
292.398
  0
LINE
  8
COSTRUZIONI
 10
679.828
 11
670.439
 20
-187.103
 21
-187.447
  0
ARC
  8
COSTRUZIONI
 10
670.512
 20
-189.446
 40
2.0
 50
92.101
 51
160.0
  0
LINE
  8
COSTRUZIONI
 10
668.633
 11
668.239
 20
-188.762
 21
-189.842
  0
ARC
  8
COSTRUZIONI
 10
667.3
 20
-189.5
 40
1.0
 50
270.0
 51
340.0
  0
LINE
  8
COSTRUZIONI
 10
667.3
 11
666.0
 20
-190.5
 21
-190.5
  0
LINE
  8
COSTRUZIONI
 10
855.0
 11
855.0
 20
-171.0
 21
-289.0
  0
LINE
  8
COSTRUZIONI
 10
875.0
 11
875.0
 20
-171.0
 21
-289.0
  0
LINE
  8
COSTRUZIONI
 10
855.0
 11
990.043
 20
-171.0
 21
-171.0
  0
LINE
  8
COSTRUZIONI
 10
855.0
 11
990.043
 20
-289.0
 21
-289.0
  0
LINE
  8
COSTRUZIONI
 10
875.0
 11
855.0
 20
-289.0
 21
-171.0
  0
LINE
  8
COSTRUZIONI
 10
875.0
 11
855.0
 20
-171.0
 21
-289.0
  0
LINE
  8
COSTRUZIONI
 10
161.0
 11
666.0
 20
-169.5
 21
-169.5
  0
LINE
  8
COSTRUZIONI
 10
161.0
 11
666.0
 20
-190.5
 21
-190.5
  0
LINE
  8
QUOTATURA
 10
17.5
 11
285.582
 20
-250.583
 21
-250.583
  0
LINE
  8
QUOTATURA
 10
541.418
 11
809.5
 20
-250.583
 21
-250.583
  0
LINE
  8
QUOTATURA
 10
37.5
 11
17.5
 20
-253.917
 21
-250.583
  0
LINE
  8
QUOTATURA
 10
17.5
 11
37.5
 20
-250.583
 21
-247.249
  0
LINE
  8
QUOTATURA
 10
37.5
 11
37.5
 20
-247.249
 21
-253.917
  0
LINE
  8
QUOTATURA
 10
789.5
 11
809.5
 20
-247.249
 21
-250.583
  0
LINE
  8
QUOTATURA
 10
809.5
 11
789.5
 20
-250.583
 21
-253.917
  0
LINE
  8
QUOTATURA
 10
789.5
 11
789.5
 20
-253.917
 21
-247.249
  0
LINE
  8
QUOTATURA
 10
-26.5
 11
-26.5
 20
-299.0
 21
-370.597
  0
LINE
  8
QUOTATURA
 10
853.5
 11
853.5
 20
-299.0
 21
-370.597
  0
LINE
  8
QUOTATURA
 10
-26.5
 11
249.21
 20
-360.597
 21
-360.597
  0
LINE
  8
QUOTATURA
 10
577.79
 11
853.5
 20
-360.597
 21
-360.597
  0
LINE
  8
QUOTATURA
 10
-6.5
 11
-26.5
 20
-363.931
 21
-360.597
  0
LINE
  8
QUOTATURA
 10
-26.5
 11
-6.5
 20
-360.597
 21
-357.263
  0
LINE
  8
QUOTATURA
 10
-6.5
 11
-6.5
 20
-357.263
 21
-363.931
  0
LINE
  8
QUOTATURA
 10
833.5
 11
853.5
 20
-357.263
 21
-360.597
  0
LINE
  8
QUOTATURA
 10
853.5
 11
833.5
 20
-360.597
 21
-363.931
  0
LINE
  8
QUOTATURA
 10
833.5
 11
833.5
 20
-363.931
 21
-357.263
  0
LINE
  8
APS_GEOMETRY
 10
-81.0
 11
-26.5
 20
-168.0
 21
-168.0
  0
LINE
  8
APS_GEOMETRY
 10
-26.5
 11
-26.5
 20
-168.0
 21
-171.0
  0
LINE
  8
APS_GEOMETRY
 10
-26.5
 11
-22.0
 20
-171.0
 21
-171.0
  0
LINE
  8
APS_GEOMETRY
 10
-22.0
 11
-22.0
 20
-171.0
 21
-181.5
  0
LINE
  8
APS_GEOMETRY
 10
-22.0
 11
-20.5
 20
-181.5
 21
-183.0
  0
LINE
  8
APS_GEOMETRY
 10
-20.5
 11
-18.0
 20
-183.0
 21
-183.0
  0
LINE
  8
APS_GEOMETRY
 10
-18.0
 11
-18.0
 20
-183.0
 21
-165.0
  0
ARC
  8
APS_GEOMETRY
 10
-22.0
 20
-165.0
 40
4.0
 50
0.0
 51
90.0
  0
LINE
  8
APS_GEOMETRY
 10
-22.0
 11
-83.0
 20
-161.0
 21
-161.0
  0
ARC
  8
APS_GEOMETRY
 10
-83.0
 20
-165.0
 40
4.0
 50
90.0
 51
180.0
  0
LINE
  8
APS_GEOMETRY
 10
-87.0
 11
-87.0
 20
-165.0
 21
-171.0
  0
LINE
  8
APS_GEOMETRY
 10
-87.0
 11
-81.0
 20
-171.0
 21
-171.0
  0
LINE
  8
APS_GEOMETRY
 10
-81.0
 11
-81.0
 20
-171.0
 21
-168.0
  0
LINE
  8
APS_GEOMETRY
 10
-78.5
 11
-24.0
 20
-292.0
 21
-292.0
  0
LINE
  8
APS_GEOMETRY
 10
-24.0
 11
-24.0
 20
-292.0
 21
-289.0
  0
LINE
  8
APS_GEOMETRY
 10
-24.0
 11
-19.5
 20
-289.0
 21
-289.0
  0
LINE
  8
APS_GEOMETRY
 10
-19.5
 11
-19.5
 20
-289.0
 21
-278.5
  0
LINE
  8
APS_GEOMETRY
 10
-19.5
 11
-18.0
 20
-278.5
 21
-277.0
  0
LINE
  8
APS_GEOMETRY
 10
-18.0
 11
-15.5
 20
-277.0
 21
-277.0
  0
LINE
  8
APS_GEOMETRY
 10
-15.5
 11
-15.5
 20
-277.0
 21
-295.0
  0
ARC
  8
APS_GEOMETRY
 10
-19.5
 20
-295.0
 40
4.0
 50
270.0
 51
360.0
  0
LINE
  8
APS_GEOMETRY
 10
-19.5
 11
-80.5
 20
-299.0
 21
-299.0
  0
ARC
  8
APS_GEOMETRY
 10
-80.5
 20
-295.0
 40
4.0
 50
180.0
 51
270.0
  0
LINE
  8
APS_GEOMETRY
 10
-84.5
 11
-84.5
 20
-295.0
 21
-289.0
  0
LINE
  8
APS_GEOMETRY
 10
-84.5
 11
-78.5
 20
-289.0
 21
-289.0
  0
LINE
  8
APS_GEOMETRY
 10
-78.5
 11
-78.5
 20
-289.0
 21
-292.0
  0
LINE
  8
APS_GEOMETRY
 10
908.0
 11
853.5
 20
-168.0
 21
-168.0
  0
LINE
  8
APS_GEOMETRY
 10
853.5
 11
853.5
 20
-168.0
 21
-171.0
  0
LINE
  8
APS_GEOMETRY
 10
853.5
 11
849.0
 20
-171.0
 21
-171.0
  0
LINE
  8
APS_GEOMETRY
 10
849.0
 11
849.0
 20
-171.0
 21
-181.5
  0
LINE
  8
APS_GEOMETRY
 10
849.0
 11
847.5
 20
-181.5
 21
-183.0
  0
LINE
  8
APS_GEOMETRY
 10
847.5
 11
845.0
 20
-183.0
 21
-183.0
  0
LINE
  8
APS_GEOMETRY
 10
845.0
 11
845.0
 20
-183.0
 21
-165.0
  0
ARC
  8
APS_GEOMETRY
 10
849.0
 20
-165.0
 40
4.0
 50
90.0
 51
180.0
  0
LINE
  8
APS_GEOMETRY
 10
849.0
 11
910.0
 20
-161.0
 21
-161.0
  0
ARC
  8
APS_GEOMETRY
 10
910.0
 20
-165.0
 40
4.0
 50
360.0
 51
90.0
  0
LINE
  8
APS_GEOMETRY
 10
914.0
 11
914.0
 20
-165.0
 21
-171.0
  0
LINE
  8
APS_GEOMETRY
 10
914.0
 11
908.0
 20
-171.0
 21
-171.0
  0
LINE
  8
APS_GEOMETRY
 10
908.0
 11
908.0
 20
-171.0
 21
-168.0
  0
LINE
  8
APS_GEOMETRY
 10
905.5
 11
851.0
 20
-292.0
 21
-292.0
  0
LINE
  8
APS_GEOMETRY
 10
851.0
 11
851.0
 20
-292.0
 21
-289.0
  0
LINE
  8
APS_GEOMETRY
 10
851.0
 11
846.5
 20
-289.0
 21
-289.0
  0
LINE
  8
APS_GEOMETRY
 10
846.5
 11
846.5
 20
-289.0
 21
-278.5
  0
LINE
  8
APS_GEOMETRY
 10
846.5
 11
845.0
 20
-278.5
 21
-277.0
  0
LINE
  8
APS_GEOMETRY
 10
845.0
 11
842.5
 20
-277.0
 21
-277.0
  0
LINE
  8
APS_GEOMETRY
 10
842.5
 11
842.5
 20
-277.0
 21
-295.0
  0
ARC
  8
APS_GEOMETRY
 10
846.5
 20
-295.0
 40
4.0
 50
180.0
 51
270.0
  0
LINE
  8
APS_GEOMETRY
 10
846.5
 11
907.5
 20
-299.0
 21
-299.0
  0
ARC
  8
APS_GEOMETRY
 10
907.5
 20
-295.0
 40
4.0
 50
270.0
 51
0.0
  0
LINE
  8
APS_GEOMETRY
 10
911.5
 11
911.5
 20
-295.0
 21
-289.0
  0
LINE
  8
APS_GEOMETRY
 10
911.5
 11
905.5
 20
-289.0
 21
-289.0
  0
LINE
  8
APS_GEOMETRY
 10
905.5
 11
905.5
 20
-289.0
 21
-292.0
  0
LINE
  8
APS_GEOMETRY
 10
-284.0
 11
-284.0
 20
2190.0
 21
2135.5
  0
LINE
  8
APS_GEOMETRY
 10
-284.0
 11
-287.0
 20
2135.5
 21
2135.5
  0
LINE
  8
APS_GEOMETRY
 10
-287.0
 11
-287.0
 20
2135.5
 21
2131.0
  0
LINE
  8
APS_GEOMETRY
 10
-287.0
 11
-297.5
 20
2131.0
 21
2131.0
  0
LINE
  8
APS_GEOMETRY
 10
-297.5
 11
-299.0
 20
2131.0
 21
2129.5
  0
LINE
  8
APS_GEOMETRY
 10
-299.0
 11
-299.0
 20
2129.5
 21
2127.0
  0
LINE
  8
APS_GEOMETRY
 10
-299.0
 11
-281.0
 20
2127.0
 21
2127.0
  0
ARC
  8
APS_GEOMETRY
 10
-281.0
 20
2131.0
 40
4.0
 50
270.0
 51
360.0
  0
LINE
  8
APS_GEOMETRY
 10
-277.0
 11
-277.0
 20
2131.0
 21
2192.0
  0
ARC
  8
APS_GEOMETRY
 10
-281.0
 20
2192.0
 40
4.0
 50
360.0
 51
90.0
  0
LINE
  8
APS_GEOMETRY
 10
-281.0
 11
-287.0
 20
2196.0
 21
2196.0
  0
LINE
  8
APS_GEOMETRY
 10
-287.0
 11
-287.0
 20
2196.0
 21
2190.0
  0
LINE
  8
APS_GEOMETRY
 10
-287.0
 11
-284.0
 20
2190.0
 21
2190.0
  0
LINE
  8
APS_GEOMETRY
 10
-408.0
 11
-408.0
 20
2187.5
 21
2133.0
  0
LINE
  8
APS_GEOMETRY
 10
-408.0
 11
-405.0
 20
2133.0
 21
2133.0
  0
LINE
  8
APS_GEOMETRY
 10
-405.0
 11
-405.0
 20
2133.0
 21
2128.5
  0
LINE
  8
APS_GEOMETRY
 10
-405.0
 11
-394.5
 20
2128.5
 21
2128.5
  0
LINE
  8
APS_GEOMETRY
 10
-394.5
 11
-393.0
 20
2128.5
 21
2127.0
  0
LINE
  8
APS_GEOMETRY
 10
-393.0
 11
-393.0
 20
2127.0
 21
2124.5
  0
LINE
  8
APS_GEOMETRY
 10
-393.0
 11
-411.0
 20
2124.5
 21
2124.5
  0
ARC
  8
APS_GEOMETRY
 10
-411.0
 20
2128.5
 40
4.0
 50
180.0
 51
270.0
  0
LINE
  8
APS_GEOMETRY
 10
-415.0
 11
-415.0
 20
2128.5
 21
2189.5
  0
ARC
  8
APS_GEOMETRY
 10
-411.0
 20
2189.5
 40
4.0
 50
90.0
 51
180.0
  0
LINE
  8
APS_GEOMETRY
 10
-411.0
 11
-405.0
 20
2193.5
 21
2193.5
  0
LINE
  8
APS_GEOMETRY
 10
-405.0
 11
-405.0
 20
2193.5
 21
2187.5
  0
LINE
  8
APS_GEOMETRY
 10
-405.0
 11
-408.0
 20
2187.5
 21
2187.5
  0
LINE
  8
QUOTATURA
 10
104.0
 11
-232.803
 20
1248.0
 21
1248.0
  0
LINE
  8
QUOTATURA
 10
-10.0
 11
-232.803
 20
0.0
 21
0.0
  0
LINE
  8
QUOTATURA
 10
-222.803
 11
-222.803
 20
1248.0
 21
1075.168
  0
LINE
  8
QUOTATURA
 10
-222.803
 11
-222.803
 20
698.76
 21
0.0
  0
LINE
  8
QUOTATURA
 10
-226.137
 11
-222.803
 20
1228.0
 21
1248.0
  0
LINE
  8
QUOTATURA
 10
-222.803
 11
-219.469
 20
1248.0
 21
1228.0
  0
LINE
  8
QUOTATURA
 10
-219.469
 11
-226.137
 20
1228.0
 21
1228.0
  0
LINE
  8
QUOTATURA
 10
-219.469
 11
-222.803
 20
20.0
 21
0.0
  0
LINE
  8
QUOTATURA
 10
-222.803
 11
-226.137
 20
0.0
 21
20.0
  0
LINE
  8
QUOTATURA
 10
-226.137
 11
-219.469
 20
20.0
 21
20.0
  0
ARC
  8
COSTRUZIONI
 10
-305.5
 20
1090.3
 40
1.0
 50
110.0
 51
180.0
  0
LINE
  8
COSTRUZIONI
 10
-305.842
 11
-304.762
 20
1091.239
 21
1091.633
  0
ARC
  8
COSTRUZIONI
 10
-305.446
 20
1093.512
 40
2.0
 50
290.0
 51
357.899
  0
LINE
  8
COSTRUZIONI
 10
-303.447
 11
-303.103
 20
1093.439
 21
1102.828
  0
ARC
  8
COSTRUZIONI
 10
-275.869
 20
1101.957
 40
27.248
 50
157.602
 51
178.17
  0
ARC
  8
COSTRUZIONI
 10
-326.484
 20
1122.784
 40
27.485
 50
337.667
 51
0.285
  0
LINE
  8
COSTRUZIONI
 10
-299.0
 11
-299.0
 20
1122.92
 21
1149.0
  0
LINE
  8
COSTRUZIONI
 10
-299.0
 11
-293.0
 20
1149.0
 21
1149.0
  0
LINE
  8
COSTRUZIONI
 10
-293.0
 11
-293.0
 20
1149.0
 21
1122.92
  0
ARC
  8
COSTRUZIONI
 10
-265.516
 20
1122.784
 40
27.485
 50
179.715
 51
202.333
  0
ARC
  8
COSTRUZIONI
 10
-316.132
 20
1101.957
 40
27.248
 50
1.83
 51
22.398
  0
LINE
  8
COSTRUZIONI
 10
-288.897
 11
-288.553
 20
1102.828
 21
1093.439
  0
ARC
  8
COSTRUZIONI
 10
-286.554
 20
1093.512
 40
2.0
 50
182.101
 51
250.0
  0
LINE
  8
COSTRUZIONI
 10
-287.238
 11
-286.158
 20
1091.633
 21
1091.239
  0
ARC
  8
COSTRUZIONI
 10
-286.5
 20
1090.3
 40
1.0
 50
360.0
 51
70.0
  0
LINE
  8
COSTRUZIONI
 10
-285.5
 11
-285.5
 20
1090.3
 21
931.7
  0
ARC
  8
COSTRUZIONI
 10
-286.5
 20
931.7
 40
1.0
 50
290.0
 51
360.0
  0
LINE
  8
COSTRUZIONI
 10
-286.158
 11
-287.238
 20
930.761
 21
930.367
  0
ARC
  8
COSTRUZIONI
 10
-286.554
 20
928.488
 40
2.0
 50
110.0
 51
177.899
  0
LINE
  8
COSTRUZIONI
 10
-288.553
 11
-288.897
 20
928.561
 21
919.172
  0
ARC
  8
COSTRUZIONI
 10
-316.132
 20
920.043
 40
27.248
 50
337.602
 51
358.17
  0
ARC
  8
COSTRUZIONI
 10
-265.516
 20
899.216
 40
27.485
 50
157.667
 51
180.285
  0
LINE
  8
COSTRUZIONI
 10
-293.0
 11
-293.0
 20
899.08
 21
873.0
  0
LINE
  8
COSTRUZIONI
 10
-293.0
 11
-299.0
 20
873.0
 21
873.0
  0
LINE
  8
COSTRUZIONI
 10
-299.0
 11
-299.0
 20
873.0
 21
899.08
  0
ARC
  8
COSTRUZIONI
 10
-326.484
 20
899.216
 40
27.485
 50
359.715
 51
22.333
  0
ARC
  8
COSTRUZIONI
 10
-275.869
 20
920.043
 40
27.248
 50
181.83
 51
202.398
  0
LINE
  8
COSTRUZIONI
 10
-303.103
 11
-303.447
 20
919.172
 21
928.561
  0
ARC
  8
COSTRUZIONI
 10
-305.446
 20
928.488
 40
2.0
 50
2.101
 51
70.0
  0
LINE
  8
COSTRUZIONI
 10
-304.762
 11
-305.842
 20
930.367
 21
930.761
  0
ARC
  8
COSTRUZIONI
 10
-305.5
 20
931.7
 40
1.0
 50
180.0
 51
250.0
  0
LINE
  8
COSTRUZIONI
 10
-306.5
 11
-306.5
 20
931.7
 21
1090.3
  0
LINE
  8
APS_GEOMETRY
 10
713.0
 11
114.0
 20
1995.0
 21
1995.0
  0
LINE
  8
APS_GEOMETRY
 10
114.0
 11
114.0
 20
1995.0
 21
1248.0
  0
LINE
  8
APS_GEOMETRY
 10
114.0
 11
713.0
 20
1248.0
 21
1248.0
  0
LINE
  8
APS_GEOMETRY
 10
713.0
 11
713.0
 20
1248.0
 21
1995.0
  0
LINE
  8
APS_GEOMETRY
 10
713.0
 11
114.0
 20
886.0
 21
886.0
  0
LINE
  8
APS_GEOMETRY
 10
114.0
 11
114.0
 20
886.0
 21
1136.0
  0
LINE
  8
APS_GEOMETRY
 10
114.0
 11
713.0
 20
1136.0
 21
1136.0
  0
LINE
  8
APS_GEOMETRY
 10
172.0
 11
172.0
 20
1937.0
 21
1306.0
  0
LINE
  8
APS_GEOMETRY
 10
172.0
 11
655.0
 20
1306.0
 21
1306.0
  0
LINE
  8
APS_GEOMETRY
 10
655.0
 11
655.0
 20
1306.0
 21
1937.0
  0
LINE
  8
APS_GEOMETRY
 10
655.0
 11
172.0
 20
1937.0
 21
1937.0
  0
LINE
  8
APS_GEOMETRY
 10
172.0
 11
172.0
 20
1078.0
 21
944.0
  0
LINE
  8
APS_GEOMETRY
 10
172.0
 11
655.0
 20
944.0
 21
944.0
  0
LINE
  8
APS_GEOMETRY
 10
655.0
 11
655.0
 20
944.0
 21
1078.0
  0
LINE
  8
APS_GEOMETRY
 10
655.0
 11
172.0
 20
1078.0
 21
1078.0
  0
ARC
  8
APS_GEOMETRY
 10
-305.5
 20
1949.3
 40
1.0
 50
110.0
 51
180.0
  0
LINE
  8
APS_GEOMETRY
 10
-305.842
 11
-304.762
 20
1950.24
 21
1950.633
  0
ARC
  8
APS_GEOMETRY
 10
-305.446
 20
1952.512
 40
2.0
 50
290.0
 51
357.899
  0
LINE
  8
APS_GEOMETRY
 10
-303.447
 11
-303.103
 20
1952.439
 21
1961.828
  0
ARC
  8
APS_GEOMETRY
 10
-275.869
 20
1960.957
 40
27.248
 50
157.602
 51
178.17
  0
ARC
  8
APS_GEOMETRY
 10
-326.484
 20
1981.784
 40
27.485
 50
337.667
 51
0.285
  0
LINE
  8
APS_GEOMETRY
 10
-299.0
 11
-299.0
 20
1981.92
 21
2008.0
  0
LINE
  8
APS_GEOMETRY
 10
-299.0
 11
-293.0
 20
2008.0
 21
2008.0
  0
LINE
  8
APS_GEOMETRY
 10
-293.0
 11
-293.0
 20
2008.0
 21
1981.92
  0
ARC
  8
APS_GEOMETRY
 10
-265.516
 20
1981.784
 40
27.485
 50
179.715
 51
202.333
  0
ARC
  8
APS_GEOMETRY
 10
-316.132
 20
1960.957
 40
27.248
 50
1.83
 51
22.398
  0
LINE
  8
APS_GEOMETRY
 10
-288.897
 11
-288.553
 20
1961.828
 21
1952.439
  0
ARC
  8
APS_GEOMETRY
 10
-286.554
 20
1952.512
 40
2.0
 50
182.101
 51
250.0
  0
LINE
  8
APS_GEOMETRY
 10
-287.238
 11
-286.158
 20
1950.633
 21
1950.24
  0
ARC
  8
APS_GEOMETRY
 10
-286.5
 20
1949.3
 40
1.0
 50
360.0
 51
70.0
  0
LINE
  8
APS_GEOMETRY
 10
-285.5
 11
-285.5
 20
1949.3
 21
1293.7
  0
ARC
  8
APS_GEOMETRY
 10
-286.5
 20
1293.7
 40
1.0
 50
290.0
 51
360.0
  0
LINE
  8
APS_GEOMETRY
 10
-286.158
 11
-287.238
 20
1292.761
 21
1292.367
  0
ARC
  8
APS_GEOMETRY
 10
-286.554
 20
1290.488
 40
2.0
 50
110.0
 51
177.899
  0
LINE
  8
APS_GEOMETRY
 10
-288.553
 11
-288.897
 20
1290.561
 21
1281.172
  0
ARC
  8
APS_GEOMETRY
 10
-316.132
 20
1282.043
 40
27.248
 50
337.602
 51
358.17
  0
ARC
  8
APS_GEOMETRY
 10
-265.516
 20
1261.216
 40
27.485
 50
157.667
 51
180.285
  0
LINE
  8
APS_GEOMETRY
 10
-293.0
 11
-293.0
 20
1261.08
 21
1235.0
  0
LINE
  8
APS_GEOMETRY
 10
-293.0
 11
-299.0
 20
1235.0
 21
1235.0
  0
LINE
  8
APS_GEOMETRY
 10
-299.0
 11
-299.0
 20
1235.0
 21
1261.08
  0
ARC
  8
APS_GEOMETRY
 10
-326.484
 20
1261.216
 40
27.485
 50
359.715
 51
22.333
  0
ARC
  8
APS_GEOMETRY
 10
-275.869
 20
1282.043
 40
27.248
 50
181.83
 51
202.398
  0
LINE
  8
APS_GEOMETRY
 10
-303.103
 11
-303.447
 20
1281.172
 21
1290.561
  0
ARC
  8
APS_GEOMETRY
 10
-305.446
 20
1290.488
 40
2.0
 50
2.101
 51
70.0
  0
LINE
  8
APS_GEOMETRY
 10
-304.762
 11
-305.842
 20
1292.367
 21
1292.761
  0
ARC
  8
APS_GEOMETRY
 10
-305.5
 20
1293.7
 40
1.0
 50
180.0
 51
250.0
  0
LINE
  8
APS_GEOMETRY
 10
-306.5
 11
-306.5
 20
1293.7
 21
1949.3
  0
LINE
  8
APS_GEOMETRY
 10
-652.158
 11
-643.541
 20
-449.596
 21
-449.596
  0
ARC
  8
APS_GEOMETRY
 10
-643.976
 20
-437.249
 40
12.355
 50
272.021
 51
278.44
  0
ARC
  8
APS_GEOMETRY
 10
-643.49
 20
-440.527
 40
9.042
 50
278.44
 51
285.945
  0
ARC
  8
APS_GEOMETRY
 10
-639.831
 20
-453.625
 40
4.559
 50
98.584
 51
104.931
  0
ARC
  8
APS_GEOMETRY
 10
-640.139
 20
-451.585
 40
2.495
 50
90.0
 51
98.584
  0
ARC
  8
APS_GEOMETRY
 10
-640.139
 20
-450.965
 40
1.876
 50
52.871
 51
90.0
  0
ARC
  8
APS_GEOMETRY
 10
-642.684
 20
-454.326
 40
6.091
 50
32.518
 51
52.871
  0
ARC
  8
APS_GEOMETRY
 10
-644.699
 20
-455.611
 40
8.481
 50
17.209
 51
32.518
  0
ARC
  8
APS_GEOMETRY
 10
-643.019
 20
-455.091
 40
6.723
 50
360.0
 51
17.209
  0
ARC
  8
APS_GEOMETRY
 10
-639.655
 20
-455.091
 40
3.359
 50
337.348
 51
360.0
  0
ARC
  8
APS_GEOMETRY
 10
-638.305
 20
-455.654
 40
1.896
 50
307.042
 51
337.348
  0
ARC
  8
APS_GEOMETRY
 10
-638.54
 20
-455.332
 40
2.295
 50
287.186
 51
306.87
  0
ARC
  8
APS_GEOMETRY
 10
-638.749
 20
-454.655
 40
3.003
 50
270.0
 51
287.186
  0
ARC
  8
APS_GEOMETRY
 10
-638.749
 20
-454.961
 40
2.697
 50
252.221
 51
270.0
  0
ARC
  8
APS_GEOMETRY
 10
-638.875
 20
-455.353
 40
2.286
 50
232.896
 51
252.221
  0
ARC
  8
APS_GEOMETRY
 10
-638.39
 20
-454.711
 40
3.09
 50
218.3
 51
232.896
  0
ARC
  8
APS_GEOMETRY
 10
-634.6
 20
-451.718
 40
7.92
 50
209.197
 51
218.3
  0
ARC
  8
APS_GEOMETRY
 10
-653.877
 20
-462.162
 40
14.006
 50
28.025
 51
32.699
  0
ARC
  8
APS_GEOMETRY
 10
-643.798
 20
-455.692
 40
2.03
 50
32.699
 51
45.0
  0
ARC
  8
APS_GEOMETRY
 10
-643.111
 20
-455.005
 40
1.058
 50
45.0
 51
67.557
  0
ARC
  8
APS_GEOMETRY
 10
-643.115
 20
-455.015
 40
1.069
 50
67.557
 51
90.0
  0
ARC
  8
APS_GEOMETRY
 10
-643.115
 20
-454.93
 40
0.984
 50
90.0
 51
120.801
  0
ARC
  8
APS_GEOMETRY
 10
-643.149
 20
-454.875
 40
0.919
 50
120.801
 51
152.7
  0
ARC
  8
APS_GEOMETRY
 10
-642.419
 20
-455.251
 40
1.74
 50
152.7
 51
171.085
  0
ARC
  8
APS_GEOMETRY
 10
-636.875
 20
-456.121
 40
7.353
 50
171.085
 51
180.0
  0
LINE
  8
APS_GEOMETRY
 10
-644.227
 11
-644.227
 20
-456.121
 21
-465.278
  0
ARC
  8
APS_GEOMETRY
 10
-634.514
 20
-465.278
 40
9.714
 50
180.0
 51
188.194
  0
ARC
  8
APS_GEOMETRY
 10
-641.768
 20
-466.322
 40
2.385
 50
188.194
 51
204.775
  0
ARC
  8
APS_GEOMETRY
 10
-642.472
 20
-466.648
 40
1.609
 50
204.775
 51
228.576
  0
ARC
  8
APS_GEOMETRY
 10
-641.811
 20
-465.898
 40
2.608
 50
228.576
 51
247.218
  0
ARC
  8
APS_GEOMETRY
 10
-645.646
 20
-474.934
 40
7.208
 50
59.381
 51
66.93
  0
ARC
  8
APS_GEOMETRY
 10
-642.815
 20
-470.152
 40
1.65
 50
43.568
 51
59.381
  0
ARC
  8
APS_GEOMETRY
 10
-642.362
 20
-469.721
 40
1.025
 50
19.041
 51
43.568
  0
ARC
  8
APS_GEOMETRY
 10
-642.991
 20
-469.938
 40
1.691
 50
360.0
 51
19.041
  0
ARC
  8
APS_GEOMETRY
 10
-642.674
 20
-469.938
 40
1.374
 50
317.66
 51
360.0
  0
ARC
  8
APS_GEOMETRY
 10
-643.935
 20
-468.789
 40
3.08
 50
289.747
 51
317.66
  0
ARC
  8
APS_GEOMETRY
 10
-644.991
 20
-465.846
 40
6.206
 50
281.964
 51
289.747
  0
ARC
  8
APS_GEOMETRY
 10
-646.455
 20
-458.94
 40
13.265
 50
276.643
 51
281.964
  0
ARC
  8
APS_GEOMETRY
 10
-647.071
 20
-453.653
 40
18.589
 50
272.836
 51
276.643
  0
ARC
  8
APS_GEOMETRY
 10
-647.808
 20
-438.765
 40
33.495
 50
270.0
 51
272.836
  0
ARC
  8
APS_GEOMETRY
 10
-647.808
 20
-429.54
 40
42.72
 50
267.283
 51
270.0
  0
ARC
  8
APS_GEOMETRY
 10
-648.705
 20
-448.441
 40
23.797
 50
263.643
 51
267.283
  0
ARC
  8
APS_GEOMETRY
 10
-649.456
 20
-455.183
 40
17.014
 50
258.563
 51
263.643
  0
ARC
  8
APS_GEOMETRY
 10
-651.251
 20
-464.053
 40
7.964
 50
251.136
 51
258.563
  0
ARC
  8
APS_GEOMETRY
 10
-652.853
 20
-468.699
 40
3.05
 50
222.558
 51
251.395
  0
ARC
  8
APS_GEOMETRY
 10
-654.042
 20
-469.791
 40
1.436
 50
180.0
 51
222.558
  0
ARC
  8
APS_GEOMETRY
 10
-654.281
 20
-469.791
 40
1.196
 50
150.642
 51
180.0
  0
ARC
  8
APS_GEOMETRY
 10
-654.186
 20
-469.845
 40
1.306
 50
122.574
 51
150.642
  0
ARC
  8
APS_GEOMETRY
 10
-654.439
 20
-469.554
 40
0.926
 50
108.677
 51
119.055
  0
ARC
  8
APS_GEOMETRY
 10
-642.881
 20
-503.745
 40
37.018
 50
107.038
 51
108.677
  0
ARC
  8
APS_GEOMETRY
 10
-654.158
 20
-466.864
 40
1.549
 50
286.144
 51
308.66
  0
ARC
  8
APS_GEOMETRY
 10
-653.905
 20
-467.181
 40
1.143
 50
308.66
 51
334.933
  0
ARC
  8
APS_GEOMETRY
 10
-654.937
 20
-466.698
 40
2.283
 50
334.933
 51
348.829
  0
ARC
  8
APS_GEOMETRY
 10
-667.85
 20
-464.148
 40
15.445
 50
348.829
 51
354.161
  0
ARC
  8
APS_GEOMETRY
 10
-676.578
 20
-463.248
 40
24.219
 50
354.144
 51
355.66
  0
ARC
  8
APS_GEOMETRY
 10
-715.266
 20
-460.312
 40
63.019
 50
355.66
 51
356.6
  0
ARC
  8
APS_GEOMETRY
 10
-744.841
 20
-458.555
 40
92.646
 50
356.6
 51
357.24
  0
ARC
  8
APS_GEOMETRY
 10
-828.753
 20
-454.51
 40
176.656
 50
357.24
 51
357.703
  0
ARC
  8
APS_GEOMETRY
 10
-820.493
 20
-454.841
 40
168.389
 50
357.703
 51
358.674
  0
ARC
  8
APS_GEOMETRY
 10
-742.577
 20
-456.644
 40
90.452
 50
358.674
 51
0.0
  0
ARC
  8
APS_GEOMETRY
 10
-665.53
 20
-456.644
 40
13.405
 50
360.0
 51
6.242
  0
ARC
  8
APS_GEOMETRY
 10
-654.871
 20
-455.478
 40
2.682
 50
6.242
 51
20.225
  0
ARC
  8
APS_GEOMETRY
 10
-653.393
 20
-454.934
 40
1.107
 50
20.225
 51
50.44
  0
ARC
  8
APS_GEOMETRY
 10
-653.106
 20
-454.586
 40
0.657
 50
50.44
 51
90.0
  0
ARC
  8
APS_GEOMETRY
 10
-653.106
 20
-454.811
 40
0.881
 50
90.0
 51
126.747
  0
ARC
  8
APS_GEOMETRY
 10
-651.861
 20
-456.478
 40
2.962
 50
126.747
 51
146.547
  0
ARC
  8
APS_GEOMETRY
 10
-673.855
 20
-442.022
 40
23.357
 50
324.255
 51
326.701
  0
ARC
  8
APS_GEOMETRY
 10
-664.544
 20
-448.724
 40
11.885
 50
320.826
 51
324.255
  0
ARC
  8
APS_GEOMETRY
 10
-661.5
 20
-451.204
 40
7.959
 50
315.722
 51
320.826
  0
ARC
  8
APS_GEOMETRY
 10
-658.003
 20
-454.614
 40
3.075
 50
307.504
 51
315.722
  0
ARC
  8
APS_GEOMETRY
 10
-658.326
 20
-454.183
 40
3.613
 50
291.306
 51
307.405
  0
ARC
  8
APS_GEOMETRY
 10
-657.767
 20
-455.617
 40
2.073
 50
270.0
 51
291.306
  0
ARC
  8
APS_GEOMETRY
 10
-657.767
 20
-455.751
 40
1.939
 50
245.532
 51
270.0
  0
ARC
  8
APS_GEOMETRY
 10
-657.781
 20
-455.783
 40
1.904
 50
220.833
 51
245.532
  0
ARC
  8
APS_GEOMETRY
 10
-657.585
 20
-455.613
 40
2.164
 50
198.684
 51
220.833
  0
ARC
  8
APS_GEOMETRY
 10
-656.764
 20
-455.336
 40
3.03
 50
180.0
 51
198.684
  0
ARC
  8
APS_GEOMETRY
 10
-654.84
 20
-455.336
 40
4.954
 50
168.408
 51
180.0
  0
ARC
  8
APS_GEOMETRY
 10
-651.664
 20
-455.987
 40
8.196
 50
159.402
 51
168.408
  0
ARC
  8
APS_GEOMETRY
 10
-650.682
 20
-456.356
 40
9.245
 50
151.39
 51
159.402
  0
ARC
  8
APS_GEOMETRY
 10
-650.884
 20
-456.247
 40
9.016
 50
143.276
 51
151.39
  0
ARC
  8
APS_GEOMETRY
 10
-653.408
 20
-454.359
 40
5.863
 50
124.216
 51
143.31
  0
ARC
  8
APS_GEOMETRY
 10
-655.657
 20
-451.052
 40
1.864
 50
90.0
 51
124.216
  0
ARC
  8
APS_GEOMETRY
 10
-655.657
 20
-451.88
 40
2.692
 50
82.725
 51
90.0
  0
ARC
  8
APS_GEOMETRY
 10
-655.868
 20
-453.528
 40
4.353
 50
77.005
 51
82.725
  0
ARC
  8
APS_GEOMETRY
 10
-649.443
 20
-422.554
 40
27.28
 50
258.486
 51
260.378
  0
ARC
  8
APS_GEOMETRY
 10
-652.195
 20
-438.787
 40
10.816
 50
260.378
 51
263.382
  0
ARC
  8
APS_GEOMETRY
 10
-652.431
 20
-440.816
 40
8.774
 50
263.382
 51
267.084
  0
ARC
  8
APS_GEOMETRY
 10
-652.158
 20
-435.46
 40
14.137
 50
267.084
 51
270.0
  0
ARC
  8
APS_GEOMETRY
 10
-622.294
 20
-462.029
 40
12.891
 50
71.91
 51
90.0
  0
ARC
  8
APS_GEOMETRY
 10
-621.795
 20
-460.501
 40
11.283
 50
52.561
 51
71.91
  0
ARC
  8
APS_GEOMETRY
 10
-621.926
 20
-460.539
 40
11.393
 50
38.846
 51
52.156
  0
ARC
  8
APS_GEOMETRY
 10
-623.712
 20
-461.977
 40
13.686
 50
26.707
 51
38.846
  0
ARC
  8
APS_GEOMETRY
 10
-623.358
 20
-461.688
 40
13.241
 50
13.868
 51
26.278
  0
ARC
  8
APS_GEOMETRY
 10
-620.809
 20
-461.059
 40
10.614
 50
360.0
 51
13.868
  0
ARC
  8
APS_GEOMETRY
 10
-620.643
 20
-461.059
 40
10.449
 50
339.712
 51
360.0
  0
ARC
  8
APS_GEOMETRY
 10
-621.232
 20
-460.842
 40
11.076
 50
320.013
 51
339.712
  0
ARC
  8
APS_GEOMETRY
 10
-621.329
 20
-460.788
 40
11.186
 50
303.344
 51
320.123
  0
ARC
  8
APS_GEOMETRY
 10
-622.477
 20
-459.043
 40
13.274
 50
287.949
 51
303.344
  0
ARC
  8
APS_GEOMETRY
 10
-622.854
 20
-457.736
 40
14.634
 50
279.039
 51
287.776
  0
ARC
  8
APS_GEOMETRY
 10
-622.703
 20
-458.685
 40
13.673
 50
270.0
 51
279.039
  0
ARC
  8
APS_GEOMETRY
 10
-622.703
 20
-459.353
 40
13.005
 50
257.728
 51
270.0
  0
ARC
  8
APS_GEOMETRY
 10
-622.683
 20
-459.259
 40
13.102
 50
245.501
 51
257.728
  0
ARC
  8
APS_GEOMETRY
 10
-623.419
 20
-460.87
 40
11.33
 50
228.665
 51
245.511
  0
ARC
  8
APS_GEOMETRY
 10
-623.664
 20
-461.148
 40
10.959
 50
211.535
 51
228.665
  0
ARC
  8
APS_GEOMETRY
 10
-623.343
 20
-460.913
 40
11.356
 50
195.642
 51
211.701
  0
ARC
  8
APS_GEOMETRY
 10
-622.756
 20
-460.748
 40
11.966
 50
180.0
 51
195.642
  0
ARC
  8
APS_GEOMETRY
 10
-622.63
 20
-460.748
 40
12.091
 50
162.181
 51
180.0
  0
ARC
  8
APS_GEOMETRY
 10
-623.734
 20
-460.394
 40
10.933
 50
143.434
 51
162.181
  0
ARC
  8
APS_GEOMETRY
 10
-623.882
 20
-460.275
 40
10.742
 50
126.384
 51
143.471
  0
ARC
  8
APS_GEOMETRY
 10
-622.865
 20
-461.655
 40
12.457
 50
110.525
 51
126.384
  0
ARC
  8
APS_GEOMETRY
 10
-622.915
 20
-461.28
 40
12.089
 50
99.77
 51
110.925
  0
ARC
  8
APS_GEOMETRY
 10
-622.294
 20
-464.886
 40
15.748
 50
90.0
 51
99.77
  0
ARC
  8
APS_GEOMETRY
 10
-623.848
 20
-456.235
 40
2.404
 50
90.0
 51
119.604
  0
ARC
  8
APS_GEOMETRY
 10
-623.637
 20
-456.606
 40
2.83
 50
119.604
 51
146.842
  0
ARC
  8
APS_GEOMETRY
 10
-623.214
 20
-456.952
 40
3.374
 50
145.84
 51
164.055
  0
ARC
  8
APS_GEOMETRY
 10
-622.234
 20
-457.233
 40
4.394
 50
164.055
 51
180.0
  0
ARC
  8
APS_GEOMETRY
 10
-616.101
 20
-457.233
 40
10.526
 50
180.0
 51
189.977
  0
ARC
  8
APS_GEOMETRY
 10
-606.776
 20
-455.592
 40
19.995
 50
189.977
 51
197.211
  0
ARC
  8
APS_GEOMETRY
 10
-604.736
 20
-454.96
 40
22.131
 50
197.211
 51
203.76
  0
ARC
  8
APS_GEOMETRY
 10
-609.817
 20
-457.197
 40
16.579
 50
203.76
 51
211.329
  0
ARC
  8
APS_GEOMETRY
 10
-620.251
 20
-463.459
 40
4.411
 50
212.32
 51
224.441
  0
ARC
  8
APS_GEOMETRY
 10
-620.679
 20
-463.879
 40
3.812
 50
224.441
 51
237.484
  0
ARC
  8
APS_GEOMETRY
 10
-620.955
 20
-464.312
 40
3.298
 50
237.484
 51
252.416
  0
ARC
  8
APS_GEOMETRY
 10
-621.232
 20
-465.184
 40
2.383
 50
252.416
 51
270.0
  0
ARC
  8
APS_GEOMETRY
 10
-621.232
 20
-464.901
 40
2.666
 50
270.0
 51
294.953
  0
ARC
  8
APS_GEOMETRY
 10
-621.157
 20
-465.062
 40
2.489
 50
294.953
 51
320.793
  0
ARC
  8
APS_GEOMETRY
 10
-621.557
 20
-464.735
 40
3.005
 50
320.793
 51
342.777
  0
ARC
  8
APS_GEOMETRY
 10
-623.341
 20
-464.182
 40
4.873
 50
342.777
 51
0.0
  0
ARC
  8
APS_GEOMETRY
 10
-631.722
 20
-464.182
 40
13.254
 50
0.0
 51
8.499
  0
ARC
  8
APS_GEOMETRY
 10
-637.555
 20
-465.054
 40
19.152
 50
8.499
 51
15.566
  0
ARC
  8
APS_GEOMETRY
 10
-636.854
 20
-464.858
 40
18.424
 50
15.566
 51
22.909
  0
ARC
  8
APS_GEOMETRY
 10
-630.822
 20
-462.309
 40
11.876
 50
22.909
 51
32.057
  0
ARC
  8
APS_GEOMETRY
 10
-626.084
 20
-459.325
 40
6.276
 50
31.921
 51
42.51
  0
ARC
  8
APS_GEOMETRY
 10
-624.783
 20
-458.132
 40
4.511
 50
42.51
 51
55.008
  0
ARC
  8
APS_GEOMETRY
 10
-624.344
 20
-457.504
 40
3.745
 50
55.008
 51
69.88
  0
ARC
  8
APS_GEOMETRY
 10
-623.95
 20
-456.429
 40
2.599
 50
69.88
 51
87.754
  0
ARC
  8
APS_GEOMETRY
 10
-598.084
 20
-457.13
 40
7.992
 50
83.923
 51
90.0
  0
ARC
  8
APS_GEOMETRY
 10
-598.727
 20
-463.168
 40
14.063
 50
79.342
 51
83.923
  0
ARC
  8
APS_GEOMETRY
 10
-599.502
 20
-467.288
 40
18.256
 50
75.808
 51
79.342
  0
ARC
  8
APS_GEOMETRY
 10
-602.208
 20
-477.985
 40
29.29
 50
73.018
 51
75.808
  0
ARC
  8
APS_GEOMETRY
 10
-592.682
 20
-446.739
 40
3.376
 50
253.288
 51
259.046
  0
ARC
  8
APS_GEOMETRY
 10
-593.146
 20
-449.136
 40
0.935
 50
259.046
 51
270.0
  0
ARC
  8
APS_GEOMETRY
 10
-593.146
 20
-449.516
 40
0.555
 50
270.0
 51
286.699
  0
ARC
  8
APS_GEOMETRY
 10
-597.582
 20
-434.727
 40
15.995
 50
286.699
 51
289.799
  0
ARC
  8
APS_GEOMETRY
 10
-591.638
 20
-451.182
 40
1.501
 50
100.008
 51
110.556
  0
ARC
  8
APS_GEOMETRY
 10
-591.609
 20
-451.345
 40
1.667
 50
90.0
 51
100.008
  0
ARC
  8
APS_GEOMETRY
 10
-591.609
 20
-451.268
 40
1.59
 50
53.356
 51
90.0
  0
ARC
  8
APS_GEOMETRY
 10
-594.386
 20
-455.001
 40
6.242
 50
35.101
 51
53.356
  0
ARC
  8
APS_GEOMETRY
 10
-595.771
 20
-455.975
 40
7.936
 50
20.245
 51
35.101
  0
ARC
  8
APS_GEOMETRY
 10
-592.354
 20
-454.715
 40
4.294
 50
360.0
 51
20.245
  0
ARC
  8
APS_GEOMETRY
 10
-590.635
 20
-454.715
 40
2.575
 50
340.481
 51
360.0
  0
ARC
  8
APS_GEOMETRY
 10
-590.211
 20
-454.865
 40
2.125
 50
318.972
 51
340.481
  0
ARC
  8
APS_GEOMETRY
 10
-590.022
 20
-455.029
 40
1.874
 50
295.017
 51
318.972
  0
ARC
  8
APS_GEOMETRY
 10
-589.957
 20
-455.168
 40
1.721
 50
270.0
 51
295.017
  0
ARC
  8
APS_GEOMETRY
 10
-589.957
 20
-454.247
 40
2.643
 50
256.171
 51
270.0
  0
ARC
  8
APS_GEOMETRY
 10
-590.245
 20
-455.417
 40
1.437
 50
237.381
 51
256.171
  0
ARC
  8
APS_GEOMETRY
 10
-589.735
 20
-454.62
 40
2.384
 50
231.559
 51
237.381
  0
ARC
  8
APS_GEOMETRY
 10
-582.314
 20
-445.27
 40
14.321
 50
229.185
 51
231.559
  0
ARC
  8
APS_GEOMETRY
 10
-574.36
 20
-436.061
 40
26.49
 50
227.9
 51
229.185
  0
ARC
  8
APS_GEOMETRY
 10
-546.833
 20
-405.596
 40
67.548
 50
227.095
 51
227.9
  0
ARC
  8
APS_GEOMETRY
 10
-598.515
 20
-461.177
 40
8.348
 50
46.975
 51
64.612
  0
ARC
  8
APS_GEOMETRY
 10
-596.678
 20
-457.306
 40
4.063
 50
64.612
 51
90.0
  0
ARC
  8
APS_GEOMETRY
 10
-596.678
 20
-456.171
 40
2.928
 50
90.0
 51
106.966
  0
ARC
  8
APS_GEOMETRY
 10
-597.017
 20
-455.059
 40
1.766
 50
106.966
 51
128.868
  0
ARC
  8
APS_GEOMETRY
 10
-597.213
 20
-454.815
 40
1.453
 50
128.868
 51
154.741
  0
ARC
  8
APS_GEOMETRY
 10
-597.15
 20
-454.845
 40
1.523
 50
154.741
 51
180.0
  0
ARC
  8
APS_GEOMETRY
 10
-597.242
 20
-454.845
 40
1.43
 50
180.0
 51
206.64
  0
ARC
  8
APS_GEOMETRY
 10
-596.782
 20
-454.614
 40
1.945
 50
206.64
 51
229.43
  0
ARC
  8
APS_GEOMETRY
 10
-596.044
 20
-453.753
 40
3.08
 50
229.43
 51
244.493
  0
ARC
  8
APS_GEOMETRY
 10
-594.021
 20
-449.513
 40
7.777
 50
244.493
 51
253.956
  0
ARC
  8
APS_GEOMETRY
 10
-630.057
 20
-571.978
 40
119.879
 50
72.737
 51
73.58
  0
ARC
  8
APS_GEOMETRY
 10
-609.405
 20
-505.52
 40
50.287
 50
71.435
 51
72.737
  0
ARC
  8
APS_GEOMETRY
 10
-602.565
 20
-485.153
 40
28.801
 50
69.164
 51
71.435
  0
ARC
  8
APS_GEOMETRY
 10
-594.492
 20
-463.942
 40
6.106
 50
64.231
 51
69.164
  0
ARC
  8
APS_GEOMETRY
 10
-595.421
 20
-465.811
 40
8.193
 50
34.939
 51
64.068
  0
ARC
  8
APS_GEOMETRY
 10
-593.417
 20
-464.411
 40
5.749
 50
360.0
 51
34.939
  0
ARC
  8
APS_GEOMETRY
 10
-594.649
 20
-464.411
 40
6.981
 50
333.435
 51
360.0
  0
ARC
  8
APS_GEOMETRY
 10
-595.105
 20
-464.183
 40
7.491
 50
307.807
 51
333.435
  0
ARC
  8
APS_GEOMETRY
 10
-596.293
 20
-462.647
 40
9.433
 50
296.732
 51
307.786
  0
ARC
  8
APS_GEOMETRY
 10
-596.995
 20
-461.251
 40
10.995
 50
286.496
 51
296.732
  0
ARC
  8
APS_GEOMETRY
 10
-597.458
 20
-459.689
 40
12.625
 50
277.544
 51
286.496
  0
ARC
  8
APS_GEOMETRY
 10
-598.133
 20
-454.593
 40
17.765
 50
270.0
 51
277.544
  0
ARC
  8
APS_GEOMETRY
 10
-598.133
 20
-453.823
 40
18.535
 50
263.555
 51
270.0
  0
ARC
  8
APS_GEOMETRY
 10
-597.533
 20
-448.511
 40
23.881
 50
257.878
 51
263.555
  0
ARC
  8
APS_GEOMETRY
 10
-597.852
 20
-449.994
 40
22.364
 50
254.839
 51
257.878
  0
ARC
  8
APS_GEOMETRY
 10
-600.435
 20
-459.527
 40
12.487
 50
250.772
 51
254.839
  0
ARC
  8
APS_GEOMETRY
 10
-601.597
 20
-462.859
 40
8.959
 50
245.121
 51
250.772
  0
ARC
  8
APS_GEOMETRY
 10
-603.563
 20
-467.1
 40
4.284
 50
236.944
 51
245.121
  0
ARC
  8
APS_GEOMETRY
 10
-604.723
 20
-468.925
 40
2.122
 50
211.802
 51
236.31
  0
ARC
  8
APS_GEOMETRY
 10
-599.211
 20
-465.507
 40
8.608
 50
199.704
 51
211.802
  0
ARC
  8
APS_GEOMETRY
 10
-596.579
 20
-464.564
 40
11.404
 50
190.413
 51
199.704
  0
ARC
  8
APS_GEOMETRY
 10
-598.86
 20
-464.983
 40
9.084
 50
180.0
 51
190.413
  0
ARC
  8
APS_GEOMETRY
 10
-605.01
 20
-464.983
 40
2.934
 50
164.876
 51
180.0
  0
ARC
  8
APS_GEOMETRY
 10
-606.663
 20
-464.537
 40
1.222
 50
141.34
 51
164.876
  0
ARC
  8
APS_GEOMETRY
 10
-606.503
 20
-464.644
 40
1.414
 50
116.928
 51
142.001
  0
ARC
  8
APS_GEOMETRY
 10
-606.587
 20
-464.479
 40
1.229
 50
90.0
 51
116.928
  0
ARC
  8
APS_GEOMETRY
 10
-606.587
 20
-464.482
 40
1.232
 50
62.21
 51
90.0
  0
ARC
  8
APS_GEOMETRY
 10
-607.079
 20
-465.415
 40
2.287
 50
41.906
 51
62.21
  0
ARC
  8
APS_GEOMETRY
 10
-606.995
 20
-465.433
 40
2.237
 50
37.313
 51
43.668
  0
ARC
  8
APS_GEOMETRY
 10
-619.529
 20
-474.986
 40
17.997
 50
35.074
 51
37.313
  0
ARC
  8
APS_GEOMETRY
 10
-633.763
 20
-484.979
 40
35.389
 50
33.934
 51
35.074
  0
ARC
  8
APS_GEOMETRY
 10
-684.512
 20
-519.124
 40
96.555
 50
33.243
 51
33.934
  0
ARC
  8
APS_GEOMETRY
 10
-600.952
 20
-464.339
 40
3.363
 50
213.453
 51
231.637
  0
ARC
  8
APS_GEOMETRY
 10
-599.363
 20
-462.332
 40
5.924
 50
231.637
 51
245.313
  0
ARC
  8
APS_GEOMETRY
 10
-599.013
 20
-461.57
 40
6.762
 50
245.313
 51
257.398
  0
ARC
  8
APS_GEOMETRY
 10
-599.131
 20
-462.098
 40
6.222
 50
257.398
 51
270.0
  0
ARC
  8
APS_GEOMETRY
 10
-599.131
 20
-463.066
 40
5.253
 50
270.0
 51
282.907
  0
ARC
  8
APS_GEOMETRY
 10
-598.565
 20
-465.533
 40
2.722
 50
282.907
 51
300.872
  0
ARC
  8
APS_GEOMETRY
 10
-598.075
 20
-466.353
 40
1.767
 50
300.872
 51
326.876
  0
ARC
  8
APS_GEOMETRY
 10
-597.517
 20
-466.717
 40
1.101
 50
326.876
 51
0.0
  0
ARC
  8
APS_GEOMETRY
 10
-597.682
 20
-466.717
 40
1.266
 50
0.0
 51
27.553
  0
ARC
  8
APS_GEOMETRY
 10
-598.082
 20
-466.926
 40
1.717
 50
27.553
 51
51.147
  0
ARC
  8
APS_GEOMETRY
 10
-598.909
 20
-467.952
 40
3.036
 50
51.147
 51
65.225
  0
ARC
  8
APS_GEOMETRY
 10
-601.961
 20
-474.564
 40
10.318
 50
65.225
 51
72.848
  0
ARC
  8
APS_GEOMETRY
 10
-584.14
 20
-417.745
 40
49.231
 50
251.106
 51
252.532
  0
ARC
  8
APS_GEOMETRY
 10
-590.448
 20
-436.175
 40
29.751
 50
249.271
 51
251.106
  0
ARC
  8
APS_GEOMETRY
 10
-593.071
 20
-443.105
 40
22.341
 50
246.83
 51
249.271
  0
ARC
  8
APS_GEOMETRY
 10
-597.313
 20
-453.016
 40
11.56
 50
243.435
 51
246.83
  0
ARC
  8
APS_GEOMETRY
 10
-597.795
 20
-453.982
 40
10.481
 50
235.981
 51
243.435
  0
ARC
  8
APS_GEOMETRY
 10
-597.425
 20
-453.433
 40
11.144
 50
228.752
 51
235.981
  0
ARC
  8
APS_GEOMETRY
 10
-599.162
 20
-455.48
 40
8.459
 50
206.421
 51
228.457
  0
ARC
  8
APS_GEOMETRY
 10
-601.439
 20
-456.611
 40
5.916
 50
180.0
 51
206.421
  0
ARC
  8
APS_GEOMETRY
 10
-601.332
 20
-456.611
 40
6.024
 50
166.555
 51
180.0
  0
ARC
  8
APS_GEOMETRY
 10
-600.634
 20
-456.778
 40
6.741
 50
153.848
 51
166.555
  0
ARC
  8
APS_GEOMETRY
 10
-600.576
 20
-456.807
 40
6.806
 50
141.244
 51
153.848
  0
ARC
  8
APS_GEOMETRY
 10
-600.146
 20
-457.152
 40
7.357
 50
129.123
 51
141.244
  0
ARC
  8
APS_GEOMETRY
 10
-598.769
 20
-458.615
 40
9.362
 50
108.978
 51
130.006
  0
ARC
  8
APS_GEOMETRY
 10
-598.084
 20
-460.609
 40
11.47
 50
90.0
 51
108.978
  0
ARC
  8
APS_GEOMETRY
 10
-573.089
 20
-459.77
 40
10.632
 50
77.257
 51
90.0
  0
ARC
  8
APS_GEOMETRY
 10
-573.197
 20
-460.248
 40
11.122
 50
64.799
 51
77.257
  0
ARC
  8
APS_GEOMETRY
 10
-564.038
 20
-440.749
 40
10.421
 50
244.885
 51
251.175
  0
ARC
  8
APS_GEOMETRY
 10
-567.022
 20
-449.503
 40
1.173
 50
251.175
 51
270.0
  0
ARC
  8
APS_GEOMETRY
 10
-567.022
 20
-448.772
 40
1.903
 50
270.0
 51
278.82
  0
ARC
  8
APS_GEOMETRY
 10
-568.252
 20
-440.849
 40
9.922
 50
278.82
 51
282.68
  0
ARC
  8
APS_GEOMETRY
 10
-565.679
 20
-452.239
 40
1.755
 50
95.906
 51
102.995
  0
ARC
  8
APS_GEOMETRY
 10
-565.6
 20
-453.007
 40
2.528
 50
90.0
 51
95.906
  0
ARC
  8
APS_GEOMETRY
 10
-565.6
 20
-452.157
 40
1.678
 50
62.447
 51
90.0
  0
ARC
  8
APS_GEOMETRY
 10
-565.898
 20
-452.729
 40
2.323
 50
39.094
 51
62.447
  0
ARC
  8
APS_GEOMETRY
 10
-569.015
 20
-455.336
 40
6.386
 50
18.435
 51
39.611
  0
ARC
  8
APS_GEOMETRY
 10
-570.928
 20
-455.974
 40
8.403
 50
360.0
 51
18.435
  0
ARC
  8
APS_GEOMETRY
 10
-566.692
 20
-455.974
 40
4.167
 50
334.877
 51
360.0
  0
ARC
  8
APS_GEOMETRY
 10
-565.439
 20
-456.561
 40
2.783
 50
304.007
 51
334.877
  0
ARC
  8
APS_GEOMETRY
 10
-565.46
 20
-456.502
 40
2.843
 50
286.39
 51
303.69
  0
ARC
  8
APS_GEOMETRY
 10
-565.551
 20
-456.193
 40
3.165
 50
270.0
 51
286.39
  0
ARC
  8
APS_GEOMETRY
 10
-565.551
 20
-456.23
 40
3.128
 50
255.155
 51
270.0
  0
ARC
  8
APS_GEOMETRY
 10
-565.893
 20
-457.523
 40
1.791
 50
235.491
 51
255.155
  0
ARC
  8
APS_GEOMETRY
 10
-565.721
 20
-457.273
 40
2.094
 50
218.48
 51
235.491
  0
ARC
  8
APS_GEOMETRY
 10
-562.911
 20
-455.039
 40
5.684
 50
208.179
 51
218.48
  0
ARC
  8
APS_GEOMETRY
 10
-591.723
 20
-470.678
 40
27.099
 50
28.56
 51
31.664
  0
ARC
  8
APS_GEOMETRY
 10
-574.117
 20
-459.82
 40
6.414
 50
31.664
 51
38.047
  0
ARC
  8
APS_GEOMETRY
 10
-572.837
 20
-458.818
 40
4.788
 50
38.047
 51
46.56
  0
ARC
  8
APS_GEOMETRY
 10
-573.502
 20
-459.521
 40
5.756
 50
46.56
 51
54.324
  0
ARC
  8
APS_GEOMETRY
 10
-573.886
 20
-460.182
 40
6.517
 50
54.968
 51
71.48
  0
ARC
  8
APS_GEOMETRY
 10
-573.465
 20
-458.923
 40
5.19
 50
71.48
 51
90.0
  0
ARC
  8
APS_GEOMETRY
 10
-573.465
 20
-457.359
 40
3.625
 50
90.0
 51
114.63
  0
ARC
  8
APS_GEOMETRY
 10
-573.647
 20
-456.962
 40
3.188
 50
114.63
 51
140.921
  0
ARC
  8
APS_GEOMETRY
 10
-573.109
 20
-457.398
 40
3.881
 50
140.921
 51
163.13
  0
ARC
  8
APS_GEOMETRY
 10
-570.42
 20
-458.214
 40
6.691
 50
163.13
 51
180.0
  0
ARC
  8
APS_GEOMETRY
 10
-566.934
 20
-458.214
 40
10.178
 50
180.0
 51
195.44
  0
ARC
  8
APS_GEOMETRY
 10
-567.463
 20
-458.36
 40
9.629
 50
195.44
 51
211.316
  0
ARC
  8
APS_GEOMETRY
 10
-570.007
 20
-459.855
 40
6.678
 50
211.708
 51
240.457
  0
ARC
  8
APS_GEOMETRY
 10
-570.178
 20
-460.156
 40
6.332
 50
240.457
 51
270.0
  0
ARC
  8
APS_GEOMETRY
 10
-570.178
 20
-458.612
 40
7.875
 50
270.0
 51
279.549
  0
ARC
  8
APS_GEOMETRY
 10
-570.276
 20
-458.03
 40
8.466
 50
279.549
 51
288.759
  0
ARC
  8
APS_GEOMETRY
 10
-569.863
 20
-459.246
 40
7.182
 50
288.759
 51
299.545
  0
ARC
  8
APS_GEOMETRY
 10
-568.208
 20
-462.165
 40
3.826
 50
299.545
 51
314.341
  0
ARC
  8
APS_GEOMETRY
 10
-563.091
 20
-467.481
 40
3.553
 50
120.141
 51
133.452
  0
ARC
  8
APS_GEOMETRY
 10
-564.52
 20
-465.019
 40
0.706
 50
90.0
 51
120.141
  0
ARC
  8
APS_GEOMETRY
 10
-564.52
 20
-465.428
 40
1.115
 50
61.952
 51
90.0
  0
ARC
  8
APS_GEOMETRY
 10
-564.686
 20
-465.739
 40
1.468
 50
37.569
 51
61.952
  0
ARC
  8
APS_GEOMETRY
 10
-564.996
 20
-465.978
 40
1.859
 50
17.665
 51
37.569
  0
ARC
  8
APS_GEOMETRY
 10
-565.468
 20
-466.128
 40
2.354
 50
360.0
 51
17.665
  0
ARC
  8
APS_GEOMETRY
 10
-566.654
 20
-466.128
 40
3.54
 50
344.932
 51
0.0
  0
ARC
  8
APS_GEOMETRY
 10
-569.803
 20
-465.28
 40
6.801
 50
334.075
 51
344.932
  0
ARC
  8
APS_GEOMETRY
 10
-569.902
 20
-465.232
 40
6.912
 50
323.374
 51
334.075
  0
ARC
  8
APS_GEOMETRY
 10
-567.871
 20
-466.743
 40
4.38
 50
309.92
 51
323.374
  0
ARC
  8
APS_GEOMETRY
 10
-565.84
 20
-469.138
 40
1.24
 50
289.026
 51
308.991
  0
ARC
  8
APS_GEOMETRY
 10
-568.007
 20
-462.855
 40
7.886
 50
281.143
 51
289.026
  0
ARC
  8
APS_GEOMETRY
 10
-565.81
 20
-474.246
 40
3.715
 50
100.437
 51
110.12
  0
ARC
  8
APS_GEOMETRY
 10
-562.899
 20
-482.191
 40
12.177
 50
110.12
 51
115.463
  0
ARC
  8
APS_GEOMETRY
 10
-573.29
 20
-460.451
 40
11.919
 50
282.94
 51
295.628
  0
ARC
  8
APS_GEOMETRY
 10
-573.187
 20
-460.898
 40
11.46
 50
270.0
 51
282.94
  0
ARC
  8
APS_GEOMETRY
 10
-573.187
 20
-460.221
 40
12.137
 50
257.307
 51
270.0
  0
ARC
  8
APS_GEOMETRY
 10
-572.674
 20
-457.946
 40
14.469
 50
245.686
 51
257.307
  0
ARC
  8
APS_GEOMETRY
 10
-573.96
 20
-460.766
 40
11.37
 50
228.801
 51
245.735
  0
ARC
  8
APS_GEOMETRY
 10
-573.938
 20
-460.742
 40
11.402
 50
211.891
 51
228.801
  0
ARC
  8
APS_GEOMETRY
 10
-573.264
 20
-460.257
 40
12.231
 50
196.728
 51
212.152
  0
ARC
  8
APS_GEOMETRY
 10
-575.008
 20
-460.781
 40
10.41
 50
180.0
 51
196.728
  0
ARC
  8
APS_GEOMETRY
 10
-574.754
 20
-460.781
 40
10.663
 50
161.184
 51
180.0
  0
ARC
  8
APS_GEOMETRY
 10
-574.07
 20
-461.014
 40
11.386
 50
142.98
 51
161.184
  0
ARC
  8
APS_GEOMETRY
 10
-573.538
 20
-461.421
 40
12.056
 50
127.824
 51
142.958
  0
ARC
  8
APS_GEOMETRY
 10
-572.661
 20
-462.551
 40
13.486
 50
113.52
 51
127.824
  0
ARC
  8
APS_GEOMETRY
 10
-572.947
 20
-461.891
 40
12.768
 50
101.927
 51
113.527
  0
ARC
  8
APS_GEOMETRY
 10
-573.089
 20
-461.219
 40
12.08
 50
90.0
 51
101.927
  0
ARC
  8
APS_GEOMETRY
 10
-547.848
 20
-462.029
 40
12.891
 50
71.91
 51
90.0
  0
ARC
  8
APS_GEOMETRY
 10
-547.349
 20
-460.501
 40
11.283
 50
52.561
 51
71.91
  0
ARC
  8
APS_GEOMETRY
 10
-547.48
 20
-460.539
 40
11.393
 50
38.846
 51
52.156
  0
ARC
  8
APS_GEOMETRY
 10
-549.266
 20
-461.977
 40
13.686
 50
26.707
 51
38.846
  0
ARC
  8
APS_GEOMETRY
 10
-548.912
 20
-461.688
 40
13.241
 50
13.868
 51
26.278
  0
ARC
  8
APS_GEOMETRY
 10
-546.362
 20
-461.059
 40
10.614
 50
360.0
 51
13.868
  0
ARC
  8
APS_GEOMETRY
 10
-546.197
 20
-461.059
 40
10.449
 50
339.712
 51
360.0
  0
ARC
  8
APS_GEOMETRY
 10
-546.785
 20
-460.842
 40
11.076
 50
320.013
 51
339.712
  0
ARC
  8
APS_GEOMETRY
 10
-546.883
 20
-460.788
 40
11.186
 50
303.344
 51
320.123
  0
ARC
  8
APS_GEOMETRY
 10
-548.031
 20
-459.043
 40
13.274
 50
287.949
 51
303.344
  0
ARC
  8
APS_GEOMETRY
 10
-548.408
 20
-457.736
 40
14.634
 50
279.039
 51
287.776
  0
ARC
  8
APS_GEOMETRY
 10
-548.257
 20
-458.685
 40
13.673
 50
270.0
 51
279.039
  0
ARC
  8
APS_GEOMETRY
 10
-548.257
 20
-459.353
 40
13.005
 50
257.728
 51
270.0
  0
ARC
  8
APS_GEOMETRY
 10
-548.236
 20
-459.259
 40
13.102
 50
245.501
 51
257.728
  0
ARC
  8
APS_GEOMETRY
 10
-548.973
 20
-460.87
 40
11.33
 50
228.665
 51
245.511
  0
ARC
  8
APS_GEOMETRY
 10
-549.218
 20
-461.148
 40
10.959
 50
211.535
 51
228.665
  0
ARC
  8
APS_GEOMETRY
 10
-548.897
 20
-460.913
 40
11.356
 50
195.642
 51
211.701
  0
ARC
  8
APS_GEOMETRY
 10
-548.31
 20
-460.748
 40
11.966
 50
180.0
 51
195.642
  0
ARC
  8
APS_GEOMETRY
 10
-548.184
 20
-460.748
 40
12.091
 50
162.181
 51
180.0
  0
ARC
  8
APS_GEOMETRY
 10
-549.287
 20
-460.394
 40
10.933
 50
143.434
 51
162.181
  0
ARC
  8
APS_GEOMETRY
 10
-549.436
 20
-460.275
 40
10.742
 50
126.384
 51
143.471
  0
ARC
  8
APS_GEOMETRY
 10
-548.419
 20
-461.655
 40
12.457
 50
110.525
 51
126.384
  0
ARC
  8
APS_GEOMETRY
 10
-548.469
 20
-461.28
 40
12.089
 50
99.77
 51
110.925
  0
ARC
  8
APS_GEOMETRY
 10
-547.848
 20
-464.886
 40
15.748
 50
90.0
 51
99.77
  0
ARC
  8
APS_GEOMETRY
 10
-549.402
 20
-456.235
 40
2.404
 50
90.0
 51
119.604
  0
ARC
  8
APS_GEOMETRY
 10
-549.191
 20
-456.606
 40
2.83
 50
119.604
 51
146.842
  0
ARC
  8
APS_GEOMETRY
 10
-548.768
 20
-456.952
 40
3.374
 50
145.84
 51
164.055
  0
ARC
  8
APS_GEOMETRY
 10
-547.787
 20
-457.233
 40
4.394
 50
164.055
 51
180.0
  0
ARC
  8
APS_GEOMETRY
 10
-541.655
 20
-457.233
 40
10.526
 50
180.0
 51
189.977
  0
ARC
  8
APS_GEOMETRY
 10
-532.329
 20
-455.592
 40
19.995
 50
189.977
 51
197.211
  0
ARC
  8
APS_GEOMETRY
 10
-530.29
 20
-454.96
 40
22.131
 50
197.211
 51
203.76
  0
ARC
  8
APS_GEOMETRY
 10
-535.371
 20
-457.197
 40
16.579
 50
203.76
 51
211.329
  0
ARC
  8
APS_GEOMETRY
 10
-545.805
 20
-463.459
 40
4.411
 50
212.32
 51
224.441
  0
ARC
  8
APS_GEOMETRY
 10
-546.233
 20
-463.879
 40
3.812
 50
224.441
 51
237.484
  0
ARC
  8
APS_GEOMETRY
 10
-546.509
 20
-464.312
 40
3.298
 50
237.484
 51
252.416
  0
ARC
  8
APS_GEOMETRY
 10
-546.785
 20
-465.184
 40
2.383
 50
252.416
 51
270.0
  0
ARC
  8
APS_GEOMETRY
 10
-546.785
 20
-464.901
 40
2.666
 50
270.0
 51
294.953
  0
ARC
  8
APS_GEOMETRY
 10
-546.711
 20
-465.062
 40
2.489
 50
294.953
 51
320.793
  0
ARC
  8
APS_GEOMETRY
 10
-547.111
 20
-464.735
 40
3.005
 50
320.793
 51
342.777
  0
ARC
  8
APS_GEOMETRY
 10
-548.895
 20
-464.182
 40
4.873
 50
342.777
 51
0.0
  0
ARC
  8
APS_GEOMETRY
 10
-557.275
 20
-464.182
 40
13.254
 50
0.0
 51
8.499
  0
ARC
  8
APS_GEOMETRY
 10
-563.109
 20
-465.054
 40
19.152
 50
8.499
 51
15.566
  0
ARC
  8
APS_GEOMETRY
 10
-562.408
 20
-464.858
 40
18.424
 50
15.566
 51
22.909
  0
ARC
  8
APS_GEOMETRY
 10
-556.376
 20
-462.309
 40
11.876
 50
22.909
 51
32.057
  0
ARC
  8
APS_GEOMETRY
 10
-551.638
 20
-459.325
 40
6.276
 50
31.921
 51
42.51
  0
ARC
  8
APS_GEOMETRY
 10
-550.337
 20
-458.132
 40
4.511
 50
42.51
 51
55.008
  0
ARC
  8
APS_GEOMETRY
 10
-549.897
 20
-457.504
 40
3.745
 50
55.008
 51
69.88
  0
ARC
  8
APS_GEOMETRY
 10
-549.503
 20
-456.429
 40
2.599
 50
69.88
 51
87.754
  0
ARC
  8
APS_GEOMETRY
 10
-521.169
 20
-459.77
 40
10.632
 50
77.257
 51
90.0
  0
ARC
  8
APS_GEOMETRY
 10
-521.277
 20
-460.248
 40
11.122
 50
64.799
 51
77.257
  0
ARC
  8
APS_GEOMETRY
 10
-512.118
 20
-440.749
 40
10.421
 50
244.885
 51
251.175
  0
ARC
  8
APS_GEOMETRY
 10
-515.102
 20
-449.503
 40
1.173
 50
251.175
 51
270.0
  0
ARC
  8
APS_GEOMETRY
 10
-515.102
 20
-448.772
 40
1.903
 50
270.0
 51
278.82
  0
ARC
  8
APS_GEOMETRY
 10
-516.332
 20
-440.849
 40
9.922
 50
278.82
 51
282.68
  0
ARC
  8
APS_GEOMETRY
 10
-513.759
 20
-452.239
 40
1.755
 50
95.906
 51
102.995
  0
ARC
  8
APS_GEOMETRY
 10
-513.68
 20
-453.007
 40
2.528
 50
90.0
 51
95.906
  0
ARC
  8
APS_GEOMETRY
 10
-513.68
 20
-452.157
 40
1.678
 50
62.447
 51
90.0
  0
ARC
  8
APS_GEOMETRY
 10
-513.978
 20
-452.729
 40
2.323
 50
39.094
 51
62.447
  0
ARC
  8
APS_GEOMETRY
 10
-517.095
 20
-455.336
 40
6.386
 50
18.435
 51
39.611
  0
ARC
  8
APS_GEOMETRY
 10
-519.008
 20
-455.974
 40
8.403
 50
360.0
 51
18.435
  0
ARC
  8
APS_GEOMETRY
 10
-514.772
 20
-455.974
 40
4.167
 50
334.877
 51
360.0
  0
ARC
  8
APS_GEOMETRY
 10
-513.519
 20
-456.561
 40
2.783
 50
304.007
 51
334.877
  0
ARC
  8
APS_GEOMETRY
 10
-513.54
 20
-456.502
 40
2.843
 50
286.39
 51
303.69
  0
ARC
  8
APS_GEOMETRY
 10
-513.631
 20
-456.193
 40
3.165
 50
270.0
 51
286.39
  0
ARC
  8
APS_GEOMETRY
 10
-513.631
 20
-456.23
 40
3.128
 50
255.155
 51
270.0
  0
ARC
  8
APS_GEOMETRY
 10
-513.973
 20
-457.523
 40
1.791
 50
235.491
 51
255.155
  0
ARC
  8
APS_GEOMETRY
 10
-513.801
 20
-457.273
 40
2.094
 50
218.48
 51
235.491
  0
ARC
  8
APS_GEOMETRY
 10
-510.991
 20
-455.039
 40
5.684
 50
208.179
 51
218.48
  0
ARC
  8
APS_GEOMETRY
 10
-539.803
 20
-470.678
 40
27.099
 50
28.56
 51
31.664
  0
ARC
  8
APS_GEOMETRY
 10
-522.197
 20
-459.82
 40
6.414
 50
31.664
 51
38.047
  0
ARC
  8
APS_GEOMETRY
 10
-520.917
 20
-458.818
 40
4.788
 50
38.047
 51
46.56
  0
ARC
  8
APS_GEOMETRY
 10
-521.582
 20
-459.521
 40
5.756
 50
46.56
 51
54.324
  0
ARC
  8
APS_GEOMETRY
 10
-521.966
 20
-460.182
 40
6.517
 50
54.968
 51
71.48
  0
ARC
  8
APS_GEOMETRY
 10
-521.545
 20
-458.923
 40
5.19
 50
71.48
 51
90.0
  0
ARC
  8
APS_GEOMETRY
 10
-521.545
 20
-457.359
 40
3.625
 50
90.0
 51
114.63
  0
ARC
  8
APS_GEOMETRY
 10
-521.727
 20
-456.962
 40
3.188
 50
114.63
 51
140.921
  0
ARC
  8
APS_GEOMETRY
 10
-521.189
 20
-457.398
 40
3.881
 50
140.921
 51
163.13
  0
ARC
  8
APS_GEOMETRY
 10
-518.5
 20
-458.214
 40
6.691
 50
163.13
 51
180.0
  0
ARC
  8
APS_GEOMETRY
 10
-515.013
 20
-458.214
 40
10.178
 50
180.0
 51
195.44
  0
ARC
  8
APS_GEOMETRY
 10
-515.542
 20
-458.36
 40
9.629
 50
195.44
 51
211.316
  0
ARC
  8
APS_GEOMETRY
 10
-518.087
 20
-459.855
 40
6.678
 50
211.708
 51
240.457
  0
ARC
  8
APS_GEOMETRY
 10
-518.258
 20
-460.156
 40
6.332
 50
240.457
 51
270.0
  0
ARC
  8
APS_GEOMETRY
 10
-518.258
 20
-458.612
 40
7.875
 50
270.0
 51
279.549
  0
ARC
  8
APS_GEOMETRY
 10
-518.356
 20
-458.03
 40
8.466
 50
279.549
 51
288.759
  0
ARC
  8
APS_GEOMETRY
 10
-517.943
 20
-459.246
 40
7.182
 50
288.759
 51
299.545
  0
ARC
  8
APS_GEOMETRY
 10
-516.288
 20
-462.165
 40
3.826
 50
299.545
 51
314.341
  0
ARC
  8
APS_GEOMETRY
 10
-511.171
 20
-467.481
 40
3.553
 50
120.141
 51
133.452
  0
ARC
  8
APS_GEOMETRY
 10
-512.6
 20
-465.019
 40
0.706
 50
90.0
 51
120.141
  0
ARC
  8
APS_GEOMETRY
 10
-512.6
 20
-465.428
 40
1.115
 50
61.952
 51
90.0
  0
ARC
  8
APS_GEOMETRY
 10
-512.766
 20
-465.739
 40
1.468
 50
37.569
 51
61.952
  0
ARC
  8
APS_GEOMETRY
 10
-513.076
 20
-465.978
 40
1.859
 50
17.665
 51
37.569
  0
ARC
  8
APS_GEOMETRY
 10
-513.548
 20
-466.128
 40
2.354
 50
360.0
 51
17.665
  0
ARC
  8
APS_GEOMETRY
 10
-514.734
 20
-466.128
 40
3.54
 50
344.932
 51
0.0
  0
ARC
  8
APS_GEOMETRY
 10
-517.883
 20
-465.28
 40
6.801
 50
334.075
 51
344.932
  0
ARC
  8
APS_GEOMETRY
 10
-517.982
 20
-465.232
 40
6.912
 50
323.374
 51
334.075
  0
ARC
  8
APS_GEOMETRY
 10
-515.951
 20
-466.743
 40
4.38
 50
309.92
 51
323.374
  0
ARC
  8
APS_GEOMETRY
 10
-513.92
 20
-469.138
 40
1.24
 50
289.026
 51
308.991
  0
ARC
  8
APS_GEOMETRY
 10
-516.087
 20
-462.855
 40
7.886
 50
281.143
 51
289.026
  0
ARC
  8
APS_GEOMETRY
 10
-513.889
 20
-474.246
 40
3.715
 50
100.437
 51
110.12
  0
ARC
  8
APS_GEOMETRY
 10
-510.979
 20
-482.191
 40
12.177
 50
110.12
 51
115.463
  0
ARC
  8
APS_GEOMETRY
 10
-521.369
 20
-460.451
 40
11.919
 50
282.94
 51
295.628
  0
ARC
  8
APS_GEOMETRY
 10
-521.267
 20
-460.898
 40
11.46
 50
270.0
 51
282.94
  0
ARC
  8
APS_GEOMETRY
 10
-521.267
 20
-460.221
 40
12.137
 50
257.307
 51
270.0
  0
ARC
  8
APS_GEOMETRY
 10
-520.754
 20
-457.946
 40
14.469
 50
245.686
 51
257.307
  0
ARC
  8
APS_GEOMETRY
 10
-522.04
 20
-460.766
 40
11.37
 50
228.801
 51
245.735
  0
ARC
  8
APS_GEOMETRY
 10
-522.018
 20
-460.742
 40
11.402
 50
211.891
 51
228.801
  0
ARC
  8
APS_GEOMETRY
 10
-521.344
 20
-460.257
 40
12.231
 50
196.728
 51
212.152
  0
ARC
  8
APS_GEOMETRY
 10
-523.088
 20
-460.781
 40
10.41
 50
180.0
 51
196.728
  0
ARC
  8
APS_GEOMETRY
 10
-522.834
 20
-460.781
 40
10.663
 50
161.184
 51
180.0
  0
ARC
  8
APS_GEOMETRY
 10
-522.15
 20
-461.014
 40
11.386
 50
142.98
 51
161.184
  0
ARC
  8
APS_GEOMETRY
 10
-521.618
 20
-461.421
 40
12.056
 50
127.824
 51
142.958
  0
ARC
  8
APS_GEOMETRY
 10
-520.741
 20
-462.551
 40
13.486
 50
113.52
 51
127.824
  0
ARC
  8
APS_GEOMETRY
 10
-521.027
 20
-461.891
 40
12.768
 50
101.927
 51
113.527
  0
ARC
  8
APS_GEOMETRY
 10
-521.169
 20
-461.219
 40
12.08
 50
90.0
 51
101.927
  0
ARC
  8
APS_GEOMETRY
 10
-495.928
 20
-462.029
 40
12.891
 50
71.91
 51
90.0
  0
ARC
  8
APS_GEOMETRY
 10
-495.429
 20
-460.501
 40
11.283
 50
52.561
 51
71.91
  0
ARC
  8
APS_GEOMETRY
 10
-495.56
 20
-460.539
 40
11.393
 50
38.846
 51
52.156
  0
ARC
  8
APS_GEOMETRY
 10
-497.346
 20
-461.977
 40
13.686
 50
26.707
 51
38.846
  0
ARC
  8
APS_GEOMETRY
 10
-496.992
 20
-461.688
 40
13.241
 50
13.868
 51
26.278
  0
ARC
  8
APS_GEOMETRY
 10
-494.442
 20
-461.059
 40
10.614
 50
360.0
 51
13.868
  0
ARC
  8
APS_GEOMETRY
 10
-494.277
 20
-461.059
 40
10.449
 50
339.712
 51
360.0
  0
ARC
  8
APS_GEOMETRY
 10
-494.865
 20
-460.842
 40
11.076
 50
320.013
 51
339.712
  0
ARC
  8
APS_GEOMETRY
 10
-494.963
 20
-460.788
 40
11.186
 50
303.344
 51
320.123
  0
ARC
  8
APS_GEOMETRY
 10
-496.111
 20
-459.043
 40
13.274
 50
287.949
 51
303.344
  0
ARC
  8
APS_GEOMETRY
 10
-496.488
 20
-457.736
 40
14.634
 50
279.039
 51
287.776
  0
ARC
  8
APS_GEOMETRY
 10
-496.337
 20
-458.685
 40
13.673
 50
270.0
 51
279.039
  0
ARC
  8
APS_GEOMETRY
 10
-496.337
 20
-459.353
 40
13.005
 50
257.728
 51
270.0
  0
ARC
  8
APS_GEOMETRY
 10
-496.316
 20
-459.259
 40
13.102
 50
245.501
 51
257.728
  0
ARC
  8
APS_GEOMETRY
 10
-497.053
 20
-460.87
 40
11.33
 50
228.665
 51
245.511
  0
ARC
  8
APS_GEOMETRY
 10
-497.298
 20
-461.148
 40
10.959
 50
211.535
 51
228.665
  0
ARC
  8
APS_GEOMETRY
 10
-496.977
 20
-460.913
 40
11.356
 50
195.642
 51
211.701
  0
ARC
  8
APS_GEOMETRY
 10
-496.39
 20
-460.748
 40
11.966
 50
180.0
 51
195.642
  0
ARC
  8
APS_GEOMETRY
 10
-496.264
 20
-460.748
 40
12.091
 50
162.181
 51
180.0
  0
ARC
  8
APS_GEOMETRY
 10
-497.367
 20
-460.394
 40
10.933
 50
143.434
 51
162.181
  0
ARC
  8
APS_GEOMETRY
 10
-497.516
 20
-460.275
 40
10.742
 50
126.384
 51
143.471
  0
ARC
  8
APS_GEOMETRY
 10
-496.499
 20
-461.655
 40
12.457
 50
110.525
 51
126.384
  0
ARC
  8
APS_GEOMETRY
 10
-496.549
 20
-461.28
 40
12.089
 50
99.77
 51
110.925
  0
ARC
  8
APS_GEOMETRY
 10
-495.928
 20
-464.886
 40
15.748
 50
90.0
 51
99.77
  0
ARC
  8
APS_GEOMETRY
 10
-497.482
 20
-456.235
 40
2.404
 50
90.0
 51
119.604
  0
ARC
  8
APS_GEOMETRY
 10
-497.271
 20
-456.606
 40
2.83
 50
119.604
 51
146.842
  0
ARC
  8
APS_GEOMETRY
 10
-496.848
 20
-456.952
 40
3.374
 50
145.84
 51
164.055
  0
ARC
  8
APS_GEOMETRY
 10
-495.867
 20
-457.233
 40
4.394
 50
164.055
 51
180.0
  0
ARC
  8
APS_GEOMETRY
 10
-489.735
 20
-457.233
 40
10.526
 50
180.0
 51
189.977
  0
ARC
  8
APS_GEOMETRY
 10
-480.409
 20
-455.592
 40
19.995
 50
189.977
 51
197.211
  0
ARC
  8
APS_GEOMETRY
 10
-478.369
 20
-454.96
 40
22.131
 50
197.211
 51
203.76
  0
ARC
  8
APS_GEOMETRY
 10
-483.451
 20
-457.197
 40
16.579
 50
203.76
 51
211.329
  0
ARC
  8
APS_GEOMETRY
 10
-493.885
 20
-463.459
 40
4.411
 50
212.32
 51
224.441
  0
ARC
  8
APS_GEOMETRY
 10
-494.313
 20
-463.879
 40
3.812
 50
224.441
 51
237.484
  0
ARC
  8
APS_GEOMETRY
 10
-494.589
 20
-464.312
 40
3.298
 50
237.484
 51
252.416
  0
ARC
  8
APS_GEOMETRY
 10
-494.865
 20
-465.184
 40
2.383
 50
252.416
 51
270.0
  0
ARC
  8
APS_GEOMETRY
 10
-494.865
 20
-464.901
 40
2.666
 50
270.0
 51
294.953
  0
ARC
  8
APS_GEOMETRY
 10
-494.791
 20
-465.062
 40
2.489
 50
294.953
 51
320.793
  0
ARC
  8
APS_GEOMETRY
 10
-495.191
 20
-464.735
 40
3.005
 50
320.793
 51
342.777
  0
ARC
  8
APS_GEOMETRY
 10
-496.975
 20
-464.182
 40
4.873
 50
342.777
 51
0.0
  0
ARC
  8
APS_GEOMETRY
 10
-505.355
 20
-464.182
 40
13.254
 50
0.0
 51
8.499
  0
ARC
  8
APS_GEOMETRY
 10
-511.189
 20
-465.054
 40
19.152
 50
8.499
 51
15.566
  0
ARC
  8
APS_GEOMETRY
 10
-510.488
 20
-464.858
 40
18.424
 50
15.566
 51
22.909
  0
ARC
  8
APS_GEOMETRY
 10
-504.456
 20
-462.309
 40
11.876
 50
22.909
 51
32.057
  0
ARC
  8
APS_GEOMETRY
 10
-499.718
 20
-459.325
 40
6.276
 50
31.921
 51
42.51
  0
ARC
  8
APS_GEOMETRY
 10
-498.417
 20
-458.132
 40
4.511
 50
42.51
 51
55.008
  0
ARC
  8
APS_GEOMETRY
 10
-497.977
 20
-457.504
 40
3.745
 50
55.008
 51
69.88
  0
ARC
  8
APS_GEOMETRY
 10
-497.583
 20
-456.429
 40
2.599
 50
69.88
 51
87.754
  0
ARC
  8
APS_GEOMETRY
 10
-470.671
 20
-463.741
 40
1.21
 50
90.0
 51
115.837
  0
ARC
  8
APS_GEOMETRY
 10
-470.969
 20
-463.125
 40
0.526
 50
115.837
 51
155.462
  0
ARC
  8
APS_GEOMETRY
 10
-470.621
 20
-463.284
 40
0.909
 50
155.462
 51
168.366
  0
ARC
  8
APS_GEOMETRY
 10
-467.448
 20
-463.937
 40
4.148
 50
168.366
 51
174.395
  0
ARC
  8
APS_GEOMETRY
 10
-464.251
 20
-464.251
 40
7.361
 50
174.395
 51
177.813
  0
ARC
  8
APS_GEOMETRY
 10
-453.636
 20
-464.656
 40
17.983
 50
177.813
 51
180.0
  0
ARC
  8
APS_GEOMETRY
 10
-445.952
 20
-464.656
 40
25.667
 50
180.0
 51
184.62
  0
ARC
  8
APS_GEOMETRY
 10
-463.162
 20
-466.047
 40
8.401
 50
184.62
 51
192.7
  0
ARC
  8
APS_GEOMETRY
 10
-469.797
 20
-467.504
 40
1.609
 50
194.036
 51
205.821
  0
ARC
  8
APS_GEOMETRY
 10
-470.5
 20
-467.844
 40
0.828
 50
205.821
 51
222.274
  0
ARC
  8
APS_GEOMETRY
 10
-470.285
 20
-467.648
 40
1.119
 50
222.274
 51
234.605
  0
ARC
  8
APS_GEOMETRY
 10
-467.854
 20
-464.228
 40
5.315
 50
234.605
 51
240.255
  0
ARC
  8
APS_GEOMETRY
 10
-471.549
 20
-470.765
 40
2.194
 50
34.592
 51
61.189
  0
ARC
  8
APS_GEOMETRY
 10
-470.824
 20
-470.265
 40
1.313
 50
360.0
 51
34.592
  0
ARC
  8
APS_GEOMETRY
 10
-470.78
 20
-470.265
 40
1.27
 50
318.231
 51
360.0
  0
ARC
  8
APS_GEOMETRY
 10
-471.629
 20
-469.507
 40
2.408
 50
288.227
 51
318.231
  0
ARC
  8
APS_GEOMETRY
 10
-472.509
 20
-466.833
 40
5.223
 50
280.377
 51
288.227
  0
ARC
  8
APS_GEOMETRY
 10
-474.044
 20
-458.451
 40
13.744
 50
275.541
 51
280.377
  0
ARC
  8
APS_GEOMETRY
 10
-474.706
 20
-451.632
 40
20.595
 50
272.304
 51
275.541
  0
ARC
  8
APS_GEOMETRY
 10
-475.511
 20
-431.614
 40
40.629
 50
270.0
 51
272.304
  0
ARC
  8
APS_GEOMETRY
 10
-475.511
 20
-448.344
 40
23.9
 50
262.811
 51
270.0
  0
ARC
  8
APS_GEOMETRY
 10
-477.656
 20
-465.347
 40
6.762
 50
249.274
 51
262.811
  0
ARC
  8
APS_GEOMETRY
 10
-479.005
 20
-468.912
 40
2.95
 50
221.379
 51
249.274
  0
ARC
  8
APS_GEOMETRY
 10
-480.188
 20
-469.954
 40
1.373
 50
180.0
 51
221.379
  0
ARC
  8
APS_GEOMETRY
 10
-480.197
 20
-469.954
 40
1.364
 50
164.055
 51
180.0
  0
ARC
  8
APS_GEOMETRY
 10
-480.766
 20
-469.792
 40
0.773
 50
142.815
 51
164.055
  0
ARC
  8
APS_GEOMETRY
 10
-480.408
 20
-470.063
 40
1.222
 50
129.007
 51
142.815
  0
ARC
  8
APS_GEOMETRY
 10
-476.012
 20
-475.491
 40
8.206
 50
123.69
 51
129.007
  0
ARC
  8
APS_GEOMETRY
 10
-482.25
 20
-466.104
 40
3.064
 50
303.389
 51
319.022
  0
ARC
  8
APS_GEOMETRY
 10
-481.421
 20
-466.824
 40
1.966
 50
319.022
 51
338.575
  0
ARC
  8
APS_GEOMETRY
 10
-482.531
 20
-466.389
 40
3.158
 50
338.575
 51
351.049
  0
ARC
  8
APS_GEOMETRY
 10
-495.934
 20
-464.278
 40
16.726
 50
351.049
 51
356.46
  0
ARC
  8
APS_GEOMETRY
 10
-491.516
 20
-464.446
 40
12.307
 50
355.972
 51
358.68
  0
ARC
  8
APS_GEOMETRY
 10
-636.611
 20
-461.103
 40
157.441
 50
358.68
 51
359.437
  0
LINE
  8
APS_GEOMETRY
 10
-479.178
 11
-479.163
 20
-462.649
 21
-460.193
  0
LINE
  8
APS_GEOMETRY
 10
-479.163
 11
-479.158
 20
-460.193
 21
-456.987
  0
ARC
  8
APS_GEOMETRY
 10
-517.062
 20
-456.987
 40
37.905
 50
360.0
 51
1.717
  0
ARC
  8
APS_GEOMETRY
 10
-496.778
 20
-456.379
 40
17.611
 50
1.717
 51
4.236
  0
ARC
  8
APS_GEOMETRY
 10
-490.164
 20
-455.889
 40
10.979
 50
4.236
 51
8.269
  0
ARC
  8
APS_GEOMETRY
 10
-482.552
 20
-454.783
 40
3.287
 50
8.269
 51
15.642
  0
ARC
  8
APS_GEOMETRY
 10
-481.242
 20
-454.416
 40
1.926
 50
15.642
 51
39.417
  0
ARC
  8
APS_GEOMETRY
 10
-481.212
 20
-454.392
 40
1.888
 50
39.417
 51
63.435
  0
ARC
  8
APS_GEOMETRY
 10
-477.812
 20
-447.347
 40
5.935
 50
236.874
 51
244.486
  0
ARC
  8
APS_GEOMETRY
 10
-480.341
 20
-451.224
 40
1.306
 50
220.601
 51
236.874
  0
ARC
  8
APS_GEOMETRY
 10
-480.631
 20
-451.473
 40
0.923
 50
198.246
 51
220.601
  0
ARC
  8
APS_GEOMETRY
 10
-480.197
 20
-451.33
 40
1.38
 50
180.0
 51
198.246
  0
ARC
  8
APS_GEOMETRY
 10
-480.204
 20
-451.33
 40
1.374
 50
156.161
 51
180.0
  0
ARC
  8
APS_GEOMETRY
 10
-480.012
 20
-451.414
 40
1.583
 50
133.977
 51
156.161
  0
ARC
  8
APS_GEOMETRY
 10
-479.631
 20
-451.81
 40
2.133
 50
116.996
 51
133.977
  0
ARC
  8
APS_GEOMETRY
 10
-478.872
 20
-453.299
 40
3.804
 50
104.3
 51
116.996
  0
ARC
  8
APS_GEOMETRY
 10
-478.676
 20
-454.052
 40
4.582
 50
95.326
 51
104.349
  0
ARC
  8
APS_GEOMETRY
 10
-477.882
 20
-462.569
 40
13.136
 50
90.0
 51
95.326
  0
ARC
  8
APS_GEOMETRY
 10
-477.882
 20
-455.939
 40
6.506
 50
87.553
 51
90.0
  0
ARC
  8
APS_GEOMETRY
 10
-479.267
 20
-488.333
 40
38.93
 50
86.553
 51
87.553
  0
ARC
  8
APS_GEOMETRY
 10
-481.235
 20
-521.007
 40
71.662
 50
86.009
 51
86.553
  0
ARC
  8
APS_GEOMETRY
 10
-488.889
 20
-630.713
 40
181.636
 50
85.668
 51
86.009
  0
ARC
  8
APS_GEOMETRY
 10
-474.565
 20
-442.058
 40
7.563
 50
265.426
 51
268.531
  0
ARC
  8
APS_GEOMETRY
 10
-473.892
 20
-415.836
 40
33.793
 50
268.531
 51
270.0
  0
ARC
  8
APS_GEOMETRY
 10
-473.892
 20
-423.874
 40
25.755
 50
270.0
 51
271.637
  0
ARC
  8
APS_GEOMETRY
 10
-474.468
 20
-403.732
 40
45.906
 50
271.637
 51
272.862
  0
ARC
  8
APS_GEOMETRY
 10
-475.129
 20
-390.517
 40
59.137
 50
272.862
 51
273.814
  0
ARC
  8
APS_GEOMETRY
 10
-477.366
 20
-356.965
 40
92.764
 50
273.814
 51
274.574
  0
ARC
  8
APS_GEOMETRY
 10
-463.334
 20
-539.46
 40
90.271
 50
93.72
 51
94.214
  0
ARC
  8
APS_GEOMETRY
 10
-466.329
 20
-493.401
 40
44.115
 50
93.013
 51
93.72
  0
ARC
  8
APS_GEOMETRY
 10
-467.15
 20
-477.803
 40
28.496
 50
91.918
 51
93.013
  0
ARC
  8
APS_GEOMETRY
 10
-467.793
 20
-458.596
 40
9.277
 50
90.0
 51
91.918
  0
ARC
  8
APS_GEOMETRY
 10
-467.793
 20
-461.373
 40
12.054
 50
73.82
 51
90.0
  0
ARC
  8
APS_GEOMETRY
 10
-466.605
 20
-457.278
 40
7.791
 50
53.658
 51
73.82
  0
ARC
  8
APS_GEOMETRY
 10
-464.915
 20
-454.968
 40
4.929
 50
26.03
 51
53.569
  0
ARC
  8
APS_GEOMETRY
 10
-465.434
 20
-455.221
 40
5.506
 50
360.0
 51
26.03
  0
ARC
  8
APS_GEOMETRY
 10
-465.65
 20
-455.221
 40
5.722
 50
345.282
 51
360.0
  0
ARC
  8
APS_GEOMETRY
 10
-465.099
 20
-455.366
 40
5.152
 50
329.767
 51
345.282
  0
ARC
  8
APS_GEOMETRY
 10
-464.787
 20
-455.548
 40
4.792
 50
313.168
 51
329.767
  0
ARC
  8
APS_GEOMETRY
 10
-464.672
 20
-455.671
 40
4.623
 50
296.267
 51
313.168
  0
ARC
  8
APS_GEOMETRY
 10
-462.04
 20
-460.988
 40
1.31
 50
116.565
 51
139.899
  0
ARC
  8
APS_GEOMETRY
 10
-462.694
 20
-460.438
 40
0.456
 50
139.899
 51
180.0
  0
ARC
  8
APS_GEOMETRY
 10
-462.643
 20
-460.438
 40
0.506
 50
180.0
 51
226.193
  0
ARC
  8
APS_GEOMETRY
 10
-461.708
 20
-459.462
 40
1.858
 50
226.193
 51
249.829
  0
ARC
  8
APS_GEOMETRY
 10
-464.388
 20
-466.843
 40
5.995
 50
53.249
 51
70.105
  0
ARC
  8
APS_GEOMETRY
 10
-463.171
 20
-465.212
 40
3.96
 50
32.471
 51
53.249
  0
ARC
  8
APS_GEOMETRY
 10
-463.738
 20
-465.574
 40
4.632
 50
23.305
 51
32.471
  0
ARC
  8
APS_GEOMETRY
 10
-467.243
 20
-467.083
 40
8.449
 50
16.521
 51
23.305
  0
ARC
  8
APS_GEOMETRY
 10
-469.976
 20
-467.894
 40
11.299
 50
11.429
 51
16.521
  0
ARC
  8
APS_GEOMETRY
 10
-477.721
 20
-469.46
 40
19.201
 50
7.524
 51
11.429
  0
ARC
  8
APS_GEOMETRY
 10
-452.057
 20
-466.042
 40
6.69
 50
187.765
 51
196.914
  0
ARC
  8
APS_GEOMETRY
 10
-457.528
 20
-467.706
 40
0.971
 50
196.914
 51
221.082
  0
ARC
  8
APS_GEOMETRY
 10
-457.507
 20
-467.687
 40
0.999
 50
221.082
 51
244.607
  0
ARC
  8
APS_GEOMETRY
 10
-455.171
 20
-462.765
 40
6.448
 50
244.607
 51
253.811
  0
ARC
  8
APS_GEOMETRY
 10
-457.225
 20
-469.77
 40
0.852
 50
51.45
 51
72.474
  0
ARC
  8
APS_GEOMETRY
 10
-457.436
 20
-470.034
 40
1.191
 50
33.69
 51
51.45
  0
ARC
  8
APS_GEOMETRY
 10
-457.485
 20
-470.067
 40
1.25
 50
16.639
 51
33.69
  0
ARC
  8
APS_GEOMETRY
 10
-457.545
 20
-470.085
 40
1.312
 50
360.0
 51
16.639
  0
ARC
  8
APS_GEOMETRY
 10
-457.563
 20
-470.085
 40
1.331
 50
338.993
 51
360.0
  0
ARC
  8
APS_GEOMETRY
 10
-458.376
 20
-469.773
 40
2.201
 50
322.696
 51
338.993
  0
ARC
  8
APS_GEOMETRY
 10
-458.679
 20
-469.542
 40
2.582
 50
308.603
 51
322.696
  0
ARC
  8
APS_GEOMETRY
 10
-458.887
 20
-469.281
 40
2.916
 50
295.346
 51
308.603
  0
ARC
  8
APS_GEOMETRY
 10
-459.983
 20
-466.868
 40
5.566
 50
279.583
 51
294.905
  0
ARC
  8
APS_GEOMETRY
 10
-461.416
 20
-458.378
 40
14.176
 50
270.0
 51
279.583
  0
ARC
  8
APS_GEOMETRY
 10
-461.416
 20
-462.218
 40
10.336
 50
261.247
 51
270.0
  0
ARC
  8
APS_GEOMETRY
 10
-462.078
 20
-466.519
 40
5.985
 50
249.737
 51
261.247
  0
ARC
  8
APS_GEOMETRY
 10
-462.513
 20
-467.697
 40
4.728
 50
235.345
 51
249.737
  0
ARC
  8
APS_GEOMETRY
 10
-463.063
 20
-468.493
 40
3.762
 50
219.198
 51
235.345
  0
ARC
  8
APS_GEOMETRY
 10
-461.906
 20
-467.506
 40
5.281
 50
209.076
 51
219.56
  0
ARC
  8
APS_GEOMETRY
 10
-459.236
 20
-466.022
 40
8.337
 50
200.735
 51
209.076
  0
ARC
  8
APS_GEOMETRY
 10
-455.551
 20
-464.627
 40
12.277
 50
197.881
 51
200.735
  0
ARC
  8
APS_GEOMETRY
 10
-440.411
 20
-459.742
 40
28.186
 50
195.997
 51
197.881
  0
ARC
  8
APS_GEOMETRY
 10
-429.22
 20
-456.533
 40
39.828
 50
194.664
 51
195.997
  0
ARC
  8
APS_GEOMETRY
 10
-398.222
 20
-448.422
 40
71.869
 50
193.671
 51
194.664
  0
ARC
  8
APS_GEOMETRY
 10
-476.827
 20
-467.532
 40
9.026
 50
13.61
 51
23.585
  0
ARC
  8
APS_GEOMETRY
 10
-470.918
 20
-464.952
 40
2.577
 50
23.585
 51
42.31
  0
ARC
  8
APS_GEOMETRY
 10
-470.382
 20
-464.464
 40
1.853
 50
42.31
 51
67.521
  0
ARC
  8
APS_GEOMETRY
 10
-470.806
 20
-465.49
 40
2.962
 50
67.521
 51
87.397
  0
LINE
  8
APS_GEOMETRY
 10
-471.603
 11
-471.783
 20
-454.191
 21
-458.001
  0
LINE
  8
APS_GEOMETRY
 10
-471.783
 11
-471.783
 20
-458.001
 21
-458.063
  0
LINE
  8
APS_GEOMETRY
 10
-471.783
 11
-471.783
 20
-458.063
 21
-458.148
  0
ARC
  8
APS_GEOMETRY
 10
-469.136
 20
-458.148
 40
2.647
 50
180.0
 51
192.339
  0
ARC
  8
APS_GEOMETRY
 10
-471.241
 20
-458.609
 40
0.493
 50
192.339
 51
221.186
  0
ARC
  8
APS_GEOMETRY
 10
-471.291
 20
-458.653
 40
0.426
 50
221.186
 51
253.872
  0
ARC
  8
APS_GEOMETRY
 10
-470.933
 20
-457.415
 40
1.715
 50
253.872
 51
270.0
  0
ARC
  8
APS_GEOMETRY
 10
-470.933
 20
-455.144
 40
3.985
 50
270.0
 51
289.569
  0
ARC
  8
APS_GEOMETRY
 10
-470.208
 20
-457.182
 40
1.822
 50
289.569
 51
318.681
  0
ARC
  8
APS_GEOMETRY
 10
-470.404
 20
-457.01
 40
2.083
 50
318.681
 51
344.628
  0
ARC
  8
APS_GEOMETRY
 10
-474.056
 20
-456.006
 40
5.87
 50
344.628
 51
0.0
  0
ARC
  8
APS_GEOMETRY
 10
-472.32
 20
-456.006
 40
4.134
 50
0.0
 51
35.369
  0
ARC
  8
APS_GEOMETRY
 10
-470.426
 20
-454.662
 40
1.812
 50
35.369
 51
90.0
  0
ARC
  8
APS_GEOMETRY
 10
-470.426
 20
-454.682
 40
1.831
 50
90.0
 51
108.435
  0
ARC
  8
APS_GEOMETRY
 10
-470.782
 20
-453.613
 40
0.705
 50
108.435
 51
138.366
  0
ARC
  8
APS_GEOMETRY
 10
-470.687
 20
-453.698
 40
0.833
 50
138.366
 51
164.291
  0
ARC
  8
APS_GEOMETRY
 10
-468.444
 20
-454.329
 40
3.162
 50
164.291
 51
177.51
  0
LINE
  8
APS_GEOMETRY
 10
-442.494
 11
-434.351
 20
-450.381
 21
-457.511
  0
ARC
  8
APS_GEOMETRY
 10
-426.735
 20
-448.771
 40
11.592
 50
228.93
 51
232.674
  0
ARC
  8
APS_GEOMETRY
 10
-430.971
 20
-454.327
 40
4.605
 50
232.674
 51
238.617
  0
ARC
  8
APS_GEOMETRY
 10
-432.037
 20
-456.075
 40
2.558
 50
238.617
 51
249.131
  0
ARC
  8
APS_GEOMETRY
 10
-432.716
 20
-457.853
 40
0.655
 50
249.131
 51
270.0
  0
ARC
  8
APS_GEOMETRY
 10
-432.716
 20
-457.934
 40
0.574
 50
270.0
 51
334.898
  0
ARC
  8
APS_GEOMETRY
 10
-435.365
 20
-456.693
 40
3.499
 50
334.898
 51
0.0
  0
ARC
  8
APS_GEOMETRY
 10
-460.98
 20
-456.693
 40
29.115
 50
360.0
 51
2.026
  0
ARC
  8
APS_GEOMETRY
 10
-445.537
 20
-456.147
 40
13.662
 50
2.026
 51
4.984
  0
ARC
  8
APS_GEOMETRY
 10
-440.487
 20
-455.706
 40
8.593
 50
4.984
 51
9.673
  0
ARC
  8
APS_GEOMETRY
 10
-434.667
 20
-454.714
 40
2.689
 50
9.673
 51
18.06
  0
ARC
  8
APS_GEOMETRY
 10
-433.782
 20
-454.425
 40
1.758
 50
18.06
 51
42.397
  0
ARC
  8
APS_GEOMETRY
 10
-434.068
 20
-454.687
 40
2.145
 50
42.397
 51
64.398
  0
ARC
  8
APS_GEOMETRY
 10
-431.456
 20
-449.294
 40
3.847
 50
233.633
 51
244.026
  0
ARC
  8
APS_GEOMETRY
 10
-432.878
 20
-451.225
 40
1.448
 50
216.656
 51
233.633
  0
ARC
  8
APS_GEOMETRY
 10
-433.096
 20
-451.388
 40
1.176
 50
196.082
 51
216.656
  0
ARC
  8
APS_GEOMETRY
 10
-432.384
 20
-451.183
 40
1.917
 50
180.0
 51
196.082
  0
ARC
  8
APS_GEOMETRY
 10
-432.908
 20
-451.183
 40
1.394
 50
133.202
 51
180.0
  0
ARC
  8
APS_GEOMETRY
 10
-431.808
 20
-452.353
 40
3.0
 50
101.788
 51
133.202
  0
ARC
  8
APS_GEOMETRY
 10
-431.552
 20
-453.501
 40
4.176
 50
96.633
 51
102.011
  0
ARC
  8
APS_GEOMETRY
 10
-430.622
 20
-461.496
 40
12.225
 50
93.489
 51
96.633
  0
ARC
  8
APS_GEOMETRY
 10
-430.224
 20
-468.025
 40
18.766
 50
91.439
 51
93.489
  0
ARC
  8
APS_GEOMETRY
 10
-429.74
 20
-487.322
 40
38.069
 50
90.0
 51
91.439
  0
ARC
  8
APS_GEOMETRY
 10
-429.74
 20
-484.735
 40
35.482
 50
87.994
 51
90.0
  0
ARC
  8
APS_GEOMETRY
 10
-429.094
 20
-466.315
 40
17.05
 50
85.101
 51
87.994
  0
ARC
  8
APS_GEOMETRY
 10
-428.571
 20
-460.207
 40
10.92
 50
80.595
 51
85.101
  0
ARC
  8
APS_GEOMETRY
 10
-427.377
 20
-453.0
 40
3.615
 50
72.759
 51
80.595
  0
ARC
  8
APS_GEOMETRY
 10
-427.015
 20
-451.88
 40
2.438
 50
40.956
 51
73.072
  0
ARC
  8
APS_GEOMETRY
 10
-426.325
 20
-451.281
 40
1.524
 50
360.0
 51
40.956
  0
ARC
  8
APS_GEOMETRY
 10
-426.234
 20
-451.281
 40
1.432
 50
322.573
 51
360.0
  0
ARC
  8
APS_GEOMETRY
 10
-426.986
 20
-450.705
 40
2.38
 50
293.749
 51
322.573
  0
ARC
  8
APS_GEOMETRY
 10
-423.964
 20
-457.645
 40
5.19
 50
113.429
 51
119.291
  0
ARC
  8
APS_GEOMETRY
 10
-425.984
 20
-454.045
 40
1.062
 50
119.291
 51
132.274
  0
ARC
  8
APS_GEOMETRY
 10
-426.1
 20
-453.917
 40
0.889
 50
132.274
 51
147.653
  0
ARC
  8
APS_GEOMETRY
 10
-425.259
 20
-454.45
 40
1.884
 50
147.653
 51
158.199
  0
ARC
  8
APS_GEOMETRY
 10
-423.979
 20
-454.989
 40
3.273
 50
157.751
 51
167.885
  0
ARC
  8
APS_GEOMETRY
 10
-417.169
 20
-456.451
 40
10.238
 50
167.885
 51
173.61
  0
ARC
  8
APS_GEOMETRY
 10
-411.146
 20
-457.126
 40
16.299
 50
173.61
 51
177.221
  0
ARC
  8
APS_GEOMETRY
 10
-392.568
 20
-458.027
 40
34.899
 50
177.221
 51
179.689
  0
LINE
  8
APS_GEOMETRY
 10
-427.467
 11
-427.467
 20
-457.838
 21
-463.168
  0
ARC
  8
APS_GEOMETRY
 10
-209.784
 20
-463.168
 40
217.683
 50
180.0
 51
180.161
  0
ARC
  8
APS_GEOMETRY
 10
-20.874
 20
-462.636
 40
406.593
 50
180.161
 51
180.279
  0
LINE
  8
APS_GEOMETRY
 10
-427.463
 11
-427.457
 20
-464.62
 21
-465.514
  0
LINE
  8
APS_GEOMETRY
 10
-427.457
 11
-427.45
 20
-465.514
 21
-466.52
  0
ARC
  8
APS_GEOMETRY
 10
-466.292
 20
-466.741
 40
38.843
 50
358.204
 51
0.326
  0
ARC
  8
APS_GEOMETRY
 10
-447.815
 20
-467.32
 40
20.356
 50
355.274
 51
358.204
  0
ARC
  8
APS_GEOMETRY
 10
-441.384
 20
-467.852
 40
13.903
 50
350.991
 51
355.274
  0
ARC
  8
APS_GEOMETRY
 10
-433.194
 20
-469.15
 40
5.612
 50
344.249
 51
350.991
  0
ARC
  8
APS_GEOMETRY
 10
-430.427
 20
-469.941
 40
2.733
 50
314.415
 51
344.445
  0
ARC
  8
APS_GEOMETRY
 10
-429.412
 20
-470.976
 40
1.284
 50
270.0
 51
314.415
  0
ARC
  8
APS_GEOMETRY
 10
-429.412
 20
-470.18
 40
2.08
 50
256.342
 51
270.0
  0
ARC
  8
APS_GEOMETRY
 10
-429.561
 20
-470.79
 40
1.452
 50
239.982
 51
256.342
  0
ARC
  8
APS_GEOMETRY
 10
-428.913
 20
-469.67
 40
2.746
 50
231.153
 51
239.982
  0
ARC
  8
APS_GEOMETRY
 10
-418.039
 20
-456.167
 40
20.083
 50
227.891
 51
231.153
  0
LINE
  8
APS_GEOMETRY
 10
-431.506
 11
-441.202
 20
-471.066
 21
-462.383
  0
ARC
  8
APS_GEOMETRY
 10
-444.938
 20
-466.519
 40
5.573
 50
47.911
 51
61.468
  0
ARC
  8
APS_GEOMETRY
 10
-442.886
 20
-462.746
 40
1.278
 50
61.468
 51
90.0
  0
ARC
  8
APS_GEOMETRY
 10
-442.886
 20
-462.028
 40
0.56
 50
90.0
 51
133.195
  0
ARC
  8
APS_GEOMETRY
 10
-442.334
 20
-462.616
 40
1.367
 50
133.195
 51
160.454
  0
ARC
  8
APS_GEOMETRY
 10
-440.562
 20
-463.245
 40
3.247
 50
160.454
 51
173.251
  0
ARC
  8
APS_GEOMETRY
 10
-432.229
 20
-464.231
 40
11.639
 50
173.251
 51
180.0
  0
ARC
  8
APS_GEOMETRY
 10
-409.558
 20
-464.231
 40
34.309
 50
180.0
 51
181.897
  0
ARC
  8
APS_GEOMETRY
 10
-427.73
 20
-464.833
 40
16.128
 50
181.897
 51
184.664
  0
ARC
  8
APS_GEOMETRY
 10
-433.686
 20
-465.319
 40
10.152
 50
184.664
 51
189.048
  0
ARC
  8
APS_GEOMETRY
 10
-440.586
 20
-466.418
 40
3.165
 50
189.048
 51
196.905
  0
ARC
  8
APS_GEOMETRY
 10
-441.681
 20
-466.751
 40
2.02
 50
196.905
 51
220.253
  0
ARC
  8
APS_GEOMETRY
 10
-441.659
 20
-466.732
 40
2.049
 50
220.253
 51
243.435
  0
ARC
  8
APS_GEOMETRY
 10
-443.658
 20
-470.763
 40
2.45
 50
37.921
 51
63.778
  0
ARC
  8
APS_GEOMETRY
 10
-442.642
 20
-469.971
 40
1.162
 50
360.0
 51
37.921
  0
ARC
  8
APS_GEOMETRY
 10
-443.094
 20
-469.971
 40
1.614
 50
324.268
 51
360.0
  0
ARC
  8
APS_GEOMETRY
 10
-443.698
 20
-469.536
 40
2.357
 50
294.86
 51
324.268
  0
ARC
  8
APS_GEOMETRY
 10
-444.696
 20
-467.381
 40
4.732
 50
278.78
 51
294.86
  0
ARC
  8
APS_GEOMETRY
 10
-446.386
 20
-456.441
 40
15.802
 50
270.0
 51
278.78
  0
ARC
  8
APS_GEOMETRY
 10
-446.386
 20
-459.277
 40
12.966
 50
260.383
 51
270.0
  0
ARC
  8
APS_GEOMETRY
 10
-447.752
 20
-467.342
 40
4.787
 50
244.522
 51
260.383
  0
ARC
  8
APS_GEOMETRY
 10
-448.742
 20
-469.419
 40
2.486
 50
216.549
 51
244.522
  0
ARC
  8
APS_GEOMETRY
 10
-449.553
 20
-470.02
 40
1.477
 50
180.0
 51
216.549
  0
ARC
  8
APS_GEOMETRY
 10
-449.026
 20
-470.02
 40
2.003
 50
164.65
 51
180.0
  0
ARC
  8
APS_GEOMETRY
 10
-450.169
 20
-469.706
 40
0.818
 50
140.528
 51
164.65
  0
ARC
  8
APS_GEOMETRY
 10
-449.706
 20
-470.087
 40
1.417
 50
126.135
 51
140.528
  0
ARC
  8
APS_GEOMETRY
 10
-444.879
 20
-476.698
 40
9.603
 50
120.619
 51
126.135
  0
ARC
  8
APS_GEOMETRY
 10
-450.602
 20
-467.037
 40
1.625
 50
300.784
 51
330.068
  0
ARC
  8
APS_GEOMETRY
 10
-451.685
 20
-466.414
 40
2.875
 50
330.068
 51
351.983
  0
ARC
  8
APS_GEOMETRY
 10
-469.866
 20
-464.044
 40
21.21
 50
352.493
 51
355.365
  0
ARC
  8
APS_GEOMETRY
 10
-491.798
 20
-462.265
 40
43.213
 50
355.365
 51
357.376
  0
ARC
  8
APS_GEOMETRY
 10
-507.154
 20
-461.562
 40
58.586
 50
357.376
 51
358.861
  0
ARC
  8
APS_GEOMETRY
 10
-548.067
 20
-460.748
 40
99.507
 50
358.861
 51
0.0
  0
ARC
  8
APS_GEOMETRY
 10
-511.273
 20
-460.748
 40
62.712
 50
360.0
 51
1.926
  0
ARC
  8
APS_GEOMETRY
 10
-482.079
 20
-459.766
 40
33.503
 50
1.926
 51
4.562
  0
ARC
  8
APS_GEOMETRY
 10
-471.786
 20
-458.945
 40
23.176
 50
4.562
 51
8.366
  0
ARC
  8
APS_GEOMETRY
 10
-458.398
 20
-456.976
 40
9.644
 50
8.366
 51
14.265
  0
ARC
  8
APS_GEOMETRY
 10
-453.335
 20
-455.696
 40
4.422
 50
14.349
 51
23.629
  0
ARC
  8
APS_GEOMETRY
 10
-450.768
 20
-454.573
 40
1.62
 50
23.629
 51
38.991
  0
ARC
  8
APS_GEOMETRY
 10
-450.758
 20
-454.565
 40
1.608
 50
38.991
 51
54.462
  0
ARC
  8
APS_GEOMETRY
 10
-452.26
 20
-456.668
 40
4.192
 50
54.462
 51
64.026
  0
ARC
  8
APS_GEOMETRY
 10
-448.021
 20
-447.984
 40
5.471
 50
235.472
 51
243.947
  0
ARC
  8
APS_GEOMETRY
 10
-450.211
 20
-451.167
 40
1.608
 50
219.806
 51
235.472
  0
ARC
  8
APS_GEOMETRY
 10
-450.543
 20
-451.443
 40
1.176
 50
198.939
 51
219.806
  0
ARC
  8
APS_GEOMETRY
 10
-450.307
 20
-451.362
 40
1.425
 50
180.0
 51
198.939
  0
ARC
  8
APS_GEOMETRY
 10
-450.377
 20
-451.362
 40
1.356
 50
126.254
 51
180.0
  0
ARC
  8
APS_GEOMETRY
 10
-448.307
 20
-454.185
 40
4.856
 50
98.616
 51
126.254
  0
ARC
  8
APS_GEOMETRY
 10
-448.016
 20
-456.516
 40
7.205
 50
94.456
 51
98.13
  0
ARC
  8
APS_GEOMETRY
 10
-446.892
 20
-470.942
 40
21.675
 50
92.337
 51
94.456
  0
ARC
  8
APS_GEOMETRY
 10
-446.412
 20
-482.682
 40
33.424
 50
90.963
 51
92.337
  0
ARC
  8
APS_GEOMETRY
 10
-445.83
 20
-517.356
 40
68.103
 50
90.0
 51
90.963
  0
ARC
  8
APS_GEOMETRY
 10
-445.83
 20
-461.664
 40
12.411
 50
83.928
 51
90.0
  0
ARC
  8
APS_GEOMETRY
 10
-444.812
 20
-452.095
 40
2.788
 50
71.095
 51
83.928
  0
ARC
  8
APS_GEOMETRY
 10
-444.719
 20
-451.824
 40
2.501
 50
56.848
 51
71.095
  0
ARC
  8
APS_GEOMETRY
 10
-447.47
 20
-456.036
 40
7.532
 50
48.652
 51
56.848
  0
ARC
  8
APS_GEOMETRY
 10
-413.09
 20
-469.557
 40
20.304
 50
84.71
 51
90.0
  0
ARC
  8
APS_GEOMETRY
 10
-412.718
 20
-465.537
 40
16.267
 50
78.799
 51
84.71
  0
ARC
  8
APS_GEOMETRY
 10
-410.31
 20
-453.365
 40
3.859
 50
49.783
 51
78.771
  0
ARC
  8
APS_GEOMETRY
 10
-408.699
 20
-451.461
 40
1.365
 50
360.0
 51
49.783
  0
ARC
  8
APS_GEOMETRY
 10
-408.844
 20
-451.461
 40
1.51
 50
342.759
 51
360.0
  0
ARC
  8
APS_GEOMETRY
 10
-408.057
 20
-451.705
 40
0.685
 50
317.045
 51
342.759
  0
ARC
  8
APS_GEOMETRY
 10
-408.437
 20
-451.351
 40
1.205
 50
301.817
 51
317.045
  0
ARC
  8
APS_GEOMETRY
 10
-414.065
 20
-442.28
 40
11.88
 50
296.98
 51
301.817
  0
ARC
  8
APS_GEOMETRY
 10
-408.064
 20
-454.089
 40
1.366
 50
116.565
 51
149.078
  0
ARC
  8
APS_GEOMETRY
 10
-406.305
 20
-455.143
 40
3.417
 50
149.078
 51
169.469
  0
ARC
  8
APS_GEOMETRY
 10
-402.552
 20
-455.84
 40
7.234
 50
169.469
 51
174.598
  0
ARC
  8
APS_GEOMETRY
 10
-383.22
 20
-457.669
 40
26.652
 50
174.598
 51
177.269
  0
ARC
  8
APS_GEOMETRY
 10
-366.222
 20
-458.479
 40
43.67
 50
177.269
 51
178.901
  0
ARC
  8
APS_GEOMETRY
 10
-313.568
 20
-459.489
 40
96.333
 50
178.901
 51
180.0
  0
ARC
  8
APS_GEOMETRY
 10
-206.573
 20
-459.489
 40
203.328
 50
180.0
 51
180.88
  0
ARC
  8
APS_GEOMETRY
 10
-331.833
 20
-461.413
 40
78.054
 50
180.88
 51
182.3
  0
ARC
  8
APS_GEOMETRY
 10
-368.446
 20
-462.884
 40
41.411
 50
182.3
 51
184.974
  0
ARC
  8
APS_GEOMETRY
 10
-403.356
 20
-465.922
 40
6.369
 50
184.974
 51
191.793
  0
ARC
  8
APS_GEOMETRY
 10
-407.411
 20
-466.698
 40
2.242
 50
193.57
 51
205.787
  0
ARC
  8
APS_GEOMETRY
 10
-408.42
 20
-467.185
 40
1.122
 50
205.787
 51
223.091
  0
ARC
  8
APS_GEOMETRY
 10
-408.164
 20
-466.946
 40
1.472
 50
223.091
 51
236.441
  0
ARC
  8
APS_GEOMETRY
 10
-406.023
 20
-463.717
 40
5.346
 50
236.441
 51
243.435
  0
ARC
  8
APS_GEOMETRY
 10
-409.301
 20
-470.452
 40
2.146
 50
37.185
 51
65.556
  0
ARC
  8
APS_GEOMETRY
 10
-408.602
 20
-469.922
 40
1.268
 50
0.0
 51
37.185
  0
ARC
  8
APS_GEOMETRY
 10
-408.64
 20
-469.922
 40
1.306
 50
312.039
 51
360.0
  0
ARC
  8
APS_GEOMETRY
 10
-410.196
 20
-468.196
 40
3.629
 50
283.815
 51
312.039
  0
ARC
  8
APS_GEOMETRY
 10
-412.766
 20
-457.544
 40
14.587
 50
279.273
 51
283.627
  0
ARC
  8
APS_GEOMETRY
 10
-413.793
 20
-451.251
 40
20.963
 50
275.641
 51
279.273
  0
ARC
  8
APS_GEOMETRY
 10
-414.186
 20
-447.274
 40
24.959
 50
272.588
 51
275.641
  0
ARC
  8
APS_GEOMETRY
 10
-414.627
 20
-437.516
 40
34.728
 50
270.0
 51
272.588
  0
ARC
  8
APS_GEOMETRY
 10
-414.627
 20
-451.297
 40
20.947
 50
262.774
 51
270.0
  0
ARC
  8
APS_GEOMETRY
 10
-416.516
 20
-466.19
 40
5.934
 50
249.175
 51
262.774
  0
ARC
  8
APS_GEOMETRY
 10
-417.702
 20
-469.309
 40
2.597
 50
221.23
 51
249.175
  0
ARC
  8
APS_GEOMETRY
 10
-418.736
 20
-470.216
 40
1.221
 50
180.0
 51
221.23
  0
ARC
  8
APS_GEOMETRY
 10
-418.937
 20
-470.216
 40
1.021
 50
142.696
 51
180.0
  0
ARC
  8
APS_GEOMETRY
 10
-417.327
 20
-471.443
 40
3.046
 50
121.357
 51
142.696
  0
ARC
  8
APS_GEOMETRY
 10
-420.048
 20
-466.986
 40
2.177
 50
301.477
 51
324.728
  0
ARC
  8
APS_GEOMETRY
 10
-419.758
 20
-467.191
 40
1.822
 50
324.728
 51
350.181
  0
ARC
  8
APS_GEOMETRY
 10
-428.878
 20
-465.682
 40
11.066
 50
350.538
 51
355.423
  0
ARC
  8
APS_GEOMETRY
 10
-466.354
 20
-462.682
 40
48.662
 50
355.423
 51
357.752
  0
ARC
  8
APS_GEOMETRY
 10
-501.151
 20
-461.316
 40
83.485
 50
357.752
 51
359.111
  0
ARC
  8
APS_GEOMETRY
 10
-612.524
 20
-459.587
 40
194.872
 50
359.111
 51
0.0
  0
ARC
  8
APS_GEOMETRY
 10
-485.264
 20
-459.587
 40
67.612
 50
0.0
 51
1.773
  0
ARC
  8
APS_GEOMETRY
 10
-445.584
 20
-458.359
 40
27.913
 50
1.773
 51
4.532
  0
ARC
  8
APS_GEOMETRY
 10
-433.524
 20
-457.403
 40
15.814
 50
4.532
 51
9.384
  0
ARC
  8
APS_GEOMETRY
 10
-421.277
 20
-455.379
 40
3.402
 50
9.384
 51
19.855
  0
ARC
  8
APS_GEOMETRY
 10
-419.656
 20
-454.763
 40
1.668
 50
18.853
 51
42.158
  0
ARC
  8
APS_GEOMETRY
 10
-421.045
 20
-456.021
 40
3.542
 50
42.158
 51
58.092
  0
ARC
  8
APS_GEOMETRY
 10
-414.931
 20
-446.572
 40
7.713
 50
230.711
 51
236.634
  0
ARC
  8
APS_GEOMETRY
 10
-418.772
 20
-451.266
 40
1.648
 50
217.875
 51
230.711
  0
ARC
  8
APS_GEOMETRY
 10
-419.298
 20
-451.676
 40
0.981
 50
196.928
 51
217.875
  0
ARC
  8
APS_GEOMETRY
 10
-418.805
 20
-451.526
 40
1.496
 50
180.0
 51
196.928
  0
ARC
  8
APS_GEOMETRY
 10
-419.128
 20
-451.526
 40
1.174
 50
148.791
 51
180.0
  0
ARC
  8
APS_GEOMETRY
 10
-418.82
 20
-451.712
 40
1.533
 50
121.569
 51
148.791
  0
ARC
  8
APS_GEOMETRY
 10
-418.267
 20
-452.612
 40
2.589
 50
112.806
 51
121.569
  0
ARC
  8
APS_GEOMETRY
 10
-416.774
 20
-456.164
 40
6.443
 50
107.254
 51
112.806
  0
ARC
  8
APS_GEOMETRY
 10
-415.859
 20
-459.11
 40
9.527
 50
103.487
 51
107.254
  0
ARC
  8
APS_GEOMETRY
 10
-413.764
 20
-467.846
 40
18.511
 50
100.784
 51
103.487
  0
ARC
  8
APS_GEOMETRY
 10
-413.107
 20
-470.261
 40
21.008
 50
95.643
 51
101.31
  0
ARC
  8
APS_GEOMETRY
 10
-413.09
 20
-470.434
 40
21.181
 50
90.0
 51
95.643
  0
ARC
  8
APS_GEOMETRY
 10
-392.755
 20
-459.77
 40
10.632
 50
77.257
 51
90.0
  0
ARC
  8
APS_GEOMETRY
 10
-392.863
 20
-460.248
 40
11.122
 50
64.799
 51
77.257
  0
ARC
  8
APS_GEOMETRY
 10
-383.704
 20
-440.749
 40
10.421
 50
244.885
 51
251.175
  0
ARC
  8
APS_GEOMETRY
 10
-386.689
 20
-449.503
 40
1.173
 50
251.175
 51
270.0
  0
ARC
  8
APS_GEOMETRY
 10
-386.689
 20
-448.772
 40
1.903
 50
270.0
 51
278.82
  0
ARC
  8
APS_GEOMETRY
 10
-387.918
 20
-440.849
 40
9.922
 50
278.82
 51
282.68
  0
ARC
  8
APS_GEOMETRY
 10
-385.346
 20
-452.239
 40
1.755
 50
95.906
 51
102.995
  0
ARC
  8
APS_GEOMETRY
 10
-385.266
 20
-453.007
 40
2.528
 50
90.0
 51
95.906
  0
ARC
  8
APS_GEOMETRY
 10
-385.266
 20
-452.157
 40
1.678
 50
62.447
 51
90.0
  0
ARC
  8
APS_GEOMETRY
 10
-385.564
 20
-452.729
 40
2.323
 50
39.094
 51
62.447
  0
ARC
  8
APS_GEOMETRY
 10
-388.681
 20
-455.336
 40
6.386
 50
18.435
 51
39.611
  0
ARC
  8
APS_GEOMETRY
 10
-390.595
 20
-455.974
 40
8.403
 50
360.0
 51
18.435
  0
ARC
  8
APS_GEOMETRY
 10
-386.359
 20
-455.974
 40
4.167
 50
334.877
 51
360.0
  0
ARC
  8
APS_GEOMETRY
 10
-385.105
 20
-456.561
 40
2.783
 50
304.007
 51
334.877
  0
ARC
  8
APS_GEOMETRY
 10
-385.126
 20
-456.502
 40
2.843
 50
286.39
 51
303.69
  0
ARC
  8
APS_GEOMETRY
 10
-385.217
 20
-456.193
 40
3.165
 50
270.0
 51
286.39
  0
ARC
  8
APS_GEOMETRY
 10
-385.217
 20
-456.23
 40
3.128
 50
255.155
 51
270.0
  0
ARC
  8
APS_GEOMETRY
 10
-385.56
 20
-457.523
 40
1.791
 50
235.491
 51
255.155
  0
ARC
  8
APS_GEOMETRY
 10
-385.388
 20
-457.273
 40
2.094
 50
218.48
 51
235.491
  0
ARC
  8
APS_GEOMETRY
 10
-382.577
 20
-455.039
 40
5.684
 50
208.179
 51
218.48
  0
ARC
  8
APS_GEOMETRY
 10
-411.389
 20
-470.678
 40
27.099
 50
28.56
 51
31.664
  0
ARC
  8
APS_GEOMETRY
 10
-393.783
 20
-459.82
 40
6.414
 50
31.664
 51
38.047
  0
ARC
  8
APS_GEOMETRY
 10
-392.503
 20
-458.818
 40
4.788
 50
38.047
 51
46.56
  0
ARC
  8
APS_GEOMETRY
 10
-393.169
 20
-459.521
 40
5.756
 50
46.56
 51
54.324
  0
ARC
  8
APS_GEOMETRY
 10
-393.553
 20
-460.182
 40
6.517
 50
54.968
 51
71.48
  0
ARC
  8
APS_GEOMETRY
 10
-393.131
 20
-458.923
 40
5.19
 50
71.48
 51
90.0
  0
ARC
  8
APS_GEOMETRY
 10
-393.131
 20
-457.359
 40
3.625
 50
90.0
 51
114.63
  0
ARC
  8
APS_GEOMETRY
 10
-393.313
 20
-456.962
 40
3.188
 50
114.63
 51
140.921
  0
ARC
  8
APS_GEOMETRY
 10
-392.775
 20
-457.398
 40
3.881
 50
140.921
 51
163.13
  0
ARC
  8
APS_GEOMETRY
 10
-390.087
 20
-458.214
 40
6.691
 50
163.13
 51
180.0
  0
ARC
  8
APS_GEOMETRY
 10
-386.6
 20
-458.214
 40
10.178
 50
180.0
 51
195.44
  0
ARC
  8
APS_GEOMETRY
 10
-387.129
 20
-458.36
 40
9.629
 50
195.44
 51
211.316
  0
ARC
  8
APS_GEOMETRY
 10
-389.674
 20
-459.855
 40
6.678
 50
211.708
 51
240.457
  0
ARC
  8
APS_GEOMETRY
 10
-389.845
 20
-460.156
 40
6.332
 50
240.457
 51
270.0
  0
ARC
  8
APS_GEOMETRY
 10
-389.845
 20
-458.612
 40
7.875
 50
270.0
 51
279.549
  0
ARC
  8
APS_GEOMETRY
 10
-389.942
 20
-458.03
 40
8.466
 50
279.549
 51
288.759
  0
ARC
  8
APS_GEOMETRY
 10
-389.53
 20
-459.246
 40
7.182
 50
288.759
 51
299.545
  0
ARC
  8
APS_GEOMETRY
 10
-387.875
 20
-462.165
 40
3.826
 50
299.545
 51
314.341
  0
ARC
  8
APS_GEOMETRY
 10
-382.757
 20
-467.481
 40
3.553
 50
120.141
 51
133.452
  0
ARC
  8
APS_GEOMETRY
 10
-384.187
 20
-465.019
 40
0.706
 50
90.0
 51
120.141
  0
ARC
  8
APS_GEOMETRY
 10
-384.187
 20
-465.428
 40
1.115
 50
61.952
 51
90.0
  0
ARC
  8
APS_GEOMETRY
 10
-384.353
 20
-465.739
 40
1.468
 50
37.569
 51
61.952
  0
ARC
  8
APS_GEOMETRY
 10
-384.662
 20
-465.978
 40
1.859
 50
17.665
 51
37.569
  0
ARC
  8
APS_GEOMETRY
 10
-385.135
 20
-466.128
 40
2.354
 50
360.0
 51
17.665
  0
ARC
  8
APS_GEOMETRY
 10
-386.321
 20
-466.128
 40
3.54
 50
344.932
 51
0.0
  0
ARC
  8
APS_GEOMETRY
 10
-389.47
 20
-465.28
 40
6.801
 50
334.075
 51
344.932
  0
ARC
  8
APS_GEOMETRY
 10
-389.569
 20
-465.232
 40
6.912
 50
323.374
 51
334.075
  0
ARC
  8
APS_GEOMETRY
 10
-387.537
 20
-466.743
 40
4.38
 50
309.92
 51
323.374
  0
ARC
  8
APS_GEOMETRY
 10
-385.507
 20
-469.138
 40
1.24
 50
289.026
 51
308.991
  0
ARC
  8
APS_GEOMETRY
 10
-387.673
 20
-462.855
 40
7.886
 50
281.143
 51
289.026
  0
ARC
  8
APS_GEOMETRY
 10
-385.476
 20
-474.246
 40
3.715
 50
100.437
 51
110.12
  0
ARC
  8
APS_GEOMETRY
 10
-382.565
 20
-482.191
 40
12.177
 50
110.12
 51
115.463
  0
ARC
  8
APS_GEOMETRY
 10
-392.956
 20
-460.451
 40
11.919
 50
282.94
 51
295.628
  0
ARC
  8
APS_GEOMETRY
 10
-392.853
 20
-460.898
 40
11.46
 50
270.0
 51
282.94
  0
ARC
  8
APS_GEOMETRY
 10
-392.853
 20
-460.221
 40
12.137
 50
257.307
 51
270.0
  0
ARC
  8
APS_GEOMETRY
 10
-392.341
 20
-457.946
 40
14.469
 50
245.686
 51
257.307
  0
ARC
  8
APS_GEOMETRY
 10
-393.626
 20
-460.766
 40
11.37
 50
228.801
 51
245.735
  0
ARC
  8
APS_GEOMETRY
 10
-393.604
 20
-460.742
 40
11.402
 50
211.891
 51
228.801
  0
ARC
  8
APS_GEOMETRY
 10
-392.931
 20
-460.257
 40
12.231
 50
196.728
 51
212.152
  0
ARC
  8
APS_GEOMETRY
 10
-394.675
 20
-460.781
 40
10.41
 50
180.0
 51
196.728
  0
ARC
  8
APS_GEOMETRY
 10
-394.421
 20
-460.781
 40
10.663
 50
161.184
 51
180.0
  0
ARC
  8
APS_GEOMETRY
 10
-393.737
 20
-461.014
 40
11.386
 50
142.98
 51
161.184
  0
ARC
  8
APS_GEOMETRY
 10
-393.205
 20
-461.421
 40
12.056
 50
127.824
 51
142.958
  0
ARC
  8
APS_GEOMETRY
 10
-392.328
 20
-462.551
 40
13.486
 50
113.52
 51
127.824
  0
ARC
  8
APS_GEOMETRY
 10
-392.613
 20
-461.891
 40
12.768
 50
101.927
 51
113.527
  0
ARC
  8
APS_GEOMETRY
 10
-392.755
 20
-461.219
 40
12.08
 50
90.0
 51
101.927
  0
ARC
  8
APS_GEOMETRY
 10
-370.481
 20
-469.557
 40
20.304
 50
84.71
 51
90.0
  0
ARC
  8
APS_GEOMETRY
 10
-370.109
 20
-465.537
 40
16.267
 50
78.799
 51
84.71
  0
ARC
  8
APS_GEOMETRY
 10
-367.7
 20
-453.365
 40
3.859
 50
49.783
 51
78.771
  0
ARC
  8
APS_GEOMETRY
 10
-366.09
 20
-451.461
 40
1.365
 50
360.0
 51
49.783
  0
ARC
  8
APS_GEOMETRY
 10
-366.235
 20
-451.461
 40
1.51
 50
342.759
 51
360.0
  0
ARC
  8
APS_GEOMETRY
 10
-365.447
 20
-451.705
 40
0.685
 50
317.045
 51
342.759
  0
ARC
  8
APS_GEOMETRY
 10
-365.828
 20
-451.351
 40
1.205
 50
301.817
 51
317.045
  0
ARC
  8
APS_GEOMETRY
 10
-371.456
 20
-442.28
 40
11.88
 50
296.98
 51
301.817
  0
ARC
  8
APS_GEOMETRY
 10
-365.455
 20
-454.089
 40
1.366
 50
116.565
 51
149.078
  0
ARC
  8
APS_GEOMETRY
 10
-363.695
 20
-455.143
 40
3.417
 50
149.078
 51
169.469
  0
ARC
  8
APS_GEOMETRY
 10
-359.943
 20
-455.84
 40
7.234
 50
169.469
 51
174.598
  0
ARC
  8
APS_GEOMETRY
 10
-340.611
 20
-457.669
 40
26.652
 50
174.598
 51
177.269
  0
ARC
  8
APS_GEOMETRY
 10
-323.612
 20
-458.479
 40
43.67
 50
177.269
 51
178.901
  0
ARC
  8
APS_GEOMETRY
 10
-270.959
 20
-459.489
 40
96.333
 50
178.901
 51
180.0
  0
ARC
  8
APS_GEOMETRY
 10
-163.964
 20
-459.489
 40
203.328
 50
180.0
 51
180.88
  0
ARC
  8
APS_GEOMETRY
 10
-289.224
 20
-461.413
 40
78.054
 50
180.88
 51
182.3
  0
ARC
  8
APS_GEOMETRY
 10
-325.837
 20
-462.884
 40
41.411
 50
182.3
 51
184.974
  0
ARC
  8
APS_GEOMETRY
 10
-360.747
 20
-465.922
 40
6.369
 50
184.974
 51
191.793
  0
ARC
  8
APS_GEOMETRY
 10
-364.802
 20
-466.698
 40
2.242
 50
193.57
 51
205.787
  0
ARC
  8
APS_GEOMETRY
 10
-365.811
 20
-467.185
 40
1.122
 50
205.787
 51
223.091
  0
ARC
  8
APS_GEOMETRY
 10
-365.555
 20
-466.946
 40
1.472
 50
223.091
 51
236.441
  0
ARC
  8
APS_GEOMETRY
 10
-363.413
 20
-463.717
 40
5.346
 50
236.441
 51
243.435
  0
ARC
  8
APS_GEOMETRY
 10
-366.692
 20
-470.452
 40
2.146
 50
37.185
 51
65.556
  0
ARC
  8
APS_GEOMETRY
 10
-365.993
 20
-469.922
 40
1.268
 50
0.0
 51
37.185
  0
ARC
  8
APS_GEOMETRY
 10
-366.031
 20
-469.922
 40
1.306
 50
312.039
 51
360.0
  0
ARC
  8
APS_GEOMETRY
 10
-367.586
 20
-468.196
 40
3.629
 50
283.815
 51
312.039
  0
ARC
  8
APS_GEOMETRY
 10
-370.157
 20
-457.544
 40
14.587
 50
279.273
 51
283.627
  0
ARC
  8
APS_GEOMETRY
 10
-371.184
 20
-451.251
 40
20.963
 50
275.641
 51
279.273
  0
ARC
  8
APS_GEOMETRY
 10
-371.577
 20
-447.274
 40
24.959
 50
272.588
 51
275.641
  0
ARC
  8
APS_GEOMETRY
 10
-372.018
 20
-437.516
 40
34.728
 50
270.0
 51
272.588
  0
ARC
  8
APS_GEOMETRY
 10
-372.018
 20
-451.297
 40
20.947
 50
262.774
 51
270.0
  0
ARC
  8
APS_GEOMETRY
 10
-373.906
 20
-466.19
 40
5.934
 50
249.175
 51
262.774
  0
ARC
  8
APS_GEOMETRY
 10
-375.093
 20
-469.309
 40
2.597
 50
221.23
 51
249.175
  0
ARC
  8
APS_GEOMETRY
 10
-376.127
 20
-470.216
 40
1.221
 50
180.0
 51
221.23
  0
ARC
  8
APS_GEOMETRY
 10
-376.328
 20
-470.216
 40
1.021
 50
142.696
 51
180.0
  0
ARC
  8
APS_GEOMETRY
 10
-374.717
 20
-471.443
 40
3.046
 50
121.357
 51
142.696
  0
ARC
  8
APS_GEOMETRY
 10
-377.439
 20
-466.986
 40
2.177
 50
301.477
 51
324.728
  0
ARC
  8
APS_GEOMETRY
 10
-377.149
 20
-467.191
 40
1.822
 50
324.728
 51
350.181
  0
ARC
  8
APS_GEOMETRY
 10
-386.269
 20
-465.682
 40
11.066
 50
350.538
 51
355.423
  0
ARC
  8
APS_GEOMETRY
 10
-423.745
 20
-462.682
 40
48.662
 50
355.423
 51
357.752
  0
ARC
  8
APS_GEOMETRY
 10
-458.542
 20
-461.316
 40
83.485
 50
357.752
 51
359.111
  0
ARC
  8
APS_GEOMETRY
 10
-569.915
 20
-459.587
 40
194.872
 50
359.111
 51
0.0
  0
ARC
  8
APS_GEOMETRY
 10
-442.655
 20
-459.587
 40
67.612
 50
0.0
 51
1.773
  0
ARC
  8
APS_GEOMETRY
 10
-402.975
 20
-458.359
 40
27.913
 50
1.773
 51
4.532
  0
ARC
  8
APS_GEOMETRY
 10
-390.914
 20
-457.403
 40
15.814
 50
4.532
 51
9.384
  0
ARC
  8
APS_GEOMETRY
 10
-378.668
 20
-455.379
 40
3.402
 50
9.384
 51
19.855
  0
ARC
  8
APS_GEOMETRY
 10
-377.047
 20
-454.763
 40
1.668
 50
18.853
 51
42.158
  0
ARC
  8
APS_GEOMETRY
 10
-378.436
 20
-456.021
 40
3.542
 50
42.158
 51
58.092
  0
ARC
  8
APS_GEOMETRY
 10
-372.322
 20
-446.572
 40
7.713
 50
230.711
 51
236.634
  0
ARC
  8
APS_GEOMETRY
 10
-376.162
 20
-451.266
 40
1.648
 50
217.875
 51
230.711
  0
ARC
  8
APS_GEOMETRY
 10
-376.689
 20
-451.676
 40
0.981
 50
196.928
 51
217.875
  0
ARC
  8
APS_GEOMETRY
 10
-376.196
 20
-451.526
 40
1.496
 50
180.0
 51
196.928
  0
ARC
  8
APS_GEOMETRY
 10
-376.518
 20
-451.526
 40
1.174
 50
148.791
 51
180.0
  0
ARC
  8
APS_GEOMETRY
 10
-376.21
 20
-451.712
 40
1.533
 50
121.569
 51
148.791
  0
ARC
  8
APS_GEOMETRY
 10
-375.658
 20
-452.612
 40
2.589
 50
112.806
 51
121.569
  0
ARC
  8
APS_GEOMETRY
 10
-374.164
 20
-456.164
 40
6.443
 50
107.254
 51
112.806
  0
ARC
  8
APS_GEOMETRY
 10
-373.249
 20
-459.11
 40
9.527
 50
103.487
 51
107.254
  0
ARC
  8
APS_GEOMETRY
 10
-371.154
 20
-467.846
 40
18.511
 50
100.784
 51
103.487
  0
ARC
  8
APS_GEOMETRY
 10
-370.498
 20
-470.261
 40
21.008
 50
95.643
 51
101.31
  0
ARC
  8
APS_GEOMETRY
 10
-370.481
 20
-470.434
 40
21.181
 50
90.0
 51
95.643
  0
LINE
  8
APS_GEOMETRY
 10
-335.907
 11
-335.907
 20
-464.215
 21
-455.614
  0
ARC
  8
APS_GEOMETRY
 10
-355.767
 20
-455.614
 40
19.861
 50
0.0
 51
2.404
  0
ARC
  8
APS_GEOMETRY
 10
-344.009
 20
-455.12
 40
8.092
 50
2.404
 51
6.17
  0
ARC
  8
APS_GEOMETRY
 10
-340.484
 20
-454.739
 40
4.547
 50
6.17
 51
12.824
  0
ARC
  8
APS_GEOMETRY
 10
-337.034
 20
-453.954
 40
1.009
 50
12.824
 51
26.98
  0
ARC
  8
APS_GEOMETRY
 10
-336.873
 20
-453.872
 40
0.828
 50
26.98
 51
59.65
  0
ARC
  8
APS_GEOMETRY
 10
-338.392
 20
-456.466
 40
3.834
 50
59.65
 51
74.667
  0
ARC
  8
APS_GEOMETRY
 10
-336.641
 20
-450.217
 40
2.656
 50
225.0
 51
253.887
  0
ARC
  8
APS_GEOMETRY
 10
-337.722
 20
-451.297
 40
1.128
 50
180.0
 51
225.0
  0
ARC
  8
APS_GEOMETRY
 10
-337.514
 20
-451.297
 40
1.336
 50
151.157
 51
180.0
  0
ARC
  8
APS_GEOMETRY
 10
-337.517
 20
-451.295
 40
1.332
 50
122.276
 51
151.157
  0
ARC
  8
APS_GEOMETRY
 10
-337.135
 20
-451.9
 40
2.048
 50
102.308
 51
122.276
  0
ARC
  8
APS_GEOMETRY
 10
-336.43
 20
-455.132
 40
5.356
 50
90.0
 51
102.308
  0
ARC
  8
APS_GEOMETRY
 10
-336.43
 20
-461.359
 40
11.583
 50
88.989
 51
90.0
  0
ARC
  8
APS_GEOMETRY
 10
-337.404
 20
-516.532
 40
66.764
 50
88.568
 51
88.989
  0
ARC
  8
APS_GEOMETRY
 10
-338.779
 20
-571.534
 40
121.783
 50
88.337
 51
88.568
  0
ARC
  8
APS_GEOMETRY
 10
-344.108
 20
-755.092
 40
305.419
 50
88.191
 51
88.337
  0
LINE
  8
APS_GEOMETRY
 10
-334.468
 11
-333.503
 20
-449.825
 21
-449.825
  0
ARC
  8
APS_GEOMETRY
 10
-336.744
 20
88.149
 40
537.985
 50
270.345
 51
270.49
  0
ARC
  8
APS_GEOMETRY
 10
-333.724
 20
-265.156
 40
184.666
 50
270.49
 51
270.736
  0
ARC
  8
APS_GEOMETRY
 10
-332.485
 20
-361.592
 40
88.223
 50
270.736
 51
271.253
  0
ARC
  8
APS_GEOMETRY
 10
-330.722
 20
-442.2
 40
7.595
 50
271.253
 51
273.013
  0
ARC
  8
APS_GEOMETRY
 10
-330.795
 20
-440.806
 40
8.991
 50
273.013
 51
274.5
  0
ARC
  8
APS_GEOMETRY
 10
-339.123
 20
-334.979
 40
115.145
 50
274.5
 51
274.915
  0
LINE
  8
APS_GEOMETRY
 10
-329.258
 11
-328.276
 20
-449.701
 21
-449.614
  0
LINE
  8
APS_GEOMETRY
 10
-328.276
 11
-326.995
 20
-449.614
 21
-449.498
  0
ARC
  8
APS_GEOMETRY
 10
-324.889
 20
-469.86
 40
20.471
 50
93.24
 51
95.906
  0
ARC
  8
APS_GEOMETRY
 10
-325.262
 20
-463.268
 40
13.868
 50
90.0
 51
93.24
  0
ARC
  8
APS_GEOMETRY
 10
-325.262
 20
-461.177
 40
11.777
 50
77.12
 51
90.0
  0
ARC
  8
APS_GEOMETRY
 10
-324.641
 20
-458.464
 40
8.993
 50
62.371
 51
77.12
  0
ARC
  8
APS_GEOMETRY
 10
-323.591
 20
-456.494
 40
6.761
 50
31.215
 51
62.517
  0
ARC
  8
APS_GEOMETRY
 10
-323.622
 20
-456.513
 40
6.798
 50
360.0
 51
31.215
  0
ARC
  8
APS_GEOMETRY
 10
-323.805
 20
-456.513
 40
6.981
 50
334.496
 51
360.0
  0
ARC
  8
APS_GEOMETRY
 10
-323.462
 20
-456.677
 40
6.601
 50
308.254
 51
334.496
  0
ARC
  8
APS_GEOMETRY
 10
-324.512
 20
-455.294
 40
8.337
 50
287.855
 51
308.034
  0
ARC
  8
APS_GEOMETRY
 10
-325.213
 20
-453.117
 40
10.623
 50
270.0
 51
287.855
  0
ARC
  8
APS_GEOMETRY
 10
-325.213
 20
-447.642
 40
16.098
 50
266.918
 51
270.0
  0
ARC
  8
APS_GEOMETRY
 10
-324.235
 20
-429.494
 40
34.273
 50
264.806
 51
266.918
  0
ARC
  8
APS_GEOMETRY
 10
-330.772
 20
-510.548
 40
47.047
 50
85.815
 51
86.634
  0
ARC
  8
APS_GEOMETRY
 10
-328.172
 20
-466.359
 40
2.782
 50
86.634
 51
90.0
  0
ARC
  8
APS_GEOMETRY
 10
-328.172
 20
-463.988
 40
0.41
 50
90.0
 51
139.686
  0
ARC
  8
APS_GEOMETRY
 10
-328.02
 20
-464.117
 40
0.61
 50
139.686
 51
180.0
  0
LINE
  8
APS_GEOMETRY
 10
-328.63
 11
-328.63
 20
-464.117
 21
-464.215
  0
LINE
  8
APS_GEOMETRY
 10
-328.63
 11
-328.516
 20
-464.215
 21
-466.897
  0
ARC
  8
APS_GEOMETRY
 10
-324.64
 20
-466.735
 40
3.879
 50
182.386
 51
193.753
  0
ARC
  8
APS_GEOMETRY
 10
-327.139
 20
-467.347
 40
1.306
 50
193.753
 51
213.408
  0
ARC
  8
APS_GEOMETRY
 10
-327.111
 20
-467.328
 40
1.339
 50
213.408
 51
232.628
  0
ARC
  8
APS_GEOMETRY
 10
-324.856
 20
-464.376
 40
5.055
 50
232.628
 51
242.488
  0
ARC
  8
APS_GEOMETRY
 10
-328.618
 20
-471.508
 40
3.009
 50
40.539
 51
61.699
  0
ARC
  8
APS_GEOMETRY
 10
-326.973
 20
-470.101
 40
0.845
 50
360.0
 51
40.539
  0
ARC
  8
APS_GEOMETRY
 10
-327.263
 20
-470.101
 40
1.135
 50
315.297
 51
360.0
  0
ARC
  8
APS_GEOMETRY
 10
-328.798
 20
-468.583
 40
3.294
 50
289.502
 51
315.297
  0
ARC
  8
APS_GEOMETRY
 10
-329.923
 20
-465.407
 40
6.663
 50
282.372
 51
289.502
  0
ARC
  8
APS_GEOMETRY
 10
-331.104
 20
-460.021
 40
12.176
 50
277.099
 51
282.372
  0
ARC
  8
APS_GEOMETRY
 10
-331.59
 20
-456.122
 40
16.106
 50
273.104
 51
277.099
  0
ARC
  8
APS_GEOMETRY
 10
-332.162
 20
-445.562
 40
26.681
 50
270.0
 51
273.104
  0
ARC
  8
APS_GEOMETRY
 10
-332.162
 20
-445.882
 40
26.361
 50
263.473
 51
270.0
  0
ARC
  8
APS_GEOMETRY
 10
-334.328
 20
-464.816
 40
7.304
 50
251.056
 51
263.473
  0
ARC
  8
APS_GEOMETRY
 10
-335.719
 20
-468.868
 40
3.02
 50
224.161
 51
251.056
  0
ARC
  8
APS_GEOMETRY
 10
-337.057
 20
-470.167
 40
1.156
 50
180.0
 51
224.161
  0
ARC
  8
APS_GEOMETRY
 10
-336.817
 20
-470.167
 40
1.396
 50
160.821
 51
180.0
  0
ARC
  8
APS_GEOMETRY
 10
-337.402
 20
-469.963
 40
0.776
 50
135.0
 51
160.821
  0
ARC
  8
APS_GEOMETRY
 10
-336.849
 20
-470.517
 40
1.558
 50
121.522
 51
135.0
  0
ARC
  8
APS_GEOMETRY
 10
-330.606
 20
-480.695
 40
13.498
 50
116.952
 51
121.522
  0
ARC
  8
APS_GEOMETRY
 10
-337.423
 20
-467.339
 40
1.496
 50
297.824
 51
321.605
  0
ARC
  8
APS_GEOMETRY
 10
-337.078
 20
-467.612
 40
1.057
 50
321.605
 51
349.992
  0
ARC
  8
APS_GEOMETRY
 10
-338.678
 20
-467.33
 40
2.681
 50
349.992
 51
356.014
  0
ARC
  8
APS_GEOMETRY
 10
-363.009
 20
-465.634
 40
27.071
 50
356.014
 51
357.908
  0
ARC
  8
APS_GEOMETRY
 10
-391.411
 20
-464.597
 40
55.492
 50
357.908
 51
358.833
  0
ARC
  8
APS_GEOMETRY
 10
-494.109
 20
-462.505
 40
158.212
 50
358.833
 51
359.381
  0
LINE
  8
APS_GEOMETRY
 10
-328.516
 11
-328.516
 20
-453.537
 21
-459.097
  0
ARC
  8
APS_GEOMETRY
 10
-326.828
 20
-459.097
 40
1.687
 50
180.0
 51
199.885
  0
ARC
  8
APS_GEOMETRY
 10
-328.091
 20
-459.553
 40
0.345
 50
199.885
 51
244.799
  0
ARC
  8
APS_GEOMETRY
 10
-327.365
 20
-458.058
 40
2.007
 50
244.231
 51
258.996
  0
ARC
  8
APS_GEOMETRY
 10
-327.06
 20
-456.49
 40
3.604
 50
258.996
 51
270.0
  0
ARC
  8
APS_GEOMETRY
 10
-327.06
 20
-456.869
 40
3.225
 50
270.0
 51
288.435
  0
ARC
  8
APS_GEOMETRY
 10
-326.829
 20
-457.563
 40
2.494
 50
288.435
 51
309.428
  0
ARC
  8
APS_GEOMETRY
 10
-326.745
 20
-457.65
 40
2.373
 50
309.193
 51
339.939
  0
ARC
  8
APS_GEOMETRY
 10
-329.68
 20
-456.579
 40
5.497
 50
339.939
 51
0.0
  0
ARC
  8
APS_GEOMETRY
 10
-329.356
 20
-456.579
 40
5.174
 50
360.0
 51
22.011
  0
ARC
  8
APS_GEOMETRY
 10
-327.064
 20
-455.652
 40
2.701
 50
22.011
 51
52.651
  0
ARC
  8
APS_GEOMETRY
 10
-327.099
 20
-455.676
 40
2.742
 50
52.374
 51
72.309
  0
ARC
  8
APS_GEOMETRY
 10
-327.322
 20
-456.374
 40
3.475
 50
72.309
 51
90.0
  0
ARC
  8
APS_GEOMETRY
 10
-327.322
 20
-454.925
 40
2.026
 50
90.0
 51
118.113
  0
ARC
  8
APS_GEOMETRY
 10
-328.064
 20
-453.537
 40
0.452
 50
118.113
 51
180.0
  0
ARC
  8
APS_GEOMETRY
 10
-302.147
 20
-462.029
 40
12.891
 50
71.91
 51
90.0
  0
ARC
  8
APS_GEOMETRY
 10
-301.648
 20
-460.501
 40
11.283
 50
52.561
 51
71.91
  0
ARC
  8
APS_GEOMETRY
 10
-301.778
 20
-460.539
 40
11.393
 50
38.846
 51
52.156
  0
ARC
  8
APS_GEOMETRY
 10
-303.564
 20
-461.977
 40
13.686
 50
26.707
 51
38.846
  0
ARC
  8
APS_GEOMETRY
 10
-303.211
 20
-461.688
 40
13.241
 50
13.868
 51
26.278
  0
ARC
  8
APS_GEOMETRY
 10
-300.661
 20
-461.059
 40
10.614
 50
360.0
 51
13.868
  0
ARC
  8
APS_GEOMETRY
 10
-300.496
 20
-461.059
 40
10.449
 50
339.712
 51
360.0
  0
ARC
  8
APS_GEOMETRY
 10
-301.084
 20
-460.842
 40
11.076
 50
320.013
 51
339.712
  0
ARC
  8
APS_GEOMETRY
 10
-301.182
 20
-460.788
 40
11.186
 50
303.344
 51
320.123
  0
ARC
  8
APS_GEOMETRY
 10
-302.33
 20
-459.043
 40
13.274
 50
287.949
 51
303.344
  0
ARC
  8
APS_GEOMETRY
 10
-302.707
 20
-457.736
 40
14.634
 50
279.039
 51
287.776
  0
ARC
  8
APS_GEOMETRY
 10
-302.556
 20
-458.685
 40
13.673
 50
270.0
 51
279.039
  0
ARC
  8
APS_GEOMETRY
 10
-302.556
 20
-459.353
 40
13.005
 50
257.728
 51
270.0
  0
ARC
  8
APS_GEOMETRY
 10
-302.535
 20
-459.259
 40
13.102
 50
245.501
 51
257.728
  0
ARC
  8
APS_GEOMETRY
 10
-303.272
 20
-460.87
 40
11.33
 50
228.665
 51
245.511
  0
ARC
  8
APS_GEOMETRY
 10
-303.516
 20
-461.148
 40
10.959
 50
211.535
 51
228.665
  0
ARC
  8
APS_GEOMETRY
 10
-303.195
 20
-460.913
 40
11.356
 50
195.642
 51
211.701
  0
ARC
  8
APS_GEOMETRY
 10
-302.609
 20
-460.748
 40
11.966
 50
180.0
 51
195.642
  0
ARC
  8
APS_GEOMETRY
 10
-302.483
 20
-460.748
 40
12.091
 50
162.181
 51
180.0
  0
ARC
  8
APS_GEOMETRY
 10
-303.586
 20
-460.394
 40
10.933
 50
143.434
 51
162.181
  0
ARC
  8
APS_GEOMETRY
 10
-303.734
 20
-460.275
 40
10.742
 50
126.384
 51
143.471
  0
ARC
  8
APS_GEOMETRY
 10
-302.717
 20
-461.655
 40
12.457
 50
110.525
 51
126.384
  0
ARC
  8
APS_GEOMETRY
 10
-302.768
 20
-461.28
 40
12.089
 50
99.77
 51
110.925
  0
ARC
  8
APS_GEOMETRY
 10
-302.147
 20
-464.886
 40
15.748
 50
90.0
 51
99.77
  0
ARC
  8
APS_GEOMETRY
 10
-303.7
 20
-456.235
 40
2.404
 50
90.0
 51
119.604
  0
ARC
  8
APS_GEOMETRY
 10
-303.49
 20
-456.606
 40
2.83
 50
119.604
 51
146.842
  0
ARC
  8
APS_GEOMETRY
 10
-303.067
 20
-456.952
 40
3.374
 50
145.84
 51
164.055
  0
ARC
  8
APS_GEOMETRY
 10
-302.086
 20
-457.233
 40
4.394
 50
164.055
 51
180.0
  0
ARC
  8
APS_GEOMETRY
 10
-295.954
 20
-457.233
 40
10.526
 50
180.0
 51
189.977
  0
ARC
  8
APS_GEOMETRY
 10
-286.628
 20
-455.592
 40
19.995
 50
189.977
 51
197.211
  0
ARC
  8
APS_GEOMETRY
 10
-284.588
 20
-454.96
 40
22.131
 50
197.211
 51
203.76
  0
ARC
  8
APS_GEOMETRY
 10
-289.67
 20
-457.197
 40
16.579
 50
203.76
 51
211.329
  0
ARC
  8
APS_GEOMETRY
 10
-300.104
 20
-463.459
 40
4.411
 50
212.32
 51
224.441
  0
ARC
  8
APS_GEOMETRY
 10
-300.531
 20
-463.879
 40
3.812
 50
224.441
 51
237.484
  0
ARC
  8
APS_GEOMETRY
 10
-300.808
 20
-464.312
 40
3.298
 50
237.484
 51
252.416
  0
ARC
  8
APS_GEOMETRY
 10
-301.084
 20
-465.184
 40
2.383
 50
252.416
 51
270.0
  0
ARC
  8
APS_GEOMETRY
 10
-301.084
 20
-464.901
 40
2.666
 50
270.0
 51
294.953
  0
ARC
  8
APS_GEOMETRY
 10
-301.009
 20
-465.062
 40
2.489
 50
294.953
 51
320.793
  0
ARC
  8
APS_GEOMETRY
 10
-301.41
 20
-464.735
 40
3.005
 50
320.793
 51
342.777
  0
ARC
  8
APS_GEOMETRY
 10
-303.194
 20
-464.182
 40
4.873
 50
342.777
 51
0.0
  0
ARC
  8
APS_GEOMETRY
 10
-311.574
 20
-464.182
 40
13.254
 50
0.0
 51
8.499
  0
ARC
  8
APS_GEOMETRY
 10
-317.408
 20
-465.054
 40
19.152
 50
8.499
 51
15.566
  0
ARC
  8
APS_GEOMETRY
 10
-316.706
 20
-464.858
 40
18.424
 50
15.566
 51
22.909
  0
ARC
  8
APS_GEOMETRY
 10
-310.675
 20
-462.309
 40
11.876
 50
22.909
 51
32.057
  0
ARC
  8
APS_GEOMETRY
 10
-305.937
 20
-459.325
 40
6.276
 50
31.921
 51
42.51
  0
ARC
  8
APS_GEOMETRY
 10
-304.636
 20
-458.132
 40
4.511
 50
42.51
 51
55.008
  0
ARC
  8
APS_GEOMETRY
 10
-304.196
 20
-457.504
 40
3.745
 50
55.008
 51
69.88
  0
ARC
  8
APS_GEOMETRY
 10
-303.802
 20
-456.429
 40
2.599
 50
69.88
 51
87.754
  0
ARC
  8
APS_GEOMETRY
 10
-276.89
 20
-463.741
 40
1.21
 50
90.0
 51
115.837
  0
ARC
  8
APS_GEOMETRY
 10
-277.188
 20
-463.125
 40
0.526
 50
115.837
 51
155.462
  0
ARC
  8
APS_GEOMETRY
 10
-276.84
 20
-463.284
 40
0.909
 50
155.462
 51
168.366
  0
ARC
  8
APS_GEOMETRY
 10
-273.667
 20
-463.937
 40
4.148
 50
168.366
 51
174.395
  0
ARC
  8
APS_GEOMETRY
 10
-270.469
 20
-464.251
 40
7.361
 50
174.395
 51
177.813
  0
ARC
  8
APS_GEOMETRY
 10
-259.855
 20
-464.656
 40
17.983
 50
177.813
 51
180.0
  0
ARC
  8
APS_GEOMETRY
 10
-252.171
 20
-464.656
 40
25.667
 50
180.0
 51
184.62
  0
ARC
  8
APS_GEOMETRY
 10
-269.381
 20
-466.047
 40
8.401
 50
184.62
 51
192.7
  0
ARC
  8
APS_GEOMETRY
 10
-276.016
 20
-467.504
 40
1.609
 50
194.036
 51
205.821
  0
ARC
  8
APS_GEOMETRY
 10
-276.719
 20
-467.844
 40
0.828
 50
205.821
 51
222.274
  0
ARC
  8
APS_GEOMETRY
 10
-276.503
 20
-467.648
 40
1.119
 50
222.274
 51
234.605
  0
ARC
  8
APS_GEOMETRY
 10
-274.073
 20
-464.228
 40
5.315
 50
234.605
 51
240.255
  0
ARC
  8
APS_GEOMETRY
 10
-277.768
 20
-470.765
 40
2.194
 50
34.592
 51
61.189
  0
ARC
  8
APS_GEOMETRY
 10
-277.042
 20
-470.265
 40
1.313
 50
360.0
 51
34.592
  0
ARC
  8
APS_GEOMETRY
 10
-276.999
 20
-470.265
 40
1.27
 50
318.231
 51
360.0
  0
ARC
  8
APS_GEOMETRY
 10
-277.848
 20
-469.507
 40
2.408
 50
288.227
 51
318.231
  0
ARC
  8
APS_GEOMETRY
 10
-278.728
 20
-466.833
 40
5.223
 50
280.377
 51
288.227
  0
ARC
  8
APS_GEOMETRY
 10
-280.263
 20
-458.451
 40
13.744
 50
275.541
 51
280.377
  0
ARC
  8
APS_GEOMETRY
 10
-280.925
 20
-451.632
 40
20.595
 50
272.304
 51
275.541
  0
ARC
  8
APS_GEOMETRY
 10
-281.73
 20
-431.614
 40
40.629
 50
270.0
 51
272.304
  0
ARC
  8
APS_GEOMETRY
 10
-281.73
 20
-448.344
 40
23.9
 50
262.811
 51
270.0
  0
ARC
  8
APS_GEOMETRY
 10
-283.875
 20
-465.347
 40
6.762
 50
249.274
 51
262.811
  0
ARC
  8
APS_GEOMETRY
 10
-285.224
 20
-468.912
 40
2.95
 50
221.379
 51
249.274
  0
ARC
  8
APS_GEOMETRY
 10
-286.407
 20
-469.954
 40
1.373
 50
180.0
 51
221.379
  0
ARC
  8
APS_GEOMETRY
 10
-286.416
 20
-469.954
 40
1.364
 50
164.055
 51
180.0
  0
ARC
  8
APS_GEOMETRY
 10
-286.985
 20
-469.792
 40
0.773
 50
142.815
 51
164.055
  0
ARC
  8
APS_GEOMETRY
 10
-286.627
 20
-470.063
 40
1.222
 50
129.007
 51
142.815
  0
ARC
  8
APS_GEOMETRY
 10
-282.231
 20
-475.491
 40
8.206
 50
123.69
 51
129.007
  0
ARC
  8
APS_GEOMETRY
 10
-288.469
 20
-466.104
 40
3.064
 50
303.389
 51
319.022
  0
ARC
  8
APS_GEOMETRY
 10
-287.64
 20
-466.824
 40
1.966
 50
319.022
 51
338.575
  0
ARC
  8
APS_GEOMETRY
 10
-288.75
 20
-466.389
 40
3.158
 50
338.575
 51
351.049
  0
ARC
  8
APS_GEOMETRY
 10
-302.153
 20
-464.278
 40
16.726
 50
351.049
 51
356.46
  0
ARC
  8
APS_GEOMETRY
 10
-297.735
 20
-464.446
 40
12.307
 50
355.972
 51
358.68
  0
ARC
  8
APS_GEOMETRY
 10
-442.83
 20
-461.103
 40
157.441
 50
358.68
 51
359.437
  0
LINE
  8
APS_GEOMETRY
 10
-285.397
 11
-285.382
 20
-462.649
 21
-460.193
  0
LINE
  8
APS_GEOMETRY
 10
-285.382
 11
-285.377
 20
-460.193
 21
-456.987
  0
ARC
  8
APS_GEOMETRY
 10
-323.281
 20
-456.987
 40
37.905
 50
360.0
 51
1.717
  0
ARC
  8
APS_GEOMETRY
 10
-302.997
 20
-456.379
 40
17.611
 50
1.717
 51
4.236
  0
ARC
  8
APS_GEOMETRY
 10
-296.382
 20
-455.889
 40
10.979
 50
4.236
 51
8.269
  0
ARC
  8
APS_GEOMETRY
 10
-288.77
 20
-454.783
 40
3.287
 50
8.269
 51
15.642
  0
ARC
  8
APS_GEOMETRY
 10
-287.46
 20
-454.416
 40
1.926
 50
15.642
 51
39.417
  0
ARC
  8
APS_GEOMETRY
 10
-287.431
 20
-454.392
 40
1.888
 50
39.417
 51
63.435
  0
ARC
  8
APS_GEOMETRY
 10
-284.03
 20
-447.347
 40
5.935
 50
236.874
 51
244.486
  0
ARC
  8
APS_GEOMETRY
 10
-286.56
 20
-451.224
 40
1.306
 50
220.601
 51
236.874
  0
ARC
  8
APS_GEOMETRY
 10
-286.85
 20
-451.473
 40
0.923
 50
198.246
 51
220.601
  0
ARC
  8
APS_GEOMETRY
 10
-286.416
 20
-451.33
 40
1.38
 50
180.0
 51
198.246
  0
ARC
  8
APS_GEOMETRY
 10
-286.423
 20
-451.33
 40
1.374
 50
156.161
 51
180.0
  0
ARC
  8
APS_GEOMETRY
 10
-286.231
 20
-451.414
 40
1.583
 50
133.977
 51
156.161
  0
ARC
  8
APS_GEOMETRY
 10
-285.849
 20
-451.81
 40
2.133
 50
116.996
 51
133.977
  0
ARC
  8
APS_GEOMETRY
 10
-285.091
 20
-453.299
 40
3.804
 50
104.3
 51
116.996
  0
ARC
  8
APS_GEOMETRY
 10
-284.895
 20
-454.052
 40
4.582
 50
95.326
 51
104.349
  0
ARC
  8
APS_GEOMETRY
 10
-284.101
 20
-462.569
 40
13.136
 50
90.0
 51
95.326
  0
ARC
  8
APS_GEOMETRY
 10
-284.101
 20
-455.939
 40
6.506
 50
87.553
 51
90.0
  0
ARC
  8
APS_GEOMETRY
 10
-285.485
 20
-488.333
 40
38.93
 50
86.553
 51
87.553
  0
ARC
  8
APS_GEOMETRY
 10
-287.454
 20
-521.007
 40
71.662
 50
86.009
 51
86.553
  0
ARC
  8
APS_GEOMETRY
 10
-295.108
 20
-630.713
 40
181.636
 50
85.668
 51
86.009
  0
ARC
  8
APS_GEOMETRY
 10
-280.784
 20
-442.058
 40
7.563
 50
265.426
 51
268.531
  0
ARC
  8
APS_GEOMETRY
 10
-280.111
 20
-415.836
 40
33.793
 50
268.531
 51
270.0
  0
ARC
  8
APS_GEOMETRY
 10
-280.111
 20
-423.874
 40
25.755
 50
270.0
 51
271.637
  0
ARC
  8
APS_GEOMETRY
 10
-280.687
 20
-403.732
 40
45.906
 50
271.637
 51
272.862
  0
ARC
  8
APS_GEOMETRY
 10
-281.347
 20
-390.517
 40
59.137
 50
272.862
 51
273.814
  0
ARC
  8
APS_GEOMETRY
 10
-283.584
 20
-356.965
 40
92.764
 50
273.814
 51
274.574
  0
ARC
  8
APS_GEOMETRY
 10
-269.553
 20
-539.46
 40
90.271
 50
93.72
 51
94.214
  0
ARC
  8
APS_GEOMETRY
 10
-272.548
 20
-493.401
 40
44.115
 50
93.013
 51
93.72
  0
ARC
  8
APS_GEOMETRY
 10
-273.369
 20
-477.803
 40
28.496
 50
91.918
 51
93.013
  0
ARC
  8
APS_GEOMETRY
 10
-274.012
 20
-458.596
 40
9.277
 50
90.0
 51
91.918
  0
ARC
  8
APS_GEOMETRY
 10
-274.012
 20
-461.373
 40
12.054
 50
73.82
 51
90.0
  0
ARC
  8
APS_GEOMETRY
 10
-272.824
 20
-457.278
 40
7.791
 50
53.658
 51
73.82
  0
ARC
  8
APS_GEOMETRY
 10
-271.134
 20
-454.968
 40
4.929
 50
26.03
 51
53.569
  0
ARC
  8
APS_GEOMETRY
 10
-271.653
 20
-455.221
 40
5.506
 50
360.0
 51
26.03
  0
ARC
  8
APS_GEOMETRY
 10
-271.868
 20
-455.221
 40
5.722
 50
345.282
 51
360.0
  0
ARC
  8
APS_GEOMETRY
 10
-271.318
 20
-455.366
 40
5.152
 50
329.767
 51
345.282
  0
ARC
  8
APS_GEOMETRY
 10
-271.006
 20
-455.548
 40
4.792
 50
313.168
 51
329.767
  0
ARC
  8
APS_GEOMETRY
 10
-270.891
 20
-455.671
 40
4.623
 50
296.267
 51
313.168
  0
ARC
  8
APS_GEOMETRY
 10
-268.259
 20
-460.988
 40
1.31
 50
116.565
 51
139.899
  0
ARC
  8
APS_GEOMETRY
 10
-268.912
 20
-460.438
 40
0.456
 50
139.899
 51
180.0
  0
ARC
  8
APS_GEOMETRY
 10
-268.862
 20
-460.438
 40
0.506
 50
180.0
 51
226.193
  0
ARC
  8
APS_GEOMETRY
 10
-267.926
 20
-459.462
 40
1.858
 50
226.193
 51
249.829
  0
ARC
  8
APS_GEOMETRY
 10
-270.607
 20
-466.843
 40
5.995
 50
53.249
 51
70.105
  0
ARC
  8
APS_GEOMETRY
 10
-269.389
 20
-465.212
 40
3.96
 50
32.471
 51
53.249
  0
ARC
  8
APS_GEOMETRY
 10
-269.957
 20
-465.574
 40
4.632
 50
23.305
 51
32.471
  0
ARC
  8
APS_GEOMETRY
 10
-273.462
 20
-467.083
 40
8.449
 50
16.521
 51
23.305
  0
ARC
  8
APS_GEOMETRY
 10
-276.195
 20
-467.894
 40
11.299
 50
11.429
 51
16.521
  0
ARC
  8
APS_GEOMETRY
 10
-283.94
 20
-469.46
 40
19.201
 50
7.524
 51
11.429
  0
ARC
  8
APS_GEOMETRY
 10
-258.275
 20
-466.042
 40
6.69
 50
187.765
 51
196.914
  0
ARC
  8
APS_GEOMETRY
 10
-263.747
 20
-467.706
 40
0.971
 50
196.914
 51
221.082
  0
ARC
  8
APS_GEOMETRY
 10
-263.726
 20
-467.687
 40
0.999
 50
221.082
 51
244.607
  0
ARC
  8
APS_GEOMETRY
 10
-261.389
 20
-462.765
 40
6.448
 50
244.607
 51
253.811
  0
ARC
  8
APS_GEOMETRY
 10
-263.444
 20
-469.77
 40
0.852
 50
51.45
 51
72.474
  0
ARC
  8
APS_GEOMETRY
 10
-263.655
 20
-470.034
 40
1.191
 50
33.69
 51
51.45
  0
ARC
  8
APS_GEOMETRY
 10
-263.704
 20
-470.067
 40
1.25
 50
16.639
 51
33.69
  0
ARC
  8
APS_GEOMETRY
 10
-263.764
 20
-470.085
 40
1.312
 50
360.0
 51
16.639
  0
ARC
  8
APS_GEOMETRY
 10
-263.782
 20
-470.085
 40
1.331
 50
338.993
 51
360.0
  0
ARC
  8
APS_GEOMETRY
 10
-264.595
 20
-469.773
 40
2.201
 50
322.696
 51
338.993
  0
ARC
  8
APS_GEOMETRY
 10
-264.897
 20
-469.542
 40
2.582
 50
308.603
 51
322.696
  0
ARC
  8
APS_GEOMETRY
 10
-265.106
 20
-469.281
 40
2.916
 50
295.346
 51
308.603
  0
ARC
  8
APS_GEOMETRY
 10
-266.201
 20
-466.868
 40
5.566
 50
279.583
 51
294.905
  0
ARC
  8
APS_GEOMETRY
 10
-267.635
 20
-458.378
 40
14.176
 50
270.0
 51
279.583
  0
ARC
  8
APS_GEOMETRY
 10
-267.635
 20
-462.218
 40
10.336
 50
261.247
 51
270.0
  0
ARC
  8
APS_GEOMETRY
 10
-268.297
 20
-466.519
 40
5.985
 50
249.737
 51
261.247
  0
ARC
  8
APS_GEOMETRY
 10
-268.732
 20
-467.697
 40
4.728
 50
235.345
 51
249.737
  0
ARC
  8
APS_GEOMETRY
 10
-269.282
 20
-468.493
 40
3.762
 50
219.198
 51
235.345
  0
ARC
  8
APS_GEOMETRY
 10
-268.125
 20
-467.506
 40
5.281
 50
209.076
 51
219.56
  0
ARC
  8
APS_GEOMETRY
 10
-265.455
 20
-466.022
 40
8.337
 50
200.735
 51
209.076
  0
ARC
  8
APS_GEOMETRY
 10
-261.77
 20
-464.627
 40
12.277
 50
197.881
 51
200.735
  0
ARC
  8
APS_GEOMETRY
 10
-246.629
 20
-459.742
 40
28.186
 50
195.997
 51
197.881
  0
ARC
  8
APS_GEOMETRY
 10
-235.438
 20
-456.533
 40
39.828
 50
194.664
 51
195.997
  0
ARC
  8
APS_GEOMETRY
 10
-204.441
 20
-448.422
 40
71.869
 50
193.671
 51
194.664
  0
ARC
  8
APS_GEOMETRY
 10
-283.046
 20
-467.532
 40
9.026
 50
13.61
 51
23.585
  0
ARC
  8
APS_GEOMETRY
 10
-277.136
 20
-464.952
 40
2.577
 50
23.585
 51
42.31
  0
ARC
  8
APS_GEOMETRY
 10
-276.6
 20
-464.464
 40
1.853
 50
42.31
 51
67.521
  0
ARC
  8
APS_GEOMETRY
 10
-277.024
 20
-465.49
 40
2.962
 50
67.521
 51
87.397
  0
LINE
  8
APS_GEOMETRY
 10
-277.822
 11
-278.002
 20
-454.191
 21
-458.001
  0
LINE
  8
APS_GEOMETRY
 10
-278.002
 11
-278.002
 20
-458.001
 21
-458.063
  0
LINE
  8
APS_GEOMETRY
 10
-278.002
 11
-278.002
 20
-458.063
 21
-458.148
  0
ARC
  8
APS_GEOMETRY
 10
-275.355
 20
-458.148
 40
2.647
 50
180.0
 51
192.339
  0
ARC
  8
APS_GEOMETRY
 10
-277.459
 20
-458.609
 40
0.493
 50
192.339
 51
221.186
  0
ARC
  8
APS_GEOMETRY
 10
-277.51
 20
-458.653
 40
0.426
 50
221.186
 51
253.872
  0
ARC
  8
APS_GEOMETRY
 10
-277.152
 20
-457.415
 40
1.715
 50
253.872
 51
270.0
  0
ARC
  8
APS_GEOMETRY
 10
-277.152
 20
-455.144
 40
3.985
 50
270.0
 51
289.569
  0
ARC
  8
APS_GEOMETRY
 10
-276.427
 20
-457.182
 40
1.822
 50
289.569
 51
318.681
  0
ARC
  8
APS_GEOMETRY
 10
-276.623
 20
-457.01
 40
2.083
 50
318.681
 51
344.628
  0
ARC
  8
APS_GEOMETRY
 10
-280.274
 20
-456.006
 40
5.87
 50
344.628
 51
0.0
  0
ARC
  8
APS_GEOMETRY
 10
-278.539
 20
-456.006
 40
4.134
 50
0.0
 51
35.369
  0
ARC
  8
APS_GEOMETRY
 10
-276.645
 20
-454.662
 40
1.812
 50
35.369
 51
90.0
  0
ARC
  8
APS_GEOMETRY
 10
-276.645
 20
-454.682
 40
1.831
 50
90.0
 51
108.435
  0
ARC
  8
APS_GEOMETRY
 10
-277.001
 20
-453.613
 40
0.705
 50
108.435
 51
138.366
  0
ARC
  8
APS_GEOMETRY
 10
-276.905
 20
-453.698
 40
0.833
 50
138.366
 51
164.291
  0
ARC
  8
APS_GEOMETRY
 10
-274.663
 20
-454.329
 40
3.162
 50
164.291
 51
177.51
  0
LINE
  8
APS_GEOMETRY
 10
-252.565
 11
-243.948
 20
-449.596
 21
-449.596
  0
ARC
  8
APS_GEOMETRY
 10
-244.384
 20
-437.249
 40
12.355
 50
272.021
 51
278.44
  0
ARC
  8
APS_GEOMETRY
 10
-243.897
 20
-440.527
 40
9.042
 50
278.44
 51
285.945
  0
ARC
  8
APS_GEOMETRY
 10
-240.239
 20
-453.625
 40
4.559
 50
98.584
 51
104.931
  0
ARC
  8
APS_GEOMETRY
 10
-240.547
 20
-451.585
 40
2.495
 50
90.0
 51
98.584
  0
ARC
  8
APS_GEOMETRY
 10
-240.547
 20
-450.965
 40
1.876
 50
52.871
 51
90.0
  0
ARC
  8
APS_GEOMETRY
 10
-243.091
 20
-454.326
 40
6.091
 50
32.518
 51
52.871
  0
ARC
  8
APS_GEOMETRY
 10
-245.106
 20
-455.611
 40
8.481
 50
17.209
 51
32.518
  0
ARC
  8
APS_GEOMETRY
 10
-243.427
 20
-455.091
 40
6.723
 50
360.0
 51
17.209
  0
ARC
  8
APS_GEOMETRY
 10
-240.063
 20
-455.091
 40
3.359
 50
337.348
 51
360.0
  0
ARC
  8
APS_GEOMETRY
 10
-238.713
 20
-455.654
 40
1.896
 50
307.042
 51
337.348
  0
ARC
  8
APS_GEOMETRY
 10
-238.947
 20
-455.332
 40
2.295
 50
287.186
 51
306.87
  0
ARC
  8
APS_GEOMETRY
 10
-239.157
 20
-454.655
 40
3.003
 50
270.0
 51
287.186
  0
ARC
  8
APS_GEOMETRY
 10
-239.157
 20
-454.961
 40
2.697
 50
252.221
 51
270.0
  0
ARC
  8
APS_GEOMETRY
 10
-239.282
 20
-455.353
 40
2.286
 50
232.896
 51
252.221
  0
ARC
  8
APS_GEOMETRY
 10
-238.797
 20
-454.711
 40
3.09
 50
218.3
 51
232.896
  0
ARC
  8
APS_GEOMETRY
 10
-235.007
 20
-451.718
 40
7.92
 50
209.197
 51
218.3
  0
ARC
  8
APS_GEOMETRY
 10
-254.284
 20
-462.162
 40
14.006
 50
28.025
 51
32.699
  0
ARC
  8
APS_GEOMETRY
 10
-244.206
 20
-455.692
 40
2.03
 50
32.699
 51
45.0
  0
ARC
  8
APS_GEOMETRY
 10
-243.519
 20
-455.005
 40
1.058
 50
45.0
 51
67.557
  0
ARC
  8
APS_GEOMETRY
 10
-243.523
 20
-455.015
 40
1.069
 50
67.557
 51
90.0
  0
ARC
  8
APS_GEOMETRY
 10
-243.523
 20
-454.93
 40
0.984
 50
90.0
 51
120.801
  0
ARC
  8
APS_GEOMETRY
 10
-243.556
 20
-454.875
 40
0.919
 50
120.801
 51
152.7
  0
ARC
  8
APS_GEOMETRY
 10
-242.826
 20
-455.251
 40
1.74
 50
152.7
 51
171.085
  0
ARC
  8
APS_GEOMETRY
 10
-237.282
 20
-456.121
 40
7.353
 50
171.085
 51
180.0
  0
LINE
  8
APS_GEOMETRY
 10
-244.635
 11
-244.635
 20
-456.121
 21
-465.278
  0
ARC
  8
APS_GEOMETRY
 10
-234.921
 20
-465.278
 40
9.714
 50
180.0
 51
188.194
  0
ARC
  8
APS_GEOMETRY
 10
-242.175
 20
-466.322
 40
2.385
 50
188.194
 51
204.775
  0
ARC
  8
APS_GEOMETRY
 10
-242.879
 20
-466.648
 40
1.609
 50
204.775
 51
228.576
  0
ARC
  8
APS_GEOMETRY
 10
-242.218
 20
-465.898
 40
2.608
 50
228.576
 51
247.218
  0
ARC
  8
APS_GEOMETRY
 10
-246.053
 20
-474.934
 40
7.208
 50
59.381
 51
66.93
  0
ARC
  8
APS_GEOMETRY
 10
-243.222
 20
-470.152
 40
1.65
 50
43.568
 51
59.381
  0
ARC
  8
APS_GEOMETRY
 10
-242.769
 20
-469.721
 40
1.025
 50
19.041
 51
43.568
  0
ARC
  8
APS_GEOMETRY
 10
-243.399
 20
-469.938
 40
1.691
 50
360.0
 51
19.041
  0
ARC
  8
APS_GEOMETRY
 10
-243.081
 20
-469.938
 40
1.374
 50
317.66
 51
360.0
  0
ARC
  8
APS_GEOMETRY
 10
-244.342
 20
-468.789
 40
3.08
 50
289.747
 51
317.66
  0
ARC
  8
APS_GEOMETRY
 10
-245.399
 20
-465.846
 40
6.206
 50
281.964
 51
289.747
  0
ARC
  8
APS_GEOMETRY
 10
-246.862
 20
-458.94
 40
13.265
 50
276.643
 51
281.964
  0
ARC
  8
APS_GEOMETRY
 10
-247.478
 20
-453.653
 40
18.589
 50
272.836
 51
276.643
  0
ARC
  8
APS_GEOMETRY
 10
-248.216
 20
-438.765
 40
33.495
 50
270.0
 51
272.836
  0
ARC
  8
APS_GEOMETRY
 10
-248.216
 20
-429.54
 40
42.72
 50
267.283
 51
270.0
  0
ARC
  8
APS_GEOMETRY
 10
-249.112
 20
-448.441
 40
23.797
 50
263.643
 51
267.283
  0
ARC
  8
APS_GEOMETRY
 10
-249.864
 20
-455.183
 40
17.014
 50
258.563
 51
263.643
  0
ARC
  8
APS_GEOMETRY
 10
-251.658
 20
-464.053
 40
7.964
 50
251.136
 51
258.563
  0
ARC
  8
APS_GEOMETRY
 10
-253.26
 20
-468.699
 40
3.05
 50
222.558
 51
251.395
  0
ARC
  8
APS_GEOMETRY
 10
-254.449
 20
-469.791
 40
1.436
 50
180.0
 51
222.558
  0
ARC
  8
APS_GEOMETRY
 10
-254.689
 20
-469.791
 40
1.196
 50
150.642
 51
180.0
  0
ARC
  8
APS_GEOMETRY
 10
-254.593
 20
-469.845
 40
1.306
 50
122.574
 51
150.642
  0
ARC
  8
APS_GEOMETRY
 10
-254.846
 20
-469.554
 40
0.926
 50
108.677
 51
119.055
  0
ARC
  8
APS_GEOMETRY
 10
-243.288
 20
-503.745
 40
37.018
 50
107.038
 51
108.677
  0
ARC
  8
APS_GEOMETRY
 10
-254.566
 20
-466.864
 40
1.549
 50
286.144
 51
308.66
  0
ARC
  8
APS_GEOMETRY
 10
-254.312
 20
-467.181
 40
1.143
 50
308.66
 51
334.933
  0
ARC
  8
APS_GEOMETRY
 10
-255.344
 20
-466.698
 40
2.283
 50
334.933
 51
348.829
  0
ARC
  8
APS_GEOMETRY
 10
-268.257
 20
-464.148
 40
15.445
 50
348.829
 51
354.161
  0
ARC
  8
APS_GEOMETRY
 10
-276.985
 20
-463.248
 40
24.219
 50
354.144
 51
355.66
  0
ARC
  8
APS_GEOMETRY
 10
-315.673
 20
-460.312
 40
63.019
 50
355.66
 51
356.6
  0
ARC
  8
APS_GEOMETRY
 10
-345.248
 20
-458.555
 40
92.646
 50
356.6
 51
357.24
  0
ARC
  8
APS_GEOMETRY
 10
-429.16
 20
-454.51
 40
176.656
 50
357.24
 51
357.703
  0
ARC
  8
APS_GEOMETRY
 10
-420.9
 20
-454.841
 40
168.389
 50
357.703
 51
358.674
  0
ARC
  8
APS_GEOMETRY
 10
-342.984
 20
-456.644
 40
90.452
 50
358.674
 51
0.0
  0
ARC
  8
APS_GEOMETRY
 10
-265.937
 20
-456.644
 40
13.405
 50
360.0
 51
6.242
  0
ARC
  8
APS_GEOMETRY
 10
-255.278
 20
-455.478
 40
2.682
 50
6.242
 51
20.225
  0
ARC
  8
APS_GEOMETRY
 10
-253.8
 20
-454.934
 40
1.107
 50
20.225
 51
50.44
  0
ARC
  8
APS_GEOMETRY
 10
-253.514
 20
-454.586
 40
0.657
 50
50.44
 51
90.0
  0
ARC
  8
APS_GEOMETRY
 10
-253.514
 20
-454.811
 40
0.881
 50
90.0
 51
126.747
  0
ARC
  8
APS_GEOMETRY
 10
-252.268
 20
-456.478
 40
2.962
 50
126.747
 51
146.547
  0
ARC
  8
APS_GEOMETRY
 10
-274.262
 20
-442.022
 40
23.357
 50
324.255
 51
326.701
  0
ARC
  8
APS_GEOMETRY
 10
-264.951
 20
-448.724
 40
11.885
 50
320.826
 51
324.255
  0
ARC
  8
APS_GEOMETRY
 10
-261.908
 20
-451.204
 40
7.959
 50
315.722
 51
320.826
  0
ARC
  8
APS_GEOMETRY
 10
-258.411
 20
-454.614
 40
3.075
 50
307.504
 51
315.722
  0
ARC
  8
APS_GEOMETRY
 10
-258.733
 20
-454.183
 40
3.613
 50
291.306
 51
307.405
  0
ARC
  8
APS_GEOMETRY
 10
-258.174
 20
-455.617
 40
2.073
 50
270.0
 51
291.306
  0
ARC
  8
APS_GEOMETRY
 10
-258.174
 20
-455.751
 40
1.939
 50
245.532
 51
270.0
  0
ARC
  8
APS_GEOMETRY
 10
-258.188
 20
-455.783
 40
1.904
 50
220.833
 51
245.532
  0
ARC
  8
APS_GEOMETRY
 10
-257.992
 20
-455.613
 40
2.164
 50
198.684
 51
220.833
  0
ARC
  8
APS_GEOMETRY
 10
-257.171
 20
-455.336
 40
3.03
 50
180.0
 51
198.684
  0
ARC
  8
APS_GEOMETRY
 10
-255.248
 20
-455.336
 40
4.954
 50
168.408
 51
180.0
  0
ARC
  8
APS_GEOMETRY
 10
-252.071
 20
-455.987
 40
8.196
 50
159.402
 51
168.408
  0
ARC
  8
APS_GEOMETRY
 10
-251.09
 20
-456.356
 40
9.245
 50
151.39
 51
159.402
  0
ARC
  8
APS_GEOMETRY
 10
-251.291
 20
-456.247
 40
9.016
 50
143.276
 51
151.39
  0
ARC
  8
APS_GEOMETRY
 10
-253.816
 20
-454.359
 40
5.863
 50
124.216
 51
143.31
  0
ARC
  8
APS_GEOMETRY
 10
-256.064
 20
-451.052
 40
1.864
 50
90.0
 51
124.216
  0
ARC
  8
APS_GEOMETRY
 10
-256.064
 20
-451.88
 40
2.692
 50
82.725
 51
90.0
  0
ARC
  8
APS_GEOMETRY
 10
-256.275
 20
-453.528
 40
4.353
 50
77.005
 51
82.725
  0
ARC
  8
APS_GEOMETRY
 10
-249.851
 20
-422.554
 40
27.28
 50
258.486
 51
260.378
  0
ARC
  8
APS_GEOMETRY
 10
-252.603
 20
-438.787
 40
10.816
 50
260.378
 51
263.382
  0
ARC
  8
APS_GEOMETRY
 10
-252.838
 20
-440.816
 40
8.774
 50
263.382
 51
267.084
  0
ARC
  8
APS_GEOMETRY
 10
-252.565
 20
-435.46
 40
14.137
 50
267.084
 51
270.0
  0
LINE
  8
APS_GEOMETRY
 10
-230.857
 11
-222.452
 20
-449.596
 21
-449.596
  0
ARC
  8
APS_GEOMETRY
 10
-222.452
 20
-343.737
 40
105.86
 50
270.0
 51
270.69
  0
ARC
  8
APS_GEOMETRY
 10
-221.855
 20
-393.265
 40
56.328
 50
270.69
 51
271.637
  0
ARC
  8
APS_GEOMETRY
 10
-221.352
 20
-410.862
 40
38.724
 50
271.637
 51
273.013
  0
ARC
  8
APS_GEOMETRY
 10
-220.127
 20
-434.143
 40
15.41
 50
273.013
 51
275.194
  0
ARC
  8
APS_GEOMETRY
 10
-219.823
 20
-437.484
 40
12.056
 50
275.194
 51
280.756
  0
ARC
  8
APS_GEOMETRY
 10
-219.766
 20
-437.784
 40
11.75
 50
280.756
 51
286.39
  0
ARC
  8
APS_GEOMETRY
 10
-215.459
 20
-452.527
 40
3.609
 50
100.305
 51
105.945
  0
ARC
  8
APS_GEOMETRY
 10
-215.911
 20
-450.042
 40
1.083
 50
90.0
 51
100.305
  0
ARC
  8
APS_GEOMETRY
 10
-215.911
 20
-450.429
 40
1.47
 50
58.946
 51
90.0
  0
ARC
  8
APS_GEOMETRY
 10
-216.473
 20
-451.362
 40
2.56
 50
35.538
 51
58.946
  0
ARC
  8
APS_GEOMETRY
 10
-218.668
 20
-452.977
 40
5.284
 50
16.699
 51
35.952
  0
ARC
  8
APS_GEOMETRY
 10
-220.318
 20
-453.472
 40
7.007
 50
360.0
 51
16.699
  0
ARC
  8
APS_GEOMETRY
 10
-217.243
 20
-453.472
 40
3.932
 50
344.982
 51
360.0
  0
ARC
  8
APS_GEOMETRY
 10
-215.356
 20
-453.978
 40
1.978
 50
323.746
 51
344.982
  0
ARC
  8
APS_GEOMETRY
 10
-214.936
 20
-454.286
 40
1.458
 50
296.114
 51
323.746
  0
ARC
  8
APS_GEOMETRY
 10
-215.012
 20
-454.132
 40
1.629
 50
270.0
 51
296.114
  0
ARC
  8
APS_GEOMETRY
 10
-215.012
 20
-453.719
 40
2.042
 50
255.311
 51
270.0
  0
ARC
  8
APS_GEOMETRY
 10
-215.285
 20
-454.76
 40
0.965
 50
233.881
 51
255.311
  0
ARC
  8
APS_GEOMETRY
 10
-214.997
 20
-454.367
 40
1.453
 50
219.289
 51
233.881
  0
ARC
  8
APS_GEOMETRY
 10
-209.232
 20
-449.65
 40
8.902
 50
213.408
 51
219.289
  0
ARC
  8
APS_GEOMETRY
 10
-220.033
 20
-456.764
 40
4.031
 50
33.294
 51
51.246
  0
ARC
  8
APS_GEOMETRY
 10
-219.484
 20
-456.08
 40
3.154
 50
51.246
 51
71.565
  0
ARC
  8
APS_GEOMETRY
 10
-219.847
 20
-457.169
 40
4.302
 50
71.565
 51
79.278
  0
ARC
  8
APS_GEOMETRY
 10
-221.011
 20
-463.317
 40
10.559
 50
79.278
 51
84.2
  0
ARC
  8
APS_GEOMETRY
 10
-221.508
 20
-468.206
 40
15.473
 50
84.2
 51
87.567
  0
ARC
  8
APS_GEOMETRY
 10
-222.108
 20
-482.345
 40
29.625
 50
87.567
 51
90.0
  0
ARC
  8
APS_GEOMETRY
 10
-222.108
 20
-461.048
 40
8.328
 50
90.0
 51
96.374
  0
ARC
  8
APS_GEOMETRY
 10
-222.661
 20
-456.099
 40
3.349
 50
96.374
 51
106.434
  0
ARC
  8
APS_GEOMETRY
 10
-223.054
 20
-454.768
 40
1.961
 50
106.434
 51
123.056
  0
ARC
  8
APS_GEOMETRY
 10
-223.667
 20
-453.825
 40
0.836
 50
123.056
 51
148.627
  0
ARC
  8
APS_GEOMETRY
 10
-223.107
 20
-454.143
 40
1.48
 50
149.421
 51
165.28
  0
ARC
  8
APS_GEOMETRY
 10
-221.493
 20
-454.567
 40
3.149
 50
165.28
 51
176.135
  0
ARC
  8
APS_GEOMETRY
 10
-216.871
 20
-454.879
 40
7.781
 50
176.135
 51
178.367
  0
ARC
  8
APS_GEOMETRY
 10
-174.118
 20
-456.099
 40
50.551
 50
178.367
 51
179.242
  0
ARC
  8
APS_GEOMETRY
 10
-129.934
 20
-456.683
 40
94.739
 50
179.242
 51
179.709
  0
ARC
  8
APS_GEOMETRY
 10
20.39
 20
-457.445
 40
245.066
 50
179.709
 51
180.0
  0
ARC
  8
APS_GEOMETRY
 10
-221.13
 20
-457.445
 40
3.545
 50
180.0
 51
195.027
  0
ARC
  8
APS_GEOMETRY
 10
-224.03
 20
-458.224
 40
0.543
 50
195.027
 51
234.058
  0
ARC
  8
APS_GEOMETRY
 10
-224.001
 20
-458.185
 40
0.591
 50
234.058
 51
253.191
  0
ARC
  8
APS_GEOMETRY
 10
-223.383
 20
-456.137
 40
2.731
 50
253.191
 51
262.063
  0
ARC
  8
APS_GEOMETRY
 10
-223.066
 20
-453.864
 40
5.025
 50
262.063
 51
266.949
  0
ARC
  8
APS_GEOMETRY
 10
-222.648
 20
-446.023
 40
12.877
 50
266.949
 51
270.0
  0
ARC
  8
APS_GEOMETRY
 10
-222.648
 20
-456.54
 40
2.361
 50
270.0
 51
286.007
  0
ARC
  8
APS_GEOMETRY
 10
-222.235
 20
-457.98
 40
0.862
 50
286.007
 51
312.647
  0
ARC
  8
APS_GEOMETRY
 10
-222.243
 20
-457.971
 40
0.875
 50
312.647
 51
338.993
  0
ARC
  8
APS_GEOMETRY
 10
-224.031
 20
-457.284
 40
2.79
 50
338.993
 51
353.66
  0
ARC
  8
APS_GEOMETRY
 10
-205.571
 20
-459.486
 40
15.801
 50
169.663
 51
173.118
  0
ARC
  8
APS_GEOMETRY
 10
-218.766
 20
-457.079
 40
2.388
 50
160.769
 51
169.663
  0
ARC
  8
APS_GEOMETRY
 10
-219.87
 20
-456.694
 40
1.219
 50
143.746
 51
160.769
  0
ARC
  8
APS_GEOMETRY
 10
-219.603
 20
-456.89
 40
1.55
 50
128.66
 51
143.746
  0
ARC
  8
APS_GEOMETRY
 10
-219.781
 20
-456.601
 40
1.215
 50
110.171
 51
130.601
  0
ARC
  8
APS_GEOMETRY
 10
-219.77
 20
-456.631
 40
1.246
 50
90.0
 51
110.171
  0
ARC
  8
APS_GEOMETRY
 10
-219.77
 20
-456.648
 40
1.264
 50
61.22
 51
90.0
  0
ARC
  8
APS_GEOMETRY
 10
-219.991
 20
-457.05
 40
1.722
 50
36.634
 51
61.22
  0
ARC
  8
APS_GEOMETRY
 10
-220.198
 20
-457.173
 40
1.961
 50
19.103
 51
35.91
  0
ARC
  8
APS_GEOMETRY
 10
-226.595
 20
-459.389
 40
8.732
 50
11.16
 51
19.103
  0
ARC
  8
APS_GEOMETRY
 10
-229.938
 20
-460.048
 40
12.139
 50
5.396
 51
11.16
  0
ARC
  8
APS_GEOMETRY
 10
-231.638
 20
-460.209
 40
13.846
 50
0.0
 51
5.396
  0
ARC
  8
APS_GEOMETRY
 10
-231.397
 20
-460.209
 40
13.605
 50
349.287
 51
0.0
  0
ARC
  8
APS_GEOMETRY
 10
-224.718
 20
-461.472
 40
6.808
 50
334.12
 51
349.287
  0
ARC
  8
APS_GEOMETRY
 10
-220.117
 20
-463.696
 40
1.698
 50
303.53
 51
333.853
  0
ARC
  8
APS_GEOMETRY
 10
-219.95
 20
-463.947
 40
1.396
 50
270.0
 51
303.53
  0
ARC
  8
APS_GEOMETRY
 10
-219.95
 20
-463.882
 40
1.461
 50
249.578
 51
270.0
  0
ARC
  8
APS_GEOMETRY
 10
-220.261
 20
-464.717
 40
0.57
 50
216.607
 51
249.578
  0
ARC
  8
APS_GEOMETRY
 10
-219.964
 20
-464.496
 40
0.94
 50
195.422
 51
216.607
  0
ARC
  8
APS_GEOMETRY
 10
-214.832
 20
-463.081
 40
6.263
 50
187.253
 51
195.422
  0
ARC
  8
APS_GEOMETRY
 10
-223.119
 20
-464.147
 40
2.092
 50
7.561
 51
49.434
  0
ARC
  8
APS_GEOMETRY
 10
-223.204
 20
-464.246
 40
2.222
 50
49.434
 51
90.0
  0
ARC
  8
APS_GEOMETRY
 10
-223.204
 20
-463.519
 40
1.495
 50
90.0
 51
115.224
  0
ARC
  8
APS_GEOMETRY
 10
-223.5
 20
-462.891
 40
0.801
 50
115.224
 51
149.931
  0
ARC
  8
APS_GEOMETRY
 10
-222.965
 20
-463.201
 40
1.419
 50
149.931
 51
171.111
  0
ARC
  8
APS_GEOMETRY
 10
-216.481
 20
-464.215
 40
7.982
 50
171.111
 51
180.0
  0
ARC
  8
APS_GEOMETRY
 10
-210.094
 20
-464.215
 40
14.369
 50
180.0
 51
183.062
  0
ARC
  8
APS_GEOMETRY
 10
-188.1
 20
-463.038
 40
36.395
 50
183.062
 51
184.986
  0
ARC
  8
APS_GEOMETRY
 10
-199.636
 20
-464.045
 40
24.815
 50
184.986
 51
187.804
  0
ARC
  8
APS_GEOMETRY
 10
-221.487
 20
-467.04
 40
2.76
 50
187.804
 51
196.26
  0
ARC
  8
APS_GEOMETRY
 10
-223.413
 20
-467.62
 40
0.748
 50
194.931
 51
230.024
  0
ARC
  8
APS_GEOMETRY
 10
-222.923
 20
-467.035
 40
1.511
 50
230.024
 51
254.511
  0
ARC
  8
APS_GEOMETRY
 10
-222.327
 20
-464.884
 40
3.742
 50
254.511
 51
265.219
  0
ARC
  8
APS_GEOMETRY
 10
-221.078
 20
-449.951
 40
18.728
 50
265.219
 51
270.0
  0
ARC
  8
APS_GEOMETRY
 10
-221.078
 20
-451.931
 40
16.748
 50
270.0
 51
274.186
  0
ARC
  8
APS_GEOMETRY
 10
-220.569
 20
-458.889
 40
9.771
 50
274.186
 51
279.668
  0
ARC
  8
APS_GEOMETRY
 10
-220.151
 20
-461.343
 40
7.282
 50
279.668
 51
286.991
  0
ARC
  8
APS_GEOMETRY
 10
-219.194
 20
-464.473
 40
4.009
 50
286.991
 51
296.866
  0
ARC
  8
APS_GEOMETRY
 10
-218.996
 20
-464.865
 40
3.569
 50
296.866
 51
318.366
  0
ARC
  8
APS_GEOMETRY
 10
-220.995
 20
-463.088
 40
6.245
 50
318.366
 51
334.581
  0
ARC
  8
APS_GEOMETRY
 10
-207.831
 20
-469.401
 40
8.355
 50
147.08
 51
154.231
  0
ARC
  8
APS_GEOMETRY
 10
-213.334
 20
-465.838
 40
1.8
 50
131.634
 51
147.08
  0
ARC
  8
APS_GEOMETRY
 10
-213.744
 20
-465.376
 40
1.182
 50
108.875
 51
131.634
  0
ARC
  8
APS_GEOMETRY
 10
-213.573
 20
-465.877
 40
1.712
 50
90.0
 51
108.875
  0
ARC
  8
APS_GEOMETRY
 10
-213.573
 20
-465.53
 40
1.364
 50
62.628
 51
90.0
  0
ARC
  8
APS_GEOMETRY
 10
-213.659
 20
-465.696
 40
1.551
 50
36.995
 51
62.628
  0
ARC
  8
APS_GEOMETRY
 10
-214.046
 20
-465.988
 40
2.036
 50
16.728
 51
36.995
  0
ARC
  8
APS_GEOMETRY
 10
-214.948
 20
-466.259
 40
2.978
 50
360.0
 51
16.728
  0
ARC
  8
APS_GEOMETRY
 10
-216.736
 20
-466.259
 40
4.766
 50
348.323
 51
360.0
  0
ARC
  8
APS_GEOMETRY
 10
-223.891
 20
-464.78
 40
12.072
 50
340.994
 51
348.323
  0
ARC
  8
APS_GEOMETRY
 10
-225.588
 20
-464.196
 40
13.867
 50
334.592
 51
340.994
  0
ARC
  8
APS_GEOMETRY
 10
-222.626
 20
-465.603
 40
10.587
 50
327.265
 51
334.592
  0
ARC
  8
APS_GEOMETRY
 10
-219.186
 20
-467.63
 40
6.599
 50
320.133
 51
325.923
  0
ARC
  8
APS_GEOMETRY
 10
-215.184
 20
-470.972
 40
1.386
 50
307.476
 51
320.133
  0
ARC
  8
APS_GEOMETRY
 10
-214.834
 20
-471.429
 40
0.81
 50
286.429
 51
307.476
  0
ARC
  8
APS_GEOMETRY
 10
-214.979
 20
-470.937
 40
1.323
 50
270.0
 51
286.429
  0
ARC
  8
APS_GEOMETRY
 10
-214.979
 20
-469.408
 40
2.852
 50
263.774
 51
270.0
  0
ARC
  8
APS_GEOMETRY
 10
-214.145
 20
-461.759
 40
10.546
 50
260.538
 51
263.774
  0
ARC
  8
APS_GEOMETRY
 10
-217.879
 20
-482.832
 40
10.857
 50
79.38
 51
84.987
  0
ARC
  8
APS_GEOMETRY
 10
-219.498
 20
-501.288
 40
29.383
 50
84.987
 51
88.394
  0
LINE
  8
APS_GEOMETRY
 10
-218.674
 11
-232.541
 20
-471.917
 21
-471.917
  0
ARC
  8
APS_GEOMETRY
 10
-232.541
 20
-469.015
 40
2.902
 50
254.103
 51
270.0
  0
ARC
  8
APS_GEOMETRY
 10
-232.949
 20
-470.45
 40
1.41
 50
231.216
 51
254.103
  0
ARC
  8
APS_GEOMETRY
 10
-233.117
 20
-470.659
 40
1.142
 50
203.795
 51
231.216
  0
ARC
  8
APS_GEOMETRY
 10
-232.781
 20
-470.51
 40
1.509
 50
180.0
 51
203.795
  0
ARC
  8
APS_GEOMETRY
 10
-232.654
 20
-470.51
 40
1.637
 50
164.055
 51
180.0
  0
ARC
  8
APS_GEOMETRY
 10
-233.662
 20
-470.222
 40
0.588
 50
137.291
 51
164.055
  0
ARC
  8
APS_GEOMETRY
 10
-233.359
 20
-470.502
 40
1.001
 50
120.964
 51
137.291
  0
ARC
  8
APS_GEOMETRY
 10
-230.108
 20
-475.92
 40
7.318
 50
114.944
 51
120.964
  0
ARC
  8
APS_GEOMETRY
 10
-234.166
 20
-467.042
 40
2.443
 50
293.429
 51
305.72
  0
ARC
  8
APS_GEOMETRY
 10
-233.494
 20
-467.977
 40
1.292
 50
305.72
 51
322.651
  0
ARC
  8
APS_GEOMETRY
 10
-233.598
 20
-467.897
 40
1.423
 50
322.651
 51
338.11
  0
ARC
  8
APS_GEOMETRY
 10
-235.627
 20
-467.082
 40
3.61
 50
338.11
 51
347.8
  0
ARC
  8
APS_GEOMETRY
 10
-248.228
 20
-464.32
 40
16.509
 50
347.672
 51
352.051
  0
ARC
  8
APS_GEOMETRY
 10
-260.424
 20
-462.617
 40
28.824
 50
352.051
 51
355.365
  0
ARC
  8
APS_GEOMETRY
 10
-268.638
 20
-461.951
 40
37.064
 50
355.365
 51
357.943
  0
ARC
  8
APS_GEOMETRY
 10
-289.842
 20
-461.19
 40
58.283
 50
357.943
 51
0.0
  0
ARC
  8
APS_GEOMETRY
 10
-314.319
 20
-461.19
 40
82.759
 50
360.0
 51
2.183
  0
ARC
  8
APS_GEOMETRY
 10
-264.831
 20
-459.303
 40
33.235
 50
2.183
 51
5.629
  0
ARC
  8
APS_GEOMETRY
 10
-250.089
 20
-457.85
 40
18.422
 50
5.629
 51
11.805
  0
ARC
  8
APS_GEOMETRY
 10
-235.781
 20
-454.86
 40
3.805
 50
11.805
 51
25.419
  0
ARC
  8
APS_GEOMETRY
 10
-233.929
 20
-454.019
 40
1.772
 50
26.565
 51
38.157
  0
ARC
  8
APS_GEOMETRY
 10
-233.107
 20
-453.373
 40
0.726
 50
38.157
 51
56.31
  0
ARC
  8
APS_GEOMETRY
 10
-233.281
 20
-453.634
 40
1.04
 50
56.31
 51
69.193
  0
ARC
  8
APS_GEOMETRY
 10
-235.721
 20
-460.054
 40
7.908
 50
69.193
 51
73.856
  0
ARC
  8
APS_GEOMETRY
 10
-233.147
 20
-451.201
 40
1.312
 50
216.87
 51
253.393
  0
ARC
  8
APS_GEOMETRY
 10
-233.166
 20
-451.215
 40
1.288
 50
180.0
 51
216.87
  0
ARC
  8
APS_GEOMETRY
 10
-232.885
 20
-451.215
 40
1.569
 50
161.565
 51
180.0
  0
ARC
  8
APS_GEOMETRY
 10
-232.942
 20
-451.196
 40
1.509
 50
142.765
 51
161.565
  0
ARC
  8
APS_GEOMETRY
 10
-232.978
 20
-451.169
 40
1.464
 50
123.425
 51
142.765
  0
ARC
  8
APS_GEOMETRY
 10
-232.945
 20
-451.219
 40
1.523
 50
104.47
 51
123.425
  0
ARC
  8
APS_GEOMETRY
 10
-232.655
 20
-452.65
 40
2.982
 50
96.724
 51
102.995
  0
ARC
  8
APS_GEOMETRY
 10
-231.754
 20
-460.287
 40
10.673
 50
93.411
 51
96.724
  0
ARC
  8
APS_GEOMETRY
 10
-231.355
 20
-466.998
 40
17.395
 50
91.375
 51
93.411
  0
ARC
  8
APS_GEOMETRY
 10
-230.857
 20
-487.748
 40
38.151
 50
90.0
 51
91.375
  0
LINE
  8
COSTRUZIONI
 10
-667.63
 11
1332.37
 20
-614.211
 21
-614.211
  0
LINE
  8
COSTRUZIONI
 10
1332.37
 11
1332.37
 20
-614.211
 21
-414.211
  0
LINE
  8
COSTRUZIONI
 10
1332.37
 11
-667.63
 20
-414.211
 21
-414.211
  0
LINE
  8
COSTRUZIONI
 10
-667.63
 11
-667.63
 20
-414.211
 21
-614.211
  0
LINE
  8
COSTRUZIONI
 10
-201.779
 11
-201.779
 20
-614.211
 21
-414.211
  0
LINE
  8
COSTRUZIONI
 10
1133.478
 11
1133.478
 20
-614.211
 21
-414.211
  0
LINE
  8
COSTRUZIONI
 10
1332.37
 11
-201.779
 20
-464.211
 21
-464.211
  0
LINE
  8
COSTRUZIONI
 10
1133.478
 11
1332.37
 20
-564.211
 21
-564.211
  0
LINE
  8
COSTRUZIONI
 10
-201.779
 11
1332.37
 20
-514.211
 21
-514.211
  0
LINE
  8
COSTRUZIONI
 10
826.668
 11
826.668
 20
-514.211
 21
-464.211
  0
LINE
  8
COSTRUZIONI
 10
331.59
 11
331.59
 20
-514.211
 21
-464.211
  0
LINE
  8
QUOTATURA
 10
-312.913
 11
-443.98
 20
886.0
 21
886.0
  0
LINE
  8
QUOTATURA
 10
-312.913
 11
-443.98
 20
1136.0
 21
1136.0
  0
LINE
  8
QUOTATURA
 10
-433.98
 11
-433.98
 20
886.0
 21
980.245
  0
LINE
  8
QUOTATURA
 10
-433.98
 11
-433.98
 20
1041.755
 21
1136.0
  0
LINE
  8
QUOTATURA
 10
-430.646
 11
-433.98
 20
906.0
 21
886.0
  0
LINE
  8
QUOTATURA
 10
-433.98
 11
-437.314
 20
886.0
 21
906.0
  0
LINE
  8
QUOTATURA
 10
-437.314
 11
-430.646
 20
906.0
 21
906.0
  0
LINE
  8
QUOTATURA
 10
-437.314
 11
-433.98
 20
1116.0
 21
1136.0
  0
LINE
  8
QUOTATURA
 10
-433.98
 11
-430.646
 20
1136.0
 21
1116.0
  0
LINE
  8
QUOTATURA
 10
-430.646
 11
-437.314
 20
1116.0
 21
1116.0
  0
TEXT
  8
QUOTATURA
 10
-584.585
 20
900.253
 30
0.0
 40
20.0
 50
90.0
  1
ESTERNO TELAIO=2140
  0
TEXT
  8
QUOTATURA
 10
-488.673
 20
910.812
 30
0.0
 40
20.0
 50
90.0
  1
LUCE NETTA=2096
  0
TEXT
  8
TEXT
 10
373.108
 20
-72.794
 30
0.0
 40
20.0
 50
0.0
  1
SEZ-A
  0
TEXT
  8
TEXT
 10
941.017
 20
976.031
 30
0.0
 40
20.0
 50
0.0
  1
SEZ-B
  0
TEXT
  8
TEXT
 10
-390.847
 20
1003.767
 30
0.0
 40
20.0
 50
0.0
  1
SEZ-A
  0
TEXT
  8
QUOTATURA
 10
-166.357
 20
360.427
 30
0.0
 40
20.0
 50
90.0
  1
H TRAV. CENTRALE=886
  0
TEXT
  8
TEXT
 10
354.343
 20
-218.73
 30
0.0
 40
20.0
 50
0.0
  1
SEZ-B
  0
TEXT
  8
TEXT
 10
424.462
 20
-72.794
 30
0.0
 40
20.0
 50
0.0
  1
-
  0
TEXT
  8
QUOTATURA
 10
290.582
 20
-260.583
 30
0.0
 40
20.0
 50
0.0
  1
LUCE NETTA=792
  0
TEXT
  8
QUOTATURA
 10
254.21
 20
-370.597
 30
0.0
 40
20.0
 50
0.0
  1
ESTERNO TELAIO=880
  0
TEXT
  8
QUOTATURA
 10
-212.803
 20
703.76
 30
0.0
 40
20.0
 50
90.0
  1
H TRAV. CENTRALE=1248
  0
TEXT
  8
TEXT
 10
1240.368
 20
-555.646
 30
0.0
 40
20.0
 50
0.0
  1
B.Stefano
  0
TEXT
  8
TEXT
 10
-196.83
 20
-432.88
 30
0.0
 40
15.0
 50
0.0
  1
file:
  0
TEXT
  8
TEXT
 10
1140.388
 20
-433.189
 30
0.0
 40
15.0
 50
0.0
  1
data:
  0
TEXT
  8
TEXT
 10
1253.925
 20
-452.99
 30
0.0
 40
20.0
 50
0.0
  1
12/06/14
  0
TEXT
  8
TEXT
 10
1254.944
 20
-609.464
 30
0.0
 40
20.0
 50
0.0
  1
1 : 10
  0
TEXT
  8
TEXT
 10
1138.524
 20
-530.804
 30
0.0
 40
15.0
 50
0.0
  1
responsabile tecnico:
  0
TEXT
  8
TEXT
 10
1140.579
 20
-583.188
 30
0.0
 40
15.0
 50
0.0
  1
scala:
  0
TEXT
  8
TEXT
 10
-658.868
 20
-433.477
 30
0.0
 40
15.0
 50
0.0
  1
Ufficio tecnico:
  0
TEXT
  8
TEXT
 10
-659.867
 20
-506.198
 30
0.0
 40
20.0
 50
0.0
  1
tel. 0577-68.54.26
  0
TEXT
  8
TEXT
 10
-659.867
 20
-536.198
 30
0.0
 40
20.0
 50
0.0
  1
fax 0577-68.64.29
  0
TEXT
  8
TEXT
 10
-659.867
 20
-566.198
 30
0.0
 40
20.0
 50
0.0
  1
e-mail: tecnico@toscocornici.it
  0
TEXT
  8
TEXT
 10
-659.867
 20
-596.198
 30
0.0
 40
20.0
 50
0.0
  1
web: www.tosococornici.it
  0
TEXT
  8
TEXT
 10
-149.985
 20
-453.463
 30
0.0
 40
20.0
 50
0.0
  1
MOD.200-FL
  0
TEXT
  8
TEXT
 10
-196.83
 20
-482.88
 30
0.0
 40
15.0
 50
0.0
  1
pezzo:
  0
TEXT
  8
TEXT
 10
-149.985
 20
-503.463
 30
0.0
 40
20.0
 50
0.0
  1
PEZZO
  0
TEXT
  8
TEXT
 10
-196.83
 20
-532.88
 30
0.0
 40
15.0
 50
0.0
  1
note:
  0
TEXT
  8
TEXT
 10
-149.985
 20
-553.463
 30
0.0
 40
20.0
 50
0.0
  1
NOTE
  0
TEXT
  8
TEXT
 10
337.319
 20
-482.88
 30
0.0
 40
15.0
 50
0.0
  1
lotto:
  0
TEXT
  8
TEXT
 10
385.368
 20
-503.463
 30
0.0
 40
20.0
 50
0.0
  1
________
  0
TEXT
  8
TEXT
 10
837.319
 20
-482.88
 30
0.0
 40
15.0
 50
0.0
  1
ordine:
  0
TEXT
  8
TEXT
 10
891.408
 20
-503.463
 30
0.0
 40
20.0
 50
0.0
  1
______
  0
TEXT
  8
TEXT
 10
1138.427
 20
-482.88
 30
0.0
 40
15.0
 50
0.0
  1
pos:
  0
TEXT
  8
TEXT
 10
1182.841
 20
-503.463
 30
0.0
 40
20.0
 50
0.0
  1
_______
  0
TEXT
  8
QUOTATURA
 10
-423.98
 20
985.245
 30
0.0
 40
20.0
 50
90.0
  1
250
  0
ENDSEC
  0
EOF
