  0
SECTION
  2
ENTITIES
  0
LINE
  8
APS_GEOMETRY
 10
0.0
 11
833.0
 20
0.0
 21
0.0
  0
LINE
  8
APS_GEOMETRY
 10
833.0
 11
833.0
 20
0.0
 21
2119.0
  0
LINE
  8
APS_GEOMETRY
 10
833.0
 11
0.0
 20
2119.0
 21
2119.0
  0
LINE
  8
APS_GEOMETRY
 10
0.0
 11
0.0
 20
2119.0
 21
0.0
  0
LINE
  8
QUOTATURA
 10
0.0
 11
0.0
 20
-10.0
 21
-123.908
  0
LINE
  8
QUOTATURA
 10
833.0
 11
833.0
 20
-10.0
 21
-123.908
  0
LINE
  8
QUOTATURA
 10
0.0
 11
343.739
 20
-113.908
 21
-113.908
  0
LINE
  8
QUOTATURA
 10
489.261
 11
833.0
 20
-113.908
 21
-113.908
  0
LINE
  8
QUOTATURA
 10
20.0
 11
0.0
 20
-117.242
 21
-113.908
  0
LINE
  8
QUOTATURA
 10
0.0
 11
20.0
 20
-113.908
 21
-110.574
  0
LINE
  8
QUOTATURA
 10
20.0
 11
20.0
 20
-110.574
 21
-117.242
  0
LINE
  8
QUOTATURA
 10
813.0
 11
833.0
 20
-110.574
 21
-113.908
  0
LINE
  8
QUOTATURA
 10
833.0
 11
813.0
 20
-113.908
 21
-117.242
  0
LINE
  8
QUOTATURA
 10
813.0
 11
813.0
 20
-117.242
 21
-110.574
  0
LINE
  8
QUOTATURA
 10
-10.0
 11
-167.623
 20
0.0
 21
0.0
  0
LINE
  8
QUOTATURA
 10
-10.0
 11
-167.623
 20
2119.0
 21
2119.0
  0
LINE
  8
QUOTATURA
 10
-157.623
 11
-157.623
 20
0.0
 21
1044.256
  0
LINE
  8
QUOTATURA
 10
-157.623
 11
-157.623
 20
1074.637
 21
2119.0
  0
LINE
  8
QUOTATURA
 10
-154.289
 11
-157.623
 20
20.0
 21
0.0
  0
LINE
  8
QUOTATURA
 10
-157.623
 11
-160.957
 20
0.0
 21
20.0
  0
LINE
  8
QUOTATURA
 10
-160.957
 11
-154.289
 20
20.0
 21
20.0
  0
LINE
  8
QUOTATURA
 10
-160.957
 11
-157.623
 20
2099.0
 21
2119.0
  0
LINE
  8
QUOTATURA
 10
-157.623
 11
-154.289
 20
2119.0
 21
2099.0
  0
LINE
  8
QUOTATURA
 10
-154.289
 11
-160.957
 20
2099.0
 21
2099.0
  0
LINE
  8
COSTRUZIONI
 10
35.0
 11
35.0
 20
2119.0
 21
0.0
  0
LINE
  8
COSTRUZIONI
 10
798.0
 11
798.0
 20
0.0
 21
2119.0
  0
LINE
  8
COSTRUZIONI
 10
15.0
 11
15.0
 20
2119.0
 21
0.0
  0
LINE
  8
COSTRUZIONI
 10
818.0
 11
818.0
 20
0.0
 21
2119.0
  0
LINE
  8
APS_GEOMETRY
 10
0.0
 11
833.0
 20
-247.944
 21
-247.944
  0
LINE
  8
APS_GEOMETRY
 10
833.0
 11
833.0
 20
-247.944
 21
-293.444
  0
LINE
  8
APS_GEOMETRY
 10
833.0
 11
0.0
 20
-293.444
 21
-293.444
  0
LINE
  8
APS_GEOMETRY
 10
0.0
 11
0.0
 20
-293.444
 21
-247.944
  0
LINE
  8
APS_GEOMETRY
 10
-511.965
 11
-466.465
 20
0.0
 21
0.0
  0
LINE
  8
APS_GEOMETRY
 10
-466.465
 11
-466.465
 20
0.0
 21
2119.0
  0
LINE
  8
APS_GEOMETRY
 10
-466.465
 11
-511.965
 20
2119.0
 21
2119.0
  0
LINE
  8
APS_GEOMETRY
 10
-511.965
 11
-511.965
 20
2119.0
 21
0.0
  0
LINE
  8
COSTRUZIONI
 10
416.5
 11
416.5
 20
-247.944
 21
-293.444
  0
LINE
  8
QUOTATURA
 10
35.0
 11
35.0
 20
1069.5
 21
1225.105
  0
LINE
  8
QUOTATURA
 10
0.0
 11
0.0
 20
1069.5
 21
1225.105
  0
LINE
  8
QUOTATURA
 10
0.0
 11
-69.996
 20
1215.105
 21
1215.105
  0
LINE
  8
QUOTATURA
 10
-20.0
 11
0.0
 20
1218.439
 21
1215.105
  0
LINE
  8
QUOTATURA
 10
0.0
 11
-20.0
 20
1215.105
 21
1211.771
  0
LINE
  8
QUOTATURA
 10
-20.0
 11
-20.0
 20
1211.771
 21
1218.439
  0
LINE
  8
QUOTATURA
 10
35.0
 11
75.0
 20
1215.105
 21
1215.105
  0
LINE
  8
QUOTATURA
 10
55.0
 11
35.0
 20
1211.771
 21
1215.105
  0
LINE
  8
QUOTATURA
 10
35.0
 11
55.0
 20
1215.105
 21
1218.439
  0
LINE
  8
QUOTATURA
 10
55.0
 11
55.0
 20
1218.439
 21
1211.771
  0
LINE
  8
QUOTATURA
 10
268.063
 11
284.678
 20
-24.114
 21
-12.493
  0
LINE
  8
QUOTATURA
 10
284.678
 11
272.731
 20
-12.493
 21
-28.875
  0
LINE
  8
QUOTATURA
 10
272.731
 11
268.063
 20
-28.875
 21
-24.114
  0
LINE
  8
QUOTATURA
 10
284.678
 11
103.424
 20
-12.493
 21
-190.193
  0
LINE
  8
QUOTATURA
 10
103.424
 11
-429.677
 20
-190.193
 21
-190.193
  0
LINE
  8
QUOTATURA
 10
867.926
 11
864.592
 20
622.7
 21
602.7
  0
LINE
  8
QUOTATURA
 10
864.592
 11
861.258
 20
602.7
 21
622.7
  0
LINE
  8
QUOTATURA
 10
861.258
 11
867.926
 20
622.7
 21
622.7
  0
LINE
  8
QUOTATURA
 10
864.592
 11
864.592
 20
602.7
 21
697.158
  0
LINE
  8
QUOTATURA
 10
864.592
 11
919.087
 20
697.158
 21
697.158
  0
LINE
  8
QUOTATURA
 10
366.569
 11
363.235
 20
2148.568
 21
2128.568
  0
LINE
  8
QUOTATURA
 10
363.235
 11
359.901
 20
2128.568
 21
2148.568
  0
LINE
  8
QUOTATURA
 10
359.901
 11
366.569
 20
2148.568
 21
2148.568
  0
LINE
  8
QUOTATURA
 10
363.235
 11
363.235
 20
2128.568
 21
2186.696
  0
LINE
  8
QUOTATURA
 10
363.235
 11
294.208
 20
2186.696
 21
2186.696
  0
LINE
  8
COSTRUZIONI
 10
-466.465
 11
-511.965
 20
1059.5
 21
1059.5
  0
LINE
  8
APS_GEOMETRY
 10
-688.712
 11
-680.095
 20
-430.329
 21
-430.329
  0
ARC
  8
APS_GEOMETRY
 10
-680.531
 20
-417.981
 40
12.355
 50
272.021
 51
278.44
  0
ARC
  8
APS_GEOMETRY
 10
-680.044
 20
-421.259
 40
9.042
 50
278.44
 51
285.945
  0
ARC
  8
APS_GEOMETRY
 10
-676.386
 20
-434.358
 40
4.559
 50
98.584
 51
104.931
  0
ARC
  8
APS_GEOMETRY
 10
-676.694
 20
-432.317
 40
2.495
 50
90.0
 51
98.584
  0
ARC
  8
APS_GEOMETRY
 10
-676.694
 20
-431.698
 40
1.876
 50
52.871
 51
90.0
  0
ARC
  8
APS_GEOMETRY
 10
-679.238
 20
-435.058
 40
6.091
 50
32.518
 51
52.871
  0
ARC
  8
APS_GEOMETRY
 10
-681.254
 20
-436.343
 40
8.481
 50
17.209
 51
32.518
  0
ARC
  8
APS_GEOMETRY
 10
-679.574
 20
-435.823
 40
6.723
 50
360.0
 51
17.209
  0
ARC
  8
APS_GEOMETRY
 10
-676.21
 20
-435.823
 40
3.359
 50
337.348
 51
360.0
  0
ARC
  8
APS_GEOMETRY
 10
-674.86
 20
-436.386
 40
1.896
 50
307.042
 51
337.348
  0
ARC
  8
APS_GEOMETRY
 10
-675.094
 20
-436.064
 40
2.295
 50
287.186
 51
306.87
  0
ARC
  8
APS_GEOMETRY
 10
-675.304
 20
-435.387
 40
3.003
 50
270.0
 51
287.186
  0
ARC
  8
APS_GEOMETRY
 10
-675.304
 20
-435.694
 40
2.697
 50
252.221
 51
270.0
  0
ARC
  8
APS_GEOMETRY
 10
-675.429
 20
-436.085
 40
2.286
 50
232.896
 51
252.221
  0
ARC
  8
APS_GEOMETRY
 10
-674.944
 20
-435.444
 40
3.09
 50
218.3
 51
232.896
  0
ARC
  8
APS_GEOMETRY
 10
-671.154
 20
-432.45
 40
7.92
 50
209.197
 51
218.3
  0
ARC
  8
APS_GEOMETRY
 10
-690.431
 20
-442.894
 40
14.006
 50
28.025
 51
32.699
  0
ARC
  8
APS_GEOMETRY
 10
-680.353
 20
-436.424
 40
2.03
 50
32.699
 51
45.0
  0
ARC
  8
APS_GEOMETRY
 10
-679.666
 20
-435.737
 40
1.058
 50
45.0
 51
67.557
  0
ARC
  8
APS_GEOMETRY
 10
-679.67
 20
-435.747
 40
1.069
 50
67.557
 51
90.0
  0
ARC
  8
APS_GEOMETRY
 10
-679.67
 20
-435.663
 40
0.984
 50
90.0
 51
120.801
  0
ARC
  8
APS_GEOMETRY
 10
-679.703
 20
-435.607
 40
0.919
 50
120.801
 51
152.7
  0
ARC
  8
APS_GEOMETRY
 10
-678.973
 20
-435.984
 40
1.74
 50
152.7
 51
171.085
  0
ARC
  8
APS_GEOMETRY
 10
-673.429
 20
-436.853
 40
7.353
 50
171.085
 51
180.0
  0
LINE
  8
APS_GEOMETRY
 10
-680.782
 11
-680.782
 20
-436.853
 21
-446.01
  0
ARC
  8
APS_GEOMETRY
 10
-671.068
 20
-446.01
 40
9.714
 50
180.0
 51
188.194
  0
ARC
  8
APS_GEOMETRY
 10
-678.322
 20
-447.055
 40
2.385
 50
188.194
 51
204.775
  0
ARC
  8
APS_GEOMETRY
 10
-679.027
 20
-447.38
 40
1.609
 50
204.775
 51
228.576
  0
ARC
  8
APS_GEOMETRY
 10
-678.365
 20
-446.631
 40
2.608
 50
228.576
 51
247.218
  0
ARC
  8
APS_GEOMETRY
 10
-682.2
 20
-455.667
 40
7.208
 50
59.381
 51
66.93
  0
ARC
  8
APS_GEOMETRY
 10
-679.369
 20
-450.884
 40
1.65
 50
43.568
 51
59.381
  0
ARC
  8
APS_GEOMETRY
 10
-678.916
 20
-450.453
 40
1.025
 50
19.041
 51
43.568
  0
ARC
  8
APS_GEOMETRY
 10
-679.546
 20
-450.671
 40
1.691
 50
360.0
 51
19.041
  0
ARC
  8
APS_GEOMETRY
 10
-679.228
 20
-450.671
 40
1.374
 50
317.66
 51
360.0
  0
ARC
  8
APS_GEOMETRY
 10
-680.489
 20
-449.521
 40
3.08
 50
289.747
 51
317.66
  0
ARC
  8
APS_GEOMETRY
 10
-681.546
 20
-446.579
 40
6.206
 50
281.964
 51
289.747
  0
ARC
  8
APS_GEOMETRY
 10
-683.009
 20
-439.673
 40
13.265
 50
276.643
 51
281.964
  0
ARC
  8
APS_GEOMETRY
 10
-683.625
 20
-434.385
 40
18.589
 50
272.836
 51
276.643
  0
ARC
  8
APS_GEOMETRY
 10
-684.363
 20
-419.497
 40
33.495
 50
270.0
 51
272.836
  0
ARC
  8
APS_GEOMETRY
 10
-684.363
 20
-410.272
 40
42.72
 50
267.283
 51
270.0
  0
ARC
  8
APS_GEOMETRY
 10
-685.26
 20
-429.174
 40
23.797
 50
263.643
 51
267.283
  0
ARC
  8
APS_GEOMETRY
 10
-686.011
 20
-435.916
 40
17.014
 50
258.563
 51
263.643
  0
ARC
  8
APS_GEOMETRY
 10
-687.805
 20
-444.785
 40
7.964
 50
251.136
 51
258.563
  0
ARC
  8
APS_GEOMETRY
 10
-689.407
 20
-449.432
 40
3.05
 50
222.558
 51
251.395
  0
ARC
  8
APS_GEOMETRY
 10
-690.596
 20
-450.523
 40
1.436
 50
180.0
 51
222.558
  0
ARC
  8
APS_GEOMETRY
 10
-690.836
 20
-450.523
 40
1.196
 50
150.642
 51
180.0
  0
ARC
  8
APS_GEOMETRY
 10
-690.74
 20
-450.577
 40
1.306
 50
122.574
 51
150.642
  0
ARC
  8
APS_GEOMETRY
 10
-690.993
 20
-450.286
 40
0.926
 50
108.677
 51
119.055
  0
ARC
  8
APS_GEOMETRY
 10
-679.436
 20
-484.478
 40
37.018
 50
107.038
 51
108.677
  0
ARC
  8
APS_GEOMETRY
 10
-690.713
 20
-447.596
 40
1.549
 50
286.144
 51
308.66
  0
ARC
  8
APS_GEOMETRY
 10
-690.459
 20
-447.913
 40
1.143
 50
308.66
 51
334.933
  0
ARC
  8
APS_GEOMETRY
 10
-691.491
 20
-447.43
 40
2.283
 50
334.933
 51
348.829
  0
ARC
  8
APS_GEOMETRY
 10
-704.404
 20
-444.88
 40
15.445
 50
348.829
 51
354.161
  0
ARC
  8
APS_GEOMETRY
 10
-713.132
 20
-443.981
 40
24.219
 50
354.144
 51
355.66
  0
ARC
  8
APS_GEOMETRY
 10
-751.82
 20
-441.045
 40
63.019
 50
355.66
 51
356.6
  0
ARC
  8
APS_GEOMETRY
 10
-781.395
 20
-439.288
 40
92.646
 50
356.6
 51
357.24
  0
ARC
  8
APS_GEOMETRY
 10
-865.307
 20
-435.242
 40
176.656
 50
357.24
 51
357.703
  0
ARC
  8
APS_GEOMETRY
 10
-857.047
 20
-435.574
 40
168.389
 50
357.703
 51
358.674
  0
ARC
  8
APS_GEOMETRY
 10
-779.131
 20
-437.377
 40
90.452
 50
358.674
 51
0.0
  0
ARC
  8
APS_GEOMETRY
 10
-702.084
 20
-437.377
 40
13.405
 50
360.0
 51
6.242
  0
ARC
  8
APS_GEOMETRY
 10
-691.425
 20
-436.211
 40
2.682
 50
6.242
 51
20.225
  0
ARC
  8
APS_GEOMETRY
 10
-689.947
 20
-435.666
 40
1.107
 50
20.225
 51
50.44
  0
ARC
  8
APS_GEOMETRY
 10
-689.661
 20
-435.319
 40
0.657
 50
50.44
 51
90.0
  0
ARC
  8
APS_GEOMETRY
 10
-689.661
 20
-435.543
 40
0.881
 50
90.0
 51
126.747
  0
ARC
  8
APS_GEOMETRY
 10
-688.416
 20
-437.211
 40
2.962
 50
126.747
 51
146.547
  0
ARC
  8
APS_GEOMETRY
 10
-710.409
 20
-422.754
 40
23.357
 50
324.255
 51
326.701
  0
ARC
  8
APS_GEOMETRY
 10
-701.098
 20
-429.456
 40
11.885
 50
320.826
 51
324.255
  0
ARC
  8
APS_GEOMETRY
 10
-698.055
 20
-431.936
 40
7.959
 50
315.722
 51
320.826
  0
ARC
  8
APS_GEOMETRY
 10
-694.558
 20
-435.346
 40
3.075
 50
307.504
 51
315.722
  0
ARC
  8
APS_GEOMETRY
 10
-694.88
 20
-434.915
 40
3.613
 50
291.306
 51
307.405
  0
ARC
  8
APS_GEOMETRY
 10
-694.321
 20
-436.35
 40
2.073
 50
270.0
 51
291.306
  0
ARC
  8
APS_GEOMETRY
 10
-694.321
 20
-436.484
 40
1.939
 50
245.532
 51
270.0
  0
ARC
  8
APS_GEOMETRY
 10
-694.335
 20
-436.516
 40
1.904
 50
220.833
 51
245.532
  0
ARC
  8
APS_GEOMETRY
 10
-694.139
 20
-436.346
 40
2.164
 50
198.684
 51
220.833
  0
ARC
  8
APS_GEOMETRY
 10
-693.318
 20
-436.068
 40
3.03
 50
180.0
 51
198.684
  0
ARC
  8
APS_GEOMETRY
 10
-691.395
 20
-436.068
 40
4.954
 50
168.408
 51
180.0
  0
ARC
  8
APS_GEOMETRY
 10
-688.218
 20
-436.72
 40
8.196
 50
159.402
 51
168.408
  0
ARC
  8
APS_GEOMETRY
 10
-687.237
 20
-437.089
 40
9.245
 50
151.39
 51
159.402
  0
ARC
  8
APS_GEOMETRY
 10
-687.438
 20
-436.979
 40
9.016
 50
143.276
 51
151.39
  0
ARC
  8
APS_GEOMETRY
 10
-689.963
 20
-435.091
 40
5.863
 50
124.216
 51
143.31
  0
ARC
  8
APS_GEOMETRY
 10
-692.211
 20
-431.784
 40
1.864
 50
90.0
 51
124.216
  0
ARC
  8
APS_GEOMETRY
 10
-692.211
 20
-432.612
 40
2.692
 50
82.725
 51
90.0
  0
ARC
  8
APS_GEOMETRY
 10
-692.422
 20
-434.26
 40
4.353
 50
77.005
 51
82.725
  0
ARC
  8
APS_GEOMETRY
 10
-685.998
 20
-403.287
 40
27.28
 50
258.486
 51
260.378
  0
ARC
  8
APS_GEOMETRY
 10
-688.75
 20
-419.519
 40
10.816
 50
260.378
 51
263.382
  0
ARC
  8
APS_GEOMETRY
 10
-688.985
 20
-421.548
 40
8.774
 50
263.382
 51
267.084
  0
ARC
  8
APS_GEOMETRY
 10
-688.712
 20
-416.192
 40
14.137
 50
267.084
 51
270.0
  0
ARC
  8
APS_GEOMETRY
 10
-658.849
 20
-442.762
 40
12.891
 50
71.91
 51
90.0
  0
ARC
  8
APS_GEOMETRY
 10
-658.349
 20
-441.234
 40
11.283
 50
52.561
 51
71.91
  0
ARC
  8
APS_GEOMETRY
 10
-658.48
 20
-441.272
 40
11.393
 50
38.846
 51
52.156
  0
ARC
  8
APS_GEOMETRY
 10
-660.266
 20
-442.71
 40
13.686
 50
26.707
 51
38.846
  0
ARC
  8
APS_GEOMETRY
 10
-659.913
 20
-442.421
 40
13.241
 50
13.868
 51
26.278
  0
ARC
  8
APS_GEOMETRY
 10
-657.363
 20
-441.792
 40
10.614
 50
360.0
 51
13.868
  0
ARC
  8
APS_GEOMETRY
 10
-657.198
 20
-441.792
 40
10.449
 50
339.712
 51
360.0
  0
ARC
  8
APS_GEOMETRY
 10
-657.786
 20
-441.574
 40
11.076
 50
320.013
 51
339.712
  0
ARC
  8
APS_GEOMETRY
 10
-657.883
 20
-441.52
 40
11.186
 50
303.344
 51
320.123
  0
ARC
  8
APS_GEOMETRY
 10
-659.031
 20
-439.776
 40
13.274
 50
287.949
 51
303.344
  0
ARC
  8
APS_GEOMETRY
 10
-659.408
 20
-438.468
 40
14.634
 50
279.039
 51
287.776
  0
ARC
  8
APS_GEOMETRY
 10
-659.257
 20
-439.418
 40
13.673
 50
270.0
 51
279.039
  0
ARC
  8
APS_GEOMETRY
 10
-659.257
 20
-440.085
 40
13.005
 50
257.728
 51
270.0
  0
ARC
  8
APS_GEOMETRY
 10
-659.237
 20
-439.991
 40
13.102
 50
245.501
 51
257.728
  0
ARC
  8
APS_GEOMETRY
 10
-659.973
 20
-441.602
 40
11.33
 50
228.665
 51
245.511
  0
ARC
  8
APS_GEOMETRY
 10
-660.218
 20
-441.881
 40
10.959
 50
211.535
 51
228.665
  0
ARC
  8
APS_GEOMETRY
 10
-659.897
 20
-441.645
 40
11.356
 50
195.642
 51
211.701
  0
ARC
  8
APS_GEOMETRY
 10
-659.31
 20
-441.481
 40
11.966
 50
180.0
 51
195.642
  0
ARC
  8
APS_GEOMETRY
 10
-659.185
 20
-441.481
 40
12.091
 50
162.181
 51
180.0
  0
ARC
  8
APS_GEOMETRY
 10
-660.288
 20
-441.126
 40
10.933
 50
143.434
 51
162.181
  0
ARC
  8
APS_GEOMETRY
 10
-660.436
 20
-441.007
 40
10.742
 50
126.384
 51
143.471
  0
ARC
  8
APS_GEOMETRY
 10
-659.419
 20
-442.388
 40
12.457
 50
110.525
 51
126.384
  0
ARC
  8
APS_GEOMETRY
 10
-659.47
 20
-442.013
 40
12.089
 50
99.77
 51
110.925
  0
ARC
  8
APS_GEOMETRY
 10
-658.849
 20
-445.619
 40
15.748
 50
90.0
 51
99.77
  0
ARC
  8
APS_GEOMETRY
 10
-660.402
 20
-436.968
 40
2.404
 50
90.0
 51
119.604
  0
ARC
  8
APS_GEOMETRY
 10
-660.191
 20
-437.338
 40
2.83
 50
119.604
 51
146.842
  0
ARC
  8
APS_GEOMETRY
 10
-659.768
 20
-437.685
 40
3.374
 50
145.84
 51
164.055
  0
ARC
  8
APS_GEOMETRY
 10
-658.788
 20
-437.965
 40
4.394
 50
164.055
 51
180.0
  0
ARC
  8
APS_GEOMETRY
 10
-652.656
 20
-437.965
 40
10.526
 50
180.0
 51
189.977
  0
ARC
  8
APS_GEOMETRY
 10
-643.33
 20
-436.325
 40
19.995
 50
189.977
 51
197.211
  0
ARC
  8
APS_GEOMETRY
 10
-641.29
 20
-435.693
 40
22.131
 50
197.211
 51
203.76
  0
ARC
  8
APS_GEOMETRY
 10
-646.371
 20
-437.93
 40
16.579
 50
203.76
 51
211.329
  0
ARC
  8
APS_GEOMETRY
 10
-656.805
 20
-444.192
 40
4.411
 50
212.32
 51
224.441
  0
ARC
  8
APS_GEOMETRY
 10
-657.233
 20
-444.611
 40
3.812
 50
224.441
 51
237.484
  0
ARC
  8
APS_GEOMETRY
 10
-657.51
 20
-445.045
 40
3.298
 50
237.484
 51
252.416
  0
ARC
  8
APS_GEOMETRY
 10
-657.786
 20
-445.916
 40
2.383
 50
252.416
 51
270.0
  0
ARC
  8
APS_GEOMETRY
 10
-657.786
 20
-445.634
 40
2.666
 50
270.0
 51
294.953
  0
ARC
  8
APS_GEOMETRY
 10
-657.711
 20
-445.794
 40
2.489
 50
294.953
 51
320.793
  0
ARC
  8
APS_GEOMETRY
 10
-658.111
 20
-445.468
 40
3.005
 50
320.793
 51
342.777
  0
ARC
  8
APS_GEOMETRY
 10
-659.895
 20
-444.915
 40
4.873
 50
342.777
 51
0.0
  0
ARC
  8
APS_GEOMETRY
 10
-668.276
 20
-444.915
 40
13.254
 50
0.0
 51
8.499
  0
ARC
  8
APS_GEOMETRY
 10
-674.11
 20
-445.786
 40
19.152
 50
8.499
 51
15.566
  0
ARC
  8
APS_GEOMETRY
 10
-673.408
 20
-445.591
 40
18.424
 50
15.566
 51
22.909
  0
ARC
  8
APS_GEOMETRY
 10
-667.376
 20
-443.042
 40
11.876
 50
22.909
 51
32.057
  0
ARC
  8
APS_GEOMETRY
 10
-662.638
 20
-440.057
 40
6.276
 50
31.921
 51
42.51
  0
ARC
  8
APS_GEOMETRY
 10
-661.337
 20
-438.865
 40
4.511
 50
42.51
 51
55.008
  0
ARC
  8
APS_GEOMETRY
 10
-660.898
 20
-438.237
 40
3.745
 50
55.008
 51
69.88
  0
ARC
  8
APS_GEOMETRY
 10
-660.504
 20
-437.161
 40
2.599
 50
69.88
 51
87.754
  0
ARC
  8
APS_GEOMETRY
 10
-634.638
 20
-437.863
 40
7.992
 50
83.923
 51
90.0
  0
ARC
  8
APS_GEOMETRY
 10
-635.281
 20
-443.9
 40
14.063
 50
79.342
 51
83.923
  0
ARC
  8
APS_GEOMETRY
 10
-636.056
 20
-448.02
 40
18.256
 50
75.808
 51
79.342
  0
ARC
  8
APS_GEOMETRY
 10
-638.762
 20
-458.718
 40
29.29
 50
73.018
 51
75.808
  0
ARC
  8
APS_GEOMETRY
 10
-629.236
 20
-427.471
 40
3.376
 50
253.288
 51
259.046
  0
ARC
  8
APS_GEOMETRY
 10
-629.7
 20
-429.868
 40
0.935
 50
259.046
 51
270.0
  0
ARC
  8
APS_GEOMETRY
 10
-629.7
 20
-430.248
 40
0.555
 50
270.0
 51
286.699
  0
ARC
  8
APS_GEOMETRY
 10
-634.137
 20
-415.46
 40
15.995
 50
286.699
 51
289.799
  0
ARC
  8
APS_GEOMETRY
 10
-628.192
 20
-431.914
 40
1.501
 50
100.008
 51
110.556
  0
ARC
  8
APS_GEOMETRY
 10
-628.163
 20
-432.078
 40
1.667
 50
90.0
 51
100.008
  0
ARC
  8
APS_GEOMETRY
 10
-628.163
 20
-432.0
 40
1.59
 50
53.356
 51
90.0
  0
ARC
  8
APS_GEOMETRY
 10
-630.94
 20
-435.733
 40
6.242
 50
35.101
 51
53.356
  0
ARC
  8
APS_GEOMETRY
 10
-632.325
 20
-436.707
 40
7.936
 50
20.245
 51
35.101
  0
ARC
  8
APS_GEOMETRY
 10
-628.909
 20
-435.447
 40
4.294
 50
360.0
 51
20.245
  0
ARC
  8
APS_GEOMETRY
 10
-627.189
 20
-435.447
 40
2.575
 50
340.481
 51
360.0
  0
ARC
  8
APS_GEOMETRY
 10
-626.766
 20
-435.597
 40
2.125
 50
318.972
 51
340.481
  0
ARC
  8
APS_GEOMETRY
 10
-626.576
 20
-435.762
 40
1.874
 50
295.017
 51
318.972
  0
ARC
  8
APS_GEOMETRY
 10
-626.511
 20
-435.901
 40
1.721
 50
270.0
 51
295.017
  0
ARC
  8
APS_GEOMETRY
 10
-626.511
 20
-434.979
 40
2.643
 50
256.171
 51
270.0
  0
ARC
  8
APS_GEOMETRY
 10
-626.8
 20
-436.15
 40
1.437
 50
237.381
 51
256.171
  0
ARC
  8
APS_GEOMETRY
 10
-626.289
 20
-435.352
 40
2.384
 50
231.559
 51
237.381
  0
ARC
  8
APS_GEOMETRY
 10
-618.868
 20
-426.003
 40
14.321
 50
229.185
 51
231.559
  0
ARC
  8
APS_GEOMETRY
 10
-610.914
 20
-416.793
 40
26.49
 50
227.9
 51
229.185
  0
ARC
  8
APS_GEOMETRY
 10
-583.388
 20
-386.329
 40
67.548
 50
227.095
 51
227.9
  0
ARC
  8
APS_GEOMETRY
 10
-635.069
 20
-441.91
 40
8.348
 50
46.975
 51
64.612
  0
ARC
  8
APS_GEOMETRY
 10
-633.232
 20
-438.039
 40
4.063
 50
64.612
 51
90.0
  0
ARC
  8
APS_GEOMETRY
 10
-633.232
 20
-436.903
 40
2.928
 50
90.0
 51
106.966
  0
ARC
  8
APS_GEOMETRY
 10
-633.571
 20
-435.792
 40
1.766
 50
106.966
 51
128.868
  0
ARC
  8
APS_GEOMETRY
 10
-633.768
 20
-435.548
 40
1.453
 50
128.868
 51
154.741
  0
ARC
  8
APS_GEOMETRY
 10
-633.704
 20
-435.578
 40
1.523
 50
154.741
 51
180.0
  0
ARC
  8
APS_GEOMETRY
 10
-633.796
 20
-435.578
 40
1.43
 50
180.0
 51
206.64
  0
ARC
  8
APS_GEOMETRY
 10
-633.336
 20
-435.347
 40
1.945
 50
206.64
 51
229.43
  0
ARC
  8
APS_GEOMETRY
 10
-632.598
 20
-434.485
 40
3.08
 50
229.43
 51
244.493
  0
ARC
  8
APS_GEOMETRY
 10
-630.576
 20
-430.246
 40
7.777
 50
244.493
 51
253.956
  0
ARC
  8
APS_GEOMETRY
 10
-666.611
 20
-552.71
 40
119.879
 50
72.737
 51
73.58
  0
ARC
  8
APS_GEOMETRY
 10
-645.959
 20
-486.252
 40
50.287
 50
71.435
 51
72.737
  0
ARC
  8
APS_GEOMETRY
 10
-639.119
 20
-465.885
 40
28.801
 50
69.164
 51
71.435
  0
ARC
  8
APS_GEOMETRY
 10
-631.047
 20
-444.674
 40
6.106
 50
64.231
 51
69.164
  0
ARC
  8
APS_GEOMETRY
 10
-631.975
 20
-446.544
 40
8.193
 50
34.939
 51
64.068
  0
ARC
  8
APS_GEOMETRY
 10
-629.971
 20
-445.144
 40
5.749
 50
360.0
 51
34.939
  0
ARC
  8
APS_GEOMETRY
 10
-631.203
 20
-445.144
 40
6.981
 50
333.435
 51
360.0
  0
ARC
  8
APS_GEOMETRY
 10
-631.659
 20
-444.915
 40
7.491
 50
307.807
 51
333.435
  0
ARC
  8
APS_GEOMETRY
 10
-632.847
 20
-443.379
 40
9.433
 50
296.732
 51
307.786
  0
ARC
  8
APS_GEOMETRY
 10
-633.55
 20
-441.984
 40
10.995
 50
286.496
 51
296.732
  0
ARC
  8
APS_GEOMETRY
 10
-634.012
 20
-440.421
 40
12.625
 50
277.544
 51
286.496
  0
ARC
  8
APS_GEOMETRY
 10
-634.687
 20
-435.326
 40
17.765
 50
270.0
 51
277.544
  0
ARC
  8
APS_GEOMETRY
 10
-634.687
 20
-434.555
 40
18.535
 50
263.555
 51
270.0
  0
ARC
  8
APS_GEOMETRY
 10
-634.087
 20
-429.243
 40
23.881
 50
257.878
 51
263.555
  0
ARC
  8
APS_GEOMETRY
 10
-634.406
 20
-430.726
 40
22.364
 50
254.839
 51
257.878
  0
ARC
  8
APS_GEOMETRY
 10
-636.989
 20
-440.26
 40
12.487
 50
250.772
 51
254.839
  0
ARC
  8
APS_GEOMETRY
 10
-638.151
 20
-443.591
 40
8.959
 50
245.121
 51
250.772
  0
ARC
  8
APS_GEOMETRY
 10
-640.118
 20
-447.832
 40
4.284
 50
236.944
 51
245.121
  0
ARC
  8
APS_GEOMETRY
 10
-641.277
 20
-449.657
 40
2.122
 50
211.802
 51
236.31
  0
ARC
  8
APS_GEOMETRY
 10
-635.765
 20
-446.239
 40
8.608
 50
199.704
 51
211.802
  0
ARC
  8
APS_GEOMETRY
 10
-633.133
 20
-445.297
 40
11.404
 50
190.413
 51
199.704
  0
ARC
  8
APS_GEOMETRY
 10
-635.414
 20
-445.716
 40
9.084
 50
180.0
 51
190.413
  0
ARC
  8
APS_GEOMETRY
 10
-641.564
 20
-445.716
 40
2.934
 50
164.876
 51
180.0
  0
ARC
  8
APS_GEOMETRY
 10
-643.217
 20
-445.269
 40
1.222
 50
141.34
 51
164.876
  0
ARC
  8
APS_GEOMETRY
 10
-643.057
 20
-445.376
 40
1.414
 50
116.928
 51
142.001
  0
ARC
  8
APS_GEOMETRY
 10
-643.141
 20
-445.211
 40
1.229
 50
90.0
 51
116.928
  0
ARC
  8
APS_GEOMETRY
 10
-643.141
 20
-445.214
 40
1.232
 50
62.21
 51
90.0
  0
ARC
  8
APS_GEOMETRY
 10
-643.633
 20
-446.148
 40
2.287
 50
41.906
 51
62.21
  0
ARC
  8
APS_GEOMETRY
 10
-643.549
 20
-446.165
 40
2.237
 50
37.313
 51
43.668
  0
ARC
  8
APS_GEOMETRY
 10
-656.083
 20
-455.718
 40
17.997
 50
35.074
 51
37.313
  0
ARC
  8
APS_GEOMETRY
 10
-670.317
 20
-465.712
 40
35.389
 50
33.934
 51
35.074
  0
ARC
  8
APS_GEOMETRY
 10
-721.066
 20
-499.857
 40
96.555
 50
33.243
 51
33.934
  0
ARC
  8
APS_GEOMETRY
 10
-637.506
 20
-445.072
 40
3.363
 50
213.453
 51
231.637
  0
ARC
  8
APS_GEOMETRY
 10
-635.917
 20
-443.064
 40
5.924
 50
231.637
 51
245.313
  0
ARC
  8
APS_GEOMETRY
 10
-635.567
 20
-442.303
 40
6.762
 50
245.313
 51
257.398
  0
ARC
  8
APS_GEOMETRY
 10
-635.685
 20
-442.83
 40
6.222
 50
257.398
 51
270.0
  0
ARC
  8
APS_GEOMETRY
 10
-635.685
 20
-443.799
 40
5.253
 50
270.0
 51
282.907
  0
ARC
  8
APS_GEOMETRY
 10
-635.119
 20
-446.265
 40
2.722
 50
282.907
 51
300.872
  0
ARC
  8
APS_GEOMETRY
 10
-634.629
 20
-447.085
 40
1.767
 50
300.872
 51
326.876
  0
ARC
  8
APS_GEOMETRY
 10
-634.071
 20
-447.449
 40
1.101
 50
326.876
 51
0.0
  0
ARC
  8
APS_GEOMETRY
 10
-634.236
 20
-447.449
 40
1.266
 50
0.0
 51
27.553
  0
ARC
  8
APS_GEOMETRY
 10
-634.636
 20
-447.658
 40
1.717
 50
27.553
 51
51.147
  0
ARC
  8
APS_GEOMETRY
 10
-635.463
 20
-448.685
 40
3.036
 50
51.147
 51
65.225
  0
ARC
  8
APS_GEOMETRY
 10
-638.515
 20
-455.297
 40
10.318
 50
65.225
 51
72.848
  0
ARC
  8
APS_GEOMETRY
 10
-620.694
 20
-398.477
 40
49.231
 50
251.106
 51
252.532
  0
ARC
  8
APS_GEOMETRY
 10
-627.002
 20
-416.908
 40
29.751
 50
249.271
 51
251.106
  0
ARC
  8
APS_GEOMETRY
 10
-629.625
 20
-423.838
 40
22.341
 50
246.83
 51
249.271
  0
ARC
  8
APS_GEOMETRY
 10
-633.867
 20
-433.749
 40
11.56
 50
243.435
 51
246.83
  0
ARC
  8
APS_GEOMETRY
 10
-634.35
 20
-434.715
 40
10.481
 50
235.981
 51
243.435
  0
ARC
  8
APS_GEOMETRY
 10
-633.979
 20
-434.165
 40
11.144
 50
228.752
 51
235.981
  0
ARC
  8
APS_GEOMETRY
 10
-635.716
 20
-436.212
 40
8.459
 50
206.421
 51
228.457
  0
ARC
  8
APS_GEOMETRY
 10
-637.993
 20
-437.344
 40
5.916
 50
180.0
 51
206.421
  0
ARC
  8
APS_GEOMETRY
 10
-637.886
 20
-437.344
 40
6.024
 50
166.555
 51
180.0
  0
ARC
  8
APS_GEOMETRY
 10
-637.188
 20
-437.511
 40
6.741
 50
153.848
 51
166.555
  0
ARC
  8
APS_GEOMETRY
 10
-637.13
 20
-437.539
 40
6.806
 50
141.244
 51
153.848
  0
ARC
  8
APS_GEOMETRY
 10
-636.7
 20
-437.884
 40
7.357
 50
129.123
 51
141.244
  0
ARC
  8
APS_GEOMETRY
 10
-635.324
 20
-439.348
 40
9.362
 50
108.978
 51
130.006
  0
ARC
  8
APS_GEOMETRY
 10
-634.638
 20
-441.341
 40
11.47
 50
90.0
 51
108.978
  0
ARC
  8
APS_GEOMETRY
 10
-609.643
 20
-440.503
 40
10.632
 50
77.257
 51
90.0
  0
ARC
  8
APS_GEOMETRY
 10
-609.751
 20
-440.981
 40
11.122
 50
64.799
 51
77.257
  0
ARC
  8
APS_GEOMETRY
 10
-600.592
 20
-421.481
 40
10.421
 50
244.885
 51
251.175
  0
ARC
  8
APS_GEOMETRY
 10
-603.576
 20
-430.235
 40
1.173
 50
251.175
 51
270.0
  0
ARC
  8
APS_GEOMETRY
 10
-603.576
 20
-429.505
 40
1.903
 50
270.0
 51
278.82
  0
ARC
  8
APS_GEOMETRY
 10
-604.806
 20
-421.581
 40
9.922
 50
278.82
 51
282.68
  0
ARC
  8
APS_GEOMETRY
 10
-602.233
 20
-432.972
 40
1.755
 50
95.906
 51
102.995
  0
ARC
  8
APS_GEOMETRY
 10
-602.154
 20
-433.74
 40
2.528
 50
90.0
 51
95.906
  0
ARC
  8
APS_GEOMETRY
 10
-602.154
 20
-432.89
 40
1.678
 50
62.447
 51
90.0
  0
ARC
  8
APS_GEOMETRY
 10
-602.452
 20
-433.462
 40
2.323
 50
39.094
 51
62.447
  0
ARC
  8
APS_GEOMETRY
 10
-605.569
 20
-436.068
 40
6.386
 50
18.435
 51
39.611
  0
ARC
  8
APS_GEOMETRY
 10
-607.483
 20
-436.706
 40
8.403
 50
360.0
 51
18.435
  0
ARC
  8
APS_GEOMETRY
 10
-603.246
 20
-436.706
 40
4.167
 50
334.877
 51
360.0
  0
ARC
  8
APS_GEOMETRY
 10
-601.993
 20
-437.294
 40
2.783
 50
304.007
 51
334.877
  0
ARC
  8
APS_GEOMETRY
 10
-602.014
 20
-437.235
 40
2.843
 50
286.39
 51
303.69
  0
ARC
  8
APS_GEOMETRY
 10
-602.105
 20
-436.926
 40
3.165
 50
270.0
 51
286.39
  0
ARC
  8
APS_GEOMETRY
 10
-602.105
 20
-436.963
 40
3.128
 50
255.155
 51
270.0
  0
ARC
  8
APS_GEOMETRY
 10
-602.447
 20
-438.256
 40
1.791
 50
235.491
 51
255.155
  0
ARC
  8
APS_GEOMETRY
 10
-602.275
 20
-438.005
 40
2.094
 50
218.48
 51
235.491
  0
ARC
  8
APS_GEOMETRY
 10
-599.465
 20
-435.771
 40
5.684
 50
208.179
 51
218.48
  0
ARC
  8
APS_GEOMETRY
 10
-628.277
 20
-451.411
 40
27.099
 50
28.56
 51
31.664
  0
ARC
  8
APS_GEOMETRY
 10
-610.671
 20
-440.553
 40
6.414
 50
31.664
 51
38.047
  0
ARC
  8
APS_GEOMETRY
 10
-609.391
 20
-439.551
 40
4.788
 50
38.047
 51
46.56
  0
ARC
  8
APS_GEOMETRY
 10
-610.056
 20
-440.253
 40
5.756
 50
46.56
 51
54.324
  0
ARC
  8
APS_GEOMETRY
 10
-610.441
 20
-440.914
 40
6.517
 50
54.968
 51
71.48
  0
ARC
  8
APS_GEOMETRY
 10
-610.019
 20
-439.656
 40
5.19
 50
71.48
 51
90.0
  0
ARC
  8
APS_GEOMETRY
 10
-610.019
 20
-438.091
 40
3.625
 50
90.0
 51
114.63
  0
ARC
  8
APS_GEOMETRY
 10
-610.201
 20
-437.694
 40
3.188
 50
114.63
 51
140.921
  0
ARC
  8
APS_GEOMETRY
 10
-609.663
 20
-438.131
 40
3.881
 50
140.921
 51
163.13
  0
ARC
  8
APS_GEOMETRY
 10
-606.974
 20
-438.946
 40
6.691
 50
163.13
 51
180.0
  0
ARC
  8
APS_GEOMETRY
 10
-603.488
 20
-438.946
 40
10.178
 50
180.0
 51
195.44
  0
ARC
  8
APS_GEOMETRY
 10
-604.017
 20
-439.092
 40
9.629
 50
195.44
 51
211.316
  0
ARC
  8
APS_GEOMETRY
 10
-606.561
 20
-440.587
 40
6.678
 50
211.708
 51
240.457
  0
ARC
  8
APS_GEOMETRY
 10
-606.732
 20
-440.889
 40
6.332
 50
240.457
 51
270.0
  0
ARC
  8
APS_GEOMETRY
 10
-606.732
 20
-439.345
 40
7.875
 50
270.0
 51
279.549
  0
ARC
  8
APS_GEOMETRY
 10
-606.83
 20
-438.763
 40
8.466
 50
279.549
 51
288.759
  0
ARC
  8
APS_GEOMETRY
 10
-606.418
 20
-439.978
 40
7.182
 50
288.759
 51
299.545
  0
ARC
  8
APS_GEOMETRY
 10
-604.763
 20
-442.898
 40
3.826
 50
299.545
 51
314.341
  0
ARC
  8
APS_GEOMETRY
 10
-599.645
 20
-448.213
 40
3.553
 50
120.141
 51
133.452
  0
ARC
  8
APS_GEOMETRY
 10
-601.075
 20
-445.751
 40
0.706
 50
90.0
 51
120.141
  0
ARC
  8
APS_GEOMETRY
 10
-601.075
 20
-446.16
 40
1.115
 50
61.952
 51
90.0
  0
ARC
  8
APS_GEOMETRY
 10
-601.241
 20
-446.472
 40
1.468
 50
37.569
 51
61.952
  0
ARC
  8
APS_GEOMETRY
 10
-601.55
 20
-446.71
 40
1.859
 50
17.665
 51
37.569
  0
ARC
  8
APS_GEOMETRY
 10
-602.023
 20
-446.861
 40
2.354
 50
360.0
 51
17.665
  0
ARC
  8
APS_GEOMETRY
 10
-603.209
 20
-446.861
 40
3.54
 50
344.932
 51
0.0
  0
ARC
  8
APS_GEOMETRY
 10
-606.358
 20
-446.013
 40
6.801
 50
334.075
 51
344.932
  0
ARC
  8
APS_GEOMETRY
 10
-606.457
 20
-445.965
 40
6.912
 50
323.374
 51
334.075
  0
ARC
  8
APS_GEOMETRY
 10
-604.425
 20
-447.475
 40
4.38
 50
309.92
 51
323.374
  0
ARC
  8
APS_GEOMETRY
 10
-602.394
 20
-449.87
 40
1.24
 50
289.026
 51
308.991
  0
ARC
  8
APS_GEOMETRY
 10
-604.561
 20
-443.588
 40
7.886
 50
281.143
 51
289.026
  0
ARC
  8
APS_GEOMETRY
 10
-602.364
 20
-454.978
 40
3.715
 50
100.437
 51
110.12
  0
ARC
  8
APS_GEOMETRY
 10
-599.453
 20
-462.923
 40
12.177
 50
110.12
 51
115.463
  0
ARC
  8
APS_GEOMETRY
 10
-609.844
 20
-441.183
 40
11.919
 50
282.94
 51
295.628
  0
ARC
  8
APS_GEOMETRY
 10
-609.741
 20
-441.63
 40
11.46
 50
270.0
 51
282.94
  0
ARC
  8
APS_GEOMETRY
 10
-609.741
 20
-440.953
 40
12.137
 50
257.307
 51
270.0
  0
ARC
  8
APS_GEOMETRY
 10
-609.229
 20
-438.678
 40
14.469
 50
245.686
 51
257.307
  0
ARC
  8
APS_GEOMETRY
 10
-610.514
 20
-441.499
 40
11.37
 50
228.801
 51
245.735
  0
ARC
  8
APS_GEOMETRY
 10
-610.492
 20
-441.474
 40
11.402
 50
211.891
 51
228.801
  0
ARC
  8
APS_GEOMETRY
 10
-609.818
 20
-440.989
 40
12.231
 50
196.728
 51
212.152
  0
ARC
  8
APS_GEOMETRY
 10
-611.562
 20
-441.514
 40
10.41
 50
180.0
 51
196.728
  0
ARC
  8
APS_GEOMETRY
 10
-611.309
 20
-441.514
 40
10.663
 50
161.184
 51
180.0
  0
ARC
  8
APS_GEOMETRY
 10
-610.625
 20
-441.747
 40
11.386
 50
142.98
 51
161.184
  0
ARC
  8
APS_GEOMETRY
 10
-610.092
 20
-442.154
 40
12.056
 50
127.824
 51
142.958
  0
ARC
  8
APS_GEOMETRY
 10
-609.215
 20
-443.283
 40
13.486
 50
113.52
 51
127.824
  0
ARC
  8
APS_GEOMETRY
 10
-609.501
 20
-442.624
 40
12.768
 50
101.927
 51
113.527
  0
ARC
  8
APS_GEOMETRY
 10
-609.643
 20
-441.952
 40
12.08
 50
90.0
 51
101.927
  0
ARC
  8
APS_GEOMETRY
 10
-584.402
 20
-442.762
 40
12.891
 50
71.91
 51
90.0
  0
ARC
  8
APS_GEOMETRY
 10
-583.903
 20
-441.234
 40
11.283
 50
52.561
 51
71.91
  0
ARC
  8
APS_GEOMETRY
 10
-584.034
 20
-441.272
 40
11.393
 50
38.846
 51
52.156
  0
ARC
  8
APS_GEOMETRY
 10
-585.82
 20
-442.71
 40
13.686
 50
26.707
 51
38.846
  0
ARC
  8
APS_GEOMETRY
 10
-585.466
 20
-442.421
 40
13.241
 50
13.868
 51
26.278
  0
ARC
  8
APS_GEOMETRY
 10
-582.917
 20
-441.792
 40
10.614
 50
360.0
 51
13.868
  0
ARC
  8
APS_GEOMETRY
 10
-582.751
 20
-441.792
 40
10.449
 50
339.712
 51
360.0
  0
ARC
  8
APS_GEOMETRY
 10
-583.34
 20
-441.574
 40
11.076
 50
320.013
 51
339.712
  0
ARC
  8
APS_GEOMETRY
 10
-583.437
 20
-441.52
 40
11.186
 50
303.344
 51
320.123
  0
ARC
  8
APS_GEOMETRY
 10
-584.585
 20
-439.776
 40
13.274
 50
287.949
 51
303.344
  0
ARC
  8
APS_GEOMETRY
 10
-584.962
 20
-438.468
 40
14.634
 50
279.039
 51
287.776
  0
ARC
  8
APS_GEOMETRY
 10
-584.811
 20
-439.418
 40
13.673
 50
270.0
 51
279.039
  0
ARC
  8
APS_GEOMETRY
 10
-584.811
 20
-440.085
 40
13.005
 50
257.728
 51
270.0
  0
ARC
  8
APS_GEOMETRY
 10
-584.791
 20
-439.991
 40
13.102
 50
245.501
 51
257.728
  0
ARC
  8
APS_GEOMETRY
 10
-585.527
 20
-441.602
 40
11.33
 50
228.665
 51
245.511
  0
ARC
  8
APS_GEOMETRY
 10
-585.772
 20
-441.881
 40
10.959
 50
211.535
 51
228.665
  0
ARC
  8
APS_GEOMETRY
 10
-585.451
 20
-441.645
 40
11.356
 50
195.642
 51
211.701
  0
ARC
  8
APS_GEOMETRY
 10
-584.864
 20
-441.481
 40
11.966
 50
180.0
 51
195.642
  0
ARC
  8
APS_GEOMETRY
 10
-584.738
 20
-441.481
 40
12.091
 50
162.181
 51
180.0
  0
ARC
  8
APS_GEOMETRY
 10
-585.842
 20
-441.126
 40
10.933
 50
143.434
 51
162.181
  0
ARC
  8
APS_GEOMETRY
 10
-585.99
 20
-441.007
 40
10.742
 50
126.384
 51
143.471
  0
ARC
  8
APS_GEOMETRY
 10
-584.973
 20
-442.388
 40
12.457
 50
110.525
 51
126.384
  0
ARC
  8
APS_GEOMETRY
 10
-585.023
 20
-442.013
 40
12.089
 50
99.77
 51
110.925
  0
ARC
  8
APS_GEOMETRY
 10
-584.402
 20
-445.619
 40
15.748
 50
90.0
 51
99.77
  0
ARC
  8
APS_GEOMETRY
 10
-585.956
 20
-436.968
 40
2.404
 50
90.0
 51
119.604
  0
ARC
  8
APS_GEOMETRY
 10
-585.745
 20
-437.338
 40
2.83
 50
119.604
 51
146.842
  0
ARC
  8
APS_GEOMETRY
 10
-585.322
 20
-437.685
 40
3.374
 50
145.84
 51
164.055
  0
ARC
  8
APS_GEOMETRY
 10
-584.342
 20
-437.965
 40
4.394
 50
164.055
 51
180.0
  0
ARC
  8
APS_GEOMETRY
 10
-578.209
 20
-437.965
 40
10.526
 50
180.0
 51
189.977
  0
ARC
  8
APS_GEOMETRY
 10
-568.884
 20
-436.325
 40
19.995
 50
189.977
 51
197.211
  0
ARC
  8
APS_GEOMETRY
 10
-566.844
 20
-435.693
 40
22.131
 50
197.211
 51
203.76
  0
ARC
  8
APS_GEOMETRY
 10
-571.925
 20
-437.93
 40
16.579
 50
203.76
 51
211.329
  0
ARC
  8
APS_GEOMETRY
 10
-582.359
 20
-444.192
 40
4.411
 50
212.32
 51
224.441
  0
ARC
  8
APS_GEOMETRY
 10
-582.787
 20
-444.611
 40
3.812
 50
224.441
 51
237.484
  0
ARC
  8
APS_GEOMETRY
 10
-583.063
 20
-445.045
 40
3.298
 50
237.484
 51
252.416
  0
ARC
  8
APS_GEOMETRY
 10
-583.34
 20
-445.916
 40
2.383
 50
252.416
 51
270.0
  0
ARC
  8
APS_GEOMETRY
 10
-583.34
 20
-445.634
 40
2.666
 50
270.0
 51
294.953
  0
ARC
  8
APS_GEOMETRY
 10
-583.265
 20
-445.794
 40
2.489
 50
294.953
 51
320.793
  0
ARC
  8
APS_GEOMETRY
 10
-583.665
 20
-445.468
 40
3.005
 50
320.793
 51
342.777
  0
ARC
  8
APS_GEOMETRY
 10
-585.449
 20
-444.915
 40
4.873
 50
342.777
 51
0.0
  0
ARC
  8
APS_GEOMETRY
 10
-593.83
 20
-444.915
 40
13.254
 50
0.0
 51
8.499
  0
ARC
  8
APS_GEOMETRY
 10
-599.663
 20
-445.786
 40
19.152
 50
8.499
 51
15.566
  0
ARC
  8
APS_GEOMETRY
 10
-598.962
 20
-445.591
 40
18.424
 50
15.566
 51
22.909
  0
ARC
  8
APS_GEOMETRY
 10
-592.93
 20
-443.042
 40
11.876
 50
22.909
 51
32.057
  0
ARC
  8
APS_GEOMETRY
 10
-588.192
 20
-440.057
 40
6.276
 50
31.921
 51
42.51
  0
ARC
  8
APS_GEOMETRY
 10
-586.891
 20
-438.865
 40
4.511
 50
42.51
 51
55.008
  0
ARC
  8
APS_GEOMETRY
 10
-586.452
 20
-438.237
 40
3.745
 50
55.008
 51
69.88
  0
ARC
  8
APS_GEOMETRY
 10
-586.058
 20
-437.161
 40
2.599
 50
69.88
 51
87.754
  0
ARC
  8
APS_GEOMETRY
 10
-557.723
 20
-440.503
 40
10.632
 50
77.257
 51
90.0
  0
ARC
  8
APS_GEOMETRY
 10
-557.831
 20
-440.981
 40
11.122
 50
64.799
 51
77.257
  0
ARC
  8
APS_GEOMETRY
 10
-548.672
 20
-421.481
 40
10.421
 50
244.885
 51
251.175
  0
ARC
  8
APS_GEOMETRY
 10
-551.656
 20
-430.235
 40
1.173
 50
251.175
 51
270.0
  0
ARC
  8
APS_GEOMETRY
 10
-551.656
 20
-429.505
 40
1.903
 50
270.0
 51
278.82
  0
ARC
  8
APS_GEOMETRY
 10
-552.886
 20
-421.581
 40
9.922
 50
278.82
 51
282.68
  0
ARC
  8
APS_GEOMETRY
 10
-550.313
 20
-432.972
 40
1.755
 50
95.906
 51
102.995
  0
ARC
  8
APS_GEOMETRY
 10
-550.234
 20
-433.74
 40
2.528
 50
90.0
 51
95.906
  0
ARC
  8
APS_GEOMETRY
 10
-550.234
 20
-432.89
 40
1.678
 50
62.447
 51
90.0
  0
ARC
  8
APS_GEOMETRY
 10
-550.532
 20
-433.462
 40
2.323
 50
39.094
 51
62.447
  0
ARC
  8
APS_GEOMETRY
 10
-553.649
 20
-436.068
 40
6.386
 50
18.435
 51
39.611
  0
ARC
  8
APS_GEOMETRY
 10
-555.562
 20
-436.706
 40
8.403
 50
360.0
 51
18.435
  0
ARC
  8
APS_GEOMETRY
 10
-551.326
 20
-436.706
 40
4.167
 50
334.877
 51
360.0
  0
ARC
  8
APS_GEOMETRY
 10
-550.073
 20
-437.294
 40
2.783
 50
304.007
 51
334.877
  0
ARC
  8
APS_GEOMETRY
 10
-550.094
 20
-437.235
 40
2.843
 50
286.39
 51
303.69
  0
ARC
  8
APS_GEOMETRY
 10
-550.185
 20
-436.926
 40
3.165
 50
270.0
 51
286.39
  0
ARC
  8
APS_GEOMETRY
 10
-550.185
 20
-436.963
 40
3.128
 50
255.155
 51
270.0
  0
ARC
  8
APS_GEOMETRY
 10
-550.527
 20
-438.256
 40
1.791
 50
235.491
 51
255.155
  0
ARC
  8
APS_GEOMETRY
 10
-550.355
 20
-438.005
 40
2.094
 50
218.48
 51
235.491
  0
ARC
  8
APS_GEOMETRY
 10
-547.545
 20
-435.771
 40
5.684
 50
208.179
 51
218.48
  0
ARC
  8
APS_GEOMETRY
 10
-576.357
 20
-451.411
 40
27.099
 50
28.56
 51
31.664
  0
ARC
  8
APS_GEOMETRY
 10
-558.751
 20
-440.553
 40
6.414
 50
31.664
 51
38.047
  0
ARC
  8
APS_GEOMETRY
 10
-557.471
 20
-439.551
 40
4.788
 50
38.047
 51
46.56
  0
ARC
  8
APS_GEOMETRY
 10
-558.136
 20
-440.253
 40
5.756
 50
46.56
 51
54.324
  0
ARC
  8
APS_GEOMETRY
 10
-558.52
 20
-440.914
 40
6.517
 50
54.968
 51
71.48
  0
ARC
  8
APS_GEOMETRY
 10
-558.099
 20
-439.656
 40
5.19
 50
71.48
 51
90.0
  0
ARC
  8
APS_GEOMETRY
 10
-558.099
 20
-438.091
 40
3.625
 50
90.0
 51
114.63
  0
ARC
  8
APS_GEOMETRY
 10
-558.281
 20
-437.694
 40
3.188
 50
114.63
 51
140.921
  0
ARC
  8
APS_GEOMETRY
 10
-557.743
 20
-438.131
 40
3.881
 50
140.921
 51
163.13
  0
ARC
  8
APS_GEOMETRY
 10
-555.054
 20
-438.946
 40
6.691
 50
163.13
 51
180.0
  0
ARC
  8
APS_GEOMETRY
 10
-551.568
 20
-438.946
 40
10.178
 50
180.0
 51
195.44
  0
ARC
  8
APS_GEOMETRY
 10
-552.097
 20
-439.092
 40
9.629
 50
195.44
 51
211.316
  0
ARC
  8
APS_GEOMETRY
 10
-554.641
 20
-440.587
 40
6.678
 50
211.708
 51
240.457
  0
ARC
  8
APS_GEOMETRY
 10
-554.812
 20
-440.889
 40
6.332
 50
240.457
 51
270.0
  0
ARC
  8
APS_GEOMETRY
 10
-554.812
 20
-439.345
 40
7.875
 50
270.0
 51
279.549
  0
ARC
  8
APS_GEOMETRY
 10
-554.91
 20
-438.763
 40
8.466
 50
279.549
 51
288.759
  0
ARC
  8
APS_GEOMETRY
 10
-554.497
 20
-439.978
 40
7.182
 50
288.759
 51
299.545
  0
ARC
  8
APS_GEOMETRY
 10
-552.843
 20
-442.898
 40
3.826
 50
299.545
 51
314.341
  0
ARC
  8
APS_GEOMETRY
 10
-547.725
 20
-448.213
 40
3.553
 50
120.141
 51
133.452
  0
ARC
  8
APS_GEOMETRY
 10
-549.155
 20
-445.751
 40
0.706
 50
90.0
 51
120.141
  0
ARC
  8
APS_GEOMETRY
 10
-549.155
 20
-446.16
 40
1.115
 50
61.952
 51
90.0
  0
ARC
  8
APS_GEOMETRY
 10
-549.321
 20
-446.472
 40
1.468
 50
37.569
 51
61.952
  0
ARC
  8
APS_GEOMETRY
 10
-549.63
 20
-446.71
 40
1.859
 50
17.665
 51
37.569
  0
ARC
  8
APS_GEOMETRY
 10
-550.103
 20
-446.861
 40
2.354
 50
360.0
 51
17.665
  0
ARC
  8
APS_GEOMETRY
 10
-551.289
 20
-446.861
 40
3.54
 50
344.932
 51
0.0
  0
ARC
  8
APS_GEOMETRY
 10
-554.438
 20
-446.013
 40
6.801
 50
334.075
 51
344.932
  0
ARC
  8
APS_GEOMETRY
 10
-554.537
 20
-445.965
 40
6.912
 50
323.374
 51
334.075
  0
ARC
  8
APS_GEOMETRY
 10
-552.505
 20
-447.475
 40
4.38
 50
309.92
 51
323.374
  0
ARC
  8
APS_GEOMETRY
 10
-550.474
 20
-449.87
 40
1.24
 50
289.026
 51
308.991
  0
ARC
  8
APS_GEOMETRY
 10
-552.641
 20
-443.588
 40
7.886
 50
281.143
 51
289.026
  0
ARC
  8
APS_GEOMETRY
 10
-550.444
 20
-454.978
 40
3.715
 50
100.437
 51
110.12
  0
ARC
  8
APS_GEOMETRY
 10
-547.533
 20
-462.923
 40
12.177
 50
110.12
 51
115.463
  0
ARC
  8
APS_GEOMETRY
 10
-557.924
 20
-441.183
 40
11.919
 50
282.94
 51
295.628
  0
ARC
  8
APS_GEOMETRY
 10
-557.821
 20
-441.63
 40
11.46
 50
270.0
 51
282.94
  0
ARC
  8
APS_GEOMETRY
 10
-557.821
 20
-440.953
 40
12.137
 50
257.307
 51
270.0
  0
ARC
  8
APS_GEOMETRY
 10
-557.309
 20
-438.678
 40
14.469
 50
245.686
 51
257.307
  0
ARC
  8
APS_GEOMETRY
 10
-558.594
 20
-441.499
 40
11.37
 50
228.801
 51
245.735
  0
ARC
  8
APS_GEOMETRY
 10
-558.572
 20
-441.474
 40
11.402
 50
211.891
 51
228.801
  0
ARC
  8
APS_GEOMETRY
 10
-557.898
 20
-440.989
 40
12.231
 50
196.728
 51
212.152
  0
ARC
  8
APS_GEOMETRY
 10
-559.642
 20
-441.514
 40
10.41
 50
180.0
 51
196.728
  0
ARC
  8
APS_GEOMETRY
 10
-559.389
 20
-441.514
 40
10.663
 50
161.184
 51
180.0
  0
ARC
  8
APS_GEOMETRY
 10
-558.704
 20
-441.747
 40
11.386
 50
142.98
 51
161.184
  0
ARC
  8
APS_GEOMETRY
 10
-558.172
 20
-442.154
 40
12.056
 50
127.824
 51
142.958
  0
ARC
  8
APS_GEOMETRY
 10
-557.295
 20
-443.283
 40
13.486
 50
113.52
 51
127.824
  0
ARC
  8
APS_GEOMETRY
 10
-557.581
 20
-442.624
 40
12.768
 50
101.927
 51
113.527
  0
ARC
  8
APS_GEOMETRY
 10
-557.723
 20
-441.952
 40
12.08
 50
90.0
 51
101.927
  0
ARC
  8
APS_GEOMETRY
 10
-532.482
 20
-442.762
 40
12.891
 50
71.91
 51
90.0
  0
ARC
  8
APS_GEOMETRY
 10
-531.983
 20
-441.234
 40
11.283
 50
52.561
 51
71.91
  0
ARC
  8
APS_GEOMETRY
 10
-532.114
 20
-441.272
 40
11.393
 50
38.846
 51
52.156
  0
ARC
  8
APS_GEOMETRY
 10
-533.9
 20
-442.71
 40
13.686
 50
26.707
 51
38.846
  0
ARC
  8
APS_GEOMETRY
 10
-533.546
 20
-442.421
 40
13.241
 50
13.868
 51
26.278
  0
ARC
  8
APS_GEOMETRY
 10
-530.996
 20
-441.792
 40
10.614
 50
360.0
 51
13.868
  0
ARC
  8
APS_GEOMETRY
 10
-530.831
 20
-441.792
 40
10.449
 50
339.712
 51
360.0
  0
ARC
  8
APS_GEOMETRY
 10
-531.42
 20
-441.574
 40
11.076
 50
320.013
 51
339.712
  0
ARC
  8
APS_GEOMETRY
 10
-531.517
 20
-441.52
 40
11.186
 50
303.344
 51
320.123
  0
ARC
  8
APS_GEOMETRY
 10
-532.665
 20
-439.776
 40
13.274
 50
287.949
 51
303.344
  0
ARC
  8
APS_GEOMETRY
 10
-533.042
 20
-438.468
 40
14.634
 50
279.039
 51
287.776
  0
ARC
  8
APS_GEOMETRY
 10
-532.891
 20
-439.418
 40
13.673
 50
270.0
 51
279.039
  0
ARC
  8
APS_GEOMETRY
 10
-532.891
 20
-440.085
 40
13.005
 50
257.728
 51
270.0
  0
ARC
  8
APS_GEOMETRY
 10
-532.871
 20
-439.991
 40
13.102
 50
245.501
 51
257.728
  0
ARC
  8
APS_GEOMETRY
 10
-533.607
 20
-441.602
 40
11.33
 50
228.665
 51
245.511
  0
ARC
  8
APS_GEOMETRY
 10
-533.852
 20
-441.881
 40
10.959
 50
211.535
 51
228.665
  0
ARC
  8
APS_GEOMETRY
 10
-533.531
 20
-441.645
 40
11.356
 50
195.642
 51
211.701
  0
ARC
  8
APS_GEOMETRY
 10
-532.944
 20
-441.481
 40
11.966
 50
180.0
 51
195.642
  0
ARC
  8
APS_GEOMETRY
 10
-532.818
 20
-441.481
 40
12.091
 50
162.181
 51
180.0
  0
ARC
  8
APS_GEOMETRY
 10
-533.922
 20
-441.126
 40
10.933
 50
143.434
 51
162.181
  0
ARC
  8
APS_GEOMETRY
 10
-534.07
 20
-441.007
 40
10.742
 50
126.384
 51
143.471
  0
ARC
  8
APS_GEOMETRY
 10
-533.053
 20
-442.388
 40
12.457
 50
110.525
 51
126.384
  0
ARC
  8
APS_GEOMETRY
 10
-533.103
 20
-442.013
 40
12.089
 50
99.77
 51
110.925
  0
ARC
  8
APS_GEOMETRY
 10
-532.482
 20
-445.619
 40
15.748
 50
90.0
 51
99.77
  0
ARC
  8
APS_GEOMETRY
 10
-534.036
 20
-436.968
 40
2.404
 50
90.0
 51
119.604
  0
ARC
  8
APS_GEOMETRY
 10
-533.825
 20
-437.338
 40
2.83
 50
119.604
 51
146.842
  0
ARC
  8
APS_GEOMETRY
 10
-533.402
 20
-437.685
 40
3.374
 50
145.84
 51
164.055
  0
ARC
  8
APS_GEOMETRY
 10
-532.421
 20
-437.965
 40
4.394
 50
164.055
 51
180.0
  0
ARC
  8
APS_GEOMETRY
 10
-526.289
 20
-437.965
 40
10.526
 50
180.0
 51
189.977
  0
ARC
  8
APS_GEOMETRY
 10
-516.963
 20
-436.325
 40
19.995
 50
189.977
 51
197.211
  0
ARC
  8
APS_GEOMETRY
 10
-514.924
 20
-435.693
 40
22.131
 50
197.211
 51
203.76
  0
ARC
  8
APS_GEOMETRY
 10
-520.005
 20
-437.93
 40
16.579
 50
203.76
 51
211.329
  0
ARC
  8
APS_GEOMETRY
 10
-530.439
 20
-444.192
 40
4.411
 50
212.32
 51
224.441
  0
ARC
  8
APS_GEOMETRY
 10
-530.867
 20
-444.611
 40
3.812
 50
224.441
 51
237.484
  0
ARC
  8
APS_GEOMETRY
 10
-531.143
 20
-445.045
 40
3.298
 50
237.484
 51
252.416
  0
ARC
  8
APS_GEOMETRY
 10
-531.419
 20
-445.916
 40
2.383
 50
252.416
 51
270.0
  0
ARC
  8
APS_GEOMETRY
 10
-531.419
 20
-445.634
 40
2.666
 50
270.0
 51
294.953
  0
ARC
  8
APS_GEOMETRY
 10
-531.345
 20
-445.794
 40
2.489
 50
294.953
 51
320.793
  0
ARC
  8
APS_GEOMETRY
 10
-531.745
 20
-445.468
 40
3.005
 50
320.793
 51
342.777
  0
ARC
  8
APS_GEOMETRY
 10
-533.529
 20
-444.915
 40
4.873
 50
342.777
 51
0.0
  0
ARC
  8
APS_GEOMETRY
 10
-541.91
 20
-444.915
 40
13.254
 50
0.0
 51
8.499
  0
ARC
  8
APS_GEOMETRY
 10
-547.743
 20
-445.786
 40
19.152
 50
8.499
 51
15.566
  0
ARC
  8
APS_GEOMETRY
 10
-547.042
 20
-445.591
 40
18.424
 50
15.566
 51
22.909
  0
ARC
  8
APS_GEOMETRY
 10
-541.01
 20
-443.042
 40
11.876
 50
22.909
 51
32.057
  0
ARC
  8
APS_GEOMETRY
 10
-536.272
 20
-440.057
 40
6.276
 50
31.921
 51
42.51
  0
ARC
  8
APS_GEOMETRY
 10
-534.971
 20
-438.865
 40
4.511
 50
42.51
 51
55.008
  0
ARC
  8
APS_GEOMETRY
 10
-534.532
 20
-438.237
 40
3.745
 50
55.008
 51
69.88
  0
ARC
  8
APS_GEOMETRY
 10
-534.138
 20
-437.161
 40
2.599
 50
69.88
 51
87.754
  0
ARC
  8
APS_GEOMETRY
 10
-507.225
 20
-444.473
 40
1.21
 50
90.0
 51
115.837
  0
ARC
  8
APS_GEOMETRY
 10
-507.523
 20
-443.858
 40
0.526
 50
115.837
 51
155.462
  0
ARC
  8
APS_GEOMETRY
 10
-507.176
 20
-444.017
 40
0.909
 50
155.462
 51
168.366
  0
ARC
  8
APS_GEOMETRY
 10
-504.003
 20
-444.67
 40
4.148
 50
168.366
 51
174.395
  0
ARC
  8
APS_GEOMETRY
 10
-500.805
 20
-444.984
 40
7.361
 50
174.395
 51
177.813
  0
ARC
  8
APS_GEOMETRY
 10
-490.191
 20
-445.389
 40
17.983
 50
177.813
 51
180.0
  0
ARC
  8
APS_GEOMETRY
 10
-482.506
 20
-445.389
 40
25.667
 50
180.0
 51
184.62
  0
ARC
  8
APS_GEOMETRY
 10
-499.716
 20
-446.78
 40
8.401
 50
184.62
 51
192.7
  0
ARC
  8
APS_GEOMETRY
 10
-506.351
 20
-448.236
 40
1.609
 50
194.036
 51
205.821
  0
ARC
  8
APS_GEOMETRY
 10
-507.054
 20
-448.576
 40
0.828
 50
205.821
 51
222.274
  0
ARC
  8
APS_GEOMETRY
 10
-506.839
 20
-448.381
 40
1.119
 50
222.274
 51
234.605
  0
ARC
  8
APS_GEOMETRY
 10
-504.409
 20
-444.96
 40
5.315
 50
234.605
 51
240.255
  0
ARC
  8
APS_GEOMETRY
 10
-508.103
 20
-451.498
 40
2.194
 50
34.592
 51
61.189
  0
ARC
  8
APS_GEOMETRY
 10
-507.378
 20
-450.998
 40
1.313
 50
360.0
 51
34.592
  0
ARC
  8
APS_GEOMETRY
 10
-507.334
 20
-450.998
 40
1.27
 50
318.231
 51
360.0
  0
ARC
  8
APS_GEOMETRY
 10
-508.183
 20
-450.239
 40
2.408
 50
288.227
 51
318.231
  0
ARC
  8
APS_GEOMETRY
 10
-509.064
 20
-447.565
 40
5.223
 50
280.377
 51
288.227
  0
ARC
  8
APS_GEOMETRY
 10
-510.599
 20
-439.183
 40
13.744
 50
275.541
 51
280.377
  0
ARC
  8
APS_GEOMETRY
 10
-511.26
 20
-432.365
 40
20.595
 50
272.304
 51
275.541
  0
ARC
  8
APS_GEOMETRY
 10
-512.066
 20
-412.347
 40
40.629
 50
270.0
 51
272.304
  0
ARC
  8
APS_GEOMETRY
 10
-512.066
 20
-429.076
 40
23.9
 50
262.811
 51
270.0
  0
ARC
  8
APS_GEOMETRY
 10
-514.21
 20
-446.079
 40
6.762
 50
249.274
 51
262.811
  0
ARC
  8
APS_GEOMETRY
 10
-515.559
 20
-449.644
 40
2.95
 50
221.379
 51
249.274
  0
ARC
  8
APS_GEOMETRY
 10
-516.742
 20
-450.687
 40
1.373
 50
180.0
 51
221.379
  0
ARC
  8
APS_GEOMETRY
 10
-516.751
 20
-450.687
 40
1.364
 50
164.055
 51
180.0
  0
ARC
  8
APS_GEOMETRY
 10
-517.32
 20
-450.524
 40
0.773
 50
142.815
 51
164.055
  0
ARC
  8
APS_GEOMETRY
 10
-516.962
 20
-450.796
 40
1.222
 50
129.007
 51
142.815
  0
ARC
  8
APS_GEOMETRY
 10
-512.566
 20
-456.223
 40
8.206
 50
123.69
 51
129.007
  0
ARC
  8
APS_GEOMETRY
 10
-518.804
 20
-446.837
 40
3.064
 50
303.389
 51
319.022
  0
ARC
  8
APS_GEOMETRY
 10
-517.975
 20
-447.557
 40
1.966
 50
319.022
 51
338.575
  0
ARC
  8
APS_GEOMETRY
 10
-519.085
 20
-447.121
 40
3.158
 50
338.575
 51
351.049
  0
ARC
  8
APS_GEOMETRY
 10
-532.488
 20
-445.01
 40
16.726
 50
351.049
 51
356.46
  0
ARC
  8
APS_GEOMETRY
 10
-528.07
 20
-445.178
 40
12.307
 50
355.972
 51
358.68
  0
ARC
  8
APS_GEOMETRY
 10
-673.165
 20
-441.835
 40
157.441
 50
358.68
 51
359.437
  0
LINE
  8
APS_GEOMETRY
 10
-515.732
 11
-515.717
 20
-443.382
 21
-440.926
  0
LINE
  8
APS_GEOMETRY
 10
-515.717
 11
-515.712
 20
-440.926
 21
-437.72
  0
ARC
  8
APS_GEOMETRY
 10
-553.617
 20
-437.72
 40
37.905
 50
360.0
 51
1.717
  0
ARC
  8
APS_GEOMETRY
 10
-533.332
 20
-437.112
 40
17.611
 50
1.717
 51
4.236
  0
ARC
  8
APS_GEOMETRY
 10
-526.718
 20
-436.622
 40
10.979
 50
4.236
 51
8.269
  0
ARC
  8
APS_GEOMETRY
 10
-519.106
 20
-435.516
 40
3.287
 50
8.269
 51
15.642
  0
ARC
  8
APS_GEOMETRY
 10
-517.796
 20
-435.149
 40
1.926
 50
15.642
 51
39.417
  0
ARC
  8
APS_GEOMETRY
 10
-517.766
 20
-435.125
 40
1.888
 50
39.417
 51
63.435
  0
ARC
  8
APS_GEOMETRY
 10
-514.366
 20
-428.08
 40
5.935
 50
236.874
 51
244.486
  0
ARC
  8
APS_GEOMETRY
 10
-516.896
 20
-431.957
 40
1.306
 50
220.601
 51
236.874
  0
ARC
  8
APS_GEOMETRY
 10
-517.186
 20
-432.205
 40
0.923
 50
198.246
 51
220.601
  0
ARC
  8
APS_GEOMETRY
 10
-516.752
 20
-432.062
 40
1.38
 50
180.0
 51
198.246
  0
ARC
  8
APS_GEOMETRY
 10
-516.758
 20
-432.062
 40
1.374
 50
156.161
 51
180.0
  0
ARC
  8
APS_GEOMETRY
 10
-516.567
 20
-432.147
 40
1.583
 50
133.977
 51
156.161
  0
ARC
  8
APS_GEOMETRY
 10
-516.185
 20
-432.542
 40
2.133
 50
116.996
 51
133.977
  0
ARC
  8
APS_GEOMETRY
 10
-515.426
 20
-434.031
 40
3.804
 50
104.3
 51
116.996
  0
ARC
  8
APS_GEOMETRY
 10
-515.231
 20
-434.784
 40
4.582
 50
95.326
 51
104.349
  0
ARC
  8
APS_GEOMETRY
 10
-514.437
 20
-443.301
 40
13.136
 50
90.0
 51
95.326
  0
ARC
  8
APS_GEOMETRY
 10
-514.437
 20
-436.672
 40
6.506
 50
87.553
 51
90.0
  0
ARC
  8
APS_GEOMETRY
 10
-515.821
 20
-469.066
 40
38.93
 50
86.553
 51
87.553
  0
ARC
  8
APS_GEOMETRY
 10
-517.789
 20
-501.739
 40
71.662
 50
86.009
 51
86.553
  0
ARC
  8
APS_GEOMETRY
 10
-525.443
 20
-611.446
 40
181.636
 50
85.668
 51
86.009
  0
ARC
  8
APS_GEOMETRY
 10
-511.119
 20
-422.79
 40
7.563
 50
265.426
 51
268.531
  0
ARC
  8
APS_GEOMETRY
 10
-510.447
 20
-396.569
 40
33.793
 50
268.531
 51
270.0
  0
ARC
  8
APS_GEOMETRY
 10
-510.447
 20
-404.606
 40
25.755
 50
270.0
 51
271.637
  0
ARC
  8
APS_GEOMETRY
 10
-511.022
 20
-384.464
 40
45.906
 50
271.637
 51
272.862
  0
ARC
  8
APS_GEOMETRY
 10
-511.683
 20
-371.249
 40
59.137
 50
272.862
 51
273.814
  0
ARC
  8
APS_GEOMETRY
 10
-513.92
 20
-337.697
 40
92.764
 50
273.814
 51
274.574
  0
ARC
  8
APS_GEOMETRY
 10
-499.889
 20
-520.193
 40
90.271
 50
93.72
 51
94.214
  0
ARC
  8
APS_GEOMETRY
 10
-502.883
 20
-474.134
 40
44.115
 50
93.013
 51
93.72
  0
ARC
  8
APS_GEOMETRY
 10
-503.704
 20
-458.536
 40
28.496
 50
91.918
 51
93.013
  0
ARC
  8
APS_GEOMETRY
 10
-504.348
 20
-439.328
 40
9.277
 50
90.0
 51
91.918
  0
ARC
  8
APS_GEOMETRY
 10
-504.348
 20
-442.105
 40
12.054
 50
73.82
 51
90.0
  0
ARC
  8
APS_GEOMETRY
 10
-503.159
 20
-438.01
 40
7.791
 50
53.658
 51
73.82
  0
ARC
  8
APS_GEOMETRY
 10
-501.47
 20
-435.701
 40
4.929
 50
26.03
 51
53.569
  0
ARC
  8
APS_GEOMETRY
 10
-501.988
 20
-435.954
 40
5.506
 50
360.0
 51
26.03
  0
ARC
  8
APS_GEOMETRY
 10
-502.204
 20
-435.954
 40
5.722
 50
345.282
 51
360.0
  0
ARC
  8
APS_GEOMETRY
 10
-501.653
 20
-436.099
 40
5.152
 50
329.767
 51
345.282
  0
ARC
  8
APS_GEOMETRY
 10
-501.342
 20
-436.28
 40
4.792
 50
313.168
 51
329.767
  0
ARC
  8
APS_GEOMETRY
 10
-501.226
 20
-436.403
 40
4.623
 50
296.267
 51
313.168
  0
ARC
  8
APS_GEOMETRY
 10
-498.595
 20
-441.72
 40
1.31
 50
116.565
 51
139.899
  0
ARC
  8
APS_GEOMETRY
 10
-499.248
 20
-441.17
 40
0.456
 50
139.899
 51
180.0
  0
ARC
  8
APS_GEOMETRY
 10
-499.197
 20
-441.17
 40
0.506
 50
180.0
 51
226.193
  0
ARC
  8
APS_GEOMETRY
 10
-498.262
 20
-440.195
 40
1.858
 50
226.193
 51
249.829
  0
ARC
  8
APS_GEOMETRY
 10
-500.942
 20
-447.575
 40
5.995
 50
53.249
 51
70.105
  0
ARC
  8
APS_GEOMETRY
 10
-499.725
 20
-445.945
 40
3.96
 50
32.471
 51
53.249
  0
ARC
  8
APS_GEOMETRY
 10
-500.292
 20
-446.306
 40
4.632
 50
23.305
 51
32.471
  0
ARC
  8
APS_GEOMETRY
 10
-503.797
 20
-447.816
 40
8.449
 50
16.521
 51
23.305
  0
ARC
  8
APS_GEOMETRY
 10
-506.53
 20
-448.626
 40
11.299
 50
11.429
 51
16.521
  0
ARC
  8
APS_GEOMETRY
 10
-514.275
 20
-450.192
 40
19.201
 50
7.524
 51
11.429
  0
ARC
  8
APS_GEOMETRY
 10
-488.611
 20
-446.774
 40
6.69
 50
187.765
 51
196.914
  0
ARC
  8
APS_GEOMETRY
 10
-494.083
 20
-448.438
 40
0.971
 50
196.914
 51
221.082
  0
ARC
  8
APS_GEOMETRY
 10
-494.062
 20
-448.42
 40
0.999
 50
221.082
 51
244.607
  0
ARC
  8
APS_GEOMETRY
 10
-491.725
 20
-443.497
 40
6.448
 50
244.607
 51
253.811
  0
ARC
  8
APS_GEOMETRY
 10
-493.779
 20
-450.502
 40
0.852
 50
51.45
 51
72.474
  0
ARC
  8
APS_GEOMETRY
 10
-493.99
 20
-450.767
 40
1.191
 50
33.69
 51
51.45
  0
ARC
  8
APS_GEOMETRY
 10
-494.04
 20
-450.8
 40
1.25
 50
16.639
 51
33.69
  0
ARC
  8
APS_GEOMETRY
 10
-494.099
 20
-450.818
 40
1.312
 50
360.0
 51
16.639
  0
ARC
  8
APS_GEOMETRY
 10
-494.118
 20
-450.818
 40
1.331
 50
338.993
 51
360.0
  0
ARC
  8
APS_GEOMETRY
 10
-494.93
 20
-450.506
 40
2.201
 50
322.696
 51
338.993
  0
ARC
  8
APS_GEOMETRY
 10
-495.233
 20
-450.275
 40
2.582
 50
308.603
 51
322.696
  0
ARC
  8
APS_GEOMETRY
 10
-495.441
 20
-450.014
 40
2.916
 50
295.346
 51
308.603
  0
ARC
  8
APS_GEOMETRY
 10
-496.537
 20
-447.601
 40
5.566
 50
279.583
 51
294.905
  0
ARC
  8
APS_GEOMETRY
 10
-497.97
 20
-439.11
 40
14.176
 50
270.0
 51
279.583
  0
ARC
  8
APS_GEOMETRY
 10
-497.97
 20
-442.951
 40
10.336
 50
261.247
 51
270.0
  0
ARC
  8
APS_GEOMETRY
 10
-498.632
 20
-447.251
 40
5.985
 50
249.737
 51
261.247
  0
ARC
  8
APS_GEOMETRY
 10
-499.068
 20
-448.43
 40
4.728
 50
235.345
 51
249.737
  0
ARC
  8
APS_GEOMETRY
 10
-499.617
 20
-449.225
 40
3.762
 50
219.198
 51
235.345
  0
ARC
  8
APS_GEOMETRY
 10
-498.461
 20
-448.239
 40
5.281
 50
209.076
 51
219.56
  0
ARC
  8
APS_GEOMETRY
 10
-495.79
 20
-446.754
 40
8.337
 50
200.735
 51
209.076
  0
ARC
  8
APS_GEOMETRY
 10
-492.106
 20
-445.359
 40
12.277
 50
197.881
 51
200.735
  0
ARC
  8
APS_GEOMETRY
 10
-476.965
 20
-440.474
 40
28.186
 50
195.997
 51
197.881
  0
ARC
  8
APS_GEOMETRY
 10
-465.774
 20
-437.266
 40
39.828
 50
194.664
 51
195.997
  0
ARC
  8
APS_GEOMETRY
 10
-434.776
 20
-429.155
 40
71.869
 50
193.671
 51
194.664
  0
ARC
  8
APS_GEOMETRY
 10
-513.381
 20
-448.265
 40
9.026
 50
13.61
 51
23.585
  0
ARC
  8
APS_GEOMETRY
 10
-507.472
 20
-445.685
 40
2.577
 50
23.585
 51
42.31
  0
ARC
  8
APS_GEOMETRY
 10
-506.936
 20
-445.197
 40
1.853
 50
42.31
 51
67.521
  0
ARC
  8
APS_GEOMETRY
 10
-507.36
 20
-446.222
 40
2.962
 50
67.521
 51
87.397
  0
LINE
  8
APS_GEOMETRY
 10
-508.157
 11
-508.337
 20
-434.924
 21
-438.734
  0
LINE
  8
APS_GEOMETRY
 10
-508.337
 11
-508.337
 20
-438.734
 21
-438.795
  0
LINE
  8
APS_GEOMETRY
 10
-508.337
 11
-508.337
 20
-438.795
 21
-438.881
  0
ARC
  8
APS_GEOMETRY
 10
-505.69
 20
-438.881
 40
2.647
 50
180.0
 51
192.339
  0
ARC
  8
APS_GEOMETRY
 10
-507.795
 20
-439.341
 40
0.493
 50
192.339
 51
221.186
  0
ARC
  8
APS_GEOMETRY
 10
-507.845
 20
-439.385
 40
0.426
 50
221.186
 51
253.872
  0
ARC
  8
APS_GEOMETRY
 10
-507.487
 20
-438.147
 40
1.715
 50
253.872
 51
270.0
  0
ARC
  8
APS_GEOMETRY
 10
-507.487
 20
-435.877
 40
3.985
 50
270.0
 51
289.569
  0
ARC
  8
APS_GEOMETRY
 10
-506.763
 20
-437.915
 40
1.822
 50
289.569
 51
318.681
  0
ARC
  8
APS_GEOMETRY
 10
-506.959
 20
-437.743
 40
2.083
 50
318.681
 51
344.628
  0
ARC
  8
APS_GEOMETRY
 10
-510.61
 20
-436.739
 40
5.87
 50
344.628
 51
0.0
  0
ARC
  8
APS_GEOMETRY
 10
-508.874
 20
-436.739
 40
4.134
 50
0.0
 51
35.369
  0
ARC
  8
APS_GEOMETRY
 10
-506.98
 20
-435.394
 40
1.812
 50
35.369
 51
90.0
  0
ARC
  8
APS_GEOMETRY
 10
-506.98
 20
-435.414
 40
1.831
 50
90.0
 51
108.435
  0
ARC
  8
APS_GEOMETRY
 10
-507.336
 20
-434.345
 40
0.705
 50
108.435
 51
138.366
  0
ARC
  8
APS_GEOMETRY
 10
-507.241
 20
-434.43
 40
0.833
 50
138.366
 51
164.291
  0
ARC
  8
APS_GEOMETRY
 10
-504.998
 20
-435.061
 40
3.162
 50
164.291
 51
177.51
  0
LINE
  8
APS_GEOMETRY
 10
-479.048
 11
-470.905
 20
-431.114
 21
-438.243
  0
ARC
  8
APS_GEOMETRY
 10
-463.289
 20
-429.504
 40
11.592
 50
228.93
 51
232.674
  0
ARC
  8
APS_GEOMETRY
 10
-467.526
 20
-435.06
 40
4.605
 50
232.674
 51
238.617
  0
ARC
  8
APS_GEOMETRY
 10
-468.592
 20
-436.807
 40
2.558
 50
238.617
 51
249.131
  0
ARC
  8
APS_GEOMETRY
 10
-469.27
 20
-438.586
 40
0.655
 50
249.131
 51
270.0
  0
ARC
  8
APS_GEOMETRY
 10
-469.27
 20
-438.667
 40
0.574
 50
270.0
 51
334.898
  0
ARC
  8
APS_GEOMETRY
 10
-471.919
 20
-437.426
 40
3.499
 50
334.898
 51
0.0
  0
ARC
  8
APS_GEOMETRY
 10
-497.534
 20
-437.426
 40
29.115
 50
360.0
 51
2.026
  0
ARC
  8
APS_GEOMETRY
 10
-482.091
 20
-436.879
 40
13.662
 50
2.026
 51
4.984
  0
ARC
  8
APS_GEOMETRY
 10
-477.041
 20
-436.439
 40
8.593
 50
4.984
 51
9.673
  0
ARC
  8
APS_GEOMETRY
 10
-471.222
 20
-435.447
 40
2.689
 50
9.673
 51
18.06
  0
ARC
  8
APS_GEOMETRY
 10
-470.336
 20
-435.158
 40
1.758
 50
18.06
 51
42.397
  0
ARC
  8
APS_GEOMETRY
 10
-470.622
 20
-435.419
 40
2.145
 50
42.397
 51
64.398
  0
ARC
  8
APS_GEOMETRY
 10
-468.01
 20
-430.026
 40
3.847
 50
233.633
 51
244.026
  0
ARC
  8
APS_GEOMETRY
 10
-469.432
 20
-431.958
 40
1.448
 50
216.656
 51
233.633
  0
ARC
  8
APS_GEOMETRY
 10
-469.651
 20
-432.12
 40
1.176
 50
196.082
 51
216.656
  0
ARC
  8
APS_GEOMETRY
 10
-468.939
 20
-431.915
 40
1.917
 50
180.0
 51
196.082
  0
ARC
  8
APS_GEOMETRY
 10
-469.462
 20
-431.915
 40
1.394
 50
133.202
 51
180.0
  0
ARC
  8
APS_GEOMETRY
 10
-468.363
 20
-433.086
 40
3.0
 50
101.788
 51
133.202
  0
ARC
  8
APS_GEOMETRY
 10
-468.106
 20
-434.234
 40
4.176
 50
96.633
 51
102.011
  0
ARC
  8
APS_GEOMETRY
 10
-467.177
 20
-442.228
 40
12.225
 50
93.489
 51
96.633
  0
ARC
  8
APS_GEOMETRY
 10
-466.779
 20
-448.758
 40
18.766
 50
91.439
 51
93.489
  0
ARC
  8
APS_GEOMETRY
 10
-466.294
 20
-468.055
 40
38.069
 50
90.0
 51
91.439
  0
ARC
  8
APS_GEOMETRY
 10
-466.294
 20
-465.468
 40
35.482
 50
87.994
 51
90.0
  0
ARC
  8
APS_GEOMETRY
 10
-465.649
 20
-447.047
 40
17.05
 50
85.101
 51
87.994
  0
ARC
  8
APS_GEOMETRY
 10
-465.125
 20
-440.939
 40
10.92
 50
80.595
 51
85.101
  0
ARC
  8
APS_GEOMETRY
 10
-463.931
 20
-433.732
 40
3.615
 50
72.759
 51
80.595
  0
ARC
  8
APS_GEOMETRY
 10
-463.57
 20
-432.612
 40
2.438
 50
40.956
 51
73.072
  0
ARC
  8
APS_GEOMETRY
 10
-462.88
 20
-432.013
 40
1.524
 50
360.0
 51
40.956
  0
ARC
  8
APS_GEOMETRY
 10
-462.788
 20
-432.013
 40
1.432
 50
322.573
 51
360.0
  0
ARC
  8
APS_GEOMETRY
 10
-463.54
 20
-431.437
 40
2.38
 50
293.749
 51
322.573
  0
ARC
  8
APS_GEOMETRY
 10
-460.518
 20
-438.378
 40
5.19
 50
113.429
 51
119.291
  0
ARC
  8
APS_GEOMETRY
 10
-462.538
 20
-434.778
 40
1.062
 50
119.291
 51
132.274
  0
ARC
  8
APS_GEOMETRY
 10
-462.654
 20
-434.65
 40
0.889
 50
132.274
 51
147.653
  0
ARC
  8
APS_GEOMETRY
 10
-461.813
 20
-435.182
 40
1.884
 50
147.653
 51
158.199
  0
ARC
  8
APS_GEOMETRY
 10
-460.534
 20
-435.722
 40
3.273
 50
157.751
 51
167.885
  0
ARC
  8
APS_GEOMETRY
 10
-453.724
 20
-437.183
 40
10.238
 50
167.885
 51
173.61
  0
ARC
  8
APS_GEOMETRY
 10
-447.7
 20
-437.858
 40
16.299
 50
173.61
 51
177.221
  0
ARC
  8
APS_GEOMETRY
 10
-429.122
 20
-438.76
 40
34.899
 50
177.221
 51
179.689
  0
LINE
  8
APS_GEOMETRY
 10
-464.021
 11
-464.021
 20
-438.57
 21
-443.901
  0
ARC
  8
APS_GEOMETRY
 10
-246.338
 20
-443.901
 40
217.683
 50
180.0
 51
180.161
  0
ARC
  8
APS_GEOMETRY
 10
-57.429
 20
-443.369
 40
406.593
 50
180.161
 51
180.279
  0
LINE
  8
APS_GEOMETRY
 10
-464.017
 11
-464.012
 20
-445.352
 21
-446.246
  0
LINE
  8
APS_GEOMETRY
 10
-464.012
 11
-464.004
 20
-446.246
 21
-447.253
  0
ARC
  8
APS_GEOMETRY
 10
-502.846
 20
-447.474
 40
38.843
 50
358.204
 51
0.326
  0
ARC
  8
APS_GEOMETRY
 10
-484.369
 20
-448.053
 40
20.356
 50
355.274
 51
358.204
  0
ARC
  8
APS_GEOMETRY
 10
-477.938
 20
-448.585
 40
13.903
 50
350.991
 51
355.274
  0
ARC
  8
APS_GEOMETRY
 10
-469.749
 20
-449.883
 40
5.612
 50
344.249
 51
350.991
  0
ARC
  8
APS_GEOMETRY
 10
-466.981
 20
-450.673
 40
2.733
 50
314.415
 51
344.445
  0
ARC
  8
APS_GEOMETRY
 10
-465.967
 20
-451.708
 40
1.284
 50
270.0
 51
314.415
  0
ARC
  8
APS_GEOMETRY
 10
-465.967
 20
-450.912
 40
2.08
 50
256.342
 51
270.0
  0
ARC
  8
APS_GEOMETRY
 10
-466.115
 20
-451.522
 40
1.452
 50
239.982
 51
256.342
  0
ARC
  8
APS_GEOMETRY
 10
-465.468
 20
-450.402
 40
2.746
 50
231.153
 51
239.982
  0
ARC
  8
APS_GEOMETRY
 10
-454.593
 20
-436.9
 40
20.083
 50
227.891
 51
231.153
  0
LINE
  8
APS_GEOMETRY
 10
-468.06
 11
-477.756
 20
-451.799
 21
-443.116
  0
ARC
  8
APS_GEOMETRY
 10
-481.492
 20
-447.252
 40
5.573
 50
47.911
 51
61.468
  0
ARC
  8
APS_GEOMETRY
 10
-479.441
 20
-443.479
 40
1.278
 50
61.468
 51
90.0
  0
ARC
  8
APS_GEOMETRY
 10
-479.441
 20
-442.76
 40
0.56
 50
90.0
 51
133.195
  0
ARC
  8
APS_GEOMETRY
 10
-478.888
 20
-443.348
 40
1.367
 50
133.195
 51
160.454
  0
ARC
  8
APS_GEOMETRY
 10
-477.116
 20
-443.978
 40
3.247
 50
160.454
 51
173.251
  0
ARC
  8
APS_GEOMETRY
 10
-468.783
 20
-444.964
 40
11.639
 50
173.251
 51
180.0
  0
ARC
  8
APS_GEOMETRY
 10
-446.113
 20
-444.964
 40
34.309
 50
180.0
 51
181.897
  0
ARC
  8
APS_GEOMETRY
 10
-464.284
 20
-445.566
 40
16.128
 50
181.897
 51
184.664
  0
ARC
  8
APS_GEOMETRY
 10
-470.24
 20
-446.051
 40
10.152
 50
184.664
 51
189.048
  0
ARC
  8
APS_GEOMETRY
 10
-477.14
 20
-447.15
 40
3.165
 50
189.048
 51
196.905
  0
ARC
  8
APS_GEOMETRY
 10
-478.236
 20
-447.483
 40
2.02
 50
196.905
 51
220.253
  0
ARC
  8
APS_GEOMETRY
 10
-478.214
 20
-447.465
 40
2.049
 50
220.253
 51
243.435
  0
ARC
  8
APS_GEOMETRY
 10
-480.213
 20
-451.495
 40
2.45
 50
37.921
 51
63.778
  0
ARC
  8
APS_GEOMETRY
 10
-479.196
 20
-450.703
 40
1.162
 50
360.0
 51
37.921
  0
ARC
  8
APS_GEOMETRY
 10
-479.648
 20
-450.703
 40
1.614
 50
324.268
 51
360.0
  0
ARC
  8
APS_GEOMETRY
 10
-480.252
 20
-450.269
 40
2.357
 50
294.86
 51
324.268
  0
ARC
  8
APS_GEOMETRY
 10
-481.25
 20
-448.114
 40
4.732
 50
278.78
 51
294.86
  0
ARC
  8
APS_GEOMETRY
 10
-482.94
 20
-437.174
 40
15.802
 50
270.0
 51
278.78
  0
ARC
  8
APS_GEOMETRY
 10
-482.94
 20
-440.01
 40
12.966
 50
260.383
 51
270.0
  0
ARC
  8
APS_GEOMETRY
 10
-484.306
 20
-448.074
 40
4.787
 50
244.522
 51
260.383
  0
ARC
  8
APS_GEOMETRY
 10
-485.296
 20
-450.151
 40
2.486
 50
216.549
 51
244.522
  0
ARC
  8
APS_GEOMETRY
 10
-486.107
 20
-450.752
 40
1.477
 50
180.0
 51
216.549
  0
ARC
  8
APS_GEOMETRY
 10
-485.58
 20
-450.752
 40
2.003
 50
164.65
 51
180.0
  0
ARC
  8
APS_GEOMETRY
 10
-486.723
 20
-450.439
 40
0.818
 50
140.528
 51
164.65
  0
ARC
  8
APS_GEOMETRY
 10
-486.261
 20
-450.819
 40
1.417
 50
126.135
 51
140.528
  0
ARC
  8
APS_GEOMETRY
 10
-481.433
 20
-457.431
 40
9.603
 50
120.619
 51
126.135
  0
ARC
  8
APS_GEOMETRY
 10
-487.157
 20
-447.77
 40
1.625
 50
300.784
 51
330.068
  0
ARC
  8
APS_GEOMETRY
 10
-488.239
 20
-447.146
 40
2.875
 50
330.068
 51
351.983
  0
ARC
  8
APS_GEOMETRY
 10
-506.421
 20
-444.776
 40
21.21
 50
352.493
 51
355.365
  0
ARC
  8
APS_GEOMETRY
 10
-528.352
 20
-442.998
 40
43.213
 50
355.365
 51
357.376
  0
ARC
  8
APS_GEOMETRY
 10
-543.708
 20
-442.294
 40
58.586
 50
357.376
 51
358.861
  0
ARC
  8
APS_GEOMETRY
 10
-584.622
 20
-441.481
 40
99.507
 50
358.861
 51
0.0
  0
ARC
  8
APS_GEOMETRY
 10
-547.827
 20
-441.481
 40
62.712
 50
360.0
 51
1.926
  0
ARC
  8
APS_GEOMETRY
 10
-518.634
 20
-440.499
 40
33.503
 50
1.926
 51
4.562
  0
ARC
  8
APS_GEOMETRY
 10
-508.34
 20
-439.678
 40
23.176
 50
4.562
 51
8.366
  0
ARC
  8
APS_GEOMETRY
 10
-494.952
 20
-437.709
 40
9.644
 50
8.366
 51
14.265
  0
ARC
  8
APS_GEOMETRY
 10
-489.889
 20
-436.429
 40
4.422
 50
14.349
 51
23.629
  0
ARC
  8
APS_GEOMETRY
 10
-487.322
 20
-435.305
 40
1.62
 50
23.629
 51
38.991
  0
ARC
  8
APS_GEOMETRY
 10
-487.313
 20
-435.298
 40
1.608
 50
38.991
 51
54.462
  0
ARC
  8
APS_GEOMETRY
 10
-488.815
 20
-437.401
 40
4.192
 50
54.462
 51
64.026
  0
ARC
  8
APS_GEOMETRY
 10
-484.576
 20
-428.717
 40
5.471
 50
235.472
 51
243.947
  0
ARC
  8
APS_GEOMETRY
 10
-486.765
 20
-431.899
 40
1.608
 50
219.806
 51
235.472
  0
ARC
  8
APS_GEOMETRY
 10
-487.097
 20
-432.176
 40
1.176
 50
198.939
 51
219.806
  0
ARC
  8
APS_GEOMETRY
 10
-486.861
 20
-432.095
 40
1.425
 50
180.0
 51
198.939
  0
ARC
  8
APS_GEOMETRY
 10
-486.931
 20
-432.095
 40
1.356
 50
126.254
 51
180.0
  0
ARC
  8
APS_GEOMETRY
 10
-484.861
 20
-434.917
 40
4.856
 50
98.616
 51
126.254
  0
ARC
  8
APS_GEOMETRY
 10
-484.57
 20
-437.249
 40
7.205
 50
94.456
 51
98.13
  0
ARC
  8
APS_GEOMETRY
 10
-483.446
 20
-451.675
 40
21.675
 50
92.337
 51
94.456
  0
ARC
  8
APS_GEOMETRY
 10
-482.967
 20
-463.414
 40
33.424
 50
90.963
 51
92.337
  0
ARC
  8
APS_GEOMETRY
 10
-482.384
 20
-498.089
 40
68.103
 50
90.0
 51
90.963
  0
ARC
  8
APS_GEOMETRY
 10
-482.384
 20
-442.396
 40
12.411
 50
83.928
 51
90.0
  0
ARC
  8
APS_GEOMETRY
 10
-481.366
 20
-432.828
 40
2.788
 50
71.095
 51
83.928
  0
ARC
  8
APS_GEOMETRY
 10
-481.273
 20
-432.556
 40
2.501
 50
56.848
 51
71.095
  0
ARC
  8
APS_GEOMETRY
 10
-484.024
 20
-436.768
 40
7.532
 50
48.652
 51
56.848
  0
ARC
  8
APS_GEOMETRY
 10
-449.644
 20
-450.289
 40
20.304
 50
84.71
 51
90.0
  0
ARC
  8
APS_GEOMETRY
 10
-449.272
 20
-446.269
 40
16.267
 50
78.799
 51
84.71
  0
ARC
  8
APS_GEOMETRY
 10
-446.864
 20
-434.098
 40
3.859
 50
49.783
 51
78.771
  0
ARC
  8
APS_GEOMETRY
 10
-445.253
 20
-432.193
 40
1.365
 50
360.0
 51
49.783
  0
ARC
  8
APS_GEOMETRY
 10
-445.398
 20
-432.193
 40
1.51
 50
342.759
 51
360.0
  0
ARC
  8
APS_GEOMETRY
 10
-444.611
 20
-432.437
 40
0.685
 50
317.045
 51
342.759
  0
ARC
  8
APS_GEOMETRY
 10
-444.991
 20
-432.083
 40
1.205
 50
301.817
 51
317.045
  0
ARC
  8
APS_GEOMETRY
 10
-450.619
 20
-423.012
 40
11.88
 50
296.98
 51
301.817
  0
ARC
  8
APS_GEOMETRY
 10
-444.618
 20
-434.821
 40
1.366
 50
116.565
 51
149.078
  0
ARC
  8
APS_GEOMETRY
 10
-442.859
 20
-435.875
 40
3.417
 50
149.078
 51
169.469
  0
ARC
  8
APS_GEOMETRY
 10
-439.107
 20
-436.573
 40
7.234
 50
169.469
 51
174.598
  0
ARC
  8
APS_GEOMETRY
 10
-419.775
 20
-438.401
 40
26.652
 50
174.598
 51
177.269
  0
ARC
  8
APS_GEOMETRY
 10
-402.776
 20
-439.212
 40
43.67
 50
177.269
 51
178.901
  0
ARC
  8
APS_GEOMETRY
 10
-350.122
 20
-440.222
 40
96.333
 50
178.901
 51
180.0
  0
ARC
  8
APS_GEOMETRY
 10
-243.128
 20
-440.222
 40
203.328
 50
180.0
 51
180.88
  0
ARC
  8
APS_GEOMETRY
 10
-368.388
 20
-442.146
 40
78.054
 50
180.88
 51
182.3
  0
ARC
  8
APS_GEOMETRY
 10
-405.0
 20
-443.616
 40
41.411
 50
182.3
 51
184.974
  0
ARC
  8
APS_GEOMETRY
 10
-439.911
 20
-446.654
 40
6.369
 50
184.974
 51
191.793
  0
ARC
  8
APS_GEOMETRY
 10
-443.966
 20
-447.43
 40
2.242
 50
193.57
 51
205.787
  0
ARC
  8
APS_GEOMETRY
 10
-444.974
 20
-447.917
 40
1.122
 50
205.787
 51
223.091
  0
ARC
  8
APS_GEOMETRY
 10
-444.718
 20
-447.678
 40
1.472
 50
223.091
 51
236.441
  0
ARC
  8
APS_GEOMETRY
 10
-442.577
 20
-444.45
 40
5.346
 50
236.441
 51
243.435
  0
ARC
  8
APS_GEOMETRY
 10
-445.856
 20
-451.185
 40
2.146
 50
37.185
 51
65.556
  0
ARC
  8
APS_GEOMETRY
 10
-445.156
 20
-450.654
 40
1.268
 50
0.0
 51
37.185
  0
ARC
  8
APS_GEOMETRY
 10
-445.195
 20
-450.654
 40
1.306
 50
312.039
 51
360.0
  0
ARC
  8
APS_GEOMETRY
 10
-446.75
 20
-448.929
 40
3.629
 50
283.815
 51
312.039
  0
ARC
  8
APS_GEOMETRY
 10
-449.32
 20
-438.276
 40
14.587
 50
279.273
 51
283.627
  0
ARC
  8
APS_GEOMETRY
 10
-450.348
 20
-431.984
 40
20.963
 50
275.641
 51
279.273
  0
ARC
  8
APS_GEOMETRY
 10
-450.74
 20
-428.007
 40
24.959
 50
272.588
 51
275.641
  0
ARC
  8
APS_GEOMETRY
 10
-451.181
 20
-418.248
 40
34.728
 50
270.0
 51
272.588
  0
ARC
  8
APS_GEOMETRY
 10
-451.181
 20
-432.029
 40
20.947
 50
262.774
 51
270.0
  0
ARC
  8
APS_GEOMETRY
 10
-453.07
 20
-446.923
 40
5.934
 50
249.175
 51
262.774
  0
ARC
  8
APS_GEOMETRY
 10
-454.256
 20
-450.042
 40
2.597
 50
221.23
 51
249.175
  0
ARC
  8
APS_GEOMETRY
 10
-455.291
 20
-450.948
 40
1.221
 50
180.0
 51
221.23
  0
ARC
  8
APS_GEOMETRY
 10
-455.491
 20
-450.948
 40
1.021
 50
142.696
 51
180.0
  0
ARC
  8
APS_GEOMETRY
 10
-453.881
 20
-452.176
 40
3.046
 50
121.357
 51
142.696
  0
ARC
  8
APS_GEOMETRY
 10
-456.602
 20
-447.718
 40
2.177
 50
301.477
 51
324.728
  0
ARC
  8
APS_GEOMETRY
 10
-456.312
 20
-447.923
 40
1.822
 50
324.728
 51
350.181
  0
ARC
  8
APS_GEOMETRY
 10
-465.433
 20
-446.415
 40
11.066
 50
350.538
 51
355.423
  0
ARC
  8
APS_GEOMETRY
 10
-502.909
 20
-443.415
 40
48.662
 50
355.423
 51
357.752
  0
ARC
  8
APS_GEOMETRY
 10
-537.705
 20
-442.049
 40
83.485
 50
357.752
 51
359.111
  0
ARC
  8
APS_GEOMETRY
 10
-649.079
 20
-440.32
 40
194.872
 50
359.111
 51
0.0
  0
ARC
  8
APS_GEOMETRY
 10
-521.818
 20
-440.32
 40
67.612
 50
0.0
 51
1.773
  0
ARC
  8
APS_GEOMETRY
 10
-482.138
 20
-439.092
 40
27.913
 50
1.773
 51
4.532
  0
ARC
  8
APS_GEOMETRY
 10
-470.078
 20
-438.136
 40
15.814
 50
4.532
 51
9.384
  0
ARC
  8
APS_GEOMETRY
 10
-457.831
 20
-436.112
 40
3.402
 50
9.384
 51
19.855
  0
ARC
  8
APS_GEOMETRY
 10
-456.21
 20
-435.496
 40
1.668
 50
18.853
 51
42.158
  0
ARC
  8
APS_GEOMETRY
 10
-457.599
 20
-436.753
 40
3.542
 50
42.158
 51
58.092
  0
ARC
  8
APS_GEOMETRY
 10
-451.485
 20
-427.305
 40
7.713
 50
230.711
 51
236.634
  0
ARC
  8
APS_GEOMETRY
 10
-455.326
 20
-431.999
 40
1.648
 50
217.875
 51
230.711
  0
ARC
  8
APS_GEOMETRY
 10
-455.852
 20
-432.408
 40
0.981
 50
196.928
 51
217.875
  0
ARC
  8
APS_GEOMETRY
 10
-455.359
 20
-432.258
 40
1.496
 50
180.0
 51
196.928
  0
ARC
  8
APS_GEOMETRY
 10
-455.682
 20
-432.258
 40
1.174
 50
148.791
 51
180.0
  0
ARC
  8
APS_GEOMETRY
 10
-455.374
 20
-432.445
 40
1.533
 50
121.569
 51
148.791
  0
ARC
  8
APS_GEOMETRY
 10
-454.822
 20
-433.344
 40
2.589
 50
112.806
 51
121.569
  0
ARC
  8
APS_GEOMETRY
 10
-453.328
 20
-436.896
 40
6.443
 50
107.254
 51
112.806
  0
ARC
  8
APS_GEOMETRY
 10
-452.413
 20
-439.842
 40
9.527
 50
103.487
 51
107.254
  0
ARC
  8
APS_GEOMETRY
 10
-450.318
 20
-448.578
 40
18.511
 50
100.784
 51
103.487
  0
ARC
  8
APS_GEOMETRY
 10
-449.661
 20
-450.994
 40
21.008
 50
95.643
 51
101.31
  0
ARC
  8
APS_GEOMETRY
 10
-449.644
 20
-451.167
 40
21.181
 50
90.0
 51
95.643
  0
ARC
  8
APS_GEOMETRY
 10
-429.309
 20
-440.503
 40
10.632
 50
77.257
 51
90.0
  0
ARC
  8
APS_GEOMETRY
 10
-429.417
 20
-440.981
 40
11.122
 50
64.799
 51
77.257
  0
ARC
  8
APS_GEOMETRY
 10
-420.259
 20
-421.481
 40
10.421
 50
244.885
 51
251.175
  0
ARC
  8
APS_GEOMETRY
 10
-423.243
 20
-430.235
 40
1.173
 50
251.175
 51
270.0
  0
ARC
  8
APS_GEOMETRY
 10
-423.243
 20
-429.505
 40
1.903
 50
270.0
 51
278.82
  0
ARC
  8
APS_GEOMETRY
 10
-424.472
 20
-421.581
 40
9.922
 50
278.82
 51
282.68
  0
ARC
  8
APS_GEOMETRY
 10
-421.9
 20
-432.972
 40
1.755
 50
95.906
 51
102.995
  0
ARC
  8
APS_GEOMETRY
 10
-421.82
 20
-433.74
 40
2.528
 50
90.0
 51
95.906
  0
ARC
  8
APS_GEOMETRY
 10
-421.82
 20
-432.89
 40
1.678
 50
62.447
 51
90.0
  0
ARC
  8
APS_GEOMETRY
 10
-422.119
 20
-433.462
 40
2.323
 50
39.094
 51
62.447
  0
ARC
  8
APS_GEOMETRY
 10
-425.236
 20
-436.068
 40
6.386
 50
18.435
 51
39.611
  0
ARC
  8
APS_GEOMETRY
 10
-427.149
 20
-436.706
 40
8.403
 50
360.0
 51
18.435
  0
ARC
  8
APS_GEOMETRY
 10
-422.913
 20
-436.706
 40
4.167
 50
334.877
 51
360.0
  0
ARC
  8
APS_GEOMETRY
 10
-421.66
 20
-437.294
 40
2.783
 50
304.007
 51
334.877
  0
ARC
  8
APS_GEOMETRY
 10
-421.68
 20
-437.235
 40
2.843
 50
286.39
 51
303.69
  0
ARC
  8
APS_GEOMETRY
 10
-421.771
 20
-436.926
 40
3.165
 50
270.0
 51
286.39
  0
ARC
  8
APS_GEOMETRY
 10
-421.771
 20
-436.963
 40
3.128
 50
255.155
 51
270.0
  0
ARC
  8
APS_GEOMETRY
 10
-422.114
 20
-438.256
 40
1.791
 50
235.491
 51
255.155
  0
ARC
  8
APS_GEOMETRY
 10
-421.942
 20
-438.005
 40
2.094
 50
218.48
 51
235.491
  0
ARC
  8
APS_GEOMETRY
 10
-419.131
 20
-435.771
 40
5.684
 50
208.179
 51
218.48
  0
ARC
  8
APS_GEOMETRY
 10
-447.944
 20
-451.411
 40
27.099
 50
28.56
 51
31.664
  0
ARC
  8
APS_GEOMETRY
 10
-430.338
 20
-440.553
 40
6.414
 50
31.664
 51
38.047
  0
ARC
  8
APS_GEOMETRY
 10
-429.057
 20
-439.551
 40
4.788
 50
38.047
 51
46.56
  0
ARC
  8
APS_GEOMETRY
 10
-429.723
 20
-440.253
 40
5.756
 50
46.56
 51
54.324
  0
ARC
  8
APS_GEOMETRY
 10
-430.107
 20
-440.914
 40
6.517
 50
54.968
 51
71.48
  0
ARC
  8
APS_GEOMETRY
 10
-429.685
 20
-439.656
 40
5.19
 50
71.48
 51
90.0
  0
ARC
  8
APS_GEOMETRY
 10
-429.685
 20
-438.091
 40
3.625
 50
90.0
 51
114.63
  0
ARC
  8
APS_GEOMETRY
 10
-429.868
 20
-437.694
 40
3.188
 50
114.63
 51
140.921
  0
ARC
  8
APS_GEOMETRY
 10
-429.33
 20
-438.131
 40
3.881
 50
140.921
 51
163.13
  0
ARC
  8
APS_GEOMETRY
 10
-426.641
 20
-438.946
 40
6.691
 50
163.13
 51
180.0
  0
ARC
  8
APS_GEOMETRY
 10
-423.154
 20
-438.946
 40
10.178
 50
180.0
 51
195.44
  0
ARC
  8
APS_GEOMETRY
 10
-423.683
 20
-439.092
 40
9.629
 50
195.44
 51
211.316
  0
ARC
  8
APS_GEOMETRY
 10
-426.228
 20
-440.587
 40
6.678
 50
211.708
 51
240.457
  0
ARC
  8
APS_GEOMETRY
 10
-426.399
 20
-440.889
 40
6.332
 50
240.457
 51
270.0
  0
ARC
  8
APS_GEOMETRY
 10
-426.399
 20
-439.345
 40
7.875
 50
270.0
 51
279.549
  0
ARC
  8
APS_GEOMETRY
 10
-426.497
 20
-438.763
 40
8.466
 50
279.549
 51
288.759
  0
ARC
  8
APS_GEOMETRY
 10
-426.084
 20
-439.978
 40
7.182
 50
288.759
 51
299.545
  0
ARC
  8
APS_GEOMETRY
 10
-424.429
 20
-442.898
 40
3.826
 50
299.545
 51
314.341
  0
ARC
  8
APS_GEOMETRY
 10
-419.312
 20
-448.213
 40
3.553
 50
120.141
 51
133.452
  0
ARC
  8
APS_GEOMETRY
 10
-420.741
 20
-445.751
 40
0.706
 50
90.0
 51
120.141
  0
ARC
  8
APS_GEOMETRY
 10
-420.741
 20
-446.16
 40
1.115
 50
61.952
 51
90.0
  0
ARC
  8
APS_GEOMETRY
 10
-420.907
 20
-446.472
 40
1.468
 50
37.569
 51
61.952
  0
ARC
  8
APS_GEOMETRY
 10
-421.217
 20
-446.71
 40
1.859
 50
17.665
 51
37.569
  0
ARC
  8
APS_GEOMETRY
 10
-421.689
 20
-446.861
 40
2.354
 50
360.0
 51
17.665
  0
ARC
  8
APS_GEOMETRY
 10
-422.875
 20
-446.861
 40
3.54
 50
344.932
 51
0.0
  0
ARC
  8
APS_GEOMETRY
 10
-426.024
 20
-446.013
 40
6.801
 50
334.075
 51
344.932
  0
ARC
  8
APS_GEOMETRY
 10
-426.123
 20
-445.965
 40
6.912
 50
323.374
 51
334.075
  0
ARC
  8
APS_GEOMETRY
 10
-424.091
 20
-447.475
 40
4.38
 50
309.92
 51
323.374
  0
ARC
  8
APS_GEOMETRY
 10
-422.061
 20
-449.87
 40
1.24
 50
289.026
 51
308.991
  0
ARC
  8
APS_GEOMETRY
 10
-424.227
 20
-443.588
 40
7.886
 50
281.143
 51
289.026
  0
ARC
  8
APS_GEOMETRY
 10
-422.03
 20
-454.978
 40
3.715
 50
100.437
 51
110.12
  0
ARC
  8
APS_GEOMETRY
 10
-419.12
 20
-462.923
 40
12.177
 50
110.12
 51
115.463
  0
ARC
  8
APS_GEOMETRY
 10
-429.51
 20
-441.183
 40
11.919
 50
282.94
 51
295.628
  0
ARC
  8
APS_GEOMETRY
 10
-429.407
 20
-441.63
 40
11.46
 50
270.0
 51
282.94
  0
ARC
  8
APS_GEOMETRY
 10
-429.407
 20
-440.953
 40
12.137
 50
257.307
 51
270.0
  0
ARC
  8
APS_GEOMETRY
 10
-428.895
 20
-438.678
 40
14.469
 50
245.686
 51
257.307
  0
ARC
  8
APS_GEOMETRY
 10
-430.18
 20
-441.499
 40
11.37
 50
228.801
 51
245.735
  0
ARC
  8
APS_GEOMETRY
 10
-430.159
 20
-441.474
 40
11.402
 50
211.891
 51
228.801
  0
ARC
  8
APS_GEOMETRY
 10
-429.485
 20
-440.989
 40
12.231
 50
196.728
 51
212.152
  0
ARC
  8
APS_GEOMETRY
 10
-431.229
 20
-441.514
 40
10.41
 50
180.0
 51
196.728
  0
ARC
  8
APS_GEOMETRY
 10
-430.975
 20
-441.514
 40
10.663
 50
161.184
 51
180.0
  0
ARC
  8
APS_GEOMETRY
 10
-430.291
 20
-441.747
 40
11.386
 50
142.98
 51
161.184
  0
ARC
  8
APS_GEOMETRY
 10
-429.759
 20
-442.154
 40
12.056
 50
127.824
 51
142.958
  0
ARC
  8
APS_GEOMETRY
 10
-428.882
 20
-443.283
 40
13.486
 50
113.52
 51
127.824
  0
ARC
  8
APS_GEOMETRY
 10
-429.167
 20
-442.624
 40
12.768
 50
101.927
 51
113.527
  0
ARC
  8
APS_GEOMETRY
 10
-429.309
 20
-441.952
 40
12.08
 50
90.0
 51
101.927
  0
ARC
  8
APS_GEOMETRY
 10
-407.035
 20
-450.289
 40
20.304
 50
84.71
 51
90.0
  0
ARC
  8
APS_GEOMETRY
 10
-406.663
 20
-446.269
 40
16.267
 50
78.799
 51
84.71
  0
ARC
  8
APS_GEOMETRY
 10
-404.255
 20
-434.098
 40
3.859
 50
49.783
 51
78.771
  0
ARC
  8
APS_GEOMETRY
 10
-402.644
 20
-432.193
 40
1.365
 50
360.0
 51
49.783
  0
ARC
  8
APS_GEOMETRY
 10
-402.789
 20
-432.193
 40
1.51
 50
342.759
 51
360.0
  0
ARC
  8
APS_GEOMETRY
 10
-402.001
 20
-432.437
 40
0.685
 50
317.045
 51
342.759
  0
ARC
  8
APS_GEOMETRY
 10
-402.382
 20
-432.083
 40
1.205
 50
301.817
 51
317.045
  0
ARC
  8
APS_GEOMETRY
 10
-408.01
 20
-423.012
 40
11.88
 50
296.98
 51
301.817
  0
ARC
  8
APS_GEOMETRY
 10
-402.009
 20
-434.821
 40
1.366
 50
116.565
 51
149.078
  0
ARC
  8
APS_GEOMETRY
 10
-400.249
 20
-435.875
 40
3.417
 50
149.078
 51
169.469
  0
ARC
  8
APS_GEOMETRY
 10
-396.497
 20
-436.573
 40
7.234
 50
169.469
 51
174.598
  0
ARC
  8
APS_GEOMETRY
 10
-377.165
 20
-438.401
 40
26.652
 50
174.598
 51
177.269
  0
ARC
  8
APS_GEOMETRY
 10
-360.166
 20
-439.212
 40
43.67
 50
177.269
 51
178.901
  0
ARC
  8
APS_GEOMETRY
 10
-307.513
 20
-440.222
 40
96.333
 50
178.901
 51
180.0
  0
ARC
  8
APS_GEOMETRY
 10
-200.518
 20
-440.222
 40
203.328
 50
180.0
 51
180.88
  0
ARC
  8
APS_GEOMETRY
 10
-325.778
 20
-442.146
 40
78.054
 50
180.88
 51
182.3
  0
ARC
  8
APS_GEOMETRY
 10
-362.391
 20
-443.616
 40
41.411
 50
182.3
 51
184.974
  0
ARC
  8
APS_GEOMETRY
 10
-397.301
 20
-446.654
 40
6.369
 50
184.974
 51
191.793
  0
ARC
  8
APS_GEOMETRY
 10
-401.356
 20
-447.43
 40
2.242
 50
193.57
 51
205.787
  0
ARC
  8
APS_GEOMETRY
 10
-402.365
 20
-447.917
 40
1.122
 50
205.787
 51
223.091
  0
ARC
  8
APS_GEOMETRY
 10
-402.109
 20
-447.678
 40
1.472
 50
223.091
 51
236.441
  0
ARC
  8
APS_GEOMETRY
 10
-399.967
 20
-444.45
 40
5.346
 50
236.441
 51
243.435
  0
ARC
  8
APS_GEOMETRY
 10
-403.246
 20
-451.185
 40
2.146
 50
37.185
 51
65.556
  0
ARC
  8
APS_GEOMETRY
 10
-402.547
 20
-450.654
 40
1.268
 50
0.0
 51
37.185
  0
ARC
  8
APS_GEOMETRY
 10
-402.585
 20
-450.654
 40
1.306
 50
312.039
 51
360.0
  0
ARC
  8
APS_GEOMETRY
 10
-404.141
 20
-448.929
 40
3.629
 50
283.815
 51
312.039
  0
ARC
  8
APS_GEOMETRY
 10
-406.711
 20
-438.276
 40
14.587
 50
279.273
 51
283.627
  0
ARC
  8
APS_GEOMETRY
 10
-407.738
 20
-431.984
 40
20.963
 50
275.641
 51
279.273
  0
ARC
  8
APS_GEOMETRY
 10
-408.131
 20
-428.007
 40
24.959
 50
272.588
 51
275.641
  0
ARC
  8
APS_GEOMETRY
 10
-408.572
 20
-418.248
 40
34.728
 50
270.0
 51
272.588
  0
ARC
  8
APS_GEOMETRY
 10
-408.572
 20
-432.029
 40
20.947
 50
262.774
 51
270.0
  0
ARC
  8
APS_GEOMETRY
 10
-410.46
 20
-446.923
 40
5.934
 50
249.175
 51
262.774
  0
ARC
  8
APS_GEOMETRY
 10
-411.647
 20
-450.042
 40
2.597
 50
221.23
 51
249.175
  0
ARC
  8
APS_GEOMETRY
 10
-412.681
 20
-450.948
 40
1.221
 50
180.0
 51
221.23
  0
ARC
  8
APS_GEOMETRY
 10
-412.882
 20
-450.948
 40
1.021
 50
142.696
 51
180.0
  0
ARC
  8
APS_GEOMETRY
 10
-411.271
 20
-452.176
 40
3.046
 50
121.357
 51
142.696
  0
ARC
  8
APS_GEOMETRY
 10
-413.993
 20
-447.718
 40
2.177
 50
301.477
 51
324.728
  0
ARC
  8
APS_GEOMETRY
 10
-413.703
 20
-447.923
 40
1.822
 50
324.728
 51
350.181
  0
ARC
  8
APS_GEOMETRY
 10
-422.823
 20
-446.415
 40
11.066
 50
350.538
 51
355.423
  0
ARC
  8
APS_GEOMETRY
 10
-460.299
 20
-443.415
 40
48.662
 50
355.423
 51
357.752
  0
ARC
  8
APS_GEOMETRY
 10
-495.096
 20
-442.049
 40
83.485
 50
357.752
 51
359.111
  0
ARC
  8
APS_GEOMETRY
 10
-606.469
 20
-440.32
 40
194.872
 50
359.111
 51
0.0
  0
ARC
  8
APS_GEOMETRY
 10
-479.209
 20
-440.32
 40
67.612
 50
0.0
 51
1.773
  0
ARC
  8
APS_GEOMETRY
 10
-439.529
 20
-439.092
 40
27.913
 50
1.773
 51
4.532
  0
ARC
  8
APS_GEOMETRY
 10
-427.468
 20
-438.136
 40
15.814
 50
4.532
 51
9.384
  0
ARC
  8
APS_GEOMETRY
 10
-415.222
 20
-436.112
 40
3.402
 50
9.384
 51
19.855
  0
ARC
  8
APS_GEOMETRY
 10
-413.601
 20
-435.496
 40
1.668
 50
18.853
 51
42.158
  0
ARC
  8
APS_GEOMETRY
 10
-414.99
 20
-436.753
 40
3.542
 50
42.158
 51
58.092
  0
ARC
  8
APS_GEOMETRY
 10
-408.876
 20
-427.305
 40
7.713
 50
230.711
 51
236.634
  0
ARC
  8
APS_GEOMETRY
 10
-412.716
 20
-431.999
 40
1.648
 50
217.875
 51
230.711
  0
ARC
  8
APS_GEOMETRY
 10
-413.243
 20
-432.408
 40
0.981
 50
196.928
 51
217.875
  0
ARC
  8
APS_GEOMETRY
 10
-412.75
 20
-432.258
 40
1.496
 50
180.0
 51
196.928
  0
ARC
  8
APS_GEOMETRY
 10
-413.072
 20
-432.258
 40
1.174
 50
148.791
 51
180.0
  0
ARC
  8
APS_GEOMETRY
 10
-412.765
 20
-432.445
 40
1.533
 50
121.569
 51
148.791
  0
ARC
  8
APS_GEOMETRY
 10
-412.212
 20
-433.344
 40
2.589
 50
112.806
 51
121.569
  0
ARC
  8
APS_GEOMETRY
 10
-410.718
 20
-436.896
 40
6.443
 50
107.254
 51
112.806
  0
ARC
  8
APS_GEOMETRY
 10
-409.804
 20
-439.842
 40
9.527
 50
103.487
 51
107.254
  0
ARC
  8
APS_GEOMETRY
 10
-407.708
 20
-448.578
 40
18.511
 50
100.784
 51
103.487
  0
ARC
  8
APS_GEOMETRY
 10
-407.052
 20
-450.994
 40
21.008
 50
95.643
 51
101.31
  0
ARC
  8
APS_GEOMETRY
 10
-407.035
 20
-451.167
 40
21.181
 50
90.0
 51
95.643
  0
LINE
  8
APS_GEOMETRY
 10
-372.461
 11
-372.461
 20
-444.947
 21
-436.346
  0
ARC
  8
APS_GEOMETRY
 10
-392.322
 20
-436.346
 40
19.861
 50
0.0
 51
2.404
  0
ARC
  8
APS_GEOMETRY
 10
-380.563
 20
-435.853
 40
8.092
 50
2.404
 51
6.17
  0
ARC
  8
APS_GEOMETRY
 10
-377.038
 20
-435.472
 40
4.547
 50
6.17
 51
12.824
  0
ARC
  8
APS_GEOMETRY
 10
-373.589
 20
-434.686
 40
1.009
 50
12.824
 51
26.98
  0
ARC
  8
APS_GEOMETRY
 10
-373.427
 20
-434.604
 40
0.828
 50
26.98
 51
59.65
  0
ARC
  8
APS_GEOMETRY
 10
-374.946
 20
-437.199
 40
3.834
 50
59.65
 51
74.667
  0
ARC
  8
APS_GEOMETRY
 10
-373.195
 20
-430.949
 40
2.656
 50
225.0
 51
253.887
  0
ARC
  8
APS_GEOMETRY
 10
-374.276
 20
-432.03
 40
1.128
 50
180.0
 51
225.0
  0
ARC
  8
APS_GEOMETRY
 10
-374.068
 20
-432.03
 40
1.336
 50
151.157
 51
180.0
  0
ARC
  8
APS_GEOMETRY
 10
-374.071
 20
-432.028
 40
1.332
 50
122.276
 51
151.157
  0
ARC
  8
APS_GEOMETRY
 10
-373.689
 20
-432.633
 40
2.048
 50
102.308
 51
122.276
  0
ARC
  8
APS_GEOMETRY
 10
-372.984
 20
-435.865
 40
5.356
 50
90.0
 51
102.308
  0
ARC
  8
APS_GEOMETRY
 10
-372.984
 20
-442.092
 40
11.583
 50
88.989
 51
90.0
  0
ARC
  8
APS_GEOMETRY
 10
-373.958
 20
-497.264
 40
66.764
 50
88.568
 51
88.989
  0
ARC
  8
APS_GEOMETRY
 10
-375.333
 20
-552.267
 40
121.783
 50
88.337
 51
88.568
  0
ARC
  8
APS_GEOMETRY
 10
-380.662
 20
-735.824
 40
305.419
 50
88.191
 51
88.337
  0
LINE
  8
APS_GEOMETRY
 10
-371.022
 11
-370.057
 20
-430.558
 21
-430.558
  0
ARC
  8
APS_GEOMETRY
 10
-373.298
 20
107.417
 40
537.985
 50
270.345
 51
270.49
  0
ARC
  8
APS_GEOMETRY
 10
-370.278
 20
-245.888
 40
184.666
 50
270.49
 51
270.736
  0
ARC
  8
APS_GEOMETRY
 10
-369.039
 20
-342.324
 40
88.223
 50
270.736
 51
271.253
  0
ARC
  8
APS_GEOMETRY
 10
-367.276
 20
-422.933
 40
7.595
 50
271.253
 51
273.013
  0
ARC
  8
APS_GEOMETRY
 10
-367.349
 20
-421.539
 40
8.991
 50
273.013
 51
274.5
  0
ARC
  8
APS_GEOMETRY
 10
-375.677
 20
-315.712
 40
115.145
 50
274.5
 51
274.915
  0
LINE
  8
APS_GEOMETRY
 10
-365.812
 11
-364.83
 20
-430.433
 21
-430.347
  0
LINE
  8
APS_GEOMETRY
 10
-364.83
 11
-363.549
 20
-430.347
 21
-430.231
  0
ARC
  8
APS_GEOMETRY
 10
-361.443
 20
-450.593
 40
20.471
 50
93.24
 51
95.906
  0
ARC
  8
APS_GEOMETRY
 10
-361.816
 20
-444.001
 40
13.868
 50
90.0
 51
93.24
  0
ARC
  8
APS_GEOMETRY
 10
-361.816
 20
-441.909
 40
11.777
 50
77.12
 51
90.0
  0
ARC
  8
APS_GEOMETRY
 10
-361.195
 20
-439.196
 40
8.993
 50
62.371
 51
77.12
  0
ARC
  8
APS_GEOMETRY
 10
-360.145
 20
-437.227
 40
6.761
 50
31.215
 51
62.517
  0
ARC
  8
APS_GEOMETRY
 10
-360.177
 20
-437.246
 40
6.798
 50
360.0
 51
31.215
  0
ARC
  8
APS_GEOMETRY
 10
-360.359
 20
-437.246
 40
6.981
 50
334.496
 51
360.0
  0
ARC
  8
APS_GEOMETRY
 10
-360.016
 20
-437.41
 40
6.601
 50
308.254
 51
334.496
  0
ARC
  8
APS_GEOMETRY
 10
-361.066
 20
-436.026
 40
8.337
 50
287.855
 51
308.034
  0
ARC
  8
APS_GEOMETRY
 10
-361.767
 20
-433.85
 40
10.623
 50
270.0
 51
287.855
  0
ARC
  8
APS_GEOMETRY
 10
-361.767
 20
-428.375
 40
16.098
 50
266.918
 51
270.0
  0
ARC
  8
APS_GEOMETRY
 10
-360.79
 20
-410.226
 40
34.273
 50
264.806
 51
266.918
  0
ARC
  8
APS_GEOMETRY
 10
-367.326
 20
-491.281
 40
47.047
 50
85.815
 51
86.634
  0
ARC
  8
APS_GEOMETRY
 10
-364.727
 20
-447.091
 40
2.782
 50
86.634
 51
90.0
  0
ARC
  8
APS_GEOMETRY
 10
-364.727
 20
-444.72
 40
0.41
 50
90.0
 51
139.686
  0
ARC
  8
APS_GEOMETRY
 10
-364.574
 20
-444.849
 40
0.61
 50
139.686
 51
180.0
  0
LINE
  8
APS_GEOMETRY
 10
-365.184
 11
-365.184
 20
-444.849
 21
-444.947
  0
LINE
  8
APS_GEOMETRY
 10
-365.184
 11
-365.07
 20
-444.947
 21
-447.629
  0
ARC
  8
APS_GEOMETRY
 10
-361.195
 20
-447.468
 40
3.879
 50
182.386
 51
193.753
  0
ARC
  8
APS_GEOMETRY
 10
-363.694
 20
-448.079
 40
1.306
 50
193.753
 51
213.408
  0
ARC
  8
APS_GEOMETRY
 10
-363.666
 20
-448.061
 40
1.339
 50
213.408
 51
232.628
  0
ARC
  8
APS_GEOMETRY
 10
-361.41
 20
-445.108
 40
5.055
 50
232.628
 51
242.488
  0
ARC
  8
APS_GEOMETRY
 10
-365.172
 20
-452.24
 40
3.009
 50
40.539
 51
61.699
  0
ARC
  8
APS_GEOMETRY
 10
-363.528
 20
-450.834
 40
0.845
 50
360.0
 51
40.539
  0
ARC
  8
APS_GEOMETRY
 10
-363.817
 20
-450.834
 40
1.135
 50
315.297
 51
360.0
  0
ARC
  8
APS_GEOMETRY
 10
-365.352
 20
-449.315
 40
3.294
 50
289.502
 51
315.297
  0
ARC
  8
APS_GEOMETRY
 10
-366.477
 20
-446.139
 40
6.663
 50
282.372
 51
289.502
  0
ARC
  8
APS_GEOMETRY
 10
-367.658
 20
-440.754
 40
12.176
 50
277.099
 51
282.372
  0
ARC
  8
APS_GEOMETRY
 10
-368.144
 20
-436.854
 40
16.106
 50
273.104
 51
277.099
  0
ARC
  8
APS_GEOMETRY
 10
-368.716
 20
-426.295
 40
26.681
 50
270.0
 51
273.104
  0
ARC
  8
APS_GEOMETRY
 10
-368.716
 20
-426.615
 40
26.361
 50
263.473
 51
270.0
  0
ARC
  8
APS_GEOMETRY
 10
-370.883
 20
-445.548
 40
7.304
 50
251.056
 51
263.473
  0
ARC
  8
APS_GEOMETRY
 10
-372.274
 20
-449.601
 40
3.02
 50
224.161
 51
251.056
  0
ARC
  8
APS_GEOMETRY
 10
-373.611
 20
-450.899
 40
1.156
 50
180.0
 51
224.161
  0
ARC
  8
APS_GEOMETRY
 10
-373.371
 20
-450.899
 40
1.396
 50
160.821
 51
180.0
  0
ARC
  8
APS_GEOMETRY
 10
-373.956
 20
-450.696
 40
0.776
 50
135.0
 51
160.821
  0
ARC
  8
APS_GEOMETRY
 10
-373.403
 20
-451.249
 40
1.558
 50
121.522
 51
135.0
  0
ARC
  8
APS_GEOMETRY
 10
-367.16
 20
-461.427
 40
13.498
 50
116.952
 51
121.522
  0
ARC
  8
APS_GEOMETRY
 10
-373.977
 20
-448.072
 40
1.496
 50
297.824
 51
321.605
  0
ARC
  8
APS_GEOMETRY
 10
-373.632
 20
-448.345
 40
1.057
 50
321.605
 51
349.992
  0
ARC
  8
APS_GEOMETRY
 10
-375.232
 20
-448.063
 40
2.681
 50
349.992
 51
356.014
  0
ARC
  8
APS_GEOMETRY
 10
-399.563
 20
-446.367
 40
27.071
 50
356.014
 51
357.908
  0
ARC
  8
APS_GEOMETRY
 10
-427.965
 20
-445.329
 40
55.492
 50
357.908
 51
358.833
  0
ARC
  8
APS_GEOMETRY
 10
-530.664
 20
-443.237
 40
158.212
 50
358.833
 51
359.381
  0
LINE
  8
APS_GEOMETRY
 10
-365.07
 11
-365.07
 20
-434.27
 21
-439.829
  0
ARC
  8
APS_GEOMETRY
 10
-363.383
 20
-439.829
 40
1.687
 50
180.0
 51
199.885
  0
ARC
  8
APS_GEOMETRY
 10
-364.645
 20
-440.286
 40
0.345
 50
199.885
 51
244.799
  0
ARC
  8
APS_GEOMETRY
 10
-363.92
 20
-438.791
 40
2.007
 50
244.231
 51
258.996
  0
ARC
  8
APS_GEOMETRY
 10
-363.615
 20
-437.222
 40
3.604
 50
258.996
 51
270.0
  0
ARC
  8
APS_GEOMETRY
 10
-363.615
 20
-437.602
 40
3.225
 50
270.0
 51
288.435
  0
ARC
  8
APS_GEOMETRY
 10
-363.383
 20
-438.296
 40
2.494
 50
288.435
 51
309.428
  0
ARC
  8
APS_GEOMETRY
 10
-363.299
 20
-438.383
 40
2.373
 50
309.193
 51
339.939
  0
ARC
  8
APS_GEOMETRY
 10
-366.234
 20
-437.311
 40
5.497
 50
339.939
 51
0.0
  0
ARC
  8
APS_GEOMETRY
 10
-365.911
 20
-437.311
 40
5.174
 50
360.0
 51
22.011
  0
ARC
  8
APS_GEOMETRY
 10
-363.618
 20
-436.384
 40
2.701
 50
22.011
 51
52.651
  0
ARC
  8
APS_GEOMETRY
 10
-363.654
 20
-436.409
 40
2.742
 50
52.374
 51
72.309
  0
ARC
  8
APS_GEOMETRY
 10
-363.876
 20
-437.107
 40
3.475
 50
72.309
 51
90.0
  0
ARC
  8
APS_GEOMETRY
 10
-363.876
 20
-435.658
 40
2.026
 50
90.0
 51
118.113
  0
ARC
  8
APS_GEOMETRY
 10
-364.618
 20
-434.27
 40
0.452
 50
118.113
 51
180.0
  0
ARC
  8
APS_GEOMETRY
 10
-338.701
 20
-442.762
 40
12.891
 50
71.91
 51
90.0
  0
ARC
  8
APS_GEOMETRY
 10
-338.202
 20
-441.234
 40
11.283
 50
52.561
 51
71.91
  0
ARC
  8
APS_GEOMETRY
 10
-338.333
 20
-441.272
 40
11.393
 50
38.846
 51
52.156
  0
ARC
  8
APS_GEOMETRY
 10
-340.119
 20
-442.71
 40
13.686
 50
26.707
 51
38.846
  0
ARC
  8
APS_GEOMETRY
 10
-339.765
 20
-442.421
 40
13.241
 50
13.868
 51
26.278
  0
ARC
  8
APS_GEOMETRY
 10
-337.215
 20
-441.792
 40
10.614
 50
360.0
 51
13.868
  0
ARC
  8
APS_GEOMETRY
 10
-337.05
 20
-441.792
 40
10.449
 50
339.712
 51
360.0
  0
ARC
  8
APS_GEOMETRY
 10
-337.638
 20
-441.574
 40
11.076
 50
320.013
 51
339.712
  0
ARC
  8
APS_GEOMETRY
 10
-337.736
 20
-441.52
 40
11.186
 50
303.344
 51
320.123
  0
ARC
  8
APS_GEOMETRY
 10
-338.884
 20
-439.776
 40
13.274
 50
287.949
 51
303.344
  0
ARC
  8
APS_GEOMETRY
 10
-339.261
 20
-438.468
 40
14.634
 50
279.039
 51
287.776
  0
ARC
  8
APS_GEOMETRY
 10
-339.11
 20
-439.418
 40
13.673
 50
270.0
 51
279.039
  0
ARC
  8
APS_GEOMETRY
 10
-339.11
 20
-440.085
 40
13.005
 50
257.728
 51
270.0
  0
ARC
  8
APS_GEOMETRY
 10
-339.089
 20
-439.991
 40
13.102
 50
245.501
 51
257.728
  0
ARC
  8
APS_GEOMETRY
 10
-339.826
 20
-441.602
 40
11.33
 50
228.665
 51
245.511
  0
ARC
  8
APS_GEOMETRY
 10
-340.071
 20
-441.881
 40
10.959
 50
211.535
 51
228.665
  0
ARC
  8
APS_GEOMETRY
 10
-339.75
 20
-441.645
 40
11.356
 50
195.642
 51
211.701
  0
ARC
  8
APS_GEOMETRY
 10
-339.163
 20
-441.481
 40
11.966
 50
180.0
 51
195.642
  0
ARC
  8
APS_GEOMETRY
 10
-339.037
 20
-441.481
 40
12.091
 50
162.181
 51
180.0
  0
ARC
  8
APS_GEOMETRY
 10
-340.14
 20
-441.126
 40
10.933
 50
143.434
 51
162.181
  0
ARC
  8
APS_GEOMETRY
 10
-340.289
 20
-441.007
 40
10.742
 50
126.384
 51
143.471
  0
ARC
  8
APS_GEOMETRY
 10
-339.272
 20
-442.388
 40
12.457
 50
110.525
 51
126.384
  0
ARC
  8
APS_GEOMETRY
 10
-339.322
 20
-442.013
 40
12.089
 50
99.77
 51
110.925
  0
ARC
  8
APS_GEOMETRY
 10
-338.701
 20
-445.619
 40
15.748
 50
90.0
 51
99.77
  0
ARC
  8
APS_GEOMETRY
 10
-340.254
 20
-436.968
 40
2.404
 50
90.0
 51
119.604
  0
ARC
  8
APS_GEOMETRY
 10
-340.044
 20
-437.338
 40
2.83
 50
119.604
 51
146.842
  0
ARC
  8
APS_GEOMETRY
 10
-339.621
 20
-437.685
 40
3.374
 50
145.84
 51
164.055
  0
ARC
  8
APS_GEOMETRY
 10
-338.64
 20
-437.965
 40
4.394
 50
164.055
 51
180.0
  0
ARC
  8
APS_GEOMETRY
 10
-332.508
 20
-437.965
 40
10.526
 50
180.0
 51
189.977
  0
ARC
  8
APS_GEOMETRY
 10
-323.182
 20
-436.325
 40
19.995
 50
189.977
 51
197.211
  0
ARC
  8
APS_GEOMETRY
 10
-321.142
 20
-435.693
 40
22.131
 50
197.211
 51
203.76
  0
ARC
  8
APS_GEOMETRY
 10
-326.224
 20
-437.93
 40
16.579
 50
203.76
 51
211.329
  0
ARC
  8
APS_GEOMETRY
 10
-336.658
 20
-444.192
 40
4.411
 50
212.32
 51
224.441
  0
ARC
  8
APS_GEOMETRY
 10
-337.086
 20
-444.611
 40
3.812
 50
224.441
 51
237.484
  0
ARC
  8
APS_GEOMETRY
 10
-337.362
 20
-445.045
 40
3.298
 50
237.484
 51
252.416
  0
ARC
  8
APS_GEOMETRY
 10
-337.638
 20
-445.916
 40
2.383
 50
252.416
 51
270.0
  0
ARC
  8
APS_GEOMETRY
 10
-337.638
 20
-445.634
 40
2.666
 50
270.0
 51
294.953
  0
ARC
  8
APS_GEOMETRY
 10
-337.564
 20
-445.794
 40
2.489
 50
294.953
 51
320.793
  0
ARC
  8
APS_GEOMETRY
 10
-337.964
 20
-445.468
 40
3.005
 50
320.793
 51
342.777
  0
ARC
  8
APS_GEOMETRY
 10
-339.748
 20
-444.915
 40
4.873
 50
342.777
 51
0.0
  0
ARC
  8
APS_GEOMETRY
 10
-348.128
 20
-444.915
 40
13.254
 50
0.0
 51
8.499
  0
ARC
  8
APS_GEOMETRY
 10
-353.962
 20
-445.786
 40
19.152
 50
8.499
 51
15.566
  0
ARC
  8
APS_GEOMETRY
 10
-353.261
 20
-445.591
 40
18.424
 50
15.566
 51
22.909
  0
ARC
  8
APS_GEOMETRY
 10
-347.229
 20
-443.042
 40
11.876
 50
22.909
 51
32.057
  0
ARC
  8
APS_GEOMETRY
 10
-342.491
 20
-440.057
 40
6.276
 50
31.921
 51
42.51
  0
ARC
  8
APS_GEOMETRY
 10
-341.19
 20
-438.865
 40
4.511
 50
42.51
 51
55.008
  0
ARC
  8
APS_GEOMETRY
 10
-340.75
 20
-438.237
 40
3.745
 50
55.008
 51
69.88
  0
ARC
  8
APS_GEOMETRY
 10
-340.356
 20
-437.161
 40
2.599
 50
69.88
 51
87.754
  0
ARC
  8
APS_GEOMETRY
 10
-313.444
 20
-444.473
 40
1.21
 50
90.0
 51
115.837
  0
ARC
  8
APS_GEOMETRY
 10
-313.742
 20
-443.858
 40
0.526
 50
115.837
 51
155.462
  0
ARC
  8
APS_GEOMETRY
 10
-313.394
 20
-444.017
 40
0.909
 50
155.462
 51
168.366
  0
ARC
  8
APS_GEOMETRY
 10
-310.221
 20
-444.67
 40
4.148
 50
168.366
 51
174.395
  0
ARC
  8
APS_GEOMETRY
 10
-307.024
 20
-444.984
 40
7.361
 50
174.395
 51
177.813
  0
ARC
  8
APS_GEOMETRY
 10
-296.409
 20
-445.389
 40
17.983
 50
177.813
 51
180.0
  0
ARC
  8
APS_GEOMETRY
 10
-288.725
 20
-445.389
 40
25.667
 50
180.0
 51
184.62
  0
ARC
  8
APS_GEOMETRY
 10
-305.935
 20
-446.78
 40
8.401
 50
184.62
 51
192.7
  0
ARC
  8
APS_GEOMETRY
 10
-312.57
 20
-448.236
 40
1.609
 50
194.036
 51
205.821
  0
ARC
  8
APS_GEOMETRY
 10
-313.273
 20
-448.576
 40
0.828
 50
205.821
 51
222.274
  0
ARC
  8
APS_GEOMETRY
 10
-313.058
 20
-448.381
 40
1.119
 50
222.274
 51
234.605
  0
ARC
  8
APS_GEOMETRY
 10
-310.627
 20
-444.96
 40
5.315
 50
234.605
 51
240.255
  0
ARC
  8
APS_GEOMETRY
 10
-314.322
 20
-451.498
 40
2.194
 50
34.592
 51
61.189
  0
ARC
  8
APS_GEOMETRY
 10
-313.597
 20
-450.998
 40
1.313
 50
360.0
 51
34.592
  0
ARC
  8
APS_GEOMETRY
 10
-313.553
 20
-450.998
 40
1.27
 50
318.231
 51
360.0
  0
ARC
  8
APS_GEOMETRY
 10
-314.402
 20
-450.239
 40
2.408
 50
288.227
 51
318.231
  0
ARC
  8
APS_GEOMETRY
 10
-315.282
 20
-447.565
 40
5.223
 50
280.377
 51
288.227
  0
ARC
  8
APS_GEOMETRY
 10
-316.817
 20
-439.183
 40
13.744
 50
275.541
 51
280.377
  0
ARC
  8
APS_GEOMETRY
 10
-317.479
 20
-432.365
 40
20.595
 50
272.304
 51
275.541
  0
ARC
  8
APS_GEOMETRY
 10
-318.284
 20
-412.347
 40
40.629
 50
270.0
 51
272.304
  0
ARC
  8
APS_GEOMETRY
 10
-318.284
 20
-429.076
 40
23.9
 50
262.811
 51
270.0
  0
ARC
  8
APS_GEOMETRY
 10
-320.429
 20
-446.079
 40
6.762
 50
249.274
 51
262.811
  0
ARC
  8
APS_GEOMETRY
 10
-321.778
 20
-449.644
 40
2.95
 50
221.379
 51
249.274
  0
ARC
  8
APS_GEOMETRY
 10
-322.961
 20
-450.687
 40
1.373
 50
180.0
 51
221.379
  0
ARC
  8
APS_GEOMETRY
 10
-322.97
 20
-450.687
 40
1.364
 50
164.055
 51
180.0
  0
ARC
  8
APS_GEOMETRY
 10
-323.539
 20
-450.524
 40
0.773
 50
142.815
 51
164.055
  0
ARC
  8
APS_GEOMETRY
 10
-323.181
 20
-450.796
 40
1.222
 50
129.007
 51
142.815
  0
ARC
  8
APS_GEOMETRY
 10
-318.785
 20
-456.223
 40
8.206
 50
123.69
 51
129.007
  0
ARC
  8
APS_GEOMETRY
 10
-325.023
 20
-446.837
 40
3.064
 50
303.389
 51
319.022
  0
ARC
  8
APS_GEOMETRY
 10
-324.194
 20
-447.557
 40
1.966
 50
319.022
 51
338.575
  0
ARC
  8
APS_GEOMETRY
 10
-325.304
 20
-447.121
 40
3.158
 50
338.575
 51
351.049
  0
ARC
  8
APS_GEOMETRY
 10
-338.707
 20
-445.01
 40
16.726
 50
351.049
 51
356.46
  0
ARC
  8
APS_GEOMETRY
 10
-334.289
 20
-445.178
 40
12.307
 50
355.972
 51
358.68
  0
ARC
  8
APS_GEOMETRY
 10
-479.384
 20
-441.835
 40
157.441
 50
358.68
 51
359.437
  0
LINE
  8
APS_GEOMETRY
 10
-321.951
 11
-321.936
 20
-443.382
 21
-440.926
  0
LINE
  8
APS_GEOMETRY
 10
-321.936
 11
-321.931
 20
-440.926
 21
-437.72
  0
ARC
  8
APS_GEOMETRY
 10
-359.835
 20
-437.72
 40
37.905
 50
360.0
 51
1.717
  0
ARC
  8
APS_GEOMETRY
 10
-339.551
 20
-437.112
 40
17.611
 50
1.717
 51
4.236
  0
ARC
  8
APS_GEOMETRY
 10
-332.936
 20
-436.622
 40
10.979
 50
4.236
 51
8.269
  0
ARC
  8
APS_GEOMETRY
 10
-325.325
 20
-435.516
 40
3.287
 50
8.269
 51
15.642
  0
ARC
  8
APS_GEOMETRY
 10
-324.015
 20
-435.149
 40
1.926
 50
15.642
 51
39.417
  0
ARC
  8
APS_GEOMETRY
 10
-323.985
 20
-435.125
 40
1.888
 50
39.417
 51
63.435
  0
ARC
  8
APS_GEOMETRY
 10
-320.585
 20
-428.08
 40
5.935
 50
236.874
 51
244.486
  0
ARC
  8
APS_GEOMETRY
 10
-323.114
 20
-431.957
 40
1.306
 50
220.601
 51
236.874
  0
ARC
  8
APS_GEOMETRY
 10
-323.404
 20
-432.205
 40
0.923
 50
198.246
 51
220.601
  0
ARC
  8
APS_GEOMETRY
 10
-322.97
 20
-432.062
 40
1.38
 50
180.0
 51
198.246
  0
ARC
  8
APS_GEOMETRY
 10
-322.977
 20
-432.062
 40
1.374
 50
156.161
 51
180.0
  0
ARC
  8
APS_GEOMETRY
 10
-322.785
 20
-432.147
 40
1.583
 50
133.977
 51
156.161
  0
ARC
  8
APS_GEOMETRY
 10
-322.404
 20
-432.542
 40
2.133
 50
116.996
 51
133.977
  0
ARC
  8
APS_GEOMETRY
 10
-321.645
 20
-434.031
 40
3.804
 50
104.3
 51
116.996
  0
ARC
  8
APS_GEOMETRY
 10
-321.449
 20
-434.784
 40
4.582
 50
95.326
 51
104.349
  0
ARC
  8
APS_GEOMETRY
 10
-320.655
 20
-443.301
 40
13.136
 50
90.0
 51
95.326
  0
ARC
  8
APS_GEOMETRY
 10
-320.655
 20
-436.672
 40
6.506
 50
87.553
 51
90.0
  0
ARC
  8
APS_GEOMETRY
 10
-322.04
 20
-469.066
 40
38.93
 50
86.553
 51
87.553
  0
ARC
  8
APS_GEOMETRY
 10
-324.008
 20
-501.739
 40
71.662
 50
86.009
 51
86.553
  0
ARC
  8
APS_GEOMETRY
 10
-331.662
 20
-611.446
 40
181.636
 50
85.668
 51
86.009
  0
ARC
  8
APS_GEOMETRY
 10
-317.338
 20
-422.79
 40
7.563
 50
265.426
 51
268.531
  0
ARC
  8
APS_GEOMETRY
 10
-316.665
 20
-396.569
 40
33.793
 50
268.531
 51
270.0
  0
ARC
  8
APS_GEOMETRY
 10
-316.665
 20
-404.606
 40
25.755
 50
270.0
 51
271.637
  0
ARC
  8
APS_GEOMETRY
 10
-317.241
 20
-384.464
 40
45.906
 50
271.637
 51
272.862
  0
ARC
  8
APS_GEOMETRY
 10
-317.902
 20
-371.249
 40
59.137
 50
272.862
 51
273.814
  0
ARC
  8
APS_GEOMETRY
 10
-320.138
 20
-337.697
 40
92.764
 50
273.814
 51
274.574
  0
ARC
  8
APS_GEOMETRY
 10
-306.107
 20
-520.193
 40
90.271
 50
93.72
 51
94.214
  0
ARC
  8
APS_GEOMETRY
 10
-309.102
 20
-474.134
 40
44.115
 50
93.013
 51
93.72
  0
ARC
  8
APS_GEOMETRY
 10
-309.923
 20
-458.536
 40
28.496
 50
91.918
 51
93.013
  0
ARC
  8
APS_GEOMETRY
 10
-310.566
 20
-439.328
 40
9.277
 50
90.0
 51
91.918
  0
ARC
  8
APS_GEOMETRY
 10
-310.566
 20
-442.105
 40
12.054
 50
73.82
 51
90.0
  0
ARC
  8
APS_GEOMETRY
 10
-309.378
 20
-438.01
 40
7.791
 50
53.658
 51
73.82
  0
ARC
  8
APS_GEOMETRY
 10
-307.688
 20
-435.701
 40
4.929
 50
26.03
 51
53.569
  0
ARC
  8
APS_GEOMETRY
 10
-308.207
 20
-435.954
 40
5.506
 50
360.0
 51
26.03
  0
ARC
  8
APS_GEOMETRY
 10
-308.423
 20
-435.954
 40
5.722
 50
345.282
 51
360.0
  0
ARC
  8
APS_GEOMETRY
 10
-307.872
 20
-436.099
 40
5.152
 50
329.767
 51
345.282
  0
ARC
  8
APS_GEOMETRY
 10
-307.56
 20
-436.28
 40
4.792
 50
313.168
 51
329.767
  0
ARC
  8
APS_GEOMETRY
 10
-307.445
 20
-436.403
 40
4.623
 50
296.267
 51
313.168
  0
ARC
  8
APS_GEOMETRY
 10
-304.813
 20
-441.72
 40
1.31
 50
116.565
 51
139.899
  0
ARC
  8
APS_GEOMETRY
 10
-305.467
 20
-441.17
 40
0.456
 50
139.899
 51
180.0
  0
ARC
  8
APS_GEOMETRY
 10
-305.416
 20
-441.17
 40
0.506
 50
180.0
 51
226.193
  0
ARC
  8
APS_GEOMETRY
 10
-304.481
 20
-440.195
 40
1.858
 50
226.193
 51
249.829
  0
ARC
  8
APS_GEOMETRY
 10
-307.161
 20
-447.575
 40
5.995
 50
53.249
 51
70.105
  0
ARC
  8
APS_GEOMETRY
 10
-305.943
 20
-445.945
 40
3.96
 50
32.471
 51
53.249
  0
ARC
  8
APS_GEOMETRY
 10
-306.511
 20
-446.306
 40
4.632
 50
23.305
 51
32.471
  0
ARC
  8
APS_GEOMETRY
 10
-310.016
 20
-447.816
 40
8.449
 50
16.521
 51
23.305
  0
ARC
  8
APS_GEOMETRY
 10
-312.749
 20
-448.626
 40
11.299
 50
11.429
 51
16.521
  0
ARC
  8
APS_GEOMETRY
 10
-320.494
 20
-450.192
 40
19.201
 50
7.524
 51
11.429
  0
ARC
  8
APS_GEOMETRY
 10
-294.83
 20
-446.774
 40
6.69
 50
187.765
 51
196.914
  0
ARC
  8
APS_GEOMETRY
 10
-300.301
 20
-448.438
 40
0.971
 50
196.914
 51
221.082
  0
ARC
  8
APS_GEOMETRY
 10
-300.28
 20
-448.42
 40
0.999
 50
221.082
 51
244.607
  0
ARC
  8
APS_GEOMETRY
 10
-297.944
 20
-443.497
 40
6.448
 50
244.607
 51
253.811
  0
ARC
  8
APS_GEOMETRY
 10
-299.998
 20
-450.502
 40
0.852
 50
51.45
 51
72.474
  0
ARC
  8
APS_GEOMETRY
 10
-300.209
 20
-450.767
 40
1.191
 50
33.69
 51
51.45
  0
ARC
  8
APS_GEOMETRY
 10
-300.258
 20
-450.8
 40
1.25
 50
16.639
 51
33.69
  0
ARC
  8
APS_GEOMETRY
 10
-300.318
 20
-450.818
 40
1.312
 50
360.0
 51
16.639
  0
ARC
  8
APS_GEOMETRY
 10
-300.336
 20
-450.818
 40
1.331
 50
338.993
 51
360.0
  0
ARC
  8
APS_GEOMETRY
 10
-301.149
 20
-450.506
 40
2.201
 50
322.696
 51
338.993
  0
ARC
  8
APS_GEOMETRY
 10
-301.452
 20
-450.275
 40
2.582
 50
308.603
 51
322.696
  0
ARC
  8
APS_GEOMETRY
 10
-301.66
 20
-450.014
 40
2.916
 50
295.346
 51
308.603
  0
ARC
  8
APS_GEOMETRY
 10
-302.756
 20
-447.601
 40
5.566
 50
279.583
 51
294.905
  0
ARC
  8
APS_GEOMETRY
 10
-304.189
 20
-439.11
 40
14.176
 50
270.0
 51
279.583
  0
ARC
  8
APS_GEOMETRY
 10
-304.189
 20
-442.951
 40
10.336
 50
261.247
 51
270.0
  0
ARC
  8
APS_GEOMETRY
 10
-304.851
 20
-447.251
 40
5.985
 50
249.737
 51
261.247
  0
ARC
  8
APS_GEOMETRY
 10
-305.286
 20
-448.43
 40
4.728
 50
235.345
 51
249.737
  0
ARC
  8
APS_GEOMETRY
 10
-305.836
 20
-449.225
 40
3.762
 50
219.198
 51
235.345
  0
ARC
  8
APS_GEOMETRY
 10
-304.679
 20
-448.239
 40
5.281
 50
209.076
 51
219.56
  0
ARC
  8
APS_GEOMETRY
 10
-302.009
 20
-446.754
 40
8.337
 50
200.735
 51
209.076
  0
ARC
  8
APS_GEOMETRY
 10
-298.324
 20
-445.359
 40
12.277
 50
197.881
 51
200.735
  0
ARC
  8
APS_GEOMETRY
 10
-283.184
 20
-440.474
 40
28.186
 50
195.997
 51
197.881
  0
ARC
  8
APS_GEOMETRY
 10
-271.993
 20
-437.266
 40
39.828
 50
194.664
 51
195.997
  0
ARC
  8
APS_GEOMETRY
 10
-240.995
 20
-429.155
 40
71.869
 50
193.671
 51
194.664
  0
ARC
  8
APS_GEOMETRY
 10
-319.6
 20
-448.265
 40
9.026
 50
13.61
 51
23.585
  0
ARC
  8
APS_GEOMETRY
 10
-313.69
 20
-445.685
 40
2.577
 50
23.585
 51
42.31
  0
ARC
  8
APS_GEOMETRY
 10
-313.154
 20
-445.197
 40
1.853
 50
42.31
 51
67.521
  0
ARC
  8
APS_GEOMETRY
 10
-313.579
 20
-446.222
 40
2.962
 50
67.521
 51
87.397
  0
LINE
  8
APS_GEOMETRY
 10
-314.376
 11
-314.556
 20
-434.924
 21
-438.734
  0
LINE
  8
APS_GEOMETRY
 10
-314.556
 11
-314.556
 20
-438.734
 21
-438.795
  0
LINE
  8
APS_GEOMETRY
 10
-314.556
 11
-314.556
 20
-438.795
 21
-438.881
  0
ARC
  8
APS_GEOMETRY
 10
-311.909
 20
-438.881
 40
2.647
 50
180.0
 51
192.339
  0
ARC
  8
APS_GEOMETRY
 10
-314.014
 20
-439.341
 40
0.493
 50
192.339
 51
221.186
  0
ARC
  8
APS_GEOMETRY
 10
-314.064
 20
-439.385
 40
0.426
 50
221.186
 51
253.872
  0
ARC
  8
APS_GEOMETRY
 10
-313.706
 20
-438.147
 40
1.715
 50
253.872
 51
270.0
  0
ARC
  8
APS_GEOMETRY
 10
-313.706
 20
-435.877
 40
3.985
 50
270.0
 51
289.569
  0
ARC
  8
APS_GEOMETRY
 10
-312.981
 20
-437.915
 40
1.822
 50
289.569
 51
318.681
  0
ARC
  8
APS_GEOMETRY
 10
-313.177
 20
-437.743
 40
2.083
 50
318.681
 51
344.628
  0
ARC
  8
APS_GEOMETRY
 10
-316.829
 20
-436.739
 40
5.87
 50
344.628
 51
0.0
  0
ARC
  8
APS_GEOMETRY
 10
-315.093
 20
-436.739
 40
4.134
 50
0.0
 51
35.369
  0
ARC
  8
APS_GEOMETRY
 10
-313.199
 20
-435.394
 40
1.812
 50
35.369
 51
90.0
  0
ARC
  8
APS_GEOMETRY
 10
-313.199
 20
-435.414
 40
1.831
 50
90.0
 51
108.435
  0
ARC
  8
APS_GEOMETRY
 10
-313.555
 20
-434.345
 40
0.705
 50
108.435
 51
138.366
  0
ARC
  8
APS_GEOMETRY
 10
-313.46
 20
-434.43
 40
0.833
 50
138.366
 51
164.291
  0
ARC
  8
APS_GEOMETRY
 10
-311.217
 20
-435.061
 40
3.162
 50
164.291
 51
177.51
  0
LINE
  8
APS_GEOMETRY
 10
-289.119
 11
-280.502
 20
-430.329
 21
-430.329
  0
ARC
  8
APS_GEOMETRY
 10
-280.938
 20
-417.981
 40
12.355
 50
272.021
 51
278.44
  0
ARC
  8
APS_GEOMETRY
 10
-280.451
 20
-421.259
 40
9.042
 50
278.44
 51
285.945
  0
ARC
  8
APS_GEOMETRY
 10
-276.793
 20
-434.358
 40
4.559
 50
98.584
 51
104.931
  0
ARC
  8
APS_GEOMETRY
 10
-277.101
 20
-432.317
 40
2.495
 50
90.0
 51
98.584
  0
ARC
  8
APS_GEOMETRY
 10
-277.101
 20
-431.698
 40
1.876
 50
52.871
 51
90.0
  0
ARC
  8
APS_GEOMETRY
 10
-279.645
 20
-435.058
 40
6.091
 50
32.518
 51
52.871
  0
ARC
  8
APS_GEOMETRY
 10
-281.661
 20
-436.343
 40
8.481
 50
17.209
 51
32.518
  0
ARC
  8
APS_GEOMETRY
 10
-279.981
 20
-435.823
 40
6.723
 50
360.0
 51
17.209
  0
ARC
  8
APS_GEOMETRY
 10
-276.617
 20
-435.823
 40
3.359
 50
337.348
 51
360.0
  0
ARC
  8
APS_GEOMETRY
 10
-275.267
 20
-436.386
 40
1.896
 50
307.042
 51
337.348
  0
ARC
  8
APS_GEOMETRY
 10
-275.502
 20
-436.064
 40
2.295
 50
287.186
 51
306.87
  0
ARC
  8
APS_GEOMETRY
 10
-275.711
 20
-435.387
 40
3.003
 50
270.0
 51
287.186
  0
ARC
  8
APS_GEOMETRY
 10
-275.711
 20
-435.694
 40
2.697
 50
252.221
 51
270.0
  0
ARC
  8
APS_GEOMETRY
 10
-275.836
 20
-436.085
 40
2.286
 50
232.896
 51
252.221
  0
ARC
  8
APS_GEOMETRY
 10
-275.351
 20
-435.444
 40
3.09
 50
218.3
 51
232.896
  0
ARC
  8
APS_GEOMETRY
 10
-271.561
 20
-432.45
 40
7.92
 50
209.197
 51
218.3
  0
ARC
  8
APS_GEOMETRY
 10
-290.838
 20
-442.894
 40
14.006
 50
28.025
 51
32.699
  0
ARC
  8
APS_GEOMETRY
 10
-280.76
 20
-436.424
 40
2.03
 50
32.699
 51
45.0
  0
ARC
  8
APS_GEOMETRY
 10
-280.073
 20
-435.737
 40
1.058
 50
45.0
 51
67.557
  0
ARC
  8
APS_GEOMETRY
 10
-280.077
 20
-435.747
 40
1.069
 50
67.557
 51
90.0
  0
ARC
  8
APS_GEOMETRY
 10
-280.077
 20
-435.663
 40
0.984
 50
90.0
 51
120.801
  0
ARC
  8
APS_GEOMETRY
 10
-280.11
 20
-435.607
 40
0.919
 50
120.801
 51
152.7
  0
ARC
  8
APS_GEOMETRY
 10
-279.381
 20
-435.984
 40
1.74
 50
152.7
 51
171.085
  0
ARC
  8
APS_GEOMETRY
 10
-273.836
 20
-436.853
 40
7.353
 50
171.085
 51
180.0
  0
LINE
  8
APS_GEOMETRY
 10
-281.189
 11
-281.189
 20
-436.853
 21
-446.01
  0
ARC
  8
APS_GEOMETRY
 10
-271.475
 20
-446.01
 40
9.714
 50
180.0
 51
188.194
  0
ARC
  8
APS_GEOMETRY
 10
-278.729
 20
-447.055
 40
2.385
 50
188.194
 51
204.775
  0
ARC
  8
APS_GEOMETRY
 10
-279.434
 20
-447.38
 40
1.609
 50
204.775
 51
228.576
  0
ARC
  8
APS_GEOMETRY
 10
-278.773
 20
-446.631
 40
2.608
 50
228.576
 51
247.218
  0
ARC
  8
APS_GEOMETRY
 10
-282.607
 20
-455.667
 40
7.208
 50
59.381
 51
66.93
  0
ARC
  8
APS_GEOMETRY
 10
-279.776
 20
-450.884
 40
1.65
 50
43.568
 51
59.381
  0
ARC
  8
APS_GEOMETRY
 10
-279.324
 20
-450.453
 40
1.025
 50
19.041
 51
43.568
  0
ARC
  8
APS_GEOMETRY
 10
-279.953
 20
-450.671
 40
1.691
 50
360.0
 51
19.041
  0
ARC
  8
APS_GEOMETRY
 10
-279.635
 20
-450.671
 40
1.374
 50
317.66
 51
360.0
  0
ARC
  8
APS_GEOMETRY
 10
-280.897
 20
-449.521
 40
3.08
 50
289.747
 51
317.66
  0
ARC
  8
APS_GEOMETRY
 10
-281.953
 20
-446.579
 40
6.206
 50
281.964
 51
289.747
  0
ARC
  8
APS_GEOMETRY
 10
-283.416
 20
-439.673
 40
13.265
 50
276.643
 51
281.964
  0
ARC
  8
APS_GEOMETRY
 10
-284.032
 20
-434.385
 40
18.589
 50
272.836
 51
276.643
  0
ARC
  8
APS_GEOMETRY
 10
-284.77
 20
-419.497
 40
33.495
 50
270.0
 51
272.836
  0
ARC
  8
APS_GEOMETRY
 10
-284.77
 20
-410.272
 40
42.72
 50
267.283
 51
270.0
  0
ARC
  8
APS_GEOMETRY
 10
-285.667
 20
-429.174
 40
23.797
 50
263.643
 51
267.283
  0
ARC
  8
APS_GEOMETRY
 10
-286.418
 20
-435.916
 40
17.014
 50
258.563
 51
263.643
  0
ARC
  8
APS_GEOMETRY
 10
-288.212
 20
-444.785
 40
7.964
 50
251.136
 51
258.563
  0
ARC
  8
APS_GEOMETRY
 10
-289.814
 20
-449.432
 40
3.05
 50
222.558
 51
251.395
  0
ARC
  8
APS_GEOMETRY
 10
-291.003
 20
-450.523
 40
1.436
 50
180.0
 51
222.558
  0
ARC
  8
APS_GEOMETRY
 10
-291.243
 20
-450.523
 40
1.196
 50
150.642
 51
180.0
  0
ARC
  8
APS_GEOMETRY
 10
-291.147
 20
-450.577
 40
1.306
 50
122.574
 51
150.642
  0
ARC
  8
APS_GEOMETRY
 10
-291.4
 20
-450.286
 40
0.926
 50
108.677
 51
119.055
  0
ARC
  8
APS_GEOMETRY
 10
-279.843
 20
-484.478
 40
37.018
 50
107.038
 51
108.677
  0
ARC
  8
APS_GEOMETRY
 10
-291.12
 20
-447.596
 40
1.549
 50
286.144
 51
308.66
  0
ARC
  8
APS_GEOMETRY
 10
-290.866
 20
-447.913
 40
1.143
 50
308.66
 51
334.933
  0
ARC
  8
APS_GEOMETRY
 10
-291.899
 20
-447.43
 40
2.283
 50
334.933
 51
348.829
  0
ARC
  8
APS_GEOMETRY
 10
-304.811
 20
-444.88
 40
15.445
 50
348.829
 51
354.161
  0
ARC
  8
APS_GEOMETRY
 10
-313.539
 20
-443.981
 40
24.219
 50
354.144
 51
355.66
  0
ARC
  8
APS_GEOMETRY
 10
-352.228
 20
-441.045
 40
63.019
 50
355.66
 51
356.6
  0
ARC
  8
APS_GEOMETRY
 10
-381.802
 20
-439.288
 40
92.646
 50
356.6
 51
357.24
  0
ARC
  8
APS_GEOMETRY
 10
-465.715
 20
-435.242
 40
176.656
 50
357.24
 51
357.703
  0
ARC
  8
APS_GEOMETRY
 10
-457.454
 20
-435.574
 40
168.389
 50
357.703
 51
358.674
  0
ARC
  8
APS_GEOMETRY
 10
-379.538
 20
-437.377
 40
90.452
 50
358.674
 51
0.0
  0
ARC
  8
APS_GEOMETRY
 10
-302.492
 20
-437.377
 40
13.405
 50
360.0
 51
6.242
  0
ARC
  8
APS_GEOMETRY
 10
-291.832
 20
-436.211
 40
2.682
 50
6.242
 51
20.225
  0
ARC
  8
APS_GEOMETRY
 10
-290.355
 20
-435.666
 40
1.107
 50
20.225
 51
50.44
  0
ARC
  8
APS_GEOMETRY
 10
-290.068
 20
-435.319
 40
0.657
 50
50.44
 51
90.0
  0
ARC
  8
APS_GEOMETRY
 10
-290.068
 20
-435.543
 40
0.881
 50
90.0
 51
126.747
  0
ARC
  8
APS_GEOMETRY
 10
-288.823
 20
-437.211
 40
2.962
 50
126.747
 51
146.547
  0
ARC
  8
APS_GEOMETRY
 10
-310.817
 20
-422.754
 40
23.357
 50
324.255
 51
326.701
  0
ARC
  8
APS_GEOMETRY
 10
-301.505
 20
-429.456
 40
11.885
 50
320.826
 51
324.255
  0
ARC
  8
APS_GEOMETRY
 10
-298.462
 20
-431.936
 40
7.959
 50
315.722
 51
320.826
  0
ARC
  8
APS_GEOMETRY
 10
-294.965
 20
-435.346
 40
3.075
 50
307.504
 51
315.722
  0
ARC
  8
APS_GEOMETRY
 10
-295.287
 20
-434.915
 40
3.613
 50
291.306
 51
307.405
  0
ARC
  8
APS_GEOMETRY
 10
-294.728
 20
-436.35
 40
2.073
 50
270.0
 51
291.306
  0
ARC
  8
APS_GEOMETRY
 10
-294.728
 20
-436.484
 40
1.939
 50
245.532
 51
270.0
  0
ARC
  8
APS_GEOMETRY
 10
-294.743
 20
-436.516
 40
1.904
 50
220.833
 51
245.532
  0
ARC
  8
APS_GEOMETRY
 10
-294.546
 20
-436.346
 40
2.164
 50
198.684
 51
220.833
  0
ARC
  8
APS_GEOMETRY
 10
-293.725
 20
-436.068
 40
3.03
 50
180.0
 51
198.684
  0
ARC
  8
APS_GEOMETRY
 10
-291.802
 20
-436.068
 40
4.954
 50
168.408
 51
180.0
  0
ARC
  8
APS_GEOMETRY
 10
-288.625
 20
-436.72
 40
8.196
 50
159.402
 51
168.408
  0
ARC
  8
APS_GEOMETRY
 10
-287.644
 20
-437.089
 40
9.245
 50
151.39
 51
159.402
  0
ARC
  8
APS_GEOMETRY
 10
-287.845
 20
-436.979
 40
9.016
 50
143.276
 51
151.39
  0
ARC
  8
APS_GEOMETRY
 10
-290.37
 20
-435.091
 40
5.863
 50
124.216
 51
143.31
  0
ARC
  8
APS_GEOMETRY
 10
-292.619
 20
-431.784
 40
1.864
 50
90.0
 51
124.216
  0
ARC
  8
APS_GEOMETRY
 10
-292.619
 20
-432.612
 40
2.692
 50
82.725
 51
90.0
  0
ARC
  8
APS_GEOMETRY
 10
-292.829
 20
-434.26
 40
4.353
 50
77.005
 51
82.725
  0
ARC
  8
APS_GEOMETRY
 10
-286.405
 20
-403.287
 40
27.28
 50
258.486
 51
260.378
  0
ARC
  8
APS_GEOMETRY
 10
-289.157
 20
-419.519
 40
10.816
 50
260.378
 51
263.382
  0
ARC
  8
APS_GEOMETRY
 10
-289.392
 20
-421.548
 40
8.774
 50
263.382
 51
267.084
  0
ARC
  8
APS_GEOMETRY
 10
-289.119
 20
-416.192
 40
14.137
 50
267.084
 51
270.0
  0
LINE
  8
APS_GEOMETRY
 10
-267.411
 11
-259.006
 20
-430.329
 21
-430.329
  0
ARC
  8
APS_GEOMETRY
 10
-259.006
 20
-324.469
 40
105.86
 50
270.0
 51
270.69
  0
ARC
  8
APS_GEOMETRY
 10
-258.409
 20
-373.997
 40
56.328
 50
270.69
 51
271.637
  0
ARC
  8
APS_GEOMETRY
 10
-257.906
 20
-391.594
 40
38.724
 50
271.637
 51
273.013
  0
ARC
  8
APS_GEOMETRY
 10
-256.681
 20
-414.876
 40
15.41
 50
273.013
 51
275.194
  0
ARC
  8
APS_GEOMETRY
 10
-256.377
 20
-418.216
 40
12.056
 50
275.194
 51
280.756
  0
ARC
  8
APS_GEOMETRY
 10
-256.32
 20
-418.517
 40
11.75
 50
280.756
 51
286.39
  0
ARC
  8
APS_GEOMETRY
 10
-252.013
 20
-433.259
 40
3.609
 50
100.305
 51
105.945
  0
ARC
  8
APS_GEOMETRY
 10
-252.465
 20
-430.774
 40
1.083
 50
90.0
 51
100.305
  0
ARC
  8
APS_GEOMETRY
 10
-252.465
 20
-431.161
 40
1.47
 50
58.946
 51
90.0
  0
ARC
  8
APS_GEOMETRY
 10
-253.027
 20
-432.095
 40
2.56
 50
35.538
 51
58.946
  0
ARC
  8
APS_GEOMETRY
 10
-255.222
 20
-433.709
 40
5.284
 50
16.699
 51
35.952
  0
ARC
  8
APS_GEOMETRY
 10
-256.872
 20
-434.204
 40
7.007
 50
360.0
 51
16.699
  0
ARC
  8
APS_GEOMETRY
 10
-253.797
 20
-434.204
 40
3.932
 50
344.982
 51
360.0
  0
ARC
  8
APS_GEOMETRY
 10
-251.91
 20
-434.711
 40
1.978
 50
323.746
 51
344.982
  0
ARC
  8
APS_GEOMETRY
 10
-251.491
 20
-435.018
 40
1.458
 50
296.114
 51
323.746
  0
ARC
  8
APS_GEOMETRY
 10
-251.566
 20
-434.865
 40
1.629
 50
270.0
 51
296.114
  0
ARC
  8
APS_GEOMETRY
 10
-251.566
 20
-434.451
 40
2.042
 50
255.311
 51
270.0
  0
ARC
  8
APS_GEOMETRY
 10
-251.839
 20
-435.493
 40
0.965
 50
233.881
 51
255.311
  0
ARC
  8
APS_GEOMETRY
 10
-251.552
 20
-435.099
 40
1.453
 50
219.289
 51
233.881
  0
ARC
  8
APS_GEOMETRY
 10
-245.786
 20
-430.382
 40
8.902
 50
213.408
 51
219.289
  0
ARC
  8
APS_GEOMETRY
 10
-256.587
 20
-437.496
 40
4.031
 50
33.294
 51
51.246
  0
ARC
  8
APS_GEOMETRY
 10
-256.038
 20
-436.813
 40
3.154
 50
51.246
 51
71.565
  0
ARC
  8
APS_GEOMETRY
 10
-256.401
 20
-437.901
 40
4.302
 50
71.565
 51
79.278
  0
ARC
  8
APS_GEOMETRY
 10
-257.565
 20
-444.049
 40
10.559
 50
79.278
 51
84.2
  0
ARC
  8
APS_GEOMETRY
 10
-258.062
 20
-448.938
 40
15.473
 50
84.2
 51
87.567
  0
ARC
  8
APS_GEOMETRY
 10
-258.663
 20
-463.077
 40
29.625
 50
87.567
 51
90.0
  0
ARC
  8
APS_GEOMETRY
 10
-258.663
 20
-441.78
 40
8.328
 50
90.0
 51
96.374
  0
ARC
  8
APS_GEOMETRY
 10
-259.215
 20
-436.832
 40
3.349
 50
96.374
 51
106.434
  0
ARC
  8
APS_GEOMETRY
 10
-259.608
 20
-435.5
 40
1.961
 50
106.434
 51
123.056
  0
ARC
  8
APS_GEOMETRY
 10
-260.221
 20
-434.558
 40
0.836
 50
123.056
 51
148.627
  0
ARC
  8
APS_GEOMETRY
 10
-259.661
 20
-434.875
 40
1.48
 50
149.421
 51
165.28
  0
ARC
  8
APS_GEOMETRY
 10
-258.047
 20
-435.3
 40
3.149
 50
165.28
 51
176.135
  0
ARC
  8
APS_GEOMETRY
 10
-253.426
 20
-435.612
 40
7.781
 50
176.135
 51
178.367
  0
ARC
  8
APS_GEOMETRY
 10
-210.673
 20
-436.831
 40
50.551
 50
178.367
 51
179.242
  0
ARC
  8
APS_GEOMETRY
 10
-166.488
 20
-437.415
 40
94.739
 50
179.242
 51
179.709
  0
ARC
  8
APS_GEOMETRY
 10
-16.164
 20
-438.178
 40
245.066
 50
179.709
 51
180.0
  0
ARC
  8
APS_GEOMETRY
 10
-257.684
 20
-438.178
 40
3.545
 50
180.0
 51
195.027
  0
ARC
  8
APS_GEOMETRY
 10
-260.584
 20
-438.956
 40
0.543
 50
195.027
 51
234.058
  0
ARC
  8
APS_GEOMETRY
 10
-260.556
 20
-438.917
 40
0.591
 50
234.058
 51
253.191
  0
ARC
  8
APS_GEOMETRY
 10
-259.937
 20
-436.869
 40
2.731
 50
253.191
 51
262.063
  0
ARC
  8
APS_GEOMETRY
 10
-259.62
 20
-434.597
 40
5.025
 50
262.063
 51
266.949
  0
ARC
  8
APS_GEOMETRY
 10
-259.202
 20
-426.756
 40
12.877
 50
266.949
 51
270.0
  0
ARC
  8
APS_GEOMETRY
 10
-259.202
 20
-437.272
 40
2.361
 50
270.0
 51
286.007
  0
ARC
  8
APS_GEOMETRY
 10
-258.789
 20
-438.713
 40
0.862
 50
286.007
 51
312.647
  0
ARC
  8
APS_GEOMETRY
 10
-258.798
 20
-438.703
 40
0.875
 50
312.647
 51
338.993
  0
ARC
  8
APS_GEOMETRY
 10
-260.585
 20
-438.017
 40
2.79
 50
338.993
 51
353.66
  0
ARC
  8
APS_GEOMETRY
 10
-242.125
 20
-440.218
 40
15.801
 50
169.663
 51
173.118
  0
ARC
  8
APS_GEOMETRY
 10
-255.32
 20
-437.812
 40
2.388
 50
160.769
 51
169.663
  0
ARC
  8
APS_GEOMETRY
 10
-256.424
 20
-437.427
 40
1.219
 50
143.746
 51
160.769
  0
ARC
  8
APS_GEOMETRY
 10
-256.157
 20
-437.622
 40
1.55
 50
128.66
 51
143.746
  0
ARC
  8
APS_GEOMETRY
 10
-256.335
 20
-437.334
 40
1.215
 50
110.171
 51
130.601
  0
ARC
  8
APS_GEOMETRY
 10
-256.324
 20
-437.363
 40
1.246
 50
90.0
 51
110.171
  0
ARC
  8
APS_GEOMETRY
 10
-256.324
 20
-437.381
 40
1.264
 50
61.22
 51
90.0
  0
ARC
  8
APS_GEOMETRY
 10
-256.545
 20
-437.782
 40
1.722
 50
36.634
 51
61.22
  0
ARC
  8
APS_GEOMETRY
 10
-256.752
 20
-437.905
 40
1.961
 50
19.103
 51
35.91
  0
ARC
  8
APS_GEOMETRY
 10
-263.149
 20
-440.121
 40
8.732
 50
11.16
 51
19.103
  0
ARC
  8
APS_GEOMETRY
 10
-266.492
 20
-440.781
 40
12.139
 50
5.396
 51
11.16
  0
ARC
  8
APS_GEOMETRY
 10
-268.192
 20
-440.941
 40
13.846
 50
0.0
 51
5.396
  0
ARC
  8
APS_GEOMETRY
 10
-267.951
 20
-440.941
 40
13.605
 50
349.287
 51
0.0
  0
ARC
  8
APS_GEOMETRY
 10
-261.272
 20
-442.205
 40
6.808
 50
334.12
 51
349.287
  0
ARC
  8
APS_GEOMETRY
 10
-256.671
 20
-444.428
 40
1.698
 50
303.53
 51
333.853
  0
ARC
  8
APS_GEOMETRY
 10
-256.504
 20
-444.68
 40
1.396
 50
270.0
 51
303.53
  0
ARC
  8
APS_GEOMETRY
 10
-256.504
 20
-444.615
 40
1.461
 50
249.578
 51
270.0
  0
ARC
  8
APS_GEOMETRY
 10
-256.815
 20
-445.45
 40
0.57
 50
216.607
 51
249.578
  0
ARC
  8
APS_GEOMETRY
 10
-256.518
 20
-445.229
 40
0.94
 50
195.422
 51
216.607
  0
ARC
  8
APS_GEOMETRY
 10
-251.387
 20
-443.813
 40
6.263
 50
187.253
 51
195.422
  0
ARC
  8
APS_GEOMETRY
 10
-259.673
 20
-444.879
 40
2.092
 50
7.561
 51
49.434
  0
ARC
  8
APS_GEOMETRY
 10
-259.758
 20
-444.979
 40
2.222
 50
49.434
 51
90.0
  0
ARC
  8
APS_GEOMETRY
 10
-259.758
 20
-444.252
 40
1.495
 50
90.0
 51
115.224
  0
ARC
  8
APS_GEOMETRY
 10
-260.054
 20
-443.624
 40
0.801
 50
115.224
 51
149.931
  0
ARC
  8
APS_GEOMETRY
 10
-259.519
 20
-443.933
 40
1.419
 50
149.931
 51
171.111
  0
ARC
  8
APS_GEOMETRY
 10
-253.035
 20
-444.947
 40
7.982
 50
171.111
 51
180.0
  0
ARC
  8
APS_GEOMETRY
 10
-246.648
 20
-444.947
 40
14.369
 50
180.0
 51
183.062
  0
ARC
  8
APS_GEOMETRY
 10
-224.654
 20
-443.771
 40
36.395
 50
183.062
 51
184.986
  0
ARC
  8
APS_GEOMETRY
 10
-236.19
 20
-444.777
 40
24.815
 50
184.986
 51
187.804
  0
ARC
  8
APS_GEOMETRY
 10
-258.041
 20
-447.772
 40
2.76
 50
187.804
 51
196.26
  0
ARC
  8
APS_GEOMETRY
 10
-259.968
 20
-448.352
 40
0.748
 50
194.931
 51
230.024
  0
ARC
  8
APS_GEOMETRY
 10
-259.477
 20
-447.767
 40
1.511
 50
230.024
 51
254.511
  0
ARC
  8
APS_GEOMETRY
 10
-258.881
 20
-445.617
 40
3.742
 50
254.511
 51
265.219
  0
ARC
  8
APS_GEOMETRY
 10
-257.632
 20
-430.683
 40
18.728
 50
265.219
 51
270.0
  0
ARC
  8
APS_GEOMETRY
 10
-257.632
 20
-432.663
 40
16.748
 50
270.0
 51
274.186
  0
ARC
  8
APS_GEOMETRY
 10
-257.123
 20
-439.621
 40
9.771
 50
274.186
 51
279.668
  0
ARC
  8
APS_GEOMETRY
 10
-256.705
 20
-442.075
 40
7.282
 50
279.668
 51
286.991
  0
ARC
  8
APS_GEOMETRY
 10
-255.749
 20
-445.205
 40
4.009
 50
286.991
 51
296.866
  0
ARC
  8
APS_GEOMETRY
 10
-255.55
 20
-445.598
 40
3.569
 50
296.866
 51
318.366
  0
ARC
  8
APS_GEOMETRY
 10
-257.549
 20
-443.82
 40
6.245
 50
318.366
 51
334.581
  0
ARC
  8
APS_GEOMETRY
 10
-244.385
 20
-450.133
 40
8.355
 50
147.08
 51
154.231
  0
ARC
  8
APS_GEOMETRY
 10
-249.888
 20
-446.57
 40
1.8
 50
131.634
 51
147.08
  0
ARC
  8
APS_GEOMETRY
 10
-250.298
 20
-446.109
 40
1.182
 50
108.875
 51
131.634
  0
ARC
  8
APS_GEOMETRY
 10
-250.127
 20
-446.61
 40
1.712
 50
90.0
 51
108.875
  0
ARC
  8
APS_GEOMETRY
 10
-250.127
 20
-446.262
 40
1.364
 50
62.628
 51
90.0
  0
ARC
  8
APS_GEOMETRY
 10
-250.213
 20
-446.429
 40
1.551
 50
36.995
 51
62.628
  0
ARC
  8
APS_GEOMETRY
 10
-250.6
 20
-446.72
 40
2.036
 50
16.728
 51
36.995
  0
ARC
  8
APS_GEOMETRY
 10
-251.503
 20
-446.991
 40
2.978
 50
360.0
 51
16.728
  0
ARC
  8
APS_GEOMETRY
 10
-253.29
 20
-446.991
 40
4.766
 50
348.323
 51
360.0
  0
ARC
  8
APS_GEOMETRY
 10
-260.445
 20
-445.513
 40
12.072
 50
340.994
 51
348.323
  0
ARC
  8
APS_GEOMETRY
 10
-262.142
 20
-444.928
 40
13.867
 50
334.592
 51
340.994
  0
ARC
  8
APS_GEOMETRY
 10
-259.18
 20
-446.335
 40
10.587
 50
327.265
 51
334.592
  0
ARC
  8
APS_GEOMETRY
 10
-255.74
 20
-448.363
 40
6.599
 50
320.133
 51
325.923
  0
ARC
  8
APS_GEOMETRY
 10
-251.739
 20
-451.705
 40
1.386
 50
307.476
 51
320.133
  0
ARC
  8
APS_GEOMETRY
 10
-251.388
 20
-452.162
 40
0.81
 50
286.429
 51
307.476
  0
ARC
  8
APS_GEOMETRY
 10
-251.533
 20
-451.67
 40
1.323
 50
270.0
 51
286.429
  0
ARC
  8
APS_GEOMETRY
 10
-251.533
 20
-450.14
 40
2.852
 50
263.774
 51
270.0
  0
ARC
  8
APS_GEOMETRY
 10
-250.699
 20
-442.492
 40
10.546
 50
260.538
 51
263.774
  0
ARC
  8
APS_GEOMETRY
 10
-254.433
 20
-463.565
 40
10.857
 50
79.38
 51
84.987
  0
ARC
  8
APS_GEOMETRY
 10
-256.052
 20
-482.02
 40
29.383
 50
84.987
 51
88.394
  0
LINE
  8
APS_GEOMETRY
 10
-255.229
 11
-269.095
 20
-452.649
 21
-452.649
  0
ARC
  8
APS_GEOMETRY
 10
-269.095
 20
-449.747
 40
2.902
 50
254.103
 51
270.0
  0
ARC
  8
APS_GEOMETRY
 10
-269.504
 20
-451.182
 40
1.41
 50
231.216
 51
254.103
  0
ARC
  8
APS_GEOMETRY
 10
-269.671
 20
-451.391
 40
1.142
 50
203.795
 51
231.216
  0
ARC
  8
APS_GEOMETRY
 10
-269.335
 20
-451.243
 40
1.509
 50
180.0
 51
203.795
  0
ARC
  8
APS_GEOMETRY
 10
-269.208
 20
-451.243
 40
1.637
 50
164.055
 51
180.0
  0
ARC
  8
APS_GEOMETRY
 10
-270.217
 20
-450.955
 40
0.588
 50
137.291
 51
164.055
  0
ARC
  8
APS_GEOMETRY
 10
-269.913
 20
-451.235
 40
1.001
 50
120.964
 51
137.291
  0
ARC
  8
APS_GEOMETRY
 10
-266.663
 20
-456.652
 40
7.318
 50
114.944
 51
120.964
  0
ARC
  8
APS_GEOMETRY
 10
-270.72
 20
-447.775
 40
2.443
 50
293.429
 51
305.72
  0
ARC
  8
APS_GEOMETRY
 10
-270.048
 20
-448.709
 40
1.292
 50
305.72
 51
322.651
  0
ARC
  8
APS_GEOMETRY
 10
-270.153
 20
-448.63
 40
1.423
 50
322.651
 51
338.11
  0
ARC
  8
APS_GEOMETRY
 10
-272.182
 20
-447.815
 40
3.61
 50
338.11
 51
347.8
  0
ARC
  8
APS_GEOMETRY
 10
-284.782
 20
-445.053
 40
16.509
 50
347.672
 51
352.051
  0
ARC
  8
APS_GEOMETRY
 10
-296.978
 20
-443.35
 40
28.824
 50
352.051
 51
355.365
  0
ARC
  8
APS_GEOMETRY
 10
-305.192
 20
-442.684
 40
37.064
 50
355.365
 51
357.943
  0
ARC
  8
APS_GEOMETRY
 10
-326.397
 20
-441.922
 40
58.283
 50
357.943
 51
0.0
  0
ARC
  8
APS_GEOMETRY
 10
-350.873
 20
-441.922
 40
82.759
 50
360.0
 51
2.183
  0
ARC
  8
APS_GEOMETRY
 10
-301.385
 20
-440.036
 40
33.235
 50
2.183
 51
5.629
  0
ARC
  8
APS_GEOMETRY
 10
-286.643
 20
-438.583
 40
18.422
 50
5.629
 51
11.805
  0
ARC
  8
APS_GEOMETRY
 10
-272.335
 20
-435.592
 40
3.805
 50
11.805
 51
25.419
  0
ARC
  8
APS_GEOMETRY
 10
-270.484
 20
-434.751
 40
1.772
 50
26.565
 51
38.157
  0
ARC
  8
APS_GEOMETRY
 10
-269.661
 20
-434.105
 40
0.726
 50
38.157
 51
56.31
  0
ARC
  8
APS_GEOMETRY
 10
-269.835
 20
-434.366
 40
1.04
 50
56.31
 51
69.193
  0
ARC
  8
APS_GEOMETRY
 10
-272.275
 20
-440.787
 40
7.908
 50
69.193
 51
73.856
  0
ARC
  8
APS_GEOMETRY
 10
-269.701
 20
-431.934
 40
1.312
 50
216.87
 51
253.393
  0
ARC
  8
APS_GEOMETRY
 10
-269.72
 20
-431.948
 40
1.288
 50
180.0
 51
216.87
  0
ARC
  8
APS_GEOMETRY
 10
-269.439
 20
-431.948
 40
1.569
 50
161.565
 51
180.0
  0
ARC
  8
APS_GEOMETRY
 10
-269.496
 20
-431.929
 40
1.509
 50
142.765
 51
161.565
  0
ARC
  8
APS_GEOMETRY
 10
-269.532
 20
-431.901
 40
1.464
 50
123.425
 51
142.765
  0
ARC
  8
APS_GEOMETRY
 10
-269.499
 20
-431.951
 40
1.523
 50
104.47
 51
123.425
  0
ARC
  8
APS_GEOMETRY
 10
-269.209
 20
-433.382
 40
2.982
 50
96.724
 51
102.995
  0
ARC
  8
APS_GEOMETRY
 10
-268.309
 20
-441.02
 40
10.673
 50
93.411
 51
96.724
  0
ARC
  8
APS_GEOMETRY
 10
-267.909
 20
-447.73
 40
17.395
 50
91.375
 51
93.411
  0
ARC
  8
APS_GEOMETRY
 10
-267.411
 20
-468.48
 40
38.151
 50
90.0
 51
91.375
  0
LINE
  8
COSTRUZIONI
 10
-704.184
 11
1295.816
 20
-594.944
 21
-594.944
  0
LINE
  8
COSTRUZIONI
 10
1295.816
 11
1295.816
 20
-594.944
 21
-394.944
  0
LINE
  8
COSTRUZIONI
 10
1295.816
 11
-704.184
 20
-394.944
 21
-394.944
  0
LINE
  8
COSTRUZIONI
 10
-704.184
 11
-704.184
 20
-394.944
 21
-594.944
  0
LINE
  8
COSTRUZIONI
 10
-238.333
 11
-238.333
 20
-594.944
 21
-394.944
  0
LINE
  8
COSTRUZIONI
 10
1096.923
 11
1096.923
 20
-594.944
 21
-394.944
  0
LINE
  8
COSTRUZIONI
 10
1295.816
 11
-238.333
 20
-444.944
 21
-444.944
  0
LINE
  8
COSTRUZIONI
 10
1096.923
 11
1295.816
 20
-544.944
 21
-544.944
  0
LINE
  8
COSTRUZIONI
 10
-238.333
 11
1295.816
 20
-494.944
 21
-494.944
  0
LINE
  8
COSTRUZIONI
 10
790.114
 11
790.114
 20
-494.944
 21
-444.944
  0
LINE
  8
COSTRUZIONI
 10
295.036
 11
295.036
 20
-494.944
 21
-444.944
  0
LINE
  8
APS_GEOMETRY
 10
35.0
 11
798.0
 20
-287.444
 21
-287.444
  0
LINE
  8
APS_GEOMETRY
 10
798.0
 11
798.0
 20
-287.444
 21
-253.944
  0
LINE
  8
APS_GEOMETRY
 10
798.0
 11
35.0
 20
-253.944
 21
-253.944
  0
LINE
  8
APS_GEOMETRY
 10
35.0
 11
35.0
 20
-253.944
 21
-287.444
  0
LINE
  8
APS_GEOMETRY
 10
769.716
 11
798.0
 20
-287.444
 21
-259.16
  0
LINE
  8
APS_GEOMETRY
 10
774.931
 11
741.431
 20
-253.944
 21
-287.444
  0
LINE
  8
APS_GEOMETRY
 10
713.147
 11
746.647
 20
-287.444
 21
-253.944
  0
LINE
  8
APS_GEOMETRY
 10
718.363
 11
684.863
 20
-253.944
 21
-287.444
  0
LINE
  8
APS_GEOMETRY
 10
656.579
 11
690.079
 20
-287.444
 21
-253.944
  0
LINE
  8
APS_GEOMETRY
 10
661.794
 11
628.294
 20
-253.944
 21
-287.444
  0
LINE
  8
APS_GEOMETRY
 10
600.01
 11
633.51
 20
-287.444
 21
-253.944
  0
LINE
  8
APS_GEOMETRY
 10
605.226
 11
571.726
 20
-253.944
 21
-287.444
  0
LINE
  8
APS_GEOMETRY
 10
543.442
 11
576.942
 20
-287.444
 21
-253.944
  0
LINE
  8
APS_GEOMETRY
 10
548.657
 11
515.157
 20
-253.944
 21
-287.444
  0
LINE
  8
APS_GEOMETRY
 10
486.873
 11
520.373
 20
-287.444
 21
-253.944
  0
LINE
  8
APS_GEOMETRY
 10
492.089
 11
458.589
 20
-253.944
 21
-287.444
  0
LINE
  8
APS_GEOMETRY
 10
430.304
 11
463.804
 20
-287.444
 21
-253.944
  0
LINE
  8
APS_GEOMETRY
 10
435.52
 11
402.02
 20
-253.944
 21
-287.444
  0
LINE
  8
APS_GEOMETRY
 10
373.736
 11
407.236
 20
-287.444
 21
-253.944
  0
LINE
  8
APS_GEOMETRY
 10
378.952
 11
345.452
 20
-253.944
 21
-287.444
  0
LINE
  8
APS_GEOMETRY
 10
317.167
 11
350.667
 20
-287.444
 21
-253.944
  0
LINE
  8
APS_GEOMETRY
 10
322.383
 11
288.883
 20
-253.944
 21
-287.444
  0
LINE
  8
APS_GEOMETRY
 10
260.599
 11
294.099
 20
-287.444
 21
-253.944
  0
LINE
  8
APS_GEOMETRY
 10
265.815
 11
232.315
 20
-253.944
 21
-287.444
  0
LINE
  8
APS_GEOMETRY
 10
204.03
 11
237.53
 20
-287.444
 21
-253.944
  0
LINE
  8
APS_GEOMETRY
 10
209.246
 11
175.746
 20
-253.944
 21
-287.444
  0
LINE
  8
APS_GEOMETRY
 10
147.462
 11
180.962
 20
-287.444
 21
-253.944
  0
LINE
  8
APS_GEOMETRY
 10
152.677
 11
119.177
 20
-253.944
 21
-287.444
  0
LINE
  8
APS_GEOMETRY
 10
90.893
 11
124.393
 20
-287.444
 21
-253.944
  0
LINE
  8
APS_GEOMETRY
 10
96.109
 11
62.609
 20
-253.944
 21
-287.444
  0
LINE
  8
APS_GEOMETRY
 10
35.0
 11
67.825
 20
-286.769
 21
-253.944
  0
LINE
  8
APS_GEOMETRY
 10
39.54
 11
35.0
 20
-253.944
 21
-258.484
  0
LINE
  8
APS_GEOMETRY
 10
-505.965
 11
-472.465
 20
2119.0
 21
2119.0
  0
LINE
  8
APS_GEOMETRY
 10
-472.465
 11
-472.465
 20
2119.0
 21
0.794
  0
LINE
  8
APS_GEOMETRY
 10
-472.465
 11
-505.965
 20
0.794
 21
0.794
  0
LINE
  8
APS_GEOMETRY
 10
-505.965
 11
-505.965
 20
0.794
 21
2119.0
  0
CIRCLE
  8
QUOTATURA
 10
-2880.858
 20
-494.469
 40
1140.507
  0
LINE
  8
QUOTATURA
 10
-139.652
 11
-1743.462
 20
-291.595
 21
-410.291
  0
CIRCLE
  8
QUOTATURA
 10
-25.912
 20
-283.178
 40
114.051
  0
LINE
  8
APS_GEOMETRY
 10
-2621.734
 11
-1796.14
 20
-142.131
 21
-142.131
  0
LINE
  8
APS_GEOMETRY
 10
-1744.981
 11
-2621.734
 20
-597.131
 21
-597.131
  0
LINE
  8
APS_GEOMETRY
 10
-2621.734
 11
-2621.734
 20
-597.131
 21
-142.131
  0
LINE
  8
COSTRUZIONI
 10
-2271.734
 11
-2271.734
 20
-537.131
 21
-202.131
  0
LINE
  8
COSTRUZIONI
 10
-2653.723
 11
-3107.993
 20
-1612.13
 21
-1612.13
  0
LINE
  8
APS_GEOMETRY
 10
-2271.734
 11
-1741.149
 20
-537.131
 21
-537.131
  0
LINE
  8
APS_GEOMETRY
 10
-1778.454
 11
-2271.734
 20
-202.131
 21
-202.131
  0
LINE
  8
APS_GEOMETRY
 10
-2271.734
 11
-2271.734
 20
-202.131
 21
-537.131
  0
LINE
  8
APS_GEOMETRY
 10
-1757.269
 11
-1995.645
 20
-298.756
 21
-537.131
  0
LINE
  8
APS_GEOMETRY
 10
-2271.734
 11
-1943.487
 20
-530.378
 21
-202.131
  0
LINE
  8
APS_GEOMETRY
 10
-2226.33
 11
-2271.734
 20
-202.131
 21
-247.535
  0
LINE
  8
QUOTATURA
 10
-3288.841
 11
-3276.567
 20
-1753.386
 21
-1752.313
  0
ARC
  8
QUOTATURA
 10
-3241.341
 20
-1748.15
 40
35.471
 50
186.74
 51
198.53
  0
ARC
  8
QUOTATURA
 10
-3255.314
 20
-1752.833
 40
20.734
 50
198.53
 51
213.97
  0
ARC
  8
QUOTATURA
 10
-3258.15
 20
-1754.744
 40
17.315
 50
213.97
 51
232.3
  0
ARC
  8
QUOTATURA
 10
-3251.133
 20
-1745.665
 40
28.789
 50
232.3
 51
246.491
  0
ARC
  8
QUOTATURA
 10
-3249.508
 20
-1741.93
 40
32.862
 50
246.491
 51
259.058
  0
ARC
  8
QUOTATURA
 10
-3247.526
 20
-1731.679
 40
43.304
 50
259.058
 51
270.0
  0
ARC
  8
QUOTATURA
 10
-3247.526
 20
-1730.835
 40
44.148
 50
270.0
 51
279.557
  0
ARC
  8
QUOTATURA
 10
-3245.126
 20
-1745.093
 40
29.689
 50
279.557
 51
291.218
  0
ARC
  8
QUOTATURA
 10
-3242.983
 20
-1750.613
 40
23.767
 50
291.218
 51
305.58
  0
ARC
  8
QUOTATURA
 10
-3237.429
 20
-1758.376
 40
14.222
 50
305.58
 51
324.181
  0
ARC
  8
QUOTATURA
 10
-3238.098
 20
-1757.893
 40
15.048
 50
324.181
 51
341.702
  0
ARC
  8
QUOTATURA
 10
-3236.921
 20
-1758.282
 40
13.808
 50
341.702
 51
0.0
  0
ARC
  8
QUOTATURA
 10
-3237.031
 20
-1758.282
 40
13.918
 50
0.0
 51
18.364
  0
ARC
  8
QUOTATURA
 10
-3235.582
 20
-1757.801
 40
12.391
 50
18.364
 51
37.836
  0
ARC
  8
QUOTATURA
 10
-3235.969
 20
-1758.102
 40
12.881
 50
37.836
 51
56.763
  0
ARC
  8
QUOTATURA
 10
-3245.25
 20
-1772.265
 40
29.814
 50
56.763
 51
69.171
  0
ARC
  8
QUOTATURA
 10
-3245.489
 20
-1772.206
 40
29.846
 50
68.703
 51
72.775
  0
ARC
  8
QUOTATURA
 10
-3277.043
 20
-1873.982
 40
136.4
 50
72.775
 51
74.68
  0
ARC
  8
QUOTATURA
 10
-3303.355
 20
-1970.032
 40
235.989
 50
74.68
 51
75.781
  0
ARC
  8
QUOTATURA
 10
-3382.031
 20
-2280.532
 40
556.302
 50
75.781
 51
76.499
  0
ARC
  8
QUOTATURA
 10
-3201.592
 20
-1529.014
 40
216.574
 50
254.657
 51
256.499
  0
ARC
  8
QUOTATURA
 10
-3229.539
 20
-1630.868
 40
110.956
 50
252.083
 51
254.657
  0
ARC
  8
QUOTATURA
 10
-3240.765
 20
-1665.589
 40
74.465
 50
248.254
 51
252.083
  0
ARC
  8
QUOTATURA
 10
-3257.881
 20
-1708.501
 40
28.266
 50
242.038
 51
248.254
  0
ARC
  8
QUOTATURA
 10
-3255.761
 20
-1704.117
 40
33.132
 50
228.905
 51
242.354
  0
ARC
  8
QUOTATURA
 10
-3263.237
 20
-1712.689
 40
21.758
 50
212.289
 51
228.905
  0
ARC
  8
QUOTATURA
 10
-3263.195
 20
-1712.662
 40
21.809
 50
195.759
 51
212.289
  0
ARC
  8
QUOTATURA
 10
-3261.104
 20
-1712.072
 40
23.982
 50
180.0
 51
195.759
  0
ARC
  8
QUOTATURA
 10
-3260.544
 20
-1712.072
 40
24.541
 50
163.111
 51
180.0
  0
ARC
  8
QUOTATURA
 10
-3258.672
 20
-1712.64
 40
26.497
 50
146.861
 51
163.111
  0
ARC
  8
QUOTATURA
 10
-3261.264
 20
-1710.948
 40
23.402
 50
128.527
 51
146.861
  0
ARC
  8
QUOTATURA
 10
-3256.916
 20
-1716.41
 40
30.383
 50
112.452
 51
128.527
  0
ARC
  8
QUOTATURA
 10
-3252.615
 20
-1726.816
 40
41.643
 50
100.53
 51
112.452
  0
ARC
  8
QUOTATURA
 10
-3250.478
 20
-1738.318
 40
53.342
 50
90.0
 51
100.53
  0
ARC
  8
QUOTATURA
 10
-3250.478
 20
-1744.738
 40
59.763
 50
79.651
 51
90.0
  0
ARC
  8
QUOTATURA
 10
-3247.091
 20
-1726.192
 40
40.91
 50
67.135
 51
79.651
  0
ARC
  8
QUOTATURA
 10
-3243.421
 20
-1717.49
 40
31.466
 50
51.104
 51
67.135
  0
ARC
  8
QUOTATURA
 10
-3239.707
 20
-1712.887
 40
25.551
 50
33.299
 51
51.104
  0
ARC
  8
QUOTATURA
 10
-3242.255
 20
-1714.561
 40
28.6
 50
17.312
 51
33.299
  0
ARC
  8
QUOTATURA
 10
-3245.571
 20
-1715.594
 40
32.073
 50
2.22
 51
17.312
  0
LINE
  8
QUOTATURA
 10
-3213.522
 11
-3225.997
 20
-1714.352
 21
-1715.291
  0
ARC
  8
QUOTATURA
 10
-3251.906
 20
-1718.087
 40
26.059
 50
6.159
 51
25.796
  0
ARC
  8
QUOTATURA
 10
-3243.211
 20
-1713.884
 40
16.402
 50
25.796
 51
50.621
  0
ARC
  8
QUOTATURA
 10
-3243.754
 20
-1714.546
 40
17.258
 50
50.621
 51
74.47
  0
ARC
  8
QUOTATURA
 10
-3249.941
 20
-1736.809
 40
40.365
 50
74.47
 51
90.0
  0
ARC
  8
QUOTATURA
 10
-3249.941
 20
-1752.073
 40
55.629
 50
90.0
 51
96.051
  0
ARC
  8
QUOTATURA
 10
-3252.501
 20
-1727.918
 40
31.338
 50
96.051
 51
104.115
  0
ARC
  8
QUOTATURA
 10
-3254.463
 20
-1720.117
 40
23.295
 50
104.115
 51
114.866
  0
ARC
  8
QUOTATURA
 10
-3258.333
 20
-1711.767
 40
14.092
 50
114.866
 51
128.703
  0
ARC
  8
QUOTATURA
 10
-3257.463
 20
-1712.853
 40
15.483
 50
128.703
 51
152.63
  0
ARC
  8
QUOTATURA
 10
-3260.657
 20
-1711.2
 40
11.886
 50
152.63
 51
180.0
  0
ARC
  8
QUOTATURA
 10
-3260.479
 20
-1711.2
 40
12.064
 50
180.0
 51
203.676
  0
ARC
  8
QUOTATURA
 10
-3261.203
 20
-1711.517
 40
11.274
 50
203.676
 51
228.18
  0
ARC
  8
QUOTATURA
 10
-3262.401
 20
-1712.979
 40
9.386
 50
227.675
 51
242.955
  0
ARC
  8
QUOTATURA
 10
-3248.479
 20
-1685.71
 40
40.003
 50
242.955
 51
250.34
  0
ARC
  8
QUOTATURA
 10
-3238.152
 20
-1656.803
 40
70.7
 50
250.34
 51
254.555
  0
ARC
  8
QUOTATURA
 10
-3211.046
 20
-1558.698
 40
172.48
 50
254.555
 51
257.253
  0
ARC
  8
QUOTATURA
 10
-3324.356
 20
-2059.591
 40
341.069
 50
75.888
 51
77.253
  0
ARC
  8
QUOTATURA
 10
-3281.516
 20
-1889.191
 40
165.366
 50
73.926
 51
75.888
  0
ARC
  8
QUOTATURA
 10
-3265.182
 20
-1832.502
 40
106.371
 50
70.881
 51
73.926
  0
ARC
  8
QUOTATURA
 10
-3241.744
 20
-1764.889
 40
34.811
 50
65.556
 51
70.881
  0
ARC
  8
QUOTATURA
 10
-3243.627
 20
-1768.535
 40
38.91
 50
51.656
 51
65.253
  0
ARC
  8
QUOTATURA
 10
-3233.821
 20
-1756.139
 40
23.104
 50
33.981
 51
51.656
  0
ARC
  8
QUOTATURA
 10
-3233.749
 20
-1756.09
 40
23.017
 50
16.308
 51
33.981
  0
ARC
  8
QUOTATURA
 10
-3237.574
 20
-1757.209
 40
27.003
 50
360.0
 51
16.308
  0
ARC
  8
QUOTATURA
 10
-3236.428
 20
-1757.209
 40
25.856
 50
343.098
 51
0.0
  0
ARC
  8
QUOTATURA
 10
-3239.222
 20
-1756.36
 40
28.777
 50
327.083
 51
343.098
  0
ARC
  8
QUOTATURA
 10
-3237.582
 20
-1757.422
 40
26.823
 50
309.908
 51
327.083
  0
ARC
  8
QUOTATURA
 10
-3242.048
 20
-1752.082
 40
33.784
 50
294.616
 51
309.908
  0
ARC
  8
QUOTATURA
 10
-3244.561
 20
-1746.597
 40
39.818
 50
281.505
 51
294.616
  0
ARC
  8
QUOTATURA
 10
-3246.923
 20
-1734.994
 40
51.659
 50
270.0
 51
281.505
  0
ARC
  8
QUOTATURA
 10
-3246.923
 20
-1710.12
 40
76.532
 50
260.134
 51
270.0
  0
ARC
  8
QUOTATURA
 10
-3252.977
 20
-1744.933
 40
41.197
 50
246.673
 51
260.134
  0
ARC
  8
QUOTATURA
 10
-3255.972
 20
-1751.876
 40
33.635
 50
230.409
 51
246.673
  0
ARC
  8
QUOTATURA
 10
-3258.042
 20
-1754.38
 40
30.387
 50
213.291
 51
230.409
  0
ARC
  8
QUOTATURA
 10
-3256.696
 20
-1753.496
 40
31.996
 50
196.988
 51
213.291
  0
ARC
  8
QUOTATURA
 10
-3253.157
 20
-1752.415
 40
35.697
 50
181.559
 51
196.988
  0
LINE
  8
QUOTATURA
 10
-3116.661
 11
-3103.65
 20
-1750.502
 21
-1753.789
  0
ARC
  8
QUOTATURA
 10
-3156.675
 20
-1740.255
 40
54.724
 50
328.944
 51
345.682
  0
ARC
  8
QUOTATURA
 10
-3140.943
 20
-1749.728
 40
36.361
 50
308.372
 51
328.944
  0
ARC
  8
QUOTATURA
 10
-3141.066
 20
-1749.573
 40
36.559
 50
287.946
 51
308.372
  0
ARC
  8
QUOTATURA
 10
-3144.361
 20
-1739.401
 40
47.252
 50
270.0
 51
287.946
  0
ARC
  8
QUOTATURA
 10
-3144.361
 20
-1723.501
 40
63.151
 50
255.946
 51
270.0
  0
ARC
  8
QUOTATURA
 10
-3151.239
 20
-1750.977
 40
34.828
 50
236.983
 51
255.946
  0
ARC
  8
QUOTATURA
 10
-3150.267
 20
-1749.482
 40
36.611
 50
218.959
 51
236.983
  0
ARC
  8
QUOTATURA
 10
-3142.698
 20
-1743.361
 40
46.345
 50
202.953
 51
218.959
  0
ARC
  8
QUOTATURA
 10
-3126.572
 20
-1736.532
 40
63.857
 50
191.156
 51
202.953
  0
ARC
  8
QUOTATURA
 10
-3119.189
 20
-1735.076
 40
71.382
 50
180.0
 51
191.156
  0
ARC
  8
QUOTATURA
 10
-3120.615
 20
-1735.076
 40
69.957
 50
167.646
 51
180.0
  0
ARC
  8
QUOTATURA
 10
-3141.336
 20
-1730.538
 40
48.744
 50
152.833
 51
167.646
  0
ARC
  8
QUOTATURA
 10
-3146.636
 20
-1727.818
 40
42.787
 50
136.128
 51
152.833
  0
ARC
  8
QUOTATURA
 10
-3149.05
 20
-1725.497
 40
39.439
 50
118.722
 51
136.128
  0
ARC
  8
QUOTATURA
 10
-3145.426
 20
-1732.11
 40
46.979
 50
103.979
 51
118.722
  0
ARC
  8
QUOTATURA
 10
-3144.16
 20
-1737.198
 40
52.222
 50
90.0
 51
103.979
  0
ARC
  8
QUOTATURA
 10
-3144.16
 20
-1733.518
 40
48.542
 50
73.159
 51
90.0
  0
ARC
  8
QUOTATURA
 10
-3140.191
 20
-1720.407
 40
34.844
 50
53.253
 51
73.159
  0
ARC
  8
QUOTATURA
 10
-3140.415
 20
-1720.708
 40
35.219
 50
33.564
 51
53.253
  0
ARC
  8
QUOTATURA
 10
-3148.742
 20
-1726.232
 40
45.212
 50
16.206
 51
33.564
  0
LINE
  8
QUOTATURA
 10
-3105.327
 11
-3118.137
 20
-1713.614
 21
-1716.632
  0
ARC
  8
QUOTATURA
 10
-3158.633
 20
-1729.54
 40
42.503
 50
17.68
 51
32.423
  0
ARC
  8
QUOTATURA
 10
-3141.209
 20
-1718.473
 40
21.861
 50
32.423
 51
53.036
  0
ARC
  8
QUOTATURA
 10
-3141.373
 20
-1718.691
 40
22.135
 50
53.036
 51
73.344
  0
ARC
  8
QUOTATURA
 10
-3144.428
 20
-1728.902
 40
32.793
 50
73.344
 51
90.0
  0
ARC
  8
QUOTATURA
 10
-3144.428
 20
-1735.462
 40
39.353
 50
90.0
 51
105.999
  0
ARC
  8
QUOTATURA
 10
-3147.961
 20
-1723.14
 40
26.535
 50
105.999
 51
125.514
  0
ARC
  8
QUOTATURA
 10
-3146.868
 20
-1724.671
 40
28.416
 50
125.514
 51
143.746
  0
ARC
  8
QUOTATURA
 10
-3145.29
 20
-1725.829
 40
30.373
 50
143.746
 51
161.376
  0
ARC
  8
QUOTATURA
 10
-3118.426
 20
-1734.882
 40
58.722
 50
161.376
 51
170.719
  0
ARC
  8
QUOTATURA
 10
-3117.647
 20
-1735.009
 40
59.51
 50
170.719
 51
180.0
  0
ARC
  8
QUOTATURA
 10
-3102.153
 20
-1735.009
 40
75.005
 50
180.0
 51
189.477
  0
ARC
  8
QUOTATURA
 10
-3128.864
 20
-1739.468
 40
47.924
 50
189.477
 51
201.34
  0
ARC
  8
QUOTATURA
 10
-3144.399
 20
-1745.537
 40
31.246
 50
201.34
 51
219.109
  0
ARC
  8
QUOTATURA
 10
-3149.324
 20
-1749.541
 40
24.898
 50
219.109
 51
239.036
  0
ARC
  8
QUOTATURA
 10
-3145.419
 20
-1743.033
 40
32.488
 50
239.036
 51
254.511
  0
ARC
  8
QUOTATURA
 10
-3145.434
 20
-1743.086
 40
32.433
 50
254.511
 51
270.0
  0
ARC
  8
QUOTATURA
 10
-3145.434
 20
-1743.525
 40
31.994
 50
270.0
 51
288.808
  0
ARC
  8
QUOTATURA
 10
-3143.452
 20
-1749.344
 40
25.847
 50
288.808
 51
309.756
  0
ARC
  8
QUOTATURA
 10
-3143.064
 20
-1749.81
 40
25.24
 50
309.756
 51
331.26
  0
ARC
  8
QUOTATURA
 10
-3158.168
 20
-1741.528
 40
42.465
 50
331.26
 51
347.8
  0
LINE
  8
QUOTATURA
 10
-3083.65
 11
-3045.89
 20
-1784.976
 21
-1686.652
  0
LINE
  8
QUOTATURA
 10
-3045.89
 11
-3031.873
 20
-1686.652
 21
-1686.652
  0
LINE
  8
QUOTATURA
 10
-3031.873
 11
-2991.631
 20
-1686.652
 21
-1784.976
  0
LINE
  8
QUOTATURA
 10
-2991.631
 11
-3006.453
 20
-1784.976
 21
-1784.976
  0
LINE
  8
QUOTATURA
 10
-3006.453
 11
-3017.922
 20
-1784.976
 21
-1755.197
  0
LINE
  8
QUOTATURA
 10
-3017.922
 11
-3059.036
 20
-1755.197
 21
-1755.197
  0
LINE
  8
QUOTATURA
 10
-3059.036
 11
-3069.834
 20
-1755.197
 21
-1784.976
  0
LINE
  8
QUOTATURA
 10
-3069.834
 11
-3083.65
 20
-1784.976
 21
-1784.976
  0
LINE
  8
QUOTATURA
 10
-3055.28
 11
-3021.946
 20
-1744.6
 21
-1744.6
  0
LINE
  8
QUOTATURA
 10
-3021.946
 11
-3032.208
 20
-1744.6
 21
-1717.37
  0
ARC
  8
QUOTATURA
 10
-2601.073
 20
-1554.238
 40
460.966
 50
199.901
 51
200.726
  0
ARC
  8
QUOTATURA
 10
-2748.61
 20
-1607.649
 40
304.058
 50
198.886
 51
199.901
  0
ARC
  8
QUOTATURA
 10
-2808.111
 20
-1628.004
 40
241.172
 50
197.606
 51
198.886
  0
ARC
  8
QUOTATURA
 10
-2901.567
 20
-1657.662
 40
143.123
 50
195.945
 51
197.606
  0
ARC
  8
QUOTATURA
 10
-3158.701
 20
-1673.247
 40
121.851
 50
344.244
 51
348.768
  0
ARC
  8
QUOTATURA
 10
-3165.845
 20
-1671.231
 40
129.275
 50
339.852
 51
344.244
  0
LINE
  8
QUOTATURA
 10
-3044.482
 11
-3055.28
 20
-1715.76
 21
-1744.6
  0
LINE
  8
QUOTATURA
 10
-2971.631
 11
-2971.631
 20
-1784.976
 21
-1686.652
  0
LINE
  8
QUOTATURA
 10
-2971.631
 11
-2958.62
 20
-1686.652
 21
-1686.652
  0
LINE
  8
QUOTATURA
 10
-2958.62
 11
-2958.62
 20
-1686.652
 21
-1773.373
  0
LINE
  8
QUOTATURA
 10
-2958.62
 11
-2910.196
 20
-1773.373
 21
-1773.373
  0
LINE
  8
QUOTATURA
 10
-2910.196
 11
-2910.196
 20
-1773.373
 21
-1784.976
  0
LINE
  8
QUOTATURA
 10
-2910.196
 11
-2971.631
 20
-1784.976
 21
-1784.976
  0
LINE
  8
QUOTATURA
 10
-2890.196
 11
-2852.436
 20
-1784.976
 21
-1686.652
  0
LINE
  8
QUOTATURA
 10
-2852.436
 11
-2838.419
 20
-1686.652
 21
-1686.652
  0
LINE
  8
QUOTATURA
 10
-2838.419
 11
-2798.177
 20
-1686.652
 21
-1784.976
  0
LINE
  8
QUOTATURA
 10
-2798.177
 11
-2812.999
 20
-1784.976
 21
-1784.976
  0
LINE
  8
QUOTATURA
 10
-2812.999
 11
-2824.468
 20
-1784.976
 21
-1755.197
  0
LINE
  8
QUOTATURA
 10
-2824.468
 11
-2865.581
 20
-1755.197
 21
-1755.197
  0
LINE
  8
QUOTATURA
 10
-2865.581
 11
-2876.38
 20
-1755.197
 21
-1784.976
  0
LINE
  8
QUOTATURA
 10
-2876.38
 11
-2890.196
 20
-1784.976
 21
-1784.976
  0
LINE
  8
QUOTATURA
 10
-2861.826
 11
-2828.492
 20
-1744.6
 21
-1744.6
  0
LINE
  8
QUOTATURA
 10
-2828.492
 11
-2838.754
 20
-1744.6
 21
-1717.37
  0
ARC
  8
QUOTATURA
 10
-2407.619
 20
-1554.238
 40
460.966
 50
199.901
 51
200.726
  0
ARC
  8
QUOTATURA
 10
-2555.156
 20
-1607.649
 40
304.058
 50
198.886
 51
199.901
  0
ARC
  8
QUOTATURA
 10
-2614.657
 20
-1628.004
 40
241.172
 50
197.606
 51
198.886
  0
ARC
  8
QUOTATURA
 10
-2708.113
 20
-1657.662
 40
143.123
 50
195.945
 51
197.606
  0
ARC
  8
QUOTATURA
 10
-2965.247
 20
-1673.247
 40
121.851
 50
344.244
 51
348.768
  0
ARC
  8
QUOTATURA
 10
-2972.391
 20
-1671.231
 40
129.275
 50
339.852
 51
344.244
  0
LINE
  8
QUOTATURA
 10
-2851.027
 11
-2861.826
 20
-1715.76
 21
-1744.6
  0
LINE
  8
QUOTATURA
 10
-2646.96
 11
-2659.032
 20
-1784.976
 21
-1784.976
  0
LINE
  8
QUOTATURA
 10
-2659.032
 11
-2659.032
 20
-1784.976
 21
-1708.047
  0
ARC
  8
QUOTATURA
 10
-2690.154
 20
-1675.42
 40
45.09
 50
306.027
 51
313.647
  0
ARC
  8
QUOTATURA
 10
-2712.95
 20
-1644.075
 40
83.848
 50
300.442
 51
306.027
  0
ARC
  8
QUOTATURA
 10
-2725.721
 20
-1622.343
 40
109.054
 50
296.14
 51
300.442
  0
ARC
  8
QUOTATURA
 10
-2703.367
 20
-1667.894
 40
58.315
 50
290.256
 51
296.14
  0
LINE
  8
QUOTATURA
 10
-2683.177
 11
-2683.177
 20
-1722.601
 21
-1710.931
  0
ARC
  8
QUOTATURA
 10
-2717.469
 20
-1638.001
 40
80.59
 50
295.183
 51
303.085
  0
ARC
  8
QUOTATURA
 10
-2709.734
 20
-1649.874
 40
66.42
 50
303.085
 51
311.791
  0
ARC
  8
QUOTATURA
 10
-2708.201
 20
-1651.588
 40
64.121
 50
311.791
 51
320.774
  0
ARC
  8
QUOTATURA
 10
-2682.664
 20
-1672.435
 40
31.155
 50
320.774
 51
333.677
  0
LINE
  8
QUOTATURA
 10
-2654.74
 11
-2646.96
 20
-1686.25
 21
-1686.25
  0
LINE
  8
QUOTATURA
 10
-2646.96
 11
-2646.96
 20
-1686.25
 21
-1784.976
  0
ARC
  8
QUOTATURA
 10
-2474.04
 20
-1736.485
 40
152.92
 50
176.737
 51
180.0
  0
ARC
  8
QUOTATURA
 10
-2526.25
 20
-1733.508
 40
100.625
 50
172.715
 51
176.737
  0
ARC
  8
QUOTATURA
 10
-2546.298
 20
-1730.946
 40
80.413
 50
167.69
 51
172.715
  0
ARC
  8
QUOTATURA
 10
-2575.514
 20
-1724.57
 40
50.51
 50
161.348
 51
167.69
  0
ARC
  8
QUOTATURA
 10
-2582.083
 20
-1722.353
 40
43.577
 50
146.964
 51
161.348
  0
ARC
  8
QUOTATURA
 10
-2594.632
 20
-1714.192
 40
28.608
 50
129.186
 51
146.964
  0
ARC
  8
QUOTATURA
 10
-2597.781
 20
-1710.329
 40
23.625
 50
107.948
 51
129.186
  0
ARC
  8
QUOTATURA
 10
-2594.901
 20
-1719.22
 40
32.97
 50
90.0
 51
107.948
  0
ARC
  8
QUOTATURA
 10
-2594.901
 20
-1720.66
 40
34.41
 50
77.076
 51
90.0
  0
ARC
  8
QUOTATURA
 10
-2592.803
 20
-1711.518
 40
25.03
 50
61.911
 51
77.076
  0
ARC
  8
QUOTATURA
 10
-2593.007
 20
-1711.9
 40
25.464
 50
47.017
 51
61.911
  0
ARC
  8
QUOTATURA
 10
-2595.084
 20
-1714.129
 40
28.511
 50
32.945
 51
47.017
  0
ARC
  8
QUOTATURA
 10
-2604.282
 20
-1720.09
 40
39.471
 50
22.657
 51
32.945
  0
ARC
  8
QUOTATURA
 10
-2624.386
 20
-1728.482
 40
61.257
 50
14.403
 51
22.657
  0
ARC
  8
QUOTATURA
 10
-2613.487
 20
-1725.683
 40
50.003
 50
9.316
 51
14.403
  0
ARC
  8
QUOTATURA
 10
-2649.123
 20
-1731.529
 40
86.116
 50
5.44
 51
9.316
  0
ARC
  8
QUOTATURA
 10
-2673.335
 20
-1733.835
 40
110.437
 50
2.415
 51
5.44
  0
ARC
  8
QUOTATURA
 10
-2736.17
 20
-1736.485
 40
173.329
 50
360.0
 51
2.415
  0
ARC
  8
QUOTATURA
 10
-2715.038
 20
-1736.485
 40
152.196
 50
356.747
 51
360.0
  0
ARC
  8
QUOTATURA
 10
-2663.649
 20
-1739.406
 40
100.724
 50
352.748
 51
356.747
  0
ARC
  8
QUOTATURA
 10
-2643.856
 20
-1741.924
 40
80.772
 50
347.769
 51
352.748
  0
ARC
  8
QUOTATURA
 10
-2614.893
 20
-1748.202
 40
51.136
 50
341.511
 51
347.769
  0
ARC
  8
QUOTATURA
 10
-2607.608
 20
-1750.639
 40
43.454
 50
327.1
 51
341.511
  0
ARC
  8
QUOTATURA
 10
-2595.236
 20
-1758.642
 40
28.719
 50
309.349
 51
327.1
  0
ARC
  8
QUOTATURA
 10
-2591.944
 20
-1762.657
 40
23.528
 50
287.982
 51
309.349
  0
ARC
  8
QUOTATURA
 10
-2594.901
 20
-1753.548
 40
33.104
 50
270.0
 51
287.982
  0
ARC
  8
QUOTATURA
 10
-2594.901
 20
-1755.66
 40
30.993
 50
245.465
 51
270.0
  0
ARC
  8
QUOTATURA
 10
-2597.065
 20
-1760.402
 40
25.78
 50
218.522
 51
245.465
  0
ARC
  8
QUOTATURA
 10
-2592.638
 20
-1756.969
 40
31.382
 50
204.332
 51
218.392
  0
ARC
  8
QUOTATURA
 10
-2571.577
 20
-1747.445
 40
54.496
 50
193.674
 51
204.332
  0
ARC
  8
QUOTATURA
 10
-2551.971
 20
-1742.675
 40
74.674
 50
185.822
 51
193.674
  0
ARC
  8
QUOTATURA
 10
-2491.26
 20
-1736.485
 40
135.7
 50
180.0
 51
185.822
  0
ARC
  8
QUOTATURA
 10
-2442.377
 20
-1736.485
 40
172.175
 50
180.0
 51
184.02
  0
ARC
  8
QUOTATURA
 10
-2535.821
 20
-1743.051
 40
78.5
 50
184.02
 51
189.974
  0
ARC
  8
QUOTATURA
 10
-2564.88
 20
-1748.161
 40
48.995
 50
189.974
 51
199.409
  0
ARC
  8
QUOTATURA
 10
-2594.662
 20
-1758.654
 40
17.42
 50
199.409
 51
215.265
  0
ARC
  8
QUOTATURA
 10
-2591.813
 20
-1756.64
 40
20.908
 50
215.265
 51
240.181
  0
ARC
  8
QUOTATURA
 10
-2594.901
 20
-1762.027
 40
14.699
 50
240.181
 51
270.0
  0
ARC
  8
QUOTATURA
 10
-2594.901
 20
-1762.084
 40
14.642
 50
270.0
 51
299.922
  0
ARC
  8
QUOTATURA
 10
-2598.049
 20
-1756.614
 40
20.953
 50
299.922
 51
324.848
  0
ARC
  8
QUOTATURA
 10
-2595.293
 20
-1758.555
 40
17.583
 50
324.848
 51
340.604
  0
ARC
  8
QUOTATURA
 10
-2624.993
 20
-1748.098
 40
49.069
 50
340.604
 51
350.016
  0
ARC
  8
QUOTATURA
 10
-2653.876
 20
-1743.013
 40
78.396
 50
350.016
 51
355.972
  0
ARC
  8
QUOTATURA
 10
-2746.591
 20
-1736.485
 40
171.341
 50
355.972
 51
360.0
  0
ARC
  8
QUOTATURA
 10
-2748.26
 20
-1736.485
 40
173.011
 50
360.0
 51
4.011
  0
ARC
  8
QUOTATURA
 10
-2654.085
 20
-1729.881
 40
78.604
 50
4.011
 51
9.964
  0
ARC
  8
QUOTATURA
 10
-2624.85
 20
-1724.745
 40
48.922
 50
9.964
 51
19.421
  0
ARC
  8
QUOTATURA
 10
-2594.988
 20
-1714.216
 40
17.258
 50
19.421
 51
35.378
  0
ARC
  8
QUOTATURA
 10
-2597.763
 20
-1716.187
 40
20.661
 50
35.378
 51
60.52
  0
ARC
  8
QUOTATURA
 10
-2595.035
 20
-1711.361
 40
15.118
 50
60.52
 51
90.0
  0
ARC
  8
QUOTATURA
 10
-2595.035
 20
-1711.966
 40
15.723
 50
90.0
 51
117.937
  0
ARC
  8
QUOTATURA
 10
-2594.461
 20
-1713.049
 40
16.949
 50
117.937
 51
144.825
  0
ARC
  8
QUOTATURA
 10
-2591.053
 20
-1715.265
 40
21.011
 50
145.238
 51
159.914
  0
ARC
  8
QUOTATURA
 10
-2563.292
 20
-1725.417
 40
50.57
 50
159.914
 51
169.359
  0
ARC
  8
QUOTATURA
 10
-2537.391
 20
-1730.283
 40
76.924
 50
169.359
 51
175.63
  0
ARC
  8
QUOTATURA
 10
-2456.234
 20
-1736.485
 40
158.318
 50
175.63
 51
180.0
  0
LINE
  8
QUOTATURA
 10
-2542.842
 11
-2542.842
 20
-1727.498
 21
-1713.748
  0
LINE
  8
QUOTATURA
 10
-2542.842
 11
-2529.093
 20
-1713.748
 21
-1713.748
  0
LINE
  8
QUOTATURA
 10
-2529.093
 11
-2529.093
 20
-1713.748
 21
-1727.498
  0
LINE
  8
QUOTATURA
 10
-2529.093
 11
-2542.842
 20
-1727.498
 21
-1727.498
  0
LINE
  8
QUOTATURA
 10
-2542.842
 11
-2542.842
 20
-1784.976
 21
-1771.227
  0
LINE
  8
QUOTATURA
 10
-2542.842
 11
-2529.093
 20
-1771.227
 21
-1771.227
  0
LINE
  8
QUOTATURA
 10
-2529.093
 11
-2529.093
 20
-1771.227
 21
-1784.976
  0
LINE
  8
QUOTATURA
 10
-2529.093
 11
-2542.842
 20
-1784.976
 21
-1784.976
  0
LINE
  8
QUOTATURA
 10
-2472.875
 11
-2484.948
 20
-1784.976
 21
-1784.976
  0
LINE
  8
QUOTATURA
 10
-2484.948
 11
-2484.948
 20
-1784.976
 21
-1708.047
  0
ARC
  8
QUOTATURA
 10
-2516.069
 20
-1675.42
 40
45.09
 50
306.027
 51
313.647
  0
ARC
  8
QUOTATURA
 10
-2538.866
 20
-1644.075
 40
83.848
 50
300.442
 51
306.027
  0
ARC
  8
QUOTATURA
 10
-2551.637
 20
-1622.343
 40
109.054
 50
296.14
 51
300.442
  0
ARC
  8
QUOTATURA
 10
-2529.282
 20
-1667.894
 40
58.315
 50
290.256
 51
296.14
  0
LINE
  8
QUOTATURA
 10
-2509.093
 11
-2509.093
 20
-1722.601
 21
-1710.931
  0
ARC
  8
QUOTATURA
 10
-2543.384
 20
-1638.001
 40
80.59
 50
295.183
 51
303.085
  0
ARC
  8
QUOTATURA
 10
-2535.649
 20
-1649.874
 40
66.42
 50
303.085
 51
311.791
  0
ARC
  8
QUOTATURA
 10
-2534.117
 20
-1651.588
 40
64.121
 50
311.791
 51
320.774
  0
ARC
  8
QUOTATURA
 10
-2508.58
 20
-1672.435
 40
31.155
 50
320.774
 51
333.677
  0
LINE
  8
QUOTATURA
 10
-2480.655
 11
-2472.875
 20
-1686.25
 21
-1686.25
  0
LINE
  8
QUOTATURA
 10
-2472.875
 11
-2472.875
 20
-1686.25
 21
-1784.976
  0
CIRCLE
  8
QUOTATURA
 10
-2904.791
 20
2078.793
 40
1275.365
  0
LINE
  8
QUOTATURA
 10
-601.452
 11
-1944.734
 20
64.569
 21
1239.242
  0
CIRCLE
  8
QUOTATURA
 10
-505.446
 20
-19.386
 40
127.537
  0
LINE
  8
APS_GEOMETRY
 10
-2969.979
 11
-2514.979
 20
2272.656
 21
2272.656
  0
LINE
  8
APS_GEOMETRY
 10
-2514.979
 11
-2514.979
 20
2272.656
 21
3293.125
  0
LINE
  8
APS_GEOMETRY
 10
-2969.979
 11
-2969.979
 20
3352.491
 21
2272.656
  0
LINE
  8
APS_GEOMETRY
 10
-2574.979
 11
-2574.979
 20
3265.892
 21
2272.656
  0
LINE
  8
APS_GEOMETRY
 10
-2574.979
 11
-2909.979
 20
2272.656
 21
2272.656
  0
LINE
  8
APS_GEOMETRY
 10
-2909.979
 11
-2909.979
 20
2272.656
 21
3354.147
  0
LINE
  8
APS_GEOMETRY
 10
-2857.821
 11
-2574.979
 20
2822.656
 21
3105.499
  0
LINE
  8
APS_GEOMETRY
 10
-2637.489
 11
-2909.979
 20
3325.831
 21
3053.342
  0
LINE
  8
APS_GEOMETRY
 10
-2909.979
 11
-2892.069
 20
3336.184
 21
3354.094
  0
LINE
  8
QUOTATURA
 10
-3312.774
 11
-3300.5
 20
685.017
 21
686.09
  0
ARC
  8
QUOTATURA
 10
-3265.274
 20
690.253
 40
35.471
 50
186.74
 51
198.53
  0
ARC
  8
QUOTATURA
 10
-3279.247
 20
685.57
 40
20.734
 50
198.53
 51
213.97
  0
ARC
  8
QUOTATURA
 10
-3282.083
 20
683.659
 40
17.315
 50
213.97
 51
232.3
  0
ARC
  8
QUOTATURA
 10
-3275.066
 20
692.738
 40
28.789
 50
232.3
 51
246.491
  0
ARC
  8
QUOTATURA
 10
-3273.441
 20
696.473
 40
32.862
 50
246.491
 51
259.058
  0
ARC
  8
QUOTATURA
 10
-3271.459
 20
706.724
 40
43.304
 50
259.058
 51
270.0
  0
ARC
  8
QUOTATURA
 10
-3271.459
 20
707.569
 40
44.148
 50
270.0
 51
279.557
  0
ARC
  8
QUOTATURA
 10
-3269.059
 20
693.31
 40
29.689
 50
279.557
 51
291.218
  0
ARC
  8
QUOTATURA
 10
-3266.916
 20
687.79
 40
23.767
 50
291.218
 51
305.58
  0
ARC
  8
QUOTATURA
 10
-3261.362
 20
680.027
 40
14.222
 50
305.58
 51
324.181
  0
ARC
  8
QUOTATURA
 10
-3262.031
 20
680.51
 40
15.048
 50
324.181
 51
341.702
  0
ARC
  8
QUOTATURA
 10
-3260.854
 20
680.121
 40
13.808
 50
341.702
 51
0.0
  0
ARC
  8
QUOTATURA
 10
-3260.964
 20
680.121
 40
13.918
 50
0.0
 51
18.364
  0
ARC
  8
QUOTATURA
 10
-3259.515
 20
680.602
 40
12.391
 50
18.364
 51
37.836
  0
ARC
  8
QUOTATURA
 10
-3259.902
 20
680.301
 40
12.881
 50
37.836
 51
56.763
  0
ARC
  8
QUOTATURA
 10
-3269.183
 20
666.138
 40
29.814
 50
56.763
 51
69.171
  0
ARC
  8
QUOTATURA
 10
-3269.422
 20
666.197
 40
29.846
 50
68.703
 51
72.775
  0
ARC
  8
QUOTATURA
 10
-3300.975
 20
564.421
 40
136.4
 50
72.775
 51
74.68
  0
ARC
  8
QUOTATURA
 10
-3327.288
 20
468.371
 40
235.989
 50
74.68
 51
75.781
  0
ARC
  8
QUOTATURA
 10
-3405.964
 20
157.871
 40
556.302
 50
75.781
 51
76.499
  0
ARC
  8
QUOTATURA
 10
-3225.525
 20
909.389
 40
216.574
 50
254.657
 51
256.499
  0
ARC
  8
QUOTATURA
 10
-3253.472
 20
807.535
 40
110.956
 50
252.083
 51
254.657
  0
ARC
  8
QUOTATURA
 10
-3264.698
 20
772.814
 40
74.465
 50
248.254
 51
252.083
  0
ARC
  8
QUOTATURA
 10
-3281.814
 20
729.903
 40
28.266
 50
242.038
 51
248.254
  0
ARC
  8
QUOTATURA
 10
-3279.694
 20
734.286
 40
33.132
 50
228.905
 51
242.354
  0
ARC
  8
QUOTATURA
 10
-3287.17
 20
725.715
 40
21.758
 50
212.289
 51
228.905
  0
ARC
  8
QUOTATURA
 10
-3287.128
 20
725.742
 40
21.809
 50
195.759
 51
212.289
  0
ARC
  8
QUOTATURA
 10
-3285.036
 20
726.332
 40
23.982
 50
180.0
 51
195.759
  0
ARC
  8
QUOTATURA
 10
-3284.477
 20
726.332
 40
24.541
 50
163.111
 51
180.0
  0
ARC
  8
QUOTATURA
 10
-3282.605
 20
725.763
 40
26.497
 50
146.861
 51
163.111
  0
ARC
  8
QUOTATURA
 10
-3285.197
 20
727.456
 40
23.402
 50
128.527
 51
146.861
  0
ARC
  8
QUOTATURA
 10
-3280.849
 20
721.994
 40
30.383
 50
112.452
 51
128.527
  0
ARC
  8
QUOTATURA
 10
-3276.548
 20
711.587
 40
41.643
 50
100.53
 51
112.452
  0
ARC
  8
QUOTATURA
 10
-3274.41
 20
700.085
 40
53.342
 50
90.0
 51
100.53
  0
ARC
  8
QUOTATURA
 10
-3274.41
 20
693.665
 40
59.763
 50
79.651
 51
90.0
  0
ARC
  8
QUOTATURA
 10
-3271.024
 20
712.211
 40
40.91
 50
67.135
 51
79.651
  0
ARC
  8
QUOTATURA
 10
-3267.354
 20
720.913
 40
31.466
 50
51.104
 51
67.135
  0
ARC
  8
QUOTATURA
 10
-3263.64
 20
725.516
 40
25.551
 50
33.299
 51
51.104
  0
ARC
  8
QUOTATURA
 10
-3266.188
 20
723.843
 40
28.6
 50
17.312
 51
33.299
  0
ARC
  8
QUOTATURA
 10
-3269.504
 20
722.809
 40
32.073
 50
2.22
 51
17.312
  0
LINE
  8
QUOTATURA
 10
-3237.455
 11
-3249.93
 20
724.051
 21
723.112
  0
ARC
  8
QUOTATURA
 10
-3275.839
 20
720.316
 40
26.059
 50
6.159
 51
25.796
  0
ARC
  8
QUOTATURA
 10
-3267.144
 20
724.519
 40
16.402
 50
25.796
 51
50.621
  0
ARC
  8
QUOTATURA
 10
-3267.687
 20
723.857
 40
17.258
 50
50.621
 51
74.47
  0
ARC
  8
QUOTATURA
 10
-3273.874
 20
701.594
 40
40.365
 50
74.47
 51
90.0
  0
ARC
  8
QUOTATURA
 10
-3273.874
 20
686.33
 40
55.629
 50
90.0
 51
96.051
  0
ARC
  8
QUOTATURA
 10
-3276.434
 20
710.485
 40
31.338
 50
96.051
 51
104.115
  0
ARC
  8
QUOTATURA
 10
-3278.396
 20
718.286
 40
23.295
 50
104.115
 51
114.866
  0
ARC
  8
QUOTATURA
 10
-3282.266
 20
726.636
 40
14.092
 50
114.866
 51
128.703
  0
ARC
  8
QUOTATURA
 10
-3281.396
 20
725.55
 40
15.483
 50
128.703
 51
152.63
  0
ARC
  8
QUOTATURA
 10
-3284.59
 20
727.204
 40
11.886
 50
152.63
 51
180.0
  0
ARC
  8
QUOTATURA
 10
-3284.412
 20
727.204
 40
12.064
 50
180.0
 51
203.676
  0
ARC
  8
QUOTATURA
 10
-3285.136
 20
726.886
 40
11.274
 50
203.676
 51
228.18
  0
ARC
  8
QUOTATURA
 10
-3286.333
 20
725.424
 40
9.386
 50
227.675
 51
242.955
  0
ARC
  8
QUOTATURA
 10
-3272.412
 20
752.693
 40
40.003
 50
242.955
 51
250.34
  0
ARC
  8
QUOTATURA
 10
-3262.085
 20
781.6
 40
70.7
 50
250.34
 51
254.555
  0
ARC
  8
QUOTATURA
 10
-3234.979
 20
879.705
 40
172.48
 50
254.555
 51
257.253
  0
ARC
  8
QUOTATURA
 10
-3348.289
 20
378.813
 40
341.069
 50
75.888
 51
77.253
  0
ARC
  8
QUOTATURA
 10
-3305.449
 20
549.213
 40
165.366
 50
73.926
 51
75.888
  0
ARC
  8
QUOTATURA
 10
-3289.115
 20
605.901
 40
106.371
 50
70.881
 51
73.926
  0
ARC
  8
QUOTATURA
 10
-3265.677
 20
673.514
 40
34.811
 50
65.556
 51
70.881
  0
ARC
  8
QUOTATURA
 10
-3267.56
 20
669.868
 40
38.91
 50
51.656
 51
65.253
  0
ARC
  8
QUOTATURA
 10
-3257.754
 20
682.265
 40
23.104
 50
33.981
 51
51.656
  0
ARC
  8
QUOTATURA
 10
-3257.682
 20
682.313
 40
23.017
 50
16.308
 51
33.981
  0
ARC
  8
QUOTATURA
 10
-3261.507
 20
681.194
 40
27.003
 50
360.0
 51
16.308
  0
ARC
  8
QUOTATURA
 10
-3260.36
 20
681.194
 40
25.856
 50
343.098
 51
0.0
  0
ARC
  8
QUOTATURA
 10
-3263.155
 20
682.043
 40
28.777
 50
327.083
 51
343.098
  0
ARC
  8
QUOTATURA
 10
-3261.515
 20
680.982
 40
26.823
 50
309.908
 51
327.083
  0
ARC
  8
QUOTATURA
 10
-3265.981
 20
686.321
 40
33.784
 50
294.616
 51
309.908
  0
ARC
  8
QUOTATURA
 10
-3268.494
 20
691.807
 40
39.818
 50
281.505
 51
294.616
  0
ARC
  8
QUOTATURA
 10
-3270.856
 20
703.41
 40
51.659
 50
270.0
 51
281.505
  0
ARC
  8
QUOTATURA
 10
-3270.856
 20
728.283
 40
76.532
 50
260.134
 51
270.0
  0
ARC
  8
QUOTATURA
 10
-3276.91
 20
693.471
 40
41.197
 50
246.673
 51
260.134
  0
ARC
  8
QUOTATURA
 10
-3279.904
 20
686.527
 40
33.635
 50
230.409
 51
246.673
  0
ARC
  8
QUOTATURA
 10
-3281.975
 20
684.023
 40
30.387
 50
213.291
 51
230.409
  0
ARC
  8
QUOTATURA
 10
-3280.629
 20
684.907
 40
31.996
 50
196.988
 51
213.291
  0
ARC
  8
QUOTATURA
 10
-3277.09
 20
685.988
 40
35.697
 50
181.559
 51
196.988
  0
LINE
  8
QUOTATURA
 10
-3140.594
 11
-3127.583
 20
687.901
 21
684.615
  0
ARC
  8
QUOTATURA
 10
-3180.607
 20
698.148
 40
54.724
 50
328.944
 51
345.682
  0
ARC
  8
QUOTATURA
 10
-3164.876
 20
688.675
 40
36.361
 50
308.372
 51
328.944
  0
ARC
  8
QUOTATURA
 10
-3164.999
 20
688.83
 40
36.559
 50
287.946
 51
308.372
  0
ARC
  8
QUOTATURA
 10
-3168.294
 20
699.002
 40
47.252
 50
270.0
 51
287.946
  0
ARC
  8
QUOTATURA
 10
-3168.294
 20
714.902
 40
63.151
 50
255.946
 51
270.0
  0
ARC
  8
QUOTATURA
 10
-3175.172
 20
687.426
 40
34.828
 50
236.983
 51
255.946
  0
ARC
  8
QUOTATURA
 10
-3174.2
 20
688.921
 40
36.611
 50
218.959
 51
236.983
  0
ARC
  8
QUOTATURA
 10
-3166.631
 20
695.042
 40
46.345
 50
202.953
 51
218.959
  0
ARC
  8
QUOTATURA
 10
-3150.505
 20
701.871
 40
63.857
 50
191.156
 51
202.953
  0
ARC
  8
QUOTATURA
 10
-3143.122
 20
703.327
 40
71.382
 50
180.0
 51
191.156
  0
ARC
  8
QUOTATURA
 10
-3144.547
 20
703.327
 40
69.957
 50
167.646
 51
180.0
  0
ARC
  8
QUOTATURA
 10
-3165.269
 20
707.866
 40
48.744
 50
152.833
 51
167.646
  0
ARC
  8
QUOTATURA
 10
-3170.569
 20
710.585
 40
42.787
 50
136.128
 51
152.833
  0
ARC
  8
QUOTATURA
 10
-3172.983
 20
712.906
 40
39.439
 50
118.722
 51
136.128
  0
ARC
  8
QUOTATURA
 10
-3169.359
 20
706.293
 40
46.979
 50
103.979
 51
118.722
  0
ARC
  8
QUOTATURA
 10
-3168.093
 20
701.205
 40
52.222
 50
90.0
 51
103.979
  0
ARC
  8
QUOTATURA
 10
-3168.093
 20
704.885
 40
48.542
 50
73.159
 51
90.0
  0
ARC
  8
QUOTATURA
 10
-3164.124
 20
717.996
 40
34.844
 50
53.253
 51
73.159
  0
ARC
  8
QUOTATURA
 10
-3164.348
 20
717.696
 40
35.219
 50
33.564
 51
53.253
  0
ARC
  8
QUOTATURA
 10
-3172.675
 20
712.171
 40
45.212
 50
16.206
 51
33.564
  0
LINE
  8
QUOTATURA
 10
-3129.26
 11
-3142.07
 20
724.789
 21
721.771
  0
ARC
  8
QUOTATURA
 10
-3182.566
 20
708.863
 40
42.503
 50
17.68
 51
32.423
  0
ARC
  8
QUOTATURA
 10
-3165.142
 20
719.931
 40
21.861
 50
32.423
 51
53.036
  0
ARC
  8
QUOTATURA
 10
-3165.306
 20
719.712
 40
22.135
 50
53.036
 51
73.344
  0
ARC
  8
QUOTATURA
 10
-3168.361
 20
709.501
 40
32.793
 50
73.344
 51
90.0
  0
ARC
  8
QUOTATURA
 10
-3168.361
 20
702.941
 40
39.353
 50
90.0
 51
105.999
  0
ARC
  8
QUOTATURA
 10
-3171.894
 20
715.263
 40
26.535
 50
105.999
 51
125.514
  0
ARC
  8
QUOTATURA
 10
-3170.801
 20
713.732
 40
28.416
 50
125.514
 51
143.746
  0
ARC
  8
QUOTATURA
 10
-3169.223
 20
712.574
 40
30.373
 50
143.746
 51
161.376
  0
ARC
  8
QUOTATURA
 10
-3142.359
 20
703.521
 40
58.722
 50
161.376
 51
170.719
  0
ARC
  8
QUOTATURA
 10
-3141.58
 20
703.394
 40
59.51
 50
170.719
 51
180.0
  0
ARC
  8
QUOTATURA
 10
-3126.086
 20
703.394
 40
75.005
 50
180.0
 51
189.477
  0
ARC
  8
QUOTATURA
 10
-3152.797
 20
698.935
 40
47.924
 50
189.477
 51
201.34
  0
ARC
  8
QUOTATURA
 10
-3168.332
 20
692.866
 40
31.246
 50
201.34
 51
219.109
  0
ARC
  8
QUOTATURA
 10
-3173.257
 20
688.862
 40
24.898
 50
219.109
 51
239.036
  0
ARC
  8
QUOTATURA
 10
-3169.352
 20
695.37
 40
32.488
 50
239.036
 51
254.511
  0
ARC
  8
QUOTATURA
 10
-3169.367
 20
695.317
 40
32.433
 50
254.511
 51
270.0
  0
ARC
  8
QUOTATURA
 10
-3169.367
 20
694.878
 40
31.994
 50
270.0
 51
288.808
  0
ARC
  8
QUOTATURA
 10
-3167.385
 20
689.059
 40
25.847
 50
288.808
 51
309.756
  0
ARC
  8
QUOTATURA
 10
-3166.997
 20
688.593
 40
25.24
 50
309.756
 51
331.26
  0
ARC
  8
QUOTATURA
 10
-3182.1
 20
696.875
 40
42.465
 50
331.26
 51
347.8
  0
LINE
  8
QUOTATURA
 10
-3107.583
 11
-3069.823
 20
653.428
 21
751.751
  0
LINE
  8
QUOTATURA
 10
-3069.823
 11
-3055.805
 20
751.751
 21
751.751
  0
LINE
  8
QUOTATURA
 10
-3055.805
 11
-3015.564
 20
751.751
 21
653.428
  0
LINE
  8
QUOTATURA
 10
-3015.564
 11
-3030.386
 20
653.428
 21
653.428
  0
LINE
  8
QUOTATURA
 10
-3030.386
 11
-3041.855
 20
653.428
 21
683.206
  0
LINE
  8
QUOTATURA
 10
-3041.855
 11
-3082.968
 20
683.206
 21
683.206
  0
LINE
  8
QUOTATURA
 10
-3082.968
 11
-3093.767
 20
683.206
 21
653.428
  0
LINE
  8
QUOTATURA
 10
-3093.767
 11
-3107.583
 20
653.428
 21
653.428
  0
LINE
  8
QUOTATURA
 10
-3079.213
 11
-3045.879
 20
693.803
 21
693.803
  0
LINE
  8
QUOTATURA
 10
-3045.879
 11
-3056.141
 20
693.803
 21
721.033
  0
ARC
  8
QUOTATURA
 10
-2625.006
 20
884.165
 40
460.966
 50
199.901
 51
200.726
  0
ARC
  8
QUOTATURA
 10
-2772.543
 20
830.754
 40
304.058
 50
198.886
 51
199.901
  0
ARC
  8
QUOTATURA
 10
-2832.044
 20
810.399
 40
241.172
 50
197.606
 51
198.886
  0
ARC
  8
QUOTATURA
 10
-2925.5
 20
780.741
 40
143.123
 50
195.945
 51
197.606
  0
ARC
  8
QUOTATURA
 10
-3182.634
 20
765.156
 40
121.851
 50
344.244
 51
348.768
  0
ARC
  8
QUOTATURA
 10
-3189.778
 20
767.172
 40
129.275
 50
339.852
 51
344.244
  0
LINE
  8
QUOTATURA
 10
-3068.414
 11
-3079.213
 20
722.643
 21
693.803
  0
LINE
  8
QUOTATURA
 10
-2995.564
 11
-2995.564
 20
653.428
 21
751.751
  0
LINE
  8
QUOTATURA
 10
-2995.564
 11
-2982.553
 20
751.751
 21
751.751
  0
LINE
  8
QUOTATURA
 10
-2982.553
 11
-2982.553
 20
751.751
 21
665.031
  0
LINE
  8
QUOTATURA
 10
-2982.553
 11
-2934.129
 20
665.031
 21
665.031
  0
LINE
  8
QUOTATURA
 10
-2934.129
 11
-2934.129
 20
665.031
 21
653.428
  0
LINE
  8
QUOTATURA
 10
-2934.129
 11
-2995.564
 20
653.428
 21
653.428
  0
LINE
  8
QUOTATURA
 10
-2914.129
 11
-2876.369
 20
653.428
 21
751.751
  0
LINE
  8
QUOTATURA
 10
-2876.369
 11
-2862.351
 20
751.751
 21
751.751
  0
LINE
  8
QUOTATURA
 10
-2862.351
 11
-2822.11
 20
751.751
 21
653.428
  0
LINE
  8
QUOTATURA
 10
-2822.11
 11
-2836.932
 20
653.428
 21
653.428
  0
LINE
  8
QUOTATURA
 10
-2836.932
 11
-2848.401
 20
653.428
 21
683.206
  0
LINE
  8
QUOTATURA
 10
-2848.401
 11
-2889.514
 20
683.206
 21
683.206
  0
LINE
  8
QUOTATURA
 10
-2889.514
 11
-2900.313
 20
683.206
 21
653.428
  0
LINE
  8
QUOTATURA
 10
-2900.313
 11
-2914.129
 20
653.428
 21
653.428
  0
LINE
  8
QUOTATURA
 10
-2885.759
 11
-2852.425
 20
693.803
 21
693.803
  0
LINE
  8
QUOTATURA
 10
-2852.425
 11
-2862.687
 20
693.803
 21
721.033
  0
ARC
  8
QUOTATURA
 10
-2431.552
 20
884.165
 40
460.966
 50
199.901
 51
200.726
  0
ARC
  8
QUOTATURA
 10
-2579.089
 20
830.754
 40
304.058
 50
198.886
 51
199.901
  0
ARC
  8
QUOTATURA
 10
-2638.59
 20
810.399
 40
241.172
 50
197.606
 51
198.886
  0
ARC
  8
QUOTATURA
 10
-2732.046
 20
780.741
 40
143.123
 50
195.945
 51
197.606
  0
ARC
  8
QUOTATURA
 10
-2989.18
 20
765.156
 40
121.851
 50
344.244
 51
348.768
  0
ARC
  8
QUOTATURA
 10
-2996.324
 20
767.172
 40
129.275
 50
339.852
 51
344.244
  0
LINE
  8
QUOTATURA
 10
-2874.96
 11
-2885.759
 20
722.643
 21
693.803
  0
LINE
  8
QUOTATURA
 10
-2670.893
 11
-2682.965
 20
653.428
 21
653.428
  0
LINE
  8
QUOTATURA
 10
-2682.965
 11
-2682.965
 20
653.428
 21
730.356
  0
ARC
  8
QUOTATURA
 10
-2714.087
 20
762.983
 40
45.09
 50
306.027
 51
313.647
  0
ARC
  8
QUOTATURA
 10
-2736.883
 20
794.328
 40
83.848
 50
300.442
 51
306.027
  0
ARC
  8
QUOTATURA
 10
-2749.654
 20
816.06
 40
109.054
 50
296.14
 51
300.442
  0
ARC
  8
QUOTATURA
 10
-2727.3
 20
770.51
 40
58.315
 50
290.256
 51
296.14
  0
LINE
  8
QUOTATURA
 10
-2707.11
 11
-2707.11
 20
715.802
 21
727.472
  0
ARC
  8
QUOTATURA
 10
-2741.402
 20
800.402
 40
80.59
 50
295.183
 51
303.085
  0
ARC
  8
QUOTATURA
 10
-2733.667
 20
788.529
 40
66.42
 50
303.085
 51
311.791
  0
ARC
  8
QUOTATURA
 10
-2732.134
 20
786.815
 40
64.121
 50
311.791
 51
320.774
  0
ARC
  8
QUOTATURA
 10
-2706.597
 20
765.968
 40
31.155
 50
320.774
 51
333.677
  0
LINE
  8
QUOTATURA
 10
-2678.673
 11
-2670.893
 20
752.153
 21
752.153
  0
LINE
  8
QUOTATURA
 10
-2670.893
 11
-2670.893
 20
752.153
 21
653.428
  0
ARC
  8
QUOTATURA
 10
-2497.973
 20
701.919
 40
152.92
 50
176.737
 51
180.0
  0
ARC
  8
QUOTATURA
 10
-2550.183
 20
704.895
 40
100.625
 50
172.715
 51
176.737
  0
ARC
  8
QUOTATURA
 10
-2570.231
 20
707.458
 40
80.413
 50
167.69
 51
172.715
  0
ARC
  8
QUOTATURA
 10
-2599.447
 20
713.833
 40
50.51
 50
161.348
 51
167.69
  0
ARC
  8
QUOTATURA
 10
-2606.016
 20
716.05
 40
43.577
 50
146.964
 51
161.348
  0
ARC
  8
QUOTATURA
 10
-2618.565
 20
724.211
 40
28.608
 50
129.186
 51
146.964
  0
ARC
  8
QUOTATURA
 10
-2621.714
 20
728.074
 40
23.625
 50
107.948
 51
129.186
  0
ARC
  8
QUOTATURA
 10
-2618.834
 20
719.183
 40
32.97
 50
90.0
 51
107.948
  0
ARC
  8
QUOTATURA
 10
-2618.834
 20
717.743
 40
34.41
 50
77.076
 51
90.0
  0
ARC
  8
QUOTATURA
 10
-2616.736
 20
726.885
 40
25.03
 50
61.911
 51
77.076
  0
ARC
  8
QUOTATURA
 10
-2616.94
 20
726.503
 40
25.464
 50
47.017
 51
61.911
  0
ARC
  8
QUOTATURA
 10
-2619.017
 20
724.274
 40
28.511
 50
32.945
 51
47.017
  0
ARC
  8
QUOTATURA
 10
-2628.215
 20
718.313
 40
39.471
 50
22.657
 51
32.945
  0
ARC
  8
QUOTATURA
 10
-2648.319
 20
709.921
 40
61.257
 50
14.403
 51
22.657
  0
ARC
  8
QUOTATURA
 10
-2637.42
 20
712.72
 40
50.003
 50
9.316
 51
14.403
  0
ARC
  8
QUOTATURA
 10
-2673.056
 20
706.874
 40
86.116
 50
5.44
 51
9.316
  0
ARC
  8
QUOTATURA
 10
-2697.268
 20
704.568
 40
110.437
 50
2.415
 51
5.44
  0
ARC
  8
QUOTATURA
 10
-2760.103
 20
701.919
 40
173.329
 50
360.0
 51
2.415
  0
ARC
  8
QUOTATURA
 10
-2738.971
 20
701.919
 40
152.196
 50
356.747
 51
360.0
  0
ARC
  8
QUOTATURA
 10
-2687.581
 20
698.998
 40
100.724
 50
352.748
 51
356.747
  0
ARC
  8
QUOTATURA
 10
-2667.789
 20
696.479
 40
80.772
 50
347.769
 51
352.748
  0
ARC
  8
QUOTATURA
 10
-2638.826
 20
690.201
 40
51.136
 50
341.511
 51
347.769
  0
ARC
  8
QUOTATURA
 10
-2631.54
 20
687.765
 40
43.454
 50
327.1
 51
341.511
  0
ARC
  8
QUOTATURA
 10
-2619.169
 20
679.761
 40
28.719
 50
309.349
 51
327.1
  0
ARC
  8
QUOTATURA
 10
-2615.877
 20
675.747
 40
23.528
 50
287.982
 51
309.349
  0
ARC
  8
QUOTATURA
 10
-2618.834
 20
684.855
 40
33.104
 50
270.0
 51
287.982
  0
ARC
  8
QUOTATURA
 10
-2618.834
 20
682.744
 40
30.993
 50
245.465
 51
270.0
  0
ARC
  8
QUOTATURA
 10
-2620.998
 20
678.001
 40
25.78
 50
218.522
 51
245.465
  0
ARC
  8
QUOTATURA
 10
-2616.571
 20
681.434
 40
31.382
 50
204.332
 51
218.392
  0
ARC
  8
QUOTATURA
 10
-2595.51
 20
690.958
 40
54.496
 50
193.674
 51
204.332
  0
ARC
  8
QUOTATURA
 10
-2575.904
 20
695.728
 40
74.674
 50
185.822
 51
193.674
  0
ARC
  8
QUOTATURA
 10
-2515.193
 20
701.919
 40
135.7
 50
180.0
 51
185.822
  0
ARC
  8
QUOTATURA
 10
-2466.31
 20
701.919
 40
172.175
 50
180.0
 51
184.02
  0
ARC
  8
QUOTATURA
 10
-2559.754
 20
695.352
 40
78.5
 50
184.02
 51
189.974
  0
ARC
  8
QUOTATURA
 10
-2588.813
 20
690.242
 40
48.995
 50
189.974
 51
199.409
  0
ARC
  8
QUOTATURA
 10
-2618.595
 20
679.749
 40
17.42
 50
199.409
 51
215.265
  0
ARC
  8
QUOTATURA
 10
-2615.746
 20
681.763
 40
20.908
 50
215.265
 51
240.181
  0
ARC
  8
QUOTATURA
 10
-2618.834
 20
676.376
 40
14.699
 50
240.181
 51
270.0
  0
ARC
  8
QUOTATURA
 10
-2618.834
 20
676.319
 40
14.642
 50
270.0
 51
299.922
  0
ARC
  8
QUOTATURA
 10
-2621.982
 20
681.789
 40
20.953
 50
299.922
 51
324.848
  0
ARC
  8
QUOTATURA
 10
-2619.226
 20
679.848
 40
17.583
 50
324.848
 51
340.604
  0
ARC
  8
QUOTATURA
 10
-2648.925
 20
690.305
 40
49.069
 50
340.604
 51
350.016
  0
ARC
  8
QUOTATURA
 10
-2677.808
 20
695.39
 40
78.396
 50
350.016
 51
355.972
  0
ARC
  8
QUOTATURA
 10
-2770.524
 20
701.919
 40
171.341
 50
355.972
 51
360.0
  0
ARC
  8
QUOTATURA
 10
-2772.193
 20
701.919
 40
173.011
 50
360.0
 51
4.011
  0
ARC
  8
QUOTATURA
 10
-2678.018
 20
708.522
 40
78.604
 50
4.011
 51
9.964
  0
ARC
  8
QUOTATURA
 10
-2648.783
 20
713.658
 40
48.922
 50
9.964
 51
19.421
  0
ARC
  8
QUOTATURA
 10
-2618.921
 20
724.187
 40
17.258
 50
19.421
 51
35.378
  0
ARC
  8
QUOTATURA
 10
-2621.696
 20
722.217
 40
20.661
 50
35.378
 51
60.52
  0
ARC
  8
QUOTATURA
 10
-2618.968
 20
727.042
 40
15.118
 50
60.52
 51
90.0
  0
ARC
  8
QUOTATURA
 10
-2618.968
 20
726.437
 40
15.723
 50
90.0
 51
117.937
  0
ARC
  8
QUOTATURA
 10
-2618.393
 20
725.354
 40
16.949
 50
117.937
 51
144.825
  0
ARC
  8
QUOTATURA
 10
-2614.986
 20
723.138
 40
21.011
 50
145.238
 51
159.914
  0
ARC
  8
QUOTATURA
 10
-2587.225
 20
712.987
 40
50.57
 50
159.914
 51
169.359
  0
ARC
  8
QUOTATURA
 10
-2561.324
 20
708.12
 40
76.924
 50
169.359
 51
175.63
  0
ARC
  8
QUOTATURA
 10
-2480.167
 20
701.919
 40
158.318
 50
175.63
 51
180.0
  0
LINE
  8
QUOTATURA
 10
-2566.775
 11
-2566.775
 20
710.906
 21
724.655
  0
LINE
  8
QUOTATURA
 10
-2566.775
 11
-2553.025
 20
724.655
 21
724.655
  0
LINE
  8
QUOTATURA
 10
-2553.025
 11
-2553.025
 20
724.655
 21
710.906
  0
LINE
  8
QUOTATURA
 10
-2553.025
 11
-2566.775
 20
710.906
 21
710.906
  0
LINE
  8
QUOTATURA
 10
-2566.775
 11
-2566.775
 20
653.428
 21
667.177
  0
LINE
  8
QUOTATURA
 10
-2566.775
 11
-2553.025
 20
667.177
 21
667.177
  0
LINE
  8
QUOTATURA
 10
-2553.025
 11
-2553.025
 20
667.177
 21
653.428
  0
LINE
  8
QUOTATURA
 10
-2553.025
 11
-2566.775
 20
653.428
 21
653.428
  0
LINE
  8
QUOTATURA
 10
-2496.808
 11
-2508.881
 20
653.428
 21
653.428
  0
LINE
  8
QUOTATURA
 10
-2508.881
 11
-2508.881
 20
653.428
 21
730.356
  0
ARC
  8
QUOTATURA
 10
-2540.002
 20
762.983
 40
45.09
 50
306.027
 51
313.647
  0
ARC
  8
QUOTATURA
 10
-2562.799
 20
794.328
 40
83.848
 50
300.442
 51
306.027
  0
ARC
  8
QUOTATURA
 10
-2575.57
 20
816.06
 40
109.054
 50
296.14
 51
300.442
  0
ARC
  8
QUOTATURA
 10
-2553.215
 20
770.51
 40
58.315
 50
290.256
 51
296.14
  0
LINE
  8
QUOTATURA
 10
-2533.025
 11
-2533.025
 20
715.802
 21
727.472
  0
ARC
  8
QUOTATURA
 10
-2567.317
 20
800.402
 40
80.59
 50
295.183
 51
303.085
  0
ARC
  8
QUOTATURA
 10
-2559.582
 20
788.529
 40
66.42
 50
303.085
 51
311.791
  0
ARC
  8
QUOTATURA
 10
-2558.05
 20
786.815
 40
64.121
 50
311.791
 51
320.774
  0
ARC
  8
QUOTATURA
 10
-2532.513
 20
765.968
 40
31.155
 50
320.774
 51
333.677
  0
LINE
  8
QUOTATURA
 10
-2504.588
 11
-2496.808
 20
752.153
 21
752.153
  0
LINE
  8
QUOTATURA
 10
-2496.808
 11
-2496.808
 20
752.153
 21
653.428
  0
LINE
  8
QUOTATURA
 10
-2621.734
 11
-2621.734
 20
-647.131
 21
-1076.815
  0
LINE
  8
QUOTATURA
 10
-2271.734
 11
-2271.734
 20
-587.131
 21
-1076.815
  0
LINE
  8
QUOTATURA
 10
-2271.734
 11
-2784.44
 20
-1026.815
 21
-1026.815
  0
LINE
  8
QUOTATURA
 10
-2521.734
 11
-2621.734
 20
-1043.485
 21
-1026.815
  0
LINE
  8
QUOTATURA
 10
-2621.734
 11
-2521.734
 20
-1026.815
 21
-1010.145
  0
LINE
  8
QUOTATURA
 10
-2521.734
 11
-2521.734
 20
-1010.145
 21
-1043.485
  0
LINE
  8
QUOTATURA
 10
-2371.734
 11
-2271.734
 20
-1010.145
 21
-1026.815
  0
LINE
  8
QUOTATURA
 10
-2271.734
 11
-2371.734
 20
-1026.815
 21
-1043.485
  0
LINE
  8
QUOTATURA
 10
-2371.734
 11
-2371.734
 20
-1043.485
 21
-1010.145
  0
LINE
  8
QUOTATURA
 10
-2571.734
 11
-2062.251
 20
-597.131
 21
-597.131
  0
LINE
  8
QUOTATURA
 10
-2112.251
 11
-2112.251
 20
-597.131
 21
-764.522
  0
LINE
  8
QUOTATURA
 10
-2112.251
 11
-2032.605
 20
-764.522
 21
-764.522
  0
LINE
  8
QUOTATURA
 10
-2128.921
 11
-2112.251
 20
-697.131
 21
-597.131
  0
LINE
  8
QUOTATURA
 10
-2112.251
 11
-2095.581
 20
-597.131
 21
-697.131
  0
LINE
  8
QUOTATURA
 10
-2095.581
 11
-2128.921
 20
-697.131
 21
-697.131
  0
LINE
  8
QUOTATURA
 10
-2112.251
 11
-2112.251
 20
-537.131
 21
-337.131
  0
LINE
  8
QUOTATURA
 10
-2095.581
 11
-2112.251
 20
-437.131
 21
-537.131
  0
LINE
  8
QUOTATURA
 10
-2112.251
 11
-2128.921
 20
-537.131
 21
-437.131
  0
LINE
  8
QUOTATURA
 10
-2128.921
 11
-2095.581
 20
-437.131
 21
-437.131
  0
LINE
  8
QUOTATURA
 10
-2221.734
 11
-1889.376
 20
-537.131
 21
-537.131
  0
LINE
  8
QUOTATURA
 10
-2221.734
 11
-1889.376
 20
-202.131
 21
-202.131
  0
LINE
  8
QUOTATURA
 10
-1939.376
 11
-1939.376
 20
-537.131
 21
7.456
  0
LINE
  8
QUOTATURA
 10
-1939.376
 11
-2069.638
 20
7.456
 21
7.456
  0
LINE
  8
QUOTATURA
 10
-1922.706
 11
-1939.376
 20
-437.131
 21
-537.131
  0
LINE
  8
QUOTATURA
 10
-1939.376
 11
-1956.046
 20
-537.131
 21
-437.131
  0
LINE
  8
QUOTATURA
 10
-1956.046
 11
-1922.706
 20
-437.131
 21
-437.131
  0
LINE
  8
QUOTATURA
 10
-1956.046
 11
-1939.376
 20
-302.131
 21
-202.131
  0
LINE
  8
QUOTATURA
 10
-1939.376
 11
-1922.706
 20
-202.131
 21
-302.131
  0
LINE
  8
QUOTATURA
 10
-1922.706
 11
-1956.046
 20
-302.131
 21
-302.131
  0
LINE
  8
QUOTATURA
 10
-2671.734
 11
-3488.622
 20
-597.131
 21
-597.131
  0
LINE
  8
QUOTATURA
 10
-2671.734
 11
-3488.622
 20
-142.131
 21
-142.131
  0
LINE
  8
QUOTATURA
 10
-3438.622
 11
-3438.622
 20
-597.131
 21
-446.308
  0
LINE
  8
QUOTATURA
 10
-3438.622
 11
-3438.622
 20
-296.308
 21
-142.131
  0
LINE
  8
QUOTATURA
 10
-3421.952
 11
-3438.622
 20
-497.131
 21
-597.131
  0
LINE
  8
QUOTATURA
 10
-3438.622
 11
-3455.292
 20
-597.131
 21
-497.131
  0
LINE
  8
QUOTATURA
 10
-3455.292
 11
-3421.952
 20
-497.131
 21
-497.131
  0
LINE
  8
QUOTATURA
 10
-3455.292
 11
-3438.622
 20
-242.131
 21
-142.131
  0
LINE
  8
QUOTATURA
 10
-3438.622
 11
-3421.952
 20
-142.131
 21
-242.131
  0
LINE
  8
QUOTATURA
 10
-3421.952
 11
-3455.292
 20
-242.131
 21
-242.131
  0
LINE
  8
QUOTATURA
 10
-2969.979
 11
-2969.979
 20
2222.656
 21
1658.374
  0
LINE
  8
QUOTATURA
 10
-2514.979
 11
-2514.979
 20
2222.656
 21
1658.374
  0
LINE
  8
QUOTATURA
 10
-2514.979
 11
-3252.999
 20
1708.374
 21
1708.374
  0
LINE
  8
QUOTATURA
 10
-2869.979
 11
-2969.979
 20
1691.704
 21
1708.374
  0
LINE
  8
QUOTATURA
 10
-2969.979
 11
-2869.979
 20
1708.374
 21
1725.044
  0
LINE
  8
QUOTATURA
 10
-2869.979
 11
-2869.979
 20
1725.044
 21
1691.704
  0
LINE
  8
QUOTATURA
 10
-2614.979
 11
-2514.979
 20
1725.044
 21
1708.374
  0
LINE
  8
QUOTATURA
 10
-2514.979
 11
-2614.979
 20
1708.374
 21
1691.704
  0
LINE
  8
QUOTATURA
 10
-2614.979
 11
-2614.979
 20
1691.704
 21
1725.044
  0
LINE
  8
QUOTATURA
 10
-2909.979
 11
-2909.979
 20
2872.656
 21
3038.697
  0
LINE
  8
QUOTATURA
 10
-2574.979
 11
-2574.979
 20
2872.656
 21
3038.697
  0
LINE
  8
QUOTATURA
 10
-2909.979
 11
-2417.111
 20
2988.697
 21
2988.697
  0
LINE
  8
QUOTATURA
 10
-2809.979
 11
-2909.979
 20
2972.027
 21
2988.697
  0
LINE
  8
QUOTATURA
 10
-2909.979
 11
-2809.979
 20
2988.697
 21
3005.367
  0
LINE
  8
QUOTATURA
 10
-2809.979
 11
-2809.979
 20
3005.367
 21
2972.027
  0
LINE
  8
QUOTATURA
 10
-2674.979
 11
-2574.979
 20
3005.367
 21
2988.697
  0
LINE
  8
QUOTATURA
 10
-2574.979
 11
-2674.979
 20
2988.697
 21
2972.027
  0
LINE
  8
QUOTATURA
 10
-2674.979
 11
-2674.979
 20
2972.027
 21
3005.367
  0
LINE
  8
APS_GEOMETRY
 10
-500.749
 11
-472.465
 20
0.794
 21
29.079
  0
LINE
  8
APS_GEOMETRY
 10
-472.465
 11
-505.965
 20
57.363
 21
23.863
  0
LINE
  8
APS_GEOMETRY
 10
-505.965
 11
-472.465
 20
52.147
 21
85.647
  0
LINE
  8
APS_GEOMETRY
 10
-472.465
 11
-505.965
 20
113.931
 21
80.431
  0
LINE
  8
APS_GEOMETRY
 10
-505.965
 11
-472.465
 20
108.716
 21
142.216
  0
LINE
  8
APS_GEOMETRY
 10
-472.465
 11
-505.965
 20
170.5
 21
137.0
  0
LINE
  8
APS_GEOMETRY
 10
-505.965
 11
-472.465
 20
165.284
 21
198.784
  0
LINE
  8
APS_GEOMETRY
 10
-472.465
 11
-505.965
 20
227.068
 21
193.568
  0
LINE
  8
APS_GEOMETRY
 10
-505.965
 11
-472.465
 20
221.853
 21
255.353
  0
LINE
  8
APS_GEOMETRY
 10
-472.465
 11
-505.965
 20
283.637
 21
250.137
  0
LINE
  8
APS_GEOMETRY
 10
-505.965
 11
-472.465
 20
278.421
 21
311.921
  0
LINE
  8
APS_GEOMETRY
 10
-472.465
 11
-505.965
 20
340.206
 21
306.706
  0
LINE
  8
APS_GEOMETRY
 10
-505.965
 11
-472.465
 20
334.99
 21
368.49
  0
LINE
  8
APS_GEOMETRY
 10
-472.465
 11
-505.965
 20
396.774
 21
363.274
  0
LINE
  8
APS_GEOMETRY
 10
-505.965
 11
-472.465
 20
391.558
 21
425.058
  0
LINE
  8
APS_GEOMETRY
 10
-472.465
 11
-505.965
 20
453.343
 21
419.843
  0
LINE
  8
APS_GEOMETRY
 10
-505.965
 11
-472.465
 20
448.127
 21
481.627
  0
LINE
  8
APS_GEOMETRY
 10
-472.465
 11
-505.965
 20
509.911
 21
476.411
  0
LINE
  8
APS_GEOMETRY
 10
-505.965
 11
-472.465
 20
504.695
 21
538.195
  0
LINE
  8
APS_GEOMETRY
 10
-472.465
 11
-505.965
 20
566.48
 21
532.98
  0
LINE
  8
APS_GEOMETRY
 10
-505.965
 11
-472.465
 20
561.264
 21
594.764
  0
LINE
  8
APS_GEOMETRY
 10
-472.465
 11
-505.965
 20
623.048
 21
589.548
  0
LINE
  8
APS_GEOMETRY
 10
-505.965
 11
-472.465
 20
617.833
 21
651.333
  0
LINE
  8
APS_GEOMETRY
 10
-472.465
 11
-505.965
 20
679.617
 21
646.117
  0
LINE
  8
APS_GEOMETRY
 10
-505.965
 11
-472.465
 20
674.401
 21
707.901
  0
LINE
  8
APS_GEOMETRY
 10
-472.465
 11
-505.965
 20
736.185
 21
702.685
  0
LINE
  8
APS_GEOMETRY
 10
-505.965
 11
-472.465
 20
730.97
 21
764.47
  0
LINE
  8
APS_GEOMETRY
 10
-472.465
 11
-505.965
 20
792.754
 21
759.254
  0
LINE
  8
APS_GEOMETRY
 10
-505.965
 11
-472.465
 20
787.538
 21
821.038
  0
LINE
  8
APS_GEOMETRY
 10
-472.465
 11
-505.965
 20
849.322
 21
815.822
  0
LINE
  8
APS_GEOMETRY
 10
-505.965
 11
-472.465
 20
844.107
 21
877.607
  0
LINE
  8
APS_GEOMETRY
 10
-472.465
 11
-505.965
 20
905.891
 21
872.391
  0
LINE
  8
APS_GEOMETRY
 10
-505.965
 11
-472.465
 20
900.675
 21
934.175
  0
LINE
  8
APS_GEOMETRY
 10
-472.465
 11
-505.965
 20
962.459
 21
928.959
  0
LINE
  8
APS_GEOMETRY
 10
-505.965
 11
-472.465
 20
957.244
 21
990.744
  0
LINE
  8
APS_GEOMETRY
 10
-472.465
 11
-505.965
 20
1019.028
 21
985.528
  0
LINE
  8
APS_GEOMETRY
 10
-505.965
 11
-472.465
 20
1013.812
 21
1047.312
  0
LINE
  8
APS_GEOMETRY
 10
-472.465
 11
-505.965
 20
1075.597
 21
1042.097
  0
LINE
  8
APS_GEOMETRY
 10
-505.965
 11
-472.465
 20
1070.381
 21
1103.881
  0
LINE
  8
APS_GEOMETRY
 10
-472.465
 11
-505.965
 20
1132.165
 21
1098.665
  0
LINE
  8
APS_GEOMETRY
 10
-505.965
 11
-472.465
 20
1126.949
 21
1160.449
  0
LINE
  8
APS_GEOMETRY
 10
-472.465
 11
-505.965
 20
1188.734
 21
1155.234
  0
LINE
  8
APS_GEOMETRY
 10
-505.965
 11
-472.465
 20
1183.518
 21
1217.018
  0
LINE
  8
APS_GEOMETRY
 10
-472.465
 11
-505.965
 20
1245.302
 21
1211.802
  0
LINE
  8
APS_GEOMETRY
 10
-505.965
 11
-472.465
 20
1240.086
 21
1273.586
  0
LINE
  8
APS_GEOMETRY
 10
-472.465
 11
-505.965
 20
1301.871
 21
1268.371
  0
LINE
  8
APS_GEOMETRY
 10
-505.965
 11
-472.465
 20
1296.655
 21
1330.155
  0
LINE
  8
APS_GEOMETRY
 10
-472.465
 11
-505.965
 20
1358.439
 21
1324.939
  0
LINE
  8
APS_GEOMETRY
 10
-505.965
 11
-472.465
 20
1353.224
 21
1386.724
  0
LINE
  8
APS_GEOMETRY
 10
-472.465
 11
-505.965
 20
1415.008
 21
1381.508
  0
LINE
  8
APS_GEOMETRY
 10
-505.965
 11
-472.465
 20
1409.792
 21
1443.292
  0
LINE
  8
APS_GEOMETRY
 10
-472.465
 11
-505.965
 20
1471.576
 21
1438.076
  0
LINE
  8
APS_GEOMETRY
 10
-505.965
 11
-472.465
 20
1466.361
 21
1499.861
  0
LINE
  8
APS_GEOMETRY
 10
-472.465
 11
-505.965
 20
1528.145
 21
1494.645
  0
LINE
  8
APS_GEOMETRY
 10
-505.965
 11
-472.465
 20
1522.929
 21
1556.429
  0
LINE
  8
APS_GEOMETRY
 10
-472.465
 11
-505.965
 20
1584.713
 21
1551.213
  0
LINE
  8
APS_GEOMETRY
 10
-505.965
 11
-472.465
 20
1579.498
 21
1612.998
  0
LINE
  8
APS_GEOMETRY
 10
-472.465
 11
-505.965
 20
1641.282
 21
1607.782
  0
LINE
  8
APS_GEOMETRY
 10
-505.965
 11
-472.465
 20
1636.066
 21
1669.566
  0
LINE
  8
APS_GEOMETRY
 10
-472.465
 11
-505.965
 20
1697.851
 21
1664.351
  0
LINE
  8
APS_GEOMETRY
 10
-505.965
 11
-472.465
 20
1692.635
 21
1726.135
  0
LINE
  8
APS_GEOMETRY
 10
-472.465
 11
-505.965
 20
1754.419
 21
1720.919
  0
LINE
  8
APS_GEOMETRY
 10
-505.965
 11
-472.465
 20
1749.203
 21
1782.703
  0
LINE
  8
APS_GEOMETRY
 10
-472.465
 11
-505.965
 20
1810.988
 21
1777.488
  0
LINE
  8
APS_GEOMETRY
 10
-505.965
 11
-472.465
 20
1805.772
 21
1839.272
  0
LINE
  8
APS_GEOMETRY
 10
-472.465
 11
-505.965
 20
1867.556
 21
1834.056
  0
LINE
  8
APS_GEOMETRY
 10
-505.965
 11
-472.465
 20
1862.34
 21
1895.84
  0
LINE
  8
APS_GEOMETRY
 10
-472.465
 11
-505.965
 20
1924.125
 21
1890.625
  0
LINE
  8
APS_GEOMETRY
 10
-505.965
 11
-472.465
 20
1918.909
 21
1952.409
  0
LINE
  8
APS_GEOMETRY
 10
-472.465
 11
-505.965
 20
1980.693
 21
1947.193
  0
LINE
  8
APS_GEOMETRY
 10
-505.965
 11
-472.465
 20
1975.478
 21
2008.978
  0
LINE
  8
APS_GEOMETRY
 10
-472.465
 11
-505.965
 20
2037.262
 21
2003.762
  0
LINE
  8
APS_GEOMETRY
 10
-505.965
 11
-472.465
 20
2032.046
 21
2065.546
  0
LINE
  8
APS_GEOMETRY
 10
-472.465
 11
-505.965
 20
2093.83
 21
2060.33
  0
LINE
  8
APS_GEOMETRY
 10
-505.965
 11
-475.58
 20
2088.615
 21
2119.0
  0
LINE
  8
APS_GEOMETRY
 10
-503.864
 11
-505.965
 20
2119.0
 21
2116.899
  0
LINE
  8
APS_GEOMETRY
 10
-2857.821
 11
-2574.979
 20
2289.173
 21
2572.016
  0
LINE
  8
APS_GEOMETRY
 10
-2637.489
 11
-2909.979
 20
2792.348
 21
2519.859
  0
LINE
  8
APS_GEOMETRY
 10
-2909.979
 11
-2892.069
 20
2802.701
 21
2820.611
  0
LINE
  8
COSTRUZIONI
 10
0.0
 11
35.0
 20
-288.194
 21
-288.194
  0
LINE
  8
COSTRUZIONI
 10
35.0
 11
35.0
 20
-288.194
 21
-253.194
  0
LINE
  8
COSTRUZIONI
 10
35.0
 11
0.0
 20
-253.194
 21
-253.194
  0
LINE
  8
COSTRUZIONI
 10
0.0
 11
0.0
 20
-253.194
 21
-288.194
  0
LINE
  8
COSTRUZIONI
 10
798.0
 11
833.0
 20
-288.194
 21
-288.194
  0
LINE
  8
COSTRUZIONI
 10
833.0
 11
833.0
 20
-288.194
 21
-253.194
  0
LINE
  8
COSTRUZIONI
 10
833.0
 11
798.0
 20
-253.194
 21
-253.194
  0
LINE
  8
COSTRUZIONI
 10
798.0
 11
798.0
 20
-253.194
 21
-288.194
  0
LINE
  8
COSTRUZIONI
 10
-2621.734
 11
-2271.734
 20
-544.631
 21
-544.631
  0
LINE
  8
COSTRUZIONI
 10
-2271.734
 11
-2271.734
 20
-544.631
 21
-194.631
  0
LINE
  8
COSTRUZIONI
 10
-2271.734
 11
-2621.734
 20
-194.631
 21
-194.631
  0
LINE
  8
COSTRUZIONI
 10
-2621.734
 11
-2621.734
 20
-194.631
 21
-544.631
  0
LINE
  8
QUOTATURA
 10
-2671.734
 11
-3031.237
 20
-544.631
 21
-544.631
  0
LINE
  8
QUOTATURA
 10
-2671.734
 11
-3031.237
 20
-194.631
 21
-194.631
  0
LINE
  8
QUOTATURA
 10
-2981.237
 11
-2981.237
 20
-544.631
 21
-446.375
  0
LINE
  8
QUOTATURA
 10
-2981.237
 11
-2981.237
 20
-295.905
 21
-194.631
  0
LINE
  8
QUOTATURA
 10
-2964.567
 11
-2981.237
 20
-444.631
 21
-544.631
  0
LINE
  8
QUOTATURA
 10
-2981.237
 11
-2997.907
 20
-544.631
 21
-444.631
  0
LINE
  8
QUOTATURA
 10
-2997.907
 11
-2964.567
 20
-444.631
 21
-444.631
  0
LINE
  8
QUOTATURA
 10
-2997.907
 11
-2981.237
 20
-294.631
 21
-194.631
  0
LINE
  8
QUOTATURA
 10
-2981.237
 11
-2964.567
 20
-194.631
 21
-294.631
  0
LINE
  8
QUOTATURA
 10
-2964.567
 11
-2997.907
 20
-294.631
 21
-294.631
  0
LINE
  8
QUOTATURA
 10
-2571.734
 11
-2358.144
 20
-194.631
 21
-194.631
  0
LINE
  8
QUOTATURA
 10
-2571.734
 11
-2358.144
 20
-142.131
 21
-142.131
  0
LINE
  8
QUOTATURA
 10
-2408.144
 11
-2408.144
 20
-194.631
 21
-378.529
  0
LINE
  8
QUOTATURA
 10
-2408.144
 11
-2513.043
 20
-378.529
 21
-378.529
  0
LINE
  8
QUOTATURA
 10
-2424.814
 11
-2408.144
 20
-294.631
 21
-194.631
  0
LINE
  8
QUOTATURA
 10
-2408.144
 11
-2391.474
 20
-194.631
 21
-294.631
  0
LINE
  8
QUOTATURA
 10
-2391.474
 11
-2424.814
 20
-294.631
 21
-294.631
  0
LINE
  8
QUOTATURA
 10
-2408.144
 11
-2408.144
 20
-142.131
 21
57.869
  0
LINE
  8
QUOTATURA
 10
-2391.474
 11
-2408.144
 20
-42.131
 21
-142.131
  0
LINE
  8
QUOTATURA
 10
-2408.144
 11
-2424.814
 20
-142.131
 21
-42.131
  0
LINE
  8
QUOTATURA
 10
-2424.814
 11
-2391.474
 20
-42.131
 21
-42.131
  0
LINE
  8
QUOTATURA
 10
-2909.979
 11
-2909.979
 20
2472.656
 21
2686.764
  0
LINE
  8
QUOTATURA
 10
-2969.979
 11
-2969.979
 20
2322.656
 21
2686.764
  0
LINE
  8
QUOTATURA
 10
-2969.979
 11
-3198.678
 20
2636.764
 21
2636.764
  0
LINE
  8
QUOTATURA
 10
-3069.979
 11
-2969.979
 20
2653.434
 21
2636.764
  0
LINE
  8
QUOTATURA
 10
-2969.979
 11
-3069.979
 20
2636.764
 21
2620.094
  0
LINE
  8
QUOTATURA
 10
-3069.979
 11
-3069.979
 20
2620.094
 21
2653.434
  0
LINE
  8
QUOTATURA
 10
-2909.979
 11
-2709.979
 20
2636.764
 21
2636.764
  0
LINE
  8
QUOTATURA
 10
-2809.979
 11
-2909.979
 20
2620.094
 21
2636.764
  0
LINE
  8
QUOTATURA
 10
-2909.979
 11
-2809.979
 20
2636.764
 21
2653.434
  0
LINE
  8
QUOTATURA
 10
-2809.979
 11
-2809.979
 20
2653.434
 21
2620.094
  0
TEXT
  8
QUOTATURA
 10
348.739
 20
-123.908
 30
0.0
 40
20.0
 50
0.0
  1
LANTA+6
  0
TEXT
  8
QUOTATURA
 10
-225.473
 20
1049.5
 30
0.0
 40
20.0
 50
0.0
  1
HANTA+10
  0
TEXT
  8
QUOTATURA
 10
-107.893
 20
1205.105
 30
0.0
 40
20.0
 50
0.0
  1
35
  0
TEXT
  8
TEXT
 10
-408.353
 20
-168.869
 30
0.0
 40
30.0
 50
0.0
  1
INDICARE IL BASSO
  0
TEXT
  8
TEXT
 10
-103.77
 20
-306.309
 30
0.0
 40
50.0
 50
0.0
  1
D1
  0
TEXT
  8
TEXT
 10
879.124
 20
715.323
 30
0.0
 40
50.0
 50
0.0
  1
SEZ A
  0
TEXT
  8
TEXT
 10
81.693
 20
2168.52
 30
0.0
 40
50.0
 50
0.0
  1
SEZ B
  0
TEXT
  8
TEXT
 10
1203.814
 20
-536.379
 30
0.0
 40
20.0
 50
0.0
  1
B.Stefano
  0
TEXT
  8
TEXT
 10
-233.384
 20
-413.613
 30
0.0
 40
15.0
 50
0.0
  1
file:
  0
TEXT
  8
TEXT
 10
1103.834
 20
-413.922
 30
0.0
 40
15.0
 50
0.0
  1
data:
  0
TEXT
  8
TEXT
 10
1217.371
 20
-433.722
 30
0.0
 40
20.0
 50
0.0
  1
18/09/14
  0
TEXT
  8
TEXT
 10
1218.39
 20
-590.196
 30
0.0
 40
20.0
 50
0.0
  1
1 : 10
  0
TEXT
  8
TEXT
 10
1101.97
 20
-511.537
 30
0.0
 40
15.0
 50
0.0
  1
responsabile tecnico:
  0
TEXT
  8
TEXT
 10
1104.025
 20
-563.92
 30
0.0
 40
15.0
 50
0.0
  1
scala:
  0
TEXT
  8
TEXT
 10
-695.422
 20
-414.21
 30
0.0
 40
15.0
 50
0.0
  1
Ufficio tecnico:
  0
TEXT
  8
TEXT
 10
-696.421
 20
-486.931
 30
0.0
 40
20.0
 50
0.0
  1
tel. 0577-68.54.26
  0
TEXT
  8
TEXT
 10
-696.421
 20
-516.931
 30
0.0
 40
20.0
 50
0.0
  1
fax 0577-68.64.29
  0
TEXT
  8
TEXT
 10
-696.421
 20
-546.931
 30
0.0
 40
20.0
 50
0.0
  1
e-mail: tecnico@toscocornici.it
  0
TEXT
  8
TEXT
 10
-696.421
 20
-576.931
 30
0.0
 40
20.0
 50
0.0
  1
web: www.tosococornici.it
  0
TEXT
  8
TEXT
 10
-186.539
 20
-434.195
 30
0.0
 40
20.0
 50
0.0
  1
TAMBURATO PIENO LEGNO8
  0
TEXT
  8
TEXT
 10
-233.384
 20
-463.613
 30
0.0
 40
15.0
 50
0.0
  1
pezzo:
  0
TEXT
  8
TEXT
 10
-186.539
 20
-484.195
 30
0.0
 40
20.0
 50
0.0
  1
PEZZO
  0
TEXT
  8
TEXT
 10
-233.384
 20
-513.613
 30
0.0
 40
15.0
 50
0.0
  1
note:
  0
TEXT
  8
TEXT
 10
-186.539
 20
-534.195
 30
0.0
 40
20.0
 50
0.0
  1
NOTE
  0
TEXT
  8
TEXT
 10
300.765
 20
-463.613
 30
0.0
 40
15.0
 50
0.0
  1
lotto:
  0
TEXT
  8
TEXT
 10
348.814
 20
-484.195
 30
0.0
 40
20.0
 50
0.0
  1
________
  0
TEXT
  8
TEXT
 10
800.765
 20
-463.613
 30
0.0
 40
15.0
 50
0.0
  1
ordine:
  0
TEXT
  8
TEXT
 10
854.854
 20
-484.195
 30
0.0
 40
20.0
 50
0.0
  1
______
  0
TEXT
  8
TEXT
 10
1101.872
 20
-463.613
 30
0.0
 40
15.0
 50
0.0
  1
pos:
  0
TEXT
  8
TEXT
 10
1146.287
 20
-484.195
 30
0.0
 40
20.0
 50
0.0
  1
_______
  0
TEXT
  8
TEXT
 10
-586.979
 20
-57.729
 30
0.0
 40
50.0
 50
0.0
  1
D2
  0
TEXT
  8
TEXT
 10
-2775.239
 20
302.766
 30
0.0
 40
100.0
 50
0.0
  1
D1
  0
TEXT
  8
TEXT
 10
-3864.492
 20
-729.17
 30
0.0
 40
100.0
 50
0.0
  1
CALIBRATO
  0
TEXT
  8
TEXT
 10
-3944.049
 20
58.736
 30
0.0
 40
100.0
 50
0.0
  1
LEGNO=ANTA
  0
TEXT
  8
TEXT
 10
-2091.699
 20
-202.282
 30
0.0
 40
50.0
 50
0.0
  1
LEGNO
  0
TEXT
  8
TEXT
 10
-2091.75
 20
1374.135
 30
0.0
 40
100.0
 50
0.0
  1
D2
  0
TEXT
  8
TEXT
 10
-3714.043
 20
1530.467
 30
0.0
 40
100.0
 50
0.0
  1
CALIBRATO
  0
TEXT
  8
TEXT
 10
-3520.586
 20
1336.785
 30
0.0
 40
100.0
 50
0.0
  1
LEGNO=ANTA
  0
TEXT
  8
QUOTATURA
 10
-2959.017
 20
-1076.815
 30
0.0
 40
100.0
 50
0.0
  1
35
  0
TEXT
  8
QUOTATURA
 10
-2007.605
 20
-814.522
 30
0.0
 40
100.0
 50
0.0
  1
7.75
  0
TEXT
  8
QUOTATURA
 10
-2362.351
 20
-42.544
 30
0.0
 40
100.0
 50
0.0
  1
30
  0
TEXT
  8
QUOTATURA
 10
-3574.691
 20
-419.631
 30
0.0
 40
100.0
 50
0.0
  1
45.5
  0
TEXT
  8
QUOTATURA
 10
-3550.139
 20
1658.374
 30
0.0
 40
100.0
 50
0.0
  1
45.5
  0
TEXT
  8
QUOTATURA
 10
-2392.111
 20
2938.697
 30
0.0
 40
100.0
 50
0.0
  1
30
  0
TEXT
  8
TEXT
 10
-3966.378
 20
-91.825
 30
0.0
 40
100.0
 50
0.0
  1
MULTISTRATO=ANTA-70
  0
TEXT
  8
TEXT
 10
-2227.697
 20
-386.88
 30
0.0
 40
50.0
 50
0.0
  1
MULTISTRATO
  0
TEXT
  8
TEXT
 10
-2717.526
 20
2787.701
 30
0.0
 40
50.0
 50
90.0
  1
MULTISTRATO
  0
TEXT
  8
TEXT
 10
-3691.374
 20
1108.211
 30
0.0
 40
100.0
 50
0.0
  1
MULTISTRATO=ANTA
  0
TEXT
  8
QUOTATURA
 10
-3056.026
 20
-419.631
 30
0.0
 40
100.0
 50
0.0
  1
35
  0
TEXT
  8
QUOTATURA
 10
-2807.175
 20
-428.529
 30
0.0
 40
100.0
 50
0.0
  1
5.25
  0
TEXT
  8
QUOTATURA
 10
-3489.915
 20
2586.764
 30
0.0
 40
100.0
 50
0.0
  1
7.75
  0
ENDSEC
  0
EOF
