  0
SECTION
  2
ENTITIES
  0
CIRCLE
  8
APS_GEOMETRY
 10
0.0
 20
-95.0
 40
24.25
  0
LINE
  8
COSTRUZIONI
 10
0.0
 11
0.0
 20
-95.0
 21
0.0
  0
LINE
  8
QUOTATURA
 10
-19.63083
 11
79.764548
 20
-109.237029
 21
-37.151697
  0
LINE
  8
QUOTATURA
 10
79.764548
 11
97.992751
 20
-37.151697
 21
-37.151697
  0
LINE
  8
QUOTATURA
 10
37.778577
 11
19.63083
 20
-71.720026
 21
-80.762971
  0
LINE
  8
QUOTATURA
 10
19.63083
 11
33.863834
 20
-80.762971
 21
-66.322155
  0
LINE
  8
QUOTATURA
 10
33.863834
 11
37.778577
 20
-66.322155
 21
-71.720026
  0
LINE
  8
QUOTATURA
 10
-10.0
 11
-134.110026
 20
-95.0
 21
-95.0
  0
LINE
  8
QUOTATURA
 10
-10.0
 11
-134.110026
 20
0.0
 21
0.0
  0
LINE
  8
QUOTATURA
 10
-124.110026
 11
-124.110026
 20
-95.0
 21
-62.748039
  0
LINE
  8
QUOTATURA
 10
-124.110026
 11
-124.110026
 20
-32.49244
 21
0.0
  0
LINE
  8
QUOTATURA
 10
-120.776026
 11
-124.110026
 20
-75.0
 21
-95.0
  0
LINE
  8
QUOTATURA
 10
-124.110026
 11
-127.444026
 20
-95.0
 21
-75.0
  0
LINE
  8
QUOTATURA
 10
-127.444026
 11
-120.776026
 20
-75.0
 21
-75.0
  0
LINE
  8
QUOTATURA
 10
-127.444026
 11
-124.110026
 20
-20.0
 21
0.0
  0
LINE
  8
QUOTATURA
 10
-124.110026
 11
-120.776026
 20
0.0
 21
-20.0
  0
LINE
  8
QUOTATURA
 10
-120.776026
 11
-127.444026
 20
-20.0
 21
-20.0
  0
LINE
  8
QUOTATURA
 10
-30.89746
 11
-15.823259
 20
26.922679
 21
13.362295
  0
LINE
  8
QUOTATURA
 10
-15.823259
 11
-34.481116
 20
13.362295
 21
21.299545
  0
LINE
  8
QUOTATURA
 10
-34.481116
 11
-30.89746
 20
21.299545
 21
26.922679
  0
LINE
  8
QUOTATURA
 10
-15.823259
 11
-96.205359
 20
13.362295
 21
64.590266
  0
LINE
  8
QUOTATURA
 10
-96.205359
 11
94.545946
 20
64.590266
 21
64.590266
  0
TEXT
  8
QUOTATURA
 10
102.992751
 20
-47.151697
 30
0.0
 40
20.0
 50
0.0
  1
Ø48.5
  0
TEXT
  8
QUOTATURA
 10
-140.460306
 20
-57.5
 30
0.0
 40
20.0
 50
0.0
  1
95 sotto
  0
TEXT
  8
TEXT
 10
-81.211807
 20
72.503529
 30
0.0
 40
30.0
 50
0.0
  1
rif.maniglia
  0
TEXT
  8
TEXT
 10
-97.94601
 20
-179.871025
 30
0.0
 40
30.0
 50
0.0
  1
foro da eseguire
  0
TEXT
  8
TEXT
 10
-97.94601
 20
-224.871025
 30
0.0
 40
30.0
 50
0.0
  1
in caso di circolare d48
  0
ENDSEC
  0
EOF
