  0
SECTION
  2
ENTITIES
  0
LINE
  8
QUOTATURA
 10
-34.5
 11
-34.5
 20
10.0
 21
46.519
  0
LINE
  8
QUOTATURA
 10
0.0
 11
0.0
 20
10.0
 21
46.519
  0
LINE
  8
QUOTATURA
 10
-34.5
 11
-82.331
 20
36.519
 21
36.519
  0
LINE
  8
QUOTATURA
 10
-54.5
 11
-34.5
 20
39.853
 21
36.519
  0
LINE
  8
QUOTATURA
 10
-34.5
 11
-54.5
 20
36.519
 21
33.185
  0
LINE
  8
QUOTATURA
 10
-54.5
 11
-54.5
 20
33.185
 21
39.853
  0
LINE
  8
QUOTATURA
 10
0.0
 11
40.0
 20
36.519
 21
36.519
  0
LINE
  8
QUOTATURA
 10
20.0
 11
0.0
 20
33.185
 21
36.519
  0
LINE
  8
QUOTATURA
 10
0.0
 11
20.0
 20
36.519
 21
39.853
  0
LINE
  8
QUOTATURA
 10
20.0
 11
20.0
 20
39.853
 21
33.185
  0
LINE
  8
QUOTATURA
 10
0.0
 11
0.0
 20
-3.334
 21
3.334
  0
LINE
  8
QUOTATURA
 10
-3.334
 11
3.334
 20
0.0
 21
0.0
  0
LINE
  8
QUOTATURA
 10
-30.897
 11
-15.823
 20
26.923
 21
13.362
  0
LINE
  8
QUOTATURA
 10
-15.823
 11
-34.481
 20
13.362
 21
21.3
  0
LINE
  8
QUOTATURA
 10
-34.481
 11
-30.897
 20
21.3
 21
26.923
  0
LINE
  8
QUOTATURA
 10
-15.823
 11
-96.205
 20
13.362
 21
64.59
  0
LINE
  8
QUOTATURA
 10
-96.205
 11
94.546
 20
64.59
 21
64.59
  0
LINE
  8
COSTRUZIONI
 10
-13.25
 11
13.25
 20
-95.0
 21
-95.0
  0
LINE
  8
COSTRUZIONI
 10
0.0
 11
0.0
 20
0.0
 21
-116.825
  0
LINE
  8
APS_GEOMETRY
 10
13.25
 11
13.25
 20
-36.575
 21
-103.575
  0
ARC
  8
APS_GEOMETRY
 10
0.0
 20
-103.575
 40
13.25
 50
180.0
 51
360.0
  0
LINE
  8
APS_GEOMETRY
 10
-13.25
 11
-13.25
 20
-103.575
 21
-36.575
  0
ARC
  8
APS_GEOMETRY
 10
0.0
 20
-36.575
 40
13.25
 50
360.0
 51
180.0
  0
LINE
  8
COSTRUZIONI
 10
-468.491
 11
-468.491
 20
143.461
 21
143.461
  0
CIRCLE
  8
COSTRUZIONI
 10
0.0
 20
0.0
 40
5.0
  0
LINE
  8
QUOTATURA
 10
-23.25
 11
-125.733
 20
-95.0
 21
-95.0
  0
LINE
  8
QUOTATURA
 10
-10.0
 11
-125.733
 20
0.0
 21
0.0
  0
LINE
  8
QUOTATURA
 10
-115.733
 11
-115.733
 20
-95.0
 21
-62.748
  0
LINE
  8
QUOTATURA
 10
-115.733
 11
-115.733
 20
-32.492
 21
0.0
  0
LINE
  8
QUOTATURA
 10
-112.399
 11
-115.733
 20
-75.0
 21
-95.0
  0
LINE
  8
QUOTATURA
 10
-115.733
 11
-119.067
 20
-95.0
 21
-75.0
  0
LINE
  8
QUOTATURA
 10
-119.067
 11
-112.399
 20
-75.0
 21
-75.0
  0
LINE
  8
QUOTATURA
 10
-119.067
 11
-115.733
 20
-20.0
 21
0.0
  0
LINE
  8
QUOTATURA
 10
-115.733
 11
-112.399
 20
0.0
 21
-20.0
  0
LINE
  8
QUOTATURA
 10
-112.399
 11
-119.067
 20
-20.0
 21
-20.0
  0
LINE
  8
QUOTATURA
 10
0.0
 11
0.0
 20
-3.334
 21
3.334
  0
LINE
  8
QUOTATURA
 10
-3.334
 11
3.334
 20
0.0
 21
0.0
  0
LINE
  8
QUOTATURA
 10
10.0
 11
148.356
 20
-23.325
 21
-23.325
  0
LINE
  8
QUOTATURA
 10
10.0
 11
148.356
 20
-116.825
 21
-116.825
  0
LINE
  8
QUOTATURA
 10
138.356
 11
138.356
 20
-23.325
 21
-55.012
  0
LINE
  8
QUOTATURA
 10
138.356
 11
138.356
 20
-85.323
 21
-116.825
  0
LINE
  8
QUOTATURA
 10
135.022
 11
138.356
 20
-43.325
 21
-23.325
  0
LINE
  8
QUOTATURA
 10
138.356
 11
141.69
 20
-23.325
 21
-43.325
  0
LINE
  8
QUOTATURA
 10
141.69
 11
135.022
 20
-43.325
 21
-43.325
  0
LINE
  8
QUOTATURA
 10
141.69
 11
138.356
 20
-96.825
 21
-116.825
  0
LINE
  8
QUOTATURA
 10
138.356
 11
135.022
 20
-116.825
 21
-96.825
  0
LINE
  8
QUOTATURA
 10
135.022
 11
141.69
 20
-96.825
 21
-96.825
  0
LINE
  8
QUOTATURA
 10
-13.25
 11
-13.25
 20
-113.575
 21
-152.543
  0
LINE
  8
QUOTATURA
 10
13.25
 11
13.25
 20
-113.575
 21
-152.543
  0
LINE
  8
QUOTATURA
 10
13.25
 11
117.248
 20
-142.543
 21
-142.543
  0
LINE
  8
QUOTATURA
 10
33.25
 11
13.25
 20
-145.877
 21
-142.543
  0
LINE
  8
QUOTATURA
 10
13.25
 11
33.25
 20
-142.543
 21
-139.209
  0
LINE
  8
QUOTATURA
 10
33.25
 11
33.25
 20
-139.209
 21
-145.877
  0
LINE
  8
QUOTATURA
 10
-13.25
 11
-53.25
 20
-142.543
 21
-142.543
  0
LINE
  8
QUOTATURA
 10
-33.25
 11
-13.25
 20
-139.209
 21
-142.543
  0
LINE
  8
QUOTATURA
 10
-13.25
 11
-33.25
 20
-142.543
 21
-145.877
  0
LINE
  8
QUOTATURA
 10
-33.25
 11
-33.25
 20
-145.877
 21
-139.209
  0
LINE
  8
QUOTATURA
 10
0.0
 11
0.0
 20
-39.909
 21
-33.241
  0
LINE
  8
QUOTATURA
 10
-3.334
 11
3.334
 20
-36.575
 21
-36.575
  0
LINE
  8
QUOTATURA
 10
0.0
 11
58.619
 20
-36.575
 21
9.282
  0
LINE
  8
QUOTATURA
 10
58.619
 11
74.673
 20
9.282
 21
9.282
  0
LINE
  8
QUOTATURA
 10
28.243
 11
10.436
 20
-18.714
 21
-28.411
  0
LINE
  8
QUOTATURA
 10
10.436
 11
24.134
 20
-28.411
 21
-13.462
  0
LINE
  8
QUOTATURA
 10
24.134
 11
28.243
 20
-13.462
 21
-18.714
  0
TEXT
  8
QUOTATURA
 10
-148.894
 20
26.519
 30
0.0
 40
20.0
 50
0.0
  1
34.5
  0
TEXT
  8
TEXT
 10
-81.212
 20
72.504
 30
0.0
 40
30.0
 50
0.0
  1
rif.maniglia
  0
TEXT
  8
TEXT
 10
-192.296
 20
-202.412
 30
0.0
 40
30.0
 50
0.0
  1
foro da eseguire
  0
TEXT
  8
TEXT
 10
-192.296
 20
-247.412
 30
0.0
 40
30.0
 50
0.0
  1
in caso di conchiglia 93.5X26.5
  0
TEXT
  8
QUOTATURA
 10
-132.083
 20
-57.5
 30
0.0
 40
20.0
 50
0.0
  1
95 sotto
  0
TEXT
  8
QUOTATURA
 10
109.816
 20
-80.075
 30
0.0
 40
20.0
 50
0.0
  1
93.5
  0
TEXT
  8
QUOTATURA
 10
122.248
 20
-152.543
 30
0.0
 40
20.0
 50
0.0
  1
26.5
  0
TEXT
  8
QUOTATURA
 10
79.673
 20
-0.718
 30
0.0
 40
20.0
 50
0.0
  1
R13.3
  0
ENDSEC
  0
EOF
