  0
SECTION
  2
ENTITIES
  0
CIRCLE
  8
COSTRUZIONI
 10
0.0
 20
-575.25
 40
15.0
  0
LINE
  8
COSTRUZIONI
 10
7.5
 11
-7.5
 20
-575.25
 21
-575.25
  0
CIRCLE
  8
COSTRUZIONI
 10
0.0
 20
0.0
 40
15.0
  0
LINE
  8
COSTRUZIONI
 10
7.5
 11
-7.5
 20
0.0
 21
0.0
  0
CIRCLE
  8
COSTRUZIONI
 10
0.0
 20
575.25
 40
15.0
  0
LINE
  8
QUOTATURA
 10
-18.854
 11
0.0
 20
567.792
 21
575.25
  0
LINE
  8
QUOTATURA
 10
0.0
 11
-15.416
 20
575.25
 21
562.079
  0
LINE
  8
QUOTATURA
 10
-15.416
 11
-18.854
 20
562.079
 21
567.792
  0
LINE
  8
QUOTATURA
 10
0.0
 11
-686.855
 20
575.25
 21
161.79
  0
LINE
  8
QUOTATURA
 10
-686.855
 11
-979.414
 20
161.79
 21
161.79
  0
LINE
  8
QUOTATURA
 10
-979.414
 11
-979.414
 20
161.79
 21
28.809
  0
LINE
  8
QUOTATURA
 10
-979.414
 11
-689.514
 20
28.809
 21
28.809
  0
LINE
  8
QUOTATURA
 10
-689.514
 11
-689.514
 20
28.809
 21
161.79
  0
LINE
  8
QUOTATURA
 10
-19.329
 11
0.0
 20
6.124
 21
0.0
  0
LINE
  8
QUOTATURA
 10
0.0
 11
-20.27
 20
0.0
 21
-0.477
  0
LINE
  8
QUOTATURA
 10
-20.27
 11
-19.329
 20
-0.477
 21
6.124
  0
LINE
  8
QUOTATURA
 10
0.0
 11
-686.855
 20
0.0
 21
97.959
  0
LINE
  8
QUOTATURA
 10
-12.374
 11
0.0
 20
-559.188
 21
-575.25
  0
LINE
  8
QUOTATURA
 10
0.0
 11
-16.916
 20
-575.25
 21
-564.071
  0
LINE
  8
QUOTATURA
 10
-16.916
 11
-12.374
 20
-564.071
 21
-559.188
  0
LINE
  8
QUOTATURA
 10
0.0
 11
-689.514
 20
-575.25
 21
66.043
  0
TEXT
  8
TEXT
 10
-958.137
 20
105.938
 30
0.0
 40
30.0
 50
0.0
  1
ISOLE
  0
TEXT
  8
TEXT
 10
-958.137
 20
60.938
 30
0.0
 40
30.0
 50
0.0
  1
NON FORARE
  0
ENDSEC
  0
EOF
