  0
SECTION
  2
ENTITIES
  0
LINE
  8
COSTRUZIONI
 10
3396.900128
 11
3396.900128
 20
4.5
 21
2105.5
  0
LINE
  8
COSTRUZIONI
 10
3396.900128
 11
2623.900128
 20
2105.5
 21
2105.5
  0
LINE
  8
COSTRUZIONI
 10
2623.900128
 11
2623.900128
 20
2105.5
 21
4.5
  0
LINE
  8
COSTRUZIONI
 10
2623.900128
 11
3396.900128
 20
4.5
 21
4.5
  0
LINE
  8
COSTRUZIONI
 10
3282.400128
 11
2738.400128
 20
134.5
 21
134.5
  0
LINE
  8
COSTRUZIONI
 10
2738.400128
 11
2738.400128
 20
134.5
 21
1975.5
  0
LINE
  8
COSTRUZIONI
 10
2738.400128
 11
3282.400128
 20
1975.5
 21
1975.5
  0
LINE
  8
COSTRUZIONI
 10
3282.400128
 11
3282.400128
 20
1975.5
 21
1124.030238
  0
LINE
  8
COSTRUZIONI
 10
3282.400128
 11
3204.329866
 20
1124.030238
 21
889.106648
  0
LINE
  8
COSTRUZIONI
 10
3204.329866
 11
3282.400128
 20
889.106648
 21
844.428204
  0
LINE
  8
COSTRUZIONI
 10
3282.400128
 11
3282.400128
 20
844.428204
 21
134.5
  0
LINE
  8
COSTRUZIONI
 10
3332.400128
 11
3332.400128
 20
84.5
 21
873.422766
  0
LINE
  8
COSTRUZIONI
 10
3332.400128
 11
3264.684734
 20
873.422766
 21
912.175273
  0
LINE
  8
COSTRUZIONI
 10
3264.684734
 11
3332.400128
 20
912.175273
 21
1115.939716
  0
LINE
  8
COSTRUZIONI
 10
3332.400128
 11
3332.400128
 20
1115.939716
 21
2025.5
  0
LINE
  8
COSTRUZIONI
 10
3332.400128
 11
2688.400128
 20
2025.5
 21
2025.5
  0
LINE
  8
COSTRUZIONI
 10
2688.400128
 11
2688.400128
 20
2025.5
 21
84.5
  0
LINE
  8
COSTRUZIONI
 10
2688.400128
 11
3332.400128
 20
84.5
 21
84.5
  0
CIRCLE
  8
COSTRUZIONI
 10
3010.400128
 20
1055.0
 40
15.0
  0
CIRCLE
  8
COSTRUZIONI
 10
3010.400128
 20
479.75
 40
15.0
  0
CIRCLE
  8
COSTRUZIONI
 10
3010.400128
 20
1630.25
 40
15.0
  0
LINE
  8
COSTRUZIONI
 10
2738.400128
 11
3282.400128
 20
134.5
 21
1975.5
  0
LINE
  8
COSTRUZIONI
 10
2738.400128
 11
3282.400128
 20
1975.5
 21
134.5
  0
LINE
  8
COSTRUZIONI
 10
3685.3813
 11
3685.3813
 20
0.0
 21
2101.0
  0
LINE
  8
COSTRUZIONI
 10
3685.3813
 11
4458.3813
 20
2101.0
 21
2101.0
  0
LINE
  8
COSTRUZIONI
 10
4458.3813
 11
4458.3813
 20
2101.0
 21
0.0
  0
LINE
  8
COSTRUZIONI
 10
4458.3813
 11
3685.3813
 20
0.0
 21
0.0
  0
LINE
  8
COSTRUZIONI
 10
3799.8813
 11
4343.8813
 20
130.0
 21
130.0
  0
LINE
  8
COSTRUZIONI
 10
4343.8813
 11
4343.8813
 20
130.0
 21
1971.0
  0
LINE
  8
COSTRUZIONI
 10
4343.8813
 11
3799.8813
 20
1971.0
 21
1971.0
  0
LINE
  8
COSTRUZIONI
 10
3799.8813
 11
3799.8813
 20
1971.0
 21
1119.530238
  0
LINE
  8
COSTRUZIONI
 10
3799.8813
 11
3877.951562
 20
1119.530238
 21
884.606648
  0
LINE
  8
COSTRUZIONI
 10
3877.951562
 11
3799.8813
 20
884.606648
 21
839.928204
  0
LINE
  8
COSTRUZIONI
 10
3799.8813
 11
3799.8813
 20
839.928204
 21
130.0
  0
LINE
  8
COSTRUZIONI
 10
3749.8813
 11
3749.8813
 20
80.0
 21
868.922766
  0
LINE
  8
COSTRUZIONI
 10
3749.8813
 11
3817.596694
 20
868.922766
 21
907.675273
  0
LINE
  8
COSTRUZIONI
 10
3817.596694
 11
3749.8813
 20
907.675273
 21
1111.439716
  0
LINE
  8
COSTRUZIONI
 10
3749.8813
 11
3749.8813
 20
1111.439716
 21
2021.0
  0
LINE
  8
COSTRUZIONI
 10
3749.8813
 11
4393.8813
 20
2021.0
 21
2021.0
  0
LINE
  8
COSTRUZIONI
 10
4393.8813
 11
4393.8813
 20
2021.0
 21
80.0
  0
LINE
  8
COSTRUZIONI
 10
4393.8813
 11
3749.8813
 20
80.0
 21
80.0
  0
CIRCLE
  8
COSTRUZIONI
 10
4071.8813
 20
1050.5
 40
15.0
  0
CIRCLE
  8
COSTRUZIONI
 10
4071.8813
 20
475.25
 40
15.0
  0
CIRCLE
  8
COSTRUZIONI
 10
4071.8813
 20
1625.75
 40
15.0
  0
LINE
  8
COSTRUZIONI
 10
4343.8813
 11
3799.8813
 20
130.0
 21
1971.0
  0
LINE
  8
COSTRUZIONI
 10
4343.8813
 11
3799.8813
 20
1971.0
 21
130.0
  0
ENDSEC
  0
EOF
