  0
SECTION
  2
ENTITIES
  0
LINE
  8
COSTRUZIONI
 10
2484.268
 11
4484.268
 20
-814.866
 21
-814.866
  0
LINE
  8
COSTRUZIONI
 10
4484.268
 11
4484.268
 20
-814.866
 21
-614.866
  0
LINE
  8
COSTRUZIONI
 10
4484.268
 11
2484.268
 20
-614.866
 21
-614.866
  0
LINE
  8
COSTRUZIONI
 10
2484.268
 11
2484.268
 20
-614.866
 21
-814.866
  0
LINE
  8
COSTRUZIONI
 10
3484.268
 11
3484.268
 20
-814.866
 21
-614.866
  0
LINE
  8
COSTRUZIONI
 10
3484.268
 11
4484.268
 20
-714.866
 21
-714.866
  0
LINE
  8
COSTRUZIONI
 10
3984.268
 11
3984.268
 20
-814.866
 21
-614.866
  0
LINE
  8
APS_GEOMETRY
 10
2546.953
 11
2564.188
 20
-668.851
 21
-668.851
  0
ARC
  8
APS_GEOMETRY
 10
2563.316
 20
-644.156
 40
24.711
 50
272.021
 51
278.44
  0
ARC
  8
APS_GEOMETRY
 10
2564.289
 20
-650.711
 40
18.083
 50
278.44
 51
285.945
  0
ARC
  8
APS_GEOMETRY
 10
2571.606
 20
-676.909
 40
9.118
 50
98.584
 51
104.931
  0
ARC
  8
APS_GEOMETRY
 10
2570.99
 20
-672.828
 40
4.991
 50
90.0
 51
98.584
  0
ARC
  8
APS_GEOMETRY
 10
2570.99
 20
-671.589
 40
3.752
 50
52.871
 51
90.0
  0
ARC
  8
APS_GEOMETRY
 10
2565.902
 20
-678.31
 40
12.182
 50
32.518
 51
52.871
  0
ARC
  8
APS_GEOMETRY
 10
2561.87
 20
-680.88
 40
16.963
 50
17.209
 51
32.518
  0
ARC
  8
APS_GEOMETRY
 10
2565.23
 20
-679.84
 40
13.445
 50
360.0
 51
17.209
  0
ARC
  8
APS_GEOMETRY
 10
2571.958
 20
-679.84
 40
6.717
 50
337.348
 51
360.0
  0
ARC
  8
APS_GEOMETRY
 10
2574.658
 20
-680.966
 40
3.792
 50
307.042
 51
337.348
  0
ARC
  8
APS_GEOMETRY
 10
2574.189
 20
-680.322
 40
4.589
 50
287.186
 51
306.87
  0
ARC
  8
APS_GEOMETRY
 10
2573.77
 20
-678.968
 40
6.006
 50
270.0
 51
287.186
  0
ARC
  8
APS_GEOMETRY
 10
2573.77
 20
-679.581
 40
5.393
 50
252.221
 51
270.0
  0
ARC
  8
APS_GEOMETRY
 10
2573.519
 20
-680.364
 40
4.571
 50
232.896
 51
252.221
  0
ARC
  8
APS_GEOMETRY
 10
2574.49
 20
-679.081
 40
6.18
 50
218.3
 51
232.896
  0
ARC
  8
APS_GEOMETRY
 10
2582.07
 20
-673.094
 40
15.839
 50
209.197
 51
218.3
  0
ARC
  8
APS_GEOMETRY
 10
2543.516
 20
-693.982
 40
28.012
 50
28.025
 51
32.699
  0
ARC
  8
APS_GEOMETRY
 10
2563.672
 20
-681.042
 40
4.06
 50
32.699
 51
45.0
  0
ARC
  8
APS_GEOMETRY
 10
2565.046
 20
-679.668
 40
2.116
 50
45.0
 51
67.557
  0
ARC
  8
APS_GEOMETRY
 10
2565.038
 20
-679.688
 40
2.137
 50
67.557
 51
90.0
  0
ARC
  8
APS_GEOMETRY
 10
2565.038
 20
-679.519
 40
1.969
 50
90.0
 51
120.801
  0
ARC
  8
APS_GEOMETRY
 10
2564.972
 20
-679.408
 40
1.839
 50
120.801
 51
152.7
  0
ARC
  8
APS_GEOMETRY
 10
2566.431
 20
-680.161
 40
3.481
 50
152.7
 51
171.085
  0
ARC
  8
APS_GEOMETRY
 10
2577.519
 20
-681.9
 40
14.705
 50
171.085
 51
180.0
  0
LINE
  8
APS_GEOMETRY
 10
2562.814
 11
2562.814
 20
-681.9
 21
-700.214
  0
ARC
  8
APS_GEOMETRY
 10
2582.241
 20
-700.214
 40
19.427
 50
180.0
 51
188.194
  0
ARC
  8
APS_GEOMETRY
 10
2567.734
 20
-702.303
 40
4.77
 50
188.194
 51
204.775
  0
ARC
  8
APS_GEOMETRY
 10
2566.324
 20
-702.954
 40
3.218
 50
204.775
 51
228.576
  0
ARC
  8
APS_GEOMETRY
 10
2567.647
 20
-701.455
 40
5.216
 50
228.576
 51
247.218
  0
ARC
  8
APS_GEOMETRY
 10
2559.978
 20
-719.527
 40
14.416
 50
59.381
 51
66.93
  0
ARC
  8
APS_GEOMETRY
 10
2565.639
 20
-709.962
 40
3.301
 50
43.568
 51
59.381
  0
ARC
  8
APS_GEOMETRY
 10
2566.545
 20
-709.1
 40
2.051
 50
19.041
 51
43.568
  0
ARC
  8
APS_GEOMETRY
 10
2565.286
 20
-709.534
 40
3.382
 50
360.0
 51
19.041
  0
ARC
  8
APS_GEOMETRY
 10
2565.921
 20
-709.534
 40
2.747
 50
317.66
 51
360.0
  0
ARC
  8
APS_GEOMETRY
 10
2563.399
 20
-707.236
 40
6.16
 50
289.747
 51
317.66
  0
ARC
  8
APS_GEOMETRY
 10
2561.286
 20
-701.351
 40
12.412
 50
281.964
 51
289.747
  0
ARC
  8
APS_GEOMETRY
 10
2558.359
 20
-687.539
 40
26.531
 50
276.643
 51
281.964
  0
ARC
  8
APS_GEOMETRY
 10
2557.127
 20
-676.964
 40
37.178
 50
272.836
 51
276.643
  0
ARC
  8
APS_GEOMETRY
 10
2555.652
 20
-647.188
 40
66.99
 50
270.0
 51
272.836
  0
ARC
  8
APS_GEOMETRY
 10
2555.652
 20
-628.738
 40
85.44
 50
267.283
 51
270.0
  0
ARC
  8
APS_GEOMETRY
 10
2553.858
 20
-666.541
 40
47.595
 50
263.643
 51
267.283
  0
ARC
  8
APS_GEOMETRY
 10
2552.356
 20
-680.025
 40
34.027
 50
258.563
 51
263.643
  0
ARC
  8
APS_GEOMETRY
 10
2548.767
 20
-697.764
 40
15.929
 50
251.136
 51
258.563
  0
ARC
  8
APS_GEOMETRY
 10
2545.563
 20
-707.057
 40
6.099
 50
222.558
 51
251.395
  0
ARC
  8
APS_GEOMETRY
 10
2543.186
 20
-709.24
 40
2.871
 50
180.0
 51
222.558
  0
ARC
  8
APS_GEOMETRY
 10
2542.706
 20
-709.24
 40
2.392
 50
150.642
 51
180.0
  0
ARC
  8
APS_GEOMETRY
 10
2542.898
 20
-709.348
 40
2.612
 50
122.574
 51
150.642
  0
ARC
  8
APS_GEOMETRY
 10
2542.391
 20
-708.766
 40
1.851
 50
108.677
 51
119.055
  0
ARC
  8
APS_GEOMETRY
 10
2565.506
 20
-777.149
 40
74.036
 50
107.038
 51
108.677
  0
ARC
  8
APS_GEOMETRY
 10
2542.952
 20
-703.386
 40
3.099
 50
286.144
 51
308.66
  0
ARC
  8
APS_GEOMETRY
 10
2543.459
 20
-704.02
 40
2.287
 50
308.66
 51
334.933
  0
ARC
  8
APS_GEOMETRY
 10
2541.395
 20
-703.054
 40
4.566
 50
334.933
 51
348.829
  0
ARC
  8
APS_GEOMETRY
 10
2515.569
 20
-697.954
 40
30.891
 50
348.829
 51
354.161
  0
ARC
  8
APS_GEOMETRY
 10
2498.113
 20
-696.155
 40
48.439
 50
354.144
 51
355.66
  0
ARC
  8
APS_GEOMETRY
 10
2420.737
 20
-690.283
 40
126.038
 50
355.66
 51
356.6
  0
ARC
  8
APS_GEOMETRY
 10
2361.588
 20
-686.769
 40
185.291
 50
356.6
 51
357.24
  0
ARC
  8
APS_GEOMETRY
 10
2193.763
 20
-678.678
 40
353.311
 50
357.24
 51
357.703
  0
ARC
  8
APS_GEOMETRY
 10
2210.283
 20
-679.34
 40
336.777
 50
357.703
 51
358.674
  0
ARC
  8
APS_GEOMETRY
 10
2366.115
 20
-682.946
 40
180.903
 50
358.674
 51
0.0
  0
ARC
  8
APS_GEOMETRY
 10
2520.209
 20
-682.946
 40
26.81
 50
0.0
 51
6.242
  0
ARC
  8
APS_GEOMETRY
 10
2541.528
 20
-680.615
 40
5.364
 50
6.242
 51
20.225
  0
ARC
  8
APS_GEOMETRY
 10
2544.483
 20
-679.526
 40
2.215
 50
20.225
 51
50.44
  0
ARC
  8
APS_GEOMETRY
 10
2545.056
 20
-678.831
 40
1.314
 50
50.44
 51
90.0
  0
ARC
  8
APS_GEOMETRY
 10
2545.056
 20
-679.28
 40
1.762
 50
90.0
 51
126.747
  0
ARC
  8
APS_GEOMETRY
 10
2547.546
 20
-682.615
 40
5.924
 50
126.747
 51
146.547
  0
ARC
  8
APS_GEOMETRY
 10
2503.559
 20
-653.702
 40
46.715
 50
324.255
 51
326.701
  0
ARC
  8
APS_GEOMETRY
 10
2522.182
 20
-667.106
 40
23.77
 50
320.826
 51
324.255
  0
ARC
  8
APS_GEOMETRY
 10
2528.268
 20
-672.065
 40
15.918
 50
315.722
 51
320.826
  0
ARC
  8
APS_GEOMETRY
 10
2535.262
 20
-678.886
 40
6.149
 50
307.504
 51
315.722
  0
ARC
  8
APS_GEOMETRY
 10
2534.617
 20
-678.024
 40
7.226
 50
291.306
 51
307.405
  0
ARC
  8
APS_GEOMETRY
 10
2535.736
 20
-680.893
 40
4.146
 50
270.0
 51
291.306
  0
ARC
  8
APS_GEOMETRY
 10
2535.736
 20
-681.161
 40
3.879
 50
245.532
 51
270.0
  0
ARC
  8
APS_GEOMETRY
 10
2535.707
 20
-681.225
 40
3.808
 50
220.833
 51
245.532
  0
ARC
  8
APS_GEOMETRY
 10
2536.1
 20
-680.885
 40
4.328
 50
198.684
 51
220.833
  0
ARC
  8
APS_GEOMETRY
 10
2537.741
 20
-680.33
 40
6.06
 50
180.0
 51
198.684
  0
ARC
  8
APS_GEOMETRY
 10
2541.588
 20
-680.33
 40
9.908
 50
168.408
 51
180.0
  0
ARC
  8
APS_GEOMETRY
 10
2547.941
 20
-681.633
 40
16.393
 50
159.402
 51
168.408
  0
ARC
  8
APS_GEOMETRY
 10
2549.904
 20
-682.371
 40
18.49
 50
151.39
 51
159.402
  0
ARC
  8
APS_GEOMETRY
 10
2549.502
 20
-682.152
 40
18.032
 50
143.276
 51
151.39
  0
ARC
  8
APS_GEOMETRY
 10
2544.452
 20
-678.376
 40
11.726
 50
124.216
 51
143.31
  0
ARC
  8
APS_GEOMETRY
 10
2539.955
 20
-671.762
 40
3.728
 50
90.0
 51
124.216
  0
ARC
  8
APS_GEOMETRY
 10
2539.955
 20
-673.418
 40
5.384
 50
82.725
 51
90.0
  0
ARC
  8
APS_GEOMETRY
 10
2539.534
 20
-676.714
 40
8.707
 50
77.005
 51
82.725
  0
ARC
  8
APS_GEOMETRY
 10
2552.382
 20
-614.767
 40
54.561
 50
258.486
 51
260.378
  0
ARC
  8
APS_GEOMETRY
 10
2546.878
 20
-647.232
 40
21.633
 50
260.378
 51
263.382
  0
ARC
  8
APS_GEOMETRY
 10
2546.408
 20
-651.289
 40
17.548
 50
263.382
 51
267.084
  0
ARC
  8
APS_GEOMETRY
 10
2546.953
 20
-640.578
 40
28.273
 50
267.084
 51
270.0
  0
ARC
  8
APS_GEOMETRY
 10
2606.68
 20
-693.717
 40
25.782
 50
71.91
 51
90.0
  0
ARC
  8
APS_GEOMETRY
 10
2607.679
 20
-690.66
 40
22.566
 50
52.561
 51
71.91
  0
ARC
  8
APS_GEOMETRY
 10
2607.417
 20
-690.737
 40
22.786
 50
38.846
 51
52.156
  0
ARC
  8
APS_GEOMETRY
 10
2603.845
 20
-693.613
 40
27.372
 50
26.707
 51
38.846
  0
ARC
  8
APS_GEOMETRY
 10
2604.552
 20
-693.035
 40
26.482
 50
13.868
 51
26.278
  0
ARC
  8
APS_GEOMETRY
 10
2609.652
 20
-691.776
 40
21.229
 50
360.0
 51
13.868
  0
ARC
  8
APS_GEOMETRY
 10
2609.982
 20
-691.776
 40
20.899
 50
339.712
 51
360.0
  0
ARC
  8
APS_GEOMETRY
 10
2608.806
 20
-691.342
 40
22.153
 50
320.013
 51
339.712
  0
ARC
  8
APS_GEOMETRY
 10
2608.611
 20
-691.234
 40
22.372
 50
303.344
 51
320.123
  0
ARC
  8
APS_GEOMETRY
 10
2606.315
 20
-687.745
 40
26.548
 50
287.949
 51
303.344
  0
ARC
  8
APS_GEOMETRY
 10
2605.561
 20
-685.13
 40
29.269
 50
279.039
 51
287.776
  0
ARC
  8
APS_GEOMETRY
 10
2605.863
 20
-687.029
 40
27.346
 50
270.0
 51
279.039
  0
ARC
  8
APS_GEOMETRY
 10
2605.863
 20
-688.364
 40
26.011
 50
257.728
 51
270.0
  0
ARC
  8
APS_GEOMETRY
 10
2605.904
 20
-688.176
 40
26.203
 50
245.501
 51
257.728
  0
ARC
  8
APS_GEOMETRY
 10
2604.431
 20
-691.398
 40
22.66
 50
228.665
 51
245.511
  0
ARC
  8
APS_GEOMETRY
 10
2603.941
 20
-691.955
 40
21.918
 50
211.535
 51
228.665
  0
ARC
  8
APS_GEOMETRY
 10
2604.583
 20
-691.484
 40
22.712
 50
195.642
 51
211.701
  0
ARC
  8
APS_GEOMETRY
 10
2605.757
 20
-691.155
 40
23.931
 50
180.0
 51
195.642
  0
ARC
  8
APS_GEOMETRY
 10
2606.008
 20
-691.155
 40
24.183
 50
162.181
 51
180.0
  0
ARC
  8
APS_GEOMETRY
 10
2603.802
 20
-690.446
 40
21.865
 50
143.434
 51
162.181
  0
ARC
  8
APS_GEOMETRY
 10
2603.505
 20
-690.208
 40
21.485
 50
126.384
 51
143.471
  0
ARC
  8
APS_GEOMETRY
 10
2605.539
 20
-692.969
 40
24.914
 50
110.525
 51
126.384
  0
ARC
  8
APS_GEOMETRY
 10
2605.438
 20
-692.219
 40
24.177
 50
99.77
 51
110.925
  0
ARC
  8
APS_GEOMETRY
 10
2606.68
 20
-699.431
 40
31.496
 50
90.0
 51
99.77
  0
ARC
  8
APS_GEOMETRY
 10
2603.573
 20
-682.129
 40
4.807
 50
90.0
 51
119.604
  0
ARC
  8
APS_GEOMETRY
 10
2603.994
 20
-682.87
 40
5.659
 50
119.604
 51
146.842
  0
ARC
  8
APS_GEOMETRY
 10
2604.841
 20
-683.563
 40
6.748
 50
145.84
 51
164.055
  0
ARC
  8
APS_GEOMETRY
 10
2606.802
 20
-684.124
 40
8.788
 50
164.055
 51
180.0
  0
ARC
  8
APS_GEOMETRY
 10
2619.066
 20
-684.124
 40
21.053
 50
180.0
 51
189.977
  0
ARC
  8
APS_GEOMETRY
 10
2637.718
 20
-680.843
 40
39.991
 50
189.977
 51
197.211
  0
ARC
  8
APS_GEOMETRY
 10
2641.797
 20
-679.579
 40
44.261
 50
197.211
 51
203.76
  0
ARC
  8
APS_GEOMETRY
 10
2631.635
 20
-684.053
 40
33.157
 50
203.76
 51
211.329
  0
ARC
  8
APS_GEOMETRY
 10
2610.767
 20
-696.577
 40
8.821
 50
212.32
 51
224.441
  0
ARC
  8
APS_GEOMETRY
 10
2609.911
 20
-697.416
 40
7.623
 50
224.441
 51
237.484
  0
ARC
  8
APS_GEOMETRY
 10
2609.358
 20
-698.283
 40
6.595
 50
237.484
 51
252.416
  0
ARC
  8
APS_GEOMETRY
 10
2608.806
 20
-700.026
 40
4.766
 50
252.416
 51
270.0
  0
ARC
  8
APS_GEOMETRY
 10
2608.806
 20
-699.461
 40
5.331
 50
270.0
 51
294.953
  0
ARC
  8
APS_GEOMETRY
 10
2608.955
 20
-699.782
 40
4.977
 50
294.953
 51
320.793
  0
ARC
  8
APS_GEOMETRY
 10
2608.155
 20
-699.129
 40
6.011
 50
320.793
 51
342.777
  0
ARC
  8
APS_GEOMETRY
 10
2604.587
 20
-698.023
 40
9.746
 50
342.777
 51
0.0
  0
ARC
  8
APS_GEOMETRY
 10
2587.826
 20
-698.023
 40
26.507
 50
0.0
 51
8.499
  0
ARC
  8
APS_GEOMETRY
 10
2576.158
 20
-699.766
 40
38.304
 50
8.499
 51
15.566
  0
ARC
  8
APS_GEOMETRY
 10
2577.561
 20
-699.375
 40
36.848
 50
15.566
 51
22.909
  0
ARC
  8
APS_GEOMETRY
 10
2589.625
 20
-694.277
 40
23.751
 50
22.909
 51
32.057
  0
ARC
  8
APS_GEOMETRY
 10
2599.101
 20
-688.308
 40
12.552
 50
31.921
 51
42.51
  0
ARC
  8
APS_GEOMETRY
 10
2601.703
 20
-685.923
 40
9.022
 50
42.51
 51
55.008
  0
ARC
  8
APS_GEOMETRY
 10
2602.582
 20
-684.667
 40
7.489
 50
55.008
 51
69.88
  0
ARC
  8
APS_GEOMETRY
 10
2603.37
 20
-682.516
 40
5.198
 50
69.88
 51
87.754
  0
ARC
  8
APS_GEOMETRY
 10
2655.101
 20
-683.919
 40
15.983
 50
83.923
 51
90.0
  0
ARC
  8
APS_GEOMETRY
 10
2653.815
 20
-695.994
 40
28.127
 50
79.342
 51
83.923
  0
ARC
  8
APS_GEOMETRY
 10
2652.265
 20
-704.234
 40
36.512
 50
75.808
 51
79.342
  0
ARC
  8
APS_GEOMETRY
 10
2646.854
 20
-725.629
 40
58.58
 50
73.018
 51
75.808
  0
ARC
  8
APS_GEOMETRY
 10
2665.905
 20
-663.136
 40
6.752
 50
253.288
 51
259.046
  0
ARC
  8
APS_GEOMETRY
 10
2664.977
 20
-667.93
 40
1.87
 50
259.046
 51
270.0
  0
ARC
  8
APS_GEOMETRY
 10
2664.977
 20
-668.69
 40
1.11
 50
270.0
 51
286.699
  0
ARC
  8
APS_GEOMETRY
 10
2656.104
 20
-639.113
 40
31.989
 50
286.699
 51
289.799
  0
ARC
  8
APS_GEOMETRY
 10
2667.994
 20
-672.022
 40
3.002
 50
100.008
 51
110.556
  0
ARC
  8
APS_GEOMETRY
 10
2668.052
 20
-672.349
 40
3.334
 50
90.0
 51
100.008
  0
ARC
  8
APS_GEOMETRY
 10
2668.052
 20
-672.194
 40
3.179
 50
53.356
 51
90.0
  0
ARC
  8
APS_GEOMETRY
 10
2662.498
 20
-679.66
 40
12.484
 50
35.101
 51
53.356
  0
ARC
  8
APS_GEOMETRY
 10
2659.727
 20
-681.608
 40
15.871
 50
20.245
 51
35.101
  0
ARC
  8
APS_GEOMETRY
 10
2666.56
 20
-679.087
 40
8.588
 50
360.0
 51
20.245
  0
ARC
  8
APS_GEOMETRY
 10
2669.999
 20
-679.087
 40
5.15
 50
340.481
 51
360.0
  0
ARC
  8
APS_GEOMETRY
 10
2670.846
 20
-679.388
 40
4.25
 50
318.972
 51
340.481
  0
ARC
  8
APS_GEOMETRY
 10
2671.225
 20
-679.717
 40
3.748
 50
295.017
 51
318.972
  0
ARC
  8
APS_GEOMETRY
 10
2671.355
 20
-679.995
 40
3.442
 50
270.0
 51
295.017
  0
ARC
  8
APS_GEOMETRY
 10
2671.355
 20
-678.152
 40
5.285
 50
256.171
 51
270.0
  0
ARC
  8
APS_GEOMETRY
 10
2670.778
 20
-680.493
 40
2.874
 50
237.381
 51
256.171
  0
ARC
  8
APS_GEOMETRY
 10
2671.799
 20
-678.898
 40
4.768
 50
231.559
 51
237.381
  0
ARC
  8
APS_GEOMETRY
 10
2686.642
 20
-660.199
 40
28.642
 50
229.185
 51
231.559
  0
ARC
  8
APS_GEOMETRY
 10
2702.549
 20
-641.78
 40
52.979
 50
227.9
 51
229.185
  0
ARC
  8
APS_GEOMETRY
 10
2757.602
 20
-580.851
 40
135.095
 50
227.095
 51
227.9
  0
ARC
  8
APS_GEOMETRY
 10
2654.239
 20
-692.013
 40
16.696
 50
46.975
 51
64.612
  0
ARC
  8
APS_GEOMETRY
 10
2657.914
 20
-684.271
 40
8.127
 50
64.612
 51
90.0
  0
ARC
  8
APS_GEOMETRY
 10
2657.914
 20
-682.0
 40
5.856
 50
90.0
 51
106.966
  0
ARC
  8
APS_GEOMETRY
 10
2657.235
 20
-679.777
 40
3.531
 50
106.966
 51
128.868
  0
ARC
  8
APS_GEOMETRY
 10
2656.842
 20
-679.289
 40
2.905
 50
128.868
 51
154.741
  0
ARC
  8
APS_GEOMETRY
 10
2656.969
 20
-679.349
 40
3.046
 50
154.741
 51
180.0
  0
ARC
  8
APS_GEOMETRY
 10
2656.785
 20
-679.349
 40
2.861
 50
180.0
 51
206.64
  0
ARC
  8
APS_GEOMETRY
 10
2657.705
 20
-678.887
 40
3.891
 50
206.64
 51
229.43
  0
ARC
  8
APS_GEOMETRY
 10
2659.181
 20
-677.164
 40
6.159
 50
229.43
 51
244.493
  0
ARC
  8
APS_GEOMETRY
 10
2663.226
 20
-668.685
 40
15.554
 50
244.493
 51
253.956
  0
ARC
  8
APS_GEOMETRY
 10
2591.155
 20
-913.614
 40
239.758
 50
72.737
 51
73.58
  0
ARC
  8
APS_GEOMETRY
 10
2632.459
 20
-780.698
 40
100.573
 50
71.435
 51
72.737
  0
ARC
  8
APS_GEOMETRY
 10
2646.14
 20
-739.964
 40
57.603
 50
69.164
 51
71.435
  0
ARC
  8
APS_GEOMETRY
 10
2662.284
 20
-697.542
 40
12.212
 50
64.231
 51
69.164
  0
ARC
  8
APS_GEOMETRY
 10
2660.428
 20
-701.281
 40
16.387
 50
34.939
 51
64.068
  0
ARC
  8
APS_GEOMETRY
 10
2664.435
 20
-698.481
 40
11.498
 50
360.0
 51
34.939
  0
ARC
  8
APS_GEOMETRY
 10
2661.971
 20
-698.481
 40
13.962
 50
333.435
 51
360.0
  0
ARC
  8
APS_GEOMETRY
 10
2661.059
 20
-698.024
 40
14.982
 50
307.807
 51
333.435
  0
ARC
  8
APS_GEOMETRY
 10
2658.683
 20
-694.952
 40
18.866
 50
296.732
 51
307.786
  0
ARC
  8
APS_GEOMETRY
 10
2657.278
 20
-692.161
 40
21.99
 50
286.496
 51
296.732
  0
ARC
  8
APS_GEOMETRY
 10
2656.353
 20
-689.036
 40
25.25
 50
277.544
 51
286.496
  0
ARC
  8
APS_GEOMETRY
 10
2655.003
 20
-678.845
 40
35.53
 50
270.0
 51
277.544
  0
ARC
  8
APS_GEOMETRY
 10
2655.003
 20
-677.304
 40
37.071
 50
263.555
 51
270.0
  0
ARC
  8
APS_GEOMETRY
 10
2656.203
 20
-666.68
 40
47.762
 50
257.878
 51
263.555
  0
ARC
  8
APS_GEOMETRY
 10
2655.566
 20
-669.646
 40
44.729
 50
254.839
 51
257.878
  0
ARC
  8
APS_GEOMETRY
 10
2650.399
 20
-688.713
 40
24.974
 50
250.772
 51
254.839
  0
ARC
  8
APS_GEOMETRY
 10
2648.076
 20
-695.376
 40
17.918
 50
245.121
 51
250.772
  0
ARC
  8
APS_GEOMETRY
 10
2644.142
 20
-703.858
 40
8.568
 50
236.944
 51
245.121
  0
ARC
  8
APS_GEOMETRY
 10
2641.822
 20
-707.508
 40
4.243
 50
211.802
 51
236.31
  0
ARC
  8
APS_GEOMETRY
 10
2652.847
 20
-700.672
 40
17.215
 50
199.704
 51
211.802
  0
ARC
  8
APS_GEOMETRY
 10
2658.112
 20
-698.787
 40
22.807
 50
190.413
 51
199.704
  0
ARC
  8
APS_GEOMETRY
 10
2653.549
 20
-699.625
 40
18.168
 50
180.0
 51
190.413
  0
ARC
  8
APS_GEOMETRY
 10
2641.249
 20
-699.625
 40
5.869
 50
164.876
 51
180.0
  0
ARC
  8
APS_GEOMETRY
 10
2637.943
 20
-698.732
 40
2.443
 50
141.34
 51
164.876
  0
ARC
  8
APS_GEOMETRY
 10
2638.263
 20
-698.946
 40
2.827
 50
116.928
 51
142.001
  0
ARC
  8
APS_GEOMETRY
 10
2638.095
 20
-698.616
 40
2.457
 50
90.0
 51
116.928
  0
ARC
  8
APS_GEOMETRY
 10
2638.095
 20
-698.622
 40
2.464
 50
62.21
 51
90.0
  0
ARC
  8
APS_GEOMETRY
 10
2637.112
 20
-700.489
 40
4.573
 50
41.906
 51
62.21
  0
ARC
  8
APS_GEOMETRY
 10
2637.279
 20
-700.524
 40
4.475
 50
37.313
 51
43.668
  0
ARC
  8
APS_GEOMETRY
 10
2612.211
 20
-719.629
 40
35.993
 50
35.074
 51
37.313
  0
ARC
  8
APS_GEOMETRY
 10
2583.743
 20
-739.617
 40
70.777
 50
33.934
 51
35.074
  0
ARC
  8
APS_GEOMETRY
 10
2482.246
 20
-807.907
 40
193.11
 50
33.243
 51
33.934
  0
ARC
  8
APS_GEOMETRY
 10
2649.365
 20
-698.337
 40
6.727
 50
213.453
 51
231.637
  0
ARC
  8
APS_GEOMETRY
 10
2652.544
 20
-694.322
 40
11.848
 50
231.637
 51
245.313
  0
ARC
  8
APS_GEOMETRY
 10
2653.244
 20
-692.799
 40
13.524
 50
245.313
 51
257.398
  0
ARC
  8
APS_GEOMETRY
 10
2653.008
 20
-693.854
 40
12.443
 50
257.398
 51
270.0
  0
ARC
  8
APS_GEOMETRY
 10
2653.008
 20
-695.791
 40
10.506
 50
270.0
 51
282.907
  0
ARC
  8
APS_GEOMETRY
 10
2654.138
 20
-700.724
 40
5.445
 50
282.907
 51
300.872
  0
ARC
  8
APS_GEOMETRY
 10
2655.119
 20
-702.364
 40
3.535
 50
300.872
 51
326.876
  0
ARC
  8
APS_GEOMETRY
 10
2656.235
 20
-703.092
 40
2.202
 50
326.876
 51
0.0
  0
ARC
  8
APS_GEOMETRY
 10
2655.906
 20
-703.092
 40
2.531
 50
0.0
 51
27.553
  0
ARC
  8
APS_GEOMETRY
 10
2655.105
 20
-703.509
 40
3.434
 50
27.553
 51
51.147
  0
ARC
  8
APS_GEOMETRY
 10
2653.451
 20
-705.563
 40
6.071
 50
51.147
 51
65.225
  0
ARC
  8
APS_GEOMETRY
 10
2647.347
 20
-718.787
 40
20.636
 50
65.225
 51
72.848
  0
ARC
  8
APS_GEOMETRY
 10
2682.989
 20
-605.148
 40
98.462
 50
251.106
 51
252.532
  0
ARC
  8
APS_GEOMETRY
 10
2670.373
 20
-642.009
 40
59.501
 50
249.271
 51
251.106
  0
ARC
  8
APS_GEOMETRY
 10
2665.128
 20
-655.869
 40
44.683
 50
246.83
 51
249.271
  0
ARC
  8
APS_GEOMETRY
 10
2656.644
 20
-675.691
 40
23.121
 50
243.435
 51
246.83
  0
ARC
  8
APS_GEOMETRY
 10
2655.678
 20
-677.623
 40
20.961
 50
235.981
 51
243.435
  0
ARC
  8
APS_GEOMETRY
 10
2656.42
 20
-676.524
 40
22.287
 50
228.752
 51
235.981
  0
ARC
  8
APS_GEOMETRY
 10
2652.945
 20
-680.618
 40
16.918
 50
206.421
 51
228.457
  0
ARC
  8
APS_GEOMETRY
 10
2648.391
 20
-682.881
 40
11.833
 50
180.0
 51
206.421
  0
ARC
  8
APS_GEOMETRY
 10
2648.606
 20
-682.881
 40
12.047
 50
166.555
 51
180.0
  0
ARC
  8
APS_GEOMETRY
 10
2650.001
 20
-683.215
 40
13.482
 50
153.848
 51
166.555
  0
ARC
  8
APS_GEOMETRY
 10
2650.117
 20
-683.272
 40
13.611
 50
141.244
 51
153.848
  0
ARC
  8
APS_GEOMETRY
 10
2650.977
 20
-683.962
 40
14.714
 50
129.123
 51
141.244
  0
ARC
  8
APS_GEOMETRY
 10
2653.73
 20
-686.889
 40
18.725
 50
108.978
 51
130.006
  0
ARC
  8
APS_GEOMETRY
 10
2655.101
 20
-690.876
 40
22.94
 50
90.0
 51
108.978
  0
ARC
  8
APS_GEOMETRY
 10
2705.092
 20
-689.199
 40
21.264
 50
77.257
 51
90.0
  0
ARC
  8
APS_GEOMETRY
 10
2704.876
 20
-690.155
 40
22.243
 50
64.799
 51
77.257
  0
ARC
  8
APS_GEOMETRY
 10
2723.193
 20
-651.156
 40
20.843
 50
244.885
 51
251.175
  0
ARC
  8
APS_GEOMETRY
 10
2717.225
 20
-668.664
 40
2.346
 50
251.175
 51
270.0
  0
ARC
  8
APS_GEOMETRY
 10
2717.225
 20
-667.203
 40
3.806
 50
270.0
 51
278.82
  0
ARC
  8
APS_GEOMETRY
 10
2714.765
 20
-651.356
 40
19.844
 50
278.82
 51
282.68
  0
ARC
  8
APS_GEOMETRY
 10
2719.911
 20
-674.136
 40
3.511
 50
95.906
 51
102.995
  0
ARC
  8
APS_GEOMETRY
 10
2720.07
 20
-675.673
 40
5.055
 50
90.0
 51
95.906
  0
ARC
  8
APS_GEOMETRY
 10
2720.07
 20
-673.973
 40
3.356
 50
62.447
 51
90.0
  0
ARC
  8
APS_GEOMETRY
 10
2719.473
 20
-675.116
 40
4.645
 50
39.094
 51
62.447
  0
ARC
  8
APS_GEOMETRY
 10
2713.239
 20
-680.33
 40
12.772
 50
18.435
 51
39.611
  0
ARC
  8
APS_GEOMETRY
 10
2709.412
 20
-681.606
 40
16.806
 50
360.0
 51
18.435
  0
ARC
  8
APS_GEOMETRY
 10
2717.885
 20
-681.606
 40
8.333
 50
334.877
 51
360.0
  0
ARC
  8
APS_GEOMETRY
 10
2720.391
 20
-682.781
 40
5.565
 50
304.007
 51
334.877
  0
ARC
  8
APS_GEOMETRY
 10
2720.35
 20
-682.663
 40
5.686
 50
286.39
 51
303.69
  0
ARC
  8
APS_GEOMETRY
 10
2720.168
 20
-682.045
 40
6.33
 50
270.0
 51
286.39
  0
ARC
  8
APS_GEOMETRY
 10
2720.168
 20
-682.119
 40
6.257
 50
255.155
 51
270.0
  0
ARC
  8
APS_GEOMETRY
 10
2719.482
 20
-684.705
 40
3.581
 50
235.491
 51
255.155
  0
ARC
  8
APS_GEOMETRY
 10
2719.827
 20
-684.204
 40
4.189
 50
218.48
 51
235.491
  0
ARC
  8
APS_GEOMETRY
 10
2725.447
 20
-679.736
 40
11.369
 50
208.179
 51
218.48
  0
ARC
  8
APS_GEOMETRY
 10
2667.823
 20
-711.015
 40
54.198
 50
28.56
 51
31.664
  0
ARC
  8
APS_GEOMETRY
 10
2703.035
 20
-689.299
 40
12.827
 50
31.664
 51
38.047
  0
ARC
  8
APS_GEOMETRY
 10
2705.595
 20
-687.295
 40
9.576
 50
38.047
 51
46.56
  0
ARC
  8
APS_GEOMETRY
 10
2704.265
 20
-688.7
 40
11.512
 50
46.56
 51
54.324
  0
ARC
  8
APS_GEOMETRY
 10
2703.496
 20
-690.022
 40
13.034
 50
54.968
 51
71.48
  0
ARC
  8
APS_GEOMETRY
 10
2704.339
 20
-687.505
 40
10.38
 50
71.48
 51
90.0
  0
ARC
  8
APS_GEOMETRY
 10
2704.339
 20
-684.376
 40
7.251
 50
90.0
 51
114.63
  0
ARC
  8
APS_GEOMETRY
 10
2703.975
 20
-683.582
 40
6.377
 50
114.63
 51
140.921
  0
ARC
  8
APS_GEOMETRY
 10
2705.051
 20
-684.455
 40
7.763
 50
140.921
 51
163.13
  0
ARC
  8
APS_GEOMETRY
 10
2710.429
 20
-686.086
 40
13.382
 50
163.13
 51
180.0
  0
ARC
  8
APS_GEOMETRY
 10
2717.402
 20
-686.086
 40
20.355
 50
180.0
 51
195.44
  0
ARC
  8
APS_GEOMETRY
 10
2716.344
 20
-686.378
 40
19.258
 50
195.44
 51
211.316
  0
ARC
  8
APS_GEOMETRY
 10
2711.255
 20
-689.368
 40
13.357
 50
211.708
 51
240.457
  0
ARC
  8
APS_GEOMETRY
 10
2710.913
 20
-689.971
 40
12.663
 50
240.457
 51
270.0
  0
ARC
  8
APS_GEOMETRY
 10
2710.913
 20
-686.883
 40
15.751
 50
270.0
 51
279.549
  0
ARC
  8
APS_GEOMETRY
 10
2710.717
 20
-685.719
 40
16.931
 50
279.549
 51
288.759
  0
ARC
  8
APS_GEOMETRY
 10
2711.542
 20
-688.15
 40
14.364
 50
288.759
 51
299.545
  0
ARC
  8
APS_GEOMETRY
 10
2714.852
 20
-693.989
 40
7.652
 50
299.545
 51
314.341
  0
ARC
  8
APS_GEOMETRY
 10
2725.087
 20
-704.62
 40
7.105
 50
120.141
 51
133.452
  0
ARC
  8
APS_GEOMETRY
 10
2722.228
 20
-699.696
 40
1.412
 50
90.0
 51
120.141
  0
ARC
  8
APS_GEOMETRY
 10
2722.228
 20
-700.514
 40
2.23
 50
61.952
 51
90.0
  0
ARC
  8
APS_GEOMETRY
 10
2721.896
 20
-701.137
 40
2.936
 50
37.569
 51
61.952
  0
ARC
  8
APS_GEOMETRY
 10
2721.277
 20
-701.614
 40
3.717
 50
17.665
 51
37.569
  0
ARC
  8
APS_GEOMETRY
 10
2720.332
 20
-701.915
 40
4.709
 50
360.0
 51
17.665
  0
ARC
  8
APS_GEOMETRY
 10
2717.96
 20
-701.915
 40
7.081
 50
344.932
 51
360.0
  0
ARC
  8
APS_GEOMETRY
 10
2711.662
 20
-700.219
 40
13.603
 50
334.075
 51
344.932
  0
ARC
  8
APS_GEOMETRY
 10
2711.464
 20
-700.123
 40
13.823
 50
323.374
 51
334.075
  0
ARC
  8
APS_GEOMETRY
 10
2715.528
 20
-703.143
 40
8.76
 50
309.92
 51
323.374
  0
ARC
  8
APS_GEOMETRY
 10
2719.589
 20
-707.934
 40
2.48
 50
289.026
 51
308.991
  0
ARC
  8
APS_GEOMETRY
 10
2715.256
 20
-695.369
 40
15.771
 50
281.143
 51
289.026
  0
ARC
  8
APS_GEOMETRY
 10
2719.65
 20
-718.15
 40
7.431
 50
100.437
 51
110.12
  0
ARC
  8
APS_GEOMETRY
 10
2725.471
 20
-734.04
 40
24.353
 50
110.12
 51
115.463
  0
ARC
  8
APS_GEOMETRY
 10
2704.69
 20
-690.56
 40
23.838
 50
282.94
 51
295.628
  0
ARC
  8
APS_GEOMETRY
 10
2704.895
 20
-691.454
 40
22.921
 50
270.0
 51
282.94
  0
ARC
  8
APS_GEOMETRY
 10
2704.895
 20
-690.1
 40
24.275
 50
257.307
 51
270.0
  0
ARC
  8
APS_GEOMETRY
 10
2705.92
 20
-685.55
 40
28.939
 50
245.686
 51
257.307
  0
ARC
  8
APS_GEOMETRY
 10
2703.35
 20
-691.191
 40
22.739
 50
228.801
 51
245.735
  0
ARC
  8
APS_GEOMETRY
 10
2703.393
 20
-691.142
 40
22.805
 50
211.891
 51
228.801
  0
ARC
  8
APS_GEOMETRY
 10
2704.741
 20
-690.172
 40
24.462
 50
196.728
 51
212.152
  0
ARC
  8
APS_GEOMETRY
 10
2701.253
 20
-691.22
 40
20.82
 50
180.0
 51
196.728
  0
ARC
  8
APS_GEOMETRY
 10
2701.76
 20
-691.22
 40
21.327
 50
161.184
 51
180.0
  0
ARC
  8
APS_GEOMETRY
 10
2703.128
 20
-691.687
 40
22.773
 50
142.98
 51
161.184
  0
ARC
  8
APS_GEOMETRY
 10
2704.192
 20
-692.501
 40
24.112
 50
127.824
 51
142.958
  0
ARC
  8
APS_GEOMETRY
 10
2705.946
 20
-694.76
 40
26.973
 50
113.52
 51
127.824
  0
ARC
  8
APS_GEOMETRY
 10
2705.376
 20
-693.441
 40
25.535
 50
101.927
 51
113.527
  0
ARC
  8
APS_GEOMETRY
 10
2705.092
 20
-692.097
 40
24.161
 50
90.0
 51
101.927
  0
ARC
  8
APS_GEOMETRY
 10
2755.573
 20
-693.717
 40
25.782
 50
71.91
 51
90.0
  0
ARC
  8
APS_GEOMETRY
 10
2756.571
 20
-690.66
 40
22.566
 50
52.561
 51
71.91
  0
ARC
  8
APS_GEOMETRY
 10
2756.31
 20
-690.737
 40
22.786
 50
38.846
 51
52.156
  0
ARC
  8
APS_GEOMETRY
 10
2752.738
 20
-693.613
 40
27.372
 50
26.707
 51
38.846
  0
ARC
  8
APS_GEOMETRY
 10
2753.445
 20
-693.035
 40
26.482
 50
13.868
 51
26.278
  0
ARC
  8
APS_GEOMETRY
 10
2758.544
 20
-691.776
 40
21.229
 50
360.0
 51
13.868
  0
ARC
  8
APS_GEOMETRY
 10
2758.875
 20
-691.776
 40
20.899
 50
339.712
 51
360.0
  0
ARC
  8
APS_GEOMETRY
 10
2757.698
 20
-691.342
 40
22.153
 50
320.013
 51
339.712
  0
ARC
  8
APS_GEOMETRY
 10
2757.503
 20
-691.234
 40
22.372
 50
303.344
 51
320.123
  0
ARC
  8
APS_GEOMETRY
 10
2755.207
 20
-687.745
 40
26.548
 50
287.949
 51
303.344
  0
ARC
  8
APS_GEOMETRY
 10
2754.453
 20
-685.13
 40
29.269
 50
279.039
 51
287.776
  0
ARC
  8
APS_GEOMETRY
 10
2754.755
 20
-687.029
 40
27.346
 50
270.0
 51
279.039
  0
ARC
  8
APS_GEOMETRY
 10
2754.755
 20
-688.364
 40
26.011
 50
257.728
 51
270.0
  0
ARC
  8
APS_GEOMETRY
 10
2754.796
 20
-688.176
 40
26.203
 50
245.501
 51
257.728
  0
ARC
  8
APS_GEOMETRY
 10
2753.323
 20
-691.398
 40
22.66
 50
228.665
 51
245.511
  0
ARC
  8
APS_GEOMETRY
 10
2752.834
 20
-691.955
 40
21.918
 50
211.535
 51
228.665
  0
ARC
  8
APS_GEOMETRY
 10
2753.476
 20
-691.484
 40
22.712
 50
195.642
 51
211.701
  0
ARC
  8
APS_GEOMETRY
 10
2754.649
 20
-691.155
 40
23.931
 50
180.0
 51
195.642
  0
ARC
  8
APS_GEOMETRY
 10
2754.901
 20
-691.155
 40
24.183
 50
162.181
 51
180.0
  0
ARC
  8
APS_GEOMETRY
 10
2752.694
 20
-690.446
 40
21.865
 50
143.434
 51
162.181
  0
ARC
  8
APS_GEOMETRY
 10
2752.397
 20
-690.208
 40
21.485
 50
126.384
 51
143.471
  0
ARC
  8
APS_GEOMETRY
 10
2754.432
 20
-692.969
 40
24.914
 50
110.525
 51
126.384
  0
ARC
  8
APS_GEOMETRY
 10
2754.331
 20
-692.219
 40
24.177
 50
99.77
 51
110.925
  0
ARC
  8
APS_GEOMETRY
 10
2755.573
 20
-699.431
 40
31.496
 50
90.0
 51
99.77
  0
ARC
  8
APS_GEOMETRY
 10
2752.466
 20
-682.129
 40
4.807
 50
90.0
 51
119.604
  0
ARC
  8
APS_GEOMETRY
 10
2752.887
 20
-682.87
 40
5.659
 50
119.604
 51
146.842
  0
ARC
  8
APS_GEOMETRY
 10
2753.733
 20
-683.563
 40
6.748
 50
145.84
 51
164.055
  0
ARC
  8
APS_GEOMETRY
 10
2755.694
 20
-684.124
 40
8.788
 50
164.055
 51
180.0
  0
ARC
  8
APS_GEOMETRY
 10
2767.959
 20
-684.124
 40
21.053
 50
180.0
 51
189.977
  0
ARC
  8
APS_GEOMETRY
 10
2786.61
 20
-680.843
 40
39.991
 50
189.977
 51
197.211
  0
ARC
  8
APS_GEOMETRY
 10
2790.69
 20
-679.579
 40
44.261
 50
197.211
 51
203.76
  0
ARC
  8
APS_GEOMETRY
 10
2780.527
 20
-684.053
 40
33.157
 50
203.76
 51
211.329
  0
ARC
  8
APS_GEOMETRY
 10
2759.659
 20
-696.577
 40
8.821
 50
212.32
 51
224.441
  0
ARC
  8
APS_GEOMETRY
 10
2758.804
 20
-697.416
 40
7.623
 50
224.441
 51
237.484
  0
ARC
  8
APS_GEOMETRY
 10
2758.251
 20
-698.283
 40
6.595
 50
237.484
 51
252.416
  0
ARC
  8
APS_GEOMETRY
 10
2757.698
 20
-700.026
 40
4.766
 50
252.416
 51
270.0
  0
ARC
  8
APS_GEOMETRY
 10
2757.698
 20
-699.461
 40
5.331
 50
270.0
 51
294.953
  0
ARC
  8
APS_GEOMETRY
 10
2757.848
 20
-699.782
 40
4.977
 50
294.953
 51
320.793
  0
ARC
  8
APS_GEOMETRY
 10
2757.047
 20
-699.129
 40
6.011
 50
320.793
 51
342.777
  0
ARC
  8
APS_GEOMETRY
 10
2753.479
 20
-698.023
 40
9.746
 50
342.777
 51
0.0
  0
ARC
  8
APS_GEOMETRY
 10
2736.718
 20
-698.023
 40
26.507
 50
0.0
 51
8.499
  0
ARC
  8
APS_GEOMETRY
 10
2725.051
 20
-699.766
 40
38.304
 50
8.499
 51
15.566
  0
ARC
  8
APS_GEOMETRY
 10
2726.454
 20
-699.375
 40
36.848
 50
15.566
 51
22.909
  0
ARC
  8
APS_GEOMETRY
 10
2738.517
 20
-694.277
 40
23.751
 50
22.909
 51
32.057
  0
ARC
  8
APS_GEOMETRY
 10
2747.993
 20
-688.308
 40
12.552
 50
31.921
 51
42.51
  0
ARC
  8
APS_GEOMETRY
 10
2750.595
 20
-685.923
 40
9.022
 50
42.51
 51
55.008
  0
ARC
  8
APS_GEOMETRY
 10
2751.474
 20
-684.667
 40
7.489
 50
55.008
 51
69.88
  0
ARC
  8
APS_GEOMETRY
 10
2752.262
 20
-682.516
 40
5.198
 50
69.88
 51
87.754
  0
ARC
  8
APS_GEOMETRY
 10
2808.932
 20
-689.199
 40
21.264
 50
77.257
 51
90.0
  0
ARC
  8
APS_GEOMETRY
 10
2808.716
 20
-690.155
 40
22.243
 50
64.799
 51
77.257
  0
ARC
  8
APS_GEOMETRY
 10
2827.033
 20
-651.156
 40
20.843
 50
244.885
 51
251.175
  0
ARC
  8
APS_GEOMETRY
 10
2821.065
 20
-668.664
 40
2.346
 50
251.175
 51
270.0
  0
ARC
  8
APS_GEOMETRY
 10
2821.065
 20
-667.203
 40
3.806
 50
270.0
 51
278.82
  0
ARC
  8
APS_GEOMETRY
 10
2818.606
 20
-651.356
 40
19.844
 50
278.82
 51
282.68
  0
ARC
  8
APS_GEOMETRY
 10
2823.751
 20
-674.136
 40
3.511
 50
95.906
 51
102.995
  0
ARC
  8
APS_GEOMETRY
 10
2823.91
 20
-675.673
 40
5.055
 50
90.0
 51
95.906
  0
ARC
  8
APS_GEOMETRY
 10
2823.91
 20
-673.973
 40
3.356
 50
62.447
 51
90.0
  0
ARC
  8
APS_GEOMETRY
 10
2823.313
 20
-675.116
 40
4.645
 50
39.094
 51
62.447
  0
ARC
  8
APS_GEOMETRY
 10
2817.079
 20
-680.33
 40
12.772
 50
18.435
 51
39.611
  0
ARC
  8
APS_GEOMETRY
 10
2813.252
 20
-681.606
 40
16.806
 50
360.0
 51
18.435
  0
ARC
  8
APS_GEOMETRY
 10
2821.725
 20
-681.606
 40
8.333
 50
334.877
 51
360.0
  0
ARC
  8
APS_GEOMETRY
 10
2824.231
 20
-682.781
 40
5.565
 50
304.007
 51
334.877
  0
ARC
  8
APS_GEOMETRY
 10
2824.19
 20
-682.663
 40
5.686
 50
286.39
 51
303.69
  0
ARC
  8
APS_GEOMETRY
 10
2824.008
 20
-682.045
 40
6.33
 50
270.0
 51
286.39
  0
ARC
  8
APS_GEOMETRY
 10
2824.008
 20
-682.119
 40
6.257
 50
255.155
 51
270.0
  0
ARC
  8
APS_GEOMETRY
 10
2823.323
 20
-684.705
 40
3.581
 50
235.491
 51
255.155
  0
ARC
  8
APS_GEOMETRY
 10
2823.667
 20
-684.204
 40
4.189
 50
218.48
 51
235.491
  0
ARC
  8
APS_GEOMETRY
 10
2829.288
 20
-679.736
 40
11.369
 50
208.179
 51
218.48
  0
ARC
  8
APS_GEOMETRY
 10
2771.663
 20
-711.015
 40
54.198
 50
28.56
 51
31.664
  0
ARC
  8
APS_GEOMETRY
 10
2806.875
 20
-689.299
 40
12.827
 50
31.664
 51
38.047
  0
ARC
  8
APS_GEOMETRY
 10
2809.435
 20
-687.295
 40
9.576
 50
38.047
 51
46.56
  0
ARC
  8
APS_GEOMETRY
 10
2808.105
 20
-688.7
 40
11.512
 50
46.56
 51
54.324
  0
ARC
  8
APS_GEOMETRY
 10
2807.337
 20
-690.022
 40
13.034
 50
54.968
 51
71.48
  0
ARC
  8
APS_GEOMETRY
 10
2808.18
 20
-687.505
 40
10.38
 50
71.48
 51
90.0
  0
ARC
  8
APS_GEOMETRY
 10
2808.18
 20
-684.376
 40
7.251
 50
90.0
 51
114.63
  0
ARC
  8
APS_GEOMETRY
 10
2807.815
 20
-683.582
 40
6.377
 50
114.63
 51
140.921
  0
ARC
  8
APS_GEOMETRY
 10
2808.891
 20
-684.455
 40
7.763
 50
140.921
 51
163.13
  0
ARC
  8
APS_GEOMETRY
 10
2814.269
 20
-686.086
 40
13.382
 50
163.13
 51
180.0
  0
ARC
  8
APS_GEOMETRY
 10
2821.242
 20
-686.086
 40
20.355
 50
180.0
 51
195.44
  0
ARC
  8
APS_GEOMETRY
 10
2820.184
 20
-686.378
 40
19.258
 50
195.44
 51
211.316
  0
ARC
  8
APS_GEOMETRY
 10
2815.095
 20
-689.368
 40
13.357
 50
211.708
 51
240.457
  0
ARC
  8
APS_GEOMETRY
 10
2814.753
 20
-689.971
 40
12.663
 50
240.457
 51
270.0
  0
ARC
  8
APS_GEOMETRY
 10
2814.753
 20
-686.883
 40
15.751
 50
270.0
 51
279.549
  0
ARC
  8
APS_GEOMETRY
 10
2814.557
 20
-685.719
 40
16.931
 50
279.549
 51
288.759
  0
ARC
  8
APS_GEOMETRY
 10
2815.383
 20
-688.15
 40
14.364
 50
288.759
 51
299.545
  0
ARC
  8
APS_GEOMETRY
 10
2818.692
 20
-693.989
 40
7.652
 50
299.545
 51
314.341
  0
ARC
  8
APS_GEOMETRY
 10
2828.927
 20
-704.62
 40
7.105
 50
120.141
 51
133.452
  0
ARC
  8
APS_GEOMETRY
 10
2826.068
 20
-699.696
 40
1.412
 50
90.0
 51
120.141
  0
ARC
  8
APS_GEOMETRY
 10
2826.068
 20
-700.514
 40
2.23
 50
61.952
 51
90.0
  0
ARC
  8
APS_GEOMETRY
 10
2825.736
 20
-701.137
 40
2.936
 50
37.569
 51
61.952
  0
ARC
  8
APS_GEOMETRY
 10
2825.117
 20
-701.614
 40
3.717
 50
17.665
 51
37.569
  0
ARC
  8
APS_GEOMETRY
 10
2824.172
 20
-701.915
 40
4.709
 50
360.0
 51
17.665
  0
ARC
  8
APS_GEOMETRY
 10
2821.8
 20
-701.915
 40
7.081
 50
344.932
 51
360.0
  0
ARC
  8
APS_GEOMETRY
 10
2815.502
 20
-700.219
 40
13.603
 50
334.075
 51
344.932
  0
ARC
  8
APS_GEOMETRY
 10
2815.304
 20
-700.123
 40
13.823
 50
323.374
 51
334.075
  0
ARC
  8
APS_GEOMETRY
 10
2819.368
 20
-703.143
 40
8.76
 50
309.92
 51
323.374
  0
ARC
  8
APS_GEOMETRY
 10
2823.429
 20
-707.934
 40
2.48
 50
289.026
 51
308.991
  0
ARC
  8
APS_GEOMETRY
 10
2819.096
 20
-695.369
 40
15.771
 50
281.143
 51
289.026
  0
ARC
  8
APS_GEOMETRY
 10
2823.49
 20
-718.15
 40
7.431
 50
100.437
 51
110.12
  0
ARC
  8
APS_GEOMETRY
 10
2829.311
 20
-734.04
 40
24.353
 50
110.12
 51
115.463
  0
ARC
  8
APS_GEOMETRY
 10
2808.53
 20
-690.56
 40
23.838
 50
282.94
 51
295.628
  0
ARC
  8
APS_GEOMETRY
 10
2808.735
 20
-691.454
 40
22.921
 50
270.0
 51
282.94
  0
ARC
  8
APS_GEOMETRY
 10
2808.735
 20
-690.1
 40
24.275
 50
257.307
 51
270.0
  0
ARC
  8
APS_GEOMETRY
 10
2809.76
 20
-685.55
 40
28.939
 50
245.686
 51
257.307
  0
ARC
  8
APS_GEOMETRY
 10
2807.19
 20
-691.191
 40
22.739
 50
228.801
 51
245.735
  0
ARC
  8
APS_GEOMETRY
 10
2807.233
 20
-691.142
 40
22.805
 50
211.891
 51
228.801
  0
ARC
  8
APS_GEOMETRY
 10
2808.581
 20
-690.172
 40
24.462
 50
196.728
 51
212.152
  0
ARC
  8
APS_GEOMETRY
 10
2805.093
 20
-691.22
 40
20.82
 50
180.0
 51
196.728
  0
ARC
  8
APS_GEOMETRY
 10
2805.6
 20
-691.22
 40
21.327
 50
161.184
 51
180.0
  0
ARC
  8
APS_GEOMETRY
 10
2806.969
 20
-691.687
 40
22.773
 50
142.98
 51
161.184
  0
ARC
  8
APS_GEOMETRY
 10
2808.033
 20
-692.501
 40
24.112
 50
127.824
 51
142.958
  0
ARC
  8
APS_GEOMETRY
 10
2809.787
 20
-694.76
 40
26.973
 50
113.52
 51
127.824
  0
ARC
  8
APS_GEOMETRY
 10
2809.216
 20
-693.441
 40
25.535
 50
101.927
 51
113.527
  0
ARC
  8
APS_GEOMETRY
 10
2808.932
 20
-692.097
 40
24.161
 50
90.0
 51
101.927
  0
ARC
  8
APS_GEOMETRY
 10
2859.413
 20
-693.717
 40
25.782
 50
71.91
 51
90.0
  0
ARC
  8
APS_GEOMETRY
 10
2860.411
 20
-690.66
 40
22.566
 50
52.561
 51
71.91
  0
ARC
  8
APS_GEOMETRY
 10
2860.15
 20
-690.737
 40
22.786
 50
38.846
 51
52.156
  0
ARC
  8
APS_GEOMETRY
 10
2856.578
 20
-693.613
 40
27.372
 50
26.707
 51
38.846
  0
ARC
  8
APS_GEOMETRY
 10
2857.285
 20
-693.035
 40
26.482
 50
13.868
 51
26.278
  0
ARC
  8
APS_GEOMETRY
 10
2862.385
 20
-691.776
 40
21.229
 50
360.0
 51
13.868
  0
ARC
  8
APS_GEOMETRY
 10
2862.715
 20
-691.776
 40
20.899
 50
339.712
 51
360.0
  0
ARC
  8
APS_GEOMETRY
 10
2861.538
 20
-691.342
 40
22.153
 50
320.013
 51
339.712
  0
ARC
  8
APS_GEOMETRY
 10
2861.343
 20
-691.234
 40
22.372
 50
303.344
 51
320.123
  0
ARC
  8
APS_GEOMETRY
 10
2859.047
 20
-687.745
 40
26.548
 50
287.949
 51
303.344
  0
ARC
  8
APS_GEOMETRY
 10
2858.293
 20
-685.13
 40
29.269
 50
279.039
 51
287.776
  0
ARC
  8
APS_GEOMETRY
 10
2858.595
 20
-687.029
 40
27.346
 50
270.0
 51
279.039
  0
ARC
  8
APS_GEOMETRY
 10
2858.595
 20
-688.364
 40
26.011
 50
257.728
 51
270.0
  0
ARC
  8
APS_GEOMETRY
 10
2858.636
 20
-688.176
 40
26.203
 50
245.501
 51
257.728
  0
ARC
  8
APS_GEOMETRY
 10
2857.163
 20
-691.398
 40
22.66
 50
228.665
 51
245.511
  0
ARC
  8
APS_GEOMETRY
 10
2856.674
 20
-691.955
 40
21.918
 50
211.535
 51
228.665
  0
ARC
  8
APS_GEOMETRY
 10
2857.316
 20
-691.484
 40
22.712
 50
195.642
 51
211.701
  0
ARC
  8
APS_GEOMETRY
 10
2858.489
 20
-691.155
 40
23.931
 50
180.0
 51
195.642
  0
ARC
  8
APS_GEOMETRY
 10
2858.741
 20
-691.155
 40
24.183
 50
162.181
 51
180.0
  0
ARC
  8
APS_GEOMETRY
 10
2856.534
 20
-690.446
 40
21.865
 50
143.434
 51
162.181
  0
ARC
  8
APS_GEOMETRY
 10
2856.238
 20
-690.208
 40
21.485
 50
126.384
 51
143.471
  0
ARC
  8
APS_GEOMETRY
 10
2858.272
 20
-692.969
 40
24.914
 50
110.525
 51
126.384
  0
ARC
  8
APS_GEOMETRY
 10
2858.171
 20
-692.219
 40
24.177
 50
99.77
 51
110.925
  0
ARC
  8
APS_GEOMETRY
 10
2859.413
 20
-699.431
 40
31.496
 50
90.0
 51
99.77
  0
ARC
  8
APS_GEOMETRY
 10
2856.306
 20
-682.129
 40
4.807
 50
90.0
 51
119.604
  0
ARC
  8
APS_GEOMETRY
 10
2856.727
 20
-682.87
 40
5.659
 50
119.604
 51
146.842
  0
ARC
  8
APS_GEOMETRY
 10
2857.573
 20
-683.563
 40
6.748
 50
145.84
 51
164.055
  0
ARC
  8
APS_GEOMETRY
 10
2859.534
 20
-684.124
 40
8.788
 50
164.055
 51
180.0
  0
ARC
  8
APS_GEOMETRY
 10
2871.799
 20
-684.124
 40
21.053
 50
180.0
 51
189.977
  0
ARC
  8
APS_GEOMETRY
 10
2890.451
 20
-680.843
 40
39.991
 50
189.977
 51
197.211
  0
ARC
  8
APS_GEOMETRY
 10
2894.53
 20
-679.579
 40
44.261
 50
197.211
 51
203.76
  0
ARC
  8
APS_GEOMETRY
 10
2884.367
 20
-684.053
 40
33.157
 50
203.76
 51
211.329
  0
ARC
  8
APS_GEOMETRY
 10
2863.499
 20
-696.577
 40
8.821
 50
212.32
 51
224.441
  0
ARC
  8
APS_GEOMETRY
 10
2862.644
 20
-697.416
 40
7.623
 50
224.441
 51
237.484
  0
ARC
  8
APS_GEOMETRY
 10
2862.091
 20
-698.283
 40
6.595
 50
237.484
 51
252.416
  0
ARC
  8
APS_GEOMETRY
 10
2861.539
 20
-700.026
 40
4.766
 50
252.416
 51
270.0
  0
ARC
  8
APS_GEOMETRY
 10
2861.539
 20
-699.461
 40
5.331
 50
270.0
 51
294.953
  0
ARC
  8
APS_GEOMETRY
 10
2861.688
 20
-699.782
 40
4.977
 50
294.953
 51
320.793
  0
ARC
  8
APS_GEOMETRY
 10
2860.887
 20
-699.129
 40
6.011
 50
320.793
 51
342.777
  0
ARC
  8
APS_GEOMETRY
 10
2857.319
 20
-698.023
 40
9.746
 50
342.777
 51
0.0
  0
ARC
  8
APS_GEOMETRY
 10
2840.558
 20
-698.023
 40
26.507
 50
0.0
 51
8.499
  0
ARC
  8
APS_GEOMETRY
 10
2828.891
 20
-699.766
 40
38.304
 50
8.499
 51
15.566
  0
ARC
  8
APS_GEOMETRY
 10
2830.294
 20
-699.375
 40
36.848
 50
15.566
 51
22.909
  0
ARC
  8
APS_GEOMETRY
 10
2842.358
 20
-694.277
 40
23.751
 50
22.909
 51
32.057
  0
ARC
  8
APS_GEOMETRY
 10
2851.833
 20
-688.308
 40
12.552
 50
31.921
 51
42.51
  0
ARC
  8
APS_GEOMETRY
 10
2854.435
 20
-685.923
 40
9.022
 50
42.51
 51
55.008
  0
ARC
  8
APS_GEOMETRY
 10
2855.314
 20
-684.667
 40
7.489
 50
55.008
 51
69.88
  0
ARC
  8
APS_GEOMETRY
 10
2856.102
 20
-682.516
 40
5.198
 50
69.88
 51
87.754
  0
ARC
  8
APS_GEOMETRY
 10
2909.927
 20
-697.14
 40
2.42
 50
90.0
 51
115.837
  0
ARC
  8
APS_GEOMETRY
 10
2909.331
 20
-695.909
 40
1.053
 50
115.837
 51
155.462
  0
ARC
  8
APS_GEOMETRY
 10
2910.026
 20
-696.227
 40
1.817
 50
155.462
 51
168.366
  0
ARC
  8
APS_GEOMETRY
 10
2916.372
 20
-697.533
 40
8.296
 50
168.366
 51
174.395
  0
ARC
  8
APS_GEOMETRY
 10
2922.768
 20
-698.161
 40
14.722
 50
174.395
 51
177.813
  0
ARC
  8
APS_GEOMETRY
 10
2943.996
 20
-698.971
 40
35.966
 50
177.813
 51
180.0
  0
ARC
  8
APS_GEOMETRY
 10
2959.365
 20
-698.971
 40
51.335
 50
180.0
 51
184.62
  0
ARC
  8
APS_GEOMETRY
 10
2924.945
 20
-701.753
 40
16.803
 50
184.62
 51
192.7
  0
ARC
  8
APS_GEOMETRY
 10
2911.675
 20
-704.666
 40
3.218
 50
194.036
 51
205.821
  0
ARC
  8
APS_GEOMETRY
 10
2910.269
 20
-705.346
 40
1.656
 50
205.821
 51
222.274
  0
ARC
  8
APS_GEOMETRY
 10
2910.7
 20
-704.955
 40
2.238
 50
222.274
 51
234.605
  0
ARC
  8
APS_GEOMETRY
 10
2915.56
 20
-698.114
 40
10.63
 50
234.605
 51
240.255
  0
ARC
  8
APS_GEOMETRY
 10
2908.171
 20
-711.189
 40
4.389
 50
34.592
 51
61.189
  0
ARC
  8
APS_GEOMETRY
 10
2909.622
 20
-710.188
 40
2.627
 50
360.0
 51
34.592
  0
ARC
  8
APS_GEOMETRY
 10
2909.709
 20
-710.188
 40
2.539
 50
318.231
 51
360.0
  0
ARC
  8
APS_GEOMETRY
 10
2908.011
 20
-708.672
 40
4.816
 50
288.227
 51
318.231
  0
ARC
  8
APS_GEOMETRY
 10
2906.25
 20
-703.324
 40
10.446
 50
280.377
 51
288.227
  0
ARC
  8
APS_GEOMETRY
 10
2903.18
 20
-686.56
 40
27.489
 50
275.541
 51
280.377
  0
ARC
  8
APS_GEOMETRY
 10
2901.857
 20
-672.923
 40
41.19
 50
272.304
 51
275.541
  0
ARC
  8
APS_GEOMETRY
 10
2900.246
 20
-632.887
 40
81.259
 50
270.0
 51
272.304
  0
ARC
  8
APS_GEOMETRY
 10
2900.246
 20
-666.346
 40
47.8
 50
262.811
 51
270.0
  0
ARC
  8
APS_GEOMETRY
 10
2895.957
 20
-700.352
 40
13.524
 50
249.274
 51
262.811
  0
ARC
  8
APS_GEOMETRY
 10
2893.259
 20
-707.482
 40
5.901
 50
221.379
 51
249.274
  0
ARC
  8
APS_GEOMETRY
 10
2890.893
 20
-709.567
 40
2.747
 50
180.0
 51
221.379
  0
ARC
  8
APS_GEOMETRY
 10
2890.875
 20
-709.567
 40
2.728
 50
164.055
 51
180.0
  0
ARC
  8
APS_GEOMETRY
 10
2889.737
 20
-709.242
 40
1.546
 50
142.815
 51
164.055
  0
ARC
  8
APS_GEOMETRY
 10
2890.453
 20
-709.785
 40
2.444
 50
129.007
 51
142.815
  0
ARC
  8
APS_GEOMETRY
 10
2899.245
 20
-720.639
 40
16.412
 50
123.69
 51
129.007
  0
ARC
  8
APS_GEOMETRY
 10
2886.768
 20
-701.867
 40
6.128
 50
303.389
 51
319.022
  0
ARC
  8
APS_GEOMETRY
 10
2888.427
 20
-703.307
 40
3.932
 50
319.022
 51
338.575
  0
ARC
  8
APS_GEOMETRY
 10
2886.207
 20
-702.436
 40
6.316
 50
338.575
 51
351.049
  0
ARC
  8
APS_GEOMETRY
 10
2859.401
 20
-698.214
 40
33.452
 50
351.049
 51
356.46
  0
ARC
  8
APS_GEOMETRY
 10
2868.237
 20
-698.55
 40
24.613
 50
355.972
 51
358.68
  0
ARC
  8
APS_GEOMETRY
 10
2578.047
 20
-691.864
 40
314.881
 50
358.68
 51
359.437
  0
LINE
  8
APS_GEOMETRY
 10
2892.913
 11
2892.943
 20
-694.957
 21
-690.045
  0
LINE
  8
APS_GEOMETRY
 10
2892.943
 11
2892.954
 20
-690.045
 21
-683.633
  0
ARC
  8
APS_GEOMETRY
 10
2817.144
 20
-683.633
 40
75.809
 50
0.0
 51
1.717
  0
ARC
  8
APS_GEOMETRY
 10
2857.713
 20
-682.417
 40
35.223
 50
1.717
 51
4.236
  0
ARC
  8
APS_GEOMETRY
 10
2870.942
 20
-681.437
 40
21.957
 50
4.236
 51
8.269
  0
ARC
  8
APS_GEOMETRY
 10
2886.166
 20
-679.225
 40
6.573
 50
8.269
 51
15.642
  0
ARC
  8
APS_GEOMETRY
 10
2888.786
 20
-678.491
 40
3.853
 50
15.642
 51
39.417
  0
ARC
  8
APS_GEOMETRY
 10
2888.845
 20
-678.443
 40
3.776
 50
39.417
 51
63.435
  0
ARC
  8
APS_GEOMETRY
 10
2895.646
 20
-664.353
 40
11.869
 50
236.874
 51
244.486
  0
ARC
  8
APS_GEOMETRY
 10
2890.586
 20
-672.107
 40
2.611
 50
220.601
 51
236.874
  0
ARC
  8
APS_GEOMETRY
 10
2890.006
 20
-672.604
 40
1.847
 50
198.246
 51
220.601
  0
ARC
  8
APS_GEOMETRY
 10
2890.874
 20
-672.318
 40
2.761
 50
180.0
 51
198.246
  0
ARC
  8
APS_GEOMETRY
 10
2890.861
 20
-672.318
 40
2.748
 50
156.161
 51
180.0
  0
ARC
  8
APS_GEOMETRY
 10
2891.244
 20
-672.487
 40
3.167
 50
133.977
 51
156.161
  0
ARC
  8
APS_GEOMETRY
 10
2892.008
 20
-673.278
 40
4.266
 50
116.996
 51
133.977
  0
ARC
  8
APS_GEOMETRY
 10
2893.524
 20
-676.256
 40
7.608
 50
104.3
 51
116.996
  0
ARC
  8
APS_GEOMETRY
 10
2893.916
 20
-677.762
 40
9.164
 50
95.326
 51
104.349
  0
ARC
  8
APS_GEOMETRY
 10
2895.504
 20
-694.796
 40
26.272
 50
90.0
 51
95.326
  0
ARC
  8
APS_GEOMETRY
 10
2895.504
 20
-681.537
 40
13.013
 50
87.553
 51
90.0
  0
ARC
  8
APS_GEOMETRY
 10
2892.736
 20
-746.325
 40
77.86
 50
86.553
 51
87.553
  0
ARC
  8
APS_GEOMETRY
 10
2888.799
 20
-811.672
 40
143.325
 50
86.009
 51
86.553
  0
ARC
  8
APS_GEOMETRY
 10
2873.491
 20
-1031.085
 40
363.271
 50
85.668
 51
86.009
  0
ARC
  8
APS_GEOMETRY
 10
2902.139
 20
-653.774
 40
15.125
 50
265.426
 51
268.531
  0
ARC
  8
APS_GEOMETRY
 10
2903.484
 20
-601.331
 40
67.586
 50
268.531
 51
270.0
  0
ARC
  8
APS_GEOMETRY
 10
2903.484
 20
-617.406
 40
51.511
 50
270.0
 51
271.637
  0
ARC
  8
APS_GEOMETRY
 10
2902.333
 20
-577.122
 40
91.812
 50
271.637
 51
272.862
  0
ARC
  8
APS_GEOMETRY
 10
2901.012
 20
-550.692
 40
118.274
 50
272.862
 51
273.814
  0
ARC
  8
APS_GEOMETRY
 10
2896.538
 20
-483.588
 40
185.527
 50
273.814
 51
274.574
  0
ARC
  8
APS_GEOMETRY
 10
2924.6
 20
-848.579
 40
180.543
 50
93.72
 51
94.214
  0
ARC
  8
APS_GEOMETRY
 10
2918.611
 20
-756.461
 40
88.23
 50
93.013
 51
93.72
  0
ARC
  8
APS_GEOMETRY
 10
2916.969
 20
-725.265
 40
56.991
 50
91.918
 51
93.013
  0
ARC
  8
APS_GEOMETRY
 10
2915.682
 20
-686.85
 40
18.554
 50
90.0
 51
91.918
  0
ARC
  8
APS_GEOMETRY
 10
2915.682
 20
-692.404
 40
24.109
 50
73.82
 51
90.0
  0
ARC
  8
APS_GEOMETRY
 10
2918.059
 20
-684.214
 40
15.581
 50
53.658
 51
73.82
  0
ARC
  8
APS_GEOMETRY
 10
2921.438
 20
-679.595
 40
9.857
 50
26.03
 51
53.569
  0
ARC
  8
APS_GEOMETRY
 10
2920.401
 20
-680.101
 40
11.012
 50
360.0
 51
26.03
  0
ARC
  8
APS_GEOMETRY
 10
2919.97
 20
-680.101
 40
11.443
 50
345.282
 51
360.0
  0
ARC
  8
APS_GEOMETRY
 10
2921.071
 20
-680.39
 40
10.305
 50
329.767
 51
345.282
  0
ARC
  8
APS_GEOMETRY
 10
2921.694
 20
-680.754
 40
9.583
 50
313.168
 51
329.767
  0
ARC
  8
APS_GEOMETRY
 10
2921.925
 20
-681.0
 40
9.246
 50
296.267
 51
313.168
  0
ARC
  8
APS_GEOMETRY
 10
2927.188
 20
-691.634
 40
2.62
 50
116.565
 51
139.899
  0
ARC
  8
APS_GEOMETRY
 10
2925.882
 20
-690.534
 40
0.911
 50
139.899
 51
180.0
  0
ARC
  8
APS_GEOMETRY
 10
2925.983
 20
-690.534
 40
1.013
 50
180.0
 51
226.193
  0
ARC
  8
APS_GEOMETRY
 10
2927.854
 20
-688.583
 40
3.715
 50
226.193
 51
249.829
  0
ARC
  8
APS_GEOMETRY
 10
2922.493
 20
-703.344
 40
11.989
 50
53.249
 51
70.105
  0
ARC
  8
APS_GEOMETRY
 10
2924.928
 20
-700.083
 40
7.919
 50
32.471
 51
53.249
  0
ARC
  8
APS_GEOMETRY
 10
2923.793
 20
-700.806
 40
9.264
 50
23.305
 51
32.471
  0
ARC
  8
APS_GEOMETRY
 10
2916.783
 20
-703.825
 40
16.897
 50
16.521
 51
23.305
  0
ARC
  8
APS_GEOMETRY
 10
2911.317
 20
-705.446
 40
22.598
 50
11.429
 51
16.521
  0
ARC
  8
APS_GEOMETRY
 10
2895.827
 20
-708.578
 40
38.401
 50
7.524
 51
11.429
  0
ARC
  8
APS_GEOMETRY
 10
2947.156
 20
-701.742
 40
13.38
 50
187.765
 51
196.914
  0
ARC
  8
APS_GEOMETRY
 10
2936.212
 20
-705.07
 40
1.942
 50
196.914
 51
221.082
  0
ARC
  8
APS_GEOMETRY
 10
2936.254
 20
-705.033
 40
1.997
 50
221.082
 51
244.607
  0
ARC
  8
APS_GEOMETRY
 10
2940.928
 20
-695.188
 40
12.896
 50
244.607
 51
253.811
  0
ARC
  8
APS_GEOMETRY
 10
2936.819
 20
-709.198
 40
1.705
 50
51.45
 51
72.474
  0
ARC
  8
APS_GEOMETRY
 10
2936.397
 20
-709.727
 40
2.382
 50
33.69
 51
51.45
  0
ARC
  8
APS_GEOMETRY
 10
2936.298
 20
-709.793
 40
2.5
 50
16.639
 51
33.69
  0
ARC
  8
APS_GEOMETRY
 10
2936.179
 20
-709.829
 40
2.625
 50
360.0
 51
16.639
  0
ARC
  8
APS_GEOMETRY
 10
2936.142
 20
-709.829
 40
2.662
 50
338.993
 51
360.0
  0
ARC
  8
APS_GEOMETRY
 10
2934.517
 20
-709.205
 40
4.402
 50
322.696
 51
338.993
  0
ARC
  8
APS_GEOMETRY
 10
2933.912
 20
-708.743
 40
5.164
 50
308.603
 51
322.696
  0
ARC
  8
APS_GEOMETRY
 10
2933.495
 20
-708.221
 40
5.831
 50
295.346
 51
308.603
  0
ARC
  8
APS_GEOMETRY
 10
2931.304
 20
-703.395
 40
11.131
 50
279.583
 51
294.905
  0
ARC
  8
APS_GEOMETRY
 10
2928.437
 20
-686.414
 40
28.353
 50
270.0
 51
279.583
  0
ARC
  8
APS_GEOMETRY
 10
2928.437
 20
-694.095
 40
20.672
 50
261.247
 51
270.0
  0
ARC
  8
APS_GEOMETRY
 10
2927.113
 20
-702.696
 40
11.97
 50
249.737
 51
261.247
  0
ARC
  8
APS_GEOMETRY
 10
2926.242
 20
-705.053
 40
9.457
 50
235.345
 51
249.737
  0
ARC
  8
APS_GEOMETRY
 10
2925.143
 20
-706.643
 40
7.524
 50
219.198
 51
235.345
  0
ARC
  8
APS_GEOMETRY
 10
2927.456
 20
-704.671
 40
10.563
 50
209.076
 51
219.56
  0
ARC
  8
APS_GEOMETRY
 10
2932.797
 20
-701.702
 40
16.674
 50
200.735
 51
209.076
  0
ARC
  8
APS_GEOMETRY
 10
2940.166
 20
-698.912
 40
24.554
 50
197.881
 51
200.735
  0
ARC
  8
APS_GEOMETRY
 10
2970.448
 20
-689.142
 40
56.372
 50
195.997
 51
197.881
  0
ARC
  8
APS_GEOMETRY
 10
2992.83
 20
-682.725
 40
79.656
 50
194.664
 51
195.997
  0
ARC
  8
APS_GEOMETRY
 10
3054.825
 20
-666.503
 40
143.738
 50
193.671
 51
194.664
  0
ARC
  8
APS_GEOMETRY
 10
2897.615
 20
-704.723
 40
18.051
 50
13.61
 51
23.585
  0
ARC
  8
APS_GEOMETRY
 10
2909.434
 20
-699.563
 40
5.155
 50
23.585
 51
42.31
  0
ARC
  8
APS_GEOMETRY
 10
2910.506
 20
-698.587
 40
3.705
 50
42.31
 51
67.521
  0
ARC
  8
APS_GEOMETRY
 10
2909.658
 20
-700.638
 40
5.924
 50
67.521
 51
87.397
  0
LINE
  8
APS_GEOMETRY
 10
2908.063
 11
2907.703
 20
-678.041
 21
-685.661
  0
LINE
  8
APS_GEOMETRY
 10
2907.703
 11
2907.703
 20
-685.661
 21
-685.784
  0
LINE
  8
APS_GEOMETRY
 10
2907.703
 11
2907.703
 20
-685.784
 21
-685.955
  0
ARC
  8
APS_GEOMETRY
 10
2912.997
 20
-685.955
 40
5.294
 50
180.0
 51
192.339
  0
ARC
  8
APS_GEOMETRY
 10
2908.788
 20
-686.876
 40
0.986
 50
192.339
 51
221.186
  0
ARC
  8
APS_GEOMETRY
 10
2908.688
 20
-686.964
 40
0.852
 50
221.186
 51
253.872
  0
ARC
  8
APS_GEOMETRY
 10
2909.403
 20
-684.488
 40
3.429
 50
253.872
 51
270.0
  0
ARC
  8
APS_GEOMETRY
 10
2909.403
 20
-679.947
 40
7.971
 50
270.0
 51
289.569
  0
ARC
  8
APS_GEOMETRY
 10
2910.852
 20
-684.023
 40
3.644
 50
289.569
 51
318.681
  0
ARC
  8
APS_GEOMETRY
 10
2910.46
 20
-683.679
 40
4.166
 50
318.681
 51
344.628
  0
ARC
  8
APS_GEOMETRY
 10
2903.158
 20
-681.671
 40
11.74
 50
344.628
 51
0.0
  0
ARC
  8
APS_GEOMETRY
 10
2906.63
 20
-681.671
 40
8.268
 50
0.0
 51
35.369
  0
ARC
  8
APS_GEOMETRY
 10
2910.417
 20
-678.982
 40
3.623
 50
35.369
 51
90.0
  0
ARC
  8
APS_GEOMETRY
 10
2910.417
 20
-679.022
 40
3.663
 50
90.0
 51
108.435
  0
ARC
  8
APS_GEOMETRY
 10
2909.705
 20
-676.884
 40
1.409
 50
108.435
 51
138.366
  0
ARC
  8
APS_GEOMETRY
 10
2909.896
 20
-677.054
 40
1.665
 50
138.366
 51
164.291
  0
ARC
  8
APS_GEOMETRY
 10
2914.381
 20
-678.316
 40
6.324
 50
164.291
 51
177.51
  0
LINE
  8
APS_GEOMETRY
 10
2966.281
 11
2982.568
 20
-670.421
 21
-684.68
  0
ARC
  8
APS_GEOMETRY
 10
2997.799
 20
-667.201
 40
23.185
 50
228.93
 51
232.674
  0
ARC
  8
APS_GEOMETRY
 10
2989.326
 20
-678.313
 40
9.21
 50
232.674
 51
238.617
  0
ARC
  8
APS_GEOMETRY
 10
2987.194
 20
-681.808
 40
5.116
 50
238.617
 51
249.131
  0
ARC
  8
APS_GEOMETRY
 10
2985.838
 20
-685.365
 40
1.309
 50
249.131
 51
270.0
  0
ARC
  8
APS_GEOMETRY
 10
2985.838
 20
-685.527
 40
1.148
 50
270.0
 51
334.898
  0
ARC
  8
APS_GEOMETRY
 10
2980.54
 20
-683.045
 40
6.999
 50
334.898
 51
0.0
  0
ARC
  8
APS_GEOMETRY
 10
2929.309
 20
-683.045
 40
58.23
 50
0.0
 51
2.026
  0
ARC
  8
APS_GEOMETRY
 10
2960.196
 20
-681.952
 40
27.324
 50
2.026
 51
4.984
  0
ARC
  8
APS_GEOMETRY
 10
2970.295
 20
-681.071
 40
17.186
 50
4.984
 51
9.673
  0
ARC
  8
APS_GEOMETRY
 10
2981.934
 20
-679.087
 40
5.379
 50
9.673
 51
18.06
  0
ARC
  8
APS_GEOMETRY
 10
2983.706
 20
-678.509
 40
3.515
 50
18.06
 51
42.397
  0
ARC
  8
APS_GEOMETRY
 10
2983.134
 20
-679.032
 40
4.29
 50
42.397
 51
64.398
  0
ARC
  8
APS_GEOMETRY
 10
2988.358
 20
-668.246
 40
7.695
 50
233.633
 51
244.026
  0
ARC
  8
APS_GEOMETRY
 10
2985.513
 20
-672.109
 40
2.896
 50
216.656
 51
233.633
  0
ARC
  8
APS_GEOMETRY
 10
2985.076
 20
-672.434
 40
2.353
 50
196.082
 51
216.656
  0
ARC
  8
APS_GEOMETRY
 10
2986.5
 20
-672.024
 40
3.835
 50
180.0
 51
196.082
  0
ARC
  8
APS_GEOMETRY
 10
2985.454
 20
-672.024
 40
2.788
 50
133.202
 51
180.0
  0
ARC
  8
APS_GEOMETRY
 10
2987.652
 20
-674.365
 40
6.0
 50
101.788
 51
133.202
  0
ARC
  8
APS_GEOMETRY
 10
2988.165
 20
-676.661
 40
8.353
 50
96.633
 51
102.011
  0
ARC
  8
APS_GEOMETRY
 10
2990.024
 20
-692.65
 40
24.449
 50
93.489
 51
96.633
  0
ARC
  8
APS_GEOMETRY
 10
2990.82
 20
-705.709
 40
37.532
 50
91.439
 51
93.489
  0
ARC
  8
APS_GEOMETRY
 10
2991.79
 20
-744.303
 40
76.138
 50
90.0
 51
91.439
  0
ARC
  8
APS_GEOMETRY
 10
2991.79
 20
-739.129
 40
70.964
 50
87.994
 51
90.0
  0
ARC
  8
APS_GEOMETRY
 10
2993.08
 20
-702.288
 40
34.101
 50
85.101
 51
87.994
  0
ARC
  8
APS_GEOMETRY
 10
2994.127
 20
-690.072
 40
21.84
 50
80.595
 51
85.101
  0
ARC
  8
APS_GEOMETRY
 10
2996.515
 20
-675.658
 40
7.23
 50
72.759
 51
80.595
  0
ARC
  8
APS_GEOMETRY
 10
2997.238
 20
-673.418
 40
4.876
 50
40.956
 51
73.072
  0
ARC
  8
APS_GEOMETRY
 10
2998.618
 20
-672.22
 40
3.048
 50
360.0
 51
40.956
  0
ARC
  8
APS_GEOMETRY
 10
2998.802
 20
-672.22
 40
2.865
 50
322.573
 51
360.0
  0
ARC
  8
APS_GEOMETRY
 10
2997.297
 20
-671.068
 40
4.76
 50
293.749
 51
322.573
  0
ARC
  8
APS_GEOMETRY
 10
3003.341
 20
-684.949
 40
10.38
 50
113.429
 51
119.291
  0
ARC
  8
APS_GEOMETRY
 10
2999.302
 20
-677.749
 40
2.124
 50
119.291
 51
132.274
  0
ARC
  8
APS_GEOMETRY
 10
2999.069
 20
-677.492
 40
1.778
 50
132.274
 51
147.653
  0
ARC
  8
APS_GEOMETRY
 10
3000.751
 20
-678.558
 40
3.769
 50
147.653
 51
158.199
  0
ARC
  8
APS_GEOMETRY
 10
3003.31
 20
-679.637
 40
6.546
 50
157.751
 51
167.885
  0
ARC
  8
APS_GEOMETRY
 10
3016.93
 20
-682.56
 40
20.477
 50
167.885
 51
173.61
  0
ARC
  8
APS_GEOMETRY
 10
3028.977
 20
-683.91
 40
32.599
 50
173.61
 51
177.221
  0
ARC
  8
APS_GEOMETRY
 10
3066.133
 20
-685.713
 40
69.798
 50
177.221
 51
179.689
  0
LINE
  8
APS_GEOMETRY
 10
2996.336
 11
2996.336
 20
-685.334
 21
-695.995
  0
ARC
  8
APS_GEOMETRY
 10
3431.701
 20
-695.995
 40
435.365
 50
180.0
 51
180.161
  0
ARC
  8
APS_GEOMETRY
 10
3809.52
 20
-694.931
 40
813.186
 50
180.161
 51
180.279
  0
LINE
  8
APS_GEOMETRY
 10
2996.344
 11
2996.354
 20
-698.898
 21
-700.686
  0
LINE
  8
APS_GEOMETRY
 10
2996.354
 11
2996.368
 20
-700.686
 21
-702.699
  0
ARC
  8
APS_GEOMETRY
 10
2918.685
 20
-703.141
 40
77.685
 50
358.204
 51
0.326
  0
ARC
  8
APS_GEOMETRY
 10
2955.639
 20
-704.299
 40
40.713
 50
355.274
 51
358.204
  0
ARC
  8
APS_GEOMETRY
 10
2968.501
 20
-705.363
 40
27.806
 50
350.991
 51
355.274
  0
ARC
  8
APS_GEOMETRY
 10
2984.88
 20
-707.959
 40
11.223
 50
344.249
 51
350.991
  0
ARC
  8
APS_GEOMETRY
 10
2990.416
 20
-709.54
 40
5.466
 50
314.415
 51
344.445
  0
ARC
  8
APS_GEOMETRY
 10
2992.444
 20
-711.61
 40
2.568
 50
270.0
 51
314.415
  0
ARC
  8
APS_GEOMETRY
 10
2992.444
 20
-710.018
 40
4.16
 50
256.342
 51
270.0
  0
ARC
  8
APS_GEOMETRY
 10
2992.148
 20
-711.238
 40
2.905
 50
239.982
 51
256.342
  0
ARC
  8
APS_GEOMETRY
 10
2993.442
 20
-708.998
 40
5.492
 50
231.153
 51
239.982
  0
ARC
  8
APS_GEOMETRY
 10
3015.191
 20
-681.993
 40
40.166
 50
227.891
 51
231.153
  0
LINE
  8
APS_GEOMETRY
 10
2988.258
 11
2968.865
 20
-711.791
 21
-694.425
  0
ARC
  8
APS_GEOMETRY
 10
2961.394
 20
-702.697
 40
11.146
 50
47.911
 51
61.468
  0
ARC
  8
APS_GEOMETRY
 10
2965.496
 20
-695.151
 40
2.557
 50
61.468
 51
90.0
  0
ARC
  8
APS_GEOMETRY
 10
2965.496
 20
-693.714
 40
1.12
 50
90.0
 51
133.195
  0
ARC
  8
APS_GEOMETRY
 10
2966.6
 20
-694.89
 40
2.733
 50
133.195
 51
160.454
  0
ARC
  8
APS_GEOMETRY
 10
2970.145
 20
-696.148
 40
6.494
 50
160.454
 51
173.251
  0
ARC
  8
APS_GEOMETRY
 10
2986.812
 20
-698.121
 40
23.278
 50
173.251
 51
180.0
  0
ARC
  8
APS_GEOMETRY
 10
3032.152
 20
-698.121
 40
68.618
 50
180.0
 51
181.897
  0
ARC
  8
APS_GEOMETRY
 10
2995.81
 20
-699.325
 40
32.255
 50
181.897
 51
184.664
  0
ARC
  8
APS_GEOMETRY
 10
2983.898
 20
-700.296
 40
20.304
 50
184.664
 51
189.048
  0
ARC
  8
APS_GEOMETRY
 10
2970.097
 20
-702.494
 40
6.329
 50
189.048
 51
196.905
  0
ARC
  8
APS_GEOMETRY
 10
2967.906
 20
-703.16
 40
4.04
 50
196.905
 51
220.253
  0
ARC
  8
APS_GEOMETRY
 10
2967.95
 20
-703.123
 40
4.097
 50
220.253
 51
243.435
  0
ARC
  8
APS_GEOMETRY
 10
2963.952
 20
-711.184
 40
4.901
 50
37.921
 51
63.778
  0
ARC
  8
APS_GEOMETRY
 10
2965.985
 20
-709.6
 40
2.324
 50
360.0
 51
37.921
  0
ARC
  8
APS_GEOMETRY
 10
2965.081
 20
-709.6
 40
3.227
 50
324.268
 51
360.0
  0
ARC
  8
APS_GEOMETRY
 10
2963.874
 20
-708.731
 40
4.715
 50
294.86
 51
324.268
  0
ARC
  8
APS_GEOMETRY
 10
2961.877
 20
-704.421
 40
9.465
 50
278.78
 51
294.86
  0
ARC
  8
APS_GEOMETRY
 10
2958.498
 20
-682.541
 40
31.604
 50
270.0
 51
278.78
  0
ARC
  8
APS_GEOMETRY
 10
2958.498
 20
-688.213
 40
25.933
 50
260.383
 51
270.0
  0
ARC
  8
APS_GEOMETRY
 10
2955.765
 20
-704.342
 40
9.574
 50
244.522
 51
260.383
  0
ARC
  8
APS_GEOMETRY
 10
2953.785
 20
-708.496
 40
4.972
 50
216.549
 51
244.522
  0
ARC
  8
APS_GEOMETRY
 10
2952.164
 20
-709.698
 40
2.954
 50
180.0
 51
216.549
  0
ARC
  8
APS_GEOMETRY
 10
2953.217
 20
-709.698
 40
4.007
 50
164.65
 51
180.0
  0
ARC
  8
APS_GEOMETRY
 10
2950.931
 20
-709.071
 40
1.637
 50
140.528
 51
164.65
  0
ARC
  8
APS_GEOMETRY
 10
2951.856
 20
-709.832
 40
2.835
 50
126.135
 51
140.528
  0
ARC
  8
APS_GEOMETRY
 10
2961.511
 20
-723.055
 40
19.207
 50
120.619
 51
126.135
  0
ARC
  8
APS_GEOMETRY
 10
2950.064
 20
-703.733
 40
3.251
 50
300.784
 51
330.068
  0
ARC
  8
APS_GEOMETRY
 10
2947.899
 20
-702.486
 40
5.749
 50
330.068
 51
351.983
  0
ARC
  8
APS_GEOMETRY
 10
2911.536
 20
-697.746
 40
42.42
 50
352.493
 51
355.365
  0
ARC
  8
APS_GEOMETRY
 10
2867.673
 20
-694.189
 40
86.427
 50
355.365
 51
357.376
  0
ARC
  8
APS_GEOMETRY
 10
2836.961
 20
-692.782
 40
117.171
 50
357.376
 51
358.861
  0
ARC
  8
APS_GEOMETRY
 10
2755.134
 20
-691.155
 40
199.014
 50
358.861
 51
0.0
  0
ARC
  8
APS_GEOMETRY
 10
2828.724
 20
-691.155
 40
125.424
 50
360.0
 51
1.926
  0
ARC
  8
APS_GEOMETRY
 10
2887.11
 20
-689.191
 40
67.005
 50
1.926
 51
4.562
  0
ARC
  8
APS_GEOMETRY
 10
2907.698
 20
-687.549
 40
46.352
 50
4.562
 51
8.366
  0
ARC
  8
APS_GEOMETRY
 10
2934.474
 20
-683.611
 40
19.288
 50
8.366
 51
14.265
  0
ARC
  8
APS_GEOMETRY
 10
2944.599
 20
-681.05
 40
8.844
 50
14.349
 51
23.629
  0
ARC
  8
APS_GEOMETRY
 10
2949.733
 20
-678.804
 40
3.24
 50
23.629
 51
38.991
  0
ARC
  8
APS_GEOMETRY
 10
2949.752
 20
-678.789
 40
3.215
 50
38.991
 51
54.462
  0
ARC
  8
APS_GEOMETRY
 10
2946.748
 20
-682.994
 40
8.384
 50
54.462
 51
64.026
  0
ARC
  8
APS_GEOMETRY
 10
2955.226
 20
-665.627
 40
10.942
 50
235.472
 51
243.947
  0
ARC
  8
APS_GEOMETRY
 10
2950.847
 20
-671.992
 40
3.216
 50
219.806
 51
235.472
  0
ARC
  8
APS_GEOMETRY
 10
2950.184
 20
-672.545
 40
2.353
 50
198.939
 51
219.806
  0
ARC
  8
APS_GEOMETRY
 10
2950.655
 20
-672.383
 40
2.851
 50
180.0
 51
198.939
  0
ARC
  8
APS_GEOMETRY
 10
2950.515
 20
-672.383
 40
2.712
 50
126.254
 51
180.0
  0
ARC
  8
APS_GEOMETRY
 10
2954.655
 20
-678.028
 40
9.711
 50
98.616
 51
126.254
  0
ARC
  8
APS_GEOMETRY
 10
2955.238
 20
-682.691
 40
14.41
 50
94.456
 51
98.13
  0
ARC
  8
APS_GEOMETRY
 10
2957.486
 20
-711.543
 40
43.349
 50
92.337
 51
94.456
  0
ARC
  8
APS_GEOMETRY
 10
2958.444
 20
-735.021
 40
66.847
 50
90.963
 51
92.337
  0
ARC
  8
APS_GEOMETRY
 10
2959.61
 20
-804.37
 40
136.206
 50
90.0
 51
90.963
  0
ARC
  8
APS_GEOMETRY
 10
2959.61
 20
-692.986
 40
24.822
 50
83.928
 51
90.0
  0
ARC
  8
APS_GEOMETRY
 10
2961.646
 20
-673.849
 40
5.577
 50
71.095
 51
83.928
  0
ARC
  8
APS_GEOMETRY
 10
2961.832
 20
-673.306
 40
5.003
 50
56.848
 51
71.095
  0
ARC
  8
APS_GEOMETRY
 10
2956.329
 20
-681.73
 40
15.065
 50
48.652
 51
56.848
  0
ARC
  8
APS_GEOMETRY
 10
3025.089
 20
-708.772
 40
40.608
 50
84.71
 51
90.0
  0
ARC
  8
APS_GEOMETRY
 10
3025.833
 20
-700.732
 40
32.533
 50
78.799
 51
84.71
  0
ARC
  8
APS_GEOMETRY
 10
3030.65
 20
-676.389
 40
7.718
 50
49.783
 51
78.771
  0
ARC
  8
APS_GEOMETRY
 10
3033.871
 20
-672.579
 40
2.729
 50
360.0
 51
49.783
  0
ARC
  8
APS_GEOMETRY
 10
3033.581
 20
-672.579
 40
3.02
 50
342.759
 51
360.0
  0
ARC
  8
APS_GEOMETRY
 10
3035.156
 20
-673.068
 40
1.37
 50
317.045
 51
342.759
  0
ARC
  8
APS_GEOMETRY
 10
3034.395
 20
-672.36
 40
2.41
 50
301.817
 51
317.045
  0
ARC
  8
APS_GEOMETRY
 10
3023.139
 20
-654.218
 40
23.76
 50
296.98
 51
301.817
  0
ARC
  8
APS_GEOMETRY
 10
3035.141
 20
-677.836
 40
2.733
 50
116.565
 51
149.078
  0
ARC
  8
APS_GEOMETRY
 10
3038.66
 20
-679.944
 40
6.835
 50
149.078
 51
169.469
  0
ARC
  8
APS_GEOMETRY
 10
3046.164
 20
-681.339
 40
14.468
 50
169.469
 51
174.598
  0
ARC
  8
APS_GEOMETRY
 10
3084.828
 20
-684.996
 40
53.304
 50
174.598
 51
177.269
  0
ARC
  8
APS_GEOMETRY
 10
3118.826
 20
-686.617
 40
87.341
 50
177.269
 51
178.901
  0
ARC
  8
APS_GEOMETRY
 10
3224.133
 20
-688.637
 40
192.667
 50
178.901
 51
180.0
  0
ARC
  8
APS_GEOMETRY
 10
3438.122
 20
-688.637
 40
406.657
 50
180.0
 51
180.88
  0
ARC
  8
APS_GEOMETRY
 10
3187.602
 20
-692.485
 40
156.107
 50
180.88
 51
182.3
  0
ARC
  8
APS_GEOMETRY
 10
3114.377
 20
-695.426
 40
82.823
 50
182.3
 51
184.974
  0
ARC
  8
APS_GEOMETRY
 10
3044.556
 20
-701.502
 40
12.738
 50
184.974
 51
191.793
  0
ARC
  8
APS_GEOMETRY
 10
3036.446
 20
-703.054
 40
4.484
 50
193.57
 51
205.787
  0
ARC
  8
APS_GEOMETRY
 10
3034.429
 20
-704.028
 40
2.244
 50
205.787
 51
223.091
  0
ARC
  8
APS_GEOMETRY
 10
3034.941
 20
-703.55
 40
2.944
 50
223.091
 51
236.441
  0
ARC
  8
APS_GEOMETRY
 10
3039.224
 20
-697.092
 40
10.693
 50
236.441
 51
243.435
  0
ARC
  8
APS_GEOMETRY
 10
3032.666
 20
-710.563
 40
4.291
 50
37.185
 51
65.556
  0
ARC
  8
APS_GEOMETRY
 10
3034.065
 20
-709.502
 40
2.535
 50
360.0
 51
37.185
  0
ARC
  8
APS_GEOMETRY
 10
3033.988
 20
-709.502
 40
2.612
 50
312.039
 51
360.0
  0
ARC
  8
APS_GEOMETRY
 10
3030.877
 20
-706.051
 40
7.258
 50
283.815
 51
312.039
  0
ARC
  8
APS_GEOMETRY
 10
3025.737
 20
-684.746
 40
29.174
 50
279.273
 51
283.627
  0
ARC
  8
APS_GEOMETRY
 10
3023.682
 20
-672.161
 40
41.926
 50
275.641
 51
279.273
  0
ARC
  8
APS_GEOMETRY
 10
3022.897
 20
-664.207
 40
49.919
 50
272.588
 51
275.641
  0
ARC
  8
APS_GEOMETRY
 10
3022.015
 20
-644.69
 40
69.456
 50
270.0
 51
272.588
  0
ARC
  8
APS_GEOMETRY
 10
3022.015
 20
-672.252
 40
41.894
 50
262.774
 51
270.0
  0
ARC
  8
APS_GEOMETRY
 10
3018.238
 20
-702.039
 40
11.868
 50
249.175
 51
262.774
  0
ARC
  8
APS_GEOMETRY
 10
3015.865
 20
-708.277
 40
5.194
 50
221.23
 51
249.175
  0
ARC
  8
APS_GEOMETRY
 10
3013.796
 20
-710.09
 40
2.443
 50
180.0
 51
221.23
  0
ARC
  8
APS_GEOMETRY
 10
3013.395
 20
-710.09
 40
2.041
 50
142.696
 51
180.0
  0
ARC
  8
APS_GEOMETRY
 10
3016.616
 20
-712.545
 40
6.091
 50
121.357
 51
142.696
  0
ARC
  8
APS_GEOMETRY
 10
3011.173
 20
-703.63
 40
4.354
 50
301.477
 51
324.728
  0
ARC
  8
APS_GEOMETRY
 10
3011.753
 20
-704.04
 40
3.643
 50
324.728
 51
350.181
  0
ARC
  8
APS_GEOMETRY
 10
2993.512
 20
-701.023
 40
22.132
 50
350.538
 51
355.423
  0
ARC
  8
APS_GEOMETRY
 10
2918.56
 20
-695.023
 40
97.324
 50
355.423
 51
357.752
  0
ARC
  8
APS_GEOMETRY
 10
2848.967
 20
-692.291
 40
166.971
 50
357.752
 51
359.111
  0
ARC
  8
APS_GEOMETRY
 10
2626.22
 20
-688.833
 40
389.744
 50
359.111
 51
0.0
  0
ARC
  8
APS_GEOMETRY
 10
2880.741
 20
-688.833
 40
135.223
 50
0.0
 51
1.773
  0
ARC
  8
APS_GEOMETRY
 10
2960.101
 20
-686.377
 40
55.825
 50
1.773
 51
4.532
  0
ARC
  8
APS_GEOMETRY
 10
2984.222
 20
-684.465
 40
31.629
 50
4.532
 51
9.384
  0
ARC
  8
APS_GEOMETRY
 10
3008.715
 20
-680.417
 40
6.803
 50
9.384
 51
19.855
  0
ARC
  8
APS_GEOMETRY
 10
3011.957
 20
-679.184
 40
3.336
 50
18.853
 51
42.158
  0
ARC
  8
APS_GEOMETRY
 10
3009.179
 20
-681.7
 40
7.084
 50
42.158
 51
58.092
  0
ARC
  8
APS_GEOMETRY
 10
3021.407
 20
-662.803
 40
15.426
 50
230.711
 51
236.634
  0
ARC
  8
APS_GEOMETRY
 10
3013.726
 20
-672.191
 40
3.296
 50
217.875
 51
230.711
  0
ARC
  8
APS_GEOMETRY
 10
3012.673
 20
-673.01
 40
1.962
 50
196.928
 51
217.875
  0
ARC
  8
APS_GEOMETRY
 10
3013.659
 20
-672.71
 40
2.992
 50
180.0
 51
196.928
  0
ARC
  8
APS_GEOMETRY
 10
3013.014
 20
-672.71
 40
2.347
 50
148.791
 51
180.0
  0
ARC
  8
APS_GEOMETRY
 10
3013.629
 20
-673.083
 40
3.067
 50
121.569
 51
148.791
  0
ARC
  8
APS_GEOMETRY
 10
3014.734
 20
-674.882
 40
5.178
 50
112.806
 51
121.569
  0
ARC
  8
APS_GEOMETRY
 10
3017.722
 20
-681.986
 40
12.885
 50
107.254
 51
112.806
  0
ARC
  8
APS_GEOMETRY
 10
3019.551
 20
-687.878
 40
19.054
 50
103.487
 51
107.254
  0
ARC
  8
APS_GEOMETRY
 10
3023.742
 20
-705.35
 40
37.022
 50
100.784
 51
103.487
  0
ARC
  8
APS_GEOMETRY
 10
3025.055
 20
-710.181
 40
42.015
 50
95.643
 51
101.31
  0
ARC
  8
APS_GEOMETRY
 10
3025.089
 20
-710.527
 40
42.362
 50
90.0
 51
95.643
  0
ARC
  8
APS_GEOMETRY
 10
3065.759
 20
-689.199
 40
21.264
 50
77.257
 51
90.0
  0
ARC
  8
APS_GEOMETRY
 10
3065.543
 20
-690.155
 40
22.243
 50
64.799
 51
77.257
  0
ARC
  8
APS_GEOMETRY
 10
3083.86
 20
-651.156
 40
20.843
 50
244.885
 51
251.175
  0
ARC
  8
APS_GEOMETRY
 10
3077.892
 20
-668.664
 40
2.346
 50
251.175
 51
270.0
  0
ARC
  8
APS_GEOMETRY
 10
3077.892
 20
-667.203
 40
3.806
 50
270.0
 51
278.82
  0
ARC
  8
APS_GEOMETRY
 10
3075.433
 20
-651.356
 40
19.844
 50
278.82
 51
282.68
  0
ARC
  8
APS_GEOMETRY
 10
3080.578
 20
-674.136
 40
3.511
 50
95.906
 51
102.995
  0
ARC
  8
APS_GEOMETRY
 10
3080.737
 20
-675.673
 40
5.055
 50
90.0
 51
95.906
  0
ARC
  8
APS_GEOMETRY
 10
3080.737
 20
-673.973
 40
3.356
 50
62.447
 51
90.0
  0
ARC
  8
APS_GEOMETRY
 10
3080.14
 20
-675.116
 40
4.645
 50
39.094
 51
62.447
  0
ARC
  8
APS_GEOMETRY
 10
3073.906
 20
-680.33
 40
12.772
 50
18.435
 51
39.611
  0
ARC
  8
APS_GEOMETRY
 10
3070.08
 20
-681.606
 40
16.806
 50
360.0
 51
18.435
  0
ARC
  8
APS_GEOMETRY
 10
3078.552
 20
-681.606
 40
8.333
 50
334.877
 51
360.0
  0
ARC
  8
APS_GEOMETRY
 10
3081.058
 20
-682.781
 40
5.565
 50
304.007
 51
334.877
  0
ARC
  8
APS_GEOMETRY
 10
3081.017
 20
-682.663
 40
5.686
 50
286.39
 51
303.69
  0
ARC
  8
APS_GEOMETRY
 10
3080.835
 20
-682.045
 40
6.33
 50
270.0
 51
286.39
  0
ARC
  8
APS_GEOMETRY
 10
3080.835
 20
-682.119
 40
6.257
 50
255.155
 51
270.0
  0
ARC
  8
APS_GEOMETRY
 10
3080.15
 20
-684.705
 40
3.581
 50
235.491
 51
255.155
  0
ARC
  8
APS_GEOMETRY
 10
3080.494
 20
-684.204
 40
4.189
 50
218.48
 51
235.491
  0
ARC
  8
APS_GEOMETRY
 10
3086.115
 20
-679.736
 40
11.369
 50
208.179
 51
218.48
  0
ARC
  8
APS_GEOMETRY
 10
3028.49
 20
-711.015
 40
54.198
 50
28.56
 51
31.664
  0
ARC
  8
APS_GEOMETRY
 10
3063.702
 20
-689.299
 40
12.827
 50
31.664
 51
38.047
  0
ARC
  8
APS_GEOMETRY
 10
3066.262
 20
-687.295
 40
9.576
 50
38.047
 51
46.56
  0
ARC
  8
APS_GEOMETRY
 10
3064.932
 20
-688.7
 40
11.512
 50
46.56
 51
54.324
  0
ARC
  8
APS_GEOMETRY
 10
3064.164
 20
-690.022
 40
13.034
 50
54.968
 51
71.48
  0
ARC
  8
APS_GEOMETRY
 10
3065.007
 20
-687.505
 40
10.38
 50
71.48
 51
90.0
  0
ARC
  8
APS_GEOMETRY
 10
3065.007
 20
-684.376
 40
7.251
 50
90.0
 51
114.63
  0
ARC
  8
APS_GEOMETRY
 10
3064.642
 20
-683.582
 40
6.377
 50
114.63
 51
140.921
  0
ARC
  8
APS_GEOMETRY
 10
3065.718
 20
-684.455
 40
7.763
 50
140.921
 51
163.13
  0
ARC
  8
APS_GEOMETRY
 10
3071.096
 20
-686.086
 40
13.382
 50
163.13
 51
180.0
  0
ARC
  8
APS_GEOMETRY
 10
3078.069
 20
-686.086
 40
20.355
 50
180.0
 51
195.44
  0
ARC
  8
APS_GEOMETRY
 10
3077.011
 20
-686.378
 40
19.258
 50
195.44
 51
211.316
  0
ARC
  8
APS_GEOMETRY
 10
3071.922
 20
-689.368
 40
13.357
 50
211.708
 51
240.457
  0
ARC
  8
APS_GEOMETRY
 10
3071.58
 20
-689.971
 40
12.663
 50
240.457
 51
270.0
  0
ARC
  8
APS_GEOMETRY
 10
3071.58
 20
-686.883
 40
15.751
 50
270.0
 51
279.549
  0
ARC
  8
APS_GEOMETRY
 10
3071.384
 20
-685.719
 40
16.931
 50
279.549
 51
288.759
  0
ARC
  8
APS_GEOMETRY
 10
3072.21
 20
-688.15
 40
14.364
 50
288.759
 51
299.545
  0
ARC
  8
APS_GEOMETRY
 10
3075.519
 20
-693.989
 40
7.652
 50
299.545
 51
314.341
  0
ARC
  8
APS_GEOMETRY
 10
3085.754
 20
-704.62
 40
7.105
 50
120.141
 51
133.452
  0
ARC
  8
APS_GEOMETRY
 10
3082.895
 20
-699.696
 40
1.412
 50
90.0
 51
120.141
  0
ARC
  8
APS_GEOMETRY
 10
3082.895
 20
-700.514
 40
2.23
 50
61.952
 51
90.0
  0
ARC
  8
APS_GEOMETRY
 10
3082.563
 20
-701.137
 40
2.936
 50
37.569
 51
61.952
  0
ARC
  8
APS_GEOMETRY
 10
3081.944
 20
-701.614
 40
3.717
 50
17.665
 51
37.569
  0
ARC
  8
APS_GEOMETRY
 10
3080.999
 20
-701.915
 40
4.709
 50
360.0
 51
17.665
  0
ARC
  8
APS_GEOMETRY
 10
3078.627
 20
-701.915
 40
7.081
 50
344.932
 51
360.0
  0
ARC
  8
APS_GEOMETRY
 10
3072.329
 20
-700.219
 40
13.603
 50
334.075
 51
344.932
  0
ARC
  8
APS_GEOMETRY
 10
3072.131
 20
-700.123
 40
13.823
 50
323.374
 51
334.075
  0
ARC
  8
APS_GEOMETRY
 10
3076.195
 20
-703.143
 40
8.76
 50
309.92
 51
323.374
  0
ARC
  8
APS_GEOMETRY
 10
3080.256
 20
-707.934
 40
2.48
 50
289.026
 51
308.991
  0
ARC
  8
APS_GEOMETRY
 10
3075.923
 20
-695.369
 40
15.771
 50
281.143
 51
289.026
  0
ARC
  8
APS_GEOMETRY
 10
3080.317
 20
-718.15
 40
7.431
 50
100.437
 51
110.12
  0
ARC
  8
APS_GEOMETRY
 10
3086.138
 20
-734.04
 40
24.353
 50
110.12
 51
115.463
  0
ARC
  8
APS_GEOMETRY
 10
3065.357
 20
-690.56
 40
23.838
 50
282.94
 51
295.628
  0
ARC
  8
APS_GEOMETRY
 10
3065.563
 20
-691.454
 40
22.921
 50
270.0
 51
282.94
  0
ARC
  8
APS_GEOMETRY
 10
3065.563
 20
-690.1
 40
24.275
 50
257.307
 51
270.0
  0
ARC
  8
APS_GEOMETRY
 10
3066.587
 20
-685.55
 40
28.939
 50
245.686
 51
257.307
  0
ARC
  8
APS_GEOMETRY
 10
3064.017
 20
-691.191
 40
22.739
 50
228.801
 51
245.735
  0
ARC
  8
APS_GEOMETRY
 10
3064.06
 20
-691.142
 40
22.805
 50
211.891
 51
228.801
  0
ARC
  8
APS_GEOMETRY
 10
3065.408
 20
-690.172
 40
24.462
 50
196.728
 51
212.152
  0
ARC
  8
APS_GEOMETRY
 10
3061.92
 20
-691.22
 40
20.82
 50
180.0
 51
196.728
  0
ARC
  8
APS_GEOMETRY
 10
3062.427
 20
-691.22
 40
21.327
 50
161.184
 51
180.0
  0
ARC
  8
APS_GEOMETRY
 10
3063.796
 20
-691.687
 40
22.773
 50
142.98
 51
161.184
  0
ARC
  8
APS_GEOMETRY
 10
3064.86
 20
-692.501
 40
24.112
 50
127.824
 51
142.958
  0
ARC
  8
APS_GEOMETRY
 10
3066.614
 20
-694.76
 40
26.973
 50
113.52
 51
127.824
  0
ARC
  8
APS_GEOMETRY
 10
3066.043
 20
-693.441
 40
25.535
 50
101.927
 51
113.527
  0
ARC
  8
APS_GEOMETRY
 10
3065.759
 20
-692.097
 40
24.161
 50
90.0
 51
101.927
  0
ARC
  8
APS_GEOMETRY
 10
3110.307
 20
-708.772
 40
40.608
 50
84.71
 51
90.0
  0
ARC
  8
APS_GEOMETRY
 10
3111.052
 20
-700.732
 40
32.533
 50
78.799
 51
84.71
  0
ARC
  8
APS_GEOMETRY
 10
3115.868
 20
-676.389
 40
7.718
 50
49.783
 51
78.771
  0
ARC
  8
APS_GEOMETRY
 10
3119.09
 20
-672.579
 40
2.729
 50
360.0
 51
49.783
  0
ARC
  8
APS_GEOMETRY
 10
3118.799
 20
-672.579
 40
3.02
 50
342.759
 51
360.0
  0
ARC
  8
APS_GEOMETRY
 10
3120.375
 20
-673.068
 40
1.37
 50
317.045
 51
342.759
  0
ARC
  8
APS_GEOMETRY
 10
3119.614
 20
-672.36
 40
2.41
 50
301.817
 51
317.045
  0
ARC
  8
APS_GEOMETRY
 10
3108.358
 20
-654.218
 40
23.76
 50
296.98
 51
301.817
  0
ARC
  8
APS_GEOMETRY
 10
3120.359
 20
-677.836
 40
2.733
 50
116.565
 51
149.078
  0
ARC
  8
APS_GEOMETRY
 10
3123.879
 20
-679.944
 40
6.835
 50
149.078
 51
169.469
  0
ARC
  8
APS_GEOMETRY
 10
3131.383
 20
-681.339
 40
14.468
 50
169.469
 51
174.598
  0
ARC
  8
APS_GEOMETRY
 10
3170.047
 20
-684.996
 40
53.304
 50
174.598
 51
177.269
  0
ARC
  8
APS_GEOMETRY
 10
3204.045
 20
-686.617
 40
87.341
 50
177.269
 51
178.901
  0
ARC
  8
APS_GEOMETRY
 10
3309.351
 20
-688.637
 40
192.667
 50
178.901
 51
180.0
  0
ARC
  8
APS_GEOMETRY
 10
3523.341
 20
-688.637
 40
406.657
 50
180.0
 51
180.88
  0
ARC
  8
APS_GEOMETRY
 10
3272.821
 20
-692.485
 40
156.107
 50
180.88
 51
182.3
  0
ARC
  8
APS_GEOMETRY
 10
3199.596
 20
-695.426
 40
82.823
 50
182.3
 51
184.974
  0
ARC
  8
APS_GEOMETRY
 10
3129.775
 20
-701.502
 40
12.738
 50
184.974
 51
191.793
  0
ARC
  8
APS_GEOMETRY
 10
3121.665
 20
-703.054
 40
4.484
 50
193.57
 51
205.787
  0
ARC
  8
APS_GEOMETRY
 10
3119.648
 20
-704.028
 40
2.244
 50
205.787
 51
223.091
  0
ARC
  8
APS_GEOMETRY
 10
3120.159
 20
-703.55
 40
2.944
 50
223.091
 51
236.441
  0
ARC
  8
APS_GEOMETRY
 10
3124.443
 20
-697.092
 40
10.693
 50
236.441
 51
243.435
  0
ARC
  8
APS_GEOMETRY
 10
3117.885
 20
-710.563
 40
4.291
 50
37.185
 51
65.556
  0
ARC
  8
APS_GEOMETRY
 10
3119.284
 20
-709.502
 40
2.535
 50
360.0
 51
37.185
  0
ARC
  8
APS_GEOMETRY
 10
3119.207
 20
-709.502
 40
2.612
 50
312.039
 51
360.0
  0
ARC
  8
APS_GEOMETRY
 10
3116.096
 20
-706.051
 40
7.258
 50
283.815
 51
312.039
  0
ARC
  8
APS_GEOMETRY
 10
3110.956
 20
-684.746
 40
29.174
 50
279.273
 51
283.627
  0
ARC
  8
APS_GEOMETRY
 10
3108.901
 20
-672.161
 40
41.926
 50
275.641
 51
279.273
  0
ARC
  8
APS_GEOMETRY
 10
3108.115
 20
-664.207
 40
49.919
 50
272.588
 51
275.641
  0
ARC
  8
APS_GEOMETRY
 10
3107.233
 20
-644.69
 40
69.456
 50
270.0
 51
272.588
  0
ARC
  8
APS_GEOMETRY
 10
3107.233
 20
-672.252
 40
41.894
 50
262.774
 51
270.0
  0
ARC
  8
APS_GEOMETRY
 10
3103.457
 20
-702.039
 40
11.868
 50
249.175
 51
262.774
  0
ARC
  8
APS_GEOMETRY
 10
3101.084
 20
-708.277
 40
5.194
 50
221.23
 51
249.175
  0
ARC
  8
APS_GEOMETRY
 10
3099.015
 20
-710.09
 40
2.443
 50
180.0
 51
221.23
  0
ARC
  8
APS_GEOMETRY
 10
3098.613
 20
-710.09
 40
2.041
 50
142.696
 51
180.0
  0
ARC
  8
APS_GEOMETRY
 10
3101.835
 20
-712.545
 40
6.091
 50
121.357
 51
142.696
  0
ARC
  8
APS_GEOMETRY
 10
3096.391
 20
-703.63
 40
4.354
 50
301.477
 51
324.728
  0
ARC
  8
APS_GEOMETRY
 10
3096.972
 20
-704.04
 40
3.643
 50
324.728
 51
350.181
  0
ARC
  8
APS_GEOMETRY
 10
3078.731
 20
-701.023
 40
22.132
 50
350.538
 51
355.423
  0
ARC
  8
APS_GEOMETRY
 10
3003.779
 20
-695.023
 40
97.324
 50
355.423
 51
357.752
  0
ARC
  8
APS_GEOMETRY
 10
2934.185
 20
-692.291
 40
166.971
 50
357.752
 51
359.111
  0
ARC
  8
APS_GEOMETRY
 10
2711.439
 20
-688.833
 40
389.744
 50
359.111
 51
0.0
  0
ARC
  8
APS_GEOMETRY
 10
2965.96
 20
-688.833
 40
135.223
 50
0.0
 51
1.773
  0
ARC
  8
APS_GEOMETRY
 10
3045.32
 20
-686.377
 40
55.825
 50
1.773
 51
4.532
  0
ARC
  8
APS_GEOMETRY
 10
3069.441
 20
-684.465
 40
31.629
 50
4.532
 51
9.384
  0
ARC
  8
APS_GEOMETRY
 10
3093.934
 20
-680.417
 40
6.803
 50
9.384
 51
19.855
  0
ARC
  8
APS_GEOMETRY
 10
3097.176
 20
-679.184
 40
3.336
 50
18.853
 51
42.158
  0
ARC
  8
APS_GEOMETRY
 10
3094.397
 20
-681.7
 40
7.084
 50
42.158
 51
58.092
  0
ARC
  8
APS_GEOMETRY
 10
3106.626
 20
-662.803
 40
15.426
 50
230.711
 51
236.634
  0
ARC
  8
APS_GEOMETRY
 10
3098.944
 20
-672.191
 40
3.296
 50
217.875
 51
230.711
  0
ARC
  8
APS_GEOMETRY
 10
3097.891
 20
-673.01
 40
1.962
 50
196.928
 51
217.875
  0
ARC
  8
APS_GEOMETRY
 10
3098.877
 20
-672.71
 40
2.992
 50
180.0
 51
196.928
  0
ARC
  8
APS_GEOMETRY
 10
3098.232
 20
-672.71
 40
2.347
 50
148.791
 51
180.0
  0
ARC
  8
APS_GEOMETRY
 10
3098.848
 20
-673.083
 40
3.067
 50
121.569
 51
148.791
  0
ARC
  8
APS_GEOMETRY
 10
3099.953
 20
-674.882
 40
5.178
 50
112.806
 51
121.569
  0
ARC
  8
APS_GEOMETRY
 10
3102.941
 20
-681.986
 40
12.885
 50
107.254
 51
112.806
  0
ARC
  8
APS_GEOMETRY
 10
3104.77
 20
-687.878
 40
19.054
 50
103.487
 51
107.254
  0
ARC
  8
APS_GEOMETRY
 10
3108.961
 20
-705.35
 40
37.022
 50
100.784
 51
103.487
  0
ARC
  8
APS_GEOMETRY
 10
3110.273
 20
-710.181
 40
42.015
 50
95.643
 51
101.31
  0
ARC
  8
APS_GEOMETRY
 10
3110.307
 20
-710.527
 40
42.362
 50
90.0
 51
95.643
  0
LINE
  8
APS_GEOMETRY
 10
3179.456
 11
3179.456
 20
-698.088
 21
-680.886
  0
ARC
  8
APS_GEOMETRY
 10
3139.734
 20
-680.886
 40
39.721
 50
0.0
 51
2.404
  0
ARC
  8
APS_GEOMETRY
 10
3163.252
 20
-679.899
 40
16.183
 50
2.404
 51
6.17
  0
ARC
  8
APS_GEOMETRY
 10
3170.301
 20
-679.137
 40
9.093
 50
6.17
 51
12.824
  0
ARC
  8
APS_GEOMETRY
 10
3177.2
 20
-677.566
 40
2.017
 50
12.824
 51
26.98
  0
ARC
  8
APS_GEOMETRY
 10
3177.523
 20
-677.402
 40
1.655
 50
26.98
 51
59.65
  0
ARC
  8
APS_GEOMETRY
 10
3174.485
 20
-682.591
 40
7.668
 50
59.65
 51
74.667
  0
ARC
  8
APS_GEOMETRY
 10
3177.987
 20
-670.092
 40
5.313
 50
225.0
 51
253.887
  0
ARC
  8
APS_GEOMETRY
 10
3175.826
 20
-672.252
 40
2.257
 50
180.0
 51
225.0
  0
ARC
  8
APS_GEOMETRY
 10
3176.241
 20
-672.252
 40
2.672
 50
151.157
 51
180.0
  0
ARC
  8
APS_GEOMETRY
 10
3176.235
 20
-672.249
 40
2.665
 50
122.276
 51
151.157
  0
ARC
  8
APS_GEOMETRY
 10
3176.999
 20
-673.459
 40
4.096
 50
102.308
 51
122.276
  0
ARC
  8
APS_GEOMETRY
 10
3178.409
 20
-679.923
 40
10.712
 50
90.0
 51
102.308
  0
ARC
  8
APS_GEOMETRY
 10
3178.409
 20
-692.377
 40
23.166
 50
88.989
 51
90.0
  0
ARC
  8
APS_GEOMETRY
 10
3176.462
 20
-802.722
 40
133.528
 50
88.568
 51
88.989
  0
ARC
  8
APS_GEOMETRY
 10
3173.712
 20
-912.726
 40
243.567
 50
88.337
 51
88.568
  0
ARC
  8
APS_GEOMETRY
 10
3163.054
 20
-1279.842
 40
610.838
 50
88.191
 51
88.337
  0
LINE
  8
APS_GEOMETRY
 10
3182.334
 11
3184.263
 20
-669.309
 21
-669.309
  0
ARC
  8
APS_GEOMETRY
 10
3177.781
 20
406.64
 40
1075.969
 50
270.345
 51
270.49
  0
ARC
  8
APS_GEOMETRY
 10
3183.821
 20
-299.97
 40
369.332
 50
270.49
 51
270.736
  0
ARC
  8
APS_GEOMETRY
 10
3186.3
 20
-492.842
 40
176.445
 50
270.736
 51
271.253
  0
ARC
  8
APS_GEOMETRY
 10
3189.826
 20
-654.058
 40
15.19
 50
271.253
 51
273.013
  0
ARC
  8
APS_GEOMETRY
 10
3189.679
 20
-651.271
 40
17.982
 50
273.013
 51
274.5
  0
ARC
  8
APS_GEOMETRY
 10
3173.023
 20
-439.617
 40
230.289
 50
274.5
 51
274.915
  0
LINE
  8
APS_GEOMETRY
 10
3192.754
 11
3194.717
 20
-669.06
 21
-668.887
  0
LINE
  8
APS_GEOMETRY
 10
3194.717
 11
3197.279
 20
-668.887
 21
-668.655
  0
ARC
  8
APS_GEOMETRY
 10
3201.492
 20
-709.379
 40
40.941
 50
93.24
 51
95.906
  0
ARC
  8
APS_GEOMETRY
 10
3200.746
 20
-696.195
 40
27.736
 50
90.0
 51
93.24
  0
ARC
  8
APS_GEOMETRY
 10
3200.746
 20
-692.012
 40
23.553
 50
77.12
 51
90.0
  0
ARC
  8
APS_GEOMETRY
 10
3201.987
 20
-686.586
 40
17.987
 50
62.371
 51
77.12
  0
ARC
  8
APS_GEOMETRY
 10
3204.087
 20
-682.646
 40
13.522
 50
31.215
 51
62.517
  0
ARC
  8
APS_GEOMETRY
 10
3204.024
 20
-682.685
 40
13.597
 50
360.0
 51
31.215
  0
ARC
  8
APS_GEOMETRY
 10
3203.659
 20
-682.685
 40
13.962
 50
334.496
 51
360.0
  0
ARC
  8
APS_GEOMETRY
 10
3204.345
 20
-683.012
 40
13.201
 50
308.254
 51
334.496
  0
ARC
  8
APS_GEOMETRY
 10
3202.246
 20
-680.246
 40
16.674
 50
287.855
 51
308.034
  0
ARC
  8
APS_GEOMETRY
 10
3200.844
 20
-675.893
 40
21.247
 50
270.0
 51
287.855
  0
ARC
  8
APS_GEOMETRY
 10
3200.844
 20
-664.943
 40
32.197
 50
266.918
 51
270.0
  0
ARC
  8
APS_GEOMETRY
 10
3202.798
 20
-628.646
 40
68.546
 50
264.806
 51
266.918
  0
ARC
  8
APS_GEOMETRY
 10
3189.726
 20
-790.755
 40
94.095
 50
85.815
 51
86.634
  0
ARC
  8
APS_GEOMETRY
 10
3194.924
 20
-702.376
 40
5.563
 50
86.634
 51
90.0
  0
ARC
  8
APS_GEOMETRY
 10
3194.924
 20
-697.634
 40
0.821
 50
90.0
 51
139.686
  0
ARC
  8
APS_GEOMETRY
 10
3195.229
 20
-697.892
 40
1.22
 50
139.686
 51
180.0
  0
LINE
  8
APS_GEOMETRY
 10
3194.009
 11
3194.009
 20
-697.892
 21
-698.088
  0
LINE
  8
APS_GEOMETRY
 10
3194.009
 11
3194.238
 20
-698.088
 21
-703.452
  0
ARC
  8
APS_GEOMETRY
 10
3201.988
 20
-703.129
 40
7.757
 50
182.386
 51
193.753
  0
ARC
  8
APS_GEOMETRY
 10
3196.99
 20
-704.352
 40
2.612
 50
193.753
 51
213.408
  0
ARC
  8
APS_GEOMETRY
 10
3197.046
 20
-704.315
 40
2.679
 50
213.408
 51
232.628
  0
ARC
  8
APS_GEOMETRY
 10
3201.557
 20
-698.409
 40
10.11
 50
232.628
 51
242.488
  0
ARC
  8
APS_GEOMETRY
 10
3194.034
 20
-712.674
 40
6.017
 50
40.539
 51
61.699
  0
ARC
  8
APS_GEOMETRY
 10
3197.322
 20
-709.861
 40
1.69
 50
360.0
 51
40.539
  0
ARC
  8
APS_GEOMETRY
 10
3196.743
 20
-709.861
 40
2.269
 50
315.297
 51
360.0
  0
ARC
  8
APS_GEOMETRY
 10
3193.673
 20
-706.824
 40
6.588
 50
289.502
 51
315.297
  0
ARC
  8
APS_GEOMETRY
 10
3191.424
 20
-700.472
 40
13.326
 50
282.372
 51
289.502
  0
ARC
  8
APS_GEOMETRY
 10
3189.061
 20
-689.701
 40
24.353
 50
277.099
 51
282.372
  0
ARC
  8
APS_GEOMETRY
 10
3188.09
 20
-681.902
 40
32.213
 50
273.104
 51
277.099
  0
ARC
  8
APS_GEOMETRY
 10
3186.945
 20
-660.783
 40
53.362
 50
270.0
 51
273.104
  0
ARC
  8
APS_GEOMETRY
 10
3186.945
 20
-661.423
 40
52.723
 50
263.473
 51
270.0
  0
ARC
  8
APS_GEOMETRY
 10
3182.612
 20
-699.29
 40
14.609
 50
251.056
 51
263.473
  0
ARC
  8
APS_GEOMETRY
 10
3179.83
 20
-707.395
 40
6.039
 50
224.161
 51
251.056
  0
ARC
  8
APS_GEOMETRY
 10
3177.156
 20
-709.992
 40
2.311
 50
180.0
 51
224.161
  0
ARC
  8
APS_GEOMETRY
 10
3177.636
 20
-709.992
 40
2.791
 50
160.821
 51
180.0
  0
ARC
  8
APS_GEOMETRY
 10
3176.465
 20
-709.585
 40
1.552
 50
135.0
 51
160.821
  0
ARC
  8
APS_GEOMETRY
 10
3177.571
 20
-710.692
 40
3.117
 50
121.522
 51
135.0
  0
ARC
  8
APS_GEOMETRY
 10
3190.057
 20
-731.048
 40
26.996
 50
116.952
 51
121.522
  0
ARC
  8
APS_GEOMETRY
 10
3176.424
 20
-704.337
 40
2.993
 50
297.824
 51
321.605
  0
ARC
  8
APS_GEOMETRY
 10
3177.113
 20
-704.883
 40
2.113
 50
321.605
 51
349.992
  0
ARC
  8
APS_GEOMETRY
 10
3173.914
 20
-704.318
 40
5.362
 50
349.992
 51
356.014
  0
ARC
  8
APS_GEOMETRY
 10
3125.251
 20
-700.927
 40
54.143
 50
356.014
 51
357.908
  0
ARC
  8
APS_GEOMETRY
 10
3068.447
 20
-698.852
 40
110.985
 50
357.908
 51
358.833
  0
ARC
  8
APS_GEOMETRY
 10
2863.05
 20
-694.668
 40
316.424
 50
358.833
 51
359.381
  0
LINE
  8
APS_GEOMETRY
 10
3194.238
 11
3194.238
 20
-676.733
 21
-687.852
  0
ARC
  8
APS_GEOMETRY
 10
3197.612
 20
-687.852
 40
3.374
 50
180.0
 51
199.885
  0
ARC
  8
APS_GEOMETRY
 10
3195.087
 20
-688.765
 40
0.689
 50
199.885
 51
244.799
  0
ARC
  8
APS_GEOMETRY
 10
3196.538
 20
-685.775
 40
4.013
 50
244.231
 51
258.996
  0
ARC
  8
APS_GEOMETRY
 10
3197.148
 20
-682.638
 40
7.209
 50
258.996
 51
270.0
  0
ARC
  8
APS_GEOMETRY
 10
3197.148
 20
-683.396
 40
6.45
 50
270.0
 51
288.435
  0
ARC
  8
APS_GEOMETRY
 10
3197.611
 20
-684.785
 40
4.987
 50
288.435
 51
309.428
  0
ARC
  8
APS_GEOMETRY
 10
3197.78
 20
-684.959
 40
4.745
 50
309.193
 51
339.939
  0
ARC
  8
APS_GEOMETRY
 10
3191.91
 20
-682.816
 40
10.994
 50
339.939
 51
0.0
  0
ARC
  8
APS_GEOMETRY
 10
3192.556
 20
-682.816
 40
10.348
 50
0.0
 51
22.011
  0
ARC
  8
APS_GEOMETRY
 10
3197.141
 20
-680.962
 40
5.403
 50
22.011
 51
52.651
  0
ARC
  8
APS_GEOMETRY
 10
3197.07
 20
-681.011
 40
5.485
 50
52.374
 51
72.309
  0
ARC
  8
APS_GEOMETRY
 10
3196.625
 20
-682.407
 40
6.95
 50
72.309
 51
90.0
  0
ARC
  8
APS_GEOMETRY
 10
3196.625
 20
-679.509
 40
4.052
 50
90.0
 51
118.113
  0
ARC
  8
APS_GEOMETRY
 10
3195.142
 20
-676.733
 40
0.904
 50
118.113
 51
180.0
  0
ARC
  8
APS_GEOMETRY
 10
3246.975
 20
-693.717
 40
25.782
 50
71.91
 51
90.0
  0
ARC
  8
APS_GEOMETRY
 10
3247.974
 20
-690.66
 40
22.566
 50
52.561
 51
71.91
  0
ARC
  8
APS_GEOMETRY
 10
3247.712
 20
-690.737
 40
22.786
 50
38.846
 51
52.156
  0
ARC
  8
APS_GEOMETRY
 10
3244.14
 20
-693.613
 40
27.372
 50
26.707
 51
38.846
  0
ARC
  8
APS_GEOMETRY
 10
3244.847
 20
-693.035
 40
26.482
 50
13.868
 51
26.278
  0
ARC
  8
APS_GEOMETRY
 10
3249.947
 20
-691.776
 40
21.229
 50
360.0
 51
13.868
  0
ARC
  8
APS_GEOMETRY
 10
3250.277
 20
-691.776
 40
20.899
 50
339.712
 51
360.0
  0
ARC
  8
APS_GEOMETRY
 10
3249.101
 20
-691.342
 40
22.153
 50
320.013
 51
339.712
  0
ARC
  8
APS_GEOMETRY
 10
3248.906
 20
-691.234
 40
22.372
 50
303.344
 51
320.123
  0
ARC
  8
APS_GEOMETRY
 10
3246.61
 20
-687.745
 40
26.548
 50
287.949
 51
303.344
  0
ARC
  8
APS_GEOMETRY
 10
3245.856
 20
-685.13
 40
29.269
 50
279.039
 51
287.776
  0
ARC
  8
APS_GEOMETRY
 10
3246.158
 20
-687.029
 40
27.346
 50
270.0
 51
279.039
  0
ARC
  8
APS_GEOMETRY
 10
3246.158
 20
-688.364
 40
26.011
 50
257.728
 51
270.0
  0
ARC
  8
APS_GEOMETRY
 10
3246.199
 20
-688.176
 40
26.203
 50
245.501
 51
257.728
  0
ARC
  8
APS_GEOMETRY
 10
3244.726
 20
-691.398
 40
22.66
 50
228.665
 51
245.511
  0
ARC
  8
APS_GEOMETRY
 10
3244.236
 20
-691.955
 40
21.918
 50
211.535
 51
228.665
  0
ARC
  8
APS_GEOMETRY
 10
3244.878
 20
-691.484
 40
22.712
 50
195.642
 51
211.701
  0
ARC
  8
APS_GEOMETRY
 10
3246.052
 20
-691.155
 40
23.931
 50
180.0
 51
195.642
  0
ARC
  8
APS_GEOMETRY
 10
3246.303
 20
-691.155
 40
24.183
 50
162.181
 51
180.0
  0
ARC
  8
APS_GEOMETRY
 10
3244.097
 20
-690.446
 40
21.865
 50
143.434
 51
162.181
  0
ARC
  8
APS_GEOMETRY
 10
3243.8
 20
-690.208
 40
21.485
 50
126.384
 51
143.471
  0
ARC
  8
APS_GEOMETRY
 10
3245.834
 20
-692.969
 40
24.914
 50
110.525
 51
126.384
  0
ARC
  8
APS_GEOMETRY
 10
3245.733
 20
-692.219
 40
24.177
 50
99.77
 51
110.925
  0
ARC
  8
APS_GEOMETRY
 10
3246.975
 20
-699.431
 40
31.496
 50
90.0
 51
99.77
  0
ARC
  8
APS_GEOMETRY
 10
3243.868
 20
-682.129
 40
4.807
 50
90.0
 51
119.604
  0
ARC
  8
APS_GEOMETRY
 10
3244.29
 20
-682.87
 40
5.659
 50
119.604
 51
146.842
  0
ARC
  8
APS_GEOMETRY
 10
3245.136
 20
-683.563
 40
6.748
 50
145.84
 51
164.055
  0
ARC
  8
APS_GEOMETRY
 10
3247.097
 20
-684.124
 40
8.788
 50
164.055
 51
180.0
  0
ARC
  8
APS_GEOMETRY
 10
3259.361
 20
-684.124
 40
21.053
 50
180.0
 51
189.977
  0
ARC
  8
APS_GEOMETRY
 10
3278.013
 20
-680.843
 40
39.991
 50
189.977
 51
197.211
  0
ARC
  8
APS_GEOMETRY
 10
3282.093
 20
-679.579
 40
44.261
 50
197.211
 51
203.76
  0
ARC
  8
APS_GEOMETRY
 10
3271.93
 20
-684.053
 40
33.157
 50
203.76
 51
211.329
  0
ARC
  8
APS_GEOMETRY
 10
3251.062
 20
-696.577
 40
8.821
 50
212.32
 51
224.441
  0
ARC
  8
APS_GEOMETRY
 10
3250.206
 20
-697.416
 40
7.623
 50
224.441
 51
237.484
  0
ARC
  8
APS_GEOMETRY
 10
3249.653
 20
-698.283
 40
6.595
 50
237.484
 51
252.416
  0
ARC
  8
APS_GEOMETRY
 10
3249.101
 20
-700.026
 40
4.766
 50
252.416
 51
270.0
  0
ARC
  8
APS_GEOMETRY
 10
3249.101
 20
-699.461
 40
5.331
 50
270.0
 51
294.953
  0
ARC
  8
APS_GEOMETRY
 10
3249.25
 20
-699.782
 40
4.977
 50
294.953
 51
320.793
  0
ARC
  8
APS_GEOMETRY
 10
3248.45
 20
-699.129
 40
6.011
 50
320.793
 51
342.777
  0
ARC
  8
APS_GEOMETRY
 10
3244.882
 20
-698.023
 40
9.746
 50
342.777
 51
0.0
  0
ARC
  8
APS_GEOMETRY
 10
3228.121
 20
-698.023
 40
26.507
 50
0.0
 51
8.499
  0
ARC
  8
APS_GEOMETRY
 10
3216.453
 20
-699.766
 40
38.304
 50
8.499
 51
15.566
  0
ARC
  8
APS_GEOMETRY
 10
3217.856
 20
-699.375
 40
36.848
 50
15.566
 51
22.909
  0
ARC
  8
APS_GEOMETRY
 10
3229.92
 20
-694.277
 40
23.751
 50
22.909
 51
32.057
  0
ARC
  8
APS_GEOMETRY
 10
3239.396
 20
-688.308
 40
12.552
 50
31.921
 51
42.51
  0
ARC
  8
APS_GEOMETRY
 10
3241.998
 20
-685.923
 40
9.022
 50
42.51
 51
55.008
  0
ARC
  8
APS_GEOMETRY
 10
3242.877
 20
-684.667
 40
7.489
 50
55.008
 51
69.88
  0
ARC
  8
APS_GEOMETRY
 10
3243.665
 20
-682.516
 40
5.198
 50
69.88
 51
87.754
  0
ARC
  8
APS_GEOMETRY
 10
3297.489
 20
-697.14
 40
2.42
 50
90.0
 51
115.837
  0
ARC
  8
APS_GEOMETRY
 10
3296.893
 20
-695.909
 40
1.053
 50
115.837
 51
155.462
  0
ARC
  8
APS_GEOMETRY
 10
3297.589
 20
-696.227
 40
1.817
 50
155.462
 51
168.366
  0
ARC
  8
APS_GEOMETRY
 10
3303.935
 20
-697.533
 40
8.296
 50
168.366
 51
174.395
  0
ARC
  8
APS_GEOMETRY
 10
3310.33
 20
-698.161
 40
14.722
 50
174.395
 51
177.813
  0
ARC
  8
APS_GEOMETRY
 10
3331.559
 20
-698.971
 40
35.966
 50
177.813
 51
180.0
  0
ARC
  8
APS_GEOMETRY
 10
3346.927
 20
-698.971
 40
51.335
 50
180.0
 51
184.62
  0
ARC
  8
APS_GEOMETRY
 10
3312.507
 20
-701.753
 40
16.803
 50
184.62
 51
192.7
  0
ARC
  8
APS_GEOMETRY
 10
3299.237
 20
-704.666
 40
3.218
 50
194.036
 51
205.821
  0
ARC
  8
APS_GEOMETRY
 10
3297.832
 20
-705.346
 40
1.656
 50
205.821
 51
222.274
  0
ARC
  8
APS_GEOMETRY
 10
3298.262
 20
-704.955
 40
2.238
 50
222.274
 51
234.605
  0
ARC
  8
APS_GEOMETRY
 10
3303.123
 20
-698.114
 40
10.63
 50
234.605
 51
240.255
  0
ARC
  8
APS_GEOMETRY
 10
3295.734
 20
-711.189
 40
4.389
 50
34.592
 51
61.189
  0
ARC
  8
APS_GEOMETRY
 10
3297.184
 20
-710.188
 40
2.627
 50
360.0
 51
34.592
  0
ARC
  8
APS_GEOMETRY
 10
3297.272
 20
-710.188
 40
2.539
 50
318.231
 51
360.0
  0
ARC
  8
APS_GEOMETRY
 10
3295.574
 20
-708.672
 40
4.816
 50
288.227
 51
318.231
  0
ARC
  8
APS_GEOMETRY
 10
3293.813
 20
-703.324
 40
10.446
 50
280.377
 51
288.227
  0
ARC
  8
APS_GEOMETRY
 10
3290.743
 20
-686.56
 40
27.489
 50
275.541
 51
280.377
  0
ARC
  8
APS_GEOMETRY
 10
3289.42
 20
-672.923
 40
41.19
 50
272.304
 51
275.541
  0
ARC
  8
APS_GEOMETRY
 10
3287.809
 20
-632.887
 40
81.259
 50
270.0
 51
272.304
  0
ARC
  8
APS_GEOMETRY
 10
3287.809
 20
-666.346
 40
47.8
 50
262.811
 51
270.0
  0
ARC
  8
APS_GEOMETRY
 10
3283.52
 20
-700.352
 40
13.524
 50
249.274
 51
262.811
  0
ARC
  8
APS_GEOMETRY
 10
3280.822
 20
-707.482
 40
5.901
 50
221.379
 51
249.274
  0
ARC
  8
APS_GEOMETRY
 10
3278.455
 20
-709.567
 40
2.747
 50
180.0
 51
221.379
  0
ARC
  8
APS_GEOMETRY
 10
3278.437
 20
-709.567
 40
2.728
 50
164.055
 51
180.0
  0
ARC
  8
APS_GEOMETRY
 10
3277.3
 20
-709.242
 40
1.546
 50
142.815
 51
164.055
  0
ARC
  8
APS_GEOMETRY
 10
3278.015
 20
-709.785
 40
2.444
 50
129.007
 51
142.815
  0
ARC
  8
APS_GEOMETRY
 10
3286.807
 20
-720.639
 40
16.412
 50
123.69
 51
129.007
  0
ARC
  8
APS_GEOMETRY
 10
3274.331
 20
-701.867
 40
6.128
 50
303.389
 51
319.022
  0
ARC
  8
APS_GEOMETRY
 10
3275.989
 20
-703.307
 40
3.932
 50
319.022
 51
338.575
  0
ARC
  8
APS_GEOMETRY
 10
3273.77
 20
-702.436
 40
6.316
 50
338.575
 51
351.049
  0
ARC
  8
APS_GEOMETRY
 10
3246.964
 20
-698.214
 40
33.452
 50
351.049
 51
356.46
  0
ARC
  8
APS_GEOMETRY
 10
3255.8
 20
-698.55
 40
24.613
 50
355.972
 51
358.68
  0
ARC
  8
APS_GEOMETRY
 10
2965.609
 20
-691.864
 40
314.881
 50
358.68
 51
359.437
  0
LINE
  8
APS_GEOMETRY
 10
3280.475
 11
3280.506
 20
-694.957
 21
-690.045
  0
LINE
  8
APS_GEOMETRY
 10
3280.506
 11
3280.516
 20
-690.045
 21
-683.633
  0
ARC
  8
APS_GEOMETRY
 10
3204.707
 20
-683.633
 40
75.809
 50
0.0
 51
1.717
  0
ARC
  8
APS_GEOMETRY
 10
3245.275
 20
-682.417
 40
35.223
 50
1.717
 51
4.236
  0
ARC
  8
APS_GEOMETRY
 10
3258.505
 20
-681.437
 40
21.957
 50
4.236
 51
8.269
  0
ARC
  8
APS_GEOMETRY
 10
3273.728
 20
-679.225
 40
6.573
 50
8.269
 51
15.642
  0
ARC
  8
APS_GEOMETRY
 10
3276.348
 20
-678.491
 40
3.853
 50
15.642
 51
39.417
  0
ARC
  8
APS_GEOMETRY
 10
3276.407
 20
-678.443
 40
3.776
 50
39.417
 51
63.435
  0
ARC
  8
APS_GEOMETRY
 10
3283.208
 20
-664.353
 40
11.869
 50
236.874
 51
244.486
  0
ARC
  8
APS_GEOMETRY
 10
3278.149
 20
-672.107
 40
2.611
 50
220.601
 51
236.874
  0
ARC
  8
APS_GEOMETRY
 10
3277.569
 20
-672.604
 40
1.847
 50
198.246
 51
220.601
  0
ARC
  8
APS_GEOMETRY
 10
3278.437
 20
-672.318
 40
2.761
 50
180.0
 51
198.246
  0
ARC
  8
APS_GEOMETRY
 10
3278.423
 20
-672.318
 40
2.748
 50
156.161
 51
180.0
  0
ARC
  8
APS_GEOMETRY
 10
3278.807
 20
-672.487
 40
3.167
 50
133.977
 51
156.161
  0
ARC
  8
APS_GEOMETRY
 10
3279.57
 20
-673.278
 40
4.266
 50
116.996
 51
133.977
  0
ARC
  8
APS_GEOMETRY
 10
3281.087
 20
-676.256
 40
7.608
 50
104.3
 51
116.996
  0
ARC
  8
APS_GEOMETRY
 10
3281.479
 20
-677.762
 40
9.164
 50
95.326
 51
104.349
  0
ARC
  8
APS_GEOMETRY
 10
3283.067
 20
-694.796
 40
26.272
 50
90.0
 51
95.326
  0
ARC
  8
APS_GEOMETRY
 10
3283.067
 20
-681.537
 40
13.013
 50
87.553
 51
90.0
  0
ARC
  8
APS_GEOMETRY
 10
3280.298
 20
-746.325
 40
77.86
 50
86.553
 51
87.553
  0
ARC
  8
APS_GEOMETRY
 10
3276.362
 20
-811.672
 40
143.325
 50
86.009
 51
86.553
  0
ARC
  8
APS_GEOMETRY
 10
3261.054
 20
-1031.085
 40
363.271
 50
85.668
 51
86.009
  0
ARC
  8
APS_GEOMETRY
 10
3289.702
 20
-653.774
 40
15.125
 50
265.426
 51
268.531
  0
ARC
  8
APS_GEOMETRY
 10
3291.047
 20
-601.331
 40
67.586
 50
268.531
 51
270.0
  0
ARC
  8
APS_GEOMETRY
 10
3291.047
 20
-617.406
 40
51.511
 50
270.0
 51
271.637
  0
ARC
  8
APS_GEOMETRY
 10
3289.896
 20
-577.122
 40
91.812
 50
271.637
 51
272.862
  0
ARC
  8
APS_GEOMETRY
 10
3288.574
 20
-550.692
 40
118.274
 50
272.862
 51
273.814
  0
ARC
  8
APS_GEOMETRY
 10
3284.1
 20
-483.588
 40
185.527
 50
273.814
 51
274.574
  0
ARC
  8
APS_GEOMETRY
 10
3312.163
 20
-848.579
 40
180.543
 50
93.72
 51
94.214
  0
ARC
  8
APS_GEOMETRY
 10
3306.173
 20
-756.461
 40
88.23
 50
93.013
 51
93.72
  0
ARC
  8
APS_GEOMETRY
 10
3304.532
 20
-725.265
 40
56.991
 50
91.918
 51
93.013
  0
ARC
  8
APS_GEOMETRY
 10
3303.245
 20
-686.85
 40
18.554
 50
90.0
 51
91.918
  0
ARC
  8
APS_GEOMETRY
 10
3303.245
 20
-692.404
 40
24.109
 50
73.82
 51
90.0
  0
ARC
  8
APS_GEOMETRY
 10
3305.621
 20
-684.214
 40
15.581
 50
53.658
 51
73.82
  0
ARC
  8
APS_GEOMETRY
 10
3309.001
 20
-679.595
 40
9.857
 50
26.03
 51
53.569
  0
ARC
  8
APS_GEOMETRY
 10
3307.964
 20
-680.101
 40
11.012
 50
360.0
 51
26.03
  0
ARC
  8
APS_GEOMETRY
 10
3307.532
 20
-680.101
 40
11.443
 50
345.282
 51
360.0
  0
ARC
  8
APS_GEOMETRY
 10
3308.633
 20
-680.39
 40
10.305
 50
329.767
 51
345.282
  0
ARC
  8
APS_GEOMETRY
 10
3309.257
 20
-680.754
 40
9.583
 50
313.168
 51
329.767
  0
ARC
  8
APS_GEOMETRY
 10
3309.488
 20
-681.0
 40
9.246
 50
296.267
 51
313.168
  0
ARC
  8
APS_GEOMETRY
 10
3314.751
 20
-691.634
 40
2.62
 50
116.565
 51
139.899
  0
ARC
  8
APS_GEOMETRY
 10
3313.444
 20
-690.534
 40
0.911
 50
139.899
 51
180.0
  0
ARC
  8
APS_GEOMETRY
 10
3313.545
 20
-690.534
 40
1.013
 50
180.0
 51
226.193
  0
ARC
  8
APS_GEOMETRY
 10
3315.416
 20
-688.583
 40
3.715
 50
226.193
 51
249.829
  0
ARC
  8
APS_GEOMETRY
 10
3310.055
 20
-703.344
 40
11.989
 50
53.249
 51
70.105
  0
ARC
  8
APS_GEOMETRY
 10
3312.49
 20
-700.083
 40
7.919
 50
32.471
 51
53.249
  0
ARC
  8
APS_GEOMETRY
 10
3311.355
 20
-700.806
 40
9.264
 50
23.305
 51
32.471
  0
ARC
  8
APS_GEOMETRY
 10
3304.345
 20
-703.825
 40
16.897
 50
16.521
 51
23.305
  0
ARC
  8
APS_GEOMETRY
 10
3298.88
 20
-705.446
 40
22.598
 50
11.429
 51
16.521
  0
ARC
  8
APS_GEOMETRY
 10
3283.39
 20
-708.578
 40
38.401
 50
7.524
 51
11.429
  0
ARC
  8
APS_GEOMETRY
 10
3334.718
 20
-701.742
 40
13.38
 50
187.765
 51
196.914
  0
ARC
  8
APS_GEOMETRY
 10
3323.775
 20
-705.07
 40
1.942
 50
196.914
 51
221.082
  0
ARC
  8
APS_GEOMETRY
 10
3323.817
 20
-705.033
 40
1.997
 50
221.082
 51
244.607
  0
ARC
  8
APS_GEOMETRY
 10
3328.49
 20
-695.188
 40
12.896
 50
244.607
 51
253.811
  0
ARC
  8
APS_GEOMETRY
 10
3324.381
 20
-709.198
 40
1.705
 50
51.45
 51
72.474
  0
ARC
  8
APS_GEOMETRY
 10
3323.959
 20
-709.727
 40
2.382
 50
33.69
 51
51.45
  0
ARC
  8
APS_GEOMETRY
 10
3323.861
 20
-709.793
 40
2.5
 50
16.639
 51
33.69
  0
ARC
  8
APS_GEOMETRY
 10
3323.741
 20
-709.829
 40
2.625
 50
360.0
 51
16.639
  0
ARC
  8
APS_GEOMETRY
 10
3323.705
 20
-709.829
 40
2.662
 50
338.993
 51
360.0
  0
ARC
  8
APS_GEOMETRY
 10
3322.08
 20
-709.205
 40
4.402
 50
322.696
 51
338.993
  0
ARC
  8
APS_GEOMETRY
 10
3321.474
 20
-708.743
 40
5.164
 50
308.603
 51
322.696
  0
ARC
  8
APS_GEOMETRY
 10
3321.057
 20
-708.221
 40
5.831
 50
295.346
 51
308.603
  0
ARC
  8
APS_GEOMETRY
 10
3318.866
 20
-703.395
 40
11.131
 50
279.583
 51
294.905
  0
ARC
  8
APS_GEOMETRY
 10
3315.999
 20
-686.414
 40
28.353
 50
270.0
 51
279.583
  0
ARC
  8
APS_GEOMETRY
 10
3315.999
 20
-694.095
 40
20.672
 50
261.247
 51
270.0
  0
ARC
  8
APS_GEOMETRY
 10
3314.675
 20
-702.696
 40
11.97
 50
249.737
 51
261.247
  0
ARC
  8
APS_GEOMETRY
 10
3313.805
 20
-705.053
 40
9.457
 50
235.345
 51
249.737
  0
ARC
  8
APS_GEOMETRY
 10
3312.706
 20
-706.643
 40
7.524
 50
219.198
 51
235.345
  0
ARC
  8
APS_GEOMETRY
 10
3315.019
 20
-704.671
 40
10.563
 50
209.076
 51
219.56
  0
ARC
  8
APS_GEOMETRY
 10
3320.359
 20
-701.702
 40
16.674
 50
200.735
 51
209.076
  0
ARC
  8
APS_GEOMETRY
 10
3327.729
 20
-698.912
 40
24.554
 50
197.881
 51
200.735
  0
ARC
  8
APS_GEOMETRY
 10
3358.01
 20
-689.142
 40
56.372
 50
195.997
 51
197.881
  0
ARC
  8
APS_GEOMETRY
 10
3380.392
 20
-682.725
 40
79.656
 50
194.664
 51
195.997
  0
ARC
  8
APS_GEOMETRY
 10
3442.388
 20
-666.503
 40
143.738
 50
193.671
 51
194.664
  0
ARC
  8
APS_GEOMETRY
 10
3285.177
 20
-704.723
 40
18.051
 50
13.61
 51
23.585
  0
ARC
  8
APS_GEOMETRY
 10
3296.996
 20
-699.563
 40
5.155
 50
23.585
 51
42.31
  0
ARC
  8
APS_GEOMETRY
 10
3298.068
 20
-698.587
 40
3.705
 50
42.31
 51
67.521
  0
ARC
  8
APS_GEOMETRY
 10
3297.22
 20
-700.638
 40
5.924
 50
67.521
 51
87.397
  0
LINE
  8
APS_GEOMETRY
 10
3295.625
 11
3295.265
 20
-678.041
 21
-685.661
  0
LINE
  8
APS_GEOMETRY
 10
3295.265
 11
3295.265
 20
-685.661
 21
-685.784
  0
LINE
  8
APS_GEOMETRY
 10
3295.265
 11
3295.265
 20
-685.784
 21
-685.955
  0
ARC
  8
APS_GEOMETRY
 10
3300.56
 20
-685.955
 40
5.294
 50
180.0
 51
192.339
  0
ARC
  8
APS_GEOMETRY
 10
3296.35
 20
-686.876
 40
0.986
 50
192.339
 51
221.186
  0
ARC
  8
APS_GEOMETRY
 10
3296.25
 20
-686.964
 40
0.852
 50
221.186
 51
253.872
  0
ARC
  8
APS_GEOMETRY
 10
3296.966
 20
-684.488
 40
3.429
 50
253.872
 51
270.0
  0
ARC
  8
APS_GEOMETRY
 10
3296.966
 20
-679.947
 40
7.971
 50
270.0
 51
289.569
  0
ARC
  8
APS_GEOMETRY
 10
3298.415
 20
-684.023
 40
3.644
 50
289.569
 51
318.681
  0
ARC
  8
APS_GEOMETRY
 10
3298.023
 20
-683.679
 40
4.166
 50
318.681
 51
344.628
  0
ARC
  8
APS_GEOMETRY
 10
3290.72
 20
-681.671
 40
11.74
 50
344.628
 51
0.0
  0
ARC
  8
APS_GEOMETRY
 10
3294.192
 20
-681.671
 40
8.268
 50
0.0
 51
35.369
  0
ARC
  8
APS_GEOMETRY
 10
3297.98
 20
-678.982
 40
3.623
 50
35.369
 51
90.0
  0
ARC
  8
APS_GEOMETRY
 10
3297.98
 20
-679.022
 40
3.663
 50
90.0
 51
108.435
  0
ARC
  8
APS_GEOMETRY
 10
3297.267
 20
-676.884
 40
1.409
 50
108.435
 51
138.366
  0
ARC
  8
APS_GEOMETRY
 10
3297.458
 20
-677.054
 40
1.665
 50
138.366
 51
164.291
  0
ARC
  8
APS_GEOMETRY
 10
3301.943
 20
-678.316
 40
6.324
 50
164.291
 51
177.51
  0
LINE
  8
APS_GEOMETRY
 10
3346.139
 11
3363.374
 20
-668.851
 21
-668.851
  0
ARC
  8
APS_GEOMETRY
 10
3362.502
 20
-644.156
 40
24.711
 50
272.021
 51
278.44
  0
ARC
  8
APS_GEOMETRY
 10
3363.475
 20
-650.711
 40
18.083
 50
278.44
 51
285.945
  0
ARC
  8
APS_GEOMETRY
 10
3370.792
 20
-676.909
 40
9.118
 50
98.584
 51
104.931
  0
ARC
  8
APS_GEOMETRY
 10
3370.176
 20
-672.828
 40
4.991
 50
90.0
 51
98.584
  0
ARC
  8
APS_GEOMETRY
 10
3370.176
 20
-671.589
 40
3.752
 50
52.871
 51
90.0
  0
ARC
  8
APS_GEOMETRY
 10
3365.087
 20
-678.31
 40
12.182
 50
32.518
 51
52.871
  0
ARC
  8
APS_GEOMETRY
 10
3361.056
 20
-680.88
 40
16.963
 50
17.209
 51
32.518
  0
ARC
  8
APS_GEOMETRY
 10
3364.416
 20
-679.84
 40
13.445
 50
360.0
 51
17.209
  0
ARC
  8
APS_GEOMETRY
 10
3371.144
 20
-679.84
 40
6.717
 50
337.348
 51
360.0
  0
ARC
  8
APS_GEOMETRY
 10
3373.844
 20
-680.966
 40
3.792
 50
307.042
 51
337.348
  0
ARC
  8
APS_GEOMETRY
 10
3373.374
 20
-680.322
 40
4.589
 50
287.186
 51
306.87
  0
ARC
  8
APS_GEOMETRY
 10
3372.956
 20
-678.968
 40
6.006
 50
270.0
 51
287.186
  0
ARC
  8
APS_GEOMETRY
 10
3372.956
 20
-679.581
 40
5.393
 50
252.221
 51
270.0
  0
ARC
  8
APS_GEOMETRY
 10
3372.705
 20
-680.364
 40
4.571
 50
232.896
 51
252.221
  0
ARC
  8
APS_GEOMETRY
 10
3373.675
 20
-679.081
 40
6.18
 50
218.3
 51
232.896
  0
ARC
  8
APS_GEOMETRY
 10
3381.255
 20
-673.094
 40
15.839
 50
209.197
 51
218.3
  0
ARC
  8
APS_GEOMETRY
 10
3342.702
 20
-693.982
 40
28.012
 50
28.025
 51
32.699
  0
ARC
  8
APS_GEOMETRY
 10
3362.858
 20
-681.042
 40
4.06
 50
32.699
 51
45.0
  0
ARC
  8
APS_GEOMETRY
 10
3364.232
 20
-679.668
 40
2.116
 50
45.0
 51
67.557
  0
ARC
  8
APS_GEOMETRY
 10
3364.224
 20
-679.688
 40
2.137
 50
67.557
 51
90.0
  0
ARC
  8
APS_GEOMETRY
 10
3364.224
 20
-679.519
 40
1.969
 50
90.0
 51
120.801
  0
ARC
  8
APS_GEOMETRY
 10
3364.157
 20
-679.408
 40
1.839
 50
120.801
 51
152.7
  0
ARC
  8
APS_GEOMETRY
 10
3365.616
 20
-680.161
 40
3.481
 50
152.7
 51
171.085
  0
ARC
  8
APS_GEOMETRY
 10
3376.705
 20
-681.9
 40
14.705
 50
171.085
 51
180.0
  0
LINE
  8
APS_GEOMETRY
 10
3362.0
 11
3362.0
 20
-681.9
 21
-700.214
  0
ARC
  8
APS_GEOMETRY
 10
3381.427
 20
-700.214
 40
19.427
 50
180.0
 51
188.194
  0
ARC
  8
APS_GEOMETRY
 10
3366.92
 20
-702.303
 40
4.77
 50
188.194
 51
204.775
  0
ARC
  8
APS_GEOMETRY
 10
3365.51
 20
-702.954
 40
3.218
 50
204.775
 51
228.576
  0
ARC
  8
APS_GEOMETRY
 10
3366.832
 20
-701.455
 40
5.216
 50
228.576
 51
247.218
  0
ARC
  8
APS_GEOMETRY
 10
3359.163
 20
-719.527
 40
14.416
 50
59.381
 51
66.93
  0
ARC
  8
APS_GEOMETRY
 10
3364.825
 20
-709.962
 40
3.301
 50
43.568
 51
59.381
  0
ARC
  8
APS_GEOMETRY
 10
3365.73
 20
-709.1
 40
2.051
 50
19.041
 51
43.568
  0
ARC
  8
APS_GEOMETRY
 10
3364.472
 20
-709.534
 40
3.382
 50
360.0
 51
19.041
  0
ARC
  8
APS_GEOMETRY
 10
3365.107
 20
-709.534
 40
2.747
 50
317.66
 51
360.0
  0
ARC
  8
APS_GEOMETRY
 10
3362.584
 20
-707.236
 40
6.16
 50
289.747
 51
317.66
  0
ARC
  8
APS_GEOMETRY
 10
3360.472
 20
-701.351
 40
12.412
 50
281.964
 51
289.747
  0
ARC
  8
APS_GEOMETRY
 10
3357.545
 20
-687.539
 40
26.531
 50
276.643
 51
281.964
  0
ARC
  8
APS_GEOMETRY
 10
3356.313
 20
-676.964
 40
37.178
 50
272.836
 51
276.643
  0
ARC
  8
APS_GEOMETRY
 10
3354.838
 20
-647.188
 40
66.99
 50
270.0
 51
272.836
  0
ARC
  8
APS_GEOMETRY
 10
3354.838
 20
-628.738
 40
85.44
 50
267.283
 51
270.0
  0
ARC
  8
APS_GEOMETRY
 10
3353.044
 20
-666.541
 40
47.595
 50
263.643
 51
267.283
  0
ARC
  8
APS_GEOMETRY
 10
3351.542
 20
-680.025
 40
34.027
 50
258.563
 51
263.643
  0
ARC
  8
APS_GEOMETRY
 10
3347.953
 20
-697.764
 40
15.929
 50
251.136
 51
258.563
  0
ARC
  8
APS_GEOMETRY
 10
3344.749
 20
-707.057
 40
6.099
 50
222.558
 51
251.395
  0
ARC
  8
APS_GEOMETRY
 10
3342.371
 20
-709.24
 40
2.871
 50
180.0
 51
222.558
  0
ARC
  8
APS_GEOMETRY
 10
3341.892
 20
-709.24
 40
2.392
 50
150.642
 51
180.0
  0
ARC
  8
APS_GEOMETRY
 10
3342.083
 20
-709.348
 40
2.612
 50
122.574
 51
150.642
  0
ARC
  8
APS_GEOMETRY
 10
3341.576
 20
-708.766
 40
1.851
 50
108.677
 51
119.055
  0
ARC
  8
APS_GEOMETRY
 10
3364.692
 20
-777.149
 40
74.036
 50
107.038
 51
108.677
  0
ARC
  8
APS_GEOMETRY
 10
3342.138
 20
-703.386
 40
3.099
 50
286.144
 51
308.66
  0
ARC
  8
APS_GEOMETRY
 10
3342.645
 20
-704.02
 40
2.287
 50
308.66
 51
334.933
  0
ARC
  8
APS_GEOMETRY
 10
3340.58
 20
-703.054
 40
4.566
 50
334.933
 51
348.829
  0
ARC
  8
APS_GEOMETRY
 10
3314.754
 20
-697.954
 40
30.891
 50
348.829
 51
354.161
  0
ARC
  8
APS_GEOMETRY
 10
3297.299
 20
-696.155
 40
48.439
 50
354.144
 51
355.66
  0
ARC
  8
APS_GEOMETRY
 10
3219.922
 20
-690.283
 40
126.038
 50
355.66
 51
356.6
  0
ARC
  8
APS_GEOMETRY
 10
3160.773
 20
-686.769
 40
185.291
 50
356.6
 51
357.24
  0
ARC
  8
APS_GEOMETRY
 10
2992.948
 20
-678.678
 40
353.311
 50
357.24
 51
357.703
  0
ARC
  8
APS_GEOMETRY
 10
3009.468
 20
-679.34
 40
336.777
 50
357.703
 51
358.674
  0
ARC
  8
APS_GEOMETRY
 10
3165.301
 20
-682.946
 40
180.903
 50
358.674
 51
0.0
  0
ARC
  8
APS_GEOMETRY
 10
3319.394
 20
-682.946
 40
26.81
 50
0.0
 51
6.242
  0
ARC
  8
APS_GEOMETRY
 10
3340.713
 20
-680.615
 40
5.364
 50
6.242
 51
20.225
  0
ARC
  8
APS_GEOMETRY
 10
3343.668
 20
-679.526
 40
2.215
 50
20.225
 51
50.44
  0
ARC
  8
APS_GEOMETRY
 10
3344.242
 20
-678.831
 40
1.314
 50
50.44
 51
90.0
  0
ARC
  8
APS_GEOMETRY
 10
3344.242
 20
-679.28
 40
1.762
 50
90.0
 51
126.747
  0
ARC
  8
APS_GEOMETRY
 10
3346.732
 20
-682.615
 40
5.924
 50
126.747
 51
146.547
  0
ARC
  8
APS_GEOMETRY
 10
3302.744
 20
-653.702
 40
46.715
 50
324.255
 51
326.701
  0
ARC
  8
APS_GEOMETRY
 10
3321.367
 20
-667.106
 40
23.77
 50
320.826
 51
324.255
  0
ARC
  8
APS_GEOMETRY
 10
3327.454
 20
-672.065
 40
15.918
 50
315.722
 51
320.826
  0
ARC
  8
APS_GEOMETRY
 10
3334.448
 20
-678.886
 40
6.149
 50
307.504
 51
315.722
  0
ARC
  8
APS_GEOMETRY
 10
3333.803
 20
-678.024
 40
7.226
 50
291.306
 51
307.405
  0
ARC
  8
APS_GEOMETRY
 10
3334.922
 20
-680.893
 40
4.146
 50
270.0
 51
291.306
  0
ARC
  8
APS_GEOMETRY
 10
3334.922
 20
-681.161
 40
3.879
 50
245.532
 51
270.0
  0
ARC
  8
APS_GEOMETRY
 10
3334.892
 20
-681.225
 40
3.808
 50
220.833
 51
245.532
  0
ARC
  8
APS_GEOMETRY
 10
3335.285
 20
-680.885
 40
4.328
 50
198.684
 51
220.833
  0
ARC
  8
APS_GEOMETRY
 10
3336.927
 20
-680.33
 40
6.06
 50
180.0
 51
198.684
  0
ARC
  8
APS_GEOMETRY
 10
3340.774
 20
-680.33
 40
9.908
 50
168.408
 51
180.0
  0
ARC
  8
APS_GEOMETRY
 10
3347.127
 20
-681.633
 40
16.393
 50
159.402
 51
168.408
  0
ARC
  8
APS_GEOMETRY
 10
3349.09
 20
-682.371
 40
18.49
 50
151.39
 51
159.402
  0
ARC
  8
APS_GEOMETRY
 10
3348.688
 20
-682.152
 40
18.032
 50
143.276
 51
151.39
  0
ARC
  8
APS_GEOMETRY
 10
3343.638
 20
-678.376
 40
11.726
 50
124.216
 51
143.31
  0
ARC
  8
APS_GEOMETRY
 10
3339.14
 20
-671.762
 40
3.728
 50
90.0
 51
124.216
  0
ARC
  8
APS_GEOMETRY
 10
3339.14
 20
-673.418
 40
5.384
 50
82.725
 51
90.0
  0
ARC
  8
APS_GEOMETRY
 10
3338.72
 20
-676.714
 40
8.707
 50
77.005
 51
82.725
  0
ARC
  8
APS_GEOMETRY
 10
3351.568
 20
-614.767
 40
54.561
 50
258.486
 51
260.378
  0
ARC
  8
APS_GEOMETRY
 10
3346.064
 20
-647.232
 40
21.633
 50
260.378
 51
263.382
  0
ARC
  8
APS_GEOMETRY
 10
3345.593
 20
-651.289
 40
17.548
 50
263.382
 51
267.084
  0
ARC
  8
APS_GEOMETRY
 10
3346.139
 20
-640.578
 40
28.273
 50
267.084
 51
270.0
  0
LINE
  8
APS_GEOMETRY
 10
3389.556
 11
3406.366
 20
-668.851
 21
-668.851
  0
ARC
  8
APS_GEOMETRY
 10
3406.366
 20
-457.132
 40
211.72
 50
270.0
 51
270.69
  0
ARC
  8
APS_GEOMETRY
 10
3407.559
 20
-556.188
 40
112.656
 50
270.69
 51
271.637
  0
ARC
  8
APS_GEOMETRY
 10
3408.565
 20
-591.382
 40
77.448
 50
271.637
 51
273.013
  0
ARC
  8
APS_GEOMETRY
 10
3411.015
 20
-637.944
 40
30.821
 50
273.013
 51
275.194
  0
ARC
  8
APS_GEOMETRY
 10
3411.623
 20
-644.626
 40
24.112
 50
275.194
 51
280.756
  0
ARC
  8
APS_GEOMETRY
 10
3411.737
 20
-645.227
 40
23.5
 50
280.756
 51
286.39
  0
ARC
  8
APS_GEOMETRY
 10
3420.35
 20
-674.712
 40
7.217
 50
100.305
 51
105.945
  0
ARC
  8
APS_GEOMETRY
 10
3419.447
 20
-669.742
 40
2.166
 50
90.0
 51
100.305
  0
ARC
  8
APS_GEOMETRY
 10
3419.447
 20
-670.516
 40
2.94
 50
58.946
 51
90.0
  0
ARC
  8
APS_GEOMETRY
 10
3418.323
 20
-672.383
 40
5.119
 50
35.538
 51
58.946
  0
ARC
  8
APS_GEOMETRY
 10
3413.934
 20
-675.612
 40
10.568
 50
16.699
 51
35.952
  0
ARC
  8
APS_GEOMETRY
 10
3410.633
 20
-676.602
 40
14.014
 50
360.0
 51
16.699
  0
ARC
  8
APS_GEOMETRY
 10
3416.783
 20
-676.602
 40
7.864
 50
344.982
 51
360.0
  0
ARC
  8
APS_GEOMETRY
 10
3420.557
 20
-677.615
 40
3.956
 50
323.746
 51
344.982
  0
ARC
  8
APS_GEOMETRY
 10
3421.396
 20
-678.23
 40
2.916
 50
296.114
 51
323.746
  0
ARC
  8
APS_GEOMETRY
 10
3421.246
 20
-677.923
 40
3.258
 50
270.0
 51
296.114
  0
ARC
  8
APS_GEOMETRY
 10
3421.246
 20
-677.096
 40
4.084
 50
255.311
 51
270.0
  0
ARC
  8
APS_GEOMETRY
 10
3420.7
 20
-679.179
 40
1.931
 50
233.881
 51
255.311
  0
ARC
  8
APS_GEOMETRY
 10
3421.274
 20
-678.392
 40
2.906
 50
219.289
 51
233.881
  0
ARC
  8
APS_GEOMETRY
 10
3432.804
 20
-668.958
 40
17.803
 50
213.408
 51
219.289
  0
ARC
  8
APS_GEOMETRY
 10
3411.203
 20
-683.186
 40
8.063
 50
33.294
 51
51.246
  0
ARC
  8
APS_GEOMETRY
 10
3412.301
 20
-681.819
 40
6.309
 50
51.246
 51
71.565
  0
ARC
  8
APS_GEOMETRY
 10
3411.575
 20
-683.996
 40
8.604
 50
71.565
 51
79.278
  0
ARC
  8
APS_GEOMETRY
 10
3409.247
 20
-696.292
 40
21.118
 50
79.278
 51
84.2
  0
ARC
  8
APS_GEOMETRY
 10
3408.254
 20
-706.07
 40
30.947
 50
84.2
 51
87.567
  0
ARC
  8
APS_GEOMETRY
 10
3407.052
 20
-734.348
 40
59.251
 50
87.567
 51
90.0
  0
ARC
  8
APS_GEOMETRY
 10
3407.052
 20
-691.753
 40
16.656
 50
90.0
 51
96.374
  0
ARC
  8
APS_GEOMETRY
 10
3405.947
 20
-681.857
 40
6.698
 50
96.374
 51
106.434
  0
ARC
  8
APS_GEOMETRY
 10
3405.161
 20
-679.194
 40
3.921
 50
106.434
 51
123.056
  0
ARC
  8
APS_GEOMETRY
 10
3403.935
 20
-677.309
 40
1.673
 50
123.056
 51
148.627
  0
ARC
  8
APS_GEOMETRY
 10
3405.055
 20
-677.944
 40
2.96
 50
149.421
 51
165.28
  0
ARC
  8
APS_GEOMETRY
 10
3408.284
 20
-678.793
 40
6.298
 50
165.28
 51
176.135
  0
ARC
  8
APS_GEOMETRY
 10
3417.526
 20
-679.417
 40
15.562
 50
176.135
 51
178.367
  0
ARC
  8
APS_GEOMETRY
 10
3503.032
 20
-681.855
 40
101.103
 50
178.367
 51
179.242
  0
ARC
  8
APS_GEOMETRY
 10
3591.401
 20
-683.024
 40
189.479
 50
179.242
 51
179.709
  0
ARC
  8
APS_GEOMETRY
 10
3892.05
 20
-684.549
 40
490.132
 50
179.709
 51
180.0
  0
ARC
  8
APS_GEOMETRY
 10
3409.009
 20
-684.549
 40
7.091
 50
180.0
 51
195.027
  0
ARC
  8
APS_GEOMETRY
 10
3403.21
 20
-686.106
 40
1.086
 50
195.027
 51
234.058
  0
ARC
  8
APS_GEOMETRY
 10
3403.266
 20
-686.028
 40
1.183
 50
234.058
 51
253.191
  0
ARC
  8
APS_GEOMETRY
 10
3404.503
 20
-681.932
 40
5.461
 50
253.191
 51
262.063
  0
ARC
  8
APS_GEOMETRY
 10
3405.137
 20
-677.387
 40
10.05
 50
262.063
 51
266.949
  0
ARC
  8
APS_GEOMETRY
 10
3405.973
 20
-661.705
 40
25.755
 50
266.949
 51
270.0
  0
ARC
  8
APS_GEOMETRY
 10
3405.973
 20
-682.738
 40
4.722
 50
270.0
 51
286.007
  0
ARC
  8
APS_GEOMETRY
 10
3406.8
 20
-685.619
 40
1.725
 50
286.007
 51
312.647
  0
ARC
  8
APS_GEOMETRY
 10
3406.782
 20
-685.6
 40
1.75
 50
312.647
 51
338.993
  0
ARC
  8
APS_GEOMETRY
 10
3403.207
 20
-684.227
 40
5.58
 50
338.993
 51
353.66
  0
ARC
  8
APS_GEOMETRY
 10
3440.127
 20
-688.63
 40
31.601
 50
169.663
 51
173.118
  0
ARC
  8
APS_GEOMETRY
 10
3413.737
 20
-683.817
 40
4.776
 50
160.769
 51
169.663
  0
ARC
  8
APS_GEOMETRY
 10
3411.53
 20
-683.047
 40
2.439
 50
143.746
 51
160.769
  0
ARC
  8
APS_GEOMETRY
 10
3412.063
 20
-683.438
 40
3.1
 50
128.66
 51
143.746
  0
ARC
  8
APS_GEOMETRY
 10
3411.707
 20
-682.861
 40
2.429
 50
110.171
 51
130.601
  0
ARC
  8
APS_GEOMETRY
 10
3411.729
 20
-682.92
 40
2.492
 50
90.0
 51
110.171
  0
ARC
  8
APS_GEOMETRY
 10
3411.729
 20
-682.955
 40
2.527
 50
61.22
 51
90.0
  0
ARC
  8
APS_GEOMETRY
 10
3411.288
 20
-683.758
 40
3.443
 50
36.634
 51
61.22
  0
ARC
  8
APS_GEOMETRY
 10
3410.874
 20
-684.004
 40
3.923
 50
19.103
 51
35.91
  0
ARC
  8
APS_GEOMETRY
 10
3398.079
 20
-688.436
 40
17.463
 50
11.16
 51
19.103
  0
ARC
  8
APS_GEOMETRY
 10
3391.394
 20
-689.755
 40
24.277
 50
5.396
 51
11.16
  0
ARC
  8
APS_GEOMETRY
 10
3387.994
 20
-690.076
 40
27.692
 50
0.0
 51
5.396
  0
ARC
  8
APS_GEOMETRY
 10
3388.476
 20
-690.076
 40
27.21
 50
349.287
 51
0.0
  0
ARC
  8
APS_GEOMETRY
 10
3401.834
 20
-692.603
 40
13.615
 50
334.12
 51
349.287
  0
ARC
  8
APS_GEOMETRY
 10
3411.036
 20
-697.05
 40
3.396
 50
303.53
 51
333.853
  0
ARC
  8
APS_GEOMETRY
 10
3411.369
 20
-697.553
 40
2.791
 50
270.0
 51
303.53
  0
ARC
  8
APS_GEOMETRY
 10
3411.369
 20
-697.423
 40
2.922
 50
249.578
 51
270.0
  0
ARC
  8
APS_GEOMETRY
 10
3410.748
 20
-699.092
 40
1.14
 50
216.607
 51
249.578
  0
ARC
  8
APS_GEOMETRY
 10
3411.342
 20
-698.651
 40
1.881
 50
195.422
 51
216.607
  0
ARC
  8
APS_GEOMETRY
 10
3421.604
 20
-695.82
 40
12.526
 50
187.253
 51
195.422
  0
ARC
  8
APS_GEOMETRY
 10
3405.031
 20
-697.952
 40
4.183
 50
7.561
 51
49.434
  0
ARC
  8
APS_GEOMETRY
 10
3404.861
 20
-698.151
 40
4.445
 50
49.434
 51
90.0
  0
ARC
  8
APS_GEOMETRY
 10
3404.861
 20
-696.697
 40
2.991
 50
90.0
 51
115.224
  0
ARC
  8
APS_GEOMETRY
 10
3404.27
 20
-695.441
 40
1.603
 50
115.224
 51
149.931
  0
ARC
  8
APS_GEOMETRY
 10
3405.339
 20
-696.06
 40
2.838
 50
149.931
 51
171.111
  0
ARC
  8
APS_GEOMETRY
 10
3418.307
 20
-698.088
 40
15.963
 50
171.111
 51
180.0
  0
ARC
  8
APS_GEOMETRY
 10
3431.082
 20
-698.088
 40
28.739
 50
180.0
 51
183.062
  0
ARC
  8
APS_GEOMETRY
 10
3475.07
 20
-695.735
 40
72.789
 50
183.062
 51
184.986
  0
ARC
  8
APS_GEOMETRY
 10
3451.997
 20
-697.748
 40
49.629
 50
184.986
 51
187.804
  0
ARC
  8
APS_GEOMETRY
 10
3408.296
 20
-703.737
 40
5.52
 50
187.804
 51
196.26
  0
ARC
  8
APS_GEOMETRY
 10
3404.442
 20
-704.898
 40
1.496
 50
194.931
 51
230.024
  0
ARC
  8
APS_GEOMETRY
 10
3405.423
 20
-703.728
 40
3.022
 50
230.024
 51
254.511
  0
ARC
  8
APS_GEOMETRY
 10
3406.615
 20
-699.427
 40
7.485
 50
254.511
 51
265.219
  0
ARC
  8
APS_GEOMETRY
 10
3409.113
 20
-669.56
 40
37.456
 50
265.219
 51
270.0
  0
ARC
  8
APS_GEOMETRY
 10
3409.113
 20
-673.52
 40
33.497
 50
270.0
 51
274.186
  0
ARC
  8
APS_GEOMETRY
 10
3410.131
 20
-687.436
 40
19.543
 50
274.186
 51
279.668
  0
ARC
  8
APS_GEOMETRY
 10
3410.967
 20
-692.344
 40
14.564
 50
279.668
 51
286.991
  0
ARC
  8
APS_GEOMETRY
 10
3412.88
 20
-698.604
 40
8.018
 50
286.991
 51
296.866
  0
ARC
  8
APS_GEOMETRY
 10
3413.278
 20
-699.389
 40
7.139
 50
296.866
 51
318.366
  0
ARC
  8
APS_GEOMETRY
 10
3409.279
 20
-695.834
 40
12.489
 50
318.366
 51
334.581
  0
ARC
  8
APS_GEOMETRY
 10
3435.608
 20
-708.46
 40
16.711
 50
147.08
 51
154.231
  0
ARC
  8
APS_GEOMETRY
 10
3424.601
 20
-701.334
 40
3.599
 50
131.634
 51
147.08
  0
ARC
  8
APS_GEOMETRY
 10
3423.781
 20
-700.411
 40
2.364
 50
108.875
 51
131.634
  0
ARC
  8
APS_GEOMETRY
 10
3424.124
 20
-701.413
 40
3.423
 50
90.0
 51
108.875
  0
ARC
  8
APS_GEOMETRY
 10
3424.124
 20
-700.718
 40
2.727
 50
62.628
 51
90.0
  0
ARC
  8
APS_GEOMETRY
 10
3423.951
 20
-701.051
 40
3.103
 50
36.995
 51
62.628
  0
ARC
  8
APS_GEOMETRY
 10
3423.178
 20
-701.634
 40
4.071
 50
16.728
 51
36.995
  0
ARC
  8
APS_GEOMETRY
 10
3421.372
 20
-702.176
 40
5.956
 50
360.0
 51
16.728
  0
ARC
  8
APS_GEOMETRY
 10
3417.796
 20
-702.176
 40
9.532
 50
348.323
 51
360.0
  0
ARC
  8
APS_GEOMETRY
 10
3403.487
 20
-699.219
 40
24.143
 50
340.994
 51
348.323
  0
ARC
  8
APS_GEOMETRY
 10
3400.094
 20
-698.05
 40
27.733
 50
334.592
 51
340.994
  0
ARC
  8
APS_GEOMETRY
 10
3406.017
 20
-700.864
 40
21.175
 50
327.265
 51
334.592
  0
ARC
  8
APS_GEOMETRY
 10
3412.898
 20
-704.919
 40
13.198
 50
320.133
 51
325.923
  0
ARC
  8
APS_GEOMETRY
 10
3420.9
 20
-711.603
 40
2.771
 50
307.476
 51
320.133
  0
ARC
  8
APS_GEOMETRY
 10
3421.601
 20
-712.517
 40
1.619
 50
286.429
 51
307.476
  0
ARC
  8
APS_GEOMETRY
 10
3421.311
 20
-711.533
 40
2.646
 50
270.0
 51
286.429
  0
ARC
  8
APS_GEOMETRY
 10
3421.311
 20
-708.474
 40
5.704
 50
263.774
 51
270.0
  0
ARC
  8
APS_GEOMETRY
 10
3422.98
 20
-693.177
 40
21.092
 50
260.538
 51
263.774
  0
ARC
  8
APS_GEOMETRY
 10
3415.511
 20
-735.323
 40
21.713
 50
79.38
 51
84.987
  0
ARC
  8
APS_GEOMETRY
 10
3412.273
 20
-772.234
 40
58.766
 50
84.987
 51
88.394
  0
LINE
  8
APS_GEOMETRY
 10
3413.92
 11
3386.188
 20
-713.492
 21
-713.492
  0
ARC
  8
APS_GEOMETRY
 10
3386.188
 20
-707.688
 40
5.804
 50
254.103
 51
270.0
  0
ARC
  8
APS_GEOMETRY
 10
3385.37
 20
-710.558
 40
2.82
 50
231.216
 51
254.103
  0
ARC
  8
APS_GEOMETRY
 10
3385.034
 20
-710.975
 40
2.284
 50
203.795
 51
231.216
  0
ARC
  8
APS_GEOMETRY
 10
3385.707
 20
-710.679
 40
3.019
 50
180.0
 51
203.795
  0
ARC
  8
APS_GEOMETRY
 10
3385.961
 20
-710.679
 40
3.273
 50
164.055
 51
180.0
  0
ARC
  8
APS_GEOMETRY
 10
3383.944
 20
-710.103
 40
1.175
 50
137.291
 51
164.055
  0
ARC
  8
APS_GEOMETRY
 10
3384.551
 20
-710.663
 40
2.001
 50
120.964
 51
137.291
  0
ARC
  8
APS_GEOMETRY
 10
3391.052
 20
-721.498
 40
14.637
 50
114.944
 51
120.964
  0
ARC
  8
APS_GEOMETRY
 10
3382.937
 20
-703.743
 40
4.886
 50
293.429
 51
305.72
  0
ARC
  8
APS_GEOMETRY
 10
3384.281
 20
-705.612
 40
2.584
 50
305.72
 51
322.651
  0
ARC
  8
APS_GEOMETRY
 10
3384.072
 20
-705.453
 40
2.846
 50
322.651
 51
338.11
  0
ARC
  8
APS_GEOMETRY
 10
3380.014
 20
-703.823
 40
7.219
 50
338.11
 51
347.8
  0
ARC
  8
APS_GEOMETRY
 10
3354.814
 20
-698.299
 40
33.018
 50
347.672
 51
352.051
  0
ARC
  8
APS_GEOMETRY
 10
3330.421
 20
-694.893
 40
57.647
 50
352.051
 51
355.365
  0
ARC
  8
APS_GEOMETRY
 10
3313.994
 20
-693.561
 40
74.128
 50
355.365
 51
357.943
  0
ARC
  8
APS_GEOMETRY
 10
3271.584
 20
-692.038
 40
116.566
 50
357.943
 51
0.0
  0
ARC
  8
APS_GEOMETRY
 10
3222.632
 20
-692.038
 40
165.518
 50
0.0
 51
2.183
  0
ARC
  8
APS_GEOMETRY
 10
3321.607
 20
-688.265
 40
66.471
 50
2.183
 51
5.629
  0
ARC
  8
APS_GEOMETRY
 10
3351.091
 20
-685.359
 40
36.844
 50
5.629
 51
11.805
  0
ARC
  8
APS_GEOMETRY
 10
3379.707
 20
-679.378
 40
7.61
 50
11.805
 51
25.419
  0
ARC
  8
APS_GEOMETRY
 10
3383.41
 20
-677.696
 40
3.544
 50
26.565
 51
38.157
  0
ARC
  8
APS_GEOMETRY
 10
3385.055
 20
-676.404
 40
1.452
 50
38.157
 51
56.31
  0
ARC
  8
APS_GEOMETRY
 10
3384.707
 20
-676.926
 40
2.079
 50
56.31
 51
69.193
  0
ARC
  8
APS_GEOMETRY
 10
3379.827
 20
-689.767
 40
15.817
 50
69.193
 51
73.856
  0
ARC
  8
APS_GEOMETRY
 10
3384.975
 20
-672.06
 40
2.623
 50
216.87
 51
253.393
  0
ARC
  8
APS_GEOMETRY
 10
3384.937
 20
-672.089
 40
2.576
 50
180.0
 51
216.87
  0
ARC
  8
APS_GEOMETRY
 10
3385.499
 20
-672.089
 40
3.138
 50
161.565
 51
180.0
  0
ARC
  8
APS_GEOMETRY
 10
3385.386
 20
-672.051
 40
3.018
 50
142.765
 51
161.565
  0
ARC
  8
APS_GEOMETRY
 10
3385.313
 20
-671.996
 40
2.928
 50
123.425
 51
142.765
  0
ARC
  8
APS_GEOMETRY
 10
3385.379
 20
-672.096
 40
3.047
 50
104.47
 51
123.425
  0
ARC
  8
APS_GEOMETRY
 10
3385.959
 20
-674.958
 40
5.965
 50
96.724
 51
102.995
  0
ARC
  8
APS_GEOMETRY
 10
3387.76
 20
-690.233
 40
21.346
 50
93.411
 51
96.724
  0
ARC
  8
APS_GEOMETRY
 10
3388.56
 20
-703.654
 40
34.791
 50
91.375
 51
93.411
  0
ARC
  8
APS_GEOMETRY
 10
3389.556
 20
-745.154
 40
76.303
 50
90.0
 51
91.375
  0
LINE
  8
QUOTATURA
 10
2738.4
 11
2738.4
 20
1079.0
 21
1193.966
  0
LINE
  8
QUOTATURA
 10
2688.4
 11
2688.4
 20
1079.0
 21
1193.966
  0
LINE
  8
QUOTATURA
 10
2688.4
 11
2592.743
 20
1183.966
 21
1183.966
  0
LINE
  8
QUOTATURA
 10
2668.4
 11
2688.4
 20
1187.3
 21
1183.966
  0
LINE
  8
QUOTATURA
 10
2688.4
 11
2668.4
 20
1183.966
 21
1180.632
  0
LINE
  8
QUOTATURA
 10
2668.4
 11
2668.4
 20
1180.632
 21
1187.3
  0
LINE
  8
QUOTATURA
 10
2738.4
 11
2778.4
 20
1183.966
 21
1183.966
  0
LINE
  8
QUOTATURA
 10
2758.4
 11
2738.4
 20
1180.632
 21
1183.966
  0
LINE
  8
QUOTATURA
 10
2738.4
 11
2758.4
 20
1183.966
 21
1187.3
  0
LINE
  8
QUOTATURA
 10
2758.4
 11
2758.4
 20
1187.3
 21
1180.632
  0
LINE
  8
QUOTATURA
 10
2623.9
 11
2623.9
 20
1079.0
 21
1142.474
  0
LINE
  8
QUOTATURA
 10
2688.4
 11
2592.713
 20
1132.474
 21
1132.474
  0
LINE
  8
QUOTATURA
 10
2668.4
 11
2688.4
 20
1135.808
 21
1132.474
  0
LINE
  8
QUOTATURA
 10
2688.4
 11
2668.4
 20
1132.474
 21
1129.14
  0
LINE
  8
QUOTATURA
 10
2668.4
 11
2668.4
 20
1129.14
 21
1135.808
  0
LINE
  8
QUOTATURA
 10
2643.9
 11
2623.9
 20
1129.14
 21
1132.474
  0
LINE
  8
QUOTATURA
 10
2623.9
 11
2643.9
 20
1132.474
 21
1135.808
  0
LINE
  8
QUOTATURA
 10
2643.9
 11
2643.9
 20
1135.808
 21
1129.14
  0
LINE
  8
QUOTATURA
 10
2998.9
 11
2854.885
 20
4.5
 21
4.5
  0
LINE
  8
QUOTATURA
 10
2998.9
 11
2854.885
 20
84.5
 21
84.5
  0
LINE
  8
QUOTATURA
 10
2864.885
 11
2864.885
 20
84.5
 21
-48.129
  0
LINE
  8
QUOTATURA
 10
2864.885
 11
2803.574
 20
-48.129
 21
-48.129
  0
LINE
  8
QUOTATURA
 10
2868.219
 11
2864.885
 20
24.5
 21
4.5
  0
LINE
  8
QUOTATURA
 10
2864.885
 11
2861.551
 20
4.5
 21
24.5
  0
LINE
  8
QUOTATURA
 10
2861.551
 11
2868.219
 20
24.5
 21
24.5
  0
LINE
  8
QUOTATURA
 10
2861.551
 11
2864.885
 20
64.5
 21
84.5
  0
LINE
  8
QUOTATURA
 10
2864.885
 11
2868.219
 20
84.5
 21
64.5
  0
LINE
  8
QUOTATURA
 10
2868.219
 11
2861.551
 20
64.5
 21
64.5
  0
LINE
  8
QUOTATURA
 10
2998.9
 11
2864.338
 20
2025.5
 21
2025.5
  0
LINE
  8
QUOTATURA
 10
2998.9
 11
2864.338
 20
2105.5
 21
2105.5
  0
LINE
  8
QUOTATURA
 10
2874.338
 11
2874.338
 20
2025.5
 21
2237.159
  0
LINE
  8
QUOTATURA
 10
2874.338
 11
2804.653
 20
2237.159
 21
2237.159
  0
LINE
  8
QUOTATURA
 10
2877.672
 11
2874.338
 20
2045.5
 21
2025.5
  0
LINE
  8
QUOTATURA
 10
2874.338
 11
2871.004
 20
2025.5
 21
2045.5
  0
LINE
  8
QUOTATURA
 10
2871.004
 11
2877.672
 20
2045.5
 21
2045.5
  0
LINE
  8
QUOTATURA
 10
2871.004
 11
2874.338
 20
2085.5
 21
2105.5
  0
LINE
  8
QUOTATURA
 10
2874.338
 11
2877.672
 20
2105.5
 21
2085.5
  0
LINE
  8
QUOTATURA
 10
2877.672
 11
2871.004
 20
2085.5
 21
2085.5
  0
LINE
  8
COSTRUZIONI
 10
2500.702
 11
2500.702
 20
2456.551
 21
2656.551
  0
LINE
  8
COSTRUZIONI
 10
2500.702
 11
4500.702
 20
2656.551
 21
2656.551
  0
LINE
  8
COSTRUZIONI
 10
4500.702
 11
4500.702
 20
2656.551
 21
2456.551
  0
LINE
  8
COSTRUZIONI
 10
4500.702
 11
2500.702
 20
2456.551
 21
2456.551
  0
LINE
  8
COSTRUZIONI
 10
2800.702
 11
2800.702
 20
2456.551
 21
2656.551
  0
LINE
  8
COSTRUZIONI
 10
3100.702
 11
3100.702
 20
2456.551
 21
2656.551
  0
LINE
  8
COSTRUZIONI
 10
3550.702
 11
3550.702
 20
2456.551
 21
2656.551
  0
LINE
  8
COSTRUZIONI
 10
4000.702
 11
4000.702
 20
2456.551
 21
2656.551
  0
LINE
  8
COSTRUZIONI
 10
2500.702
 11
2500.702
 20
2456.551
 21
2306.551
  0
LINE
  8
COSTRUZIONI
 10
2500.702
 11
4500.702
 20
2306.551
 21
2306.551
  0
LINE
  8
COSTRUZIONI
 10
4500.702
 11
4500.702
 20
2456.551
 21
2306.551
  0
LINE
  8
COSTRUZIONI
 10
2895.68
 11
2895.68
 20
2456.551
 21
2306.551
  0
LINE
  8
APS_GEOMETRY
 10
2604.67
 11
2654.67
 20
2317.28
 21
2317.28
  0
LINE
  8
APS_GEOMETRY
 10
2654.67
 11
2654.67
 20
2317.28
 21
2367.28
  0
LINE
  8
APS_GEOMETRY
 10
2654.67
 11
2604.67
 20
2367.28
 21
2367.28
  0
LINE
  8
APS_GEOMETRY
 10
2604.67
 11
2604.67
 20
2367.28
 21
2317.28
  0
LINE
  8
APS_GEOMETRY
 10
2832.874
 11
2882.874
 20
2317.28
 21
2317.28
  0
LINE
  8
APS_GEOMETRY
 10
2882.874
 11
2882.874
 20
2317.28
 21
2367.28
  0
LINE
  8
APS_GEOMETRY
 10
2882.874
 11
2832.874
 20
2367.28
 21
2367.28
  0
LINE
  8
APS_GEOMETRY
 10
2832.874
 11
2832.874
 20
2367.28
 21
2317.28
  0
LINE
  8
COSTRUZIONI
 10
2500.702
 11
2895.68
 20
2388.554
 21
2388.554
  0
LINE
  8
COSTRUZIONI
 10
2698.191
 11
2698.191
 20
2388.554
 21
2306.551
  0
LINE
  8
COSTRUZIONI
 10
3044.02
 11
3061.72
 20
2343.517
 21
2343.517
  0
LINE
  8
COSTRUZIONI
 10
3061.72
 11
3061.72
 20
2343.517
 21
2340.017
  0
LINE
  8
COSTRUZIONI
 10
3061.72
 11
3044.02
 20
2340.017
 21
2340.017
  0
LINE
  8
COSTRUZIONI
 10
3044.02
 11
3044.02
 20
2340.017
 21
2343.517
  0
LINE
  8
COSTRUZIONI
 10
3051.72
 11
3051.72
 20
2343.517
 21
2370.017
  0
ARC
  8
COSTRUZIONI
 10
3048.72
 20
2370.017
 40
3.0
 50
0.0
 51
90.0
  0
LINE
  8
COSTRUZIONI
 10
3048.72
 11
3029.72
 20
2373.017
 21
2373.017
  0
ARC
  8
COSTRUZIONI
 10
3029.72
 20
2370.017
 40
3.0
 50
90.0
 51
180.0
  0
LINE
  8
COSTRUZIONI
 10
3026.72
 11
3026.72
 20
2370.017
 21
2349.017
  0
LINE
  8
COSTRUZIONI
 10
3026.72
 11
3022.22
 20
2349.017
 21
2349.017
  0
LINE
  8
COSTRUZIONI
 10
3022.22
 11
3022.22
 20
2349.017
 21
2363.017
  0
LINE
  8
COSTRUZIONI
 10
3022.22
 11
3018.22
 20
2363.017
 21
2363.017
  0
LINE
  8
COSTRUZIONI
 10
3018.22
 11
3018.22
 20
2363.017
 21
2327.236
  0
LINE
  8
COSTRUZIONI
 10
3062.22
 11
3062.22
 20
2313.245
 21
2339.017
  0
LINE
  8
COSTRUZIONI
 10
3082.594
 11
3067.72
 20
2328.017
 21
2328.017
  0
ARC
  8
COSTRUZIONI
 10
3067.72
 20
2331.017
 40
3.0
 50
180.0
 51
270.0
  0
LINE
  8
COSTRUZIONI
 10
3064.72
 11
3064.72
 20
2331.017
 21
2343.017
  0
LINE
  8
COSTRUZIONI
 10
3064.72
 11
3056.22
 20
2343.017
 21
2343.017
  0
ARC
  8
COSTRUZIONI
 10
3056.22
 20
2344.517
 40
1.5
 50
180.0
 51
270.0
  0
LINE
  8
COSTRUZIONI
 10
3054.72
 11
3054.72
 20
2344.517
 21
2370.017
  0
ARC
  8
COSTRUZIONI
 10
3057.72
 20
2370.017
 40
3.0
 50
90.0
 51
180.0
  0
LINE
  8
COSTRUZIONI
 10
3057.72
 11
3083.755
 20
2373.017
 21
2373.017
  0
LINE
  8
QUOTATURA
 10
2976.66
 11
2976.66
 20
2329.21
 21
2329.877
  0
LINE
  8
COSTRUZIONI
 10
2959.46
 11
2967.16
 20
2334.044
 21
2334.044
  0
ARC
  8
COSTRUZIONI
 10
2972.16
 20
2322.044
 40
13.0
 50
67.38
 51
112.62
  0
LINE
  8
COSTRUZIONI
 10
2977.16
 11
2977.16
 20
2334.044
 21
2330.544
  0
LINE
  8
COSTRUZIONI
 10
2977.16
 11
2959.46
 20
2330.544
 21
2330.544
  0
LINE
  8
COSTRUZIONI
 10
2959.46
 11
2959.46
 20
2330.544
 21
2334.044
  0
LINE
  8
COSTRUZIONI
 10
2959.637
 11
2959.46
 20
2330.544
 21
2330.72
  0
LINE
  8
COSTRUZIONI
 10
2959.46
 11
2960.167
 20
2331.251
 21
2330.544
  0
LINE
  8
COSTRUZIONI
 10
2960.344
 11
2959.46
 20
2330.544
 21
2331.427
  0
LINE
  8
COSTRUZIONI
 10
2959.46
 11
2960.874
 20
2331.958
 21
2330.544
  0
LINE
  8
COSTRUZIONI
 10
2961.051
 11
2959.46
 20
2330.544
 21
2332.135
  0
LINE
  8
COSTRUZIONI
 10
2959.46
 11
2961.581
 20
2332.665
 21
2330.544
  0
LINE
  8
COSTRUZIONI
 10
2961.758
 11
2959.46
 20
2330.544
 21
2332.842
  0
LINE
  8
COSTRUZIONI
 10
2959.46
 11
2962.288
 20
2333.372
 21
2330.544
  0
LINE
  8
COSTRUZIONI
 10
2962.465
 11
2959.46
 20
2330.544
 21
2333.549
  0
LINE
  8
COSTRUZIONI
 10
2959.496
 11
2962.996
 20
2334.044
 21
2330.544
  0
LINE
  8
COSTRUZIONI
 10
2963.172
 11
2959.672
 20
2330.544
 21
2334.044
  0
LINE
  8
COSTRUZIONI
 10
2960.203
 11
2963.703
 20
2334.044
 21
2330.544
  0
LINE
  8
COSTRUZIONI
 10
2963.879
 11
2960.379
 20
2330.544
 21
2334.044
  0
LINE
  8
COSTRUZIONI
 10
2960.91
 11
2964.41
 20
2334.044
 21
2330.544
  0
LINE
  8
COSTRUZIONI
 10
2964.587
 11
2961.087
 20
2330.544
 21
2334.044
  0
LINE
  8
COSTRUZIONI
 10
2961.617
 11
2965.117
 20
2334.044
 21
2330.544
  0
LINE
  8
COSTRUZIONI
 10
2965.294
 11
2961.794
 20
2330.544
 21
2334.044
  0
LINE
  8
COSTRUZIONI
 10
2962.324
 11
2965.824
 20
2334.044
 21
2330.544
  0
LINE
  8
COSTRUZIONI
 10
2966.001
 11
2962.501
 20
2330.544
 21
2334.044
  0
LINE
  8
COSTRUZIONI
 10
2963.031
 11
2966.531
 20
2334.044
 21
2330.544
  0
LINE
  8
COSTRUZIONI
 10
2966.708
 11
2963.208
 20
2330.544
 21
2334.044
  0
LINE
  8
COSTRUZIONI
 10
2963.738
 11
2967.238
 20
2334.044
 21
2330.544
  0
LINE
  8
COSTRUZIONI
 10
2967.415
 11
2963.915
 20
2330.544
 21
2334.044
  0
LINE
  8
COSTRUZIONI
 10
2964.445
 11
2967.945
 20
2334.044
 21
2330.544
  0
LINE
  8
COSTRUZIONI
 10
2968.122
 11
2964.622
 20
2330.544
 21
2334.044
  0
LINE
  8
COSTRUZIONI
 10
2965.152
 11
2968.652
 20
2334.044
 21
2330.544
  0
LINE
  8
COSTRUZIONI
 10
2968.829
 11
2965.329
 20
2330.544
 21
2334.044
  0
LINE
  8
COSTRUZIONI
 10
2965.86
 11
2969.36
 20
2334.044
 21
2330.544
  0
LINE
  8
COSTRUZIONI
 10
2969.536
 11
2966.036
 20
2330.544
 21
2334.044
  0
LINE
  8
COSTRUZIONI
 10
2966.567
 11
2970.067
 20
2334.044
 21
2330.544
  0
LINE
  8
COSTRUZIONI
 10
2970.243
 11
2966.743
 20
2330.544
 21
2334.044
  0
LINE
  8
COSTRUZIONI
 10
2967.241
 11
2970.774
 20
2334.077
 21
2330.544
  0
LINE
  8
COSTRUZIONI
 10
2970.951
 11
2967.367
 20
2330.544
 21
2334.127
  0
LINE
  8
COSTRUZIONI
 10
2967.751
 11
2971.481
 20
2334.273
 21
2330.544
  0
LINE
  8
COSTRUZIONI
 10
2971.658
 11
2967.882
 20
2330.544
 21
2334.319
  0
LINE
  8
COSTRUZIONI
 10
2968.28
 11
2972.188
 20
2334.451
 21
2330.544
  0
LINE
  8
COSTRUZIONI
 10
2972.365
 11
2968.416
 20
2330.544
 21
2334.493
  0
LINE
  8
COSTRUZIONI
 10
2968.829
 11
2972.895
 20
2334.61
 21
2330.544
  0
LINE
  8
COSTRUZIONI
 10
2973.072
 11
2968.969
 20
2330.544
 21
2334.646
  0
LINE
  8
COSTRUZIONI
 10
2969.399
 11
2973.602
 20
2334.747
 21
2330.544
  0
LINE
  8
COSTRUZIONI
 10
2973.779
 11
2969.545
 20
2330.544
 21
2334.778
  0
LINE
  8
COSTRUZIONI
 10
2969.991
 11
2974.309
 20
2334.861
 21
2330.544
  0
LINE
  8
COSTRUZIONI
 10
2974.486
 11
2970.143
 20
2330.544
 21
2334.886
  0
LINE
  8
COSTRUZIONI
 10
2970.609
 11
2975.016
 20
2334.951
 21
2330.544
  0
LINE
  8
COSTRUZIONI
 10
2975.193
 11
2970.768
 20
2330.544
 21
2334.969
  0
LINE
  8
COSTRUZIONI
 10
2971.255
 11
2975.723
 20
2335.012
 21
2330.544
  0
LINE
  8
COSTRUZIONI
 10
2975.9
 11
2971.421
 20
2330.544
 21
2335.023
  0
LINE
  8
COSTRUZIONI
 10
2971.933
 11
2976.431
 20
2335.042
 21
2330.544
  0
LINE
  8
COSTRUZIONI
 10
2976.607
 11
2972.107
 20
2330.544
 21
2335.043
  0
LINE
  8
COSTRUZIONI
 10
2972.647
 11
2977.138
 20
2335.034
 21
2330.544
  0
LINE
  8
COSTRUZIONI
 10
2977.16
 11
2972.832
 20
2330.698
 21
2335.026
  0
LINE
  8
COSTRUZIONI
 10
2973.405
 11
2977.16
 20
2334.984
 21
2331.228
  0
LINE
  8
COSTRUZIONI
 10
2977.16
 11
2973.602
 20
2331.405
 21
2334.963
  0
LINE
  8
COSTRUZIONI
 10
2974.215
 11
2977.16
 20
2334.88
 21
2331.935
  0
LINE
  8
COSTRUZIONI
 10
2977.16
 11
2974.428
 20
2332.112
 21
2334.844
  0
LINE
  8
COSTRUZIONI
 10
2975.095
 11
2977.16
 20
2334.708
 21
2332.642
  0
LINE
  8
COSTRUZIONI
 10
2977.16
 11
2975.328
 20
2332.819
 21
2334.652
  0
LINE
  8
COSTRUZIONI
 10
2976.067
 11
2977.16
 20
2334.442
 21
2333.35
  0
LINE
  8
COSTRUZIONI
 10
2977.16
 11
2976.33
 20
2333.526
 21
2334.357
  0
ARC
  8
COSTRUZIONI
 10
2976.66
 20
2329.544
 40
1.0
 50
360.0
 51
90.0
  0
LINE
  8
COSTRUZIONI
 10
2933.66
 11
2933.66
 20
2363.743
 21
2319.779
  0
LINE
  8
COSTRUZIONI
 10
2977.66
 11
2977.66
 20
2316.986
 21
2329.544
  0
LINE
  8
COSTRUZIONI
 10
2967.16
 11
2967.16
 20
2334.044
 21
2360.744
  0
ARC
  8
COSTRUZIONI
 10
2964.16
 20
2360.744
 40
3.0
 50
0.0
 51
90.0
  0
LINE
  8
COSTRUZIONI
 10
2964.16
 11
2942.16
 20
2363.744
 21
2363.744
  0
LINE
  8
COSTRUZIONI
 10
2942.16
 11
2942.16
 20
2363.744
 21
2349.743
  0
LINE
  8
COSTRUZIONI
 10
2942.16
 11
2937.86
 20
2349.743
 21
2349.743
  0
LINE
  8
COSTRUZIONI
 10
2937.86
 11
2937.86
 20
2349.743
 21
2363.743
  0
LINE
  8
COSTRUZIONI
 10
2937.86
 11
2933.66
 20
2363.743
 21
2363.743
  0
LINE
  8
COSTRUZIONI
 10
2973.16
 11
2993.521
 20
2333.744
 21
2333.744
  0
LINE
  8
COSTRUZIONI
 10
2987.241
 11
2965.16
 20
2378.744
 21
2378.744
  0
ARC
  8
COSTRUZIONI
 10
2965.16
 20
2373.744
 40
5.0
 50
90.0
 51
180.0
  0
LINE
  8
COSTRUZIONI
 10
2960.16
 11
2960.16
 20
2373.744
 21
2365.744
  0
ARC
  8
COSTRUZIONI
 10
2962.16
 20
2365.744
 40
2.0
 50
180.0
 51
270.0
  0
LINE
  8
COSTRUZIONI
 10
2962.16
 11
2970.16
 20
2363.744
 21
2363.744
  0
LINE
  8
COSTRUZIONI
 10
2970.16
 11
2970.16
 20
2363.744
 21
2336.744
  0
ARC
  8
COSTRUZIONI
 10
2973.16
 20
2336.744
 40
3.0
 50
180.0
 51
270.0
  0
CIRCLE
  8
COSTRUZIONI
 10
2950.51
 20
2372.393
 40
6.85
  0
LINE
  8
COSTRUZIONI
 10
2956.547
 11
2960.406
 20
2375.63
 21
2375.292
  0
LINE
  8
COSTRUZIONI
 10
2960.16
 11
2955.894
 20
2367.785
 21
2368.158
  0
LINE
  8
COSTRUZIONI
 10
2954.26
 11
2954.26
 20
2366.661
 21
2363.744
  0
LINE
  8
COSTRUZIONI
 10
2946.76
 11
2946.76
 20
2363.744
 21
2366.661
  0
LINE
  8
COSTRUZIONI
 10
2949.534
 11
2928.775
 20
2379.243
 21
2379.243
  0
LINE
  8
COSTRUZIONI
 10
2943.66
 11
2943.66
 20
2372.393
 21
2389.12
  0
CIRCLE
  8
COSTRUZIONI
 10
2957.774
 20
2351.693
 40
40.0
  0
CIRCLE
  8
COSTRUZIONI
 10
3050.119
 20
2351.37
 40
40.0
  0
LINE
  8
APS_GEOMETRY
 10
3133.861
 11
3183.861
 20
2317.28
 21
2317.28
  0
LINE
  8
APS_GEOMETRY
 10
3183.861
 11
3183.861
 20
2317.28
 21
2367.28
  0
LINE
  8
APS_GEOMETRY
 10
3183.861
 11
3133.861
 20
2367.28
 21
2367.28
  0
LINE
  8
APS_GEOMETRY
 10
3133.861
 11
3133.861
 20
2367.28
 21
2317.28
  0
LINE
  8
COSTRUZIONI
 10
3215.228
 11
3215.228
 20
2456.551
 21
2306.551
  0
LINE
  8
COSTRUZIONI
 10
3396.9
 11
3396.9
 20
4.5
 21
2105.5
  0
LINE
  8
COSTRUZIONI
 10
3396.9
 11
2623.9
 20
2105.5
 21
2105.5
  0
LINE
  8
COSTRUZIONI
 10
2623.9
 11
2623.9
 20
2105.5
 21
4.5
  0
LINE
  8
COSTRUZIONI
 10
2623.9
 11
3396.9
 20
4.5
 21
4.5
  0
LINE
  8
COSTRUZIONI
 10
3282.4
 11
2738.4
 20
134.5
 21
134.5
  0
LINE
  8
COSTRUZIONI
 10
2738.4
 11
2738.4
 20
134.5
 21
1975.5
  0
LINE
  8
COSTRUZIONI
 10
2738.4
 11
3282.4
 20
1975.5
 21
1975.5
  0
LINE
  8
COSTRUZIONI
 10
3282.4
 11
3282.4
 20
1975.5
 21
1124.03
  0
LINE
  8
COSTRUZIONI
 10
3282.4
 11
3204.33
 20
1124.03
 21
889.107
  0
LINE
  8
COSTRUZIONI
 10
3204.33
 11
3282.4
 20
889.107
 21
844.428
  0
LINE
  8
COSTRUZIONI
 10
3282.4
 11
3282.4
 20
844.428
 21
134.5
  0
LINE
  8
COSTRUZIONI
 10
3332.4
 11
3332.4
 20
84.5
 21
873.423
  0
LINE
  8
COSTRUZIONI
 10
3332.4
 11
3264.685
 20
873.423
 21
912.175
  0
LINE
  8
COSTRUZIONI
 10
3264.685
 11
3332.4
 20
912.175
 21
1115.94
  0
LINE
  8
COSTRUZIONI
 10
3332.4
 11
3332.4
 20
1115.94
 21
2025.5
  0
LINE
  8
COSTRUZIONI
 10
3332.4
 11
2688.4
 20
2025.5
 21
2025.5
  0
LINE
  8
COSTRUZIONI
 10
2688.4
 11
2688.4
 20
2025.5
 21
84.5
  0
LINE
  8
COSTRUZIONI
 10
2688.4
 11
3332.4
 20
84.5
 21
84.5
  0
CIRCLE
  8
COSTRUZIONI
 10
3010.4
 20
1055.0
 40
15.0
  0
CIRCLE
  8
COSTRUZIONI
 10
3010.4
 20
479.75
 40
15.0
  0
CIRCLE
  8
COSTRUZIONI
 10
3010.4
 20
1630.25
 40
15.0
  0
LINE
  8
QUOTATURA
 10
2991.546
 11
3010.4
 20
1622.792
 21
1630.25
  0
LINE
  8
QUOTATURA
 10
3010.4
 11
2994.985
 20
1630.25
 21
1617.079
  0
LINE
  8
QUOTATURA
 10
2994.985
 11
2991.546
 20
1617.079
 21
1622.792
  0
LINE
  8
QUOTATURA
 10
3010.4
 11
2323.545
 20
1630.25
 21
1216.79
  0
LINE
  8
QUOTATURA
 10
2323.545
 11
2030.986
 20
1216.79
 21
1216.79
  0
LINE
  8
QUOTATURA
 10
2030.986
 11
2030.986
 20
1216.79
 21
1083.809
  0
LINE
  8
QUOTATURA
 10
2030.986
 11
2320.886
 20
1083.809
 21
1083.809
  0
LINE
  8
QUOTATURA
 10
2320.886
 11
2320.886
 20
1083.809
 21
1216.79
  0
LINE
  8
QUOTATURA
 10
2991.071
 11
3010.4
 20
1061.124
 21
1055.0
  0
LINE
  8
QUOTATURA
 10
3010.4
 11
2990.13
 20
1055.0
 21
1054.523
  0
LINE
  8
QUOTATURA
 10
2990.13
 11
2991.071
 20
1054.523
 21
1061.124
  0
LINE
  8
QUOTATURA
 10
3010.4
 11
2323.545
 20
1055.0
 21
1152.959
  0
LINE
  8
QUOTATURA
 10
2998.026
 11
3010.4
 20
495.812
 21
479.75
  0
LINE
  8
QUOTATURA
 10
3010.4
 11
2993.485
 20
479.75
 21
490.929
  0
LINE
  8
QUOTATURA
 10
2993.485
 11
2998.026
 20
490.929
 21
495.812
  0
LINE
  8
QUOTATURA
 10
3010.4
 11
2320.886
 20
479.75
 21
1121.043
  0
LINE
  8
QUOTATURA
 10
3494.623
 11
3494.623
 20
479.75
 21
752.213
  0
LINE
  8
QUOTATURA
 10
3494.623
 11
3494.623
 20
782.438
 21
1055.0
  0
LINE
  8
QUOTATURA
 10
3497.957
 11
3494.623
 20
499.75
 21
479.75
  0
LINE
  8
QUOTATURA
 10
3494.623
 11
3491.289
 20
479.75
 21
499.75
  0
LINE
  8
QUOTATURA
 10
3491.289
 11
3497.957
 20
499.75
 21
499.75
  0
LINE
  8
QUOTATURA
 10
3491.289
 11
3494.623
 20
1035.0
 21
1055.0
  0
LINE
  8
QUOTATURA
 10
3494.623
 11
3497.957
 20
1055.0
 21
1035.0
  0
LINE
  8
QUOTATURA
 10
3497.957
 11
3491.289
 20
1035.0
 21
1035.0
  0
LINE
  8
QUOTATURA
 10
3000.4
 11
3000.4
 20
476.416
 21
483.084
  0
LINE
  8
QUOTATURA
 10
2997.066
 11
3003.734
 20
479.75
 21
479.75
  0
LINE
  8
QUOTATURA
 10
3000.4
 11
3000.4
 20
1051.666
 21
1058.334
  0
LINE
  8
QUOTATURA
 10
2997.066
 11
3003.734
 20
1055.0
 21
1055.0
  0
LINE
  8
QUOTATURA
 10
3010.4
 11
3505.469
 20
1055.0
 21
1055.0
  0
LINE
  8
QUOTATURA
 10
3010.4
 11
3505.469
 20
1630.25
 21
1630.25
  0
LINE
  8
QUOTATURA
 10
3495.469
 11
3495.469
 20
1055.0
 21
1327.463
  0
LINE
  8
QUOTATURA
 10
3495.469
 11
3495.469
 20
1357.688
 21
1630.25
  0
LINE
  8
QUOTATURA
 10
3498.803
 11
3495.469
 20
1075.0
 21
1055.0
  0
LINE
  8
QUOTATURA
 10
3495.469
 11
3492.135
 20
1055.0
 21
1075.0
  0
LINE
  8
QUOTATURA
 10
3492.135
 11
3498.803
 20
1075.0
 21
1075.0
  0
LINE
  8
QUOTATURA
 10
3492.135
 11
3495.469
 20
1610.25
 21
1630.25
  0
LINE
  8
QUOTATURA
 10
3495.469
 11
3498.803
 20
1630.25
 21
1610.25
  0
LINE
  8
QUOTATURA
 10
3498.803
 11
3492.135
 20
1610.25
 21
1610.25
  0
LINE
  8
QUOTATURA
 10
3000.4
 11
3000.4
 20
1051.666
 21
1058.334
  0
LINE
  8
QUOTATURA
 10
2997.066
 11
3003.734
 20
1055.0
 21
1055.0
  0
LINE
  8
QUOTATURA
 10
3000.4
 11
3000.4
 20
1626.916
 21
1633.584
  0
LINE
  8
QUOTATURA
 10
2997.066
 11
3003.734
 20
1630.25
 21
1630.25
  0
LINE
  8
COSTRUZIONI
 10
2738.4
 11
3282.4
 20
134.5
 21
1975.5
  0
LINE
  8
COSTRUZIONI
 10
2738.4
 11
3282.4
 20
1975.5
 21
134.5
  0
LINE
  8
QUOTATURA
 10
3020.4
 11
3504.69
 20
1630.25
 21
1630.25
  0
LINE
  8
QUOTATURA
 10
3406.9
 11
3504.69
 20
2105.5
 21
2105.5
  0
LINE
  8
QUOTATURA
 10
3494.69
 11
3494.69
 20
1630.25
 21
1852.713
  0
LINE
  8
QUOTATURA
 10
3494.69
 11
3494.69
 20
1882.938
 21
2105.5
  0
LINE
  8
QUOTATURA
 10
3498.024
 11
3494.69
 20
1650.25
 21
1630.25
  0
LINE
  8
QUOTATURA
 10
3494.69
 11
3491.356
 20
1630.25
 21
1650.25
  0
LINE
  8
QUOTATURA
 10
3491.356
 11
3498.024
 20
1650.25
 21
1650.25
  0
LINE
  8
QUOTATURA
 10
3491.356
 11
3494.69
 20
2085.5
 21
2105.5
  0
LINE
  8
QUOTATURA
 10
3494.69
 11
3498.024
 20
2105.5
 21
2085.5
  0
LINE
  8
QUOTATURA
 10
3498.024
 11
3491.356
 20
2085.5
 21
2085.5
  0
LINE
  8
QUOTATURA
 10
3010.4
 11
3010.4
 20
1626.916
 21
1633.584
  0
LINE
  8
QUOTATURA
 10
3007.066
 11
3013.734
 20
1630.25
 21
1630.25
  0
LINE
  8
QUOTATURA
 10
3406.9
 11
3505.336
 20
4.5
 21
4.5
  0
LINE
  8
QUOTATURA
 10
3020.4
 11
3505.336
 20
479.75
 21
479.75
  0
LINE
  8
QUOTATURA
 10
3495.336
 11
3495.336
 20
4.5
 21
226.963
  0
LINE
  8
QUOTATURA
 10
3495.336
 11
3495.336
 20
257.188
 21
479.75
  0
LINE
  8
QUOTATURA
 10
3498.67
 11
3495.336
 20
24.5
 21
4.5
  0
LINE
  8
QUOTATURA
 10
3495.336
 11
3492.002
 20
4.5
 21
24.5
  0
LINE
  8
QUOTATURA
 10
3492.002
 11
3498.67
 20
24.5
 21
24.5
  0
LINE
  8
QUOTATURA
 10
3492.002
 11
3495.336
 20
459.75
 21
479.75
  0
LINE
  8
QUOTATURA
 10
3495.336
 11
3498.67
 20
479.75
 21
459.75
  0
LINE
  8
QUOTATURA
 10
3498.67
 11
3492.002
 20
459.75
 21
459.75
  0
LINE
  8
QUOTATURA
 10
3010.4
 11
3010.4
 20
476.416
 21
483.084
  0
LINE
  8
QUOTATURA
 10
3007.066
 11
3013.734
 20
479.75
 21
479.75
  0
LINE
  8
QUOTATURA
 10
2613.9
 11
2382.955
 20
4.5
 21
4.5
  0
LINE
  8
QUOTATURA
 10
2613.9
 11
2382.955
 20
2105.5
 21
2105.5
  0
LINE
  8
QUOTATURA
 10
2392.955
 11
2392.955
 20
4.5
 21
1471.523
  0
LINE
  8
QUOTATURA
 10
2392.955
 11
2392.955
 20
1501.83
 21
2105.5
  0
LINE
  8
QUOTATURA
 10
2396.289
 11
2392.955
 20
24.5
 21
4.5
  0
LINE
  8
QUOTATURA
 10
2392.955
 11
2389.621
 20
4.5
 21
24.5
  0
LINE
  8
QUOTATURA
 10
2389.621
 11
2396.289
 20
24.5
 21
24.5
  0
LINE
  8
QUOTATURA
 10
2389.621
 11
2392.955
 20
2085.5
 21
2105.5
  0
LINE
  8
QUOTATURA
 10
2392.955
 11
2396.289
 20
2105.5
 21
2085.5
  0
LINE
  8
QUOTATURA
 10
2396.289
 11
2389.621
 20
2085.5
 21
2085.5
  0
LINE
  8
QUOTATURA
 10
2623.9
 11
2623.9
 20
-5.5
 21
-127.945
  0
LINE
  8
QUOTATURA
 10
3396.9
 11
3396.9
 20
-5.5
 21
-127.945
  0
LINE
  8
QUOTATURA
 10
2623.9
 11
2979.774
 20
-117.945
 21
-117.945
  0
LINE
  8
QUOTATURA
 10
3041.027
 11
3396.9
 20
-117.945
 21
-117.945
  0
LINE
  8
QUOTATURA
 10
2643.9
 11
2623.9
 20
-121.279
 21
-117.945
  0
LINE
  8
QUOTATURA
 10
2623.9
 11
2643.9
 20
-117.945
 21
-114.611
  0
LINE
  8
QUOTATURA
 10
2643.9
 11
2643.9
 20
-114.611
 21
-121.279
  0
LINE
  8
QUOTATURA
 10
3376.9
 11
3396.9
 20
-114.611
 21
-117.945
  0
LINE
  8
QUOTATURA
 10
3396.9
 11
3376.9
 20
-117.945
 21
-121.279
  0
LINE
  8
QUOTATURA
 10
3376.9
 11
3376.9
 20
-121.279
 21
-114.611
  0
LINE
  8
COSTRUZIONI
 10
3685.381
 11
3685.381
 20
0.0
 21
2101.0
  0
LINE
  8
COSTRUZIONI
 10
3685.381
 11
4458.381
 20
2101.0
 21
2101.0
  0
LINE
  8
COSTRUZIONI
 10
4458.381
 11
4458.381
 20
2101.0
 21
0.0
  0
LINE
  8
COSTRUZIONI
 10
4458.381
 11
3685.381
 20
0.0
 21
0.0
  0
LINE
  8
COSTRUZIONI
 10
3799.881
 11
4343.881
 20
130.0
 21
130.0
  0
LINE
  8
COSTRUZIONI
 10
4343.881
 11
4343.881
 20
130.0
 21
1971.0
  0
LINE
  8
COSTRUZIONI
 10
4343.881
 11
3799.881
 20
1971.0
 21
1971.0
  0
LINE
  8
COSTRUZIONI
 10
3799.881
 11
3799.881
 20
1971.0
 21
1119.53
  0
LINE
  8
COSTRUZIONI
 10
3799.881
 11
3877.952
 20
1119.53
 21
884.607
  0
LINE
  8
COSTRUZIONI
 10
3877.952
 11
3799.881
 20
884.607
 21
839.928
  0
LINE
  8
COSTRUZIONI
 10
3799.881
 11
3799.881
 20
839.928
 21
130.0
  0
LINE
  8
COSTRUZIONI
 10
3749.881
 11
3749.881
 20
80.0
 21
868.923
  0
LINE
  8
COSTRUZIONI
 10
3749.881
 11
3817.597
 20
868.923
 21
907.675
  0
LINE
  8
COSTRUZIONI
 10
3817.597
 11
3749.881
 20
907.675
 21
1111.44
  0
LINE
  8
COSTRUZIONI
 10
3749.881
 11
3749.881
 20
1111.44
 21
2021.0
  0
LINE
  8
COSTRUZIONI
 10
3749.881
 11
4393.881
 20
2021.0
 21
2021.0
  0
LINE
  8
COSTRUZIONI
 10
4393.881
 11
4393.881
 20
2021.0
 21
80.0
  0
LINE
  8
COSTRUZIONI
 10
4393.881
 11
3749.881
 20
80.0
 21
80.0
  0
CIRCLE
  8
COSTRUZIONI
 10
4071.881
 20
1050.5
 40
15.0
  0
CIRCLE
  8
COSTRUZIONI
 10
4071.881
 20
475.25
 40
15.0
  0
CIRCLE
  8
COSTRUZIONI
 10
4071.881
 20
1625.75
 40
15.0
  0
LINE
  8
COSTRUZIONI
 10
4343.881
 11
3799.881
 20
130.0
 21
1971.0
  0
LINE
  8
COSTRUZIONI
 10
4343.881
 11
3799.881
 20
1971.0
 21
130.0
  0
TEXT
  8
TEXT
 10
2610.129
 20
1794.442
 30
0.0
 40
30.0
 50
0.0
  1
M
  0
TEXT
  8
TEXT
 10
2665.09
 20
1793.164
 30
0.0
 40
30.0
 50
0.0
  1
V
  0
TEXT
  8
TEXT
 10
2984.391
 20
2027.563
 30
0.0
 40
30.0
 50
0.0
  1
V
  0
TEXT
  8
TEXT
 10
3329.398
 20
1777.263
 30
0.0
 40
30.0
 50
0.0
  1
V
  0
TEXT
  8
TEXT
 10
3389.512
 20
1787.718
 30
0.0
 40
30.0
 50
0.0
  1
M
  0
TEXT
  8
TEXT
 10
2976.55
 20
2098.133
 30
0.0
 40
30.0
 50
0.0
  1
M
  0
TEXT
  8
TEXT
 10
2999.943
 20
-7.126
 30
0.0
 40
30.0
 50
0.0
  1
M
  0
TEXT
  8
TEXT
 10
2999.943
 20
60.151
 30
0.0
 40
30.0
 50
0.0
  1
V
  0
TEXT
  8
TEXT
 10
2883.422
 20
1208.763
 30
0.0
 40
30.0
 50
0.0
  1
AREA TRAFORATO
  0
TEXT
  8
TEXT
 10
3097.816
 20
2228.638
 30
0.0
 40
30.0
 50
0.0
  1
PANNELLI TRAFORATI PER UNA ANTA 804X2101
  0
TEXT
  8
TEXT
 10
3097.816
 20
2183.638
 30
0.0
 40
30.0
 50
0.0
  1
(SPESSORE 5.25)
  0
TEXT
  8
TEXT
 10
2717.47
 20
-194.036
 30
0.0
 40
30.0
 50
0.0
  1
LEGENDA LAVORAZIONI LASER:
  0
TEXT
  8
TEXT
 10
2717.47
 20
-239.036
 30
0.0
 40
30.0
 50
0.0
  1

  0
TEXT
  8
TEXT
 10
2717.47
 20
-284.036
 30
0.0
 40
30.0
 50
0.0
  1
[ V ] = FUGA A V DI 1.5-3 mm largh.
  0
TEXT
  8
TEXT
 10
2717.47
 20
-329.036
 30
0.0
 40
30.0
 50
0.0
  1
[ X ] = AREA TRAFORO SECONDO SPECIFICHE ARCHITETTO
  0
TEXT
  8
TEXT
 10
2717.47
 20
-374.036
 30
0.0
 40
30.0
 50
0.0
  1

  0
TEXT
  8
TEXT
 10
2717.47
 20
-419.036
 30
0.0
 40
30.0
 50
0.0
  1
LEGENDA LAVORAZIONI MANUALI
  0
TEXT
  8
TEXT
 10
2717.47
 20
-464.036
 30
0.0
 40
30.0
 50
0.0
  1

  0
TEXT
  8
TEXT
 10
2717.47
 20
-509.036
 30
0.0
 40
30.0
 50
0.0
  1
[ M ] = SPIGOLARE MANUALAMENTE
  0
TEXT
  8
TEXT
 10
2490.799
 20
-640.261
 30
0.0
 40
20.0
 50
0.0
  1
Ufficio tecnico:
  0
TEXT
  8
TEXT
 10
2984.148
 20
-764.603
 30
0.0
 40
25.0
 50
0.0
  1
tel. 0577-68.54.26 - fax 0577-68.64.29
  0
TEXT
  8
TEXT
 10
2984.148
 20
-802.103
 30
0.0
 40
25.0
 50
0.0
  1
e-mail: tecnico@toscocornici.it - web: www.tosococornici.it
  0
TEXT
  8
TEXT
 10
3595.237
 20
-793.795
 30
0.0
 40
40.0
 50
0.0
  1
B.Ste
  0
TEXT
  8
TEXT
 10
3743.657
 20
-793.795
 30
0.0
 40
40.0
 50
0.0
  1
f
  0
TEXT
  8
TEXT
 10
3774.342
 20
-793.795
 30
0.0
 40
40.0
 50
0.0
  1
ano
  0
TEXT
  8
TEXT
 10
3491.018
 20
-637.299
 30
0.0
 40
20.0
 50
0.0
  1
documento:
  0
TEXT
  8
TEXT
 10
3992.219
 20
-637.213
 30
0.0
 40
20.0
 50
0.0
  1
data:
  0
TEXT
  8
TEXT
 10
4241.318
 20
-688.704
 30
0.0
 40
30.0
 50
0.0
  1
12/09/14
  0
TEXT
  8
TEXT
 10
4250.072
 20
-789.414
 30
0.0
 40
30.0
 50
0.0
  1
1 : 10
  0
TEXT
  8
TEXT
 10
3489.204
 20
-735.523
 30
0.0
 40
20.0
 50
0.0
  1
responsabile tecnico:
  0
TEXT
  8
TEXT
 10
3990.8
 20
-735.813
 30
0.0
 40
20.0
 50
0.0
  1
scala:
  0
TEXT
  8
QUOTATURA
 10
2553.567
 20
1173.966
 30
0.0
 40
20.0
 50
0.0
  1
50
  0
TEXT
  8
QUOTATURA
 10
2528.409
 20
1122.474
 30
0.0
 40
20.0
 50
0.0
  1
64.5
  0
TEXT
  8
TEXT
 10
3734.673
 20
-690.42
 30
0.0
 40
17.0
 50
0.0
  1
PORTALAPORTA_STD-V_LASER_L773H2101
  0
TEXT
  8
QUOTATURA
 10
2764.373
 20
-58.129
 30
0.0
 40
20.0
 50
0.0
  1
80
  0
TEXT
  8
QUOTATURA
 10
2765.451
 20
2227.159
 30
0.0
 40
20.0
 50
0.0
  1
80
  0
TEXT
  8
TEXT
 10
2606.747
 20
2604.659
 30
0.0
 40
30.0
 50
0.0
  1
RIF.
  0
TEXT
  8
TEXT
 10
2859.968
 20
2604.659
 30
0.0
 40
30.0
 50
0.0
  1
QUANTITA'
  0
TEXT
  8
TEXT
 10
3238.14
 20
2604.659
 30
0.0
 40
30.0
 50
0.0
  1
ESSENZA
  0
TEXT
  8
TEXT
 10
3684.438
 20
2604.659
 30
0.0
 40
30.0
 50
0.0
  1
MODELLO
  0
TEXT
  8
TEXT
 10
4037.561
 20
2604.659
 30
0.0
 40
30.0
 50
0.0
  1
CONSEGNA ENTRO IL
  0
TEXT
  8
TEXT
 10
2527.607
 20
2404.659
 30
0.0
 40
30.0
 50
0.0
  1
MANO APERTURA
  0
TEXT
  8
TEXT
 10
2963.428
 20
2411.73
 30
0.0
 40
30.0
 50
0.0
  1
BATTENTE
  0
TEXT
  8
TEXT
 10
2511.591
 20
2317.687
 30
0.0
 40
50.0
 50
0.0
  1
SX
  0
TEXT
  8
TEXT
 10
2739.794
 20
2317.687
 30
0.0
 40
50.0
 50
0.0
  1
DX
  0
TEXT
  8
TEXT
 10
2868.515
 20
1465.083
 30
0.0
 40
200.0
 50
0.0
  1
SX  
  0
TEXT
  8
TEXT
 10
3519.056
 20
1510.681
 30
0.0
 40
200.0
 50
0.0
  1
 
  0
TEXT
  8
TEXT
 10
3708.118
 20
1510.681
 30
0.0
 40
200.0
 50
0.0
  1
 DX
  0
TEXT
  8
TEXT
 10
2052.263
 20
1160.938
 30
0.0
 40
30.0
 50
0.0
  1
ISOLE
  0
TEXT
  8
TEXT
 10
2052.263
 20
1115.938
 30
0.0
 40
30.0
 50
0.0
  1
NON FORARE
  0
TEXT
  8
QUOTATURA
 10
3446.993
 20
757.375
 30
0.0
 40
20.0
 50
0.0
  1
575.25
  0
TEXT
  8
QUOTATURA
 10
3447.838
 20
1332.625
 30
0.0
 40
20.0
 50
0.0
  1
575.25
  0
TEXT
  8
QUOTATURA
 10
3445.686
 20
1857.875
 30
0.0
 40
20.0
 50
0.0
  1
475.25
  0
TEXT
  8
QUOTATURA
 10
3446.331
 20
232.125
 30
0.0
 40
20.0
 50
0.0
  1
475.25
  0
TEXT
  8
QUOTATURA
 10
2365.598
 20
1476.767
 30
0.0
 40
20.0
 50
0.0
  1
2101
  0
TEXT
  8
QUOTATURA
 10
2984.223
 20
-127.945
 30
0.0
 40
20.0
 50
0.0
  1
773
  0
ENDSEC
  0
EOF
