  0
SECTION
  2
ENTITIES
  0
LINE
  8
COSTRUZIONI
 10
1807.334
 11
1807.334
 20
367.601
 21
475.601
  0
CIRCLE
  8
COSTRUZIONI
 10
1807.334
 20
367.601
 40
1.0
  0
LINE
  8
QUOTATURA
 10
1901.523
 11
1852.334
 20
367.601
 21
367.601
  0
LINE
  8
QUOTATURA
 10
1812.334
 11
1901.523
 20
475.601
 21
475.601
  0
LINE
  8
QUOTATURA
 10
1896.523
 11
1896.523
 20
367.601
 21
413.979
  0
LINE
  8
QUOTATURA
 10
1896.523
 11
1896.523
 20
429.107
 21
475.601
  0
LINE
  8
QUOTATURA
 10
1898.19
 11
1896.523
 20
377.601
 21
367.601
  0
LINE
  8
QUOTATURA
 10
1896.523
 11
1894.856
 20
367.601
 21
377.601
  0
LINE
  8
QUOTATURA
 10
1894.856
 11
1898.19
 20
377.601
 21
377.601
  0
LINE
  8
QUOTATURA
 10
1894.856
 11
1896.523
 20
465.601
 21
475.601
  0
LINE
  8
QUOTATURA
 10
1896.523
 11
1898.19
 20
475.601
 21
465.601
  0
LINE
  8
QUOTATURA
 10
1898.19
 11
1894.856
 20
465.601
 21
465.601
  0
LINE
  8
COSTRUZIONI
 10
1807.334
 11
1782.334
 20
370.601
 21
370.601
  0
LINE
  8
COSTRUZIONI
 10
1807.334
 11
1832.334
 20
370.601
 21
370.601
  0
LINE
  8
APS_GEOMETRY
 10
1807.334
 11
1782.334
 20
328.548
 21
328.548
  0
LINE
  8
APS_GEOMETRY
 10
1782.334
 11
1780.602
 20
328.548
 21
331.548
  0
LINE
  8
APS_GEOMETRY
 10
1780.602
 11
1716.065
 20
331.548
 21
331.548
  0
LINE
  8
APS_GEOMETRY
 10
1807.334
 11
1832.334
 20
328.548
 21
328.548
  0
LINE
  8
APS_GEOMETRY
 10
1832.334
 11
1834.067
 20
328.548
 21
331.548
  0
LINE
  8
APS_GEOMETRY
 10
1834.067
 11
1907.314
 20
331.548
 21
331.548
  0
LINE
  8
QUOTATURA
 10
1782.334
 11
1782.334
 20
365.101
 21
354.621
  0
LINE
  8
QUOTATURA
 10
1832.334
 11
1832.334
 20
365.101
 21
354.621
  0
LINE
  8
QUOTATURA
 10
1782.334
 11
1801.821
 20
357.121
 21
357.121
  0
LINE
  8
QUOTATURA
 10
1812.848
 11
1832.334
 20
357.121
 21
357.121
  0
LINE
  8
QUOTATURA
 10
1787.334
 11
1782.334
 20
356.287
 21
357.121
  0
LINE
  8
QUOTATURA
 10
1782.334
 11
1787.334
 20
357.121
 21
357.954
  0
LINE
  8
QUOTATURA
 10
1787.334
 11
1787.334
 20
357.954
 21
356.287
  0
LINE
  8
QUOTATURA
 10
1827.334
 11
1832.334
 20
357.954
 21
357.121
  0
LINE
  8
QUOTATURA
 10
1832.334
 11
1827.334
 20
357.121
 21
356.287
  0
LINE
  8
QUOTATURA
 10
1827.334
 11
1827.334
 20
356.287
 21
357.954
  0
LINE
  8
QUOTATURA
 10
1833.834
 11
1840.269
 20
328.548
 21
328.548
  0
LINE
  8
QUOTATURA
 10
1835.567
 11
1840.269
 20
331.548
 21
331.548
  0
LINE
  8
QUOTATURA
 10
1838.769
 11
1838.769
 20
328.548
 21
323.479
  0
LINE
  8
QUOTATURA
 10
1838.769
 11
1845.519
 20
323.479
 21
323.479
  0
LINE
  8
QUOTATURA
 10
1838.269
 11
1838.769
 20
325.548
 21
328.548
  0
LINE
  8
QUOTATURA
 10
1838.769
 11
1839.269
 20
328.548
 21
325.548
  0
LINE
  8
QUOTATURA
 10
1839.269
 11
1838.269
 20
325.548
 21
325.548
  0
LINE
  8
QUOTATURA
 10
1838.769
 11
1838.769
 20
331.548
 21
337.548
  0
LINE
  8
QUOTATURA
 10
1839.269
 11
1838.769
 20
334.548
 21
331.548
  0
LINE
  8
QUOTATURA
 10
1838.769
 11
1838.269
 20
331.548
 21
334.548
  0
LINE
  8
QUOTATURA
 10
1838.269
 11
1839.269
 20
334.548
 21
334.548
  0
LINE
  8
QUOTATURA
 10
1782.334
 11
1782.334
 20
327.048
 21
319.191
  0
LINE
  8
QUOTATURA
 10
1832.334
 11
1832.334
 20
327.048
 21
319.191
  0
LINE
  8
QUOTATURA
 10
1782.334
 11
1804.026
 20
320.691
 21
320.691
  0
LINE
  8
QUOTATURA
 10
1810.642
 11
1832.334
 20
320.691
 21
320.691
  0
LINE
  8
QUOTATURA
 10
1785.334
 11
1782.334
 20
320.191
 21
320.691
  0
LINE
  8
QUOTATURA
 10
1782.334
 11
1785.334
 20
320.691
 21
321.191
  0
LINE
  8
QUOTATURA
 10
1785.334
 11
1785.334
 20
321.191
 21
320.191
  0
LINE
  8
QUOTATURA
 10
1829.334
 11
1832.334
 20
321.191
 21
320.691
  0
LINE
  8
QUOTATURA
 10
1832.334
 11
1829.334
 20
320.691
 21
320.191
  0
LINE
  8
QUOTATURA
 10
1829.334
 11
1829.334
 20
320.191
 21
321.191
  0
LINE
  8
COSTRUZIONI
 10
1782.334
 11
1782.334
 20
334.548
 21
340.134
  0
LINE
  8
QUOTATURA
 10
1790.647
 11
1790.647
 20
346.462
 21
346.462
  0
LINE
  8
QUOTATURA
 10
1782.334
 11
1786.689
 20
346.462
 21
346.462
  0
LINE
  8
QUOTATURA
 10
1790.647
 11
1790.647
 20
346.462
 21
346.462
  0
LINE
  8
QUOTATURA
 10
1785.334
 11
1782.334
 20
345.962
 21
346.462
  0
LINE
  8
QUOTATURA
 10
1782.334
 11
1785.334
 20
346.462
 21
346.962
  0
LINE
  8
QUOTATURA
 10
1785.334
 11
1785.334
 20
346.962
 21
345.962
  0
LINE
  8
QUOTATURA
 10
1770.529
 11
1773.377
 20
342.995
 21
344.062
  0
LINE
  8
QUOTATURA
 10
1773.377
 11
1771.029
 20
344.062
 21
342.129
  0
LINE
  8
QUOTATURA
 10
1771.029
 11
1770.529
 20
342.129
 21
342.995
  0
ARC
  8
QUOTATURA
 10
1782.334
 20
328.548
 40
17.914
 50
90.0
 51
120.0
  0
LINE
  8
QUOTATURA
 10
1773.377
 11
1768.181
 20
344.062
 21
341.062
  0
LINE
  8
QUOTATURA
 10
1782.334
 11
1782.334
 20
341.634
 21
347.962
  0
LINE
  8
QUOTATURA
 10
1779.852
 11
1772.627
 20
332.847
 21
345.361
  0
LINE
  8
COSTRUZIONI
 10
1783.834
 11
1783.834
 20
367.601
 21
475.601
  0
LINE
  8
APS_GEOMETRY
 10
1817.334
 11
1817.334
 20
475.601
 21
423.101
  0
LINE
  8
APS_GEOMETRY
 10
1817.334
 11
1832.221
 20
423.101
 21
423.101
  0
ARC
  8
APS_GEOMETRY
 10
1832.221
 20
421.101
 40
2.0
 50
360.0
 51
90.0
  0
LINE
  8
APS_GEOMETRY
 10
1834.221
 11
1834.221
 20
421.101
 21
374.601
  0
LINE
  8
APS_GEOMETRY
 10
1834.221
 11
1835.221
 20
374.601
 21
374.601
  0
LINE
  8
APS_GEOMETRY
 10
1835.221
 11
1835.221
 20
374.601
 21
372.601
  0
LINE
  8
APS_GEOMETRY
 10
1835.221
 11
1832.334
 20
372.601
 21
367.601
  0
LINE
  8
APS_GEOMETRY
 10
1832.334
 11
1782.334
 20
367.601
 21
367.601
  0
LINE
  8
APS_GEOMETRY
 10
1782.334
 11
1779.448
 20
367.601
 21
372.601
  0
LINE
  8
APS_GEOMETRY
 10
1779.448
 11
1779.448
 20
372.601
 21
374.601
  0
LINE
  8
APS_GEOMETRY
 10
1779.448
 11
1780.448
 20
374.601
 21
374.601
  0
LINE
  8
APS_GEOMETRY
 10
1780.448
 11
1780.448
 20
374.601
 21
421.101
  0
ARC
  8
APS_GEOMETRY
 10
1782.448
 20
421.101
 40
2.0
 50
90.0
 51
180.0
  0
LINE
  8
APS_GEOMETRY
 10
1782.448
 11
1797.334
 20
423.101
 21
423.101
  0
LINE
  8
APS_GEOMETRY
 10
1797.334
 11
1797.334
 20
423.101
 21
475.601
  0
LINE
  8
APS_GEOMETRY
 10
1797.334
 11
1817.334
 20
475.601
 21
475.601
  0
LINE
  8
APS_GEOMETRY
 10
1785.334
 11
1788.221
 20
367.601
 21
372.51
  0
LINE
  8
APS_GEOMETRY
 10
1788.221
 11
1788.221
 20
372.51
 21
374.474
  0
LINE
  8
APS_GEOMETRY
 10
1788.221
 11
1787.221
 20
374.474
 21
374.474
  0
LINE
  8
APS_GEOMETRY
 10
1787.221
 11
1787.221
 20
374.474
 21
475.601
  0
LINE
  8
APS_GEOMETRY
 10
1787.221
 11
1780.448
 20
475.601
 21
475.601
  0
LINE
  8
APS_GEOMETRY
 10
1780.448
 11
1780.448
 20
475.601
 21
374.474
  0
LINE
  8
APS_GEOMETRY
 10
1780.448
 11
1779.448
 20
374.474
 21
374.474
  0
LINE
  8
APS_GEOMETRY
 10
1779.448
 11
1779.448
 20
374.474
 21
372.51
  0
LINE
  8
APS_GEOMETRY
 10
1779.448
 11
1782.334
 20
372.51
 21
367.601
  0
LINE
  8
APS_GEOMETRY
 10
1782.334
 11
1785.334
 20
367.601
 21
367.601
  0
LINE
  8
COSTRUZIONI
 10
1991.16
 11
1991.16
 20
367.601
 21
475.601
  0
CIRCLE
  8
COSTRUZIONI
 10
1991.16
 20
367.601
 40
1.0
  0
LINE
  8
QUOTATURA
 10
2085.349
 11
2036.16
 20
367.601
 21
367.601
  0
LINE
  8
QUOTATURA
 10
1996.16
 11
2085.349
 20
475.601
 21
475.601
  0
LINE
  8
QUOTATURA
 10
2080.349
 11
2080.349
 20
367.601
 21
413.979
  0
LINE
  8
QUOTATURA
 10
2080.349
 11
2080.349
 20
429.107
 21
475.601
  0
LINE
  8
QUOTATURA
 10
2082.016
 11
2080.349
 20
377.601
 21
367.601
  0
LINE
  8
QUOTATURA
 10
2080.349
 11
2078.682
 20
367.601
 21
377.601
  0
LINE
  8
QUOTATURA
 10
2078.682
 11
2082.016
 20
377.601
 21
377.601
  0
LINE
  8
QUOTATURA
 10
2078.682
 11
2080.349
 20
465.601
 21
475.601
  0
LINE
  8
QUOTATURA
 10
2080.349
 11
2082.016
 20
475.601
 21
465.601
  0
LINE
  8
QUOTATURA
 10
2082.016
 11
2078.682
 20
465.601
 21
465.601
  0
LINE
  8
QUOTATURA
 10
1966.16
 11
1966.16
 20
365.101
 21
354.621
  0
LINE
  8
QUOTATURA
 10
2016.16
 11
2016.16
 20
365.101
 21
354.621
  0
LINE
  8
QUOTATURA
 10
1966.16
 11
1985.647
 20
357.121
 21
357.121
  0
LINE
  8
QUOTATURA
 10
1996.674
 11
2016.16
 20
357.121
 21
357.121
  0
LINE
  8
QUOTATURA
 10
1971.16
 11
1966.16
 20
356.287
 21
357.121
  0
LINE
  8
QUOTATURA
 10
1966.16
 11
1971.16
 20
357.121
 21
357.954
  0
LINE
  8
QUOTATURA
 10
1971.16
 11
1971.16
 20
357.954
 21
356.287
  0
LINE
  8
QUOTATURA
 10
2011.16
 11
2016.16
 20
357.954
 21
357.121
  0
LINE
  8
QUOTATURA
 10
2016.16
 11
2011.16
 20
357.121
 21
356.287
  0
LINE
  8
QUOTATURA
 10
2011.16
 11
2011.16
 20
356.287
 21
357.954
  0
LINE
  8
COSTRUZIONI
 10
1953.945
 11
1953.945
 20
367.601
 21
475.601
  0
LINE
  8
APS_GEOMETRY
 10
2001.16
 11
2001.16
 20
475.601
 21
423.101
  0
LINE
  8
APS_GEOMETRY
 10
2001.16
 11
2016.047
 20
423.101
 21
423.101
  0
ARC
  8
APS_GEOMETRY
 10
2016.047
 20
421.101
 40
2.0
 50
360.0
 51
90.0
  0
LINE
  8
APS_GEOMETRY
 10
2018.047
 11
2018.047
 20
421.101
 21
374.601
  0
LINE
  8
APS_GEOMETRY
 10
2018.047
 11
2019.047
 20
374.601
 21
374.601
  0
LINE
  8
APS_GEOMETRY
 10
2019.047
 11
2019.047
 20
374.601
 21
372.601
  0
LINE
  8
APS_GEOMETRY
 10
2019.047
 11
2016.16
 20
372.601
 21
367.601
  0
LINE
  8
APS_GEOMETRY
 10
2016.16
 11
1966.16
 20
367.601
 21
367.601
  0
LINE
  8
APS_GEOMETRY
 10
1966.16
 11
1963.274
 20
367.601
 21
372.601
  0
LINE
  8
APS_GEOMETRY
 10
1963.274
 11
1963.274
 20
372.601
 21
374.601
  0
LINE
  8
APS_GEOMETRY
 10
1963.274
 11
1964.274
 20
374.601
 21
374.601
  0
LINE
  8
APS_GEOMETRY
 10
1964.274
 11
1964.274
 20
374.601
 21
421.101
  0
ARC
  8
APS_GEOMETRY
 10
1966.274
 20
421.101
 40
2.0
 50
90.0
 51
180.0
  0
LINE
  8
APS_GEOMETRY
 10
1966.274
 11
1981.16
 20
423.101
 21
423.101
  0
LINE
  8
APS_GEOMETRY
 10
1981.16
 11
1981.16
 20
423.101
 21
475.601
  0
LINE
  8
APS_GEOMETRY
 10
1981.16
 11
2001.16
 20
475.601
 21
475.601
  0
LINE
  8
APS_GEOMETRY
 10
1955.445
 11
1958.332
 20
367.601
 21
372.51
  0
LINE
  8
APS_GEOMETRY
 10
1958.332
 11
1958.332
 20
372.51
 21
374.474
  0
LINE
  8
APS_GEOMETRY
 10
1958.332
 11
1957.332
 20
374.474
 21
374.474
  0
LINE
  8
APS_GEOMETRY
 10
1957.332
 11
1957.332
 20
374.474
 21
475.601
  0
LINE
  8
APS_GEOMETRY
 10
1957.332
 11
1950.558
 20
475.601
 21
475.601
  0
LINE
  8
APS_GEOMETRY
 10
1950.558
 11
1950.558
 20
475.601
 21
374.474
  0
LINE
  8
APS_GEOMETRY
 10
1950.558
 11
1949.558
 20
374.474
 21
374.474
  0
LINE
  8
APS_GEOMETRY
 10
1949.558
 11
1949.558
 20
374.474
 21
372.51
  0
LINE
  8
APS_GEOMETRY
 10
1949.558
 11
1952.445
 20
372.51
 21
367.601
  0
LINE
  8
APS_GEOMETRY
 10
1952.445
 11
1955.445
 20
367.601
 21
367.601
  0
LINE
  8
COSTRUZIONI
 10
1966.16
 11
2016.16
 20
367.601
 21
367.601
  0
CIRCLE
  8
COSTRUZIONI
 10
1953.945
 20
367.601
 40
1.0
  0
LINE
  8
COSTRUZIONI
 10
1952.445
 11
1955.445
 20
367.601
 21
367.601
  0
LINE
  8
APS_GEOMETRY
 10
1447.369
 11
1372.919
 20
326.697
 21
326.697
  0
LINE
  8
APS_GEOMETRY
 10
1372.919
 11
1372.39
 20
326.697
 21
323.697
  0
LINE
  8
QUOTATURA
 10
1378.89
 11
1385.324
 20
323.697
 21
323.697
  0
LINE
  8
QUOTATURA
 10
1380.622
 11
1385.324
 20
326.697
 21
326.697
  0
LINE
  8
QUOTATURA
 10
1383.824
 11
1383.824
 20
323.697
 21
318.628
  0
LINE
  8
QUOTATURA
 10
1383.824
 11
1390.574
 20
318.628
 21
318.628
  0
LINE
  8
QUOTATURA
 10
1383.324
 11
1383.824
 20
320.697
 21
323.697
  0
LINE
  8
QUOTATURA
 10
1383.824
 11
1384.324
 20
323.697
 21
320.697
  0
LINE
  8
QUOTATURA
 10
1384.324
 11
1383.324
 20
320.697
 21
320.697
  0
LINE
  8
QUOTATURA
 10
1383.824
 11
1383.824
 20
326.697
 21
332.697
  0
LINE
  8
QUOTATURA
 10
1384.324
 11
1383.824
 20
329.697
 21
326.697
  0
LINE
  8
QUOTATURA
 10
1383.824
 11
1383.324
 20
326.697
 21
329.697
  0
LINE
  8
QUOTATURA
 10
1383.324
 11
1384.324
 20
329.697
 21
329.697
  0
LINE
  8
COSTRUZIONI
 10
1327.39
 11
1327.39
 20
329.697
 21
335.283
  0
LINE
  8
APS_GEOMETRY
 10
1255.283
 11
1256.145
 20
278.959
 21
278.959
  0
ARC
  8
APS_GEOMETRY
 10
1256.101
 20
280.194
 40
1.236
 50
272.021
 51
278.44
  0
ARC
  8
APS_GEOMETRY
 10
1256.15
 20
279.866
 40
0.904
 50
278.44
 51
285.945
  0
ARC
  8
APS_GEOMETRY
 10
1256.516
 20
278.557
 40
0.456
 50
98.584
 51
104.931
  0
ARC
  8
APS_GEOMETRY
 10
1256.485
 20
278.761
 40
0.25
 50
90.0
 51
98.584
  0
ARC
  8
APS_GEOMETRY
 10
1256.485
 20
278.823
 40
0.188
 50
52.871
 51
90.0
  0
ARC
  8
APS_GEOMETRY
 10
1256.231
 20
278.486
 40
0.609
 50
32.518
 51
52.871
  0
ARC
  8
APS_GEOMETRY
 10
1256.029
 20
278.358
 40
0.848
 50
17.209
 51
32.518
  0
ARC
  8
APS_GEOMETRY
 10
1256.197
 20
278.41
 40
0.672
 50
360.0
 51
17.209
  0
ARC
  8
APS_GEOMETRY
 10
1256.533
 20
278.41
 40
0.336
 50
337.348
 51
360.0
  0
ARC
  8
APS_GEOMETRY
 10
1256.668
 20
278.354
 40
0.19
 50
307.042
 51
337.348
  0
ARC
  8
APS_GEOMETRY
 10
1256.645
 20
278.386
 40
0.229
 50
287.186
 51
306.87
  0
ARC
  8
APS_GEOMETRY
 10
1256.624
 20
278.454
 40
0.3
 50
270.0
 51
287.186
  0
ARC
  8
APS_GEOMETRY
 10
1256.624
 20
278.423
 40
0.27
 50
252.221
 51
270.0
  0
ARC
  8
APS_GEOMETRY
 10
1256.612
 20
278.384
 40
0.229
 50
232.896
 51
252.221
  0
ARC
  8
APS_GEOMETRY
 10
1256.66
 20
278.448
 40
0.309
 50
218.3
 51
232.896
  0
ARC
  8
APS_GEOMETRY
 10
1257.039
 20
278.747
 40
0.792
 50
209.197
 51
218.3
  0
ARC
  8
APS_GEOMETRY
 10
1255.111
 20
277.703
 40
1.401
 50
28.025
 51
32.699
  0
ARC
  8
APS_GEOMETRY
 10
1256.119
 20
278.35
 40
0.203
 50
32.699
 51
45.0
  0
ARC
  8
APS_GEOMETRY
 10
1256.188
 20
278.419
 40
0.106
 50
45.0
 51
67.557
  0
ARC
  8
APS_GEOMETRY
 10
1256.187
 20
278.418
 40
0.107
 50
67.557
 51
90.0
  0
ARC
  8
APS_GEOMETRY
 10
1256.187
 20
278.426
 40
0.098
 50
90.0
 51
120.801
  0
ARC
  8
APS_GEOMETRY
 10
1256.184
 20
278.432
 40
0.092
 50
120.801
 51
152.7
  0
ARC
  8
APS_GEOMETRY
 10
1256.257
 20
278.394
 40
0.174
 50
152.7
 51
171.085
  0
ARC
  8
APS_GEOMETRY
 10
1256.812
 20
278.307
 40
0.735
 50
171.085
 51
180.0
  0
LINE
  8
APS_GEOMETRY
 10
1256.076
 11
1256.076
 20
278.307
 21
277.391
  0
ARC
  8
APS_GEOMETRY
 10
1257.048
 20
277.391
 40
0.971
 50
180.0
 51
188.194
  0
ARC
  8
APS_GEOMETRY
 10
1256.322
 20
277.287
 40
0.238
 50
188.194
 51
204.775
  0
ARC
  8
APS_GEOMETRY
 10
1256.252
 20
277.254
 40
0.161
 50
204.775
 51
228.576
  0
ARC
  8
APS_GEOMETRY
 10
1256.318
 20
277.329
 40
0.261
 50
228.576
 51
247.218
  0
ARC
  8
APS_GEOMETRY
 10
1255.934
 20
276.426
 40
0.721
 50
59.381
 51
66.93
  0
ARC
  8
APS_GEOMETRY
 10
1256.218
 20
276.904
 40
0.165
 50
43.568
 51
59.381
  0
ARC
  8
APS_GEOMETRY
 10
1256.263
 20
276.947
 40
0.103
 50
19.041
 51
43.568
  0
ARC
  8
APS_GEOMETRY
 10
1256.2
 20
276.925
 40
0.169
 50
360.0
 51
19.041
  0
ARC
  8
APS_GEOMETRY
 10
1256.232
 20
276.925
 40
0.137
 50
317.66
 51
360.0
  0
ARC
  8
APS_GEOMETRY
 10
1256.106
 20
277.04
 40
0.308
 50
289.747
 51
317.66
  0
ARC
  8
APS_GEOMETRY
 10
1256.0
 20
277.334
 40
0.621
 50
281.964
 51
289.747
  0
ARC
  8
APS_GEOMETRY
 10
1255.854
 20
278.025
 40
1.327
 50
276.643
 51
281.964
  0
ARC
  8
APS_GEOMETRY
 10
1255.792
 20
278.554
 40
1.859
 50
272.836
 51
276.643
  0
ARC
  8
APS_GEOMETRY
 10
1255.718
 20
280.043
 40
3.35
 50
270.0
 51
272.836
  0
ARC
  8
APS_GEOMETRY
 10
1255.718
 20
280.965
 40
4.272
 50
267.283
 51
270.0
  0
ARC
  8
APS_GEOMETRY
 10
1255.629
 20
279.075
 40
2.38
 50
263.643
 51
267.283
  0
ARC
  8
APS_GEOMETRY
 10
1255.553
 20
278.401
 40
1.701
 50
258.563
 51
263.643
  0
ARC
  8
APS_GEOMETRY
 10
1255.374
 20
277.514
 40
0.796
 50
251.136
 51
258.563
  0
ARC
  8
APS_GEOMETRY
 10
1255.214
 20
277.049
 40
0.305
 50
222.558
 51
251.395
  0
ARC
  8
APS_GEOMETRY
 10
1255.095
 20
276.94
 40
0.144
 50
180.0
 51
222.558
  0
ARC
  8
APS_GEOMETRY
 10
1255.071
 20
276.94
 40
0.12
 50
150.642
 51
180.0
  0
ARC
  8
APS_GEOMETRY
 10
1255.08
 20
276.935
 40
0.131
 50
122.574
 51
150.642
  0
ARC
  8
APS_GEOMETRY
 10
1255.055
 20
276.964
 40
0.093
 50
108.677
 51
119.055
  0
ARC
  8
APS_GEOMETRY
 10
1256.211
 20
273.545
 40
3.702
 50
107.038
 51
108.677
  0
ARC
  8
APS_GEOMETRY
 10
1255.083
 20
277.233
 40
0.155
 50
286.144
 51
308.66
  0
ARC
  8
APS_GEOMETRY
 10
1255.109
 20
277.201
 40
0.114
 50
308.66
 51
334.933
  0
ARC
  8
APS_GEOMETRY
 10
1255.005
 20
277.249
 40
0.228
 50
334.933
 51
348.829
  0
ARC
  8
APS_GEOMETRY
 10
1253.714
 20
277.504
 40
1.545
 50
348.829
 51
354.161
  0
ARC
  8
APS_GEOMETRY
 10
1252.841
 20
277.594
 40
2.422
 50
354.144
 51
355.66
  0
ARC
  8
APS_GEOMETRY
 10
1248.972
 20
277.888
 40
6.302
 50
355.66
 51
356.6
  0
ARC
  8
APS_GEOMETRY
 10
1246.015
 20
278.064
 40
9.265
 50
356.6
 51
357.24
  0
ARC
  8
APS_GEOMETRY
 10
1237.624
 20
278.468
 40
17.666
 50
357.24
 51
357.703
  0
ARC
  8
APS_GEOMETRY
 10
1238.45
 20
278.435
 40
16.839
 50
357.703
 51
358.674
  0
ARC
  8
APS_GEOMETRY
 10
1246.241
 20
278.255
 40
9.045
 50
358.674
 51
0.0
  0
ARC
  8
APS_GEOMETRY
 10
1253.946
 20
278.255
 40
1.341
 50
360.0
 51
6.242
  0
ARC
  8
APS_GEOMETRY
 10
1255.012
 20
278.371
 40
0.268
 50
6.242
 51
20.225
  0
ARC
  8
APS_GEOMETRY
 10
1255.16
 20
278.426
 40
0.111
 50
20.225
 51
50.44
  0
ARC
  8
APS_GEOMETRY
 10
1255.188
 20
278.46
 40
0.066
 50
50.44
 51
90.0
  0
ARC
  8
APS_GEOMETRY
 10
1255.188
 20
278.438
 40
0.088
 50
90.0
 51
126.747
  0
ARC
  8
APS_GEOMETRY
 10
1255.313
 20
278.271
 40
0.296
 50
126.747
 51
146.547
  0
ARC
  8
APS_GEOMETRY
 10
1253.114
 20
279.717
 40
2.336
 50
324.255
 51
326.701
  0
ARC
  8
APS_GEOMETRY
 10
1254.045
 20
279.047
 40
1.188
 50
320.826
 51
324.255
  0
ARC
  8
APS_GEOMETRY
 10
1254.349
 20
278.799
 40
0.796
 50
315.722
 51
320.826
  0
ARC
  8
APS_GEOMETRY
 10
1254.699
 20
278.458
 40
0.307
 50
307.504
 51
315.722
  0
ARC
  8
APS_GEOMETRY
 10
1254.666
 20
278.501
 40
0.361
 50
291.306
 51
307.405
  0
ARC
  8
APS_GEOMETRY
 10
1254.722
 20
278.357
 40
0.207
 50
270.0
 51
291.306
  0
ARC
  8
APS_GEOMETRY
 10
1254.722
 20
278.344
 40
0.194
 50
245.532
 51
270.0
  0
ARC
  8
APS_GEOMETRY
 10
1254.721
 20
278.341
 40
0.19
 50
220.833
 51
245.532
  0
ARC
  8
APS_GEOMETRY
 10
1254.741
 20
278.358
 40
0.216
 50
198.684
 51
220.833
  0
ARC
  8
APS_GEOMETRY
 10
1254.823
 20
278.386
 40
0.303
 50
180.0
 51
198.684
  0
ARC
  8
APS_GEOMETRY
 10
1255.015
 20
278.386
 40
0.495
 50
168.408
 51
180.0
  0
ARC
  8
APS_GEOMETRY
 10
1255.333
 20
278.32
 40
0.82
 50
159.402
 51
168.408
  0
ARC
  8
APS_GEOMETRY
 10
1255.431
 20
278.283
 40
0.924
 50
151.39
 51
159.402
  0
ARC
  8
APS_GEOMETRY
 10
1255.411
 20
278.294
 40
0.902
 50
143.276
 51
151.39
  0
ARC
  8
APS_GEOMETRY
 10
1255.158
 20
278.483
 40
0.586
 50
124.216
 51
143.31
  0
ARC
  8
APS_GEOMETRY
 10
1254.933
 20
278.814
 40
0.186
 50
90.0
 51
124.216
  0
ARC
  8
APS_GEOMETRY
 10
1254.933
 20
278.731
 40
0.269
 50
82.725
 51
90.0
  0
ARC
  8
APS_GEOMETRY
 10
1254.912
 20
278.566
 40
0.435
 50
77.005
 51
82.725
  0
ARC
  8
APS_GEOMETRY
 10
1255.555
 20
281.664
 40
2.728
 50
258.486
 51
260.378
  0
ARC
  8
APS_GEOMETRY
 10
1255.279
 20
280.04
 40
1.082
 50
260.378
 51
263.382
  0
ARC
  8
APS_GEOMETRY
 10
1255.256
 20
279.838
 40
0.877
 50
263.382
 51
267.084
  0
ARC
  8
APS_GEOMETRY
 10
1255.283
 20
280.373
 40
1.414
 50
267.084
 51
270.0
  0
ARC
  8
APS_GEOMETRY
 10
1258.27
 20
277.716
 40
1.289
 50
71.91
 51
90.0
  0
ARC
  8
APS_GEOMETRY
 10
1258.32
 20
277.869
 40
1.128
 50
52.561
 51
71.91
  0
ARC
  8
APS_GEOMETRY
 10
1258.306
 20
277.865
 40
1.139
 50
38.846
 51
52.156
  0
ARC
  8
APS_GEOMETRY
 10
1258.128
 20
277.721
 40
1.369
 50
26.707
 51
38.846
  0
ARC
  8
APS_GEOMETRY
 10
1258.163
 20
277.75
 40
1.324
 50
13.868
 51
26.278
  0
ARC
  8
APS_GEOMETRY
 10
1258.418
 20
277.813
 40
1.061
 50
360.0
 51
13.868
  0
ARC
  8
APS_GEOMETRY
 10
1258.435
 20
277.813
 40
1.045
 50
339.712
 51
360.0
  0
ARC
  8
APS_GEOMETRY
 10
1258.376
 20
277.835
 40
1.108
 50
320.013
 51
339.712
  0
ARC
  8
APS_GEOMETRY
 10
1258.366
 20
277.84
 40
1.119
 50
303.344
 51
320.123
  0
ARC
  8
APS_GEOMETRY
 10
1258.251
 20
278.015
 40
1.327
 50
287.949
 51
303.344
  0
ARC
  8
APS_GEOMETRY
 10
1258.214
 20
278.146
 40
1.463
 50
279.039
 51
287.776
  0
ARC
  8
APS_GEOMETRY
 10
1258.229
 20
278.051
 40
1.367
 50
270.0
 51
279.039
  0
ARC
  8
APS_GEOMETRY
 10
1258.229
 20
277.984
 40
1.301
 50
257.728
 51
270.0
  0
ARC
  8
APS_GEOMETRY
 10
1258.231
 20
277.993
 40
1.31
 50
245.501
 51
257.728
  0
ARC
  8
APS_GEOMETRY
 10
1258.157
 20
277.832
 40
1.133
 50
228.665
 51
245.511
  0
ARC
  8
APS_GEOMETRY
 10
1258.133
 20
277.804
 40
1.096
 50
211.535
 51
228.665
  0
ARC
  8
APS_GEOMETRY
 10
1258.165
 20
277.828
 40
1.136
 50
195.642
 51
211.701
  0
ARC
  8
APS_GEOMETRY
 10
1258.223
 20
277.844
 40
1.197
 50
180.0
 51
195.642
  0
ARC
  8
APS_GEOMETRY
 10
1258.236
 20
277.844
 40
1.209
 50
162.181
 51
180.0
  0
ARC
  8
APS_GEOMETRY
 10
1258.126
 20
277.88
 40
1.093
 50
143.434
 51
162.181
  0
ARC
  8
APS_GEOMETRY
 10
1258.111
 20
277.892
 40
1.074
 50
126.384
 51
143.471
  0
ARC
  8
APS_GEOMETRY
 10
1258.213
 20
277.754
 40
1.246
 50
110.525
 51
126.384
  0
ARC
  8
APS_GEOMETRY
 10
1258.207
 20
277.791
 40
1.209
 50
99.77
 51
110.925
  0
ARC
  8
APS_GEOMETRY
 10
1258.27
 20
277.43
 40
1.575
 50
90.0
 51
99.77
  0
ARC
  8
APS_GEOMETRY
 10
1258.114
 20
278.296
 40
0.24
 50
90.0
 51
119.604
  0
ARC
  8
APS_GEOMETRY
 10
1258.135
 20
278.259
 40
0.283
 50
119.604
 51
146.842
  0
ARC
  8
APS_GEOMETRY
 10
1258.178
 20
278.224
 40
0.337
 50
145.84
 51
164.055
  0
ARC
  8
APS_GEOMETRY
 10
1258.276
 20
278.196
 40
0.439
 50
164.055
 51
180.0
  0
ARC
  8
APS_GEOMETRY
 10
1258.889
 20
278.196
 40
1.053
 50
180.0
 51
189.977
  0
ARC
  8
APS_GEOMETRY
 10
1259.821
 20
278.36
 40
2.0
 50
189.977
 51
197.211
  0
ARC
  8
APS_GEOMETRY
 10
1260.025
 20
278.423
 40
2.213
 50
197.211
 51
203.76
  0
ARC
  8
APS_GEOMETRY
 10
1259.517
 20
278.199
 40
1.658
 50
203.76
 51
211.329
  0
ARC
  8
APS_GEOMETRY
 10
1258.474
 20
277.573
 40
0.441
 50
212.32
 51
224.441
  0
ARC
  8
APS_GEOMETRY
 10
1258.431
 20
277.531
 40
0.381
 50
224.441
 51
237.484
  0
ARC
  8
APS_GEOMETRY
 10
1258.404
 20
277.488
 40
0.33
 50
237.484
 51
252.416
  0
ARC
  8
APS_GEOMETRY
 10
1258.376
 20
277.401
 40
0.238
 50
252.416
 51
270.0
  0
ARC
  8
APS_GEOMETRY
 10
1258.376
 20
277.429
 40
0.267
 50
270.0
 51
294.953
  0
ARC
  8
APS_GEOMETRY
 10
1258.383
 20
277.413
 40
0.249
 50
294.953
 51
320.793
  0
ARC
  8
APS_GEOMETRY
 10
1258.343
 20
277.446
 40
0.301
 50
320.793
 51
342.777
  0
ARC
  8
APS_GEOMETRY
 10
1258.165
 20
277.501
 40
0.487
 50
342.777
 51
0.0
  0
ARC
  8
APS_GEOMETRY
 10
1257.327
 20
277.501
 40
1.325
 50
0.0
 51
8.499
  0
ARC
  8
APS_GEOMETRY
 10
1256.744
 20
277.414
 40
1.915
 50
8.499
 51
15.566
  0
ARC
  8
APS_GEOMETRY
 10
1256.814
 20
277.433
 40
1.842
 50
15.566
 51
22.909
  0
ARC
  8
APS_GEOMETRY
 10
1257.417
 20
277.688
 40
1.188
 50
22.909
 51
32.057
  0
ARC
  8
APS_GEOMETRY
 10
1257.891
 20
277.987
 40
0.628
 50
31.921
 51
42.51
  0
ARC
  8
APS_GEOMETRY
 10
1258.021
 20
278.106
 40
0.451
 50
42.51
 51
55.008
  0
ARC
  8
APS_GEOMETRY
 10
1258.065
 20
278.169
 40
0.374
 50
55.008
 51
69.88
  0
ARC
  8
APS_GEOMETRY
 10
1258.104
 20
278.276
 40
0.26
 50
69.88
 51
87.754
  0
ARC
  8
APS_GEOMETRY
 10
1260.691
 20
278.206
 40
0.799
 50
83.923
 51
90.0
  0
ARC
  8
APS_GEOMETRY
 10
1260.626
 20
277.602
 40
1.406
 50
79.342
 51
83.923
  0
ARC
  8
APS_GEOMETRY
 10
1260.549
 20
277.19
 40
1.826
 50
75.808
 51
79.342
  0
ARC
  8
APS_GEOMETRY
 10
1260.278
 20
276.121
 40
2.929
 50
73.018
 51
75.808
  0
ARC
  8
APS_GEOMETRY
 10
1261.231
 20
279.245
 40
0.338
 50
253.288
 51
259.046
  0
ARC
  8
APS_GEOMETRY
 10
1261.184
 20
279.006
 40
0.093
 50
259.046
 51
270.0
  0
ARC
  8
APS_GEOMETRY
 10
1261.184
 20
278.968
 40
0.055
 50
270.0
 51
286.699
  0
ARC
  8
APS_GEOMETRY
 10
1260.741
 20
280.446
 40
1.599
 50
286.699
 51
289.799
  0
ARC
  8
APS_GEOMETRY
 10
1261.335
 20
278.801
 40
0.15
 50
100.008
 51
110.556
  0
ARC
  8
APS_GEOMETRY
 10
1261.338
 20
278.785
 40
0.167
 50
90.0
 51
100.008
  0
ARC
  8
APS_GEOMETRY
 10
1261.338
 20
278.792
 40
0.159
 50
53.356
 51
90.0
  0
ARC
  8
APS_GEOMETRY
 10
1261.06
 20
278.419
 40
0.624
 50
35.101
 51
53.356
  0
ARC
  8
APS_GEOMETRY
 10
1260.922
 20
278.322
 40
0.794
 50
20.245
 51
35.101
  0
ARC
  8
APS_GEOMETRY
 10
1261.264
 20
278.448
 40
0.429
 50
360.0
 51
20.245
  0
ARC
  8
APS_GEOMETRY
 10
1261.436
 20
278.448
 40
0.257
 50
340.481
 51
360.0
  0
ARC
  8
APS_GEOMETRY
 10
1261.478
 20
278.433
 40
0.213
 50
318.972
 51
340.481
  0
ARC
  8
APS_GEOMETRY
 10
1261.497
 20
278.416
 40
0.187
 50
295.017
 51
318.972
  0
ARC
  8
APS_GEOMETRY
 10
1261.503
 20
278.402
 40
0.172
 50
270.0
 51
295.017
  0
ARC
  8
APS_GEOMETRY
 10
1261.503
 20
278.494
 40
0.264
 50
256.171
 51
270.0
  0
ARC
  8
APS_GEOMETRY
 10
1261.474
 20
278.377
 40
0.144
 50
237.381
 51
256.171
  0
ARC
  8
APS_GEOMETRY
 10
1261.526
 20
278.457
 40
0.238
 50
231.559
 51
237.381
  0
ARC
  8
APS_GEOMETRY
 10
1262.268
 20
279.392
 40
1.432
 50
229.185
 51
231.559
  0
ARC
  8
APS_GEOMETRY
 10
1263.063
 20
280.313
 40
2.649
 50
227.9
 51
229.185
  0
ARC
  8
APS_GEOMETRY
 10
1265.816
 20
283.359
 40
6.755
 50
227.095
 51
227.9
  0
ARC
  8
APS_GEOMETRY
 10
1260.648
 20
277.801
 40
0.835
 50
46.975
 51
64.612
  0
ARC
  8
APS_GEOMETRY
 10
1260.831
 20
278.188
 40
0.406
 50
64.612
 51
90.0
  0
ARC
  8
APS_GEOMETRY
 10
1260.831
 20
278.302
 40
0.293
 50
90.0
 51
106.966
  0
ARC
  8
APS_GEOMETRY
 10
1260.797
 20
278.413
 40
0.177
 50
106.966
 51
128.868
  0
ARC
  8
APS_GEOMETRY
 10
1260.778
 20
278.438
 40
0.145
 50
128.868
 51
154.741
  0
ARC
  8
APS_GEOMETRY
 10
1260.784
 20
278.435
 40
0.152
 50
154.741
 51
180.0
  0
ARC
  8
APS_GEOMETRY
 10
1260.775
 20
278.435
 40
0.143
 50
180.0
 51
206.64
  0
ARC
  8
APS_GEOMETRY
 10
1260.821
 20
278.458
 40
0.195
 50
206.64
 51
229.43
  0
ARC
  8
APS_GEOMETRY
 10
1260.895
 20
278.544
 40
0.308
 50
229.43
 51
244.493
  0
ARC
  8
APS_GEOMETRY
 10
1261.097
 20
278.968
 40
0.778
 50
244.493
 51
253.956
  0
ARC
  8
APS_GEOMETRY
 10
1257.493
 20
266.721
 40
11.988
 50
72.737
 51
73.58
  0
ARC
  8
APS_GEOMETRY
 10
1259.559
 20
273.367
 40
5.029
 50
71.435
 51
72.737
  0
ARC
  8
APS_GEOMETRY
 10
1260.243
 20
275.404
 40
2.88
 50
69.164
 51
71.435
  0
ARC
  8
APS_GEOMETRY
 10
1261.05
 20
277.525
 40
0.611
 50
64.231
 51
69.164
  0
ARC
  8
APS_GEOMETRY
 10
1260.957
 20
277.338
 40
0.819
 50
34.939
 51
64.068
  0
ARC
  8
APS_GEOMETRY
 10
1261.157
 20
277.478
 40
0.575
 50
360.0
 51
34.939
  0
ARC
  8
APS_GEOMETRY
 10
1261.034
 20
277.478
 40
0.698
 50
333.435
 51
360.0
  0
ARC
  8
APS_GEOMETRY
 10
1260.989
 20
277.501
 40
0.749
 50
307.807
 51
333.435
  0
ARC
  8
APS_GEOMETRY
 10
1260.87
 20
277.654
 40
0.943
 50
296.732
 51
307.786
  0
ARC
  8
APS_GEOMETRY
 10
1260.799
 20
277.794
 40
1.099
 50
286.496
 51
296.732
  0
ARC
  8
APS_GEOMETRY
 10
1260.753
 20
277.95
 40
1.262
 50
277.544
 51
286.496
  0
ARC
  8
APS_GEOMETRY
 10
1260.686
 20
278.46
 40
1.776
 50
270.0
 51
277.544
  0
ARC
  8
APS_GEOMETRY
 10
1260.686
 20
278.537
 40
1.854
 50
263.555
 51
270.0
  0
ARC
  8
APS_GEOMETRY
 10
1260.746
 20
279.068
 40
2.388
 50
257.878
 51
263.555
  0
ARC
  8
APS_GEOMETRY
 10
1260.714
 20
278.92
 40
2.236
 50
254.839
 51
257.878
  0
ARC
  8
APS_GEOMETRY
 10
1260.456
 20
277.966
 40
1.249
 50
250.772
 51
254.839
  0
ARC
  8
APS_GEOMETRY
 10
1260.339
 20
277.633
 40
0.896
 50
245.121
 51
250.772
  0
ARC
  8
APS_GEOMETRY
 10
1260.143
 20
277.209
 40
0.428
 50
236.944
 51
245.121
  0
ARC
  8
APS_GEOMETRY
 10
1260.027
 20
277.027
 40
0.212
 50
211.802
 51
236.31
  0
ARC
  8
APS_GEOMETRY
 10
1260.578
 20
277.368
 40
0.861
 50
199.704
 51
211.802
  0
ARC
  8
APS_GEOMETRY
 10
1260.841
 20
277.463
 40
1.14
 50
190.413
 51
199.704
  0
ARC
  8
APS_GEOMETRY
 10
1260.613
 20
277.421
 40
0.908
 50
180.0
 51
190.413
  0
ARC
  8
APS_GEOMETRY
 10
1259.998
 20
277.421
 40
0.293
 50
164.876
 51
180.0
  0
ARC
  8
APS_GEOMETRY
 10
1259.833
 20
277.465
 40
0.122
 50
141.34
 51
164.876
  0
ARC
  8
APS_GEOMETRY
 10
1259.849
 20
277.455
 40
0.141
 50
116.928
 51
142.001
  0
ARC
  8
APS_GEOMETRY
 10
1259.84
 20
277.471
 40
0.123
 50
90.0
 51
116.928
  0
ARC
  8
APS_GEOMETRY
 10
1259.84
 20
277.471
 40
0.123
 50
62.21
 51
90.0
  0
ARC
  8
APS_GEOMETRY
 10
1259.791
 20
277.378
 40
0.229
 50
41.906
 51
62.21
  0
ARC
  8
APS_GEOMETRY
 10
1259.8
 20
277.376
 40
0.224
 50
37.313
 51
43.668
  0
ARC
  8
APS_GEOMETRY
 10
1258.546
 20
276.421
 40
1.8
 50
35.074
 51
37.313
  0
ARC
  8
APS_GEOMETRY
 10
1257.123
 20
275.421
 40
3.539
 50
33.934
 51
35.074
  0
ARC
  8
APS_GEOMETRY
 10
1252.048
 20
272.007
 40
9.655
 50
33.243
 51
33.934
  0
ARC
  8
APS_GEOMETRY
 10
1260.404
 20
277.485
 40
0.336
 50
213.453
 51
231.637
  0
ARC
  8
APS_GEOMETRY
 10
1260.563
 20
277.686
 40
0.592
 50
231.637
 51
245.313
  0
ARC
  8
APS_GEOMETRY
 10
1260.598
 20
277.762
 40
0.676
 50
245.313
 51
257.398
  0
ARC
  8
APS_GEOMETRY
 10
1260.586
 20
277.709
 40
0.622
 50
257.398
 51
270.0
  0
ARC
  8
APS_GEOMETRY
 10
1260.586
 20
277.612
 40
0.525
 50
270.0
 51
282.907
  0
ARC
  8
APS_GEOMETRY
 10
1260.643
 20
277.366
 40
0.272
 50
282.907
 51
300.872
  0
ARC
  8
APS_GEOMETRY
 10
1260.692
 20
277.284
 40
0.177
 50
300.872
 51
326.876
  0
ARC
  8
APS_GEOMETRY
 10
1260.747
 20
277.247
 40
0.11
 50
326.876
 51
0.0
  0
ARC
  8
APS_GEOMETRY
 10
1260.731
 20
277.247
 40
0.127
 50
0.0
 51
27.553
  0
ARC
  8
APS_GEOMETRY
 10
1260.691
 20
277.227
 40
0.172
 50
27.553
 51
51.147
  0
ARC
  8
APS_GEOMETRY
 10
1260.608
 20
277.124
 40
0.304
 50
51.147
 51
65.225
  0
ARC
  8
APS_GEOMETRY
 10
1260.303
 20
276.463
 40
1.032
 50
65.225
 51
72.848
  0
ARC
  8
APS_GEOMETRY
 10
1262.085
 20
282.145
 40
4.923
 50
251.106
 51
252.532
  0
ARC
  8
APS_GEOMETRY
 10
1261.454
 20
280.302
 40
2.975
 50
249.271
 51
251.106
  0
ARC
  8
APS_GEOMETRY
 10
1261.192
 20
279.609
 40
2.234
 50
246.83
 51
249.271
  0
ARC
  8
APS_GEOMETRY
 10
1260.768
 20
278.617
 40
1.156
 50
243.435
 51
246.83
  0
ARC
  8
APS_GEOMETRY
 10
1260.719
 20
278.521
 40
1.048
 50
235.981
 51
243.435
  0
ARC
  8
APS_GEOMETRY
 10
1260.757
 20
278.576
 40
1.114
 50
228.752
 51
235.981
  0
ARC
  8
APS_GEOMETRY
 10
1260.583
 20
278.371
 40
0.846
 50
206.421
 51
228.457
  0
ARC
  8
APS_GEOMETRY
 10
1260.355
 20
278.258
 40
0.592
 50
180.0
 51
206.421
  0
ARC
  8
APS_GEOMETRY
 10
1260.366
 20
278.258
 40
0.602
 50
166.555
 51
180.0
  0
ARC
  8
APS_GEOMETRY
 10
1260.436
 20
278.241
 40
0.674
 50
153.848
 51
166.555
  0
ARC
  8
APS_GEOMETRY
 10
1260.441
 20
278.238
 40
0.681
 50
141.244
 51
153.848
  0
ARC
  8
APS_GEOMETRY
 10
1260.484
 20
278.204
 40
0.736
 50
129.123
 51
141.244
  0
ARC
  8
APS_GEOMETRY
 10
1260.622
 20
278.058
 40
0.936
 50
108.978
 51
130.006
  0
ARC
  8
APS_GEOMETRY
 10
1260.691
 20
277.858
 40
1.147
 50
90.0
 51
108.978
  0
ARC
  8
APS_GEOMETRY
 10
1263.19
 20
277.942
 40
1.063
 50
77.257
 51
90.0
  0
ARC
  8
APS_GEOMETRY
 10
1263.179
 20
277.894
 40
1.112
 50
64.799
 51
77.257
  0
ARC
  8
APS_GEOMETRY
 10
1264.095
 20
279.844
 40
1.042
 50
244.885
 51
251.175
  0
ARC
  8
APS_GEOMETRY
 10
1263.797
 20
278.969
 40
0.117
 50
251.175
 51
270.0
  0
ARC
  8
APS_GEOMETRY
 10
1263.797
 20
279.042
 40
0.19
 50
270.0
 51
278.82
  0
ARC
  8
APS_GEOMETRY
 10
1263.674
 20
279.834
 40
0.992
 50
278.82
 51
282.68
  0
ARC
  8
APS_GEOMETRY
 10
1263.931
 20
278.695
 40
0.176
 50
95.906
 51
102.995
  0
ARC
  8
APS_GEOMETRY
 10
1263.939
 20
278.618
 40
0.253
 50
90.0
 51
95.906
  0
ARC
  8
APS_GEOMETRY
 10
1263.939
 20
278.703
 40
0.168
 50
62.447
 51
90.0
  0
ARC
  8
APS_GEOMETRY
 10
1263.909
 20
278.646
 40
0.232
 50
39.094
 51
62.447
  0
ARC
  8
APS_GEOMETRY
 10
1263.598
 20
278.386
 40
0.639
 50
18.435
 51
39.611
  0
ARC
  8
APS_GEOMETRY
 10
1263.406
 20
278.322
 40
0.84
 50
360.0
 51
18.435
  0
ARC
  8
APS_GEOMETRY
 10
1263.83
 20
278.322
 40
0.417
 50
334.877
 51
360.0
  0
ARC
  8
APS_GEOMETRY
 10
1263.955
 20
278.263
 40
0.278
 50
304.007
 51
334.877
  0
ARC
  8
APS_GEOMETRY
 10
1263.953
 20
278.269
 40
0.284
 50
286.39
 51
303.69
  0
ARC
  8
APS_GEOMETRY
 10
1263.944
 20
278.3
 40
0.317
 50
270.0
 51
286.39
  0
ARC
  8
APS_GEOMETRY
 10
1263.944
 20
278.296
 40
0.313
 50
255.155
 51
270.0
  0
ARC
  8
APS_GEOMETRY
 10
1263.91
 20
278.167
 40
0.179
 50
235.491
 51
255.155
  0
ARC
  8
APS_GEOMETRY
 10
1263.927
 20
278.192
 40
0.209
 50
218.48
 51
235.491
  0
ARC
  8
APS_GEOMETRY
 10
1264.208
 20
278.415
 40
0.568
 50
208.179
 51
218.48
  0
ARC
  8
APS_GEOMETRY
 10
1261.327
 20
276.851
 40
2.71
 50
28.56
 51
31.664
  0
ARC
  8
APS_GEOMETRY
 10
1263.087
 20
277.937
 40
0.641
 50
31.664
 51
38.047
  0
ARC
  8
APS_GEOMETRY
 10
1263.215
 20
278.037
 40
0.479
 50
38.047
 51
46.56
  0
ARC
  8
APS_GEOMETRY
 10
1263.149
 20
277.967
 40
0.576
 50
46.56
 51
54.324
  0
ARC
  8
APS_GEOMETRY
 10
1263.11
 20
277.901
 40
0.652
 50
54.968
 51
71.48
  0
ARC
  8
APS_GEOMETRY
 10
1263.153
 20
278.027
 40
0.519
 50
71.48
 51
90.0
  0
ARC
  8
APS_GEOMETRY
 10
1263.153
 20
278.183
 40
0.363
 50
90.0
 51
114.63
  0
ARC
  8
APS_GEOMETRY
 10
1263.134
 20
278.223
 40
0.319
 50
114.63
 51
140.921
  0
ARC
  8
APS_GEOMETRY
 10
1263.188
 20
278.179
 40
0.388
 50
140.921
 51
163.13
  0
ARC
  8
APS_GEOMETRY
 10
1263.457
 20
278.098
 40
0.669
 50
163.13
 51
180.0
  0
ARC
  8
APS_GEOMETRY
 10
1263.806
 20
278.098
 40
1.018
 50
180.0
 51
195.44
  0
ARC
  8
APS_GEOMETRY
 10
1263.753
 20
278.083
 40
0.963
 50
195.44
 51
211.316
  0
ARC
  8
APS_GEOMETRY
 10
1263.498
 20
277.934
 40
0.668
 50
211.708
 51
240.457
  0
ARC
  8
APS_GEOMETRY
 10
1263.481
 20
277.903
 40
0.633
 50
240.457
 51
270.0
  0
ARC
  8
APS_GEOMETRY
 10
1263.481
 20
278.058
 40
0.788
 50
270.0
 51
279.549
  0
ARC
  8
APS_GEOMETRY
 10
1263.471
 20
278.116
 40
0.847
 50
279.549
 51
288.759
  0
ARC
  8
APS_GEOMETRY
 10
1263.513
 20
277.995
 40
0.718
 50
288.759
 51
299.545
  0
ARC
  8
APS_GEOMETRY
 10
1263.678
 20
277.703
 40
0.383
 50
299.545
 51
314.341
  0
ARC
  8
APS_GEOMETRY
 10
1264.19
 20
277.171
 40
0.355
 50
120.141
 51
133.452
  0
ARC
  8
APS_GEOMETRY
 10
1264.047
 20
277.417
 40
0.071
 50
90.0
 51
120.141
  0
ARC
  8
APS_GEOMETRY
 10
1264.047
 20
277.376
 40
0.111
 50
61.952
 51
90.0
  0
ARC
  8
APS_GEOMETRY
 10
1264.03
 20
277.345
 40
0.147
 50
37.569
 51
61.952
  0
ARC
  8
APS_GEOMETRY
 10
1263.999
 20
277.321
 40
0.186
 50
17.665
 51
37.569
  0
ARC
  8
APS_GEOMETRY
 10
1263.952
 20
277.306
 40
0.235
 50
360.0
 51
17.665
  0
ARC
  8
APS_GEOMETRY
 10
1263.834
 20
277.306
 40
0.354
 50
344.932
 51
0.0
  0
ARC
  8
APS_GEOMETRY
 10
1263.519
 20
277.391
 40
0.68
 50
334.075
 51
344.932
  0
ARC
  8
APS_GEOMETRY
 10
1263.509
 20
277.396
 40
0.691
 50
323.374
 51
334.075
  0
ARC
  8
APS_GEOMETRY
 10
1263.712
 20
277.245
 40
0.438
 50
309.92
 51
323.374
  0
ARC
  8
APS_GEOMETRY
 10
1263.915
 20
277.005
 40
0.124
 50
289.026
 51
308.991
  0
ARC
  8
APS_GEOMETRY
 10
1263.698
 20
277.634
 40
0.789
 50
281.143
 51
289.026
  0
ARC
  8
APS_GEOMETRY
 10
1263.918
 20
276.495
 40
0.372
 50
100.437
 51
110.12
  0
ARC
  8
APS_GEOMETRY
 10
1264.209
 20
275.7
 40
1.218
 50
110.12
 51
115.463
  0
ARC
  8
APS_GEOMETRY
 10
1263.17
 20
277.874
 40
1.192
 50
282.94
 51
295.628
  0
ARC
  8
APS_GEOMETRY
 10
1263.18
 20
277.829
 40
1.146
 50
270.0
 51
282.94
  0
ARC
  8
APS_GEOMETRY
 10
1263.18
 20
277.897
 40
1.214
 50
257.307
 51
270.0
  0
ARC
  8
APS_GEOMETRY
 10
1263.232
 20
278.125
 40
1.447
 50
245.686
 51
257.307
  0
ARC
  8
APS_GEOMETRY
 10
1263.103
 20
277.842
 40
1.137
 50
228.801
 51
245.735
  0
ARC
  8
APS_GEOMETRY
 10
1263.105
 20
277.845
 40
1.14
 50
211.891
 51
228.801
  0
ARC
  8
APS_GEOMETRY
 10
1263.173
 20
277.893
 40
1.223
 50
196.728
 51
212.152
  0
ARC
  8
APS_GEOMETRY
 10
1262.998
 20
277.841
 40
1.041
 50
180.0
 51
196.728
  0
ARC
  8
APS_GEOMETRY
 10
1263.024
 20
277.841
 40
1.066
 50
161.184
 51
180.0
  0
ARC
  8
APS_GEOMETRY
 10
1263.092
 20
277.818
 40
1.139
 50
142.98
 51
161.184
  0
ARC
  8
APS_GEOMETRY
 10
1263.145
 20
277.777
 40
1.206
 50
127.824
 51
142.958
  0
ARC
  8
APS_GEOMETRY
 10
1263.233
 20
277.664
 40
1.349
 50
113.52
 51
127.824
  0
ARC
  8
APS_GEOMETRY
 10
1263.204
 20
277.73
 40
1.277
 50
101.927
 51
113.527
  0
ARC
  8
APS_GEOMETRY
 10
1263.19
 20
277.797
 40
1.208
 50
90.0
 51
101.927
  0
ARC
  8
APS_GEOMETRY
 10
1265.714
 20
277.716
 40
1.289
 50
71.91
 51
90.0
  0
ARC
  8
APS_GEOMETRY
 10
1265.764
 20
277.869
 40
1.128
 50
52.561
 51
71.91
  0
ARC
  8
APS_GEOMETRY
 10
1265.751
 20
277.865
 40
1.139
 50
38.846
 51
52.156
  0
ARC
  8
APS_GEOMETRY
 10
1265.572
 20
277.721
 40
1.369
 50
26.707
 51
38.846
  0
ARC
  8
APS_GEOMETRY
 10
1265.608
 20
277.75
 40
1.324
 50
13.868
 51
26.278
  0
ARC
  8
APS_GEOMETRY
 10
1265.863
 20
277.813
 40
1.061
 50
360.0
 51
13.868
  0
ARC
  8
APS_GEOMETRY
 10
1265.879
 20
277.813
 40
1.045
 50
339.712
 51
360.0
  0
ARC
  8
APS_GEOMETRY
 10
1265.82
 20
277.835
 40
1.108
 50
320.013
 51
339.712
  0
ARC
  8
APS_GEOMETRY
 10
1265.811
 20
277.84
 40
1.119
 50
303.344
 51
320.123
  0
ARC
  8
APS_GEOMETRY
 10
1265.696
 20
278.015
 40
1.327
 50
287.949
 51
303.344
  0
ARC
  8
APS_GEOMETRY
 10
1265.658
 20
278.146
 40
1.463
 50
279.039
 51
287.776
  0
ARC
  8
APS_GEOMETRY
 10
1265.673
 20
278.051
 40
1.367
 50
270.0
 51
279.039
  0
ARC
  8
APS_GEOMETRY
 10
1265.673
 20
277.984
 40
1.301
 50
257.728
 51
270.0
  0
ARC
  8
APS_GEOMETRY
 10
1265.675
 20
277.993
 40
1.31
 50
245.501
 51
257.728
  0
ARC
  8
APS_GEOMETRY
 10
1265.602
 20
277.832
 40
1.133
 50
228.665
 51
245.511
  0
ARC
  8
APS_GEOMETRY
 10
1265.577
 20
277.804
 40
1.096
 50
211.535
 51
228.665
  0
ARC
  8
APS_GEOMETRY
 10
1265.609
 20
277.828
 40
1.136
 50
195.642
 51
211.701
  0
ARC
  8
APS_GEOMETRY
 10
1265.668
 20
277.844
 40
1.197
 50
180.0
 51
195.642
  0
ARC
  8
APS_GEOMETRY
 10
1265.681
 20
277.844
 40
1.209
 50
162.181
 51
180.0
  0
ARC
  8
APS_GEOMETRY
 10
1265.57
 20
277.88
 40
1.093
 50
143.434
 51
162.181
  0
ARC
  8
APS_GEOMETRY
 10
1265.555
 20
277.892
 40
1.074
 50
126.384
 51
143.471
  0
ARC
  8
APS_GEOMETRY
 10
1265.657
 20
277.754
 40
1.246
 50
110.525
 51
126.384
  0
ARC
  8
APS_GEOMETRY
 10
1265.652
 20
277.791
 40
1.209
 50
99.77
 51
110.925
  0
ARC
  8
APS_GEOMETRY
 10
1265.714
 20
277.43
 40
1.575
 50
90.0
 51
99.77
  0
ARC
  8
APS_GEOMETRY
 10
1265.559
 20
278.296
 40
0.24
 50
90.0
 51
119.604
  0
ARC
  8
APS_GEOMETRY
 10
1265.58
 20
278.259
 40
0.283
 50
119.604
 51
146.842
  0
ARC
  8
APS_GEOMETRY
 10
1265.622
 20
278.224
 40
0.337
 50
145.84
 51
164.055
  0
ARC
  8
APS_GEOMETRY
 10
1265.72
 20
278.196
 40
0.439
 50
164.055
 51
180.0
  0
ARC
  8
APS_GEOMETRY
 10
1266.334
 20
278.196
 40
1.053
 50
180.0
 51
189.977
  0
ARC
  8
APS_GEOMETRY
 10
1267.266
 20
278.36
 40
2.0
 50
189.977
 51
197.211
  0
ARC
  8
APS_GEOMETRY
 10
1267.47
 20
278.423
 40
2.213
 50
197.211
 51
203.76
  0
ARC
  8
APS_GEOMETRY
 10
1266.962
 20
278.199
 40
1.658
 50
203.76
 51
211.329
  0
ARC
  8
APS_GEOMETRY
 10
1265.919
 20
277.573
 40
0.441
 50
212.32
 51
224.441
  0
ARC
  8
APS_GEOMETRY
 10
1265.876
 20
277.531
 40
0.381
 50
224.441
 51
237.484
  0
ARC
  8
APS_GEOMETRY
 10
1265.848
 20
277.488
 40
0.33
 50
237.484
 51
252.416
  0
ARC
  8
APS_GEOMETRY
 10
1265.82
 20
277.401
 40
0.238
 50
252.416
 51
270.0
  0
ARC
  8
APS_GEOMETRY
 10
1265.82
 20
277.429
 40
0.267
 50
270.0
 51
294.953
  0
ARC
  8
APS_GEOMETRY
 10
1265.828
 20
277.413
 40
0.249
 50
294.953
 51
320.793
  0
ARC
  8
APS_GEOMETRY
 10
1265.788
 20
277.446
 40
0.301
 50
320.793
 51
342.777
  0
ARC
  8
APS_GEOMETRY
 10
1265.61
 20
277.501
 40
0.487
 50
342.777
 51
0.0
  0
ARC
  8
APS_GEOMETRY
 10
1264.771
 20
277.501
 40
1.325
 50
0.0
 51
8.499
  0
ARC
  8
APS_GEOMETRY
 10
1264.188
 20
277.414
 40
1.915
 50
8.499
 51
15.566
  0
ARC
  8
APS_GEOMETRY
 10
1264.258
 20
277.433
 40
1.842
 50
15.566
 51
22.909
  0
ARC
  8
APS_GEOMETRY
 10
1264.861
 20
277.688
 40
1.188
 50
22.909
 51
32.057
  0
ARC
  8
APS_GEOMETRY
 10
1265.335
 20
277.987
 40
0.628
 50
31.921
 51
42.51
  0
ARC
  8
APS_GEOMETRY
 10
1265.465
 20
278.106
 40
0.451
 50
42.51
 51
55.008
  0
ARC
  8
APS_GEOMETRY
 10
1265.509
 20
278.169
 40
0.374
 50
55.008
 51
69.88
  0
ARC
  8
APS_GEOMETRY
 10
1265.549
 20
278.276
 40
0.26
 50
69.88
 51
87.754
  0
ARC
  8
APS_GEOMETRY
 10
1268.382
 20
277.942
 40
1.063
 50
77.257
 51
90.0
  0
ARC
  8
APS_GEOMETRY
 10
1268.371
 20
277.894
 40
1.112
 50
64.799
 51
77.257
  0
ARC
  8
APS_GEOMETRY
 10
1269.287
 20
279.844
 40
1.042
 50
244.885
 51
251.175
  0
ARC
  8
APS_GEOMETRY
 10
1268.989
 20
278.969
 40
0.117
 50
251.175
 51
270.0
  0
ARC
  8
APS_GEOMETRY
 10
1268.989
 20
279.042
 40
0.19
 50
270.0
 51
278.82
  0
ARC
  8
APS_GEOMETRY
 10
1268.866
 20
279.834
 40
0.992
 50
278.82
 51
282.68
  0
ARC
  8
APS_GEOMETRY
 10
1269.123
 20
278.695
 40
0.176
 50
95.906
 51
102.995
  0
ARC
  8
APS_GEOMETRY
 10
1269.131
 20
278.618
 40
0.253
 50
90.0
 51
95.906
  0
ARC
  8
APS_GEOMETRY
 10
1269.131
 20
278.703
 40
0.168
 50
62.447
 51
90.0
  0
ARC
  8
APS_GEOMETRY
 10
1269.101
 20
278.646
 40
0.232
 50
39.094
 51
62.447
  0
ARC
  8
APS_GEOMETRY
 10
1268.79
 20
278.386
 40
0.639
 50
18.435
 51
39.611
  0
ARC
  8
APS_GEOMETRY
 10
1268.598
 20
278.322
 40
0.84
 50
360.0
 51
18.435
  0
ARC
  8
APS_GEOMETRY
 10
1269.022
 20
278.322
 40
0.417
 50
334.877
 51
360.0
  0
ARC
  8
APS_GEOMETRY
 10
1269.147
 20
278.263
 40
0.278
 50
304.007
 51
334.877
  0
ARC
  8
APS_GEOMETRY
 10
1269.145
 20
278.269
 40
0.284
 50
286.39
 51
303.69
  0
ARC
  8
APS_GEOMETRY
 10
1269.136
 20
278.3
 40
0.317
 50
270.0
 51
286.39
  0
ARC
  8
APS_GEOMETRY
 10
1269.136
 20
278.296
 40
0.313
 50
255.155
 51
270.0
  0
ARC
  8
APS_GEOMETRY
 10
1269.102
 20
278.167
 40
0.179
 50
235.491
 51
255.155
  0
ARC
  8
APS_GEOMETRY
 10
1269.119
 20
278.192
 40
0.209
 50
218.48
 51
235.491
  0
ARC
  8
APS_GEOMETRY
 10
1269.4
 20
278.415
 40
0.568
 50
208.179
 51
218.48
  0
ARC
  8
APS_GEOMETRY
 10
1266.519
 20
276.851
 40
2.71
 50
28.56
 51
31.664
  0
ARC
  8
APS_GEOMETRY
 10
1268.279
 20
277.937
 40
0.641
 50
31.664
 51
38.047
  0
ARC
  8
APS_GEOMETRY
 10
1268.407
 20
278.037
 40
0.479
 50
38.047
 51
46.56
  0
ARC
  8
APS_GEOMETRY
 10
1268.341
 20
277.967
 40
0.576
 50
46.56
 51
54.324
  0
ARC
  8
APS_GEOMETRY
 10
1268.302
 20
277.901
 40
0.652
 50
54.968
 51
71.48
  0
ARC
  8
APS_GEOMETRY
 10
1268.345
 20
278.027
 40
0.519
 50
71.48
 51
90.0
  0
ARC
  8
APS_GEOMETRY
 10
1268.345
 20
278.183
 40
0.363
 50
90.0
 51
114.63
  0
ARC
  8
APS_GEOMETRY
 10
1268.326
 20
278.223
 40
0.319
 50
114.63
 51
140.921
  0
ARC
  8
APS_GEOMETRY
 10
1268.38
 20
278.179
 40
0.388
 50
140.921
 51
163.13
  0
ARC
  8
APS_GEOMETRY
 10
1268.649
 20
278.098
 40
0.669
 50
163.13
 51
180.0
  0
ARC
  8
APS_GEOMETRY
 10
1268.998
 20
278.098
 40
1.018
 50
180.0
 51
195.44
  0
ARC
  8
APS_GEOMETRY
 10
1268.945
 20
278.083
 40
0.963
 50
195.44
 51
211.316
  0
ARC
  8
APS_GEOMETRY
 10
1268.69
 20
277.934
 40
0.668
 50
211.708
 51
240.457
  0
ARC
  8
APS_GEOMETRY
 10
1268.673
 20
277.903
 40
0.633
 50
240.457
 51
270.0
  0
ARC
  8
APS_GEOMETRY
 10
1268.673
 20
278.058
 40
0.788
 50
270.0
 51
279.549
  0
ARC
  8
APS_GEOMETRY
 10
1268.663
 20
278.116
 40
0.847
 50
279.549
 51
288.759
  0
ARC
  8
APS_GEOMETRY
 10
1268.705
 20
277.995
 40
0.718
 50
288.759
 51
299.545
  0
ARC
  8
APS_GEOMETRY
 10
1268.87
 20
277.703
 40
0.383
 50
299.545
 51
314.341
  0
ARC
  8
APS_GEOMETRY
 10
1269.382
 20
277.171
 40
0.355
 50
120.141
 51
133.452
  0
ARC
  8
APS_GEOMETRY
 10
1269.239
 20
277.417
 40
0.071
 50
90.0
 51
120.141
  0
ARC
  8
APS_GEOMETRY
 10
1269.239
 20
277.376
 40
0.111
 50
61.952
 51
90.0
  0
ARC
  8
APS_GEOMETRY
 10
1269.222
 20
277.345
 40
0.147
 50
37.569
 51
61.952
  0
ARC
  8
APS_GEOMETRY
 10
1269.191
 20
277.321
 40
0.186
 50
17.665
 51
37.569
  0
ARC
  8
APS_GEOMETRY
 10
1269.144
 20
277.306
 40
0.235
 50
360.0
 51
17.665
  0
ARC
  8
APS_GEOMETRY
 10
1269.026
 20
277.306
 40
0.354
 50
344.932
 51
0.0
  0
ARC
  8
APS_GEOMETRY
 10
1268.711
 20
277.391
 40
0.68
 50
334.075
 51
344.932
  0
ARC
  8
APS_GEOMETRY
 10
1268.701
 20
277.396
 40
0.691
 50
323.374
 51
334.075
  0
ARC
  8
APS_GEOMETRY
 10
1268.904
 20
277.245
 40
0.438
 50
309.92
 51
323.374
  0
ARC
  8
APS_GEOMETRY
 10
1269.107
 20
277.005
 40
0.124
 50
289.026
 51
308.991
  0
ARC
  8
APS_GEOMETRY
 10
1268.89
 20
277.634
 40
0.789
 50
281.143
 51
289.026
  0
ARC
  8
APS_GEOMETRY
 10
1269.11
 20
276.495
 40
0.372
 50
100.437
 51
110.12
  0
ARC
  8
APS_GEOMETRY
 10
1269.401
 20
275.7
 40
1.218
 50
110.12
 51
115.463
  0
ARC
  8
APS_GEOMETRY
 10
1268.362
 20
277.874
 40
1.192
 50
282.94
 51
295.628
  0
ARC
  8
APS_GEOMETRY
 10
1268.372
 20
277.829
 40
1.146
 50
270.0
 51
282.94
  0
ARC
  8
APS_GEOMETRY
 10
1268.372
 20
277.897
 40
1.214
 50
257.307
 51
270.0
  0
ARC
  8
APS_GEOMETRY
 10
1268.424
 20
278.125
 40
1.447
 50
245.686
 51
257.307
  0
ARC
  8
APS_GEOMETRY
 10
1268.295
 20
277.842
 40
1.137
 50
228.801
 51
245.735
  0
ARC
  8
APS_GEOMETRY
 10
1268.297
 20
277.845
 40
1.14
 50
211.891
 51
228.801
  0
ARC
  8
APS_GEOMETRY
 10
1268.365
 20
277.893
 40
1.223
 50
196.728
 51
212.152
  0
ARC
  8
APS_GEOMETRY
 10
1268.19
 20
277.841
 40
1.041
 50
180.0
 51
196.728
  0
ARC
  8
APS_GEOMETRY
 10
1268.216
 20
277.841
 40
1.066
 50
161.184
 51
180.0
  0
ARC
  8
APS_GEOMETRY
 10
1268.284
 20
277.818
 40
1.139
 50
142.98
 51
161.184
  0
ARC
  8
APS_GEOMETRY
 10
1268.337
 20
277.777
 40
1.206
 50
127.824
 51
142.958
  0
ARC
  8
APS_GEOMETRY
 10
1268.425
 20
277.664
 40
1.349
 50
113.52
 51
127.824
  0
ARC
  8
APS_GEOMETRY
 10
1268.396
 20
277.73
 40
1.277
 50
101.927
 51
113.527
  0
ARC
  8
APS_GEOMETRY
 10
1268.382
 20
277.797
 40
1.208
 50
90.0
 51
101.927
  0
ARC
  8
APS_GEOMETRY
 10
1270.906
 20
277.716
 40
1.289
 50
71.91
 51
90.0
  0
ARC
  8
APS_GEOMETRY
 10
1270.956
 20
277.869
 40
1.128
 50
52.561
 51
71.91
  0
ARC
  8
APS_GEOMETRY
 10
1270.943
 20
277.865
 40
1.139
 50
38.846
 51
52.156
  0
ARC
  8
APS_GEOMETRY
 10
1270.764
 20
277.721
 40
1.369
 50
26.707
 51
38.846
  0
ARC
  8
APS_GEOMETRY
 10
1270.8
 20
277.75
 40
1.324
 50
13.868
 51
26.278
  0
ARC
  8
APS_GEOMETRY
 10
1271.055
 20
277.813
 40
1.061
 50
360.0
 51
13.868
  0
ARC
  8
APS_GEOMETRY
 10
1271.071
 20
277.813
 40
1.045
 50
339.712
 51
360.0
  0
ARC
  8
APS_GEOMETRY
 10
1271.012
 20
277.835
 40
1.108
 50
320.013
 51
339.712
  0
ARC
  8
APS_GEOMETRY
 10
1271.003
 20
277.84
 40
1.119
 50
303.344
 51
320.123
  0
ARC
  8
APS_GEOMETRY
 10
1270.888
 20
278.015
 40
1.327
 50
287.949
 51
303.344
  0
ARC
  8
APS_GEOMETRY
 10
1270.85
 20
278.146
 40
1.463
 50
279.039
 51
287.776
  0
ARC
  8
APS_GEOMETRY
 10
1270.865
 20
278.051
 40
1.367
 50
270.0
 51
279.039
  0
ARC
  8
APS_GEOMETRY
 10
1270.865
 20
277.984
 40
1.301
 50
257.728
 51
270.0
  0
ARC
  8
APS_GEOMETRY
 10
1270.867
 20
277.993
 40
1.31
 50
245.501
 51
257.728
  0
ARC
  8
APS_GEOMETRY
 10
1270.794
 20
277.832
 40
1.133
 50
228.665
 51
245.511
  0
ARC
  8
APS_GEOMETRY
 10
1270.769
 20
277.804
 40
1.096
 50
211.535
 51
228.665
  0
ARC
  8
APS_GEOMETRY
 10
1270.801
 20
277.828
 40
1.136
 50
195.642
 51
211.701
  0
ARC
  8
APS_GEOMETRY
 10
1270.86
 20
277.844
 40
1.197
 50
180.0
 51
195.642
  0
ARC
  8
APS_GEOMETRY
 10
1270.873
 20
277.844
 40
1.209
 50
162.181
 51
180.0
  0
ARC
  8
APS_GEOMETRY
 10
1270.762
 20
277.88
 40
1.093
 50
143.434
 51
162.181
  0
ARC
  8
APS_GEOMETRY
 10
1270.747
 20
277.892
 40
1.074
 50
126.384
 51
143.471
  0
ARC
  8
APS_GEOMETRY
 10
1270.849
 20
277.754
 40
1.246
 50
110.525
 51
126.384
  0
ARC
  8
APS_GEOMETRY
 10
1270.844
 20
277.791
 40
1.209
 50
99.77
 51
110.925
  0
ARC
  8
APS_GEOMETRY
 10
1270.906
 20
277.43
 40
1.575
 50
90.0
 51
99.77
  0
ARC
  8
APS_GEOMETRY
 10
1270.751
 20
278.296
 40
0.24
 50
90.0
 51
119.604
  0
ARC
  8
APS_GEOMETRY
 10
1270.772
 20
278.259
 40
0.283
 50
119.604
 51
146.842
  0
ARC
  8
APS_GEOMETRY
 10
1270.814
 20
278.224
 40
0.337
 50
145.84
 51
164.055
  0
ARC
  8
APS_GEOMETRY
 10
1270.912
 20
278.196
 40
0.439
 50
164.055
 51
180.0
  0
ARC
  8
APS_GEOMETRY
 10
1271.526
 20
278.196
 40
1.053
 50
180.0
 51
189.977
  0
ARC
  8
APS_GEOMETRY
 10
1272.458
 20
278.36
 40
2.0
 50
189.977
 51
197.211
  0
ARC
  8
APS_GEOMETRY
 10
1272.662
 20
278.423
 40
2.213
 50
197.211
 51
203.76
  0
ARC
  8
APS_GEOMETRY
 10
1272.154
 20
278.199
 40
1.658
 50
203.76
 51
211.329
  0
ARC
  8
APS_GEOMETRY
 10
1271.111
 20
277.573
 40
0.441
 50
212.32
 51
224.441
  0
ARC
  8
APS_GEOMETRY
 10
1271.068
 20
277.531
 40
0.381
 50
224.441
 51
237.484
  0
ARC
  8
APS_GEOMETRY
 10
1271.04
 20
277.488
 40
0.33
 50
237.484
 51
252.416
  0
ARC
  8
APS_GEOMETRY
 10
1271.013
 20
277.401
 40
0.238
 50
252.416
 51
270.0
  0
ARC
  8
APS_GEOMETRY
 10
1271.013
 20
277.429
 40
0.267
 50
270.0
 51
294.953
  0
ARC
  8
APS_GEOMETRY
 10
1271.02
 20
277.413
 40
0.249
 50
294.953
 51
320.793
  0
ARC
  8
APS_GEOMETRY
 10
1270.98
 20
277.446
 40
0.301
 50
320.793
 51
342.777
  0
ARC
  8
APS_GEOMETRY
 10
1270.802
 20
277.501
 40
0.487
 50
342.777
 51
0.0
  0
ARC
  8
APS_GEOMETRY
 10
1269.963
 20
277.501
 40
1.325
 50
0.0
 51
8.499
  0
ARC
  8
APS_GEOMETRY
 10
1269.38
 20
277.414
 40
1.915
 50
8.499
 51
15.566
  0
ARC
  8
APS_GEOMETRY
 10
1269.45
 20
277.433
 40
1.842
 50
15.566
 51
22.909
  0
ARC
  8
APS_GEOMETRY
 10
1270.053
 20
277.688
 40
1.188
 50
22.909
 51
32.057
  0
ARC
  8
APS_GEOMETRY
 10
1270.527
 20
277.987
 40
0.628
 50
31.921
 51
42.51
  0
ARC
  8
APS_GEOMETRY
 10
1270.657
 20
278.106
 40
0.451
 50
42.51
 51
55.008
  0
ARC
  8
APS_GEOMETRY
 10
1270.701
 20
278.169
 40
0.374
 50
55.008
 51
69.88
  0
ARC
  8
APS_GEOMETRY
 10
1270.741
 20
278.276
 40
0.26
 50
69.88
 51
87.754
  0
ARC
  8
APS_GEOMETRY
 10
1273.432
 20
277.545
 40
0.121
 50
90.0
 51
115.837
  0
ARC
  8
APS_GEOMETRY
 10
1273.402
 20
277.607
 40
0.053
 50
115.837
 51
155.462
  0
ARC
  8
APS_GEOMETRY
 10
1273.437
 20
277.591
 40
0.091
 50
155.462
 51
168.366
  0
ARC
  8
APS_GEOMETRY
 10
1273.754
 20
277.525
 40
0.415
 50
168.366
 51
174.395
  0
ARC
  8
APS_GEOMETRY
 10
1274.074
 20
277.494
 40
0.736
 50
174.395
 51
177.813
  0
ARC
  8
APS_GEOMETRY
 10
1275.135
 20
277.453
 40
1.798
 50
177.813
 51
180.0
  0
ARC
  8
APS_GEOMETRY
 10
1275.904
 20
277.453
 40
2.567
 50
180.0
 51
184.62
  0
ARC
  8
APS_GEOMETRY
 10
1274.183
 20
277.314
 40
0.84
 50
184.62
 51
192.7
  0
ARC
  8
APS_GEOMETRY
 10
1273.519
 20
277.169
 40
0.161
 50
194.036
 51
205.821
  0
ARC
  8
APS_GEOMETRY
 10
1273.449
 20
277.135
 40
0.083
 50
205.821
 51
222.274
  0
ARC
  8
APS_GEOMETRY
 10
1273.471
 20
277.154
 40
0.112
 50
222.274
 51
234.605
  0
ARC
  8
APS_GEOMETRY
 10
1273.714
 20
277.496
 40
0.531
 50
234.605
 51
240.255
  0
ARC
  8
APS_GEOMETRY
 10
1273.344
 20
276.843
 40
0.219
 50
34.592
 51
61.189
  0
ARC
  8
APS_GEOMETRY
 10
1273.417
 20
276.893
 40
0.131
 50
360.0
 51
34.592
  0
ARC
  8
APS_GEOMETRY
 10
1273.421
 20
276.893
 40
0.127
 50
318.231
 51
360.0
  0
ARC
  8
APS_GEOMETRY
 10
1273.336
 20
276.968
 40
0.241
 50
288.227
 51
318.231
  0
ARC
  8
APS_GEOMETRY
 10
1273.248
 20
277.236
 40
0.522
 50
280.377
 51
288.227
  0
ARC
  8
APS_GEOMETRY
 10
1273.095
 20
278.074
 40
1.374
 50
275.541
 51
280.377
  0
ARC
  8
APS_GEOMETRY
 10
1273.028
 20
278.756
 40
2.06
 50
272.304
 51
275.541
  0
ARC
  8
APS_GEOMETRY
 10
1272.948
 20
280.758
 40
4.063
 50
270.0
 51
272.304
  0
ARC
  8
APS_GEOMETRY
 10
1272.948
 20
279.085
 40
2.39
 50
262.811
 51
270.0
  0
ARC
  8
APS_GEOMETRY
 10
1272.733
 20
277.384
 40
0.676
 50
249.274
 51
262.811
  0
ARC
  8
APS_GEOMETRY
 10
1272.599
 20
277.028
 40
0.295
 50
221.379
 51
249.274
  0
ARC
  8
APS_GEOMETRY
 10
1272.48
 20
276.924
 40
0.137
 50
180.0
 51
221.379
  0
ARC
  8
APS_GEOMETRY
 10
1272.479
 20
276.924
 40
0.136
 50
164.055
 51
180.0
  0
ARC
  8
APS_GEOMETRY
 10
1272.422
 20
276.94
 40
0.077
 50
142.815
 51
164.055
  0
ARC
  8
APS_GEOMETRY
 10
1272.458
 20
276.913
 40
0.122
 50
129.007
 51
142.815
  0
ARC
  8
APS_GEOMETRY
 10
1272.898
 20
276.37
 40
0.821
 50
123.69
 51
129.007
  0
ARC
  8
APS_GEOMETRY
 10
1272.274
 20
277.309
 40
0.306
 50
303.389
 51
319.022
  0
ARC
  8
APS_GEOMETRY
 10
1272.357
 20
277.237
 40
0.197
 50
319.022
 51
338.575
  0
ARC
  8
APS_GEOMETRY
 10
1272.246
 20
277.28
 40
0.316
 50
338.575
 51
351.049
  0
ARC
  8
APS_GEOMETRY
 10
1270.906
 20
277.491
 40
1.673
 50
351.049
 51
356.46
  0
ARC
  8
APS_GEOMETRY
 10
1271.347
 20
277.475
 40
1.231
 50
355.972
 51
358.68
  0
ARC
  8
APS_GEOMETRY
 10
1256.838
 20
277.809
 40
15.744
 50
358.68
 51
359.437
  0
LINE
  8
APS_GEOMETRY
 10
1272.581
 11
1272.583
 20
277.654
 21
277.9
  0
LINE
  8
APS_GEOMETRY
 10
1272.583
 11
1272.583
 20
277.9
 21
278.22
  0
ARC
  8
APS_GEOMETRY
 10
1268.793
 20
278.22
 40
3.79
 50
360.0
 51
1.717
  0
ARC
  8
APS_GEOMETRY
 10
1270.821
 20
278.281
 40
1.761
 50
1.717
 51
4.236
  0
ARC
  8
APS_GEOMETRY
 10
1271.483
 20
278.33
 40
1.098
 50
4.236
 51
8.269
  0
ARC
  8
APS_GEOMETRY
 10
1272.244
 20
278.441
 40
0.329
 50
8.269
 51
15.642
  0
ARC
  8
APS_GEOMETRY
 10
1272.375
 20
278.477
 40
0.193
 50
15.642
 51
39.417
  0
ARC
  8
APS_GEOMETRY
 10
1272.378
 20
278.48
 40
0.189
 50
39.417
 51
63.435
  0
ARC
  8
APS_GEOMETRY
 10
1272.718
 20
279.184
 40
0.593
 50
236.874
 51
244.486
  0
ARC
  8
APS_GEOMETRY
 10
1272.465
 20
278.797
 40
0.131
 50
220.601
 51
236.874
  0
ARC
  8
APS_GEOMETRY
 10
1272.436
 20
278.772
 40
0.092
 50
198.246
 51
220.601
  0
ARC
  8
APS_GEOMETRY
 10
1272.479
 20
278.786
 40
0.138
 50
180.0
 51
198.246
  0
ARC
  8
APS_GEOMETRY
 10
1272.479
 20
278.786
 40
0.137
 50
156.161
 51
180.0
  0
ARC
  8
APS_GEOMETRY
 10
1272.498
 20
278.778
 40
0.158
 50
133.977
 51
156.161
  0
ARC
  8
APS_GEOMETRY
 10
1272.536
 20
278.738
 40
0.213
 50
116.996
 51
133.977
  0
ARC
  8
APS_GEOMETRY
 10
1272.612
 20
278.589
 40
0.38
 50
104.3
 51
116.996
  0
ARC
  8
APS_GEOMETRY
 10
1272.631
 20
278.514
 40
0.458
 50
95.326
 51
104.349
  0
ARC
  8
APS_GEOMETRY
 10
1272.711
 20
277.662
 40
1.314
 50
90.0
 51
95.326
  0
ARC
  8
APS_GEOMETRY
 10
1272.711
 20
278.325
 40
0.651
 50
87.553
 51
90.0
  0
ARC
  8
APS_GEOMETRY
 10
1272.572
 20
275.086
 40
3.893
 50
86.553
 51
87.553
  0
ARC
  8
APS_GEOMETRY
 10
1272.376
 20
271.818
 40
7.166
 50
86.009
 51
86.553
  0
ARC
  8
APS_GEOMETRY
 10
1271.61
 20
260.848
 40
18.164
 50
85.668
 51
86.009
  0
ARC
  8
APS_GEOMETRY
 10
1273.043
 20
279.713
 40
0.756
 50
265.426
 51
268.531
  0
ARC
  8
APS_GEOMETRY
 10
1273.11
 20
282.335
 40
3.379
 50
268.531
 51
270.0
  0
ARC
  8
APS_GEOMETRY
 10
1273.11
 20
281.532
 40
2.576
 50
270.0
 51
271.637
  0
ARC
  8
APS_GEOMETRY
 10
1273.052
 20
283.546
 40
4.591
 50
271.637
 51
272.862
  0
ARC
  8
APS_GEOMETRY
 10
1272.986
 20
284.867
 40
5.914
 50
272.862
 51
273.814
  0
ARC
  8
APS_GEOMETRY
 10
1272.762
 20
288.223
 40
9.276
 50
273.814
 51
274.574
  0
ARC
  8
APS_GEOMETRY
 10
1274.166
 20
269.973
 40
9.027
 50
93.72
 51
94.214
  0
ARC
  8
APS_GEOMETRY
 10
1273.866
 20
274.579
 40
4.412
 50
93.013
 51
93.72
  0
ARC
  8
APS_GEOMETRY
 10
1273.784
 20
276.139
 40
2.85
 50
91.918
 51
93.013
  0
ARC
  8
APS_GEOMETRY
 10
1273.72
 20
278.06
 40
0.928
 50
90.0
 51
91.918
  0
ARC
  8
APS_GEOMETRY
 10
1273.72
 20
277.782
 40
1.205
 50
73.82
 51
90.0
  0
ARC
  8
APS_GEOMETRY
 10
1273.839
 20
278.191
 40
0.779
 50
53.658
 51
73.82
  0
ARC
  8
APS_GEOMETRY
 10
1274.007
 20
278.422
 40
0.493
 50
26.03
 51
53.569
  0
ARC
  8
APS_GEOMETRY
 10
1273.956
 20
278.397
 40
0.551
 50
360.0
 51
26.03
  0
ARC
  8
APS_GEOMETRY
 10
1273.934
 20
278.397
 40
0.572
 50
345.282
 51
360.0
  0
ARC
  8
APS_GEOMETRY
 10
1273.989
 20
278.382
 40
0.515
 50
329.767
 51
345.282
  0
ARC
  8
APS_GEOMETRY
 10
1274.02
 20
278.364
 40
0.479
 50
313.168
 51
329.767
  0
ARC
  8
APS_GEOMETRY
 10
1274.032
 20
278.352
 40
0.462
 50
296.267
 51
313.168
  0
ARC
  8
APS_GEOMETRY
 10
1274.295
 20
277.82
 40
0.131
 50
116.565
 51
139.899
  0
ARC
  8
APS_GEOMETRY
 10
1274.23
 20
277.875
 40
0.046
 50
139.899
 51
180.0
  0
ARC
  8
APS_GEOMETRY
 10
1274.235
 20
277.875
 40
0.051
 50
180.0
 51
226.193
  0
ARC
  8
APS_GEOMETRY
 10
1274.328
 20
277.973
 40
0.186
 50
226.193
 51
249.829
  0
ARC
  8
APS_GEOMETRY
 10
1274.06
 20
277.235
 40
0.599
 50
53.249
 51
70.105
  0
ARC
  8
APS_GEOMETRY
 10
1274.182
 20
277.398
 40
0.396
 50
32.471
 51
53.249
  0
ARC
  8
APS_GEOMETRY
 10
1274.125
 20
277.362
 40
0.463
 50
23.305
 51
32.471
  0
ARC
  8
APS_GEOMETRY
 10
1273.775
 20
277.211
 40
0.845
 50
16.521
 51
23.305
  0
ARC
  8
APS_GEOMETRY
 10
1273.501
 20
277.13
 40
1.13
 50
11.429
 51
16.521
  0
ARC
  8
APS_GEOMETRY
 10
1272.727
 20
276.973
 40
1.92
 50
7.524
 51
11.429
  0
ARC
  8
APS_GEOMETRY
 10
1275.293
 20
277.315
 40
0.669
 50
187.765
 51
196.914
  0
ARC
  8
APS_GEOMETRY
 10
1274.746
 20
277.149
 40
0.097
 50
196.914
 51
221.082
  0
ARC
  8
APS_GEOMETRY
 10
1274.748
 20
277.15
 40
0.1
 50
221.082
 51
244.607
  0
ARC
  8
APS_GEOMETRY
 10
1274.982
 20
277.643
 40
0.645
 50
244.607
 51
253.811
  0
ARC
  8
APS_GEOMETRY
 10
1274.777
 20
276.942
 40
0.085
 50
51.45
 51
72.474
  0
ARC
  8
APS_GEOMETRY
 10
1274.755
 20
276.916
 40
0.119
 50
33.69
 51
51.45
  0
ARC
  8
APS_GEOMETRY
 10
1274.75
 20
276.912
 40
0.125
 50
16.639
 51
33.69
  0
ARC
  8
APS_GEOMETRY
 10
1274.745
 20
276.911
 40
0.131
 50
360.0
 51
16.639
  0
ARC
  8
APS_GEOMETRY
 10
1274.743
 20
276.911
 40
0.133
 50
338.993
 51
360.0
  0
ARC
  8
APS_GEOMETRY
 10
1274.661
 20
276.942
 40
0.22
 50
322.696
 51
338.993
  0
ARC
  8
APS_GEOMETRY
 10
1274.631
 20
276.965
 40
0.258
 50
308.603
 51
322.696
  0
ARC
  8
APS_GEOMETRY
 10
1274.61
 20
276.991
 40
0.292
 50
295.346
 51
308.603
  0
ARC
  8
APS_GEOMETRY
 10
1274.501
 20
277.232
 40
0.557
 50
279.583
 51
294.905
  0
ARC
  8
APS_GEOMETRY
 10
1274.357
 20
278.081
 40
1.418
 50
270.0
 51
279.583
  0
ARC
  8
APS_GEOMETRY
 10
1274.357
 20
277.697
 40
1.034
 50
261.247
 51
270.0
  0
ARC
  8
APS_GEOMETRY
 10
1274.291
 20
277.267
 40
0.598
 50
249.737
 51
261.247
  0
ARC
  8
APS_GEOMETRY
 10
1274.248
 20
277.149
 40
0.473
 50
235.345
 51
249.737
  0
ARC
  8
APS_GEOMETRY
 10
1274.193
 20
277.07
 40
0.376
 50
219.198
 51
235.345
  0
ARC
  8
APS_GEOMETRY
 10
1274.308
 20
277.168
 40
0.528
 50
209.076
 51
219.56
  0
ARC
  8
APS_GEOMETRY
 10
1274.575
 20
277.317
 40
0.834
 50
200.735
 51
209.076
  0
ARC
  8
APS_GEOMETRY
 10
1274.944
 20
277.456
 40
1.228
 50
197.881
 51
200.735
  0
ARC
  8
APS_GEOMETRY
 10
1276.458
 20
277.945
 40
2.819
 50
195.997
 51
197.881
  0
ARC
  8
APS_GEOMETRY
 10
1277.577
 20
278.266
 40
3.983
 50
194.664
 51
195.997
  0
ARC
  8
APS_GEOMETRY
 10
1280.677
 20
279.077
 40
7.187
 50
193.671
 51
194.664
  0
ARC
  8
APS_GEOMETRY
 10
1272.816
 20
277.166
 40
0.903
 50
13.61
 51
23.585
  0
ARC
  8
APS_GEOMETRY
 10
1273.407
 20
277.424
 40
0.258
 50
23.585
 51
42.31
  0
ARC
  8
APS_GEOMETRY
 10
1273.461
 20
277.473
 40
0.185
 50
42.31
 51
67.521
  0
ARC
  8
APS_GEOMETRY
 10
1273.418
 20
277.37
 40
0.296
 50
67.521
 51
87.397
  0
LINE
  8
APS_GEOMETRY
 10
1273.339
 11
1273.321
 20
278.5
 21
278.119
  0
LINE
  8
APS_GEOMETRY
 10
1273.321
 11
1273.321
 20
278.119
 21
278.113
  0
LINE
  8
APS_GEOMETRY
 10
1273.321
 11
1273.321
 20
278.113
 21
278.104
  0
ARC
  8
APS_GEOMETRY
 10
1273.585
 20
278.104
 40
0.265
 50
180.0
 51
192.339
  0
ARC
  8
APS_GEOMETRY
 10
1273.375
 20
278.058
 40
0.049
 50
192.339
 51
221.186
  0
ARC
  8
APS_GEOMETRY
 10
1273.37
 20
278.054
 40
0.043
 50
221.186
 51
253.872
  0
ARC
  8
APS_GEOMETRY
 10
1273.406
 20
278.178
 40
0.171
 50
253.872
 51
270.0
  0
ARC
  8
APS_GEOMETRY
 10
1273.406
 20
278.405
 40
0.399
 50
270.0
 51
289.569
  0
ARC
  8
APS_GEOMETRY
 10
1273.478
 20
278.201
 40
0.182
 50
289.569
 51
318.681
  0
ARC
  8
APS_GEOMETRY
 10
1273.459
 20
278.218
 40
0.208
 50
318.681
 51
344.628
  0
ARC
  8
APS_GEOMETRY
 10
1273.093
 20
278.318
 40
0.587
 50
344.628
 51
0.0
  0
ARC
  8
APS_GEOMETRY
 10
1273.267
 20
278.318
 40
0.413
 50
0.0
 51
35.369
  0
ARC
  8
APS_GEOMETRY
 10
1273.456
 20
278.453
 40
0.181
 50
35.369
 51
90.0
  0
ARC
  8
APS_GEOMETRY
 10
1273.456
 20
278.451
 40
0.183
 50
90.0
 51
108.435
  0
ARC
  8
APS_GEOMETRY
 10
1273.421
 20
278.558
 40
0.07
 50
108.435
 51
138.366
  0
ARC
  8
APS_GEOMETRY
 10
1273.43
 20
278.549
 40
0.083
 50
138.366
 51
164.291
  0
ARC
  8
APS_GEOMETRY
 10
1273.655
 20
278.486
 40
0.316
 50
164.291
 51
177.51
  0
LINE
  8
APS_GEOMETRY
 10
1276.25
 11
1277.064
 20
278.881
 21
278.168
  0
ARC
  8
APS_GEOMETRY
 10
1277.826
 20
279.042
 40
1.159
 50
228.93
 51
232.674
  0
ARC
  8
APS_GEOMETRY
 10
1277.402
 20
278.486
 40
0.461
 50
232.674
 51
238.617
  0
ARC
  8
APS_GEOMETRY
 10
1277.295
 20
278.312
 40
0.256
 50
238.617
 51
249.131
  0
ARC
  8
APS_GEOMETRY
 10
1277.227
 20
278.134
 40
0.065
 50
249.131
 51
270.0
  0
ARC
  8
APS_GEOMETRY
 10
1277.227
 20
278.126
 40
0.057
 50
270.0
 51
334.898
  0
ARC
  8
APS_GEOMETRY
 10
1276.963
 20
278.25
 40
0.35
 50
334.898
 51
0.0
  0
ARC
  8
APS_GEOMETRY
 10
1274.401
 20
278.25
 40
2.911
 50
360.0
 51
2.026
  0
ARC
  8
APS_GEOMETRY
 10
1275.945
 20
278.304
 40
1.366
 50
2.026
 51
4.984
  0
ARC
  8
APS_GEOMETRY
 10
1276.45
 20
278.348
 40
0.859
 50
4.984
 51
9.673
  0
ARC
  8
APS_GEOMETRY
 10
1277.032
 20
278.448
 40
0.269
 50
9.673
 51
18.06
  0
ARC
  8
APS_GEOMETRY
 10
1277.121
 20
278.477
 40
0.176
 50
18.06
 51
42.397
  0
ARC
  8
APS_GEOMETRY
 10
1277.092
 20
278.45
 40
0.214
 50
42.397
 51
64.398
  0
ARC
  8
APS_GEOMETRY
 10
1277.353
 20
278.99
 40
0.385
 50
233.633
 51
244.026
  0
ARC
  8
APS_GEOMETRY
 10
1277.211
 20
278.797
 40
0.145
 50
216.656
 51
233.633
  0
ARC
  8
APS_GEOMETRY
 10
1277.189
 20
278.78
 40
0.118
 50
196.082
 51
216.656
  0
ARC
  8
APS_GEOMETRY
 10
1277.261
 20
278.801
 40
0.192
 50
180.0
 51
196.082
  0
ARC
  8
APS_GEOMETRY
 10
1277.208
 20
278.801
 40
0.139
 50
133.202
 51
180.0
  0
ARC
  8
APS_GEOMETRY
 10
1277.318
 20
278.684
 40
0.3
 50
101.788
 51
133.202
  0
ARC
  8
APS_GEOMETRY
 10
1277.344
 20
278.569
 40
0.418
 50
96.633
 51
102.011
  0
ARC
  8
APS_GEOMETRY
 10
1277.437
 20
277.77
 40
1.222
 50
93.489
 51
96.633
  0
ARC
  8
APS_GEOMETRY
 10
1277.477
 20
277.117
 40
1.877
 50
91.439
 51
93.489
  0
ARC
  8
APS_GEOMETRY
 10
1277.525
 20
275.187
 40
3.807
 50
90.0
 51
91.439
  0
ARC
  8
APS_GEOMETRY
 10
1277.525
 20
275.446
 40
3.548
 50
87.994
 51
90.0
  0
ARC
  8
APS_GEOMETRY
 10
1277.59
 20
277.288
 40
1.705
 50
85.101
 51
87.994
  0
ARC
  8
APS_GEOMETRY
 10
1277.642
 20
277.898
 40
1.092
 50
80.595
 51
85.101
  0
ARC
  8
APS_GEOMETRY
 10
1277.761
 20
278.619
 40
0.361
 50
72.759
 51
80.595
  0
ARC
  8
APS_GEOMETRY
 10
1277.797
 20
278.731
 40
0.244
 50
40.956
 51
73.072
  0
ARC
  8
APS_GEOMETRY
 10
1277.866
 20
278.791
 40
0.152
 50
360.0
 51
40.956
  0
ARC
  8
APS_GEOMETRY
 10
1277.876
 20
278.791
 40
0.143
 50
322.573
 51
360.0
  0
ARC
  8
APS_GEOMETRY
 10
1277.8
 20
278.849
 40
0.238
 50
293.749
 51
322.573
  0
ARC
  8
APS_GEOMETRY
 10
1278.103
 20
278.155
 40
0.519
 50
113.429
 51
119.291
  0
ARC
  8
APS_GEOMETRY
 10
1277.901
 20
278.515
 40
0.106
 50
119.291
 51
132.274
  0
ARC
  8
APS_GEOMETRY
 10
1277.889
 20
278.527
 40
0.089
 50
132.274
 51
147.653
  0
ARC
  8
APS_GEOMETRY
 10
1277.973
 20
278.474
 40
0.188
 50
147.653
 51
158.199
  0
ARC
  8
APS_GEOMETRY
 10
1278.101
 20
278.42
 40
0.327
 50
157.751
 51
167.885
  0
ARC
  8
APS_GEOMETRY
 10
1278.782
 20
278.274
 40
1.024
 50
167.885
 51
173.61
  0
ARC
  8
APS_GEOMETRY
 10
1279.384
 20
278.207
 40
1.63
 50
173.61
 51
177.221
  0
ARC
  8
APS_GEOMETRY
 10
1281.242
 20
278.116
 40
3.49
 50
177.221
 51
179.689
  0
LINE
  8
APS_GEOMETRY
 10
1277.752
 11
1277.752
 20
278.135
 21
277.602
  0
ARC
  8
APS_GEOMETRY
 10
1299.521
 20
277.602
 40
21.768
 50
180.0
 51
180.161
  0
ARC
  8
APS_GEOMETRY
 10
1318.412
 20
277.655
 40
40.659
 50
180.161
 51
180.279
  0
LINE
  8
APS_GEOMETRY
 10
1277.753
 11
1277.753
 20
277.457
 21
277.368
  0
LINE
  8
APS_GEOMETRY
 10
1277.753
 11
1277.754
 20
277.368
 21
277.267
  0
ARC
  8
APS_GEOMETRY
 10
1273.87
 20
277.245
 40
3.884
 50
358.204
 51
0.326
  0
ARC
  8
APS_GEOMETRY
 10
1275.718
 20
277.187
 40
2.036
 50
355.274
 51
358.204
  0
ARC
  8
APS_GEOMETRY
 10
1276.361
 20
277.134
 40
1.39
 50
350.991
 51
355.274
  0
ARC
  8
APS_GEOMETRY
 10
1277.18
 20
277.004
 40
0.561
 50
344.249
 51
350.991
  0
ARC
  8
APS_GEOMETRY
 10
1277.456
 20
276.925
 40
0.273
 50
314.415
 51
344.445
  0
ARC
  8
APS_GEOMETRY
 10
1277.558
 20
276.822
 40
0.128
 50
270.0
 51
314.415
  0
ARC
  8
APS_GEOMETRY
 10
1277.558
 20
276.901
 40
0.208
 50
256.342
 51
270.0
  0
ARC
  8
APS_GEOMETRY
 10
1277.543
 20
276.84
 40
0.145
 50
239.982
 51
256.342
  0
ARC
  8
APS_GEOMETRY
 10
1277.608
 20
276.952
 40
0.275
 50
231.153
 51
239.982
  0
ARC
  8
APS_GEOMETRY
 10
1278.695
 20
278.302
 40
2.008
 50
227.891
 51
231.153
  0
LINE
  8
APS_GEOMETRY
 10
1277.348
 11
1276.379
 20
276.812
 21
277.681
  0
ARC
  8
APS_GEOMETRY
 10
1276.005
 20
277.267
 40
0.557
 50
47.911
 51
61.468
  0
ARC
  8
APS_GEOMETRY
 10
1276.21
 20
277.644
 40
0.128
 50
61.468
 51
90.0
  0
ARC
  8
APS_GEOMETRY
 10
1276.21
 20
277.716
 40
0.056
 50
90.0
 51
133.195
  0
ARC
  8
APS_GEOMETRY
 10
1276.266
 20
277.658
 40
0.137
 50
133.195
 51
160.454
  0
ARC
  8
APS_GEOMETRY
 10
1276.443
 20
277.595
 40
0.325
 50
160.454
 51
173.251
  0
ARC
  8
APS_GEOMETRY
 10
1277.276
 20
277.496
 40
1.164
 50
173.251
 51
180.0
  0
ARC
  8
APS_GEOMETRY
 10
1279.543
 20
277.496
 40
3.431
 50
180.0
 51
181.897
  0
ARC
  8
APS_GEOMETRY
 10
1277.726
 20
277.436
 40
1.613
 50
181.897
 51
184.664
  0
ARC
  8
APS_GEOMETRY
 10
1277.13
 20
277.387
 40
1.015
 50
184.664
 51
189.048
  0
ARC
  8
APS_GEOMETRY
 10
1276.44
 20
277.277
 40
0.316
 50
189.048
 51
196.905
  0
ARC
  8
APS_GEOMETRY
 10
1276.331
 20
277.244
 40
0.202
 50
196.905
 51
220.253
  0
ARC
  8
APS_GEOMETRY
 10
1276.333
 20
277.246
 40
0.205
 50
220.253
 51
243.435
  0
ARC
  8
APS_GEOMETRY
 10
1276.133
 20
276.843
 40
0.245
 50
37.921
 51
63.778
  0
ARC
  8
APS_GEOMETRY
 10
1276.235
 20
276.922
 40
0.116
 50
360.0
 51
37.921
  0
ARC
  8
APS_GEOMETRY
 10
1276.19
 20
276.922
 40
0.161
 50
324.268
 51
360.0
  0
ARC
  8
APS_GEOMETRY
 10
1276.129
 20
276.965
 40
0.236
 50
294.86
 51
324.268
  0
ARC
  8
APS_GEOMETRY
 10
1276.029
 20
277.181
 40
0.473
 50
278.78
 51
294.86
  0
ARC
  8
APS_GEOMETRY
 10
1275.86
 20
278.275
 40
1.58
 50
270.0
 51
278.78
  0
ARC
  8
APS_GEOMETRY
 10
1275.86
 20
277.991
 40
1.297
 50
260.383
 51
270.0
  0
ARC
  8
APS_GEOMETRY
 10
1275.724
 20
277.185
 40
0.479
 50
244.522
 51
260.383
  0
ARC
  8
APS_GEOMETRY
 10
1275.625
 20
276.977
 40
0.249
 50
216.549
 51
244.522
  0
ARC
  8
APS_GEOMETRY
 10
1275.544
 20
276.917
 40
0.148
 50
180.0
 51
216.549
  0
ARC
  8
APS_GEOMETRY
 10
1275.596
 20
276.917
 40
0.2
 50
164.65
 51
180.0
  0
ARC
  8
APS_GEOMETRY
 10
1275.482
 20
276.948
 40
0.082
 50
140.528
 51
164.65
  0
ARC
  8
APS_GEOMETRY
 10
1275.528
 20
276.91
 40
0.142
 50
126.135
 51
140.528
  0
ARC
  8
APS_GEOMETRY
 10
1276.011
 20
276.249
 40
0.96
 50
120.619
 51
126.135
  0
ARC
  8
APS_GEOMETRY
 10
1275.439
 20
277.215
 40
0.163
 50
300.784
 51
330.068
  0
ARC
  8
APS_GEOMETRY
 10
1275.331
 20
277.278
 40
0.287
 50
330.068
 51
351.983
  0
ARC
  8
APS_GEOMETRY
 10
1273.512
 20
277.515
 40
2.121
 50
352.493
 51
355.365
  0
ARC
  8
APS_GEOMETRY
 10
1271.319
 20
277.693
 40
4.321
 50
355.365
 51
357.376
  0
ARC
  8
APS_GEOMETRY
 10
1269.784
 20
277.763
 40
5.859
 50
357.376
 51
358.861
  0
ARC
  8
APS_GEOMETRY
 10
1265.692
 20
277.844
 40
9.951
 50
358.861
 51
0.0
  0
ARC
  8
APS_GEOMETRY
 10
1269.372
 20
277.844
 40
6.271
 50
360.0
 51
1.926
  0
ARC
  8
APS_GEOMETRY
 10
1272.291
 20
277.942
 40
3.35
 50
1.926
 51
4.562
  0
ARC
  8
APS_GEOMETRY
 10
1273.32
 20
278.025
 40
2.318
 50
4.562
 51
8.366
  0
ARC
  8
APS_GEOMETRY
 10
1274.659
 20
278.221
 40
0.964
 50
8.366
 51
14.265
  0
ARC
  8
APS_GEOMETRY
 10
1275.166
 20
278.349
 40
0.442
 50
14.349
 51
23.629
  0
ARC
  8
APS_GEOMETRY
 10
1275.422
 20
278.462
 40
0.162
 50
23.629
 51
38.991
  0
ARC
  8
APS_GEOMETRY
 10
1275.423
 20
278.463
 40
0.161
 50
38.991
 51
54.462
  0
ARC
  8
APS_GEOMETRY
 10
1275.273
 20
278.252
 40
0.419
 50
54.462
 51
64.026
  0
ARC
  8
APS_GEOMETRY
 10
1275.697
 20
279.121
 40
0.547
 50
235.472
 51
243.947
  0
ARC
  8
APS_GEOMETRY
 10
1275.478
 20
278.802
 40
0.161
 50
219.806
 51
235.472
  0
ARC
  8
APS_GEOMETRY
 10
1275.445
 20
278.775
 40
0.118
 50
198.939
 51
219.806
  0
ARC
  8
APS_GEOMETRY
 10
1275.468
 20
278.783
 40
0.143
 50
180.0
 51
198.939
  0
ARC
  8
APS_GEOMETRY
 10
1275.461
 20
278.783
 40
0.136
 50
126.254
 51
180.0
  0
ARC
  8
APS_GEOMETRY
 10
1275.668
 20
278.501
 40
0.486
 50
98.616
 51
126.254
  0
ARC
  8
APS_GEOMETRY
 10
1275.697
 20
278.267
 40
0.72
 50
94.456
 51
98.13
  0
ARC
  8
APS_GEOMETRY
 10
1275.81
 20
276.825
 40
2.167
 50
92.337
 51
94.456
  0
ARC
  8
APS_GEOMETRY
 10
1275.858
 20
275.651
 40
3.342
 50
90.963
 51
92.337
  0
ARC
  8
APS_GEOMETRY
 10
1275.916
 20
272.183
 40
6.81
 50
90.0
 51
90.963
  0
ARC
  8
APS_GEOMETRY
 10
1275.916
 20
277.753
 40
1.241
 50
83.928
 51
90.0
  0
ARC
  8
APS_GEOMETRY
 10
1276.018
 20
278.71
 40
0.279
 50
71.095
 51
83.928
  0
ARC
  8
APS_GEOMETRY
 10
1276.027
 20
278.737
 40
0.25
 50
56.848
 51
71.095
  0
ARC
  8
APS_GEOMETRY
 10
1275.752
 20
278.315
 40
0.753
 50
48.652
 51
56.848
  0
ARC
  8
APS_GEOMETRY
 10
1279.19
 20
276.963
 40
2.03
 50
84.71
 51
90.0
  0
ARC
  8
APS_GEOMETRY
 10
1279.227
 20
277.365
 40
1.627
 50
78.799
 51
84.71
  0
ARC
  8
APS_GEOMETRY
 10
1279.468
 20
278.583
 40
0.386
 50
49.783
 51
78.771
  0
ARC
  8
APS_GEOMETRY
 10
1279.629
 20
278.773
 40
0.136
 50
360.0
 51
49.783
  0
ARC
  8
APS_GEOMETRY
 10
1279.615
 20
278.773
 40
0.151
 50
342.759
 51
360.0
  0
ARC
  8
APS_GEOMETRY
 10
1279.693
 20
278.749
 40
0.069
 50
317.045
 51
342.759
  0
ARC
  8
APS_GEOMETRY
 10
1279.655
 20
278.784
 40
0.12
 50
301.817
 51
317.045
  0
ARC
  8
APS_GEOMETRY
 10
1279.093
 20
279.691
 40
1.188
 50
296.98
 51
301.817
  0
ARC
  8
APS_GEOMETRY
 10
1279.693
 20
278.51
 40
0.137
 50
116.565
 51
149.078
  0
ARC
  8
APS_GEOMETRY
 10
1279.869
 20
278.405
 40
0.342
 50
149.078
 51
169.469
  0
ARC
  8
APS_GEOMETRY
 10
1280.244
 20
278.335
 40
0.723
 50
169.469
 51
174.598
  0
ARC
  8
APS_GEOMETRY
 10
1282.177
 20
278.152
 40
2.665
 50
174.598
 51
177.269
  0
ARC
  8
APS_GEOMETRY
 10
1283.877
 20
278.071
 40
4.367
 50
177.269
 51
178.901
  0
ARC
  8
APS_GEOMETRY
 10
1289.142
 20
277.97
 40
9.633
 50
178.901
 51
180.0
  0
ARC
  8
APS_GEOMETRY
 10
1299.842
 20
277.97
 40
20.333
 50
180.0
 51
180.88
  0
ARC
  8
APS_GEOMETRY
 10
1287.316
 20
277.778
 40
7.805
 50
180.88
 51
182.3
  0
ARC
  8
APS_GEOMETRY
 10
1283.654
 20
277.631
 40
4.141
 50
182.3
 51
184.974
  0
ARC
  8
APS_GEOMETRY
 10
1280.163
 20
277.327
 40
0.637
 50
184.974
 51
191.793
  0
ARC
  8
APS_GEOMETRY
 10
1279.758
 20
277.249
 40
0.224
 50
193.57
 51
205.787
  0
ARC
  8
APS_GEOMETRY
 10
1279.657
 20
277.201
 40
0.112
 50
205.787
 51
223.091
  0
ARC
  8
APS_GEOMETRY
 10
1279.683
 20
277.225
 40
0.147
 50
223.091
 51
236.441
  0
ARC
  8
APS_GEOMETRY
 10
1279.897
 20
277.547
 40
0.535
 50
236.441
 51
243.435
  0
ARC
  8
APS_GEOMETRY
 10
1279.569
 20
276.874
 40
0.215
 50
37.185
 51
65.556
  0
ARC
  8
APS_GEOMETRY
 10
1279.639
 20
276.927
 40
0.127
 50
0.0
 51
37.185
  0
ARC
  8
APS_GEOMETRY
 10
1279.635
 20
276.927
 40
0.131
 50
312.039
 51
360.0
  0
ARC
  8
APS_GEOMETRY
 10
1279.479
 20
277.099
 40
0.363
 50
283.815
 51
312.039
  0
ARC
  8
APS_GEOMETRY
 10
1279.222
 20
278.165
 40
1.459
 50
279.273
 51
283.627
  0
ARC
  8
APS_GEOMETRY
 10
1279.12
 20
278.794
 40
2.096
 50
275.641
 51
279.273
  0
ARC
  8
APS_GEOMETRY
 10
1279.08
 20
279.192
 40
2.496
 50
272.588
 51
275.641
  0
ARC
  8
APS_GEOMETRY
 10
1279.036
 20
280.168
 40
3.473
 50
270.0
 51
272.588
  0
ARC
  8
APS_GEOMETRY
 10
1279.036
 20
278.789
 40
2.095
 50
262.774
 51
270.0
  0
ARC
  8
APS_GEOMETRY
 10
1278.847
 20
277.3
 40
0.593
 50
249.175
 51
262.774
  0
ARC
  8
APS_GEOMETRY
 10
1278.729
 20
276.988
 40
0.26
 50
221.23
 51
249.175
  0
ARC
  8
APS_GEOMETRY
 10
1278.625
 20
276.897
 40
0.122
 50
180.0
 51
221.23
  0
ARC
  8
APS_GEOMETRY
 10
1278.605
 20
276.897
 40
0.102
 50
142.696
 51
180.0
  0
ARC
  8
APS_GEOMETRY
 10
1278.766
 20
276.775
 40
0.305
 50
121.357
 51
142.696
  0
ARC
  8
APS_GEOMETRY
 10
1278.494
 20
277.221
 40
0.218
 50
301.477
 51
324.728
  0
ARC
  8
APS_GEOMETRY
 10
1278.523
 20
277.2
 40
0.182
 50
324.728
 51
350.181
  0
ARC
  8
APS_GEOMETRY
 10
1277.611
 20
277.351
 40
1.107
 50
350.538
 51
355.423
  0
ARC
  8
APS_GEOMETRY
 10
1273.864
 20
277.651
 40
4.866
 50
355.423
 51
357.752
  0
ARC
  8
APS_GEOMETRY
 10
1270.384
 20
277.787
 40
8.349
 50
357.752
 51
359.111
  0
ARC
  8
APS_GEOMETRY
 10
1259.247
 20
277.96
 40
19.487
 50
359.111
 51
0.0
  0
ARC
  8
APS_GEOMETRY
 10
1271.973
 20
277.96
 40
6.761
 50
0.0
 51
1.773
  0
ARC
  8
APS_GEOMETRY
 10
1275.941
 20
278.083
 40
2.791
 50
1.773
 51
4.532
  0
ARC
  8
APS_GEOMETRY
 10
1277.147
 20
278.179
 40
1.581
 50
4.532
 51
9.384
  0
ARC
  8
APS_GEOMETRY
 10
1278.371
 20
278.381
 40
0.34
 50
9.384
 51
19.855
  0
ARC
  8
APS_GEOMETRY
 10
1278.533
 20
278.443
 40
0.167
 50
18.853
 51
42.158
  0
ARC
  8
APS_GEOMETRY
 10
1278.395
 20
278.317
 40
0.354
 50
42.158
 51
58.092
  0
ARC
  8
APS_GEOMETRY
 10
1279.006
 20
279.262
 40
0.771
 50
230.711
 51
236.634
  0
ARC
  8
APS_GEOMETRY
 10
1278.622
 20
278.792
 40
0.165
 50
217.875
 51
230.711
  0
ARC
  8
APS_GEOMETRY
 10
1278.569
 20
278.751
 40
0.098
 50
196.928
 51
217.875
  0
ARC
  8
APS_GEOMETRY
 10
1278.619
 20
278.767
 40
0.15
 50
180.0
 51
196.928
  0
ARC
  8
APS_GEOMETRY
 10
1278.586
 20
278.767
 40
0.117
 50
148.791
 51
180.0
  0
ARC
  8
APS_GEOMETRY
 10
1278.617
 20
278.748
 40
0.153
 50
121.569
 51
148.791
  0
ARC
  8
APS_GEOMETRY
 10
1278.672
 20
278.658
 40
0.259
 50
112.806
 51
121.569
  0
ARC
  8
APS_GEOMETRY
 10
1278.822
 20
278.303
 40
0.644
 50
107.254
 51
112.806
  0
ARC
  8
APS_GEOMETRY
 10
1278.913
 20
278.008
 40
0.953
 50
103.487
 51
107.254
  0
ARC
  8
APS_GEOMETRY
 10
1279.123
 20
277.134
 40
1.851
 50
100.784
 51
103.487
  0
ARC
  8
APS_GEOMETRY
 10
1279.188
 20
276.893
 40
2.101
 50
95.643
 51
101.31
  0
ARC
  8
APS_GEOMETRY
 10
1279.19
 20
276.876
 40
2.118
 50
90.0
 51
95.643
  0
ARC
  8
APS_GEOMETRY
 10
1281.224
 20
277.942
 40
1.063
 50
77.257
 51
90.0
  0
ARC
  8
APS_GEOMETRY
 10
1281.213
 20
277.894
 40
1.112
 50
64.799
 51
77.257
  0
ARC
  8
APS_GEOMETRY
 10
1282.129
 20
279.844
 40
1.042
 50
244.885
 51
251.175
  0
ARC
  8
APS_GEOMETRY
 10
1281.83
 20
278.969
 40
0.117
 50
251.175
 51
270.0
  0
ARC
  8
APS_GEOMETRY
 10
1281.83
 20
279.042
 40
0.19
 50
270.0
 51
278.82
  0
ARC
  8
APS_GEOMETRY
 10
1281.707
 20
279.834
 40
0.992
 50
278.82
 51
282.68
  0
ARC
  8
APS_GEOMETRY
 10
1281.964
 20
278.695
 40
0.176
 50
95.906
 51
102.995
  0
ARC
  8
APS_GEOMETRY
 10
1281.972
 20
278.618
 40
0.253
 50
90.0
 51
95.906
  0
ARC
  8
APS_GEOMETRY
 10
1281.972
 20
278.703
 40
0.168
 50
62.447
 51
90.0
  0
ARC
  8
APS_GEOMETRY
 10
1281.943
 20
278.646
 40
0.232
 50
39.094
 51
62.447
  0
ARC
  8
APS_GEOMETRY
 10
1281.631
 20
278.386
 40
0.639
 50
18.435
 51
39.611
  0
ARC
  8
APS_GEOMETRY
 10
1281.44
 20
278.322
 40
0.84
 50
360.0
 51
18.435
  0
ARC
  8
APS_GEOMETRY
 10
1281.863
 20
278.322
 40
0.417
 50
334.877
 51
360.0
  0
ARC
  8
APS_GEOMETRY
 10
1281.988
 20
278.263
 40
0.278
 50
304.007
 51
334.877
  0
ARC
  8
APS_GEOMETRY
 10
1281.986
 20
278.269
 40
0.284
 50
286.39
 51
303.69
  0
ARC
  8
APS_GEOMETRY
 10
1281.977
 20
278.3
 40
0.317
 50
270.0
 51
286.39
  0
ARC
  8
APS_GEOMETRY
 10
1281.977
 20
278.296
 40
0.313
 50
255.155
 51
270.0
  0
ARC
  8
APS_GEOMETRY
 10
1281.943
 20
278.167
 40
0.179
 50
235.491
 51
255.155
  0
ARC
  8
APS_GEOMETRY
 10
1281.96
 20
278.192
 40
0.209
 50
218.48
 51
235.491
  0
ARC
  8
APS_GEOMETRY
 10
1282.241
 20
278.415
 40
0.568
 50
208.179
 51
218.48
  0
ARC
  8
APS_GEOMETRY
 10
1279.36
 20
276.851
 40
2.71
 50
28.56
 51
31.664
  0
ARC
  8
APS_GEOMETRY
 10
1281.121
 20
277.937
 40
0.641
 50
31.664
 51
38.047
  0
ARC
  8
APS_GEOMETRY
 10
1281.249
 20
278.037
 40
0.479
 50
38.047
 51
46.56
  0
ARC
  8
APS_GEOMETRY
 10
1281.182
 20
277.967
 40
0.576
 50
46.56
 51
54.324
  0
ARC
  8
APS_GEOMETRY
 10
1281.144
 20
277.901
 40
0.652
 50
54.968
 51
71.48
  0
ARC
  8
APS_GEOMETRY
 10
1281.186
 20
278.027
 40
0.519
 50
71.48
 51
90.0
  0
ARC
  8
APS_GEOMETRY
 10
1281.186
 20
278.183
 40
0.363
 50
90.0
 51
114.63
  0
ARC
  8
APS_GEOMETRY
 10
1281.168
 20
278.223
 40
0.319
 50
114.63
 51
140.921
  0
ARC
  8
APS_GEOMETRY
 10
1281.221
 20
278.179
 40
0.388
 50
140.921
 51
163.13
  0
ARC
  8
APS_GEOMETRY
 10
1281.49
 20
278.098
 40
0.669
 50
163.13
 51
180.0
  0
ARC
  8
APS_GEOMETRY
 10
1281.839
 20
278.098
 40
1.018
 50
180.0
 51
195.44
  0
ARC
  8
APS_GEOMETRY
 10
1281.786
 20
278.083
 40
0.963
 50
195.44
 51
211.316
  0
ARC
  8
APS_GEOMETRY
 10
1281.532
 20
277.934
 40
0.668
 50
211.708
 51
240.457
  0
ARC
  8
APS_GEOMETRY
 10
1281.515
 20
277.903
 40
0.633
 50
240.457
 51
270.0
  0
ARC
  8
APS_GEOMETRY
 10
1281.515
 20
278.058
 40
0.788
 50
270.0
 51
279.549
  0
ARC
  8
APS_GEOMETRY
 10
1281.505
 20
278.116
 40
0.847
 50
279.549
 51
288.759
  0
ARC
  8
APS_GEOMETRY
 10
1281.546
 20
277.995
 40
0.718
 50
288.759
 51
299.545
  0
ARC
  8
APS_GEOMETRY
 10
1281.712
 20
277.703
 40
0.383
 50
299.545
 51
314.341
  0
ARC
  8
APS_GEOMETRY
 10
1282.223
 20
277.171
 40
0.355
 50
120.141
 51
133.452
  0
ARC
  8
APS_GEOMETRY
 10
1282.08
 20
277.417
 40
0.071
 50
90.0
 51
120.141
  0
ARC
  8
APS_GEOMETRY
 10
1282.08
 20
277.376
 40
0.111
 50
61.952
 51
90.0
  0
ARC
  8
APS_GEOMETRY
 10
1282.064
 20
277.345
 40
0.147
 50
37.569
 51
61.952
  0
ARC
  8
APS_GEOMETRY
 10
1282.033
 20
277.321
 40
0.186
 50
17.665
 51
37.569
  0
ARC
  8
APS_GEOMETRY
 10
1281.986
 20
277.306
 40
0.235
 50
360.0
 51
17.665
  0
ARC
  8
APS_GEOMETRY
 10
1281.867
 20
277.306
 40
0.354
 50
344.932
 51
0.0
  0
ARC
  8
APS_GEOMETRY
 10
1281.552
 20
277.391
 40
0.68
 50
334.075
 51
344.932
  0
ARC
  8
APS_GEOMETRY
 10
1281.542
 20
277.396
 40
0.691
 50
323.374
 51
334.075
  0
ARC
  8
APS_GEOMETRY
 10
1281.745
 20
277.245
 40
0.438
 50
309.92
 51
323.374
  0
ARC
  8
APS_GEOMETRY
 10
1281.948
 20
277.005
 40
0.124
 50
289.026
 51
308.991
  0
ARC
  8
APS_GEOMETRY
 10
1281.732
 20
277.634
 40
0.789
 50
281.143
 51
289.026
  0
ARC
  8
APS_GEOMETRY
 10
1281.951
 20
276.495
 40
0.372
 50
100.437
 51
110.12
  0
ARC
  8
APS_GEOMETRY
 10
1282.242
 20
275.7
 40
1.218
 50
110.12
 51
115.463
  0
ARC
  8
APS_GEOMETRY
 10
1281.203
 20
277.874
 40
1.192
 50
282.94
 51
295.628
  0
ARC
  8
APS_GEOMETRY
 10
1281.214
 20
277.829
 40
1.146
 50
270.0
 51
282.94
  0
ARC
  8
APS_GEOMETRY
 10
1281.214
 20
277.897
 40
1.214
 50
257.307
 51
270.0
  0
ARC
  8
APS_GEOMETRY
 10
1281.265
 20
278.125
 40
1.447
 50
245.686
 51
257.307
  0
ARC
  8
APS_GEOMETRY
 10
1281.136
 20
277.842
 40
1.137
 50
228.801
 51
245.735
  0
ARC
  8
APS_GEOMETRY
 10
1281.139
 20
277.845
 40
1.14
 50
211.891
 51
228.801
  0
ARC
  8
APS_GEOMETRY
 10
1281.206
 20
277.893
 40
1.223
 50
196.728
 51
212.152
  0
ARC
  8
APS_GEOMETRY
 10
1281.032
 20
277.841
 40
1.041
 50
180.0
 51
196.728
  0
ARC
  8
APS_GEOMETRY
 10
1281.057
 20
277.841
 40
1.066
 50
161.184
 51
180.0
  0
ARC
  8
APS_GEOMETRY
 10
1281.125
 20
277.818
 40
1.139
 50
142.98
 51
161.184
  0
ARC
  8
APS_GEOMETRY
 10
1281.179
 20
277.777
 40
1.206
 50
127.824
 51
142.958
  0
ARC
  8
APS_GEOMETRY
 10
1281.266
 20
277.664
 40
1.349
 50
113.52
 51
127.824
  0
ARC
  8
APS_GEOMETRY
 10
1281.238
 20
277.73
 40
1.277
 50
101.927
 51
113.527
  0
ARC
  8
APS_GEOMETRY
 10
1281.224
 20
277.797
 40
1.208
 50
90.0
 51
101.927
  0
ARC
  8
APS_GEOMETRY
 10
1283.451
 20
276.963
 40
2.03
 50
84.71
 51
90.0
  0
ARC
  8
APS_GEOMETRY
 10
1283.488
 20
277.365
 40
1.627
 50
78.799
 51
84.71
  0
ARC
  8
APS_GEOMETRY
 10
1283.729
 20
278.583
 40
0.386
 50
49.783
 51
78.771
  0
ARC
  8
APS_GEOMETRY
 10
1283.89
 20
278.773
 40
0.136
 50
360.0
 51
49.783
  0
ARC
  8
APS_GEOMETRY
 10
1283.876
 20
278.773
 40
0.151
 50
342.759
 51
360.0
  0
ARC
  8
APS_GEOMETRY
 10
1283.954
 20
278.749
 40
0.069
 50
317.045
 51
342.759
  0
ARC
  8
APS_GEOMETRY
 10
1283.916
 20
278.784
 40
0.12
 50
301.817
 51
317.045
  0
ARC
  8
APS_GEOMETRY
 10
1283.353
 20
279.691
 40
1.188
 50
296.98
 51
301.817
  0
ARC
  8
APS_GEOMETRY
 10
1283.954
 20
278.51
 40
0.137
 50
116.565
 51
149.078
  0
ARC
  8
APS_GEOMETRY
 10
1284.13
 20
278.405
 40
0.342
 50
149.078
 51
169.469
  0
ARC
  8
APS_GEOMETRY
 10
1284.505
 20
278.335
 40
0.723
 50
169.469
 51
174.598
  0
ARC
  8
APS_GEOMETRY
 10
1286.438
 20
278.152
 40
2.665
 50
174.598
 51
177.269
  0
ARC
  8
APS_GEOMETRY
 10
1288.138
 20
278.071
 40
4.367
 50
177.269
 51
178.901
  0
ARC
  8
APS_GEOMETRY
 10
1293.403
 20
277.97
 40
9.633
 50
178.901
 51
180.0
  0
ARC
  8
APS_GEOMETRY
 10
1304.103
 20
277.97
 40
20.333
 50
180.0
 51
180.88
  0
ARC
  8
APS_GEOMETRY
 10
1291.577
 20
277.778
 40
7.805
 50
180.88
 51
182.3
  0
ARC
  8
APS_GEOMETRY
 10
1287.915
 20
277.631
 40
4.141
 50
182.3
 51
184.974
  0
ARC
  8
APS_GEOMETRY
 10
1284.424
 20
277.327
 40
0.637
 50
184.974
 51
191.793
  0
ARC
  8
APS_GEOMETRY
 10
1284.019
 20
277.249
 40
0.224
 50
193.57
 51
205.787
  0
ARC
  8
APS_GEOMETRY
 10
1283.918
 20
277.201
 40
0.112
 50
205.787
 51
223.091
  0
ARC
  8
APS_GEOMETRY
 10
1283.944
 20
277.225
 40
0.147
 50
223.091
 51
236.441
  0
ARC
  8
APS_GEOMETRY
 10
1284.158
 20
277.547
 40
0.535
 50
236.441
 51
243.435
  0
ARC
  8
APS_GEOMETRY
 10
1283.83
 20
276.874
 40
0.215
 50
37.185
 51
65.556
  0
ARC
  8
APS_GEOMETRY
 10
1283.9
 20
276.927
 40
0.127
 50
0.0
 51
37.185
  0
ARC
  8
APS_GEOMETRY
 10
1283.896
 20
276.927
 40
0.131
 50
312.039
 51
360.0
  0
ARC
  8
APS_GEOMETRY
 10
1283.74
 20
277.099
 40
0.363
 50
283.815
 51
312.039
  0
ARC
  8
APS_GEOMETRY
 10
1283.483
 20
278.165
 40
1.459
 50
279.273
 51
283.627
  0
ARC
  8
APS_GEOMETRY
 10
1283.381
 20
278.794
 40
2.096
 50
275.641
 51
279.273
  0
ARC
  8
APS_GEOMETRY
 10
1283.341
 20
279.192
 40
2.496
 50
272.588
 51
275.641
  0
ARC
  8
APS_GEOMETRY
 10
1283.297
 20
280.168
 40
3.473
 50
270.0
 51
272.588
  0
ARC
  8
APS_GEOMETRY
 10
1283.297
 20
278.789
 40
2.095
 50
262.774
 51
270.0
  0
ARC
  8
APS_GEOMETRY
 10
1283.108
 20
277.3
 40
0.593
 50
249.175
 51
262.774
  0
ARC
  8
APS_GEOMETRY
 10
1282.99
 20
276.988
 40
0.26
 50
221.23
 51
249.175
  0
ARC
  8
APS_GEOMETRY
 10
1282.886
 20
276.897
 40
0.122
 50
180.0
 51
221.23
  0
ARC
  8
APS_GEOMETRY
 10
1282.866
 20
276.897
 40
0.102
 50
142.696
 51
180.0
  0
ARC
  8
APS_GEOMETRY
 10
1283.027
 20
276.775
 40
0.305
 50
121.357
 51
142.696
  0
ARC
  8
APS_GEOMETRY
 10
1282.755
 20
277.221
 40
0.218
 50
301.477
 51
324.728
  0
ARC
  8
APS_GEOMETRY
 10
1282.784
 20
277.2
 40
0.182
 50
324.728
 51
350.181
  0
ARC
  8
APS_GEOMETRY
 10
1281.872
 20
277.351
 40
1.107
 50
350.538
 51
355.423
  0
ARC
  8
APS_GEOMETRY
 10
1278.125
 20
277.651
 40
4.866
 50
355.423
 51
357.752
  0
ARC
  8
APS_GEOMETRY
 10
1274.645
 20
277.787
 40
8.349
 50
357.752
 51
359.111
  0
ARC
  8
APS_GEOMETRY
 10
1263.508
 20
277.96
 40
19.487
 50
359.111
 51
0.0
  0
ARC
  8
APS_GEOMETRY
 10
1276.234
 20
277.96
 40
6.761
 50
0.0
 51
1.773
  0
ARC
  8
APS_GEOMETRY
 10
1280.202
 20
278.083
 40
2.791
 50
1.773
 51
4.532
  0
ARC
  8
APS_GEOMETRY
 10
1281.408
 20
278.179
 40
1.581
 50
4.532
 51
9.384
  0
ARC
  8
APS_GEOMETRY
 10
1282.632
 20
278.381
 40
0.34
 50
9.384
 51
19.855
  0
ARC
  8
APS_GEOMETRY
 10
1282.794
 20
278.443
 40
0.167
 50
18.853
 51
42.158
  0
ARC
  8
APS_GEOMETRY
 10
1282.655
 20
278.317
 40
0.354
 50
42.158
 51
58.092
  0
ARC
  8
APS_GEOMETRY
 10
1283.267
 20
279.262
 40
0.771
 50
230.711
 51
236.634
  0
ARC
  8
APS_GEOMETRY
 10
1282.883
 20
278.792
 40
0.165
 50
217.875
 51
230.711
  0
ARC
  8
APS_GEOMETRY
 10
1282.83
 20
278.751
 40
0.098
 50
196.928
 51
217.875
  0
ARC
  8
APS_GEOMETRY
 10
1282.879
 20
278.767
 40
0.15
 50
180.0
 51
196.928
  0
ARC
  8
APS_GEOMETRY
 10
1282.847
 20
278.767
 40
0.117
 50
148.791
 51
180.0
  0
ARC
  8
APS_GEOMETRY
 10
1282.878
 20
278.748
 40
0.153
 50
121.569
 51
148.791
  0
ARC
  8
APS_GEOMETRY
 10
1282.933
 20
278.658
 40
0.259
 50
112.806
 51
121.569
  0
ARC
  8
APS_GEOMETRY
 10
1283.083
 20
278.303
 40
0.644
 50
107.254
 51
112.806
  0
ARC
  8
APS_GEOMETRY
 10
1283.174
 20
278.008
 40
0.953
 50
103.487
 51
107.254
  0
ARC
  8
APS_GEOMETRY
 10
1283.384
 20
277.134
 40
1.851
 50
100.784
 51
103.487
  0
ARC
  8
APS_GEOMETRY
 10
1283.449
 20
276.893
 40
2.101
 50
95.643
 51
101.31
  0
ARC
  8
APS_GEOMETRY
 10
1283.451
 20
276.876
 40
2.118
 50
90.0
 51
95.643
  0
LINE
  8
APS_GEOMETRY
 10
1286.908
 11
1286.908
 20
277.498
 21
278.358
  0
ARC
  8
APS_GEOMETRY
 10
1284.922
 20
278.358
 40
1.986
 50
0.0
 51
2.404
  0
ARC
  8
APS_GEOMETRY
 10
1286.098
 20
278.407
 40
0.809
 50
2.404
 51
6.17
  0
ARC
  8
APS_GEOMETRY
 10
1286.451
 20
278.445
 40
0.455
 50
6.17
 51
12.824
  0
ARC
  8
APS_GEOMETRY
 10
1286.796
 20
278.524
 40
0.101
 50
12.824
 51
26.98
  0
ARC
  8
APS_GEOMETRY
 10
1286.812
 20
278.532
 40
0.083
 50
26.98
 51
59.65
  0
ARC
  8
APS_GEOMETRY
 10
1286.66
 20
278.272
 40
0.383
 50
59.65
 51
74.667
  0
ARC
  8
APS_GEOMETRY
 10
1286.835
 20
278.897
 40
0.266
 50
225.0
 51
253.887
  0
ARC
  8
APS_GEOMETRY
 10
1286.727
 20
278.789
 40
0.113
 50
180.0
 51
225.0
  0
ARC
  8
APS_GEOMETRY
 10
1286.748
 20
278.789
 40
0.134
 50
151.157
 51
180.0
  0
ARC
  8
APS_GEOMETRY
 10
1286.747
 20
278.79
 40
0.133
 50
122.276
 51
151.157
  0
ARC
  8
APS_GEOMETRY
 10
1286.786
 20
278.729
 40
0.205
 50
102.308
 51
122.276
  0
ARC
  8
APS_GEOMETRY
 10
1286.856
 20
278.406
 40
0.536
 50
90.0
 51
102.308
  0
ARC
  8
APS_GEOMETRY
 10
1286.856
 20
277.783
 40
1.158
 50
88.989
 51
90.0
  0
ARC
  8
APS_GEOMETRY
 10
1286.759
 20
272.266
 40
6.676
 50
88.568
 51
88.989
  0
ARC
  8
APS_GEOMETRY
 10
1286.621
 20
266.766
 40
12.178
 50
88.337
 51
88.568
  0
ARC
  8
APS_GEOMETRY
 10
1286.088
 20
248.41
 40
30.542
 50
88.191
 51
88.337
  0
LINE
  8
APS_GEOMETRY
 10
1287.052
 11
1287.149
 20
278.937
 21
278.937
  0
ARC
  8
APS_GEOMETRY
 10
1286.825
 20
332.734
 40
53.798
 50
270.345
 51
270.49
  0
ARC
  8
APS_GEOMETRY
 10
1287.127
 20
297.403
 40
18.467
 50
270.49
 51
270.736
  0
ARC
  8
APS_GEOMETRY
 10
1287.251
 20
287.76
 40
8.822
 50
270.736
 51
271.253
  0
ARC
  8
APS_GEOMETRY
 10
1287.427
 20
279.699
 40
0.759
 50
271.253
 51
273.013
  0
ARC
  8
APS_GEOMETRY
 10
1287.42
 20
279.838
 40
0.899
 50
273.013
 51
274.5
  0
ARC
  8
APS_GEOMETRY
 10
1286.587
 20
290.421
 40
11.514
 50
274.5
 51
274.915
  0
LINE
  8
APS_GEOMETRY
 10
1287.573
 11
1287.671
 20
278.949
 21
278.958
  0
LINE
  8
APS_GEOMETRY
 10
1287.671
 11
1287.8
 20
278.958
 21
278.969
  0
ARC
  8
APS_GEOMETRY
 10
1288.01
 20
276.933
 40
2.047
 50
93.24
 51
95.906
  0
ARC
  8
APS_GEOMETRY
 10
1287.973
 20
277.592
 40
1.387
 50
90.0
 51
93.24
  0
ARC
  8
APS_GEOMETRY
 10
1287.973
 20
277.801
 40
1.178
 50
77.12
 51
90.0
  0
ARC
  8
APS_GEOMETRY
 10
1288.035
 20
278.073
 40
0.899
 50
62.371
 51
77.12
  0
ARC
  8
APS_GEOMETRY
 10
1288.14
 20
278.27
 40
0.676
 50
31.215
 51
62.517
  0
ARC
  8
APS_GEOMETRY
 10
1288.137
 20
278.268
 40
0.68
 50
360.0
 51
31.215
  0
ARC
  8
APS_GEOMETRY
 10
1288.119
 20
278.268
 40
0.698
 50
334.496
 51
360.0
  0
ARC
  8
APS_GEOMETRY
 10
1288.153
 20
278.251
 40
0.66
 50
308.254
 51
334.496
  0
ARC
  8
APS_GEOMETRY
 10
1288.048
 20
278.39
 40
0.834
 50
287.855
 51
308.034
  0
ARC
  8
APS_GEOMETRY
 10
1287.978
 20
278.607
 40
1.062
 50
270.0
 51
287.855
  0
ARC
  8
APS_GEOMETRY
 10
1287.978
 20
279.155
 40
1.61
 50
266.918
 51
270.0
  0
ARC
  8
APS_GEOMETRY
 10
1288.075
 20
280.97
 40
3.427
 50
264.806
 51
266.918
  0
ARC
  8
APS_GEOMETRY
 10
1287.422
 20
272.864
 40
4.705
 50
85.815
 51
86.634
  0
ARC
  8
APS_GEOMETRY
 10
1287.682
 20
277.283
 40
0.278
 50
86.634
 51
90.0
  0
ARC
  8
APS_GEOMETRY
 10
1287.682
 20
277.52
 40
0.041
 50
90.0
 51
139.686
  0
ARC
  8
APS_GEOMETRY
 10
1287.697
 20
277.507
 40
0.061
 50
139.686
 51
180.0
  0
LINE
  8
APS_GEOMETRY
 10
1287.636
 11
1287.636
 20
277.507
 21
277.498
  0
LINE
  8
APS_GEOMETRY
 10
1287.636
 11
1287.647
 20
277.498
 21
277.229
  0
ARC
  8
APS_GEOMETRY
 10
1288.035
 20
277.246
 40
0.388
 50
182.386
 51
193.753
  0
ARC
  8
APS_GEOMETRY
 10
1287.785
 20
277.184
 40
0.131
 50
193.753
 51
213.408
  0
ARC
  8
APS_GEOMETRY
 10
1287.788
 20
277.186
 40
0.134
 50
213.408
 51
232.628
  0
ARC
  8
APS_GEOMETRY
 10
1288.013
 20
277.482
 40
0.505
 50
232.628
 51
242.488
  0
ARC
  8
APS_GEOMETRY
 10
1287.637
 20
276.768
 40
0.301
 50
40.539
 51
61.699
  0
ARC
  8
APS_GEOMETRY
 10
1287.802
 20
276.909
 40
0.085
 50
360.0
 51
40.539
  0
ARC
  8
APS_GEOMETRY
 10
1287.773
 20
276.909
 40
0.113
 50
315.297
 51
360.0
  0
ARC
  8
APS_GEOMETRY
 10
1287.619
 20
277.061
 40
0.329
 50
289.502
 51
315.297
  0
ARC
  8
APS_GEOMETRY
 10
1287.507
 20
277.378
 40
0.666
 50
282.372
 51
289.502
  0
ARC
  8
APS_GEOMETRY
 10
1287.389
 20
277.917
 40
1.218
 50
277.099
 51
282.372
  0
ARC
  8
APS_GEOMETRY
 10
1287.34
 20
278.307
 40
1.611
 50
273.104
 51
277.099
  0
ARC
  8
APS_GEOMETRY
 10
1287.283
 20
279.363
 40
2.668
 50
270.0
 51
273.104
  0
ARC
  8
APS_GEOMETRY
 10
1287.283
 20
279.331
 40
2.636
 50
263.473
 51
270.0
  0
ARC
  8
APS_GEOMETRY
 10
1287.066
 20
277.438
 40
0.73
 50
251.056
 51
263.473
  0
ARC
  8
APS_GEOMETRY
 10
1286.927
 20
277.032
 40
0.302
 50
224.161
 51
251.056
  0
ARC
  8
APS_GEOMETRY
 10
1286.793
 20
276.902
 40
0.116
 50
180.0
 51
224.161
  0
ARC
  8
APS_GEOMETRY
 10
1286.817
 20
276.902
 40
0.14
 50
160.821
 51
180.0
  0
ARC
  8
APS_GEOMETRY
 10
1286.759
 20
276.923
 40
0.078
 50
135.0
 51
160.821
  0
ARC
  8
APS_GEOMETRY
 10
1286.814
 20
276.867
 40
0.156
 50
121.522
 51
135.0
  0
ARC
  8
APS_GEOMETRY
 10
1287.438
 20
275.85
 40
1.35
 50
116.952
 51
121.522
  0
ARC
  8
APS_GEOMETRY
 10
1286.757
 20
277.185
 40
0.15
 50
297.824
 51
321.605
  0
ARC
  8
APS_GEOMETRY
 10
1286.791
 20
277.158
 40
0.106
 50
321.605
 51
349.992
  0
ARC
  8
APS_GEOMETRY
 10
1286.631
 20
277.186
 40
0.268
 50
349.992
 51
356.014
  0
ARC
  8
APS_GEOMETRY
 10
1284.198
 20
277.356
 40
2.707
 50
356.014
 51
357.908
  0
ARC
  8
APS_GEOMETRY
 10
1281.358
 20
277.459
 40
5.549
 50
357.908
 51
358.833
  0
ARC
  8
APS_GEOMETRY
 10
1271.088
 20
277.669
 40
15.821
 50
358.833
 51
359.381
  0
LINE
  8
APS_GEOMETRY
 10
1287.647
 11
1287.647
 20
278.565
 21
278.009
  0
ARC
  8
APS_GEOMETRY
 10
1287.816
 20
278.009
 40
0.169
 50
180.0
 51
199.885
  0
ARC
  8
APS_GEOMETRY
 10
1287.69
 20
277.964
 40
0.034
 50
199.885
 51
244.799
  0
ARC
  8
APS_GEOMETRY
 10
1287.762
 20
278.113
 40
0.201
 50
244.231
 51
258.996
  0
ARC
  8
APS_GEOMETRY
 10
1287.793
 20
278.27
 40
0.36
 50
258.996
 51
270.0
  0
ARC
  8
APS_GEOMETRY
 10
1287.793
 20
278.232
 40
0.323
 50
270.0
 51
288.435
  0
ARC
  8
APS_GEOMETRY
 10
1287.816
 20
278.163
 40
0.249
 50
288.435
 51
309.428
  0
ARC
  8
APS_GEOMETRY
 10
1287.825
 20
278.154
 40
0.237
 50
309.193
 51
339.939
  0
ARC
  8
APS_GEOMETRY
 10
1287.531
 20
278.261
 40
0.55
 50
339.939
 51
0.0
  0
ARC
  8
APS_GEOMETRY
 10
1287.563
 20
278.261
 40
0.517
 50
360.0
 51
22.011
  0
ARC
  8
APS_GEOMETRY
 10
1287.793
 20
278.354
 40
0.27
 50
22.011
 51
52.651
  0
ARC
  8
APS_GEOMETRY
 10
1287.789
 20
278.351
 40
0.274
 50
52.374
 51
72.309
  0
ARC
  8
APS_GEOMETRY
 10
1287.767
 20
278.282
 40
0.347
 50
72.309
 51
90.0
  0
ARC
  8
APS_GEOMETRY
 10
1287.767
 20
278.427
 40
0.203
 50
90.0
 51
118.113
  0
ARC
  8
APS_GEOMETRY
 10
1287.693
 20
278.565
 40
0.045
 50
118.113
 51
180.0
  0
ARC
  8
APS_GEOMETRY
 10
1290.284
 20
277.716
 40
1.289
 50
71.91
 51
90.0
  0
ARC
  8
APS_GEOMETRY
 10
1290.334
 20
277.869
 40
1.128
 50
52.561
 51
71.91
  0
ARC
  8
APS_GEOMETRY
 10
1290.321
 20
277.865
 40
1.139
 50
38.846
 51
52.156
  0
ARC
  8
APS_GEOMETRY
 10
1290.143
 20
277.721
 40
1.369
 50
26.707
 51
38.846
  0
ARC
  8
APS_GEOMETRY
 10
1290.178
 20
277.75
 40
1.324
 50
13.868
 51
26.278
  0
ARC
  8
APS_GEOMETRY
 10
1290.433
 20
277.813
 40
1.061
 50
360.0
 51
13.868
  0
ARC
  8
APS_GEOMETRY
 10
1290.449
 20
277.813
 40
1.045
 50
339.712
 51
360.0
  0
ARC
  8
APS_GEOMETRY
 10
1290.391
 20
277.835
 40
1.108
 50
320.013
 51
339.712
  0
ARC
  8
APS_GEOMETRY
 10
1290.381
 20
277.84
 40
1.119
 50
303.344
 51
320.123
  0
ARC
  8
APS_GEOMETRY
 10
1290.266
 20
278.015
 40
1.327
 50
287.949
 51
303.344
  0
ARC
  8
APS_GEOMETRY
 10
1290.228
 20
278.146
 40
1.463
 50
279.039
 51
287.776
  0
ARC
  8
APS_GEOMETRY
 10
1290.243
 20
278.051
 40
1.367
 50
270.0
 51
279.039
  0
ARC
  8
APS_GEOMETRY
 10
1290.243
 20
277.984
 40
1.301
 50
257.728
 51
270.0
  0
ARC
  8
APS_GEOMETRY
 10
1290.246
 20
277.993
 40
1.31
 50
245.501
 51
257.728
  0
ARC
  8
APS_GEOMETRY
 10
1290.172
 20
277.832
 40
1.133
 50
228.665
 51
245.511
  0
ARC
  8
APS_GEOMETRY
 10
1290.147
 20
277.804
 40
1.096
 50
211.535
 51
228.665
  0
ARC
  8
APS_GEOMETRY
 10
1290.179
 20
277.828
 40
1.136
 50
195.642
 51
211.701
  0
ARC
  8
APS_GEOMETRY
 10
1290.238
 20
277.844
 40
1.197
 50
180.0
 51
195.642
  0
ARC
  8
APS_GEOMETRY
 10
1290.251
 20
277.844
 40
1.209
 50
162.181
 51
180.0
  0
ARC
  8
APS_GEOMETRY
 10
1290.14
 20
277.88
 40
1.093
 50
143.434
 51
162.181
  0
ARC
  8
APS_GEOMETRY
 10
1290.126
 20
277.892
 40
1.074
 50
126.384
 51
143.471
  0
ARC
  8
APS_GEOMETRY
 10
1290.227
 20
277.754
 40
1.246
 50
110.525
 51
126.384
  0
ARC
  8
APS_GEOMETRY
 10
1290.222
 20
277.791
 40
1.209
 50
99.77
 51
110.925
  0
ARC
  8
APS_GEOMETRY
 10
1290.284
 20
277.43
 40
1.575
 50
90.0
 51
99.77
  0
ARC
  8
APS_GEOMETRY
 10
1290.129
 20
278.296
 40
0.24
 50
90.0
 51
119.604
  0
ARC
  8
APS_GEOMETRY
 10
1290.15
 20
278.259
 40
0.283
 50
119.604
 51
146.842
  0
ARC
  8
APS_GEOMETRY
 10
1290.192
 20
278.224
 40
0.337
 50
145.84
 51
164.055
  0
ARC
  8
APS_GEOMETRY
 10
1290.29
 20
278.196
 40
0.439
 50
164.055
 51
180.0
  0
ARC
  8
APS_GEOMETRY
 10
1290.904
 20
278.196
 40
1.053
 50
180.0
 51
189.977
  0
ARC
  8
APS_GEOMETRY
 10
1291.836
 20
278.36
 40
2.0
 50
189.977
 51
197.211
  0
ARC
  8
APS_GEOMETRY
 10
1292.04
 20
278.423
 40
2.213
 50
197.211
 51
203.76
  0
ARC
  8
APS_GEOMETRY
 10
1291.532
 20
278.199
 40
1.658
 50
203.76
 51
211.329
  0
ARC
  8
APS_GEOMETRY
 10
1290.489
 20
277.573
 40
0.441
 50
212.32
 51
224.441
  0
ARC
  8
APS_GEOMETRY
 10
1290.446
 20
277.531
 40
0.381
 50
224.441
 51
237.484
  0
ARC
  8
APS_GEOMETRY
 10
1290.418
 20
277.488
 40
0.33
 50
237.484
 51
252.416
  0
ARC
  8
APS_GEOMETRY
 10
1290.391
 20
277.401
 40
0.238
 50
252.416
 51
270.0
  0
ARC
  8
APS_GEOMETRY
 10
1290.391
 20
277.429
 40
0.267
 50
270.0
 51
294.953
  0
ARC
  8
APS_GEOMETRY
 10
1290.398
 20
277.413
 40
0.249
 50
294.953
 51
320.793
  0
ARC
  8
APS_GEOMETRY
 10
1290.358
 20
277.446
 40
0.301
 50
320.793
 51
342.777
  0
ARC
  8
APS_GEOMETRY
 10
1290.18
 20
277.501
 40
0.487
 50
342.777
 51
0.0
  0
ARC
  8
APS_GEOMETRY
 10
1289.342
 20
277.501
 40
1.325
 50
0.0
 51
8.499
  0
ARC
  8
APS_GEOMETRY
 10
1288.758
 20
277.414
 40
1.915
 50
8.499
 51
15.566
  0
ARC
  8
APS_GEOMETRY
 10
1288.828
 20
277.433
 40
1.842
 50
15.566
 51
22.909
  0
ARC
  8
APS_GEOMETRY
 10
1289.432
 20
277.688
 40
1.188
 50
22.909
 51
32.057
  0
ARC
  8
APS_GEOMETRY
 10
1289.905
 20
277.987
 40
0.628
 50
31.921
 51
42.51
  0
ARC
  8
APS_GEOMETRY
 10
1290.035
 20
278.106
 40
0.451
 50
42.51
 51
55.008
  0
ARC
  8
APS_GEOMETRY
 10
1290.079
 20
278.169
 40
0.374
 50
55.008
 51
69.88
  0
ARC
  8
APS_GEOMETRY
 10
1290.119
 20
278.276
 40
0.26
 50
69.88
 51
87.754
  0
ARC
  8
APS_GEOMETRY
 10
1292.81
 20
277.545
 40
0.121
 50
90.0
 51
115.837
  0
ARC
  8
APS_GEOMETRY
 10
1292.78
 20
277.607
 40
0.053
 50
115.837
 51
155.462
  0
ARC
  8
APS_GEOMETRY
 10
1292.815
 20
277.591
 40
0.091
 50
155.462
 51
168.366
  0
ARC
  8
APS_GEOMETRY
 10
1293.132
 20
277.525
 40
0.415
 50
168.366
 51
174.395
  0
ARC
  8
APS_GEOMETRY
 10
1293.452
 20
277.494
 40
0.736
 50
174.395
 51
177.813
  0
ARC
  8
APS_GEOMETRY
 10
1294.514
 20
277.453
 40
1.798
 50
177.813
 51
180.0
  0
ARC
  8
APS_GEOMETRY
 10
1295.282
 20
277.453
 40
2.567
 50
180.0
 51
184.62
  0
ARC
  8
APS_GEOMETRY
 10
1293.561
 20
277.314
 40
0.84
 50
184.62
 51
192.7
  0
ARC
  8
APS_GEOMETRY
 10
1292.897
 20
277.169
 40
0.161
 50
194.036
 51
205.821
  0
ARC
  8
APS_GEOMETRY
 10
1292.827
 20
277.135
 40
0.083
 50
205.821
 51
222.274
  0
ARC
  8
APS_GEOMETRY
 10
1292.849
 20
277.154
 40
0.112
 50
222.274
 51
234.605
  0
ARC
  8
APS_GEOMETRY
 10
1293.092
 20
277.496
 40
0.531
 50
234.605
 51
240.255
  0
ARC
  8
APS_GEOMETRY
 10
1292.722
 20
276.843
 40
0.219
 50
34.592
 51
61.189
  0
ARC
  8
APS_GEOMETRY
 10
1292.795
 20
276.893
 40
0.131
 50
360.0
 51
34.592
  0
ARC
  8
APS_GEOMETRY
 10
1292.799
 20
276.893
 40
0.127
 50
318.231
 51
360.0
  0
ARC
  8
APS_GEOMETRY
 10
1292.714
 20
276.968
 40
0.241
 50
288.227
 51
318.231
  0
ARC
  8
APS_GEOMETRY
 10
1292.626
 20
277.236
 40
0.522
 50
280.377
 51
288.227
  0
ARC
  8
APS_GEOMETRY
 10
1292.473
 20
278.074
 40
1.374
 50
275.541
 51
280.377
  0
ARC
  8
APS_GEOMETRY
 10
1292.407
 20
278.756
 40
2.06
 50
272.304
 51
275.541
  0
ARC
  8
APS_GEOMETRY
 10
1292.326
 20
280.758
 40
4.063
 50
270.0
 51
272.304
  0
ARC
  8
APS_GEOMETRY
 10
1292.326
 20
279.085
 40
2.39
 50
262.811
 51
270.0
  0
ARC
  8
APS_GEOMETRY
 10
1292.112
 20
277.384
 40
0.676
 50
249.274
 51
262.811
  0
ARC
  8
APS_GEOMETRY
 10
1291.977
 20
277.028
 40
0.295
 50
221.379
 51
249.274
  0
ARC
  8
APS_GEOMETRY
 10
1291.858
 20
276.924
 40
0.137
 50
180.0
 51
221.379
  0
ARC
  8
APS_GEOMETRY
 10
1291.857
 20
276.924
 40
0.136
 50
164.055
 51
180.0
  0
ARC
  8
APS_GEOMETRY
 10
1291.801
 20
276.94
 40
0.077
 50
142.815
 51
164.055
  0
ARC
  8
APS_GEOMETRY
 10
1291.836
 20
276.913
 40
0.122
 50
129.007
 51
142.815
  0
ARC
  8
APS_GEOMETRY
 10
1292.276
 20
276.37
 40
0.821
 50
123.69
 51
129.007
  0
ARC
  8
APS_GEOMETRY
 10
1291.652
 20
277.309
 40
0.306
 50
303.389
 51
319.022
  0
ARC
  8
APS_GEOMETRY
 10
1291.735
 20
277.237
 40
0.197
 50
319.022
 51
338.575
  0
ARC
  8
APS_GEOMETRY
 10
1291.624
 20
277.28
 40
0.316
 50
338.575
 51
351.049
  0
ARC
  8
APS_GEOMETRY
 10
1290.284
 20
277.491
 40
1.673
 50
351.049
 51
356.46
  0
ARC
  8
APS_GEOMETRY
 10
1290.726
 20
277.475
 40
1.231
 50
355.972
 51
358.68
  0
ARC
  8
APS_GEOMETRY
 10
1276.216
 20
277.809
 40
15.744
 50
358.68
 51
359.437
  0
LINE
  8
APS_GEOMETRY
 10
1291.959
 11
1291.961
 20
277.654
 21
277.9
  0
LINE
  8
APS_GEOMETRY
 10
1291.961
 11
1291.961
 20
277.9
 21
278.22
  0
ARC
  8
APS_GEOMETRY
 10
1288.171
 20
278.22
 40
3.79
 50
360.0
 51
1.717
  0
ARC
  8
APS_GEOMETRY
 10
1290.199
 20
278.281
 40
1.761
 50
1.717
 51
4.236
  0
ARC
  8
APS_GEOMETRY
 10
1290.861
 20
278.33
 40
1.098
 50
4.236
 51
8.269
  0
ARC
  8
APS_GEOMETRY
 10
1291.622
 20
278.441
 40
0.329
 50
8.269
 51
15.642
  0
ARC
  8
APS_GEOMETRY
 10
1291.753
 20
278.477
 40
0.193
 50
15.642
 51
39.417
  0
ARC
  8
APS_GEOMETRY
 10
1291.756
 20
278.48
 40
0.189
 50
39.417
 51
63.435
  0
ARC
  8
APS_GEOMETRY
 10
1292.096
 20
279.184
 40
0.593
 50
236.874
 51
244.486
  0
ARC
  8
APS_GEOMETRY
 10
1291.843
 20
278.797
 40
0.131
 50
220.601
 51
236.874
  0
ARC
  8
APS_GEOMETRY
 10
1291.814
 20
278.772
 40
0.092
 50
198.246
 51
220.601
  0
ARC
  8
APS_GEOMETRY
 10
1291.857
 20
278.786
 40
0.138
 50
180.0
 51
198.246
  0
ARC
  8
APS_GEOMETRY
 10
1291.857
 20
278.786
 40
0.137
 50
156.161
 51
180.0
  0
ARC
  8
APS_GEOMETRY
 10
1291.876
 20
278.778
 40
0.158
 50
133.977
 51
156.161
  0
ARC
  8
APS_GEOMETRY
 10
1291.914
 20
278.738
 40
0.213
 50
116.996
 51
133.977
  0
ARC
  8
APS_GEOMETRY
 10
1291.99
 20
278.589
 40
0.38
 50
104.3
 51
116.996
  0
ARC
  8
APS_GEOMETRY
 10
1292.01
 20
278.514
 40
0.458
 50
95.326
 51
104.349
  0
ARC
  8
APS_GEOMETRY
 10
1292.089
 20
277.662
 40
1.314
 50
90.0
 51
95.326
  0
ARC
  8
APS_GEOMETRY
 10
1292.089
 20
278.325
 40
0.651
 50
87.553
 51
90.0
  0
ARC
  8
APS_GEOMETRY
 10
1291.95
 20
275.086
 40
3.893
 50
86.553
 51
87.553
  0
ARC
  8
APS_GEOMETRY
 10
1291.754
 20
271.818
 40
7.166
 50
86.009
 51
86.553
  0
ARC
  8
APS_GEOMETRY
 10
1290.988
 20
260.848
 40
18.164
 50
85.668
 51
86.009
  0
ARC
  8
APS_GEOMETRY
 10
1292.421
 20
279.713
 40
0.756
 50
265.426
 51
268.531
  0
ARC
  8
APS_GEOMETRY
 10
1292.488
 20
282.335
 40
3.379
 50
268.531
 51
270.0
  0
ARC
  8
APS_GEOMETRY
 10
1292.488
 20
281.532
 40
2.576
 50
270.0
 51
271.637
  0
ARC
  8
APS_GEOMETRY
 10
1292.43
 20
283.546
 40
4.591
 50
271.637
 51
272.862
  0
ARC
  8
APS_GEOMETRY
 10
1292.364
 20
284.867
 40
5.914
 50
272.862
 51
273.814
  0
ARC
  8
APS_GEOMETRY
 10
1292.141
 20
288.223
 40
9.276
 50
273.814
 51
274.574
  0
ARC
  8
APS_GEOMETRY
 10
1293.544
 20
269.973
 40
9.027
 50
93.72
 51
94.214
  0
ARC
  8
APS_GEOMETRY
 10
1293.244
 20
274.579
 40
4.412
 50
93.013
 51
93.72
  0
ARC
  8
APS_GEOMETRY
 10
1293.162
 20
276.139
 40
2.85
 50
91.918
 51
93.013
  0
ARC
  8
APS_GEOMETRY
 10
1293.098
 20
278.06
 40
0.928
 50
90.0
 51
91.918
  0
ARC
  8
APS_GEOMETRY
 10
1293.098
 20
277.782
 40
1.205
 50
73.82
 51
90.0
  0
ARC
  8
APS_GEOMETRY
 10
1293.217
 20
278.191
 40
0.779
 50
53.658
 51
73.82
  0
ARC
  8
APS_GEOMETRY
 10
1293.386
 20
278.422
 40
0.493
 50
26.03
 51
53.569
  0
ARC
  8
APS_GEOMETRY
 10
1293.334
 20
278.397
 40
0.551
 50
360.0
 51
26.03
  0
ARC
  8
APS_GEOMETRY
 10
1293.312
 20
278.397
 40
0.572
 50
345.282
 51
360.0
  0
ARC
  8
APS_GEOMETRY
 10
1293.367
 20
278.382
 40
0.515
 50
329.767
 51
345.282
  0
ARC
  8
APS_GEOMETRY
 10
1293.398
 20
278.364
 40
0.479
 50
313.168
 51
329.767
  0
ARC
  8
APS_GEOMETRY
 10
1293.41
 20
278.352
 40
0.462
 50
296.267
 51
313.168
  0
ARC
  8
APS_GEOMETRY
 10
1293.673
 20
277.82
 40
0.131
 50
116.565
 51
139.899
  0
ARC
  8
APS_GEOMETRY
 10
1293.608
 20
277.875
 40
0.046
 50
139.899
 51
180.0
  0
ARC
  8
APS_GEOMETRY
 10
1293.613
 20
277.875
 40
0.051
 50
180.0
 51
226.193
  0
ARC
  8
APS_GEOMETRY
 10
1293.706
 20
277.973
 40
0.186
 50
226.193
 51
249.829
  0
ARC
  8
APS_GEOMETRY
 10
1293.438
 20
277.235
 40
0.599
 50
53.249
 51
70.105
  0
ARC
  8
APS_GEOMETRY
 10
1293.56
 20
277.398
 40
0.396
 50
32.471
 51
53.249
  0
ARC
  8
APS_GEOMETRY
 10
1293.503
 20
277.362
 40
0.463
 50
23.305
 51
32.471
  0
ARC
  8
APS_GEOMETRY
 10
1293.153
 20
277.211
 40
0.845
 50
16.521
 51
23.305
  0
ARC
  8
APS_GEOMETRY
 10
1292.88
 20
277.13
 40
1.13
 50
11.429
 51
16.521
  0
ARC
  8
APS_GEOMETRY
 10
1292.105
 20
276.973
 40
1.92
 50
7.524
 51
11.429
  0
ARC
  8
APS_GEOMETRY
 10
1294.671
 20
277.315
 40
0.669
 50
187.765
 51
196.914
  0
ARC
  8
APS_GEOMETRY
 10
1294.124
 20
277.149
 40
0.097
 50
196.914
 51
221.082
  0
ARC
  8
APS_GEOMETRY
 10
1294.126
 20
277.15
 40
0.1
 50
221.082
 51
244.607
  0
ARC
  8
APS_GEOMETRY
 10
1294.36
 20
277.643
 40
0.645
 50
244.607
 51
253.811
  0
ARC
  8
APS_GEOMETRY
 10
1294.155
 20
276.942
 40
0.085
 50
51.45
 51
72.474
  0
ARC
  8
APS_GEOMETRY
 10
1294.134
 20
276.916
 40
0.119
 50
33.69
 51
51.45
  0
ARC
  8
APS_GEOMETRY
 10
1294.129
 20
276.912
 40
0.125
 50
16.639
 51
33.69
  0
ARC
  8
APS_GEOMETRY
 10
1294.123
 20
276.911
 40
0.131
 50
360.0
 51
16.639
  0
ARC
  8
APS_GEOMETRY
 10
1294.121
 20
276.911
 40
0.133
 50
338.993
 51
360.0
  0
ARC
  8
APS_GEOMETRY
 10
1294.04
 20
276.942
 40
0.22
 50
322.696
 51
338.993
  0
ARC
  8
APS_GEOMETRY
 10
1294.009
 20
276.965
 40
0.258
 50
308.603
 51
322.696
  0
ARC
  8
APS_GEOMETRY
 10
1293.988
 20
276.991
 40
0.292
 50
295.346
 51
308.603
  0
ARC
  8
APS_GEOMETRY
 10
1293.879
 20
277.232
 40
0.557
 50
279.583
 51
294.905
  0
ARC
  8
APS_GEOMETRY
 10
1293.736
 20
278.081
 40
1.418
 50
270.0
 51
279.583
  0
ARC
  8
APS_GEOMETRY
 10
1293.736
 20
277.697
 40
1.034
 50
261.247
 51
270.0
  0
ARC
  8
APS_GEOMETRY
 10
1293.669
 20
277.267
 40
0.598
 50
249.737
 51
261.247
  0
ARC
  8
APS_GEOMETRY
 10
1293.626
 20
277.149
 40
0.473
 50
235.345
 51
249.737
  0
ARC
  8
APS_GEOMETRY
 10
1293.571
 20
277.07
 40
0.376
 50
219.198
 51
235.345
  0
ARC
  8
APS_GEOMETRY
 10
1293.687
 20
277.168
 40
0.528
 50
209.076
 51
219.56
  0
ARC
  8
APS_GEOMETRY
 10
1293.954
 20
277.317
 40
0.834
 50
200.735
 51
209.076
  0
ARC
  8
APS_GEOMETRY
 10
1294.322
 20
277.456
 40
1.228
 50
197.881
 51
200.735
  0
ARC
  8
APS_GEOMETRY
 10
1295.836
 20
277.945
 40
2.819
 50
195.997
 51
197.881
  0
ARC
  8
APS_GEOMETRY
 10
1296.955
 20
278.266
 40
3.983
 50
194.664
 51
195.997
  0
ARC
  8
APS_GEOMETRY
 10
1300.055
 20
279.077
 40
7.187
 50
193.671
 51
194.664
  0
ARC
  8
APS_GEOMETRY
 10
1292.194
 20
277.166
 40
0.903
 50
13.61
 51
23.585
  0
ARC
  8
APS_GEOMETRY
 10
1292.785
 20
277.424
 40
0.258
 50
23.585
 51
42.31
  0
ARC
  8
APS_GEOMETRY
 10
1292.839
 20
277.473
 40
0.185
 50
42.31
 51
67.521
  0
ARC
  8
APS_GEOMETRY
 10
1292.797
 20
277.37
 40
0.296
 50
67.521
 51
87.397
  0
LINE
  8
APS_GEOMETRY
 10
1292.717
 11
1292.699
 20
278.5
 21
278.119
  0
LINE
  8
APS_GEOMETRY
 10
1292.699
 11
1292.699
 20
278.119
 21
278.113
  0
LINE
  8
APS_GEOMETRY
 10
1292.699
 11
1292.699
 20
278.113
 21
278.104
  0
ARC
  8
APS_GEOMETRY
 10
1292.964
 20
278.104
 40
0.265
 50
180.0
 51
192.339
  0
ARC
  8
APS_GEOMETRY
 10
1292.753
 20
278.058
 40
0.049
 50
192.339
 51
221.186
  0
ARC
  8
APS_GEOMETRY
 10
1292.748
 20
278.054
 40
0.043
 50
221.186
 51
253.872
  0
ARC
  8
APS_GEOMETRY
 10
1292.784
 20
278.178
 40
0.171
 50
253.872
 51
270.0
  0
ARC
  8
APS_GEOMETRY
 10
1292.784
 20
278.405
 40
0.399
 50
270.0
 51
289.569
  0
ARC
  8
APS_GEOMETRY
 10
1292.856
 20
278.201
 40
0.182
 50
289.569
 51
318.681
  0
ARC
  8
APS_GEOMETRY
 10
1292.837
 20
278.218
 40
0.208
 50
318.681
 51
344.628
  0
ARC
  8
APS_GEOMETRY
 10
1292.472
 20
278.318
 40
0.587
 50
344.628
 51
0.0
  0
ARC
  8
APS_GEOMETRY
 10
1292.645
 20
278.318
 40
0.413
 50
0.0
 51
35.369
  0
ARC
  8
APS_GEOMETRY
 10
1292.835
 20
278.453
 40
0.181
 50
35.369
 51
90.0
  0
ARC
  8
APS_GEOMETRY
 10
1292.835
 20
278.451
 40
0.183
 50
90.0
 51
108.435
  0
ARC
  8
APS_GEOMETRY
 10
1292.799
 20
278.558
 40
0.07
 50
108.435
 51
138.366
  0
ARC
  8
APS_GEOMETRY
 10
1292.808
 20
278.549
 40
0.083
 50
138.366
 51
164.291
  0
ARC
  8
APS_GEOMETRY
 10
1293.033
 20
278.486
 40
0.316
 50
164.291
 51
177.51
  0
LINE
  8
APS_GEOMETRY
 10
1295.243
 11
1296.104
 20
278.959
 21
278.959
  0
ARC
  8
APS_GEOMETRY
 10
1296.061
 20
280.194
 40
1.236
 50
272.021
 51
278.44
  0
ARC
  8
APS_GEOMETRY
 10
1296.109
 20
279.866
 40
0.904
 50
278.44
 51
285.945
  0
ARC
  8
APS_GEOMETRY
 10
1296.475
 20
278.557
 40
0.456
 50
98.584
 51
104.931
  0
ARC
  8
APS_GEOMETRY
 10
1296.444
 20
278.761
 40
0.25
 50
90.0
 51
98.584
  0
ARC
  8
APS_GEOMETRY
 10
1296.444
 20
278.823
 40
0.188
 50
52.871
 51
90.0
  0
ARC
  8
APS_GEOMETRY
 10
1296.19
 20
278.486
 40
0.609
 50
32.518
 51
52.871
  0
ARC
  8
APS_GEOMETRY
 10
1295.988
 20
278.358
 40
0.848
 50
17.209
 51
32.518
  0
ARC
  8
APS_GEOMETRY
 10
1296.156
 20
278.41
 40
0.672
 50
360.0
 51
17.209
  0
ARC
  8
APS_GEOMETRY
 10
1296.493
 20
278.41
 40
0.336
 50
337.348
 51
360.0
  0
ARC
  8
APS_GEOMETRY
 10
1296.628
 20
278.354
 40
0.19
 50
307.042
 51
337.348
  0
ARC
  8
APS_GEOMETRY
 10
1296.604
 20
278.386
 40
0.229
 50
287.186
 51
306.87
  0
ARC
  8
APS_GEOMETRY
 10
1296.583
 20
278.454
 40
0.3
 50
270.0
 51
287.186
  0
ARC
  8
APS_GEOMETRY
 10
1296.583
 20
278.423
 40
0.27
 50
252.221
 51
270.0
  0
ARC
  8
APS_GEOMETRY
 10
1296.571
 20
278.384
 40
0.229
 50
232.896
 51
252.221
  0
ARC
  8
APS_GEOMETRY
 10
1296.619
 20
278.448
 40
0.309
 50
218.3
 51
232.896
  0
ARC
  8
APS_GEOMETRY
 10
1296.998
 20
278.747
 40
0.792
 50
209.197
 51
218.3
  0
ARC
  8
APS_GEOMETRY
 10
1295.071
 20
277.703
 40
1.401
 50
28.025
 51
32.699
  0
ARC
  8
APS_GEOMETRY
 10
1296.078
 20
278.35
 40
0.203
 50
32.699
 51
45.0
  0
ARC
  8
APS_GEOMETRY
 10
1296.147
 20
278.419
 40
0.106
 50
45.0
 51
67.557
  0
ARC
  8
APS_GEOMETRY
 10
1296.147
 20
278.418
 40
0.107
 50
67.557
 51
90.0
  0
ARC
  8
APS_GEOMETRY
 10
1296.147
 20
278.426
 40
0.098
 50
90.0
 51
120.801
  0
ARC
  8
APS_GEOMETRY
 10
1296.143
 20
278.432
 40
0.092
 50
120.801
 51
152.7
  0
ARC
  8
APS_GEOMETRY
 10
1296.216
 20
278.394
 40
0.174
 50
152.7
 51
171.085
  0
ARC
  8
APS_GEOMETRY
 10
1296.771
 20
278.307
 40
0.735
 50
171.085
 51
180.0
  0
LINE
  8
APS_GEOMETRY
 10
1296.036
 11
1296.036
 20
278.307
 21
277.391
  0
ARC
  8
APS_GEOMETRY
 10
1297.007
 20
277.391
 40
0.971
 50
180.0
 51
188.194
  0
ARC
  8
APS_GEOMETRY
 10
1296.282
 20
277.287
 40
0.238
 50
188.194
 51
204.775
  0
ARC
  8
APS_GEOMETRY
 10
1296.211
 20
277.254
 40
0.161
 50
204.775
 51
228.576
  0
ARC
  8
APS_GEOMETRY
 10
1296.277
 20
277.329
 40
0.261
 50
228.576
 51
247.218
  0
ARC
  8
APS_GEOMETRY
 10
1295.894
 20
276.426
 40
0.721
 50
59.381
 51
66.93
  0
ARC
  8
APS_GEOMETRY
 10
1296.177
 20
276.904
 40
0.165
 50
43.568
 51
59.381
  0
ARC
  8
APS_GEOMETRY
 10
1296.222
 20
276.947
 40
0.103
 50
19.041
 51
43.568
  0
ARC
  8
APS_GEOMETRY
 10
1296.159
 20
276.925
 40
0.169
 50
360.0
 51
19.041
  0
ARC
  8
APS_GEOMETRY
 10
1296.191
 20
276.925
 40
0.137
 50
317.66
 51
360.0
  0
ARC
  8
APS_GEOMETRY
 10
1296.065
 20
277.04
 40
0.308
 50
289.747
 51
317.66
  0
ARC
  8
APS_GEOMETRY
 10
1295.959
 20
277.334
 40
0.621
 50
281.964
 51
289.747
  0
ARC
  8
APS_GEOMETRY
 10
1295.813
 20
278.025
 40
1.327
 50
276.643
 51
281.964
  0
ARC
  8
APS_GEOMETRY
 10
1295.751
 20
278.554
 40
1.859
 50
272.836
 51
276.643
  0
ARC
  8
APS_GEOMETRY
 10
1295.677
 20
280.043
 40
3.35
 50
270.0
 51
272.836
  0
ARC
  8
APS_GEOMETRY
 10
1295.677
 20
280.965
 40
4.272
 50
267.283
 51
270.0
  0
ARC
  8
APS_GEOMETRY
 10
1295.588
 20
279.075
 40
2.38
 50
263.643
 51
267.283
  0
ARC
  8
APS_GEOMETRY
 10
1295.513
 20
278.401
 40
1.701
 50
258.563
 51
263.643
  0
ARC
  8
APS_GEOMETRY
 10
1295.333
 20
277.514
 40
0.796
 50
251.136
 51
258.563
  0
ARC
  8
APS_GEOMETRY
 10
1295.173
 20
277.049
 40
0.305
 50
222.558
 51
251.395
  0
ARC
  8
APS_GEOMETRY
 10
1295.054
 20
276.94
 40
0.144
 50
180.0
 51
222.558
  0
ARC
  8
APS_GEOMETRY
 10
1295.03
 20
276.94
 40
0.12
 50
150.642
 51
180.0
  0
ARC
  8
APS_GEOMETRY
 10
1295.04
 20
276.935
 40
0.131
 50
122.574
 51
150.642
  0
ARC
  8
APS_GEOMETRY
 10
1295.014
 20
276.964
 40
0.093
 50
108.677
 51
119.055
  0
ARC
  8
APS_GEOMETRY
 10
1296.17
 20
273.545
 40
3.702
 50
107.038
 51
108.677
  0
ARC
  8
APS_GEOMETRY
 10
1295.042
 20
277.233
 40
0.155
 50
286.144
 51
308.66
  0
ARC
  8
APS_GEOMETRY
 10
1295.068
 20
277.201
 40
0.114
 50
308.66
 51
334.933
  0
ARC
  8
APS_GEOMETRY
 10
1294.965
 20
277.249
 40
0.228
 50
334.933
 51
348.829
  0
ARC
  8
APS_GEOMETRY
 10
1293.673
 20
277.504
 40
1.545
 50
348.829
 51
354.161
  0
ARC
  8
APS_GEOMETRY
 10
1292.801
 20
277.594
 40
2.422
 50
354.144
 51
355.66
  0
ARC
  8
APS_GEOMETRY
 10
1288.932
 20
277.888
 40
6.302
 50
355.66
 51
356.6
  0
ARC
  8
APS_GEOMETRY
 10
1285.974
 20
278.064
 40
9.265
 50
356.6
 51
357.24
  0
ARC
  8
APS_GEOMETRY
 10
1277.583
 20
278.468
 40
17.666
 50
357.24
 51
357.703
  0
ARC
  8
APS_GEOMETRY
 10
1278.409
 20
278.435
 40
16.839
 50
357.703
 51
358.674
  0
ARC
  8
APS_GEOMETRY
 10
1286.201
 20
278.255
 40
9.045
 50
358.674
 51
0.0
  0
ARC
  8
APS_GEOMETRY
 10
1293.905
 20
278.255
 40
1.341
 50
360.0
 51
6.242
  0
ARC
  8
APS_GEOMETRY
 10
1294.971
 20
278.371
 40
0.268
 50
6.242
 51
20.225
  0
ARC
  8
APS_GEOMETRY
 10
1295.119
 20
278.426
 40
0.111
 50
20.225
 51
50.44
  0
ARC
  8
APS_GEOMETRY
 10
1295.148
 20
278.46
 40
0.066
 50
50.44
 51
90.0
  0
ARC
  8
APS_GEOMETRY
 10
1295.148
 20
278.438
 40
0.088
 50
90.0
 51
126.747
  0
ARC
  8
APS_GEOMETRY
 10
1295.272
 20
278.271
 40
0.296
 50
126.747
 51
146.547
  0
ARC
  8
APS_GEOMETRY
 10
1293.073
 20
279.717
 40
2.336
 50
324.255
 51
326.701
  0
ARC
  8
APS_GEOMETRY
 10
1294.004
 20
279.047
 40
1.188
 50
320.826
 51
324.255
  0
ARC
  8
APS_GEOMETRY
 10
1294.308
 20
278.799
 40
0.796
 50
315.722
 51
320.826
  0
ARC
  8
APS_GEOMETRY
 10
1294.658
 20
278.458
 40
0.307
 50
307.504
 51
315.722
  0
ARC
  8
APS_GEOMETRY
 10
1294.626
 20
278.501
 40
0.361
 50
291.306
 51
307.405
  0
ARC
  8
APS_GEOMETRY
 10
1294.682
 20
278.357
 40
0.207
 50
270.0
 51
291.306
  0
ARC
  8
APS_GEOMETRY
 10
1294.682
 20
278.344
 40
0.194
 50
245.532
 51
270.0
  0
ARC
  8
APS_GEOMETRY
 10
1294.68
 20
278.341
 40
0.19
 50
220.833
 51
245.532
  0
ARC
  8
APS_GEOMETRY
 10
1294.7
 20
278.358
 40
0.216
 50
198.684
 51
220.833
  0
ARC
  8
APS_GEOMETRY
 10
1294.782
 20
278.386
 40
0.303
 50
180.0
 51
198.684
  0
ARC
  8
APS_GEOMETRY
 10
1294.974
 20
278.386
 40
0.495
 50
168.408
 51
180.0
  0
ARC
  8
APS_GEOMETRY
 10
1295.292
 20
278.32
 40
0.82
 50
159.402
 51
168.408
  0
ARC
  8
APS_GEOMETRY
 10
1295.39
 20
278.283
 40
0.924
 50
151.39
 51
159.402
  0
ARC
  8
APS_GEOMETRY
 10
1295.37
 20
278.294
 40
0.902
 50
143.276
 51
151.39
  0
ARC
  8
APS_GEOMETRY
 10
1295.117
 20
278.483
 40
0.586
 50
124.216
 51
143.31
  0
ARC
  8
APS_GEOMETRY
 10
1294.893
 20
278.814
 40
0.186
 50
90.0
 51
124.216
  0
ARC
  8
APS_GEOMETRY
 10
1294.893
 20
278.731
 40
0.269
 50
82.725
 51
90.0
  0
ARC
  8
APS_GEOMETRY
 10
1294.872
 20
278.566
 40
0.435
 50
77.005
 51
82.725
  0
ARC
  8
APS_GEOMETRY
 10
1295.514
 20
281.664
 40
2.728
 50
258.486
 51
260.378
  0
ARC
  8
APS_GEOMETRY
 10
1295.239
 20
280.04
 40
1.082
 50
260.378
 51
263.382
  0
ARC
  8
APS_GEOMETRY
 10
1295.215
 20
279.838
 40
0.877
 50
263.382
 51
267.084
  0
ARC
  8
APS_GEOMETRY
 10
1295.243
 20
280.373
 40
1.414
 50
267.084
 51
270.0
  0
LINE
  8
APS_GEOMETRY
 10
1297.413
 11
1298.254
 20
278.959
 21
278.959
  0
ARC
  8
APS_GEOMETRY
 10
1298.254
 20
289.545
 40
10.586
 50
270.0
 51
270.69
  0
ARC
  8
APS_GEOMETRY
 10
1298.314
 20
284.593
 40
5.633
 50
270.69
 51
271.637
  0
ARC
  8
APS_GEOMETRY
 10
1298.364
 20
282.833
 40
3.872
 50
271.637
 51
273.013
  0
ARC
  8
APS_GEOMETRY
 10
1298.486
 20
280.505
 40
1.541
 50
273.013
 51
275.194
  0
ARC
  8
APS_GEOMETRY
 10
1298.517
 20
280.171
 40
1.206
 50
275.194
 51
280.756
  0
ARC
  8
APS_GEOMETRY
 10
1298.522
 20
280.141
 40
1.175
 50
280.756
 51
286.39
  0
ARC
  8
APS_GEOMETRY
 10
1298.953
 20
278.666
 40
0.361
 50
100.305
 51
105.945
  0
ARC
  8
APS_GEOMETRY
 10
1298.908
 20
278.915
 40
0.108
 50
90.0
 51
100.305
  0
ARC
  8
APS_GEOMETRY
 10
1298.908
 20
278.876
 40
0.147
 50
58.946
 51
90.0
  0
ARC
  8
APS_GEOMETRY
 10
1298.852
 20
278.783
 40
0.256
 50
35.538
 51
58.946
  0
ARC
  8
APS_GEOMETRY
 10
1298.632
 20
278.621
 40
0.528
 50
16.699
 51
35.952
  0
ARC
  8
APS_GEOMETRY
 10
1298.467
 20
278.572
 40
0.701
 50
360.0
 51
16.699
  0
ARC
  8
APS_GEOMETRY
 10
1298.775
 20
278.572
 40
0.393
 50
344.982
 51
360.0
  0
ARC
  8
APS_GEOMETRY
 10
1298.963
 20
278.521
 40
0.198
 50
323.746
 51
344.982
  0
ARC
  8
APS_GEOMETRY
 10
1299.005
 20
278.491
 40
0.146
 50
296.114
 51
323.746
  0
ARC
  8
APS_GEOMETRY
 10
1298.998
 20
278.506
 40
0.163
 50
270.0
 51
296.114
  0
ARC
  8
APS_GEOMETRY
 10
1298.998
 20
278.547
 40
0.204
 50
255.311
 51
270.0
  0
ARC
  8
APS_GEOMETRY
 10
1298.971
 20
278.443
 40
0.097
 50
233.881
 51
255.311
  0
ARC
  8
APS_GEOMETRY
 10
1298.999
 20
278.482
 40
0.145
 50
219.289
 51
233.881
  0
ARC
  8
APS_GEOMETRY
 10
1299.576
 20
278.954
 40
0.89
 50
213.408
 51
219.289
  0
ARC
  8
APS_GEOMETRY
 10
1298.496
 20
278.243
 40
0.403
 50
33.294
 51
51.246
  0
ARC
  8
APS_GEOMETRY
 10
1298.551
 20
278.311
 40
0.315
 50
51.246
 51
71.565
  0
ARC
  8
APS_GEOMETRY
 10
1298.514
 20
278.202
 40
0.43
 50
71.565
 51
79.278
  0
ARC
  8
APS_GEOMETRY
 10
1298.398
 20
277.587
 40
1.056
 50
79.278
 51
84.2
  0
ARC
  8
APS_GEOMETRY
 10
1298.348
 20
277.099
 40
1.547
 50
84.2
 51
87.567
  0
ARC
  8
APS_GEOMETRY
 10
1298.288
 20
275.685
 40
2.963
 50
87.567
 51
90.0
  0
ARC
  8
APS_GEOMETRY
 10
1298.288
 20
277.814
 40
0.833
 50
90.0
 51
96.374
  0
ARC
  8
APS_GEOMETRY
 10
1298.233
 20
278.309
 40
0.335
 50
96.374
 51
106.434
  0
ARC
  8
APS_GEOMETRY
 10
1298.194
 20
278.442
 40
0.196
 50
106.434
 51
123.056
  0
ARC
  8
APS_GEOMETRY
 10
1298.132
 20
278.537
 40
0.084
 50
123.056
 51
148.627
  0
ARC
  8
APS_GEOMETRY
 10
1298.188
 20
278.505
 40
0.148
 50
149.421
 51
165.28
  0
ARC
  8
APS_GEOMETRY
 10
1298.35
 20
278.462
 40
0.315
 50
165.28
 51
176.135
  0
ARC
  8
APS_GEOMETRY
 10
1298.812
 20
278.431
 40
0.778
 50
176.135
 51
178.367
  0
ARC
  8
APS_GEOMETRY
 10
1303.087
 20
278.309
 40
5.055
 50
178.367
 51
179.242
  0
ARC
  8
APS_GEOMETRY
 10
1307.506
 20
278.251
 40
9.474
 50
179.242
 51
179.709
  0
ARC
  8
APS_GEOMETRY
 10
1322.538
 20
278.175
 40
24.507
 50
179.709
 51
180.0
  0
ARC
  8
APS_GEOMETRY
 10
1298.386
 20
278.175
 40
0.355
 50
180.0
 51
195.027
  0
ARC
  8
APS_GEOMETRY
 10
1298.096
 20
278.097
 40
0.054
 50
195.027
 51
234.058
  0
ARC
  8
APS_GEOMETRY
 10
1298.099
 20
278.101
 40
0.059
 50
234.058
 51
253.191
  0
ARC
  8
APS_GEOMETRY
 10
1298.161
 20
278.305
 40
0.273
 50
253.191
 51
262.063
  0
ARC
  8
APS_GEOMETRY
 10
1298.192
 20
278.533
 40
0.503
 50
262.063
 51
266.949
  0
ARC
  8
APS_GEOMETRY
 10
1298.234
 20
279.317
 40
1.288
 50
266.949
 51
270.0
  0
ARC
  8
APS_GEOMETRY
 10
1298.234
 20
278.265
 40
0.236
 50
270.0
 51
286.007
  0
ARC
  8
APS_GEOMETRY
 10
1298.276
 20
278.121
 40
0.086
 50
286.007
 51
312.647
  0
ARC
  8
APS_GEOMETRY
 10
1298.275
 20
278.122
 40
0.088
 50
312.647
 51
338.993
  0
ARC
  8
APS_GEOMETRY
 10
1298.096
 20
278.191
 40
0.279
 50
338.993
 51
353.66
  0
ARC
  8
APS_GEOMETRY
 10
1299.942
 20
277.971
 40
1.58
 50
169.663
 51
173.118
  0
ARC
  8
APS_GEOMETRY
 10
1298.622
 20
278.211
 40
0.239
 50
160.769
 51
169.663
  0
ARC
  8
APS_GEOMETRY
 10
1298.512
 20
278.25
 40
0.122
 50
143.746
 51
160.769
  0
ARC
  8
APS_GEOMETRY
 10
1298.539
 20
278.23
 40
0.155
 50
128.66
 51
143.746
  0
ARC
  8
APS_GEOMETRY
 10
1298.521
 20
278.259
 40
0.121
 50
110.171
 51
130.601
  0
ARC
  8
APS_GEOMETRY
 10
1298.522
 20
278.256
 40
0.125
 50
90.0
 51
110.171
  0
ARC
  8
APS_GEOMETRY
 10
1298.522
 20
278.254
 40
0.126
 50
61.22
 51
90.0
  0
ARC
  8
APS_GEOMETRY
 10
1298.5
 20
278.214
 40
0.172
 50
36.634
 51
61.22
  0
ARC
  8
APS_GEOMETRY
 10
1298.479
 20
278.202
 40
0.196
 50
19.103
 51
35.91
  0
ARC
  8
APS_GEOMETRY
 10
1297.84
 20
277.98
 40
0.873
 50
11.16
 51
19.103
  0
ARC
  8
APS_GEOMETRY
 10
1297.505
 20
277.914
 40
1.214
 50
5.396
 51
11.16
  0
ARC
  8
APS_GEOMETRY
 10
1297.335
 20
277.898
 40
1.385
 50
0.0
 51
5.396
  0
ARC
  8
APS_GEOMETRY
 10
1297.359
 20
277.898
 40
1.361
 50
349.287
 51
0.0
  0
ARC
  8
APS_GEOMETRY
 10
1298.027
 20
277.772
 40
0.681
 50
334.12
 51
349.287
  0
ARC
  8
APS_GEOMETRY
 10
1298.487
 20
277.55
 40
0.17
 50
303.53
 51
333.853
  0
ARC
  8
APS_GEOMETRY
 10
1298.504
 20
277.524
 40
0.14
 50
270.0
 51
303.53
  0
ARC
  8
APS_GEOMETRY
 10
1298.504
 20
277.531
 40
0.146
 50
249.578
 51
270.0
  0
ARC
  8
APS_GEOMETRY
 10
1298.473
 20
277.447
 40
0.057
 50
216.607
 51
249.578
  0
ARC
  8
APS_GEOMETRY
 10
1298.503
 20
277.469
 40
0.094
 50
195.422
 51
216.607
  0
ARC
  8
APS_GEOMETRY
 10
1299.016
 20
277.611
 40
0.626
 50
187.253
 51
195.422
  0
ARC
  8
APS_GEOMETRY
 10
1298.187
 20
277.504
 40
0.209
 50
7.561
 51
49.434
  0
ARC
  8
APS_GEOMETRY
 10
1298.179
 20
277.494
 40
0.222
 50
49.434
 51
90.0
  0
ARC
  8
APS_GEOMETRY
 10
1298.179
 20
277.567
 40
0.15
 50
90.0
 51
115.224
  0
ARC
  8
APS_GEOMETRY
 10
1298.149
 20
277.63
 40
0.08
 50
115.224
 51
149.931
  0
ARC
  8
APS_GEOMETRY
 10
1298.203
 20
277.599
 40
0.142
 50
149.931
 51
171.111
  0
ARC
  8
APS_GEOMETRY
 10
1298.851
 20
277.498
 40
0.798
 50
171.111
 51
180.0
  0
ARC
  8
APS_GEOMETRY
 10
1299.49
 20
277.498
 40
1.437
 50
180.0
 51
183.062
  0
ARC
  8
APS_GEOMETRY
 10
1301.689
 20
277.615
 40
3.639
 50
183.062
 51
184.986
  0
ARC
  8
APS_GEOMETRY
 10
1300.535
 20
277.515
 40
2.481
 50
184.986
 51
187.804
  0
ARC
  8
APS_GEOMETRY
 10
1298.35
 20
277.215
 40
0.276
 50
187.804
 51
196.26
  0
ARC
  8
APS_GEOMETRY
 10
1298.158
 20
277.157
 40
0.075
 50
194.931
 51
230.024
  0
ARC
  8
APS_GEOMETRY
 10
1298.207
 20
277.216
 40
0.151
 50
230.024
 51
254.511
  0
ARC
  8
APS_GEOMETRY
 10
1298.266
 20
277.431
 40
0.374
 50
254.511
 51
265.219
  0
ARC
  8
APS_GEOMETRY
 10
1298.391
 20
278.924
 40
1.873
 50
265.219
 51
270.0
  0
ARC
  8
APS_GEOMETRY
 10
1298.391
 20
278.726
 40
1.675
 50
270.0
 51
274.186
  0
ARC
  8
APS_GEOMETRY
 10
1298.442
 20
278.03
 40
0.977
 50
274.186
 51
279.668
  0
ARC
  8
APS_GEOMETRY
 10
1298.484
 20
277.785
 40
0.728
 50
279.668
 51
286.991
  0
ARC
  8
APS_GEOMETRY
 10
1298.58
 20
277.472
 40
0.401
 50
286.991
 51
296.866
  0
ARC
  8
APS_GEOMETRY
 10
1298.599
 20
277.433
 40
0.357
 50
296.866
 51
318.366
  0
ARC
  8
APS_GEOMETRY
 10
1298.4
 20
277.61
 40
0.624
 50
318.366
 51
334.581
  0
ARC
  8
APS_GEOMETRY
 10
1299.716
 20
276.979
 40
0.836
 50
147.08
 51
154.231
  0
ARC
  8
APS_GEOMETRY
 10
1299.166
 20
277.335
 40
0.18
 50
131.634
 51
147.08
  0
ARC
  8
APS_GEOMETRY
 10
1299.125
 20
277.381
 40
0.118
 50
108.875
 51
131.634
  0
ARC
  8
APS_GEOMETRY
 10
1299.142
 20
277.331
 40
0.171
 50
90.0
 51
108.875
  0
ARC
  8
APS_GEOMETRY
 10
1299.142
 20
277.366
 40
0.136
 50
62.628
 51
90.0
  0
ARC
  8
APS_GEOMETRY
 10
1299.133
 20
277.349
 40
0.155
 50
36.995
 51
62.628
  0
ARC
  8
APS_GEOMETRY
 10
1299.094
 20
277.32
 40
0.204
 50
16.728
 51
36.995
  0
ARC
  8
APS_GEOMETRY
 10
1299.004
 20
277.293
 40
0.298
 50
360.0
 51
16.728
  0
ARC
  8
APS_GEOMETRY
 10
1298.825
 20
277.293
 40
0.477
 50
348.323
 51
360.0
  0
ARC
  8
APS_GEOMETRY
 10
1298.11
 20
277.441
 40
1.207
 50
340.994
 51
348.323
  0
ARC
  8
APS_GEOMETRY
 10
1297.94
 20
277.5
 40
1.387
 50
334.592
 51
340.994
  0
ARC
  8
APS_GEOMETRY
 10
1298.236
 20
277.359
 40
1.059
 50
327.265
 51
334.592
  0
ARC
  8
APS_GEOMETRY
 10
1298.58
 20
277.156
 40
0.66
 50
320.133
 51
325.923
  0
ARC
  8
APS_GEOMETRY
 10
1298.981
 20
276.822
 40
0.139
 50
307.476
 51
320.133
  0
ARC
  8
APS_GEOMETRY
 10
1299.016
 20
276.776
 40
0.081
 50
286.429
 51
307.476
  0
ARC
  8
APS_GEOMETRY
 10
1299.001
 20
276.825
 40
0.132
 50
270.0
 51
286.429
  0
ARC
  8
APS_GEOMETRY
 10
1299.001
 20
276.978
 40
0.285
 50
263.774
 51
270.0
  0
ARC
  8
APS_GEOMETRY
 10
1299.085
 20
277.743
 40
1.055
 50
260.538
 51
263.774
  0
ARC
  8
APS_GEOMETRY
 10
1298.711
 20
275.636
 40
1.086
 50
79.38
 51
84.987
  0
ARC
  8
APS_GEOMETRY
 10
1298.549
 20
273.79
 40
2.938
 50
84.987
 51
88.394
  0
LINE
  8
APS_GEOMETRY
 10
1298.632
 11
1297.245
 20
276.727
 21
276.727
  0
ARC
  8
APS_GEOMETRY
 10
1297.245
 20
277.018
 40
0.29
 50
254.103
 51
270.0
  0
ARC
  8
APS_GEOMETRY
 10
1297.204
 20
276.874
 40
0.141
 50
231.216
 51
254.103
  0
ARC
  8
APS_GEOMETRY
 10
1297.187
 20
276.853
 40
0.114
 50
203.795
 51
231.216
  0
ARC
  8
APS_GEOMETRY
 10
1297.221
 20
276.868
 40
0.151
 50
180.0
 51
203.795
  0
ARC
  8
APS_GEOMETRY
 10
1297.234
 20
276.868
 40
0.164
 50
164.055
 51
180.0
  0
ARC
  8
APS_GEOMETRY
 10
1297.133
 20
276.897
 40
0.059
 50
137.291
 51
164.055
  0
ARC
  8
APS_GEOMETRY
 10
1297.163
 20
276.869
 40
0.1
 50
120.964
 51
137.291
  0
ARC
  8
APS_GEOMETRY
 10
1297.488
 20
276.327
 40
0.732
 50
114.944
 51
120.964
  0
ARC
  8
APS_GEOMETRY
 10
1297.082
 20
277.215
 40
0.244
 50
293.429
 51
305.72
  0
ARC
  8
APS_GEOMETRY
 10
1297.15
 20
277.121
 40
0.129
 50
305.72
 51
322.651
  0
ARC
  8
APS_GEOMETRY
 10
1297.139
 20
277.129
 40
0.142
 50
322.651
 51
338.11
  0
ARC
  8
APS_GEOMETRY
 10
1296.936
 20
277.211
 40
0.361
 50
338.11
 51
347.8
  0
ARC
  8
APS_GEOMETRY
 10
1295.676
 20
277.487
 40
1.651
 50
347.672
 51
352.051
  0
ARC
  8
APS_GEOMETRY
 10
1294.457
 20
277.657
 40
2.882
 50
352.051
 51
355.365
  0
ARC
  8
APS_GEOMETRY
 10
1293.635
 20
277.724
 40
3.706
 50
355.365
 51
357.943
  0
ARC
  8
APS_GEOMETRY
 10
1291.515
 20
277.8
 40
5.828
 50
357.943
 51
0.0
  0
ARC
  8
APS_GEOMETRY
 10
1289.067
 20
277.8
 40
8.276
 50
360.0
 51
2.183
  0
ARC
  8
APS_GEOMETRY
 10
1294.016
 20
277.989
 40
3.324
 50
2.183
 51
5.629
  0
ARC
  8
APS_GEOMETRY
 10
1295.49
 20
278.134
 40
1.842
 50
5.629
 51
11.805
  0
ARC
  8
APS_GEOMETRY
 10
1296.921
 20
278.433
 40
0.38
 50
11.805
 51
25.419
  0
ARC
  8
APS_GEOMETRY
 10
1297.106
 20
278.517
 40
0.177
 50
26.565
 51
38.157
  0
ARC
  8
APS_GEOMETRY
 10
1297.188
 20
278.582
 40
0.073
 50
38.157
 51
56.31
  0
ARC
  8
APS_GEOMETRY
 10
1297.171
 20
278.556
 40
0.104
 50
56.31
 51
69.193
  0
ARC
  8
APS_GEOMETRY
 10
1296.927
 20
277.914
 40
0.791
 50
69.193
 51
73.856
  0
ARC
  8
APS_GEOMETRY
 10
1297.184
 20
278.799
 40
0.131
 50
216.87
 51
253.393
  0
ARC
  8
APS_GEOMETRY
 10
1297.182
 20
278.798
 40
0.129
 50
180.0
 51
216.87
  0
ARC
  8
APS_GEOMETRY
 10
1297.211
 20
278.798
 40
0.157
 50
161.565
 51
180.0
  0
ARC
  8
APS_GEOMETRY
 10
1297.205
 20
278.799
 40
0.151
 50
142.765
 51
161.565
  0
ARC
  8
APS_GEOMETRY
 10
1297.201
 20
278.802
 40
0.146
 50
123.425
 51
142.765
  0
ARC
  8
APS_GEOMETRY
 10
1297.205
 20
278.797
 40
0.152
 50
104.47
 51
123.425
  0
ARC
  8
APS_GEOMETRY
 10
1297.234
 20
278.654
 40
0.298
 50
96.724
 51
102.995
  0
ARC
  8
APS_GEOMETRY
 10
1297.324
 20
277.89
 40
1.067
 50
93.411
 51
96.724
  0
ARC
  8
APS_GEOMETRY
 10
1297.364
 20
277.219
 40
1.74
 50
91.375
 51
93.411
  0
ARC
  8
APS_GEOMETRY
 10
1297.413
 20
275.144
 40
3.815
 50
90.0
 51
91.375
  0
LINE
  8
COSTRUZIONI
 10
1253.736
 11
1453.736
 20
262.498
 21
262.498
  0
LINE
  8
COSTRUZIONI
 10
1453.736
 11
1453.736
 20
262.498
 21
282.498
  0
LINE
  8
COSTRUZIONI
 10
1453.736
 11
1253.736
 20
282.498
 21
282.498
  0
LINE
  8
COSTRUZIONI
 10
1253.736
 11
1253.736
 20
282.498
 21
262.498
  0
LINE
  8
COSTRUZIONI
 10
1300.321
 11
1300.321
 20
262.498
 21
282.498
  0
LINE
  8
COSTRUZIONI
 10
1433.847
 11
1433.847
 20
262.498
 21
282.498
  0
LINE
  8
COSTRUZIONI
 10
1453.736
 11
1300.321
 20
277.498
 21
277.498
  0
LINE
  8
COSTRUZIONI
 10
1433.847
 11
1453.736
 20
267.498
 21
267.498
  0
LINE
  8
COSTRUZIONI
 10
1300.321
 11
1453.736
 20
272.498
 21
272.498
  0
LINE
  8
COSTRUZIONI
 10
1403.166
 11
1403.166
 20
272.498
 21
277.498
  0
LINE
  8
COSTRUZIONI
 10
1353.658
 11
1353.658
 20
272.498
 21
277.498
  0
LINE
  8
QUOTATURA
 10
1327.39
 11
1327.39
 20
321.197
 21
309.137
  0
LINE
  8
QUOTATURA
 10
1372.39
 11
1372.39
 20
321.197
 21
309.137
  0
LINE
  8
QUOTATURA
 10
1327.39
 11
1344.81
 20
311.637
 21
311.637
  0
LINE
  8
QUOTATURA
 10
1354.97
 11
1372.39
 20
311.637
 21
311.637
  0
LINE
  8
QUOTATURA
 10
1332.39
 11
1327.39
 20
310.804
 21
311.637
  0
LINE
  8
QUOTATURA
 10
1327.39
 11
1332.39
 20
311.637
 21
312.471
  0
LINE
  8
QUOTATURA
 10
1332.39
 11
1332.39
 20
312.471
 21
310.804
  0
LINE
  8
QUOTATURA
 10
1367.39
 11
1372.39
 20
312.471
 21
311.637
  0
LINE
  8
QUOTATURA
 10
1372.39
 11
1367.39
 20
311.637
 21
310.804
  0
LINE
  8
QUOTATURA
 10
1367.39
 11
1367.39
 20
310.804
 21
312.471
  0
LINE
  8
APS_GEOMETRY
 10
1261.12
 11
1326.861
 20
326.697
 21
326.697
  0
LINE
  8
APS_GEOMETRY
 10
1326.861
 11
1327.39
 20
326.697
 21
323.697
  0
LINE
  8
APS_GEOMETRY
 10
1327.39
 11
1372.39
 20
323.697
 21
323.697
  0
LINE
  8
QUOTATURA
 10
1342.187
 11
1342.187
 20
342.907
 21
342.907
  0
LINE
  8
QUOTATURA
 10
1327.39
 11
1336.498
 20
342.907
 21
342.907
  0
LINE
  8
QUOTATURA
 10
1342.187
 11
1342.187
 20
342.907
 21
342.907
  0
LINE
  8
QUOTATURA
 10
1332.39
 11
1327.39
 20
342.073
 21
342.907
  0
LINE
  8
QUOTATURA
 10
1327.39
 11
1332.39
 20
342.907
 21
343.74
  0
LINE
  8
QUOTATURA
 10
1332.39
 11
1332.39
 20
343.74
 21
342.073
  0
LINE
  8
QUOTATURA
 10
1318.985
 11
1324.054
 20
342.568
 21
342.615
  0
LINE
  8
QUOTATURA
 10
1324.054
 11
1319.275
 20
342.615
 21
340.926
  0
LINE
  8
QUOTATURA
 10
1319.275
 11
1318.985
 20
340.926
 21
342.568
  0
ARC
  8
QUOTATURA
 10
1327.39
 20
323.697
 40
19.21
 50
90.0
 51
100.0
  0
LINE
  8
QUOTATURA
 10
1324.054
 11
1314.206
 20
342.615
 21
340.879
  0
LINE
  8
QUOTATURA
 10
1327.39
 11
1327.39
 20
337.783
 21
345.407
  0
LINE
  8
QUOTATURA
 10
1326.427
 11
1323.62
 20
329.159
 21
345.077
  0
TEXT
  8
QUOTATURA
 10
1885.242
 20
416.601
 30
0.0
 40
10.0
 50
0.0
  1
108
  0
TEXT
  8
QUOTATURA
 10
1803.054
 20
354.621
 30
0.0
 40
5.0
 50
0.0
  1
50
  0
TEXT
  8
QUOTATURA
 10
1846.188
 20
321.979
 30
0.0
 40
3.0
 50
0.0
  1
3
  0
TEXT
  8
QUOTATURA
 10
1804.766
 20
319.191
 30
0.0
 40
3.0
 50
0.0
  1
50
  0
TEXT
  8
QUOTATURA
 10
1787.359
 20
344.962
 30
0.0
 40
3.0
 50
0.0
  1
30°
  0
TEXT
  8
QUOTATURA
 10
2069.068
 20
416.601
 30
0.0
 40
10.0
 50
0.0
  1
108
  0
TEXT
  8
QUOTATURA
 10
1986.88
 20
354.621
 30
0.0
 40
5.0
 50
0.0
  1
50
  0
TEXT
  8
TEXT
 10
1931.979
 20
315.043
 30
0.0
 40
10.0
 50
0.0
  1
CORRETTORI 
  0
TEXT
  8
TEXT
 10
1931.979
 20
300.043
 30
0.0
 40
10.0
 50
0.0
  1
T03 = N310 N311
  0
TEXT
  8
TEXT
 10
1931.979
 20
285.043
 30
0.0
 40
10.0
 50
0.0
  1
T06 = N604 N605
  0
TEXT
  8
TEXT
 10
1931.979
 20
270.043
 30
0.0
 40
10.0
 50
0.0
  1

  0
TEXT
  8
TEXT
 10
1934.973
 20
485.708
 30
0.0
 40
10.0
 50
0.0
  1
T06
  0
TEXT
  8
TEXT
 10
1983.306
 20
487.418
 30
0.0
 40
10.0
 50
0.0
  1
T03
  0
TEXT
  8
QUOTATURA
 10
1391.244
 20
317.128
 30
0.0
 40
3.0
 50
0.0
  1
3
  0
TEXT
  8
TEXT
 10
1444.536
 20
268.354
 30
0.0
 40
2.0
 50
0.0
  1
B.Stefano
  0
TEXT
  8
TEXT
 10
1300.816
 20
280.631
 30
0.0
 40
1.5
 50
0.0
  1
file:
  0
TEXT
  8
TEXT
 10
1434.538
 20
280.6
 30
0.0
 40
1.5
 50
0.0
  1
data:
  0
TEXT
  8
TEXT
 10
1445.892
 20
278.62
 30
0.0
 40
2.0
 50
0.0
  1
27/06/24
  0
TEXT
  8
TEXT
 10
1445.993
 20
262.973
 30
0.0
 40
2.0
 50
0.0
  1
1 : 1 (A4)
  0
TEXT
  8
TEXT
 10
1434.351
 20
270.839
 30
0.0
 40
1.5
 50
0.0
  1
responsabile tecnico:
  0
TEXT
  8
TEXT
 10
1434.557
 20
265.6
 30
0.0
 40
1.5
 50
0.0
  1
scala:
  0
TEXT
  8
TEXT
 10
1254.612
 20
280.571
 30
0.0
 40
1.5
 50
0.0
  1
Ufficio tecnico:
  0
TEXT
  8
TEXT
 10
1254.512
 20
273.299
 30
0.0
 40
2.0
 50
0.0
  1
tel. 0577-68.54.26
  0
TEXT
  8
TEXT
 10
1254.512
 20
270.299
 30
0.0
 40
2.0
 50
0.0
  1
fax 0577-68.64.29
  0
TEXT
  8
TEXT
 10
1254.512
 20
267.299
 30
0.0
 40
2.0
 50
0.0
  1
e-mail: tecnico@toscocornici.it
  0
TEXT
  8
TEXT
 10
1254.512
 20
264.299
 30
0.0
 40
2.0
 50
0.0
  1
web: www.tosococornici.it
  0
TEXT
  8
TEXT
 10
1305.501
 20
278.573
 30
0.0
 40
2.0
 50
0.0
  1
UI-50_DETTAGLIO INCISIONE.ver45
  0
TEXT
  8
TEXT
 10
1300.816
 20
275.631
 30
0.0
 40
1.5
 50
0.0
  1
pezzo:
  0
TEXT
  8
TEXT
 10
1305.501
 20
273.573
 30
0.0
 40
2.0
 50
0.0
  1
PEZZO
  0
TEXT
  8
TEXT
 10
1300.816
 20
270.133
 30
0.0
 40
2.0
 50
0.0
  1
firma per accettazione / must sign in acceptance
  0
TEXT
  8
TEXT
 10
1354.231
 20
275.631
 30
0.0
 40
1.5
 50
0.0
  1
lotto:
  0
TEXT
  8
TEXT
 10
1359.036
 20
273.573
 30
0.0
 40
2.0
 50
0.0
  1
________
  0
TEXT
  8
TEXT
 10
1404.231
 20
275.631
 30
0.0
 40
1.5
 50
0.0
  1
ordine:
  0
TEXT
  8
TEXT
 10
1409.64
 20
273.573
 30
0.0
 40
2.0
 50
0.0
  1
______
  0
TEXT
  8
TEXT
 10
1434.342
 20
275.631
 30
0.0
 40
1.5
 50
0.0
  1
pos:
  0
TEXT
  8
TEXT
 10
1438.783
 20
273.573
 30
0.0
 40
2.0
 50
0.0
  1
_______
  0
TEXT
  8
TEXT
 10
1305.381
 20
264.522
 30
0.0
 40
5.0
 50
0.0
  1
_________________________
  0
TEXT
  8
QUOTATURA
 10
1346.06
 20
309.137
 30
0.0
 40
5.0
 50
0.0
  1
45
  0
TEXT
  8
QUOTATURA
 10
1337.748
 20
340.407
 30
0.0
 40
5.0
 50
0.0
  1
10°
  0
ENDSEC
  0
EOF
