  0
SECTION
  2
ENTITIES
  0
LINE
  8
APS_GEOMETRY
 10
0.0
 11
3760.0
 20
0.0
 21
0.0
  0
LINE
  8
APS_GEOMETRY
 10
3760.0
 11
3760.0
 20
0.0
 21
2200.0
  0
LINE
  8
APS_GEOMETRY
 10
3760.0
 11
0.0
 20
2200.0
 21
2200.0
  0
LINE
  8
APS_GEOMETRY
 10
0.0
 11
0.0
 20
2200.0
 21
0.0
  0
LINE
  8
QUOTATURA
 10
0.0
 11
0.0
 20
-50.0
 21
-268.516
  0
LINE
  8
QUOTATURA
 10
3760.0
 11
3760.0
 20
-50.0
 21
-268.516
  0
LINE
  8
QUOTATURA
 10
0.0
 11
1679.663
 20
-218.516
 21
-218.516
  0
LINE
  8
QUOTATURA
 10
2080.337
 11
3760.0
 20
-218.516
 21
-218.516
  0
LINE
  8
QUOTATURA
 10
100.0
 11
0.0
 20
-235.186
 21
-218.516
  0
LINE
  8
QUOTATURA
 10
0.0
 11
100.0
 20
-218.516
 21
-201.846
  0
LINE
  8
QUOTATURA
 10
100.0
 11
100.0
 20
-201.846
 21
-235.186
  0
LINE
  8
QUOTATURA
 10
3660.0
 11
3760.0
 20
-201.846
 21
-218.516
  0
LINE
  8
QUOTATURA
 10
3760.0
 11
3660.0
 20
-218.516
 21
-235.186
  0
LINE
  8
QUOTATURA
 10
3660.0
 11
3660.0
 20
-235.186
 21
-201.846
  0
LINE
  8
QUOTATURA
 10
-50.0
 11
-399.025
 20
0.0
 21
0.0
  0
LINE
  8
QUOTATURA
 10
-50.0
 11
-399.025
 20
2200.0
 21
2200.0
  0
LINE
  8
QUOTATURA
 10
-349.025
 11
-349.025
 20
0.0
 21
1023.78
  0
LINE
  8
QUOTATURA
 10
-349.025
 11
-349.025
 20
1175.314
 21
2200.0
  0
LINE
  8
QUOTATURA
 10
-332.355
 11
-349.025
 20
100.0
 21
0.0
  0
LINE
  8
QUOTATURA
 10
-349.025
 11
-365.695
 20
0.0
 21
100.0
  0
LINE
  8
QUOTATURA
 10
-365.695
 11
-332.355
 20
100.0
 21
100.0
  0
LINE
  8
QUOTATURA
 10
-365.695
 11
-349.025
 20
2100.0
 21
2200.0
  0
LINE
  8
QUOTATURA
 10
-349.025
 11
-332.355
 20
2200.0
 21
2100.0
  0
LINE
  8
QUOTATURA
 10
-332.355
 11
-365.695
 20
2100.0
 21
2100.0
  0
LINE
  8
QUOTATURA
 10
3760.0
 11
3892.936
 20
2200.0
 21
2332.936
  0
CIRCLE
  8
QUOTATURA
 10
4025.872
 20
2465.872
 40
188.0
  0
LINE
  8
APS_GEOMETRY
 10
0.0
 11
2394.0
 20
0.0
 21
0.0
  0
LINE
  8
APS_GEOMETRY
 10
2394.0
 11
2394.0
 20
0.0
 21
926.0
  0
LINE
  8
APS_GEOMETRY
 10
2394.0
 11
0.0
 20
926.0
 21
926.0
  0
LINE
  8
APS_GEOMETRY
 10
0.0
 11
0.0
 20
926.0
 21
0.0
  0
LINE
  8
APS_GEOMETRY
 10
3330.0
 11
3330.0
 20
0.0
 21
2120.0
  0
LINE
  8
APS_GEOMETRY
 10
3330.0
 11
2399.0
 20
2120.0
 21
2120.0
  0
LINE
  8
APS_GEOMETRY
 10
2399.0
 11
2399.0
 20
2120.0
 21
0.0
  0
LINE
  8
APS_GEOMETRY
 10
2399.0
 11
3330.0
 20
0.0
 21
0.0
  0
LINE
  8
APS_GEOMETRY
 10
0.0
 11
2394.0
 20
931.0
 21
931.0
  0
LINE
  8
APS_GEOMETRY
 10
2394.0
 11
2394.0
 20
931.0
 21
1857.0
  0
LINE
  8
APS_GEOMETRY
 10
2394.0
 11
0.0
 20
1857.0
 21
1857.0
  0
LINE
  8
APS_GEOMETRY
 10
0.0
 11
0.0
 20
1857.0
 21
931.0
  0
LINE
  8
APS_GEOMETRY
 10
4144.026
 11
7904.026
 20
-32.387
 21
-32.387
  0
LINE
  8
APS_GEOMETRY
 10
7904.026
 11
7904.026
 20
-32.387
 21
2167.613
  0
LINE
  8
APS_GEOMETRY
 10
7904.026
 11
4144.026
 20
2167.613
 21
2167.613
  0
LINE
  8
APS_GEOMETRY
 10
4144.026
 11
4144.026
 20
2167.613
 21
-32.387
  0
LINE
  8
QUOTATURA
 10
7904.026
 11
8036.962
 20
2167.613
 21
2300.549
  0
CIRCLE
  8
QUOTATURA
 10
8169.898
 20
2433.485
 40
188.0
  0
LINE
  8
APS_GEOMETRY
 10
4144.026
 11
6538.026
 20
-32.387
 21
-32.387
  0
LINE
  8
APS_GEOMETRY
 10
6538.026
 11
6538.026
 20
-32.387
 21
893.613
  0
LINE
  8
APS_GEOMETRY
 10
6538.026
 11
4144.026
 20
893.613
 21
893.613
  0
LINE
  8
APS_GEOMETRY
 10
4144.026
 11
4144.026
 20
893.613
 21
-32.387
  0
LINE
  8
APS_GEOMETRY
 10
7474.026
 11
7474.026
 20
-32.387
 21
2087.613
  0
LINE
  8
APS_GEOMETRY
 10
7474.026
 11
6543.026
 20
2087.613
 21
2087.613
  0
LINE
  8
APS_GEOMETRY
 10
6543.026
 11
6543.026
 20
2087.613
 21
-32.387
  0
LINE
  8
APS_GEOMETRY
 10
6543.026
 11
7474.026
 20
-32.387
 21
-32.387
  0
LINE
  8
APS_GEOMETRY
 10
4144.026
 11
6538.026
 20
898.613
 21
898.613
  0
LINE
  8
APS_GEOMETRY
 10
6538.026
 11
6538.026
 20
898.613
 21
1824.613
  0
LINE
  8
APS_GEOMETRY
 10
6538.026
 11
4144.026
 20
1824.613
 21
1824.613
  0
LINE
  8
APS_GEOMETRY
 10
4144.026
 11
4144.026
 20
1824.613
 21
898.613
  0
LINE
  8
APS_GEOMETRY
 10
8234.439
 11
11994.439
 20
-43.813
 21
-43.813
  0
LINE
  8
APS_GEOMETRY
 10
11994.439
 11
11994.439
 20
-43.813
 21
2156.187
  0
LINE
  8
APS_GEOMETRY
 10
11994.439
 11
8234.439
 20
2156.187
 21
2156.187
  0
LINE
  8
APS_GEOMETRY
 10
8234.439
 11
8234.439
 20
2156.187
 21
-43.813
  0
LINE
  8
QUOTATURA
 10
11994.439
 11
12127.375
 20
2156.187
 21
2289.123
  0
CIRCLE
  8
QUOTATURA
 10
12260.311
 20
2422.059
 40
188.0
  0
LINE
  8
APS_GEOMETRY
 10
9165.439
 11
9165.439
 20
-43.813
 21
2076.187
  0
LINE
  8
APS_GEOMETRY
 10
9165.439
 11
8234.439
 20
2076.187
 21
2076.187
  0
LINE
  8
APS_GEOMETRY
 10
8234.439
 11
8234.439
 20
2076.187
 21
-43.813
  0
LINE
  8
APS_GEOMETRY
 10
8234.439
 11
9165.439
 20
-43.813
 21
-43.813
  0
LINE
  8
APS_GEOMETRY
 10
9170.439
 11
11290.439
 20
-43.813
 21
-43.813
  0
LINE
  8
APS_GEOMETRY
 10
11290.439
 11
11290.439
 20
-43.813
 21
887.187
  0
LINE
  8
APS_GEOMETRY
 10
11290.439
 11
9170.439
 20
887.187
 21
887.187
  0
LINE
  8
APS_GEOMETRY
 10
9170.439
 11
9170.439
 20
887.187
 21
-43.813
  0
LINE
  8
APS_GEOMETRY
 10
9170.439
 11
11564.439
 20
892.187
 21
892.187
  0
LINE
  8
APS_GEOMETRY
 10
11564.439
 11
11564.439
 20
892.187
 21
1818.187
  0
LINE
  8
APS_GEOMETRY
 10
11564.439
 11
9170.439
 20
1818.187
 21
1818.187
  0
LINE
  8
APS_GEOMETRY
 10
9170.439
 11
9170.439
 20
1818.187
 21
892.187
  0
LINE
  8
APS_GEOMETRY
 10
-50.171
 11
3709.829
 20
-2663.388
 21
-2663.388
  0
LINE
  8
APS_GEOMETRY
 10
3709.829
 11
3709.829
 20
-2663.388
 21
-463.388
  0
LINE
  8
APS_GEOMETRY
 10
3709.829
 11
-50.171
 20
-463.388
 21
-463.388
  0
LINE
  8
APS_GEOMETRY
 10
-50.171
 11
-50.171
 20
-463.388
 21
-2663.388
  0
LINE
  8
QUOTATURA
 10
3709.829
 11
3842.765
 20
-463.388
 21
-330.452
  0
CIRCLE
  8
QUOTATURA
 10
3975.701
 20
-197.516
 40
188.0
  0
LINE
  8
APS_GEOMETRY
 10
870.829
 11
870.829
 20
-2663.388
 21
-543.388
  0
LINE
  8
APS_GEOMETRY
 10
870.829
 11
-50.171
 20
-543.388
 21
-543.388
  0
LINE
  8
APS_GEOMETRY
 10
-50.171
 11
-50.171
 20
-543.388
 21
-2663.388
  0
LINE
  8
APS_GEOMETRY
 10
-50.171
 11
870.829
 20
-2663.388
 21
-2663.388
  0
LINE
  8
APS_GEOMETRY
 10
1796.829
 11
1796.829
 20
-2663.388
 21
-543.388
  0
LINE
  8
APS_GEOMETRY
 10
1796.829
 11
875.829
 20
-543.388
 21
-543.388
  0
LINE
  8
APS_GEOMETRY
 10
875.829
 11
875.829
 20
-543.388
 21
-2663.388
  0
LINE
  8
APS_GEOMETRY
 10
875.829
 11
1796.829
 20
-2663.388
 21
-2663.388
  0
LINE
  8
APS_GEOMETRY
 10
2722.829
 11
2722.829
 20
-2663.388
 21
-543.388
  0
LINE
  8
APS_GEOMETRY
 10
2722.829
 11
1801.829
 20
-543.388
 21
-543.388
  0
LINE
  8
APS_GEOMETRY
 10
1801.829
 11
1801.829
 20
-543.388
 21
-2663.388
  0
LINE
  8
APS_GEOMETRY
 10
1801.829
 11
2722.829
 20
-2663.388
 21
-2663.388
  0
LINE
  8
APS_GEOMETRY
 10
3648.829
 11
3648.829
 20
-2663.388
 21
-543.388
  0
LINE
  8
APS_GEOMETRY
 10
3648.829
 11
2727.829
 20
-543.388
 21
-543.388
  0
LINE
  8
APS_GEOMETRY
 10
2727.829
 11
2727.829
 20
-543.388
 21
-2663.388
  0
LINE
  8
APS_GEOMETRY
 10
2727.829
 11
3648.829
 20
-2663.388
 21
-2663.388
  0
LINE
  8
APS_GEOMETRY
 10
4088.777
 11
7848.777
 20
-2671.716
 21
-2671.716
  0
LINE
  8
APS_GEOMETRY
 10
7848.777
 11
7848.777
 20
-2671.716
 21
-471.716
  0
LINE
  8
APS_GEOMETRY
 10
7848.777
 11
4088.777
 20
-471.716
 21
-471.716
  0
LINE
  8
APS_GEOMETRY
 10
4088.777
 11
4088.777
 20
-471.716
 21
-2671.716
  0
LINE
  8
QUOTATURA
 10
7848.777
 11
7981.713
 20
-471.716
 21
-338.78
  0
CIRCLE
  8
QUOTATURA
 10
8114.649
 20
-205.844
 40
188.0
  0
LINE
  8
APS_GEOMETRY
 10
5009.777
 11
5009.777
 20
-2671.716
 21
-551.716
  0
LINE
  8
APS_GEOMETRY
 10
5009.777
 11
4088.777
 20
-551.716
 21
-551.716
  0
LINE
  8
APS_GEOMETRY
 10
4088.777
 11
4088.777
 20
-551.716
 21
-2671.716
  0
LINE
  8
APS_GEOMETRY
 10
4088.777
 11
5009.777
 20
-2671.716
 21
-2671.716
  0
LINE
  8
APS_GEOMETRY
 10
5835.777
 11
5835.777
 20
-2671.716
 21
-551.716
  0
LINE
  8
APS_GEOMETRY
 10
5835.777
 11
5014.777
 20
-551.716
 21
-551.716
  0
LINE
  8
APS_GEOMETRY
 10
5014.777
 11
5014.777
 20
-551.716
 21
-2671.716
  0
LINE
  8
APS_GEOMETRY
 10
5014.777
 11
5835.777
 20
-2671.716
 21
-2671.716
  0
LINE
  8
APS_GEOMETRY
 10
6661.777
 11
6661.777
 20
-2671.716
 21
-551.716
  0
LINE
  8
APS_GEOMETRY
 10
6661.777
 11
5840.777
 20
-551.716
 21
-551.716
  0
LINE
  8
APS_GEOMETRY
 10
5840.777
 11
5840.777
 20
-551.716
 21
-2671.716
  0
LINE
  8
APS_GEOMETRY
 10
5840.777
 11
6661.777
 20
-2671.716
 21
-2671.716
  0
LINE
  8
APS_GEOMETRY
 10
7587.777
 11
7587.777
 20
-2671.716
 21
-551.716
  0
LINE
  8
APS_GEOMETRY
 10
7587.777
 11
6666.777
 20
-551.716
 21
-551.716
  0
LINE
  8
APS_GEOMETRY
 10
6666.777
 11
6666.777
 20
-551.716
 21
-2671.716
  0
LINE
  8
APS_GEOMETRY
 10
6666.777
 11
7587.777
 20
-2671.716
 21
-2671.716
  0
LINE
  8
APS_GEOMETRY
 10
8595.002
 11
12355.002
 20
-2636.379
 21
-2636.379
  0
LINE
  8
APS_GEOMETRY
 10
12355.002
 11
12355.002
 20
-2636.379
 21
-436.379
  0
LINE
  8
APS_GEOMETRY
 10
12355.002
 11
8595.002
 20
-436.379
 21
-436.379
  0
LINE
  8
APS_GEOMETRY
 10
8595.002
 11
8595.002
 20
-436.379
 21
-2636.379
  0
LINE
  8
QUOTATURA
 10
12355.002
 11
12487.938
 20
-436.379
 21
-303.443
  0
CIRCLE
  8
QUOTATURA
 10
12620.874
 20
-170.507
 40
188.0
  0
LINE
  8
APS_GEOMETRY
 10
9316.002
 11
9316.002
 20
-2636.379
 21
-516.379
  0
LINE
  8
APS_GEOMETRY
 10
9316.002
 11
8595.002
 20
-516.379
 21
-516.379
  0
LINE
  8
APS_GEOMETRY
 10
8595.002
 11
8595.002
 20
-516.379
 21
-2636.379
  0
LINE
  8
APS_GEOMETRY
 10
8595.002
 11
9316.002
 20
-2636.379
 21
-2636.379
  0
LINE
  8
APS_GEOMETRY
 10
10042.002
 11
10042.002
 20
-2636.379
 21
-516.379
  0
LINE
  8
APS_GEOMETRY
 10
10042.002
 11
9321.002
 20
-516.379
 21
-516.379
  0
LINE
  8
APS_GEOMETRY
 10
9321.002
 11
9321.002
 20
-516.379
 21
-2636.379
  0
LINE
  8
APS_GEOMETRY
 10
9321.002
 11
10042.002
 20
-2636.379
 21
-2636.379
  0
LINE
  8
APS_GEOMETRY
 10
10868.002
 11
10868.002
 20
-2636.379
 21
-516.379
  0
LINE
  8
APS_GEOMETRY
 10
10868.002
 11
10047.002
 20
-516.379
 21
-516.379
  0
LINE
  8
APS_GEOMETRY
 10
10047.002
 11
10047.002
 20
-516.379
 21
-2636.379
  0
LINE
  8
APS_GEOMETRY
 10
10047.002
 11
10868.002
 20
-2636.379
 21
-2636.379
  0
LINE
  8
APS_GEOMETRY
 10
11594.002
 11
11594.002
 20
-2636.379
 21
-516.379
  0
LINE
  8
APS_GEOMETRY
 10
11594.002
 11
10873.002
 20
-516.379
 21
-516.379
  0
LINE
  8
APS_GEOMETRY
 10
10873.002
 11
10873.002
 20
-516.379
 21
-2636.379
  0
LINE
  8
APS_GEOMETRY
 10
10873.002
 11
11594.002
 20
-2636.379
 21
-2636.379
  0
LINE
  8
APS_GEOMETRY
 10
12320.002
 11
12320.002
 20
-2636.379
 21
-516.379
  0
LINE
  8
APS_GEOMETRY
 10
12320.002
 11
11599.002
 20
-516.379
 21
-516.379
  0
LINE
  8
APS_GEOMETRY
 10
11599.002
 11
11599.002
 20
-516.379
 21
-2636.379
  0
LINE
  8
APS_GEOMETRY
 10
11599.002
 11
12320.002
 20
-2636.379
 21
-2636.379
  0
TEXT
  8
QUOTATURA
 10
1701.984
 20
-268.516
 30
0.0
 40
100.0
 50
0.0
  1
3760
  0
TEXT
  8
QUOTATURA
 10
-524.147
 20
1050.0
 30
0.0
 40
100.0
 50
0.0
  1
2200
  0
TEXT
  8
TEXT
 10
3892.936
 20
2362.626
 30
0.0
 40
206.491
 50
0.0
  1
A1
  0
TEXT
  8
TEXT
 10
22.344
 20
20.895
 30
0.0
 40
100.0
 50
0.0
  1
926x2394
  0
TEXT
  8
TEXT
 10
1084.441
 20
311.171
 30
0.0
 40
308.667
 50
0.0
  1
5
  0
TEXT
  8
TEXT
 10
3309.105
 20
22.344
 30
0.0
 40
100.0
 50
90.0
  1
931x2120
  0
TEXT
  8
TEXT
 10
2725.913
 20
904.727
 30
0.0
 40
310.333
 50
0.0
  1
4
  0
TEXT
  8
TEXT
 10
22.344
 20
951.895
 30
0.0
 40
100.0
 50
0.0
  1
926x2394
  0
TEXT
  8
TEXT
 10
1084.441
 20
1242.171
 30
0.0
 40
308.667
 50
0.0
  1
5
  0
TEXT
  8
TEXT
 10
8036.962
 20
2350.974
 30
0.0
 40
165.024
 50
0.0
  1
A2
  0
TEXT
  8
TEXT
 10
4166.37
 20
-11.492
 30
0.0
 40
100.0
 50
0.0
  1
926x2394
  0
TEXT
  8
TEXT
 10
5228.466
 20
278.784
 30
0.0
 40
308.667
 50
0.0
  1
5
  0
TEXT
  8
TEXT
 10
7453.131
 20
-10.042
 30
0.0
 40
100.0
 50
90.0
  1
931x2120
  0
TEXT
  8
TEXT
 10
6869.938
 20
872.34
 30
0.0
 40
310.333
 50
0.0
  1
4
  0
TEXT
  8
TEXT
 10
4166.37
 20
919.508
 30
0.0
 40
100.0
 50
0.0
  1
926x2394
  0
TEXT
  8
TEXT
 10
5228.466
 20
1209.784
 30
0.0
 40
308.667
 50
0.0
  1
5
  0
TEXT
  8
TEXT
 10
12127.375
 20
2343.407
 30
0.0
 40
157.303
 50
0.0
  1
A3
  0
TEXT
  8
TEXT
 10
9144.544
 20
-21.469
 30
0.0
 40
100.0
 50
90.0
  1
931x2120
  0
TEXT
  8
TEXT
 10
8561.351
 20
860.914
 30
0.0
 40
310.333
 50
0.0
  1
4
  0
TEXT
  8
TEXT
 10
9192.783
 20
-22.918
 30
0.0
 40
100.0
 50
0.0
  1
931x2120
  0
TEXT
  8
TEXT
 10
10091.851
 20
266.414
 30
0.0
 40
310.333
 50
0.0
  1
4
  0
TEXT
  8
TEXT
 10
9192.783
 20
913.082
 30
0.0
 40
100.0
 50
0.0
  1
926x2394
  0
TEXT
  8
TEXT
 10
10254.879
 20
1203.358
 30
0.0
 40
308.667
 50
0.0
  1
5
  0
TEXT
  8
TEXT
 10
3842.765
 20
-271.056
 30
0.0
 40
147.079
 50
0.0
  1
A4
  0
TEXT
  8
TEXT
 10
849.934
 20
-2641.044
 30
0.0
 40
100.0
 50
90.0
  1
921x2120
  0
TEXT
  8
TEXT
 10
291.744
 20
-1757.041
 30
0.0
 40
307.0
 50
0.0
  1
3
  0
TEXT
  8
TEXT
 10
1775.934
 20
-2641.044
 30
0.0
 40
100.0
 50
90.0
  1
921x2120
  0
TEXT
  8
TEXT
 10
1217.744
 20
-1757.041
 30
0.0
 40
307.0
 50
0.0
  1
3
  0
TEXT
  8
TEXT
 10
2701.934
 20
-2641.044
 30
0.0
 40
100.0
 50
90.0
  1
921x2120
  0
TEXT
  8
TEXT
 10
2143.744
 20
-1757.041
 30
0.0
 40
307.0
 50
0.0
  1
3
  0
TEXT
  8
TEXT
 10
3627.934
 20
-2641.044
 30
0.0
 40
100.0
 50
90.0
  1
921x2120
  0
TEXT
  8
TEXT
 10
3069.744
 20
-1757.041
 30
0.0
 40
307.0
 50
0.0
  1
3
  0
TEXT
  8
TEXT
 10
7981.713
 20
-284.14
 30
0.0
 40
159.174
 50
0.0
  1
A5
  0
TEXT
  8
TEXT
 10
4988.882
 20
-2649.372
 30
0.0
 40
100.0
 50
90.0
  1
921x2120
  0
TEXT
  8
TEXT
 10
4430.692
 20
-1765.369
 30
0.0
 40
307.0
 50
0.0
  1
3
  0
TEXT
  8
TEXT
 10
5814.882
 20
-2649.372
 30
0.0
 40
100.0
 50
90.0
  1
821x2120
  0
TEXT
  8
TEXT
 10
5334.055
 20
-1748.548
 30
0.0
 40
273.667
 50
0.0
  1
2
  0
TEXT
  8
TEXT
 10
6640.882
 20
-2649.372
 30
0.0
 40
100.0
 50
90.0
  1
821x2120
  0
TEXT
  8
TEXT
 10
6160.055
 20
-1748.548
 30
0.0
 40
273.667
 50
0.0
  1
2
  0
TEXT
  8
TEXT
 10
7566.882
 20
-2649.372
 30
0.0
 40
100.0
 50
90.0
  1
921x2120
  0
TEXT
  8
TEXT
 10
7008.692
 20
-1765.369
 30
0.0
 40
307.0
 50
0.0
  1
3
  0
TEXT
  8
TEXT
 10
12487.938
 20
-248.844
 30
0.0
 40
160.083
 50
0.0
  1
A6
  0
TEXT
  8
TEXT
 10
9295.107
 20
-2614.034
 30
0.0
 40
100.0
 50
90.0
  1
721x2120
  0
TEXT
  8
TEXT
 10
8914.269
 20
-1696.545
 30
0.0
 40
240.333
 50
0.0
  1
1
  0
TEXT
  8
TEXT
 10
10021.107
 20
-2614.034
 30
0.0
 40
100.0
 50
90.0
  1
721x2120
  0
TEXT
  8
TEXT
 10
9640.269
 20
-1696.545
 30
0.0
 40
240.333
 50
0.0
  1
1
  0
TEXT
  8
TEXT
 10
10847.107
 20
-2614.034
 30
0.0
 40
100.0
 50
90.0
  1
821x2120
  0
TEXT
  8
TEXT
 10
10366.279
 20
-1713.211
 30
0.0
 40
273.667
 50
0.0
  1
2
  0
TEXT
  8
TEXT
 10
11573.107
 20
-2614.034
 30
0.0
 40
100.0
 50
90.0
  1
721x2120
  0
TEXT
  8
TEXT
 10
11192.269
 20
-1696.545
 30
0.0
 40
240.333
 50
0.0
  1
1
  0
TEXT
  8
TEXT
 10
12299.107
 20
-2614.034
 30
0.0
 40
100.0
 50
90.0
  1
721x2120
  0
TEXT
  8
TEXT
 10
11918.269
 20
-1696.545
 30
0.0
 40
240.333
 50
0.0
  1
1
  0
ENDSEC
  0
EOF
