  0
SECTION
  2
ENTITIES
  0
LINE
  8
QUOTATURA
 10
0.0
 11
0.0
 20
-50.0
 21
-268.516
  0
LINE
  8
QUOTATURA
 10
3760.0
 11
3760.0
 20
-50.0
 21
-268.516
  0
LINE
  8
QUOTATURA
 10
0.0
 11
1679.663
 20
-218.516
 21
-218.516
  0
LINE
  8
QUOTATURA
 10
2080.337
 11
3760.0
 20
-218.516
 21
-218.516
  0
LINE
  8
QUOTATURA
 10
100.0
 11
0.0
 20
-235.186
 21
-218.516
  0
LINE
  8
QUOTATURA
 10
0.0
 11
100.0
 20
-218.516
 21
-201.846
  0
LINE
  8
QUOTATURA
 10
100.0
 11
100.0
 20
-201.846
 21
-235.186
  0
LINE
  8
QUOTATURA
 10
3660.0
 11
3760.0
 20
-201.846
 21
-218.516
  0
LINE
  8
QUOTATURA
 10
3760.0
 11
3660.0
 20
-218.516
 21
-235.186
  0
LINE
  8
QUOTATURA
 10
3660.0
 11
3660.0
 20
-235.186
 21
-201.846
  0
LINE
  8
QUOTATURA
 10
-50.0
 11
-399.025
 20
0.0
 21
0.0
  0
LINE
  8
QUOTATURA
 10
-50.0
 11
-399.025
 20
2200.0
 21
2200.0
  0
LINE
  8
QUOTATURA
 10
-349.025
 11
-349.025
 20
0.0
 21
1023.78
  0
LINE
  8
QUOTATURA
 10
-349.025
 11
-349.025
 20
1175.314
 21
2200.0
  0
LINE
  8
QUOTATURA
 10
-332.355
 11
-349.025
 20
100.0
 21
0.0
  0
LINE
  8
QUOTATURA
 10
-349.025
 11
-365.695
 20
0.0
 21
100.0
  0
LINE
  8
QUOTATURA
 10
-365.695
 11
-332.355
 20
100.0
 21
100.0
  0
LINE
  8
QUOTATURA
 10
-365.695
 11
-349.025
 20
2100.0
 21
2200.0
  0
LINE
  8
QUOTATURA
 10
-349.025
 11
-332.355
 20
2200.0
 21
2100.0
  0
LINE
  8
QUOTATURA
 10
-332.355
 11
-365.695
 20
2100.0
 21
2100.0
  0
LINE
  8
APS_GEOMETRY
 10
0.0
 11
3760.0
 20
0.0
 21
0.0
  0
LINE
  8
APS_GEOMETRY
 10
3760.0
 11
3760.0
 20
0.0
 21
2200.0
  0
LINE
  8
APS_GEOMETRY
 10
3760.0
 11
0.0
 20
2200.0
 21
2200.0
  0
LINE
  8
APS_GEOMETRY
 10
0.0
 11
0.0
 20
2200.0
 21
0.0
  0
LINE
  8
QUOTATURA
 10
3760.0
 11
3892.936
 20
2200.0
 21
2332.936
  0
CIRCLE
  8
QUOTATURA
 10
4025.872
 20
2465.872
 40
188.0
  0
LINE
  8
APS_GEOMETRY
 10
833.0
 11
833.0
 20
0.0
 21
2119.0
  0
LINE
  8
APS_GEOMETRY
 10
833.0
 11
0.0
 20
2119.0
 21
2119.0
  0
LINE
  8
APS_GEOMETRY
 10
0.0
 11
0.0
 20
2119.0
 21
0.0
  0
LINE
  8
APS_GEOMETRY
 10
0.0
 11
833.0
 20
0.0
 21
0.0
  0
LINE
  8
APS_GEOMETRY
 10
1671.0
 11
1671.0
 20
0.0
 21
2119.0
  0
LINE
  8
APS_GEOMETRY
 10
1671.0
 11
838.0
 20
2119.0
 21
2119.0
  0
LINE
  8
APS_GEOMETRY
 10
838.0
 11
838.0
 20
2119.0
 21
0.0
  0
LINE
  8
APS_GEOMETRY
 10
838.0
 11
1671.0
 20
0.0
 21
0.0
  0
LINE
  8
APS_GEOMETRY
 10
2509.0
 11
2509.0
 20
0.0
 21
2119.0
  0
LINE
  8
APS_GEOMETRY
 10
2509.0
 11
1676.0
 20
2119.0
 21
2119.0
  0
LINE
  8
APS_GEOMETRY
 10
1676.0
 11
1676.0
 20
2119.0
 21
0.0
  0
LINE
  8
APS_GEOMETRY
 10
1676.0
 11
2509.0
 20
0.0
 21
0.0
  0
LINE
  8
APS_GEOMETRY
 10
3347.0
 11
3347.0
 20
0.0
 21
2119.0
  0
LINE
  8
APS_GEOMETRY
 10
3347.0
 11
2514.0
 20
2119.0
 21
2119.0
  0
LINE
  8
APS_GEOMETRY
 10
2514.0
 11
2514.0
 20
2119.0
 21
0.0
  0
LINE
  8
APS_GEOMETRY
 10
2514.0
 11
3347.0
 20
0.0
 21
0.0
  0
LINE
  8
APS_GEOMETRY
 10
0.0
 11
3760.0
 20
2596.0
 21
2596.0
  0
LINE
  8
APS_GEOMETRY
 10
3760.0
 11
3760.0
 20
2596.0
 21
4796.0
  0
LINE
  8
APS_GEOMETRY
 10
3760.0
 11
0.0
 20
4796.0
 21
4796.0
  0
LINE
  8
APS_GEOMETRY
 10
0.0
 11
0.0
 20
4796.0
 21
2596.0
  0
LINE
  8
QUOTATURA
 10
3760.0
 11
3892.936
 20
4796.0
 21
4928.936
  0
CIRCLE
  8
QUOTATURA
 10
4025.872
 20
5061.872
 40
188.0
  0
LINE
  8
APS_GEOMETRY
 10
721.0
 11
721.0
 20
2596.0
 21
4706.0
  0
LINE
  8
APS_GEOMETRY
 10
721.0
 11
0.0
 20
4706.0
 21
4706.0
  0
LINE
  8
APS_GEOMETRY
 10
0.0
 11
0.0
 20
4706.0
 21
2596.0
  0
LINE
  8
APS_GEOMETRY
 10
0.0
 11
721.0
 20
2596.0
 21
2596.0
  0
LINE
  8
APS_GEOMETRY
 10
1447.0
 11
1447.0
 20
2596.0
 21
4706.0
  0
LINE
  8
APS_GEOMETRY
 10
1447.0
 11
726.0
 20
4706.0
 21
4706.0
  0
LINE
  8
APS_GEOMETRY
 10
726.0
 11
726.0
 20
4706.0
 21
2596.0
  0
LINE
  8
APS_GEOMETRY
 10
726.0
 11
1447.0
 20
2596.0
 21
2596.0
  0
LINE
  8
APS_GEOMETRY
 10
2173.0
 11
2173.0
 20
2596.0
 21
4706.0
  0
LINE
  8
APS_GEOMETRY
 10
2173.0
 11
1452.0
 20
4706.0
 21
4706.0
  0
LINE
  8
APS_GEOMETRY
 10
1452.0
 11
1452.0
 20
4706.0
 21
2596.0
  0
LINE
  8
APS_GEOMETRY
 10
1452.0
 11
2173.0
 20
2596.0
 21
2596.0
  0
LINE
  8
APS_GEOMETRY
 10
2899.0
 11
2899.0
 20
2596.0
 21
4706.0
  0
LINE
  8
APS_GEOMETRY
 10
2899.0
 11
2178.0
 20
4706.0
 21
4706.0
  0
LINE
  8
APS_GEOMETRY
 10
2178.0
 11
2178.0
 20
4706.0
 21
2596.0
  0
LINE
  8
APS_GEOMETRY
 10
2178.0
 11
2899.0
 20
2596.0
 21
2596.0
  0
LINE
  8
APS_GEOMETRY
 10
3625.0
 11
3625.0
 20
2596.0
 21
4706.0
  0
LINE
  8
APS_GEOMETRY
 10
3625.0
 11
2904.0
 20
4706.0
 21
4706.0
  0
LINE
  8
APS_GEOMETRY
 10
2904.0
 11
2904.0
 20
4706.0
 21
2596.0
  0
LINE
  8
APS_GEOMETRY
 10
2904.0
 11
3625.0
 20
2596.0
 21
2596.0
  0
TEXT
  8
QUOTATURA
 10
1701.984
 20
-268.516
 30
0.0
 40
100.0
 50
0.0
  1
3760
  0
TEXT
  8
QUOTATURA
 10
-524.147
 20
1050.0
 30
0.0
 40
100.0
 50
0.0
  1
2200
  0
TEXT
  8
TEXT
 10
3892.936
 20
2362.626
 30
0.0
 40
206.491
 50
0.0
  1
A1
  0
TEXT
  8
TEXT
 10
812.105
 20
22.344
 30
0.0
 40
100.0
 50
90.0
  1
833x2119
  0
TEXT
  8
TEXT
 10
368.863
 20
920.667
 30
0.0
 40
277.667
 50
0.0
  1
1
  0
TEXT
  8
TEXT
 10
1650.105
 20
22.344
 30
0.0
 40
100.0
 50
90.0
  1
833x2119
  0
TEXT
  8
TEXT
 10
1206.863
 20
920.667
 30
0.0
 40
277.667
 50
0.0
  1
1
  0
TEXT
  8
TEXT
 10
2488.105
 20
22.344
 30
0.0
 40
100.0
 50
90.0
  1
833x2119
  0
TEXT
  8
TEXT
 10
2044.863
 20
920.667
 30
0.0
 40
277.667
 50
0.0
  1
1
  0
TEXT
  8
TEXT
 10
3326.105
 20
22.344
 30
0.0
 40
100.0
 50
90.0
  1
833x2119
  0
TEXT
  8
TEXT
 10
2882.863
 20
920.667
 30
0.0
 40
277.667
 50
0.0
  1
1
  0
TEXT
  8
TEXT
 10
3892.936
 20
4979.361
 30
0.0
 40
165.024
 50
0.0
  1
A2
  0
TEXT
  8
TEXT
 10
700.105
 20
2618.344
 30
0.0
 40
100.0
 50
90.0
  1
721x2110
  0
TEXT
  8
TEXT
 10
280.389
 20
3530.834
 30
0.0
 40
240.333
 50
0.0
  1
2
  0
TEXT
  8
TEXT
 10
1426.105
 20
2618.344
 30
0.0
 40
100.0
 50
90.0
  1
721x2110
  0
TEXT
  8
TEXT
 10
1006.389
 20
3530.834
 30
0.0
 40
240.333
 50
0.0
  1
2
  0
TEXT
  8
TEXT
 10
2152.105
 20
2618.344
 30
0.0
 40
100.0
 50
90.0
  1
721x2110
  0
TEXT
  8
TEXT
 10
1732.389
 20
3530.834
 30
0.0
 40
240.333
 50
0.0
  1
2
  0
TEXT
  8
TEXT
 10
2878.105
 20
2618.344
 30
0.0
 40
100.0
 50
90.0
  1
721x2110
  0
TEXT
  8
TEXT
 10
2458.389
 20
3530.834
 30
0.0
 40
240.333
 50
0.0
  1
2
  0
TEXT
  8
TEXT
 10
3604.105
 20
2618.344
 30
0.0
 40
100.0
 50
90.0
  1
721x2110
  0
TEXT
  8
TEXT
 10
3184.389
 20
3530.834
 30
0.0
 40
240.333
 50
0.0
  1
2
  0
ENDSEC
  0
EOF
