  0
SECTION
  2
ENTITIES
  0
LINE
  8
APS_GEOMETRY
 10
807.0
 11
807.0
 20
0.0
 21
2099.0
  0
LINE
  8
APS_GEOMETRY
 10
807.0
 11
0.0
 20
2099.0
 21
2099.0
  0
LINE
  8
APS_GEOMETRY
 10
0.0
 11
0.0
 20
2099.0
 21
0.0
  0
CIRCLE
  8
COSTRUZIONI
 10
60.0
 20
1040.0
 40
2.0
  0
LINE
  8
COSTRUZIONI
 10
60.0
 11
160.0
 20
1050.0
 21
1050.0
  0
LINE
  8
COSTRUZIONI
 10
160.0
 11
160.0
 20
1050.0
 21
1030.0
  0
LINE
  8
COSTRUZIONI
 10
160.0
 11
50.0
 20
1030.0
 21
1030.0
  0
LINE
  8
COSTRUZIONI
 10
50.0
 11
50.0
 20
1030.0
 21
1050.0
  0
LINE
  8
COSTRUZIONI
 10
50.0
 11
150.0
 20
1050.0
 21
1050.0
  0
ARC
  8
COSTRUZIONI
 10
60.0
 20
939.0
 40
7.0
 50
180.0
 51
360.0
  0
LINE
  8
COSTRUZIONI
 10
53.0
 11
53.0
 20
939.0
 21
950.0
  0
ARC
  8
COSTRUZIONI
 10
60.0
 20
950.0
 40
7.0
 50
360.0
 51
180.0
  0
LINE
  8
COSTRUZIONI
 10
67.0
 11
67.0
 20
950.0
 21
939.0
  0
CIRCLE
  8
COSTRUZIONI
 10
60.0
 20
1040.0
 40
1.0
  0
LINE
  8
COSTRUZIONI
 10
35.0
 11
35.0
 20
919.5
 21
969.5
  0
LINE
  8
COSTRUZIONI
 10
35.0
 11
85.0
 20
969.5
 21
969.5
  0
LINE
  8
COSTRUZIONI
 10
85.0
 11
85.0
 20
969.5
 21
919.5
  0
LINE
  8
COSTRUZIONI
 10
85.0
 11
35.0
 20
919.5
 21
919.5
  0
LINE
  8
COSTRUZIONI
 10
85.0
 11
85.0
 20
1030.0
 21
1015.0
  0
LINE
  8
COSTRUZIONI
 10
85.0
 11
35.0
 20
1015.0
 21
1015.0
  0
LINE
  8
COSTRUZIONI
 10
35.0
 11
35.0
 20
1015.0
 21
1065.0
  0
LINE
  8
COSTRUZIONI
 10
35.0
 11
85.0
 20
1065.0
 21
1065.0
  0
LINE
  8
COSTRUZIONI
 10
85.0
 11
85.0
 20
1065.0
 21
1050.0
  0
LINE
  8
COSTRUZIONI
 10
-58.14
 11
1941.86
 20
-392.549
 21
-392.549
  0
LINE
  8
COSTRUZIONI
 10
1941.86
 11
1941.86
 20
-392.549
 21
-192.549
  0
LINE
  8
COSTRUZIONI
 10
1941.86
 11
-58.14
 20
-192.549
 21
-192.549
  0
LINE
  8
COSTRUZIONI
 10
-58.14
 11
-58.14
 20
-192.549
 21
-392.549
  0
LINE
  8
COSTRUZIONI
 10
941.86
 11
941.86
 20
-392.549
 21
-192.549
  0
LINE
  8
COSTRUZIONI
 10
941.86
 11
1941.86
 20
-292.549
 21
-292.549
  0
LINE
  8
COSTRUZIONI
 10
1441.86
 11
1441.86
 20
-392.549
 21
-192.549
  0
LINE
  8
APS_GEOMETRY
 10
4.545
 11
21.78
 20
-246.534
 21
-246.534
  0
ARC
  8
APS_GEOMETRY
 10
20.908
 20
-221.839
 40
24.711
 50
272.021
 51
278.44
  0
ARC
  8
APS_GEOMETRY
 10
21.881
 20
-228.394
 40
18.083
 50
278.44
 51
285.945
  0
ARC
  8
APS_GEOMETRY
 10
29.198
 20
-254.592
 40
9.118
 50
98.584
 51
104.931
  0
ARC
  8
APS_GEOMETRY
 10
28.582
 20
-250.511
 40
4.991
 50
90.0
 51
98.584
  0
ARC
  8
APS_GEOMETRY
 10
28.582
 20
-249.272
 40
3.752
 50
52.871
 51
90.0
  0
ARC
  8
APS_GEOMETRY
 10
23.493
 20
-255.993
 40
12.182
 50
32.518
 51
52.871
  0
ARC
  8
APS_GEOMETRY
 10
19.462
 20
-258.563
 40
16.963
 50
17.209
 51
32.518
  0
ARC
  8
APS_GEOMETRY
 10
22.822
 20
-257.522
 40
13.445
 50
360.0
 51
17.209
  0
ARC
  8
APS_GEOMETRY
 10
29.55
 20
-257.522
 40
6.717
 50
337.348
 51
360.0
  0
ARC
  8
APS_GEOMETRY
 10
32.25
 20
-258.649
 40
3.792
 50
307.042
 51
337.348
  0
ARC
  8
APS_GEOMETRY
 10
31.78
 20
-258.004
 40
4.589
 50
287.186
 51
306.87
  0
ARC
  8
APS_GEOMETRY
 10
31.362
 20
-256.65
 40
6.006
 50
270.0
 51
287.186
  0
ARC
  8
APS_GEOMETRY
 10
31.362
 20
-257.263
 40
5.393
 50
252.221
 51
270.0
  0
ARC
  8
APS_GEOMETRY
 10
31.111
 20
-258.046
 40
4.571
 50
232.896
 51
252.221
  0
ARC
  8
APS_GEOMETRY
 10
32.081
 20
-256.763
 40
6.18
 50
218.3
 51
232.896
  0
ARC
  8
APS_GEOMETRY
 10
39.661
 20
-250.777
 40
15.839
 50
209.197
 51
218.3
  0
ARC
  8
APS_GEOMETRY
 10
1.108
 20
-271.665
 40
28.012
 50
28.025
 51
32.699
  0
ARC
  8
APS_GEOMETRY
 10
21.264
 20
-258.725
 40
4.06
 50
32.699
 51
45.0
  0
ARC
  8
APS_GEOMETRY
 10
22.638
 20
-257.351
 40
2.116
 50
45.0
 51
67.557
  0
ARC
  8
APS_GEOMETRY
 10
22.63
 20
-257.37
 40
2.137
 50
67.557
 51
90.0
  0
ARC
  8
APS_GEOMETRY
 10
22.63
 20
-257.202
 40
1.969
 50
90.0
 51
120.801
  0
ARC
  8
APS_GEOMETRY
 10
22.563
 20
-257.09
 40
1.839
 50
120.801
 51
152.7
  0
ARC
  8
APS_GEOMETRY
 10
24.022
 20
-257.843
 40
3.481
 50
152.7
 51
171.085
  0
ARC
  8
APS_GEOMETRY
 10
35.111
 20
-259.583
 40
14.705
 50
171.085
 51
180.0
  0
LINE
  8
APS_GEOMETRY
 10
20.406
 11
20.406
 20
-259.583
 21
-277.897
  0
ARC
  8
APS_GEOMETRY
 10
39.833
 20
-277.897
 40
19.427
 50
180.0
 51
188.194
  0
ARC
  8
APS_GEOMETRY
 10
25.326
 20
-279.986
 40
4.77
 50
188.194
 51
204.775
  0
ARC
  8
APS_GEOMETRY
 10
23.916
 20
-280.636
 40
3.218
 50
204.775
 51
228.576
  0
ARC
  8
APS_GEOMETRY
 10
25.238
 20
-279.138
 40
5.216
 50
228.576
 51
247.218
  0
ARC
  8
APS_GEOMETRY
 10
17.569
 20
-297.21
 40
14.416
 50
59.381
 51
66.93
  0
ARC
  8
APS_GEOMETRY
 10
23.231
 20
-287.644
 40
3.301
 50
43.568
 51
59.381
  0
ARC
  8
APS_GEOMETRY
 10
24.136
 20
-286.783
 40
2.051
 50
19.041
 51
43.568
  0
ARC
  8
APS_GEOMETRY
 10
22.878
 20
-287.217
 40
3.382
 50
360.0
 51
19.041
  0
ARC
  8
APS_GEOMETRY
 10
23.513
 20
-287.217
 40
2.747
 50
317.66
 51
360.0
  0
ARC
  8
APS_GEOMETRY
 10
20.99
 20
-284.919
 40
6.16
 50
289.747
 51
317.66
  0
ARC
  8
APS_GEOMETRY
 10
18.878
 20
-279.034
 40
12.412
 50
281.964
 51
289.747
  0
ARC
  8
APS_GEOMETRY
 10
15.951
 20
-265.222
 40
26.531
 50
276.643
 51
281.964
  0
ARC
  8
APS_GEOMETRY
 10
14.719
 20
-254.646
 40
37.178
 50
272.836
 51
276.643
  0
ARC
  8
APS_GEOMETRY
 10
13.244
 20
-224.871
 40
66.99
 50
270.0
 51
272.836
  0
ARC
  8
APS_GEOMETRY
 10
13.244
 20
-206.421
 40
85.44
 50
267.283
 51
270.0
  0
ARC
  8
APS_GEOMETRY
 10
11.45
 20
-244.224
 40
47.595
 50
263.643
 51
267.283
  0
ARC
  8
APS_GEOMETRY
 10
9.948
 20
-257.708
 40
34.027
 50
258.563
 51
263.643
  0
ARC
  8
APS_GEOMETRY
 10
6.359
 20
-275.447
 40
15.929
 50
251.136
 51
258.563
  0
ARC
  8
APS_GEOMETRY
 10
3.155
 20
-284.74
 40
6.099
 50
222.558
 51
251.395
  0
ARC
  8
APS_GEOMETRY
 10
0.777
 20
-286.923
 40
2.871
 50
180.0
 51
222.558
  0
ARC
  8
APS_GEOMETRY
 10
0.298
 20
-286.923
 40
2.392
 50
150.642
 51
180.0
  0
ARC
  8
APS_GEOMETRY
 10
0.489
 20
-287.031
 40
2.612
 50
122.574
 51
150.642
  0
ARC
  8
APS_GEOMETRY
 10
-0.018
 20
-286.448
 40
1.851
 50
108.677
 51
119.055
  0
ARC
  8
APS_GEOMETRY
 10
23.098
 20
-354.832
 40
74.036
 50
107.038
 51
108.677
  0
ARC
  8
APS_GEOMETRY
 10
0.544
 20
-281.068
 40
3.099
 50
286.144
 51
308.66
  0
ARC
  8
APS_GEOMETRY
 10
1.051
 20
-281.703
 40
2.287
 50
308.66
 51
334.933
  0
ARC
  8
APS_GEOMETRY
 10
-1.014
 20
-280.737
 40
4.566
 50
334.933
 51
348.829
  0
ARC
  8
APS_GEOMETRY
 10
-26.839
 20
-275.637
 40
30.891
 50
348.829
 51
354.161
  0
ARC
  8
APS_GEOMETRY
 10
-44.295
 20
-273.838
 40
48.439
 50
354.144
 51
355.66
  0
ARC
  8
APS_GEOMETRY
 10
-121.672
 20
-267.966
 40
126.038
 50
355.66
 51
356.6
  0
ARC
  8
APS_GEOMETRY
 10
-180.821
 20
-264.452
 40
185.291
 50
356.6
 51
357.24
  0
ARC
  8
APS_GEOMETRY
 10
-348.646
 20
-256.36
 40
353.311
 50
357.24
 51
357.703
  0
ARC
  8
APS_GEOMETRY
 10
-332.126
 20
-257.023
 40
336.777
 50
357.703
 51
358.674
  0
ARC
  8
APS_GEOMETRY
 10
-176.293
 20
-260.629
 40
180.903
 50
358.674
 51
0.0
  0
ARC
  8
APS_GEOMETRY
 10
-22.2
 20
-260.629
 40
26.81
 50
0.0
 51
6.242
  0
ARC
  8
APS_GEOMETRY
 10
-0.881
 20
-258.297
 40
5.364
 50
6.242
 51
20.225
  0
ARC
  8
APS_GEOMETRY
 10
2.074
 20
-257.209
 40
2.215
 50
20.225
 51
50.44
  0
ARC
  8
APS_GEOMETRY
 10
2.648
 20
-256.514
 40
1.314
 50
50.44
 51
90.0
  0
ARC
  8
APS_GEOMETRY
 10
2.648
 20
-256.963
 40
1.762
 50
90.0
 51
126.747
  0
ARC
  8
APS_GEOMETRY
 10
5.138
 20
-260.298
 40
5.924
 50
126.747
 51
146.547
  0
ARC
  8
APS_GEOMETRY
 10
-38.85
 20
-231.385
 40
46.715
 50
324.255
 51
326.701
  0
ARC
  8
APS_GEOMETRY
 10
-20.227
 20
-244.789
 40
23.77
 50
320.826
 51
324.255
  0
ARC
  8
APS_GEOMETRY
 10
-14.14
 20
-249.748
 40
15.918
 50
315.722
 51
320.826
  0
ARC
  8
APS_GEOMETRY
 10
-7.146
 20
-256.568
 40
6.149
 50
307.504
 51
315.722
  0
ARC
  8
APS_GEOMETRY
 10
-7.791
 20
-255.707
 40
7.226
 50
291.306
 51
307.405
  0
ARC
  8
APS_GEOMETRY
 10
-6.672
 20
-258.576
 40
4.146
 50
270.0
 51
291.306
  0
ARC
  8
APS_GEOMETRY
 10
-6.672
 20
-258.843
 40
3.879
 50
245.532
 51
270.0
  0
ARC
  8
APS_GEOMETRY
 10
-6.702
 20
-258.908
 40
3.808
 50
220.833
 51
245.532
  0
ARC
  8
APS_GEOMETRY
 10
-6.309
 20
-258.568
 40
4.328
 50
198.684
 51
220.833
  0
ARC
  8
APS_GEOMETRY
 10
-4.667
 20
-258.013
 40
6.06
 50
180.0
 51
198.684
  0
ARC
  8
APS_GEOMETRY
 10
-0.82
 20
-258.013
 40
9.908
 50
168.408
 51
180.0
  0
ARC
  8
APS_GEOMETRY
 10
5.533
 20
-259.316
 40
16.393
 50
159.402
 51
168.408
  0
ARC
  8
APS_GEOMETRY
 10
7.496
 20
-260.054
 40
18.49
 50
151.39
 51
159.402
  0
ARC
  8
APS_GEOMETRY
 10
7.094
 20
-259.834
 40
18.032
 50
143.276
 51
151.39
  0
ARC
  8
APS_GEOMETRY
 10
2.044
 20
-256.059
 40
11.726
 50
124.216
 51
143.31
  0
ARC
  8
APS_GEOMETRY
 10
-2.454
 20
-249.444
 40
3.728
 50
90.0
 51
124.216
  0
ARC
  8
APS_GEOMETRY
 10
-2.454
 20
-251.101
 40
5.384
 50
82.725
 51
90.0
  0
ARC
  8
APS_GEOMETRY
 10
-2.874
 20
-254.396
 40
8.707
 50
77.005
 51
82.725
  0
ARC
  8
APS_GEOMETRY
 10
9.974
 20
-192.45
 40
54.561
 50
258.486
 51
260.378
  0
ARC
  8
APS_GEOMETRY
 10
4.47
 20
-224.915
 40
21.633
 50
260.378
 51
263.382
  0
ARC
  8
APS_GEOMETRY
 10
3.999
 20
-228.972
 40
17.548
 50
263.382
 51
267.084
  0
ARC
  8
APS_GEOMETRY
 10
4.545
 20
-218.261
 40
28.273
 50
267.084
 51
270.0
  0
ARC
  8
APS_GEOMETRY
 10
64.272
 20
-271.4
 40
25.782
 50
71.91
 51
90.0
  0
ARC
  8
APS_GEOMETRY
 10
65.27
 20
-268.343
 40
22.566
 50
52.561
 51
71.91
  0
ARC
  8
APS_GEOMETRY
 10
65.009
 20
-268.419
 40
22.786
 50
38.846
 51
52.156
  0
ARC
  8
APS_GEOMETRY
 10
61.437
 20
-271.296
 40
27.372
 50
26.707
 51
38.846
  0
ARC
  8
APS_GEOMETRY
 10
62.144
 20
-270.718
 40
26.482
 50
13.868
 51
26.278
  0
ARC
  8
APS_GEOMETRY
 10
67.244
 20
-269.459
 40
21.229
 50
360.0
 51
13.868
  0
ARC
  8
APS_GEOMETRY
 10
67.574
 20
-269.459
 40
20.899
 50
339.712
 51
360.0
  0
ARC
  8
APS_GEOMETRY
 10
66.397
 20
-269.024
 40
22.153
 50
320.013
 51
339.712
  0
ARC
  8
APS_GEOMETRY
 10
66.202
 20
-268.917
 40
22.372
 50
303.344
 51
320.123
  0
ARC
  8
APS_GEOMETRY
 10
63.906
 20
-265.428
 40
26.548
 50
287.949
 51
303.344
  0
ARC
  8
APS_GEOMETRY
 10
63.152
 20
-262.813
 40
29.269
 50
279.039
 51
287.776
  0
ARC
  8
APS_GEOMETRY
 10
63.454
 20
-264.711
 40
27.346
 50
270.0
 51
279.039
  0
ARC
  8
APS_GEOMETRY
 10
63.454
 20
-266.046
 40
26.011
 50
257.728
 51
270.0
  0
ARC
  8
APS_GEOMETRY
 10
63.495
 20
-265.858
 40
26.203
 50
245.501
 51
257.728
  0
ARC
  8
APS_GEOMETRY
 10
62.023
 20
-269.081
 40
22.66
 50
228.665
 51
245.511
  0
ARC
  8
APS_GEOMETRY
 10
61.533
 20
-269.638
 40
21.918
 50
211.535
 51
228.665
  0
ARC
  8
APS_GEOMETRY
 10
62.175
 20
-269.166
 40
22.712
 50
195.642
 51
211.701
  0
ARC
  8
APS_GEOMETRY
 10
63.348
 20
-268.838
 40
23.931
 50
180.0
 51
195.642
  0
ARC
  8
APS_GEOMETRY
 10
63.6
 20
-268.838
 40
24.183
 50
162.181
 51
180.0
  0
ARC
  8
APS_GEOMETRY
 10
61.393
 20
-268.129
 40
21.865
 50
143.434
 51
162.181
  0
ARC
  8
APS_GEOMETRY
 10
61.097
 20
-267.891
 40
21.485
 50
126.384
 51
143.471
  0
ARC
  8
APS_GEOMETRY
 10
63.131
 20
-270.651
 40
24.914
 50
110.525
 51
126.384
  0
ARC
  8
APS_GEOMETRY
 10
63.03
 20
-269.902
 40
24.177
 50
99.77
 51
110.925
  0
ARC
  8
APS_GEOMETRY
 10
64.272
 20
-277.114
 40
31.496
 50
90.0
 51
99.77
  0
ARC
  8
APS_GEOMETRY
 10
61.165
 20
-259.811
 40
4.807
 50
90.0
 51
119.604
  0
ARC
  8
APS_GEOMETRY
 10
61.586
 20
-260.552
 40
5.659
 50
119.604
 51
146.842
  0
ARC
  8
APS_GEOMETRY
 10
62.432
 20
-261.246
 40
6.748
 50
145.84
 51
164.055
  0
ARC
  8
APS_GEOMETRY
 10
64.394
 20
-261.807
 40
8.788
 50
164.055
 51
180.0
  0
ARC
  8
APS_GEOMETRY
 10
76.658
 20
-261.807
 40
21.053
 50
180.0
 51
189.977
  0
ARC
  8
APS_GEOMETRY
 10
95.31
 20
-258.526
 40
39.991
 50
189.977
 51
197.211
  0
ARC
  8
APS_GEOMETRY
 10
99.389
 20
-257.262
 40
44.261
 50
197.211
 51
203.76
  0
ARC
  8
APS_GEOMETRY
 10
89.226
 20
-261.736
 40
33.157
 50
203.76
 51
211.329
  0
ARC
  8
APS_GEOMETRY
 10
68.358
 20
-274.26
 40
8.821
 50
212.32
 51
224.441
  0
ARC
  8
APS_GEOMETRY
 10
67.503
 20
-275.098
 40
7.623
 50
224.441
 51
237.484
  0
ARC
  8
APS_GEOMETRY
 10
66.95
 20
-275.966
 40
6.595
 50
237.484
 51
252.416
  0
ARC
  8
APS_GEOMETRY
 10
66.398
 20
-277.709
 40
4.766
 50
252.416
 51
270.0
  0
ARC
  8
APS_GEOMETRY
 10
66.398
 20
-277.144
 40
5.331
 50
270.0
 51
294.953
  0
ARC
  8
APS_GEOMETRY
 10
66.547
 20
-277.465
 40
4.977
 50
294.953
 51
320.793
  0
ARC
  8
APS_GEOMETRY
 10
65.746
 20
-276.812
 40
6.011
 50
320.793
 51
342.777
  0
ARC
  8
APS_GEOMETRY
 10
62.179
 20
-275.706
 40
9.746
 50
342.777
 51
0.0
  0
ARC
  8
APS_GEOMETRY
 10
45.417
 20
-275.706
 40
26.507
 50
0.0
 51
8.499
  0
ARC
  8
APS_GEOMETRY
 10
33.75
 20
-277.449
 40
38.304
 50
8.499
 51
15.566
  0
ARC
  8
APS_GEOMETRY
 10
35.153
 20
-277.058
 40
36.848
 50
15.566
 51
22.909
  0
ARC
  8
APS_GEOMETRY
 10
47.217
 20
-271.96
 40
23.751
 50
22.909
 51
32.057
  0
ARC
  8
APS_GEOMETRY
 10
56.692
 20
-265.991
 40
12.552
 50
31.921
 51
42.51
  0
ARC
  8
APS_GEOMETRY
 10
59.294
 20
-263.605
 40
9.022
 50
42.51
 51
55.008
  0
ARC
  8
APS_GEOMETRY
 10
60.173
 20
-262.35
 40
7.489
 50
55.008
 51
69.88
  0
ARC
  8
APS_GEOMETRY
 10
60.961
 20
-260.198
 40
5.198
 50
69.88
 51
87.754
  0
ARC
  8
APS_GEOMETRY
 10
112.693
 20
-261.602
 40
15.983
 50
83.923
 51
90.0
  0
ARC
  8
APS_GEOMETRY
 10
111.407
 20
-273.677
 40
28.127
 50
79.342
 51
83.923
  0
ARC
  8
APS_GEOMETRY
 10
109.856
 20
-281.917
 40
36.512
 50
75.808
 51
79.342
  0
ARC
  8
APS_GEOMETRY
 10
104.446
 20
-303.312
 40
58.58
 50
73.018
 51
75.808
  0
ARC
  8
APS_GEOMETRY
 10
123.497
 20
-240.819
 40
6.752
 50
253.288
 51
259.046
  0
ARC
  8
APS_GEOMETRY
 10
122.569
 20
-245.613
 40
1.87
 50
259.046
 51
270.0
  0
ARC
  8
APS_GEOMETRY
 10
122.569
 20
-246.373
 40
1.11
 50
270.0
 51
286.699
  0
ARC
  8
APS_GEOMETRY
 10
113.696
 20
-216.795
 40
31.989
 50
286.699
 51
289.799
  0
ARC
  8
APS_GEOMETRY
 10
125.586
 20
-249.705
 40
3.002
 50
100.008
 51
110.556
  0
ARC
  8
APS_GEOMETRY
 10
125.643
 20
-250.032
 40
3.334
 50
90.0
 51
100.008
  0
ARC
  8
APS_GEOMETRY
 10
125.643
 20
-249.877
 40
3.179
 50
53.356
 51
90.0
  0
ARC
  8
APS_GEOMETRY
 10
120.089
 20
-257.343
 40
12.484
 50
35.101
 51
53.356
  0
ARC
  8
APS_GEOMETRY
 10
117.318
 20
-259.29
 40
15.871
 50
20.245
 51
35.101
  0
ARC
  8
APS_GEOMETRY
 10
124.152
 20
-256.77
 40
8.588
 50
360.0
 51
20.245
  0
ARC
  8
APS_GEOMETRY
 10
127.59
 20
-256.77
 40
5.15
 50
340.481
 51
360.0
  0
ARC
  8
APS_GEOMETRY
 10
128.438
 20
-257.071
 40
4.25
 50
318.972
 51
340.481
  0
ARC
  8
APS_GEOMETRY
 10
128.817
 20
-257.4
 40
3.748
 50
295.017
 51
318.972
  0
ARC
  8
APS_GEOMETRY
 10
128.946
 20
-257.678
 40
3.442
 50
270.0
 51
295.017
  0
ARC
  8
APS_GEOMETRY
 10
128.946
 20
-255.834
 40
5.285
 50
256.171
 51
270.0
  0
ARC
  8
APS_GEOMETRY
 10
128.37
 20
-258.176
 40
2.874
 50
237.381
 51
256.171
  0
ARC
  8
APS_GEOMETRY
 10
129.391
 20
-256.581
 40
4.768
 50
231.559
 51
237.381
  0
ARC
  8
APS_GEOMETRY
 10
144.233
 20
-237.881
 40
28.642
 50
229.185
 51
231.559
  0
ARC
  8
APS_GEOMETRY
 10
160.141
 20
-219.462
 40
52.979
 50
227.9
 51
229.185
  0
ARC
  8
APS_GEOMETRY
 10
215.194
 20
-158.534
 40
135.095
 50
227.095
 51
227.9
  0
ARC
  8
APS_GEOMETRY
 10
111.831
 20
-269.696
 40
16.696
 50
46.975
 51
64.612
  0
ARC
  8
APS_GEOMETRY
 10
115.505
 20
-261.954
 40
8.127
 50
64.612
 51
90.0
  0
ARC
  8
APS_GEOMETRY
 10
115.505
 20
-259.683
 40
5.856
 50
90.0
 51
106.966
  0
ARC
  8
APS_GEOMETRY
 10
114.827
 20
-257.459
 40
3.531
 50
106.966
 51
128.868
  0
ARC
  8
APS_GEOMETRY
 10
114.434
 20
-256.972
 40
2.905
 50
128.868
 51
154.741
  0
ARC
  8
APS_GEOMETRY
 10
114.561
 20
-257.032
 40
3.046
 50
154.741
 51
180.0
  0
ARC
  8
APS_GEOMETRY
 10
114.376
 20
-257.032
 40
2.861
 50
180.0
 51
206.64
  0
ARC
  8
APS_GEOMETRY
 10
115.297
 20
-256.57
 40
3.891
 50
206.64
 51
229.43
  0
ARC
  8
APS_GEOMETRY
 10
116.772
 20
-254.847
 40
6.159
 50
229.43
 51
244.493
  0
ARC
  8
APS_GEOMETRY
 10
120.818
 20
-246.368
 40
15.554
 50
244.493
 51
253.956
  0
ARC
  8
APS_GEOMETRY
 10
48.747
 20
-491.297
 40
239.758
 50
72.737
 51
73.58
  0
ARC
  8
APS_GEOMETRY
 10
90.051
 20
-358.381
 40
100.573
 50
71.435
 51
72.737
  0
ARC
  8
APS_GEOMETRY
 10
103.731
 20
-317.646
 40
57.603
 50
69.164
 51
71.435
  0
ARC
  8
APS_GEOMETRY
 10
119.876
 20
-275.224
 40
12.212
 50
64.231
 51
69.164
  0
ARC
  8
APS_GEOMETRY
 10
118.019
 20
-278.963
 40
16.387
 50
34.939
 51
64.068
  0
ARC
  8
APS_GEOMETRY
 10
122.027
 20
-276.163
 40
11.498
 50
360.0
 51
34.939
  0
ARC
  8
APS_GEOMETRY
 10
119.563
 20
-276.163
 40
13.962
 50
333.435
 51
360.0
  0
ARC
  8
APS_GEOMETRY
 10
118.65
 20
-275.707
 40
14.982
 50
307.807
 51
333.435
  0
ARC
  8
APS_GEOMETRY
 10
116.275
 20
-272.634
 40
18.866
 50
296.732
 51
307.786
  0
ARC
  8
APS_GEOMETRY
 10
114.87
 20
-269.844
 40
21.99
 50
286.496
 51
296.732
  0
ARC
  8
APS_GEOMETRY
 10
113.944
 20
-266.719
 40
25.25
 50
277.544
 51
286.496
  0
ARC
  8
APS_GEOMETRY
 10
112.595
 20
-256.528
 40
35.53
 50
270.0
 51
277.544
  0
ARC
  8
APS_GEOMETRY
 10
112.595
 20
-254.986
 40
37.071
 50
263.555
 51
270.0
  0
ARC
  8
APS_GEOMETRY
 10
113.795
 20
-244.363
 40
47.762
 50
257.878
 51
263.555
  0
ARC
  8
APS_GEOMETRY
 10
113.158
 20
-247.328
 40
44.729
 50
254.839
 51
257.878
  0
ARC
  8
APS_GEOMETRY
 10
107.991
 20
-266.396
 40
24.974
 50
250.772
 51
254.839
  0
ARC
  8
APS_GEOMETRY
 10
105.667
 20
-273.058
 40
17.918
 50
245.121
 51
250.772
  0
ARC
  8
APS_GEOMETRY
 10
101.734
 20
-281.54
 40
8.568
 50
236.944
 51
245.121
  0
ARC
  8
APS_GEOMETRY
 10
99.414
 20
-285.191
 40
4.243
 50
211.802
 51
236.31
  0
ARC
  8
APS_GEOMETRY
 10
110.439
 20
-278.355
 40
17.215
 50
199.704
 51
211.802
  0
ARC
  8
APS_GEOMETRY
 10
115.703
 20
-276.47
 40
22.807
 50
190.413
 51
199.704
  0
ARC
  8
APS_GEOMETRY
 10
111.141
 20
-277.308
 40
18.168
 50
180.0
 51
190.413
  0
ARC
  8
APS_GEOMETRY
 10
98.841
 20
-277.308
 40
5.869
 50
164.876
 51
180.0
  0
ARC
  8
APS_GEOMETRY
 10
95.535
 20
-276.414
 40
2.443
 50
141.34
 51
164.876
  0
ARC
  8
APS_GEOMETRY
 10
95.854
 20
-276.628
 40
2.827
 50
116.928
 51
142.001
  0
ARC
  8
APS_GEOMETRY
 10
95.687
 20
-276.299
 40
2.457
 50
90.0
 51
116.928
  0
ARC
  8
APS_GEOMETRY
 10
95.687
 20
-276.305
 40
2.464
 50
62.21
 51
90.0
  0
ARC
  8
APS_GEOMETRY
 10
94.703
 20
-278.171
 40
4.573
 50
41.906
 51
62.21
  0
ARC
  8
APS_GEOMETRY
 10
94.87
 20
-278.207
 40
4.475
 50
37.313
 51
43.668
  0
ARC
  8
APS_GEOMETRY
 10
69.802
 20
-297.312
 40
35.993
 50
35.074
 51
37.313
  0
ARC
  8
APS_GEOMETRY
 10
41.335
 20
-317.3
 40
70.777
 50
33.934
 51
35.074
  0
ARC
  8
APS_GEOMETRY
 10
-60.163
 20
-385.59
 40
193.11
 50
33.243
 51
33.934
  0
ARC
  8
APS_GEOMETRY
 10
106.957
 20
-276.02
 40
6.727
 50
213.453
 51
231.637
  0
ARC
  8
APS_GEOMETRY
 10
110.135
 20
-272.004
 40
11.848
 50
231.637
 51
245.313
  0
ARC
  8
APS_GEOMETRY
 10
110.836
 20
-270.481
 40
13.524
 50
245.313
 51
257.398
  0
ARC
  8
APS_GEOMETRY
 10
110.6
 20
-271.536
 40
12.443
 50
257.398
 51
270.0
  0
ARC
  8
APS_GEOMETRY
 10
110.6
 20
-273.474
 40
10.506
 50
270.0
 51
282.907
  0
ARC
  8
APS_GEOMETRY
 10
111.73
 20
-278.407
 40
5.445
 50
282.907
 51
300.872
  0
ARC
  8
APS_GEOMETRY
 10
112.71
 20
-280.046
 40
3.535
 50
300.872
 51
326.876
  0
ARC
  8
APS_GEOMETRY
 10
113.826
 20
-280.775
 40
2.202
 50
326.876
 51
0.0
  0
ARC
  8
APS_GEOMETRY
 10
113.497
 20
-280.775
 40
2.531
 50
0.0
 51
27.553
  0
ARC
  8
APS_GEOMETRY
 10
112.697
 20
-281.192
 40
3.434
 50
27.553
 51
51.147
  0
ARC
  8
APS_GEOMETRY
 10
111.042
 20
-283.246
 40
6.071
 50
51.147
 51
65.225
  0
ARC
  8
APS_GEOMETRY
 10
104.939
 20
-296.47
 40
20.636
 50
65.225
 51
72.848
  0
ARC
  8
APS_GEOMETRY
 10
140.58
 20
-182.831
 40
98.462
 50
251.106
 51
252.532
  0
ARC
  8
APS_GEOMETRY
 10
127.964
 20
-219.692
 40
59.501
 50
249.271
 51
251.106
  0
ARC
  8
APS_GEOMETRY
 10
122.719
 20
-233.551
 40
44.683
 50
246.83
 51
249.271
  0
ARC
  8
APS_GEOMETRY
 10
114.235
 20
-253.374
 40
23.121
 50
243.435
 51
246.83
  0
ARC
  8
APS_GEOMETRY
 10
113.27
 20
-255.305
 40
20.961
 50
235.981
 51
243.435
  0
ARC
  8
APS_GEOMETRY
 10
114.011
 20
-254.207
 40
22.287
 50
228.752
 51
235.981
  0
ARC
  8
APS_GEOMETRY
 10
110.537
 20
-258.301
 40
16.918
 50
206.421
 51
228.457
  0
ARC
  8
APS_GEOMETRY
 10
105.982
 20
-260.564
 40
11.833
 50
180.0
 51
206.421
  0
ARC
  8
APS_GEOMETRY
 10
106.197
 20
-260.564
 40
12.047
 50
166.555
 51
180.0
  0
ARC
  8
APS_GEOMETRY
 10
107.592
 20
-260.897
 40
13.482
 50
153.848
 51
166.555
  0
ARC
  8
APS_GEOMETRY
 10
107.709
 20
-260.954
 40
13.611
 50
141.244
 51
153.848
  0
ARC
  8
APS_GEOMETRY
 10
108.569
 20
-261.645
 40
14.714
 50
129.123
 51
141.244
  0
ARC
  8
APS_GEOMETRY
 10
111.322
 20
-264.572
 40
18.725
 50
108.978
 51
130.006
  0
ARC
  8
APS_GEOMETRY
 10
112.693
 20
-268.558
 40
22.94
 50
90.0
 51
108.978
  0
ARC
  8
APS_GEOMETRY
 10
162.683
 20
-266.882
 40
21.264
 50
77.257
 51
90.0
  0
ARC
  8
APS_GEOMETRY
 10
162.467
 20
-267.838
 40
22.243
 50
64.799
 51
77.257
  0
ARC
  8
APS_GEOMETRY
 10
180.785
 20
-228.839
 40
20.843
 50
244.885
 51
251.175
  0
ARC
  8
APS_GEOMETRY
 10
174.816
 20
-246.347
 40
2.346
 50
251.175
 51
270.0
  0
ARC
  8
APS_GEOMETRY
 10
174.816
 20
-244.886
 40
3.806
 50
270.0
 51
278.82
  0
ARC
  8
APS_GEOMETRY
 10
172.357
 20
-229.039
 40
19.844
 50
278.82
 51
282.68
  0
ARC
  8
APS_GEOMETRY
 10
177.502
 20
-251.819
 40
3.511
 50
95.906
 51
102.995
  0
ARC
  8
APS_GEOMETRY
 10
177.661
 20
-253.355
 40
5.055
 50
90.0
 51
95.906
  0
ARC
  8
APS_GEOMETRY
 10
177.661
 20
-251.656
 40
3.356
 50
62.447
 51
90.0
  0
ARC
  8
APS_GEOMETRY
 10
177.065
 20
-252.799
 40
4.645
 50
39.094
 51
62.447
  0
ARC
  8
APS_GEOMETRY
 10
170.831
 20
-258.013
 40
12.772
 50
18.435
 51
39.611
  0
ARC
  8
APS_GEOMETRY
 10
167.004
 20
-259.288
 40
16.806
 50
360.0
 51
18.435
  0
ARC
  8
APS_GEOMETRY
 10
175.476
 20
-259.288
 40
8.333
 50
334.877
 51
360.0
  0
ARC
  8
APS_GEOMETRY
 10
177.983
 20
-260.464
 40
5.565
 50
304.007
 51
334.877
  0
ARC
  8
APS_GEOMETRY
 10
177.941
 20
-260.346
 40
5.686
 50
286.39
 51
303.69
  0
ARC
  8
APS_GEOMETRY
 10
177.76
 20
-259.728
 40
6.33
 50
270.0
 51
286.39
  0
ARC
  8
APS_GEOMETRY
 10
177.76
 20
-259.801
 40
6.257
 50
255.155
 51
270.0
  0
ARC
  8
APS_GEOMETRY
 10
177.074
 20
-262.387
 40
3.581
 50
235.491
 51
255.155
  0
ARC
  8
APS_GEOMETRY
 10
177.418
 20
-261.887
 40
4.189
 50
218.48
 51
235.491
  0
ARC
  8
APS_GEOMETRY
 10
183.039
 20
-257.419
 40
11.369
 50
208.179
 51
218.48
  0
ARC
  8
APS_GEOMETRY
 10
125.415
 20
-288.698
 40
54.198
 50
28.56
 51
31.664
  0
ARC
  8
APS_GEOMETRY
 10
160.627
 20
-266.981
 40
12.827
 50
31.664
 51
38.047
  0
ARC
  8
APS_GEOMETRY
 10
163.187
 20
-264.978
 40
9.576
 50
38.047
 51
46.56
  0
ARC
  8
APS_GEOMETRY
 10
161.856
 20
-266.383
 40
11.512
 50
46.56
 51
54.324
  0
ARC
  8
APS_GEOMETRY
 10
161.088
 20
-267.704
 40
13.034
 50
54.968
 51
71.48
  0
ARC
  8
APS_GEOMETRY
 10
161.931
 20
-265.188
 40
10.38
 50
71.48
 51
90.0
  0
ARC
  8
APS_GEOMETRY
 10
161.931
 20
-262.059
 40
7.251
 50
90.0
 51
114.63
  0
ARC
  8
APS_GEOMETRY
 10
161.567
 20
-261.264
 40
6.377
 50
114.63
 51
140.921
  0
ARC
  8
APS_GEOMETRY
 10
162.643
 20
-262.138
 40
7.763
 50
140.921
 51
163.13
  0
ARC
  8
APS_GEOMETRY
 10
168.02
 20
-263.769
 40
13.382
 50
163.13
 51
180.0
  0
ARC
  8
APS_GEOMETRY
 10
174.994
 20
-263.769
 40
20.355
 50
180.0
 51
195.44
  0
ARC
  8
APS_GEOMETRY
 10
173.936
 20
-264.061
 40
19.258
 50
195.44
 51
211.316
  0
ARC
  8
APS_GEOMETRY
 10
168.846
 20
-267.05
 40
13.357
 50
211.708
 51
240.457
  0
ARC
  8
APS_GEOMETRY
 10
168.504
 20
-267.654
 40
12.663
 50
240.457
 51
270.0
  0
ARC
  8
APS_GEOMETRY
 10
168.504
 20
-264.566
 40
15.751
 50
270.0
 51
279.549
  0
ARC
  8
APS_GEOMETRY
 10
168.309
 20
-263.402
 40
16.931
 50
279.549
 51
288.759
  0
ARC
  8
APS_GEOMETRY
 10
169.134
 20
-265.832
 40
14.364
 50
288.759
 51
299.545
  0
ARC
  8
APS_GEOMETRY
 10
172.444
 20
-271.672
 40
7.652
 50
299.545
 51
314.341
  0
ARC
  8
APS_GEOMETRY
 10
182.679
 20
-282.303
 40
7.105
 50
120.141
 51
133.452
  0
ARC
  8
APS_GEOMETRY
 10
179.82
 20
-277.379
 40
1.412
 50
90.0
 51
120.141
  0
ARC
  8
APS_GEOMETRY
 10
179.82
 20
-278.197
 40
2.23
 50
61.952
 51
90.0
  0
ARC
  8
APS_GEOMETRY
 10
179.488
 20
-278.82
 40
2.936
 50
37.569
 51
61.952
  0
ARC
  8
APS_GEOMETRY
 10
178.869
 20
-279.296
 40
3.717
 50
17.665
 51
37.569
  0
ARC
  8
APS_GEOMETRY
 10
177.924
 20
-279.597
 40
4.709
 50
360.0
 51
17.665
  0
ARC
  8
APS_GEOMETRY
 10
175.552
 20
-279.597
 40
7.081
 50
344.932
 51
360.0
  0
ARC
  8
APS_GEOMETRY
 10
169.254
 20
-277.902
 40
13.603
 50
334.075
 51
344.932
  0
ARC
  8
APS_GEOMETRY
 10
169.056
 20
-277.805
 40
13.823
 50
323.374
 51
334.075
  0
ARC
  8
APS_GEOMETRY
 10
173.119
 20
-280.826
 40
8.76
 50
309.92
 51
323.374
  0
ARC
  8
APS_GEOMETRY
 10
177.18
 20
-285.617
 40
2.48
 50
289.026
 51
308.991
  0
ARC
  8
APS_GEOMETRY
 10
172.848
 20
-273.051
 40
15.771
 50
281.143
 51
289.026
  0
ARC
  8
APS_GEOMETRY
 10
177.242
 20
-295.833
 40
7.431
 50
100.437
 51
110.12
  0
ARC
  8
APS_GEOMETRY
 10
183.063
 20
-311.723
 40
24.353
 50
110.12
 51
115.463
  0
ARC
  8
APS_GEOMETRY
 10
162.282
 20
-268.242
 40
23.838
 50
282.94
 51
295.628
  0
ARC
  8
APS_GEOMETRY
 10
162.487
 20
-269.136
 40
22.921
 50
270.0
 51
282.94
  0
ARC
  8
APS_GEOMETRY
 10
162.487
 20
-267.782
 40
24.275
 50
257.307
 51
270.0
  0
ARC
  8
APS_GEOMETRY
 10
163.512
 20
-263.233
 40
28.939
 50
245.686
 51
257.307
  0
ARC
  8
APS_GEOMETRY
 10
160.942
 20
-268.874
 40
22.739
 50
228.801
 51
245.735
  0
ARC
  8
APS_GEOMETRY
 10
160.985
 20
-268.825
 40
22.805
 50
211.891
 51
228.801
  0
ARC
  8
APS_GEOMETRY
 10
162.332
 20
-267.855
 40
24.462
 50
196.728
 51
212.152
  0
ARC
  8
APS_GEOMETRY
 10
158.844
 20
-268.903
 40
20.82
 50
180.0
 51
196.728
  0
ARC
  8
APS_GEOMETRY
 10
159.352
 20
-268.903
 40
21.327
 50
161.184
 51
180.0
  0
ARC
  8
APS_GEOMETRY
 10
160.72
 20
-269.369
 40
22.773
 50
142.98
 51
161.184
  0
ARC
  8
APS_GEOMETRY
 10
161.784
 20
-270.184
 40
24.112
 50
127.824
 51
142.958
  0
ARC
  8
APS_GEOMETRY
 10
163.538
 20
-272.443
 40
26.973
 50
113.52
 51
127.824
  0
ARC
  8
APS_GEOMETRY
 10
162.967
 20
-271.124
 40
25.535
 50
101.927
 51
113.527
  0
ARC
  8
APS_GEOMETRY
 10
162.683
 20
-269.779
 40
24.161
 50
90.0
 51
101.927
  0
ARC
  8
APS_GEOMETRY
 10
213.164
 20
-271.4
 40
25.782
 50
71.91
 51
90.0
  0
ARC
  8
APS_GEOMETRY
 10
214.163
 20
-268.343
 40
22.566
 50
52.561
 51
71.91
  0
ARC
  8
APS_GEOMETRY
 10
213.901
 20
-268.419
 40
22.786
 50
38.846
 51
52.156
  0
ARC
  8
APS_GEOMETRY
 10
210.329
 20
-271.296
 40
27.372
 50
26.707
 51
38.846
  0
ARC
  8
APS_GEOMETRY
 10
211.036
 20
-270.718
 40
26.482
 50
13.868
 51
26.278
  0
ARC
  8
APS_GEOMETRY
 10
216.136
 20
-269.459
 40
21.229
 50
360.0
 51
13.868
  0
ARC
  8
APS_GEOMETRY
 10
216.466
 20
-269.459
 40
20.899
 50
339.712
 51
360.0
  0
ARC
  8
APS_GEOMETRY
 10
215.29
 20
-269.024
 40
22.153
 50
320.013
 51
339.712
  0
ARC
  8
APS_GEOMETRY
 10
215.095
 20
-268.917
 40
22.372
 50
303.344
 51
320.123
  0
ARC
  8
APS_GEOMETRY
 10
212.799
 20
-265.428
 40
26.548
 50
287.949
 51
303.344
  0
ARC
  8
APS_GEOMETRY
 10
212.045
 20
-262.813
 40
29.269
 50
279.039
 51
287.776
  0
ARC
  8
APS_GEOMETRY
 10
212.347
 20
-264.711
 40
27.346
 50
270.0
 51
279.039
  0
ARC
  8
APS_GEOMETRY
 10
212.347
 20
-266.046
 40
26.011
 50
257.728
 51
270.0
  0
ARC
  8
APS_GEOMETRY
 10
212.388
 20
-265.858
 40
26.203
 50
245.501
 51
257.728
  0
ARC
  8
APS_GEOMETRY
 10
210.915
 20
-269.081
 40
22.66
 50
228.665
 51
245.511
  0
ARC
  8
APS_GEOMETRY
 10
210.425
 20
-269.638
 40
21.918
 50
211.535
 51
228.665
  0
ARC
  8
APS_GEOMETRY
 10
211.067
 20
-269.166
 40
22.712
 50
195.642
 51
211.701
  0
ARC
  8
APS_GEOMETRY
 10
212.241
 20
-268.838
 40
23.931
 50
180.0
 51
195.642
  0
ARC
  8
APS_GEOMETRY
 10
212.492
 20
-268.838
 40
24.183
 50
162.181
 51
180.0
  0
ARC
  8
APS_GEOMETRY
 10
210.286
 20
-268.129
 40
21.865
 50
143.434
 51
162.181
  0
ARC
  8
APS_GEOMETRY
 10
209.989
 20
-267.891
 40
21.485
 50
126.384
 51
143.471
  0
ARC
  8
APS_GEOMETRY
 10
212.023
 20
-270.651
 40
24.914
 50
110.525
 51
126.384
  0
ARC
  8
APS_GEOMETRY
 10
211.922
 20
-269.902
 40
24.177
 50
99.77
 51
110.925
  0
ARC
  8
APS_GEOMETRY
 10
213.164
 20
-277.114
 40
31.496
 50
90.0
 51
99.77
  0
ARC
  8
APS_GEOMETRY
 10
210.057
 20
-259.811
 40
4.807
 50
90.0
 51
119.604
  0
ARC
  8
APS_GEOMETRY
 10
210.479
 20
-260.552
 40
5.659
 50
119.604
 51
146.842
  0
ARC
  8
APS_GEOMETRY
 10
211.325
 20
-261.246
 40
6.748
 50
145.84
 51
164.055
  0
ARC
  8
APS_GEOMETRY
 10
213.286
 20
-261.807
 40
8.788
 50
164.055
 51
180.0
  0
ARC
  8
APS_GEOMETRY
 10
225.55
 20
-261.807
 40
21.053
 50
180.0
 51
189.977
  0
ARC
  8
APS_GEOMETRY
 10
244.202
 20
-258.526
 40
39.991
 50
189.977
 51
197.211
  0
ARC
  8
APS_GEOMETRY
 10
248.282
 20
-257.262
 40
44.261
 50
197.211
 51
203.76
  0
ARC
  8
APS_GEOMETRY
 10
238.119
 20
-261.736
 40
33.157
 50
203.76
 51
211.329
  0
ARC
  8
APS_GEOMETRY
 10
217.251
 20
-274.26
 40
8.821
 50
212.32
 51
224.441
  0
ARC
  8
APS_GEOMETRY
 10
216.395
 20
-275.098
 40
7.623
 50
224.441
 51
237.484
  0
ARC
  8
APS_GEOMETRY
 10
215.843
 20
-275.966
 40
6.595
 50
237.484
 51
252.416
  0
ARC
  8
APS_GEOMETRY
 10
215.29
 20
-277.709
 40
4.766
 50
252.416
 51
270.0
  0
ARC
  8
APS_GEOMETRY
 10
215.29
 20
-277.144
 40
5.331
 50
270.0
 51
294.953
  0
ARC
  8
APS_GEOMETRY
 10
215.439
 20
-277.465
 40
4.977
 50
294.953
 51
320.793
  0
ARC
  8
APS_GEOMETRY
 10
214.639
 20
-276.812
 40
6.011
 50
320.793
 51
342.777
  0
ARC
  8
APS_GEOMETRY
 10
211.071
 20
-275.706
 40
9.746
 50
342.777
 51
0.0
  0
ARC
  8
APS_GEOMETRY
 10
194.31
 20
-275.706
 40
26.507
 50
0.0
 51
8.499
  0
ARC
  8
APS_GEOMETRY
 10
182.643
 20
-277.449
 40
38.304
 50
8.499
 51
15.566
  0
ARC
  8
APS_GEOMETRY
 10
184.045
 20
-277.058
 40
36.848
 50
15.566
 51
22.909
  0
ARC
  8
APS_GEOMETRY
 10
196.109
 20
-271.96
 40
23.751
 50
22.909
 51
32.057
  0
ARC
  8
APS_GEOMETRY
 10
205.585
 20
-265.991
 40
12.552
 50
31.921
 51
42.51
  0
ARC
  8
APS_GEOMETRY
 10
208.187
 20
-263.605
 40
9.022
 50
42.51
 51
55.008
  0
ARC
  8
APS_GEOMETRY
 10
209.066
 20
-262.35
 40
7.489
 50
55.008
 51
69.88
  0
ARC
  8
APS_GEOMETRY
 10
209.854
 20
-260.198
 40
5.198
 50
69.88
 51
87.754
  0
ARC
  8
APS_GEOMETRY
 10
266.523
 20
-266.882
 40
21.264
 50
77.257
 51
90.0
  0
ARC
  8
APS_GEOMETRY
 10
266.307
 20
-267.838
 40
22.243
 50
64.799
 51
77.257
  0
ARC
  8
APS_GEOMETRY
 10
284.625
 20
-228.839
 40
20.843
 50
244.885
 51
251.175
  0
ARC
  8
APS_GEOMETRY
 10
278.656
 20
-246.347
 40
2.346
 50
251.175
 51
270.0
  0
ARC
  8
APS_GEOMETRY
 10
278.656
 20
-244.886
 40
3.806
 50
270.0
 51
278.82
  0
ARC
  8
APS_GEOMETRY
 10
276.197
 20
-229.039
 40
19.844
 50
278.82
 51
282.68
  0
ARC
  8
APS_GEOMETRY
 10
281.343
 20
-251.819
 40
3.511
 50
95.906
 51
102.995
  0
ARC
  8
APS_GEOMETRY
 10
281.502
 20
-253.355
 40
5.055
 50
90.0
 51
95.906
  0
ARC
  8
APS_GEOMETRY
 10
281.502
 20
-251.656
 40
3.356
 50
62.447
 51
90.0
  0
ARC
  8
APS_GEOMETRY
 10
280.905
 20
-252.799
 40
4.645
 50
39.094
 51
62.447
  0
ARC
  8
APS_GEOMETRY
 10
274.671
 20
-258.013
 40
12.772
 50
18.435
 51
39.611
  0
ARC
  8
APS_GEOMETRY
 10
270.844
 20
-259.288
 40
16.806
 50
360.0
 51
18.435
  0
ARC
  8
APS_GEOMETRY
 10
279.317
 20
-259.288
 40
8.333
 50
334.877
 51
360.0
  0
ARC
  8
APS_GEOMETRY
 10
281.823
 20
-260.464
 40
5.565
 50
304.007
 51
334.877
  0
ARC
  8
APS_GEOMETRY
 10
281.782
 20
-260.346
 40
5.686
 50
286.39
 51
303.69
  0
ARC
  8
APS_GEOMETRY
 10
281.6
 20
-259.728
 40
6.33
 50
270.0
 51
286.39
  0
ARC
  8
APS_GEOMETRY
 10
281.6
 20
-259.801
 40
6.257
 50
255.155
 51
270.0
  0
ARC
  8
APS_GEOMETRY
 10
280.914
 20
-262.387
 40
3.581
 50
235.491
 51
255.155
  0
ARC
  8
APS_GEOMETRY
 10
281.258
 20
-261.887
 40
4.189
 50
218.48
 51
235.491
  0
ARC
  8
APS_GEOMETRY
 10
286.879
 20
-257.419
 40
11.369
 50
208.179
 51
218.48
  0
ARC
  8
APS_GEOMETRY
 10
229.255
 20
-288.698
 40
54.198
 50
28.56
 51
31.664
  0
ARC
  8
APS_GEOMETRY
 10
264.467
 20
-266.981
 40
12.827
 50
31.664
 51
38.047
  0
ARC
  8
APS_GEOMETRY
 10
267.027
 20
-264.978
 40
9.576
 50
38.047
 51
46.56
  0
ARC
  8
APS_GEOMETRY
 10
265.696
 20
-266.383
 40
11.512
 50
46.56
 51
54.324
  0
ARC
  8
APS_GEOMETRY
 10
264.928
 20
-267.704
 40
13.034
 50
54.968
 51
71.48
  0
ARC
  8
APS_GEOMETRY
 10
265.771
 20
-265.188
 40
10.38
 50
71.48
 51
90.0
  0
ARC
  8
APS_GEOMETRY
 10
265.771
 20
-262.059
 40
7.251
 50
90.0
 51
114.63
  0
ARC
  8
APS_GEOMETRY
 10
265.407
 20
-261.264
 40
6.377
 50
114.63
 51
140.921
  0
ARC
  8
APS_GEOMETRY
 10
266.483
 20
-262.138
 40
7.763
 50
140.921
 51
163.13
  0
ARC
  8
APS_GEOMETRY
 10
271.86
 20
-263.769
 40
13.382
 50
163.13
 51
180.0
  0
ARC
  8
APS_GEOMETRY
 10
278.834
 20
-263.769
 40
20.355
 50
180.0
 51
195.44
  0
ARC
  8
APS_GEOMETRY
 10
277.776
 20
-264.061
 40
19.258
 50
195.44
 51
211.316
  0
ARC
  8
APS_GEOMETRY
 10
272.686
 20
-267.05
 40
13.357
 50
211.708
 51
240.457
  0
ARC
  8
APS_GEOMETRY
 10
272.345
 20
-267.654
 40
12.663
 50
240.457
 51
270.0
  0
ARC
  8
APS_GEOMETRY
 10
272.345
 20
-264.566
 40
15.751
 50
270.0
 51
279.549
  0
ARC
  8
APS_GEOMETRY
 10
272.149
 20
-263.402
 40
16.931
 50
279.549
 51
288.759
  0
ARC
  8
APS_GEOMETRY
 10
272.974
 20
-265.832
 40
14.364
 50
288.759
 51
299.545
  0
ARC
  8
APS_GEOMETRY
 10
276.284
 20
-271.672
 40
7.652
 50
299.545
 51
314.341
  0
ARC
  8
APS_GEOMETRY
 10
286.519
 20
-282.303
 40
7.105
 50
120.141
 51
133.452
  0
ARC
  8
APS_GEOMETRY
 10
283.66
 20
-277.379
 40
1.412
 50
90.0
 51
120.141
  0
ARC
  8
APS_GEOMETRY
 10
283.66
 20
-278.197
 40
2.23
 50
61.952
 51
90.0
  0
ARC
  8
APS_GEOMETRY
 10
283.328
 20
-278.82
 40
2.936
 50
37.569
 51
61.952
  0
ARC
  8
APS_GEOMETRY
 10
282.709
 20
-279.296
 40
3.717
 50
17.665
 51
37.569
  0
ARC
  8
APS_GEOMETRY
 10
281.764
 20
-279.597
 40
4.709
 50
360.0
 51
17.665
  0
ARC
  8
APS_GEOMETRY
 10
279.392
 20
-279.597
 40
7.081
 50
344.932
 51
360.0
  0
ARC
  8
APS_GEOMETRY
 10
273.094
 20
-277.902
 40
13.603
 50
334.075
 51
344.932
  0
ARC
  8
APS_GEOMETRY
 10
272.896
 20
-277.805
 40
13.823
 50
323.374
 51
334.075
  0
ARC
  8
APS_GEOMETRY
 10
276.96
 20
-280.826
 40
8.76
 50
309.92
 51
323.374
  0
ARC
  8
APS_GEOMETRY
 10
281.021
 20
-285.617
 40
2.48
 50
289.026
 51
308.991
  0
ARC
  8
APS_GEOMETRY
 10
276.688
 20
-273.051
 40
15.771
 50
281.143
 51
289.026
  0
ARC
  8
APS_GEOMETRY
 10
281.082
 20
-295.833
 40
7.431
 50
100.437
 51
110.12
  0
ARC
  8
APS_GEOMETRY
 10
286.903
 20
-311.723
 40
24.353
 50
110.12
 51
115.463
  0
ARC
  8
APS_GEOMETRY
 10
266.122
 20
-268.242
 40
23.838
 50
282.94
 51
295.628
  0
ARC
  8
APS_GEOMETRY
 10
266.327
 20
-269.136
 40
22.921
 50
270.0
 51
282.94
  0
ARC
  8
APS_GEOMETRY
 10
266.327
 20
-267.782
 40
24.275
 50
257.307
 51
270.0
  0
ARC
  8
APS_GEOMETRY
 10
267.352
 20
-263.233
 40
28.939
 50
245.686
 51
257.307
  0
ARC
  8
APS_GEOMETRY
 10
264.782
 20
-268.874
 40
22.739
 50
228.801
 51
245.735
  0
ARC
  8
APS_GEOMETRY
 10
264.825
 20
-268.825
 40
22.805
 50
211.891
 51
228.801
  0
ARC
  8
APS_GEOMETRY
 10
266.172
 20
-267.855
 40
24.462
 50
196.728
 51
212.152
  0
ARC
  8
APS_GEOMETRY
 10
262.685
 20
-268.903
 40
20.82
 50
180.0
 51
196.728
  0
ARC
  8
APS_GEOMETRY
 10
263.192
 20
-268.903
 40
21.327
 50
161.184
 51
180.0
  0
ARC
  8
APS_GEOMETRY
 10
264.56
 20
-269.369
 40
22.773
 50
142.98
 51
161.184
  0
ARC
  8
APS_GEOMETRY
 10
265.624
 20
-270.184
 40
24.112
 50
127.824
 51
142.958
  0
ARC
  8
APS_GEOMETRY
 10
267.378
 20
-272.443
 40
26.973
 50
113.52
 51
127.824
  0
ARC
  8
APS_GEOMETRY
 10
266.807
 20
-271.124
 40
25.535
 50
101.927
 51
113.527
  0
ARC
  8
APS_GEOMETRY
 10
266.523
 20
-269.779
 40
24.161
 50
90.0
 51
101.927
  0
ARC
  8
APS_GEOMETRY
 10
317.004
 20
-271.4
 40
25.782
 50
71.91
 51
90.0
  0
ARC
  8
APS_GEOMETRY
 10
318.003
 20
-268.343
 40
22.566
 50
52.561
 51
71.91
  0
ARC
  8
APS_GEOMETRY
 10
317.741
 20
-268.419
 40
22.786
 50
38.846
 51
52.156
  0
ARC
  8
APS_GEOMETRY
 10
314.169
 20
-271.296
 40
27.372
 50
26.707
 51
38.846
  0
ARC
  8
APS_GEOMETRY
 10
314.876
 20
-270.718
 40
26.482
 50
13.868
 51
26.278
  0
ARC
  8
APS_GEOMETRY
 10
319.976
 20
-269.459
 40
21.229
 50
360.0
 51
13.868
  0
ARC
  8
APS_GEOMETRY
 10
320.306
 20
-269.459
 40
20.899
 50
339.712
 51
360.0
  0
ARC
  8
APS_GEOMETRY
 10
319.13
 20
-269.024
 40
22.153
 50
320.013
 51
339.712
  0
ARC
  8
APS_GEOMETRY
 10
318.935
 20
-268.917
 40
22.372
 50
303.344
 51
320.123
  0
ARC
  8
APS_GEOMETRY
 10
316.639
 20
-265.428
 40
26.548
 50
287.949
 51
303.344
  0
ARC
  8
APS_GEOMETRY
 10
315.885
 20
-262.813
 40
29.269
 50
279.039
 51
287.776
  0
ARC
  8
APS_GEOMETRY
 10
316.187
 20
-264.711
 40
27.346
 50
270.0
 51
279.039
  0
ARC
  8
APS_GEOMETRY
 10
316.187
 20
-266.046
 40
26.011
 50
257.728
 51
270.0
  0
ARC
  8
APS_GEOMETRY
 10
316.228
 20
-265.858
 40
26.203
 50
245.501
 51
257.728
  0
ARC
  8
APS_GEOMETRY
 10
314.755
 20
-269.081
 40
22.66
 50
228.665
 51
245.511
  0
ARC
  8
APS_GEOMETRY
 10
314.265
 20
-269.638
 40
21.918
 50
211.535
 51
228.665
  0
ARC
  8
APS_GEOMETRY
 10
314.907
 20
-269.166
 40
22.712
 50
195.642
 51
211.701
  0
ARC
  8
APS_GEOMETRY
 10
316.081
 20
-268.838
 40
23.931
 50
180.0
 51
195.642
  0
ARC
  8
APS_GEOMETRY
 10
316.333
 20
-268.838
 40
24.183
 50
162.181
 51
180.0
  0
ARC
  8
APS_GEOMETRY
 10
314.126
 20
-268.129
 40
21.865
 50
143.434
 51
162.181
  0
ARC
  8
APS_GEOMETRY
 10
313.829
 20
-267.891
 40
21.485
 50
126.384
 51
143.471
  0
ARC
  8
APS_GEOMETRY
 10
315.863
 20
-270.651
 40
24.914
 50
110.525
 51
126.384
  0
ARC
  8
APS_GEOMETRY
 10
315.763
 20
-269.902
 40
24.177
 50
99.77
 51
110.925
  0
ARC
  8
APS_GEOMETRY
 10
317.004
 20
-277.114
 40
31.496
 50
90.0
 51
99.77
  0
ARC
  8
APS_GEOMETRY
 10
313.898
 20
-259.811
 40
4.807
 50
90.0
 51
119.604
  0
ARC
  8
APS_GEOMETRY
 10
314.319
 20
-260.552
 40
5.659
 50
119.604
 51
146.842
  0
ARC
  8
APS_GEOMETRY
 10
315.165
 20
-261.246
 40
6.748
 50
145.84
 51
164.055
  0
ARC
  8
APS_GEOMETRY
 10
317.126
 20
-261.807
 40
8.788
 50
164.055
 51
180.0
  0
ARC
  8
APS_GEOMETRY
 10
329.391
 20
-261.807
 40
21.053
 50
180.0
 51
189.977
  0
ARC
  8
APS_GEOMETRY
 10
348.042
 20
-258.526
 40
39.991
 50
189.977
 51
197.211
  0
ARC
  8
APS_GEOMETRY
 10
352.122
 20
-257.262
 40
44.261
 50
197.211
 51
203.76
  0
ARC
  8
APS_GEOMETRY
 10
341.959
 20
-261.736
 40
33.157
 50
203.76
 51
211.329
  0
ARC
  8
APS_GEOMETRY
 10
321.091
 20
-274.26
 40
8.821
 50
212.32
 51
224.441
  0
ARC
  8
APS_GEOMETRY
 10
320.235
 20
-275.098
 40
7.623
 50
224.441
 51
237.484
  0
ARC
  8
APS_GEOMETRY
 10
319.683
 20
-275.966
 40
6.595
 50
237.484
 51
252.416
  0
ARC
  8
APS_GEOMETRY
 10
319.13
 20
-277.709
 40
4.766
 50
252.416
 51
270.0
  0
ARC
  8
APS_GEOMETRY
 10
319.13
 20
-277.144
 40
5.331
 50
270.0
 51
294.953
  0
ARC
  8
APS_GEOMETRY
 10
319.28
 20
-277.465
 40
4.977
 50
294.953
 51
320.793
  0
ARC
  8
APS_GEOMETRY
 10
318.479
 20
-276.812
 40
6.011
 50
320.793
 51
342.777
  0
ARC
  8
APS_GEOMETRY
 10
314.911
 20
-275.706
 40
9.746
 50
342.777
 51
0.0
  0
ARC
  8
APS_GEOMETRY
 10
298.15
 20
-275.706
 40
26.507
 50
0.0
 51
8.499
  0
ARC
  8
APS_GEOMETRY
 10
286.483
 20
-277.449
 40
38.304
 50
8.499
 51
15.566
  0
ARC
  8
APS_GEOMETRY
 10
287.885
 20
-277.058
 40
36.848
 50
15.566
 51
22.909
  0
ARC
  8
APS_GEOMETRY
 10
299.949
 20
-271.96
 40
23.751
 50
22.909
 51
32.057
  0
ARC
  8
APS_GEOMETRY
 10
309.425
 20
-265.991
 40
12.552
 50
31.921
 51
42.51
  0
ARC
  8
APS_GEOMETRY
 10
312.027
 20
-263.605
 40
9.022
 50
42.51
 51
55.008
  0
ARC
  8
APS_GEOMETRY
 10
312.906
 20
-262.35
 40
7.489
 50
55.008
 51
69.88
  0
ARC
  8
APS_GEOMETRY
 10
313.694
 20
-260.198
 40
5.198
 50
69.88
 51
87.754
  0
ARC
  8
APS_GEOMETRY
 10
367.518
 20
-274.822
 40
2.42
 50
90.0
 51
115.837
  0
ARC
  8
APS_GEOMETRY
 10
366.922
 20
-273.592
 40
1.053
 50
115.837
 51
155.462
  0
ARC
  8
APS_GEOMETRY
 10
367.618
 20
-273.909
 40
1.817
 50
155.462
 51
168.366
  0
ARC
  8
APS_GEOMETRY
 10
373.964
 20
-275.216
 40
8.296
 50
168.366
 51
174.395
  0
ARC
  8
APS_GEOMETRY
 10
380.359
 20
-275.843
 40
14.722
 50
174.395
 51
177.813
  0
ARC
  8
APS_GEOMETRY
 10
401.588
 20
-276.654
 40
35.966
 50
177.813
 51
180.0
  0
ARC
  8
APS_GEOMETRY
 10
416.956
 20
-276.654
 40
51.335
 50
180.0
 51
184.62
  0
ARC
  8
APS_GEOMETRY
 10
382.536
 20
-279.435
 40
16.803
 50
184.62
 51
192.7
  0
ARC
  8
APS_GEOMETRY
 10
369.266
 20
-282.349
 40
3.218
 50
194.036
 51
205.821
  0
ARC
  8
APS_GEOMETRY
 10
367.861
 20
-283.029
 40
1.656
 50
205.821
 51
222.274
  0
ARC
  8
APS_GEOMETRY
 10
368.291
 20
-282.637
 40
2.238
 50
222.274
 51
234.605
  0
ARC
  8
APS_GEOMETRY
 10
373.152
 20
-275.797
 40
10.63
 50
234.605
 51
240.255
  0
ARC
  8
APS_GEOMETRY
 10
365.763
 20
-288.871
 40
4.389
 50
34.592
 51
61.189
  0
ARC
  8
APS_GEOMETRY
 10
367.213
 20
-287.871
 40
2.627
 50
360.0
 51
34.592
  0
ARC
  8
APS_GEOMETRY
 10
367.301
 20
-287.871
 40
2.539
 50
318.231
 51
360.0
  0
ARC
  8
APS_GEOMETRY
 10
365.603
 20
-286.355
 40
4.816
 50
288.227
 51
318.231
  0
ARC
  8
APS_GEOMETRY
 10
363.842
 20
-281.007
 40
10.446
 50
280.377
 51
288.227
  0
ARC
  8
APS_GEOMETRY
 10
360.772
 20
-264.243
 40
27.489
 50
275.541
 51
280.377
  0
ARC
  8
APS_GEOMETRY
 10
359.449
 20
-250.606
 40
41.19
 50
272.304
 51
275.541
  0
ARC
  8
APS_GEOMETRY
 10
357.838
 20
-210.57
 40
81.259
 50
270.0
 51
272.304
  0
ARC
  8
APS_GEOMETRY
 10
357.838
 20
-244.028
 40
47.8
 50
262.811
 51
270.0
  0
ARC
  8
APS_GEOMETRY
 10
353.549
 20
-278.035
 40
13.524
 50
249.274
 51
262.811
  0
ARC
  8
APS_GEOMETRY
 10
350.851
 20
-285.165
 40
5.901
 50
221.379
 51
249.274
  0
ARC
  8
APS_GEOMETRY
 10
348.484
 20
-287.25
 40
2.747
 50
180.0
 51
221.379
  0
ARC
  8
APS_GEOMETRY
 10
348.466
 20
-287.25
 40
2.728
 50
164.055
 51
180.0
  0
ARC
  8
APS_GEOMETRY
 10
347.329
 20
-286.925
 40
1.546
 50
142.815
 51
164.055
  0
ARC
  8
APS_GEOMETRY
 10
348.045
 20
-287.468
 40
2.444
 50
129.007
 51
142.815
  0
ARC
  8
APS_GEOMETRY
 10
356.837
 20
-298.322
 40
16.412
 50
123.69
 51
129.007
  0
ARC
  8
APS_GEOMETRY
 10
344.36
 20
-279.549
 40
6.128
 50
303.389
 51
319.022
  0
ARC
  8
APS_GEOMETRY
 10
346.019
 20
-280.99
 40
3.932
 50
319.022
 51
338.575
  0
ARC
  8
APS_GEOMETRY
 10
343.799
 20
-280.119
 40
6.316
 50
338.575
 51
351.049
  0
ARC
  8
APS_GEOMETRY
 10
316.993
 20
-275.897
 40
33.452
 50
351.049
 51
356.46
  0
ARC
  8
APS_GEOMETRY
 10
325.829
 20
-276.233
 40
24.613
 50
355.972
 51
358.68
  0
ARC
  8
APS_GEOMETRY
 10
35.638
 20
-269.547
 40
314.881
 50
358.68
 51
359.437
  0
LINE
  8
APS_GEOMETRY
 10
350.504
 11
350.535
 20
-272.64
 21
-267.728
  0
LINE
  8
APS_GEOMETRY
 10
350.535
 11
350.545
 20
-267.728
 21
-261.316
  0
ARC
  8
APS_GEOMETRY
 10
274.736
 20
-261.316
 40
75.809
 50
0.0
 51
1.717
  0
ARC
  8
APS_GEOMETRY
 10
315.304
 20
-260.1
 40
35.223
 50
1.717
 51
4.236
  0
ARC
  8
APS_GEOMETRY
 10
328.534
 20
-259.12
 40
21.957
 50
4.236
 51
8.269
  0
ARC
  8
APS_GEOMETRY
 10
343.757
 20
-256.907
 40
6.573
 50
8.269
 51
15.642
  0
ARC
  8
APS_GEOMETRY
 10
346.377
 20
-256.174
 40
3.853
 50
15.642
 51
39.417
  0
ARC
  8
APS_GEOMETRY
 10
346.436
 20
-256.125
 40
3.776
 50
39.417
 51
63.435
  0
ARC
  8
APS_GEOMETRY
 10
353.238
 20
-242.036
 40
11.869
 50
236.874
 51
244.486
  0
ARC
  8
APS_GEOMETRY
 10
348.178
 20
-249.789
 40
2.611
 50
220.601
 51
236.874
  0
ARC
  8
APS_GEOMETRY
 10
347.598
 20
-250.287
 40
1.847
 50
198.246
 51
220.601
  0
ARC
  8
APS_GEOMETRY
 10
348.466
 20
-250.001
 40
2.761
 50
180.0
 51
198.246
  0
ARC
  8
APS_GEOMETRY
 10
348.453
 20
-250.001
 40
2.748
 50
156.161
 51
180.0
  0
ARC
  8
APS_GEOMETRY
 10
348.836
 20
-250.17
 40
3.167
 50
133.977
 51
156.161
  0
ARC
  8
APS_GEOMETRY
 10
349.599
 20
-250.961
 40
4.266
 50
116.996
 51
133.977
  0
ARC
  8
APS_GEOMETRY
 10
351.116
 20
-253.939
 40
7.608
 50
104.3
 51
116.996
  0
ARC
  8
APS_GEOMETRY
 10
351.508
 20
-255.445
 40
9.164
 50
95.326
 51
104.349
  0
ARC
  8
APS_GEOMETRY
 10
353.096
 20
-272.479
 40
26.272
 50
90.0
 51
95.326
  0
ARC
  8
APS_GEOMETRY
 10
353.096
 20
-259.22
 40
13.013
 50
87.553
 51
90.0
  0
ARC
  8
APS_GEOMETRY
 10
350.327
 20
-324.008
 40
77.86
 50
86.553
 51
87.553
  0
ARC
  8
APS_GEOMETRY
 10
346.391
 20
-389.354
 40
143.325
 50
86.009
 51
86.553
  0
ARC
  8
APS_GEOMETRY
 10
331.083
 20
-608.768
 40
363.271
 50
85.668
 51
86.009
  0
ARC
  8
APS_GEOMETRY
 10
359.731
 20
-231.457
 40
15.125
 50
265.426
 51
268.531
  0
ARC
  8
APS_GEOMETRY
 10
361.076
 20
-179.014
 40
67.586
 50
268.531
 51
270.0
  0
ARC
  8
APS_GEOMETRY
 10
361.076
 20
-195.089
 40
51.511
 50
270.0
 51
271.637
  0
ARC
  8
APS_GEOMETRY
 10
359.925
 20
-154.804
 40
91.812
 50
271.637
 51
272.862
  0
ARC
  8
APS_GEOMETRY
 10
358.603
 20
-128.375
 40
118.274
 50
272.862
 51
273.814
  0
ARC
  8
APS_GEOMETRY
 10
354.13
 20
-61.271
 40
185.527
 50
273.814
 51
274.574
  0
ARC
  8
APS_GEOMETRY
 10
382.192
 20
-426.262
 40
180.543
 50
93.72
 51
94.214
  0
ARC
  8
APS_GEOMETRY
 10
376.203
 20
-334.144
 40
88.23
 50
93.013
 51
93.72
  0
ARC
  8
APS_GEOMETRY
 10
374.561
 20
-302.948
 40
56.991
 50
91.918
 51
93.013
  0
ARC
  8
APS_GEOMETRY
 10
373.274
 20
-264.533
 40
18.554
 50
90.0
 51
91.918
  0
ARC
  8
APS_GEOMETRY
 10
373.274
 20
-270.087
 40
24.109
 50
73.82
 51
90.0
  0
ARC
  8
APS_GEOMETRY
 10
375.65
 20
-261.897
 40
15.581
 50
53.658
 51
73.82
  0
ARC
  8
APS_GEOMETRY
 10
379.03
 20
-257.278
 40
9.857
 50
26.03
 51
53.569
  0
ARC
  8
APS_GEOMETRY
 10
377.993
 20
-257.784
 40
11.012
 50
360.0
 51
26.03
  0
ARC
  8
APS_GEOMETRY
 10
377.561
 20
-257.784
 40
11.443
 50
345.282
 51
360.0
  0
ARC
  8
APS_GEOMETRY
 10
378.662
 20
-258.073
 40
10.305
 50
329.767
 51
345.282
  0
ARC
  8
APS_GEOMETRY
 10
379.286
 20
-258.437
 40
9.583
 50
313.168
 51
329.767
  0
ARC
  8
APS_GEOMETRY
 10
379.517
 20
-258.683
 40
9.246
 50
296.267
 51
313.168
  0
ARC
  8
APS_GEOMETRY
 10
384.78
 20
-269.317
 40
2.62
 50
116.565
 51
139.899
  0
ARC
  8
APS_GEOMETRY
 10
383.473
 20
-268.216
 40
0.911
 50
139.899
 51
180.0
  0
ARC
  8
APS_GEOMETRY
 10
383.575
 20
-268.216
 40
1.013
 50
180.0
 51
226.193
  0
ARC
  8
APS_GEOMETRY
 10
385.445
 20
-266.266
 40
3.715
 50
226.193
 51
249.829
  0
ARC
  8
APS_GEOMETRY
 10
380.084
 20
-281.027
 40
11.989
 50
53.249
 51
70.105
  0
ARC
  8
APS_GEOMETRY
 10
382.52
 20
-277.766
 40
7.919
 50
32.471
 51
53.249
  0
ARC
  8
APS_GEOMETRY
 10
381.385
 20
-278.488
 40
9.264
 50
23.305
 51
32.471
  0
ARC
  8
APS_GEOMETRY
 10
374.375
 20
-281.508
 40
16.897
 50
16.521
 51
23.305
  0
ARC
  8
APS_GEOMETRY
 10
368.909
 20
-283.129
 40
22.598
 50
11.429
 51
16.521
  0
ARC
  8
APS_GEOMETRY
 10
353.419
 20
-286.261
 40
38.401
 50
7.524
 51
11.429
  0
ARC
  8
APS_GEOMETRY
 10
404.747
 20
-279.425
 40
13.38
 50
187.765
 51
196.914
  0
ARC
  8
APS_GEOMETRY
 10
393.804
 20
-282.752
 40
1.942
 50
196.914
 51
221.082
  0
ARC
  8
APS_GEOMETRY
 10
393.846
 20
-282.716
 40
1.997
 50
221.082
 51
244.607
  0
ARC
  8
APS_GEOMETRY
 10
398.519
 20
-272.871
 40
12.896
 50
244.607
 51
253.811
  0
ARC
  8
APS_GEOMETRY
 10
394.41
 20
-286.881
 40
1.705
 50
51.45
 51
72.474
  0
ARC
  8
APS_GEOMETRY
 10
393.989
 20
-287.41
 40
2.382
 50
33.69
 51
51.45
  0
ARC
  8
APS_GEOMETRY
 10
393.89
 20
-287.476
 40
2.5
 50
16.639
 51
33.69
  0
ARC
  8
APS_GEOMETRY
 10
393.771
 20
-287.512
 40
2.625
 50
360.0
 51
16.639
  0
ARC
  8
APS_GEOMETRY
 10
393.734
 20
-287.512
 40
2.662
 50
338.993
 51
360.0
  0
ARC
  8
APS_GEOMETRY
 10
392.109
 20
-286.887
 40
4.402
 50
322.696
 51
338.993
  0
ARC
  8
APS_GEOMETRY
 10
391.503
 20
-286.426
 40
5.164
 50
308.603
 51
322.696
  0
ARC
  8
APS_GEOMETRY
 10
391.087
 20
-285.904
 40
5.831
 50
295.346
 51
308.603
  0
ARC
  8
APS_GEOMETRY
 10
388.895
 20
-281.078
 40
11.131
 50
279.583
 51
294.905
  0
ARC
  8
APS_GEOMETRY
 10
386.028
 20
-264.097
 40
28.353
 50
270.0
 51
279.583
  0
ARC
  8
APS_GEOMETRY
 10
386.028
 20
-271.778
 40
20.672
 50
261.247
 51
270.0
  0
ARC
  8
APS_GEOMETRY
 10
384.704
 20
-280.378
 40
11.97
 50
249.737
 51
261.247
  0
ARC
  8
APS_GEOMETRY
 10
383.834
 20
-282.736
 40
9.457
 50
235.345
 51
249.737
  0
ARC
  8
APS_GEOMETRY
 10
382.735
 20
-284.326
 40
7.524
 50
219.198
 51
235.345
  0
ARC
  8
APS_GEOMETRY
 10
385.048
 20
-282.354
 40
10.563
 50
209.076
 51
219.56
  0
ARC
  8
APS_GEOMETRY
 10
390.388
 20
-279.384
 40
16.674
 50
200.735
 51
209.076
  0
ARC
  8
APS_GEOMETRY
 10
397.758
 20
-276.594
 40
24.554
 50
197.881
 51
200.735
  0
ARC
  8
APS_GEOMETRY
 10
428.039
 20
-266.825
 40
56.372
 50
195.997
 51
197.881
  0
ARC
  8
APS_GEOMETRY
 10
450.421
 20
-260.408
 40
79.656
 50
194.664
 51
195.997
  0
ARC
  8
APS_GEOMETRY
 10
512.417
 20
-244.186
 40
143.738
 50
193.671
 51
194.664
  0
ARC
  8
APS_GEOMETRY
 10
355.206
 20
-282.406
 40
18.051
 50
13.61
 51
23.585
  0
ARC
  8
APS_GEOMETRY
 10
367.026
 20
-277.246
 40
5.155
 50
23.585
 51
42.31
  0
ARC
  8
APS_GEOMETRY
 10
368.098
 20
-276.27
 40
3.705
 50
42.31
 51
67.521
  0
ARC
  8
APS_GEOMETRY
 10
367.249
 20
-278.32
 40
5.924
 50
67.521
 51
87.397
  0
LINE
  8
APS_GEOMETRY
 10
365.654
 11
365.294
 20
-255.724
 21
-263.344
  0
LINE
  8
APS_GEOMETRY
 10
365.294
 11
365.294
 20
-263.344
 21
-263.466
  0
LINE
  8
APS_GEOMETRY
 10
365.294
 11
365.294
 20
-263.466
 21
-263.638
  0
ARC
  8
APS_GEOMETRY
 10
370.589
 20
-263.638
 40
5.294
 50
180.0
 51
192.339
  0
ARC
  8
APS_GEOMETRY
 10
366.38
 20
-264.559
 40
0.986
 50
192.339
 51
221.186
  0
ARC
  8
APS_GEOMETRY
 10
366.279
 20
-264.647
 40
0.852
 50
221.186
 51
253.872
  0
ARC
  8
APS_GEOMETRY
 10
366.995
 20
-262.171
 40
3.429
 50
253.872
 51
270.0
  0
ARC
  8
APS_GEOMETRY
 10
366.995
 20
-257.63
 40
7.971
 50
270.0
 51
289.569
  0
ARC
  8
APS_GEOMETRY
 10
368.444
 20
-261.706
 40
3.644
 50
289.569
 51
318.681
  0
ARC
  8
APS_GEOMETRY
 10
368.052
 20
-261.361
 40
4.166
 50
318.681
 51
344.628
  0
ARC
  8
APS_GEOMETRY
 10
360.749
 20
-259.354
 40
11.74
 50
344.628
 51
0.0
  0
ARC
  8
APS_GEOMETRY
 10
364.221
 20
-259.354
 40
8.268
 50
0.0
 51
35.369
  0
ARC
  8
APS_GEOMETRY
 10
368.009
 20
-256.665
 40
3.623
 50
35.369
 51
90.0
  0
ARC
  8
APS_GEOMETRY
 10
368.009
 20
-256.705
 40
3.663
 50
90.0
 51
108.435
  0
ARC
  8
APS_GEOMETRY
 10
367.296
 20
-254.567
 40
1.409
 50
108.435
 51
138.366
  0
ARC
  8
APS_GEOMETRY
 10
367.487
 20
-254.737
 40
1.665
 50
138.366
 51
164.291
  0
ARC
  8
APS_GEOMETRY
 10
371.972
 20
-255.998
 40
6.324
 50
164.291
 51
177.51
  0
LINE
  8
APS_GEOMETRY
 10
423.873
 11
440.159
 20
-248.104
 21
-262.363
  0
ARC
  8
APS_GEOMETRY
 10
455.391
 20
-244.883
 40
23.185
 50
228.93
 51
232.674
  0
ARC
  8
APS_GEOMETRY
 10
446.918
 20
-255.996
 40
9.21
 50
232.674
 51
238.617
  0
ARC
  8
APS_GEOMETRY
 10
444.786
 20
-259.491
 40
5.116
 50
238.617
 51
249.131
  0
ARC
  8
APS_GEOMETRY
 10
443.43
 20
-263.048
 40
1.309
 50
249.131
 51
270.0
  0
ARC
  8
APS_GEOMETRY
 10
443.43
 20
-263.209
 40
1.148
 50
270.0
 51
334.898
  0
ARC
  8
APS_GEOMETRY
 10
438.131
 20
-260.727
 40
6.999
 50
334.898
 51
0.0
  0
ARC
  8
APS_GEOMETRY
 10
386.9
 20
-260.727
 40
58.23
 50
0.0
 51
2.026
  0
ARC
  8
APS_GEOMETRY
 10
417.787
 20
-259.635
 40
27.324
 50
2.026
 51
4.984
  0
ARC
  8
APS_GEOMETRY
 10
427.886
 20
-258.754
 40
17.186
 50
4.984
 51
9.673
  0
ARC
  8
APS_GEOMETRY
 10
439.526
 20
-256.77
 40
5.379
 50
9.673
 51
18.06
  0
ARC
  8
APS_GEOMETRY
 10
441.298
 20
-256.192
 40
3.515
 50
18.06
 51
42.397
  0
ARC
  8
APS_GEOMETRY
 10
440.726
 20
-256.714
 40
4.29
 50
42.397
 51
64.398
  0
ARC
  8
APS_GEOMETRY
 10
445.949
 20
-245.928
 40
7.695
 50
233.633
 51
244.026
  0
ARC
  8
APS_GEOMETRY
 10
443.104
 20
-249.792
 40
2.896
 50
216.656
 51
233.633
  0
ARC
  8
APS_GEOMETRY
 10
442.668
 20
-250.117
 40
2.353
 50
196.082
 51
216.656
  0
ARC
  8
APS_GEOMETRY
 10
444.092
 20
-249.706
 40
3.835
 50
180.0
 51
196.082
  0
ARC
  8
APS_GEOMETRY
 10
443.045
 20
-249.706
 40
2.788
 50
133.202
 51
180.0
  0
ARC
  8
APS_GEOMETRY
 10
445.244
 20
-252.047
 40
6.0
 50
101.788
 51
133.202
  0
ARC
  8
APS_GEOMETRY
 10
445.756
 20
-254.344
 40
8.353
 50
96.633
 51
102.011
  0
ARC
  8
APS_GEOMETRY
 10
447.616
 20
-270.333
 40
24.449
 50
93.489
 51
96.633
  0
ARC
  8
APS_GEOMETRY
 10
448.412
 20
-283.391
 40
37.532
 50
91.439
 51
93.489
  0
ARC
  8
APS_GEOMETRY
 10
449.382
 20
-321.986
 40
76.138
 50
90.0
 51
91.439
  0
ARC
  8
APS_GEOMETRY
 10
449.382
 20
-316.811
 40
70.964
 50
87.994
 51
90.0
  0
ARC
  8
APS_GEOMETRY
 10
450.672
 20
-279.971
 40
34.101
 50
85.101
 51
87.994
  0
ARC
  8
APS_GEOMETRY
 10
451.719
 20
-267.755
 40
21.84
 50
80.595
 51
85.101
  0
ARC
  8
APS_GEOMETRY
 10
454.106
 20
-253.341
 40
7.23
 50
72.759
 51
80.595
  0
ARC
  8
APS_GEOMETRY
 10
454.83
 20
-251.1
 40
4.876
 50
40.956
 51
73.072
  0
ARC
  8
APS_GEOMETRY
 10
456.21
 20
-249.902
 40
3.048
 50
360.0
 51
40.956
  0
ARC
  8
APS_GEOMETRY
 10
456.394
 20
-249.902
 40
2.865
 50
322.573
 51
360.0
  0
ARC
  8
APS_GEOMETRY
 10
454.888
 20
-248.75
 40
4.76
 50
293.749
 51
322.573
  0
ARC
  8
APS_GEOMETRY
 10
460.932
 20
-262.632
 40
10.38
 50
113.429
 51
119.291
  0
ARC
  8
APS_GEOMETRY
 10
456.893
 20
-255.431
 40
2.124
 50
119.291
 51
132.274
  0
ARC
  8
APS_GEOMETRY
 10
456.66
 20
-255.175
 40
1.778
 50
132.274
 51
147.653
  0
ARC
  8
APS_GEOMETRY
 10
458.342
 20
-256.24
 40
3.769
 50
147.653
 51
158.199
  0
ARC
  8
APS_GEOMETRY
 10
460.902
 20
-257.319
 40
6.546
 50
157.751
 51
167.885
  0
ARC
  8
APS_GEOMETRY
 10
474.522
 20
-260.243
 40
20.477
 50
167.885
 51
173.61
  0
ARC
  8
APS_GEOMETRY
 10
486.569
 20
-261.592
 40
32.599
 50
173.61
 51
177.221
  0
ARC
  8
APS_GEOMETRY
 10
523.724
 20
-263.396
 40
69.798
 50
177.221
 51
179.689
  0
LINE
  8
APS_GEOMETRY
 10
453.927
 11
453.927
 20
-263.017
 21
-273.678
  0
ARC
  8
APS_GEOMETRY
 10
889.293
 20
-273.678
 40
435.365
 50
180.0
 51
180.161
  0
ARC
  8
APS_GEOMETRY
 10
1267.112
 20
-272.614
 40
813.186
 50
180.161
 51
180.279
  0
LINE
  8
APS_GEOMETRY
 10
453.936
 11
453.946
 20
-276.58
 21
-278.369
  0
LINE
  8
APS_GEOMETRY
 10
453.946
 11
453.96
 20
-278.369
 21
-280.382
  0
ARC
  8
APS_GEOMETRY
 10
376.276
 20
-280.824
 40
77.685
 50
358.204
 51
0.326
  0
ARC
  8
APS_GEOMETRY
 10
413.231
 20
-281.982
 40
40.713
 50
355.274
 51
358.204
  0
ARC
  8
APS_GEOMETRY
 10
426.093
 20
-283.046
 40
27.806
 50
350.991
 51
355.274
  0
ARC
  8
APS_GEOMETRY
 10
442.472
 20
-285.642
 40
11.223
 50
344.249
 51
350.991
  0
ARC
  8
APS_GEOMETRY
 10
448.008
 20
-287.223
 40
5.466
 50
314.415
 51
344.445
  0
ARC
  8
APS_GEOMETRY
 10
450.036
 20
-289.293
 40
2.568
 50
270.0
 51
314.415
  0
ARC
  8
APS_GEOMETRY
 10
450.036
 20
-287.701
 40
4.16
 50
256.342
 51
270.0
  0
ARC
  8
APS_GEOMETRY
 10
449.739
 20
-288.921
 40
2.905
 50
239.982
 51
256.342
  0
ARC
  8
APS_GEOMETRY
 10
451.034
 20
-286.68
 40
5.492
 50
231.153
 51
239.982
  0
ARC
  8
APS_GEOMETRY
 10
472.782
 20
-259.676
 40
40.166
 50
227.891
 51
231.153
  0
LINE
  8
APS_GEOMETRY
 10
445.85
 11
426.456
 20
-289.474
 21
-272.108
  0
ARC
  8
APS_GEOMETRY
 10
418.985
 20
-280.38
 40
11.146
 50
47.911
 51
61.468
  0
ARC
  8
APS_GEOMETRY
 10
423.088
 20
-272.834
 40
2.557
 50
61.468
 51
90.0
  0
ARC
  8
APS_GEOMETRY
 10
423.088
 20
-271.397
 40
1.12
 50
90.0
 51
133.195
  0
ARC
  8
APS_GEOMETRY
 10
424.192
 20
-272.573
 40
2.733
 50
133.195
 51
160.454
  0
ARC
  8
APS_GEOMETRY
 10
427.736
 20
-273.831
 40
6.494
 50
160.454
 51
173.251
  0
ARC
  8
APS_GEOMETRY
 10
444.403
 20
-275.804
 40
23.278
 50
173.251
 51
180.0
  0
ARC
  8
APS_GEOMETRY
 10
489.744
 20
-275.804
 40
68.618
 50
180.0
 51
181.897
  0
ARC
  8
APS_GEOMETRY
 10
453.401
 20
-277.007
 40
32.255
 50
181.897
 51
184.664
  0
ARC
  8
APS_GEOMETRY
 10
441.49
 20
-277.979
 40
20.304
 50
184.664
 51
189.048
  0
ARC
  8
APS_GEOMETRY
 10
427.689
 20
-280.177
 40
6.329
 50
189.048
 51
196.905
  0
ARC
  8
APS_GEOMETRY
 10
425.498
 20
-280.843
 40
4.04
 50
196.905
 51
220.253
  0
ARC
  8
APS_GEOMETRY
 10
425.542
 20
-280.805
 40
4.097
 50
220.253
 51
243.435
  0
ARC
  8
APS_GEOMETRY
 10
421.544
 20
-288.866
 40
4.901
 50
37.921
 51
63.778
  0
ARC
  8
APS_GEOMETRY
 10
423.577
 20
-287.283
 40
2.324
 50
360.0
 51
37.921
  0
ARC
  8
APS_GEOMETRY
 10
422.673
 20
-287.283
 40
3.227
 50
324.268
 51
360.0
  0
ARC
  8
APS_GEOMETRY
 10
421.466
 20
-286.414
 40
4.715
 50
294.86
 51
324.268
  0
ARC
  8
APS_GEOMETRY
 10
419.469
 20
-282.104
 40
9.465
 50
278.78
 51
294.86
  0
ARC
  8
APS_GEOMETRY
 10
416.089
 20
-260.224
 40
31.604
 50
270.0
 51
278.78
  0
ARC
  8
APS_GEOMETRY
 10
416.089
 20
-265.896
 40
25.933
 50
260.383
 51
270.0
  0
ARC
  8
APS_GEOMETRY
 10
413.356
 20
-282.025
 40
9.574
 50
244.522
 51
260.383
  0
ARC
  8
APS_GEOMETRY
 10
411.377
 20
-286.179
 40
4.972
 50
216.549
 51
244.522
  0
ARC
  8
APS_GEOMETRY
 10
409.756
 20
-287.381
 40
2.954
 50
180.0
 51
216.549
  0
ARC
  8
APS_GEOMETRY
 10
410.808
 20
-287.381
 40
4.007
 50
164.65
 51
180.0
  0
ARC
  8
APS_GEOMETRY
 10
408.523
 20
-286.753
 40
1.637
 50
140.528
 51
164.65
  0
ARC
  8
APS_GEOMETRY
 10
409.448
 20
-287.515
 40
2.835
 50
126.135
 51
140.528
  0
ARC
  8
APS_GEOMETRY
 10
419.102
 20
-300.737
 40
19.207
 50
120.619
 51
126.135
  0
ARC
  8
APS_GEOMETRY
 10
407.656
 20
-281.416
 40
3.251
 50
300.784
 51
330.068
  0
ARC
  8
APS_GEOMETRY
 10
405.491
 20
-280.169
 40
5.749
 50
330.068
 51
351.983
  0
ARC
  8
APS_GEOMETRY
 10
369.128
 20
-275.429
 40
42.42
 50
352.493
 51
355.365
  0
ARC
  8
APS_GEOMETRY
 10
325.265
 20
-271.872
 40
86.427
 50
355.365
 51
357.376
  0
ARC
  8
APS_GEOMETRY
 10
294.552
 20
-270.465
 40
117.171
 50
357.376
 51
358.861
  0
ARC
  8
APS_GEOMETRY
 10
212.726
 20
-268.838
 40
199.014
 50
358.861
 51
0.0
  0
ARC
  8
APS_GEOMETRY
 10
286.315
 20
-268.838
 40
125.424
 50
360.0
 51
1.926
  0
ARC
  8
APS_GEOMETRY
 10
344.702
 20
-266.874
 40
67.005
 50
1.926
 51
4.562
  0
ARC
  8
APS_GEOMETRY
 10
365.289
 20
-265.232
 40
46.352
 50
4.562
 51
8.366
  0
ARC
  8
APS_GEOMETRY
 10
392.065
 20
-261.294
 40
19.288
 50
8.366
 51
14.265
  0
ARC
  8
APS_GEOMETRY
 10
402.19
 20
-258.733
 40
8.844
 50
14.349
 51
23.629
  0
ARC
  8
APS_GEOMETRY
 10
407.325
 20
-256.487
 40
3.24
 50
23.629
 51
38.991
  0
ARC
  8
APS_GEOMETRY
 10
407.344
 20
-256.471
 40
3.215
 50
38.991
 51
54.462
  0
ARC
  8
APS_GEOMETRY
 10
404.34
 20
-260.677
 40
8.384
 50
54.462
 51
64.026
  0
ARC
  8
APS_GEOMETRY
 10
412.818
 20
-243.31
 40
10.942
 50
235.472
 51
243.947
  0
ARC
  8
APS_GEOMETRY
 10
408.438
 20
-249.675
 40
3.216
 50
219.806
 51
235.472
  0
ARC
  8
APS_GEOMETRY
 10
407.775
 20
-250.228
 40
2.353
 50
198.939
 51
219.806
  0
ARC
  8
APS_GEOMETRY
 10
408.246
 20
-250.066
 40
2.851
 50
180.0
 51
198.939
  0
ARC
  8
APS_GEOMETRY
 10
408.107
 20
-250.066
 40
2.712
 50
126.254
 51
180.0
  0
ARC
  8
APS_GEOMETRY
 10
412.246
 20
-255.71
 40
9.711
 50
98.616
 51
126.254
  0
ARC
  8
APS_GEOMETRY
 10
412.829
 20
-260.374
 40
14.41
 50
94.456
 51
98.13
  0
ARC
  8
APS_GEOMETRY
 10
415.078
 20
-289.226
 40
43.349
 50
92.337
 51
94.456
  0
ARC
  8
APS_GEOMETRY
 10
416.036
 20
-312.704
 40
66.847
 50
90.963
 51
92.337
  0
ARC
  8
APS_GEOMETRY
 10
417.201
 20
-382.053
 40
136.206
 50
90.0
 51
90.963
  0
ARC
  8
APS_GEOMETRY
 10
417.201
 20
-270.669
 40
24.822
 50
83.928
 51
90.0
  0
ARC
  8
APS_GEOMETRY
 10
419.237
 20
-251.532
 40
5.577
 50
71.095
 51
83.928
  0
ARC
  8
APS_GEOMETRY
 10
419.423
 20
-250.989
 40
5.003
 50
56.848
 51
71.095
  0
ARC
  8
APS_GEOMETRY
 10
413.921
 20
-259.413
 40
15.065
 50
48.652
 51
56.848
  0
ARC
  8
APS_GEOMETRY
 10
482.68
 20
-286.455
 40
40.608
 50
84.71
 51
90.0
  0
ARC
  8
APS_GEOMETRY
 10
483.425
 20
-278.415
 40
32.533
 50
78.799
 51
84.71
  0
ARC
  8
APS_GEOMETRY
 10
488.241
 20
-254.072
 40
7.718
 50
49.783
 51
78.771
  0
ARC
  8
APS_GEOMETRY
 10
491.463
 20
-250.262
 40
2.729
 50
360.0
 51
49.783
  0
ARC
  8
APS_GEOMETRY
 10
491.172
 20
-250.262
 40
3.02
 50
342.759
 51
360.0
  0
ARC
  8
APS_GEOMETRY
 10
492.748
 20
-250.751
 40
1.37
 50
317.045
 51
342.759
  0
ARC
  8
APS_GEOMETRY
 10
491.987
 20
-250.043
 40
2.41
 50
301.817
 51
317.045
  0
ARC
  8
APS_GEOMETRY
 10
480.731
 20
-231.901
 40
23.76
 50
296.98
 51
301.817
  0
ARC
  8
APS_GEOMETRY
 10
492.732
 20
-255.519
 40
2.733
 50
116.565
 51
149.078
  0
ARC
  8
APS_GEOMETRY
 10
496.252
 20
-257.627
 40
6.835
 50
149.078
 51
169.469
  0
ARC
  8
APS_GEOMETRY
 10
503.756
 20
-259.022
 40
14.468
 50
169.469
 51
174.598
  0
ARC
  8
APS_GEOMETRY
 10
542.42
 20
-262.678
 40
53.304
 50
174.598
 51
177.269
  0
ARC
  8
APS_GEOMETRY
 10
576.417
 20
-264.3
 40
87.341
 50
177.269
 51
178.901
  0
ARC
  8
APS_GEOMETRY
 10
681.724
 20
-266.32
 40
192.667
 50
178.901
 51
180.0
  0
ARC
  8
APS_GEOMETRY
 10
895.714
 20
-266.32
 40
406.657
 50
180.0
 51
180.88
  0
ARC
  8
APS_GEOMETRY
 10
645.194
 20
-270.168
 40
156.107
 50
180.88
 51
182.3
  0
ARC
  8
APS_GEOMETRY
 10
571.969
 20
-273.109
 40
82.823
 50
182.3
 51
184.974
  0
ARC
  8
APS_GEOMETRY
 10
502.148
 20
-279.185
 40
12.738
 50
184.974
 51
191.793
  0
ARC
  8
APS_GEOMETRY
 10
494.038
 20
-280.736
 40
4.484
 50
193.57
 51
205.787
  0
ARC
  8
APS_GEOMETRY
 10
492.021
 20
-281.711
 40
2.244
 50
205.787
 51
223.091
  0
ARC
  8
APS_GEOMETRY
 10
492.532
 20
-281.232
 40
2.944
 50
223.091
 51
236.441
  0
ARC
  8
APS_GEOMETRY
 10
496.816
 20
-274.775
 40
10.693
 50
236.441
 51
243.435
  0
ARC
  8
APS_GEOMETRY
 10
490.258
 20
-288.246
 40
4.291
 50
37.185
 51
65.556
  0
ARC
  8
APS_GEOMETRY
 10
491.657
 20
-287.184
 40
2.535
 50
360.0
 51
37.185
  0
ARC
  8
APS_GEOMETRY
 10
491.58
 20
-287.184
 40
2.612
 50
312.039
 51
360.0
  0
ARC
  8
APS_GEOMETRY
 10
488.469
 20
-283.734
 40
7.258
 50
283.815
 51
312.039
  0
ARC
  8
APS_GEOMETRY
 10
483.329
 20
-262.429
 40
29.174
 50
279.273
 51
283.627
  0
ARC
  8
APS_GEOMETRY
 10
481.274
 20
-249.843
 40
41.926
 50
275.641
 51
279.273
  0
ARC
  8
APS_GEOMETRY
 10
480.488
 20
-241.889
 40
49.919
 50
272.588
 51
275.641
  0
ARC
  8
APS_GEOMETRY
 10
479.606
 20
-222.373
 40
69.456
 50
270.0
 51
272.588
  0
ARC
  8
APS_GEOMETRY
 10
479.606
 20
-249.934
 40
41.894
 50
262.774
 51
270.0
  0
ARC
  8
APS_GEOMETRY
 10
475.829
 20
-279.722
 40
11.868
 50
249.175
 51
262.774
  0
ARC
  8
APS_GEOMETRY
 10
473.457
 20
-285.96
 40
5.194
 50
221.23
 51
249.175
  0
ARC
  8
APS_GEOMETRY
 10
471.388
 20
-287.773
 40
2.443
 50
180.0
 51
221.23
  0
ARC
  8
APS_GEOMETRY
 10
470.986
 20
-287.773
 40
2.041
 50
142.696
 51
180.0
  0
ARC
  8
APS_GEOMETRY
 10
474.208
 20
-290.228
 40
6.091
 50
121.357
 51
142.696
  0
ARC
  8
APS_GEOMETRY
 10
468.764
 20
-281.312
 40
4.354
 50
301.477
 51
324.728
  0
ARC
  8
APS_GEOMETRY
 10
469.345
 20
-281.723
 40
3.643
 50
324.728
 51
350.181
  0
ARC
  8
APS_GEOMETRY
 10
451.104
 20
-278.706
 40
22.132
 50
350.538
 51
355.423
  0
ARC
  8
APS_GEOMETRY
 10
376.152
 20
-272.706
 40
97.324
 50
355.423
 51
357.752
  0
ARC
  8
APS_GEOMETRY
 10
306.558
 20
-269.974
 40
166.971
 50
357.752
 51
359.111
  0
ARC
  8
APS_GEOMETRY
 10
83.812
 20
-266.516
 40
389.744
 50
359.111
 51
0.0
  0
ARC
  8
APS_GEOMETRY
 10
338.333
 20
-266.516
 40
135.223
 50
0.0
 51
1.773
  0
ARC
  8
APS_GEOMETRY
 10
417.693
 20
-264.059
 40
55.825
 50
1.773
 51
4.532
  0
ARC
  8
APS_GEOMETRY
 10
441.814
 20
-262.147
 40
31.629
 50
4.532
 51
9.384
  0
ARC
  8
APS_GEOMETRY
 10
466.307
 20
-258.1
 40
6.803
 50
9.384
 51
19.855
  0
ARC
  8
APS_GEOMETRY
 10
469.549
 20
-256.867
 40
3.336
 50
18.853
 51
42.158
  0
ARC
  8
APS_GEOMETRY
 10
466.77
 20
-259.383
 40
7.084
 50
42.158
 51
58.092
  0
ARC
  8
APS_GEOMETRY
 10
478.999
 20
-240.486
 40
15.426
 50
230.711
 51
236.634
  0
ARC
  8
APS_GEOMETRY
 10
471.317
 20
-249.874
 40
3.296
 50
217.875
 51
230.711
  0
ARC
  8
APS_GEOMETRY
 10
470.264
 20
-250.693
 40
1.962
 50
196.928
 51
217.875
  0
ARC
  8
APS_GEOMETRY
 10
471.25
 20
-250.393
 40
2.992
 50
180.0
 51
196.928
  0
ARC
  8
APS_GEOMETRY
 10
470.605
 20
-250.393
 40
2.347
 50
148.791
 51
180.0
  0
ARC
  8
APS_GEOMETRY
 10
471.221
 20
-250.766
 40
3.067
 50
121.569
 51
148.791
  0
ARC
  8
APS_GEOMETRY
 10
472.326
 20
-252.565
 40
5.178
 50
112.806
 51
121.569
  0
ARC
  8
APS_GEOMETRY
 10
475.313
 20
-259.669
 40
12.885
 50
107.254
 51
112.806
  0
ARC
  8
APS_GEOMETRY
 10
477.143
 20
-265.56
 40
19.054
 50
103.487
 51
107.254
  0
ARC
  8
APS_GEOMETRY
 10
481.334
 20
-283.033
 40
37.022
 50
100.784
 51
103.487
  0
ARC
  8
APS_GEOMETRY
 10
482.646
 20
-287.864
 40
42.015
 50
95.643
 51
101.31
  0
ARC
  8
APS_GEOMETRY
 10
482.68
 20
-288.21
 40
42.362
 50
90.0
 51
95.643
  0
ARC
  8
APS_GEOMETRY
 10
523.35
 20
-266.882
 40
21.264
 50
77.257
 51
90.0
  0
ARC
  8
APS_GEOMETRY
 10
523.134
 20
-267.838
 40
22.243
 50
64.799
 51
77.257
  0
ARC
  8
APS_GEOMETRY
 10
541.452
 20
-228.839
 40
20.843
 50
244.885
 51
251.175
  0
ARC
  8
APS_GEOMETRY
 10
535.483
 20
-246.347
 40
2.346
 50
251.175
 51
270.0
  0
ARC
  8
APS_GEOMETRY
 10
535.483
 20
-244.886
 40
3.806
 50
270.0
 51
278.82
  0
ARC
  8
APS_GEOMETRY
 10
533.024
 20
-229.039
 40
19.844
 50
278.82
 51
282.68
  0
ARC
  8
APS_GEOMETRY
 10
538.17
 20
-251.819
 40
3.511
 50
95.906
 51
102.995
  0
ARC
  8
APS_GEOMETRY
 10
538.329
 20
-253.355
 40
5.055
 50
90.0
 51
95.906
  0
ARC
  8
APS_GEOMETRY
 10
538.329
 20
-251.656
 40
3.356
 50
62.447
 51
90.0
  0
ARC
  8
APS_GEOMETRY
 10
537.732
 20
-252.799
 40
4.645
 50
39.094
 51
62.447
  0
ARC
  8
APS_GEOMETRY
 10
531.498
 20
-258.013
 40
12.772
 50
18.435
 51
39.611
  0
ARC
  8
APS_GEOMETRY
 10
527.671
 20
-259.288
 40
16.806
 50
360.0
 51
18.435
  0
ARC
  8
APS_GEOMETRY
 10
536.144
 20
-259.288
 40
8.333
 50
334.877
 51
360.0
  0
ARC
  8
APS_GEOMETRY
 10
538.65
 20
-260.464
 40
5.565
 50
304.007
 51
334.877
  0
ARC
  8
APS_GEOMETRY
 10
538.609
 20
-260.346
 40
5.686
 50
286.39
 51
303.69
  0
ARC
  8
APS_GEOMETRY
 10
538.427
 20
-259.728
 40
6.33
 50
270.0
 51
286.39
  0
ARC
  8
APS_GEOMETRY
 10
538.427
 20
-259.801
 40
6.257
 50
255.155
 51
270.0
  0
ARC
  8
APS_GEOMETRY
 10
537.741
 20
-262.387
 40
3.581
 50
235.491
 51
255.155
  0
ARC
  8
APS_GEOMETRY
 10
538.085
 20
-261.887
 40
4.189
 50
218.48
 51
235.491
  0
ARC
  8
APS_GEOMETRY
 10
543.706
 20
-257.419
 40
11.369
 50
208.179
 51
218.48
  0
ARC
  8
APS_GEOMETRY
 10
486.082
 20
-288.698
 40
54.198
 50
28.56
 51
31.664
  0
ARC
  8
APS_GEOMETRY
 10
521.294
 20
-266.981
 40
12.827
 50
31.664
 51
38.047
  0
ARC
  8
APS_GEOMETRY
 10
523.854
 20
-264.978
 40
9.576
 50
38.047
 51
46.56
  0
ARC
  8
APS_GEOMETRY
 10
522.523
 20
-266.383
 40
11.512
 50
46.56
 51
54.324
  0
ARC
  8
APS_GEOMETRY
 10
521.755
 20
-267.704
 40
13.034
 50
54.968
 51
71.48
  0
ARC
  8
APS_GEOMETRY
 10
522.598
 20
-265.188
 40
10.38
 50
71.48
 51
90.0
  0
ARC
  8
APS_GEOMETRY
 10
522.598
 20
-262.059
 40
7.251
 50
90.0
 51
114.63
  0
ARC
  8
APS_GEOMETRY
 10
522.234
 20
-261.264
 40
6.377
 50
114.63
 51
140.921
  0
ARC
  8
APS_GEOMETRY
 10
523.31
 20
-262.138
 40
7.763
 50
140.921
 51
163.13
  0
ARC
  8
APS_GEOMETRY
 10
528.687
 20
-263.769
 40
13.382
 50
163.13
 51
180.0
  0
ARC
  8
APS_GEOMETRY
 10
535.661
 20
-263.769
 40
20.355
 50
180.0
 51
195.44
  0
ARC
  8
APS_GEOMETRY
 10
534.603
 20
-264.061
 40
19.258
 50
195.44
 51
211.316
  0
ARC
  8
APS_GEOMETRY
 10
529.513
 20
-267.05
 40
13.357
 50
211.708
 51
240.457
  0
ARC
  8
APS_GEOMETRY
 10
529.172
 20
-267.654
 40
12.663
 50
240.457
 51
270.0
  0
ARC
  8
APS_GEOMETRY
 10
529.172
 20
-264.566
 40
15.751
 50
270.0
 51
279.549
  0
ARC
  8
APS_GEOMETRY
 10
528.976
 20
-263.402
 40
16.931
 50
279.549
 51
288.759
  0
ARC
  8
APS_GEOMETRY
 10
529.801
 20
-265.832
 40
14.364
 50
288.759
 51
299.545
  0
ARC
  8
APS_GEOMETRY
 10
533.111
 20
-271.672
 40
7.652
 50
299.545
 51
314.341
  0
ARC
  8
APS_GEOMETRY
 10
543.346
 20
-282.303
 40
7.105
 50
120.141
 51
133.452
  0
ARC
  8
APS_GEOMETRY
 10
540.487
 20
-277.379
 40
1.412
 50
90.0
 51
120.141
  0
ARC
  8
APS_GEOMETRY
 10
540.487
 20
-278.197
 40
2.23
 50
61.952
 51
90.0
  0
ARC
  8
APS_GEOMETRY
 10
540.155
 20
-278.82
 40
2.936
 50
37.569
 51
61.952
  0
ARC
  8
APS_GEOMETRY
 10
539.536
 20
-279.296
 40
3.717
 50
17.665
 51
37.569
  0
ARC
  8
APS_GEOMETRY
 10
538.591
 20
-279.597
 40
4.709
 50
360.0
 51
17.665
  0
ARC
  8
APS_GEOMETRY
 10
536.219
 20
-279.597
 40
7.081
 50
344.932
 51
360.0
  0
ARC
  8
APS_GEOMETRY
 10
529.921
 20
-277.902
 40
13.603
 50
334.075
 51
344.932
  0
ARC
  8
APS_GEOMETRY
 10
529.723
 20
-277.805
 40
13.823
 50
323.374
 51
334.075
  0
ARC
  8
APS_GEOMETRY
 10
533.787
 20
-280.826
 40
8.76
 50
309.92
 51
323.374
  0
ARC
  8
APS_GEOMETRY
 10
537.848
 20
-285.617
 40
2.48
 50
289.026
 51
308.991
  0
ARC
  8
APS_GEOMETRY
 10
533.515
 20
-273.051
 40
15.771
 50
281.143
 51
289.026
  0
ARC
  8
APS_GEOMETRY
 10
537.909
 20
-295.833
 40
7.431
 50
100.437
 51
110.12
  0
ARC
  8
APS_GEOMETRY
 10
543.73
 20
-311.723
 40
24.353
 50
110.12
 51
115.463
  0
ARC
  8
APS_GEOMETRY
 10
522.949
 20
-268.242
 40
23.838
 50
282.94
 51
295.628
  0
ARC
  8
APS_GEOMETRY
 10
523.154
 20
-269.136
 40
22.921
 50
270.0
 51
282.94
  0
ARC
  8
APS_GEOMETRY
 10
523.154
 20
-267.782
 40
24.275
 50
257.307
 51
270.0
  0
ARC
  8
APS_GEOMETRY
 10
524.179
 20
-263.233
 40
28.939
 50
245.686
 51
257.307
  0
ARC
  8
APS_GEOMETRY
 10
521.609
 20
-268.874
 40
22.739
 50
228.801
 51
245.735
  0
ARC
  8
APS_GEOMETRY
 10
521.652
 20
-268.825
 40
22.805
 50
211.891
 51
228.801
  0
ARC
  8
APS_GEOMETRY
 10
522.999
 20
-267.855
 40
24.462
 50
196.728
 51
212.152
  0
ARC
  8
APS_GEOMETRY
 10
519.512
 20
-268.903
 40
20.82
 50
180.0
 51
196.728
  0
ARC
  8
APS_GEOMETRY
 10
520.019
 20
-268.903
 40
21.327
 50
161.184
 51
180.0
  0
ARC
  8
APS_GEOMETRY
 10
521.387
 20
-269.369
 40
22.773
 50
142.98
 51
161.184
  0
ARC
  8
APS_GEOMETRY
 10
522.451
 20
-270.184
 40
24.112
 50
127.824
 51
142.958
  0
ARC
  8
APS_GEOMETRY
 10
524.205
 20
-272.443
 40
26.973
 50
113.52
 51
127.824
  0
ARC
  8
APS_GEOMETRY
 10
523.634
 20
-271.124
 40
25.535
 50
101.927
 51
113.527
  0
ARC
  8
APS_GEOMETRY
 10
523.35
 20
-269.779
 40
24.161
 50
90.0
 51
101.927
  0
ARC
  8
APS_GEOMETRY
 10
567.899
 20
-286.455
 40
40.608
 50
84.71
 51
90.0
  0
ARC
  8
APS_GEOMETRY
 10
568.643
 20
-278.415
 40
32.533
 50
78.799
 51
84.71
  0
ARC
  8
APS_GEOMETRY
 10
573.46
 20
-254.072
 40
7.718
 50
49.783
 51
78.771
  0
ARC
  8
APS_GEOMETRY
 10
576.681
 20
-250.262
 40
2.729
 50
360.0
 51
49.783
  0
ARC
  8
APS_GEOMETRY
 10
576.391
 20
-250.262
 40
3.02
 50
342.759
 51
360.0
  0
ARC
  8
APS_GEOMETRY
 10
577.966
 20
-250.751
 40
1.37
 50
317.045
 51
342.759
  0
ARC
  8
APS_GEOMETRY
 10
577.206
 20
-250.043
 40
2.41
 50
301.817
 51
317.045
  0
ARC
  8
APS_GEOMETRY
 10
565.949
 20
-231.901
 40
23.76
 50
296.98
 51
301.817
  0
ARC
  8
APS_GEOMETRY
 10
577.951
 20
-255.519
 40
2.733
 50
116.565
 51
149.078
  0
ARC
  8
APS_GEOMETRY
 10
581.47
 20
-257.627
 40
6.835
 50
149.078
 51
169.469
  0
ARC
  8
APS_GEOMETRY
 10
588.974
 20
-259.022
 40
14.468
 50
169.469
 51
174.598
  0
ARC
  8
APS_GEOMETRY
 10
627.639
 20
-262.678
 40
53.304
 50
174.598
 51
177.269
  0
ARC
  8
APS_GEOMETRY
 10
661.636
 20
-264.3
 40
87.341
 50
177.269
 51
178.901
  0
ARC
  8
APS_GEOMETRY
 10
766.943
 20
-266.32
 40
192.667
 50
178.901
 51
180.0
  0
ARC
  8
APS_GEOMETRY
 10
980.933
 20
-266.32
 40
406.657
 50
180.0
 51
180.88
  0
ARC
  8
APS_GEOMETRY
 10
730.413
 20
-270.168
 40
156.107
 50
180.88
 51
182.3
  0
ARC
  8
APS_GEOMETRY
 10
657.187
 20
-273.109
 40
82.823
 50
182.3
 51
184.974
  0
ARC
  8
APS_GEOMETRY
 10
587.367
 20
-279.185
 40
12.738
 50
184.974
 51
191.793
  0
ARC
  8
APS_GEOMETRY
 10
579.256
 20
-280.736
 40
4.484
 50
193.57
 51
205.787
  0
ARC
  8
APS_GEOMETRY
 10
577.239
 20
-281.711
 40
2.244
 50
205.787
 51
223.091
  0
ARC
  8
APS_GEOMETRY
 10
577.751
 20
-281.232
 40
2.944
 50
223.091
 51
236.441
  0
ARC
  8
APS_GEOMETRY
 10
582.034
 20
-274.775
 40
10.693
 50
236.441
 51
243.435
  0
ARC
  8
APS_GEOMETRY
 10
575.477
 20
-288.246
 40
4.291
 50
37.185
 51
65.556
  0
ARC
  8
APS_GEOMETRY
 10
576.876
 20
-287.184
 40
2.535
 50
360.0
 51
37.185
  0
ARC
  8
APS_GEOMETRY
 10
576.799
 20
-287.184
 40
2.612
 50
312.039
 51
360.0
  0
ARC
  8
APS_GEOMETRY
 10
573.688
 20
-283.734
 40
7.258
 50
283.815
 51
312.039
  0
ARC
  8
APS_GEOMETRY
 10
568.547
 20
-262.429
 40
29.174
 50
279.273
 51
283.627
  0
ARC
  8
APS_GEOMETRY
 10
566.493
 20
-249.843
 40
41.926
 50
275.641
 51
279.273
  0
ARC
  8
APS_GEOMETRY
 10
565.707
 20
-241.889
 40
49.919
 50
272.588
 51
275.641
  0
ARC
  8
APS_GEOMETRY
 10
564.825
 20
-222.373
 40
69.456
 50
270.0
 51
272.588
  0
ARC
  8
APS_GEOMETRY
 10
564.825
 20
-249.934
 40
41.894
 50
262.774
 51
270.0
  0
ARC
  8
APS_GEOMETRY
 10
561.048
 20
-279.722
 40
11.868
 50
249.175
 51
262.774
  0
ARC
  8
APS_GEOMETRY
 10
558.675
 20
-285.96
 40
5.194
 50
221.23
 51
249.175
  0
ARC
  8
APS_GEOMETRY
 10
556.606
 20
-287.773
 40
2.443
 50
180.0
 51
221.23
  0
ARC
  8
APS_GEOMETRY
 10
556.205
 20
-287.773
 40
2.041
 50
142.696
 51
180.0
  0
ARC
  8
APS_GEOMETRY
 10
559.426
 20
-290.228
 40
6.091
 50
121.357
 51
142.696
  0
ARC
  8
APS_GEOMETRY
 10
553.983
 20
-281.312
 40
4.354
 50
301.477
 51
324.728
  0
ARC
  8
APS_GEOMETRY
 10
554.563
 20
-281.723
 40
3.643
 50
324.728
 51
350.181
  0
ARC
  8
APS_GEOMETRY
 10
536.323
 20
-278.706
 40
22.132
 50
350.538
 51
355.423
  0
ARC
  8
APS_GEOMETRY
 10
461.37
 20
-272.706
 40
97.324
 50
355.423
 51
357.752
  0
ARC
  8
APS_GEOMETRY
 10
391.777
 20
-269.974
 40
166.971
 50
357.752
 51
359.111
  0
ARC
  8
APS_GEOMETRY
 10
169.03
 20
-266.516
 40
389.744
 50
359.111
 51
0.0
  0
ARC
  8
APS_GEOMETRY
 10
423.551
 20
-266.516
 40
135.223
 50
0.0
 51
1.773
  0
ARC
  8
APS_GEOMETRY
 10
502.911
 20
-264.059
 40
55.825
 50
1.773
 51
4.532
  0
ARC
  8
APS_GEOMETRY
 10
527.032
 20
-262.147
 40
31.629
 50
4.532
 51
9.384
  0
ARC
  8
APS_GEOMETRY
 10
551.526
 20
-258.1
 40
6.803
 50
9.384
 51
19.855
  0
ARC
  8
APS_GEOMETRY
 10
554.767
 20
-256.867
 40
3.336
 50
18.853
 51
42.158
  0
ARC
  8
APS_GEOMETRY
 10
551.989
 20
-259.383
 40
7.084
 50
42.158
 51
58.092
  0
ARC
  8
APS_GEOMETRY
 10
564.218
 20
-240.486
 40
15.426
 50
230.711
 51
236.634
  0
ARC
  8
APS_GEOMETRY
 10
556.536
 20
-249.874
 40
3.296
 50
217.875
 51
230.711
  0
ARC
  8
APS_GEOMETRY
 10
555.483
 20
-250.693
 40
1.962
 50
196.928
 51
217.875
  0
ARC
  8
APS_GEOMETRY
 10
556.469
 20
-250.393
 40
2.992
 50
180.0
 51
196.928
  0
ARC
  8
APS_GEOMETRY
 10
555.824
 20
-250.393
 40
2.347
 50
148.791
 51
180.0
  0
ARC
  8
APS_GEOMETRY
 10
556.44
 20
-250.766
 40
3.067
 50
121.569
 51
148.791
  0
ARC
  8
APS_GEOMETRY
 10
557.545
 20
-252.565
 40
5.178
 50
112.806
 51
121.569
  0
ARC
  8
APS_GEOMETRY
 10
560.532
 20
-259.669
 40
12.885
 50
107.254
 51
112.806
  0
ARC
  8
APS_GEOMETRY
 10
562.362
 20
-265.56
 40
19.054
 50
103.487
 51
107.254
  0
ARC
  8
APS_GEOMETRY
 10
566.552
 20
-283.033
 40
37.022
 50
100.784
 51
103.487
  0
ARC
  8
APS_GEOMETRY
 10
567.865
 20
-287.864
 40
42.015
 50
95.643
 51
101.31
  0
ARC
  8
APS_GEOMETRY
 10
567.899
 20
-288.21
 40
42.362
 50
90.0
 51
95.643
  0
LINE
  8
APS_GEOMETRY
 10
637.047
 11
637.047
 20
-275.771
 21
-258.569
  0
ARC
  8
APS_GEOMETRY
 10
597.326
 20
-258.569
 40
39.721
 50
0.0
 51
2.404
  0
ARC
  8
APS_GEOMETRY
 10
620.843
 20
-257.582
 40
16.183
 50
2.404
 51
6.17
  0
ARC
  8
APS_GEOMETRY
 10
627.892
 20
-256.82
 40
9.093
 50
6.17
 51
12.824
  0
ARC
  8
APS_GEOMETRY
 10
634.792
 20
-255.249
 40
2.017
 50
12.824
 51
26.98
  0
ARC
  8
APS_GEOMETRY
 10
635.114
 20
-255.085
 40
1.655
 50
26.98
 51
59.65
  0
ARC
  8
APS_GEOMETRY
 10
632.076
 20
-260.273
 40
7.668
 50
59.65
 51
74.667
  0
ARC
  8
APS_GEOMETRY
 10
635.579
 20
-247.774
 40
5.313
 50
225.0
 51
253.887
  0
ARC
  8
APS_GEOMETRY
 10
633.418
 20
-249.935
 40
2.257
 50
180.0
 51
225.0
  0
ARC
  8
APS_GEOMETRY
 10
633.833
 20
-249.935
 40
2.672
 50
151.157
 51
180.0
  0
ARC
  8
APS_GEOMETRY
 10
633.826
 20
-249.932
 40
2.665
 50
122.276
 51
151.157
  0
ARC
  8
APS_GEOMETRY
 10
634.59
 20
-251.141
 40
4.096
 50
102.308
 51
122.276
  0
ARC
  8
APS_GEOMETRY
 10
636.001
 20
-257.606
 40
10.712
 50
90.0
 51
102.308
  0
ARC
  8
APS_GEOMETRY
 10
636.001
 20
-270.06
 40
23.166
 50
88.989
 51
90.0
  0
ARC
  8
APS_GEOMETRY
 10
634.054
 20
-380.405
 40
133.528
 50
88.568
 51
88.989
  0
ARC
  8
APS_GEOMETRY
 10
631.303
 20
-490.409
 40
243.567
 50
88.337
 51
88.568
  0
ARC
  8
APS_GEOMETRY
 10
620.645
 20
-857.525
 40
610.838
 50
88.191
 51
88.337
  0
LINE
  8
APS_GEOMETRY
 10
639.925
 11
641.855
 20
-246.992
 21
-246.992
  0
ARC
  8
APS_GEOMETRY
 10
635.373
 20
828.958
 40
1075.969
 50
270.345
 51
270.49
  0
ARC
  8
APS_GEOMETRY
 10
641.413
 20
122.347
 40
369.332
 50
270.49
 51
270.736
  0
ARC
  8
APS_GEOMETRY
 10
643.892
 20
-70.525
 40
176.445
 50
270.736
 51
271.253
  0
ARC
  8
APS_GEOMETRY
 10
647.417
 20
-231.741
 40
15.19
 50
271.253
 51
273.013
  0
ARC
  8
APS_GEOMETRY
 10
647.27
 20
-228.953
 40
17.982
 50
273.013
 51
274.5
  0
ARC
  8
APS_GEOMETRY
 10
630.614
 20
-17.3
 40
230.289
 50
274.5
 51
274.915
  0
LINE
  8
APS_GEOMETRY
 10
650.345
 11
652.309
 20
-246.743
 21
-246.57
  0
LINE
  8
APS_GEOMETRY
 10
652.309
 11
654.871
 20
-246.57
 21
-246.338
  0
ARC
  8
APS_GEOMETRY
 10
659.084
 20
-287.062
 40
40.941
 50
93.24
 51
95.906
  0
ARC
  8
APS_GEOMETRY
 10
658.337
 20
-273.878
 40
27.736
 50
90.0
 51
93.24
  0
ARC
  8
APS_GEOMETRY
 10
658.337
 20
-269.695
 40
23.553
 50
77.12
 51
90.0
  0
ARC
  8
APS_GEOMETRY
 10
659.578
 20
-264.268
 40
17.987
 50
62.371
 51
77.12
  0
ARC
  8
APS_GEOMETRY
 10
661.679
 20
-260.329
 40
13.522
 50
31.215
 51
62.517
  0
ARC
  8
APS_GEOMETRY
 10
661.616
 20
-260.368
 40
13.597
 50
360.0
 51
31.215
  0
ARC
  8
APS_GEOMETRY
 10
661.25
 20
-260.368
 40
13.962
 50
334.496
 51
360.0
  0
ARC
  8
APS_GEOMETRY
 10
661.937
 20
-260.695
 40
13.201
 50
308.254
 51
334.496
  0
ARC
  8
APS_GEOMETRY
 10
659.838
 20
-257.929
 40
16.674
 50
287.855
 51
308.034
  0
ARC
  8
APS_GEOMETRY
 10
658.435
 20
-253.576
 40
21.247
 50
270.0
 51
287.855
  0
ARC
  8
APS_GEOMETRY
 10
658.435
 20
-242.626
 40
32.197
 50
266.918
 51
270.0
  0
ARC
  8
APS_GEOMETRY
 10
660.39
 20
-206.329
 40
68.546
 50
264.806
 51
266.918
  0
ARC
  8
APS_GEOMETRY
 10
647.317
 20
-368.438
 40
94.095
 50
85.815
 51
86.634
  0
ARC
  8
APS_GEOMETRY
 10
652.516
 20
-280.059
 40
5.563
 50
86.634
 51
90.0
  0
ARC
  8
APS_GEOMETRY
 10
652.516
 20
-275.316
 40
0.821
 50
90.0
 51
139.686
  0
ARC
  8
APS_GEOMETRY
 10
652.821
 20
-275.575
 40
1.22
 50
139.686
 51
180.0
  0
LINE
  8
APS_GEOMETRY
 10
651.6
 11
651.6
 20
-275.575
 21
-275.771
  0
LINE
  8
APS_GEOMETRY
 10
651.6
 11
651.829
 20
-275.771
 21
-281.134
  0
ARC
  8
APS_GEOMETRY
 10
659.58
 20
-280.811
 40
7.757
 50
182.386
 51
193.753
  0
ARC
  8
APS_GEOMETRY
 10
654.582
 20
-282.035
 40
2.612
 50
193.753
 51
213.408
  0
ARC
  8
APS_GEOMETRY
 10
654.638
 20
-281.998
 40
2.679
 50
213.408
 51
232.628
  0
ARC
  8
APS_GEOMETRY
 10
659.148
 20
-276.092
 40
10.11
 50
232.628
 51
242.488
  0
ARC
  8
APS_GEOMETRY
 10
651.626
 20
-290.357
 40
6.017
 50
40.539
 51
61.699
  0
ARC
  8
APS_GEOMETRY
 10
654.914
 20
-287.544
 40
1.69
 50
360.0
 51
40.539
  0
ARC
  8
APS_GEOMETRY
 10
654.335
 20
-287.544
 40
2.269
 50
315.297
 51
360.0
  0
ARC
  8
APS_GEOMETRY
 10
651.265
 20
-284.506
 40
6.588
 50
289.502
 51
315.297
  0
ARC
  8
APS_GEOMETRY
 10
649.016
 20
-278.155
 40
13.326
 50
282.372
 51
289.502
  0
ARC
  8
APS_GEOMETRY
 10
646.653
 20
-267.384
 40
24.353
 50
277.099
 51
282.372
  0
ARC
  8
APS_GEOMETRY
 10
645.682
 20
-259.585
 40
32.213
 50
273.104
 51
277.099
  0
ARC
  8
APS_GEOMETRY
 10
644.536
 20
-238.466
 40
53.362
 50
270.0
 51
273.104
  0
ARC
  8
APS_GEOMETRY
 10
644.536
 20
-239.106
 40
52.723
 50
263.473
 51
270.0
  0
ARC
  8
APS_GEOMETRY
 10
640.204
 20
-276.973
 40
14.609
 50
251.056
 51
263.473
  0
ARC
  8
APS_GEOMETRY
 10
637.422
 20
-285.078
 40
6.039
 50
224.161
 51
251.056
  0
ARC
  8
APS_GEOMETRY
 10
634.747
 20
-287.675
 40
2.311
 50
180.0
 51
224.161
  0
ARC
  8
APS_GEOMETRY
 10
635.227
 20
-287.675
 40
2.791
 50
160.821
 51
180.0
  0
ARC
  8
APS_GEOMETRY
 10
634.057
 20
-287.268
 40
1.552
 50
135.0
 51
160.821
  0
ARC
  8
APS_GEOMETRY
 10
635.163
 20
-288.374
 40
3.117
 50
121.522
 51
135.0
  0
ARC
  8
APS_GEOMETRY
 10
647.648
 20
-308.73
 40
26.996
 50
116.952
 51
121.522
  0
ARC
  8
APS_GEOMETRY
 10
634.015
 20
-282.019
 40
2.993
 50
297.824
 51
321.605
  0
ARC
  8
APS_GEOMETRY
 10
634.705
 20
-282.566
 40
2.113
 50
321.605
 51
349.992
  0
ARC
  8
APS_GEOMETRY
 10
631.505
 20
-282.001
 40
5.362
 50
349.992
 51
356.014
  0
ARC
  8
APS_GEOMETRY
 10
582.842
 20
-278.61
 40
54.143
 50
356.014
 51
357.908
  0
ARC
  8
APS_GEOMETRY
 10
526.038
 20
-276.535
 40
110.985
 50
357.908
 51
358.833
  0
ARC
  8
APS_GEOMETRY
 10
320.642
 20
-272.35
 40
316.424
 50
358.833
 51
359.381
  0
LINE
  8
APS_GEOMETRY
 10
651.829
 11
651.829
 20
-254.416
 21
-265.535
  0
ARC
  8
APS_GEOMETRY
 10
655.204
 20
-265.535
 40
3.374
 50
180.0
 51
199.885
  0
ARC
  8
APS_GEOMETRY
 10
652.679
 20
-266.448
 40
0.689
 50
199.885
 51
244.799
  0
ARC
  8
APS_GEOMETRY
 10
654.13
 20
-263.458
 40
4.013
 50
244.231
 51
258.996
  0
ARC
  8
APS_GEOMETRY
 10
654.74
 20
-260.321
 40
7.209
 50
258.996
 51
270.0
  0
ARC
  8
APS_GEOMETRY
 10
654.74
 20
-261.079
 40
6.45
 50
270.0
 51
288.435
  0
ARC
  8
APS_GEOMETRY
 10
655.203
 20
-262.467
 40
4.987
 50
288.435
 51
309.428
  0
ARC
  8
APS_GEOMETRY
 10
655.371
 20
-262.642
 40
4.745
 50
309.193
 51
339.939
  0
ARC
  8
APS_GEOMETRY
 10
649.502
 20
-260.498
 40
10.994
 50
339.939
 51
0.0
  0
ARC
  8
APS_GEOMETRY
 10
650.148
 20
-260.498
 40
10.348
 50
0.0
 51
22.011
  0
ARC
  8
APS_GEOMETRY
 10
654.733
 20
-258.645
 40
5.403
 50
22.011
 51
52.651
  0
ARC
  8
APS_GEOMETRY
 10
654.662
 20
-258.694
 40
5.485
 50
52.374
 51
72.309
  0
ARC
  8
APS_GEOMETRY
 10
654.217
 20
-260.09
 40
6.95
 50
72.309
 51
90.0
  0
ARC
  8
APS_GEOMETRY
 10
654.217
 20
-257.192
 40
4.052
 50
90.0
 51
118.113
  0
ARC
  8
APS_GEOMETRY
 10
652.733
 20
-254.416
 40
0.904
 50
118.113
 51
180.0
  0
ARC
  8
APS_GEOMETRY
 10
704.567
 20
-271.4
 40
25.782
 50
71.91
 51
90.0
  0
ARC
  8
APS_GEOMETRY
 10
705.565
 20
-268.343
 40
22.566
 50
52.561
 51
71.91
  0
ARC
  8
APS_GEOMETRY
 10
705.304
 20
-268.419
 40
22.786
 50
38.846
 51
52.156
  0
ARC
  8
APS_GEOMETRY
 10
701.732
 20
-271.296
 40
27.372
 50
26.707
 51
38.846
  0
ARC
  8
APS_GEOMETRY
 10
702.439
 20
-270.718
 40
26.482
 50
13.868
 51
26.278
  0
ARC
  8
APS_GEOMETRY
 10
707.539
 20
-269.459
 40
21.229
 50
360.0
 51
13.868
  0
ARC
  8
APS_GEOMETRY
 10
707.869
 20
-269.459
 40
20.899
 50
339.712
 51
360.0
  0
ARC
  8
APS_GEOMETRY
 10
706.692
 20
-269.024
 40
22.153
 50
320.013
 51
339.712
  0
ARC
  8
APS_GEOMETRY
 10
706.497
 20
-268.917
 40
22.372
 50
303.344
 51
320.123
  0
ARC
  8
APS_GEOMETRY
 10
704.202
 20
-265.428
 40
26.548
 50
287.949
 51
303.344
  0
ARC
  8
APS_GEOMETRY
 10
703.447
 20
-262.813
 40
29.269
 50
279.039
 51
287.776
  0
ARC
  8
APS_GEOMETRY
 10
703.749
 20
-264.711
 40
27.346
 50
270.0
 51
279.039
  0
ARC
  8
APS_GEOMETRY
 10
703.749
 20
-266.046
 40
26.011
 50
257.728
 51
270.0
  0
ARC
  8
APS_GEOMETRY
 10
703.79
 20
-265.858
 40
26.203
 50
245.501
 51
257.728
  0
ARC
  8
APS_GEOMETRY
 10
702.318
 20
-269.081
 40
22.66
 50
228.665
 51
245.511
  0
ARC
  8
APS_GEOMETRY
 10
701.828
 20
-269.638
 40
21.918
 50
211.535
 51
228.665
  0
ARC
  8
APS_GEOMETRY
 10
702.47
 20
-269.166
 40
22.712
 50
195.642
 51
211.701
  0
ARC
  8
APS_GEOMETRY
 10
703.643
 20
-268.838
 40
23.931
 50
180.0
 51
195.642
  0
ARC
  8
APS_GEOMETRY
 10
703.895
 20
-268.838
 40
24.183
 50
162.181
 51
180.0
  0
ARC
  8
APS_GEOMETRY
 10
701.689
 20
-268.129
 40
21.865
 50
143.434
 51
162.181
  0
ARC
  8
APS_GEOMETRY
 10
701.392
 20
-267.891
 40
21.485
 50
126.384
 51
143.471
  0
ARC
  8
APS_GEOMETRY
 10
703.426
 20
-270.651
 40
24.914
 50
110.525
 51
126.384
  0
ARC
  8
APS_GEOMETRY
 10
703.325
 20
-269.902
 40
24.177
 50
99.77
 51
110.925
  0
ARC
  8
APS_GEOMETRY
 10
704.567
 20
-277.114
 40
31.496
 50
90.0
 51
99.77
  0
ARC
  8
APS_GEOMETRY
 10
701.46
 20
-259.811
 40
4.807
 50
90.0
 51
119.604
  0
ARC
  8
APS_GEOMETRY
 10
701.881
 20
-260.552
 40
5.659
 50
119.604
 51
146.842
  0
ARC
  8
APS_GEOMETRY
 10
702.727
 20
-261.246
 40
6.748
 50
145.84
 51
164.055
  0
ARC
  8
APS_GEOMETRY
 10
704.689
 20
-261.807
 40
8.788
 50
164.055
 51
180.0
  0
ARC
  8
APS_GEOMETRY
 10
716.953
 20
-261.807
 40
21.053
 50
180.0
 51
189.977
  0
ARC
  8
APS_GEOMETRY
 10
735.605
 20
-258.526
 40
39.991
 50
189.977
 51
197.211
  0
ARC
  8
APS_GEOMETRY
 10
739.684
 20
-257.262
 40
44.261
 50
197.211
 51
203.76
  0
ARC
  8
APS_GEOMETRY
 10
729.521
 20
-261.736
 40
33.157
 50
203.76
 51
211.329
  0
ARC
  8
APS_GEOMETRY
 10
708.653
 20
-274.26
 40
8.821
 50
212.32
 51
224.441
  0
ARC
  8
APS_GEOMETRY
 10
707.798
 20
-275.098
 40
7.623
 50
224.441
 51
237.484
  0
ARC
  8
APS_GEOMETRY
 10
707.245
 20
-275.966
 40
6.595
 50
237.484
 51
252.416
  0
ARC
  8
APS_GEOMETRY
 10
706.693
 20
-277.709
 40
4.766
 50
252.416
 51
270.0
  0
ARC
  8
APS_GEOMETRY
 10
706.693
 20
-277.144
 40
5.331
 50
270.0
 51
294.953
  0
ARC
  8
APS_GEOMETRY
 10
706.842
 20
-277.465
 40
4.977
 50
294.953
 51
320.793
  0
ARC
  8
APS_GEOMETRY
 10
706.041
 20
-276.812
 40
6.011
 50
320.793
 51
342.777
  0
ARC
  8
APS_GEOMETRY
 10
702.474
 20
-275.706
 40
9.746
 50
342.777
 51
0.0
  0
ARC
  8
APS_GEOMETRY
 10
685.712
 20
-275.706
 40
26.507
 50
0.0
 51
8.499
  0
ARC
  8
APS_GEOMETRY
 10
674.045
 20
-277.449
 40
38.304
 50
8.499
 51
15.566
  0
ARC
  8
APS_GEOMETRY
 10
675.448
 20
-277.058
 40
36.848
 50
15.566
 51
22.909
  0
ARC
  8
APS_GEOMETRY
 10
687.512
 20
-271.96
 40
23.751
 50
22.909
 51
32.057
  0
ARC
  8
APS_GEOMETRY
 10
696.987
 20
-265.991
 40
12.552
 50
31.921
 51
42.51
  0
ARC
  8
APS_GEOMETRY
 10
699.589
 20
-263.605
 40
9.022
 50
42.51
 51
55.008
  0
ARC
  8
APS_GEOMETRY
 10
700.468
 20
-262.35
 40
7.489
 50
55.008
 51
69.88
  0
ARC
  8
APS_GEOMETRY
 10
701.256
 20
-260.198
 40
5.198
 50
69.88
 51
87.754
  0
ARC
  8
APS_GEOMETRY
 10
755.081
 20
-274.822
 40
2.42
 50
90.0
 51
115.837
  0
ARC
  8
APS_GEOMETRY
 10
754.485
 20
-273.592
 40
1.053
 50
115.837
 51
155.462
  0
ARC
  8
APS_GEOMETRY
 10
755.18
 20
-273.909
 40
1.817
 50
155.462
 51
168.366
  0
ARC
  8
APS_GEOMETRY
 10
761.526
 20
-275.216
 40
8.296
 50
168.366
 51
174.395
  0
ARC
  8
APS_GEOMETRY
 10
767.922
 20
-275.843
 40
14.722
 50
174.395
 51
177.813
  0
ARC
  8
APS_GEOMETRY
 10
789.15
 20
-276.654
 40
35.966
 50
177.813
 51
180.0
  0
ARC
  8
APS_GEOMETRY
 10
804.519
 20
-276.654
 40
51.335
 50
180.0
 51
184.62
  0
ARC
  8
APS_GEOMETRY
 10
770.099
 20
-279.435
 40
16.803
 50
184.62
 51
192.7
  0
ARC
  8
APS_GEOMETRY
 10
756.829
 20
-282.349
 40
3.218
 50
194.036
 51
205.821
  0
ARC
  8
APS_GEOMETRY
 10
755.423
 20
-283.029
 40
1.656
 50
205.821
 51
222.274
  0
ARC
  8
APS_GEOMETRY
 10
755.854
 20
-282.637
 40
2.238
 50
222.274
 51
234.605
  0
ARC
  8
APS_GEOMETRY
 10
760.714
 20
-275.797
 40
10.63
 50
234.605
 51
240.255
  0
ARC
  8
APS_GEOMETRY
 10
753.326
 20
-288.871
 40
4.389
 50
34.592
 51
61.189
  0
ARC
  8
APS_GEOMETRY
 10
754.776
 20
-287.871
 40
2.627
 50
360.0
 51
34.592
  0
ARC
  8
APS_GEOMETRY
 10
754.863
 20
-287.871
 40
2.539
 50
318.231
 51
360.0
  0
ARC
  8
APS_GEOMETRY
 10
753.165
 20
-286.355
 40
4.816
 50
288.227
 51
318.231
  0
ARC
  8
APS_GEOMETRY
 10
751.404
 20
-281.007
 40
10.446
 50
280.377
 51
288.227
  0
ARC
  8
APS_GEOMETRY
 10
748.334
 20
-264.243
 40
27.489
 50
275.541
 51
280.377
  0
ARC
  8
APS_GEOMETRY
 10
747.011
 20
-250.606
 40
41.19
 50
272.304
 51
275.541
  0
ARC
  8
APS_GEOMETRY
 10
745.401
 20
-210.57
 40
81.259
 50
270.0
 51
272.304
  0
ARC
  8
APS_GEOMETRY
 10
745.401
 20
-244.028
 40
47.8
 50
262.811
 51
270.0
  0
ARC
  8
APS_GEOMETRY
 10
741.111
 20
-278.035
 40
13.524
 50
249.274
 51
262.811
  0
ARC
  8
APS_GEOMETRY
 10
738.413
 20
-285.165
 40
5.901
 50
221.379
 51
249.274
  0
ARC
  8
APS_GEOMETRY
 10
736.047
 20
-287.25
 40
2.747
 50
180.0
 51
221.379
  0
ARC
  8
APS_GEOMETRY
 10
736.029
 20
-287.25
 40
2.728
 50
164.055
 51
180.0
  0
ARC
  8
APS_GEOMETRY
 10
734.891
 20
-286.925
 40
1.546
 50
142.815
 51
164.055
  0
ARC
  8
APS_GEOMETRY
 10
735.607
 20
-287.468
 40
2.444
 50
129.007
 51
142.815
  0
ARC
  8
APS_GEOMETRY
 10
744.399
 20
-298.322
 40
16.412
 50
123.69
 51
129.007
  0
ARC
  8
APS_GEOMETRY
 10
731.923
 20
-279.549
 40
6.128
 50
303.389
 51
319.022
  0
ARC
  8
APS_GEOMETRY
 10
733.581
 20
-280.99
 40
3.932
 50
319.022
 51
338.575
  0
ARC
  8
APS_GEOMETRY
 10
731.362
 20
-280.119
 40
6.316
 50
338.575
 51
351.049
  0
ARC
  8
APS_GEOMETRY
 10
704.556
 20
-275.897
 40
33.452
 50
351.049
 51
356.46
  0
ARC
  8
APS_GEOMETRY
 10
713.392
 20
-276.233
 40
24.613
 50
355.972
 51
358.68
  0
ARC
  8
APS_GEOMETRY
 10
423.201
 20
-269.547
 40
314.881
 50
358.68
 51
359.437
  0
LINE
  8
APS_GEOMETRY
 10
738.067
 11
738.097
 20
-272.64
 21
-267.728
  0
LINE
  8
APS_GEOMETRY
 10
738.097
 11
738.108
 20
-267.728
 21
-261.316
  0
ARC
  8
APS_GEOMETRY
 10
662.298
 20
-261.316
 40
75.809
 50
0.0
 51
1.717
  0
ARC
  8
APS_GEOMETRY
 10
702.867
 20
-260.1
 40
35.223
 50
1.717
 51
4.236
  0
ARC
  8
APS_GEOMETRY
 10
716.096
 20
-259.12
 40
21.957
 50
4.236
 51
8.269
  0
ARC
  8
APS_GEOMETRY
 10
731.32
 20
-256.907
 40
6.573
 50
8.269
 51
15.642
  0
ARC
  8
APS_GEOMETRY
 10
733.94
 20
-256.174
 40
3.853
 50
15.642
 51
39.417
  0
ARC
  8
APS_GEOMETRY
 10
733.999
 20
-256.125
 40
3.776
 50
39.417
 51
63.435
  0
ARC
  8
APS_GEOMETRY
 10
740.8
 20
-242.036
 40
11.869
 50
236.874
 51
244.486
  0
ARC
  8
APS_GEOMETRY
 10
735.741
 20
-249.789
 40
2.611
 50
220.601
 51
236.874
  0
ARC
  8
APS_GEOMETRY
 10
735.16
 20
-250.287
 40
1.847
 50
198.246
 51
220.601
  0
ARC
  8
APS_GEOMETRY
 10
736.028
 20
-250.001
 40
2.761
 50
180.0
 51
198.246
  0
ARC
  8
APS_GEOMETRY
 10
736.015
 20
-250.001
 40
2.748
 50
156.161
 51
180.0
  0
ARC
  8
APS_GEOMETRY
 10
736.398
 20
-250.17
 40
3.167
 50
133.977
 51
156.161
  0
ARC
  8
APS_GEOMETRY
 10
737.162
 20
-250.961
 40
4.266
 50
116.996
 51
133.977
  0
ARC
  8
APS_GEOMETRY
 10
738.679
 20
-253.939
 40
7.608
 50
104.3
 51
116.996
  0
ARC
  8
APS_GEOMETRY
 10
739.071
 20
-255.445
 40
9.164
 50
95.326
 51
104.349
  0
ARC
  8
APS_GEOMETRY
 10
740.659
 20
-272.479
 40
26.272
 50
90.0
 51
95.326
  0
ARC
  8
APS_GEOMETRY
 10
740.659
 20
-259.22
 40
13.013
 50
87.553
 51
90.0
  0
ARC
  8
APS_GEOMETRY
 10
737.89
 20
-324.008
 40
77.86
 50
86.553
 51
87.553
  0
ARC
  8
APS_GEOMETRY
 10
733.953
 20
-389.354
 40
143.325
 50
86.009
 51
86.553
  0
ARC
  8
APS_GEOMETRY
 10
718.645
 20
-608.768
 40
363.271
 50
85.668
 51
86.009
  0
ARC
  8
APS_GEOMETRY
 10
747.293
 20
-231.457
 40
15.125
 50
265.426
 51
268.531
  0
ARC
  8
APS_GEOMETRY
 10
748.638
 20
-179.014
 40
67.586
 50
268.531
 51
270.0
  0
ARC
  8
APS_GEOMETRY
 10
748.638
 20
-195.089
 40
51.511
 50
270.0
 51
271.637
  0
ARC
  8
APS_GEOMETRY
 10
747.487
 20
-154.804
 40
91.812
 50
271.637
 51
272.862
  0
ARC
  8
APS_GEOMETRY
 10
746.166
 20
-128.375
 40
118.274
 50
272.862
 51
273.814
  0
ARC
  8
APS_GEOMETRY
 10
741.692
 20
-61.271
 40
185.527
 50
273.814
 51
274.574
  0
ARC
  8
APS_GEOMETRY
 10
769.754
 20
-426.262
 40
180.543
 50
93.72
 51
94.214
  0
ARC
  8
APS_GEOMETRY
 10
763.765
 20
-334.144
 40
88.23
 50
93.013
 51
93.72
  0
ARC
  8
APS_GEOMETRY
 10
762.123
 20
-302.948
 40
56.991
 50
91.918
 51
93.013
  0
ARC
  8
APS_GEOMETRY
 10
760.837
 20
-264.533
 40
18.554
 50
90.0
 51
91.918
  0
ARC
  8
APS_GEOMETRY
 10
760.837
 20
-270.087
 40
24.109
 50
73.82
 51
90.0
  0
ARC
  8
APS_GEOMETRY
 10
763.213
 20
-261.897
 40
15.581
 50
53.658
 51
73.82
  0
ARC
  8
APS_GEOMETRY
 10
766.592
 20
-257.278
 40
9.857
 50
26.03
 51
53.569
  0
ARC
  8
APS_GEOMETRY
 10
765.555
 20
-257.784
 40
11.012
 50
360.0
 51
26.03
  0
ARC
  8
APS_GEOMETRY
 10
765.124
 20
-257.784
 40
11.443
 50
345.282
 51
360.0
  0
ARC
  8
APS_GEOMETRY
 10
766.225
 20
-258.073
 40
10.305
 50
329.767
 51
345.282
  0
ARC
  8
APS_GEOMETRY
 10
766.848
 20
-258.437
 40
9.583
 50
313.168
 51
329.767
  0
ARC
  8
APS_GEOMETRY
 10
767.079
 20
-258.683
 40
9.246
 50
296.267
 51
313.168
  0
ARC
  8
APS_GEOMETRY
 10
772.342
 20
-269.317
 40
2.62
 50
116.565
 51
139.899
  0
ARC
  8
APS_GEOMETRY
 10
771.036
 20
-268.216
 40
0.911
 50
139.899
 51
180.0
  0
ARC
  8
APS_GEOMETRY
 10
771.137
 20
-268.216
 40
1.013
 50
180.0
 51
226.193
  0
ARC
  8
APS_GEOMETRY
 10
773.008
 20
-266.266
 40
3.715
 50
226.193
 51
249.829
  0
ARC
  8
APS_GEOMETRY
 10
767.647
 20
-281.027
 40
11.989
 50
53.249
 51
70.105
  0
ARC
  8
APS_GEOMETRY
 10
770.082
 20
-277.766
 40
7.919
 50
32.471
 51
53.249
  0
ARC
  8
APS_GEOMETRY
 10
768.947
 20
-278.488
 40
9.264
 50
23.305
 51
32.471
  0
ARC
  8
APS_GEOMETRY
 10
761.937
 20
-281.508
 40
16.897
 50
16.521
 51
23.305
  0
ARC
  8
APS_GEOMETRY
 10
756.471
 20
-283.129
 40
22.598
 50
11.429
 51
16.521
  0
ARC
  8
APS_GEOMETRY
 10
740.982
 20
-286.261
 40
38.401
 50
7.524
 51
11.429
  0
ARC
  8
APS_GEOMETRY
 10
792.31
 20
-279.425
 40
13.38
 50
187.765
 51
196.914
  0
ARC
  8
APS_GEOMETRY
 10
781.367
 20
-282.752
 40
1.942
 50
196.914
 51
221.082
  0
ARC
  8
APS_GEOMETRY
 10
781.408
 20
-282.716
 40
1.997
 50
221.082
 51
244.607
  0
ARC
  8
APS_GEOMETRY
 10
786.082
 20
-272.871
 40
12.896
 50
244.607
 51
253.811
  0
ARC
  8
APS_GEOMETRY
 10
781.973
 20
-286.881
 40
1.705
 50
51.45
 51
72.474
  0
ARC
  8
APS_GEOMETRY
 10
781.551
 20
-287.41
 40
2.382
 50
33.69
 51
51.45
  0
ARC
  8
APS_GEOMETRY
 10
781.452
 20
-287.476
 40
2.5
 50
16.639
 51
33.69
  0
ARC
  8
APS_GEOMETRY
 10
781.333
 20
-287.512
 40
2.625
 50
360.0
 51
16.639
  0
ARC
  8
APS_GEOMETRY
 10
781.296
 20
-287.512
 40
2.662
 50
338.993
 51
360.0
  0
ARC
  8
APS_GEOMETRY
 10
779.671
 20
-286.887
 40
4.402
 50
322.696
 51
338.993
  0
ARC
  8
APS_GEOMETRY
 10
779.066
 20
-286.426
 40
5.164
 50
308.603
 51
322.696
  0
ARC
  8
APS_GEOMETRY
 10
778.649
 20
-285.904
 40
5.831
 50
295.346
 51
308.603
  0
ARC
  8
APS_GEOMETRY
 10
776.458
 20
-281.078
 40
11.131
 50
279.583
 51
294.905
  0
ARC
  8
APS_GEOMETRY
 10
773.591
 20
-264.097
 40
28.353
 50
270.0
 51
279.583
  0
ARC
  8
APS_GEOMETRY
 10
773.591
 20
-271.778
 40
20.672
 50
261.247
 51
270.0
  0
ARC
  8
APS_GEOMETRY
 10
772.267
 20
-280.378
 40
11.97
 50
249.737
 51
261.247
  0
ARC
  8
APS_GEOMETRY
 10
771.396
 20
-282.736
 40
9.457
 50
235.345
 51
249.737
  0
ARC
  8
APS_GEOMETRY
 10
770.297
 20
-284.326
 40
7.524
 50
219.198
 51
235.345
  0
ARC
  8
APS_GEOMETRY
 10
772.61
 20
-282.354
 40
10.563
 50
209.076
 51
219.56
  0
ARC
  8
APS_GEOMETRY
 10
777.951
 20
-279.384
 40
16.674
 50
200.735
 51
209.076
  0
ARC
  8
APS_GEOMETRY
 10
785.32
 20
-276.594
 40
24.554
 50
197.881
 51
200.735
  0
ARC
  8
APS_GEOMETRY
 10
815.602
 20
-266.825
 40
56.372
 50
195.997
 51
197.881
  0
ARC
  8
APS_GEOMETRY
 10
837.984
 20
-260.408
 40
79.656
 50
194.664
 51
195.997
  0
ARC
  8
APS_GEOMETRY
 10
899.979
 20
-244.186
 40
143.738
 50
193.671
 51
194.664
  0
ARC
  8
APS_GEOMETRY
 10
742.769
 20
-282.406
 40
18.051
 50
13.61
 51
23.585
  0
ARC
  8
APS_GEOMETRY
 10
754.588
 20
-277.246
 40
5.155
 50
23.585
 51
42.31
  0
ARC
  8
APS_GEOMETRY
 10
755.66
 20
-276.27
 40
3.705
 50
42.31
 51
67.521
  0
ARC
  8
APS_GEOMETRY
 10
754.812
 20
-278.32
 40
5.924
 50
67.521
 51
87.397
  0
LINE
  8
APS_GEOMETRY
 10
753.217
 11
752.857
 20
-255.724
 21
-263.344
  0
LINE
  8
APS_GEOMETRY
 10
752.857
 11
752.857
 20
-263.344
 21
-263.466
  0
LINE
  8
APS_GEOMETRY
 10
752.857
 11
752.857
 20
-263.466
 21
-263.638
  0
ARC
  8
APS_GEOMETRY
 10
758.151
 20
-263.638
 40
5.294
 50
180.0
 51
192.339
  0
ARC
  8
APS_GEOMETRY
 10
753.942
 20
-264.559
 40
0.986
 50
192.339
 51
221.186
  0
ARC
  8
APS_GEOMETRY
 10
753.842
 20
-264.647
 40
0.852
 50
221.186
 51
253.872
  0
ARC
  8
APS_GEOMETRY
 10
754.557
 20
-262.171
 40
3.429
 50
253.872
 51
270.0
  0
ARC
  8
APS_GEOMETRY
 10
754.557
 20
-257.63
 40
7.971
 50
270.0
 51
289.569
  0
ARC
  8
APS_GEOMETRY
 10
756.007
 20
-261.706
 40
3.644
 50
289.569
 51
318.681
  0
ARC
  8
APS_GEOMETRY
 10
755.615
 20
-261.361
 40
4.166
 50
318.681
 51
344.628
  0
ARC
  8
APS_GEOMETRY
 10
748.312
 20
-259.354
 40
11.74
 50
344.628
 51
0.0
  0
ARC
  8
APS_GEOMETRY
 10
751.784
 20
-259.354
 40
8.268
 50
0.0
 51
35.369
  0
ARC
  8
APS_GEOMETRY
 10
755.571
 20
-256.665
 40
3.623
 50
35.369
 51
90.0
  0
ARC
  8
APS_GEOMETRY
 10
755.571
 20
-256.705
 40
3.663
 50
90.0
 51
108.435
  0
ARC
  8
APS_GEOMETRY
 10
754.859
 20
-254.567
 40
1.409
 50
108.435
 51
138.366
  0
ARC
  8
APS_GEOMETRY
 10
755.05
 20
-254.737
 40
1.665
 50
138.366
 51
164.291
  0
ARC
  8
APS_GEOMETRY
 10
759.535
 20
-255.998
 40
6.324
 50
164.291
 51
177.51
  0
LINE
  8
APS_GEOMETRY
 10
803.73
 11
820.965
 20
-246.534
 21
-246.534
  0
ARC
  8
APS_GEOMETRY
 10
820.094
 20
-221.839
 40
24.711
 50
272.021
 51
278.44
  0
ARC
  8
APS_GEOMETRY
 10
821.066
 20
-228.394
 40
18.083
 50
278.44
 51
285.945
  0
ARC
  8
APS_GEOMETRY
 10
828.383
 20
-254.592
 40
9.118
 50
98.584
 51
104.931
  0
ARC
  8
APS_GEOMETRY
 10
827.768
 20
-250.511
 40
4.991
 50
90.0
 51
98.584
  0
ARC
  8
APS_GEOMETRY
 10
827.768
 20
-249.272
 40
3.752
 50
52.871
 51
90.0
  0
ARC
  8
APS_GEOMETRY
 10
822.679
 20
-255.993
 40
12.182
 50
32.518
 51
52.871
  0
ARC
  8
APS_GEOMETRY
 10
818.648
 20
-258.563
 40
16.963
 50
17.209
 51
32.518
  0
ARC
  8
APS_GEOMETRY
 10
822.008
 20
-257.522
 40
13.445
 50
360.0
 51
17.209
  0
ARC
  8
APS_GEOMETRY
 10
828.735
 20
-257.522
 40
6.717
 50
337.348
 51
360.0
  0
ARC
  8
APS_GEOMETRY
 10
831.435
 20
-258.649
 40
3.792
 50
307.042
 51
337.348
  0
ARC
  8
APS_GEOMETRY
 10
830.966
 20
-258.004
 40
4.589
 50
287.186
 51
306.87
  0
ARC
  8
APS_GEOMETRY
 10
830.547
 20
-256.65
 40
6.006
 50
270.0
 51
287.186
  0
ARC
  8
APS_GEOMETRY
 10
830.547
 20
-257.263
 40
5.393
 50
252.221
 51
270.0
  0
ARC
  8
APS_GEOMETRY
 10
830.296
 20
-258.046
 40
4.571
 50
232.896
 51
252.221
  0
ARC
  8
APS_GEOMETRY
 10
831.267
 20
-256.763
 40
6.18
 50
218.3
 51
232.896
  0
ARC
  8
APS_GEOMETRY
 10
838.847
 20
-250.777
 40
15.839
 50
209.197
 51
218.3
  0
ARC
  8
APS_GEOMETRY
 10
800.293
 20
-271.665
 40
28.012
 50
28.025
 51
32.699
  0
ARC
  8
APS_GEOMETRY
 10
820.449
 20
-258.725
 40
4.06
 50
32.699
 51
45.0
  0
ARC
  8
APS_GEOMETRY
 10
821.824
 20
-257.351
 40
2.116
 50
45.0
 51
67.557
  0
ARC
  8
APS_GEOMETRY
 10
821.815
 20
-257.37
 40
2.137
 50
67.557
 51
90.0
  0
ARC
  8
APS_GEOMETRY
 10
821.815
 20
-257.202
 40
1.969
 50
90.0
 51
120.801
  0
ARC
  8
APS_GEOMETRY
 10
821.749
 20
-257.09
 40
1.839
 50
120.801
 51
152.7
  0
ARC
  8
APS_GEOMETRY
 10
823.208
 20
-257.843
 40
3.481
 50
152.7
 51
171.085
  0
ARC
  8
APS_GEOMETRY
 10
834.297
 20
-259.583
 40
14.705
 50
171.085
 51
180.0
  0
LINE
  8
APS_GEOMETRY
 10
819.592
 11
819.592
 20
-259.583
 21
-277.897
  0
ARC
  8
APS_GEOMETRY
 10
839.019
 20
-277.897
 40
19.427
 50
180.0
 51
188.194
  0
ARC
  8
APS_GEOMETRY
 10
824.511
 20
-279.986
 40
4.77
 50
188.194
 51
204.775
  0
ARC
  8
APS_GEOMETRY
 10
823.102
 20
-280.636
 40
3.218
 50
204.775
 51
228.576
  0
ARC
  8
APS_GEOMETRY
 10
824.424
 20
-279.138
 40
5.216
 50
228.576
 51
247.218
  0
ARC
  8
APS_GEOMETRY
 10
816.755
 20
-297.21
 40
14.416
 50
59.381
 51
66.93
  0
ARC
  8
APS_GEOMETRY
 10
822.416
 20
-287.644
 40
3.301
 50
43.568
 51
59.381
  0
ARC
  8
APS_GEOMETRY
 10
823.322
 20
-286.783
 40
2.051
 50
19.041
 51
43.568
  0
ARC
  8
APS_GEOMETRY
 10
822.064
 20
-287.217
 40
3.382
 50
360.0
 51
19.041
  0
ARC
  8
APS_GEOMETRY
 10
822.698
 20
-287.217
 40
2.747
 50
317.66
 51
360.0
  0
ARC
  8
APS_GEOMETRY
 10
820.176
 20
-284.919
 40
6.16
 50
289.747
 51
317.66
  0
ARC
  8
APS_GEOMETRY
 10
818.063
 20
-279.034
 40
12.412
 50
281.964
 51
289.747
  0
ARC
  8
APS_GEOMETRY
 10
815.136
 20
-265.222
 40
26.531
 50
276.643
 51
281.964
  0
ARC
  8
APS_GEOMETRY
 10
813.905
 20
-254.646
 40
37.178
 50
272.836
 51
276.643
  0
ARC
  8
APS_GEOMETRY
 10
812.43
 20
-224.871
 40
66.99
 50
270.0
 51
272.836
  0
ARC
  8
APS_GEOMETRY
 10
812.43
 20
-206.421
 40
85.44
 50
267.283
 51
270.0
  0
ARC
  8
APS_GEOMETRY
 10
810.636
 20
-244.224
 40
47.595
 50
263.643
 51
267.283
  0
ARC
  8
APS_GEOMETRY
 10
809.133
 20
-257.708
 40
34.027
 50
258.563
 51
263.643
  0
ARC
  8
APS_GEOMETRY
 10
805.545
 20
-275.447
 40
15.929
 50
251.136
 51
258.563
  0
ARC
  8
APS_GEOMETRY
 10
802.341
 20
-284.74
 40
6.099
 50
222.558
 51
251.395
  0
ARC
  8
APS_GEOMETRY
 10
799.963
 20
-286.923
 40
2.871
 50
180.0
 51
222.558
  0
ARC
  8
APS_GEOMETRY
 10
799.483
 20
-286.923
 40
2.392
 50
150.642
 51
180.0
  0
ARC
  8
APS_GEOMETRY
 10
799.675
 20
-287.031
 40
2.612
 50
122.574
 51
150.642
  0
ARC
  8
APS_GEOMETRY
 10
799.168
 20
-286.448
 40
1.851
 50
108.677
 51
119.055
  0
ARC
  8
APS_GEOMETRY
 10
822.284
 20
-354.832
 40
74.036
 50
107.038
 51
108.677
  0
ARC
  8
APS_GEOMETRY
 10
799.729
 20
-281.068
 40
3.099
 50
286.144
 51
308.66
  0
ARC
  8
APS_GEOMETRY
 10
800.237
 20
-281.703
 40
2.287
 50
308.66
 51
334.933
  0
ARC
  8
APS_GEOMETRY
 10
798.172
 20
-280.737
 40
4.566
 50
334.933
 51
348.829
  0
ARC
  8
APS_GEOMETRY
 10
772.346
 20
-275.637
 40
30.891
 50
348.829
 51
354.161
  0
ARC
  8
APS_GEOMETRY
 10
754.89
 20
-273.838
 40
48.439
 50
354.144
 51
355.66
  0
ARC
  8
APS_GEOMETRY
 10
677.514
 20
-267.966
 40
126.038
 50
355.66
 51
356.6
  0
ARC
  8
APS_GEOMETRY
 10
618.365
 20
-264.452
 40
185.291
 50
356.6
 51
357.24
  0
ARC
  8
APS_GEOMETRY
 10
450.54
 20
-256.36
 40
353.311
 50
357.24
 51
357.703
  0
ARC
  8
APS_GEOMETRY
 10
467.06
 20
-257.023
 40
336.777
 50
357.703
 51
358.674
  0
ARC
  8
APS_GEOMETRY
 10
622.892
 20
-260.629
 40
180.903
 50
358.674
 51
0.0
  0
ARC
  8
APS_GEOMETRY
 10
776.986
 20
-260.629
 40
26.81
 50
0.0
 51
6.242
  0
ARC
  8
APS_GEOMETRY
 10
798.305
 20
-258.297
 40
5.364
 50
6.242
 51
20.225
  0
ARC
  8
APS_GEOMETRY
 10
801.26
 20
-257.209
 40
2.215
 50
20.225
 51
50.44
  0
ARC
  8
APS_GEOMETRY
 10
801.834
 20
-256.514
 40
1.314
 50
50.44
 51
90.0
  0
ARC
  8
APS_GEOMETRY
 10
801.834
 20
-256.963
 40
1.762
 50
90.0
 51
126.747
  0
ARC
  8
APS_GEOMETRY
 10
804.324
 20
-260.298
 40
5.924
 50
126.747
 51
146.547
  0
ARC
  8
APS_GEOMETRY
 10
760.336
 20
-231.385
 40
46.715
 50
324.255
 51
326.701
  0
ARC
  8
APS_GEOMETRY
 10
778.959
 20
-244.789
 40
23.77
 50
320.826
 51
324.255
  0
ARC
  8
APS_GEOMETRY
 10
785.045
 20
-249.748
 40
15.918
 50
315.722
 51
320.826
  0
ARC
  8
APS_GEOMETRY
 10
792.04
 20
-256.568
 40
6.149
 50
307.504
 51
315.722
  0
ARC
  8
APS_GEOMETRY
 10
791.394
 20
-255.707
 40
7.226
 50
291.306
 51
307.405
  0
ARC
  8
APS_GEOMETRY
 10
792.513
 20
-258.576
 40
4.146
 50
270.0
 51
291.306
  0
ARC
  8
APS_GEOMETRY
 10
792.513
 20
-258.843
 40
3.879
 50
245.532
 51
270.0
  0
ARC
  8
APS_GEOMETRY
 10
792.484
 20
-258.908
 40
3.808
 50
220.833
 51
245.532
  0
ARC
  8
APS_GEOMETRY
 10
792.877
 20
-258.568
 40
4.328
 50
198.684
 51
220.833
  0
ARC
  8
APS_GEOMETRY
 10
794.518
 20
-258.013
 40
6.06
 50
180.0
 51
198.684
  0
ARC
  8
APS_GEOMETRY
 10
798.366
 20
-258.013
 40
9.908
 50
168.408
 51
180.0
  0
ARC
  8
APS_GEOMETRY
 10
804.718
 20
-259.316
 40
16.393
 50
159.402
 51
168.408
  0
ARC
  8
APS_GEOMETRY
 10
806.682
 20
-260.054
 40
18.49
 50
151.39
 51
159.402
  0
ARC
  8
APS_GEOMETRY
 10
806.279
 20
-259.834
 40
18.032
 50
143.276
 51
151.39
  0
ARC
  8
APS_GEOMETRY
 10
801.23
 20
-256.059
 40
11.726
 50
124.216
 51
143.31
  0
ARC
  8
APS_GEOMETRY
 10
796.732
 20
-249.444
 40
3.728
 50
90.0
 51
124.216
  0
ARC
  8
APS_GEOMETRY
 10
796.732
 20
-251.101
 40
5.384
 50
82.725
 51
90.0
  0
ARC
  8
APS_GEOMETRY
 10
796.311
 20
-254.396
 40
8.707
 50
77.005
 51
82.725
  0
ARC
  8
APS_GEOMETRY
 10
809.16
 20
-192.45
 40
54.561
 50
258.486
 51
260.378
  0
ARC
  8
APS_GEOMETRY
 10
803.656
 20
-224.915
 40
21.633
 50
260.378
 51
263.382
  0
ARC
  8
APS_GEOMETRY
 10
803.185
 20
-228.972
 40
17.548
 50
263.382
 51
267.084
  0
ARC
  8
APS_GEOMETRY
 10
803.73
 20
-218.261
 40
28.273
 50
267.084
 51
270.0
  0
LINE
  8
APS_GEOMETRY
 10
847.148
 11
863.957
 20
-246.534
 21
-246.534
  0
ARC
  8
APS_GEOMETRY
 10
863.957
 20
-34.815
 40
211.72
 50
270.0
 51
270.69
  0
ARC
  8
APS_GEOMETRY
 10
865.151
 20
-133.871
 40
112.656
 50
270.69
 51
271.637
  0
ARC
  8
APS_GEOMETRY
 10
866.156
 20
-169.064
 40
77.448
 50
271.637
 51
273.013
  0
ARC
  8
APS_GEOMETRY
 10
868.607
 20
-215.627
 40
30.821
 50
273.013
 51
275.194
  0
ARC
  8
APS_GEOMETRY
 10
869.214
 20
-222.308
 40
24.112
 50
275.194
 51
280.756
  0
ARC
  8
APS_GEOMETRY
 10
869.328
 20
-222.91
 40
23.5
 50
280.756
 51
286.39
  0
ARC
  8
APS_GEOMETRY
 10
877.942
 20
-252.394
 40
7.217
 50
100.305
 51
105.945
  0
ARC
  8
APS_GEOMETRY
 10
877.039
 20
-247.425
 40
2.166
 50
90.0
 51
100.305
  0
ARC
  8
APS_GEOMETRY
 10
877.039
 20
-248.198
 40
2.94
 50
58.946
 51
90.0
  0
ARC
  8
APS_GEOMETRY
 10
875.914
 20
-250.066
 40
5.119
 50
35.538
 51
58.946
  0
ARC
  8
APS_GEOMETRY
 10
871.526
 20
-253.294
 40
10.568
 50
16.699
 51
35.952
  0
ARC
  8
APS_GEOMETRY
 10
868.224
 20
-254.285
 40
14.014
 50
360.0
 51
16.699
  0
ARC
  8
APS_GEOMETRY
 10
874.374
 20
-254.285
 40
7.864
 50
344.982
 51
360.0
  0
ARC
  8
APS_GEOMETRY
 10
878.149
 20
-255.297
 40
3.956
 50
323.746
 51
344.982
  0
ARC
  8
APS_GEOMETRY
 10
878.988
 20
-255.913
 40
2.916
 50
296.114
 51
323.746
  0
ARC
  8
APS_GEOMETRY
 10
878.837
 20
-255.605
 40
3.258
 50
270.0
 51
296.114
  0
ARC
  8
APS_GEOMETRY
 10
878.837
 20
-254.779
 40
4.084
 50
255.311
 51
270.0
  0
ARC
  8
APS_GEOMETRY
 10
878.291
 20
-256.862
 40
1.931
 50
233.881
 51
255.311
  0
ARC
  8
APS_GEOMETRY
 10
878.866
 20
-256.074
 40
2.906
 50
219.289
 51
233.881
  0
ARC
  8
APS_GEOMETRY
 10
890.396
 20
-246.641
 40
17.803
 50
213.408
 51
219.289
  0
ARC
  8
APS_GEOMETRY
 10
868.795
 20
-260.869
 40
8.063
 50
33.294
 51
51.246
  0
ARC
  8
APS_GEOMETRY
 10
869.893
 20
-259.501
 40
6.309
 50
51.246
 51
71.565
  0
ARC
  8
APS_GEOMETRY
 10
869.167
 20
-261.679
 40
8.604
 50
71.565
 51
79.278
  0
ARC
  8
APS_GEOMETRY
 10
866.839
 20
-273.974
 40
21.118
 50
79.278
 51
84.2
  0
ARC
  8
APS_GEOMETRY
 10
865.846
 20
-283.753
 40
30.947
 50
84.2
 51
87.567
  0
ARC
  8
APS_GEOMETRY
 10
864.644
 20
-312.031
 40
59.251
 50
87.567
 51
90.0
  0
ARC
  8
APS_GEOMETRY
 10
864.644
 20
-269.436
 40
16.656
 50
90.0
 51
96.374
  0
ARC
  8
APS_GEOMETRY
 10
863.538
 20
-259.54
 40
6.698
 50
96.374
 51
106.434
  0
ARC
  8
APS_GEOMETRY
 10
862.753
 20
-256.877
 40
3.921
 50
106.434
 51
123.056
  0
ARC
  8
APS_GEOMETRY
 10
861.526
 20
-254.992
 40
1.673
 50
123.056
 51
148.627
  0
ARC
  8
APS_GEOMETRY
 10
862.647
 20
-255.627
 40
2.96
 50
149.421
 51
165.28
  0
ARC
  8
APS_GEOMETRY
 10
865.875
 20
-256.475
 40
6.298
 50
165.28
 51
176.135
  0
ARC
  8
APS_GEOMETRY
 10
875.118
 20
-257.1
 40
15.562
 50
176.135
 51
178.367
  0
ARC
  8
APS_GEOMETRY
 10
960.624
 20
-259.538
 40
101.103
 50
178.367
 51
179.242
  0
ARC
  8
APS_GEOMETRY
 10
1048.992
 20
-260.707
 40
189.479
 50
179.242
 51
179.709
  0
ARC
  8
APS_GEOMETRY
 10
1349.641
 20
-262.232
 40
490.132
 50
179.709
 51
180.0
  0
ARC
  8
APS_GEOMETRY
 10
866.6
 20
-262.232
 40
7.091
 50
180.0
 51
195.027
  0
ARC
  8
APS_GEOMETRY
 10
860.801
 20
-263.789
 40
1.086
 50
195.027
 51
234.058
  0
ARC
  8
APS_GEOMETRY
 10
860.858
 20
-263.711
 40
1.183
 50
234.058
 51
253.191
  0
ARC
  8
APS_GEOMETRY
 10
862.095
 20
-259.615
 40
5.461
 50
253.191
 51
262.063
  0
ARC
  8
APS_GEOMETRY
 10
862.729
 20
-255.07
 40
10.05
 50
262.063
 51
266.949
  0
ARC
  8
APS_GEOMETRY
 10
863.565
 20
-239.387
 40
25.755
 50
266.949
 51
270.0
  0
ARC
  8
APS_GEOMETRY
 10
863.565
 20
-260.421
 40
4.722
 50
270.0
 51
286.007
  0
ARC
  8
APS_GEOMETRY
 10
864.391
 20
-263.301
 40
1.725
 50
286.007
 51
312.647
  0
ARC
  8
APS_GEOMETRY
 10
864.374
 20
-263.283
 40
1.75
 50
312.647
 51
338.993
  0
ARC
  8
APS_GEOMETRY
 10
860.799
 20
-261.91
 40
5.58
 50
338.993
 51
353.66
  0
ARC
  8
APS_GEOMETRY
 10
897.718
 20
-266.313
 40
31.601
 50
169.663
 51
173.118
  0
ARC
  8
APS_GEOMETRY
 10
871.329
 20
-261.499
 40
4.776
 50
160.769
 51
169.663
  0
ARC
  8
APS_GEOMETRY
 10
869.121
 20
-260.729
 40
2.439
 50
143.746
 51
160.769
  0
ARC
  8
APS_GEOMETRY
 10
869.655
 20
-261.12
 40
3.1
 50
128.66
 51
143.746
  0
ARC
  8
APS_GEOMETRY
 10
869.299
 20
-260.544
 40
2.429
 50
110.171
 51
130.601
  0
ARC
  8
APS_GEOMETRY
 10
869.321
 20
-260.603
 40
2.492
 50
90.0
 51
110.171
  0
ARC
  8
APS_GEOMETRY
 10
869.321
 20
-260.638
 40
2.527
 50
61.22
 51
90.0
  0
ARC
  8
APS_GEOMETRY
 10
868.88
 20
-261.441
 40
3.443
 50
36.634
 51
61.22
  0
ARC
  8
APS_GEOMETRY
 10
868.465
 20
-261.687
 40
3.923
 50
19.103
 51
35.91
  0
ARC
  8
APS_GEOMETRY
 10
855.67
 20
-266.119
 40
17.463
 50
11.16
 51
19.103
  0
ARC
  8
APS_GEOMETRY
 10
848.985
 20
-267.437
 40
24.277
 50
5.396
 51
11.16
  0
ARC
  8
APS_GEOMETRY
 10
845.585
 20
-267.759
 40
27.692
 50
0.0
 51
5.396
  0
ARC
  8
APS_GEOMETRY
 10
846.067
 20
-267.759
 40
27.21
 50
349.287
 51
0.0
  0
ARC
  8
APS_GEOMETRY
 10
859.425
 20
-270.286
 40
13.615
 50
334.12
 51
349.287
  0
ARC
  8
APS_GEOMETRY
 10
868.627
 20
-274.732
 40
3.396
 50
303.53
 51
333.853
  0
ARC
  8
APS_GEOMETRY
 10
868.961
 20
-275.236
 40
2.791
 50
270.0
 51
303.53
  0
ARC
  8
APS_GEOMETRY
 10
868.961
 20
-275.106
 40
2.922
 50
249.578
 51
270.0
  0
ARC
  8
APS_GEOMETRY
 10
868.339
 20
-276.775
 40
1.14
 50
216.607
 51
249.578
  0
ARC
  8
APS_GEOMETRY
 10
868.934
 20
-276.334
 40
1.881
 50
195.422
 51
216.607
  0
ARC
  8
APS_GEOMETRY
 10
879.196
 20
-273.503
 40
12.526
 50
187.253
 51
195.422
  0
ARC
  8
APS_GEOMETRY
 10
862.623
 20
-275.635
 40
4.183
 50
7.561
 51
49.434
  0
ARC
  8
APS_GEOMETRY
 10
862.453
 20
-275.833
 40
4.445
 50
49.434
 51
90.0
  0
ARC
  8
APS_GEOMETRY
 10
862.453
 20
-274.379
 40
2.991
 50
90.0
 51
115.224
  0
ARC
  8
APS_GEOMETRY
 10
861.861
 20
-273.124
 40
1.603
 50
115.224
 51
149.931
  0
ARC
  8
APS_GEOMETRY
 10
862.931
 20
-273.743
 40
2.838
 50
149.931
 51
171.111
  0
ARC
  8
APS_GEOMETRY
 10
875.898
 20
-275.771
 40
15.963
 50
171.111
 51
180.0
  0
ARC
  8
APS_GEOMETRY
 10
888.674
 20
-275.771
 40
28.739
 50
180.0
 51
183.062
  0
ARC
  8
APS_GEOMETRY
 10
932.661
 20
-273.418
 40
72.789
 50
183.062
 51
184.986
  0
ARC
  8
APS_GEOMETRY
 10
909.589
 20
-275.431
 40
49.629
 50
184.986
 51
187.804
  0
ARC
  8
APS_GEOMETRY
 10
865.888
 20
-281.42
 40
5.52
 50
187.804
 51
196.26
  0
ARC
  8
APS_GEOMETRY
 10
862.034
 20
-282.58
 40
1.496
 50
194.931
 51
230.024
  0
ARC
  8
APS_GEOMETRY
 10
863.015
 20
-281.41
 40
3.022
 50
230.024
 51
254.511
  0
ARC
  8
APS_GEOMETRY
 10
864.206
 20
-277.11
 40
7.485
 50
254.511
 51
265.219
  0
ARC
  8
APS_GEOMETRY
 10
866.704
 20
-247.243
 40
37.456
 50
265.219
 51
270.0
  0
ARC
  8
APS_GEOMETRY
 10
866.704
 20
-251.202
 40
33.497
 50
270.0
 51
274.186
  0
ARC
  8
APS_GEOMETRY
 10
867.723
 20
-265.119
 40
19.543
 50
274.186
 51
279.668
  0
ARC
  8
APS_GEOMETRY
 10
868.559
 20
-270.027
 40
14.564
 50
279.668
 51
286.991
  0
ARC
  8
APS_GEOMETRY
 10
870.472
 20
-276.287
 40
8.018
 50
286.991
 51
296.866
  0
ARC
  8
APS_GEOMETRY
 10
870.869
 20
-277.071
 40
7.139
 50
296.866
 51
318.366
  0
ARC
  8
APS_GEOMETRY
 10
866.87
 20
-273.517
 40
12.489
 50
318.366
 51
334.581
  0
ARC
  8
APS_GEOMETRY
 10
893.2
 20
-286.143
 40
16.711
 50
147.08
 51
154.231
  0
ARC
  8
APS_GEOMETRY
 10
882.193
 20
-279.017
 40
3.599
 50
131.634
 51
147.08
  0
ARC
  8
APS_GEOMETRY
 10
881.373
 20
-278.094
 40
2.364
 50
108.875
 51
131.634
  0
ARC
  8
APS_GEOMETRY
 10
881.715
 20
-279.096
 40
3.423
 50
90.0
 51
108.875
  0
ARC
  8
APS_GEOMETRY
 10
881.715
 20
-278.4
 40
2.727
 50
62.628
 51
90.0
  0
ARC
  8
APS_GEOMETRY
 10
881.543
 20
-278.734
 40
3.103
 50
36.995
 51
62.628
  0
ARC
  8
APS_GEOMETRY
 10
880.769
 20
-279.316
 40
4.071
 50
16.728
 51
36.995
  0
ARC
  8
APS_GEOMETRY
 10
878.964
 20
-279.859
 40
5.956
 50
360.0
 51
16.728
  0
ARC
  8
APS_GEOMETRY
 10
875.388
 20
-279.859
 40
9.532
 50
348.323
 51
360.0
  0
ARC
  8
APS_GEOMETRY
 10
861.079
 20
-276.902
 40
24.143
 50
340.994
 51
348.323
  0
ARC
  8
APS_GEOMETRY
 10
857.685
 20
-275.733
 40
27.733
 50
334.592
 51
340.994
  0
ARC
  8
APS_GEOMETRY
 10
863.609
 20
-278.547
 40
21.175
 50
327.265
 51
334.592
  0
ARC
  8
APS_GEOMETRY
 10
870.489
 20
-282.602
 40
13.198
 50
320.133
 51
325.923
  0
ARC
  8
APS_GEOMETRY
 10
878.492
 20
-289.286
 40
2.771
 50
307.476
 51
320.133
  0
ARC
  8
APS_GEOMETRY
 10
879.193
 20
-290.2
 40
1.619
 50
286.429
 51
307.476
  0
ARC
  8
APS_GEOMETRY
 10
878.903
 20
-289.216
 40
2.646
 50
270.0
 51
286.429
  0
ARC
  8
APS_GEOMETRY
 10
878.903
 20
-286.157
 40
5.704
 50
263.774
 51
270.0
  0
ARC
  8
APS_GEOMETRY
 10
880.571
 20
-270.86
 40
21.092
 50
260.538
 51
263.774
  0
ARC
  8
APS_GEOMETRY
 10
873.102
 20
-313.006
 40
21.713
 50
79.38
 51
84.987
  0
ARC
  8
APS_GEOMETRY
 10
869.865
 20
-349.917
 40
58.766
 50
84.987
 51
88.394
  0
LINE
  8
APS_GEOMETRY
 10
871.512
 11
843.779
 20
-291.174
 21
-291.174
  0
ARC
  8
APS_GEOMETRY
 10
843.779
 20
-285.371
 40
5.804
 50
254.103
 51
270.0
  0
ARC
  8
APS_GEOMETRY
 10
842.962
 20
-288.241
 40
2.82
 50
231.216
 51
254.103
  0
ARC
  8
APS_GEOMETRY
 10
842.626
 20
-288.658
 40
2.284
 50
203.795
 51
231.216
  0
ARC
  8
APS_GEOMETRY
 10
843.298
 20
-288.362
 40
3.019
 50
180.0
 51
203.795
  0
ARC
  8
APS_GEOMETRY
 10
843.553
 20
-288.362
 40
3.273
 50
164.055
 51
180.0
  0
ARC
  8
APS_GEOMETRY
 10
841.536
 20
-287.786
 40
1.175
 50
137.291
 51
164.055
  0
ARC
  8
APS_GEOMETRY
 10
842.143
 20
-288.346
 40
2.001
 50
120.964
 51
137.291
  0
ARC
  8
APS_GEOMETRY
 10
848.644
 20
-299.18
 40
14.637
 50
114.944
 51
120.964
  0
ARC
  8
APS_GEOMETRY
 10
840.528
 20
-281.426
 40
4.886
 50
293.429
 51
305.72
  0
ARC
  8
APS_GEOMETRY
 10
841.872
 20
-283.295
 40
2.584
 50
305.72
 51
322.651
  0
ARC
  8
APS_GEOMETRY
 10
841.664
 20
-283.136
 40
2.846
 50
322.651
 51
338.11
  0
ARC
  8
APS_GEOMETRY
 10
837.606
 20
-281.505
 40
7.219
 50
338.11
 51
347.8
  0
ARC
  8
APS_GEOMETRY
 10
812.405
 20
-275.982
 40
33.018
 50
347.672
 51
352.051
  0
ARC
  8
APS_GEOMETRY
 10
788.013
 20
-272.576
 40
57.647
 50
352.051
 51
355.365
  0
ARC
  8
APS_GEOMETRY
 10
771.586
 20
-271.244
 40
74.128
 50
355.365
 51
357.943
  0
ARC
  8
APS_GEOMETRY
 10
729.176
 20
-269.721
 40
116.566
 50
357.943
 51
0.0
  0
ARC
  8
APS_GEOMETRY
 10
680.224
 20
-269.721
 40
165.518
 50
0.0
 51
2.183
  0
ARC
  8
APS_GEOMETRY
 10
779.199
 20
-265.947
 40
66.471
 50
2.183
 51
5.629
  0
ARC
  8
APS_GEOMETRY
 10
808.683
 20
-263.041
 40
36.844
 50
5.629
 51
11.805
  0
ARC
  8
APS_GEOMETRY
 10
837.299
 20
-257.061
 40
7.61
 50
11.805
 51
25.419
  0
ARC
  8
APS_GEOMETRY
 10
841.002
 20
-255.379
 40
3.544
 50
26.565
 51
38.157
  0
ARC
  8
APS_GEOMETRY
 10
842.647
 20
-254.087
 40
1.452
 50
38.157
 51
56.31
  0
ARC
  8
APS_GEOMETRY
 10
842.299
 20
-254.608
 40
2.079
 50
56.31
 51
69.193
  0
ARC
  8
APS_GEOMETRY
 10
837.419
 20
-267.45
 40
15.817
 50
69.193
 51
73.856
  0
ARC
  8
APS_GEOMETRY
 10
842.567
 20
-249.743
 40
2.623
 50
216.87
 51
253.393
  0
ARC
  8
APS_GEOMETRY
 10
842.529
 20
-249.772
 40
2.576
 50
180.0
 51
216.87
  0
ARC
  8
APS_GEOMETRY
 10
843.091
 20
-249.772
 40
3.138
 50
161.565
 51
180.0
  0
ARC
  8
APS_GEOMETRY
 10
842.977
 20
-249.734
 40
3.018
 50
142.765
 51
161.565
  0
ARC
  8
APS_GEOMETRY
 10
842.905
 20
-249.679
 40
2.928
 50
123.425
 51
142.765
  0
ARC
  8
APS_GEOMETRY
 10
842.971
 20
-249.779
 40
3.047
 50
104.47
 51
123.425
  0
ARC
  8
APS_GEOMETRY
 10
843.551
 20
-252.641
 40
5.965
 50
96.724
 51
102.995
  0
ARC
  8
APS_GEOMETRY
 10
845.352
 20
-267.916
 40
21.346
 50
93.411
 51
96.724
  0
ARC
  8
APS_GEOMETRY
 10
846.152
 20
-281.337
 40
34.791
 50
91.375
 51
93.411
  0
ARC
  8
APS_GEOMETRY
 10
847.148
 20
-322.837
 40
76.303
 50
90.0
 51
91.375
  0
LINE
  8
APS_GEOMETRY
 10
0.0
 11
807.0
 20
0.0
 21
0.0
  0
LINE
  8
APS_GEOMETRY
 10
114.0
 11
114.0
 20
2099.0
 21
0.0
  0
LINE
  8
APS_GEOMETRY
 10
114.0
 11
693.0
 20
114.0
 21
114.0
  0
LINE
  8
APS_GEOMETRY
 10
693.0
 11
693.0
 20
0.0
 21
2099.0
  0
LINE
  8
APS_GEOMETRY
 10
693.0
 11
114.0
 20
1985.0
 21
1985.0
  0
LINE
  8
APS_GEOMETRY
 10
403.5
 11
403.5
 20
1985.0
 21
114.0
  0
LINE
  8
APS_GEOMETRY
 10
114.0
 11
693.0
 20
1517.25
 21
1517.25
  0
LINE
  8
APS_GEOMETRY
 10
114.0
 11
693.0
 20
1049.5
 21
1049.5
  0
LINE
  8
APS_GEOMETRY
 10
114.0
 11
693.0
 20
581.75
 21
581.75
  0
LINE
  8
APS_GEOMETRY
 10
383.5
 11
383.5
 20
1517.25
 21
1985.0
  0
LINE
  8
APS_GEOMETRY
 10
363.5
 11
363.5
 20
1985.0
 21
1517.25
  0
LINE
  8
APS_GEOMETRY
 10
343.5
 11
343.5
 20
1517.25
 21
1985.0
  0
LINE
  8
APS_GEOMETRY
 10
323.5
 11
323.5
 20
1985.0
 21
1517.25
  0
LINE
  8
APS_GEOMETRY
 10
303.5
 11
303.5
 20
1517.25
 21
1985.0
  0
LINE
  8
APS_GEOMETRY
 10
283.5
 11
283.5
 20
1985.0
 21
1517.25
  0
LINE
  8
APS_GEOMETRY
 10
263.5
 11
263.5
 20
1517.25
 21
1985.0
  0
LINE
  8
APS_GEOMETRY
 10
243.5
 11
243.5
 20
1985.0
 21
1517.25
  0
LINE
  8
APS_GEOMETRY
 10
223.5
 11
223.5
 20
1517.25
 21
1985.0
  0
LINE
  8
APS_GEOMETRY
 10
203.5
 11
203.5
 20
1985.0
 21
1517.25
  0
LINE
  8
APS_GEOMETRY
 10
183.5
 11
183.5
 20
1517.25
 21
1985.0
  0
LINE
  8
APS_GEOMETRY
 10
163.5
 11
163.5
 20
1985.0
 21
1517.25
  0
LINE
  8
APS_GEOMETRY
 10
143.5
 11
143.5
 20
1517.25
 21
1985.0
  0
LINE
  8
APS_GEOMETRY
 10
123.5
 11
123.5
 20
1985.0
 21
1517.25
  0
LINE
  8
APS_GEOMETRY
 10
673.0
 11
673.0
 20
1049.5
 21
1517.25
  0
LINE
  8
APS_GEOMETRY
 10
653.0
 11
653.0
 20
1517.25
 21
1049.5
  0
LINE
  8
APS_GEOMETRY
 10
633.0
 11
633.0
 20
1049.5
 21
1517.25
  0
LINE
  8
APS_GEOMETRY
 10
613.0
 11
613.0
 20
1517.25
 21
1049.5
  0
LINE
  8
APS_GEOMETRY
 10
593.0
 11
593.0
 20
1049.5
 21
1517.25
  0
LINE
  8
APS_GEOMETRY
 10
573.0
 11
573.0
 20
1517.25
 21
1049.5
  0
LINE
  8
APS_GEOMETRY
 10
553.0
 11
553.0
 20
1049.5
 21
1517.25
  0
LINE
  8
APS_GEOMETRY
 10
533.0
 11
533.0
 20
1517.25
 21
1049.5
  0
LINE
  8
APS_GEOMETRY
 10
513.0
 11
513.0
 20
1049.5
 21
1517.25
  0
LINE
  8
APS_GEOMETRY
 10
493.0
 11
493.0
 20
1517.25
 21
1049.5
  0
LINE
  8
APS_GEOMETRY
 10
473.0
 11
473.0
 20
1049.5
 21
1517.25
  0
LINE
  8
APS_GEOMETRY
 10
453.0
 11
453.0
 20
1517.25
 21
1049.5
  0
LINE
  8
APS_GEOMETRY
 10
433.0
 11
433.0
 20
1049.5
 21
1517.25
  0
LINE
  8
APS_GEOMETRY
 10
413.0
 11
413.0
 20
1517.25
 21
1049.5
  0
LINE
  8
APS_GEOMETRY
 10
383.5
 11
383.5
 20
581.75
 21
1049.5
  0
LINE
  8
APS_GEOMETRY
 10
363.5
 11
363.5
 20
1049.5
 21
581.75
  0
LINE
  8
APS_GEOMETRY
 10
343.5
 11
343.5
 20
581.75
 21
1049.5
  0
LINE
  8
APS_GEOMETRY
 10
323.5
 11
323.5
 20
1049.5
 21
581.75
  0
LINE
  8
APS_GEOMETRY
 10
303.5
 11
303.5
 20
581.75
 21
1049.5
  0
LINE
  8
APS_GEOMETRY
 10
283.5
 11
283.5
 20
1049.5
 21
581.75
  0
LINE
  8
APS_GEOMETRY
 10
263.5
 11
263.5
 20
581.75
 21
1049.5
  0
LINE
  8
APS_GEOMETRY
 10
243.5
 11
243.5
 20
1049.5
 21
581.75
  0
LINE
  8
APS_GEOMETRY
 10
223.5
 11
223.5
 20
581.75
 21
1049.5
  0
LINE
  8
APS_GEOMETRY
 10
203.5
 11
203.5
 20
1049.5
 21
581.75
  0
LINE
  8
APS_GEOMETRY
 10
183.5
 11
183.5
 20
581.75
 21
1049.5
  0
LINE
  8
APS_GEOMETRY
 10
163.5
 11
163.5
 20
1049.5
 21
581.75
  0
LINE
  8
APS_GEOMETRY
 10
143.5
 11
143.5
 20
581.75
 21
1049.5
  0
LINE
  8
APS_GEOMETRY
 10
123.5
 11
123.5
 20
1049.5
 21
581.75
  0
LINE
  8
APS_GEOMETRY
 10
673.0
 11
673.0
 20
114.0
 21
581.75
  0
LINE
  8
APS_GEOMETRY
 10
653.0
 11
653.0
 20
581.75
 21
114.0
  0
LINE
  8
APS_GEOMETRY
 10
633.0
 11
633.0
 20
114.0
 21
581.75
  0
LINE
  8
APS_GEOMETRY
 10
613.0
 11
613.0
 20
581.75
 21
114.0
  0
LINE
  8
APS_GEOMETRY
 10
593.0
 11
593.0
 20
114.0
 21
581.75
  0
LINE
  8
APS_GEOMETRY
 10
573.0
 11
573.0
 20
581.75
 21
114.0
  0
LINE
  8
APS_GEOMETRY
 10
553.0
 11
553.0
 20
114.0
 21
581.75
  0
LINE
  8
APS_GEOMETRY
 10
533.0
 11
533.0
 20
581.75
 21
114.0
  0
LINE
  8
APS_GEOMETRY
 10
513.0
 11
513.0
 20
114.0
 21
581.75
  0
LINE
  8
APS_GEOMETRY
 10
493.0
 11
493.0
 20
581.75
 21
114.0
  0
LINE
  8
APS_GEOMETRY
 10
473.0
 11
473.0
 20
114.0
 21
581.75
  0
LINE
  8
APS_GEOMETRY
 10
453.0
 11
453.0
 20
581.75
 21
114.0
  0
LINE
  8
APS_GEOMETRY
 10
433.0
 11
433.0
 20
114.0
 21
581.75
  0
LINE
  8
APS_GEOMETRY
 10
413.0
 11
413.0
 20
581.75
 21
114.0
  0
LINE
  8
APS_GEOMETRY
 10
403.5
 11
693.0
 20
1537.25
 21
1537.25
  0
LINE
  8
APS_GEOMETRY
 10
693.0
 11
403.5
 20
1557.25
 21
1557.25
  0
LINE
  8
APS_GEOMETRY
 10
403.5
 11
693.0
 20
1577.25
 21
1577.25
  0
LINE
  8
APS_GEOMETRY
 10
693.0
 11
403.5
 20
1597.25
 21
1597.25
  0
LINE
  8
APS_GEOMETRY
 10
403.5
 11
693.0
 20
1617.25
 21
1617.25
  0
LINE
  8
APS_GEOMETRY
 10
693.0
 11
403.5
 20
1637.25
 21
1637.25
  0
LINE
  8
APS_GEOMETRY
 10
403.5
 11
693.0
 20
1657.25
 21
1657.25
  0
LINE
  8
APS_GEOMETRY
 10
693.0
 11
403.5
 20
1677.25
 21
1677.25
  0
LINE
  8
APS_GEOMETRY
 10
403.5
 11
693.0
 20
1697.25
 21
1697.25
  0
LINE
  8
APS_GEOMETRY
 10
693.0
 11
403.5
 20
1717.25
 21
1717.25
  0
LINE
  8
APS_GEOMETRY
 10
403.5
 11
693.0
 20
1737.25
 21
1737.25
  0
LINE
  8
APS_GEOMETRY
 10
693.0
 11
403.5
 20
1757.25
 21
1757.25
  0
LINE
  8
APS_GEOMETRY
 10
403.5
 11
693.0
 20
1777.25
 21
1777.25
  0
LINE
  8
APS_GEOMETRY
 10
693.0
 11
403.5
 20
1797.25
 21
1797.25
  0
LINE
  8
APS_GEOMETRY
 10
403.5
 11
693.0
 20
1817.25
 21
1817.25
  0
LINE
  8
APS_GEOMETRY
 10
693.0
 11
403.5
 20
1837.25
 21
1837.25
  0
LINE
  8
APS_GEOMETRY
 10
403.5
 11
693.0
 20
1857.25
 21
1857.25
  0
LINE
  8
APS_GEOMETRY
 10
693.0
 11
403.5
 20
1877.25
 21
1877.25
  0
LINE
  8
APS_GEOMETRY
 10
403.5
 11
693.0
 20
1897.25
 21
1897.25
  0
LINE
  8
APS_GEOMETRY
 10
693.0
 11
403.5
 20
1917.25
 21
1917.25
  0
LINE
  8
APS_GEOMETRY
 10
403.5
 11
693.0
 20
1937.25
 21
1937.25
  0
LINE
  8
APS_GEOMETRY
 10
693.0
 11
403.5
 20
1957.25
 21
1957.25
  0
LINE
  8
APS_GEOMETRY
 10
403.5
 11
693.0
 20
1977.25
 21
1977.25
  0
LINE
  8
APS_GEOMETRY
 10
114.0
 11
403.5
 20
1069.5
 21
1069.5
  0
LINE
  8
APS_GEOMETRY
 10
403.5
 11
114.0
 20
1089.5
 21
1089.5
  0
LINE
  8
APS_GEOMETRY
 10
114.0
 11
403.5
 20
1109.5
 21
1109.5
  0
LINE
  8
APS_GEOMETRY
 10
403.5
 11
114.0
 20
1129.5
 21
1129.5
  0
LINE
  8
APS_GEOMETRY
 10
114.0
 11
403.5
 20
1149.5
 21
1149.5
  0
LINE
  8
APS_GEOMETRY
 10
403.5
 11
114.0
 20
1169.5
 21
1169.5
  0
LINE
  8
APS_GEOMETRY
 10
114.0
 11
403.5
 20
1189.5
 21
1189.5
  0
LINE
  8
APS_GEOMETRY
 10
403.5
 11
114.0
 20
1209.5
 21
1209.5
  0
LINE
  8
APS_GEOMETRY
 10
114.0
 11
403.5
 20
1229.5
 21
1229.5
  0
LINE
  8
APS_GEOMETRY
 10
403.5
 11
114.0
 20
1249.5
 21
1249.5
  0
LINE
  8
APS_GEOMETRY
 10
114.0
 11
403.5
 20
1269.5
 21
1269.5
  0
LINE
  8
APS_GEOMETRY
 10
403.5
 11
114.0
 20
1289.5
 21
1289.5
  0
LINE
  8
APS_GEOMETRY
 10
114.0
 11
403.5
 20
1309.5
 21
1309.5
  0
LINE
  8
APS_GEOMETRY
 10
403.5
 11
114.0
 20
1329.5
 21
1329.5
  0
LINE
  8
APS_GEOMETRY
 10
114.0
 11
403.5
 20
1349.5
 21
1349.5
  0
LINE
  8
APS_GEOMETRY
 10
403.5
 11
114.0
 20
1369.5
 21
1369.5
  0
LINE
  8
APS_GEOMETRY
 10
114.0
 11
403.5
 20
1389.5
 21
1389.5
  0
LINE
  8
APS_GEOMETRY
 10
403.5
 11
114.0
 20
1409.5
 21
1409.5
  0
LINE
  8
APS_GEOMETRY
 10
114.0
 11
403.5
 20
1429.5
 21
1429.5
  0
LINE
  8
APS_GEOMETRY
 10
403.5
 11
114.0
 20
1449.5
 21
1449.5
  0
LINE
  8
APS_GEOMETRY
 10
114.0
 11
403.5
 20
1469.5
 21
1469.5
  0
LINE
  8
APS_GEOMETRY
 10
403.5
 11
114.0
 20
1489.5
 21
1489.5
  0
LINE
  8
APS_GEOMETRY
 10
114.0
 11
403.5
 20
1509.5
 21
1509.5
  0
LINE
  8
APS_GEOMETRY
 10
403.5
 11
693.0
 20
601.75
 21
601.75
  0
LINE
  8
APS_GEOMETRY
 10
693.0
 11
403.5
 20
621.75
 21
621.75
  0
LINE
  8
APS_GEOMETRY
 10
403.5
 11
693.0
 20
641.75
 21
641.75
  0
LINE
  8
APS_GEOMETRY
 10
693.0
 11
403.5
 20
661.75
 21
661.75
  0
LINE
  8
APS_GEOMETRY
 10
403.5
 11
693.0
 20
681.75
 21
681.75
  0
LINE
  8
APS_GEOMETRY
 10
693.0
 11
403.5
 20
701.75
 21
701.75
  0
LINE
  8
APS_GEOMETRY
 10
403.5
 11
693.0
 20
721.75
 21
721.75
  0
LINE
  8
APS_GEOMETRY
 10
693.0
 11
403.5
 20
741.75
 21
741.75
  0
LINE
  8
APS_GEOMETRY
 10
403.5
 11
693.0
 20
761.75
 21
761.75
  0
LINE
  8
APS_GEOMETRY
 10
693.0
 11
403.5
 20
781.75
 21
781.75
  0
LINE
  8
APS_GEOMETRY
 10
403.5
 11
693.0
 20
801.75
 21
801.75
  0
LINE
  8
APS_GEOMETRY
 10
693.0
 11
403.5
 20
821.75
 21
821.75
  0
LINE
  8
APS_GEOMETRY
 10
403.5
 11
693.0
 20
841.75
 21
841.75
  0
LINE
  8
APS_GEOMETRY
 10
693.0
 11
403.5
 20
861.75
 21
861.75
  0
LINE
  8
APS_GEOMETRY
 10
403.5
 11
693.0
 20
881.75
 21
881.75
  0
LINE
  8
APS_GEOMETRY
 10
693.0
 11
403.5
 20
901.75
 21
901.75
  0
LINE
  8
APS_GEOMETRY
 10
403.5
 11
693.0
 20
921.75
 21
921.75
  0
LINE
  8
APS_GEOMETRY
 10
693.0
 11
403.5
 20
941.75
 21
941.75
  0
LINE
  8
APS_GEOMETRY
 10
403.5
 11
693.0
 20
961.75
 21
961.75
  0
LINE
  8
APS_GEOMETRY
 10
693.0
 11
403.5
 20
981.75
 21
981.75
  0
LINE
  8
APS_GEOMETRY
 10
403.5
 11
693.0
 20
1001.75
 21
1001.75
  0
LINE
  8
APS_GEOMETRY
 10
693.0
 11
403.5
 20
1021.75
 21
1021.75
  0
LINE
  8
APS_GEOMETRY
 10
403.5
 11
693.0
 20
1041.75
 21
1041.75
  0
LINE
  8
APS_GEOMETRY
 10
114.0
 11
403.5
 20
134.0
 21
134.0
  0
LINE
  8
APS_GEOMETRY
 10
403.5
 11
114.0
 20
154.0
 21
154.0
  0
LINE
  8
APS_GEOMETRY
 10
114.0
 11
403.5
 20
174.0
 21
174.0
  0
LINE
  8
APS_GEOMETRY
 10
403.5
 11
114.0
 20
194.0
 21
194.0
  0
LINE
  8
APS_GEOMETRY
 10
114.0
 11
403.5
 20
214.0
 21
214.0
  0
LINE
  8
APS_GEOMETRY
 10
403.5
 11
114.0
 20
234.0
 21
234.0
  0
LINE
  8
APS_GEOMETRY
 10
114.0
 11
403.5
 20
254.0
 21
254.0
  0
LINE
  8
APS_GEOMETRY
 10
403.5
 11
114.0
 20
274.0
 21
274.0
  0
LINE
  8
APS_GEOMETRY
 10
114.0
 11
403.5
 20
294.0
 21
294.0
  0
LINE
  8
APS_GEOMETRY
 10
403.5
 11
114.0
 20
314.0
 21
314.0
  0
LINE
  8
APS_GEOMETRY
 10
114.0
 11
403.5
 20
334.0
 21
334.0
  0
LINE
  8
APS_GEOMETRY
 10
403.5
 11
114.0
 20
354.0
 21
354.0
  0
LINE
  8
APS_GEOMETRY
 10
114.0
 11
403.5
 20
374.0
 21
374.0
  0
LINE
  8
APS_GEOMETRY
 10
403.5
 11
114.0
 20
394.0
 21
394.0
  0
LINE
  8
APS_GEOMETRY
 10
114.0
 11
403.5
 20
414.0
 21
414.0
  0
LINE
  8
APS_GEOMETRY
 10
403.5
 11
114.0
 20
434.0
 21
434.0
  0
LINE
  8
APS_GEOMETRY
 10
114.0
 11
403.5
 20
454.0
 21
454.0
  0
LINE
  8
APS_GEOMETRY
 10
403.5
 11
114.0
 20
474.0
 21
474.0
  0
LINE
  8
APS_GEOMETRY
 10
114.0
 11
403.5
 20
494.0
 21
494.0
  0
LINE
  8
APS_GEOMETRY
 10
403.5
 11
114.0
 20
514.0
 21
514.0
  0
LINE
  8
APS_GEOMETRY
 10
114.0
 11
403.5
 20
534.0
 21
534.0
  0
LINE
  8
APS_GEOMETRY
 10
403.5
 11
114.0
 20
554.0
 21
554.0
  0
LINE
  8
APS_GEOMETRY
 10
114.0
 11
403.5
 20
574.0
 21
574.0
  0
LINE
  8
APS_GEOMETRY
 10
1070.841
 11
1070.841
 20
0.0
 21
2099.0
  0
LINE
  8
APS_GEOMETRY
 10
1070.841
 11
1877.841
 20
2099.0
 21
2099.0
  0
LINE
  8
APS_GEOMETRY
 10
1877.841
 11
1877.841
 20
2099.0
 21
0.0
  0
CIRCLE
  8
COSTRUZIONI
 10
1817.841
 20
1040.0
 40
2.0
  0
LINE
  8
COSTRUZIONI
 10
1817.841
 11
1717.841
 20
1050.0
 21
1050.0
  0
LINE
  8
COSTRUZIONI
 10
1717.841
 11
1717.841
 20
1050.0
 21
1030.0
  0
LINE
  8
COSTRUZIONI
 10
1717.841
 11
1827.841
 20
1030.0
 21
1030.0
  0
LINE
  8
COSTRUZIONI
 10
1827.841
 11
1827.841
 20
1030.0
 21
1050.0
  0
LINE
  8
COSTRUZIONI
 10
1827.841
 11
1727.841
 20
1050.0
 21
1050.0
  0
ARC
  8
COSTRUZIONI
 10
1817.841
 20
939.0
 40
7.0
 50
180.0
 51
0.0
  0
LINE
  8
COSTRUZIONI
 10
1824.841
 11
1824.841
 20
939.0
 21
950.0
  0
ARC
  8
COSTRUZIONI
 10
1817.841
 20
950.0
 40
7.0
 50
0.0
 51
180.0
  0
LINE
  8
COSTRUZIONI
 10
1810.841
 11
1810.841
 20
950.0
 21
939.0
  0
CIRCLE
  8
COSTRUZIONI
 10
1817.841
 20
1040.0
 40
1.0
  0
LINE
  8
COSTRUZIONI
 10
1842.841
 11
1842.841
 20
919.5
 21
969.5
  0
LINE
  8
COSTRUZIONI
 10
1842.841
 11
1792.841
 20
969.5
 21
969.5
  0
LINE
  8
COSTRUZIONI
 10
1792.841
 11
1792.841
 20
969.5
 21
919.5
  0
LINE
  8
COSTRUZIONI
 10
1792.841
 11
1842.841
 20
919.5
 21
919.5
  0
LINE
  8
COSTRUZIONI
 10
1792.841
 11
1792.841
 20
1030.0
 21
1015.0
  0
LINE
  8
COSTRUZIONI
 10
1792.841
 11
1842.841
 20
1015.0
 21
1015.0
  0
LINE
  8
COSTRUZIONI
 10
1842.841
 11
1842.841
 20
1015.0
 21
1065.0
  0
LINE
  8
COSTRUZIONI
 10
1842.841
 11
1792.841
 20
1065.0
 21
1065.0
  0
LINE
  8
COSTRUZIONI
 10
1792.841
 11
1792.841
 20
1065.0
 21
1050.0
  0
LINE
  8
APS_GEOMETRY
 10
1877.841
 11
1070.841
 20
0.0
 21
0.0
  0
LINE
  8
APS_GEOMETRY
 10
1763.841
 11
1763.841
 20
2099.0
 21
0.0
  0
LINE
  8
APS_GEOMETRY
 10
1763.841
 11
1184.841
 20
114.0
 21
114.0
  0
LINE
  8
APS_GEOMETRY
 10
1184.841
 11
1184.841
 20
0.0
 21
2099.0
  0
LINE
  8
APS_GEOMETRY
 10
1184.841
 11
1763.841
 20
1985.0
 21
1985.0
  0
LINE
  8
APS_GEOMETRY
 10
1474.341
 11
1474.341
 20
1985.0
 21
114.0
  0
LINE
  8
APS_GEOMETRY
 10
1763.841
 11
1184.841
 20
1517.25
 21
1517.25
  0
LINE
  8
APS_GEOMETRY
 10
1763.841
 11
1184.841
 20
1049.5
 21
1049.5
  0
LINE
  8
APS_GEOMETRY
 10
1763.841
 11
1184.841
 20
581.75
 21
581.75
  0
LINE
  8
APS_GEOMETRY
 10
1494.341
 11
1494.341
 20
1517.25
 21
1985.0
  0
LINE
  8
APS_GEOMETRY
 10
1514.341
 11
1514.341
 20
1985.0
 21
1517.25
  0
LINE
  8
APS_GEOMETRY
 10
1534.341
 11
1534.341
 20
1517.25
 21
1985.0
  0
LINE
  8
APS_GEOMETRY
 10
1554.341
 11
1554.341
 20
1985.0
 21
1517.25
  0
LINE
  8
APS_GEOMETRY
 10
1574.341
 11
1574.341
 20
1517.25
 21
1985.0
  0
LINE
  8
APS_GEOMETRY
 10
1594.341
 11
1594.341
 20
1985.0
 21
1517.25
  0
LINE
  8
APS_GEOMETRY
 10
1614.341
 11
1614.341
 20
1517.25
 21
1985.0
  0
LINE
  8
APS_GEOMETRY
 10
1634.341
 11
1634.341
 20
1985.0
 21
1517.25
  0
LINE
  8
APS_GEOMETRY
 10
1654.341
 11
1654.341
 20
1517.25
 21
1985.0
  0
LINE
  8
APS_GEOMETRY
 10
1674.341
 11
1674.341
 20
1985.0
 21
1517.25
  0
LINE
  8
APS_GEOMETRY
 10
1694.341
 11
1694.341
 20
1517.25
 21
1985.0
  0
LINE
  8
APS_GEOMETRY
 10
1714.341
 11
1714.341
 20
1985.0
 21
1517.25
  0
LINE
  8
APS_GEOMETRY
 10
1734.341
 11
1734.341
 20
1517.25
 21
1985.0
  0
LINE
  8
APS_GEOMETRY
 10
1754.341
 11
1754.341
 20
1985.0
 21
1517.25
  0
LINE
  8
APS_GEOMETRY
 10
1204.841
 11
1204.841
 20
1049.5
 21
1517.25
  0
LINE
  8
APS_GEOMETRY
 10
1224.841
 11
1224.841
 20
1517.25
 21
1049.5
  0
LINE
  8
APS_GEOMETRY
 10
1244.841
 11
1244.841
 20
1049.5
 21
1517.25
  0
LINE
  8
APS_GEOMETRY
 10
1264.841
 11
1264.841
 20
1517.25
 21
1049.5
  0
LINE
  8
APS_GEOMETRY
 10
1284.841
 11
1284.841
 20
1049.5
 21
1517.25
  0
LINE
  8
APS_GEOMETRY
 10
1304.841
 11
1304.841
 20
1517.25
 21
1049.5
  0
LINE
  8
APS_GEOMETRY
 10
1324.841
 11
1324.841
 20
1049.5
 21
1517.25
  0
LINE
  8
APS_GEOMETRY
 10
1344.841
 11
1344.841
 20
1517.25
 21
1049.5
  0
LINE
  8
APS_GEOMETRY
 10
1364.841
 11
1364.841
 20
1049.5
 21
1517.25
  0
LINE
  8
APS_GEOMETRY
 10
1384.841
 11
1384.841
 20
1517.25
 21
1049.5
  0
LINE
  8
APS_GEOMETRY
 10
1404.841
 11
1404.841
 20
1049.5
 21
1517.25
  0
LINE
  8
APS_GEOMETRY
 10
1424.841
 11
1424.841
 20
1517.25
 21
1049.5
  0
LINE
  8
APS_GEOMETRY
 10
1444.841
 11
1444.841
 20
1049.5
 21
1517.25
  0
LINE
  8
APS_GEOMETRY
 10
1464.841
 11
1464.841
 20
1517.25
 21
1049.5
  0
LINE
  8
APS_GEOMETRY
 10
1494.341
 11
1494.341
 20
581.75
 21
1049.5
  0
LINE
  8
APS_GEOMETRY
 10
1514.341
 11
1514.341
 20
1049.5
 21
581.75
  0
LINE
  8
APS_GEOMETRY
 10
1534.341
 11
1534.341
 20
581.75
 21
1049.5
  0
LINE
  8
APS_GEOMETRY
 10
1554.341
 11
1554.341
 20
1049.5
 21
581.75
  0
LINE
  8
APS_GEOMETRY
 10
1574.341
 11
1574.341
 20
581.75
 21
1049.5
  0
LINE
  8
APS_GEOMETRY
 10
1594.341
 11
1594.341
 20
1049.5
 21
581.75
  0
LINE
  8
APS_GEOMETRY
 10
1614.341
 11
1614.341
 20
581.75
 21
1049.5
  0
LINE
  8
APS_GEOMETRY
 10
1634.341
 11
1634.341
 20
1049.5
 21
581.75
  0
LINE
  8
APS_GEOMETRY
 10
1654.341
 11
1654.341
 20
581.75
 21
1049.5
  0
LINE
  8
APS_GEOMETRY
 10
1674.341
 11
1674.341
 20
1049.5
 21
581.75
  0
LINE
  8
APS_GEOMETRY
 10
1694.341
 11
1694.341
 20
581.75
 21
1049.5
  0
LINE
  8
APS_GEOMETRY
 10
1714.341
 11
1714.341
 20
1049.5
 21
581.75
  0
LINE
  8
APS_GEOMETRY
 10
1734.341
 11
1734.341
 20
581.75
 21
1049.5
  0
LINE
  8
APS_GEOMETRY
 10
1754.341
 11
1754.341
 20
1049.5
 21
581.75
  0
LINE
  8
APS_GEOMETRY
 10
1204.841
 11
1204.841
 20
114.0
 21
581.75
  0
LINE
  8
APS_GEOMETRY
 10
1224.841
 11
1224.841
 20
581.75
 21
114.0
  0
LINE
  8
APS_GEOMETRY
 10
1244.841
 11
1244.841
 20
114.0
 21
581.75
  0
LINE
  8
APS_GEOMETRY
 10
1264.841
 11
1264.841
 20
581.75
 21
114.0
  0
LINE
  8
APS_GEOMETRY
 10
1284.841
 11
1284.841
 20
114.0
 21
581.75
  0
LINE
  8
APS_GEOMETRY
 10
1304.841
 11
1304.841
 20
581.75
 21
114.0
  0
LINE
  8
APS_GEOMETRY
 10
1324.841
 11
1324.841
 20
114.0
 21
581.75
  0
LINE
  8
APS_GEOMETRY
 10
1344.841
 11
1344.841
 20
581.75
 21
114.0
  0
LINE
  8
APS_GEOMETRY
 10
1364.841
 11
1364.841
 20
114.0
 21
581.75
  0
LINE
  8
APS_GEOMETRY
 10
1384.841
 11
1384.841
 20
581.75
 21
114.0
  0
LINE
  8
APS_GEOMETRY
 10
1404.841
 11
1404.841
 20
114.0
 21
581.75
  0
LINE
  8
APS_GEOMETRY
 10
1424.841
 11
1424.841
 20
581.75
 21
114.0
  0
LINE
  8
APS_GEOMETRY
 10
1444.841
 11
1444.841
 20
114.0
 21
581.75
  0
LINE
  8
APS_GEOMETRY
 10
1464.841
 11
1464.841
 20
581.75
 21
114.0
  0
LINE
  8
APS_GEOMETRY
 10
1474.341
 11
1184.841
 20
1537.25
 21
1537.25
  0
LINE
  8
APS_GEOMETRY
 10
1184.841
 11
1474.341
 20
1557.25
 21
1557.25
  0
LINE
  8
APS_GEOMETRY
 10
1474.341
 11
1184.841
 20
1577.25
 21
1577.25
  0
LINE
  8
APS_GEOMETRY
 10
1184.841
 11
1474.341
 20
1597.25
 21
1597.25
  0
LINE
  8
APS_GEOMETRY
 10
1474.341
 11
1184.841
 20
1617.25
 21
1617.25
  0
LINE
  8
APS_GEOMETRY
 10
1184.841
 11
1474.341
 20
1637.25
 21
1637.25
  0
LINE
  8
APS_GEOMETRY
 10
1474.341
 11
1184.841
 20
1657.25
 21
1657.25
  0
LINE
  8
APS_GEOMETRY
 10
1184.841
 11
1474.341
 20
1677.25
 21
1677.25
  0
LINE
  8
APS_GEOMETRY
 10
1474.341
 11
1184.841
 20
1697.25
 21
1697.25
  0
LINE
  8
APS_GEOMETRY
 10
1184.841
 11
1474.341
 20
1717.25
 21
1717.25
  0
LINE
  8
APS_GEOMETRY
 10
1474.341
 11
1184.841
 20
1737.25
 21
1737.25
  0
LINE
  8
APS_GEOMETRY
 10
1184.841
 11
1474.341
 20
1757.25
 21
1757.25
  0
LINE
  8
APS_GEOMETRY
 10
1474.341
 11
1184.841
 20
1777.25
 21
1777.25
  0
LINE
  8
APS_GEOMETRY
 10
1184.841
 11
1474.341
 20
1797.25
 21
1797.25
  0
LINE
  8
APS_GEOMETRY
 10
1474.341
 11
1184.841
 20
1817.25
 21
1817.25
  0
LINE
  8
APS_GEOMETRY
 10
1184.841
 11
1474.341
 20
1837.25
 21
1837.25
  0
LINE
  8
APS_GEOMETRY
 10
1474.341
 11
1184.841
 20
1857.25
 21
1857.25
  0
LINE
  8
APS_GEOMETRY
 10
1184.841
 11
1474.341
 20
1877.25
 21
1877.25
  0
LINE
  8
APS_GEOMETRY
 10
1474.341
 11
1184.841
 20
1897.25
 21
1897.25
  0
LINE
  8
APS_GEOMETRY
 10
1184.841
 11
1474.341
 20
1917.25
 21
1917.25
  0
LINE
  8
APS_GEOMETRY
 10
1474.341
 11
1184.841
 20
1937.25
 21
1937.25
  0
LINE
  8
APS_GEOMETRY
 10
1184.841
 11
1474.341
 20
1957.25
 21
1957.25
  0
LINE
  8
APS_GEOMETRY
 10
1474.341
 11
1184.841
 20
1977.25
 21
1977.25
  0
LINE
  8
APS_GEOMETRY
 10
1763.841
 11
1474.341
 20
1069.5
 21
1069.5
  0
LINE
  8
APS_GEOMETRY
 10
1474.341
 11
1763.841
 20
1089.5
 21
1089.5
  0
LINE
  8
APS_GEOMETRY
 10
1763.841
 11
1474.341
 20
1109.5
 21
1109.5
  0
LINE
  8
APS_GEOMETRY
 10
1474.341
 11
1763.841
 20
1129.5
 21
1129.5
  0
LINE
  8
APS_GEOMETRY
 10
1763.841
 11
1474.341
 20
1149.5
 21
1149.5
  0
LINE
  8
APS_GEOMETRY
 10
1474.341
 11
1763.841
 20
1169.5
 21
1169.5
  0
LINE
  8
APS_GEOMETRY
 10
1763.841
 11
1474.341
 20
1189.5
 21
1189.5
  0
LINE
  8
APS_GEOMETRY
 10
1474.341
 11
1763.841
 20
1209.5
 21
1209.5
  0
LINE
  8
APS_GEOMETRY
 10
1763.841
 11
1474.341
 20
1229.5
 21
1229.5
  0
LINE
  8
APS_GEOMETRY
 10
1474.341
 11
1763.841
 20
1249.5
 21
1249.5
  0
LINE
  8
APS_GEOMETRY
 10
1763.841
 11
1474.341
 20
1269.5
 21
1269.5
  0
LINE
  8
APS_GEOMETRY
 10
1474.341
 11
1763.841
 20
1289.5
 21
1289.5
  0
LINE
  8
APS_GEOMETRY
 10
1763.841
 11
1474.341
 20
1309.5
 21
1309.5
  0
LINE
  8
APS_GEOMETRY
 10
1474.341
 11
1763.841
 20
1329.5
 21
1329.5
  0
LINE
  8
APS_GEOMETRY
 10
1763.841
 11
1474.341
 20
1349.5
 21
1349.5
  0
LINE
  8
APS_GEOMETRY
 10
1474.341
 11
1763.841
 20
1369.5
 21
1369.5
  0
LINE
  8
APS_GEOMETRY
 10
1763.841
 11
1474.341
 20
1389.5
 21
1389.5
  0
LINE
  8
APS_GEOMETRY
 10
1474.341
 11
1763.841
 20
1409.5
 21
1409.5
  0
LINE
  8
APS_GEOMETRY
 10
1763.841
 11
1474.341
 20
1429.5
 21
1429.5
  0
LINE
  8
APS_GEOMETRY
 10
1474.341
 11
1763.841
 20
1449.5
 21
1449.5
  0
LINE
  8
APS_GEOMETRY
 10
1763.841
 11
1474.341
 20
1469.5
 21
1469.5
  0
LINE
  8
APS_GEOMETRY
 10
1474.341
 11
1763.841
 20
1489.5
 21
1489.5
  0
LINE
  8
APS_GEOMETRY
 10
1763.841
 11
1474.341
 20
1509.5
 21
1509.5
  0
LINE
  8
APS_GEOMETRY
 10
1474.341
 11
1184.841
 20
601.75
 21
601.75
  0
LINE
  8
APS_GEOMETRY
 10
1184.841
 11
1474.341
 20
621.75
 21
621.75
  0
LINE
  8
APS_GEOMETRY
 10
1474.341
 11
1184.841
 20
641.75
 21
641.75
  0
LINE
  8
APS_GEOMETRY
 10
1184.841
 11
1474.341
 20
661.75
 21
661.75
  0
LINE
  8
APS_GEOMETRY
 10
1474.341
 11
1184.841
 20
681.75
 21
681.75
  0
LINE
  8
APS_GEOMETRY
 10
1184.841
 11
1474.341
 20
701.75
 21
701.75
  0
LINE
  8
APS_GEOMETRY
 10
1474.341
 11
1184.841
 20
721.75
 21
721.75
  0
LINE
  8
APS_GEOMETRY
 10
1184.841
 11
1474.341
 20
741.75
 21
741.75
  0
LINE
  8
APS_GEOMETRY
 10
1474.341
 11
1184.841
 20
761.75
 21
761.75
  0
LINE
  8
APS_GEOMETRY
 10
1184.841
 11
1474.341
 20
781.75
 21
781.75
  0
LINE
  8
APS_GEOMETRY
 10
1474.341
 11
1184.841
 20
801.75
 21
801.75
  0
LINE
  8
APS_GEOMETRY
 10
1184.841
 11
1474.341
 20
821.75
 21
821.75
  0
LINE
  8
APS_GEOMETRY
 10
1474.341
 11
1184.841
 20
841.75
 21
841.75
  0
LINE
  8
APS_GEOMETRY
 10
1184.841
 11
1474.341
 20
861.75
 21
861.75
  0
LINE
  8
APS_GEOMETRY
 10
1474.341
 11
1184.841
 20
881.75
 21
881.75
  0
LINE
  8
APS_GEOMETRY
 10
1184.841
 11
1474.341
 20
901.75
 21
901.75
  0
LINE
  8
APS_GEOMETRY
 10
1474.341
 11
1184.841
 20
921.75
 21
921.75
  0
LINE
  8
APS_GEOMETRY
 10
1184.841
 11
1474.341
 20
941.75
 21
941.75
  0
LINE
  8
APS_GEOMETRY
 10
1474.341
 11
1184.841
 20
961.75
 21
961.75
  0
LINE
  8
APS_GEOMETRY
 10
1184.841
 11
1474.341
 20
981.75
 21
981.75
  0
LINE
  8
APS_GEOMETRY
 10
1474.341
 11
1184.841
 20
1001.75
 21
1001.75
  0
LINE
  8
APS_GEOMETRY
 10
1184.841
 11
1474.341
 20
1021.75
 21
1021.75
  0
LINE
  8
APS_GEOMETRY
 10
1474.341
 11
1184.841
 20
1041.75
 21
1041.75
  0
LINE
  8
APS_GEOMETRY
 10
1763.841
 11
1474.341
 20
134.0
 21
134.0
  0
LINE
  8
APS_GEOMETRY
 10
1474.341
 11
1763.841
 20
154.0
 21
154.0
  0
LINE
  8
APS_GEOMETRY
 10
1763.841
 11
1474.341
 20
174.0
 21
174.0
  0
LINE
  8
APS_GEOMETRY
 10
1474.341
 11
1763.841
 20
194.0
 21
194.0
  0
LINE
  8
APS_GEOMETRY
 10
1763.841
 11
1474.341
 20
214.0
 21
214.0
  0
LINE
  8
APS_GEOMETRY
 10
1474.341
 11
1763.841
 20
234.0
 21
234.0
  0
LINE
  8
APS_GEOMETRY
 10
1763.841
 11
1474.341
 20
254.0
 21
254.0
  0
LINE
  8
APS_GEOMETRY
 10
1474.341
 11
1763.841
 20
274.0
 21
274.0
  0
LINE
  8
APS_GEOMETRY
 10
1763.841
 11
1474.341
 20
294.0
 21
294.0
  0
LINE
  8
APS_GEOMETRY
 10
1474.341
 11
1763.841
 20
314.0
 21
314.0
  0
LINE
  8
APS_GEOMETRY
 10
1763.841
 11
1474.341
 20
334.0
 21
334.0
  0
LINE
  8
APS_GEOMETRY
 10
1474.341
 11
1763.841
 20
354.0
 21
354.0
  0
LINE
  8
APS_GEOMETRY
 10
1763.841
 11
1474.341
 20
374.0
 21
374.0
  0
LINE
  8
APS_GEOMETRY
 10
1474.341
 11
1763.841
 20
394.0
 21
394.0
  0
LINE
  8
APS_GEOMETRY
 10
1763.841
 11
1474.341
 20
414.0
 21
414.0
  0
LINE
  8
APS_GEOMETRY
 10
1474.341
 11
1763.841
 20
434.0
 21
434.0
  0
LINE
  8
APS_GEOMETRY
 10
1763.841
 11
1474.341
 20
454.0
 21
454.0
  0
LINE
  8
APS_GEOMETRY
 10
1474.341
 11
1763.841
 20
474.0
 21
474.0
  0
LINE
  8
APS_GEOMETRY
 10
1763.841
 11
1474.341
 20
494.0
 21
494.0
  0
LINE
  8
APS_GEOMETRY
 10
1474.341
 11
1763.841
 20
514.0
 21
514.0
  0
LINE
  8
APS_GEOMETRY
 10
1763.841
 11
1474.341
 20
534.0
 21
534.0
  0
LINE
  8
APS_GEOMETRY
 10
1474.341
 11
1763.841
 20
554.0
 21
554.0
  0
LINE
  8
APS_GEOMETRY
 10
1763.841
 11
1474.341
 20
574.0
 21
574.0
  0
TEXT
  8
TEXT
 10
-51.609
 20
-217.944
 30
0.0
 40
20.0
 50
0.0
  1
Ufficio tecnico:
  0
TEXT
  8
TEXT
 10
441.739
 20
-342.285
 30
0.0
 40
25.0
 50
0.0
  1
tel. 0577-68.54.26 - fax 0577-68.64.29
  0
TEXT
  8
TEXT
 10
441.739
 20
-379.785
 30
0.0
 40
25.0
 50
0.0
  1
e-mail: tecnico@toscocornici.it - web: www.tosococornici.it
  0
TEXT
  8
TEXT
 10
1052.829
 20
-371.478
 30
0.0
 40
40.0
 50
0.0
  1
B.Ste
  0
TEXT
  8
TEXT
 10
1201.248
 20
-371.478
 30
0.0
 40
40.0
 50
0.0
  1
f
  0
TEXT
  8
TEXT
 10
1231.934
 20
-371.478
 30
0.0
 40
40.0
 50
0.0
  1
ano
  0
TEXT
  8
TEXT
 10
948.609
 20
-214.981
 30
0.0
 40
20.0
 50
0.0
  1
documento:
  0
TEXT
  8
TEXT
 10
1192.265
 20
-268.103
 30
0.0
 40
21.0
 50
0.0
  1
MOD.DEK102_ANTA
  0
TEXT
  8
TEXT
 10
1449.811
 20
-214.896
 30
0.0
 40
20.0
 50
0.0
  1
data:
  0
TEXT
  8
TEXT
 10
1698.91
 20
-266.387
 30
0.0
 40
30.0
 50
0.0
  1
16/10/2015
  0
TEXT
  8
TEXT
 10
1707.663
 20
-367.096
 30
0.0
 40
30.0
 50
0.0
  1
1 : 10
  0
TEXT
  8
TEXT
 10
946.796
 20
-313.206
 30
0.0
 40
20.0
 50
0.0
  1
responsabile tecnico:
  0
TEXT
  8
TEXT
 10
1448.391
 20
-313.496
 30
0.0
 40
20.0
 50
0.0
  1
scala:
  0
TEXT
  8
TEXT
 10
332.173
 20
-114.22
 30
0.0
 40
50.0
 50
0.0
  1
DX
  0
TEXT
  8
TEXT
 10
1368.416
 20
-122.283
 30
0.0
 40
50.0
 50
0.0
  1
SX 
  0
ENDSEC
  0
EOF
