  0
SECTION
  2
ENTITIES
  0
LINE
  8
COSTRUZIONI
 10
2611.900128
 11
2611.900128
 20
2105.5
 21
4.5
  0
LINE
  8
COSTRUZIONI
 10
2611.900128
 11
3402.900128
 20
4.5
 21
4.5
  0
LINE
  8
COSTRUZIONI
 10
3402.900128
 11
3402.900128
 20
4.5
 21
2105.5
  0
LINE
  8
COSTRUZIONI
 10
3402.900128
 11
2611.900128
 20
2105.5
 21
2105.5
  0
LINE
  8
COSTRUZIONI
 10
2726.400128
 11
3288.400128
 20
1975.5
 21
1975.5
  0
LINE
  8
COSTRUZIONI
 10
3288.400128
 11
3288.400128
 20
1975.5
 21
1124.030238
  0
LINE
  8
COSTRUZIONI
 10
3288.400128
 11
3210.329866
 20
1124.030238
 21
889.106648
  0
LINE
  8
COSTRUZIONI
 10
3210.329866
 11
3288.400128
 20
889.106648
 21
844.428204
  0
LINE
  8
COSTRUZIONI
 10
3288.400128
 11
3288.400128
 20
844.428204
 21
134.5
  0
LINE
  8
COSTRUZIONI
 10
3288.400128
 11
2726.400128
 20
134.5
 21
134.5
  0
LINE
  8
COSTRUZIONI
 10
2726.400128
 11
2726.400128
 20
134.5
 21
1975.5
  0
LINE
  8
COSTRUZIONI
 10
2676.400128
 11
3338.400128
 20
2025.5
 21
2025.5
  0
LINE
  8
COSTRUZIONI
 10
3338.400128
 11
3338.400128
 20
2025.5
 21
1115.939716
  0
LINE
  8
COSTRUZIONI
 10
3338.400128
 11
3270.684734
 20
1115.939716
 21
912.175273
  0
LINE
  8
COSTRUZIONI
 10
3270.684734
 11
3338.400128
 20
912.175273
 21
873.422766
  0
LINE
  8
COSTRUZIONI
 10
3338.400128
 11
3338.400128
 20
873.422766
 21
84.5
  0
LINE
  8
COSTRUZIONI
 10
3338.400128
 11
2676.400128
 20
84.5
 21
84.5
  0
LINE
  8
COSTRUZIONI
 10
2676.400128
 11
2676.400128
 20
84.5
 21
2025.5
  0
LINE
  8
COSTRUZIONI
 10
4558.4282
 11
4558.4282
 20
2101.0
 21
0.0
  0
LINE
  8
COSTRUZIONI
 10
4558.4282
 11
3767.4282
 20
0.0
 21
0.0
  0
LINE
  8
COSTRUZIONI
 10
3767.4282
 11
3767.4282
 20
0.0
 21
2101.0
  0
LINE
  8
COSTRUZIONI
 10
3767.4282
 11
4558.4282
 20
2101.0
 21
2101.0
  0
LINE
  8
COSTRUZIONI
 10
4443.9282
 11
3881.9282
 20
1971.0
 21
1971.0
  0
LINE
  8
COSTRUZIONI
 10
3881.9282
 11
3881.9282
 20
1971.0
 21
1119.530238
  0
LINE
  8
COSTRUZIONI
 10
3881.9282
 11
3959.998462
 20
1119.530238
 21
884.606648
  0
LINE
  8
COSTRUZIONI
 10
3959.998462
 11
3881.9282
 20
884.606648
 21
839.928204
  0
LINE
  8
COSTRUZIONI
 10
3881.9282
 11
3881.9282
 20
839.928204
 21
130.0
  0
LINE
  8
COSTRUZIONI
 10
3881.9282
 11
4443.9282
 20
130.0
 21
130.0
  0
LINE
  8
COSTRUZIONI
 10
4443.9282
 11
4443.9282
 20
130.0
 21
1971.0
  0
LINE
  8
COSTRUZIONI
 10
4493.9282
 11
3831.9282
 20
2021.0
 21
2021.0
  0
LINE
  8
COSTRUZIONI
 10
3831.9282
 11
3831.9282
 20
2021.0
 21
1111.439716
  0
LINE
  8
COSTRUZIONI
 10
3831.9282
 11
3899.643594
 20
1111.439716
 21
907.675273
  0
LINE
  8
COSTRUZIONI
 10
3899.643594
 11
3831.9282
 20
907.675273
 21
868.922766
  0
LINE
  8
COSTRUZIONI
 10
3831.9282
 11
3831.9282
 20
868.922766
 21
80.0
  0
LINE
  8
COSTRUZIONI
 10
3831.9282
 11
4493.9282
 20
80.0
 21
80.0
  0
LINE
  8
COSTRUZIONI
 10
4493.9282
 11
4493.9282
 20
80.0
 21
2021.0
  0
LINE
  8
COSTRUZIONI
 10
2726.400128
 11
3288.400128
 20
1975.5
 21
134.5
  0
LINE
  8
COSTRUZIONI
 10
2726.400128
 11
3288.400128
 20
134.5
 21
1975.5
  0
LINE
  8
COSTRUZIONI
 10
3881.9282
 11
4443.9282
 20
1971.0
 21
130.0
  0
LINE
  8
COSTRUZIONI
 10
3881.9282
 11
4443.9282
 20
130.0
 21
1971.0
  0
CIRCLE
  8
COSTRUZIONI
 10
3368.400128
 20
949.5
 40
24.25
  0
ENDSEC
  0
EOF
