  0
SECTION
  2
ENTITIES
  0
LINE
  8
COSTRUZIONI
 10
0.0
 11
0.0
 20
0.0
 21
2310.0
  0
LINE
  8
COSTRUZIONI
 10
0.0
 11
784.0
 20
2310.0
 21
2310.0
  0
LINE
  8
COSTRUZIONI
 10
784.0
 11
784.0
 20
2310.0
 21
0.0
  0
LINE
  8
COSTRUZIONI
 10
784.0
 11
0.0
 20
0.0
 21
0.0
  0
LINE
  8
COSTRUZIONI
 10
114.5
 11
669.5
 20
130.0
 21
130.0
  0
LINE
  8
COSTRUZIONI
 10
669.5
 11
669.5
 20
130.0
 21
839.928204
  0
LINE
  8
COSTRUZIONI
 10
669.5
 11
591.429738
 20
839.928204
 21
884.606648
  0
LINE
  8
COSTRUZIONI
 10
591.429738
 11
669.5
 20
884.606648
 21
1119.530238
  0
LINE
  8
COSTRUZIONI
 10
669.5
 11
669.5
 20
1119.530238
 21
2180.0
  0
LINE
  8
COSTRUZIONI
 10
669.5
 11
114.5
 20
2180.0
 21
2180.0
  0
LINE
  8
COSTRUZIONI
 10
114.5
 11
114.5
 20
2180.0
 21
130.0
  0
LINE
  8
COSTRUZIONI
 10
64.5
 11
719.5
 20
2230.0
 21
2230.0
  0
LINE
  8
COSTRUZIONI
 10
719.5
 11
719.5
 20
2230.0
 21
1111.439716
  0
LINE
  8
COSTRUZIONI
 10
719.5
 11
651.784606
 20
1111.439716
 21
907.675273
  0
LINE
  8
COSTRUZIONI
 10
651.784606
 11
719.5
 20
907.675273
 21
868.922766
  0
LINE
  8
COSTRUZIONI
 10
719.5
 11
719.5
 20
868.922766
 21
80.0
  0
LINE
  8
COSTRUZIONI
 10
719.5
 11
64.5
 20
80.0
 21
80.0
  0
LINE
  8
COSTRUZIONI
 10
64.5
 11
64.5
 20
80.0
 21
2230.0
  0
LINE
  8
COSTRUZIONI
 10
1853.09383
 11
1853.09383
 20
-4.5
 21
2305.5
  0
LINE
  8
COSTRUZIONI
 10
1853.09383
 11
1069.09383
 20
2305.5
 21
2305.5
  0
LINE
  8
COSTRUZIONI
 10
1069.09383
 11
1069.09383
 20
2305.5
 21
-4.5
  0
LINE
  8
COSTRUZIONI
 10
1069.09383
 11
1853.09383
 20
-4.5
 21
-4.5
  0
LINE
  8
COSTRUZIONI
 10
1738.59383
 11
1183.59383
 20
125.5
 21
125.5
  0
LINE
  8
COSTRUZIONI
 10
1183.59383
 11
1183.59383
 20
125.5
 21
835.428204
  0
LINE
  8
COSTRUZIONI
 10
1183.59383
 11
1261.664092
 20
835.428204
 21
880.106648
  0
LINE
  8
COSTRUZIONI
 10
1261.664092
 11
1183.59383
 20
880.106648
 21
1115.030238
  0
LINE
  8
COSTRUZIONI
 10
1183.59383
 11
1183.59383
 20
1115.030238
 21
2175.5
  0
LINE
  8
COSTRUZIONI
 10
1183.59383
 11
1738.59383
 20
2175.5
 21
2175.5
  0
LINE
  8
COSTRUZIONI
 10
1738.59383
 11
1738.59383
 20
2175.5
 21
125.5
  0
LINE
  8
COSTRUZIONI
 10
1788.59383
 11
1788.59383
 20
75.5
 21
2225.5
  0
LINE
  8
COSTRUZIONI
 10
1788.59383
 11
1133.59383
 20
2225.5
 21
2225.5
  0
LINE
  8
COSTRUZIONI
 10
1133.59383
 11
1133.59383
 20
2225.5
 21
1106.939716
  0
LINE
  8
COSTRUZIONI
 10
1133.59383
 11
1201.309224
 20
1106.939716
 21
903.175273
  0
LINE
  8
COSTRUZIONI
 10
1201.309224
 11
1133.59383
 20
903.175273
 21
864.422766
  0
LINE
  8
COSTRUZIONI
 10
1133.59383
 11
1133.59383
 20
864.422766
 21
75.5
  0
LINE
  8
COSTRUZIONI
 10
1133.59383
 11
1788.59383
 20
75.5
 21
75.5
  0
CIRCLE
  8
COSTRUZIONI
 10
749.5
 20
945.0
 40
24.25
  0
LINE
  8
COSTRUZIONI
 10
749.5
 11
749.5
 20
945.0
 21
1040.0
  0
CIRCLE
  8
COSTRUZIONI
 10
749.5
 20
1040.0
 40
5.0
  0
CIRCLE
  8
COSTRUZIONI
 10
1103.59383
 20
940.5
 40
24.25
  0
CIRCLE
  8
COSTRUZIONI
 10
1103.59383
 20
1035.5
 40
5.0
  0
LINE
  8
COSTRUZIONI
 10
114.5
 11
669.5
 20
130.0
 21
2180.0
  0
LINE
  8
COSTRUZIONI
 10
114.5
 11
669.5
 20
2180.0
 21
130.0
  0
LINE
  8
COSTRUZIONI
 10
1183.59383
 11
1738.59383
 20
125.5
 21
2175.5
  0
LINE
  8
COSTRUZIONI
 10
1738.59383
 11
1183.59383
 20
125.5
 21
2175.5
  0
ENDSEC
  0
EOF
