  0
SECTION
  2
ENTITIES
  0
LINE
  8
COSTRUZIONI
 10
2612.900128
 11
2612.900128
 20
4.5
 21
2114.5
  0
LINE
  8
COSTRUZIONI
 10
2612.900128
 11
3396.900128
 20
2114.5
 21
2114.5
  0
LINE
  8
COSTRUZIONI
 10
3396.900128
 11
3396.900128
 20
2114.5
 21
4.5
  0
LINE
  8
COSTRUZIONI
 10
3396.900128
 11
2612.900128
 20
4.5
 21
4.5
  0
LINE
  8
COSTRUZIONI
 10
2727.400128
 11
3282.400128
 20
134.5
 21
134.5
  0
LINE
  8
COSTRUZIONI
 10
3282.400128
 11
3282.400128
 20
134.5
 21
844.428204
  0
LINE
  8
COSTRUZIONI
 10
3282.400128
 11
3204.329866
 20
844.428204
 21
889.106648
  0
LINE
  8
COSTRUZIONI
 10
3204.329866
 11
3282.400128
 20
889.106648
 21
1124.030238
  0
LINE
  8
COSTRUZIONI
 10
3282.400128
 11
3282.400128
 20
1124.030238
 21
1984.5
  0
LINE
  8
COSTRUZIONI
 10
3282.400128
 11
2727.400128
 20
1984.5
 21
1984.5
  0
LINE
  8
COSTRUZIONI
 10
2727.400128
 11
2727.400128
 20
1984.5
 21
134.5
  0
LINE
  8
COSTRUZIONI
 10
2677.400128
 11
2677.400128
 20
84.5
 21
2034.5
  0
LINE
  8
COSTRUZIONI
 10
2677.400128
 11
3332.400128
 20
2034.5
 21
2034.5
  0
LINE
  8
COSTRUZIONI
 10
3332.400128
 11
3332.400128
 20
2034.5
 21
1115.939716
  0
LINE
  8
COSTRUZIONI
 10
3332.400128
 11
3264.684734
 20
1115.939716
 21
912.175273
  0
LINE
  8
COSTRUZIONI
 10
3264.684734
 11
3332.400128
 20
912.175273
 21
873.422766
  0
LINE
  8
COSTRUZIONI
 10
3332.400128
 11
3332.400128
 20
873.422766
 21
84.5
  0
LINE
  8
COSTRUZIONI
 10
3332.400128
 11
2677.400128
 20
84.5
 21
84.5
  0
LINE
  8
COSTRUZIONI
 10
2727.400128
 11
3282.400128
 20
134.5
 21
1984.5
  0
LINE
  8
COSTRUZIONI
 10
2727.400128
 11
3282.400128
 20
1984.5
 21
134.5
  0
CIRCLE
  8
COSTRUZIONI
 10
3004.900128
 20
484.25
 40
15.0
  0
LINE
  8
COSTRUZIONI
 10
3012.400128
 11
2997.400128
 20
484.25
 21
484.25
  0
CIRCLE
  8
COSTRUZIONI
 10
3004.900128
 20
1059.5
 40
15.0
  0
LINE
  8
COSTRUZIONI
 10
3012.400128
 11
2997.400128
 20
1059.5
 21
1059.5
  0
CIRCLE
  8
COSTRUZIONI
 10
3004.900128
 20
1634.75
 40
15.0
  0
LINE
  8
COSTRUZIONI
 10
4468.632848
 11
4468.632848
 20
0.0
 21
2110.0
  0
LINE
  8
COSTRUZIONI
 10
4468.632848
 11
3684.632848
 20
2110.0
 21
2110.0
  0
LINE
  8
COSTRUZIONI
 10
3684.632848
 11
3684.632848
 20
2110.0
 21
0.0
  0
LINE
  8
COSTRUZIONI
 10
3684.632848
 11
4468.632848
 20
0.0
 21
0.0
  0
LINE
  8
COSTRUZIONI
 10
4354.132848
 11
3799.132848
 20
130.0
 21
130.0
  0
LINE
  8
COSTRUZIONI
 10
3799.132848
 11
3799.132848
 20
130.0
 21
839.928204
  0
LINE
  8
COSTRUZIONI
 10
3799.132848
 11
3877.20311
 20
839.928204
 21
884.606648
  0
LINE
  8
COSTRUZIONI
 10
3877.20311
 11
3799.132848
 20
884.606648
 21
1119.530238
  0
LINE
  8
COSTRUZIONI
 10
3799.132848
 11
3799.132848
 20
1119.530238
 21
1980.0
  0
LINE
  8
COSTRUZIONI
 10
3799.132848
 11
4354.132848
 20
1980.0
 21
1980.0
  0
LINE
  8
COSTRUZIONI
 10
4354.132848
 11
4354.132848
 20
1980.0
 21
130.0
  0
LINE
  8
COSTRUZIONI
 10
4404.132848
 11
4404.132848
 20
80.0
 21
2030.0
  0
LINE
  8
COSTRUZIONI
 10
4404.132848
 11
3749.132848
 20
2030.0
 21
2030.0
  0
LINE
  8
COSTRUZIONI
 10
3749.132848
 11
3749.132848
 20
2030.0
 21
1111.439716
  0
LINE
  8
COSTRUZIONI
 10
3749.132848
 11
3816.848242
 20
1111.439716
 21
907.675273
  0
LINE
  8
COSTRUZIONI
 10
3816.848242
 11
3749.132848
 20
907.675273
 21
868.922766
  0
LINE
  8
COSTRUZIONI
 10
3749.132848
 11
3749.132848
 20
868.922766
 21
80.0
  0
LINE
  8
COSTRUZIONI
 10
3749.132848
 11
4404.132848
 20
80.0
 21
80.0
  0
LINE
  8
COSTRUZIONI
 10
4354.132848
 11
3799.132848
 20
130.0
 21
1980.0
  0
LINE
  8
COSTRUZIONI
 10
4354.132848
 11
3799.132848
 20
1980.0
 21
130.0
  0
CIRCLE
  8
COSTRUZIONI
 10
4076.632848
 20
479.75
 40
15.0
  0
LINE
  8
COSTRUZIONI
 10
4069.132848
 11
4084.132848
 20
479.75
 21
479.75
  0
CIRCLE
  8
COSTRUZIONI
 10
4076.632848
 20
1055.0
 40
15.0
  0
LINE
  8
COSTRUZIONI
 10
4069.132848
 11
4084.132848
 20
1055.0
 21
1055.0
  0
CIRCLE
  8
COSTRUZIONI
 10
4076.632848
 20
1630.25
 40
15.0
  0
ENDSEC
  0
EOF
