  0
SECTION
  2
ENTITIES
  0
CIRCLE
  8
COSTRUZIONI
 10
3362.400128
 20
1044.5
 40
10.0
  0
CIRCLE
  8
COSTRUZIONI
 10
3362.4001
 20
949.5
 40
10.0
  0
CIRCLE
  8
COSTRUZIONI
 10
3716.493958
 20
1040.0
 40
10.0
  0
CIRCLE
  8
COSTRUZIONI
 10
3716.493986
 20
945.0
 40
10.0
  0
LINE
  8
COSTRUZIONI
 10
3396.900128
 11
3396.900128
 20
2114.5
 21
4.5
  0
LINE
  8
COSTRUZIONI
 10
3396.900128
 11
2312.900128
 20
4.5
 21
4.5
  0
LINE
  8
COSTRUZIONI
 10
2312.900128
 11
2312.900128
 20
4.5
 21
2114.5
  0
LINE
  8
COSTRUZIONI
 10
2312.900128
 11
3396.900128
 20
2114.5
 21
2114.5
  0
LINE
  8
COSTRUZIONI
 10
2427.400128
 11
2427.400128
 20
1984.5
 21
134.5
  0
LINE
  8
COSTRUZIONI
 10
2427.400128
 11
3282.400128
 20
134.5
 21
134.5
  0
LINE
  8
COSTRUZIONI
 10
3282.400128
 11
3282.400128
 20
134.5
 21
844.428204
  0
LINE
  8
COSTRUZIONI
 10
3282.400128
 11
3204.329866
 20
844.428204
 21
889.106648
  0
LINE
  8
COSTRUZIONI
 10
3204.329866
 11
3282.400128
 20
889.106648
 21
1124.030238
  0
LINE
  8
COSTRUZIONI
 10
3282.400128
 11
3282.400128
 20
1124.030238
 21
1984.5
  0
LINE
  8
COSTRUZIONI
 10
3282.400128
 11
2427.400128
 20
1984.5
 21
1984.5
  0
LINE
  8
COSTRUZIONI
 10
2377.400128
 11
2377.400128
 20
2034.5
 21
84.5
  0
LINE
  8
COSTRUZIONI
 10
2377.400128
 11
3332.400128
 20
84.5
 21
84.5
  0
LINE
  8
COSTRUZIONI
 10
3332.400128
 11
3332.400128
 20
84.5
 21
873.422766
  0
LINE
  8
COSTRUZIONI
 10
3332.400128
 11
3264.684734
 20
873.422766
 21
912.175273
  0
LINE
  8
COSTRUZIONI
 10
3264.684734
 11
3332.400128
 20
912.175273
 21
1115.939716
  0
LINE
  8
COSTRUZIONI
 10
3332.400128
 11
3332.400128
 20
1115.939716
 21
2034.5
  0
LINE
  8
COSTRUZIONI
 10
3332.400128
 11
2377.400128
 20
2034.5
 21
2034.5
  0
LINE
  8
COSTRUZIONI
 10
3681.993958
 11
3681.993958
 20
2110.0
 21
0.0
  0
LINE
  8
COSTRUZIONI
 10
3681.993958
 11
4765.993958
 20
0.0
 21
0.0
  0
LINE
  8
COSTRUZIONI
 10
4765.993958
 11
4765.993958
 20
0.0
 21
2110.0
  0
LINE
  8
COSTRUZIONI
 10
4765.993958
 11
3681.993958
 20
2110.0
 21
2110.0
  0
LINE
  8
COSTRUZIONI
 10
4651.493958
 11
4651.493958
 20
1980.0
 21
130.0
  0
LINE
  8
COSTRUZIONI
 10
4651.493958
 11
3796.493958
 20
130.0
 21
130.0
  0
LINE
  8
COSTRUZIONI
 10
3796.493958
 11
3796.493958
 20
130.0
 21
839.928204
  0
LINE
  8
COSTRUZIONI
 10
3796.493958
 11
3874.56422
 20
839.928204
 21
884.606648
  0
LINE
  8
COSTRUZIONI
 10
3874.56422
 11
3796.493958
 20
884.606648
 21
1119.530238
  0
LINE
  8
COSTRUZIONI
 10
3796.493958
 11
3796.493958
 20
1119.530238
 21
1980.0
  0
LINE
  8
COSTRUZIONI
 10
3796.493958
 11
4651.493958
 20
1980.0
 21
1980.0
  0
LINE
  8
COSTRUZIONI
 10
4701.493958
 11
4701.493958
 20
2030.0
 21
80.0
  0
LINE
  8
COSTRUZIONI
 10
4701.493958
 11
3746.493958
 20
80.0
 21
80.0
  0
LINE
  8
COSTRUZIONI
 10
3746.493958
 11
3746.493958
 20
80.0
 21
868.922766
  0
LINE
  8
COSTRUZIONI
 10
3746.493958
 11
3814.209352
 20
868.922766
 21
907.675273
  0
LINE
  8
COSTRUZIONI
 10
3814.209352
 11
3746.493958
 20
907.675273
 21
1111.439716
  0
LINE
  8
COSTRUZIONI
 10
3746.493958
 11
3746.493958
 20
1111.439716
 21
2030.0
  0
LINE
  8
COSTRUZIONI
 10
3746.493958
 11
4701.493958
 20
2030.0
 21
2030.0
  0
LINE
  8
COSTRUZIONI
 10
2427.400128
 11
3282.400128
 20
134.5
 21
1984.5
  0
LINE
  8
COSTRUZIONI
 10
2427.400128
 11
3282.400128
 20
1984.5
 21
134.5
  0
LINE
  8
COSTRUZIONI
 10
3796.493958
 11
4651.493958
 20
130.0
 21
1980.0
  0
LINE
  8
COSTRUZIONI
 10
3796.493958
 11
4651.493958
 20
1980.0
 21
130.0
  0
ENDSEC
  0
EOF
