  0
SECTION
  2
ENTITIES
  0
LINE
  8
COSTRUZIONI
 10
3396.900128
 11
2603.900128
 20
4.5
 21
4.5
  0
LINE
  8
COSTRUZIONI
 10
2603.900128
 11
2603.900128
 20
4.5
 21
2109.5
  0
LINE
  8
COSTRUZIONI
 10
2603.900128
 11
3396.900128
 20
2109.5
 21
2109.5
  0
LINE
  8
COSTRUZIONI
 10
3396.900128
 11
3396.900128
 20
2109.5
 21
4.5
  0
LINE
  8
COSTRUZIONI
 10
3282.400128
 11
2718.400128
 20
134.5
 21
134.5
  0
LINE
  8
COSTRUZIONI
 10
2718.400128
 11
2718.400128
 20
134.5
 21
1979.5
  0
LINE
  8
COSTRUZIONI
 10
2718.400128
 11
3282.400128
 20
1979.5
 21
1979.5
  0
LINE
  8
COSTRUZIONI
 10
3282.400128
 11
3282.400128
 20
134.5
 21
844.428204
  0
LINE
  8
COSTRUZIONI
 10
3282.400128
 11
3204.329866
 20
844.428204
 21
889.106648
  0
LINE
  8
COSTRUZIONI
 10
3204.329866
 11
3282.400128
 20
889.106648
 21
1124.030238
  0
LINE
  8
COSTRUZIONI
 10
3282.400128
 11
3282.400128
 20
1124.030238
 21
1979.5
  0
LINE
  8
COSTRUZIONI
 10
3332.400128
 11
2668.400128
 20
84.5
 21
84.5
  0
LINE
  8
COSTRUZIONI
 10
2668.400128
 11
2668.400128
 20
84.5
 21
2029.5
  0
LINE
  8
COSTRUZIONI
 10
2668.400128
 11
3332.400128
 20
2029.5
 21
2029.5
  0
LINE
  8
COSTRUZIONI
 10
3332.400128
 11
3332.400128
 20
2029.5
 21
1115.939716
  0
LINE
  8
COSTRUZIONI
 10
3332.400128
 11
3264.684734
 20
1115.939716
 21
912.175273
  0
LINE
  8
COSTRUZIONI
 10
3264.684734
 11
3332.400128
 20
912.175273
 21
873.422766
  0
LINE
  8
COSTRUZIONI
 10
3332.400128
 11
3332.400128
 20
873.422766
 21
84.5
  0
CIRCLE
  8
COSTRUZIONI
 10
3000.400128
 20
481.75
 40
15.0
  0
LINE
  8
COSTRUZIONI
 10
3007.900128
 11
2992.900128
 20
481.75
 21
481.75
  0
CIRCLE
  8
COSTRUZIONI
 10
3000.400128
 20
1057.0
 40
15.0
  0
LINE
  8
COSTRUZIONI
 10
3007.900128
 11
2992.900128
 20
1057.0
 21
1057.0
  0
CIRCLE
  8
COSTRUZIONI
 10
3000.400128
 20
1632.25
 40
15.0
  0
LINE
  8
COSTRUZIONI
 10
2718.400128
 11
3282.400128
 20
1979.5
 21
134.5
  0
LINE
  8
COSTRUZIONI
 10
2718.400128
 11
3282.400128
 20
134.5
 21
1979.5
  0
LINE
  8
COSTRUZIONI
 10
3730.837726
 11
4523.837726
 20
4.5
 21
4.5
  0
LINE
  8
COSTRUZIONI
 10
4523.837726
 11
4523.837726
 20
4.5
 21
2109.5
  0
LINE
  8
COSTRUZIONI
 10
4523.837726
 11
3730.837726
 20
2109.5
 21
2109.5
  0
LINE
  8
COSTRUZIONI
 10
3730.837726
 11
3730.837726
 20
2109.5
 21
4.5
  0
LINE
  8
COSTRUZIONI
 10
3845.337726
 11
4409.337726
 20
134.5
 21
134.5
  0
LINE
  8
COSTRUZIONI
 10
4409.337726
 11
4409.337726
 20
134.5
 21
1979.5
  0
LINE
  8
COSTRUZIONI
 10
4409.337726
 11
3845.337726
 20
1979.5
 21
1979.5
  0
LINE
  8
COSTRUZIONI
 10
3845.337726
 11
3845.337726
 20
134.5
 21
844.428204
  0
LINE
  8
COSTRUZIONI
 10
3845.337726
 11
3923.407988
 20
844.428204
 21
889.106648
  0
LINE
  8
COSTRUZIONI
 10
3923.407988
 11
3845.337726
 20
889.106648
 21
1124.030238
  0
LINE
  8
COSTRUZIONI
 10
3845.337726
 11
3845.337726
 20
1124.030238
 21
1979.5
  0
LINE
  8
COSTRUZIONI
 10
3795.337726
 11
4459.337726
 20
84.5
 21
84.5
  0
LINE
  8
COSTRUZIONI
 10
4459.337726
 11
4459.337726
 20
84.5
 21
2029.5
  0
LINE
  8
COSTRUZIONI
 10
4459.337726
 11
3795.337726
 20
2029.5
 21
2029.5
  0
LINE
  8
COSTRUZIONI
 10
3795.337726
 11
3795.337726
 20
2029.5
 21
1115.939716
  0
LINE
  8
COSTRUZIONI
 10
3795.337726
 11
3863.05312
 20
1115.939716
 21
912.175273
  0
LINE
  8
COSTRUZIONI
 10
3863.05312
 11
3795.337726
 20
912.175273
 21
873.422766
  0
LINE
  8
COSTRUZIONI
 10
3795.337726
 11
3795.337726
 20
873.422766
 21
84.5
  0
CIRCLE
  8
COSTRUZIONI
 10
4127.337726
 20
481.75
 40
15.0
  0
LINE
  8
COSTRUZIONI
 10
4119.837726
 11
4134.837726
 20
481.75
 21
481.75
  0
CIRCLE
  8
COSTRUZIONI
 10
4127.337726
 20
1057.0
 40
15.0
  0
LINE
  8
COSTRUZIONI
 10
4119.837726
 11
4134.837726
 20
1057.0
 21
1057.0
  0
CIRCLE
  8
COSTRUZIONI
 10
4127.337726
 20
1632.25
 40
15.0
  0
LINE
  8
COSTRUZIONI
 10
4409.337726
 11
3845.337726
 20
1979.5
 21
134.5
  0
LINE
  8
COSTRUZIONI
 10
4409.337726
 11
3845.337726
 20
134.5
 21
1979.5
  0
ENDSEC
  0
EOF
