  0
SECTION
  2
ENTITIES
  0
CIRCLE
  8
COSTRUZIONI
 10
3021.400128
 20
471.25
 40
15.0
  0
LINE
  8
COSTRUZIONI
 10
3028.900128
 11
3013.900128
 20
471.25
 21
471.25
  0
CIRCLE
  8
COSTRUZIONI
 10
3021.400128
 20
1046.5
 40
15.0
  0
LINE
  8
COSTRUZIONI
 10
3028.900128
 11
3013.900128
 20
1046.5
 21
1046.5
  0
CIRCLE
  8
COSTRUZIONI
 10
3021.400128
 20
1621.75
 40
15.0
  0
CIRCLE
  8
COSTRUZIONI
 10
3021.400128
 20
471.25
 40
15.0
  0
CIRCLE
  8
COSTRUZIONI
 10
3021.400128
 20
1046.5
 40
15.0
  0
CIRCLE
  8
COSTRUZIONI
 10
3021.400128
 20
1621.75
 40
15.0
  0
LINE
  8
COSTRUZIONI
 10
3396.900128
 11
2645.900128
 20
4.5
 21
4.5
  0
LINE
  8
COSTRUZIONI
 10
2645.900128
 11
2645.900128
 20
4.5
 21
2088.5
  0
LINE
  8
COSTRUZIONI
 10
2645.900128
 11
3396.900128
 20
2088.5
 21
2088.5
  0
LINE
  8
COSTRUZIONI
 10
3396.900128
 11
3396.900128
 20
2088.5
 21
4.5
  0
LINE
  8
COSTRUZIONI
 10
3282.400128
 11
2760.400128
 20
134.5
 21
134.5
  0
LINE
  8
COSTRUZIONI
 10
2760.400128
 11
2760.400128
 20
134.5
 21
1958.5
  0
LINE
  8
COSTRUZIONI
 10
3282.400128
 11
3282.400128
 20
134.5
 21
844.428204
  0
LINE
  8
COSTRUZIONI
 10
3282.400128
 11
3204.329866
 20
844.428204
 21
889.106648
  0
LINE
  8
COSTRUZIONI
 10
3204.329866
 11
3282.400128
 20
889.106648
 21
1124.030238
  0
LINE
  8
COSTRUZIONI
 10
3282.400128
 11
3282.400128
 20
1124.030238
 21
1958.5
  0
LINE
  8
COSTRUZIONI
 10
3282.400128
 11
2760.400128
 20
1958.5
 21
1958.5
  0
LINE
  8
COSTRUZIONI
 10
2710.400128
 11
2710.400128
 20
84.5
 21
2008.5
  0
LINE
  8
COSTRUZIONI
 10
2710.400128
 11
3332.400128
 20
2008.5
 21
2008.5
  0
LINE
  8
COSTRUZIONI
 10
3332.400128
 11
3332.400128
 20
2008.5
 21
1115.939716
  0
LINE
  8
COSTRUZIONI
 10
3332.400128
 11
3264.684734
 20
1115.939716
 21
912.175273
  0
LINE
  8
COSTRUZIONI
 10
3264.684734
 11
3332.400128
 20
912.175273
 21
873.422766
  0
LINE
  8
COSTRUZIONI
 10
3332.400128
 11
3332.400128
 20
873.422766
 21
84.5
  0
LINE
  8
COSTRUZIONI
 10
3332.400128
 11
2710.400128
 20
84.5
 21
84.5
  0
LINE
  8
COSTRUZIONI
 10
3028.900128
 11
3013.900128
 20
471.25
 21
471.25
  0
LINE
  8
COSTRUZIONI
 10
3028.900128
 11
3013.900128
 20
1046.5
 21
1046.5
  0
LINE
  8
COSTRUZIONI
 10
2760.400128
 11
3282.400128
 20
1958.5
 21
134.5
  0
LINE
  8
COSTRUZIONI
 10
2760.400128
 11
3282.400128
 20
134.5
 21
1958.5
  0
CIRCLE
  8
COSTRUZIONI
 10
4061.43351
 20
471.25
 40
15.0
  0
LINE
  8
COSTRUZIONI
 10
4053.93351
 11
4068.93351
 20
471.25
 21
471.25
  0
CIRCLE
  8
COSTRUZIONI
 10
4061.43351
 20
1046.5
 40
15.0
  0
LINE
  8
COSTRUZIONI
 10
4053.93351
 11
4068.93351
 20
1046.5
 21
1046.5
  0
CIRCLE
  8
COSTRUZIONI
 10
4061.43351
 20
1621.75
 40
15.0
  0
CIRCLE
  8
COSTRUZIONI
 10
4061.43351
 20
471.25
 40
15.0
  0
CIRCLE
  8
COSTRUZIONI
 10
4061.43351
 20
1046.5
 40
15.0
  0
CIRCLE
  8
COSTRUZIONI
 10
4061.43351
 20
1621.75
 40
15.0
  0
LINE
  8
COSTRUZIONI
 10
3685.93351
 11
4436.93351
 20
4.5
 21
4.5
  0
LINE
  8
COSTRUZIONI
 10
4436.93351
 11
4436.93351
 20
4.5
 21
2088.5
  0
LINE
  8
COSTRUZIONI
 10
4436.93351
 11
3685.93351
 20
2088.5
 21
2088.5
  0
LINE
  8
COSTRUZIONI
 10
3685.93351
 11
3685.93351
 20
2088.5
 21
4.5
  0
LINE
  8
COSTRUZIONI
 10
3800.43351
 11
4322.43351
 20
134.5
 21
134.5
  0
LINE
  8
COSTRUZIONI
 10
4322.43351
 11
4322.43351
 20
134.5
 21
1958.5
  0
LINE
  8
COSTRUZIONI
 10
3800.43351
 11
3800.43351
 20
134.5
 21
844.428204
  0
LINE
  8
COSTRUZIONI
 10
3800.43351
 11
3878.503772
 20
844.428204
 21
889.106648
  0
LINE
  8
COSTRUZIONI
 10
3878.503772
 11
3800.43351
 20
889.106648
 21
1124.030238
  0
LINE
  8
COSTRUZIONI
 10
3800.43351
 11
3800.43351
 20
1124.030238
 21
1958.5
  0
LINE
  8
COSTRUZIONI
 10
3800.43351
 11
4322.43351
 20
1958.5
 21
1958.5
  0
LINE
  8
COSTRUZIONI
 10
4372.43351
 11
4372.43351
 20
84.5
 21
2008.5
  0
LINE
  8
COSTRUZIONI
 10
4372.43351
 11
3750.43351
 20
2008.5
 21
2008.5
  0
LINE
  8
COSTRUZIONI
 10
3750.43351
 11
3750.43351
 20
2008.5
 21
1115.939716
  0
LINE
  8
COSTRUZIONI
 10
3750.43351
 11
3818.148904
 20
1115.939716
 21
912.175273
  0
LINE
  8
COSTRUZIONI
 10
3818.148904
 11
3750.43351
 20
912.175273
 21
873.422766
  0
LINE
  8
COSTRUZIONI
 10
3750.43351
 11
3750.43351
 20
873.422766
 21
84.5
  0
LINE
  8
COSTRUZIONI
 10
3750.43351
 11
4372.43351
 20
84.5
 21
84.5
  0
LINE
  8
COSTRUZIONI
 10
4053.93351
 11
4068.93351
 20
471.25
 21
471.25
  0
LINE
  8
COSTRUZIONI
 10
4053.93351
 11
4068.93351
 20
1046.5
 21
1046.5
  0
LINE
  8
COSTRUZIONI
 10
4322.43351
 11
3800.43351
 20
1958.5
 21
134.5
  0
LINE
  8
COSTRUZIONI
 10
4322.43351
 11
3800.43351
 20
134.5
 21
1958.5
  0
ENDSEC
  0
EOF
