  0
SECTION
  2
ENTITIES
  0
LINE
  8
COSTRUZIONI
 10
3396.900128
 11
2600.900128
 20
2063.5
 21
2063.5
  0
LINE
  8
COSTRUZIONI
 10
2600.900128
 11
2600.900128
 20
2063.5
 21
4.5
  0
LINE
  8
COSTRUZIONI
 10
2600.900128
 11
3396.900128
 20
4.5
 21
4.5
  0
LINE
  8
COSTRUZIONI
 10
3396.900128
 11
3396.900128
 20
4.5
 21
2063.5
  0
LINE
  8
COSTRUZIONI
 10
3282.400128
 11
2715.400128
 20
1933.5
 21
1933.5
  0
LINE
  8
COSTRUZIONI
 10
2715.400128
 11
2715.400128
 20
1933.5
 21
134.5
  0
LINE
  8
COSTRUZIONI
 10
2715.400128
 11
3282.400128
 20
134.5
 21
134.5
  0
LINE
  8
COSTRUZIONI
 10
3282.400128
 11
3282.400128
 20
134.5
 21
844.428204
  0
LINE
  8
COSTRUZIONI
 10
3282.400128
 11
3204.329866
 20
844.428204
 21
889.106648
  0
LINE
  8
COSTRUZIONI
 10
3204.329866
 11
3282.400128
 20
889.106648
 21
1124.030238
  0
LINE
  8
COSTRUZIONI
 10
3282.400128
 11
3282.400128
 20
1124.030238
 21
1933.5
  0
LINE
  8
COSTRUZIONI
 10
3332.400128
 11
2665.400128
 20
1983.5
 21
1983.5
  0
LINE
  8
COSTRUZIONI
 10
2665.400128
 11
2665.400128
 20
1983.5
 21
84.5
  0
LINE
  8
COSTRUZIONI
 10
2665.400128
 11
3332.400128
 20
84.5
 21
84.5
  0
LINE
  8
COSTRUZIONI
 10
3332.400128
 11
3332.400128
 20
84.5
 21
873.422766
  0
LINE
  8
COSTRUZIONI
 10
3332.400128
 11
3264.684734
 20
873.422766
 21
912.175273
  0
LINE
  8
COSTRUZIONI
 10
3264.684734
 11
3332.400128
 20
912.175273
 21
1115.939716
  0
LINE
  8
COSTRUZIONI
 10
3332.400128
 11
3332.400128
 20
1115.939716
 21
1983.5
  0
CIRCLE
  8
COSTRUZIONI
 10
2998.900128
 20
1034.0
 40
15.0
  0
CIRCLE
  8
COSTRUZIONI
 10
2998.900128
 20
458.75
 40
15.0
  0
CIRCLE
  8
COSTRUZIONI
 10
2998.900128
 20
1609.25
 40
15.0
  0
LINE
  8
COSTRUZIONI
 10
2715.400128
 11
3282.400128
 20
134.5
 21
1933.5
  0
LINE
  8
COSTRUZIONI
 10
3282.400128
 11
2715.400128
 20
134.5
 21
1933.5
  0
LINE
  8
COSTRUZIONI
 10
3661.1333
 11
4457.1333
 20
2059.0
 21
2059.0
  0
LINE
  8
COSTRUZIONI
 10
4457.1333
 11
4457.1333
 20
2059.0
 21
0.0
  0
LINE
  8
COSTRUZIONI
 10
4457.1333
 11
3661.1333
 20
0.0
 21
0.0
  0
LINE
  8
COSTRUZIONI
 10
3661.1333
 11
3661.1333
 20
0.0
 21
2059.0
  0
LINE
  8
COSTRUZIONI
 10
3775.6333
 11
4342.6333
 20
1929.0
 21
1929.0
  0
LINE
  8
COSTRUZIONI
 10
4342.6333
 11
4342.6333
 20
1929.0
 21
130.0
  0
LINE
  8
COSTRUZIONI
 10
4342.6333
 11
3775.6333
 20
130.0
 21
130.0
  0
LINE
  8
COSTRUZIONI
 10
3775.6333
 11
3775.6333
 20
130.0
 21
839.928204
  0
LINE
  8
COSTRUZIONI
 10
3775.6333
 11
3853.703562
 20
839.928204
 21
884.606648
  0
LINE
  8
COSTRUZIONI
 10
3853.703562
 11
3775.6333
 20
884.606648
 21
1119.530238
  0
LINE
  8
COSTRUZIONI
 10
3775.6333
 11
3775.6333
 20
1119.530238
 21
1929.0
  0
LINE
  8
COSTRUZIONI
 10
3725.6333
 11
4392.6333
 20
1979.0
 21
1979.0
  0
LINE
  8
COSTRUZIONI
 10
4392.6333
 11
4392.6333
 20
1979.0
 21
80.0
  0
LINE
  8
COSTRUZIONI
 10
4392.6333
 11
3725.6333
 20
80.0
 21
80.0
  0
LINE
  8
COSTRUZIONI
 10
3725.6333
 11
3725.6333
 20
80.0
 21
868.922766
  0
LINE
  8
COSTRUZIONI
 10
3725.6333
 11
3793.348694
 20
868.922766
 21
907.675273
  0
LINE
  8
COSTRUZIONI
 10
3793.348694
 11
3725.6333
 20
907.675273
 21
1111.439716
  0
LINE
  8
COSTRUZIONI
 10
3725.6333
 11
3725.6333
 20
1111.439716
 21
1979.0
  0
CIRCLE
  8
COSTRUZIONI
 10
4059.1333
 20
1029.5
 40
15.0
  0
CIRCLE
  8
COSTRUZIONI
 10
4059.1333
 20
454.25
 40
15.0
  0
CIRCLE
  8
COSTRUZIONI
 10
4059.1333
 20
1604.75
 40
15.0
  0
LINE
  8
COSTRUZIONI
 10
4342.6333
 11
3775.6333
 20
130.0
 21
1929.0
  0
LINE
  8
COSTRUZIONI
 10
3775.6333
 11
4342.6333
 20
130.0
 21
1929.0
  0
ENDSEC
  0
EOF
