  0
SECTION
  2
ENTITIES
  0
LINE
  8
COSTRUZIONI
 10
3396.900128
 11
2607.900128
 20
4.5
 21
4.5
  0
LINE
  8
COSTRUZIONI
 10
2607.900128
 11
2607.900128
 20
4.5
 21
2109.5
  0
LINE
  8
COSTRUZIONI
 10
2607.900128
 11
3396.900128
 20
2109.5
 21
2109.5
  0
LINE
  8
COSTRUZIONI
 10
3396.900128
 11
3396.900128
 20
2109.5
 21
4.5
  0
LINE
  8
COSTRUZIONI
 10
2722.400128
 11
2722.400128
 20
1979.5
 21
134.5
  0
LINE
  8
COSTRUZIONI
 10
2722.400128
 11
3282.400128
 20
134.5
 21
134.5
  0
LINE
  8
COSTRUZIONI
 10
3282.400128
 11
3282.400128
 20
134.5
 21
844.428204
  0
LINE
  8
COSTRUZIONI
 10
3282.400128
 11
3204.329866
 20
844.428204
 21
889.106648
  0
LINE
  8
COSTRUZIONI
 10
3204.329866
 11
3282.400128
 20
889.106648
 21
1124.030238
  0
LINE
  8
COSTRUZIONI
 10
3282.400128
 11
3282.400128
 20
1124.030238
 21
1979.5
  0
LINE
  8
COSTRUZIONI
 10
3282.400128
 11
2722.400128
 20
1979.5
 21
1979.5
  0
LINE
  8
COSTRUZIONI
 10
3332.400128
 11
2672.400128
 20
84.5
 21
84.5
  0
LINE
  8
COSTRUZIONI
 10
2672.400128
 11
2672.400128
 20
84.5
 21
2029.5
  0
LINE
  8
COSTRUZIONI
 10
2672.400128
 11
3332.400128
 20
2029.5
 21
2029.5
  0
LINE
  8
COSTRUZIONI
 10
3332.400128
 11
3332.400128
 20
2029.5
 21
1115.939716
  0
LINE
  8
COSTRUZIONI
 10
3332.400128
 11
3264.684734
 20
1115.939716
 21
912.175273
  0
LINE
  8
COSTRUZIONI
 10
3264.684734
 11
3332.400128
 20
912.175273
 21
873.422766
  0
LINE
  8
COSTRUZIONI
 10
3332.400128
 11
3332.400128
 20
873.422766
 21
84.5
  0
LINE
  8
COSTRUZIONI
 10
2722.400128
 11
3282.400128
 20
134.5
 21
1979.5
  0
LINE
  8
COSTRUZIONI
 10
2722.400128
 11
3282.400128
 20
1979.5
 21
134.5
  0
CIRCLE
  8
COSTRUZIONI
 10
3002.400128
 20
481.75
 40
15.0
  0
LINE
  8
COSTRUZIONI
 10
3009.900128
 11
2994.900128
 20
481.75
 21
481.75
  0
CIRCLE
  8
COSTRUZIONI
 10
3002.400128
 20
1057.0
 40
15.0
  0
LINE
  8
COSTRUZIONI
 10
3009.900128
 11
2994.900128
 20
1057.0
 21
1057.0
  0
CIRCLE
  8
COSTRUZIONI
 10
3002.400128
 20
1632.25
 40
15.0
  0
LINE
  8
COSTRUZIONI
 10
3766.407136
 11
4555.407136
 20
4.5
 21
4.5
  0
LINE
  8
COSTRUZIONI
 10
4555.407136
 11
4555.407136
 20
4.5
 21
2109.5
  0
LINE
  8
COSTRUZIONI
 10
4555.407136
 11
3766.407136
 20
2109.5
 21
2109.5
  0
LINE
  8
COSTRUZIONI
 10
3766.407136
 11
3766.407136
 20
2109.5
 21
4.5
  0
LINE
  8
COSTRUZIONI
 10
4440.907136
 11
4440.907136
 20
1979.5
 21
134.5
  0
LINE
  8
COSTRUZIONI
 10
4440.907136
 11
3880.907136
 20
134.5
 21
134.5
  0
LINE
  8
COSTRUZIONI
 10
3880.907136
 11
3880.907136
 20
134.5
 21
844.428204
  0
LINE
  8
COSTRUZIONI
 10
3880.907136
 11
3958.977398
 20
844.428204
 21
889.106648
  0
LINE
  8
COSTRUZIONI
 10
3958.977398
 11
3880.907136
 20
889.106648
 21
1124.030238
  0
LINE
  8
COSTRUZIONI
 10
3880.907136
 11
3880.907136
 20
1124.030238
 21
1979.5
  0
LINE
  8
COSTRUZIONI
 10
3880.907136
 11
4440.907136
 20
1979.5
 21
1979.5
  0
LINE
  8
COSTRUZIONI
 10
3830.907136
 11
4490.907136
 20
84.5
 21
84.5
  0
LINE
  8
COSTRUZIONI
 10
4490.907136
 11
4490.907136
 20
84.5
 21
2029.5
  0
LINE
  8
COSTRUZIONI
 10
4490.907136
 11
3830.907136
 20
2029.5
 21
2029.5
  0
LINE
  8
COSTRUZIONI
 10
3830.907136
 11
3830.907136
 20
2029.5
 21
1115.939716
  0
LINE
  8
COSTRUZIONI
 10
3830.907136
 11
3898.622529
 20
1115.939716
 21
912.175273
  0
LINE
  8
COSTRUZIONI
 10
3898.622529
 11
3830.907136
 20
912.175273
 21
873.422766
  0
LINE
  8
COSTRUZIONI
 10
3830.907136
 11
3830.907136
 20
873.422766
 21
84.5
  0
LINE
  8
COSTRUZIONI
 10
4440.907136
 11
3880.907136
 20
134.5
 21
1979.5
  0
LINE
  8
COSTRUZIONI
 10
4440.907136
 11
3880.907136
 20
1979.5
 21
134.5
  0
CIRCLE
  8
COSTRUZIONI
 10
4160.907136
 20
481.75
 40
15.0
  0
LINE
  8
COSTRUZIONI
 10
4153.407136
 11
4168.407136
 20
481.75
 21
481.75
  0
CIRCLE
  8
COSTRUZIONI
 10
4160.907136
 20
1057.0
 40
15.0
  0
LINE
  8
COSTRUZIONI
 10
4153.407136
 11
4168.407136
 20
1057.0
 21
1057.0
  0
CIRCLE
  8
COSTRUZIONI
 10
4160.907136
 20
1632.25
 40
15.0
  0
ENDSEC
  0
EOF
