  0
SECTION
  2
ENTITIES
  0
LINE
  8
COSTRUZIONI
 10
2638.612426
 11
3393.612426
 20
134.5
 21
1984.5
  0
LINE
  8
COSTRUZIONI
 10
2638.612426
 11
3393.612426
 20
1984.5
 21
134.5
  0
LINE
  8
COSTRUZIONI
 10
3508.112426
 11
3508.112426
 20
2114.5
 21
4.5
  0
LINE
  8
COSTRUZIONI
 10
3508.112426
 11
2524.112426
 20
4.5
 21
4.5
  0
LINE
  8
COSTRUZIONI
 10
2524.112426
 11
2524.112426
 20
4.5
 21
2114.5
  0
LINE
  8
COSTRUZIONI
 10
2524.112426
 11
3508.112426
 20
2114.5
 21
2114.5
  0
LINE
  8
COSTRUZIONI
 10
2638.612426
 11
2638.612426
 20
1984.5
 21
134.5
  0
LINE
  8
COSTRUZIONI
 10
2638.612426
 11
3393.612426
 20
134.5
 21
134.5
  0
LINE
  8
COSTRUZIONI
 10
3393.612426
 11
3393.612426
 20
134.5
 21
844.428204
  0
LINE
  8
COSTRUZIONI
 10
3393.612426
 11
3315.542164
 20
844.428204
 21
889.106648
  0
LINE
  8
COSTRUZIONI
 10
3315.542164
 11
3393.612426
 20
889.106648
 21
1124.030238
  0
LINE
  8
COSTRUZIONI
 10
3393.612426
 11
3393.612426
 20
1124.030238
 21
1984.5
  0
LINE
  8
COSTRUZIONI
 10
3393.612426
 11
2638.612426
 20
1984.5
 21
1984.5
  0
LINE
  8
COSTRUZIONI
 10
2588.612426
 11
2588.612426
 20
2034.5
 21
84.5
  0
LINE
  8
COSTRUZIONI
 10
2588.612426
 11
3443.612426
 20
84.5
 21
84.5
  0
LINE
  8
COSTRUZIONI
 10
3443.612426
 11
3443.612426
 20
84.5
 21
873.422766
  0
LINE
  8
COSTRUZIONI
 10
3443.612426
 11
3375.897032
 20
873.422766
 21
912.175273
  0
LINE
  8
COSTRUZIONI
 10
3375.897032
 11
3443.612426
 20
912.175273
 21
1115.939716
  0
LINE
  8
COSTRUZIONI
 10
3443.612426
 11
3443.612426
 20
1115.939716
 21
2034.5
  0
LINE
  8
COSTRUZIONI
 10
3443.612426
 11
2588.612426
 20
2034.5
 21
2034.5
  0
LINE
  8
COSTRUZIONI
 10
4658.396931
 11
3903.396931
 20
134.5
 21
1984.5
  0
LINE
  8
COSTRUZIONI
 10
4658.396931
 11
3903.396931
 20
1984.5
 21
134.5
  0
LINE
  8
COSTRUZIONI
 10
3788.896931
 11
3788.896931
 20
2114.5
 21
4.5
  0
LINE
  8
COSTRUZIONI
 10
3788.896931
 11
4772.896931
 20
4.5
 21
4.5
  0
LINE
  8
COSTRUZIONI
 10
4772.896931
 11
4772.896931
 20
4.5
 21
2114.5
  0
LINE
  8
COSTRUZIONI
 10
4772.896931
 11
3788.896931
 20
2114.5
 21
2114.5
  0
LINE
  8
COSTRUZIONI
 10
4658.396931
 11
4658.396931
 20
1984.5
 21
134.5
  0
LINE
  8
COSTRUZIONI
 10
4658.396931
 11
3903.396931
 20
134.5
 21
134.5
  0
LINE
  8
COSTRUZIONI
 10
3903.396931
 11
3903.396931
 20
134.5
 21
844.428204
  0
LINE
  8
COSTRUZIONI
 10
3903.396931
 11
3981.467193
 20
844.428204
 21
889.106648
  0
LINE
  8
COSTRUZIONI
 10
3981.467193
 11
3903.396931
 20
889.106648
 21
1124.030238
  0
LINE
  8
COSTRUZIONI
 10
3903.396931
 11
3903.396931
 20
1124.030238
 21
1984.5
  0
LINE
  8
COSTRUZIONI
 10
3903.396931
 11
4658.396931
 20
1984.5
 21
1984.5
  0
LINE
  8
COSTRUZIONI
 10
4708.396931
 11
4708.396931
 20
2034.5
 21
84.5
  0
LINE
  8
COSTRUZIONI
 10
4708.396931
 11
3853.396931
 20
84.5
 21
84.5
  0
LINE
  8
COSTRUZIONI
 10
3853.396931
 11
3853.396931
 20
84.5
 21
873.422766
  0
LINE
  8
COSTRUZIONI
 10
3853.396931
 11
3921.112325
 20
873.422766
 21
912.175273
  0
LINE
  8
COSTRUZIONI
 10
3921.112325
 11
3853.396931
 20
912.175273
 21
1115.939716
  0
LINE
  8
COSTRUZIONI
 10
3853.396931
 11
3853.396931
 20
1115.939716
 21
2034.5
  0
LINE
  8
COSTRUZIONI
 10
3853.396931
 11
4708.396931
 20
2034.5
 21
2034.5
  0
CIRCLE
  8
COSTRUZIONI
 10
3016.112426
 20
484.25
 40
15.0
  0
LINE
  8
COSTRUZIONI
 10
3023.612426
 11
3008.612426
 20
484.25
 21
484.25
  0
CIRCLE
  8
COSTRUZIONI
 10
3016.112426
 20
1059.5
 40
15.0
  0
LINE
  8
COSTRUZIONI
 10
3023.612426
 11
3008.612426
 20
1059.5
 21
1059.5
  0
CIRCLE
  8
COSTRUZIONI
 10
3016.112426
 20
1634.75
 40
15.0
  0
CIRCLE
  8
COSTRUZIONI
 10
4280.896931
 20
484.25
 40
15.0
  0
CIRCLE
  8
COSTRUZIONI
 10
4280.896931
 20
1059.5
 40
15.0
  0
CIRCLE
  8
COSTRUZIONI
 10
4280.896931
 20
1634.75
 40
15.0
  0
ENDSEC
  0
EOF
