  0
SECTION
  2
ENTITIES
  0
LINE
  8
COSTRUZIONI
 10
776.0
 11
776.0
 20
2099.0
 21
0.0
  0
LINE
  8
COSTRUZIONI
 10
30.0
 11
30.0
 20
0.0
 21
2099.0
  0
LINE
  8
COSTRUZIONI
 10
776.0
 11
30.0
 20
0.0
 21
0.0
  0
LINE
  8
COSTRUZIONI
 10
776.0
 11
30.0
 20
2099.0
 21
2099.0
  0
CIRCLE
  8
COSTRUZIONI
 10
741.5
 20
1040.0
 40
10.0
  0
ARC
  8
COSTRUZIONI
 10
741.5
 20
939.5
 40
7.0
 50
270.0
 51
0.0
  0
LINE
  8
COSTRUZIONI
 10
748.5
 11
748.5
 20
939.5
 21
950.5
  0
ARC
  8
COSTRUZIONI
 10
741.5
 20
950.5
 40
7.0
 50
0.0
 51
180.0
  0
LINE
  8
COSTRUZIONI
 10
734.5
 11
734.5
 20
950.5
 21
939.5
  0
ARC
  8
COSTRUZIONI
 10
741.5
 20
939.5
 40
7.0
 50
180.0
 51
270.0
  0
LINE
  8
COSTRUZIONI
 10
1144.354074
 11
1144.354074
 20
2099.0
 21
0.0
  0
LINE
  8
COSTRUZIONI
 10
1890.354074
 11
1890.354074
 20
0.0
 21
2099.0
  0
LINE
  8
COSTRUZIONI
 10
1144.354074
 11
1890.354074
 20
0.0
 21
0.0
  0
LINE
  8
COSTRUZIONI
 10
1144.354074
 11
1890.354074
 20
2099.0
 21
2099.0
  0
CIRCLE
  8
COSTRUZIONI
 10
1178.854074
 20
1040.0
 40
10.0
  0
ARC
  8
COSTRUZIONI
 10
1178.854074
 20
939.5
 40
7.0
 50
180.0
 51
270.0
  0
LINE
  8
COSTRUZIONI
 10
1171.854074
 11
1171.854074
 20
939.5
 21
950.5
  0
ARC
  8
COSTRUZIONI
 10
1178.854074
 20
950.5
 40
7.0
 50
0.0
 51
180.0
  0
LINE
  8
COSTRUZIONI
 10
1185.854074
 11
1185.854074
 20
950.5
 21
939.5
  0
ARC
  8
COSTRUZIONI
 10
1178.854074
 20
939.5
 40
7.0
 50
270.0
 51
0.0
  0
LINE
  8
COSTRUZIONI
 10
1775.854074
 11
1775.854074
 20
1969.0
 21
130.0
  0
LINE
  8
COSTRUZIONI
 10
1775.854074
 11
1258.854074
 20
130.0
 21
130.0
  0
LINE
  8
COSTRUZIONI
 10
1258.854074
 11
1258.854074
 20
130.0
 21
839.928204
  0
LINE
  8
COSTRUZIONI
 10
1258.854074
 11
1336.924336
 20
839.928204
 21
884.606648
  0
LINE
  8
COSTRUZIONI
 10
1336.924336
 11
1258.854074
 20
884.606648
 21
1119.530238
  0
LINE
  8
COSTRUZIONI
 10
1258.854074
 11
1258.854074
 20
1119.530238
 21
1969.0
  0
LINE
  8
COSTRUZIONI
 10
1258.854074
 11
1775.854074
 20
1969.0
 21
1969.0
  0
LINE
  8
COSTRUZIONI
 10
1825.854074
 11
1825.854074
 20
2019.0
 21
80.0
  0
LINE
  8
COSTRUZIONI
 10
1825.854074
 11
1208.854074
 20
80.0
 21
80.0
  0
LINE
  8
COSTRUZIONI
 10
1208.854074
 11
1208.854074
 20
80.0
 21
868.922766
  0
LINE
  8
COSTRUZIONI
 10
1208.854074
 11
1276.569468
 20
868.922766
 21
907.675273
  0
LINE
  8
COSTRUZIONI
 10
1276.569468
 11
1208.854074
 20
907.675273
 21
1111.439716
  0
LINE
  8
COSTRUZIONI
 10
1208.854074
 11
1208.854074
 20
1111.439716
 21
2019.0
  0
LINE
  8
COSTRUZIONI
 10
1208.854074
 11
1825.854074
 20
2019.0
 21
2019.0
  0
LINE
  8
COSTRUZIONI
 10
144.5
 11
144.5
 20
1969.0
 21
130.0
  0
LINE
  8
COSTRUZIONI
 10
144.5
 11
661.5
 20
130.0
 21
130.0
  0
LINE
  8
COSTRUZIONI
 10
661.5
 11
661.5
 20
130.0
 21
839.928204
  0
LINE
  8
COSTRUZIONI
 10
661.5
 11
583.429738
 20
839.928204
 21
884.606648
  0
LINE
  8
COSTRUZIONI
 10
583.429738
 11
661.5
 20
884.606648
 21
1119.530238
  0
LINE
  8
COSTRUZIONI
 10
661.5
 11
661.5
 20
1119.530238
 21
1969.0
  0
LINE
  8
COSTRUZIONI
 10
661.5
 11
144.5
 20
1969.0
 21
1969.0
  0
LINE
  8
COSTRUZIONI
 10
94.5
 11
94.5
 20
2019.0
 21
80.0
  0
LINE
  8
COSTRUZIONI
 10
94.5
 11
711.5
 20
80.0
 21
80.0
  0
LINE
  8
COSTRUZIONI
 10
711.5
 11
711.5
 20
80.0
 21
868.922766
  0
LINE
  8
COSTRUZIONI
 10
711.5
 11
643.784606
 20
868.922766
 21
907.675273
  0
LINE
  8
COSTRUZIONI
 10
643.784606
 11
711.5
 20
907.675273
 21
1111.439716
  0
LINE
  8
COSTRUZIONI
 10
711.5
 11
711.5
 20
1111.439716
 21
2019.0
  0
LINE
  8
COSTRUZIONI
 10
711.5
 11
94.5
 20
2019.0
 21
2019.0
  0
LINE
  8
COSTRUZIONI
 10
144.5
 11
661.5
 20
130.0
 21
1969.0
  0
LINE
  8
COSTRUZIONI
 10
144.5
 11
661.5
 20
1969.0
 21
130.0
  0
LINE
  8
COSTRUZIONI
 10
1258.854074
 11
1775.854074
 20
130.0
 21
1969.0
  0
LINE
  8
COSTRUZIONI
 10
1258.854074
 11
1775.854074
 20
1969.0
 21
130.0
  0
ENDSEC
  0
EOF
