  0
SECTION
  2
ENTITIES
  0
LINE
  8
COSTRUZIONI
 10
3396.900128
 11
3396.900128
 20
2107.5
 21
4.5
  0
LINE
  8
COSTRUZIONI
 10
3396.900128
 11
2612.900128
 20
4.5
 21
4.5
  0
LINE
  8
COSTRUZIONI
 10
2612.900128
 11
2612.900128
 20
4.5
 21
2107.5
  0
LINE
  8
COSTRUZIONI
 10
2612.900128
 11
3396.900128
 20
2107.5
 21
2107.5
  0
LINE
  8
COSTRUZIONI
 10
2727.400128
 11
2727.400128
 20
1977.5
 21
134.5
  0
LINE
  8
COSTRUZIONI
 10
2727.400128
 11
3282.400128
 20
134.5
 21
134.5
  0
LINE
  8
COSTRUZIONI
 10
3282.400128
 11
3282.400128
 20
134.5
 21
844.428204
  0
LINE
  8
COSTRUZIONI
 10
3282.400128
 11
3204.329866
 20
844.428204
 21
889.106648
  0
LINE
  8
COSTRUZIONI
 10
3204.329866
 11
3282.400128
 20
889.106648
 21
1124.030238
  0
LINE
  8
COSTRUZIONI
 10
3282.400128
 11
3282.400128
 20
1124.030238
 21
1977.5
  0
LINE
  8
COSTRUZIONI
 10
3282.400128
 11
2727.400128
 20
1977.5
 21
1977.5
  0
LINE
  8
COSTRUZIONI
 10
2677.400128
 11
2677.400128
 20
2027.5
 21
84.5
  0
LINE
  8
COSTRUZIONI
 10
2677.400128
 11
3332.400128
 20
84.5
 21
84.5
  0
LINE
  8
COSTRUZIONI
 10
3332.400128
 11
3332.400128
 20
84.5
 21
873.422766
  0
LINE
  8
COSTRUZIONI
 10
3332.400128
 11
3264.684734
 20
873.422766
 21
912.175273
  0
LINE
  8
COSTRUZIONI
 10
3264.684734
 11
3332.400128
 20
912.175273
 21
1115.939716
  0
LINE
  8
COSTRUZIONI
 10
3332.400128
 11
3332.400128
 20
1115.939716
 21
2027.5
  0
LINE
  8
COSTRUZIONI
 10
3332.400128
 11
2677.400128
 20
2027.5
 21
2027.5
  0
CIRCLE
  8
COSTRUZIONI
 10
3362.400128
 20
1044.5
 40
10.0
  0
ARC
  8
COSTRUZIONI
 10
3362.400128
 20
944.0
 40
7.0
 50
270.0
 51
0.0
  0
LINE
  8
COSTRUZIONI
 10
3369.400128
 11
3369.400128
 20
944.0
 21
955.0
  0
ARC
  8
COSTRUZIONI
 10
3362.400128
 20
955.0
 40
7.0
 50
0.0
 51
180.0
  0
LINE
  8
COSTRUZIONI
 10
3355.400128
 11
3355.400128
 20
955.0
 21
944.0
  0
ARC
  8
COSTRUZIONI
 10
3362.400128
 20
944.0
 40
7.0
 50
180.0
 51
270.0
  0
LINE
  8
COSTRUZIONI
 10
2727.400128
 11
3282.400128
 20
134.5
 21
1977.5
  0
LINE
  8
COSTRUZIONI
 10
2727.400128
 11
3282.400128
 20
1977.5
 21
134.5
  0
LINE
  8
COSTRUZIONI
 10
3637.573182
 11
3637.573182
 20
2107.5
 21
4.5
  0
LINE
  8
COSTRUZIONI
 10
3637.573182
 11
4421.573182
 20
4.5
 21
4.5
  0
LINE
  8
COSTRUZIONI
 10
4421.573182
 11
4421.573182
 20
4.5
 21
2107.5
  0
LINE
  8
COSTRUZIONI
 10
4421.573182
 11
3637.573182
 20
2107.5
 21
2107.5
  0
LINE
  8
COSTRUZIONI
 10
4307.073182
 11
4307.073182
 20
1977.5
 21
134.5
  0
LINE
  8
COSTRUZIONI
 10
4307.073182
 11
3752.073182
 20
134.5
 21
134.5
  0
LINE
  8
COSTRUZIONI
 10
3752.073182
 11
3752.073182
 20
134.5
 21
844.428204
  0
LINE
  8
COSTRUZIONI
 10
3752.073182
 11
3830.143444
 20
844.428204
 21
889.106648
  0
LINE
  8
COSTRUZIONI
 10
3830.143444
 11
3752.073182
 20
889.106648
 21
1124.030238
  0
LINE
  8
COSTRUZIONI
 10
3752.073182
 11
3752.073182
 20
1124.030238
 21
1977.5
  0
LINE
  8
COSTRUZIONI
 10
3752.073182
 11
4307.073182
 20
1977.5
 21
1977.5
  0
LINE
  8
COSTRUZIONI
 10
4357.073182
 11
4357.073182
 20
2027.5
 21
84.5
  0
LINE
  8
COSTRUZIONI
 10
4357.073182
 11
3702.073182
 20
84.5
 21
84.5
  0
LINE
  8
COSTRUZIONI
 10
3702.073182
 11
3702.073182
 20
84.5
 21
873.422766
  0
LINE
  8
COSTRUZIONI
 10
3702.073182
 11
3769.788576
 20
873.422766
 21
912.175273
  0
LINE
  8
COSTRUZIONI
 10
3769.788576
 11
3702.073182
 20
912.175273
 21
1115.939716
  0
LINE
  8
COSTRUZIONI
 10
3702.073182
 11
3702.073182
 20
1115.939716
 21
2027.5
  0
LINE
  8
COSTRUZIONI
 10
3702.073182
 11
4357.073182
 20
2027.5
 21
2027.5
  0
CIRCLE
  8
COSTRUZIONI
 10
3672.073182
 20
1044.5
 40
10.0
  0
ARC
  8
COSTRUZIONI
 10
3672.073182
 20
944.0
 40
7.0
 50
180.0
 51
270.0
  0
LINE
  8
COSTRUZIONI
 10
3665.073182
 11
3665.073182
 20
944.0
 21
955.0
  0
ARC
  8
COSTRUZIONI
 10
3672.073182
 20
955.0
 40
7.0
 50
0.0
 51
180.0
  0
LINE
  8
COSTRUZIONI
 10
3679.073182
 11
3679.073182
 20
955.0
 21
944.0
  0
ARC
  8
COSTRUZIONI
 10
3672.073182
 20
944.0
 40
7.0
 50
270.0
 51
0.0
  0
LINE
  8
COSTRUZIONI
 10
4307.073182
 11
3752.073182
 20
134.5
 21
1977.5
  0
LINE
  8
COSTRUZIONI
 10
4307.073182
 11
3752.073182
 20
1977.5
 21
134.5
  0
ENDSEC
  0
EOF
