  0
SECTION
  2
ENTITIES
  0
LINE
  8
COSTRUZIONI
 10
2531.88
 11
4531.88
 20
-744.061
 21
-744.061
  0
LINE
  8
COSTRUZIONI
 10
4531.88
 11
4531.88
 20
-744.061
 21
-544.061
  0
LINE
  8
COSTRUZIONI
 10
4531.88
 11
2531.88
 20
-544.061
 21
-544.061
  0
LINE
  8
COSTRUZIONI
 10
2531.88
 11
2531.88
 20
-544.061
 21
-744.061
  0
LINE
  8
COSTRUZIONI
 10
3531.88
 11
3531.88
 20
-744.061
 21
-544.061
  0
LINE
  8
COSTRUZIONI
 10
3531.88
 11
4531.88
 20
-644.061
 21
-644.061
  0
LINE
  8
COSTRUZIONI
 10
4031.88
 11
4031.88
 20
-744.061
 21
-544.061
  0
LINE
  8
APS_GEOMETRY
 10
2594.566
 11
2611.8
 20
-598.046
 21
-598.046
  0
ARC
  8
APS_GEOMETRY
 10
2610.929
 20
-573.351
 40
24.711
 50
272.021
 51
278.44
  0
ARC
  8
APS_GEOMETRY
 10
2611.901
 20
-579.906
 40
18.083
 50
278.44
 51
285.945
  0
ARC
  8
APS_GEOMETRY
 10
2619.219
 20
-606.104
 40
9.118
 50
98.584
 51
104.931
  0
ARC
  8
APS_GEOMETRY
 10
2618.603
 20
-602.023
 40
4.991
 50
90.0
 51
98.584
  0
ARC
  8
APS_GEOMETRY
 10
2618.603
 20
-600.784
 40
3.752
 50
52.871
 51
90.0
  0
ARC
  8
APS_GEOMETRY
 10
2613.514
 20
-607.505
 40
12.182
 50
32.518
 51
52.871
  0
ARC
  8
APS_GEOMETRY
 10
2609.483
 20
-610.075
 40
16.963
 50
17.209
 51
32.518
  0
ARC
  8
APS_GEOMETRY
 10
2612.843
 20
-609.035
 40
13.445
 50
360.0
 51
17.209
  0
ARC
  8
APS_GEOMETRY
 10
2619.57
 20
-609.035
 40
6.717
 50
337.348
 51
360.0
  0
ARC
  8
APS_GEOMETRY
 10
2622.27
 20
-610.161
 40
3.792
 50
307.042
 51
337.348
  0
ARC
  8
APS_GEOMETRY
 10
2621.801
 20
-609.517
 40
4.589
 50
287.186
 51
306.87
  0
ARC
  8
APS_GEOMETRY
 10
2621.382
 20
-608.163
 40
6.006
 50
270.0
 51
287.186
  0
ARC
  8
APS_GEOMETRY
 10
2621.382
 20
-608.776
 40
5.393
 50
252.221
 51
270.0
  0
ARC
  8
APS_GEOMETRY
 10
2621.131
 20
-609.559
 40
4.571
 50
232.896
 51
252.221
  0
ARC
  8
APS_GEOMETRY
 10
2622.102
 20
-608.276
 40
6.18
 50
218.3
 51
232.896
  0
ARC
  8
APS_GEOMETRY
 10
2629.682
 20
-602.289
 40
15.839
 50
209.197
 51
218.3
  0
ARC
  8
APS_GEOMETRY
 10
2591.128
 20
-623.177
 40
28.012
 50
28.025
 51
32.699
  0
ARC
  8
APS_GEOMETRY
 10
2611.284
 20
-610.237
 40
4.06
 50
32.699
 51
45.0
  0
ARC
  8
APS_GEOMETRY
 10
2612.659
 20
-608.863
 40
2.116
 50
45.0
 51
67.557
  0
ARC
  8
APS_GEOMETRY
 10
2612.651
 20
-608.883
 40
2.137
 50
67.557
 51
90.0
  0
ARC
  8
APS_GEOMETRY
 10
2612.651
 20
-608.714
 40
1.969
 50
90.0
 51
120.801
  0
ARC
  8
APS_GEOMETRY
 10
2612.584
 20
-608.603
 40
1.839
 50
120.801
 51
152.7
  0
ARC
  8
APS_GEOMETRY
 10
2614.043
 20
-609.356
 40
3.481
 50
152.7
 51
171.085
  0
ARC
  8
APS_GEOMETRY
 10
2625.132
 20
-611.095
 40
14.705
 50
171.085
 51
180.0
  0
LINE
  8
APS_GEOMETRY
 10
2610.427
 11
2610.427
 20
-611.095
 21
-629.409
  0
ARC
  8
APS_GEOMETRY
 10
2629.854
 20
-629.409
 40
19.427
 50
180.0
 51
188.194
  0
ARC
  8
APS_GEOMETRY
 10
2615.346
 20
-631.498
 40
4.77
 50
188.194
 51
204.775
  0
ARC
  8
APS_GEOMETRY
 10
2613.937
 20
-632.149
 40
3.218
 50
204.775
 51
228.576
  0
ARC
  8
APS_GEOMETRY
 10
2615.259
 20
-630.65
 40
5.216
 50
228.576
 51
247.218
  0
ARC
  8
APS_GEOMETRY
 10
2607.59
 20
-648.722
 40
14.416
 50
59.381
 51
66.93
  0
ARC
  8
APS_GEOMETRY
 10
2613.251
 20
-639.157
 40
3.301
 50
43.568
 51
59.381
  0
ARC
  8
APS_GEOMETRY
 10
2614.157
 20
-638.295
 40
2.051
 50
19.041
 51
43.568
  0
ARC
  8
APS_GEOMETRY
 10
2612.899
 20
-638.729
 40
3.382
 50
360.0
 51
19.041
  0
ARC
  8
APS_GEOMETRY
 10
2613.533
 20
-638.729
 40
2.747
 50
317.66
 51
360.0
  0
ARC
  8
APS_GEOMETRY
 10
2611.011
 20
-636.431
 40
6.16
 50
289.747
 51
317.66
  0
ARC
  8
APS_GEOMETRY
 10
2608.898
 20
-630.546
 40
12.412
 50
281.964
 51
289.747
  0
ARC
  8
APS_GEOMETRY
 10
2605.972
 20
-616.734
 40
26.531
 50
276.643
 51
281.964
  0
ARC
  8
APS_GEOMETRY
 10
2604.74
 20
-606.159
 40
37.178
 50
272.836
 51
276.643
  0
ARC
  8
APS_GEOMETRY
 10
2603.265
 20
-576.383
 40
66.99
 50
270.0
 51
272.836
  0
ARC
  8
APS_GEOMETRY
 10
2603.265
 20
-557.933
 40
85.44
 50
267.283
 51
270.0
  0
ARC
  8
APS_GEOMETRY
 10
2601.471
 20
-595.736
 40
47.595
 50
263.643
 51
267.283
  0
ARC
  8
APS_GEOMETRY
 10
2599.968
 20
-609.22
 40
34.027
 50
258.563
 51
263.643
  0
ARC
  8
APS_GEOMETRY
 10
2596.38
 20
-626.959
 40
15.929
 50
251.136
 51
258.563
  0
ARC
  8
APS_GEOMETRY
 10
2593.176
 20
-636.252
 40
6.099
 50
222.558
 51
251.395
  0
ARC
  8
APS_GEOMETRY
 10
2590.798
 20
-638.435
 40
2.871
 50
180.0
 51
222.558
  0
ARC
  8
APS_GEOMETRY
 10
2590.318
 20
-638.435
 40
2.392
 50
150.642
 51
180.0
  0
ARC
  8
APS_GEOMETRY
 10
2590.51
 20
-638.543
 40
2.612
 50
122.574
 51
150.642
  0
ARC
  8
APS_GEOMETRY
 10
2590.003
 20
-637.961
 40
1.851
 50
108.677
 51
119.055
  0
ARC
  8
APS_GEOMETRY
 10
2613.119
 20
-706.344
 40
74.036
 50
107.038
 51
108.677
  0
ARC
  8
APS_GEOMETRY
 10
2590.564
 20
-632.581
 40
3.099
 50
286.144
 51
308.66
  0
ARC
  8
APS_GEOMETRY
 10
2591.072
 20
-633.215
 40
2.287
 50
308.66
 51
334.933
  0
ARC
  8
APS_GEOMETRY
 10
2589.007
 20
-632.249
 40
4.566
 50
334.933
 51
348.829
  0
ARC
  8
APS_GEOMETRY
 10
2563.181
 20
-627.149
 40
30.891
 50
348.829
 51
354.161
  0
ARC
  8
APS_GEOMETRY
 10
2545.725
 20
-625.35
 40
48.439
 50
354.144
 51
355.66
  0
ARC
  8
APS_GEOMETRY
 10
2468.349
 20
-619.478
 40
126.038
 50
355.66
 51
356.6
  0
ARC
  8
APS_GEOMETRY
 10
2409.2
 20
-615.964
 40
185.291
 50
356.6
 51
357.24
  0
ARC
  8
APS_GEOMETRY
 10
2241.375
 20
-607.873
 40
353.311
 50
357.24
 51
357.703
  0
ARC
  8
APS_GEOMETRY
 10
2257.895
 20
-608.535
 40
336.777
 50
357.703
 51
358.674
  0
ARC
  8
APS_GEOMETRY
 10
2413.727
 20
-612.141
 40
180.903
 50
358.674
 51
0.0
  0
ARC
  8
APS_GEOMETRY
 10
2567.821
 20
-612.141
 40
26.81
 50
0.0
 51
6.242
  0
ARC
  8
APS_GEOMETRY
 10
2589.14
 20
-609.81
 40
5.364
 50
6.242
 51
20.225
  0
ARC
  8
APS_GEOMETRY
 10
2592.095
 20
-608.721
 40
2.215
 50
20.225
 51
50.44
  0
ARC
  8
APS_GEOMETRY
 10
2592.669
 20
-608.026
 40
1.314
 50
50.44
 51
90.0
  0
ARC
  8
APS_GEOMETRY
 10
2592.669
 20
-608.475
 40
1.762
 50
90.0
 51
126.747
  0
ARC
  8
APS_GEOMETRY
 10
2595.159
 20
-611.81
 40
5.924
 50
126.747
 51
146.547
  0
ARC
  8
APS_GEOMETRY
 10
2551.171
 20
-582.897
 40
46.715
 50
324.255
 51
326.701
  0
ARC
  8
APS_GEOMETRY
 10
2569.794
 20
-596.301
 40
23.77
 50
320.826
 51
324.255
  0
ARC
  8
APS_GEOMETRY
 10
2575.881
 20
-601.26
 40
15.918
 50
315.722
 51
320.826
  0
ARC
  8
APS_GEOMETRY
 10
2582.875
 20
-608.081
 40
6.149
 50
307.504
 51
315.722
  0
ARC
  8
APS_GEOMETRY
 10
2582.229
 20
-607.219
 40
7.226
 50
291.306
 51
307.405
  0
ARC
  8
APS_GEOMETRY
 10
2583.348
 20
-610.088
 40
4.146
 50
270.0
 51
291.306
  0
ARC
  8
APS_GEOMETRY
 10
2583.348
 20
-610.356
 40
3.879
 50
245.532
 51
270.0
  0
ARC
  8
APS_GEOMETRY
 10
2583.319
 20
-610.42
 40
3.808
 50
220.833
 51
245.532
  0
ARC
  8
APS_GEOMETRY
 10
2583.712
 20
-610.08
 40
4.328
 50
198.684
 51
220.833
  0
ARC
  8
APS_GEOMETRY
 10
2585.353
 20
-609.525
 40
6.06
 50
180.0
 51
198.684
  0
ARC
  8
APS_GEOMETRY
 10
2589.201
 20
-609.525
 40
9.908
 50
168.408
 51
180.0
  0
ARC
  8
APS_GEOMETRY
 10
2595.553
 20
-610.828
 40
16.393
 50
159.402
 51
168.408
  0
ARC
  8
APS_GEOMETRY
 10
2597.517
 20
-611.566
 40
18.49
 50
151.39
 51
159.402
  0
ARC
  8
APS_GEOMETRY
 10
2597.114
 20
-611.347
 40
18.032
 50
143.276
 51
151.39
  0
ARC
  8
APS_GEOMETRY
 10
2592.065
 20
-607.571
 40
11.726
 50
124.216
 51
143.31
  0
ARC
  8
APS_GEOMETRY
 10
2587.567
 20
-600.957
 40
3.728
 50
90.0
 51
124.216
  0
ARC
  8
APS_GEOMETRY
 10
2587.567
 20
-602.613
 40
5.384
 50
82.725
 51
90.0
  0
ARC
  8
APS_GEOMETRY
 10
2587.146
 20
-605.909
 40
8.707
 50
77.005
 51
82.725
  0
ARC
  8
APS_GEOMETRY
 10
2599.995
 20
-543.962
 40
54.561
 50
258.486
 51
260.378
  0
ARC
  8
APS_GEOMETRY
 10
2594.491
 20
-576.427
 40
21.633
 50
260.378
 51
263.382
  0
ARC
  8
APS_GEOMETRY
 10
2594.02
 20
-580.484
 40
17.548
 50
263.382
 51
267.084
  0
ARC
  8
APS_GEOMETRY
 10
2594.566
 20
-569.773
 40
28.273
 50
267.084
 51
270.0
  0
ARC
  8
APS_GEOMETRY
 10
2654.293
 20
-622.912
 40
25.782
 50
71.91
 51
90.0
  0
ARC
  8
APS_GEOMETRY
 10
2655.291
 20
-619.855
 40
22.566
 50
52.561
 51
71.91
  0
ARC
  8
APS_GEOMETRY
 10
2655.03
 20
-619.932
 40
22.786
 50
38.846
 51
52.156
  0
ARC
  8
APS_GEOMETRY
 10
2651.457
 20
-622.808
 40
27.372
 50
26.707
 51
38.846
  0
ARC
  8
APS_GEOMETRY
 10
2652.165
 20
-622.23
 40
26.482
 50
13.868
 51
26.278
  0
ARC
  8
APS_GEOMETRY
 10
2657.264
 20
-620.971
 40
21.229
 50
360.0
 51
13.868
  0
ARC
  8
APS_GEOMETRY
 10
2657.594
 20
-620.971
 40
20.899
 50
339.712
 51
360.0
  0
ARC
  8
APS_GEOMETRY
 10
2656.418
 20
-620.537
 40
22.153
 50
320.013
 51
339.712
  0
ARC
  8
APS_GEOMETRY
 10
2656.223
 20
-620.429
 40
22.372
 50
303.344
 51
320.123
  0
ARC
  8
APS_GEOMETRY
 10
2653.927
 20
-616.94
 40
26.548
 50
287.949
 51
303.344
  0
ARC
  8
APS_GEOMETRY
 10
2653.173
 20
-614.325
 40
29.269
 50
279.039
 51
287.776
  0
ARC
  8
APS_GEOMETRY
 10
2653.475
 20
-616.224
 40
27.346
 50
270.0
 51
279.039
  0
ARC
  8
APS_GEOMETRY
 10
2653.475
 20
-617.559
 40
26.011
 50
257.728
 51
270.0
  0
ARC
  8
APS_GEOMETRY
 10
2653.516
 20
-617.371
 40
26.203
 50
245.501
 51
257.728
  0
ARC
  8
APS_GEOMETRY
 10
2652.043
 20
-620.593
 40
22.66
 50
228.665
 51
245.511
  0
ARC
  8
APS_GEOMETRY
 10
2651.553
 20
-621.15
 40
21.918
 50
211.535
 51
228.665
  0
ARC
  8
APS_GEOMETRY
 10
2652.195
 20
-620.679
 40
22.712
 50
195.642
 51
211.701
  0
ARC
  8
APS_GEOMETRY
 10
2653.369
 20
-620.35
 40
23.931
 50
180.0
 51
195.642
  0
ARC
  8
APS_GEOMETRY
 10
2653.621
 20
-620.35
 40
24.183
 50
162.181
 51
180.0
  0
ARC
  8
APS_GEOMETRY
 10
2651.414
 20
-619.641
 40
21.865
 50
143.434
 51
162.181
  0
ARC
  8
APS_GEOMETRY
 10
2651.117
 20
-619.403
 40
21.485
 50
126.384
 51
143.471
  0
ARC
  8
APS_GEOMETRY
 10
2653.151
 20
-622.164
 40
24.914
 50
110.525
 51
126.384
  0
ARC
  8
APS_GEOMETRY
 10
2653.051
 20
-621.414
 40
24.177
 50
99.77
 51
110.925
  0
ARC
  8
APS_GEOMETRY
 10
2654.293
 20
-628.626
 40
31.496
 50
90.0
 51
99.77
  0
ARC
  8
APS_GEOMETRY
 10
2651.186
 20
-611.324
 40
4.807
 50
90.0
 51
119.604
  0
ARC
  8
APS_GEOMETRY
 10
2651.607
 20
-612.065
 40
5.659
 50
119.604
 51
146.842
  0
ARC
  8
APS_GEOMETRY
 10
2652.453
 20
-612.758
 40
6.748
 50
145.84
 51
164.055
  0
ARC
  8
APS_GEOMETRY
 10
2654.414
 20
-613.319
 40
8.788
 50
164.055
 51
180.0
  0
ARC
  8
APS_GEOMETRY
 10
2666.679
 20
-613.319
 40
21.053
 50
180.0
 51
189.977
  0
ARC
  8
APS_GEOMETRY
 10
2685.33
 20
-610.038
 40
39.991
 50
189.977
 51
197.211
  0
ARC
  8
APS_GEOMETRY
 10
2689.41
 20
-608.774
 40
44.261
 50
197.211
 51
203.76
  0
ARC
  8
APS_GEOMETRY
 10
2679.247
 20
-613.248
 40
33.157
 50
203.76
 51
211.329
  0
ARC
  8
APS_GEOMETRY
 10
2658.379
 20
-625.772
 40
8.821
 50
212.32
 51
224.441
  0
ARC
  8
APS_GEOMETRY
 10
2657.524
 20
-626.611
 40
7.623
 50
224.441
 51
237.484
  0
ARC
  8
APS_GEOMETRY
 10
2656.971
 20
-627.478
 40
6.595
 50
237.484
 51
252.416
  0
ARC
  8
APS_GEOMETRY
 10
2656.418
 20
-629.221
 40
4.766
 50
252.416
 51
270.0
  0
ARC
  8
APS_GEOMETRY
 10
2656.418
 20
-628.656
 40
5.331
 50
270.0
 51
294.953
  0
ARC
  8
APS_GEOMETRY
 10
2656.568
 20
-628.977
 40
4.977
 50
294.953
 51
320.793
  0
ARC
  8
APS_GEOMETRY
 10
2655.767
 20
-628.324
 40
6.011
 50
320.793
 51
342.777
  0
ARC
  8
APS_GEOMETRY
 10
2652.199
 20
-627.218
 40
9.746
 50
342.777
 51
0.0
  0
ARC
  8
APS_GEOMETRY
 10
2635.438
 20
-627.218
 40
26.507
 50
0.0
 51
8.499
  0
ARC
  8
APS_GEOMETRY
 10
2623.771
 20
-628.961
 40
38.304
 50
8.499
 51
15.566
  0
ARC
  8
APS_GEOMETRY
 10
2625.174
 20
-628.57
 40
36.848
 50
15.566
 51
22.909
  0
ARC
  8
APS_GEOMETRY
 10
2637.237
 20
-623.472
 40
23.751
 50
22.909
 51
32.057
  0
ARC
  8
APS_GEOMETRY
 10
2646.713
 20
-617.503
 40
12.552
 50
31.921
 51
42.51
  0
ARC
  8
APS_GEOMETRY
 10
2649.315
 20
-615.118
 40
9.022
 50
42.51
 51
55.008
  0
ARC
  8
APS_GEOMETRY
 10
2650.194
 20
-613.862
 40
7.489
 50
55.008
 51
69.88
  0
ARC
  8
APS_GEOMETRY
 10
2650.982
 20
-611.711
 40
5.198
 50
69.88
 51
87.754
  0
ARC
  8
APS_GEOMETRY
 10
2702.713
 20
-613.114
 40
15.983
 50
83.923
 51
90.0
  0
ARC
  8
APS_GEOMETRY
 10
2701.428
 20
-625.189
 40
28.127
 50
79.342
 51
83.923
  0
ARC
  8
APS_GEOMETRY
 10
2699.877
 20
-633.429
 40
36.512
 50
75.808
 51
79.342
  0
ARC
  8
APS_GEOMETRY
 10
2694.466
 20
-654.824
 40
58.58
 50
73.018
 51
75.808
  0
ARC
  8
APS_GEOMETRY
 10
2713.518
 20
-592.331
 40
6.752
 50
253.288
 51
259.046
  0
ARC
  8
APS_GEOMETRY
 10
2712.59
 20
-597.125
 40
1.87
 50
259.046
 51
270.0
  0
ARC
  8
APS_GEOMETRY
 10
2712.59
 20
-597.885
 40
1.11
 50
270.0
 51
286.699
  0
ARC
  8
APS_GEOMETRY
 10
2703.717
 20
-568.308
 40
31.989
 50
286.699
 51
289.799
  0
ARC
  8
APS_GEOMETRY
 10
2715.606
 20
-601.217
 40
3.002
 50
100.008
 51
110.556
  0
ARC
  8
APS_GEOMETRY
 10
2715.664
 20
-601.544
 40
3.334
 50
90.0
 51
100.008
  0
ARC
  8
APS_GEOMETRY
 10
2715.664
 20
-601.389
 40
3.179
 50
53.356
 51
90.0
  0
ARC
  8
APS_GEOMETRY
 10
2710.11
 20
-608.855
 40
12.484
 50
35.101
 51
53.356
  0
ARC
  8
APS_GEOMETRY
 10
2707.339
 20
-610.803
 40
15.871
 50
20.245
 51
35.101
  0
ARC
  8
APS_GEOMETRY
 10
2714.172
 20
-608.282
 40
8.588
 50
360.0
 51
20.245
  0
ARC
  8
APS_GEOMETRY
 10
2717.611
 20
-608.282
 40
5.15
 50
340.481
 51
360.0
  0
ARC
  8
APS_GEOMETRY
 10
2718.459
 20
-608.583
 40
4.25
 50
318.972
 51
340.481
  0
ARC
  8
APS_GEOMETRY
 10
2718.837
 20
-608.912
 40
3.748
 50
295.017
 51
318.972
  0
ARC
  8
APS_GEOMETRY
 10
2718.967
 20
-609.19
 40
3.442
 50
270.0
 51
295.017
  0
ARC
  8
APS_GEOMETRY
 10
2718.967
 20
-607.347
 40
5.285
 50
256.171
 51
270.0
  0
ARC
  8
APS_GEOMETRY
 10
2718.391
 20
-609.688
 40
2.874
 50
237.381
 51
256.171
  0
ARC
  8
APS_GEOMETRY
 10
2719.411
 20
-608.093
 40
4.768
 50
231.559
 51
237.381
  0
ARC
  8
APS_GEOMETRY
 10
2734.254
 20
-589.394
 40
28.642
 50
229.185
 51
231.559
  0
ARC
  8
APS_GEOMETRY
 10
2750.161
 20
-570.975
 40
52.979
 50
227.9
 51
229.185
  0
ARC
  8
APS_GEOMETRY
 10
2805.214
 20
-510.046
 40
135.095
 50
227.095
 51
227.9
  0
ARC
  8
APS_GEOMETRY
 10
2701.852
 20
-621.208
 40
16.696
 50
46.975
 51
64.612
  0
ARC
  8
APS_GEOMETRY
 10
2705.526
 20
-613.466
 40
8.127
 50
64.612
 51
90.0
  0
ARC
  8
APS_GEOMETRY
 10
2705.526
 20
-611.195
 40
5.856
 50
90.0
 51
106.966
  0
ARC
  8
APS_GEOMETRY
 10
2704.848
 20
-608.972
 40
3.531
 50
106.966
 51
128.868
  0
ARC
  8
APS_GEOMETRY
 10
2704.455
 20
-608.484
 40
2.905
 50
128.868
 51
154.741
  0
ARC
  8
APS_GEOMETRY
 10
2704.582
 20
-608.544
 40
3.046
 50
154.741
 51
180.0
  0
ARC
  8
APS_GEOMETRY
 10
2704.397
 20
-608.544
 40
2.861
 50
180.0
 51
206.64
  0
ARC
  8
APS_GEOMETRY
 10
2705.317
 20
-608.082
 40
3.891
 50
206.64
 51
229.43
  0
ARC
  8
APS_GEOMETRY
 10
2706.793
 20
-606.359
 40
6.159
 50
229.43
 51
244.493
  0
ARC
  8
APS_GEOMETRY
 10
2710.839
 20
-597.88
 40
15.554
 50
244.493
 51
253.956
  0
ARC
  8
APS_GEOMETRY
 10
2638.768
 20
-842.809
 40
239.758
 50
72.737
 51
73.58
  0
ARC
  8
APS_GEOMETRY
 10
2680.071
 20
-709.893
 40
100.573
 50
71.435
 51
72.737
  0
ARC
  8
APS_GEOMETRY
 10
2693.752
 20
-669.159
 40
57.603
 50
69.164
 51
71.435
  0
ARC
  8
APS_GEOMETRY
 10
2709.897
 20
-626.737
 40
12.212
 50
64.231
 51
69.164
  0
ARC
  8
APS_GEOMETRY
 10
2708.04
 20
-630.476
 40
16.387
 50
34.939
 51
64.068
  0
ARC
  8
APS_GEOMETRY
 10
2712.048
 20
-627.676
 40
11.498
 50
360.0
 51
34.939
  0
ARC
  8
APS_GEOMETRY
 10
2709.584
 20
-627.676
 40
13.962
 50
333.435
 51
360.0
  0
ARC
  8
APS_GEOMETRY
 10
2708.671
 20
-627.219
 40
14.982
 50
307.807
 51
333.435
  0
ARC
  8
APS_GEOMETRY
 10
2706.296
 20
-624.147
 40
18.866
 50
296.732
 51
307.786
  0
ARC
  8
APS_GEOMETRY
 10
2704.89
 20
-621.356
 40
21.99
 50
286.496
 51
296.732
  0
ARC
  8
APS_GEOMETRY
 10
2703.965
 20
-618.231
 40
25.25
 50
277.544
 51
286.496
  0
ARC
  8
APS_GEOMETRY
 10
2702.615
 20
-608.04
 40
35.53
 50
270.0
 51
277.544
  0
ARC
  8
APS_GEOMETRY
 10
2702.615
 20
-606.499
 40
37.071
 50
263.555
 51
270.0
  0
ARC
  8
APS_GEOMETRY
 10
2703.815
 20
-595.875
 40
47.762
 50
257.878
 51
263.555
  0
ARC
  8
APS_GEOMETRY
 10
2703.178
 20
-598.841
 40
44.729
 50
254.839
 51
257.878
  0
ARC
  8
APS_GEOMETRY
 10
2698.012
 20
-617.908
 40
24.974
 50
250.772
 51
254.839
  0
ARC
  8
APS_GEOMETRY
 10
2695.688
 20
-624.571
 40
17.918
 50
245.121
 51
250.772
  0
ARC
  8
APS_GEOMETRY
 10
2691.754
 20
-633.053
 40
8.568
 50
236.944
 51
245.121
  0
ARC
  8
APS_GEOMETRY
 10
2689.435
 20
-636.703
 40
4.243
 50
211.802
 51
236.31
  0
ARC
  8
APS_GEOMETRY
 10
2700.459
 20
-629.867
 40
17.215
 50
199.704
 51
211.802
  0
ARC
  8
APS_GEOMETRY
 10
2705.724
 20
-627.982
 40
22.807
 50
190.413
 51
199.704
  0
ARC
  8
APS_GEOMETRY
 10
2701.161
 20
-628.82
 40
18.168
 50
180.0
 51
190.413
  0
ARC
  8
APS_GEOMETRY
 10
2688.862
 20
-628.82
 40
5.869
 50
164.876
 51
180.0
  0
ARC
  8
APS_GEOMETRY
 10
2685.555
 20
-627.927
 40
2.443
 50
141.34
 51
164.876
  0
ARC
  8
APS_GEOMETRY
 10
2685.875
 20
-628.141
 40
2.827
 50
116.928
 51
142.001
  0
ARC
  8
APS_GEOMETRY
 10
2685.708
 20
-627.811
 40
2.457
 50
90.0
 51
116.928
  0
ARC
  8
APS_GEOMETRY
 10
2685.708
 20
-627.817
 40
2.464
 50
62.21
 51
90.0
  0
ARC
  8
APS_GEOMETRY
 10
2684.724
 20
-629.684
 40
4.573
 50
41.906
 51
62.21
  0
ARC
  8
APS_GEOMETRY
 10
2684.891
 20
-629.719
 40
4.475
 50
37.313
 51
43.668
  0
ARC
  8
APS_GEOMETRY
 10
2659.823
 20
-648.824
 40
35.993
 50
35.074
 51
37.313
  0
ARC
  8
APS_GEOMETRY
 10
2631.356
 20
-668.812
 40
70.777
 50
33.934
 51
35.074
  0
ARC
  8
APS_GEOMETRY
 10
2529.858
 20
-737.102
 40
193.11
 50
33.243
 51
33.934
  0
ARC
  8
APS_GEOMETRY
 10
2696.978
 20
-627.532
 40
6.727
 50
213.453
 51
231.637
  0
ARC
  8
APS_GEOMETRY
 10
2700.156
 20
-623.517
 40
11.848
 50
231.637
 51
245.313
  0
ARC
  8
APS_GEOMETRY
 10
2700.856
 20
-621.994
 40
13.524
 50
245.313
 51
257.398
  0
ARC
  8
APS_GEOMETRY
 10
2700.62
 20
-623.049
 40
12.443
 50
257.398
 51
270.0
  0
ARC
  8
APS_GEOMETRY
 10
2700.62
 20
-624.986
 40
10.506
 50
270.0
 51
282.907
  0
ARC
  8
APS_GEOMETRY
 10
2701.751
 20
-629.919
 40
5.445
 50
282.907
 51
300.872
  0
ARC
  8
APS_GEOMETRY
 10
2702.731
 20
-631.559
 40
3.535
 50
300.872
 51
326.876
  0
ARC
  8
APS_GEOMETRY
 10
2703.847
 20
-632.287
 40
2.202
 50
326.876
 51
0.0
  0
ARC
  8
APS_GEOMETRY
 10
2703.518
 20
-632.287
 40
2.531
 50
0.0
 51
27.553
  0
ARC
  8
APS_GEOMETRY
 10
2702.718
 20
-632.704
 40
3.434
 50
27.553
 51
51.147
  0
ARC
  8
APS_GEOMETRY
 10
2701.063
 20
-634.758
 40
6.071
 50
51.147
 51
65.225
  0
ARC
  8
APS_GEOMETRY
 10
2694.96
 20
-647.982
 40
20.636
 50
65.225
 51
72.848
  0
ARC
  8
APS_GEOMETRY
 10
2730.601
 20
-534.343
 40
98.462
 50
251.106
 51
252.532
  0
ARC
  8
APS_GEOMETRY
 10
2717.985
 20
-571.204
 40
59.501
 50
249.271
 51
251.106
  0
ARC
  8
APS_GEOMETRY
 10
2712.74
 20
-585.064
 40
44.683
 50
246.83
 51
249.271
  0
ARC
  8
APS_GEOMETRY
 10
2704.256
 20
-604.886
 40
23.121
 50
243.435
 51
246.83
  0
ARC
  8
APS_GEOMETRY
 10
2703.29
 20
-606.818
 40
20.961
 50
235.981
 51
243.435
  0
ARC
  8
APS_GEOMETRY
 10
2704.032
 20
-605.719
 40
22.287
 50
228.752
 51
235.981
  0
ARC
  8
APS_GEOMETRY
 10
2700.558
 20
-609.813
 40
16.918
 50
206.421
 51
228.457
  0
ARC
  8
APS_GEOMETRY
 10
2696.003
 20
-612.076
 40
11.833
 50
180.0
 51
206.421
  0
ARC
  8
APS_GEOMETRY
 10
2696.218
 20
-612.076
 40
12.047
 50
166.555
 51
180.0
  0
ARC
  8
APS_GEOMETRY
 10
2697.613
 20
-612.41
 40
13.482
 50
153.848
 51
166.555
  0
ARC
  8
APS_GEOMETRY
 10
2697.729
 20
-612.467
 40
13.611
 50
141.244
 51
153.848
  0
ARC
  8
APS_GEOMETRY
 10
2698.589
 20
-613.157
 40
14.714
 50
129.123
 51
141.244
  0
ARC
  8
APS_GEOMETRY
 10
2701.342
 20
-616.084
 40
18.725
 50
108.978
 51
130.006
  0
ARC
  8
APS_GEOMETRY
 10
2702.713
 20
-620.071
 40
22.94
 50
90.0
 51
108.978
  0
ARC
  8
APS_GEOMETRY
 10
2752.704
 20
-618.394
 40
21.264
 50
77.257
 51
90.0
  0
ARC
  8
APS_GEOMETRY
 10
2752.488
 20
-619.35
 40
22.243
 50
64.799
 51
77.257
  0
ARC
  8
APS_GEOMETRY
 10
2770.805
 20
-580.351
 40
20.843
 50
244.885
 51
251.175
  0
ARC
  8
APS_GEOMETRY
 10
2764.837
 20
-597.859
 40
2.346
 50
251.175
 51
270.0
  0
ARC
  8
APS_GEOMETRY
 10
2764.837
 20
-596.398
 40
3.806
 50
270.0
 51
278.82
  0
ARC
  8
APS_GEOMETRY
 10
2762.378
 20
-580.551
 40
19.844
 50
278.82
 51
282.68
  0
ARC
  8
APS_GEOMETRY
 10
2767.523
 20
-603.331
 40
3.511
 50
95.906
 51
102.995
  0
ARC
  8
APS_GEOMETRY
 10
2767.682
 20
-604.868
 40
5.055
 50
90.0
 51
95.906
  0
ARC
  8
APS_GEOMETRY
 10
2767.682
 20
-603.168
 40
3.356
 50
62.447
 51
90.0
  0
ARC
  8
APS_GEOMETRY
 10
2767.085
 20
-604.311
 40
4.645
 50
39.094
 51
62.447
  0
ARC
  8
APS_GEOMETRY
 10
2760.851
 20
-609.525
 40
12.772
 50
18.435
 51
39.611
  0
ARC
  8
APS_GEOMETRY
 10
2757.025
 20
-610.801
 40
16.806
 50
360.0
 51
18.435
  0
ARC
  8
APS_GEOMETRY
 10
2765.497
 20
-610.801
 40
8.333
 50
334.877
 51
360.0
  0
ARC
  8
APS_GEOMETRY
 10
2768.003
 20
-611.976
 40
5.565
 50
304.007
 51
334.877
  0
ARC
  8
APS_GEOMETRY
 10
2767.962
 20
-611.858
 40
5.686
 50
286.39
 51
303.69
  0
ARC
  8
APS_GEOMETRY
 10
2767.78
 20
-611.24
 40
6.33
 50
270.0
 51
286.39
  0
ARC
  8
APS_GEOMETRY
 10
2767.78
 20
-611.314
 40
6.257
 50
255.155
 51
270.0
  0
ARC
  8
APS_GEOMETRY
 10
2767.095
 20
-613.9
 40
3.581
 50
235.491
 51
255.155
  0
ARC
  8
APS_GEOMETRY
 10
2767.439
 20
-613.399
 40
4.189
 50
218.48
 51
235.491
  0
ARC
  8
APS_GEOMETRY
 10
2773.06
 20
-608.931
 40
11.369
 50
208.179
 51
218.48
  0
ARC
  8
APS_GEOMETRY
 10
2715.435
 20
-640.21
 40
54.198
 50
28.56
 51
31.664
  0
ARC
  8
APS_GEOMETRY
 10
2750.647
 20
-618.494
 40
12.827
 50
31.664
 51
38.047
  0
ARC
  8
APS_GEOMETRY
 10
2753.208
 20
-616.49
 40
9.576
 50
38.047
 51
46.56
  0
ARC
  8
APS_GEOMETRY
 10
2751.877
 20
-617.895
 40
11.512
 50
46.56
 51
54.324
  0
ARC
  8
APS_GEOMETRY
 10
2751.109
 20
-619.217
 40
13.034
 50
54.968
 51
71.48
  0
ARC
  8
APS_GEOMETRY
 10
2751.952
 20
-616.7
 40
10.38
 50
71.48
 51
90.0
  0
ARC
  8
APS_GEOMETRY
 10
2751.952
 20
-613.571
 40
7.251
 50
90.0
 51
114.63
  0
ARC
  8
APS_GEOMETRY
 10
2751.588
 20
-612.777
 40
6.377
 50
114.63
 51
140.921
  0
ARC
  8
APS_GEOMETRY
 10
2752.663
 20
-613.65
 40
7.763
 50
140.921
 51
163.13
  0
ARC
  8
APS_GEOMETRY
 10
2758.041
 20
-615.281
 40
13.382
 50
163.13
 51
180.0
  0
ARC
  8
APS_GEOMETRY
 10
2765.014
 20
-615.281
 40
20.355
 50
180.0
 51
195.44
  0
ARC
  8
APS_GEOMETRY
 10
2763.956
 20
-615.573
 40
19.258
 50
195.44
 51
211.316
  0
ARC
  8
APS_GEOMETRY
 10
2758.867
 20
-618.563
 40
13.357
 50
211.708
 51
240.457
  0
ARC
  8
APS_GEOMETRY
 10
2758.525
 20
-619.166
 40
12.663
 50
240.457
 51
270.0
  0
ARC
  8
APS_GEOMETRY
 10
2758.525
 20
-616.078
 40
15.751
 50
270.0
 51
279.549
  0
ARC
  8
APS_GEOMETRY
 10
2758.329
 20
-614.914
 40
16.931
 50
279.549
 51
288.759
  0
ARC
  8
APS_GEOMETRY
 10
2759.155
 20
-617.345
 40
14.364
 50
288.759
 51
299.545
  0
ARC
  8
APS_GEOMETRY
 10
2762.464
 20
-623.184
 40
7.652
 50
299.545
 51
314.341
  0
ARC
  8
APS_GEOMETRY
 10
2772.699
 20
-633.815
 40
7.105
 50
120.141
 51
133.452
  0
ARC
  8
APS_GEOMETRY
 10
2769.841
 20
-628.891
 40
1.412
 50
90.0
 51
120.141
  0
ARC
  8
APS_GEOMETRY
 10
2769.841
 20
-629.709
 40
2.23
 50
61.952
 51
90.0
  0
ARC
  8
APS_GEOMETRY
 10
2769.508
 20
-630.332
 40
2.936
 50
37.569
 51
61.952
  0
ARC
  8
APS_GEOMETRY
 10
2768.889
 20
-630.809
 40
3.717
 50
17.665
 51
37.569
  0
ARC
  8
APS_GEOMETRY
 10
2767.944
 20
-631.11
 40
4.709
 50
360.0
 51
17.665
  0
ARC
  8
APS_GEOMETRY
 10
2765.572
 20
-631.11
 40
7.081
 50
344.932
 51
360.0
  0
ARC
  8
APS_GEOMETRY
 10
2759.274
 20
-629.414
 40
13.603
 50
334.075
 51
344.932
  0
ARC
  8
APS_GEOMETRY
 10
2759.076
 20
-629.318
 40
13.823
 50
323.374
 51
334.075
  0
ARC
  8
APS_GEOMETRY
 10
2763.14
 20
-632.338
 40
8.76
 50
309.92
 51
323.374
  0
ARC
  8
APS_GEOMETRY
 10
2767.201
 20
-637.129
 40
2.48
 50
289.026
 51
308.991
  0
ARC
  8
APS_GEOMETRY
 10
2762.868
 20
-624.564
 40
15.771
 50
281.143
 51
289.026
  0
ARC
  8
APS_GEOMETRY
 10
2767.262
 20
-647.345
 40
7.431
 50
100.437
 51
110.12
  0
ARC
  8
APS_GEOMETRY
 10
2773.083
 20
-663.235
 40
24.353
 50
110.12
 51
115.463
  0
ARC
  8
APS_GEOMETRY
 10
2752.302
 20
-619.755
 40
23.838
 50
282.94
 51
295.628
  0
ARC
  8
APS_GEOMETRY
 10
2752.508
 20
-620.649
 40
22.921
 50
270.0
 51
282.94
  0
ARC
  8
APS_GEOMETRY
 10
2752.508
 20
-619.295
 40
24.275
 50
257.307
 51
270.0
  0
ARC
  8
APS_GEOMETRY
 10
2753.532
 20
-614.745
 40
28.939
 50
245.686
 51
257.307
  0
ARC
  8
APS_GEOMETRY
 10
2750.962
 20
-620.386
 40
22.739
 50
228.801
 51
245.735
  0
ARC
  8
APS_GEOMETRY
 10
2751.005
 20
-620.337
 40
22.805
 50
211.891
 51
228.801
  0
ARC
  8
APS_GEOMETRY
 10
2752.353
 20
-619.367
 40
24.462
 50
196.728
 51
212.152
  0
ARC
  8
APS_GEOMETRY
 10
2748.865
 20
-620.415
 40
20.82
 50
180.0
 51
196.728
  0
ARC
  8
APS_GEOMETRY
 10
2749.372
 20
-620.415
 40
21.327
 50
161.184
 51
180.0
  0
ARC
  8
APS_GEOMETRY
 10
2750.741
 20
-620.882
 40
22.773
 50
142.98
 51
161.184
  0
ARC
  8
APS_GEOMETRY
 10
2751.805
 20
-621.696
 40
24.112
 50
127.824
 51
142.958
  0
ARC
  8
APS_GEOMETRY
 10
2753.559
 20
-623.955
 40
26.973
 50
113.52
 51
127.824
  0
ARC
  8
APS_GEOMETRY
 10
2752.988
 20
-622.636
 40
25.535
 50
101.927
 51
113.527
  0
ARC
  8
APS_GEOMETRY
 10
2752.704
 20
-621.291
 40
24.161
 50
90.0
 51
101.927
  0
ARC
  8
APS_GEOMETRY
 10
2803.185
 20
-622.912
 40
25.782
 50
71.91
 51
90.0
  0
ARC
  8
APS_GEOMETRY
 10
2804.184
 20
-619.855
 40
22.566
 50
52.561
 51
71.91
  0
ARC
  8
APS_GEOMETRY
 10
2803.922
 20
-619.932
 40
22.786
 50
38.846
 51
52.156
  0
ARC
  8
APS_GEOMETRY
 10
2800.35
 20
-622.808
 40
27.372
 50
26.707
 51
38.846
  0
ARC
  8
APS_GEOMETRY
 10
2801.057
 20
-622.23
 40
26.482
 50
13.868
 51
26.278
  0
ARC
  8
APS_GEOMETRY
 10
2806.157
 20
-620.971
 40
21.229
 50
360.0
 51
13.868
  0
ARC
  8
APS_GEOMETRY
 10
2806.487
 20
-620.971
 40
20.899
 50
339.712
 51
360.0
  0
ARC
  8
APS_GEOMETRY
 10
2805.31
 20
-620.537
 40
22.153
 50
320.013
 51
339.712
  0
ARC
  8
APS_GEOMETRY
 10
2805.115
 20
-620.429
 40
22.372
 50
303.344
 51
320.123
  0
ARC
  8
APS_GEOMETRY
 10
2802.82
 20
-616.94
 40
26.548
 50
287.949
 51
303.344
  0
ARC
  8
APS_GEOMETRY
 10
2802.065
 20
-614.325
 40
29.269
 50
279.039
 51
287.776
  0
ARC
  8
APS_GEOMETRY
 10
2802.367
 20
-616.224
 40
27.346
 50
270.0
 51
279.039
  0
ARC
  8
APS_GEOMETRY
 10
2802.367
 20
-617.559
 40
26.011
 50
257.728
 51
270.0
  0
ARC
  8
APS_GEOMETRY
 10
2802.408
 20
-617.371
 40
26.203
 50
245.501
 51
257.728
  0
ARC
  8
APS_GEOMETRY
 10
2800.936
 20
-620.593
 40
22.66
 50
228.665
 51
245.511
  0
ARC
  8
APS_GEOMETRY
 10
2800.446
 20
-621.15
 40
21.918
 50
211.535
 51
228.665
  0
ARC
  8
APS_GEOMETRY
 10
2801.088
 20
-620.679
 40
22.712
 50
195.642
 51
211.701
  0
ARC
  8
APS_GEOMETRY
 10
2802.262
 20
-620.35
 40
23.931
 50
180.0
 51
195.642
  0
ARC
  8
APS_GEOMETRY
 10
2802.513
 20
-620.35
 40
24.183
 50
162.181
 51
180.0
  0
ARC
  8
APS_GEOMETRY
 10
2800.307
 20
-619.641
 40
21.865
 50
143.434
 51
162.181
  0
ARC
  8
APS_GEOMETRY
 10
2800.01
 20
-619.403
 40
21.485
 50
126.384
 51
143.471
  0
ARC
  8
APS_GEOMETRY
 10
2802.044
 20
-622.164
 40
24.914
 50
110.525
 51
126.384
  0
ARC
  8
APS_GEOMETRY
 10
2801.943
 20
-621.414
 40
24.177
 50
99.77
 51
110.925
  0
ARC
  8
APS_GEOMETRY
 10
2803.185
 20
-628.626
 40
31.496
 50
90.0
 51
99.77
  0
ARC
  8
APS_GEOMETRY
 10
2800.078
 20
-611.324
 40
4.807
 50
90.0
 51
119.604
  0
ARC
  8
APS_GEOMETRY
 10
2800.499
 20
-612.065
 40
5.659
 50
119.604
 51
146.842
  0
ARC
  8
APS_GEOMETRY
 10
2801.345
 20
-612.758
 40
6.748
 50
145.84
 51
164.055
  0
ARC
  8
APS_GEOMETRY
 10
2803.307
 20
-613.319
 40
8.788
 50
164.055
 51
180.0
  0
ARC
  8
APS_GEOMETRY
 10
2815.571
 20
-613.319
 40
21.053
 50
180.0
 51
189.977
  0
ARC
  8
APS_GEOMETRY
 10
2834.223
 20
-610.038
 40
39.991
 50
189.977
 51
197.211
  0
ARC
  8
APS_GEOMETRY
 10
2838.302
 20
-608.774
 40
44.261
 50
197.211
 51
203.76
  0
ARC
  8
APS_GEOMETRY
 10
2828.14
 20
-613.248
 40
33.157
 50
203.76
 51
211.329
  0
ARC
  8
APS_GEOMETRY
 10
2807.271
 20
-625.772
 40
8.821
 50
212.32
 51
224.441
  0
ARC
  8
APS_GEOMETRY
 10
2806.416
 20
-626.611
 40
7.623
 50
224.441
 51
237.484
  0
ARC
  8
APS_GEOMETRY
 10
2805.863
 20
-627.478
 40
6.595
 50
237.484
 51
252.416
  0
ARC
  8
APS_GEOMETRY
 10
2805.311
 20
-629.221
 40
4.766
 50
252.416
 51
270.0
  0
ARC
  8
APS_GEOMETRY
 10
2805.311
 20
-628.656
 40
5.331
 50
270.0
 51
294.953
  0
ARC
  8
APS_GEOMETRY
 10
2805.46
 20
-628.977
 40
4.977
 50
294.953
 51
320.793
  0
ARC
  8
APS_GEOMETRY
 10
2804.659
 20
-628.324
 40
6.011
 50
320.793
 51
342.777
  0
ARC
  8
APS_GEOMETRY
 10
2801.092
 20
-627.218
 40
9.746
 50
342.777
 51
0.0
  0
ARC
  8
APS_GEOMETRY
 10
2784.331
 20
-627.218
 40
26.507
 50
0.0
 51
8.499
  0
ARC
  8
APS_GEOMETRY
 10
2772.663
 20
-628.961
 40
38.304
 50
8.499
 51
15.566
  0
ARC
  8
APS_GEOMETRY
 10
2774.066
 20
-628.57
 40
36.848
 50
15.566
 51
22.909
  0
ARC
  8
APS_GEOMETRY
 10
2786.13
 20
-623.472
 40
23.751
 50
22.909
 51
32.057
  0
ARC
  8
APS_GEOMETRY
 10
2795.605
 20
-617.503
 40
12.552
 50
31.921
 51
42.51
  0
ARC
  8
APS_GEOMETRY
 10
2798.207
 20
-615.118
 40
9.022
 50
42.51
 51
55.008
  0
ARC
  8
APS_GEOMETRY
 10
2799.086
 20
-613.862
 40
7.489
 50
55.008
 51
69.88
  0
ARC
  8
APS_GEOMETRY
 10
2799.874
 20
-611.711
 40
5.198
 50
69.88
 51
87.754
  0
ARC
  8
APS_GEOMETRY
 10
2856.544
 20
-618.394
 40
21.264
 50
77.257
 51
90.0
  0
ARC
  8
APS_GEOMETRY
 10
2856.328
 20
-619.35
 40
22.243
 50
64.799
 51
77.257
  0
ARC
  8
APS_GEOMETRY
 10
2874.646
 20
-580.351
 40
20.843
 50
244.885
 51
251.175
  0
ARC
  8
APS_GEOMETRY
 10
2868.677
 20
-597.859
 40
2.346
 50
251.175
 51
270.0
  0
ARC
  8
APS_GEOMETRY
 10
2868.677
 20
-596.398
 40
3.806
 50
270.0
 51
278.82
  0
ARC
  8
APS_GEOMETRY
 10
2866.218
 20
-580.551
 40
19.844
 50
278.82
 51
282.68
  0
ARC
  8
APS_GEOMETRY
 10
2871.363
 20
-603.331
 40
3.511
 50
95.906
 51
102.995
  0
ARC
  8
APS_GEOMETRY
 10
2871.522
 20
-604.868
 40
5.055
 50
90.0
 51
95.906
  0
ARC
  8
APS_GEOMETRY
 10
2871.522
 20
-603.168
 40
3.356
 50
62.447
 51
90.0
  0
ARC
  8
APS_GEOMETRY
 10
2870.926
 20
-604.311
 40
4.645
 50
39.094
 51
62.447
  0
ARC
  8
APS_GEOMETRY
 10
2864.691
 20
-609.525
 40
12.772
 50
18.435
 51
39.611
  0
ARC
  8
APS_GEOMETRY
 10
2860.865
 20
-610.801
 40
16.806
 50
360.0
 51
18.435
  0
ARC
  8
APS_GEOMETRY
 10
2869.337
 20
-610.801
 40
8.333
 50
334.877
 51
360.0
  0
ARC
  8
APS_GEOMETRY
 10
2871.844
 20
-611.976
 40
5.565
 50
304.007
 51
334.877
  0
ARC
  8
APS_GEOMETRY
 10
2871.802
 20
-611.858
 40
5.686
 50
286.39
 51
303.69
  0
ARC
  8
APS_GEOMETRY
 10
2871.62
 20
-611.24
 40
6.33
 50
270.0
 51
286.39
  0
ARC
  8
APS_GEOMETRY
 10
2871.62
 20
-611.314
 40
6.257
 50
255.155
 51
270.0
  0
ARC
  8
APS_GEOMETRY
 10
2870.935
 20
-613.9
 40
3.581
 50
235.491
 51
255.155
  0
ARC
  8
APS_GEOMETRY
 10
2871.279
 20
-613.399
 40
4.189
 50
218.48
 51
235.491
  0
ARC
  8
APS_GEOMETRY
 10
2876.9
 20
-608.931
 40
11.369
 50
208.179
 51
218.48
  0
ARC
  8
APS_GEOMETRY
 10
2819.275
 20
-640.21
 40
54.198
 50
28.56
 51
31.664
  0
ARC
  8
APS_GEOMETRY
 10
2854.488
 20
-618.494
 40
12.827
 50
31.664
 51
38.047
  0
ARC
  8
APS_GEOMETRY
 10
2857.048
 20
-616.49
 40
9.576
 50
38.047
 51
46.56
  0
ARC
  8
APS_GEOMETRY
 10
2855.717
 20
-617.895
 40
11.512
 50
46.56
 51
54.324
  0
ARC
  8
APS_GEOMETRY
 10
2854.949
 20
-619.217
 40
13.034
 50
54.968
 51
71.48
  0
ARC
  8
APS_GEOMETRY
 10
2855.792
 20
-616.7
 40
10.38
 50
71.48
 51
90.0
  0
ARC
  8
APS_GEOMETRY
 10
2855.792
 20
-613.571
 40
7.251
 50
90.0
 51
114.63
  0
ARC
  8
APS_GEOMETRY
 10
2855.428
 20
-612.777
 40
6.377
 50
114.63
 51
140.921
  0
ARC
  8
APS_GEOMETRY
 10
2856.504
 20
-613.65
 40
7.763
 50
140.921
 51
163.13
  0
ARC
  8
APS_GEOMETRY
 10
2861.881
 20
-615.281
 40
13.382
 50
163.13
 51
180.0
  0
ARC
  8
APS_GEOMETRY
 10
2868.854
 20
-615.281
 40
20.355
 50
180.0
 51
195.44
  0
ARC
  8
APS_GEOMETRY
 10
2867.796
 20
-615.573
 40
19.258
 50
195.44
 51
211.316
  0
ARC
  8
APS_GEOMETRY
 10
2862.707
 20
-618.563
 40
13.357
 50
211.708
 51
240.457
  0
ARC
  8
APS_GEOMETRY
 10
2862.365
 20
-619.166
 40
12.663
 50
240.457
 51
270.0
  0
ARC
  8
APS_GEOMETRY
 10
2862.365
 20
-616.078
 40
15.751
 50
270.0
 51
279.549
  0
ARC
  8
APS_GEOMETRY
 10
2862.169
 20
-614.914
 40
16.931
 50
279.549
 51
288.759
  0
ARC
  8
APS_GEOMETRY
 10
2862.995
 20
-617.345
 40
14.364
 50
288.759
 51
299.545
  0
ARC
  8
APS_GEOMETRY
 10
2866.304
 20
-623.184
 40
7.652
 50
299.545
 51
314.341
  0
ARC
  8
APS_GEOMETRY
 10
2876.54
 20
-633.815
 40
7.105
 50
120.141
 51
133.452
  0
ARC
  8
APS_GEOMETRY
 10
2873.681
 20
-628.891
 40
1.412
 50
90.0
 51
120.141
  0
ARC
  8
APS_GEOMETRY
 10
2873.681
 20
-629.709
 40
2.23
 50
61.952
 51
90.0
  0
ARC
  8
APS_GEOMETRY
 10
2873.349
 20
-630.332
 40
2.936
 50
37.569
 51
61.952
  0
ARC
  8
APS_GEOMETRY
 10
2872.729
 20
-630.809
 40
3.717
 50
17.665
 51
37.569
  0
ARC
  8
APS_GEOMETRY
 10
2871.785
 20
-631.11
 40
4.709
 50
360.0
 51
17.665
  0
ARC
  8
APS_GEOMETRY
 10
2869.413
 20
-631.11
 40
7.081
 50
344.932
 51
360.0
  0
ARC
  8
APS_GEOMETRY
 10
2863.115
 20
-629.414
 40
13.603
 50
334.075
 51
344.932
  0
ARC
  8
APS_GEOMETRY
 10
2862.916
 20
-629.318
 40
13.823
 50
323.374
 51
334.075
  0
ARC
  8
APS_GEOMETRY
 10
2866.98
 20
-632.338
 40
8.76
 50
309.92
 51
323.374
  0
ARC
  8
APS_GEOMETRY
 10
2871.041
 20
-637.129
 40
2.48
 50
289.026
 51
308.991
  0
ARC
  8
APS_GEOMETRY
 10
2866.708
 20
-624.564
 40
15.771
 50
281.143
 51
289.026
  0
ARC
  8
APS_GEOMETRY
 10
2871.102
 20
-647.345
 40
7.431
 50
100.437
 51
110.12
  0
ARC
  8
APS_GEOMETRY
 10
2876.923
 20
-663.235
 40
24.353
 50
110.12
 51
115.463
  0
ARC
  8
APS_GEOMETRY
 10
2856.142
 20
-619.755
 40
23.838
 50
282.94
 51
295.628
  0
ARC
  8
APS_GEOMETRY
 10
2856.348
 20
-620.649
 40
22.921
 50
270.0
 51
282.94
  0
ARC
  8
APS_GEOMETRY
 10
2856.348
 20
-619.295
 40
24.275
 50
257.307
 51
270.0
  0
ARC
  8
APS_GEOMETRY
 10
2857.373
 20
-614.745
 40
28.939
 50
245.686
 51
257.307
  0
ARC
  8
APS_GEOMETRY
 10
2854.802
 20
-620.386
 40
22.739
 50
228.801
 51
245.735
  0
ARC
  8
APS_GEOMETRY
 10
2854.845
 20
-620.337
 40
22.805
 50
211.891
 51
228.801
  0
ARC
  8
APS_GEOMETRY
 10
2856.193
 20
-619.367
 40
24.462
 50
196.728
 51
212.152
  0
ARC
  8
APS_GEOMETRY
 10
2852.705
 20
-620.415
 40
20.82
 50
180.0
 51
196.728
  0
ARC
  8
APS_GEOMETRY
 10
2853.213
 20
-620.415
 40
21.327
 50
161.184
 51
180.0
  0
ARC
  8
APS_GEOMETRY
 10
2854.581
 20
-620.882
 40
22.773
 50
142.98
 51
161.184
  0
ARC
  8
APS_GEOMETRY
 10
2855.645
 20
-621.696
 40
24.112
 50
127.824
 51
142.958
  0
ARC
  8
APS_GEOMETRY
 10
2857.399
 20
-623.955
 40
26.973
 50
113.52
 51
127.824
  0
ARC
  8
APS_GEOMETRY
 10
2856.828
 20
-622.636
 40
25.535
 50
101.927
 51
113.527
  0
ARC
  8
APS_GEOMETRY
 10
2856.544
 20
-621.291
 40
24.161
 50
90.0
 51
101.927
  0
ARC
  8
APS_GEOMETRY
 10
2907.025
 20
-622.912
 40
25.782
 50
71.91
 51
90.0
  0
ARC
  8
APS_GEOMETRY
 10
2908.024
 20
-619.855
 40
22.566
 50
52.561
 51
71.91
  0
ARC
  8
APS_GEOMETRY
 10
2907.762
 20
-619.932
 40
22.786
 50
38.846
 51
52.156
  0
ARC
  8
APS_GEOMETRY
 10
2904.19
 20
-622.808
 40
27.372
 50
26.707
 51
38.846
  0
ARC
  8
APS_GEOMETRY
 10
2904.897
 20
-622.23
 40
26.482
 50
13.868
 51
26.278
  0
ARC
  8
APS_GEOMETRY
 10
2909.997
 20
-620.971
 40
21.229
 50
360.0
 51
13.868
  0
ARC
  8
APS_GEOMETRY
 10
2910.327
 20
-620.971
 40
20.899
 50
339.712
 51
360.0
  0
ARC
  8
APS_GEOMETRY
 10
2909.151
 20
-620.537
 40
22.153
 50
320.013
 51
339.712
  0
ARC
  8
APS_GEOMETRY
 10
2908.955
 20
-620.429
 40
22.372
 50
303.344
 51
320.123
  0
ARC
  8
APS_GEOMETRY
 10
2906.66
 20
-616.94
 40
26.548
 50
287.949
 51
303.344
  0
ARC
  8
APS_GEOMETRY
 10
2905.905
 20
-614.325
 40
29.269
 50
279.039
 51
287.776
  0
ARC
  8
APS_GEOMETRY
 10
2906.208
 20
-616.224
 40
27.346
 50
270.0
 51
279.039
  0
ARC
  8
APS_GEOMETRY
 10
2906.208
 20
-617.559
 40
26.011
 50
257.728
 51
270.0
  0
ARC
  8
APS_GEOMETRY
 10
2906.248
 20
-617.371
 40
26.203
 50
245.501
 51
257.728
  0
ARC
  8
APS_GEOMETRY
 10
2904.776
 20
-620.593
 40
22.66
 50
228.665
 51
245.511
  0
ARC
  8
APS_GEOMETRY
 10
2904.286
 20
-621.15
 40
21.918
 50
211.535
 51
228.665
  0
ARC
  8
APS_GEOMETRY
 10
2904.928
 20
-620.679
 40
22.712
 50
195.642
 51
211.701
  0
ARC
  8
APS_GEOMETRY
 10
2906.102
 20
-620.35
 40
23.931
 50
180.0
 51
195.642
  0
ARC
  8
APS_GEOMETRY
 10
2906.353
 20
-620.35
 40
24.183
 50
162.181
 51
180.0
  0
ARC
  8
APS_GEOMETRY
 10
2904.147
 20
-619.641
 40
21.865
 50
143.434
 51
162.181
  0
ARC
  8
APS_GEOMETRY
 10
2903.85
 20
-619.403
 40
21.485
 50
126.384
 51
143.471
  0
ARC
  8
APS_GEOMETRY
 10
2905.884
 20
-622.164
 40
24.914
 50
110.525
 51
126.384
  0
ARC
  8
APS_GEOMETRY
 10
2905.783
 20
-621.414
 40
24.177
 50
99.77
 51
110.925
  0
ARC
  8
APS_GEOMETRY
 10
2907.025
 20
-628.626
 40
31.496
 50
90.0
 51
99.77
  0
ARC
  8
APS_GEOMETRY
 10
2903.918
 20
-611.324
 40
4.807
 50
90.0
 51
119.604
  0
ARC
  8
APS_GEOMETRY
 10
2904.339
 20
-612.065
 40
5.659
 50
119.604
 51
146.842
  0
ARC
  8
APS_GEOMETRY
 10
2905.186
 20
-612.758
 40
6.748
 50
145.84
 51
164.055
  0
ARC
  8
APS_GEOMETRY
 10
2907.147
 20
-613.319
 40
8.788
 50
164.055
 51
180.0
  0
ARC
  8
APS_GEOMETRY
 10
2919.411
 20
-613.319
 40
21.053
 50
180.0
 51
189.977
  0
ARC
  8
APS_GEOMETRY
 10
2938.063
 20
-610.038
 40
39.991
 50
189.977
 51
197.211
  0
ARC
  8
APS_GEOMETRY
 10
2942.142
 20
-608.774
 40
44.261
 50
197.211
 51
203.76
  0
ARC
  8
APS_GEOMETRY
 10
2931.98
 20
-613.248
 40
33.157
 50
203.76
 51
211.329
  0
ARC
  8
APS_GEOMETRY
 10
2911.112
 20
-625.772
 40
8.821
 50
212.32
 51
224.441
  0
ARC
  8
APS_GEOMETRY
 10
2910.256
 20
-626.611
 40
7.623
 50
224.441
 51
237.484
  0
ARC
  8
APS_GEOMETRY
 10
2909.703
 20
-627.478
 40
6.595
 50
237.484
 51
252.416
  0
ARC
  8
APS_GEOMETRY
 10
2909.151
 20
-629.221
 40
4.766
 50
252.416
 51
270.0
  0
ARC
  8
APS_GEOMETRY
 10
2909.151
 20
-628.656
 40
5.331
 50
270.0
 51
294.953
  0
ARC
  8
APS_GEOMETRY
 10
2909.3
 20
-628.977
 40
4.977
 50
294.953
 51
320.793
  0
ARC
  8
APS_GEOMETRY
 10
2908.5
 20
-628.324
 40
6.011
 50
320.793
 51
342.777
  0
ARC
  8
APS_GEOMETRY
 10
2904.932
 20
-627.218
 40
9.746
 50
342.777
 51
0.0
  0
ARC
  8
APS_GEOMETRY
 10
2888.171
 20
-627.218
 40
26.507
 50
0.0
 51
8.499
  0
ARC
  8
APS_GEOMETRY
 10
2876.503
 20
-628.961
 40
38.304
 50
8.499
 51
15.566
  0
ARC
  8
APS_GEOMETRY
 10
2877.906
 20
-628.57
 40
36.848
 50
15.566
 51
22.909
  0
ARC
  8
APS_GEOMETRY
 10
2889.97
 20
-623.472
 40
23.751
 50
22.909
 51
32.057
  0
ARC
  8
APS_GEOMETRY
 10
2899.446
 20
-617.503
 40
12.552
 50
31.921
 51
42.51
  0
ARC
  8
APS_GEOMETRY
 10
2902.048
 20
-615.118
 40
9.022
 50
42.51
 51
55.008
  0
ARC
  8
APS_GEOMETRY
 10
2902.926
 20
-613.862
 40
7.489
 50
55.008
 51
69.88
  0
ARC
  8
APS_GEOMETRY
 10
2903.715
 20
-611.711
 40
5.198
 50
69.88
 51
87.754
  0
ARC
  8
APS_GEOMETRY
 10
2957.539
 20
-626.335
 40
2.42
 50
90.0
 51
115.837
  0
ARC
  8
APS_GEOMETRY
 10
2956.943
 20
-625.104
 40
1.053
 50
115.837
 51
155.462
  0
ARC
  8
APS_GEOMETRY
 10
2957.638
 20
-625.422
 40
1.817
 50
155.462
 51
168.366
  0
ARC
  8
APS_GEOMETRY
 10
2963.984
 20
-626.728
 40
8.296
 50
168.366
 51
174.395
  0
ARC
  8
APS_GEOMETRY
 10
2970.38
 20
-627.356
 40
14.722
 50
174.395
 51
177.813
  0
ARC
  8
APS_GEOMETRY
 10
2991.609
 20
-628.166
 40
35.966
 50
177.813
 51
180.0
  0
ARC
  8
APS_GEOMETRY
 10
3006.977
 20
-628.166
 40
51.335
 50
180.0
 51
184.62
  0
ARC
  8
APS_GEOMETRY
 10
2972.557
 20
-630.948
 40
16.803
 50
184.62
 51
192.7
  0
ARC
  8
APS_GEOMETRY
 10
2959.287
 20
-633.861
 40
3.218
 50
194.036
 51
205.821
  0
ARC
  8
APS_GEOMETRY
 10
2957.882
 20
-634.541
 40
1.656
 50
205.821
 51
222.274
  0
ARC
  8
APS_GEOMETRY
 10
2958.312
 20
-634.15
 40
2.238
 50
222.274
 51
234.605
  0
ARC
  8
APS_GEOMETRY
 10
2963.172
 20
-627.309
 40
10.63
 50
234.605
 51
240.255
  0
ARC
  8
APS_GEOMETRY
 10
2955.784
 20
-640.384
 40
4.389
 50
34.592
 51
61.189
  0
ARC
  8
APS_GEOMETRY
 10
2957.234
 20
-639.383
 40
2.627
 50
360.0
 51
34.592
  0
ARC
  8
APS_GEOMETRY
 10
2957.322
 20
-639.383
 40
2.539
 50
318.231
 51
360.0
  0
ARC
  8
APS_GEOMETRY
 10
2955.623
 20
-637.867
 40
4.816
 50
288.227
 51
318.231
  0
ARC
  8
APS_GEOMETRY
 10
2953.862
 20
-632.519
 40
10.446
 50
280.377
 51
288.227
  0
ARC
  8
APS_GEOMETRY
 10
2950.793
 20
-615.755
 40
27.489
 50
275.541
 51
280.377
  0
ARC
  8
APS_GEOMETRY
 10
2949.47
 20
-602.118
 40
41.19
 50
272.304
 51
275.541
  0
ARC
  8
APS_GEOMETRY
 10
2947.859
 20
-562.082
 40
81.259
 50
270.0
 51
272.304
  0
ARC
  8
APS_GEOMETRY
 10
2947.859
 20
-595.541
 40
47.8
 50
262.811
 51
270.0
  0
ARC
  8
APS_GEOMETRY
 10
2943.57
 20
-629.547
 40
13.524
 50
249.274
 51
262.811
  0
ARC
  8
APS_GEOMETRY
 10
2940.872
 20
-636.677
 40
5.901
 50
221.379
 51
249.274
  0
ARC
  8
APS_GEOMETRY
 10
2938.505
 20
-638.762
 40
2.747
 50
180.0
 51
221.379
  0
ARC
  8
APS_GEOMETRY
 10
2938.487
 20
-638.762
 40
2.728
 50
164.055
 51
180.0
  0
ARC
  8
APS_GEOMETRY
 10
2937.349
 20
-638.437
 40
1.546
 50
142.815
 51
164.055
  0
ARC
  8
APS_GEOMETRY
 10
2938.065
 20
-638.98
 40
2.444
 50
129.007
 51
142.815
  0
ARC
  8
APS_GEOMETRY
 10
2946.857
 20
-649.834
 40
16.412
 50
123.69
 51
129.007
  0
ARC
  8
APS_GEOMETRY
 10
2934.381
 20
-631.062
 40
6.128
 50
303.389
 51
319.022
  0
ARC
  8
APS_GEOMETRY
 10
2936.039
 20
-632.502
 40
3.932
 50
319.022
 51
338.575
  0
ARC
  8
APS_GEOMETRY
 10
2933.82
 20
-631.631
 40
6.316
 50
338.575
 51
351.049
  0
ARC
  8
APS_GEOMETRY
 10
2907.014
 20
-627.409
 40
33.452
 50
351.049
 51
356.46
  0
ARC
  8
APS_GEOMETRY
 10
2915.85
 20
-627.745
 40
24.613
 50
355.972
 51
358.68
  0
ARC
  8
APS_GEOMETRY
 10
2625.659
 20
-621.059
 40
314.881
 50
358.68
 51
359.437
  0
LINE
  8
APS_GEOMETRY
 10
2940.525
 11
2940.556
 20
-624.152
 21
-619.24
  0
LINE
  8
APS_GEOMETRY
 10
2940.556
 11
2940.566
 20
-619.24
 21
-612.828
  0
ARC
  8
APS_GEOMETRY
 10
2864.757
 20
-612.828
 40
75.809
 50
0.0
 51
1.717
  0
ARC
  8
APS_GEOMETRY
 10
2905.325
 20
-611.612
 40
35.223
 50
1.717
 51
4.236
  0
ARC
  8
APS_GEOMETRY
 10
2918.554
 20
-610.632
 40
21.957
 50
4.236
 51
8.269
  0
ARC
  8
APS_GEOMETRY
 10
2933.778
 20
-608.42
 40
6.573
 50
8.269
 51
15.642
  0
ARC
  8
APS_GEOMETRY
 10
2936.398
 20
-607.686
 40
3.853
 50
15.642
 51
39.417
  0
ARC
  8
APS_GEOMETRY
 10
2936.457
 20
-607.638
 40
3.776
 50
39.417
 51
63.435
  0
ARC
  8
APS_GEOMETRY
 10
2943.258
 20
-593.548
 40
11.869
 50
236.874
 51
244.486
  0
ARC
  8
APS_GEOMETRY
 10
2938.199
 20
-601.302
 40
2.611
 50
220.601
 51
236.874
  0
ARC
  8
APS_GEOMETRY
 10
2937.618
 20
-601.799
 40
1.847
 50
198.246
 51
220.601
  0
ARC
  8
APS_GEOMETRY
 10
2938.486
 20
-601.513
 40
2.761
 50
180.0
 51
198.246
  0
ARC
  8
APS_GEOMETRY
 10
2938.473
 20
-601.513
 40
2.748
 50
156.161
 51
180.0
  0
ARC
  8
APS_GEOMETRY
 10
2938.856
 20
-601.682
 40
3.167
 50
133.977
 51
156.161
  0
ARC
  8
APS_GEOMETRY
 10
2939.62
 20
-602.473
 40
4.266
 50
116.996
 51
133.977
  0
ARC
  8
APS_GEOMETRY
 10
2941.137
 20
-605.451
 40
7.608
 50
104.3
 51
116.996
  0
ARC
  8
APS_GEOMETRY
 10
2941.529
 20
-606.957
 40
9.164
 50
95.326
 51
104.349
  0
ARC
  8
APS_GEOMETRY
 10
2943.117
 20
-623.991
 40
26.272
 50
90.0
 51
95.326
  0
ARC
  8
APS_GEOMETRY
 10
2943.117
 20
-610.732
 40
13.013
 50
87.553
 51
90.0
  0
ARC
  8
APS_GEOMETRY
 10
2940.348
 20
-675.52
 40
77.86
 50
86.553
 51
87.553
  0
ARC
  8
APS_GEOMETRY
 10
2936.411
 20
-740.866
 40
143.325
 50
86.009
 51
86.553
  0
ARC
  8
APS_GEOMETRY
 10
2921.104
 20
-960.28
 40
363.271
 50
85.668
 51
86.009
  0
ARC
  8
APS_GEOMETRY
 10
2949.752
 20
-582.969
 40
15.125
 50
265.426
 51
268.531
  0
ARC
  8
APS_GEOMETRY
 10
2951.096
 20
-530.526
 40
67.586
 50
268.531
 51
270.0
  0
ARC
  8
APS_GEOMETRY
 10
2951.096
 20
-546.601
 40
51.511
 50
270.0
 51
271.637
  0
ARC
  8
APS_GEOMETRY
 10
2949.945
 20
-506.317
 40
91.812
 50
271.637
 51
272.862
  0
ARC
  8
APS_GEOMETRY
 10
2948.624
 20
-479.887
 40
118.274
 50
272.862
 51
273.814
  0
ARC
  8
APS_GEOMETRY
 10
2944.15
 20
-412.783
 40
185.527
 50
273.814
 51
274.574
  0
ARC
  8
APS_GEOMETRY
 10
2972.212
 20
-777.774
 40
180.543
 50
93.72
 51
94.214
  0
ARC
  8
APS_GEOMETRY
 10
2966.223
 20
-685.656
 40
88.23
 50
93.013
 51
93.72
  0
ARC
  8
APS_GEOMETRY
 10
2964.581
 20
-654.46
 40
56.991
 50
91.918
 51
93.013
  0
ARC
  8
APS_GEOMETRY
 10
2963.295
 20
-616.045
 40
18.554
 50
90.0
 51
91.918
  0
ARC
  8
APS_GEOMETRY
 10
2963.295
 20
-621.599
 40
24.109
 50
73.82
 51
90.0
  0
ARC
  8
APS_GEOMETRY
 10
2965.671
 20
-613.409
 40
15.581
 50
53.658
 51
73.82
  0
ARC
  8
APS_GEOMETRY
 10
2969.051
 20
-608.79
 40
9.857
 50
26.03
 51
53.569
  0
ARC
  8
APS_GEOMETRY
 10
2968.014
 20
-609.296
 40
11.012
 50
360.0
 51
26.03
  0
ARC
  8
APS_GEOMETRY
 10
2967.582
 20
-609.296
 40
11.443
 50
345.282
 51
360.0
  0
ARC
  8
APS_GEOMETRY
 10
2968.683
 20
-609.585
 40
10.305
 50
329.767
 51
345.282
  0
ARC
  8
APS_GEOMETRY
 10
2969.307
 20
-609.949
 40
9.583
 50
313.168
 51
329.767
  0
ARC
  8
APS_GEOMETRY
 10
2969.537
 20
-610.195
 40
9.246
 50
296.267
 51
313.168
  0
ARC
  8
APS_GEOMETRY
 10
2974.801
 20
-620.829
 40
2.62
 50
116.565
 51
139.899
  0
ARC
  8
APS_GEOMETRY
 10
2973.494
 20
-619.729
 40
0.911
 50
139.899
 51
180.0
  0
ARC
  8
APS_GEOMETRY
 10
2973.595
 20
-619.729
 40
1.013
 50
180.0
 51
226.193
  0
ARC
  8
APS_GEOMETRY
 10
2975.466
 20
-617.778
 40
3.715
 50
226.193
 51
249.829
  0
ARC
  8
APS_GEOMETRY
 10
2970.105
 20
-632.539
 40
11.989
 50
53.249
 51
70.105
  0
ARC
  8
APS_GEOMETRY
 10
2972.54
 20
-629.278
 40
7.919
 50
32.471
 51
53.249
  0
ARC
  8
APS_GEOMETRY
 10
2971.405
 20
-630.001
 40
9.264
 50
23.305
 51
32.471
  0
ARC
  8
APS_GEOMETRY
 10
2964.395
 20
-633.02
 40
16.897
 50
16.521
 51
23.305
  0
ARC
  8
APS_GEOMETRY
 10
2958.93
 20
-634.641
 40
22.598
 50
11.429
 51
16.521
  0
ARC
  8
APS_GEOMETRY
 10
2943.44
 20
-637.773
 40
38.401
 50
7.524
 51
11.429
  0
ARC
  8
APS_GEOMETRY
 10
2994.768
 20
-630.937
 40
13.38
 50
187.765
 51
196.914
  0
ARC
  8
APS_GEOMETRY
 10
2983.825
 20
-634.265
 40
1.942
 50
196.914
 51
221.082
  0
ARC
  8
APS_GEOMETRY
 10
2983.866
 20
-634.228
 40
1.997
 50
221.082
 51
244.607
  0
ARC
  8
APS_GEOMETRY
 10
2988.54
 20
-624.383
 40
12.896
 50
244.607
 51
253.811
  0
ARC
  8
APS_GEOMETRY
 10
2984.431
 20
-638.393
 40
1.705
 50
51.45
 51
72.474
  0
ARC
  8
APS_GEOMETRY
 10
2984.009
 20
-638.922
 40
2.382
 50
33.69
 51
51.45
  0
ARC
  8
APS_GEOMETRY
 10
2983.911
 20
-638.988
 40
2.5
 50
16.639
 51
33.69
  0
ARC
  8
APS_GEOMETRY
 10
2983.791
 20
-639.024
 40
2.625
 50
360.0
 51
16.639
  0
ARC
  8
APS_GEOMETRY
 10
2983.755
 20
-639.024
 40
2.662
 50
338.993
 51
360.0
  0
ARC
  8
APS_GEOMETRY
 10
2982.129
 20
-638.4
 40
4.402
 50
322.696
 51
338.993
  0
ARC
  8
APS_GEOMETRY
 10
2981.524
 20
-637.938
 40
5.164
 50
308.603
 51
322.696
  0
ARC
  8
APS_GEOMETRY
 10
2981.107
 20
-637.416
 40
5.831
 50
295.346
 51
308.603
  0
ARC
  8
APS_GEOMETRY
 10
2978.916
 20
-632.59
 40
11.131
 50
279.583
 51
294.905
  0
ARC
  8
APS_GEOMETRY
 10
2976.049
 20
-615.609
 40
28.353
 50
270.0
 51
279.583
  0
ARC
  8
APS_GEOMETRY
 10
2976.049
 20
-623.29
 40
20.672
 50
261.247
 51
270.0
  0
ARC
  8
APS_GEOMETRY
 10
2974.725
 20
-631.891
 40
11.97
 50
249.737
 51
261.247
  0
ARC
  8
APS_GEOMETRY
 10
2973.855
 20
-634.248
 40
9.457
 50
235.345
 51
249.737
  0
ARC
  8
APS_GEOMETRY
 10
2972.755
 20
-635.838
 40
7.524
 50
219.198
 51
235.345
  0
ARC
  8
APS_GEOMETRY
 10
2975.068
 20
-633.866
 40
10.563
 50
209.076
 51
219.56
  0
ARC
  8
APS_GEOMETRY
 10
2980.409
 20
-630.897
 40
16.674
 50
200.735
 51
209.076
  0
ARC
  8
APS_GEOMETRY
 10
2987.779
 20
-628.107
 40
24.554
 50
197.881
 51
200.735
  0
ARC
  8
APS_GEOMETRY
 10
3018.06
 20
-618.337
 40
56.372
 50
195.997
 51
197.881
  0
ARC
  8
APS_GEOMETRY
 10
3040.442
 20
-611.92
 40
79.656
 50
194.664
 51
195.997
  0
ARC
  8
APS_GEOMETRY
 10
3102.437
 20
-595.698
 40
143.738
 50
193.671
 51
194.664
  0
ARC
  8
APS_GEOMETRY
 10
2945.227
 20
-633.918
 40
18.051
 50
13.61
 51
23.585
  0
ARC
  8
APS_GEOMETRY
 10
2957.046
 20
-628.758
 40
5.155
 50
23.585
 51
42.31
  0
ARC
  8
APS_GEOMETRY
 10
2958.118
 20
-627.782
 40
3.705
 50
42.31
 51
67.521
  0
ARC
  8
APS_GEOMETRY
 10
2957.27
 20
-629.833
 40
5.924
 50
67.521
 51
87.397
  0
LINE
  8
APS_GEOMETRY
 10
2955.675
 11
2955.315
 20
-607.236
 21
-614.856
  0
LINE
  8
APS_GEOMETRY
 10
2955.315
 11
2955.315
 20
-614.856
 21
-614.979
  0
LINE
  8
APS_GEOMETRY
 10
2955.315
 11
2955.315
 20
-614.979
 21
-615.15
  0
ARC
  8
APS_GEOMETRY
 10
2960.609
 20
-615.15
 40
5.294
 50
180.0
 51
192.339
  0
ARC
  8
APS_GEOMETRY
 10
2956.4
 20
-616.071
 40
0.986
 50
192.339
 51
221.186
  0
ARC
  8
APS_GEOMETRY
 10
2956.3
 20
-616.159
 40
0.852
 50
221.186
 51
253.872
  0
ARC
  8
APS_GEOMETRY
 10
2957.016
 20
-613.683
 40
3.429
 50
253.872
 51
270.0
  0
ARC
  8
APS_GEOMETRY
 10
2957.016
 20
-609.142
 40
7.971
 50
270.0
 51
289.569
  0
ARC
  8
APS_GEOMETRY
 10
2958.465
 20
-613.218
 40
3.644
 50
289.569
 51
318.681
  0
ARC
  8
APS_GEOMETRY
 10
2958.073
 20
-612.874
 40
4.166
 50
318.681
 51
344.628
  0
ARC
  8
APS_GEOMETRY
 10
2950.77
 20
-610.866
 40
11.74
 50
344.628
 51
0.0
  0
ARC
  8
APS_GEOMETRY
 10
2954.242
 20
-610.866
 40
8.268
 50
0.0
 51
35.369
  0
ARC
  8
APS_GEOMETRY
 10
2958.029
 20
-608.177
 40
3.623
 50
35.369
 51
90.0
  0
ARC
  8
APS_GEOMETRY
 10
2958.029
 20
-608.217
 40
3.663
 50
90.0
 51
108.435
  0
ARC
  8
APS_GEOMETRY
 10
2957.317
 20
-606.079
 40
1.409
 50
108.435
 51
138.366
  0
ARC
  8
APS_GEOMETRY
 10
2957.508
 20
-606.249
 40
1.665
 50
138.366
 51
164.291
  0
ARC
  8
APS_GEOMETRY
 10
2961.993
 20
-607.511
 40
6.324
 50
164.291
 51
177.51
  0
LINE
  8
APS_GEOMETRY
 10
3013.894
 11
3030.18
 20
-599.616
 21
-613.875
  0
ARC
  8
APS_GEOMETRY
 10
3045.412
 20
-596.396
 40
23.185
 50
228.93
 51
232.674
  0
ARC
  8
APS_GEOMETRY
 10
3036.938
 20
-607.508
 40
9.21
 50
232.674
 51
238.617
  0
ARC
  8
APS_GEOMETRY
 10
3034.806
 20
-611.003
 40
5.116
 50
238.617
 51
249.131
  0
ARC
  8
APS_GEOMETRY
 10
3033.45
 20
-614.56
 40
1.309
 50
249.131
 51
270.0
  0
ARC
  8
APS_GEOMETRY
 10
3033.45
 20
-614.722
 40
1.148
 50
270.0
 51
334.898
  0
ARC
  8
APS_GEOMETRY
 10
3028.152
 20
-612.24
 40
6.999
 50
334.898
 51
0.0
  0
ARC
  8
APS_GEOMETRY
 10
2976.921
 20
-612.24
 40
58.23
 50
0.0
 51
2.026
  0
ARC
  8
APS_GEOMETRY
 10
3007.808
 20
-611.147
 40
27.324
 50
2.026
 51
4.984
  0
ARC
  8
APS_GEOMETRY
 10
3017.907
 20
-610.266
 40
17.186
 50
4.984
 51
9.673
  0
ARC
  8
APS_GEOMETRY
 10
3029.546
 20
-608.282
 40
5.379
 50
9.673
 51
18.06
  0
ARC
  8
APS_GEOMETRY
 10
3031.318
 20
-607.704
 40
3.515
 50
18.06
 51
42.397
  0
ARC
  8
APS_GEOMETRY
 10
3030.746
 20
-608.227
 40
4.29
 50
42.397
 51
64.398
  0
ARC
  8
APS_GEOMETRY
 10
3035.97
 20
-597.441
 40
7.695
 50
233.633
 51
244.026
  0
ARC
  8
APS_GEOMETRY
 10
3033.125
 20
-601.304
 40
2.896
 50
216.656
 51
233.633
  0
ARC
  8
APS_GEOMETRY
 10
3032.689
 20
-601.629
 40
2.353
 50
196.082
 51
216.656
  0
ARC
  8
APS_GEOMETRY
 10
3034.113
 20
-601.219
 40
3.835
 50
180.0
 51
196.082
  0
ARC
  8
APS_GEOMETRY
 10
3033.066
 20
-601.219
 40
2.788
 50
133.202
 51
180.0
  0
ARC
  8
APS_GEOMETRY
 10
3035.265
 20
-603.56
 40
6.0
 50
101.788
 51
133.202
  0
ARC
  8
APS_GEOMETRY
 10
3035.777
 20
-605.856
 40
8.353
 50
96.633
 51
102.011
  0
ARC
  8
APS_GEOMETRY
 10
3037.636
 20
-621.845
 40
24.449
 50
93.489
 51
96.633
  0
ARC
  8
APS_GEOMETRY
 10
3038.433
 20
-634.904
 40
37.532
 50
91.439
 51
93.489
  0
ARC
  8
APS_GEOMETRY
 10
3039.402
 20
-673.498
 40
76.138
 50
90.0
 51
91.439
  0
ARC
  8
APS_GEOMETRY
 10
3039.402
 20
-668.324
 40
70.964
 50
87.994
 51
90.0
  0
ARC
  8
APS_GEOMETRY
 10
3040.692
 20
-631.483
 40
34.101
 50
85.101
 51
87.994
  0
ARC
  8
APS_GEOMETRY
 10
3041.74
 20
-619.267
 40
21.84
 50
80.595
 51
85.101
  0
ARC
  8
APS_GEOMETRY
 10
3044.127
 20
-604.853
 40
7.23
 50
72.759
 51
80.595
  0
ARC
  8
APS_GEOMETRY
 10
3044.85
 20
-602.613
 40
4.876
 50
40.956
 51
73.072
  0
ARC
  8
APS_GEOMETRY
 10
3046.231
 20
-601.415
 40
3.048
 50
360.0
 51
40.956
  0
ARC
  8
APS_GEOMETRY
 10
3046.414
 20
-601.415
 40
2.865
 50
322.573
 51
360.0
  0
ARC
  8
APS_GEOMETRY
 10
3044.909
 20
-600.263
 40
4.76
 50
293.749
 51
322.573
  0
ARC
  8
APS_GEOMETRY
 10
3050.953
 20
-614.144
 40
10.38
 50
113.429
 51
119.291
  0
ARC
  8
APS_GEOMETRY
 10
3046.914
 20
-606.944
 40
2.124
 50
119.291
 51
132.274
  0
ARC
  8
APS_GEOMETRY
 10
3046.681
 20
-606.687
 40
1.778
 50
132.274
 51
147.653
  0
ARC
  8
APS_GEOMETRY
 10
3048.363
 20
-607.753
 40
3.769
 50
147.653
 51
158.199
  0
ARC
  8
APS_GEOMETRY
 10
3050.923
 20
-608.832
 40
6.546
 50
157.751
 51
167.885
  0
ARC
  8
APS_GEOMETRY
 10
3064.543
 20
-611.755
 40
20.477
 50
167.885
 51
173.61
  0
ARC
  8
APS_GEOMETRY
 10
3076.589
 20
-613.104
 40
32.599
 50
173.61
 51
177.221
  0
ARC
  8
APS_GEOMETRY
 10
3113.745
 20
-614.908
 40
69.798
 50
177.221
 51
179.689
  0
LINE
  8
APS_GEOMETRY
 10
3043.948
 11
3043.948
 20
-614.529
 21
-625.19
  0
ARC
  8
APS_GEOMETRY
 10
3479.314
 20
-625.19
 40
435.365
 50
180.0
 51
180.161
  0
ARC
  8
APS_GEOMETRY
 10
3857.133
 20
-624.126
 40
813.186
 50
180.161
 51
180.279
  0
LINE
  8
APS_GEOMETRY
 10
3043.956
 11
3043.966
 20
-628.093
 21
-629.881
  0
LINE
  8
APS_GEOMETRY
 10
3043.966
 11
3043.981
 20
-629.881
 21
-631.894
  0
ARC
  8
APS_GEOMETRY
 10
2966.297
 20
-632.336
 40
77.685
 50
358.204
 51
0.326
  0
ARC
  8
APS_GEOMETRY
 10
3003.251
 20
-633.494
 40
40.713
 50
355.274
 51
358.204
  0
ARC
  8
APS_GEOMETRY
 10
3016.114
 20
-634.558
 40
27.806
 50
350.991
 51
355.274
  0
ARC
  8
APS_GEOMETRY
 10
3032.492
 20
-637.154
 40
11.223
 50
344.249
 51
350.991
  0
ARC
  8
APS_GEOMETRY
 10
3038.028
 20
-638.735
 40
5.466
 50
314.415
 51
344.445
  0
ARC
  8
APS_GEOMETRY
 10
3040.056
 20
-640.805
 40
2.568
 50
270.0
 51
314.415
  0
ARC
  8
APS_GEOMETRY
 10
3040.056
 20
-639.213
 40
4.16
 50
256.342
 51
270.0
  0
ARC
  8
APS_GEOMETRY
 10
3039.76
 20
-640.433
 40
2.905
 50
239.982
 51
256.342
  0
ARC
  8
APS_GEOMETRY
 10
3041.054
 20
-638.193
 40
5.492
 50
231.153
 51
239.982
  0
ARC
  8
APS_GEOMETRY
 10
3062.803
 20
-611.188
 40
40.166
 50
227.891
 51
231.153
  0
LINE
  8
APS_GEOMETRY
 10
3035.87
 11
3016.477
 20
-640.986
 21
-623.62
  0
ARC
  8
APS_GEOMETRY
 10
3009.006
 20
-631.892
 40
11.146
 50
47.911
 51
61.468
  0
ARC
  8
APS_GEOMETRY
 10
3013.109
 20
-624.346
 40
2.557
 50
61.468
 51
90.0
  0
ARC
  8
APS_GEOMETRY
 10
3013.109
 20
-622.909
 40
1.12
 50
90.0
 51
133.195
  0
ARC
  8
APS_GEOMETRY
 10
3014.213
 20
-624.085
 40
2.733
 50
133.195
 51
160.454
  0
ARC
  8
APS_GEOMETRY
 10
3017.757
 20
-625.343
 40
6.494
 50
160.454
 51
173.251
  0
ARC
  8
APS_GEOMETRY
 10
3034.424
 20
-627.316
 40
23.278
 50
173.251
 51
180.0
  0
ARC
  8
APS_GEOMETRY
 10
3079.765
 20
-627.316
 40
68.618
 50
180.0
 51
181.897
  0
ARC
  8
APS_GEOMETRY
 10
3043.422
 20
-628.52
 40
32.255
 50
181.897
 51
184.664
  0
ARC
  8
APS_GEOMETRY
 10
3031.51
 20
-629.491
 40
20.304
 50
184.664
 51
189.048
  0
ARC
  8
APS_GEOMETRY
 10
3017.709
 20
-631.689
 40
6.329
 50
189.048
 51
196.905
  0
ARC
  8
APS_GEOMETRY
 10
3015.518
 20
-632.355
 40
4.04
 50
196.905
 51
220.253
  0
ARC
  8
APS_GEOMETRY
 10
3015.562
 20
-632.318
 40
4.097
 50
220.253
 51
243.435
  0
ARC
  8
APS_GEOMETRY
 10
3011.565
 20
-640.379
 40
4.901
 50
37.921
 51
63.778
  0
ARC
  8
APS_GEOMETRY
 10
3013.598
 20
-638.795
 40
2.324
 50
360.0
 51
37.921
  0
ARC
  8
APS_GEOMETRY
 10
3012.694
 20
-638.795
 40
3.227
 50
324.268
 51
360.0
  0
ARC
  8
APS_GEOMETRY
 10
3011.486
 20
-637.926
 40
4.715
 50
294.86
 51
324.268
  0
ARC
  8
APS_GEOMETRY
 10
3009.489
 20
-633.616
 40
9.465
 50
278.78
 51
294.86
  0
ARC
  8
APS_GEOMETRY
 10
3006.11
 20
-611.736
 40
31.604
 50
270.0
 51
278.78
  0
ARC
  8
APS_GEOMETRY
 10
3006.11
 20
-617.408
 40
25.933
 50
260.383
 51
270.0
  0
ARC
  8
APS_GEOMETRY
 10
3003.377
 20
-633.537
 40
9.574
 50
244.522
 51
260.383
  0
ARC
  8
APS_GEOMETRY
 10
3001.398
 20
-637.691
 40
4.972
 50
216.549
 51
244.522
  0
ARC
  8
APS_GEOMETRY
 10
2999.776
 20
-638.893
 40
2.954
 50
180.0
 51
216.549
  0
ARC
  8
APS_GEOMETRY
 10
3000.829
 20
-638.893
 40
4.007
 50
164.65
 51
180.0
  0
ARC
  8
APS_GEOMETRY
 10
2998.544
 20
-638.266
 40
1.637
 50
140.528
 51
164.65
  0
ARC
  8
APS_GEOMETRY
 10
2999.468
 20
-639.027
 40
2.835
 50
126.135
 51
140.528
  0
ARC
  8
APS_GEOMETRY
 10
3009.123
 20
-652.25
 40
19.207
 50
120.619
 51
126.135
  0
ARC
  8
APS_GEOMETRY
 10
2997.677
 20
-632.928
 40
3.251
 50
300.784
 51
330.068
  0
ARC
  8
APS_GEOMETRY
 10
2995.511
 20
-631.681
 40
5.749
 50
330.068
 51
351.983
  0
ARC
  8
APS_GEOMETRY
 10
2959.149
 20
-626.941
 40
42.42
 50
352.493
 51
355.365
  0
ARC
  8
APS_GEOMETRY
 10
2915.286
 20
-623.384
 40
86.427
 50
355.365
 51
357.376
  0
ARC
  8
APS_GEOMETRY
 10
2884.573
 20
-621.977
 40
117.171
 50
357.376
 51
358.861
  0
ARC
  8
APS_GEOMETRY
 10
2802.747
 20
-620.35
 40
199.014
 50
358.861
 51
0.0
  0
ARC
  8
APS_GEOMETRY
 10
2876.336
 20
-620.35
 40
125.424
 50
360.0
 51
1.926
  0
ARC
  8
APS_GEOMETRY
 10
2934.723
 20
-618.386
 40
67.005
 50
1.926
 51
4.562
  0
ARC
  8
APS_GEOMETRY
 10
2955.31
 20
-616.744
 40
46.352
 50
4.562
 51
8.366
  0
ARC
  8
APS_GEOMETRY
 10
2982.086
 20
-612.806
 40
19.288
 50
8.366
 51
14.265
  0
ARC
  8
APS_GEOMETRY
 10
2992.211
 20
-610.245
 40
8.844
 50
14.349
 51
23.629
  0
ARC
  8
APS_GEOMETRY
 10
2997.345
 20
-607.999
 40
3.24
 50
23.629
 51
38.991
  0
ARC
  8
APS_GEOMETRY
 10
2997.365
 20
-607.984
 40
3.215
 50
38.991
 51
54.462
  0
ARC
  8
APS_GEOMETRY
 10
2994.36
 20
-612.189
 40
8.384
 50
54.462
 51
64.026
  0
ARC
  8
APS_GEOMETRY
 10
3002.838
 20
-594.822
 40
10.942
 50
235.472
 51
243.947
  0
ARC
  8
APS_GEOMETRY
 10
2998.459
 20
-601.187
 40
3.216
 50
219.806
 51
235.472
  0
ARC
  8
APS_GEOMETRY
 10
2997.796
 20
-601.74
 40
2.353
 50
198.939
 51
219.806
  0
ARC
  8
APS_GEOMETRY
 10
2998.267
 20
-601.578
 40
2.851
 50
180.0
 51
198.939
  0
ARC
  8
APS_GEOMETRY
 10
2998.128
 20
-601.578
 40
2.712
 50
126.254
 51
180.0
  0
ARC
  8
APS_GEOMETRY
 10
3002.267
 20
-607.223
 40
9.711
 50
98.616
 51
126.254
  0
ARC
  8
APS_GEOMETRY
 10
3002.85
 20
-611.886
 40
14.41
 50
94.456
 51
98.13
  0
ARC
  8
APS_GEOMETRY
 10
3005.098
 20
-640.738
 40
43.349
 50
92.337
 51
94.456
  0
ARC
  8
APS_GEOMETRY
 10
3006.057
 20
-664.216
 40
66.847
 50
90.963
 51
92.337
  0
ARC
  8
APS_GEOMETRY
 10
3007.222
 20
-733.565
 40
136.206
 50
90.0
 51
90.963
  0
ARC
  8
APS_GEOMETRY
 10
3007.222
 20
-622.181
 40
24.822
 50
83.928
 51
90.0
  0
ARC
  8
APS_GEOMETRY
 10
3009.258
 20
-603.044
 40
5.577
 50
71.095
 51
83.928
  0
ARC
  8
APS_GEOMETRY
 10
3009.444
 20
-602.501
 40
5.003
 50
56.848
 51
71.095
  0
ARC
  8
APS_GEOMETRY
 10
3003.941
 20
-610.925
 40
15.065
 50
48.652
 51
56.848
  0
ARC
  8
APS_GEOMETRY
 10
3072.701
 20
-637.967
 40
40.608
 50
84.71
 51
90.0
  0
ARC
  8
APS_GEOMETRY
 10
3073.445
 20
-629.927
 40
32.533
 50
78.799
 51
84.71
  0
ARC
  8
APS_GEOMETRY
 10
3078.262
 20
-605.584
 40
7.718
 50
49.783
 51
78.771
  0
ARC
  8
APS_GEOMETRY
 10
3081.483
 20
-601.774
 40
2.729
 50
360.0
 51
49.783
  0
ARC
  8
APS_GEOMETRY
 10
3081.193
 20
-601.774
 40
3.02
 50
342.759
 51
360.0
  0
ARC
  8
APS_GEOMETRY
 10
3082.768
 20
-602.263
 40
1.37
 50
317.045
 51
342.759
  0
ARC
  8
APS_GEOMETRY
 10
3082.008
 20
-601.555
 40
2.41
 50
301.817
 51
317.045
  0
ARC
  8
APS_GEOMETRY
 10
3070.751
 20
-583.413
 40
23.76
 50
296.98
 51
301.817
  0
ARC
  8
APS_GEOMETRY
 10
3082.753
 20
-607.031
 40
2.733
 50
116.565
 51
149.078
  0
ARC
  8
APS_GEOMETRY
 10
3086.272
 20
-609.139
 40
6.835
 50
149.078
 51
169.469
  0
ARC
  8
APS_GEOMETRY
 10
3093.776
 20
-610.534
 40
14.468
 50
169.469
 51
174.598
  0
ARC
  8
APS_GEOMETRY
 10
3132.441
 20
-614.191
 40
53.304
 50
174.598
 51
177.269
  0
ARC
  8
APS_GEOMETRY
 10
3166.438
 20
-615.812
 40
87.341
 50
177.269
 51
178.901
  0
ARC
  8
APS_GEOMETRY
 10
3271.745
 20
-617.832
 40
192.667
 50
178.901
 51
180.0
  0
ARC
  8
APS_GEOMETRY
 10
3485.735
 20
-617.832
 40
406.657
 50
180.0
 51
180.88
  0
ARC
  8
APS_GEOMETRY
 10
3235.215
 20
-621.68
 40
156.107
 50
180.88
 51
182.3
  0
ARC
  8
APS_GEOMETRY
 10
3161.989
 20
-624.621
 40
82.823
 50
182.3
 51
184.974
  0
ARC
  8
APS_GEOMETRY
 10
3092.169
 20
-630.697
 40
12.738
 50
184.974
 51
191.793
  0
ARC
  8
APS_GEOMETRY
 10
3084.058
 20
-632.249
 40
4.484
 50
193.57
 51
205.787
  0
ARC
  8
APS_GEOMETRY
 10
3082.041
 20
-633.223
 40
2.244
 50
205.787
 51
223.091
  0
ARC
  8
APS_GEOMETRY
 10
3082.553
 20
-632.744
 40
2.944
 50
223.091
 51
236.441
  0
ARC
  8
APS_GEOMETRY
 10
3086.836
 20
-626.287
 40
10.693
 50
236.441
 51
243.435
  0
ARC
  8
APS_GEOMETRY
 10
3080.279
 20
-639.758
 40
4.291
 50
37.185
 51
65.556
  0
ARC
  8
APS_GEOMETRY
 10
3081.677
 20
-638.697
 40
2.535
 50
360.0
 51
37.185
  0
ARC
  8
APS_GEOMETRY
 10
3081.601
 20
-638.697
 40
2.612
 50
312.039
 51
360.0
  0
ARC
  8
APS_GEOMETRY
 10
3078.49
 20
-635.246
 40
7.258
 50
283.815
 51
312.039
  0
ARC
  8
APS_GEOMETRY
 10
3073.349
 20
-613.941
 40
29.174
 50
279.273
 51
283.627
  0
ARC
  8
APS_GEOMETRY
 10
3071.295
 20
-601.356
 40
41.926
 50
275.641
 51
279.273
  0
ARC
  8
APS_GEOMETRY
 10
3070.509
 20
-593.402
 40
49.919
 50
272.588
 51
275.641
  0
ARC
  8
APS_GEOMETRY
 10
3069.627
 20
-573.885
 40
69.456
 50
270.0
 51
272.588
  0
ARC
  8
APS_GEOMETRY
 10
3069.627
 20
-601.447
 40
41.894
 50
262.774
 51
270.0
  0
ARC
  8
APS_GEOMETRY
 10
3065.85
 20
-631.234
 40
11.868
 50
249.175
 51
262.774
  0
ARC
  8
APS_GEOMETRY
 10
3063.477
 20
-637.472
 40
5.194
 50
221.23
 51
249.175
  0
ARC
  8
APS_GEOMETRY
 10
3061.408
 20
-639.285
 40
2.443
 50
180.0
 51
221.23
  0
ARC
  8
APS_GEOMETRY
 10
3061.007
 20
-639.285
 40
2.041
 50
142.696
 51
180.0
  0
ARC
  8
APS_GEOMETRY
 10
3064.228
 20
-641.74
 40
6.091
 50
121.357
 51
142.696
  0
ARC
  8
APS_GEOMETRY
 10
3058.785
 20
-632.825
 40
4.354
 50
301.477
 51
324.728
  0
ARC
  8
APS_GEOMETRY
 10
3059.365
 20
-633.235
 40
3.643
 50
324.728
 51
350.181
  0
ARC
  8
APS_GEOMETRY
 10
3041.125
 20
-630.218
 40
22.132
 50
350.538
 51
355.423
  0
ARC
  8
APS_GEOMETRY
 10
2966.172
 20
-624.218
 40
97.324
 50
355.423
 51
357.752
  0
ARC
  8
APS_GEOMETRY
 10
2896.579
 20
-621.486
 40
166.971
 50
357.752
 51
359.111
  0
ARC
  8
APS_GEOMETRY
 10
2673.832
 20
-618.028
 40
389.744
 50
359.111
 51
0.0
  0
ARC
  8
APS_GEOMETRY
 10
2928.353
 20
-618.028
 40
135.223
 50
0.0
 51
1.773
  0
ARC
  8
APS_GEOMETRY
 10
3007.713
 20
-615.572
 40
55.825
 50
1.773
 51
4.532
  0
ARC
  8
APS_GEOMETRY
 10
3031.834
 20
-613.66
 40
31.629
 50
4.532
 51
9.384
  0
ARC
  8
APS_GEOMETRY
 10
3056.328
 20
-609.612
 40
6.803
 50
9.384
 51
19.855
  0
ARC
  8
APS_GEOMETRY
 10
3059.569
 20
-608.379
 40
3.336
 50
18.853
 51
42.158
  0
ARC
  8
APS_GEOMETRY
 10
3056.791
 20
-610.895
 40
7.084
 50
42.158
 51
58.092
  0
ARC
  8
APS_GEOMETRY
 10
3069.02
 20
-591.998
 40
15.426
 50
230.711
 51
236.634
  0
ARC
  8
APS_GEOMETRY
 10
3061.338
 20
-601.386
 40
3.296
 50
217.875
 51
230.711
  0
ARC
  8
APS_GEOMETRY
 10
3060.285
 20
-602.205
 40
1.962
 50
196.928
 51
217.875
  0
ARC
  8
APS_GEOMETRY
 10
3061.271
 20
-601.905
 40
2.992
 50
180.0
 51
196.928
  0
ARC
  8
APS_GEOMETRY
 10
3060.626
 20
-601.905
 40
2.347
 50
148.791
 51
180.0
  0
ARC
  8
APS_GEOMETRY
 10
3061.242
 20
-602.278
 40
3.067
 50
121.569
 51
148.791
  0
ARC
  8
APS_GEOMETRY
 10
3062.347
 20
-604.077
 40
5.178
 50
112.806
 51
121.569
  0
ARC
  8
APS_GEOMETRY
 10
3065.334
 20
-611.181
 40
12.885
 50
107.254
 51
112.806
  0
ARC
  8
APS_GEOMETRY
 10
3067.164
 20
-617.073
 40
19.054
 50
103.487
 51
107.254
  0
ARC
  8
APS_GEOMETRY
 10
3071.354
 20
-634.545
 40
37.022
 50
100.784
 51
103.487
  0
ARC
  8
APS_GEOMETRY
 10
3072.667
 20
-639.376
 40
42.015
 50
95.643
 51
101.31
  0
ARC
  8
APS_GEOMETRY
 10
3072.701
 20
-639.722
 40
42.362
 50
90.0
 51
95.643
  0
ARC
  8
APS_GEOMETRY
 10
3113.371
 20
-618.394
 40
21.264
 50
77.257
 51
90.0
  0
ARC
  8
APS_GEOMETRY
 10
3113.155
 20
-619.35
 40
22.243
 50
64.799
 51
77.257
  0
ARC
  8
APS_GEOMETRY
 10
3131.473
 20
-580.351
 40
20.843
 50
244.885
 51
251.175
  0
ARC
  8
APS_GEOMETRY
 10
3125.504
 20
-597.859
 40
2.346
 50
251.175
 51
270.0
  0
ARC
  8
APS_GEOMETRY
 10
3125.504
 20
-596.398
 40
3.806
 50
270.0
 51
278.82
  0
ARC
  8
APS_GEOMETRY
 10
3123.045
 20
-580.551
 40
19.844
 50
278.82
 51
282.68
  0
ARC
  8
APS_GEOMETRY
 10
3128.19
 20
-603.331
 40
3.511
 50
95.906
 51
102.995
  0
ARC
  8
APS_GEOMETRY
 10
3128.349
 20
-604.868
 40
5.055
 50
90.0
 51
95.906
  0
ARC
  8
APS_GEOMETRY
 10
3128.349
 20
-603.168
 40
3.356
 50
62.447
 51
90.0
  0
ARC
  8
APS_GEOMETRY
 10
3127.753
 20
-604.311
 40
4.645
 50
39.094
 51
62.447
  0
ARC
  8
APS_GEOMETRY
 10
3121.518
 20
-609.525
 40
12.772
 50
18.435
 51
39.611
  0
ARC
  8
APS_GEOMETRY
 10
3117.692
 20
-610.801
 40
16.806
 50
360.0
 51
18.435
  0
ARC
  8
APS_GEOMETRY
 10
3126.164
 20
-610.801
 40
8.333
 50
334.877
 51
360.0
  0
ARC
  8
APS_GEOMETRY
 10
3128.671
 20
-611.976
 40
5.565
 50
304.007
 51
334.877
  0
ARC
  8
APS_GEOMETRY
 10
3128.629
 20
-611.858
 40
5.686
 50
286.39
 51
303.69
  0
ARC
  8
APS_GEOMETRY
 10
3128.447
 20
-611.24
 40
6.33
 50
270.0
 51
286.39
  0
ARC
  8
APS_GEOMETRY
 10
3128.447
 20
-611.314
 40
6.257
 50
255.155
 51
270.0
  0
ARC
  8
APS_GEOMETRY
 10
3127.762
 20
-613.9
 40
3.581
 50
235.491
 51
255.155
  0
ARC
  8
APS_GEOMETRY
 10
3128.106
 20
-613.399
 40
4.189
 50
218.48
 51
235.491
  0
ARC
  8
APS_GEOMETRY
 10
3133.727
 20
-608.931
 40
11.369
 50
208.179
 51
218.48
  0
ARC
  8
APS_GEOMETRY
 10
3076.102
 20
-640.21
 40
54.198
 50
28.56
 51
31.664
  0
ARC
  8
APS_GEOMETRY
 10
3111.315
 20
-618.494
 40
12.827
 50
31.664
 51
38.047
  0
ARC
  8
APS_GEOMETRY
 10
3113.875
 20
-616.49
 40
9.576
 50
38.047
 51
46.56
  0
ARC
  8
APS_GEOMETRY
 10
3112.544
 20
-617.895
 40
11.512
 50
46.56
 51
54.324
  0
ARC
  8
APS_GEOMETRY
 10
3111.776
 20
-619.217
 40
13.034
 50
54.968
 51
71.48
  0
ARC
  8
APS_GEOMETRY
 10
3112.619
 20
-616.7
 40
10.38
 50
71.48
 51
90.0
  0
ARC
  8
APS_GEOMETRY
 10
3112.619
 20
-613.571
 40
7.251
 50
90.0
 51
114.63
  0
ARC
  8
APS_GEOMETRY
 10
3112.255
 20
-612.777
 40
6.377
 50
114.63
 51
140.921
  0
ARC
  8
APS_GEOMETRY
 10
3113.331
 20
-613.65
 40
7.763
 50
140.921
 51
163.13
  0
ARC
  8
APS_GEOMETRY
 10
3118.708
 20
-615.281
 40
13.382
 50
163.13
 51
180.0
  0
ARC
  8
APS_GEOMETRY
 10
3125.681
 20
-615.281
 40
20.355
 50
180.0
 51
195.44
  0
ARC
  8
APS_GEOMETRY
 10
3124.623
 20
-615.573
 40
19.258
 50
195.44
 51
211.316
  0
ARC
  8
APS_GEOMETRY
 10
3119.534
 20
-618.563
 40
13.357
 50
211.708
 51
240.457
  0
ARC
  8
APS_GEOMETRY
 10
3119.192
 20
-619.166
 40
12.663
 50
240.457
 51
270.0
  0
ARC
  8
APS_GEOMETRY
 10
3119.192
 20
-616.078
 40
15.751
 50
270.0
 51
279.549
  0
ARC
  8
APS_GEOMETRY
 10
3118.996
 20
-614.914
 40
16.931
 50
279.549
 51
288.759
  0
ARC
  8
APS_GEOMETRY
 10
3119.822
 20
-617.345
 40
14.364
 50
288.759
 51
299.545
  0
ARC
  8
APS_GEOMETRY
 10
3123.132
 20
-623.184
 40
7.652
 50
299.545
 51
314.341
  0
ARC
  8
APS_GEOMETRY
 10
3133.367
 20
-633.815
 40
7.105
 50
120.141
 51
133.452
  0
ARC
  8
APS_GEOMETRY
 10
3130.508
 20
-628.891
 40
1.412
 50
90.0
 51
120.141
  0
ARC
  8
APS_GEOMETRY
 10
3130.508
 20
-629.709
 40
2.23
 50
61.952
 51
90.0
  0
ARC
  8
APS_GEOMETRY
 10
3130.176
 20
-630.332
 40
2.936
 50
37.569
 51
61.952
  0
ARC
  8
APS_GEOMETRY
 10
3129.556
 20
-630.809
 40
3.717
 50
17.665
 51
37.569
  0
ARC
  8
APS_GEOMETRY
 10
3128.612
 20
-631.11
 40
4.709
 50
360.0
 51
17.665
  0
ARC
  8
APS_GEOMETRY
 10
3126.24
 20
-631.11
 40
7.081
 50
344.932
 51
360.0
  0
ARC
  8
APS_GEOMETRY
 10
3119.942
 20
-629.414
 40
13.603
 50
334.075
 51
344.932
  0
ARC
  8
APS_GEOMETRY
 10
3119.744
 20
-629.318
 40
13.823
 50
323.374
 51
334.075
  0
ARC
  8
APS_GEOMETRY
 10
3123.807
 20
-632.338
 40
8.76
 50
309.92
 51
323.374
  0
ARC
  8
APS_GEOMETRY
 10
3127.868
 20
-637.129
 40
2.48
 50
289.026
 51
308.991
  0
ARC
  8
APS_GEOMETRY
 10
3123.535
 20
-624.564
 40
15.771
 50
281.143
 51
289.026
  0
ARC
  8
APS_GEOMETRY
 10
3127.929
 20
-647.345
 40
7.431
 50
100.437
 51
110.12
  0
ARC
  8
APS_GEOMETRY
 10
3133.751
 20
-663.235
 40
24.353
 50
110.12
 51
115.463
  0
ARC
  8
APS_GEOMETRY
 10
3112.969
 20
-619.755
 40
23.838
 50
282.94
 51
295.628
  0
ARC
  8
APS_GEOMETRY
 10
3113.175
 20
-620.649
 40
22.921
 50
270.0
 51
282.94
  0
ARC
  8
APS_GEOMETRY
 10
3113.175
 20
-619.295
 40
24.275
 50
257.307
 51
270.0
  0
ARC
  8
APS_GEOMETRY
 10
3114.2
 20
-614.745
 40
28.939
 50
245.686
 51
257.307
  0
ARC
  8
APS_GEOMETRY
 10
3111.629
 20
-620.386
 40
22.739
 50
228.801
 51
245.735
  0
ARC
  8
APS_GEOMETRY
 10
3111.672
 20
-620.337
 40
22.805
 50
211.891
 51
228.801
  0
ARC
  8
APS_GEOMETRY
 10
3113.02
 20
-619.367
 40
24.462
 50
196.728
 51
212.152
  0
ARC
  8
APS_GEOMETRY
 10
3109.532
 20
-620.415
 40
20.82
 50
180.0
 51
196.728
  0
ARC
  8
APS_GEOMETRY
 10
3110.04
 20
-620.415
 40
21.327
 50
161.184
 51
180.0
  0
ARC
  8
APS_GEOMETRY
 10
3111.408
 20
-620.882
 40
22.773
 50
142.98
 51
161.184
  0
ARC
  8
APS_GEOMETRY
 10
3112.472
 20
-621.696
 40
24.112
 50
127.824
 51
142.958
  0
ARC
  8
APS_GEOMETRY
 10
3114.226
 20
-623.955
 40
26.973
 50
113.52
 51
127.824
  0
ARC
  8
APS_GEOMETRY
 10
3113.655
 20
-622.636
 40
25.535
 50
101.927
 51
113.527
  0
ARC
  8
APS_GEOMETRY
 10
3113.371
 20
-621.291
 40
24.161
 50
90.0
 51
101.927
  0
ARC
  8
APS_GEOMETRY
 10
3157.92
 20
-637.967
 40
40.608
 50
84.71
 51
90.0
  0
ARC
  8
APS_GEOMETRY
 10
3158.664
 20
-629.927
 40
32.533
 50
78.799
 51
84.71
  0
ARC
  8
APS_GEOMETRY
 10
3163.481
 20
-605.584
 40
7.718
 50
49.783
 51
78.771
  0
ARC
  8
APS_GEOMETRY
 10
3166.702
 20
-601.774
 40
2.729
 50
360.0
 51
49.783
  0
ARC
  8
APS_GEOMETRY
 10
3166.412
 20
-601.774
 40
3.02
 50
342.759
 51
360.0
  0
ARC
  8
APS_GEOMETRY
 10
3167.987
 20
-602.263
 40
1.37
 50
317.045
 51
342.759
  0
ARC
  8
APS_GEOMETRY
 10
3167.226
 20
-601.555
 40
2.41
 50
301.817
 51
317.045
  0
ARC
  8
APS_GEOMETRY
 10
3155.97
 20
-583.413
 40
23.76
 50
296.98
 51
301.817
  0
ARC
  8
APS_GEOMETRY
 10
3167.972
 20
-607.031
 40
2.733
 50
116.565
 51
149.078
  0
ARC
  8
APS_GEOMETRY
 10
3171.491
 20
-609.139
 40
6.835
 50
149.078
 51
169.469
  0
ARC
  8
APS_GEOMETRY
 10
3178.995
 20
-610.534
 40
14.468
 50
169.469
 51
174.598
  0
ARC
  8
APS_GEOMETRY
 10
3217.659
 20
-614.191
 40
53.304
 50
174.598
 51
177.269
  0
ARC
  8
APS_GEOMETRY
 10
3251.657
 20
-615.812
 40
87.341
 50
177.269
 51
178.901
  0
ARC
  8
APS_GEOMETRY
 10
3356.964
 20
-617.832
 40
192.667
 50
178.901
 51
180.0
  0
ARC
  8
APS_GEOMETRY
 10
3570.954
 20
-617.832
 40
406.657
 50
180.0
 51
180.88
  0
ARC
  8
APS_GEOMETRY
 10
3320.434
 20
-621.68
 40
156.107
 50
180.88
 51
182.3
  0
ARC
  8
APS_GEOMETRY
 10
3247.208
 20
-624.621
 40
82.823
 50
182.3
 51
184.974
  0
ARC
  8
APS_GEOMETRY
 10
3177.387
 20
-630.697
 40
12.738
 50
184.974
 51
191.793
  0
ARC
  8
APS_GEOMETRY
 10
3169.277
 20
-632.249
 40
4.484
 50
193.57
 51
205.787
  0
ARC
  8
APS_GEOMETRY
 10
3167.26
 20
-633.223
 40
2.244
 50
205.787
 51
223.091
  0
ARC
  8
APS_GEOMETRY
 10
3167.772
 20
-632.744
 40
2.944
 50
223.091
 51
236.441
  0
ARC
  8
APS_GEOMETRY
 10
3172.055
 20
-626.287
 40
10.693
 50
236.441
 51
243.435
  0
ARC
  8
APS_GEOMETRY
 10
3165.497
 20
-639.758
 40
4.291
 50
37.185
 51
65.556
  0
ARC
  8
APS_GEOMETRY
 10
3166.896
 20
-638.697
 40
2.535
 50
360.0
 51
37.185
  0
ARC
  8
APS_GEOMETRY
 10
3166.819
 20
-638.697
 40
2.612
 50
312.039
 51
360.0
  0
ARC
  8
APS_GEOMETRY
 10
3163.709
 20
-635.246
 40
7.258
 50
283.815
 51
312.039
  0
ARC
  8
APS_GEOMETRY
 10
3158.568
 20
-613.941
 40
29.174
 50
279.273
 51
283.627
  0
ARC
  8
APS_GEOMETRY
 10
3156.513
 20
-601.356
 40
41.926
 50
275.641
 51
279.273
  0
ARC
  8
APS_GEOMETRY
 10
3155.728
 20
-593.402
 40
49.919
 50
272.588
 51
275.641
  0
ARC
  8
APS_GEOMETRY
 10
3154.846
 20
-573.885
 40
69.456
 50
270.0
 51
272.588
  0
ARC
  8
APS_GEOMETRY
 10
3154.846
 20
-601.447
 40
41.894
 50
262.774
 51
270.0
  0
ARC
  8
APS_GEOMETRY
 10
3151.069
 20
-631.234
 40
11.868
 50
249.175
 51
262.774
  0
ARC
  8
APS_GEOMETRY
 10
3148.696
 20
-637.472
 40
5.194
 50
221.23
 51
249.175
  0
ARC
  8
APS_GEOMETRY
 10
3146.627
 20
-639.285
 40
2.443
 50
180.0
 51
221.23
  0
ARC
  8
APS_GEOMETRY
 10
3146.226
 20
-639.285
 40
2.041
 50
142.696
 51
180.0
  0
ARC
  8
APS_GEOMETRY
 10
3149.447
 20
-641.74
 40
6.091
 50
121.357
 51
142.696
  0
ARC
  8
APS_GEOMETRY
 10
3144.004
 20
-632.825
 40
4.354
 50
301.477
 51
324.728
  0
ARC
  8
APS_GEOMETRY
 10
3144.584
 20
-633.235
 40
3.643
 50
324.728
 51
350.181
  0
ARC
  8
APS_GEOMETRY
 10
3126.343
 20
-630.218
 40
22.132
 50
350.538
 51
355.423
  0
ARC
  8
APS_GEOMETRY
 10
3051.391
 20
-624.218
 40
97.324
 50
355.423
 51
357.752
  0
ARC
  8
APS_GEOMETRY
 10
2981.798
 20
-621.486
 40
166.971
 50
357.752
 51
359.111
  0
ARC
  8
APS_GEOMETRY
 10
2759.051
 20
-618.028
 40
389.744
 50
359.111
 51
0.0
  0
ARC
  8
APS_GEOMETRY
 10
3013.572
 20
-618.028
 40
135.223
 50
0.0
 51
1.773
  0
ARC
  8
APS_GEOMETRY
 10
3092.932
 20
-615.572
 40
55.825
 50
1.773
 51
4.532
  0
ARC
  8
APS_GEOMETRY
 10
3117.053
 20
-613.66
 40
31.629
 50
4.532
 51
9.384
  0
ARC
  8
APS_GEOMETRY
 10
3141.546
 20
-609.612
 40
6.803
 50
9.384
 51
19.855
  0
ARC
  8
APS_GEOMETRY
 10
3144.788
 20
-608.379
 40
3.336
 50
18.853
 51
42.158
  0
ARC
  8
APS_GEOMETRY
 10
3142.01
 20
-610.895
 40
7.084
 50
42.158
 51
58.092
  0
ARC
  8
APS_GEOMETRY
 10
3154.238
 20
-591.998
 40
15.426
 50
230.711
 51
236.634
  0
ARC
  8
APS_GEOMETRY
 10
3146.557
 20
-601.386
 40
3.296
 50
217.875
 51
230.711
  0
ARC
  8
APS_GEOMETRY
 10
3145.504
 20
-602.205
 40
1.962
 50
196.928
 51
217.875
  0
ARC
  8
APS_GEOMETRY
 10
3146.49
 20
-601.905
 40
2.992
 50
180.0
 51
196.928
  0
ARC
  8
APS_GEOMETRY
 10
3145.845
 20
-601.905
 40
2.347
 50
148.791
 51
180.0
  0
ARC
  8
APS_GEOMETRY
 10
3146.46
 20
-602.278
 40
3.067
 50
121.569
 51
148.791
  0
ARC
  8
APS_GEOMETRY
 10
3147.566
 20
-604.077
 40
5.178
 50
112.806
 51
121.569
  0
ARC
  8
APS_GEOMETRY
 10
3150.553
 20
-611.181
 40
12.885
 50
107.254
 51
112.806
  0
ARC
  8
APS_GEOMETRY
 10
3152.383
 20
-617.073
 40
19.054
 50
103.487
 51
107.254
  0
ARC
  8
APS_GEOMETRY
 10
3156.573
 20
-634.545
 40
37.022
 50
100.784
 51
103.487
  0
ARC
  8
APS_GEOMETRY
 10
3157.886
 20
-639.376
 40
42.015
 50
95.643
 51
101.31
  0
ARC
  8
APS_GEOMETRY
 10
3157.92
 20
-639.722
 40
42.362
 50
90.0
 51
95.643
  0
LINE
  8
APS_GEOMETRY
 10
3227.068
 11
3227.068
 20
-627.283
 21
-610.081
  0
ARC
  8
APS_GEOMETRY
 10
3187.347
 20
-610.081
 40
39.721
 50
0.0
 51
2.404
  0
ARC
  8
APS_GEOMETRY
 10
3210.864
 20
-609.094
 40
16.183
 50
2.404
 51
6.17
  0
ARC
  8
APS_GEOMETRY
 10
3217.913
 20
-608.332
 40
9.093
 50
6.17
 51
12.824
  0
ARC
  8
APS_GEOMETRY
 10
3224.812
 20
-606.761
 40
2.017
 50
12.824
 51
26.98
  0
ARC
  8
APS_GEOMETRY
 10
3225.135
 20
-606.597
 40
1.655
 50
26.98
 51
59.65
  0
ARC
  8
APS_GEOMETRY
 10
3222.097
 20
-611.786
 40
7.668
 50
59.65
 51
74.667
  0
ARC
  8
APS_GEOMETRY
 10
3225.599
 20
-599.287
 40
5.313
 50
225.0
 51
253.887
  0
ARC
  8
APS_GEOMETRY
 10
3223.438
 20
-601.447
 40
2.257
 50
180.0
 51
225.0
  0
ARC
  8
APS_GEOMETRY
 10
3223.853
 20
-601.447
 40
2.672
 50
151.157
 51
180.0
  0
ARC
  8
APS_GEOMETRY
 10
3223.847
 20
-601.444
 40
2.665
 50
122.276
 51
151.157
  0
ARC
  8
APS_GEOMETRY
 10
3224.611
 20
-602.654
 40
4.096
 50
102.308
 51
122.276
  0
ARC
  8
APS_GEOMETRY
 10
3226.021
 20
-609.118
 40
10.712
 50
90.0
 51
102.308
  0
ARC
  8
APS_GEOMETRY
 10
3226.021
 20
-621.572
 40
23.166
 50
88.989
 51
90.0
  0
ARC
  8
APS_GEOMETRY
 10
3224.074
 20
-731.917
 40
133.528
 50
88.568
 51
88.989
  0
ARC
  8
APS_GEOMETRY
 10
3221.324
 20
-841.921
 40
243.567
 50
88.337
 51
88.568
  0
ARC
  8
APS_GEOMETRY
 10
3210.666
 20
-1209.037
 40
610.838
 50
88.191
 51
88.337
  0
LINE
  8
APS_GEOMETRY
 10
3229.946
 11
3231.875
 20
-598.504
 21
-598.504
  0
ARC
  8
APS_GEOMETRY
 10
3225.394
 20
477.445
 40
1075.969
 50
270.345
 51
270.49
  0
ARC
  8
APS_GEOMETRY
 10
3231.433
 20
-229.165
 40
369.332
 50
270.49
 51
270.736
  0
ARC
  8
APS_GEOMETRY
 10
3233.912
 20
-422.037
 40
176.445
 50
270.736
 51
271.253
  0
ARC
  8
APS_GEOMETRY
 10
3237.438
 20
-583.253
 40
15.19
 50
271.253
 51
273.013
  0
ARC
  8
APS_GEOMETRY
 10
3237.291
 20
-580.466
 40
17.982
 50
273.013
 51
274.5
  0
ARC
  8
APS_GEOMETRY
 10
3220.635
 20
-368.812
 40
230.289
 50
274.5
 51
274.915
  0
LINE
  8
APS_GEOMETRY
 10
3240.366
 11
3242.329
 20
-598.255
 21
-598.082
  0
LINE
  8
APS_GEOMETRY
 10
3242.329
 11
3244.891
 20
-598.082
 21
-597.85
  0
ARC
  8
APS_GEOMETRY
 10
3249.104
 20
-638.574
 40
40.941
 50
93.24
 51
95.906
  0
ARC
  8
APS_GEOMETRY
 10
3248.358
 20
-625.39
 40
27.736
 50
90.0
 51
93.24
  0
ARC
  8
APS_GEOMETRY
 10
3248.358
 20
-621.207
 40
23.553
 50
77.12
 51
90.0
  0
ARC
  8
APS_GEOMETRY
 10
3249.599
 20
-615.781
 40
17.987
 50
62.371
 51
77.12
  0
ARC
  8
APS_GEOMETRY
 10
3251.7
 20
-611.841
 40
13.522
 50
31.215
 51
62.517
  0
ARC
  8
APS_GEOMETRY
 10
3251.636
 20
-611.88
 40
13.597
 50
360.0
 51
31.215
  0
ARC
  8
APS_GEOMETRY
 10
3251.271
 20
-611.88
 40
13.962
 50
334.496
 51
360.0
  0
ARC
  8
APS_GEOMETRY
 10
3251.958
 20
-612.207
 40
13.201
 50
308.254
 51
334.496
  0
ARC
  8
APS_GEOMETRY
 10
3249.858
 20
-609.441
 40
16.674
 50
287.855
 51
308.034
  0
ARC
  8
APS_GEOMETRY
 10
3248.456
 20
-605.088
 40
21.247
 50
270.0
 51
287.855
  0
ARC
  8
APS_GEOMETRY
 10
3248.456
 20
-594.138
 40
32.197
 50
266.918
 51
270.0
  0
ARC
  8
APS_GEOMETRY
 10
3250.411
 20
-557.841
 40
68.546
 50
264.806
 51
266.918
  0
ARC
  8
APS_GEOMETRY
 10
3237.338
 20
-719.95
 40
94.095
 50
85.815
 51
86.634
  0
ARC
  8
APS_GEOMETRY
 10
3242.537
 20
-631.571
 40
5.563
 50
86.634
 51
90.0
  0
ARC
  8
APS_GEOMETRY
 10
3242.537
 20
-626.829
 40
0.821
 50
90.0
 51
139.686
  0
ARC
  8
APS_GEOMETRY
 10
3242.841
 20
-627.087
 40
1.22
 50
139.686
 51
180.0
  0
LINE
  8
APS_GEOMETRY
 10
3241.621
 11
3241.621
 20
-627.087
 21
-627.283
  0
LINE
  8
APS_GEOMETRY
 10
3241.621
 11
3241.85
 20
-627.283
 21
-632.647
  0
ARC
  8
APS_GEOMETRY
 10
3249.6
 20
-632.324
 40
7.757
 50
182.386
 51
193.753
  0
ARC
  8
APS_GEOMETRY
 10
3244.602
 20
-633.547
 40
2.612
 50
193.753
 51
213.408
  0
ARC
  8
APS_GEOMETRY
 10
3244.659
 20
-633.51
 40
2.679
 50
213.408
 51
232.628
  0
ARC
  8
APS_GEOMETRY
 10
3249.169
 20
-627.604
 40
10.11
 50
232.628
 51
242.488
  0
ARC
  8
APS_GEOMETRY
 10
3241.646
 20
-641.869
 40
6.017
 50
40.539
 51
61.699
  0
ARC
  8
APS_GEOMETRY
 10
3244.935
 20
-639.056
 40
1.69
 50
360.0
 51
40.539
  0
ARC
  8
APS_GEOMETRY
 10
3244.355
 20
-639.056
 40
2.269
 50
315.297
 51
360.0
  0
ARC
  8
APS_GEOMETRY
 10
3241.286
 20
-636.019
 40
6.588
 50
289.502
 51
315.297
  0
ARC
  8
APS_GEOMETRY
 10
3239.036
 20
-629.667
 40
13.326
 50
282.372
 51
289.502
  0
ARC
  8
APS_GEOMETRY
 10
3236.674
 20
-618.896
 40
24.353
 50
277.099
 51
282.372
  0
ARC
  8
APS_GEOMETRY
 10
3235.702
 20
-611.097
 40
32.213
 50
273.104
 51
277.099
  0
ARC
  8
APS_GEOMETRY
 10
3234.557
 20
-589.978
 40
53.362
 50
270.0
 51
273.104
  0
ARC
  8
APS_GEOMETRY
 10
3234.557
 20
-590.618
 40
52.723
 50
263.473
 51
270.0
  0
ARC
  8
APS_GEOMETRY
 10
3230.225
 20
-628.485
 40
14.609
 50
251.056
 51
263.473
  0
ARC
  8
APS_GEOMETRY
 10
3227.443
 20
-636.59
 40
6.039
 50
224.161
 51
251.056
  0
ARC
  8
APS_GEOMETRY
 10
3224.768
 20
-639.187
 40
2.311
 50
180.0
 51
224.161
  0
ARC
  8
APS_GEOMETRY
 10
3225.248
 20
-639.187
 40
2.791
 50
160.821
 51
180.0
  0
ARC
  8
APS_GEOMETRY
 10
3224.077
 20
-638.78
 40
1.552
 50
135.0
 51
160.821
  0
ARC
  8
APS_GEOMETRY
 10
3225.184
 20
-639.887
 40
3.117
 50
121.522
 51
135.0
  0
ARC
  8
APS_GEOMETRY
 10
3237.669
 20
-660.243
 40
26.996
 50
116.952
 51
121.522
  0
ARC
  8
APS_GEOMETRY
 10
3224.036
 20
-633.532
 40
2.993
 50
297.824
 51
321.605
  0
ARC
  8
APS_GEOMETRY
 10
3224.725
 20
-634.078
 40
2.113
 50
321.605
 51
349.992
  0
ARC
  8
APS_GEOMETRY
 10
3221.526
 20
-633.513
 40
5.362
 50
349.992
 51
356.014
  0
ARC
  8
APS_GEOMETRY
 10
3172.863
 20
-630.122
 40
54.143
 50
356.014
 51
357.908
  0
ARC
  8
APS_GEOMETRY
 10
3116.059
 20
-628.047
 40
110.985
 50
357.908
 51
358.833
  0
ARC
  8
APS_GEOMETRY
 10
2910.663
 20
-623.863
 40
316.424
 50
358.833
 51
359.381
  0
LINE
  8
APS_GEOMETRY
 10
3241.85
 11
3241.85
 20
-605.928
 21
-617.047
  0
ARC
  8
APS_GEOMETRY
 10
3245.224
 20
-617.047
 40
3.374
 50
180.0
 51
199.885
  0
ARC
  8
APS_GEOMETRY
 10
3242.699
 20
-617.96
 40
0.689
 50
199.885
 51
244.799
  0
ARC
  8
APS_GEOMETRY
 10
3244.151
 20
-614.97
 40
4.013
 50
244.231
 51
258.996
  0
ARC
  8
APS_GEOMETRY
 10
3244.761
 20
-611.833
 40
7.209
 50
258.996
 51
270.0
  0
ARC
  8
APS_GEOMETRY
 10
3244.761
 20
-612.591
 40
6.45
 50
270.0
 51
288.435
  0
ARC
  8
APS_GEOMETRY
 10
3245.223
 20
-613.98
 40
4.987
 50
288.435
 51
309.428
  0
ARC
  8
APS_GEOMETRY
 10
3245.392
 20
-614.154
 40
4.745
 50
309.193
 51
339.939
  0
ARC
  8
APS_GEOMETRY
 10
3239.522
 20
-612.011
 40
10.994
 50
339.939
 51
0.0
  0
ARC
  8
APS_GEOMETRY
 10
3240.169
 20
-612.011
 40
10.348
 50
0.0
 51
22.011
  0
ARC
  8
APS_GEOMETRY
 10
3244.753
 20
-610.157
 40
5.403
 50
22.011
 51
52.651
  0
ARC
  8
APS_GEOMETRY
 10
3244.683
 20
-610.206
 40
5.485
 50
52.374
 51
72.309
  0
ARC
  8
APS_GEOMETRY
 10
3244.237
 20
-611.602
 40
6.95
 50
72.309
 51
90.0
  0
ARC
  8
APS_GEOMETRY
 10
3244.237
 20
-608.704
 40
4.052
 50
90.0
 51
118.113
  0
ARC
  8
APS_GEOMETRY
 10
3242.754
 20
-605.928
 40
0.904
 50
118.113
 51
180.0
  0
ARC
  8
APS_GEOMETRY
 10
3294.588
 20
-622.912
 40
25.782
 50
71.91
 51
90.0
  0
ARC
  8
APS_GEOMETRY
 10
3295.586
 20
-619.855
 40
22.566
 50
52.561
 51
71.91
  0
ARC
  8
APS_GEOMETRY
 10
3295.325
 20
-619.932
 40
22.786
 50
38.846
 51
52.156
  0
ARC
  8
APS_GEOMETRY
 10
3291.752
 20
-622.808
 40
27.372
 50
26.707
 51
38.846
  0
ARC
  8
APS_GEOMETRY
 10
3292.46
 20
-622.23
 40
26.482
 50
13.868
 51
26.278
  0
ARC
  8
APS_GEOMETRY
 10
3297.559
 20
-620.971
 40
21.229
 50
360.0
 51
13.868
  0
ARC
  8
APS_GEOMETRY
 10
3297.89
 20
-620.971
 40
20.899
 50
339.712
 51
360.0
  0
ARC
  8
APS_GEOMETRY
 10
3296.713
 20
-620.537
 40
22.153
 50
320.013
 51
339.712
  0
ARC
  8
APS_GEOMETRY
 10
3296.518
 20
-620.429
 40
22.372
 50
303.344
 51
320.123
  0
ARC
  8
APS_GEOMETRY
 10
3294.222
 20
-616.94
 40
26.548
 50
287.949
 51
303.344
  0
ARC
  8
APS_GEOMETRY
 10
3293.468
 20
-614.325
 40
29.269
 50
279.039
 51
287.776
  0
ARC
  8
APS_GEOMETRY
 10
3293.77
 20
-616.224
 40
27.346
 50
270.0
 51
279.039
  0
ARC
  8
APS_GEOMETRY
 10
3293.77
 20
-617.559
 40
26.011
 50
257.728
 51
270.0
  0
ARC
  8
APS_GEOMETRY
 10
3293.811
 20
-617.371
 40
26.203
 50
245.501
 51
257.728
  0
ARC
  8
APS_GEOMETRY
 10
3292.338
 20
-620.593
 40
22.66
 50
228.665
 51
245.511
  0
ARC
  8
APS_GEOMETRY
 10
3291.848
 20
-621.15
 40
21.918
 50
211.535
 51
228.665
  0
ARC
  8
APS_GEOMETRY
 10
3292.49
 20
-620.679
 40
22.712
 50
195.642
 51
211.701
  0
ARC
  8
APS_GEOMETRY
 10
3293.664
 20
-620.35
 40
23.931
 50
180.0
 51
195.642
  0
ARC
  8
APS_GEOMETRY
 10
3293.916
 20
-620.35
 40
24.183
 50
162.181
 51
180.0
  0
ARC
  8
APS_GEOMETRY
 10
3291.709
 20
-619.641
 40
21.865
 50
143.434
 51
162.181
  0
ARC
  8
APS_GEOMETRY
 10
3291.412
 20
-619.403
 40
21.485
 50
126.384
 51
143.471
  0
ARC
  8
APS_GEOMETRY
 10
3293.446
 20
-622.164
 40
24.914
 50
110.525
 51
126.384
  0
ARC
  8
APS_GEOMETRY
 10
3293.346
 20
-621.414
 40
24.177
 50
99.77
 51
110.925
  0
ARC
  8
APS_GEOMETRY
 10
3294.588
 20
-628.626
 40
31.496
 50
90.0
 51
99.77
  0
ARC
  8
APS_GEOMETRY
 10
3291.481
 20
-611.324
 40
4.807
 50
90.0
 51
119.604
  0
ARC
  8
APS_GEOMETRY
 10
3291.902
 20
-612.065
 40
5.659
 50
119.604
 51
146.842
  0
ARC
  8
APS_GEOMETRY
 10
3292.748
 20
-612.758
 40
6.748
 50
145.84
 51
164.055
  0
ARC
  8
APS_GEOMETRY
 10
3294.709
 20
-613.319
 40
8.788
 50
164.055
 51
180.0
  0
ARC
  8
APS_GEOMETRY
 10
3306.974
 20
-613.319
 40
21.053
 50
180.0
 51
189.977
  0
ARC
  8
APS_GEOMETRY
 10
3325.625
 20
-610.038
 40
39.991
 50
189.977
 51
197.211
  0
ARC
  8
APS_GEOMETRY
 10
3329.705
 20
-608.774
 40
44.261
 50
197.211
 51
203.76
  0
ARC
  8
APS_GEOMETRY
 10
3319.542
 20
-613.248
 40
33.157
 50
203.76
 51
211.329
  0
ARC
  8
APS_GEOMETRY
 10
3298.674
 20
-625.772
 40
8.821
 50
212.32
 51
224.441
  0
ARC
  8
APS_GEOMETRY
 10
3297.819
 20
-626.611
 40
7.623
 50
224.441
 51
237.484
  0
ARC
  8
APS_GEOMETRY
 10
3297.266
 20
-627.478
 40
6.595
 50
237.484
 51
252.416
  0
ARC
  8
APS_GEOMETRY
 10
3296.713
 20
-629.221
 40
4.766
 50
252.416
 51
270.0
  0
ARC
  8
APS_GEOMETRY
 10
3296.713
 20
-628.656
 40
5.331
 50
270.0
 51
294.953
  0
ARC
  8
APS_GEOMETRY
 10
3296.863
 20
-628.977
 40
4.977
 50
294.953
 51
320.793
  0
ARC
  8
APS_GEOMETRY
 10
3296.062
 20
-628.324
 40
6.011
 50
320.793
 51
342.777
  0
ARC
  8
APS_GEOMETRY
 10
3292.494
 20
-627.218
 40
9.746
 50
342.777
 51
0.0
  0
ARC
  8
APS_GEOMETRY
 10
3275.733
 20
-627.218
 40
26.507
 50
0.0
 51
8.499
  0
ARC
  8
APS_GEOMETRY
 10
3264.066
 20
-628.961
 40
38.304
 50
8.499
 51
15.566
  0
ARC
  8
APS_GEOMETRY
 10
3265.469
 20
-628.57
 40
36.848
 50
15.566
 51
22.909
  0
ARC
  8
APS_GEOMETRY
 10
3277.532
 20
-623.472
 40
23.751
 50
22.909
 51
32.057
  0
ARC
  8
APS_GEOMETRY
 10
3287.008
 20
-617.503
 40
12.552
 50
31.921
 51
42.51
  0
ARC
  8
APS_GEOMETRY
 10
3289.61
 20
-615.118
 40
9.022
 50
42.51
 51
55.008
  0
ARC
  8
APS_GEOMETRY
 10
3290.489
 20
-613.862
 40
7.489
 50
55.008
 51
69.88
  0
ARC
  8
APS_GEOMETRY
 10
3291.277
 20
-611.711
 40
5.198
 50
69.88
 51
87.754
  0
ARC
  8
APS_GEOMETRY
 10
3345.101
 20
-626.335
 40
2.42
 50
90.0
 51
115.837
  0
ARC
  8
APS_GEOMETRY
 10
3344.506
 20
-625.104
 40
1.053
 50
115.837
 51
155.462
  0
ARC
  8
APS_GEOMETRY
 10
3345.201
 20
-625.422
 40
1.817
 50
155.462
 51
168.366
  0
ARC
  8
APS_GEOMETRY
 10
3351.547
 20
-626.728
 40
8.296
 50
168.366
 51
174.395
  0
ARC
  8
APS_GEOMETRY
 10
3357.943
 20
-627.356
 40
14.722
 50
174.395
 51
177.813
  0
ARC
  8
APS_GEOMETRY
 10
3379.171
 20
-628.166
 40
35.966
 50
177.813
 51
180.0
  0
ARC
  8
APS_GEOMETRY
 10
3394.539
 20
-628.166
 40
51.335
 50
180.0
 51
184.62
  0
ARC
  8
APS_GEOMETRY
 10
3360.12
 20
-630.948
 40
16.803
 50
184.62
 51
192.7
  0
ARC
  8
APS_GEOMETRY
 10
3346.849
 20
-633.861
 40
3.218
 50
194.036
 51
205.821
  0
ARC
  8
APS_GEOMETRY
 10
3345.444
 20
-634.541
 40
1.656
 50
205.821
 51
222.274
  0
ARC
  8
APS_GEOMETRY
 10
3345.875
 20
-634.15
 40
2.238
 50
222.274
 51
234.605
  0
ARC
  8
APS_GEOMETRY
 10
3350.735
 20
-627.309
 40
10.63
 50
234.605
 51
240.255
  0
ARC
  8
APS_GEOMETRY
 10
3343.346
 20
-640.384
 40
4.389
 50
34.592
 51
61.189
  0
ARC
  8
APS_GEOMETRY
 10
3344.796
 20
-639.383
 40
2.627
 50
360.0
 51
34.592
  0
ARC
  8
APS_GEOMETRY
 10
3344.884
 20
-639.383
 40
2.539
 50
318.231
 51
360.0
  0
ARC
  8
APS_GEOMETRY
 10
3343.186
 20
-637.867
 40
4.816
 50
288.227
 51
318.231
  0
ARC
  8
APS_GEOMETRY
 10
3341.425
 20
-632.519
 40
10.446
 50
280.377
 51
288.227
  0
ARC
  8
APS_GEOMETRY
 10
3338.355
 20
-615.755
 40
27.489
 50
275.541
 51
280.377
  0
ARC
  8
APS_GEOMETRY
 10
3337.032
 20
-602.118
 40
41.19
 50
272.304
 51
275.541
  0
ARC
  8
APS_GEOMETRY
 10
3335.421
 20
-562.082
 40
81.259
 50
270.0
 51
272.304
  0
ARC
  8
APS_GEOMETRY
 10
3335.421
 20
-595.541
 40
47.8
 50
262.811
 51
270.0
  0
ARC
  8
APS_GEOMETRY
 10
3331.132
 20
-629.547
 40
13.524
 50
249.274
 51
262.811
  0
ARC
  8
APS_GEOMETRY
 10
3328.434
 20
-636.677
 40
5.901
 50
221.379
 51
249.274
  0
ARC
  8
APS_GEOMETRY
 10
3326.067
 20
-638.762
 40
2.747
 50
180.0
 51
221.379
  0
ARC
  8
APS_GEOMETRY
 10
3326.049
 20
-638.762
 40
2.728
 50
164.055
 51
180.0
  0
ARC
  8
APS_GEOMETRY
 10
3324.912
 20
-638.437
 40
1.546
 50
142.815
 51
164.055
  0
ARC
  8
APS_GEOMETRY
 10
3325.628
 20
-638.98
 40
2.444
 50
129.007
 51
142.815
  0
ARC
  8
APS_GEOMETRY
 10
3334.42
 20
-649.834
 40
16.412
 50
123.69
 51
129.007
  0
ARC
  8
APS_GEOMETRY
 10
3321.943
 20
-631.062
 40
6.128
 50
303.389
 51
319.022
  0
ARC
  8
APS_GEOMETRY
 10
3323.602
 20
-632.502
 40
3.932
 50
319.022
 51
338.575
  0
ARC
  8
APS_GEOMETRY
 10
3321.382
 20
-631.631
 40
6.316
 50
338.575
 51
351.049
  0
ARC
  8
APS_GEOMETRY
 10
3294.576
 20
-627.409
 40
33.452
 50
351.049
 51
356.46
  0
ARC
  8
APS_GEOMETRY
 10
3303.412
 20
-627.745
 40
24.613
 50
355.972
 51
358.68
  0
ARC
  8
APS_GEOMETRY
 10
3013.221
 20
-621.059
 40
314.881
 50
358.68
 51
359.437
  0
LINE
  8
APS_GEOMETRY
 10
3328.087
 11
3328.118
 20
-624.152
 21
-619.24
  0
LINE
  8
APS_GEOMETRY
 10
3328.118
 11
3328.128
 20
-619.24
 21
-612.828
  0
ARC
  8
APS_GEOMETRY
 10
3252.319
 20
-612.828
 40
75.809
 50
0.0
 51
1.717
  0
ARC
  8
APS_GEOMETRY
 10
3292.888
 20
-611.612
 40
35.223
 50
1.717
 51
4.236
  0
ARC
  8
APS_GEOMETRY
 10
3306.117
 20
-610.632
 40
21.957
 50
4.236
 51
8.269
  0
ARC
  8
APS_GEOMETRY
 10
3321.34
 20
-608.42
 40
6.573
 50
8.269
 51
15.642
  0
ARC
  8
APS_GEOMETRY
 10
3323.96
 20
-607.686
 40
3.853
 50
15.642
 51
39.417
  0
ARC
  8
APS_GEOMETRY
 10
3324.019
 20
-607.638
 40
3.776
 50
39.417
 51
63.435
  0
ARC
  8
APS_GEOMETRY
 10
3330.821
 20
-593.548
 40
11.869
 50
236.874
 51
244.486
  0
ARC
  8
APS_GEOMETRY
 10
3325.761
 20
-601.302
 40
2.611
 50
220.601
 51
236.874
  0
ARC
  8
APS_GEOMETRY
 10
3325.181
 20
-601.799
 40
1.847
 50
198.246
 51
220.601
  0
ARC
  8
APS_GEOMETRY
 10
3326.049
 20
-601.513
 40
2.761
 50
180.0
 51
198.246
  0
ARC
  8
APS_GEOMETRY
 10
3326.036
 20
-601.513
 40
2.748
 50
156.161
 51
180.0
  0
ARC
  8
APS_GEOMETRY
 10
3326.419
 20
-601.682
 40
3.167
 50
133.977
 51
156.161
  0
ARC
  8
APS_GEOMETRY
 10
3327.182
 20
-602.473
 40
4.266
 50
116.996
 51
133.977
  0
ARC
  8
APS_GEOMETRY
 10
3328.699
 20
-605.451
 40
7.608
 50
104.3
 51
116.996
  0
ARC
  8
APS_GEOMETRY
 10
3329.091
 20
-606.957
 40
9.164
 50
95.326
 51
104.349
  0
ARC
  8
APS_GEOMETRY
 10
3330.679
 20
-623.991
 40
26.272
 50
90.0
 51
95.326
  0
ARC
  8
APS_GEOMETRY
 10
3330.679
 20
-610.732
 40
13.013
 50
87.553
 51
90.0
  0
ARC
  8
APS_GEOMETRY
 10
3327.91
 20
-675.52
 40
77.86
 50
86.553
 51
87.553
  0
ARC
  8
APS_GEOMETRY
 10
3323.974
 20
-740.866
 40
143.325
 50
86.009
 51
86.553
  0
ARC
  8
APS_GEOMETRY
 10
3308.666
 20
-960.28
 40
363.271
 50
85.668
 51
86.009
  0
ARC
  8
APS_GEOMETRY
 10
3337.314
 20
-582.969
 40
15.125
 50
265.426
 51
268.531
  0
ARC
  8
APS_GEOMETRY
 10
3338.659
 20
-530.526
 40
67.586
 50
268.531
 51
270.0
  0
ARC
  8
APS_GEOMETRY
 10
3338.659
 20
-546.601
 40
51.511
 50
270.0
 51
271.637
  0
ARC
  8
APS_GEOMETRY
 10
3337.508
 20
-506.317
 40
91.812
 50
271.637
 51
272.862
  0
ARC
  8
APS_GEOMETRY
 10
3336.186
 20
-479.887
 40
118.274
 50
272.862
 51
273.814
  0
ARC
  8
APS_GEOMETRY
 10
3331.713
 20
-412.783
 40
185.527
 50
273.814
 51
274.574
  0
ARC
  8
APS_GEOMETRY
 10
3359.775
 20
-777.774
 40
180.543
 50
93.72
 51
94.214
  0
ARC
  8
APS_GEOMETRY
 10
3353.786
 20
-685.656
 40
88.23
 50
93.013
 51
93.72
  0
ARC
  8
APS_GEOMETRY
 10
3352.144
 20
-654.46
 40
56.991
 50
91.918
 51
93.013
  0
ARC
  8
APS_GEOMETRY
 10
3350.857
 20
-616.045
 40
18.554
 50
90.0
 51
91.918
  0
ARC
  8
APS_GEOMETRY
 10
3350.857
 20
-621.599
 40
24.109
 50
73.82
 51
90.0
  0
ARC
  8
APS_GEOMETRY
 10
3353.233
 20
-613.409
 40
15.581
 50
53.658
 51
73.82
  0
ARC
  8
APS_GEOMETRY
 10
3356.613
 20
-608.79
 40
9.857
 50
26.03
 51
53.569
  0
ARC
  8
APS_GEOMETRY
 10
3355.576
 20
-609.296
 40
11.012
 50
360.0
 51
26.03
  0
ARC
  8
APS_GEOMETRY
 10
3355.145
 20
-609.296
 40
11.443
 50
345.282
 51
360.0
  0
ARC
  8
APS_GEOMETRY
 10
3356.245
 20
-609.585
 40
10.305
 50
329.767
 51
345.282
  0
ARC
  8
APS_GEOMETRY
 10
3356.869
 20
-609.949
 40
9.583
 50
313.168
 51
329.767
  0
ARC
  8
APS_GEOMETRY
 10
3357.1
 20
-610.195
 40
9.246
 50
296.267
 51
313.168
  0
ARC
  8
APS_GEOMETRY
 10
3362.363
 20
-620.829
 40
2.62
 50
116.565
 51
139.899
  0
ARC
  8
APS_GEOMETRY
 10
3361.056
 20
-619.729
 40
0.911
 50
139.899
 51
180.0
  0
ARC
  8
APS_GEOMETRY
 10
3361.158
 20
-619.729
 40
1.013
 50
180.0
 51
226.193
  0
ARC
  8
APS_GEOMETRY
 10
3363.029
 20
-617.778
 40
3.715
 50
226.193
 51
249.829
  0
ARC
  8
APS_GEOMETRY
 10
3357.668
 20
-632.539
 40
11.989
 50
53.249
 51
70.105
  0
ARC
  8
APS_GEOMETRY
 10
3360.103
 20
-629.278
 40
7.919
 50
32.471
 51
53.249
  0
ARC
  8
APS_GEOMETRY
 10
3358.968
 20
-630.001
 40
9.264
 50
23.305
 51
32.471
  0
ARC
  8
APS_GEOMETRY
 10
3351.958
 20
-633.02
 40
16.897
 50
16.521
 51
23.305
  0
ARC
  8
APS_GEOMETRY
 10
3346.492
 20
-634.641
 40
22.598
 50
11.429
 51
16.521
  0
ARC
  8
APS_GEOMETRY
 10
3331.002
 20
-637.773
 40
38.401
 50
7.524
 51
11.429
  0
ARC
  8
APS_GEOMETRY
 10
3382.33
 20
-630.937
 40
13.38
 50
187.765
 51
196.914
  0
ARC
  8
APS_GEOMETRY
 10
3371.387
 20
-634.265
 40
1.942
 50
196.914
 51
221.082
  0
ARC
  8
APS_GEOMETRY
 10
3371.429
 20
-634.228
 40
1.997
 50
221.082
 51
244.607
  0
ARC
  8
APS_GEOMETRY
 10
3376.102
 20
-624.383
 40
12.896
 50
244.607
 51
253.811
  0
ARC
  8
APS_GEOMETRY
 10
3371.994
 20
-638.393
 40
1.705
 50
51.45
 51
72.474
  0
ARC
  8
APS_GEOMETRY
 10
3371.572
 20
-638.922
 40
2.382
 50
33.69
 51
51.45
  0
ARC
  8
APS_GEOMETRY
 10
3371.473
 20
-638.988
 40
2.5
 50
16.639
 51
33.69
  0
ARC
  8
APS_GEOMETRY
 10
3371.354
 20
-639.024
 40
2.625
 50
360.0
 51
16.639
  0
ARC
  8
APS_GEOMETRY
 10
3371.317
 20
-639.024
 40
2.662
 50
338.993
 51
360.0
  0
ARC
  8
APS_GEOMETRY
 10
3369.692
 20
-638.4
 40
4.402
 50
322.696
 51
338.993
  0
ARC
  8
APS_GEOMETRY
 10
3369.086
 20
-637.938
 40
5.164
 50
308.603
 51
322.696
  0
ARC
  8
APS_GEOMETRY
 10
3368.67
 20
-637.416
 40
5.831
 50
295.346
 51
308.603
  0
ARC
  8
APS_GEOMETRY
 10
3366.479
 20
-632.59
 40
11.131
 50
279.583
 51
294.905
  0
ARC
  8
APS_GEOMETRY
 10
3363.612
 20
-615.609
 40
28.353
 50
270.0
 51
279.583
  0
ARC
  8
APS_GEOMETRY
 10
3363.612
 20
-623.29
 40
20.672
 50
261.247
 51
270.0
  0
ARC
  8
APS_GEOMETRY
 10
3362.287
 20
-631.891
 40
11.97
 50
249.737
 51
261.247
  0
ARC
  8
APS_GEOMETRY
 10
3361.417
 20
-634.248
 40
9.457
 50
235.345
 51
249.737
  0
ARC
  8
APS_GEOMETRY
 10
3360.318
 20
-635.838
 40
7.524
 50
219.198
 51
235.345
  0
ARC
  8
APS_GEOMETRY
 10
3362.631
 20
-633.866
 40
10.563
 50
209.076
 51
219.56
  0
ARC
  8
APS_GEOMETRY
 10
3367.972
 20
-630.897
 40
16.674
 50
200.735
 51
209.076
  0
ARC
  8
APS_GEOMETRY
 10
3375.341
 20
-628.107
 40
24.554
 50
197.881
 51
200.735
  0
ARC
  8
APS_GEOMETRY
 10
3405.623
 20
-618.337
 40
56.372
 50
195.997
 51
197.881
  0
ARC
  8
APS_GEOMETRY
 10
3428.005
 20
-611.92
 40
79.656
 50
194.664
 51
195.997
  0
ARC
  8
APS_GEOMETRY
 10
3490.0
 20
-595.698
 40
143.738
 50
193.671
 51
194.664
  0
ARC
  8
APS_GEOMETRY
 10
3332.789
 20
-633.918
 40
18.051
 50
13.61
 51
23.585
  0
ARC
  8
APS_GEOMETRY
 10
3344.609
 20
-628.758
 40
5.155
 50
23.585
 51
42.31
  0
ARC
  8
APS_GEOMETRY
 10
3345.681
 20
-627.782
 40
3.705
 50
42.31
 51
67.521
  0
ARC
  8
APS_GEOMETRY
 10
3344.832
 20
-629.833
 40
5.924
 50
67.521
 51
87.397
  0
LINE
  8
APS_GEOMETRY
 10
3343.237
 11
3342.878
 20
-607.236
 21
-614.856
  0
LINE
  8
APS_GEOMETRY
 10
3342.878
 11
3342.878
 20
-614.856
 21
-614.979
  0
LINE
  8
APS_GEOMETRY
 10
3342.878
 11
3342.878
 20
-614.979
 21
-615.15
  0
ARC
  8
APS_GEOMETRY
 10
3348.172
 20
-615.15
 40
5.294
 50
180.0
 51
192.339
  0
ARC
  8
APS_GEOMETRY
 10
3343.963
 20
-616.071
 40
0.986
 50
192.339
 51
221.186
  0
ARC
  8
APS_GEOMETRY
 10
3343.862
 20
-616.159
 40
0.852
 50
221.186
 51
253.872
  0
ARC
  8
APS_GEOMETRY
 10
3344.578
 20
-613.683
 40
3.429
 50
253.872
 51
270.0
  0
ARC
  8
APS_GEOMETRY
 10
3344.578
 20
-609.142
 40
7.971
 50
270.0
 51
289.569
  0
ARC
  8
APS_GEOMETRY
 10
3346.027
 20
-613.218
 40
3.644
 50
289.569
 51
318.681
  0
ARC
  8
APS_GEOMETRY
 10
3345.635
 20
-612.874
 40
4.166
 50
318.681
 51
344.628
  0
ARC
  8
APS_GEOMETRY
 10
3338.333
 20
-610.866
 40
11.74
 50
344.628
 51
0.0
  0
ARC
  8
APS_GEOMETRY
 10
3341.804
 20
-610.866
 40
8.268
 50
0.0
 51
35.369
  0
ARC
  8
APS_GEOMETRY
 10
3345.592
 20
-608.177
 40
3.623
 50
35.369
 51
90.0
  0
ARC
  8
APS_GEOMETRY
 10
3345.592
 20
-608.217
 40
3.663
 50
90.0
 51
108.435
  0
ARC
  8
APS_GEOMETRY
 10
3344.879
 20
-606.079
 40
1.409
 50
108.435
 51
138.366
  0
ARC
  8
APS_GEOMETRY
 10
3345.071
 20
-606.249
 40
1.665
 50
138.366
 51
164.291
  0
ARC
  8
APS_GEOMETRY
 10
3349.556
 20
-607.511
 40
6.324
 50
164.291
 51
177.51
  0
LINE
  8
APS_GEOMETRY
 10
3393.751
 11
3410.986
 20
-598.046
 21
-598.046
  0
ARC
  8
APS_GEOMETRY
 10
3410.114
 20
-573.351
 40
24.711
 50
272.021
 51
278.44
  0
ARC
  8
APS_GEOMETRY
 10
3411.087
 20
-579.906
 40
18.083
 50
278.44
 51
285.945
  0
ARC
  8
APS_GEOMETRY
 10
3418.404
 20
-606.104
 40
9.118
 50
98.584
 51
104.931
  0
ARC
  8
APS_GEOMETRY
 10
3417.788
 20
-602.023
 40
4.991
 50
90.0
 51
98.584
  0
ARC
  8
APS_GEOMETRY
 10
3417.788
 20
-600.784
 40
3.752
 50
52.871
 51
90.0
  0
ARC
  8
APS_GEOMETRY
 10
3412.7
 20
-607.505
 40
12.182
 50
32.518
 51
52.871
  0
ARC
  8
APS_GEOMETRY
 10
3408.668
 20
-610.075
 40
16.963
 50
17.209
 51
32.518
  0
ARC
  8
APS_GEOMETRY
 10
3412.028
 20
-609.035
 40
13.445
 50
360.0
 51
17.209
  0
ARC
  8
APS_GEOMETRY
 10
3418.756
 20
-609.035
 40
6.717
 50
337.348
 51
360.0
  0
ARC
  8
APS_GEOMETRY
 10
3421.456
 20
-610.161
 40
3.792
 50
307.042
 51
337.348
  0
ARC
  8
APS_GEOMETRY
 10
3420.987
 20
-609.517
 40
4.589
 50
287.186
 51
306.87
  0
ARC
  8
APS_GEOMETRY
 10
3420.568
 20
-608.163
 40
6.006
 50
270.0
 51
287.186
  0
ARC
  8
APS_GEOMETRY
 10
3420.568
 20
-608.776
 40
5.393
 50
252.221
 51
270.0
  0
ARC
  8
APS_GEOMETRY
 10
3420.317
 20
-609.559
 40
4.571
 50
232.896
 51
252.221
  0
ARC
  8
APS_GEOMETRY
 10
3421.287
 20
-608.276
 40
6.18
 50
218.3
 51
232.896
  0
ARC
  8
APS_GEOMETRY
 10
3428.868
 20
-602.289
 40
15.839
 50
209.197
 51
218.3
  0
ARC
  8
APS_GEOMETRY
 10
3390.314
 20
-623.177
 40
28.012
 50
28.025
 51
32.699
  0
ARC
  8
APS_GEOMETRY
 10
3410.47
 20
-610.237
 40
4.06
 50
32.699
 51
45.0
  0
ARC
  8
APS_GEOMETRY
 10
3411.844
 20
-608.863
 40
2.116
 50
45.0
 51
67.557
  0
ARC
  8
APS_GEOMETRY
 10
3411.836
 20
-608.883
 40
2.137
 50
67.557
 51
90.0
  0
ARC
  8
APS_GEOMETRY
 10
3411.836
 20
-608.714
 40
1.969
 50
90.0
 51
120.801
  0
ARC
  8
APS_GEOMETRY
 10
3411.77
 20
-608.603
 40
1.839
 50
120.801
 51
152.7
  0
ARC
  8
APS_GEOMETRY
 10
3413.228
 20
-609.356
 40
3.481
 50
152.7
 51
171.085
  0
ARC
  8
APS_GEOMETRY
 10
3424.317
 20
-611.095
 40
14.705
 50
171.085
 51
180.0
  0
LINE
  8
APS_GEOMETRY
 10
3409.612
 11
3409.612
 20
-611.095
 21
-629.409
  0
ARC
  8
APS_GEOMETRY
 10
3429.039
 20
-629.409
 40
19.427
 50
180.0
 51
188.194
  0
ARC
  8
APS_GEOMETRY
 10
3414.532
 20
-631.498
 40
4.77
 50
188.194
 51
204.775
  0
ARC
  8
APS_GEOMETRY
 10
3413.122
 20
-632.149
 40
3.218
 50
204.775
 51
228.576
  0
ARC
  8
APS_GEOMETRY
 10
3414.445
 20
-630.65
 40
5.216
 50
228.576
 51
247.218
  0
ARC
  8
APS_GEOMETRY
 10
3406.776
 20
-648.722
 40
14.416
 50
59.381
 51
66.93
  0
ARC
  8
APS_GEOMETRY
 10
3412.437
 20
-639.157
 40
3.301
 50
43.568
 51
59.381
  0
ARC
  8
APS_GEOMETRY
 10
3413.343
 20
-638.295
 40
2.051
 50
19.041
 51
43.568
  0
ARC
  8
APS_GEOMETRY
 10
3412.084
 20
-638.729
 40
3.382
 50
360.0
 51
19.041
  0
ARC
  8
APS_GEOMETRY
 10
3412.719
 20
-638.729
 40
2.747
 50
317.66
 51
360.0
  0
ARC
  8
APS_GEOMETRY
 10
3410.196
 20
-636.431
 40
6.16
 50
289.747
 51
317.66
  0
ARC
  8
APS_GEOMETRY
 10
3408.084
 20
-630.546
 40
12.412
 50
281.964
 51
289.747
  0
ARC
  8
APS_GEOMETRY
 10
3405.157
 20
-616.734
 40
26.531
 50
276.643
 51
281.964
  0
ARC
  8
APS_GEOMETRY
 10
3403.925
 20
-606.159
 40
37.178
 50
272.836
 51
276.643
  0
ARC
  8
APS_GEOMETRY
 10
3402.45
 20
-576.383
 40
66.99
 50
270.0
 51
272.836
  0
ARC
  8
APS_GEOMETRY
 10
3402.45
 20
-557.933
 40
85.44
 50
267.283
 51
270.0
  0
ARC
  8
APS_GEOMETRY
 10
3400.656
 20
-595.736
 40
47.595
 50
263.643
 51
267.283
  0
ARC
  8
APS_GEOMETRY
 10
3399.154
 20
-609.22
 40
34.027
 50
258.563
 51
263.643
  0
ARC
  8
APS_GEOMETRY
 10
3395.565
 20
-626.959
 40
15.929
 50
251.136
 51
258.563
  0
ARC
  8
APS_GEOMETRY
 10
3392.361
 20
-636.252
 40
6.099
 50
222.558
 51
251.395
  0
ARC
  8
APS_GEOMETRY
 10
3389.984
 20
-638.435
 40
2.871
 50
180.0
 51
222.558
  0
ARC
  8
APS_GEOMETRY
 10
3389.504
 20
-638.435
 40
2.392
 50
150.642
 51
180.0
  0
ARC
  8
APS_GEOMETRY
 10
3389.696
 20
-638.543
 40
2.612
 50
122.574
 51
150.642
  0
ARC
  8
APS_GEOMETRY
 10
3389.189
 20
-637.961
 40
1.851
 50
108.677
 51
119.055
  0
ARC
  8
APS_GEOMETRY
 10
3412.304
 20
-706.344
 40
74.036
 50
107.038
 51
108.677
  0
ARC
  8
APS_GEOMETRY
 10
3389.75
 20
-632.581
 40
3.099
 50
286.144
 51
308.66
  0
ARC
  8
APS_GEOMETRY
 10
3390.257
 20
-633.215
 40
2.287
 50
308.66
 51
334.933
  0
ARC
  8
APS_GEOMETRY
 10
3388.193
 20
-632.249
 40
4.566
 50
334.933
 51
348.829
  0
ARC
  8
APS_GEOMETRY
 10
3362.367
 20
-627.149
 40
30.891
 50
348.829
 51
354.161
  0
ARC
  8
APS_GEOMETRY
 10
3344.911
 20
-625.35
 40
48.439
 50
354.144
 51
355.66
  0
ARC
  8
APS_GEOMETRY
 10
3267.535
 20
-619.478
 40
126.038
 50
355.66
 51
356.6
  0
ARC
  8
APS_GEOMETRY
 10
3208.386
 20
-615.964
 40
185.291
 50
356.6
 51
357.24
  0
ARC
  8
APS_GEOMETRY
 10
3040.56
 20
-607.873
 40
353.311
 50
357.24
 51
357.703
  0
ARC
  8
APS_GEOMETRY
 10
3057.081
 20
-608.535
 40
336.777
 50
357.703
 51
358.674
  0
ARC
  8
APS_GEOMETRY
 10
3212.913
 20
-612.141
 40
180.903
 50
358.674
 51
0.0
  0
ARC
  8
APS_GEOMETRY
 10
3367.006
 20
-612.141
 40
26.81
 50
0.0
 51
6.242
  0
ARC
  8
APS_GEOMETRY
 10
3388.326
 20
-609.81
 40
5.364
 50
6.242
 51
20.225
  0
ARC
  8
APS_GEOMETRY
 10
3391.281
 20
-608.721
 40
2.215
 50
20.225
 51
50.44
  0
ARC
  8
APS_GEOMETRY
 10
3391.854
 20
-608.026
 40
1.314
 50
50.44
 51
90.0
  0
ARC
  8
APS_GEOMETRY
 10
3391.854
 20
-608.475
 40
1.762
 50
90.0
 51
126.747
  0
ARC
  8
APS_GEOMETRY
 10
3394.344
 20
-611.81
 40
5.924
 50
126.747
 51
146.547
  0
ARC
  8
APS_GEOMETRY
 10
3350.357
 20
-582.897
 40
46.715
 50
324.255
 51
326.701
  0
ARC
  8
APS_GEOMETRY
 10
3368.98
 20
-596.301
 40
23.77
 50
320.826
 51
324.255
  0
ARC
  8
APS_GEOMETRY
 10
3375.066
 20
-601.26
 40
15.918
 50
315.722
 51
320.826
  0
ARC
  8
APS_GEOMETRY
 10
3382.06
 20
-608.081
 40
6.149
 50
307.504
 51
315.722
  0
ARC
  8
APS_GEOMETRY
 10
3381.415
 20
-607.219
 40
7.226
 50
291.306
 51
307.405
  0
ARC
  8
APS_GEOMETRY
 10
3382.534
 20
-610.088
 40
4.146
 50
270.0
 51
291.306
  0
ARC
  8
APS_GEOMETRY
 10
3382.534
 20
-610.356
 40
3.879
 50
245.532
 51
270.0
  0
ARC
  8
APS_GEOMETRY
 10
3382.504
 20
-610.42
 40
3.808
 50
220.833
 51
245.532
  0
ARC
  8
APS_GEOMETRY
 10
3382.898
 20
-610.08
 40
4.328
 50
198.684
 51
220.833
  0
ARC
  8
APS_GEOMETRY
 10
3384.539
 20
-609.525
 40
6.06
 50
180.0
 51
198.684
  0
ARC
  8
APS_GEOMETRY
 10
3388.386
 20
-609.525
 40
9.908
 50
168.408
 51
180.0
  0
ARC
  8
APS_GEOMETRY
 10
3394.739
 20
-610.828
 40
16.393
 50
159.402
 51
168.408
  0
ARC
  8
APS_GEOMETRY
 10
3396.702
 20
-611.566
 40
18.49
 50
151.39
 51
159.402
  0
ARC
  8
APS_GEOMETRY
 10
3396.3
 20
-611.347
 40
18.032
 50
143.276
 51
151.39
  0
ARC
  8
APS_GEOMETRY
 10
3391.25
 20
-607.571
 40
11.726
 50
124.216
 51
143.31
  0
ARC
  8
APS_GEOMETRY
 10
3386.753
 20
-600.957
 40
3.728
 50
90.0
 51
124.216
  0
ARC
  8
APS_GEOMETRY
 10
3386.753
 20
-602.613
 40
5.384
 50
82.725
 51
90.0
  0
ARC
  8
APS_GEOMETRY
 10
3386.332
 20
-605.909
 40
8.707
 50
77.005
 51
82.725
  0
ARC
  8
APS_GEOMETRY
 10
3399.18
 20
-543.962
 40
54.561
 50
258.486
 51
260.378
  0
ARC
  8
APS_GEOMETRY
 10
3393.676
 20
-576.427
 40
21.633
 50
260.378
 51
263.382
  0
ARC
  8
APS_GEOMETRY
 10
3393.206
 20
-580.484
 40
17.548
 50
263.382
 51
267.084
  0
ARC
  8
APS_GEOMETRY
 10
3393.751
 20
-569.773
 40
28.273
 50
267.084
 51
270.0
  0
LINE
  8
APS_GEOMETRY
 10
3437.168
 11
3453.978
 20
-598.046
 21
-598.046
  0
ARC
  8
APS_GEOMETRY
 10
3453.978
 20
-386.327
 40
211.72
 50
270.0
 51
270.69
  0
ARC
  8
APS_GEOMETRY
 10
3455.171
 20
-485.383
 40
112.656
 50
270.69
 51
271.637
  0
ARC
  8
APS_GEOMETRY
 10
3456.177
 20
-520.577
 40
77.448
 50
271.637
 51
273.013
  0
ARC
  8
APS_GEOMETRY
 10
3458.628
 20
-567.139
 40
30.821
 50
273.013
 51
275.194
  0
ARC
  8
APS_GEOMETRY
 10
3459.235
 20
-573.821
 40
24.112
 50
275.194
 51
280.756
  0
ARC
  8
APS_GEOMETRY
 10
3459.349
 20
-574.422
 40
23.5
 50
280.756
 51
286.39
  0
ARC
  8
APS_GEOMETRY
 10
3467.963
 20
-603.907
 40
7.217
 50
100.305
 51
105.945
  0
ARC
  8
APS_GEOMETRY
 10
3467.059
 20
-598.937
 40
2.166
 50
90.0
 51
100.305
  0
ARC
  8
APS_GEOMETRY
 10
3467.059
 20
-599.711
 40
2.94
 50
58.946
 51
90.0
  0
ARC
  8
APS_GEOMETRY
 10
3465.935
 20
-601.578
 40
5.119
 50
35.538
 51
58.946
  0
ARC
  8
APS_GEOMETRY
 10
3461.546
 20
-604.807
 40
10.568
 50
16.699
 51
35.952
  0
ARC
  8
APS_GEOMETRY
 10
3458.245
 20
-605.797
 40
14.014
 50
360.0
 51
16.699
  0
ARC
  8
APS_GEOMETRY
 10
3464.395
 20
-605.797
 40
7.864
 50
344.982
 51
360.0
  0
ARC
  8
APS_GEOMETRY
 10
3468.17
 20
-606.81
 40
3.956
 50
323.746
 51
344.982
  0
ARC
  8
APS_GEOMETRY
 10
3469.009
 20
-607.425
 40
2.916
 50
296.114
 51
323.746
  0
ARC
  8
APS_GEOMETRY
 10
3468.858
 20
-607.118
 40
3.258
 50
270.0
 51
296.114
  0
ARC
  8
APS_GEOMETRY
 10
3468.858
 20
-606.291
 40
4.084
 50
255.311
 51
270.0
  0
ARC
  8
APS_GEOMETRY
 10
3468.312
 20
-608.374
 40
1.931
 50
233.881
 51
255.311
  0
ARC
  8
APS_GEOMETRY
 10
3468.887
 20
-607.587
 40
2.906
 50
219.289
 51
233.881
  0
ARC
  8
APS_GEOMETRY
 10
3480.417
 20
-598.153
 40
17.803
 50
213.408
 51
219.289
  0
ARC
  8
APS_GEOMETRY
 10
3458.816
 20
-612.381
 40
8.063
 50
33.294
 51
51.246
  0
ARC
  8
APS_GEOMETRY
 10
3459.913
 20
-611.014
 40
6.309
 50
51.246
 51
71.565
  0
ARC
  8
APS_GEOMETRY
 10
3459.188
 20
-613.191
 40
8.604
 50
71.565
 51
79.278
  0
ARC
  8
APS_GEOMETRY
 10
3456.86
 20
-625.487
 40
21.118
 50
79.278
 51
84.2
  0
ARC
  8
APS_GEOMETRY
 10
3455.866
 20
-635.265
 40
30.947
 50
84.2
 51
87.567
  0
ARC
  8
APS_GEOMETRY
 10
3454.665
 20
-663.543
 40
59.251
 50
87.567
 51
90.0
  0
ARC
  8
APS_GEOMETRY
 10
3454.665
 20
-620.948
 40
16.656
 50
90.0
 51
96.374
  0
ARC
  8
APS_GEOMETRY
 10
3453.559
 20
-611.052
 40
6.698
 50
96.374
 51
106.434
  0
ARC
  8
APS_GEOMETRY
 10
3452.773
 20
-608.389
 40
3.921
 50
106.434
 51
123.056
  0
ARC
  8
APS_GEOMETRY
 10
3451.547
 20
-606.504
 40
1.673
 50
123.056
 51
148.627
  0
ARC
  8
APS_GEOMETRY
 10
3452.667
 20
-607.139
 40
2.96
 50
149.421
 51
165.28
  0
ARC
  8
APS_GEOMETRY
 10
3455.896
 20
-607.988
 40
6.298
 50
165.28
 51
176.135
  0
ARC
  8
APS_GEOMETRY
 10
3465.139
 20
-608.612
 40
15.562
 50
176.135
 51
178.367
  0
ARC
  8
APS_GEOMETRY
 10
3550.644
 20
-611.05
 40
101.103
 50
178.367
 51
179.242
  0
ARC
  8
APS_GEOMETRY
 10
3639.013
 20
-612.219
 40
189.479
 50
179.242
 51
179.709
  0
ARC
  8
APS_GEOMETRY
 10
3939.662
 20
-613.744
 40
490.132
 50
179.709
 51
180.0
  0
ARC
  8
APS_GEOMETRY
 10
3456.621
 20
-613.744
 40
7.091
 50
180.0
 51
195.027
  0
ARC
  8
APS_GEOMETRY
 10
3450.822
 20
-615.301
 40
1.086
 50
195.027
 51
234.058
  0
ARC
  8
APS_GEOMETRY
 10
3450.878
 20
-615.223
 40
1.183
 50
234.058
 51
253.191
  0
ARC
  8
APS_GEOMETRY
 10
3452.116
 20
-611.127
 40
5.461
 50
253.191
 51
262.063
  0
ARC
  8
APS_GEOMETRY
 10
3452.749
 20
-606.582
 40
10.05
 50
262.063
 51
266.949
  0
ARC
  8
APS_GEOMETRY
 10
3453.585
 20
-590.9
 40
25.755
 50
266.949
 51
270.0
  0
ARC
  8
APS_GEOMETRY
 10
3453.585
 20
-611.933
 40
4.722
 50
270.0
 51
286.007
  0
ARC
  8
APS_GEOMETRY
 10
3454.412
 20
-614.814
 40
1.725
 50
286.007
 51
312.647
  0
ARC
  8
APS_GEOMETRY
 10
3454.395
 20
-614.795
 40
1.75
 50
312.647
 51
338.993
  0
ARC
  8
APS_GEOMETRY
 10
3450.82
 20
-613.422
 40
5.58
 50
338.993
 51
353.66
  0
ARC
  8
APS_GEOMETRY
 10
3487.739
 20
-617.825
 40
31.601
 50
169.663
 51
173.118
  0
ARC
  8
APS_GEOMETRY
 10
3461.349
 20
-613.012
 40
4.776
 50
160.769
 51
169.663
  0
ARC
  8
APS_GEOMETRY
 10
3459.142
 20
-612.242
 40
2.439
 50
143.746
 51
160.769
  0
ARC
  8
APS_GEOMETRY
 10
3459.675
 20
-612.633
 40
3.1
 50
128.66
 51
143.746
  0
ARC
  8
APS_GEOMETRY
 10
3459.32
 20
-612.056
 40
2.429
 50
110.171
 51
130.601
  0
ARC
  8
APS_GEOMETRY
 10
3459.341
 20
-612.115
 40
2.492
 50
90.0
 51
110.171
  0
ARC
  8
APS_GEOMETRY
 10
3459.341
 20
-612.15
 40
2.527
 50
61.22
 51
90.0
  0
ARC
  8
APS_GEOMETRY
 10
3458.9
 20
-612.953
 40
3.443
 50
36.634
 51
61.22
  0
ARC
  8
APS_GEOMETRY
 10
3458.486
 20
-613.199
 40
3.923
 50
19.103
 51
35.91
  0
ARC
  8
APS_GEOMETRY
 10
3445.691
 20
-617.631
 40
17.463
 50
11.16
 51
19.103
  0
ARC
  8
APS_GEOMETRY
 10
3439.006
 20
-618.95
 40
24.277
 50
5.396
 51
11.16
  0
ARC
  8
APS_GEOMETRY
 10
3435.606
 20
-619.271
 40
27.692
 50
0.0
 51
5.396
  0
ARC
  8
APS_GEOMETRY
 10
3436.088
 20
-619.271
 40
27.21
 50
349.287
 51
0.0
  0
ARC
  8
APS_GEOMETRY
 10
3449.446
 20
-621.798
 40
13.615
 50
334.12
 51
349.287
  0
ARC
  8
APS_GEOMETRY
 10
3458.648
 20
-626.245
 40
3.396
 50
303.53
 51
333.853
  0
ARC
  8
APS_GEOMETRY
 10
3458.982
 20
-626.748
 40
2.791
 50
270.0
 51
303.53
  0
ARC
  8
APS_GEOMETRY
 10
3458.982
 20
-626.618
 40
2.922
 50
249.578
 51
270.0
  0
ARC
  8
APS_GEOMETRY
 10
3458.36
 20
-628.287
 40
1.14
 50
216.607
 51
249.578
  0
ARC
  8
APS_GEOMETRY
 10
3458.954
 20
-627.846
 40
1.881
 50
195.422
 51
216.607
  0
ARC
  8
APS_GEOMETRY
 10
3469.217
 20
-625.015
 40
12.526
 50
187.253
 51
195.422
  0
ARC
  8
APS_GEOMETRY
 10
3452.644
 20
-627.147
 40
4.183
 50
7.561
 51
49.434
  0
ARC
  8
APS_GEOMETRY
 10
3452.474
 20
-627.346
 40
4.445
 50
49.434
 51
90.0
  0
ARC
  8
APS_GEOMETRY
 10
3452.474
 20
-625.892
 40
2.991
 50
90.0
 51
115.224
  0
ARC
  8
APS_GEOMETRY
 10
3451.882
 20
-624.636
 40
1.603
 50
115.224
 51
149.931
  0
ARC
  8
APS_GEOMETRY
 10
3452.951
 20
-625.255
 40
2.838
 50
149.931
 51
171.111
  0
ARC
  8
APS_GEOMETRY
 10
3465.919
 20
-627.283
 40
15.963
 50
171.111
 51
180.0
  0
ARC
  8
APS_GEOMETRY
 10
3478.694
 20
-627.283
 40
28.739
 50
180.0
 51
183.062
  0
ARC
  8
APS_GEOMETRY
 10
3522.682
 20
-624.93
 40
72.789
 50
183.062
 51
184.986
  0
ARC
  8
APS_GEOMETRY
 10
3499.609
 20
-626.943
 40
49.629
 50
184.986
 51
187.804
  0
ARC
  8
APS_GEOMETRY
 10
3455.908
 20
-632.932
 40
5.52
 50
187.804
 51
196.26
  0
ARC
  8
APS_GEOMETRY
 10
3452.054
 20
-634.093
 40
1.496
 50
194.931
 51
230.024
  0
ARC
  8
APS_GEOMETRY
 10
3453.035
 20
-632.923
 40
3.022
 50
230.024
 51
254.511
  0
ARC
  8
APS_GEOMETRY
 10
3454.227
 20
-628.622
 40
7.485
 50
254.511
 51
265.219
  0
ARC
  8
APS_GEOMETRY
 10
3456.725
 20
-598.755
 40
37.456
 50
265.219
 51
270.0
  0
ARC
  8
APS_GEOMETRY
 10
3456.725
 20
-602.715
 40
33.497
 50
270.0
 51
274.186
  0
ARC
  8
APS_GEOMETRY
 10
3457.744
 20
-616.631
 40
19.543
 50
274.186
 51
279.668
  0
ARC
  8
APS_GEOMETRY
 10
3458.58
 20
-621.539
 40
14.564
 50
279.668
 51
286.991
  0
ARC
  8
APS_GEOMETRY
 10
3460.492
 20
-627.799
 40
8.018
 50
286.991
 51
296.866
  0
ARC
  8
APS_GEOMETRY
 10
3460.89
 20
-628.584
 40
7.139
 50
296.866
 51
318.366
  0
ARC
  8
APS_GEOMETRY
 10
3456.891
 20
-625.029
 40
12.489
 50
318.366
 51
334.581
  0
ARC
  8
APS_GEOMETRY
 10
3483.22
 20
-637.655
 40
16.711
 50
147.08
 51
154.231
  0
ARC
  8
APS_GEOMETRY
 10
3472.214
 20
-630.529
 40
3.599
 50
131.634
 51
147.08
  0
ARC
  8
APS_GEOMETRY
 10
3471.393
 20
-629.606
 40
2.364
 50
108.875
 51
131.634
  0
ARC
  8
APS_GEOMETRY
 10
3471.736
 20
-630.608
 40
3.423
 50
90.0
 51
108.875
  0
ARC
  8
APS_GEOMETRY
 10
3471.736
 20
-629.913
 40
2.727
 50
62.628
 51
90.0
  0
ARC
  8
APS_GEOMETRY
 10
3471.563
 20
-630.246
 40
3.103
 50
36.995
 51
62.628
  0
ARC
  8
APS_GEOMETRY
 10
3470.79
 20
-630.829
 40
4.071
 50
16.728
 51
36.995
  0
ARC
  8
APS_GEOMETRY
 10
3468.985
 20
-631.371
 40
5.956
 50
360.0
 51
16.728
  0
ARC
  8
APS_GEOMETRY
 10
3465.409
 20
-631.371
 40
9.532
 50
348.323
 51
360.0
  0
ARC
  8
APS_GEOMETRY
 10
3451.1
 20
-628.414
 40
24.143
 50
340.994
 51
348.323
  0
ARC
  8
APS_GEOMETRY
 10
3447.706
 20
-627.245
 40
27.733
 50
334.592
 51
340.994
  0
ARC
  8
APS_GEOMETRY
 10
3453.63
 20
-630.059
 40
21.175
 50
327.265
 51
334.592
  0
ARC
  8
APS_GEOMETRY
 10
3460.51
 20
-634.114
 40
13.198
 50
320.133
 51
325.923
  0
ARC
  8
APS_GEOMETRY
 10
3468.513
 20
-640.798
 40
2.771
 50
307.476
 51
320.133
  0
ARC
  8
APS_GEOMETRY
 10
3469.214
 20
-641.712
 40
1.619
 50
286.429
 51
307.476
  0
ARC
  8
APS_GEOMETRY
 10
3468.923
 20
-640.728
 40
2.646
 50
270.0
 51
286.429
  0
ARC
  8
APS_GEOMETRY
 10
3468.923
 20
-637.669
 40
5.704
 50
263.774
 51
270.0
  0
ARC
  8
APS_GEOMETRY
 10
3470.592
 20
-622.372
 40
21.092
 50
260.538
 51
263.774
  0
ARC
  8
APS_GEOMETRY
 10
3463.123
 20
-664.518
 40
21.713
 50
79.38
 51
84.987
  0
ARC
  8
APS_GEOMETRY
 10
3459.885
 20
-701.429
 40
58.766
 50
84.987
 51
88.394
  0
LINE
  8
APS_GEOMETRY
 10
3461.532
 11
3433.8
 20
-642.687
 21
-642.687
  0
ARC
  8
APS_GEOMETRY
 10
3433.8
 20
-636.883
 40
5.804
 50
254.103
 51
270.0
  0
ARC
  8
APS_GEOMETRY
 10
3432.982
 20
-639.753
 40
2.82
 50
231.216
 51
254.103
  0
ARC
  8
APS_GEOMETRY
 10
3432.647
 20
-640.17
 40
2.284
 50
203.795
 51
231.216
  0
ARC
  8
APS_GEOMETRY
 10
3433.319
 20
-639.874
 40
3.019
 50
180.0
 51
203.795
  0
ARC
  8
APS_GEOMETRY
 10
3433.574
 20
-639.874
 40
3.273
 50
164.055
 51
180.0
  0
ARC
  8
APS_GEOMETRY
 10
3431.557
 20
-639.298
 40
1.175
 50
137.291
 51
164.055
  0
ARC
  8
APS_GEOMETRY
 10
3432.164
 20
-639.858
 40
2.001
 50
120.964
 51
137.291
  0
ARC
  8
APS_GEOMETRY
 10
3438.664
 20
-650.693
 40
14.637
 50
114.944
 51
120.964
  0
ARC
  8
APS_GEOMETRY
 10
3430.549
 20
-632.938
 40
4.886
 50
293.429
 51
305.72
  0
ARC
  8
APS_GEOMETRY
 10
3431.893
 20
-634.807
 40
2.584
 50
305.72
 51
322.651
  0
ARC
  8
APS_GEOMETRY
 10
3431.684
 20
-634.648
 40
2.846
 50
322.651
 51
338.11
  0
ARC
  8
APS_GEOMETRY
 10
3427.627
 20
-633.018
 40
7.219
 50
338.11
 51
347.8
  0
ARC
  8
APS_GEOMETRY
 10
3402.426
 20
-627.494
 40
33.018
 50
347.672
 51
352.051
  0
ARC
  8
APS_GEOMETRY
 10
3378.033
 20
-624.088
 40
57.647
 50
352.051
 51
355.365
  0
ARC
  8
APS_GEOMETRY
 10
3361.606
 20
-622.756
 40
74.128
 50
355.365
 51
357.943
  0
ARC
  8
APS_GEOMETRY
 10
3319.197
 20
-621.233
 40
116.566
 50
357.943
 51
0.0
  0
ARC
  8
APS_GEOMETRY
 10
3270.244
 20
-621.233
 40
165.518
 50
0.0
 51
2.183
  0
ARC
  8
APS_GEOMETRY
 10
3369.219
 20
-617.46
 40
66.471
 50
2.183
 51
5.629
  0
ARC
  8
APS_GEOMETRY
 10
3398.703
 20
-614.554
 40
36.844
 50
5.629
 51
11.805
  0
ARC
  8
APS_GEOMETRY
 10
3427.319
 20
-608.573
 40
7.61
 50
11.805
 51
25.419
  0
ARC
  8
APS_GEOMETRY
 10
3431.023
 20
-606.891
 40
3.544
 50
26.565
 51
38.157
  0
ARC
  8
APS_GEOMETRY
 10
3432.667
 20
-605.599
 40
1.452
 50
38.157
 51
56.31
  0
ARC
  8
APS_GEOMETRY
 10
3432.319
 20
-606.121
 40
2.079
 50
56.31
 51
69.193
  0
ARC
  8
APS_GEOMETRY
 10
3427.44
 20
-618.962
 40
15.817
 50
69.193
 51
73.856
  0
ARC
  8
APS_GEOMETRY
 10
3432.587
 20
-601.255
 40
2.623
 50
216.87
 51
253.393
  0
ARC
  8
APS_GEOMETRY
 10
3432.549
 20
-601.284
 40
2.576
 50
180.0
 51
216.87
  0
ARC
  8
APS_GEOMETRY
 10
3433.111
 20
-601.284
 40
3.138
 50
161.565
 51
180.0
  0
ARC
  8
APS_GEOMETRY
 10
3432.998
 20
-601.246
 40
3.018
 50
142.765
 51
161.565
  0
ARC
  8
APS_GEOMETRY
 10
3432.926
 20
-601.191
 40
2.928
 50
123.425
 51
142.765
  0
ARC
  8
APS_GEOMETRY
 10
3432.991
 20
-601.291
 40
3.047
 50
104.47
 51
123.425
  0
ARC
  8
APS_GEOMETRY
 10
3433.571
 20
-604.153
 40
5.965
 50
96.724
 51
102.995
  0
ARC
  8
APS_GEOMETRY
 10
3435.372
 20
-619.428
 40
21.346
 50
93.411
 51
96.724
  0
ARC
  8
APS_GEOMETRY
 10
3436.172
 20
-632.849
 40
34.791
 50
91.375
 51
93.411
  0
ARC
  8
APS_GEOMETRY
 10
3437.168
 20
-674.349
 40
76.303
 50
90.0
 51
91.375
  0
LINE
  8
QUOTATURA
 10
2638.612
 11
2638.612
 20
642.558
 21
757.524
  0
LINE
  8
QUOTATURA
 10
2588.612
 11
2588.612
 20
642.558
 21
757.524
  0
LINE
  8
QUOTATURA
 10
2588.612
 11
2492.955
 20
747.524
 21
747.524
  0
LINE
  8
QUOTATURA
 10
2568.612
 11
2588.612
 20
750.858
 21
747.524
  0
LINE
  8
QUOTATURA
 10
2588.612
 11
2568.612
 20
747.524
 21
744.19
  0
LINE
  8
QUOTATURA
 10
2568.612
 11
2568.612
 20
744.19
 21
750.858
  0
LINE
  8
QUOTATURA
 10
2638.612
 11
2678.612
 20
747.524
 21
747.524
  0
LINE
  8
QUOTATURA
 10
2658.612
 11
2638.612
 20
744.19
 21
747.524
  0
LINE
  8
QUOTATURA
 10
2638.612
 11
2658.612
 20
747.524
 21
750.858
  0
LINE
  8
QUOTATURA
 10
2658.612
 11
2658.612
 20
750.858
 21
744.19
  0
LINE
  8
QUOTATURA
 10
2524.112
 11
2524.112
 20
642.558
 21
706.033
  0
LINE
  8
QUOTATURA
 10
2588.612
 11
2492.925
 20
696.033
 21
696.033
  0
LINE
  8
QUOTATURA
 10
2568.612
 11
2588.612
 20
699.367
 21
696.033
  0
LINE
  8
QUOTATURA
 10
2588.612
 11
2568.612
 20
696.033
 21
692.699
  0
LINE
  8
QUOTATURA
 10
2568.612
 11
2568.612
 20
692.699
 21
699.367
  0
LINE
  8
QUOTATURA
 10
2544.112
 11
2524.112
 20
692.699
 21
696.033
  0
LINE
  8
QUOTATURA
 10
2524.112
 11
2544.112
 20
696.033
 21
699.367
  0
LINE
  8
QUOTATURA
 10
2544.112
 11
2544.112
 20
699.367
 21
692.699
  0
LINE
  8
QUOTATURA
 10
3210.112
 11
3066.098
 20
4.5
 21
4.5
  0
LINE
  8
QUOTATURA
 10
3210.112
 11
3066.098
 20
84.5
 21
84.5
  0
LINE
  8
QUOTATURA
 10
3076.098
 11
3076.098
 20
84.5
 21
-48.129
  0
LINE
  8
QUOTATURA
 10
3076.098
 11
3014.787
 20
-48.129
 21
-48.129
  0
LINE
  8
QUOTATURA
 10
3079.432
 11
3076.098
 20
24.5
 21
4.5
  0
LINE
  8
QUOTATURA
 10
3076.098
 11
3072.764
 20
4.5
 21
24.5
  0
LINE
  8
QUOTATURA
 10
3072.764
 11
3079.432
 20
24.5
 21
24.5
  0
LINE
  8
QUOTATURA
 10
3072.764
 11
3076.098
 20
64.5
 21
84.5
  0
LINE
  8
QUOTATURA
 10
3076.098
 11
3079.432
 20
84.5
 21
64.5
  0
LINE
  8
QUOTATURA
 10
3079.432
 11
3072.764
 20
64.5
 21
64.5
  0
LINE
  8
QUOTATURA
 10
3210.112
 11
3075.55
 20
2034.5
 21
2034.5
  0
LINE
  8
QUOTATURA
 10
3210.112
 11
3075.55
 20
2114.5
 21
2114.5
  0
LINE
  8
QUOTATURA
 10
3085.55
 11
3085.55
 20
2034.5
 21
2246.159
  0
LINE
  8
QUOTATURA
 10
3085.55
 11
3015.865
 20
2246.159
 21
2246.159
  0
LINE
  8
QUOTATURA
 10
3088.884
 11
3085.55
 20
2054.5
 21
2034.5
  0
LINE
  8
QUOTATURA
 10
3085.55
 11
3082.216
 20
2034.5
 21
2054.5
  0
LINE
  8
QUOTATURA
 10
3082.216
 11
3088.884
 20
2054.5
 21
2054.5
  0
LINE
  8
QUOTATURA
 10
3082.216
 11
3085.55
 20
2094.5
 21
2114.5
  0
LINE
  8
QUOTATURA
 10
3085.55
 11
3088.884
 20
2114.5
 21
2094.5
  0
LINE
  8
QUOTATURA
 10
3088.884
 11
3082.216
 20
2094.5
 21
2094.5
  0
LINE
  8
COSTRUZIONI
 10
2603.498
 11
2603.498
 20
2456.551
 21
2656.551
  0
LINE
  8
COSTRUZIONI
 10
2603.498
 11
4603.498
 20
2656.551
 21
2656.551
  0
LINE
  8
COSTRUZIONI
 10
4603.498
 11
4603.498
 20
2656.551
 21
2456.551
  0
LINE
  8
COSTRUZIONI
 10
4603.498
 11
2603.498
 20
2456.551
 21
2456.551
  0
LINE
  8
COSTRUZIONI
 10
2903.498
 11
2903.498
 20
2456.551
 21
2656.551
  0
LINE
  8
COSTRUZIONI
 10
3203.498
 11
3203.498
 20
2456.551
 21
2656.551
  0
LINE
  8
COSTRUZIONI
 10
3653.498
 11
3653.498
 20
2456.551
 21
2656.551
  0
LINE
  8
COSTRUZIONI
 10
4103.498
 11
4103.498
 20
2456.551
 21
2656.551
  0
LINE
  8
COSTRUZIONI
 10
2603.498
 11
2603.498
 20
2456.551
 21
2306.551
  0
LINE
  8
COSTRUZIONI
 10
2603.498
 11
4603.498
 20
2306.551
 21
2306.551
  0
LINE
  8
COSTRUZIONI
 10
4603.498
 11
4603.498
 20
2456.551
 21
2306.551
  0
LINE
  8
COSTRUZIONI
 10
2998.476
 11
2998.476
 20
2456.551
 21
2306.551
  0
LINE
  8
APS_GEOMETRY
 10
2707.467
 11
2757.467
 20
2317.28
 21
2317.28
  0
LINE
  8
APS_GEOMETRY
 10
2757.467
 11
2757.467
 20
2317.28
 21
2367.28
  0
LINE
  8
APS_GEOMETRY
 10
2757.467
 11
2707.467
 20
2367.28
 21
2367.28
  0
LINE
  8
APS_GEOMETRY
 10
2707.467
 11
2707.467
 20
2367.28
 21
2317.28
  0
LINE
  8
APS_GEOMETRY
 10
2935.67
 11
2985.67
 20
2317.28
 21
2317.28
  0
LINE
  8
APS_GEOMETRY
 10
2985.67
 11
2985.67
 20
2317.28
 21
2367.28
  0
LINE
  8
APS_GEOMETRY
 10
2985.67
 11
2935.67
 20
2367.28
 21
2367.28
  0
LINE
  8
APS_GEOMETRY
 10
2935.67
 11
2935.67
 20
2367.28
 21
2317.28
  0
LINE
  8
COSTRUZIONI
 10
2603.498
 11
2998.476
 20
2388.554
 21
2388.554
  0
LINE
  8
COSTRUZIONI
 10
2800.987
 11
2800.987
 20
2388.554
 21
2306.551
  0
LINE
  8
COSTRUZIONI
 10
3146.816
 11
3164.516
 20
2343.517
 21
2343.517
  0
LINE
  8
COSTRUZIONI
 10
3164.516
 11
3164.516
 20
2343.517
 21
2340.017
  0
LINE
  8
COSTRUZIONI
 10
3164.516
 11
3146.816
 20
2340.017
 21
2340.017
  0
LINE
  8
COSTRUZIONI
 10
3146.816
 11
3146.816
 20
2340.017
 21
2343.517
  0
LINE
  8
COSTRUZIONI
 10
3154.516
 11
3154.516
 20
2343.517
 21
2370.017
  0
ARC
  8
COSTRUZIONI
 10
3151.516
 20
2370.017
 40
3.0
 50
0.0
 51
90.0
  0
LINE
  8
COSTRUZIONI
 10
3151.516
 11
3132.516
 20
2373.017
 21
2373.017
  0
ARC
  8
COSTRUZIONI
 10
3132.516
 20
2370.017
 40
3.0
 50
90.0
 51
180.0
  0
LINE
  8
COSTRUZIONI
 10
3129.516
 11
3129.516
 20
2370.017
 21
2349.017
  0
LINE
  8
COSTRUZIONI
 10
3129.516
 11
3125.016
 20
2349.017
 21
2349.017
  0
LINE
  8
COSTRUZIONI
 10
3125.016
 11
3125.016
 20
2349.017
 21
2363.017
  0
LINE
  8
COSTRUZIONI
 10
3125.016
 11
3121.016
 20
2363.017
 21
2363.017
  0
LINE
  8
COSTRUZIONI
 10
3121.016
 11
3121.016
 20
2363.017
 21
2327.236
  0
LINE
  8
COSTRUZIONI
 10
3165.016
 11
3165.016
 20
2313.245
 21
2339.017
  0
LINE
  8
COSTRUZIONI
 10
3185.39
 11
3170.516
 20
2328.017
 21
2328.017
  0
ARC
  8
COSTRUZIONI
 10
3170.516
 20
2331.017
 40
3.0
 50
180.0
 51
270.0
  0
LINE
  8
COSTRUZIONI
 10
3167.516
 11
3167.516
 20
2331.017
 21
2343.017
  0
LINE
  8
COSTRUZIONI
 10
3167.516
 11
3159.016
 20
2343.017
 21
2343.017
  0
ARC
  8
COSTRUZIONI
 10
3159.016
 20
2344.517
 40
1.5
 50
180.0
 51
270.0
  0
LINE
  8
COSTRUZIONI
 10
3157.516
 11
3157.516
 20
2344.517
 21
2370.017
  0
ARC
  8
COSTRUZIONI
 10
3160.516
 20
2370.017
 40
3.0
 50
90.0
 51
180.0
  0
LINE
  8
COSTRUZIONI
 10
3160.516
 11
3186.552
 20
2373.017
 21
2373.017
  0
LINE
  8
QUOTATURA
 10
3079.456
 11
3079.456
 20
2329.21
 21
2329.877
  0
LINE
  8
COSTRUZIONI
 10
3062.256
 11
3069.956
 20
2334.044
 21
2334.044
  0
ARC
  8
COSTRUZIONI
 10
3074.956
 20
2322.044
 40
13.0
 50
67.38
 51
112.62
  0
LINE
  8
COSTRUZIONI
 10
3079.956
 11
3079.956
 20
2334.044
 21
2330.544
  0
LINE
  8
COSTRUZIONI
 10
3079.956
 11
3062.256
 20
2330.544
 21
2330.544
  0
LINE
  8
COSTRUZIONI
 10
3062.256
 11
3062.256
 20
2330.544
 21
2334.044
  0
LINE
  8
COSTRUZIONI
 10
3062.433
 11
3062.256
 20
2330.544
 21
2330.72
  0
LINE
  8
COSTRUZIONI
 10
3062.256
 11
3062.963
 20
2331.251
 21
2330.544
  0
LINE
  8
COSTRUZIONI
 10
3063.14
 11
3062.256
 20
2330.544
 21
2331.427
  0
LINE
  8
COSTRUZIONI
 10
3062.256
 11
3063.671
 20
2331.958
 21
2330.544
  0
LINE
  8
COSTRUZIONI
 10
3063.847
 11
3062.256
 20
2330.544
 21
2332.135
  0
LINE
  8
COSTRUZIONI
 10
3062.256
 11
3064.378
 20
2332.665
 21
2330.544
  0
LINE
  8
COSTRUZIONI
 10
3064.554
 11
3062.256
 20
2330.544
 21
2332.842
  0
LINE
  8
COSTRUZIONI
 10
3062.256
 11
3065.085
 20
2333.372
 21
2330.544
  0
LINE
  8
COSTRUZIONI
 10
3065.262
 11
3062.256
 20
2330.544
 21
2333.549
  0
LINE
  8
COSTRUZIONI
 10
3062.292
 11
3065.792
 20
2334.044
 21
2330.544
  0
LINE
  8
COSTRUZIONI
 10
3065.969
 11
3062.469
 20
2330.544
 21
2334.044
  0
LINE
  8
COSTRUZIONI
 10
3062.999
 11
3066.499
 20
2334.044
 21
2330.544
  0
LINE
  8
COSTRUZIONI
 10
3066.676
 11
3063.176
 20
2330.544
 21
2334.044
  0
LINE
  8
COSTRUZIONI
 10
3063.706
 11
3067.206
 20
2334.044
 21
2330.544
  0
LINE
  8
COSTRUZIONI
 10
3067.383
 11
3063.883
 20
2330.544
 21
2334.044
  0
LINE
  8
COSTRUZIONI
 10
3064.413
 11
3067.913
 20
2334.044
 21
2330.544
  0
LINE
  8
COSTRUZIONI
 10
3068.09
 11
3064.59
 20
2330.544
 21
2334.044
  0
LINE
  8
COSTRUZIONI
 10
3065.12
 11
3068.62
 20
2334.044
 21
2330.544
  0
LINE
  8
COSTRUZIONI
 10
3068.797
 11
3065.297
 20
2330.544
 21
2334.044
  0
LINE
  8
COSTRUZIONI
 10
3065.827
 11
3069.327
 20
2334.044
 21
2330.544
  0
LINE
  8
COSTRUZIONI
 10
3069.504
 11
3066.004
 20
2330.544
 21
2334.044
  0
LINE
  8
COSTRUZIONI
 10
3066.535
 11
3070.035
 20
2334.044
 21
2330.544
  0
LINE
  8
COSTRUZIONI
 10
3070.211
 11
3066.711
 20
2330.544
 21
2334.044
  0
LINE
  8
COSTRUZIONI
 10
3067.242
 11
3070.742
 20
2334.044
 21
2330.544
  0
LINE
  8
COSTRUZIONI
 10
3070.918
 11
3067.418
 20
2330.544
 21
2334.044
  0
LINE
  8
COSTRUZIONI
 10
3067.949
 11
3071.449
 20
2334.044
 21
2330.544
  0
LINE
  8
COSTRUZIONI
 10
3071.626
 11
3068.126
 20
2330.544
 21
2334.044
  0
LINE
  8
COSTRUZIONI
 10
3068.656
 11
3072.156
 20
2334.044
 21
2330.544
  0
LINE
  8
COSTRUZIONI
 10
3072.333
 11
3068.833
 20
2330.544
 21
2334.044
  0
LINE
  8
COSTRUZIONI
 10
3069.363
 11
3072.863
 20
2334.044
 21
2330.544
  0
LINE
  8
COSTRUZIONI
 10
3073.04
 11
3069.54
 20
2330.544
 21
2334.044
  0
LINE
  8
COSTRUZIONI
 10
3070.037
 11
3073.57
 20
2334.077
 21
2330.544
  0
LINE
  8
COSTRUZIONI
 10
3073.747
 11
3070.163
 20
2330.544
 21
2334.127
  0
LINE
  8
COSTRUZIONI
 10
3070.548
 11
3074.277
 20
2334.273
 21
2330.544
  0
LINE
  8
COSTRUZIONI
 10
3074.454
 11
3070.678
 20
2330.544
 21
2334.319
  0
LINE
  8
COSTRUZIONI
 10
3071.077
 11
3074.984
 20
2334.451
 21
2330.544
  0
LINE
  8
COSTRUZIONI
 10
3075.161
 11
3071.212
 20
2330.544
 21
2334.493
  0
LINE
  8
COSTRUZIONI
 10
3071.625
 11
3075.691
 20
2334.61
 21
2330.544
  0
LINE
  8
COSTRUZIONI
 10
3075.868
 11
3071.766
 20
2330.544
 21
2334.646
  0
LINE
  8
COSTRUZIONI
 10
3072.195
 11
3076.399
 20
2334.747
 21
2330.544
  0
LINE
  8
COSTRUZIONI
 10
3076.575
 11
3072.341
 20
2330.544
 21
2334.778
  0
LINE
  8
COSTRUZIONI
 10
3072.788
 11
3077.106
 20
2334.861
 21
2330.544
  0
LINE
  8
COSTRUZIONI
 10
3077.282
 11
3072.94
 20
2330.544
 21
2334.886
  0
LINE
  8
COSTRUZIONI
 10
3073.406
 11
3077.813
 20
2334.951
 21
2330.544
  0
LINE
  8
COSTRUZIONI
 10
3077.989
 11
3073.564
 20
2330.544
 21
2334.969
  0
LINE
  8
COSTRUZIONI
 10
3074.051
 11
3078.52
 20
2335.012
 21
2330.544
  0
LINE
  8
COSTRUZIONI
 10
3078.697
 11
3074.218
 20
2330.544
 21
2335.023
  0
LINE
  8
COSTRUZIONI
 10
3074.729
 11
3079.227
 20
2335.042
 21
2330.544
  0
LINE
  8
COSTRUZIONI
 10
3079.404
 11
3074.904
 20
2330.544
 21
2335.043
  0
LINE
  8
COSTRUZIONI
 10
3075.443
 11
3079.934
 20
2335.034
 21
2330.544
  0
LINE
  8
COSTRUZIONI
 10
3079.956
 11
3075.628
 20
2330.698
 21
2335.026
  0
LINE
  8
COSTRUZIONI
 10
3076.201
 11
3079.956
 20
2334.984
 21
2331.228
  0
LINE
  8
COSTRUZIONI
 10
3079.956
 11
3076.398
 20
2331.405
 21
2334.963
  0
LINE
  8
COSTRUZIONI
 10
3077.012
 11
3079.956
 20
2334.88
 21
2331.935
  0
LINE
  8
COSTRUZIONI
 10
3079.956
 11
3077.224
 20
2332.112
 21
2334.844
  0
LINE
  8
COSTRUZIONI
 10
3077.891
 11
3079.956
 20
2334.708
 21
2332.642
  0
LINE
  8
COSTRUZIONI
 10
3079.956
 11
3078.124
 20
2332.819
 21
2334.652
  0
LINE
  8
COSTRUZIONI
 10
3078.864
 11
3079.956
 20
2334.442
 21
2333.35
  0
LINE
  8
COSTRUZIONI
 10
3079.956
 11
3079.126
 20
2333.526
 21
2334.357
  0
ARC
  8
COSTRUZIONI
 10
3079.456
 20
2329.544
 40
1.0
 50
360.0
 51
90.0
  0
LINE
  8
COSTRUZIONI
 10
3036.456
 11
3036.456
 20
2363.743
 21
2319.779
  0
LINE
  8
COSTRUZIONI
 10
3080.456
 11
3080.456
 20
2316.986
 21
2329.544
  0
LINE
  8
COSTRUZIONI
 10
3069.956
 11
3069.956
 20
2334.044
 21
2360.744
  0
ARC
  8
COSTRUZIONI
 10
3066.956
 20
2360.744
 40
3.0
 50
0.0
 51
90.0
  0
LINE
  8
COSTRUZIONI
 10
3066.956
 11
3044.956
 20
2363.744
 21
2363.744
  0
LINE
  8
COSTRUZIONI
 10
3044.956
 11
3044.956
 20
2363.744
 21
2349.743
  0
LINE
  8
COSTRUZIONI
 10
3044.956
 11
3040.656
 20
2349.743
 21
2349.743
  0
LINE
  8
COSTRUZIONI
 10
3040.656
 11
3040.656
 20
2349.743
 21
2363.743
  0
LINE
  8
COSTRUZIONI
 10
3040.656
 11
3036.456
 20
2363.743
 21
2363.743
  0
LINE
  8
COSTRUZIONI
 10
3075.956
 11
3096.317
 20
2333.744
 21
2333.744
  0
LINE
  8
COSTRUZIONI
 10
3090.037
 11
3067.956
 20
2378.744
 21
2378.744
  0
ARC
  8
COSTRUZIONI
 10
3067.956
 20
2373.744
 40
5.0
 50
90.0
 51
180.0
  0
LINE
  8
COSTRUZIONI
 10
3062.956
 11
3062.956
 20
2373.744
 21
2365.744
  0
ARC
  8
COSTRUZIONI
 10
3064.956
 20
2365.744
 40
2.0
 50
180.0
 51
270.0
  0
LINE
  8
COSTRUZIONI
 10
3064.956
 11
3072.956
 20
2363.744
 21
2363.744
  0
LINE
  8
COSTRUZIONI
 10
3072.956
 11
3072.956
 20
2363.744
 21
2336.744
  0
ARC
  8
COSTRUZIONI
 10
3075.956
 20
2336.744
 40
3.0
 50
180.0
 51
270.0
  0
CIRCLE
  8
COSTRUZIONI
 10
3053.306
 20
2372.393
 40
6.85
  0
LINE
  8
COSTRUZIONI
 10
3059.344
 11
3063.202
 20
2375.63
 21
2375.292
  0
LINE
  8
COSTRUZIONI
 10
3062.956
 11
3058.69
 20
2367.785
 21
2368.158
  0
LINE
  8
COSTRUZIONI
 10
3057.056
 11
3057.056
 20
2366.661
 21
2363.744
  0
LINE
  8
COSTRUZIONI
 10
3049.556
 11
3049.556
 20
2363.744
 21
2366.661
  0
LINE
  8
COSTRUZIONI
 10
3052.33
 11
3031.571
 20
2379.243
 21
2379.243
  0
LINE
  8
COSTRUZIONI
 10
3046.456
 11
3046.456
 20
2372.393
 21
2389.12
  0
CIRCLE
  8
COSTRUZIONI
 10
3060.571
 20
2351.693
 40
40.0
  0
CIRCLE
  8
COSTRUZIONI
 10
3152.915
 20
2351.37
 40
40.0
  0
LINE
  8
APS_GEOMETRY
 10
3236.657
 11
3286.657
 20
2317.28
 21
2317.28
  0
LINE
  8
APS_GEOMETRY
 10
3286.657
 11
3286.657
 20
2317.28
 21
2367.28
  0
LINE
  8
APS_GEOMETRY
 10
3286.657
 11
3236.657
 20
2367.28
 21
2367.28
  0
LINE
  8
APS_GEOMETRY
 10
3236.657
 11
3236.657
 20
2367.28
 21
2317.28
  0
LINE
  8
COSTRUZIONI
 10
3318.025
 11
3318.025
 20
2456.551
 21
2306.551
  0
LINE
  8
COSTRUZIONI
 10
2638.612
 11
3393.612
 20
134.5
 21
1984.5
  0
LINE
  8
COSTRUZIONI
 10
2638.612
 11
3393.612
 20
1984.5
 21
134.5
  0
LINE
  8
COSTRUZIONI
 10
3508.112
 11
3508.112
 20
2114.5
 21
4.5
  0
LINE
  8
COSTRUZIONI
 10
3508.112
 11
2524.112
 20
4.5
 21
4.5
  0
LINE
  8
COSTRUZIONI
 10
2524.112
 11
2524.112
 20
4.5
 21
2114.5
  0
LINE
  8
COSTRUZIONI
 10
2524.112
 11
3508.112
 20
2114.5
 21
2114.5
  0
LINE
  8
COSTRUZIONI
 10
2638.612
 11
2638.612
 20
1984.5
 21
134.5
  0
LINE
  8
COSTRUZIONI
 10
2638.612
 11
3393.612
 20
134.5
 21
134.5
  0
LINE
  8
COSTRUZIONI
 10
3393.612
 11
3393.612
 20
134.5
 21
844.428
  0
LINE
  8
COSTRUZIONI
 10
3393.612
 11
3315.542
 20
844.428
 21
889.107
  0
LINE
  8
COSTRUZIONI
 10
3315.542
 11
3393.612
 20
889.107
 21
1124.03
  0
LINE
  8
COSTRUZIONI
 10
3393.612
 11
3393.612
 20
1124.03
 21
1984.5
  0
LINE
  8
COSTRUZIONI
 10
3393.612
 11
2638.612
 20
1984.5
 21
1984.5
  0
LINE
  8
COSTRUZIONI
 10
2588.612
 11
2588.612
 20
2034.5
 21
84.5
  0
LINE
  8
COSTRUZIONI
 10
2588.612
 11
3443.612
 20
84.5
 21
84.5
  0
LINE
  8
COSTRUZIONI
 10
3443.612
 11
3443.612
 20
84.5
 21
873.423
  0
LINE
  8
COSTRUZIONI
 10
3443.612
 11
3375.897
 20
873.423
 21
912.175
  0
LINE
  8
COSTRUZIONI
 10
3375.897
 11
3443.612
 20
912.175
 21
1115.94
  0
LINE
  8
COSTRUZIONI
 10
3443.612
 11
3443.612
 20
1115.94
 21
2034.5
  0
LINE
  8
COSTRUZIONI
 10
3443.612
 11
2588.612
 20
2034.5
 21
2034.5
  0
LINE
  8
COSTRUZIONI
 10
4658.397
 11
3903.397
 20
134.5
 21
1984.5
  0
LINE
  8
COSTRUZIONI
 10
4658.397
 11
3903.397
 20
1984.5
 21
134.5
  0
LINE
  8
COSTRUZIONI
 10
3788.897
 11
3788.897
 20
2114.5
 21
4.5
  0
LINE
  8
COSTRUZIONI
 10
3788.897
 11
4772.897
 20
4.5
 21
4.5
  0
LINE
  8
COSTRUZIONI
 10
4772.897
 11
4772.897
 20
4.5
 21
2114.5
  0
LINE
  8
COSTRUZIONI
 10
4772.897
 11
3788.897
 20
2114.5
 21
2114.5
  0
LINE
  8
COSTRUZIONI
 10
4658.397
 11
4658.397
 20
1984.5
 21
134.5
  0
LINE
  8
COSTRUZIONI
 10
4658.397
 11
3903.397
 20
134.5
 21
134.5
  0
LINE
  8
COSTRUZIONI
 10
3903.397
 11
3903.397
 20
134.5
 21
844.428
  0
LINE
  8
COSTRUZIONI
 10
3903.397
 11
3981.467
 20
844.428
 21
889.107
  0
LINE
  8
COSTRUZIONI
 10
3981.467
 11
3903.397
 20
889.107
 21
1124.03
  0
LINE
  8
COSTRUZIONI
 10
3903.397
 11
3903.397
 20
1124.03
 21
1984.5
  0
LINE
  8
COSTRUZIONI
 10
3903.397
 11
4658.397
 20
1984.5
 21
1984.5
  0
LINE
  8
COSTRUZIONI
 10
4708.397
 11
4708.397
 20
2034.5
 21
84.5
  0
LINE
  8
COSTRUZIONI
 10
4708.397
 11
3853.397
 20
84.5
 21
84.5
  0
LINE
  8
COSTRUZIONI
 10
3853.397
 11
3853.397
 20
84.5
 21
873.423
  0
LINE
  8
COSTRUZIONI
 10
3853.397
 11
3921.112
 20
873.423
 21
912.175
  0
LINE
  8
COSTRUZIONI
 10
3921.112
 11
3853.397
 20
912.175
 21
1115.94
  0
LINE
  8
COSTRUZIONI
 10
3853.397
 11
3853.397
 20
1115.94
 21
2034.5
  0
LINE
  8
COSTRUZIONI
 10
3853.397
 11
4708.397
 20
2034.5
 21
2034.5
  0
LINE
  8
QUOTATURA
 10
2524.112
 11
2524.112
 20
4.5
 21
-113.31
  0
LINE
  8
QUOTATURA
 10
3508.112
 11
3508.112
 20
4.5
 21
-113.31
  0
LINE
  8
QUOTATURA
 10
2524.112
 11
2968.266
 20
-113.31
 21
-113.31
  0
LINE
  8
QUOTATURA
 10
3063.959
 11
3508.112
 20
-113.31
 21
-113.31
  0
LINE
  8
QUOTATURA
 10
2554.112
 11
2524.112
 20
-118.311
 21
-113.31
  0
LINE
  8
QUOTATURA
 10
2524.112
 11
2554.112
 20
-113.31
 21
-108.309
  0
LINE
  8
QUOTATURA
 10
2554.112
 11
2554.112
 20
-108.309
 21
-118.311
  0
LINE
  8
QUOTATURA
 10
3478.112
 11
3508.112
 20
-108.309
 21
-113.31
  0
LINE
  8
QUOTATURA
 10
3508.112
 11
3478.112
 20
-113.31
 21
-118.311
  0
LINE
  8
QUOTATURA
 10
3478.112
 11
3478.112
 20
-118.311
 21
-108.309
  0
CIRCLE
  8
COSTRUZIONI
 10
3016.112
 20
484.25
 40
15.0
  0
LINE
  8
COSTRUZIONI
 10
3023.612
 11
3008.612
 20
484.25
 21
484.25
  0
CIRCLE
  8
COSTRUZIONI
 10
3016.112
 20
1059.5
 40
15.0
  0
LINE
  8
COSTRUZIONI
 10
3023.612
 11
3008.612
 20
1059.5
 21
1059.5
  0
CIRCLE
  8
COSTRUZIONI
 10
3016.112
 20
1634.75
 40
15.0
  0
LINE
  8
QUOTATURA
 10
2997.258
 11
3016.112
 20
1627.292
 21
1634.75
  0
LINE
  8
QUOTATURA
 10
3016.112
 11
3000.697
 20
1634.75
 21
1621.579
  0
LINE
  8
QUOTATURA
 10
3000.697
 11
2997.258
 20
1621.579
 21
1627.292
  0
LINE
  8
QUOTATURA
 10
3016.112
 11
2329.258
 20
1634.75
 21
1221.29
  0
LINE
  8
QUOTATURA
 10
2329.258
 11
2036.698
 20
1221.29
 21
1221.29
  0
LINE
  8
QUOTATURA
 10
2036.698
 11
2036.698
 20
1221.29
 21
1088.309
  0
LINE
  8
QUOTATURA
 10
2036.698
 11
2326.598
 20
1088.309
 21
1088.309
  0
LINE
  8
QUOTATURA
 10
2326.598
 11
2326.598
 20
1088.309
 21
1221.29
  0
LINE
  8
QUOTATURA
 10
2996.784
 11
3016.112
 20
1065.624
 21
1059.5
  0
LINE
  8
QUOTATURA
 10
3016.112
 11
2995.842
 20
1059.5
 21
1059.023
  0
LINE
  8
QUOTATURA
 10
2995.842
 11
2996.784
 20
1059.023
 21
1065.624
  0
LINE
  8
QUOTATURA
 10
3016.112
 11
2329.258
 20
1059.5
 21
1157.459
  0
LINE
  8
QUOTATURA
 10
3003.738
 11
3016.112
 20
500.312
 21
484.25
  0
LINE
  8
QUOTATURA
 10
3016.112
 11
2999.197
 20
484.25
 21
495.429
  0
LINE
  8
QUOTATURA
 10
2999.197
 11
3003.738
 20
495.429
 21
500.312
  0
LINE
  8
QUOTATURA
 10
3016.112
 11
2326.598
 20
484.25
 21
1125.543
  0
LINE
  8
QUOTATURA
 10
3508.112
 11
3657.814
 20
4.5
 21
4.5
  0
LINE
  8
QUOTATURA
 10
3016.112
 11
3657.814
 20
484.25
 21
484.25
  0
LINE
  8
QUOTATURA
 10
3657.814
 11
3657.814
 20
4.5
 21
221.503
  0
LINE
  8
QUOTATURA
 10
3657.814
 11
3657.814
 20
266.891
 21
484.25
  0
LINE
  8
QUOTATURA
 10
3662.815
 11
3657.814
 20
34.5
 21
4.5
  0
LINE
  8
QUOTATURA
 10
3657.814
 11
3652.813
 20
4.5
 21
34.5
  0
LINE
  8
QUOTATURA
 10
3652.813
 11
3662.815
 20
34.5
 21
34.5
  0
LINE
  8
QUOTATURA
 10
3652.813
 11
3657.814
 20
454.25
 21
484.25
  0
LINE
  8
QUOTATURA
 10
3657.814
 11
3662.815
 20
484.25
 21
454.25
  0
LINE
  8
QUOTATURA
 10
3662.815
 11
3652.813
 20
454.25
 21
454.25
  0
LINE
  8
QUOTATURA
 10
3016.112
 11
3016.112
 20
479.249
 21
489.251
  0
LINE
  8
QUOTATURA
 10
3011.111
 11
3021.113
 20
484.25
 21
484.25
  0
LINE
  8
QUOTATURA
 10
3657.814
 11
3657.814
 20
484.25
 21
749.132
  0
LINE
  8
QUOTATURA
 10
3657.814
 11
3657.814
 20
794.469
 21
1059.5
  0
LINE
  8
QUOTATURA
 10
3662.815
 11
3657.814
 20
514.25
 21
484.25
  0
LINE
  8
QUOTATURA
 10
3657.814
 11
3652.813
 20
484.25
 21
514.25
  0
LINE
  8
QUOTATURA
 10
3652.813
 11
3662.815
 20
514.25
 21
514.25
  0
LINE
  8
QUOTATURA
 10
3652.813
 11
3657.814
 20
1029.5
 21
1059.5
  0
LINE
  8
QUOTATURA
 10
3657.814
 11
3662.815
 20
1059.5
 21
1029.5
  0
LINE
  8
QUOTATURA
 10
3662.815
 11
3652.813
 20
1029.5
 21
1029.5
  0
LINE
  8
QUOTATURA
 10
3016.112
 11
3016.112
 20
479.249
 21
489.251
  0
LINE
  8
QUOTATURA
 10
3011.111
 11
3021.113
 20
484.25
 21
484.25
  0
LINE
  8
QUOTATURA
 10
3016.112
 11
3016.112
 20
1054.499
 21
1064.501
  0
LINE
  8
QUOTATURA
 10
3011.111
 11
3021.113
 20
1059.5
 21
1059.5
  0
LINE
  8
QUOTATURA
 10
3016.112
 11
3658.312
 20
1059.5
 21
1059.5
  0
LINE
  8
QUOTATURA
 10
3016.112
 11
3658.312
 20
1634.75
 21
1634.75
  0
LINE
  8
QUOTATURA
 10
3658.312
 11
3658.312
 20
1059.5
 21
1324.382
  0
LINE
  8
QUOTATURA
 10
3658.312
 11
3658.312
 20
1369.719
 21
1634.75
  0
LINE
  8
QUOTATURA
 10
3663.313
 11
3658.312
 20
1089.5
 21
1059.5
  0
LINE
  8
QUOTATURA
 10
3658.312
 11
3653.311
 20
1059.5
 21
1089.5
  0
LINE
  8
QUOTATURA
 10
3653.311
 11
3663.313
 20
1089.5
 21
1089.5
  0
LINE
  8
QUOTATURA
 10
3653.311
 11
3658.312
 20
1604.75
 21
1634.75
  0
LINE
  8
QUOTATURA
 10
3658.312
 11
3663.313
 20
1634.75
 21
1604.75
  0
LINE
  8
QUOTATURA
 10
3663.313
 11
3653.311
 20
1604.75
 21
1604.75
  0
LINE
  8
QUOTATURA
 10
3016.112
 11
3016.112
 20
1054.499
 21
1064.501
  0
LINE
  8
QUOTATURA
 10
3011.111
 11
3021.113
 20
1059.5
 21
1059.5
  0
LINE
  8
QUOTATURA
 10
3016.112
 11
3016.112
 20
1629.749
 21
1639.751
  0
LINE
  8
QUOTATURA
 10
3011.111
 11
3021.113
 20
1634.75
 21
1634.75
  0
LINE
  8
QUOTATURA
 10
3508.112
 11
3658.544
 20
2114.5
 21
2114.5
  0
LINE
  8
QUOTATURA
 10
3016.112
 11
3658.544
 20
1634.75
 21
1634.75
  0
LINE
  8
QUOTATURA
 10
3658.544
 11
3658.544
 20
2114.5
 21
1897.141
  0
LINE
  8
QUOTATURA
 10
3658.544
 11
3658.544
 20
1851.753
 21
1634.75
  0
LINE
  8
QUOTATURA
 10
3653.543
 11
3658.544
 20
2084.5
 21
2114.5
  0
LINE
  8
QUOTATURA
 10
3658.544
 11
3663.545
 20
2114.5
 21
2084.5
  0
LINE
  8
QUOTATURA
 10
3663.545
 11
3653.543
 20
2084.5
 21
2084.5
  0
LINE
  8
QUOTATURA
 10
3663.545
 11
3658.544
 20
1664.75
 21
1634.75
  0
LINE
  8
QUOTATURA
 10
3658.544
 11
3653.543
 20
1634.75
 21
1664.75
  0
LINE
  8
QUOTATURA
 10
3653.543
 11
3663.545
 20
1664.75
 21
1664.75
  0
LINE
  8
QUOTATURA
 10
3016.112
 11
3016.112
 20
1629.749
 21
1639.751
  0
LINE
  8
QUOTATURA
 10
3011.111
 11
3021.113
 20
1634.75
 21
1634.75
  0
LINE
  8
QUOTATURA
 10
2524.112
 11
2361.145
 20
4.5
 21
4.5
  0
LINE
  8
QUOTATURA
 10
2524.112
 11
2361.145
 20
2114.5
 21
2114.5
  0
LINE
  8
QUOTATURA
 10
2361.145
 11
2361.145
 20
4.5
 21
1440.215
  0
LINE
  8
QUOTATURA
 10
2361.145
 11
2361.145
 20
1485.676
 21
2114.5
  0
LINE
  8
QUOTATURA
 10
2366.146
 11
2361.145
 20
34.5
 21
4.5
  0
LINE
  8
QUOTATURA
 10
2361.145
 11
2356.144
 20
4.5
 21
34.5
  0
LINE
  8
QUOTATURA
 10
2356.144
 11
2366.146
 20
34.5
 21
34.5
  0
LINE
  8
QUOTATURA
 10
2356.144
 11
2361.145
 20
2084.5
 21
2114.5
  0
LINE
  8
QUOTATURA
 10
2361.145
 11
2366.146
 20
2114.5
 21
2084.5
  0
LINE
  8
QUOTATURA
 10
2366.146
 11
2356.144
 20
2084.5
 21
2084.5
  0
CIRCLE
  8
COSTRUZIONI
 10
4280.897
 20
484.25
 40
15.0
  0
CIRCLE
  8
COSTRUZIONI
 10
4280.897
 20
1059.5
 40
15.0
  0
CIRCLE
  8
COSTRUZIONI
 10
4280.897
 20
1634.75
 40
15.0
  0
TEXT
  8
TEXT
 10
2510.342
 20
1794.442
 30
0.0
 40
30.0
 50
0.0
  1
M
  0
TEXT
  8
TEXT
 10
2565.302
 20
1793.164
 30
0.0
 40
30.0
 50
0.0
  1
V
  0
TEXT
  8
TEXT
 10
3195.603
 20
2036.563
 30
0.0
 40
30.0
 50
0.0
  1
V
  0
TEXT
  8
TEXT
 10
3440.61
 20
1777.263
 30
0.0
 40
30.0
 50
0.0
  1
V
  0
TEXT
  8
TEXT
 10
3500.725
 20
1787.718
 30
0.0
 40
30.0
 50
0.0
  1
M
  0
TEXT
  8
TEXT
 10
3187.762
 20
2107.133
 30
0.0
 40
30.0
 50
0.0
  1
M
  0
TEXT
  8
TEXT
 10
3211.155
 20
-7.126
 30
0.0
 40
30.0
 50
0.0
  1
M
  0
TEXT
  8
TEXT
 10
3211.155
 20
60.151
 30
0.0
 40
30.0
 50
0.0
  1
V
  0
TEXT
  8
TEXT
 10
2854.696
 20
916.956
 30
0.0
 40
30.0
 50
0.0
  1
AREA TRAFORATO
  0
TEXT
  8
TEXT
 10
3305.508
 20
2228.638
 30
0.0
 40
30.0
 50
0.0
  1
PANNELLI TRAFORATI PER UNA ANTA 1015X2110
  0
TEXT
  8
TEXT
 10
3305.508
 20
2183.638
 30
0.0
 40
30.0
 50
0.0
  1
(SPESSORE 5.25)
  0
TEXT
  8
TEXT
 10
2717.47
 20
-194.036
 30
0.0
 40
30.0
 50
0.0
  1
LEGENDA LAVORAZIONI LASER:
  0
TEXT
  8
TEXT
 10
2717.47
 20
-239.036
 30
0.0
 40
30.0
 50
0.0
  1

  0
TEXT
  8
TEXT
 10
2717.47
 20
-284.036
 30
0.0
 40
30.0
 50
0.0
  1
[ V ] = FUGA A V DI 1.5-3 mm largh.
  0
TEXT
  8
TEXT
 10
2717.47
 20
-329.036
 30
0.0
 40
30.0
 50
0.0
  1
[ X ] = AREA TRAFORO SECONDO SPECIFICHE ARCHITETTO
  0
TEXT
  8
TEXT
 10
2717.47
 20
-374.036
 30
0.0
 40
30.0
 50
0.0
  1

  0
TEXT
  8
TEXT
 10
2717.47
 20
-419.036
 30
0.0
 40
30.0
 50
0.0
  1
LEGENDA LAVORAZIONI MANUALI
  0
TEXT
  8
TEXT
 10
2717.47
 20
-464.036
 30
0.0
 40
30.0
 50
0.0
  1

  0
TEXT
  8
TEXT
 10
2717.47
 20
-509.036
 30
0.0
 40
30.0
 50
0.0
  1
[ M ] = SPIGOLARE MANUALAMENTE
  0
TEXT
  8
TEXT
 10
2538.412
 20
-569.456
 30
0.0
 40
20.0
 50
0.0
  1
Ufficio tecnico:
  0
TEXT
  8
TEXT
 10
3031.76
 20
-693.798
 30
0.0
 40
25.0
 50
0.0
  1
tel. 0577-68.54.26 - fax 0577-68.64.29
  0
TEXT
  8
TEXT
 10
3031.76
 20
-731.298
 30
0.0
 40
25.0
 50
0.0
  1
e-mail: tecnico@toscocornici.it - web: www.tosococornici.it
  0
TEXT
  8
TEXT
 10
3642.85
 20
-722.99
 30
0.0
 40
40.0
 50
0.0
  1
B.Ste
  0
TEXT
  8
TEXT
 10
3791.269
 20
-722.99
 30
0.0
 40
40.0
 50
0.0
  1
f
  0
TEXT
  8
TEXT
 10
3821.954
 20
-722.99
 30
0.0
 40
40.0
 50
0.0
  1
ano
  0
TEXT
  8
TEXT
 10
3538.63
 20
-566.493
 30
0.0
 40
20.0
 50
0.0
  1
documento:
  0
TEXT
  8
TEXT
 10
4039.831
 20
-566.408
 30
0.0
 40
20.0
 50
0.0
  1
data:
  0
TEXT
  8
TEXT
 10
4288.93
 20
-617.899
 30
0.0
 40
30.0
 50
0.0
  1
21/03/16
  0
TEXT
  8
TEXT
 10
4297.684
 20
-718.609
 30
0.0
 40
30.0
 50
0.0
  1
1 : 10
  0
TEXT
  8
TEXT
 10
3536.817
 20
-664.718
 30
0.0
 40
20.0
 50
0.0
  1
responsabile tecnico:
  0
TEXT
  8
TEXT
 10
4038.412
 20
-665.008
 30
0.0
 40
20.0
 50
0.0
  1
scala:
  0
TEXT
  8
QUOTATURA
 10
2453.78
 20
737.524
 30
0.0
 40
20.0
 50
0.0
  1
50
  0
TEXT
  8
QUOTATURA
 10
2428.621
 20
686.033
 30
0.0
 40
20.0
 50
0.0
  1
64.5
  0
TEXT
  8
TEXT
 10
3782.286
 20
-619.615
 30
0.0
 40
17.0
 50
0.0
  1
PORTALAPORTA_STD-V_LASER_L1015H2110
  0
TEXT
  8
QUOTATURA
 10
2975.585
 20
-58.129
 30
0.0
 40
20.0
 50
0.0
  1
80
  0
TEXT
  8
QUOTATURA
 10
2976.663
 20
2236.159
 30
0.0
 40
20.0
 50
0.0
  1
80
  0
TEXT
  8
TEXT
 10
2883.647
 20
1722.646
 30
0.0
 40
200.0
 50
0.0
  1
SX
  0
TEXT
  8
TEXT
 10
2709.543
 20
2604.659
 30
0.0
 40
30.0
 50
0.0
  1
RIF.
  0
TEXT
  8
TEXT
 10
2962.765
 20
2604.659
 30
0.0
 40
30.0
 50
0.0
  1
QUANTITA'
  0
TEXT
  8
TEXT
 10
3340.936
 20
2604.659
 30
0.0
 40
30.0
 50
0.0
  1
ESSENZA
  0
TEXT
  8
TEXT
 10
3787.234
 20
2604.659
 30
0.0
 40
30.0
 50
0.0
  1
MODELLO
  0
TEXT
  8
TEXT
 10
4140.358
 20
2604.659
 30
0.0
 40
30.0
 50
0.0
  1
CONSEGNA ENTRO IL
  0
TEXT
  8
TEXT
 10
2630.403
 20
2404.659
 30
0.0
 40
30.0
 50
0.0
  1
MANO APERTURA
  0
TEXT
  8
TEXT
 10
3066.224
 20
2411.73
 30
0.0
 40
30.0
 50
0.0
  1
BATTENTE
  0
TEXT
  8
TEXT
 10
2614.388
 20
2317.687
 30
0.0
 40
50.0
 50
0.0
  1
SX
  0
TEXT
  8
TEXT
 10
2842.591
 20
2317.687
 30
0.0
 40
50.0
 50
0.0
  1
DX
  0
TEXT
  8
TEXT
 10
4098.412
 20
1693.161
 30
0.0
 40
200.0
 50
0.0
  1
DX
  0
TEXT
  8
TEXT
 10
4136.882
 20
906.029
 30
0.0
 40
30.0
 50
0.0
  1
AREA TRAFORATO
  0
TEXT
  8
QUOTATURA
 10
2975.671
 20
-128.31
 30
0.0
 40
30.0
 50
0.0
  1
984
  0
TEXT
  8
TEXT
 10
2057.975
 20
1165.438
 30
0.0
 40
30.0
 50
0.0
  1
ISOLE
  0
TEXT
  8
TEXT
 10
2057.975
 20
1120.438
 30
0.0
 40
30.0
 50
0.0
  1
NON FORARE
  0
TEXT
  8
QUOTATURA
 10
3583.721
 20
229.375
 30
0.0
 40
30.0
 50
0.0
  1
479.75
  0
TEXT
  8
QUOTATURA
 10
3586.368
 20
756.875
 30
0.0
 40
30.0
 50
0.0
  1
575.25
  0
TEXT
  8
QUOTATURA
 10
3586.866
 20
1332.125
 30
0.0
 40
30.0
 50
0.0
  1
575.25
  0
TEXT
  8
QUOTATURA
 10
3584.451
 20
1859.625
 30
0.0
 40
30.0
 50
0.0
  1
479.75
  0
TEXT
  8
QUOTATURA
 10
2320.056
 20
1448.081
 30
0.0
 40
30.0
 50
0.0
  1
2110
  0
ENDSEC
  0
EOF
