  0
SECTION
  2
ENTITIES
  0
LINE
  8
COSTRUZIONI
 10
3396.9
 11
3396.9
 20
2103.5
 21
4.5
  0
LINE
  8
COSTRUZIONI
 10
2620.9
 11
2620.9
 20
4.5
 21
2103.5
  0
LINE
  8
COSTRUZIONI
 10
3396.9
 11
2620.9
 20
4.5
 21
4.5
  0
LINE
  8
COSTRUZIONI
 10
3396.9
 11
2620.9
 20
2103.5
 21
2103.5
  0
CIRCLE
  8
COSTRUZIONI
 10
3362.4
 20
1044.5
 40
10.0
  0
ARC
  8
COSTRUZIONI
 10
3362.4
 20
944.0
 40
7.0
 50
270.0
 51
0.0
  0
LINE
  8
COSTRUZIONI
 10
3369.4
 11
3369.4
 20
944.0
 21
955.0
  0
ARC
  8
COSTRUZIONI
 10
3362.4
 20
955.0
 40
7.0
 50
0.0
 51
180.0
  0
LINE
  8
COSTRUZIONI
 10
3355.4
 11
3355.4
 20
955.0
 21
944.0
  0
ARC
  8
COSTRUZIONI
 10
3362.4
 20
944.0
 40
7.0
 50
180.0
 51
270.0
  0
LINE
  8
COSTRUZIONI
 10
3765.254
 11
3765.254
 20
2103.5
 21
4.5
  0
LINE
  8
COSTRUZIONI
 10
4541.254
 11
4541.254
 20
4.5
 21
2103.5
  0
LINE
  8
COSTRUZIONI
 10
3765.254
 11
4541.254
 20
4.5
 21
4.5
  0
LINE
  8
COSTRUZIONI
 10
3765.254
 11
4541.254
 20
2103.5
 21
2103.5
  0
LINE
  8
COSTRUZIONI
 10
4426.754
 11
3879.754
 20
1950.713
 21
157.287
  0
LINE
  8
COSTRUZIONI
 10
4426.754
 11
3879.754
 20
157.287
 21
1950.713
  0
CIRCLE
  8
COSTRUZIONI
 10
3799.754
 20
1044.5
 40
10.0
  0
ARC
  8
COSTRUZIONI
 10
3799.754
 20
944.0
 40
7.0
 50
180.0
 51
270.0
  0
LINE
  8
COSTRUZIONI
 10
3792.754
 11
3792.754
 20
944.0
 21
955.0
  0
ARC
  8
COSTRUZIONI
 10
3799.754
 20
955.0
 40
7.0
 50
360.0
 51
180.0
  0
LINE
  8
COSTRUZIONI
 10
3806.754
 11
3806.754
 20
955.0
 21
944.0
  0
ARC
  8
COSTRUZIONI
 10
3799.754
 20
944.0
 40
7.0
 50
270.0
 51
360.0
  0
LINE
  8
COSTRUZIONI
 10
4426.754
 11
4426.754
 20
1973.5
 21
134.5
  0
LINE
  8
COSTRUZIONI
 10
4426.754
 11
3879.754
 20
134.5
 21
134.5
  0
LINE
  8
COSTRUZIONI
 10
3879.754
 11
3879.754
 20
134.5
 21
844.428
  0
LINE
  8
COSTRUZIONI
 10
3879.754
 11
3957.824
 20
844.428
 21
889.107
  0
LINE
  8
COSTRUZIONI
 10
3957.824
 11
3879.754
 20
889.107
 21
1124.03
  0
LINE
  8
COSTRUZIONI
 10
3879.754
 11
3879.754
 20
1124.03
 21
1973.5
  0
LINE
  8
COSTRUZIONI
 10
3879.754
 11
4426.754
 20
1973.5
 21
1973.5
  0
LINE
  8
COSTRUZIONI
 10
4476.754
 11
4476.754
 20
2023.5
 21
84.5
  0
LINE
  8
COSTRUZIONI
 10
4476.754
 11
3829.754
 20
84.5
 21
84.5
  0
LINE
  8
COSTRUZIONI
 10
3829.754
 11
3829.754
 20
84.5
 21
873.423
  0
LINE
  8
COSTRUZIONI
 10
3829.754
 11
3897.47
 20
873.423
 21
912.175
  0
LINE
  8
COSTRUZIONI
 10
3897.47
 11
3829.754
 20
912.175
 21
1115.94
  0
LINE
  8
COSTRUZIONI
 10
3829.754
 11
3829.754
 20
1115.94
 21
2023.5
  0
LINE
  8
COSTRUZIONI
 10
3829.754
 11
4476.754
 20
2023.5
 21
2023.5
  0
LINE
  8
COSTRUZIONI
 10
3282.4
 11
2735.4
 20
1950.713
 21
157.287
  0
LINE
  8
COSTRUZIONI
 10
3282.4
 11
2735.4
 20
157.287
 21
1950.713
  0
LINE
  8
COSTRUZIONI
 10
2735.4
 11
2735.4
 20
1973.5
 21
134.5
  0
LINE
  8
COSTRUZIONI
 10
2735.4
 11
3282.4
 20
134.5
 21
134.5
  0
LINE
  8
COSTRUZIONI
 10
3282.4
 11
3282.4
 20
134.5
 21
844.428
  0
LINE
  8
COSTRUZIONI
 10
3282.4
 11
3204.33
 20
844.428
 21
889.107
  0
LINE
  8
COSTRUZIONI
 10
3204.33
 11
3282.4
 20
889.107
 21
1124.03
  0
LINE
  8
COSTRUZIONI
 10
3282.4
 11
3282.4
 20
1124.03
 21
1973.5
  0
LINE
  8
COSTRUZIONI
 10
3282.4
 11
2735.4
 20
1973.5
 21
1973.5
  0
LINE
  8
COSTRUZIONI
 10
2685.4
 11
2685.4
 20
2023.5
 21
84.5
  0
LINE
  8
COSTRUZIONI
 10
2685.4
 11
3332.4
 20
84.5
 21
84.5
  0
LINE
  8
COSTRUZIONI
 10
3332.4
 11
3332.4
 20
84.5
 21
873.423
  0
LINE
  8
COSTRUZIONI
 10
3332.4
 11
3264.685
 20
873.423
 21
912.175
  0
LINE
  8
COSTRUZIONI
 10
3264.685
 11
3332.4
 20
912.175
 21
1115.94
  0
LINE
  8
COSTRUZIONI
 10
3332.4
 11
3332.4
 20
1115.94
 21
2023.5
  0
LINE
  8
COSTRUZIONI
 10
3332.4
 11
2685.4
 20
2023.5
 21
2023.5
  0
ENDSEC
  0
EOF
