  0
SECTION
  2
ENTITIES
  0
LINE
  8
COSTRUZIONI
 10
2600.900128
 11
2600.900128
 20
4.5
 21
2113.5
  0
LINE
  8
COSTRUZIONI
 10
3396.900128
 11
3396.900128
 20
2113.5
 21
4.5
  0
LINE
  8
COSTRUZIONI
 10
3396.900128
 11
2612.900128
 20
4.5
 21
4.5
  0
LINE
  8
COSTRUZIONI
 10
2727.400128
 11
3282.400128
 20
134.5
 21
134.5
  0
LINE
  8
COSTRUZIONI
 10
3282.400128
 11
3282.400128
 20
134.5
 21
844.428204
  0
LINE
  8
COSTRUZIONI
 10
3282.400128
 11
3204.329866
 20
844.428204
 21
889.106648
  0
LINE
  8
COSTRUZIONI
 10
3204.329866
 11
3282.400128
 20
889.106648
 21
1124.030238
  0
LINE
  8
COSTRUZIONI
 10
3282.400128
 11
3282.400128
 20
1124.030238
 21
1983.5
  0
LINE
  8
COSTRUZIONI
 10
2665.400128
 11
2665.400128
 20
84.5
 21
2033.5
  0
LINE
  8
COSTRUZIONI
 10
3332.400128
 11
3332.400128
 20
2033.5
 21
1115.939716
  0
LINE
  8
COSTRUZIONI
 10
3332.400128
 11
3264.684734
 20
1115.939716
 21
912.175273
  0
LINE
  8
COSTRUZIONI
 10
3264.684734
 11
3332.400128
 20
912.175273
 21
873.422766
  0
LINE
  8
COSTRUZIONI
 10
3332.400128
 11
3332.400128
 20
873.422766
 21
84.5
  0
LINE
  8
COSTRUZIONI
 10
3332.400128
 11
2677.400128
 20
84.5
 21
84.5
  0
CIRCLE
  8
COSTRUZIONI
 10
2998.900128
 20
483.75
 40
15.0
  0
LINE
  8
COSTRUZIONI
 10
3006.400128
 11
2991.400128
 20
483.75
 21
483.75
  0
CIRCLE
  8
COSTRUZIONI
 10
2998.900128
 20
1059.0
 40
15.0
  0
LINE
  8
COSTRUZIONI
 10
3006.400128
 11
2991.400128
 20
1059.0
 21
1059.0
  0
CIRCLE
  8
COSTRUZIONI
 10
2998.900128
 20
1634.25
 40
15.0
  0
CIRCLE
  8
COSTRUZIONI
 10
2998.900128
 20
483.75
 40
15.0
  0
CIRCLE
  8
COSTRUZIONI
 10
2998.900128
 20
1059.0
 40
15.0
  0
CIRCLE
  8
COSTRUZIONI
 10
2998.900128
 20
1634.25
 40
15.0
  0
LINE
  8
COSTRUZIONI
 10
3396.900128
 11
3396.900128
 20
2113.5
 21
4.5
  0
LINE
  8
COSTRUZIONI
 10
3396.900128
 11
2600.900128
 20
4.5
 21
4.5
  0
LINE
  8
COSTRUZIONI
 10
2600.900128
 11
2600.900128
 20
4.5
 21
2113.5
  0
LINE
  8
COSTRUZIONI
 10
2600.900128
 11
3396.900128
 20
2113.5
 21
2113.5
  0
LINE
  8
COSTRUZIONI
 10
3282.400128
 11
2715.400128
 20
134.5
 21
134.5
  0
LINE
  8
COSTRUZIONI
 10
2715.400128
 11
2715.400128
 20
134.5
 21
1983.5
  0
LINE
  8
COSTRUZIONI
 10
2715.400128
 11
3282.400128
 20
1983.5
 21
1983.5
  0
LINE
  8
COSTRUZIONI
 10
3282.400128
 11
3282.400128
 20
1983.5
 21
1124.030238
  0
LINE
  8
COSTRUZIONI
 10
3282.400128
 11
3204.329866
 20
1124.030238
 21
889.106648
  0
LINE
  8
COSTRUZIONI
 10
3204.329866
 11
3282.400128
 20
889.106648
 21
844.428204
  0
LINE
  8
COSTRUZIONI
 10
3282.400128
 11
3282.400128
 20
844.428204
 21
134.5
  0
LINE
  8
COSTRUZIONI
 10
3332.400128
 11
3332.400128
 20
2033.5
 21
1115.939716
  0
LINE
  8
COSTRUZIONI
 10
3332.400128
 11
3264.684734
 20
1115.939716
 21
912.175273
  0
LINE
  8
COSTRUZIONI
 10
3264.684734
 11
3332.400128
 20
912.175273
 21
873.422766
  0
LINE
  8
COSTRUZIONI
 10
3332.400128
 11
3332.400128
 20
873.422766
 21
84.5
  0
LINE
  8
COSTRUZIONI
 10
3332.400128
 11
2665.400128
 20
84.5
 21
84.5
  0
LINE
  8
COSTRUZIONI
 10
2665.400128
 11
2665.400128
 20
84.5
 21
2033.5
  0
LINE
  8
COSTRUZIONI
 10
2665.400128
 11
3332.400128
 20
2033.5
 21
2033.5
  0
LINE
  8
COSTRUZIONI
 10
3006.400128
 11
2991.400128
 20
483.75
 21
483.75
  0
LINE
  8
COSTRUZIONI
 10
3006.400128
 11
2991.400128
 20
1059.0
 21
1059.0
  0
LINE
  8
COSTRUZIONI
 10
2715.400128
 11
3282.400128
 20
1983.5
 21
134.5
  0
LINE
  8
COSTRUZIONI
 10
2715.400128
 11
3282.400128
 20
134.5
 21
1983.5
  0
LINE
  8
COSTRUZIONI
 10
4481.099872
 11
4481.099872
 20
4.5
 21
2113.5
  0
LINE
  8
COSTRUZIONI
 10
3685.099872
 11
3685.099872
 20
2113.5
 21
4.5
  0
LINE
  8
COSTRUZIONI
 10
3685.099872
 11
4469.099872
 20
4.5
 21
4.5
  0
LINE
  8
COSTRUZIONI
 10
4354.599872
 11
3799.599872
 20
134.5
 21
134.5
  0
LINE
  8
COSTRUZIONI
 10
3799.599872
 11
3799.599872
 20
134.5
 21
844.428204
  0
LINE
  8
COSTRUZIONI
 10
3799.599872
 11
3877.670134
 20
844.428204
 21
889.106648
  0
LINE
  8
COSTRUZIONI
 10
3877.670134
 11
3799.599872
 20
889.106648
 21
1124.030238
  0
LINE
  8
COSTRUZIONI
 10
3799.599872
 11
3799.599872
 20
1124.030238
 21
1983.5
  0
LINE
  8
COSTRUZIONI
 10
4416.599872
 11
4416.599872
 20
84.5
 21
2033.5
  0
LINE
  8
COSTRUZIONI
 10
3749.599872
 11
3749.599872
 20
2033.5
 21
1115.939716
  0
LINE
  8
COSTRUZIONI
 10
3749.599872
 11
3817.315266
 20
1115.939716
 21
912.175273
  0
LINE
  8
COSTRUZIONI
 10
3817.315266
 11
3749.599872
 20
912.175273
 21
873.422766
  0
LINE
  8
COSTRUZIONI
 10
3749.599872
 11
3749.599872
 20
873.422766
 21
84.5
  0
LINE
  8
COSTRUZIONI
 10
3749.599872
 11
4404.599872
 20
84.5
 21
84.5
  0
CIRCLE
  8
COSTRUZIONI
 10
4083.099872
 20
483.75
 40
15.0
  0
LINE
  8
COSTRUZIONI
 10
4075.599872
 11
4090.599872
 20
483.75
 21
483.75
  0
CIRCLE
  8
COSTRUZIONI
 10
4083.099872
 20
1059.0
 40
15.0
  0
LINE
  8
COSTRUZIONI
 10
4075.599872
 11
4090.599872
 20
1059.0
 21
1059.0
  0
CIRCLE
  8
COSTRUZIONI
 10
4083.099872
 20
1634.25
 40
15.0
  0
CIRCLE
  8
COSTRUZIONI
 10
4083.099872
 20
483.75
 40
15.0
  0
CIRCLE
  8
COSTRUZIONI
 10
4083.099872
 20
1059.0
 40
15.0
  0
CIRCLE
  8
COSTRUZIONI
 10
4083.099872
 20
1634.25
 40
15.0
  0
LINE
  8
COSTRUZIONI
 10
3685.099872
 11
3685.099872
 20
2113.5
 21
4.5
  0
LINE
  8
COSTRUZIONI
 10
3685.099872
 11
4481.099872
 20
4.5
 21
4.5
  0
LINE
  8
COSTRUZIONI
 10
4481.099872
 11
4481.099872
 20
4.5
 21
2113.5
  0
LINE
  8
COSTRUZIONI
 10
4481.099872
 11
3685.099872
 20
2113.5
 21
2113.5
  0
LINE
  8
COSTRUZIONI
 10
3799.599872
 11
4366.599872
 20
134.5
 21
134.5
  0
LINE
  8
COSTRUZIONI
 10
4366.599872
 11
4366.599872
 20
134.5
 21
1983.5
  0
LINE
  8
COSTRUZIONI
 10
4366.599872
 11
3799.599872
 20
1983.5
 21
1983.5
  0
LINE
  8
COSTRUZIONI
 10
3799.599872
 11
3799.599872
 20
1983.5
 21
1124.030238
  0
LINE
  8
COSTRUZIONI
 10
3799.599872
 11
3877.670134
 20
1124.030238
 21
889.106648
  0
LINE
  8
COSTRUZIONI
 10
3877.670134
 11
3799.599872
 20
889.106648
 21
844.428204
  0
LINE
  8
COSTRUZIONI
 10
3799.599872
 11
3799.599872
 20
844.428204
 21
134.5
  0
LINE
  8
COSTRUZIONI
 10
3749.599872
 11
3749.599872
 20
2033.5
 21
1115.939716
  0
LINE
  8
COSTRUZIONI
 10
3749.599872
 11
3817.315266
 20
1115.939716
 21
912.175273
  0
LINE
  8
COSTRUZIONI
 10
3817.315266
 11
3749.599872
 20
912.175273
 21
873.422766
  0
LINE
  8
COSTRUZIONI
 10
3749.599872
 11
3749.599872
 20
873.422766
 21
84.5
  0
LINE
  8
COSTRUZIONI
 10
3749.599872
 11
4416.599872
 20
84.5
 21
84.5
  0
LINE
  8
COSTRUZIONI
 10
4416.599872
 11
4416.599872
 20
84.5
 21
2033.5
  0
LINE
  8
COSTRUZIONI
 10
4416.599872
 11
3749.599872
 20
2033.5
 21
2033.5
  0
LINE
  8
COSTRUZIONI
 10
4075.599872
 11
4090.599872
 20
483.75
 21
483.75
  0
LINE
  8
COSTRUZIONI
 10
4075.599872
 11
4090.599872
 20
1059.0
 21
1059.0
  0
LINE
  8
COSTRUZIONI
 10
4366.599872
 11
3799.599872
 20
1983.5
 21
134.5
  0
LINE
  8
COSTRUZIONI
 10
4366.599872
 11
3799.599872
 20
134.5
 21
1983.5
  0
ENDSEC
  0
EOF
