  0
SECTION
  2
ENTITIES
  0
LINE
  8
COSTRUZIONI
 10
2732.900128
 11
3396.900128
 20
2084.5
 21
2084.5
  0
LINE
  8
COSTRUZIONI
 10
3396.900128
 11
3396.900128
 20
2084.5
 21
4.5
  0
LINE
  8
COSTRUZIONI
 10
3396.900128
 11
2732.900128
 20
4.5
 21
4.5
  0
LINE
  8
COSTRUZIONI
 10
2732.900128
 11
2732.900128
 20
4.5
 21
2084.5
  0
LINE
  8
COSTRUZIONI
 10
2847.400128
 11
3282.400128
 20
1954.5
 21
1954.5
  0
LINE
  8
COSTRUZIONI
 10
3282.400128
 11
3282.400128
 20
1954.5
 21
1124.030238
  0
LINE
  8
COSTRUZIONI
 10
3282.400128
 11
3204.329866
 20
1124.030238
 21
889.106648
  0
LINE
  8
COSTRUZIONI
 10
3204.329866
 11
3282.400128
 20
889.106648
 21
844.428204
  0
LINE
  8
COSTRUZIONI
 10
3282.400128
 11
3282.400128
 20
844.428204
 21
134.5
  0
LINE
  8
COSTRUZIONI
 10
3282.400128
 11
2847.400128
 20
134.5
 21
134.5
  0
LINE
  8
COSTRUZIONI
 10
2847.400128
 11
2847.400128
 20
134.5
 21
1954.5
  0
LINE
  8
COSTRUZIONI
 10
3332.400128
 11
3332.400128
 20
1115.939716
 21
2004.5
  0
LINE
  8
COSTRUZIONI
 10
3332.400128
 11
2797.400128
 20
2004.5
 21
2004.5
  0
LINE
  8
COSTRUZIONI
 10
2797.400128
 11
2797.400128
 20
2004.5
 21
84.5
  0
LINE
  8
COSTRUZIONI
 10
2797.400128
 11
3332.400128
 20
84.5
 21
84.5
  0
LINE
  8
COSTRUZIONI
 10
3332.400128
 11
3332.400128
 20
84.5
 21
873.422766
  0
LINE
  8
COSTRUZIONI
 10
3332.400128
 11
3264.684734
 20
873.422766
 21
912.175273
  0
LINE
  8
COSTRUZIONI
 10
3264.684734
 11
3332.400128
 20
912.175273
 21
1115.939716
  0
CIRCLE
  8
COSTRUZIONI
 10
3064.900128
 20
469.25
 40
15.0
  0
LINE
  8
COSTRUZIONI
 10
3072.400128
 11
3057.400128
 20
469.25
 21
469.25
  0
CIRCLE
  8
COSTRUZIONI
 10
3064.900128
 20
1044.5
 40
15.0
  0
LINE
  8
COSTRUZIONI
 10
3072.400128
 11
3057.400128
 20
1044.5
 21
1044.5
  0
CIRCLE
  8
COSTRUZIONI
 10
3064.900128
 20
1619.75
 40
15.0
  0
LINE
  8
COSTRUZIONI
 10
2847.400128
 11
3282.400128
 20
1954.5
 21
134.5
  0
LINE
  8
COSTRUZIONI
 10
2847.400128
 11
3282.400128
 20
134.5
 21
1954.5
  0
LINE
  8
COSTRUZIONI
 10
4580.456591
 11
3916.456591
 20
2084.5
 21
2084.5
  0
LINE
  8
COSTRUZIONI
 10
3916.456591
 11
3916.456591
 20
2084.5
 21
4.5
  0
LINE
  8
COSTRUZIONI
 10
3916.456591
 11
4580.456591
 20
4.5
 21
4.5
  0
LINE
  8
COSTRUZIONI
 10
4580.456591
 11
4580.456591
 20
4.5
 21
2084.5
  0
LINE
  8
COSTRUZIONI
 10
4465.956591
 11
4030.956591
 20
1954.5
 21
1954.5
  0
LINE
  8
COSTRUZIONI
 10
4030.956591
 11
4030.956591
 20
1954.5
 21
1124.030238
  0
LINE
  8
COSTRUZIONI
 10
4030.956591
 11
4109.026853
 20
1124.030238
 21
889.106648
  0
LINE
  8
COSTRUZIONI
 10
4109.026853
 11
4030.956591
 20
889.106648
 21
844.428204
  0
LINE
  8
COSTRUZIONI
 10
4030.956591
 11
4030.956591
 20
844.428204
 21
134.5
  0
LINE
  8
COSTRUZIONI
 10
4030.956591
 11
4465.956591
 20
134.5
 21
134.5
  0
LINE
  8
COSTRUZIONI
 10
4465.956591
 11
4465.956591
 20
134.5
 21
1954.5
  0
LINE
  8
COSTRUZIONI
 10
3980.956591
 11
3980.956591
 20
1115.939716
 21
2004.5
  0
LINE
  8
COSTRUZIONI
 10
3980.956591
 11
4515.956591
 20
2004.5
 21
2004.5
  0
LINE
  8
COSTRUZIONI
 10
4515.956591
 11
4515.956591
 20
2004.5
 21
84.5
  0
LINE
  8
COSTRUZIONI
 10
4515.956591
 11
3980.956591
 20
84.5
 21
84.5
  0
LINE
  8
COSTRUZIONI
 10
3980.956591
 11
3980.956591
 20
84.5
 21
873.422766
  0
LINE
  8
COSTRUZIONI
 10
3980.956591
 11
4048.671985
 20
873.422766
 21
912.175273
  0
LINE
  8
COSTRUZIONI
 10
4048.671985
 11
3980.956591
 20
912.175273
 21
1115.939716
  0
CIRCLE
  8
COSTRUZIONI
 10
4248.456591
 20
469.25
 40
15.0
  0
LINE
  8
COSTRUZIONI
 10
4240.956591
 11
4255.956591
 20
469.25
 21
469.25
  0
CIRCLE
  8
COSTRUZIONI
 10
4248.456591
 20
1044.5
 40
15.0
  0
LINE
  8
COSTRUZIONI
 10
4240.956591
 11
4255.956591
 20
1044.5
 21
1044.5
  0
CIRCLE
  8
COSTRUZIONI
 10
4248.456591
 20
1619.75
 40
15.0
  0
LINE
  8
COSTRUZIONI
 10
4465.956591
 11
4030.956591
 20
1954.5
 21
134.5
  0
LINE
  8
COSTRUZIONI
 10
4465.956591
 11
4030.956591
 20
134.5
 21
1954.5
  0
ENDSEC
  0
EOF
