  0
SECTION
  2
ENTITIES
  0
LINE
  8
COSTRUZIONI
 10
3396.900128
 11
3396.900128
 20
1983.5
 21
4.5
  0
LINE
  8
COSTRUZIONI
 10
3396.900128
 11
2630.900128
 20
4.5
 21
4.5
  0
LINE
  8
COSTRUZIONI
 10
2630.900128
 11
2630.900128
 20
4.5
 21
1983.5
  0
LINE
  8
COSTRUZIONI
 10
2630.900128
 11
3396.900128
 20
1983.5
 21
1983.5
  0
LINE
  8
COSTRUZIONI
 10
3282.400128
 11
2745.400128
 20
134.5
 21
134.5
  0
LINE
  8
COSTRUZIONI
 10
2745.400128
 11
2745.400128
 20
134.5
 21
1853.5
  0
LINE
  8
COSTRUZIONI
 10
2745.400128
 11
3282.400128
 20
1853.5
 21
1853.5
  0
LINE
  8
COSTRUZIONI
 10
3282.400128
 11
3282.400128
 20
134.5
 21
844.428204
  0
LINE
  8
COSTRUZIONI
 10
3282.400128
 11
3204.329866
 20
844.428204
 21
889.106648
  0
LINE
  8
COSTRUZIONI
 10
3204.329866
 11
3282.400128
 20
889.106648
 21
1124.030238
  0
LINE
  8
COSTRUZIONI
 10
3282.400128
 11
3282.400128
 20
1124.030238
 21
1853.5
  0
LINE
  8
COSTRUZIONI
 10
3332.400128
 11
2695.400128
 20
84.5
 21
84.5
  0
LINE
  8
COSTRUZIONI
 10
2695.400128
 11
2695.400128
 20
84.5
 21
1903.5
  0
LINE
  8
COSTRUZIONI
 10
2695.400128
 11
3332.400128
 20
1903.5
 21
1903.5
  0
LINE
  8
COSTRUZIONI
 10
3332.400128
 11
3332.400128
 20
1903.5
 21
1115.939716
  0
LINE
  8
COSTRUZIONI
 10
3332.400128
 11
3264.684734
 20
1115.939716
 21
912.175273
  0
LINE
  8
COSTRUZIONI
 10
3264.684734
 11
3332.400128
 20
912.175273
 21
873.422766
  0
LINE
  8
COSTRUZIONI
 10
3332.400128
 11
3332.400128
 20
873.422766
 21
84.5
  0
CIRCLE
  8
COSTRUZIONI
 10
3013.900128
 20
418.75
 40
15.0
  0
CIRCLE
  8
COSTRUZIONI
 10
3013.900128
 20
994.0
 40
15.0
  0
CIRCLE
  8
COSTRUZIONI
 10
3013.900128
 20
1569.25
 40
15.0
  0
LINE
  8
COSTRUZIONI
 10
2745.400128
 11
3282.400128
 20
1853.5
 21
134.5
  0
LINE
  8
COSTRUZIONI
 10
2745.400128
 11
3282.400128
 20
134.5
 21
1853.5
  0
LINE
  8
COSTRUZIONI
 10
3662.566635
 11
3662.566635
 20
1983.5
 21
4.5
  0
LINE
  8
COSTRUZIONI
 10
3662.566635
 11
4428.566635
 20
4.5
 21
4.5
  0
LINE
  8
COSTRUZIONI
 10
4428.566635
 11
4428.566635
 20
4.5
 21
1983.5
  0
LINE
  8
COSTRUZIONI
 10
4428.566635
 11
3662.566635
 20
1983.5
 21
1983.5
  0
LINE
  8
COSTRUZIONI
 10
3777.066635
 11
4314.066635
 20
134.5
 21
134.5
  0
LINE
  8
COSTRUZIONI
 10
4314.066635
 11
4314.066635
 20
134.5
 21
1853.5
  0
LINE
  8
COSTRUZIONI
 10
4314.066635
 11
3777.066635
 20
1853.5
 21
1853.5
  0
LINE
  8
COSTRUZIONI
 10
3777.066635
 11
3777.066635
 20
134.5
 21
844.428204
  0
LINE
  8
COSTRUZIONI
 10
3777.066635
 11
3855.136897
 20
844.428204
 21
889.106648
  0
LINE
  8
COSTRUZIONI
 10
3855.136897
 11
3777.066635
 20
889.106648
 21
1124.030238
  0
LINE
  8
COSTRUZIONI
 10
3777.066635
 11
3777.066635
 20
1124.030238
 21
1853.5
  0
LINE
  8
COSTRUZIONI
 10
3727.066635
 11
4364.066635
 20
84.5
 21
84.5
  0
LINE
  8
COSTRUZIONI
 10
4364.066635
 11
4364.066635
 20
84.5
 21
1903.5
  0
LINE
  8
COSTRUZIONI
 10
4364.066635
 11
3727.066635
 20
1903.5
 21
1903.5
  0
LINE
  8
COSTRUZIONI
 10
3727.066635
 11
3727.066635
 20
1903.5
 21
1115.939716
  0
LINE
  8
COSTRUZIONI
 10
3727.066635
 11
3794.782029
 20
1115.939716
 21
912.175273
  0
LINE
  8
COSTRUZIONI
 10
3794.782029
 11
3727.066635
 20
912.175273
 21
873.422766
  0
LINE
  8
COSTRUZIONI
 10
3727.066635
 11
3727.066635
 20
873.422766
 21
84.5
  0
CIRCLE
  8
COSTRUZIONI
 10
4045.566635
 20
418.75
 40
15.0
  0
CIRCLE
  8
COSTRUZIONI
 10
4045.566635
 20
994.0
 40
15.0
  0
CIRCLE
  8
COSTRUZIONI
 10
4045.566635
 20
1569.25
 40
15.0
  0
LINE
  8
COSTRUZIONI
 10
4314.066635
 11
3777.066635
 20
1853.5
 21
134.5
  0
LINE
  8
COSTRUZIONI
 10
4314.066635
 11
3777.066635
 20
134.5
 21
1853.5
  0
ENDSEC
  0
EOF
