  0
SECTION
  2
ENTITIES
  0
LINE
  8
COSTRUZIONI
 10
3508.112426
 11
3508.112426
 20
2114.5
 21
4.5
  0
LINE
  8
COSTRUZIONI
 10
3508.112426
 11
2605.112426
 20
4.5
 21
4.5
  0
LINE
  8
COSTRUZIONI
 10
2605.112426
 11
2605.112426
 20
4.5
 21
2114.5
  0
LINE
  8
COSTRUZIONI
 10
2605.112426
 11
3508.112426
 20
2114.5
 21
2114.5
  0
LINE
  8
COSTRUZIONI
 10
2719.612426
 11
2719.612426
 20
1984.5
 21
134.5
  0
LINE
  8
COSTRUZIONI
 10
2719.612426
 11
3393.612426
 20
134.5
 21
134.5
  0
LINE
  8
COSTRUZIONI
 10
3393.612426
 11
3393.612426
 20
134.5
 21
844.428204
  0
LINE
  8
COSTRUZIONI
 10
3393.612426
 11
3315.542164
 20
844.428204
 21
889.106648
  0
LINE
  8
COSTRUZIONI
 10
3315.542164
 11
3393.612426
 20
889.106648
 21
1124.030238
  0
LINE
  8
COSTRUZIONI
 10
3393.612426
 11
3393.612426
 20
1124.030238
 21
1984.5
  0
LINE
  8
COSTRUZIONI
 10
3393.612426
 11
2719.612426
 20
1984.5
 21
1984.5
  0
LINE
  8
COSTRUZIONI
 10
2669.612426
 11
2669.612426
 20
2034.5
 21
84.5
  0
LINE
  8
COSTRUZIONI
 10
2669.612426
 11
3443.612426
 20
84.5
 21
84.5
  0
LINE
  8
COSTRUZIONI
 10
3443.612426
 11
3443.612426
 20
84.5
 21
873.422766
  0
LINE
  8
COSTRUZIONI
 10
3443.612426
 11
3375.897032
 20
873.422766
 21
912.175273
  0
LINE
  8
COSTRUZIONI
 10
3375.897032
 11
3443.612426
 20
912.175273
 21
1115.939716
  0
LINE
  8
COSTRUZIONI
 10
3443.612426
 11
3443.612426
 20
1115.939716
 21
2034.5
  0
LINE
  8
COSTRUZIONI
 10
3443.612426
 11
2669.612426
 20
2034.5
 21
2034.5
  0
CIRCLE
  8
COSTRUZIONI
 10
3056.612426
 20
484.25
 40
15.0
  0
LINE
  8
COSTRUZIONI
 10
3064.112426
 11
3049.112426
 20
484.25
 21
484.25
  0
CIRCLE
  8
COSTRUZIONI
 10
3056.612426
 20
1059.5
 40
15.0
  0
LINE
  8
COSTRUZIONI
 10
3064.112426
 11
3049.112426
 20
1059.5
 21
1059.5
  0
CIRCLE
  8
COSTRUZIONI
 10
3056.612426
 20
1634.75
 40
15.0
  0
LINE
  8
COSTRUZIONI
 10
2719.612426
 11
3393.612426
 20
1984.5
 21
134.5
  0
LINE
  8
COSTRUZIONI
 10
2719.612426
 11
3393.612426
 20
134.5
 21
1984.5
  0
LINE
  8
COSTRUZIONI
 10
3743.59356
 11
3743.59356
 20
2114.5
 21
4.5
  0
LINE
  8
COSTRUZIONI
 10
3743.59356
 11
4646.59356
 20
4.5
 21
4.5
  0
LINE
  8
COSTRUZIONI
 10
4646.59356
 11
4646.59356
 20
4.5
 21
2114.5
  0
LINE
  8
COSTRUZIONI
 10
4646.59356
 11
3743.59356
 20
2114.5
 21
2114.5
  0
LINE
  8
COSTRUZIONI
 10
4532.09356
 11
4532.09356
 20
1984.5
 21
134.5
  0
LINE
  8
COSTRUZIONI
 10
4532.09356
 11
3858.09356
 20
134.5
 21
134.5
  0
LINE
  8
COSTRUZIONI
 10
3858.09356
 11
3858.09356
 20
134.5
 21
844.428204
  0
LINE
  8
COSTRUZIONI
 10
3858.09356
 11
3936.163822
 20
844.428204
 21
889.106648
  0
LINE
  8
COSTRUZIONI
 10
3936.163822
 11
3858.09356
 20
889.106648
 21
1124.030238
  0
LINE
  8
COSTRUZIONI
 10
3858.09356
 11
3858.09356
 20
1124.030238
 21
1984.5
  0
LINE
  8
COSTRUZIONI
 10
3858.09356
 11
4532.09356
 20
1984.5
 21
1984.5
  0
LINE
  8
COSTRUZIONI
 10
4582.09356
 11
4582.09356
 20
2034.5
 21
84.5
  0
LINE
  8
COSTRUZIONI
 10
4582.09356
 11
3808.09356
 20
84.5
 21
84.5
  0
LINE
  8
COSTRUZIONI
 10
3808.09356
 11
3808.09356
 20
84.5
 21
873.422766
  0
LINE
  8
COSTRUZIONI
 10
3808.09356
 11
3875.808954
 20
873.422766
 21
912.175273
  0
LINE
  8
COSTRUZIONI
 10
3875.808954
 11
3808.09356
 20
912.175273
 21
1115.939716
  0
LINE
  8
COSTRUZIONI
 10
3808.09356
 11
3808.09356
 20
1115.939716
 21
2034.5
  0
LINE
  8
COSTRUZIONI
 10
3808.09356
 11
4582.09356
 20
2034.5
 21
2034.5
  0
CIRCLE
  8
COSTRUZIONI
 10
4195.09356
 20
484.25
 40
15.0
  0
LINE
  8
COSTRUZIONI
 10
4187.59356
 11
4202.59356
 20
484.25
 21
484.25
  0
CIRCLE
  8
COSTRUZIONI
 10
4195.09356
 20
1059.5
 40
15.0
  0
LINE
  8
COSTRUZIONI
 10
4187.59356
 11
4202.59356
 20
1059.5
 21
1059.5
  0
CIRCLE
  8
COSTRUZIONI
 10
4195.09356
 20
1634.75
 40
15.0
  0
LINE
  8
COSTRUZIONI
 10
4532.09356
 11
3858.09356
 20
1984.5
 21
134.5
  0
LINE
  8
COSTRUZIONI
 10
4532.09356
 11
3858.09356
 20
134.5
 21
1984.5
  0
ENDSEC
  0
EOF
