  0
SECTION
  2
ENTITIES
  0
LINE
  8
COSTRUZIONI
 10
2531.88
 11
4531.88
 20
-814.866
 21
-814.866
  0
LINE
  8
COSTRUZIONI
 10
4531.88
 11
4531.88
 20
-814.866
 21
-614.866
  0
LINE
  8
COSTRUZIONI
 10
4531.88
 11
2531.88
 20
-614.866
 21
-614.866
  0
LINE
  8
COSTRUZIONI
 10
2531.88
 11
2531.88
 20
-614.866
 21
-814.866
  0
LINE
  8
COSTRUZIONI
 10
3531.88
 11
3531.88
 20
-814.866
 21
-614.866
  0
LINE
  8
COSTRUZIONI
 10
3531.88
 11
4531.88
 20
-714.866
 21
-714.866
  0
LINE
  8
COSTRUZIONI
 10
4031.88
 11
4031.88
 20
-814.866
 21
-614.866
  0
LINE
  8
APS_GEOMETRY
 10
2594.566
 11
2611.8
 20
-668.851
 21
-668.851
  0
ARC
  8
APS_GEOMETRY
 10
2610.929
 20
-644.156
 40
24.711
 50
272.021
 51
278.44
  0
ARC
  8
APS_GEOMETRY
 10
2611.901
 20
-650.711
 40
18.083
 50
278.44
 51
285.945
  0
ARC
  8
APS_GEOMETRY
 10
2619.219
 20
-676.909
 40
9.118
 50
98.584
 51
104.931
  0
ARC
  8
APS_GEOMETRY
 10
2618.603
 20
-672.828
 40
4.991
 50
90.0
 51
98.584
  0
ARC
  8
APS_GEOMETRY
 10
2618.603
 20
-671.589
 40
3.752
 50
52.871
 51
90.0
  0
ARC
  8
APS_GEOMETRY
 10
2613.514
 20
-678.31
 40
12.182
 50
32.518
 51
52.871
  0
ARC
  8
APS_GEOMETRY
 10
2609.483
 20
-680.88
 40
16.963
 50
17.209
 51
32.518
  0
ARC
  8
APS_GEOMETRY
 10
2612.843
 20
-679.84
 40
13.445
 50
360.0
 51
17.209
  0
ARC
  8
APS_GEOMETRY
 10
2619.57
 20
-679.84
 40
6.717
 50
337.348
 51
360.0
  0
ARC
  8
APS_GEOMETRY
 10
2622.27
 20
-680.966
 40
3.792
 50
307.042
 51
337.348
  0
ARC
  8
APS_GEOMETRY
 10
2621.801
 20
-680.322
 40
4.589
 50
287.186
 51
306.87
  0
ARC
  8
APS_GEOMETRY
 10
2621.382
 20
-678.968
 40
6.006
 50
270.0
 51
287.186
  0
ARC
  8
APS_GEOMETRY
 10
2621.382
 20
-679.581
 40
5.393
 50
252.221
 51
270.0
  0
ARC
  8
APS_GEOMETRY
 10
2621.131
 20
-680.364
 40
4.571
 50
232.896
 51
252.221
  0
ARC
  8
APS_GEOMETRY
 10
2622.102
 20
-679.081
 40
6.18
 50
218.3
 51
232.896
  0
ARC
  8
APS_GEOMETRY
 10
2629.682
 20
-673.094
 40
15.839
 50
209.197
 51
218.3
  0
ARC
  8
APS_GEOMETRY
 10
2591.128
 20
-693.982
 40
28.012
 50
28.025
 51
32.699
  0
ARC
  8
APS_GEOMETRY
 10
2611.284
 20
-681.042
 40
4.06
 50
32.699
 51
45.0
  0
ARC
  8
APS_GEOMETRY
 10
2612.659
 20
-679.668
 40
2.116
 50
45.0
 51
67.557
  0
ARC
  8
APS_GEOMETRY
 10
2612.651
 20
-679.688
 40
2.137
 50
67.557
 51
90.0
  0
ARC
  8
APS_GEOMETRY
 10
2612.651
 20
-679.519
 40
1.969
 50
90.0
 51
120.801
  0
ARC
  8
APS_GEOMETRY
 10
2612.584
 20
-679.408
 40
1.839
 50
120.801
 51
152.7
  0
ARC
  8
APS_GEOMETRY
 10
2614.043
 20
-680.161
 40
3.481
 50
152.7
 51
171.085
  0
ARC
  8
APS_GEOMETRY
 10
2625.132
 20
-681.9
 40
14.705
 50
171.085
 51
180.0
  0
LINE
  8
APS_GEOMETRY
 10
2610.427
 11
2610.427
 20
-681.9
 21
-700.214
  0
ARC
  8
APS_GEOMETRY
 10
2629.854
 20
-700.214
 40
19.427
 50
180.0
 51
188.194
  0
ARC
  8
APS_GEOMETRY
 10
2615.346
 20
-702.303
 40
4.77
 50
188.194
 51
204.775
  0
ARC
  8
APS_GEOMETRY
 10
2613.937
 20
-702.954
 40
3.218
 50
204.775
 51
228.576
  0
ARC
  8
APS_GEOMETRY
 10
2615.259
 20
-701.455
 40
5.216
 50
228.576
 51
247.218
  0
ARC
  8
APS_GEOMETRY
 10
2607.59
 20
-719.527
 40
14.416
 50
59.381
 51
66.93
  0
ARC
  8
APS_GEOMETRY
 10
2613.251
 20
-709.962
 40
3.301
 50
43.568
 51
59.381
  0
ARC
  8
APS_GEOMETRY
 10
2614.157
 20
-709.1
 40
2.051
 50
19.041
 51
43.568
  0
ARC
  8
APS_GEOMETRY
 10
2612.899
 20
-709.534
 40
3.382
 50
360.0
 51
19.041
  0
ARC
  8
APS_GEOMETRY
 10
2613.533
 20
-709.534
 40
2.747
 50
317.66
 51
360.0
  0
ARC
  8
APS_GEOMETRY
 10
2611.011
 20
-707.236
 40
6.16
 50
289.747
 51
317.66
  0
ARC
  8
APS_GEOMETRY
 10
2608.898
 20
-701.351
 40
12.412
 50
281.964
 51
289.747
  0
ARC
  8
APS_GEOMETRY
 10
2605.972
 20
-687.539
 40
26.531
 50
276.643
 51
281.964
  0
ARC
  8
APS_GEOMETRY
 10
2604.74
 20
-676.964
 40
37.178
 50
272.836
 51
276.643
  0
ARC
  8
APS_GEOMETRY
 10
2603.265
 20
-647.188
 40
66.99
 50
270.0
 51
272.836
  0
ARC
  8
APS_GEOMETRY
 10
2603.265
 20
-628.738
 40
85.44
 50
267.283
 51
270.0
  0
ARC
  8
APS_GEOMETRY
 10
2601.471
 20
-666.541
 40
47.595
 50
263.643
 51
267.283
  0
ARC
  8
APS_GEOMETRY
 10
2599.968
 20
-680.025
 40
34.027
 50
258.563
 51
263.643
  0
ARC
  8
APS_GEOMETRY
 10
2596.38
 20
-697.764
 40
15.929
 50
251.136
 51
258.563
  0
ARC
  8
APS_GEOMETRY
 10
2593.176
 20
-707.057
 40
6.099
 50
222.558
 51
251.395
  0
ARC
  8
APS_GEOMETRY
 10
2590.798
 20
-709.24
 40
2.871
 50
180.0
 51
222.558
  0
ARC
  8
APS_GEOMETRY
 10
2590.318
 20
-709.24
 40
2.392
 50
150.642
 51
180.0
  0
ARC
  8
APS_GEOMETRY
 10
2590.51
 20
-709.348
 40
2.612
 50
122.574
 51
150.642
  0
ARC
  8
APS_GEOMETRY
 10
2590.003
 20
-708.766
 40
1.851
 50
108.677
 51
119.055
  0
ARC
  8
APS_GEOMETRY
 10
2613.119
 20
-777.149
 40
74.036
 50
107.038
 51
108.677
  0
ARC
  8
APS_GEOMETRY
 10
2590.564
 20
-703.386
 40
3.099
 50
286.144
 51
308.66
  0
ARC
  8
APS_GEOMETRY
 10
2591.072
 20
-704.02
 40
2.287
 50
308.66
 51
334.933
  0
ARC
  8
APS_GEOMETRY
 10
2589.007
 20
-703.054
 40
4.566
 50
334.933
 51
348.829
  0
ARC
  8
APS_GEOMETRY
 10
2563.181
 20
-697.954
 40
30.891
 50
348.829
 51
354.161
  0
ARC
  8
APS_GEOMETRY
 10
2545.725
 20
-696.155
 40
48.439
 50
354.144
 51
355.66
  0
ARC
  8
APS_GEOMETRY
 10
2468.349
 20
-690.283
 40
126.038
 50
355.66
 51
356.6
  0
ARC
  8
APS_GEOMETRY
 10
2409.2
 20
-686.769
 40
185.291
 50
356.6
 51
357.24
  0
ARC
  8
APS_GEOMETRY
 10
2241.375
 20
-678.678
 40
353.311
 50
357.24
 51
357.703
  0
ARC
  8
APS_GEOMETRY
 10
2257.895
 20
-679.34
 40
336.777
 50
357.703
 51
358.674
  0
ARC
  8
APS_GEOMETRY
 10
2413.727
 20
-682.946
 40
180.903
 50
358.674
 51
0.0
  0
ARC
  8
APS_GEOMETRY
 10
2567.821
 20
-682.946
 40
26.81
 50
0.0
 51
6.242
  0
ARC
  8
APS_GEOMETRY
 10
2589.14
 20
-680.615
 40
5.364
 50
6.242
 51
20.225
  0
ARC
  8
APS_GEOMETRY
 10
2592.095
 20
-679.526
 40
2.215
 50
20.225
 51
50.44
  0
ARC
  8
APS_GEOMETRY
 10
2592.669
 20
-678.831
 40
1.314
 50
50.44
 51
90.0
  0
ARC
  8
APS_GEOMETRY
 10
2592.669
 20
-679.28
 40
1.762
 50
90.0
 51
126.747
  0
ARC
  8
APS_GEOMETRY
 10
2595.159
 20
-682.615
 40
5.924
 50
126.747
 51
146.547
  0
ARC
  8
APS_GEOMETRY
 10
2551.171
 20
-653.702
 40
46.715
 50
324.255
 51
326.701
  0
ARC
  8
APS_GEOMETRY
 10
2569.794
 20
-667.106
 40
23.77
 50
320.826
 51
324.255
  0
ARC
  8
APS_GEOMETRY
 10
2575.881
 20
-672.065
 40
15.918
 50
315.722
 51
320.826
  0
ARC
  8
APS_GEOMETRY
 10
2582.875
 20
-678.886
 40
6.149
 50
307.504
 51
315.722
  0
ARC
  8
APS_GEOMETRY
 10
2582.229
 20
-678.024
 40
7.226
 50
291.306
 51
307.405
  0
ARC
  8
APS_GEOMETRY
 10
2583.348
 20
-680.893
 40
4.146
 50
270.0
 51
291.306
  0
ARC
  8
APS_GEOMETRY
 10
2583.348
 20
-681.161
 40
3.879
 50
245.532
 51
270.0
  0
ARC
  8
APS_GEOMETRY
 10
2583.319
 20
-681.225
 40
3.808
 50
220.833
 51
245.532
  0
ARC
  8
APS_GEOMETRY
 10
2583.712
 20
-680.885
 40
4.328
 50
198.684
 51
220.833
  0
ARC
  8
APS_GEOMETRY
 10
2585.353
 20
-680.33
 40
6.06
 50
180.0
 51
198.684
  0
ARC
  8
APS_GEOMETRY
 10
2589.201
 20
-680.33
 40
9.908
 50
168.408
 51
180.0
  0
ARC
  8
APS_GEOMETRY
 10
2595.553
 20
-681.633
 40
16.393
 50
159.402
 51
168.408
  0
ARC
  8
APS_GEOMETRY
 10
2597.517
 20
-682.371
 40
18.49
 50
151.39
 51
159.402
  0
ARC
  8
APS_GEOMETRY
 10
2597.114
 20
-682.152
 40
18.032
 50
143.276
 51
151.39
  0
ARC
  8
APS_GEOMETRY
 10
2592.065
 20
-678.376
 40
11.726
 50
124.216
 51
143.31
  0
ARC
  8
APS_GEOMETRY
 10
2587.567
 20
-671.762
 40
3.728
 50
90.0
 51
124.216
  0
ARC
  8
APS_GEOMETRY
 10
2587.567
 20
-673.418
 40
5.384
 50
82.725
 51
90.0
  0
ARC
  8
APS_GEOMETRY
 10
2587.146
 20
-676.714
 40
8.707
 50
77.005
 51
82.725
  0
ARC
  8
APS_GEOMETRY
 10
2599.995
 20
-614.767
 40
54.561
 50
258.486
 51
260.378
  0
ARC
  8
APS_GEOMETRY
 10
2594.491
 20
-647.232
 40
21.633
 50
260.378
 51
263.382
  0
ARC
  8
APS_GEOMETRY
 10
2594.02
 20
-651.289
 40
17.548
 50
263.382
 51
267.084
  0
ARC
  8
APS_GEOMETRY
 10
2594.566
 20
-640.578
 40
28.273
 50
267.084
 51
270.0
  0
ARC
  8
APS_GEOMETRY
 10
2654.293
 20
-693.717
 40
25.782
 50
71.91
 51
90.0
  0
ARC
  8
APS_GEOMETRY
 10
2655.291
 20
-690.66
 40
22.566
 50
52.561
 51
71.91
  0
ARC
  8
APS_GEOMETRY
 10
2655.03
 20
-690.737
 40
22.786
 50
38.846
 51
52.156
  0
ARC
  8
APS_GEOMETRY
 10
2651.457
 20
-693.613
 40
27.372
 50
26.707
 51
38.846
  0
ARC
  8
APS_GEOMETRY
 10
2652.165
 20
-693.035
 40
26.482
 50
13.868
 51
26.278
  0
ARC
  8
APS_GEOMETRY
 10
2657.264
 20
-691.776
 40
21.229
 50
360.0
 51
13.868
  0
ARC
  8
APS_GEOMETRY
 10
2657.594
 20
-691.776
 40
20.899
 50
339.712
 51
360.0
  0
ARC
  8
APS_GEOMETRY
 10
2656.418
 20
-691.342
 40
22.153
 50
320.013
 51
339.712
  0
ARC
  8
APS_GEOMETRY
 10
2656.223
 20
-691.234
 40
22.372
 50
303.344
 51
320.123
  0
ARC
  8
APS_GEOMETRY
 10
2653.927
 20
-687.745
 40
26.548
 50
287.949
 51
303.344
  0
ARC
  8
APS_GEOMETRY
 10
2653.173
 20
-685.13
 40
29.269
 50
279.039
 51
287.776
  0
ARC
  8
APS_GEOMETRY
 10
2653.475
 20
-687.029
 40
27.346
 50
270.0
 51
279.039
  0
ARC
  8
APS_GEOMETRY
 10
2653.475
 20
-688.364
 40
26.011
 50
257.728
 51
270.0
  0
ARC
  8
APS_GEOMETRY
 10
2653.516
 20
-688.176
 40
26.203
 50
245.501
 51
257.728
  0
ARC
  8
APS_GEOMETRY
 10
2652.043
 20
-691.398
 40
22.66
 50
228.665
 51
245.511
  0
ARC
  8
APS_GEOMETRY
 10
2651.553
 20
-691.955
 40
21.918
 50
211.535
 51
228.665
  0
ARC
  8
APS_GEOMETRY
 10
2652.195
 20
-691.484
 40
22.712
 50
195.642
 51
211.701
  0
ARC
  8
APS_GEOMETRY
 10
2653.369
 20
-691.155
 40
23.931
 50
180.0
 51
195.642
  0
ARC
  8
APS_GEOMETRY
 10
2653.621
 20
-691.155
 40
24.183
 50
162.181
 51
180.0
  0
ARC
  8
APS_GEOMETRY
 10
2651.414
 20
-690.446
 40
21.865
 50
143.434
 51
162.181
  0
ARC
  8
APS_GEOMETRY
 10
2651.117
 20
-690.208
 40
21.485
 50
126.384
 51
143.471
  0
ARC
  8
APS_GEOMETRY
 10
2653.151
 20
-692.969
 40
24.914
 50
110.525
 51
126.384
  0
ARC
  8
APS_GEOMETRY
 10
2653.051
 20
-692.219
 40
24.177
 50
99.77
 51
110.925
  0
ARC
  8
APS_GEOMETRY
 10
2654.293
 20
-699.431
 40
31.496
 50
90.0
 51
99.77
  0
ARC
  8
APS_GEOMETRY
 10
2651.186
 20
-682.129
 40
4.807
 50
90.0
 51
119.604
  0
ARC
  8
APS_GEOMETRY
 10
2651.607
 20
-682.87
 40
5.659
 50
119.604
 51
146.842
  0
ARC
  8
APS_GEOMETRY
 10
2652.453
 20
-683.563
 40
6.748
 50
145.84
 51
164.055
  0
ARC
  8
APS_GEOMETRY
 10
2654.414
 20
-684.124
 40
8.788
 50
164.055
 51
180.0
  0
ARC
  8
APS_GEOMETRY
 10
2666.679
 20
-684.124
 40
21.053
 50
180.0
 51
189.977
  0
ARC
  8
APS_GEOMETRY
 10
2685.33
 20
-680.843
 40
39.991
 50
189.977
 51
197.211
  0
ARC
  8
APS_GEOMETRY
 10
2689.41
 20
-679.579
 40
44.261
 50
197.211
 51
203.76
  0
ARC
  8
APS_GEOMETRY
 10
2679.247
 20
-684.053
 40
33.157
 50
203.76
 51
211.329
  0
ARC
  8
APS_GEOMETRY
 10
2658.379
 20
-696.577
 40
8.821
 50
212.32
 51
224.441
  0
ARC
  8
APS_GEOMETRY
 10
2657.524
 20
-697.416
 40
7.623
 50
224.441
 51
237.484
  0
ARC
  8
APS_GEOMETRY
 10
2656.971
 20
-698.283
 40
6.595
 50
237.484
 51
252.416
  0
ARC
  8
APS_GEOMETRY
 10
2656.418
 20
-700.026
 40
4.766
 50
252.416
 51
270.0
  0
ARC
  8
APS_GEOMETRY
 10
2656.418
 20
-699.461
 40
5.331
 50
270.0
 51
294.953
  0
ARC
  8
APS_GEOMETRY
 10
2656.568
 20
-699.782
 40
4.977
 50
294.953
 51
320.793
  0
ARC
  8
APS_GEOMETRY
 10
2655.767
 20
-699.129
 40
6.011
 50
320.793
 51
342.777
  0
ARC
  8
APS_GEOMETRY
 10
2652.199
 20
-698.023
 40
9.746
 50
342.777
 51
0.0
  0
ARC
  8
APS_GEOMETRY
 10
2635.438
 20
-698.023
 40
26.507
 50
0.0
 51
8.499
  0
ARC
  8
APS_GEOMETRY
 10
2623.771
 20
-699.766
 40
38.304
 50
8.499
 51
15.566
  0
ARC
  8
APS_GEOMETRY
 10
2625.174
 20
-699.375
 40
36.848
 50
15.566
 51
22.909
  0
ARC
  8
APS_GEOMETRY
 10
2637.237
 20
-694.277
 40
23.751
 50
22.909
 51
32.057
  0
ARC
  8
APS_GEOMETRY
 10
2646.713
 20
-688.308
 40
12.552
 50
31.921
 51
42.51
  0
ARC
  8
APS_GEOMETRY
 10
2649.315
 20
-685.923
 40
9.022
 50
42.51
 51
55.008
  0
ARC
  8
APS_GEOMETRY
 10
2650.194
 20
-684.667
 40
7.489
 50
55.008
 51
69.88
  0
ARC
  8
APS_GEOMETRY
 10
2650.982
 20
-682.516
 40
5.198
 50
69.88
 51
87.754
  0
ARC
  8
APS_GEOMETRY
 10
2702.713
 20
-683.919
 40
15.983
 50
83.923
 51
90.0
  0
ARC
  8
APS_GEOMETRY
 10
2701.428
 20
-695.994
 40
28.127
 50
79.342
 51
83.923
  0
ARC
  8
APS_GEOMETRY
 10
2699.877
 20
-704.234
 40
36.512
 50
75.808
 51
79.342
  0
ARC
  8
APS_GEOMETRY
 10
2694.466
 20
-725.629
 40
58.58
 50
73.018
 51
75.808
  0
ARC
  8
APS_GEOMETRY
 10
2713.518
 20
-663.136
 40
6.752
 50
253.288
 51
259.046
  0
ARC
  8
APS_GEOMETRY
 10
2712.59
 20
-667.93
 40
1.87
 50
259.046
 51
270.0
  0
ARC
  8
APS_GEOMETRY
 10
2712.59
 20
-668.69
 40
1.11
 50
270.0
 51
286.699
  0
ARC
  8
APS_GEOMETRY
 10
2703.717
 20
-639.113
 40
31.989
 50
286.699
 51
289.799
  0
ARC
  8
APS_GEOMETRY
 10
2715.606
 20
-672.022
 40
3.002
 50
100.008
 51
110.556
  0
ARC
  8
APS_GEOMETRY
 10
2715.664
 20
-672.349
 40
3.334
 50
90.0
 51
100.008
  0
ARC
  8
APS_GEOMETRY
 10
2715.664
 20
-672.194
 40
3.179
 50
53.356
 51
90.0
  0
ARC
  8
APS_GEOMETRY
 10
2710.11
 20
-679.66
 40
12.484
 50
35.101
 51
53.356
  0
ARC
  8
APS_GEOMETRY
 10
2707.339
 20
-681.608
 40
15.871
 50
20.245
 51
35.101
  0
ARC
  8
APS_GEOMETRY
 10
2714.172
 20
-679.087
 40
8.588
 50
360.0
 51
20.245
  0
ARC
  8
APS_GEOMETRY
 10
2717.611
 20
-679.087
 40
5.15
 50
340.481
 51
360.0
  0
ARC
  8
APS_GEOMETRY
 10
2718.459
 20
-679.388
 40
4.25
 50
318.972
 51
340.481
  0
ARC
  8
APS_GEOMETRY
 10
2718.837
 20
-679.717
 40
3.748
 50
295.017
 51
318.972
  0
ARC
  8
APS_GEOMETRY
 10
2718.967
 20
-679.995
 40
3.442
 50
270.0
 51
295.017
  0
ARC
  8
APS_GEOMETRY
 10
2718.967
 20
-678.152
 40
5.285
 50
256.171
 51
270.0
  0
ARC
  8
APS_GEOMETRY
 10
2718.391
 20
-680.493
 40
2.874
 50
237.381
 51
256.171
  0
ARC
  8
APS_GEOMETRY
 10
2719.411
 20
-678.898
 40
4.768
 50
231.559
 51
237.381
  0
ARC
  8
APS_GEOMETRY
 10
2734.254
 20
-660.199
 40
28.642
 50
229.185
 51
231.559
  0
ARC
  8
APS_GEOMETRY
 10
2750.161
 20
-641.78
 40
52.979
 50
227.9
 51
229.185
  0
ARC
  8
APS_GEOMETRY
 10
2805.214
 20
-580.851
 40
135.095
 50
227.095
 51
227.9
  0
ARC
  8
APS_GEOMETRY
 10
2701.852
 20
-692.013
 40
16.696
 50
46.975
 51
64.612
  0
ARC
  8
APS_GEOMETRY
 10
2705.526
 20
-684.271
 40
8.127
 50
64.612
 51
90.0
  0
ARC
  8
APS_GEOMETRY
 10
2705.526
 20
-682.0
 40
5.856
 50
90.0
 51
106.966
  0
ARC
  8
APS_GEOMETRY
 10
2704.848
 20
-679.777
 40
3.531
 50
106.966
 51
128.868
  0
ARC
  8
APS_GEOMETRY
 10
2704.455
 20
-679.289
 40
2.905
 50
128.868
 51
154.741
  0
ARC
  8
APS_GEOMETRY
 10
2704.582
 20
-679.349
 40
3.046
 50
154.741
 51
180.0
  0
ARC
  8
APS_GEOMETRY
 10
2704.397
 20
-679.349
 40
2.861
 50
180.0
 51
206.64
  0
ARC
  8
APS_GEOMETRY
 10
2705.317
 20
-678.887
 40
3.891
 50
206.64
 51
229.43
  0
ARC
  8
APS_GEOMETRY
 10
2706.793
 20
-677.164
 40
6.159
 50
229.43
 51
244.493
  0
ARC
  8
APS_GEOMETRY
 10
2710.839
 20
-668.685
 40
15.554
 50
244.493
 51
253.956
  0
ARC
  8
APS_GEOMETRY
 10
2638.768
 20
-913.614
 40
239.758
 50
72.737
 51
73.58
  0
ARC
  8
APS_GEOMETRY
 10
2680.071
 20
-780.698
 40
100.573
 50
71.435
 51
72.737
  0
ARC
  8
APS_GEOMETRY
 10
2693.752
 20
-739.964
 40
57.603
 50
69.164
 51
71.435
  0
ARC
  8
APS_GEOMETRY
 10
2709.897
 20
-697.542
 40
12.212
 50
64.231
 51
69.164
  0
ARC
  8
APS_GEOMETRY
 10
2708.04
 20
-701.281
 40
16.387
 50
34.939
 51
64.068
  0
ARC
  8
APS_GEOMETRY
 10
2712.048
 20
-698.481
 40
11.498
 50
360.0
 51
34.939
  0
ARC
  8
APS_GEOMETRY
 10
2709.584
 20
-698.481
 40
13.962
 50
333.435
 51
360.0
  0
ARC
  8
APS_GEOMETRY
 10
2708.671
 20
-698.024
 40
14.982
 50
307.807
 51
333.435
  0
ARC
  8
APS_GEOMETRY
 10
2706.296
 20
-694.952
 40
18.866
 50
296.732
 51
307.786
  0
ARC
  8
APS_GEOMETRY
 10
2704.89
 20
-692.161
 40
21.99
 50
286.496
 51
296.732
  0
ARC
  8
APS_GEOMETRY
 10
2703.965
 20
-689.036
 40
25.25
 50
277.544
 51
286.496
  0
ARC
  8
APS_GEOMETRY
 10
2702.615
 20
-678.845
 40
35.53
 50
270.0
 51
277.544
  0
ARC
  8
APS_GEOMETRY
 10
2702.615
 20
-677.304
 40
37.071
 50
263.555
 51
270.0
  0
ARC
  8
APS_GEOMETRY
 10
2703.815
 20
-666.68
 40
47.762
 50
257.878
 51
263.555
  0
ARC
  8
APS_GEOMETRY
 10
2703.178
 20
-669.646
 40
44.729
 50
254.839
 51
257.878
  0
ARC
  8
APS_GEOMETRY
 10
2698.012
 20
-688.713
 40
24.974
 50
250.772
 51
254.839
  0
ARC
  8
APS_GEOMETRY
 10
2695.688
 20
-695.376
 40
17.918
 50
245.121
 51
250.772
  0
ARC
  8
APS_GEOMETRY
 10
2691.754
 20
-703.858
 40
8.568
 50
236.944
 51
245.121
  0
ARC
  8
APS_GEOMETRY
 10
2689.435
 20
-707.508
 40
4.243
 50
211.802
 51
236.31
  0
ARC
  8
APS_GEOMETRY
 10
2700.459
 20
-700.672
 40
17.215
 50
199.704
 51
211.802
  0
ARC
  8
APS_GEOMETRY
 10
2705.724
 20
-698.787
 40
22.807
 50
190.413
 51
199.704
  0
ARC
  8
APS_GEOMETRY
 10
2701.161
 20
-699.625
 40
18.168
 50
180.0
 51
190.413
  0
ARC
  8
APS_GEOMETRY
 10
2688.862
 20
-699.625
 40
5.869
 50
164.876
 51
180.0
  0
ARC
  8
APS_GEOMETRY
 10
2685.555
 20
-698.732
 40
2.443
 50
141.34
 51
164.876
  0
ARC
  8
APS_GEOMETRY
 10
2685.875
 20
-698.946
 40
2.827
 50
116.928
 51
142.001
  0
ARC
  8
APS_GEOMETRY
 10
2685.708
 20
-698.616
 40
2.457
 50
90.0
 51
116.928
  0
ARC
  8
APS_GEOMETRY
 10
2685.708
 20
-698.622
 40
2.464
 50
62.21
 51
90.0
  0
ARC
  8
APS_GEOMETRY
 10
2684.724
 20
-700.489
 40
4.573
 50
41.906
 51
62.21
  0
ARC
  8
APS_GEOMETRY
 10
2684.891
 20
-700.524
 40
4.475
 50
37.313
 51
43.668
  0
ARC
  8
APS_GEOMETRY
 10
2659.823
 20
-719.629
 40
35.993
 50
35.074
 51
37.313
  0
ARC
  8
APS_GEOMETRY
 10
2631.356
 20
-739.617
 40
70.777
 50
33.934
 51
35.074
  0
ARC
  8
APS_GEOMETRY
 10
2529.858
 20
-807.907
 40
193.11
 50
33.243
 51
33.934
  0
ARC
  8
APS_GEOMETRY
 10
2696.978
 20
-698.337
 40
6.727
 50
213.453
 51
231.637
  0
ARC
  8
APS_GEOMETRY
 10
2700.156
 20
-694.322
 40
11.848
 50
231.637
 51
245.313
  0
ARC
  8
APS_GEOMETRY
 10
2700.856
 20
-692.799
 40
13.524
 50
245.313
 51
257.398
  0
ARC
  8
APS_GEOMETRY
 10
2700.62
 20
-693.854
 40
12.443
 50
257.398
 51
270.0
  0
ARC
  8
APS_GEOMETRY
 10
2700.62
 20
-695.791
 40
10.506
 50
270.0
 51
282.907
  0
ARC
  8
APS_GEOMETRY
 10
2701.751
 20
-700.724
 40
5.445
 50
282.907
 51
300.872
  0
ARC
  8
APS_GEOMETRY
 10
2702.731
 20
-702.364
 40
3.535
 50
300.872
 51
326.876
  0
ARC
  8
APS_GEOMETRY
 10
2703.847
 20
-703.092
 40
2.202
 50
326.876
 51
0.0
  0
ARC
  8
APS_GEOMETRY
 10
2703.518
 20
-703.092
 40
2.531
 50
0.0
 51
27.553
  0
ARC
  8
APS_GEOMETRY
 10
2702.718
 20
-703.509
 40
3.434
 50
27.553
 51
51.147
  0
ARC
  8
APS_GEOMETRY
 10
2701.063
 20
-705.563
 40
6.071
 50
51.147
 51
65.225
  0
ARC
  8
APS_GEOMETRY
 10
2694.96
 20
-718.787
 40
20.636
 50
65.225
 51
72.848
  0
ARC
  8
APS_GEOMETRY
 10
2730.601
 20
-605.148
 40
98.462
 50
251.106
 51
252.532
  0
ARC
  8
APS_GEOMETRY
 10
2717.985
 20
-642.009
 40
59.501
 50
249.271
 51
251.106
  0
ARC
  8
APS_GEOMETRY
 10
2712.74
 20
-655.869
 40
44.683
 50
246.83
 51
249.271
  0
ARC
  8
APS_GEOMETRY
 10
2704.256
 20
-675.691
 40
23.121
 50
243.435
 51
246.83
  0
ARC
  8
APS_GEOMETRY
 10
2703.29
 20
-677.623
 40
20.961
 50
235.981
 51
243.435
  0
ARC
  8
APS_GEOMETRY
 10
2704.032
 20
-676.524
 40
22.287
 50
228.752
 51
235.981
  0
ARC
  8
APS_GEOMETRY
 10
2700.558
 20
-680.618
 40
16.918
 50
206.421
 51
228.457
  0
ARC
  8
APS_GEOMETRY
 10
2696.003
 20
-682.881
 40
11.833
 50
180.0
 51
206.421
  0
ARC
  8
APS_GEOMETRY
 10
2696.218
 20
-682.881
 40
12.047
 50
166.555
 51
180.0
  0
ARC
  8
APS_GEOMETRY
 10
2697.613
 20
-683.215
 40
13.482
 50
153.848
 51
166.555
  0
ARC
  8
APS_GEOMETRY
 10
2697.729
 20
-683.272
 40
13.611
 50
141.244
 51
153.848
  0
ARC
  8
APS_GEOMETRY
 10
2698.589
 20
-683.962
 40
14.714
 50
129.123
 51
141.244
  0
ARC
  8
APS_GEOMETRY
 10
2701.342
 20
-686.889
 40
18.725
 50
108.978
 51
130.006
  0
ARC
  8
APS_GEOMETRY
 10
2702.713
 20
-690.876
 40
22.94
 50
90.0
 51
108.978
  0
ARC
  8
APS_GEOMETRY
 10
2752.704
 20
-689.199
 40
21.264
 50
77.257
 51
90.0
  0
ARC
  8
APS_GEOMETRY
 10
2752.488
 20
-690.155
 40
22.243
 50
64.799
 51
77.257
  0
ARC
  8
APS_GEOMETRY
 10
2770.805
 20
-651.156
 40
20.843
 50
244.885
 51
251.175
  0
ARC
  8
APS_GEOMETRY
 10
2764.837
 20
-668.664
 40
2.346
 50
251.175
 51
270.0
  0
ARC
  8
APS_GEOMETRY
 10
2764.837
 20
-667.203
 40
3.806
 50
270.0
 51
278.82
  0
ARC
  8
APS_GEOMETRY
 10
2762.378
 20
-651.356
 40
19.844
 50
278.82
 51
282.68
  0
ARC
  8
APS_GEOMETRY
 10
2767.523
 20
-674.136
 40
3.511
 50
95.906
 51
102.995
  0
ARC
  8
APS_GEOMETRY
 10
2767.682
 20
-675.673
 40
5.055
 50
90.0
 51
95.906
  0
ARC
  8
APS_GEOMETRY
 10
2767.682
 20
-673.973
 40
3.356
 50
62.447
 51
90.0
  0
ARC
  8
APS_GEOMETRY
 10
2767.085
 20
-675.116
 40
4.645
 50
39.094
 51
62.447
  0
ARC
  8
APS_GEOMETRY
 10
2760.851
 20
-680.33
 40
12.772
 50
18.435
 51
39.611
  0
ARC
  8
APS_GEOMETRY
 10
2757.025
 20
-681.606
 40
16.806
 50
360.0
 51
18.435
  0
ARC
  8
APS_GEOMETRY
 10
2765.497
 20
-681.606
 40
8.333
 50
334.877
 51
360.0
  0
ARC
  8
APS_GEOMETRY
 10
2768.003
 20
-682.781
 40
5.565
 50
304.007
 51
334.877
  0
ARC
  8
APS_GEOMETRY
 10
2767.962
 20
-682.663
 40
5.686
 50
286.39
 51
303.69
  0
ARC
  8
APS_GEOMETRY
 10
2767.78
 20
-682.045
 40
6.33
 50
270.0
 51
286.39
  0
ARC
  8
APS_GEOMETRY
 10
2767.78
 20
-682.119
 40
6.257
 50
255.155
 51
270.0
  0
ARC
  8
APS_GEOMETRY
 10
2767.095
 20
-684.705
 40
3.581
 50
235.491
 51
255.155
  0
ARC
  8
APS_GEOMETRY
 10
2767.439
 20
-684.204
 40
4.189
 50
218.48
 51
235.491
  0
ARC
  8
APS_GEOMETRY
 10
2773.06
 20
-679.736
 40
11.369
 50
208.179
 51
218.48
  0
ARC
  8
APS_GEOMETRY
 10
2715.435
 20
-711.015
 40
54.198
 50
28.56
 51
31.664
  0
ARC
  8
APS_GEOMETRY
 10
2750.647
 20
-689.299
 40
12.827
 50
31.664
 51
38.047
  0
ARC
  8
APS_GEOMETRY
 10
2753.208
 20
-687.295
 40
9.576
 50
38.047
 51
46.56
  0
ARC
  8
APS_GEOMETRY
 10
2751.877
 20
-688.7
 40
11.512
 50
46.56
 51
54.324
  0
ARC
  8
APS_GEOMETRY
 10
2751.109
 20
-690.022
 40
13.034
 50
54.968
 51
71.48
  0
ARC
  8
APS_GEOMETRY
 10
2751.952
 20
-687.505
 40
10.38
 50
71.48
 51
90.0
  0
ARC
  8
APS_GEOMETRY
 10
2751.952
 20
-684.376
 40
7.251
 50
90.0
 51
114.63
  0
ARC
  8
APS_GEOMETRY
 10
2751.588
 20
-683.582
 40
6.377
 50
114.63
 51
140.921
  0
ARC
  8
APS_GEOMETRY
 10
2752.663
 20
-684.455
 40
7.763
 50
140.921
 51
163.13
  0
ARC
  8
APS_GEOMETRY
 10
2758.041
 20
-686.086
 40
13.382
 50
163.13
 51
180.0
  0
ARC
  8
APS_GEOMETRY
 10
2765.014
 20
-686.086
 40
20.355
 50
180.0
 51
195.44
  0
ARC
  8
APS_GEOMETRY
 10
2763.956
 20
-686.378
 40
19.258
 50
195.44
 51
211.316
  0
ARC
  8
APS_GEOMETRY
 10
2758.867
 20
-689.368
 40
13.357
 50
211.708
 51
240.457
  0
ARC
  8
APS_GEOMETRY
 10
2758.525
 20
-689.971
 40
12.663
 50
240.457
 51
270.0
  0
ARC
  8
APS_GEOMETRY
 10
2758.525
 20
-686.883
 40
15.751
 50
270.0
 51
279.549
  0
ARC
  8
APS_GEOMETRY
 10
2758.329
 20
-685.719
 40
16.931
 50
279.549
 51
288.759
  0
ARC
  8
APS_GEOMETRY
 10
2759.155
 20
-688.15
 40
14.364
 50
288.759
 51
299.545
  0
ARC
  8
APS_GEOMETRY
 10
2762.464
 20
-693.989
 40
7.652
 50
299.545
 51
314.341
  0
ARC
  8
APS_GEOMETRY
 10
2772.699
 20
-704.62
 40
7.105
 50
120.141
 51
133.452
  0
ARC
  8
APS_GEOMETRY
 10
2769.841
 20
-699.696
 40
1.412
 50
90.0
 51
120.141
  0
ARC
  8
APS_GEOMETRY
 10
2769.841
 20
-700.514
 40
2.23
 50
61.952
 51
90.0
  0
ARC
  8
APS_GEOMETRY
 10
2769.508
 20
-701.137
 40
2.936
 50
37.569
 51
61.952
  0
ARC
  8
APS_GEOMETRY
 10
2768.889
 20
-701.614
 40
3.717
 50
17.665
 51
37.569
  0
ARC
  8
APS_GEOMETRY
 10
2767.944
 20
-701.915
 40
4.709
 50
360.0
 51
17.665
  0
ARC
  8
APS_GEOMETRY
 10
2765.572
 20
-701.915
 40
7.081
 50
344.932
 51
360.0
  0
ARC
  8
APS_GEOMETRY
 10
2759.274
 20
-700.219
 40
13.603
 50
334.075
 51
344.932
  0
ARC
  8
APS_GEOMETRY
 10
2759.076
 20
-700.123
 40
13.823
 50
323.374
 51
334.075
  0
ARC
  8
APS_GEOMETRY
 10
2763.14
 20
-703.143
 40
8.76
 50
309.92
 51
323.374
  0
ARC
  8
APS_GEOMETRY
 10
2767.201
 20
-707.934
 40
2.48
 50
289.026
 51
308.991
  0
ARC
  8
APS_GEOMETRY
 10
2762.868
 20
-695.369
 40
15.771
 50
281.143
 51
289.026
  0
ARC
  8
APS_GEOMETRY
 10
2767.262
 20
-718.15
 40
7.431
 50
100.437
 51
110.12
  0
ARC
  8
APS_GEOMETRY
 10
2773.083
 20
-734.04
 40
24.353
 50
110.12
 51
115.463
  0
ARC
  8
APS_GEOMETRY
 10
2752.302
 20
-690.56
 40
23.838
 50
282.94
 51
295.628
  0
ARC
  8
APS_GEOMETRY
 10
2752.508
 20
-691.454
 40
22.921
 50
270.0
 51
282.94
  0
ARC
  8
APS_GEOMETRY
 10
2752.508
 20
-690.1
 40
24.275
 50
257.307
 51
270.0
  0
ARC
  8
APS_GEOMETRY
 10
2753.532
 20
-685.55
 40
28.939
 50
245.686
 51
257.307
  0
ARC
  8
APS_GEOMETRY
 10
2750.962
 20
-691.191
 40
22.739
 50
228.801
 51
245.735
  0
ARC
  8
APS_GEOMETRY
 10
2751.005
 20
-691.142
 40
22.805
 50
211.891
 51
228.801
  0
ARC
  8
APS_GEOMETRY
 10
2752.353
 20
-690.172
 40
24.462
 50
196.728
 51
212.152
  0
ARC
  8
APS_GEOMETRY
 10
2748.865
 20
-691.22
 40
20.82
 50
180.0
 51
196.728
  0
ARC
  8
APS_GEOMETRY
 10
2749.372
 20
-691.22
 40
21.327
 50
161.184
 51
180.0
  0
ARC
  8
APS_GEOMETRY
 10
2750.741
 20
-691.687
 40
22.773
 50
142.98
 51
161.184
  0
ARC
  8
APS_GEOMETRY
 10
2751.805
 20
-692.501
 40
24.112
 50
127.824
 51
142.958
  0
ARC
  8
APS_GEOMETRY
 10
2753.559
 20
-694.76
 40
26.973
 50
113.52
 51
127.824
  0
ARC
  8
APS_GEOMETRY
 10
2752.988
 20
-693.441
 40
25.535
 50
101.927
 51
113.527
  0
ARC
  8
APS_GEOMETRY
 10
2752.704
 20
-692.097
 40
24.161
 50
90.0
 51
101.927
  0
ARC
  8
APS_GEOMETRY
 10
2803.185
 20
-693.717
 40
25.782
 50
71.91
 51
90.0
  0
ARC
  8
APS_GEOMETRY
 10
2804.184
 20
-690.66
 40
22.566
 50
52.561
 51
71.91
  0
ARC
  8
APS_GEOMETRY
 10
2803.922
 20
-690.737
 40
22.786
 50
38.846
 51
52.156
  0
ARC
  8
APS_GEOMETRY
 10
2800.35
 20
-693.613
 40
27.372
 50
26.707
 51
38.846
  0
ARC
  8
APS_GEOMETRY
 10
2801.057
 20
-693.035
 40
26.482
 50
13.868
 51
26.278
  0
ARC
  8
APS_GEOMETRY
 10
2806.157
 20
-691.776
 40
21.229
 50
360.0
 51
13.868
  0
ARC
  8
APS_GEOMETRY
 10
2806.487
 20
-691.776
 40
20.899
 50
339.712
 51
360.0
  0
ARC
  8
APS_GEOMETRY
 10
2805.31
 20
-691.342
 40
22.153
 50
320.013
 51
339.712
  0
ARC
  8
APS_GEOMETRY
 10
2805.115
 20
-691.234
 40
22.372
 50
303.344
 51
320.123
  0
ARC
  8
APS_GEOMETRY
 10
2802.82
 20
-687.745
 40
26.548
 50
287.949
 51
303.344
  0
ARC
  8
APS_GEOMETRY
 10
2802.065
 20
-685.13
 40
29.269
 50
279.039
 51
287.776
  0
ARC
  8
APS_GEOMETRY
 10
2802.367
 20
-687.029
 40
27.346
 50
270.0
 51
279.039
  0
ARC
  8
APS_GEOMETRY
 10
2802.367
 20
-688.364
 40
26.011
 50
257.728
 51
270.0
  0
ARC
  8
APS_GEOMETRY
 10
2802.408
 20
-688.176
 40
26.203
 50
245.501
 51
257.728
  0
ARC
  8
APS_GEOMETRY
 10
2800.936
 20
-691.398
 40
22.66
 50
228.665
 51
245.511
  0
ARC
  8
APS_GEOMETRY
 10
2800.446
 20
-691.955
 40
21.918
 50
211.535
 51
228.665
  0
ARC
  8
APS_GEOMETRY
 10
2801.088
 20
-691.484
 40
22.712
 50
195.642
 51
211.701
  0
ARC
  8
APS_GEOMETRY
 10
2802.262
 20
-691.155
 40
23.931
 50
180.0
 51
195.642
  0
ARC
  8
APS_GEOMETRY
 10
2802.513
 20
-691.155
 40
24.183
 50
162.181
 51
180.0
  0
ARC
  8
APS_GEOMETRY
 10
2800.307
 20
-690.446
 40
21.865
 50
143.434
 51
162.181
  0
ARC
  8
APS_GEOMETRY
 10
2800.01
 20
-690.208
 40
21.485
 50
126.384
 51
143.471
  0
ARC
  8
APS_GEOMETRY
 10
2802.044
 20
-692.969
 40
24.914
 50
110.525
 51
126.384
  0
ARC
  8
APS_GEOMETRY
 10
2801.943
 20
-692.219
 40
24.177
 50
99.77
 51
110.925
  0
ARC
  8
APS_GEOMETRY
 10
2803.185
 20
-699.431
 40
31.496
 50
90.0
 51
99.77
  0
ARC
  8
APS_GEOMETRY
 10
2800.078
 20
-682.129
 40
4.807
 50
90.0
 51
119.604
  0
ARC
  8
APS_GEOMETRY
 10
2800.499
 20
-682.87
 40
5.659
 50
119.604
 51
146.842
  0
ARC
  8
APS_GEOMETRY
 10
2801.345
 20
-683.563
 40
6.748
 50
145.84
 51
164.055
  0
ARC
  8
APS_GEOMETRY
 10
2803.307
 20
-684.124
 40
8.788
 50
164.055
 51
180.0
  0
ARC
  8
APS_GEOMETRY
 10
2815.571
 20
-684.124
 40
21.053
 50
180.0
 51
189.977
  0
ARC
  8
APS_GEOMETRY
 10
2834.223
 20
-680.843
 40
39.991
 50
189.977
 51
197.211
  0
ARC
  8
APS_GEOMETRY
 10
2838.302
 20
-679.579
 40
44.261
 50
197.211
 51
203.76
  0
ARC
  8
APS_GEOMETRY
 10
2828.14
 20
-684.053
 40
33.157
 50
203.76
 51
211.329
  0
ARC
  8
APS_GEOMETRY
 10
2807.271
 20
-696.577
 40
8.821
 50
212.32
 51
224.441
  0
ARC
  8
APS_GEOMETRY
 10
2806.416
 20
-697.416
 40
7.623
 50
224.441
 51
237.484
  0
ARC
  8
APS_GEOMETRY
 10
2805.863
 20
-698.283
 40
6.595
 50
237.484
 51
252.416
  0
ARC
  8
APS_GEOMETRY
 10
2805.311
 20
-700.026
 40
4.766
 50
252.416
 51
270.0
  0
ARC
  8
APS_GEOMETRY
 10
2805.311
 20
-699.461
 40
5.331
 50
270.0
 51
294.953
  0
ARC
  8
APS_GEOMETRY
 10
2805.46
 20
-699.782
 40
4.977
 50
294.953
 51
320.793
  0
ARC
  8
APS_GEOMETRY
 10
2804.659
 20
-699.129
 40
6.011
 50
320.793
 51
342.777
  0
ARC
  8
APS_GEOMETRY
 10
2801.092
 20
-698.023
 40
9.746
 50
342.777
 51
0.0
  0
ARC
  8
APS_GEOMETRY
 10
2784.331
 20
-698.023
 40
26.507
 50
0.0
 51
8.499
  0
ARC
  8
APS_GEOMETRY
 10
2772.663
 20
-699.766
 40
38.304
 50
8.499
 51
15.566
  0
ARC
  8
APS_GEOMETRY
 10
2774.066
 20
-699.375
 40
36.848
 50
15.566
 51
22.909
  0
ARC
  8
APS_GEOMETRY
 10
2786.13
 20
-694.277
 40
23.751
 50
22.909
 51
32.057
  0
ARC
  8
APS_GEOMETRY
 10
2795.605
 20
-688.308
 40
12.552
 50
31.921
 51
42.51
  0
ARC
  8
APS_GEOMETRY
 10
2798.207
 20
-685.923
 40
9.022
 50
42.51
 51
55.008
  0
ARC
  8
APS_GEOMETRY
 10
2799.086
 20
-684.667
 40
7.489
 50
55.008
 51
69.88
  0
ARC
  8
APS_GEOMETRY
 10
2799.874
 20
-682.516
 40
5.198
 50
69.88
 51
87.754
  0
ARC
  8
APS_GEOMETRY
 10
2856.544
 20
-689.199
 40
21.264
 50
77.257
 51
90.0
  0
ARC
  8
APS_GEOMETRY
 10
2856.328
 20
-690.155
 40
22.243
 50
64.799
 51
77.257
  0
ARC
  8
APS_GEOMETRY
 10
2874.646
 20
-651.156
 40
20.843
 50
244.885
 51
251.175
  0
ARC
  8
APS_GEOMETRY
 10
2868.677
 20
-668.664
 40
2.346
 50
251.175
 51
270.0
  0
ARC
  8
APS_GEOMETRY
 10
2868.677
 20
-667.203
 40
3.806
 50
270.0
 51
278.82
  0
ARC
  8
APS_GEOMETRY
 10
2866.218
 20
-651.356
 40
19.844
 50
278.82
 51
282.68
  0
ARC
  8
APS_GEOMETRY
 10
2871.363
 20
-674.136
 40
3.511
 50
95.906
 51
102.995
  0
ARC
  8
APS_GEOMETRY
 10
2871.522
 20
-675.673
 40
5.055
 50
90.0
 51
95.906
  0
ARC
  8
APS_GEOMETRY
 10
2871.522
 20
-673.973
 40
3.356
 50
62.447
 51
90.0
  0
ARC
  8
APS_GEOMETRY
 10
2870.926
 20
-675.116
 40
4.645
 50
39.094
 51
62.447
  0
ARC
  8
APS_GEOMETRY
 10
2864.691
 20
-680.33
 40
12.772
 50
18.435
 51
39.611
  0
ARC
  8
APS_GEOMETRY
 10
2860.865
 20
-681.606
 40
16.806
 50
360.0
 51
18.435
  0
ARC
  8
APS_GEOMETRY
 10
2869.337
 20
-681.606
 40
8.333
 50
334.877
 51
360.0
  0
ARC
  8
APS_GEOMETRY
 10
2871.844
 20
-682.781
 40
5.565
 50
304.007
 51
334.877
  0
ARC
  8
APS_GEOMETRY
 10
2871.802
 20
-682.663
 40
5.686
 50
286.39
 51
303.69
  0
ARC
  8
APS_GEOMETRY
 10
2871.62
 20
-682.045
 40
6.33
 50
270.0
 51
286.39
  0
ARC
  8
APS_GEOMETRY
 10
2871.62
 20
-682.119
 40
6.257
 50
255.155
 51
270.0
  0
ARC
  8
APS_GEOMETRY
 10
2870.935
 20
-684.705
 40
3.581
 50
235.491
 51
255.155
  0
ARC
  8
APS_GEOMETRY
 10
2871.279
 20
-684.204
 40
4.189
 50
218.48
 51
235.491
  0
ARC
  8
APS_GEOMETRY
 10
2876.9
 20
-679.736
 40
11.369
 50
208.179
 51
218.48
  0
ARC
  8
APS_GEOMETRY
 10
2819.275
 20
-711.015
 40
54.198
 50
28.56
 51
31.664
  0
ARC
  8
APS_GEOMETRY
 10
2854.488
 20
-689.299
 40
12.827
 50
31.664
 51
38.047
  0
ARC
  8
APS_GEOMETRY
 10
2857.048
 20
-687.295
 40
9.576
 50
38.047
 51
46.56
  0
ARC
  8
APS_GEOMETRY
 10
2855.717
 20
-688.7
 40
11.512
 50
46.56
 51
54.324
  0
ARC
  8
APS_GEOMETRY
 10
2854.949
 20
-690.022
 40
13.034
 50
54.968
 51
71.48
  0
ARC
  8
APS_GEOMETRY
 10
2855.792
 20
-687.505
 40
10.38
 50
71.48
 51
90.0
  0
ARC
  8
APS_GEOMETRY
 10
2855.792
 20
-684.376
 40
7.251
 50
90.0
 51
114.63
  0
ARC
  8
APS_GEOMETRY
 10
2855.428
 20
-683.582
 40
6.377
 50
114.63
 51
140.921
  0
ARC
  8
APS_GEOMETRY
 10
2856.504
 20
-684.455
 40
7.763
 50
140.921
 51
163.13
  0
ARC
  8
APS_GEOMETRY
 10
2861.881
 20
-686.086
 40
13.382
 50
163.13
 51
180.0
  0
ARC
  8
APS_GEOMETRY
 10
2868.854
 20
-686.086
 40
20.355
 50
180.0
 51
195.44
  0
ARC
  8
APS_GEOMETRY
 10
2867.796
 20
-686.378
 40
19.258
 50
195.44
 51
211.316
  0
ARC
  8
APS_GEOMETRY
 10
2862.707
 20
-689.368
 40
13.357
 50
211.708
 51
240.457
  0
ARC
  8
APS_GEOMETRY
 10
2862.365
 20
-689.971
 40
12.663
 50
240.457
 51
270.0
  0
ARC
  8
APS_GEOMETRY
 10
2862.365
 20
-686.883
 40
15.751
 50
270.0
 51
279.549
  0
ARC
  8
APS_GEOMETRY
 10
2862.169
 20
-685.719
 40
16.931
 50
279.549
 51
288.759
  0
ARC
  8
APS_GEOMETRY
 10
2862.995
 20
-688.15
 40
14.364
 50
288.759
 51
299.545
  0
ARC
  8
APS_GEOMETRY
 10
2866.304
 20
-693.989
 40
7.652
 50
299.545
 51
314.341
  0
ARC
  8
APS_GEOMETRY
 10
2876.54
 20
-704.62
 40
7.105
 50
120.141
 51
133.452
  0
ARC
  8
APS_GEOMETRY
 10
2873.681
 20
-699.696
 40
1.412
 50
90.0
 51
120.141
  0
ARC
  8
APS_GEOMETRY
 10
2873.681
 20
-700.514
 40
2.23
 50
61.952
 51
90.0
  0
ARC
  8
APS_GEOMETRY
 10
2873.349
 20
-701.137
 40
2.936
 50
37.569
 51
61.952
  0
ARC
  8
APS_GEOMETRY
 10
2872.729
 20
-701.614
 40
3.717
 50
17.665
 51
37.569
  0
ARC
  8
APS_GEOMETRY
 10
2871.785
 20
-701.915
 40
4.709
 50
360.0
 51
17.665
  0
ARC
  8
APS_GEOMETRY
 10
2869.413
 20
-701.915
 40
7.081
 50
344.932
 51
360.0
  0
ARC
  8
APS_GEOMETRY
 10
2863.115
 20
-700.219
 40
13.603
 50
334.075
 51
344.932
  0
ARC
  8
APS_GEOMETRY
 10
2862.916
 20
-700.123
 40
13.823
 50
323.374
 51
334.075
  0
ARC
  8
APS_GEOMETRY
 10
2866.98
 20
-703.143
 40
8.76
 50
309.92
 51
323.374
  0
ARC
  8
APS_GEOMETRY
 10
2871.041
 20
-707.934
 40
2.48
 50
289.026
 51
308.991
  0
ARC
  8
APS_GEOMETRY
 10
2866.708
 20
-695.369
 40
15.771
 50
281.143
 51
289.026
  0
ARC
  8
APS_GEOMETRY
 10
2871.102
 20
-718.15
 40
7.431
 50
100.437
 51
110.12
  0
ARC
  8
APS_GEOMETRY
 10
2876.923
 20
-734.04
 40
24.353
 50
110.12
 51
115.463
  0
ARC
  8
APS_GEOMETRY
 10
2856.142
 20
-690.56
 40
23.838
 50
282.94
 51
295.628
  0
ARC
  8
APS_GEOMETRY
 10
2856.348
 20
-691.454
 40
22.921
 50
270.0
 51
282.94
  0
ARC
  8
APS_GEOMETRY
 10
2856.348
 20
-690.1
 40
24.275
 50
257.307
 51
270.0
  0
ARC
  8
APS_GEOMETRY
 10
2857.373
 20
-685.55
 40
28.939
 50
245.686
 51
257.307
  0
ARC
  8
APS_GEOMETRY
 10
2854.802
 20
-691.191
 40
22.739
 50
228.801
 51
245.735
  0
ARC
  8
APS_GEOMETRY
 10
2854.845
 20
-691.142
 40
22.805
 50
211.891
 51
228.801
  0
ARC
  8
APS_GEOMETRY
 10
2856.193
 20
-690.172
 40
24.462
 50
196.728
 51
212.152
  0
ARC
  8
APS_GEOMETRY
 10
2852.705
 20
-691.22
 40
20.82
 50
180.0
 51
196.728
  0
ARC
  8
APS_GEOMETRY
 10
2853.213
 20
-691.22
 40
21.327
 50
161.184
 51
180.0
  0
ARC
  8
APS_GEOMETRY
 10
2854.581
 20
-691.687
 40
22.773
 50
142.98
 51
161.184
  0
ARC
  8
APS_GEOMETRY
 10
2855.645
 20
-692.501
 40
24.112
 50
127.824
 51
142.958
  0
ARC
  8
APS_GEOMETRY
 10
2857.399
 20
-694.76
 40
26.973
 50
113.52
 51
127.824
  0
ARC
  8
APS_GEOMETRY
 10
2856.828
 20
-693.441
 40
25.535
 50
101.927
 51
113.527
  0
ARC
  8
APS_GEOMETRY
 10
2856.544
 20
-692.097
 40
24.161
 50
90.0
 51
101.927
  0
ARC
  8
APS_GEOMETRY
 10
2907.025
 20
-693.717
 40
25.782
 50
71.91
 51
90.0
  0
ARC
  8
APS_GEOMETRY
 10
2908.024
 20
-690.66
 40
22.566
 50
52.561
 51
71.91
  0
ARC
  8
APS_GEOMETRY
 10
2907.762
 20
-690.737
 40
22.786
 50
38.846
 51
52.156
  0
ARC
  8
APS_GEOMETRY
 10
2904.19
 20
-693.613
 40
27.372
 50
26.707
 51
38.846
  0
ARC
  8
APS_GEOMETRY
 10
2904.897
 20
-693.035
 40
26.482
 50
13.868
 51
26.278
  0
ARC
  8
APS_GEOMETRY
 10
2909.997
 20
-691.776
 40
21.229
 50
360.0
 51
13.868
  0
ARC
  8
APS_GEOMETRY
 10
2910.327
 20
-691.776
 40
20.899
 50
339.712
 51
360.0
  0
ARC
  8
APS_GEOMETRY
 10
2909.151
 20
-691.342
 40
22.153
 50
320.013
 51
339.712
  0
ARC
  8
APS_GEOMETRY
 10
2908.955
 20
-691.234
 40
22.372
 50
303.344
 51
320.123
  0
ARC
  8
APS_GEOMETRY
 10
2906.66
 20
-687.745
 40
26.548
 50
287.949
 51
303.344
  0
ARC
  8
APS_GEOMETRY
 10
2905.905
 20
-685.13
 40
29.269
 50
279.039
 51
287.776
  0
ARC
  8
APS_GEOMETRY
 10
2906.208
 20
-687.029
 40
27.346
 50
270.0
 51
279.039
  0
ARC
  8
APS_GEOMETRY
 10
2906.208
 20
-688.364
 40
26.011
 50
257.728
 51
270.0
  0
ARC
  8
APS_GEOMETRY
 10
2906.248
 20
-688.176
 40
26.203
 50
245.501
 51
257.728
  0
ARC
  8
APS_GEOMETRY
 10
2904.776
 20
-691.398
 40
22.66
 50
228.665
 51
245.511
  0
ARC
  8
APS_GEOMETRY
 10
2904.286
 20
-691.955
 40
21.918
 50
211.535
 51
228.665
  0
ARC
  8
APS_GEOMETRY
 10
2904.928
 20
-691.484
 40
22.712
 50
195.642
 51
211.701
  0
ARC
  8
APS_GEOMETRY
 10
2906.102
 20
-691.155
 40
23.931
 50
180.0
 51
195.642
  0
ARC
  8
APS_GEOMETRY
 10
2906.353
 20
-691.155
 40
24.183
 50
162.181
 51
180.0
  0
ARC
  8
APS_GEOMETRY
 10
2904.147
 20
-690.446
 40
21.865
 50
143.434
 51
162.181
  0
ARC
  8
APS_GEOMETRY
 10
2903.85
 20
-690.208
 40
21.485
 50
126.384
 51
143.471
  0
ARC
  8
APS_GEOMETRY
 10
2905.884
 20
-692.969
 40
24.914
 50
110.525
 51
126.384
  0
ARC
  8
APS_GEOMETRY
 10
2905.783
 20
-692.219
 40
24.177
 50
99.77
 51
110.925
  0
ARC
  8
APS_GEOMETRY
 10
2907.025
 20
-699.431
 40
31.496
 50
90.0
 51
99.77
  0
ARC
  8
APS_GEOMETRY
 10
2903.918
 20
-682.129
 40
4.807
 50
90.0
 51
119.604
  0
ARC
  8
APS_GEOMETRY
 10
2904.339
 20
-682.87
 40
5.659
 50
119.604
 51
146.842
  0
ARC
  8
APS_GEOMETRY
 10
2905.186
 20
-683.563
 40
6.748
 50
145.84
 51
164.055
  0
ARC
  8
APS_GEOMETRY
 10
2907.147
 20
-684.124
 40
8.788
 50
164.055
 51
180.0
  0
ARC
  8
APS_GEOMETRY
 10
2919.411
 20
-684.124
 40
21.053
 50
180.0
 51
189.977
  0
ARC
  8
APS_GEOMETRY
 10
2938.063
 20
-680.843
 40
39.991
 50
189.977
 51
197.211
  0
ARC
  8
APS_GEOMETRY
 10
2942.142
 20
-679.579
 40
44.261
 50
197.211
 51
203.76
  0
ARC
  8
APS_GEOMETRY
 10
2931.98
 20
-684.053
 40
33.157
 50
203.76
 51
211.329
  0
ARC
  8
APS_GEOMETRY
 10
2911.112
 20
-696.577
 40
8.821
 50
212.32
 51
224.441
  0
ARC
  8
APS_GEOMETRY
 10
2910.256
 20
-697.416
 40
7.623
 50
224.441
 51
237.484
  0
ARC
  8
APS_GEOMETRY
 10
2909.703
 20
-698.283
 40
6.595
 50
237.484
 51
252.416
  0
ARC
  8
APS_GEOMETRY
 10
2909.151
 20
-700.026
 40
4.766
 50
252.416
 51
270.0
  0
ARC
  8
APS_GEOMETRY
 10
2909.151
 20
-699.461
 40
5.331
 50
270.0
 51
294.953
  0
ARC
  8
APS_GEOMETRY
 10
2909.3
 20
-699.782
 40
4.977
 50
294.953
 51
320.793
  0
ARC
  8
APS_GEOMETRY
 10
2908.5
 20
-699.129
 40
6.011
 50
320.793
 51
342.777
  0
ARC
  8
APS_GEOMETRY
 10
2904.932
 20
-698.023
 40
9.746
 50
342.777
 51
0.0
  0
ARC
  8
APS_GEOMETRY
 10
2888.171
 20
-698.023
 40
26.507
 50
0.0
 51
8.499
  0
ARC
  8
APS_GEOMETRY
 10
2876.503
 20
-699.766
 40
38.304
 50
8.499
 51
15.566
  0
ARC
  8
APS_GEOMETRY
 10
2877.906
 20
-699.375
 40
36.848
 50
15.566
 51
22.909
  0
ARC
  8
APS_GEOMETRY
 10
2889.97
 20
-694.277
 40
23.751
 50
22.909
 51
32.057
  0
ARC
  8
APS_GEOMETRY
 10
2899.446
 20
-688.308
 40
12.552
 50
31.921
 51
42.51
  0
ARC
  8
APS_GEOMETRY
 10
2902.048
 20
-685.923
 40
9.022
 50
42.51
 51
55.008
  0
ARC
  8
APS_GEOMETRY
 10
2902.926
 20
-684.667
 40
7.489
 50
55.008
 51
69.88
  0
ARC
  8
APS_GEOMETRY
 10
2903.715
 20
-682.516
 40
5.198
 50
69.88
 51
87.754
  0
ARC
  8
APS_GEOMETRY
 10
2957.539
 20
-697.14
 40
2.42
 50
90.0
 51
115.837
  0
ARC
  8
APS_GEOMETRY
 10
2956.943
 20
-695.909
 40
1.053
 50
115.837
 51
155.462
  0
ARC
  8
APS_GEOMETRY
 10
2957.638
 20
-696.227
 40
1.817
 50
155.462
 51
168.366
  0
ARC
  8
APS_GEOMETRY
 10
2963.984
 20
-697.533
 40
8.296
 50
168.366
 51
174.395
  0
ARC
  8
APS_GEOMETRY
 10
2970.38
 20
-698.161
 40
14.722
 50
174.395
 51
177.813
  0
ARC
  8
APS_GEOMETRY
 10
2991.609
 20
-698.971
 40
35.966
 50
177.813
 51
180.0
  0
ARC
  8
APS_GEOMETRY
 10
3006.977
 20
-698.971
 40
51.335
 50
180.0
 51
184.62
  0
ARC
  8
APS_GEOMETRY
 10
2972.557
 20
-701.753
 40
16.803
 50
184.62
 51
192.7
  0
ARC
  8
APS_GEOMETRY
 10
2959.287
 20
-704.666
 40
3.218
 50
194.036
 51
205.821
  0
ARC
  8
APS_GEOMETRY
 10
2957.882
 20
-705.346
 40
1.656
 50
205.821
 51
222.274
  0
ARC
  8
APS_GEOMETRY
 10
2958.312
 20
-704.955
 40
2.238
 50
222.274
 51
234.605
  0
ARC
  8
APS_GEOMETRY
 10
2963.172
 20
-698.114
 40
10.63
 50
234.605
 51
240.255
  0
ARC
  8
APS_GEOMETRY
 10
2955.784
 20
-711.189
 40
4.389
 50
34.592
 51
61.189
  0
ARC
  8
APS_GEOMETRY
 10
2957.234
 20
-710.188
 40
2.627
 50
360.0
 51
34.592
  0
ARC
  8
APS_GEOMETRY
 10
2957.322
 20
-710.188
 40
2.539
 50
318.231
 51
360.0
  0
ARC
  8
APS_GEOMETRY
 10
2955.623
 20
-708.672
 40
4.816
 50
288.227
 51
318.231
  0
ARC
  8
APS_GEOMETRY
 10
2953.862
 20
-703.324
 40
10.446
 50
280.377
 51
288.227
  0
ARC
  8
APS_GEOMETRY
 10
2950.793
 20
-686.56
 40
27.489
 50
275.541
 51
280.377
  0
ARC
  8
APS_GEOMETRY
 10
2949.47
 20
-672.923
 40
41.19
 50
272.304
 51
275.541
  0
ARC
  8
APS_GEOMETRY
 10
2947.859
 20
-632.887
 40
81.259
 50
270.0
 51
272.304
  0
ARC
  8
APS_GEOMETRY
 10
2947.859
 20
-666.346
 40
47.8
 50
262.811
 51
270.0
  0
ARC
  8
APS_GEOMETRY
 10
2943.57
 20
-700.352
 40
13.524
 50
249.274
 51
262.811
  0
ARC
  8
APS_GEOMETRY
 10
2940.872
 20
-707.482
 40
5.901
 50
221.379
 51
249.274
  0
ARC
  8
APS_GEOMETRY
 10
2938.505
 20
-709.567
 40
2.747
 50
180.0
 51
221.379
  0
ARC
  8
APS_GEOMETRY
 10
2938.487
 20
-709.567
 40
2.728
 50
164.055
 51
180.0
  0
ARC
  8
APS_GEOMETRY
 10
2937.349
 20
-709.242
 40
1.546
 50
142.815
 51
164.055
  0
ARC
  8
APS_GEOMETRY
 10
2938.065
 20
-709.785
 40
2.444
 50
129.007
 51
142.815
  0
ARC
  8
APS_GEOMETRY
 10
2946.857
 20
-720.639
 40
16.412
 50
123.69
 51
129.007
  0
ARC
  8
APS_GEOMETRY
 10
2934.381
 20
-701.867
 40
6.128
 50
303.389
 51
319.022
  0
ARC
  8
APS_GEOMETRY
 10
2936.039
 20
-703.307
 40
3.932
 50
319.022
 51
338.575
  0
ARC
  8
APS_GEOMETRY
 10
2933.82
 20
-702.436
 40
6.316
 50
338.575
 51
351.049
  0
ARC
  8
APS_GEOMETRY
 10
2907.014
 20
-698.214
 40
33.452
 50
351.049
 51
356.46
  0
ARC
  8
APS_GEOMETRY
 10
2915.85
 20
-698.55
 40
24.613
 50
355.972
 51
358.68
  0
ARC
  8
APS_GEOMETRY
 10
2625.659
 20
-691.864
 40
314.881
 50
358.68
 51
359.437
  0
LINE
  8
APS_GEOMETRY
 10
2940.525
 11
2940.556
 20
-694.957
 21
-690.045
  0
LINE
  8
APS_GEOMETRY
 10
2940.556
 11
2940.566
 20
-690.045
 21
-683.633
  0
ARC
  8
APS_GEOMETRY
 10
2864.757
 20
-683.633
 40
75.809
 50
0.0
 51
1.717
  0
ARC
  8
APS_GEOMETRY
 10
2905.325
 20
-682.417
 40
35.223
 50
1.717
 51
4.236
  0
ARC
  8
APS_GEOMETRY
 10
2918.554
 20
-681.437
 40
21.957
 50
4.236
 51
8.269
  0
ARC
  8
APS_GEOMETRY
 10
2933.778
 20
-679.225
 40
6.573
 50
8.269
 51
15.642
  0
ARC
  8
APS_GEOMETRY
 10
2936.398
 20
-678.491
 40
3.853
 50
15.642
 51
39.417
  0
ARC
  8
APS_GEOMETRY
 10
2936.457
 20
-678.443
 40
3.776
 50
39.417
 51
63.435
  0
ARC
  8
APS_GEOMETRY
 10
2943.258
 20
-664.353
 40
11.869
 50
236.874
 51
244.486
  0
ARC
  8
APS_GEOMETRY
 10
2938.199
 20
-672.107
 40
2.611
 50
220.601
 51
236.874
  0
ARC
  8
APS_GEOMETRY
 10
2937.618
 20
-672.604
 40
1.847
 50
198.246
 51
220.601
  0
ARC
  8
APS_GEOMETRY
 10
2938.486
 20
-672.318
 40
2.761
 50
180.0
 51
198.246
  0
ARC
  8
APS_GEOMETRY
 10
2938.473
 20
-672.318
 40
2.748
 50
156.161
 51
180.0
  0
ARC
  8
APS_GEOMETRY
 10
2938.856
 20
-672.487
 40
3.167
 50
133.977
 51
156.161
  0
ARC
  8
APS_GEOMETRY
 10
2939.62
 20
-673.278
 40
4.266
 50
116.996
 51
133.977
  0
ARC
  8
APS_GEOMETRY
 10
2941.137
 20
-676.256
 40
7.608
 50
104.3
 51
116.996
  0
ARC
  8
APS_GEOMETRY
 10
2941.529
 20
-677.762
 40
9.164
 50
95.326
 51
104.349
  0
ARC
  8
APS_GEOMETRY
 10
2943.117
 20
-694.796
 40
26.272
 50
90.0
 51
95.326
  0
ARC
  8
APS_GEOMETRY
 10
2943.117
 20
-681.537
 40
13.013
 50
87.553
 51
90.0
  0
ARC
  8
APS_GEOMETRY
 10
2940.348
 20
-746.325
 40
77.86
 50
86.553
 51
87.553
  0
ARC
  8
APS_GEOMETRY
 10
2936.411
 20
-811.672
 40
143.325
 50
86.009
 51
86.553
  0
ARC
  8
APS_GEOMETRY
 10
2921.104
 20
-1031.085
 40
363.271
 50
85.668
 51
86.009
  0
ARC
  8
APS_GEOMETRY
 10
2949.752
 20
-653.774
 40
15.125
 50
265.426
 51
268.531
  0
ARC
  8
APS_GEOMETRY
 10
2951.096
 20
-601.331
 40
67.586
 50
268.531
 51
270.0
  0
ARC
  8
APS_GEOMETRY
 10
2951.096
 20
-617.406
 40
51.511
 50
270.0
 51
271.637
  0
ARC
  8
APS_GEOMETRY
 10
2949.945
 20
-577.122
 40
91.812
 50
271.637
 51
272.862
  0
ARC
  8
APS_GEOMETRY
 10
2948.624
 20
-550.692
 40
118.274
 50
272.862
 51
273.814
  0
ARC
  8
APS_GEOMETRY
 10
2944.15
 20
-483.588
 40
185.527
 50
273.814
 51
274.574
  0
ARC
  8
APS_GEOMETRY
 10
2972.212
 20
-848.579
 40
180.543
 50
93.72
 51
94.214
  0
ARC
  8
APS_GEOMETRY
 10
2966.223
 20
-756.461
 40
88.23
 50
93.013
 51
93.72
  0
ARC
  8
APS_GEOMETRY
 10
2964.581
 20
-725.265
 40
56.991
 50
91.918
 51
93.013
  0
ARC
  8
APS_GEOMETRY
 10
2963.295
 20
-686.85
 40
18.554
 50
90.0
 51
91.918
  0
ARC
  8
APS_GEOMETRY
 10
2963.295
 20
-692.404
 40
24.109
 50
73.82
 51
90.0
  0
ARC
  8
APS_GEOMETRY
 10
2965.671
 20
-684.214
 40
15.581
 50
53.658
 51
73.82
  0
ARC
  8
APS_GEOMETRY
 10
2969.051
 20
-679.595
 40
9.857
 50
26.03
 51
53.569
  0
ARC
  8
APS_GEOMETRY
 10
2968.014
 20
-680.101
 40
11.012
 50
360.0
 51
26.03
  0
ARC
  8
APS_GEOMETRY
 10
2967.582
 20
-680.101
 40
11.443
 50
345.282
 51
360.0
  0
ARC
  8
APS_GEOMETRY
 10
2968.683
 20
-680.39
 40
10.305
 50
329.767
 51
345.282
  0
ARC
  8
APS_GEOMETRY
 10
2969.307
 20
-680.754
 40
9.583
 50
313.168
 51
329.767
  0
ARC
  8
APS_GEOMETRY
 10
2969.537
 20
-681.0
 40
9.246
 50
296.267
 51
313.168
  0
ARC
  8
APS_GEOMETRY
 10
2974.801
 20
-691.634
 40
2.62
 50
116.565
 51
139.899
  0
ARC
  8
APS_GEOMETRY
 10
2973.494
 20
-690.534
 40
0.911
 50
139.899
 51
180.0
  0
ARC
  8
APS_GEOMETRY
 10
2973.595
 20
-690.534
 40
1.013
 50
180.0
 51
226.193
  0
ARC
  8
APS_GEOMETRY
 10
2975.466
 20
-688.583
 40
3.715
 50
226.193
 51
249.829
  0
ARC
  8
APS_GEOMETRY
 10
2970.105
 20
-703.344
 40
11.989
 50
53.249
 51
70.105
  0
ARC
  8
APS_GEOMETRY
 10
2972.54
 20
-700.083
 40
7.919
 50
32.471
 51
53.249
  0
ARC
  8
APS_GEOMETRY
 10
2971.405
 20
-700.806
 40
9.264
 50
23.305
 51
32.471
  0
ARC
  8
APS_GEOMETRY
 10
2964.395
 20
-703.825
 40
16.897
 50
16.521
 51
23.305
  0
ARC
  8
APS_GEOMETRY
 10
2958.93
 20
-705.446
 40
22.598
 50
11.429
 51
16.521
  0
ARC
  8
APS_GEOMETRY
 10
2943.44
 20
-708.578
 40
38.401
 50
7.524
 51
11.429
  0
ARC
  8
APS_GEOMETRY
 10
2994.768
 20
-701.742
 40
13.38
 50
187.765
 51
196.914
  0
ARC
  8
APS_GEOMETRY
 10
2983.825
 20
-705.07
 40
1.942
 50
196.914
 51
221.082
  0
ARC
  8
APS_GEOMETRY
 10
2983.866
 20
-705.033
 40
1.997
 50
221.082
 51
244.607
  0
ARC
  8
APS_GEOMETRY
 10
2988.54
 20
-695.188
 40
12.896
 50
244.607
 51
253.811
  0
ARC
  8
APS_GEOMETRY
 10
2984.431
 20
-709.198
 40
1.705
 50
51.45
 51
72.474
  0
ARC
  8
APS_GEOMETRY
 10
2984.009
 20
-709.727
 40
2.382
 50
33.69
 51
51.45
  0
ARC
  8
APS_GEOMETRY
 10
2983.911
 20
-709.793
 40
2.5
 50
16.639
 51
33.69
  0
ARC
  8
APS_GEOMETRY
 10
2983.791
 20
-709.829
 40
2.625
 50
360.0
 51
16.639
  0
ARC
  8
APS_GEOMETRY
 10
2983.755
 20
-709.829
 40
2.662
 50
338.993
 51
360.0
  0
ARC
  8
APS_GEOMETRY
 10
2982.129
 20
-709.205
 40
4.402
 50
322.696
 51
338.993
  0
ARC
  8
APS_GEOMETRY
 10
2981.524
 20
-708.743
 40
5.164
 50
308.603
 51
322.696
  0
ARC
  8
APS_GEOMETRY
 10
2981.107
 20
-708.221
 40
5.831
 50
295.346
 51
308.603
  0
ARC
  8
APS_GEOMETRY
 10
2978.916
 20
-703.395
 40
11.131
 50
279.583
 51
294.905
  0
ARC
  8
APS_GEOMETRY
 10
2976.049
 20
-686.414
 40
28.353
 50
270.0
 51
279.583
  0
ARC
  8
APS_GEOMETRY
 10
2976.049
 20
-694.095
 40
20.672
 50
261.247
 51
270.0
  0
ARC
  8
APS_GEOMETRY
 10
2974.725
 20
-702.696
 40
11.97
 50
249.737
 51
261.247
  0
ARC
  8
APS_GEOMETRY
 10
2973.855
 20
-705.053
 40
9.457
 50
235.345
 51
249.737
  0
ARC
  8
APS_GEOMETRY
 10
2972.755
 20
-706.643
 40
7.524
 50
219.198
 51
235.345
  0
ARC
  8
APS_GEOMETRY
 10
2975.068
 20
-704.671
 40
10.563
 50
209.076
 51
219.56
  0
ARC
  8
APS_GEOMETRY
 10
2980.409
 20
-701.702
 40
16.674
 50
200.735
 51
209.076
  0
ARC
  8
APS_GEOMETRY
 10
2987.779
 20
-698.912
 40
24.554
 50
197.881
 51
200.735
  0
ARC
  8
APS_GEOMETRY
 10
3018.06
 20
-689.142
 40
56.372
 50
195.997
 51
197.881
  0
ARC
  8
APS_GEOMETRY
 10
3040.442
 20
-682.725
 40
79.656
 50
194.664
 51
195.997
  0
ARC
  8
APS_GEOMETRY
 10
3102.437
 20
-666.503
 40
143.738
 50
193.671
 51
194.664
  0
ARC
  8
APS_GEOMETRY
 10
2945.227
 20
-704.723
 40
18.051
 50
13.61
 51
23.585
  0
ARC
  8
APS_GEOMETRY
 10
2957.046
 20
-699.563
 40
5.155
 50
23.585
 51
42.31
  0
ARC
  8
APS_GEOMETRY
 10
2958.118
 20
-698.587
 40
3.705
 50
42.31
 51
67.521
  0
ARC
  8
APS_GEOMETRY
 10
2957.27
 20
-700.638
 40
5.924
 50
67.521
 51
87.397
  0
LINE
  8
APS_GEOMETRY
 10
2955.675
 11
2955.315
 20
-678.041
 21
-685.661
  0
LINE
  8
APS_GEOMETRY
 10
2955.315
 11
2955.315
 20
-685.661
 21
-685.784
  0
LINE
  8
APS_GEOMETRY
 10
2955.315
 11
2955.315
 20
-685.784
 21
-685.955
  0
ARC
  8
APS_GEOMETRY
 10
2960.609
 20
-685.955
 40
5.294
 50
180.0
 51
192.339
  0
ARC
  8
APS_GEOMETRY
 10
2956.4
 20
-686.876
 40
0.986
 50
192.339
 51
221.186
  0
ARC
  8
APS_GEOMETRY
 10
2956.3
 20
-686.964
 40
0.852
 50
221.186
 51
253.872
  0
ARC
  8
APS_GEOMETRY
 10
2957.016
 20
-684.488
 40
3.429
 50
253.872
 51
270.0
  0
ARC
  8
APS_GEOMETRY
 10
2957.016
 20
-679.947
 40
7.971
 50
270.0
 51
289.569
  0
ARC
  8
APS_GEOMETRY
 10
2958.465
 20
-684.023
 40
3.644
 50
289.569
 51
318.681
  0
ARC
  8
APS_GEOMETRY
 10
2958.073
 20
-683.679
 40
4.166
 50
318.681
 51
344.628
  0
ARC
  8
APS_GEOMETRY
 10
2950.77
 20
-681.671
 40
11.74
 50
344.628
 51
0.0
  0
ARC
  8
APS_GEOMETRY
 10
2954.242
 20
-681.671
 40
8.268
 50
0.0
 51
35.369
  0
ARC
  8
APS_GEOMETRY
 10
2958.029
 20
-678.982
 40
3.623
 50
35.369
 51
90.0
  0
ARC
  8
APS_GEOMETRY
 10
2958.029
 20
-679.022
 40
3.663
 50
90.0
 51
108.435
  0
ARC
  8
APS_GEOMETRY
 10
2957.317
 20
-676.884
 40
1.409
 50
108.435
 51
138.366
  0
ARC
  8
APS_GEOMETRY
 10
2957.508
 20
-677.054
 40
1.665
 50
138.366
 51
164.291
  0
ARC
  8
APS_GEOMETRY
 10
2961.993
 20
-678.316
 40
6.324
 50
164.291
 51
177.51
  0
LINE
  8
APS_GEOMETRY
 10
3013.894
 11
3030.18
 20
-670.421
 21
-684.68
  0
ARC
  8
APS_GEOMETRY
 10
3045.412
 20
-667.201
 40
23.185
 50
228.93
 51
232.674
  0
ARC
  8
APS_GEOMETRY
 10
3036.938
 20
-678.313
 40
9.21
 50
232.674
 51
238.617
  0
ARC
  8
APS_GEOMETRY
 10
3034.806
 20
-681.808
 40
5.116
 50
238.617
 51
249.131
  0
ARC
  8
APS_GEOMETRY
 10
3033.45
 20
-685.365
 40
1.309
 50
249.131
 51
270.0
  0
ARC
  8
APS_GEOMETRY
 10
3033.45
 20
-685.527
 40
1.148
 50
270.0
 51
334.898
  0
ARC
  8
APS_GEOMETRY
 10
3028.152
 20
-683.045
 40
6.999
 50
334.898
 51
0.0
  0
ARC
  8
APS_GEOMETRY
 10
2976.921
 20
-683.045
 40
58.23
 50
0.0
 51
2.026
  0
ARC
  8
APS_GEOMETRY
 10
3007.808
 20
-681.952
 40
27.324
 50
2.026
 51
4.984
  0
ARC
  8
APS_GEOMETRY
 10
3017.907
 20
-681.071
 40
17.186
 50
4.984
 51
9.673
  0
ARC
  8
APS_GEOMETRY
 10
3029.546
 20
-679.087
 40
5.379
 50
9.673
 51
18.06
  0
ARC
  8
APS_GEOMETRY
 10
3031.318
 20
-678.509
 40
3.515
 50
18.06
 51
42.397
  0
ARC
  8
APS_GEOMETRY
 10
3030.746
 20
-679.032
 40
4.29
 50
42.397
 51
64.398
  0
ARC
  8
APS_GEOMETRY
 10
3035.97
 20
-668.246
 40
7.695
 50
233.633
 51
244.026
  0
ARC
  8
APS_GEOMETRY
 10
3033.125
 20
-672.109
 40
2.896
 50
216.656
 51
233.633
  0
ARC
  8
APS_GEOMETRY
 10
3032.689
 20
-672.434
 40
2.353
 50
196.082
 51
216.656
  0
ARC
  8
APS_GEOMETRY
 10
3034.113
 20
-672.024
 40
3.835
 50
180.0
 51
196.082
  0
ARC
  8
APS_GEOMETRY
 10
3033.066
 20
-672.024
 40
2.788
 50
133.202
 51
180.0
  0
ARC
  8
APS_GEOMETRY
 10
3035.265
 20
-674.365
 40
6.0
 50
101.788
 51
133.202
  0
ARC
  8
APS_GEOMETRY
 10
3035.777
 20
-676.661
 40
8.353
 50
96.633
 51
102.011
  0
ARC
  8
APS_GEOMETRY
 10
3037.636
 20
-692.65
 40
24.449
 50
93.489
 51
96.633
  0
ARC
  8
APS_GEOMETRY
 10
3038.433
 20
-705.709
 40
37.532
 50
91.439
 51
93.489
  0
ARC
  8
APS_GEOMETRY
 10
3039.402
 20
-744.303
 40
76.138
 50
90.0
 51
91.439
  0
ARC
  8
APS_GEOMETRY
 10
3039.402
 20
-739.129
 40
70.964
 50
87.994
 51
90.0
  0
ARC
  8
APS_GEOMETRY
 10
3040.692
 20
-702.288
 40
34.101
 50
85.101
 51
87.994
  0
ARC
  8
APS_GEOMETRY
 10
3041.74
 20
-690.072
 40
21.84
 50
80.595
 51
85.101
  0
ARC
  8
APS_GEOMETRY
 10
3044.127
 20
-675.658
 40
7.23
 50
72.759
 51
80.595
  0
ARC
  8
APS_GEOMETRY
 10
3044.85
 20
-673.418
 40
4.876
 50
40.956
 51
73.072
  0
ARC
  8
APS_GEOMETRY
 10
3046.231
 20
-672.22
 40
3.048
 50
360.0
 51
40.956
  0
ARC
  8
APS_GEOMETRY
 10
3046.414
 20
-672.22
 40
2.865
 50
322.573
 51
360.0
  0
ARC
  8
APS_GEOMETRY
 10
3044.909
 20
-671.068
 40
4.76
 50
293.749
 51
322.573
  0
ARC
  8
APS_GEOMETRY
 10
3050.953
 20
-684.949
 40
10.38
 50
113.429
 51
119.291
  0
ARC
  8
APS_GEOMETRY
 10
3046.914
 20
-677.749
 40
2.124
 50
119.291
 51
132.274
  0
ARC
  8
APS_GEOMETRY
 10
3046.681
 20
-677.492
 40
1.778
 50
132.274
 51
147.653
  0
ARC
  8
APS_GEOMETRY
 10
3048.363
 20
-678.558
 40
3.769
 50
147.653
 51
158.199
  0
ARC
  8
APS_GEOMETRY
 10
3050.923
 20
-679.637
 40
6.546
 50
157.751
 51
167.885
  0
ARC
  8
APS_GEOMETRY
 10
3064.543
 20
-682.56
 40
20.477
 50
167.885
 51
173.61
  0
ARC
  8
APS_GEOMETRY
 10
3076.589
 20
-683.91
 40
32.599
 50
173.61
 51
177.221
  0
ARC
  8
APS_GEOMETRY
 10
3113.745
 20
-685.713
 40
69.798
 50
177.221
 51
179.689
  0
LINE
  8
APS_GEOMETRY
 10
3043.948
 11
3043.948
 20
-685.334
 21
-695.995
  0
ARC
  8
APS_GEOMETRY
 10
3479.314
 20
-695.995
 40
435.365
 50
180.0
 51
180.161
  0
ARC
  8
APS_GEOMETRY
 10
3857.133
 20
-694.931
 40
813.186
 50
180.161
 51
180.279
  0
LINE
  8
APS_GEOMETRY
 10
3043.956
 11
3043.966
 20
-698.898
 21
-700.686
  0
LINE
  8
APS_GEOMETRY
 10
3043.966
 11
3043.981
 20
-700.686
 21
-702.699
  0
ARC
  8
APS_GEOMETRY
 10
2966.297
 20
-703.141
 40
77.685
 50
358.204
 51
0.326
  0
ARC
  8
APS_GEOMETRY
 10
3003.251
 20
-704.299
 40
40.713
 50
355.274
 51
358.204
  0
ARC
  8
APS_GEOMETRY
 10
3016.114
 20
-705.363
 40
27.806
 50
350.991
 51
355.274
  0
ARC
  8
APS_GEOMETRY
 10
3032.492
 20
-707.959
 40
11.223
 50
344.249
 51
350.991
  0
ARC
  8
APS_GEOMETRY
 10
3038.028
 20
-709.54
 40
5.466
 50
314.415
 51
344.445
  0
ARC
  8
APS_GEOMETRY
 10
3040.056
 20
-711.61
 40
2.568
 50
270.0
 51
314.415
  0
ARC
  8
APS_GEOMETRY
 10
3040.056
 20
-710.018
 40
4.16
 50
256.342
 51
270.0
  0
ARC
  8
APS_GEOMETRY
 10
3039.76
 20
-711.238
 40
2.905
 50
239.982
 51
256.342
  0
ARC
  8
APS_GEOMETRY
 10
3041.054
 20
-708.998
 40
5.492
 50
231.153
 51
239.982
  0
ARC
  8
APS_GEOMETRY
 10
3062.803
 20
-681.993
 40
40.166
 50
227.891
 51
231.153
  0
LINE
  8
APS_GEOMETRY
 10
3035.87
 11
3016.477
 20
-711.791
 21
-694.425
  0
ARC
  8
APS_GEOMETRY
 10
3009.006
 20
-702.697
 40
11.146
 50
47.911
 51
61.468
  0
ARC
  8
APS_GEOMETRY
 10
3013.109
 20
-695.151
 40
2.557
 50
61.468
 51
90.0
  0
ARC
  8
APS_GEOMETRY
 10
3013.109
 20
-693.714
 40
1.12
 50
90.0
 51
133.195
  0
ARC
  8
APS_GEOMETRY
 10
3014.213
 20
-694.89
 40
2.733
 50
133.195
 51
160.454
  0
ARC
  8
APS_GEOMETRY
 10
3017.757
 20
-696.148
 40
6.494
 50
160.454
 51
173.251
  0
ARC
  8
APS_GEOMETRY
 10
3034.424
 20
-698.121
 40
23.278
 50
173.251
 51
180.0
  0
ARC
  8
APS_GEOMETRY
 10
3079.765
 20
-698.121
 40
68.618
 50
180.0
 51
181.897
  0
ARC
  8
APS_GEOMETRY
 10
3043.422
 20
-699.325
 40
32.255
 50
181.897
 51
184.664
  0
ARC
  8
APS_GEOMETRY
 10
3031.51
 20
-700.296
 40
20.304
 50
184.664
 51
189.048
  0
ARC
  8
APS_GEOMETRY
 10
3017.709
 20
-702.494
 40
6.329
 50
189.048
 51
196.905
  0
ARC
  8
APS_GEOMETRY
 10
3015.518
 20
-703.16
 40
4.04
 50
196.905
 51
220.253
  0
ARC
  8
APS_GEOMETRY
 10
3015.562
 20
-703.123
 40
4.097
 50
220.253
 51
243.435
  0
ARC
  8
APS_GEOMETRY
 10
3011.565
 20
-711.184
 40
4.901
 50
37.921
 51
63.778
  0
ARC
  8
APS_GEOMETRY
 10
3013.598
 20
-709.6
 40
2.324
 50
360.0
 51
37.921
  0
ARC
  8
APS_GEOMETRY
 10
3012.694
 20
-709.6
 40
3.227
 50
324.268
 51
360.0
  0
ARC
  8
APS_GEOMETRY
 10
3011.486
 20
-708.731
 40
4.715
 50
294.86
 51
324.268
  0
ARC
  8
APS_GEOMETRY
 10
3009.489
 20
-704.421
 40
9.465
 50
278.78
 51
294.86
  0
ARC
  8
APS_GEOMETRY
 10
3006.11
 20
-682.541
 40
31.604
 50
270.0
 51
278.78
  0
ARC
  8
APS_GEOMETRY
 10
3006.11
 20
-688.213
 40
25.933
 50
260.383
 51
270.0
  0
ARC
  8
APS_GEOMETRY
 10
3003.377
 20
-704.342
 40
9.574
 50
244.522
 51
260.383
  0
ARC
  8
APS_GEOMETRY
 10
3001.398
 20
-708.496
 40
4.972
 50
216.549
 51
244.522
  0
ARC
  8
APS_GEOMETRY
 10
2999.776
 20
-709.698
 40
2.954
 50
180.0
 51
216.549
  0
ARC
  8
APS_GEOMETRY
 10
3000.829
 20
-709.698
 40
4.007
 50
164.65
 51
180.0
  0
ARC
  8
APS_GEOMETRY
 10
2998.544
 20
-709.071
 40
1.637
 50
140.528
 51
164.65
  0
ARC
  8
APS_GEOMETRY
 10
2999.468
 20
-709.832
 40
2.835
 50
126.135
 51
140.528
  0
ARC
  8
APS_GEOMETRY
 10
3009.123
 20
-723.055
 40
19.207
 50
120.619
 51
126.135
  0
ARC
  8
APS_GEOMETRY
 10
2997.677
 20
-703.733
 40
3.251
 50
300.784
 51
330.068
  0
ARC
  8
APS_GEOMETRY
 10
2995.511
 20
-702.486
 40
5.749
 50
330.068
 51
351.983
  0
ARC
  8
APS_GEOMETRY
 10
2959.149
 20
-697.746
 40
42.42
 50
352.493
 51
355.365
  0
ARC
  8
APS_GEOMETRY
 10
2915.286
 20
-694.189
 40
86.427
 50
355.365
 51
357.376
  0
ARC
  8
APS_GEOMETRY
 10
2884.573
 20
-692.782
 40
117.171
 50
357.376
 51
358.861
  0
ARC
  8
APS_GEOMETRY
 10
2802.747
 20
-691.155
 40
199.014
 50
358.861
 51
0.0
  0
ARC
  8
APS_GEOMETRY
 10
2876.336
 20
-691.155
 40
125.424
 50
360.0
 51
1.926
  0
ARC
  8
APS_GEOMETRY
 10
2934.723
 20
-689.191
 40
67.005
 50
1.926
 51
4.562
  0
ARC
  8
APS_GEOMETRY
 10
2955.31
 20
-687.549
 40
46.352
 50
4.562
 51
8.366
  0
ARC
  8
APS_GEOMETRY
 10
2982.086
 20
-683.611
 40
19.288
 50
8.366
 51
14.265
  0
ARC
  8
APS_GEOMETRY
 10
2992.211
 20
-681.05
 40
8.844
 50
14.349
 51
23.629
  0
ARC
  8
APS_GEOMETRY
 10
2997.345
 20
-678.804
 40
3.24
 50
23.629
 51
38.991
  0
ARC
  8
APS_GEOMETRY
 10
2997.365
 20
-678.789
 40
3.215
 50
38.991
 51
54.462
  0
ARC
  8
APS_GEOMETRY
 10
2994.36
 20
-682.994
 40
8.384
 50
54.462
 51
64.026
  0
ARC
  8
APS_GEOMETRY
 10
3002.838
 20
-665.627
 40
10.942
 50
235.472
 51
243.947
  0
ARC
  8
APS_GEOMETRY
 10
2998.459
 20
-671.992
 40
3.216
 50
219.806
 51
235.472
  0
ARC
  8
APS_GEOMETRY
 10
2997.796
 20
-672.545
 40
2.353
 50
198.939
 51
219.806
  0
ARC
  8
APS_GEOMETRY
 10
2998.267
 20
-672.383
 40
2.851
 50
180.0
 51
198.939
  0
ARC
  8
APS_GEOMETRY
 10
2998.128
 20
-672.383
 40
2.712
 50
126.254
 51
180.0
  0
ARC
  8
APS_GEOMETRY
 10
3002.267
 20
-678.028
 40
9.711
 50
98.616
 51
126.254
  0
ARC
  8
APS_GEOMETRY
 10
3002.85
 20
-682.691
 40
14.41
 50
94.456
 51
98.13
  0
ARC
  8
APS_GEOMETRY
 10
3005.098
 20
-711.543
 40
43.349
 50
92.337
 51
94.456
  0
ARC
  8
APS_GEOMETRY
 10
3006.057
 20
-735.021
 40
66.847
 50
90.963
 51
92.337
  0
ARC
  8
APS_GEOMETRY
 10
3007.222
 20
-804.37
 40
136.206
 50
90.0
 51
90.963
  0
ARC
  8
APS_GEOMETRY
 10
3007.222
 20
-692.986
 40
24.822
 50
83.928
 51
90.0
  0
ARC
  8
APS_GEOMETRY
 10
3009.258
 20
-673.849
 40
5.577
 50
71.095
 51
83.928
  0
ARC
  8
APS_GEOMETRY
 10
3009.444
 20
-673.306
 40
5.003
 50
56.848
 51
71.095
  0
ARC
  8
APS_GEOMETRY
 10
3003.941
 20
-681.73
 40
15.065
 50
48.652
 51
56.848
  0
ARC
  8
APS_GEOMETRY
 10
3072.701
 20
-708.772
 40
40.608
 50
84.71
 51
90.0
  0
ARC
  8
APS_GEOMETRY
 10
3073.445
 20
-700.732
 40
32.533
 50
78.799
 51
84.71
  0
ARC
  8
APS_GEOMETRY
 10
3078.262
 20
-676.389
 40
7.718
 50
49.783
 51
78.771
  0
ARC
  8
APS_GEOMETRY
 10
3081.483
 20
-672.579
 40
2.729
 50
360.0
 51
49.783
  0
ARC
  8
APS_GEOMETRY
 10
3081.193
 20
-672.579
 40
3.02
 50
342.759
 51
360.0
  0
ARC
  8
APS_GEOMETRY
 10
3082.768
 20
-673.068
 40
1.37
 50
317.045
 51
342.759
  0
ARC
  8
APS_GEOMETRY
 10
3082.008
 20
-672.36
 40
2.41
 50
301.817
 51
317.045
  0
ARC
  8
APS_GEOMETRY
 10
3070.751
 20
-654.218
 40
23.76
 50
296.98
 51
301.817
  0
ARC
  8
APS_GEOMETRY
 10
3082.753
 20
-677.836
 40
2.733
 50
116.565
 51
149.078
  0
ARC
  8
APS_GEOMETRY
 10
3086.272
 20
-679.944
 40
6.835
 50
149.078
 51
169.469
  0
ARC
  8
APS_GEOMETRY
 10
3093.776
 20
-681.339
 40
14.468
 50
169.469
 51
174.598
  0
ARC
  8
APS_GEOMETRY
 10
3132.441
 20
-684.996
 40
53.304
 50
174.598
 51
177.269
  0
ARC
  8
APS_GEOMETRY
 10
3166.438
 20
-686.617
 40
87.341
 50
177.269
 51
178.901
  0
ARC
  8
APS_GEOMETRY
 10
3271.745
 20
-688.637
 40
192.667
 50
178.901
 51
180.0
  0
ARC
  8
APS_GEOMETRY
 10
3485.735
 20
-688.637
 40
406.657
 50
180.0
 51
180.88
  0
ARC
  8
APS_GEOMETRY
 10
3235.215
 20
-692.485
 40
156.107
 50
180.88
 51
182.3
  0
ARC
  8
APS_GEOMETRY
 10
3161.989
 20
-695.426
 40
82.823
 50
182.3
 51
184.974
  0
ARC
  8
APS_GEOMETRY
 10
3092.169
 20
-701.502
 40
12.738
 50
184.974
 51
191.793
  0
ARC
  8
APS_GEOMETRY
 10
3084.058
 20
-703.054
 40
4.484
 50
193.57
 51
205.787
  0
ARC
  8
APS_GEOMETRY
 10
3082.041
 20
-704.028
 40
2.244
 50
205.787
 51
223.091
  0
ARC
  8
APS_GEOMETRY
 10
3082.553
 20
-703.55
 40
2.944
 50
223.091
 51
236.441
  0
ARC
  8
APS_GEOMETRY
 10
3086.836
 20
-697.092
 40
10.693
 50
236.441
 51
243.435
  0
ARC
  8
APS_GEOMETRY
 10
3080.279
 20
-710.563
 40
4.291
 50
37.185
 51
65.556
  0
ARC
  8
APS_GEOMETRY
 10
3081.677
 20
-709.502
 40
2.535
 50
360.0
 51
37.185
  0
ARC
  8
APS_GEOMETRY
 10
3081.601
 20
-709.502
 40
2.612
 50
312.039
 51
360.0
  0
ARC
  8
APS_GEOMETRY
 10
3078.49
 20
-706.051
 40
7.258
 50
283.815
 51
312.039
  0
ARC
  8
APS_GEOMETRY
 10
3073.349
 20
-684.746
 40
29.174
 50
279.273
 51
283.627
  0
ARC
  8
APS_GEOMETRY
 10
3071.295
 20
-672.161
 40
41.926
 50
275.641
 51
279.273
  0
ARC
  8
APS_GEOMETRY
 10
3070.509
 20
-664.207
 40
49.919
 50
272.588
 51
275.641
  0
ARC
  8
APS_GEOMETRY
 10
3069.627
 20
-644.69
 40
69.456
 50
270.0
 51
272.588
  0
ARC
  8
APS_GEOMETRY
 10
3069.627
 20
-672.252
 40
41.894
 50
262.774
 51
270.0
  0
ARC
  8
APS_GEOMETRY
 10
3065.85
 20
-702.039
 40
11.868
 50
249.175
 51
262.774
  0
ARC
  8
APS_GEOMETRY
 10
3063.477
 20
-708.277
 40
5.194
 50
221.23
 51
249.175
  0
ARC
  8
APS_GEOMETRY
 10
3061.408
 20
-710.09
 40
2.443
 50
180.0
 51
221.23
  0
ARC
  8
APS_GEOMETRY
 10
3061.007
 20
-710.09
 40
2.041
 50
142.696
 51
180.0
  0
ARC
  8
APS_GEOMETRY
 10
3064.228
 20
-712.545
 40
6.091
 50
121.357
 51
142.696
  0
ARC
  8
APS_GEOMETRY
 10
3058.785
 20
-703.63
 40
4.354
 50
301.477
 51
324.728
  0
ARC
  8
APS_GEOMETRY
 10
3059.365
 20
-704.04
 40
3.643
 50
324.728
 51
350.181
  0
ARC
  8
APS_GEOMETRY
 10
3041.125
 20
-701.023
 40
22.132
 50
350.538
 51
355.423
  0
ARC
  8
APS_GEOMETRY
 10
2966.172
 20
-695.023
 40
97.324
 50
355.423
 51
357.752
  0
ARC
  8
APS_GEOMETRY
 10
2896.579
 20
-692.291
 40
166.971
 50
357.752
 51
359.111
  0
ARC
  8
APS_GEOMETRY
 10
2673.832
 20
-688.833
 40
389.744
 50
359.111
 51
0.0
  0
ARC
  8
APS_GEOMETRY
 10
2928.353
 20
-688.833
 40
135.223
 50
0.0
 51
1.773
  0
ARC
  8
APS_GEOMETRY
 10
3007.713
 20
-686.377
 40
55.825
 50
1.773
 51
4.532
  0
ARC
  8
APS_GEOMETRY
 10
3031.834
 20
-684.465
 40
31.629
 50
4.532
 51
9.384
  0
ARC
  8
APS_GEOMETRY
 10
3056.328
 20
-680.417
 40
6.803
 50
9.384
 51
19.855
  0
ARC
  8
APS_GEOMETRY
 10
3059.569
 20
-679.184
 40
3.336
 50
18.853
 51
42.158
  0
ARC
  8
APS_GEOMETRY
 10
3056.791
 20
-681.7
 40
7.084
 50
42.158
 51
58.092
  0
ARC
  8
APS_GEOMETRY
 10
3069.02
 20
-662.803
 40
15.426
 50
230.711
 51
236.634
  0
ARC
  8
APS_GEOMETRY
 10
3061.338
 20
-672.191
 40
3.296
 50
217.875
 51
230.711
  0
ARC
  8
APS_GEOMETRY
 10
3060.285
 20
-673.01
 40
1.962
 50
196.928
 51
217.875
  0
ARC
  8
APS_GEOMETRY
 10
3061.271
 20
-672.71
 40
2.992
 50
180.0
 51
196.928
  0
ARC
  8
APS_GEOMETRY
 10
3060.626
 20
-672.71
 40
2.347
 50
148.791
 51
180.0
  0
ARC
  8
APS_GEOMETRY
 10
3061.242
 20
-673.083
 40
3.067
 50
121.569
 51
148.791
  0
ARC
  8
APS_GEOMETRY
 10
3062.347
 20
-674.882
 40
5.178
 50
112.806
 51
121.569
  0
ARC
  8
APS_GEOMETRY
 10
3065.334
 20
-681.986
 40
12.885
 50
107.254
 51
112.806
  0
ARC
  8
APS_GEOMETRY
 10
3067.164
 20
-687.878
 40
19.054
 50
103.487
 51
107.254
  0
ARC
  8
APS_GEOMETRY
 10
3071.354
 20
-705.35
 40
37.022
 50
100.784
 51
103.487
  0
ARC
  8
APS_GEOMETRY
 10
3072.667
 20
-710.181
 40
42.015
 50
95.643
 51
101.31
  0
ARC
  8
APS_GEOMETRY
 10
3072.701
 20
-710.527
 40
42.362
 50
90.0
 51
95.643
  0
ARC
  8
APS_GEOMETRY
 10
3113.371
 20
-689.199
 40
21.264
 50
77.257
 51
90.0
  0
ARC
  8
APS_GEOMETRY
 10
3113.155
 20
-690.155
 40
22.243
 50
64.799
 51
77.257
  0
ARC
  8
APS_GEOMETRY
 10
3131.473
 20
-651.156
 40
20.843
 50
244.885
 51
251.175
  0
ARC
  8
APS_GEOMETRY
 10
3125.504
 20
-668.664
 40
2.346
 50
251.175
 51
270.0
  0
ARC
  8
APS_GEOMETRY
 10
3125.504
 20
-667.203
 40
3.806
 50
270.0
 51
278.82
  0
ARC
  8
APS_GEOMETRY
 10
3123.045
 20
-651.356
 40
19.844
 50
278.82
 51
282.68
  0
ARC
  8
APS_GEOMETRY
 10
3128.19
 20
-674.136
 40
3.511
 50
95.906
 51
102.995
  0
ARC
  8
APS_GEOMETRY
 10
3128.349
 20
-675.673
 40
5.055
 50
90.0
 51
95.906
  0
ARC
  8
APS_GEOMETRY
 10
3128.349
 20
-673.973
 40
3.356
 50
62.447
 51
90.0
  0
ARC
  8
APS_GEOMETRY
 10
3127.753
 20
-675.116
 40
4.645
 50
39.094
 51
62.447
  0
ARC
  8
APS_GEOMETRY
 10
3121.518
 20
-680.33
 40
12.772
 50
18.435
 51
39.611
  0
ARC
  8
APS_GEOMETRY
 10
3117.692
 20
-681.606
 40
16.806
 50
360.0
 51
18.435
  0
ARC
  8
APS_GEOMETRY
 10
3126.164
 20
-681.606
 40
8.333
 50
334.877
 51
360.0
  0
ARC
  8
APS_GEOMETRY
 10
3128.671
 20
-682.781
 40
5.565
 50
304.007
 51
334.877
  0
ARC
  8
APS_GEOMETRY
 10
3128.629
 20
-682.663
 40
5.686
 50
286.39
 51
303.69
  0
ARC
  8
APS_GEOMETRY
 10
3128.447
 20
-682.045
 40
6.33
 50
270.0
 51
286.39
  0
ARC
  8
APS_GEOMETRY
 10
3128.447
 20
-682.119
 40
6.257
 50
255.155
 51
270.0
  0
ARC
  8
APS_GEOMETRY
 10
3127.762
 20
-684.705
 40
3.581
 50
235.491
 51
255.155
  0
ARC
  8
APS_GEOMETRY
 10
3128.106
 20
-684.204
 40
4.189
 50
218.48
 51
235.491
  0
ARC
  8
APS_GEOMETRY
 10
3133.727
 20
-679.736
 40
11.369
 50
208.179
 51
218.48
  0
ARC
  8
APS_GEOMETRY
 10
3076.102
 20
-711.015
 40
54.198
 50
28.56
 51
31.664
  0
ARC
  8
APS_GEOMETRY
 10
3111.315
 20
-689.299
 40
12.827
 50
31.664
 51
38.047
  0
ARC
  8
APS_GEOMETRY
 10
3113.875
 20
-687.295
 40
9.576
 50
38.047
 51
46.56
  0
ARC
  8
APS_GEOMETRY
 10
3112.544
 20
-688.7
 40
11.512
 50
46.56
 51
54.324
  0
ARC
  8
APS_GEOMETRY
 10
3111.776
 20
-690.022
 40
13.034
 50
54.968
 51
71.48
  0
ARC
  8
APS_GEOMETRY
 10
3112.619
 20
-687.505
 40
10.38
 50
71.48
 51
90.0
  0
ARC
  8
APS_GEOMETRY
 10
3112.619
 20
-684.376
 40
7.251
 50
90.0
 51
114.63
  0
ARC
  8
APS_GEOMETRY
 10
3112.255
 20
-683.582
 40
6.377
 50
114.63
 51
140.921
  0
ARC
  8
APS_GEOMETRY
 10
3113.331
 20
-684.455
 40
7.763
 50
140.921
 51
163.13
  0
ARC
  8
APS_GEOMETRY
 10
3118.708
 20
-686.086
 40
13.382
 50
163.13
 51
180.0
  0
ARC
  8
APS_GEOMETRY
 10
3125.681
 20
-686.086
 40
20.355
 50
180.0
 51
195.44
  0
ARC
  8
APS_GEOMETRY
 10
3124.623
 20
-686.378
 40
19.258
 50
195.44
 51
211.316
  0
ARC
  8
APS_GEOMETRY
 10
3119.534
 20
-689.368
 40
13.357
 50
211.708
 51
240.457
  0
ARC
  8
APS_GEOMETRY
 10
3119.192
 20
-689.971
 40
12.663
 50
240.457
 51
270.0
  0
ARC
  8
APS_GEOMETRY
 10
3119.192
 20
-686.883
 40
15.751
 50
270.0
 51
279.549
  0
ARC
  8
APS_GEOMETRY
 10
3118.996
 20
-685.719
 40
16.931
 50
279.549
 51
288.759
  0
ARC
  8
APS_GEOMETRY
 10
3119.822
 20
-688.15
 40
14.364
 50
288.759
 51
299.545
  0
ARC
  8
APS_GEOMETRY
 10
3123.132
 20
-693.989
 40
7.652
 50
299.545
 51
314.341
  0
ARC
  8
APS_GEOMETRY
 10
3133.367
 20
-704.62
 40
7.105
 50
120.141
 51
133.452
  0
ARC
  8
APS_GEOMETRY
 10
3130.508
 20
-699.696
 40
1.412
 50
90.0
 51
120.141
  0
ARC
  8
APS_GEOMETRY
 10
3130.508
 20
-700.514
 40
2.23
 50
61.952
 51
90.0
  0
ARC
  8
APS_GEOMETRY
 10
3130.176
 20
-701.137
 40
2.936
 50
37.569
 51
61.952
  0
ARC
  8
APS_GEOMETRY
 10
3129.556
 20
-701.614
 40
3.717
 50
17.665
 51
37.569
  0
ARC
  8
APS_GEOMETRY
 10
3128.612
 20
-701.915
 40
4.709
 50
360.0
 51
17.665
  0
ARC
  8
APS_GEOMETRY
 10
3126.24
 20
-701.915
 40
7.081
 50
344.932
 51
360.0
  0
ARC
  8
APS_GEOMETRY
 10
3119.942
 20
-700.219
 40
13.603
 50
334.075
 51
344.932
  0
ARC
  8
APS_GEOMETRY
 10
3119.744
 20
-700.123
 40
13.823
 50
323.374
 51
334.075
  0
ARC
  8
APS_GEOMETRY
 10
3123.807
 20
-703.143
 40
8.76
 50
309.92
 51
323.374
  0
ARC
  8
APS_GEOMETRY
 10
3127.868
 20
-707.934
 40
2.48
 50
289.026
 51
308.991
  0
ARC
  8
APS_GEOMETRY
 10
3123.535
 20
-695.369
 40
15.771
 50
281.143
 51
289.026
  0
ARC
  8
APS_GEOMETRY
 10
3127.929
 20
-718.15
 40
7.431
 50
100.437
 51
110.12
  0
ARC
  8
APS_GEOMETRY
 10
3133.751
 20
-734.04
 40
24.353
 50
110.12
 51
115.463
  0
ARC
  8
APS_GEOMETRY
 10
3112.969
 20
-690.56
 40
23.838
 50
282.94
 51
295.628
  0
ARC
  8
APS_GEOMETRY
 10
3113.175
 20
-691.454
 40
22.921
 50
270.0
 51
282.94
  0
ARC
  8
APS_GEOMETRY
 10
3113.175
 20
-690.1
 40
24.275
 50
257.307
 51
270.0
  0
ARC
  8
APS_GEOMETRY
 10
3114.2
 20
-685.55
 40
28.939
 50
245.686
 51
257.307
  0
ARC
  8
APS_GEOMETRY
 10
3111.629
 20
-691.191
 40
22.739
 50
228.801
 51
245.735
  0
ARC
  8
APS_GEOMETRY
 10
3111.672
 20
-691.142
 40
22.805
 50
211.891
 51
228.801
  0
ARC
  8
APS_GEOMETRY
 10
3113.02
 20
-690.172
 40
24.462
 50
196.728
 51
212.152
  0
ARC
  8
APS_GEOMETRY
 10
3109.532
 20
-691.22
 40
20.82
 50
180.0
 51
196.728
  0
ARC
  8
APS_GEOMETRY
 10
3110.04
 20
-691.22
 40
21.327
 50
161.184
 51
180.0
  0
ARC
  8
APS_GEOMETRY
 10
3111.408
 20
-691.687
 40
22.773
 50
142.98
 51
161.184
  0
ARC
  8
APS_GEOMETRY
 10
3112.472
 20
-692.501
 40
24.112
 50
127.824
 51
142.958
  0
ARC
  8
APS_GEOMETRY
 10
3114.226
 20
-694.76
 40
26.973
 50
113.52
 51
127.824
  0
ARC
  8
APS_GEOMETRY
 10
3113.655
 20
-693.441
 40
25.535
 50
101.927
 51
113.527
  0
ARC
  8
APS_GEOMETRY
 10
3113.371
 20
-692.097
 40
24.161
 50
90.0
 51
101.927
  0
ARC
  8
APS_GEOMETRY
 10
3157.92
 20
-708.772
 40
40.608
 50
84.71
 51
90.0
  0
ARC
  8
APS_GEOMETRY
 10
3158.664
 20
-700.732
 40
32.533
 50
78.799
 51
84.71
  0
ARC
  8
APS_GEOMETRY
 10
3163.481
 20
-676.389
 40
7.718
 50
49.783
 51
78.771
  0
ARC
  8
APS_GEOMETRY
 10
3166.702
 20
-672.579
 40
2.729
 50
360.0
 51
49.783
  0
ARC
  8
APS_GEOMETRY
 10
3166.412
 20
-672.579
 40
3.02
 50
342.759
 51
360.0
  0
ARC
  8
APS_GEOMETRY
 10
3167.987
 20
-673.068
 40
1.37
 50
317.045
 51
342.759
  0
ARC
  8
APS_GEOMETRY
 10
3167.226
 20
-672.36
 40
2.41
 50
301.817
 51
317.045
  0
ARC
  8
APS_GEOMETRY
 10
3155.97
 20
-654.218
 40
23.76
 50
296.98
 51
301.817
  0
ARC
  8
APS_GEOMETRY
 10
3167.972
 20
-677.836
 40
2.733
 50
116.565
 51
149.078
  0
ARC
  8
APS_GEOMETRY
 10
3171.491
 20
-679.944
 40
6.835
 50
149.078
 51
169.469
  0
ARC
  8
APS_GEOMETRY
 10
3178.995
 20
-681.339
 40
14.468
 50
169.469
 51
174.598
  0
ARC
  8
APS_GEOMETRY
 10
3217.659
 20
-684.996
 40
53.304
 50
174.598
 51
177.269
  0
ARC
  8
APS_GEOMETRY
 10
3251.657
 20
-686.617
 40
87.341
 50
177.269
 51
178.901
  0
ARC
  8
APS_GEOMETRY
 10
3356.964
 20
-688.637
 40
192.667
 50
178.901
 51
180.0
  0
ARC
  8
APS_GEOMETRY
 10
3570.954
 20
-688.637
 40
406.657
 50
180.0
 51
180.88
  0
ARC
  8
APS_GEOMETRY
 10
3320.434
 20
-692.485
 40
156.107
 50
180.88
 51
182.3
  0
ARC
  8
APS_GEOMETRY
 10
3247.208
 20
-695.426
 40
82.823
 50
182.3
 51
184.974
  0
ARC
  8
APS_GEOMETRY
 10
3177.387
 20
-701.502
 40
12.738
 50
184.974
 51
191.793
  0
ARC
  8
APS_GEOMETRY
 10
3169.277
 20
-703.054
 40
4.484
 50
193.57
 51
205.787
  0
ARC
  8
APS_GEOMETRY
 10
3167.26
 20
-704.028
 40
2.244
 50
205.787
 51
223.091
  0
ARC
  8
APS_GEOMETRY
 10
3167.772
 20
-703.55
 40
2.944
 50
223.091
 51
236.441
  0
ARC
  8
APS_GEOMETRY
 10
3172.055
 20
-697.092
 40
10.693
 50
236.441
 51
243.435
  0
ARC
  8
APS_GEOMETRY
 10
3165.497
 20
-710.563
 40
4.291
 50
37.185
 51
65.556
  0
ARC
  8
APS_GEOMETRY
 10
3166.896
 20
-709.502
 40
2.535
 50
360.0
 51
37.185
  0
ARC
  8
APS_GEOMETRY
 10
3166.819
 20
-709.502
 40
2.612
 50
312.039
 51
360.0
  0
ARC
  8
APS_GEOMETRY
 10
3163.709
 20
-706.051
 40
7.258
 50
283.815
 51
312.039
  0
ARC
  8
APS_GEOMETRY
 10
3158.568
 20
-684.746
 40
29.174
 50
279.273
 51
283.627
  0
ARC
  8
APS_GEOMETRY
 10
3156.513
 20
-672.161
 40
41.926
 50
275.641
 51
279.273
  0
ARC
  8
APS_GEOMETRY
 10
3155.728
 20
-664.207
 40
49.919
 50
272.588
 51
275.641
  0
ARC
  8
APS_GEOMETRY
 10
3154.846
 20
-644.69
 40
69.456
 50
270.0
 51
272.588
  0
ARC
  8
APS_GEOMETRY
 10
3154.846
 20
-672.252
 40
41.894
 50
262.774
 51
270.0
  0
ARC
  8
APS_GEOMETRY
 10
3151.069
 20
-702.039
 40
11.868
 50
249.175
 51
262.774
  0
ARC
  8
APS_GEOMETRY
 10
3148.696
 20
-708.277
 40
5.194
 50
221.23
 51
249.175
  0
ARC
  8
APS_GEOMETRY
 10
3146.627
 20
-710.09
 40
2.443
 50
180.0
 51
221.23
  0
ARC
  8
APS_GEOMETRY
 10
3146.226
 20
-710.09
 40
2.041
 50
142.696
 51
180.0
  0
ARC
  8
APS_GEOMETRY
 10
3149.447
 20
-712.545
 40
6.091
 50
121.357
 51
142.696
  0
ARC
  8
APS_GEOMETRY
 10
3144.004
 20
-703.63
 40
4.354
 50
301.477
 51
324.728
  0
ARC
  8
APS_GEOMETRY
 10
3144.584
 20
-704.04
 40
3.643
 50
324.728
 51
350.181
  0
ARC
  8
APS_GEOMETRY
 10
3126.343
 20
-701.023
 40
22.132
 50
350.538
 51
355.423
  0
ARC
  8
APS_GEOMETRY
 10
3051.391
 20
-695.023
 40
97.324
 50
355.423
 51
357.752
  0
ARC
  8
APS_GEOMETRY
 10
2981.798
 20
-692.291
 40
166.971
 50
357.752
 51
359.111
  0
ARC
  8
APS_GEOMETRY
 10
2759.051
 20
-688.833
 40
389.744
 50
359.111
 51
0.0
  0
ARC
  8
APS_GEOMETRY
 10
3013.572
 20
-688.833
 40
135.223
 50
0.0
 51
1.773
  0
ARC
  8
APS_GEOMETRY
 10
3092.932
 20
-686.377
 40
55.825
 50
1.773
 51
4.532
  0
ARC
  8
APS_GEOMETRY
 10
3117.053
 20
-684.465
 40
31.629
 50
4.532
 51
9.384
  0
ARC
  8
APS_GEOMETRY
 10
3141.546
 20
-680.417
 40
6.803
 50
9.384
 51
19.855
  0
ARC
  8
APS_GEOMETRY
 10
3144.788
 20
-679.184
 40
3.336
 50
18.853
 51
42.158
  0
ARC
  8
APS_GEOMETRY
 10
3142.01
 20
-681.7
 40
7.084
 50
42.158
 51
58.092
  0
ARC
  8
APS_GEOMETRY
 10
3154.238
 20
-662.803
 40
15.426
 50
230.711
 51
236.634
  0
ARC
  8
APS_GEOMETRY
 10
3146.557
 20
-672.191
 40
3.296
 50
217.875
 51
230.711
  0
ARC
  8
APS_GEOMETRY
 10
3145.504
 20
-673.01
 40
1.962
 50
196.928
 51
217.875
  0
ARC
  8
APS_GEOMETRY
 10
3146.49
 20
-672.71
 40
2.992
 50
180.0
 51
196.928
  0
ARC
  8
APS_GEOMETRY
 10
3145.845
 20
-672.71
 40
2.347
 50
148.791
 51
180.0
  0
ARC
  8
APS_GEOMETRY
 10
3146.46
 20
-673.083
 40
3.067
 50
121.569
 51
148.791
  0
ARC
  8
APS_GEOMETRY
 10
3147.566
 20
-674.882
 40
5.178
 50
112.806
 51
121.569
  0
ARC
  8
APS_GEOMETRY
 10
3150.553
 20
-681.986
 40
12.885
 50
107.254
 51
112.806
  0
ARC
  8
APS_GEOMETRY
 10
3152.383
 20
-687.878
 40
19.054
 50
103.487
 51
107.254
  0
ARC
  8
APS_GEOMETRY
 10
3156.573
 20
-705.35
 40
37.022
 50
100.784
 51
103.487
  0
ARC
  8
APS_GEOMETRY
 10
3157.886
 20
-710.181
 40
42.015
 50
95.643
 51
101.31
  0
ARC
  8
APS_GEOMETRY
 10
3157.92
 20
-710.527
 40
42.362
 50
90.0
 51
95.643
  0
LINE
  8
APS_GEOMETRY
 10
3227.068
 11
3227.068
 20
-698.088
 21
-680.886
  0
ARC
  8
APS_GEOMETRY
 10
3187.347
 20
-680.886
 40
39.721
 50
0.0
 51
2.404
  0
ARC
  8
APS_GEOMETRY
 10
3210.864
 20
-679.899
 40
16.183
 50
2.404
 51
6.17
  0
ARC
  8
APS_GEOMETRY
 10
3217.913
 20
-679.137
 40
9.093
 50
6.17
 51
12.824
  0
ARC
  8
APS_GEOMETRY
 10
3224.812
 20
-677.566
 40
2.017
 50
12.824
 51
26.98
  0
ARC
  8
APS_GEOMETRY
 10
3225.135
 20
-677.402
 40
1.655
 50
26.98
 51
59.65
  0
ARC
  8
APS_GEOMETRY
 10
3222.097
 20
-682.591
 40
7.668
 50
59.65
 51
74.667
  0
ARC
  8
APS_GEOMETRY
 10
3225.599
 20
-670.092
 40
5.313
 50
225.0
 51
253.887
  0
ARC
  8
APS_GEOMETRY
 10
3223.438
 20
-672.252
 40
2.257
 50
180.0
 51
225.0
  0
ARC
  8
APS_GEOMETRY
 10
3223.853
 20
-672.252
 40
2.672
 50
151.157
 51
180.0
  0
ARC
  8
APS_GEOMETRY
 10
3223.847
 20
-672.249
 40
2.665
 50
122.276
 51
151.157
  0
ARC
  8
APS_GEOMETRY
 10
3224.611
 20
-673.459
 40
4.096
 50
102.308
 51
122.276
  0
ARC
  8
APS_GEOMETRY
 10
3226.021
 20
-679.923
 40
10.712
 50
90.0
 51
102.308
  0
ARC
  8
APS_GEOMETRY
 10
3226.021
 20
-692.377
 40
23.166
 50
88.989
 51
90.0
  0
ARC
  8
APS_GEOMETRY
 10
3224.074
 20
-802.722
 40
133.528
 50
88.568
 51
88.989
  0
ARC
  8
APS_GEOMETRY
 10
3221.324
 20
-912.726
 40
243.567
 50
88.337
 51
88.568
  0
ARC
  8
APS_GEOMETRY
 10
3210.666
 20
-1279.842
 40
610.838
 50
88.191
 51
88.337
  0
LINE
  8
APS_GEOMETRY
 10
3229.946
 11
3231.875
 20
-669.309
 21
-669.309
  0
ARC
  8
APS_GEOMETRY
 10
3225.394
 20
406.64
 40
1075.969
 50
270.345
 51
270.49
  0
ARC
  8
APS_GEOMETRY
 10
3231.433
 20
-299.97
 40
369.332
 50
270.49
 51
270.736
  0
ARC
  8
APS_GEOMETRY
 10
3233.912
 20
-492.842
 40
176.445
 50
270.736
 51
271.253
  0
ARC
  8
APS_GEOMETRY
 10
3237.438
 20
-654.058
 40
15.19
 50
271.253
 51
273.013
  0
ARC
  8
APS_GEOMETRY
 10
3237.291
 20
-651.271
 40
17.982
 50
273.013
 51
274.5
  0
ARC
  8
APS_GEOMETRY
 10
3220.635
 20
-439.617
 40
230.289
 50
274.5
 51
274.915
  0
LINE
  8
APS_GEOMETRY
 10
3240.366
 11
3242.329
 20
-669.06
 21
-668.887
  0
LINE
  8
APS_GEOMETRY
 10
3242.329
 11
3244.891
 20
-668.887
 21
-668.655
  0
ARC
  8
APS_GEOMETRY
 10
3249.104
 20
-709.379
 40
40.941
 50
93.24
 51
95.906
  0
ARC
  8
APS_GEOMETRY
 10
3248.358
 20
-696.195
 40
27.736
 50
90.0
 51
93.24
  0
ARC
  8
APS_GEOMETRY
 10
3248.358
 20
-692.012
 40
23.553
 50
77.12
 51
90.0
  0
ARC
  8
APS_GEOMETRY
 10
3249.599
 20
-686.586
 40
17.987
 50
62.371
 51
77.12
  0
ARC
  8
APS_GEOMETRY
 10
3251.7
 20
-682.646
 40
13.522
 50
31.215
 51
62.517
  0
ARC
  8
APS_GEOMETRY
 10
3251.636
 20
-682.685
 40
13.597
 50
360.0
 51
31.215
  0
ARC
  8
APS_GEOMETRY
 10
3251.271
 20
-682.685
 40
13.962
 50
334.496
 51
360.0
  0
ARC
  8
APS_GEOMETRY
 10
3251.958
 20
-683.012
 40
13.201
 50
308.254
 51
334.496
  0
ARC
  8
APS_GEOMETRY
 10
3249.858
 20
-680.246
 40
16.674
 50
287.855
 51
308.034
  0
ARC
  8
APS_GEOMETRY
 10
3248.456
 20
-675.893
 40
21.247
 50
270.0
 51
287.855
  0
ARC
  8
APS_GEOMETRY
 10
3248.456
 20
-664.943
 40
32.197
 50
266.918
 51
270.0
  0
ARC
  8
APS_GEOMETRY
 10
3250.411
 20
-628.646
 40
68.546
 50
264.806
 51
266.918
  0
ARC
  8
APS_GEOMETRY
 10
3237.338
 20
-790.755
 40
94.095
 50
85.815
 51
86.634
  0
ARC
  8
APS_GEOMETRY
 10
3242.537
 20
-702.376
 40
5.563
 50
86.634
 51
90.0
  0
ARC
  8
APS_GEOMETRY
 10
3242.537
 20
-697.634
 40
0.821
 50
90.0
 51
139.686
  0
ARC
  8
APS_GEOMETRY
 10
3242.841
 20
-697.892
 40
1.22
 50
139.686
 51
180.0
  0
LINE
  8
APS_GEOMETRY
 10
3241.621
 11
3241.621
 20
-697.892
 21
-698.088
  0
LINE
  8
APS_GEOMETRY
 10
3241.621
 11
3241.85
 20
-698.088
 21
-703.452
  0
ARC
  8
APS_GEOMETRY
 10
3249.6
 20
-703.129
 40
7.757
 50
182.386
 51
193.753
  0
ARC
  8
APS_GEOMETRY
 10
3244.602
 20
-704.352
 40
2.612
 50
193.753
 51
213.408
  0
ARC
  8
APS_GEOMETRY
 10
3244.659
 20
-704.315
 40
2.679
 50
213.408
 51
232.628
  0
ARC
  8
APS_GEOMETRY
 10
3249.169
 20
-698.409
 40
10.11
 50
232.628
 51
242.488
  0
ARC
  8
APS_GEOMETRY
 10
3241.646
 20
-712.674
 40
6.017
 50
40.539
 51
61.699
  0
ARC
  8
APS_GEOMETRY
 10
3244.935
 20
-709.861
 40
1.69
 50
360.0
 51
40.539
  0
ARC
  8
APS_GEOMETRY
 10
3244.355
 20
-709.861
 40
2.269
 50
315.297
 51
360.0
  0
ARC
  8
APS_GEOMETRY
 10
3241.286
 20
-706.824
 40
6.588
 50
289.502
 51
315.297
  0
ARC
  8
APS_GEOMETRY
 10
3239.036
 20
-700.472
 40
13.326
 50
282.372
 51
289.502
  0
ARC
  8
APS_GEOMETRY
 10
3236.674
 20
-689.701
 40
24.353
 50
277.099
 51
282.372
  0
ARC
  8
APS_GEOMETRY
 10
3235.702
 20
-681.902
 40
32.213
 50
273.104
 51
277.099
  0
ARC
  8
APS_GEOMETRY
 10
3234.557
 20
-660.783
 40
53.362
 50
270.0
 51
273.104
  0
ARC
  8
APS_GEOMETRY
 10
3234.557
 20
-661.423
 40
52.723
 50
263.473
 51
270.0
  0
ARC
  8
APS_GEOMETRY
 10
3230.225
 20
-699.29
 40
14.609
 50
251.056
 51
263.473
  0
ARC
  8
APS_GEOMETRY
 10
3227.443
 20
-707.395
 40
6.039
 50
224.161
 51
251.056
  0
ARC
  8
APS_GEOMETRY
 10
3224.768
 20
-709.992
 40
2.311
 50
180.0
 51
224.161
  0
ARC
  8
APS_GEOMETRY
 10
3225.248
 20
-709.992
 40
2.791
 50
160.821
 51
180.0
  0
ARC
  8
APS_GEOMETRY
 10
3224.077
 20
-709.585
 40
1.552
 50
135.0
 51
160.821
  0
ARC
  8
APS_GEOMETRY
 10
3225.184
 20
-710.692
 40
3.117
 50
121.522
 51
135.0
  0
ARC
  8
APS_GEOMETRY
 10
3237.669
 20
-731.048
 40
26.996
 50
116.952
 51
121.522
  0
ARC
  8
APS_GEOMETRY
 10
3224.036
 20
-704.337
 40
2.993
 50
297.824
 51
321.605
  0
ARC
  8
APS_GEOMETRY
 10
3224.725
 20
-704.883
 40
2.113
 50
321.605
 51
349.992
  0
ARC
  8
APS_GEOMETRY
 10
3221.526
 20
-704.318
 40
5.362
 50
349.992
 51
356.014
  0
ARC
  8
APS_GEOMETRY
 10
3172.863
 20
-700.927
 40
54.143
 50
356.014
 51
357.908
  0
ARC
  8
APS_GEOMETRY
 10
3116.059
 20
-698.852
 40
110.985
 50
357.908
 51
358.833
  0
ARC
  8
APS_GEOMETRY
 10
2910.663
 20
-694.668
 40
316.424
 50
358.833
 51
359.381
  0
LINE
  8
APS_GEOMETRY
 10
3241.85
 11
3241.85
 20
-676.733
 21
-687.852
  0
ARC
  8
APS_GEOMETRY
 10
3245.224
 20
-687.852
 40
3.374
 50
180.0
 51
199.885
  0
ARC
  8
APS_GEOMETRY
 10
3242.699
 20
-688.765
 40
0.689
 50
199.885
 51
244.799
  0
ARC
  8
APS_GEOMETRY
 10
3244.151
 20
-685.775
 40
4.013
 50
244.231
 51
258.996
  0
ARC
  8
APS_GEOMETRY
 10
3244.761
 20
-682.638
 40
7.209
 50
258.996
 51
270.0
  0
ARC
  8
APS_GEOMETRY
 10
3244.761
 20
-683.396
 40
6.45
 50
270.0
 51
288.435
  0
ARC
  8
APS_GEOMETRY
 10
3245.223
 20
-684.785
 40
4.987
 50
288.435
 51
309.428
  0
ARC
  8
APS_GEOMETRY
 10
3245.392
 20
-684.959
 40
4.745
 50
309.193
 51
339.939
  0
ARC
  8
APS_GEOMETRY
 10
3239.522
 20
-682.816
 40
10.994
 50
339.939
 51
0.0
  0
ARC
  8
APS_GEOMETRY
 10
3240.169
 20
-682.816
 40
10.348
 50
0.0
 51
22.011
  0
ARC
  8
APS_GEOMETRY
 10
3244.753
 20
-680.962
 40
5.403
 50
22.011
 51
52.651
  0
ARC
  8
APS_GEOMETRY
 10
3244.683
 20
-681.011
 40
5.485
 50
52.374
 51
72.309
  0
ARC
  8
APS_GEOMETRY
 10
3244.237
 20
-682.407
 40
6.95
 50
72.309
 51
90.0
  0
ARC
  8
APS_GEOMETRY
 10
3244.237
 20
-679.509
 40
4.052
 50
90.0
 51
118.113
  0
ARC
  8
APS_GEOMETRY
 10
3242.754
 20
-676.733
 40
0.904
 50
118.113
 51
180.0
  0
ARC
  8
APS_GEOMETRY
 10
3294.588
 20
-693.717
 40
25.782
 50
71.91
 51
90.0
  0
ARC
  8
APS_GEOMETRY
 10
3295.586
 20
-690.66
 40
22.566
 50
52.561
 51
71.91
  0
ARC
  8
APS_GEOMETRY
 10
3295.325
 20
-690.737
 40
22.786
 50
38.846
 51
52.156
  0
ARC
  8
APS_GEOMETRY
 10
3291.752
 20
-693.613
 40
27.372
 50
26.707
 51
38.846
  0
ARC
  8
APS_GEOMETRY
 10
3292.46
 20
-693.035
 40
26.482
 50
13.868
 51
26.278
  0
ARC
  8
APS_GEOMETRY
 10
3297.559
 20
-691.776
 40
21.229
 50
360.0
 51
13.868
  0
ARC
  8
APS_GEOMETRY
 10
3297.89
 20
-691.776
 40
20.899
 50
339.712
 51
360.0
  0
ARC
  8
APS_GEOMETRY
 10
3296.713
 20
-691.342
 40
22.153
 50
320.013
 51
339.712
  0
ARC
  8
APS_GEOMETRY
 10
3296.518
 20
-691.234
 40
22.372
 50
303.344
 51
320.123
  0
ARC
  8
APS_GEOMETRY
 10
3294.222
 20
-687.745
 40
26.548
 50
287.949
 51
303.344
  0
ARC
  8
APS_GEOMETRY
 10
3293.468
 20
-685.13
 40
29.269
 50
279.039
 51
287.776
  0
ARC
  8
APS_GEOMETRY
 10
3293.77
 20
-687.029
 40
27.346
 50
270.0
 51
279.039
  0
ARC
  8
APS_GEOMETRY
 10
3293.77
 20
-688.364
 40
26.011
 50
257.728
 51
270.0
  0
ARC
  8
APS_GEOMETRY
 10
3293.811
 20
-688.176
 40
26.203
 50
245.501
 51
257.728
  0
ARC
  8
APS_GEOMETRY
 10
3292.338
 20
-691.398
 40
22.66
 50
228.665
 51
245.511
  0
ARC
  8
APS_GEOMETRY
 10
3291.848
 20
-691.955
 40
21.918
 50
211.535
 51
228.665
  0
ARC
  8
APS_GEOMETRY
 10
3292.49
 20
-691.484
 40
22.712
 50
195.642
 51
211.701
  0
ARC
  8
APS_GEOMETRY
 10
3293.664
 20
-691.155
 40
23.931
 50
180.0
 51
195.642
  0
ARC
  8
APS_GEOMETRY
 10
3293.916
 20
-691.155
 40
24.183
 50
162.181
 51
180.0
  0
ARC
  8
APS_GEOMETRY
 10
3291.709
 20
-690.446
 40
21.865
 50
143.434
 51
162.181
  0
ARC
  8
APS_GEOMETRY
 10
3291.412
 20
-690.208
 40
21.485
 50
126.384
 51
143.471
  0
ARC
  8
APS_GEOMETRY
 10
3293.446
 20
-692.969
 40
24.914
 50
110.525
 51
126.384
  0
ARC
  8
APS_GEOMETRY
 10
3293.346
 20
-692.219
 40
24.177
 50
99.77
 51
110.925
  0
ARC
  8
APS_GEOMETRY
 10
3294.588
 20
-699.431
 40
31.496
 50
90.0
 51
99.77
  0
ARC
  8
APS_GEOMETRY
 10
3291.481
 20
-682.129
 40
4.807
 50
90.0
 51
119.604
  0
ARC
  8
APS_GEOMETRY
 10
3291.902
 20
-682.87
 40
5.659
 50
119.604
 51
146.842
  0
ARC
  8
APS_GEOMETRY
 10
3292.748
 20
-683.563
 40
6.748
 50
145.84
 51
164.055
  0
ARC
  8
APS_GEOMETRY
 10
3294.709
 20
-684.124
 40
8.788
 50
164.055
 51
180.0
  0
ARC
  8
APS_GEOMETRY
 10
3306.974
 20
-684.124
 40
21.053
 50
180.0
 51
189.977
  0
ARC
  8
APS_GEOMETRY
 10
3325.625
 20
-680.843
 40
39.991
 50
189.977
 51
197.211
  0
ARC
  8
APS_GEOMETRY
 10
3329.705
 20
-679.579
 40
44.261
 50
197.211
 51
203.76
  0
ARC
  8
APS_GEOMETRY
 10
3319.542
 20
-684.053
 40
33.157
 50
203.76
 51
211.329
  0
ARC
  8
APS_GEOMETRY
 10
3298.674
 20
-696.577
 40
8.821
 50
212.32
 51
224.441
  0
ARC
  8
APS_GEOMETRY
 10
3297.819
 20
-697.416
 40
7.623
 50
224.441
 51
237.484
  0
ARC
  8
APS_GEOMETRY
 10
3297.266
 20
-698.283
 40
6.595
 50
237.484
 51
252.416
  0
ARC
  8
APS_GEOMETRY
 10
3296.713
 20
-700.026
 40
4.766
 50
252.416
 51
270.0
  0
ARC
  8
APS_GEOMETRY
 10
3296.713
 20
-699.461
 40
5.331
 50
270.0
 51
294.953
  0
ARC
  8
APS_GEOMETRY
 10
3296.863
 20
-699.782
 40
4.977
 50
294.953
 51
320.793
  0
ARC
  8
APS_GEOMETRY
 10
3296.062
 20
-699.129
 40
6.011
 50
320.793
 51
342.777
  0
ARC
  8
APS_GEOMETRY
 10
3292.494
 20
-698.023
 40
9.746
 50
342.777
 51
0.0
  0
ARC
  8
APS_GEOMETRY
 10
3275.733
 20
-698.023
 40
26.507
 50
0.0
 51
8.499
  0
ARC
  8
APS_GEOMETRY
 10
3264.066
 20
-699.766
 40
38.304
 50
8.499
 51
15.566
  0
ARC
  8
APS_GEOMETRY
 10
3265.469
 20
-699.375
 40
36.848
 50
15.566
 51
22.909
  0
ARC
  8
APS_GEOMETRY
 10
3277.532
 20
-694.277
 40
23.751
 50
22.909
 51
32.057
  0
ARC
  8
APS_GEOMETRY
 10
3287.008
 20
-688.308
 40
12.552
 50
31.921
 51
42.51
  0
ARC
  8
APS_GEOMETRY
 10
3289.61
 20
-685.923
 40
9.022
 50
42.51
 51
55.008
  0
ARC
  8
APS_GEOMETRY
 10
3290.489
 20
-684.667
 40
7.489
 50
55.008
 51
69.88
  0
ARC
  8
APS_GEOMETRY
 10
3291.277
 20
-682.516
 40
5.198
 50
69.88
 51
87.754
  0
ARC
  8
APS_GEOMETRY
 10
3345.101
 20
-697.14
 40
2.42
 50
90.0
 51
115.837
  0
ARC
  8
APS_GEOMETRY
 10
3344.506
 20
-695.909
 40
1.053
 50
115.837
 51
155.462
  0
ARC
  8
APS_GEOMETRY
 10
3345.201
 20
-696.227
 40
1.817
 50
155.462
 51
168.366
  0
ARC
  8
APS_GEOMETRY
 10
3351.547
 20
-697.533
 40
8.296
 50
168.366
 51
174.395
  0
ARC
  8
APS_GEOMETRY
 10
3357.943
 20
-698.161
 40
14.722
 50
174.395
 51
177.813
  0
ARC
  8
APS_GEOMETRY
 10
3379.171
 20
-698.971
 40
35.966
 50
177.813
 51
180.0
  0
ARC
  8
APS_GEOMETRY
 10
3394.539
 20
-698.971
 40
51.335
 50
180.0
 51
184.62
  0
ARC
  8
APS_GEOMETRY
 10
3360.12
 20
-701.753
 40
16.803
 50
184.62
 51
192.7
  0
ARC
  8
APS_GEOMETRY
 10
3346.849
 20
-704.666
 40
3.218
 50
194.036
 51
205.821
  0
ARC
  8
APS_GEOMETRY
 10
3345.444
 20
-705.346
 40
1.656
 50
205.821
 51
222.274
  0
ARC
  8
APS_GEOMETRY
 10
3345.875
 20
-704.955
 40
2.238
 50
222.274
 51
234.605
  0
ARC
  8
APS_GEOMETRY
 10
3350.735
 20
-698.114
 40
10.63
 50
234.605
 51
240.255
  0
ARC
  8
APS_GEOMETRY
 10
3343.346
 20
-711.189
 40
4.389
 50
34.592
 51
61.189
  0
ARC
  8
APS_GEOMETRY
 10
3344.796
 20
-710.188
 40
2.627
 50
360.0
 51
34.592
  0
ARC
  8
APS_GEOMETRY
 10
3344.884
 20
-710.188
 40
2.539
 50
318.231
 51
360.0
  0
ARC
  8
APS_GEOMETRY
 10
3343.186
 20
-708.672
 40
4.816
 50
288.227
 51
318.231
  0
ARC
  8
APS_GEOMETRY
 10
3341.425
 20
-703.324
 40
10.446
 50
280.377
 51
288.227
  0
ARC
  8
APS_GEOMETRY
 10
3338.355
 20
-686.56
 40
27.489
 50
275.541
 51
280.377
  0
ARC
  8
APS_GEOMETRY
 10
3337.032
 20
-672.923
 40
41.19
 50
272.304
 51
275.541
  0
ARC
  8
APS_GEOMETRY
 10
3335.421
 20
-632.887
 40
81.259
 50
270.0
 51
272.304
  0
ARC
  8
APS_GEOMETRY
 10
3335.421
 20
-666.346
 40
47.8
 50
262.811
 51
270.0
  0
ARC
  8
APS_GEOMETRY
 10
3331.132
 20
-700.352
 40
13.524
 50
249.274
 51
262.811
  0
ARC
  8
APS_GEOMETRY
 10
3328.434
 20
-707.482
 40
5.901
 50
221.379
 51
249.274
  0
ARC
  8
APS_GEOMETRY
 10
3326.067
 20
-709.567
 40
2.747
 50
180.0
 51
221.379
  0
ARC
  8
APS_GEOMETRY
 10
3326.049
 20
-709.567
 40
2.728
 50
164.055
 51
180.0
  0
ARC
  8
APS_GEOMETRY
 10
3324.912
 20
-709.242
 40
1.546
 50
142.815
 51
164.055
  0
ARC
  8
APS_GEOMETRY
 10
3325.628
 20
-709.785
 40
2.444
 50
129.007
 51
142.815
  0
ARC
  8
APS_GEOMETRY
 10
3334.42
 20
-720.639
 40
16.412
 50
123.69
 51
129.007
  0
ARC
  8
APS_GEOMETRY
 10
3321.943
 20
-701.867
 40
6.128
 50
303.389
 51
319.022
  0
ARC
  8
APS_GEOMETRY
 10
3323.602
 20
-703.307
 40
3.932
 50
319.022
 51
338.575
  0
ARC
  8
APS_GEOMETRY
 10
3321.382
 20
-702.436
 40
6.316
 50
338.575
 51
351.049
  0
ARC
  8
APS_GEOMETRY
 10
3294.576
 20
-698.214
 40
33.452
 50
351.049
 51
356.46
  0
ARC
  8
APS_GEOMETRY
 10
3303.412
 20
-698.55
 40
24.613
 50
355.972
 51
358.68
  0
ARC
  8
APS_GEOMETRY
 10
3013.221
 20
-691.864
 40
314.881
 50
358.68
 51
359.437
  0
LINE
  8
APS_GEOMETRY
 10
3328.087
 11
3328.118
 20
-694.957
 21
-690.045
  0
LINE
  8
APS_GEOMETRY
 10
3328.118
 11
3328.128
 20
-690.045
 21
-683.633
  0
ARC
  8
APS_GEOMETRY
 10
3252.319
 20
-683.633
 40
75.809
 50
0.0
 51
1.717
  0
ARC
  8
APS_GEOMETRY
 10
3292.888
 20
-682.417
 40
35.223
 50
1.717
 51
4.236
  0
ARC
  8
APS_GEOMETRY
 10
3306.117
 20
-681.437
 40
21.957
 50
4.236
 51
8.269
  0
ARC
  8
APS_GEOMETRY
 10
3321.34
 20
-679.225
 40
6.573
 50
8.269
 51
15.642
  0
ARC
  8
APS_GEOMETRY
 10
3323.96
 20
-678.491
 40
3.853
 50
15.642
 51
39.417
  0
ARC
  8
APS_GEOMETRY
 10
3324.019
 20
-678.443
 40
3.776
 50
39.417
 51
63.435
  0
ARC
  8
APS_GEOMETRY
 10
3330.821
 20
-664.353
 40
11.869
 50
236.874
 51
244.486
  0
ARC
  8
APS_GEOMETRY
 10
3325.761
 20
-672.107
 40
2.611
 50
220.601
 51
236.874
  0
ARC
  8
APS_GEOMETRY
 10
3325.181
 20
-672.604
 40
1.847
 50
198.246
 51
220.601
  0
ARC
  8
APS_GEOMETRY
 10
3326.049
 20
-672.318
 40
2.761
 50
180.0
 51
198.246
  0
ARC
  8
APS_GEOMETRY
 10
3326.036
 20
-672.318
 40
2.748
 50
156.161
 51
180.0
  0
ARC
  8
APS_GEOMETRY
 10
3326.419
 20
-672.487
 40
3.167
 50
133.977
 51
156.161
  0
ARC
  8
APS_GEOMETRY
 10
3327.182
 20
-673.278
 40
4.266
 50
116.996
 51
133.977
  0
ARC
  8
APS_GEOMETRY
 10
3328.699
 20
-676.256
 40
7.608
 50
104.3
 51
116.996
  0
ARC
  8
APS_GEOMETRY
 10
3329.091
 20
-677.762
 40
9.164
 50
95.326
 51
104.349
  0
ARC
  8
APS_GEOMETRY
 10
3330.679
 20
-694.796
 40
26.272
 50
90.0
 51
95.326
  0
ARC
  8
APS_GEOMETRY
 10
3330.679
 20
-681.537
 40
13.013
 50
87.553
 51
90.0
  0
ARC
  8
APS_GEOMETRY
 10
3327.91
 20
-746.325
 40
77.86
 50
86.553
 51
87.553
  0
ARC
  8
APS_GEOMETRY
 10
3323.974
 20
-811.672
 40
143.325
 50
86.009
 51
86.553
  0
ARC
  8
APS_GEOMETRY
 10
3308.666
 20
-1031.085
 40
363.271
 50
85.668
 51
86.009
  0
ARC
  8
APS_GEOMETRY
 10
3337.314
 20
-653.774
 40
15.125
 50
265.426
 51
268.531
  0
ARC
  8
APS_GEOMETRY
 10
3338.659
 20
-601.331
 40
67.586
 50
268.531
 51
270.0
  0
ARC
  8
APS_GEOMETRY
 10
3338.659
 20
-617.406
 40
51.511
 50
270.0
 51
271.637
  0
ARC
  8
APS_GEOMETRY
 10
3337.508
 20
-577.122
 40
91.812
 50
271.637
 51
272.862
  0
ARC
  8
APS_GEOMETRY
 10
3336.186
 20
-550.692
 40
118.274
 50
272.862
 51
273.814
  0
ARC
  8
APS_GEOMETRY
 10
3331.713
 20
-483.588
 40
185.527
 50
273.814
 51
274.574
  0
ARC
  8
APS_GEOMETRY
 10
3359.775
 20
-848.579
 40
180.543
 50
93.72
 51
94.214
  0
ARC
  8
APS_GEOMETRY
 10
3353.786
 20
-756.461
 40
88.23
 50
93.013
 51
93.72
  0
ARC
  8
APS_GEOMETRY
 10
3352.144
 20
-725.265
 40
56.991
 50
91.918
 51
93.013
  0
ARC
  8
APS_GEOMETRY
 10
3350.857
 20
-686.85
 40
18.554
 50
90.0
 51
91.918
  0
ARC
  8
APS_GEOMETRY
 10
3350.857
 20
-692.404
 40
24.109
 50
73.82
 51
90.0
  0
ARC
  8
APS_GEOMETRY
 10
3353.233
 20
-684.214
 40
15.581
 50
53.658
 51
73.82
  0
ARC
  8
APS_GEOMETRY
 10
3356.613
 20
-679.595
 40
9.857
 50
26.03
 51
53.569
  0
ARC
  8
APS_GEOMETRY
 10
3355.576
 20
-680.101
 40
11.012
 50
360.0
 51
26.03
  0
ARC
  8
APS_GEOMETRY
 10
3355.145
 20
-680.101
 40
11.443
 50
345.282
 51
360.0
  0
ARC
  8
APS_GEOMETRY
 10
3356.245
 20
-680.39
 40
10.305
 50
329.767
 51
345.282
  0
ARC
  8
APS_GEOMETRY
 10
3356.869
 20
-680.754
 40
9.583
 50
313.168
 51
329.767
  0
ARC
  8
APS_GEOMETRY
 10
3357.1
 20
-681.0
 40
9.246
 50
296.267
 51
313.168
  0
ARC
  8
APS_GEOMETRY
 10
3362.363
 20
-691.634
 40
2.62
 50
116.565
 51
139.899
  0
ARC
  8
APS_GEOMETRY
 10
3361.056
 20
-690.534
 40
0.911
 50
139.899
 51
180.0
  0
ARC
  8
APS_GEOMETRY
 10
3361.158
 20
-690.534
 40
1.013
 50
180.0
 51
226.193
  0
ARC
  8
APS_GEOMETRY
 10
3363.029
 20
-688.583
 40
3.715
 50
226.193
 51
249.829
  0
ARC
  8
APS_GEOMETRY
 10
3357.668
 20
-703.344
 40
11.989
 50
53.249
 51
70.105
  0
ARC
  8
APS_GEOMETRY
 10
3360.103
 20
-700.083
 40
7.919
 50
32.471
 51
53.249
  0
ARC
  8
APS_GEOMETRY
 10
3358.968
 20
-700.806
 40
9.264
 50
23.305
 51
32.471
  0
ARC
  8
APS_GEOMETRY
 10
3351.958
 20
-703.825
 40
16.897
 50
16.521
 51
23.305
  0
ARC
  8
APS_GEOMETRY
 10
3346.492
 20
-705.446
 40
22.598
 50
11.429
 51
16.521
  0
ARC
  8
APS_GEOMETRY
 10
3331.002
 20
-708.578
 40
38.401
 50
7.524
 51
11.429
  0
ARC
  8
APS_GEOMETRY
 10
3382.33
 20
-701.742
 40
13.38
 50
187.765
 51
196.914
  0
ARC
  8
APS_GEOMETRY
 10
3371.387
 20
-705.07
 40
1.942
 50
196.914
 51
221.082
  0
ARC
  8
APS_GEOMETRY
 10
3371.429
 20
-705.033
 40
1.997
 50
221.082
 51
244.607
  0
ARC
  8
APS_GEOMETRY
 10
3376.102
 20
-695.188
 40
12.896
 50
244.607
 51
253.811
  0
ARC
  8
APS_GEOMETRY
 10
3371.994
 20
-709.198
 40
1.705
 50
51.45
 51
72.474
  0
ARC
  8
APS_GEOMETRY
 10
3371.572
 20
-709.727
 40
2.382
 50
33.69
 51
51.45
  0
ARC
  8
APS_GEOMETRY
 10
3371.473
 20
-709.793
 40
2.5
 50
16.639
 51
33.69
  0
ARC
  8
APS_GEOMETRY
 10
3371.354
 20
-709.829
 40
2.625
 50
360.0
 51
16.639
  0
ARC
  8
APS_GEOMETRY
 10
3371.317
 20
-709.829
 40
2.662
 50
338.993
 51
360.0
  0
ARC
  8
APS_GEOMETRY
 10
3369.692
 20
-709.205
 40
4.402
 50
322.696
 51
338.993
  0
ARC
  8
APS_GEOMETRY
 10
3369.086
 20
-708.743
 40
5.164
 50
308.603
 51
322.696
  0
ARC
  8
APS_GEOMETRY
 10
3368.67
 20
-708.221
 40
5.831
 50
295.346
 51
308.603
  0
ARC
  8
APS_GEOMETRY
 10
3366.479
 20
-703.395
 40
11.131
 50
279.583
 51
294.905
  0
ARC
  8
APS_GEOMETRY
 10
3363.612
 20
-686.414
 40
28.353
 50
270.0
 51
279.583
  0
ARC
  8
APS_GEOMETRY
 10
3363.612
 20
-694.095
 40
20.672
 50
261.247
 51
270.0
  0
ARC
  8
APS_GEOMETRY
 10
3362.287
 20
-702.696
 40
11.97
 50
249.737
 51
261.247
  0
ARC
  8
APS_GEOMETRY
 10
3361.417
 20
-705.053
 40
9.457
 50
235.345
 51
249.737
  0
ARC
  8
APS_GEOMETRY
 10
3360.318
 20
-706.643
 40
7.524
 50
219.198
 51
235.345
  0
ARC
  8
APS_GEOMETRY
 10
3362.631
 20
-704.671
 40
10.563
 50
209.076
 51
219.56
  0
ARC
  8
APS_GEOMETRY
 10
3367.972
 20
-701.702
 40
16.674
 50
200.735
 51
209.076
  0
ARC
  8
APS_GEOMETRY
 10
3375.341
 20
-698.912
 40
24.554
 50
197.881
 51
200.735
  0
ARC
  8
APS_GEOMETRY
 10
3405.623
 20
-689.142
 40
56.372
 50
195.997
 51
197.881
  0
ARC
  8
APS_GEOMETRY
 10
3428.005
 20
-682.725
 40
79.656
 50
194.664
 51
195.997
  0
ARC
  8
APS_GEOMETRY
 10
3490.0
 20
-666.503
 40
143.738
 50
193.671
 51
194.664
  0
ARC
  8
APS_GEOMETRY
 10
3332.789
 20
-704.723
 40
18.051
 50
13.61
 51
23.585
  0
ARC
  8
APS_GEOMETRY
 10
3344.609
 20
-699.563
 40
5.155
 50
23.585
 51
42.31
  0
ARC
  8
APS_GEOMETRY
 10
3345.681
 20
-698.587
 40
3.705
 50
42.31
 51
67.521
  0
ARC
  8
APS_GEOMETRY
 10
3344.832
 20
-700.638
 40
5.924
 50
67.521
 51
87.397
  0
LINE
  8
APS_GEOMETRY
 10
3343.237
 11
3342.878
 20
-678.041
 21
-685.661
  0
LINE
  8
APS_GEOMETRY
 10
3342.878
 11
3342.878
 20
-685.661
 21
-685.784
  0
LINE
  8
APS_GEOMETRY
 10
3342.878
 11
3342.878
 20
-685.784
 21
-685.955
  0
ARC
  8
APS_GEOMETRY
 10
3348.172
 20
-685.955
 40
5.294
 50
180.0
 51
192.339
  0
ARC
  8
APS_GEOMETRY
 10
3343.963
 20
-686.876
 40
0.986
 50
192.339
 51
221.186
  0
ARC
  8
APS_GEOMETRY
 10
3343.862
 20
-686.964
 40
0.852
 50
221.186
 51
253.872
  0
ARC
  8
APS_GEOMETRY
 10
3344.578
 20
-684.488
 40
3.429
 50
253.872
 51
270.0
  0
ARC
  8
APS_GEOMETRY
 10
3344.578
 20
-679.947
 40
7.971
 50
270.0
 51
289.569
  0
ARC
  8
APS_GEOMETRY
 10
3346.027
 20
-684.023
 40
3.644
 50
289.569
 51
318.681
  0
ARC
  8
APS_GEOMETRY
 10
3345.635
 20
-683.679
 40
4.166
 50
318.681
 51
344.628
  0
ARC
  8
APS_GEOMETRY
 10
3338.333
 20
-681.671
 40
11.74
 50
344.628
 51
0.0
  0
ARC
  8
APS_GEOMETRY
 10
3341.804
 20
-681.671
 40
8.268
 50
0.0
 51
35.369
  0
ARC
  8
APS_GEOMETRY
 10
3345.592
 20
-678.982
 40
3.623
 50
35.369
 51
90.0
  0
ARC
  8
APS_GEOMETRY
 10
3345.592
 20
-679.022
 40
3.663
 50
90.0
 51
108.435
  0
ARC
  8
APS_GEOMETRY
 10
3344.879
 20
-676.884
 40
1.409
 50
108.435
 51
138.366
  0
ARC
  8
APS_GEOMETRY
 10
3345.071
 20
-677.054
 40
1.665
 50
138.366
 51
164.291
  0
ARC
  8
APS_GEOMETRY
 10
3349.556
 20
-678.316
 40
6.324
 50
164.291
 51
177.51
  0
LINE
  8
APS_GEOMETRY
 10
3393.751
 11
3410.986
 20
-668.851
 21
-668.851
  0
ARC
  8
APS_GEOMETRY
 10
3410.114
 20
-644.156
 40
24.711
 50
272.021
 51
278.44
  0
ARC
  8
APS_GEOMETRY
 10
3411.087
 20
-650.711
 40
18.083
 50
278.44
 51
285.945
  0
ARC
  8
APS_GEOMETRY
 10
3418.404
 20
-676.909
 40
9.118
 50
98.584
 51
104.931
  0
ARC
  8
APS_GEOMETRY
 10
3417.788
 20
-672.828
 40
4.991
 50
90.0
 51
98.584
  0
ARC
  8
APS_GEOMETRY
 10
3417.788
 20
-671.589
 40
3.752
 50
52.871
 51
90.0
  0
ARC
  8
APS_GEOMETRY
 10
3412.7
 20
-678.31
 40
12.182
 50
32.518
 51
52.871
  0
ARC
  8
APS_GEOMETRY
 10
3408.668
 20
-680.88
 40
16.963
 50
17.209
 51
32.518
  0
ARC
  8
APS_GEOMETRY
 10
3412.028
 20
-679.84
 40
13.445
 50
360.0
 51
17.209
  0
ARC
  8
APS_GEOMETRY
 10
3418.756
 20
-679.84
 40
6.717
 50
337.348
 51
360.0
  0
ARC
  8
APS_GEOMETRY
 10
3421.456
 20
-680.966
 40
3.792
 50
307.042
 51
337.348
  0
ARC
  8
APS_GEOMETRY
 10
3420.987
 20
-680.322
 40
4.589
 50
287.186
 51
306.87
  0
ARC
  8
APS_GEOMETRY
 10
3420.568
 20
-678.968
 40
6.006
 50
270.0
 51
287.186
  0
ARC
  8
APS_GEOMETRY
 10
3420.568
 20
-679.581
 40
5.393
 50
252.221
 51
270.0
  0
ARC
  8
APS_GEOMETRY
 10
3420.317
 20
-680.364
 40
4.571
 50
232.896
 51
252.221
  0
ARC
  8
APS_GEOMETRY
 10
3421.287
 20
-679.081
 40
6.18
 50
218.3
 51
232.896
  0
ARC
  8
APS_GEOMETRY
 10
3428.868
 20
-673.094
 40
15.839
 50
209.197
 51
218.3
  0
ARC
  8
APS_GEOMETRY
 10
3390.314
 20
-693.982
 40
28.012
 50
28.025
 51
32.699
  0
ARC
  8
APS_GEOMETRY
 10
3410.47
 20
-681.042
 40
4.06
 50
32.699
 51
45.0
  0
ARC
  8
APS_GEOMETRY
 10
3411.844
 20
-679.668
 40
2.116
 50
45.0
 51
67.557
  0
ARC
  8
APS_GEOMETRY
 10
3411.836
 20
-679.688
 40
2.137
 50
67.557
 51
90.0
  0
ARC
  8
APS_GEOMETRY
 10
3411.836
 20
-679.519
 40
1.969
 50
90.0
 51
120.801
  0
ARC
  8
APS_GEOMETRY
 10
3411.77
 20
-679.408
 40
1.839
 50
120.801
 51
152.7
  0
ARC
  8
APS_GEOMETRY
 10
3413.228
 20
-680.161
 40
3.481
 50
152.7
 51
171.085
  0
ARC
  8
APS_GEOMETRY
 10
3424.317
 20
-681.9
 40
14.705
 50
171.085
 51
180.0
  0
LINE
  8
APS_GEOMETRY
 10
3409.612
 11
3409.612
 20
-681.9
 21
-700.214
  0
ARC
  8
APS_GEOMETRY
 10
3429.039
 20
-700.214
 40
19.427
 50
180.0
 51
188.194
  0
ARC
  8
APS_GEOMETRY
 10
3414.532
 20
-702.303
 40
4.77
 50
188.194
 51
204.775
  0
ARC
  8
APS_GEOMETRY
 10
3413.122
 20
-702.954
 40
3.218
 50
204.775
 51
228.576
  0
ARC
  8
APS_GEOMETRY
 10
3414.445
 20
-701.455
 40
5.216
 50
228.576
 51
247.218
  0
ARC
  8
APS_GEOMETRY
 10
3406.776
 20
-719.527
 40
14.416
 50
59.381
 51
66.93
  0
ARC
  8
APS_GEOMETRY
 10
3412.437
 20
-709.962
 40
3.301
 50
43.568
 51
59.381
  0
ARC
  8
APS_GEOMETRY
 10
3413.343
 20
-709.1
 40
2.051
 50
19.041
 51
43.568
  0
ARC
  8
APS_GEOMETRY
 10
3412.084
 20
-709.534
 40
3.382
 50
360.0
 51
19.041
  0
ARC
  8
APS_GEOMETRY
 10
3412.719
 20
-709.534
 40
2.747
 50
317.66
 51
360.0
  0
ARC
  8
APS_GEOMETRY
 10
3410.196
 20
-707.236
 40
6.16
 50
289.747
 51
317.66
  0
ARC
  8
APS_GEOMETRY
 10
3408.084
 20
-701.351
 40
12.412
 50
281.964
 51
289.747
  0
ARC
  8
APS_GEOMETRY
 10
3405.157
 20
-687.539
 40
26.531
 50
276.643
 51
281.964
  0
ARC
  8
APS_GEOMETRY
 10
3403.925
 20
-676.964
 40
37.178
 50
272.836
 51
276.643
  0
ARC
  8
APS_GEOMETRY
 10
3402.45
 20
-647.188
 40
66.99
 50
270.0
 51
272.836
  0
ARC
  8
APS_GEOMETRY
 10
3402.45
 20
-628.738
 40
85.44
 50
267.283
 51
270.0
  0
ARC
  8
APS_GEOMETRY
 10
3400.656
 20
-666.541
 40
47.595
 50
263.643
 51
267.283
  0
ARC
  8
APS_GEOMETRY
 10
3399.154
 20
-680.025
 40
34.027
 50
258.563
 51
263.643
  0
ARC
  8
APS_GEOMETRY
 10
3395.565
 20
-697.764
 40
15.929
 50
251.136
 51
258.563
  0
ARC
  8
APS_GEOMETRY
 10
3392.361
 20
-707.057
 40
6.099
 50
222.558
 51
251.395
  0
ARC
  8
APS_GEOMETRY
 10
3389.984
 20
-709.24
 40
2.871
 50
180.0
 51
222.558
  0
ARC
  8
APS_GEOMETRY
 10
3389.504
 20
-709.24
 40
2.392
 50
150.642
 51
180.0
  0
ARC
  8
APS_GEOMETRY
 10
3389.696
 20
-709.348
 40
2.612
 50
122.574
 51
150.642
  0
ARC
  8
APS_GEOMETRY
 10
3389.189
 20
-708.766
 40
1.851
 50
108.677
 51
119.055
  0
ARC
  8
APS_GEOMETRY
 10
3412.304
 20
-777.149
 40
74.036
 50
107.038
 51
108.677
  0
ARC
  8
APS_GEOMETRY
 10
3389.75
 20
-703.386
 40
3.099
 50
286.144
 51
308.66
  0
ARC
  8
APS_GEOMETRY
 10
3390.257
 20
-704.02
 40
2.287
 50
308.66
 51
334.933
  0
ARC
  8
APS_GEOMETRY
 10
3388.193
 20
-703.054
 40
4.566
 50
334.933
 51
348.829
  0
ARC
  8
APS_GEOMETRY
 10
3362.367
 20
-697.954
 40
30.891
 50
348.829
 51
354.161
  0
ARC
  8
APS_GEOMETRY
 10
3344.911
 20
-696.155
 40
48.439
 50
354.144
 51
355.66
  0
ARC
  8
APS_GEOMETRY
 10
3267.535
 20
-690.283
 40
126.038
 50
355.66
 51
356.6
  0
ARC
  8
APS_GEOMETRY
 10
3208.386
 20
-686.769
 40
185.291
 50
356.6
 51
357.24
  0
ARC
  8
APS_GEOMETRY
 10
3040.56
 20
-678.678
 40
353.311
 50
357.24
 51
357.703
  0
ARC
  8
APS_GEOMETRY
 10
3057.081
 20
-679.34
 40
336.777
 50
357.703
 51
358.674
  0
ARC
  8
APS_GEOMETRY
 10
3212.913
 20
-682.946
 40
180.903
 50
358.674
 51
0.0
  0
ARC
  8
APS_GEOMETRY
 10
3367.006
 20
-682.946
 40
26.81
 50
0.0
 51
6.242
  0
ARC
  8
APS_GEOMETRY
 10
3388.326
 20
-680.615
 40
5.364
 50
6.242
 51
20.225
  0
ARC
  8
APS_GEOMETRY
 10
3391.281
 20
-679.526
 40
2.215
 50
20.225
 51
50.44
  0
ARC
  8
APS_GEOMETRY
 10
3391.854
 20
-678.831
 40
1.314
 50
50.44
 51
90.0
  0
ARC
  8
APS_GEOMETRY
 10
3391.854
 20
-679.28
 40
1.762
 50
90.0
 51
126.747
  0
ARC
  8
APS_GEOMETRY
 10
3394.344
 20
-682.615
 40
5.924
 50
126.747
 51
146.547
  0
ARC
  8
APS_GEOMETRY
 10
3350.357
 20
-653.702
 40
46.715
 50
324.255
 51
326.701
  0
ARC
  8
APS_GEOMETRY
 10
3368.98
 20
-667.106
 40
23.77
 50
320.826
 51
324.255
  0
ARC
  8
APS_GEOMETRY
 10
3375.066
 20
-672.065
 40
15.918
 50
315.722
 51
320.826
  0
ARC
  8
APS_GEOMETRY
 10
3382.06
 20
-678.886
 40
6.149
 50
307.504
 51
315.722
  0
ARC
  8
APS_GEOMETRY
 10
3381.415
 20
-678.024
 40
7.226
 50
291.306
 51
307.405
  0
ARC
  8
APS_GEOMETRY
 10
3382.534
 20
-680.893
 40
4.146
 50
270.0
 51
291.306
  0
ARC
  8
APS_GEOMETRY
 10
3382.534
 20
-681.161
 40
3.879
 50
245.532
 51
270.0
  0
ARC
  8
APS_GEOMETRY
 10
3382.504
 20
-681.225
 40
3.808
 50
220.833
 51
245.532
  0
ARC
  8
APS_GEOMETRY
 10
3382.898
 20
-680.885
 40
4.328
 50
198.684
 51
220.833
  0
ARC
  8
APS_GEOMETRY
 10
3384.539
 20
-680.33
 40
6.06
 50
180.0
 51
198.684
  0
ARC
  8
APS_GEOMETRY
 10
3388.386
 20
-680.33
 40
9.908
 50
168.408
 51
180.0
  0
ARC
  8
APS_GEOMETRY
 10
3394.739
 20
-681.633
 40
16.393
 50
159.402
 51
168.408
  0
ARC
  8
APS_GEOMETRY
 10
3396.702
 20
-682.371
 40
18.49
 50
151.39
 51
159.402
  0
ARC
  8
APS_GEOMETRY
 10
3396.3
 20
-682.152
 40
18.032
 50
143.276
 51
151.39
  0
ARC
  8
APS_GEOMETRY
 10
3391.25
 20
-678.376
 40
11.726
 50
124.216
 51
143.31
  0
ARC
  8
APS_GEOMETRY
 10
3386.753
 20
-671.762
 40
3.728
 50
90.0
 51
124.216
  0
ARC
  8
APS_GEOMETRY
 10
3386.753
 20
-673.418
 40
5.384
 50
82.725
 51
90.0
  0
ARC
  8
APS_GEOMETRY
 10
3386.332
 20
-676.714
 40
8.707
 50
77.005
 51
82.725
  0
ARC
  8
APS_GEOMETRY
 10
3399.18
 20
-614.767
 40
54.561
 50
258.486
 51
260.378
  0
ARC
  8
APS_GEOMETRY
 10
3393.676
 20
-647.232
 40
21.633
 50
260.378
 51
263.382
  0
ARC
  8
APS_GEOMETRY
 10
3393.206
 20
-651.289
 40
17.548
 50
263.382
 51
267.084
  0
ARC
  8
APS_GEOMETRY
 10
3393.751
 20
-640.578
 40
28.273
 50
267.084
 51
270.0
  0
LINE
  8
APS_GEOMETRY
 10
3437.168
 11
3453.978
 20
-668.851
 21
-668.851
  0
ARC
  8
APS_GEOMETRY
 10
3453.978
 20
-457.132
 40
211.72
 50
270.0
 51
270.69
  0
ARC
  8
APS_GEOMETRY
 10
3455.171
 20
-556.188
 40
112.656
 50
270.69
 51
271.637
  0
ARC
  8
APS_GEOMETRY
 10
3456.177
 20
-591.382
 40
77.448
 50
271.637
 51
273.013
  0
ARC
  8
APS_GEOMETRY
 10
3458.628
 20
-637.944
 40
30.821
 50
273.013
 51
275.194
  0
ARC
  8
APS_GEOMETRY
 10
3459.235
 20
-644.626
 40
24.112
 50
275.194
 51
280.756
  0
ARC
  8
APS_GEOMETRY
 10
3459.349
 20
-645.227
 40
23.5
 50
280.756
 51
286.39
  0
ARC
  8
APS_GEOMETRY
 10
3467.963
 20
-674.712
 40
7.217
 50
100.305
 51
105.945
  0
ARC
  8
APS_GEOMETRY
 10
3467.059
 20
-669.742
 40
2.166
 50
90.0
 51
100.305
  0
ARC
  8
APS_GEOMETRY
 10
3467.059
 20
-670.516
 40
2.94
 50
58.946
 51
90.0
  0
ARC
  8
APS_GEOMETRY
 10
3465.935
 20
-672.383
 40
5.119
 50
35.538
 51
58.946
  0
ARC
  8
APS_GEOMETRY
 10
3461.546
 20
-675.612
 40
10.568
 50
16.699
 51
35.952
  0
ARC
  8
APS_GEOMETRY
 10
3458.245
 20
-676.602
 40
14.014
 50
360.0
 51
16.699
  0
ARC
  8
APS_GEOMETRY
 10
3464.395
 20
-676.602
 40
7.864
 50
344.982
 51
360.0
  0
ARC
  8
APS_GEOMETRY
 10
3468.17
 20
-677.615
 40
3.956
 50
323.746
 51
344.982
  0
ARC
  8
APS_GEOMETRY
 10
3469.009
 20
-678.23
 40
2.916
 50
296.114
 51
323.746
  0
ARC
  8
APS_GEOMETRY
 10
3468.858
 20
-677.923
 40
3.258
 50
270.0
 51
296.114
  0
ARC
  8
APS_GEOMETRY
 10
3468.858
 20
-677.096
 40
4.084
 50
255.311
 51
270.0
  0
ARC
  8
APS_GEOMETRY
 10
3468.312
 20
-679.179
 40
1.931
 50
233.881
 51
255.311
  0
ARC
  8
APS_GEOMETRY
 10
3468.887
 20
-678.392
 40
2.906
 50
219.289
 51
233.881
  0
ARC
  8
APS_GEOMETRY
 10
3480.417
 20
-668.958
 40
17.803
 50
213.408
 51
219.289
  0
ARC
  8
APS_GEOMETRY
 10
3458.816
 20
-683.186
 40
8.063
 50
33.294
 51
51.246
  0
ARC
  8
APS_GEOMETRY
 10
3459.913
 20
-681.819
 40
6.309
 50
51.246
 51
71.565
  0
ARC
  8
APS_GEOMETRY
 10
3459.188
 20
-683.996
 40
8.604
 50
71.565
 51
79.278
  0
ARC
  8
APS_GEOMETRY
 10
3456.86
 20
-696.292
 40
21.118
 50
79.278
 51
84.2
  0
ARC
  8
APS_GEOMETRY
 10
3455.866
 20
-706.07
 40
30.947
 50
84.2
 51
87.567
  0
ARC
  8
APS_GEOMETRY
 10
3454.665
 20
-734.348
 40
59.251
 50
87.567
 51
90.0
  0
ARC
  8
APS_GEOMETRY
 10
3454.665
 20
-691.753
 40
16.656
 50
90.0
 51
96.374
  0
ARC
  8
APS_GEOMETRY
 10
3453.559
 20
-681.857
 40
6.698
 50
96.374
 51
106.434
  0
ARC
  8
APS_GEOMETRY
 10
3452.773
 20
-679.194
 40
3.921
 50
106.434
 51
123.056
  0
ARC
  8
APS_GEOMETRY
 10
3451.547
 20
-677.309
 40
1.673
 50
123.056
 51
148.627
  0
ARC
  8
APS_GEOMETRY
 10
3452.667
 20
-677.944
 40
2.96
 50
149.421
 51
165.28
  0
ARC
  8
APS_GEOMETRY
 10
3455.896
 20
-678.793
 40
6.298
 50
165.28
 51
176.135
  0
ARC
  8
APS_GEOMETRY
 10
3465.139
 20
-679.417
 40
15.562
 50
176.135
 51
178.367
  0
ARC
  8
APS_GEOMETRY
 10
3550.644
 20
-681.855
 40
101.103
 50
178.367
 51
179.242
  0
ARC
  8
APS_GEOMETRY
 10
3639.013
 20
-683.024
 40
189.479
 50
179.242
 51
179.709
  0
ARC
  8
APS_GEOMETRY
 10
3939.662
 20
-684.549
 40
490.132
 50
179.709
 51
180.0
  0
ARC
  8
APS_GEOMETRY
 10
3456.621
 20
-684.549
 40
7.091
 50
180.0
 51
195.027
  0
ARC
  8
APS_GEOMETRY
 10
3450.822
 20
-686.106
 40
1.086
 50
195.027
 51
234.058
  0
ARC
  8
APS_GEOMETRY
 10
3450.878
 20
-686.028
 40
1.183
 50
234.058
 51
253.191
  0
ARC
  8
APS_GEOMETRY
 10
3452.116
 20
-681.932
 40
5.461
 50
253.191
 51
262.063
  0
ARC
  8
APS_GEOMETRY
 10
3452.749
 20
-677.387
 40
10.05
 50
262.063
 51
266.949
  0
ARC
  8
APS_GEOMETRY
 10
3453.585
 20
-661.705
 40
25.755
 50
266.949
 51
270.0
  0
ARC
  8
APS_GEOMETRY
 10
3453.585
 20
-682.738
 40
4.722
 50
270.0
 51
286.007
  0
ARC
  8
APS_GEOMETRY
 10
3454.412
 20
-685.619
 40
1.725
 50
286.007
 51
312.647
  0
ARC
  8
APS_GEOMETRY
 10
3454.395
 20
-685.6
 40
1.75
 50
312.647
 51
338.993
  0
ARC
  8
APS_GEOMETRY
 10
3450.82
 20
-684.227
 40
5.58
 50
338.993
 51
353.66
  0
ARC
  8
APS_GEOMETRY
 10
3487.739
 20
-688.63
 40
31.601
 50
169.663
 51
173.118
  0
ARC
  8
APS_GEOMETRY
 10
3461.349
 20
-683.817
 40
4.776
 50
160.769
 51
169.663
  0
ARC
  8
APS_GEOMETRY
 10
3459.142
 20
-683.047
 40
2.439
 50
143.746
 51
160.769
  0
ARC
  8
APS_GEOMETRY
 10
3459.675
 20
-683.438
 40
3.1
 50
128.66
 51
143.746
  0
ARC
  8
APS_GEOMETRY
 10
3459.32
 20
-682.861
 40
2.429
 50
110.171
 51
130.601
  0
ARC
  8
APS_GEOMETRY
 10
3459.341
 20
-682.92
 40
2.492
 50
90.0
 51
110.171
  0
ARC
  8
APS_GEOMETRY
 10
3459.341
 20
-682.955
 40
2.527
 50
61.22
 51
90.0
  0
ARC
  8
APS_GEOMETRY
 10
3458.9
 20
-683.758
 40
3.443
 50
36.634
 51
61.22
  0
ARC
  8
APS_GEOMETRY
 10
3458.486
 20
-684.004
 40
3.923
 50
19.103
 51
35.91
  0
ARC
  8
APS_GEOMETRY
 10
3445.691
 20
-688.436
 40
17.463
 50
11.16
 51
19.103
  0
ARC
  8
APS_GEOMETRY
 10
3439.006
 20
-689.755
 40
24.277
 50
5.396
 51
11.16
  0
ARC
  8
APS_GEOMETRY
 10
3435.606
 20
-690.076
 40
27.692
 50
0.0
 51
5.396
  0
ARC
  8
APS_GEOMETRY
 10
3436.088
 20
-690.076
 40
27.21
 50
349.287
 51
0.0
  0
ARC
  8
APS_GEOMETRY
 10
3449.446
 20
-692.603
 40
13.615
 50
334.12
 51
349.287
  0
ARC
  8
APS_GEOMETRY
 10
3458.648
 20
-697.05
 40
3.396
 50
303.53
 51
333.853
  0
ARC
  8
APS_GEOMETRY
 10
3458.982
 20
-697.553
 40
2.791
 50
270.0
 51
303.53
  0
ARC
  8
APS_GEOMETRY
 10
3458.982
 20
-697.423
 40
2.922
 50
249.578
 51
270.0
  0
ARC
  8
APS_GEOMETRY
 10
3458.36
 20
-699.092
 40
1.14
 50
216.607
 51
249.578
  0
ARC
  8
APS_GEOMETRY
 10
3458.954
 20
-698.651
 40
1.881
 50
195.422
 51
216.607
  0
ARC
  8
APS_GEOMETRY
 10
3469.217
 20
-695.82
 40
12.526
 50
187.253
 51
195.422
  0
ARC
  8
APS_GEOMETRY
 10
3452.644
 20
-697.952
 40
4.183
 50
7.561
 51
49.434
  0
ARC
  8
APS_GEOMETRY
 10
3452.474
 20
-698.151
 40
4.445
 50
49.434
 51
90.0
  0
ARC
  8
APS_GEOMETRY
 10
3452.474
 20
-696.697
 40
2.991
 50
90.0
 51
115.224
  0
ARC
  8
APS_GEOMETRY
 10
3451.882
 20
-695.441
 40
1.603
 50
115.224
 51
149.931
  0
ARC
  8
APS_GEOMETRY
 10
3452.951
 20
-696.06
 40
2.838
 50
149.931
 51
171.111
  0
ARC
  8
APS_GEOMETRY
 10
3465.919
 20
-698.088
 40
15.963
 50
171.111
 51
180.0
  0
ARC
  8
APS_GEOMETRY
 10
3478.694
 20
-698.088
 40
28.739
 50
180.0
 51
183.062
  0
ARC
  8
APS_GEOMETRY
 10
3522.682
 20
-695.735
 40
72.789
 50
183.062
 51
184.986
  0
ARC
  8
APS_GEOMETRY
 10
3499.609
 20
-697.748
 40
49.629
 50
184.986
 51
187.804
  0
ARC
  8
APS_GEOMETRY
 10
3455.908
 20
-703.737
 40
5.52
 50
187.804
 51
196.26
  0
ARC
  8
APS_GEOMETRY
 10
3452.054
 20
-704.898
 40
1.496
 50
194.931
 51
230.024
  0
ARC
  8
APS_GEOMETRY
 10
3453.035
 20
-703.728
 40
3.022
 50
230.024
 51
254.511
  0
ARC
  8
APS_GEOMETRY
 10
3454.227
 20
-699.427
 40
7.485
 50
254.511
 51
265.219
  0
ARC
  8
APS_GEOMETRY
 10
3456.725
 20
-669.56
 40
37.456
 50
265.219
 51
270.0
  0
ARC
  8
APS_GEOMETRY
 10
3456.725
 20
-673.52
 40
33.497
 50
270.0
 51
274.186
  0
ARC
  8
APS_GEOMETRY
 10
3457.744
 20
-687.436
 40
19.543
 50
274.186
 51
279.668
  0
ARC
  8
APS_GEOMETRY
 10
3458.58
 20
-692.344
 40
14.564
 50
279.668
 51
286.991
  0
ARC
  8
APS_GEOMETRY
 10
3460.492
 20
-698.604
 40
8.018
 50
286.991
 51
296.866
  0
ARC
  8
APS_GEOMETRY
 10
3460.89
 20
-699.389
 40
7.139
 50
296.866
 51
318.366
  0
ARC
  8
APS_GEOMETRY
 10
3456.891
 20
-695.834
 40
12.489
 50
318.366
 51
334.581
  0
ARC
  8
APS_GEOMETRY
 10
3483.22
 20
-708.46
 40
16.711
 50
147.08
 51
154.231
  0
ARC
  8
APS_GEOMETRY
 10
3472.214
 20
-701.334
 40
3.599
 50
131.634
 51
147.08
  0
ARC
  8
APS_GEOMETRY
 10
3471.393
 20
-700.411
 40
2.364
 50
108.875
 51
131.634
  0
ARC
  8
APS_GEOMETRY
 10
3471.736
 20
-701.413
 40
3.423
 50
90.0
 51
108.875
  0
ARC
  8
APS_GEOMETRY
 10
3471.736
 20
-700.718
 40
2.727
 50
62.628
 51
90.0
  0
ARC
  8
APS_GEOMETRY
 10
3471.563
 20
-701.051
 40
3.103
 50
36.995
 51
62.628
  0
ARC
  8
APS_GEOMETRY
 10
3470.79
 20
-701.634
 40
4.071
 50
16.728
 51
36.995
  0
ARC
  8
APS_GEOMETRY
 10
3468.985
 20
-702.176
 40
5.956
 50
360.0
 51
16.728
  0
ARC
  8
APS_GEOMETRY
 10
3465.409
 20
-702.176
 40
9.532
 50
348.323
 51
360.0
  0
ARC
  8
APS_GEOMETRY
 10
3451.1
 20
-699.219
 40
24.143
 50
340.994
 51
348.323
  0
ARC
  8
APS_GEOMETRY
 10
3447.706
 20
-698.05
 40
27.733
 50
334.592
 51
340.994
  0
ARC
  8
APS_GEOMETRY
 10
3453.63
 20
-700.864
 40
21.175
 50
327.265
 51
334.592
  0
ARC
  8
APS_GEOMETRY
 10
3460.51
 20
-704.919
 40
13.198
 50
320.133
 51
325.923
  0
ARC
  8
APS_GEOMETRY
 10
3468.513
 20
-711.603
 40
2.771
 50
307.476
 51
320.133
  0
ARC
  8
APS_GEOMETRY
 10
3469.214
 20
-712.517
 40
1.619
 50
286.429
 51
307.476
  0
ARC
  8
APS_GEOMETRY
 10
3468.923
 20
-711.533
 40
2.646
 50
270.0
 51
286.429
  0
ARC
  8
APS_GEOMETRY
 10
3468.923
 20
-708.474
 40
5.704
 50
263.774
 51
270.0
  0
ARC
  8
APS_GEOMETRY
 10
3470.592
 20
-693.177
 40
21.092
 50
260.538
 51
263.774
  0
ARC
  8
APS_GEOMETRY
 10
3463.123
 20
-735.323
 40
21.713
 50
79.38
 51
84.987
  0
ARC
  8
APS_GEOMETRY
 10
3459.885
 20
-772.234
 40
58.766
 50
84.987
 51
88.394
  0
LINE
  8
APS_GEOMETRY
 10
3461.532
 11
3433.8
 20
-713.492
 21
-713.492
  0
ARC
  8
APS_GEOMETRY
 10
3433.8
 20
-707.688
 40
5.804
 50
254.103
 51
270.0
  0
ARC
  8
APS_GEOMETRY
 10
3432.982
 20
-710.558
 40
2.82
 50
231.216
 51
254.103
  0
ARC
  8
APS_GEOMETRY
 10
3432.647
 20
-710.975
 40
2.284
 50
203.795
 51
231.216
  0
ARC
  8
APS_GEOMETRY
 10
3433.319
 20
-710.679
 40
3.019
 50
180.0
 51
203.795
  0
ARC
  8
APS_GEOMETRY
 10
3433.574
 20
-710.679
 40
3.273
 50
164.055
 51
180.0
  0
ARC
  8
APS_GEOMETRY
 10
3431.557
 20
-710.103
 40
1.175
 50
137.291
 51
164.055
  0
ARC
  8
APS_GEOMETRY
 10
3432.164
 20
-710.663
 40
2.001
 50
120.964
 51
137.291
  0
ARC
  8
APS_GEOMETRY
 10
3438.664
 20
-721.498
 40
14.637
 50
114.944
 51
120.964
  0
ARC
  8
APS_GEOMETRY
 10
3430.549
 20
-703.743
 40
4.886
 50
293.429
 51
305.72
  0
ARC
  8
APS_GEOMETRY
 10
3431.893
 20
-705.612
 40
2.584
 50
305.72
 51
322.651
  0
ARC
  8
APS_GEOMETRY
 10
3431.684
 20
-705.453
 40
2.846
 50
322.651
 51
338.11
  0
ARC
  8
APS_GEOMETRY
 10
3427.627
 20
-703.823
 40
7.219
 50
338.11
 51
347.8
  0
ARC
  8
APS_GEOMETRY
 10
3402.426
 20
-698.299
 40
33.018
 50
347.672
 51
352.051
  0
ARC
  8
APS_GEOMETRY
 10
3378.033
 20
-694.893
 40
57.647
 50
352.051
 51
355.365
  0
ARC
  8
APS_GEOMETRY
 10
3361.606
 20
-693.561
 40
74.128
 50
355.365
 51
357.943
  0
ARC
  8
APS_GEOMETRY
 10
3319.197
 20
-692.038
 40
116.566
 50
357.943
 51
0.0
  0
ARC
  8
APS_GEOMETRY
 10
3270.244
 20
-692.038
 40
165.518
 50
0.0
 51
2.183
  0
ARC
  8
APS_GEOMETRY
 10
3369.219
 20
-688.265
 40
66.471
 50
2.183
 51
5.629
  0
ARC
  8
APS_GEOMETRY
 10
3398.703
 20
-685.359
 40
36.844
 50
5.629
 51
11.805
  0
ARC
  8
APS_GEOMETRY
 10
3427.319
 20
-679.378
 40
7.61
 50
11.805
 51
25.419
  0
ARC
  8
APS_GEOMETRY
 10
3431.023
 20
-677.696
 40
3.544
 50
26.565
 51
38.157
  0
ARC
  8
APS_GEOMETRY
 10
3432.667
 20
-676.404
 40
1.452
 50
38.157
 51
56.31
  0
ARC
  8
APS_GEOMETRY
 10
3432.319
 20
-676.926
 40
2.079
 50
56.31
 51
69.193
  0
ARC
  8
APS_GEOMETRY
 10
3427.44
 20
-689.767
 40
15.817
 50
69.193
 51
73.856
  0
ARC
  8
APS_GEOMETRY
 10
3432.587
 20
-672.06
 40
2.623
 50
216.87
 51
253.393
  0
ARC
  8
APS_GEOMETRY
 10
3432.549
 20
-672.089
 40
2.576
 50
180.0
 51
216.87
  0
ARC
  8
APS_GEOMETRY
 10
3433.111
 20
-672.089
 40
3.138
 50
161.565
 51
180.0
  0
ARC
  8
APS_GEOMETRY
 10
3432.998
 20
-672.051
 40
3.018
 50
142.765
 51
161.565
  0
ARC
  8
APS_GEOMETRY
 10
3432.926
 20
-671.996
 40
2.928
 50
123.425
 51
142.765
  0
ARC
  8
APS_GEOMETRY
 10
3432.991
 20
-672.096
 40
3.047
 50
104.47
 51
123.425
  0
ARC
  8
APS_GEOMETRY
 10
3433.571
 20
-674.958
 40
5.965
 50
96.724
 51
102.995
  0
ARC
  8
APS_GEOMETRY
 10
3435.372
 20
-690.233
 40
21.346
 50
93.411
 51
96.724
  0
ARC
  8
APS_GEOMETRY
 10
3436.172
 20
-703.654
 40
34.791
 50
91.375
 51
93.411
  0
ARC
  8
APS_GEOMETRY
 10
3437.168
 20
-745.154
 40
76.303
 50
90.0
 51
91.375
  0
LINE
  8
QUOTATURA
 10
2776.502
 11
2776.502
 20
1174.15
 21
1289.116
  0
LINE
  8
QUOTATURA
 10
2726.502
 11
2726.502
 20
1174.15
 21
1289.116
  0
LINE
  8
QUOTATURA
 10
2726.502
 11
2630.845
 20
1279.116
 21
1279.116
  0
LINE
  8
QUOTATURA
 10
2706.502
 11
2726.502
 20
1282.45
 21
1279.116
  0
LINE
  8
QUOTATURA
 10
2726.502
 11
2706.502
 20
1279.116
 21
1275.782
  0
LINE
  8
QUOTATURA
 10
2706.502
 11
2706.502
 20
1275.782
 21
1282.45
  0
LINE
  8
QUOTATURA
 10
2776.502
 11
2816.502
 20
1279.116
 21
1279.116
  0
LINE
  8
QUOTATURA
 10
2796.502
 11
2776.502
 20
1275.782
 21
1279.116
  0
LINE
  8
QUOTATURA
 10
2776.502
 11
2796.502
 20
1279.116
 21
1282.45
  0
LINE
  8
QUOTATURA
 10
2796.502
 11
2796.502
 20
1282.45
 21
1275.782
  0
LINE
  8
QUOTATURA
 10
2662.002
 11
2662.002
 20
1174.15
 21
1237.624
  0
LINE
  8
QUOTATURA
 10
2726.502
 11
2630.815
 20
1227.624
 21
1227.624
  0
LINE
  8
QUOTATURA
 10
2706.502
 11
2726.502
 20
1230.958
 21
1227.624
  0
LINE
  8
QUOTATURA
 10
2726.502
 11
2706.502
 20
1227.624
 21
1224.29
  0
LINE
  8
QUOTATURA
 10
2706.502
 11
2706.502
 20
1224.29
 21
1230.958
  0
LINE
  8
QUOTATURA
 10
2682.002
 11
2662.002
 20
1224.29
 21
1227.624
  0
LINE
  8
QUOTATURA
 10
2662.002
 11
2682.002
 20
1227.624
 21
1230.958
  0
LINE
  8
QUOTATURA
 10
2682.002
 11
2682.002
 20
1230.958
 21
1224.29
  0
LINE
  8
QUOTATURA
 10
2998.9
 11
2854.885
 20
4.5
 21
4.5
  0
LINE
  8
QUOTATURA
 10
2998.9
 11
2854.885
 20
84.5
 21
84.5
  0
LINE
  8
QUOTATURA
 10
2864.885
 11
2864.885
 20
84.5
 21
-48.129
  0
LINE
  8
QUOTATURA
 10
2864.885
 11
2803.574
 20
-48.129
 21
-48.129
  0
LINE
  8
QUOTATURA
 10
2868.219
 11
2864.885
 20
24.5
 21
4.5
  0
LINE
  8
QUOTATURA
 10
2864.885
 11
2861.551
 20
4.5
 21
24.5
  0
LINE
  8
QUOTATURA
 10
2861.551
 11
2868.219
 20
24.5
 21
24.5
  0
LINE
  8
QUOTATURA
 10
2861.551
 11
2864.885
 20
64.5
 21
84.5
  0
LINE
  8
QUOTATURA
 10
2864.885
 11
2868.219
 20
84.5
 21
64.5
  0
LINE
  8
QUOTATURA
 10
2868.219
 11
2861.551
 20
64.5
 21
64.5
  0
LINE
  8
COSTRUZIONI
 10
2473.715
 11
2473.715
 20
2463.551
 21
2663.551
  0
LINE
  8
COSTRUZIONI
 10
2473.715
 11
4473.715
 20
2663.551
 21
2663.551
  0
LINE
  8
COSTRUZIONI
 10
4473.715
 11
4473.715
 20
2663.551
 21
2463.551
  0
LINE
  8
COSTRUZIONI
 10
4473.715
 11
2473.715
 20
2463.551
 21
2463.551
  0
LINE
  8
COSTRUZIONI
 10
2773.715
 11
2773.715
 20
2463.551
 21
2663.551
  0
LINE
  8
COSTRUZIONI
 10
3073.715
 11
3073.715
 20
2463.551
 21
2663.551
  0
LINE
  8
COSTRUZIONI
 10
3523.715
 11
3523.715
 20
2463.551
 21
2663.551
  0
LINE
  8
COSTRUZIONI
 10
3973.715
 11
3973.715
 20
2463.551
 21
2663.551
  0
LINE
  8
COSTRUZIONI
 10
2473.715
 11
2473.715
 20
2463.551
 21
2313.551
  0
LINE
  8
COSTRUZIONI
 10
2473.715
 11
4473.715
 20
2313.551
 21
2313.551
  0
LINE
  8
COSTRUZIONI
 10
4473.715
 11
4473.715
 20
2463.551
 21
2313.551
  0
LINE
  8
COSTRUZIONI
 10
2868.693
 11
2868.693
 20
2463.551
 21
2313.551
  0
LINE
  8
APS_GEOMETRY
 10
2577.684
 11
2627.684
 20
2324.28
 21
2324.28
  0
LINE
  8
APS_GEOMETRY
 10
2627.684
 11
2627.684
 20
2324.28
 21
2374.28
  0
LINE
  8
APS_GEOMETRY
 10
2627.684
 11
2577.684
 20
2374.28
 21
2374.28
  0
LINE
  8
APS_GEOMETRY
 10
2577.684
 11
2577.684
 20
2374.28
 21
2324.28
  0
LINE
  8
APS_GEOMETRY
 10
2805.887
 11
2855.887
 20
2324.28
 21
2324.28
  0
LINE
  8
APS_GEOMETRY
 10
2855.887
 11
2855.887
 20
2324.28
 21
2374.28
  0
LINE
  8
APS_GEOMETRY
 10
2855.887
 11
2805.887
 20
2374.28
 21
2374.28
  0
LINE
  8
APS_GEOMETRY
 10
2805.887
 11
2805.887
 20
2374.28
 21
2324.28
  0
LINE
  8
COSTRUZIONI
 10
2473.715
 11
2868.693
 20
2395.554
 21
2395.554
  0
LINE
  8
COSTRUZIONI
 10
2671.204
 11
2671.204
 20
2395.554
 21
2313.551
  0
LINE
  8
COSTRUZIONI
 10
3017.033
 11
3034.733
 20
2350.517
 21
2350.517
  0
LINE
  8
COSTRUZIONI
 10
3034.733
 11
3034.733
 20
2350.517
 21
2347.017
  0
LINE
  8
COSTRUZIONI
 10
3034.733
 11
3017.033
 20
2347.017
 21
2347.017
  0
LINE
  8
COSTRUZIONI
 10
3017.033
 11
3017.033
 20
2347.017
 21
2350.517
  0
LINE
  8
COSTRUZIONI
 10
3024.733
 11
3024.733
 20
2350.517
 21
2377.017
  0
ARC
  8
COSTRUZIONI
 10
3021.733
 20
2377.017
 40
3.0
 50
0.0
 51
90.0
  0
LINE
  8
COSTRUZIONI
 10
3021.733
 11
3002.733
 20
2380.017
 21
2380.017
  0
ARC
  8
COSTRUZIONI
 10
3002.733
 20
2377.017
 40
3.0
 50
90.0
 51
180.0
  0
LINE
  8
COSTRUZIONI
 10
2999.733
 11
2999.733
 20
2377.017
 21
2356.017
  0
LINE
  8
COSTRUZIONI
 10
2999.733
 11
2995.233
 20
2356.017
 21
2356.017
  0
LINE
  8
COSTRUZIONI
 10
2995.233
 11
2995.233
 20
2356.017
 21
2370.017
  0
LINE
  8
COSTRUZIONI
 10
2995.233
 11
2991.233
 20
2370.017
 21
2370.017
  0
LINE
  8
COSTRUZIONI
 10
2991.233
 11
2991.233
 20
2370.017
 21
2334.236
  0
LINE
  8
COSTRUZIONI
 10
3035.233
 11
3035.233
 20
2320.245
 21
2346.017
  0
LINE
  8
COSTRUZIONI
 10
3055.607
 11
3040.733
 20
2335.017
 21
2335.017
  0
ARC
  8
COSTRUZIONI
 10
3040.733
 20
2338.017
 40
3.0
 50
180.0
 51
270.0
  0
LINE
  8
COSTRUZIONI
 10
3037.733
 11
3037.733
 20
2338.017
 21
2350.017
  0
LINE
  8
COSTRUZIONI
 10
3037.733
 11
3029.233
 20
2350.017
 21
2350.017
  0
ARC
  8
COSTRUZIONI
 10
3029.233
 20
2351.517
 40
1.5
 50
180.0
 51
270.0
  0
LINE
  8
COSTRUZIONI
 10
3027.733
 11
3027.733
 20
2351.517
 21
2377.017
  0
ARC
  8
COSTRUZIONI
 10
3030.733
 20
2377.017
 40
3.0
 50
90.0
 51
180.0
  0
LINE
  8
COSTRUZIONI
 10
3030.733
 11
3056.768
 20
2380.017
 21
2380.017
  0
LINE
  8
QUOTATURA
 10
2949.673
 11
2949.673
 20
2336.21
 21
2336.877
  0
LINE
  8
COSTRUZIONI
 10
2932.473
 11
2940.173
 20
2341.044
 21
2341.044
  0
ARC
  8
COSTRUZIONI
 10
2945.173
 20
2329.044
 40
13.0
 50
67.38
 51
112.62
  0
LINE
  8
COSTRUZIONI
 10
2950.173
 11
2950.173
 20
2341.044
 21
2337.544
  0
LINE
  8
COSTRUZIONI
 10
2950.173
 11
2932.473
 20
2337.544
 21
2337.544
  0
LINE
  8
COSTRUZIONI
 10
2932.473
 11
2932.473
 20
2337.544
 21
2341.044
  0
LINE
  8
COSTRUZIONI
 10
2932.65
 11
2932.473
 20
2337.544
 21
2337.72
  0
LINE
  8
COSTRUZIONI
 10
2932.473
 11
2933.18
 20
2338.251
 21
2337.544
  0
LINE
  8
COSTRUZIONI
 10
2933.357
 11
2932.473
 20
2337.544
 21
2338.427
  0
LINE
  8
COSTRUZIONI
 10
2932.473
 11
2933.888
 20
2338.958
 21
2337.544
  0
LINE
  8
COSTRUZIONI
 10
2934.064
 11
2932.473
 20
2337.544
 21
2339.135
  0
LINE
  8
COSTRUZIONI
 10
2932.473
 11
2934.595
 20
2339.665
 21
2337.544
  0
LINE
  8
COSTRUZIONI
 10
2934.771
 11
2932.473
 20
2337.544
 21
2339.842
  0
LINE
  8
COSTRUZIONI
 10
2932.473
 11
2935.302
 20
2340.372
 21
2337.544
  0
LINE
  8
COSTRUZIONI
 10
2935.479
 11
2932.473
 20
2337.544
 21
2340.549
  0
LINE
  8
COSTRUZIONI
 10
2932.509
 11
2936.009
 20
2341.044
 21
2337.544
  0
LINE
  8
COSTRUZIONI
 10
2936.186
 11
2932.686
 20
2337.544
 21
2341.044
  0
LINE
  8
COSTRUZIONI
 10
2933.216
 11
2936.716
 20
2341.044
 21
2337.544
  0
LINE
  8
COSTRUZIONI
 10
2936.893
 11
2933.393
 20
2337.544
 21
2341.044
  0
LINE
  8
COSTRUZIONI
 10
2933.923
 11
2937.423
 20
2341.044
 21
2337.544
  0
LINE
  8
COSTRUZIONI
 10
2937.6
 11
2934.1
 20
2337.544
 21
2341.044
  0
LINE
  8
COSTRUZIONI
 10
2934.63
 11
2938.13
 20
2341.044
 21
2337.544
  0
LINE
  8
COSTRUZIONI
 10
2938.307
 11
2934.807
 20
2337.544
 21
2341.044
  0
LINE
  8
COSTRUZIONI
 10
2935.337
 11
2938.837
 20
2341.044
 21
2337.544
  0
LINE
  8
COSTRUZIONI
 10
2939.014
 11
2935.514
 20
2337.544
 21
2341.044
  0
LINE
  8
COSTRUZIONI
 10
2936.044
 11
2939.544
 20
2341.044
 21
2337.544
  0
LINE
  8
COSTRUZIONI
 10
2939.721
 11
2936.221
 20
2337.544
 21
2341.044
  0
LINE
  8
COSTRUZIONI
 10
2936.752
 11
2940.252
 20
2341.044
 21
2337.544
  0
LINE
  8
COSTRUZIONI
 10
2940.428
 11
2936.928
 20
2337.544
 21
2341.044
  0
LINE
  8
COSTRUZIONI
 10
2937.459
 11
2940.959
 20
2341.044
 21
2337.544
  0
LINE
  8
COSTRUZIONI
 10
2941.135
 11
2937.635
 20
2337.544
 21
2341.044
  0
LINE
  8
COSTRUZIONI
 10
2938.166
 11
2941.666
 20
2341.044
 21
2337.544
  0
LINE
  8
COSTRUZIONI
 10
2941.842
 11
2938.342
 20
2337.544
 21
2341.044
  0
LINE
  8
COSTRUZIONI
 10
2938.873
 11
2942.373
 20
2341.044
 21
2337.544
  0
LINE
  8
COSTRUZIONI
 10
2942.55
 11
2939.05
 20
2337.544
 21
2341.044
  0
LINE
  8
COSTRUZIONI
 10
2939.58
 11
2943.08
 20
2341.044
 21
2337.544
  0
LINE
  8
COSTRUZIONI
 10
2943.257
 11
2939.757
 20
2337.544
 21
2341.044
  0
LINE
  8
COSTRUZIONI
 10
2940.254
 11
2943.787
 20
2341.077
 21
2337.544
  0
LINE
  8
COSTRUZIONI
 10
2943.964
 11
2940.38
 20
2337.544
 21
2341.127
  0
LINE
  8
COSTRUZIONI
 10
2940.765
 11
2944.494
 20
2341.273
 21
2337.544
  0
LINE
  8
COSTRUZIONI
 10
2944.671
 11
2940.895
 20
2337.544
 21
2341.319
  0
LINE
  8
COSTRUZIONI
 10
2941.294
 11
2945.201
 20
2341.451
 21
2337.544
  0
LINE
  8
COSTRUZIONI
 10
2945.378
 11
2941.429
 20
2337.544
 21
2341.493
  0
LINE
  8
COSTRUZIONI
 10
2941.842
 11
2945.908
 20
2341.61
 21
2337.544
  0
LINE
  8
COSTRUZIONI
 10
2946.085
 11
2941.983
 20
2337.544
 21
2341.646
  0
LINE
  8
COSTRUZIONI
 10
2942.412
 11
2946.615
 20
2341.747
 21
2337.544
  0
LINE
  8
COSTRUZIONI
 10
2946.792
 11
2942.558
 20
2337.544
 21
2341.778
  0
LINE
  8
COSTRUZIONI
 10
2943.005
 11
2947.323
 20
2341.861
 21
2337.544
  0
LINE
  8
COSTRUZIONI
 10
2947.499
 11
2943.157
 20
2337.544
 21
2341.886
  0
LINE
  8
COSTRUZIONI
 10
2943.623
 11
2948.03
 20
2341.951
 21
2337.544
  0
LINE
  8
COSTRUZIONI
 10
2948.206
 11
2943.781
 20
2337.544
 21
2341.969
  0
LINE
  8
COSTRUZIONI
 10
2944.268
 11
2948.737
 20
2342.012
 21
2337.544
  0
LINE
  8
COSTRUZIONI
 10
2948.914
 11
2944.435
 20
2337.544
 21
2342.023
  0
LINE
  8
COSTRUZIONI
 10
2944.946
 11
2949.444
 20
2342.042
 21
2337.544
  0
LINE
  8
COSTRUZIONI
 10
2949.621
 11
2945.121
 20
2337.544
 21
2342.043
  0
LINE
  8
COSTRUZIONI
 10
2945.66
 11
2950.151
 20
2342.034
 21
2337.544
  0
LINE
  8
COSTRUZIONI
 10
2950.173
 11
2945.845
 20
2337.698
 21
2342.026
  0
LINE
  8
COSTRUZIONI
 10
2946.418
 11
2950.173
 20
2341.984
 21
2338.228
  0
LINE
  8
COSTRUZIONI
 10
2950.173
 11
2946.615
 20
2338.405
 21
2341.963
  0
LINE
  8
COSTRUZIONI
 10
2947.229
 11
2950.173
 20
2341.88
 21
2338.935
  0
LINE
  8
COSTRUZIONI
 10
2950.173
 11
2947.441
 20
2339.112
 21
2341.844
  0
LINE
  8
COSTRUZIONI
 10
2948.108
 11
2950.173
 20
2341.708
 21
2339.642
  0
LINE
  8
COSTRUZIONI
 10
2950.173
 11
2948.341
 20
2339.819
 21
2341.652
  0
LINE
  8
COSTRUZIONI
 10
2949.08
 11
2950.173
 20
2341.442
 21
2340.35
  0
LINE
  8
COSTRUZIONI
 10
2950.173
 11
2949.343
 20
2340.526
 21
2341.357
  0
ARC
  8
COSTRUZIONI
 10
2949.673
 20
2336.544
 40
1.0
 50
360.0
 51
90.0
  0
LINE
  8
COSTRUZIONI
 10
2906.673
 11
2906.673
 20
2370.743
 21
2326.779
  0
LINE
  8
COSTRUZIONI
 10
2950.673
 11
2950.673
 20
2323.986
 21
2336.544
  0
LINE
  8
COSTRUZIONI
 10
2940.173
 11
2940.173
 20
2341.044
 21
2367.744
  0
ARC
  8
COSTRUZIONI
 10
2937.173
 20
2367.744
 40
3.0
 50
0.0
 51
90.0
  0
LINE
  8
COSTRUZIONI
 10
2937.173
 11
2915.173
 20
2370.744
 21
2370.744
  0
LINE
  8
COSTRUZIONI
 10
2915.173
 11
2915.173
 20
2370.744
 21
2356.743
  0
LINE
  8
COSTRUZIONI
 10
2915.173
 11
2910.873
 20
2356.743
 21
2356.743
  0
LINE
  8
COSTRUZIONI
 10
2910.873
 11
2910.873
 20
2356.743
 21
2370.743
  0
LINE
  8
COSTRUZIONI
 10
2910.873
 11
2906.673
 20
2370.743
 21
2370.743
  0
LINE
  8
COSTRUZIONI
 10
2946.173
 11
2966.534
 20
2340.744
 21
2340.744
  0
LINE
  8
COSTRUZIONI
 10
2960.254
 11
2938.173
 20
2385.744
 21
2385.744
  0
ARC
  8
COSTRUZIONI
 10
2938.173
 20
2380.744
 40
5.0
 50
90.0
 51
180.0
  0
LINE
  8
COSTRUZIONI
 10
2933.173
 11
2933.173
 20
2380.744
 21
2372.744
  0
ARC
  8
COSTRUZIONI
 10
2935.173
 20
2372.744
 40
2.0
 50
180.0
 51
270.0
  0
LINE
  8
COSTRUZIONI
 10
2935.173
 11
2943.173
 20
2370.744
 21
2370.744
  0
LINE
  8
COSTRUZIONI
 10
2943.173
 11
2943.173
 20
2370.744
 21
2343.744
  0
ARC
  8
COSTRUZIONI
 10
2946.173
 20
2343.744
 40
3.0
 50
180.0
 51
270.0
  0
CIRCLE
  8
COSTRUZIONI
 10
2923.523
 20
2379.393
 40
6.85
  0
LINE
  8
COSTRUZIONI
 10
2929.561
 11
2933.419
 20
2382.63
 21
2382.292
  0
LINE
  8
COSTRUZIONI
 10
2933.173
 11
2928.907
 20
2374.785
 21
2375.158
  0
LINE
  8
COSTRUZIONI
 10
2927.273
 11
2927.273
 20
2373.661
 21
2370.744
  0
LINE
  8
COSTRUZIONI
 10
2919.773
 11
2919.773
 20
2370.744
 21
2373.661
  0
LINE
  8
COSTRUZIONI
 10
2922.547
 11
2901.788
 20
2386.243
 21
2386.243
  0
LINE
  8
COSTRUZIONI
 10
2916.673
 11
2916.673
 20
2379.393
 21
2396.12
  0
CIRCLE
  8
COSTRUZIONI
 10
2930.788
 20
2358.693
 40
40.0
  0
CIRCLE
  8
COSTRUZIONI
 10
3023.132
 20
2358.37
 40
40.0
  0
LINE
  8
APS_GEOMETRY
 10
3106.874
 11
3156.874
 20
2324.28
 21
2324.28
  0
LINE
  8
APS_GEOMETRY
 10
3156.874
 11
3156.874
 20
2324.28
 21
2374.28
  0
LINE
  8
APS_GEOMETRY
 10
3156.874
 11
3106.874
 20
2374.28
 21
2374.28
  0
LINE
  8
APS_GEOMETRY
 10
3106.874
 11
3106.874
 20
2374.28
 21
2324.28
  0
LINE
  8
COSTRUZIONI
 10
3188.242
 11
3188.242
 20
2463.551
 21
2313.551
  0
LINE
  8
QUOTATURA
 10
2970.78
 11
2989.634
 20
1548.814
 21
1556.272
  0
LINE
  8
QUOTATURA
 10
2989.634
 11
2974.218
 20
1556.272
 21
1543.101
  0
LINE
  8
QUOTATURA
 10
2974.218
 11
2970.78
 20
1543.101
 21
1548.814
  0
LINE
  8
QUOTATURA
 10
2989.634
 11
2302.779
 20
1556.272
 21
1142.813
  0
LINE
  8
QUOTATURA
 10
2302.779
 11
2010.22
 20
1142.813
 21
1142.813
  0
LINE
  8
QUOTATURA
 10
2010.22
 11
2010.22
 20
1142.813
 21
1009.831
  0
LINE
  8
QUOTATURA
 10
2010.22
 11
2300.12
 20
1009.831
 21
1009.831
  0
LINE
  8
QUOTATURA
 10
2300.12
 11
2300.12
 20
1009.831
 21
1142.813
  0
LINE
  8
QUOTATURA
 10
2970.305
 11
2989.634
 20
987.147
 21
981.022
  0
LINE
  8
QUOTATURA
 10
2989.634
 11
2969.364
 20
981.022
 21
980.545
  0
LINE
  8
QUOTATURA
 10
2969.364
 11
2970.305
 20
980.545
 21
987.147
  0
LINE
  8
QUOTATURA
 10
2989.634
 11
2302.779
 20
981.022
 21
1078.981
  0
LINE
  8
QUOTATURA
 10
2977.26
 11
2989.634
 20
421.834
 21
405.772
  0
LINE
  8
QUOTATURA
 10
2989.634
 11
2972.718
 20
405.772
 21
416.952
  0
LINE
  8
QUOTATURA
 10
2972.718
 11
2977.26
 20
416.952
 21
421.834
  0
LINE
  8
QUOTATURA
 10
2989.634
 11
2300.12
 20
405.772
 21
1047.066
  0
CIRCLE
  8
COSTRUZIONI
 10
3029.9
 20
399.25
 40
15.0
  0
CIRCLE
  8
COSTRUZIONI
 10
3029.9
 20
974.5
 40
15.0
  0
CIRCLE
  8
COSTRUZIONI
 10
3029.9
 20
1549.75
 40
15.0
  0
LINE
  8
COSTRUZIONI
 10
3282.4
 11
3282.4
 20
1124.03
 21
1814.5
  0
LINE
  8
COSTRUZIONI
 10
3282.4
 11
3282.4
 20
1944.5
 21
1946.5
  0
LINE
  8
COSTRUZIONI
 10
3332.4
 11
3332.4
 20
1115.94
 21
1864.5
  0
LINE
  8
QUOTATURA
 10
2837.4
 11
3088.138
 20
1864.5
 21
1864.5
  0
LINE
  8
QUOTATURA
 10
2772.9
 11
3088.138
 20
1944.5
 21
1944.5
  0
LINE
  8
QUOTATURA
 10
3078.138
 11
3078.138
 20
1864.5
 21
2053.82
  0
LINE
  8
QUOTATURA
 10
3078.138
 11
3005.439
 20
2053.82
 21
2053.82
  0
LINE
  8
QUOTATURA
 10
3081.472
 11
3078.138
 20
1884.5
 21
1864.5
  0
LINE
  8
QUOTATURA
 10
3078.138
 11
3074.804
 20
1864.5
 21
1884.5
  0
LINE
  8
QUOTATURA
 10
3074.804
 11
3081.472
 20
1884.5
 21
1884.5
  0
LINE
  8
QUOTATURA
 10
3074.804
 11
3078.138
 20
1924.5
 21
1944.5
  0
LINE
  8
QUOTATURA
 10
3078.138
 11
3081.472
 20
1944.5
 21
1924.5
  0
LINE
  8
QUOTATURA
 10
3081.472
 11
3074.804
 20
1924.5
 21
1924.5
  0
LINE
  8
COSTRUZIONI
 10
3396.9
 11
3396.9
 20
1944.5
 21
4.5
  0
LINE
  8
COSTRUZIONI
 10
3396.9
 11
2662.9
 20
4.5
 21
4.5
  0
LINE
  8
COSTRUZIONI
 10
2662.9
 11
2662.9
 20
4.5
 21
1944.5
  0
LINE
  8
COSTRUZIONI
 10
2662.9
 11
3396.9
 20
1944.5
 21
1944.5
  0
LINE
  8
COSTRUZIONI
 10
3282.4
 11
2777.4
 20
1814.5
 21
1814.5
  0
LINE
  8
COSTRUZIONI
 10
2777.4
 11
2777.4
 20
1814.5
 21
134.5
  0
LINE
  8
COSTRUZIONI
 10
2777.4
 11
3282.4
 20
134.5
 21
134.5
  0
LINE
  8
COSTRUZIONI
 10
3282.4
 11
3282.4
 20
134.5
 21
844.428
  0
LINE
  8
COSTRUZIONI
 10
3282.4
 11
3204.33
 20
844.428
 21
889.107
  0
LINE
  8
COSTRUZIONI
 10
3204.33
 11
3282.4
 20
889.107
 21
1124.03
  0
LINE
  8
COSTRUZIONI
 10
3332.4
 11
2727.4
 20
1864.5
 21
1864.5
  0
LINE
  8
COSTRUZIONI
 10
2727.4
 11
2727.4
 20
1864.5
 21
84.5
  0
LINE
  8
COSTRUZIONI
 10
2727.4
 11
3332.4
 20
84.5
 21
84.5
  0
LINE
  8
COSTRUZIONI
 10
3332.4
 11
3332.4
 20
84.5
 21
873.423
  0
LINE
  8
COSTRUZIONI
 10
3332.4
 11
3264.685
 20
873.423
 21
912.175
  0
LINE
  8
COSTRUZIONI
 10
3264.685
 11
3332.4
 20
912.175
 21
1115.94
  0
LINE
  8
COSTRUZIONI
 10
2777.4
 11
3282.4
 20
1814.5
 21
134.5
  0
LINE
  8
COSTRUZIONI
 10
2777.4
 11
3282.4
 20
134.5
 21
1814.5
  0
LINE
  8
QUOTATURA
 10
3421.9
 11
3615.394
 20
4.5
 21
4.5
  0
LINE
  8
QUOTATURA
 10
3054.9
 11
3615.394
 20
399.25
 21
399.25
  0
LINE
  8
QUOTATURA
 10
3590.394
 11
3590.394
 20
4.5
 21
163.755
  0
LINE
  8
QUOTATURA
 10
3590.394
 11
3590.394
 20
239.532
 21
399.25
  0
LINE
  8
QUOTATURA
 10
3598.729
 11
3590.394
 20
54.5
 21
4.5
  0
LINE
  8
QUOTATURA
 10
3590.394
 11
3582.059
 20
4.5
 21
54.5
  0
LINE
  8
QUOTATURA
 10
3582.059
 11
3598.729
 20
54.5
 21
54.5
  0
LINE
  8
QUOTATURA
 10
3582.059
 11
3590.394
 20
349.25
 21
399.25
  0
LINE
  8
QUOTATURA
 10
3590.394
 11
3598.729
 20
399.25
 21
349.25
  0
LINE
  8
QUOTATURA
 10
3598.729
 11
3582.059
 20
349.25
 21
349.25
  0
LINE
  8
QUOTATURA
 10
3029.9
 11
3029.9
 20
390.915
 21
407.585
  0
LINE
  8
QUOTATURA
 10
3021.565
 11
3038.235
 20
399.25
 21
399.25
  0
LINE
  8
QUOTATURA
 10
3054.9
 11
3615.394
 20
974.5
 21
974.5
  0
LINE
  8
QUOTATURA
 10
3590.394
 11
3590.394
 20
399.25
 21
728.66
  0
LINE
  8
QUOTATURA
 10
3590.394
 11
3590.394
 20
804.223
 21
974.5
  0
LINE
  8
QUOTATURA
 10
3598.729
 11
3590.394
 20
449.25
 21
399.25
  0
LINE
  8
QUOTATURA
 10
3590.394
 11
3582.059
 20
399.25
 21
449.25
  0
LINE
  8
QUOTATURA
 10
3582.059
 11
3598.729
 20
449.25
 21
449.25
  0
LINE
  8
QUOTATURA
 10
3582.059
 11
3590.394
 20
924.5
 21
974.5
  0
LINE
  8
QUOTATURA
 10
3590.394
 11
3598.729
 20
974.5
 21
924.5
  0
LINE
  8
QUOTATURA
 10
3598.729
 11
3582.059
 20
924.5
 21
924.5
  0
LINE
  8
QUOTATURA
 10
3029.9
 11
3029.9
 20
966.165
 21
982.835
  0
LINE
  8
QUOTATURA
 10
3021.565
 11
3038.235
 20
974.5
 21
974.5
  0
LINE
  8
QUOTATURA
 10
3054.9
 11
3612.062
 20
1549.75
 21
1549.75
  0
LINE
  8
QUOTATURA
 10
3587.062
 11
3587.062
 20
974.5
 21
1224.219
  0
LINE
  8
QUOTATURA
 10
3587.062
 11
3587.062
 20
1299.782
 21
1549.75
  0
LINE
  8
QUOTATURA
 10
3595.397
 11
3587.062
 20
1024.5
 21
974.5
  0
LINE
  8
QUOTATURA
 10
3587.062
 11
3578.727
 20
974.5
 21
1024.5
  0
LINE
  8
QUOTATURA
 10
3578.727
 11
3595.397
 20
1024.5
 21
1024.5
  0
LINE
  8
QUOTATURA
 10
3578.727
 11
3587.062
 20
1499.75
 21
1549.75
  0
LINE
  8
QUOTATURA
 10
3587.062
 11
3595.397
 20
1549.75
 21
1499.75
  0
LINE
  8
QUOTATURA
 10
3595.397
 11
3578.727
 20
1499.75
 21
1499.75
  0
LINE
  8
QUOTATURA
 10
3029.9
 11
3029.9
 20
1541.415
 21
1558.085
  0
LINE
  8
QUOTATURA
 10
3021.565
 11
3038.235
 20
1549.75
 21
1549.75
  0
LINE
  8
QUOTATURA
 10
3421.9
 11
3615.394
 20
1944.5
 21
1944.5
  0
LINE
  8
QUOTATURA
 10
3590.394
 11
3590.394
 20
1549.75
 21
1709.005
  0
LINE
  8
QUOTATURA
 10
3590.394
 11
3590.394
 20
1784.782
 21
1944.5
  0
LINE
  8
QUOTATURA
 10
3598.729
 11
3590.394
 20
1599.75
 21
1549.75
  0
LINE
  8
QUOTATURA
 10
3590.394
 11
3582.059
 20
1549.75
 21
1599.75
  0
LINE
  8
QUOTATURA
 10
3582.059
 11
3598.729
 20
1599.75
 21
1599.75
  0
LINE
  8
QUOTATURA
 10
3582.059
 11
3590.394
 20
1894.5
 21
1944.5
  0
LINE
  8
QUOTATURA
 10
3590.394
 11
3598.729
 20
1944.5
 21
1894.5
  0
LINE
  8
QUOTATURA
 10
3598.729
 11
3582.059
 20
1894.5
 21
1894.5
  0
LINE
  8
QUOTATURA
 10
2637.9
 11
2485.795
 20
1944.5
 21
1944.5
  0
LINE
  8
QUOTATURA
 10
2637.9
 11
2485.795
 20
4.5
 21
4.5
  0
LINE
  8
QUOTATURA
 10
2510.795
 11
2510.795
 20
1944.5
 21
1012.017
  0
LINE
  8
QUOTATURA
 10
2510.795
 11
2510.795
 20
936.38
 21
4.5
  0
LINE
  8
QUOTATURA
 10
2502.46
 11
2510.795
 20
1894.5
 21
1944.5
  0
LINE
  8
QUOTATURA
 10
2510.795
 11
2519.13
 20
1944.5
 21
1894.5
  0
LINE
  8
QUOTATURA
 10
2519.13
 11
2502.46
 20
1894.5
 21
1894.5
  0
LINE
  8
QUOTATURA
 10
2519.13
 11
2510.795
 20
54.5
 21
4.5
  0
LINE
  8
QUOTATURA
 10
2510.795
 11
2502.46
 20
4.5
 21
54.5
  0
LINE
  8
QUOTATURA
 10
2502.46
 11
2519.13
 20
54.5
 21
54.5
  0
LINE
  8
QUOTATURA
 10
2662.9
 11
2662.9
 20
-20.5
 21
-114.783
  0
LINE
  8
QUOTATURA
 10
3396.9
 11
3396.9
 20
-20.5
 21
-114.783
  0
LINE
  8
QUOTATURA
 10
2662.9
 11
2950.478
 20
-89.783
 21
-89.783
  0
LINE
  8
QUOTATURA
 10
3109.322
 11
3396.9
 20
-89.783
 21
-89.783
  0
LINE
  8
QUOTATURA
 10
2712.9
 11
2662.9
 20
-98.118
 21
-89.783
  0
LINE
  8
QUOTATURA
 10
2662.9
 11
2712.9
 20
-89.783
 21
-81.448
  0
LINE
  8
QUOTATURA
 10
2712.9
 11
2712.9
 20
-81.448
 21
-98.118
  0
LINE
  8
QUOTATURA
 10
3346.9
 11
3396.9
 20
-81.448
 21
-89.783
  0
LINE
  8
QUOTATURA
 10
3396.9
 11
3346.9
 20
-89.783
 21
-98.118
  0
LINE
  8
QUOTATURA
 10
3346.9
 11
3346.9
 20
-98.118
 21
-81.448
  0
CIRCLE
  8
COSTRUZIONI
 10
4165.74
 20
399.25
 40
15.0
  0
CIRCLE
  8
COSTRUZIONI
 10
4165.74
 20
974.5
 40
15.0
  0
CIRCLE
  8
COSTRUZIONI
 10
4165.74
 20
1549.75
 40
15.0
  0
LINE
  8
COSTRUZIONI
 10
3913.24
 11
3913.24
 20
1124.03
 21
1814.5
  0
LINE
  8
COSTRUZIONI
 10
3863.24
 11
3863.24
 20
1115.94
 21
1864.5
  0
LINE
  8
COSTRUZIONI
 10
3798.74
 11
3798.74
 20
1944.5
 21
4.5
  0
LINE
  8
COSTRUZIONI
 10
3798.74
 11
4532.74
 20
4.5
 21
4.5
  0
LINE
  8
COSTRUZIONI
 10
4532.74
 11
4532.74
 20
4.5
 21
1944.5
  0
LINE
  8
COSTRUZIONI
 10
4532.74
 11
3798.74
 20
1944.5
 21
1944.5
  0
LINE
  8
COSTRUZIONI
 10
3913.24
 11
4418.24
 20
1814.5
 21
1814.5
  0
LINE
  8
COSTRUZIONI
 10
4418.24
 11
4418.24
 20
1814.5
 21
134.5
  0
LINE
  8
COSTRUZIONI
 10
4418.24
 11
3913.24
 20
134.5
 21
134.5
  0
LINE
  8
COSTRUZIONI
 10
3913.24
 11
3913.24
 20
134.5
 21
844.428
  0
LINE
  8
COSTRUZIONI
 10
3913.24
 11
3991.31
 20
844.428
 21
889.107
  0
LINE
  8
COSTRUZIONI
 10
3991.31
 11
3913.24
 20
889.107
 21
1124.03
  0
LINE
  8
COSTRUZIONI
 10
3863.24
 11
4468.24
 20
1864.5
 21
1864.5
  0
LINE
  8
COSTRUZIONI
 10
4468.24
 11
4468.24
 20
1864.5
 21
84.5
  0
LINE
  8
COSTRUZIONI
 10
4468.24
 11
3863.24
 20
84.5
 21
84.5
  0
LINE
  8
COSTRUZIONI
 10
3863.24
 11
3863.24
 20
84.5
 21
873.423
  0
LINE
  8
COSTRUZIONI
 10
3863.24
 11
3930.956
 20
873.423
 21
912.175
  0
LINE
  8
COSTRUZIONI
 10
3930.956
 11
3863.24
 20
912.175
 21
1115.94
  0
LINE
  8
COSTRUZIONI
 10
4418.24
 11
3913.24
 20
1814.5
 21
134.5
  0
LINE
  8
COSTRUZIONI
 10
4418.24
 11
3913.24
 20
134.5
 21
1814.5
  0
TEXT
  8
TEXT
 10
2642.084
 20
1794.442
 30
0.0
 40
30.0
 50
0.0
  1
M
  0
TEXT
  8
TEXT
 10
2712.391
 20
1793.164
 30
0.0
 40
30.0
 50
0.0
  1
V
  0
TEXT
  8
TEXT
 10
2986.137
 20
1851.848
 30
0.0
 40
30.0
 50
0.0
  1
V
  0
TEXT
  8
TEXT
 10
3319.18
 20
1777.263
 30
0.0
 40
30.0
 50
0.0
  1
V
  0
TEXT
  8
TEXT
 10
3383.381
 20
1787.718
 30
0.0
 40
30.0
 50
0.0
  1
M
  0
TEXT
  8
TEXT
 10
2976.55
 20
1938.133
 30
0.0
 40
30.0
 50
0.0
  1
M
  0
TEXT
  8
TEXT
 10
2999.943
 20
-7.126
 30
0.0
 40
30.0
 50
0.0
  1
M
  0
TEXT
  8
TEXT
 10
2999.943
 20
68.768
 30
0.0
 40
30.0
 50
0.0
  1
V
  0
TEXT
  8
TEXT
 10
2818.894
 20
969.881
 30
0.0
 40
30.0
 50
0.0
  1
AREA TRAFORATO
  0
TEXT
  8
TEXT
 10
3097.816
 20
2235.638
 30
0.0
 40
30.0
 50
0.0
  1
PANNELLI TRAFORATI PER UNA ANTA 815X1940
  0
TEXT
  8
TEXT
 10
3097.816
 20
2190.638
 30
0.0
 40
30.0
 50
0.0
  1
(SPESSORE 5.25)
  0
TEXT
  8
TEXT
 10
2717.47
 20
-194.036
 30
0.0
 40
30.0
 50
0.0
  1
LEGENDA LAVORAZIONI LASER:
  0
TEXT
  8
TEXT
 10
2717.47
 20
-239.036
 30
0.0
 40
30.0
 50
0.0
  1

  0
TEXT
  8
TEXT
 10
2717.47
 20
-284.036
 30
0.0
 40
30.0
 50
0.0
  1
[ V ] = FUGA A V DI 1.5-3 mm largh.
  0
TEXT
  8
TEXT
 10
2717.47
 20
-329.036
 30
0.0
 40
30.0
 50
0.0
  1
[ X ] = AREA TRAFORO SECONDO SPECIFICHE ARCHITETTO
  0
TEXT
  8
TEXT
 10
2717.47
 20
-374.036
 30
0.0
 40
30.0
 50
0.0
  1

  0
TEXT
  8
TEXT
 10
2717.47
 20
-419.036
 30
0.0
 40
30.0
 50
0.0
  1
LEGENDA LAVORAZIONI MANUALI
  0
TEXT
  8
TEXT
 10
2717.47
 20
-464.036
 30
0.0
 40
30.0
 50
0.0
  1

  0
TEXT
  8
TEXT
 10
2717.47
 20
-509.036
 30
0.0
 40
30.0
 50
0.0
  1
[ M ] = SPIGOLARE MANUALAMENTE
  0
TEXT
  8
TEXT
 10
2538.412
 20
-640.261
 30
0.0
 40
20.0
 50
0.0
  1
Ufficio tecnico:
  0
TEXT
  8
TEXT
 10
3031.76
 20
-764.603
 30
0.0
 40
25.0
 50
0.0
  1
tel. 0577-68.54.26 - fax 0577-68.64.29
  0
TEXT
  8
TEXT
 10
3031.76
 20
-802.103
 30
0.0
 40
25.0
 50
0.0
  1
e-mail: tecnico@toscocornici.it - web: www.tosococornici.it
  0
TEXT
  8
TEXT
 10
3642.85
 20
-793.795
 30
0.0
 40
40.0
 50
0.0
  1
B.Ste
  0
TEXT
  8
TEXT
 10
3791.269
 20
-793.795
 30
0.0
 40
40.0
 50
0.0
  1
f
  0
TEXT
  8
TEXT
 10
3821.954
 20
-793.795
 30
0.0
 40
40.0
 50
0.0
  1
ano
  0
TEXT
  8
TEXT
 10
3538.63
 20
-637.299
 30
0.0
 40
20.0
 50
0.0
  1
documento:
  0
TEXT
  8
TEXT
 10
4039.831
 20
-637.213
 30
0.0
 40
20.0
 50
0.0
  1
data:
  0
TEXT
  8
TEXT
 10
4288.93
 20
-688.704
 30
0.0
 40
30.0
 50
0.0
  1
15/7/18
  0
TEXT
  8
TEXT
 10
4297.684
 20
-789.414
 30
0.0
 40
30.0
 50
0.0
  1
1 : 10
  0
TEXT
  8
TEXT
 10
3536.817
 20
-735.523
 30
0.0
 40
20.0
 50
0.0
  1
responsabile tecnico:
  0
TEXT
  8
TEXT
 10
4038.412
 20
-735.813
 30
0.0
 40
20.0
 50
0.0
  1
scala:
  0
TEXT
  8
QUOTATURA
 10
2591.669
 20
1269.116
 30
0.0
 40
20.0
 50
0.0
  1
50
  0
TEXT
  8
QUOTATURA
 10
2566.511
 20
1217.624
 30
0.0
 40
20.0
 50
0.0
  1
64.5
  0
TEXT
  8
TEXT
 10
3782.286
 20
-690.42
 30
0.0
 40
17.0
 50
0.0
  1
PORTALAPORTA_STD-V_LASER_L784H1940
  0
TEXT
  8
QUOTATURA
 10
2764.373
 20
-58.129
 30
0.0
 40
20.0
 50
0.0
  1
80
  0
TEXT
  8
TEXT
 10
2838.09
 20
1708.356
 30
0.0
 40
200.0
 50
0.0
  1
SX
  0
TEXT
  8
TEXT
 10
2579.76
 20
2611.659
 30
0.0
 40
30.0
 50
0.0
  1
RIF.
  0
TEXT
  8
TEXT
 10
2832.982
 20
2611.659
 30
0.0
 40
30.0
 50
0.0
  1
QUANTITA'
  0
TEXT
  8
TEXT
 10
3211.153
 20
2611.659
 30
0.0
 40
30.0
 50
0.0
  1
ESSENZA
  0
TEXT
  8
TEXT
 10
3657.451
 20
2611.659
 30
0.0
 40
30.0
 50
0.0
  1
MODELLO
  0
TEXT
  8
TEXT
 10
4010.575
 20
2611.659
 30
0.0
 40
30.0
 50
0.0
  1
CONSEGNA ENTRO IL
  0
TEXT
  8
TEXT
 10
2500.62
 20
2411.659
 30
0.0
 40
30.0
 50
0.0
  1
MANO APERTURA
  0
TEXT
  8
TEXT
 10
2936.441
 20
2418.73
 30
0.0
 40
30.0
 50
0.0
  1
BATTENTE
  0
TEXT
  8
TEXT
 10
2484.605
 20
2324.687
 30
0.0
 40
50.0
 50
0.0
  1
SX
  0
TEXT
  8
TEXT
 10
2712.808
 20
2324.687
 30
0.0
 40
50.0
 50
0.0
  1
DX
  0
TEXT
  8
TEXT
 10
2031.497
 20
1086.96
 30
0.0
 40
30.0
 50
0.0
  1
ISOLE
  0
TEXT
  8
TEXT
 10
2031.497
 20
1041.96
 30
0.0
 40
30.0
 50
0.0
  1
NON FORARE
  0
TEXT
  8
QUOTATURA
 10
2966.237
 20
2043.82
 30
0.0
 40
20.0
 50
0.0
  1
80
  0
TEXT
  8
TEXT
 10
3955.184
 20
1708.356
 30
0.0
 40
200.0
 50
0.0
  1
DX
  0
TEXT
  8
QUOTATURA
 10
3469.564
 20
176.875
 30
0.0
 40
50.0
 50
0.0
  1
394.75
  0
TEXT
  8
QUOTATURA
 10
3473.817
 20
741.566
 30
0.0
 40
50.0
 50
0.0
  1
575.25
  0
TEXT
  8
QUOTATURA
 10
3470.485
 20
1237.125
 30
0.0
 40
50.0
 50
0.0
  1
575.25
  0
TEXT
  8
QUOTATURA
 10
3469.564
 20
1722.125
 30
0.0
 40
50.0
 50
0.0
  1
394.75
  0
TEXT
  8
QUOTATURA
 10
2429.074
 20
949.5
 30
0.0
 40
50.0
 50
0.0
  1
1940
  0
TEXT
  8
QUOTATURA
 10
2961.601
 20
-114.783
 30
0.0
 40
50.0
 50
0.0
  1
734
  0
ENDSEC
  0
EOF
