  0
SECTION
  2
ENTITIES
  0
CIRCLE
  8
COSTRUZIONI
 10
3029.900128
 20
474.25
 40
15.0
  0
CIRCLE
  8
COSTRUZIONI
 10
3029.900128
 20
1049.5
 40
15.0
  0
CIRCLE
  8
COSTRUZIONI
 10
3029.900128
 20
1624.75
 40
15.0
  0
LINE
  8
COSTRUZIONI
 10
2662.900128
 11
3396.900128
 20
2094.5
 21
2094.5
  0
LINE
  8
COSTRUZIONI
 10
3396.900128
 11
3396.900128
 20
2094.5
 21
4.5
  0
LINE
  8
COSTRUZIONI
 10
3396.900128
 11
2662.900128
 20
4.5
 21
4.5
  0
LINE
  8
COSTRUZIONI
 10
2662.900128
 11
2662.900128
 20
4.5
 21
2094.5
  0
LINE
  8
COSTRUZIONI
 10
3282.400128
 11
3282.400128
 20
1124.030238
 21
1964.5
  0
LINE
  8
COSTRUZIONI
 10
3282.400128
 11
2777.400128
 20
1964.5
 21
1964.5
  0
LINE
  8
COSTRUZIONI
 10
2777.400128
 11
2777.400128
 20
1964.5
 21
134.5
  0
LINE
  8
COSTRUZIONI
 10
2777.400128
 11
3282.400128
 20
134.5
 21
134.5
  0
LINE
  8
COSTRUZIONI
 10
3282.400128
 11
3282.400128
 20
134.5
 21
844.428204
  0
LINE
  8
COSTRUZIONI
 10
3282.400128
 11
3204.329866
 20
844.428204
 21
889.106648
  0
LINE
  8
COSTRUZIONI
 10
3204.329866
 11
3282.400128
 20
889.106648
 21
1124.030238
  0
LINE
  8
COSTRUZIONI
 10
3332.400128
 11
3332.400128
 20
1115.939716
 21
2014.5
  0
LINE
  8
COSTRUZIONI
 10
3332.400128
 11
2727.400128
 20
2014.5
 21
2014.5
  0
LINE
  8
COSTRUZIONI
 10
2727.400128
 11
2727.400128
 20
2014.5
 21
84.5
  0
LINE
  8
COSTRUZIONI
 10
2727.400128
 11
3332.400128
 20
84.5
 21
84.5
  0
LINE
  8
COSTRUZIONI
 10
3332.400128
 11
3332.400128
 20
84.5
 21
873.422766
  0
LINE
  8
COSTRUZIONI
 10
3332.400128
 11
3264.684734
 20
873.422766
 21
912.175273
  0
LINE
  8
COSTRUZIONI
 10
3264.684734
 11
3332.400128
 20
912.175273
 21
1115.939716
  0
LINE
  8
COSTRUZIONI
 10
2777.400128
 11
3282.400128
 20
1964.5
 21
134.5
  0
LINE
  8
COSTRUZIONI
 10
2777.400128
 11
3282.400128
 20
134.5
 21
1964.5
  0
CIRCLE
  8
COSTRUZIONI
 10
4100.00523
 20
474.25
 40
15.0
  0
CIRCLE
  8
COSTRUZIONI
 10
4100.00523
 20
1049.5
 40
15.0
  0
CIRCLE
  8
COSTRUZIONI
 10
4100.00523
 20
1624.75
 40
15.0
  0
LINE
  8
COSTRUZIONI
 10
4467.00523
 11
3733.00523
 20
2094.5
 21
2094.5
  0
LINE
  8
COSTRUZIONI
 10
3733.00523
 11
3733.00523
 20
2094.5
 21
4.5
  0
LINE
  8
COSTRUZIONI
 10
3733.00523
 11
4467.00523
 20
4.5
 21
4.5
  0
LINE
  8
COSTRUZIONI
 10
4467.00523
 11
4467.00523
 20
4.5
 21
2094.5
  0
LINE
  8
COSTRUZIONI
 10
3847.50523
 11
3847.50523
 20
1124.030238
 21
1964.5
  0
LINE
  8
COSTRUZIONI
 10
3847.50523
 11
4352.50523
 20
1964.5
 21
1964.5
  0
LINE
  8
COSTRUZIONI
 10
4352.50523
 11
4352.50523
 20
1964.5
 21
134.5
  0
LINE
  8
COSTRUZIONI
 10
4352.50523
 11
3847.50523
 20
134.5
 21
134.5
  0
LINE
  8
COSTRUZIONI
 10
3847.50523
 11
3847.50523
 20
134.5
 21
844.428204
  0
LINE
  8
COSTRUZIONI
 10
3847.50523
 11
3925.575492
 20
844.428204
 21
889.106648
  0
LINE
  8
COSTRUZIONI
 10
3925.575492
 11
3847.50523
 20
889.106648
 21
1124.030238
  0
LINE
  8
COSTRUZIONI
 10
3797.50523
 11
3797.50523
 20
1115.939716
 21
2014.5
  0
LINE
  8
COSTRUZIONI
 10
3797.50523
 11
4402.50523
 20
2014.5
 21
2014.5
  0
LINE
  8
COSTRUZIONI
 10
4402.50523
 11
4402.50523
 20
2014.5
 21
84.5
  0
LINE
  8
COSTRUZIONI
 10
4402.50523
 11
3797.50523
 20
84.5
 21
84.5
  0
LINE
  8
COSTRUZIONI
 10
3797.50523
 11
3797.50523
 20
84.5
 21
873.422766
  0
LINE
  8
COSTRUZIONI
 10
3797.50523
 11
3865.220624
 20
873.422766
 21
912.175273
  0
LINE
  8
COSTRUZIONI
 10
3865.220624
 11
3797.50523
 20
912.175273
 21
1115.939716
  0
LINE
  8
COSTRUZIONI
 10
4352.50523
 11
3847.50523
 20
1964.5
 21
134.5
  0
LINE
  8
COSTRUZIONI
 10
4352.50523
 11
3847.50523
 20
134.5
 21
1964.5
  0
ENDSEC
  0
EOF
