  0
SECTION
  2
ENTITIES
  0
CIRCLE
  8
COSTRUZIONI
 10
3362.400128
 20
1044.5
 40
10.0
  0
ARC
  8
COSTRUZIONI
 10
3362.400128
 20
944.0
 40
7.0
 50
270.0
 51
0.0
  0
LINE
  8
COSTRUZIONI
 10
3369.400128
 11
3369.400128
 20
944.0
 21
955.0
  0
ARC
  8
COSTRUZIONI
 10
3362.400128
 20
955.0
 40
7.0
 50
0.0
 51
180.0
  0
LINE
  8
COSTRUZIONI
 10
3355.400128
 11
3355.400128
 20
955.0
 21
944.0
  0
ARC
  8
COSTRUZIONI
 10
3362.400128
 20
944.0
 40
7.0
 50
180.0
 51
270.0
  0
CIRCLE
  8
COSTRUZIONI
 10
3809.317752
 20
1044.5
 40
10.0
  0
ARC
  8
COSTRUZIONI
 10
3809.317752
 20
944.0
 40
7.0
 50
180.0
 51
270.0
  0
LINE
  8
COSTRUZIONI
 10
3802.317752
 11
3802.317752
 20
944.0
 21
955.0
  0
ARC
  8
COSTRUZIONI
 10
3809.317752
 20
955.0
 40
7.0
 50
0.0
 51
180.0
  0
LINE
  8
COSTRUZIONI
 10
3816.317752
 11
3816.317752
 20
955.0
 21
944.0
  0
ARC
  8
COSTRUZIONI
 10
3809.317752
 20
944.0
 40
7.0
 50
270.0
 51
0.0
  0
LINE
  8
COSTRUZIONI
 10
2835.400128
 11
3282.400128
 20
134.5
 21
1923.5
  0
LINE
  8
COSTRUZIONI
 10
2835.400128
 11
3282.400128
 20
1923.5
 21
134.5
  0
LINE
  8
COSTRUZIONI
 10
3889.317752
 11
4336.317752
 20
134.5
 21
1923.5
  0
LINE
  8
COSTRUZIONI
 10
3889.317752
 11
4336.317752
 20
1923.5
 21
134.5
  0
LINE
  8
COSTRUZIONI
 10
3396.900128
 11
2720.900128
 20
4.5
 21
4.5
  0
LINE
  8
COSTRUZIONI
 10
2720.900128
 11
2720.900128
 20
4.5
 21
2053.5
  0
LINE
  8
COSTRUZIONI
 10
2720.900128
 11
3396.900128
 20
2053.5
 21
2053.5
  0
LINE
  8
COSTRUZIONI
 10
3396.900128
 11
3396.900128
 20
2053.5
 21
4.5
  0
LINE
  8
COSTRUZIONI
 10
2835.400128
 11
2835.400128
 20
1923.5
 21
134.5
  0
LINE
  8
COSTRUZIONI
 10
2835.400128
 11
3282.400128
 20
134.5
 21
134.5
  0
LINE
  8
COSTRUZIONI
 10
3282.400128
 11
3282.400128
 20
134.5
 21
844.428204
  0
LINE
  8
COSTRUZIONI
 10
3282.400128
 11
3204.329866
 20
844.428204
 21
889.106648
  0
LINE
  8
COSTRUZIONI
 10
3204.329866
 11
3282.400128
 20
889.106648
 21
1124.030238
  0
LINE
  8
COSTRUZIONI
 10
3282.400128
 11
3282.400128
 20
1124.030238
 21
1923.5
  0
LINE
  8
COSTRUZIONI
 10
3282.400128
 11
2835.400128
 20
1923.5
 21
1923.5
  0
LINE
  8
COSTRUZIONI
 10
2785.400128
 11
2785.400128
 20
1973.5
 21
84.5
  0
LINE
  8
COSTRUZIONI
 10
2785.400128
 11
3332.400128
 20
84.5
 21
84.5
  0
LINE
  8
COSTRUZIONI
 10
3332.400128
 11
3332.400128
 20
84.5
 21
873.422766
  0
LINE
  8
COSTRUZIONI
 10
3332.400128
 11
3264.684734
 20
873.422766
 21
912.175273
  0
LINE
  8
COSTRUZIONI
 10
3264.684734
 11
3332.400128
 20
912.175273
 21
1115.939716
  0
LINE
  8
COSTRUZIONI
 10
3332.400128
 11
3332.400128
 20
1115.939716
 21
1973.5
  0
LINE
  8
COSTRUZIONI
 10
3332.400128
 11
2785.400128
 20
1973.5
 21
1973.5
  0
LINE
  8
COSTRUZIONI
 10
3774.817752
 11
4450.817752
 20
4.5
 21
4.5
  0
LINE
  8
COSTRUZIONI
 10
4450.817752
 11
4450.817752
 20
4.5
 21
2053.5
  0
LINE
  8
COSTRUZIONI
 10
4450.817752
 11
3774.817752
 20
2053.5
 21
2053.5
  0
LINE
  8
COSTRUZIONI
 10
3774.817752
 11
3774.817752
 20
2053.5
 21
4.5
  0
LINE
  8
COSTRUZIONI
 10
4336.317752
 11
4336.317752
 20
1923.5
 21
134.5
  0
LINE
  8
COSTRUZIONI
 10
4336.317752
 11
3889.317752
 20
134.5
 21
134.5
  0
LINE
  8
COSTRUZIONI
 10
3889.317752
 11
3889.317752
 20
134.5
 21
844.428204
  0
LINE
  8
COSTRUZIONI
 10
3889.317752
 11
3967.388014
 20
844.428204
 21
889.106648
  0
LINE
  8
COSTRUZIONI
 10
3967.388014
 11
3889.317752
 20
889.106648
 21
1124.030238
  0
LINE
  8
COSTRUZIONI
 10
3889.317752
 11
3889.317752
 20
1124.030238
 21
1923.5
  0
LINE
  8
COSTRUZIONI
 10
3889.317752
 11
4336.317752
 20
1923.5
 21
1923.5
  0
LINE
  8
COSTRUZIONI
 10
4386.317752
 11
4386.317752
 20
1973.5
 21
84.5
  0
LINE
  8
COSTRUZIONI
 10
4386.317752
 11
3839.317752
 20
84.5
 21
84.5
  0
LINE
  8
COSTRUZIONI
 10
3839.317752
 11
3839.317752
 20
84.5
 21
873.422766
  0
LINE
  8
COSTRUZIONI
 10
3839.317752
 11
3907.033146
 20
873.422766
 21
912.175273
  0
LINE
  8
COSTRUZIONI
 10
3907.033146
 11
3839.317752
 20
912.175273
 21
1115.939716
  0
LINE
  8
COSTRUZIONI
 10
3839.317752
 11
3839.317752
 20
1115.939716
 21
1973.5
  0
LINE
  8
COSTRUZIONI
 10
3839.317752
 11
4386.317752
 20
1973.5
 21
1973.5
  0
CIRCLE
  8
COSTRUZIONI
 10
3058.900128
 20
1029.0
 40
15.0
  0
CIRCLE
  8
COSTRUZIONI
 10
4112.817752
 20
1029.0
 40
15.0
  0
CIRCLE
  8
COSTRUZIONI
 10
3058.900128
 20
453.75
 40
15.0
  0
LINE
  8
COSTRUZIONI
 10
3066.400128
 11
3051.400128
 20
453.75
 21
453.75
  0
LINE
  8
COSTRUZIONI
 10
3066.400128
 11
3051.400128
 20
1029.0
 21
1029.0
  0
CIRCLE
  8
COSTRUZIONI
 10
3058.900128
 20
1604.25
 40
15.0
  0
CIRCLE
  8
COSTRUZIONI
 10
4112.817752
 20
453.75
 40
15.0
  0
CIRCLE
  8
COSTRUZIONI
 10
4112.817752
 20
1604.25
 40
15.0
  0
ENDSEC
  0
EOF
