  0
SECTION
  2
ENTITIES
  0
CIRCLE
  8
COSTRUZIONI
 10
3054.900128
 20
484.25
 40
15.0
  0
LINE
  8
COSTRUZIONI
 10
3062.400128
 11
3047.400128
 20
484.25
 21
484.25
  0
CIRCLE
  8
COSTRUZIONI
 10
3054.900128
 20
1059.5
 40
15.0
  0
LINE
  8
COSTRUZIONI
 10
3062.400128
 11
3047.400128
 20
1059.5
 21
1059.5
  0
CIRCLE
  8
COSTRUZIONI
 10
3054.900128
 20
1634.75
 40
15.0
  0
LINE
  8
COSTRUZIONI
 10
2712.900128
 11
2712.900128
 20
4.5
 21
2114.5
  0
LINE
  8
COSTRUZIONI
 10
2712.900128
 11
3396.900128
 20
2114.5
 21
2114.5
  0
LINE
  8
COSTRUZIONI
 10
3396.900128
 11
3396.900128
 20
2114.5
 21
4.5
  0
LINE
  8
COSTRUZIONI
 10
3396.900128
 11
2712.900128
 20
4.5
 21
4.5
  0
LINE
  8
COSTRUZIONI
 10
2827.400128
 11
3282.400128
 20
134.5
 21
134.5
  0
LINE
  8
COSTRUZIONI
 10
3282.400128
 11
3282.400128
 20
134.5
 21
844.428204
  0
LINE
  8
COSTRUZIONI
 10
3282.400128
 11
3204.329866
 20
844.428204
 21
889.106648
  0
LINE
  8
COSTRUZIONI
 10
3204.329866
 11
3282.400128
 20
889.106648
 21
1124.030238
  0
LINE
  8
COSTRUZIONI
 10
3282.400128
 11
3282.400128
 20
1124.030238
 21
1984.5
  0
LINE
  8
COSTRUZIONI
 10
3282.400128
 11
2827.400128
 20
1984.5
 21
1984.5
  0
LINE
  8
COSTRUZIONI
 10
2827.400128
 11
2827.400128
 20
1984.5
 21
134.5
  0
LINE
  8
COSTRUZIONI
 10
2777.400128
 11
2777.400128
 20
84.5
 21
2034.5
  0
LINE
  8
COSTRUZIONI
 10
2777.400128
 11
3332.400128
 20
2034.5
 21
2034.5
  0
LINE
  8
COSTRUZIONI
 10
3332.400128
 11
3332.400128
 20
2034.5
 21
1115.939716
  0
LINE
  8
COSTRUZIONI
 10
3332.400128
 11
3264.684734
 20
1115.939716
 21
912.175273
  0
LINE
  8
COSTRUZIONI
 10
3264.684734
 11
3332.400128
 20
912.175273
 21
873.422766
  0
LINE
  8
COSTRUZIONI
 10
3332.400128
 11
3332.400128
 20
873.422766
 21
84.5
  0
LINE
  8
COSTRUZIONI
 10
3332.400128
 11
2777.400128
 20
84.5
 21
84.5
  0
LINE
  8
COSTRUZIONI
 10
2827.400128
 11
3282.400128
 20
134.5
 21
1984.5
  0
LINE
  8
COSTRUZIONI
 10
2827.400128
 11
3282.400128
 20
1984.5
 21
134.5
  0
CIRCLE
  8
COSTRUZIONI
 10
4110.4255
 20
479.75
 40
15.0
  0
LINE
  8
COSTRUZIONI
 10
4102.9255
 11
4117.9255
 20
479.75
 21
479.75
  0
CIRCLE
  8
COSTRUZIONI
 10
4110.4255
 20
1055.0
 40
15.0
  0
LINE
  8
COSTRUZIONI
 10
4102.9255
 11
4117.9255
 20
1055.0
 21
1055.0
  0
CIRCLE
  8
COSTRUZIONI
 10
4110.4255
 20
1630.25
 40
15.0
  0
LINE
  8
COSTRUZIONI
 10
4452.4255
 11
4452.4255
 20
0.0
 21
2110.0
  0
LINE
  8
COSTRUZIONI
 10
4452.4255
 11
3768.4255
 20
2110.0
 21
2110.0
  0
LINE
  8
COSTRUZIONI
 10
3768.4255
 11
3768.4255
 20
2110.0
 21
0.0
  0
LINE
  8
COSTRUZIONI
 10
3768.4255
 11
4452.4255
 20
0.0
 21
0.0
  0
LINE
  8
COSTRUZIONI
 10
4337.9255
 11
3882.9255
 20
130.0
 21
130.0
  0
LINE
  8
COSTRUZIONI
 10
3882.9255
 11
3882.9255
 20
130.0
 21
839.928204
  0
LINE
  8
COSTRUZIONI
 10
3882.9255
 11
3960.995762
 20
839.928204
 21
884.606648
  0
LINE
  8
COSTRUZIONI
 10
3960.995762
 11
3882.9255
 20
884.606648
 21
1119.530238
  0
LINE
  8
COSTRUZIONI
 10
3882.9255
 11
3882.9255
 20
1119.530238
 21
1980.0
  0
LINE
  8
COSTRUZIONI
 10
3882.9255
 11
4337.9255
 20
1980.0
 21
1980.0
  0
LINE
  8
COSTRUZIONI
 10
4337.9255
 11
4337.9255
 20
1980.0
 21
130.0
  0
LINE
  8
COSTRUZIONI
 10
4387.9255
 11
4387.9255
 20
80.0
 21
2030.0
  0
LINE
  8
COSTRUZIONI
 10
4387.9255
 11
3832.9255
 20
2030.0
 21
2030.0
  0
LINE
  8
COSTRUZIONI
 10
3832.9255
 11
3832.9255
 20
2030.0
 21
1111.439716
  0
LINE
  8
COSTRUZIONI
 10
3832.9255
 11
3900.640894
 20
1111.439716
 21
907.675273
  0
LINE
  8
COSTRUZIONI
 10
3900.640894
 11
3832.9255
 20
907.675273
 21
868.922766
  0
LINE
  8
COSTRUZIONI
 10
3832.9255
 11
3832.9255
 20
868.922766
 21
80.0
  0
LINE
  8
COSTRUZIONI
 10
3832.9255
 11
4387.9255
 20
80.0
 21
80.0
  0
LINE
  8
COSTRUZIONI
 10
4337.9255
 11
3882.9255
 20
130.0
 21
1980.0
  0
LINE
  8
COSTRUZIONI
 10
4337.9255
 11
3882.9255
 20
1980.0
 21
130.0
  0
ENDSEC
  0
EOF
