  0
SECTION
  2
ENTITIES
  0
LINE
  8
COSTRUZIONI
 10
2612.900128
 11
3396.900128
 20
2084.5
 21
2084.5
  0
LINE
  8
COSTRUZIONI
 10
3396.900128
 11
3396.900128
 20
2084.5
 21
4.5
  0
LINE
  8
COSTRUZIONI
 10
3396.900128
 11
2612.900128
 20
4.5
 21
4.5
  0
LINE
  8
COSTRUZIONI
 10
2612.900128
 11
2612.900128
 20
4.5
 21
2084.5
  0
LINE
  8
COSTRUZIONI
 10
2727.400128
 11
3282.400128
 20
1954.5
 21
1954.5
  0
LINE
  8
COSTRUZIONI
 10
3282.400128
 11
3282.400128
 20
1954.5
 21
1124.030238
  0
LINE
  8
COSTRUZIONI
 10
3282.400128
 11
3204.329866
 20
1124.030238
 21
889.106648
  0
LINE
  8
COSTRUZIONI
 10
3204.329866
 11
3282.400128
 20
889.106648
 21
844.428204
  0
LINE
  8
COSTRUZIONI
 10
3282.400128
 11
3282.400128
 20
844.428204
 21
134.5
  0
LINE
  8
COSTRUZIONI
 10
3282.400128
 11
2727.400128
 20
134.5
 21
134.5
  0
LINE
  8
COSTRUZIONI
 10
2727.400128
 11
2727.400128
 20
134.5
 21
1954.5
  0
LINE
  8
COSTRUZIONI
 10
3332.400128
 11
3332.400128
 20
1115.939716
 21
2004.5
  0
LINE
  8
COSTRUZIONI
 10
3332.400128
 11
2677.400128
 20
2004.5
 21
2004.5
  0
LINE
  8
COSTRUZIONI
 10
2677.400128
 11
2677.400128
 20
2004.5
 21
84.5
  0
LINE
  8
COSTRUZIONI
 10
2677.400128
 11
3332.400128
 20
84.5
 21
84.5
  0
LINE
  8
COSTRUZIONI
 10
3332.400128
 11
3332.400128
 20
84.5
 21
873.422766
  0
LINE
  8
COSTRUZIONI
 10
3332.400128
 11
3264.684734
 20
873.422766
 21
912.175273
  0
LINE
  8
COSTRUZIONI
 10
3264.684734
 11
3332.400128
 20
912.175273
 21
1115.939716
  0
CIRCLE
  8
COSTRUZIONI
 10
3004.900128
 20
469.25
 40
15.0
  0
LINE
  8
COSTRUZIONI
 10
3012.400128
 11
2997.400128
 20
469.25
 21
469.25
  0
CIRCLE
  8
COSTRUZIONI
 10
3004.900128
 20
1044.5
 40
15.0
  0
LINE
  8
COSTRUZIONI
 10
3012.400128
 11
2997.400128
 20
1044.5
 21
1044.5
  0
CIRCLE
  8
COSTRUZIONI
 10
3004.900128
 20
1619.75
 40
15.0
  0
LINE
  8
COSTRUZIONI
 10
2727.400128
 11
3282.400128
 20
1954.5
 21
134.5
  0
LINE
  8
COSTRUZIONI
 10
2727.400128
 11
3282.400128
 20
134.5
 21
1954.5
  0
LINE
  8
COSTRUZIONI
 10
4582.535357
 11
3798.535357
 20
2084.5
 21
2084.5
  0
LINE
  8
COSTRUZIONI
 10
3798.535357
 11
3798.535357
 20
2084.5
 21
4.5
  0
LINE
  8
COSTRUZIONI
 10
3798.535357
 11
4582.535357
 20
4.5
 21
4.5
  0
LINE
  8
COSTRUZIONI
 10
4582.535357
 11
4582.535357
 20
4.5
 21
2084.5
  0
LINE
  8
COSTRUZIONI
 10
4468.035357
 11
3913.035357
 20
1954.5
 21
1954.5
  0
LINE
  8
COSTRUZIONI
 10
3913.035357
 11
3913.035357
 20
1954.5
 21
1124.030238
  0
LINE
  8
COSTRUZIONI
 10
3913.035357
 11
3991.105619
 20
1124.030238
 21
889.106648
  0
LINE
  8
COSTRUZIONI
 10
3991.105619
 11
3913.035357
 20
889.106648
 21
844.428204
  0
LINE
  8
COSTRUZIONI
 10
3913.035357
 11
3913.035357
 20
844.428204
 21
134.5
  0
LINE
  8
COSTRUZIONI
 10
3913.035357
 11
4468.035357
 20
134.5
 21
134.5
  0
LINE
  8
COSTRUZIONI
 10
4468.035357
 11
4468.035357
 20
134.5
 21
1954.5
  0
LINE
  8
COSTRUZIONI
 10
3863.035357
 11
3863.035357
 20
1115.939716
 21
2004.5
  0
LINE
  8
COSTRUZIONI
 10
3863.035357
 11
4518.035357
 20
2004.5
 21
2004.5
  0
LINE
  8
COSTRUZIONI
 10
4518.035357
 11
4518.035357
 20
2004.5
 21
84.5
  0
LINE
  8
COSTRUZIONI
 10
4518.035357
 11
3863.035357
 20
84.5
 21
84.5
  0
LINE
  8
COSTRUZIONI
 10
3863.035357
 11
3863.035357
 20
84.5
 21
873.422766
  0
LINE
  8
COSTRUZIONI
 10
3863.035357
 11
3930.750751
 20
873.422766
 21
912.175273
  0
LINE
  8
COSTRUZIONI
 10
3930.750751
 11
3863.035357
 20
912.175273
 21
1115.939716
  0
CIRCLE
  8
COSTRUZIONI
 10
4190.535357
 20
469.25
 40
15.0
  0
LINE
  8
COSTRUZIONI
 10
4183.035357
 11
4198.035357
 20
469.25
 21
469.25
  0
CIRCLE
  8
COSTRUZIONI
 10
4190.535357
 20
1044.5
 40
15.0
  0
LINE
  8
COSTRUZIONI
 10
4183.035357
 11
4198.035357
 20
1044.5
 21
1044.5
  0
CIRCLE
  8
COSTRUZIONI
 10
4190.535357
 20
1619.75
 40
15.0
  0
LINE
  8
COSTRUZIONI
 10
4468.035357
 11
3913.035357
 20
1954.5
 21
134.5
  0
LINE
  8
COSTRUZIONI
 10
4468.035357
 11
3913.035357
 20
134.5
 21
1954.5
  0
ENDSEC
  0
EOF
