  0
SECTION
  2
ENTITIES
  0
LINE
  8
COSTRUZIONI
 10
776.0
 11
776.0
 20
0.0
 21
2159.0
  0
LINE
  8
COSTRUZIONI
 10
776.0
 11
30.0
 20
2159.0
 21
2159.0
  0
LINE
  8
COSTRUZIONI
 10
30.0
 11
30.0
 20
2159.0
 21
0.0
  0
LINE
  8
COSTRUZIONI
 10
776.0
 11
30.0
 20
0.0
 21
0.0
  0
LINE
  8
COSTRUZIONI
 10
1813.609295
 11
1813.609295
 20
0.0
 21
2159.0
  0
LINE
  8
COSTRUZIONI
 10
1813.609295
 11
1067.609295
 20
2159.0
 21
2159.0
  0
LINE
  8
COSTRUZIONI
 10
1067.609295
 11
1067.609295
 20
2159.0
 21
0.0
  0
LINE
  8
COSTRUZIONI
 10
1067.609295
 11
1813.609295
 20
0.0
 21
0.0
  0
LINE
  8
COSTRUZIONI
 10
1699.109295
 11
1182.109295
 20
130.0
 21
130.0
  0
LINE
  8
COSTRUZIONI
 10
1182.109295
 11
1182.109295
 20
130.0
 21
839.928204
  0
LINE
  8
COSTRUZIONI
 10
1182.109295
 11
1260.179557
 20
839.928204
 21
884.606648
  0
LINE
  8
COSTRUZIONI
 10
1260.179557
 11
1182.109295
 20
884.606648
 21
1119.530238
  0
LINE
  8
COSTRUZIONI
 10
1182.109295
 11
1182.109295
 20
1119.530238
 21
2029.0
  0
LINE
  8
COSTRUZIONI
 10
1182.109295
 11
1699.109295
 20
2029.0
 21
2029.0
  0
LINE
  8
COSTRUZIONI
 10
1699.109295
 11
1699.109295
 20
2029.0
 21
130.0
  0
LINE
  8
COSTRUZIONI
 10
1749.109295
 11
1749.109295
 20
80.0
 21
2079.0
  0
LINE
  8
COSTRUZIONI
 10
1749.109295
 11
1132.109295
 20
2079.0
 21
2079.0
  0
LINE
  8
COSTRUZIONI
 10
1132.109295
 11
1132.109295
 20
2079.0
 21
1111.439716
  0
LINE
  8
COSTRUZIONI
 10
1132.109295
 11
1199.824689
 20
1111.439716
 21
907.675273
  0
LINE
  8
COSTRUZIONI
 10
1199.824689
 11
1132.109295
 20
907.675273
 21
868.922766
  0
LINE
  8
COSTRUZIONI
 10
1132.109295
 11
1132.109295
 20
868.922766
 21
80.0
  0
LINE
  8
COSTRUZIONI
 10
1749.109295
 11
1132.109295
 20
80.0
 21
80.0
  0
LINE
  8
COSTRUZIONI
 10
144.5
 11
661.5
 20
130.0
 21
130.0
  0
LINE
  8
COSTRUZIONI
 10
661.5
 11
661.5
 20
130.0
 21
839.928204
  0
LINE
  8
COSTRUZIONI
 10
661.5
 11
583.429738
 20
839.928204
 21
884.606648
  0
LINE
  8
COSTRUZIONI
 10
583.429738
 11
661.5
 20
884.606648
 21
1119.530238
  0
LINE
  8
COSTRUZIONI
 10
661.5
 11
661.5
 20
1119.530238
 21
2029.0
  0
LINE
  8
COSTRUZIONI
 10
661.5
 11
144.5
 20
2029.0
 21
2029.0
  0
LINE
  8
COSTRUZIONI
 10
144.5
 11
144.5
 20
2029.0
 21
130.0
  0
LINE
  8
COSTRUZIONI
 10
94.5
 11
711.5
 20
80.0
 21
80.0
  0
LINE
  8
COSTRUZIONI
 10
711.5
 11
711.5
 20
80.0
 21
868.922766
  0
LINE
  8
COSTRUZIONI
 10
711.5
 11
643.784606
 20
868.922766
 21
907.675273
  0
LINE
  8
COSTRUZIONI
 10
643.784606
 11
711.5
 20
907.675273
 21
1111.439716
  0
LINE
  8
COSTRUZIONI
 10
711.5
 11
711.5
 20
1111.439716
 21
2079.0
  0
LINE
  8
COSTRUZIONI
 10
711.5
 11
94.5
 20
2079.0
 21
2079.0
  0
LINE
  8
COSTRUZIONI
 10
94.5
 11
94.5
 20
2079.0
 21
80.0
  0
LINE
  8
COSTRUZIONI
 10
144.5
 11
661.5
 20
2029.0
 21
130.0
  0
LINE
  8
COSTRUZIONI
 10
144.5
 11
661.5
 20
130.0
 21
2029.0
  0
LINE
  8
COSTRUZIONI
 10
1182.109295
 11
1699.109295
 20
2029.0
 21
130.0
  0
LINE
  8
COSTRUZIONI
 10
1182.109295
 11
1699.109295
 20
130.0
 21
2029.0
  0
CIRCLE
  8
COSTRUZIONI
 10
403.0
 20
504.25
 40
15.0
  0
LINE
  8
COSTRUZIONI
 10
410.5
 11
395.5
 20
504.25
 21
504.25
  0
CIRCLE
  8
COSTRUZIONI
 10
403.0
 20
1079.5
 40
15.0
  0
LINE
  8
COSTRUZIONI
 10
410.5
 11
395.5
 20
1079.5
 21
1079.5
  0
CIRCLE
  8
COSTRUZIONI
 10
403.0
 20
1654.75
 40
15.0
  0
CIRCLE
  8
COSTRUZIONI
 10
1440.609295
 20
504.25
 40
15.0
  0
CIRCLE
  8
COSTRUZIONI
 10
1440.609295
 20
1079.5
 40
15.0
  0
CIRCLE
  8
COSTRUZIONI
 10
1440.609295
 20
1654.75
 40
15.0
  0
ENDSEC
  0
EOF
