  0
SECTION
  2
ENTITIES
  0
LINE
  8
COSTRUZIONI
 10
-74.58
 11
1925.42
 20
-747.165
 21
-747.165
  0
LINE
  8
COSTRUZIONI
 10
1925.42
 11
1925.42
 20
-747.165
 21
-547.165
  0
LINE
  8
COSTRUZIONI
 10
1925.42
 11
-74.58
 20
-547.165
 21
-547.165
  0
LINE
  8
COSTRUZIONI
 10
-74.58
 11
-74.58
 20
-547.165
 21
-747.165
  0
LINE
  8
COSTRUZIONI
 10
925.42
 11
925.42
 20
-747.165
 21
-547.165
  0
LINE
  8
COSTRUZIONI
 10
925.42
 11
1925.42
 20
-647.165
 21
-647.165
  0
LINE
  8
COSTRUZIONI
 10
1425.42
 11
1425.42
 20
-747.165
 21
-547.165
  0
LINE
  8
APS_GEOMETRY
 10
-11.894
 11
5.34
 20
-601.15
 21
-601.15
  0
ARC
  8
APS_GEOMETRY
 10
4.469
 20
-576.455
 40
24.711
 50
272.021
 51
278.44
  0
ARC
  8
APS_GEOMETRY
 10
5.441
 20
-583.011
 40
18.083
 50
278.44
 51
285.945
  0
ARC
  8
APS_GEOMETRY
 10
12.759
 20
-609.208
 40
9.118
 50
98.584
 51
104.931
  0
ARC
  8
APS_GEOMETRY
 10
12.143
 20
-605.127
 40
4.991
 50
90.0
 51
98.584
  0
ARC
  8
APS_GEOMETRY
 10
12.143
 20
-603.888
 40
3.752
 50
52.871
 51
90.0
  0
ARC
  8
APS_GEOMETRY
 10
7.054
 20
-610.61
 40
12.182
 50
32.518
 51
52.871
  0
ARC
  8
APS_GEOMETRY
 10
3.023
 20
-613.179
 40
16.963
 50
17.209
 51
32.518
  0
ARC
  8
APS_GEOMETRY
 10
6.383
 20
-612.139
 40
13.445
 50
360.0
 51
17.209
  0
ARC
  8
APS_GEOMETRY
 10
13.111
 20
-612.139
 40
6.717
 50
337.348
 51
360.0
  0
ARC
  8
APS_GEOMETRY
 10
15.81
 20
-613.266
 40
3.792
 50
307.042
 51
337.348
  0
ARC
  8
APS_GEOMETRY
 10
15.341
 20
-612.621
 40
4.589
 50
287.186
 51
306.87
  0
ARC
  8
APS_GEOMETRY
 10
14.922
 20
-611.267
 40
6.006
 50
270.0
 51
287.186
  0
ARC
  8
APS_GEOMETRY
 10
14.922
 20
-611.88
 40
5.393
 50
252.221
 51
270.0
  0
ARC
  8
APS_GEOMETRY
 10
14.671
 20
-612.663
 40
4.571
 50
232.896
 51
252.221
  0
ARC
  8
APS_GEOMETRY
 10
15.642
 20
-611.38
 40
6.18
 50
218.3
 51
232.896
  0
ARC
  8
APS_GEOMETRY
 10
23.222
 20
-605.393
 40
15.839
 50
209.197
 51
218.3
  0
ARC
  8
APS_GEOMETRY
 10
-15.332
 20
-626.281
 40
28.012
 50
28.025
 51
32.699
  0
ARC
  8
APS_GEOMETRY
 10
4.824
 20
-613.341
 40
4.06
 50
32.699
 51
45.0
  0
ARC
  8
APS_GEOMETRY
 10
6.199
 20
-611.967
 40
2.116
 50
45.0
 51
67.557
  0
ARC
  8
APS_GEOMETRY
 10
6.191
 20
-611.987
 40
2.137
 50
67.557
 51
90.0
  0
ARC
  8
APS_GEOMETRY
 10
6.191
 20
-611.818
 40
1.969
 50
90.0
 51
120.801
  0
ARC
  8
APS_GEOMETRY
 10
6.124
 20
-611.707
 40
1.839
 50
120.801
 51
152.7
  0
ARC
  8
APS_GEOMETRY
 10
7.583
 20
-612.46
 40
3.481
 50
152.7
 51
171.085
  0
ARC
  8
APS_GEOMETRY
 10
18.672
 20
-614.199
 40
14.705
 50
171.085
 51
180.0
  0
LINE
  8
APS_GEOMETRY
 10
3.967
 11
3.967
 20
-614.199
 21
-632.513
  0
ARC
  8
APS_GEOMETRY
 10
23.394
 20
-632.513
 40
19.427
 50
180.0
 51
188.194
  0
ARC
  8
APS_GEOMETRY
 10
8.886
 20
-634.602
 40
4.77
 50
188.194
 51
204.775
  0
ARC
  8
APS_GEOMETRY
 10
7.477
 20
-635.253
 40
3.218
 50
204.775
 51
228.576
  0
ARC
  8
APS_GEOMETRY
 10
8.799
 20
-633.754
 40
5.216
 50
228.576
 51
247.218
  0
ARC
  8
APS_GEOMETRY
 10
1.13
 20
-651.826
 40
14.416
 50
59.381
 51
66.93
  0
ARC
  8
APS_GEOMETRY
 10
6.791
 20
-642.261
 40
3.301
 50
43.568
 51
59.381
  0
ARC
  8
APS_GEOMETRY
 10
7.697
 20
-641.399
 40
2.051
 50
19.041
 51
43.568
  0
ARC
  8
APS_GEOMETRY
 10
6.439
 20
-641.834
 40
3.382
 50
360.0
 51
19.041
  0
ARC
  8
APS_GEOMETRY
 10
7.073
 20
-641.834
 40
2.747
 50
317.66
 51
360.0
  0
ARC
  8
APS_GEOMETRY
 10
4.551
 20
-639.535
 40
6.16
 50
289.747
 51
317.66
  0
ARC
  8
APS_GEOMETRY
 10
2.438
 20
-633.65
 40
12.412
 50
281.964
 51
289.747
  0
ARC
  8
APS_GEOMETRY
 10
-0.488
 20
-619.839
 40
26.531
 50
276.643
 51
281.964
  0
ARC
  8
APS_GEOMETRY
 10
-1.72
 20
-609.263
 40
37.178
 50
272.836
 51
276.643
  0
ARC
  8
APS_GEOMETRY
 10
-3.195
 20
-579.487
 40
66.99
 50
270.0
 51
272.836
  0
ARC
  8
APS_GEOMETRY
 10
-3.195
 20
-561.037
 40
85.44
 50
267.283
 51
270.0
  0
ARC
  8
APS_GEOMETRY
 10
-4.989
 20
-598.84
 40
47.595
 50
263.643
 51
267.283
  0
ARC
  8
APS_GEOMETRY
 10
-6.491
 20
-612.324
 40
34.027
 50
258.563
 51
263.643
  0
ARC
  8
APS_GEOMETRY
 10
-10.08
 20
-630.064
 40
15.929
 50
251.136
 51
258.563
  0
ARC
  8
APS_GEOMETRY
 10
-13.284
 20
-639.356
 40
6.099
 50
222.558
 51
251.395
  0
ARC
  8
APS_GEOMETRY
 10
-15.662
 20
-641.539
 40
2.871
 50
180.0
 51
222.558
  0
ARC
  8
APS_GEOMETRY
 10
-16.141
 20
-641.539
 40
2.392
 50
150.642
 51
180.0
  0
ARC
  8
APS_GEOMETRY
 10
-15.95
 20
-641.647
 40
2.612
 50
122.574
 51
150.642
  0
ARC
  8
APS_GEOMETRY
 10
-16.457
 20
-641.065
 40
1.851
 50
108.677
 51
119.055
  0
ARC
  8
APS_GEOMETRY
 10
6.659
 20
-709.448
 40
74.036
 50
107.038
 51
108.677
  0
ARC
  8
APS_GEOMETRY
 10
-15.896
 20
-635.685
 40
3.099
 50
286.144
 51
308.66
  0
ARC
  8
APS_GEOMETRY
 10
-15.388
 20
-636.319
 40
2.287
 50
308.66
 51
334.933
  0
ARC
  8
APS_GEOMETRY
 10
-17.453
 20
-635.353
 40
4.566
 50
334.933
 51
348.829
  0
ARC
  8
APS_GEOMETRY
 10
-43.279
 20
-630.253
 40
30.891
 50
348.829
 51
354.161
  0
ARC
  8
APS_GEOMETRY
 10
-60.735
 20
-628.454
 40
48.439
 50
354.144
 51
355.66
  0
ARC
  8
APS_GEOMETRY
 10
-138.111
 20
-622.582
 40
126.038
 50
355.66
 51
356.6
  0
ARC
  8
APS_GEOMETRY
 10
-197.26
 20
-619.068
 40
185.291
 50
356.6
 51
357.24
  0
ARC
  8
APS_GEOMETRY
 10
-365.085
 20
-610.977
 40
353.311
 50
357.24
 51
357.703
  0
ARC
  8
APS_GEOMETRY
 10
-348.565
 20
-611.64
 40
336.777
 50
357.703
 51
358.674
  0
ARC
  8
APS_GEOMETRY
 10
-192.733
 20
-615.246
 40
180.903
 50
358.674
 51
0.0
  0
ARC
  8
APS_GEOMETRY
 10
-38.639
 20
-615.246
 40
26.81
 50
0.0
 51
6.242
  0
ARC
  8
APS_GEOMETRY
 10
-17.32
 20
-612.914
 40
5.364
 50
6.242
 51
20.225
  0
ARC
  8
APS_GEOMETRY
 10
-14.365
 20
-611.825
 40
2.215
 50
20.225
 51
50.44
  0
ARC
  8
APS_GEOMETRY
 10
-13.791
 20
-611.131
 40
1.314
 50
50.44
 51
90.0
  0
ARC
  8
APS_GEOMETRY
 10
-13.791
 20
-611.579
 40
1.762
 50
90.0
 51
126.747
  0
ARC
  8
APS_GEOMETRY
 10
-11.301
 20
-614.914
 40
5.924
 50
126.747
 51
146.547
  0
ARC
  8
APS_GEOMETRY
 10
-55.289
 20
-586.001
 40
46.715
 50
324.255
 51
326.701
  0
ARC
  8
APS_GEOMETRY
 10
-36.666
 20
-599.405
 40
23.77
 50
320.826
 51
324.255
  0
ARC
  8
APS_GEOMETRY
 10
-30.579
 20
-604.365
 40
15.918
 50
315.722
 51
320.826
  0
ARC
  8
APS_GEOMETRY
 10
-23.585
 20
-611.185
 40
6.149
 50
307.504
 51
315.722
  0
ARC
  8
APS_GEOMETRY
 10
-24.231
 20
-610.323
 40
7.226
 50
291.306
 51
307.405
  0
ARC
  8
APS_GEOMETRY
 10
-23.112
 20
-613.192
 40
4.146
 50
270.0
 51
291.306
  0
ARC
  8
APS_GEOMETRY
 10
-23.112
 20
-613.46
 40
3.879
 50
245.532
 51
270.0
  0
ARC
  8
APS_GEOMETRY
 10
-23.141
 20
-613.524
 40
3.808
 50
220.833
 51
245.532
  0
ARC
  8
APS_GEOMETRY
 10
-22.748
 20
-613.184
 40
4.328
 50
198.684
 51
220.833
  0
ARC
  8
APS_GEOMETRY
 10
-21.106
 20
-612.629
 40
6.06
 50
180.0
 51
198.684
  0
ARC
  8
APS_GEOMETRY
 10
-17.259
 20
-612.629
 40
9.908
 50
168.408
 51
180.0
  0
ARC
  8
APS_GEOMETRY
 10
-10.907
 20
-613.932
 40
16.393
 50
159.402
 51
168.408
  0
ARC
  8
APS_GEOMETRY
 10
-8.943
 20
-614.67
 40
18.49
 50
151.39
 51
159.402
  0
ARC
  8
APS_GEOMETRY
 10
-9.346
 20
-614.451
 40
18.032
 50
143.276
 51
151.39
  0
ARC
  8
APS_GEOMETRY
 10
-14.395
 20
-610.675
 40
11.726
 50
124.216
 51
143.31
  0
ARC
  8
APS_GEOMETRY
 10
-18.893
 20
-604.061
 40
3.728
 50
90.0
 51
124.216
  0
ARC
  8
APS_GEOMETRY
 10
-18.893
 20
-605.717
 40
5.384
 50
82.725
 51
90.0
  0
ARC
  8
APS_GEOMETRY
 10
-19.314
 20
-609.013
 40
8.707
 50
77.005
 51
82.725
  0
ARC
  8
APS_GEOMETRY
 10
-6.465
 20
-547.066
 40
54.561
 50
258.486
 51
260.378
  0
ARC
  8
APS_GEOMETRY
 10
-11.969
 20
-579.531
 40
21.633
 50
260.378
 51
263.382
  0
ARC
  8
APS_GEOMETRY
 10
-12.44
 20
-583.589
 40
17.548
 50
263.382
 51
267.084
  0
ARC
  8
APS_GEOMETRY
 10
-11.894
 20
-572.877
 40
28.273
 50
267.084
 51
270.0
  0
ARC
  8
APS_GEOMETRY
 10
47.833
 20
-626.016
 40
25.782
 50
71.91
 51
90.0
  0
ARC
  8
APS_GEOMETRY
 10
48.831
 20
-622.96
 40
22.566
 50
52.561
 51
71.91
  0
ARC
  8
APS_GEOMETRY
 10
48.57
 20
-623.036
 40
22.786
 50
38.846
 51
52.156
  0
ARC
  8
APS_GEOMETRY
 10
44.997
 20
-625.912
 40
27.372
 50
26.707
 51
38.846
  0
ARC
  8
APS_GEOMETRY
 10
45.705
 20
-625.335
 40
26.482
 50
13.868
 51
26.278
  0
ARC
  8
APS_GEOMETRY
 10
50.804
 20
-624.076
 40
21.229
 50
360.0
 51
13.868
  0
ARC
  8
APS_GEOMETRY
 10
51.135
 20
-624.076
 40
20.899
 50
339.712
 51
360.0
  0
ARC
  8
APS_GEOMETRY
 10
49.958
 20
-623.641
 40
22.153
 50
320.013
 51
339.712
  0
ARC
  8
APS_GEOMETRY
 10
49.763
 20
-623.533
 40
22.372
 50
303.344
 51
320.123
  0
ARC
  8
APS_GEOMETRY
 10
47.467
 20
-620.044
 40
26.548
 50
287.949
 51
303.344
  0
ARC
  8
APS_GEOMETRY
 10
46.713
 20
-617.429
 40
29.269
 50
279.039
 51
287.776
  0
ARC
  8
APS_GEOMETRY
 10
47.015
 20
-619.328
 40
27.346
 50
270.0
 51
279.039
  0
ARC
  8
APS_GEOMETRY
 10
47.015
 20
-620.663
 40
26.011
 50
257.728
 51
270.0
  0
ARC
  8
APS_GEOMETRY
 10
47.056
 20
-620.475
 40
26.203
 50
245.501
 51
257.728
  0
ARC
  8
APS_GEOMETRY
 10
45.583
 20
-623.697
 40
22.66
 50
228.665
 51
245.511
  0
ARC
  8
APS_GEOMETRY
 10
45.093
 20
-624.254
 40
21.918
 50
211.535
 51
228.665
  0
ARC
  8
APS_GEOMETRY
 10
45.735
 20
-623.783
 40
22.712
 50
195.642
 51
211.701
  0
ARC
  8
APS_GEOMETRY
 10
46.909
 20
-623.454
 40
23.931
 50
180.0
 51
195.642
  0
ARC
  8
APS_GEOMETRY
 10
47.161
 20
-623.454
 40
24.183
 50
162.181
 51
180.0
  0
ARC
  8
APS_GEOMETRY
 10
44.954
 20
-622.745
 40
21.865
 50
143.434
 51
162.181
  0
ARC
  8
APS_GEOMETRY
 10
44.657
 20
-622.507
 40
21.485
 50
126.384
 51
143.471
  0
ARC
  8
APS_GEOMETRY
 10
46.691
 20
-625.268
 40
24.914
 50
110.525
 51
126.384
  0
ARC
  8
APS_GEOMETRY
 10
46.591
 20
-624.518
 40
24.177
 50
99.77
 51
110.925
  0
ARC
  8
APS_GEOMETRY
 10
47.833
 20
-631.73
 40
31.496
 50
90.0
 51
99.77
  0
ARC
  8
APS_GEOMETRY
 10
44.726
 20
-614.428
 40
4.807
 50
90.0
 51
119.604
  0
ARC
  8
APS_GEOMETRY
 10
45.147
 20
-615.169
 40
5.659
 50
119.604
 51
146.842
  0
ARC
  8
APS_GEOMETRY
 10
45.993
 20
-615.863
 40
6.748
 50
145.84
 51
164.055
  0
ARC
  8
APS_GEOMETRY
 10
47.954
 20
-616.423
 40
8.788
 50
164.055
 51
180.0
  0
ARC
  8
APS_GEOMETRY
 10
60.219
 20
-616.423
 40
21.053
 50
180.0
 51
189.977
  0
ARC
  8
APS_GEOMETRY
 10
78.87
 20
-613.142
 40
39.991
 50
189.977
 51
197.211
  0
ARC
  8
APS_GEOMETRY
 10
82.95
 20
-611.878
 40
44.261
 50
197.211
 51
203.76
  0
ARC
  8
APS_GEOMETRY
 10
72.787
 20
-616.352
 40
33.157
 50
203.76
 51
211.329
  0
ARC
  8
APS_GEOMETRY
 10
51.919
 20
-628.876
 40
8.821
 50
212.32
 51
224.441
  0
ARC
  8
APS_GEOMETRY
 10
51.064
 20
-629.715
 40
7.623
 50
224.441
 51
237.484
  0
ARC
  8
APS_GEOMETRY
 10
50.511
 20
-630.582
 40
6.595
 50
237.484
 51
252.416
  0
ARC
  8
APS_GEOMETRY
 10
49.958
 20
-632.325
 40
4.766
 50
252.416
 51
270.0
  0
ARC
  8
APS_GEOMETRY
 10
49.958
 20
-631.76
 40
5.331
 50
270.0
 51
294.953
  0
ARC
  8
APS_GEOMETRY
 10
50.108
 20
-632.081
 40
4.977
 50
294.953
 51
320.793
  0
ARC
  8
APS_GEOMETRY
 10
49.307
 20
-631.428
 40
6.011
 50
320.793
 51
342.777
  0
ARC
  8
APS_GEOMETRY
 10
45.739
 20
-630.322
 40
9.746
 50
342.777
 51
0.0
  0
ARC
  8
APS_GEOMETRY
 10
28.978
 20
-630.322
 40
26.507
 50
0.0
 51
8.499
  0
ARC
  8
APS_GEOMETRY
 10
17.311
 20
-632.065
 40
38.304
 50
8.499
 51
15.566
  0
ARC
  8
APS_GEOMETRY
 10
18.714
 20
-631.675
 40
36.848
 50
15.566
 51
22.909
  0
ARC
  8
APS_GEOMETRY
 10
30.777
 20
-626.577
 40
23.751
 50
22.909
 51
32.057
  0
ARC
  8
APS_GEOMETRY
 10
40.253
 20
-620.607
 40
12.552
 50
31.921
 51
42.51
  0
ARC
  8
APS_GEOMETRY
 10
42.855
 20
-618.222
 40
9.022
 50
42.51
 51
55.008
  0
ARC
  8
APS_GEOMETRY
 10
43.734
 20
-616.966
 40
7.489
 50
55.008
 51
69.88
  0
ARC
  8
APS_GEOMETRY
 10
44.522
 20
-614.815
 40
5.198
 50
69.88
 51
87.754
  0
ARC
  8
APS_GEOMETRY
 10
96.253
 20
-616.218
 40
15.983
 50
83.923
 51
90.0
  0
ARC
  8
APS_GEOMETRY
 10
94.968
 20
-628.293
 40
28.127
 50
79.342
 51
83.923
  0
ARC
  8
APS_GEOMETRY
 10
93.417
 20
-636.533
 40
36.512
 50
75.808
 51
79.342
  0
ARC
  8
APS_GEOMETRY
 10
88.006
 20
-657.929
 40
58.58
 50
73.018
 51
75.808
  0
ARC
  8
APS_GEOMETRY
 10
107.058
 20
-595.436
 40
6.752
 50
253.288
 51
259.046
  0
ARC
  8
APS_GEOMETRY
 10
106.13
 20
-600.229
 40
1.87
 50
259.046
 51
270.0
  0
ARC
  8
APS_GEOMETRY
 10
106.13
 20
-600.989
 40
1.11
 50
270.0
 51
286.699
  0
ARC
  8
APS_GEOMETRY
 10
97.257
 20
-571.412
 40
31.989
 50
286.699
 51
289.799
  0
ARC
  8
APS_GEOMETRY
 10
109.146
 20
-604.322
 40
3.002
 50
100.008
 51
110.556
  0
ARC
  8
APS_GEOMETRY
 10
109.204
 20
-604.648
 40
3.334
 50
90.0
 51
100.008
  0
ARC
  8
APS_GEOMETRY
 10
109.204
 20
-604.493
 40
3.179
 50
53.356
 51
90.0
  0
ARC
  8
APS_GEOMETRY
 10
103.65
 20
-611.959
 40
12.484
 50
35.101
 51
53.356
  0
ARC
  8
APS_GEOMETRY
 10
100.879
 20
-613.907
 40
15.871
 50
20.245
 51
35.101
  0
ARC
  8
APS_GEOMETRY
 10
107.712
 20
-611.387
 40
8.588
 50
360.0
 51
20.245
  0
ARC
  8
APS_GEOMETRY
 10
111.151
 20
-611.387
 40
5.15
 50
340.481
 51
360.0
  0
ARC
  8
APS_GEOMETRY
 10
111.999
 20
-611.687
 40
4.25
 50
318.972
 51
340.481
  0
ARC
  8
APS_GEOMETRY
 10
112.377
 20
-612.017
 40
3.748
 50
295.017
 51
318.972
  0
ARC
  8
APS_GEOMETRY
 10
112.507
 20
-612.295
 40
3.442
 50
270.0
 51
295.017
  0
ARC
  8
APS_GEOMETRY
 10
112.507
 20
-610.451
 40
5.285
 50
256.171
 51
270.0
  0
ARC
  8
APS_GEOMETRY
 10
111.931
 20
-612.792
 40
2.874
 50
237.381
 51
256.171
  0
ARC
  8
APS_GEOMETRY
 10
112.951
 20
-611.197
 40
4.768
 50
231.559
 51
237.381
  0
ARC
  8
APS_GEOMETRY
 10
127.794
 20
-592.498
 40
28.642
 50
229.185
 51
231.559
  0
ARC
  8
APS_GEOMETRY
 10
143.701
 20
-574.079
 40
52.979
 50
227.9
 51
229.185
  0
ARC
  8
APS_GEOMETRY
 10
198.754
 20
-513.151
 40
135.095
 50
227.095
 51
227.9
  0
ARC
  8
APS_GEOMETRY
 10
95.392
 20
-624.312
 40
16.696
 50
46.975
 51
64.612
  0
ARC
  8
APS_GEOMETRY
 10
99.066
 20
-616.57
 40
8.127
 50
64.612
 51
90.0
  0
ARC
  8
APS_GEOMETRY
 10
99.066
 20
-614.299
 40
5.856
 50
90.0
 51
106.966
  0
ARC
  8
APS_GEOMETRY
 10
98.388
 20
-612.076
 40
3.531
 50
106.966
 51
128.868
  0
ARC
  8
APS_GEOMETRY
 10
97.995
 20
-611.588
 40
2.905
 50
128.868
 51
154.741
  0
ARC
  8
APS_GEOMETRY
 10
98.122
 20
-611.648
 40
3.046
 50
154.741
 51
180.0
  0
ARC
  8
APS_GEOMETRY
 10
97.937
 20
-611.648
 40
2.861
 50
180.0
 51
206.64
  0
ARC
  8
APS_GEOMETRY
 10
98.857
 20
-611.187
 40
3.891
 50
206.64
 51
229.43
  0
ARC
  8
APS_GEOMETRY
 10
100.333
 20
-609.463
 40
6.159
 50
229.43
 51
244.493
  0
ARC
  8
APS_GEOMETRY
 10
104.379
 20
-600.984
 40
15.554
 50
244.493
 51
253.956
  0
ARC
  8
APS_GEOMETRY
 10
32.308
 20
-845.913
 40
239.758
 50
72.737
 51
73.58
  0
ARC
  8
APS_GEOMETRY
 10
73.611
 20
-712.997
 40
100.573
 50
71.435
 51
72.737
  0
ARC
  8
APS_GEOMETRY
 10
87.292
 20
-672.263
 40
57.603
 50
69.164
 51
71.435
  0
ARC
  8
APS_GEOMETRY
 10
103.437
 20
-629.841
 40
12.212
 50
64.231
 51
69.164
  0
ARC
  8
APS_GEOMETRY
 10
101.58
 20
-633.58
 40
16.387
 50
34.939
 51
64.068
  0
ARC
  8
APS_GEOMETRY
 10
105.588
 20
-630.78
 40
11.498
 50
360.0
 51
34.939
  0
ARC
  8
APS_GEOMETRY
 10
103.124
 20
-630.78
 40
13.962
 50
333.435
 51
360.0
  0
ARC
  8
APS_GEOMETRY
 10
102.211
 20
-630.323
 40
14.982
 50
307.807
 51
333.435
  0
ARC
  8
APS_GEOMETRY
 10
99.836
 20
-627.251
 40
18.866
 50
296.732
 51
307.786
  0
ARC
  8
APS_GEOMETRY
 10
98.431
 20
-624.461
 40
21.99
 50
286.496
 51
296.732
  0
ARC
  8
APS_GEOMETRY
 10
97.505
 20
-621.335
 40
25.25
 50
277.544
 51
286.496
  0
ARC
  8
APS_GEOMETRY
 10
96.155
 20
-611.144
 40
35.53
 50
270.0
 51
277.544
  0
ARC
  8
APS_GEOMETRY
 10
96.155
 20
-609.603
 40
37.071
 50
263.555
 51
270.0
  0
ARC
  8
APS_GEOMETRY
 10
97.355
 20
-598.979
 40
47.762
 50
257.878
 51
263.555
  0
ARC
  8
APS_GEOMETRY
 10
96.718
 20
-601.945
 40
44.729
 50
254.839
 51
257.878
  0
ARC
  8
APS_GEOMETRY
 10
91.552
 20
-621.012
 40
24.974
 50
250.772
 51
254.839
  0
ARC
  8
APS_GEOMETRY
 10
89.228
 20
-627.675
 40
17.918
 50
245.121
 51
250.772
  0
ARC
  8
APS_GEOMETRY
 10
85.294
 20
-636.157
 40
8.568
 50
236.944
 51
245.121
  0
ARC
  8
APS_GEOMETRY
 10
82.975
 20
-639.807
 40
4.243
 50
211.802
 51
236.31
  0
ARC
  8
APS_GEOMETRY
 10
93.999
 20
-632.971
 40
17.215
 50
199.704
 51
211.802
  0
ARC
  8
APS_GEOMETRY
 10
99.264
 20
-631.086
 40
22.807
 50
190.413
 51
199.704
  0
ARC
  8
APS_GEOMETRY
 10
94.701
 20
-631.924
 40
18.168
 50
180.0
 51
190.413
  0
ARC
  8
APS_GEOMETRY
 10
82.402
 20
-631.924
 40
5.869
 50
164.876
 51
180.0
  0
ARC
  8
APS_GEOMETRY
 10
79.095
 20
-631.031
 40
2.443
 50
141.34
 51
164.876
  0
ARC
  8
APS_GEOMETRY
 10
79.415
 20
-631.245
 40
2.827
 50
116.928
 51
142.001
  0
ARC
  8
APS_GEOMETRY
 10
79.248
 20
-630.915
 40
2.457
 50
90.0
 51
116.928
  0
ARC
  8
APS_GEOMETRY
 10
79.248
 20
-630.921
 40
2.464
 50
62.21
 51
90.0
  0
ARC
  8
APS_GEOMETRY
 10
78.264
 20
-632.788
 40
4.573
 50
41.906
 51
62.21
  0
ARC
  8
APS_GEOMETRY
 10
78.431
 20
-632.823
 40
4.475
 50
37.313
 51
43.668
  0
ARC
  8
APS_GEOMETRY
 10
53.363
 20
-651.929
 40
35.993
 50
35.074
 51
37.313
  0
ARC
  8
APS_GEOMETRY
 10
24.896
 20
-671.916
 40
70.777
 50
33.934
 51
35.074
  0
ARC
  8
APS_GEOMETRY
 10
-76.602
 20
-740.206
 40
193.11
 50
33.243
 51
33.934
  0
ARC
  8
APS_GEOMETRY
 10
90.518
 20
-630.636
 40
6.727
 50
213.453
 51
231.637
  0
ARC
  8
APS_GEOMETRY
 10
93.696
 20
-626.621
 40
11.848
 50
231.637
 51
245.313
  0
ARC
  8
APS_GEOMETRY
 10
94.396
 20
-625.098
 40
13.524
 50
245.313
 51
257.398
  0
ARC
  8
APS_GEOMETRY
 10
94.16
 20
-626.153
 40
12.443
 50
257.398
 51
270.0
  0
ARC
  8
APS_GEOMETRY
 10
94.16
 20
-628.09
 40
10.506
 50
270.0
 51
282.907
  0
ARC
  8
APS_GEOMETRY
 10
95.291
 20
-633.023
 40
5.445
 50
282.907
 51
300.872
  0
ARC
  8
APS_GEOMETRY
 10
96.271
 20
-634.663
 40
3.535
 50
300.872
 51
326.876
  0
ARC
  8
APS_GEOMETRY
 10
97.387
 20
-635.391
 40
2.202
 50
326.876
 51
0.0
  0
ARC
  8
APS_GEOMETRY
 10
97.058
 20
-635.391
 40
2.531
 50
0.0
 51
27.553
  0
ARC
  8
APS_GEOMETRY
 10
96.258
 20
-635.809
 40
3.434
 50
27.553
 51
51.147
  0
ARC
  8
APS_GEOMETRY
 10
94.603
 20
-637.863
 40
6.071
 50
51.147
 51
65.225
  0
ARC
  8
APS_GEOMETRY
 10
88.5
 20
-651.086
 40
20.636
 50
65.225
 51
72.848
  0
ARC
  8
APS_GEOMETRY
 10
124.141
 20
-537.447
 40
98.462
 50
251.106
 51
252.532
  0
ARC
  8
APS_GEOMETRY
 10
111.525
 20
-574.309
 40
59.501
 50
249.271
 51
251.106
  0
ARC
  8
APS_GEOMETRY
 10
106.28
 20
-588.168
 40
44.683
 50
246.83
 51
249.271
  0
ARC
  8
APS_GEOMETRY
 10
97.796
 20
-607.99
 40
23.121
 50
243.435
 51
246.83
  0
ARC
  8
APS_GEOMETRY
 10
96.83
 20
-609.922
 40
20.961
 50
235.981
 51
243.435
  0
ARC
  8
APS_GEOMETRY
 10
97.572
 20
-608.823
 40
22.287
 50
228.752
 51
235.981
  0
ARC
  8
APS_GEOMETRY
 10
94.098
 20
-612.917
 40
16.918
 50
206.421
 51
228.457
  0
ARC
  8
APS_GEOMETRY
 10
89.543
 20
-615.18
 40
11.833
 50
180.0
 51
206.421
  0
ARC
  8
APS_GEOMETRY
 10
89.758
 20
-615.18
 40
12.047
 50
166.555
 51
180.0
  0
ARC
  8
APS_GEOMETRY
 10
91.153
 20
-615.514
 40
13.482
 50
153.848
 51
166.555
  0
ARC
  8
APS_GEOMETRY
 10
91.269
 20
-615.571
 40
13.611
 50
141.244
 51
153.848
  0
ARC
  8
APS_GEOMETRY
 10
92.13
 20
-616.261
 40
14.714
 50
129.123
 51
141.244
  0
ARC
  8
APS_GEOMETRY
 10
94.883
 20
-619.189
 40
18.725
 50
108.978
 51
130.006
  0
ARC
  8
APS_GEOMETRY
 10
96.253
 20
-623.175
 40
22.94
 50
90.0
 51
108.978
  0
ARC
  8
APS_GEOMETRY
 10
146.244
 20
-621.499
 40
21.264
 50
77.257
 51
90.0
  0
ARC
  8
APS_GEOMETRY
 10
146.028
 20
-622.454
 40
22.243
 50
64.799
 51
77.257
  0
ARC
  8
APS_GEOMETRY
 10
164.345
 20
-583.455
 40
20.843
 50
244.885
 51
251.175
  0
ARC
  8
APS_GEOMETRY
 10
158.377
 20
-600.963
 40
2.346
 50
251.175
 51
270.0
  0
ARC
  8
APS_GEOMETRY
 10
158.377
 20
-599.502
 40
3.806
 50
270.0
 51
278.82
  0
ARC
  8
APS_GEOMETRY
 10
155.918
 20
-583.655
 40
19.844
 50
278.82
 51
282.68
  0
ARC
  8
APS_GEOMETRY
 10
161.063
 20
-606.436
 40
3.511
 50
95.906
 51
102.995
  0
ARC
  8
APS_GEOMETRY
 10
161.222
 20
-607.972
 40
5.055
 50
90.0
 51
95.906
  0
ARC
  8
APS_GEOMETRY
 10
161.222
 20
-606.272
 40
3.356
 50
62.447
 51
90.0
  0
ARC
  8
APS_GEOMETRY
 10
160.625
 20
-607.416
 40
4.645
 50
39.094
 51
62.447
  0
ARC
  8
APS_GEOMETRY
 10
154.391
 20
-612.629
 40
12.772
 50
18.435
 51
39.611
  0
ARC
  8
APS_GEOMETRY
 10
150.565
 20
-613.905
 40
16.806
 50
360.0
 51
18.435
  0
ARC
  8
APS_GEOMETRY
 10
159.037
 20
-613.905
 40
8.333
 50
334.877
 51
360.0
  0
ARC
  8
APS_GEOMETRY
 10
161.543
 20
-615.08
 40
5.565
 50
304.007
 51
334.877
  0
ARC
  8
APS_GEOMETRY
 10
161.502
 20
-614.963
 40
5.686
 50
286.39
 51
303.69
  0
ARC
  8
APS_GEOMETRY
 10
161.32
 20
-614.344
 40
6.33
 50
270.0
 51
286.39
  0
ARC
  8
APS_GEOMETRY
 10
161.32
 20
-614.418
 40
6.257
 50
255.155
 51
270.0
  0
ARC
  8
APS_GEOMETRY
 10
160.635
 20
-617.004
 40
3.581
 50
235.491
 51
255.155
  0
ARC
  8
APS_GEOMETRY
 10
160.979
 20
-616.503
 40
4.189
 50
218.48
 51
235.491
  0
ARC
  8
APS_GEOMETRY
 10
166.6
 20
-612.035
 40
11.369
 50
208.179
 51
218.48
  0
ARC
  8
APS_GEOMETRY
 10
108.975
 20
-643.315
 40
54.198
 50
28.56
 51
31.664
  0
ARC
  8
APS_GEOMETRY
 10
144.187
 20
-621.598
 40
12.827
 50
31.664
 51
38.047
  0
ARC
  8
APS_GEOMETRY
 10
146.748
 20
-619.594
 40
9.576
 50
38.047
 51
46.56
  0
ARC
  8
APS_GEOMETRY
 10
145.417
 20
-620.999
 40
11.512
 50
46.56
 51
54.324
  0
ARC
  8
APS_GEOMETRY
 10
144.649
 20
-622.321
 40
13.034
 50
54.968
 51
71.48
  0
ARC
  8
APS_GEOMETRY
 10
145.492
 20
-619.804
 40
10.38
 50
71.48
 51
90.0
  0
ARC
  8
APS_GEOMETRY
 10
145.492
 20
-616.675
 40
7.251
 50
90.0
 51
114.63
  0
ARC
  8
APS_GEOMETRY
 10
145.128
 20
-615.881
 40
6.377
 50
114.63
 51
140.921
  0
ARC
  8
APS_GEOMETRY
 10
146.203
 20
-616.754
 40
7.763
 50
140.921
 51
163.13
  0
ARC
  8
APS_GEOMETRY
 10
151.581
 20
-618.385
 40
13.382
 50
163.13
 51
180.0
  0
ARC
  8
APS_GEOMETRY
 10
158.554
 20
-618.385
 40
20.355
 50
180.0
 51
195.44
  0
ARC
  8
APS_GEOMETRY
 10
157.496
 20
-618.677
 40
19.258
 50
195.44
 51
211.316
  0
ARC
  8
APS_GEOMETRY
 10
152.407
 20
-621.667
 40
13.357
 50
211.708
 51
240.457
  0
ARC
  8
APS_GEOMETRY
 10
152.065
 20
-622.27
 40
12.663
 50
240.457
 51
270.0
  0
ARC
  8
APS_GEOMETRY
 10
152.065
 20
-619.182
 40
15.751
 50
270.0
 51
279.549
  0
ARC
  8
APS_GEOMETRY
 10
151.869
 20
-618.018
 40
16.931
 50
279.549
 51
288.759
  0
ARC
  8
APS_GEOMETRY
 10
152.695
 20
-620.449
 40
14.364
 50
288.759
 51
299.545
  0
ARC
  8
APS_GEOMETRY
 10
156.004
 20
-626.288
 40
7.652
 50
299.545
 51
314.341
  0
ARC
  8
APS_GEOMETRY
 10
166.24
 20
-636.919
 40
7.105
 50
120.141
 51
133.452
  0
ARC
  8
APS_GEOMETRY
 10
163.381
 20
-631.995
 40
1.412
 50
90.0
 51
120.141
  0
ARC
  8
APS_GEOMETRY
 10
163.381
 20
-632.813
 40
2.23
 50
61.952
 51
90.0
  0
ARC
  8
APS_GEOMETRY
 10
163.049
 20
-633.436
 40
2.936
 50
37.569
 51
61.952
  0
ARC
  8
APS_GEOMETRY
 10
162.429
 20
-633.913
 40
3.717
 50
17.665
 51
37.569
  0
ARC
  8
APS_GEOMETRY
 10
161.484
 20
-634.214
 40
4.709
 50
360.0
 51
17.665
  0
ARC
  8
APS_GEOMETRY
 10
159.112
 20
-634.214
 40
7.081
 50
344.932
 51
360.0
  0
ARC
  8
APS_GEOMETRY
 10
152.814
 20
-632.518
 40
13.603
 50
334.075
 51
344.932
  0
ARC
  8
APS_GEOMETRY
 10
152.616
 20
-632.422
 40
13.823
 50
323.374
 51
334.075
  0
ARC
  8
APS_GEOMETRY
 10
156.68
 20
-635.443
 40
8.76
 50
309.92
 51
323.374
  0
ARC
  8
APS_GEOMETRY
 10
160.741
 20
-640.233
 40
2.48
 50
289.026
 51
308.991
  0
ARC
  8
APS_GEOMETRY
 10
156.408
 20
-627.668
 40
15.771
 50
281.143
 51
289.026
  0
ARC
  8
APS_GEOMETRY
 10
160.802
 20
-650.449
 40
7.431
 50
100.437
 51
110.12
  0
ARC
  8
APS_GEOMETRY
 10
166.623
 20
-666.339
 40
24.353
 50
110.12
 51
115.463
  0
ARC
  8
APS_GEOMETRY
 10
145.842
 20
-622.859
 40
23.838
 50
282.94
 51
295.628
  0
ARC
  8
APS_GEOMETRY
 10
146.048
 20
-623.753
 40
22.921
 50
270.0
 51
282.94
  0
ARC
  8
APS_GEOMETRY
 10
146.048
 20
-622.399
 40
24.275
 50
257.307
 51
270.0
  0
ARC
  8
APS_GEOMETRY
 10
147.072
 20
-617.849
 40
28.939
 50
245.686
 51
257.307
  0
ARC
  8
APS_GEOMETRY
 10
144.502
 20
-623.491
 40
22.739
 50
228.801
 51
245.735
  0
ARC
  8
APS_GEOMETRY
 10
144.545
 20
-623.441
 40
22.805
 50
211.891
 51
228.801
  0
ARC
  8
APS_GEOMETRY
 10
145.893
 20
-622.471
 40
24.462
 50
196.728
 51
212.152
  0
ARC
  8
APS_GEOMETRY
 10
142.405
 20
-623.52
 40
20.82
 50
180.0
 51
196.728
  0
ARC
  8
APS_GEOMETRY
 10
142.912
 20
-623.52
 40
21.327
 50
161.184
 51
180.0
  0
ARC
  8
APS_GEOMETRY
 10
144.281
 20
-623.986
 40
22.773
 50
142.98
 51
161.184
  0
ARC
  8
APS_GEOMETRY
 10
145.345
 20
-624.8
 40
24.112
 50
127.824
 51
142.958
  0
ARC
  8
APS_GEOMETRY
 10
147.099
 20
-627.059
 40
26.973
 50
113.52
 51
127.824
  0
ARC
  8
APS_GEOMETRY
 10
146.528
 20
-625.74
 40
25.535
 50
101.927
 51
113.527
  0
ARC
  8
APS_GEOMETRY
 10
146.244
 20
-624.396
 40
24.161
 50
90.0
 51
101.927
  0
ARC
  8
APS_GEOMETRY
 10
196.725
 20
-626.016
 40
25.782
 50
71.91
 51
90.0
  0
ARC
  8
APS_GEOMETRY
 10
197.724
 20
-622.96
 40
22.566
 50
52.561
 51
71.91
  0
ARC
  8
APS_GEOMETRY
 10
197.462
 20
-623.036
 40
22.786
 50
38.846
 51
52.156
  0
ARC
  8
APS_GEOMETRY
 10
193.89
 20
-625.912
 40
27.372
 50
26.707
 51
38.846
  0
ARC
  8
APS_GEOMETRY
 10
194.597
 20
-625.335
 40
26.482
 50
13.868
 51
26.278
  0
ARC
  8
APS_GEOMETRY
 10
199.697
 20
-624.076
 40
21.229
 50
360.0
 51
13.868
  0
ARC
  8
APS_GEOMETRY
 10
200.027
 20
-624.076
 40
20.899
 50
339.712
 51
360.0
  0
ARC
  8
APS_GEOMETRY
 10
198.85
 20
-623.641
 40
22.153
 50
320.013
 51
339.712
  0
ARC
  8
APS_GEOMETRY
 10
198.655
 20
-623.533
 40
22.372
 50
303.344
 51
320.123
  0
ARC
  8
APS_GEOMETRY
 10
196.36
 20
-620.044
 40
26.548
 50
287.949
 51
303.344
  0
ARC
  8
APS_GEOMETRY
 10
195.605
 20
-617.429
 40
29.269
 50
279.039
 51
287.776
  0
ARC
  8
APS_GEOMETRY
 10
195.907
 20
-619.328
 40
27.346
 50
270.0
 51
279.039
  0
ARC
  8
APS_GEOMETRY
 10
195.907
 20
-620.663
 40
26.011
 50
257.728
 51
270.0
  0
ARC
  8
APS_GEOMETRY
 10
195.948
 20
-620.475
 40
26.203
 50
245.501
 51
257.728
  0
ARC
  8
APS_GEOMETRY
 10
194.476
 20
-623.697
 40
22.66
 50
228.665
 51
245.511
  0
ARC
  8
APS_GEOMETRY
 10
193.986
 20
-624.254
 40
21.918
 50
211.535
 51
228.665
  0
ARC
  8
APS_GEOMETRY
 10
194.628
 20
-623.783
 40
22.712
 50
195.642
 51
211.701
  0
ARC
  8
APS_GEOMETRY
 10
195.802
 20
-623.454
 40
23.931
 50
180.0
 51
195.642
  0
ARC
  8
APS_GEOMETRY
 10
196.053
 20
-623.454
 40
24.183
 50
162.181
 51
180.0
  0
ARC
  8
APS_GEOMETRY
 10
193.847
 20
-622.745
 40
21.865
 50
143.434
 51
162.181
  0
ARC
  8
APS_GEOMETRY
 10
193.55
 20
-622.507
 40
21.485
 50
126.384
 51
143.471
  0
ARC
  8
APS_GEOMETRY
 10
195.584
 20
-625.268
 40
24.914
 50
110.525
 51
126.384
  0
ARC
  8
APS_GEOMETRY
 10
195.483
 20
-624.518
 40
24.177
 50
99.77
 51
110.925
  0
ARC
  8
APS_GEOMETRY
 10
196.725
 20
-631.73
 40
31.496
 50
90.0
 51
99.77
  0
ARC
  8
APS_GEOMETRY
 10
193.618
 20
-614.428
 40
4.807
 50
90.0
 51
119.604
  0
ARC
  8
APS_GEOMETRY
 10
194.039
 20
-615.169
 40
5.659
 50
119.604
 51
146.842
  0
ARC
  8
APS_GEOMETRY
 10
194.885
 20
-615.863
 40
6.748
 50
145.84
 51
164.055
  0
ARC
  8
APS_GEOMETRY
 10
196.847
 20
-616.423
 40
8.788
 50
164.055
 51
180.0
  0
ARC
  8
APS_GEOMETRY
 10
209.111
 20
-616.423
 40
21.053
 50
180.0
 51
189.977
  0
ARC
  8
APS_GEOMETRY
 10
227.763
 20
-613.142
 40
39.991
 50
189.977
 51
197.211
  0
ARC
  8
APS_GEOMETRY
 10
231.842
 20
-611.878
 40
44.261
 50
197.211
 51
203.76
  0
ARC
  8
APS_GEOMETRY
 10
221.68
 20
-616.352
 40
33.157
 50
203.76
 51
211.329
  0
ARC
  8
APS_GEOMETRY
 10
200.811
 20
-628.876
 40
8.821
 50
212.32
 51
224.441
  0
ARC
  8
APS_GEOMETRY
 10
199.956
 20
-629.715
 40
7.623
 50
224.441
 51
237.484
  0
ARC
  8
APS_GEOMETRY
 10
199.403
 20
-630.582
 40
6.595
 50
237.484
 51
252.416
  0
ARC
  8
APS_GEOMETRY
 10
198.851
 20
-632.325
 40
4.766
 50
252.416
 51
270.0
  0
ARC
  8
APS_GEOMETRY
 10
198.851
 20
-631.76
 40
5.331
 50
270.0
 51
294.953
  0
ARC
  8
APS_GEOMETRY
 10
199.0
 20
-632.081
 40
4.977
 50
294.953
 51
320.793
  0
ARC
  8
APS_GEOMETRY
 10
198.199
 20
-631.428
 40
6.011
 50
320.793
 51
342.777
  0
ARC
  8
APS_GEOMETRY
 10
194.632
 20
-630.322
 40
9.746
 50
342.777
 51
0.0
  0
ARC
  8
APS_GEOMETRY
 10
177.871
 20
-630.322
 40
26.507
 50
0.0
 51
8.499
  0
ARC
  8
APS_GEOMETRY
 10
166.203
 20
-632.065
 40
38.304
 50
8.499
 51
15.566
  0
ARC
  8
APS_GEOMETRY
 10
167.606
 20
-631.675
 40
36.848
 50
15.566
 51
22.909
  0
ARC
  8
APS_GEOMETRY
 10
179.67
 20
-626.577
 40
23.751
 50
22.909
 51
32.057
  0
ARC
  8
APS_GEOMETRY
 10
189.145
 20
-620.607
 40
12.552
 50
31.921
 51
42.51
  0
ARC
  8
APS_GEOMETRY
 10
191.748
 20
-618.222
 40
9.022
 50
42.51
 51
55.008
  0
ARC
  8
APS_GEOMETRY
 10
192.626
 20
-616.966
 40
7.489
 50
55.008
 51
69.88
  0
ARC
  8
APS_GEOMETRY
 10
193.415
 20
-614.815
 40
5.198
 50
69.88
 51
87.754
  0
ARC
  8
APS_GEOMETRY
 10
250.084
 20
-621.499
 40
21.264
 50
77.257
 51
90.0
  0
ARC
  8
APS_GEOMETRY
 10
249.868
 20
-622.454
 40
22.243
 50
64.799
 51
77.257
  0
ARC
  8
APS_GEOMETRY
 10
268.186
 20
-583.455
 40
20.843
 50
244.885
 51
251.175
  0
ARC
  8
APS_GEOMETRY
 10
262.217
 20
-600.963
 40
2.346
 50
251.175
 51
270.0
  0
ARC
  8
APS_GEOMETRY
 10
262.217
 20
-599.502
 40
3.806
 50
270.0
 51
278.82
  0
ARC
  8
APS_GEOMETRY
 10
259.758
 20
-583.655
 40
19.844
 50
278.82
 51
282.68
  0
ARC
  8
APS_GEOMETRY
 10
264.903
 20
-606.436
 40
3.511
 50
95.906
 51
102.995
  0
ARC
  8
APS_GEOMETRY
 10
265.062
 20
-607.972
 40
5.055
 50
90.0
 51
95.906
  0
ARC
  8
APS_GEOMETRY
 10
265.062
 20
-606.272
 40
3.356
 50
62.447
 51
90.0
  0
ARC
  8
APS_GEOMETRY
 10
264.466
 20
-607.416
 40
4.645
 50
39.094
 51
62.447
  0
ARC
  8
APS_GEOMETRY
 10
258.231
 20
-612.629
 40
12.772
 50
18.435
 51
39.611
  0
ARC
  8
APS_GEOMETRY
 10
254.405
 20
-613.905
 40
16.806
 50
360.0
 51
18.435
  0
ARC
  8
APS_GEOMETRY
 10
262.877
 20
-613.905
 40
8.333
 50
334.877
 51
360.0
  0
ARC
  8
APS_GEOMETRY
 10
265.384
 20
-615.08
 40
5.565
 50
304.007
 51
334.877
  0
ARC
  8
APS_GEOMETRY
 10
265.342
 20
-614.963
 40
5.686
 50
286.39
 51
303.69
  0
ARC
  8
APS_GEOMETRY
 10
265.16
 20
-614.344
 40
6.33
 50
270.0
 51
286.39
  0
ARC
  8
APS_GEOMETRY
 10
265.16
 20
-614.418
 40
6.257
 50
255.155
 51
270.0
  0
ARC
  8
APS_GEOMETRY
 10
264.475
 20
-617.004
 40
3.581
 50
235.491
 51
255.155
  0
ARC
  8
APS_GEOMETRY
 10
264.819
 20
-616.503
 40
4.189
 50
218.48
 51
235.491
  0
ARC
  8
APS_GEOMETRY
 10
270.44
 20
-612.035
 40
11.369
 50
208.179
 51
218.48
  0
ARC
  8
APS_GEOMETRY
 10
212.815
 20
-643.315
 40
54.198
 50
28.56
 51
31.664
  0
ARC
  8
APS_GEOMETRY
 10
248.028
 20
-621.598
 40
12.827
 50
31.664
 51
38.047
  0
ARC
  8
APS_GEOMETRY
 10
250.588
 20
-619.594
 40
9.576
 50
38.047
 51
46.56
  0
ARC
  8
APS_GEOMETRY
 10
249.257
 20
-620.999
 40
11.512
 50
46.56
 51
54.324
  0
ARC
  8
APS_GEOMETRY
 10
248.489
 20
-622.321
 40
13.034
 50
54.968
 51
71.48
  0
ARC
  8
APS_GEOMETRY
 10
249.332
 20
-619.804
 40
10.38
 50
71.48
 51
90.0
  0
ARC
  8
APS_GEOMETRY
 10
249.332
 20
-616.675
 40
7.251
 50
90.0
 51
114.63
  0
ARC
  8
APS_GEOMETRY
 10
248.968
 20
-615.881
 40
6.377
 50
114.63
 51
140.921
  0
ARC
  8
APS_GEOMETRY
 10
250.044
 20
-616.754
 40
7.763
 50
140.921
 51
163.13
  0
ARC
  8
APS_GEOMETRY
 10
255.421
 20
-618.385
 40
13.382
 50
163.13
 51
180.0
  0
ARC
  8
APS_GEOMETRY
 10
262.394
 20
-618.385
 40
20.355
 50
180.0
 51
195.44
  0
ARC
  8
APS_GEOMETRY
 10
261.336
 20
-618.677
 40
19.258
 50
195.44
 51
211.316
  0
ARC
  8
APS_GEOMETRY
 10
256.247
 20
-621.667
 40
13.357
 50
211.708
 51
240.457
  0
ARC
  8
APS_GEOMETRY
 10
255.905
 20
-622.27
 40
12.663
 50
240.457
 51
270.0
  0
ARC
  8
APS_GEOMETRY
 10
255.905
 20
-619.182
 40
15.751
 50
270.0
 51
279.549
  0
ARC
  8
APS_GEOMETRY
 10
255.709
 20
-618.018
 40
16.931
 50
279.549
 51
288.759
  0
ARC
  8
APS_GEOMETRY
 10
256.535
 20
-620.449
 40
14.364
 50
288.759
 51
299.545
  0
ARC
  8
APS_GEOMETRY
 10
259.845
 20
-626.288
 40
7.652
 50
299.545
 51
314.341
  0
ARC
  8
APS_GEOMETRY
 10
270.08
 20
-636.919
 40
7.105
 50
120.141
 51
133.452
  0
ARC
  8
APS_GEOMETRY
 10
267.221
 20
-631.995
 40
1.412
 50
90.0
 51
120.141
  0
ARC
  8
APS_GEOMETRY
 10
267.221
 20
-632.813
 40
2.23
 50
61.952
 51
90.0
  0
ARC
  8
APS_GEOMETRY
 10
266.889
 20
-633.436
 40
2.936
 50
37.569
 51
61.952
  0
ARC
  8
APS_GEOMETRY
 10
266.269
 20
-633.913
 40
3.717
 50
17.665
 51
37.569
  0
ARC
  8
APS_GEOMETRY
 10
265.325
 20
-634.214
 40
4.709
 50
360.0
 51
17.665
  0
ARC
  8
APS_GEOMETRY
 10
262.953
 20
-634.214
 40
7.081
 50
344.932
 51
360.0
  0
ARC
  8
APS_GEOMETRY
 10
256.655
 20
-632.518
 40
13.603
 50
334.075
 51
344.932
  0
ARC
  8
APS_GEOMETRY
 10
256.457
 20
-632.422
 40
13.823
 50
323.374
 51
334.075
  0
ARC
  8
APS_GEOMETRY
 10
260.52
 20
-635.443
 40
8.76
 50
309.92
 51
323.374
  0
ARC
  8
APS_GEOMETRY
 10
264.581
 20
-640.233
 40
2.48
 50
289.026
 51
308.991
  0
ARC
  8
APS_GEOMETRY
 10
260.248
 20
-627.668
 40
15.771
 50
281.143
 51
289.026
  0
ARC
  8
APS_GEOMETRY
 10
264.642
 20
-650.449
 40
7.431
 50
100.437
 51
110.12
  0
ARC
  8
APS_GEOMETRY
 10
270.464
 20
-666.339
 40
24.353
 50
110.12
 51
115.463
  0
ARC
  8
APS_GEOMETRY
 10
249.682
 20
-622.859
 40
23.838
 50
282.94
 51
295.628
  0
ARC
  8
APS_GEOMETRY
 10
249.888
 20
-623.753
 40
22.921
 50
270.0
 51
282.94
  0
ARC
  8
APS_GEOMETRY
 10
249.888
 20
-622.399
 40
24.275
 50
257.307
 51
270.0
  0
ARC
  8
APS_GEOMETRY
 10
250.913
 20
-617.849
 40
28.939
 50
245.686
 51
257.307
  0
ARC
  8
APS_GEOMETRY
 10
248.342
 20
-623.491
 40
22.739
 50
228.801
 51
245.735
  0
ARC
  8
APS_GEOMETRY
 10
248.385
 20
-623.441
 40
22.805
 50
211.891
 51
228.801
  0
ARC
  8
APS_GEOMETRY
 10
249.733
 20
-622.471
 40
24.462
 50
196.728
 51
212.152
  0
ARC
  8
APS_GEOMETRY
 10
246.245
 20
-623.52
 40
20.82
 50
180.0
 51
196.728
  0
ARC
  8
APS_GEOMETRY
 10
246.753
 20
-623.52
 40
21.327
 50
161.184
 51
180.0
  0
ARC
  8
APS_GEOMETRY
 10
248.121
 20
-623.986
 40
22.773
 50
142.98
 51
161.184
  0
ARC
  8
APS_GEOMETRY
 10
249.185
 20
-624.8
 40
24.112
 50
127.824
 51
142.958
  0
ARC
  8
APS_GEOMETRY
 10
250.939
 20
-627.059
 40
26.973
 50
113.52
 51
127.824
  0
ARC
  8
APS_GEOMETRY
 10
250.368
 20
-625.74
 40
25.535
 50
101.927
 51
113.527
  0
ARC
  8
APS_GEOMETRY
 10
250.084
 20
-624.396
 40
24.161
 50
90.0
 51
101.927
  0
ARC
  8
APS_GEOMETRY
 10
300.565
 20
-626.016
 40
25.782
 50
71.91
 51
90.0
  0
ARC
  8
APS_GEOMETRY
 10
301.564
 20
-622.96
 40
22.566
 50
52.561
 51
71.91
  0
ARC
  8
APS_GEOMETRY
 10
301.302
 20
-623.036
 40
22.786
 50
38.846
 51
52.156
  0
ARC
  8
APS_GEOMETRY
 10
297.73
 20
-625.912
 40
27.372
 50
26.707
 51
38.846
  0
ARC
  8
APS_GEOMETRY
 10
298.437
 20
-625.335
 40
26.482
 50
13.868
 51
26.278
  0
ARC
  8
APS_GEOMETRY
 10
303.537
 20
-624.076
 40
21.229
 50
360.0
 51
13.868
  0
ARC
  8
APS_GEOMETRY
 10
303.867
 20
-624.076
 40
20.899
 50
339.712
 51
360.0
  0
ARC
  8
APS_GEOMETRY
 10
302.691
 20
-623.641
 40
22.153
 50
320.013
 51
339.712
  0
ARC
  8
APS_GEOMETRY
 10
302.495
 20
-623.533
 40
22.372
 50
303.344
 51
320.123
  0
ARC
  8
APS_GEOMETRY
 10
300.2
 20
-620.044
 40
26.548
 50
287.949
 51
303.344
  0
ARC
  8
APS_GEOMETRY
 10
299.445
 20
-617.429
 40
29.269
 50
279.039
 51
287.776
  0
ARC
  8
APS_GEOMETRY
 10
299.748
 20
-619.328
 40
27.346
 50
270.0
 51
279.039
  0
ARC
  8
APS_GEOMETRY
 10
299.748
 20
-620.663
 40
26.011
 50
257.728
 51
270.0
  0
ARC
  8
APS_GEOMETRY
 10
299.789
 20
-620.475
 40
26.203
 50
245.501
 51
257.728
  0
ARC
  8
APS_GEOMETRY
 10
298.316
 20
-623.697
 40
22.66
 50
228.665
 51
245.511
  0
ARC
  8
APS_GEOMETRY
 10
297.826
 20
-624.254
 40
21.918
 50
211.535
 51
228.665
  0
ARC
  8
APS_GEOMETRY
 10
298.468
 20
-623.783
 40
22.712
 50
195.642
 51
211.701
  0
ARC
  8
APS_GEOMETRY
 10
299.642
 20
-623.454
 40
23.931
 50
180.0
 51
195.642
  0
ARC
  8
APS_GEOMETRY
 10
299.893
 20
-623.454
 40
24.183
 50
162.181
 51
180.0
  0
ARC
  8
APS_GEOMETRY
 10
297.687
 20
-622.745
 40
21.865
 50
143.434
 51
162.181
  0
ARC
  8
APS_GEOMETRY
 10
297.39
 20
-622.507
 40
21.485
 50
126.384
 51
143.471
  0
ARC
  8
APS_GEOMETRY
 10
299.424
 20
-625.268
 40
24.914
 50
110.525
 51
126.384
  0
ARC
  8
APS_GEOMETRY
 10
299.323
 20
-624.518
 40
24.177
 50
99.77
 51
110.925
  0
ARC
  8
APS_GEOMETRY
 10
300.565
 20
-631.73
 40
31.496
 50
90.0
 51
99.77
  0
ARC
  8
APS_GEOMETRY
 10
297.458
 20
-614.428
 40
4.807
 50
90.0
 51
119.604
  0
ARC
  8
APS_GEOMETRY
 10
297.879
 20
-615.169
 40
5.659
 50
119.604
 51
146.842
  0
ARC
  8
APS_GEOMETRY
 10
298.726
 20
-615.863
 40
6.748
 50
145.84
 51
164.055
  0
ARC
  8
APS_GEOMETRY
 10
300.687
 20
-616.423
 40
8.788
 50
164.055
 51
180.0
  0
ARC
  8
APS_GEOMETRY
 10
312.951
 20
-616.423
 40
21.053
 50
180.0
 51
189.977
  0
ARC
  8
APS_GEOMETRY
 10
331.603
 20
-613.142
 40
39.991
 50
189.977
 51
197.211
  0
ARC
  8
APS_GEOMETRY
 10
335.682
 20
-611.878
 40
44.261
 50
197.211
 51
203.76
  0
ARC
  8
APS_GEOMETRY
 10
325.52
 20
-616.352
 40
33.157
 50
203.76
 51
211.329
  0
ARC
  8
APS_GEOMETRY
 10
304.652
 20
-628.876
 40
8.821
 50
212.32
 51
224.441
  0
ARC
  8
APS_GEOMETRY
 10
303.796
 20
-629.715
 40
7.623
 50
224.441
 51
237.484
  0
ARC
  8
APS_GEOMETRY
 10
303.243
 20
-630.582
 40
6.595
 50
237.484
 51
252.416
  0
ARC
  8
APS_GEOMETRY
 10
302.691
 20
-632.325
 40
4.766
 50
252.416
 51
270.0
  0
ARC
  8
APS_GEOMETRY
 10
302.691
 20
-631.76
 40
5.331
 50
270.0
 51
294.953
  0
ARC
  8
APS_GEOMETRY
 10
302.84
 20
-632.081
 40
4.977
 50
294.953
 51
320.793
  0
ARC
  8
APS_GEOMETRY
 10
302.04
 20
-631.428
 40
6.011
 50
320.793
 51
342.777
  0
ARC
  8
APS_GEOMETRY
 10
298.472
 20
-630.322
 40
9.746
 50
342.777
 51
0.0
  0
ARC
  8
APS_GEOMETRY
 10
281.711
 20
-630.322
 40
26.507
 50
0.0
 51
8.499
  0
ARC
  8
APS_GEOMETRY
 10
270.043
 20
-632.065
 40
38.304
 50
8.499
 51
15.566
  0
ARC
  8
APS_GEOMETRY
 10
271.446
 20
-631.675
 40
36.848
 50
15.566
 51
22.909
  0
ARC
  8
APS_GEOMETRY
 10
283.51
 20
-626.577
 40
23.751
 50
22.909
 51
32.057
  0
ARC
  8
APS_GEOMETRY
 10
292.986
 20
-620.607
 40
12.552
 50
31.921
 51
42.51
  0
ARC
  8
APS_GEOMETRY
 10
295.588
 20
-618.222
 40
9.022
 50
42.51
 51
55.008
  0
ARC
  8
APS_GEOMETRY
 10
296.467
 20
-616.966
 40
7.489
 50
55.008
 51
69.88
  0
ARC
  8
APS_GEOMETRY
 10
297.255
 20
-614.815
 40
5.198
 50
69.88
 51
87.754
  0
ARC
  8
APS_GEOMETRY
 10
351.079
 20
-629.439
 40
2.42
 50
90.0
 51
115.837
  0
ARC
  8
APS_GEOMETRY
 10
350.483
 20
-628.208
 40
1.053
 50
115.837
 51
155.462
  0
ARC
  8
APS_GEOMETRY
 10
351.178
 20
-628.526
 40
1.817
 50
155.462
 51
168.366
  0
ARC
  8
APS_GEOMETRY
 10
357.524
 20
-629.832
 40
8.296
 50
168.366
 51
174.395
  0
ARC
  8
APS_GEOMETRY
 10
363.92
 20
-630.46
 40
14.722
 50
174.395
 51
177.813
  0
ARC
  8
APS_GEOMETRY
 10
385.149
 20
-631.27
 40
35.966
 50
177.813
 51
180.0
  0
ARC
  8
APS_GEOMETRY
 10
400.517
 20
-631.27
 40
51.335
 50
180.0
 51
184.62
  0
ARC
  8
APS_GEOMETRY
 10
366.097
 20
-634.052
 40
16.803
 50
184.62
 51
192.7
  0
ARC
  8
APS_GEOMETRY
 10
352.827
 20
-636.965
 40
3.218
 50
194.036
 51
205.821
  0
ARC
  8
APS_GEOMETRY
 10
351.422
 20
-637.645
 40
1.656
 50
205.821
 51
222.274
  0
ARC
  8
APS_GEOMETRY
 10
351.852
 20
-637.254
 40
2.238
 50
222.274
 51
234.605
  0
ARC
  8
APS_GEOMETRY
 10
356.712
 20
-630.413
 40
10.63
 50
234.605
 51
240.255
  0
ARC
  8
APS_GEOMETRY
 10
349.324
 20
-643.488
 40
4.389
 50
34.592
 51
61.189
  0
ARC
  8
APS_GEOMETRY
 10
350.774
 20
-642.488
 40
2.627
 50
360.0
 51
34.592
  0
ARC
  8
APS_GEOMETRY
 10
350.862
 20
-642.488
 40
2.539
 50
318.231
 51
360.0
  0
ARC
  8
APS_GEOMETRY
 10
349.164
 20
-640.971
 40
4.816
 50
288.227
 51
318.231
  0
ARC
  8
APS_GEOMETRY
 10
347.402
 20
-635.623
 40
10.446
 50
280.377
 51
288.227
  0
ARC
  8
APS_GEOMETRY
 10
344.333
 20
-618.86
 40
27.489
 50
275.541
 51
280.377
  0
ARC
  8
APS_GEOMETRY
 10
343.01
 20
-605.222
 40
41.19
 50
272.304
 51
275.541
  0
ARC
  8
APS_GEOMETRY
 10
341.399
 20
-565.186
 40
81.259
 50
270.0
 51
272.304
  0
ARC
  8
APS_GEOMETRY
 10
341.399
 20
-598.645
 40
47.8
 50
262.811
 51
270.0
  0
ARC
  8
APS_GEOMETRY
 10
337.11
 20
-632.651
 40
13.524
 50
249.274
 51
262.811
  0
ARC
  8
APS_GEOMETRY
 10
334.412
 20
-639.781
 40
5.901
 50
221.379
 51
249.274
  0
ARC
  8
APS_GEOMETRY
 10
332.045
 20
-641.866
 40
2.747
 50
180.0
 51
221.379
  0
ARC
  8
APS_GEOMETRY
 10
332.027
 20
-641.866
 40
2.728
 50
164.055
 51
180.0
  0
ARC
  8
APS_GEOMETRY
 10
330.89
 20
-641.541
 40
1.546
 50
142.815
 51
164.055
  0
ARC
  8
APS_GEOMETRY
 10
331.605
 20
-642.084
 40
2.444
 50
129.007
 51
142.815
  0
ARC
  8
APS_GEOMETRY
 10
340.397
 20
-652.939
 40
16.412
 50
123.69
 51
129.007
  0
ARC
  8
APS_GEOMETRY
 10
327.921
 20
-634.166
 40
6.128
 50
303.389
 51
319.022
  0
ARC
  8
APS_GEOMETRY
 10
329.579
 20
-635.606
 40
3.932
 50
319.022
 51
338.575
  0
ARC
  8
APS_GEOMETRY
 10
327.36
 20
-634.735
 40
6.316
 50
338.575
 51
351.049
  0
ARC
  8
APS_GEOMETRY
 10
300.554
 20
-630.513
 40
33.452
 50
351.049
 51
356.46
  0
ARC
  8
APS_GEOMETRY
 10
309.39
 20
-630.849
 40
24.613
 50
355.972
 51
358.68
  0
ARC
  8
APS_GEOMETRY
 10
19.199
 20
-624.163
 40
314.881
 50
358.68
 51
359.437
  0
LINE
  8
APS_GEOMETRY
 10
334.065
 11
334.096
 20
-627.256
 21
-622.344
  0
LINE
  8
APS_GEOMETRY
 10
334.096
 11
334.106
 20
-622.344
 21
-615.932
  0
ARC
  8
APS_GEOMETRY
 10
258.297
 20
-615.932
 40
75.809
 50
0.0
 51
1.717
  0
ARC
  8
APS_GEOMETRY
 10
298.865
 20
-614.716
 40
35.223
 50
1.717
 51
4.236
  0
ARC
  8
APS_GEOMETRY
 10
312.094
 20
-613.736
 40
21.957
 50
4.236
 51
8.269
  0
ARC
  8
APS_GEOMETRY
 10
327.318
 20
-611.524
 40
6.573
 50
8.269
 51
15.642
  0
ARC
  8
APS_GEOMETRY
 10
329.938
 20
-610.79
 40
3.853
 50
15.642
 51
39.417
  0
ARC
  8
APS_GEOMETRY
 10
329.997
 20
-610.742
 40
3.776
 50
39.417
 51
63.435
  0
ARC
  8
APS_GEOMETRY
 10
336.798
 20
-596.652
 40
11.869
 50
236.874
 51
244.486
  0
ARC
  8
APS_GEOMETRY
 10
331.739
 20
-604.406
 40
2.611
 50
220.601
 51
236.874
  0
ARC
  8
APS_GEOMETRY
 10
331.158
 20
-604.903
 40
1.847
 50
198.246
 51
220.601
  0
ARC
  8
APS_GEOMETRY
 10
332.026
 20
-604.617
 40
2.761
 50
180.0
 51
198.246
  0
ARC
  8
APS_GEOMETRY
 10
332.013
 20
-604.617
 40
2.748
 50
156.161
 51
180.0
  0
ARC
  8
APS_GEOMETRY
 10
332.397
 20
-604.786
 40
3.167
 50
133.977
 51
156.161
  0
ARC
  8
APS_GEOMETRY
 10
333.16
 20
-605.578
 40
4.266
 50
116.996
 51
133.977
  0
ARC
  8
APS_GEOMETRY
 10
334.677
 20
-608.555
 40
7.608
 50
104.3
 51
116.996
  0
ARC
  8
APS_GEOMETRY
 10
335.069
 20
-610.061
 40
9.164
 50
95.326
 51
104.349
  0
ARC
  8
APS_GEOMETRY
 10
336.657
 20
-627.095
 40
26.272
 50
90.0
 51
95.326
  0
ARC
  8
APS_GEOMETRY
 10
336.657
 20
-613.836
 40
13.013
 50
87.553
 51
90.0
  0
ARC
  8
APS_GEOMETRY
 10
333.888
 20
-678.624
 40
77.86
 50
86.553
 51
87.553
  0
ARC
  8
APS_GEOMETRY
 10
329.951
 20
-743.971
 40
143.325
 50
86.009
 51
86.553
  0
ARC
  8
APS_GEOMETRY
 10
314.644
 20
-963.384
 40
363.271
 50
85.668
 51
86.009
  0
ARC
  8
APS_GEOMETRY
 10
343.292
 20
-586.073
 40
15.125
 50
265.426
 51
268.531
  0
ARC
  8
APS_GEOMETRY
 10
344.636
 20
-533.63
 40
67.586
 50
268.531
 51
270.0
  0
ARC
  8
APS_GEOMETRY
 10
344.636
 20
-549.705
 40
51.511
 50
270.0
 51
271.637
  0
ARC
  8
APS_GEOMETRY
 10
343.485
 20
-509.421
 40
91.812
 50
271.637
 51
272.862
  0
ARC
  8
APS_GEOMETRY
 10
342.164
 20
-482.991
 40
118.274
 50
272.862
 51
273.814
  0
ARC
  8
APS_GEOMETRY
 10
337.69
 20
-415.887
 40
185.527
 50
273.814
 51
274.574
  0
ARC
  8
APS_GEOMETRY
 10
365.752
 20
-780.878
 40
180.543
 50
93.72
 51
94.214
  0
ARC
  8
APS_GEOMETRY
 10
359.763
 20
-688.76
 40
88.23
 50
93.013
 51
93.72
  0
ARC
  8
APS_GEOMETRY
 10
358.121
 20
-657.564
 40
56.991
 50
91.918
 51
93.013
  0
ARC
  8
APS_GEOMETRY
 10
356.835
 20
-619.149
 40
18.554
 50
90.0
 51
91.918
  0
ARC
  8
APS_GEOMETRY
 10
356.835
 20
-624.703
 40
24.109
 50
73.82
 51
90.0
  0
ARC
  8
APS_GEOMETRY
 10
359.211
 20
-616.513
 40
15.581
 50
53.658
 51
73.82
  0
ARC
  8
APS_GEOMETRY
 10
362.591
 20
-611.894
 40
9.857
 50
26.03
 51
53.569
  0
ARC
  8
APS_GEOMETRY
 10
361.554
 20
-612.4
 40
11.012
 50
360.0
 51
26.03
  0
ARC
  8
APS_GEOMETRY
 10
361.122
 20
-612.4
 40
11.443
 50
345.282
 51
360.0
  0
ARC
  8
APS_GEOMETRY
 10
362.223
 20
-612.69
 40
10.305
 50
329.767
 51
345.282
  0
ARC
  8
APS_GEOMETRY
 10
362.847
 20
-613.053
 40
9.583
 50
313.168
 51
329.767
  0
ARC
  8
APS_GEOMETRY
 10
363.077
 20
-613.299
 40
9.246
 50
296.267
 51
313.168
  0
ARC
  8
APS_GEOMETRY
 10
368.341
 20
-623.933
 40
2.62
 50
116.565
 51
139.899
  0
ARC
  8
APS_GEOMETRY
 10
367.034
 20
-622.833
 40
0.911
 50
139.899
 51
180.0
  0
ARC
  8
APS_GEOMETRY
 10
367.135
 20
-622.833
 40
1.013
 50
180.0
 51
226.193
  0
ARC
  8
APS_GEOMETRY
 10
369.006
 20
-620.882
 40
3.715
 50
226.193
 51
249.829
  0
ARC
  8
APS_GEOMETRY
 10
363.645
 20
-635.644
 40
11.989
 50
53.249
 51
70.105
  0
ARC
  8
APS_GEOMETRY
 10
366.08
 20
-632.382
 40
7.919
 50
32.471
 51
53.249
  0
ARC
  8
APS_GEOMETRY
 10
364.945
 20
-633.105
 40
9.264
 50
23.305
 51
32.471
  0
ARC
  8
APS_GEOMETRY
 10
357.935
 20
-636.124
 40
16.897
 50
16.521
 51
23.305
  0
ARC
  8
APS_GEOMETRY
 10
352.47
 20
-637.746
 40
22.598
 50
11.429
 51
16.521
  0
ARC
  8
APS_GEOMETRY
 10
336.98
 20
-640.877
 40
38.401
 50
7.524
 51
11.429
  0
ARC
  8
APS_GEOMETRY
 10
388.308
 20
-634.041
 40
13.38
 50
187.765
 51
196.914
  0
ARC
  8
APS_GEOMETRY
 10
377.365
 20
-637.369
 40
1.942
 50
196.914
 51
221.082
  0
ARC
  8
APS_GEOMETRY
 10
377.407
 20
-637.332
 40
1.997
 50
221.082
 51
244.607
  0
ARC
  8
APS_GEOMETRY
 10
382.08
 20
-627.487
 40
12.896
 50
244.607
 51
253.811
  0
ARC
  8
APS_GEOMETRY
 10
377.971
 20
-641.497
 40
1.705
 50
51.45
 51
72.474
  0
ARC
  8
APS_GEOMETRY
 10
377.549
 20
-642.026
 40
2.382
 50
33.69
 51
51.45
  0
ARC
  8
APS_GEOMETRY
 10
377.451
 20
-642.092
 40
2.5
 50
16.639
 51
33.69
  0
ARC
  8
APS_GEOMETRY
 10
377.331
 20
-642.128
 40
2.625
 50
360.0
 51
16.639
  0
ARC
  8
APS_GEOMETRY
 10
377.295
 20
-642.128
 40
2.662
 50
338.993
 51
360.0
  0
ARC
  8
APS_GEOMETRY
 10
375.669
 20
-641.504
 40
4.402
 50
322.696
 51
338.993
  0
ARC
  8
APS_GEOMETRY
 10
375.064
 20
-641.043
 40
5.164
 50
308.603
 51
322.696
  0
ARC
  8
APS_GEOMETRY
 10
374.647
 20
-640.521
 40
5.831
 50
295.346
 51
308.603
  0
ARC
  8
APS_GEOMETRY
 10
372.456
 20
-635.694
 40
11.131
 50
279.583
 51
294.905
  0
ARC
  8
APS_GEOMETRY
 10
369.589
 20
-618.713
 40
28.353
 50
270.0
 51
279.583
  0
ARC
  8
APS_GEOMETRY
 10
369.589
 20
-626.394
 40
20.672
 50
261.247
 51
270.0
  0
ARC
  8
APS_GEOMETRY
 10
368.265
 20
-634.995
 40
11.97
 50
249.737
 51
261.247
  0
ARC
  8
APS_GEOMETRY
 10
367.395
 20
-637.353
 40
9.457
 50
235.345
 51
249.737
  0
ARC
  8
APS_GEOMETRY
 10
366.295
 20
-638.943
 40
7.524
 50
219.198
 51
235.345
  0
ARC
  8
APS_GEOMETRY
 10
368.608
 20
-636.97
 40
10.563
 50
209.076
 51
219.56
  0
ARC
  8
APS_GEOMETRY
 10
373.949
 20
-634.001
 40
16.674
 50
200.735
 51
209.076
  0
ARC
  8
APS_GEOMETRY
 10
381.319
 20
-631.211
 40
24.554
 50
197.881
 51
200.735
  0
ARC
  8
APS_GEOMETRY
 10
411.6
 20
-621.441
 40
56.372
 50
195.997
 51
197.881
  0
ARC
  8
APS_GEOMETRY
 10
433.982
 20
-615.024
 40
79.656
 50
194.664
 51
195.997
  0
ARC
  8
APS_GEOMETRY
 10
495.977
 20
-598.802
 40
143.738
 50
193.671
 51
194.664
  0
ARC
  8
APS_GEOMETRY
 10
338.767
 20
-637.022
 40
18.051
 50
13.61
 51
23.585
  0
ARC
  8
APS_GEOMETRY
 10
350.586
 20
-631.862
 40
5.155
 50
23.585
 51
42.31
  0
ARC
  8
APS_GEOMETRY
 10
351.658
 20
-630.887
 40
3.705
 50
42.31
 51
67.521
  0
ARC
  8
APS_GEOMETRY
 10
350.81
 20
-632.937
 40
5.924
 50
67.521
 51
87.397
  0
LINE
  8
APS_GEOMETRY
 10
349.215
 11
348.855
 20
-610.34
 21
-617.96
  0
LINE
  8
APS_GEOMETRY
 10
348.855
 11
348.855
 20
-617.96
 21
-618.083
  0
LINE
  8
APS_GEOMETRY
 10
348.855
 11
348.855
 20
-618.083
 21
-618.254
  0
ARC
  8
APS_GEOMETRY
 10
354.149
 20
-618.254
 40
5.294
 50
180.0
 51
192.339
  0
ARC
  8
APS_GEOMETRY
 10
349.94
 20
-619.175
 40
0.986
 50
192.339
 51
221.186
  0
ARC
  8
APS_GEOMETRY
 10
349.84
 20
-619.263
 40
0.852
 50
221.186
 51
253.872
  0
ARC
  8
APS_GEOMETRY
 10
350.556
 20
-616.787
 40
3.429
 50
253.872
 51
270.0
  0
ARC
  8
APS_GEOMETRY
 10
350.556
 20
-612.246
 40
7.971
 50
270.0
 51
289.569
  0
ARC
  8
APS_GEOMETRY
 10
352.005
 20
-616.322
 40
3.644
 50
289.569
 51
318.681
  0
ARC
  8
APS_GEOMETRY
 10
351.613
 20
-615.978
 40
4.166
 50
318.681
 51
344.628
  0
ARC
  8
APS_GEOMETRY
 10
344.31
 20
-613.97
 40
11.74
 50
344.628
 51
0.0
  0
ARC
  8
APS_GEOMETRY
 10
347.782
 20
-613.97
 40
8.268
 50
0.0
 51
35.369
  0
ARC
  8
APS_GEOMETRY
 10
351.57
 20
-611.282
 40
3.623
 50
35.369
 51
90.0
  0
ARC
  8
APS_GEOMETRY
 10
351.57
 20
-611.321
 40
3.663
 50
90.0
 51
108.435
  0
ARC
  8
APS_GEOMETRY
 10
350.857
 20
-609.183
 40
1.409
 50
108.435
 51
138.366
  0
ARC
  8
APS_GEOMETRY
 10
351.048
 20
-609.353
 40
1.665
 50
138.366
 51
164.291
  0
ARC
  8
APS_GEOMETRY
 10
355.533
 20
-610.615
 40
6.324
 50
164.291
 51
177.51
  0
LINE
  8
APS_GEOMETRY
 10
407.434
 11
423.72
 20
-602.72
 21
-616.979
  0
ARC
  8
APS_GEOMETRY
 10
438.952
 20
-599.5
 40
23.185
 50
228.93
 51
232.674
  0
ARC
  8
APS_GEOMETRY
 10
430.478
 20
-610.612
 40
9.21
 50
232.674
 51
238.617
  0
ARC
  8
APS_GEOMETRY
 10
428.346
 20
-614.107
 40
5.116
 50
238.617
 51
249.131
  0
ARC
  8
APS_GEOMETRY
 10
426.99
 20
-617.665
 40
1.309
 50
249.131
 51
270.0
  0
ARC
  8
APS_GEOMETRY
 10
426.99
 20
-617.826
 40
1.148
 50
270.0
 51
334.898
  0
ARC
  8
APS_GEOMETRY
 10
421.692
 20
-615.344
 40
6.999
 50
334.898
 51
0.0
  0
ARC
  8
APS_GEOMETRY
 10
370.461
 20
-615.344
 40
58.23
 50
0.0
 51
2.026
  0
ARC
  8
APS_GEOMETRY
 10
401.348
 20
-614.251
 40
27.324
 50
2.026
 51
4.984
  0
ARC
  8
APS_GEOMETRY
 10
411.447
 20
-613.37
 40
17.186
 50
4.984
 51
9.673
  0
ARC
  8
APS_GEOMETRY
 10
423.086
 20
-611.386
 40
5.379
 50
9.673
 51
18.06
  0
ARC
  8
APS_GEOMETRY
 10
424.858
 20
-610.809
 40
3.515
 50
18.06
 51
42.397
  0
ARC
  8
APS_GEOMETRY
 10
424.286
 20
-611.331
 40
4.29
 50
42.397
 51
64.398
  0
ARC
  8
APS_GEOMETRY
 10
429.51
 20
-600.545
 40
7.695
 50
233.633
 51
244.026
  0
ARC
  8
APS_GEOMETRY
 10
426.665
 20
-604.409
 40
2.896
 50
216.656
 51
233.633
  0
ARC
  8
APS_GEOMETRY
 10
426.229
 20
-604.733
 40
2.353
 50
196.082
 51
216.656
  0
ARC
  8
APS_GEOMETRY
 10
427.653
 20
-604.323
 40
3.835
 50
180.0
 51
196.082
  0
ARC
  8
APS_GEOMETRY
 10
426.606
 20
-604.323
 40
2.788
 50
133.202
 51
180.0
  0
ARC
  8
APS_GEOMETRY
 10
428.805
 20
-606.664
 40
6.0
 50
101.788
 51
133.202
  0
ARC
  8
APS_GEOMETRY
 10
429.317
 20
-608.96
 40
8.353
 50
96.633
 51
102.011
  0
ARC
  8
APS_GEOMETRY
 10
431.176
 20
-624.949
 40
24.449
 50
93.489
 51
96.633
  0
ARC
  8
APS_GEOMETRY
 10
431.973
 20
-638.008
 40
37.532
 50
91.439
 51
93.489
  0
ARC
  8
APS_GEOMETRY
 10
432.942
 20
-676.602
 40
76.138
 50
90.0
 51
91.439
  0
ARC
  8
APS_GEOMETRY
 10
432.942
 20
-671.428
 40
70.964
 50
87.994
 51
90.0
  0
ARC
  8
APS_GEOMETRY
 10
434.232
 20
-634.587
 40
34.101
 50
85.101
 51
87.994
  0
ARC
  8
APS_GEOMETRY
 10
435.28
 20
-622.371
 40
21.84
 50
80.595
 51
85.101
  0
ARC
  8
APS_GEOMETRY
 10
437.667
 20
-607.957
 40
7.23
 50
72.759
 51
80.595
  0
ARC
  8
APS_GEOMETRY
 10
438.39
 20
-605.717
 40
4.876
 50
40.956
 51
73.072
  0
ARC
  8
APS_GEOMETRY
 10
439.771
 20
-604.519
 40
3.048
 50
360.0
 51
40.956
  0
ARC
  8
APS_GEOMETRY
 10
439.954
 20
-604.519
 40
2.865
 50
322.573
 51
360.0
  0
ARC
  8
APS_GEOMETRY
 10
438.449
 20
-603.367
 40
4.76
 50
293.749
 51
322.573
  0
ARC
  8
APS_GEOMETRY
 10
444.493
 20
-617.248
 40
10.38
 50
113.429
 51
119.291
  0
ARC
  8
APS_GEOMETRY
 10
440.454
 20
-610.048
 40
2.124
 50
119.291
 51
132.274
  0
ARC
  8
APS_GEOMETRY
 10
440.221
 20
-609.792
 40
1.778
 50
132.274
 51
147.653
  0
ARC
  8
APS_GEOMETRY
 10
441.903
 20
-610.857
 40
3.769
 50
147.653
 51
158.199
  0
ARC
  8
APS_GEOMETRY
 10
444.463
 20
-611.936
 40
6.546
 50
157.751
 51
167.885
  0
ARC
  8
APS_GEOMETRY
 10
458.083
 20
-614.859
 40
20.477
 50
167.885
 51
173.61
  0
ARC
  8
APS_GEOMETRY
 10
470.129
 20
-616.209
 40
32.599
 50
173.61
 51
177.221
  0
ARC
  8
APS_GEOMETRY
 10
507.285
 20
-618.012
 40
69.798
 50
177.221
 51
179.689
  0
LINE
  8
APS_GEOMETRY
 10
437.488
 11
437.488
 20
-617.633
 21
-628.294
  0
ARC
  8
APS_GEOMETRY
 10
872.854
 20
-628.294
 40
435.365
 50
180.0
 51
180.161
  0
ARC
  8
APS_GEOMETRY
 10
1250.673
 20
-627.23
 40
813.186
 50
180.161
 51
180.279
  0
LINE
  8
APS_GEOMETRY
 10
437.496
 11
437.507
 20
-631.197
 21
-632.985
  0
LINE
  8
APS_GEOMETRY
 10
437.507
 11
437.521
 20
-632.985
 21
-634.999
  0
ARC
  8
APS_GEOMETRY
 10
359.837
 20
-635.44
 40
77.685
 50
358.204
 51
0.326
  0
ARC
  8
APS_GEOMETRY
 10
396.791
 20
-636.599
 40
40.713
 50
355.274
 51
358.204
  0
ARC
  8
APS_GEOMETRY
 10
409.654
 20
-637.662
 40
27.806
 50
350.991
 51
355.274
  0
ARC
  8
APS_GEOMETRY
 10
426.032
 20
-640.259
 40
11.223
 50
344.249
 51
350.991
  0
ARC
  8
APS_GEOMETRY
 10
431.568
 20
-641.84
 40
5.466
 50
314.415
 51
344.445
  0
ARC
  8
APS_GEOMETRY
 10
433.596
 20
-643.909
 40
2.568
 50
270.0
 51
314.415
  0
ARC
  8
APS_GEOMETRY
 10
433.596
 20
-642.317
 40
4.16
 50
256.342
 51
270.0
  0
ARC
  8
APS_GEOMETRY
 10
433.3
 20
-643.537
 40
2.905
 50
239.982
 51
256.342
  0
ARC
  8
APS_GEOMETRY
 10
434.594
 20
-641.297
 40
5.492
 50
231.153
 51
239.982
  0
ARC
  8
APS_GEOMETRY
 10
456.343
 20
-614.292
 40
40.166
 50
227.891
 51
231.153
  0
LINE
  8
APS_GEOMETRY
 10
429.41
 11
410.017
 20
-644.09
 21
-626.725
  0
ARC
  8
APS_GEOMETRY
 10
402.546
 20
-634.996
 40
11.146
 50
47.911
 51
61.468
  0
ARC
  8
APS_GEOMETRY
 10
406.649
 20
-627.45
 40
2.557
 50
61.468
 51
90.0
  0
ARC
  8
APS_GEOMETRY
 10
406.649
 20
-626.013
 40
1.12
 50
90.0
 51
133.195
  0
ARC
  8
APS_GEOMETRY
 10
407.753
 20
-627.189
 40
2.733
 50
133.195
 51
160.454
  0
ARC
  8
APS_GEOMETRY
 10
411.297
 20
-628.448
 40
6.494
 50
160.454
 51
173.251
  0
ARC
  8
APS_GEOMETRY
 10
427.964
 20
-630.42
 40
23.278
 50
173.251
 51
180.0
  0
ARC
  8
APS_GEOMETRY
 10
473.305
 20
-630.42
 40
68.618
 50
180.0
 51
181.897
  0
ARC
  8
APS_GEOMETRY
 10
436.962
 20
-631.624
 40
32.255
 50
181.897
 51
184.664
  0
ARC
  8
APS_GEOMETRY
 10
425.05
 20
-632.595
 40
20.304
 50
184.664
 51
189.048
  0
ARC
  8
APS_GEOMETRY
 10
411.249
 20
-634.793
 40
6.329
 50
189.048
 51
196.905
  0
ARC
  8
APS_GEOMETRY
 10
409.058
 20
-635.459
 40
4.04
 50
196.905
 51
220.253
  0
ARC
  8
APS_GEOMETRY
 10
409.102
 20
-635.422
 40
4.097
 50
220.253
 51
243.435
  0
ARC
  8
APS_GEOMETRY
 10
405.105
 20
-643.483
 40
4.901
 50
37.921
 51
63.778
  0
ARC
  8
APS_GEOMETRY
 10
407.138
 20
-641.899
 40
2.324
 50
360.0
 51
37.921
  0
ARC
  8
APS_GEOMETRY
 10
406.234
 20
-641.899
 40
3.227
 50
324.268
 51
360.0
  0
ARC
  8
APS_GEOMETRY
 10
405.026
 20
-641.03
 40
4.715
 50
294.86
 51
324.268
  0
ARC
  8
APS_GEOMETRY
 10
403.029
 20
-636.72
 40
9.465
 50
278.78
 51
294.86
  0
ARC
  8
APS_GEOMETRY
 10
399.65
 20
-614.841
 40
31.604
 50
270.0
 51
278.78
  0
ARC
  8
APS_GEOMETRY
 10
399.65
 20
-620.512
 40
25.933
 50
260.383
 51
270.0
  0
ARC
  8
APS_GEOMETRY
 10
396.917
 20
-636.641
 40
9.574
 50
244.522
 51
260.383
  0
ARC
  8
APS_GEOMETRY
 10
394.938
 20
-640.795
 40
4.972
 50
216.549
 51
244.522
  0
ARC
  8
APS_GEOMETRY
 10
393.316
 20
-641.997
 40
2.954
 50
180.0
 51
216.549
  0
ARC
  8
APS_GEOMETRY
 10
394.369
 20
-641.997
 40
4.007
 50
164.65
 51
180.0
  0
ARC
  8
APS_GEOMETRY
 10
392.084
 20
-641.37
 40
1.637
 50
140.528
 51
164.65
  0
ARC
  8
APS_GEOMETRY
 10
393.009
 20
-642.131
 40
2.835
 50
126.135
 51
140.528
  0
ARC
  8
APS_GEOMETRY
 10
402.663
 20
-655.354
 40
19.207
 50
120.619
 51
126.135
  0
ARC
  8
APS_GEOMETRY
 10
391.217
 20
-636.032
 40
3.251
 50
300.784
 51
330.068
  0
ARC
  8
APS_GEOMETRY
 10
389.051
 20
-634.785
 40
5.749
 50
330.068
 51
351.983
  0
ARC
  8
APS_GEOMETRY
 10
352.689
 20
-630.045
 40
42.42
 50
352.493
 51
355.365
  0
ARC
  8
APS_GEOMETRY
 10
308.826
 20
-626.489
 40
86.427
 50
355.365
 51
357.376
  0
ARC
  8
APS_GEOMETRY
 10
278.113
 20
-625.081
 40
117.171
 50
357.376
 51
358.861
  0
ARC
  8
APS_GEOMETRY
 10
196.287
 20
-623.454
 40
199.014
 50
358.861
 51
0.0
  0
ARC
  8
APS_GEOMETRY
 10
269.876
 20
-623.454
 40
125.424
 50
360.0
 51
1.926
  0
ARC
  8
APS_GEOMETRY
 10
328.263
 20
-621.491
 40
67.005
 50
1.926
 51
4.562
  0
ARC
  8
APS_GEOMETRY
 10
348.85
 20
-619.848
 40
46.352
 50
4.562
 51
8.366
  0
ARC
  8
APS_GEOMETRY
 10
375.626
 20
-615.91
 40
19.288
 50
8.366
 51
14.265
  0
ARC
  8
APS_GEOMETRY
 10
385.751
 20
-613.35
 40
8.844
 50
14.349
 51
23.629
  0
ARC
  8
APS_GEOMETRY
 10
390.886
 20
-611.103
 40
3.24
 50
23.629
 51
38.991
  0
ARC
  8
APS_GEOMETRY
 10
390.905
 20
-611.088
 40
3.215
 50
38.991
 51
54.462
  0
ARC
  8
APS_GEOMETRY
 10
387.901
 20
-615.294
 40
8.384
 50
54.462
 51
64.026
  0
ARC
  8
APS_GEOMETRY
 10
396.378
 20
-597.926
 40
10.942
 50
235.472
 51
243.947
  0
ARC
  8
APS_GEOMETRY
 10
391.999
 20
-604.291
 40
3.216
 50
219.806
 51
235.472
  0
ARC
  8
APS_GEOMETRY
 10
391.336
 20
-604.844
 40
2.353
 50
198.939
 51
219.806
  0
ARC
  8
APS_GEOMETRY
 10
391.807
 20
-604.682
 40
2.851
 50
180.0
 51
198.939
  0
ARC
  8
APS_GEOMETRY
 10
391.668
 20
-604.682
 40
2.712
 50
126.254
 51
180.0
  0
ARC
  8
APS_GEOMETRY
 10
395.807
 20
-610.327
 40
9.711
 50
98.616
 51
126.254
  0
ARC
  8
APS_GEOMETRY
 10
396.39
 20
-614.99
 40
14.41
 50
94.456
 51
98.13
  0
ARC
  8
APS_GEOMETRY
 10
398.638
 20
-643.842
 40
43.349
 50
92.337
 51
94.456
  0
ARC
  8
APS_GEOMETRY
 10
399.597
 20
-667.321
 40
66.847
 50
90.963
 51
92.337
  0
ARC
  8
APS_GEOMETRY
 10
400.762
 20
-736.67
 40
136.206
 50
90.0
 51
90.963
  0
ARC
  8
APS_GEOMETRY
 10
400.762
 20
-625.285
 40
24.822
 50
83.928
 51
90.0
  0
ARC
  8
APS_GEOMETRY
 10
402.798
 20
-606.148
 40
5.577
 50
71.095
 51
83.928
  0
ARC
  8
APS_GEOMETRY
 10
402.984
 20
-605.605
 40
5.003
 50
56.848
 51
71.095
  0
ARC
  8
APS_GEOMETRY
 10
397.481
 20
-614.029
 40
15.065
 50
48.652
 51
56.848
  0
ARC
  8
APS_GEOMETRY
 10
466.241
 20
-641.071
 40
40.608
 50
84.71
 51
90.0
  0
ARC
  8
APS_GEOMETRY
 10
466.985
 20
-633.031
 40
32.533
 50
78.799
 51
84.71
  0
ARC
  8
APS_GEOMETRY
 10
471.802
 20
-608.688
 40
7.718
 50
49.783
 51
78.771
  0
ARC
  8
APS_GEOMETRY
 10
475.023
 20
-604.879
 40
2.729
 50
360.0
 51
49.783
  0
ARC
  8
APS_GEOMETRY
 10
474.733
 20
-604.879
 40
3.02
 50
342.759
 51
360.0
  0
ARC
  8
APS_GEOMETRY
 10
476.308
 20
-605.368
 40
1.37
 50
317.045
 51
342.759
  0
ARC
  8
APS_GEOMETRY
 10
475.548
 20
-604.659
 40
2.41
 50
301.817
 51
317.045
  0
ARC
  8
APS_GEOMETRY
 10
464.291
 20
-586.517
 40
23.76
 50
296.98
 51
301.817
  0
ARC
  8
APS_GEOMETRY
 10
476.293
 20
-610.135
 40
2.733
 50
116.565
 51
149.078
  0
ARC
  8
APS_GEOMETRY
 10
479.812
 20
-612.243
 40
6.835
 50
149.078
 51
169.469
  0
ARC
  8
APS_GEOMETRY
 10
487.316
 20
-613.638
 40
14.468
 50
169.469
 51
174.598
  0
ARC
  8
APS_GEOMETRY
 10
525.981
 20
-617.295
 40
53.304
 50
174.598
 51
177.269
  0
ARC
  8
APS_GEOMETRY
 10
559.978
 20
-618.916
 40
87.341
 50
177.269
 51
178.901
  0
ARC
  8
APS_GEOMETRY
 10
665.285
 20
-620.936
 40
192.667
 50
178.901
 51
180.0
  0
ARC
  8
APS_GEOMETRY
 10
879.275
 20
-620.936
 40
406.657
 50
180.0
 51
180.88
  0
ARC
  8
APS_GEOMETRY
 10
628.755
 20
-624.784
 40
156.107
 50
180.88
 51
182.3
  0
ARC
  8
APS_GEOMETRY
 10
555.529
 20
-627.725
 40
82.823
 50
182.3
 51
184.974
  0
ARC
  8
APS_GEOMETRY
 10
485.709
 20
-633.801
 40
12.738
 50
184.974
 51
191.793
  0
ARC
  8
APS_GEOMETRY
 10
477.598
 20
-635.353
 40
4.484
 50
193.57
 51
205.787
  0
ARC
  8
APS_GEOMETRY
 10
475.581
 20
-636.327
 40
2.244
 50
205.787
 51
223.091
  0
ARC
  8
APS_GEOMETRY
 10
476.093
 20
-635.849
 40
2.944
 50
223.091
 51
236.441
  0
ARC
  8
APS_GEOMETRY
 10
480.376
 20
-629.392
 40
10.693
 50
236.441
 51
243.435
  0
ARC
  8
APS_GEOMETRY
 10
473.819
 20
-642.862
 40
4.291
 50
37.185
 51
65.556
  0
ARC
  8
APS_GEOMETRY
 10
475.218
 20
-641.801
 40
2.535
 50
360.0
 51
37.185
  0
ARC
  8
APS_GEOMETRY
 10
475.141
 20
-641.801
 40
2.612
 50
312.039
 51
360.0
  0
ARC
  8
APS_GEOMETRY
 10
472.03
 20
-638.351
 40
7.258
 50
283.815
 51
312.039
  0
ARC
  8
APS_GEOMETRY
 10
466.889
 20
-617.045
 40
29.174
 50
279.273
 51
283.627
  0
ARC
  8
APS_GEOMETRY
 10
464.835
 20
-604.46
 40
41.926
 50
275.641
 51
279.273
  0
ARC
  8
APS_GEOMETRY
 10
464.049
 20
-596.506
 40
49.919
 50
272.588
 51
275.641
  0
ARC
  8
APS_GEOMETRY
 10
463.167
 20
-576.989
 40
69.456
 50
270.0
 51
272.588
  0
ARC
  8
APS_GEOMETRY
 10
463.167
 20
-604.551
 40
41.894
 50
262.774
 51
270.0
  0
ARC
  8
APS_GEOMETRY
 10
459.39
 20
-634.338
 40
11.868
 50
249.175
 51
262.774
  0
ARC
  8
APS_GEOMETRY
 10
457.017
 20
-640.576
 40
5.194
 50
221.23
 51
249.175
  0
ARC
  8
APS_GEOMETRY
 10
454.948
 20
-642.39
 40
2.443
 50
180.0
 51
221.23
  0
ARC
  8
APS_GEOMETRY
 10
454.547
 20
-642.39
 40
2.041
 50
142.696
 51
180.0
  0
ARC
  8
APS_GEOMETRY
 10
457.768
 20
-644.844
 40
6.091
 50
121.357
 51
142.696
  0
ARC
  8
APS_GEOMETRY
 10
452.325
 20
-635.929
 40
4.354
 50
301.477
 51
324.728
  0
ARC
  8
APS_GEOMETRY
 10
452.905
 20
-636.339
 40
3.643
 50
324.728
 51
350.181
  0
ARC
  8
APS_GEOMETRY
 10
434.665
 20
-633.322
 40
22.132
 50
350.538
 51
355.423
  0
ARC
  8
APS_GEOMETRY
 10
359.712
 20
-627.322
 40
97.324
 50
355.423
 51
357.752
  0
ARC
  8
APS_GEOMETRY
 10
290.119
 20
-624.59
 40
166.971
 50
357.752
 51
359.111
  0
ARC
  8
APS_GEOMETRY
 10
67.372
 20
-621.132
 40
389.744
 50
359.111
 51
0.0
  0
ARC
  8
APS_GEOMETRY
 10
321.893
 20
-621.132
 40
135.223
 50
0.0
 51
1.773
  0
ARC
  8
APS_GEOMETRY
 10
401.253
 20
-618.676
 40
55.825
 50
1.773
 51
4.532
  0
ARC
  8
APS_GEOMETRY
 10
425.374
 20
-616.764
 40
31.629
 50
4.532
 51
9.384
  0
ARC
  8
APS_GEOMETRY
 10
449.868
 20
-612.716
 40
6.803
 50
9.384
 51
19.855
  0
ARC
  8
APS_GEOMETRY
 10
453.109
 20
-611.484
 40
3.336
 50
18.853
 51
42.158
  0
ARC
  8
APS_GEOMETRY
 10
450.331
 20
-613.999
 40
7.084
 50
42.158
 51
58.092
  0
ARC
  8
APS_GEOMETRY
 10
462.56
 20
-595.102
 40
15.426
 50
230.711
 51
236.634
  0
ARC
  8
APS_GEOMETRY
 10
454.878
 20
-604.49
 40
3.296
 50
217.875
 51
230.711
  0
ARC
  8
APS_GEOMETRY
 10
453.825
 20
-605.31
 40
1.962
 50
196.928
 51
217.875
  0
ARC
  8
APS_GEOMETRY
 10
454.811
 20
-605.009
 40
2.992
 50
180.0
 51
196.928
  0
ARC
  8
APS_GEOMETRY
 10
454.166
 20
-605.009
 40
2.347
 50
148.791
 51
180.0
  0
ARC
  8
APS_GEOMETRY
 10
454.782
 20
-605.382
 40
3.067
 50
121.569
 51
148.791
  0
ARC
  8
APS_GEOMETRY
 10
455.887
 20
-607.181
 40
5.178
 50
112.806
 51
121.569
  0
ARC
  8
APS_GEOMETRY
 10
458.874
 20
-614.286
 40
12.885
 50
107.254
 51
112.806
  0
ARC
  8
APS_GEOMETRY
 10
460.704
 20
-620.177
 40
19.054
 50
103.487
 51
107.254
  0
ARC
  8
APS_GEOMETRY
 10
464.894
 20
-637.649
 40
37.022
 50
100.784
 51
103.487
  0
ARC
  8
APS_GEOMETRY
 10
466.207
 20
-642.48
 40
42.015
 50
95.643
 51
101.31
  0
ARC
  8
APS_GEOMETRY
 10
466.241
 20
-642.826
 40
42.362
 50
90.0
 51
95.643
  0
ARC
  8
APS_GEOMETRY
 10
506.911
 20
-621.499
 40
21.264
 50
77.257
 51
90.0
  0
ARC
  8
APS_GEOMETRY
 10
506.695
 20
-622.454
 40
22.243
 50
64.799
 51
77.257
  0
ARC
  8
APS_GEOMETRY
 10
525.013
 20
-583.455
 40
20.843
 50
244.885
 51
251.175
  0
ARC
  8
APS_GEOMETRY
 10
519.044
 20
-600.963
 40
2.346
 50
251.175
 51
270.0
  0
ARC
  8
APS_GEOMETRY
 10
519.044
 20
-599.502
 40
3.806
 50
270.0
 51
278.82
  0
ARC
  8
APS_GEOMETRY
 10
516.585
 20
-583.655
 40
19.844
 50
278.82
 51
282.68
  0
ARC
  8
APS_GEOMETRY
 10
521.73
 20
-606.436
 40
3.511
 50
95.906
 51
102.995
  0
ARC
  8
APS_GEOMETRY
 10
521.889
 20
-607.972
 40
5.055
 50
90.0
 51
95.906
  0
ARC
  8
APS_GEOMETRY
 10
521.889
 20
-606.272
 40
3.356
 50
62.447
 51
90.0
  0
ARC
  8
APS_GEOMETRY
 10
521.293
 20
-607.416
 40
4.645
 50
39.094
 51
62.447
  0
ARC
  8
APS_GEOMETRY
 10
515.058
 20
-612.629
 40
12.772
 50
18.435
 51
39.611
  0
ARC
  8
APS_GEOMETRY
 10
511.232
 20
-613.905
 40
16.806
 50
360.0
 51
18.435
  0
ARC
  8
APS_GEOMETRY
 10
519.704
 20
-613.905
 40
8.333
 50
334.877
 51
360.0
  0
ARC
  8
APS_GEOMETRY
 10
522.211
 20
-615.08
 40
5.565
 50
304.007
 51
334.877
  0
ARC
  8
APS_GEOMETRY
 10
522.169
 20
-614.963
 40
5.686
 50
286.39
 51
303.69
  0
ARC
  8
APS_GEOMETRY
 10
521.987
 20
-614.344
 40
6.33
 50
270.0
 51
286.39
  0
ARC
  8
APS_GEOMETRY
 10
521.987
 20
-614.418
 40
6.257
 50
255.155
 51
270.0
  0
ARC
  8
APS_GEOMETRY
 10
521.302
 20
-617.004
 40
3.581
 50
235.491
 51
255.155
  0
ARC
  8
APS_GEOMETRY
 10
521.646
 20
-616.503
 40
4.189
 50
218.48
 51
235.491
  0
ARC
  8
APS_GEOMETRY
 10
527.267
 20
-612.035
 40
11.369
 50
208.179
 51
218.48
  0
ARC
  8
APS_GEOMETRY
 10
469.642
 20
-643.315
 40
54.198
 50
28.56
 51
31.664
  0
ARC
  8
APS_GEOMETRY
 10
504.855
 20
-621.598
 40
12.827
 50
31.664
 51
38.047
  0
ARC
  8
APS_GEOMETRY
 10
507.415
 20
-619.594
 40
9.576
 50
38.047
 51
46.56
  0
ARC
  8
APS_GEOMETRY
 10
506.084
 20
-620.999
 40
11.512
 50
46.56
 51
54.324
  0
ARC
  8
APS_GEOMETRY
 10
505.316
 20
-622.321
 40
13.034
 50
54.968
 51
71.48
  0
ARC
  8
APS_GEOMETRY
 10
506.159
 20
-619.804
 40
10.38
 50
71.48
 51
90.0
  0
ARC
  8
APS_GEOMETRY
 10
506.159
 20
-616.675
 40
7.251
 50
90.0
 51
114.63
  0
ARC
  8
APS_GEOMETRY
 10
505.795
 20
-615.881
 40
6.377
 50
114.63
 51
140.921
  0
ARC
  8
APS_GEOMETRY
 10
506.871
 20
-616.754
 40
7.763
 50
140.921
 51
163.13
  0
ARC
  8
APS_GEOMETRY
 10
512.248
 20
-618.385
 40
13.382
 50
163.13
 51
180.0
  0
ARC
  8
APS_GEOMETRY
 10
519.221
 20
-618.385
 40
20.355
 50
180.0
 51
195.44
  0
ARC
  8
APS_GEOMETRY
 10
518.163
 20
-618.677
 40
19.258
 50
195.44
 51
211.316
  0
ARC
  8
APS_GEOMETRY
 10
513.074
 20
-621.667
 40
13.357
 50
211.708
 51
240.457
  0
ARC
  8
APS_GEOMETRY
 10
512.732
 20
-622.27
 40
12.663
 50
240.457
 51
270.0
  0
ARC
  8
APS_GEOMETRY
 10
512.732
 20
-619.182
 40
15.751
 50
270.0
 51
279.549
  0
ARC
  8
APS_GEOMETRY
 10
512.536
 20
-618.018
 40
16.931
 50
279.549
 51
288.759
  0
ARC
  8
APS_GEOMETRY
 10
513.362
 20
-620.449
 40
14.364
 50
288.759
 51
299.545
  0
ARC
  8
APS_GEOMETRY
 10
516.672
 20
-626.288
 40
7.652
 50
299.545
 51
314.341
  0
ARC
  8
APS_GEOMETRY
 10
526.907
 20
-636.919
 40
7.105
 50
120.141
 51
133.452
  0
ARC
  8
APS_GEOMETRY
 10
524.048
 20
-631.995
 40
1.412
 50
90.0
 51
120.141
  0
ARC
  8
APS_GEOMETRY
 10
524.048
 20
-632.813
 40
2.23
 50
61.952
 51
90.0
  0
ARC
  8
APS_GEOMETRY
 10
523.716
 20
-633.436
 40
2.936
 50
37.569
 51
61.952
  0
ARC
  8
APS_GEOMETRY
 10
523.096
 20
-633.913
 40
3.717
 50
17.665
 51
37.569
  0
ARC
  8
APS_GEOMETRY
 10
522.152
 20
-634.214
 40
4.709
 50
360.0
 51
17.665
  0
ARC
  8
APS_GEOMETRY
 10
519.78
 20
-634.214
 40
7.081
 50
344.932
 51
360.0
  0
ARC
  8
APS_GEOMETRY
 10
513.482
 20
-632.518
 40
13.603
 50
334.075
 51
344.932
  0
ARC
  8
APS_GEOMETRY
 10
513.284
 20
-632.422
 40
13.823
 50
323.374
 51
334.075
  0
ARC
  8
APS_GEOMETRY
 10
517.347
 20
-635.443
 40
8.76
 50
309.92
 51
323.374
  0
ARC
  8
APS_GEOMETRY
 10
521.408
 20
-640.233
 40
2.48
 50
289.026
 51
308.991
  0
ARC
  8
APS_GEOMETRY
 10
517.075
 20
-627.668
 40
15.771
 50
281.143
 51
289.026
  0
ARC
  8
APS_GEOMETRY
 10
521.469
 20
-650.449
 40
7.431
 50
100.437
 51
110.12
  0
ARC
  8
APS_GEOMETRY
 10
527.291
 20
-666.339
 40
24.353
 50
110.12
 51
115.463
  0
ARC
  8
APS_GEOMETRY
 10
506.509
 20
-622.859
 40
23.838
 50
282.94
 51
295.628
  0
ARC
  8
APS_GEOMETRY
 10
506.715
 20
-623.753
 40
22.921
 50
270.0
 51
282.94
  0
ARC
  8
APS_GEOMETRY
 10
506.715
 20
-622.399
 40
24.275
 50
257.307
 51
270.0
  0
ARC
  8
APS_GEOMETRY
 10
507.74
 20
-617.849
 40
28.939
 50
245.686
 51
257.307
  0
ARC
  8
APS_GEOMETRY
 10
505.169
 20
-623.491
 40
22.739
 50
228.801
 51
245.735
  0
ARC
  8
APS_GEOMETRY
 10
505.212
 20
-623.441
 40
22.805
 50
211.891
 51
228.801
  0
ARC
  8
APS_GEOMETRY
 10
506.56
 20
-622.471
 40
24.462
 50
196.728
 51
212.152
  0
ARC
  8
APS_GEOMETRY
 10
503.072
 20
-623.52
 40
20.82
 50
180.0
 51
196.728
  0
ARC
  8
APS_GEOMETRY
 10
503.58
 20
-623.52
 40
21.327
 50
161.184
 51
180.0
  0
ARC
  8
APS_GEOMETRY
 10
504.948
 20
-623.986
 40
22.773
 50
142.98
 51
161.184
  0
ARC
  8
APS_GEOMETRY
 10
506.012
 20
-624.8
 40
24.112
 50
127.824
 51
142.958
  0
ARC
  8
APS_GEOMETRY
 10
507.766
 20
-627.059
 40
26.973
 50
113.52
 51
127.824
  0
ARC
  8
APS_GEOMETRY
 10
507.195
 20
-625.74
 40
25.535
 50
101.927
 51
113.527
  0
ARC
  8
APS_GEOMETRY
 10
506.911
 20
-624.396
 40
24.161
 50
90.0
 51
101.927
  0
ARC
  8
APS_GEOMETRY
 10
551.46
 20
-641.071
 40
40.608
 50
84.71
 51
90.0
  0
ARC
  8
APS_GEOMETRY
 10
552.204
 20
-633.031
 40
32.533
 50
78.799
 51
84.71
  0
ARC
  8
APS_GEOMETRY
 10
557.021
 20
-608.688
 40
7.718
 50
49.783
 51
78.771
  0
ARC
  8
APS_GEOMETRY
 10
560.242
 20
-604.879
 40
2.729
 50
360.0
 51
49.783
  0
ARC
  8
APS_GEOMETRY
 10
559.952
 20
-604.879
 40
3.02
 50
342.759
 51
360.0
  0
ARC
  8
APS_GEOMETRY
 10
561.527
 20
-605.368
 40
1.37
 50
317.045
 51
342.759
  0
ARC
  8
APS_GEOMETRY
 10
560.766
 20
-604.659
 40
2.41
 50
301.817
 51
317.045
  0
ARC
  8
APS_GEOMETRY
 10
549.51
 20
-586.517
 40
23.76
 50
296.98
 51
301.817
  0
ARC
  8
APS_GEOMETRY
 10
561.512
 20
-610.135
 40
2.733
 50
116.565
 51
149.078
  0
ARC
  8
APS_GEOMETRY
 10
565.031
 20
-612.243
 40
6.835
 50
149.078
 51
169.469
  0
ARC
  8
APS_GEOMETRY
 10
572.535
 20
-613.638
 40
14.468
 50
169.469
 51
174.598
  0
ARC
  8
APS_GEOMETRY
 10
611.199
 20
-617.295
 40
53.304
 50
174.598
 51
177.269
  0
ARC
  8
APS_GEOMETRY
 10
645.197
 20
-618.916
 40
87.341
 50
177.269
 51
178.901
  0
ARC
  8
APS_GEOMETRY
 10
750.504
 20
-620.936
 40
192.667
 50
178.901
 51
180.0
  0
ARC
  8
APS_GEOMETRY
 10
964.494
 20
-620.936
 40
406.657
 50
180.0
 51
180.88
  0
ARC
  8
APS_GEOMETRY
 10
713.974
 20
-624.784
 40
156.107
 50
180.88
 51
182.3
  0
ARC
  8
APS_GEOMETRY
 10
640.748
 20
-627.725
 40
82.823
 50
182.3
 51
184.974
  0
ARC
  8
APS_GEOMETRY
 10
570.927
 20
-633.801
 40
12.738
 50
184.974
 51
191.793
  0
ARC
  8
APS_GEOMETRY
 10
562.817
 20
-635.353
 40
4.484
 50
193.57
 51
205.787
  0
ARC
  8
APS_GEOMETRY
 10
560.8
 20
-636.327
 40
2.244
 50
205.787
 51
223.091
  0
ARC
  8
APS_GEOMETRY
 10
561.312
 20
-635.849
 40
2.944
 50
223.091
 51
236.441
  0
ARC
  8
APS_GEOMETRY
 10
565.595
 20
-629.392
 40
10.693
 50
236.441
 51
243.435
  0
ARC
  8
APS_GEOMETRY
 10
559.037
 20
-642.862
 40
4.291
 50
37.185
 51
65.556
  0
ARC
  8
APS_GEOMETRY
 10
560.436
 20
-641.801
 40
2.535
 50
360.0
 51
37.185
  0
ARC
  8
APS_GEOMETRY
 10
560.359
 20
-641.801
 40
2.612
 50
312.039
 51
360.0
  0
ARC
  8
APS_GEOMETRY
 10
557.249
 20
-638.351
 40
7.258
 50
283.815
 51
312.039
  0
ARC
  8
APS_GEOMETRY
 10
552.108
 20
-617.045
 40
29.174
 50
279.273
 51
283.627
  0
ARC
  8
APS_GEOMETRY
 10
550.053
 20
-604.46
 40
41.926
 50
275.641
 51
279.273
  0
ARC
  8
APS_GEOMETRY
 10
549.268
 20
-596.506
 40
49.919
 50
272.588
 51
275.641
  0
ARC
  8
APS_GEOMETRY
 10
548.386
 20
-576.989
 40
69.456
 50
270.0
 51
272.588
  0
ARC
  8
APS_GEOMETRY
 10
548.386
 20
-604.551
 40
41.894
 50
262.774
 51
270.0
  0
ARC
  8
APS_GEOMETRY
 10
544.609
 20
-634.338
 40
11.868
 50
249.175
 51
262.774
  0
ARC
  8
APS_GEOMETRY
 10
542.236
 20
-640.576
 40
5.194
 50
221.23
 51
249.175
  0
ARC
  8
APS_GEOMETRY
 10
540.167
 20
-642.39
 40
2.443
 50
180.0
 51
221.23
  0
ARC
  8
APS_GEOMETRY
 10
539.766
 20
-642.39
 40
2.041
 50
142.696
 51
180.0
  0
ARC
  8
APS_GEOMETRY
 10
542.987
 20
-644.844
 40
6.091
 50
121.357
 51
142.696
  0
ARC
  8
APS_GEOMETRY
 10
537.544
 20
-635.929
 40
4.354
 50
301.477
 51
324.728
  0
ARC
  8
APS_GEOMETRY
 10
538.124
 20
-636.339
 40
3.643
 50
324.728
 51
350.181
  0
ARC
  8
APS_GEOMETRY
 10
519.883
 20
-633.322
 40
22.132
 50
350.538
 51
355.423
  0
ARC
  8
APS_GEOMETRY
 10
444.931
 20
-627.322
 40
97.324
 50
355.423
 51
357.752
  0
ARC
  8
APS_GEOMETRY
 10
375.338
 20
-624.59
 40
166.971
 50
357.752
 51
359.111
  0
ARC
  8
APS_GEOMETRY
 10
152.591
 20
-621.132
 40
389.744
 50
359.111
 51
0.0
  0
ARC
  8
APS_GEOMETRY
 10
407.112
 20
-621.132
 40
135.223
 50
0.0
 51
1.773
  0
ARC
  8
APS_GEOMETRY
 10
486.472
 20
-618.676
 40
55.825
 50
1.773
 51
4.532
  0
ARC
  8
APS_GEOMETRY
 10
510.593
 20
-616.764
 40
31.629
 50
4.532
 51
9.384
  0
ARC
  8
APS_GEOMETRY
 10
535.086
 20
-612.716
 40
6.803
 50
9.384
 51
19.855
  0
ARC
  8
APS_GEOMETRY
 10
538.328
 20
-611.484
 40
3.336
 50
18.853
 51
42.158
  0
ARC
  8
APS_GEOMETRY
 10
535.55
 20
-613.999
 40
7.084
 50
42.158
 51
58.092
  0
ARC
  8
APS_GEOMETRY
 10
547.778
 20
-595.102
 40
15.426
 50
230.711
 51
236.634
  0
ARC
  8
APS_GEOMETRY
 10
540.097
 20
-604.49
 40
3.296
 50
217.875
 51
230.711
  0
ARC
  8
APS_GEOMETRY
 10
539.044
 20
-605.31
 40
1.962
 50
196.928
 51
217.875
  0
ARC
  8
APS_GEOMETRY
 10
540.03
 20
-605.009
 40
2.992
 50
180.0
 51
196.928
  0
ARC
  8
APS_GEOMETRY
 10
539.385
 20
-605.009
 40
2.347
 50
148.791
 51
180.0
  0
ARC
  8
APS_GEOMETRY
 10
540.0
 20
-605.382
 40
3.067
 50
121.569
 51
148.791
  0
ARC
  8
APS_GEOMETRY
 10
541.106
 20
-607.181
 40
5.178
 50
112.806
 51
121.569
  0
ARC
  8
APS_GEOMETRY
 10
544.093
 20
-614.286
 40
12.885
 50
107.254
 51
112.806
  0
ARC
  8
APS_GEOMETRY
 10
545.923
 20
-620.177
 40
19.054
 50
103.487
 51
107.254
  0
ARC
  8
APS_GEOMETRY
 10
550.113
 20
-637.649
 40
37.022
 50
100.784
 51
103.487
  0
ARC
  8
APS_GEOMETRY
 10
551.426
 20
-642.48
 40
42.015
 50
95.643
 51
101.31
  0
ARC
  8
APS_GEOMETRY
 10
551.46
 20
-642.826
 40
42.362
 50
90.0
 51
95.643
  0
LINE
  8
APS_GEOMETRY
 10
620.608
 11
620.608
 20
-630.387
 21
-613.185
  0
ARC
  8
APS_GEOMETRY
 10
580.887
 20
-613.185
 40
39.721
 50
0.0
 51
2.404
  0
ARC
  8
APS_GEOMETRY
 10
604.404
 20
-612.198
 40
16.183
 50
2.404
 51
6.17
  0
ARC
  8
APS_GEOMETRY
 10
611.453
 20
-611.436
 40
9.093
 50
6.17
 51
12.824
  0
ARC
  8
APS_GEOMETRY
 10
618.352
 20
-609.865
 40
2.017
 50
12.824
 51
26.98
  0
ARC
  8
APS_GEOMETRY
 10
618.675
 20
-609.701
 40
1.655
 50
26.98
 51
59.65
  0
ARC
  8
APS_GEOMETRY
 10
615.637
 20
-614.89
 40
7.668
 50
59.65
 51
74.667
  0
ARC
  8
APS_GEOMETRY
 10
619.139
 20
-602.391
 40
5.313
 50
225.0
 51
253.887
  0
ARC
  8
APS_GEOMETRY
 10
616.978
 20
-604.552
 40
2.257
 50
180.0
 51
225.0
  0
ARC
  8
APS_GEOMETRY
 10
617.393
 20
-604.552
 40
2.672
 50
151.157
 51
180.0
  0
ARC
  8
APS_GEOMETRY
 10
617.387
 20
-604.548
 40
2.665
 50
122.276
 51
151.157
  0
ARC
  8
APS_GEOMETRY
 10
618.151
 20
-605.758
 40
4.096
 50
102.308
 51
122.276
  0
ARC
  8
APS_GEOMETRY
 10
619.562
 20
-612.222
 40
10.712
 50
90.0
 51
102.308
  0
ARC
  8
APS_GEOMETRY
 10
619.562
 20
-624.676
 40
23.166
 50
88.989
 51
90.0
  0
ARC
  8
APS_GEOMETRY
 10
617.614
 20
-735.021
 40
133.528
 50
88.568
 51
88.989
  0
ARC
  8
APS_GEOMETRY
 10
614.864
 20
-845.026
 40
243.567
 50
88.337
 51
88.568
  0
ARC
  8
APS_GEOMETRY
 10
604.206
 20
-1212.142
 40
610.838
 50
88.191
 51
88.337
  0
LINE
  8
APS_GEOMETRY
 10
623.486
 11
625.415
 20
-601.608
 21
-601.608
  0
ARC
  8
APS_GEOMETRY
 10
618.934
 20
474.341
 40
1075.969
 50
270.345
 51
270.49
  0
ARC
  8
APS_GEOMETRY
 10
624.973
 20
-232.27
 40
369.332
 50
270.49
 51
270.736
  0
ARC
  8
APS_GEOMETRY
 10
627.452
 20
-425.141
 40
176.445
 50
270.736
 51
271.253
  0
ARC
  8
APS_GEOMETRY
 10
630.978
 20
-586.358
 40
15.19
 50
271.253
 51
273.013
  0
ARC
  8
APS_GEOMETRY
 10
630.831
 20
-583.57
 40
17.982
 50
273.013
 51
274.5
  0
ARC
  8
APS_GEOMETRY
 10
614.175
 20
-371.916
 40
230.289
 50
274.5
 51
274.915
  0
LINE
  8
APS_GEOMETRY
 10
633.906
 11
635.869
 20
-601.359
 21
-601.186
  0
LINE
  8
APS_GEOMETRY
 10
635.869
 11
638.431
 20
-601.186
 21
-600.954
  0
ARC
  8
APS_GEOMETRY
 10
642.644
 20
-641.678
 40
40.941
 50
93.24
 51
95.906
  0
ARC
  8
APS_GEOMETRY
 10
641.898
 20
-628.494
 40
27.736
 50
90.0
 51
93.24
  0
ARC
  8
APS_GEOMETRY
 10
641.898
 20
-624.311
 40
23.553
 50
77.12
 51
90.0
  0
ARC
  8
APS_GEOMETRY
 10
643.139
 20
-618.885
 40
17.987
 50
62.371
 51
77.12
  0
ARC
  8
APS_GEOMETRY
 10
645.24
 20
-614.946
 40
13.522
 50
31.215
 51
62.517
  0
ARC
  8
APS_GEOMETRY
 10
645.176
 20
-614.984
 40
13.597
 50
360.0
 51
31.215
  0
ARC
  8
APS_GEOMETRY
 10
644.811
 20
-614.984
 40
13.962
 50
334.496
 51
360.0
  0
ARC
  8
APS_GEOMETRY
 10
645.498
 20
-615.312
 40
13.201
 50
308.254
 51
334.496
  0
ARC
  8
APS_GEOMETRY
 10
643.398
 20
-612.545
 40
16.674
 50
287.855
 51
308.034
  0
ARC
  8
APS_GEOMETRY
 10
641.996
 20
-608.192
 40
21.247
 50
270.0
 51
287.855
  0
ARC
  8
APS_GEOMETRY
 10
641.996
 20
-597.242
 40
32.197
 50
266.918
 51
270.0
  0
ARC
  8
APS_GEOMETRY
 10
643.951
 20
-560.945
 40
68.546
 50
264.806
 51
266.918
  0
ARC
  8
APS_GEOMETRY
 10
630.878
 20
-723.054
 40
94.095
 50
85.815
 51
86.634
  0
ARC
  8
APS_GEOMETRY
 10
636.077
 20
-634.675
 40
5.563
 50
86.634
 51
90.0
  0
ARC
  8
APS_GEOMETRY
 10
636.077
 20
-629.933
 40
0.821
 50
90.0
 51
139.686
  0
ARC
  8
APS_GEOMETRY
 10
636.381
 20
-630.191
 40
1.22
 50
139.686
 51
180.0
  0
LINE
  8
APS_GEOMETRY
 10
635.161
 11
635.161
 20
-630.191
 21
-630.387
  0
LINE
  8
APS_GEOMETRY
 10
635.161
 11
635.39
 20
-630.387
 21
-635.751
  0
ARC
  8
APS_GEOMETRY
 10
643.14
 20
-635.428
 40
7.757
 50
182.386
 51
193.753
  0
ARC
  8
APS_GEOMETRY
 10
638.142
 20
-636.651
 40
2.612
 50
193.753
 51
213.408
  0
ARC
  8
APS_GEOMETRY
 10
638.199
 20
-636.614
 40
2.679
 50
213.408
 51
232.628
  0
ARC
  8
APS_GEOMETRY
 10
642.709
 20
-630.709
 40
10.11
 50
232.628
 51
242.488
  0
ARC
  8
APS_GEOMETRY
 10
635.186
 20
-644.973
 40
6.017
 50
40.539
 51
61.699
  0
ARC
  8
APS_GEOMETRY
 10
638.475
 20
-642.161
 40
1.69
 50
360.0
 51
40.539
  0
ARC
  8
APS_GEOMETRY
 10
637.895
 20
-642.161
 40
2.269
 50
315.297
 51
360.0
  0
ARC
  8
APS_GEOMETRY
 10
634.826
 20
-639.123
 40
6.588
 50
289.502
 51
315.297
  0
ARC
  8
APS_GEOMETRY
 10
632.576
 20
-632.771
 40
13.326
 50
282.372
 51
289.502
  0
ARC
  8
APS_GEOMETRY
 10
630.214
 20
-622.001
 40
24.353
 50
277.099
 51
282.372
  0
ARC
  8
APS_GEOMETRY
 10
629.242
 20
-614.201
 40
32.213
 50
273.104
 51
277.099
  0
ARC
  8
APS_GEOMETRY
 10
628.097
 20
-593.083
 40
53.362
 50
270.0
 51
273.104
  0
ARC
  8
APS_GEOMETRY
 10
628.097
 20
-593.722
 40
52.723
 50
263.473
 51
270.0
  0
ARC
  8
APS_GEOMETRY
 10
623.765
 20
-631.589
 40
14.609
 50
251.056
 51
263.473
  0
ARC
  8
APS_GEOMETRY
 10
620.983
 20
-639.694
 40
6.039
 50
224.161
 51
251.056
  0
ARC
  8
APS_GEOMETRY
 10
618.308
 20
-642.291
 40
2.311
 50
180.0
 51
224.161
  0
ARC
  8
APS_GEOMETRY
 10
618.788
 20
-642.291
 40
2.791
 50
160.821
 51
180.0
  0
ARC
  8
APS_GEOMETRY
 10
617.617
 20
-641.884
 40
1.552
 50
135.0
 51
160.821
  0
ARC
  8
APS_GEOMETRY
 10
618.724
 20
-642.991
 40
3.117
 50
121.522
 51
135.0
  0
ARC
  8
APS_GEOMETRY
 10
631.209
 20
-663.347
 40
26.996
 50
116.952
 51
121.522
  0
ARC
  8
APS_GEOMETRY
 10
617.576
 20
-636.636
 40
2.993
 50
297.824
 51
321.605
  0
ARC
  8
APS_GEOMETRY
 10
618.265
 20
-637.182
 40
2.113
 50
321.605
 51
349.992
  0
ARC
  8
APS_GEOMETRY
 10
615.066
 20
-636.618
 40
5.362
 50
349.992
 51
356.014
  0
ARC
  8
APS_GEOMETRY
 10
566.403
 20
-633.226
 40
54.143
 50
356.014
 51
357.908
  0
ARC
  8
APS_GEOMETRY
 10
509.599
 20
-631.151
 40
110.985
 50
357.908
 51
358.833
  0
ARC
  8
APS_GEOMETRY
 10
304.203
 20
-626.967
 40
316.424
 50
358.833
 51
359.381
  0
LINE
  8
APS_GEOMETRY
 10
635.39
 11
635.39
 20
-609.032
 21
-620.151
  0
ARC
  8
APS_GEOMETRY
 10
638.764
 20
-620.151
 40
3.374
 50
180.0
 51
199.885
  0
ARC
  8
APS_GEOMETRY
 10
636.24
 20
-621.064
 40
0.689
 50
199.885
 51
244.799
  0
ARC
  8
APS_GEOMETRY
 10
637.691
 20
-618.074
 40
4.013
 50
244.231
 51
258.996
  0
ARC
  8
APS_GEOMETRY
 10
638.301
 20
-614.937
 40
7.209
 50
258.996
 51
270.0
  0
ARC
  8
APS_GEOMETRY
 10
638.301
 20
-615.696
 40
6.45
 50
270.0
 51
288.435
  0
ARC
  8
APS_GEOMETRY
 10
638.763
 20
-617.084
 40
4.987
 50
288.435
 51
309.428
  0
ARC
  8
APS_GEOMETRY
 10
638.932
 20
-617.258
 40
4.745
 50
309.193
 51
339.939
  0
ARC
  8
APS_GEOMETRY
 10
633.062
 20
-615.115
 40
10.994
 50
339.939
 51
0.0
  0
ARC
  8
APS_GEOMETRY
 10
633.709
 20
-615.115
 40
10.348
 50
0.0
 51
22.011
  0
ARC
  8
APS_GEOMETRY
 10
638.293
 20
-613.261
 40
5.403
 50
22.011
 51
52.651
  0
ARC
  8
APS_GEOMETRY
 10
638.223
 20
-613.31
 40
5.485
 50
52.374
 51
72.309
  0
ARC
  8
APS_GEOMETRY
 10
637.777
 20
-614.706
 40
6.95
 50
72.309
 51
90.0
  0
ARC
  8
APS_GEOMETRY
 10
637.777
 20
-611.808
 40
4.052
 50
90.0
 51
118.113
  0
ARC
  8
APS_GEOMETRY
 10
636.294
 20
-609.032
 40
0.904
 50
118.113
 51
180.0
  0
ARC
  8
APS_GEOMETRY
 10
688.128
 20
-626.016
 40
25.782
 50
71.91
 51
90.0
  0
ARC
  8
APS_GEOMETRY
 10
689.126
 20
-622.96
 40
22.566
 50
52.561
 51
71.91
  0
ARC
  8
APS_GEOMETRY
 10
688.865
 20
-623.036
 40
22.786
 50
38.846
 51
52.156
  0
ARC
  8
APS_GEOMETRY
 10
685.292
 20
-625.912
 40
27.372
 50
26.707
 51
38.846
  0
ARC
  8
APS_GEOMETRY
 10
686.0
 20
-625.335
 40
26.482
 50
13.868
 51
26.278
  0
ARC
  8
APS_GEOMETRY
 10
691.099
 20
-624.076
 40
21.229
 50
360.0
 51
13.868
  0
ARC
  8
APS_GEOMETRY
 10
691.43
 20
-624.076
 40
20.899
 50
339.712
 51
360.0
  0
ARC
  8
APS_GEOMETRY
 10
690.253
 20
-623.641
 40
22.153
 50
320.013
 51
339.712
  0
ARC
  8
APS_GEOMETRY
 10
690.058
 20
-623.533
 40
22.372
 50
303.344
 51
320.123
  0
ARC
  8
APS_GEOMETRY
 10
687.762
 20
-620.044
 40
26.548
 50
287.949
 51
303.344
  0
ARC
  8
APS_GEOMETRY
 10
687.008
 20
-617.429
 40
29.269
 50
279.039
 51
287.776
  0
ARC
  8
APS_GEOMETRY
 10
687.31
 20
-619.328
 40
27.346
 50
270.0
 51
279.039
  0
ARC
  8
APS_GEOMETRY
 10
687.31
 20
-620.663
 40
26.011
 50
257.728
 51
270.0
  0
ARC
  8
APS_GEOMETRY
 10
687.351
 20
-620.475
 40
26.203
 50
245.501
 51
257.728
  0
ARC
  8
APS_GEOMETRY
 10
685.878
 20
-623.697
 40
22.66
 50
228.665
 51
245.511
  0
ARC
  8
APS_GEOMETRY
 10
685.388
 20
-624.254
 40
21.918
 50
211.535
 51
228.665
  0
ARC
  8
APS_GEOMETRY
 10
686.03
 20
-623.783
 40
22.712
 50
195.642
 51
211.701
  0
ARC
  8
APS_GEOMETRY
 10
687.204
 20
-623.454
 40
23.931
 50
180.0
 51
195.642
  0
ARC
  8
APS_GEOMETRY
 10
687.456
 20
-623.454
 40
24.183
 50
162.181
 51
180.0
  0
ARC
  8
APS_GEOMETRY
 10
685.249
 20
-622.745
 40
21.865
 50
143.434
 51
162.181
  0
ARC
  8
APS_GEOMETRY
 10
684.952
 20
-622.507
 40
21.485
 50
126.384
 51
143.471
  0
ARC
  8
APS_GEOMETRY
 10
686.987
 20
-625.268
 40
24.914
 50
110.525
 51
126.384
  0
ARC
  8
APS_GEOMETRY
 10
686.886
 20
-624.518
 40
24.177
 50
99.77
 51
110.925
  0
ARC
  8
APS_GEOMETRY
 10
688.128
 20
-631.73
 40
31.496
 50
90.0
 51
99.77
  0
ARC
  8
APS_GEOMETRY
 10
685.021
 20
-614.428
 40
4.807
 50
90.0
 51
119.604
  0
ARC
  8
APS_GEOMETRY
 10
685.442
 20
-615.169
 40
5.659
 50
119.604
 51
146.842
  0
ARC
  8
APS_GEOMETRY
 10
686.288
 20
-615.863
 40
6.748
 50
145.84
 51
164.055
  0
ARC
  8
APS_GEOMETRY
 10
688.249
 20
-616.423
 40
8.788
 50
164.055
 51
180.0
  0
ARC
  8
APS_GEOMETRY
 10
700.514
 20
-616.423
 40
21.053
 50
180.0
 51
189.977
  0
ARC
  8
APS_GEOMETRY
 10
719.165
 20
-613.142
 40
39.991
 50
189.977
 51
197.211
  0
ARC
  8
APS_GEOMETRY
 10
723.245
 20
-611.878
 40
44.261
 50
197.211
 51
203.76
  0
ARC
  8
APS_GEOMETRY
 10
713.082
 20
-616.352
 40
33.157
 50
203.76
 51
211.329
  0
ARC
  8
APS_GEOMETRY
 10
692.214
 20
-628.876
 40
8.821
 50
212.32
 51
224.441
  0
ARC
  8
APS_GEOMETRY
 10
691.359
 20
-629.715
 40
7.623
 50
224.441
 51
237.484
  0
ARC
  8
APS_GEOMETRY
 10
690.806
 20
-630.582
 40
6.595
 50
237.484
 51
252.416
  0
ARC
  8
APS_GEOMETRY
 10
690.253
 20
-632.325
 40
4.766
 50
252.416
 51
270.0
  0
ARC
  8
APS_GEOMETRY
 10
690.253
 20
-631.76
 40
5.331
 50
270.0
 51
294.953
  0
ARC
  8
APS_GEOMETRY
 10
690.403
 20
-632.081
 40
4.977
 50
294.953
 51
320.793
  0
ARC
  8
APS_GEOMETRY
 10
689.602
 20
-631.428
 40
6.011
 50
320.793
 51
342.777
  0
ARC
  8
APS_GEOMETRY
 10
686.034
 20
-630.322
 40
9.746
 50
342.777
 51
0.0
  0
ARC
  8
APS_GEOMETRY
 10
669.273
 20
-630.322
 40
26.507
 50
0.0
 51
8.499
  0
ARC
  8
APS_GEOMETRY
 10
657.606
 20
-632.065
 40
38.304
 50
8.499
 51
15.566
  0
ARC
  8
APS_GEOMETRY
 10
659.009
 20
-631.675
 40
36.848
 50
15.566
 51
22.909
  0
ARC
  8
APS_GEOMETRY
 10
671.072
 20
-626.577
 40
23.751
 50
22.909
 51
32.057
  0
ARC
  8
APS_GEOMETRY
 10
680.548
 20
-620.607
 40
12.552
 50
31.921
 51
42.51
  0
ARC
  8
APS_GEOMETRY
 10
683.15
 20
-618.222
 40
9.022
 50
42.51
 51
55.008
  0
ARC
  8
APS_GEOMETRY
 10
684.029
 20
-616.966
 40
7.489
 50
55.008
 51
69.88
  0
ARC
  8
APS_GEOMETRY
 10
684.817
 20
-614.815
 40
5.198
 50
69.88
 51
87.754
  0
ARC
  8
APS_GEOMETRY
 10
738.641
 20
-629.439
 40
2.42
 50
90.0
 51
115.837
  0
ARC
  8
APS_GEOMETRY
 10
738.046
 20
-628.208
 40
1.053
 50
115.837
 51
155.462
  0
ARC
  8
APS_GEOMETRY
 10
738.741
 20
-628.526
 40
1.817
 50
155.462
 51
168.366
  0
ARC
  8
APS_GEOMETRY
 10
745.087
 20
-629.832
 40
8.296
 50
168.366
 51
174.395
  0
ARC
  8
APS_GEOMETRY
 10
751.483
 20
-630.46
 40
14.722
 50
174.395
 51
177.813
  0
ARC
  8
APS_GEOMETRY
 10
772.711
 20
-631.27
 40
35.966
 50
177.813
 51
180.0
  0
ARC
  8
APS_GEOMETRY
 10
788.079
 20
-631.27
 40
51.335
 50
180.0
 51
184.62
  0
ARC
  8
APS_GEOMETRY
 10
753.66
 20
-634.052
 40
16.803
 50
184.62
 51
192.7
  0
ARC
  8
APS_GEOMETRY
 10
740.389
 20
-636.965
 40
3.218
 50
194.036
 51
205.821
  0
ARC
  8
APS_GEOMETRY
 10
738.984
 20
-637.645
 40
1.656
 50
205.821
 51
222.274
  0
ARC
  8
APS_GEOMETRY
 10
739.415
 20
-637.254
 40
2.238
 50
222.274
 51
234.605
  0
ARC
  8
APS_GEOMETRY
 10
744.275
 20
-630.413
 40
10.63
 50
234.605
 51
240.255
  0
ARC
  8
APS_GEOMETRY
 10
736.886
 20
-643.488
 40
4.389
 50
34.592
 51
61.189
  0
ARC
  8
APS_GEOMETRY
 10
738.336
 20
-642.488
 40
2.627
 50
360.0
 51
34.592
  0
ARC
  8
APS_GEOMETRY
 10
738.424
 20
-642.488
 40
2.539
 50
318.231
 51
360.0
  0
ARC
  8
APS_GEOMETRY
 10
736.726
 20
-640.971
 40
4.816
 50
288.227
 51
318.231
  0
ARC
  8
APS_GEOMETRY
 10
734.965
 20
-635.623
 40
10.446
 50
280.377
 51
288.227
  0
ARC
  8
APS_GEOMETRY
 10
731.895
 20
-618.86
 40
27.489
 50
275.541
 51
280.377
  0
ARC
  8
APS_GEOMETRY
 10
730.572
 20
-605.222
 40
41.19
 50
272.304
 51
275.541
  0
ARC
  8
APS_GEOMETRY
 10
728.961
 20
-565.186
 40
81.259
 50
270.0
 51
272.304
  0
ARC
  8
APS_GEOMETRY
 10
728.961
 20
-598.645
 40
47.8
 50
262.811
 51
270.0
  0
ARC
  8
APS_GEOMETRY
 10
724.672
 20
-632.651
 40
13.524
 50
249.274
 51
262.811
  0
ARC
  8
APS_GEOMETRY
 10
721.974
 20
-639.781
 40
5.901
 50
221.379
 51
249.274
  0
ARC
  8
APS_GEOMETRY
 10
719.608
 20
-641.866
 40
2.747
 50
180.0
 51
221.379
  0
ARC
  8
APS_GEOMETRY
 10
719.589
 20
-641.866
 40
2.728
 50
164.055
 51
180.0
  0
ARC
  8
APS_GEOMETRY
 10
718.452
 20
-641.541
 40
1.546
 50
142.815
 51
164.055
  0
ARC
  8
APS_GEOMETRY
 10
719.168
 20
-642.084
 40
2.444
 50
129.007
 51
142.815
  0
ARC
  8
APS_GEOMETRY
 10
727.96
 20
-652.939
 40
16.412
 50
123.69
 51
129.007
  0
ARC
  8
APS_GEOMETRY
 10
715.483
 20
-634.166
 40
6.128
 50
303.389
 51
319.022
  0
ARC
  8
APS_GEOMETRY
 10
717.142
 20
-635.606
 40
3.932
 50
319.022
 51
338.575
  0
ARC
  8
APS_GEOMETRY
 10
714.922
 20
-634.735
 40
6.316
 50
338.575
 51
351.049
  0
ARC
  8
APS_GEOMETRY
 10
688.116
 20
-630.513
 40
33.452
 50
351.049
 51
356.46
  0
ARC
  8
APS_GEOMETRY
 10
696.952
 20
-630.849
 40
24.613
 50
355.972
 51
358.68
  0
ARC
  8
APS_GEOMETRY
 10
406.761
 20
-624.163
 40
314.881
 50
358.68
 51
359.437
  0
LINE
  8
APS_GEOMETRY
 10
721.627
 11
721.658
 20
-627.256
 21
-622.344
  0
LINE
  8
APS_GEOMETRY
 10
721.658
 11
721.668
 20
-622.344
 21
-615.932
  0
ARC
  8
APS_GEOMETRY
 10
645.859
 20
-615.932
 40
75.809
 50
0.0
 51
1.717
  0
ARC
  8
APS_GEOMETRY
 10
686.428
 20
-614.716
 40
35.223
 50
1.717
 51
4.236
  0
ARC
  8
APS_GEOMETRY
 10
699.657
 20
-613.736
 40
21.957
 50
4.236
 51
8.269
  0
ARC
  8
APS_GEOMETRY
 10
714.881
 20
-611.524
 40
6.573
 50
8.269
 51
15.642
  0
ARC
  8
APS_GEOMETRY
 10
717.501
 20
-610.79
 40
3.853
 50
15.642
 51
39.417
  0
ARC
  8
APS_GEOMETRY
 10
717.559
 20
-610.742
 40
3.776
 50
39.417
 51
63.435
  0
ARC
  8
APS_GEOMETRY
 10
724.361
 20
-596.652
 40
11.869
 50
236.874
 51
244.486
  0
ARC
  8
APS_GEOMETRY
 10
719.301
 20
-604.406
 40
2.611
 50
220.601
 51
236.874
  0
ARC
  8
APS_GEOMETRY
 10
718.721
 20
-604.903
 40
1.847
 50
198.246
 51
220.601
  0
ARC
  8
APS_GEOMETRY
 10
719.589
 20
-604.617
 40
2.761
 50
180.0
 51
198.246
  0
ARC
  8
APS_GEOMETRY
 10
719.576
 20
-604.617
 40
2.748
 50
156.161
 51
180.0
  0
ARC
  8
APS_GEOMETRY
 10
719.959
 20
-604.786
 40
3.167
 50
133.977
 51
156.161
  0
ARC
  8
APS_GEOMETRY
 10
720.722
 20
-605.578
 40
4.266
 50
116.996
 51
133.977
  0
ARC
  8
APS_GEOMETRY
 10
722.239
 20
-608.555
 40
7.608
 50
104.3
 51
116.996
  0
ARC
  8
APS_GEOMETRY
 10
722.631
 20
-610.061
 40
9.164
 50
95.326
 51
104.349
  0
ARC
  8
APS_GEOMETRY
 10
724.219
 20
-627.095
 40
26.272
 50
90.0
 51
95.326
  0
ARC
  8
APS_GEOMETRY
 10
724.219
 20
-613.836
 40
13.013
 50
87.553
 51
90.0
  0
ARC
  8
APS_GEOMETRY
 10
721.451
 20
-678.624
 40
77.86
 50
86.553
 51
87.553
  0
ARC
  8
APS_GEOMETRY
 10
717.514
 20
-743.971
 40
143.325
 50
86.009
 51
86.553
  0
ARC
  8
APS_GEOMETRY
 10
702.206
 20
-963.384
 40
363.271
 50
85.668
 51
86.009
  0
ARC
  8
APS_GEOMETRY
 10
730.854
 20
-586.073
 40
15.125
 50
265.426
 51
268.531
  0
ARC
  8
APS_GEOMETRY
 10
732.199
 20
-533.63
 40
67.586
 50
268.531
 51
270.0
  0
ARC
  8
APS_GEOMETRY
 10
732.199
 20
-549.705
 40
51.511
 50
270.0
 51
271.637
  0
ARC
  8
APS_GEOMETRY
 10
731.048
 20
-509.421
 40
91.812
 50
271.637
 51
272.862
  0
ARC
  8
APS_GEOMETRY
 10
729.726
 20
-482.991
 40
118.274
 50
272.862
 51
273.814
  0
ARC
  8
APS_GEOMETRY
 10
725.253
 20
-415.887
 40
185.527
 50
273.814
 51
274.574
  0
ARC
  8
APS_GEOMETRY
 10
753.315
 20
-780.878
 40
180.543
 50
93.72
 51
94.214
  0
ARC
  8
APS_GEOMETRY
 10
747.326
 20
-688.76
 40
88.23
 50
93.013
 51
93.72
  0
ARC
  8
APS_GEOMETRY
 10
745.684
 20
-657.564
 40
56.991
 50
91.918
 51
93.013
  0
ARC
  8
APS_GEOMETRY
 10
744.397
 20
-619.149
 40
18.554
 50
90.0
 51
91.918
  0
ARC
  8
APS_GEOMETRY
 10
744.397
 20
-624.703
 40
24.109
 50
73.82
 51
90.0
  0
ARC
  8
APS_GEOMETRY
 10
746.773
 20
-616.513
 40
15.581
 50
53.658
 51
73.82
  0
ARC
  8
APS_GEOMETRY
 10
750.153
 20
-611.894
 40
9.857
 50
26.03
 51
53.569
  0
ARC
  8
APS_GEOMETRY
 10
749.116
 20
-612.4
 40
11.012
 50
360.0
 51
26.03
  0
ARC
  8
APS_GEOMETRY
 10
748.685
 20
-612.4
 40
11.443
 50
345.282
 51
360.0
  0
ARC
  8
APS_GEOMETRY
 10
749.785
 20
-612.69
 40
10.305
 50
329.767
 51
345.282
  0
ARC
  8
APS_GEOMETRY
 10
750.409
 20
-613.053
 40
9.583
 50
313.168
 51
329.767
  0
ARC
  8
APS_GEOMETRY
 10
750.64
 20
-613.299
 40
9.246
 50
296.267
 51
313.168
  0
ARC
  8
APS_GEOMETRY
 10
755.903
 20
-623.933
 40
2.62
 50
116.565
 51
139.899
  0
ARC
  8
APS_GEOMETRY
 10
754.596
 20
-622.833
 40
0.911
 50
139.899
 51
180.0
  0
ARC
  8
APS_GEOMETRY
 10
754.698
 20
-622.833
 40
1.013
 50
180.0
 51
226.193
  0
ARC
  8
APS_GEOMETRY
 10
756.569
 20
-620.882
 40
3.715
 50
226.193
 51
249.829
  0
ARC
  8
APS_GEOMETRY
 10
751.208
 20
-635.644
 40
11.989
 50
53.249
 51
70.105
  0
ARC
  8
APS_GEOMETRY
 10
753.643
 20
-632.382
 40
7.919
 50
32.471
 51
53.249
  0
ARC
  8
APS_GEOMETRY
 10
752.508
 20
-633.105
 40
9.264
 50
23.305
 51
32.471
  0
ARC
  8
APS_GEOMETRY
 10
745.498
 20
-636.124
 40
16.897
 50
16.521
 51
23.305
  0
ARC
  8
APS_GEOMETRY
 10
740.032
 20
-637.746
 40
22.598
 50
11.429
 51
16.521
  0
ARC
  8
APS_GEOMETRY
 10
724.542
 20
-640.877
 40
38.401
 50
7.524
 51
11.429
  0
ARC
  8
APS_GEOMETRY
 10
775.871
 20
-634.041
 40
13.38
 50
187.765
 51
196.914
  0
ARC
  8
APS_GEOMETRY
 10
764.927
 20
-637.369
 40
1.942
 50
196.914
 51
221.082
  0
ARC
  8
APS_GEOMETRY
 10
764.969
 20
-637.332
 40
1.997
 50
221.082
 51
244.607
  0
ARC
  8
APS_GEOMETRY
 10
769.642
 20
-627.487
 40
12.896
 50
244.607
 51
253.811
  0
ARC
  8
APS_GEOMETRY
 10
765.534
 20
-641.497
 40
1.705
 50
51.45
 51
72.474
  0
ARC
  8
APS_GEOMETRY
 10
765.112
 20
-642.026
 40
2.382
 50
33.69
 51
51.45
  0
ARC
  8
APS_GEOMETRY
 10
765.013
 20
-642.092
 40
2.5
 50
16.639
 51
33.69
  0
ARC
  8
APS_GEOMETRY
 10
764.894
 20
-642.128
 40
2.625
 50
360.0
 51
16.639
  0
ARC
  8
APS_GEOMETRY
 10
764.857
 20
-642.128
 40
2.662
 50
338.993
 51
360.0
  0
ARC
  8
APS_GEOMETRY
 10
763.232
 20
-641.504
 40
4.402
 50
322.696
 51
338.993
  0
ARC
  8
APS_GEOMETRY
 10
762.626
 20
-641.043
 40
5.164
 50
308.603
 51
322.696
  0
ARC
  8
APS_GEOMETRY
 10
762.21
 20
-640.521
 40
5.831
 50
295.346
 51
308.603
  0
ARC
  8
APS_GEOMETRY
 10
760.019
 20
-635.694
 40
11.131
 50
279.583
 51
294.905
  0
ARC
  8
APS_GEOMETRY
 10
757.152
 20
-618.713
 40
28.353
 50
270.0
 51
279.583
  0
ARC
  8
APS_GEOMETRY
 10
757.152
 20
-626.394
 40
20.672
 50
261.247
 51
270.0
  0
ARC
  8
APS_GEOMETRY
 10
755.828
 20
-634.995
 40
11.97
 50
249.737
 51
261.247
  0
ARC
  8
APS_GEOMETRY
 10
754.957
 20
-637.353
 40
9.457
 50
235.345
 51
249.737
  0
ARC
  8
APS_GEOMETRY
 10
753.858
 20
-638.943
 40
7.524
 50
219.198
 51
235.345
  0
ARC
  8
APS_GEOMETRY
 10
756.171
 20
-636.97
 40
10.563
 50
209.076
 51
219.56
  0
ARC
  8
APS_GEOMETRY
 10
761.512
 20
-634.001
 40
16.674
 50
200.735
 51
209.076
  0
ARC
  8
APS_GEOMETRY
 10
768.881
 20
-631.211
 40
24.554
 50
197.881
 51
200.735
  0
ARC
  8
APS_GEOMETRY
 10
799.163
 20
-621.441
 40
56.372
 50
195.997
 51
197.881
  0
ARC
  8
APS_GEOMETRY
 10
821.545
 20
-615.024
 40
79.656
 50
194.664
 51
195.997
  0
ARC
  8
APS_GEOMETRY
 10
883.54
 20
-598.802
 40
143.738
 50
193.671
 51
194.664
  0
ARC
  8
APS_GEOMETRY
 10
726.329
 20
-637.022
 40
18.051
 50
13.61
 51
23.585
  0
ARC
  8
APS_GEOMETRY
 10
738.149
 20
-631.862
 40
5.155
 50
23.585
 51
42.31
  0
ARC
  8
APS_GEOMETRY
 10
739.221
 20
-630.887
 40
3.705
 50
42.31
 51
67.521
  0
ARC
  8
APS_GEOMETRY
 10
738.372
 20
-632.937
 40
5.924
 50
67.521
 51
87.397
  0
LINE
  8
APS_GEOMETRY
 10
736.777
 11
736.418
 20
-610.34
 21
-617.96
  0
LINE
  8
APS_GEOMETRY
 10
736.418
 11
736.418
 20
-617.96
 21
-618.083
  0
LINE
  8
APS_GEOMETRY
 10
736.418
 11
736.418
 20
-618.083
 21
-618.254
  0
ARC
  8
APS_GEOMETRY
 10
741.712
 20
-618.254
 40
5.294
 50
180.0
 51
192.339
  0
ARC
  8
APS_GEOMETRY
 10
737.503
 20
-619.175
 40
0.986
 50
192.339
 51
221.186
  0
ARC
  8
APS_GEOMETRY
 10
737.402
 20
-619.263
 40
0.852
 50
221.186
 51
253.872
  0
ARC
  8
APS_GEOMETRY
 10
738.118
 20
-616.787
 40
3.429
 50
253.872
 51
270.0
  0
ARC
  8
APS_GEOMETRY
 10
738.118
 20
-612.246
 40
7.971
 50
270.0
 51
289.569
  0
ARC
  8
APS_GEOMETRY
 10
739.567
 20
-616.322
 40
3.644
 50
289.569
 51
318.681
  0
ARC
  8
APS_GEOMETRY
 10
739.175
 20
-615.978
 40
4.166
 50
318.681
 51
344.628
  0
ARC
  8
APS_GEOMETRY
 10
731.873
 20
-613.97
 40
11.74
 50
344.628
 51
0.0
  0
ARC
  8
APS_GEOMETRY
 10
735.344
 20
-613.97
 40
8.268
 50
0.0
 51
35.369
  0
ARC
  8
APS_GEOMETRY
 10
739.132
 20
-611.282
 40
3.623
 50
35.369
 51
90.0
  0
ARC
  8
APS_GEOMETRY
 10
739.132
 20
-611.321
 40
3.663
 50
90.0
 51
108.435
  0
ARC
  8
APS_GEOMETRY
 10
738.419
 20
-609.183
 40
1.409
 50
108.435
 51
138.366
  0
ARC
  8
APS_GEOMETRY
 10
738.611
 20
-609.353
 40
1.665
 50
138.366
 51
164.291
  0
ARC
  8
APS_GEOMETRY
 10
743.096
 20
-610.615
 40
6.324
 50
164.291
 51
177.51
  0
LINE
  8
APS_GEOMETRY
 10
787.291
 11
804.526
 20
-601.15
 21
-601.15
  0
ARC
  8
APS_GEOMETRY
 10
803.654
 20
-576.455
 40
24.711
 50
272.021
 51
278.44
  0
ARC
  8
APS_GEOMETRY
 10
804.627
 20
-583.011
 40
18.083
 50
278.44
 51
285.945
  0
ARC
  8
APS_GEOMETRY
 10
811.944
 20
-609.208
 40
9.118
 50
98.584
 51
104.931
  0
ARC
  8
APS_GEOMETRY
 10
811.328
 20
-605.127
 40
4.991
 50
90.0
 51
98.584
  0
ARC
  8
APS_GEOMETRY
 10
811.328
 20
-603.888
 40
3.752
 50
52.871
 51
90.0
  0
ARC
  8
APS_GEOMETRY
 10
806.24
 20
-610.61
 40
12.182
 50
32.518
 51
52.871
  0
ARC
  8
APS_GEOMETRY
 10
802.208
 20
-613.179
 40
16.963
 50
17.209
 51
32.518
  0
ARC
  8
APS_GEOMETRY
 10
805.568
 20
-612.139
 40
13.445
 50
360.0
 51
17.209
  0
ARC
  8
APS_GEOMETRY
 10
812.296
 20
-612.139
 40
6.717
 50
337.348
 51
360.0
  0
ARC
  8
APS_GEOMETRY
 10
814.996
 20
-613.266
 40
3.792
 50
307.042
 51
337.348
  0
ARC
  8
APS_GEOMETRY
 10
814.527
 20
-612.621
 40
4.589
 50
287.186
 51
306.87
  0
ARC
  8
APS_GEOMETRY
 10
814.108
 20
-611.267
 40
6.006
 50
270.0
 51
287.186
  0
ARC
  8
APS_GEOMETRY
 10
814.108
 20
-611.88
 40
5.393
 50
252.221
 51
270.0
  0
ARC
  8
APS_GEOMETRY
 10
813.857
 20
-612.663
 40
4.571
 50
232.896
 51
252.221
  0
ARC
  8
APS_GEOMETRY
 10
814.827
 20
-611.38
 40
6.18
 50
218.3
 51
232.896
  0
ARC
  8
APS_GEOMETRY
 10
822.408
 20
-605.393
 40
15.839
 50
209.197
 51
218.3
  0
ARC
  8
APS_GEOMETRY
 10
783.854
 20
-626.281
 40
28.012
 50
28.025
 51
32.699
  0
ARC
  8
APS_GEOMETRY
 10
804.01
 20
-613.341
 40
4.06
 50
32.699
 51
45.0
  0
ARC
  8
APS_GEOMETRY
 10
805.384
 20
-611.967
 40
2.116
 50
45.0
 51
67.557
  0
ARC
  8
APS_GEOMETRY
 10
805.376
 20
-611.987
 40
2.137
 50
67.557
 51
90.0
  0
ARC
  8
APS_GEOMETRY
 10
805.376
 20
-611.818
 40
1.969
 50
90.0
 51
120.801
  0
ARC
  8
APS_GEOMETRY
 10
805.31
 20
-611.707
 40
1.839
 50
120.801
 51
152.7
  0
ARC
  8
APS_GEOMETRY
 10
806.768
 20
-612.46
 40
3.481
 50
152.7
 51
171.085
  0
ARC
  8
APS_GEOMETRY
 10
817.857
 20
-614.199
 40
14.705
 50
171.085
 51
180.0
  0
LINE
  8
APS_GEOMETRY
 10
803.152
 11
803.152
 20
-614.199
 21
-632.513
  0
ARC
  8
APS_GEOMETRY
 10
822.579
 20
-632.513
 40
19.427
 50
180.0
 51
188.194
  0
ARC
  8
APS_GEOMETRY
 10
808.072
 20
-634.602
 40
4.77
 50
188.194
 51
204.775
  0
ARC
  8
APS_GEOMETRY
 10
806.662
 20
-635.253
 40
3.218
 50
204.775
 51
228.576
  0
ARC
  8
APS_GEOMETRY
 10
807.985
 20
-633.754
 40
5.216
 50
228.576
 51
247.218
  0
ARC
  8
APS_GEOMETRY
 10
800.316
 20
-651.826
 40
14.416
 50
59.381
 51
66.93
  0
ARC
  8
APS_GEOMETRY
 10
805.977
 20
-642.261
 40
3.301
 50
43.568
 51
59.381
  0
ARC
  8
APS_GEOMETRY
 10
806.883
 20
-641.399
 40
2.051
 50
19.041
 51
43.568
  0
ARC
  8
APS_GEOMETRY
 10
805.624
 20
-641.834
 40
3.382
 50
360.0
 51
19.041
  0
ARC
  8
APS_GEOMETRY
 10
806.259
 20
-641.834
 40
2.747
 50
317.66
 51
360.0
  0
ARC
  8
APS_GEOMETRY
 10
803.736
 20
-639.535
 40
6.16
 50
289.747
 51
317.66
  0
ARC
  8
APS_GEOMETRY
 10
801.624
 20
-633.65
 40
12.412
 50
281.964
 51
289.747
  0
ARC
  8
APS_GEOMETRY
 10
798.697
 20
-619.839
 40
26.531
 50
276.643
 51
281.964
  0
ARC
  8
APS_GEOMETRY
 10
797.465
 20
-609.263
 40
37.178
 50
272.836
 51
276.643
  0
ARC
  8
APS_GEOMETRY
 10
795.99
 20
-579.487
 40
66.99
 50
270.0
 51
272.836
  0
ARC
  8
APS_GEOMETRY
 10
795.99
 20
-561.037
 40
85.44
 50
267.283
 51
270.0
  0
ARC
  8
APS_GEOMETRY
 10
794.196
 20
-598.84
 40
47.595
 50
263.643
 51
267.283
  0
ARC
  8
APS_GEOMETRY
 10
792.694
 20
-612.324
 40
34.027
 50
258.563
 51
263.643
  0
ARC
  8
APS_GEOMETRY
 10
789.105
 20
-630.064
 40
15.929
 50
251.136
 51
258.563
  0
ARC
  8
APS_GEOMETRY
 10
785.901
 20
-639.356
 40
6.099
 50
222.558
 51
251.395
  0
ARC
  8
APS_GEOMETRY
 10
783.524
 20
-641.539
 40
2.871
 50
180.0
 51
222.558
  0
ARC
  8
APS_GEOMETRY
 10
783.044
 20
-641.539
 40
2.392
 50
150.642
 51
180.0
  0
ARC
  8
APS_GEOMETRY
 10
783.236
 20
-641.647
 40
2.612
 50
122.574
 51
150.642
  0
ARC
  8
APS_GEOMETRY
 10
782.729
 20
-641.065
 40
1.851
 50
108.677
 51
119.055
  0
ARC
  8
APS_GEOMETRY
 10
805.844
 20
-709.448
 40
74.036
 50
107.038
 51
108.677
  0
ARC
  8
APS_GEOMETRY
 10
783.29
 20
-635.685
 40
3.099
 50
286.144
 51
308.66
  0
ARC
  8
APS_GEOMETRY
 10
783.797
 20
-636.319
 40
2.287
 50
308.66
 51
334.933
  0
ARC
  8
APS_GEOMETRY
 10
781.733
 20
-635.353
 40
4.566
 50
334.933
 51
348.829
  0
ARC
  8
APS_GEOMETRY
 10
755.907
 20
-630.253
 40
30.891
 50
348.829
 51
354.161
  0
ARC
  8
APS_GEOMETRY
 10
738.451
 20
-628.454
 40
48.439
 50
354.144
 51
355.66
  0
ARC
  8
APS_GEOMETRY
 10
661.075
 20
-622.582
 40
126.038
 50
355.66
 51
356.6
  0
ARC
  8
APS_GEOMETRY
 10
601.926
 20
-619.068
 40
185.291
 50
356.6
 51
357.24
  0
ARC
  8
APS_GEOMETRY
 10
434.101
 20
-610.977
 40
353.311
 50
357.24
 51
357.703
  0
ARC
  8
APS_GEOMETRY
 10
450.621
 20
-611.64
 40
336.777
 50
357.703
 51
358.674
  0
ARC
  8
APS_GEOMETRY
 10
606.453
 20
-615.246
 40
180.903
 50
358.674
 51
0.0
  0
ARC
  8
APS_GEOMETRY
 10
760.547
 20
-615.246
 40
26.81
 50
0.0
 51
6.242
  0
ARC
  8
APS_GEOMETRY
 10
781.866
 20
-612.914
 40
5.364
 50
6.242
 51
20.225
  0
ARC
  8
APS_GEOMETRY
 10
784.821
 20
-611.825
 40
2.215
 50
20.225
 51
50.44
  0
ARC
  8
APS_GEOMETRY
 10
785.394
 20
-611.131
 40
1.314
 50
50.44
 51
90.0
  0
ARC
  8
APS_GEOMETRY
 10
785.394
 20
-611.579
 40
1.762
 50
90.0
 51
126.747
  0
ARC
  8
APS_GEOMETRY
 10
787.884
 20
-614.914
 40
5.924
 50
126.747
 51
146.547
  0
ARC
  8
APS_GEOMETRY
 10
743.897
 20
-586.001
 40
46.715
 50
324.255
 51
326.701
  0
ARC
  8
APS_GEOMETRY
 10
762.52
 20
-599.405
 40
23.77
 50
320.826
 51
324.255
  0
ARC
  8
APS_GEOMETRY
 10
768.606
 20
-604.365
 40
15.918
 50
315.722
 51
320.826
  0
ARC
  8
APS_GEOMETRY
 10
775.6
 20
-611.185
 40
6.149
 50
307.504
 51
315.722
  0
ARC
  8
APS_GEOMETRY
 10
774.955
 20
-610.323
 40
7.226
 50
291.306
 51
307.405
  0
ARC
  8
APS_GEOMETRY
 10
776.074
 20
-613.192
 40
4.146
 50
270.0
 51
291.306
  0
ARC
  8
APS_GEOMETRY
 10
776.074
 20
-613.46
 40
3.879
 50
245.532
 51
270.0
  0
ARC
  8
APS_GEOMETRY
 10
776.045
 20
-613.524
 40
3.808
 50
220.833
 51
245.532
  0
ARC
  8
APS_GEOMETRY
 10
776.438
 20
-613.184
 40
4.328
 50
198.684
 51
220.833
  0
ARC
  8
APS_GEOMETRY
 10
778.079
 20
-612.629
 40
6.06
 50
180.0
 51
198.684
  0
ARC
  8
APS_GEOMETRY
 10
781.926
 20
-612.629
 40
9.908
 50
168.408
 51
180.0
  0
ARC
  8
APS_GEOMETRY
 10
788.279
 20
-613.932
 40
16.393
 50
159.402
 51
168.408
  0
ARC
  8
APS_GEOMETRY
 10
790.242
 20
-614.67
 40
18.49
 50
151.39
 51
159.402
  0
ARC
  8
APS_GEOMETRY
 10
789.84
 20
-614.451
 40
18.032
 50
143.276
 51
151.39
  0
ARC
  8
APS_GEOMETRY
 10
784.79
 20
-610.675
 40
11.726
 50
124.216
 51
143.31
  0
ARC
  8
APS_GEOMETRY
 10
780.293
 20
-604.061
 40
3.728
 50
90.0
 51
124.216
  0
ARC
  8
APS_GEOMETRY
 10
780.293
 20
-605.717
 40
5.384
 50
82.725
 51
90.0
  0
ARC
  8
APS_GEOMETRY
 10
779.872
 20
-609.013
 40
8.707
 50
77.005
 51
82.725
  0
ARC
  8
APS_GEOMETRY
 10
792.72
 20
-547.066
 40
54.561
 50
258.486
 51
260.378
  0
ARC
  8
APS_GEOMETRY
 10
787.216
 20
-579.531
 40
21.633
 50
260.378
 51
263.382
  0
ARC
  8
APS_GEOMETRY
 10
786.746
 20
-583.589
 40
17.548
 50
263.382
 51
267.084
  0
ARC
  8
APS_GEOMETRY
 10
787.291
 20
-572.877
 40
28.273
 50
267.084
 51
270.0
  0
LINE
  8
APS_GEOMETRY
 10
830.708
 11
847.518
 20
-601.15
 21
-601.15
  0
ARC
  8
APS_GEOMETRY
 10
847.518
 20
-389.431
 40
211.72
 50
270.0
 51
270.69
  0
ARC
  8
APS_GEOMETRY
 10
848.711
 20
-488.487
 40
112.656
 50
270.69
 51
271.637
  0
ARC
  8
APS_GEOMETRY
 10
849.717
 20
-523.681
 40
77.448
 50
271.637
 51
273.013
  0
ARC
  8
APS_GEOMETRY
 10
852.168
 20
-570.244
 40
30.821
 50
273.013
 51
275.194
  0
ARC
  8
APS_GEOMETRY
 10
852.775
 20
-576.925
 40
24.112
 50
275.194
 51
280.756
  0
ARC
  8
APS_GEOMETRY
 10
852.889
 20
-577.526
 40
23.5
 50
280.756
 51
286.39
  0
ARC
  8
APS_GEOMETRY
 10
861.503
 20
-607.011
 40
7.217
 50
100.305
 51
105.945
  0
ARC
  8
APS_GEOMETRY
 10
860.599
 20
-602.041
 40
2.166
 50
90.0
 51
100.305
  0
ARC
  8
APS_GEOMETRY
 10
860.599
 20
-602.815
 40
2.94
 50
58.946
 51
90.0
  0
ARC
  8
APS_GEOMETRY
 10
859.475
 20
-604.682
 40
5.119
 50
35.538
 51
58.946
  0
ARC
  8
APS_GEOMETRY
 10
855.086
 20
-607.911
 40
10.568
 50
16.699
 51
35.952
  0
ARC
  8
APS_GEOMETRY
 10
851.785
 20
-608.901
 40
14.014
 50
360.0
 51
16.699
  0
ARC
  8
APS_GEOMETRY
 10
857.935
 20
-608.901
 40
7.864
 50
344.982
 51
360.0
  0
ARC
  8
APS_GEOMETRY
 10
861.71
 20
-609.914
 40
3.956
 50
323.746
 51
344.982
  0
ARC
  8
APS_GEOMETRY
 10
862.549
 20
-610.529
 40
2.916
 50
296.114
 51
323.746
  0
ARC
  8
APS_GEOMETRY
 10
862.398
 20
-610.222
 40
3.258
 50
270.0
 51
296.114
  0
ARC
  8
APS_GEOMETRY
 10
862.398
 20
-609.395
 40
4.084
 50
255.311
 51
270.0
  0
ARC
  8
APS_GEOMETRY
 10
861.852
 20
-611.479
 40
1.931
 50
233.881
 51
255.311
  0
ARC
  8
APS_GEOMETRY
 10
862.427
 20
-610.691
 40
2.906
 50
219.289
 51
233.881
  0
ARC
  8
APS_GEOMETRY
 10
873.957
 20
-601.257
 40
17.803
 50
213.408
 51
219.289
  0
ARC
  8
APS_GEOMETRY
 10
852.356
 20
-615.485
 40
8.063
 50
33.294
 51
51.246
  0
ARC
  8
APS_GEOMETRY
 10
853.453
 20
-614.118
 40
6.309
 50
51.246
 51
71.565
  0
ARC
  8
APS_GEOMETRY
 10
852.728
 20
-616.295
 40
8.604
 50
71.565
 51
79.278
  0
ARC
  8
APS_GEOMETRY
 10
850.4
 20
-628.591
 40
21.118
 50
79.278
 51
84.2
  0
ARC
  8
APS_GEOMETRY
 10
849.406
 20
-638.369
 40
30.947
 50
84.2
 51
87.567
  0
ARC
  8
APS_GEOMETRY
 10
848.205
 20
-666.647
 40
59.251
 50
87.567
 51
90.0
  0
ARC
  8
APS_GEOMETRY
 10
848.205
 20
-624.053
 40
16.656
 50
90.0
 51
96.374
  0
ARC
  8
APS_GEOMETRY
 10
847.099
 20
-614.156
 40
6.698
 50
96.374
 51
106.434
  0
ARC
  8
APS_GEOMETRY
 10
846.313
 20
-611.493
 40
3.921
 50
106.434
 51
123.056
  0
ARC
  8
APS_GEOMETRY
 10
845.087
 20
-609.609
 40
1.673
 50
123.056
 51
148.627
  0
ARC
  8
APS_GEOMETRY
 10
846.207
 20
-610.244
 40
2.96
 50
149.421
 51
165.28
  0
ARC
  8
APS_GEOMETRY
 10
849.436
 20
-611.092
 40
6.298
 50
165.28
 51
176.135
  0
ARC
  8
APS_GEOMETRY
 10
858.679
 20
-611.716
 40
15.562
 50
176.135
 51
178.367
  0
ARC
  8
APS_GEOMETRY
 10
944.184
 20
-614.155
 40
101.103
 50
178.367
 51
179.242
  0
ARC
  8
APS_GEOMETRY
 10
1032.553
 20
-615.324
 40
189.479
 50
179.242
 51
179.709
  0
ARC
  8
APS_GEOMETRY
 10
1333.202
 20
-616.848
 40
490.132
 50
179.709
 51
180.0
  0
ARC
  8
APS_GEOMETRY
 10
850.161
 20
-616.848
 40
7.091
 50
180.0
 51
195.027
  0
ARC
  8
APS_GEOMETRY
 10
844.362
 20
-618.405
 40
1.086
 50
195.027
 51
234.058
  0
ARC
  8
APS_GEOMETRY
 10
844.419
 20
-618.327
 40
1.183
 50
234.058
 51
253.191
  0
ARC
  8
APS_GEOMETRY
 10
845.656
 20
-614.231
 40
5.461
 50
253.191
 51
262.063
  0
ARC
  8
APS_GEOMETRY
 10
846.289
 20
-609.686
 40
10.05
 50
262.063
 51
266.949
  0
ARC
  8
APS_GEOMETRY
 10
847.125
 20
-594.004
 40
25.755
 50
266.949
 51
270.0
  0
ARC
  8
APS_GEOMETRY
 10
847.125
 20
-615.037
 40
4.722
 50
270.0
 51
286.007
  0
ARC
  8
APS_GEOMETRY
 10
847.952
 20
-617.918
 40
1.725
 50
286.007
 51
312.647
  0
ARC
  8
APS_GEOMETRY
 10
847.935
 20
-617.899
 40
1.75
 50
312.647
 51
338.993
  0
ARC
  8
APS_GEOMETRY
 10
844.36
 20
-616.526
 40
5.58
 50
338.993
 51
353.66
  0
ARC
  8
APS_GEOMETRY
 10
881.279
 20
-620.929
 40
31.601
 50
169.663
 51
173.118
  0
ARC
  8
APS_GEOMETRY
 10
854.889
 20
-616.116
 40
4.776
 50
160.769
 51
169.663
  0
ARC
  8
APS_GEOMETRY
 10
852.682
 20
-615.346
 40
2.439
 50
143.746
 51
160.769
  0
ARC
  8
APS_GEOMETRY
 10
853.215
 20
-615.737
 40
3.1
 50
128.66
 51
143.746
  0
ARC
  8
APS_GEOMETRY
 10
852.86
 20
-615.161
 40
2.429
 50
110.171
 51
130.601
  0
ARC
  8
APS_GEOMETRY
 10
852.881
 20
-615.219
 40
2.492
 50
90.0
 51
110.171
  0
ARC
  8
APS_GEOMETRY
 10
852.881
 20
-615.255
 40
2.527
 50
61.22
 51
90.0
  0
ARC
  8
APS_GEOMETRY
 10
852.44
 20
-616.057
 40
3.443
 50
36.634
 51
61.22
  0
ARC
  8
APS_GEOMETRY
 10
852.026
 20
-616.304
 40
3.923
 50
19.103
 51
35.91
  0
ARC
  8
APS_GEOMETRY
 10
839.231
 20
-620.735
 40
17.463
 50
11.16
 51
19.103
  0
ARC
  8
APS_GEOMETRY
 10
832.546
 20
-622.054
 40
24.277
 50
5.396
 51
11.16
  0
ARC
  8
APS_GEOMETRY
 10
829.146
 20
-622.375
 40
27.692
 50
0.0
 51
5.396
  0
ARC
  8
APS_GEOMETRY
 10
829.628
 20
-622.375
 40
27.21
 50
349.287
 51
0.0
  0
ARC
  8
APS_GEOMETRY
 10
842.986
 20
-624.902
 40
13.615
 50
334.12
 51
349.287
  0
ARC
  8
APS_GEOMETRY
 10
852.188
 20
-629.349
 40
3.396
 50
303.53
 51
333.853
  0
ARC
  8
APS_GEOMETRY
 10
852.522
 20
-629.852
 40
2.791
 50
270.0
 51
303.53
  0
ARC
  8
APS_GEOMETRY
 10
852.522
 20
-629.722
 40
2.922
 50
249.578
 51
270.0
  0
ARC
  8
APS_GEOMETRY
 10
851.9
 20
-631.392
 40
1.14
 50
216.607
 51
249.578
  0
ARC
  8
APS_GEOMETRY
 10
852.494
 20
-630.95
 40
1.881
 50
195.422
 51
216.607
  0
ARC
  8
APS_GEOMETRY
 10
862.757
 20
-628.119
 40
12.526
 50
187.253
 51
195.422
  0
ARC
  8
APS_GEOMETRY
 10
846.184
 20
-630.251
 40
4.183
 50
7.561
 51
49.434
  0
ARC
  8
APS_GEOMETRY
 10
846.014
 20
-630.45
 40
4.445
 50
49.434
 51
90.0
  0
ARC
  8
APS_GEOMETRY
 10
846.014
 20
-628.996
 40
2.991
 50
90.0
 51
115.224
  0
ARC
  8
APS_GEOMETRY
 10
845.422
 20
-627.74
 40
1.603
 50
115.224
 51
149.931
  0
ARC
  8
APS_GEOMETRY
 10
846.491
 20
-628.359
 40
2.838
 50
149.931
 51
171.111
  0
ARC
  8
APS_GEOMETRY
 10
859.459
 20
-630.387
 40
15.963
 50
171.111
 51
180.0
  0
ARC
  8
APS_GEOMETRY
 10
872.234
 20
-630.387
 40
28.739
 50
180.0
 51
183.062
  0
ARC
  8
APS_GEOMETRY
 10
916.222
 20
-628.034
 40
72.789
 50
183.062
 51
184.986
  0
ARC
  8
APS_GEOMETRY
 10
893.149
 20
-630.047
 40
49.629
 50
184.986
 51
187.804
  0
ARC
  8
APS_GEOMETRY
 10
849.448
 20
-636.037
 40
5.52
 50
187.804
 51
196.26
  0
ARC
  8
APS_GEOMETRY
 10
845.594
 20
-637.197
 40
1.496
 50
194.931
 51
230.024
  0
ARC
  8
APS_GEOMETRY
 10
846.575
 20
-636.027
 40
3.022
 50
230.024
 51
254.511
  0
ARC
  8
APS_GEOMETRY
 10
847.767
 20
-631.727
 40
7.485
 50
254.511
 51
265.219
  0
ARC
  8
APS_GEOMETRY
 10
850.265
 20
-601.859
 40
37.456
 50
265.219
 51
270.0
  0
ARC
  8
APS_GEOMETRY
 10
850.265
 20
-605.819
 40
33.497
 50
270.0
 51
274.186
  0
ARC
  8
APS_GEOMETRY
 10
851.284
 20
-619.736
 40
19.543
 50
274.186
 51
279.668
  0
ARC
  8
APS_GEOMETRY
 10
852.12
 20
-624.643
 40
14.564
 50
279.668
 51
286.991
  0
ARC
  8
APS_GEOMETRY
 10
854.033
 20
-630.903
 40
8.018
 50
286.991
 51
296.866
  0
ARC
  8
APS_GEOMETRY
 10
854.43
 20
-631.688
 40
7.139
 50
296.866
 51
318.366
  0
ARC
  8
APS_GEOMETRY
 10
850.431
 20
-628.133
 40
12.489
 50
318.366
 51
334.581
  0
ARC
  8
APS_GEOMETRY
 10
876.76
 20
-640.759
 40
16.711
 50
147.08
 51
154.231
  0
ARC
  8
APS_GEOMETRY
 10
865.754
 20
-633.633
 40
3.599
 50
131.634
 51
147.08
  0
ARC
  8
APS_GEOMETRY
 10
864.933
 20
-632.71
 40
2.364
 50
108.875
 51
131.634
  0
ARC
  8
APS_GEOMETRY
 10
865.276
 20
-633.712
 40
3.423
 50
90.0
 51
108.875
  0
ARC
  8
APS_GEOMETRY
 10
865.276
 20
-633.017
 40
2.727
 50
62.628
 51
90.0
  0
ARC
  8
APS_GEOMETRY
 10
865.103
 20
-633.35
 40
3.103
 50
36.995
 51
62.628
  0
ARC
  8
APS_GEOMETRY
 10
864.33
 20
-633.933
 40
4.071
 50
16.728
 51
36.995
  0
ARC
  8
APS_GEOMETRY
 10
862.525
 20
-634.475
 40
5.956
 50
360.0
 51
16.728
  0
ARC
  8
APS_GEOMETRY
 10
858.949
 20
-634.475
 40
9.532
 50
348.323
 51
360.0
  0
ARC
  8
APS_GEOMETRY
 10
844.64
 20
-631.518
 40
24.143
 50
340.994
 51
348.323
  0
ARC
  8
APS_GEOMETRY
 10
841.246
 20
-630.349
 40
27.733
 50
334.592
 51
340.994
  0
ARC
  8
APS_GEOMETRY
 10
847.17
 20
-633.163
 40
21.175
 50
327.265
 51
334.592
  0
ARC
  8
APS_GEOMETRY
 10
854.05
 20
-637.218
 40
13.198
 50
320.133
 51
325.923
  0
ARC
  8
APS_GEOMETRY
 10
862.053
 20
-643.902
 40
2.771
 50
307.476
 51
320.133
  0
ARC
  8
APS_GEOMETRY
 10
862.754
 20
-644.816
 40
1.619
 50
286.429
 51
307.476
  0
ARC
  8
APS_GEOMETRY
 10
862.463
 20
-643.832
 40
2.646
 50
270.0
 51
286.429
  0
ARC
  8
APS_GEOMETRY
 10
862.463
 20
-640.774
 40
5.704
 50
263.774
 51
270.0
  0
ARC
  8
APS_GEOMETRY
 10
864.132
 20
-625.477
 40
21.092
 50
260.538
 51
263.774
  0
ARC
  8
APS_GEOMETRY
 10
856.663
 20
-667.623
 40
21.713
 50
79.38
 51
84.987
  0
ARC
  8
APS_GEOMETRY
 10
853.425
 20
-704.533
 40
58.766
 50
84.987
 51
88.394
  0
LINE
  8
APS_GEOMETRY
 10
855.072
 11
827.34
 20
-645.791
 21
-645.791
  0
ARC
  8
APS_GEOMETRY
 10
827.34
 20
-639.987
 40
5.804
 50
254.103
 51
270.0
  0
ARC
  8
APS_GEOMETRY
 10
826.522
 20
-642.857
 40
2.82
 50
231.216
 51
254.103
  0
ARC
  8
APS_GEOMETRY
 10
826.187
 20
-643.275
 40
2.284
 50
203.795
 51
231.216
  0
ARC
  8
APS_GEOMETRY
 10
826.859
 20
-642.978
 40
3.019
 50
180.0
 51
203.795
  0
ARC
  8
APS_GEOMETRY
 10
827.114
 20
-642.978
 40
3.273
 50
164.055
 51
180.0
  0
ARC
  8
APS_GEOMETRY
 10
825.097
 20
-642.402
 40
1.175
 50
137.291
 51
164.055
  0
ARC
  8
APS_GEOMETRY
 10
825.704
 20
-642.962
 40
2.001
 50
120.964
 51
137.291
  0
ARC
  8
APS_GEOMETRY
 10
832.204
 20
-653.797
 40
14.637
 50
114.944
 51
120.964
  0
ARC
  8
APS_GEOMETRY
 10
824.089
 20
-636.043
 40
4.886
 50
293.429
 51
305.72
  0
ARC
  8
APS_GEOMETRY
 10
825.433
 20
-637.911
 40
2.584
 50
305.72
 51
322.651
  0
ARC
  8
APS_GEOMETRY
 10
825.225
 20
-637.752
 40
2.846
 50
322.651
 51
338.11
  0
ARC
  8
APS_GEOMETRY
 10
821.167
 20
-636.122
 40
7.219
 50
338.11
 51
347.8
  0
ARC
  8
APS_GEOMETRY
 10
795.966
 20
-630.598
 40
33.018
 50
347.672
 51
352.051
  0
ARC
  8
APS_GEOMETRY
 10
771.573
 20
-627.192
 40
57.647
 50
352.051
 51
355.365
  0
ARC
  8
APS_GEOMETRY
 10
755.146
 20
-625.86
 40
74.128
 50
355.365
 51
357.943
  0
ARC
  8
APS_GEOMETRY
 10
712.737
 20
-624.337
 40
116.566
 50
357.943
 51
0.0
  0
ARC
  8
APS_GEOMETRY
 10
663.784
 20
-624.337
 40
165.518
 50
0.0
 51
2.183
  0
ARC
  8
APS_GEOMETRY
 10
762.759
 20
-620.564
 40
66.471
 50
2.183
 51
5.629
  0
ARC
  8
APS_GEOMETRY
 10
792.243
 20
-617.658
 40
36.844
 50
5.629
 51
11.805
  0
ARC
  8
APS_GEOMETRY
 10
820.859
 20
-611.677
 40
7.61
 50
11.805
 51
25.419
  0
ARC
  8
APS_GEOMETRY
 10
824.563
 20
-609.995
 40
3.544
 50
26.565
 51
38.157
  0
ARC
  8
APS_GEOMETRY
 10
826.207
 20
-608.703
 40
1.452
 50
38.157
 51
56.31
  0
ARC
  8
APS_GEOMETRY
 10
825.86
 20
-609.225
 40
2.079
 50
56.31
 51
69.193
  0
ARC
  8
APS_GEOMETRY
 10
820.98
 20
-622.067
 40
15.817
 50
69.193
 51
73.856
  0
ARC
  8
APS_GEOMETRY
 10
826.127
 20
-604.36
 40
2.623
 50
216.87
 51
253.393
  0
ARC
  8
APS_GEOMETRY
 10
826.089
 20
-604.388
 40
2.576
 50
180.0
 51
216.87
  0
ARC
  8
APS_GEOMETRY
 10
826.651
 20
-604.388
 40
3.138
 50
161.565
 51
180.0
  0
ARC
  8
APS_GEOMETRY
 10
826.538
 20
-604.35
 40
3.018
 50
142.765
 51
161.565
  0
ARC
  8
APS_GEOMETRY
 10
826.466
 20
-604.295
 40
2.928
 50
123.425
 51
142.765
  0
ARC
  8
APS_GEOMETRY
 10
826.531
 20
-604.395
 40
3.047
 50
104.47
 51
123.425
  0
ARC
  8
APS_GEOMETRY
 10
827.111
 20
-607.257
 40
5.965
 50
96.724
 51
102.995
  0
ARC
  8
APS_GEOMETRY
 10
828.912
 20
-622.532
 40
21.346
 50
93.411
 51
96.724
  0
ARC
  8
APS_GEOMETRY
 10
829.712
 20
-635.953
 40
34.791
 50
91.375
 51
93.411
  0
ARC
  8
APS_GEOMETRY
 10
830.708
 20
-677.453
 40
76.303
 50
90.0
 51
91.375
  0
LINE
  8
QUOTATURA
 10
144.5
 11
144.5
 20
916.892
 21
1031.859
  0
LINE
  8
QUOTATURA
 10
94.5
 11
94.5
 20
916.892
 21
1031.859
  0
LINE
  8
QUOTATURA
 10
94.5
 11
-1.157
 20
1021.859
 21
1021.859
  0
LINE
  8
QUOTATURA
 10
74.5
 11
94.5
 20
1025.193
 21
1021.859
  0
LINE
  8
QUOTATURA
 10
94.5
 11
74.5
 20
1021.859
 21
1018.525
  0
LINE
  8
QUOTATURA
 10
74.5
 11
74.5
 20
1018.525
 21
1025.193
  0
LINE
  8
QUOTATURA
 10
144.5
 11
184.5
 20
1021.859
 21
1021.859
  0
LINE
  8
QUOTATURA
 10
164.5
 11
144.5
 20
1018.525
 21
1021.859
  0
LINE
  8
QUOTATURA
 10
144.5
 11
164.5
 20
1021.859
 21
1025.193
  0
LINE
  8
QUOTATURA
 10
164.5
 11
164.5
 20
1025.193
 21
1018.525
  0
LINE
  8
QUOTATURA
 10
30.0
 11
30.0
 20
916.892
 21
980.367
  0
LINE
  8
QUOTATURA
 10
94.5
 11
-1.187
 20
970.367
 21
970.367
  0
LINE
  8
QUOTATURA
 10
74.5
 11
94.5
 20
973.701
 21
970.367
  0
LINE
  8
QUOTATURA
 10
94.5
 11
74.5
 20
970.367
 21
967.033
  0
LINE
  8
QUOTATURA
 10
74.5
 11
74.5
 20
967.033
 21
973.701
  0
LINE
  8
QUOTATURA
 10
50.0
 11
30.0
 20
967.033
 21
970.367
  0
LINE
  8
QUOTATURA
 10
30.0
 11
50.0
 20
970.367
 21
973.701
  0
LINE
  8
QUOTATURA
 10
50.0
 11
50.0
 20
973.701
 21
967.033
  0
LINE
  8
QUOTATURA
 10
378.0
 11
233.985
 20
0.0
 21
0.0
  0
LINE
  8
QUOTATURA
 10
378.0
 11
233.985
 20
80.0
 21
80.0
  0
LINE
  8
QUOTATURA
 10
243.985
 11
243.985
 20
80.0
 21
-52.629
  0
LINE
  8
QUOTATURA
 10
243.985
 11
182.674
 20
-52.629
 21
-52.629
  0
LINE
  8
QUOTATURA
 10
247.319
 11
243.985
 20
20.0
 21
0.0
  0
LINE
  8
QUOTATURA
 10
243.985
 11
240.651
 20
0.0
 21
20.0
  0
LINE
  8
QUOTATURA
 10
240.651
 11
247.319
 20
20.0
 21
20.0
  0
LINE
  8
QUOTATURA
 10
240.651
 11
243.985
 20
60.0
 21
80.0
  0
LINE
  8
QUOTATURA
 10
243.985
 11
247.319
 20
80.0
 21
60.0
  0
LINE
  8
QUOTATURA
 10
247.319
 11
240.651
 20
60.0
 21
60.0
  0
LINE
  8
QUOTATURA
 10
378.0
 11
243.437
 20
2019.0
 21
2019.0
  0
LINE
  8
QUOTATURA
 10
378.0
 11
243.437
 20
2099.0
 21
2099.0
  0
LINE
  8
QUOTATURA
 10
253.437
 11
253.437
 20
2019.0
 21
2230.659
  0
LINE
  8
QUOTATURA
 10
253.437
 11
183.752
 20
2230.659
 21
2230.659
  0
LINE
  8
QUOTATURA
 10
256.771
 11
253.437
 20
2039.0
 21
2019.0
  0
LINE
  8
QUOTATURA
 10
253.437
 11
250.103
 20
2019.0
 21
2039.0
  0
LINE
  8
QUOTATURA
 10
250.103
 11
256.771
 20
2039.0
 21
2039.0
  0
LINE
  8
QUOTATURA
 10
250.103
 11
253.437
 20
2079.0
 21
2099.0
  0
LINE
  8
QUOTATURA
 10
253.437
 11
256.771
 20
2099.0
 21
2079.0
  0
LINE
  8
QUOTATURA
 10
256.771
 11
250.103
 20
2079.0
 21
2079.0
  0
LINE
  8
COSTRUZIONI
 10
-82.888
 11
-82.888
 20
2452.051
 21
2652.051
  0
LINE
  8
COSTRUZIONI
 10
-82.888
 11
1917.112
 20
2652.051
 21
2652.051
  0
LINE
  8
COSTRUZIONI
 10
1917.112
 11
1917.112
 20
2652.051
 21
2452.051
  0
LINE
  8
COSTRUZIONI
 10
1917.112
 11
-82.888
 20
2452.051
 21
2452.051
  0
LINE
  8
COSTRUZIONI
 10
217.112
 11
217.112
 20
2452.051
 21
2652.051
  0
LINE
  8
COSTRUZIONI
 10
517.112
 11
517.112
 20
2452.051
 21
2652.051
  0
LINE
  8
COSTRUZIONI
 10
967.112
 11
967.112
 20
2452.051
 21
2652.051
  0
LINE
  8
COSTRUZIONI
 10
1417.112
 11
1417.112
 20
2452.051
 21
2652.051
  0
LINE
  8
COSTRUZIONI
 10
-82.888
 11
-82.888
 20
2452.051
 21
2302.051
  0
LINE
  8
COSTRUZIONI
 10
-82.888
 11
1917.112
 20
2302.051
 21
2302.051
  0
LINE
  8
COSTRUZIONI
 10
1917.112
 11
1917.112
 20
2452.051
 21
2302.051
  0
LINE
  8
COSTRUZIONI
 10
312.09
 11
312.09
 20
2452.051
 21
2302.051
  0
LINE
  8
APS_GEOMETRY
 10
21.081
 11
71.081
 20
2312.78
 21
2312.78
  0
LINE
  8
APS_GEOMETRY
 10
71.081
 11
71.081
 20
2312.78
 21
2362.78
  0
LINE
  8
APS_GEOMETRY
 10
71.081
 11
21.081
 20
2362.78
 21
2362.78
  0
LINE
  8
APS_GEOMETRY
 10
21.081
 11
21.081
 20
2362.78
 21
2312.78
  0
LINE
  8
APS_GEOMETRY
 10
249.284
 11
299.284
 20
2312.78
 21
2312.78
  0
LINE
  8
APS_GEOMETRY
 10
299.284
 11
299.284
 20
2312.78
 21
2362.78
  0
LINE
  8
APS_GEOMETRY
 10
299.284
 11
249.284
 20
2362.78
 21
2362.78
  0
LINE
  8
APS_GEOMETRY
 10
249.284
 11
249.284
 20
2362.78
 21
2312.78
  0
LINE
  8
COSTRUZIONI
 10
-82.888
 11
312.09
 20
2384.054
 21
2384.054
  0
LINE
  8
COSTRUZIONI
 10
114.601
 11
114.601
 20
2384.054
 21
2302.051
  0
LINE
  8
COSTRUZIONI
 10
460.43
 11
478.13
 20
2339.017
 21
2339.017
  0
LINE
  8
COSTRUZIONI
 10
478.13
 11
478.13
 20
2339.017
 21
2335.517
  0
LINE
  8
COSTRUZIONI
 10
478.13
 11
460.43
 20
2335.517
 21
2335.517
  0
LINE
  8
COSTRUZIONI
 10
460.43
 11
460.43
 20
2335.517
 21
2339.017
  0
LINE
  8
COSTRUZIONI
 10
468.13
 11
468.13
 20
2339.017
 21
2365.517
  0
ARC
  8
COSTRUZIONI
 10
465.13
 20
2365.517
 40
3.0
 50
0.0
 51
90.0
  0
LINE
  8
COSTRUZIONI
 10
465.13
 11
446.13
 20
2368.517
 21
2368.517
  0
ARC
  8
COSTRUZIONI
 10
446.13
 20
2365.517
 40
3.0
 50
90.0
 51
180.0
  0
LINE
  8
COSTRUZIONI
 10
443.13
 11
443.13
 20
2365.517
 21
2344.517
  0
LINE
  8
COSTRUZIONI
 10
443.13
 11
438.63
 20
2344.517
 21
2344.517
  0
LINE
  8
COSTRUZIONI
 10
438.63
 11
438.63
 20
2344.517
 21
2358.517
  0
LINE
  8
COSTRUZIONI
 10
438.63
 11
434.63
 20
2358.517
 21
2358.517
  0
LINE
  8
COSTRUZIONI
 10
434.63
 11
434.63
 20
2358.517
 21
2322.736
  0
LINE
  8
COSTRUZIONI
 10
478.63
 11
478.63
 20
2308.745
 21
2334.517
  0
LINE
  8
COSTRUZIONI
 10
499.004
 11
484.13
 20
2323.517
 21
2323.517
  0
ARC
  8
COSTRUZIONI
 10
484.13
 20
2326.517
 40
3.0
 50
180.0
 51
270.0
  0
LINE
  8
COSTRUZIONI
 10
481.13
 11
481.13
 20
2326.517
 21
2338.517
  0
LINE
  8
COSTRUZIONI
 10
481.13
 11
472.63
 20
2338.517
 21
2338.517
  0
ARC
  8
COSTRUZIONI
 10
472.63
 20
2340.017
 40
1.5
 50
180.0
 51
270.0
  0
LINE
  8
COSTRUZIONI
 10
471.13
 11
471.13
 20
2340.017
 21
2365.517
  0
ARC
  8
COSTRUZIONI
 10
474.13
 20
2365.517
 40
3.0
 50
90.0
 51
180.0
  0
LINE
  8
COSTRUZIONI
 10
474.13
 11
500.165
 20
2368.517
 21
2368.517
  0
LINE
  8
QUOTATURA
 10
393.07
 11
393.07
 20
2324.71
 21
2325.377
  0
LINE
  8
COSTRUZIONI
 10
375.87
 11
383.57
 20
2329.544
 21
2329.544
  0
ARC
  8
COSTRUZIONI
 10
388.57
 20
2317.544
 40
13.0
 50
67.38
 51
112.62
  0
LINE
  8
COSTRUZIONI
 10
393.57
 11
393.57
 20
2329.544
 21
2326.044
  0
LINE
  8
COSTRUZIONI
 10
393.57
 11
375.87
 20
2326.044
 21
2326.044
  0
LINE
  8
COSTRUZIONI
 10
375.87
 11
375.87
 20
2326.044
 21
2329.544
  0
LINE
  8
COSTRUZIONI
 10
376.047
 11
375.87
 20
2326.044
 21
2326.22
  0
LINE
  8
COSTRUZIONI
 10
375.87
 11
376.577
 20
2326.751
 21
2326.044
  0
LINE
  8
COSTRUZIONI
 10
376.754
 11
375.87
 20
2326.044
 21
2326.927
  0
LINE
  8
COSTRUZIONI
 10
375.87
 11
377.285
 20
2327.458
 21
2326.044
  0
LINE
  8
COSTRUZIONI
 10
377.461
 11
375.87
 20
2326.044
 21
2327.635
  0
LINE
  8
COSTRUZIONI
 10
375.87
 11
377.992
 20
2328.165
 21
2326.044
  0
LINE
  8
COSTRUZIONI
 10
378.168
 11
375.87
 20
2326.044
 21
2328.342
  0
LINE
  8
COSTRUZIONI
 10
375.87
 11
378.699
 20
2328.872
 21
2326.044
  0
LINE
  8
COSTRUZIONI
 10
378.876
 11
375.87
 20
2326.044
 21
2329.049
  0
LINE
  8
COSTRUZIONI
 10
375.906
 11
379.406
 20
2329.544
 21
2326.044
  0
LINE
  8
COSTRUZIONI
 10
379.583
 11
376.083
 20
2326.044
 21
2329.544
  0
LINE
  8
COSTRUZIONI
 10
376.613
 11
380.113
 20
2329.544
 21
2326.044
  0
LINE
  8
COSTRUZIONI
 10
380.29
 11
376.79
 20
2326.044
 21
2329.544
  0
LINE
  8
COSTRUZIONI
 10
377.32
 11
380.82
 20
2329.544
 21
2326.044
  0
LINE
  8
COSTRUZIONI
 10
380.997
 11
377.497
 20
2326.044
 21
2329.544
  0
LINE
  8
COSTRUZIONI
 10
378.027
 11
381.527
 20
2329.544
 21
2326.044
  0
LINE
  8
COSTRUZIONI
 10
381.704
 11
378.204
 20
2326.044
 21
2329.544
  0
LINE
  8
COSTRUZIONI
 10
378.734
 11
382.234
 20
2329.544
 21
2326.044
  0
LINE
  8
COSTRUZIONI
 10
382.411
 11
378.911
 20
2326.044
 21
2329.544
  0
LINE
  8
COSTRUZIONI
 10
379.441
 11
382.941
 20
2329.544
 21
2326.044
  0
LINE
  8
COSTRUZIONI
 10
383.118
 11
379.618
 20
2326.044
 21
2329.544
  0
LINE
  8
COSTRUZIONI
 10
380.149
 11
383.649
 20
2329.544
 21
2326.044
  0
LINE
  8
COSTRUZIONI
 10
383.825
 11
380.325
 20
2326.044
 21
2329.544
  0
LINE
  8
COSTRUZIONI
 10
380.856
 11
384.356
 20
2329.544
 21
2326.044
  0
LINE
  8
COSTRUZIONI
 10
384.532
 11
381.032
 20
2326.044
 21
2329.544
  0
LINE
  8
COSTRUZIONI
 10
381.563
 11
385.063
 20
2329.544
 21
2326.044
  0
LINE
  8
COSTRUZIONI
 10
385.239
 11
381.739
 20
2326.044
 21
2329.544
  0
LINE
  8
COSTRUZIONI
 10
382.27
 11
385.77
 20
2329.544
 21
2326.044
  0
LINE
  8
COSTRUZIONI
 10
385.947
 11
382.447
 20
2326.044
 21
2329.544
  0
LINE
  8
COSTRUZIONI
 10
382.977
 11
386.477
 20
2329.544
 21
2326.044
  0
LINE
  8
COSTRUZIONI
 10
386.654
 11
383.154
 20
2326.044
 21
2329.544
  0
LINE
  8
COSTRUZIONI
 10
383.651
 11
387.184
 20
2329.577
 21
2326.044
  0
LINE
  8
COSTRUZIONI
 10
387.361
 11
383.777
 20
2326.044
 21
2329.627
  0
LINE
  8
COSTRUZIONI
 10
384.162
 11
387.891
 20
2329.773
 21
2326.044
  0
LINE
  8
COSTRUZIONI
 10
388.068
 11
384.292
 20
2326.044
 21
2329.819
  0
LINE
  8
COSTRUZIONI
 10
384.691
 11
388.598
 20
2329.951
 21
2326.044
  0
LINE
  8
COSTRUZIONI
 10
388.775
 11
384.826
 20
2326.044
 21
2329.993
  0
LINE
  8
COSTRUZIONI
 10
385.239
 11
389.305
 20
2330.11
 21
2326.044
  0
LINE
  8
COSTRUZIONI
 10
389.482
 11
385.38
 20
2326.044
 21
2330.146
  0
LINE
  8
COSTRUZIONI
 10
385.809
 11
390.012
 20
2330.247
 21
2326.044
  0
LINE
  8
COSTRUZIONI
 10
390.189
 11
385.955
 20
2326.044
 21
2330.278
  0
LINE
  8
COSTRUZIONI
 10
386.402
 11
390.72
 20
2330.361
 21
2326.044
  0
LINE
  8
COSTRUZIONI
 10
390.896
 11
386.554
 20
2326.044
 21
2330.386
  0
LINE
  8
COSTRUZIONI
 10
387.02
 11
391.427
 20
2330.451
 21
2326.044
  0
LINE
  8
COSTRUZIONI
 10
391.603
 11
387.178
 20
2326.044
 21
2330.469
  0
LINE
  8
COSTRUZIONI
 10
387.665
 11
392.134
 20
2330.512
 21
2326.044
  0
LINE
  8
COSTRUZIONI
 10
392.311
 11
387.832
 20
2326.044
 21
2330.523
  0
LINE
  8
COSTRUZIONI
 10
388.343
 11
392.841
 20
2330.542
 21
2326.044
  0
LINE
  8
COSTRUZIONI
 10
393.018
 11
388.518
 20
2326.044
 21
2330.543
  0
LINE
  8
COSTRUZIONI
 10
389.057
 11
393.548
 20
2330.534
 21
2326.044
  0
LINE
  8
COSTRUZIONI
 10
393.57
 11
389.242
 20
2326.198
 21
2330.526
  0
LINE
  8
COSTRUZIONI
 10
389.815
 11
393.57
 20
2330.484
 21
2326.728
  0
LINE
  8
COSTRUZIONI
 10
393.57
 11
390.012
 20
2326.905
 21
2330.463
  0
LINE
  8
COSTRUZIONI
 10
390.626
 11
393.57
 20
2330.38
 21
2327.435
  0
LINE
  8
COSTRUZIONI
 10
393.57
 11
390.838
 20
2327.612
 21
2330.344
  0
LINE
  8
COSTRUZIONI
 10
391.505
 11
393.57
 20
2330.208
 21
2328.142
  0
LINE
  8
COSTRUZIONI
 10
393.57
 11
391.738
 20
2328.319
 21
2330.152
  0
LINE
  8
COSTRUZIONI
 10
392.477
 11
393.57
 20
2329.942
 21
2328.85
  0
LINE
  8
COSTRUZIONI
 10
393.57
 11
392.74
 20
2329.026
 21
2329.857
  0
ARC
  8
COSTRUZIONI
 10
393.07
 20
2325.044
 40
1.0
 50
360.0
 51
90.0
  0
LINE
  8
COSTRUZIONI
 10
350.07
 11
350.07
 20
2359.243
 21
2315.279
  0
LINE
  8
COSTRUZIONI
 10
394.07
 11
394.07
 20
2312.486
 21
2325.044
  0
LINE
  8
COSTRUZIONI
 10
383.57
 11
383.57
 20
2329.544
 21
2356.244
  0
ARC
  8
COSTRUZIONI
 10
380.57
 20
2356.244
 40
3.0
 50
0.0
 51
90.0
  0
LINE
  8
COSTRUZIONI
 10
380.57
 11
358.57
 20
2359.244
 21
2359.244
  0
LINE
  8
COSTRUZIONI
 10
358.57
 11
358.57
 20
2359.244
 21
2345.243
  0
LINE
  8
COSTRUZIONI
 10
358.57
 11
354.27
 20
2345.243
 21
2345.243
  0
LINE
  8
COSTRUZIONI
 10
354.27
 11
354.27
 20
2345.243
 21
2359.243
  0
LINE
  8
COSTRUZIONI
 10
354.27
 11
350.07
 20
2359.243
 21
2359.243
  0
LINE
  8
COSTRUZIONI
 10
389.57
 11
409.931
 20
2329.244
 21
2329.244
  0
LINE
  8
COSTRUZIONI
 10
403.651
 11
381.57
 20
2374.244
 21
2374.244
  0
ARC
  8
COSTRUZIONI
 10
381.57
 20
2369.244
 40
5.0
 50
90.0
 51
180.0
  0
LINE
  8
COSTRUZIONI
 10
376.57
 11
376.57
 20
2369.244
 21
2361.244
  0
ARC
  8
COSTRUZIONI
 10
378.57
 20
2361.244
 40
2.0
 50
180.0
 51
270.0
  0
LINE
  8
COSTRUZIONI
 10
378.57
 11
386.57
 20
2359.244
 21
2359.244
  0
LINE
  8
COSTRUZIONI
 10
386.57
 11
386.57
 20
2359.244
 21
2332.244
  0
ARC
  8
COSTRUZIONI
 10
389.57
 20
2332.244
 40
3.0
 50
180.0
 51
270.0
  0
CIRCLE
  8
COSTRUZIONI
 10
366.92
 20
2367.893
 40
6.85
  0
LINE
  8
COSTRUZIONI
 10
372.958
 11
376.816
 20
2371.13
 21
2370.792
  0
LINE
  8
COSTRUZIONI
 10
376.57
 11
372.304
 20
2363.285
 21
2363.658
  0
LINE
  8
COSTRUZIONI
 10
370.67
 11
370.67
 20
2362.161
 21
2359.244
  0
LINE
  8
COSTRUZIONI
 10
363.17
 11
363.17
 20
2359.244
 21
2362.161
  0
LINE
  8
COSTRUZIONI
 10
365.944
 11
345.185
 20
2374.743
 21
2374.743
  0
LINE
  8
COSTRUZIONI
 10
360.07
 11
360.07
 20
2367.893
 21
2384.62
  0
CIRCLE
  8
COSTRUZIONI
 10
374.185
 20
2347.193
 40
40.0
  0
CIRCLE
  8
COSTRUZIONI
 10
466.529
 20
2346.87
 40
40.0
  0
LINE
  8
APS_GEOMETRY
 10
550.271
 11
600.271
 20
2312.78
 21
2312.78
  0
LINE
  8
APS_GEOMETRY
 10
600.271
 11
600.271
 20
2312.78
 21
2362.78
  0
LINE
  8
APS_GEOMETRY
 10
600.271
 11
550.271
 20
2362.78
 21
2362.78
  0
LINE
  8
APS_GEOMETRY
 10
550.271
 11
550.271
 20
2362.78
 21
2312.78
  0
LINE
  8
COSTRUZIONI
 10
631.639
 11
631.639
 20
2452.051
 21
2302.051
  0
LINE
  8
COSTRUZIONI
 10
756.0
 11
756.0
 20
2099.0
 21
0.0
  0
LINE
  8
COSTRUZIONI
 10
756.0
 11
30.0
 20
0.0
 21
0.0
  0
LINE
  8
COSTRUZIONI
 10
30.0
 11
30.0
 20
0.0
 21
2099.0
  0
LINE
  8
COSTRUZIONI
 10
30.0
 11
756.0
 20
2099.0
 21
2099.0
  0
LINE
  8
COSTRUZIONI
 10
144.5
 11
144.5
 20
1969.0
 21
130.0
  0
LINE
  8
COSTRUZIONI
 10
144.5
 11
641.5
 20
130.0
 21
130.0
  0
LINE
  8
COSTRUZIONI
 10
641.5
 11
641.5
 20
130.0
 21
839.928
  0
LINE
  8
COSTRUZIONI
 10
641.5
 11
563.43
 20
839.928
 21
884.607
  0
LINE
  8
COSTRUZIONI
 10
563.43
 11
641.5
 20
884.607
 21
1119.53
  0
LINE
  8
COSTRUZIONI
 10
641.5
 11
641.5
 20
1119.53
 21
1969.0
  0
LINE
  8
COSTRUZIONI
 10
641.5
 11
144.5
 20
1969.0
 21
1969.0
  0
LINE
  8
COSTRUZIONI
 10
94.5
 11
94.5
 20
2019.0
 21
80.0
  0
LINE
  8
COSTRUZIONI
 10
94.5
 11
691.5
 20
80.0
 21
80.0
  0
LINE
  8
COSTRUZIONI
 10
691.5
 11
691.5
 20
80.0
 21
868.923
  0
LINE
  8
COSTRUZIONI
 10
691.5
 11
623.785
 20
868.923
 21
907.675
  0
LINE
  8
COSTRUZIONI
 10
623.785
 11
691.5
 20
907.675
 21
1111.44
  0
LINE
  8
COSTRUZIONI
 10
691.5
 11
691.5
 20
1111.44
 21
2019.0
  0
LINE
  8
COSTRUZIONI
 10
691.5
 11
94.5
 20
2019.0
 21
2019.0
  0
LINE
  8
COSTRUZIONI
 10
144.5
 11
641.5
 20
130.0
 21
1969.0
  0
LINE
  8
COSTRUZIONI
 10
144.5
 11
641.5
 20
1969.0
 21
130.0
  0
CIRCLE
  8
COSTRUZIONI
 10
393.0
 20
474.25
 40
15.0
  0
LINE
  8
COSTRUZIONI
 10
400.5
 11
385.5
 20
474.25
 21
474.25
  0
CIRCLE
  8
COSTRUZIONI
 10
393.0
 20
1049.5
 40
15.0
  0
LINE
  8
COSTRUZIONI
 10
400.5
 11
385.5
 20
1049.5
 21
1049.5
  0
CIRCLE
  8
COSTRUZIONI
 10
393.0
 20
1624.75
 40
15.0
  0
LINE
  8
QUOTATURA
 10
374.146
 11
393.0
 20
1617.292
 21
1624.75
  0
LINE
  8
QUOTATURA
 10
393.0
 11
377.584
 20
1624.75
 21
1611.579
  0
LINE
  8
QUOTATURA
 10
377.584
 11
374.146
 20
1611.579
 21
1617.292
  0
LINE
  8
QUOTATURA
 10
393.0
 11
-293.855
 20
1624.75
 21
1211.29
  0
LINE
  8
QUOTATURA
 10
-293.855
 11
-586.414
 20
1211.29
 21
1211.29
  0
LINE
  8
QUOTATURA
 10
-586.414
 11
-586.414
 20
1211.29
 21
1078.309
  0
LINE
  8
QUOTATURA
 10
-586.414
 11
-296.514
 20
1078.309
 21
1078.309
  0
LINE
  8
QUOTATURA
 10
-296.514
 11
-296.514
 20
1078.309
 21
1211.29
  0
LINE
  8
QUOTATURA
 10
373.671
 11
393.0
 20
1055.624
 21
1049.5
  0
LINE
  8
QUOTATURA
 10
393.0
 11
372.73
 20
1049.5
 21
1049.023
  0
LINE
  8
QUOTATURA
 10
372.73
 11
373.671
 20
1049.023
 21
1055.624
  0
LINE
  8
QUOTATURA
 10
393.0
 11
-293.855
 20
1049.5
 21
1147.459
  0
LINE
  8
QUOTATURA
 10
380.626
 11
393.0
 20
490.312
 21
474.25
  0
LINE
  8
QUOTATURA
 10
393.0
 11
376.084
 20
474.25
 21
485.429
  0
LINE
  8
QUOTATURA
 10
376.084
 11
380.626
 20
485.429
 21
490.312
  0
LINE
  8
QUOTATURA
 10
393.0
 11
-296.514
 20
474.25
 21
1115.543
  0
LINE
  8
QUOTATURA
 10
30.0
 11
30.0
 20
0.0
 21
-126.676
  0
LINE
  8
QUOTATURA
 10
756.0
 11
756.0
 20
0.0
 21
-126.676
  0
LINE
  8
QUOTATURA
 10
30.0
 11
348.334
 20
-126.676
 21
-126.676
  0
LINE
  8
QUOTATURA
 10
437.666
 11
756.0
 20
-126.676
 21
-126.676
  0
LINE
  8
QUOTATURA
 10
60.0
 11
30.0
 20
-131.677
 21
-126.676
  0
LINE
  8
QUOTATURA
 10
30.0
 11
60.0
 20
-126.676
 21
-121.675
  0
LINE
  8
QUOTATURA
 10
60.0
 11
60.0
 20
-121.675
 21
-131.677
  0
LINE
  8
QUOTATURA
 10
726.0
 11
756.0
 20
-121.675
 21
-126.676
  0
LINE
  8
QUOTATURA
 10
756.0
 11
726.0
 20
-126.676
 21
-131.677
  0
LINE
  8
QUOTATURA
 10
726.0
 11
726.0
 20
-131.677
 21
-121.675
  0
LINE
  8
QUOTATURA
 10
30.0
 11
-129.352
 20
0.0
 21
0.0
  0
LINE
  8
QUOTATURA
 10
30.0
 11
-129.352
 20
2099.0
 21
2099.0
  0
LINE
  8
QUOTATURA
 10
-129.352
 11
-129.352
 20
0.0
 21
1482.116
  0
LINE
  8
QUOTATURA
 10
-129.352
 11
-129.352
 20
1527.582
 21
2099.0
  0
LINE
  8
QUOTATURA
 10
-124.351
 11
-129.352
 20
30.0
 21
0.0
  0
LINE
  8
QUOTATURA
 10
-129.352
 11
-134.353
 20
0.0
 21
30.0
  0
LINE
  8
QUOTATURA
 10
-134.353
 11
-124.351
 20
30.0
 21
30.0
  0
LINE
  8
QUOTATURA
 10
-134.353
 11
-129.352
 20
2069.0
 21
2099.0
  0
LINE
  8
QUOTATURA
 10
-129.352
 11
-124.351
 20
2099.0
 21
2069.0
  0
LINE
  8
QUOTATURA
 10
-124.351
 11
-134.353
 20
2069.0
 21
2069.0
  0
LINE
  8
QUOTATURA
 10
756.0
 11
915.104
 20
0.0
 21
0.0
  0
LINE
  8
QUOTATURA
 10
393.0
 11
915.104
 20
474.25
 21
474.25
  0
LINE
  8
QUOTATURA
 10
915.104
 11
915.104
 20
0.0
 21
214.382
  0
LINE
  8
QUOTATURA
 10
915.104
 11
915.104
 20
259.719
 21
474.25
  0
LINE
  8
QUOTATURA
 10
920.105
 11
915.104
 20
30.0
 21
0.0
  0
LINE
  8
QUOTATURA
 10
915.104
 11
910.103
 20
0.0
 21
30.0
  0
LINE
  8
QUOTATURA
 10
910.103
 11
920.105
 20
30.0
 21
30.0
  0
LINE
  8
QUOTATURA
 10
910.103
 11
915.104
 20
444.25
 21
474.25
  0
LINE
  8
QUOTATURA
 10
915.104
 11
920.105
 20
474.25
 21
444.25
  0
LINE
  8
QUOTATURA
 10
920.105
 11
910.103
 20
444.25
 21
444.25
  0
LINE
  8
QUOTATURA
 10
393.0
 11
393.0
 20
469.249
 21
479.251
  0
LINE
  8
QUOTATURA
 10
387.999
 11
398.001
 20
474.25
 21
474.25
  0
LINE
  8
QUOTATURA
 10
393.0
 11
915.104
 20
1049.5
 21
1049.5
  0
LINE
  8
QUOTATURA
 10
915.104
 11
915.104
 20
474.25
 21
739.132
  0
LINE
  8
QUOTATURA
 10
915.104
 11
915.104
 20
784.469
 21
1049.5
  0
LINE
  8
QUOTATURA
 10
920.105
 11
915.104
 20
504.25
 21
474.25
  0
LINE
  8
QUOTATURA
 10
915.104
 11
910.103
 20
474.25
 21
504.25
  0
LINE
  8
QUOTATURA
 10
910.103
 11
920.105
 20
504.25
 21
504.25
  0
LINE
  8
QUOTATURA
 10
910.103
 11
915.104
 20
1019.5
 21
1049.5
  0
LINE
  8
QUOTATURA
 10
915.104
 11
920.105
 20
1049.5
 21
1019.5
  0
LINE
  8
QUOTATURA
 10
920.105
 11
910.103
 20
1019.5
 21
1019.5
  0
LINE
  8
QUOTATURA
 10
393.0
 11
393.0
 20
469.249
 21
479.251
  0
LINE
  8
QUOTATURA
 10
387.999
 11
398.001
 20
474.25
 21
474.25
  0
LINE
  8
QUOTATURA
 10
393.0
 11
393.0
 20
1044.499
 21
1054.501
  0
LINE
  8
QUOTATURA
 10
387.999
 11
398.001
 20
1049.5
 21
1049.5
  0
LINE
  8
QUOTATURA
 10
393.0
 11
914.501
 20
1624.75
 21
1624.75
  0
LINE
  8
QUOTATURA
 10
914.501
 11
914.501
 20
1049.5
 21
1314.382
  0
LINE
  8
QUOTATURA
 10
914.501
 11
914.501
 20
1359.719
 21
1624.75
  0
LINE
  8
QUOTATURA
 10
919.502
 11
914.501
 20
1079.5
 21
1049.5
  0
LINE
  8
QUOTATURA
 10
914.501
 11
909.5
 20
1049.5
 21
1079.5
  0
LINE
  8
QUOTATURA
 10
909.5
 11
919.502
 20
1079.5
 21
1079.5
  0
LINE
  8
QUOTATURA
 10
909.5
 11
914.501
 20
1594.75
 21
1624.75
  0
LINE
  8
QUOTATURA
 10
914.501
 11
919.502
 20
1624.75
 21
1594.75
  0
LINE
  8
QUOTATURA
 10
919.502
 11
909.5
 20
1594.75
 21
1594.75
  0
LINE
  8
QUOTATURA
 10
393.0
 11
393.0
 20
1044.499
 21
1054.501
  0
LINE
  8
QUOTATURA
 10
387.999
 11
398.001
 20
1049.5
 21
1049.5
  0
LINE
  8
QUOTATURA
 10
393.0
 11
393.0
 20
1619.749
 21
1629.751
  0
LINE
  8
QUOTATURA
 10
387.999
 11
398.001
 20
1624.75
 21
1624.75
  0
LINE
  8
QUOTATURA
 10
756.0
 11
912.222
 20
2099.0
 21
2099.0
  0
LINE
  8
QUOTATURA
 10
912.222
 11
912.222
 20
1624.75
 21
1839.132
  0
LINE
  8
QUOTATURA
 10
912.222
 11
912.222
 20
1884.469
 21
2099.0
  0
LINE
  8
QUOTATURA
 10
917.223
 11
912.222
 20
1654.75
 21
1624.75
  0
LINE
  8
QUOTATURA
 10
912.222
 11
907.221
 20
1624.75
 21
1654.75
  0
LINE
  8
QUOTATURA
 10
907.221
 11
917.223
 20
1654.75
 21
1654.75
  0
LINE
  8
QUOTATURA
 10
907.221
 11
912.222
 20
2069.0
 21
2099.0
  0
LINE
  8
QUOTATURA
 10
912.222
 11
917.223
 20
2099.0
 21
2069.0
  0
LINE
  8
QUOTATURA
 10
917.223
 11
907.221
 20
2069.0
 21
2069.0
  0
LINE
  8
QUOTATURA
 10
393.0
 11
393.0
 20
1619.749
 21
1629.751
  0
LINE
  8
QUOTATURA
 10
387.999
 11
398.001
 20
1624.75
 21
1624.75
  0
LINE
  8
COSTRUZIONI
 10
1142.317
 11
1142.317
 20
2099.0
 21
0.0
  0
LINE
  8
COSTRUZIONI
 10
1142.317
 11
1868.317
 20
0.0
 21
0.0
  0
LINE
  8
COSTRUZIONI
 10
1868.317
 11
1868.317
 20
0.0
 21
2099.0
  0
LINE
  8
COSTRUZIONI
 10
1868.317
 11
1142.317
 20
2099.0
 21
2099.0
  0
LINE
  8
COSTRUZIONI
 10
1753.817
 11
1753.817
 20
1969.0
 21
130.0
  0
LINE
  8
COSTRUZIONI
 10
1753.817
 11
1256.817
 20
130.0
 21
130.0
  0
LINE
  8
COSTRUZIONI
 10
1256.817
 11
1256.817
 20
130.0
 21
839.928
  0
LINE
  8
COSTRUZIONI
 10
1256.817
 11
1334.888
 20
839.928
 21
884.607
  0
LINE
  8
COSTRUZIONI
 10
1334.888
 11
1256.817
 20
884.607
 21
1119.53
  0
LINE
  8
COSTRUZIONI
 10
1256.817
 11
1256.817
 20
1119.53
 21
1969.0
  0
LINE
  8
COSTRUZIONI
 10
1256.817
 11
1753.817
 20
1969.0
 21
1969.0
  0
LINE
  8
COSTRUZIONI
 10
1803.817
 11
1803.817
 20
2019.0
 21
80.0
  0
LINE
  8
COSTRUZIONI
 10
1803.817
 11
1206.817
 20
80.0
 21
80.0
  0
LINE
  8
COSTRUZIONI
 10
1206.817
 11
1206.817
 20
80.0
 21
868.923
  0
LINE
  8
COSTRUZIONI
 10
1206.817
 11
1274.533
 20
868.923
 21
907.675
  0
LINE
  8
COSTRUZIONI
 10
1274.533
 11
1206.817
 20
907.675
 21
1111.44
  0
LINE
  8
COSTRUZIONI
 10
1206.817
 11
1206.817
 20
1111.44
 21
2019.0
  0
LINE
  8
COSTRUZIONI
 10
1206.817
 11
1803.817
 20
2019.0
 21
2019.0
  0
LINE
  8
COSTRUZIONI
 10
1753.817
 11
1256.817
 20
130.0
 21
1969.0
  0
LINE
  8
COSTRUZIONI
 10
1753.817
 11
1256.817
 20
1969.0
 21
130.0
  0
CIRCLE
  8
COSTRUZIONI
 10
1505.317
 20
474.25
 40
15.0
  0
LINE
  8
COSTRUZIONI
 10
1497.817
 11
1512.817
 20
474.25
 21
474.25
  0
CIRCLE
  8
COSTRUZIONI
 10
1505.317
 20
1049.5
 40
15.0
  0
LINE
  8
COSTRUZIONI
 10
1497.817
 11
1512.817
 20
1049.5
 21
1049.5
  0
CIRCLE
  8
COSTRUZIONI
 10
1505.317
 20
1624.75
 40
15.0
  0
TEXT
  8
TEXT
 10
21.038
 20
1789.942
 30
0.0
 40
30.0
 50
0.0
  1
M
  0
TEXT
  8
TEXT
 10
75.999
 20
1788.664
 30
0.0
 40
30.0
 50
0.0
  1
V
  0
TEXT
  8
TEXT
 10
371.058
 20
2004.416
 30
0.0
 40
30.0
 50
0.0
  1
V
  0
TEXT
  8
TEXT
 10
677.903
 20
1768.223
 30
0.0
 40
30.0
 50
0.0
  1
V
  0
TEXT
  8
TEXT
 10
748.612
 20
1783.218
 30
0.0
 40
30.0
 50
0.0
  1
M
  0
TEXT
  8
TEXT
 10
355.65
 20
2091.633
 30
0.0
 40
30.0
 50
0.0
  1
M
  0
TEXT
  8
TEXT
 10
379.042
 20
-11.626
 30
0.0
 40
30.0
 50
0.0
  1
M
  0
TEXT
  8
TEXT
 10
379.042
 20
55.651
 30
0.0
 40
30.0
 50
0.0
  1
V
  0
TEXT
  8
TEXT
 10
193.62
 20
856.919
 30
0.0
 40
30.0
 50
0.0
  1
AREA TRAFORATO
  0
TEXT
  8
TEXT
 10
476.916
 20
2224.138
 30
0.0
 40
30.0
 50
0.0
  1
PANNELLI TRAFORATI PER UNA ANTA 757X2099
  0
TEXT
  8
TEXT
 10
476.916
 20
2179.138
 30
0.0
 40
30.0
 50
0.0
  1
(SPESSORE 5.25)
  0
TEXT
  8
TEXT
 10
96.57
 20
-198.536
 30
0.0
 40
30.0
 50
0.0
  1
LEGENDA LAVORAZIONI LASER:
  0
TEXT
  8
TEXT
 10
96.57
 20
-243.536
 30
0.0
 40
30.0
 50
0.0
  1

  0
TEXT
  8
TEXT
 10
96.57
 20
-288.536
 30
0.0
 40
30.0
 50
0.0
  1
[ V ] = FUGA A V DI 1.5-3 mm largh.
  0
TEXT
  8
TEXT
 10
96.57
 20
-333.536
 30
0.0
 40
30.0
 50
0.0
  1
[ X ] = AREA TRAFORO SECONDO SPECIFICHE ARCHITETTO
  0
TEXT
  8
TEXT
 10
96.57
 20
-378.536
 30
0.0
 40
30.0
 50
0.0
  1

  0
TEXT
  8
TEXT
 10
96.57
 20
-423.536
 30
0.0
 40
30.0
 50
0.0
  1
LEGENDA LAVORAZIONI MANUALI
  0
TEXT
  8
TEXT
 10
96.57
 20
-468.536
 30
0.0
 40
30.0
 50
0.0
  1

  0
TEXT
  8
TEXT
 10
96.57
 20
-513.536
 30
0.0
 40
30.0
 50
0.0
  1
[ M ] = SPIGOLARE MANUALAMENTE
  0
TEXT
  8
TEXT
 10
-68.048
 20
-572.56
 30
0.0
 40
20.0
 50
0.0
  1
Ufficio tecnico:
  0
TEXT
  8
TEXT
 10
425.3
 20
-696.902
 30
0.0
 40
25.0
 50
0.0
  1
tel. 0577-68.54.26 - fax 0577-68.64.29
  0
TEXT
  8
TEXT
 10
425.3
 20
-734.402
 30
0.0
 40
25.0
 50
0.0
  1
e-mail: tecnico@toscocornici.it - web: www.tosococornici.it
  0
TEXT
  8
TEXT
 10
1036.39
 20
-726.094
 30
0.0
 40
40.0
 50
0.0
  1
B.Ste
  0
TEXT
  8
TEXT
 10
1184.809
 20
-726.094
 30
0.0
 40
40.0
 50
0.0
  1
f
  0
TEXT
  8
TEXT
 10
1215.494
 20
-726.094
 30
0.0
 40
40.0
 50
0.0
  1
ano
  0
TEXT
  8
TEXT
 10
932.17
 20
-569.598
 30
0.0
 40
20.0
 50
0.0
  1
documento:
  0
TEXT
  8
TEXT
 10
1433.371
 20
-569.512
 30
0.0
 40
20.0
 50
0.0
  1
data:
  0
TEXT
  8
TEXT
 10
1682.47
 20
-621.004
 30
0.0
 40
30.0
 50
0.0
  1
21/03/16
  0
TEXT
  8
TEXT
 10
1691.224
 20
-721.713
 30
0.0
 40
30.0
 50
0.0
  1
1 : 10
  0
TEXT
  8
TEXT
 10
930.357
 20
-667.822
 30
0.0
 40
20.0
 50
0.0
  1
responsabile tecnico:
  0
TEXT
  8
TEXT
 10
1431.952
 20
-668.112
 30
0.0
 40
20.0
 50
0.0
  1
scala:
  0
TEXT
  8
QUOTATURA
 10
-40.333
 20
1011.859
 30
0.0
 40
20.0
 50
0.0
  1
50
  0
TEXT
  8
QUOTATURA
 10
-65.491
 20
960.367
 30
0.0
 40
20.0
 50
0.0
  1
64.5
  0
TEXT
  8
TEXT
 10
1175.826
 20
-622.719
 30
0.0
 40
17.0
 50
0.0
  1
PORTALAPORTA_STD-V_LASER_L726H2099
  0
TEXT
  8
QUOTATURA
 10
143.473
 20
-62.629
 30
0.0
 40
20.0
 50
0.0
  1
80
  0
TEXT
  8
QUOTATURA
 10
144.551
 20
2220.659
 30
0.0
 40
20.0
 50
0.0
  1
80
  0
TEXT
  8
TEXT
 10
23.157
 20
2600.159
 30
0.0
 40
30.0
 50
0.0
  1
RIF.
  0
TEXT
  8
TEXT
 10
276.379
 20
2600.159
 30
0.0
 40
30.0
 50
0.0
  1
QUANTITA'
  0
TEXT
  8
TEXT
 10
654.55
 20
2600.159
 30
0.0
 40
30.0
 50
0.0
  1
ESSENZA
  0
TEXT
  8
TEXT
 10
1100.848
 20
2600.159
 30
0.0
 40
30.0
 50
0.0
  1
MODELLO
  0
TEXT
  8
TEXT
 10
1453.972
 20
2600.159
 30
0.0
 40
30.0
 50
0.0
  1
CONSEGNA ENTRO IL
  0
TEXT
  8
TEXT
 10
-55.983
 20
2400.159
 30
0.0
 40
30.0
 50
0.0
  1
MANO APERTURA
  0
TEXT
  8
TEXT
 10
379.838
 20
2407.23
 30
0.0
 40
30.0
 50
0.0
  1
BATTENTE
  0
TEXT
  8
TEXT
 10
-71.998
 20
2313.187
 30
0.0
 40
50.0
 50
0.0
  1
SX
  0
TEXT
  8
TEXT
 10
156.205
 20
2313.187
 30
0.0
 40
50.0
 50
0.0
  1
DX
  0
TEXT
  8
TEXT
 10
223.63
 20
1707.29
 30
0.0
 40
200.0
 50
0.0
  1
SX
  0
TEXT
  8
TEXT
 10
591.511
 20
1460.583
 30
0.0
 40
200.0
 50
0.0
  1
  
  0
TEXT
  8
TEXT
 10
981.231
 20
1772.393
 30
0.0
 40
200.0
 50
0.0
  1
 
  0
TEXT
  8
TEXT
 10
1167.725
 20
1723.307
 30
0.0
 40
200.0
 50
0.0
  1
 DX
  0
TEXT
  8
TEXT
 10
-565.137
 20
1155.438
 30
0.0
 40
30.0
 50
0.0
  1
ISOLE
  0
TEXT
  8
TEXT
 10
-565.137
 20
1110.438
 30
0.0
 40
30.0
 50
0.0
  1
NON FORARE
  0
TEXT
  8
QUOTATURA
 10
355.008
 20
-141.676
 30
0.0
 40
30.0
 50
0.0
  1
726
  0
TEXT
  8
QUOTATURA
 10
-181.321
 20
1489.988
 30
0.0
 40
30.0
 50
0.0
  1
2099
  0
TEXT
  8
QUOTATURA
 10
839.934
 20
222.125
 30
0.0
 40
30.0
 50
0.0
  1
474.25
  0
TEXT
  8
QUOTATURA
 10
843.658
 20
746.875
 30
0.0
 40
30.0
 50
0.0
  1
575.25
  0
TEXT
  8
QUOTATURA
 10
843.055
 20
1322.125
 30
0.0
 40
30.0
 50
0.0
  1
575.25
  0
TEXT
  8
QUOTATURA
 10
837.051
 20
1846.875
 30
0.0
 40
30.0
 50
0.0
  1
474.25
  0
ENDSEC
  0
EOF
