  0
SECTION
  2
ENTITIES
  0
CIRCLE
  8
COSTRUZIONI
 10
2954.900128
 20
474.25
 40
15.0
  0
LINE
  8
COSTRUZIONI
 10
2962.400128
 11
2947.400128
 20
474.25
 21
474.25
  0
CIRCLE
  8
COSTRUZIONI
 10
2954.900128
 20
1049.5
 40
15.0
  0
LINE
  8
COSTRUZIONI
 10
2962.400128
 11
2947.400128
 20
1049.5
 21
1049.5
  0
CIRCLE
  8
COSTRUZIONI
 10
2954.900128
 20
1624.75
 40
15.0
  0
CIRCLE
  8
COSTRUZIONI
 10
2954.900128
 20
474.25
 40
15.0
  0
CIRCLE
  8
COSTRUZIONI
 10
2954.900128
 20
1049.5
 40
15.0
  0
CIRCLE
  8
COSTRUZIONI
 10
2954.900128
 20
1624.75
 40
15.0
  0
LINE
  8
COSTRUZIONI
 10
2512.900128
 11
3396.900128
 20
2094.5
 21
2094.5
  0
LINE
  8
COSTRUZIONI
 10
3396.900128
 11
3396.900128
 20
2094.5
 21
4.5
  0
LINE
  8
COSTRUZIONI
 10
3396.900128
 11
2512.900128
 20
4.5
 21
4.5
  0
LINE
  8
COSTRUZIONI
 10
2512.900128
 11
2512.900128
 20
4.5
 21
2094.5
  0
LINE
  8
COSTRUZIONI
 10
3282.400128
 11
3282.400128
 20
1124.030238
 21
1964.5
  0
LINE
  8
COSTRUZIONI
 10
3282.400128
 11
2627.400128
 20
1964.5
 21
1964.5
  0
LINE
  8
COSTRUZIONI
 10
2627.400128
 11
2627.400128
 20
1964.5
 21
134.5
  0
LINE
  8
COSTRUZIONI
 10
2627.400128
 11
3282.400128
 20
134.5
 21
134.5
  0
LINE
  8
COSTRUZIONI
 10
3282.400128
 11
3282.400128
 20
134.5
 21
844.428204
  0
LINE
  8
COSTRUZIONI
 10
3282.400128
 11
3204.329866
 20
844.428204
 21
889.106648
  0
LINE
  8
COSTRUZIONI
 10
3204.329866
 11
3282.400128
 20
889.106648
 21
1124.030238
  0
LINE
  8
COSTRUZIONI
 10
3332.400128
 11
3332.400128
 20
1115.939716
 21
2014.5
  0
LINE
  8
COSTRUZIONI
 10
3332.400128
 11
2577.400128
 20
2014.5
 21
2014.5
  0
LINE
  8
COSTRUZIONI
 10
2577.400128
 11
2577.400128
 20
2014.5
 21
84.5
  0
LINE
  8
COSTRUZIONI
 10
2577.400128
 11
3332.400128
 20
84.5
 21
84.5
  0
LINE
  8
COSTRUZIONI
 10
3332.400128
 11
3332.400128
 20
84.5
 21
873.422766
  0
LINE
  8
COSTRUZIONI
 10
3332.400128
 11
3264.684734
 20
873.422766
 21
912.175273
  0
LINE
  8
COSTRUZIONI
 10
3264.684734
 11
3332.400128
 20
912.175273
 21
1115.939716
  0
LINE
  8
COSTRUZIONI
 10
2962.400128
 11
2947.400128
 20
474.25
 21
474.25
  0
LINE
  8
COSTRUZIONI
 10
2962.400128
 11
2947.400128
 20
1049.5
 21
1049.5
  0
LINE
  8
COSTRUZIONI
 10
2627.400128
 11
3282.400128
 20
1964.5
 21
134.5
  0
LINE
  8
COSTRUZIONI
 10
2627.400128
 11
3282.400128
 20
134.5
 21
1964.5
  0
CIRCLE
  8
COSTRUZIONI
 10
4241.760465
 20
474.25
 40
15.0
  0
LINE
  8
COSTRUZIONI
 10
4234.260465
 11
4249.260465
 20
474.25
 21
474.25
  0
CIRCLE
  8
COSTRUZIONI
 10
4241.760465
 20
1049.5
 40
15.0
  0
LINE
  8
COSTRUZIONI
 10
4234.260465
 11
4249.260465
 20
1049.5
 21
1049.5
  0
CIRCLE
  8
COSTRUZIONI
 10
4241.760465
 20
1624.75
 40
15.0
  0
CIRCLE
  8
COSTRUZIONI
 10
4241.760465
 20
474.25
 40
15.0
  0
CIRCLE
  8
COSTRUZIONI
 10
4241.760465
 20
1049.5
 40
15.0
  0
CIRCLE
  8
COSTRUZIONI
 10
4241.760465
 20
1624.75
 40
15.0
  0
LINE
  8
COSTRUZIONI
 10
4683.760465
 11
3799.760465
 20
2094.5
 21
2094.5
  0
LINE
  8
COSTRUZIONI
 10
3799.760465
 11
3799.760465
 20
2094.5
 21
4.5
  0
LINE
  8
COSTRUZIONI
 10
3799.760465
 11
4683.760465
 20
4.5
 21
4.5
  0
LINE
  8
COSTRUZIONI
 10
4683.760465
 11
4683.760465
 20
4.5
 21
2094.5
  0
LINE
  8
COSTRUZIONI
 10
3914.260465
 11
3914.260465
 20
1124.030238
 21
1964.5
  0
LINE
  8
COSTRUZIONI
 10
3914.260465
 11
4569.260465
 20
1964.5
 21
1964.5
  0
LINE
  8
COSTRUZIONI
 10
4569.260465
 11
4569.260465
 20
1964.5
 21
134.5
  0
LINE
  8
COSTRUZIONI
 10
4569.260465
 11
3914.260465
 20
134.5
 21
134.5
  0
LINE
  8
COSTRUZIONI
 10
3914.260465
 11
3914.260465
 20
134.5
 21
844.428204
  0
LINE
  8
COSTRUZIONI
 10
3914.260465
 11
3992.330727
 20
844.428204
 21
889.106648
  0
LINE
  8
COSTRUZIONI
 10
3992.330727
 11
3914.260465
 20
889.106648
 21
1124.030238
  0
LINE
  8
COSTRUZIONI
 10
3864.260465
 11
3864.260465
 20
1115.939716
 21
2014.5
  0
LINE
  8
COSTRUZIONI
 10
3864.260465
 11
4619.260465
 20
2014.5
 21
2014.5
  0
LINE
  8
COSTRUZIONI
 10
4619.260465
 11
4619.260465
 20
2014.5
 21
84.5
  0
LINE
  8
COSTRUZIONI
 10
4619.260465
 11
3864.260465
 20
84.5
 21
84.5
  0
LINE
  8
COSTRUZIONI
 10
3864.260465
 11
3864.260465
 20
84.5
 21
873.422766
  0
LINE
  8
COSTRUZIONI
 10
3864.260465
 11
3931.975859
 20
873.422766
 21
912.175273
  0
LINE
  8
COSTRUZIONI
 10
3931.975859
 11
3864.260465
 20
912.175273
 21
1115.939716
  0
LINE
  8
COSTRUZIONI
 10
4234.260465
 11
4249.260465
 20
474.25
 21
474.25
  0
LINE
  8
COSTRUZIONI
 10
4234.260465
 11
4249.260465
 20
1049.5
 21
1049.5
  0
LINE
  8
COSTRUZIONI
 10
4569.260465
 11
3914.260465
 20
1964.5
 21
134.5
  0
LINE
  8
COSTRUZIONI
 10
4569.260465
 11
3914.260465
 20
134.5
 21
1964.5
  0
ENDSEC
  0
EOF
