  0
SECTION
  2
ENTITIES
  0
CIRCLE
  8
COSTRUZIONI
 10
3058.900128
 20
1054.0
 40
15.0
  0
CIRCLE
  8
COSTRUZIONI
 10
3058.900128
 20
478.75
 40
15.0
  0
LINE
  8
COSTRUZIONI
 10
3066.400128
 11
3051.400128
 20
478.75
 21
478.75
  0
LINE
  8
COSTRUZIONI
 10
3066.400128
 11
3051.400128
 20
1054.0
 21
1054.0
  0
CIRCLE
  8
COSTRUZIONI
 10
3058.900128
 20
1629.25
 40
15.0
  0
LINE
  8
COSTRUZIONI
 10
2835.400128
 11
3282.400128
 20
1973.5
 21
134.5
  0
LINE
  8
COSTRUZIONI
 10
2835.400128
 11
3282.400128
 20
134.5
 21
1973.5
  0
LINE
  8
COSTRUZIONI
 10
3396.900128
 11
2720.900128
 20
4.5
 21
4.5
  0
LINE
  8
COSTRUZIONI
 10
2720.900128
 11
2720.900128
 20
4.5
 21
2103.5
  0
LINE
  8
COSTRUZIONI
 10
2720.900128
 11
3396.900128
 20
2103.5
 21
2103.5
  0
LINE
  8
COSTRUZIONI
 10
3396.900128
 11
3396.900128
 20
2103.5
 21
4.5
  0
LINE
  8
COSTRUZIONI
 10
2835.400128
 11
2835.400128
 20
1973.5
 21
134.5
  0
LINE
  8
COSTRUZIONI
 10
2835.400128
 11
3282.400128
 20
134.5
 21
134.5
  0
LINE
  8
COSTRUZIONI
 10
3282.400128
 11
3282.400128
 20
134.5
 21
844.428204
  0
LINE
  8
COSTRUZIONI
 10
3282.400128
 11
3204.329866
 20
844.428204
 21
889.106648
  0
LINE
  8
COSTRUZIONI
 10
3204.329866
 11
3282.400128
 20
889.106648
 21
1124.030238
  0
LINE
  8
COSTRUZIONI
 10
3282.400128
 11
3282.400128
 20
1124.030238
 21
1973.5
  0
LINE
  8
COSTRUZIONI
 10
3282.400128
 11
2835.400128
 20
1973.5
 21
1973.5
  0
LINE
  8
COSTRUZIONI
 10
2785.400128
 11
2785.400128
 20
2023.5
 21
84.5
  0
LINE
  8
COSTRUZIONI
 10
2785.400128
 11
3332.400128
 20
84.5
 21
84.5
  0
LINE
  8
COSTRUZIONI
 10
3332.400128
 11
3332.400128
 20
84.5
 21
873.422766
  0
LINE
  8
COSTRUZIONI
 10
3332.400128
 11
3264.684734
 20
873.422766
 21
912.175273
  0
LINE
  8
COSTRUZIONI
 10
3264.684734
 11
3332.400128
 20
912.175273
 21
1115.939716
  0
LINE
  8
COSTRUZIONI
 10
3332.400128
 11
3332.400128
 20
1115.939716
 21
2023.5
  0
LINE
  8
COSTRUZIONI
 10
3332.400128
 11
2785.400128
 20
2023.5
 21
2023.5
  0
CIRCLE
  8
COSTRUZIONI
 10
4083.643042
 20
1054.0
 40
15.0
  0
CIRCLE
  8
COSTRUZIONI
 10
4083.643042
 20
478.75
 40
15.0
  0
LINE
  8
COSTRUZIONI
 10
4076.143042
 11
4091.143042
 20
478.75
 21
478.75
  0
LINE
  8
COSTRUZIONI
 10
4076.143042
 11
4091.143042
 20
1054.0
 21
1054.0
  0
CIRCLE
  8
COSTRUZIONI
 10
4083.643042
 20
1629.25
 40
15.0
  0
LINE
  8
COSTRUZIONI
 10
4307.143042
 11
3860.143042
 20
1973.5
 21
134.5
  0
LINE
  8
COSTRUZIONI
 10
4307.143042
 11
3860.143042
 20
134.5
 21
1973.5
  0
LINE
  8
COSTRUZIONI
 10
3745.643042
 11
4421.643042
 20
4.5
 21
4.5
  0
LINE
  8
COSTRUZIONI
 10
4421.643042
 11
4421.643042
 20
4.5
 21
2103.5
  0
LINE
  8
COSTRUZIONI
 10
4421.643042
 11
3745.643042
 20
2103.5
 21
2103.5
  0
LINE
  8
COSTRUZIONI
 10
3745.643042
 11
3745.643042
 20
2103.5
 21
4.5
  0
LINE
  8
COSTRUZIONI
 10
4307.143042
 11
4307.143042
 20
1973.5
 21
134.5
  0
LINE
  8
COSTRUZIONI
 10
4307.143042
 11
3860.143042
 20
134.5
 21
134.5
  0
LINE
  8
COSTRUZIONI
 10
3860.143042
 11
3860.143042
 20
134.5
 21
844.428204
  0
LINE
  8
COSTRUZIONI
 10
3860.143042
 11
3938.213304
 20
844.428204
 21
889.106648
  0
LINE
  8
COSTRUZIONI
 10
3938.213304
 11
3860.143042
 20
889.106648
 21
1124.030238
  0
LINE
  8
COSTRUZIONI
 10
3860.143042
 11
3860.143042
 20
1124.030238
 21
1973.5
  0
LINE
  8
COSTRUZIONI
 10
3860.143042
 11
4307.143042
 20
1973.5
 21
1973.5
  0
LINE
  8
COSTRUZIONI
 10
4357.143042
 11
4357.143042
 20
2023.5
 21
84.5
  0
LINE
  8
COSTRUZIONI
 10
4357.143042
 11
3810.143042
 20
84.5
 21
84.5
  0
LINE
  8
COSTRUZIONI
 10
3810.143042
 11
3810.143042
 20
84.5
 21
873.422766
  0
LINE
  8
COSTRUZIONI
 10
3810.143042
 11
3877.858436
 20
873.422766
 21
912.175273
  0
LINE
  8
COSTRUZIONI
 10
3877.858436
 11
3810.143042
 20
912.175273
 21
1115.939716
  0
LINE
  8
COSTRUZIONI
 10
3810.143042
 11
3810.143042
 20
1115.939716
 21
2023.5
  0
LINE
  8
COSTRUZIONI
 10
3810.143042
 11
4357.143042
 20
2023.5
 21
2023.5
  0
ENDSEC
  0
EOF
