  0
SECTION
  2
ENTITIES
  0
LINE
  8
COSTRUZIONI
 10
756.0
 11
756.0
 20
2099.0
 21
0.0
  0
LINE
  8
COSTRUZIONI
 10
756.0
 11
30.0
 20
0.0
 21
0.0
  0
LINE
  8
COSTRUZIONI
 10
30.0
 11
30.0
 20
0.0
 21
2099.0
  0
LINE
  8
COSTRUZIONI
 10
30.0
 11
756.0
 20
2099.0
 21
2099.0
  0
LINE
  8
COSTRUZIONI
 10
144.5
 11
144.5
 20
1969.0
 21
130.0
  0
LINE
  8
COSTRUZIONI
 10
144.5
 11
641.5
 20
130.0
 21
130.0
  0
LINE
  8
COSTRUZIONI
 10
641.5
 11
641.5
 20
130.0
 21
839.928204
  0
LINE
  8
COSTRUZIONI
 10
641.5
 11
563.429738
 20
839.928204
 21
884.606648
  0
LINE
  8
COSTRUZIONI
 10
563.429738
 11
641.5
 20
884.606648
 21
1119.530238
  0
LINE
  8
COSTRUZIONI
 10
641.5
 11
641.5
 20
1119.530238
 21
1969.0
  0
LINE
  8
COSTRUZIONI
 10
641.5
 11
144.5
 20
1969.0
 21
1969.0
  0
LINE
  8
COSTRUZIONI
 10
94.5
 11
94.5
 20
2019.0
 21
80.0
  0
LINE
  8
COSTRUZIONI
 10
94.5
 11
691.5
 20
80.0
 21
80.0
  0
LINE
  8
COSTRUZIONI
 10
691.5
 11
691.5
 20
80.0
 21
868.922766
  0
LINE
  8
COSTRUZIONI
 10
691.5
 11
623.784606
 20
868.922766
 21
907.675273
  0
LINE
  8
COSTRUZIONI
 10
623.784606
 11
691.5
 20
907.675273
 21
1111.439716
  0
LINE
  8
COSTRUZIONI
 10
691.5
 11
691.5
 20
1111.439716
 21
2019.0
  0
LINE
  8
COSTRUZIONI
 10
691.5
 11
94.5
 20
2019.0
 21
2019.0
  0
LINE
  8
COSTRUZIONI
 10
144.5
 11
641.5
 20
130.0
 21
1969.0
  0
LINE
  8
COSTRUZIONI
 10
144.5
 11
641.5
 20
1969.0
 21
130.0
  0
CIRCLE
  8
COSTRUZIONI
 10
393.0
 20
474.25
 40
15.0
  0
LINE
  8
COSTRUZIONI
 10
400.5
 11
385.5
 20
474.25
 21
474.25
  0
CIRCLE
  8
COSTRUZIONI
 10
393.0
 20
1049.5
 40
15.0
  0
LINE
  8
COSTRUZIONI
 10
400.5
 11
385.5
 20
1049.5
 21
1049.5
  0
CIRCLE
  8
COSTRUZIONI
 10
393.0
 20
1624.75
 40
15.0
  0
LINE
  8
COSTRUZIONI
 10
1142.31742
 11
1142.31742
 20
2099.0
 21
0.0
  0
LINE
  8
COSTRUZIONI
 10
1142.31742
 11
1868.31742
 20
0.0
 21
0.0
  0
LINE
  8
COSTRUZIONI
 10
1868.31742
 11
1868.31742
 20
0.0
 21
2099.0
  0
LINE
  8
COSTRUZIONI
 10
1868.31742
 11
1142.31742
 20
2099.0
 21
2099.0
  0
LINE
  8
COSTRUZIONI
 10
1753.81742
 11
1753.81742
 20
1969.0
 21
130.0
  0
LINE
  8
COSTRUZIONI
 10
1753.81742
 11
1256.81742
 20
130.0
 21
130.0
  0
LINE
  8
COSTRUZIONI
 10
1256.81742
 11
1256.81742
 20
130.0
 21
839.928204
  0
LINE
  8
COSTRUZIONI
 10
1256.81742
 11
1334.887682
 20
839.928204
 21
884.606648
  0
LINE
  8
COSTRUZIONI
 10
1334.887682
 11
1256.81742
 20
884.606648
 21
1119.530238
  0
LINE
  8
COSTRUZIONI
 10
1256.81742
 11
1256.81742
 20
1119.530238
 21
1969.0
  0
LINE
  8
COSTRUZIONI
 10
1256.81742
 11
1753.81742
 20
1969.0
 21
1969.0
  0
LINE
  8
COSTRUZIONI
 10
1803.81742
 11
1803.81742
 20
2019.0
 21
80.0
  0
LINE
  8
COSTRUZIONI
 10
1803.81742
 11
1206.81742
 20
80.0
 21
80.0
  0
LINE
  8
COSTRUZIONI
 10
1206.81742
 11
1206.81742
 20
80.0
 21
868.922766
  0
LINE
  8
COSTRUZIONI
 10
1206.81742
 11
1274.532814
 20
868.922766
 21
907.675273
  0
LINE
  8
COSTRUZIONI
 10
1274.532814
 11
1206.81742
 20
907.675273
 21
1111.439716
  0
LINE
  8
COSTRUZIONI
 10
1206.81742
 11
1206.81742
 20
1111.439716
 21
2019.0
  0
LINE
  8
COSTRUZIONI
 10
1206.81742
 11
1803.81742
 20
2019.0
 21
2019.0
  0
LINE
  8
COSTRUZIONI
 10
1753.81742
 11
1256.81742
 20
130.0
 21
1969.0
  0
LINE
  8
COSTRUZIONI
 10
1753.81742
 11
1256.81742
 20
1969.0
 21
130.0
  0
CIRCLE
  8
COSTRUZIONI
 10
1505.31742
 20
474.25
 40
15.0
  0
LINE
  8
COSTRUZIONI
 10
1497.81742
 11
1512.81742
 20
474.25
 21
474.25
  0
CIRCLE
  8
COSTRUZIONI
 10
1505.31742
 20
1049.5
 40
15.0
  0
LINE
  8
COSTRUZIONI
 10
1497.81742
 11
1512.81742
 20
1049.5
 21
1049.5
  0
CIRCLE
  8
COSTRUZIONI
 10
1505.31742
 20
1624.75
 40
15.0
  0
ENDSEC
  0
EOF
