  0
SECTION
  2
ENTITIES
  0
CIRCLE
  8
COSTRUZIONI
 10
3079.900128
 20
399.25
 40
15.0
  0
CIRCLE
  8
COSTRUZIONI
 10
3079.900128
 20
974.5
 40
15.0
  0
CIRCLE
  8
COSTRUZIONI
 10
3079.900128
 20
1549.75
 40
15.0
  0
LINE
  8
COSTRUZIONI
 10
3282.400128
 11
3282.400128
 20
1124.030238
 21
1814.5
  0
LINE
  8
COSTRUZIONI
 10
3282.400128
 11
3282.400128
 20
1944.5
 21
1946.5
  0
LINE
  8
COSTRUZIONI
 10
3332.400128
 11
3332.400128
 20
1115.939716
 21
1864.5
  0
LINE
  8
COSTRUZIONI
 10
3396.900128
 11
3396.900128
 20
1944.5
 21
4.5
  0
LINE
  8
COSTRUZIONI
 10
3396.900128
 11
2762.900128
 20
4.5
 21
4.5
  0
LINE
  8
COSTRUZIONI
 10
2762.900128
 11
2762.900128
 20
4.5
 21
1944.5
  0
LINE
  8
COSTRUZIONI
 10
2762.900128
 11
3396.900128
 20
1944.5
 21
1944.5
  0
LINE
  8
COSTRUZIONI
 10
3282.400128
 11
2877.400128
 20
1814.5
 21
1814.5
  0
LINE
  8
COSTRUZIONI
 10
2877.400128
 11
2877.400128
 20
1814.5
 21
134.5
  0
LINE
  8
COSTRUZIONI
 10
2877.400128
 11
3282.400128
 20
134.5
 21
134.5
  0
LINE
  8
COSTRUZIONI
 10
3282.400128
 11
3282.400128
 20
134.5
 21
844.428204
  0
LINE
  8
COSTRUZIONI
 10
3282.400128
 11
3204.329866
 20
844.428204
 21
889.106648
  0
LINE
  8
COSTRUZIONI
 10
3204.329866
 11
3282.400128
 20
889.106648
 21
1124.030238
  0
LINE
  8
COSTRUZIONI
 10
3332.400128
 11
2827.400128
 20
1864.5
 21
1864.5
  0
LINE
  8
COSTRUZIONI
 10
2827.400128
 11
2827.400128
 20
1864.5
 21
84.5
  0
LINE
  8
COSTRUZIONI
 10
2827.400128
 11
3332.400128
 20
84.5
 21
84.5
  0
LINE
  8
COSTRUZIONI
 10
3332.400128
 11
3332.400128
 20
84.5
 21
873.422766
  0
LINE
  8
COSTRUZIONI
 10
3332.400128
 11
3264.684734
 20
873.422766
 21
912.175273
  0
LINE
  8
COSTRUZIONI
 10
3264.684734
 11
3332.400128
 20
912.175273
 21
1115.939716
  0
LINE
  8
COSTRUZIONI
 10
2877.400128
 11
3282.400128
 20
1814.5
 21
134.5
  0
LINE
  8
COSTRUZIONI
 10
2877.400128
 11
3282.400128
 20
134.5
 21
1814.5
  0
CIRCLE
  8
COSTRUZIONI
 10
4149.777028
 20
399.25
 40
15.0
  0
CIRCLE
  8
COSTRUZIONI
 10
4149.777028
 20
974.5
 40
15.0
  0
CIRCLE
  8
COSTRUZIONI
 10
4149.777028
 20
1549.75
 40
15.0
  0
LINE
  8
COSTRUZIONI
 10
3947.277028
 11
3947.277028
 20
1124.030238
 21
1814.5
  0
LINE
  8
COSTRUZIONI
 10
3897.277028
 11
3897.277028
 20
1115.939716
 21
1864.5
  0
LINE
  8
COSTRUZIONI
 10
3832.777028
 11
3832.777028
 20
1944.5
 21
4.5
  0
LINE
  8
COSTRUZIONI
 10
3832.777028
 11
4466.777028
 20
4.5
 21
4.5
  0
LINE
  8
COSTRUZIONI
 10
4466.777028
 11
4466.777028
 20
4.5
 21
1944.5
  0
LINE
  8
COSTRUZIONI
 10
4466.777028
 11
3832.777028
 20
1944.5
 21
1944.5
  0
LINE
  8
COSTRUZIONI
 10
3947.277028
 11
4352.277028
 20
1814.5
 21
1814.5
  0
LINE
  8
COSTRUZIONI
 10
4352.277028
 11
4352.277028
 20
1814.5
 21
134.5
  0
LINE
  8
COSTRUZIONI
 10
4352.277028
 11
3947.277028
 20
134.5
 21
134.5
  0
LINE
  8
COSTRUZIONI
 10
3947.277028
 11
3947.277028
 20
134.5
 21
844.428204
  0
LINE
  8
COSTRUZIONI
 10
3947.277028
 11
4025.34729
 20
844.428204
 21
889.106648
  0
LINE
  8
COSTRUZIONI
 10
4025.34729
 11
3947.277028
 20
889.106648
 21
1124.030238
  0
LINE
  8
COSTRUZIONI
 10
3897.277028
 11
4402.277028
 20
1864.5
 21
1864.5
  0
LINE
  8
COSTRUZIONI
 10
4402.277028
 11
4402.277028
 20
1864.5
 21
84.5
  0
LINE
  8
COSTRUZIONI
 10
4402.277028
 11
3897.277028
 20
84.5
 21
84.5
  0
LINE
  8
COSTRUZIONI
 10
3897.277028
 11
3897.277028
 20
84.5
 21
873.422766
  0
LINE
  8
COSTRUZIONI
 10
3897.277028
 11
3964.992422
 20
873.422766
 21
912.175273
  0
LINE
  8
COSTRUZIONI
 10
3964.992422
 11
3897.277028
 20
912.175273
 21
1115.939716
  0
LINE
  8
COSTRUZIONI
 10
4352.277028
 11
3947.277028
 20
1814.5
 21
134.5
  0
LINE
  8
COSTRUZIONI
 10
4352.277028
 11
3947.277028
 20
134.5
 21
1814.5
  0
ENDSEC
  0
EOF
