  0
SECTION
  2
ENTITIES
  0
LINE
  8
COSTRUZIONI
 10
2500.900128
 11
2500.900128
 20
4.5
 21
2113.5
  0
LINE
  8
COSTRUZIONI
 10
3396.900128
 11
3396.900128
 20
2113.5
 21
4.5
  0
LINE
  8
COSTRUZIONI
 10
3396.900128
 11
2612.900128
 20
4.5
 21
4.5
  0
LINE
  8
COSTRUZIONI
 10
2727.400128
 11
3282.400128
 20
134.5
 21
134.5
  0
LINE
  8
COSTRUZIONI
 10
3282.400128
 11
3282.400128
 20
134.5
 21
844.428204
  0
LINE
  8
COSTRUZIONI
 10
3282.400128
 11
3204.329866
 20
844.428204
 21
889.106648
  0
LINE
  8
COSTRUZIONI
 10
3204.329866
 11
3282.400128
 20
889.106648
 21
1124.030238
  0
LINE
  8
COSTRUZIONI
 10
3282.400128
 11
3282.400128
 20
1124.030238
 21
1983.5
  0
LINE
  8
COSTRUZIONI
 10
2565.400128
 11
2565.400128
 20
84.5
 21
2033.5
  0
LINE
  8
COSTRUZIONI
 10
3332.400128
 11
3332.400128
 20
2033.5
 21
1115.939716
  0
LINE
  8
COSTRUZIONI
 10
3332.400128
 11
3264.684734
 20
1115.939716
 21
912.175273
  0
LINE
  8
COSTRUZIONI
 10
3264.684734
 11
3332.400128
 20
912.175273
 21
873.422766
  0
LINE
  8
COSTRUZIONI
 10
3332.400128
 11
3332.400128
 20
873.422766
 21
84.5
  0
LINE
  8
COSTRUZIONI
 10
3332.400128
 11
2677.400128
 20
84.5
 21
84.5
  0
CIRCLE
  8
COSTRUZIONI
 10
2948.900128
 20
483.75
 40
15.0
  0
LINE
  8
COSTRUZIONI
 10
2956.400128
 11
2941.400128
 20
483.75
 21
483.75
  0
CIRCLE
  8
COSTRUZIONI
 10
2948.900128
 20
1059.0
 40
15.0
  0
LINE
  8
COSTRUZIONI
 10
2956.400128
 11
2941.400128
 20
1059.0
 21
1059.0
  0
CIRCLE
  8
COSTRUZIONI
 10
2948.900128
 20
1634.25
 40
15.0
  0
CIRCLE
  8
COSTRUZIONI
 10
2948.900128
 20
483.75
 40
15.0
  0
CIRCLE
  8
COSTRUZIONI
 10
2948.900128
 20
1059.0
 40
15.0
  0
CIRCLE
  8
COSTRUZIONI
 10
2948.900128
 20
1634.25
 40
15.0
  0
LINE
  8
COSTRUZIONI
 10
3396.900128
 11
3396.900128
 20
2113.5
 21
4.5
  0
LINE
  8
COSTRUZIONI
 10
3396.900128
 11
2500.900128
 20
4.5
 21
4.5
  0
LINE
  8
COSTRUZIONI
 10
2500.900128
 11
2500.900128
 20
4.5
 21
2113.5
  0
LINE
  8
COSTRUZIONI
 10
2500.900128
 11
3396.900128
 20
2113.5
 21
2113.5
  0
LINE
  8
COSTRUZIONI
 10
3282.400128
 11
2615.400128
 20
134.5
 21
134.5
  0
LINE
  8
COSTRUZIONI
 10
2615.400128
 11
2615.400128
 20
134.5
 21
1983.5
  0
LINE
  8
COSTRUZIONI
 10
2615.400128
 11
3282.400128
 20
1983.5
 21
1983.5
  0
LINE
  8
COSTRUZIONI
 10
3282.400128
 11
3282.400128
 20
1983.5
 21
1124.030238
  0
LINE
  8
COSTRUZIONI
 10
3282.400128
 11
3204.329866
 20
1124.030238
 21
889.106648
  0
LINE
  8
COSTRUZIONI
 10
3204.329866
 11
3282.400128
 20
889.106648
 21
844.428204
  0
LINE
  8
COSTRUZIONI
 10
3282.400128
 11
3282.400128
 20
844.428204
 21
134.5
  0
LINE
  8
COSTRUZIONI
 10
3332.400128
 11
3332.400128
 20
2033.5
 21
1115.939716
  0
LINE
  8
COSTRUZIONI
 10
3332.400128
 11
3264.684734
 20
1115.939716
 21
912.175273
  0
LINE
  8
COSTRUZIONI
 10
3264.684734
 11
3332.400128
 20
912.175273
 21
873.422766
  0
LINE
  8
COSTRUZIONI
 10
3332.400128
 11
3332.400128
 20
873.422766
 21
84.5
  0
LINE
  8
COSTRUZIONI
 10
3332.400128
 11
2565.400128
 20
84.5
 21
84.5
  0
LINE
  8
COSTRUZIONI
 10
2565.400128
 11
2565.400128
 20
84.5
 21
2033.5
  0
LINE
  8
COSTRUZIONI
 10
2565.400128
 11
3332.400128
 20
2033.5
 21
2033.5
  0
LINE
  8
COSTRUZIONI
 10
2956.400128
 11
2941.400128
 20
483.75
 21
483.75
  0
LINE
  8
COSTRUZIONI
 10
2956.400128
 11
2941.400128
 20
1059.0
 21
1059.0
  0
LINE
  8
COSTRUZIONI
 10
2615.400128
 11
3282.400128
 20
1983.5
 21
134.5
  0
LINE
  8
COSTRUZIONI
 10
2615.400128
 11
3282.400128
 20
134.5
 21
1983.5
  0
CIRCLE
  8
COSTRUZIONI
 10
4126.258739
 20
483.75
 40
15.0
  0
LINE
  8
COSTRUZIONI
 10
4118.758739
 11
4133.758739
 20
483.75
 21
483.75
  0
CIRCLE
  8
COSTRUZIONI
 10
4126.258739
 20
1059.0
 40
15.0
  0
LINE
  8
COSTRUZIONI
 10
4118.758739
 11
4133.758739
 20
1059.0
 21
1059.0
  0
CIRCLE
  8
COSTRUZIONI
 10
4126.258739
 20
1634.25
 40
15.0
  0
CIRCLE
  8
COSTRUZIONI
 10
4126.258739
 20
483.75
 40
15.0
  0
CIRCLE
  8
COSTRUZIONI
 10
4126.258739
 20
1059.0
 40
15.0
  0
CIRCLE
  8
COSTRUZIONI
 10
4126.258739
 20
1634.25
 40
15.0
  0
LINE
  8
COSTRUZIONI
 10
3678.258739
 11
3678.258739
 20
2113.5
 21
4.5
  0
LINE
  8
COSTRUZIONI
 10
3678.258739
 11
4574.258739
 20
4.5
 21
4.5
  0
LINE
  8
COSTRUZIONI
 10
4574.258739
 11
4574.258739
 20
4.5
 21
2113.5
  0
LINE
  8
COSTRUZIONI
 10
4574.258739
 11
3678.258739
 20
2113.5
 21
2113.5
  0
LINE
  8
COSTRUZIONI
 10
3792.758739
 11
4459.758739
 20
134.5
 21
134.5
  0
LINE
  8
COSTRUZIONI
 10
4459.758739
 11
4459.758739
 20
134.5
 21
1983.5
  0
LINE
  8
COSTRUZIONI
 10
4459.758739
 11
3792.758739
 20
1983.5
 21
1983.5
  0
LINE
  8
COSTRUZIONI
 10
3792.758739
 11
3792.758739
 20
1983.5
 21
1124.030238
  0
LINE
  8
COSTRUZIONI
 10
3792.758739
 11
3870.829001
 20
1124.030238
 21
889.106648
  0
LINE
  8
COSTRUZIONI
 10
3870.829001
 11
3792.758739
 20
889.106648
 21
844.428204
  0
LINE
  8
COSTRUZIONI
 10
3792.758739
 11
3792.758739
 20
844.428204
 21
134.5
  0
LINE
  8
COSTRUZIONI
 10
3742.758739
 11
3742.758739
 20
2033.5
 21
1115.939716
  0
LINE
  8
COSTRUZIONI
 10
3742.758739
 11
3810.474133
 20
1115.939716
 21
912.175273
  0
LINE
  8
COSTRUZIONI
 10
3810.474133
 11
3742.758739
 20
912.175273
 21
873.422766
  0
LINE
  8
COSTRUZIONI
 10
3742.758739
 11
3742.758739
 20
873.422766
 21
84.5
  0
LINE
  8
COSTRUZIONI
 10
3742.758739
 11
4509.758739
 20
84.5
 21
84.5
  0
LINE
  8
COSTRUZIONI
 10
4509.758739
 11
4509.758739
 20
84.5
 21
2033.5
  0
LINE
  8
COSTRUZIONI
 10
4509.758739
 11
3742.758739
 20
2033.5
 21
2033.5
  0
LINE
  8
COSTRUZIONI
 10
4118.758739
 11
4133.758739
 20
483.75
 21
483.75
  0
LINE
  8
COSTRUZIONI
 10
4118.758739
 11
4133.758739
 20
1059.0
 21
1059.0
  0
LINE
  8
COSTRUZIONI
 10
4459.758739
 11
3792.758739
 20
1983.5
 21
134.5
  0
LINE
  8
COSTRUZIONI
 10
4459.758739
 11
3792.758739
 20
134.5
 21
1983.5
  0
ENDSEC
  0
EOF
