  0
SECTION
  2
ENTITIES
  0
LINE
  8
COSTRUZIONI
 10
2521.636
 11
4521.636
 20
-738.032
 21
-738.032
  0
LINE
  8
COSTRUZIONI
 10
4521.636
 11
4521.636
 20
-738.032
 21
-538.032
  0
LINE
  8
COSTRUZIONI
 10
4521.636
 11
2521.636
 20
-538.032
 21
-538.032
  0
LINE
  8
COSTRUZIONI
 10
2521.636
 11
2521.636
 20
-538.032
 21
-738.032
  0
LINE
  8
COSTRUZIONI
 10
3521.636
 11
3521.636
 20
-738.032
 21
-538.032
  0
LINE
  8
COSTRUZIONI
 10
3521.636
 11
4521.636
 20
-638.032
 21
-638.032
  0
LINE
  8
COSTRUZIONI
 10
4021.636
 11
4021.636
 20
-738.032
 21
-538.032
  0
LINE
  8
APS_GEOMETRY
 10
2584.321
 11
2601.556
 20
-592.017
 21
-592.017
  0
ARC
  8
APS_GEOMETRY
 10
2600.684
 20
-567.322
 40
24.711
 50
272.021
 51
278.44
  0
ARC
  8
APS_GEOMETRY
 10
2601.657
 20
-573.877
 40
18.083
 50
278.44
 51
285.945
  0
ARC
  8
APS_GEOMETRY
 10
2608.974
 20
-600.075
 40
9.118
 50
98.584
 51
104.931
  0
ARC
  8
APS_GEOMETRY
 10
2608.358
 20
-595.994
 40
4.991
 50
90.0
 51
98.584
  0
ARC
  8
APS_GEOMETRY
 10
2608.358
 20
-594.755
 40
3.752
 50
52.871
 51
90.0
  0
ARC
  8
APS_GEOMETRY
 10
2603.269
 20
-601.476
 40
12.182
 50
32.518
 51
52.871
  0
ARC
  8
APS_GEOMETRY
 10
2599.238
 20
-604.046
 40
16.963
 50
17.209
 51
32.518
  0
ARC
  8
APS_GEOMETRY
 10
2602.598
 20
-603.006
 40
13.445
 50
360.0
 51
17.209
  0
ARC
  8
APS_GEOMETRY
 10
2609.326
 20
-603.006
 40
6.717
 50
337.348
 51
360.0
  0
ARC
  8
APS_GEOMETRY
 10
2612.026
 20
-604.132
 40
3.792
 50
307.042
 51
337.348
  0
ARC
  8
APS_GEOMETRY
 10
2611.557
 20
-603.488
 40
4.589
 50
287.186
 51
306.87
  0
ARC
  8
APS_GEOMETRY
 10
2611.138
 20
-602.134
 40
6.006
 50
270.0
 51
287.186
  0
ARC
  8
APS_GEOMETRY
 10
2611.138
 20
-602.747
 40
5.393
 50
252.221
 51
270.0
  0
ARC
  8
APS_GEOMETRY
 10
2610.887
 20
-603.53
 40
4.571
 50
232.896
 51
252.221
  0
ARC
  8
APS_GEOMETRY
 10
2611.857
 20
-602.247
 40
6.18
 50
218.3
 51
232.896
  0
ARC
  8
APS_GEOMETRY
 10
2619.438
 20
-596.26
 40
15.839
 50
209.197
 51
218.3
  0
ARC
  8
APS_GEOMETRY
 10
2580.884
 20
-617.148
 40
28.012
 50
28.025
 51
32.699
  0
ARC
  8
APS_GEOMETRY
 10
2601.04
 20
-604.208
 40
4.06
 50
32.699
 51
45.0
  0
ARC
  8
APS_GEOMETRY
 10
2602.414
 20
-602.834
 40
2.116
 50
45.0
 51
67.557
  0
ARC
  8
APS_GEOMETRY
 10
2602.406
 20
-602.854
 40
2.137
 50
67.557
 51
90.0
  0
ARC
  8
APS_GEOMETRY
 10
2602.406
 20
-602.685
 40
1.969
 50
90.0
 51
120.801
  0
ARC
  8
APS_GEOMETRY
 10
2602.339
 20
-602.574
 40
1.839
 50
120.801
 51
152.7
  0
ARC
  8
APS_GEOMETRY
 10
2603.798
 20
-603.327
 40
3.481
 50
152.7
 51
171.085
  0
ARC
  8
APS_GEOMETRY
 10
2614.887
 20
-605.066
 40
14.705
 50
171.085
 51
180.0
  0
LINE
  8
APS_GEOMETRY
 10
2600.182
 11
2600.182
 20
-605.066
 21
-623.38
  0
ARC
  8
APS_GEOMETRY
 10
2619.609
 20
-623.38
 40
19.427
 50
180.0
 51
188.194
  0
ARC
  8
APS_GEOMETRY
 10
2605.102
 20
-625.469
 40
4.77
 50
188.194
 51
204.775
  0
ARC
  8
APS_GEOMETRY
 10
2603.692
 20
-626.12
 40
3.218
 50
204.775
 51
228.576
  0
ARC
  8
APS_GEOMETRY
 10
2605.015
 20
-624.621
 40
5.216
 50
228.576
 51
247.218
  0
ARC
  8
APS_GEOMETRY
 10
2597.346
 20
-642.693
 40
14.416
 50
59.381
 51
66.93
  0
ARC
  8
APS_GEOMETRY
 10
2603.007
 20
-633.128
 40
3.301
 50
43.568
 51
59.381
  0
ARC
  8
APS_GEOMETRY
 10
2603.912
 20
-632.266
 40
2.051
 50
19.041
 51
43.568
  0
ARC
  8
APS_GEOMETRY
 10
2602.654
 20
-632.7
 40
3.382
 50
360.0
 51
19.041
  0
ARC
  8
APS_GEOMETRY
 10
2603.289
 20
-632.7
 40
2.747
 50
317.66
 51
360.0
  0
ARC
  8
APS_GEOMETRY
 10
2600.766
 20
-630.402
 40
6.16
 50
289.747
 51
317.66
  0
ARC
  8
APS_GEOMETRY
 10
2598.654
 20
-624.517
 40
12.412
 50
281.964
 51
289.747
  0
ARC
  8
APS_GEOMETRY
 10
2595.727
 20
-610.705
 40
26.531
 50
276.643
 51
281.964
  0
ARC
  8
APS_GEOMETRY
 10
2594.495
 20
-600.13
 40
37.178
 50
272.836
 51
276.643
  0
ARC
  8
APS_GEOMETRY
 10
2593.02
 20
-570.354
 40
66.99
 50
270.0
 51
272.836
  0
ARC
  8
APS_GEOMETRY
 10
2593.02
 20
-551.904
 40
85.44
 50
267.283
 51
270.0
  0
ARC
  8
APS_GEOMETRY
 10
2591.226
 20
-589.707
 40
47.595
 50
263.643
 51
267.283
  0
ARC
  8
APS_GEOMETRY
 10
2589.724
 20
-603.191
 40
34.027
 50
258.563
 51
263.643
  0
ARC
  8
APS_GEOMETRY
 10
2586.135
 20
-620.93
 40
15.929
 50
251.136
 51
258.563
  0
ARC
  8
APS_GEOMETRY
 10
2582.931
 20
-630.223
 40
6.099
 50
222.558
 51
251.395
  0
ARC
  8
APS_GEOMETRY
 10
2580.554
 20
-632.406
 40
2.871
 50
180.0
 51
222.558
  0
ARC
  8
APS_GEOMETRY
 10
2580.074
 20
-632.406
 40
2.392
 50
150.642
 51
180.0
  0
ARC
  8
APS_GEOMETRY
 10
2580.266
 20
-632.514
 40
2.612
 50
122.574
 51
150.642
  0
ARC
  8
APS_GEOMETRY
 10
2579.759
 20
-631.932
 40
1.851
 50
108.677
 51
119.055
  0
ARC
  8
APS_GEOMETRY
 10
2602.874
 20
-700.315
 40
74.036
 50
107.038
 51
108.677
  0
ARC
  8
APS_GEOMETRY
 10
2580.32
 20
-626.552
 40
3.099
 50
286.144
 51
308.66
  0
ARC
  8
APS_GEOMETRY
 10
2580.827
 20
-627.186
 40
2.287
 50
308.66
 51
334.933
  0
ARC
  8
APS_GEOMETRY
 10
2578.763
 20
-626.22
 40
4.566
 50
334.933
 51
348.829
  0
ARC
  8
APS_GEOMETRY
 10
2552.937
 20
-621.12
 40
30.891
 50
348.829
 51
354.161
  0
ARC
  8
APS_GEOMETRY
 10
2535.481
 20
-619.321
 40
48.439
 50
354.144
 51
355.66
  0
ARC
  8
APS_GEOMETRY
 10
2458.104
 20
-613.449
 40
126.038
 50
355.66
 51
356.6
  0
ARC
  8
APS_GEOMETRY
 10
2398.955
 20
-609.935
 40
185.291
 50
356.6
 51
357.24
  0
ARC
  8
APS_GEOMETRY
 10
2231.13
 20
-601.844
 40
353.311
 50
357.24
 51
357.703
  0
ARC
  8
APS_GEOMETRY
 10
2247.651
 20
-602.506
 40
336.777
 50
357.703
 51
358.674
  0
ARC
  8
APS_GEOMETRY
 10
2403.483
 20
-606.113
 40
180.903
 50
358.674
 51
0.0
  0
ARC
  8
APS_GEOMETRY
 10
2557.576
 20
-606.113
 40
26.81
 50
0.0
 51
6.242
  0
ARC
  8
APS_GEOMETRY
 10
2578.896
 20
-603.781
 40
5.364
 50
6.242
 51
20.225
  0
ARC
  8
APS_GEOMETRY
 10
2581.85
 20
-602.692
 40
2.215
 50
20.225
 51
50.44
  0
ARC
  8
APS_GEOMETRY
 10
2582.424
 20
-601.997
 40
1.314
 50
50.44
 51
90.0
  0
ARC
  8
APS_GEOMETRY
 10
2582.424
 20
-602.446
 40
1.762
 50
90.0
 51
126.747
  0
ARC
  8
APS_GEOMETRY
 10
2584.914
 20
-605.781
 40
5.924
 50
126.747
 51
146.547
  0
ARC
  8
APS_GEOMETRY
 10
2540.926
 20
-576.868
 40
46.715
 50
324.255
 51
326.701
  0
ARC
  8
APS_GEOMETRY
 10
2559.549
 20
-590.272
 40
23.77
 50
320.826
 51
324.255
  0
ARC
  8
APS_GEOMETRY
 10
2565.636
 20
-595.231
 40
15.918
 50
315.722
 51
320.826
  0
ARC
  8
APS_GEOMETRY
 10
2572.63
 20
-602.052
 40
6.149
 50
307.504
 51
315.722
  0
ARC
  8
APS_GEOMETRY
 10
2571.985
 20
-601.19
 40
7.226
 50
291.306
 51
307.405
  0
ARC
  8
APS_GEOMETRY
 10
2573.104
 20
-604.059
 40
4.146
 50
270.0
 51
291.306
  0
ARC
  8
APS_GEOMETRY
 10
2573.104
 20
-604.327
 40
3.879
 50
245.532
 51
270.0
  0
ARC
  8
APS_GEOMETRY
 10
2573.074
 20
-604.391
 40
3.808
 50
220.833
 51
245.532
  0
ARC
  8
APS_GEOMETRY
 10
2573.467
 20
-604.051
 40
4.328
 50
198.684
 51
220.833
  0
ARC
  8
APS_GEOMETRY
 10
2575.109
 20
-603.496
 40
6.06
 50
180.0
 51
198.684
  0
ARC
  8
APS_GEOMETRY
 10
2578.956
 20
-603.496
 40
9.908
 50
168.408
 51
180.0
  0
ARC
  8
APS_GEOMETRY
 10
2585.309
 20
-604.799
 40
16.393
 50
159.402
 51
168.408
  0
ARC
  8
APS_GEOMETRY
 10
2587.272
 20
-605.537
 40
18.49
 50
151.39
 51
159.402
  0
ARC
  8
APS_GEOMETRY
 10
2586.87
 20
-605.318
 40
18.032
 50
143.276
 51
151.39
  0
ARC
  8
APS_GEOMETRY
 10
2581.82
 20
-601.542
 40
11.726
 50
124.216
 51
143.31
  0
ARC
  8
APS_GEOMETRY
 10
2577.322
 20
-594.928
 40
3.728
 50
90.0
 51
124.216
  0
ARC
  8
APS_GEOMETRY
 10
2577.322
 20
-596.584
 40
5.384
 50
82.725
 51
90.0
  0
ARC
  8
APS_GEOMETRY
 10
2576.902
 20
-599.88
 40
8.707
 50
77.005
 51
82.725
  0
ARC
  8
APS_GEOMETRY
 10
2589.75
 20
-537.933
 40
54.561
 50
258.486
 51
260.378
  0
ARC
  8
APS_GEOMETRY
 10
2584.246
 20
-570.398
 40
21.633
 50
260.378
 51
263.382
  0
ARC
  8
APS_GEOMETRY
 10
2583.775
 20
-574.456
 40
17.548
 50
263.382
 51
267.084
  0
ARC
  8
APS_GEOMETRY
 10
2584.321
 20
-563.744
 40
28.273
 50
267.084
 51
270.0
  0
ARC
  8
APS_GEOMETRY
 10
2644.048
 20
-616.883
 40
25.782
 50
71.91
 51
90.0
  0
ARC
  8
APS_GEOMETRY
 10
2645.047
 20
-613.826
 40
22.566
 50
52.561
 51
71.91
  0
ARC
  8
APS_GEOMETRY
 10
2644.785
 20
-613.903
 40
22.786
 50
38.846
 51
52.156
  0
ARC
  8
APS_GEOMETRY
 10
2641.213
 20
-616.779
 40
27.372
 50
26.707
 51
38.846
  0
ARC
  8
APS_GEOMETRY
 10
2641.92
 20
-616.201
 40
26.482
 50
13.868
 51
26.278
  0
ARC
  8
APS_GEOMETRY
 10
2647.02
 20
-614.942
 40
21.229
 50
360.0
 51
13.868
  0
ARC
  8
APS_GEOMETRY
 10
2647.35
 20
-614.942
 40
20.899
 50
339.712
 51
360.0
  0
ARC
  8
APS_GEOMETRY
 10
2646.173
 20
-614.508
 40
22.153
 50
320.013
 51
339.712
  0
ARC
  8
APS_GEOMETRY
 10
2645.978
 20
-614.4
 40
22.372
 50
303.344
 51
320.123
  0
ARC
  8
APS_GEOMETRY
 10
2643.683
 20
-610.911
 40
26.548
 50
287.949
 51
303.344
  0
ARC
  8
APS_GEOMETRY
 10
2642.928
 20
-608.296
 40
29.269
 50
279.039
 51
287.776
  0
ARC
  8
APS_GEOMETRY
 10
2643.23
 20
-610.195
 40
27.346
 50
270.0
 51
279.039
  0
ARC
  8
APS_GEOMETRY
 10
2643.23
 20
-611.53
 40
26.011
 50
257.728
 51
270.0
  0
ARC
  8
APS_GEOMETRY
 10
2643.271
 20
-611.342
 40
26.203
 50
245.501
 51
257.728
  0
ARC
  8
APS_GEOMETRY
 10
2641.799
 20
-614.564
 40
22.66
 50
228.665
 51
245.511
  0
ARC
  8
APS_GEOMETRY
 10
2641.309
 20
-615.121
 40
21.918
 50
211.535
 51
228.665
  0
ARC
  8
APS_GEOMETRY
 10
2641.951
 20
-614.65
 40
22.712
 50
195.642
 51
211.701
  0
ARC
  8
APS_GEOMETRY
 10
2643.125
 20
-614.321
 40
23.931
 50
180.0
 51
195.642
  0
ARC
  8
APS_GEOMETRY
 10
2643.376
 20
-614.321
 40
24.183
 50
162.181
 51
180.0
  0
ARC
  8
APS_GEOMETRY
 10
2641.17
 20
-613.612
 40
21.865
 50
143.434
 51
162.181
  0
ARC
  8
APS_GEOMETRY
 10
2640.873
 20
-613.374
 40
21.485
 50
126.384
 51
143.471
  0
ARC
  8
APS_GEOMETRY
 10
2642.907
 20
-616.135
 40
24.914
 50
110.525
 51
126.384
  0
ARC
  8
APS_GEOMETRY
 10
2642.806
 20
-615.385
 40
24.177
 50
99.77
 51
110.925
  0
ARC
  8
APS_GEOMETRY
 10
2644.048
 20
-622.597
 40
31.496
 50
90.0
 51
99.77
  0
ARC
  8
APS_GEOMETRY
 10
2640.941
 20
-605.295
 40
4.807
 50
90.0
 51
119.604
  0
ARC
  8
APS_GEOMETRY
 10
2641.362
 20
-606.036
 40
5.659
 50
119.604
 51
146.842
  0
ARC
  8
APS_GEOMETRY
 10
2642.208
 20
-606.729
 40
6.748
 50
145.84
 51
164.055
  0
ARC
  8
APS_GEOMETRY
 10
2644.17
 20
-607.29
 40
8.788
 50
164.055
 51
180.0
  0
ARC
  8
APS_GEOMETRY
 10
2656.434
 20
-607.29
 40
21.053
 50
180.0
 51
189.977
  0
ARC
  8
APS_GEOMETRY
 10
2675.086
 20
-604.009
 40
39.991
 50
189.977
 51
197.211
  0
ARC
  8
APS_GEOMETRY
 10
2679.165
 20
-602.745
 40
44.261
 50
197.211
 51
203.76
  0
ARC
  8
APS_GEOMETRY
 10
2669.003
 20
-607.219
 40
33.157
 50
203.76
 51
211.329
  0
ARC
  8
APS_GEOMETRY
 10
2648.134
 20
-619.743
 40
8.821
 50
212.32
 51
224.441
  0
ARC
  8
APS_GEOMETRY
 10
2647.279
 20
-620.582
 40
7.623
 50
224.441
 51
237.484
  0
ARC
  8
APS_GEOMETRY
 10
2646.726
 20
-621.449
 40
6.595
 50
237.484
 51
252.416
  0
ARC
  8
APS_GEOMETRY
 10
2646.174
 20
-623.192
 40
4.766
 50
252.416
 51
270.0
  0
ARC
  8
APS_GEOMETRY
 10
2646.174
 20
-622.627
 40
5.331
 50
270.0
 51
294.953
  0
ARC
  8
APS_GEOMETRY
 10
2646.323
 20
-622.948
 40
4.977
 50
294.953
 51
320.793
  0
ARC
  8
APS_GEOMETRY
 10
2645.522
 20
-622.295
 40
6.011
 50
320.793
 51
342.777
  0
ARC
  8
APS_GEOMETRY
 10
2641.955
 20
-621.189
 40
9.746
 50
342.777
 51
0.0
  0
ARC
  8
APS_GEOMETRY
 10
2625.194
 20
-621.189
 40
26.507
 50
0.0
 51
8.499
  0
ARC
  8
APS_GEOMETRY
 10
2613.526
 20
-622.932
 40
38.304
 50
8.499
 51
15.566
  0
ARC
  8
APS_GEOMETRY
 10
2614.929
 20
-622.541
 40
36.848
 50
15.566
 51
22.909
  0
ARC
  8
APS_GEOMETRY
 10
2626.993
 20
-617.443
 40
23.751
 50
22.909
 51
32.057
  0
ARC
  8
APS_GEOMETRY
 10
2636.468
 20
-611.474
 40
12.552
 50
31.921
 51
42.51
  0
ARC
  8
APS_GEOMETRY
 10
2639.071
 20
-609.089
 40
9.022
 50
42.51
 51
55.008
  0
ARC
  8
APS_GEOMETRY
 10
2639.949
 20
-607.833
 40
7.489
 50
55.008
 51
69.88
  0
ARC
  8
APS_GEOMETRY
 10
2640.738
 20
-605.682
 40
5.198
 50
69.88
 51
87.754
  0
ARC
  8
APS_GEOMETRY
 10
2692.469
 20
-607.085
 40
15.983
 50
83.923
 51
90.0
  0
ARC
  8
APS_GEOMETRY
 10
2691.183
 20
-619.16
 40
28.127
 50
79.342
 51
83.923
  0
ARC
  8
APS_GEOMETRY
 10
2689.632
 20
-627.4
 40
36.512
 50
75.808
 51
79.342
  0
ARC
  8
APS_GEOMETRY
 10
2684.222
 20
-648.795
 40
58.58
 50
73.018
 51
75.808
  0
ARC
  8
APS_GEOMETRY
 10
2703.273
 20
-586.302
 40
6.752
 50
253.288
 51
259.046
  0
ARC
  8
APS_GEOMETRY
 10
2702.345
 20
-591.096
 40
1.87
 50
259.046
 51
270.0
  0
ARC
  8
APS_GEOMETRY
 10
2702.345
 20
-591.856
 40
1.11
 50
270.0
 51
286.699
  0
ARC
  8
APS_GEOMETRY
 10
2693.472
 20
-562.279
 40
31.989
 50
286.699
 51
289.799
  0
ARC
  8
APS_GEOMETRY
 10
2705.362
 20
-595.188
 40
3.002
 50
100.008
 51
110.556
  0
ARC
  8
APS_GEOMETRY
 10
2705.419
 20
-595.515
 40
3.334
 50
90.0
 51
100.008
  0
ARC
  8
APS_GEOMETRY
 10
2705.419
 20
-595.36
 40
3.179
 50
53.356
 51
90.0
  0
ARC
  8
APS_GEOMETRY
 10
2699.866
 20
-602.826
 40
12.484
 50
35.101
 51
53.356
  0
ARC
  8
APS_GEOMETRY
 10
2697.095
 20
-604.774
 40
15.871
 50
20.245
 51
35.101
  0
ARC
  8
APS_GEOMETRY
 10
2703.928
 20
-602.253
 40
8.588
 50
360.0
 51
20.245
  0
ARC
  8
APS_GEOMETRY
 10
2707.366
 20
-602.253
 40
5.15
 50
340.481
 51
360.0
  0
ARC
  8
APS_GEOMETRY
 10
2708.214
 20
-602.554
 40
4.25
 50
318.972
 51
340.481
  0
ARC
  8
APS_GEOMETRY
 10
2708.593
 20
-602.883
 40
3.748
 50
295.017
 51
318.972
  0
ARC
  8
APS_GEOMETRY
 10
2708.722
 20
-603.161
 40
3.442
 50
270.0
 51
295.017
  0
ARC
  8
APS_GEOMETRY
 10
2708.722
 20
-601.318
 40
5.285
 50
256.171
 51
270.0
  0
ARC
  8
APS_GEOMETRY
 10
2708.146
 20
-603.659
 40
2.874
 50
237.381
 51
256.171
  0
ARC
  8
APS_GEOMETRY
 10
2709.167
 20
-602.064
 40
4.768
 50
231.559
 51
237.381
  0
ARC
  8
APS_GEOMETRY
 10
2724.009
 20
-583.365
 40
28.642
 50
229.185
 51
231.559
  0
ARC
  8
APS_GEOMETRY
 10
2739.917
 20
-564.946
 40
52.979
 50
227.9
 51
229.185
  0
ARC
  8
APS_GEOMETRY
 10
2794.97
 20
-504.017
 40
135.095
 50
227.095
 51
227.9
  0
ARC
  8
APS_GEOMETRY
 10
2691.607
 20
-615.179
 40
16.696
 50
46.975
 51
64.612
  0
ARC
  8
APS_GEOMETRY
 10
2695.281
 20
-607.437
 40
8.127
 50
64.612
 51
90.0
  0
ARC
  8
APS_GEOMETRY
 10
2695.281
 20
-605.166
 40
5.856
 50
90.0
 51
106.966
  0
ARC
  8
APS_GEOMETRY
 10
2694.603
 20
-602.943
 40
3.531
 50
106.966
 51
128.868
  0
ARC
  8
APS_GEOMETRY
 10
2694.21
 20
-602.455
 40
2.905
 50
128.868
 51
154.741
  0
ARC
  8
APS_GEOMETRY
 10
2694.337
 20
-602.515
 40
3.046
 50
154.741
 51
180.0
  0
ARC
  8
APS_GEOMETRY
 10
2694.152
 20
-602.515
 40
2.861
 50
180.0
 51
206.64
  0
ARC
  8
APS_GEOMETRY
 10
2695.073
 20
-602.053
 40
3.891
 50
206.64
 51
229.43
  0
ARC
  8
APS_GEOMETRY
 10
2696.548
 20
-600.33
 40
6.159
 50
229.43
 51
244.493
  0
ARC
  8
APS_GEOMETRY
 10
2700.594
 20
-591.851
 40
15.554
 50
244.493
 51
253.956
  0
ARC
  8
APS_GEOMETRY
 10
2628.523
 20
-836.78
 40
239.758
 50
72.737
 51
73.58
  0
ARC
  8
APS_GEOMETRY
 10
2669.827
 20
-703.864
 40
100.573
 50
71.435
 51
72.737
  0
ARC
  8
APS_GEOMETRY
 10
2683.507
 20
-663.13
 40
57.603
 50
69.164
 51
71.435
  0
ARC
  8
APS_GEOMETRY
 10
2699.652
 20
-620.708
 40
12.212
 50
64.231
 51
69.164
  0
ARC
  8
APS_GEOMETRY
 10
2697.795
 20
-624.447
 40
16.387
 50
34.939
 51
64.068
  0
ARC
  8
APS_GEOMETRY
 10
2701.803
 20
-621.647
 40
11.498
 50
360.0
 51
34.939
  0
ARC
  8
APS_GEOMETRY
 10
2699.339
 20
-621.647
 40
13.962
 50
333.435
 51
360.0
  0
ARC
  8
APS_GEOMETRY
 10
2698.427
 20
-621.19
 40
14.982
 50
307.807
 51
333.435
  0
ARC
  8
APS_GEOMETRY
 10
2696.051
 20
-618.118
 40
18.866
 50
296.732
 51
307.786
  0
ARC
  8
APS_GEOMETRY
 10
2694.646
 20
-615.327
 40
21.99
 50
286.496
 51
296.732
  0
ARC
  8
APS_GEOMETRY
 10
2693.72
 20
-612.202
 40
25.25
 50
277.544
 51
286.496
  0
ARC
  8
APS_GEOMETRY
 10
2692.371
 20
-602.011
 40
35.53
 50
270.0
 51
277.544
  0
ARC
  8
APS_GEOMETRY
 10
2692.371
 20
-600.47
 40
37.071
 50
263.555
 51
270.0
  0
ARC
  8
APS_GEOMETRY
 10
2693.571
 20
-589.846
 40
47.762
 50
257.878
 51
263.555
  0
ARC
  8
APS_GEOMETRY
 10
2692.934
 20
-592.812
 40
44.729
 50
254.839
 51
257.878
  0
ARC
  8
APS_GEOMETRY
 10
2687.767
 20
-611.879
 40
24.974
 50
250.772
 51
254.839
  0
ARC
  8
APS_GEOMETRY
 10
2685.444
 20
-618.542
 40
17.918
 50
245.121
 51
250.772
  0
ARC
  8
APS_GEOMETRY
 10
2681.51
 20
-627.024
 40
8.568
 50
236.944
 51
245.121
  0
ARC
  8
APS_GEOMETRY
 10
2679.19
 20
-630.674
 40
4.243
 50
211.802
 51
236.31
  0
ARC
  8
APS_GEOMETRY
 10
2690.215
 20
-623.838
 40
17.215
 50
199.704
 51
211.802
  0
ARC
  8
APS_GEOMETRY
 10
2695.479
 20
-621.953
 40
22.807
 50
190.413
 51
199.704
  0
ARC
  8
APS_GEOMETRY
 10
2690.917
 20
-622.791
 40
18.168
 50
180.0
 51
190.413
  0
ARC
  8
APS_GEOMETRY
 10
2678.617
 20
-622.791
 40
5.869
 50
164.876
 51
180.0
  0
ARC
  8
APS_GEOMETRY
 10
2675.311
 20
-621.898
 40
2.443
 50
141.34
 51
164.876
  0
ARC
  8
APS_GEOMETRY
 10
2675.631
 20
-622.112
 40
2.827
 50
116.928
 51
142.001
  0
ARC
  8
APS_GEOMETRY
 10
2675.463
 20
-621.782
 40
2.457
 50
90.0
 51
116.928
  0
ARC
  8
APS_GEOMETRY
 10
2675.463
 20
-621.788
 40
2.464
 50
62.21
 51
90.0
  0
ARC
  8
APS_GEOMETRY
 10
2674.479
 20
-623.655
 40
4.573
 50
41.906
 51
62.21
  0
ARC
  8
APS_GEOMETRY
 10
2674.646
 20
-623.69
 40
4.475
 50
37.313
 51
43.668
  0
ARC
  8
APS_GEOMETRY
 10
2649.579
 20
-642.795
 40
35.993
 50
35.074
 51
37.313
  0
ARC
  8
APS_GEOMETRY
 10
2621.111
 20
-662.783
 40
70.777
 50
33.934
 51
35.074
  0
ARC
  8
APS_GEOMETRY
 10
2519.613
 20
-731.073
 40
193.11
 50
33.243
 51
33.934
  0
ARC
  8
APS_GEOMETRY
 10
2686.733
 20
-621.503
 40
6.727
 50
213.453
 51
231.637
  0
ARC
  8
APS_GEOMETRY
 10
2689.912
 20
-617.488
 40
11.848
 50
231.637
 51
245.313
  0
ARC
  8
APS_GEOMETRY
 10
2690.612
 20
-615.965
 40
13.524
 50
245.313
 51
257.398
  0
ARC
  8
APS_GEOMETRY
 10
2690.376
 20
-617.02
 40
12.443
 50
257.398
 51
270.0
  0
ARC
  8
APS_GEOMETRY
 10
2690.376
 20
-618.957
 40
10.506
 50
270.0
 51
282.907
  0
ARC
  8
APS_GEOMETRY
 10
2691.506
 20
-623.89
 40
5.445
 50
282.907
 51
300.872
  0
ARC
  8
APS_GEOMETRY
 10
2692.487
 20
-625.53
 40
3.535
 50
300.872
 51
326.876
  0
ARC
  8
APS_GEOMETRY
 10
2693.603
 20
-626.258
 40
2.202
 50
326.876
 51
0.0
  0
ARC
  8
APS_GEOMETRY
 10
2693.274
 20
-626.258
 40
2.531
 50
0.0
 51
27.553
  0
ARC
  8
APS_GEOMETRY
 10
2692.473
 20
-626.676
 40
3.434
 50
27.553
 51
51.147
  0
ARC
  8
APS_GEOMETRY
 10
2690.818
 20
-628.729
 40
6.071
 50
51.147
 51
65.225
  0
ARC
  8
APS_GEOMETRY
 10
2684.715
 20
-641.953
 40
20.636
 50
65.225
 51
72.848
  0
ARC
  8
APS_GEOMETRY
 10
2720.357
 20
-528.314
 40
98.462
 50
251.106
 51
252.532
  0
ARC
  8
APS_GEOMETRY
 10
2707.74
 20
-565.175
 40
59.501
 50
249.271
 51
251.106
  0
ARC
  8
APS_GEOMETRY
 10
2702.495
 20
-579.035
 40
44.683
 50
246.83
 51
249.271
  0
ARC
  8
APS_GEOMETRY
 10
2694.012
 20
-598.857
 40
23.121
 50
243.435
 51
246.83
  0
ARC
  8
APS_GEOMETRY
 10
2693.046
 20
-600.789
 40
20.961
 50
235.981
 51
243.435
  0
ARC
  8
APS_GEOMETRY
 10
2693.787
 20
-599.69
 40
22.287
 50
228.752
 51
235.981
  0
ARC
  8
APS_GEOMETRY
 10
2690.313
 20
-603.784
 40
16.918
 50
206.421
 51
228.457
  0
ARC
  8
APS_GEOMETRY
 10
2685.759
 20
-606.047
 40
11.833
 50
180.0
 51
206.421
  0
ARC
  8
APS_GEOMETRY
 10
2685.973
 20
-606.047
 40
12.047
 50
166.555
 51
180.0
  0
ARC
  8
APS_GEOMETRY
 10
2687.369
 20
-606.381
 40
13.482
 50
153.848
 51
166.555
  0
ARC
  8
APS_GEOMETRY
 10
2687.485
 20
-606.438
 40
13.611
 50
141.244
 51
153.848
  0
ARC
  8
APS_GEOMETRY
 10
2688.345
 20
-607.128
 40
14.714
 50
129.123
 51
141.244
  0
ARC
  8
APS_GEOMETRY
 10
2691.098
 20
-610.055
 40
18.725
 50
108.978
 51
130.006
  0
ARC
  8
APS_GEOMETRY
 10
2692.469
 20
-614.042
 40
22.94
 50
90.0
 51
108.978
  0
ARC
  8
APS_GEOMETRY
 10
2742.459
 20
-612.365
 40
21.264
 50
77.257
 51
90.0
  0
ARC
  8
APS_GEOMETRY
 10
2742.243
 20
-613.321
 40
22.243
 50
64.799
 51
77.257
  0
ARC
  8
APS_GEOMETRY
 10
2760.561
 20
-574.322
 40
20.843
 50
244.885
 51
251.175
  0
ARC
  8
APS_GEOMETRY
 10
2754.592
 20
-591.83
 40
2.346
 50
251.175
 51
270.0
  0
ARC
  8
APS_GEOMETRY
 10
2754.592
 20
-590.369
 40
3.806
 50
270.0
 51
278.82
  0
ARC
  8
APS_GEOMETRY
 10
2752.133
 20
-574.522
 40
19.844
 50
278.82
 51
282.68
  0
ARC
  8
APS_GEOMETRY
 10
2757.279
 20
-597.302
 40
3.511
 50
95.906
 51
102.995
  0
ARC
  8
APS_GEOMETRY
 10
2757.438
 20
-598.839
 40
5.055
 50
90.0
 51
95.906
  0
ARC
  8
APS_GEOMETRY
 10
2757.438
 20
-597.139
 40
3.356
 50
62.447
 51
90.0
  0
ARC
  8
APS_GEOMETRY
 10
2756.841
 20
-598.282
 40
4.645
 50
39.094
 51
62.447
  0
ARC
  8
APS_GEOMETRY
 10
2750.607
 20
-603.496
 40
12.772
 50
18.435
 51
39.611
  0
ARC
  8
APS_GEOMETRY
 10
2746.78
 20
-604.772
 40
16.806
 50
360.0
 51
18.435
  0
ARC
  8
APS_GEOMETRY
 10
2755.253
 20
-604.772
 40
8.333
 50
334.877
 51
360.0
  0
ARC
  8
APS_GEOMETRY
 10
2757.759
 20
-605.947
 40
5.565
 50
304.007
 51
334.877
  0
ARC
  8
APS_GEOMETRY
 10
2757.718
 20
-605.829
 40
5.686
 50
286.39
 51
303.69
  0
ARC
  8
APS_GEOMETRY
 10
2757.536
 20
-605.211
 40
6.33
 50
270.0
 51
286.39
  0
ARC
  8
APS_GEOMETRY
 10
2757.536
 20
-605.285
 40
6.257
 50
255.155
 51
270.0
  0
ARC
  8
APS_GEOMETRY
 10
2756.85
 20
-607.871
 40
3.581
 50
235.491
 51
255.155
  0
ARC
  8
APS_GEOMETRY
 10
2757.194
 20
-607.37
 40
4.189
 50
218.48
 51
235.491
  0
ARC
  8
APS_GEOMETRY
 10
2762.815
 20
-602.902
 40
11.369
 50
208.179
 51
218.48
  0
ARC
  8
APS_GEOMETRY
 10
2705.191
 20
-634.181
 40
54.198
 50
28.56
 51
31.664
  0
ARC
  8
APS_GEOMETRY
 10
2740.403
 20
-612.465
 40
12.827
 50
31.664
 51
38.047
  0
ARC
  8
APS_GEOMETRY
 10
2742.963
 20
-610.461
 40
9.576
 50
38.047
 51
46.56
  0
ARC
  8
APS_GEOMETRY
 10
2741.632
 20
-611.866
 40
11.512
 50
46.56
 51
54.324
  0
ARC
  8
APS_GEOMETRY
 10
2740.864
 20
-613.188
 40
13.034
 50
54.968
 51
71.48
  0
ARC
  8
APS_GEOMETRY
 10
2741.707
 20
-610.671
 40
10.38
 50
71.48
 51
90.0
  0
ARC
  8
APS_GEOMETRY
 10
2741.707
 20
-607.542
 40
7.251
 50
90.0
 51
114.63
  0
ARC
  8
APS_GEOMETRY
 10
2741.343
 20
-606.748
 40
6.377
 50
114.63
 51
140.921
  0
ARC
  8
APS_GEOMETRY
 10
2742.419
 20
-607.621
 40
7.763
 50
140.921
 51
163.13
  0
ARC
  8
APS_GEOMETRY
 10
2747.796
 20
-609.252
 40
13.382
 50
163.13
 51
180.0
  0
ARC
  8
APS_GEOMETRY
 10
2754.77
 20
-609.252
 40
20.355
 50
180.0
 51
195.44
  0
ARC
  8
APS_GEOMETRY
 10
2753.712
 20
-609.544
 40
19.258
 50
195.44
 51
211.316
  0
ARC
  8
APS_GEOMETRY
 10
2748.622
 20
-612.534
 40
13.357
 50
211.708
 51
240.457
  0
ARC
  8
APS_GEOMETRY
 10
2748.281
 20
-613.137
 40
12.663
 50
240.457
 51
270.0
  0
ARC
  8
APS_GEOMETRY
 10
2748.281
 20
-610.049
 40
15.751
 50
270.0
 51
279.549
  0
ARC
  8
APS_GEOMETRY
 10
2748.085
 20
-608.885
 40
16.931
 50
279.549
 51
288.759
  0
ARC
  8
APS_GEOMETRY
 10
2748.91
 20
-611.316
 40
14.364
 50
288.759
 51
299.545
  0
ARC
  8
APS_GEOMETRY
 10
2752.22
 20
-617.155
 40
7.652
 50
299.545
 51
314.341
  0
ARC
  8
APS_GEOMETRY
 10
2762.455
 20
-627.786
 40
7.105
 50
120.141
 51
133.452
  0
ARC
  8
APS_GEOMETRY
 10
2759.596
 20
-622.862
 40
1.412
 50
90.0
 51
120.141
  0
ARC
  8
APS_GEOMETRY
 10
2759.596
 20
-623.68
 40
2.23
 50
61.952
 51
90.0
  0
ARC
  8
APS_GEOMETRY
 10
2759.264
 20
-624.303
 40
2.936
 50
37.569
 51
61.952
  0
ARC
  8
APS_GEOMETRY
 10
2758.645
 20
-624.78
 40
3.717
 50
17.665
 51
37.569
  0
ARC
  8
APS_GEOMETRY
 10
2757.7
 20
-625.081
 40
4.709
 50
360.0
 51
17.665
  0
ARC
  8
APS_GEOMETRY
 10
2755.328
 20
-625.081
 40
7.081
 50
344.932
 51
360.0
  0
ARC
  8
APS_GEOMETRY
 10
2749.03
 20
-623.385
 40
13.603
 50
334.075
 51
344.932
  0
ARC
  8
APS_GEOMETRY
 10
2748.832
 20
-623.289
 40
13.823
 50
323.374
 51
334.075
  0
ARC
  8
APS_GEOMETRY
 10
2752.896
 20
-626.309
 40
8.76
 50
309.92
 51
323.374
  0
ARC
  8
APS_GEOMETRY
 10
2756.957
 20
-631.1
 40
2.48
 50
289.026
 51
308.991
  0
ARC
  8
APS_GEOMETRY
 10
2752.624
 20
-618.535
 40
15.771
 50
281.143
 51
289.026
  0
ARC
  8
APS_GEOMETRY
 10
2757.018
 20
-641.316
 40
7.431
 50
100.437
 51
110.12
  0
ARC
  8
APS_GEOMETRY
 10
2762.839
 20
-657.206
 40
24.353
 50
110.12
 51
115.463
  0
ARC
  8
APS_GEOMETRY
 10
2742.058
 20
-613.726
 40
23.838
 50
282.94
 51
295.628
  0
ARC
  8
APS_GEOMETRY
 10
2742.263
 20
-614.62
 40
22.921
 50
270.0
 51
282.94
  0
ARC
  8
APS_GEOMETRY
 10
2742.263
 20
-613.266
 40
24.275
 50
257.307
 51
270.0
  0
ARC
  8
APS_GEOMETRY
 10
2743.288
 20
-608.716
 40
28.939
 50
245.686
 51
257.307
  0
ARC
  8
APS_GEOMETRY
 10
2740.718
 20
-614.357
 40
22.739
 50
228.801
 51
245.735
  0
ARC
  8
APS_GEOMETRY
 10
2740.761
 20
-614.308
 40
22.805
 50
211.891
 51
228.801
  0
ARC
  8
APS_GEOMETRY
 10
2742.108
 20
-613.338
 40
24.462
 50
196.728
 51
212.152
  0
ARC
  8
APS_GEOMETRY
 10
2738.621
 20
-614.386
 40
20.82
 50
180.0
 51
196.728
  0
ARC
  8
APS_GEOMETRY
 10
2739.128
 20
-614.386
 40
21.327
 50
161.184
 51
180.0
  0
ARC
  8
APS_GEOMETRY
 10
2740.496
 20
-614.853
 40
22.773
 50
142.98
 51
161.184
  0
ARC
  8
APS_GEOMETRY
 10
2741.56
 20
-615.667
 40
24.112
 50
127.824
 51
142.958
  0
ARC
  8
APS_GEOMETRY
 10
2743.314
 20
-617.926
 40
26.973
 50
113.52
 51
127.824
  0
ARC
  8
APS_GEOMETRY
 10
2742.743
 20
-616.607
 40
25.535
 50
101.927
 51
113.527
  0
ARC
  8
APS_GEOMETRY
 10
2742.459
 20
-615.263
 40
24.161
 50
90.0
 51
101.927
  0
ARC
  8
APS_GEOMETRY
 10
2792.94
 20
-616.883
 40
25.782
 50
71.91
 51
90.0
  0
ARC
  8
APS_GEOMETRY
 10
2793.939
 20
-613.826
 40
22.566
 50
52.561
 51
71.91
  0
ARC
  8
APS_GEOMETRY
 10
2793.677
 20
-613.903
 40
22.786
 50
38.846
 51
52.156
  0
ARC
  8
APS_GEOMETRY
 10
2790.105
 20
-616.779
 40
27.372
 50
26.707
 51
38.846
  0
ARC
  8
APS_GEOMETRY
 10
2790.812
 20
-616.201
 40
26.482
 50
13.868
 51
26.278
  0
ARC
  8
APS_GEOMETRY
 10
2795.912
 20
-614.942
 40
21.229
 50
360.0
 51
13.868
  0
ARC
  8
APS_GEOMETRY
 10
2796.242
 20
-614.942
 40
20.899
 50
339.712
 51
360.0
  0
ARC
  8
APS_GEOMETRY
 10
2795.066
 20
-614.508
 40
22.153
 50
320.013
 51
339.712
  0
ARC
  8
APS_GEOMETRY
 10
2794.871
 20
-614.4
 40
22.372
 50
303.344
 51
320.123
  0
ARC
  8
APS_GEOMETRY
 10
2792.575
 20
-610.911
 40
26.548
 50
287.949
 51
303.344
  0
ARC
  8
APS_GEOMETRY
 10
2791.821
 20
-608.296
 40
29.269
 50
279.039
 51
287.776
  0
ARC
  8
APS_GEOMETRY
 10
2792.123
 20
-610.195
 40
27.346
 50
270.0
 51
279.039
  0
ARC
  8
APS_GEOMETRY
 10
2792.123
 20
-611.53
 40
26.011
 50
257.728
 51
270.0
  0
ARC
  8
APS_GEOMETRY
 10
2792.164
 20
-611.342
 40
26.203
 50
245.501
 51
257.728
  0
ARC
  8
APS_GEOMETRY
 10
2790.691
 20
-614.564
 40
22.66
 50
228.665
 51
245.511
  0
ARC
  8
APS_GEOMETRY
 10
2790.201
 20
-615.121
 40
21.918
 50
211.535
 51
228.665
  0
ARC
  8
APS_GEOMETRY
 10
2790.843
 20
-614.65
 40
22.712
 50
195.642
 51
211.701
  0
ARC
  8
APS_GEOMETRY
 10
2792.017
 20
-614.321
 40
23.931
 50
180.0
 51
195.642
  0
ARC
  8
APS_GEOMETRY
 10
2792.269
 20
-614.321
 40
24.183
 50
162.181
 51
180.0
  0
ARC
  8
APS_GEOMETRY
 10
2790.062
 20
-613.612
 40
21.865
 50
143.434
 51
162.181
  0
ARC
  8
APS_GEOMETRY
 10
2789.765
 20
-613.374
 40
21.485
 50
126.384
 51
143.471
  0
ARC
  8
APS_GEOMETRY
 10
2791.799
 20
-616.135
 40
24.914
 50
110.525
 51
126.384
  0
ARC
  8
APS_GEOMETRY
 10
2791.699
 20
-615.385
 40
24.177
 50
99.77
 51
110.925
  0
ARC
  8
APS_GEOMETRY
 10
2792.94
 20
-622.597
 40
31.496
 50
90.0
 51
99.77
  0
ARC
  8
APS_GEOMETRY
 10
2789.834
 20
-605.295
 40
4.807
 50
90.0
 51
119.604
  0
ARC
  8
APS_GEOMETRY
 10
2790.255
 20
-606.036
 40
5.659
 50
119.604
 51
146.842
  0
ARC
  8
APS_GEOMETRY
 10
2791.101
 20
-606.729
 40
6.748
 50
145.84
 51
164.055
  0
ARC
  8
APS_GEOMETRY
 10
2793.062
 20
-607.29
 40
8.788
 50
164.055
 51
180.0
  0
ARC
  8
APS_GEOMETRY
 10
2805.327
 20
-607.29
 40
21.053
 50
180.0
 51
189.977
  0
ARC
  8
APS_GEOMETRY
 10
2823.978
 20
-604.009
 40
39.991
 50
189.977
 51
197.211
  0
ARC
  8
APS_GEOMETRY
 10
2828.058
 20
-602.745
 40
44.261
 50
197.211
 51
203.76
  0
ARC
  8
APS_GEOMETRY
 10
2817.895
 20
-607.219
 40
33.157
 50
203.76
 51
211.329
  0
ARC
  8
APS_GEOMETRY
 10
2797.027
 20
-619.743
 40
8.821
 50
212.32
 51
224.441
  0
ARC
  8
APS_GEOMETRY
 10
2796.171
 20
-620.582
 40
7.623
 50
224.441
 51
237.484
  0
ARC
  8
APS_GEOMETRY
 10
2795.619
 20
-621.449
 40
6.595
 50
237.484
 51
252.416
  0
ARC
  8
APS_GEOMETRY
 10
2795.066
 20
-623.192
 40
4.766
 50
252.416
 51
270.0
  0
ARC
  8
APS_GEOMETRY
 10
2795.066
 20
-622.627
 40
5.331
 50
270.0
 51
294.953
  0
ARC
  8
APS_GEOMETRY
 10
2795.216
 20
-622.948
 40
4.977
 50
294.953
 51
320.793
  0
ARC
  8
APS_GEOMETRY
 10
2794.415
 20
-622.295
 40
6.011
 50
320.793
 51
342.777
  0
ARC
  8
APS_GEOMETRY
 10
2790.847
 20
-621.189
 40
9.746
 50
342.777
 51
0.0
  0
ARC
  8
APS_GEOMETRY
 10
2774.086
 20
-621.189
 40
26.507
 50
0.0
 51
8.499
  0
ARC
  8
APS_GEOMETRY
 10
2762.419
 20
-622.932
 40
38.304
 50
8.499
 51
15.566
  0
ARC
  8
APS_GEOMETRY
 10
2763.821
 20
-622.541
 40
36.848
 50
15.566
 51
22.909
  0
ARC
  8
APS_GEOMETRY
 10
2775.885
 20
-617.443
 40
23.751
 50
22.909
 51
32.057
  0
ARC
  8
APS_GEOMETRY
 10
2785.361
 20
-611.474
 40
12.552
 50
31.921
 51
42.51
  0
ARC
  8
APS_GEOMETRY
 10
2787.963
 20
-609.089
 40
9.022
 50
42.51
 51
55.008
  0
ARC
  8
APS_GEOMETRY
 10
2788.842
 20
-607.833
 40
7.489
 50
55.008
 51
69.88
  0
ARC
  8
APS_GEOMETRY
 10
2789.63
 20
-605.682
 40
5.198
 50
69.88
 51
87.754
  0
ARC
  8
APS_GEOMETRY
 10
2846.299
 20
-612.365
 40
21.264
 50
77.257
 51
90.0
  0
ARC
  8
APS_GEOMETRY
 10
2846.083
 20
-613.321
 40
22.243
 50
64.799
 51
77.257
  0
ARC
  8
APS_GEOMETRY
 10
2864.401
 20
-574.322
 40
20.843
 50
244.885
 51
251.175
  0
ARC
  8
APS_GEOMETRY
 10
2858.432
 20
-591.83
 40
2.346
 50
251.175
 51
270.0
  0
ARC
  8
APS_GEOMETRY
 10
2858.432
 20
-590.369
 40
3.806
 50
270.0
 51
278.82
  0
ARC
  8
APS_GEOMETRY
 10
2855.973
 20
-574.522
 40
19.844
 50
278.82
 51
282.68
  0
ARC
  8
APS_GEOMETRY
 10
2861.119
 20
-597.302
 40
3.511
 50
95.906
 51
102.995
  0
ARC
  8
APS_GEOMETRY
 10
2861.278
 20
-598.839
 40
5.055
 50
90.0
 51
95.906
  0
ARC
  8
APS_GEOMETRY
 10
2861.278
 20
-597.139
 40
3.356
 50
62.447
 51
90.0
  0
ARC
  8
APS_GEOMETRY
 10
2860.681
 20
-598.282
 40
4.645
 50
39.094
 51
62.447
  0
ARC
  8
APS_GEOMETRY
 10
2854.447
 20
-603.496
 40
12.772
 50
18.435
 51
39.611
  0
ARC
  8
APS_GEOMETRY
 10
2850.62
 20
-604.772
 40
16.806
 50
360.0
 51
18.435
  0
ARC
  8
APS_GEOMETRY
 10
2859.093
 20
-604.772
 40
8.333
 50
334.877
 51
360.0
  0
ARC
  8
APS_GEOMETRY
 10
2861.599
 20
-605.947
 40
5.565
 50
304.007
 51
334.877
  0
ARC
  8
APS_GEOMETRY
 10
2861.558
 20
-605.829
 40
5.686
 50
286.39
 51
303.69
  0
ARC
  8
APS_GEOMETRY
 10
2861.376
 20
-605.211
 40
6.33
 50
270.0
 51
286.39
  0
ARC
  8
APS_GEOMETRY
 10
2861.376
 20
-605.285
 40
6.257
 50
255.155
 51
270.0
  0
ARC
  8
APS_GEOMETRY
 10
2860.69
 20
-607.871
 40
3.581
 50
235.491
 51
255.155
  0
ARC
  8
APS_GEOMETRY
 10
2861.034
 20
-607.37
 40
4.189
 50
218.48
 51
235.491
  0
ARC
  8
APS_GEOMETRY
 10
2866.655
 20
-602.902
 40
11.369
 50
208.179
 51
218.48
  0
ARC
  8
APS_GEOMETRY
 10
2809.031
 20
-634.181
 40
54.198
 50
28.56
 51
31.664
  0
ARC
  8
APS_GEOMETRY
 10
2844.243
 20
-612.465
 40
12.827
 50
31.664
 51
38.047
  0
ARC
  8
APS_GEOMETRY
 10
2846.803
 20
-610.461
 40
9.576
 50
38.047
 51
46.56
  0
ARC
  8
APS_GEOMETRY
 10
2845.472
 20
-611.866
 40
11.512
 50
46.56
 51
54.324
  0
ARC
  8
APS_GEOMETRY
 10
2844.704
 20
-613.188
 40
13.034
 50
54.968
 51
71.48
  0
ARC
  8
APS_GEOMETRY
 10
2845.547
 20
-610.671
 40
10.38
 50
71.48
 51
90.0
  0
ARC
  8
APS_GEOMETRY
 10
2845.547
 20
-607.542
 40
7.251
 50
90.0
 51
114.63
  0
ARC
  8
APS_GEOMETRY
 10
2845.183
 20
-606.748
 40
6.377
 50
114.63
 51
140.921
  0
ARC
  8
APS_GEOMETRY
 10
2846.259
 20
-607.621
 40
7.763
 50
140.921
 51
163.13
  0
ARC
  8
APS_GEOMETRY
 10
2851.636
 20
-609.252
 40
13.382
 50
163.13
 51
180.0
  0
ARC
  8
APS_GEOMETRY
 10
2858.61
 20
-609.252
 40
20.355
 50
180.0
 51
195.44
  0
ARC
  8
APS_GEOMETRY
 10
2857.552
 20
-609.544
 40
19.258
 50
195.44
 51
211.316
  0
ARC
  8
APS_GEOMETRY
 10
2852.463
 20
-612.534
 40
13.357
 50
211.708
 51
240.457
  0
ARC
  8
APS_GEOMETRY
 10
2852.121
 20
-613.137
 40
12.663
 50
240.457
 51
270.0
  0
ARC
  8
APS_GEOMETRY
 10
2852.121
 20
-610.049
 40
15.751
 50
270.0
 51
279.549
  0
ARC
  8
APS_GEOMETRY
 10
2851.925
 20
-608.885
 40
16.931
 50
279.549
 51
288.759
  0
ARC
  8
APS_GEOMETRY
 10
2852.75
 20
-611.316
 40
14.364
 50
288.759
 51
299.545
  0
ARC
  8
APS_GEOMETRY
 10
2856.06
 20
-617.155
 40
7.652
 50
299.545
 51
314.341
  0
ARC
  8
APS_GEOMETRY
 10
2866.295
 20
-627.786
 40
7.105
 50
120.141
 51
133.452
  0
ARC
  8
APS_GEOMETRY
 10
2863.436
 20
-622.862
 40
1.412
 50
90.0
 51
120.141
  0
ARC
  8
APS_GEOMETRY
 10
2863.436
 20
-623.68
 40
2.23
 50
61.952
 51
90.0
  0
ARC
  8
APS_GEOMETRY
 10
2863.104
 20
-624.303
 40
2.936
 50
37.569
 51
61.952
  0
ARC
  8
APS_GEOMETRY
 10
2862.485
 20
-624.78
 40
3.717
 50
17.665
 51
37.569
  0
ARC
  8
APS_GEOMETRY
 10
2861.54
 20
-625.081
 40
4.709
 50
360.0
 51
17.665
  0
ARC
  8
APS_GEOMETRY
 10
2859.168
 20
-625.081
 40
7.081
 50
344.932
 51
360.0
  0
ARC
  8
APS_GEOMETRY
 10
2852.87
 20
-623.385
 40
13.603
 50
334.075
 51
344.932
  0
ARC
  8
APS_GEOMETRY
 10
2852.672
 20
-623.289
 40
13.823
 50
323.374
 51
334.075
  0
ARC
  8
APS_GEOMETRY
 10
2856.736
 20
-626.309
 40
8.76
 50
309.92
 51
323.374
  0
ARC
  8
APS_GEOMETRY
 10
2860.797
 20
-631.1
 40
2.48
 50
289.026
 51
308.991
  0
ARC
  8
APS_GEOMETRY
 10
2856.464
 20
-618.535
 40
15.771
 50
281.143
 51
289.026
  0
ARC
  8
APS_GEOMETRY
 10
2860.858
 20
-641.316
 40
7.431
 50
100.437
 51
110.12
  0
ARC
  8
APS_GEOMETRY
 10
2866.679
 20
-657.206
 40
24.353
 50
110.12
 51
115.463
  0
ARC
  8
APS_GEOMETRY
 10
2845.898
 20
-613.726
 40
23.838
 50
282.94
 51
295.628
  0
ARC
  8
APS_GEOMETRY
 10
2846.103
 20
-614.62
 40
22.921
 50
270.0
 51
282.94
  0
ARC
  8
APS_GEOMETRY
 10
2846.103
 20
-613.266
 40
24.275
 50
257.307
 51
270.0
  0
ARC
  8
APS_GEOMETRY
 10
2847.128
 20
-608.716
 40
28.939
 50
245.686
 51
257.307
  0
ARC
  8
APS_GEOMETRY
 10
2844.558
 20
-614.357
 40
22.739
 50
228.801
 51
245.735
  0
ARC
  8
APS_GEOMETRY
 10
2844.601
 20
-614.308
 40
22.805
 50
211.891
 51
228.801
  0
ARC
  8
APS_GEOMETRY
 10
2845.948
 20
-613.338
 40
24.462
 50
196.728
 51
212.152
  0
ARC
  8
APS_GEOMETRY
 10
2842.461
 20
-614.386
 40
20.82
 50
180.0
 51
196.728
  0
ARC
  8
APS_GEOMETRY
 10
2842.968
 20
-614.386
 40
21.327
 50
161.184
 51
180.0
  0
ARC
  8
APS_GEOMETRY
 10
2844.336
 20
-614.853
 40
22.773
 50
142.98
 51
161.184
  0
ARC
  8
APS_GEOMETRY
 10
2845.4
 20
-615.667
 40
24.112
 50
127.824
 51
142.958
  0
ARC
  8
APS_GEOMETRY
 10
2847.154
 20
-617.926
 40
26.973
 50
113.52
 51
127.824
  0
ARC
  8
APS_GEOMETRY
 10
2846.583
 20
-616.607
 40
25.535
 50
101.927
 51
113.527
  0
ARC
  8
APS_GEOMETRY
 10
2846.299
 20
-615.263
 40
24.161
 50
90.0
 51
101.927
  0
ARC
  8
APS_GEOMETRY
 10
2896.781
 20
-616.883
 40
25.782
 50
71.91
 51
90.0
  0
ARC
  8
APS_GEOMETRY
 10
2897.779
 20
-613.826
 40
22.566
 50
52.561
 51
71.91
  0
ARC
  8
APS_GEOMETRY
 10
2897.518
 20
-613.903
 40
22.786
 50
38.846
 51
52.156
  0
ARC
  8
APS_GEOMETRY
 10
2893.945
 20
-616.779
 40
27.372
 50
26.707
 51
38.846
  0
ARC
  8
APS_GEOMETRY
 10
2894.653
 20
-616.201
 40
26.482
 50
13.868
 51
26.278
  0
ARC
  8
APS_GEOMETRY
 10
2899.752
 20
-614.942
 40
21.229
 50
360.0
 51
13.868
  0
ARC
  8
APS_GEOMETRY
 10
2900.082
 20
-614.942
 40
20.899
 50
339.712
 51
360.0
  0
ARC
  8
APS_GEOMETRY
 10
2898.906
 20
-614.508
 40
22.153
 50
320.013
 51
339.712
  0
ARC
  8
APS_GEOMETRY
 10
2898.711
 20
-614.4
 40
22.372
 50
303.344
 51
320.123
  0
ARC
  8
APS_GEOMETRY
 10
2896.415
 20
-610.911
 40
26.548
 50
287.949
 51
303.344
  0
ARC
  8
APS_GEOMETRY
 10
2895.661
 20
-608.296
 40
29.269
 50
279.039
 51
287.776
  0
ARC
  8
APS_GEOMETRY
 10
2895.963
 20
-610.195
 40
27.346
 50
270.0
 51
279.039
  0
ARC
  8
APS_GEOMETRY
 10
2895.963
 20
-611.53
 40
26.011
 50
257.728
 51
270.0
  0
ARC
  8
APS_GEOMETRY
 10
2896.004
 20
-611.342
 40
26.203
 50
245.501
 51
257.728
  0
ARC
  8
APS_GEOMETRY
 10
2894.531
 20
-614.564
 40
22.66
 50
228.665
 51
245.511
  0
ARC
  8
APS_GEOMETRY
 10
2894.041
 20
-615.121
 40
21.918
 50
211.535
 51
228.665
  0
ARC
  8
APS_GEOMETRY
 10
2894.683
 20
-614.65
 40
22.712
 50
195.642
 51
211.701
  0
ARC
  8
APS_GEOMETRY
 10
2895.857
 20
-614.321
 40
23.931
 50
180.0
 51
195.642
  0
ARC
  8
APS_GEOMETRY
 10
2896.109
 20
-614.321
 40
24.183
 50
162.181
 51
180.0
  0
ARC
  8
APS_GEOMETRY
 10
2893.902
 20
-613.612
 40
21.865
 50
143.434
 51
162.181
  0
ARC
  8
APS_GEOMETRY
 10
2893.605
 20
-613.374
 40
21.485
 50
126.384
 51
143.471
  0
ARC
  8
APS_GEOMETRY
 10
2895.639
 20
-616.135
 40
24.914
 50
110.525
 51
126.384
  0
ARC
  8
APS_GEOMETRY
 10
2895.539
 20
-615.385
 40
24.177
 50
99.77
 51
110.925
  0
ARC
  8
APS_GEOMETRY
 10
2896.781
 20
-622.597
 40
31.496
 50
90.0
 51
99.77
  0
ARC
  8
APS_GEOMETRY
 10
2893.674
 20
-605.295
 40
4.807
 50
90.0
 51
119.604
  0
ARC
  8
APS_GEOMETRY
 10
2894.095
 20
-606.036
 40
5.659
 50
119.604
 51
146.842
  0
ARC
  8
APS_GEOMETRY
 10
2894.941
 20
-606.729
 40
6.748
 50
145.84
 51
164.055
  0
ARC
  8
APS_GEOMETRY
 10
2896.902
 20
-607.29
 40
8.788
 50
164.055
 51
180.0
  0
ARC
  8
APS_GEOMETRY
 10
2909.167
 20
-607.29
 40
21.053
 50
180.0
 51
189.977
  0
ARC
  8
APS_GEOMETRY
 10
2927.818
 20
-604.009
 40
39.991
 50
189.977
 51
197.211
  0
ARC
  8
APS_GEOMETRY
 10
2931.898
 20
-602.745
 40
44.261
 50
197.211
 51
203.76
  0
ARC
  8
APS_GEOMETRY
 10
2921.735
 20
-607.219
 40
33.157
 50
203.76
 51
211.329
  0
ARC
  8
APS_GEOMETRY
 10
2900.867
 20
-619.743
 40
8.821
 50
212.32
 51
224.441
  0
ARC
  8
APS_GEOMETRY
 10
2900.012
 20
-620.582
 40
7.623
 50
224.441
 51
237.484
  0
ARC
  8
APS_GEOMETRY
 10
2899.459
 20
-621.449
 40
6.595
 50
237.484
 51
252.416
  0
ARC
  8
APS_GEOMETRY
 10
2898.906
 20
-623.192
 40
4.766
 50
252.416
 51
270.0
  0
ARC
  8
APS_GEOMETRY
 10
2898.906
 20
-622.627
 40
5.331
 50
270.0
 51
294.953
  0
ARC
  8
APS_GEOMETRY
 10
2899.056
 20
-622.948
 40
4.977
 50
294.953
 51
320.793
  0
ARC
  8
APS_GEOMETRY
 10
2898.255
 20
-622.295
 40
6.011
 50
320.793
 51
342.777
  0
ARC
  8
APS_GEOMETRY
 10
2894.687
 20
-621.189
 40
9.746
 50
342.777
 51
0.0
  0
ARC
  8
APS_GEOMETRY
 10
2877.926
 20
-621.189
 40
26.507
 50
0.0
 51
8.499
  0
ARC
  8
APS_GEOMETRY
 10
2866.259
 20
-622.932
 40
38.304
 50
8.499
 51
15.566
  0
ARC
  8
APS_GEOMETRY
 10
2867.662
 20
-622.541
 40
36.848
 50
15.566
 51
22.909
  0
ARC
  8
APS_GEOMETRY
 10
2879.725
 20
-617.443
 40
23.751
 50
22.909
 51
32.057
  0
ARC
  8
APS_GEOMETRY
 10
2889.201
 20
-611.474
 40
12.552
 50
31.921
 51
42.51
  0
ARC
  8
APS_GEOMETRY
 10
2891.803
 20
-609.089
 40
9.022
 50
42.51
 51
55.008
  0
ARC
  8
APS_GEOMETRY
 10
2892.682
 20
-607.833
 40
7.489
 50
55.008
 51
69.88
  0
ARC
  8
APS_GEOMETRY
 10
2893.47
 20
-605.682
 40
5.198
 50
69.88
 51
87.754
  0
ARC
  8
APS_GEOMETRY
 10
2947.294
 20
-620.306
 40
2.42
 50
90.0
 51
115.837
  0
ARC
  8
APS_GEOMETRY
 10
2946.699
 20
-619.075
 40
1.053
 50
115.837
 51
155.462
  0
ARC
  8
APS_GEOMETRY
 10
2947.394
 20
-619.393
 40
1.817
 50
155.462
 51
168.366
  0
ARC
  8
APS_GEOMETRY
 10
2953.74
 20
-620.699
 40
8.296
 50
168.366
 51
174.395
  0
ARC
  8
APS_GEOMETRY
 10
2960.136
 20
-621.327
 40
14.722
 50
174.395
 51
177.813
  0
ARC
  8
APS_GEOMETRY
 10
2981.364
 20
-622.137
 40
35.966
 50
177.813
 51
180.0
  0
ARC
  8
APS_GEOMETRY
 10
2996.732
 20
-622.137
 40
51.335
 50
180.0
 51
184.62
  0
ARC
  8
APS_GEOMETRY
 10
2962.312
 20
-624.919
 40
16.803
 50
184.62
 51
192.7
  0
ARC
  8
APS_GEOMETRY
 10
2949.042
 20
-627.832
 40
3.218
 50
194.036
 51
205.821
  0
ARC
  8
APS_GEOMETRY
 10
2947.637
 20
-628.512
 40
1.656
 50
205.821
 51
222.274
  0
ARC
  8
APS_GEOMETRY
 10
2948.068
 20
-628.121
 40
2.238
 50
222.274
 51
234.605
  0
ARC
  8
APS_GEOMETRY
 10
2952.928
 20
-621.28
 40
10.63
 50
234.605
 51
240.255
  0
ARC
  8
APS_GEOMETRY
 10
2945.539
 20
-634.355
 40
4.389
 50
34.592
 51
61.189
  0
ARC
  8
APS_GEOMETRY
 10
2946.989
 20
-633.355
 40
2.627
 50
360.0
 51
34.592
  0
ARC
  8
APS_GEOMETRY
 10
2947.077
 20
-633.355
 40
2.539
 50
318.231
 51
360.0
  0
ARC
  8
APS_GEOMETRY
 10
2945.379
 20
-631.838
 40
4.816
 50
288.227
 51
318.231
  0
ARC
  8
APS_GEOMETRY
 10
2943.618
 20
-626.49
 40
10.446
 50
280.377
 51
288.227
  0
ARC
  8
APS_GEOMETRY
 10
2940.548
 20
-609.726
 40
27.489
 50
275.541
 51
280.377
  0
ARC
  8
APS_GEOMETRY
 10
2939.225
 20
-596.089
 40
41.19
 50
272.304
 51
275.541
  0
ARC
  8
APS_GEOMETRY
 10
2937.614
 20
-556.053
 40
81.259
 50
270.0
 51
272.304
  0
ARC
  8
APS_GEOMETRY
 10
2937.614
 20
-589.512
 40
47.8
 50
262.811
 51
270.0
  0
ARC
  8
APS_GEOMETRY
 10
2933.325
 20
-623.518
 40
13.524
 50
249.274
 51
262.811
  0
ARC
  8
APS_GEOMETRY
 10
2930.627
 20
-630.648
 40
5.901
 50
221.379
 51
249.274
  0
ARC
  8
APS_GEOMETRY
 10
2928.26
 20
-632.733
 40
2.747
 50
180.0
 51
221.379
  0
ARC
  8
APS_GEOMETRY
 10
2928.242
 20
-632.733
 40
2.728
 50
164.055
 51
180.0
  0
ARC
  8
APS_GEOMETRY
 10
2927.105
 20
-632.408
 40
1.546
 50
142.815
 51
164.055
  0
ARC
  8
APS_GEOMETRY
 10
2927.821
 20
-632.951
 40
2.444
 50
129.007
 51
142.815
  0
ARC
  8
APS_GEOMETRY
 10
2936.613
 20
-643.805
 40
16.412
 50
123.69
 51
129.007
  0
ARC
  8
APS_GEOMETRY
 10
2924.136
 20
-625.033
 40
6.128
 50
303.389
 51
319.022
  0
ARC
  8
APS_GEOMETRY
 10
2925.795
 20
-626.473
 40
3.932
 50
319.022
 51
338.575
  0
ARC
  8
APS_GEOMETRY
 10
2923.575
 20
-625.602
 40
6.316
 50
338.575
 51
351.049
  0
ARC
  8
APS_GEOMETRY
 10
2896.769
 20
-621.38
 40
33.452
 50
351.049
 51
356.46
  0
ARC
  8
APS_GEOMETRY
 10
2905.605
 20
-621.716
 40
24.613
 50
355.972
 51
358.68
  0
ARC
  8
APS_GEOMETRY
 10
2615.414
 20
-615.03
 40
314.881
 50
358.68
 51
359.437
  0
LINE
  8
APS_GEOMETRY
 10
2930.28
 11
2930.311
 20
-618.123
 21
-613.211
  0
LINE
  8
APS_GEOMETRY
 10
2930.311
 11
2930.321
 20
-613.211
 21
-606.799
  0
ARC
  8
APS_GEOMETRY
 10
2854.512
 20
-606.799
 40
75.809
 50
0.0
 51
1.717
  0
ARC
  8
APS_GEOMETRY
 10
2895.081
 20
-605.583
 40
35.223
 50
1.717
 51
4.236
  0
ARC
  8
APS_GEOMETRY
 10
2908.31
 20
-604.603
 40
21.957
 50
4.236
 51
8.269
  0
ARC
  8
APS_GEOMETRY
 10
2923.533
 20
-602.391
 40
6.573
 50
8.269
 51
15.642
  0
ARC
  8
APS_GEOMETRY
 10
2926.153
 20
-601.657
 40
3.853
 50
15.642
 51
39.417
  0
ARC
  8
APS_GEOMETRY
 10
2926.212
 20
-601.609
 40
3.776
 50
39.417
 51
63.435
  0
ARC
  8
APS_GEOMETRY
 10
2933.014
 20
-587.519
 40
11.869
 50
236.874
 51
244.486
  0
ARC
  8
APS_GEOMETRY
 10
2927.954
 20
-595.273
 40
2.611
 50
220.601
 51
236.874
  0
ARC
  8
APS_GEOMETRY
 10
2927.374
 20
-595.77
 40
1.847
 50
198.246
 51
220.601
  0
ARC
  8
APS_GEOMETRY
 10
2928.242
 20
-595.484
 40
2.761
 50
180.0
 51
198.246
  0
ARC
  8
APS_GEOMETRY
 10
2928.229
 20
-595.484
 40
2.748
 50
156.161
 51
180.0
  0
ARC
  8
APS_GEOMETRY
 10
2928.612
 20
-595.653
 40
3.167
 50
133.977
 51
156.161
  0
ARC
  8
APS_GEOMETRY
 10
2929.375
 20
-596.444
 40
4.266
 50
116.996
 51
133.977
  0
ARC
  8
APS_GEOMETRY
 10
2930.892
 20
-599.422
 40
7.608
 50
104.3
 51
116.996
  0
ARC
  8
APS_GEOMETRY
 10
2931.284
 20
-600.928
 40
9.164
 50
95.326
 51
104.349
  0
ARC
  8
APS_GEOMETRY
 10
2932.872
 20
-617.962
 40
26.272
 50
90.0
 51
95.326
  0
ARC
  8
APS_GEOMETRY
 10
2932.872
 20
-604.703
 40
13.013
 50
87.553
 51
90.0
  0
ARC
  8
APS_GEOMETRY
 10
2930.103
 20
-669.491
 40
77.86
 50
86.553
 51
87.553
  0
ARC
  8
APS_GEOMETRY
 10
2926.167
 20
-734.838
 40
143.325
 50
86.009
 51
86.553
  0
ARC
  8
APS_GEOMETRY
 10
2910.859
 20
-954.251
 40
363.271
 50
85.668
 51
86.009
  0
ARC
  8
APS_GEOMETRY
 10
2939.507
 20
-576.94
 40
15.125
 50
265.426
 51
268.531
  0
ARC
  8
APS_GEOMETRY
 10
2940.852
 20
-524.497
 40
67.586
 50
268.531
 51
270.0
  0
ARC
  8
APS_GEOMETRY
 10
2940.852
 20
-540.572
 40
51.511
 50
270.0
 51
271.637
  0
ARC
  8
APS_GEOMETRY
 10
2939.701
 20
-500.288
 40
91.812
 50
271.637
 51
272.862
  0
ARC
  8
APS_GEOMETRY
 10
2938.379
 20
-473.858
 40
118.274
 50
272.862
 51
273.814
  0
ARC
  8
APS_GEOMETRY
 10
2933.906
 20
-406.754
 40
185.527
 50
273.814
 51
274.574
  0
ARC
  8
APS_GEOMETRY
 10
2961.968
 20
-771.745
 40
180.543
 50
93.72
 51
94.214
  0
ARC
  8
APS_GEOMETRY
 10
2955.979
 20
-679.627
 40
88.23
 50
93.013
 51
93.72
  0
ARC
  8
APS_GEOMETRY
 10
2954.337
 20
-648.431
 40
56.991
 50
91.918
 51
93.013
  0
ARC
  8
APS_GEOMETRY
 10
2953.05
 20
-610.016
 40
18.554
 50
90.0
 51
91.918
  0
ARC
  8
APS_GEOMETRY
 10
2953.05
 20
-615.57
 40
24.109
 50
73.82
 51
90.0
  0
ARC
  8
APS_GEOMETRY
 10
2955.426
 20
-607.38
 40
15.581
 50
53.658
 51
73.82
  0
ARC
  8
APS_GEOMETRY
 10
2958.806
 20
-602.761
 40
9.857
 50
26.03
 51
53.569
  0
ARC
  8
APS_GEOMETRY
 10
2957.769
 20
-603.267
 40
11.012
 50
360.0
 51
26.03
  0
ARC
  8
APS_GEOMETRY
 10
2957.338
 20
-603.267
 40
11.443
 50
345.282
 51
360.0
  0
ARC
  8
APS_GEOMETRY
 10
2958.438
 20
-603.556
 40
10.305
 50
329.767
 51
345.282
  0
ARC
  8
APS_GEOMETRY
 10
2959.062
 20
-603.92
 40
9.583
 50
313.168
 51
329.767
  0
ARC
  8
APS_GEOMETRY
 10
2959.293
 20
-604.166
 40
9.246
 50
296.267
 51
313.168
  0
ARC
  8
APS_GEOMETRY
 10
2964.556
 20
-614.8
 40
2.62
 50
116.565
 51
139.899
  0
ARC
  8
APS_GEOMETRY
 10
2963.249
 20
-613.7
 40
0.911
 50
139.899
 51
180.0
  0
ARC
  8
APS_GEOMETRY
 10
2963.351
 20
-613.7
 40
1.013
 50
180.0
 51
226.193
  0
ARC
  8
APS_GEOMETRY
 10
2965.222
 20
-611.749
 40
3.715
 50
226.193
 51
249.829
  0
ARC
  8
APS_GEOMETRY
 10
2959.86
 20
-626.51
 40
11.989
 50
53.249
 51
70.105
  0
ARC
  8
APS_GEOMETRY
 10
2962.296
 20
-623.249
 40
7.919
 50
32.471
 51
53.249
  0
ARC
  8
APS_GEOMETRY
 10
2961.161
 20
-623.972
 40
9.264
 50
23.305
 51
32.471
  0
ARC
  8
APS_GEOMETRY
 10
2954.151
 20
-626.991
 40
16.897
 50
16.521
 51
23.305
  0
ARC
  8
APS_GEOMETRY
 10
2948.685
 20
-628.612
 40
22.598
 50
11.429
 51
16.521
  0
ARC
  8
APS_GEOMETRY
 10
2933.195
 20
-631.744
 40
38.401
 50
7.524
 51
11.429
  0
ARC
  8
APS_GEOMETRY
 10
2984.523
 20
-624.908
 40
13.38
 50
187.765
 51
196.914
  0
ARC
  8
APS_GEOMETRY
 10
2973.58
 20
-628.236
 40
1.942
 50
196.914
 51
221.082
  0
ARC
  8
APS_GEOMETRY
 10
2973.622
 20
-628.199
 40
1.997
 50
221.082
 51
244.607
  0
ARC
  8
APS_GEOMETRY
 10
2978.295
 20
-618.354
 40
12.896
 50
244.607
 51
253.811
  0
ARC
  8
APS_GEOMETRY
 10
2974.187
 20
-632.364
 40
1.705
 50
51.45
 51
72.474
  0
ARC
  8
APS_GEOMETRY
 10
2973.765
 20
-632.893
 40
2.382
 50
33.69
 51
51.45
  0
ARC
  8
APS_GEOMETRY
 10
2973.666
 20
-632.959
 40
2.5
 50
16.639
 51
33.69
  0
ARC
  8
APS_GEOMETRY
 10
2973.547
 20
-632.995
 40
2.625
 50
360.0
 51
16.639
  0
ARC
  8
APS_GEOMETRY
 10
2973.51
 20
-632.995
 40
2.662
 50
338.993
 51
360.0
  0
ARC
  8
APS_GEOMETRY
 10
2971.885
 20
-632.371
 40
4.402
 50
322.696
 51
338.993
  0
ARC
  8
APS_GEOMETRY
 10
2971.279
 20
-631.909
 40
5.164
 50
308.603
 51
322.696
  0
ARC
  8
APS_GEOMETRY
 10
2970.863
 20
-631.387
 40
5.831
 50
295.346
 51
308.603
  0
ARC
  8
APS_GEOMETRY
 10
2968.672
 20
-626.561
 40
11.131
 50
279.583
 51
294.905
  0
ARC
  8
APS_GEOMETRY
 10
2965.805
 20
-609.58
 40
28.353
 50
270.0
 51
279.583
  0
ARC
  8
APS_GEOMETRY
 10
2965.805
 20
-617.261
 40
20.672
 50
261.247
 51
270.0
  0
ARC
  8
APS_GEOMETRY
 10
2964.48
 20
-625.862
 40
11.97
 50
249.737
 51
261.247
  0
ARC
  8
APS_GEOMETRY
 10
2963.61
 20
-628.219
 40
9.457
 50
235.345
 51
249.737
  0
ARC
  8
APS_GEOMETRY
 10
2962.511
 20
-629.81
 40
7.524
 50
219.198
 51
235.345
  0
ARC
  8
APS_GEOMETRY
 10
2964.824
 20
-627.837
 40
10.563
 50
209.076
 51
219.56
  0
ARC
  8
APS_GEOMETRY
 10
2970.165
 20
-624.868
 40
16.674
 50
200.735
 51
209.076
  0
ARC
  8
APS_GEOMETRY
 10
2977.534
 20
-622.078
 40
24.554
 50
197.881
 51
200.735
  0
ARC
  8
APS_GEOMETRY
 10
3007.816
 20
-612.308
 40
56.372
 50
195.997
 51
197.881
  0
ARC
  8
APS_GEOMETRY
 10
3030.198
 20
-605.891
 40
79.656
 50
194.664
 51
195.997
  0
ARC
  8
APS_GEOMETRY
 10
3092.193
 20
-589.669
 40
143.738
 50
193.671
 51
194.664
  0
ARC
  8
APS_GEOMETRY
 10
2934.982
 20
-627.889
 40
18.051
 50
13.61
 51
23.585
  0
ARC
  8
APS_GEOMETRY
 10
2946.802
 20
-622.729
 40
5.155
 50
23.585
 51
42.31
  0
ARC
  8
APS_GEOMETRY
 10
2947.874
 20
-621.753
 40
3.705
 50
42.31
 51
67.521
  0
ARC
  8
APS_GEOMETRY
 10
2947.025
 20
-623.804
 40
5.924
 50
67.521
 51
87.397
  0
LINE
  8
APS_GEOMETRY
 10
2945.43
 11
2945.071
 20
-601.207
 21
-608.827
  0
LINE
  8
APS_GEOMETRY
 10
2945.071
 11
2945.071
 20
-608.827
 21
-608.95
  0
LINE
  8
APS_GEOMETRY
 10
2945.071
 11
2945.071
 20
-608.95
 21
-609.121
  0
ARC
  8
APS_GEOMETRY
 10
2950.365
 20
-609.121
 40
5.294
 50
180.0
 51
192.339
  0
ARC
  8
APS_GEOMETRY
 10
2946.156
 20
-610.042
 40
0.986
 50
192.339
 51
221.186
  0
ARC
  8
APS_GEOMETRY
 10
2946.055
 20
-610.13
 40
0.852
 50
221.186
 51
253.872
  0
ARC
  8
APS_GEOMETRY
 10
2946.771
 20
-607.654
 40
3.429
 50
253.872
 51
270.0
  0
ARC
  8
APS_GEOMETRY
 10
2946.771
 20
-603.113
 40
7.971
 50
270.0
 51
289.569
  0
ARC
  8
APS_GEOMETRY
 10
2948.22
 20
-607.189
 40
3.644
 50
289.569
 51
318.681
  0
ARC
  8
APS_GEOMETRY
 10
2947.828
 20
-606.845
 40
4.166
 50
318.681
 51
344.628
  0
ARC
  8
APS_GEOMETRY
 10
2940.525
 20
-604.837
 40
11.74
 50
344.628
 51
0.0
  0
ARC
  8
APS_GEOMETRY
 10
2943.997
 20
-604.837
 40
8.268
 50
0.0
 51
35.369
  0
ARC
  8
APS_GEOMETRY
 10
2947.785
 20
-602.148
 40
3.623
 50
35.369
 51
90.0
  0
ARC
  8
APS_GEOMETRY
 10
2947.785
 20
-602.188
 40
3.663
 50
90.0
 51
108.435
  0
ARC
  8
APS_GEOMETRY
 10
2947.072
 20
-600.05
 40
1.409
 50
108.435
 51
138.366
  0
ARC
  8
APS_GEOMETRY
 10
2947.264
 20
-600.22
 40
1.665
 50
138.366
 51
164.291
  0
ARC
  8
APS_GEOMETRY
 10
2951.749
 20
-601.482
 40
6.324
 50
164.291
 51
177.51
  0
LINE
  8
APS_GEOMETRY
 10
3003.649
 11
3019.935
 20
-593.587
 21
-607.846
  0
ARC
  8
APS_GEOMETRY
 10
3035.167
 20
-590.367
 40
23.185
 50
228.93
 51
232.674
  0
ARC
  8
APS_GEOMETRY
 10
3026.694
 20
-601.479
 40
9.21
 50
232.674
 51
238.617
  0
ARC
  8
APS_GEOMETRY
 10
3024.562
 20
-604.974
 40
5.116
 50
238.617
 51
249.131
  0
ARC
  8
APS_GEOMETRY
 10
3023.206
 20
-608.531
 40
1.309
 50
249.131
 51
270.0
  0
ARC
  8
APS_GEOMETRY
 10
3023.206
 20
-608.693
 40
1.148
 50
270.0
 51
334.898
  0
ARC
  8
APS_GEOMETRY
 10
3017.907
 20
-606.211
 40
6.999
 50
334.898
 51
0.0
  0
ARC
  8
APS_GEOMETRY
 10
2966.676
 20
-606.211
 40
58.23
 50
0.0
 51
2.026
  0
ARC
  8
APS_GEOMETRY
 10
2997.563
 20
-605.118
 40
27.324
 50
2.026
 51
4.984
  0
ARC
  8
APS_GEOMETRY
 10
3007.662
 20
-604.237
 40
17.186
 50
4.984
 51
9.673
  0
ARC
  8
APS_GEOMETRY
 10
3019.302
 20
-602.253
 40
5.379
 50
9.673
 51
18.06
  0
ARC
  8
APS_GEOMETRY
 10
3021.074
 20
-601.675
 40
3.515
 50
18.06
 51
42.397
  0
ARC
  8
APS_GEOMETRY
 10
3020.502
 20
-602.198
 40
4.29
 50
42.397
 51
64.398
  0
ARC
  8
APS_GEOMETRY
 10
3025.725
 20
-591.412
 40
7.695
 50
233.633
 51
244.026
  0
ARC
  8
APS_GEOMETRY
 10
3022.88
 20
-595.275
 40
2.896
 50
216.656
 51
233.633
  0
ARC
  8
APS_GEOMETRY
 10
3022.444
 20
-595.6
 40
2.353
 50
196.082
 51
216.656
  0
ARC
  8
APS_GEOMETRY
 10
3023.868
 20
-595.19
 40
3.835
 50
180.0
 51
196.082
  0
ARC
  8
APS_GEOMETRY
 10
3022.821
 20
-595.19
 40
2.788
 50
133.202
 51
180.0
  0
ARC
  8
APS_GEOMETRY
 10
3025.02
 20
-597.531
 40
6.0
 50
101.788
 51
133.202
  0
ARC
  8
APS_GEOMETRY
 10
3025.533
 20
-599.827
 40
8.353
 50
96.633
 51
102.011
  0
ARC
  8
APS_GEOMETRY
 10
3027.392
 20
-615.816
 40
24.449
 50
93.489
 51
96.633
  0
ARC
  8
APS_GEOMETRY
 10
3028.188
 20
-628.875
 40
37.532
 50
91.439
 51
93.489
  0
ARC
  8
APS_GEOMETRY
 10
3029.158
 20
-667.469
 40
76.138
 50
90.0
 51
91.439
  0
ARC
  8
APS_GEOMETRY
 10
3029.158
 20
-662.295
 40
70.964
 50
87.994
 51
90.0
  0
ARC
  8
APS_GEOMETRY
 10
3030.448
 20
-625.454
 40
34.101
 50
85.101
 51
87.994
  0
ARC
  8
APS_GEOMETRY
 10
3031.495
 20
-613.238
 40
21.84
 50
80.595
 51
85.101
  0
ARC
  8
APS_GEOMETRY
 10
3033.883
 20
-598.824
 40
7.23
 50
72.759
 51
80.595
  0
ARC
  8
APS_GEOMETRY
 10
3034.606
 20
-596.584
 40
4.876
 50
40.956
 51
73.072
  0
ARC
  8
APS_GEOMETRY
 10
3035.986
 20
-595.386
 40
3.048
 50
360.0
 51
40.956
  0
ARC
  8
APS_GEOMETRY
 10
3036.17
 20
-595.386
 40
2.865
 50
322.573
 51
360.0
  0
ARC
  8
APS_GEOMETRY
 10
3034.664
 20
-594.234
 40
4.76
 50
293.749
 51
322.573
  0
ARC
  8
APS_GEOMETRY
 10
3040.709
 20
-608.115
 40
10.38
 50
113.429
 51
119.291
  0
ARC
  8
APS_GEOMETRY
 10
3036.669
 20
-600.915
 40
2.124
 50
119.291
 51
132.274
  0
ARC
  8
APS_GEOMETRY
 10
3036.437
 20
-600.658
 40
1.778
 50
132.274
 51
147.653
  0
ARC
  8
APS_GEOMETRY
 10
3038.119
 20
-601.724
 40
3.769
 50
147.653
 51
158.199
  0
ARC
  8
APS_GEOMETRY
 10
3040.678
 20
-602.803
 40
6.546
 50
157.751
 51
167.885
  0
ARC
  8
APS_GEOMETRY
 10
3054.298
 20
-605.726
 40
20.477
 50
167.885
 51
173.61
  0
ARC
  8
APS_GEOMETRY
 10
3066.345
 20
-607.076
 40
32.599
 50
173.61
 51
177.221
  0
ARC
  8
APS_GEOMETRY
 10
3103.5
 20
-608.879
 40
69.798
 50
177.221
 51
179.689
  0
LINE
  8
APS_GEOMETRY
 10
3033.704
 11
3033.704
 20
-608.5
 21
-619.161
  0
ARC
  8
APS_GEOMETRY
 10
3469.069
 20
-619.161
 40
435.365
 50
180.0
 51
180.161
  0
ARC
  8
APS_GEOMETRY
 10
3846.888
 20
-618.097
 40
813.186
 50
180.161
 51
180.279
  0
LINE
  8
APS_GEOMETRY
 10
3033.712
 11
3033.722
 20
-622.064
 21
-623.852
  0
LINE
  8
APS_GEOMETRY
 10
3033.722
 11
3033.736
 20
-623.852
 21
-625.865
  0
ARC
  8
APS_GEOMETRY
 10
2956.052
 20
-626.307
 40
77.685
 50
358.204
 51
0.326
  0
ARC
  8
APS_GEOMETRY
 10
2993.007
 20
-627.465
 40
40.713
 50
355.274
 51
358.204
  0
ARC
  8
APS_GEOMETRY
 10
3005.869
 20
-628.529
 40
27.806
 50
350.991
 51
355.274
  0
ARC
  8
APS_GEOMETRY
 10
3022.248
 20
-631.125
 40
11.223
 50
344.249
 51
350.991
  0
ARC
  8
APS_GEOMETRY
 10
3027.784
 20
-632.706
 40
5.466
 50
314.415
 51
344.445
  0
ARC
  8
APS_GEOMETRY
 10
3029.812
 20
-634.776
 40
2.568
 50
270.0
 51
314.415
  0
ARC
  8
APS_GEOMETRY
 10
3029.812
 20
-633.184
 40
4.16
 50
256.342
 51
270.0
  0
ARC
  8
APS_GEOMETRY
 10
3029.515
 20
-634.404
 40
2.905
 50
239.982
 51
256.342
  0
ARC
  8
APS_GEOMETRY
 10
3030.81
 20
-632.164
 40
5.492
 50
231.153
 51
239.982
  0
ARC
  8
APS_GEOMETRY
 10
3052.558
 20
-605.159
 40
40.166
 50
227.891
 51
231.153
  0
LINE
  8
APS_GEOMETRY
 10
3025.626
 11
3006.233
 20
-634.957
 21
-617.591
  0
ARC
  8
APS_GEOMETRY
 10
2998.761
 20
-625.863
 40
11.146
 50
47.911
 51
61.468
  0
ARC
  8
APS_GEOMETRY
 10
3002.864
 20
-618.317
 40
2.557
 50
61.468
 51
90.0
  0
ARC
  8
APS_GEOMETRY
 10
3002.864
 20
-616.88
 40
1.12
 50
90.0
 51
133.195
  0
ARC
  8
APS_GEOMETRY
 10
3003.968
 20
-618.056
 40
2.733
 50
133.195
 51
160.454
  0
ARC
  8
APS_GEOMETRY
 10
3007.512
 20
-619.314
 40
6.494
 50
160.454
 51
173.251
  0
ARC
  8
APS_GEOMETRY
 10
3024.18
 20
-621.287
 40
23.278
 50
173.251
 51
180.0
  0
ARC
  8
APS_GEOMETRY
 10
3069.52
 20
-621.287
 40
68.618
 50
180.0
 51
181.897
  0
ARC
  8
APS_GEOMETRY
 10
3033.177
 20
-622.491
 40
32.255
 50
181.897
 51
184.664
  0
ARC
  8
APS_GEOMETRY
 10
3021.266
 20
-623.462
 40
20.304
 50
184.664
 51
189.048
  0
ARC
  8
APS_GEOMETRY
 10
3007.465
 20
-625.66
 40
6.329
 50
189.048
 51
196.905
  0
ARC
  8
APS_GEOMETRY
 10
3005.274
 20
-626.326
 40
4.04
 50
196.905
 51
220.253
  0
ARC
  8
APS_GEOMETRY
 10
3005.318
 20
-626.289
 40
4.097
 50
220.253
 51
243.435
  0
ARC
  8
APS_GEOMETRY
 10
3001.32
 20
-634.35
 40
4.901
 50
37.921
 51
63.778
  0
ARC
  8
APS_GEOMETRY
 10
3003.353
 20
-632.766
 40
2.324
 50
360.0
 51
37.921
  0
ARC
  8
APS_GEOMETRY
 10
3002.449
 20
-632.766
 40
3.227
 50
324.268
 51
360.0
  0
ARC
  8
APS_GEOMETRY
 10
3001.242
 20
-631.897
 40
4.715
 50
294.86
 51
324.268
  0
ARC
  8
APS_GEOMETRY
 10
2999.245
 20
-627.587
 40
9.465
 50
278.78
 51
294.86
  0
ARC
  8
APS_GEOMETRY
 10
2995.866
 20
-605.707
 40
31.604
 50
270.0
 51
278.78
  0
ARC
  8
APS_GEOMETRY
 10
2995.866
 20
-611.379
 40
25.933
 50
260.383
 51
270.0
  0
ARC
  8
APS_GEOMETRY
 10
2993.133
 20
-627.508
 40
9.574
 50
244.522
 51
260.383
  0
ARC
  8
APS_GEOMETRY
 10
2991.153
 20
-631.662
 40
4.972
 50
216.549
 51
244.522
  0
ARC
  8
APS_GEOMETRY
 10
2989.532
 20
-632.864
 40
2.954
 50
180.0
 51
216.549
  0
ARC
  8
APS_GEOMETRY
 10
2990.585
 20
-632.864
 40
4.007
 50
164.65
 51
180.0
  0
ARC
  8
APS_GEOMETRY
 10
2988.299
 20
-632.237
 40
1.637
 50
140.528
 51
164.65
  0
ARC
  8
APS_GEOMETRY
 10
2989.224
 20
-632.998
 40
2.835
 50
126.135
 51
140.528
  0
ARC
  8
APS_GEOMETRY
 10
2998.878
 20
-646.221
 40
19.207
 50
120.619
 51
126.135
  0
ARC
  8
APS_GEOMETRY
 10
2987.432
 20
-626.899
 40
3.251
 50
300.784
 51
330.068
  0
ARC
  8
APS_GEOMETRY
 10
2985.267
 20
-625.652
 40
5.749
 50
330.068
 51
351.983
  0
ARC
  8
APS_GEOMETRY
 10
2948.904
 20
-620.912
 40
42.42
 50
352.493
 51
355.365
  0
ARC
  8
APS_GEOMETRY
 10
2905.041
 20
-617.355
 40
86.427
 50
355.365
 51
357.376
  0
ARC
  8
APS_GEOMETRY
 10
2874.328
 20
-615.948
 40
117.171
 50
357.376
 51
358.861
  0
ARC
  8
APS_GEOMETRY
 10
2792.502
 20
-614.321
 40
199.014
 50
358.861
 51
0.0
  0
ARC
  8
APS_GEOMETRY
 10
2866.092
 20
-614.321
 40
125.424
 50
360.0
 51
1.926
  0
ARC
  8
APS_GEOMETRY
 10
2924.478
 20
-612.357
 40
67.005
 50
1.926
 51
4.562
  0
ARC
  8
APS_GEOMETRY
 10
2945.065
 20
-610.715
 40
46.352
 50
4.562
 51
8.366
  0
ARC
  8
APS_GEOMETRY
 10
2971.841
 20
-606.777
 40
19.288
 50
8.366
 51
14.265
  0
ARC
  8
APS_GEOMETRY
 10
2981.966
 20
-604.217
 40
8.844
 50
14.349
 51
23.629
  0
ARC
  8
APS_GEOMETRY
 10
2987.101
 20
-601.97
 40
3.24
 50
23.629
 51
38.991
  0
ARC
  8
APS_GEOMETRY
 10
2987.12
 20
-601.955
 40
3.215
 50
38.991
 51
54.462
  0
ARC
  8
APS_GEOMETRY
 10
2984.116
 20
-606.16
 40
8.384
 50
54.462
 51
64.026
  0
ARC
  8
APS_GEOMETRY
 10
2992.594
 20
-588.793
 40
10.942
 50
235.472
 51
243.947
  0
ARC
  8
APS_GEOMETRY
 10
2988.214
 20
-595.158
 40
3.216
 50
219.806
 51
235.472
  0
ARC
  8
APS_GEOMETRY
 10
2987.551
 20
-595.711
 40
2.353
 50
198.939
 51
219.806
  0
ARC
  8
APS_GEOMETRY
 10
2988.022
 20
-595.549
 40
2.851
 50
180.0
 51
198.939
  0
ARC
  8
APS_GEOMETRY
 10
2987.883
 20
-595.549
 40
2.712
 50
126.254
 51
180.0
  0
ARC
  8
APS_GEOMETRY
 10
2992.022
 20
-601.194
 40
9.711
 50
98.616
 51
126.254
  0
ARC
  8
APS_GEOMETRY
 10
2992.606
 20
-605.857
 40
14.41
 50
94.456
 51
98.13
  0
ARC
  8
APS_GEOMETRY
 10
2994.854
 20
-634.709
 40
43.349
 50
92.337
 51
94.456
  0
ARC
  8
APS_GEOMETRY
 10
2995.812
 20
-658.188
 40
66.847
 50
90.963
 51
92.337
  0
ARC
  8
APS_GEOMETRY
 10
2996.978
 20
-727.536
 40
136.206
 50
90.0
 51
90.963
  0
ARC
  8
APS_GEOMETRY
 10
2996.978
 20
-616.152
 40
24.822
 50
83.928
 51
90.0
  0
ARC
  8
APS_GEOMETRY
 10
2999.013
 20
-597.015
 40
5.577
 50
71.095
 51
83.928
  0
ARC
  8
APS_GEOMETRY
 10
2999.199
 20
-596.472
 40
5.003
 50
56.848
 51
71.095
  0
ARC
  8
APS_GEOMETRY
 10
2993.697
 20
-604.896
 40
15.065
 50
48.652
 51
56.848
  0
ARC
  8
APS_GEOMETRY
 10
3062.456
 20
-631.938
 40
40.608
 50
84.71
 51
90.0
  0
ARC
  8
APS_GEOMETRY
 10
3063.201
 20
-623.898
 40
32.533
 50
78.799
 51
84.71
  0
ARC
  8
APS_GEOMETRY
 10
3068.017
 20
-599.555
 40
7.718
 50
49.783
 51
78.771
  0
ARC
  8
APS_GEOMETRY
 10
3071.239
 20
-595.746
 40
2.729
 50
360.0
 51
49.783
  0
ARC
  8
APS_GEOMETRY
 10
3070.948
 20
-595.746
 40
3.02
 50
342.759
 51
360.0
  0
ARC
  8
APS_GEOMETRY
 10
3072.524
 20
-596.234
 40
1.37
 50
317.045
 51
342.759
  0
ARC
  8
APS_GEOMETRY
 10
3071.763
 20
-595.526
 40
2.41
 50
301.817
 51
317.045
  0
ARC
  8
APS_GEOMETRY
 10
3060.507
 20
-577.384
 40
23.76
 50
296.98
 51
301.817
  0
ARC
  8
APS_GEOMETRY
 10
3072.509
 20
-601.002
 40
2.733
 50
116.565
 51
149.078
  0
ARC
  8
APS_GEOMETRY
 10
3076.028
 20
-603.11
 40
6.835
 50
149.078
 51
169.469
  0
ARC
  8
APS_GEOMETRY
 10
3083.532
 20
-604.505
 40
14.468
 50
169.469
 51
174.598
  0
ARC
  8
APS_GEOMETRY
 10
3122.196
 20
-608.162
 40
53.304
 50
174.598
 51
177.269
  0
ARC
  8
APS_GEOMETRY
 10
3156.194
 20
-609.783
 40
87.341
 50
177.269
 51
178.901
  0
ARC
  8
APS_GEOMETRY
 10
3261.5
 20
-611.803
 40
192.667
 50
178.901
 51
180.0
  0
ARC
  8
APS_GEOMETRY
 10
3475.49
 20
-611.803
 40
406.657
 50
180.0
 51
180.88
  0
ARC
  8
APS_GEOMETRY
 10
3224.97
 20
-615.651
 40
156.107
 50
180.88
 51
182.3
  0
ARC
  8
APS_GEOMETRY
 10
3151.745
 20
-618.592
 40
82.823
 50
182.3
 51
184.974
  0
ARC
  8
APS_GEOMETRY
 10
3081.924
 20
-624.668
 40
12.738
 50
184.974
 51
191.793
  0
ARC
  8
APS_GEOMETRY
 10
3073.814
 20
-626.22
 40
4.484
 50
193.57
 51
205.787
  0
ARC
  8
APS_GEOMETRY
 10
3071.797
 20
-627.194
 40
2.244
 50
205.787
 51
223.091
  0
ARC
  8
APS_GEOMETRY
 10
3072.308
 20
-626.716
 40
2.944
 50
223.091
 51
236.441
  0
ARC
  8
APS_GEOMETRY
 10
3076.592
 20
-620.258
 40
10.693
 50
236.441
 51
243.435
  0
ARC
  8
APS_GEOMETRY
 10
3070.034
 20
-633.729
 40
4.291
 50
37.185
 51
65.556
  0
ARC
  8
APS_GEOMETRY
 10
3071.433
 20
-632.668
 40
2.535
 50
360.0
 51
37.185
  0
ARC
  8
APS_GEOMETRY
 10
3071.356
 20
-632.668
 40
2.612
 50
312.039
 51
360.0
  0
ARC
  8
APS_GEOMETRY
 10
3068.245
 20
-629.217
 40
7.258
 50
283.815
 51
312.039
  0
ARC
  8
APS_GEOMETRY
 10
3063.105
 20
-607.912
 40
29.174
 50
279.273
 51
283.627
  0
ARC
  8
APS_GEOMETRY
 10
3061.05
 20
-595.327
 40
41.926
 50
275.641
 51
279.273
  0
ARC
  8
APS_GEOMETRY
 10
3060.264
 20
-587.373
 40
49.919
 50
272.588
 51
275.641
  0
ARC
  8
APS_GEOMETRY
 10
3059.382
 20
-567.856
 40
69.456
 50
270.0
 51
272.588
  0
ARC
  8
APS_GEOMETRY
 10
3059.382
 20
-595.418
 40
41.894
 50
262.774
 51
270.0
  0
ARC
  8
APS_GEOMETRY
 10
3055.606
 20
-625.205
 40
11.868
 50
249.175
 51
262.774
  0
ARC
  8
APS_GEOMETRY
 10
3053.233
 20
-631.443
 40
5.194
 50
221.23
 51
249.175
  0
ARC
  8
APS_GEOMETRY
 10
3051.164
 20
-633.256
 40
2.443
 50
180.0
 51
221.23
  0
ARC
  8
APS_GEOMETRY
 10
3050.762
 20
-633.256
 40
2.041
 50
142.696
 51
180.0
  0
ARC
  8
APS_GEOMETRY
 10
3053.984
 20
-635.711
 40
6.091
 50
121.357
 51
142.696
  0
ARC
  8
APS_GEOMETRY
 10
3048.54
 20
-626.796
 40
4.354
 50
301.477
 51
324.728
  0
ARC
  8
APS_GEOMETRY
 10
3049.121
 20
-627.206
 40
3.643
 50
324.728
 51
350.181
  0
ARC
  8
APS_GEOMETRY
 10
3030.88
 20
-624.189
 40
22.132
 50
350.538
 51
355.423
  0
ARC
  8
APS_GEOMETRY
 10
2955.928
 20
-618.189
 40
97.324
 50
355.423
 51
357.752
  0
ARC
  8
APS_GEOMETRY
 10
2886.334
 20
-615.457
 40
166.971
 50
357.752
 51
359.111
  0
ARC
  8
APS_GEOMETRY
 10
2663.588
 20
-611.999
 40
389.744
 50
359.111
 51
0.0
  0
ARC
  8
APS_GEOMETRY
 10
2918.109
 20
-611.999
 40
135.223
 50
0.0
 51
1.773
  0
ARC
  8
APS_GEOMETRY
 10
2997.469
 20
-609.543
 40
55.825
 50
1.773
 51
4.532
  0
ARC
  8
APS_GEOMETRY
 10
3021.59
 20
-607.631
 40
31.629
 50
4.532
 51
9.384
  0
ARC
  8
APS_GEOMETRY
 10
3046.083
 20
-603.583
 40
6.803
 50
9.384
 51
19.855
  0
ARC
  8
APS_GEOMETRY
 10
3049.325
 20
-602.35
 40
3.336
 50
18.853
 51
42.158
  0
ARC
  8
APS_GEOMETRY
 10
3046.546
 20
-604.866
 40
7.084
 50
42.158
 51
58.092
  0
ARC
  8
APS_GEOMETRY
 10
3058.775
 20
-585.969
 40
15.426
 50
230.711
 51
236.634
  0
ARC
  8
APS_GEOMETRY
 10
3051.094
 20
-595.357
 40
3.296
 50
217.875
 51
230.711
  0
ARC
  8
APS_GEOMETRY
 10
3050.04
 20
-596.176
 40
1.962
 50
196.928
 51
217.875
  0
ARC
  8
APS_GEOMETRY
 10
3051.026
 20
-595.876
 40
2.992
 50
180.0
 51
196.928
  0
ARC
  8
APS_GEOMETRY
 10
3050.382
 20
-595.876
 40
2.347
 50
148.791
 51
180.0
  0
ARC
  8
APS_GEOMETRY
 10
3050.997
 20
-596.249
 40
3.067
 50
121.569
 51
148.791
  0
ARC
  8
APS_GEOMETRY
 10
3052.102
 20
-598.048
 40
5.178
 50
112.806
 51
121.569
  0
ARC
  8
APS_GEOMETRY
 10
3055.09
 20
-605.152
 40
12.885
 50
107.254
 51
112.806
  0
ARC
  8
APS_GEOMETRY
 10
3056.919
 20
-611.044
 40
19.054
 50
103.487
 51
107.254
  0
ARC
  8
APS_GEOMETRY
 10
3061.11
 20
-628.516
 40
37.022
 50
100.784
 51
103.487
  0
ARC
  8
APS_GEOMETRY
 10
3062.422
 20
-633.347
 40
42.015
 50
95.643
 51
101.31
  0
ARC
  8
APS_GEOMETRY
 10
3062.456
 20
-633.693
 40
42.362
 50
90.0
 51
95.643
  0
ARC
  8
APS_GEOMETRY
 10
3103.127
 20
-612.365
 40
21.264
 50
77.257
 51
90.0
  0
ARC
  8
APS_GEOMETRY
 10
3102.91
 20
-613.321
 40
22.243
 50
64.799
 51
77.257
  0
ARC
  8
APS_GEOMETRY
 10
3121.228
 20
-574.322
 40
20.843
 50
244.885
 51
251.175
  0
ARC
  8
APS_GEOMETRY
 10
3115.26
 20
-591.83
 40
2.346
 50
251.175
 51
270.0
  0
ARC
  8
APS_GEOMETRY
 10
3115.26
 20
-590.369
 40
3.806
 50
270.0
 51
278.82
  0
ARC
  8
APS_GEOMETRY
 10
3112.8
 20
-574.522
 40
19.844
 50
278.82
 51
282.68
  0
ARC
  8
APS_GEOMETRY
 10
3117.946
 20
-597.302
 40
3.511
 50
95.906
 51
102.995
  0
ARC
  8
APS_GEOMETRY
 10
3118.105
 20
-598.839
 40
5.055
 50
90.0
 51
95.906
  0
ARC
  8
APS_GEOMETRY
 10
3118.105
 20
-597.139
 40
3.356
 50
62.447
 51
90.0
  0
ARC
  8
APS_GEOMETRY
 10
3117.508
 20
-598.282
 40
4.645
 50
39.094
 51
62.447
  0
ARC
  8
APS_GEOMETRY
 10
3111.274
 20
-603.496
 40
12.772
 50
18.435
 51
39.611
  0
ARC
  8
APS_GEOMETRY
 10
3107.447
 20
-604.772
 40
16.806
 50
360.0
 51
18.435
  0
ARC
  8
APS_GEOMETRY
 10
3115.92
 20
-604.772
 40
8.333
 50
334.877
 51
360.0
  0
ARC
  8
APS_GEOMETRY
 10
3118.426
 20
-605.947
 40
5.565
 50
304.007
 51
334.877
  0
ARC
  8
APS_GEOMETRY
 10
3118.385
 20
-605.829
 40
5.686
 50
286.39
 51
303.69
  0
ARC
  8
APS_GEOMETRY
 10
3118.203
 20
-605.211
 40
6.33
 50
270.0
 51
286.39
  0
ARC
  8
APS_GEOMETRY
 10
3118.203
 20
-605.285
 40
6.257
 50
255.155
 51
270.0
  0
ARC
  8
APS_GEOMETRY
 10
3117.517
 20
-607.871
 40
3.581
 50
235.491
 51
255.155
  0
ARC
  8
APS_GEOMETRY
 10
3117.861
 20
-607.37
 40
4.189
 50
218.48
 51
235.491
  0
ARC
  8
APS_GEOMETRY
 10
3123.482
 20
-602.902
 40
11.369
 50
208.179
 51
218.48
  0
ARC
  8
APS_GEOMETRY
 10
3065.858
 20
-634.181
 40
54.198
 50
28.56
 51
31.664
  0
ARC
  8
APS_GEOMETRY
 10
3101.07
 20
-612.465
 40
12.827
 50
31.664
 51
38.047
  0
ARC
  8
APS_GEOMETRY
 10
3103.63
 20
-610.461
 40
9.576
 50
38.047
 51
46.56
  0
ARC
  8
APS_GEOMETRY
 10
3102.299
 20
-611.866
 40
11.512
 50
46.56
 51
54.324
  0
ARC
  8
APS_GEOMETRY
 10
3101.531
 20
-613.188
 40
13.034
 50
54.968
 51
71.48
  0
ARC
  8
APS_GEOMETRY
 10
3102.374
 20
-610.671
 40
10.38
 50
71.48
 51
90.0
  0
ARC
  8
APS_GEOMETRY
 10
3102.374
 20
-607.542
 40
7.251
 50
90.0
 51
114.63
  0
ARC
  8
APS_GEOMETRY
 10
3102.01
 20
-606.748
 40
6.377
 50
114.63
 51
140.921
  0
ARC
  8
APS_GEOMETRY
 10
3103.086
 20
-607.621
 40
7.763
 50
140.921
 51
163.13
  0
ARC
  8
APS_GEOMETRY
 10
3108.463
 20
-609.252
 40
13.382
 50
163.13
 51
180.0
  0
ARC
  8
APS_GEOMETRY
 10
3115.437
 20
-609.252
 40
20.355
 50
180.0
 51
195.44
  0
ARC
  8
APS_GEOMETRY
 10
3114.379
 20
-609.544
 40
19.258
 50
195.44
 51
211.316
  0
ARC
  8
APS_GEOMETRY
 10
3109.29
 20
-612.534
 40
13.357
 50
211.708
 51
240.457
  0
ARC
  8
APS_GEOMETRY
 10
3108.948
 20
-613.137
 40
12.663
 50
240.457
 51
270.0
  0
ARC
  8
APS_GEOMETRY
 10
3108.948
 20
-610.049
 40
15.751
 50
270.0
 51
279.549
  0
ARC
  8
APS_GEOMETRY
 10
3108.752
 20
-608.885
 40
16.931
 50
279.549
 51
288.759
  0
ARC
  8
APS_GEOMETRY
 10
3109.577
 20
-611.316
 40
14.364
 50
288.759
 51
299.545
  0
ARC
  8
APS_GEOMETRY
 10
3112.887
 20
-617.155
 40
7.652
 50
299.545
 51
314.341
  0
ARC
  8
APS_GEOMETRY
 10
3123.122
 20
-627.786
 40
7.105
 50
120.141
 51
133.452
  0
ARC
  8
APS_GEOMETRY
 10
3120.263
 20
-622.862
 40
1.412
 50
90.0
 51
120.141
  0
ARC
  8
APS_GEOMETRY
 10
3120.263
 20
-623.68
 40
2.23
 50
61.952
 51
90.0
  0
ARC
  8
APS_GEOMETRY
 10
3119.931
 20
-624.303
 40
2.936
 50
37.569
 51
61.952
  0
ARC
  8
APS_GEOMETRY
 10
3119.312
 20
-624.78
 40
3.717
 50
17.665
 51
37.569
  0
ARC
  8
APS_GEOMETRY
 10
3118.367
 20
-625.081
 40
4.709
 50
360.0
 51
17.665
  0
ARC
  8
APS_GEOMETRY
 10
3115.995
 20
-625.081
 40
7.081
 50
344.932
 51
360.0
  0
ARC
  8
APS_GEOMETRY
 10
3109.697
 20
-623.385
 40
13.603
 50
334.075
 51
344.932
  0
ARC
  8
APS_GEOMETRY
 10
3109.499
 20
-623.289
 40
13.823
 50
323.374
 51
334.075
  0
ARC
  8
APS_GEOMETRY
 10
3113.563
 20
-626.309
 40
8.76
 50
309.92
 51
323.374
  0
ARC
  8
APS_GEOMETRY
 10
3117.624
 20
-631.1
 40
2.48
 50
289.026
 51
308.991
  0
ARC
  8
APS_GEOMETRY
 10
3113.291
 20
-618.535
 40
15.771
 50
281.143
 51
289.026
  0
ARC
  8
APS_GEOMETRY
 10
3117.685
 20
-641.316
 40
7.431
 50
100.437
 51
110.12
  0
ARC
  8
APS_GEOMETRY
 10
3123.506
 20
-657.206
 40
24.353
 50
110.12
 51
115.463
  0
ARC
  8
APS_GEOMETRY
 10
3102.725
 20
-613.726
 40
23.838
 50
282.94
 51
295.628
  0
ARC
  8
APS_GEOMETRY
 10
3102.93
 20
-614.62
 40
22.921
 50
270.0
 51
282.94
  0
ARC
  8
APS_GEOMETRY
 10
3102.93
 20
-613.266
 40
24.275
 50
257.307
 51
270.0
  0
ARC
  8
APS_GEOMETRY
 10
3103.955
 20
-608.716
 40
28.939
 50
245.686
 51
257.307
  0
ARC
  8
APS_GEOMETRY
 10
3101.385
 20
-614.357
 40
22.739
 50
228.801
 51
245.735
  0
ARC
  8
APS_GEOMETRY
 10
3101.428
 20
-614.308
 40
22.805
 50
211.891
 51
228.801
  0
ARC
  8
APS_GEOMETRY
 10
3102.775
 20
-613.338
 40
24.462
 50
196.728
 51
212.152
  0
ARC
  8
APS_GEOMETRY
 10
3099.288
 20
-614.386
 40
20.82
 50
180.0
 51
196.728
  0
ARC
  8
APS_GEOMETRY
 10
3099.795
 20
-614.386
 40
21.327
 50
161.184
 51
180.0
  0
ARC
  8
APS_GEOMETRY
 10
3101.163
 20
-614.853
 40
22.773
 50
142.98
 51
161.184
  0
ARC
  8
APS_GEOMETRY
 10
3102.227
 20
-615.667
 40
24.112
 50
127.824
 51
142.958
  0
ARC
  8
APS_GEOMETRY
 10
3103.981
 20
-617.926
 40
26.973
 50
113.52
 51
127.824
  0
ARC
  8
APS_GEOMETRY
 10
3103.411
 20
-616.607
 40
25.535
 50
101.927
 51
113.527
  0
ARC
  8
APS_GEOMETRY
 10
3103.127
 20
-615.263
 40
24.161
 50
90.0
 51
101.927
  0
ARC
  8
APS_GEOMETRY
 10
3147.675
 20
-631.938
 40
40.608
 50
84.71
 51
90.0
  0
ARC
  8
APS_GEOMETRY
 10
3148.42
 20
-623.898
 40
32.533
 50
78.799
 51
84.71
  0
ARC
  8
APS_GEOMETRY
 10
3153.236
 20
-599.555
 40
7.718
 50
49.783
 51
78.771
  0
ARC
  8
APS_GEOMETRY
 10
3156.458
 20
-595.746
 40
2.729
 50
360.0
 51
49.783
  0
ARC
  8
APS_GEOMETRY
 10
3156.167
 20
-595.746
 40
3.02
 50
342.759
 51
360.0
  0
ARC
  8
APS_GEOMETRY
 10
3157.742
 20
-596.234
 40
1.37
 50
317.045
 51
342.759
  0
ARC
  8
APS_GEOMETRY
 10
3156.982
 20
-595.526
 40
2.41
 50
301.817
 51
317.045
  0
ARC
  8
APS_GEOMETRY
 10
3145.726
 20
-577.384
 40
23.76
 50
296.98
 51
301.817
  0
ARC
  8
APS_GEOMETRY
 10
3157.727
 20
-601.002
 40
2.733
 50
116.565
 51
149.078
  0
ARC
  8
APS_GEOMETRY
 10
3161.246
 20
-603.11
 40
6.835
 50
149.078
 51
169.469
  0
ARC
  8
APS_GEOMETRY
 10
3168.751
 20
-604.505
 40
14.468
 50
169.469
 51
174.598
  0
ARC
  8
APS_GEOMETRY
 10
3207.415
 20
-608.162
 40
53.304
 50
174.598
 51
177.269
  0
ARC
  8
APS_GEOMETRY
 10
3241.412
 20
-609.783
 40
87.341
 50
177.269
 51
178.901
  0
ARC
  8
APS_GEOMETRY
 10
3346.719
 20
-611.803
 40
192.667
 50
178.901
 51
180.0
  0
ARC
  8
APS_GEOMETRY
 10
3560.709
 20
-611.803
 40
406.657
 50
180.0
 51
180.88
  0
ARC
  8
APS_GEOMETRY
 10
3310.189
 20
-615.651
 40
156.107
 50
180.88
 51
182.3
  0
ARC
  8
APS_GEOMETRY
 10
3236.964
 20
-618.592
 40
82.823
 50
182.3
 51
184.974
  0
ARC
  8
APS_GEOMETRY
 10
3167.143
 20
-624.668
 40
12.738
 50
184.974
 51
191.793
  0
ARC
  8
APS_GEOMETRY
 10
3159.033
 20
-626.22
 40
4.484
 50
193.57
 51
205.787
  0
ARC
  8
APS_GEOMETRY
 10
3157.015
 20
-627.194
 40
2.244
 50
205.787
 51
223.091
  0
ARC
  8
APS_GEOMETRY
 10
3157.527
 20
-626.716
 40
2.944
 50
223.091
 51
236.441
  0
ARC
  8
APS_GEOMETRY
 10
3161.81
 20
-620.258
 40
10.693
 50
236.441
 51
243.435
  0
ARC
  8
APS_GEOMETRY
 10
3155.253
 20
-633.729
 40
4.291
 50
37.185
 51
65.556
  0
ARC
  8
APS_GEOMETRY
 10
3156.652
 20
-632.668
 40
2.535
 50
360.0
 51
37.185
  0
ARC
  8
APS_GEOMETRY
 10
3156.575
 20
-632.668
 40
2.612
 50
312.039
 51
360.0
  0
ARC
  8
APS_GEOMETRY
 10
3153.464
 20
-629.217
 40
7.258
 50
283.815
 51
312.039
  0
ARC
  8
APS_GEOMETRY
 10
3148.324
 20
-607.912
 40
29.174
 50
279.273
 51
283.627
  0
ARC
  8
APS_GEOMETRY
 10
3146.269
 20
-595.327
 40
41.926
 50
275.641
 51
279.273
  0
ARC
  8
APS_GEOMETRY
 10
3145.483
 20
-587.373
 40
49.919
 50
272.588
 51
275.641
  0
ARC
  8
APS_GEOMETRY
 10
3144.601
 20
-567.856
 40
69.456
 50
270.0
 51
272.588
  0
ARC
  8
APS_GEOMETRY
 10
3144.601
 20
-595.418
 40
41.894
 50
262.774
 51
270.0
  0
ARC
  8
APS_GEOMETRY
 10
3140.824
 20
-625.205
 40
11.868
 50
249.175
 51
262.774
  0
ARC
  8
APS_GEOMETRY
 10
3138.452
 20
-631.443
 40
5.194
 50
221.23
 51
249.175
  0
ARC
  8
APS_GEOMETRY
 10
3136.383
 20
-633.256
 40
2.443
 50
180.0
 51
221.23
  0
ARC
  8
APS_GEOMETRY
 10
3135.981
 20
-633.256
 40
2.041
 50
142.696
 51
180.0
  0
ARC
  8
APS_GEOMETRY
 10
3139.202
 20
-635.711
 40
6.091
 50
121.357
 51
142.696
  0
ARC
  8
APS_GEOMETRY
 10
3133.759
 20
-626.796
 40
4.354
 50
301.477
 51
324.728
  0
ARC
  8
APS_GEOMETRY
 10
3134.34
 20
-627.206
 40
3.643
 50
324.728
 51
350.181
  0
ARC
  8
APS_GEOMETRY
 10
3116.099
 20
-624.189
 40
22.132
 50
350.538
 51
355.423
  0
ARC
  8
APS_GEOMETRY
 10
3041.147
 20
-618.189
 40
97.324
 50
355.423
 51
357.752
  0
ARC
  8
APS_GEOMETRY
 10
2971.553
 20
-615.457
 40
166.971
 50
357.752
 51
359.111
  0
ARC
  8
APS_GEOMETRY
 10
2748.807
 20
-611.999
 40
389.744
 50
359.111
 51
0.0
  0
ARC
  8
APS_GEOMETRY
 10
3003.327
 20
-611.999
 40
135.223
 50
0.0
 51
1.773
  0
ARC
  8
APS_GEOMETRY
 10
3082.687
 20
-609.543
 40
55.825
 50
1.773
 51
4.532
  0
ARC
  8
APS_GEOMETRY
 10
3106.808
 20
-607.631
 40
31.629
 50
4.532
 51
9.384
  0
ARC
  8
APS_GEOMETRY
 10
3131.302
 20
-603.583
 40
6.803
 50
9.384
 51
19.855
  0
ARC
  8
APS_GEOMETRY
 10
3134.544
 20
-602.35
 40
3.336
 50
18.853
 51
42.158
  0
ARC
  8
APS_GEOMETRY
 10
3131.765
 20
-604.866
 40
7.084
 50
42.158
 51
58.092
  0
ARC
  8
APS_GEOMETRY
 10
3143.994
 20
-585.969
 40
15.426
 50
230.711
 51
236.634
  0
ARC
  8
APS_GEOMETRY
 10
3136.312
 20
-595.357
 40
3.296
 50
217.875
 51
230.711
  0
ARC
  8
APS_GEOMETRY
 10
3135.259
 20
-596.176
 40
1.962
 50
196.928
 51
217.875
  0
ARC
  8
APS_GEOMETRY
 10
3136.245
 20
-595.876
 40
2.992
 50
180.0
 51
196.928
  0
ARC
  8
APS_GEOMETRY
 10
3135.6
 20
-595.876
 40
2.347
 50
148.791
 51
180.0
  0
ARC
  8
APS_GEOMETRY
 10
3136.216
 20
-596.249
 40
3.067
 50
121.569
 51
148.791
  0
ARC
  8
APS_GEOMETRY
 10
3137.321
 20
-598.048
 40
5.178
 50
112.806
 51
121.569
  0
ARC
  8
APS_GEOMETRY
 10
3140.308
 20
-605.152
 40
12.885
 50
107.254
 51
112.806
  0
ARC
  8
APS_GEOMETRY
 10
3142.138
 20
-611.044
 40
19.054
 50
103.487
 51
107.254
  0
ARC
  8
APS_GEOMETRY
 10
3146.329
 20
-628.516
 40
37.022
 50
100.784
 51
103.487
  0
ARC
  8
APS_GEOMETRY
 10
3147.641
 20
-633.347
 40
42.015
 50
95.643
 51
101.31
  0
ARC
  8
APS_GEOMETRY
 10
3147.675
 20
-633.693
 40
42.362
 50
90.0
 51
95.643
  0
LINE
  8
APS_GEOMETRY
 10
3216.823
 11
3216.823
 20
-621.254
 21
-604.052
  0
ARC
  8
APS_GEOMETRY
 10
3177.102
 20
-604.052
 40
39.721
 50
0.0
 51
2.404
  0
ARC
  8
APS_GEOMETRY
 10
3200.619
 20
-603.065
 40
16.183
 50
2.404
 51
6.17
  0
ARC
  8
APS_GEOMETRY
 10
3207.668
 20
-602.303
 40
9.093
 50
6.17
 51
12.824
  0
ARC
  8
APS_GEOMETRY
 10
3214.568
 20
-600.732
 40
2.017
 50
12.824
 51
26.98
  0
ARC
  8
APS_GEOMETRY
 10
3214.891
 20
-600.568
 40
1.655
 50
26.98
 51
59.65
  0
ARC
  8
APS_GEOMETRY
 10
3211.853
 20
-605.757
 40
7.668
 50
59.65
 51
74.667
  0
ARC
  8
APS_GEOMETRY
 10
3215.355
 20
-593.258
 40
5.313
 50
225.0
 51
253.887
  0
ARC
  8
APS_GEOMETRY
 10
3213.194
 20
-595.418
 40
2.257
 50
180.0
 51
225.0
  0
ARC
  8
APS_GEOMETRY
 10
3213.609
 20
-595.418
 40
2.672
 50
151.157
 51
180.0
  0
ARC
  8
APS_GEOMETRY
 10
3213.603
 20
-595.415
 40
2.665
 50
122.276
 51
151.157
  0
ARC
  8
APS_GEOMETRY
 10
3214.367
 20
-596.625
 40
4.096
 50
102.308
 51
122.276
  0
ARC
  8
APS_GEOMETRY
 10
3215.777
 20
-603.089
 40
10.712
 50
90.0
 51
102.308
  0
ARC
  8
APS_GEOMETRY
 10
3215.777
 20
-615.543
 40
23.166
 50
88.989
 51
90.0
  0
ARC
  8
APS_GEOMETRY
 10
3213.83
 20
-725.888
 40
133.528
 50
88.568
 51
88.989
  0
ARC
  8
APS_GEOMETRY
 10
3211.08
 20
-835.892
 40
243.567
 50
88.337
 51
88.568
  0
ARC
  8
APS_GEOMETRY
 10
3200.421
 20
-1203.008
 40
610.838
 50
88.191
 51
88.337
  0
LINE
  8
APS_GEOMETRY
 10
3219.701
 11
3221.631
 20
-592.475
 21
-592.475
  0
ARC
  8
APS_GEOMETRY
 10
3215.149
 20
483.474
 40
1075.969
 50
270.345
 51
270.49
  0
ARC
  8
APS_GEOMETRY
 10
3221.189
 20
-223.136
 40
369.332
 50
270.49
 51
270.736
  0
ARC
  8
APS_GEOMETRY
 10
3223.668
 20
-416.008
 40
176.445
 50
270.736
 51
271.253
  0
ARC
  8
APS_GEOMETRY
 10
3227.193
 20
-577.224
 40
15.19
 50
271.253
 51
273.013
  0
ARC
  8
APS_GEOMETRY
 10
3227.047
 20
-574.437
 40
17.982
 50
273.013
 51
274.5
  0
ARC
  8
APS_GEOMETRY
 10
3210.391
 20
-362.783
 40
230.289
 50
274.5
 51
274.915
  0
LINE
  8
APS_GEOMETRY
 10
3230.122
 11
3232.085
 20
-592.226
 21
-592.053
  0
LINE
  8
APS_GEOMETRY
 10
3232.085
 11
3234.647
 20
-592.053
 21
-591.821
  0
ARC
  8
APS_GEOMETRY
 10
3238.86
 20
-632.545
 40
40.941
 50
93.24
 51
95.906
  0
ARC
  8
APS_GEOMETRY
 10
3238.113
 20
-619.361
 40
27.736
 50
90.0
 51
93.24
  0
ARC
  8
APS_GEOMETRY
 10
3238.113
 20
-615.178
 40
23.553
 50
77.12
 51
90.0
  0
ARC
  8
APS_GEOMETRY
 10
3239.354
 20
-609.752
 40
17.987
 50
62.371
 51
77.12
  0
ARC
  8
APS_GEOMETRY
 10
3241.455
 20
-605.812
 40
13.522
 50
31.215
 51
62.517
  0
ARC
  8
APS_GEOMETRY
 10
3241.392
 20
-605.851
 40
13.597
 50
360.0
 51
31.215
  0
ARC
  8
APS_GEOMETRY
 10
3241.027
 20
-605.851
 40
13.962
 50
334.496
 51
360.0
  0
ARC
  8
APS_GEOMETRY
 10
3241.713
 20
-606.178
 40
13.201
 50
308.254
 51
334.496
  0
ARC
  8
APS_GEOMETRY
 10
3239.614
 20
-603.412
 40
16.674
 50
287.855
 51
308.034
  0
ARC
  8
APS_GEOMETRY
 10
3238.212
 20
-599.059
 40
21.247
 50
270.0
 51
287.855
  0
ARC
  8
APS_GEOMETRY
 10
3238.212
 20
-588.109
 40
32.197
 50
266.918
 51
270.0
  0
ARC
  8
APS_GEOMETRY
 10
3240.166
 20
-551.812
 40
68.546
 50
264.806
 51
266.918
  0
ARC
  8
APS_GEOMETRY
 10
3227.093
 20
-713.921
 40
94.095
 50
85.815
 51
86.634
  0
ARC
  8
APS_GEOMETRY
 10
3232.292
 20
-625.542
 40
5.563
 50
86.634
 51
90.0
  0
ARC
  8
APS_GEOMETRY
 10
3232.292
 20
-620.8
 40
0.821
 50
90.0
 51
139.686
  0
ARC
  8
APS_GEOMETRY
 10
3232.597
 20
-621.058
 40
1.22
 50
139.686
 51
180.0
  0
LINE
  8
APS_GEOMETRY
 10
3231.377
 11
3231.377
 20
-621.058
 21
-621.254
  0
LINE
  8
APS_GEOMETRY
 10
3231.377
 11
3231.605
 20
-621.254
 21
-626.618
  0
ARC
  8
APS_GEOMETRY
 10
3239.356
 20
-626.295
 40
7.757
 50
182.386
 51
193.753
  0
ARC
  8
APS_GEOMETRY
 10
3234.358
 20
-627.518
 40
2.612
 50
193.753
 51
213.408
  0
ARC
  8
APS_GEOMETRY
 10
3234.414
 20
-627.481
 40
2.679
 50
213.408
 51
232.628
  0
ARC
  8
APS_GEOMETRY
 10
3238.924
 20
-621.575
 40
10.11
 50
232.628
 51
242.488
  0
ARC
  8
APS_GEOMETRY
 10
3231.402
 20
-635.84
 40
6.017
 50
40.539
 51
61.699
  0
ARC
  8
APS_GEOMETRY
 10
3234.69
 20
-633.027
 40
1.69
 50
360.0
 51
40.539
  0
ARC
  8
APS_GEOMETRY
 10
3234.111
 20
-633.027
 40
2.269
 50
315.297
 51
360.0
  0
ARC
  8
APS_GEOMETRY
 10
3231.041
 20
-629.99
 40
6.588
 50
289.502
 51
315.297
  0
ARC
  8
APS_GEOMETRY
 10
3228.792
 20
-623.638
 40
13.326
 50
282.372
 51
289.502
  0
ARC
  8
APS_GEOMETRY
 10
3226.429
 20
-612.867
 40
24.353
 50
277.099
 51
282.372
  0
ARC
  8
APS_GEOMETRY
 10
3225.458
 20
-605.068
 40
32.213
 50
273.104
 51
277.099
  0
ARC
  8
APS_GEOMETRY
 10
3224.313
 20
-583.949
 40
53.362
 50
270.0
 51
273.104
  0
ARC
  8
APS_GEOMETRY
 10
3224.313
 20
-584.589
 40
52.723
 50
263.473
 51
270.0
  0
ARC
  8
APS_GEOMETRY
 10
3219.98
 20
-622.456
 40
14.609
 50
251.056
 51
263.473
  0
ARC
  8
APS_GEOMETRY
 10
3217.198
 20
-630.561
 40
6.039
 50
224.161
 51
251.056
  0
ARC
  8
APS_GEOMETRY
 10
3214.524
 20
-633.158
 40
2.311
 50
180.0
 51
224.161
  0
ARC
  8
APS_GEOMETRY
 10
3215.003
 20
-633.158
 40
2.791
 50
160.821
 51
180.0
  0
ARC
  8
APS_GEOMETRY
 10
3213.833
 20
-632.751
 40
1.552
 50
135.0
 51
160.821
  0
ARC
  8
APS_GEOMETRY
 10
3214.939
 20
-633.858
 40
3.117
 50
121.522
 51
135.0
  0
ARC
  8
APS_GEOMETRY
 10
3227.424
 20
-654.214
 40
26.996
 50
116.952
 51
121.522
  0
ARC
  8
APS_GEOMETRY
 10
3213.791
 20
-627.503
 40
2.993
 50
297.824
 51
321.605
  0
ARC
  8
APS_GEOMETRY
 10
3214.481
 20
-628.049
 40
2.113
 50
321.605
 51
349.992
  0
ARC
  8
APS_GEOMETRY
 10
3211.281
 20
-627.484
 40
5.362
 50
349.992
 51
356.014
  0
ARC
  8
APS_GEOMETRY
 10
3162.619
 20
-624.093
 40
54.143
 50
356.014
 51
357.908
  0
ARC
  8
APS_GEOMETRY
 10
3105.814
 20
-622.018
 40
110.985
 50
357.908
 51
358.833
  0
ARC
  8
APS_GEOMETRY
 10
2900.418
 20
-617.834
 40
316.424
 50
358.833
 51
359.381
  0
LINE
  8
APS_GEOMETRY
 10
3231.605
 11
3231.605
 20
-599.899
 21
-611.018
  0
ARC
  8
APS_GEOMETRY
 10
3234.98
 20
-611.018
 40
3.374
 50
180.0
 51
199.885
  0
ARC
  8
APS_GEOMETRY
 10
3232.455
 20
-611.931
 40
0.689
 50
199.885
 51
244.799
  0
ARC
  8
APS_GEOMETRY
 10
3233.906
 20
-608.941
 40
4.013
 50
244.231
 51
258.996
  0
ARC
  8
APS_GEOMETRY
 10
3234.516
 20
-605.804
 40
7.209
 50
258.996
 51
270.0
  0
ARC
  8
APS_GEOMETRY
 10
3234.516
 20
-606.562
 40
6.45
 50
270.0
 51
288.435
  0
ARC
  8
APS_GEOMETRY
 10
3234.979
 20
-607.951
 40
4.987
 50
288.435
 51
309.428
  0
ARC
  8
APS_GEOMETRY
 10
3235.147
 20
-608.125
 40
4.745
 50
309.193
 51
339.939
  0
ARC
  8
APS_GEOMETRY
 10
3229.278
 20
-605.982
 40
10.994
 50
339.939
 51
0.0
  0
ARC
  8
APS_GEOMETRY
 10
3229.924
 20
-605.982
 40
10.348
 50
0.0
 51
22.011
  0
ARC
  8
APS_GEOMETRY
 10
3234.509
 20
-604.128
 40
5.403
 50
22.011
 51
52.651
  0
ARC
  8
APS_GEOMETRY
 10
3234.438
 20
-604.177
 40
5.485
 50
52.374
 51
72.309
  0
ARC
  8
APS_GEOMETRY
 10
3233.993
 20
-605.573
 40
6.95
 50
72.309
 51
90.0
  0
ARC
  8
APS_GEOMETRY
 10
3233.993
 20
-602.675
 40
4.052
 50
90.0
 51
118.113
  0
ARC
  8
APS_GEOMETRY
 10
3232.509
 20
-599.899
 40
0.904
 50
118.113
 51
180.0
  0
ARC
  8
APS_GEOMETRY
 10
3284.343
 20
-616.883
 40
25.782
 50
71.91
 51
90.0
  0
ARC
  8
APS_GEOMETRY
 10
3285.342
 20
-613.826
 40
22.566
 50
52.561
 51
71.91
  0
ARC
  8
APS_GEOMETRY
 10
3285.08
 20
-613.903
 40
22.786
 50
38.846
 51
52.156
  0
ARC
  8
APS_GEOMETRY
 10
3281.508
 20
-616.779
 40
27.372
 50
26.707
 51
38.846
  0
ARC
  8
APS_GEOMETRY
 10
3282.215
 20
-616.201
 40
26.482
 50
13.868
 51
26.278
  0
ARC
  8
APS_GEOMETRY
 10
3287.315
 20
-614.942
 40
21.229
 50
360.0
 51
13.868
  0
ARC
  8
APS_GEOMETRY
 10
3287.645
 20
-614.942
 40
20.899
 50
339.712
 51
360.0
  0
ARC
  8
APS_GEOMETRY
 10
3286.468
 20
-614.508
 40
22.153
 50
320.013
 51
339.712
  0
ARC
  8
APS_GEOMETRY
 10
3286.273
 20
-614.4
 40
22.372
 50
303.344
 51
320.123
  0
ARC
  8
APS_GEOMETRY
 10
3283.978
 20
-610.911
 40
26.548
 50
287.949
 51
303.344
  0
ARC
  8
APS_GEOMETRY
 10
3283.223
 20
-608.296
 40
29.269
 50
279.039
 51
287.776
  0
ARC
  8
APS_GEOMETRY
 10
3283.526
 20
-610.195
 40
27.346
 50
270.0
 51
279.039
  0
ARC
  8
APS_GEOMETRY
 10
3283.526
 20
-611.53
 40
26.011
 50
257.728
 51
270.0
  0
ARC
  8
APS_GEOMETRY
 10
3283.566
 20
-611.342
 40
26.203
 50
245.501
 51
257.728
  0
ARC
  8
APS_GEOMETRY
 10
3282.094
 20
-614.564
 40
22.66
 50
228.665
 51
245.511
  0
ARC
  8
APS_GEOMETRY
 10
3281.604
 20
-615.121
 40
21.918
 50
211.535
 51
228.665
  0
ARC
  8
APS_GEOMETRY
 10
3282.246
 20
-614.65
 40
22.712
 50
195.642
 51
211.701
  0
ARC
  8
APS_GEOMETRY
 10
3283.42
 20
-614.321
 40
23.931
 50
180.0
 51
195.642
  0
ARC
  8
APS_GEOMETRY
 10
3283.671
 20
-614.321
 40
24.183
 50
162.181
 51
180.0
  0
ARC
  8
APS_GEOMETRY
 10
3281.465
 20
-613.612
 40
21.865
 50
143.434
 51
162.181
  0
ARC
  8
APS_GEOMETRY
 10
3281.168
 20
-613.374
 40
21.485
 50
126.384
 51
143.471
  0
ARC
  8
APS_GEOMETRY
 10
3283.202
 20
-616.135
 40
24.914
 50
110.525
 51
126.384
  0
ARC
  8
APS_GEOMETRY
 10
3283.101
 20
-615.385
 40
24.177
 50
99.77
 51
110.925
  0
ARC
  8
APS_GEOMETRY
 10
3284.343
 20
-622.597
 40
31.496
 50
90.0
 51
99.77
  0
ARC
  8
APS_GEOMETRY
 10
3281.236
 20
-605.295
 40
4.807
 50
90.0
 51
119.604
  0
ARC
  8
APS_GEOMETRY
 10
3281.657
 20
-606.036
 40
5.659
 50
119.604
 51
146.842
  0
ARC
  8
APS_GEOMETRY
 10
3282.503
 20
-606.729
 40
6.748
 50
145.84
 51
164.055
  0
ARC
  8
APS_GEOMETRY
 10
3284.465
 20
-607.29
 40
8.788
 50
164.055
 51
180.0
  0
ARC
  8
APS_GEOMETRY
 10
3296.729
 20
-607.29
 40
21.053
 50
180.0
 51
189.977
  0
ARC
  8
APS_GEOMETRY
 10
3315.381
 20
-604.009
 40
39.991
 50
189.977
 51
197.211
  0
ARC
  8
APS_GEOMETRY
 10
3319.46
 20
-602.745
 40
44.261
 50
197.211
 51
203.76
  0
ARC
  8
APS_GEOMETRY
 10
3309.298
 20
-607.219
 40
33.157
 50
203.76
 51
211.329
  0
ARC
  8
APS_GEOMETRY
 10
3288.429
 20
-619.743
 40
8.821
 50
212.32
 51
224.441
  0
ARC
  8
APS_GEOMETRY
 10
3287.574
 20
-620.582
 40
7.623
 50
224.441
 51
237.484
  0
ARC
  8
APS_GEOMETRY
 10
3287.021
 20
-621.449
 40
6.595
 50
237.484
 51
252.416
  0
ARC
  8
APS_GEOMETRY
 10
3286.469
 20
-623.192
 40
4.766
 50
252.416
 51
270.0
  0
ARC
  8
APS_GEOMETRY
 10
3286.469
 20
-622.627
 40
5.331
 50
270.0
 51
294.953
  0
ARC
  8
APS_GEOMETRY
 10
3286.618
 20
-622.948
 40
4.977
 50
294.953
 51
320.793
  0
ARC
  8
APS_GEOMETRY
 10
3285.818
 20
-622.295
 40
6.011
 50
320.793
 51
342.777
  0
ARC
  8
APS_GEOMETRY
 10
3282.25
 20
-621.189
 40
9.746
 50
342.777
 51
0.0
  0
ARC
  8
APS_GEOMETRY
 10
3265.489
 20
-621.189
 40
26.507
 50
0.0
 51
8.499
  0
ARC
  8
APS_GEOMETRY
 10
3253.821
 20
-622.932
 40
38.304
 50
8.499
 51
15.566
  0
ARC
  8
APS_GEOMETRY
 10
3255.224
 20
-622.541
 40
36.848
 50
15.566
 51
22.909
  0
ARC
  8
APS_GEOMETRY
 10
3267.288
 20
-617.443
 40
23.751
 50
22.909
 51
32.057
  0
ARC
  8
APS_GEOMETRY
 10
3276.764
 20
-611.474
 40
12.552
 50
31.921
 51
42.51
  0
ARC
  8
APS_GEOMETRY
 10
3279.366
 20
-609.089
 40
9.022
 50
42.51
 51
55.008
  0
ARC
  8
APS_GEOMETRY
 10
3280.244
 20
-607.833
 40
7.489
 50
55.008
 51
69.88
  0
ARC
  8
APS_GEOMETRY
 10
3281.033
 20
-605.682
 40
5.198
 50
69.88
 51
87.754
  0
ARC
  8
APS_GEOMETRY
 10
3334.857
 20
-620.306
 40
2.42
 50
90.0
 51
115.837
  0
ARC
  8
APS_GEOMETRY
 10
3334.261
 20
-619.075
 40
1.053
 50
115.837
 51
155.462
  0
ARC
  8
APS_GEOMETRY
 10
3334.956
 20
-619.393
 40
1.817
 50
155.462
 51
168.366
  0
ARC
  8
APS_GEOMETRY
 10
3341.302
 20
-620.699
 40
8.296
 50
168.366
 51
174.395
  0
ARC
  8
APS_GEOMETRY
 10
3347.698
 20
-621.327
 40
14.722
 50
174.395
 51
177.813
  0
ARC
  8
APS_GEOMETRY
 10
3368.927
 20
-622.137
 40
35.966
 50
177.813
 51
180.0
  0
ARC
  8
APS_GEOMETRY
 10
3384.295
 20
-622.137
 40
51.335
 50
180.0
 51
184.62
  0
ARC
  8
APS_GEOMETRY
 10
3349.875
 20
-624.919
 40
16.803
 50
184.62
 51
192.7
  0
ARC
  8
APS_GEOMETRY
 10
3336.605
 20
-627.832
 40
3.218
 50
194.036
 51
205.821
  0
ARC
  8
APS_GEOMETRY
 10
3335.199
 20
-628.512
 40
1.656
 50
205.821
 51
222.274
  0
ARC
  8
APS_GEOMETRY
 10
3335.63
 20
-628.121
 40
2.238
 50
222.274
 51
234.605
  0
ARC
  8
APS_GEOMETRY
 10
3340.49
 20
-621.28
 40
10.63
 50
234.605
 51
240.255
  0
ARC
  8
APS_GEOMETRY
 10
3333.102
 20
-634.355
 40
4.389
 50
34.592
 51
61.189
  0
ARC
  8
APS_GEOMETRY
 10
3334.552
 20
-633.355
 40
2.627
 50
360.0
 51
34.592
  0
ARC
  8
APS_GEOMETRY
 10
3334.64
 20
-633.355
 40
2.539
 50
318.231
 51
360.0
  0
ARC
  8
APS_GEOMETRY
 10
3332.941
 20
-631.838
 40
4.816
 50
288.227
 51
318.231
  0
ARC
  8
APS_GEOMETRY
 10
3331.18
 20
-626.49
 40
10.446
 50
280.377
 51
288.227
  0
ARC
  8
APS_GEOMETRY
 10
3328.11
 20
-609.726
 40
27.489
 50
275.541
 51
280.377
  0
ARC
  8
APS_GEOMETRY
 10
3326.788
 20
-596.089
 40
41.19
 50
272.304
 51
275.541
  0
ARC
  8
APS_GEOMETRY
 10
3325.177
 20
-556.053
 40
81.259
 50
270.0
 51
272.304
  0
ARC
  8
APS_GEOMETRY
 10
3325.177
 20
-589.512
 40
47.8
 50
262.811
 51
270.0
  0
ARC
  8
APS_GEOMETRY
 10
3320.888
 20
-623.518
 40
13.524
 50
249.274
 51
262.811
  0
ARC
  8
APS_GEOMETRY
 10
3318.19
 20
-630.648
 40
5.901
 50
221.379
 51
249.274
  0
ARC
  8
APS_GEOMETRY
 10
3315.823
 20
-632.733
 40
2.747
 50
180.0
 51
221.379
  0
ARC
  8
APS_GEOMETRY
 10
3315.805
 20
-632.733
 40
2.728
 50
164.055
 51
180.0
  0
ARC
  8
APS_GEOMETRY
 10
3314.667
 20
-632.408
 40
1.546
 50
142.815
 51
164.055
  0
ARC
  8
APS_GEOMETRY
 10
3315.383
 20
-632.951
 40
2.444
 50
129.007
 51
142.815
  0
ARC
  8
APS_GEOMETRY
 10
3324.175
 20
-643.805
 40
16.412
 50
123.69
 51
129.007
  0
ARC
  8
APS_GEOMETRY
 10
3311.699
 20
-625.033
 40
6.128
 50
303.389
 51
319.022
  0
ARC
  8
APS_GEOMETRY
 10
3313.357
 20
-626.473
 40
3.932
 50
319.022
 51
338.575
  0
ARC
  8
APS_GEOMETRY
 10
3311.138
 20
-625.602
 40
6.316
 50
338.575
 51
351.049
  0
ARC
  8
APS_GEOMETRY
 10
3284.332
 20
-621.38
 40
33.452
 50
351.049
 51
356.46
  0
ARC
  8
APS_GEOMETRY
 10
3293.168
 20
-621.716
 40
24.613
 50
355.972
 51
358.68
  0
ARC
  8
APS_GEOMETRY
 10
3002.977
 20
-615.03
 40
314.881
 50
358.68
 51
359.437
  0
LINE
  8
APS_GEOMETRY
 10
3317.843
 11
3317.874
 20
-618.123
 21
-613.211
  0
LINE
  8
APS_GEOMETRY
 10
3317.874
 11
3317.884
 20
-613.211
 21
-606.799
  0
ARC
  8
APS_GEOMETRY
 10
3242.075
 20
-606.799
 40
75.809
 50
0.0
 51
1.717
  0
ARC
  8
APS_GEOMETRY
 10
3282.643
 20
-605.583
 40
35.223
 50
1.717
 51
4.236
  0
ARC
  8
APS_GEOMETRY
 10
3295.872
 20
-604.603
 40
21.957
 50
4.236
 51
8.269
  0
ARC
  8
APS_GEOMETRY
 10
3311.096
 20
-602.391
 40
6.573
 50
8.269
 51
15.642
  0
ARC
  8
APS_GEOMETRY
 10
3313.716
 20
-601.657
 40
3.853
 50
15.642
 51
39.417
  0
ARC
  8
APS_GEOMETRY
 10
3313.775
 20
-601.609
 40
3.776
 50
39.417
 51
63.435
  0
ARC
  8
APS_GEOMETRY
 10
3320.576
 20
-587.519
 40
11.869
 50
236.874
 51
244.486
  0
ARC
  8
APS_GEOMETRY
 10
3315.517
 20
-595.273
 40
2.611
 50
220.601
 51
236.874
  0
ARC
  8
APS_GEOMETRY
 10
3314.936
 20
-595.77
 40
1.847
 50
198.246
 51
220.601
  0
ARC
  8
APS_GEOMETRY
 10
3315.804
 20
-595.484
 40
2.761
 50
180.0
 51
198.246
  0
ARC
  8
APS_GEOMETRY
 10
3315.791
 20
-595.484
 40
2.748
 50
156.161
 51
180.0
  0
ARC
  8
APS_GEOMETRY
 10
3316.174
 20
-595.653
 40
3.167
 50
133.977
 51
156.161
  0
ARC
  8
APS_GEOMETRY
 10
3316.938
 20
-596.444
 40
4.266
 50
116.996
 51
133.977
  0
ARC
  8
APS_GEOMETRY
 10
3318.455
 20
-599.422
 40
7.608
 50
104.3
 51
116.996
  0
ARC
  8
APS_GEOMETRY
 10
3318.847
 20
-600.928
 40
9.164
 50
95.326
 51
104.349
  0
ARC
  8
APS_GEOMETRY
 10
3320.435
 20
-617.962
 40
26.272
 50
90.0
 51
95.326
  0
ARC
  8
APS_GEOMETRY
 10
3320.435
 20
-604.703
 40
13.013
 50
87.553
 51
90.0
  0
ARC
  8
APS_GEOMETRY
 10
3317.666
 20
-669.491
 40
77.86
 50
86.553
 51
87.553
  0
ARC
  8
APS_GEOMETRY
 10
3313.729
 20
-734.838
 40
143.325
 50
86.009
 51
86.553
  0
ARC
  8
APS_GEOMETRY
 10
3298.422
 20
-954.251
 40
363.271
 50
85.668
 51
86.009
  0
ARC
  8
APS_GEOMETRY
 10
3327.07
 20
-576.94
 40
15.125
 50
265.426
 51
268.531
  0
ARC
  8
APS_GEOMETRY
 10
3328.414
 20
-524.497
 40
67.586
 50
268.531
 51
270.0
  0
ARC
  8
APS_GEOMETRY
 10
3328.414
 20
-540.572
 40
51.511
 50
270.0
 51
271.637
  0
ARC
  8
APS_GEOMETRY
 10
3327.263
 20
-500.288
 40
91.812
 50
271.637
 51
272.862
  0
ARC
  8
APS_GEOMETRY
 10
3325.942
 20
-473.858
 40
118.274
 50
272.862
 51
273.814
  0
ARC
  8
APS_GEOMETRY
 10
3321.468
 20
-406.754
 40
185.527
 50
273.814
 51
274.574
  0
ARC
  8
APS_GEOMETRY
 10
3349.53
 20
-771.745
 40
180.543
 50
93.72
 51
94.214
  0
ARC
  8
APS_GEOMETRY
 10
3343.541
 20
-679.627
 40
88.23
 50
93.013
 51
93.72
  0
ARC
  8
APS_GEOMETRY
 10
3341.899
 20
-648.431
 40
56.991
 50
91.918
 51
93.013
  0
ARC
  8
APS_GEOMETRY
 10
3340.613
 20
-610.016
 40
18.554
 50
90.0
 51
91.918
  0
ARC
  8
APS_GEOMETRY
 10
3340.613
 20
-615.57
 40
24.109
 50
73.82
 51
90.0
  0
ARC
  8
APS_GEOMETRY
 10
3342.989
 20
-607.38
 40
15.581
 50
53.658
 51
73.82
  0
ARC
  8
APS_GEOMETRY
 10
3346.369
 20
-602.761
 40
9.857
 50
26.03
 51
53.569
  0
ARC
  8
APS_GEOMETRY
 10
3345.332
 20
-603.267
 40
11.012
 50
360.0
 51
26.03
  0
ARC
  8
APS_GEOMETRY
 10
3344.9
 20
-603.267
 40
11.443
 50
345.282
 51
360.0
  0
ARC
  8
APS_GEOMETRY
 10
3346.001
 20
-603.556
 40
10.305
 50
329.767
 51
345.282
  0
ARC
  8
APS_GEOMETRY
 10
3346.624
 20
-603.92
 40
9.583
 50
313.168
 51
329.767
  0
ARC
  8
APS_GEOMETRY
 10
3346.855
 20
-604.166
 40
9.246
 50
296.267
 51
313.168
  0
ARC
  8
APS_GEOMETRY
 10
3352.119
 20
-614.8
 40
2.62
 50
116.565
 51
139.899
  0
ARC
  8
APS_GEOMETRY
 10
3350.812
 20
-613.7
 40
0.911
 50
139.899
 51
180.0
  0
ARC
  8
APS_GEOMETRY
 10
3350.913
 20
-613.7
 40
1.013
 50
180.0
 51
226.193
  0
ARC
  8
APS_GEOMETRY
 10
3352.784
 20
-611.749
 40
3.715
 50
226.193
 51
249.829
  0
ARC
  8
APS_GEOMETRY
 10
3347.423
 20
-626.51
 40
11.989
 50
53.249
 51
70.105
  0
ARC
  8
APS_GEOMETRY
 10
3349.858
 20
-623.249
 40
7.919
 50
32.471
 51
53.249
  0
ARC
  8
APS_GEOMETRY
 10
3348.723
 20
-623.972
 40
9.264
 50
23.305
 51
32.471
  0
ARC
  8
APS_GEOMETRY
 10
3341.713
 20
-626.991
 40
16.897
 50
16.521
 51
23.305
  0
ARC
  8
APS_GEOMETRY
 10
3336.248
 20
-628.612
 40
22.598
 50
11.429
 51
16.521
  0
ARC
  8
APS_GEOMETRY
 10
3320.758
 20
-631.744
 40
38.401
 50
7.524
 51
11.429
  0
ARC
  8
APS_GEOMETRY
 10
3372.086
 20
-624.908
 40
13.38
 50
187.765
 51
196.914
  0
ARC
  8
APS_GEOMETRY
 10
3361.143
 20
-628.236
 40
1.942
 50
196.914
 51
221.082
  0
ARC
  8
APS_GEOMETRY
 10
3361.184
 20
-628.199
 40
1.997
 50
221.082
 51
244.607
  0
ARC
  8
APS_GEOMETRY
 10
3365.858
 20
-618.354
 40
12.896
 50
244.607
 51
253.811
  0
ARC
  8
APS_GEOMETRY
 10
3361.749
 20
-632.364
 40
1.705
 50
51.45
 51
72.474
  0
ARC
  8
APS_GEOMETRY
 10
3361.327
 20
-632.893
 40
2.382
 50
33.69
 51
51.45
  0
ARC
  8
APS_GEOMETRY
 10
3361.229
 20
-632.959
 40
2.5
 50
16.639
 51
33.69
  0
ARC
  8
APS_GEOMETRY
 10
3361.109
 20
-632.995
 40
2.625
 50
360.0
 51
16.639
  0
ARC
  8
APS_GEOMETRY
 10
3361.073
 20
-632.995
 40
2.662
 50
338.993
 51
360.0
  0
ARC
  8
APS_GEOMETRY
 10
3359.447
 20
-632.371
 40
4.402
 50
322.696
 51
338.993
  0
ARC
  8
APS_GEOMETRY
 10
3358.842
 20
-631.909
 40
5.164
 50
308.603
 51
322.696
  0
ARC
  8
APS_GEOMETRY
 10
3358.425
 20
-631.387
 40
5.831
 50
295.346
 51
308.603
  0
ARC
  8
APS_GEOMETRY
 10
3356.234
 20
-626.561
 40
11.131
 50
279.583
 51
294.905
  0
ARC
  8
APS_GEOMETRY
 10
3353.367
 20
-609.58
 40
28.353
 50
270.0
 51
279.583
  0
ARC
  8
APS_GEOMETRY
 10
3353.367
 20
-617.261
 40
20.672
 50
261.247
 51
270.0
  0
ARC
  8
APS_GEOMETRY
 10
3352.043
 20
-625.862
 40
11.97
 50
249.737
 51
261.247
  0
ARC
  8
APS_GEOMETRY
 10
3351.173
 20
-628.219
 40
9.457
 50
235.345
 51
249.737
  0
ARC
  8
APS_GEOMETRY
 10
3350.073
 20
-629.81
 40
7.524
 50
219.198
 51
235.345
  0
ARC
  8
APS_GEOMETRY
 10
3352.386
 20
-627.837
 40
10.563
 50
209.076
 51
219.56
  0
ARC
  8
APS_GEOMETRY
 10
3357.727
 20
-624.868
 40
16.674
 50
200.735
 51
209.076
  0
ARC
  8
APS_GEOMETRY
 10
3365.097
 20
-622.078
 40
24.554
 50
197.881
 51
200.735
  0
ARC
  8
APS_GEOMETRY
 10
3395.378
 20
-612.308
 40
56.372
 50
195.997
 51
197.881
  0
ARC
  8
APS_GEOMETRY
 10
3417.76
 20
-605.891
 40
79.656
 50
194.664
 51
195.997
  0
ARC
  8
APS_GEOMETRY
 10
3479.755
 20
-589.669
 40
143.738
 50
193.671
 51
194.664
  0
ARC
  8
APS_GEOMETRY
 10
3322.545
 20
-627.889
 40
18.051
 50
13.61
 51
23.585
  0
ARC
  8
APS_GEOMETRY
 10
3334.364
 20
-622.729
 40
5.155
 50
23.585
 51
42.31
  0
ARC
  8
APS_GEOMETRY
 10
3335.436
 20
-621.753
 40
3.705
 50
42.31
 51
67.521
  0
ARC
  8
APS_GEOMETRY
 10
3334.588
 20
-623.804
 40
5.924
 50
67.521
 51
87.397
  0
LINE
  8
APS_GEOMETRY
 10
3332.993
 11
3332.633
 20
-601.207
 21
-608.827
  0
LINE
  8
APS_GEOMETRY
 10
3332.633
 11
3332.633
 20
-608.827
 21
-608.95
  0
LINE
  8
APS_GEOMETRY
 10
3332.633
 11
3332.633
 20
-608.95
 21
-609.121
  0
ARC
  8
APS_GEOMETRY
 10
3337.927
 20
-609.121
 40
5.294
 50
180.0
 51
192.339
  0
ARC
  8
APS_GEOMETRY
 10
3333.718
 20
-610.042
 40
0.986
 50
192.339
 51
221.186
  0
ARC
  8
APS_GEOMETRY
 10
3333.618
 20
-610.13
 40
0.852
 50
221.186
 51
253.872
  0
ARC
  8
APS_GEOMETRY
 10
3334.334
 20
-607.654
 40
3.429
 50
253.872
 51
270.0
  0
ARC
  8
APS_GEOMETRY
 10
3334.334
 20
-603.113
 40
7.971
 50
270.0
 51
289.569
  0
ARC
  8
APS_GEOMETRY
 10
3335.783
 20
-607.189
 40
3.644
 50
289.569
 51
318.681
  0
ARC
  8
APS_GEOMETRY
 10
3335.391
 20
-606.845
 40
4.166
 50
318.681
 51
344.628
  0
ARC
  8
APS_GEOMETRY
 10
3328.088
 20
-604.837
 40
11.74
 50
344.628
 51
0.0
  0
ARC
  8
APS_GEOMETRY
 10
3331.56
 20
-604.837
 40
8.268
 50
0.0
 51
35.369
  0
ARC
  8
APS_GEOMETRY
 10
3335.347
 20
-602.148
 40
3.623
 50
35.369
 51
90.0
  0
ARC
  8
APS_GEOMETRY
 10
3335.347
 20
-602.188
 40
3.663
 50
90.0
 51
108.435
  0
ARC
  8
APS_GEOMETRY
 10
3334.635
 20
-600.05
 40
1.409
 50
108.435
 51
138.366
  0
ARC
  8
APS_GEOMETRY
 10
3334.826
 20
-600.22
 40
1.665
 50
138.366
 51
164.291
  0
ARC
  8
APS_GEOMETRY
 10
3339.311
 20
-601.482
 40
6.324
 50
164.291
 51
177.51
  0
LINE
  8
APS_GEOMETRY
 10
3383.507
 11
3400.741
 20
-592.017
 21
-592.017
  0
ARC
  8
APS_GEOMETRY
 10
3399.87
 20
-567.322
 40
24.711
 50
272.021
 51
278.44
  0
ARC
  8
APS_GEOMETRY
 10
3400.842
 20
-573.877
 40
18.083
 50
278.44
 51
285.945
  0
ARC
  8
APS_GEOMETRY
 10
3408.16
 20
-600.075
 40
9.118
 50
98.584
 51
104.931
  0
ARC
  8
APS_GEOMETRY
 10
3407.544
 20
-595.994
 40
4.991
 50
90.0
 51
98.584
  0
ARC
  8
APS_GEOMETRY
 10
3407.544
 20
-594.755
 40
3.752
 50
52.871
 51
90.0
  0
ARC
  8
APS_GEOMETRY
 10
3402.455
 20
-601.476
 40
12.182
 50
32.518
 51
52.871
  0
ARC
  8
APS_GEOMETRY
 10
3398.424
 20
-604.046
 40
16.963
 50
17.209
 51
32.518
  0
ARC
  8
APS_GEOMETRY
 10
3401.784
 20
-603.006
 40
13.445
 50
360.0
 51
17.209
  0
ARC
  8
APS_GEOMETRY
 10
3408.512
 20
-603.006
 40
6.717
 50
337.348
 51
360.0
  0
ARC
  8
APS_GEOMETRY
 10
3411.211
 20
-604.132
 40
3.792
 50
307.042
 51
337.348
  0
ARC
  8
APS_GEOMETRY
 10
3410.742
 20
-603.488
 40
4.589
 50
287.186
 51
306.87
  0
ARC
  8
APS_GEOMETRY
 10
3410.323
 20
-602.134
 40
6.006
 50
270.0
 51
287.186
  0
ARC
  8
APS_GEOMETRY
 10
3410.323
 20
-602.747
 40
5.393
 50
252.221
 51
270.0
  0
ARC
  8
APS_GEOMETRY
 10
3410.072
 20
-603.53
 40
4.571
 50
232.896
 51
252.221
  0
ARC
  8
APS_GEOMETRY
 10
3411.043
 20
-602.247
 40
6.18
 50
218.3
 51
232.896
  0
ARC
  8
APS_GEOMETRY
 10
3418.623
 20
-596.26
 40
15.839
 50
209.197
 51
218.3
  0
ARC
  8
APS_GEOMETRY
 10
3380.069
 20
-617.148
 40
28.012
 50
28.025
 51
32.699
  0
ARC
  8
APS_GEOMETRY
 10
3400.225
 20
-604.208
 40
4.06
 50
32.699
 51
45.0
  0
ARC
  8
APS_GEOMETRY
 10
3401.6
 20
-602.834
 40
2.116
 50
45.0
 51
67.557
  0
ARC
  8
APS_GEOMETRY
 10
3401.592
 20
-602.854
 40
2.137
 50
67.557
 51
90.0
  0
ARC
  8
APS_GEOMETRY
 10
3401.592
 20
-602.685
 40
1.969
 50
90.0
 51
120.801
  0
ARC
  8
APS_GEOMETRY
 10
3401.525
 20
-602.574
 40
1.839
 50
120.801
 51
152.7
  0
ARC
  8
APS_GEOMETRY
 10
3402.984
 20
-603.327
 40
3.481
 50
152.7
 51
171.085
  0
ARC
  8
APS_GEOMETRY
 10
3414.073
 20
-605.066
 40
14.705
 50
171.085
 51
180.0
  0
LINE
  8
APS_GEOMETRY
 10
3399.368
 11
3399.368
 20
-605.066
 21
-623.38
  0
ARC
  8
APS_GEOMETRY
 10
3418.795
 20
-623.38
 40
19.427
 50
180.0
 51
188.194
  0
ARC
  8
APS_GEOMETRY
 10
3404.287
 20
-625.469
 40
4.77
 50
188.194
 51
204.775
  0
ARC
  8
APS_GEOMETRY
 10
3402.878
 20
-626.12
 40
3.218
 50
204.775
 51
228.576
  0
ARC
  8
APS_GEOMETRY
 10
3404.2
 20
-624.621
 40
5.216
 50
228.576
 51
247.218
  0
ARC
  8
APS_GEOMETRY
 10
3396.531
 20
-642.693
 40
14.416
 50
59.381
 51
66.93
  0
ARC
  8
APS_GEOMETRY
 10
3402.192
 20
-633.128
 40
3.301
 50
43.568
 51
59.381
  0
ARC
  8
APS_GEOMETRY
 10
3403.098
 20
-632.266
 40
2.051
 50
19.041
 51
43.568
  0
ARC
  8
APS_GEOMETRY
 10
3401.84
 20
-632.7
 40
3.382
 50
360.0
 51
19.041
  0
ARC
  8
APS_GEOMETRY
 10
3402.474
 20
-632.7
 40
2.747
 50
317.66
 51
360.0
  0
ARC
  8
APS_GEOMETRY
 10
3399.952
 20
-630.402
 40
6.16
 50
289.747
 51
317.66
  0
ARC
  8
APS_GEOMETRY
 10
3397.839
 20
-624.517
 40
12.412
 50
281.964
 51
289.747
  0
ARC
  8
APS_GEOMETRY
 10
3394.913
 20
-610.705
 40
26.531
 50
276.643
 51
281.964
  0
ARC
  8
APS_GEOMETRY
 10
3393.681
 20
-600.13
 40
37.178
 50
272.836
 51
276.643
  0
ARC
  8
APS_GEOMETRY
 10
3392.206
 20
-570.354
 40
66.99
 50
270.0
 51
272.836
  0
ARC
  8
APS_GEOMETRY
 10
3392.206
 20
-551.904
 40
85.44
 50
267.283
 51
270.0
  0
ARC
  8
APS_GEOMETRY
 10
3390.412
 20
-589.707
 40
47.595
 50
263.643
 51
267.283
  0
ARC
  8
APS_GEOMETRY
 10
3388.91
 20
-603.191
 40
34.027
 50
258.563
 51
263.643
  0
ARC
  8
APS_GEOMETRY
 10
3385.321
 20
-620.93
 40
15.929
 50
251.136
 51
258.563
  0
ARC
  8
APS_GEOMETRY
 10
3382.117
 20
-630.223
 40
6.099
 50
222.558
 51
251.395
  0
ARC
  8
APS_GEOMETRY
 10
3379.739
 20
-632.406
 40
2.871
 50
180.0
 51
222.558
  0
ARC
  8
APS_GEOMETRY
 10
3379.26
 20
-632.406
 40
2.392
 50
150.642
 51
180.0
  0
ARC
  8
APS_GEOMETRY
 10
3379.451
 20
-632.514
 40
2.612
 50
122.574
 51
150.642
  0
ARC
  8
APS_GEOMETRY
 10
3378.944
 20
-631.932
 40
1.851
 50
108.677
 51
119.055
  0
ARC
  8
APS_GEOMETRY
 10
3402.06
 20
-700.315
 40
74.036
 50
107.038
 51
108.677
  0
ARC
  8
APS_GEOMETRY
 10
3379.505
 20
-626.552
 40
3.099
 50
286.144
 51
308.66
  0
ARC
  8
APS_GEOMETRY
 10
3380.013
 20
-627.186
 40
2.287
 50
308.66
 51
334.933
  0
ARC
  8
APS_GEOMETRY
 10
3377.948
 20
-626.22
 40
4.566
 50
334.933
 51
348.829
  0
ARC
  8
APS_GEOMETRY
 10
3352.122
 20
-621.12
 40
30.891
 50
348.829
 51
354.161
  0
ARC
  8
APS_GEOMETRY
 10
3334.666
 20
-619.321
 40
48.439
 50
354.144
 51
355.66
  0
ARC
  8
APS_GEOMETRY
 10
3257.29
 20
-613.449
 40
126.038
 50
355.66
 51
356.6
  0
ARC
  8
APS_GEOMETRY
 10
3198.141
 20
-609.935
 40
185.291
 50
356.6
 51
357.24
  0
ARC
  8
APS_GEOMETRY
 10
3030.316
 20
-601.844
 40
353.311
 50
357.24
 51
357.703
  0
ARC
  8
APS_GEOMETRY
 10
3046.836
 20
-602.506
 40
336.777
 50
357.703
 51
358.674
  0
ARC
  8
APS_GEOMETRY
 10
3202.669
 20
-606.113
 40
180.903
 50
358.674
 51
0.0
  0
ARC
  8
APS_GEOMETRY
 10
3356.762
 20
-606.113
 40
26.81
 50
0.0
 51
6.242
  0
ARC
  8
APS_GEOMETRY
 10
3378.081
 20
-603.781
 40
5.364
 50
6.242
 51
20.225
  0
ARC
  8
APS_GEOMETRY
 10
3381.036
 20
-602.692
 40
2.215
 50
20.225
 51
50.44
  0
ARC
  8
APS_GEOMETRY
 10
3381.61
 20
-601.997
 40
1.314
 50
50.44
 51
90.0
  0
ARC
  8
APS_GEOMETRY
 10
3381.61
 20
-602.446
 40
1.762
 50
90.0
 51
126.747
  0
ARC
  8
APS_GEOMETRY
 10
3384.1
 20
-605.781
 40
5.924
 50
126.747
 51
146.547
  0
ARC
  8
APS_GEOMETRY
 10
3340.112
 20
-576.868
 40
46.715
 50
324.255
 51
326.701
  0
ARC
  8
APS_GEOMETRY
 10
3358.735
 20
-590.272
 40
23.77
 50
320.826
 51
324.255
  0
ARC
  8
APS_GEOMETRY
 10
3364.822
 20
-595.231
 40
15.918
 50
315.722
 51
320.826
  0
ARC
  8
APS_GEOMETRY
 10
3371.816
 20
-602.052
 40
6.149
 50
307.504
 51
315.722
  0
ARC
  8
APS_GEOMETRY
 10
3371.17
 20
-601.19
 40
7.226
 50
291.306
 51
307.405
  0
ARC
  8
APS_GEOMETRY
 10
3372.289
 20
-604.059
 40
4.146
 50
270.0
 51
291.306
  0
ARC
  8
APS_GEOMETRY
 10
3372.289
 20
-604.327
 40
3.879
 50
245.532
 51
270.0
  0
ARC
  8
APS_GEOMETRY
 10
3372.26
 20
-604.391
 40
3.808
 50
220.833
 51
245.532
  0
ARC
  8
APS_GEOMETRY
 10
3372.653
 20
-604.051
 40
4.328
 50
198.684
 51
220.833
  0
ARC
  8
APS_GEOMETRY
 10
3374.295
 20
-603.496
 40
6.06
 50
180.0
 51
198.684
  0
ARC
  8
APS_GEOMETRY
 10
3378.142
 20
-603.496
 40
9.908
 50
168.408
 51
180.0
  0
ARC
  8
APS_GEOMETRY
 10
3384.495
 20
-604.799
 40
16.393
 50
159.402
 51
168.408
  0
ARC
  8
APS_GEOMETRY
 10
3386.458
 20
-605.537
 40
18.49
 50
151.39
 51
159.402
  0
ARC
  8
APS_GEOMETRY
 10
3386.055
 20
-605.318
 40
18.032
 50
143.276
 51
151.39
  0
ARC
  8
APS_GEOMETRY
 10
3381.006
 20
-601.542
 40
11.726
 50
124.216
 51
143.31
  0
ARC
  8
APS_GEOMETRY
 10
3376.508
 20
-594.928
 40
3.728
 50
90.0
 51
124.216
  0
ARC
  8
APS_GEOMETRY
 10
3376.508
 20
-596.584
 40
5.384
 50
82.725
 51
90.0
  0
ARC
  8
APS_GEOMETRY
 10
3376.087
 20
-599.88
 40
8.707
 50
77.005
 51
82.725
  0
ARC
  8
APS_GEOMETRY
 10
3388.936
 20
-537.933
 40
54.561
 50
258.486
 51
260.378
  0
ARC
  8
APS_GEOMETRY
 10
3383.432
 20
-570.398
 40
21.633
 50
260.378
 51
263.382
  0
ARC
  8
APS_GEOMETRY
 10
3382.961
 20
-574.456
 40
17.548
 50
263.382
 51
267.084
  0
ARC
  8
APS_GEOMETRY
 10
3383.507
 20
-563.744
 40
28.273
 50
267.084
 51
270.0
  0
LINE
  8
APS_GEOMETRY
 10
3426.924
 11
3443.733
 20
-592.017
 21
-592.017
  0
ARC
  8
APS_GEOMETRY
 10
3443.733
 20
-380.298
 40
211.72
 50
270.0
 51
270.69
  0
ARC
  8
APS_GEOMETRY
 10
3444.927
 20
-479.354
 40
112.656
 50
270.69
 51
271.637
  0
ARC
  8
APS_GEOMETRY
 10
3445.932
 20
-514.548
 40
77.448
 50
271.637
 51
273.013
  0
ARC
  8
APS_GEOMETRY
 10
3448.383
 20
-561.11
 40
30.821
 50
273.013
 51
275.194
  0
ARC
  8
APS_GEOMETRY
 10
3448.99
 20
-567.792
 40
24.112
 50
275.194
 51
280.756
  0
ARC
  8
APS_GEOMETRY
 10
3449.105
 20
-568.393
 40
23.5
 50
280.756
 51
286.39
  0
ARC
  8
APS_GEOMETRY
 10
3457.718
 20
-597.878
 40
7.217
 50
100.305
 51
105.945
  0
ARC
  8
APS_GEOMETRY
 10
3456.815
 20
-592.908
 40
2.166
 50
90.0
 51
100.305
  0
ARC
  8
APS_GEOMETRY
 10
3456.815
 20
-593.682
 40
2.94
 50
58.946
 51
90.0
  0
ARC
  8
APS_GEOMETRY
 10
3455.69
 20
-595.549
 40
5.119
 50
35.538
 51
58.946
  0
ARC
  8
APS_GEOMETRY
 10
3451.302
 20
-598.778
 40
10.568
 50
16.699
 51
35.952
  0
ARC
  8
APS_GEOMETRY
 10
3448.0
 20
-599.768
 40
14.014
 50
360.0
 51
16.699
  0
ARC
  8
APS_GEOMETRY
 10
3454.151
 20
-599.768
 40
7.864
 50
344.982
 51
360.0
  0
ARC
  8
APS_GEOMETRY
 10
3457.925
 20
-600.781
 40
3.956
 50
323.746
 51
344.982
  0
ARC
  8
APS_GEOMETRY
 10
3458.764
 20
-601.396
 40
2.916
 50
296.114
 51
323.746
  0
ARC
  8
APS_GEOMETRY
 10
3458.613
 20
-601.089
 40
3.258
 50
270.0
 51
296.114
  0
ARC
  8
APS_GEOMETRY
 10
3458.613
 20
-600.262
 40
4.084
 50
255.311
 51
270.0
  0
ARC
  8
APS_GEOMETRY
 10
3458.067
 20
-602.345
 40
1.931
 50
233.881
 51
255.311
  0
ARC
  8
APS_GEOMETRY
 10
3458.642
 20
-601.558
 40
2.906
 50
219.289
 51
233.881
  0
ARC
  8
APS_GEOMETRY
 10
3470.172
 20
-592.124
 40
17.803
 50
213.408
 51
219.289
  0
ARC
  8
APS_GEOMETRY
 10
3448.571
 20
-606.352
 40
8.063
 50
33.294
 51
51.246
  0
ARC
  8
APS_GEOMETRY
 10
3449.669
 20
-604.985
 40
6.309
 50
51.246
 51
71.565
  0
ARC
  8
APS_GEOMETRY
 10
3448.943
 20
-607.162
 40
8.604
 50
71.565
 51
79.278
  0
ARC
  8
APS_GEOMETRY
 10
3446.615
 20
-619.458
 40
21.118
 50
79.278
 51
84.2
  0
ARC
  8
APS_GEOMETRY
 10
3445.622
 20
-629.236
 40
30.947
 50
84.2
 51
87.567
  0
ARC
  8
APS_GEOMETRY
 10
3444.42
 20
-657.514
 40
59.251
 50
87.567
 51
90.0
  0
ARC
  8
APS_GEOMETRY
 10
3444.42
 20
-614.919
 40
16.656
 50
90.0
 51
96.374
  0
ARC
  8
APS_GEOMETRY
 10
3443.315
 20
-605.023
 40
6.698
 50
96.374
 51
106.434
  0
ARC
  8
APS_GEOMETRY
 10
3442.529
 20
-602.36
 40
3.921
 50
106.434
 51
123.056
  0
ARC
  8
APS_GEOMETRY
 10
3441.303
 20
-600.475
 40
1.673
 50
123.056
 51
148.627
  0
ARC
  8
APS_GEOMETRY
 10
3442.423
 20
-601.11
 40
2.96
 50
149.421
 51
165.28
  0
ARC
  8
APS_GEOMETRY
 10
3445.651
 20
-601.959
 40
6.298
 50
165.28
 51
176.135
  0
ARC
  8
APS_GEOMETRY
 10
3454.894
 20
-602.583
 40
15.562
 50
176.135
 51
178.367
  0
ARC
  8
APS_GEOMETRY
 10
3540.4
 20
-605.021
 40
101.103
 50
178.367
 51
179.242
  0
ARC
  8
APS_GEOMETRY
 10
3628.768
 20
-606.19
 40
189.479
 50
179.242
 51
179.709
  0
ARC
  8
APS_GEOMETRY
 10
3929.417
 20
-607.715
 40
490.132
 50
179.709
 51
180.0
  0
ARC
  8
APS_GEOMETRY
 10
3446.377
 20
-607.715
 40
7.091
 50
180.0
 51
195.027
  0
ARC
  8
APS_GEOMETRY
 10
3440.577
 20
-609.272
 40
1.086
 50
195.027
 51
234.058
  0
ARC
  8
APS_GEOMETRY
 10
3440.634
 20
-609.194
 40
1.183
 50
234.058
 51
253.191
  0
ARC
  8
APS_GEOMETRY
 10
3441.871
 20
-605.098
 40
5.461
 50
253.191
 51
262.063
  0
ARC
  8
APS_GEOMETRY
 10
3442.505
 20
-600.553
 40
10.05
 50
262.063
 51
266.949
  0
ARC
  8
APS_GEOMETRY
 10
3443.341
 20
-584.871
 40
25.755
 50
266.949
 51
270.0
  0
ARC
  8
APS_GEOMETRY
 10
3443.341
 20
-605.904
 40
4.722
 50
270.0
 51
286.007
  0
ARC
  8
APS_GEOMETRY
 10
3444.167
 20
-608.785
 40
1.725
 50
286.007
 51
312.647
  0
ARC
  8
APS_GEOMETRY
 10
3444.15
 20
-608.766
 40
1.75
 50
312.647
 51
338.993
  0
ARC
  8
APS_GEOMETRY
 10
3440.575
 20
-607.393
 40
5.58
 50
338.993
 51
353.66
  0
ARC
  8
APS_GEOMETRY
 10
3477.494
 20
-611.796
 40
31.601
 50
169.663
 51
173.118
  0
ARC
  8
APS_GEOMETRY
 10
3451.105
 20
-606.983
 40
4.776
 50
160.769
 51
169.663
  0
ARC
  8
APS_GEOMETRY
 10
3448.897
 20
-606.213
 40
2.439
 50
143.746
 51
160.769
  0
ARC
  8
APS_GEOMETRY
 10
3449.431
 20
-606.604
 40
3.1
 50
128.66
 51
143.746
  0
ARC
  8
APS_GEOMETRY
 10
3449.075
 20
-606.027
 40
2.429
 50
110.171
 51
130.601
  0
ARC
  8
APS_GEOMETRY
 10
3449.097
 20
-606.086
 40
2.492
 50
90.0
 51
110.171
  0
ARC
  8
APS_GEOMETRY
 10
3449.097
 20
-606.121
 40
2.527
 50
61.22
 51
90.0
  0
ARC
  8
APS_GEOMETRY
 10
3448.656
 20
-606.924
 40
3.443
 50
36.634
 51
61.22
  0
ARC
  8
APS_GEOMETRY
 10
3448.242
 20
-607.17
 40
3.923
 50
19.103
 51
35.91
  0
ARC
  8
APS_GEOMETRY
 10
3435.446
 20
-611.602
 40
17.463
 50
11.16
 51
19.103
  0
ARC
  8
APS_GEOMETRY
 10
3428.761
 20
-612.921
 40
24.277
 50
5.396
 51
11.16
  0
ARC
  8
APS_GEOMETRY
 10
3425.362
 20
-613.242
 40
27.692
 50
0.0
 51
5.396
  0
ARC
  8
APS_GEOMETRY
 10
3425.843
 20
-613.242
 40
27.21
 50
349.287
 51
0.0
  0
ARC
  8
APS_GEOMETRY
 10
3439.201
 20
-615.769
 40
13.615
 50
334.12
 51
349.287
  0
ARC
  8
APS_GEOMETRY
 10
3448.403
 20
-620.216
 40
3.396
 50
303.53
 51
333.853
  0
ARC
  8
APS_GEOMETRY
 10
3448.737
 20
-620.719
 40
2.791
 50
270.0
 51
303.53
  0
ARC
  8
APS_GEOMETRY
 10
3448.737
 20
-620.589
 40
2.922
 50
249.578
 51
270.0
  0
ARC
  8
APS_GEOMETRY
 10
3448.115
 20
-622.258
 40
1.14
 50
216.607
 51
249.578
  0
ARC
  8
APS_GEOMETRY
 10
3448.71
 20
-621.817
 40
1.881
 50
195.422
 51
216.607
  0
ARC
  8
APS_GEOMETRY
 10
3458.972
 20
-618.986
 40
12.526
 50
187.253
 51
195.422
  0
ARC
  8
APS_GEOMETRY
 10
3442.399
 20
-621.118
 40
4.183
 50
7.561
 51
49.434
  0
ARC
  8
APS_GEOMETRY
 10
3442.229
 20
-621.317
 40
4.445
 50
49.434
 51
90.0
  0
ARC
  8
APS_GEOMETRY
 10
3442.229
 20
-619.863
 40
2.991
 50
90.0
 51
115.224
  0
ARC
  8
APS_GEOMETRY
 10
3441.637
 20
-618.607
 40
1.603
 50
115.224
 51
149.931
  0
ARC
  8
APS_GEOMETRY
 10
3442.707
 20
-619.226
 40
2.838
 50
149.931
 51
171.111
  0
ARC
  8
APS_GEOMETRY
 10
3455.674
 20
-621.254
 40
15.963
 50
171.111
 51
180.0
  0
ARC
  8
APS_GEOMETRY
 10
3468.45
 20
-621.254
 40
28.739
 50
180.0
 51
183.062
  0
ARC
  8
APS_GEOMETRY
 10
3512.437
 20
-618.901
 40
72.789
 50
183.062
 51
184.986
  0
ARC
  8
APS_GEOMETRY
 10
3489.365
 20
-620.914
 40
49.629
 50
184.986
 51
187.804
  0
ARC
  8
APS_GEOMETRY
 10
3445.664
 20
-626.904
 40
5.52
 50
187.804
 51
196.26
  0
ARC
  8
APS_GEOMETRY
 10
3441.81
 20
-628.064
 40
1.496
 50
194.931
 51
230.024
  0
ARC
  8
APS_GEOMETRY
 10
3442.791
 20
-626.894
 40
3.022
 50
230.024
 51
254.511
  0
ARC
  8
APS_GEOMETRY
 10
3443.982
 20
-622.593
 40
7.485
 50
254.511
 51
265.219
  0
ARC
  8
APS_GEOMETRY
 10
3446.48
 20
-592.726
 40
37.456
 50
265.219
 51
270.0
  0
ARC
  8
APS_GEOMETRY
 10
3446.48
 20
-596.686
 40
33.497
 50
270.0
 51
274.186
  0
ARC
  8
APS_GEOMETRY
 10
3447.499
 20
-610.602
 40
19.543
 50
274.186
 51
279.668
  0
ARC
  8
APS_GEOMETRY
 10
3448.335
 20
-615.51
 40
14.564
 50
279.668
 51
286.991
  0
ARC
  8
APS_GEOMETRY
 10
3450.248
 20
-621.77
 40
8.018
 50
286.991
 51
296.866
  0
ARC
  8
APS_GEOMETRY
 10
3450.645
 20
-622.555
 40
7.139
 50
296.866
 51
318.366
  0
ARC
  8
APS_GEOMETRY
 10
3446.646
 20
-619.0
 40
12.489
 50
318.366
 51
334.581
  0
ARC
  8
APS_GEOMETRY
 10
3472.976
 20
-631.626
 40
16.711
 50
147.08
 51
154.231
  0
ARC
  8
APS_GEOMETRY
 10
3461.969
 20
-624.5
 40
3.599
 50
131.634
 51
147.08
  0
ARC
  8
APS_GEOMETRY
 10
3461.149
 20
-623.577
 40
2.364
 50
108.875
 51
131.634
  0
ARC
  8
APS_GEOMETRY
 10
3461.491
 20
-624.579
 40
3.423
 50
90.0
 51
108.875
  0
ARC
  8
APS_GEOMETRY
 10
3461.491
 20
-623.884
 40
2.727
 50
62.628
 51
90.0
  0
ARC
  8
APS_GEOMETRY
 10
3461.319
 20
-624.217
 40
3.103
 50
36.995
 51
62.628
  0
ARC
  8
APS_GEOMETRY
 10
3460.545
 20
-624.8
 40
4.071
 50
16.728
 51
36.995
  0
ARC
  8
APS_GEOMETRY
 10
3458.74
 20
-625.342
 40
5.956
 50
360.0
 51
16.728
  0
ARC
  8
APS_GEOMETRY
 10
3455.164
 20
-625.342
 40
9.532
 50
348.323
 51
360.0
  0
ARC
  8
APS_GEOMETRY
 10
3440.855
 20
-622.385
 40
24.143
 50
340.994
 51
348.323
  0
ARC
  8
APS_GEOMETRY
 10
3437.461
 20
-621.216
 40
27.733
 50
334.592
 51
340.994
  0
ARC
  8
APS_GEOMETRY
 10
3443.385
 20
-624.03
 40
21.175
 50
327.265
 51
334.592
  0
ARC
  8
APS_GEOMETRY
 10
3450.265
 20
-628.085
 40
13.198
 50
320.133
 51
325.923
  0
ARC
  8
APS_GEOMETRY
 10
3458.268
 20
-634.769
 40
2.771
 50
307.476
 51
320.133
  0
ARC
  8
APS_GEOMETRY
 10
3458.969
 20
-635.683
 40
1.619
 50
286.429
 51
307.476
  0
ARC
  8
APS_GEOMETRY
 10
3458.679
 20
-634.699
 40
2.646
 50
270.0
 51
286.429
  0
ARC
  8
APS_GEOMETRY
 10
3458.679
 20
-631.64
 40
5.704
 50
263.774
 51
270.0
  0
ARC
  8
APS_GEOMETRY
 10
3460.348
 20
-616.343
 40
21.092
 50
260.538
 51
263.774
  0
ARC
  8
APS_GEOMETRY
 10
3452.879
 20
-658.489
 40
21.713
 50
79.38
 51
84.987
  0
ARC
  8
APS_GEOMETRY
 10
3449.641
 20
-695.4
 40
58.766
 50
84.987
 51
88.394
  0
LINE
  8
APS_GEOMETRY
 10
3451.288
 11
3423.555
 20
-636.658
 21
-636.658
  0
ARC
  8
APS_GEOMETRY
 10
3423.555
 20
-630.854
 40
5.804
 50
254.103
 51
270.0
  0
ARC
  8
APS_GEOMETRY
 10
3422.738
 20
-633.724
 40
2.82
 50
231.216
 51
254.103
  0
ARC
  8
APS_GEOMETRY
 10
3422.402
 20
-634.142
 40
2.284
 50
203.795
 51
231.216
  0
ARC
  8
APS_GEOMETRY
 10
3423.075
 20
-633.845
 40
3.019
 50
180.0
 51
203.795
  0
ARC
  8
APS_GEOMETRY
 10
3423.329
 20
-633.845
 40
3.273
 50
164.055
 51
180.0
  0
ARC
  8
APS_GEOMETRY
 10
3421.312
 20
-633.269
 40
1.175
 50
137.291
 51
164.055
  0
ARC
  8
APS_GEOMETRY
 10
3421.919
 20
-633.829
 40
2.001
 50
120.964
 51
137.291
  0
ARC
  8
APS_GEOMETRY
 10
3428.42
 20
-644.664
 40
14.637
 50
114.944
 51
120.964
  0
ARC
  8
APS_GEOMETRY
 10
3420.305
 20
-626.909
 40
4.886
 50
293.429
 51
305.72
  0
ARC
  8
APS_GEOMETRY
 10
3421.648
 20
-628.778
 40
2.584
 50
305.72
 51
322.651
  0
ARC
  8
APS_GEOMETRY
 10
3421.44
 20
-628.619
 40
2.846
 50
322.651
 51
338.11
  0
ARC
  8
APS_GEOMETRY
 10
3417.382
 20
-626.989
 40
7.219
 50
338.11
 51
347.8
  0
ARC
  8
APS_GEOMETRY
 10
3392.182
 20
-621.465
 40
33.018
 50
347.672
 51
352.051
  0
ARC
  8
APS_GEOMETRY
 10
3367.789
 20
-618.059
 40
57.647
 50
352.051
 51
355.365
  0
ARC
  8
APS_GEOMETRY
 10
3351.362
 20
-616.727
 40
74.128
 50
355.365
 51
357.943
  0
ARC
  8
APS_GEOMETRY
 10
3308.952
 20
-615.204
 40
116.566
 50
357.943
 51
0.0
  0
ARC
  8
APS_GEOMETRY
 10
3260.0
 20
-615.204
 40
165.518
 50
0.0
 51
2.183
  0
ARC
  8
APS_GEOMETRY
 10
3358.975
 20
-611.431
 40
66.471
 50
2.183
 51
5.629
  0
ARC
  8
APS_GEOMETRY
 10
3388.459
 20
-608.525
 40
36.844
 50
5.629
 51
11.805
  0
ARC
  8
APS_GEOMETRY
 10
3417.075
 20
-602.544
 40
7.61
 50
11.805
 51
25.419
  0
ARC
  8
APS_GEOMETRY
 10
3420.778
 20
-600.862
 40
3.544
 50
26.565
 51
38.157
  0
ARC
  8
APS_GEOMETRY
 10
3422.423
 20
-599.57
 40
1.452
 50
38.157
 51
56.31
  0
ARC
  8
APS_GEOMETRY
 10
3422.075
 20
-600.092
 40
2.079
 50
56.31
 51
69.193
  0
ARC
  8
APS_GEOMETRY
 10
3417.195
 20
-612.933
 40
15.817
 50
69.193
 51
73.856
  0
ARC
  8
APS_GEOMETRY
 10
3422.343
 20
-595.226
 40
2.623
 50
216.87
 51
253.393
  0
ARC
  8
APS_GEOMETRY
 10
3422.305
 20
-595.255
 40
2.576
 50
180.0
 51
216.87
  0
ARC
  8
APS_GEOMETRY
 10
3422.867
 20
-595.255
 40
3.138
 50
161.565
 51
180.0
  0
ARC
  8
APS_GEOMETRY
 10
3422.753
 20
-595.217
 40
3.018
 50
142.765
 51
161.565
  0
ARC
  8
APS_GEOMETRY
 10
3422.681
 20
-595.162
 40
2.928
 50
123.425
 51
142.765
  0
ARC
  8
APS_GEOMETRY
 10
3422.747
 20
-595.262
 40
3.047
 50
104.47
 51
123.425
  0
ARC
  8
APS_GEOMETRY
 10
3423.327
 20
-598.124
 40
5.965
 50
96.724
 51
102.995
  0
ARC
  8
APS_GEOMETRY
 10
3425.128
 20
-613.399
 40
21.346
 50
93.411
 51
96.724
  0
ARC
  8
APS_GEOMETRY
 10
3425.928
 20
-626.82
 40
34.791
 50
91.375
 51
93.411
  0
ARC
  8
APS_GEOMETRY
 10
3426.924
 20
-668.32
 40
76.303
 50
90.0
 51
91.375
  0
LINE
  8
QUOTATURA
 10
2918.579
 11
2774.564
 20
0.0
 21
0.0
  0
LINE
  8
QUOTATURA
 10
2918.579
 11
2774.564
 20
80.0
 21
80.0
  0
LINE
  8
QUOTATURA
 10
2784.564
 11
2784.564
 20
80.0
 21
-52.629
  0
LINE
  8
QUOTATURA
 10
2784.564
 11
2723.253
 20
-52.629
 21
-52.629
  0
LINE
  8
QUOTATURA
 10
2787.898
 11
2784.564
 20
20.0
 21
0.0
  0
LINE
  8
QUOTATURA
 10
2784.564
 11
2781.23
 20
0.0
 21
20.0
  0
LINE
  8
QUOTATURA
 10
2781.23
 11
2787.898
 20
20.0
 21
20.0
  0
LINE
  8
QUOTATURA
 10
2781.23
 11
2784.564
 20
60.0
 21
80.0
  0
LINE
  8
QUOTATURA
 10
2784.564
 11
2787.898
 20
80.0
 21
60.0
  0
LINE
  8
QUOTATURA
 10
2787.898
 11
2781.23
 20
60.0
 21
60.0
  0
LINE
  8
QUOTATURA
 10
2918.579
 11
2784.016
 20
2021.0
 21
2021.0
  0
LINE
  8
QUOTATURA
 10
2918.579
 11
2784.016
 20
2101.0
 21
2101.0
  0
LINE
  8
QUOTATURA
 10
2794.016
 11
2794.016
 20
2021.0
 21
2232.659
  0
LINE
  8
QUOTATURA
 10
2794.016
 11
2724.331
 20
2232.659
 21
2232.659
  0
LINE
  8
QUOTATURA
 10
2797.35
 11
2794.016
 20
2041.0
 21
2021.0
  0
LINE
  8
QUOTATURA
 10
2794.016
 11
2790.682
 20
2021.0
 21
2041.0
  0
LINE
  8
QUOTATURA
 10
2790.682
 11
2797.35
 20
2041.0
 21
2041.0
  0
LINE
  8
QUOTATURA
 10
2790.682
 11
2794.016
 20
2081.0
 21
2101.0
  0
LINE
  8
QUOTATURA
 10
2794.016
 11
2797.35
 20
2101.0
 21
2081.0
  0
LINE
  8
QUOTATURA
 10
2797.35
 11
2790.682
 20
2081.0
 21
2081.0
  0
LINE
  8
COSTRUZIONI
 10
2473.715
 11
2473.715
 20
2463.551
 21
2663.551
  0
LINE
  8
COSTRUZIONI
 10
2473.715
 11
4473.715
 20
2663.551
 21
2663.551
  0
LINE
  8
COSTRUZIONI
 10
4473.715
 11
4473.715
 20
2663.551
 21
2463.551
  0
LINE
  8
COSTRUZIONI
 10
4473.715
 11
2473.715
 20
2463.551
 21
2463.551
  0
LINE
  8
COSTRUZIONI
 10
2773.715
 11
2773.715
 20
2463.551
 21
2663.551
  0
LINE
  8
COSTRUZIONI
 10
3073.715
 11
3073.715
 20
2463.551
 21
2663.551
  0
LINE
  8
COSTRUZIONI
 10
3523.715
 11
3523.715
 20
2463.551
 21
2663.551
  0
LINE
  8
COSTRUZIONI
 10
3973.715
 11
3973.715
 20
2463.551
 21
2663.551
  0
LINE
  8
COSTRUZIONI
 10
2473.715
 11
2473.715
 20
2463.551
 21
2313.551
  0
LINE
  8
COSTRUZIONI
 10
2473.715
 11
4473.715
 20
2313.551
 21
2313.551
  0
LINE
  8
COSTRUZIONI
 10
4473.715
 11
4473.715
 20
2463.551
 21
2313.551
  0
LINE
  8
COSTRUZIONI
 10
2868.693
 11
2868.693
 20
2463.551
 21
2313.551
  0
LINE
  8
APS_GEOMETRY
 10
2577.684
 11
2627.684
 20
2324.28
 21
2324.28
  0
LINE
  8
APS_GEOMETRY
 10
2627.684
 11
2627.684
 20
2324.28
 21
2374.28
  0
LINE
  8
APS_GEOMETRY
 10
2627.684
 11
2577.684
 20
2374.28
 21
2374.28
  0
LINE
  8
APS_GEOMETRY
 10
2577.684
 11
2577.684
 20
2374.28
 21
2324.28
  0
LINE
  8
APS_GEOMETRY
 10
2805.887
 11
2855.887
 20
2324.28
 21
2324.28
  0
LINE
  8
APS_GEOMETRY
 10
2855.887
 11
2855.887
 20
2324.28
 21
2374.28
  0
LINE
  8
APS_GEOMETRY
 10
2855.887
 11
2805.887
 20
2374.28
 21
2374.28
  0
LINE
  8
APS_GEOMETRY
 10
2805.887
 11
2805.887
 20
2374.28
 21
2324.28
  0
LINE
  8
COSTRUZIONI
 10
2473.715
 11
2868.693
 20
2395.554
 21
2395.554
  0
LINE
  8
COSTRUZIONI
 10
2671.204
 11
2671.204
 20
2395.554
 21
2313.551
  0
LINE
  8
COSTRUZIONI
 10
3017.033
 11
3034.733
 20
2350.517
 21
2350.517
  0
LINE
  8
COSTRUZIONI
 10
3034.733
 11
3034.733
 20
2350.517
 21
2347.017
  0
LINE
  8
COSTRUZIONI
 10
3034.733
 11
3017.033
 20
2347.017
 21
2347.017
  0
LINE
  8
COSTRUZIONI
 10
3017.033
 11
3017.033
 20
2347.017
 21
2350.517
  0
LINE
  8
COSTRUZIONI
 10
3024.733
 11
3024.733
 20
2350.517
 21
2377.017
  0
ARC
  8
COSTRUZIONI
 10
3021.733
 20
2377.017
 40
3.0
 50
0.0
 51
90.0
  0
LINE
  8
COSTRUZIONI
 10
3021.733
 11
3002.733
 20
2380.017
 21
2380.017
  0
ARC
  8
COSTRUZIONI
 10
3002.733
 20
2377.017
 40
3.0
 50
90.0
 51
180.0
  0
LINE
  8
COSTRUZIONI
 10
2999.733
 11
2999.733
 20
2377.017
 21
2356.017
  0
LINE
  8
COSTRUZIONI
 10
2999.733
 11
2995.233
 20
2356.017
 21
2356.017
  0
LINE
  8
COSTRUZIONI
 10
2995.233
 11
2995.233
 20
2356.017
 21
2370.017
  0
LINE
  8
COSTRUZIONI
 10
2995.233
 11
2991.233
 20
2370.017
 21
2370.017
  0
LINE
  8
COSTRUZIONI
 10
2991.233
 11
2991.233
 20
2370.017
 21
2334.236
  0
LINE
  8
COSTRUZIONI
 10
3035.233
 11
3035.233
 20
2320.245
 21
2346.017
  0
LINE
  8
COSTRUZIONI
 10
3055.607
 11
3040.733
 20
2335.017
 21
2335.017
  0
ARC
  8
COSTRUZIONI
 10
3040.733
 20
2338.017
 40
3.0
 50
180.0
 51
270.0
  0
LINE
  8
COSTRUZIONI
 10
3037.733
 11
3037.733
 20
2338.017
 21
2350.017
  0
LINE
  8
COSTRUZIONI
 10
3037.733
 11
3029.233
 20
2350.017
 21
2350.017
  0
ARC
  8
COSTRUZIONI
 10
3029.233
 20
2351.517
 40
1.5
 50
180.0
 51
270.0
  0
LINE
  8
COSTRUZIONI
 10
3027.733
 11
3027.733
 20
2351.517
 21
2377.017
  0
ARC
  8
COSTRUZIONI
 10
3030.733
 20
2377.017
 40
3.0
 50
90.0
 51
180.0
  0
LINE
  8
COSTRUZIONI
 10
3030.733
 11
3056.768
 20
2380.017
 21
2380.017
  0
LINE
  8
QUOTATURA
 10
2949.673
 11
2949.673
 20
2336.21
 21
2336.877
  0
LINE
  8
COSTRUZIONI
 10
2932.473
 11
2940.173
 20
2341.044
 21
2341.044
  0
ARC
  8
COSTRUZIONI
 10
2945.173
 20
2329.044
 40
13.0
 50
67.38
 51
112.62
  0
LINE
  8
COSTRUZIONI
 10
2950.173
 11
2950.173
 20
2341.044
 21
2337.544
  0
LINE
  8
COSTRUZIONI
 10
2950.173
 11
2932.473
 20
2337.544
 21
2337.544
  0
LINE
  8
COSTRUZIONI
 10
2932.473
 11
2932.473
 20
2337.544
 21
2341.044
  0
LINE
  8
COSTRUZIONI
 10
2932.65
 11
2932.473
 20
2337.544
 21
2337.72
  0
LINE
  8
COSTRUZIONI
 10
2932.473
 11
2933.18
 20
2338.251
 21
2337.544
  0
LINE
  8
COSTRUZIONI
 10
2933.357
 11
2932.473
 20
2337.544
 21
2338.427
  0
LINE
  8
COSTRUZIONI
 10
2932.473
 11
2933.888
 20
2338.958
 21
2337.544
  0
LINE
  8
COSTRUZIONI
 10
2934.064
 11
2932.473
 20
2337.544
 21
2339.135
  0
LINE
  8
COSTRUZIONI
 10
2932.473
 11
2934.595
 20
2339.665
 21
2337.544
  0
LINE
  8
COSTRUZIONI
 10
2934.771
 11
2932.473
 20
2337.544
 21
2339.842
  0
LINE
  8
COSTRUZIONI
 10
2932.473
 11
2935.302
 20
2340.372
 21
2337.544
  0
LINE
  8
COSTRUZIONI
 10
2935.479
 11
2932.473
 20
2337.544
 21
2340.549
  0
LINE
  8
COSTRUZIONI
 10
2932.509
 11
2936.009
 20
2341.044
 21
2337.544
  0
LINE
  8
COSTRUZIONI
 10
2936.186
 11
2932.686
 20
2337.544
 21
2341.044
  0
LINE
  8
COSTRUZIONI
 10
2933.216
 11
2936.716
 20
2341.044
 21
2337.544
  0
LINE
  8
COSTRUZIONI
 10
2936.893
 11
2933.393
 20
2337.544
 21
2341.044
  0
LINE
  8
COSTRUZIONI
 10
2933.923
 11
2937.423
 20
2341.044
 21
2337.544
  0
LINE
  8
COSTRUZIONI
 10
2937.6
 11
2934.1
 20
2337.544
 21
2341.044
  0
LINE
  8
COSTRUZIONI
 10
2934.63
 11
2938.13
 20
2341.044
 21
2337.544
  0
LINE
  8
COSTRUZIONI
 10
2938.307
 11
2934.807
 20
2337.544
 21
2341.044
  0
LINE
  8
COSTRUZIONI
 10
2935.337
 11
2938.837
 20
2341.044
 21
2337.544
  0
LINE
  8
COSTRUZIONI
 10
2939.014
 11
2935.514
 20
2337.544
 21
2341.044
  0
LINE
  8
COSTRUZIONI
 10
2936.044
 11
2939.544
 20
2341.044
 21
2337.544
  0
LINE
  8
COSTRUZIONI
 10
2939.721
 11
2936.221
 20
2337.544
 21
2341.044
  0
LINE
  8
COSTRUZIONI
 10
2936.752
 11
2940.252
 20
2341.044
 21
2337.544
  0
LINE
  8
COSTRUZIONI
 10
2940.428
 11
2936.928
 20
2337.544
 21
2341.044
  0
LINE
  8
COSTRUZIONI
 10
2937.459
 11
2940.959
 20
2341.044
 21
2337.544
  0
LINE
  8
COSTRUZIONI
 10
2941.135
 11
2937.635
 20
2337.544
 21
2341.044
  0
LINE
  8
COSTRUZIONI
 10
2938.166
 11
2941.666
 20
2341.044
 21
2337.544
  0
LINE
  8
COSTRUZIONI
 10
2941.842
 11
2938.342
 20
2337.544
 21
2341.044
  0
LINE
  8
COSTRUZIONI
 10
2938.873
 11
2942.373
 20
2341.044
 21
2337.544
  0
LINE
  8
COSTRUZIONI
 10
2942.55
 11
2939.05
 20
2337.544
 21
2341.044
  0
LINE
  8
COSTRUZIONI
 10
2939.58
 11
2943.08
 20
2341.044
 21
2337.544
  0
LINE
  8
COSTRUZIONI
 10
2943.257
 11
2939.757
 20
2337.544
 21
2341.044
  0
LINE
  8
COSTRUZIONI
 10
2940.254
 11
2943.787
 20
2341.077
 21
2337.544
  0
LINE
  8
COSTRUZIONI
 10
2943.964
 11
2940.38
 20
2337.544
 21
2341.127
  0
LINE
  8
COSTRUZIONI
 10
2940.765
 11
2944.494
 20
2341.273
 21
2337.544
  0
LINE
  8
COSTRUZIONI
 10
2944.671
 11
2940.895
 20
2337.544
 21
2341.319
  0
LINE
  8
COSTRUZIONI
 10
2941.294
 11
2945.201
 20
2341.451
 21
2337.544
  0
LINE
  8
COSTRUZIONI
 10
2945.378
 11
2941.429
 20
2337.544
 21
2341.493
  0
LINE
  8
COSTRUZIONI
 10
2941.842
 11
2945.908
 20
2341.61
 21
2337.544
  0
LINE
  8
COSTRUZIONI
 10
2946.085
 11
2941.983
 20
2337.544
 21
2341.646
  0
LINE
  8
COSTRUZIONI
 10
2942.412
 11
2946.615
 20
2341.747
 21
2337.544
  0
LINE
  8
COSTRUZIONI
 10
2946.792
 11
2942.558
 20
2337.544
 21
2341.778
  0
LINE
  8
COSTRUZIONI
 10
2943.005
 11
2947.323
 20
2341.861
 21
2337.544
  0
LINE
  8
COSTRUZIONI
 10
2947.499
 11
2943.157
 20
2337.544
 21
2341.886
  0
LINE
  8
COSTRUZIONI
 10
2943.623
 11
2948.03
 20
2341.951
 21
2337.544
  0
LINE
  8
COSTRUZIONI
 10
2948.206
 11
2943.781
 20
2337.544
 21
2341.969
  0
LINE
  8
COSTRUZIONI
 10
2944.268
 11
2948.737
 20
2342.012
 21
2337.544
  0
LINE
  8
COSTRUZIONI
 10
2948.914
 11
2944.435
 20
2337.544
 21
2342.023
  0
LINE
  8
COSTRUZIONI
 10
2944.946
 11
2949.444
 20
2342.042
 21
2337.544
  0
LINE
  8
COSTRUZIONI
 10
2949.621
 11
2945.121
 20
2337.544
 21
2342.043
  0
LINE
  8
COSTRUZIONI
 10
2945.66
 11
2950.151
 20
2342.034
 21
2337.544
  0
LINE
  8
COSTRUZIONI
 10
2950.173
 11
2945.845
 20
2337.698
 21
2342.026
  0
LINE
  8
COSTRUZIONI
 10
2946.418
 11
2950.173
 20
2341.984
 21
2338.228
  0
LINE
  8
COSTRUZIONI
 10
2950.173
 11
2946.615
 20
2338.405
 21
2341.963
  0
LINE
  8
COSTRUZIONI
 10
2947.229
 11
2950.173
 20
2341.88
 21
2338.935
  0
LINE
  8
COSTRUZIONI
 10
2950.173
 11
2947.441
 20
2339.112
 21
2341.844
  0
LINE
  8
COSTRUZIONI
 10
2948.108
 11
2950.173
 20
2341.708
 21
2339.642
  0
LINE
  8
COSTRUZIONI
 10
2950.173
 11
2948.341
 20
2339.819
 21
2341.652
  0
LINE
  8
COSTRUZIONI
 10
2949.08
 11
2950.173
 20
2341.442
 21
2340.35
  0
LINE
  8
COSTRUZIONI
 10
2950.173
 11
2949.343
 20
2340.526
 21
2341.357
  0
ARC
  8
COSTRUZIONI
 10
2949.673
 20
2336.544
 40
1.0
 50
360.0
 51
90.0
  0
LINE
  8
COSTRUZIONI
 10
2906.673
 11
2906.673
 20
2370.743
 21
2326.779
  0
LINE
  8
COSTRUZIONI
 10
2950.673
 11
2950.673
 20
2323.986
 21
2336.544
  0
LINE
  8
COSTRUZIONI
 10
2940.173
 11
2940.173
 20
2341.044
 21
2367.744
  0
ARC
  8
COSTRUZIONI
 10
2937.173
 20
2367.744
 40
3.0
 50
0.0
 51
90.0
  0
LINE
  8
COSTRUZIONI
 10
2937.173
 11
2915.173
 20
2370.744
 21
2370.744
  0
LINE
  8
COSTRUZIONI
 10
2915.173
 11
2915.173
 20
2370.744
 21
2356.743
  0
LINE
  8
COSTRUZIONI
 10
2915.173
 11
2910.873
 20
2356.743
 21
2356.743
  0
LINE
  8
COSTRUZIONI
 10
2910.873
 11
2910.873
 20
2356.743
 21
2370.743
  0
LINE
  8
COSTRUZIONI
 10
2910.873
 11
2906.673
 20
2370.743
 21
2370.743
  0
LINE
  8
COSTRUZIONI
 10
2946.173
 11
2966.534
 20
2340.744
 21
2340.744
  0
LINE
  8
COSTRUZIONI
 10
2960.254
 11
2938.173
 20
2385.744
 21
2385.744
  0
ARC
  8
COSTRUZIONI
 10
2938.173
 20
2380.744
 40
5.0
 50
90.0
 51
180.0
  0
LINE
  8
COSTRUZIONI
 10
2933.173
 11
2933.173
 20
2380.744
 21
2372.744
  0
ARC
  8
COSTRUZIONI
 10
2935.173
 20
2372.744
 40
2.0
 50
180.0
 51
270.0
  0
LINE
  8
COSTRUZIONI
 10
2935.173
 11
2943.173
 20
2370.744
 21
2370.744
  0
LINE
  8
COSTRUZIONI
 10
2943.173
 11
2943.173
 20
2370.744
 21
2343.744
  0
ARC
  8
COSTRUZIONI
 10
2946.173
 20
2343.744
 40
3.0
 50
180.0
 51
270.0
  0
CIRCLE
  8
COSTRUZIONI
 10
2923.523
 20
2379.393
 40
6.85
  0
LINE
  8
COSTRUZIONI
 10
2929.561
 11
2933.419
 20
2382.63
 21
2382.292
  0
LINE
  8
COSTRUZIONI
 10
2933.173
 11
2928.907
 20
2374.785
 21
2375.158
  0
LINE
  8
COSTRUZIONI
 10
2927.273
 11
2927.273
 20
2373.661
 21
2370.744
  0
LINE
  8
COSTRUZIONI
 10
2919.773
 11
2919.773
 20
2370.744
 21
2373.661
  0
LINE
  8
COSTRUZIONI
 10
2922.547
 11
2901.788
 20
2386.243
 21
2386.243
  0
LINE
  8
COSTRUZIONI
 10
2916.673
 11
2916.673
 20
2379.393
 21
2396.12
  0
CIRCLE
  8
COSTRUZIONI
 10
2930.788
 20
2358.693
 40
40.0
  0
CIRCLE
  8
COSTRUZIONI
 10
3023.132
 20
2358.37
 40
40.0
  0
LINE
  8
APS_GEOMETRY
 10
3106.874
 11
3156.874
 20
2324.28
 21
2324.28
  0
LINE
  8
APS_GEOMETRY
 10
3156.874
 11
3156.874
 20
2324.28
 21
2374.28
  0
LINE
  8
APS_GEOMETRY
 10
3156.874
 11
3106.874
 20
2374.28
 21
2374.28
  0
LINE
  8
APS_GEOMETRY
 10
3106.874
 11
3106.874
 20
2374.28
 21
2324.28
  0
LINE
  8
COSTRUZIONI
 10
3188.242
 11
3188.242
 20
2463.551
 21
2313.551
  0
LINE
  8
QUOTATURA
 10
2901.224
 11
2920.079
 20
1618.292
 21
1625.75
  0
LINE
  8
QUOTATURA
 10
2920.079
 11
2904.663
 20
1625.75
 21
1612.579
  0
LINE
  8
QUOTATURA
 10
2904.663
 11
2901.224
 20
1612.579
 21
1618.292
  0
LINE
  8
QUOTATURA
 10
2920.079
 11
2233.224
 20
1625.75
 21
1212.29
  0
LINE
  8
QUOTATURA
 10
2233.224
 11
1940.665
 20
1212.29
 21
1212.29
  0
LINE
  8
QUOTATURA
 10
1940.665
 11
1940.665
 20
1212.29
 21
1079.309
  0
LINE
  8
QUOTATURA
 10
1940.665
 11
2230.565
 20
1079.309
 21
1079.309
  0
LINE
  8
QUOTATURA
 10
2230.565
 11
2230.565
 20
1079.309
 21
1212.29
  0
LINE
  8
QUOTATURA
 10
2900.75
 11
2920.079
 20
1056.624
 21
1050.5
  0
LINE
  8
QUOTATURA
 10
2920.079
 11
2899.808
 20
1050.5
 21
1050.023
  0
LINE
  8
QUOTATURA
 10
2899.808
 11
2900.75
 20
1050.023
 21
1056.624
  0
LINE
  8
QUOTATURA
 10
2920.079
 11
2233.224
 20
1050.5
 21
1148.459
  0
LINE
  8
QUOTATURA
 10
2907.704
 11
2920.079
 20
491.312
 21
475.25
  0
LINE
  8
QUOTATURA
 10
2920.079
 11
2903.163
 20
475.25
 21
486.429
  0
LINE
  8
QUOTATURA
 10
2903.163
 11
2907.704
 20
486.429
 21
491.312
  0
LINE
  8
QUOTATURA
 10
2920.079
 11
2230.565
 20
475.25
 21
1116.543
  0
LINE
  8
QUOTATURA
 10
2527.579
 11
2451.757
 20
1058.845
 21
1058.845
  0
LINE
  8
QUOTATURA
 10
2497.579
 11
2527.579
 20
1063.846
 21
1058.845
  0
LINE
  8
QUOTATURA
 10
2527.579
 11
2497.579
 20
1058.845
 21
1053.844
  0
LINE
  8
QUOTATURA
 10
2497.579
 11
2497.579
 20
1053.844
 21
1063.846
  0
LINE
  8
QUOTATURA
 10
2592.079
 11
2652.079
 20
1058.845
 21
1058.845
  0
LINE
  8
QUOTATURA
 10
2622.079
 11
2592.079
 20
1053.844
 21
1058.845
  0
LINE
  8
QUOTATURA
 10
2592.079
 11
2622.079
 20
1058.845
 21
1063.846
  0
LINE
  8
QUOTATURA
 10
2622.079
 11
2622.079
 20
1063.846
 21
1053.844
  0
LINE
  8
QUOTATURA
 10
2592.079
 11
2592.079
 20
1033.5
 21
973.427
  0
LINE
  8
QUOTATURA
 10
2642.079
 11
2642.079
 20
1033.5
 21
973.427
  0
LINE
  8
QUOTATURA
 10
2592.079
 11
2494.631
 20
988.427
 21
988.427
  0
LINE
  8
QUOTATURA
 10
2562.079
 11
2592.079
 20
993.428
 21
988.427
  0
LINE
  8
QUOTATURA
 10
2592.079
 11
2562.079
 20
988.427
 21
983.426
  0
LINE
  8
QUOTATURA
 10
2562.079
 11
2562.079
 20
983.426
 21
993.428
  0
LINE
  8
QUOTATURA
 10
2642.079
 11
2702.079
 20
988.427
 21
988.427
  0
LINE
  8
QUOTATURA
 10
2672.079
 11
2642.079
 20
983.426
 21
988.427
  0
LINE
  8
QUOTATURA
 10
2642.079
 11
2672.079
 20
988.427
 21
993.428
  0
LINE
  8
QUOTATURA
 10
2672.079
 11
2672.079
 20
993.428
 21
983.426
  0
LINE
  8
COSTRUZIONI
 10
3312.579
 11
2527.579
 20
2101.0
 21
2101.0
  0
LINE
  8
COSTRUZIONI
 10
2527.579
 11
2527.579
 20
2101.0
 21
0.0
  0
LINE
  8
COSTRUZIONI
 10
2527.579
 11
3312.579
 20
0.0
 21
0.0
  0
LINE
  8
COSTRUZIONI
 10
3312.579
 11
3312.579
 20
2101.0
 21
0.0
  0
LINE
  8
COSTRUZIONI
 10
3198.079
 11
2642.079
 20
130.0
 21
130.0
  0
LINE
  8
COSTRUZIONI
 10
2642.079
 11
2642.079
 20
130.0
 21
1971.0
  0
LINE
  8
COSTRUZIONI
 10
2642.079
 11
3198.079
 20
1971.0
 21
1971.0
  0
LINE
  8
COSTRUZIONI
 10
3198.079
 11
3198.079
 20
130.0
 21
839.928
  0
LINE
  8
COSTRUZIONI
 10
3198.079
 11
3120.009
 20
839.928
 21
884.607
  0
LINE
  8
COSTRUZIONI
 10
3120.009
 11
3198.079
 20
884.607
 21
1119.53
  0
LINE
  8
COSTRUZIONI
 10
3198.079
 11
3198.079
 20
1119.53
 21
1971.0
  0
LINE
  8
COSTRUZIONI
 10
3248.079
 11
2592.079
 20
80.0
 21
80.0
  0
LINE
  8
COSTRUZIONI
 10
2592.079
 11
2592.079
 20
80.0
 21
2021.0
  0
LINE
  8
COSTRUZIONI
 10
2592.079
 11
3248.079
 20
2021.0
 21
2021.0
  0
LINE
  8
COSTRUZIONI
 10
3248.079
 11
3248.079
 20
2021.0
 21
1111.44
  0
LINE
  8
COSTRUZIONI
 10
3248.079
 11
3180.363
 20
1111.44
 21
907.675
  0
LINE
  8
COSTRUZIONI
 10
3180.363
 11
3248.079
 20
907.675
 21
868.923
  0
LINE
  8
COSTRUZIONI
 10
3248.079
 11
3248.079
 20
868.923
 21
80.0
  0
CIRCLE
  8
COSTRUZIONI
 10
2920.079
 20
475.25
 40
15.0
  0
LINE
  8
COSTRUZIONI
 10
2927.579
 11
2912.579
 20
475.25
 21
475.25
  0
CIRCLE
  8
COSTRUZIONI
 10
2920.079
 20
1050.5
 40
15.0
  0
CIRCLE
  8
COSTRUZIONI
 10
2920.079
 20
1625.75
 40
15.0
  0
LINE
  8
COSTRUZIONI
 10
2642.079
 11
3198.079
 20
1971.0
 21
130.0
  0
LINE
  8
COSTRUZIONI
 10
2642.079
 11
3198.079
 20
130.0
 21
1971.0
  0
LINE
  8
COSTRUZIONI
 10
3663.587
 11
4448.587
 20
2101.0
 21
2101.0
  0
LINE
  8
COSTRUZIONI
 10
4448.587
 11
4448.587
 20
2101.0
 21
0.0
  0
LINE
  8
COSTRUZIONI
 10
4448.587
 11
3663.587
 20
0.0
 21
0.0
  0
LINE
  8
COSTRUZIONI
 10
3663.587
 11
3663.587
 20
2101.0
 21
0.0
  0
LINE
  8
COSTRUZIONI
 10
3778.087
 11
4334.087
 20
130.0
 21
130.0
  0
LINE
  8
COSTRUZIONI
 10
4334.087
 11
4334.087
 20
130.0
 21
1971.0
  0
LINE
  8
COSTRUZIONI
 10
4334.087
 11
3778.087
 20
1971.0
 21
1971.0
  0
LINE
  8
COSTRUZIONI
 10
3778.087
 11
3778.087
 20
130.0
 21
839.928
  0
LINE
  8
COSTRUZIONI
 10
3778.087
 11
3856.157
 20
839.928
 21
884.607
  0
LINE
  8
COSTRUZIONI
 10
3856.157
 11
3778.087
 20
884.607
 21
1119.53
  0
LINE
  8
COSTRUZIONI
 10
3778.087
 11
3778.087
 20
1119.53
 21
1971.0
  0
LINE
  8
COSTRUZIONI
 10
3728.087
 11
4384.087
 20
80.0
 21
80.0
  0
LINE
  8
COSTRUZIONI
 10
4384.087
 11
4384.087
 20
80.0
 21
2021.0
  0
LINE
  8
COSTRUZIONI
 10
4384.087
 11
3728.087
 20
2021.0
 21
2021.0
  0
LINE
  8
COSTRUZIONI
 10
3728.087
 11
3728.087
 20
2021.0
 21
1111.44
  0
LINE
  8
COSTRUZIONI
 10
3728.087
 11
3795.802
 20
1111.44
 21
907.675
  0
LINE
  8
COSTRUZIONI
 10
3795.802
 11
3728.087
 20
907.675
 21
868.923
  0
LINE
  8
COSTRUZIONI
 10
3728.087
 11
3728.087
 20
868.923
 21
80.0
  0
CIRCLE
  8
COSTRUZIONI
 10
4056.087
 20
475.25
 40
15.0
  0
LINE
  8
COSTRUZIONI
 10
4048.587
 11
4063.587
 20
475.25
 21
475.25
  0
CIRCLE
  8
COSTRUZIONI
 10
4056.087
 20
1050.5
 40
15.0
  0
CIRCLE
  8
COSTRUZIONI
 10
4056.087
 20
1625.75
 40
15.0
  0
LINE
  8
COSTRUZIONI
 10
4334.087
 11
3778.087
 20
1971.0
 21
130.0
  0
LINE
  8
COSTRUZIONI
 10
4334.087
 11
3778.087
 20
130.0
 21
1971.0
  0
LINE
  8
QUOTATURA
 10
3327.579
 11
3450.003
 20
0.0
 21
0.0
  0
LINE
  8
QUOTATURA
 10
2935.079
 11
3450.003
 20
475.25
 21
475.25
  0
LINE
  8
QUOTATURA
 10
3435.003
 11
3435.003
 20
0.0
 21
214.882
  0
LINE
  8
QUOTATURA
 10
3435.003
 11
3435.003
 20
260.219
 21
475.25
  0
LINE
  8
QUOTATURA
 10
3440.004
 11
3435.003
 20
30.0
 21
0.0
  0
LINE
  8
QUOTATURA
 10
3435.003
 11
3430.002
 20
0.0
 21
30.0
  0
LINE
  8
QUOTATURA
 10
3430.002
 11
3440.004
 20
30.0
 21
30.0
  0
LINE
  8
QUOTATURA
 10
3430.002
 11
3435.003
 20
445.25
 21
475.25
  0
LINE
  8
QUOTATURA
 10
3435.003
 11
3440.004
 20
475.25
 21
445.25
  0
LINE
  8
QUOTATURA
 10
3440.004
 11
3430.002
 20
445.25
 21
445.25
  0
LINE
  8
QUOTATURA
 10
2920.079
 11
2920.079
 20
470.249
 21
480.251
  0
LINE
  8
QUOTATURA
 10
2915.078
 11
2925.08
 20
475.25
 21
475.25
  0
LINE
  8
QUOTATURA
 10
2935.079
 11
3450.003
 20
1050.5
 21
1050.5
  0
LINE
  8
QUOTATURA
 10
3435.003
 11
3435.003
 20
475.25
 21
740.132
  0
LINE
  8
QUOTATURA
 10
3435.003
 11
3435.003
 20
785.469
 21
1050.5
  0
LINE
  8
QUOTATURA
 10
3440.004
 11
3435.003
 20
505.25
 21
475.25
  0
LINE
  8
QUOTATURA
 10
3435.003
 11
3430.002
 20
475.25
 21
505.25
  0
LINE
  8
QUOTATURA
 10
3430.002
 11
3440.004
 20
505.25
 21
505.25
  0
LINE
  8
QUOTATURA
 10
3430.002
 11
3435.003
 20
1020.5
 21
1050.5
  0
LINE
  8
QUOTATURA
 10
3435.003
 11
3440.004
 20
1050.5
 21
1020.5
  0
LINE
  8
QUOTATURA
 10
3440.004
 11
3430.002
 20
1020.5
 21
1020.5
  0
LINE
  8
QUOTATURA
 10
2920.079
 11
2920.079
 20
470.249
 21
480.251
  0
LINE
  8
QUOTATURA
 10
2915.078
 11
2925.08
 20
475.25
 21
475.25
  0
LINE
  8
QUOTATURA
 10
2920.079
 11
2920.079
 20
1045.499
 21
1055.501
  0
LINE
  8
QUOTATURA
 10
2915.078
 11
2925.08
 20
1050.5
 21
1050.5
  0
LINE
  8
QUOTATURA
 10
2935.079
 11
3450.003
 20
1625.75
 21
1625.75
  0
LINE
  8
QUOTATURA
 10
3435.003
 11
3435.003
 20
1050.5
 21
1315.382
  0
LINE
  8
QUOTATURA
 10
3435.003
 11
3435.003
 20
1360.719
 21
1625.75
  0
LINE
  8
QUOTATURA
 10
3440.004
 11
3435.003
 20
1080.5
 21
1050.5
  0
LINE
  8
QUOTATURA
 10
3435.003
 11
3430.002
 20
1050.5
 21
1080.5
  0
LINE
  8
QUOTATURA
 10
3430.002
 11
3440.004
 20
1080.5
 21
1080.5
  0
LINE
  8
QUOTATURA
 10
3430.002
 11
3435.003
 20
1595.75
 21
1625.75
  0
LINE
  8
QUOTATURA
 10
3435.003
 11
3440.004
 20
1625.75
 21
1595.75
  0
LINE
  8
QUOTATURA
 10
3440.004
 11
3430.002
 20
1595.75
 21
1595.75
  0
LINE
  8
QUOTATURA
 10
2920.079
 11
2920.079
 20
1045.499
 21
1055.501
  0
LINE
  8
QUOTATURA
 10
2915.078
 11
2925.08
 20
1050.5
 21
1050.5
  0
LINE
  8
QUOTATURA
 10
2920.079
 11
2920.079
 20
1620.749
 21
1630.751
  0
LINE
  8
QUOTATURA
 10
2915.078
 11
2925.08
 20
1625.75
 21
1625.75
  0
LINE
  8
QUOTATURA
 10
3327.579
 11
3450.003
 20
2101.0
 21
2101.0
  0
LINE
  8
QUOTATURA
 10
3435.003
 11
3435.003
 20
1625.75
 21
1840.632
  0
LINE
  8
QUOTATURA
 10
3435.003
 11
3435.003
 20
1885.969
 21
2101.0
  0
LINE
  8
QUOTATURA
 10
3440.004
 11
3435.003
 20
1655.75
 21
1625.75
  0
LINE
  8
QUOTATURA
 10
3435.003
 11
3430.002
 20
1625.75
 21
1655.75
  0
LINE
  8
QUOTATURA
 10
3430.002
 11
3440.004
 20
1655.75
 21
1655.75
  0
LINE
  8
QUOTATURA
 10
3430.002
 11
3435.003
 20
2071.0
 21
2101.0
  0
LINE
  8
QUOTATURA
 10
3435.003
 11
3440.004
 20
2101.0
 21
2071.0
  0
LINE
  8
QUOTATURA
 10
3440.004
 11
3430.002
 20
2071.0
 21
2071.0
  0
LINE
  8
QUOTATURA
 10
2920.079
 11
2920.079
 20
1620.749
 21
1630.751
  0
LINE
  8
QUOTATURA
 10
2915.078
 11
2925.08
 20
1625.75
 21
1625.75
  0
TEXT
  8
TEXT
 10
2513.808
 20
1785.942
 30
0.0
 40
30.0
 50
0.0
  1
M
  0
TEXT
  8
TEXT
 10
2578.317
 20
1784.664
 30
0.0
 40
30.0
 50
0.0
  1
V
  0
TEXT
  8
TEXT
 10
2905.816
 20
2007.348
 30
0.0
 40
30.0
 50
0.0
  1
V
  0
TEXT
  8
TEXT
 10
2896.229
 20
2093.633
 30
0.0
 40
30.0
 50
0.0
  1
M
  0
TEXT
  8
TEXT
 10
2919.621
 20
-11.626
 30
0.0
 40
30.0
 50
0.0
  1
M
  0
TEXT
  8
TEXT
 10
2920.82
 20
65.24
 30
0.0
 40
30.0
 50
0.0
  1
V
  0
TEXT
  8
TEXT
 10
2738.573
 20
961.381
 30
0.0
 40
30.0
 50
0.0
  1
AREA TRAFORATO
  0
TEXT
  8
TEXT
 10
3097.816
 20
2235.638
 30
0.0
 40
30.0
 50
0.0
  1
PANNELLI TRAFORATI PER UNA ANTA 816X2101
  0
TEXT
  8
TEXT
 10
3097.816
 20
2190.638
 30
0.0
 40
30.0
 50
0.0
  1
(SPESSORE 5.25)
  0
TEXT
  8
TEXT
 10
2717.47
 20
-194.036
 30
0.0
 40
30.0
 50
0.0
  1
LEGENDA LAVORAZIONI LASER:
  0
TEXT
  8
TEXT
 10
2717.47
 20
-239.036
 30
0.0
 40
30.0
 50
0.0
  1

  0
TEXT
  8
TEXT
 10
2717.47
 20
-284.036
 30
0.0
 40
30.0
 50
0.0
  1
[ V ] = FUGA A V DI 1.5-3 mm largh.
  0
TEXT
  8
TEXT
 10
2717.47
 20
-329.036
 30
0.0
 40
30.0
 50
0.0
  1
[ X ] = AREA TRAFORO SECONDO SPECIFICHE ARCHITETTO
  0
TEXT
  8
TEXT
 10
2717.47
 20
-374.036
 30
0.0
 40
30.0
 50
0.0
  1

  0
TEXT
  8
TEXT
 10
2717.47
 20
-419.036
 30
0.0
 40
30.0
 50
0.0
  1
LEGENDA LAVORAZIONI MANUALI
  0
TEXT
  8
TEXT
 10
2717.47
 20
-464.036
 30
0.0
 40
30.0
 50
0.0
  1

  0
TEXT
  8
TEXT
 10
2717.47
 20
-509.036
 30
0.0
 40
30.0
 50
0.0
  1
[ M ] = SPIGOLARE MANUALAMENTE
  0
TEXT
  8
TEXT
 10
2528.167
 20
-563.427
 30
0.0
 40
20.0
 50
0.0
  1
Ufficio tecnico:
  0
TEXT
  8
TEXT
 10
3021.516
 20
-687.769
 30
0.0
 40
25.0
 50
0.0
  1
tel. 0577-68.54.26 - fax 0577-68.64.29
  0
TEXT
  8
TEXT
 10
3021.516
 20
-725.269
 30
0.0
 40
25.0
 50
0.0
  1
e-mail: tecnico@toscocornici.it - web: www.tosococornici.it
  0
TEXT
  8
TEXT
 10
3632.605
 20
-716.961
 30
0.0
 40
40.0
 50
0.0
  1
B.Ste
  0
TEXT
  8
TEXT
 10
3781.025
 20
-716.961
 30
0.0
 40
40.0
 50
0.0
  1
f
  0
TEXT
  8
TEXT
 10
3811.71
 20
-716.961
 30
0.0
 40
40.0
 50
0.0
  1
ano
  0
TEXT
  8
TEXT
 10
3528.385
 20
-560.465
 30
0.0
 40
20.0
 50
0.0
  1
documento:
  0
TEXT
  8
TEXT
 10
4029.587
 20
-560.379
 30
0.0
 40
20.0
 50
0.0
  1
data:
  0
TEXT
  8
TEXT
 10
4278.686
 20
-611.87
 30
0.0
 40
30.0
 50
0.0
  1
16/01/2017
  0
TEXT
  8
TEXT
 10
4287.439
 20
-712.58
 30
0.0
 40
30.0
 50
0.0
  1
1 : 10
  0
TEXT
  8
TEXT
 10
3526.572
 20
-658.689
 30
0.0
 40
20.0
 50
0.0
  1
responsabile tecnico:
  0
TEXT
  8
TEXT
 10
4028.168
 20
-658.979
 30
0.0
 40
20.0
 50
0.0
  1
scala:
  0
TEXT
  8
TEXT
 10
3772.041
 20
-613.586
 30
0.0
 40
17.0
 50
0.0
  1
PORTALAPORTA_STD-V_LASER_L785H2101
  0
TEXT
  8
QUOTATURA
 10
2684.052
 20
-62.629
 30
0.0
 40
20.0
 50
0.0
  1
80
  0
TEXT
  8
QUOTATURA
 10
2685.13
 20
2222.659
 30
0.0
 40
20.0
 50
0.0
  1
80
  0
TEXT
  8
TEXT
 10
2579.76
 20
2611.659
 30
0.0
 40
30.0
 50
0.0
  1
RIF.
  0
TEXT
  8
TEXT
 10
2832.982
 20
2611.659
 30
0.0
 40
30.0
 50
0.0
  1
QUANTITA'
  0
TEXT
  8
TEXT
 10
3211.153
 20
2611.659
 30
0.0
 40
30.0
 50
0.0
  1
ESSENZA
  0
TEXT
  8
TEXT
 10
3657.451
 20
2611.659
 30
0.0
 40
30.0
 50
0.0
  1
MODELLO
  0
TEXT
  8
TEXT
 10
4010.575
 20
2611.659
 30
0.0
 40
30.0
 50
0.0
  1
CONSEGNA ENTRO IL
  0
TEXT
  8
TEXT
 10
2500.62
 20
2411.659
 30
0.0
 40
30.0
 50
0.0
  1
MANO APERTURA
  0
TEXT
  8
TEXT
 10
2936.441
 20
2418.73
 30
0.0
 40
30.0
 50
0.0
  1
BATTENTE
  0
TEXT
  8
TEXT
 10
2484.605
 20
2324.687
 30
0.0
 40
50.0
 50
0.0
  1
SX
  0
TEXT
  8
TEXT
 10
2712.808
 20
2324.687
 30
0.0
 40
50.0
 50
0.0
  1
DX
  0
TEXT
  8
TEXT
 10
1961.942
 20
1156.438
 30
0.0
 40
30.0
 50
0.0
  1
ISOLE
  0
TEXT
  8
TEXT
 10
1961.942
 20
1111.438
 30
0.0
 40
30.0
 50
0.0
  1
NON FORARE
  0
TEXT
  8
QUOTATURA
 10
2355.301
 20
1043.845
 30
0.0
 40
30.0
 50
0.0
  1
64.5
  0
TEXT
  8
QUOTATURA
 10
2435.867
 20
973.427
 30
0.0
 40
30.0
 50
0.0
  1
50
  0
TEXT
  8
TEXT
 10
2771.188
 20
1719.867
 30
0.0
 40
200.0
 50
0.0
  1
SX
  0
TEXT
  8
TEXT
 10
3903.962
 20
1743.647
 30
0.0
 40
200.0
 50
0.0
  1
DX
  0
TEXT
  8
QUOTATURA
 10
3362.996
 20
222.625
 30
0.0
 40
30.0
 50
0.0
  1
475.25
  0
TEXT
  8
QUOTATURA
 10
3365.057
 20
747.875
 30
0.0
 40
30.0
 50
0.0
  1
575.25
  0
TEXT
  8
QUOTATURA
 10
3365.057
 20
1323.125
 30
0.0
 40
30.0
 50
0.0
  1
575.25
  0
TEXT
  8
QUOTATURA
 10
3362.996
 20
1848.375
 30
0.0
 40
30.0
 50
0.0
  1
475.25
  0
ENDSEC
  0
EOF
