  0
SECTION
  2
ENTITIES
  0
CIRCLE
  8
COSTRUZIONI
 10
3001.398622
 20
1105.067771
 40
15.0
  0
CIRCLE
  8
COSTRUZIONI
 10
3001.398622
 20
529.817771
 40
15.0
  0
LINE
  8
COSTRUZIONI
 10
3008.898622
 11
2993.898622
 20
529.817771
 21
529.817771
  0
LINE
  8
COSTRUZIONI
 10
3008.898622
 11
2993.898622
 20
1105.067771
 21
1105.067771
  0
CIRCLE
  8
COSTRUZIONI
 10
3001.398622
 20
1680.317771
 40
15.0
  0
LINE
  8
COSTRUZIONI
 10
3280.900128
 11
2720.900128
 20
4.5
 21
4.5
  0
LINE
  8
COSTRUZIONI
 10
3282.900128
 11
3282.900128
 20
4.5
 21
2211.5
  0
LINE
  8
COSTRUZIONI
 10
3282.900128
 11
2720.900128
 20
2211.5
 21
2211.5
  0
LINE
  8
COSTRUZIONI
 10
2720.900128
 11
2720.900128
 20
2211.5
 21
4.5
  0
LINE
  8
COSTRUZIONI
 10
2835.400128
 11
3166.400128
 20
134.5
 21
134.5
  0
LINE
  8
COSTRUZIONI
 10
3168.400128
 11
3168.400128
 20
134.5
 21
844.428204
  0
LINE
  8
COSTRUZIONI
 10
3168.400128
 11
3090.329866
 20
844.428204
 21
889.106648
  0
LINE
  8
COSTRUZIONI
 10
3090.329866
 11
3168.400128
 20
889.106648
 21
1124.030238
  0
LINE
  8
COSTRUZIONI
 10
3168.400128
 11
3168.400128
 20
1124.030238
 21
2081.5
  0
LINE
  8
COSTRUZIONI
 10
3168.400128
 11
2835.400128
 20
2081.5
 21
2081.5
  0
LINE
  8
COSTRUZIONI
 10
2835.400128
 11
2835.400128
 20
2081.5
 21
134.5
  0
LINE
  8
COSTRUZIONI
 10
2785.400128
 11
3216.400128
 20
84.5
 21
84.5
  0
LINE
  8
COSTRUZIONI
 10
3218.400128
 11
3218.400128
 20
84.5
 21
873.422766
  0
LINE
  8
COSTRUZIONI
 10
3218.400128
 11
3150.684734
 20
873.422766
 21
912.175273
  0
LINE
  8
COSTRUZIONI
 10
3150.684734
 11
3218.400128
 20
912.175273
 21
1115.939716
  0
LINE
  8
COSTRUZIONI
 10
3218.400128
 11
3218.400128
 20
1115.939716
 21
2131.5
  0
LINE
  8
COSTRUZIONI
 10
3218.400128
 11
2785.400128
 20
2131.5
 21
2131.5
  0
LINE
  8
COSTRUZIONI
 10
2785.400128
 11
2785.400128
 20
2131.5
 21
84.5
  0
LINE
  8
COSTRUZIONI
 10
2835.400128
 11
3166.400128
 20
2081.5
 21
134.5
  0
LINE
  8
COSTRUZIONI
 10
2835.400128
 11
3168.400128
 20
134.5
 21
2081.5
  0
CIRCLE
  8
COSTRUZIONI
 10
4182.108289
 20
1105.067771
 40
15.0
  0
CIRCLE
  8
COSTRUZIONI
 10
4182.108289
 20
529.817771
 40
15.0
  0
LINE
  8
COSTRUZIONI
 10
4174.608289
 11
4189.608289
 20
529.817771
 21
529.817771
  0
LINE
  8
COSTRUZIONI
 10
4174.608289
 11
4189.608289
 20
1105.067771
 21
1105.067771
  0
CIRCLE
  8
COSTRUZIONI
 10
4182.108289
 20
1680.317771
 40
15.0
  0
LINE
  8
COSTRUZIONI
 10
3902.606783
 11
4462.606783
 20
4.5
 21
4.5
  0
LINE
  8
COSTRUZIONI
 10
3900.606783
 11
3900.606783
 20
4.5
 21
2211.5
  0
LINE
  8
COSTRUZIONI
 10
3900.606783
 11
4462.606783
 20
2211.5
 21
2211.5
  0
LINE
  8
COSTRUZIONI
 10
4462.606783
 11
4462.606783
 20
2211.5
 21
4.5
  0
LINE
  8
COSTRUZIONI
 10
4348.106783
 11
4017.106783
 20
134.5
 21
134.5
  0
LINE
  8
COSTRUZIONI
 10
4015.106783
 11
4015.106783
 20
134.5
 21
844.428204
  0
LINE
  8
COSTRUZIONI
 10
4015.106783
 11
4093.177045
 20
844.428204
 21
889.106648
  0
LINE
  8
COSTRUZIONI
 10
4093.177045
 11
4015.106783
 20
889.106648
 21
1124.030238
  0
LINE
  8
COSTRUZIONI
 10
4015.106783
 11
4015.106783
 20
1124.030238
 21
2081.5
  0
LINE
  8
COSTRUZIONI
 10
4015.106783
 11
4348.106783
 20
2081.5
 21
2081.5
  0
LINE
  8
COSTRUZIONI
 10
4348.106783
 11
4348.106783
 20
2081.5
 21
134.5
  0
LINE
  8
COSTRUZIONI
 10
4398.106783
 11
3967.106783
 20
84.5
 21
84.5
  0
LINE
  8
COSTRUZIONI
 10
3965.106783
 11
3965.106783
 20
84.5
 21
873.422766
  0
LINE
  8
COSTRUZIONI
 10
3965.106783
 11
4032.822176
 20
873.422766
 21
912.175273
  0
LINE
  8
COSTRUZIONI
 10
4032.822176
 11
3965.106783
 20
912.175273
 21
1115.939716
  0
LINE
  8
COSTRUZIONI
 10
3965.106783
 11
3965.106783
 20
1115.939716
 21
2131.5
  0
LINE
  8
COSTRUZIONI
 10
3965.106783
 11
4398.106783
 20
2131.5
 21
2131.5
  0
LINE
  8
COSTRUZIONI
 10
4398.106783
 11
4398.106783
 20
2131.5
 21
84.5
  0
LINE
  8
COSTRUZIONI
 10
4348.106783
 11
4017.106783
 20
2081.5
 21
134.5
  0
LINE
  8
COSTRUZIONI
 10
4348.106783
 11
4015.106783
 20
134.5
 21
2081.5
  0
ENDSEC
  0
EOF
