  0
SECTION
  2
ENTITIES
  0
LINE
  8
COSTRUZIONI
 10
2730.900128
 11
2730.900128
 20
4.5
 21
1983.5
  0
LINE
  8
COSTRUZIONI
 10
2730.900128
 11
3396.900128
 20
1983.5
 21
1983.5
  0
LINE
  8
COSTRUZIONI
 10
3396.900128
 11
3396.900128
 20
1983.5
 21
4.5
  0
LINE
  8
COSTRUZIONI
 10
3396.900128
 11
2730.900128
 20
4.5
 21
4.5
  0
LINE
  8
COSTRUZIONI
 10
2845.400128
 11
3282.400128
 20
134.5
 21
134.5
  0
LINE
  8
COSTRUZIONI
 10
3282.400128
 11
3282.400128
 20
134.5
 21
844.428204
  0
LINE
  8
COSTRUZIONI
 10
3282.400128
 11
3204.329866
 20
844.428204
 21
889.106648
  0
LINE
  8
COSTRUZIONI
 10
3204.329866
 11
3282.400128
 20
889.106648
 21
1124.030238
  0
LINE
  8
COSTRUZIONI
 10
3282.400128
 11
3282.400128
 20
1124.030238
 21
1853.5
  0
LINE
  8
COSTRUZIONI
 10
3282.400128
 11
2845.400128
 20
1853.5
 21
1853.5
  0
LINE
  8
COSTRUZIONI
 10
2845.400128
 11
2845.400128
 20
1853.5
 21
134.5
  0
LINE
  8
COSTRUZIONI
 10
2795.400128
 11
2795.400128
 20
84.5
 21
1903.5
  0
LINE
  8
COSTRUZIONI
 10
2795.400128
 11
3332.400128
 20
1903.5
 21
1903.5
  0
LINE
  8
COSTRUZIONI
 10
3332.400128
 11
3332.400128
 20
1903.5
 21
1115.939716
  0
LINE
  8
COSTRUZIONI
 10
3332.400128
 11
3264.684734
 20
1115.939716
 21
912.175273
  0
LINE
  8
COSTRUZIONI
 10
3264.684734
 11
3332.400128
 20
912.175273
 21
873.422766
  0
LINE
  8
COSTRUZIONI
 10
3332.400128
 11
3332.400128
 20
873.422766
 21
84.5
  0
LINE
  8
COSTRUZIONI
 10
3332.400128
 11
2795.400128
 20
84.5
 21
84.5
  0
LINE
  8
COSTRUZIONI
 10
2845.400128
 11
3282.400128
 20
134.5
 21
1853.5
  0
LINE
  8
COSTRUZIONI
 10
2845.400128
 11
3282.400128
 20
1853.5
 21
134.5
  0
CIRCLE
  8
COSTRUZIONI
 10
3063.900128
 20
418.75
 40
15.0
  0
LINE
  8
COSTRUZIONI
 10
3071.400128
 11
3056.400128
 20
418.75
 21
418.75
  0
CIRCLE
  8
COSTRUZIONI
 10
3063.900128
 20
994.0
 40
15.0
  0
LINE
  8
COSTRUZIONI
 10
3071.400128
 11
3056.400128
 20
994.0
 21
994.0
  0
CIRCLE
  8
COSTRUZIONI
 10
3063.900128
 20
1569.25
 40
15.0
  0
LINE
  8
COSTRUZIONI
 10
4398.340927
 11
4398.340927
 20
4.5
 21
1983.5
  0
LINE
  8
COSTRUZIONI
 10
4398.340927
 11
3732.340927
 20
1983.5
 21
1983.5
  0
LINE
  8
COSTRUZIONI
 10
3732.340927
 11
3732.340927
 20
1983.5
 21
4.5
  0
LINE
  8
COSTRUZIONI
 10
3732.340927
 11
4398.340927
 20
4.5
 21
4.5
  0
LINE
  8
COSTRUZIONI
 10
4283.840927
 11
3846.840927
 20
134.5
 21
134.5
  0
LINE
  8
COSTRUZIONI
 10
3846.840927
 11
3846.840927
 20
134.5
 21
844.428204
  0
LINE
  8
COSTRUZIONI
 10
3846.840927
 11
3924.911189
 20
844.428204
 21
889.106648
  0
LINE
  8
COSTRUZIONI
 10
3924.911189
 11
3846.840927
 20
889.106648
 21
1124.030238
  0
LINE
  8
COSTRUZIONI
 10
3846.840927
 11
3846.840927
 20
1124.030238
 21
1853.5
  0
LINE
  8
COSTRUZIONI
 10
3846.840927
 11
4283.840927
 20
1853.5
 21
1853.5
  0
LINE
  8
COSTRUZIONI
 10
4283.840927
 11
4283.840927
 20
1853.5
 21
134.5
  0
LINE
  8
COSTRUZIONI
 10
4333.840927
 11
4333.840927
 20
84.5
 21
1903.5
  0
LINE
  8
COSTRUZIONI
 10
4333.840927
 11
3796.840927
 20
1903.5
 21
1903.5
  0
LINE
  8
COSTRUZIONI
 10
3796.840927
 11
3796.840927
 20
1903.5
 21
1115.939716
  0
LINE
  8
COSTRUZIONI
 10
3796.840927
 11
3864.556321
 20
1115.939716
 21
912.175273
  0
LINE
  8
COSTRUZIONI
 10
3864.556321
 11
3796.840927
 20
912.175273
 21
873.422766
  0
LINE
  8
COSTRUZIONI
 10
3796.840927
 11
3796.840927
 20
873.422766
 21
84.5
  0
LINE
  8
COSTRUZIONI
 10
3796.840927
 11
4333.840927
 20
84.5
 21
84.5
  0
LINE
  8
COSTRUZIONI
 10
4283.840927
 11
3846.840927
 20
134.5
 21
1853.5
  0
LINE
  8
COSTRUZIONI
 10
4283.840927
 11
3846.840927
 20
1853.5
 21
134.5
  0
CIRCLE
  8
COSTRUZIONI
 10
4065.340927
 20
418.75
 40
15.0
  0
CIRCLE
  8
COSTRUZIONI
 10
4065.340927
 20
994.0
 40
15.0
  0
CIRCLE
  8
COSTRUZIONI
 10
4065.340927
 20
1569.25
 40
15.0
  0
ENDSEC
  0
EOF
