  0
SECTION
  2
ENTITIES
  0
LINE
  8
COSTRUZIONI
 10
3396.900128
 11
2611.900128
 20
2105.5
 21
2105.5
  0
LINE
  8
COSTRUZIONI
 10
2611.900128
 11
2611.900128
 20
2105.5
 21
4.5
  0
LINE
  8
COSTRUZIONI
 10
2611.900128
 11
3396.900128
 20
4.5
 21
4.5
  0
LINE
  8
COSTRUZIONI
 10
3396.900128
 11
3396.900128
 20
2105.5
 21
4.5
  0
LINE
  8
COSTRUZIONI
 10
3282.400128
 11
2726.400128
 20
134.5
 21
134.5
  0
LINE
  8
COSTRUZIONI
 10
2726.400128
 11
2726.400128
 20
134.5
 21
1975.5
  0
LINE
  8
COSTRUZIONI
 10
2726.400128
 11
3282.400128
 20
1975.5
 21
1975.5
  0
LINE
  8
COSTRUZIONI
 10
3282.400128
 11
3282.400128
 20
134.5
 21
844.428204
  0
LINE
  8
COSTRUZIONI
 10
3282.400128
 11
3204.329866
 20
844.428204
 21
889.106648
  0
LINE
  8
COSTRUZIONI
 10
3204.329866
 11
3282.400128
 20
889.106648
 21
1124.030238
  0
LINE
  8
COSTRUZIONI
 10
3282.400128
 11
3282.400128
 20
1124.030238
 21
1975.5
  0
LINE
  8
COSTRUZIONI
 10
3332.400128
 11
2676.400128
 20
84.5
 21
84.5
  0
LINE
  8
COSTRUZIONI
 10
2676.400128
 11
2676.400128
 20
84.5
 21
2025.5
  0
LINE
  8
COSTRUZIONI
 10
2676.400128
 11
3332.400128
 20
2025.5
 21
2025.5
  0
LINE
  8
COSTRUZIONI
 10
3332.400128
 11
3332.400128
 20
2025.5
 21
1115.939716
  0
LINE
  8
COSTRUZIONI
 10
3332.400128
 11
3264.684734
 20
1115.939716
 21
912.175273
  0
LINE
  8
COSTRUZIONI
 10
3264.684734
 11
3332.400128
 20
912.175273
 21
873.422766
  0
LINE
  8
COSTRUZIONI
 10
3332.400128
 11
3332.400128
 20
873.422766
 21
84.5
  0
CIRCLE
  8
COSTRUZIONI
 10
3004.400128
 20
479.75
 40
15.0
  0
LINE
  8
COSTRUZIONI
 10
3011.900128
 11
2996.900128
 20
479.75
 21
479.75
  0
CIRCLE
  8
COSTRUZIONI
 10
3004.400128
 20
1055.0
 40
15.0
  0
CIRCLE
  8
COSTRUZIONI
 10
3004.400128
 20
1630.25
 40
15.0
  0
LINE
  8
COSTRUZIONI
 10
2726.400128
 11
3282.400128
 20
1975.5
 21
134.5
  0
LINE
  8
COSTRUZIONI
 10
2726.400128
 11
3282.400128
 20
134.5
 21
1975.5
  0
LINE
  8
COSTRUZIONI
 10
3747.908122
 11
4532.908122
 20
2105.5
 21
2105.5
  0
LINE
  8
COSTRUZIONI
 10
4532.908122
 11
4532.908122
 20
2105.5
 21
4.5
  0
LINE
  8
COSTRUZIONI
 10
4532.908122
 11
3747.908122
 20
4.5
 21
4.5
  0
LINE
  8
COSTRUZIONI
 10
3747.908122
 11
3747.908122
 20
2105.5
 21
4.5
  0
LINE
  8
COSTRUZIONI
 10
3862.408122
 11
4418.408122
 20
134.5
 21
134.5
  0
LINE
  8
COSTRUZIONI
 10
4418.408122
 11
4418.408122
 20
134.5
 21
1975.5
  0
LINE
  8
COSTRUZIONI
 10
4418.408122
 11
3862.408122
 20
1975.5
 21
1975.5
  0
LINE
  8
COSTRUZIONI
 10
3862.408122
 11
3862.408122
 20
134.5
 21
844.428204
  0
LINE
  8
COSTRUZIONI
 10
3862.408122
 11
3940.478383
 20
844.428204
 21
889.106648
  0
LINE
  8
COSTRUZIONI
 10
3940.478383
 11
3862.408122
 20
889.106648
 21
1124.030238
  0
LINE
  8
COSTRUZIONI
 10
3862.408122
 11
3862.408122
 20
1124.030238
 21
1975.5
  0
LINE
  8
COSTRUZIONI
 10
3812.408122
 11
4468.408122
 20
84.5
 21
84.5
  0
LINE
  8
COSTRUZIONI
 10
4468.408122
 11
4468.408122
 20
84.5
 21
2025.5
  0
LINE
  8
COSTRUZIONI
 10
4468.408122
 11
3812.408122
 20
2025.5
 21
2025.5
  0
LINE
  8
COSTRUZIONI
 10
3812.408122
 11
3812.408122
 20
2025.5
 21
1115.939716
  0
LINE
  8
COSTRUZIONI
 10
3812.408122
 11
3880.123515
 20
1115.939716
 21
912.175273
  0
LINE
  8
COSTRUZIONI
 10
3880.123515
 11
3812.408122
 20
912.175273
 21
873.422766
  0
LINE
  8
COSTRUZIONI
 10
3812.408122
 11
3812.408122
 20
873.422766
 21
84.5
  0
CIRCLE
  8
COSTRUZIONI
 10
4140.408122
 20
479.75
 40
15.0
  0
LINE
  8
COSTRUZIONI
 10
4132.908122
 11
4147.908122
 20
479.75
 21
479.75
  0
CIRCLE
  8
COSTRUZIONI
 10
4140.408122
 20
1055.0
 40
15.0
  0
CIRCLE
  8
COSTRUZIONI
 10
4140.408122
 20
1630.25
 40
15.0
  0
LINE
  8
COSTRUZIONI
 10
4418.408122
 11
3862.408122
 20
1975.5
 21
134.5
  0
LINE
  8
COSTRUZIONI
 10
4418.408122
 11
3862.408122
 20
134.5
 21
1975.5
  0
ENDSEC
  0
EOF
