  0
SECTION
  2
ENTITIES
  0
LINE
  8
COSTRUZIONI
 10
776.0
 11
776.0
 20
0.0
 21
2159.0
  0
LINE
  8
COSTRUZIONI
 10
776.0
 11
30.0
 20
2159.0
 21
2159.0
  0
LINE
  8
COSTRUZIONI
 10
30.0
 11
30.0
 20
2159.0
 21
0.0
  0
LINE
  8
COSTRUZIONI
 10
776.0
 11
30.0
 20
0.0
 21
0.0
  0
LINE
  8
COSTRUZIONI
 10
-89.02
 11
1910.98
 20
-819.366
 21
-819.366
  0
LINE
  8
COSTRUZIONI
 10
1910.98
 11
1910.98
 20
-819.366
 21
-619.366
  0
LINE
  8
COSTRUZIONI
 10
1910.98
 11
-89.02
 20
-619.366
 21
-619.366
  0
LINE
  8
COSTRUZIONI
 10
-89.02
 11
-89.02
 20
-619.366
 21
-819.366
  0
LINE
  8
COSTRUZIONI
 10
910.98
 11
910.98
 20
-819.366
 21
-619.366
  0
LINE
  8
COSTRUZIONI
 10
910.98
 11
1910.98
 20
-719.366
 21
-719.366
  0
LINE
  8
COSTRUZIONI
 10
1410.98
 11
1410.98
 20
-819.366
 21
-619.366
  0
LINE
  8
APS_GEOMETRY
 10
-26.335
 11
-9.1
 20
-673.351
 21
-673.351
  0
ARC
  8
APS_GEOMETRY
 10
-9.971
 20
-648.656
 40
24.711
 50
272.021
 51
278.44
  0
ARC
  8
APS_GEOMETRY
 10
-8.999
 20
-655.211
 40
18.083
 50
278.44
 51
285.945
  0
ARC
  8
APS_GEOMETRY
 10
-1.682
 20
-681.409
 40
9.118
 50
98.584
 51
104.931
  0
ARC
  8
APS_GEOMETRY
 10
-2.298
 20
-677.328
 40
4.991
 50
90.0
 51
98.584
  0
ARC
  8
APS_GEOMETRY
 10
-2.298
 20
-676.089
 40
3.752
 50
52.871
 51
90.0
  0
ARC
  8
APS_GEOMETRY
 10
-7.386
 20
-682.81
 40
12.182
 50
32.518
 51
52.871
  0
ARC
  8
APS_GEOMETRY
 10
-11.417
 20
-685.38
 40
16.963
 50
17.209
 51
32.518
  0
ARC
  8
APS_GEOMETRY
 10
-8.057
 20
-684.34
 40
13.445
 50
360.0
 51
17.209
  0
ARC
  8
APS_GEOMETRY
 10
-1.33
 20
-684.34
 40
6.717
 50
337.348
 51
360.0
  0
ARC
  8
APS_GEOMETRY
 10
1.37
 20
-685.466
 40
3.792
 50
307.042
 51
337.348
  0
ARC
  8
APS_GEOMETRY
 10
0.901
 20
-684.822
 40
4.589
 50
287.186
 51
306.87
  0
ARC
  8
APS_GEOMETRY
 10
0.482
 20
-683.468
 40
6.006
 50
270.0
 51
287.186
  0
ARC
  8
APS_GEOMETRY
 10
0.482
 20
-684.081
 40
5.393
 50
252.221
 51
270.0
  0
ARC
  8
APS_GEOMETRY
 10
0.231
 20
-684.864
 40
4.571
 50
232.896
 51
252.221
  0
ARC
  8
APS_GEOMETRY
 10
1.202
 20
-683.581
 40
6.18
 50
218.3
 51
232.896
  0
ARC
  8
APS_GEOMETRY
 10
8.782
 20
-677.594
 40
15.839
 50
209.197
 51
218.3
  0
ARC
  8
APS_GEOMETRY
 10
-29.772
 20
-698.482
 40
28.012
 50
28.025
 51
32.699
  0
ARC
  8
APS_GEOMETRY
 10
-9.616
 20
-685.542
 40
4.06
 50
32.699
 51
45.0
  0
ARC
  8
APS_GEOMETRY
 10
-8.241
 20
-684.168
 40
2.116
 50
45.0
 51
67.557
  0
ARC
  8
APS_GEOMETRY
 10
-8.25
 20
-684.188
 40
2.137
 50
67.557
 51
90.0
  0
ARC
  8
APS_GEOMETRY
 10
-8.25
 20
-684.019
 40
1.969
 50
90.0
 51
120.801
  0
ARC
  8
APS_GEOMETRY
 10
-8.316
 20
-683.908
 40
1.839
 50
120.801
 51
152.7
  0
ARC
  8
APS_GEOMETRY
 10
-6.857
 20
-684.661
 40
3.481
 50
152.7
 51
171.085
  0
ARC
  8
APS_GEOMETRY
 10
4.232
 20
-686.4
 40
14.705
 50
171.085
 51
180.0
  0
LINE
  8
APS_GEOMETRY
 10
-10.473
 11
-10.473
 20
-686.4
 21
-704.714
  0
ARC
  8
APS_GEOMETRY
 10
8.954
 20
-704.714
 40
19.427
 50
180.0
 51
188.194
  0
ARC
  8
APS_GEOMETRY
 10
-5.554
 20
-706.803
 40
4.77
 50
188.194
 51
204.775
  0
ARC
  8
APS_GEOMETRY
 10
-6.963
 20
-707.454
 40
3.218
 50
204.775
 51
228.576
  0
ARC
  8
APS_GEOMETRY
 10
-5.641
 20
-705.955
 40
5.216
 50
228.576
 51
247.218
  0
ARC
  8
APS_GEOMETRY
 10
-13.31
 20
-724.027
 40
14.416
 50
59.381
 51
66.93
  0
ARC
  8
APS_GEOMETRY
 10
-7.649
 20
-714.462
 40
3.301
 50
43.568
 51
59.381
  0
ARC
  8
APS_GEOMETRY
 10
-6.743
 20
-713.6
 40
2.051
 50
19.041
 51
43.568
  0
ARC
  8
APS_GEOMETRY
 10
-8.001
 20
-714.034
 40
3.382
 50
360.0
 51
19.041
  0
ARC
  8
APS_GEOMETRY
 10
-7.367
 20
-714.034
 40
2.747
 50
317.66
 51
360.0
  0
ARC
  8
APS_GEOMETRY
 10
-9.889
 20
-711.736
 40
6.16
 50
289.747
 51
317.66
  0
ARC
  8
APS_GEOMETRY
 10
-12.002
 20
-705.851
 40
12.412
 50
281.964
 51
289.747
  0
ARC
  8
APS_GEOMETRY
 10
-14.929
 20
-692.039
 40
26.531
 50
276.643
 51
281.964
  0
ARC
  8
APS_GEOMETRY
 10
-16.16
 20
-681.464
 40
37.178
 50
272.836
 51
276.643
  0
ARC
  8
APS_GEOMETRY
 10
-17.635
 20
-651.688
 40
66.99
 50
270.0
 51
272.836
  0
ARC
  8
APS_GEOMETRY
 10
-17.635
 20
-633.238
 40
85.44
 50
267.283
 51
270.0
  0
ARC
  8
APS_GEOMETRY
 10
-19.429
 20
-671.041
 40
47.595
 50
263.643
 51
267.283
  0
ARC
  8
APS_GEOMETRY
 10
-20.932
 20
-684.525
 40
34.027
 50
258.563
 51
263.643
  0
ARC
  8
APS_GEOMETRY
 10
-24.52
 20
-702.264
 40
15.929
 50
251.136
 51
258.563
  0
ARC
  8
APS_GEOMETRY
 10
-27.724
 20
-711.557
 40
6.099
 50
222.558
 51
251.395
  0
ARC
  8
APS_GEOMETRY
 10
-30.102
 20
-713.74
 40
2.871
 50
180.0
 51
222.558
  0
ARC
  8
APS_GEOMETRY
 10
-30.582
 20
-713.74
 40
2.392
 50
150.642
 51
180.0
  0
ARC
  8
APS_GEOMETRY
 10
-30.39
 20
-713.848
 40
2.612
 50
122.574
 51
150.642
  0
ARC
  8
APS_GEOMETRY
 10
-30.897
 20
-713.266
 40
1.851
 50
108.677
 51
119.055
  0
ARC
  8
APS_GEOMETRY
 10
-7.781
 20
-781.649
 40
74.036
 50
107.038
 51
108.677
  0
ARC
  8
APS_GEOMETRY
 10
-30.336
 20
-707.886
 40
3.099
 50
286.144
 51
308.66
  0
ARC
  8
APS_GEOMETRY
 10
-29.828
 20
-708.52
 40
2.287
 50
308.66
 51
334.933
  0
ARC
  8
APS_GEOMETRY
 10
-31.893
 20
-707.554
 40
4.566
 50
334.933
 51
348.829
  0
ARC
  8
APS_GEOMETRY
 10
-57.719
 20
-702.454
 40
30.891
 50
348.829
 51
354.161
  0
ARC
  8
APS_GEOMETRY
 10
-75.175
 20
-700.655
 40
48.439
 50
354.144
 51
355.66
  0
ARC
  8
APS_GEOMETRY
 10
-152.551
 20
-694.783
 40
126.038
 50
355.66
 51
356.6
  0
ARC
  8
APS_GEOMETRY
 10
-211.7
 20
-691.269
 40
185.291
 50
356.6
 51
357.24
  0
ARC
  8
APS_GEOMETRY
 10
-379.525
 20
-683.178
 40
353.311
 50
357.24
 51
357.703
  0
ARC
  8
APS_GEOMETRY
 10
-363.005
 20
-683.84
 40
336.777
 50
357.703
 51
358.674
  0
ARC
  8
APS_GEOMETRY
 10
-207.173
 20
-687.446
 40
180.903
 50
358.674
 51
0.0
  0
ARC
  8
APS_GEOMETRY
 10
-53.079
 20
-687.446
 40
26.81
 50
0.0
 51
6.242
  0
ARC
  8
APS_GEOMETRY
 10
-31.76
 20
-685.115
 40
5.364
 50
6.242
 51
20.225
  0
ARC
  8
APS_GEOMETRY
 10
-28.805
 20
-684.026
 40
2.215
 50
20.225
 51
50.44
  0
ARC
  8
APS_GEOMETRY
 10
-28.231
 20
-683.331
 40
1.314
 50
50.44
 51
90.0
  0
ARC
  8
APS_GEOMETRY
 10
-28.231
 20
-683.78
 40
1.762
 50
90.0
 51
126.747
  0
ARC
  8
APS_GEOMETRY
 10
-25.741
 20
-687.115
 40
5.924
 50
126.747
 51
146.547
  0
ARC
  8
APS_GEOMETRY
 10
-69.729
 20
-658.202
 40
46.715
 50
324.255
 51
326.701
  0
ARC
  8
APS_GEOMETRY
 10
-51.106
 20
-671.606
 40
23.77
 50
320.826
 51
324.255
  0
ARC
  8
APS_GEOMETRY
 10
-45.02
 20
-676.565
 40
15.918
 50
315.722
 51
320.826
  0
ARC
  8
APS_GEOMETRY
 10
-38.025
 20
-683.386
 40
6.149
 50
307.504
 51
315.722
  0
ARC
  8
APS_GEOMETRY
 10
-38.671
 20
-682.524
 40
7.226
 50
291.306
 51
307.405
  0
ARC
  8
APS_GEOMETRY
 10
-37.552
 20
-685.393
 40
4.146
 50
270.0
 51
291.306
  0
ARC
  8
APS_GEOMETRY
 10
-37.552
 20
-685.661
 40
3.879
 50
245.532
 51
270.0
  0
ARC
  8
APS_GEOMETRY
 10
-37.581
 20
-685.725
 40
3.808
 50
220.833
 51
245.532
  0
ARC
  8
APS_GEOMETRY
 10
-37.188
 20
-685.385
 40
4.328
 50
198.684
 51
220.833
  0
ARC
  8
APS_GEOMETRY
 10
-35.547
 20
-684.83
 40
6.06
 50
180.0
 51
198.684
  0
ARC
  8
APS_GEOMETRY
 10
-31.699
 20
-684.83
 40
9.908
 50
168.408
 51
180.0
  0
ARC
  8
APS_GEOMETRY
 10
-25.347
 20
-686.133
 40
16.393
 50
159.402
 51
168.408
  0
ARC
  8
APS_GEOMETRY
 10
-23.383
 20
-686.871
 40
18.49
 50
151.39
 51
159.402
  0
ARC
  8
APS_GEOMETRY
 10
-23.786
 20
-686.652
 40
18.032
 50
143.276
 51
151.39
  0
ARC
  8
APS_GEOMETRY
 10
-28.835
 20
-682.876
 40
11.726
 50
124.216
 51
143.31
  0
ARC
  8
APS_GEOMETRY
 10
-33.333
 20
-676.262
 40
3.728
 50
90.0
 51
124.216
  0
ARC
  8
APS_GEOMETRY
 10
-33.333
 20
-677.918
 40
5.384
 50
82.725
 51
90.0
  0
ARC
  8
APS_GEOMETRY
 10
-33.754
 20
-681.214
 40
8.707
 50
77.005
 51
82.725
  0
ARC
  8
APS_GEOMETRY
 10
-20.905
 20
-619.267
 40
54.561
 50
258.486
 51
260.378
  0
ARC
  8
APS_GEOMETRY
 10
-26.409
 20
-651.732
 40
21.633
 50
260.378
 51
263.382
  0
ARC
  8
APS_GEOMETRY
 10
-26.88
 20
-655.789
 40
17.548
 50
263.382
 51
267.084
  0
ARC
  8
APS_GEOMETRY
 10
-26.335
 20
-645.078
 40
28.273
 50
267.084
 51
270.0
  0
ARC
  8
APS_GEOMETRY
 10
33.392
 20
-698.217
 40
25.782
 50
71.91
 51
90.0
  0
ARC
  8
APS_GEOMETRY
 10
34.391
 20
-695.16
 40
22.566
 50
52.561
 51
71.91
  0
ARC
  8
APS_GEOMETRY
 10
34.129
 20
-695.237
 40
22.786
 50
38.846
 51
52.156
  0
ARC
  8
APS_GEOMETRY
 10
30.557
 20
-698.113
 40
27.372
 50
26.707
 51
38.846
  0
ARC
  8
APS_GEOMETRY
 10
31.264
 20
-697.535
 40
26.482
 50
13.868
 51
26.278
  0
ARC
  8
APS_GEOMETRY
 10
36.364
 20
-696.276
 40
21.229
 50
360.0
 51
13.868
  0
ARC
  8
APS_GEOMETRY
 10
36.694
 20
-696.276
 40
20.899
 50
339.712
 51
360.0
  0
ARC
  8
APS_GEOMETRY
 10
35.518
 20
-695.842
 40
22.153
 50
320.013
 51
339.712
  0
ARC
  8
APS_GEOMETRY
 10
35.323
 20
-695.734
 40
22.372
 50
303.344
 51
320.123
  0
ARC
  8
APS_GEOMETRY
 10
33.027
 20
-692.245
 40
26.548
 50
287.949
 51
303.344
  0
ARC
  8
APS_GEOMETRY
 10
32.273
 20
-689.63
 40
29.269
 50
279.039
 51
287.776
  0
ARC
  8
APS_GEOMETRY
 10
32.575
 20
-691.529
 40
27.346
 50
270.0
 51
279.039
  0
ARC
  8
APS_GEOMETRY
 10
32.575
 20
-692.864
 40
26.011
 50
257.728
 51
270.0
  0
ARC
  8
APS_GEOMETRY
 10
32.616
 20
-692.676
 40
26.203
 50
245.501
 51
257.728
  0
ARC
  8
APS_GEOMETRY
 10
31.143
 20
-695.898
 40
22.66
 50
228.665
 51
245.511
  0
ARC
  8
APS_GEOMETRY
 10
30.653
 20
-696.455
 40
21.918
 50
211.535
 51
228.665
  0
ARC
  8
APS_GEOMETRY
 10
31.295
 20
-695.984
 40
22.712
 50
195.642
 51
211.701
  0
ARC
  8
APS_GEOMETRY
 10
32.469
 20
-695.655
 40
23.931
 50
180.0
 51
195.642
  0
ARC
  8
APS_GEOMETRY
 10
32.721
 20
-695.655
 40
24.183
 50
162.181
 51
180.0
  0
ARC
  8
APS_GEOMETRY
 10
30.514
 20
-694.946
 40
21.865
 50
143.434
 51
162.181
  0
ARC
  8
APS_GEOMETRY
 10
30.217
 20
-694.708
 40
21.485
 50
126.384
 51
143.471
  0
ARC
  8
APS_GEOMETRY
 10
32.251
 20
-697.469
 40
24.914
 50
110.525
 51
126.384
  0
ARC
  8
APS_GEOMETRY
 10
32.151
 20
-696.719
 40
24.177
 50
99.77
 51
110.925
  0
ARC
  8
APS_GEOMETRY
 10
33.392
 20
-703.931
 40
31.496
 50
90.0
 51
99.77
  0
ARC
  8
APS_GEOMETRY
 10
30.286
 20
-686.629
 40
4.807
 50
90.0
 51
119.604
  0
ARC
  8
APS_GEOMETRY
 10
30.707
 20
-687.37
 40
5.659
 50
119.604
 51
146.842
  0
ARC
  8
APS_GEOMETRY
 10
31.553
 20
-688.063
 40
6.748
 50
145.84
 51
164.055
  0
ARC
  8
APS_GEOMETRY
 10
33.514
 20
-688.624
 40
8.788
 50
164.055
 51
180.0
  0
ARC
  8
APS_GEOMETRY
 10
45.779
 20
-688.624
 40
21.053
 50
180.0
 51
189.977
  0
ARC
  8
APS_GEOMETRY
 10
64.43
 20
-685.343
 40
39.991
 50
189.977
 51
197.211
  0
ARC
  8
APS_GEOMETRY
 10
68.51
 20
-684.079
 40
44.261
 50
197.211
 51
203.76
  0
ARC
  8
APS_GEOMETRY
 10
58.347
 20
-688.553
 40
33.157
 50
203.76
 51
211.329
  0
ARC
  8
APS_GEOMETRY
 10
37.479
 20
-701.077
 40
8.821
 50
212.32
 51
224.441
  0
ARC
  8
APS_GEOMETRY
 10
36.623
 20
-701.916
 40
7.623
 50
224.441
 51
237.484
  0
ARC
  8
APS_GEOMETRY
 10
36.071
 20
-702.783
 40
6.595
 50
237.484
 51
252.416
  0
ARC
  8
APS_GEOMETRY
 10
35.518
 20
-704.526
 40
4.766
 50
252.416
 51
270.0
  0
ARC
  8
APS_GEOMETRY
 10
35.518
 20
-703.961
 40
5.331
 50
270.0
 51
294.953
  0
ARC
  8
APS_GEOMETRY
 10
35.668
 20
-704.282
 40
4.977
 50
294.953
 51
320.793
  0
ARC
  8
APS_GEOMETRY
 10
34.867
 20
-703.629
 40
6.011
 50
320.793
 51
342.777
  0
ARC
  8
APS_GEOMETRY
 10
31.299
 20
-702.523
 40
9.746
 50
342.777
 51
0.0
  0
ARC
  8
APS_GEOMETRY
 10
14.538
 20
-702.523
 40
26.507
 50
0.0
 51
8.499
  0
ARC
  8
APS_GEOMETRY
 10
2.871
 20
-704.266
 40
38.304
 50
8.499
 51
15.566
  0
ARC
  8
APS_GEOMETRY
 10
4.273
 20
-703.875
 40
36.848
 50
15.566
 51
22.909
  0
ARC
  8
APS_GEOMETRY
 10
16.337
 20
-698.777
 40
23.751
 50
22.909
 51
32.057
  0
ARC
  8
APS_GEOMETRY
 10
25.813
 20
-692.808
 40
12.552
 50
31.921
 51
42.51
  0
ARC
  8
APS_GEOMETRY
 10
28.415
 20
-690.423
 40
9.022
 50
42.51
 51
55.008
  0
ARC
  8
APS_GEOMETRY
 10
29.294
 20
-689.167
 40
7.489
 50
55.008
 51
69.88
  0
ARC
  8
APS_GEOMETRY
 10
30.082
 20
-687.016
 40
5.198
 50
69.88
 51
87.754
  0
ARC
  8
APS_GEOMETRY
 10
81.813
 20
-688.419
 40
15.983
 50
83.923
 51
90.0
  0
ARC
  8
APS_GEOMETRY
 10
80.528
 20
-700.494
 40
28.127
 50
79.342
 51
83.923
  0
ARC
  8
APS_GEOMETRY
 10
78.977
 20
-708.734
 40
36.512
 50
75.808
 51
79.342
  0
ARC
  8
APS_GEOMETRY
 10
73.566
 20
-730.129
 40
58.58
 50
73.018
 51
75.808
  0
ARC
  8
APS_GEOMETRY
 10
92.618
 20
-667.636
 40
6.752
 50
253.288
 51
259.046
  0
ARC
  8
APS_GEOMETRY
 10
91.69
 20
-672.43
 40
1.87
 50
259.046
 51
270.0
  0
ARC
  8
APS_GEOMETRY
 10
91.69
 20
-673.19
 40
1.11
 50
270.0
 51
286.699
  0
ARC
  8
APS_GEOMETRY
 10
82.816
 20
-643.613
 40
31.989
 50
286.699
 51
289.799
  0
ARC
  8
APS_GEOMETRY
 10
94.706
 20
-676.522
 40
3.002
 50
100.008
 51
110.556
  0
ARC
  8
APS_GEOMETRY
 10
94.764
 20
-676.849
 40
3.334
 50
90.0
 51
100.008
  0
ARC
  8
APS_GEOMETRY
 10
94.764
 20
-676.694
 40
3.179
 50
53.356
 51
90.0
  0
ARC
  8
APS_GEOMETRY
 10
89.21
 20
-684.16
 40
12.484
 50
35.101
 51
53.356
  0
ARC
  8
APS_GEOMETRY
 10
86.439
 20
-686.108
 40
15.871
 50
20.245
 51
35.101
  0
ARC
  8
APS_GEOMETRY
 10
93.272
 20
-683.587
 40
8.588
 50
360.0
 51
20.245
  0
ARC
  8
APS_GEOMETRY
 10
96.711
 20
-683.587
 40
5.15
 50
340.481
 51
360.0
  0
ARC
  8
APS_GEOMETRY
 10
97.559
 20
-683.888
 40
4.25
 50
318.972
 51
340.481
  0
ARC
  8
APS_GEOMETRY
 10
97.937
 20
-684.217
 40
3.748
 50
295.017
 51
318.972
  0
ARC
  8
APS_GEOMETRY
 10
98.067
 20
-684.495
 40
3.442
 50
270.0
 51
295.017
  0
ARC
  8
APS_GEOMETRY
 10
98.067
 20
-682.652
 40
5.285
 50
256.171
 51
270.0
  0
ARC
  8
APS_GEOMETRY
 10
97.491
 20
-684.993
 40
2.874
 50
237.381
 51
256.171
  0
ARC
  8
APS_GEOMETRY
 10
98.511
 20
-683.398
 40
4.768
 50
231.559
 51
237.381
  0
ARC
  8
APS_GEOMETRY
 10
113.354
 20
-664.699
 40
28.642
 50
229.185
 51
231.559
  0
ARC
  8
APS_GEOMETRY
 10
129.261
 20
-646.28
 40
52.979
 50
227.9
 51
229.185
  0
ARC
  8
APS_GEOMETRY
 10
184.314
 20
-585.351
 40
135.095
 50
227.095
 51
227.9
  0
ARC
  8
APS_GEOMETRY
 10
80.951
 20
-696.513
 40
16.696
 50
46.975
 51
64.612
  0
ARC
  8
APS_GEOMETRY
 10
84.626
 20
-688.771
 40
8.127
 50
64.612
 51
90.0
  0
ARC
  8
APS_GEOMETRY
 10
84.626
 20
-686.5
 40
5.856
 50
90.0
 51
106.966
  0
ARC
  8
APS_GEOMETRY
 10
83.947
 20
-684.277
 40
3.531
 50
106.966
 51
128.868
  0
ARC
  8
APS_GEOMETRY
 10
83.555
 20
-683.789
 40
2.905
 50
128.868
 51
154.741
  0
ARC
  8
APS_GEOMETRY
 10
83.682
 20
-683.849
 40
3.046
 50
154.741
 51
180.0
  0
ARC
  8
APS_GEOMETRY
 10
83.497
 20
-683.849
 40
2.861
 50
180.0
 51
206.64
  0
ARC
  8
APS_GEOMETRY
 10
84.417
 20
-683.387
 40
3.891
 50
206.64
 51
229.43
  0
ARC
  8
APS_GEOMETRY
 10
85.893
 20
-681.664
 40
6.159
 50
229.43
 51
244.493
  0
ARC
  8
APS_GEOMETRY
 10
89.938
 20
-673.185
 40
15.554
 50
244.493
 51
253.956
  0
ARC
  8
APS_GEOMETRY
 10
17.867
 20
-918.114
 40
239.758
 50
72.737
 51
73.58
  0
ARC
  8
APS_GEOMETRY
 10
59.171
 20
-785.198
 40
100.573
 50
71.435
 51
72.737
  0
ARC
  8
APS_GEOMETRY
 10
72.852
 20
-744.464
 40
57.603
 50
69.164
 51
71.435
  0
ARC
  8
APS_GEOMETRY
 10
88.997
 20
-702.042
 40
12.212
 50
64.231
 51
69.164
  0
ARC
  8
APS_GEOMETRY
 10
87.14
 20
-705.781
 40
16.387
 50
34.939
 51
64.068
  0
ARC
  8
APS_GEOMETRY
 10
91.148
 20
-702.981
 40
11.498
 50
360.0
 51
34.939
  0
ARC
  8
APS_GEOMETRY
 10
88.684
 20
-702.981
 40
13.962
 50
333.435
 51
360.0
  0
ARC
  8
APS_GEOMETRY
 10
87.771
 20
-702.524
 40
14.982
 50
307.807
 51
333.435
  0
ARC
  8
APS_GEOMETRY
 10
85.396
 20
-699.452
 40
18.866
 50
296.732
 51
307.786
  0
ARC
  8
APS_GEOMETRY
 10
83.99
 20
-696.661
 40
21.99
 50
286.496
 51
296.732
  0
ARC
  8
APS_GEOMETRY
 10
83.065
 20
-693.536
 40
25.25
 50
277.544
 51
286.496
  0
ARC
  8
APS_GEOMETRY
 10
81.715
 20
-683.345
 40
35.53
 50
270.0
 51
277.544
  0
ARC
  8
APS_GEOMETRY
 10
81.715
 20
-681.804
 40
37.071
 50
263.555
 51
270.0
  0
ARC
  8
APS_GEOMETRY
 10
82.915
 20
-671.18
 40
47.762
 50
257.878
 51
263.555
  0
ARC
  8
APS_GEOMETRY
 10
82.278
 20
-674.146
 40
44.729
 50
254.839
 51
257.878
  0
ARC
  8
APS_GEOMETRY
 10
77.112
 20
-693.213
 40
24.974
 50
250.772
 51
254.839
  0
ARC
  8
APS_GEOMETRY
 10
74.788
 20
-699.876
 40
17.918
 50
245.121
 51
250.772
  0
ARC
  8
APS_GEOMETRY
 10
70.854
 20
-708.358
 40
8.568
 50
236.944
 51
245.121
  0
ARC
  8
APS_GEOMETRY
 10
68.535
 20
-712.008
 40
4.243
 50
211.802
 51
236.31
  0
ARC
  8
APS_GEOMETRY
 10
79.559
 20
-705.172
 40
17.215
 50
199.704
 51
211.802
  0
ARC
  8
APS_GEOMETRY
 10
84.824
 20
-703.287
 40
22.807
 50
190.413
 51
199.704
  0
ARC
  8
APS_GEOMETRY
 10
80.261
 20
-704.125
 40
18.168
 50
180.0
 51
190.413
  0
ARC
  8
APS_GEOMETRY
 10
67.962
 20
-704.125
 40
5.869
 50
164.876
 51
180.0
  0
ARC
  8
APS_GEOMETRY
 10
64.655
 20
-703.232
 40
2.443
 50
141.34
 51
164.876
  0
ARC
  8
APS_GEOMETRY
 10
64.975
 20
-703.446
 40
2.827
 50
116.928
 51
142.001
  0
ARC
  8
APS_GEOMETRY
 10
64.807
 20
-703.116
 40
2.457
 50
90.0
 51
116.928
  0
ARC
  8
APS_GEOMETRY
 10
64.807
 20
-703.122
 40
2.464
 50
62.21
 51
90.0
  0
ARC
  8
APS_GEOMETRY
 10
63.824
 20
-704.989
 40
4.573
 50
41.906
 51
62.21
  0
ARC
  8
APS_GEOMETRY
 10
63.991
 20
-705.024
 40
4.475
 50
37.313
 51
43.668
  0
ARC
  8
APS_GEOMETRY
 10
38.923
 20
-724.129
 40
35.993
 50
35.074
 51
37.313
  0
ARC
  8
APS_GEOMETRY
 10
10.455
 20
-744.117
 40
70.777
 50
33.934
 51
35.074
  0
ARC
  8
APS_GEOMETRY
 10
-91.042
 20
-812.407
 40
193.11
 50
33.243
 51
33.934
  0
ARC
  8
APS_GEOMETRY
 10
76.077
 20
-702.837
 40
6.727
 50
213.453
 51
231.637
  0
ARC
  8
APS_GEOMETRY
 10
79.256
 20
-698.822
 40
11.848
 50
231.637
 51
245.313
  0
ARC
  8
APS_GEOMETRY
 10
79.956
 20
-697.299
 40
13.524
 50
245.313
 51
257.398
  0
ARC
  8
APS_GEOMETRY
 10
79.72
 20
-698.354
 40
12.443
 50
257.398
 51
270.0
  0
ARC
  8
APS_GEOMETRY
 10
79.72
 20
-700.291
 40
10.506
 50
270.0
 51
282.907
  0
ARC
  8
APS_GEOMETRY
 10
80.851
 20
-705.224
 40
5.445
 50
282.907
 51
300.872
  0
ARC
  8
APS_GEOMETRY
 10
81.831
 20
-706.864
 40
3.535
 50
300.872
 51
326.876
  0
ARC
  8
APS_GEOMETRY
 10
82.947
 20
-707.592
 40
2.202
 50
326.876
 51
0.0
  0
ARC
  8
APS_GEOMETRY
 10
82.618
 20
-707.592
 40
2.531
 50
0.0
 51
27.553
  0
ARC
  8
APS_GEOMETRY
 10
81.817
 20
-708.009
 40
3.434
 50
27.553
 51
51.147
  0
ARC
  8
APS_GEOMETRY
 10
80.163
 20
-710.063
 40
6.071
 50
51.147
 51
65.225
  0
ARC
  8
APS_GEOMETRY
 10
74.06
 20
-723.287
 40
20.636
 50
65.225
 51
72.848
  0
ARC
  8
APS_GEOMETRY
 10
109.701
 20
-609.648
 40
98.462
 50
251.106
 51
252.532
  0
ARC
  8
APS_GEOMETRY
 10
97.085
 20
-646.509
 40
59.501
 50
249.271
 51
251.106
  0
ARC
  8
APS_GEOMETRY
 10
91.84
 20
-660.369
 40
44.683
 50
246.83
 51
249.271
  0
ARC
  8
APS_GEOMETRY
 10
83.356
 20
-680.191
 40
23.121
 50
243.435
 51
246.83
  0
ARC
  8
APS_GEOMETRY
 10
82.39
 20
-682.123
 40
20.961
 50
235.981
 51
243.435
  0
ARC
  8
APS_GEOMETRY
 10
83.132
 20
-681.024
 40
22.287
 50
228.752
 51
235.981
  0
ARC
  8
APS_GEOMETRY
 10
79.658
 20
-685.118
 40
16.918
 50
206.421
 51
228.457
  0
ARC
  8
APS_GEOMETRY
 10
75.103
 20
-687.381
 40
11.833
 50
180.0
 51
206.421
  0
ARC
  8
APS_GEOMETRY
 10
75.318
 20
-687.381
 40
12.047
 50
166.555
 51
180.0
  0
ARC
  8
APS_GEOMETRY
 10
76.713
 20
-687.715
 40
13.482
 50
153.848
 51
166.555
  0
ARC
  8
APS_GEOMETRY
 10
76.829
 20
-687.772
 40
13.611
 50
141.244
 51
153.848
  0
ARC
  8
APS_GEOMETRY
 10
77.689
 20
-688.462
 40
14.714
 50
129.123
 51
141.244
  0
ARC
  8
APS_GEOMETRY
 10
80.442
 20
-691.389
 40
18.725
 50
108.978
 51
130.006
  0
ARC
  8
APS_GEOMETRY
 10
81.813
 20
-695.376
 40
22.94
 50
90.0
 51
108.978
  0
ARC
  8
APS_GEOMETRY
 10
131.804
 20
-693.699
 40
21.264
 50
77.257
 51
90.0
  0
ARC
  8
APS_GEOMETRY
 10
131.588
 20
-694.655
 40
22.243
 50
64.799
 51
77.257
  0
ARC
  8
APS_GEOMETRY
 10
149.905
 20
-655.656
 40
20.843
 50
244.885
 51
251.175
  0
ARC
  8
APS_GEOMETRY
 10
143.937
 20
-673.164
 40
2.346
 50
251.175
 51
270.0
  0
ARC
  8
APS_GEOMETRY
 10
143.937
 20
-671.703
 40
3.806
 50
270.0
 51
278.82
  0
ARC
  8
APS_GEOMETRY
 10
141.478
 20
-655.856
 40
19.844
 50
278.82
 51
282.68
  0
ARC
  8
APS_GEOMETRY
 10
146.623
 20
-678.636
 40
3.511
 50
95.906
 51
102.995
  0
ARC
  8
APS_GEOMETRY
 10
146.782
 20
-680.173
 40
5.055
 50
90.0
 51
95.906
  0
ARC
  8
APS_GEOMETRY
 10
146.782
 20
-678.473
 40
3.356
 50
62.447
 51
90.0
  0
ARC
  8
APS_GEOMETRY
 10
146.185
 20
-679.616
 40
4.645
 50
39.094
 51
62.447
  0
ARC
  8
APS_GEOMETRY
 10
139.951
 20
-684.83
 40
12.772
 50
18.435
 51
39.611
  0
ARC
  8
APS_GEOMETRY
 10
136.125
 20
-686.106
 40
16.806
 50
360.0
 51
18.435
  0
ARC
  8
APS_GEOMETRY
 10
144.597
 20
-686.106
 40
8.333
 50
334.877
 51
360.0
  0
ARC
  8
APS_GEOMETRY
 10
147.103
 20
-687.281
 40
5.565
 50
304.007
 51
334.877
  0
ARC
  8
APS_GEOMETRY
 10
147.062
 20
-687.163
 40
5.686
 50
286.39
 51
303.69
  0
ARC
  8
APS_GEOMETRY
 10
146.88
 20
-686.545
 40
6.33
 50
270.0
 51
286.39
  0
ARC
  8
APS_GEOMETRY
 10
146.88
 20
-686.619
 40
6.257
 50
255.155
 51
270.0
  0
ARC
  8
APS_GEOMETRY
 10
146.195
 20
-689.205
 40
3.581
 50
235.491
 51
255.155
  0
ARC
  8
APS_GEOMETRY
 10
146.539
 20
-688.704
 40
4.189
 50
218.48
 51
235.491
  0
ARC
  8
APS_GEOMETRY
 10
152.16
 20
-684.236
 40
11.369
 50
208.179
 51
218.48
  0
ARC
  8
APS_GEOMETRY
 10
94.535
 20
-715.515
 40
54.198
 50
28.56
 51
31.664
  0
ARC
  8
APS_GEOMETRY
 10
129.747
 20
-693.799
 40
12.827
 50
31.664
 51
38.047
  0
ARC
  8
APS_GEOMETRY
 10
132.308
 20
-691.795
 40
9.576
 50
38.047
 51
46.56
  0
ARC
  8
APS_GEOMETRY
 10
130.977
 20
-693.2
 40
11.512
 50
46.56
 51
54.324
  0
ARC
  8
APS_GEOMETRY
 10
130.209
 20
-694.522
 40
13.034
 50
54.968
 51
71.48
  0
ARC
  8
APS_GEOMETRY
 10
131.052
 20
-692.005
 40
10.38
 50
71.48
 51
90.0
  0
ARC
  8
APS_GEOMETRY
 10
131.052
 20
-688.876
 40
7.251
 50
90.0
 51
114.63
  0
ARC
  8
APS_GEOMETRY
 10
130.687
 20
-688.082
 40
6.377
 50
114.63
 51
140.921
  0
ARC
  8
APS_GEOMETRY
 10
131.763
 20
-688.955
 40
7.763
 50
140.921
 51
163.13
  0
ARC
  8
APS_GEOMETRY
 10
137.141
 20
-690.586
 40
13.382
 50
163.13
 51
180.0
  0
ARC
  8
APS_GEOMETRY
 10
144.114
 20
-690.586
 40
20.355
 50
180.0
 51
195.44
  0
ARC
  8
APS_GEOMETRY
 10
143.056
 20
-690.878
 40
19.258
 50
195.44
 51
211.316
  0
ARC
  8
APS_GEOMETRY
 10
137.967
 20
-693.868
 40
13.357
 50
211.708
 51
240.457
  0
ARC
  8
APS_GEOMETRY
 10
137.625
 20
-694.471
 40
12.663
 50
240.457
 51
270.0
  0
ARC
  8
APS_GEOMETRY
 10
137.625
 20
-691.383
 40
15.751
 50
270.0
 51
279.549
  0
ARC
  8
APS_GEOMETRY
 10
137.429
 20
-690.219
 40
16.931
 50
279.549
 51
288.759
  0
ARC
  8
APS_GEOMETRY
 10
138.255
 20
-692.65
 40
14.364
 50
288.759
 51
299.545
  0
ARC
  8
APS_GEOMETRY
 10
141.564
 20
-698.489
 40
7.652
 50
299.545
 51
314.341
  0
ARC
  8
APS_GEOMETRY
 10
151.799
 20
-709.12
 40
7.105
 50
120.141
 51
133.452
  0
ARC
  8
APS_GEOMETRY
 10
148.94
 20
-704.196
 40
1.412
 50
90.0
 51
120.141
  0
ARC
  8
APS_GEOMETRY
 10
148.94
 20
-705.014
 40
2.23
 50
61.952
 51
90.0
  0
ARC
  8
APS_GEOMETRY
 10
148.608
 20
-705.637
 40
2.936
 50
37.569
 51
61.952
  0
ARC
  8
APS_GEOMETRY
 10
147.989
 20
-706.114
 40
3.717
 50
17.665
 51
37.569
  0
ARC
  8
APS_GEOMETRY
 10
147.044
 20
-706.415
 40
4.709
 50
360.0
 51
17.665
  0
ARC
  8
APS_GEOMETRY
 10
144.672
 20
-706.415
 40
7.081
 50
344.932
 51
360.0
  0
ARC
  8
APS_GEOMETRY
 10
138.374
 20
-704.719
 40
13.603
 50
334.075
 51
344.932
  0
ARC
  8
APS_GEOMETRY
 10
138.176
 20
-704.623
 40
13.823
 50
323.374
 51
334.075
  0
ARC
  8
APS_GEOMETRY
 10
142.24
 20
-707.643
 40
8.76
 50
309.92
 51
323.374
  0
ARC
  8
APS_GEOMETRY
 10
146.301
 20
-712.434
 40
2.48
 50
289.026
 51
308.991
  0
ARC
  8
APS_GEOMETRY
 10
141.968
 20
-699.869
 40
15.771
 50
281.143
 51
289.026
  0
ARC
  8
APS_GEOMETRY
 10
146.362
 20
-722.65
 40
7.431
 50
100.437
 51
110.12
  0
ARC
  8
APS_GEOMETRY
 10
152.183
 20
-738.54
 40
24.353
 50
110.12
 51
115.463
  0
ARC
  8
APS_GEOMETRY
 10
131.402
 20
-695.06
 40
23.838
 50
282.94
 51
295.628
  0
ARC
  8
APS_GEOMETRY
 10
131.608
 20
-695.954
 40
22.921
 50
270.0
 51
282.94
  0
ARC
  8
APS_GEOMETRY
 10
131.608
 20
-694.6
 40
24.275
 50
257.307
 51
270.0
  0
ARC
  8
APS_GEOMETRY
 10
132.632
 20
-690.05
 40
28.939
 50
245.686
 51
257.307
  0
ARC
  8
APS_GEOMETRY
 10
130.062
 20
-695.691
 40
22.739
 50
228.801
 51
245.735
  0
ARC
  8
APS_GEOMETRY
 10
130.105
 20
-695.642
 40
22.805
 50
211.891
 51
228.801
  0
ARC
  8
APS_GEOMETRY
 10
131.453
 20
-694.672
 40
24.462
 50
196.728
 51
212.152
  0
ARC
  8
APS_GEOMETRY
 10
127.965
 20
-695.72
 40
20.82
 50
180.0
 51
196.728
  0
ARC
  8
APS_GEOMETRY
 10
128.472
 20
-695.72
 40
21.327
 50
161.184
 51
180.0
  0
ARC
  8
APS_GEOMETRY
 10
129.841
 20
-696.187
 40
22.773
 50
142.98
 51
161.184
  0
ARC
  8
APS_GEOMETRY
 10
130.905
 20
-697.001
 40
24.112
 50
127.824
 51
142.958
  0
ARC
  8
APS_GEOMETRY
 10
132.659
 20
-699.26
 40
26.973
 50
113.52
 51
127.824
  0
ARC
  8
APS_GEOMETRY
 10
132.088
 20
-697.941
 40
25.535
 50
101.927
 51
113.527
  0
ARC
  8
APS_GEOMETRY
 10
131.804
 20
-696.597
 40
24.161
 50
90.0
 51
101.927
  0
ARC
  8
APS_GEOMETRY
 10
182.285
 20
-698.217
 40
25.782
 50
71.91
 51
90.0
  0
ARC
  8
APS_GEOMETRY
 10
183.283
 20
-695.16
 40
22.566
 50
52.561
 51
71.91
  0
ARC
  8
APS_GEOMETRY
 10
183.022
 20
-695.237
 40
22.786
 50
38.846
 51
52.156
  0
ARC
  8
APS_GEOMETRY
 10
179.45
 20
-698.113
 40
27.372
 50
26.707
 51
38.846
  0
ARC
  8
APS_GEOMETRY
 10
180.157
 20
-697.535
 40
26.482
 50
13.868
 51
26.278
  0
ARC
  8
APS_GEOMETRY
 10
185.257
 20
-696.276
 40
21.229
 50
360.0
 51
13.868
  0
ARC
  8
APS_GEOMETRY
 10
185.587
 20
-696.276
 40
20.899
 50
339.712
 51
360.0
  0
ARC
  8
APS_GEOMETRY
 10
184.41
 20
-695.842
 40
22.153
 50
320.013
 51
339.712
  0
ARC
  8
APS_GEOMETRY
 10
184.215
 20
-695.734
 40
22.372
 50
303.344
 51
320.123
  0
ARC
  8
APS_GEOMETRY
 10
181.919
 20
-692.245
 40
26.548
 50
287.949
 51
303.344
  0
ARC
  8
APS_GEOMETRY
 10
181.165
 20
-689.63
 40
29.269
 50
279.039
 51
287.776
  0
ARC
  8
APS_GEOMETRY
 10
181.467
 20
-691.529
 40
27.346
 50
270.0
 51
279.039
  0
ARC
  8
APS_GEOMETRY
 10
181.467
 20
-692.864
 40
26.011
 50
257.728
 51
270.0
  0
ARC
  8
APS_GEOMETRY
 10
181.508
 20
-692.676
 40
26.203
 50
245.501
 51
257.728
  0
ARC
  8
APS_GEOMETRY
 10
180.036
 20
-695.898
 40
22.66
 50
228.665
 51
245.511
  0
ARC
  8
APS_GEOMETRY
 10
179.546
 20
-696.455
 40
21.918
 50
211.535
 51
228.665
  0
ARC
  8
APS_GEOMETRY
 10
180.188
 20
-695.984
 40
22.712
 50
195.642
 51
211.701
  0
ARC
  8
APS_GEOMETRY
 10
181.361
 20
-695.655
 40
23.931
 50
180.0
 51
195.642
  0
ARC
  8
APS_GEOMETRY
 10
181.613
 20
-695.655
 40
24.183
 50
162.181
 51
180.0
  0
ARC
  8
APS_GEOMETRY
 10
179.406
 20
-694.946
 40
21.865
 50
143.434
 51
162.181
  0
ARC
  8
APS_GEOMETRY
 10
179.11
 20
-694.708
 40
21.485
 50
126.384
 51
143.471
  0
ARC
  8
APS_GEOMETRY
 10
181.144
 20
-697.469
 40
24.914
 50
110.525
 51
126.384
  0
ARC
  8
APS_GEOMETRY
 10
181.043
 20
-696.719
 40
24.177
 50
99.77
 51
110.925
  0
ARC
  8
APS_GEOMETRY
 10
182.285
 20
-703.931
 40
31.496
 50
90.0
 51
99.77
  0
ARC
  8
APS_GEOMETRY
 10
179.178
 20
-686.629
 40
4.807
 50
90.0
 51
119.604
  0
ARC
  8
APS_GEOMETRY
 10
179.599
 20
-687.37
 40
5.659
 50
119.604
 51
146.842
  0
ARC
  8
APS_GEOMETRY
 10
180.445
 20
-688.063
 40
6.748
 50
145.84
 51
164.055
  0
ARC
  8
APS_GEOMETRY
 10
182.407
 20
-688.624
 40
8.788
 50
164.055
 51
180.0
  0
ARC
  8
APS_GEOMETRY
 10
194.671
 20
-688.624
 40
21.053
 50
180.0
 51
189.977
  0
ARC
  8
APS_GEOMETRY
 10
213.323
 20
-685.343
 40
39.991
 50
189.977
 51
197.211
  0
ARC
  8
APS_GEOMETRY
 10
217.402
 20
-684.079
 40
44.261
 50
197.211
 51
203.76
  0
ARC
  8
APS_GEOMETRY
 10
207.239
 20
-688.553
 40
33.157
 50
203.76
 51
211.329
  0
ARC
  8
APS_GEOMETRY
 10
186.371
 20
-701.077
 40
8.821
 50
212.32
 51
224.441
  0
ARC
  8
APS_GEOMETRY
 10
185.516
 20
-701.916
 40
7.623
 50
224.441
 51
237.484
  0
ARC
  8
APS_GEOMETRY
 10
184.963
 20
-702.783
 40
6.595
 50
237.484
 51
252.416
  0
ARC
  8
APS_GEOMETRY
 10
184.411
 20
-704.526
 40
4.766
 50
252.416
 51
270.0
  0
ARC
  8
APS_GEOMETRY
 10
184.411
 20
-703.961
 40
5.331
 50
270.0
 51
294.953
  0
ARC
  8
APS_GEOMETRY
 10
184.56
 20
-704.282
 40
4.977
 50
294.953
 51
320.793
  0
ARC
  8
APS_GEOMETRY
 10
183.759
 20
-703.629
 40
6.011
 50
320.793
 51
342.777
  0
ARC
  8
APS_GEOMETRY
 10
180.192
 20
-702.523
 40
9.746
 50
342.777
 51
0.0
  0
ARC
  8
APS_GEOMETRY
 10
163.43
 20
-702.523
 40
26.507
 50
0.0
 51
8.499
  0
ARC
  8
APS_GEOMETRY
 10
151.763
 20
-704.266
 40
38.304
 50
8.499
 51
15.566
  0
ARC
  8
APS_GEOMETRY
 10
153.166
 20
-703.875
 40
36.848
 50
15.566
 51
22.909
  0
ARC
  8
APS_GEOMETRY
 10
165.23
 20
-698.777
 40
23.751
 50
22.909
 51
32.057
  0
ARC
  8
APS_GEOMETRY
 10
174.705
 20
-692.808
 40
12.552
 50
31.921
 51
42.51
  0
ARC
  8
APS_GEOMETRY
 10
177.307
 20
-690.423
 40
9.022
 50
42.51
 51
55.008
  0
ARC
  8
APS_GEOMETRY
 10
178.186
 20
-689.167
 40
7.489
 50
55.008
 51
69.88
  0
ARC
  8
APS_GEOMETRY
 10
178.974
 20
-687.016
 40
5.198
 50
69.88
 51
87.754
  0
ARC
  8
APS_GEOMETRY
 10
235.644
 20
-693.699
 40
21.264
 50
77.257
 51
90.0
  0
ARC
  8
APS_GEOMETRY
 10
235.428
 20
-694.655
 40
22.243
 50
64.799
 51
77.257
  0
ARC
  8
APS_GEOMETRY
 10
253.745
 20
-655.656
 40
20.843
 50
244.885
 51
251.175
  0
ARC
  8
APS_GEOMETRY
 10
247.777
 20
-673.164
 40
2.346
 50
251.175
 51
270.0
  0
ARC
  8
APS_GEOMETRY
 10
247.777
 20
-671.703
 40
3.806
 50
270.0
 51
278.82
  0
ARC
  8
APS_GEOMETRY
 10
245.318
 20
-655.856
 40
19.844
 50
278.82
 51
282.68
  0
ARC
  8
APS_GEOMETRY
 10
250.463
 20
-678.636
 40
3.511
 50
95.906
 51
102.995
  0
ARC
  8
APS_GEOMETRY
 10
250.622
 20
-680.173
 40
5.055
 50
90.0
 51
95.906
  0
ARC
  8
APS_GEOMETRY
 10
250.622
 20
-678.473
 40
3.356
 50
62.447
 51
90.0
  0
ARC
  8
APS_GEOMETRY
 10
250.025
 20
-679.616
 40
4.645
 50
39.094
 51
62.447
  0
ARC
  8
APS_GEOMETRY
 10
243.791
 20
-684.83
 40
12.772
 50
18.435
 51
39.611
  0
ARC
  8
APS_GEOMETRY
 10
239.965
 20
-686.106
 40
16.806
 50
360.0
 51
18.435
  0
ARC
  8
APS_GEOMETRY
 10
248.437
 20
-686.106
 40
8.333
 50
334.877
 51
360.0
  0
ARC
  8
APS_GEOMETRY
 10
250.943
 20
-687.281
 40
5.565
 50
304.007
 51
334.877
  0
ARC
  8
APS_GEOMETRY
 10
250.902
 20
-687.163
 40
5.686
 50
286.39
 51
303.69
  0
ARC
  8
APS_GEOMETRY
 10
250.72
 20
-686.545
 40
6.33
 50
270.0
 51
286.39
  0
ARC
  8
APS_GEOMETRY
 10
250.72
 20
-686.619
 40
6.257
 50
255.155
 51
270.0
  0
ARC
  8
APS_GEOMETRY
 10
250.035
 20
-689.205
 40
3.581
 50
235.491
 51
255.155
  0
ARC
  8
APS_GEOMETRY
 10
250.379
 20
-688.704
 40
4.189
 50
218.48
 51
235.491
  0
ARC
  8
APS_GEOMETRY
 10
256.0
 20
-684.236
 40
11.369
 50
208.179
 51
218.48
  0
ARC
  8
APS_GEOMETRY
 10
198.375
 20
-715.515
 40
54.198
 50
28.56
 51
31.664
  0
ARC
  8
APS_GEOMETRY
 10
233.587
 20
-693.799
 40
12.827
 50
31.664
 51
38.047
  0
ARC
  8
APS_GEOMETRY
 10
236.148
 20
-691.795
 40
9.576
 50
38.047
 51
46.56
  0
ARC
  8
APS_GEOMETRY
 10
234.817
 20
-693.2
 40
11.512
 50
46.56
 51
54.324
  0
ARC
  8
APS_GEOMETRY
 10
234.049
 20
-694.522
 40
13.034
 50
54.968
 51
71.48
  0
ARC
  8
APS_GEOMETRY
 10
234.892
 20
-692.005
 40
10.38
 50
71.48
 51
90.0
  0
ARC
  8
APS_GEOMETRY
 10
234.892
 20
-688.876
 40
7.251
 50
90.0
 51
114.63
  0
ARC
  8
APS_GEOMETRY
 10
234.528
 20
-688.082
 40
6.377
 50
114.63
 51
140.921
  0
ARC
  8
APS_GEOMETRY
 10
235.603
 20
-688.955
 40
7.763
 50
140.921
 51
163.13
  0
ARC
  8
APS_GEOMETRY
 10
240.981
 20
-690.586
 40
13.382
 50
163.13
 51
180.0
  0
ARC
  8
APS_GEOMETRY
 10
247.954
 20
-690.586
 40
20.355
 50
180.0
 51
195.44
  0
ARC
  8
APS_GEOMETRY
 10
246.896
 20
-690.878
 40
19.258
 50
195.44
 51
211.316
  0
ARC
  8
APS_GEOMETRY
 10
241.807
 20
-693.868
 40
13.357
 50
211.708
 51
240.457
  0
ARC
  8
APS_GEOMETRY
 10
241.465
 20
-694.471
 40
12.663
 50
240.457
 51
270.0
  0
ARC
  8
APS_GEOMETRY
 10
241.465
 20
-691.383
 40
15.751
 50
270.0
 51
279.549
  0
ARC
  8
APS_GEOMETRY
 10
241.269
 20
-690.219
 40
16.931
 50
279.549
 51
288.759
  0
ARC
  8
APS_GEOMETRY
 10
242.095
 20
-692.65
 40
14.364
 50
288.759
 51
299.545
  0
ARC
  8
APS_GEOMETRY
 10
245.404
 20
-698.489
 40
7.652
 50
299.545
 51
314.341
  0
ARC
  8
APS_GEOMETRY
 10
255.639
 20
-709.12
 40
7.105
 50
120.141
 51
133.452
  0
ARC
  8
APS_GEOMETRY
 10
252.781
 20
-704.196
 40
1.412
 50
90.0
 51
120.141
  0
ARC
  8
APS_GEOMETRY
 10
252.781
 20
-705.014
 40
2.23
 50
61.952
 51
90.0
  0
ARC
  8
APS_GEOMETRY
 10
252.448
 20
-705.637
 40
2.936
 50
37.569
 51
61.952
  0
ARC
  8
APS_GEOMETRY
 10
251.829
 20
-706.114
 40
3.717
 50
17.665
 51
37.569
  0
ARC
  8
APS_GEOMETRY
 10
250.884
 20
-706.415
 40
4.709
 50
360.0
 51
17.665
  0
ARC
  8
APS_GEOMETRY
 10
248.512
 20
-706.415
 40
7.081
 50
344.932
 51
360.0
  0
ARC
  8
APS_GEOMETRY
 10
242.214
 20
-704.719
 40
13.603
 50
334.075
 51
344.932
  0
ARC
  8
APS_GEOMETRY
 10
242.016
 20
-704.623
 40
13.823
 50
323.374
 51
334.075
  0
ARC
  8
APS_GEOMETRY
 10
246.08
 20
-707.643
 40
8.76
 50
309.92
 51
323.374
  0
ARC
  8
APS_GEOMETRY
 10
250.141
 20
-712.434
 40
2.48
 50
289.026
 51
308.991
  0
ARC
  8
APS_GEOMETRY
 10
245.808
 20
-699.869
 40
15.771
 50
281.143
 51
289.026
  0
ARC
  8
APS_GEOMETRY
 10
250.202
 20
-722.65
 40
7.431
 50
100.437
 51
110.12
  0
ARC
  8
APS_GEOMETRY
 10
256.023
 20
-738.54
 40
24.353
 50
110.12
 51
115.463
  0
ARC
  8
APS_GEOMETRY
 10
235.242
 20
-695.06
 40
23.838
 50
282.94
 51
295.628
  0
ARC
  8
APS_GEOMETRY
 10
235.448
 20
-695.954
 40
22.921
 50
270.0
 51
282.94
  0
ARC
  8
APS_GEOMETRY
 10
235.448
 20
-694.6
 40
24.275
 50
257.307
 51
270.0
  0
ARC
  8
APS_GEOMETRY
 10
236.472
 20
-690.05
 40
28.939
 50
245.686
 51
257.307
  0
ARC
  8
APS_GEOMETRY
 10
233.902
 20
-695.691
 40
22.739
 50
228.801
 51
245.735
  0
ARC
  8
APS_GEOMETRY
 10
233.945
 20
-695.642
 40
22.805
 50
211.891
 51
228.801
  0
ARC
  8
APS_GEOMETRY
 10
235.293
 20
-694.672
 40
24.462
 50
196.728
 51
212.152
  0
ARC
  8
APS_GEOMETRY
 10
231.805
 20
-695.72
 40
20.82
 50
180.0
 51
196.728
  0
ARC
  8
APS_GEOMETRY
 10
232.312
 20
-695.72
 40
21.327
 50
161.184
 51
180.0
  0
ARC
  8
APS_GEOMETRY
 10
233.681
 20
-696.187
 40
22.773
 50
142.98
 51
161.184
  0
ARC
  8
APS_GEOMETRY
 10
234.745
 20
-697.001
 40
24.112
 50
127.824
 51
142.958
  0
ARC
  8
APS_GEOMETRY
 10
236.499
 20
-699.26
 40
26.973
 50
113.52
 51
127.824
  0
ARC
  8
APS_GEOMETRY
 10
235.928
 20
-697.941
 40
25.535
 50
101.927
 51
113.527
  0
ARC
  8
APS_GEOMETRY
 10
235.644
 20
-696.597
 40
24.161
 50
90.0
 51
101.927
  0
ARC
  8
APS_GEOMETRY
 10
286.125
 20
-698.217
 40
25.782
 50
71.91
 51
90.0
  0
ARC
  8
APS_GEOMETRY
 10
287.123
 20
-695.16
 40
22.566
 50
52.561
 51
71.91
  0
ARC
  8
APS_GEOMETRY
 10
286.862
 20
-695.237
 40
22.786
 50
38.846
 51
52.156
  0
ARC
  8
APS_GEOMETRY
 10
283.29
 20
-698.113
 40
27.372
 50
26.707
 51
38.846
  0
ARC
  8
APS_GEOMETRY
 10
283.997
 20
-697.535
 40
26.482
 50
13.868
 51
26.278
  0
ARC
  8
APS_GEOMETRY
 10
289.097
 20
-696.276
 40
21.229
 50
360.0
 51
13.868
  0
ARC
  8
APS_GEOMETRY
 10
289.427
 20
-696.276
 40
20.899
 50
339.712
 51
360.0
  0
ARC
  8
APS_GEOMETRY
 10
288.25
 20
-695.842
 40
22.153
 50
320.013
 51
339.712
  0
ARC
  8
APS_GEOMETRY
 10
288.055
 20
-695.734
 40
22.372
 50
303.344
 51
320.123
  0
ARC
  8
APS_GEOMETRY
 10
285.76
 20
-692.245
 40
26.548
 50
287.949
 51
303.344
  0
ARC
  8
APS_GEOMETRY
 10
285.005
 20
-689.63
 40
29.269
 50
279.039
 51
287.776
  0
ARC
  8
APS_GEOMETRY
 10
285.307
 20
-691.529
 40
27.346
 50
270.0
 51
279.039
  0
ARC
  8
APS_GEOMETRY
 10
285.307
 20
-692.864
 40
26.011
 50
257.728
 51
270.0
  0
ARC
  8
APS_GEOMETRY
 10
285.348
 20
-692.676
 40
26.203
 50
245.501
 51
257.728
  0
ARC
  8
APS_GEOMETRY
 10
283.876
 20
-695.898
 40
22.66
 50
228.665
 51
245.511
  0
ARC
  8
APS_GEOMETRY
 10
283.386
 20
-696.455
 40
21.918
 50
211.535
 51
228.665
  0
ARC
  8
APS_GEOMETRY
 10
284.028
 20
-695.984
 40
22.712
 50
195.642
 51
211.701
  0
ARC
  8
APS_GEOMETRY
 10
285.202
 20
-695.655
 40
23.931
 50
180.0
 51
195.642
  0
ARC
  8
APS_GEOMETRY
 10
285.453
 20
-695.655
 40
24.183
 50
162.181
 51
180.0
  0
ARC
  8
APS_GEOMETRY
 10
283.247
 20
-694.946
 40
21.865
 50
143.434
 51
162.181
  0
ARC
  8
APS_GEOMETRY
 10
282.95
 20
-694.708
 40
21.485
 50
126.384
 51
143.471
  0
ARC
  8
APS_GEOMETRY
 10
284.984
 20
-697.469
 40
24.914
 50
110.525
 51
126.384
  0
ARC
  8
APS_GEOMETRY
 10
284.883
 20
-696.719
 40
24.177
 50
99.77
 51
110.925
  0
ARC
  8
APS_GEOMETRY
 10
286.125
 20
-703.931
 40
31.496
 50
90.0
 51
99.77
  0
ARC
  8
APS_GEOMETRY
 10
283.018
 20
-686.629
 40
4.807
 50
90.0
 51
119.604
  0
ARC
  8
APS_GEOMETRY
 10
283.439
 20
-687.37
 40
5.659
 50
119.604
 51
146.842
  0
ARC
  8
APS_GEOMETRY
 10
284.285
 20
-688.063
 40
6.748
 50
145.84
 51
164.055
  0
ARC
  8
APS_GEOMETRY
 10
286.247
 20
-688.624
 40
8.788
 50
164.055
 51
180.0
  0
ARC
  8
APS_GEOMETRY
 10
298.511
 20
-688.624
 40
21.053
 50
180.0
 51
189.977
  0
ARC
  8
APS_GEOMETRY
 10
317.163
 20
-685.343
 40
39.991
 50
189.977
 51
197.211
  0
ARC
  8
APS_GEOMETRY
 10
321.242
 20
-684.079
 40
44.261
 50
197.211
 51
203.76
  0
ARC
  8
APS_GEOMETRY
 10
311.08
 20
-688.553
 40
33.157
 50
203.76
 51
211.329
  0
ARC
  8
APS_GEOMETRY
 10
290.211
 20
-701.077
 40
8.821
 50
212.32
 51
224.441
  0
ARC
  8
APS_GEOMETRY
 10
289.356
 20
-701.916
 40
7.623
 50
224.441
 51
237.484
  0
ARC
  8
APS_GEOMETRY
 10
288.803
 20
-702.783
 40
6.595
 50
237.484
 51
252.416
  0
ARC
  8
APS_GEOMETRY
 10
288.251
 20
-704.526
 40
4.766
 50
252.416
 51
270.0
  0
ARC
  8
APS_GEOMETRY
 10
288.251
 20
-703.961
 40
5.331
 50
270.0
 51
294.953
  0
ARC
  8
APS_GEOMETRY
 10
288.4
 20
-704.282
 40
4.977
 50
294.953
 51
320.793
  0
ARC
  8
APS_GEOMETRY
 10
287.599
 20
-703.629
 40
6.011
 50
320.793
 51
342.777
  0
ARC
  8
APS_GEOMETRY
 10
284.032
 20
-702.523
 40
9.746
 50
342.777
 51
0.0
  0
ARC
  8
APS_GEOMETRY
 10
267.271
 20
-702.523
 40
26.507
 50
0.0
 51
8.499
  0
ARC
  8
APS_GEOMETRY
 10
255.603
 20
-704.266
 40
38.304
 50
8.499
 51
15.566
  0
ARC
  8
APS_GEOMETRY
 10
257.006
 20
-703.875
 40
36.848
 50
15.566
 51
22.909
  0
ARC
  8
APS_GEOMETRY
 10
269.07
 20
-698.777
 40
23.751
 50
22.909
 51
32.057
  0
ARC
  8
APS_GEOMETRY
 10
278.545
 20
-692.808
 40
12.552
 50
31.921
 51
42.51
  0
ARC
  8
APS_GEOMETRY
 10
281.147
 20
-690.423
 40
9.022
 50
42.51
 51
55.008
  0
ARC
  8
APS_GEOMETRY
 10
282.026
 20
-689.167
 40
7.489
 50
55.008
 51
69.88
  0
ARC
  8
APS_GEOMETRY
 10
282.814
 20
-687.016
 40
5.198
 50
69.88
 51
87.754
  0
ARC
  8
APS_GEOMETRY
 10
336.639
 20
-701.64
 40
2.42
 50
90.0
 51
115.837
  0
ARC
  8
APS_GEOMETRY
 10
336.043
 20
-700.409
 40
1.053
 50
115.837
 51
155.462
  0
ARC
  8
APS_GEOMETRY
 10
336.738
 20
-700.727
 40
1.817
 50
155.462
 51
168.366
  0
ARC
  8
APS_GEOMETRY
 10
343.084
 20
-702.033
 40
8.296
 50
168.366
 51
174.395
  0
ARC
  8
APS_GEOMETRY
 10
349.48
 20
-702.661
 40
14.722
 50
174.395
 51
177.813
  0
ARC
  8
APS_GEOMETRY
 10
370.708
 20
-703.471
 40
35.966
 50
177.813
 51
180.0
  0
ARC
  8
APS_GEOMETRY
 10
386.077
 20
-703.471
 40
51.335
 50
180.0
 51
184.62
  0
ARC
  8
APS_GEOMETRY
 10
351.657
 20
-706.253
 40
16.803
 50
184.62
 51
192.7
  0
ARC
  8
APS_GEOMETRY
 10
338.387
 20
-709.166
 40
3.218
 50
194.036
 51
205.821
  0
ARC
  8
APS_GEOMETRY
 10
336.981
 20
-709.846
 40
1.656
 50
205.821
 51
222.274
  0
ARC
  8
APS_GEOMETRY
 10
337.412
 20
-709.455
 40
2.238
 50
222.274
 51
234.605
  0
ARC
  8
APS_GEOMETRY
 10
342.272
 20
-702.614
 40
10.63
 50
234.605
 51
240.255
  0
ARC
  8
APS_GEOMETRY
 10
334.884
 20
-715.689
 40
4.389
 50
34.592
 51
61.189
  0
ARC
  8
APS_GEOMETRY
 10
336.334
 20
-714.688
 40
2.627
 50
360.0
 51
34.592
  0
ARC
  8
APS_GEOMETRY
 10
336.421
 20
-714.688
 40
2.539
 50
318.231
 51
360.0
  0
ARC
  8
APS_GEOMETRY
 10
334.723
 20
-713.172
 40
4.816
 50
288.227
 51
318.231
  0
ARC
  8
APS_GEOMETRY
 10
332.962
 20
-707.824
 40
10.446
 50
280.377
 51
288.227
  0
ARC
  8
APS_GEOMETRY
 10
329.892
 20
-691.06
 40
27.489
 50
275.541
 51
280.377
  0
ARC
  8
APS_GEOMETRY
 10
328.569
 20
-677.423
 40
41.19
 50
272.304
 51
275.541
  0
ARC
  8
APS_GEOMETRY
 10
326.959
 20
-637.387
 40
81.259
 50
270.0
 51
272.304
  0
ARC
  8
APS_GEOMETRY
 10
326.959
 20
-670.846
 40
47.8
 50
262.811
 51
270.0
  0
ARC
  8
APS_GEOMETRY
 10
322.669
 20
-704.852
 40
13.524
 50
249.274
 51
262.811
  0
ARC
  8
APS_GEOMETRY
 10
319.972
 20
-711.982
 40
5.901
 50
221.379
 51
249.274
  0
ARC
  8
APS_GEOMETRY
 10
317.605
 20
-714.067
 40
2.747
 50
180.0
 51
221.379
  0
ARC
  8
APS_GEOMETRY
 10
317.587
 20
-714.067
 40
2.728
 50
164.055
 51
180.0
  0
ARC
  8
APS_GEOMETRY
 10
316.449
 20
-713.742
 40
1.546
 50
142.815
 51
164.055
  0
ARC
  8
APS_GEOMETRY
 10
317.165
 20
-714.285
 40
2.444
 50
129.007
 51
142.815
  0
ARC
  8
APS_GEOMETRY
 10
325.957
 20
-725.139
 40
16.412
 50
123.69
 51
129.007
  0
ARC
  8
APS_GEOMETRY
 10
313.481
 20
-706.367
 40
6.128
 50
303.389
 51
319.022
  0
ARC
  8
APS_GEOMETRY
 10
315.139
 20
-707.807
 40
3.932
 50
319.022
 51
338.575
  0
ARC
  8
APS_GEOMETRY
 10
312.92
 20
-706.936
 40
6.316
 50
338.575
 51
351.049
  0
ARC
  8
APS_GEOMETRY
 10
286.114
 20
-702.714
 40
33.452
 50
351.049
 51
356.46
  0
ARC
  8
APS_GEOMETRY
 10
294.95
 20
-703.05
 40
24.613
 50
355.972
 51
358.68
  0
ARC
  8
APS_GEOMETRY
 10
4.759
 20
-696.364
 40
314.881
 50
358.68
 51
359.437
  0
LINE
  8
APS_GEOMETRY
 10
319.625
 11
319.655
 20
-699.457
 21
-694.545
  0
LINE
  8
APS_GEOMETRY
 10
319.655
 11
319.666
 20
-694.545
 21
-688.133
  0
ARC
  8
APS_GEOMETRY
 10
243.856
 20
-688.133
 40
75.809
 50
0.0
 51
1.717
  0
ARC
  8
APS_GEOMETRY
 10
284.425
 20
-686.917
 40
35.223
 50
1.717
 51
4.236
  0
ARC
  8
APS_GEOMETRY
 10
297.654
 20
-685.937
 40
21.957
 50
4.236
 51
8.269
  0
ARC
  8
APS_GEOMETRY
 10
312.878
 20
-683.725
 40
6.573
 50
8.269
 51
15.642
  0
ARC
  8
APS_GEOMETRY
 10
315.498
 20
-682.991
 40
3.853
 50
15.642
 51
39.417
  0
ARC
  8
APS_GEOMETRY
 10
315.557
 20
-682.943
 40
3.776
 50
39.417
 51
63.435
  0
ARC
  8
APS_GEOMETRY
 10
322.358
 20
-668.853
 40
11.869
 50
236.874
 51
244.486
  0
ARC
  8
APS_GEOMETRY
 10
317.299
 20
-676.607
 40
2.611
 50
220.601
 51
236.874
  0
ARC
  8
APS_GEOMETRY
 10
316.718
 20
-677.104
 40
1.847
 50
198.246
 51
220.601
  0
ARC
  8
APS_GEOMETRY
 10
317.586
 20
-676.818
 40
2.761
 50
180.0
 51
198.246
  0
ARC
  8
APS_GEOMETRY
 10
317.573
 20
-676.818
 40
2.748
 50
156.161
 51
180.0
  0
ARC
  8
APS_GEOMETRY
 10
317.956
 20
-676.987
 40
3.167
 50
133.977
 51
156.161
  0
ARC
  8
APS_GEOMETRY
 10
318.72
 20
-677.778
 40
4.266
 50
116.996
 51
133.977
  0
ARC
  8
APS_GEOMETRY
 10
320.237
 20
-680.756
 40
7.608
 50
104.3
 51
116.996
  0
ARC
  8
APS_GEOMETRY
 10
320.629
 20
-682.262
 40
9.164
 50
95.326
 51
104.349
  0
ARC
  8
APS_GEOMETRY
 10
322.217
 20
-699.296
 40
26.272
 50
90.0
 51
95.326
  0
ARC
  8
APS_GEOMETRY
 10
322.217
 20
-686.037
 40
13.013
 50
87.553
 51
90.0
  0
ARC
  8
APS_GEOMETRY
 10
319.448
 20
-750.825
 40
77.86
 50
86.553
 51
87.553
  0
ARC
  8
APS_GEOMETRY
 10
315.511
 20
-816.172
 40
143.325
 50
86.009
 51
86.553
  0
ARC
  8
APS_GEOMETRY
 10
300.203
 20
-1035.585
 40
363.271
 50
85.668
 51
86.009
  0
ARC
  8
APS_GEOMETRY
 10
328.852
 20
-658.274
 40
15.125
 50
265.426
 51
268.531
  0
ARC
  8
APS_GEOMETRY
 10
330.196
 20
-605.831
 40
67.586
 50
268.531
 51
270.0
  0
ARC
  8
APS_GEOMETRY
 10
330.196
 20
-621.906
 40
51.511
 50
270.0
 51
271.637
  0
ARC
  8
APS_GEOMETRY
 10
329.045
 20
-581.622
 40
91.812
 50
271.637
 51
272.862
  0
ARC
  8
APS_GEOMETRY
 10
327.724
 20
-555.192
 40
118.274
 50
272.862
 51
273.814
  0
ARC
  8
APS_GEOMETRY
 10
323.25
 20
-488.088
 40
185.527
 50
273.814
 51
274.574
  0
ARC
  8
APS_GEOMETRY
 10
351.312
 20
-853.079
 40
180.543
 50
93.72
 51
94.214
  0
ARC
  8
APS_GEOMETRY
 10
345.323
 20
-760.961
 40
88.23
 50
93.013
 51
93.72
  0
ARC
  8
APS_GEOMETRY
 10
343.681
 20
-729.765
 40
56.991
 50
91.918
 51
93.013
  0
ARC
  8
APS_GEOMETRY
 10
342.395
 20
-691.35
 40
18.554
 50
90.0
 51
91.918
  0
ARC
  8
APS_GEOMETRY
 10
342.395
 20
-696.904
 40
24.109
 50
73.82
 51
90.0
  0
ARC
  8
APS_GEOMETRY
 10
344.771
 20
-688.714
 40
15.581
 50
53.658
 51
73.82
  0
ARC
  8
APS_GEOMETRY
 10
348.15
 20
-684.095
 40
9.857
 50
26.03
 51
53.569
  0
ARC
  8
APS_GEOMETRY
 10
347.113
 20
-684.601
 40
11.012
 50
360.0
 51
26.03
  0
ARC
  8
APS_GEOMETRY
 10
346.682
 20
-684.601
 40
11.443
 50
345.282
 51
360.0
  0
ARC
  8
APS_GEOMETRY
 10
347.783
 20
-684.89
 40
10.305
 50
329.767
 51
345.282
  0
ARC
  8
APS_GEOMETRY
 10
348.406
 20
-685.254
 40
9.583
 50
313.168
 51
329.767
  0
ARC
  8
APS_GEOMETRY
 10
348.637
 20
-685.5
 40
9.246
 50
296.267
 51
313.168
  0
ARC
  8
APS_GEOMETRY
 10
353.9
 20
-696.134
 40
2.62
 50
116.565
 51
139.899
  0
ARC
  8
APS_GEOMETRY
 10
352.594
 20
-695.034
 40
0.911
 50
139.899
 51
180.0
  0
ARC
  8
APS_GEOMETRY
 10
352.695
 20
-695.034
 40
1.013
 50
180.0
 51
226.193
  0
ARC
  8
APS_GEOMETRY
 10
354.566
 20
-693.083
 40
3.715
 50
226.193
 51
249.829
  0
ARC
  8
APS_GEOMETRY
 10
349.205
 20
-707.844
 40
11.989
 50
53.249
 51
70.105
  0
ARC
  8
APS_GEOMETRY
 10
351.64
 20
-704.583
 40
7.919
 50
32.471
 51
53.249
  0
ARC
  8
APS_GEOMETRY
 10
350.505
 20
-705.306
 40
9.264
 50
23.305
 51
32.471
  0
ARC
  8
APS_GEOMETRY
 10
343.495
 20
-708.325
 40
16.897
 50
16.521
 51
23.305
  0
ARC
  8
APS_GEOMETRY
 10
338.03
 20
-709.946
 40
22.598
 50
11.429
 51
16.521
  0
ARC
  8
APS_GEOMETRY
 10
322.54
 20
-713.078
 40
38.401
 50
7.524
 51
11.429
  0
ARC
  8
APS_GEOMETRY
 10
373.868
 20
-706.242
 40
13.38
 50
187.765
 51
196.914
  0
ARC
  8
APS_GEOMETRY
 10
362.925
 20
-709.57
 40
1.942
 50
196.914
 51
221.082
  0
ARC
  8
APS_GEOMETRY
 10
362.966
 20
-709.533
 40
1.997
 50
221.082
 51
244.607
  0
ARC
  8
APS_GEOMETRY
 10
367.64
 20
-699.688
 40
12.896
 50
244.607
 51
253.811
  0
ARC
  8
APS_GEOMETRY
 10
363.531
 20
-713.698
 40
1.705
 50
51.45
 51
72.474
  0
ARC
  8
APS_GEOMETRY
 10
363.109
 20
-714.227
 40
2.382
 50
33.69
 51
51.45
  0
ARC
  8
APS_GEOMETRY
 10
363.01
 20
-714.293
 40
2.5
 50
16.639
 51
33.69
  0
ARC
  8
APS_GEOMETRY
 10
362.891
 20
-714.329
 40
2.625
 50
360.0
 51
16.639
  0
ARC
  8
APS_GEOMETRY
 10
362.854
 20
-714.329
 40
2.662
 50
338.993
 51
360.0
  0
ARC
  8
APS_GEOMETRY
 10
361.229
 20
-713.705
 40
4.402
 50
322.696
 51
338.993
  0
ARC
  8
APS_GEOMETRY
 10
360.624
 20
-713.243
 40
5.164
 50
308.603
 51
322.696
  0
ARC
  8
APS_GEOMETRY
 10
360.207
 20
-712.721
 40
5.831
 50
295.346
 51
308.603
  0
ARC
  8
APS_GEOMETRY
 10
358.016
 20
-707.895
 40
11.131
 50
279.583
 51
294.905
  0
ARC
  8
APS_GEOMETRY
 10
355.149
 20
-690.914
 40
28.353
 50
270.0
 51
279.583
  0
ARC
  8
APS_GEOMETRY
 10
355.149
 20
-698.595
 40
20.672
 50
261.247
 51
270.0
  0
ARC
  8
APS_GEOMETRY
 10
353.825
 20
-707.196
 40
11.97
 50
249.737
 51
261.247
  0
ARC
  8
APS_GEOMETRY
 10
352.954
 20
-709.553
 40
9.457
 50
235.345
 51
249.737
  0
ARC
  8
APS_GEOMETRY
 10
351.855
 20
-711.143
 40
7.524
 50
219.198
 51
235.345
  0
ARC
  8
APS_GEOMETRY
 10
354.168
 20
-709.171
 40
10.563
 50
209.076
 51
219.56
  0
ARC
  8
APS_GEOMETRY
 10
359.509
 20
-706.202
 40
16.674
 50
200.735
 51
209.076
  0
ARC
  8
APS_GEOMETRY
 10
366.879
 20
-703.412
 40
24.554
 50
197.881
 51
200.735
  0
ARC
  8
APS_GEOMETRY
 10
397.16
 20
-693.642
 40
56.372
 50
195.997
 51
197.881
  0
ARC
  8
APS_GEOMETRY
 10
419.542
 20
-687.225
 40
79.656
 50
194.664
 51
195.997
  0
ARC
  8
APS_GEOMETRY
 10
481.537
 20
-671.003
 40
143.738
 50
193.671
 51
194.664
  0
ARC
  8
APS_GEOMETRY
 10
324.327
 20
-709.223
 40
18.051
 50
13.61
 51
23.585
  0
ARC
  8
APS_GEOMETRY
 10
336.146
 20
-704.063
 40
5.155
 50
23.585
 51
42.31
  0
ARC
  8
APS_GEOMETRY
 10
337.218
 20
-703.087
 40
3.705
 50
42.31
 51
67.521
  0
ARC
  8
APS_GEOMETRY
 10
336.37
 20
-705.138
 40
5.924
 50
67.521
 51
87.397
  0
LINE
  8
APS_GEOMETRY
 10
334.775
 11
334.415
 20
-682.541
 21
-690.161
  0
LINE
  8
APS_GEOMETRY
 10
334.415
 11
334.415
 20
-690.161
 21
-690.284
  0
LINE
  8
APS_GEOMETRY
 10
334.415
 11
334.415
 20
-690.284
 21
-690.455
  0
ARC
  8
APS_GEOMETRY
 10
339.709
 20
-690.455
 40
5.294
 50
180.0
 51
192.339
  0
ARC
  8
APS_GEOMETRY
 10
335.5
 20
-691.376
 40
0.986
 50
192.339
 51
221.186
  0
ARC
  8
APS_GEOMETRY
 10
335.4
 20
-691.464
 40
0.852
 50
221.186
 51
253.872
  0
ARC
  8
APS_GEOMETRY
 10
336.116
 20
-688.988
 40
3.429
 50
253.872
 51
270.0
  0
ARC
  8
APS_GEOMETRY
 10
336.116
 20
-684.447
 40
7.971
 50
270.0
 51
289.569
  0
ARC
  8
APS_GEOMETRY
 10
337.565
 20
-688.523
 40
3.644
 50
289.569
 51
318.681
  0
ARC
  8
APS_GEOMETRY
 10
337.173
 20
-688.179
 40
4.166
 50
318.681
 51
344.628
  0
ARC
  8
APS_GEOMETRY
 10
329.87
 20
-686.171
 40
11.74
 50
344.628
 51
0.0
  0
ARC
  8
APS_GEOMETRY
 10
333.342
 20
-686.171
 40
8.268
 50
0.0
 51
35.369
  0
ARC
  8
APS_GEOMETRY
 10
337.129
 20
-683.482
 40
3.623
 50
35.369
 51
90.0
  0
ARC
  8
APS_GEOMETRY
 10
337.129
 20
-683.522
 40
3.663
 50
90.0
 51
108.435
  0
ARC
  8
APS_GEOMETRY
 10
336.417
 20
-681.384
 40
1.409
 50
108.435
 51
138.366
  0
ARC
  8
APS_GEOMETRY
 10
336.608
 20
-681.554
 40
1.665
 50
138.366
 51
164.291
  0
ARC
  8
APS_GEOMETRY
 10
341.093
 20
-682.816
 40
6.324
 50
164.291
 51
177.51
  0
LINE
  8
APS_GEOMETRY
 10
392.993
 11
409.28
 20
-674.921
 21
-689.18
  0
ARC
  8
APS_GEOMETRY
 10
424.512
 20
-671.701
 40
23.185
 50
228.93
 51
232.674
  0
ARC
  8
APS_GEOMETRY
 10
416.038
 20
-682.813
 40
9.21
 50
232.674
 51
238.617
  0
ARC
  8
APS_GEOMETRY
 10
413.906
 20
-686.308
 40
5.116
 50
238.617
 51
249.131
  0
ARC
  8
APS_GEOMETRY
 10
412.55
 20
-689.865
 40
1.309
 50
249.131
 51
270.0
  0
ARC
  8
APS_GEOMETRY
 10
412.55
 20
-690.027
 40
1.148
 50
270.0
 51
334.898
  0
ARC
  8
APS_GEOMETRY
 10
407.252
 20
-687.545
 40
6.999
 50
334.898
 51
0.0
  0
ARC
  8
APS_GEOMETRY
 10
356.021
 20
-687.545
 40
58.23
 50
0.0
 51
2.026
  0
ARC
  8
APS_GEOMETRY
 10
386.908
 20
-686.452
 40
27.324
 50
2.026
 51
4.984
  0
ARC
  8
APS_GEOMETRY
 10
397.007
 20
-685.571
 40
17.186
 50
4.984
 51
9.673
  0
ARC
  8
APS_GEOMETRY
 10
408.646
 20
-683.587
 40
5.379
 50
9.673
 51
18.06
  0
ARC
  8
APS_GEOMETRY
 10
410.418
 20
-683.009
 40
3.515
 50
18.06
 51
42.397
  0
ARC
  8
APS_GEOMETRY
 10
409.846
 20
-683.532
 40
4.29
 50
42.397
 51
64.398
  0
ARC
  8
APS_GEOMETRY
 10
415.07
 20
-672.746
 40
7.695
 50
233.633
 51
244.026
  0
ARC
  8
APS_GEOMETRY
 10
412.225
 20
-676.609
 40
2.896
 50
216.656
 51
233.633
  0
ARC
  8
APS_GEOMETRY
 10
411.788
 20
-676.934
 40
2.353
 50
196.082
 51
216.656
  0
ARC
  8
APS_GEOMETRY
 10
413.212
 20
-676.524
 40
3.835
 50
180.0
 51
196.082
  0
ARC
  8
APS_GEOMETRY
 10
412.166
 20
-676.524
 40
2.788
 50
133.202
 51
180.0
  0
ARC
  8
APS_GEOMETRY
 10
414.364
 20
-678.865
 40
6.0
 50
101.788
 51
133.202
  0
ARC
  8
APS_GEOMETRY
 10
414.877
 20
-681.161
 40
8.353
 50
96.633
 51
102.011
  0
ARC
  8
APS_GEOMETRY
 10
416.736
 20
-697.15
 40
24.449
 50
93.489
 51
96.633
  0
ARC
  8
APS_GEOMETRY
 10
417.532
 20
-710.209
 40
37.532
 50
91.439
 51
93.489
  0
ARC
  8
APS_GEOMETRY
 10
418.502
 20
-748.803
 40
76.138
 50
90.0
 51
91.439
  0
ARC
  8
APS_GEOMETRY
 10
418.502
 20
-743.629
 40
70.964
 50
87.994
 51
90.0
  0
ARC
  8
APS_GEOMETRY
 10
419.792
 20
-706.788
 40
34.101
 50
85.101
 51
87.994
  0
ARC
  8
APS_GEOMETRY
 10
420.839
 20
-694.572
 40
21.84
 50
80.595
 51
85.101
  0
ARC
  8
APS_GEOMETRY
 10
423.227
 20
-680.158
 40
7.23
 50
72.759
 51
80.595
  0
ARC
  8
APS_GEOMETRY
 10
423.95
 20
-677.918
 40
4.876
 50
40.956
 51
73.072
  0
ARC
  8
APS_GEOMETRY
 10
425.33
 20
-676.72
 40
3.048
 50
360.0
 51
40.956
  0
ARC
  8
APS_GEOMETRY
 10
425.514
 20
-676.72
 40
2.865
 50
322.573
 51
360.0
  0
ARC
  8
APS_GEOMETRY
 10
424.009
 20
-675.568
 40
4.76
 50
293.749
 51
322.573
  0
ARC
  8
APS_GEOMETRY
 10
430.053
 20
-689.449
 40
10.38
 50
113.429
 51
119.291
  0
ARC
  8
APS_GEOMETRY
 10
426.014
 20
-682.249
 40
2.124
 50
119.291
 51
132.274
  0
ARC
  8
APS_GEOMETRY
 10
425.781
 20
-681.992
 40
1.778
 50
132.274
 51
147.653
  0
ARC
  8
APS_GEOMETRY
 10
427.463
 20
-683.058
 40
3.769
 50
147.653
 51
158.199
  0
ARC
  8
APS_GEOMETRY
 10
430.023
 20
-684.137
 40
6.546
 50
157.751
 51
167.885
  0
ARC
  8
APS_GEOMETRY
 10
443.643
 20
-687.06
 40
20.477
 50
167.885
 51
173.61
  0
ARC
  8
APS_GEOMETRY
 10
455.689
 20
-688.41
 40
32.599
 50
173.61
 51
177.221
  0
ARC
  8
APS_GEOMETRY
 10
492.845
 20
-690.213
 40
69.798
 50
177.221
 51
179.689
  0
LINE
  8
APS_GEOMETRY
 10
423.048
 11
423.048
 20
-689.834
 21
-700.495
  0
ARC
  8
APS_GEOMETRY
 10
858.413
 20
-700.495
 40
435.365
 50
180.0
 51
180.161
  0
ARC
  8
APS_GEOMETRY
 10
1236.232
 20
-699.431
 40
813.186
 50
180.161
 51
180.279
  0
LINE
  8
APS_GEOMETRY
 10
423.056
 11
423.066
 20
-703.398
 21
-705.186
  0
LINE
  8
APS_GEOMETRY
 10
423.066
 11
423.081
 20
-705.186
 21
-707.199
  0
ARC
  8
APS_GEOMETRY
 10
345.397
 20
-707.641
 40
77.685
 50
358.204
 51
0.326
  0
ARC
  8
APS_GEOMETRY
 10
382.351
 20
-708.799
 40
40.713
 50
355.274
 51
358.204
  0
ARC
  8
APS_GEOMETRY
 10
395.214
 20
-709.863
 40
27.806
 50
350.991
 51
355.274
  0
ARC
  8
APS_GEOMETRY
 10
411.592
 20
-712.459
 40
11.223
 50
344.249
 51
350.991
  0
ARC
  8
APS_GEOMETRY
 10
417.128
 20
-714.04
 40
5.466
 50
314.415
 51
344.445
  0
ARC
  8
APS_GEOMETRY
 10
419.156
 20
-716.11
 40
2.568
 50
270.0
 51
314.415
  0
ARC
  8
APS_GEOMETRY
 10
419.156
 20
-714.518
 40
4.16
 50
256.342
 51
270.0
  0
ARC
  8
APS_GEOMETRY
 10
418.86
 20
-715.738
 40
2.905
 50
239.982
 51
256.342
  0
ARC
  8
APS_GEOMETRY
 10
420.154
 20
-713.498
 40
5.492
 50
231.153
 51
239.982
  0
ARC
  8
APS_GEOMETRY
 10
441.903
 20
-686.493
 40
40.166
 50
227.891
 51
231.153
  0
LINE
  8
APS_GEOMETRY
 10
414.97
 11
395.577
 20
-716.291
 21
-698.925
  0
ARC
  8
APS_GEOMETRY
 10
388.106
 20
-707.197
 40
11.146
 50
47.911
 51
61.468
  0
ARC
  8
APS_GEOMETRY
 10
392.209
 20
-699.651
 40
2.557
 50
61.468
 51
90.0
  0
ARC
  8
APS_GEOMETRY
 10
392.209
 20
-698.214
 40
1.12
 50
90.0
 51
133.195
  0
ARC
  8
APS_GEOMETRY
 10
393.313
 20
-699.39
 40
2.733
 50
133.195
 51
160.454
  0
ARC
  8
APS_GEOMETRY
 10
396.857
 20
-700.648
 40
6.494
 50
160.454
 51
173.251
  0
ARC
  8
APS_GEOMETRY
 10
413.524
 20
-702.621
 40
23.278
 50
173.251
 51
180.0
  0
ARC
  8
APS_GEOMETRY
 10
458.864
 20
-702.621
 40
68.618
 50
180.0
 51
181.897
  0
ARC
  8
APS_GEOMETRY
 10
422.522
 20
-703.825
 40
32.255
 50
181.897
 51
184.664
  0
ARC
  8
APS_GEOMETRY
 10
410.61
 20
-704.796
 40
20.304
 50
184.664
 51
189.048
  0
ARC
  8
APS_GEOMETRY
 10
396.809
 20
-706.994
 40
6.329
 50
189.048
 51
196.905
  0
ARC
  8
APS_GEOMETRY
 10
394.618
 20
-707.66
 40
4.04
 50
196.905
 51
220.253
  0
ARC
  8
APS_GEOMETRY
 10
394.662
 20
-707.623
 40
4.097
 50
220.253
 51
243.435
  0
ARC
  8
APS_GEOMETRY
 10
390.665
 20
-715.684
 40
4.901
 50
37.921
 51
63.778
  0
ARC
  8
APS_GEOMETRY
 10
392.697
 20
-714.1
 40
2.324
 50
360.0
 51
37.921
  0
ARC
  8
APS_GEOMETRY
 10
391.794
 20
-714.1
 40
3.227
 50
324.268
 51
360.0
  0
ARC
  8
APS_GEOMETRY
 10
390.586
 20
-713.231
 40
4.715
 50
294.86
 51
324.268
  0
ARC
  8
APS_GEOMETRY
 10
388.589
 20
-708.921
 40
9.465
 50
278.78
 51
294.86
  0
ARC
  8
APS_GEOMETRY
 10
385.21
 20
-687.041
 40
31.604
 50
270.0
 51
278.78
  0
ARC
  8
APS_GEOMETRY
 10
385.21
 20
-692.713
 40
25.933
 50
260.383
 51
270.0
  0
ARC
  8
APS_GEOMETRY
 10
382.477
 20
-708.842
 40
9.574
 50
244.522
 51
260.383
  0
ARC
  8
APS_GEOMETRY
 10
380.498
 20
-712.996
 40
4.972
 50
216.549
 51
244.522
  0
ARC
  8
APS_GEOMETRY
 10
378.876
 20
-714.198
 40
2.954
 50
180.0
 51
216.549
  0
ARC
  8
APS_GEOMETRY
 10
379.929
 20
-714.198
 40
4.007
 50
164.65
 51
180.0
  0
ARC
  8
APS_GEOMETRY
 10
377.644
 20
-713.571
 40
1.637
 50
140.528
 51
164.65
  0
ARC
  8
APS_GEOMETRY
 10
378.568
 20
-714.332
 40
2.835
 50
126.135
 51
140.528
  0
ARC
  8
APS_GEOMETRY
 10
388.223
 20
-727.555
 40
19.207
 50
120.619
 51
126.135
  0
ARC
  8
APS_GEOMETRY
 10
376.777
 20
-708.233
 40
3.251
 50
300.784
 51
330.068
  0
ARC
  8
APS_GEOMETRY
 10
374.611
 20
-706.986
 40
5.749
 50
330.068
 51
351.983
  0
ARC
  8
APS_GEOMETRY
 10
338.249
 20
-702.246
 40
42.42
 50
352.493
 51
355.365
  0
ARC
  8
APS_GEOMETRY
 10
294.386
 20
-698.689
 40
86.427
 50
355.365
 51
357.376
  0
ARC
  8
APS_GEOMETRY
 10
263.673
 20
-697.282
 40
117.171
 50
357.376
 51
358.861
  0
ARC
  8
APS_GEOMETRY
 10
181.846
 20
-695.655
 40
199.014
 50
358.861
 51
0.0
  0
ARC
  8
APS_GEOMETRY
 10
255.436
 20
-695.655
 40
125.424
 50
360.0
 51
1.926
  0
ARC
  8
APS_GEOMETRY
 10
313.822
 20
-693.691
 40
67.005
 50
1.926
 51
4.562
  0
ARC
  8
APS_GEOMETRY
 10
334.41
 20
-692.049
 40
46.352
 50
4.562
 51
8.366
  0
ARC
  8
APS_GEOMETRY
 10
361.186
 20
-688.111
 40
19.288
 50
8.366
 51
14.265
  0
ARC
  8
APS_GEOMETRY
 10
371.311
 20
-685.55
 40
8.844
 50
14.349
 51
23.629
  0
ARC
  8
APS_GEOMETRY
 10
376.445
 20
-683.304
 40
3.24
 50
23.629
 51
38.991
  0
ARC
  8
APS_GEOMETRY
 10
376.464
 20
-683.289
 40
3.215
 50
38.991
 51
54.462
  0
ARC
  8
APS_GEOMETRY
 10
373.46
 20
-687.494
 40
8.384
 50
54.462
 51
64.026
  0
ARC
  8
APS_GEOMETRY
 10
381.938
 20
-670.127
 40
10.942
 50
235.472
 51
243.947
  0
ARC
  8
APS_GEOMETRY
 10
377.559
 20
-676.492
 40
3.216
 50
219.806
 51
235.472
  0
ARC
  8
APS_GEOMETRY
 10
376.896
 20
-677.045
 40
2.353
 50
198.939
 51
219.806
  0
ARC
  8
APS_GEOMETRY
 10
377.367
 20
-676.883
 40
2.851
 50
180.0
 51
198.939
  0
ARC
  8
APS_GEOMETRY
 10
377.228
 20
-676.883
 40
2.712
 50
126.254
 51
180.0
  0
ARC
  8
APS_GEOMETRY
 10
381.367
 20
-682.528
 40
9.711
 50
98.616
 51
126.254
  0
ARC
  8
APS_GEOMETRY
 10
381.95
 20
-687.191
 40
14.41
 50
94.456
 51
98.13
  0
ARC
  8
APS_GEOMETRY
 10
384.198
 20
-716.043
 40
43.349
 50
92.337
 51
94.456
  0
ARC
  8
APS_GEOMETRY
 10
385.156
 20
-739.521
 40
66.847
 50
90.963
 51
92.337
  0
ARC
  8
APS_GEOMETRY
 10
386.322
 20
-808.87
 40
136.206
 50
90.0
 51
90.963
  0
ARC
  8
APS_GEOMETRY
 10
386.322
 20
-697.486
 40
24.822
 50
83.928
 51
90.0
  0
ARC
  8
APS_GEOMETRY
 10
388.358
 20
-678.349
 40
5.577
 50
71.095
 51
83.928
  0
ARC
  8
APS_GEOMETRY
 10
388.544
 20
-677.806
 40
5.003
 50
56.848
 51
71.095
  0
ARC
  8
APS_GEOMETRY
 10
383.041
 20
-686.23
 40
15.065
 50
48.652
 51
56.848
  0
ARC
  8
APS_GEOMETRY
 10
451.801
 20
-713.272
 40
40.608
 50
84.71
 51
90.0
  0
ARC
  8
APS_GEOMETRY
 10
452.545
 20
-705.232
 40
32.533
 50
78.799
 51
84.71
  0
ARC
  8
APS_GEOMETRY
 10
457.362
 20
-680.889
 40
7.718
 50
49.783
 51
78.771
  0
ARC
  8
APS_GEOMETRY
 10
460.583
 20
-677.079
 40
2.729
 50
360.0
 51
49.783
  0
ARC
  8
APS_GEOMETRY
 10
460.293
 20
-677.079
 40
3.02
 50
342.759
 51
360.0
  0
ARC
  8
APS_GEOMETRY
 10
461.868
 20
-677.568
 40
1.37
 50
317.045
 51
342.759
  0
ARC
  8
APS_GEOMETRY
 10
461.107
 20
-676.86
 40
2.41
 50
301.817
 51
317.045
  0
ARC
  8
APS_GEOMETRY
 10
449.851
 20
-658.718
 40
23.76
 50
296.98
 51
301.817
  0
ARC
  8
APS_GEOMETRY
 10
461.853
 20
-682.336
 40
2.733
 50
116.565
 51
149.078
  0
ARC
  8
APS_GEOMETRY
 10
465.372
 20
-684.444
 40
6.835
 50
149.078
 51
169.469
  0
ARC
  8
APS_GEOMETRY
 10
472.876
 20
-685.839
 40
14.468
 50
169.469
 51
174.598
  0
ARC
  8
APS_GEOMETRY
 10
511.54
 20
-689.496
 40
53.304
 50
174.598
 51
177.269
  0
ARC
  8
APS_GEOMETRY
 10
545.538
 20
-691.117
 40
87.341
 50
177.269
 51
178.901
  0
ARC
  8
APS_GEOMETRY
 10
650.845
 20
-693.137
 40
192.667
 50
178.901
 51
180.0
  0
ARC
  8
APS_GEOMETRY
 10
864.835
 20
-693.137
 40
406.657
 50
180.0
 51
180.88
  0
ARC
  8
APS_GEOMETRY
 10
614.315
 20
-696.985
 40
156.107
 50
180.88
 51
182.3
  0
ARC
  8
APS_GEOMETRY
 10
541.089
 20
-699.926
 40
82.823
 50
182.3
 51
184.974
  0
ARC
  8
APS_GEOMETRY
 10
471.268
 20
-706.002
 40
12.738
 50
184.974
 51
191.793
  0
ARC
  8
APS_GEOMETRY
 10
463.158
 20
-707.554
 40
4.484
 50
193.57
 51
205.787
  0
ARC
  8
APS_GEOMETRY
 10
461.141
 20
-708.528
 40
2.244
 50
205.787
 51
223.091
  0
ARC
  8
APS_GEOMETRY
 10
461.653
 20
-708.05
 40
2.944
 50
223.091
 51
236.441
  0
ARC
  8
APS_GEOMETRY
 10
465.936
 20
-701.592
 40
10.693
 50
236.441
 51
243.435
  0
ARC
  8
APS_GEOMETRY
 10
459.378
 20
-715.063
 40
4.291
 50
37.185
 51
65.556
  0
ARC
  8
APS_GEOMETRY
 10
460.777
 20
-714.002
 40
2.535
 50
360.0
 51
37.185
  0
ARC
  8
APS_GEOMETRY
 10
460.701
 20
-714.002
 40
2.612
 50
312.039
 51
360.0
  0
ARC
  8
APS_GEOMETRY
 10
457.59
 20
-710.551
 40
7.258
 50
283.815
 51
312.039
  0
ARC
  8
APS_GEOMETRY
 10
452.449
 20
-689.246
 40
29.174
 50
279.273
 51
283.627
  0
ARC
  8
APS_GEOMETRY
 10
450.394
 20
-676.661
 40
41.926
 50
275.641
 51
279.273
  0
ARC
  8
APS_GEOMETRY
 10
449.609
 20
-668.707
 40
49.919
 50
272.588
 51
275.641
  0
ARC
  8
APS_GEOMETRY
 10
448.727
 20
-649.19
 40
69.456
 50
270.0
 51
272.588
  0
ARC
  8
APS_GEOMETRY
 10
448.727
 20
-676.752
 40
41.894
 50
262.774
 51
270.0
  0
ARC
  8
APS_GEOMETRY
 10
444.95
 20
-706.539
 40
11.868
 50
249.175
 51
262.774
  0
ARC
  8
APS_GEOMETRY
 10
442.577
 20
-712.777
 40
5.194
 50
221.23
 51
249.175
  0
ARC
  8
APS_GEOMETRY
 10
440.508
 20
-714.59
 40
2.443
 50
180.0
 51
221.23
  0
ARC
  8
APS_GEOMETRY
 10
440.107
 20
-714.59
 40
2.041
 50
142.696
 51
180.0
  0
ARC
  8
APS_GEOMETRY
 10
443.328
 20
-717.045
 40
6.091
 50
121.357
 51
142.696
  0
ARC
  8
APS_GEOMETRY
 10
437.885
 20
-708.13
 40
4.354
 50
301.477
 51
324.728
  0
ARC
  8
APS_GEOMETRY
 10
438.465
 20
-708.54
 40
3.643
 50
324.728
 51
350.181
  0
ARC
  8
APS_GEOMETRY
 10
420.224
 20
-705.523
 40
22.132
 50
350.538
 51
355.423
  0
ARC
  8
APS_GEOMETRY
 10
345.272
 20
-699.523
 40
97.324
 50
355.423
 51
357.752
  0
ARC
  8
APS_GEOMETRY
 10
275.679
 20
-696.791
 40
166.971
 50
357.752
 51
359.111
  0
ARC
  8
APS_GEOMETRY
 10
52.932
 20
-693.333
 40
389.744
 50
359.111
 51
0.0
  0
ARC
  8
APS_GEOMETRY
 10
307.453
 20
-693.333
 40
135.223
 50
0.0
 51
1.773
  0
ARC
  8
APS_GEOMETRY
 10
386.813
 20
-690.877
 40
55.825
 50
1.773
 51
4.532
  0
ARC
  8
APS_GEOMETRY
 10
410.934
 20
-688.965
 40
31.629
 50
4.532
 51
9.384
  0
ARC
  8
APS_GEOMETRY
 10
435.427
 20
-684.917
 40
6.803
 50
9.384
 51
19.855
  0
ARC
  8
APS_GEOMETRY
 10
438.669
 20
-683.684
 40
3.336
 50
18.853
 51
42.158
  0
ARC
  8
APS_GEOMETRY
 10
435.891
 20
-686.2
 40
7.084
 50
42.158
 51
58.092
  0
ARC
  8
APS_GEOMETRY
 10
448.119
 20
-667.303
 40
15.426
 50
230.711
 51
236.634
  0
ARC
  8
APS_GEOMETRY
 10
440.438
 20
-676.691
 40
3.296
 50
217.875
 51
230.711
  0
ARC
  8
APS_GEOMETRY
 10
439.385
 20
-677.51
 40
1.962
 50
196.928
 51
217.875
  0
ARC
  8
APS_GEOMETRY
 10
440.371
 20
-677.21
 40
2.992
 50
180.0
 51
196.928
  0
ARC
  8
APS_GEOMETRY
 10
439.726
 20
-677.21
 40
2.347
 50
148.791
 51
180.0
  0
ARC
  8
APS_GEOMETRY
 10
440.341
 20
-677.583
 40
3.067
 50
121.569
 51
148.791
  0
ARC
  8
APS_GEOMETRY
 10
441.447
 20
-679.382
 40
5.178
 50
112.806
 51
121.569
  0
ARC
  8
APS_GEOMETRY
 10
444.434
 20
-686.486
 40
12.885
 50
107.254
 51
112.806
  0
ARC
  8
APS_GEOMETRY
 10
446.264
 20
-692.378
 40
19.054
 50
103.487
 51
107.254
  0
ARC
  8
APS_GEOMETRY
 10
450.454
 20
-709.85
 40
37.022
 50
100.784
 51
103.487
  0
ARC
  8
APS_GEOMETRY
 10
451.767
 20
-714.681
 40
42.015
 50
95.643
 51
101.31
  0
ARC
  8
APS_GEOMETRY
 10
451.801
 20
-715.027
 40
42.362
 50
90.0
 51
95.643
  0
ARC
  8
APS_GEOMETRY
 10
492.471
 20
-693.699
 40
21.264
 50
77.257
 51
90.0
  0
ARC
  8
APS_GEOMETRY
 10
492.255
 20
-694.655
 40
22.243
 50
64.799
 51
77.257
  0
ARC
  8
APS_GEOMETRY
 10
510.572
 20
-655.656
 40
20.843
 50
244.885
 51
251.175
  0
ARC
  8
APS_GEOMETRY
 10
504.604
 20
-673.164
 40
2.346
 50
251.175
 51
270.0
  0
ARC
  8
APS_GEOMETRY
 10
504.604
 20
-671.703
 40
3.806
 50
270.0
 51
278.82
  0
ARC
  8
APS_GEOMETRY
 10
502.145
 20
-655.856
 40
19.844
 50
278.82
 51
282.68
  0
ARC
  8
APS_GEOMETRY
 10
507.29
 20
-678.636
 40
3.511
 50
95.906
 51
102.995
  0
ARC
  8
APS_GEOMETRY
 10
507.449
 20
-680.173
 40
5.055
 50
90.0
 51
95.906
  0
ARC
  8
APS_GEOMETRY
 10
507.449
 20
-678.473
 40
3.356
 50
62.447
 51
90.0
  0
ARC
  8
APS_GEOMETRY
 10
506.852
 20
-679.616
 40
4.645
 50
39.094
 51
62.447
  0
ARC
  8
APS_GEOMETRY
 10
500.618
 20
-684.83
 40
12.772
 50
18.435
 51
39.611
  0
ARC
  8
APS_GEOMETRY
 10
496.792
 20
-686.106
 40
16.806
 50
360.0
 51
18.435
  0
ARC
  8
APS_GEOMETRY
 10
505.264
 20
-686.106
 40
8.333
 50
334.877
 51
360.0
  0
ARC
  8
APS_GEOMETRY
 10
507.77
 20
-687.281
 40
5.565
 50
304.007
 51
334.877
  0
ARC
  8
APS_GEOMETRY
 10
507.729
 20
-687.163
 40
5.686
 50
286.39
 51
303.69
  0
ARC
  8
APS_GEOMETRY
 10
507.547
 20
-686.545
 40
6.33
 50
270.0
 51
286.39
  0
ARC
  8
APS_GEOMETRY
 10
507.547
 20
-686.619
 40
6.257
 50
255.155
 51
270.0
  0
ARC
  8
APS_GEOMETRY
 10
506.862
 20
-689.205
 40
3.581
 50
235.491
 51
255.155
  0
ARC
  8
APS_GEOMETRY
 10
507.206
 20
-688.704
 40
4.189
 50
218.48
 51
235.491
  0
ARC
  8
APS_GEOMETRY
 10
512.827
 20
-684.236
 40
11.369
 50
208.179
 51
218.48
  0
ARC
  8
APS_GEOMETRY
 10
455.202
 20
-715.515
 40
54.198
 50
28.56
 51
31.664
  0
ARC
  8
APS_GEOMETRY
 10
490.414
 20
-693.799
 40
12.827
 50
31.664
 51
38.047
  0
ARC
  8
APS_GEOMETRY
 10
492.975
 20
-691.795
 40
9.576
 50
38.047
 51
46.56
  0
ARC
  8
APS_GEOMETRY
 10
491.644
 20
-693.2
 40
11.512
 50
46.56
 51
54.324
  0
ARC
  8
APS_GEOMETRY
 10
490.876
 20
-694.522
 40
13.034
 50
54.968
 51
71.48
  0
ARC
  8
APS_GEOMETRY
 10
491.719
 20
-692.005
 40
10.38
 50
71.48
 51
90.0
  0
ARC
  8
APS_GEOMETRY
 10
491.719
 20
-688.876
 40
7.251
 50
90.0
 51
114.63
  0
ARC
  8
APS_GEOMETRY
 10
491.355
 20
-688.082
 40
6.377
 50
114.63
 51
140.921
  0
ARC
  8
APS_GEOMETRY
 10
492.43
 20
-688.955
 40
7.763
 50
140.921
 51
163.13
  0
ARC
  8
APS_GEOMETRY
 10
497.808
 20
-690.586
 40
13.382
 50
163.13
 51
180.0
  0
ARC
  8
APS_GEOMETRY
 10
504.781
 20
-690.586
 40
20.355
 50
180.0
 51
195.44
  0
ARC
  8
APS_GEOMETRY
 10
503.723
 20
-690.878
 40
19.258
 50
195.44
 51
211.316
  0
ARC
  8
APS_GEOMETRY
 10
498.634
 20
-693.868
 40
13.357
 50
211.708
 51
240.457
  0
ARC
  8
APS_GEOMETRY
 10
498.292
 20
-694.471
 40
12.663
 50
240.457
 51
270.0
  0
ARC
  8
APS_GEOMETRY
 10
498.292
 20
-691.383
 40
15.751
 50
270.0
 51
279.549
  0
ARC
  8
APS_GEOMETRY
 10
498.096
 20
-690.219
 40
16.931
 50
279.549
 51
288.759
  0
ARC
  8
APS_GEOMETRY
 10
498.922
 20
-692.65
 40
14.364
 50
288.759
 51
299.545
  0
ARC
  8
APS_GEOMETRY
 10
502.231
 20
-698.489
 40
7.652
 50
299.545
 51
314.341
  0
ARC
  8
APS_GEOMETRY
 10
512.466
 20
-709.12
 40
7.105
 50
120.141
 51
133.452
  0
ARC
  8
APS_GEOMETRY
 10
509.608
 20
-704.196
 40
1.412
 50
90.0
 51
120.141
  0
ARC
  8
APS_GEOMETRY
 10
509.608
 20
-705.014
 40
2.23
 50
61.952
 51
90.0
  0
ARC
  8
APS_GEOMETRY
 10
509.275
 20
-705.637
 40
2.936
 50
37.569
 51
61.952
  0
ARC
  8
APS_GEOMETRY
 10
508.656
 20
-706.114
 40
3.717
 50
17.665
 51
37.569
  0
ARC
  8
APS_GEOMETRY
 10
507.711
 20
-706.415
 40
4.709
 50
360.0
 51
17.665
  0
ARC
  8
APS_GEOMETRY
 10
505.339
 20
-706.415
 40
7.081
 50
344.932
 51
360.0
  0
ARC
  8
APS_GEOMETRY
 10
499.041
 20
-704.719
 40
13.603
 50
334.075
 51
344.932
  0
ARC
  8
APS_GEOMETRY
 10
498.843
 20
-704.623
 40
13.823
 50
323.374
 51
334.075
  0
ARC
  8
APS_GEOMETRY
 10
502.907
 20
-707.643
 40
8.76
 50
309.92
 51
323.374
  0
ARC
  8
APS_GEOMETRY
 10
506.968
 20
-712.434
 40
2.48
 50
289.026
 51
308.991
  0
ARC
  8
APS_GEOMETRY
 10
502.635
 20
-699.869
 40
15.771
 50
281.143
 51
289.026
  0
ARC
  8
APS_GEOMETRY
 10
507.029
 20
-722.65
 40
7.431
 50
100.437
 51
110.12
  0
ARC
  8
APS_GEOMETRY
 10
512.85
 20
-738.54
 40
24.353
 50
110.12
 51
115.463
  0
ARC
  8
APS_GEOMETRY
 10
492.069
 20
-695.06
 40
23.838
 50
282.94
 51
295.628
  0
ARC
  8
APS_GEOMETRY
 10
492.275
 20
-695.954
 40
22.921
 50
270.0
 51
282.94
  0
ARC
  8
APS_GEOMETRY
 10
492.275
 20
-694.6
 40
24.275
 50
257.307
 51
270.0
  0
ARC
  8
APS_GEOMETRY
 10
493.299
 20
-690.05
 40
28.939
 50
245.686
 51
257.307
  0
ARC
  8
APS_GEOMETRY
 10
490.729
 20
-695.691
 40
22.739
 50
228.801
 51
245.735
  0
ARC
  8
APS_GEOMETRY
 10
490.772
 20
-695.642
 40
22.805
 50
211.891
 51
228.801
  0
ARC
  8
APS_GEOMETRY
 10
492.12
 20
-694.672
 40
24.462
 50
196.728
 51
212.152
  0
ARC
  8
APS_GEOMETRY
 10
488.632
 20
-695.72
 40
20.82
 50
180.0
 51
196.728
  0
ARC
  8
APS_GEOMETRY
 10
489.139
 20
-695.72
 40
21.327
 50
161.184
 51
180.0
  0
ARC
  8
APS_GEOMETRY
 10
490.508
 20
-696.187
 40
22.773
 50
142.98
 51
161.184
  0
ARC
  8
APS_GEOMETRY
 10
491.572
 20
-697.001
 40
24.112
 50
127.824
 51
142.958
  0
ARC
  8
APS_GEOMETRY
 10
493.326
 20
-699.26
 40
26.973
 50
113.52
 51
127.824
  0
ARC
  8
APS_GEOMETRY
 10
492.755
 20
-697.941
 40
25.535
 50
101.927
 51
113.527
  0
ARC
  8
APS_GEOMETRY
 10
492.471
 20
-696.597
 40
24.161
 50
90.0
 51
101.927
  0
ARC
  8
APS_GEOMETRY
 10
537.02
 20
-713.272
 40
40.608
 50
84.71
 51
90.0
  0
ARC
  8
APS_GEOMETRY
 10
537.764
 20
-705.232
 40
32.533
 50
78.799
 51
84.71
  0
ARC
  8
APS_GEOMETRY
 10
542.581
 20
-680.889
 40
7.718
 50
49.783
 51
78.771
  0
ARC
  8
APS_GEOMETRY
 10
545.802
 20
-677.079
 40
2.729
 50
360.0
 51
49.783
  0
ARC
  8
APS_GEOMETRY
 10
545.512
 20
-677.079
 40
3.02
 50
342.759
 51
360.0
  0
ARC
  8
APS_GEOMETRY
 10
547.087
 20
-677.568
 40
1.37
 50
317.045
 51
342.759
  0
ARC
  8
APS_GEOMETRY
 10
546.326
 20
-676.86
 40
2.41
 50
301.817
 51
317.045
  0
ARC
  8
APS_GEOMETRY
 10
535.07
 20
-658.718
 40
23.76
 50
296.98
 51
301.817
  0
ARC
  8
APS_GEOMETRY
 10
547.072
 20
-682.336
 40
2.733
 50
116.565
 51
149.078
  0
ARC
  8
APS_GEOMETRY
 10
550.591
 20
-684.444
 40
6.835
 50
149.078
 51
169.469
  0
ARC
  8
APS_GEOMETRY
 10
558.095
 20
-685.839
 40
14.468
 50
169.469
 51
174.598
  0
ARC
  8
APS_GEOMETRY
 10
596.759
 20
-689.496
 40
53.304
 50
174.598
 51
177.269
  0
ARC
  8
APS_GEOMETRY
 10
630.757
 20
-691.117
 40
87.341
 50
177.269
 51
178.901
  0
ARC
  8
APS_GEOMETRY
 10
736.064
 20
-693.137
 40
192.667
 50
178.901
 51
180.0
  0
ARC
  8
APS_GEOMETRY
 10
950.053
 20
-693.137
 40
406.657
 50
180.0
 51
180.88
  0
ARC
  8
APS_GEOMETRY
 10
699.533
 20
-696.985
 40
156.107
 50
180.88
 51
182.3
  0
ARC
  8
APS_GEOMETRY
 10
626.308
 20
-699.926
 40
82.823
 50
182.3
 51
184.974
  0
ARC
  8
APS_GEOMETRY
 10
556.487
 20
-706.002
 40
12.738
 50
184.974
 51
191.793
  0
ARC
  8
APS_GEOMETRY
 10
548.377
 20
-707.554
 40
4.484
 50
193.57
 51
205.787
  0
ARC
  8
APS_GEOMETRY
 10
546.36
 20
-708.528
 40
2.244
 50
205.787
 51
223.091
  0
ARC
  8
APS_GEOMETRY
 10
546.871
 20
-708.05
 40
2.944
 50
223.091
 51
236.441
  0
ARC
  8
APS_GEOMETRY
 10
551.155
 20
-701.592
 40
10.693
 50
236.441
 51
243.435
  0
ARC
  8
APS_GEOMETRY
 10
544.597
 20
-715.063
 40
4.291
 50
37.185
 51
65.556
  0
ARC
  8
APS_GEOMETRY
 10
545.996
 20
-714.002
 40
2.535
 50
360.0
 51
37.185
  0
ARC
  8
APS_GEOMETRY
 10
545.919
 20
-714.002
 40
2.612
 50
312.039
 51
360.0
  0
ARC
  8
APS_GEOMETRY
 10
542.808
 20
-710.551
 40
7.258
 50
283.815
 51
312.039
  0
ARC
  8
APS_GEOMETRY
 10
537.668
 20
-689.246
 40
29.174
 50
279.273
 51
283.627
  0
ARC
  8
APS_GEOMETRY
 10
535.613
 20
-676.661
 40
41.926
 50
275.641
 51
279.273
  0
ARC
  8
APS_GEOMETRY
 10
534.828
 20
-668.707
 40
49.919
 50
272.588
 51
275.641
  0
ARC
  8
APS_GEOMETRY
 10
533.945
 20
-649.19
 40
69.456
 50
270.0
 51
272.588
  0
ARC
  8
APS_GEOMETRY
 10
533.945
 20
-676.752
 40
41.894
 50
262.774
 51
270.0
  0
ARC
  8
APS_GEOMETRY
 10
530.169
 20
-706.539
 40
11.868
 50
249.175
 51
262.774
  0
ARC
  8
APS_GEOMETRY
 10
527.796
 20
-712.777
 40
5.194
 50
221.23
 51
249.175
  0
ARC
  8
APS_GEOMETRY
 10
525.727
 20
-714.59
 40
2.443
 50
180.0
 51
221.23
  0
ARC
  8
APS_GEOMETRY
 10
525.325
 20
-714.59
 40
2.041
 50
142.696
 51
180.0
  0
ARC
  8
APS_GEOMETRY
 10
528.547
 20
-717.045
 40
6.091
 50
121.357
 51
142.696
  0
ARC
  8
APS_GEOMETRY
 10
523.104
 20
-708.13
 40
4.354
 50
301.477
 51
324.728
  0
ARC
  8
APS_GEOMETRY
 10
523.684
 20
-708.54
 40
3.643
 50
324.728
 51
350.181
  0
ARC
  8
APS_GEOMETRY
 10
505.443
 20
-705.523
 40
22.132
 50
350.538
 51
355.423
  0
ARC
  8
APS_GEOMETRY
 10
430.491
 20
-699.523
 40
97.324
 50
355.423
 51
357.752
  0
ARC
  8
APS_GEOMETRY
 10
360.898
 20
-696.791
 40
166.971
 50
357.752
 51
359.111
  0
ARC
  8
APS_GEOMETRY
 10
138.151
 20
-693.333
 40
389.744
 50
359.111
 51
0.0
  0
ARC
  8
APS_GEOMETRY
 10
392.672
 20
-693.333
 40
135.223
 50
0.0
 51
1.773
  0
ARC
  8
APS_GEOMETRY
 10
472.032
 20
-690.877
 40
55.825
 50
1.773
 51
4.532
  0
ARC
  8
APS_GEOMETRY
 10
496.153
 20
-688.965
 40
31.629
 50
4.532
 51
9.384
  0
ARC
  8
APS_GEOMETRY
 10
520.646
 20
-684.917
 40
6.803
 50
9.384
 51
19.855
  0
ARC
  8
APS_GEOMETRY
 10
523.888
 20
-683.684
 40
3.336
 50
18.853
 51
42.158
  0
ARC
  8
APS_GEOMETRY
 10
521.11
 20
-686.2
 40
7.084
 50
42.158
 51
58.092
  0
ARC
  8
APS_GEOMETRY
 10
533.338
 20
-667.303
 40
15.426
 50
230.711
 51
236.634
  0
ARC
  8
APS_GEOMETRY
 10
525.657
 20
-676.691
 40
3.296
 50
217.875
 51
230.711
  0
ARC
  8
APS_GEOMETRY
 10
524.604
 20
-677.51
 40
1.962
 50
196.928
 51
217.875
  0
ARC
  8
APS_GEOMETRY
 10
525.59
 20
-677.21
 40
2.992
 50
180.0
 51
196.928
  0
ARC
  8
APS_GEOMETRY
 10
524.945
 20
-677.21
 40
2.347
 50
148.791
 51
180.0
  0
ARC
  8
APS_GEOMETRY
 10
525.56
 20
-677.583
 40
3.067
 50
121.569
 51
148.791
  0
ARC
  8
APS_GEOMETRY
 10
526.665
 20
-679.382
 40
5.178
 50
112.806
 51
121.569
  0
ARC
  8
APS_GEOMETRY
 10
529.653
 20
-686.486
 40
12.885
 50
107.254
 51
112.806
  0
ARC
  8
APS_GEOMETRY
 10
531.482
 20
-692.378
 40
19.054
 50
103.487
 51
107.254
  0
ARC
  8
APS_GEOMETRY
 10
535.673
 20
-709.85
 40
37.022
 50
100.784
 51
103.487
  0
ARC
  8
APS_GEOMETRY
 10
536.985
 20
-714.681
 40
42.015
 50
95.643
 51
101.31
  0
ARC
  8
APS_GEOMETRY
 10
537.02
 20
-715.027
 40
42.362
 50
90.0
 51
95.643
  0
LINE
  8
APS_GEOMETRY
 10
606.168
 11
606.168
 20
-702.588
 21
-685.386
  0
ARC
  8
APS_GEOMETRY
 10
566.447
 20
-685.386
 40
39.721
 50
0.0
 51
2.404
  0
ARC
  8
APS_GEOMETRY
 10
589.964
 20
-684.399
 40
16.183
 50
2.404
 51
6.17
  0
ARC
  8
APS_GEOMETRY
 10
597.013
 20
-683.637
 40
9.093
 50
6.17
 51
12.824
  0
ARC
  8
APS_GEOMETRY
 10
603.912
 20
-682.066
 40
2.017
 50
12.824
 51
26.98
  0
ARC
  8
APS_GEOMETRY
 10
604.235
 20
-681.902
 40
1.655
 50
26.98
 51
59.65
  0
ARC
  8
APS_GEOMETRY
 10
601.197
 20
-687.091
 40
7.668
 50
59.65
 51
74.667
  0
ARC
  8
APS_GEOMETRY
 10
604.699
 20
-674.592
 40
5.313
 50
225.0
 51
253.887
  0
ARC
  8
APS_GEOMETRY
 10
602.538
 20
-676.752
 40
2.257
 50
180.0
 51
225.0
  0
ARC
  8
APS_GEOMETRY
 10
602.953
 20
-676.752
 40
2.672
 50
151.157
 51
180.0
  0
ARC
  8
APS_GEOMETRY
 10
602.947
 20
-676.749
 40
2.665
 50
122.276
 51
151.157
  0
ARC
  8
APS_GEOMETRY
 10
603.711
 20
-677.959
 40
4.096
 50
102.308
 51
122.276
  0
ARC
  8
APS_GEOMETRY
 10
605.121
 20
-684.423
 40
10.712
 50
90.0
 51
102.308
  0
ARC
  8
APS_GEOMETRY
 10
605.121
 20
-696.877
 40
23.166
 50
88.989
 51
90.0
  0
ARC
  8
APS_GEOMETRY
 10
603.174
 20
-807.222
 40
133.528
 50
88.568
 51
88.989
  0
ARC
  8
APS_GEOMETRY
 10
600.424
 20
-917.226
 40
243.567
 50
88.337
 51
88.568
  0
ARC
  8
APS_GEOMETRY
 10
589.766
 20
-1284.342
 40
610.838
 50
88.191
 51
88.337
  0
LINE
  8
APS_GEOMETRY
 10
609.046
 11
610.975
 20
-673.809
 21
-673.809
  0
ARC
  8
APS_GEOMETRY
 10
604.494
 20
402.14
 40
1075.969
 50
270.345
 51
270.49
  0
ARC
  8
APS_GEOMETRY
 10
610.533
 20
-304.47
 40
369.332
 50
270.49
 51
270.736
  0
ARC
  8
APS_GEOMETRY
 10
613.012
 20
-497.342
 40
176.445
 50
270.736
 51
271.253
  0
ARC
  8
APS_GEOMETRY
 10
616.538
 20
-658.558
 40
15.19
 50
271.253
 51
273.013
  0
ARC
  8
APS_GEOMETRY
 10
616.391
 20
-655.771
 40
17.982
 50
273.013
 51
274.5
  0
ARC
  8
APS_GEOMETRY
 10
599.735
 20
-444.117
 40
230.289
 50
274.5
 51
274.915
  0
LINE
  8
APS_GEOMETRY
 10
619.466
 11
621.429
 20
-673.56
 21
-673.387
  0
LINE
  8
APS_GEOMETRY
 10
621.429
 11
623.991
 20
-673.387
 21
-673.155
  0
ARC
  8
APS_GEOMETRY
 10
628.204
 20
-713.879
 40
40.941
 50
93.24
 51
95.906
  0
ARC
  8
APS_GEOMETRY
 10
627.458
 20
-700.695
 40
27.736
 50
90.0
 51
93.24
  0
ARC
  8
APS_GEOMETRY
 10
627.458
 20
-696.512
 40
23.553
 50
77.12
 51
90.0
  0
ARC
  8
APS_GEOMETRY
 10
628.699
 20
-691.086
 40
17.987
 50
62.371
 51
77.12
  0
ARC
  8
APS_GEOMETRY
 10
630.8
 20
-687.146
 40
13.522
 50
31.215
 51
62.517
  0
ARC
  8
APS_GEOMETRY
 10
630.736
 20
-687.185
 40
13.597
 50
360.0
 51
31.215
  0
ARC
  8
APS_GEOMETRY
 10
630.371
 20
-687.185
 40
13.962
 50
334.496
 51
360.0
  0
ARC
  8
APS_GEOMETRY
 10
631.058
 20
-687.512
 40
13.201
 50
308.254
 51
334.496
  0
ARC
  8
APS_GEOMETRY
 10
628.958
 20
-684.746
 40
16.674
 50
287.855
 51
308.034
  0
ARC
  8
APS_GEOMETRY
 10
627.556
 20
-680.393
 40
21.247
 50
270.0
 51
287.855
  0
ARC
  8
APS_GEOMETRY
 10
627.556
 20
-669.443
 40
32.197
 50
266.918
 51
270.0
  0
ARC
  8
APS_GEOMETRY
 10
629.51
 20
-633.146
 40
68.546
 50
264.806
 51
266.918
  0
ARC
  8
APS_GEOMETRY
 10
616.438
 20
-795.255
 40
94.095
 50
85.815
 51
86.634
  0
ARC
  8
APS_GEOMETRY
 10
621.637
 20
-706.876
 40
5.563
 50
86.634
 51
90.0
  0
ARC
  8
APS_GEOMETRY
 10
621.637
 20
-702.134
 40
0.821
 50
90.0
 51
139.686
  0
ARC
  8
APS_GEOMETRY
 10
621.941
 20
-702.392
 40
1.22
 50
139.686
 51
180.0
  0
LINE
  8
APS_GEOMETRY
 10
620.721
 11
620.721
 20
-702.392
 21
-702.588
  0
LINE
  8
APS_GEOMETRY
 10
620.721
 11
620.95
 20
-702.588
 21
-707.952
  0
ARC
  8
APS_GEOMETRY
 10
628.7
 20
-707.629
 40
7.757
 50
182.386
 51
193.753
  0
ARC
  8
APS_GEOMETRY
 10
623.702
 20
-708.852
 40
2.612
 50
193.753
 51
213.408
  0
ARC
  8
APS_GEOMETRY
 10
623.758
 20
-708.815
 40
2.679
 50
213.408
 51
232.628
  0
ARC
  8
APS_GEOMETRY
 10
628.269
 20
-702.909
 40
10.11
 50
232.628
 51
242.488
  0
ARC
  8
APS_GEOMETRY
 10
620.746
 20
-717.174
 40
6.017
 50
40.539
 51
61.699
  0
ARC
  8
APS_GEOMETRY
 10
624.034
 20
-714.361
 40
1.69
 50
360.0
 51
40.539
  0
ARC
  8
APS_GEOMETRY
 10
623.455
 20
-714.361
 40
2.269
 50
315.297
 51
360.0
  0
ARC
  8
APS_GEOMETRY
 10
620.386
 20
-711.324
 40
6.588
 50
289.502
 51
315.297
  0
ARC
  8
APS_GEOMETRY
 10
618.136
 20
-704.972
 40
13.326
 50
282.372
 51
289.502
  0
ARC
  8
APS_GEOMETRY
 10
615.774
 20
-694.201
 40
24.353
 50
277.099
 51
282.372
  0
ARC
  8
APS_GEOMETRY
 10
614.802
 20
-686.402
 40
32.213
 50
273.104
 51
277.099
  0
ARC
  8
APS_GEOMETRY
 10
613.657
 20
-665.283
 40
53.362
 50
270.0
 51
273.104
  0
ARC
  8
APS_GEOMETRY
 10
613.657
 20
-665.923
 40
52.723
 50
263.473
 51
270.0
  0
ARC
  8
APS_GEOMETRY
 10
609.324
 20
-703.79
 40
14.609
 50
251.056
 51
263.473
  0
ARC
  8
APS_GEOMETRY
 10
606.542
 20
-711.895
 40
6.039
 50
224.161
 51
251.056
  0
ARC
  8
APS_GEOMETRY
 10
603.868
 20
-714.492
 40
2.311
 50
180.0
 51
224.161
  0
ARC
  8
APS_GEOMETRY
 10
604.348
 20
-714.492
 40
2.791
 50
160.821
 51
180.0
  0
ARC
  8
APS_GEOMETRY
 10
603.177
 20
-714.085
 40
1.552
 50
135.0
 51
160.821
  0
ARC
  8
APS_GEOMETRY
 10
604.284
 20
-715.192
 40
3.117
 50
121.522
 51
135.0
  0
ARC
  8
APS_GEOMETRY
 10
616.769
 20
-735.548
 40
26.996
 50
116.952
 51
121.522
  0
ARC
  8
APS_GEOMETRY
 10
603.136
 20
-708.837
 40
2.993
 50
297.824
 51
321.605
  0
ARC
  8
APS_GEOMETRY
 10
603.825
 20
-709.383
 40
2.113
 50
321.605
 51
349.992
  0
ARC
  8
APS_GEOMETRY
 10
600.626
 20
-708.818
 40
5.362
 50
349.992
 51
356.014
  0
ARC
  8
APS_GEOMETRY
 10
551.963
 20
-705.427
 40
54.143
 50
356.014
 51
357.908
  0
ARC
  8
APS_GEOMETRY
 10
495.159
 20
-703.352
 40
110.985
 50
357.908
 51
358.833
  0
ARC
  8
APS_GEOMETRY
 10
289.762
 20
-699.168
 40
316.424
 50
358.833
 51
359.381
  0
LINE
  8
APS_GEOMETRY
 10
620.95
 11
620.95
 20
-681.233
 21
-692.352
  0
ARC
  8
APS_GEOMETRY
 10
624.324
 20
-692.352
 40
3.374
 50
180.0
 51
199.885
  0
ARC
  8
APS_GEOMETRY
 10
621.799
 20
-693.265
 40
0.689
 50
199.885
 51
244.799
  0
ARC
  8
APS_GEOMETRY
 10
623.251
 20
-690.275
 40
4.013
 50
244.231
 51
258.996
  0
ARC
  8
APS_GEOMETRY
 10
623.86
 20
-687.138
 40
7.209
 50
258.996
 51
270.0
  0
ARC
  8
APS_GEOMETRY
 10
623.86
 20
-687.896
 40
6.45
 50
270.0
 51
288.435
  0
ARC
  8
APS_GEOMETRY
 10
624.323
 20
-689.285
 40
4.987
 50
288.435
 51
309.428
  0
ARC
  8
APS_GEOMETRY
 10
624.492
 20
-689.459
 40
4.745
 50
309.193
 51
339.939
  0
ARC
  8
APS_GEOMETRY
 10
618.622
 20
-687.316
 40
10.994
 50
339.939
 51
0.0
  0
ARC
  8
APS_GEOMETRY
 10
619.268
 20
-687.316
 40
10.348
 50
0.0
 51
22.011
  0
ARC
  8
APS_GEOMETRY
 10
623.853
 20
-685.462
 40
5.403
 50
22.011
 51
52.651
  0
ARC
  8
APS_GEOMETRY
 10
623.782
 20
-685.511
 40
5.485
 50
52.374
 51
72.309
  0
ARC
  8
APS_GEOMETRY
 10
623.337
 20
-686.907
 40
6.95
 50
72.309
 51
90.0
  0
ARC
  8
APS_GEOMETRY
 10
623.337
 20
-684.009
 40
4.052
 50
90.0
 51
118.113
  0
ARC
  8
APS_GEOMETRY
 10
621.854
 20
-681.233
 40
0.904
 50
118.113
 51
180.0
  0
ARC
  8
APS_GEOMETRY
 10
673.687
 20
-698.217
 40
25.782
 50
71.91
 51
90.0
  0
ARC
  8
APS_GEOMETRY
 10
674.686
 20
-695.16
 40
22.566
 50
52.561
 51
71.91
  0
ARC
  8
APS_GEOMETRY
 10
674.424
 20
-695.237
 40
22.786
 50
38.846
 51
52.156
  0
ARC
  8
APS_GEOMETRY
 10
670.852
 20
-698.113
 40
27.372
 50
26.707
 51
38.846
  0
ARC
  8
APS_GEOMETRY
 10
671.559
 20
-697.535
 40
26.482
 50
13.868
 51
26.278
  0
ARC
  8
APS_GEOMETRY
 10
676.659
 20
-696.276
 40
21.229
 50
360.0
 51
13.868
  0
ARC
  8
APS_GEOMETRY
 10
676.989
 20
-696.276
 40
20.899
 50
339.712
 51
360.0
  0
ARC
  8
APS_GEOMETRY
 10
675.813
 20
-695.842
 40
22.153
 50
320.013
 51
339.712
  0
ARC
  8
APS_GEOMETRY
 10
675.618
 20
-695.734
 40
22.372
 50
303.344
 51
320.123
  0
ARC
  8
APS_GEOMETRY
 10
673.322
 20
-692.245
 40
26.548
 50
287.949
 51
303.344
  0
ARC
  8
APS_GEOMETRY
 10
672.568
 20
-689.63
 40
29.269
 50
279.039
 51
287.776
  0
ARC
  8
APS_GEOMETRY
 10
672.87
 20
-691.529
 40
27.346
 50
270.0
 51
279.039
  0
ARC
  8
APS_GEOMETRY
 10
672.87
 20
-692.864
 40
26.011
 50
257.728
 51
270.0
  0
ARC
  8
APS_GEOMETRY
 10
672.911
 20
-692.676
 40
26.203
 50
245.501
 51
257.728
  0
ARC
  8
APS_GEOMETRY
 10
671.438
 20
-695.898
 40
22.66
 50
228.665
 51
245.511
  0
ARC
  8
APS_GEOMETRY
 10
670.948
 20
-696.455
 40
21.918
 50
211.535
 51
228.665
  0
ARC
  8
APS_GEOMETRY
 10
671.59
 20
-695.984
 40
22.712
 50
195.642
 51
211.701
  0
ARC
  8
APS_GEOMETRY
 10
672.764
 20
-695.655
 40
23.931
 50
180.0
 51
195.642
  0
ARC
  8
APS_GEOMETRY
 10
673.016
 20
-695.655
 40
24.183
 50
162.181
 51
180.0
  0
ARC
  8
APS_GEOMETRY
 10
670.809
 20
-694.946
 40
21.865
 50
143.434
 51
162.181
  0
ARC
  8
APS_GEOMETRY
 10
670.512
 20
-694.708
 40
21.485
 50
126.384
 51
143.471
  0
ARC
  8
APS_GEOMETRY
 10
672.546
 20
-697.469
 40
24.914
 50
110.525
 51
126.384
  0
ARC
  8
APS_GEOMETRY
 10
672.446
 20
-696.719
 40
24.177
 50
99.77
 51
110.925
  0
ARC
  8
APS_GEOMETRY
 10
673.687
 20
-703.931
 40
31.496
 50
90.0
 51
99.77
  0
ARC
  8
APS_GEOMETRY
 10
670.581
 20
-686.629
 40
4.807
 50
90.0
 51
119.604
  0
ARC
  8
APS_GEOMETRY
 10
671.002
 20
-687.37
 40
5.659
 50
119.604
 51
146.842
  0
ARC
  8
APS_GEOMETRY
 10
671.848
 20
-688.063
 40
6.748
 50
145.84
 51
164.055
  0
ARC
  8
APS_GEOMETRY
 10
673.809
 20
-688.624
 40
8.788
 50
164.055
 51
180.0
  0
ARC
  8
APS_GEOMETRY
 10
686.074
 20
-688.624
 40
21.053
 50
180.0
 51
189.977
  0
ARC
  8
APS_GEOMETRY
 10
704.725
 20
-685.343
 40
39.991
 50
189.977
 51
197.211
  0
ARC
  8
APS_GEOMETRY
 10
708.805
 20
-684.079
 40
44.261
 50
197.211
 51
203.76
  0
ARC
  8
APS_GEOMETRY
 10
698.642
 20
-688.553
 40
33.157
 50
203.76
 51
211.329
  0
ARC
  8
APS_GEOMETRY
 10
677.774
 20
-701.077
 40
8.821
 50
212.32
 51
224.441
  0
ARC
  8
APS_GEOMETRY
 10
676.918
 20
-701.916
 40
7.623
 50
224.441
 51
237.484
  0
ARC
  8
APS_GEOMETRY
 10
676.366
 20
-702.783
 40
6.595
 50
237.484
 51
252.416
  0
ARC
  8
APS_GEOMETRY
 10
675.813
 20
-704.526
 40
4.766
 50
252.416
 51
270.0
  0
ARC
  8
APS_GEOMETRY
 10
675.813
 20
-703.961
 40
5.331
 50
270.0
 51
294.953
  0
ARC
  8
APS_GEOMETRY
 10
675.963
 20
-704.282
 40
4.977
 50
294.953
 51
320.793
  0
ARC
  8
APS_GEOMETRY
 10
675.162
 20
-703.629
 40
6.011
 50
320.793
 51
342.777
  0
ARC
  8
APS_GEOMETRY
 10
671.594
 20
-702.523
 40
9.746
 50
342.777
 51
0.0
  0
ARC
  8
APS_GEOMETRY
 10
654.833
 20
-702.523
 40
26.507
 50
0.0
 51
8.499
  0
ARC
  8
APS_GEOMETRY
 10
643.166
 20
-704.266
 40
38.304
 50
8.499
 51
15.566
  0
ARC
  8
APS_GEOMETRY
 10
644.568
 20
-703.875
 40
36.848
 50
15.566
 51
22.909
  0
ARC
  8
APS_GEOMETRY
 10
656.632
 20
-698.777
 40
23.751
 50
22.909
 51
32.057
  0
ARC
  8
APS_GEOMETRY
 10
666.108
 20
-692.808
 40
12.552
 50
31.921
 51
42.51
  0
ARC
  8
APS_GEOMETRY
 10
668.71
 20
-690.423
 40
9.022
 50
42.51
 51
55.008
  0
ARC
  8
APS_GEOMETRY
 10
669.589
 20
-689.167
 40
7.489
 50
55.008
 51
69.88
  0
ARC
  8
APS_GEOMETRY
 10
670.377
 20
-687.016
 40
5.198
 50
69.88
 51
87.754
  0
ARC
  8
APS_GEOMETRY
 10
724.201
 20
-701.64
 40
2.42
 50
90.0
 51
115.837
  0
ARC
  8
APS_GEOMETRY
 10
723.606
 20
-700.409
 40
1.053
 50
115.837
 51
155.462
  0
ARC
  8
APS_GEOMETRY
 10
724.301
 20
-700.727
 40
1.817
 50
155.462
 51
168.366
  0
ARC
  8
APS_GEOMETRY
 10
730.647
 20
-702.033
 40
8.296
 50
168.366
 51
174.395
  0
ARC
  8
APS_GEOMETRY
 10
737.042
 20
-702.661
 40
14.722
 50
174.395
 51
177.813
  0
ARC
  8
APS_GEOMETRY
 10
758.271
 20
-703.471
 40
35.966
 50
177.813
 51
180.0
  0
ARC
  8
APS_GEOMETRY
 10
773.639
 20
-703.471
 40
51.335
 50
180.0
 51
184.62
  0
ARC
  8
APS_GEOMETRY
 10
739.219
 20
-706.253
 40
16.803
 50
184.62
 51
192.7
  0
ARC
  8
APS_GEOMETRY
 10
725.949
 20
-709.166
 40
3.218
 50
194.036
 51
205.821
  0
ARC
  8
APS_GEOMETRY
 10
724.544
 20
-709.846
 40
1.656
 50
205.821
 51
222.274
  0
ARC
  8
APS_GEOMETRY
 10
724.974
 20
-709.455
 40
2.238
 50
222.274
 51
234.605
  0
ARC
  8
APS_GEOMETRY
 10
729.835
 20
-702.614
 40
10.63
 50
234.605
 51
240.255
  0
ARC
  8
APS_GEOMETRY
 10
722.446
 20
-715.689
 40
4.389
 50
34.592
 51
61.189
  0
ARC
  8
APS_GEOMETRY
 10
723.896
 20
-714.688
 40
2.627
 50
360.0
 51
34.592
  0
ARC
  8
APS_GEOMETRY
 10
723.984
 20
-714.688
 40
2.539
 50
318.231
 51
360.0
  0
ARC
  8
APS_GEOMETRY
 10
722.286
 20
-713.172
 40
4.816
 50
288.227
 51
318.231
  0
ARC
  8
APS_GEOMETRY
 10
720.525
 20
-707.824
 40
10.446
 50
280.377
 51
288.227
  0
ARC
  8
APS_GEOMETRY
 10
717.455
 20
-691.06
 40
27.489
 50
275.541
 51
280.377
  0
ARC
  8
APS_GEOMETRY
 10
716.132
 20
-677.423
 40
41.19
 50
272.304
 51
275.541
  0
ARC
  8
APS_GEOMETRY
 10
714.521
 20
-637.387
 40
81.259
 50
270.0
 51
272.304
  0
ARC
  8
APS_GEOMETRY
 10
714.521
 20
-670.846
 40
47.8
 50
262.811
 51
270.0
  0
ARC
  8
APS_GEOMETRY
 10
710.232
 20
-704.852
 40
13.524
 50
249.274
 51
262.811
  0
ARC
  8
APS_GEOMETRY
 10
707.534
 20
-711.982
 40
5.901
 50
221.379
 51
249.274
  0
ARC
  8
APS_GEOMETRY
 10
705.167
 20
-714.067
 40
2.747
 50
180.0
 51
221.379
  0
ARC
  8
APS_GEOMETRY
 10
705.149
 20
-714.067
 40
2.728
 50
164.055
 51
180.0
  0
ARC
  8
APS_GEOMETRY
 10
704.012
 20
-713.742
 40
1.546
 50
142.815
 51
164.055
  0
ARC
  8
APS_GEOMETRY
 10
704.728
 20
-714.285
 40
2.444
 50
129.007
 51
142.815
  0
ARC
  8
APS_GEOMETRY
 10
713.52
 20
-725.139
 40
16.412
 50
123.69
 51
129.007
  0
ARC
  8
APS_GEOMETRY
 10
701.043
 20
-706.367
 40
6.128
 50
303.389
 51
319.022
  0
ARC
  8
APS_GEOMETRY
 10
702.702
 20
-707.807
 40
3.932
 50
319.022
 51
338.575
  0
ARC
  8
APS_GEOMETRY
 10
700.482
 20
-706.936
 40
6.316
 50
338.575
 51
351.049
  0
ARC
  8
APS_GEOMETRY
 10
673.676
 20
-702.714
 40
33.452
 50
351.049
 51
356.46
  0
ARC
  8
APS_GEOMETRY
 10
682.512
 20
-703.05
 40
24.613
 50
355.972
 51
358.68
  0
ARC
  8
APS_GEOMETRY
 10
392.321
 20
-696.364
 40
314.881
 50
358.68
 51
359.437
  0
LINE
  8
APS_GEOMETRY
 10
707.187
 11
707.218
 20
-699.457
 21
-694.545
  0
LINE
  8
APS_GEOMETRY
 10
707.218
 11
707.228
 20
-694.545
 21
-688.133
  0
ARC
  8
APS_GEOMETRY
 10
631.419
 20
-688.133
 40
75.809
 50
0.0
 51
1.717
  0
ARC
  8
APS_GEOMETRY
 10
671.987
 20
-686.917
 40
35.223
 50
1.717
 51
4.236
  0
ARC
  8
APS_GEOMETRY
 10
685.217
 20
-685.937
 40
21.957
 50
4.236
 51
8.269
  0
ARC
  8
APS_GEOMETRY
 10
700.44
 20
-683.725
 40
6.573
 50
8.269
 51
15.642
  0
ARC
  8
APS_GEOMETRY
 10
703.06
 20
-682.991
 40
3.853
 50
15.642
 51
39.417
  0
ARC
  8
APS_GEOMETRY
 10
703.119
 20
-682.943
 40
3.776
 50
39.417
 51
63.435
  0
ARC
  8
APS_GEOMETRY
 10
709.921
 20
-668.853
 40
11.869
 50
236.874
 51
244.486
  0
ARC
  8
APS_GEOMETRY
 10
704.861
 20
-676.607
 40
2.611
 50
220.601
 51
236.874
  0
ARC
  8
APS_GEOMETRY
 10
704.281
 20
-677.104
 40
1.847
 50
198.246
 51
220.601
  0
ARC
  8
APS_GEOMETRY
 10
705.149
 20
-676.818
 40
2.761
 50
180.0
 51
198.246
  0
ARC
  8
APS_GEOMETRY
 10
705.136
 20
-676.818
 40
2.748
 50
156.161
 51
180.0
  0
ARC
  8
APS_GEOMETRY
 10
705.519
 20
-676.987
 40
3.167
 50
133.977
 51
156.161
  0
ARC
  8
APS_GEOMETRY
 10
706.282
 20
-677.778
 40
4.266
 50
116.996
 51
133.977
  0
ARC
  8
APS_GEOMETRY
 10
707.799
 20
-680.756
 40
7.608
 50
104.3
 51
116.996
  0
ARC
  8
APS_GEOMETRY
 10
708.191
 20
-682.262
 40
9.164
 50
95.326
 51
104.349
  0
ARC
  8
APS_GEOMETRY
 10
709.779
 20
-699.296
 40
26.272
 50
90.0
 51
95.326
  0
ARC
  8
APS_GEOMETRY
 10
709.779
 20
-686.037
 40
13.013
 50
87.553
 51
90.0
  0
ARC
  8
APS_GEOMETRY
 10
707.01
 20
-750.825
 40
77.86
 50
86.553
 51
87.553
  0
ARC
  8
APS_GEOMETRY
 10
703.074
 20
-816.172
 40
143.325
 50
86.009
 51
86.553
  0
ARC
  8
APS_GEOMETRY
 10
687.766
 20
-1035.585
 40
363.271
 50
85.668
 51
86.009
  0
ARC
  8
APS_GEOMETRY
 10
716.414
 20
-658.274
 40
15.125
 50
265.426
 51
268.531
  0
ARC
  8
APS_GEOMETRY
 10
717.759
 20
-605.831
 40
67.586
 50
268.531
 51
270.0
  0
ARC
  8
APS_GEOMETRY
 10
717.759
 20
-621.906
 40
51.511
 50
270.0
 51
271.637
  0
ARC
  8
APS_GEOMETRY
 10
716.608
 20
-581.622
 40
91.812
 50
271.637
 51
272.862
  0
ARC
  8
APS_GEOMETRY
 10
715.286
 20
-555.192
 40
118.274
 50
272.862
 51
273.814
  0
ARC
  8
APS_GEOMETRY
 10
710.813
 20
-488.088
 40
185.527
 50
273.814
 51
274.574
  0
ARC
  8
APS_GEOMETRY
 10
738.875
 20
-853.079
 40
180.543
 50
93.72
 51
94.214
  0
ARC
  8
APS_GEOMETRY
 10
732.886
 20
-760.961
 40
88.23
 50
93.013
 51
93.72
  0
ARC
  8
APS_GEOMETRY
 10
731.244
 20
-729.765
 40
56.991
 50
91.918
 51
93.013
  0
ARC
  8
APS_GEOMETRY
 10
729.957
 20
-691.35
 40
18.554
 50
90.0
 51
91.918
  0
ARC
  8
APS_GEOMETRY
 10
729.957
 20
-696.904
 40
24.109
 50
73.82
 51
90.0
  0
ARC
  8
APS_GEOMETRY
 10
732.333
 20
-688.714
 40
15.581
 50
53.658
 51
73.82
  0
ARC
  8
APS_GEOMETRY
 10
735.713
 20
-684.095
 40
9.857
 50
26.03
 51
53.569
  0
ARC
  8
APS_GEOMETRY
 10
734.676
 20
-684.601
 40
11.012
 50
360.0
 51
26.03
  0
ARC
  8
APS_GEOMETRY
 10
734.244
 20
-684.601
 40
11.443
 50
345.282
 51
360.0
  0
ARC
  8
APS_GEOMETRY
 10
735.345
 20
-684.89
 40
10.305
 50
329.767
 51
345.282
  0
ARC
  8
APS_GEOMETRY
 10
735.969
 20
-685.254
 40
9.583
 50
313.168
 51
329.767
  0
ARC
  8
APS_GEOMETRY
 10
736.2
 20
-685.5
 40
9.246
 50
296.267
 51
313.168
  0
ARC
  8
APS_GEOMETRY
 10
741.463
 20
-696.134
 40
2.62
 50
116.565
 51
139.899
  0
ARC
  8
APS_GEOMETRY
 10
740.156
 20
-695.034
 40
0.911
 50
139.899
 51
180.0
  0
ARC
  8
APS_GEOMETRY
 10
740.258
 20
-695.034
 40
1.013
 50
180.0
 51
226.193
  0
ARC
  8
APS_GEOMETRY
 10
742.129
 20
-693.083
 40
3.715
 50
226.193
 51
249.829
  0
ARC
  8
APS_GEOMETRY
 10
736.767
 20
-707.844
 40
11.989
 50
53.249
 51
70.105
  0
ARC
  8
APS_GEOMETRY
 10
739.203
 20
-704.583
 40
7.919
 50
32.471
 51
53.249
  0
ARC
  8
APS_GEOMETRY
 10
738.068
 20
-705.306
 40
9.264
 50
23.305
 51
32.471
  0
ARC
  8
APS_GEOMETRY
 10
731.058
 20
-708.325
 40
16.897
 50
16.521
 51
23.305
  0
ARC
  8
APS_GEOMETRY
 10
725.592
 20
-709.946
 40
22.598
 50
11.429
 51
16.521
  0
ARC
  8
APS_GEOMETRY
 10
710.102
 20
-713.078
 40
38.401
 50
7.524
 51
11.429
  0
ARC
  8
APS_GEOMETRY
 10
761.43
 20
-706.242
 40
13.38
 50
187.765
 51
196.914
  0
ARC
  8
APS_GEOMETRY
 10
750.487
 20
-709.57
 40
1.942
 50
196.914
 51
221.082
  0
ARC
  8
APS_GEOMETRY
 10
750.529
 20
-709.533
 40
1.997
 50
221.082
 51
244.607
  0
ARC
  8
APS_GEOMETRY
 10
755.202
 20
-699.688
 40
12.896
 50
244.607
 51
253.811
  0
ARC
  8
APS_GEOMETRY
 10
751.093
 20
-713.698
 40
1.705
 50
51.45
 51
72.474
  0
ARC
  8
APS_GEOMETRY
 10
750.672
 20
-714.227
 40
2.382
 50
33.69
 51
51.45
  0
ARC
  8
APS_GEOMETRY
 10
750.573
 20
-714.293
 40
2.5
 50
16.639
 51
33.69
  0
ARC
  8
APS_GEOMETRY
 10
750.454
 20
-714.329
 40
2.625
 50
360.0
 51
16.639
  0
ARC
  8
APS_GEOMETRY
 10
750.417
 20
-714.329
 40
2.662
 50
338.993
 51
360.0
  0
ARC
  8
APS_GEOMETRY
 10
748.792
 20
-713.705
 40
4.402
 50
322.696
 51
338.993
  0
ARC
  8
APS_GEOMETRY
 10
748.186
 20
-713.243
 40
5.164
 50
308.603
 51
322.696
  0
ARC
  8
APS_GEOMETRY
 10
747.77
 20
-712.721
 40
5.831
 50
295.346
 51
308.603
  0
ARC
  8
APS_GEOMETRY
 10
745.578
 20
-707.895
 40
11.131
 50
279.583
 51
294.905
  0
ARC
  8
APS_GEOMETRY
 10
742.711
 20
-690.914
 40
28.353
 50
270.0
 51
279.583
  0
ARC
  8
APS_GEOMETRY
 10
742.711
 20
-698.595
 40
20.672
 50
261.247
 51
270.0
  0
ARC
  8
APS_GEOMETRY
 10
741.387
 20
-707.196
 40
11.97
 50
249.737
 51
261.247
  0
ARC
  8
APS_GEOMETRY
 10
740.517
 20
-709.553
 40
9.457
 50
235.345
 51
249.737
  0
ARC
  8
APS_GEOMETRY
 10
739.418
 20
-711.143
 40
7.524
 50
219.198
 51
235.345
  0
ARC
  8
APS_GEOMETRY
 10
741.731
 20
-709.171
 40
10.563
 50
209.076
 51
219.56
  0
ARC
  8
APS_GEOMETRY
 10
747.072
 20
-706.202
 40
16.674
 50
200.735
 51
209.076
  0
ARC
  8
APS_GEOMETRY
 10
754.441
 20
-703.412
 40
24.554
 50
197.881
 51
200.735
  0
ARC
  8
APS_GEOMETRY
 10
784.723
 20
-693.642
 40
56.372
 50
195.997
 51
197.881
  0
ARC
  8
APS_GEOMETRY
 10
807.104
 20
-687.225
 40
79.656
 50
194.664
 51
195.997
  0
ARC
  8
APS_GEOMETRY
 10
869.1
 20
-671.003
 40
143.738
 50
193.671
 51
194.664
  0
ARC
  8
APS_GEOMETRY
 10
711.889
 20
-709.223
 40
18.051
 50
13.61
 51
23.585
  0
ARC
  8
APS_GEOMETRY
 10
723.709
 20
-704.063
 40
5.155
 50
23.585
 51
42.31
  0
ARC
  8
APS_GEOMETRY
 10
724.781
 20
-703.087
 40
3.705
 50
42.31
 51
67.521
  0
ARC
  8
APS_GEOMETRY
 10
723.932
 20
-705.138
 40
5.924
 50
67.521
 51
87.397
  0
LINE
  8
APS_GEOMETRY
 10
722.337
 11
721.977
 20
-682.541
 21
-690.161
  0
LINE
  8
APS_GEOMETRY
 10
721.977
 11
721.977
 20
-690.161
 21
-690.284
  0
LINE
  8
APS_GEOMETRY
 10
721.977
 11
721.977
 20
-690.284
 21
-690.455
  0
ARC
  8
APS_GEOMETRY
 10
727.272
 20
-690.455
 40
5.294
 50
180.0
 51
192.339
  0
ARC
  8
APS_GEOMETRY
 10
723.063
 20
-691.376
 40
0.986
 50
192.339
 51
221.186
  0
ARC
  8
APS_GEOMETRY
 10
722.962
 20
-691.464
 40
0.852
 50
221.186
 51
253.872
  0
ARC
  8
APS_GEOMETRY
 10
723.678
 20
-688.988
 40
3.429
 50
253.872
 51
270.0
  0
ARC
  8
APS_GEOMETRY
 10
723.678
 20
-684.447
 40
7.971
 50
270.0
 51
289.569
  0
ARC
  8
APS_GEOMETRY
 10
725.127
 20
-688.523
 40
3.644
 50
289.569
 51
318.681
  0
ARC
  8
APS_GEOMETRY
 10
724.735
 20
-688.179
 40
4.166
 50
318.681
 51
344.628
  0
ARC
  8
APS_GEOMETRY
 10
717.432
 20
-686.171
 40
11.74
 50
344.628
 51
0.0
  0
ARC
  8
APS_GEOMETRY
 10
720.904
 20
-686.171
 40
8.268
 50
0.0
 51
35.369
  0
ARC
  8
APS_GEOMETRY
 10
724.692
 20
-683.482
 40
3.623
 50
35.369
 51
90.0
  0
ARC
  8
APS_GEOMETRY
 10
724.692
 20
-683.522
 40
3.663
 50
90.0
 51
108.435
  0
ARC
  8
APS_GEOMETRY
 10
723.979
 20
-681.384
 40
1.409
 50
108.435
 51
138.366
  0
ARC
  8
APS_GEOMETRY
 10
724.17
 20
-681.554
 40
1.665
 50
138.366
 51
164.291
  0
ARC
  8
APS_GEOMETRY
 10
728.656
 20
-682.816
 40
6.324
 50
164.291
 51
177.51
  0
LINE
  8
APS_GEOMETRY
 10
772.851
 11
790.086
 20
-673.351
 21
-673.351
  0
ARC
  8
APS_GEOMETRY
 10
789.214
 20
-648.656
 40
24.711
 50
272.021
 51
278.44
  0
ARC
  8
APS_GEOMETRY
 10
790.187
 20
-655.211
 40
18.083
 50
278.44
 51
285.945
  0
ARC
  8
APS_GEOMETRY
 10
797.504
 20
-681.409
 40
9.118
 50
98.584
 51
104.931
  0
ARC
  8
APS_GEOMETRY
 10
796.888
 20
-677.328
 40
4.991
 50
90.0
 51
98.584
  0
ARC
  8
APS_GEOMETRY
 10
796.888
 20
-676.089
 40
3.752
 50
52.871
 51
90.0
  0
ARC
  8
APS_GEOMETRY
 10
791.799
 20
-682.81
 40
12.182
 50
32.518
 51
52.871
  0
ARC
  8
APS_GEOMETRY
 10
787.768
 20
-685.38
 40
16.963
 50
17.209
 51
32.518
  0
ARC
  8
APS_GEOMETRY
 10
791.128
 20
-684.34
 40
13.445
 50
360.0
 51
17.209
  0
ARC
  8
APS_GEOMETRY
 10
797.856
 20
-684.34
 40
6.717
 50
337.348
 51
360.0
  0
ARC
  8
APS_GEOMETRY
 10
800.556
 20
-685.466
 40
3.792
 50
307.042
 51
337.348
  0
ARC
  8
APS_GEOMETRY
 10
800.087
 20
-684.822
 40
4.589
 50
287.186
 51
306.87
  0
ARC
  8
APS_GEOMETRY
 10
799.668
 20
-683.468
 40
6.006
 50
270.0
 51
287.186
  0
ARC
  8
APS_GEOMETRY
 10
799.668
 20
-684.081
 40
5.393
 50
252.221
 51
270.0
  0
ARC
  8
APS_GEOMETRY
 10
799.417
 20
-684.864
 40
4.571
 50
232.896
 51
252.221
  0
ARC
  8
APS_GEOMETRY
 10
800.387
 20
-683.581
 40
6.18
 50
218.3
 51
232.896
  0
ARC
  8
APS_GEOMETRY
 10
807.968
 20
-677.594
 40
15.839
 50
209.197
 51
218.3
  0
ARC
  8
APS_GEOMETRY
 10
769.414
 20
-698.482
 40
28.012
 50
28.025
 51
32.699
  0
ARC
  8
APS_GEOMETRY
 10
789.57
 20
-685.542
 40
4.06
 50
32.699
 51
45.0
  0
ARC
  8
APS_GEOMETRY
 10
790.944
 20
-684.168
 40
2.116
 50
45.0
 51
67.557
  0
ARC
  8
APS_GEOMETRY
 10
790.936
 20
-684.188
 40
2.137
 50
67.557
 51
90.0
  0
ARC
  8
APS_GEOMETRY
 10
790.936
 20
-684.019
 40
1.969
 50
90.0
 51
120.801
  0
ARC
  8
APS_GEOMETRY
 10
790.87
 20
-683.908
 40
1.839
 50
120.801
 51
152.7
  0
ARC
  8
APS_GEOMETRY
 10
792.328
 20
-684.661
 40
3.481
 50
152.7
 51
171.085
  0
ARC
  8
APS_GEOMETRY
 10
803.417
 20
-686.4
 40
14.705
 50
171.085
 51
180.0
  0
LINE
  8
APS_GEOMETRY
 10
788.712
 11
788.712
 20
-686.4
 21
-704.714
  0
ARC
  8
APS_GEOMETRY
 10
808.139
 20
-704.714
 40
19.427
 50
180.0
 51
188.194
  0
ARC
  8
APS_GEOMETRY
 10
793.632
 20
-706.803
 40
4.77
 50
188.194
 51
204.775
  0
ARC
  8
APS_GEOMETRY
 10
792.222
 20
-707.454
 40
3.218
 50
204.775
 51
228.576
  0
ARC
  8
APS_GEOMETRY
 10
793.545
 20
-705.955
 40
5.216
 50
228.576
 51
247.218
  0
ARC
  8
APS_GEOMETRY
 10
785.876
 20
-724.027
 40
14.416
 50
59.381
 51
66.93
  0
ARC
  8
APS_GEOMETRY
 10
791.537
 20
-714.462
 40
3.301
 50
43.568
 51
59.381
  0
ARC
  8
APS_GEOMETRY
 10
792.442
 20
-713.6
 40
2.051
 50
19.041
 51
43.568
  0
ARC
  8
APS_GEOMETRY
 10
791.184
 20
-714.034
 40
3.382
 50
360.0
 51
19.041
  0
ARC
  8
APS_GEOMETRY
 10
791.819
 20
-714.034
 40
2.747
 50
317.66
 51
360.0
  0
ARC
  8
APS_GEOMETRY
 10
789.296
 20
-711.736
 40
6.16
 50
289.747
 51
317.66
  0
ARC
  8
APS_GEOMETRY
 10
787.184
 20
-705.851
 40
12.412
 50
281.964
 51
289.747
  0
ARC
  8
APS_GEOMETRY
 10
784.257
 20
-692.039
 40
26.531
 50
276.643
 51
281.964
  0
ARC
  8
APS_GEOMETRY
 10
783.025
 20
-681.464
 40
37.178
 50
272.836
 51
276.643
  0
ARC
  8
APS_GEOMETRY
 10
781.55
 20
-651.688
 40
66.99
 50
270.0
 51
272.836
  0
ARC
  8
APS_GEOMETRY
 10
781.55
 20
-633.238
 40
85.44
 50
267.283
 51
270.0
  0
ARC
  8
APS_GEOMETRY
 10
779.756
 20
-671.041
 40
47.595
 50
263.643
 51
267.283
  0
ARC
  8
APS_GEOMETRY
 10
778.254
 20
-684.525
 40
34.027
 50
258.563
 51
263.643
  0
ARC
  8
APS_GEOMETRY
 10
774.665
 20
-702.264
 40
15.929
 50
251.136
 51
258.563
  0
ARC
  8
APS_GEOMETRY
 10
771.461
 20
-711.557
 40
6.099
 50
222.558
 51
251.395
  0
ARC
  8
APS_GEOMETRY
 10
769.084
 20
-713.74
 40
2.871
 50
180.0
 51
222.558
  0
ARC
  8
APS_GEOMETRY
 10
768.604
 20
-713.74
 40
2.392
 50
150.642
 51
180.0
  0
ARC
  8
APS_GEOMETRY
 10
768.796
 20
-713.848
 40
2.612
 50
122.574
 51
150.642
  0
ARC
  8
APS_GEOMETRY
 10
768.289
 20
-713.266
 40
1.851
 50
108.677
 51
119.055
  0
ARC
  8
APS_GEOMETRY
 10
791.404
 20
-781.649
 40
74.036
 50
107.038
 51
108.677
  0
ARC
  8
APS_GEOMETRY
 10
768.85
 20
-707.886
 40
3.099
 50
286.144
 51
308.66
  0
ARC
  8
APS_GEOMETRY
 10
769.357
 20
-708.52
 40
2.287
 50
308.66
 51
334.933
  0
ARC
  8
APS_GEOMETRY
 10
767.293
 20
-707.554
 40
4.566
 50
334.933
 51
348.829
  0
ARC
  8
APS_GEOMETRY
 10
741.467
 20
-702.454
 40
30.891
 50
348.829
 51
354.161
  0
ARC
  8
APS_GEOMETRY
 10
724.011
 20
-700.655
 40
48.439
 50
354.144
 51
355.66
  0
ARC
  8
APS_GEOMETRY
 10
646.634
 20
-694.783
 40
126.038
 50
355.66
 51
356.6
  0
ARC
  8
APS_GEOMETRY
 10
587.485
 20
-691.269
 40
185.291
 50
356.6
 51
357.24
  0
ARC
  8
APS_GEOMETRY
 10
419.66
 20
-683.178
 40
353.311
 50
357.24
 51
357.703
  0
ARC
  8
APS_GEOMETRY
 10
436.181
 20
-683.84
 40
336.777
 50
357.703
 51
358.674
  0
ARC
  8
APS_GEOMETRY
 10
592.013
 20
-687.446
 40
180.903
 50
358.674
 51
0.0
  0
ARC
  8
APS_GEOMETRY
 10
746.106
 20
-687.446
 40
26.81
 50
0.0
 51
6.242
  0
ARC
  8
APS_GEOMETRY
 10
767.426
 20
-685.115
 40
5.364
 50
6.242
 51
20.225
  0
ARC
  8
APS_GEOMETRY
 10
770.38
 20
-684.026
 40
2.215
 50
20.225
 51
50.44
  0
ARC
  8
APS_GEOMETRY
 10
770.954
 20
-683.331
 40
1.314
 50
50.44
 51
90.0
  0
ARC
  8
APS_GEOMETRY
 10
770.954
 20
-683.78
 40
1.762
 50
90.0
 51
126.747
  0
ARC
  8
APS_GEOMETRY
 10
773.444
 20
-687.115
 40
5.924
 50
126.747
 51
146.547
  0
ARC
  8
APS_GEOMETRY
 10
729.456
 20
-658.202
 40
46.715
 50
324.255
 51
326.701
  0
ARC
  8
APS_GEOMETRY
 10
748.079
 20
-671.606
 40
23.77
 50
320.826
 51
324.255
  0
ARC
  8
APS_GEOMETRY
 10
754.166
 20
-676.565
 40
15.918
 50
315.722
 51
320.826
  0
ARC
  8
APS_GEOMETRY
 10
761.16
 20
-683.386
 40
6.149
 50
307.504
 51
315.722
  0
ARC
  8
APS_GEOMETRY
 10
760.515
 20
-682.524
 40
7.226
 50
291.306
 51
307.405
  0
ARC
  8
APS_GEOMETRY
 10
761.634
 20
-685.393
 40
4.146
 50
270.0
 51
291.306
  0
ARC
  8
APS_GEOMETRY
 10
761.634
 20
-685.661
 40
3.879
 50
245.532
 51
270.0
  0
ARC
  8
APS_GEOMETRY
 10
761.604
 20
-685.725
 40
3.808
 50
220.833
 51
245.532
  0
ARC
  8
APS_GEOMETRY
 10
761.997
 20
-685.385
 40
4.328
 50
198.684
 51
220.833
  0
ARC
  8
APS_GEOMETRY
 10
763.639
 20
-684.83
 40
6.06
 50
180.0
 51
198.684
  0
ARC
  8
APS_GEOMETRY
 10
767.486
 20
-684.83
 40
9.908
 50
168.408
 51
180.0
  0
ARC
  8
APS_GEOMETRY
 10
773.839
 20
-686.133
 40
16.393
 50
159.402
 51
168.408
  0
ARC
  8
APS_GEOMETRY
 10
775.802
 20
-686.871
 40
18.49
 50
151.39
 51
159.402
  0
ARC
  8
APS_GEOMETRY
 10
775.4
 20
-686.652
 40
18.032
 50
143.276
 51
151.39
  0
ARC
  8
APS_GEOMETRY
 10
770.35
 20
-682.876
 40
11.726
 50
124.216
 51
143.31
  0
ARC
  8
APS_GEOMETRY
 10
765.852
 20
-676.262
 40
3.728
 50
90.0
 51
124.216
  0
ARC
  8
APS_GEOMETRY
 10
765.852
 20
-677.918
 40
5.384
 50
82.725
 51
90.0
  0
ARC
  8
APS_GEOMETRY
 10
765.432
 20
-681.214
 40
8.707
 50
77.005
 51
82.725
  0
ARC
  8
APS_GEOMETRY
 10
778.28
 20
-619.267
 40
54.561
 50
258.486
 51
260.378
  0
ARC
  8
APS_GEOMETRY
 10
772.776
 20
-651.732
 40
21.633
 50
260.378
 51
263.382
  0
ARC
  8
APS_GEOMETRY
 10
772.305
 20
-655.789
 40
17.548
 50
263.382
 51
267.084
  0
ARC
  8
APS_GEOMETRY
 10
772.851
 20
-645.078
 40
28.273
 50
267.084
 51
270.0
  0
LINE
  8
APS_GEOMETRY
 10
816.268
 11
833.078
 20
-673.351
 21
-673.351
  0
ARC
  8
APS_GEOMETRY
 10
833.078
 20
-461.632
 40
211.72
 50
270.0
 51
270.69
  0
ARC
  8
APS_GEOMETRY
 10
834.271
 20
-560.688
 40
112.656
 50
270.69
 51
271.637
  0
ARC
  8
APS_GEOMETRY
 10
835.277
 20
-595.882
 40
77.448
 50
271.637
 51
273.013
  0
ARC
  8
APS_GEOMETRY
 10
837.727
 20
-642.444
 40
30.821
 50
273.013
 51
275.194
  0
ARC
  8
APS_GEOMETRY
 10
838.335
 20
-649.126
 40
24.112
 50
275.194
 51
280.756
  0
ARC
  8
APS_GEOMETRY
 10
838.449
 20
-649.727
 40
23.5
 50
280.756
 51
286.39
  0
ARC
  8
APS_GEOMETRY
 10
847.063
 20
-679.212
 40
7.217
 50
100.305
 51
105.945
  0
ARC
  8
APS_GEOMETRY
 10
846.159
 20
-674.242
 40
2.166
 50
90.0
 51
100.305
  0
ARC
  8
APS_GEOMETRY
 10
846.159
 20
-675.016
 40
2.94
 50
58.946
 51
90.0
  0
ARC
  8
APS_GEOMETRY
 10
845.035
 20
-676.883
 40
5.119
 50
35.538
 51
58.946
  0
ARC
  8
APS_GEOMETRY
 10
840.646
 20
-680.112
 40
10.568
 50
16.699
 51
35.952
  0
ARC
  8
APS_GEOMETRY
 10
837.345
 20
-681.102
 40
14.014
 50
360.0
 51
16.699
  0
ARC
  8
APS_GEOMETRY
 10
843.495
 20
-681.102
 40
7.864
 50
344.982
 51
360.0
  0
ARC
  8
APS_GEOMETRY
 10
847.27
 20
-682.115
 40
3.956
 50
323.746
 51
344.982
  0
ARC
  8
APS_GEOMETRY
 10
848.108
 20
-682.73
 40
2.916
 50
296.114
 51
323.746
  0
ARC
  8
APS_GEOMETRY
 10
847.958
 20
-682.423
 40
3.258
 50
270.0
 51
296.114
  0
ARC
  8
APS_GEOMETRY
 10
847.958
 20
-681.596
 40
4.084
 50
255.311
 51
270.0
  0
ARC
  8
APS_GEOMETRY
 10
847.412
 20
-683.679
 40
1.931
 50
233.881
 51
255.311
  0
ARC
  8
APS_GEOMETRY
 10
847.987
 20
-682.892
 40
2.906
 50
219.289
 51
233.881
  0
ARC
  8
APS_GEOMETRY
 10
859.517
 20
-673.458
 40
17.803
 50
213.408
 51
219.289
  0
ARC
  8
APS_GEOMETRY
 10
837.915
 20
-687.686
 40
8.063
 50
33.294
 51
51.246
  0
ARC
  8
APS_GEOMETRY
 10
839.013
 20
-686.319
 40
6.309
 50
51.246
 51
71.565
  0
ARC
  8
APS_GEOMETRY
 10
838.287
 20
-688.496
 40
8.604
 50
71.565
 51
79.278
  0
ARC
  8
APS_GEOMETRY
 10
835.959
 20
-700.792
 40
21.118
 50
79.278
 51
84.2
  0
ARC
  8
APS_GEOMETRY
 10
834.966
 20
-710.57
 40
30.947
 50
84.2
 51
87.567
  0
ARC
  8
APS_GEOMETRY
 10
833.765
 20
-738.848
 40
59.251
 50
87.567
 51
90.0
  0
ARC
  8
APS_GEOMETRY
 10
833.765
 20
-696.253
 40
16.656
 50
90.0
 51
96.374
  0
ARC
  8
APS_GEOMETRY
 10
832.659
 20
-686.357
 40
6.698
 50
96.374
 51
106.434
  0
ARC
  8
APS_GEOMETRY
 10
831.873
 20
-683.694
 40
3.921
 50
106.434
 51
123.056
  0
ARC
  8
APS_GEOMETRY
 10
830.647
 20
-681.809
 40
1.673
 50
123.056
 51
148.627
  0
ARC
  8
APS_GEOMETRY
 10
831.767
 20
-682.444
 40
2.96
 50
149.421
 51
165.28
  0
ARC
  8
APS_GEOMETRY
 10
834.996
 20
-683.293
 40
6.298
 50
165.28
 51
176.135
  0
ARC
  8
APS_GEOMETRY
 10
844.238
 20
-683.917
 40
15.562
 50
176.135
 51
178.367
  0
ARC
  8
APS_GEOMETRY
 10
929.744
 20
-686.355
 40
101.103
 50
178.367
 51
179.242
  0
ARC
  8
APS_GEOMETRY
 10
1018.113
 20
-687.524
 40
189.479
 50
179.242
 51
179.709
  0
ARC
  8
APS_GEOMETRY
 10
1318.762
 20
-689.049
 40
490.132
 50
179.709
 51
180.0
  0
ARC
  8
APS_GEOMETRY
 10
835.721
 20
-689.049
 40
7.091
 50
180.0
 51
195.027
  0
ARC
  8
APS_GEOMETRY
 10
829.922
 20
-690.606
 40
1.086
 50
195.027
 51
234.058
  0
ARC
  8
APS_GEOMETRY
 10
829.978
 20
-690.528
 40
1.183
 50
234.058
 51
253.191
  0
ARC
  8
APS_GEOMETRY
 10
831.216
 20
-686.432
 40
5.461
 50
253.191
 51
262.063
  0
ARC
  8
APS_GEOMETRY
 10
831.849
 20
-681.887
 40
10.05
 50
262.063
 51
266.949
  0
ARC
  8
APS_GEOMETRY
 10
832.685
 20
-666.205
 40
25.755
 50
266.949
 51
270.0
  0
ARC
  8
APS_GEOMETRY
 10
832.685
 20
-687.238
 40
4.722
 50
270.0
 51
286.007
  0
ARC
  8
APS_GEOMETRY
 10
833.512
 20
-690.119
 40
1.725
 50
286.007
 51
312.647
  0
ARC
  8
APS_GEOMETRY
 10
833.494
 20
-690.1
 40
1.75
 50
312.647
 51
338.993
  0
ARC
  8
APS_GEOMETRY
 10
829.92
 20
-688.727
 40
5.58
 50
338.993
 51
353.66
  0
ARC
  8
APS_GEOMETRY
 10
866.839
 20
-693.13
 40
31.601
 50
169.663
 51
173.118
  0
ARC
  8
APS_GEOMETRY
 10
840.449
 20
-688.317
 40
4.776
 50
160.769
 51
169.663
  0
ARC
  8
APS_GEOMETRY
 10
838.242
 20
-687.547
 40
2.439
 50
143.746
 51
160.769
  0
ARC
  8
APS_GEOMETRY
 10
838.775
 20
-687.938
 40
3.1
 50
128.66
 51
143.746
  0
ARC
  8
APS_GEOMETRY
 10
838.42
 20
-687.361
 40
2.429
 50
110.171
 51
130.601
  0
ARC
  8
APS_GEOMETRY
 10
838.441
 20
-687.42
 40
2.492
 50
90.0
 51
110.171
  0
ARC
  8
APS_GEOMETRY
 10
838.441
 20
-687.455
 40
2.527
 50
61.22
 51
90.0
  0
ARC
  8
APS_GEOMETRY
 10
838.0
 20
-688.258
 40
3.443
 50
36.634
 51
61.22
  0
ARC
  8
APS_GEOMETRY
 10
837.586
 20
-688.504
 40
3.923
 50
19.103
 51
35.91
  0
ARC
  8
APS_GEOMETRY
 10
824.791
 20
-692.936
 40
17.463
 50
11.16
 51
19.103
  0
ARC
  8
APS_GEOMETRY
 10
818.106
 20
-694.255
 40
24.277
 50
5.396
 51
11.16
  0
ARC
  8
APS_GEOMETRY
 10
814.706
 20
-694.576
 40
27.692
 50
0.0
 51
5.396
  0
ARC
  8
APS_GEOMETRY
 10
815.188
 20
-694.576
 40
27.21
 50
349.287
 51
0.0
  0
ARC
  8
APS_GEOMETRY
 10
828.546
 20
-697.103
 40
13.615
 50
334.12
 51
349.287
  0
ARC
  8
APS_GEOMETRY
 10
837.748
 20
-701.55
 40
3.396
 50
303.53
 51
333.853
  0
ARC
  8
APS_GEOMETRY
 10
838.081
 20
-702.053
 40
2.791
 50
270.0
 51
303.53
  0
ARC
  8
APS_GEOMETRY
 10
838.081
 20
-701.923
 40
2.922
 50
249.578
 51
270.0
  0
ARC
  8
APS_GEOMETRY
 10
837.46
 20
-703.592
 40
1.14
 50
216.607
 51
249.578
  0
ARC
  8
APS_GEOMETRY
 10
838.054
 20
-703.151
 40
1.881
 50
195.422
 51
216.607
  0
ARC
  8
APS_GEOMETRY
 10
848.316
 20
-700.32
 40
12.526
 50
187.253
 51
195.422
  0
ARC
  8
APS_GEOMETRY
 10
831.744
 20
-702.452
 40
4.183
 50
7.561
 51
49.434
  0
ARC
  8
APS_GEOMETRY
 10
831.573
 20
-702.651
 40
4.445
 50
49.434
 51
90.0
  0
ARC
  8
APS_GEOMETRY
 10
831.573
 20
-701.197
 40
2.991
 50
90.0
 51
115.224
  0
ARC
  8
APS_GEOMETRY
 10
830.982
 20
-699.941
 40
1.603
 50
115.224
 51
149.931
  0
ARC
  8
APS_GEOMETRY
 10
832.051
 20
-700.56
 40
2.838
 50
149.931
 51
171.111
  0
ARC
  8
APS_GEOMETRY
 10
845.019
 20
-702.588
 40
15.963
 50
171.111
 51
180.0
  0
ARC
  8
APS_GEOMETRY
 10
857.794
 20
-702.588
 40
28.739
 50
180.0
 51
183.062
  0
ARC
  8
APS_GEOMETRY
 10
901.782
 20
-700.235
 40
72.789
 50
183.062
 51
184.986
  0
ARC
  8
APS_GEOMETRY
 10
878.709
 20
-702.248
 40
49.629
 50
184.986
 51
187.804
  0
ARC
  8
APS_GEOMETRY
 10
835.008
 20
-708.237
 40
5.52
 50
187.804
 51
196.26
  0
ARC
  8
APS_GEOMETRY
 10
831.154
 20
-709.398
 40
1.496
 50
194.931
 51
230.024
  0
ARC
  8
APS_GEOMETRY
 10
832.135
 20
-708.228
 40
3.022
 50
230.024
 51
254.511
  0
ARC
  8
APS_GEOMETRY
 10
833.327
 20
-703.927
 40
7.485
 50
254.511
 51
265.219
  0
ARC
  8
APS_GEOMETRY
 10
835.825
 20
-674.06
 40
37.456
 50
265.219
 51
270.0
  0
ARC
  8
APS_GEOMETRY
 10
835.825
 20
-678.02
 40
33.497
 50
270.0
 51
274.186
  0
ARC
  8
APS_GEOMETRY
 10
836.843
 20
-691.936
 40
19.543
 50
274.186
 51
279.668
  0
ARC
  8
APS_GEOMETRY
 10
837.68
 20
-696.844
 40
14.564
 50
279.668
 51
286.991
  0
ARC
  8
APS_GEOMETRY
 10
839.592
 20
-703.104
 40
8.018
 50
286.991
 51
296.866
  0
ARC
  8
APS_GEOMETRY
 10
839.99
 20
-703.889
 40
7.139
 50
296.866
 51
318.366
  0
ARC
  8
APS_GEOMETRY
 10
835.991
 20
-700.334
 40
12.489
 50
318.366
 51
334.581
  0
ARC
  8
APS_GEOMETRY
 10
862.32
 20
-712.96
 40
16.711
 50
147.08
 51
154.231
  0
ARC
  8
APS_GEOMETRY
 10
851.314
 20
-705.834
 40
3.599
 50
131.634
 51
147.08
  0
ARC
  8
APS_GEOMETRY
 10
850.493
 20
-704.911
 40
2.364
 50
108.875
 51
131.634
  0
ARC
  8
APS_GEOMETRY
 10
850.836
 20
-705.913
 40
3.423
 50
90.0
 51
108.875
  0
ARC
  8
APS_GEOMETRY
 10
850.836
 20
-705.218
 40
2.727
 50
62.628
 51
90.0
  0
ARC
  8
APS_GEOMETRY
 10
850.663
 20
-705.551
 40
3.103
 50
36.995
 51
62.628
  0
ARC
  8
APS_GEOMETRY
 10
849.89
 20
-706.134
 40
4.071
 50
16.728
 51
36.995
  0
ARC
  8
APS_GEOMETRY
 10
848.084
 20
-706.676
 40
5.956
 50
360.0
 51
16.728
  0
ARC
  8
APS_GEOMETRY
 10
844.509
 20
-706.676
 40
9.532
 50
348.323
 51
360.0
  0
ARC
  8
APS_GEOMETRY
 10
830.2
 20
-703.719
 40
24.143
 50
340.994
 51
348.323
  0
ARC
  8
APS_GEOMETRY
 10
826.806
 20
-702.55
 40
27.733
 50
334.592
 51
340.994
  0
ARC
  8
APS_GEOMETRY
 10
832.73
 20
-705.364
 40
21.175
 50
327.265
 51
334.592
  0
ARC
  8
APS_GEOMETRY
 10
839.61
 20
-709.419
 40
13.198
 50
320.133
 51
325.923
  0
ARC
  8
APS_GEOMETRY
 10
847.613
 20
-716.103
 40
2.771
 50
307.476
 51
320.133
  0
ARC
  8
APS_GEOMETRY
 10
848.314
 20
-717.017
 40
1.619
 50
286.429
 51
307.476
  0
ARC
  8
APS_GEOMETRY
 10
848.023
 20
-716.033
 40
2.646
 50
270.0
 51
286.429
  0
ARC
  8
APS_GEOMETRY
 10
848.023
 20
-712.974
 40
5.704
 50
263.774
 51
270.0
  0
ARC
  8
APS_GEOMETRY
 10
849.692
 20
-697.677
 40
21.092
 50
260.538
 51
263.774
  0
ARC
  8
APS_GEOMETRY
 10
842.223
 20
-739.823
 40
21.713
 50
79.38
 51
84.987
  0
ARC
  8
APS_GEOMETRY
 10
838.985
 20
-776.734
 40
58.766
 50
84.987
 51
88.394
  0
LINE
  8
APS_GEOMETRY
 10
840.632
 11
812.9
 20
-717.992
 21
-717.992
  0
ARC
  8
APS_GEOMETRY
 10
812.9
 20
-712.188
 40
5.804
 50
254.103
 51
270.0
  0
ARC
  8
APS_GEOMETRY
 10
812.082
 20
-715.058
 40
2.82
 50
231.216
 51
254.103
  0
ARC
  8
APS_GEOMETRY
 10
811.747
 20
-715.475
 40
2.284
 50
203.795
 51
231.216
  0
ARC
  8
APS_GEOMETRY
 10
812.419
 20
-715.179
 40
3.019
 50
180.0
 51
203.795
  0
ARC
  8
APS_GEOMETRY
 10
812.673
 20
-715.179
 40
3.273
 50
164.055
 51
180.0
  0
ARC
  8
APS_GEOMETRY
 10
810.657
 20
-714.603
 40
1.175
 50
137.291
 51
164.055
  0
ARC
  8
APS_GEOMETRY
 10
811.264
 20
-715.163
 40
2.001
 50
120.964
 51
137.291
  0
ARC
  8
APS_GEOMETRY
 10
817.764
 20
-725.998
 40
14.637
 50
114.944
 51
120.964
  0
ARC
  8
APS_GEOMETRY
 10
809.649
 20
-708.243
 40
4.886
 50
293.429
 51
305.72
  0
ARC
  8
APS_GEOMETRY
 10
810.993
 20
-710.112
 40
2.584
 50
305.72
 51
322.651
  0
ARC
  8
APS_GEOMETRY
 10
810.784
 20
-709.953
 40
2.846
 50
322.651
 51
338.11
  0
ARC
  8
APS_GEOMETRY
 10
806.726
 20
-708.323
 40
7.219
 50
338.11
 51
347.8
  0
ARC
  8
APS_GEOMETRY
 10
781.526
 20
-702.799
 40
33.018
 50
347.672
 51
352.051
  0
ARC
  8
APS_GEOMETRY
 10
757.133
 20
-699.393
 40
57.647
 50
352.051
 51
355.365
  0
ARC
  8
APS_GEOMETRY
 10
740.706
 20
-698.061
 40
74.128
 50
355.365
 51
357.943
  0
ARC
  8
APS_GEOMETRY
 10
698.296
 20
-696.538
 40
116.566
 50
357.943
 51
0.0
  0
ARC
  8
APS_GEOMETRY
 10
649.344
 20
-696.538
 40
165.518
 50
0.0
 51
2.183
  0
ARC
  8
APS_GEOMETRY
 10
748.319
 20
-692.765
 40
66.471
 50
2.183
 51
5.629
  0
ARC
  8
APS_GEOMETRY
 10
777.803
 20
-689.859
 40
36.844
 50
5.629
 51
11.805
  0
ARC
  8
APS_GEOMETRY
 10
806.419
 20
-683.878
 40
7.61
 50
11.805
 51
25.419
  0
ARC
  8
APS_GEOMETRY
 10
810.123
 20
-682.196
 40
3.544
 50
26.565
 51
38.157
  0
ARC
  8
APS_GEOMETRY
 10
811.767
 20
-680.904
 40
1.452
 50
38.157
 51
56.31
  0
ARC
  8
APS_GEOMETRY
 10
811.419
 20
-681.426
 40
2.079
 50
56.31
 51
69.193
  0
ARC
  8
APS_GEOMETRY
 10
806.539
 20
-694.267
 40
15.817
 50
69.193
 51
73.856
  0
ARC
  8
APS_GEOMETRY
 10
811.687
 20
-676.56
 40
2.623
 50
216.87
 51
253.393
  0
ARC
  8
APS_GEOMETRY
 10
811.649
 20
-676.589
 40
2.576
 50
180.0
 51
216.87
  0
ARC
  8
APS_GEOMETRY
 10
812.211
 20
-676.589
 40
3.138
 50
161.565
 51
180.0
  0
ARC
  8
APS_GEOMETRY
 10
812.098
 20
-676.551
 40
3.018
 50
142.765
 51
161.565
  0
ARC
  8
APS_GEOMETRY
 10
812.026
 20
-676.496
 40
2.928
 50
123.425
 51
142.765
  0
ARC
  8
APS_GEOMETRY
 10
812.091
 20
-676.596
 40
3.047
 50
104.47
 51
123.425
  0
ARC
  8
APS_GEOMETRY
 10
812.671
 20
-679.458
 40
5.965
 50
96.724
 51
102.995
  0
ARC
  8
APS_GEOMETRY
 10
814.472
 20
-694.733
 40
21.346
 50
93.411
 51
96.724
  0
ARC
  8
APS_GEOMETRY
 10
815.272
 20
-708.154
 40
34.791
 50
91.375
 51
93.411
  0
ARC
  8
APS_GEOMETRY
 10
816.268
 20
-749.654
 40
76.303
 50
90.0
 51
91.375
  0
LINE
  8
COSTRUZIONI
 10
1813.609
 11
1813.609
 20
0.0
 21
2159.0
  0
LINE
  8
COSTRUZIONI
 10
1813.609
 11
1067.609
 20
2159.0
 21
2159.0
  0
LINE
  8
COSTRUZIONI
 10
1067.609
 11
1067.609
 20
2159.0
 21
0.0
  0
LINE
  8
COSTRUZIONI
 10
1067.609
 11
1813.609
 20
0.0
 21
0.0
  0
LINE
  8
COSTRUZIONI
 10
1699.109
 11
1182.109
 20
130.0
 21
130.0
  0
LINE
  8
COSTRUZIONI
 10
1182.109
 11
1182.109
 20
130.0
 21
839.928
  0
LINE
  8
COSTRUZIONI
 10
1182.109
 11
1260.18
 20
839.928
 21
884.607
  0
LINE
  8
COSTRUZIONI
 10
1260.18
 11
1182.109
 20
884.607
 21
1119.53
  0
LINE
  8
COSTRUZIONI
 10
1182.109
 11
1182.109
 20
1119.53
 21
2029.0
  0
LINE
  8
COSTRUZIONI
 10
1182.109
 11
1699.109
 20
2029.0
 21
2029.0
  0
LINE
  8
COSTRUZIONI
 10
1699.109
 11
1699.109
 20
2029.0
 21
130.0
  0
LINE
  8
COSTRUZIONI
 10
1749.109
 11
1749.109
 20
80.0
 21
2079.0
  0
LINE
  8
COSTRUZIONI
 10
1749.109
 11
1132.109
 20
2079.0
 21
2079.0
  0
LINE
  8
COSTRUZIONI
 10
1132.109
 11
1132.109
 20
2079.0
 21
1111.44
  0
LINE
  8
COSTRUZIONI
 10
1132.109
 11
1199.825
 20
1111.44
 21
907.675
  0
LINE
  8
COSTRUZIONI
 10
1199.825
 11
1132.109
 20
907.675
 21
868.923
  0
LINE
  8
COSTRUZIONI
 10
1132.109
 11
1132.109
 20
868.923
 21
80.0
  0
LINE
  8
COSTRUZIONI
 10
1749.109
 11
1132.109
 20
80.0
 21
80.0
  0
LINE
  8
COSTRUZIONI
 10
144.5
 11
661.5
 20
130.0
 21
130.0
  0
LINE
  8
COSTRUZIONI
 10
661.5
 11
661.5
 20
130.0
 21
839.928
  0
LINE
  8
COSTRUZIONI
 10
661.5
 11
583.43
 20
839.928
 21
884.607
  0
LINE
  8
COSTRUZIONI
 10
583.43
 11
661.5
 20
884.607
 21
1119.53
  0
LINE
  8
COSTRUZIONI
 10
661.5
 11
661.5
 20
1119.53
 21
2029.0
  0
LINE
  8
COSTRUZIONI
 10
661.5
 11
144.5
 20
2029.0
 21
2029.0
  0
LINE
  8
COSTRUZIONI
 10
144.5
 11
144.5
 20
2029.0
 21
130.0
  0
LINE
  8
COSTRUZIONI
 10
94.5
 11
711.5
 20
80.0
 21
80.0
  0
LINE
  8
COSTRUZIONI
 10
711.5
 11
711.5
 20
80.0
 21
868.923
  0
LINE
  8
COSTRUZIONI
 10
711.5
 11
643.785
 20
868.923
 21
907.675
  0
LINE
  8
COSTRUZIONI
 10
643.785
 11
711.5
 20
907.675
 21
1111.44
  0
LINE
  8
COSTRUZIONI
 10
711.5
 11
711.5
 20
1111.44
 21
2079.0
  0
LINE
  8
COSTRUZIONI
 10
711.5
 11
94.5
 20
2079.0
 21
2079.0
  0
LINE
  8
COSTRUZIONI
 10
94.5
 11
94.5
 20
2079.0
 21
80.0
  0
LINE
  8
QUOTATURA
 10
144.5
 11
144.5
 20
1059.5
 21
1174.466
  0
LINE
  8
QUOTATURA
 10
94.5
 11
94.5
 20
1059.5
 21
1174.466
  0
LINE
  8
QUOTATURA
 10
94.5
 11
-1.157
 20
1164.466
 21
1164.466
  0
LINE
  8
QUOTATURA
 10
74.5
 11
94.5
 20
1167.8
 21
1164.466
  0
LINE
  8
QUOTATURA
 10
94.5
 11
74.5
 20
1164.466
 21
1161.132
  0
LINE
  8
QUOTATURA
 10
74.5
 11
74.5
 20
1161.132
 21
1167.8
  0
LINE
  8
QUOTATURA
 10
144.5
 11
184.5
 20
1164.466
 21
1164.466
  0
LINE
  8
QUOTATURA
 10
164.5
 11
144.5
 20
1161.132
 21
1164.466
  0
LINE
  8
QUOTATURA
 10
144.5
 11
164.5
 20
1164.466
 21
1167.8
  0
LINE
  8
QUOTATURA
 10
164.5
 11
164.5
 20
1167.8
 21
1161.132
  0
LINE
  8
QUOTATURA
 10
30.0
 11
30.0
 20
1059.5
 21
1122.974
  0
LINE
  8
QUOTATURA
 10
94.5
 11
-1.187
 20
1112.974
 21
1112.974
  0
LINE
  8
QUOTATURA
 10
74.5
 11
94.5
 20
1116.308
 21
1112.974
  0
LINE
  8
QUOTATURA
 10
94.5
 11
74.5
 20
1112.974
 21
1109.64
  0
LINE
  8
QUOTATURA
 10
74.5
 11
74.5
 20
1109.64
 21
1116.308
  0
LINE
  8
QUOTATURA
 10
50.0
 11
30.0
 20
1109.64
 21
1112.974
  0
LINE
  8
QUOTATURA
 10
30.0
 11
50.0
 20
1112.974
 21
1116.308
  0
LINE
  8
QUOTATURA
 10
50.0
 11
50.0
 20
1116.308
 21
1109.64
  0
LINE
  8
QUOTATURA
 10
378.0
 11
233.985
 20
0.0
 21
0.0
  0
LINE
  8
QUOTATURA
 10
378.0
 11
233.985
 20
80.0
 21
80.0
  0
LINE
  8
QUOTATURA
 10
243.985
 11
243.985
 20
80.0
 21
-52.629
  0
LINE
  8
QUOTATURA
 10
243.985
 11
182.674
 20
-52.629
 21
-52.629
  0
LINE
  8
QUOTATURA
 10
247.319
 11
243.985
 20
20.0
 21
0.0
  0
LINE
  8
QUOTATURA
 10
243.985
 11
240.651
 20
0.0
 21
20.0
  0
LINE
  8
QUOTATURA
 10
240.651
 11
247.319
 20
20.0
 21
20.0
  0
LINE
  8
QUOTATURA
 10
240.651
 11
243.985
 20
60.0
 21
80.0
  0
LINE
  8
QUOTATURA
 10
243.985
 11
247.319
 20
80.0
 21
60.0
  0
LINE
  8
QUOTATURA
 10
247.319
 11
240.651
 20
60.0
 21
60.0
  0
LINE
  8
QUOTATURA
 10
378.0
 11
243.437
 20
2079.0
 21
2079.0
  0
LINE
  8
QUOTATURA
 10
378.0
 11
243.437
 20
2159.0
 21
2159.0
  0
LINE
  8
QUOTATURA
 10
253.437
 11
253.437
 20
2079.0
 21
2290.659
  0
LINE
  8
QUOTATURA
 10
253.437
 11
183.752
 20
2290.659
 21
2290.659
  0
LINE
  8
QUOTATURA
 10
256.771
 11
253.437
 20
2099.0
 21
2079.0
  0
LINE
  8
QUOTATURA
 10
253.437
 11
250.103
 20
2079.0
 21
2099.0
  0
LINE
  8
QUOTATURA
 10
250.103
 11
256.771
 20
2099.0
 21
2099.0
  0
LINE
  8
QUOTATURA
 10
250.103
 11
253.437
 20
2139.0
 21
2159.0
  0
LINE
  8
QUOTATURA
 10
253.437
 11
256.771
 20
2159.0
 21
2139.0
  0
LINE
  8
QUOTATURA
 10
256.771
 11
250.103
 20
2139.0
 21
2139.0
  0
LINE
  8
COSTRUZIONI
 10
-82.888
 11
-82.888
 20
2512.051
 21
2712.051
  0
LINE
  8
COSTRUZIONI
 10
-82.888
 11
1917.112
 20
2712.051
 21
2712.051
  0
LINE
  8
COSTRUZIONI
 10
1917.112
 11
1917.112
 20
2712.051
 21
2512.051
  0
LINE
  8
COSTRUZIONI
 10
1917.112
 11
-82.888
 20
2512.051
 21
2512.051
  0
LINE
  8
COSTRUZIONI
 10
217.112
 11
217.112
 20
2512.051
 21
2712.051
  0
LINE
  8
COSTRUZIONI
 10
517.112
 11
517.112
 20
2512.051
 21
2712.051
  0
LINE
  8
COSTRUZIONI
 10
967.112
 11
967.112
 20
2512.051
 21
2712.051
  0
LINE
  8
COSTRUZIONI
 10
1417.112
 11
1417.112
 20
2512.051
 21
2712.051
  0
LINE
  8
COSTRUZIONI
 10
-82.888
 11
-82.888
 20
2512.051
 21
2362.051
  0
LINE
  8
COSTRUZIONI
 10
-82.888
 11
1917.112
 20
2362.051
 21
2362.051
  0
LINE
  8
COSTRUZIONI
 10
1917.112
 11
1917.112
 20
2512.051
 21
2362.051
  0
LINE
  8
COSTRUZIONI
 10
312.09
 11
312.09
 20
2512.051
 21
2362.051
  0
LINE
  8
APS_GEOMETRY
 10
21.081
 11
71.081
 20
2372.78
 21
2372.78
  0
LINE
  8
APS_GEOMETRY
 10
71.081
 11
71.081
 20
2372.78
 21
2422.78
  0
LINE
  8
APS_GEOMETRY
 10
71.081
 11
21.081
 20
2422.78
 21
2422.78
  0
LINE
  8
APS_GEOMETRY
 10
21.081
 11
21.081
 20
2422.78
 21
2372.78
  0
LINE
  8
APS_GEOMETRY
 10
249.284
 11
299.284
 20
2372.78
 21
2372.78
  0
LINE
  8
APS_GEOMETRY
 10
299.284
 11
299.284
 20
2372.78
 21
2422.78
  0
LINE
  8
APS_GEOMETRY
 10
299.284
 11
249.284
 20
2422.78
 21
2422.78
  0
LINE
  8
APS_GEOMETRY
 10
249.284
 11
249.284
 20
2422.78
 21
2372.78
  0
LINE
  8
COSTRUZIONI
 10
-82.888
 11
312.09
 20
2444.054
 21
2444.054
  0
LINE
  8
COSTRUZIONI
 10
114.601
 11
114.601
 20
2444.054
 21
2362.051
  0
LINE
  8
COSTRUZIONI
 10
460.43
 11
478.13
 20
2399.017
 21
2399.017
  0
LINE
  8
COSTRUZIONI
 10
478.13
 11
478.13
 20
2399.017
 21
2395.517
  0
LINE
  8
COSTRUZIONI
 10
478.13
 11
460.43
 20
2395.517
 21
2395.517
  0
LINE
  8
COSTRUZIONI
 10
460.43
 11
460.43
 20
2395.517
 21
2399.017
  0
LINE
  8
COSTRUZIONI
 10
468.13
 11
468.13
 20
2399.017
 21
2425.517
  0
ARC
  8
COSTRUZIONI
 10
465.13
 20
2425.517
 40
3.0
 50
0.0
 51
90.0
  0
LINE
  8
COSTRUZIONI
 10
465.13
 11
446.13
 20
2428.517
 21
2428.517
  0
ARC
  8
COSTRUZIONI
 10
446.13
 20
2425.517
 40
3.0
 50
90.0
 51
180.0
  0
LINE
  8
COSTRUZIONI
 10
443.13
 11
443.13
 20
2425.517
 21
2404.517
  0
LINE
  8
COSTRUZIONI
 10
443.13
 11
438.63
 20
2404.517
 21
2404.517
  0
LINE
  8
COSTRUZIONI
 10
438.63
 11
438.63
 20
2404.517
 21
2418.517
  0
LINE
  8
COSTRUZIONI
 10
438.63
 11
434.63
 20
2418.517
 21
2418.517
  0
LINE
  8
COSTRUZIONI
 10
434.63
 11
434.63
 20
2418.517
 21
2382.736
  0
LINE
  8
COSTRUZIONI
 10
478.63
 11
478.63
 20
2368.745
 21
2394.517
  0
LINE
  8
COSTRUZIONI
 10
499.004
 11
484.13
 20
2383.517
 21
2383.517
  0
ARC
  8
COSTRUZIONI
 10
484.13
 20
2386.517
 40
3.0
 50
180.0
 51
270.0
  0
LINE
  8
COSTRUZIONI
 10
481.13
 11
481.13
 20
2386.517
 21
2398.517
  0
LINE
  8
COSTRUZIONI
 10
481.13
 11
472.63
 20
2398.517
 21
2398.517
  0
ARC
  8
COSTRUZIONI
 10
472.63
 20
2400.017
 40
1.5
 50
180.0
 51
270.0
  0
LINE
  8
COSTRUZIONI
 10
471.13
 11
471.13
 20
2400.017
 21
2425.517
  0
ARC
  8
COSTRUZIONI
 10
474.13
 20
2425.517
 40
3.0
 50
90.0
 51
180.0
  0
LINE
  8
COSTRUZIONI
 10
474.13
 11
500.165
 20
2428.517
 21
2428.517
  0
LINE
  8
QUOTATURA
 10
393.07
 11
393.07
 20
2384.71
 21
2385.377
  0
LINE
  8
COSTRUZIONI
 10
375.87
 11
383.57
 20
2389.544
 21
2389.544
  0
ARC
  8
COSTRUZIONI
 10
388.57
 20
2377.544
 40
13.0
 50
67.38
 51
112.62
  0
LINE
  8
COSTRUZIONI
 10
393.57
 11
393.57
 20
2389.544
 21
2386.044
  0
LINE
  8
COSTRUZIONI
 10
393.57
 11
375.87
 20
2386.044
 21
2386.044
  0
LINE
  8
COSTRUZIONI
 10
375.87
 11
375.87
 20
2386.044
 21
2389.544
  0
LINE
  8
COSTRUZIONI
 10
376.047
 11
375.87
 20
2386.044
 21
2386.22
  0
LINE
  8
COSTRUZIONI
 10
375.87
 11
376.577
 20
2386.751
 21
2386.044
  0
LINE
  8
COSTRUZIONI
 10
376.754
 11
375.87
 20
2386.044
 21
2386.927
  0
LINE
  8
COSTRUZIONI
 10
375.87
 11
377.285
 20
2387.458
 21
2386.044
  0
LINE
  8
COSTRUZIONI
 10
377.461
 11
375.87
 20
2386.044
 21
2387.635
  0
LINE
  8
COSTRUZIONI
 10
375.87
 11
377.992
 20
2388.165
 21
2386.044
  0
LINE
  8
COSTRUZIONI
 10
378.168
 11
375.87
 20
2386.044
 21
2388.342
  0
LINE
  8
COSTRUZIONI
 10
375.87
 11
378.699
 20
2388.872
 21
2386.044
  0
LINE
  8
COSTRUZIONI
 10
378.876
 11
375.87
 20
2386.044
 21
2389.049
  0
LINE
  8
COSTRUZIONI
 10
375.906
 11
379.406
 20
2389.544
 21
2386.044
  0
LINE
  8
COSTRUZIONI
 10
379.583
 11
376.083
 20
2386.044
 21
2389.544
  0
LINE
  8
COSTRUZIONI
 10
376.613
 11
380.113
 20
2389.544
 21
2386.044
  0
LINE
  8
COSTRUZIONI
 10
380.29
 11
376.79
 20
2386.044
 21
2389.544
  0
LINE
  8
COSTRUZIONI
 10
377.32
 11
380.82
 20
2389.544
 21
2386.044
  0
LINE
  8
COSTRUZIONI
 10
380.997
 11
377.497
 20
2386.044
 21
2389.544
  0
LINE
  8
COSTRUZIONI
 10
378.027
 11
381.527
 20
2389.544
 21
2386.044
  0
LINE
  8
COSTRUZIONI
 10
381.704
 11
378.204
 20
2386.044
 21
2389.544
  0
LINE
  8
COSTRUZIONI
 10
378.734
 11
382.234
 20
2389.544
 21
2386.044
  0
LINE
  8
COSTRUZIONI
 10
382.411
 11
378.911
 20
2386.044
 21
2389.544
  0
LINE
  8
COSTRUZIONI
 10
379.441
 11
382.941
 20
2389.544
 21
2386.044
  0
LINE
  8
COSTRUZIONI
 10
383.118
 11
379.618
 20
2386.044
 21
2389.544
  0
LINE
  8
COSTRUZIONI
 10
380.149
 11
383.649
 20
2389.544
 21
2386.044
  0
LINE
  8
COSTRUZIONI
 10
383.825
 11
380.325
 20
2386.044
 21
2389.544
  0
LINE
  8
COSTRUZIONI
 10
380.856
 11
384.356
 20
2389.544
 21
2386.044
  0
LINE
  8
COSTRUZIONI
 10
384.532
 11
381.032
 20
2386.044
 21
2389.544
  0
LINE
  8
COSTRUZIONI
 10
381.563
 11
385.063
 20
2389.544
 21
2386.044
  0
LINE
  8
COSTRUZIONI
 10
385.239
 11
381.739
 20
2386.044
 21
2389.544
  0
LINE
  8
COSTRUZIONI
 10
382.27
 11
385.77
 20
2389.544
 21
2386.044
  0
LINE
  8
COSTRUZIONI
 10
385.947
 11
382.447
 20
2386.044
 21
2389.544
  0
LINE
  8
COSTRUZIONI
 10
382.977
 11
386.477
 20
2389.544
 21
2386.044
  0
LINE
  8
COSTRUZIONI
 10
386.654
 11
383.154
 20
2386.044
 21
2389.544
  0
LINE
  8
COSTRUZIONI
 10
383.651
 11
387.184
 20
2389.577
 21
2386.044
  0
LINE
  8
COSTRUZIONI
 10
387.361
 11
383.777
 20
2386.044
 21
2389.627
  0
LINE
  8
COSTRUZIONI
 10
384.162
 11
387.891
 20
2389.773
 21
2386.044
  0
LINE
  8
COSTRUZIONI
 10
388.068
 11
384.292
 20
2386.044
 21
2389.819
  0
LINE
  8
COSTRUZIONI
 10
384.691
 11
388.598
 20
2389.951
 21
2386.044
  0
LINE
  8
COSTRUZIONI
 10
388.775
 11
384.826
 20
2386.044
 21
2389.993
  0
LINE
  8
COSTRUZIONI
 10
385.239
 11
389.305
 20
2390.11
 21
2386.044
  0
LINE
  8
COSTRUZIONI
 10
389.482
 11
385.38
 20
2386.044
 21
2390.146
  0
LINE
  8
COSTRUZIONI
 10
385.809
 11
390.012
 20
2390.247
 21
2386.044
  0
LINE
  8
COSTRUZIONI
 10
390.189
 11
385.955
 20
2386.044
 21
2390.278
  0
LINE
  8
COSTRUZIONI
 10
386.402
 11
390.72
 20
2390.361
 21
2386.044
  0
LINE
  8
COSTRUZIONI
 10
390.896
 11
386.554
 20
2386.044
 21
2390.386
  0
LINE
  8
COSTRUZIONI
 10
387.02
 11
391.427
 20
2390.451
 21
2386.044
  0
LINE
  8
COSTRUZIONI
 10
391.603
 11
387.178
 20
2386.044
 21
2390.469
  0
LINE
  8
COSTRUZIONI
 10
387.665
 11
392.134
 20
2390.512
 21
2386.044
  0
LINE
  8
COSTRUZIONI
 10
392.311
 11
387.832
 20
2386.044
 21
2390.523
  0
LINE
  8
COSTRUZIONI
 10
388.343
 11
392.841
 20
2390.542
 21
2386.044
  0
LINE
  8
COSTRUZIONI
 10
393.018
 11
388.518
 20
2386.044
 21
2390.543
  0
LINE
  8
COSTRUZIONI
 10
389.057
 11
393.548
 20
2390.534
 21
2386.044
  0
LINE
  8
COSTRUZIONI
 10
393.57
 11
389.242
 20
2386.198
 21
2390.526
  0
LINE
  8
COSTRUZIONI
 10
389.815
 11
393.57
 20
2390.484
 21
2386.728
  0
LINE
  8
COSTRUZIONI
 10
393.57
 11
390.012
 20
2386.905
 21
2390.463
  0
LINE
  8
COSTRUZIONI
 10
390.626
 11
393.57
 20
2390.38
 21
2387.435
  0
LINE
  8
COSTRUZIONI
 10
393.57
 11
390.838
 20
2387.612
 21
2390.344
  0
LINE
  8
COSTRUZIONI
 10
391.505
 11
393.57
 20
2390.208
 21
2388.142
  0
LINE
  8
COSTRUZIONI
 10
393.57
 11
391.738
 20
2388.319
 21
2390.152
  0
LINE
  8
COSTRUZIONI
 10
392.477
 11
393.57
 20
2389.942
 21
2388.85
  0
LINE
  8
COSTRUZIONI
 10
393.57
 11
392.74
 20
2389.026
 21
2389.857
  0
ARC
  8
COSTRUZIONI
 10
393.07
 20
2385.044
 40
1.0
 50
360.0
 51
90.0
  0
LINE
  8
COSTRUZIONI
 10
350.07
 11
350.07
 20
2419.243
 21
2375.279
  0
LINE
  8
COSTRUZIONI
 10
394.07
 11
394.07
 20
2372.486
 21
2385.044
  0
LINE
  8
COSTRUZIONI
 10
383.57
 11
383.57
 20
2389.544
 21
2416.244
  0
ARC
  8
COSTRUZIONI
 10
380.57
 20
2416.244
 40
3.0
 50
0.0
 51
90.0
  0
LINE
  8
COSTRUZIONI
 10
380.57
 11
358.57
 20
2419.244
 21
2419.244
  0
LINE
  8
COSTRUZIONI
 10
358.57
 11
358.57
 20
2419.244
 21
2405.243
  0
LINE
  8
COSTRUZIONI
 10
358.57
 11
354.27
 20
2405.243
 21
2405.243
  0
LINE
  8
COSTRUZIONI
 10
354.27
 11
354.27
 20
2405.243
 21
2419.243
  0
LINE
  8
COSTRUZIONI
 10
354.27
 11
350.07
 20
2419.243
 21
2419.243
  0
LINE
  8
COSTRUZIONI
 10
389.57
 11
409.931
 20
2389.244
 21
2389.244
  0
LINE
  8
COSTRUZIONI
 10
403.651
 11
381.57
 20
2434.244
 21
2434.244
  0
ARC
  8
COSTRUZIONI
 10
381.57
 20
2429.244
 40
5.0
 50
90.0
 51
180.0
  0
LINE
  8
COSTRUZIONI
 10
376.57
 11
376.57
 20
2429.244
 21
2421.244
  0
ARC
  8
COSTRUZIONI
 10
378.57
 20
2421.244
 40
2.0
 50
180.0
 51
270.0
  0
LINE
  8
COSTRUZIONI
 10
378.57
 11
386.57
 20
2419.244
 21
2419.244
  0
LINE
  8
COSTRUZIONI
 10
386.57
 11
386.57
 20
2419.244
 21
2392.244
  0
ARC
  8
COSTRUZIONI
 10
389.57
 20
2392.244
 40
3.0
 50
180.0
 51
270.0
  0
CIRCLE
  8
COSTRUZIONI
 10
366.92
 20
2427.893
 40
6.85
  0
LINE
  8
COSTRUZIONI
 10
372.958
 11
376.816
 20
2431.13
 21
2430.792
  0
LINE
  8
COSTRUZIONI
 10
376.57
 11
372.304
 20
2423.285
 21
2423.658
  0
LINE
  8
COSTRUZIONI
 10
370.67
 11
370.67
 20
2422.161
 21
2419.244
  0
LINE
  8
COSTRUZIONI
 10
363.17
 11
363.17
 20
2419.244
 21
2422.161
  0
LINE
  8
COSTRUZIONI
 10
365.944
 11
345.185
 20
2434.743
 21
2434.743
  0
LINE
  8
COSTRUZIONI
 10
360.07
 11
360.07
 20
2427.893
 21
2444.62
  0
CIRCLE
  8
COSTRUZIONI
 10
374.185
 20
2407.193
 40
40.0
  0
CIRCLE
  8
COSTRUZIONI
 10
466.529
 20
2406.87
 40
40.0
  0
LINE
  8
APS_GEOMETRY
 10
550.271
 11
600.271
 20
2372.78
 21
2372.78
  0
LINE
  8
APS_GEOMETRY
 10
600.271
 11
600.271
 20
2372.78
 21
2422.78
  0
LINE
  8
APS_GEOMETRY
 10
600.271
 11
550.271
 20
2422.78
 21
2422.78
  0
LINE
  8
APS_GEOMETRY
 10
550.271
 11
550.271
 20
2422.78
 21
2372.78
  0
LINE
  8
COSTRUZIONI
 10
631.639
 11
631.639
 20
2512.051
 21
2362.051
  0
LINE
  8
QUOTATURA
 10
30.0
 11
30.0
 20
-10.0
 21
-122.839
  0
LINE
  8
QUOTATURA
 10
776.0
 11
776.0
 20
-10.0
 21
-122.839
  0
LINE
  8
QUOTATURA
 10
30.0
 11
371.556
 20
-112.839
 21
-112.839
  0
LINE
  8
QUOTATURA
 10
434.444
 11
776.0
 20
-112.839
 21
-112.839
  0
LINE
  8
QUOTATURA
 10
50.0
 11
30.0
 20
-116.173
 21
-112.839
  0
LINE
  8
QUOTATURA
 10
30.0
 11
50.0
 20
-112.839
 21
-109.505
  0
LINE
  8
QUOTATURA
 10
50.0
 11
50.0
 20
-109.505
 21
-116.173
  0
LINE
  8
QUOTATURA
 10
756.0
 11
776.0
 20
-109.505
 21
-112.839
  0
LINE
  8
QUOTATURA
 10
776.0
 11
756.0
 20
-112.839
 21
-116.173
  0
LINE
  8
QUOTATURA
 10
756.0
 11
756.0
 20
-116.173
 21
-109.505
  0
LINE
  8
COSTRUZIONI
 10
144.5
 11
661.5
 20
2029.0
 21
130.0
  0
LINE
  8
COSTRUZIONI
 10
144.5
 11
661.5
 20
130.0
 21
2029.0
  0
LINE
  8
COSTRUZIONI
 10
1182.109
 11
1699.109
 20
2029.0
 21
130.0
  0
LINE
  8
COSTRUZIONI
 10
1182.109
 11
1699.109
 20
130.0
 21
2029.0
  0
CIRCLE
  8
COSTRUZIONI
 10
403.0
 20
504.25
 40
15.0
  0
LINE
  8
COSTRUZIONI
 10
410.5
 11
395.5
 20
504.25
 21
504.25
  0
CIRCLE
  8
COSTRUZIONI
 10
403.0
 20
1079.5
 40
15.0
  0
LINE
  8
COSTRUZIONI
 10
410.5
 11
395.5
 20
1079.5
 21
1079.5
  0
CIRCLE
  8
COSTRUZIONI
 10
403.0
 20
1654.75
 40
15.0
  0
LINE
  8
QUOTATURA
 10
384.146
 11
403.0
 20
1647.292
 21
1654.75
  0
LINE
  8
QUOTATURA
 10
403.0
 11
387.584
 20
1654.75
 21
1641.579
  0
LINE
  8
QUOTATURA
 10
387.584
 11
384.146
 20
1641.579
 21
1647.292
  0
LINE
  8
QUOTATURA
 10
403.0
 11
-283.855
 20
1654.75
 21
1241.29
  0
LINE
  8
QUOTATURA
 10
-283.855
 11
-576.414
 20
1241.29
 21
1241.29
  0
LINE
  8
QUOTATURA
 10
-576.414
 11
-576.414
 20
1241.29
 21
1108.309
  0
LINE
  8
QUOTATURA
 10
-576.414
 11
-286.514
 20
1108.309
 21
1108.309
  0
LINE
  8
QUOTATURA
 10
-286.514
 11
-286.514
 20
1108.309
 21
1241.29
  0
LINE
  8
QUOTATURA
 10
383.671
 11
403.0
 20
1085.624
 21
1079.5
  0
LINE
  8
QUOTATURA
 10
403.0
 11
382.73
 20
1079.5
 21
1079.023
  0
LINE
  8
QUOTATURA
 10
382.73
 11
383.671
 20
1079.023
 21
1085.624
  0
LINE
  8
QUOTATURA
 10
403.0
 11
-283.855
 20
1079.5
 21
1177.459
  0
LINE
  8
QUOTATURA
 10
390.626
 11
403.0
 20
520.312
 21
504.25
  0
LINE
  8
QUOTATURA
 10
403.0
 11
386.084
 20
504.25
 21
515.429
  0
LINE
  8
QUOTATURA
 10
386.084
 11
390.626
 20
515.429
 21
520.312
  0
LINE
  8
QUOTATURA
 10
403.0
 11
-286.514
 20
504.25
 21
1145.543
  0
CIRCLE
  8
COSTRUZIONI
 10
1440.609
 20
504.25
 40
15.0
  0
CIRCLE
  8
COSTRUZIONI
 10
1440.609
 20
1079.5
 40
15.0
  0
CIRCLE
  8
COSTRUZIONI
 10
1440.609
 20
1654.75
 40
15.0
  0
LINE
  8
QUOTATURA
 10
786.0
 11
888.854
 20
0.0
 21
0.0
  0
LINE
  8
QUOTATURA
 10
413.0
 11
888.854
 20
504.25
 21
504.25
  0
LINE
  8
QUOTATURA
 10
878.854
 11
878.854
 20
0.0
 21
236.881
  0
LINE
  8
QUOTATURA
 10
878.854
 11
878.854
 20
267.188
 21
504.25
  0
LINE
  8
QUOTATURA
 10
882.188
 11
878.854
 20
20.0
 21
0.0
  0
LINE
  8
QUOTATURA
 10
878.854
 11
875.52
 20
0.0
 21
20.0
  0
LINE
  8
QUOTATURA
 10
875.52
 11
882.188
 20
20.0
 21
20.0
  0
LINE
  8
QUOTATURA
 10
875.52
 11
878.854
 20
484.25
 21
504.25
  0
LINE
  8
QUOTATURA
 10
878.854
 11
882.188
 20
504.25
 21
484.25
  0
LINE
  8
QUOTATURA
 10
882.188
 11
875.52
 20
484.25
 21
484.25
  0
LINE
  8
QUOTATURA
 10
403.0
 11
403.0
 20
500.916
 21
507.584
  0
LINE
  8
QUOTATURA
 10
399.666
 11
406.334
 20
504.25
 21
504.25
  0
LINE
  8
QUOTATURA
 10
413.0
 11
887.993
 20
1079.5
 21
1079.5
  0
LINE
  8
QUOTATURA
 10
877.993
 11
877.993
 20
504.25
 21
776.713
  0
LINE
  8
QUOTATURA
 10
877.993
 11
877.993
 20
806.938
 21
1079.5
  0
LINE
  8
QUOTATURA
 10
881.327
 11
877.993
 20
524.25
 21
504.25
  0
LINE
  8
QUOTATURA
 10
877.993
 11
874.659
 20
504.25
 21
524.25
  0
LINE
  8
QUOTATURA
 10
874.659
 11
881.327
 20
524.25
 21
524.25
  0
LINE
  8
QUOTATURA
 10
874.659
 11
877.993
 20
1059.5
 21
1079.5
  0
LINE
  8
QUOTATURA
 10
877.993
 11
881.327
 20
1079.5
 21
1059.5
  0
LINE
  8
QUOTATURA
 10
881.327
 11
874.659
 20
1059.5
 21
1059.5
  0
LINE
  8
QUOTATURA
 10
403.0
 11
403.0
 20
500.916
 21
507.584
  0
LINE
  8
QUOTATURA
 10
399.666
 11
406.334
 20
504.25
 21
504.25
  0
LINE
  8
QUOTATURA
 10
403.0
 11
403.0
 20
1076.166
 21
1082.834
  0
LINE
  8
QUOTATURA
 10
399.666
 11
406.334
 20
1079.5
 21
1079.5
  0
LINE
  8
QUOTATURA
 10
413.0
 11
885.898
 20
1654.75
 21
1654.75
  0
LINE
  8
QUOTATURA
 10
875.898
 11
875.898
 20
1079.5
 21
1351.963
  0
LINE
  8
QUOTATURA
 10
875.898
 11
875.898
 20
1382.188
 21
1654.75
  0
LINE
  8
QUOTATURA
 10
879.232
 11
875.898
 20
1099.5
 21
1079.5
  0
LINE
  8
QUOTATURA
 10
875.898
 11
872.564
 20
1079.5
 21
1099.5
  0
LINE
  8
QUOTATURA
 10
872.564
 11
879.232
 20
1099.5
 21
1099.5
  0
LINE
  8
QUOTATURA
 10
872.564
 11
875.898
 20
1634.75
 21
1654.75
  0
LINE
  8
QUOTATURA
 10
875.898
 11
879.232
 20
1654.75
 21
1634.75
  0
LINE
  8
QUOTATURA
 10
879.232
 11
872.564
 20
1634.75
 21
1634.75
  0
LINE
  8
QUOTATURA
 10
403.0
 11
403.0
 20
1076.166
 21
1082.834
  0
LINE
  8
QUOTATURA
 10
399.666
 11
406.334
 20
1079.5
 21
1079.5
  0
LINE
  8
QUOTATURA
 10
403.0
 11
403.0
 20
1651.416
 21
1658.084
  0
LINE
  8
QUOTATURA
 10
399.666
 11
406.334
 20
1654.75
 21
1654.75
  0
LINE
  8
QUOTATURA
 10
786.0
 11
885.8
 20
2159.0
 21
2159.0
  0
LINE
  8
QUOTATURA
 10
875.8
 11
875.8
 20
1654.75
 21
1891.631
  0
LINE
  8
QUOTATURA
 10
875.8
 11
875.8
 20
1921.938
 21
2159.0
  0
LINE
  8
QUOTATURA
 10
879.134
 11
875.8
 20
1674.75
 21
1654.75
  0
LINE
  8
QUOTATURA
 10
875.8
 11
872.466
 20
1654.75
 21
1674.75
  0
LINE
  8
QUOTATURA
 10
872.466
 11
879.134
 20
1674.75
 21
1674.75
  0
LINE
  8
QUOTATURA
 10
872.466
 11
875.8
 20
2139.0
 21
2159.0
  0
LINE
  8
QUOTATURA
 10
875.8
 11
879.134
 20
2159.0
 21
2139.0
  0
LINE
  8
QUOTATURA
 10
879.134
 11
872.466
 20
2139.0
 21
2139.0
  0
LINE
  8
QUOTATURA
 10
403.0
 11
403.0
 20
1651.416
 21
1658.084
  0
LINE
  8
QUOTATURA
 10
399.666
 11
406.334
 20
1654.75
 21
1654.75
  0
LINE
  8
QUOTATURA
 10
20.0
 11
-104.926
 20
0.0
 21
0.0
  0
LINE
  8
QUOTATURA
 10
20.0
 11
-104.926
 20
2159.0
 21
2159.0
  0
LINE
  8
QUOTATURA
 10
-94.926
 11
-94.926
 20
0.0
 21
1064.252
  0
LINE
  8
QUOTATURA
 10
-94.926
 11
-94.926
 20
1094.563
 21
2159.0
  0
LINE
  8
QUOTATURA
 10
-91.592
 11
-94.926
 20
20.0
 21
0.0
  0
LINE
  8
QUOTATURA
 10
-94.926
 11
-98.26
 20
0.0
 21
20.0
  0
LINE
  8
QUOTATURA
 10
-98.26
 11
-91.592
 20
20.0
 21
20.0
  0
LINE
  8
QUOTATURA
 10
-98.26
 11
-94.926
 20
2139.0
 21
2159.0
  0
LINE
  8
QUOTATURA
 10
-94.926
 11
-91.592
 20
2159.0
 21
2139.0
  0
LINE
  8
QUOTATURA
 10
-91.592
 11
-98.26
 20
2139.0
 21
2139.0
  0
TEXT
  8
TEXT
 10
21.038
 20
1789.942
 30
0.0
 40
30.0
 50
0.0
  1
M
  0
TEXT
  8
TEXT
 10
75.999
 20
1788.664
 30
0.0
 40
30.0
 50
0.0
  1
V
  0
TEXT
  8
TEXT
 10
371.058
 20
2064.416
 30
0.0
 40
30.0
 50
0.0
  1
V
  0
TEXT
  8
TEXT
 10
697.903
 20
1768.223
 30
0.0
 40
30.0
 50
0.0
  1
V
  0
TEXT
  8
TEXT
 10
768.612
 20
1783.218
 30
0.0
 40
30.0
 50
0.0
  1
M
  0
TEXT
  8
TEXT
 10
355.65
 20
2151.633
 30
0.0
 40
30.0
 50
0.0
  1
M
  0
TEXT
  8
TEXT
 10
379.042
 20
-11.626
 30
0.0
 40
30.0
 50
0.0
  1
M
  0
TEXT
  8
TEXT
 10
379.042
 20
55.651
 30
0.0
 40
30.0
 50
0.0
  1
V
  0
TEXT
  8
TEXT
 10
168.958
 20
1267.456
 30
0.0
 40
30.0
 50
0.0
  1
AREA TRAFORATO
  0
TEXT
  8
TEXT
 10
476.916
 20
2284.138
 30
0.0
 40
30.0
 50
0.0
  1
PANNELLI TRAFORATI PER UNA ANTA 777X2159
  0
TEXT
  8
TEXT
 10
476.916
 20
2239.138
 30
0.0
 40
30.0
 50
0.0
  1
(SPESSORE 5.25)
  0
TEXT
  8
TEXT
 10
96.57
 20
-198.536
 30
0.0
 40
30.0
 50
0.0
  1
LEGENDA LAVORAZIONI LASER:
  0
TEXT
  8
TEXT
 10
96.57
 20
-243.536
 30
0.0
 40
30.0
 50
0.0
  1

  0
TEXT
  8
TEXT
 10
96.57
 20
-288.536
 30
0.0
 40
30.0
 50
0.0
  1
[ V ] = FUGA A V DI 1.5-3 mm largh.
  0
TEXT
  8
TEXT
 10
96.57
 20
-333.536
 30
0.0
 40
30.0
 50
0.0
  1
[ X ] = AREA TRAFORO SECONDO SPECIFICHE ARCHITETTO
  0
TEXT
  8
TEXT
 10
96.57
 20
-378.536
 30
0.0
 40
30.0
 50
0.0
  1

  0
TEXT
  8
TEXT
 10
96.57
 20
-423.536
 30
0.0
 40
30.0
 50
0.0
  1
LEGENDA LAVORAZIONI MANUALI
  0
TEXT
  8
TEXT
 10
96.57
 20
-468.536
 30
0.0
 40
30.0
 50
0.0
  1

  0
TEXT
  8
TEXT
 10
96.57
 20
-513.536
 30
0.0
 40
30.0
 50
0.0
  1
[ M ] = SPIGOLARE MANUALAMENTE
  0
TEXT
  8
TEXT
 10
-82.489
 20
-644.761
 30
0.0
 40
20.0
 50
0.0
  1
Ufficio tecnico:
  0
TEXT
  8
TEXT
 10
410.86
 20
-769.103
 30
0.0
 40
25.0
 50
0.0
  1
tel. 0577-68.54.26 - fax 0577-68.64.29
  0
TEXT
  8
TEXT
 10
410.86
 20
-806.603
 30
0.0
 40
25.0
 50
0.0
  1
e-mail: tecnico@toscocornici.it - web: www.tosococornici.it
  0
TEXT
  8
TEXT
 10
1021.949
 20
-798.295
 30
0.0
 40
40.0
 50
0.0
  1
B.Ste
  0
TEXT
  8
TEXT
 10
1170.369
 20
-798.295
 30
0.0
 40
40.0
 50
0.0
  1
f
  0
TEXT
  8
TEXT
 10
1201.054
 20
-798.295
 30
0.0
 40
40.0
 50
0.0
  1
ano
  0
TEXT
  8
TEXT
 10
917.73
 20
-641.799
 30
0.0
 40
20.0
 50
0.0
  1
documento:
  0
TEXT
  8
TEXT
 10
1418.931
 20
-641.713
 30
0.0
 40
20.0
 50
0.0
  1
data:
  0
TEXT
  8
TEXT
 10
1668.03
 20
-693.204
 30
0.0
 40
30.0
 50
0.0
  1
21/01/15
  0
TEXT
  8
TEXT
 10
1676.784
 20
-793.914
 30
0.0
 40
30.0
 50
0.0
  1
1 : 10
  0
TEXT
  8
TEXT
 10
915.916
 20
-740.023
 30
0.0
 40
20.0
 50
0.0
  1
responsabile tecnico:
  0
TEXT
  8
TEXT
 10
1417.512
 20
-740.313
 30
0.0
 40
20.0
 50
0.0
  1
scala:
  0
TEXT
  8
QUOTATURA
 10
-40.333
 20
1154.466
 30
0.0
 40
20.0
 50
0.0
  1
50
  0
TEXT
  8
QUOTATURA
 10
-65.491
 20
1102.974
 30
0.0
 40
20.0
 50
0.0
  1
64.5
  0
TEXT
  8
TEXT
 10
1161.386
 20
-694.92
 30
0.0
 40
17.0
 50
0.0
  1
PORTALAPORTA_STD-V_LASER_L746H2159
  0
TEXT
  8
QUOTATURA
 10
143.473
 20
-62.629
 30
0.0
 40
20.0
 50
0.0
  1
80
  0
TEXT
  8
QUOTATURA
 10
144.551
 20
2280.659
 30
0.0
 40
20.0
 50
0.0
  1
80
  0
TEXT
  8
TEXT
 10
23.157
 20
2660.159
 30
0.0
 40
30.0
 50
0.0
  1
RIF.
  0
TEXT
  8
TEXT
 10
276.379
 20
2660.159
 30
0.0
 40
30.0
 50
0.0
  1
QUANTITA'
  0
TEXT
  8
TEXT
 10
654.55
 20
2660.159
 30
0.0
 40
30.0
 50
0.0
  1
ESSENZA
  0
TEXT
  8
TEXT
 10
1100.848
 20
2660.159
 30
0.0
 40
30.0
 50
0.0
  1
MODELLO
  0
TEXT
  8
TEXT
 10
1453.972
 20
2660.159
 30
0.0
 40
30.0
 50
0.0
  1
CONSEGNA ENTRO IL
  0
TEXT
  8
TEXT
 10
-55.983
 20
2460.159
 30
0.0
 40
30.0
 50
0.0
  1
MANO APERTURA
  0
TEXT
  8
TEXT
 10
379.838
 20
2467.23
 30
0.0
 40
30.0
 50
0.0
  1
BATTENTE
  0
TEXT
  8
TEXT
 10
-71.998
 20
2373.187
 30
0.0
 40
50.0
 50
0.0
  1
SX
  0
TEXT
  8
TEXT
 10
156.205
 20
2373.187
 30
0.0
 40
50.0
 50
0.0
  1
DX
  0
TEXT
  8
TEXT
 10
240.663
 20
1676.098
 30
0.0
 40
200.0
 50
0.0
  1
SX   
  0
TEXT
  8
TEXT
 10
1097.814
 20
1676.098
 30
0.0
 40
200.0
 50
0.0
  1
 DX
  0
TEXT
  8
QUOTATURA
 10
376.005
 20
-122.839
 30
0.0
 40
20.0
 50
0.0
  1
746
  0
TEXT
  8
TEXT
 10
1290.169
 20
1236.259
 30
0.0
 40
30.0
 50
0.0
  1
AREA TRAFORATO
  0
TEXT
  8
TEXT
 10
-555.137
 20
1185.438
 30
0.0
 40
30.0
 50
0.0
  1
ISOLE
  0
TEXT
  8
TEXT
 10
-555.137
 20
1140.438
 30
0.0
 40
30.0
 50
0.0
  1
NON FORARE
  0
TEXT
  8
QUOTATURA
 10
829.509
 20
242.125
 30
0.0
 40
20.0
 50
0.0
  1
504.25
  0
TEXT
  8
QUOTATURA
 10
830.362
 20
781.875
 30
0.0
 40
20.0
 50
0.0
  1
575.25
  0
TEXT
  8
QUOTATURA
 10
828.267
 20
1357.125
 30
0.0
 40
20.0
 50
0.0
  1
575.25
  0
TEXT
  8
QUOTATURA
 10
826.454
 20
1896.875
 30
0.0
 40
20.0
 50
0.0
  1
504.25
  0
TEXT
  8
QUOTATURA
 10
-125.34
 20
1069.5
 30
0.0
 40
20.0
 50
0.0
  1
2159
  0
ENDSEC
  0
EOF
