  0
SECTION
  2
ENTITIES
  0
LINE
  8
COSTRUZIONI
 10
2623.900128
 11
2623.900128
 20
4.5
 21
2125.5
  0
LINE
  8
COSTRUZIONI
 10
2623.900128
 11
3618.900128
 20
2125.5
 21
2125.5
  0
LINE
  8
COSTRUZIONI
 10
3618.900128
 11
3618.900128
 20
2125.5
 21
4.5
  0
LINE
  8
COSTRUZIONI
 10
3618.900128
 11
2623.900128
 20
4.5
 21
4.5
  0
LINE
  8
COSTRUZIONI
 10
3504.400128
 11
2738.400128
 20
1995.5
 21
1995.5
  0
LINE
  8
COSTRUZIONI
 10
2738.400128
 11
2738.400128
 20
1995.5
 21
134.5
  0
LINE
  8
COSTRUZIONI
 10
2738.400128
 11
3504.400128
 20
134.5
 21
134.5
  0
LINE
  8
COSTRUZIONI
 10
3504.400128
 11
3504.400128
 20
134.5
 21
844.428204
  0
LINE
  8
COSTRUZIONI
 10
3504.400128
 11
3426.329866
 20
844.428204
 21
889.106648
  0
LINE
  8
COSTRUZIONI
 10
3426.329866
 11
3504.400128
 20
889.106648
 21
1124.030238
  0
LINE
  8
COSTRUZIONI
 10
3504.400128
 11
3504.400128
 20
1124.030238
 21
1995.5
  0
LINE
  8
COSTRUZIONI
 10
2688.400128
 11
3554.400128
 20
84.5
 21
84.5
  0
LINE
  8
COSTRUZIONI
 10
3554.400128
 11
3554.400128
 20
84.5
 21
873.422766
  0
LINE
  8
COSTRUZIONI
 10
3554.400128
 11
3486.684734
 20
873.422766
 21
912.175273
  0
LINE
  8
COSTRUZIONI
 10
3486.684734
 11
3554.400128
 20
912.175273
 21
1115.939716
  0
LINE
  8
COSTRUZIONI
 10
3554.400128
 11
3554.400128
 20
1115.939716
 21
2045.5
  0
LINE
  8
COSTRUZIONI
 10
3554.400128
 11
2688.400128
 20
2045.5
 21
2045.5
  0
LINE
  8
COSTRUZIONI
 10
2688.400128
 11
2688.400128
 20
2045.5
 21
84.5
  0
LINE
  8
COSTRUZIONI
 10
2738.400128
 11
3504.400128
 20
134.5
 21
1995.5
  0
LINE
  8
COSTRUZIONI
 10
2738.400128
 11
3504.400128
 20
1995.5
 21
134.5
  0
CIRCLE
  8
COSTRUZIONI
 10
3121.400128
 20
489.75
 40
15.0
  0
LINE
  8
COSTRUZIONI
 10
3128.900128
 11
3113.900128
 20
489.75
 21
489.75
  0
CIRCLE
  8
COSTRUZIONI
 10
3121.400128
 20
1065.0
 40
15.0
  0
LINE
  8
COSTRUZIONI
 10
3128.900128
 11
3113.900128
 20
1065.0
 21
1065.0
  0
CIRCLE
  8
COSTRUZIONI
 10
3121.400128
 20
1640.25
 40
15.0
  0
LINE
  8
COSTRUZIONI
 10
4929.984245
 11
4929.984245
 20
0.0
 21
2121.0
  0
LINE
  8
COSTRUZIONI
 10
4929.984245
 11
3934.984245
 20
2121.0
 21
2121.0
  0
LINE
  8
COSTRUZIONI
 10
3934.984245
 11
3934.984245
 20
2121.0
 21
0.0
  0
LINE
  8
COSTRUZIONI
 10
3934.984245
 11
4929.984245
 20
0.0
 21
0.0
  0
LINE
  8
COSTRUZIONI
 10
4049.484245
 11
4815.484245
 20
1991.0
 21
1991.0
  0
LINE
  8
COSTRUZIONI
 10
4815.484245
 11
4815.484245
 20
1991.0
 21
130.0
  0
LINE
  8
COSTRUZIONI
 10
4815.484245
 11
4049.484245
 20
130.0
 21
130.0
  0
LINE
  8
COSTRUZIONI
 10
4049.484245
 11
4049.484245
 20
130.0
 21
839.928204
  0
LINE
  8
COSTRUZIONI
 10
4049.484245
 11
4127.554507
 20
839.928204
 21
884.606648
  0
LINE
  8
COSTRUZIONI
 10
4127.554507
 11
4049.484245
 20
884.606648
 21
1119.530238
  0
LINE
  8
COSTRUZIONI
 10
4049.484245
 11
4049.484245
 20
1119.530238
 21
1991.0
  0
LINE
  8
COSTRUZIONI
 10
4865.484245
 11
3999.484245
 20
80.0
 21
80.0
  0
LINE
  8
COSTRUZIONI
 10
3999.484245
 11
3999.484245
 20
80.0
 21
868.922766
  0
LINE
  8
COSTRUZIONI
 10
3999.484245
 11
4067.199639
 20
868.922766
 21
907.675273
  0
LINE
  8
COSTRUZIONI
 10
4067.199639
 11
3999.484245
 20
907.675273
 21
1111.439716
  0
LINE
  8
COSTRUZIONI
 10
3999.484245
 11
3999.484245
 20
1111.439716
 21
2041.0
  0
LINE
  8
COSTRUZIONI
 10
3999.484245
 11
4865.484245
 20
2041.0
 21
2041.0
  0
LINE
  8
COSTRUZIONI
 10
4865.484245
 11
4865.484245
 20
2041.0
 21
80.0
  0
LINE
  8
COSTRUZIONI
 10
4815.484245
 11
4049.484245
 20
130.0
 21
1991.0
  0
LINE
  8
COSTRUZIONI
 10
4815.484245
 11
4049.484245
 20
1991.0
 21
130.0
  0
CIRCLE
  8
COSTRUZIONI
 10
4432.484245
 20
485.25
 40
15.0
  0
LINE
  8
COSTRUZIONI
 10
4424.984245
 11
4439.984245
 20
485.25
 21
485.25
  0
CIRCLE
  8
COSTRUZIONI
 10
4432.484245
 20
1060.5
 40
15.0
  0
LINE
  8
COSTRUZIONI
 10
4424.984245
 11
4439.984245
 20
1060.5
 21
1060.5
  0
CIRCLE
  8
COSTRUZIONI
 10
4432.484245
 20
1635.75
 40
15.0
  0
ENDSEC
  0
EOF
