  0
SECTION
  2
ENTITIES
  0
LINE
  8
COSTRUZIONI
 10
3396.900128
 11
3396.900128
 20
2113.5
 21
4.5
  0
LINE
  8
COSTRUZIONI
 10
3396.900128
 11
2612.900128
 20
4.5
 21
4.5
  0
LINE
  8
COSTRUZIONI
 10
3282.400128
 11
2612.400128
 20
264.5
 21
264.5
  0
LINE
  8
COSTRUZIONI
 10
2612.400128
 11
2612.400128
 20
264.5
 21
2164.5
  0
LINE
  8
COSTRUZIONI
 10
3282.400128
 11
3282.400128
 20
264.5
 21
844.428204
  0
LINE
  8
COSTRUZIONI
 10
3282.400128
 11
3204.329866
 20
844.428204
 21
889.106648
  0
LINE
  8
COSTRUZIONI
 10
3204.329866
 11
3282.400128
 20
889.106648
 21
1124.030238
  0
LINE
  8
COSTRUZIONI
 10
3282.400128
 11
3282.400128
 20
1124.030238
 21
1983.5
  0
LINE
  8
COSTRUZIONI
 10
3332.400128
 11
3332.400128
 20
2033.5
 21
1115.939716
  0
LINE
  8
COSTRUZIONI
 10
3332.400128
 11
3264.684734
 20
1115.939716
 21
912.175273
  0
LINE
  8
COSTRUZIONI
 10
3264.684734
 11
3332.400128
 20
912.175273
 21
873.422766
  0
LINE
  8
COSTRUZIONI
 10
3332.400128
 11
3332.400128
 20
873.422766
 21
214.5
  0
CIRCLE
  8
COSTRUZIONI
 10
2947.400128
 20
639.25
 40
15.0
  0
LINE
  8
COSTRUZIONI
 10
2954.900128
 11
2939.900128
 20
639.25
 21
639.25
  0
CIRCLE
  8
COSTRUZIONI
 10
2947.400128
 20
1214.5
 40
15.0
  0
LINE
  8
COSTRUZIONI
 10
2954.900128
 11
2939.900128
 20
1214.5
 21
1214.5
  0
CIRCLE
  8
COSTRUZIONI
 10
2947.400128
 20
1789.75
 40
15.0
  0
CIRCLE
  8
COSTRUZIONI
 10
2947.400128
 20
639.25
 40
15.0
  0
CIRCLE
  8
COSTRUZIONI
 10
2947.400128
 20
1214.5
 40
15.0
  0
CIRCLE
  8
COSTRUZIONI
 10
2947.400128
 20
1789.75
 40
15.0
  0
LINE
  8
COSTRUZIONI
 10
3396.900128
 11
3396.900128
 20
2424.5
 21
4.5
  0
LINE
  8
COSTRUZIONI
 10
3396.900128
 11
2497.900128
 20
2424.5
 21
2424.5
  0
LINE
  8
COSTRUZIONI
 10
2497.900128
 11
2497.900128
 20
2424.5
 21
4.5
  0
LINE
  8
COSTRUZIONI
 10
2497.900128
 11
3396.900128
 20
4.5
 21
4.5
  0
LINE
  8
COSTRUZIONI
 10
2612.400128
 11
3282.400128
 20
2164.5
 21
2164.5
  0
LINE
  8
COSTRUZIONI
 10
3282.400128
 11
3282.400128
 20
2164.5
 21
1124.030238
  0
LINE
  8
COSTRUZIONI
 10
3282.400128
 11
3204.329866
 20
1124.030238
 21
889.106648
  0
LINE
  8
COSTRUZIONI
 10
3204.329866
 11
3282.400128
 20
889.106648
 21
844.428204
  0
LINE
  8
COSTRUZIONI
 10
3282.400128
 11
3282.400128
 20
844.428204
 21
264.5
  0
LINE
  8
COSTRUZIONI
 10
3332.400128
 11
3332.400128
 20
2214.5
 21
1115.939716
  0
LINE
  8
COSTRUZIONI
 10
3332.400128
 11
3264.684734
 20
1115.939716
 21
912.175273
  0
LINE
  8
COSTRUZIONI
 10
3264.684734
 11
3332.400128
 20
912.175273
 21
873.422766
  0
LINE
  8
COSTRUZIONI
 10
3332.400128
 11
3332.400128
 20
873.422766
 21
214.5
  0
LINE
  8
COSTRUZIONI
 10
3332.400128
 11
2562.400128
 20
2214.5
 21
2214.5
  0
LINE
  8
COSTRUZIONI
 10
2562.400128
 11
2562.400128
 20
2214.5
 21
214.5
  0
LINE
  8
COSTRUZIONI
 10
2562.400128
 11
3332.400128
 20
214.5
 21
214.5
  0
LINE
  8
COSTRUZIONI
 10
2954.900128
 11
2939.900128
 20
639.25
 21
639.25
  0
LINE
  8
COSTRUZIONI
 10
2954.900128
 11
2939.900128
 20
1214.5
 21
1214.5
  0
LINE
  8
COSTRUZIONI
 10
2612.400128
 11
3282.400128
 20
2164.5
 21
264.5
  0
LINE
  8
COSTRUZIONI
 10
2612.400128
 11
3282.400128
 20
264.5
 21
2164.5
  0
LINE
  8
COSTRUZIONI
 10
3711.304396
 11
3711.304396
 20
2113.5
 21
4.5
  0
LINE
  8
COSTRUZIONI
 10
3711.304396
 11
4495.304396
 20
4.5
 21
4.5
  0
LINE
  8
COSTRUZIONI
 10
3825.804396
 11
4495.804396
 20
264.5
 21
264.5
  0
LINE
  8
COSTRUZIONI
 10
4495.804396
 11
4495.804396
 20
264.5
 21
2164.5
  0
LINE
  8
COSTRUZIONI
 10
3825.804396
 11
3825.804396
 20
264.5
 21
844.428204
  0
LINE
  8
COSTRUZIONI
 10
3825.804396
 11
3903.874658
 20
844.428204
 21
889.106648
  0
LINE
  8
COSTRUZIONI
 10
3903.874658
 11
3825.804396
 20
889.106648
 21
1124.030238
  0
LINE
  8
COSTRUZIONI
 10
3825.804396
 11
3825.804396
 20
1124.030238
 21
1983.5
  0
LINE
  8
COSTRUZIONI
 10
3775.804396
 11
3775.804396
 20
2033.5
 21
1115.939716
  0
LINE
  8
COSTRUZIONI
 10
3775.804396
 11
3843.51979
 20
1115.939716
 21
912.175273
  0
LINE
  8
COSTRUZIONI
 10
3843.51979
 11
3775.804396
 20
912.175273
 21
873.422766
  0
LINE
  8
COSTRUZIONI
 10
3775.804396
 11
3775.804396
 20
873.422766
 21
214.5
  0
CIRCLE
  8
COSTRUZIONI
 10
4160.804396
 20
639.25
 40
15.0
  0
LINE
  8
COSTRUZIONI
 10
4153.304396
 11
4168.304396
 20
639.25
 21
639.25
  0
CIRCLE
  8
COSTRUZIONI
 10
4160.804396
 20
1214.5
 40
15.0
  0
LINE
  8
COSTRUZIONI
 10
4153.304396
 11
4168.304396
 20
1214.5
 21
1214.5
  0
CIRCLE
  8
COSTRUZIONI
 10
4160.804396
 20
1789.75
 40
15.0
  0
CIRCLE
  8
COSTRUZIONI
 10
4160.804396
 20
639.25
 40
15.0
  0
CIRCLE
  8
COSTRUZIONI
 10
4160.804396
 20
1214.5
 40
15.0
  0
CIRCLE
  8
COSTRUZIONI
 10
4160.804396
 20
1789.75
 40
15.0
  0
LINE
  8
COSTRUZIONI
 10
3711.304396
 11
3711.304396
 20
2424.5
 21
4.5
  0
LINE
  8
COSTRUZIONI
 10
3711.304396
 11
4610.304396
 20
2424.5
 21
2424.5
  0
LINE
  8
COSTRUZIONI
 10
4610.304396
 11
4610.304396
 20
2424.5
 21
4.5
  0
LINE
  8
COSTRUZIONI
 10
4610.304396
 11
3711.304396
 20
4.5
 21
4.5
  0
LINE
  8
COSTRUZIONI
 10
4495.804396
 11
3825.804396
 20
2164.5
 21
2164.5
  0
LINE
  8
COSTRUZIONI
 10
3825.804396
 11
3825.804396
 20
2164.5
 21
1124.030238
  0
LINE
  8
COSTRUZIONI
 10
3825.804396
 11
3903.874658
 20
1124.030238
 21
889.106648
  0
LINE
  8
COSTRUZIONI
 10
3903.874658
 11
3825.804396
 20
889.106648
 21
844.428204
  0
LINE
  8
COSTRUZIONI
 10
3825.804396
 11
3825.804396
 20
844.428204
 21
264.5
  0
LINE
  8
COSTRUZIONI
 10
3775.804396
 11
3775.804396
 20
2214.5
 21
1115.939716
  0
LINE
  8
COSTRUZIONI
 10
3775.804396
 11
3843.51979
 20
1115.939716
 21
912.175273
  0
LINE
  8
COSTRUZIONI
 10
3843.51979
 11
3775.804396
 20
912.175273
 21
873.422766
  0
LINE
  8
COSTRUZIONI
 10
3775.804396
 11
3775.804396
 20
873.422766
 21
214.5
  0
LINE
  8
COSTRUZIONI
 10
3775.804396
 11
4545.804396
 20
2214.5
 21
2214.5
  0
LINE
  8
COSTRUZIONI
 10
4545.804396
 11
4545.804396
 20
2214.5
 21
214.5
  0
LINE
  8
COSTRUZIONI
 10
4545.804396
 11
3775.804396
 20
214.5
 21
214.5
  0
LINE
  8
COSTRUZIONI
 10
4153.304396
 11
4168.304396
 20
639.25
 21
639.25
  0
LINE
  8
COSTRUZIONI
 10
4153.304396
 11
4168.304396
 20
1214.5
 21
1214.5
  0
LINE
  8
COSTRUZIONI
 10
4495.804396
 11
3825.804396
 20
2164.5
 21
264.5
  0
LINE
  8
COSTRUZIONI
 10
4495.804396
 11
3825.804396
 20
264.5
 21
2164.5
  0
ENDSEC
  0
EOF
