  0
SECTION
  2
ENTITIES
  0
LINE
  8
COSTRUZIONI
 10
2620.900128
 11
2620.900128
 20
4.5
 21
2103.5
  0
LINE
  8
COSTRUZIONI
 10
2620.900128
 11
3496.900128
 20
2103.5
 21
2103.5
  0
LINE
  8
COSTRUZIONI
 10
3496.900128
 11
3496.900128
 20
2103.5
 21
4.5
  0
LINE
  8
COSTRUZIONI
 10
3496.900128
 11
2620.900128
 20
4.5
 21
4.5
  0
LINE
  8
COSTRUZIONI
 10
2735.400128
 11
3382.400128
 20
1973.5
 21
1973.5
  0
LINE
  8
COSTRUZIONI
 10
3382.400128
 11
3382.400128
 20
1973.5
 21
1124.030238
  0
LINE
  8
COSTRUZIONI
 10
3382.400128
 11
3304.329866
 20
1124.030238
 21
889.106648
  0
LINE
  8
COSTRUZIONI
 10
3304.329866
 11
3382.400128
 20
889.106648
 21
844.428204
  0
LINE
  8
COSTRUZIONI
 10
3382.400128
 11
3382.400128
 20
844.428204
 21
134.5
  0
LINE
  8
COSTRUZIONI
 10
3382.400128
 11
2735.400128
 20
134.5
 21
134.5
  0
LINE
  8
COSTRUZIONI
 10
2735.400128
 11
2735.400128
 20
134.5
 21
1973.5
  0
LINE
  8
COSTRUZIONI
 10
2685.400128
 11
3432.400128
 20
2023.5
 21
2023.5
  0
LINE
  8
COSTRUZIONI
 10
3432.400128
 11
3432.400128
 20
2023.5
 21
1115.939716
  0
LINE
  8
COSTRUZIONI
 10
3432.400128
 11
3364.684734
 20
1115.939716
 21
912.175273
  0
LINE
  8
COSTRUZIONI
 10
3364.684734
 11
3432.400128
 20
912.175273
 21
873.422766
  0
LINE
  8
COSTRUZIONI
 10
3432.400128
 11
3432.400128
 20
873.422766
 21
84.5
  0
LINE
  8
COSTRUZIONI
 10
3432.400128
 11
2685.400128
 20
84.5
 21
84.5
  0
LINE
  8
COSTRUZIONI
 10
2685.400128
 11
2685.400128
 20
84.5
 21
2023.5
  0
CIRCLE
  8
COSTRUZIONI
 10
3058.900128
 20
478.75
 40
15.0
  0
CIRCLE
  8
COSTRUZIONI
 10
3058.900128
 20
1054.0
 40
15.0
  0
CIRCLE
  8
COSTRUZIONI
 10
3058.900128
 20
1629.25
 40
15.0
  0
LINE
  8
COSTRUZIONI
 10
2735.400128
 11
3382.400128
 20
1973.5
 21
134.5
  0
LINE
  8
COSTRUZIONI
 10
2735.400128
 11
3382.400128
 20
134.5
 21
1973.5
  0
LINE
  8
COSTRUZIONI
 10
4776.926087
 11
4776.926087
 20
4.5
 21
2103.5
  0
LINE
  8
COSTRUZIONI
 10
4776.926087
 11
3900.926087
 20
2103.5
 21
2103.5
  0
LINE
  8
COSTRUZIONI
 10
3900.926087
 11
3900.926087
 20
2103.5
 21
4.5
  0
LINE
  8
COSTRUZIONI
 10
3900.926087
 11
4776.926087
 20
4.5
 21
4.5
  0
LINE
  8
COSTRUZIONI
 10
4662.426087
 11
4015.426087
 20
1973.5
 21
1973.5
  0
LINE
  8
COSTRUZIONI
 10
4015.426087
 11
4015.426087
 20
1973.5
 21
1124.030238
  0
LINE
  8
COSTRUZIONI
 10
4015.426087
 11
4093.496349
 20
1124.030238
 21
889.106648
  0
LINE
  8
COSTRUZIONI
 10
4093.496349
 11
4015.426087
 20
889.106648
 21
844.428204
  0
LINE
  8
COSTRUZIONI
 10
4015.426087
 11
4015.426087
 20
844.428204
 21
134.5
  0
LINE
  8
COSTRUZIONI
 10
4015.426087
 11
4662.426087
 20
134.5
 21
134.5
  0
LINE
  8
COSTRUZIONI
 10
4662.426087
 11
4662.426087
 20
134.5
 21
1973.5
  0
LINE
  8
COSTRUZIONI
 10
4712.426087
 11
3965.426087
 20
2023.5
 21
2023.5
  0
LINE
  8
COSTRUZIONI
 10
3965.426087
 11
3965.426087
 20
2023.5
 21
1115.939716
  0
LINE
  8
COSTRUZIONI
 10
3965.426087
 11
4033.14148
 20
1115.939716
 21
912.175273
  0
LINE
  8
COSTRUZIONI
 10
4033.14148
 11
3965.426087
 20
912.175273
 21
873.422766
  0
LINE
  8
COSTRUZIONI
 10
3965.426087
 11
3965.426087
 20
873.422766
 21
84.5
  0
LINE
  8
COSTRUZIONI
 10
3965.426087
 11
4712.426087
 20
84.5
 21
84.5
  0
LINE
  8
COSTRUZIONI
 10
4712.426087
 11
4712.426087
 20
84.5
 21
2023.5
  0
CIRCLE
  8
COSTRUZIONI
 10
4338.926087
 20
478.75
 40
15.0
  0
CIRCLE
  8
COSTRUZIONI
 10
4338.926087
 20
1054.0
 40
15.0
  0
CIRCLE
  8
COSTRUZIONI
 10
4338.926087
 20
1629.25
 40
15.0
  0
LINE
  8
COSTRUZIONI
 10
4662.426087
 11
4015.426087
 20
1973.5
 21
134.5
  0
LINE
  8
COSTRUZIONI
 10
4662.426087
 11
4015.426087
 20
134.5
 21
1973.5
  0
ENDSEC
  0
EOF
