  0
SECTION
  2
ENTITIES
  0
CIRCLE
  8
COSTRUZIONI
 10
3017.400128
 20
465.25
 40
15.0
  0
CIRCLE
  8
COSTRUZIONI
 10
3017.400128
 20
1040.5
 40
15.0
  0
CIRCLE
  8
COSTRUZIONI
 10
3017.400128
 20
1615.75
 40
15.0
  0
LINE
  8
COSTRUZIONI
 10
2637.900128
 11
3396.900128
 20
2076.5
 21
2076.5
  0
LINE
  8
COSTRUZIONI
 10
3396.900128
 11
3396.900128
 20
2076.5
 21
4.5
  0
LINE
  8
COSTRUZIONI
 10
3396.900128
 11
2637.900128
 20
4.5
 21
4.5
  0
LINE
  8
COSTRUZIONI
 10
2637.900128
 11
2637.900128
 20
4.5
 21
2076.5
  0
LINE
  8
COSTRUZIONI
 10
3282.400128
 11
3282.400128
 20
1124.030238
 21
1946.5
  0
LINE
  8
COSTRUZIONI
 10
3282.400128
 11
2752.400128
 20
1946.5
 21
1946.5
  0
LINE
  8
COSTRUZIONI
 10
2752.400128
 11
2752.400128
 20
1946.5
 21
134.5
  0
LINE
  8
COSTRUZIONI
 10
2752.400128
 11
3282.400128
 20
134.5
 21
134.5
  0
LINE
  8
COSTRUZIONI
 10
3282.400128
 11
3282.400128
 20
134.5
 21
844.428204
  0
LINE
  8
COSTRUZIONI
 10
3282.400128
 11
3204.329866
 20
844.428204
 21
889.106648
  0
LINE
  8
COSTRUZIONI
 10
3204.329866
 11
3282.400128
 20
889.106648
 21
1124.030238
  0
LINE
  8
COSTRUZIONI
 10
3332.400128
 11
3332.400128
 20
1115.939716
 21
1996.5
  0
LINE
  8
COSTRUZIONI
 10
3332.400128
 11
2702.400128
 20
1996.5
 21
1996.5
  0
LINE
  8
COSTRUZIONI
 10
2702.400128
 11
2702.400128
 20
1996.5
 21
84.5
  0
LINE
  8
COSTRUZIONI
 10
2702.400128
 11
3332.400128
 20
84.5
 21
84.5
  0
LINE
  8
COSTRUZIONI
 10
3332.400128
 11
3332.400128
 20
84.5
 21
873.422766
  0
LINE
  8
COSTRUZIONI
 10
3332.400128
 11
3264.684734
 20
873.422766
 21
912.175273
  0
LINE
  8
COSTRUZIONI
 10
3264.684734
 11
3332.400128
 20
912.175273
 21
1115.939716
  0
LINE
  8
COSTRUZIONI
 10
2752.400128
 11
3282.400128
 20
1946.5
 21
134.5
  0
LINE
  8
COSTRUZIONI
 10
2752.400128
 11
3282.400128
 20
134.5
 21
1946.5
  0
CIRCLE
  8
COSTRUZIONI
 10
4091.982915
 20
465.25
 40
15.0
  0
CIRCLE
  8
COSTRUZIONI
 10
4091.982915
 20
1040.5
 40
15.0
  0
CIRCLE
  8
COSTRUZIONI
 10
4091.982915
 20
1615.75
 40
15.0
  0
LINE
  8
COSTRUZIONI
 10
4471.482915
 11
3712.482915
 20
2076.5
 21
2076.5
  0
LINE
  8
COSTRUZIONI
 10
3712.482915
 11
3712.482915
 20
2076.5
 21
4.5
  0
LINE
  8
COSTRUZIONI
 10
3712.482915
 11
4471.482915
 20
4.5
 21
4.5
  0
LINE
  8
COSTRUZIONI
 10
4471.482915
 11
4471.482915
 20
4.5
 21
2076.5
  0
LINE
  8
COSTRUZIONI
 10
3826.982915
 11
3826.982915
 20
1124.030238
 21
1946.5
  0
LINE
  8
COSTRUZIONI
 10
3826.982915
 11
4356.982915
 20
1946.5
 21
1946.5
  0
LINE
  8
COSTRUZIONI
 10
4356.982915
 11
4356.982915
 20
1946.5
 21
134.5
  0
LINE
  8
COSTRUZIONI
 10
4356.982915
 11
3826.982915
 20
134.5
 21
134.5
  0
LINE
  8
COSTRUZIONI
 10
3826.982915
 11
3826.982915
 20
134.5
 21
844.428204
  0
LINE
  8
COSTRUZIONI
 10
3826.982915
 11
3905.053177
 20
844.428204
 21
889.106648
  0
LINE
  8
COSTRUZIONI
 10
3905.053177
 11
3826.982915
 20
889.106648
 21
1124.030238
  0
LINE
  8
COSTRUZIONI
 10
3776.982915
 11
3776.982915
 20
1115.939716
 21
1996.5
  0
LINE
  8
COSTRUZIONI
 10
3776.982915
 11
4406.982915
 20
1996.5
 21
1996.5
  0
LINE
  8
COSTRUZIONI
 10
4406.982915
 11
4406.982915
 20
1996.5
 21
84.5
  0
LINE
  8
COSTRUZIONI
 10
4406.982915
 11
3776.982915
 20
84.5
 21
84.5
  0
LINE
  8
COSTRUZIONI
 10
3776.982915
 11
3776.982915
 20
84.5
 21
873.422766
  0
LINE
  8
COSTRUZIONI
 10
3776.982915
 11
3844.698309
 20
873.422766
 21
912.175273
  0
LINE
  8
COSTRUZIONI
 10
3844.698309
 11
3776.982915
 20
912.175273
 21
1115.939716
  0
LINE
  8
COSTRUZIONI
 10
4356.982915
 11
3826.982915
 20
1946.5
 21
134.5
  0
LINE
  8
COSTRUZIONI
 10
4356.982915
 11
3826.982915
 20
134.5
 21
1946.5
  0
ENDSEC
  0
EOF
