  0
SECTION
  2
ENTITIES
  0
LINE
  8
COSTRUZIONI
 10
2531.880455
 11
4531.880455
 20
-814.866178
 21
-814.866178
  0
LINE
  8
COSTRUZIONI
 10
4531.880455
 11
4531.880455
 20
-814.866178
 21
-614.866178
  0
LINE
  8
COSTRUZIONI
 10
4531.880455
 11
2531.880455
 20
-614.866178
 21
-614.866178
  0
LINE
  8
COSTRUZIONI
 10
2531.880455
 11
2531.880455
 20
-614.866178
 21
-814.866178
  0
LINE
  8
COSTRUZIONI
 10
3531.880455
 11
3531.880455
 20
-814.866178
 21
-614.866178
  0
LINE
  8
COSTRUZIONI
 10
3531.880455
 11
4531.880455
 20
-714.866178
 21
-714.866178
  0
LINE
  8
COSTRUZIONI
 10
4031.880455
 11
4031.880455
 20
-814.866178
 21
-614.866178
  0
LINE
  8
COSTRUZIONI
 10
2473.715145
 11
2473.715145
 20
2463.551432
 21
2663.551467
  0
LINE
  8
COSTRUZIONI
 10
2473.715145
 11
4473.715169
 20
2663.551467
 21
2663.551467
  0
LINE
  8
COSTRUZIONI
 10
4473.715169
 11
4473.715169
 20
2663.551467
 21
2463.551432
  0
LINE
  8
COSTRUZIONI
 10
4473.715169
 11
2473.715145
 20
2463.551432
 21
2463.551432
  0
LINE
  8
COSTRUZIONI
 10
2773.715145
 11
2773.715145
 20
2463.551432
 21
2663.551467
  0
LINE
  8
COSTRUZIONI
 10
3073.715145
 11
3073.715145
 20
2463.551432
 21
2663.551467
  0
LINE
  8
COSTRUZIONI
 10
3523.715145
 11
3523.715145
 20
2463.551432
 21
2663.551467
  0
LINE
  8
COSTRUZIONI
 10
3973.715145
 11
3973.715145
 20
2463.551432
 21
2663.551467
  0
LINE
  8
COSTRUZIONI
 10
2473.715145
 11
2473.715122
 20
2463.551432
 21
2313.551419
  0
LINE
  8
COSTRUZIONI
 10
2473.715122
 11
4473.715169
 20
2313.551419
 21
2313.551419
  0
LINE
  8
COSTRUZIONI
 10
4473.715169
 11
4473.715169
 20
2463.551432
 21
2313.551419
  0
LINE
  8
COSTRUZIONI
 10
2868.693428
 11
2868.693405
 20
2463.551432
 21
2313.551419
  0
LINE
  8
COSTRUZIONI
 10
2473.715135
 11
2868.693418
 20
2395.554414
 21
2395.554414
  0
LINE
  8
COSTRUZIONI
 10
2671.204276
 11
2671.204276
 20
2395.554414
 21
2313.551419
  0
LINE
  8
COSTRUZIONI
 10
3017.033106
 11
3034.733107
 20
2350.51734
 21
2350.51734
  0
LINE
  8
COSTRUZIONI
 10
3034.733107
 11
3034.733107
 20
2350.51734
 21
2347.01734
  0
LINE
  8
COSTRUZIONI
 10
3034.733107
 11
3017.033106
 20
2347.01734
 21
2347.01734
  0
LINE
  8
COSTRUZIONI
 10
3017.033106
 11
3017.033106
 20
2347.01734
 21
2350.51734
  0
LINE
  8
COSTRUZIONI
 10
3024.733107
 11
3024.733107
 20
2350.51734
 21
2377.01734
  0
ARC
  8
COSTRUZIONI
 10
3021.733107
 20
2377.01734
 40
3.0
 50
0.0
 51
90.0
  0
LINE
  8
COSTRUZIONI
 10
3021.733107
 11
3002.733069
 20
2380.01734
 21
2380.01734
  0
ARC
  8
COSTRUZIONI
 10
3002.733069
 20
2377.01734
 40
3.0
 50
90.0
 51
180.0
  0
LINE
  8
COSTRUZIONI
 10
2999.733069
 11
2999.733069
 20
2377.01734
 21
2356.01734
  0
LINE
  8
COSTRUZIONI
 10
2999.733069
 11
2995.233069
 20
2356.01734
 21
2356.01734
  0
LINE
  8
COSTRUZIONI
 10
2995.233069
 11
2995.233069
 20
2356.01734
 21
2370.01734
  0
LINE
  8
COSTRUZIONI
 10
2995.233069
 11
2991.233069
 20
2370.01734
 21
2370.01734
  0
LINE
  8
COSTRUZIONI
 10
2991.233069
 11
2991.233069
 20
2370.01734
 21
2334.236311
  0
LINE
  8
COSTRUZIONI
 10
3035.233107
 11
3035.233107
 20
2320.244801
 21
2346.01734
  0
LINE
  8
COSTRUZIONI
 10
3055.607146
 11
3040.733107
 20
2335.01734
 21
2335.01734
  0
ARC
  8
COSTRUZIONI
 10
3040.733107
 20
2338.01734
 40
3.0
 50
180.0
 51
270.0
  0
LINE
  8
COSTRUZIONI
 10
3037.733107
 11
3037.733107
 20
2338.01734
 21
2350.01734
  0
LINE
  8
COSTRUZIONI
 10
3037.733107
 11
3029.233107
 20
2350.01734
 21
2350.01734
  0
ARC
  8
COSTRUZIONI
 10
3029.233107
 20
2351.51734
 40
1.5
 50
180.0
 51
270.0
  0
LINE
  8
COSTRUZIONI
 10
3027.733107
 11
3027.733107
 20
2351.51734
 21
2377.01734
  0
ARC
  8
COSTRUZIONI
 10
3030.733107
 20
2377.01734
 40
3.0
 50
90.0
 51
180.0
  0
LINE
  8
COSTRUZIONI
 10
3030.733107
 11
3056.768496
 20
2380.01734
 21
2380.01734
  0
LINE
  8
COSTRUZIONI
 10
2932.47333
 11
2940.173331
 20
2341.04351
 21
2341.04351
  0
ARC
  8
COSTRUZIONI
 10
2945.173331
 20
2329.04351
 40
13.0
 50
67.380135
 51
112.619865
  0
LINE
  8
COSTRUZIONI
 10
2950.173331
 11
2950.173331
 20
2341.04351
 21
2337.54351
  0
LINE
  8
COSTRUZIONI
 10
2950.173331
 11
2932.47333
 20
2337.54351
 21
2337.54351
  0
LINE
  8
COSTRUZIONI
 10
2932.47333
 11
2932.47333
 20
2337.54351
 21
2341.04351
  0
LINE
  8
COSTRUZIONI
 10
2932.650107
 11
2932.47333
 20
2337.54351
 21
2337.720287
  0
LINE
  8
COSTRUZIONI
 10
2932.47333
 11
2933.180437
 20
2338.250617
 21
2337.54351
  0
LINE
  8
COSTRUZIONI
 10
2933.357214
 11
2932.47333
 20
2337.54351
 21
2338.427394
  0
LINE
  8
COSTRUZIONI
 10
2932.47333
 11
2933.887544
 20
2338.957724
 21
2337.54351
  0
LINE
  8
COSTRUZIONI
 10
2934.064321
 11
2932.47333
 20
2337.54351
 21
2339.134501
  0
LINE
  8
COSTRUZIONI
 10
2932.47333
 11
2934.594651
 20
2339.664831
 21
2337.54351
  0
LINE
  8
COSTRUZIONI
 10
2934.771427
 11
2932.47333
 20
2337.54351
 21
2339.841607
  0
LINE
  8
COSTRUZIONI
 10
2932.47333
 11
2935.301757
 20
2340.371938
 21
2337.54351
  0
LINE
  8
COSTRUZIONI
 10
2935.478534
 11
2932.47333
 20
2337.54351
 21
2340.548714
  0
LINE
  8
COSTRUZIONI
 10
2932.508864
 11
2936.008864
 20
2341.04351
 21
2337.54351
  0
LINE
  8
COSTRUZIONI
 10
2936.185641
 11
2932.685641
 20
2337.54351
 21
2341.04351
  0
LINE
  8
COSTRUZIONI
 10
2933.215971
 11
2936.715971
 20
2341.04351
 21
2337.54351
  0
LINE
  8
COSTRUZIONI
 10
2936.892748
 11
2933.392748
 20
2337.54351
 21
2341.04351
  0
LINE
  8
COSTRUZIONI
 10
2933.923078
 11
2937.423078
 20
2341.04351
 21
2337.54351
  0
LINE
  8
COSTRUZIONI
 10
2937.599854
 11
2934.099854
 20
2337.54351
 21
2341.04351
  0
LINE
  8
COSTRUZIONI
 10
2934.630184
 11
2938.130184
 20
2341.04351
 21
2337.54351
  0
LINE
  8
COSTRUZIONI
 10
2938.306961
 11
2934.806961
 20
2337.54351
 21
2341.04351
  0
LINE
  8
COSTRUZIONI
 10
2935.337291
 11
2938.837291
 20
2341.04351
 21
2337.54351
  0
LINE
  8
COSTRUZIONI
 10
2939.014068
 11
2935.514068
 20
2337.54351
 21
2341.04351
  0
LINE
  8
COSTRUZIONI
 10
2936.044398
 11
2939.544398
 20
2341.04351
 21
2337.54351
  0
LINE
  8
COSTRUZIONI
 10
2939.721175
 11
2936.221175
 20
2337.54351
 21
2341.04351
  0
LINE
  8
COSTRUZIONI
 10
2936.751505
 11
2940.251505
 20
2341.04351
 21
2337.54351
  0
LINE
  8
COSTRUZIONI
 10
2940.428282
 11
2936.928282
 20
2337.54351
 21
2341.04351
  0
LINE
  8
COSTRUZIONI
 10
2937.458612
 11
2940.958612
 20
2341.04351
 21
2337.54351
  0
LINE
  8
COSTRUZIONI
 10
2941.135388
 11
2937.635388
 20
2337.54351
 21
2341.04351
  0
LINE
  8
COSTRUZIONI
 10
2938.165718
 11
2941.665718
 20
2341.04351
 21
2337.54351
  0
LINE
  8
COSTRUZIONI
 10
2941.842495
 11
2938.342495
 20
2337.54351
 21
2341.04351
  0
LINE
  8
COSTRUZIONI
 10
2938.872825
 11
2942.372825
 20
2341.04351
 21
2337.54351
  0
LINE
  8
COSTRUZIONI
 10
2942.549602
 11
2939.049602
 20
2337.54351
 21
2341.04351
  0
LINE
  8
COSTRUZIONI
 10
2939.579932
 11
2943.079932
 20
2341.04351
 21
2337.54351
  0
LINE
  8
COSTRUZIONI
 10
2943.256709
 11
2939.756709
 20
2337.54351
 21
2341.04351
  0
LINE
  8
COSTRUZIONI
 10
2940.253818
 11
2943.787039
 20
2341.076731
 21
2337.54351
  0
LINE
  8
COSTRUZIONI
 10
2943.963815
 11
2940.379841
 20
2337.54351
 21
2341.127485
  0
LINE
  8
COSTRUZIONI
 10
2940.764561
 11
2944.494146
 20
2341.273095
 21
2337.54351
  0
LINE
  8
COSTRUZIONI
 10
2944.670922
 11
2940.895072
 20
2337.54351
 21
2341.319361
  0
LINE
  8
COSTRUZIONI
 10
2941.293666
 11
2945.201252
 20
2341.451097
 21
2337.54351
  0
LINE
  8
COSTRUZIONI
 10
2945.378029
 11
2941.428949
 20
2337.54351
 21
2341.492591
  0
LINE
  8
COSTRUZIONI
 10
2941.842351
 11
2945.908359
 20
2341.609519
 21
2337.54351
  0
LINE
  8
COSTRUZIONI
 10
2946.085136
 11
2941.982748
 20
2337.54351
 21
2341.645898
  0
LINE
  8
COSTRUZIONI
 10
2942.412097
 11
2946.615466
 20
2341.74688
 21
2337.54351
  0
LINE
  8
COSTRUZIONI
 10
2946.792243
 11
2942.558029
 20
2337.54351
 21
2341.777724
  0
LINE
  8
COSTRUZIONI
 10
2943.004727
 11
2947.322573
 20
2341.861356
 21
2337.54351
  0
LINE
  8
COSTRUZIONI
 10
2947.499349
 11
2943.156715
 20
2337.54351
 21
2341.886145
  0
LINE
  8
COSTRUZIONI
 10
2943.622512
 11
2948.029679
 20
2341.950678
 21
2337.54351
  0
LINE
  8
COSTRUZIONI
 10
2948.206456
 11
2943.78121
 20
2337.54351
 21
2341.968757
  0
LINE
  8
COSTRUZIONI
 10
2944.268326
 11
2948.736786
 20
2342.011971
 21
2337.54351
  0
LINE
  8
COSTRUZIONI
 10
2948.913563
 11
2944.434571
 20
2337.54351
 21
2342.022502
  0
LINE
  8
COSTRUZIONI
 10
2944.945883
 11
2949.443893
 20
2342.041521
 21
2337.54351
  0
LINE
  8
COSTRUZIONI
 10
2949.62067
 11
2945.120776
 20
2337.54351
 21
2342.043404
  0
LINE
  8
COSTRUZIONI
 10
2945.660117
 11
2950.151
 20
2342.034393
 21
2337.54351
  0
LINE
  8
COSTRUZIONI
 10
2950.173331
 11
2945.845147
 20
2337.697956
 21
2342.02614
  0
LINE
  8
COSTRUZIONI
 10
2946.41781
 11
2950.173331
 20
2341.983807
 21
2338.228286
  0
LINE
  8
COSTRUZIONI
 10
2950.173331
 11
2946.615078
 20
2338.405063
 21
2341.963316
  0
LINE
  8
COSTRUZIONI
 10
2947.228729
 11
2950.173331
 20
2341.879995
 21
2338.935393
  0
LINE
  8
COSTRUZIONI
 10
2950.173331
 11
2947.441364
 20
2339.112169
 21
2341.844136
  0
LINE
  8
COSTRUZIONI
 10
2948.107861
 11
2950.173331
 20
2341.70797
 21
2339.6425
  0
LINE
  8
COSTRUZIONI
 10
2950.173331
 11
2948.340906
 20
2339.819276
 21
2341.651701
  0
LINE
  8
COSTRUZIONI
 10
2949.080462
 11
2950.173331
 20
2341.442475
 21
2340.349606
  0
LINE
  8
COSTRUZIONI
 10
2950.173331
 11
2949.343069
 20
2340.526383
 21
2341.356645
  0
ARC
  8
COSTRUZIONI
 10
2949.673331
 20
2336.54351
 40
1.0
 50
0.0
 51
90.0
  0
LINE
  8
COSTRUZIONI
 10
2906.673339
 11
2906.673339
 20
2370.743475
 21
2326.779193
  0
LINE
  8
COSTRUZIONI
 10
2950.673331
 11
2950.673331
 20
2323.986273
 21
2336.54351
  0
LINE
  8
COSTRUZIONI
 10
2940.173331
 11
2940.173331
 20
2341.04351
 21
2367.743511
  0
ARC
  8
COSTRUZIONI
 10
2937.173331
 20
2367.743511
 40
3.0
 50
0.0
 51
90.0
  0
LINE
  8
COSTRUZIONI
 10
2937.173331
 11
2915.173339
 20
2370.743511
 21
2370.743511
  0
LINE
  8
COSTRUZIONI
 10
2915.173339
 11
2915.173339
 20
2370.743511
 21
2356.743475
  0
LINE
  8
COSTRUZIONI
 10
2915.173339
 11
2910.873339
 20
2356.743475
 21
2356.743475
  0
LINE
  8
COSTRUZIONI
 10
2910.873339
 11
2910.873339
 20
2356.743475
 21
2370.743475
  0
LINE
  8
COSTRUZIONI
 10
2910.873339
 11
2906.673339
 20
2370.743475
 21
2370.743475
  0
LINE
  8
COSTRUZIONI
 10
2946.173331
 11
2966.534286
 20
2340.743616
 21
2340.743616
  0
LINE
  8
COSTRUZIONI
 10
2960.254124
 11
2938.173331
 20
2385.743616
 21
2385.743616
  0
ARC
  8
COSTRUZIONI
 10
2938.173331
 20
2380.743616
 40
5.0
 50
90.0
 51
180.0
  0
LINE
  8
COSTRUZIONI
 10
2933.173331
 11
2933.173331
 20
2380.743616
 21
2372.743616
  0
ARC
  8
COSTRUZIONI
 10
2935.173331
 20
2372.743616
 40
2.0
 50
180.0
 51
270.0
  0
LINE
  8
COSTRUZIONI
 10
2935.173331
 11
2943.173331
 20
2370.743616
 21
2370.743616
  0
LINE
  8
COSTRUZIONI
 10
2943.173331
 11
2943.173331
 20
2370.743616
 21
2343.743616
  0
ARC
  8
COSTRUZIONI
 10
2946.173331
 20
2343.743616
 40
3.0
 50
180.0
 51
270.0
  0
CIRCLE
  8
COSTRUZIONI
 10
2923.523339
 20
2379.393471
 40
6.85
  0
LINE
  8
COSTRUZIONI
 10
2929.560724
 11
2933.41913
 20
2382.629593
 21
2382.292026
  0
LINE
  8
COSTRUZIONI
 10
2933.173331
 11
2928.907056
 20
2374.784882
 21
2375.158133
  0
LINE
  8
COSTRUZIONI
 10
2927.273339
 11
2927.273339
 20
2373.661107
 21
2370.743511
  0
LINE
  8
COSTRUZIONI
 10
2919.773339
 11
2919.773339
 20
2370.743511
 21
2373.661107
  0
LINE
  8
COSTRUZIONI
 10
2922.546801
 11
2901.788141
 20
2386.243475
 21
2386.243475
  0
LINE
  8
COSTRUZIONI
 10
2916.673339
 11
2916.673339
 20
2379.393471
 21
2396.120134
  0
CIRCLE
  8
COSTRUZIONI
 10
2930.787725
 20
2358.693083
 40
40.0
  0
CIRCLE
  8
COSTRUZIONI
 10
3023.132034
 20
2358.370436
 40
40.0
  0
LINE
  8
COSTRUZIONI
 10
3188.241587
 11
3188.241564
 20
2463.551432
 21
2313.551419
  0
LINE
  8
COSTRUZIONI
 10
2612.900128
 11
3396.900128
 20
2104.5
 21
2104.5
  0
LINE
  8
COSTRUZIONI
 10
3396.900128
 11
3396.900128
 20
2104.5
 21
4.5
  0
LINE
  8
COSTRUZIONI
 10
3396.900128
 11
2612.900128
 20
4.5
 21
4.5
  0
LINE
  8
COSTRUZIONI
 10
2612.900128
 11
2612.900128
 20
4.5
 21
2104.5
  0
LINE
  8
COSTRUZIONI
 10
2727.400128
 11
3282.400128
 20
1974.5
 21
1974.5
  0
LINE
  8
COSTRUZIONI
 10
3282.400128
 11
3282.400128
 20
1974.5
 21
1124.030238
  0
LINE
  8
COSTRUZIONI
 10
3282.400128
 11
3204.329866
 20
1124.030238
 21
889.106648
  0
LINE
  8
COSTRUZIONI
 10
3204.329866
 11
3282.400128
 20
889.106648
 21
844.428204
  0
LINE
  8
COSTRUZIONI
 10
3282.400128
 11
3282.400128
 20
844.428204
 21
134.5
  0
LINE
  8
COSTRUZIONI
 10
3282.400128
 11
2727.400128
 20
134.5
 21
134.5
  0
LINE
  8
COSTRUZIONI
 10
2727.400128
 11
2727.400128
 20
134.5
 21
1974.5
  0
LINE
  8
COSTRUZIONI
 10
3332.400128
 11
3332.400128
 20
1115.939716
 21
2024.5
  0
LINE
  8
COSTRUZIONI
 10
3332.400128
 11
2677.400128
 20
2024.5
 21
2024.5
  0
LINE
  8
COSTRUZIONI
 10
2677.400128
 11
2677.400128
 20
2024.5
 21
84.5
  0
LINE
  8
COSTRUZIONI
 10
2677.400128
 11
3332.400128
 20
84.5
 21
84.5
  0
LINE
  8
COSTRUZIONI
 10
3332.400128
 11
3332.400128
 20
84.5
 21
873.422766
  0
LINE
  8
COSTRUZIONI
 10
3332.400128
 11
3264.684734
 20
873.422766
 21
912.175273
  0
LINE
  8
COSTRUZIONI
 10
3264.684734
 11
3332.400128
 20
912.175273
 21
1115.939716
  0
CIRCLE
  8
COSTRUZIONI
 10
3004.900128
 20
479.25
 40
15.0
  0
LINE
  8
COSTRUZIONI
 10
3012.400128
 11
2997.400128
 20
479.25
 21
479.25
  0
CIRCLE
  8
COSTRUZIONI
 10
3004.900128
 20
1054.5
 40
15.0
  0
LINE
  8
COSTRUZIONI
 10
3012.400128
 11
2997.400128
 20
1054.5
 21
1054.5
  0
CIRCLE
  8
COSTRUZIONI
 10
3004.900128
 20
1629.75
 40
15.0
  0
LINE
  8
COSTRUZIONI
 10
2727.400128
 11
3282.400128
 20
1974.5
 21
134.5
  0
LINE
  8
COSTRUZIONI
 10
2727.400128
 11
3282.400128
 20
134.5
 21
1974.5
  0
LINE
  8
COSTRUZIONI
 10
4475.265112
 11
3691.265112
 20
2104.5
 21
2104.5
  0
LINE
  8
COSTRUZIONI
 10
3691.265112
 11
3691.265112
 20
2104.5
 21
4.5
  0
LINE
  8
COSTRUZIONI
 10
3691.265112
 11
4475.265112
 20
4.5
 21
4.5
  0
LINE
  8
COSTRUZIONI
 10
4475.265112
 11
4475.265112
 20
4.5
 21
2104.5
  0
LINE
  8
COSTRUZIONI
 10
4360.765112
 11
3805.765112
 20
1974.5
 21
1974.5
  0
LINE
  8
COSTRUZIONI
 10
3805.765112
 11
3805.765112
 20
1974.5
 21
1124.030238
  0
LINE
  8
COSTRUZIONI
 10
3805.765112
 11
3883.835374
 20
1124.030238
 21
889.106648
  0
LINE
  8
COSTRUZIONI
 10
3883.835374
 11
3805.765112
 20
889.106648
 21
844.428204
  0
LINE
  8
COSTRUZIONI
 10
3805.765112
 11
3805.765112
 20
844.428204
 21
134.5
  0
LINE
  8
COSTRUZIONI
 10
3805.765112
 11
4360.765112
 20
134.5
 21
134.5
  0
LINE
  8
COSTRUZIONI
 10
4360.765112
 11
4360.765112
 20
134.5
 21
1974.5
  0
LINE
  8
COSTRUZIONI
 10
3755.765112
 11
3755.765112
 20
1115.939716
 21
2024.5
  0
LINE
  8
COSTRUZIONI
 10
3755.765112
 11
4410.765112
 20
2024.5
 21
2024.5
  0
LINE
  8
COSTRUZIONI
 10
4410.765112
 11
4410.765112
 20
2024.5
 21
84.5
  0
LINE
  8
COSTRUZIONI
 10
4410.765112
 11
3755.765112
 20
84.5
 21
84.5
  0
LINE
  8
COSTRUZIONI
 10
3755.765112
 11
3755.765112
 20
84.5
 21
873.422766
  0
LINE
  8
COSTRUZIONI
 10
3755.765112
 11
3823.480506
 20
873.422766
 21
912.175273
  0
LINE
  8
COSTRUZIONI
 10
3823.480506
 11
3755.765112
 20
912.175273
 21
1115.939716
  0
CIRCLE
  8
COSTRUZIONI
 10
4083.265112
 20
479.25
 40
15.0
  0
LINE
  8
COSTRUZIONI
 10
4075.765112
 11
4090.765112
 20
479.25
 21
479.25
  0
CIRCLE
  8
COSTRUZIONI
 10
4083.265112
 20
1054.5
 40
15.0
  0
LINE
  8
COSTRUZIONI
 10
4075.765112
 11
4090.765112
 20
1054.5
 21
1054.5
  0
CIRCLE
  8
COSTRUZIONI
 10
4083.265112
 20
1629.75
 40
15.0
  0
LINE
  8
COSTRUZIONI
 10
4360.765112
 11
3805.765112
 20
1974.5
 21
134.5
  0
LINE
  8
COSTRUZIONI
 10
4360.765112
 11
3805.765112
 20
134.5
 21
1974.5
  0
ENDSEC
  0
EOF
