  0
SECTION
  2
ENTITIES
  0
LINE
  8
COSTRUZIONI
 10
776.0
 11
776.0
 20
2099.0
 21
0.0
  0
LINE
  8
COSTRUZIONI
 10
0.0
 11
0.0
 20
0.0
 21
2099.0
  0
LINE
  8
COSTRUZIONI
 10
776.0
 11
0.0
 20
0.0
 21
0.0
  0
LINE
  8
COSTRUZIONI
 10
776.0
 11
0.0
 20
2099.0
 21
2099.0
  0
LINE
  8
COSTRUZIONI
 10
1144.354074
 11
1144.354074
 20
2099.0
 21
0.0
  0
LINE
  8
COSTRUZIONI
 10
1920.354074
 11
1920.354074
 20
0.0
 21
2099.0
  0
LINE
  8
COSTRUZIONI
 10
1144.354074
 11
1920.354074
 20
0.0
 21
0.0
  0
LINE
  8
COSTRUZIONI
 10
1144.354074
 11
1920.354074
 20
2099.0
 21
2099.0
  0
LINE
  8
COSTRUZIONI
 10
1805.854074
 11
1258.854074
 20
1946.213404
 21
152.786596
  0
LINE
  8
COSTRUZIONI
 10
1805.854074
 11
1258.854074
 20
152.786596
 21
1946.213404
  0
LINE
  8
COSTRUZIONI
 10
1805.854074
 11
1805.854074
 20
1969.0
 21
130.0
  0
LINE
  8
COSTRUZIONI
 10
1805.854074
 11
1258.854074
 20
130.0
 21
130.0
  0
LINE
  8
COSTRUZIONI
 10
1258.854074
 11
1258.854074
 20
130.0
 21
839.928204
  0
LINE
  8
COSTRUZIONI
 10
1258.854074
 11
1336.924336
 20
839.928204
 21
884.606648
  0
LINE
  8
COSTRUZIONI
 10
1336.924336
 11
1258.854074
 20
884.606648
 21
1119.530238
  0
LINE
  8
COSTRUZIONI
 10
1258.854074
 11
1258.854074
 20
1119.530238
 21
1969.0
  0
LINE
  8
COSTRUZIONI
 10
1258.854074
 11
1805.854074
 20
1969.0
 21
1969.0
  0
LINE
  8
COSTRUZIONI
 10
1855.854074
 11
1855.854074
 20
2019.0
 21
80.0
  0
LINE
  8
COSTRUZIONI
 10
1855.854074
 11
1208.854074
 20
80.0
 21
80.0
  0
LINE
  8
COSTRUZIONI
 10
1208.854074
 11
1208.854074
 20
80.0
 21
868.922766
  0
LINE
  8
COSTRUZIONI
 10
1208.854074
 11
1276.569468
 20
868.922766
 21
907.675273
  0
LINE
  8
COSTRUZIONI
 10
1276.569468
 11
1208.854074
 20
907.675273
 21
1111.439716
  0
LINE
  8
COSTRUZIONI
 10
1208.854074
 11
1208.854074
 20
1111.439716
 21
2019.0
  0
LINE
  8
COSTRUZIONI
 10
1208.854074
 11
1855.854074
 20
2019.0
 21
2019.0
  0
LINE
  8
COSTRUZIONI
 10
661.5
 11
114.5
 20
1946.213404
 21
152.786596
  0
LINE
  8
COSTRUZIONI
 10
661.5
 11
114.5
 20
152.786596
 21
1946.213404
  0
LINE
  8
COSTRUZIONI
 10
114.5
 11
114.5
 20
1969.0
 21
130.0
  0
LINE
  8
COSTRUZIONI
 10
114.5
 11
661.5
 20
130.0
 21
130.0
  0
LINE
  8
COSTRUZIONI
 10
661.5
 11
661.5
 20
130.0
 21
839.928204
  0
LINE
  8
COSTRUZIONI
 10
661.5
 11
583.429738
 20
839.928204
 21
884.606648
  0
LINE
  8
COSTRUZIONI
 10
583.429738
 11
661.5
 20
884.606648
 21
1119.530238
  0
LINE
  8
COSTRUZIONI
 10
661.5
 11
661.5
 20
1119.530238
 21
1969.0
  0
LINE
  8
COSTRUZIONI
 10
661.5
 11
114.5
 20
1969.0
 21
1969.0
  0
LINE
  8
COSTRUZIONI
 10
64.5
 11
64.5
 20
2019.0
 21
80.0
  0
LINE
  8
COSTRUZIONI
 10
64.5
 11
711.5
 20
80.0
 21
80.0
  0
LINE
  8
COSTRUZIONI
 10
711.5
 11
711.5
 20
80.0
 21
868.922766
  0
LINE
  8
COSTRUZIONI
 10
711.5
 11
643.784606
 20
868.922766
 21
907.675273
  0
LINE
  8
COSTRUZIONI
 10
643.784606
 11
711.5
 20
907.675273
 21
1111.439716
  0
LINE
  8
COSTRUZIONI
 10
711.5
 11
711.5
 20
1111.439716
 21
2019.0
  0
LINE
  8
COSTRUZIONI
 10
711.5
 11
64.5
 20
2019.0
 21
2019.0
  0
CIRCLE
  8
COSTRUZIONI
 10
388.0
 20
474.25
 40
15.0
  0
LINE
  8
COSTRUZIONI
 10
395.5
 11
380.5
 20
474.25
 21
474.25
  0
CIRCLE
  8
COSTRUZIONI
 10
388.0
 20
1049.5
 40
15.0
  0
LINE
  8
COSTRUZIONI
 10
395.5
 11
380.5
 20
1049.5
 21
1049.5
  0
CIRCLE
  8
COSTRUZIONI
 10
388.0
 20
1624.75
 40
15.0
  0
CIRCLE
  8
COSTRUZIONI
 10
1532.354074
 20
474.25
 40
15.0
  0
CIRCLE
  8
COSTRUZIONI
 10
1532.354074
 20
1049.5
 40
15.0
  0
LINE
  8
COSTRUZIONI
 10
1539.854074
 11
1524.854074
 20
1049.5
 21
1049.5
  0
CIRCLE
  8
COSTRUZIONI
 10
1532.354074
 20
1624.75
 40
15.0
  0
ENDSEC
  0
EOF
