  0
SECTION
  2
ENTITIES
  0
CIRCLE
  8
COSTRUZIONI
 10
3368.400128
 20
747.504659
 40
24.25
  0
LINE
  8
COSTRUZIONI
 10
2832.400128
 11
3288.400128
 20
1973.504659
 21
-67.495341
  0
LINE
  8
COSTRUZIONI
 10
2832.400128
 11
3288.400128
 20
-67.495341
 21
1973.504659
  0
LINE
  8
COSTRUZIONI
 10
2717.900128
 11
2717.900128
 20
2103.504659
 21
-197.495341
  0
LINE
  8
COSTRUZIONI
 10
2717.900128
 11
3402.900128
 20
-197.495341
 21
-197.495341
  0
LINE
  8
COSTRUZIONI
 10
3402.900128
 11
3402.900128
 20
-197.495341
 21
2103.504659
  0
LINE
  8
COSTRUZIONI
 10
3402.900128
 11
2717.900128
 20
2103.504659
 21
2103.504659
  0
LINE
  8
COSTRUZIONI
 10
2832.400128
 11
3288.400128
 20
1973.504659
 21
1973.504659
  0
LINE
  8
COSTRUZIONI
 10
3288.400128
 11
3288.400128
 20
1973.504659
 21
922.034897
  0
LINE
  8
COSTRUZIONI
 10
3288.400128
 11
3210.329866
 20
922.034897
 21
687.111307
  0
LINE
  8
COSTRUZIONI
 10
3210.329866
 11
3288.400128
 20
687.111307
 21
642.432863
  0
LINE
  8
COSTRUZIONI
 10
3288.400128
 11
3288.400128
 20
642.432863
 21
-67.495341
  0
LINE
  8
COSTRUZIONI
 10
3288.400128
 11
2832.400128
 20
-67.495341
 21
-67.495341
  0
LINE
  8
COSTRUZIONI
 10
2832.400128
 11
2832.400128
 20
-67.495341
 21
1973.504659
  0
LINE
  8
COSTRUZIONI
 10
2782.400128
 11
3338.400128
 20
2023.504659
 21
2023.504659
  0
LINE
  8
COSTRUZIONI
 10
3338.400128
 11
3338.400128
 20
2023.504659
 21
913.944375
  0
LINE
  8
COSTRUZIONI
 10
3338.400128
 11
3270.684734
 20
913.944375
 21
710.179932
  0
LINE
  8
COSTRUZIONI
 10
3270.684734
 11
3338.400128
 20
710.179932
 21
671.427425
  0
LINE
  8
COSTRUZIONI
 10
3338.400128
 11
3338.400128
 20
671.427425
 21
-117.495341
  0
LINE
  8
COSTRUZIONI
 10
3338.400128
 11
2782.400128
 20
-117.495341
 21
-117.495341
  0
LINE
  8
COSTRUZIONI
 10
2782.400128
 11
2782.400128
 20
-117.495341
 21
2023.504659
  0
CIRCLE
  8
COSTRUZIONI
 10
4122.527225
 20
747.504659
 40
24.25
  0
LINE
  8
COSTRUZIONI
 10
4658.527225
 11
4202.527225
 20
1973.504659
 21
-67.495341
  0
LINE
  8
COSTRUZIONI
 10
4658.527225
 11
4202.527225
 20
-67.495341
 21
1973.504659
  0
LINE
  8
COSTRUZIONI
 10
4773.027225
 11
4773.027225
 20
2103.504659
 21
-197.495341
  0
LINE
  8
COSTRUZIONI
 10
4773.027225
 11
4088.027225
 20
-197.495341
 21
-197.495341
  0
LINE
  8
COSTRUZIONI
 10
4088.027225
 11
4088.027225
 20
-197.495341
 21
2103.504659
  0
LINE
  8
COSTRUZIONI
 10
4088.027225
 11
4773.027225
 20
2103.504659
 21
2103.504659
  0
LINE
  8
COSTRUZIONI
 10
4658.527225
 11
4202.527225
 20
1973.504659
 21
1973.504659
  0
LINE
  8
COSTRUZIONI
 10
4202.527225
 11
4202.527225
 20
1973.504659
 21
922.034897
  0
LINE
  8
COSTRUZIONI
 10
4202.527225
 11
4280.597486
 20
922.034897
 21
687.111307
  0
LINE
  8
COSTRUZIONI
 10
4280.597486
 11
4202.527225
 20
687.111307
 21
642.432863
  0
LINE
  8
COSTRUZIONI
 10
4202.527225
 11
4202.527225
 20
642.432863
 21
-67.495341
  0
LINE
  8
COSTRUZIONI
 10
4202.527225
 11
4658.527225
 20
-67.495341
 21
-67.495341
  0
LINE
  8
COSTRUZIONI
 10
4658.527225
 11
4658.527225
 20
-67.495341
 21
1973.504659
  0
LINE
  8
COSTRUZIONI
 10
4708.527225
 11
4152.527225
 20
2023.504659
 21
2023.504659
  0
LINE
  8
COSTRUZIONI
 10
4152.527225
 11
4152.527225
 20
2023.504659
 21
913.944375
  0
LINE
  8
COSTRUZIONI
 10
4152.527225
 11
4220.242618
 20
913.944375
 21
710.179932
  0
LINE
  8
COSTRUZIONI
 10
4220.242618
 11
4152.527225
 20
710.179932
 21
671.427425
  0
LINE
  8
COSTRUZIONI
 10
4152.527225
 11
4152.527225
 20
671.427425
 21
-117.495341
  0
LINE
  8
COSTRUZIONI
 10
4152.527225
 11
4708.527225
 20
-117.495341
 21
-117.495341
  0
LINE
  8
COSTRUZIONI
 10
4708.527225
 11
4708.527225
 20
-117.495341
 21
2023.504659
  0
CIRCLE
  8
COSTRUZIONI
 10
3060.400128
 20
377.754659
 40
15.0
  0
LINE
  8
COSTRUZIONI
 10
3067.900128
 11
3052.900128
 20
377.754659
 21
377.754659
  0
CIRCLE
  8
COSTRUZIONI
 10
3060.400128
 20
953.004659
 40
15.0
  0
LINE
  8
COSTRUZIONI
 10
3067.900128
 11
3052.900128
 20
953.004659
 21
953.004659
  0
CIRCLE
  8
COSTRUZIONI
 10
3060.400128
 20
1528.254659
 40
15.0
  0
LINE
  8
COSTRUZIONI
 10
3067.900128
 11
3052.900128
 20
1528.254659
 21
1528.254659
  0
CIRCLE
  8
COSTRUZIONI
 10
4430.527225
 20
377.754659
 40
15.0
  0
LINE
  8
COSTRUZIONI
 10
4438.027225
 11
4423.027225
 20
377.754659
 21
377.754659
  0
CIRCLE
  8
COSTRUZIONI
 10
4430.527225
 20
953.004659
 40
15.0
  0
LINE
  8
COSTRUZIONI
 10
4438.027225
 11
4423.027225
 20
953.004659
 21
953.004659
  0
CIRCLE
  8
COSTRUZIONI
 10
4430.527225
 20
1528.254659
 40
15.0
  0
LINE
  8
COSTRUZIONI
 10
4438.027225
 11
4423.027225
 20
1528.254659
 21
1528.254659
  0
ENDSEC
  0
EOF
