  0
SECTION
  2
ENTITIES
  0
LINE
  8
COSTRUZIONI
 10
2612.900128
 11
3356.900128
 20
4.5
 21
4.5
  0
LINE
  8
COSTRUZIONI
 10
3356.900128
 11
3356.900128
 20
4.5
 21
2095.5
  0
LINE
  8
COSTRUZIONI
 10
3356.900128
 11
2612.900128
 20
2095.5
 21
2095.5
  0
LINE
  8
COSTRUZIONI
 10
2612.900128
 11
2612.900128
 20
2095.5
 21
4.5
  0
LINE
  8
COSTRUZIONI
 10
2727.400128
 11
3242.400128
 20
134.5
 21
134.5
  0
LINE
  8
COSTRUZIONI
 10
3242.400128
 11
3242.400128
 20
134.5
 21
844.428204
  0
LINE
  8
COSTRUZIONI
 10
3242.400128
 11
3164.329866
 20
844.428204
 21
889.106648
  0
LINE
  8
COSTRUZIONI
 10
3164.329866
 11
3242.400128
 20
889.106648
 21
1124.030238
  0
LINE
  8
COSTRUZIONI
 10
3242.400128
 11
3242.400128
 20
1124.030238
 21
1965.5
  0
LINE
  8
COSTRUZIONI
 10
3242.400128
 11
2727.400128
 20
1965.5
 21
1965.5
  0
LINE
  8
COSTRUZIONI
 10
2727.400128
 11
2727.400128
 20
1965.5
 21
134.5
  0
LINE
  8
COSTRUZIONI
 10
3292.400128
 11
3292.400128
 20
1115.939716
 21
2015.5
  0
LINE
  8
COSTRUZIONI
 10
3292.400128
 11
2677.400128
 20
2015.5
 21
2015.5
  0
LINE
  8
COSTRUZIONI
 10
2677.400128
 11
2677.400128
 20
2015.5
 21
84.5
  0
LINE
  8
COSTRUZIONI
 10
2677.400128
 11
3292.400128
 20
84.5
 21
84.5
  0
LINE
  8
COSTRUZIONI
 10
3292.400128
 11
3292.400128
 20
84.5
 21
873.422766
  0
LINE
  8
COSTRUZIONI
 10
3292.400128
 11
3224.684734
 20
873.422766
 21
912.175273
  0
LINE
  8
COSTRUZIONI
 10
3224.684734
 11
3292.400128
 20
912.175273
 21
1115.939716
  0
CIRCLE
  8
COSTRUZIONI
 10
2984.900128
 20
474.75
 40
15.0
  0
LINE
  8
COSTRUZIONI
 10
2992.400128
 11
2977.400128
 20
474.75
 21
474.75
  0
CIRCLE
  8
COSTRUZIONI
 10
2984.900128
 20
1050.0
 40
15.0
  0
LINE
  8
COSTRUZIONI
 10
2992.400128
 11
2977.400128
 20
1050.0
 21
1050.0
  0
CIRCLE
  8
COSTRUZIONI
 10
2984.900128
 20
1625.25
 40
15.0
  0
LINE
  8
COSTRUZIONI
 10
2727.400128
 11
3242.400128
 20
134.5
 21
1965.5
  0
LINE
  8
COSTRUZIONI
 10
2727.400128
 11
3242.400128
 20
1965.5
 21
134.5
  0
LINE
  8
COSTRUZIONI
 10
4427.68576
 11
3683.68576
 20
4.5
 21
4.5
  0
LINE
  8
COSTRUZIONI
 10
3683.68576
 11
3683.68576
 20
4.5
 21
2095.5
  0
LINE
  8
COSTRUZIONI
 10
3683.68576
 11
4427.68576
 20
2095.5
 21
2095.5
  0
LINE
  8
COSTRUZIONI
 10
4427.68576
 11
4427.68576
 20
2095.5
 21
4.5
  0
LINE
  8
COSTRUZIONI
 10
4313.18576
 11
3798.18576
 20
134.5
 21
134.5
  0
LINE
  8
COSTRUZIONI
 10
3798.18576
 11
3798.18576
 20
134.5
 21
844.428204
  0
LINE
  8
COSTRUZIONI
 10
3798.18576
 11
3876.256022
 20
844.428204
 21
889.106648
  0
LINE
  8
COSTRUZIONI
 10
3876.256022
 11
3798.18576
 20
889.106648
 21
1124.030238
  0
LINE
  8
COSTRUZIONI
 10
3798.18576
 11
3798.18576
 20
1124.030238
 21
1965.5
  0
LINE
  8
COSTRUZIONI
 10
3798.18576
 11
4313.18576
 20
1965.5
 21
1965.5
  0
LINE
  8
COSTRUZIONI
 10
4313.18576
 11
4313.18576
 20
1965.5
 21
134.5
  0
LINE
  8
COSTRUZIONI
 10
3748.18576
 11
3748.18576
 20
1115.939716
 21
2015.5
  0
LINE
  8
COSTRUZIONI
 10
3748.18576
 11
4363.18576
 20
2015.5
 21
2015.5
  0
LINE
  8
COSTRUZIONI
 10
4363.18576
 11
4363.18576
 20
2015.5
 21
84.5
  0
LINE
  8
COSTRUZIONI
 10
4363.18576
 11
3748.18576
 20
84.5
 21
84.5
  0
LINE
  8
COSTRUZIONI
 10
3748.18576
 11
3748.18576
 20
84.5
 21
873.422766
  0
LINE
  8
COSTRUZIONI
 10
3748.18576
 11
3815.901153
 20
873.422766
 21
912.175273
  0
LINE
  8
COSTRUZIONI
 10
3815.901153
 11
3748.18576
 20
912.175273
 21
1115.939716
  0
CIRCLE
  8
COSTRUZIONI
 10
4055.68576
 20
474.75
 40
15.0
  0
LINE
  8
COSTRUZIONI
 10
4048.18576
 11
4063.18576
 20
474.75
 21
474.75
  0
CIRCLE
  8
COSTRUZIONI
 10
4055.68576
 20
1050.0
 40
15.0
  0
LINE
  8
COSTRUZIONI
 10
4048.18576
 11
4063.18576
 20
1050.0
 21
1050.0
  0
CIRCLE
  8
COSTRUZIONI
 10
4055.68576
 20
1625.25
 40
15.0
  0
LINE
  8
COSTRUZIONI
 10
4313.18576
 11
3798.18576
 20
134.5
 21
1965.5
  0
LINE
  8
COSTRUZIONI
 10
4313.18576
 11
3798.18576
 20
1965.5
 21
134.5
  0
ENDSEC
  0
EOF
