  0
SECTION
  2
ENTITIES
  0
LINE
  8
COSTRUZIONI
 10
1427.951571
 11
1769.951571
 20
1939.0
 21
1639.0
  0
LINE
  8
COSTRUZIONI
 10
1427.951571
 11
1769.951571
 20
1639.0
 21
1939.0
  0
LINE
  8
COSTRUZIONI
 10
1427.951571
 11
1769.951571
 20
1574.0
 21
495.0
  0
LINE
  8
COSTRUZIONI
 10
1427.951571
 11
1769.951571
 20
495.0
 21
1574.0
  0
LINE
  8
COSTRUZIONI
 10
1427.951571
 11
1769.951571
 20
130.0
 21
430.0
  0
LINE
  8
COSTRUZIONI
 10
1427.951571
 11
1769.951571
 20
430.0
 21
130.0
  0
LINE
  8
COSTRUZIONI
 10
715.903425
 11
373.903425
 20
1939.0
 21
1639.0
  0
LINE
  8
COSTRUZIONI
 10
715.903425
 11
373.903425
 20
1639.0
 21
1939.0
  0
LINE
  8
COSTRUZIONI
 10
715.903425
 11
373.903425
 20
1574.0
 21
495.0
  0
LINE
  8
COSTRUZIONI
 10
715.903425
 11
373.903425
 20
495.0
 21
1574.0
  0
LINE
  8
COSTRUZIONI
 10
715.903425
 11
373.903425
 20
130.0
 21
430.0
  0
LINE
  8
COSTRUZIONI
 10
715.903425
 11
373.903425
 20
430.0
 21
130.0
  0
LINE
  8
COSTRUZIONI
 10
830.403425
 11
259.403425
 20
0.0
 21
0.0
  0
LINE
  8
COSTRUZIONI
 10
259.403425
 11
259.403425
 20
0.0
 21
2069.0
  0
LINE
  8
COSTRUZIONI
 10
259.403425
 11
830.403425
 20
2069.0
 21
2069.0
  0
LINE
  8
COSTRUZIONI
 10
830.403425
 11
830.403425
 20
2069.0
 21
0.0
  0
LINE
  8
COSTRUZIONI
 10
745.903425
 11
343.903425
 20
1969.0
 21
1969.0
  0
LINE
  8
COSTRUZIONI
 10
343.903425
 11
343.903425
 20
1969.0
 21
100.0
  0
LINE
  8
COSTRUZIONI
 10
343.903425
 11
745.903425
 20
100.0
 21
100.0
  0
LINE
  8
COSTRUZIONI
 10
745.903425
 11
745.903425
 20
100.0
 21
1969.0
  0
LINE
  8
COSTRUZIONI
 10
373.903425
 11
715.903425
 20
1639.0
 21
1639.0
  0
LINE
  8
COSTRUZIONI
 10
715.903425
 11
715.903425
 20
1639.0
 21
1939.0
  0
LINE
  8
COSTRUZIONI
 10
715.903425
 11
373.903425
 20
1939.0
 21
1939.0
  0
LINE
  8
COSTRUZIONI
 10
373.903425
 11
373.903425
 20
1939.0
 21
1639.0
  0
LINE
  8
COSTRUZIONI
 10
715.903425
 11
715.903425
 20
130.0
 21
430.0
  0
LINE
  8
COSTRUZIONI
 10
715.903425
 11
373.903425
 20
430.0
 21
430.0
  0
LINE
  8
COSTRUZIONI
 10
373.903425
 11
373.903425
 20
430.0
 21
130.0
  0
LINE
  8
COSTRUZIONI
 10
373.903425
 11
715.903425
 20
130.0
 21
130.0
  0
LINE
  8
COSTRUZIONI
 10
373.903425
 11
715.903425
 20
495.0
 21
495.0
  0
LINE
  8
COSTRUZIONI
 10
715.903425
 11
715.903425
 20
495.0
 21
1574.0
  0
LINE
  8
COSTRUZIONI
 10
715.903425
 11
373.903425
 20
1574.0
 21
1574.0
  0
LINE
  8
COSTRUZIONI
 10
373.903425
 11
373.903425
 20
1574.0
 21
495.0
  0
LINE
  8
COSTRUZIONI
 10
363.903425
 11
725.903425
 20
485.0
 21
485.0
  0
LINE
  8
COSTRUZIONI
 10
725.903425
 11
725.903425
 20
485.0
 21
1584.0
  0
LINE
  8
COSTRUZIONI
 10
725.903425
 11
363.903425
 20
1584.0
 21
1584.0
  0
LINE
  8
COSTRUZIONI
 10
363.903425
 11
363.903425
 20
1584.0
 21
485.0
  0
LINE
  8
COSTRUZIONI
 10
1313.451571
 11
1884.451571
 20
0.0
 21
0.0
  0
LINE
  8
COSTRUZIONI
 10
1884.451571
 11
1884.451571
 20
0.0
 21
2069.0
  0
LINE
  8
COSTRUZIONI
 10
1884.451571
 11
1313.451571
 20
2069.0
 21
2069.0
  0
LINE
  8
COSTRUZIONI
 10
1313.451571
 11
1313.451571
 20
2069.0
 21
0.0
  0
LINE
  8
COSTRUZIONI
 10
1769.951571
 11
1427.951571
 20
1639.0
 21
1639.0
  0
LINE
  8
COSTRUZIONI
 10
1427.951571
 11
1427.951571
 20
1639.0
 21
1939.0
  0
LINE
  8
COSTRUZIONI
 10
1427.951571
 11
1769.951571
 20
1939.0
 21
1939.0
  0
LINE
  8
COSTRUZIONI
 10
1769.951571
 11
1769.951571
 20
1939.0
 21
1639.0
  0
LINE
  8
COSTRUZIONI
 10
1427.951571
 11
1427.951571
 20
130.0
 21
430.0
  0
LINE
  8
COSTRUZIONI
 10
1427.951571
 11
1769.951571
 20
430.0
 21
430.0
  0
LINE
  8
COSTRUZIONI
 10
1769.951571
 11
1769.951571
 20
430.0
 21
130.0
  0
LINE
  8
COSTRUZIONI
 10
1769.951571
 11
1427.951571
 20
130.0
 21
130.0
  0
LINE
  8
COSTRUZIONI
 10
1769.951571
 11
1427.951571
 20
495.0
 21
495.0
  0
LINE
  8
COSTRUZIONI
 10
1427.951571
 11
1427.951571
 20
495.0
 21
1574.0
  0
LINE
  8
COSTRUZIONI
 10
1427.951571
 11
1769.951571
 20
1574.0
 21
1574.0
  0
LINE
  8
COSTRUZIONI
 10
1769.951571
 11
1769.951571
 20
1574.0
 21
495.0
  0
LINE
  8
COSTRUZIONI
 10
1397.951571
 11
1799.951571
 20
1969.0
 21
1969.0
  0
LINE
  8
COSTRUZIONI
 10
1799.951571
 11
1799.951571
 20
1969.0
 21
100.0
  0
LINE
  8
COSTRUZIONI
 10
1799.951571
 11
1397.951571
 20
100.0
 21
100.0
  0
LINE
  8
COSTRUZIONI
 10
1397.951571
 11
1397.951571
 20
100.0
 21
1969.0
  0
CIRCLE
  8
COSTRUZIONI
 10
544.903425
 20
1034.5
 40
15.0
  0
LINE
  8
COSTRUZIONI
 10
552.403425
 11
537.403425
 20
1034.5
 21
1034.5
  0
CIRCLE
  8
COSTRUZIONI
 10
1598.951571
 20
1034.5
 40
15.0
  0
ENDSEC
  0
EOF
