  0
SECTION
  2
ENTITIES
  0
LINE
  8
COSTRUZIONI
 10
803.0
 11
19.0
 20
2100.0
 21
2100.0
  0
LINE
  8
COSTRUZIONI
 10
19.0
 11
19.0
 20
2100.0
 21
0.0
  0
LINE
  8
COSTRUZIONI
 10
19.0
 11
803.0
 20
0.0
 21
0.0
  0
LINE
  8
COSTRUZIONI
 10
803.0
 11
803.0
 20
0.0
 21
2100.0
  0
LINE
  8
COSTRUZIONI
 10
103.5
 11
718.5
 20
2000.0
 21
2000.0
  0
LINE
  8
COSTRUZIONI
 10
718.5
 11
718.5
 20
2000.0
 21
100.0
  0
LINE
  8
COSTRUZIONI
 10
718.5
 11
103.5
 20
100.0
 21
100.0
  0
LINE
  8
COSTRUZIONI
 10
103.5
 11
103.5
 20
100.0
 21
2000.0
  0
LINE
  8
COSTRUZIONI
 10
688.5
 11
688.5
 20
1970.0
 21
1670.0
  0
LINE
  8
COSTRUZIONI
 10
688.5
 11
133.5
 20
1670.0
 21
1670.0
  0
LINE
  8
COSTRUZIONI
 10
133.5
 11
133.5
 20
1670.0
 21
1970.0
  0
LINE
  8
COSTRUZIONI
 10
133.5
 11
688.5
 20
1970.0
 21
1970.0
  0
LINE
  8
COSTRUZIONI
 10
133.5
 11
133.5
 20
130.0
 21
430.0
  0
LINE
  8
COSTRUZIONI
 10
133.5
 11
688.5
 20
430.0
 21
430.0
  0
LINE
  8
COSTRUZIONI
 10
688.5
 11
688.5
 20
430.0
 21
130.0
  0
LINE
  8
COSTRUZIONI
 10
688.5
 11
133.5
 20
130.0
 21
130.0
  0
LINE
  8
COSTRUZIONI
 10
133.5
 11
688.5
 20
1605.0
 21
1605.0
  0
LINE
  8
COSTRUZIONI
 10
688.5
 11
688.5
 20
1605.0
 21
495.0
  0
LINE
  8
COSTRUZIONI
 10
688.5
 11
133.5
 20
495.0
 21
495.0
  0
LINE
  8
COSTRUZIONI
 10
133.5
 11
133.5
 20
495.0
 21
1605.0
  0
LINE
  8
COSTRUZIONI
 10
123.5
 11
698.5
 20
1615.0
 21
1615.0
  0
LINE
  8
COSTRUZIONI
 10
698.5
 11
698.5
 20
1615.0
 21
485.0
  0
LINE
  8
COSTRUZIONI
 10
698.5
 11
123.5
 20
485.0
 21
485.0
  0
LINE
  8
COSTRUZIONI
 10
123.5
 11
123.5
 20
485.0
 21
1615.0
  0
LINE
  8
COSTRUZIONI
 10
1926.004802
 11
1142.004802
 20
2100.0
 21
2100.0
  0
LINE
  8
COSTRUZIONI
 10
1142.004802
 11
1142.004802
 20
2100.0
 21
0.0
  0
LINE
  8
COSTRUZIONI
 10
1142.004802
 11
1926.004802
 20
0.0
 21
0.0
  0
LINE
  8
COSTRUZIONI
 10
1926.004802
 11
1926.004802
 20
0.0
 21
2100.0
  0
LINE
  8
COSTRUZIONI
 10
1226.504802
 11
1841.504802
 20
2000.0
 21
2000.0
  0
LINE
  8
COSTRUZIONI
 10
1841.504802
 11
1841.504802
 20
2000.0
 21
100.0
  0
LINE
  8
COSTRUZIONI
 10
1841.504802
 11
1226.504802
 20
100.0
 21
100.0
  0
LINE
  8
COSTRUZIONI
 10
1226.504802
 11
1226.504802
 20
100.0
 21
2000.0
  0
LINE
  8
COSTRUZIONI
 10
1811.504802
 11
1811.504802
 20
1970.0
 21
1670.0
  0
LINE
  8
COSTRUZIONI
 10
1811.504802
 11
1256.504802
 20
1670.0
 21
1670.0
  0
LINE
  8
COSTRUZIONI
 10
1256.504802
 11
1256.504802
 20
1670.0
 21
1970.0
  0
LINE
  8
COSTRUZIONI
 10
1256.504802
 11
1811.504802
 20
1970.0
 21
1970.0
  0
LINE
  8
COSTRUZIONI
 10
1256.504802
 11
1256.504802
 20
130.0
 21
430.0
  0
LINE
  8
COSTRUZIONI
 10
1256.504802
 11
1811.504802
 20
430.0
 21
430.0
  0
LINE
  8
COSTRUZIONI
 10
1811.504802
 11
1811.504802
 20
430.0
 21
130.0
  0
LINE
  8
COSTRUZIONI
 10
1811.504802
 11
1256.504802
 20
130.0
 21
130.0
  0
LINE
  8
COSTRUZIONI
 10
1256.504802
 11
1811.504802
 20
1605.0
 21
1605.0
  0
LINE
  8
COSTRUZIONI
 10
1811.504802
 11
1811.504802
 20
1605.0
 21
495.0
  0
LINE
  8
COSTRUZIONI
 10
1811.504802
 11
1256.504802
 20
495.0
 21
495.0
  0
LINE
  8
COSTRUZIONI
 10
1256.504802
 11
1256.504802
 20
495.0
 21
1605.0
  0
LINE
  8
COSTRUZIONI
 10
133.5
 11
688.5
 20
430.0
 21
130.0
  0
LINE
  8
COSTRUZIONI
 10
133.5
 11
688.5
 20
130.0
 21
430.0
  0
LINE
  8
COSTRUZIONI
 10
133.5
 11
688.5
 20
1605.0
 21
495.0
  0
LINE
  8
COSTRUZIONI
 10
688.5
 11
133.5
 20
495.0
 21
495.0
  0
LINE
  8
COSTRUZIONI
 10
133.5
 11
688.5
 20
495.0
 21
1605.0
  0
LINE
  8
COSTRUZIONI
 10
133.5
 11
688.5
 20
1970.0
 21
1670.0
  0
LINE
  8
COSTRUZIONI
 10
133.5
 11
688.5
 20
1670.0
 21
1970.0
  0
LINE
  8
COSTRUZIONI
 10
1256.504802
 11
1811.504802
 20
1970.0
 21
1670.0
  0
LINE
  8
COSTRUZIONI
 10
1256.504802
 11
1811.504802
 20
1670.0
 21
1970.0
  0
LINE
  8
COSTRUZIONI
 10
1256.504802
 11
1811.504802
 20
495.0
 21
1605.0
  0
LINE
  8
COSTRUZIONI
 10
1256.504802
 11
1811.504802
 20
1605.0
 21
495.0
  0
LINE
  8
COSTRUZIONI
 10
1811.504802
 11
1256.504802
 20
130.0
 21
430.0
  0
LINE
  8
COSTRUZIONI
 10
1256.504802
 11
1811.504802
 20
130.0
 21
430.0
  0
ENDSEC
  0
EOF
