  0
SECTION
  2
ENTITIES
  0
LINE
  8
COSTRUZIONI
 10
0.0
 11
0.0
 20
0.0
 21
2109.0
  0
LINE
  8
COSTRUZIONI
 10
0.0
 11
896.0
 20
2109.0
 21
2109.0
  0
LINE
  8
COSTRUZIONI
 10
896.0
 11
896.0
 20
2109.0
 21
0.0
  0
LINE
  8
COSTRUZIONI
 10
896.0
 11
0.0
 20
0.0
 21
0.0
  0
LINE
  8
COSTRUZIONI
 10
84.5
 11
84.5
 20
1117.912133
 21
2009.0
  0
LINE
  8
COSTRUZIONI
 10
84.5
 11
811.5
 20
2009.0
 21
2009.0
  0
LINE
  8
COSTRUZIONI
 10
811.5
 11
811.5
 20
2009.0
 21
100.0
  0
LINE
  8
COSTRUZIONI
 10
811.5
 11
84.5
 20
100.0
 21
100.0
  0
LINE
  8
COSTRUZIONI
 10
84.5
 11
84.5
 20
100.0
 21
845.727117
  0
LINE
  8
COSTRUZIONI
 10
84.5
 11
84.5
 20
845.727117
 21
1117.912133
  0
LINE
  8
COSTRUZIONI
 10
781.5
 11
781.5
 20
1979.0
 21
1679.0
  0
LINE
  8
COSTRUZIONI
 10
781.5
 11
114.5
 20
1679.0
 21
1679.0
  0
LINE
  8
COSTRUZIONI
 10
114.5
 11
114.5
 20
1679.0
 21
1979.0
  0
LINE
  8
COSTRUZIONI
 10
114.5
 11
781.5
 20
1979.0
 21
1979.0
  0
LINE
  8
COSTRUZIONI
 10
114.5
 11
114.5
 20
130.0
 21
430.0
  0
LINE
  8
COSTRUZIONI
 10
114.5
 11
781.5
 20
430.0
 21
430.0
  0
LINE
  8
COSTRUZIONI
 10
781.5
 11
781.5
 20
430.0
 21
130.0
  0
LINE
  8
COSTRUZIONI
 10
781.5
 11
114.5
 20
130.0
 21
130.0
  0
LINE
  8
COSTRUZIONI
 10
781.5
 11
781.5
 20
1614.0
 21
495.0
  0
LINE
  8
COSTRUZIONI
 10
781.5
 11
114.5
 20
495.0
 21
495.0
  0
LINE
  8
COSTRUZIONI
 10
114.5
 11
114.5
 20
495.0
 21
1614.0
  0
LINE
  8
COSTRUZIONI
 10
114.5
 11
781.5
 20
1614.0
 21
1614.0
  0
LINE
  8
COSTRUZIONI
 10
791.5
 11
104.5
 20
1624.0
 21
1624.0
  0
LINE
  8
COSTRUZIONI
 10
104.5
 11
104.5
 20
1624.0
 21
485.0
  0
LINE
  8
COSTRUZIONI
 10
104.5
 11
791.5
 20
485.0
 21
485.0
  0
LINE
  8
COSTRUZIONI
 10
791.5
 11
791.5
 20
485.0
 21
1624.0
  0
LINE
  8
COSTRUZIONI
 10
114.5
 11
781.5
 20
1679.0
 21
1979.0
  0
LINE
  8
COSTRUZIONI
 10
781.5
 11
114.5
 20
1679.0
 21
1979.0
  0
LINE
  8
COSTRUZIONI
 10
114.5
 11
781.5
 20
130.0
 21
430.0
  0
LINE
  8
COSTRUZIONI
 10
114.5
 11
781.5
 20
430.0
 21
130.0
  0
LINE
  8
COSTRUZIONI
 10
114.5
 11
781.5
 20
1614.0
 21
495.0
  0
LINE
  8
COSTRUZIONI
 10
114.5
 11
781.5
 20
495.0
 21
1614.0
  0
LINE
  8
COSTRUZIONI
 10
2001.832331
 11
2001.832331
 20
0.0
 21
2109.0
  0
LINE
  8
COSTRUZIONI
 10
2001.832331
 11
1105.832331
 20
2109.0
 21
2109.0
  0
LINE
  8
COSTRUZIONI
 10
1105.832331
 11
1105.832331
 20
2109.0
 21
0.0
  0
LINE
  8
COSTRUZIONI
 10
1105.832331
 11
2001.832331
 20
0.0
 21
0.0
  0
LINE
  8
COSTRUZIONI
 10
1917.332331
 11
1917.332331
 20
1117.912133
 21
2009.0
  0
LINE
  8
COSTRUZIONI
 10
1917.332331
 11
1190.332331
 20
2009.0
 21
2009.0
  0
LINE
  8
COSTRUZIONI
 10
1190.332331
 11
1190.332331
 20
2009.0
 21
100.0
  0
LINE
  8
COSTRUZIONI
 10
1190.332331
 11
1917.332331
 20
100.0
 21
100.0
  0
LINE
  8
COSTRUZIONI
 10
1917.332331
 11
1917.332331
 20
100.0
 21
845.727117
  0
LINE
  8
COSTRUZIONI
 10
1917.332331
 11
1917.332331
 20
845.727117
 21
1117.912133
  0
LINE
  8
COSTRUZIONI
 10
1220.332331
 11
1220.332331
 20
1979.0
 21
1679.0
  0
LINE
  8
COSTRUZIONI
 10
1220.332331
 11
1887.332331
 20
1679.0
 21
1679.0
  0
LINE
  8
COSTRUZIONI
 10
1887.332331
 11
1887.332331
 20
1679.0
 21
1979.0
  0
LINE
  8
COSTRUZIONI
 10
1887.332331
 11
1220.332331
 20
1979.0
 21
1979.0
  0
LINE
  8
COSTRUZIONI
 10
1887.332331
 11
1887.332331
 20
130.0
 21
430.0
  0
LINE
  8
COSTRUZIONI
 10
1887.332331
 11
1220.332331
 20
430.0
 21
430.0
  0
LINE
  8
COSTRUZIONI
 10
1220.332331
 11
1220.332331
 20
430.0
 21
130.0
  0
LINE
  8
COSTRUZIONI
 10
1220.332331
 11
1887.332331
 20
130.0
 21
130.0
  0
LINE
  8
COSTRUZIONI
 10
1220.332331
 11
1220.332331
 20
1614.0
 21
495.0
  0
LINE
  8
COSTRUZIONI
 10
1220.332331
 11
1887.332331
 20
495.0
 21
495.0
  0
LINE
  8
COSTRUZIONI
 10
1887.332331
 11
1887.332331
 20
495.0
 21
1614.0
  0
LINE
  8
COSTRUZIONI
 10
1887.332331
 11
1220.332331
 20
1614.0
 21
1614.0
  0
LINE
  8
COSTRUZIONI
 10
1887.332331
 11
1220.332331
 20
1679.0
 21
1979.0
  0
LINE
  8
COSTRUZIONI
 10
1220.332331
 11
1887.332331
 20
1679.0
 21
1979.0
  0
LINE
  8
COSTRUZIONI
 10
1887.332331
 11
1220.332331
 20
130.0
 21
430.0
  0
LINE
  8
COSTRUZIONI
 10
1887.332331
 11
1220.332331
 20
430.0
 21
130.0
  0
LINE
  8
COSTRUZIONI
 10
1887.332331
 11
1220.332331
 20
1614.0
 21
495.0
  0
LINE
  8
COSTRUZIONI
 10
1887.332331
 11
1220.332331
 20
495.0
 21
1614.0
  0
ENDSEC
  0
EOF
