  0
SECTION
  2
ENTITIES
  0
LINE
  8
COSTRUZIONI
 10
696.0
 11
-28.0
 20
0.0
 21
0.0
  0
LINE
  8
COSTRUZIONI
 10
696.0
 11
696.0
 20
0.0
 21
2080.0
  0
LINE
  8
COSTRUZIONI
 10
696.0
 11
-28.0
 20
2080.0
 21
2080.0
  0
LINE
  8
COSTRUZIONI
 10
-28.0
 11
-28.0
 20
2080.0
 21
0.0
  0
LINE
  8
COSTRUZIONI
 10
56.5
 11
56.5
 20
845.727117
 21
100.0
  0
LINE
  8
COSTRUZIONI
 10
56.5
 11
611.5
 20
100.0
 21
100.0
  0
LINE
  8
COSTRUZIONI
 10
611.5
 11
611.5
 20
100.0
 21
1980.0
  0
LINE
  8
COSTRUZIONI
 10
611.5
 11
56.5
 20
1980.0
 21
1980.0
  0
LINE
  8
COSTRUZIONI
 10
56.5
 11
56.5
 20
1980.0
 21
1117.912133
  0
LINE
  8
COSTRUZIONI
 10
56.5
 11
56.5
 20
845.727117
 21
1117.912133
  0
LINE
  8
COSTRUZIONI
 10
581.5
 11
86.5
 20
1650.0
 21
1650.0
  0
LINE
  8
COSTRUZIONI
 10
86.5
 11
86.5
 20
1650.0
 21
1950.0
  0
LINE
  8
COSTRUZIONI
 10
86.5
 11
581.5
 20
1950.0
 21
1950.0
  0
LINE
  8
COSTRUZIONI
 10
581.5
 11
581.5
 20
1950.0
 21
1650.0
  0
LINE
  8
COSTRUZIONI
 10
86.5
 11
86.5
 20
130.0
 21
430.0
  0
LINE
  8
COSTRUZIONI
 10
86.5
 11
581.5
 20
430.0
 21
430.0
  0
LINE
  8
COSTRUZIONI
 10
581.5
 11
581.5
 20
430.0
 21
130.0
  0
LINE
  8
COSTRUZIONI
 10
581.5
 11
86.5
 20
130.0
 21
130.0
  0
LINE
  8
COSTRUZIONI
 10
581.5
 11
86.5
 20
495.0
 21
495.0
  0
LINE
  8
COSTRUZIONI
 10
581.5
 11
581.5
 20
495.0
 21
1585.0
  0
LINE
  8
COSTRUZIONI
 10
581.5
 11
86.5
 20
1585.0
 21
1585.0
  0
LINE
  8
COSTRUZIONI
 10
86.5
 11
86.5
 20
1585.0
 21
495.0
  0
LINE
  8
COSTRUZIONI
 10
76.5
 11
76.5
 20
485.0
 21
1595.0
  0
LINE
  8
COSTRUZIONI
 10
76.5
 11
591.5
 20
1595.0
 21
1595.0
  0
LINE
  8
COSTRUZIONI
 10
591.5
 11
591.5
 20
1595.0
 21
485.0
  0
LINE
  8
COSTRUZIONI
 10
76.5
 11
591.5
 20
485.0
 21
485.0
  0
LINE
  8
COSTRUZIONI
 10
86.5
 11
581.5
 20
1950.0
 21
1650.0
  0
LINE
  8
COSTRUZIONI
 10
86.5
 11
581.5
 20
1650.0
 21
1950.0
  0
LINE
  8
COSTRUZIONI
 10
86.5
 11
581.5
 20
130.0
 21
430.0
  0
LINE
  8
COSTRUZIONI
 10
86.5
 11
581.5
 20
430.0
 21
130.0
  0
LINE
  8
COSTRUZIONI
 10
86.5
 11
581.5
 20
495.0
 21
1585.0
  0
LINE
  8
COSTRUZIONI
 10
86.5
 11
581.5
 20
1585.0
 21
495.0
  0
LINE
  8
COSTRUZIONI
 10
1117.817027
 11
1841.817027
 20
0.0
 21
0.0
  0
LINE
  8
COSTRUZIONI
 10
1117.817027
 11
1117.817027
 20
0.0
 21
2080.0
  0
LINE
  8
COSTRUZIONI
 10
1117.817027
 11
1841.817027
 20
2080.0
 21
2080.0
  0
LINE
  8
COSTRUZIONI
 10
1841.817027
 11
1841.817027
 20
2080.0
 21
0.0
  0
LINE
  8
COSTRUZIONI
 10
1757.317027
 11
1757.317027
 20
845.727117
 21
100.0
  0
LINE
  8
COSTRUZIONI
 10
1757.317027
 11
1202.317027
 20
100.0
 21
100.0
  0
LINE
  8
COSTRUZIONI
 10
1202.317027
 11
1202.317027
 20
100.0
 21
1980.0
  0
LINE
  8
COSTRUZIONI
 10
1202.317027
 11
1757.317027
 20
1980.0
 21
1980.0
  0
LINE
  8
COSTRUZIONI
 10
1757.317027
 11
1757.317027
 20
1980.0
 21
1117.912133
  0
LINE
  8
COSTRUZIONI
 10
1757.317027
 11
1757.317027
 20
845.727117
 21
1117.912133
  0
LINE
  8
COSTRUZIONI
 10
1232.317027
 11
1727.317027
 20
1650.0
 21
1650.0
  0
LINE
  8
COSTRUZIONI
 10
1727.317027
 11
1727.317027
 20
1650.0
 21
1950.0
  0
LINE
  8
COSTRUZIONI
 10
1727.317027
 11
1232.317027
 20
1950.0
 21
1950.0
  0
LINE
  8
COSTRUZIONI
 10
1232.317027
 11
1232.317027
 20
1950.0
 21
1650.0
  0
LINE
  8
COSTRUZIONI
 10
1727.317027
 11
1727.317027
 20
130.0
 21
430.0
  0
LINE
  8
COSTRUZIONI
 10
1727.317027
 11
1232.317027
 20
430.0
 21
430.0
  0
LINE
  8
COSTRUZIONI
 10
1232.317027
 11
1232.317027
 20
430.0
 21
130.0
  0
LINE
  8
COSTRUZIONI
 10
1232.317027
 11
1727.317027
 20
130.0
 21
130.0
  0
LINE
  8
COSTRUZIONI
 10
1232.317027
 11
1727.317027
 20
495.0
 21
495.0
  0
LINE
  8
COSTRUZIONI
 10
1232.317027
 11
1232.317027
 20
495.0
 21
1585.0
  0
LINE
  8
COSTRUZIONI
 10
1232.317027
 11
1727.317027
 20
1585.0
 21
1585.0
  0
LINE
  8
COSTRUZIONI
 10
1727.317027
 11
1727.317027
 20
1585.0
 21
495.0
  0
LINE
  8
COSTRUZIONI
 10
1727.317027
 11
1232.317027
 20
1950.0
 21
1650.0
  0
LINE
  8
COSTRUZIONI
 10
1727.317027
 11
1232.317027
 20
1650.0
 21
1950.0
  0
LINE
  8
COSTRUZIONI
 10
1727.317027
 11
1232.317027
 20
130.0
 21
430.0
  0
LINE
  8
COSTRUZIONI
 10
1727.317027
 11
1232.317027
 20
430.0
 21
130.0
  0
LINE
  8
COSTRUZIONI
 10
1232.317027
 11
1727.317027
 20
1585.0
 21
495.0
  0
LINE
  8
COSTRUZIONI
 10
1232.317027
 11
1727.317027
 20
495.0
 21
1585.0
  0
ENDSEC
  0
EOF
