  0
SECTION
  2
ENTITIES
  0
LINE
  8
COSTRUZIONI
 10
0.497
 11
2000.497
 20
-833.372
 21
-833.372
  0
LINE
  8
COSTRUZIONI
 10
2000.497
 11
2000.497
 20
-833.372
 21
-633.372
  0
LINE
  8
COSTRUZIONI
 10
2000.497
 11
0.497
 20
-633.372
 21
-633.372
  0
LINE
  8
COSTRUZIONI
 10
0.497
 11
0.497
 20
-633.372
 21
-833.372
  0
LINE
  8
COSTRUZIONI
 10
1000.497
 11
1000.497
 20
-833.372
 21
-633.372
  0
LINE
  8
COSTRUZIONI
 10
1000.497
 11
2000.497
 20
-733.372
 21
-733.372
  0
LINE
  8
COSTRUZIONI
 10
1500.497
 11
1500.497
 20
-833.372
 21
-633.372
  0
LINE
  8
APS_GEOMETRY
 10
63.182
 11
80.417
 20
-687.357
 21
-687.357
  0
ARC
  8
APS_GEOMETRY
 10
79.545
 20
-662.662
 40
24.711
 50
272.021
 51
278.44
  0
ARC
  8
APS_GEOMETRY
 10
80.518
 20
-669.217
 40
18.083
 50
278.44
 51
285.945
  0
ARC
  8
APS_GEOMETRY
 10
87.835
 20
-695.415
 40
9.118
 50
98.584
 51
104.931
  0
ARC
  8
APS_GEOMETRY
 10
87.219
 20
-691.334
 40
4.991
 50
90.0
 51
98.584
  0
ARC
  8
APS_GEOMETRY
 10
87.219
 20
-690.095
 40
3.752
 50
52.871
 51
90.0
  0
ARC
  8
APS_GEOMETRY
 10
82.13
 20
-696.816
 40
12.182
 50
32.518
 51
52.871
  0
ARC
  8
APS_GEOMETRY
 10
78.099
 20
-699.386
 40
16.963
 50
17.209
 51
32.518
  0
ARC
  8
APS_GEOMETRY
 10
81.459
 20
-698.346
 40
13.445
 50
360.0
 51
17.209
  0
ARC
  8
APS_GEOMETRY
 10
88.187
 20
-698.346
 40
6.717
 50
337.348
 51
360.0
  0
ARC
  8
APS_GEOMETRY
 10
90.887
 20
-699.472
 40
3.792
 50
307.042
 51
337.348
  0
ARC
  8
APS_GEOMETRY
 10
90.418
 20
-698.828
 40
4.589
 50
287.186
 51
306.87
  0
ARC
  8
APS_GEOMETRY
 10
89.999
 20
-697.474
 40
6.006
 50
270.0
 51
287.186
  0
ARC
  8
APS_GEOMETRY
 10
89.999
 20
-698.087
 40
5.393
 50
252.221
 51
270.0
  0
ARC
  8
APS_GEOMETRY
 10
89.748
 20
-698.87
 40
4.571
 50
232.896
 51
252.221
  0
ARC
  8
APS_GEOMETRY
 10
90.718
 20
-697.587
 40
6.18
 50
218.3
 51
232.896
  0
ARC
  8
APS_GEOMETRY
 10
98.298
 20
-691.6
 40
15.839
 50
209.197
 51
218.3
  0
ARC
  8
APS_GEOMETRY
 10
59.745
 20
-712.488
 40
28.012
 50
28.025
 51
32.699
  0
ARC
  8
APS_GEOMETRY
 10
79.901
 20
-699.548
 40
4.06
 50
32.699
 51
45.0
  0
ARC
  8
APS_GEOMETRY
 10
81.275
 20
-698.174
 40
2.116
 50
45.0
 51
67.557
  0
ARC
  8
APS_GEOMETRY
 10
81.267
 20
-698.194
 40
2.137
 50
67.557
 51
90.0
  0
ARC
  8
APS_GEOMETRY
 10
81.267
 20
-698.025
 40
1.969
 50
90.0
 51
120.801
  0
ARC
  8
APS_GEOMETRY
 10
81.2
 20
-697.914
 40
1.839
 50
120.801
 51
152.7
  0
ARC
  8
APS_GEOMETRY
 10
82.659
 20
-698.667
 40
3.481
 50
152.7
 51
171.085
  0
ARC
  8
APS_GEOMETRY
 10
93.748
 20
-700.406
 40
14.705
 50
171.085
 51
180.0
  0
LINE
  8
APS_GEOMETRY
 10
79.043
 11
79.043
 20
-700.406
 21
-718.72
  0
ARC
  8
APS_GEOMETRY
 10
98.47
 20
-718.72
 40
19.427
 50
180.0
 51
188.194
  0
ARC
  8
APS_GEOMETRY
 10
83.963
 20
-720.809
 40
4.77
 50
188.194
 51
204.775
  0
ARC
  8
APS_GEOMETRY
 10
82.553
 20
-721.46
 40
3.218
 50
204.775
 51
228.576
  0
ARC
  8
APS_GEOMETRY
 10
83.875
 20
-719.961
 40
5.216
 50
228.576
 51
247.218
  0
ARC
  8
APS_GEOMETRY
 10
76.207
 20
-738.033
 40
14.416
 50
59.381
 51
66.93
  0
ARC
  8
APS_GEOMETRY
 10
81.868
 20
-728.468
 40
3.301
 50
43.568
 51
59.381
  0
ARC
  8
APS_GEOMETRY
 10
82.773
 20
-727.606
 40
2.051
 50
19.041
 51
43.568
  0
ARC
  8
APS_GEOMETRY
 10
81.515
 20
-728.04
 40
3.382
 50
360.0
 51
19.041
  0
ARC
  8
APS_GEOMETRY
 10
82.15
 20
-728.04
 40
2.747
 50
317.66
 51
360.0
  0
ARC
  8
APS_GEOMETRY
 10
79.627
 20
-725.742
 40
6.16
 50
289.747
 51
317.66
  0
ARC
  8
APS_GEOMETRY
 10
77.515
 20
-719.857
 40
12.412
 50
281.964
 51
289.747
  0
ARC
  8
APS_GEOMETRY
 10
74.588
 20
-706.045
 40
26.531
 50
276.643
 51
281.964
  0
ARC
  8
APS_GEOMETRY
 10
73.356
 20
-695.47
 40
37.178
 50
272.836
 51
276.643
  0
ARC
  8
APS_GEOMETRY
 10
71.881
 20
-665.694
 40
66.99
 50
270.0
 51
272.836
  0
ARC
  8
APS_GEOMETRY
 10
71.881
 20
-647.244
 40
85.44
 50
267.283
 51
270.0
  0
ARC
  8
APS_GEOMETRY
 10
70.087
 20
-685.047
 40
47.595
 50
263.643
 51
267.283
  0
ARC
  8
APS_GEOMETRY
 10
68.585
 20
-698.531
 40
34.027
 50
258.563
 51
263.643
  0
ARC
  8
APS_GEOMETRY
 10
64.996
 20
-716.27
 40
15.929
 50
251.136
 51
258.563
  0
ARC
  8
APS_GEOMETRY
 10
61.792
 20
-725.563
 40
6.099
 50
222.558
 51
251.395
  0
ARC
  8
APS_GEOMETRY
 10
59.415
 20
-727.746
 40
2.871
 50
180.0
 51
222.558
  0
ARC
  8
APS_GEOMETRY
 10
58.935
 20
-727.746
 40
2.392
 50
150.642
 51
180.0
  0
ARC
  8
APS_GEOMETRY
 10
59.127
 20
-727.854
 40
2.612
 50
122.574
 51
150.642
  0
ARC
  8
APS_GEOMETRY
 10
58.62
 20
-727.271
 40
1.851
 50
108.677
 51
119.055
  0
ARC
  8
APS_GEOMETRY
 10
81.735
 20
-795.655
 40
74.036
 50
107.038
 51
108.677
  0
ARC
  8
APS_GEOMETRY
 10
59.181
 20
-721.892
 40
3.099
 50
286.144
 51
308.66
  0
ARC
  8
APS_GEOMETRY
 10
59.688
 20
-722.526
 40
2.287
 50
308.66
 51
334.933
  0
ARC
  8
APS_GEOMETRY
 10
57.623
 20
-721.56
 40
4.566
 50
334.933
 51
348.829
  0
ARC
  8
APS_GEOMETRY
 10
31.798
 20
-716.46
 40
30.891
 50
348.829
 51
354.161
  0
ARC
  8
APS_GEOMETRY
 10
14.342
 20
-714.661
 40
48.439
 50
354.144
 51
355.66
  0
ARC
  8
APS_GEOMETRY
 10
-63.035
 20
-708.789
 40
126.038
 50
355.66
 51
356.6
  0
ARC
  8
APS_GEOMETRY
 10
-122.184
 20
-705.275
 40
185.291
 50
356.6
 51
357.24
  0
ARC
  8
APS_GEOMETRY
 10
-290.009
 20
-697.184
 40
353.311
 50
357.24
 51
357.703
  0
ARC
  8
APS_GEOMETRY
 10
-273.488
 20
-697.846
 40
336.777
 50
357.703
 51
358.674
  0
ARC
  8
APS_GEOMETRY
 10
-117.656
 20
-701.452
 40
180.903
 50
358.674
 51
0.0
  0
ARC
  8
APS_GEOMETRY
 10
36.437
 20
-701.452
 40
26.81
 50
0.0
 51
6.242
  0
ARC
  8
APS_GEOMETRY
 10
57.757
 20
-699.121
 40
5.364
 50
6.242
 51
20.225
  0
ARC
  8
APS_GEOMETRY
 10
60.711
 20
-698.032
 40
2.215
 50
20.225
 51
50.44
  0
ARC
  8
APS_GEOMETRY
 10
61.285
 20
-697.337
 40
1.314
 50
50.44
 51
90.0
  0
ARC
  8
APS_GEOMETRY
 10
61.285
 20
-697.786
 40
1.762
 50
90.0
 51
126.747
  0
ARC
  8
APS_GEOMETRY
 10
63.775
 20
-701.121
 40
5.924
 50
126.747
 51
146.547
  0
ARC
  8
APS_GEOMETRY
 10
19.787
 20
-672.208
 40
46.715
 50
324.255
 51
326.701
  0
ARC
  8
APS_GEOMETRY
 10
38.41
 20
-685.612
 40
23.77
 50
320.826
 51
324.255
  0
ARC
  8
APS_GEOMETRY
 10
44.497
 20
-690.571
 40
15.918
 50
315.722
 51
320.826
  0
ARC
  8
APS_GEOMETRY
 10
51.491
 20
-697.392
 40
6.149
 50
307.504
 51
315.722
  0
ARC
  8
APS_GEOMETRY
 10
50.846
 20
-696.53
 40
7.226
 50
291.306
 51
307.405
  0
ARC
  8
APS_GEOMETRY
 10
51.965
 20
-699.399
 40
4.146
 50
270.0
 51
291.306
  0
ARC
  8
APS_GEOMETRY
 10
51.965
 20
-699.667
 40
3.879
 50
245.532
 51
270.0
  0
ARC
  8
APS_GEOMETRY
 10
51.935
 20
-699.731
 40
3.808
 50
220.833
 51
245.532
  0
ARC
  8
APS_GEOMETRY
 10
52.328
 20
-699.391
 40
4.328
 50
198.684
 51
220.833
  0
ARC
  8
APS_GEOMETRY
 10
53.97
 20
-698.836
 40
6.06
 50
180.0
 51
198.684
  0
ARC
  8
APS_GEOMETRY
 10
57.817
 20
-698.836
 40
9.908
 50
168.408
 51
180.0
  0
ARC
  8
APS_GEOMETRY
 10
64.17
 20
-700.139
 40
16.393
 50
159.402
 51
168.408
  0
ARC
  8
APS_GEOMETRY
 10
66.133
 20
-700.877
 40
18.49
 50
151.39
 51
159.402
  0
ARC
  8
APS_GEOMETRY
 10
65.731
 20
-700.658
 40
18.032
 50
143.276
 51
151.39
  0
ARC
  8
APS_GEOMETRY
 10
60.681
 20
-696.882
 40
11.726
 50
124.216
 51
143.31
  0
ARC
  8
APS_GEOMETRY
 10
56.183
 20
-690.267
 40
3.728
 50
90.0
 51
124.216
  0
ARC
  8
APS_GEOMETRY
 10
56.183
 20
-691.924
 40
5.384
 50
82.725
 51
90.0
  0
ARC
  8
APS_GEOMETRY
 10
55.763
 20
-695.22
 40
8.707
 50
77.005
 51
82.725
  0
ARC
  8
APS_GEOMETRY
 10
68.611
 20
-633.273
 40
54.561
 50
258.486
 51
260.378
  0
ARC
  8
APS_GEOMETRY
 10
63.107
 20
-665.738
 40
21.633
 50
260.378
 51
263.382
  0
ARC
  8
APS_GEOMETRY
 10
62.636
 20
-669.795
 40
17.548
 50
263.382
 51
267.084
  0
ARC
  8
APS_GEOMETRY
 10
63.182
 20
-659.084
 40
28.273
 50
267.084
 51
270.0
  0
ARC
  8
APS_GEOMETRY
 10
122.909
 20
-712.223
 40
25.782
 50
71.91
 51
90.0
  0
ARC
  8
APS_GEOMETRY
 10
123.907
 20
-709.166
 40
22.566
 50
52.561
 51
71.91
  0
ARC
  8
APS_GEOMETRY
 10
123.646
 20
-709.243
 40
22.786
 50
38.846
 51
52.156
  0
ARC
  8
APS_GEOMETRY
 10
120.074
 20
-712.119
 40
27.372
 50
26.707
 51
38.846
  0
ARC
  8
APS_GEOMETRY
 10
120.781
 20
-711.541
 40
26.482
 50
13.868
 51
26.278
  0
ARC
  8
APS_GEOMETRY
 10
125.881
 20
-710.282
 40
21.229
 50
360.0
 51
13.868
  0
ARC
  8
APS_GEOMETRY
 10
126.211
 20
-710.282
 40
20.899
 50
339.712
 51
360.0
  0
ARC
  8
APS_GEOMETRY
 10
125.034
 20
-709.847
 40
22.153
 50
320.013
 51
339.712
  0
ARC
  8
APS_GEOMETRY
 10
124.839
 20
-709.74
 40
22.372
 50
303.344
 51
320.123
  0
ARC
  8
APS_GEOMETRY
 10
122.544
 20
-706.251
 40
26.548
 50
287.949
 51
303.344
  0
ARC
  8
APS_GEOMETRY
 10
121.789
 20
-703.636
 40
29.269
 50
279.039
 51
287.776
  0
ARC
  8
APS_GEOMETRY
 10
122.091
 20
-705.535
 40
27.346
 50
270.0
 51
279.039
  0
ARC
  8
APS_GEOMETRY
 10
122.091
 20
-706.87
 40
26.011
 50
257.728
 51
270.0
  0
ARC
  8
APS_GEOMETRY
 10
122.132
 20
-706.681
 40
26.203
 50
245.501
 51
257.728
  0
ARC
  8
APS_GEOMETRY
 10
120.66
 20
-709.904
 40
22.66
 50
228.665
 51
245.511
  0
ARC
  8
APS_GEOMETRY
 10
120.17
 20
-710.461
 40
21.918
 50
211.535
 51
228.665
  0
ARC
  8
APS_GEOMETRY
 10
120.812
 20
-709.99
 40
22.712
 50
195.642
 51
211.701
  0
ARC
  8
APS_GEOMETRY
 10
121.986
 20
-709.661
 40
23.931
 50
180.0
 51
195.642
  0
ARC
  8
APS_GEOMETRY
 10
122.237
 20
-709.661
 40
24.183
 50
162.181
 51
180.0
  0
ARC
  8
APS_GEOMETRY
 10
120.031
 20
-708.952
 40
21.865
 50
143.434
 51
162.181
  0
ARC
  8
APS_GEOMETRY
 10
119.734
 20
-708.714
 40
21.485
 50
126.384
 51
143.471
  0
ARC
  8
APS_GEOMETRY
 10
121.768
 20
-711.475
 40
24.914
 50
110.525
 51
126.384
  0
ARC
  8
APS_GEOMETRY
 10
121.667
 20
-710.725
 40
24.177
 50
99.77
 51
110.925
  0
ARC
  8
APS_GEOMETRY
 10
122.909
 20
-717.937
 40
31.496
 50
90.0
 51
99.77
  0
ARC
  8
APS_GEOMETRY
 10
119.802
 20
-700.635
 40
4.807
 50
90.0
 51
119.604
  0
ARC
  8
APS_GEOMETRY
 10
120.223
 20
-701.376
 40
5.659
 50
119.604
 51
146.842
  0
ARC
  8
APS_GEOMETRY
 10
121.069
 20
-702.069
 40
6.748
 50
145.84
 51
164.055
  0
ARC
  8
APS_GEOMETRY
 10
123.031
 20
-702.63
 40
8.788
 50
164.055
 51
180.0
  0
ARC
  8
APS_GEOMETRY
 10
135.295
 20
-702.63
 40
21.053
 50
180.0
 51
189.977
  0
ARC
  8
APS_GEOMETRY
 10
153.947
 20
-699.349
 40
39.991
 50
189.977
 51
197.211
  0
ARC
  8
APS_GEOMETRY
 10
158.026
 20
-698.085
 40
44.261
 50
197.211
 51
203.76
  0
ARC
  8
APS_GEOMETRY
 10
147.864
 20
-702.559
 40
33.157
 50
203.76
 51
211.329
  0
ARC
  8
APS_GEOMETRY
 10
126.995
 20
-715.083
 40
8.821
 50
212.32
 51
224.441
  0
ARC
  8
APS_GEOMETRY
 10
126.14
 20
-715.922
 40
7.623
 50
224.441
 51
237.484
  0
ARC
  8
APS_GEOMETRY
 10
125.587
 20
-716.789
 40
6.595
 50
237.484
 51
252.416
  0
ARC
  8
APS_GEOMETRY
 10
125.035
 20
-718.532
 40
4.766
 50
252.416
 51
270.0
  0
ARC
  8
APS_GEOMETRY
 10
125.035
 20
-717.967
 40
5.331
 50
270.0
 51
294.953
  0
ARC
  8
APS_GEOMETRY
 10
125.184
 20
-718.288
 40
4.977
 50
294.953
 51
320.793
  0
ARC
  8
APS_GEOMETRY
 10
124.383
 20
-717.635
 40
6.011
 50
320.793
 51
342.777
  0
ARC
  8
APS_GEOMETRY
 10
120.816
 20
-716.529
 40
9.746
 50
342.777
 51
0.0
  0
ARC
  8
APS_GEOMETRY
 10
104.054
 20
-716.529
 40
26.507
 50
0.0
 51
8.499
  0
ARC
  8
APS_GEOMETRY
 10
92.387
 20
-718.272
 40
38.304
 50
8.499
 51
15.566
  0
ARC
  8
APS_GEOMETRY
 10
93.79
 20
-717.881
 40
36.848
 50
15.566
 51
22.909
  0
ARC
  8
APS_GEOMETRY
 10
105.854
 20
-712.783
 40
23.751
 50
22.909
 51
32.057
  0
ARC
  8
APS_GEOMETRY
 10
115.329
 20
-706.814
 40
12.552
 50
31.921
 51
42.51
  0
ARC
  8
APS_GEOMETRY
 10
117.931
 20
-704.429
 40
9.022
 50
42.51
 51
55.008
  0
ARC
  8
APS_GEOMETRY
 10
118.81
 20
-703.173
 40
7.489
 50
55.008
 51
69.88
  0
ARC
  8
APS_GEOMETRY
 10
119.598
 20
-701.022
 40
5.198
 50
69.88
 51
87.754
  0
ARC
  8
APS_GEOMETRY
 10
171.33
 20
-702.425
 40
15.983
 50
83.923
 51
90.0
  0
ARC
  8
APS_GEOMETRY
 10
170.044
 20
-714.5
 40
28.127
 50
79.342
 51
83.923
  0
ARC
  8
APS_GEOMETRY
 10
168.493
 20
-722.74
 40
36.512
 50
75.808
 51
79.342
  0
ARC
  8
APS_GEOMETRY
 10
163.083
 20
-744.135
 40
58.58
 50
73.018
 51
75.808
  0
ARC
  8
APS_GEOMETRY
 10
182.134
 20
-681.642
 40
6.752
 50
253.288
 51
259.046
  0
ARC
  8
APS_GEOMETRY
 10
181.206
 20
-686.436
 40
1.87
 50
259.046
 51
270.0
  0
ARC
  8
APS_GEOMETRY
 10
181.206
 20
-687.196
 40
1.11
 50
270.0
 51
286.699
  0
ARC
  8
APS_GEOMETRY
 10
172.333
 20
-657.619
 40
31.989
 50
286.699
 51
289.799
  0
ARC
  8
APS_GEOMETRY
 10
184.223
 20
-690.528
 40
3.002
 50
100.008
 51
110.556
  0
ARC
  8
APS_GEOMETRY
 10
184.28
 20
-690.855
 40
3.334
 50
90.0
 51
100.008
  0
ARC
  8
APS_GEOMETRY
 10
184.28
 20
-690.7
 40
3.179
 50
53.356
 51
90.0
  0
ARC
  8
APS_GEOMETRY
 10
178.727
 20
-698.166
 40
12.484
 50
35.101
 51
53.356
  0
ARC
  8
APS_GEOMETRY
 10
175.955
 20
-700.114
 40
15.871
 50
20.245
 51
35.101
  0
ARC
  8
APS_GEOMETRY
 10
182.789
 20
-697.593
 40
8.588
 50
360.0
 51
20.245
  0
ARC
  8
APS_GEOMETRY
 10
186.227
 20
-697.593
 40
5.15
 50
340.481
 51
360.0
  0
ARC
  8
APS_GEOMETRY
 10
187.075
 20
-697.894
 40
4.25
 50
318.972
 51
340.481
  0
ARC
  8
APS_GEOMETRY
 10
187.454
 20
-698.223
 40
3.748
 50
295.017
 51
318.972
  0
ARC
  8
APS_GEOMETRY
 10
187.583
 20
-698.501
 40
3.442
 50
270.0
 51
295.017
  0
ARC
  8
APS_GEOMETRY
 10
187.583
 20
-696.658
 40
5.285
 50
256.171
 51
270.0
  0
ARC
  8
APS_GEOMETRY
 10
187.007
 20
-698.999
 40
2.874
 50
237.381
 51
256.171
  0
ARC
  8
APS_GEOMETRY
 10
188.028
 20
-697.404
 40
4.768
 50
231.559
 51
237.381
  0
ARC
  8
APS_GEOMETRY
 10
202.87
 20
-678.705
 40
28.642
 50
229.185
 51
231.559
  0
ARC
  8
APS_GEOMETRY
 10
218.778
 20
-660.286
 40
52.979
 50
227.9
 51
229.185
  0
ARC
  8
APS_GEOMETRY
 10
273.831
 20
-599.357
 40
135.095
 50
227.095
 51
227.9
  0
ARC
  8
APS_GEOMETRY
 10
170.468
 20
-710.519
 40
16.696
 50
46.975
 51
64.612
  0
ARC
  8
APS_GEOMETRY
 10
174.142
 20
-702.777
 40
8.127
 50
64.612
 51
90.0
  0
ARC
  8
APS_GEOMETRY
 10
174.142
 20
-700.506
 40
5.856
 50
90.0
 51
106.966
  0
ARC
  8
APS_GEOMETRY
 10
173.464
 20
-698.282
 40
3.531
 50
106.966
 51
128.868
  0
ARC
  8
APS_GEOMETRY
 10
173.071
 20
-697.795
 40
2.905
 50
128.868
 51
154.741
  0
ARC
  8
APS_GEOMETRY
 10
173.198
 20
-697.855
 40
3.046
 50
154.741
 51
180.0
  0
ARC
  8
APS_GEOMETRY
 10
173.013
 20
-697.855
 40
2.861
 50
180.0
 51
206.64
  0
ARC
  8
APS_GEOMETRY
 10
173.934
 20
-697.393
 40
3.891
 50
206.64
 51
229.43
  0
ARC
  8
APS_GEOMETRY
 10
175.409
 20
-695.67
 40
6.159
 50
229.43
 51
244.493
  0
ARC
  8
APS_GEOMETRY
 10
179.455
 20
-687.191
 40
15.554
 50
244.493
 51
253.956
  0
ARC
  8
APS_GEOMETRY
 10
107.384
 20
-932.12
 40
239.758
 50
72.737
 51
73.58
  0
ARC
  8
APS_GEOMETRY
 10
148.688
 20
-799.204
 40
100.573
 50
71.435
 51
72.737
  0
ARC
  8
APS_GEOMETRY
 10
162.368
 20
-758.47
 40
57.603
 50
69.164
 51
71.435
  0
ARC
  8
APS_GEOMETRY
 10
178.513
 20
-716.048
 40
12.212
 50
64.231
 51
69.164
  0
ARC
  8
APS_GEOMETRY
 10
176.656
 20
-719.786
 40
16.387
 50
34.939
 51
64.068
  0
ARC
  8
APS_GEOMETRY
 10
180.664
 20
-716.987
 40
11.498
 50
360.0
 51
34.939
  0
ARC
  8
APS_GEOMETRY
 10
178.2
 20
-716.987
 40
13.962
 50
333.435
 51
360.0
  0
ARC
  8
APS_GEOMETRY
 10
177.287
 20
-716.53
 40
14.982
 50
307.807
 51
333.435
  0
ARC
  8
APS_GEOMETRY
 10
174.912
 20
-713.458
 40
18.866
 50
296.732
 51
307.786
  0
ARC
  8
APS_GEOMETRY
 10
173.507
 20
-710.667
 40
21.99
 50
286.496
 51
296.732
  0
ARC
  8
APS_GEOMETRY
 10
172.581
 20
-707.542
 40
25.25
 50
277.544
 51
286.496
  0
ARC
  8
APS_GEOMETRY
 10
171.232
 20
-697.351
 40
35.53
 50
270.0
 51
277.544
  0
ARC
  8
APS_GEOMETRY
 10
171.232
 20
-695.81
 40
37.071
 50
263.555
 51
270.0
  0
ARC
  8
APS_GEOMETRY
 10
172.432
 20
-685.186
 40
47.762
 50
257.878
 51
263.555
  0
ARC
  8
APS_GEOMETRY
 10
171.795
 20
-688.152
 40
44.729
 50
254.839
 51
257.878
  0
ARC
  8
APS_GEOMETRY
 10
166.628
 20
-707.219
 40
24.974
 50
250.772
 51
254.839
  0
ARC
  8
APS_GEOMETRY
 10
164.304
 20
-713.882
 40
17.918
 50
245.121
 51
250.772
  0
ARC
  8
APS_GEOMETRY
 10
160.371
 20
-722.364
 40
8.568
 50
236.944
 51
245.121
  0
ARC
  8
APS_GEOMETRY
 10
158.051
 20
-726.014
 40
4.243
 50
211.802
 51
236.31
  0
ARC
  8
APS_GEOMETRY
 10
169.076
 20
-719.178
 40
17.215
 50
199.704
 51
211.802
  0
ARC
  8
APS_GEOMETRY
 10
174.34
 20
-717.293
 40
22.807
 50
190.413
 51
199.704
  0
ARC
  8
APS_GEOMETRY
 10
169.778
 20
-718.131
 40
18.168
 50
180.0
 51
190.413
  0
ARC
  8
APS_GEOMETRY
 10
157.478
 20
-718.131
 40
5.869
 50
164.876
 51
180.0
  0
ARC
  8
APS_GEOMETRY
 10
154.172
 20
-717.238
 40
2.443
 50
141.34
 51
164.876
  0
ARC
  8
APS_GEOMETRY
 10
154.491
 20
-717.452
 40
2.827
 50
116.928
 51
142.001
  0
ARC
  8
APS_GEOMETRY
 10
154.324
 20
-717.122
 40
2.457
 50
90.0
 51
116.928
  0
ARC
  8
APS_GEOMETRY
 10
154.324
 20
-717.128
 40
2.464
 50
62.21
 51
90.0
  0
ARC
  8
APS_GEOMETRY
 10
153.34
 20
-718.995
 40
4.573
 50
41.906
 51
62.21
  0
ARC
  8
APS_GEOMETRY
 10
153.507
 20
-719.03
 40
4.475
 50
37.313
 51
43.668
  0
ARC
  8
APS_GEOMETRY
 10
128.439
 20
-738.135
 40
35.993
 50
35.074
 51
37.313
  0
ARC
  8
APS_GEOMETRY
 10
99.972
 20
-758.123
 40
70.777
 50
33.934
 51
35.074
  0
ARC
  8
APS_GEOMETRY
 10
-1.526
 20
-826.413
 40
193.11
 50
33.243
 51
33.934
  0
ARC
  8
APS_GEOMETRY
 10
165.594
 20
-716.843
 40
6.727
 50
213.453
 51
231.637
  0
ARC
  8
APS_GEOMETRY
 10
168.772
 20
-712.828
 40
11.848
 50
231.637
 51
245.313
  0
ARC
  8
APS_GEOMETRY
 10
169.473
 20
-711.304
 40
13.524
 50
245.313
 51
257.398
  0
ARC
  8
APS_GEOMETRY
 10
169.237
 20
-712.36
 40
12.443
 50
257.398
 51
270.0
  0
ARC
  8
APS_GEOMETRY
 10
169.237
 20
-714.297
 40
10.506
 50
270.0
 51
282.907
  0
ARC
  8
APS_GEOMETRY
 10
170.367
 20
-719.23
 40
5.445
 50
282.907
 51
300.872
  0
ARC
  8
APS_GEOMETRY
 10
171.347
 20
-720.87
 40
3.535
 50
300.872
 51
326.876
  0
ARC
  8
APS_GEOMETRY
 10
172.464
 20
-721.598
 40
2.202
 50
326.876
 51
0.0
  0
ARC
  8
APS_GEOMETRY
 10
172.134
 20
-721.598
 40
2.531
 50
0.0
 51
27.553
  0
ARC
  8
APS_GEOMETRY
 10
171.334
 20
-722.015
 40
3.434
 50
27.553
 51
51.147
  0
ARC
  8
APS_GEOMETRY
 10
169.679
 20
-724.069
 40
6.071
 50
51.147
 51
65.225
  0
ARC
  8
APS_GEOMETRY
 10
163.576
 20
-737.293
 40
20.636
 50
65.225
 51
72.848
  0
ARC
  8
APS_GEOMETRY
 10
199.218
 20
-623.654
 40
98.462
 50
251.106
 51
252.532
  0
ARC
  8
APS_GEOMETRY
 10
186.601
 20
-660.515
 40
59.501
 50
249.271
 51
251.106
  0
ARC
  8
APS_GEOMETRY
 10
181.356
 20
-674.375
 40
44.683
 50
246.83
 51
249.271
  0
ARC
  8
APS_GEOMETRY
 10
172.873
 20
-694.197
 40
23.121
 50
243.435
 51
246.83
  0
ARC
  8
APS_GEOMETRY
 10
171.907
 20
-696.129
 40
20.961
 50
235.981
 51
243.435
  0
ARC
  8
APS_GEOMETRY
 10
172.648
 20
-695.03
 40
22.287
 50
228.752
 51
235.981
  0
ARC
  8
APS_GEOMETRY
 10
169.174
 20
-699.124
 40
16.918
 50
206.421
 51
228.457
  0
ARC
  8
APS_GEOMETRY
 10
164.62
 20
-701.387
 40
11.833
 50
180.0
 51
206.421
  0
ARC
  8
APS_GEOMETRY
 10
164.834
 20
-701.387
 40
12.047
 50
166.555
 51
180.0
  0
ARC
  8
APS_GEOMETRY
 10
166.229
 20
-701.721
 40
13.482
 50
153.848
 51
166.555
  0
ARC
  8
APS_GEOMETRY
 10
166.346
 20
-701.778
 40
13.611
 50
141.244
 51
153.848
  0
ARC
  8
APS_GEOMETRY
 10
167.206
 20
-702.468
 40
14.714
 50
129.123
 51
141.244
  0
ARC
  8
APS_GEOMETRY
 10
169.959
 20
-705.395
 40
18.725
 50
108.978
 51
130.006
  0
ARC
  8
APS_GEOMETRY
 10
171.33
 20
-709.382
 40
22.94
 50
90.0
 51
108.978
  0
ARC
  8
APS_GEOMETRY
 10
221.32
 20
-707.705
 40
21.264
 50
77.257
 51
90.0
  0
ARC
  8
APS_GEOMETRY
 10
221.104
 20
-708.661
 40
22.243
 50
64.799
 51
77.257
  0
ARC
  8
APS_GEOMETRY
 10
239.422
 20
-669.662
 40
20.843
 50
244.885
 51
251.175
  0
ARC
  8
APS_GEOMETRY
 10
233.453
 20
-687.17
 40
2.346
 50
251.175
 51
270.0
  0
ARC
  8
APS_GEOMETRY
 10
233.453
 20
-685.709
 40
3.806
 50
270.0
 51
278.82
  0
ARC
  8
APS_GEOMETRY
 10
230.994
 20
-669.862
 40
19.844
 50
278.82
 51
282.68
  0
ARC
  8
APS_GEOMETRY
 10
236.14
 20
-692.642
 40
3.511
 50
95.906
 51
102.995
  0
ARC
  8
APS_GEOMETRY
 10
236.298
 20
-694.179
 40
5.055
 50
90.0
 51
95.906
  0
ARC
  8
APS_GEOMETRY
 10
236.298
 20
-692.479
 40
3.356
 50
62.447
 51
90.0
  0
ARC
  8
APS_GEOMETRY
 10
235.702
 20
-693.622
 40
4.645
 50
39.094
 51
62.447
  0
ARC
  8
APS_GEOMETRY
 10
229.468
 20
-698.836
 40
12.772
 50
18.435
 51
39.611
  0
ARC
  8
APS_GEOMETRY
 10
225.641
 20
-700.112
 40
16.806
 50
360.0
 51
18.435
  0
ARC
  8
APS_GEOMETRY
 10
234.113
 20
-700.112
 40
8.333
 50
334.877
 51
360.0
  0
ARC
  8
APS_GEOMETRY
 10
236.62
 20
-701.287
 40
5.565
 50
304.007
 51
334.877
  0
ARC
  8
APS_GEOMETRY
 10
236.579
 20
-701.169
 40
5.686
 50
286.39
 51
303.69
  0
ARC
  8
APS_GEOMETRY
 10
236.397
 20
-700.551
 40
6.33
 50
270.0
 51
286.39
  0
ARC
  8
APS_GEOMETRY
 10
236.397
 20
-700.625
 40
6.257
 50
255.155
 51
270.0
  0
ARC
  8
APS_GEOMETRY
 10
235.711
 20
-703.211
 40
3.581
 50
235.491
 51
255.155
  0
ARC
  8
APS_GEOMETRY
 10
236.055
 20
-702.71
 40
4.189
 50
218.48
 51
235.491
  0
ARC
  8
APS_GEOMETRY
 10
241.676
 20
-698.242
 40
11.369
 50
208.179
 51
218.48
  0
ARC
  8
APS_GEOMETRY
 10
184.052
 20
-729.521
 40
54.198
 50
28.56
 51
31.664
  0
ARC
  8
APS_GEOMETRY
 10
219.264
 20
-707.805
 40
12.827
 50
31.664
 51
38.047
  0
ARC
  8
APS_GEOMETRY
 10
221.824
 20
-705.801
 40
9.576
 50
38.047
 51
46.56
  0
ARC
  8
APS_GEOMETRY
 10
220.493
 20
-707.206
 40
11.512
 50
46.56
 51
54.324
  0
ARC
  8
APS_GEOMETRY
 10
219.725
 20
-708.528
 40
13.034
 50
54.968
 51
71.48
  0
ARC
  8
APS_GEOMETRY
 10
220.568
 20
-706.011
 40
10.38
 50
71.48
 51
90.0
  0
ARC
  8
APS_GEOMETRY
 10
220.568
 20
-702.882
 40
7.251
 50
90.0
 51
114.63
  0
ARC
  8
APS_GEOMETRY
 10
220.204
 20
-702.088
 40
6.377
 50
114.63
 51
140.921
  0
ARC
  8
APS_GEOMETRY
 10
221.28
 20
-702.961
 40
7.763
 50
140.921
 51
163.13
  0
ARC
  8
APS_GEOMETRY
 10
226.657
 20
-704.592
 40
13.382
 50
163.13
 51
180.0
  0
ARC
  8
APS_GEOMETRY
 10
233.631
 20
-704.592
 40
20.355
 50
180.0
 51
195.44
  0
ARC
  8
APS_GEOMETRY
 10
232.573
 20
-704.884
 40
19.258
 50
195.44
 51
211.316
  0
ARC
  8
APS_GEOMETRY
 10
227.483
 20
-707.874
 40
13.357
 50
211.708
 51
240.457
  0
ARC
  8
APS_GEOMETRY
 10
227.142
 20
-708.477
 40
12.663
 50
240.457
 51
270.0
  0
ARC
  8
APS_GEOMETRY
 10
227.142
 20
-705.389
 40
15.751
 50
270.0
 51
279.549
  0
ARC
  8
APS_GEOMETRY
 10
226.946
 20
-704.225
 40
16.931
 50
279.549
 51
288.759
  0
ARC
  8
APS_GEOMETRY
 10
227.771
 20
-706.656
 40
14.364
 50
288.759
 51
299.545
  0
ARC
  8
APS_GEOMETRY
 10
231.081
 20
-712.495
 40
7.652
 50
299.545
 51
314.341
  0
ARC
  8
APS_GEOMETRY
 10
241.316
 20
-723.126
 40
7.105
 50
120.141
 51
133.452
  0
ARC
  8
APS_GEOMETRY
 10
238.457
 20
-718.202
 40
1.412
 50
90.0
 51
120.141
  0
ARC
  8
APS_GEOMETRY
 10
238.457
 20
-719.02
 40
2.23
 50
61.952
 51
90.0
  0
ARC
  8
APS_GEOMETRY
 10
238.125
 20
-719.643
 40
2.936
 50
37.569
 51
61.952
  0
ARC
  8
APS_GEOMETRY
 10
237.506
 20
-720.12
 40
3.717
 50
17.665
 51
37.569
  0
ARC
  8
APS_GEOMETRY
 10
236.561
 20
-720.42
 40
4.709
 50
360.0
 51
17.665
  0
ARC
  8
APS_GEOMETRY
 10
234.189
 20
-720.42
 40
7.081
 50
344.932
 51
360.0
  0
ARC
  8
APS_GEOMETRY
 10
227.891
 20
-718.725
 40
13.603
 50
334.075
 51
344.932
  0
ARC
  8
APS_GEOMETRY
 10
227.693
 20
-718.629
 40
13.823
 50
323.374
 51
334.075
  0
ARC
  8
APS_GEOMETRY
 10
231.757
 20
-721.649
 40
8.76
 50
309.92
 51
323.374
  0
ARC
  8
APS_GEOMETRY
 10
235.818
 20
-726.44
 40
2.48
 50
289.026
 51
308.991
  0
ARC
  8
APS_GEOMETRY
 10
231.485
 20
-713.875
 40
15.771
 50
281.143
 51
289.026
  0
ARC
  8
APS_GEOMETRY
 10
235.879
 20
-736.656
 40
7.431
 50
100.437
 51
110.12
  0
ARC
  8
APS_GEOMETRY
 10
241.7
 20
-752.546
 40
24.353
 50
110.12
 51
115.463
  0
ARC
  8
APS_GEOMETRY
 10
220.919
 20
-709.066
 40
23.838
 50
282.94
 51
295.628
  0
ARC
  8
APS_GEOMETRY
 10
221.124
 20
-709.96
 40
22.921
 50
270.0
 51
282.94
  0
ARC
  8
APS_GEOMETRY
 10
221.124
 20
-708.606
 40
24.275
 50
257.307
 51
270.0
  0
ARC
  8
APS_GEOMETRY
 10
222.149
 20
-704.056
 40
28.939
 50
245.686
 51
257.307
  0
ARC
  8
APS_GEOMETRY
 10
219.579
 20
-709.697
 40
22.739
 50
228.801
 51
245.735
  0
ARC
  8
APS_GEOMETRY
 10
219.622
 20
-709.648
 40
22.805
 50
211.891
 51
228.801
  0
ARC
  8
APS_GEOMETRY
 10
220.969
 20
-708.678
 40
24.462
 50
196.728
 51
212.152
  0
ARC
  8
APS_GEOMETRY
 10
217.481
 20
-709.726
 40
20.82
 50
180.0
 51
196.728
  0
ARC
  8
APS_GEOMETRY
 10
217.989
 20
-709.726
 40
21.327
 50
161.184
 51
180.0
  0
ARC
  8
APS_GEOMETRY
 10
219.357
 20
-710.193
 40
22.773
 50
142.98
 51
161.184
  0
ARC
  8
APS_GEOMETRY
 10
220.421
 20
-711.007
 40
24.112
 50
127.824
 51
142.958
  0
ARC
  8
APS_GEOMETRY
 10
222.175
 20
-713.266
 40
26.973
 50
113.52
 51
127.824
  0
ARC
  8
APS_GEOMETRY
 10
221.604
 20
-711.947
 40
25.535
 50
101.927
 51
113.527
  0
ARC
  8
APS_GEOMETRY
 10
221.32
 20
-710.602
 40
24.161
 50
90.0
 51
101.927
  0
ARC
  8
APS_GEOMETRY
 10
271.801
 20
-712.223
 40
25.782
 50
71.91
 51
90.0
  0
ARC
  8
APS_GEOMETRY
 10
272.8
 20
-709.166
 40
22.566
 50
52.561
 51
71.91
  0
ARC
  8
APS_GEOMETRY
 10
272.538
 20
-709.243
 40
22.786
 50
38.846
 51
52.156
  0
ARC
  8
APS_GEOMETRY
 10
268.966
 20
-712.119
 40
27.372
 50
26.707
 51
38.846
  0
ARC
  8
APS_GEOMETRY
 10
269.673
 20
-711.541
 40
26.482
 50
13.868
 51
26.278
  0
ARC
  8
APS_GEOMETRY
 10
274.773
 20
-710.282
 40
21.229
 50
360.0
 51
13.868
  0
ARC
  8
APS_GEOMETRY
 10
275.103
 20
-710.282
 40
20.899
 50
339.712
 51
360.0
  0
ARC
  8
APS_GEOMETRY
 10
273.927
 20
-709.847
 40
22.153
 50
320.013
 51
339.712
  0
ARC
  8
APS_GEOMETRY
 10
273.732
 20
-709.74
 40
22.372
 50
303.344
 51
320.123
  0
ARC
  8
APS_GEOMETRY
 10
271.436
 20
-706.251
 40
26.548
 50
287.949
 51
303.344
  0
ARC
  8
APS_GEOMETRY
 10
270.682
 20
-703.636
 40
29.269
 50
279.039
 51
287.776
  0
ARC
  8
APS_GEOMETRY
 10
270.984
 20
-705.535
 40
27.346
 50
270.0
 51
279.039
  0
ARC
  8
APS_GEOMETRY
 10
270.984
 20
-706.87
 40
26.011
 50
257.728
 51
270.0
  0
ARC
  8
APS_GEOMETRY
 10
271.025
 20
-706.681
 40
26.203
 50
245.501
 51
257.728
  0
ARC
  8
APS_GEOMETRY
 10
269.552
 20
-709.904
 40
22.66
 50
228.665
 51
245.511
  0
ARC
  8
APS_GEOMETRY
 10
269.062
 20
-710.461
 40
21.918
 50
211.535
 51
228.665
  0
ARC
  8
APS_GEOMETRY
 10
269.704
 20
-709.99
 40
22.712
 50
195.642
 51
211.701
  0
ARC
  8
APS_GEOMETRY
 10
270.878
 20
-709.661
 40
23.931
 50
180.0
 51
195.642
  0
ARC
  8
APS_GEOMETRY
 10
271.13
 20
-709.661
 40
24.183
 50
162.181
 51
180.0
  0
ARC
  8
APS_GEOMETRY
 10
268.923
 20
-708.952
 40
21.865
 50
143.434
 51
162.181
  0
ARC
  8
APS_GEOMETRY
 10
268.626
 20
-708.714
 40
21.485
 50
126.384
 51
143.471
  0
ARC
  8
APS_GEOMETRY
 10
270.66
 20
-711.475
 40
24.914
 50
110.525
 51
126.384
  0
ARC
  8
APS_GEOMETRY
 10
270.56
 20
-710.725
 40
24.177
 50
99.77
 51
110.925
  0
ARC
  8
APS_GEOMETRY
 10
271.801
 20
-717.937
 40
31.496
 50
90.0
 51
99.77
  0
ARC
  8
APS_GEOMETRY
 10
268.695
 20
-700.635
 40
4.807
 50
90.0
 51
119.604
  0
ARC
  8
APS_GEOMETRY
 10
269.116
 20
-701.376
 40
5.659
 50
119.604
 51
146.842
  0
ARC
  8
APS_GEOMETRY
 10
269.962
 20
-702.069
 40
6.748
 50
145.84
 51
164.055
  0
ARC
  8
APS_GEOMETRY
 10
271.923
 20
-702.63
 40
8.788
 50
164.055
 51
180.0
  0
ARC
  8
APS_GEOMETRY
 10
284.188
 20
-702.63
 40
21.053
 50
180.0
 51
189.977
  0
ARC
  8
APS_GEOMETRY
 10
302.839
 20
-699.349
 40
39.991
 50
189.977
 51
197.211
  0
ARC
  8
APS_GEOMETRY
 10
306.919
 20
-698.085
 40
44.261
 50
197.211
 51
203.76
  0
ARC
  8
APS_GEOMETRY
 10
296.756
 20
-702.559
 40
33.157
 50
203.76
 51
211.329
  0
ARC
  8
APS_GEOMETRY
 10
275.888
 20
-715.083
 40
8.821
 50
212.32
 51
224.441
  0
ARC
  8
APS_GEOMETRY
 10
275.032
 20
-715.922
 40
7.623
 50
224.441
 51
237.484
  0
ARC
  8
APS_GEOMETRY
 10
274.48
 20
-716.789
 40
6.595
 50
237.484
 51
252.416
  0
ARC
  8
APS_GEOMETRY
 10
273.927
 20
-718.532
 40
4.766
 50
252.416
 51
270.0
  0
ARC
  8
APS_GEOMETRY
 10
273.927
 20
-717.967
 40
5.331
 50
270.0
 51
294.953
  0
ARC
  8
APS_GEOMETRY
 10
274.077
 20
-718.288
 40
4.977
 50
294.953
 51
320.793
  0
ARC
  8
APS_GEOMETRY
 10
273.276
 20
-717.635
 40
6.011
 50
320.793
 51
342.777
  0
ARC
  8
APS_GEOMETRY
 10
269.708
 20
-716.529
 40
9.746
 50
342.777
 51
0.0
  0
ARC
  8
APS_GEOMETRY
 10
252.947
 20
-716.529
 40
26.507
 50
0.0
 51
8.499
  0
ARC
  8
APS_GEOMETRY
 10
241.28
 20
-718.272
 40
38.304
 50
8.499
 51
15.566
  0
ARC
  8
APS_GEOMETRY
 10
242.682
 20
-717.881
 40
36.848
 50
15.566
 51
22.909
  0
ARC
  8
APS_GEOMETRY
 10
254.746
 20
-712.783
 40
23.751
 50
22.909
 51
32.057
  0
ARC
  8
APS_GEOMETRY
 10
264.222
 20
-706.814
 40
12.552
 50
31.921
 51
42.51
  0
ARC
  8
APS_GEOMETRY
 10
266.824
 20
-704.429
 40
9.022
 50
42.51
 51
55.008
  0
ARC
  8
APS_GEOMETRY
 10
267.703
 20
-703.173
 40
7.489
 50
55.008
 51
69.88
  0
ARC
  8
APS_GEOMETRY
 10
268.491
 20
-701.022
 40
5.198
 50
69.88
 51
87.754
  0
ARC
  8
APS_GEOMETRY
 10
325.16
 20
-707.705
 40
21.264
 50
77.257
 51
90.0
  0
ARC
  8
APS_GEOMETRY
 10
324.944
 20
-708.661
 40
22.243
 50
64.799
 51
77.257
  0
ARC
  8
APS_GEOMETRY
 10
343.262
 20
-669.662
 40
20.843
 50
244.885
 51
251.175
  0
ARC
  8
APS_GEOMETRY
 10
337.293
 20
-687.17
 40
2.346
 50
251.175
 51
270.0
  0
ARC
  8
APS_GEOMETRY
 10
337.293
 20
-685.709
 40
3.806
 50
270.0
 51
278.82
  0
ARC
  8
APS_GEOMETRY
 10
334.834
 20
-669.862
 40
19.844
 50
278.82
 51
282.68
  0
ARC
  8
APS_GEOMETRY
 10
339.98
 20
-692.642
 40
3.511
 50
95.906
 51
102.995
  0
ARC
  8
APS_GEOMETRY
 10
340.139
 20
-694.179
 40
5.055
 50
90.0
 51
95.906
  0
ARC
  8
APS_GEOMETRY
 10
340.139
 20
-692.479
 40
3.356
 50
62.447
 51
90.0
  0
ARC
  8
APS_GEOMETRY
 10
339.542
 20
-693.622
 40
4.645
 50
39.094
 51
62.447
  0
ARC
  8
APS_GEOMETRY
 10
333.308
 20
-698.836
 40
12.772
 50
18.435
 51
39.611
  0
ARC
  8
APS_GEOMETRY
 10
329.481
 20
-700.112
 40
16.806
 50
360.0
 51
18.435
  0
ARC
  8
APS_GEOMETRY
 10
337.954
 20
-700.112
 40
8.333
 50
334.877
 51
360.0
  0
ARC
  8
APS_GEOMETRY
 10
340.46
 20
-701.287
 40
5.565
 50
304.007
 51
334.877
  0
ARC
  8
APS_GEOMETRY
 10
340.419
 20
-701.169
 40
5.686
 50
286.39
 51
303.69
  0
ARC
  8
APS_GEOMETRY
 10
340.237
 20
-700.551
 40
6.33
 50
270.0
 51
286.39
  0
ARC
  8
APS_GEOMETRY
 10
340.237
 20
-700.625
 40
6.257
 50
255.155
 51
270.0
  0
ARC
  8
APS_GEOMETRY
 10
339.551
 20
-703.211
 40
3.581
 50
235.491
 51
255.155
  0
ARC
  8
APS_GEOMETRY
 10
339.895
 20
-702.71
 40
4.189
 50
218.48
 51
235.491
  0
ARC
  8
APS_GEOMETRY
 10
345.516
 20
-698.242
 40
11.369
 50
208.179
 51
218.48
  0
ARC
  8
APS_GEOMETRY
 10
287.892
 20
-729.521
 40
54.198
 50
28.56
 51
31.664
  0
ARC
  8
APS_GEOMETRY
 10
323.104
 20
-707.805
 40
12.827
 50
31.664
 51
38.047
  0
ARC
  8
APS_GEOMETRY
 10
325.664
 20
-705.801
 40
9.576
 50
38.047
 51
46.56
  0
ARC
  8
APS_GEOMETRY
 10
324.333
 20
-707.206
 40
11.512
 50
46.56
 51
54.324
  0
ARC
  8
APS_GEOMETRY
 10
323.565
 20
-708.528
 40
13.034
 50
54.968
 51
71.48
  0
ARC
  8
APS_GEOMETRY
 10
324.408
 20
-706.011
 40
10.38
 50
71.48
 51
90.0
  0
ARC
  8
APS_GEOMETRY
 10
324.408
 20
-702.882
 40
7.251
 50
90.0
 51
114.63
  0
ARC
  8
APS_GEOMETRY
 10
324.044
 20
-702.088
 40
6.377
 50
114.63
 51
140.921
  0
ARC
  8
APS_GEOMETRY
 10
325.12
 20
-702.961
 40
7.763
 50
140.921
 51
163.13
  0
ARC
  8
APS_GEOMETRY
 10
330.497
 20
-704.592
 40
13.382
 50
163.13
 51
180.0
  0
ARC
  8
APS_GEOMETRY
 10
337.471
 20
-704.592
 40
20.355
 50
180.0
 51
195.44
  0
ARC
  8
APS_GEOMETRY
 10
336.413
 20
-704.884
 40
19.258
 50
195.44
 51
211.316
  0
ARC
  8
APS_GEOMETRY
 10
331.323
 20
-707.874
 40
13.357
 50
211.708
 51
240.457
  0
ARC
  8
APS_GEOMETRY
 10
330.982
 20
-708.477
 40
12.663
 50
240.457
 51
270.0
  0
ARC
  8
APS_GEOMETRY
 10
330.982
 20
-705.389
 40
15.751
 50
270.0
 51
279.549
  0
ARC
  8
APS_GEOMETRY
 10
330.786
 20
-704.225
 40
16.931
 50
279.549
 51
288.759
  0
ARC
  8
APS_GEOMETRY
 10
331.611
 20
-706.656
 40
14.364
 50
288.759
 51
299.545
  0
ARC
  8
APS_GEOMETRY
 10
334.921
 20
-712.495
 40
7.652
 50
299.545
 51
314.341
  0
ARC
  8
APS_GEOMETRY
 10
345.156
 20
-723.126
 40
7.105
 50
120.141
 51
133.452
  0
ARC
  8
APS_GEOMETRY
 10
342.297
 20
-718.202
 40
1.412
 50
90.0
 51
120.141
  0
ARC
  8
APS_GEOMETRY
 10
342.297
 20
-719.02
 40
2.23
 50
61.952
 51
90.0
  0
ARC
  8
APS_GEOMETRY
 10
341.965
 20
-719.643
 40
2.936
 50
37.569
 51
61.952
  0
ARC
  8
APS_GEOMETRY
 10
341.346
 20
-720.12
 40
3.717
 50
17.665
 51
37.569
  0
ARC
  8
APS_GEOMETRY
 10
340.401
 20
-720.42
 40
4.709
 50
360.0
 51
17.665
  0
ARC
  8
APS_GEOMETRY
 10
338.029
 20
-720.42
 40
7.081
 50
344.932
 51
360.0
  0
ARC
  8
APS_GEOMETRY
 10
331.731
 20
-718.725
 40
13.603
 50
334.075
 51
344.932
  0
ARC
  8
APS_GEOMETRY
 10
331.533
 20
-718.629
 40
13.823
 50
323.374
 51
334.075
  0
ARC
  8
APS_GEOMETRY
 10
335.597
 20
-721.649
 40
8.76
 50
309.92
 51
323.374
  0
ARC
  8
APS_GEOMETRY
 10
339.658
 20
-726.44
 40
2.48
 50
289.026
 51
308.991
  0
ARC
  8
APS_GEOMETRY
 10
335.325
 20
-713.875
 40
15.771
 50
281.143
 51
289.026
  0
ARC
  8
APS_GEOMETRY
 10
339.719
 20
-736.656
 40
7.431
 50
100.437
 51
110.12
  0
ARC
  8
APS_GEOMETRY
 10
345.54
 20
-752.546
 40
24.353
 50
110.12
 51
115.463
  0
ARC
  8
APS_GEOMETRY
 10
324.759
 20
-709.066
 40
23.838
 50
282.94
 51
295.628
  0
ARC
  8
APS_GEOMETRY
 10
324.964
 20
-709.96
 40
22.921
 50
270.0
 51
282.94
  0
ARC
  8
APS_GEOMETRY
 10
324.964
 20
-708.606
 40
24.275
 50
257.307
 51
270.0
  0
ARC
  8
APS_GEOMETRY
 10
325.989
 20
-704.056
 40
28.939
 50
245.686
 51
257.307
  0
ARC
  8
APS_GEOMETRY
 10
323.419
 20
-709.697
 40
22.739
 50
228.801
 51
245.735
  0
ARC
  8
APS_GEOMETRY
 10
323.462
 20
-709.648
 40
22.805
 50
211.891
 51
228.801
  0
ARC
  8
APS_GEOMETRY
 10
324.809
 20
-708.678
 40
24.462
 50
196.728
 51
212.152
  0
ARC
  8
APS_GEOMETRY
 10
321.322
 20
-709.726
 40
20.82
 50
180.0
 51
196.728
  0
ARC
  8
APS_GEOMETRY
 10
321.829
 20
-709.726
 40
21.327
 50
161.184
 51
180.0
  0
ARC
  8
APS_GEOMETRY
 10
323.197
 20
-710.193
 40
22.773
 50
142.98
 51
161.184
  0
ARC
  8
APS_GEOMETRY
 10
324.261
 20
-711.007
 40
24.112
 50
127.824
 51
142.958
  0
ARC
  8
APS_GEOMETRY
 10
326.015
 20
-713.266
 40
26.973
 50
113.52
 51
127.824
  0
ARC
  8
APS_GEOMETRY
 10
325.444
 20
-711.947
 40
25.535
 50
101.927
 51
113.527
  0
ARC
  8
APS_GEOMETRY
 10
325.16
 20
-710.602
 40
24.161
 50
90.0
 51
101.927
  0
ARC
  8
APS_GEOMETRY
 10
375.642
 20
-712.223
 40
25.782
 50
71.91
 51
90.0
  0
ARC
  8
APS_GEOMETRY
 10
376.64
 20
-709.166
 40
22.566
 50
52.561
 51
71.91
  0
ARC
  8
APS_GEOMETRY
 10
376.378
 20
-709.243
 40
22.786
 50
38.846
 51
52.156
  0
ARC
  8
APS_GEOMETRY
 10
372.806
 20
-712.119
 40
27.372
 50
26.707
 51
38.846
  0
ARC
  8
APS_GEOMETRY
 10
373.513
 20
-711.541
 40
26.482
 50
13.868
 51
26.278
  0
ARC
  8
APS_GEOMETRY
 10
378.613
 20
-710.282
 40
21.229
 50
360.0
 51
13.868
  0
ARC
  8
APS_GEOMETRY
 10
378.943
 20
-710.282
 40
20.899
 50
339.712
 51
360.0
  0
ARC
  8
APS_GEOMETRY
 10
377.767
 20
-709.847
 40
22.153
 50
320.013
 51
339.712
  0
ARC
  8
APS_GEOMETRY
 10
377.572
 20
-709.74
 40
22.372
 50
303.344
 51
320.123
  0
ARC
  8
APS_GEOMETRY
 10
375.276
 20
-706.251
 40
26.548
 50
287.949
 51
303.344
  0
ARC
  8
APS_GEOMETRY
 10
374.522
 20
-703.636
 40
29.269
 50
279.039
 51
287.776
  0
ARC
  8
APS_GEOMETRY
 10
374.824
 20
-705.535
 40
27.346
 50
270.0
 51
279.039
  0
ARC
  8
APS_GEOMETRY
 10
374.824
 20
-706.87
 40
26.011
 50
257.728
 51
270.0
  0
ARC
  8
APS_GEOMETRY
 10
374.865
 20
-706.681
 40
26.203
 50
245.501
 51
257.728
  0
ARC
  8
APS_GEOMETRY
 10
373.392
 20
-709.904
 40
22.66
 50
228.665
 51
245.511
  0
ARC
  8
APS_GEOMETRY
 10
372.902
 20
-710.461
 40
21.918
 50
211.535
 51
228.665
  0
ARC
  8
APS_GEOMETRY
 10
373.544
 20
-709.99
 40
22.712
 50
195.642
 51
211.701
  0
ARC
  8
APS_GEOMETRY
 10
374.718
 20
-709.661
 40
23.931
 50
180.0
 51
195.642
  0
ARC
  8
APS_GEOMETRY
 10
374.97
 20
-709.661
 40
24.183
 50
162.181
 51
180.0
  0
ARC
  8
APS_GEOMETRY
 10
372.763
 20
-708.952
 40
21.865
 50
143.434
 51
162.181
  0
ARC
  8
APS_GEOMETRY
 10
372.466
 20
-708.714
 40
21.485
 50
126.384
 51
143.471
  0
ARC
  8
APS_GEOMETRY
 10
374.5
 20
-711.475
 40
24.914
 50
110.525
 51
126.384
  0
ARC
  8
APS_GEOMETRY
 10
374.4
 20
-710.725
 40
24.177
 50
99.77
 51
110.925
  0
ARC
  8
APS_GEOMETRY
 10
375.642
 20
-717.937
 40
31.496
 50
90.0
 51
99.77
  0
ARC
  8
APS_GEOMETRY
 10
372.535
 20
-700.635
 40
4.807
 50
90.0
 51
119.604
  0
ARC
  8
APS_GEOMETRY
 10
372.956
 20
-701.376
 40
5.659
 50
119.604
 51
146.842
  0
ARC
  8
APS_GEOMETRY
 10
373.802
 20
-702.069
 40
6.748
 50
145.84
 51
164.055
  0
ARC
  8
APS_GEOMETRY
 10
375.763
 20
-702.63
 40
8.788
 50
164.055
 51
180.0
  0
ARC
  8
APS_GEOMETRY
 10
388.028
 20
-702.63
 40
21.053
 50
180.0
 51
189.977
  0
ARC
  8
APS_GEOMETRY
 10
406.679
 20
-699.349
 40
39.991
 50
189.977
 51
197.211
  0
ARC
  8
APS_GEOMETRY
 10
410.759
 20
-698.085
 40
44.261
 50
197.211
 51
203.76
  0
ARC
  8
APS_GEOMETRY
 10
400.596
 20
-702.559
 40
33.157
 50
203.76
 51
211.329
  0
ARC
  8
APS_GEOMETRY
 10
379.728
 20
-715.083
 40
8.821
 50
212.32
 51
224.441
  0
ARC
  8
APS_GEOMETRY
 10
378.873
 20
-715.922
 40
7.623
 50
224.441
 51
237.484
  0
ARC
  8
APS_GEOMETRY
 10
378.32
 20
-716.789
 40
6.595
 50
237.484
 51
252.416
  0
ARC
  8
APS_GEOMETRY
 10
377.767
 20
-718.532
 40
4.766
 50
252.416
 51
270.0
  0
ARC
  8
APS_GEOMETRY
 10
377.767
 20
-717.967
 40
5.331
 50
270.0
 51
294.953
  0
ARC
  8
APS_GEOMETRY
 10
377.917
 20
-718.288
 40
4.977
 50
294.953
 51
320.793
  0
ARC
  8
APS_GEOMETRY
 10
377.116
 20
-717.635
 40
6.011
 50
320.793
 51
342.777
  0
ARC
  8
APS_GEOMETRY
 10
373.548
 20
-716.529
 40
9.746
 50
342.777
 51
0.0
  0
ARC
  8
APS_GEOMETRY
 10
356.787
 20
-716.529
 40
26.507
 50
0.0
 51
8.499
  0
ARC
  8
APS_GEOMETRY
 10
345.12
 20
-718.272
 40
38.304
 50
8.499
 51
15.566
  0
ARC
  8
APS_GEOMETRY
 10
346.523
 20
-717.881
 40
36.848
 50
15.566
 51
22.909
  0
ARC
  8
APS_GEOMETRY
 10
358.586
 20
-712.783
 40
23.751
 50
22.909
 51
32.057
  0
ARC
  8
APS_GEOMETRY
 10
368.062
 20
-706.814
 40
12.552
 50
31.921
 51
42.51
  0
ARC
  8
APS_GEOMETRY
 10
370.664
 20
-704.429
 40
9.022
 50
42.51
 51
55.008
  0
ARC
  8
APS_GEOMETRY
 10
371.543
 20
-703.173
 40
7.489
 50
55.008
 51
69.88
  0
ARC
  8
APS_GEOMETRY
 10
372.331
 20
-701.022
 40
5.198
 50
69.88
 51
87.754
  0
ARC
  8
APS_GEOMETRY
 10
426.155
 20
-715.645
 40
2.42
 50
90.0
 51
115.837
  0
ARC
  8
APS_GEOMETRY
 10
425.56
 20
-714.415
 40
1.053
 50
115.837
 51
155.462
  0
ARC
  8
APS_GEOMETRY
 10
426.255
 20
-714.732
 40
1.817
 50
155.462
 51
168.366
  0
ARC
  8
APS_GEOMETRY
 10
432.601
 20
-716.039
 40
8.296
 50
168.366
 51
174.395
  0
ARC
  8
APS_GEOMETRY
 10
438.996
 20
-716.667
 40
14.722
 50
174.395
 51
177.813
  0
ARC
  8
APS_GEOMETRY
 10
460.225
 20
-717.477
 40
35.966
 50
177.813
 51
180.0
  0
ARC
  8
APS_GEOMETRY
 10
475.593
 20
-717.477
 40
51.335
 50
180.0
 51
184.62
  0
ARC
  8
APS_GEOMETRY
 10
441.173
 20
-720.259
 40
16.803
 50
184.62
 51
192.7
  0
ARC
  8
APS_GEOMETRY
 10
427.903
 20
-723.172
 40
3.218
 50
194.036
 51
205.821
  0
ARC
  8
APS_GEOMETRY
 10
426.498
 20
-723.852
 40
1.656
 50
205.821
 51
222.274
  0
ARC
  8
APS_GEOMETRY
 10
426.928
 20
-723.461
 40
2.238
 50
222.274
 51
234.605
  0
ARC
  8
APS_GEOMETRY
 10
431.789
 20
-716.62
 40
10.63
 50
234.605
 51
240.255
  0
ARC
  8
APS_GEOMETRY
 10
424.4
 20
-729.695
 40
4.389
 50
34.592
 51
61.189
  0
ARC
  8
APS_GEOMETRY
 10
425.85
 20
-728.694
 40
2.627
 50
360.0
 51
34.592
  0
ARC
  8
APS_GEOMETRY
 10
425.938
 20
-728.694
 40
2.539
 50
318.231
 51
360.0
  0
ARC
  8
APS_GEOMETRY
 10
424.24
 20
-727.178
 40
4.816
 50
288.227
 51
318.231
  0
ARC
  8
APS_GEOMETRY
 10
422.479
 20
-721.83
 40
10.446
 50
280.377
 51
288.227
  0
ARC
  8
APS_GEOMETRY
 10
419.409
 20
-705.066
 40
27.489
 50
275.541
 51
280.377
  0
ARC
  8
APS_GEOMETRY
 10
418.086
 20
-691.429
 40
41.19
 50
272.304
 51
275.541
  0
ARC
  8
APS_GEOMETRY
 10
416.475
 20
-651.393
 40
81.259
 50
270.0
 51
272.304
  0
ARC
  8
APS_GEOMETRY
 10
416.475
 20
-684.852
 40
47.8
 50
262.811
 51
270.0
  0
ARC
  8
APS_GEOMETRY
 10
412.186
 20
-718.858
 40
13.524
 50
249.274
 51
262.811
  0
ARC
  8
APS_GEOMETRY
 10
409.488
 20
-725.988
 40
5.901
 50
221.379
 51
249.274
  0
ARC
  8
APS_GEOMETRY
 10
407.121
 20
-728.073
 40
2.747
 50
180.0
 51
221.379
  0
ARC
  8
APS_GEOMETRY
 10
407.103
 20
-728.073
 40
2.728
 50
164.055
 51
180.0
  0
ARC
  8
APS_GEOMETRY
 10
405.966
 20
-727.748
 40
1.546
 50
142.815
 51
164.055
  0
ARC
  8
APS_GEOMETRY
 10
406.682
 20
-728.291
 40
2.444
 50
129.007
 51
142.815
  0
ARC
  8
APS_GEOMETRY
 10
415.474
 20
-739.145
 40
16.412
 50
123.69
 51
129.007
  0
ARC
  8
APS_GEOMETRY
 10
402.997
 20
-720.373
 40
6.128
 50
303.389
 51
319.022
  0
ARC
  8
APS_GEOMETRY
 10
404.656
 20
-721.813
 40
3.932
 50
319.022
 51
338.575
  0
ARC
  8
APS_GEOMETRY
 10
402.436
 20
-720.942
 40
6.316
 50
338.575
 51
351.049
  0
ARC
  8
APS_GEOMETRY
 10
375.63
 20
-716.72
 40
33.452
 50
351.049
 51
356.46
  0
ARC
  8
APS_GEOMETRY
 10
384.466
 20
-717.056
 40
24.613
 50
355.972
 51
358.68
  0
ARC
  8
APS_GEOMETRY
 10
94.275
 20
-710.37
 40
314.881
 50
358.68
 51
359.437
  0
LINE
  8
APS_GEOMETRY
 10
409.141
 11
409.172
 20
-713.463
 21
-708.551
  0
LINE
  8
APS_GEOMETRY
 10
409.172
 11
409.182
 20
-708.551
 21
-702.139
  0
ARC
  8
APS_GEOMETRY
 10
333.373
 20
-702.139
 40
75.809
 50
0.0
 51
1.717
  0
ARC
  8
APS_GEOMETRY
 10
373.941
 20
-700.923
 40
35.223
 50
1.717
 51
4.236
  0
ARC
  8
APS_GEOMETRY
 10
387.171
 20
-699.943
 40
21.957
 50
4.236
 51
8.269
  0
ARC
  8
APS_GEOMETRY
 10
402.394
 20
-697.731
 40
6.573
 50
8.269
 51
15.642
  0
ARC
  8
APS_GEOMETRY
 10
405.014
 20
-696.997
 40
3.853
 50
15.642
 51
39.417
  0
ARC
  8
APS_GEOMETRY
 10
405.073
 20
-696.949
 40
3.776
 50
39.417
 51
63.435
  0
ARC
  8
APS_GEOMETRY
 10
411.875
 20
-682.859
 40
11.869
 50
236.874
 51
244.486
  0
ARC
  8
APS_GEOMETRY
 10
406.815
 20
-690.613
 40
2.611
 50
220.601
 51
236.874
  0
ARC
  8
APS_GEOMETRY
 10
406.235
 20
-691.11
 40
1.847
 50
198.246
 51
220.601
  0
ARC
  8
APS_GEOMETRY
 10
407.103
 20
-690.824
 40
2.761
 50
180.0
 51
198.246
  0
ARC
  8
APS_GEOMETRY
 10
407.09
 20
-690.824
 40
2.748
 50
156.161
 51
180.0
  0
ARC
  8
APS_GEOMETRY
 10
407.473
 20
-690.993
 40
3.167
 50
133.977
 51
156.161
  0
ARC
  8
APS_GEOMETRY
 10
408.236
 20
-691.784
 40
4.266
 50
116.996
 51
133.977
  0
ARC
  8
APS_GEOMETRY
 10
409.753
 20
-694.762
 40
7.608
 50
104.3
 51
116.996
  0
ARC
  8
APS_GEOMETRY
 10
410.145
 20
-696.268
 40
9.164
 50
95.326
 51
104.349
  0
ARC
  8
APS_GEOMETRY
 10
411.733
 20
-713.302
 40
26.272
 50
90.0
 51
95.326
  0
ARC
  8
APS_GEOMETRY
 10
411.733
 20
-700.043
 40
13.013
 50
87.553
 51
90.0
  0
ARC
  8
APS_GEOMETRY
 10
408.964
 20
-764.831
 40
77.86
 50
86.553
 51
87.553
  0
ARC
  8
APS_GEOMETRY
 10
405.028
 20
-830.177
 40
143.325
 50
86.009
 51
86.553
  0
ARC
  8
APS_GEOMETRY
 10
389.72
 20
-1049.591
 40
363.271
 50
85.668
 51
86.009
  0
ARC
  8
APS_GEOMETRY
 10
418.368
 20
-672.28
 40
15.125
 50
265.426
 51
268.531
  0
ARC
  8
APS_GEOMETRY
 10
419.713
 20
-619.837
 40
67.586
 50
268.531
 51
270.0
  0
ARC
  8
APS_GEOMETRY
 10
419.713
 20
-635.912
 40
51.511
 50
270.0
 51
271.637
  0
ARC
  8
APS_GEOMETRY
 10
418.562
 20
-595.627
 40
91.812
 50
271.637
 51
272.862
  0
ARC
  8
APS_GEOMETRY
 10
417.24
 20
-569.198
 40
118.274
 50
272.862
 51
273.814
  0
ARC
  8
APS_GEOMETRY
 10
412.767
 20
-502.094
 40
185.527
 50
273.814
 51
274.574
  0
ARC
  8
APS_GEOMETRY
 10
440.829
 20
-867.085
 40
180.543
 50
93.72
 51
94.214
  0
ARC
  8
APS_GEOMETRY
 10
434.84
 20
-774.967
 40
88.23
 50
93.013
 51
93.72
  0
ARC
  8
APS_GEOMETRY
 10
433.198
 20
-743.771
 40
56.991
 50
91.918
 51
93.013
  0
ARC
  8
APS_GEOMETRY
 10
431.911
 20
-705.356
 40
18.554
 50
90.0
 51
91.918
  0
ARC
  8
APS_GEOMETRY
 10
431.911
 20
-710.91
 40
24.109
 50
73.82
 51
90.0
  0
ARC
  8
APS_GEOMETRY
 10
434.287
 20
-702.72
 40
15.581
 50
53.658
 51
73.82
  0
ARC
  8
APS_GEOMETRY
 10
437.667
 20
-698.101
 40
9.857
 50
26.03
 51
53.569
  0
ARC
  8
APS_GEOMETRY
 10
436.63
 20
-698.607
 40
11.012
 50
360.0
 51
26.03
  0
ARC
  8
APS_GEOMETRY
 10
436.199
 20
-698.607
 40
11.443
 50
345.282
 51
360.0
  0
ARC
  8
APS_GEOMETRY
 10
437.299
 20
-698.896
 40
10.305
 50
329.767
 51
345.282
  0
ARC
  8
APS_GEOMETRY
 10
437.923
 20
-699.26
 40
9.583
 50
313.168
 51
329.767
  0
ARC
  8
APS_GEOMETRY
 10
438.154
 20
-699.506
 40
9.246
 50
296.267
 51
313.168
  0
ARC
  8
APS_GEOMETRY
 10
443.417
 20
-710.14
 40
2.62
 50
116.565
 51
139.899
  0
ARC
  8
APS_GEOMETRY
 10
442.11
 20
-709.04
 40
0.911
 50
139.899
 51
180.0
  0
ARC
  8
APS_GEOMETRY
 10
442.212
 20
-709.04
 40
1.013
 50
180.0
 51
226.193
  0
ARC
  8
APS_GEOMETRY
 10
444.083
 20
-707.089
 40
3.715
 50
226.193
 51
249.829
  0
ARC
  8
APS_GEOMETRY
 10
438.721
 20
-721.85
 40
11.989
 50
53.249
 51
70.105
  0
ARC
  8
APS_GEOMETRY
 10
441.157
 20
-718.589
 40
7.919
 50
32.471
 51
53.249
  0
ARC
  8
APS_GEOMETRY
 10
440.022
 20
-719.311
 40
9.264
 50
23.305
 51
32.471
  0
ARC
  8
APS_GEOMETRY
 10
433.012
 20
-722.331
 40
16.897
 50
16.521
 51
23.305
  0
ARC
  8
APS_GEOMETRY
 10
427.546
 20
-723.952
 40
22.598
 50
11.429
 51
16.521
  0
ARC
  8
APS_GEOMETRY
 10
412.056
 20
-727.084
 40
38.401
 50
7.524
 51
11.429
  0
ARC
  8
APS_GEOMETRY
 10
463.384
 20
-720.248
 40
13.38
 50
187.765
 51
196.914
  0
ARC
  8
APS_GEOMETRY
 10
452.441
 20
-723.576
 40
1.942
 50
196.914
 51
221.082
  0
ARC
  8
APS_GEOMETRY
 10
452.483
 20
-723.539
 40
1.997
 50
221.082
 51
244.607
  0
ARC
  8
APS_GEOMETRY
 10
457.156
 20
-713.694
 40
12.896
 50
244.607
 51
253.811
  0
ARC
  8
APS_GEOMETRY
 10
453.047
 20
-727.704
 40
1.705
 50
51.45
 51
72.474
  0
ARC
  8
APS_GEOMETRY
 10
452.626
 20
-728.233
 40
2.382
 50
33.69
 51
51.45
  0
ARC
  8
APS_GEOMETRY
 10
452.527
 20
-728.299
 40
2.5
 50
16.639
 51
33.69
  0
ARC
  8
APS_GEOMETRY
 10
452.408
 20
-728.335
 40
2.625
 50
360.0
 51
16.639
  0
ARC
  8
APS_GEOMETRY
 10
452.371
 20
-728.335
 40
2.662
 50
338.993
 51
360.0
  0
ARC
  8
APS_GEOMETRY
 10
450.746
 20
-727.711
 40
4.402
 50
322.696
 51
338.993
  0
ARC
  8
APS_GEOMETRY
 10
450.14
 20
-727.249
 40
5.164
 50
308.603
 51
322.696
  0
ARC
  8
APS_GEOMETRY
 10
449.724
 20
-726.727
 40
5.831
 50
295.346
 51
308.603
  0
ARC
  8
APS_GEOMETRY
 10
447.532
 20
-721.901
 40
11.131
 50
279.583
 51
294.905
  0
ARC
  8
APS_GEOMETRY
 10
444.666
 20
-704.92
 40
28.353
 50
270.0
 51
279.583
  0
ARC
  8
APS_GEOMETRY
 10
444.666
 20
-712.601
 40
20.672
 50
261.247
 51
270.0
  0
ARC
  8
APS_GEOMETRY
 10
443.341
 20
-721.202
 40
11.97
 50
249.737
 51
261.247
  0
ARC
  8
APS_GEOMETRY
 10
442.471
 20
-723.559
 40
9.457
 50
235.345
 51
249.737
  0
ARC
  8
APS_GEOMETRY
 10
441.372
 20
-725.149
 40
7.524
 50
219.198
 51
235.345
  0
ARC
  8
APS_GEOMETRY
 10
443.685
 20
-723.177
 40
10.563
 50
209.076
 51
219.56
  0
ARC
  8
APS_GEOMETRY
 10
449.026
 20
-720.208
 40
16.674
 50
200.735
 51
209.076
  0
ARC
  8
APS_GEOMETRY
 10
456.395
 20
-717.418
 40
24.554
 50
197.881
 51
200.735
  0
ARC
  8
APS_GEOMETRY
 10
486.677
 20
-707.648
 40
56.372
 50
195.997
 51
197.881
  0
ARC
  8
APS_GEOMETRY
 10
509.059
 20
-701.231
 40
79.656
 50
194.664
 51
195.997
  0
ARC
  8
APS_GEOMETRY
 10
571.054
 20
-685.009
 40
143.738
 50
193.671
 51
194.664
  0
ARC
  8
APS_GEOMETRY
 10
413.843
 20
-723.229
 40
18.051
 50
13.61
 51
23.585
  0
ARC
  8
APS_GEOMETRY
 10
425.663
 20
-718.069
 40
5.155
 50
23.585
 51
42.31
  0
ARC
  8
APS_GEOMETRY
 10
426.735
 20
-717.093
 40
3.705
 50
42.31
 51
67.521
  0
ARC
  8
APS_GEOMETRY
 10
425.886
 20
-719.144
 40
5.924
 50
67.521
 51
87.397
  0
LINE
  8
APS_GEOMETRY
 10
424.291
 11
423.931
 20
-696.547
 21
-704.167
  0
LINE
  8
APS_GEOMETRY
 10
423.931
 11
423.931
 20
-704.167
 21
-704.289
  0
LINE
  8
APS_GEOMETRY
 10
423.931
 11
423.931
 20
-704.289
 21
-704.461
  0
ARC
  8
APS_GEOMETRY
 10
429.226
 20
-704.461
 40
5.294
 50
180.0
 51
192.339
  0
ARC
  8
APS_GEOMETRY
 10
425.017
 20
-705.382
 40
0.986
 50
192.339
 51
221.186
  0
ARC
  8
APS_GEOMETRY
 10
424.916
 20
-705.47
 40
0.852
 50
221.186
 51
253.872
  0
ARC
  8
APS_GEOMETRY
 10
425.632
 20
-702.994
 40
3.429
 50
253.872
 51
270.0
  0
ARC
  8
APS_GEOMETRY
 10
425.632
 20
-698.453
 40
7.971
 50
270.0
 51
289.569
  0
ARC
  8
APS_GEOMETRY
 10
427.081
 20
-702.529
 40
3.644
 50
289.569
 51
318.681
  0
ARC
  8
APS_GEOMETRY
 10
426.689
 20
-702.185
 40
4.166
 50
318.681
 51
344.628
  0
ARC
  8
APS_GEOMETRY
 10
419.386
 20
-700.177
 40
11.74
 50
344.628
 51
0.0
  0
ARC
  8
APS_GEOMETRY
 10
422.858
 20
-700.177
 40
8.268
 50
0.0
 51
35.369
  0
ARC
  8
APS_GEOMETRY
 10
426.646
 20
-697.488
 40
3.623
 50
35.369
 51
90.0
  0
ARC
  8
APS_GEOMETRY
 10
426.646
 20
-697.528
 40
3.663
 50
90.0
 51
108.435
  0
ARC
  8
APS_GEOMETRY
 10
425.933
 20
-695.39
 40
1.409
 50
108.435
 51
138.366
  0
ARC
  8
APS_GEOMETRY
 10
426.124
 20
-695.56
 40
1.665
 50
138.366
 51
164.291
  0
ARC
  8
APS_GEOMETRY
 10
430.61
 20
-696.822
 40
6.324
 50
164.291
 51
177.51
  0
LINE
  8
APS_GEOMETRY
 10
482.51
 11
498.796
 20
-688.927
 21
-703.186
  0
ARC
  8
APS_GEOMETRY
 10
514.028
 20
-685.707
 40
23.185
 50
228.93
 51
232.674
  0
ARC
  8
APS_GEOMETRY
 10
505.555
 20
-696.819
 40
9.21
 50
232.674
 51
238.617
  0
ARC
  8
APS_GEOMETRY
 10
503.423
 20
-700.314
 40
5.116
 50
238.617
 51
249.131
  0
ARC
  8
APS_GEOMETRY
 10
502.067
 20
-703.871
 40
1.309
 50
249.131
 51
270.0
  0
ARC
  8
APS_GEOMETRY
 10
502.067
 20
-704.033
 40
1.148
 50
270.0
 51
334.898
  0
ARC
  8
APS_GEOMETRY
 10
496.768
 20
-701.551
 40
6.999
 50
334.898
 51
0.0
  0
ARC
  8
APS_GEOMETRY
 10
445.537
 20
-701.551
 40
58.23
 50
0.0
 51
2.026
  0
ARC
  8
APS_GEOMETRY
 10
476.424
 20
-700.458
 40
27.324
 50
2.026
 51
4.984
  0
ARC
  8
APS_GEOMETRY
 10
486.523
 20
-699.577
 40
17.186
 50
4.984
 51
9.673
  0
ARC
  8
APS_GEOMETRY
 10
498.163
 20
-697.593
 40
5.379
 50
9.673
 51
18.06
  0
ARC
  8
APS_GEOMETRY
 10
499.935
 20
-697.015
 40
3.515
 50
18.06
 51
42.397
  0
ARC
  8
APS_GEOMETRY
 10
499.363
 20
-697.538
 40
4.29
 50
42.397
 51
64.398
  0
ARC
  8
APS_GEOMETRY
 10
504.586
 20
-686.752
 40
7.695
 50
233.633
 51
244.026
  0
ARC
  8
APS_GEOMETRY
 10
501.741
 20
-690.615
 40
2.896
 50
216.656
 51
233.633
  0
ARC
  8
APS_GEOMETRY
 10
501.305
 20
-690.94
 40
2.353
 50
196.082
 51
216.656
  0
ARC
  8
APS_GEOMETRY
 10
502.729
 20
-690.529
 40
3.835
 50
180.0
 51
196.082
  0
ARC
  8
APS_GEOMETRY
 10
501.682
 20
-690.529
 40
2.788
 50
133.202
 51
180.0
  0
ARC
  8
APS_GEOMETRY
 10
503.881
 20
-692.871
 40
6.0
 50
101.788
 51
133.202
  0
ARC
  8
APS_GEOMETRY
 10
504.394
 20
-695.167
 40
8.353
 50
96.633
 51
102.011
  0
ARC
  8
APS_GEOMETRY
 10
506.253
 20
-711.156
 40
24.449
 50
93.489
 51
96.633
  0
ARC
  8
APS_GEOMETRY
 10
507.049
 20
-724.215
 40
37.532
 50
91.439
 51
93.489
  0
ARC
  8
APS_GEOMETRY
 10
508.019
 20
-762.809
 40
76.138
 50
90.0
 51
91.439
  0
ARC
  8
APS_GEOMETRY
 10
508.019
 20
-757.635
 40
70.964
 50
87.994
 51
90.0
  0
ARC
  8
APS_GEOMETRY
 10
509.309
 20
-720.794
 40
34.101
 50
85.101
 51
87.994
  0
ARC
  8
APS_GEOMETRY
 10
510.356
 20
-708.578
 40
21.84
 50
80.595
 51
85.101
  0
ARC
  8
APS_GEOMETRY
 10
512.744
 20
-694.164
 40
7.23
 50
72.759
 51
80.595
  0
ARC
  8
APS_GEOMETRY
 10
513.467
 20
-691.924
 40
4.876
 50
40.956
 51
73.072
  0
ARC
  8
APS_GEOMETRY
 10
514.847
 20
-690.726
 40
3.048
 50
360.0
 51
40.956
  0
ARC
  8
APS_GEOMETRY
 10
515.031
 20
-690.726
 40
2.865
 50
322.573
 51
360.0
  0
ARC
  8
APS_GEOMETRY
 10
513.525
 20
-689.574
 40
4.76
 50
293.749
 51
322.573
  0
ARC
  8
APS_GEOMETRY
 10
519.57
 20
-703.455
 40
10.38
 50
113.429
 51
119.291
  0
ARC
  8
APS_GEOMETRY
 10
515.53
 20
-696.254
 40
2.124
 50
119.291
 51
132.274
  0
ARC
  8
APS_GEOMETRY
 10
515.298
 20
-695.998
 40
1.778
 50
132.274
 51
147.653
  0
ARC
  8
APS_GEOMETRY
 10
516.979
 20
-697.064
 40
3.769
 50
147.653
 51
158.199
  0
ARC
  8
APS_GEOMETRY
 10
519.539
 20
-698.143
 40
6.546
 50
157.751
 51
167.885
  0
ARC
  8
APS_GEOMETRY
 10
533.159
 20
-701.066
 40
20.477
 50
167.885
 51
173.61
  0
ARC
  8
APS_GEOMETRY
 10
545.206
 20
-702.415
 40
32.599
 50
173.61
 51
177.221
  0
ARC
  8
APS_GEOMETRY
 10
582.361
 20
-704.219
 40
69.798
 50
177.221
 51
179.689
  0
LINE
  8
APS_GEOMETRY
 10
512.564
 11
512.564
 20
-703.84
 21
-714.501
  0
ARC
  8
APS_GEOMETRY
 10
947.93
 20
-714.501
 40
435.365
 50
180.0
 51
180.161
  0
ARC
  8
APS_GEOMETRY
 10
1325.749
 20
-713.437
 40
813.186
 50
180.161
 51
180.279
  0
LINE
  8
APS_GEOMETRY
 10
512.573
 11
512.583
 20
-717.404
 21
-719.192
  0
LINE
  8
APS_GEOMETRY
 10
512.583
 11
512.597
 20
-719.192
 21
-721.205
  0
ARC
  8
APS_GEOMETRY
 10
434.913
 20
-721.647
 40
77.685
 50
358.204
 51
0.326
  0
ARC
  8
APS_GEOMETRY
 10
471.868
 20
-722.805
 40
40.713
 50
355.274
 51
358.204
  0
ARC
  8
APS_GEOMETRY
 10
484.73
 20
-723.869
 40
27.806
 50
350.991
 51
355.274
  0
ARC
  8
APS_GEOMETRY
 10
501.109
 20
-726.465
 40
11.223
 50
344.249
 51
350.991
  0
ARC
  8
APS_GEOMETRY
 10
506.645
 20
-728.046
 40
5.466
 50
314.415
 51
344.445
  0
ARC
  8
APS_GEOMETRY
 10
508.673
 20
-730.116
 40
2.568
 50
270.0
 51
314.415
  0
ARC
  8
APS_GEOMETRY
 10
508.673
 20
-728.524
 40
4.16
 50
256.342
 51
270.0
  0
ARC
  8
APS_GEOMETRY
 10
508.376
 20
-729.744
 40
2.905
 50
239.982
 51
256.342
  0
ARC
  8
APS_GEOMETRY
 10
509.671
 20
-727.504
 40
5.492
 50
231.153
 51
239.982
  0
ARC
  8
APS_GEOMETRY
 10
531.419
 20
-700.499
 40
40.166
 50
227.891
 51
231.153
  0
LINE
  8
APS_GEOMETRY
 10
504.487
 11
485.094
 20
-730.297
 21
-712.931
  0
ARC
  8
APS_GEOMETRY
 10
477.622
 20
-721.203
 40
11.146
 50
47.911
 51
61.468
  0
ARC
  8
APS_GEOMETRY
 10
481.725
 20
-713.657
 40
2.557
 50
61.468
 51
90.0
  0
ARC
  8
APS_GEOMETRY
 10
481.725
 20
-712.22
 40
1.12
 50
90.0
 51
133.195
  0
ARC
  8
APS_GEOMETRY
 10
482.829
 20
-713.396
 40
2.733
 50
133.195
 51
160.454
  0
ARC
  8
APS_GEOMETRY
 10
486.373
 20
-714.654
 40
6.494
 50
160.454
 51
173.251
  0
ARC
  8
APS_GEOMETRY
 10
503.041
 20
-716.627
 40
23.278
 50
173.251
 51
180.0
  0
ARC
  8
APS_GEOMETRY
 10
548.381
 20
-716.627
 40
68.618
 50
180.0
 51
181.897
  0
ARC
  8
APS_GEOMETRY
 10
512.038
 20
-717.831
 40
32.255
 50
181.897
 51
184.664
  0
ARC
  8
APS_GEOMETRY
 10
500.127
 20
-718.802
 40
20.304
 50
184.664
 51
189.048
  0
ARC
  8
APS_GEOMETRY
 10
486.326
 20
-721.0
 40
6.329
 50
189.048
 51
196.905
  0
ARC
  8
APS_GEOMETRY
 10
484.135
 20
-721.666
 40
4.04
 50
196.905
 51
220.253
  0
ARC
  8
APS_GEOMETRY
 10
484.179
 20
-721.629
 40
4.097
 50
220.253
 51
243.435
  0
ARC
  8
APS_GEOMETRY
 10
480.181
 20
-729.69
 40
4.901
 50
37.921
 51
63.778
  0
ARC
  8
APS_GEOMETRY
 10
482.214
 20
-728.106
 40
2.324
 50
360.0
 51
37.921
  0
ARC
  8
APS_GEOMETRY
 10
481.31
 20
-728.106
 40
3.227
 50
324.268
 51
360.0
  0
ARC
  8
APS_GEOMETRY
 10
480.103
 20
-727.237
 40
4.715
 50
294.86
 51
324.268
  0
ARC
  8
APS_GEOMETRY
 10
478.106
 20
-722.927
 40
9.465
 50
278.78
 51
294.86
  0
ARC
  8
APS_GEOMETRY
 10
474.727
 20
-701.047
 40
31.604
 50
270.0
 51
278.78
  0
ARC
  8
APS_GEOMETRY
 10
474.727
 20
-706.719
 40
25.933
 50
260.383
 51
270.0
  0
ARC
  8
APS_GEOMETRY
 10
471.993
 20
-722.848
 40
9.574
 50
244.522
 51
260.383
  0
ARC
  8
APS_GEOMETRY
 10
470.014
 20
-727.002
 40
4.972
 50
216.549
 51
244.522
  0
ARC
  8
APS_GEOMETRY
 10
468.393
 20
-728.204
 40
2.954
 50
180.0
 51
216.549
  0
ARC
  8
APS_GEOMETRY
 10
469.445
 20
-728.204
 40
4.007
 50
164.65
 51
180.0
  0
ARC
  8
APS_GEOMETRY
 10
467.16
 20
-727.577
 40
1.637
 50
140.528
 51
164.65
  0
ARC
  8
APS_GEOMETRY
 10
468.085
 20
-728.338
 40
2.835
 50
126.135
 51
140.528
  0
ARC
  8
APS_GEOMETRY
 10
477.739
 20
-741.561
 40
19.207
 50
120.619
 51
126.135
  0
ARC
  8
APS_GEOMETRY
 10
466.293
 20
-722.239
 40
3.251
 50
300.784
 51
330.068
  0
ARC
  8
APS_GEOMETRY
 10
464.128
 20
-720.992
 40
5.749
 50
330.068
 51
351.983
  0
ARC
  8
APS_GEOMETRY
 10
427.765
 20
-716.252
 40
42.42
 50
352.493
 51
355.365
  0
ARC
  8
APS_GEOMETRY
 10
383.902
 20
-712.695
 40
86.427
 50
355.365
 51
357.376
  0
ARC
  8
APS_GEOMETRY
 10
353.189
 20
-711.288
 40
117.171
 50
357.376
 51
358.861
  0
ARC
  8
APS_GEOMETRY
 10
271.363
 20
-709.661
 40
199.014
 50
358.861
 51
0.0
  0
ARC
  8
APS_GEOMETRY
 10
344.953
 20
-709.661
 40
125.424
 50
360.0
 51
1.926
  0
ARC
  8
APS_GEOMETRY
 10
403.339
 20
-707.697
 40
67.005
 50
1.926
 51
4.562
  0
ARC
  8
APS_GEOMETRY
 10
423.926
 20
-706.055
 40
46.352
 50
4.562
 51
8.366
  0
ARC
  8
APS_GEOMETRY
 10
450.702
 20
-702.117
 40
19.288
 50
8.366
 51
14.265
  0
ARC
  8
APS_GEOMETRY
 10
460.827
 20
-699.556
 40
8.844
 50
14.349
 51
23.629
  0
ARC
  8
APS_GEOMETRY
 10
465.962
 20
-697.31
 40
3.24
 50
23.629
 51
38.991
  0
ARC
  8
APS_GEOMETRY
 10
465.981
 20
-697.295
 40
3.215
 50
38.991
 51
54.462
  0
ARC
  8
APS_GEOMETRY
 10
462.977
 20
-701.5
 40
8.384
 50
54.462
 51
64.026
  0
ARC
  8
APS_GEOMETRY
 10
471.455
 20
-684.133
 40
10.942
 50
235.472
 51
243.947
  0
ARC
  8
APS_GEOMETRY
 10
467.075
 20
-690.498
 40
3.216
 50
219.806
 51
235.472
  0
ARC
  8
APS_GEOMETRY
 10
466.412
 20
-691.051
 40
2.353
 50
198.939
 51
219.806
  0
ARC
  8
APS_GEOMETRY
 10
466.883
 20
-690.889
 40
2.851
 50
180.0
 51
198.939
  0
ARC
  8
APS_GEOMETRY
 10
466.744
 20
-690.889
 40
2.712
 50
126.254
 51
180.0
  0
ARC
  8
APS_GEOMETRY
 10
470.883
 20
-696.534
 40
9.711
 50
98.616
 51
126.254
  0
ARC
  8
APS_GEOMETRY
 10
471.466
 20
-701.197
 40
14.41
 50
94.456
 51
98.13
  0
ARC
  8
APS_GEOMETRY
 10
473.715
 20
-730.049
 40
43.349
 50
92.337
 51
94.456
  0
ARC
  8
APS_GEOMETRY
 10
474.673
 20
-753.527
 40
66.847
 50
90.963
 51
92.337
  0
ARC
  8
APS_GEOMETRY
 10
475.838
 20
-822.876
 40
136.206
 50
90.0
 51
90.963
  0
ARC
  8
APS_GEOMETRY
 10
475.838
 20
-711.492
 40
24.822
 50
83.928
 51
90.0
  0
ARC
  8
APS_GEOMETRY
 10
477.874
 20
-692.355
 40
5.577
 50
71.095
 51
83.928
  0
ARC
  8
APS_GEOMETRY
 10
478.06
 20
-691.812
 40
5.003
 50
56.848
 51
71.095
  0
ARC
  8
APS_GEOMETRY
 10
472.558
 20
-700.236
 40
15.065
 50
48.652
 51
56.848
  0
ARC
  8
APS_GEOMETRY
 10
541.317
 20
-727.278
 40
40.608
 50
84.71
 51
90.0
  0
ARC
  8
APS_GEOMETRY
 10
542.062
 20
-719.238
 40
32.533
 50
78.799
 51
84.71
  0
ARC
  8
APS_GEOMETRY
 10
546.878
 20
-694.895
 40
7.718
 50
49.783
 51
78.771
  0
ARC
  8
APS_GEOMETRY
 10
550.1
 20
-691.085
 40
2.729
 50
360.0
 51
49.783
  0
ARC
  8
APS_GEOMETRY
 10
549.809
 20
-691.085
 40
3.02
 50
342.759
 51
360.0
  0
ARC
  8
APS_GEOMETRY
 10
551.385
 20
-691.574
 40
1.37
 50
317.045
 51
342.759
  0
ARC
  8
APS_GEOMETRY
 10
550.624
 20
-690.866
 40
2.41
 50
301.817
 51
317.045
  0
ARC
  8
APS_GEOMETRY
 10
539.368
 20
-672.724
 40
23.76
 50
296.98
 51
301.817
  0
ARC
  8
APS_GEOMETRY
 10
551.369
 20
-696.342
 40
2.733
 50
116.565
 51
149.078
  0
ARC
  8
APS_GEOMETRY
 10
554.889
 20
-698.45
 40
6.835
 50
149.078
 51
169.469
  0
ARC
  8
APS_GEOMETRY
 10
562.393
 20
-699.845
 40
14.468
 50
169.469
 51
174.598
  0
ARC
  8
APS_GEOMETRY
 10
601.057
 20
-703.501
 40
53.304
 50
174.598
 51
177.269
  0
ARC
  8
APS_GEOMETRY
 10
635.055
 20
-705.123
 40
87.341
 50
177.269
 51
178.901
  0
ARC
  8
APS_GEOMETRY
 10
740.361
 20
-707.143
 40
192.667
 50
178.901
 51
180.0
  0
ARC
  8
APS_GEOMETRY
 10
954.351
 20
-707.143
 40
406.657
 50
180.0
 51
180.88
  0
ARC
  8
APS_GEOMETRY
 10
703.831
 20
-710.991
 40
156.107
 50
180.88
 51
182.3
  0
ARC
  8
APS_GEOMETRY
 10
630.606
 20
-713.932
 40
82.823
 50
182.3
 51
184.974
  0
ARC
  8
APS_GEOMETRY
 10
560.785
 20
-720.008
 40
12.738
 50
184.974
 51
191.793
  0
ARC
  8
APS_GEOMETRY
 10
552.675
 20
-721.559
 40
4.484
 50
193.57
 51
205.787
  0
ARC
  8
APS_GEOMETRY
 10
550.658
 20
-722.534
 40
2.244
 50
205.787
 51
223.091
  0
ARC
  8
APS_GEOMETRY
 10
551.169
 20
-722.055
 40
2.944
 50
223.091
 51
236.441
  0
ARC
  8
APS_GEOMETRY
 10
555.453
 20
-715.598
 40
10.693
 50
236.441
 51
243.435
  0
ARC
  8
APS_GEOMETRY
 10
548.895
 20
-729.069
 40
4.291
 50
37.185
 51
65.556
  0
ARC
  8
APS_GEOMETRY
 10
550.294
 20
-728.008
 40
2.535
 50
360.0
 51
37.185
  0
ARC
  8
APS_GEOMETRY
 10
550.217
 20
-728.008
 40
2.612
 50
312.039
 51
360.0
  0
ARC
  8
APS_GEOMETRY
 10
547.106
 20
-724.557
 40
7.258
 50
283.815
 51
312.039
  0
ARC
  8
APS_GEOMETRY
 10
541.966
 20
-703.252
 40
29.174
 50
279.273
 51
283.627
  0
ARC
  8
APS_GEOMETRY
 10
539.911
 20
-690.666
 40
41.926
 50
275.641
 51
279.273
  0
ARC
  8
APS_GEOMETRY
 10
539.125
 20
-682.713
 40
49.919
 50
272.588
 51
275.641
  0
ARC
  8
APS_GEOMETRY
 10
538.243
 20
-663.196
 40
69.456
 50
270.0
 51
272.588
  0
ARC
  8
APS_GEOMETRY
 10
538.243
 20
-690.758
 40
41.894
 50
262.774
 51
270.0
  0
ARC
  8
APS_GEOMETRY
 10
534.467
 20
-720.545
 40
11.868
 50
249.175
 51
262.774
  0
ARC
  8
APS_GEOMETRY
 10
532.094
 20
-726.783
 40
5.194
 50
221.23
 51
249.175
  0
ARC
  8
APS_GEOMETRY
 10
530.025
 20
-728.596
 40
2.443
 50
180.0
 51
221.23
  0
ARC
  8
APS_GEOMETRY
 10
529.623
 20
-728.596
 40
2.041
 50
142.696
 51
180.0
  0
ARC
  8
APS_GEOMETRY
 10
532.845
 20
-731.051
 40
6.091
 50
121.357
 51
142.696
  0
ARC
  8
APS_GEOMETRY
 10
527.401
 20
-722.136
 40
4.354
 50
301.477
 51
324.728
  0
ARC
  8
APS_GEOMETRY
 10
527.982
 20
-722.546
 40
3.643
 50
324.728
 51
350.181
  0
ARC
  8
APS_GEOMETRY
 10
509.741
 20
-719.529
 40
22.132
 50
350.538
 51
355.423
  0
ARC
  8
APS_GEOMETRY
 10
434.789
 20
-713.529
 40
97.324
 50
355.423
 51
357.752
  0
ARC
  8
APS_GEOMETRY
 10
365.195
 20
-710.797
 40
166.971
 50
357.752
 51
359.111
  0
ARC
  8
APS_GEOMETRY
 10
142.449
 20
-707.339
 40
389.744
 50
359.111
 51
0.0
  0
ARC
  8
APS_GEOMETRY
 10
396.97
 20
-707.339
 40
135.223
 50
0.0
 51
1.773
  0
ARC
  8
APS_GEOMETRY
 10
476.33
 20
-704.883
 40
55.825
 50
1.773
 51
4.532
  0
ARC
  8
APS_GEOMETRY
 10
500.451
 20
-702.971
 40
31.629
 50
4.532
 51
9.384
  0
ARC
  8
APS_GEOMETRY
 10
524.944
 20
-698.923
 40
6.803
 50
9.384
 51
19.855
  0
ARC
  8
APS_GEOMETRY
 10
528.186
 20
-697.69
 40
3.336
 50
18.853
 51
42.158
  0
ARC
  8
APS_GEOMETRY
 10
525.407
 20
-700.206
 40
7.084
 50
42.158
 51
58.092
  0
ARC
  8
APS_GEOMETRY
 10
537.636
 20
-681.309
 40
15.426
 50
230.711
 51
236.634
  0
ARC
  8
APS_GEOMETRY
 10
529.954
 20
-690.697
 40
3.296
 50
217.875
 51
230.711
  0
ARC
  8
APS_GEOMETRY
 10
528.901
 20
-691.516
 40
1.962
 50
196.928
 51
217.875
  0
ARC
  8
APS_GEOMETRY
 10
529.887
 20
-691.216
 40
2.992
 50
180.0
 51
196.928
  0
ARC
  8
APS_GEOMETRY
 10
529.242
 20
-691.216
 40
2.347
 50
148.791
 51
180.0
  0
ARC
  8
APS_GEOMETRY
 10
529.858
 20
-691.589
 40
3.067
 50
121.569
 51
148.791
  0
ARC
  8
APS_GEOMETRY
 10
530.963
 20
-693.388
 40
5.178
 50
112.806
 51
121.569
  0
ARC
  8
APS_GEOMETRY
 10
533.95
 20
-700.492
 40
12.885
 50
107.254
 51
112.806
  0
ARC
  8
APS_GEOMETRY
 10
535.78
 20
-706.384
 40
19.054
 50
103.487
 51
107.254
  0
ARC
  8
APS_GEOMETRY
 10
539.971
 20
-723.856
 40
37.022
 50
100.784
 51
103.487
  0
ARC
  8
APS_GEOMETRY
 10
541.283
 20
-728.687
 40
42.015
 50
95.643
 51
101.31
  0
ARC
  8
APS_GEOMETRY
 10
541.317
 20
-729.033
 40
42.362
 50
90.0
 51
95.643
  0
ARC
  8
APS_GEOMETRY
 10
581.987
 20
-707.705
 40
21.264
 50
77.257
 51
90.0
  0
ARC
  8
APS_GEOMETRY
 10
581.771
 20
-708.661
 40
22.243
 50
64.799
 51
77.257
  0
ARC
  8
APS_GEOMETRY
 10
600.089
 20
-669.662
 40
20.843
 50
244.885
 51
251.175
  0
ARC
  8
APS_GEOMETRY
 10
594.12
 20
-687.17
 40
2.346
 50
251.175
 51
270.0
  0
ARC
  8
APS_GEOMETRY
 10
594.12
 20
-685.709
 40
3.806
 50
270.0
 51
278.82
  0
ARC
  8
APS_GEOMETRY
 10
591.661
 20
-669.862
 40
19.844
 50
278.82
 51
282.68
  0
ARC
  8
APS_GEOMETRY
 10
596.807
 20
-692.642
 40
3.511
 50
95.906
 51
102.995
  0
ARC
  8
APS_GEOMETRY
 10
596.966
 20
-694.179
 40
5.055
 50
90.0
 51
95.906
  0
ARC
  8
APS_GEOMETRY
 10
596.966
 20
-692.479
 40
3.356
 50
62.447
 51
90.0
  0
ARC
  8
APS_GEOMETRY
 10
596.369
 20
-693.622
 40
4.645
 50
39.094
 51
62.447
  0
ARC
  8
APS_GEOMETRY
 10
590.135
 20
-698.836
 40
12.772
 50
18.435
 51
39.611
  0
ARC
  8
APS_GEOMETRY
 10
586.308
 20
-700.112
 40
16.806
 50
360.0
 51
18.435
  0
ARC
  8
APS_GEOMETRY
 10
594.781
 20
-700.112
 40
8.333
 50
334.877
 51
360.0
  0
ARC
  8
APS_GEOMETRY
 10
597.287
 20
-701.287
 40
5.565
 50
304.007
 51
334.877
  0
ARC
  8
APS_GEOMETRY
 10
597.246
 20
-701.169
 40
5.686
 50
286.39
 51
303.69
  0
ARC
  8
APS_GEOMETRY
 10
597.064
 20
-700.551
 40
6.33
 50
270.0
 51
286.39
  0
ARC
  8
APS_GEOMETRY
 10
597.064
 20
-700.625
 40
6.257
 50
255.155
 51
270.0
  0
ARC
  8
APS_GEOMETRY
 10
596.378
 20
-703.211
 40
3.581
 50
235.491
 51
255.155
  0
ARC
  8
APS_GEOMETRY
 10
596.722
 20
-702.71
 40
4.189
 50
218.48
 51
235.491
  0
ARC
  8
APS_GEOMETRY
 10
602.343
 20
-698.242
 40
11.369
 50
208.179
 51
218.48
  0
ARC
  8
APS_GEOMETRY
 10
544.719
 20
-729.521
 40
54.198
 50
28.56
 51
31.664
  0
ARC
  8
APS_GEOMETRY
 10
579.931
 20
-707.805
 40
12.827
 50
31.664
 51
38.047
  0
ARC
  8
APS_GEOMETRY
 10
582.491
 20
-705.801
 40
9.576
 50
38.047
 51
46.56
  0
ARC
  8
APS_GEOMETRY
 10
581.16
 20
-707.206
 40
11.512
 50
46.56
 51
54.324
  0
ARC
  8
APS_GEOMETRY
 10
580.392
 20
-708.528
 40
13.034
 50
54.968
 51
71.48
  0
ARC
  8
APS_GEOMETRY
 10
581.235
 20
-706.011
 40
10.38
 50
71.48
 51
90.0
  0
ARC
  8
APS_GEOMETRY
 10
581.235
 20
-702.882
 40
7.251
 50
90.0
 51
114.63
  0
ARC
  8
APS_GEOMETRY
 10
580.871
 20
-702.088
 40
6.377
 50
114.63
 51
140.921
  0
ARC
  8
APS_GEOMETRY
 10
581.947
 20
-702.961
 40
7.763
 50
140.921
 51
163.13
  0
ARC
  8
APS_GEOMETRY
 10
587.324
 20
-704.592
 40
13.382
 50
163.13
 51
180.0
  0
ARC
  8
APS_GEOMETRY
 10
594.298
 20
-704.592
 40
20.355
 50
180.0
 51
195.44
  0
ARC
  8
APS_GEOMETRY
 10
593.24
 20
-704.884
 40
19.258
 50
195.44
 51
211.316
  0
ARC
  8
APS_GEOMETRY
 10
588.151
 20
-707.874
 40
13.357
 50
211.708
 51
240.457
  0
ARC
  8
APS_GEOMETRY
 10
587.809
 20
-708.477
 40
12.663
 50
240.457
 51
270.0
  0
ARC
  8
APS_GEOMETRY
 10
587.809
 20
-705.389
 40
15.751
 50
270.0
 51
279.549
  0
ARC
  8
APS_GEOMETRY
 10
587.613
 20
-704.225
 40
16.931
 50
279.549
 51
288.759
  0
ARC
  8
APS_GEOMETRY
 10
588.438
 20
-706.656
 40
14.364
 50
288.759
 51
299.545
  0
ARC
  8
APS_GEOMETRY
 10
591.748
 20
-712.495
 40
7.652
 50
299.545
 51
314.341
  0
ARC
  8
APS_GEOMETRY
 10
601.983
 20
-723.126
 40
7.105
 50
120.141
 51
133.452
  0
ARC
  8
APS_GEOMETRY
 10
599.124
 20
-718.202
 40
1.412
 50
90.0
 51
120.141
  0
ARC
  8
APS_GEOMETRY
 10
599.124
 20
-719.02
 40
2.23
 50
61.952
 51
90.0
  0
ARC
  8
APS_GEOMETRY
 10
598.792
 20
-719.643
 40
2.936
 50
37.569
 51
61.952
  0
ARC
  8
APS_GEOMETRY
 10
598.173
 20
-720.12
 40
3.717
 50
17.665
 51
37.569
  0
ARC
  8
APS_GEOMETRY
 10
597.228
 20
-720.42
 40
4.709
 50
360.0
 51
17.665
  0
ARC
  8
APS_GEOMETRY
 10
594.856
 20
-720.42
 40
7.081
 50
344.932
 51
360.0
  0
ARC
  8
APS_GEOMETRY
 10
588.558
 20
-718.725
 40
13.603
 50
334.075
 51
344.932
  0
ARC
  8
APS_GEOMETRY
 10
588.36
 20
-718.629
 40
13.823
 50
323.374
 51
334.075
  0
ARC
  8
APS_GEOMETRY
 10
592.424
 20
-721.649
 40
8.76
 50
309.92
 51
323.374
  0
ARC
  8
APS_GEOMETRY
 10
596.485
 20
-726.44
 40
2.48
 50
289.026
 51
308.991
  0
ARC
  8
APS_GEOMETRY
 10
592.152
 20
-713.875
 40
15.771
 50
281.143
 51
289.026
  0
ARC
  8
APS_GEOMETRY
 10
596.546
 20
-736.656
 40
7.431
 50
100.437
 51
110.12
  0
ARC
  8
APS_GEOMETRY
 10
602.367
 20
-752.546
 40
24.353
 50
110.12
 51
115.463
  0
ARC
  8
APS_GEOMETRY
 10
581.586
 20
-709.066
 40
23.838
 50
282.94
 51
295.628
  0
ARC
  8
APS_GEOMETRY
 10
581.791
 20
-709.96
 40
22.921
 50
270.0
 51
282.94
  0
ARC
  8
APS_GEOMETRY
 10
581.791
 20
-708.606
 40
24.275
 50
257.307
 51
270.0
  0
ARC
  8
APS_GEOMETRY
 10
582.816
 20
-704.056
 40
28.939
 50
245.686
 51
257.307
  0
ARC
  8
APS_GEOMETRY
 10
580.246
 20
-709.697
 40
22.739
 50
228.801
 51
245.735
  0
ARC
  8
APS_GEOMETRY
 10
580.289
 20
-709.648
 40
22.805
 50
211.891
 51
228.801
  0
ARC
  8
APS_GEOMETRY
 10
581.636
 20
-708.678
 40
24.462
 50
196.728
 51
212.152
  0
ARC
  8
APS_GEOMETRY
 10
578.149
 20
-709.726
 40
20.82
 50
180.0
 51
196.728
  0
ARC
  8
APS_GEOMETRY
 10
578.656
 20
-709.726
 40
21.327
 50
161.184
 51
180.0
  0
ARC
  8
APS_GEOMETRY
 10
580.024
 20
-710.193
 40
22.773
 50
142.98
 51
161.184
  0
ARC
  8
APS_GEOMETRY
 10
581.088
 20
-711.007
 40
24.112
 50
127.824
 51
142.958
  0
ARC
  8
APS_GEOMETRY
 10
582.842
 20
-713.266
 40
26.973
 50
113.52
 51
127.824
  0
ARC
  8
APS_GEOMETRY
 10
582.271
 20
-711.947
 40
25.535
 50
101.927
 51
113.527
  0
ARC
  8
APS_GEOMETRY
 10
581.987
 20
-710.602
 40
24.161
 50
90.0
 51
101.927
  0
ARC
  8
APS_GEOMETRY
 10
626.536
 20
-727.278
 40
40.608
 50
84.71
 51
90.0
  0
ARC
  8
APS_GEOMETRY
 10
627.281
 20
-719.238
 40
32.533
 50
78.799
 51
84.71
  0
ARC
  8
APS_GEOMETRY
 10
632.097
 20
-694.895
 40
7.718
 50
49.783
 51
78.771
  0
ARC
  8
APS_GEOMETRY
 10
635.319
 20
-691.085
 40
2.729
 50
360.0
 51
49.783
  0
ARC
  8
APS_GEOMETRY
 10
635.028
 20
-691.085
 40
3.02
 50
342.759
 51
360.0
  0
ARC
  8
APS_GEOMETRY
 10
636.603
 20
-691.574
 40
1.37
 50
317.045
 51
342.759
  0
ARC
  8
APS_GEOMETRY
 10
635.843
 20
-690.866
 40
2.41
 50
301.817
 51
317.045
  0
ARC
  8
APS_GEOMETRY
 10
624.587
 20
-672.724
 40
23.76
 50
296.98
 51
301.817
  0
ARC
  8
APS_GEOMETRY
 10
636.588
 20
-696.342
 40
2.733
 50
116.565
 51
149.078
  0
ARC
  8
APS_GEOMETRY
 10
640.107
 20
-698.45
 40
6.835
 50
149.078
 51
169.469
  0
ARC
  8
APS_GEOMETRY
 10
647.612
 20
-699.845
 40
14.468
 50
169.469
 51
174.598
  0
ARC
  8
APS_GEOMETRY
 10
686.276
 20
-703.501
 40
53.304
 50
174.598
 51
177.269
  0
ARC
  8
APS_GEOMETRY
 10
720.273
 20
-705.123
 40
87.341
 50
177.269
 51
178.901
  0
ARC
  8
APS_GEOMETRY
 10
825.58
 20
-707.143
 40
192.667
 50
178.901
 51
180.0
  0
ARC
  8
APS_GEOMETRY
 10
1039.57
 20
-707.143
 40
406.657
 50
180.0
 51
180.88
  0
ARC
  8
APS_GEOMETRY
 10
789.05
 20
-710.991
 40
156.107
 50
180.88
 51
182.3
  0
ARC
  8
APS_GEOMETRY
 10
715.824
 20
-713.932
 40
82.823
 50
182.3
 51
184.974
  0
ARC
  8
APS_GEOMETRY
 10
646.004
 20
-720.008
 40
12.738
 50
184.974
 51
191.793
  0
ARC
  8
APS_GEOMETRY
 10
637.894
 20
-721.559
 40
4.484
 50
193.57
 51
205.787
  0
ARC
  8
APS_GEOMETRY
 10
635.876
 20
-722.534
 40
2.244
 50
205.787
 51
223.091
  0
ARC
  8
APS_GEOMETRY
 10
636.388
 20
-722.055
 40
2.944
 50
223.091
 51
236.441
  0
ARC
  8
APS_GEOMETRY
 10
640.671
 20
-715.598
 40
10.693
 50
236.441
 51
243.435
  0
ARC
  8
APS_GEOMETRY
 10
634.114
 20
-729.069
 40
4.291
 50
37.185
 51
65.556
  0
ARC
  8
APS_GEOMETRY
 10
635.513
 20
-728.008
 40
2.535
 50
360.0
 51
37.185
  0
ARC
  8
APS_GEOMETRY
 10
635.436
 20
-728.008
 40
2.612
 50
312.039
 51
360.0
  0
ARC
  8
APS_GEOMETRY
 10
632.325
 20
-724.557
 40
7.258
 50
283.815
 51
312.039
  0
ARC
  8
APS_GEOMETRY
 10
627.184
 20
-703.252
 40
29.174
 50
279.273
 51
283.627
  0
ARC
  8
APS_GEOMETRY
 10
625.13
 20
-690.666
 40
41.926
 50
275.641
 51
279.273
  0
ARC
  8
APS_GEOMETRY
 10
624.344
 20
-682.713
 40
49.919
 50
272.588
 51
275.641
  0
ARC
  8
APS_GEOMETRY
 10
623.462
 20
-663.196
 40
69.456
 50
270.0
 51
272.588
  0
ARC
  8
APS_GEOMETRY
 10
623.462
 20
-690.758
 40
41.894
 50
262.774
 51
270.0
  0
ARC
  8
APS_GEOMETRY
 10
619.685
 20
-720.545
 40
11.868
 50
249.175
 51
262.774
  0
ARC
  8
APS_GEOMETRY
 10
617.313
 20
-726.783
 40
5.194
 50
221.23
 51
249.175
  0
ARC
  8
APS_GEOMETRY
 10
615.244
 20
-728.596
 40
2.443
 50
180.0
 51
221.23
  0
ARC
  8
APS_GEOMETRY
 10
614.842
 20
-728.596
 40
2.041
 50
142.696
 51
180.0
  0
ARC
  8
APS_GEOMETRY
 10
618.063
 20
-731.051
 40
6.091
 50
121.357
 51
142.696
  0
ARC
  8
APS_GEOMETRY
 10
612.62
 20
-722.136
 40
4.354
 50
301.477
 51
324.728
  0
ARC
  8
APS_GEOMETRY
 10
613.201
 20
-722.546
 40
3.643
 50
324.728
 51
350.181
  0
ARC
  8
APS_GEOMETRY
 10
594.96
 20
-719.529
 40
22.132
 50
350.538
 51
355.423
  0
ARC
  8
APS_GEOMETRY
 10
520.008
 20
-713.529
 40
97.324
 50
355.423
 51
357.752
  0
ARC
  8
APS_GEOMETRY
 10
450.414
 20
-710.797
 40
166.971
 50
357.752
 51
359.111
  0
ARC
  8
APS_GEOMETRY
 10
227.668
 20
-707.339
 40
389.744
 50
359.111
 51
0.0
  0
ARC
  8
APS_GEOMETRY
 10
482.188
 20
-707.339
 40
135.223
 50
0.0
 51
1.773
  0
ARC
  8
APS_GEOMETRY
 10
561.548
 20
-704.883
 40
55.825
 50
1.773
 51
4.532
  0
ARC
  8
APS_GEOMETRY
 10
585.669
 20
-702.971
 40
31.629
 50
4.532
 51
9.384
  0
ARC
  8
APS_GEOMETRY
 10
610.163
 20
-698.923
 40
6.803
 50
9.384
 51
19.855
  0
ARC
  8
APS_GEOMETRY
 10
613.404
 20
-697.69
 40
3.336
 50
18.853
 51
42.158
  0
ARC
  8
APS_GEOMETRY
 10
610.626
 20
-700.206
 40
7.084
 50
42.158
 51
58.092
  0
ARC
  8
APS_GEOMETRY
 10
622.855
 20
-681.309
 40
15.426
 50
230.711
 51
236.634
  0
ARC
  8
APS_GEOMETRY
 10
615.173
 20
-690.697
 40
3.296
 50
217.875
 51
230.711
  0
ARC
  8
APS_GEOMETRY
 10
614.12
 20
-691.516
 40
1.962
 50
196.928
 51
217.875
  0
ARC
  8
APS_GEOMETRY
 10
615.106
 20
-691.216
 40
2.992
 50
180.0
 51
196.928
  0
ARC
  8
APS_GEOMETRY
 10
614.461
 20
-691.216
 40
2.347
 50
148.791
 51
180.0
  0
ARC
  8
APS_GEOMETRY
 10
615.077
 20
-691.589
 40
3.067
 50
121.569
 51
148.791
  0
ARC
  8
APS_GEOMETRY
 10
616.182
 20
-693.388
 40
5.178
 50
112.806
 51
121.569
  0
ARC
  8
APS_GEOMETRY
 10
619.169
 20
-700.492
 40
12.885
 50
107.254
 51
112.806
  0
ARC
  8
APS_GEOMETRY
 10
620.999
 20
-706.384
 40
19.054
 50
103.487
 51
107.254
  0
ARC
  8
APS_GEOMETRY
 10
625.189
 20
-723.856
 40
37.022
 50
100.784
 51
103.487
  0
ARC
  8
APS_GEOMETRY
 10
626.502
 20
-728.687
 40
42.015
 50
95.643
 51
101.31
  0
ARC
  8
APS_GEOMETRY
 10
626.536
 20
-729.033
 40
42.362
 50
90.0
 51
95.643
  0
LINE
  8
APS_GEOMETRY
 10
695.684
 11
695.684
 20
-716.594
 21
-699.392
  0
ARC
  8
APS_GEOMETRY
 10
655.963
 20
-699.392
 40
39.721
 50
0.0
 51
2.404
  0
ARC
  8
APS_GEOMETRY
 10
679.48
 20
-698.405
 40
16.183
 50
2.404
 51
6.17
  0
ARC
  8
APS_GEOMETRY
 10
686.529
 20
-697.643
 40
9.093
 50
6.17
 51
12.824
  0
ARC
  8
APS_GEOMETRY
 10
693.429
 20
-696.072
 40
2.017
 50
12.824
 51
26.98
  0
ARC
  8
APS_GEOMETRY
 10
693.752
 20
-695.908
 40
1.655
 50
26.98
 51
59.65
  0
ARC
  8
APS_GEOMETRY
 10
690.713
 20
-701.097
 40
7.668
 50
59.65
 51
74.667
  0
ARC
  8
APS_GEOMETRY
 10
694.216
 20
-688.598
 40
5.313
 50
225.0
 51
253.887
  0
ARC
  8
APS_GEOMETRY
 10
692.055
 20
-690.758
 40
2.257
 50
180.0
 51
225.0
  0
ARC
  8
APS_GEOMETRY
 10
692.47
 20
-690.758
 40
2.672
 50
151.157
 51
180.0
  0
ARC
  8
APS_GEOMETRY
 10
692.464
 20
-690.755
 40
2.665
 50
122.276
 51
151.157
  0
ARC
  8
APS_GEOMETRY
 10
693.228
 20
-691.965
 40
4.096
 50
102.308
 51
122.276
  0
ARC
  8
APS_GEOMETRY
 10
694.638
 20
-698.429
 40
10.712
 50
90.0
 51
102.308
  0
ARC
  8
APS_GEOMETRY
 10
694.638
 20
-710.883
 40
23.166
 50
88.989
 51
90.0
  0
ARC
  8
APS_GEOMETRY
 10
692.691
 20
-821.228
 40
133.528
 50
88.568
 51
88.989
  0
ARC
  8
APS_GEOMETRY
 10
689.941
 20
-931.232
 40
243.567
 50
88.337
 51
88.568
  0
ARC
  8
APS_GEOMETRY
 10
679.282
 20
-1298.348
 40
610.838
 50
88.191
 51
88.337
  0
LINE
  8
APS_GEOMETRY
 10
698.562
 11
700.492
 20
-687.815
 21
-687.815
  0
ARC
  8
APS_GEOMETRY
 10
694.01
 20
388.134
 40
1075.969
 50
270.345
 51
270.49
  0
ARC
  8
APS_GEOMETRY
 10
700.05
 20
-318.476
 40
369.332
 50
270.49
 51
270.736
  0
ARC
  8
APS_GEOMETRY
 10
702.529
 20
-511.348
 40
176.445
 50
270.736
 51
271.253
  0
ARC
  8
APS_GEOMETRY
 10
706.054
 20
-672.564
 40
15.19
 50
271.253
 51
273.013
  0
ARC
  8
APS_GEOMETRY
 10
705.908
 20
-669.777
 40
17.982
 50
273.013
 51
274.5
  0
ARC
  8
APS_GEOMETRY
 10
689.252
 20
-458.123
 40
230.289
 50
274.5
 51
274.915
  0
LINE
  8
APS_GEOMETRY
 10
708.982
 11
710.946
 20
-687.566
 21
-687.393
  0
LINE
  8
APS_GEOMETRY
 10
710.946
 11
713.508
 20
-687.393
 21
-687.161
  0
ARC
  8
APS_GEOMETRY
 10
717.721
 20
-727.885
 40
40.941
 50
93.24
 51
95.906
  0
ARC
  8
APS_GEOMETRY
 10
716.974
 20
-714.701
 40
27.736
 50
90.0
 51
93.24
  0
ARC
  8
APS_GEOMETRY
 10
716.974
 20
-710.518
 40
23.553
 50
77.12
 51
90.0
  0
ARC
  8
APS_GEOMETRY
 10
718.215
 20
-705.091
 40
17.987
 50
62.371
 51
77.12
  0
ARC
  8
APS_GEOMETRY
 10
720.316
 20
-701.152
 40
13.522
 50
31.215
 51
62.517
  0
ARC
  8
APS_GEOMETRY
 10
720.253
 20
-701.191
 40
13.597
 50
360.0
 51
31.215
  0
ARC
  8
APS_GEOMETRY
 10
719.887
 20
-701.191
 40
13.962
 50
334.496
 51
360.0
  0
ARC
  8
APS_GEOMETRY
 10
720.574
 20
-701.518
 40
13.201
 50
308.254
 51
334.496
  0
ARC
  8
APS_GEOMETRY
 10
718.475
 20
-698.752
 40
16.674
 50
287.855
 51
308.034
  0
ARC
  8
APS_GEOMETRY
 10
717.072
 20
-694.399
 40
21.247
 50
270.0
 51
287.855
  0
ARC
  8
APS_GEOMETRY
 10
717.072
 20
-683.449
 40
32.197
 50
266.918
 51
270.0
  0
ARC
  8
APS_GEOMETRY
 10
719.027
 20
-647.152
 40
68.546
 50
264.806
 51
266.918
  0
ARC
  8
APS_GEOMETRY
 10
705.954
 20
-809.261
 40
94.095
 50
85.815
 51
86.634
  0
ARC
  8
APS_GEOMETRY
 10
711.153
 20
-720.882
 40
5.563
 50
86.634
 51
90.0
  0
ARC
  8
APS_GEOMETRY
 10
711.153
 20
-716.14
 40
0.821
 50
90.0
 51
139.686
  0
ARC
  8
APS_GEOMETRY
 10
711.458
 20
-716.398
 40
1.22
 50
139.686
 51
180.0
  0
LINE
  8
APS_GEOMETRY
 10
710.237
 11
710.237
 20
-716.398
 21
-716.594
  0
LINE
  8
APS_GEOMETRY
 10
710.237
 11
710.466
 20
-716.594
 21
-721.958
  0
ARC
  8
APS_GEOMETRY
 10
718.217
 20
-721.635
 40
7.757
 50
182.386
 51
193.753
  0
ARC
  8
APS_GEOMETRY
 10
713.219
 20
-722.858
 40
2.612
 50
193.753
 51
213.408
  0
ARC
  8
APS_GEOMETRY
 10
713.275
 20
-722.821
 40
2.679
 50
213.408
 51
232.628
  0
ARC
  8
APS_GEOMETRY
 10
717.785
 20
-716.915
 40
10.11
 50
232.628
 51
242.488
  0
ARC
  8
APS_GEOMETRY
 10
710.263
 20
-731.18
 40
6.017
 50
40.539
 51
61.699
  0
ARC
  8
APS_GEOMETRY
 10
713.551
 20
-728.367
 40
1.69
 50
360.0
 51
40.539
  0
ARC
  8
APS_GEOMETRY
 10
712.972
 20
-728.367
 40
2.269
 50
315.297
 51
360.0
  0
ARC
  8
APS_GEOMETRY
 10
709.902
 20
-725.33
 40
6.588
 50
289.502
 51
315.297
  0
ARC
  8
APS_GEOMETRY
 10
707.653
 20
-718.978
 40
13.326
 50
282.372
 51
289.502
  0
ARC
  8
APS_GEOMETRY
 10
705.29
 20
-708.207
 40
24.353
 50
277.099
 51
282.372
  0
ARC
  8
APS_GEOMETRY
 10
704.319
 20
-700.408
 40
32.213
 50
273.104
 51
277.099
  0
ARC
  8
APS_GEOMETRY
 10
703.173
 20
-679.289
 40
53.362
 50
270.0
 51
273.104
  0
ARC
  8
APS_GEOMETRY
 10
703.173
 20
-679.929
 40
52.723
 50
263.473
 51
270.0
  0
ARC
  8
APS_GEOMETRY
 10
698.841
 20
-717.796
 40
14.609
 50
251.056
 51
263.473
  0
ARC
  8
APS_GEOMETRY
 10
696.059
 20
-725.901
 40
6.039
 50
224.161
 51
251.056
  0
ARC
  8
APS_GEOMETRY
 10
693.385
 20
-728.498
 40
2.311
 50
180.0
 51
224.161
  0
ARC
  8
APS_GEOMETRY
 10
693.864
 20
-728.498
 40
2.791
 50
160.821
 51
180.0
  0
ARC
  8
APS_GEOMETRY
 10
692.694
 20
-728.091
 40
1.552
 50
135.0
 51
160.821
  0
ARC
  8
APS_GEOMETRY
 10
693.8
 20
-729.198
 40
3.117
 50
121.522
 51
135.0
  0
ARC
  8
APS_GEOMETRY
 10
706.285
 20
-749.554
 40
26.996
 50
116.952
 51
121.522
  0
ARC
  8
APS_GEOMETRY
 10
692.652
 20
-722.843
 40
2.993
 50
297.824
 51
321.605
  0
ARC
  8
APS_GEOMETRY
 10
693.342
 20
-723.389
 40
2.113
 50
321.605
 51
349.992
  0
ARC
  8
APS_GEOMETRY
 10
690.142
 20
-722.824
 40
5.362
 50
349.992
 51
356.014
  0
ARC
  8
APS_GEOMETRY
 10
641.48
 20
-719.433
 40
54.143
 50
356.014
 51
357.908
  0
ARC
  8
APS_GEOMETRY
 10
584.675
 20
-717.358
 40
110.985
 50
357.908
 51
358.833
  0
ARC
  8
APS_GEOMETRY
 10
379.279
 20
-713.174
 40
316.424
 50
358.833
 51
359.381
  0
LINE
  8
APS_GEOMETRY
 10
710.466
 11
710.466
 20
-695.239
 21
-706.358
  0
ARC
  8
APS_GEOMETRY
 10
713.841
 20
-706.358
 40
3.374
 50
180.0
 51
199.885
  0
ARC
  8
APS_GEOMETRY
 10
711.316
 20
-707.271
 40
0.689
 50
199.885
 51
244.799
  0
ARC
  8
APS_GEOMETRY
 10
712.767
 20
-704.281
 40
4.013
 50
244.231
 51
258.996
  0
ARC
  8
APS_GEOMETRY
 10
713.377
 20
-701.144
 40
7.209
 50
258.996
 51
270.0
  0
ARC
  8
APS_GEOMETRY
 10
713.377
 20
-701.902
 40
6.45
 50
270.0
 51
288.435
  0
ARC
  8
APS_GEOMETRY
 10
713.84
 20
-703.291
 40
4.987
 50
288.435
 51
309.428
  0
ARC
  8
APS_GEOMETRY
 10
714.008
 20
-703.465
 40
4.745
 50
309.193
 51
339.939
  0
ARC
  8
APS_GEOMETRY
 10
708.139
 20
-701.322
 40
10.994
 50
339.939
 51
0.0
  0
ARC
  8
APS_GEOMETRY
 10
708.785
 20
-701.322
 40
10.348
 50
0.0
 51
22.011
  0
ARC
  8
APS_GEOMETRY
 10
713.37
 20
-699.468
 40
5.403
 50
22.011
 51
52.651
  0
ARC
  8
APS_GEOMETRY
 10
713.299
 20
-699.517
 40
5.485
 50
52.374
 51
72.309
  0
ARC
  8
APS_GEOMETRY
 10
712.854
 20
-700.913
 40
6.95
 50
72.309
 51
90.0
  0
ARC
  8
APS_GEOMETRY
 10
712.854
 20
-698.015
 40
4.052
 50
90.0
 51
118.113
  0
ARC
  8
APS_GEOMETRY
 10
711.37
 20
-695.239
 40
0.904
 50
118.113
 51
180.0
  0
ARC
  8
APS_GEOMETRY
 10
763.204
 20
-712.223
 40
25.782
 50
71.91
 51
90.0
  0
ARC
  8
APS_GEOMETRY
 10
764.203
 20
-709.166
 40
22.566
 50
52.561
 51
71.91
  0
ARC
  8
APS_GEOMETRY
 10
763.941
 20
-709.243
 40
22.786
 50
38.846
 51
52.156
  0
ARC
  8
APS_GEOMETRY
 10
760.369
 20
-712.119
 40
27.372
 50
26.707
 51
38.846
  0
ARC
  8
APS_GEOMETRY
 10
761.076
 20
-711.541
 40
26.482
 50
13.868
 51
26.278
  0
ARC
  8
APS_GEOMETRY
 10
766.176
 20
-710.282
 40
21.229
 50
360.0
 51
13.868
  0
ARC
  8
APS_GEOMETRY
 10
766.506
 20
-710.282
 40
20.899
 50
339.712
 51
360.0
  0
ARC
  8
APS_GEOMETRY
 10
765.329
 20
-709.847
 40
22.153
 50
320.013
 51
339.712
  0
ARC
  8
APS_GEOMETRY
 10
765.134
 20
-709.74
 40
22.372
 50
303.344
 51
320.123
  0
ARC
  8
APS_GEOMETRY
 10
762.839
 20
-706.251
 40
26.548
 50
287.949
 51
303.344
  0
ARC
  8
APS_GEOMETRY
 10
762.084
 20
-703.636
 40
29.269
 50
279.039
 51
287.776
  0
ARC
  8
APS_GEOMETRY
 10
762.386
 20
-705.535
 40
27.346
 50
270.0
 51
279.039
  0
ARC
  8
APS_GEOMETRY
 10
762.386
 20
-706.87
 40
26.011
 50
257.728
 51
270.0
  0
ARC
  8
APS_GEOMETRY
 10
762.427
 20
-706.681
 40
26.203
 50
245.501
 51
257.728
  0
ARC
  8
APS_GEOMETRY
 10
760.955
 20
-709.904
 40
22.66
 50
228.665
 51
245.511
  0
ARC
  8
APS_GEOMETRY
 10
760.465
 20
-710.461
 40
21.918
 50
211.535
 51
228.665
  0
ARC
  8
APS_GEOMETRY
 10
761.107
 20
-709.99
 40
22.712
 50
195.642
 51
211.701
  0
ARC
  8
APS_GEOMETRY
 10
762.281
 20
-709.661
 40
23.931
 50
180.0
 51
195.642
  0
ARC
  8
APS_GEOMETRY
 10
762.532
 20
-709.661
 40
24.183
 50
162.181
 51
180.0
  0
ARC
  8
APS_GEOMETRY
 10
760.326
 20
-708.952
 40
21.865
 50
143.434
 51
162.181
  0
ARC
  8
APS_GEOMETRY
 10
760.029
 20
-708.714
 40
21.485
 50
126.384
 51
143.471
  0
ARC
  8
APS_GEOMETRY
 10
762.063
 20
-711.475
 40
24.914
 50
110.525
 51
126.384
  0
ARC
  8
APS_GEOMETRY
 10
761.962
 20
-710.725
 40
24.177
 50
99.77
 51
110.925
  0
ARC
  8
APS_GEOMETRY
 10
763.204
 20
-717.937
 40
31.496
 50
90.0
 51
99.77
  0
ARC
  8
APS_GEOMETRY
 10
760.097
 20
-700.635
 40
4.807
 50
90.0
 51
119.604
  0
ARC
  8
APS_GEOMETRY
 10
760.518
 20
-701.376
 40
5.659
 50
119.604
 51
146.842
  0
ARC
  8
APS_GEOMETRY
 10
761.364
 20
-702.069
 40
6.748
 50
145.84
 51
164.055
  0
ARC
  8
APS_GEOMETRY
 10
763.326
 20
-702.63
 40
8.788
 50
164.055
 51
180.0
  0
ARC
  8
APS_GEOMETRY
 10
775.59
 20
-702.63
 40
21.053
 50
180.0
 51
189.977
  0
ARC
  8
APS_GEOMETRY
 10
794.242
 20
-699.349
 40
39.991
 50
189.977
 51
197.211
  0
ARC
  8
APS_GEOMETRY
 10
798.321
 20
-698.085
 40
44.261
 50
197.211
 51
203.76
  0
ARC
  8
APS_GEOMETRY
 10
788.159
 20
-702.559
 40
33.157
 50
203.76
 51
211.329
  0
ARC
  8
APS_GEOMETRY
 10
767.29
 20
-715.083
 40
8.821
 50
212.32
 51
224.441
  0
ARC
  8
APS_GEOMETRY
 10
766.435
 20
-715.922
 40
7.623
 50
224.441
 51
237.484
  0
ARC
  8
APS_GEOMETRY
 10
765.882
 20
-716.789
 40
6.595
 50
237.484
 51
252.416
  0
ARC
  8
APS_GEOMETRY
 10
765.33
 20
-718.532
 40
4.766
 50
252.416
 51
270.0
  0
ARC
  8
APS_GEOMETRY
 10
765.33
 20
-717.967
 40
5.331
 50
270.0
 51
294.953
  0
ARC
  8
APS_GEOMETRY
 10
765.479
 20
-718.288
 40
4.977
 50
294.953
 51
320.793
  0
ARC
  8
APS_GEOMETRY
 10
764.678
 20
-717.635
 40
6.011
 50
320.793
 51
342.777
  0
ARC
  8
APS_GEOMETRY
 10
761.111
 20
-716.529
 40
9.746
 50
342.777
 51
0.0
  0
ARC
  8
APS_GEOMETRY
 10
744.35
 20
-716.529
 40
26.507
 50
0.0
 51
8.499
  0
ARC
  8
APS_GEOMETRY
 10
732.682
 20
-718.272
 40
38.304
 50
8.499
 51
15.566
  0
ARC
  8
APS_GEOMETRY
 10
734.085
 20
-717.881
 40
36.848
 50
15.566
 51
22.909
  0
ARC
  8
APS_GEOMETRY
 10
746.149
 20
-712.783
 40
23.751
 50
22.909
 51
32.057
  0
ARC
  8
APS_GEOMETRY
 10
755.624
 20
-706.814
 40
12.552
 50
31.921
 51
42.51
  0
ARC
  8
APS_GEOMETRY
 10
758.227
 20
-704.429
 40
9.022
 50
42.51
 51
55.008
  0
ARC
  8
APS_GEOMETRY
 10
759.105
 20
-703.173
 40
7.489
 50
55.008
 51
69.88
  0
ARC
  8
APS_GEOMETRY
 10
759.893
 20
-701.022
 40
5.198
 50
69.88
 51
87.754
  0
ARC
  8
APS_GEOMETRY
 10
813.718
 20
-715.645
 40
2.42
 50
90.0
 51
115.837
  0
ARC
  8
APS_GEOMETRY
 10
813.122
 20
-714.415
 40
1.053
 50
115.837
 51
155.462
  0
ARC
  8
APS_GEOMETRY
 10
813.817
 20
-714.732
 40
1.817
 50
155.462
 51
168.366
  0
ARC
  8
APS_GEOMETRY
 10
820.163
 20
-716.039
 40
8.296
 50
168.366
 51
174.395
  0
ARC
  8
APS_GEOMETRY
 10
826.559
 20
-716.667
 40
14.722
 50
174.395
 51
177.813
  0
ARC
  8
APS_GEOMETRY
 10
847.787
 20
-717.477
 40
35.966
 50
177.813
 51
180.0
  0
ARC
  8
APS_GEOMETRY
 10
863.156
 20
-717.477
 40
51.335
 50
180.0
 51
184.62
  0
ARC
  8
APS_GEOMETRY
 10
828.736
 20
-720.259
 40
16.803
 50
184.62
 51
192.7
  0
ARC
  8
APS_GEOMETRY
 10
815.466
 20
-723.172
 40
3.218
 50
194.036
 51
205.821
  0
ARC
  8
APS_GEOMETRY
 10
814.06
 20
-723.852
 40
1.656
 50
205.821
 51
222.274
  0
ARC
  8
APS_GEOMETRY
 10
814.491
 20
-723.461
 40
2.238
 50
222.274
 51
234.605
  0
ARC
  8
APS_GEOMETRY
 10
819.351
 20
-716.62
 40
10.63
 50
234.605
 51
240.255
  0
ARC
  8
APS_GEOMETRY
 10
811.963
 20
-729.695
 40
4.389
 50
34.592
 51
61.189
  0
ARC
  8
APS_GEOMETRY
 10
813.413
 20
-728.694
 40
2.627
 50
360.0
 51
34.592
  0
ARC
  8
APS_GEOMETRY
 10
813.501
 20
-728.694
 40
2.539
 50
318.231
 51
360.0
  0
ARC
  8
APS_GEOMETRY
 10
811.802
 20
-727.178
 40
4.816
 50
288.227
 51
318.231
  0
ARC
  8
APS_GEOMETRY
 10
810.041
 20
-721.83
 40
10.446
 50
280.377
 51
288.227
  0
ARC
  8
APS_GEOMETRY
 10
806.971
 20
-705.066
 40
27.489
 50
275.541
 51
280.377
  0
ARC
  8
APS_GEOMETRY
 10
805.648
 20
-691.429
 40
41.19
 50
272.304
 51
275.541
  0
ARC
  8
APS_GEOMETRY
 10
804.038
 20
-651.393
 40
81.259
 50
270.0
 51
272.304
  0
ARC
  8
APS_GEOMETRY
 10
804.038
 20
-684.852
 40
47.8
 50
262.811
 51
270.0
  0
ARC
  8
APS_GEOMETRY
 10
799.749
 20
-718.858
 40
13.524
 50
249.274
 51
262.811
  0
ARC
  8
APS_GEOMETRY
 10
797.051
 20
-725.988
 40
5.901
 50
221.379
 51
249.274
  0
ARC
  8
APS_GEOMETRY
 10
794.684
 20
-728.073
 40
2.747
 50
180.0
 51
221.379
  0
ARC
  8
APS_GEOMETRY
 10
794.666
 20
-728.073
 40
2.728
 50
164.055
 51
180.0
  0
ARC
  8
APS_GEOMETRY
 10
793.528
 20
-727.748
 40
1.546
 50
142.815
 51
164.055
  0
ARC
  8
APS_GEOMETRY
 10
794.244
 20
-728.291
 40
2.444
 50
129.007
 51
142.815
  0
ARC
  8
APS_GEOMETRY
 10
803.036
 20
-739.145
 40
16.412
 50
123.69
 51
129.007
  0
ARC
  8
APS_GEOMETRY
 10
790.56
 20
-720.373
 40
6.128
 50
303.389
 51
319.022
  0
ARC
  8
APS_GEOMETRY
 10
792.218
 20
-721.813
 40
3.932
 50
319.022
 51
338.575
  0
ARC
  8
APS_GEOMETRY
 10
789.999
 20
-720.942
 40
6.316
 50
338.575
 51
351.049
  0
ARC
  8
APS_GEOMETRY
 10
763.193
 20
-716.72
 40
33.452
 50
351.049
 51
356.46
  0
ARC
  8
APS_GEOMETRY
 10
772.029
 20
-717.056
 40
24.613
 50
355.972
 51
358.68
  0
ARC
  8
APS_GEOMETRY
 10
481.838
 20
-710.37
 40
314.881
 50
358.68
 51
359.437
  0
LINE
  8
APS_GEOMETRY
 10
796.704
 11
796.734
 20
-713.463
 21
-708.551
  0
LINE
  8
APS_GEOMETRY
 10
796.734
 11
796.745
 20
-708.551
 21
-702.139
  0
ARC
  8
APS_GEOMETRY
 10
720.935
 20
-702.139
 40
75.809
 50
0.0
 51
1.717
  0
ARC
  8
APS_GEOMETRY
 10
761.504
 20
-700.923
 40
35.223
 50
1.717
 51
4.236
  0
ARC
  8
APS_GEOMETRY
 10
774.733
 20
-699.943
 40
21.957
 50
4.236
 51
8.269
  0
ARC
  8
APS_GEOMETRY
 10
789.957
 20
-697.731
 40
6.573
 50
8.269
 51
15.642
  0
ARC
  8
APS_GEOMETRY
 10
792.577
 20
-696.997
 40
3.853
 50
15.642
 51
39.417
  0
ARC
  8
APS_GEOMETRY
 10
792.636
 20
-696.949
 40
3.776
 50
39.417
 51
63.435
  0
ARC
  8
APS_GEOMETRY
 10
799.437
 20
-682.859
 40
11.869
 50
236.874
 51
244.486
  0
ARC
  8
APS_GEOMETRY
 10
794.378
 20
-690.613
 40
2.611
 50
220.601
 51
236.874
  0
ARC
  8
APS_GEOMETRY
 10
793.797
 20
-691.11
 40
1.847
 50
198.246
 51
220.601
  0
ARC
  8
APS_GEOMETRY
 10
794.665
 20
-690.824
 40
2.761
 50
180.0
 51
198.246
  0
ARC
  8
APS_GEOMETRY
 10
794.652
 20
-690.824
 40
2.748
 50
156.161
 51
180.0
  0
ARC
  8
APS_GEOMETRY
 10
795.035
 20
-690.993
 40
3.167
 50
133.977
 51
156.161
  0
ARC
  8
APS_GEOMETRY
 10
795.799
 20
-691.784
 40
4.266
 50
116.996
 51
133.977
  0
ARC
  8
APS_GEOMETRY
 10
797.316
 20
-694.762
 40
7.608
 50
104.3
 51
116.996
  0
ARC
  8
APS_GEOMETRY
 10
797.708
 20
-696.268
 40
9.164
 50
95.326
 51
104.349
  0
ARC
  8
APS_GEOMETRY
 10
799.296
 20
-713.302
 40
26.272
 50
90.0
 51
95.326
  0
ARC
  8
APS_GEOMETRY
 10
799.296
 20
-700.043
 40
13.013
 50
87.553
 51
90.0
  0
ARC
  8
APS_GEOMETRY
 10
796.527
 20
-764.831
 40
77.86
 50
86.553
 51
87.553
  0
ARC
  8
APS_GEOMETRY
 10
792.59
 20
-830.177
 40
143.325
 50
86.009
 51
86.553
  0
ARC
  8
APS_GEOMETRY
 10
777.282
 20
-1049.591
 40
363.271
 50
85.668
 51
86.009
  0
ARC
  8
APS_GEOMETRY
 10
805.931
 20
-672.28
 40
15.125
 50
265.426
 51
268.531
  0
ARC
  8
APS_GEOMETRY
 10
807.275
 20
-619.837
 40
67.586
 50
268.531
 51
270.0
  0
ARC
  8
APS_GEOMETRY
 10
807.275
 20
-635.912
 40
51.511
 50
270.0
 51
271.637
  0
ARC
  8
APS_GEOMETRY
 10
806.124
 20
-595.627
 40
91.812
 50
271.637
 51
272.862
  0
ARC
  8
APS_GEOMETRY
 10
804.803
 20
-569.198
 40
118.274
 50
272.862
 51
273.814
  0
ARC
  8
APS_GEOMETRY
 10
800.329
 20
-502.094
 40
185.527
 50
273.814
 51
274.574
  0
ARC
  8
APS_GEOMETRY
 10
828.391
 20
-867.085
 40
180.543
 50
93.72
 51
94.214
  0
ARC
  8
APS_GEOMETRY
 10
822.402
 20
-774.967
 40
88.23
 50
93.013
 51
93.72
  0
ARC
  8
APS_GEOMETRY
 10
820.76
 20
-743.771
 40
56.991
 50
91.918
 51
93.013
  0
ARC
  8
APS_GEOMETRY
 10
819.474
 20
-705.356
 40
18.554
 50
90.0
 51
91.918
  0
ARC
  8
APS_GEOMETRY
 10
819.474
 20
-710.91
 40
24.109
 50
73.82
 51
90.0
  0
ARC
  8
APS_GEOMETRY
 10
821.85
 20
-702.72
 40
15.581
 50
53.658
 51
73.82
  0
ARC
  8
APS_GEOMETRY
 10
825.23
 20
-698.101
 40
9.857
 50
26.03
 51
53.569
  0
ARC
  8
APS_GEOMETRY
 10
824.192
 20
-698.607
 40
11.012
 50
360.0
 51
26.03
  0
ARC
  8
APS_GEOMETRY
 10
823.761
 20
-698.607
 40
11.443
 50
345.282
 51
360.0
  0
ARC
  8
APS_GEOMETRY
 10
824.862
 20
-698.896
 40
10.305
 50
329.767
 51
345.282
  0
ARC
  8
APS_GEOMETRY
 10
825.485
 20
-699.26
 40
9.583
 50
313.168
 51
329.767
  0
ARC
  8
APS_GEOMETRY
 10
825.716
 20
-699.506
 40
9.246
 50
296.267
 51
313.168
  0
ARC
  8
APS_GEOMETRY
 10
830.979
 20
-710.14
 40
2.62
 50
116.565
 51
139.899
  0
ARC
  8
APS_GEOMETRY
 10
829.673
 20
-709.04
 40
0.911
 50
139.899
 51
180.0
  0
ARC
  8
APS_GEOMETRY
 10
829.774
 20
-709.04
 40
1.013
 50
180.0
 51
226.193
  0
ARC
  8
APS_GEOMETRY
 10
831.645
 20
-707.089
 40
3.715
 50
226.193
 51
249.829
  0
ARC
  8
APS_GEOMETRY
 10
826.284
 20
-721.85
 40
11.989
 50
53.249
 51
70.105
  0
ARC
  8
APS_GEOMETRY
 10
828.719
 20
-718.589
 40
7.919
 50
32.471
 51
53.249
  0
ARC
  8
APS_GEOMETRY
 10
827.584
 20
-719.311
 40
9.264
 50
23.305
 51
32.471
  0
ARC
  8
APS_GEOMETRY
 10
820.574
 20
-722.331
 40
16.897
 50
16.521
 51
23.305
  0
ARC
  8
APS_GEOMETRY
 10
815.109
 20
-723.952
 40
22.598
 50
11.429
 51
16.521
  0
ARC
  8
APS_GEOMETRY
 10
799.619
 20
-727.084
 40
38.401
 50
7.524
 51
11.429
  0
ARC
  8
APS_GEOMETRY
 10
850.947
 20
-720.248
 40
13.38
 50
187.765
 51
196.914
  0
ARC
  8
APS_GEOMETRY
 10
840.004
 20
-723.576
 40
1.942
 50
196.914
 51
221.082
  0
ARC
  8
APS_GEOMETRY
 10
840.045
 20
-723.539
 40
1.997
 50
221.082
 51
244.607
  0
ARC
  8
APS_GEOMETRY
 10
844.719
 20
-713.694
 40
12.896
 50
244.607
 51
253.811
  0
ARC
  8
APS_GEOMETRY
 10
840.61
 20
-727.704
 40
1.705
 50
51.45
 51
72.474
  0
ARC
  8
APS_GEOMETRY
 10
840.188
 20
-728.233
 40
2.382
 50
33.69
 51
51.45
  0
ARC
  8
APS_GEOMETRY
 10
840.089
 20
-728.299
 40
2.5
 50
16.639
 51
33.69
  0
ARC
  8
APS_GEOMETRY
 10
839.97
 20
-728.335
 40
2.625
 50
360.0
 51
16.639
  0
ARC
  8
APS_GEOMETRY
 10
839.933
 20
-728.335
 40
2.662
 50
338.993
 51
360.0
  0
ARC
  8
APS_GEOMETRY
 10
838.308
 20
-727.711
 40
4.402
 50
322.696
 51
338.993
  0
ARC
  8
APS_GEOMETRY
 10
837.703
 20
-727.249
 40
5.164
 50
308.603
 51
322.696
  0
ARC
  8
APS_GEOMETRY
 10
837.286
 20
-726.727
 40
5.831
 50
295.346
 51
308.603
  0
ARC
  8
APS_GEOMETRY
 10
835.095
 20
-721.901
 40
11.131
 50
279.583
 51
294.905
  0
ARC
  8
APS_GEOMETRY
 10
832.228
 20
-704.92
 40
28.353
 50
270.0
 51
279.583
  0
ARC
  8
APS_GEOMETRY
 10
832.228
 20
-712.601
 40
20.672
 50
261.247
 51
270.0
  0
ARC
  8
APS_GEOMETRY
 10
830.904
 20
-721.202
 40
11.97
 50
249.737
 51
261.247
  0
ARC
  8
APS_GEOMETRY
 10
830.033
 20
-723.559
 40
9.457
 50
235.345
 51
249.737
  0
ARC
  8
APS_GEOMETRY
 10
828.934
 20
-725.149
 40
7.524
 50
219.198
 51
235.345
  0
ARC
  8
APS_GEOMETRY
 10
831.247
 20
-723.177
 40
10.563
 50
209.076
 51
219.56
  0
ARC
  8
APS_GEOMETRY
 10
836.588
 20
-720.208
 40
16.674
 50
200.735
 51
209.076
  0
ARC
  8
APS_GEOMETRY
 10
843.958
 20
-717.418
 40
24.554
 50
197.881
 51
200.735
  0
ARC
  8
APS_GEOMETRY
 10
874.239
 20
-707.648
 40
56.372
 50
195.997
 51
197.881
  0
ARC
  8
APS_GEOMETRY
 10
896.621
 20
-701.231
 40
79.656
 50
194.664
 51
195.997
  0
ARC
  8
APS_GEOMETRY
 10
958.616
 20
-685.009
 40
143.738
 50
193.671
 51
194.664
  0
ARC
  8
APS_GEOMETRY
 10
801.406
 20
-723.229
 40
18.051
 50
13.61
 51
23.585
  0
ARC
  8
APS_GEOMETRY
 10
813.225
 20
-718.069
 40
5.155
 50
23.585
 51
42.31
  0
ARC
  8
APS_GEOMETRY
 10
814.297
 20
-717.093
 40
3.705
 50
42.31
 51
67.521
  0
ARC
  8
APS_GEOMETRY
 10
813.449
 20
-719.144
 40
5.924
 50
67.521
 51
87.397
  0
LINE
  8
APS_GEOMETRY
 10
811.854
 11
811.494
 20
-696.547
 21
-704.167
  0
LINE
  8
APS_GEOMETRY
 10
811.494
 11
811.494
 20
-704.167
 21
-704.289
  0
LINE
  8
APS_GEOMETRY
 10
811.494
 11
811.494
 20
-704.289
 21
-704.461
  0
ARC
  8
APS_GEOMETRY
 10
816.788
 20
-704.461
 40
5.294
 50
180.0
 51
192.339
  0
ARC
  8
APS_GEOMETRY
 10
812.579
 20
-705.382
 40
0.986
 50
192.339
 51
221.186
  0
ARC
  8
APS_GEOMETRY
 10
812.479
 20
-705.47
 40
0.852
 50
221.186
 51
253.872
  0
ARC
  8
APS_GEOMETRY
 10
813.195
 20
-702.994
 40
3.429
 50
253.872
 51
270.0
  0
ARC
  8
APS_GEOMETRY
 10
813.195
 20
-698.453
 40
7.971
 50
270.0
 51
289.569
  0
ARC
  8
APS_GEOMETRY
 10
814.644
 20
-702.529
 40
3.644
 50
289.569
 51
318.681
  0
ARC
  8
APS_GEOMETRY
 10
814.252
 20
-702.185
 40
4.166
 50
318.681
 51
344.628
  0
ARC
  8
APS_GEOMETRY
 10
806.949
 20
-700.177
 40
11.74
 50
344.628
 51
0.0
  0
ARC
  8
APS_GEOMETRY
 10
810.421
 20
-700.177
 40
8.268
 50
0.0
 51
35.369
  0
ARC
  8
APS_GEOMETRY
 10
814.208
 20
-697.488
 40
3.623
 50
35.369
 51
90.0
  0
ARC
  8
APS_GEOMETRY
 10
814.208
 20
-697.528
 40
3.663
 50
90.0
 51
108.435
  0
ARC
  8
APS_GEOMETRY
 10
813.496
 20
-695.39
 40
1.409
 50
108.435
 51
138.366
  0
ARC
  8
APS_GEOMETRY
 10
813.687
 20
-695.56
 40
1.665
 50
138.366
 51
164.291
  0
ARC
  8
APS_GEOMETRY
 10
818.172
 20
-696.822
 40
6.324
 50
164.291
 51
177.51
  0
LINE
  8
APS_GEOMETRY
 10
862.368
 11
879.602
 20
-687.357
 21
-687.357
  0
ARC
  8
APS_GEOMETRY
 10
878.731
 20
-662.662
 40
24.711
 50
272.021
 51
278.44
  0
ARC
  8
APS_GEOMETRY
 10
879.703
 20
-669.217
 40
18.083
 50
278.44
 51
285.945
  0
ARC
  8
APS_GEOMETRY
 10
887.021
 20
-695.415
 40
9.118
 50
98.584
 51
104.931
  0
ARC
  8
APS_GEOMETRY
 10
886.405
 20
-691.334
 40
4.991
 50
90.0
 51
98.584
  0
ARC
  8
APS_GEOMETRY
 10
886.405
 20
-690.095
 40
3.752
 50
52.871
 51
90.0
  0
ARC
  8
APS_GEOMETRY
 10
881.316
 20
-696.816
 40
12.182
 50
32.518
 51
52.871
  0
ARC
  8
APS_GEOMETRY
 10
877.285
 20
-699.386
 40
16.963
 50
17.209
 51
32.518
  0
ARC
  8
APS_GEOMETRY
 10
880.645
 20
-698.346
 40
13.445
 50
360.0
 51
17.209
  0
ARC
  8
APS_GEOMETRY
 10
887.372
 20
-698.346
 40
6.717
 50
337.348
 51
360.0
  0
ARC
  8
APS_GEOMETRY
 10
890.072
 20
-699.472
 40
3.792
 50
307.042
 51
337.348
  0
ARC
  8
APS_GEOMETRY
 10
889.603
 20
-698.828
 40
4.589
 50
287.186
 51
306.87
  0
ARC
  8
APS_GEOMETRY
 10
889.184
 20
-697.474
 40
6.006
 50
270.0
 51
287.186
  0
ARC
  8
APS_GEOMETRY
 10
889.184
 20
-698.087
 40
5.393
 50
252.221
 51
270.0
  0
ARC
  8
APS_GEOMETRY
 10
888.933
 20
-698.87
 40
4.571
 50
232.896
 51
252.221
  0
ARC
  8
APS_GEOMETRY
 10
889.904
 20
-697.587
 40
6.18
 50
218.3
 51
232.896
  0
ARC
  8
APS_GEOMETRY
 10
897.484
 20
-691.6
 40
15.839
 50
209.197
 51
218.3
  0
ARC
  8
APS_GEOMETRY
 10
858.93
 20
-712.488
 40
28.012
 50
28.025
 51
32.699
  0
ARC
  8
APS_GEOMETRY
 10
879.086
 20
-699.548
 40
4.06
 50
32.699
 51
45.0
  0
ARC
  8
APS_GEOMETRY
 10
880.461
 20
-698.174
 40
2.116
 50
45.0
 51
67.557
  0
ARC
  8
APS_GEOMETRY
 10
880.453
 20
-698.194
 40
2.137
 50
67.557
 51
90.0
  0
ARC
  8
APS_GEOMETRY
 10
880.453
 20
-698.025
 40
1.969
 50
90.0
 51
120.801
  0
ARC
  8
APS_GEOMETRY
 10
880.386
 20
-697.914
 40
1.839
 50
120.801
 51
152.7
  0
ARC
  8
APS_GEOMETRY
 10
881.845
 20
-698.667
 40
3.481
 50
152.7
 51
171.085
  0
ARC
  8
APS_GEOMETRY
 10
892.934
 20
-700.406
 40
14.705
 50
171.085
 51
180.0
  0
LINE
  8
APS_GEOMETRY
 10
878.229
 11
878.229
 20
-700.406
 21
-718.72
  0
ARC
  8
APS_GEOMETRY
 10
897.656
 20
-718.72
 40
19.427
 50
180.0
 51
188.194
  0
ARC
  8
APS_GEOMETRY
 10
883.148
 20
-720.809
 40
4.77
 50
188.194
 51
204.775
  0
ARC
  8
APS_GEOMETRY
 10
881.739
 20
-721.46
 40
3.218
 50
204.775
 51
228.576
  0
ARC
  8
APS_GEOMETRY
 10
883.061
 20
-719.961
 40
5.216
 50
228.576
 51
247.218
  0
ARC
  8
APS_GEOMETRY
 10
875.392
 20
-738.033
 40
14.416
 50
59.381
 51
66.93
  0
ARC
  8
APS_GEOMETRY
 10
881.053
 20
-728.468
 40
3.301
 50
43.568
 51
59.381
  0
ARC
  8
APS_GEOMETRY
 10
881.959
 20
-727.606
 40
2.051
 50
19.041
 51
43.568
  0
ARC
  8
APS_GEOMETRY
 10
880.701
 20
-728.04
 40
3.382
 50
360.0
 51
19.041
  0
ARC
  8
APS_GEOMETRY
 10
881.335
 20
-728.04
 40
2.747
 50
317.66
 51
360.0
  0
ARC
  8
APS_GEOMETRY
 10
878.813
 20
-725.742
 40
6.16
 50
289.747
 51
317.66
  0
ARC
  8
APS_GEOMETRY
 10
876.7
 20
-719.857
 40
12.412
 50
281.964
 51
289.747
  0
ARC
  8
APS_GEOMETRY
 10
873.774
 20
-706.045
 40
26.531
 50
276.643
 51
281.964
  0
ARC
  8
APS_GEOMETRY
 10
872.542
 20
-695.47
 40
37.178
 50
272.836
 51
276.643
  0
ARC
  8
APS_GEOMETRY
 10
871.067
 20
-665.694
 40
66.99
 50
270.0
 51
272.836
  0
ARC
  8
APS_GEOMETRY
 10
871.067
 20
-647.244
 40
85.44
 50
267.283
 51
270.0
  0
ARC
  8
APS_GEOMETRY
 10
869.273
 20
-685.047
 40
47.595
 50
263.643
 51
267.283
  0
ARC
  8
APS_GEOMETRY
 10
867.771
 20
-698.531
 40
34.027
 50
258.563
 51
263.643
  0
ARC
  8
APS_GEOMETRY
 10
864.182
 20
-716.27
 40
15.929
 50
251.136
 51
258.563
  0
ARC
  8
APS_GEOMETRY
 10
860.978
 20
-725.563
 40
6.099
 50
222.558
 51
251.395
  0
ARC
  8
APS_GEOMETRY
 10
858.6
 20
-727.746
 40
2.871
 50
180.0
 51
222.558
  0
ARC
  8
APS_GEOMETRY
 10
858.12
 20
-727.746
 40
2.392
 50
150.642
 51
180.0
  0
ARC
  8
APS_GEOMETRY
 10
858.312
 20
-727.854
 40
2.612
 50
122.574
 51
150.642
  0
ARC
  8
APS_GEOMETRY
 10
857.805
 20
-727.271
 40
1.851
 50
108.677
 51
119.055
  0
ARC
  8
APS_GEOMETRY
 10
880.921
 20
-795.655
 40
74.036
 50
107.038
 51
108.677
  0
ARC
  8
APS_GEOMETRY
 10
858.366
 20
-721.892
 40
3.099
 50
286.144
 51
308.66
  0
ARC
  8
APS_GEOMETRY
 10
858.874
 20
-722.526
 40
2.287
 50
308.66
 51
334.933
  0
ARC
  8
APS_GEOMETRY
 10
856.809
 20
-721.56
 40
4.566
 50
334.933
 51
348.829
  0
ARC
  8
APS_GEOMETRY
 10
830.983
 20
-716.46
 40
30.891
 50
348.829
 51
354.161
  0
ARC
  8
APS_GEOMETRY
 10
813.527
 20
-714.661
 40
48.439
 50
354.144
 51
355.66
  0
ARC
  8
APS_GEOMETRY
 10
736.151
 20
-708.789
 40
126.038
 50
355.66
 51
356.6
  0
ARC
  8
APS_GEOMETRY
 10
677.002
 20
-705.275
 40
185.291
 50
356.6
 51
357.24
  0
ARC
  8
APS_GEOMETRY
 10
509.177
 20
-697.184
 40
353.311
 50
357.24
 51
357.703
  0
ARC
  8
APS_GEOMETRY
 10
525.697
 20
-697.846
 40
336.777
 50
357.703
 51
358.674
  0
ARC
  8
APS_GEOMETRY
 10
681.529
 20
-701.452
 40
180.903
 50
358.674
 51
0.0
  0
ARC
  8
APS_GEOMETRY
 10
835.623
 20
-701.452
 40
26.81
 50
0.0
 51
6.242
  0
ARC
  8
APS_GEOMETRY
 10
856.942
 20
-699.121
 40
5.364
 50
6.242
 51
20.225
  0
ARC
  8
APS_GEOMETRY
 10
859.897
 20
-698.032
 40
2.215
 50
20.225
 51
50.44
  0
ARC
  8
APS_GEOMETRY
 10
860.471
 20
-697.337
 40
1.314
 50
50.44
 51
90.0
  0
ARC
  8
APS_GEOMETRY
 10
860.471
 20
-697.786
 40
1.762
 50
90.0
 51
126.747
  0
ARC
  8
APS_GEOMETRY
 10
862.961
 20
-701.121
 40
5.924
 50
126.747
 51
146.547
  0
ARC
  8
APS_GEOMETRY
 10
818.973
 20
-672.208
 40
46.715
 50
324.255
 51
326.701
  0
ARC
  8
APS_GEOMETRY
 10
837.596
 20
-685.612
 40
23.77
 50
320.826
 51
324.255
  0
ARC
  8
APS_GEOMETRY
 10
843.683
 20
-690.571
 40
15.918
 50
315.722
 51
320.826
  0
ARC
  8
APS_GEOMETRY
 10
850.677
 20
-697.392
 40
6.149
 50
307.504
 51
315.722
  0
ARC
  8
APS_GEOMETRY
 10
850.031
 20
-696.53
 40
7.226
 50
291.306
 51
307.405
  0
ARC
  8
APS_GEOMETRY
 10
851.15
 20
-699.399
 40
4.146
 50
270.0
 51
291.306
  0
ARC
  8
APS_GEOMETRY
 10
851.15
 20
-699.667
 40
3.879
 50
245.532
 51
270.0
  0
ARC
  8
APS_GEOMETRY
 10
851.121
 20
-699.731
 40
3.808
 50
220.833
 51
245.532
  0
ARC
  8
APS_GEOMETRY
 10
851.514
 20
-699.391
 40
4.328
 50
198.684
 51
220.833
  0
ARC
  8
APS_GEOMETRY
 10
853.155
 20
-698.836
 40
6.06
 50
180.0
 51
198.684
  0
ARC
  8
APS_GEOMETRY
 10
857.003
 20
-698.836
 40
9.908
 50
168.408
 51
180.0
  0
ARC
  8
APS_GEOMETRY
 10
863.355
 20
-700.139
 40
16.393
 50
159.402
 51
168.408
  0
ARC
  8
APS_GEOMETRY
 10
865.319
 20
-700.877
 40
18.49
 50
151.39
 51
159.402
  0
ARC
  8
APS_GEOMETRY
 10
864.916
 20
-700.658
 40
18.032
 50
143.276
 51
151.39
  0
ARC
  8
APS_GEOMETRY
 10
859.867
 20
-696.882
 40
11.726
 50
124.216
 51
143.31
  0
ARC
  8
APS_GEOMETRY
 10
855.369
 20
-690.267
 40
3.728
 50
90.0
 51
124.216
  0
ARC
  8
APS_GEOMETRY
 10
855.369
 20
-691.924
 40
5.384
 50
82.725
 51
90.0
  0
ARC
  8
APS_GEOMETRY
 10
854.948
 20
-695.22
 40
8.707
 50
77.005
 51
82.725
  0
ARC
  8
APS_GEOMETRY
 10
867.797
 20
-633.273
 40
54.561
 50
258.486
 51
260.378
  0
ARC
  8
APS_GEOMETRY
 10
862.293
 20
-665.738
 40
21.633
 50
260.378
 51
263.382
  0
ARC
  8
APS_GEOMETRY
 10
861.822
 20
-669.795
 40
17.548
 50
263.382
 51
267.084
  0
ARC
  8
APS_GEOMETRY
 10
862.368
 20
-659.084
 40
28.273
 50
267.084
 51
270.0
  0
LINE
  8
APS_GEOMETRY
 10
905.785
 11
922.594
 20
-687.357
 21
-687.357
  0
ARC
  8
APS_GEOMETRY
 10
922.594
 20
-475.638
 40
211.72
 50
270.0
 51
270.69
  0
ARC
  8
APS_GEOMETRY
 10
923.788
 20
-574.694
 40
112.656
 50
270.69
 51
271.637
  0
ARC
  8
APS_GEOMETRY
 10
924.793
 20
-609.888
 40
77.448
 50
271.637
 51
273.013
  0
ARC
  8
APS_GEOMETRY
 10
927.244
 20
-656.45
 40
30.821
 50
273.013
 51
275.194
  0
ARC
  8
APS_GEOMETRY
 10
927.851
 20
-663.132
 40
24.112
 50
275.194
 51
280.756
  0
ARC
  8
APS_GEOMETRY
 10
927.966
 20
-663.733
 40
23.5
 50
280.756
 51
286.39
  0
ARC
  8
APS_GEOMETRY
 10
936.579
 20
-693.218
 40
7.217
 50
100.305
 51
105.945
  0
ARC
  8
APS_GEOMETRY
 10
935.676
 20
-688.248
 40
2.166
 50
90.0
 51
100.305
  0
ARC
  8
APS_GEOMETRY
 10
935.676
 20
-689.022
 40
2.94
 50
58.946
 51
90.0
  0
ARC
  8
APS_GEOMETRY
 10
934.551
 20
-690.889
 40
5.119
 50
35.538
 51
58.946
  0
ARC
  8
APS_GEOMETRY
 10
930.163
 20
-694.118
 40
10.568
 50
16.699
 51
35.952
  0
ARC
  8
APS_GEOMETRY
 10
926.861
 20
-695.108
 40
14.014
 50
360.0
 51
16.699
  0
ARC
  8
APS_GEOMETRY
 10
933.012
 20
-695.108
 40
7.864
 50
344.982
 51
360.0
  0
ARC
  8
APS_GEOMETRY
 10
936.786
 20
-696.121
 40
3.956
 50
323.746
 51
344.982
  0
ARC
  8
APS_GEOMETRY
 10
937.625
 20
-696.736
 40
2.916
 50
296.114
 51
323.746
  0
ARC
  8
APS_GEOMETRY
 10
937.474
 20
-696.429
 40
3.258
 50
270.0
 51
296.114
  0
ARC
  8
APS_GEOMETRY
 10
937.474
 20
-695.602
 40
4.084
 50
255.311
 51
270.0
  0
ARC
  8
APS_GEOMETRY
 10
936.928
 20
-697.685
 40
1.931
 50
233.881
 51
255.311
  0
ARC
  8
APS_GEOMETRY
 10
937.503
 20
-696.898
 40
2.906
 50
219.289
 51
233.881
  0
ARC
  8
APS_GEOMETRY
 10
949.033
 20
-687.464
 40
17.803
 50
213.408
 51
219.289
  0
ARC
  8
APS_GEOMETRY
 10
927.432
 20
-701.692
 40
8.063
 50
33.294
 51
51.246
  0
ARC
  8
APS_GEOMETRY
 10
928.53
 20
-700.324
 40
6.309
 50
51.246
 51
71.565
  0
ARC
  8
APS_GEOMETRY
 10
927.804
 20
-702.502
 40
8.604
 50
71.565
 51
79.278
  0
ARC
  8
APS_GEOMETRY
 10
925.476
 20
-714.797
 40
21.118
 50
79.278
 51
84.2
  0
ARC
  8
APS_GEOMETRY
 10
924.483
 20
-724.576
 40
30.947
 50
84.2
 51
87.567
  0
ARC
  8
APS_GEOMETRY
 10
923.281
 20
-752.854
 40
59.251
 50
87.567
 51
90.0
  0
ARC
  8
APS_GEOMETRY
 10
923.281
 20
-710.259
 40
16.656
 50
90.0
 51
96.374
  0
ARC
  8
APS_GEOMETRY
 10
922.175
 20
-700.363
 40
6.698
 50
96.374
 51
106.434
  0
ARC
  8
APS_GEOMETRY
 10
921.39
 20
-697.7
 40
3.921
 50
106.434
 51
123.056
  0
ARC
  8
APS_GEOMETRY
 10
920.163
 20
-695.815
 40
1.673
 50
123.056
 51
148.627
  0
ARC
  8
APS_GEOMETRY
 10
921.284
 20
-696.45
 40
2.96
 50
149.421
 51
165.28
  0
ARC
  8
APS_GEOMETRY
 10
924.512
 20
-697.299
 40
6.298
 50
165.28
 51
176.135
  0
ARC
  8
APS_GEOMETRY
 10
933.755
 20
-697.923
 40
15.562
 50
176.135
 51
178.367
  0
ARC
  8
APS_GEOMETRY
 10
1019.261
 20
-700.361
 40
101.103
 50
178.367
 51
179.242
  0
ARC
  8
APS_GEOMETRY
 10
1107.629
 20
-701.53
 40
189.479
 50
179.242
 51
179.709
  0
ARC
  8
APS_GEOMETRY
 10
1408.278
 20
-703.055
 40
490.132
 50
179.709
 51
180.0
  0
ARC
  8
APS_GEOMETRY
 10
925.238
 20
-703.055
 40
7.091
 50
180.0
 51
195.027
  0
ARC
  8
APS_GEOMETRY
 10
919.438
 20
-704.612
 40
1.086
 50
195.027
 51
234.058
  0
ARC
  8
APS_GEOMETRY
 10
919.495
 20
-704.534
 40
1.183
 50
234.058
 51
253.191
  0
ARC
  8
APS_GEOMETRY
 10
920.732
 20
-700.438
 40
5.461
 50
253.191
 51
262.063
  0
ARC
  8
APS_GEOMETRY
 10
921.366
 20
-695.893
 40
10.05
 50
262.063
 51
266.949
  0
ARC
  8
APS_GEOMETRY
 10
922.202
 20
-680.211
 40
25.755
 50
266.949
 51
270.0
  0
ARC
  8
APS_GEOMETRY
 10
922.202
 20
-701.244
 40
4.722
 50
270.0
 51
286.007
  0
ARC
  8
APS_GEOMETRY
 10
923.028
 20
-704.125
 40
1.725
 50
286.007
 51
312.647
  0
ARC
  8
APS_GEOMETRY
 10
923.011
 20
-704.106
 40
1.75
 50
312.647
 51
338.993
  0
ARC
  8
APS_GEOMETRY
 10
919.436
 20
-702.733
 40
5.58
 50
338.993
 51
353.66
  0
ARC
  8
APS_GEOMETRY
 10
956.355
 20
-707.136
 40
31.601
 50
169.663
 51
173.118
  0
ARC
  8
APS_GEOMETRY
 10
929.966
 20
-702.323
 40
4.776
 50
160.769
 51
169.663
  0
ARC
  8
APS_GEOMETRY
 10
927.758
 20
-701.553
 40
2.439
 50
143.746
 51
160.769
  0
ARC
  8
APS_GEOMETRY
 10
928.292
 20
-701.944
 40
3.1
 50
128.66
 51
143.746
  0
ARC
  8
APS_GEOMETRY
 10
927.936
 20
-701.367
 40
2.429
 50
110.171
 51
130.601
  0
ARC
  8
APS_GEOMETRY
 10
927.958
 20
-701.426
 40
2.492
 50
90.0
 51
110.171
  0
ARC
  8
APS_GEOMETRY
 10
927.958
 20
-701.461
 40
2.527
 50
61.22
 51
90.0
  0
ARC
  8
APS_GEOMETRY
 10
927.517
 20
-702.264
 40
3.443
 50
36.634
 51
61.22
  0
ARC
  8
APS_GEOMETRY
 10
927.103
 20
-702.51
 40
3.923
 50
19.103
 51
35.91
  0
ARC
  8
APS_GEOMETRY
 10
914.307
 20
-706.942
 40
17.463
 50
11.16
 51
19.103
  0
ARC
  8
APS_GEOMETRY
 10
907.622
 20
-708.261
 40
24.277
 50
5.396
 51
11.16
  0
ARC
  8
APS_GEOMETRY
 10
904.223
 20
-708.582
 40
27.692
 50
0.0
 51
5.396
  0
ARC
  8
APS_GEOMETRY
 10
904.704
 20
-708.582
 40
27.21
 50
349.287
 51
0.0
  0
ARC
  8
APS_GEOMETRY
 10
918.062
 20
-711.109
 40
13.615
 50
334.12
 51
349.287
  0
ARC
  8
APS_GEOMETRY
 10
927.264
 20
-715.556
 40
3.396
 50
303.53
 51
333.853
  0
ARC
  8
APS_GEOMETRY
 10
927.598
 20
-716.059
 40
2.791
 50
270.0
 51
303.53
  0
ARC
  8
APS_GEOMETRY
 10
927.598
 20
-715.929
 40
2.922
 50
249.578
 51
270.0
  0
ARC
  8
APS_GEOMETRY
 10
926.976
 20
-717.598
 40
1.14
 50
216.607
 51
249.578
  0
ARC
  8
APS_GEOMETRY
 10
927.571
 20
-717.157
 40
1.881
 50
195.422
 51
216.607
  0
ARC
  8
APS_GEOMETRY
 10
937.833
 20
-714.326
 40
12.526
 50
187.253
 51
195.422
  0
ARC
  8
APS_GEOMETRY
 10
921.26
 20
-716.458
 40
4.183
 50
7.561
 51
49.434
  0
ARC
  8
APS_GEOMETRY
 10
921.09
 20
-716.657
 40
4.445
 50
49.434
 51
90.0
  0
ARC
  8
APS_GEOMETRY
 10
921.09
 20
-715.203
 40
2.991
 50
90.0
 51
115.224
  0
ARC
  8
APS_GEOMETRY
 10
920.498
 20
-713.947
 40
1.603
 50
115.224
 51
149.931
  0
ARC
  8
APS_GEOMETRY
 10
921.568
 20
-714.566
 40
2.838
 50
149.931
 51
171.111
  0
ARC
  8
APS_GEOMETRY
 10
934.535
 20
-716.594
 40
15.963
 50
171.111
 51
180.0
  0
ARC
  8
APS_GEOMETRY
 10
947.311
 20
-716.594
 40
28.739
 50
180.0
 51
183.062
  0
ARC
  8
APS_GEOMETRY
 10
991.298
 20
-714.241
 40
72.789
 50
183.062
 51
184.986
  0
ARC
  8
APS_GEOMETRY
 10
968.226
 20
-716.254
 40
49.629
 50
184.986
 51
187.804
  0
ARC
  8
APS_GEOMETRY
 10
924.525
 20
-722.243
 40
5.52
 50
187.804
 51
196.26
  0
ARC
  8
APS_GEOMETRY
 10
920.671
 20
-723.404
 40
1.496
 50
194.931
 51
230.024
  0
ARC
  8
APS_GEOMETRY
 10
921.652
 20
-722.234
 40
3.022
 50
230.024
 51
254.511
  0
ARC
  8
APS_GEOMETRY
 10
922.843
 20
-717.933
 40
7.485
 50
254.511
 51
265.219
  0
ARC
  8
APS_GEOMETRY
 10
925.341
 20
-688.066
 40
37.456
 50
265.219
 51
270.0
  0
ARC
  8
APS_GEOMETRY
 10
925.341
 20
-692.026
 40
33.497
 50
270.0
 51
274.186
  0
ARC
  8
APS_GEOMETRY
 10
926.36
 20
-705.942
 40
19.543
 50
274.186
 51
279.668
  0
ARC
  8
APS_GEOMETRY
 10
927.196
 20
-710.85
 40
14.564
 50
279.668
 51
286.991
  0
ARC
  8
APS_GEOMETRY
 10
929.109
 20
-717.11
 40
8.018
 50
286.991
 51
296.866
  0
ARC
  8
APS_GEOMETRY
 10
929.506
 20
-717.895
 40
7.139
 50
296.866
 51
318.366
  0
ARC
  8
APS_GEOMETRY
 10
925.507
 20
-714.34
 40
12.489
 50
318.366
 51
334.581
  0
ARC
  8
APS_GEOMETRY
 10
951.837
 20
-726.966
 40
16.711
 50
147.08
 51
154.231
  0
ARC
  8
APS_GEOMETRY
 10
940.83
 20
-719.84
 40
3.599
 50
131.634
 51
147.08
  0
ARC
  8
APS_GEOMETRY
 10
940.01
 20
-718.917
 40
2.364
 50
108.875
 51
131.634
  0
ARC
  8
APS_GEOMETRY
 10
940.352
 20
-719.919
 40
3.423
 50
90.0
 51
108.875
  0
ARC
  8
APS_GEOMETRY
 10
940.352
 20
-719.224
 40
2.727
 50
62.628
 51
90.0
  0
ARC
  8
APS_GEOMETRY
 10
940.18
 20
-719.557
 40
3.103
 50
36.995
 51
62.628
  0
ARC
  8
APS_GEOMETRY
 10
939.406
 20
-720.14
 40
4.071
 50
16.728
 51
36.995
  0
ARC
  8
APS_GEOMETRY
 10
937.601
 20
-720.682
 40
5.956
 50
360.0
 51
16.728
  0
ARC
  8
APS_GEOMETRY
 10
934.025
 20
-720.682
 40
9.532
 50
348.323
 51
360.0
  0
ARC
  8
APS_GEOMETRY
 10
919.716
 20
-717.725
 40
24.143
 50
340.994
 51
348.323
  0
ARC
  8
APS_GEOMETRY
 10
916.322
 20
-716.556
 40
27.733
 50
334.592
 51
340.994
  0
ARC
  8
APS_GEOMETRY
 10
922.246
 20
-719.37
 40
21.175
 50
327.265
 51
334.592
  0
ARC
  8
APS_GEOMETRY
 10
929.126
 20
-723.425
 40
13.198
 50
320.133
 51
325.923
  0
ARC
  8
APS_GEOMETRY
 10
937.129
 20
-730.109
 40
2.771
 50
307.476
 51
320.133
  0
ARC
  8
APS_GEOMETRY
 10
937.83
 20
-731.023
 40
1.619
 50
286.429
 51
307.476
  0
ARC
  8
APS_GEOMETRY
 10
937.54
 20
-730.039
 40
2.646
 50
270.0
 51
286.429
  0
ARC
  8
APS_GEOMETRY
 10
937.54
 20
-726.98
 40
5.704
 50
263.774
 51
270.0
  0
ARC
  8
APS_GEOMETRY
 10
939.209
 20
-711.683
 40
21.092
 50
260.538
 51
263.774
  0
ARC
  8
APS_GEOMETRY
 10
931.74
 20
-753.829
 40
21.713
 50
79.38
 51
84.987
  0
ARC
  8
APS_GEOMETRY
 10
928.502
 20
-790.74
 40
58.766
 50
84.987
 51
88.394
  0
LINE
  8
APS_GEOMETRY
 10
930.149
 11
902.416
 20
-731.998
 21
-731.998
  0
ARC
  8
APS_GEOMETRY
 10
902.416
 20
-726.194
 40
5.804
 50
254.103
 51
270.0
  0
ARC
  8
APS_GEOMETRY
 10
901.599
 20
-729.064
 40
2.82
 50
231.216
 51
254.103
  0
ARC
  8
APS_GEOMETRY
 10
901.263
 20
-729.481
 40
2.284
 50
203.795
 51
231.216
  0
ARC
  8
APS_GEOMETRY
 10
901.935
 20
-729.185
 40
3.019
 50
180.0
 51
203.795
  0
ARC
  8
APS_GEOMETRY
 10
902.19
 20
-729.185
 40
3.273
 50
164.055
 51
180.0
  0
ARC
  8
APS_GEOMETRY
 10
900.173
 20
-728.609
 40
1.175
 50
137.291
 51
164.055
  0
ARC
  8
APS_GEOMETRY
 10
900.78
 20
-729.169
 40
2.001
 50
120.964
 51
137.291
  0
ARC
  8
APS_GEOMETRY
 10
907.281
 20
-740.003
 40
14.637
 50
114.944
 51
120.964
  0
ARC
  8
APS_GEOMETRY
 10
899.166
 20
-722.249
 40
4.886
 50
293.429
 51
305.72
  0
ARC
  8
APS_GEOMETRY
 10
900.509
 20
-724.118
 40
2.584
 50
305.72
 51
322.651
  0
ARC
  8
APS_GEOMETRY
 10
900.301
 20
-723.959
 40
2.846
 50
322.651
 51
338.11
  0
ARC
  8
APS_GEOMETRY
 10
896.243
 20
-722.329
 40
7.219
 50
338.11
 51
347.8
  0
ARC
  8
APS_GEOMETRY
 10
871.043
 20
-716.805
 40
33.018
 50
347.672
 51
352.051
  0
ARC
  8
APS_GEOMETRY
 10
846.65
 20
-713.399
 40
57.647
 50
352.051
 51
355.365
  0
ARC
  8
APS_GEOMETRY
 10
830.223
 20
-712.067
 40
74.128
 50
355.365
 51
357.943
  0
ARC
  8
APS_GEOMETRY
 10
787.813
 20
-710.544
 40
116.566
 50
357.943
 51
0.0
  0
ARC
  8
APS_GEOMETRY
 10
738.861
 20
-710.544
 40
165.518
 50
0.0
 51
2.183
  0
ARC
  8
APS_GEOMETRY
 10
837.836
 20
-706.771
 40
66.471
 50
2.183
 51
5.629
  0
ARC
  8
APS_GEOMETRY
 10
867.32
 20
-703.865
 40
36.844
 50
5.629
 51
11.805
  0
ARC
  8
APS_GEOMETRY
 10
895.936
 20
-697.884
 40
7.61
 50
11.805
 51
25.419
  0
ARC
  8
APS_GEOMETRY
 10
899.639
 20
-696.202
 40
3.544
 50
26.565
 51
38.157
  0
ARC
  8
APS_GEOMETRY
 10
901.284
 20
-694.91
 40
1.452
 50
38.157
 51
56.31
  0
ARC
  8
APS_GEOMETRY
 10
900.936
 20
-695.432
 40
2.079
 50
56.31
 51
69.193
  0
ARC
  8
APS_GEOMETRY
 10
896.056
 20
-708.273
 40
15.817
 50
69.193
 51
73.856
  0
ARC
  8
APS_GEOMETRY
 10
901.204
 20
-690.566
 40
2.623
 50
216.87
 51
253.393
  0
ARC
  8
APS_GEOMETRY
 10
901.166
 20
-690.595
 40
2.576
 50
180.0
 51
216.87
  0
ARC
  8
APS_GEOMETRY
 10
901.728
 20
-690.595
 40
3.138
 50
161.565
 51
180.0
  0
ARC
  8
APS_GEOMETRY
 10
901.614
 20
-690.557
 40
3.018
 50
142.765
 51
161.565
  0
ARC
  8
APS_GEOMETRY
 10
901.542
 20
-690.502
 40
2.928
 50
123.425
 51
142.765
  0
ARC
  8
APS_GEOMETRY
 10
901.608
 20
-690.602
 40
3.047
 50
104.47
 51
123.425
  0
ARC
  8
APS_GEOMETRY
 10
902.188
 20
-693.464
 40
5.965
 50
96.724
 51
102.995
  0
ARC
  8
APS_GEOMETRY
 10
903.989
 20
-708.739
 40
21.346
 50
93.411
 51
96.724
  0
ARC
  8
APS_GEOMETRY
 10
904.789
 20
-722.16
 40
34.791
 50
91.375
 51
93.411
  0
ARC
  8
APS_GEOMETRY
 10
905.785
 20
-763.66
 40
76.303
 50
90.0
 51
91.375
  0
LINE
  8
COSTRUZIONI
 10
803.0
 11
0.0
 20
2040.0
 21
2040.0
  0
LINE
  8
COSTRUZIONI
 10
0.0
 11
0.0
 20
2040.0
 21
0.0
  0
LINE
  8
COSTRUZIONI
 10
0.0
 11
803.0
 20
0.0
 21
0.0
  0
LINE
  8
COSTRUZIONI
 10
803.0
 11
803.0
 20
0.0
 21
2040.0
  0
LINE
  8
COSTRUZIONI
 10
84.5
 11
718.5
 20
1940.0
 21
1940.0
  0
LINE
  8
COSTRUZIONI
 10
718.5
 11
718.5
 20
1940.0
 21
100.0
  0
LINE
  8
COSTRUZIONI
 10
718.5
 11
84.5
 20
100.0
 21
100.0
  0
LINE
  8
COSTRUZIONI
 10
84.5
 11
84.5
 20
100.0
 21
1940.0
  0
LINE
  8
COSTRUZIONI
 10
688.5
 11
688.5
 20
1910.0
 21
1610.0
  0
LINE
  8
COSTRUZIONI
 10
688.5
 11
114.5
 20
1610.0
 21
1610.0
  0
LINE
  8
COSTRUZIONI
 10
114.5
 11
114.5
 20
1610.0
 21
1910.0
  0
LINE
  8
COSTRUZIONI
 10
114.5
 11
688.5
 20
1910.0
 21
1910.0
  0
LINE
  8
COSTRUZIONI
 10
114.5
 11
114.5
 20
130.0
 21
430.0
  0
LINE
  8
COSTRUZIONI
 10
114.5
 11
688.5
 20
430.0
 21
430.0
  0
LINE
  8
COSTRUZIONI
 10
688.5
 11
688.5
 20
430.0
 21
130.0
  0
LINE
  8
COSTRUZIONI
 10
688.5
 11
114.5
 20
130.0
 21
130.0
  0
LINE
  8
COSTRUZIONI
 10
114.5
 11
688.5
 20
1545.0
 21
1545.0
  0
LINE
  8
COSTRUZIONI
 10
688.5
 11
688.5
 20
1545.0
 21
495.0
  0
LINE
  8
COSTRUZIONI
 10
688.5
 11
114.5
 20
495.0
 21
495.0
  0
LINE
  8
COSTRUZIONI
 10
114.5
 11
114.5
 20
495.0
 21
1545.0
  0
LINE
  8
COSTRUZIONI
 10
104.5
 11
698.5
 20
1555.0
 21
1555.0
  0
LINE
  8
COSTRUZIONI
 10
698.5
 11
698.5
 20
1555.0
 21
485.0
  0
LINE
  8
COSTRUZIONI
 10
698.5
 11
104.5
 20
485.0
 21
485.0
  0
LINE
  8
COSTRUZIONI
 10
104.5
 11
104.5
 20
485.0
 21
1555.0
  0
LINE
  8
COSTRUZIONI
 10
5.684
 11
5.684
 20
2426.311
 21
2626.311
  0
LINE
  8
COSTRUZIONI
 10
5.684
 11
2005.684
 20
2626.311
 21
2626.311
  0
LINE
  8
COSTRUZIONI
 10
2005.684
 11
2005.684
 20
2626.311
 21
2426.311
  0
LINE
  8
COSTRUZIONI
 10
2005.684
 11
5.684
 20
2426.311
 21
2426.311
  0
LINE
  8
COSTRUZIONI
 10
305.684
 11
305.684
 20
2426.311
 21
2626.311
  0
LINE
  8
COSTRUZIONI
 10
605.684
 11
605.684
 20
2426.311
 21
2626.311
  0
LINE
  8
COSTRUZIONI
 10
1055.684
 11
1055.684
 20
2426.311
 21
2626.311
  0
LINE
  8
COSTRUZIONI
 10
1505.684
 11
1505.684
 20
2426.311
 21
2626.311
  0
LINE
  8
COSTRUZIONI
 10
5.684
 11
5.684
 20
2426.311
 21
2276.311
  0
LINE
  8
COSTRUZIONI
 10
5.684
 11
2005.684
 20
2276.311
 21
2276.311
  0
LINE
  8
COSTRUZIONI
 10
2005.684
 11
2005.684
 20
2426.311
 21
2276.311
  0
LINE
  8
COSTRUZIONI
 10
400.663
 11
400.663
 20
2426.311
 21
2276.311
  0
LINE
  8
APS_GEOMETRY
 10
109.653
 11
159.653
 20
2287.04
 21
2287.04
  0
LINE
  8
APS_GEOMETRY
 10
159.653
 11
159.653
 20
2287.04
 21
2337.04
  0
LINE
  8
APS_GEOMETRY
 10
159.653
 11
109.653
 20
2337.04
 21
2337.04
  0
LINE
  8
APS_GEOMETRY
 10
109.653
 11
109.653
 20
2337.04
 21
2287.04
  0
LINE
  8
APS_GEOMETRY
 10
337.856
 11
387.856
 20
2287.04
 21
2287.04
  0
LINE
  8
APS_GEOMETRY
 10
387.856
 11
387.856
 20
2287.04
 21
2337.04
  0
LINE
  8
APS_GEOMETRY
 10
387.856
 11
337.856
 20
2337.04
 21
2337.04
  0
LINE
  8
APS_GEOMETRY
 10
337.856
 11
337.856
 20
2337.04
 21
2287.04
  0
LINE
  8
COSTRUZIONI
 10
5.684
 11
400.663
 20
2358.314
 21
2358.314
  0
LINE
  8
COSTRUZIONI
 10
203.173
 11
203.173
 20
2358.314
 21
2276.311
  0
LINE
  8
COSTRUZIONI
 10
549.002
 11
566.702
 20
2313.277
 21
2313.277
  0
LINE
  8
COSTRUZIONI
 10
566.702
 11
566.702
 20
2313.277
 21
2309.777
  0
LINE
  8
COSTRUZIONI
 10
566.702
 11
549.002
 20
2309.777
 21
2309.777
  0
LINE
  8
COSTRUZIONI
 10
549.002
 11
549.002
 20
2309.777
 21
2313.277
  0
LINE
  8
COSTRUZIONI
 10
556.702
 11
556.702
 20
2313.277
 21
2339.777
  0
ARC
  8
COSTRUZIONI
 10
553.702
 20
2339.777
 40
3.0
 50
0.0
 51
90.0
  0
LINE
  8
COSTRUZIONI
 10
553.702
 11
534.702
 20
2342.777
 21
2342.777
  0
ARC
  8
COSTRUZIONI
 10
534.702
 20
2339.777
 40
3.0
 50
90.0
 51
180.0
  0
LINE
  8
COSTRUZIONI
 10
531.702
 11
531.702
 20
2339.777
 21
2318.777
  0
LINE
  8
COSTRUZIONI
 10
531.702
 11
527.202
 20
2318.777
 21
2318.777
  0
LINE
  8
COSTRUZIONI
 10
527.202
 11
527.202
 20
2318.777
 21
2332.777
  0
LINE
  8
COSTRUZIONI
 10
527.202
 11
523.202
 20
2332.777
 21
2332.777
  0
LINE
  8
COSTRUZIONI
 10
523.202
 11
523.202
 20
2332.777
 21
2296.996
  0
LINE
  8
COSTRUZIONI
 10
567.202
 11
567.202
 20
2283.005
 21
2308.777
  0
LINE
  8
COSTRUZIONI
 10
587.576
 11
572.702
 20
2297.777
 21
2297.777
  0
ARC
  8
COSTRUZIONI
 10
572.702
 20
2300.777
 40
3.0
 50
180.0
 51
270.0
  0
LINE
  8
COSTRUZIONI
 10
569.702
 11
569.702
 20
2300.777
 21
2312.777
  0
LINE
  8
COSTRUZIONI
 10
569.702
 11
561.202
 20
2312.777
 21
2312.777
  0
ARC
  8
COSTRUZIONI
 10
561.202
 20
2314.277
 40
1.5
 50
180.0
 51
270.0
  0
LINE
  8
COSTRUZIONI
 10
559.702
 11
559.702
 20
2314.277
 21
2339.777
  0
ARC
  8
COSTRUZIONI
 10
562.702
 20
2339.777
 40
3.0
 50
90.0
 51
180.0
  0
LINE
  8
COSTRUZIONI
 10
562.702
 11
588.738
 20
2342.777
 21
2342.777
  0
LINE
  8
QUOTATURA
 10
481.642
 11
481.642
 20
2298.97
 21
2299.637
  0
LINE
  8
COSTRUZIONI
 10
464.442
 11
472.142
 20
2303.803
 21
2303.803
  0
ARC
  8
COSTRUZIONI
 10
477.142
 20
2291.803
 40
13.0
 50
67.38
 51
112.62
  0
LINE
  8
COSTRUZIONI
 10
482.142
 11
482.142
 20
2303.803
 21
2300.303
  0
LINE
  8
COSTRUZIONI
 10
482.142
 11
464.442
 20
2300.303
 21
2300.303
  0
LINE
  8
COSTRUZIONI
 10
464.442
 11
464.442
 20
2300.303
 21
2303.803
  0
LINE
  8
COSTRUZIONI
 10
464.619
 11
464.442
 20
2300.303
 21
2300.48
  0
LINE
  8
COSTRUZIONI
 10
464.442
 11
465.15
 20
2301.011
 21
2300.303
  0
LINE
  8
COSTRUZIONI
 10
465.326
 11
464.442
 20
2300.303
 21
2301.187
  0
LINE
  8
COSTRUZIONI
 10
464.442
 11
465.857
 20
2301.718
 21
2300.303
  0
LINE
  8
COSTRUZIONI
 10
466.033
 11
464.442
 20
2300.303
 21
2301.894
  0
LINE
  8
COSTRUZIONI
 10
464.442
 11
466.564
 20
2302.425
 21
2300.303
  0
LINE
  8
COSTRUZIONI
 10
466.741
 11
464.442
 20
2300.303
 21
2302.602
  0
LINE
  8
COSTRUZIONI
 10
464.442
 11
467.271
 20
2303.132
 21
2300.303
  0
LINE
  8
COSTRUZIONI
 10
467.448
 11
464.442
 20
2300.303
 21
2303.309
  0
LINE
  8
COSTRUZIONI
 10
464.478
 11
467.978
 20
2303.803
 21
2300.303
  0
LINE
  8
COSTRUZIONI
 10
468.155
 11
464.655
 20
2300.303
 21
2303.803
  0
LINE
  8
COSTRUZIONI
 10
465.185
 11
468.685
 20
2303.803
 21
2300.303
  0
LINE
  8
COSTRUZIONI
 10
468.862
 11
465.362
 20
2300.303
 21
2303.803
  0
LINE
  8
COSTRUZIONI
 10
465.892
 11
469.392
 20
2303.803
 21
2300.303
  0
LINE
  8
COSTRUZIONI
 10
469.569
 11
466.069
 20
2300.303
 21
2303.803
  0
LINE
  8
COSTRUZIONI
 10
466.599
 11
470.099
 20
2303.803
 21
2300.303
  0
LINE
  8
COSTRUZIONI
 10
470.276
 11
466.776
 20
2300.303
 21
2303.803
  0
LINE
  8
COSTRUZIONI
 10
467.306
 11
470.806
 20
2303.803
 21
2300.303
  0
LINE
  8
COSTRUZIONI
 10
470.983
 11
467.483
 20
2300.303
 21
2303.803
  0
LINE
  8
COSTRUZIONI
 10
468.014
 11
471.514
 20
2303.803
 21
2300.303
  0
LINE
  8
COSTRUZIONI
 10
471.69
 11
468.19
 20
2300.303
 21
2303.803
  0
LINE
  8
COSTRUZIONI
 10
468.721
 11
472.221
 20
2303.803
 21
2300.303
  0
LINE
  8
COSTRUZIONI
 10
472.397
 11
468.897
 20
2300.303
 21
2303.803
  0
LINE
  8
COSTRUZIONI
 10
469.428
 11
472.928
 20
2303.803
 21
2300.303
  0
LINE
  8
COSTRUZIONI
 10
473.105
 11
469.605
 20
2300.303
 21
2303.803
  0
LINE
  8
COSTRUZIONI
 10
470.135
 11
473.635
 20
2303.803
 21
2300.303
  0
LINE
  8
COSTRUZIONI
 10
473.812
 11
470.312
 20
2300.303
 21
2303.803
  0
LINE
  8
COSTRUZIONI
 10
470.842
 11
474.342
 20
2303.803
 21
2300.303
  0
LINE
  8
COSTRUZIONI
 10
474.519
 11
471.019
 20
2300.303
 21
2303.803
  0
LINE
  8
COSTRUZIONI
 10
471.549
 11
475.049
 20
2303.803
 21
2300.303
  0
LINE
  8
COSTRUZIONI
 10
475.226
 11
471.726
 20
2300.303
 21
2303.803
  0
LINE
  8
COSTRUZIONI
 10
472.223
 11
475.756
 20
2303.837
 21
2300.303
  0
LINE
  8
COSTRUZIONI
 10
475.933
 11
472.349
 20
2300.303
 21
2303.887
  0
LINE
  8
COSTRUZIONI
 10
472.734
 11
476.463
 20
2304.033
 21
2300.303
  0
LINE
  8
COSTRUZIONI
 10
476.64
 11
472.864
 20
2300.303
 21
2304.079
  0
LINE
  8
COSTRUZIONI
 10
473.263
 11
477.17
 20
2304.211
 21
2300.303
  0
LINE
  8
COSTRUZIONI
 10
477.347
 11
473.398
 20
2300.303
 21
2304.253
  0
LINE
  8
COSTRUZIONI
 10
473.811
 11
477.877
 20
2304.369
 21
2300.303
  0
LINE
  8
COSTRUZIONI
 10
478.054
 11
473.952
 20
2300.303
 21
2304.406
  0
LINE
  8
COSTRUZIONI
 10
474.381
 11
478.585
 20
2304.507
 21
2300.303
  0
LINE
  8
COSTRUZIONI
 10
478.761
 11
474.527
 20
2300.303
 21
2304.538
  0
LINE
  8
COSTRUZIONI
 10
474.974
 11
479.292
 20
2304.621
 21
2300.303
  0
LINE
  8
COSTRUZIONI
 10
479.468
 11
475.126
 20
2300.303
 21
2304.646
  0
LINE
  8
COSTRUZIONI
 10
475.592
 11
479.999
 20
2304.711
 21
2300.303
  0
LINE
  8
COSTRUZIONI
 10
480.176
 11
475.75
 20
2300.303
 21
2304.729
  0
LINE
  8
COSTRUZIONI
 10
476.237
 11
480.706
 20
2304.772
 21
2300.303
  0
LINE
  8
COSTRUZIONI
 10
480.883
 11
476.404
 20
2300.303
 21
2304.782
  0
LINE
  8
COSTRUZIONI
 10
476.915
 11
481.413
 20
2304.801
 21
2300.303
  0
LINE
  8
COSTRUZIONI
 10
481.59
 11
477.09
 20
2300.303
 21
2304.803
  0
LINE
  8
COSTRUZIONI
 10
477.629
 11
482.12
 20
2304.794
 21
2300.303
  0
LINE
  8
COSTRUZIONI
 10
482.142
 11
477.814
 20
2300.458
 21
2304.786
  0
LINE
  8
COSTRUZIONI
 10
478.387
 11
482.142
 20
2304.744
 21
2300.988
  0
LINE
  8
COSTRUZIONI
 10
482.142
 11
478.584
 20
2301.165
 21
2304.723
  0
LINE
  8
COSTRUZIONI
 10
479.198
 11
482.142
 20
2304.64
 21
2301.695
  0
LINE
  8
COSTRUZIONI
 10
482.142
 11
479.411
 20
2301.872
 21
2304.604
  0
LINE
  8
COSTRUZIONI
 10
480.077
 11
482.142
 20
2304.468
 21
2302.402
  0
LINE
  8
COSTRUZIONI
 10
482.142
 11
480.31
 20
2302.579
 21
2304.412
  0
LINE
  8
COSTRUZIONI
 10
481.05
 11
482.142
 20
2304.202
 21
2303.11
  0
LINE
  8
COSTRUZIONI
 10
482.142
 11
481.312
 20
2303.286
 21
2304.117
  0
ARC
  8
COSTRUZIONI
 10
481.642
 20
2299.303
 40
1.0
 50
360.0
 51
90.0
  0
LINE
  8
COSTRUZIONI
 10
438.642
 11
438.642
 20
2333.503
 21
2289.539
  0
LINE
  8
COSTRUZIONI
 10
482.642
 11
482.642
 20
2286.746
 21
2299.303
  0
LINE
  8
COSTRUZIONI
 10
472.142
 11
472.142
 20
2303.803
 21
2330.503
  0
ARC
  8
COSTRUZIONI
 10
469.142
 20
2330.503
 40
3.0
 50
0.0
 51
90.0
  0
LINE
  8
COSTRUZIONI
 10
469.142
 11
447.142
 20
2333.503
 21
2333.503
  0
LINE
  8
COSTRUZIONI
 10
447.142
 11
447.142
 20
2333.503
 21
2319.503
  0
LINE
  8
COSTRUZIONI
 10
447.142
 11
442.842
 20
2319.503
 21
2319.503
  0
LINE
  8
COSTRUZIONI
 10
442.842
 11
442.842
 20
2319.503
 21
2333.503
  0
LINE
  8
COSTRUZIONI
 10
442.842
 11
438.642
 20
2333.503
 21
2333.503
  0
LINE
  8
COSTRUZIONI
 10
478.142
 11
498.503
 20
2303.504
 21
2303.504
  0
LINE
  8
COSTRUZIONI
 10
492.223
 11
470.142
 20
2348.504
 21
2348.504
  0
ARC
  8
COSTRUZIONI
 10
470.142
 20
2343.504
 40
5.0
 50
90.0
 51
180.0
  0
LINE
  8
COSTRUZIONI
 10
465.142
 11
465.142
 20
2343.504
 21
2335.504
  0
ARC
  8
COSTRUZIONI
 10
467.142
 20
2335.504
 40
2.0
 50
180.0
 51
270.0
  0
LINE
  8
COSTRUZIONI
 10
467.142
 11
475.142
 20
2333.504
 21
2333.504
  0
LINE
  8
COSTRUZIONI
 10
475.142
 11
475.142
 20
2333.504
 21
2306.504
  0
ARC
  8
COSTRUZIONI
 10
478.142
 20
2306.504
 40
3.0
 50
180.0
 51
270.0
  0
CIRCLE
  8
COSTRUZIONI
 10
455.492
 20
2342.153
 40
6.85
  0
LINE
  8
COSTRUZIONI
 10
461.53
 11
465.388
 20
2345.39
 21
2345.052
  0
LINE
  8
COSTRUZIONI
 10
465.142
 11
460.876
 20
2337.545
 21
2337.918
  0
LINE
  8
COSTRUZIONI
 10
459.242
 11
459.242
 20
2336.421
 21
2333.503
  0
LINE
  8
COSTRUZIONI
 10
451.742
 11
451.742
 20
2333.503
 21
2336.421
  0
LINE
  8
COSTRUZIONI
 10
454.516
 11
433.757
 20
2349.003
 21
2349.003
  0
LINE
  8
COSTRUZIONI
 10
448.642
 11
448.642
 20
2342.153
 21
2358.88
  0
CIRCLE
  8
COSTRUZIONI
 10
462.757
 20
2321.453
 40
40.0
  0
CIRCLE
  8
COSTRUZIONI
 10
555.101
 20
2321.13
 40
40.0
  0
LINE
  8
APS_GEOMETRY
 10
638.843
 11
688.843
 20
2287.04
 21
2287.04
  0
LINE
  8
APS_GEOMETRY
 10
688.843
 11
688.843
 20
2287.04
 21
2337.04
  0
LINE
  8
APS_GEOMETRY
 10
688.843
 11
638.843
 20
2337.04
 21
2337.04
  0
LINE
  8
APS_GEOMETRY
 10
638.843
 11
638.843
 20
2337.04
 21
2287.04
  0
LINE
  8
COSTRUZIONI
 10
720.211
 11
720.211
 20
2426.311
 21
2276.311
  0
LINE
  8
COSTRUZIONI
 10
114.5
 11
688.5
 20
130.0
 21
430.0
  0
LINE
  8
COSTRUZIONI
 10
114.5
 11
688.5
 20
430.0
 21
130.0
  0
LINE
  8
COSTRUZIONI
 10
114.5
 11
688.5
 20
1610.0
 21
1910.0
  0
LINE
  8
COSTRUZIONI
 10
114.5
 11
688.5
 20
1910.0
 21
1610.0
  0
LINE
  8
QUOTATURA
 10
104.5
 11
104.5
 20
500.0
 21
733.042
  0
LINE
  8
QUOTATURA
 10
698.5
 11
698.5
 20
500.0
 21
733.042
  0
LINE
  8
QUOTATURA
 10
104.5
 11
204.124
 20
718.042
 21
718.042
  0
LINE
  8
QUOTATURA
 10
598.876
 11
698.5
 20
718.042
 21
718.042
  0
LINE
  8
QUOTATURA
 10
134.5
 11
104.5
 20
713.041
 21
718.042
  0
LINE
  8
QUOTATURA
 10
104.5
 11
134.5
 20
718.042
 21
723.043
  0
LINE
  8
QUOTATURA
 10
134.5
 11
134.5
 20
723.043
 21
713.041
  0
LINE
  8
QUOTATURA
 10
668.5
 11
698.5
 20
723.043
 21
718.042
  0
LINE
  8
QUOTATURA
 10
698.5
 11
668.5
 20
718.042
 21
713.041
  0
LINE
  8
QUOTATURA
 10
668.5
 11
668.5
 20
713.041
 21
723.043
  0
LINE
  8
COSTRUZIONI
 10
1926.005
 11
1123.005
 20
2040.0
 21
2040.0
  0
LINE
  8
COSTRUZIONI
 10
1123.005
 11
1123.005
 20
2040.0
 21
0.0
  0
LINE
  8
COSTRUZIONI
 10
1123.005
 11
1926.005
 20
0.0
 21
0.0
  0
LINE
  8
COSTRUZIONI
 10
1926.005
 11
1926.005
 20
0.0
 21
2040.0
  0
LINE
  8
COSTRUZIONI
 10
1207.505
 11
1841.505
 20
1940.0
 21
1940.0
  0
LINE
  8
COSTRUZIONI
 10
1841.505
 11
1841.505
 20
1940.0
 21
100.0
  0
LINE
  8
COSTRUZIONI
 10
1841.505
 11
1207.505
 20
100.0
 21
100.0
  0
LINE
  8
COSTRUZIONI
 10
1207.505
 11
1207.505
 20
100.0
 21
1940.0
  0
LINE
  8
COSTRUZIONI
 10
1811.505
 11
1811.505
 20
1910.0
 21
1610.0
  0
LINE
  8
COSTRUZIONI
 10
1811.505
 11
1237.505
 20
1610.0
 21
1610.0
  0
LINE
  8
COSTRUZIONI
 10
1237.505
 11
1237.505
 20
1610.0
 21
1910.0
  0
LINE
  8
COSTRUZIONI
 10
1237.505
 11
1811.505
 20
1910.0
 21
1910.0
  0
LINE
  8
COSTRUZIONI
 10
1237.505
 11
1237.505
 20
130.0
 21
430.0
  0
LINE
  8
COSTRUZIONI
 10
1237.505
 11
1811.505
 20
430.0
 21
430.0
  0
LINE
  8
COSTRUZIONI
 10
1811.505
 11
1811.505
 20
430.0
 21
130.0
  0
LINE
  8
COSTRUZIONI
 10
1811.505
 11
1237.505
 20
130.0
 21
130.0
  0
LINE
  8
COSTRUZIONI
 10
1237.505
 11
1811.505
 20
1545.0
 21
1545.0
  0
LINE
  8
COSTRUZIONI
 10
1811.505
 11
1811.505
 20
1545.0
 21
495.0
  0
LINE
  8
COSTRUZIONI
 10
1811.505
 11
1237.505
 20
495.0
 21
495.0
  0
LINE
  8
COSTRUZIONI
 10
1237.505
 11
1237.505
 20
495.0
 21
1545.0
  0
LINE
  8
COSTRUZIONI
 10
1237.505
 11
1811.505
 20
130.0
 21
430.0
  0
LINE
  8
COSTRUZIONI
 10
1237.505
 11
1811.505
 20
430.0
 21
130.0
  0
LINE
  8
COSTRUZIONI
 10
1237.505
 11
1811.505
 20
1610.0
 21
1910.0
  0
LINE
  8
COSTRUZIONI
 10
1237.505
 11
1811.505
 20
1910.0
 21
1610.0
  0
LINE
  8
QUOTATURA
 10
1539.505
 11
1620.092
 20
1940.0
 21
1940.0
  0
LINE
  8
QUOTATURA
 10
1539.505
 11
1620.092
 20
2040.0
 21
2040.0
  0
LINE
  8
QUOTATURA
 10
1605.092
 11
1605.092
 20
1940.0
 21
2098.735
  0
LINE
  8
QUOTATURA
 10
1605.092
 11
1675.919
 20
2098.735
 21
2098.735
  0
LINE
  8
QUOTATURA
 10
1610.093
 11
1605.092
 20
1970.0
 21
1940.0
  0
LINE
  8
QUOTATURA
 10
1605.092
 11
1600.091
 20
1940.0
 21
1970.0
  0
LINE
  8
QUOTATURA
 10
1600.091
 11
1610.093
 20
1970.0
 21
1970.0
  0
LINE
  8
QUOTATURA
 10
1600.091
 11
1605.092
 20
2010.0
 21
2040.0
  0
LINE
  8
QUOTATURA
 10
1605.092
 11
1610.093
 20
2040.0
 21
2010.0
  0
LINE
  8
QUOTATURA
 10
1610.093
 11
1600.091
 20
2010.0
 21
2010.0
  0
LINE
  8
QUOTATURA
 10
1509.505
 11
1362.188
 20
1910.0
 21
1910.0
  0
LINE
  8
QUOTATURA
 10
1509.505
 11
1362.188
 20
1940.0
 21
1940.0
  0
LINE
  8
QUOTATURA
 10
1377.188
 11
1377.188
 20
1940.0
 21
2012.094
  0
LINE
  8
QUOTATURA
 10
1377.188
 11
1332.642
 20
2012.094
 21
2012.094
  0
LINE
  8
QUOTATURA
 10
1382.189
 11
1377.188
 20
1970.0
 21
1940.0
  0
LINE
  8
QUOTATURA
 10
1377.188
 11
1372.187
 20
1940.0
 21
1970.0
  0
LINE
  8
QUOTATURA
 10
1372.187
 11
1382.189
 20
1970.0
 21
1970.0
  0
LINE
  8
QUOTATURA
 10
1377.188
 11
1377.188
 20
1910.0
 21
1850.0
  0
LINE
  8
QUOTATURA
 10
1372.187
 11
1377.188
 20
1880.0
 21
1910.0
  0
LINE
  8
QUOTATURA
 10
1377.188
 11
1382.189
 20
1910.0
 21
1880.0
  0
LINE
  8
QUOTATURA
 10
1382.189
 11
1372.187
 20
1880.0
 21
1880.0
  0
LINE
  8
QUOTATURA
 10
1539.505
 11
1721.446
 20
1910.0
 21
1910.0
  0
LINE
  8
QUOTATURA
 10
1539.505
 11
1721.446
 20
1610.0
 21
1610.0
  0
LINE
  8
QUOTATURA
 10
1706.446
 11
1706.446
 20
1910.0
 21
1743.489
  0
LINE
  8
QUOTATURA
 10
1706.446
 11
1706.446
 20
1698.029
 21
1610.0
  0
LINE
  8
QUOTATURA
 10
1701.445
 11
1706.446
 20
1880.0
 21
1910.0
  0
LINE
  8
QUOTATURA
 10
1706.446
 11
1711.447
 20
1910.0
 21
1880.0
  0
LINE
  8
QUOTATURA
 10
1711.447
 11
1701.445
 20
1880.0
 21
1880.0
  0
LINE
  8
QUOTATURA
 10
1711.447
 11
1706.446
 20
1640.0
 21
1610.0
  0
LINE
  8
QUOTATURA
 10
1706.446
 11
1701.445
 20
1610.0
 21
1640.0
  0
LINE
  8
QUOTATURA
 10
1701.445
 11
1711.447
 20
1640.0
 21
1640.0
  0
LINE
  8
QUOTATURA
 10
1529.526
 11
1529.526
 20
130.0
 21
324.075
  0
LINE
  8
QUOTATURA
 10
1529.526
 11
1529.526
 20
369.535
 21
430.0
  0
LINE
  8
QUOTATURA
 10
1534.527
 11
1529.526
 20
160.0
 21
130.0
  0
LINE
  8
QUOTATURA
 10
1529.526
 11
1524.525
 20
130.0
 21
160.0
  0
LINE
  8
QUOTATURA
 10
1524.525
 11
1534.527
 20
160.0
 21
160.0
  0
LINE
  8
QUOTATURA
 10
1524.525
 11
1529.526
 20
400.0
 21
430.0
  0
LINE
  8
QUOTATURA
 10
1529.526
 11
1534.527
 20
430.0
 21
400.0
  0
LINE
  8
QUOTATURA
 10
1534.527
 11
1524.525
 20
400.0
 21
400.0
  0
LINE
  8
QUOTATURA
 10
1509.505
 11
1457.397
 20
100.0
 21
100.0
  0
LINE
  8
QUOTATURA
 10
1509.505
 11
1457.397
 20
130.0
 21
130.0
  0
LINE
  8
QUOTATURA
 10
1472.397
 11
1472.397
 20
100.0
 21
53.13
  0
LINE
  8
QUOTATURA
 10
1472.397
 11
1404.417
 20
53.13
 21
53.13
  0
LINE
  8
QUOTATURA
 10
1467.396
 11
1472.397
 20
70.0
 21
100.0
  0
LINE
  8
QUOTATURA
 10
1472.397
 11
1477.398
 20
100.0
 21
70.0
  0
LINE
  8
QUOTATURA
 10
1477.398
 11
1467.396
 20
70.0
 21
70.0
  0
LINE
  8
QUOTATURA
 10
1472.397
 11
1472.397
 20
130.0
 21
190.0
  0
LINE
  8
QUOTATURA
 10
1477.398
 11
1472.397
 20
160.0
 21
130.0
  0
LINE
  8
QUOTATURA
 10
1472.397
 11
1467.396
 20
130.0
 21
160.0
  0
LINE
  8
QUOTATURA
 10
1467.396
 11
1477.398
 20
160.0
 21
160.0
  0
LINE
  8
QUOTATURA
 10
1539.505
 11
1713.192
 20
100.0
 21
100.0
  0
LINE
  8
QUOTATURA
 10
1539.505
 11
1713.192
 20
0.0
 21
0.0
  0
LINE
  8
QUOTATURA
 10
1698.192
 11
1698.192
 20
100.0
 21
72.5
  0
LINE
  8
QUOTATURA
 10
1698.192
 11
1698.192
 20
27.134
 21
0.0
  0
LINE
  8
QUOTATURA
 10
1693.191
 11
1698.192
 20
70.0
 21
100.0
  0
LINE
  8
QUOTATURA
 10
1698.192
 11
1703.193
 20
100.0
 21
70.0
  0
LINE
  8
QUOTATURA
 10
1703.193
 11
1693.191
 20
70.0
 21
70.0
  0
LINE
  8
QUOTATURA
 10
1703.193
 11
1698.192
 20
30.0
 21
0.0
  0
LINE
  8
QUOTATURA
 10
1698.192
 11
1693.191
 20
0.0
 21
30.0
  0
LINE
  8
QUOTATURA
 10
1693.191
 11
1703.193
 20
30.0
 21
30.0
  0
LINE
  8
QUOTATURA
 10
1123.005
 11
1123.005
 20
-15.0
 21
-149.814
  0
LINE
  8
QUOTATURA
 10
1926.005
 11
1926.005
 20
-15.0
 21
-149.814
  0
LINE
  8
QUOTATURA
 10
1123.005
 11
1477.321
 20
-134.814
 21
-134.814
  0
LINE
  8
QUOTATURA
 10
1571.689
 11
1926.005
 20
-134.814
 21
-134.814
  0
LINE
  8
QUOTATURA
 10
1153.005
 11
1123.005
 20
-139.815
 21
-134.814
  0
LINE
  8
QUOTATURA
 10
1123.005
 11
1153.005
 20
-134.814
 21
-129.813
  0
LINE
  8
QUOTATURA
 10
1153.005
 11
1153.005
 20
-129.813
 21
-139.815
  0
LINE
  8
QUOTATURA
 10
1896.005
 11
1926.005
 20
-129.813
 21
-134.814
  0
LINE
  8
QUOTATURA
 10
1926.005
 11
1896.005
 20
-134.814
 21
-139.815
  0
LINE
  8
QUOTATURA
 10
1896.005
 11
1896.005
 20
-139.815
 21
-129.813
  0
LINE
  8
QUOTATURA
 10
1123.005
 11
1123.005
 20
1040.0
 21
969.142
  0
LINE
  8
QUOTATURA
 10
1237.505
 11
1237.505
 20
1040.0
 21
969.142
  0
LINE
  8
QUOTATURA
 10
1237.505
 11
1084.203
 20
984.142
 21
984.142
  0
LINE
  8
QUOTATURA
 10
1153.005
 11
1123.005
 20
979.141
 21
984.142
  0
LINE
  8
QUOTATURA
 10
1123.005
 11
1153.005
 20
984.142
 21
989.143
  0
LINE
  8
QUOTATURA
 10
1153.005
 11
1153.005
 20
989.143
 21
979.141
  0
LINE
  8
QUOTATURA
 10
1207.505
 11
1237.505
 20
989.143
 21
984.142
  0
LINE
  8
QUOTATURA
 10
1237.505
 11
1207.505
 20
984.142
 21
979.141
  0
LINE
  8
QUOTATURA
 10
1207.505
 11
1207.505
 20
979.141
 21
989.143
  0
LINE
  8
QUOTATURA
 10
1207.505
 11
1207.505
 20
1040.0
 21
883.863
  0
LINE
  8
QUOTATURA
 10
1237.505
 11
1237.505
 20
1040.0
 21
883.863
  0
LINE
  8
QUOTATURA
 10
1207.505
 11
1083.005
 20
898.863
 21
898.863
  0
LINE
  8
QUOTATURA
 10
1177.505
 11
1207.505
 20
903.864
 21
898.863
  0
LINE
  8
QUOTATURA
 10
1207.505
 11
1177.505
 20
898.863
 21
893.862
  0
LINE
  8
QUOTATURA
 10
1177.505
 11
1177.505
 20
893.862
 21
903.864
  0
LINE
  8
QUOTATURA
 10
1237.505
 11
1297.505
 20
898.863
 21
898.863
  0
LINE
  8
QUOTATURA
 10
1267.505
 11
1237.505
 20
893.862
 21
898.863
  0
LINE
  8
QUOTATURA
 10
1237.505
 11
1267.505
 20
898.863
 21
903.864
  0
LINE
  8
QUOTATURA
 10
1267.505
 11
1267.505
 20
903.864
 21
893.862
  0
LINE
  8
QUOTATURA
 10
1811.505
 11
1811.505
 20
1040.0
 21
897.47
  0
LINE
  8
QUOTATURA
 10
1926.005
 11
1926.005
 20
1040.0
 21
897.47
  0
LINE
  8
QUOTATURA
 10
1811.505
 11
1965.964
 20
912.47
 21
912.47
  0
LINE
  8
QUOTATURA
 10
1841.505
 11
1811.505
 20
907.469
 21
912.47
  0
LINE
  8
QUOTATURA
 10
1811.505
 11
1841.505
 20
912.47
 21
917.471
  0
LINE
  8
QUOTATURA
 10
1841.505
 11
1841.505
 20
917.471
 21
907.469
  0
LINE
  8
QUOTATURA
 10
1896.005
 11
1926.005
 20
917.471
 21
912.47
  0
LINE
  8
QUOTATURA
 10
1926.005
 11
1896.005
 20
912.47
 21
907.469
  0
LINE
  8
QUOTATURA
 10
1896.005
 11
1896.005
 20
907.469
 21
917.471
  0
LINE
  8
COSTRUZIONI
 10
114.5
 11
688.5
 20
1545.0
 21
495.0
  0
LINE
  8
COSTRUZIONI
 10
114.5
 11
688.5
 20
495.0
 21
1545.0
  0
LINE
  8
COSTRUZIONI
 10
1237.505
 11
1811.505
 20
1545.0
 21
495.0
  0
LINE
  8
COSTRUZIONI
 10
1237.505
 11
1811.505
 20
495.0
 21
1545.0
  0
LINE
  8
QUOTATURA
 10
1526.588
 11
1526.588
 20
495.0
 21
822.25
  0
LINE
  8
QUOTATURA
 10
1526.588
 11
1526.588
 20
867.627
 21
1545.0
  0
LINE
  8
QUOTATURA
 10
1531.589
 11
1526.588
 20
525.0
 21
495.0
  0
LINE
  8
QUOTATURA
 10
1526.588
 11
1521.587
 20
495.0
 21
525.0
  0
LINE
  8
QUOTATURA
 10
1521.587
 11
1531.589
 20
525.0
 21
525.0
  0
LINE
  8
QUOTATURA
 10
1521.587
 11
1526.588
 20
1515.0
 21
1545.0
  0
LINE
  8
QUOTATURA
 10
1526.588
 11
1531.589
 20
1545.0
 21
1515.0
  0
LINE
  8
QUOTATURA
 10
1531.589
 11
1521.587
 20
1515.0
 21
1515.0
  0
LINE
  8
QUOTATURA
 10
386.5
 11
348.519
 20
485.0
 21
485.0
  0
LINE
  8
QUOTATURA
 10
386.5
 11
348.519
 20
1555.0
 21
1555.0
  0
LINE
  8
QUOTATURA
 10
363.519
 11
363.519
 20
485.0
 21
594.531
  0
LINE
  8
QUOTATURA
 10
363.519
 11
363.519
 20
667.14
 21
1555.0
  0
LINE
  8
QUOTATURA
 10
368.52
 11
363.519
 20
515.0
 21
485.0
  0
LINE
  8
QUOTATURA
 10
363.519
 11
358.518
 20
485.0
 21
515.0
  0
LINE
  8
QUOTATURA
 10
358.518
 11
368.52
 20
515.0
 21
515.0
  0
LINE
  8
QUOTATURA
 10
358.518
 11
363.519
 20
1525.0
 21
1555.0
  0
LINE
  8
QUOTATURA
 10
363.519
 11
368.52
 20
1555.0
 21
1525.0
  0
LINE
  8
QUOTATURA
 10
368.52
 11
358.518
 20
1525.0
 21
1525.0
  0
LINE
  8
QUOTATURA
 10
1941.005
 11
2115.225
 20
0.0
 21
0.0
  0
LINE
  8
QUOTATURA
 10
1941.005
 11
2115.225
 20
2040.0
 21
2040.0
  0
LINE
  8
QUOTATURA
 10
2100.225
 11
2100.225
 20
0.0
 21
1356.252
  0
LINE
  8
QUOTATURA
 10
2100.225
 11
2100.225
 20
1401.712
 21
2040.0
  0
LINE
  8
QUOTATURA
 10
2105.226
 11
2100.225
 20
30.0
 21
0.0
  0
LINE
  8
QUOTATURA
 10
2100.225
 11
2095.224
 20
0.0
 21
30.0
  0
LINE
  8
QUOTATURA
 10
2095.224
 11
2105.226
 20
30.0
 21
30.0
  0
LINE
  8
QUOTATURA
 10
2095.224
 11
2100.225
 20
2010.0
 21
2040.0
  0
LINE
  8
QUOTATURA
 10
2100.225
 11
2105.226
 20
2040.0
 21
2010.0
  0
LINE
  8
QUOTATURA
 10
2105.226
 11
2095.224
 20
2010.0
 21
2010.0
  0
TEXT
  8
TEXT
 10
566.433
 20
2210.132
 30
0.0
 40
30.0
 50
0.0
  1
PANNELLI TRAFORATI PER UNA ANTA 834X2040
  0
TEXT
  8
TEXT
 10
566.433
 20
2165.132
 30
0.0
 40
30.0
 50
0.0
  1
(SPESSORE 5.25)
  0
TEXT
  8
TEXT
 10
186.086
 20
-212.542
 30
0.0
 40
30.0
 50
0.0
  1
LEGENDA LAVORAZIONI LASER:
  0
TEXT
  8
TEXT
 10
186.086
 20
-257.542
 30
0.0
 40
30.0
 50
0.0
  1

  0
TEXT
  8
TEXT
 10
186.086
 20
-302.542
 30
0.0
 40
30.0
 50
0.0
  1
[ V ] = FUGA A V DI 1.5-3 mm largh.
  0
TEXT
  8
TEXT
 10
186.086
 20
-347.542
 30
0.0
 40
30.0
 50
0.0
  1
[ X ] = AREA TRAFORO/DECORO SECONDO SPECIFICHE
  0
TEXT
  8
TEXT
 10
186.086
 20
-392.542
 30
0.0
 40
30.0
 50
0.0
  1

  0
TEXT
  8
TEXT
 10
186.086
 20
-437.542
 30
0.0
 40
30.0
 50
0.0
  1
LEGENDA LAVORAZIONI MANUALI
  0
TEXT
  8
TEXT
 10
186.086
 20
-482.542
 30
0.0
 40
30.0
 50
0.0
  1

  0
TEXT
  8
TEXT
 10
186.086
 20
-527.542
 30
0.0
 40
30.0
 50
0.0
  1
[ M ] = SPIGOLARE MANUALAMENTE
  0
TEXT
  8
TEXT
 10
7.028
 20
-658.767
 30
0.0
 40
20.0
 50
0.0
  1
Ufficio tecnico:
  0
TEXT
  8
TEXT
 10
500.376
 20
-783.109
 30
0.0
 40
25.0
 50
0.0
  1
tel. 0577-68.54.26 - fax 0577-68.64.29
  0
TEXT
  8
TEXT
 10
500.376
 20
-820.609
 30
0.0
 40
25.0
 50
0.0
  1
e-mail: tecnico@toscocornici.it - web: www.tosococornici.it
  0
TEXT
  8
TEXT
 10
1111.466
 20
-812.301
 30
0.0
 40
40.0
 50
0.0
  1
B.Ste
  0
TEXT
  8
TEXT
 10
1259.885
 20
-812.301
 30
0.0
 40
40.0
 50
0.0
  1
f
  0
TEXT
  8
TEXT
 10
1290.571
 20
-812.301
 30
0.0
 40
40.0
 50
0.0
  1
ano
  0
TEXT
  8
TEXT
 10
1007.246
 20
-655.804
 30
0.0
 40
20.0
 50
0.0
  1
documento:
  0
TEXT
  8
TEXT
 10
1250.902
 20
-708.926
 30
0.0
 40
19.0
 50
0.0
  1
PORTALAPORTA_STD-V02_L834X2040
  0
TEXT
  8
TEXT
 10
1508.448
 20
-655.719
 30
0.0
 40
20.0
 50
0.0
  1
data:
  0
TEXT
  8
TEXT
 10
1757.547
 20
-707.21
 30
0.0
 40
30.0
 50
0.0
  1
08/05/2024
  0
TEXT
  8
TEXT
 10
1766.3
 20
-807.919
 30
0.0
 40
30.0
 50
0.0
  1
1 : 10
  0
TEXT
  8
TEXT
 10
1005.433
 20
-754.029
 30
0.0
 40
20.0
 50
0.0
  1
responsabile tecnico:
  0
TEXT
  8
TEXT
 10
1507.029
 20
-754.319
 30
0.0
 40
20.0
 50
0.0
  1
scala:
  0
TEXT
  8
TEXT
 10
349.718
 20
2026.526
 30
0.0
 40
30.0
 50
0.0
  1
M
  0
TEXT
  8
TEXT
 10
792.472
 20
1553.734
 30
0.0
 40
30.0
 50
0.0
  1
M
  0
TEXT
  8
TEXT
 10
-11.652
 20
1543.642
 30
0.0
 40
30.0
 50
0.0
  1
M
  0
TEXT
  8
TEXT
 10
376.91
 20
-16.299
 30
0.0
 40
30.0
 50
0.0
  1
M
  0
TEXT
  8
TEXT
 10
117.994
 20
1087.084
 30
0.0
 40
30.0
 50
0.0
  1
VETRO/PLEXIGLASS 4MM
  0
TEXT
  8
TEXT
 10
117.994
 20
1042.084
 30
0.0
 40
30.0
 50
0.0
  1
+DECORO TRAFORATO
  0
TEXT
  8
TEXT
 10
182.99
 20
1808.177
 30
0.0
 40
30.0
 50
0.0
  1
DECORO
  0
TEXT
  8
TEXT
 10
182.99
 20
1763.177
 30
0.0
 40
30.0
 50
0.0
  1
LASER SUPERFICIE
  0
TEXT
  8
TEXT
 10
214.566
 20
277.096
 30
0.0
 40
30.0
 50
0.0
  1
DECORO
  0
TEXT
  8
TEXT
 10
214.566
 20
232.096
 30
0.0
 40
30.0
 50
0.0
  1
LASER SUPERFICIE
  0
TEXT
  8
TEXT
 10
-23.431
 20
-73.668
 30
0.0
 40
30.0
 50
0.0
  1
IL VETRO E' QUOTATO IN POSIZIONE ESATTA
  0
TEXT
  8
TEXT
 10
-23.431
 20
-118.668
 30
0.0
 40
30.0
 50
0.0
  1
PER ASSICURARE LA COINCIDENZA DEL TRAFORATO
  0
TEXT
  8
TEXT
 10
238.514
 20
1281.275
 30
0.0
 40
200.0
 50
0.0
  1
SX
  0
TEXT
  8
TEXT
 10
111.729
 20
2574.419
 30
0.0
 40
30.0
 50
0.0
  1
RIF.
  0
TEXT
  8
TEXT
 10
364.951
 20
2574.419
 30
0.0
 40
30.0
 50
0.0
  1
QUANTITA'
  0
TEXT
  8
TEXT
 10
743.122
 20
2574.419
 30
0.0
 40
30.0
 50
0.0
  1
ESSENZA
  0
TEXT
  8
TEXT
 10
1189.42
 20
2574.419
 30
0.0
 40
30.0
 50
0.0
  1
MODELLO
  0
TEXT
  8
TEXT
 10
1542.544
 20
2574.419
 30
0.0
 40
30.0
 50
0.0
  1
CONSEGNA ENTRO IL
  0
TEXT
  8
TEXT
 10
32.589
 20
2374.419
 30
0.0
 40
30.0
 50
0.0
  1
MANO APERTURA
  0
TEXT
  8
TEXT
 10
468.41
 20
2381.49
 30
0.0
 40
30.0
 50
0.0
  1
BATTENTE
  0
TEXT
  8
TEXT
 10
16.574
 20
2287.447
 30
0.0
 40
50.0
 50
0.0
  1
SX
  0
TEXT
  8
TEXT
 10
244.777
 20
2287.447
 30
0.0
 40
50.0
 50
0.0
  1
DX
  0
TEXT
  8
QUOTATURA
 10
210.976
 20
703.042
 30
0.0
 40
30.0
 50
0.0
  1
VETRO PLEX=594
  0
TEXT
  8
TEXT
 10
1472.723
 20
2026.526
 30
0.0
 40
30.0
 50
0.0
  1
M
  0
TEXT
  8
TEXT
 10
1915.476
 20
1553.734
 30
0.0
 40
30.0
 50
0.0
  1
M
  0
TEXT
  8
TEXT
 10
1111.353
 20
1543.642
 30
0.0
 40
30.0
 50
0.0
  1
M
  0
TEXT
  8
TEXT
 10
1499.915
 20
-16.299
 30
0.0
 40
30.0
 50
0.0
  1
M
  0
TEXT
  8
TEXT
 10
1240.998
 20
1087.084
 30
0.0
 40
30.0
 50
0.0
  1
VETRO/PLEXIGLASS 4MM
  0
TEXT
  8
TEXT
 10
1240.998
 20
1042.084
 30
0.0
 40
30.0
 50
0.0
  1
+DECORO TRAFORATO
  0
TEXT
  8
TEXT
 10
1305.995
 20
1808.177
 30
0.0
 40
30.0
 50
0.0
  1
DECORO
  0
TEXT
  8
TEXT
 10
1305.995
 20
1763.177
 30
0.0
 40
30.0
 50
0.0
  1
LASER SUPERFICIE
  0
TEXT
  8
TEXT
 10
1337.571
 20
277.096
 30
0.0
 40
30.0
 50
0.0
  1
DECORO
  0
TEXT
  8
TEXT
 10
1337.571
 20
232.096
 30
0.0
 40
30.0
 50
0.0
  1
LASER SUPERFICIE
  0
TEXT
  8
TEXT
 10
1361.519
 20
1281.275
 30
0.0
 40
200.0
 50
0.0
  1
DX
  0
TEXT
  8
TEXT
 10
1193.447
 20
1827.813
 30
0.0
 40
30.0
 50
0.0
  1
V
  0
TEXT
  8
TEXT
 10
1194.29
 20
1300.383
 30
0.0
 40
30.0
 50
0.0
  1
V
  0
TEXT
  8
TEXT
 10
1407.275
 20
1531.955
 30
0.0
 40
30.0
 50
0.0
  1
V
  0
TEXT
  8
TEXT
 10
1398.762
 20
1608.406
 30
0.0
 40
30.0
 50
0.0
  1
V
  0
TEXT
  8
TEXT
 10
1500.018
 20
1935.865
 30
0.0
 40
30.0
 50
0.0
  1
V
  0
TEXT
  8
TEXT
 10
1441.251
 20
412.066
 30
0.0
 40
30.0
 50
0.0
  1
V
  0
TEXT
  8
TEXT
 10
1364.301
 20
483.471
 30
0.0
 40
30.0
 50
0.0
  1
V
  0
TEXT
  8
TEXT
 10
1614.747
 20
89.632
 30
0.0
 40
30.0
 50
0.0
  1
V
  0
TEXT
  8
TEXT
 10
1828.346
 20
1242.402
 30
0.0
 40
30.0
 50
0.0
  1
V
  0
TEXT
  8
QUOTATURA
 10
1683.419
 20
2083.735
 30
0.0
 40
30.0
 50
0.0
  1
100
  0
TEXT
  8
QUOTATURA
 10
1273.983
 20
1997.094
 30
0.0
 40
30.0
 50
0.0
  1
30
  0
TEXT
  8
QUOTATURA
 10
1665.723
 20
1705.895
 30
0.0
 40
30.0
 50
0.0
  1
300
  0
TEXT
  8
QUOTATURA
 10
1488.803
 20
331.94
 30
0.0
 40
30.0
 50
0.0
  1
300
  0
TEXT
  8
QUOTATURA
 10
1345.758
 20
38.13
 30
0.0
 40
30.0
 50
0.0
  1
30
  0
TEXT
  8
QUOTATURA
 10
1663.508
 20
35.0
 30
0.0
 40
30.0
 50
0.0
  1
100
  0
TEXT
  8
QUOTATURA
 10
1484.622
 20
-149.814
 30
0.0
 40
30.0
 50
0.0
  1
803
  0
TEXT
  8
QUOTATURA
 10
982.339
 20
969.142
 30
0.0
 40
30.0
 50
0.0
  1
114.5
  0
TEXT
  8
QUOTATURA
 10
1024.346
 20
883.863
 30
0.0
 40
30.0
 50
0.0
  1
30
  0
TEXT
  8
QUOTATURA
 10
1973.464
 20
897.47
 30
0.0
 40
30.0
 50
0.0
  1
114.5
  0
TEXT
  8
QUOTATURA
 10
1478.068
 20
830.116
 30
0.0
 40
30.0
 50
0.0
  1
1050
  0
TEXT
  8
QUOTATURA
 10
164.854
 20
602.64
 30
0.0
 40
30.0
 50
0.0
  1
VETRO PLEX=1070
  0
TEXT
  8
QUOTATURA
 10
2045.188
 20
1364.118
 30
0.0
 40
30.0
 50
0.0
  1
2040
  0
ENDSEC
  0
EOF
