  0
SECTION
  2
ENTITIES
  0
LINE
  8
COSTRUZIONI
 10
0.496854
 11
2000.496854
 20
-833.372141
 21
-833.372141
  0
LINE
  8
COSTRUZIONI
 10
2000.496854
 11
2000.496854
 20
-833.372141
 21
-633.372141
  0
LINE
  8
COSTRUZIONI
 10
2000.496854
 11
0.496854
 20
-633.372141
 21
-633.372141
  0
LINE
  8
COSTRUZIONI
 10
0.496854
 11
0.496854
 20
-633.372141
 21
-833.372141
  0
LINE
  8
COSTRUZIONI
 10
1000.496854
 11
1000.496854
 20
-833.372141
 21
-633.372141
  0
LINE
  8
COSTRUZIONI
 10
1000.496854
 11
2000.496854
 20
-733.372141
 21
-733.372141
  0
LINE
  8
COSTRUZIONI
 10
1500.496854
 11
1500.496854
 20
-833.372141
 21
-633.372141
  0
LINE
  8
APS_GEOMETRY
 10
63.181926
 11
80.416665
 20
-687.357251
 21
-687.357251
  0
ARC
  8
APS_GEOMETRY
 10
79.545068
 20
-662.661999
 40
24.710628
 50
272.021365
 51
278.440365
  0
ARC
  8
APS_GEOMETRY
 10
80.51781
 20
-669.217436
 40
18.083413
 50
278.440365
 51
285.945396
  0
ARC
  8
APS_GEOMETRY
 10
87.83495
 20
-695.414736
 40
9.117519
 50
98.583621
 51
104.931417
  0
ARC
  8
APS_GEOMETRY
 10
87.21899
 20
-691.334006
 40
4.990564
 50
90.0
 51
98.583621
  0
ARC
  8
APS_GEOMETRY
 10
87.21899
 20
-690.095135
 40
3.751692
 50
52.870717
 51
90.0
  0
ARC
  8
APS_GEOMETRY
 10
82.130391
 20
-696.816326
 40
12.181891
 50
32.517511
 51
52.870717
  0
ARC
  8
APS_GEOMETRY
 10
78.099169
 20
-699.38623
 40
16.962598
 50
17.208621
 51
32.517511
  0
ARC
  8
APS_GEOMETRY
 10
81.459039
 20
-698.345623
 40
13.445271
 50
0.0
 51
17.208621
  0
ARC
  8
APS_GEOMETRY
 10
88.186879
 20
-698.345623
 40
6.717431
 50
337.348108
 51
0.0
  0
ARC
  8
APS_GEOMETRY
 10
90.886794
 20
-699.472359
 40
3.791842
 50
307.042475
 51
337.348108
  0
ARC
  8
APS_GEOMETRY
 10
90.417544
 20
-698.827658
 40
4.589135
 50
287.185706
 51
306.869898
  0
ARC
  8
APS_GEOMETRY
 10
89.998787
 20
-697.473676
 40
6.006395
 50
270.0
 51
287.185706
  0
ARC
  8
APS_GEOMETRY
 10
89.998787
 20
-698.086585
 40
5.393486
 50
252.221439
 51
270.0
  0
ARC
  8
APS_GEOMETRY
 10
89.747702
 20
-698.869629
 40
4.57117
 50
232.895765
 51
252.221439
  0
ARC
  8
APS_GEOMETRY
 10
90.71823
 20
-697.586559
 40
6.179957
 50
218.299689
 51
232.895765
  0
ARC
  8
APS_GEOMETRY
 10
98.298467
 20
-691.600115
 40
15.83902
 50
209.197486
 51
218.299689
  0
ARC
  8
APS_GEOMETRY
 10
59.744698
 20
-712.487979
 40
28.011657
 50
28.024501
 51
32.699461
  0
ARC
  8
APS_GEOMETRY
 10
79.900805
 20
-699.548256
 40
4.059515
 50
32.699461
 51
45.0
  0
ARC
  8
APS_GEOMETRY
 10
81.275112
 20
-698.17395
 40
2.115953
 50
45.0
 51
67.557247
  0
ARC
  8
APS_GEOMETRY
 10
81.266956
 20
-698.193696
 40
2.137317
 50
67.557247
 51
90.0
  0
ARC
  8
APS_GEOMETRY
 10
81.266956
 20
-698.025165
 40
1.968787
 50
90.0
 51
120.801446
  0
ARC
  8
APS_GEOMETRY
 10
81.200427
 20
-697.913569
 40
1.838864
 50
120.801446
 51
152.700428
  0
ARC
  8
APS_GEOMETRY
 10
82.659238
 20
-698.666504
 40
3.480522
 50
152.700428
 51
171.085073
  0
ARC
  8
APS_GEOMETRY
 10
93.748161
 20
-700.405943
 40
14.705043
 50
171.085073
 51
180.0
  0
LINE
  8
APS_GEOMETRY
 10
79.043118
 11
79.043118
 20
-700.405943
 21
-718.719896
  0
ARC
  8
APS_GEOMETRY
 10
98.470189
 20
-718.719896
 40
19.42707
 50
180.0
 51
188.194263
  0
ARC
  8
APS_GEOMETRY
 10
83.962612
 20
-720.808987
 40
4.769851
 50
188.194263
 51
204.775141
  0
ARC
  8
APS_GEOMETRY
 10
82.553148
 20
-721.459509
 40
3.217508
 50
204.775141
 51
228.576334
  0
ARC
  8
APS_GEOMETRY
 10
83.875465
 20
-719.960883
 40
5.216108
 50
228.576334
 51
247.217594
  0
ARC
  8
APS_GEOMETRY
 10
76.206565
 20
-738.033037
 40
14.415923
 50
59.381395
 51
66.929588
  0
ARC
  8
APS_GEOMETRY
 10
81.867791
 20
-728.467517
 40
3.30068
 50
43.567904
 51
59.381395
  0
ARC
  8
APS_GEOMETRY
 10
82.773388
 20
-727.606095
 40
2.050818
 50
19.041231
 51
43.567904
  0
ARC
  8
APS_GEOMETRY
 10
81.515046
 20
-728.04039
 40
3.381997
 50
0.0
 51
19.041231
  0
ARC
  8
APS_GEOMETRY
 10
82.149606
 20
-728.04039
 40
2.747437
 50
317.65975
 51
0.0
  0
ARC
  8
APS_GEOMETRY
 10
79.627226
 20
-725.74196
 40
6.159941
 50
289.746837
 51
317.65975
  0
ARC
  8
APS_GEOMETRY
 10
77.514769
 20
-719.857259
 40
12.412315
 50
281.964396
 51
289.746837
  0
ARC
  8
APS_GEOMETRY
 10
74.58794
 20
-706.045415
 40
26.530862
 50
276.643452
 51
281.964396
  0
ARC
  8
APS_GEOMETRY
 10
73.356144
 20
-695.469569
 40
37.178202
 50
272.836113
 51
276.643452
  0
ARC
  8
APS_GEOMETRY
 10
71.881054
 20
-665.693822
 40
66.990463
 50
270.0
 51
272.836113
  0
ARC
  8
APS_GEOMETRY
 10
71.881054
 20
-647.244032
 40
85.440254
 50
267.283141
 51
270.0
  0
ARC
  8
APS_GEOMETRY
 10
70.087159
 20
-685.047086
 40
47.59466
 50
263.64272
 51
267.283141
  0
ARC
  8
APS_GEOMETRY
 10
68.584894
 20
-698.530839
 40
34.02748
 50
258.563267
 51
263.64272
  0
ARC
  8
APS_GEOMETRY
 10
64.996143
 20
-716.270352
 40
15.928599
 50
251.136412
 51
258.563267
  0
ARC
  8
APS_GEOMETRY
 10
61.792033
 20
-725.563088
 40
6.099088
 50
222.557585
 51
251.395035
  0
ARC
  8
APS_GEOMETRY
 10
59.414539
 20
-727.746059
 40
2.871421
 50
180.0
 51
222.557585
  0
ARC
  8
APS_GEOMETRY
 10
58.934878
 20
-727.746059
 40
2.39176
 50
150.642246
 51
180.0
  0
ARC
  8
APS_GEOMETRY
 10
59.126527
 20
-727.853861
 40
2.611648
 50
122.574057
 51
150.642246
  0
ARC
  8
APS_GEOMETRY
 10
58.619575
 20
-727.271472
 40
1.851424
 50
108.676702
 51
119.054604
  0
ARC
  8
APS_GEOMETRY
 10
81.735149
 20
-795.655046
 40
74.036208
 50
107.037768
 51
108.676702
  0
ARC
  8
APS_GEOMETRY
 10
59.180743
 20
-721.891547
 40
3.098808
 50
286.144339
 51
308.659808
  0
ARC
  8
APS_GEOMETRY
 10
59.688181
 20
-722.525845
 40
2.286512
 50
308.659808
 51
334.932537
  0
ARC
  8
APS_GEOMETRY
 10
57.623464
 20
-721.56009
 40
4.565927
 50
334.932537
 51
348.829022
  0
ARC
  8
APS_GEOMETRY
 10
31.797586
 20
-716.460022
 40
30.890567
 50
348.829022
 51
354.160508
  0
ARC
  8
APS_GEOMETRY
 10
14.341676
 20
-714.660718
 40
48.438962
 50
354.143986
 51
355.660291
  0
ARC
  8
APS_GEOMETRY
 10
-63.034595
 20
-708.788835
 40
126.037715
 50
355.660291
 51
356.600286
  0
ARC
  8
APS_GEOMETRY
 10
-122.183621
 20
-705.275031
 40
185.291018
 50
356.600286
 51
357.239747
  0
ARC
  8
APS_GEOMETRY
 10
-290.008721
 20
-697.183713
 40
353.311058
 50
357.239747
 51
357.702834
  0
ARC
  8
APS_GEOMETRY
 10
-273.488425
 20
-697.846418
 40
336.777476
 50
357.702834
 51
358.674384
  0
ARC
  8
APS_GEOMETRY
 10
-117.656144
 20
-701.452454
 40
180.903478
 50
358.674384
 51
0.0
  0
ARC
  8
APS_GEOMETRY
 10
36.437267
 20
-701.452454
 40
26.810067
 50
0.0
 51
6.241914
  0
ARC
  8
APS_GEOMETRY
 10
57.756508
 20
-699.120662
 40
5.363685
 50
6.241914
 51
20.224859
  0
ARC
  8
APS_GEOMETRY
 10
60.711293
 20
-698.032057
 40
2.214746
 50
20.224859
 51
50.440332
  0
ARC
  8
APS_GEOMETRY
 10
61.285124
 20
-697.33742
 40
1.313744
 50
50.440332
 51
90.0
  0
ARC
  8
APS_GEOMETRY
 10
61.285124
 20
-697.785993
 40
1.762317
 50
90.0
 51
126.747471
  0
ARC
  8
APS_GEOMETRY
 10
63.775139
 20
-701.120833
 40
5.924208
 50
126.747471
 51
146.546691
  0
ARC
  8
APS_GEOMETRY
 10
19.787407
 20
-672.207894
 40
46.714947
 50
324.255019
 51
326.700579
  0
ARC
  8
APS_GEOMETRY
 10
38.410358
 20
-685.612024
 40
23.769686
 50
320.826342
 51
324.255019
  0
ARC
  8
APS_GEOMETRY
 10
44.496917
 20
-690.571442
 40
15.918442
 50
315.721571
 51
320.826342
  0
ARC
  8
APS_GEOMETRY
 10
51.49106
 20
-697.391601
 40
6.14948
 50
307.504142
 51
315.721571
  0
ARC
  8
APS_GEOMETRY
 10
50.845768
 20
-696.530304
 40
7.225632
 50
291.305784
 51
307.405357
  0
ARC
  8
APS_GEOMETRY
 10
51.96463
 20
-699.399181
 40
4.146296
 50
270.0
 51
291.305784
  0
ARC
  8
APS_GEOMETRY
 10
51.96463
 20
-699.666521
 40
3.878957
 50
245.531798
 51
270.0
  0
ARC
  8
APS_GEOMETRY
 10
51.935288
 20
-699.731001
 40
3.808114
 50
220.833495
 51
245.531798
  0
ARC
  8
APS_GEOMETRY
 10
52.328415
 20
-699.391261
 40
4.327703
 50
198.683699
 51
220.833495
  0
ARC
  8
APS_GEOMETRY
 10
53.969884
 20
-698.836175
 40
6.060487
 50
180.0
 51
198.683699
  0
ARC
  8
APS_GEOMETRY
 10
57.817094
 20
-698.836175
 40
9.907696
 50
168.407825
 51
180.0
  0
ARC
  8
APS_GEOMETRY
 10
64.169847
 20
-700.139304
 40
16.392726
 50
159.401826
 51
168.407825
  0
ARC
  8
APS_GEOMETRY
 10
66.133039
 20
-700.877148
 40
18.489996
 50
151.38954
 51
159.401826
  0
ARC
  8
APS_GEOMETRY
 10
65.730656
 20
-700.657666
 40
18.031646
 50
143.275893
 51
151.38954
  0
ARC
  8
APS_GEOMETRY
 10
60.681061
 20
-696.881729
 40
11.726407
 50
124.215702
 51
143.310277
  0
ARC
  8
APS_GEOMETRY
 10
56.18338
 20
-690.267492
 40
3.727828
 50
90.0
 51
124.215702
  0
ARC
  8
APS_GEOMETRY
 10
56.18338
 20
-691.924063
 40
5.3844
 50
82.724995
 51
90.0
  0
ARC
  8
APS_GEOMETRY
 10
55.762685
 20
-695.219506
 40
8.706586
 50
77.005383
 51
82.724995
  0
ARC
  8
APS_GEOMETRY
 10
68.611048
 20
-633.272921
 40
54.560918
 50
258.486169
 51
260.377772
  0
ARC
  8
APS_GEOMETRY
 10
63.107061
 20
-665.737839
 40
21.632741
 50
260.377772
 51
263.382083
  0
ARC
  8
APS_GEOMETRY
 10
62.636293
 20
-669.795458
 40
17.547904
 50
263.382083
 51
267.083862
  0
ARC
  8
APS_GEOMETRY
 10
63.181926
 20
-659.084206
 40
28.273045
 50
267.083862
 51
270.0
  0
ARC
  8
APS_GEOMETRY
 10
122.908961
 20
-712.223078
 40
25.781524
 50
71.909511
 51
90.0
  0
ARC
  8
APS_GEOMETRY
 10
123.907461
 20
-709.166445
 40
22.565936
 50
52.561428
 51
71.909511
  0
ARC
  8
APS_GEOMETRY
 10
123.645934
 20
-709.242507
 40
22.785888
 50
38.846006
 51
52.155542
  0
ARC
  8
APS_GEOMETRY
 10
120.0738
 20
-712.119302
 40
27.372399
 50
26.707224
 51
38.846006
  0
ARC
  8
APS_GEOMETRY
 10
120.780934
 20
-711.54139
 40
26.481717
 50
13.867603
 51
26.277857
  0
ARC
  8
APS_GEOMETRY
 10
125.880656
 20
-710.282396
 40
21.228887
 50
0.0
 51
13.867603
  0
ARC
  8
APS_GEOMETRY
 10
126.210862
 20
-710.282396
 40
20.898681
 50
339.712247
 51
0.0
  0
ARC
  8
APS_GEOMETRY
 10
125.034359
 20
-709.847481
 40
22.152997
 50
320.013114
 51
339.712247
  0
ARC
  8
APS_GEOMETRY
 10
124.839261
 20
-709.739933
 40
22.371633
 50
303.343757
 51
320.123166
  0
ARC
  8
APS_GEOMETRY
 10
122.543531
 20
-706.250829
 40
26.548261
 50
287.949403
 51
303.343757
  0
ARC
  8
APS_GEOMETRY
 10
121.789277
 20
-703.635719
 40
29.268668
 50
279.039483
 51
287.776406
  0
ARC
  8
APS_GEOMETRY
 10
122.091374
 20
-705.534614
 40
27.345893
 50
270.0
 51
279.039483
  0
ARC
  8
APS_GEOMETRY
 10
122.091374
 20
-706.869654
 40
26.010853
 50
257.72804
 51
270.0
  0
ARC
  8
APS_GEOMETRY
 10
122.132302
 20
-706.681499
 40
26.203407
 50
245.501426
 51
257.72804
  0
ARC
  8
APS_GEOMETRY
 10
120.659596
 20
-709.904274
 40
22.660086
 50
228.665185
 51
245.510859
  0
ARC
  8
APS_GEOMETRY
 10
120.169799
 20
-710.461115
 40
21.918485
 50
211.534792
 51
228.665185
  0
ARC
  8
APS_GEOMETRY
 10
120.811777
 20
-709.989673
 40
22.712325
 50
195.642246
 51
211.70143
  0
ARC
  8
APS_GEOMETRY
 10
121.985503
 20
-709.66103
 40
23.931193
 50
180.0
 51
195.642246
  0
ARC
  8
APS_GEOMETRY
 10
122.237069
 20
-709.66103
 40
24.182759
 50
162.181111
 51
180.0
  0
ARC
  8
APS_GEOMETRY
 10
120.030576
 20
-708.9518
 40
21.865083
 50
143.433519
 51
162.181111
  0
ARC
  8
APS_GEOMETRY
 10
119.733693
 20
-708.714018
 40
21.484982
 50
126.384352
 51
143.471145
  0
ARC
  8
APS_GEOMETRY
 10
121.767824
 20
-711.474625
 40
24.91407
 50
110.525108
 51
126.384352
  0
ARC
  8
APS_GEOMETRY
 10
121.667136
 20
-710.725009
 40
24.177325
 50
99.7697
 51
110.924502
  0
ARC
  8
APS_GEOMETRY
 10
122.908961
 20
-717.937147
 40
31.495593
 50
90.0
 51
99.7697
  0
ARC
  8
APS_GEOMETRY
 10
119.80213
 20
-700.634611
 40
4.807157
 50
90.0
 51
119.604451
  0
ARC
  8
APS_GEOMETRY
 10
120.223173
 20
-701.375646
 40
5.659453
 50
119.604451
 51
146.842076
  0
ARC
  8
APS_GEOMETRY
 10
121.069349
 20
-702.069413
 40
6.74833
 50
145.840305
 51
164.054604
  0
ARC
  8
APS_GEOMETRY
 10
123.030634
 20
-702.62978
 40
8.788097
 50
164.054604
 51
180.0
  0
ARC
  8
APS_GEOMETRY
 10
135.29509
 20
-702.62978
 40
21.052553
 50
180.0
 51
189.976729
  0
ARC
  8
APS_GEOMETRY
 10
153.946687
 20
-699.348811
 40
39.990527
 50
189.976729
 51
197.211115
  0
ARC
  8
APS_GEOMETRY
 10
158.026201
 20
-698.085123
 40
44.261281
 50
197.211115
 51
203.760424
  0
ARC
  8
APS_GEOMETRY
 10
147.863501
 20
-702.559025
 40
33.157396
 50
203.760424
 51
211.328693
  0
ARC
  8
APS_GEOMETRY
 10
126.995364
 20
-715.08277
 40
8.821499
 50
212.319617
 51
224.440823
  0
ARC
  8
APS_GEOMETRY
 10
126.139944
 20
-715.921654
 40
7.623388
 50
224.440823
 51
237.483626
  0
ARC
  8
APS_GEOMETRY
 10
125.58715
 20
-716.788819
 40
6.595013
 50
237.483626
 51
252.415923
  0
ARC
  8
APS_GEOMETRY
 10
125.034688
 20
-718.532082
 40
4.766303
 50
252.415923
 51
270.0
  0
ARC
  8
APS_GEOMETRY
 10
125.034688
 20
-717.966924
 40
5.331461
 50
270.0
 51
294.952847
  0
ARC
  8
APS_GEOMETRY
 10
125.184062
 20
-718.287946
 40
4.977388
 50
294.952847
 51
320.792796
  0
ARC
  8
APS_GEOMETRY
 10
124.383412
 20
-717.634784
 40
6.010664
 50
320.792796
 51
342.776564
  0
ARC
  8
APS_GEOMETRY
 10
120.8156
 20
-716.528762
 40
9.745978
 50
342.776564
 51
0.0
  0
ARC
  8
APS_GEOMETRY
 10
104.05448
 20
-716.528762
 40
26.507098
 50
0.0
 51
8.498559
  0
ARC
  8
APS_GEOMETRY
 10
92.387152
 20
-718.272156
 40
38.30396
 50
8.498559
 51
15.566318
  0
ARC
  8
APS_GEOMETRY
 10
93.789965
 20
-717.881372
 40
36.847733
 50
15.566318
 51
22.908635
  0
ARC
  8
APS_GEOMETRY
 10
105.853668
 20
-712.783322
 40
23.751053
 50
22.908635
 51
32.057376
  0
ARC
  8
APS_GEOMETRY
 10
115.329403
 20
-706.813741
 40
12.551777
 50
31.920876
 51
42.510447
  0
ARC
  8
APS_GEOMETRY
 10
117.931447
 20
-704.428534
 40
9.021927
 50
42.510447
 51
55.00798
  0
ARC
  8
APS_GEOMETRY
 10
118.81032
 20
-703.173002
 40
7.489354
 50
55.00798
 51
69.880367
  0
ARC
  8
APS_GEOMETRY
 10
119.598436
 20
-701.021657
 40
5.198196
 50
69.880367
 51
87.754257
  0
ARC
  8
APS_GEOMETRY
 10
171.329746
 20
-702.424813
 40
15.98326
 50
83.922511
 51
90.0
  0
ARC
  8
APS_GEOMETRY
 10
170.044068
 20
-714.5001
 40
28.126798
 50
79.342054
 51
83.922511
  0
ARC
  8
APS_GEOMETRY
 10
168.493329
 20
-722.740304
 40
36.511651
 50
75.80788
 51
79.342054
  0
ARC
  8
APS_GEOMETRY
 10
163.082687
 20
-744.135327
 40
58.580227
 50
73.017894
 51
75.80788
  0
ARC
  8
APS_GEOMETRY
 10
182.134031
 20
-681.642357
 40
6.752259
 50
253.288427
 51
259.045937
  0
ARC
  8
APS_GEOMETRY
 10
181.2062
 20
-686.43615
 40
1.869502
 50
259.045937
 51
270.0
  0
ARC
  8
APS_GEOMETRY
 10
181.2062
 20
-687.195961
 40
1.109691
 50
270.0
 51
286.699244
  0
ARC
  8
APS_GEOMETRY
 10
172.333005
 20
-657.618644
 40
31.989317
 50
286.699244
 51
289.798876
  0
ARC
  8
APS_GEOMETRY
 10
184.222654
 20
-690.52831
 40
3.002492
 50
100.00798
 51
110.556045
  0
ARC
  8
APS_GEOMETRY
 10
184.280328
 20
-690.855126
 40
3.334357
 50
90.0
 51
100.00798
  0
ARC
  8
APS_GEOMETRY
 10
184.280328
 20
-690.699917
 40
3.179149
 50
53.355929
 51
90.0
  0
ARC
  8
APS_GEOMETRY
 10
178.726577
 20
-698.166044
 40
12.484373
 50
35.100706
 51
53.355929
  0
ARC
  8
APS_GEOMETRY
 10
175.955452
 20
-700.113674
 40
15.871465
 50
20.244574
 51
35.100706
  0
ARC
  8
APS_GEOMETRY
 10
182.788831
 20
-697.593443
 40
8.588153
 50
0.0
 51
20.244574
  0
ARC
  8
APS_GEOMETRY
 10
186.227224
 20
-697.593443
 40
5.149761
 50
340.480718
 51
0.0
  0
ARC
  8
APS_GEOMETRY
 10
187.075106
 20
-697.894014
 40
4.250179
 50
318.972496
 51
340.480718
  0
ARC
  8
APS_GEOMETRY
 10
187.453665
 20
-698.223411
 40
3.748373
 50
295.016893
 51
318.972496
  0
ARC
  8
APS_GEOMETRY
 10
187.58338
 20
-698.50137
 40
3.441636
 50
270.0
 51
295.016893
  0
ARC
  8
APS_GEOMETRY
 10
187.58338
 20
-696.657598
 40
5.285409
 50
256.171349
 51
270.0
  0
ARC
  8
APS_GEOMETRY
 10
187.007098
 20
-698.998743
 40
2.874379
 50
237.380757
 51
256.171349
  0
ARC
  8
APS_GEOMETRY
 10
188.027674
 20
-697.404093
 40
4.767653
 50
231.559211
 51
237.380757
  0
ARC
  8
APS_GEOMETRY
 10
202.870366
 20
-678.704638
 40
28.641805
 50
229.184916
 51
231.559211
  0
ARC
  8
APS_GEOMETRY
 10
218.777788
 20
-660.285519
 40
52.979225
 50
227.899934
 51
229.184916
  0
ARC
  8
APS_GEOMETRY
 10
273.830752
 20
-599.357337
 40
135.095437
 50
227.095253
 51
227.899934
  0
ARC
  8
APS_GEOMETRY
 10
170.468016
 20
-710.518905
 40
16.696392
 50
46.974934
 51
64.612094
  0
ARC
  8
APS_GEOMETRY
 10
174.142246
 20
-702.776778
 40
8.126649
 50
64.612094
 51
90.0
  0
ARC
  8
APS_GEOMETRY
 10
174.142246
 20
-700.505963
 40
5.855835
 50
90.0
 51
106.966148
  0
ARC
  8
APS_GEOMETRY
 10
173.4639
 20
-698.282496
 40
3.531193
 50
106.966148
 51
128.867778
  0
ARC
  8
APS_GEOMETRY
 10
173.071124
 20
-697.795163
 40
2.90528
 50
128.867778
 51
154.740609
  0
ARC
  8
APS_GEOMETRY
 10
173.198093
 20
-697.855071
 40
3.045672
 50
154.740609
 51
180.0
  0
ARC
  8
APS_GEOMETRY
 10
173.013379
 20
-697.855071
 40
2.860958
 50
180.0
 51
206.640144
  0
ARC
  8
APS_GEOMETRY
 10
173.933688
 20
-697.393407
 40
3.89057
 50
206.640144
 51
229.429559
  0
ARC
  8
APS_GEOMETRY
 10
175.409336
 20
-695.66994
 40
6.159464
 50
229.429559
 51
244.493062
  0
ARC
  8
APS_GEOMETRY
 10
179.454963
 20
-687.190749
 40
15.554345
 50
244.493062
 51
253.955733
  0
ARC
  8
APS_GEOMETRY
 10
107.384025
 20
-932.11972
 40
239.758367
 50
72.73731
 51
73.580493
  0
ARC
  8
APS_GEOMETRY
 10
148.687689
 20
-799.20414
 40
100.573081
 50
71.435423
 51
72.73731
  0
ARC
  8
APS_GEOMETRY
 10
162.368324
 20
-758.469662
 40
57.602655
 50
69.164305
 51
71.435423
  0
ARC
  8
APS_GEOMETRY
 10
178.513164
 20
-716.047704
 40
12.212366
 50
64.230672
 51
69.164305
  0
ARC
  8
APS_GEOMETRY
 10
176.656426
 20
-719.786479
 40
16.386607
 50
34.93931
 51
64.067526
  0
ARC
  8
APS_GEOMETRY
 10
180.66408
 20
-716.986611
 40
11.497789
 50
0.0
 51
34.93931
  0
ARC
  8
APS_GEOMETRY
 10
178.200185
 20
-716.986611
 40
13.961684
 50
333.434949
 51
0.0
  0
ARC
  8
APS_GEOMETRY
 10
177.287436
 20
-716.530237
 40
14.982168
 50
307.80653
 51
333.434949
  0
ARC
  8
APS_GEOMETRY
 10
174.912197
 20
-713.45765
 40
18.865789
 50
296.732094
 51
307.785738
  0
ARC
  8
APS_GEOMETRY
 10
173.506885
 20
-710.667391
 40
21.98996
 50
286.495988
 51
296.732094
  0
ARC
  8
APS_GEOMETRY
 10
172.581297
 20
-707.541857
 40
25.249665
 50
277.544213
 51
286.495988
  0
ARC
  8
APS_GEOMETRY
 10
171.231636
 20
-697.350935
 40
35.529571
 50
270.0
 51
277.544213
  0
ARC
  8
APS_GEOMETRY
 10
171.231636
 20
-695.809641
 40
37.070866
 50
263.55502
 51
270.0
  0
ARC
  8
APS_GEOMETRY
 10
172.431735
 20
-685.185808
 40
47.762268
 50
257.87769
 51
263.55502
  0
ARC
  8
APS_GEOMETRY
 10
171.794704
 20
-688.151657
 40
44.728776
 50
254.83911
 51
257.87769
  0
ARC
  8
APS_GEOMETRY
 10
166.62819
 20
-707.219021
 40
24.973847
 50
250.772225
 51
254.83911
  0
ARC
  8
APS_GEOMETRY
 10
164.304443
 20
-713.881511
 40
17.917745
 50
245.120665
 51
250.772225
  0
ARC
  8
APS_GEOMETRY
 10
160.370857
 20
-722.363706
 40
8.56784
 50
236.944177
 51
245.120665
  0
ARC
  8
APS_GEOMETRY
 10
158.051186
 20
-726.01419
 40
4.243206
 50
211.80188
 51
236.309932
  0
ARC
  8
APS_GEOMETRY
 10
169.075625
 20
-719.178248
 40
17.215035
 50
199.704454
 51
211.80188
  0
ARC
  8
APS_GEOMETRY
 10
174.340292
 20
-717.292762
 40
22.807153
 50
190.41311
 51
199.704454
  0
ARC
  8
APS_GEOMETRY
 10
169.777702
 20
-718.131233
 40
18.168159
 50
180.0
 51
190.41311
  0
ARC
  8
APS_GEOMETRY
 10
157.478134
 20
-718.131233
 40
5.868591
 50
164.875993
 51
180.0
  0
ARC
  8
APS_GEOMETRY
 10
154.17162
 20
-717.237581
 40
2.443441
 50
141.340192
 51
164.875993
  0
ARC
  8
APS_GEOMETRY
 10
154.491441
 20
-717.451666
 40
2.827106
 50
116.927678
 51
142.001268
  0
ARC
  8
APS_GEOMETRY
 10
154.323932
 20
-717.121883
 40
2.45722
 50
90.0
 51
116.927678
  0
ARC
  8
APS_GEOMETRY
 10
154.323932
 20
-717.128295
 40
2.463631
 50
62.209558
 51
90.0
  0
ARC
  8
APS_GEOMETRY
 10
153.34028
 20
-718.994711
 40
4.57339
 50
41.905942
 51
62.209558
  0
ARC
  8
APS_GEOMETRY
 10
153.507227
 20
-719.029737
 40
4.474651
 50
37.313278
 51
43.66778
  0
ARC
  8
APS_GEOMETRY
 10
128.439458
 20
-738.135442
 40
35.993232
 50
35.073754
 51
37.313278
  0
ARC
  8
APS_GEOMETRY
 10
99.971948
 20
-758.123268
 40
70.777026
 50
33.933582
 51
35.073754
  0
ARC
  8
APS_GEOMETRY
 10
-1.525692
 20
-826.413237
 40
193.109731
 50
33.243326
 51
33.933582
  0
ARC
  8
APS_GEOMETRY
 10
165.593964
 20
-716.843146
 40
6.726706
 50
213.453309
 51
231.636906
  0
ARC
  8
APS_GEOMETRY
 10
168.772496
 20
-712.827527
 40
11.848059
 50
231.636906
 51
245.313085
  0
ARC
  8
APS_GEOMETRY
 10
169.472594
 20
-711.304486
 40
13.524302
 50
245.313085
 51
257.398477
  0
ARC
  8
APS_GEOMETRY
 10
169.236723
 20
-712.359583
 40
12.443162
 50
257.398477
 51
270.0
  0
ARC
  8
APS_GEOMETRY
 10
169.236723
 20
-714.296884
 40
10.505861
 50
270.0
 51
282.907409
  0
ARC
  8
APS_GEOMETRY
 10
170.367208
 20
-719.229911
 40
5.444957
 50
282.907409
 51
300.872083
  0
ARC
  8
APS_GEOMETRY
 10
171.347446
 20
-720.869581
 40
3.534621
 50
300.872083
 51
326.876264
  0
ARC
  8
APS_GEOMETRY
 10
172.463526
 20
-721.597803
 40
2.201976
 50
326.876264
 51
0.0
  0
ARC
  8
APS_GEOMETRY
 10
172.134471
 20
-721.597803
 40
2.531031
 50
0.0
 51
27.552812
  0
ARC
  8
APS_GEOMETRY
 10
171.333962
 20
-722.01546
 40
3.433944
 50
27.552812
 51
51.146626
  0
ARC
  8
APS_GEOMETRY
 10
169.679391
 20
-724.06941
 40
6.071427
 50
51.146626
 51
65.224859
  0
ARC
  8
APS_GEOMETRY
 10
163.576059
 20
-737.293295
 40
20.635828
 50
65.224859
 51
72.847578
  0
ARC
  8
APS_GEOMETRY
 10
199.217538
 20
-623.653925
 40
98.461959
 50
251.105878
 51
252.531977
  0
ARC
  8
APS_GEOMETRY
 10
186.601252
 20
-660.515419
 40
59.501204
 50
249.271334
 51
251.105878
  0
ARC
  8
APS_GEOMETRY
 10
181.356348
 20
-674.374683
 40
44.682696
 50
246.829602
 51
249.271334
  0
ARC
  8
APS_GEOMETRY
 10
172.872524
 20
-694.197204
 40
23.120979
 50
243.434949
 51
246.829602
  0
ARC
  8
APS_GEOMETRY
 10
171.906772
 20
-696.128708
 40
20.961492
 50
235.98065
 51
243.434949
  0
ARC
  8
APS_GEOMETRY
 10
172.648379
 20
-695.030031
 40
22.287038
 50
228.751729
 51
235.98065
  0
ARC
  8
APS_GEOMETRY
 10
169.174124
 20
-699.124067
 40
16.918465
 50
206.42073
 51
228.456619
  0
ARC
  8
APS_GEOMETRY
 10
164.619518
 20
-701.387047
 40
11.83265
 50
180.0
 51
206.42073
  0
ARC
  8
APS_GEOMETRY
 10
164.834338
 20
-701.387047
 40
12.04747
 50
166.55482
 51
180.0
  0
ARC
  8
APS_GEOMETRY
 10
166.22946
 20
-701.720575
 40
13.481906
 50
153.848132
 51
166.55482
  0
ARC
  8
APS_GEOMETRY
 10
166.345649
 20
-701.777626
 40
13.611345
 50
141.243612
 51
153.848132
  0
ARC
  8
APS_GEOMETRY
 10
167.205879
 20
-702.468191
 40
14.714466
 50
129.122607
 51
141.243612
  0
ARC
  8
APS_GEOMETRY
 10
169.95886
 20
-705.395351
 40
18.724658
 50
108.978219
 51
130.006256
  0
ARC
  8
APS_GEOMETRY
 10
171.329746
 20
-709.381615
 40
22.940062
 50
90.0
 51
108.978219
  0
ARC
  8
APS_GEOMETRY
 10
221.320299
 20
-707.70538
 40
21.263827
 50
77.257003
 51
90.0
  0
ARC
  8
APS_GEOMETRY
 10
221.104241
 20
-708.660759
 40
22.243331
 50
64.798876
 51
77.257003
  0
ARC
  8
APS_GEOMETRY
 10
239.42182
 20
-669.662183
 40
20.842904
 50
244.885165
 51
251.17529
  0
ARC
  8
APS_GEOMETRY
 10
233.453293
 20
-687.169864
 40
2.345817
 50
251.17529
 51
270.0
  0
ARC
  8
APS_GEOMETRY
 10
233.453293
 20
-685.709294
 40
3.806387
 50
270.0
 51
278.82038
  0
ARC
  8
APS_GEOMETRY
 10
230.994204
 20
-669.861834
 40
19.843503
 50
278.82038
 51
282.680383
  0
ARC
  8
APS_GEOMETRY
 10
236.139574
 20
-692.642427
 40
3.51099
 50
95.906141
 51
102.994617
  0
ARC
  8
APS_GEOMETRY
 10
236.298496
 20
-694.178671
 40
5.055431
 50
90.0
 51
95.906141
  0
ARC
  8
APS_GEOMETRY
 10
236.298496
 20
-692.478753
 40
3.355514
 50
62.447188
 51
90.0
  0
ARC
  8
APS_GEOMETRY
 10
235.701812
 20
-693.622399
 40
4.645459
 50
39.093859
 51
62.447188
  0
ARC
  8
APS_GEOMETRY
 10
229.467671
 20
-698.836079
 40
12.772091
 50
18.434949
 51
39.610688
  0
ARC
  8
APS_GEOMETRY
 10
225.641075
 20
-700.111611
 40
16.805677
 50
0.0
 51
18.434949
  0
ARC
  8
APS_GEOMETRY
 10
234.113478
 20
-700.111611
 40
8.333274
 50
334.876872
 51
0.0
  0
ARC
  8
APS_GEOMETRY
 10
236.619825
 20
-701.286904
 40
5.565045
 50
304.007492
 51
334.876872
  0
ARC
  8
APS_GEOMETRY
 10
236.578515
 20
-701.169357
 40
5.68568
 50
286.38954
 51
303.690068
  0
ARC
  8
APS_GEOMETRY
 10
236.396607
 20
-700.55087
 40
6.330364
 50
270.0
 51
286.38954
  0
ARC
  8
APS_GEOMETRY
 10
236.396607
 20
-700.624658
 40
6.256576
 50
255.154548
 51
270.0
  0
ARC
  8
APS_GEOMETRY
 10
235.711201
 20
-703.210508
 40
3.58143
 50
235.491477
 51
255.154548
  0
ARC
  8
APS_GEOMETRY
 10
236.055236
 20
-702.710093
 40
4.188699
 50
218.480198
 51
235.491477
  0
ARC
  8
APS_GEOMETRY
 10
241.676109
 20
-698.242219
 40
11.368958
 50
208.17859
 51
218.480198
  0
ARC
  8
APS_GEOMETRY
 10
184.051612
 20
-729.521372
 40
54.197767
 50
28.55962
 51
31.663799
  0
ARC
  8
APS_GEOMETRY
 10
219.263803
 20
-707.804602
 40
12.827288
 50
31.663799
 51
38.047043
  0
ARC
  8
APS_GEOMETRY
 10
221.824055
 20
-705.800927
 40
9.576196
 50
38.047043
 51
46.5602
  0
ARC
  8
APS_GEOMETRY
 10
220.493268
 20
-707.206238
 40
11.511627
 50
46.5602
 51
54.323592
  0
ARC
  8
APS_GEOMETRY
 10
219.725121
 20
-708.527647
 40
13.033852
 50
54.968356
 51
71.480419
  0
ARC
  8
APS_GEOMETRY
 10
220.568118
 20
-706.01105
 40
10.379817
 50
71.480419
 51
90.0
  0
ARC
  8
APS_GEOMETRY
 10
220.568118
 20
-702.881795
 40
7.250562
 50
90.0
 51
114.629635
  0
ARC
  8
APS_GEOMETRY
 10
220.204019
 20
-702.087618
 40
6.3769
 50
114.629635
 51
140.920621
  0
ARC
  8
APS_GEOMETRY
 10
221.279803
 20
-702.961242
 40
7.762732
 50
140.920621
 51
163.129646
  0
ARC
  8
APS_GEOMETRY
 10
226.657226
 20
-704.591989
 40
13.381985
 50
163.129646
 51
180.0
  0
ARC
  8
APS_GEOMETRY
 10
233.630699
 20
-704.591989
 40
20.355459
 50
180.0
 51
195.439646
  0
ARC
  8
APS_GEOMETRY
 10
232.572625
 20
-704.884219
 40
19.25777
 50
195.439646
 51
211.31598
  0
ARC
  8
APS_GEOMETRY
 10
227.483382
 20
-707.873553
 40
13.356544
 50
211.707816
 51
240.456928
  0
ARC
  8
APS_GEOMETRY
 10
227.141519
 20
-708.476735
 40
12.663219
 50
240.456928
 51
270.0
  0
ARC
  8
APS_GEOMETRY
 10
227.141519
 20
-705.389273
 40
15.750681
 50
270.0
 51
279.549134
  0
ARC
  8
APS_GEOMETRY
 10
226.945707
 20
-704.225279
 40
16.931031
 50
279.549134
 51
288.75865
  0
ARC
  8
APS_GEOMETRY
 10
227.771101
 20
-706.655604
 40
14.364369
 50
288.75865
 51
299.544635
  0
ARC
  8
APS_GEOMETRY
 10
231.08075
 20
-712.494771
 40
7.652465
 50
299.544635
 51
314.341457
  0
ARC
  8
APS_GEOMETRY
 10
241.315866
 20
-723.125747
 40
7.10519
 50
120.141386
 51
133.451842
  0
ARC
  8
APS_GEOMETRY
 10
238.456926
 20
-718.202018
 40
1.411627
 50
90.0
 51
120.141386
  0
ARC
  8
APS_GEOMETRY
 10
238.456926
 20
-719.019989
 40
2.229599
 50
61.951894
 51
90.0
  0
ARC
  8
APS_GEOMETRY
 10
238.124873
 20
-719.643228
 40
2.935776
 50
37.568592
 51
61.951894
  0
ARC
  8
APS_GEOMETRY
 10
237.505592
 20
-720.119597
 40
3.71708
 50
17.665186
 51
37.568592
  0
ARC
  8
APS_GEOMETRY
 10
236.560829
 20
-720.420478
 40
4.708598
 50
0.0
 51
17.665186
  0
ARC
  8
APS_GEOMETRY
 10
234.188846
 20
-720.420478
 40
7.08058
 50
344.931512
 51
0.0
  0
ARC
  8
APS_GEOMETRY
 10
227.890819
 20
-718.724855
 40
13.602871
 50
334.075098
 51
344.931512
  0
ARC
  8
APS_GEOMETRY
 10
227.692769
 20
-718.62858
 40
13.823082
 50
323.374259
 51
334.075098
  0
ARC
  8
APS_GEOMETRY
 10
231.756533
 20
-721.649432
 40
8.759514
 50
309.920392
 51
323.374259
  0
ARC
  8
APS_GEOMETRY
 10
235.817573
 20
-726.440196
 40
2.479565
 50
289.025606
 51
308.990994
  0
ARC
  8
APS_GEOMETRY
 10
231.484617
 20
-713.874622
 40
15.771223
 50
281.14289
 51
289.025606
  0
ARC
  8
APS_GEOMETRY
 10
235.878639
 20
-736.656101
 40
7.430522
 50
100.437475
 51
110.119633
  0
ARC
  8
APS_GEOMETRY
 10
241.699778
 20
-752.546236
 40
24.353349
 50
110.119633
 51
115.463345
  0
ARC
  8
APS_GEOMETRY
 10
220.918665
 20
-709.065644
 40
23.838158
 50
282.940436
 51
295.628419
  0
ARC
  8
APS_GEOMETRY
 10
221.124078
 20
-709.959622
 40
22.920885
 50
270.0
 51
282.940436
  0
ARC
  8
APS_GEOMETRY
 10
221.124078
 20
-708.605699
 40
24.274807
 50
257.307334
 51
270.0
  0
ARC
  8
APS_GEOMETRY
 10
222.148808
 20
-704.055896
 40
28.938581
 50
245.686204
 51
257.307334
  0
ARC
  8
APS_GEOMETRY
 10
219.578587
 20
-709.697391
 40
22.739224
 50
228.800778
 51
245.735234
  0
ARC
  8
APS_GEOMETRY
 10
219.62165
 20
-709.6482
 40
22.804602
 50
211.890792
 51
228.800778
  0
ARC
  8
APS_GEOMETRY
 10
220.969259
 20
-708.678195
 40
24.461509
 50
196.727964
 51
212.152295
  0
ARC
  8
APS_GEOMETRY
 10
217.481472
 20
-709.726437
 40
20.819604
 50
180.0
 51
196.727964
  0
ARC
  8
APS_GEOMETRY
 10
217.988812
 20
-709.726437
 40
21.326944
 50
161.183932
 51
180.0
  0
ARC
  8
APS_GEOMETRY
 10
219.357135
 20
-710.19268
 40
22.77252
 50
142.980114
 51
161.183932
  0
ARC
  8
APS_GEOMETRY
 10
220.421202
 20
-711.006998
 40
24.112395
 50
127.824257
 51
142.957525
  0
ARC
  8
APS_GEOMETRY
 10
222.175181
 20
-713.266237
 40
26.972571
 50
113.520273
 51
127.824257
  0
ARC
  8
APS_GEOMETRY
 10
221.604279
 20
-711.94694
 40
25.535051
 50
101.926773
 51
113.527064
  0
ARC
  8
APS_GEOMETRY
 10
221.320299
 20
-710.602468
 40
24.160915
 50
90.0
 51
101.926773
  0
ARC
  8
APS_GEOMETRY
 10
271.801403
 20
-712.223078
 40
25.781524
 50
71.909511
 51
90.0
  0
ARC
  8
APS_GEOMETRY
 10
272.799903
 20
-709.166445
 40
22.565936
 50
52.561428
 51
71.909511
  0
ARC
  8
APS_GEOMETRY
 10
272.538375
 20
-709.242507
 40
22.785888
 50
38.846006
 51
52.155542
  0
ARC
  8
APS_GEOMETRY
 10
268.966242
 20
-712.119302
 40
27.372399
 50
26.707224
 51
38.846006
  0
ARC
  8
APS_GEOMETRY
 10
269.673376
 20
-711.54139
 40
26.481717
 50
13.867603
 51
26.277857
  0
ARC
  8
APS_GEOMETRY
 10
274.773097
 20
-710.282396
 40
21.228887
 50
0.0
 51
13.867603
  0
ARC
  8
APS_GEOMETRY
 10
275.103304
 20
-710.282396
 40
20.898681
 50
339.712247
 51
0.0
  0
ARC
  8
APS_GEOMETRY
 10
273.926801
 20
-709.847481
 40
22.152997
 50
320.013114
 51
339.712247
  0
ARC
  8
APS_GEOMETRY
 10
273.731703
 20
-709.739933
 40
22.371633
 50
303.343757
 51
320.123166
  0
ARC
  8
APS_GEOMETRY
 10
271.435973
 20
-706.250829
 40
26.548261
 50
287.949403
 51
303.343757
  0
ARC
  8
APS_GEOMETRY
 10
270.681719
 20
-703.635719
 40
29.268668
 50
279.039483
 51
287.776406
  0
ARC
  8
APS_GEOMETRY
 10
270.983816
 20
-705.534614
 40
27.345893
 50
270.0
 51
279.039483
  0
ARC
  8
APS_GEOMETRY
 10
270.983816
 20
-706.869654
 40
26.010853
 50
257.72804
 51
270.0
  0
ARC
  8
APS_GEOMETRY
 10
271.024744
 20
-706.681499
 40
26.203407
 50
245.501426
 51
257.72804
  0
ARC
  8
APS_GEOMETRY
 10
269.552038
 20
-709.904274
 40
22.660086
 50
228.665185
 51
245.510859
  0
ARC
  8
APS_GEOMETRY
 10
269.062241
 20
-710.461115
 40
21.918485
 50
211.534792
 51
228.665185
  0
ARC
  8
APS_GEOMETRY
 10
269.704219
 20
-709.989673
 40
22.712325
 50
195.642246
 51
211.70143
  0
ARC
  8
APS_GEOMETRY
 10
270.877945
 20
-709.66103
 40
23.931193
 50
180.0
 51
195.642246
  0
ARC
  8
APS_GEOMETRY
 10
271.129511
 20
-709.66103
 40
24.182759
 50
162.181111
 51
180.0
  0
ARC
  8
APS_GEOMETRY
 10
268.923018
 20
-708.9518
 40
21.865083
 50
143.433519
 51
162.181111
  0
ARC
  8
APS_GEOMETRY
 10
268.626135
 20
-708.714018
 40
21.484982
 50
126.384352
 51
143.471145
  0
ARC
  8
APS_GEOMETRY
 10
270.660266
 20
-711.474625
 40
24.91407
 50
110.525108
 51
126.384352
  0
ARC
  8
APS_GEOMETRY
 10
270.559578
 20
-710.725009
 40
24.177325
 50
99.7697
 51
110.924502
  0
ARC
  8
APS_GEOMETRY
 10
271.801403
 20
-717.937147
 40
31.495593
 50
90.0
 51
99.7697
  0
ARC
  8
APS_GEOMETRY
 10
268.694572
 20
-700.634611
 40
4.807157
 50
90.0
 51
119.604451
  0
ARC
  8
APS_GEOMETRY
 10
269.115614
 20
-701.375646
 40
5.659453
 50
119.604451
 51
146.842076
  0
ARC
  8
APS_GEOMETRY
 10
269.961791
 20
-702.069413
 40
6.74833
 50
145.840305
 51
164.054604
  0
ARC
  8
APS_GEOMETRY
 10
271.923076
 20
-702.62978
 40
8.788097
 50
164.054604
 51
180.0
  0
ARC
  8
APS_GEOMETRY
 10
284.187532
 20
-702.62978
 40
21.052553
 50
180.0
 51
189.976729
  0
ARC
  8
APS_GEOMETRY
 10
302.839129
 20
-699.348811
 40
39.990527
 50
189.976729
 51
197.211115
  0
ARC
  8
APS_GEOMETRY
 10
306.918643
 20
-698.085123
 40
44.261281
 50
197.211115
 51
203.760424
  0
ARC
  8
APS_GEOMETRY
 10
296.755943
 20
-702.559025
 40
33.157396
 50
203.760424
 51
211.328693
  0
ARC
  8
APS_GEOMETRY
 10
275.887806
 20
-715.08277
 40
8.821499
 50
212.319617
 51
224.440823
  0
ARC
  8
APS_GEOMETRY
 10
275.032386
 20
-715.921654
 40
7.623388
 50
224.440823
 51
237.483626
  0
ARC
  8
APS_GEOMETRY
 10
274.479592
 20
-716.788819
 40
6.595013
 50
237.483626
 51
252.415923
  0
ARC
  8
APS_GEOMETRY
 10
273.92713
 20
-718.532082
 40
4.766303
 50
252.415923
 51
270.0
  0
ARC
  8
APS_GEOMETRY
 10
273.92713
 20
-717.966924
 40
5.331461
 50
270.0
 51
294.952847
  0
ARC
  8
APS_GEOMETRY
 10
274.076503
 20
-718.287946
 40
4.977388
 50
294.952847
 51
320.792796
  0
ARC
  8
APS_GEOMETRY
 10
273.275854
 20
-717.634784
 40
6.010664
 50
320.792796
 51
342.776564
  0
ARC
  8
APS_GEOMETRY
 10
269.708042
 20
-716.528762
 40
9.745978
 50
342.776564
 51
0.0
  0
ARC
  8
APS_GEOMETRY
 10
252.946922
 20
-716.528762
 40
26.507098
 50
0.0
 51
8.498559
  0
ARC
  8
APS_GEOMETRY
 10
241.279594
 20
-718.272156
 40
38.30396
 50
8.498559
 51
15.566318
  0
ARC
  8
APS_GEOMETRY
 10
242.682407
 20
-717.881372
 40
36.847733
 50
15.566318
 51
22.908635
  0
ARC
  8
APS_GEOMETRY
 10
254.74611
 20
-712.783322
 40
23.751053
 50
22.908635
 51
32.057376
  0
ARC
  8
APS_GEOMETRY
 10
264.221845
 20
-706.813741
 40
12.551777
 50
31.920876
 51
42.510447
  0
ARC
  8
APS_GEOMETRY
 10
266.823889
 20
-704.428534
 40
9.021927
 50
42.510447
 51
55.00798
  0
ARC
  8
APS_GEOMETRY
 10
267.702761
 20
-703.173002
 40
7.489354
 50
55.00798
 51
69.880367
  0
ARC
  8
APS_GEOMETRY
 10
268.490878
 20
-701.021657
 40
5.198196
 50
69.880367
 51
87.754257
  0
ARC
  8
APS_GEOMETRY
 10
325.160415
 20
-707.70538
 40
21.263827
 50
77.257003
 51
90.0
  0
ARC
  8
APS_GEOMETRY
 10
324.944357
 20
-708.660759
 40
22.243331
 50
64.798876
 51
77.257003
  0
ARC
  8
APS_GEOMETRY
 10
343.261937
 20
-669.662183
 40
20.842904
 50
244.885165
 51
251.17529
  0
ARC
  8
APS_GEOMETRY
 10
337.293409
 20
-687.169864
 40
2.345817
 50
251.17529
 51
270.0
  0
ARC
  8
APS_GEOMETRY
 10
337.293409
 20
-685.709294
 40
3.806387
 50
270.0
 51
278.82038
  0
ARC
  8
APS_GEOMETRY
 10
334.83432
 20
-669.861834
 40
19.843503
 50
278.82038
 51
282.680383
  0
ARC
  8
APS_GEOMETRY
 10
339.979691
 20
-692.642427
 40
3.51099
 50
95.906141
 51
102.994617
  0
ARC
  8
APS_GEOMETRY
 10
340.138613
 20
-694.178671
 40
5.055431
 50
90.0
 51
95.906141
  0
ARC
  8
APS_GEOMETRY
 10
340.138613
 20
-692.478753
 40
3.355514
 50
62.447188
 51
90.0
  0
ARC
  8
APS_GEOMETRY
 10
339.541928
 20
-693.622399
 40
4.645459
 50
39.093859
 51
62.447188
  0
ARC
  8
APS_GEOMETRY
 10
333.307787
 20
-698.836079
 40
12.772091
 50
18.434949
 51
39.610688
  0
ARC
  8
APS_GEOMETRY
 10
329.481191
 20
-700.111611
 40
16.805677
 50
0.0
 51
18.434949
  0
ARC
  8
APS_GEOMETRY
 10
337.953594
 20
-700.111611
 40
8.333274
 50
334.876872
 51
0.0
  0
ARC
  8
APS_GEOMETRY
 10
340.459942
 20
-701.286904
 40
5.565045
 50
304.007492
 51
334.876872
  0
ARC
  8
APS_GEOMETRY
 10
340.418631
 20
-701.169357
 40
5.68568
 50
286.38954
 51
303.690068
  0
ARC
  8
APS_GEOMETRY
 10
340.236723
 20
-700.55087
 40
6.330364
 50
270.0
 51
286.38954
  0
ARC
  8
APS_GEOMETRY
 10
340.236723
 20
-700.624658
 40
6.256576
 50
255.154548
 51
270.0
  0
ARC
  8
APS_GEOMETRY
 10
339.551317
 20
-703.210508
 40
3.58143
 50
235.491477
 51
255.154548
  0
ARC
  8
APS_GEOMETRY
 10
339.895352
 20
-702.710093
 40
4.188699
 50
218.480198
 51
235.491477
  0
ARC
  8
APS_GEOMETRY
 10
345.516225
 20
-698.242219
 40
11.368958
 50
208.17859
 51
218.480198
  0
ARC
  8
APS_GEOMETRY
 10
287.891728
 20
-729.521372
 40
54.197767
 50
28.55962
 51
31.663799
  0
ARC
  8
APS_GEOMETRY
 10
323.103919
 20
-707.804602
 40
12.827288
 50
31.663799
 51
38.047043
  0
ARC
  8
APS_GEOMETRY
 10
325.664171
 20
-705.800927
 40
9.576196
 50
38.047043
 51
46.5602
  0
ARC
  8
APS_GEOMETRY
 10
324.333384
 20
-707.206238
 40
11.511627
 50
46.5602
 51
54.323592
  0
ARC
  8
APS_GEOMETRY
 10
323.565237
 20
-708.527647
 40
13.033852
 50
54.968356
 51
71.480419
  0
ARC
  8
APS_GEOMETRY
 10
324.408235
 20
-706.01105
 40
10.379817
 50
71.480419
 51
90.0
  0
ARC
  8
APS_GEOMETRY
 10
324.408235
 20
-702.881795
 40
7.250562
 50
90.0
 51
114.629635
  0
ARC
  8
APS_GEOMETRY
 10
324.044135
 20
-702.087618
 40
6.3769
 50
114.629635
 51
140.920621
  0
ARC
  8
APS_GEOMETRY
 10
325.11992
 20
-702.961242
 40
7.762732
 50
140.920621
 51
163.129646
  0
ARC
  8
APS_GEOMETRY
 10
330.497342
 20
-704.591989
 40
13.381985
 50
163.129646
 51
180.0
  0
ARC
  8
APS_GEOMETRY
 10
337.470815
 20
-704.591989
 40
20.355459
 50
180.0
 51
195.439646
  0
ARC
  8
APS_GEOMETRY
 10
336.412741
 20
-704.884219
 40
19.25777
 50
195.439646
 51
211.31598
  0
ARC
  8
APS_GEOMETRY
 10
331.323499
 20
-707.873553
 40
13.356544
 50
211.707816
 51
240.456928
  0
ARC
  8
APS_GEOMETRY
 10
330.981636
 20
-708.476735
 40
12.663219
 50
240.456928
 51
270.0
  0
ARC
  8
APS_GEOMETRY
 10
330.981636
 20
-705.389273
 40
15.750681
 50
270.0
 51
279.549134
  0
ARC
  8
APS_GEOMETRY
 10
330.785824
 20
-704.225279
 40
16.931031
 50
279.549134
 51
288.75865
  0
ARC
  8
APS_GEOMETRY
 10
331.611217
 20
-706.655604
 40
14.364369
 50
288.75865
 51
299.544635
  0
ARC
  8
APS_GEOMETRY
 10
334.920866
 20
-712.494771
 40
7.652465
 50
299.544635
 51
314.341457
  0
ARC
  8
APS_GEOMETRY
 10
345.155983
 20
-723.125747
 40
7.10519
 50
120.141386
 51
133.451842
  0
ARC
  8
APS_GEOMETRY
 10
342.297043
 20
-718.202018
 40
1.411627
 50
90.0
 51
120.141386
  0
ARC
  8
APS_GEOMETRY
 10
342.297043
 20
-719.019989
 40
2.229599
 50
61.951894
 51
90.0
  0
ARC
  8
APS_GEOMETRY
 10
341.964989
 20
-719.643228
 40
2.935776
 50
37.568592
 51
61.951894
  0
ARC
  8
APS_GEOMETRY
 10
341.345709
 20
-720.119597
 40
3.71708
 50
17.665186
 51
37.568592
  0
ARC
  8
APS_GEOMETRY
 10
340.400945
 20
-720.420478
 40
4.708598
 50
0.0
 51
17.665186
  0
ARC
  8
APS_GEOMETRY
 10
338.028962
 20
-720.420478
 40
7.08058
 50
344.931512
 51
0.0
  0
ARC
  8
APS_GEOMETRY
 10
331.730936
 20
-718.724855
 40
13.602871
 50
334.075098
 51
344.931512
  0
ARC
  8
APS_GEOMETRY
 10
331.532885
 20
-718.62858
 40
13.823082
 50
323.374259
 51
334.075098
  0
ARC
  8
APS_GEOMETRY
 10
335.596649
 20
-721.649432
 40
8.759514
 50
309.920392
 51
323.374259
  0
ARC
  8
APS_GEOMETRY
 10
339.65769
 20
-726.440196
 40
2.479565
 50
289.025606
 51
308.990994
  0
ARC
  8
APS_GEOMETRY
 10
335.324733
 20
-713.874622
 40
15.771223
 50
281.14289
 51
289.025606
  0
ARC
  8
APS_GEOMETRY
 10
339.718756
 20
-736.656101
 40
7.430522
 50
100.437475
 51
110.119633
  0
ARC
  8
APS_GEOMETRY
 10
345.539894
 20
-752.546236
 40
24.353349
 50
110.119633
 51
115.463345
  0
ARC
  8
APS_GEOMETRY
 10
324.758782
 20
-709.065644
 40
23.838158
 50
282.940436
 51
295.628419
  0
ARC
  8
APS_GEOMETRY
 10
324.964194
 20
-709.959622
 40
22.920885
 50
270.0
 51
282.940436
  0
ARC
  8
APS_GEOMETRY
 10
324.964194
 20
-708.605699
 40
24.274807
 50
257.307334
 51
270.0
  0
ARC
  8
APS_GEOMETRY
 10
325.988925
 20
-704.055896
 40
28.938581
 50
245.686204
 51
257.307334
  0
ARC
  8
APS_GEOMETRY
 10
323.418703
 20
-709.697391
 40
22.739224
 50
228.800778
 51
245.735234
  0
ARC
  8
APS_GEOMETRY
 10
323.461766
 20
-709.6482
 40
22.804602
 50
211.890792
 51
228.800778
  0
ARC
  8
APS_GEOMETRY
 10
324.809376
 20
-708.678195
 40
24.461509
 50
196.727964
 51
212.152295
  0
ARC
  8
APS_GEOMETRY
 10
321.321588
 20
-709.726437
 40
20.819604
 50
180.0
 51
196.727964
  0
ARC
  8
APS_GEOMETRY
 10
321.828928
 20
-709.726437
 40
21.326944
 50
161.183932
 51
180.0
  0
ARC
  8
APS_GEOMETRY
 10
323.197251
 20
-710.19268
 40
22.77252
 50
142.980114
 51
161.183932
  0
ARC
  8
APS_GEOMETRY
 10
324.261318
 20
-711.006998
 40
24.112395
 50
127.824257
 51
142.957525
  0
ARC
  8
APS_GEOMETRY
 10
326.015297
 20
-713.266237
 40
26.972571
 50
113.520273
 51
127.824257
  0
ARC
  8
APS_GEOMETRY
 10
325.444396
 20
-711.94694
 40
25.535051
 50
101.926773
 51
113.527064
  0
ARC
  8
APS_GEOMETRY
 10
325.160415
 20
-710.602468
 40
24.160915
 50
90.0
 51
101.926773
  0
ARC
  8
APS_GEOMETRY
 10
375.641519
 20
-712.223078
 40
25.781524
 50
71.909511
 51
90.0
  0
ARC
  8
APS_GEOMETRY
 10
376.640019
 20
-709.166445
 40
22.565936
 50
52.561428
 51
71.909511
  0
ARC
  8
APS_GEOMETRY
 10
376.378492
 20
-709.242507
 40
22.785888
 50
38.846006
 51
52.155542
  0
ARC
  8
APS_GEOMETRY
 10
372.806358
 20
-712.119302
 40
27.372399
 50
26.707224
 51
38.846006
  0
ARC
  8
APS_GEOMETRY
 10
373.513493
 20
-711.54139
 40
26.481717
 50
13.867603
 51
26.277857
  0
ARC
  8
APS_GEOMETRY
 10
378.613214
 20
-710.282396
 40
21.228887
 50
0.0
 51
13.867603
  0
ARC
  8
APS_GEOMETRY
 10
378.94342
 20
-710.282396
 40
20.898681
 50
339.712247
 51
0.0
  0
ARC
  8
APS_GEOMETRY
 10
377.766917
 20
-709.847481
 40
22.152997
 50
320.013114
 51
339.712247
  0
ARC
  8
APS_GEOMETRY
 10
377.571819
 20
-709.739933
 40
22.371633
 50
303.343757
 51
320.123166
  0
ARC
  8
APS_GEOMETRY
 10
375.27609
 20
-706.250829
 40
26.548261
 50
287.949403
 51
303.343757
  0
ARC
  8
APS_GEOMETRY
 10
374.521835
 20
-703.635719
 40
29.268668
 50
279.039483
 51
287.776406
  0
ARC
  8
APS_GEOMETRY
 10
374.823932
 20
-705.534614
 40
27.345893
 50
270.0
 51
279.039483
  0
ARC
  8
APS_GEOMETRY
 10
374.823932
 20
-706.869654
 40
26.010853
 50
257.72804
 51
270.0
  0
ARC
  8
APS_GEOMETRY
 10
374.86486
 20
-706.681499
 40
26.203407
 50
245.501426
 51
257.72804
  0
ARC
  8
APS_GEOMETRY
 10
373.392154
 20
-709.904274
 40
22.660086
 50
228.665185
 51
245.510859
  0
ARC
  8
APS_GEOMETRY
 10
372.902358
 20
-710.461115
 40
21.918485
 50
211.534792
 51
228.665185
  0
ARC
  8
APS_GEOMETRY
 10
373.544335
 20
-709.989673
 40
22.712325
 50
195.642246
 51
211.70143
  0
ARC
  8
APS_GEOMETRY
 10
374.718061
 20
-709.66103
 40
23.931193
 50
180.0
 51
195.642246
  0
ARC
  8
APS_GEOMETRY
 10
374.969627
 20
-709.66103
 40
24.182759
 50
162.181111
 51
180.0
  0
ARC
  8
APS_GEOMETRY
 10
372.763134
 20
-708.9518
 40
21.865083
 50
143.433519
 51
162.181111
  0
ARC
  8
APS_GEOMETRY
 10
372.466251
 20
-708.714018
 40
21.484982
 50
126.384352
 51
143.471145
  0
ARC
  8
APS_GEOMETRY
 10
374.500383
 20
-711.474625
 40
24.91407
 50
110.525108
 51
126.384352
  0
ARC
  8
APS_GEOMETRY
 10
374.399694
 20
-710.725009
 40
24.177325
 50
99.7697
 51
110.924502
  0
ARC
  8
APS_GEOMETRY
 10
375.641519
 20
-717.937147
 40
31.495593
 50
90.0
 51
99.7697
  0
ARC
  8
APS_GEOMETRY
 10
372.534688
 20
-700.634611
 40
4.807157
 50
90.0
 51
119.604451
  0
ARC
  8
APS_GEOMETRY
 10
372.955731
 20
-701.375646
 40
5.659453
 50
119.604451
 51
146.842076
  0
ARC
  8
APS_GEOMETRY
 10
373.801907
 20
-702.069413
 40
6.74833
 50
145.840305
 51
164.054604
  0
ARC
  8
APS_GEOMETRY
 10
375.763192
 20
-702.62978
 40
8.788097
 50
164.054604
 51
180.0
  0
ARC
  8
APS_GEOMETRY
 10
388.027648
 20
-702.62978
 40
21.052553
 50
180.0
 51
189.976729
  0
ARC
  8
APS_GEOMETRY
 10
406.679246
 20
-699.348811
 40
39.990527
 50
189.976729
 51
197.211115
  0
ARC
  8
APS_GEOMETRY
 10
410.758759
 20
-698.085123
 40
44.261281
 50
197.211115
 51
203.760424
  0
ARC
  8
APS_GEOMETRY
 10
400.59606
 20
-702.559025
 40
33.157396
 50
203.760424
 51
211.328693
  0
ARC
  8
APS_GEOMETRY
 10
379.727922
 20
-715.08277
 40
8.821499
 50
212.319617
 51
224.440823
  0
ARC
  8
APS_GEOMETRY
 10
378.872502
 20
-715.921654
 40
7.623388
 50
224.440823
 51
237.483626
  0
ARC
  8
APS_GEOMETRY
 10
378.319709
 20
-716.788819
 40
6.595013
 50
237.483626
 51
252.415923
  0
ARC
  8
APS_GEOMETRY
 10
377.767246
 20
-718.532082
 40
4.766303
 50
252.415923
 51
270.0
  0
ARC
  8
APS_GEOMETRY
 10
377.767246
 20
-717.966924
 40
5.331461
 50
270.0
 51
294.952847
  0
ARC
  8
APS_GEOMETRY
 10
377.91662
 20
-718.287946
 40
4.977388
 50
294.952847
 51
320.792796
  0
ARC
  8
APS_GEOMETRY
 10
377.11597
 20
-717.634784
 40
6.010664
 50
320.792796
 51
342.776564
  0
ARC
  8
APS_GEOMETRY
 10
373.548158
 20
-716.528762
 40
9.745978
 50
342.776564
 51
0.0
  0
ARC
  8
APS_GEOMETRY
 10
356.787038
 20
-716.528762
 40
26.507098
 50
0.0
 51
8.498559
  0
ARC
  8
APS_GEOMETRY
 10
345.11971
 20
-718.272156
 40
38.30396
 50
8.498559
 51
15.566318
  0
ARC
  8
APS_GEOMETRY
 10
346.522524
 20
-717.881372
 40
36.847733
 50
15.566318
 51
22.908635
  0
ARC
  8
APS_GEOMETRY
 10
358.586226
 20
-712.783322
 40
23.751053
 50
22.908635
 51
32.057376
  0
ARC
  8
APS_GEOMETRY
 10
368.061961
 20
-706.813741
 40
12.551777
 50
31.920876
 51
42.510447
  0
ARC
  8
APS_GEOMETRY
 10
370.664005
 20
-704.428534
 40
9.021927
 50
42.510447
 51
55.00798
  0
ARC
  8
APS_GEOMETRY
 10
371.542878
 20
-703.173002
 40
7.489354
 50
55.00798
 51
69.880367
  0
ARC
  8
APS_GEOMETRY
 10
372.330994
 20
-701.021657
 40
5.198196
 50
69.880367
 51
87.754257
  0
ARC
  8
APS_GEOMETRY
 10
426.155328
 20
-715.645483
 40
2.419773
 50
90.0
 51
115.836754
  0
ARC
  8
APS_GEOMETRY
 10
425.55955
 20
-714.415073
 40
1.05271
 50
115.836754
 51
155.462272
  0
ARC
  8
APS_GEOMETRY
 10
426.254831
 20
-714.732484
 40
1.817018
 50
155.462272
 51
168.366366
  0
ARC
  8
APS_GEOMETRY
 10
432.600819
 20
-716.039011
 40
8.296105
 50
168.366366
 51
174.395461
  0
ARC
  8
APS_GEOMETRY
 10
438.996455
 20
-716.66662
 40
14.722461
 50
174.395461
 51
177.813405
  0
ARC
  8
APS_GEOMETRY
 10
460.224978
 20
-717.477164
 40
35.966453
 50
177.813405
 51
180.0
  0
ARC
  8
APS_GEOMETRY
 10
475.593249
 20
-717.477164
 40
51.334724
 50
180.0
 51
184.619923
  0
ARC
  8
APS_GEOMETRY
 10
441.17342
 20
-720.258564
 40
16.802697
 50
184.619923
 51
192.699584
  0
ARC
  8
APS_GEOMETRY
 10
427.903277
 20
-723.17208
 40
3.217564
 50
194.036243
 51
205.820992
  0
ARC
  8
APS_GEOMETRY
 10
426.497922
 20
-723.852091
 40
1.656336
 50
205.820992
 51
222.273689
  0
ARC
  8
APS_GEOMETRY
 10
426.928449
 20
-723.460703
 40
2.238175
 50
222.273689
 51
234.605204
  0
ARC
  8
APS_GEOMETRY
 10
431.788839
 20
-716.620155
 40
10.629629
 50
234.605204
 51
240.255119
  0
ARC
  8
APS_GEOMETRY
 10
424.40012
 20
-729.694612
 40
4.388594
 50
34.592289
 51
61.189206
  0
ARC
  8
APS_GEOMETRY
 10
425.850341
 20
-728.69446
 40
2.626934
 50
0.0
 51
34.592289
  0
ARC
  8
APS_GEOMETRY
 10
425.93801
 20
-728.69446
 40
2.539265
 50
318.230949
 51
0.0
  0
ARC
  8
APS_GEOMETRY
 10
424.239867
 20
-727.177794
 40
4.816098
 50
288.227257
 51
318.230949
  0
ARC
  8
APS_GEOMETRY
 10
422.478765
 20
-721.829948
 40
10.446456
 50
280.377402
 51
288.227257
  0
ARC
  8
APS_GEOMETRY
 10
419.408906
 20
-705.06637
 40
27.488803
 50
275.540609
 51
280.377402
  0
ARC
  8
APS_GEOMETRY
 10
418.085994
 20
-691.428717
 40
41.19047
 50
272.304132
 51
275.540609
  0
ARC
  8
APS_GEOMETRY
 10
416.475095
 20
-651.392855
 40
81.258728
 50
270.0
 51
272.304132
  0
ARC
  8
APS_GEOMETRY
 10
416.475095
 20
-684.851587
 40
47.799995
 50
262.811463
 51
270.0
  0
ARC
  8
APS_GEOMETRY
 10
412.186012
 20
-718.85789
 40
13.524277
 50
249.274441
 51
262.811463
  0
ARC
  8
APS_GEOMETRY
 10
409.488069
 20
-725.988166
 40
5.900647
 50
221.378515
 51
249.274441
  0
ARC
  8
APS_GEOMETRY
 10
407.121395
 20
-728.073094
 40
2.746591
 50
180.0
 51
221.378515
  0
ARC
  8
APS_GEOMETRY
 10
407.103278
 20
-728.073094
 40
2.728474
 50
164.054604
 51
180.0
  0
ARC
  8
APS_GEOMETRY
 10
405.965871
 20
-727.74812
 40
1.545552
 50
142.815294
 51
164.054604
  0
ARC
  8
APS_GEOMETRY
 10
406.681703
 20
-728.291166
 40
2.444059
 50
129.007473
 51
142.815294
  0
ARC
  8
APS_GEOMETRY
 10
415.473663
 20
-739.145437
 40
16.412372
 50
123.690068
 51
129.007473
  0
ARC
  8
APS_GEOMETRY
 10
402.997181
 20
-720.372567
 40
6.128392
 50
303.388514
 51
319.02199
  0
ARC
  8
APS_GEOMETRY
 10
404.655695
 20
-721.813174
 40
3.931572
 50
319.02199
 51
338.574706
  0
ARC
  8
APS_GEOMETRY
 10
402.4362
 20
-720.942233
 40
6.315832
 50
338.574706
 51
351.048929
  0
ARC
  8
APS_GEOMETRY
 10
375.630123
 20
-716.72003
 40
33.45239
 50
351.048929
 51
356.460441
  0
ARC
  8
APS_GEOMETRY
 10
384.466144
 20
-717.05625
 40
24.613362
 50
355.971736
 51
358.680054
  0
ARC
  8
APS_GEOMETRY
 10
94.275212
 20
-710.369823
 40
314.881317
 50
358.680054
 51
359.437191
  0
LINE
  8
APS_GEOMETRY
 10
409.141338
 11
409.171997
 20
-713.46281
 21
-708.551155
  0
LINE
  8
APS_GEOMETRY
 10
409.171997
 11
409.182217
 20
-708.551155
 21
-702.139228
  0
ARC
  8
APS_GEOMETRY
 10
333.372977
 20
-702.139228
 40
75.80924
 50
0.0
 51
1.717132
  0
ARC
  8
APS_GEOMETRY
 10
373.941489
 20
-700.923041
 40
35.222502
 50
1.717132
 51
4.236395
  0
ARC
  8
APS_GEOMETRY
 10
387.170723
 20
-699.943098
 40
21.957024
 50
4.236395
 51
8.268833
  0
ARC
  8
APS_GEOMETRY
 10
402.394394
 20
-697.730661
 40
6.573427
 50
8.268833
 51
15.642246
  0
ARC
  8
APS_GEOMETRY
 10
405.014379
 20
-696.997065
 40
3.852677
 50
15.642246
 51
39.417394
  0
ARC
  8
APS_GEOMETRY
 10
405.073295
 20
-696.948641
 40
3.776414
 50
39.417394
 51
63.434949
  0
ARC
  8
APS_GEOMETRY
 10
411.874635
 20
-682.859059
 40
11.86934
 50
236.873849
 51
244.48613
  0
ARC
  8
APS_GEOMETRY
 10
406.815164
 20
-690.612535
 40
2.611121
 50
220.601295
 51
236.873849
  0
ARC
  8
APS_GEOMETRY
 10
406.234847
 20
-691.109949
 40
1.846799
 50
198.245855
 51
220.601295
  0
ARC
  8
APS_GEOMETRY
 10
407.102769
 20
-690.823821
 40
2.760668
 50
180.0
 51
198.245855
  0
ARC
  8
APS_GEOMETRY
 10
407.089685
 20
-690.823821
 40
2.747584
 50
156.16126
 51
180.0
  0
ARC
  8
APS_GEOMETRY
 10
407.472897
 20
-690.993147
 40
3.166539
 50
133.97697
 51
156.16126
  0
ARC
  8
APS_GEOMETRY
 10
408.236351
 20
-691.784363
 40
4.266032
 50
116.995838
 51
133.97697
  0
ARC
  8
APS_GEOMETRY
 10
409.753192
 20
-694.761866
 40
7.607638
 50
104.300277
 51
116.995838
  0
ARC
  8
APS_GEOMETRY
 10
410.145167
 20
-696.267849
 40
9.16378
 50
95.325741
 51
104.349332
  0
ARC
  8
APS_GEOMETRY
 10
411.733089
 20
-713.301925
 40
26.271709
 50
90.0
 51
95.325741
  0
ARC
  8
APS_GEOMETRY
 10
411.733089
 20
-700.043174
 40
13.012958
 50
87.552951
 51
90.0
  0
ARC
  8
APS_GEOMETRY
 10
408.964389
 20
-764.830748
 40
77.859665
 50
86.552613
 51
87.552951
  0
ARC
  8
APS_GEOMETRY
 10
405.02784
 20
-830.177467
 40
143.324848
 50
86.009087
 51
86.552613
  0
ARC
  8
APS_GEOMETRY
 10
389.719938
 20
-1049.590727
 40
363.271456
 50
85.667686
 51
86.009087
  0
ARC
  8
APS_GEOMETRY
 10
418.368045
 20
-672.280039
 40
15.125382
 50
265.426079
 51
268.531199
  0
ARC
  8
APS_GEOMETRY
 10
419.71274
 20
-619.836928
 40
67.58573
 50
268.531199
 51
270.0
  0
ARC
  8
APS_GEOMETRY
 10
419.71274
 20
-635.912026
 40
51.510632
 50
270.0
 51
271.636577
  0
ARC
  8
APS_GEOMETRY
 10
418.561753
 20
-595.627483
 40
91.811614
 50
271.636577
 51
272.862405
  0
ARC
  8
APS_GEOMETRY
 10
417.240275
 20
-569.197905
 40
118.274209
 50
272.862405
 51
273.814075
  0
ARC
  8
APS_GEOMETRY
 10
412.766684
 20
-502.094042
 40
185.527026
 50
273.814075
 51
274.573921
  0
ARC
  8
APS_GEOMETRY
 10
440.82876
 20
-867.084837
 40
180.54275
 50
93.719877
 51
94.214179
  0
ARC
  8
APS_GEOMETRY
 10
434.839663
 20
-774.966818
 40
88.230244
 50
93.012788
 51
93.719877
  0
ARC
  8
APS_GEOMETRY
 10
433.197775
 20
-743.770947
 40
56.991196
 50
91.91828
 51
93.012788
  0
ARC
  8
APS_GEOMETRY
 10
431.911142
 20
-705.355747
 40
18.554456
 50
90.0
 51
91.91828
  0
ARC
  8
APS_GEOMETRY
 10
431.911142
 20
-710.909868
 40
24.108577
 50
73.820397
 51
90.0
  0
ARC
  8
APS_GEOMETRY
 10
434.287275
 20
-702.720282
 40
15.581248
 50
53.657551
 51
73.820397
  0
ARC
  8
APS_GEOMETRY
 10
437.667017
 20
-698.100791
 40
9.857439
 50
26.029592
 51
53.569142
  0
ARC
  8
APS_GEOMETRY
 10
436.62998
 20
-698.607251
 40
11.011539
 50
0.0
 51
26.029592
  0
ARC
  8
APS_GEOMETRY
 10
436.198503
 20
-698.607251
 40
11.443017
 50
345.281696
 51
0.0
  0
ARC
  8
APS_GEOMETRY
 10
437.299264
 20
-698.896406
 40
10.30491
 50
329.767161
 51
345.281696
  0
ARC
  8
APS_GEOMETRY
 10
437.922904
 20
-699.259852
 40
9.583094
 50
313.168137
 51
329.767161
  0
ARC
  8
APS_GEOMETRY
 10
438.153838
 20
-699.506046
 40
9.24554
 50
296.266638
 51
313.168137
  0
ARC
  8
APS_GEOMETRY
 10
443.416984
 20
-710.140011
 40
2.619643
 50
116.565051
 51
139.899092
  0
ARC
  8
APS_GEOMETRY
 10
442.110322
 20
-709.039664
 40
0.911389
 50
139.899092
 51
180.0
  0
ARC
  8
APS_GEOMETRY
 10
442.211634
 20
-709.039664
 40
1.012702
 50
180.0
 51
226.193489
  0
ARC
  8
APS_GEOMETRY
 10
444.082566
 20
-707.089118
 40
3.715481
 50
226.193489
 51
249.829347
  0
ARC
  8
APS_GEOMETRY
 10
438.721425
 20
-721.850351
 40
11.989195
 50
53.249344
 51
70.104569
  0
ARC
  8
APS_GEOMETRY
 10
441.156701
 20
-718.589199
 40
7.9191
 50
32.471192
 51
53.249344
  0
ARC
  8
APS_GEOMETRY
 10
440.021692
 20
-719.311478
 40
9.264437
 50
23.304891
 51
32.471192
  0
ARC
  8
APS_GEOMETRY
 10
433.011592
 20
-722.331213
 40
16.89728
 50
16.520892
 51
23.304891
  0
ARC
  8
APS_GEOMETRY
 10
427.546066
 20
-723.952344
 40
22.598161
 50
11.429216
 51
16.520892
  0
ARC
  8
APS_GEOMETRY
 10
412.056202
 20
-727.083869
 40
38.401399
 50
7.52382
 51
11.429216
  0
ARC
  8
APS_GEOMETRY
 10
463.384396
 20
-720.247823
 40
13.380105
 50
187.765166
 51
196.914179
  0
ARC
  8
APS_GEOMETRY
 10
452.441164
 20
-723.57559
 40
1.942082
 50
196.914179
 51
221.081751
  0
ARC
  8
APS_GEOMETRY
 10
452.482886
 20
-723.539216
 40
1.997434
 50
221.081751
 51
244.607077
  0
ARC
  8
APS_GEOMETRY
 10
457.156274
 20
-713.693947
 40
12.895593
 50
244.607077
 51
253.810794
  0
ARC
  8
APS_GEOMETRY
 10
453.047463
 20
-727.703908
 40
1.704862
 50
51.449535
 51
72.474432
  0
ARC
  8
APS_GEOMETRY
 10
452.625617
 20
-728.233283
 40
2.381761
 50
33.690068
 51
51.449535
  0
ARC
  8
APS_GEOMETRY
 10
452.526963
 20
-728.299053
 40
2.500329
 50
16.638806
 51
33.690068
  0
ARC
  8
APS_GEOMETRY
 10
452.40761
 20
-728.334722
 40
2.624898
 50
0.0
 51
16.638806
  0
ARC
  8
APS_GEOMETRY
 10
452.370984
 20
-728.334722
 40
2.661524
 50
338.993211
 51
0.0
  0
ARC
  8
APS_GEOMETRY
 10
450.745847
 20
-727.710669
 40
4.40236
 50
322.696052
 51
338.993211
  0
ARC
  8
APS_GEOMETRY
 10
450.140345
 20
-727.249334
 40
5.163585
 50
308.603415
 51
322.696052
  0
ARC
  8
APS_GEOMETRY
 10
449.723638
 20
-726.727398
 40
5.831464
 50
295.346176
 51
308.603415
  0
ARC
  8
APS_GEOMETRY
 10
447.532442
 20
-721.901216
 40
11.131419
 50
279.582945
 51
294.904769
  0
ARC
  8
APS_GEOMETRY
 10
444.665502
 20
-704.920112
 40
28.352836
 50
270.0
 51
279.582945
  0
ARC
  8
APS_GEOMETRY
 10
444.665502
 20
-712.601263
 40
20.671686
 50
261.247402
 51
270.0
  0
ARC
  8
APS_GEOMETRY
 10
443.341371
 20
-721.201687
 40
11.969926
 50
249.737083
 51
261.247402
  0
ARC
  8
APS_GEOMETRY
 10
442.470951
 20
-723.559426
 40
9.456649
 50
235.344857
 51
249.737083
  0
ARC
  8
APS_GEOMETRY
 10
441.3718
 20
-725.149461
 40
7.523686
 50
219.198413
 51
235.344857
  0
ARC
  8
APS_GEOMETRY
 10
443.684789
 20
-723.1772
 40
10.562859
 50
209.075569
 51
219.559668
  0
ARC
  8
APS_GEOMETRY
 10
449.025529
 20
-720.207564
 40
16.673689
 50
200.735234
 51
209.075569
  0
ARC
  8
APS_GEOMETRY
 10
456.395071
 20
-717.417666
 40
24.553643
 50
197.881035
 51
200.735234
  0
ARC
  8
APS_GEOMETRY
 10
486.676572
 20
-707.648076
 40
56.3721
 50
195.997451
 51
197.881035
  0
ARC
  8
APS_GEOMETRY
 10
509.058512
 20
-701.231236
 40
79.655722
 50
194.663974
 51
195.997451
  0
ARC
  8
APS_GEOMETRY
 10
571.053748
 20
-685.008747
 40
143.738313
 50
193.671307
 51
194.663974
  0
ARC
  8
APS_GEOMETRY
 10
413.843255
 20
-723.229172
 40
18.051498
 50
13.609732
 51
23.584501
  0
ARC
  8
APS_GEOMETRY
 10
425.662685
 20
-718.069196
 40
5.154821
 50
23.584501
 51
42.31023
  0
ARC
  8
APS_GEOMETRY
 10
426.734694
 20
-717.093393
 40
3.705202
 50
42.31023
 51
67.520566
  0
ARC
  8
APS_GEOMETRY
 10
425.886333
 20
-719.1436
 40
5.924
 50
67.520566
 51
87.397438
  0
LINE
  8
APS_GEOMETRY
 10
424.291229
 11
423.93149
 20
-696.546931
 21
-704.166844
  0
LINE
  8
APS_GEOMETRY
 10
423.93149
 11
423.93149
 20
-704.166844
 21
-704.289482
  0
LINE
  8
APS_GEOMETRY
 10
423.93149
 11
423.93149
 20
-704.289482
 21
-704.461175
  0
ARC
  8
APS_GEOMETRY
 10
429.225783
 20
-704.461175
 40
5.294293
 50
180.0
 51
192.339087
  0
ARC
  8
APS_GEOMETRY
 10
425.016601
 20
-705.381934
 40
0.98558
 50
192.339087
 51
221.185925
  0
ARC
  8
APS_GEOMETRY
 10
424.916225
 20
-705.469763
 40
0.852203
 50
221.185925
 51
253.872424
  0
ARC
  8
APS_GEOMETRY
 10
425.632072
 20
-702.994126
 40
3.429258
 50
253.872424
 51
270.0
  0
ARC
  8
APS_GEOMETRY
 10
425.632072
 20
-698.452787
 40
7.970597
 50
270.0
 51
289.56871
  0
ARC
  8
APS_GEOMETRY
 10
427.081116
 20
-702.52922
 40
3.644278
 50
289.56871
 51
318.680622
  0
ARC
  8
APS_GEOMETRY
 10
426.689164
 20
-702.184647
 40
4.166157
 50
318.680622
 51
344.628325
  0
ARC
  8
APS_GEOMETRY
 10
419.386415
 20
-700.177018
 40
11.739843
 50
344.628325
 51
0.0
  0
ARC
  8
APS_GEOMETRY
 10
422.858225
 20
-700.177018
 40
8.268032
 50
0.0
 51
35.36883
  0
ARC
  8
APS_GEOMETRY
 10
426.64588
 20
-697.488372
 40
3.623127
 50
35.36883
 51
90.0
  0
ARC
  8
APS_GEOMETRY
 10
426.64588
 20
-697.52818
 40
3.662935
 50
90.0
 51
108.434949
  0
ARC
  8
APS_GEOMETRY
 10
425.93322
 20
-695.3902
 40
1.409306
 50
108.434949
 51
138.366461
  0
ARC
  8
APS_GEOMETRY
 10
426.124499
 20
-695.560225
 40
1.665228
 50
138.366461
 51
164.291362
  0
ARC
  8
APS_GEOMETRY
 10
430.609528
 20
-696.82164
 40
6.324268
 50
164.291362
 51
177.510447
  0
LINE
  8
APS_GEOMETRY
 10
482.509979
 11
498.796316
 20
-688.927018
 21
-703.185739
  0
ARC
  8
APS_GEOMETRY
 10
514.028193
 20
-685.706536
 40
23.18475
 50
228.930176
 51
232.67448
  0
ARC
  8
APS_GEOMETRY
 10
505.554787
 20
-696.8192
 40
9.210133
 50
232.67448
 51
238.616809
  0
ARC
  8
APS_GEOMETRY
 10
503.422819
 20
-700.314229
 40
5.116172
 50
238.616809
 51
249.130652
  0
ARC
  8
APS_GEOMETRY
 10
502.066665
 20
-703.871355
 40
1.309297
 50
249.130652
 51
270.0
  0
ARC
  8
APS_GEOMETRY
 10
502.066665
 20
-704.032644
 40
1.148008
 50
270.0
 51
334.898391
  0
ARC
  8
APS_GEOMETRY
 10
496.768381
 20
-701.550565
 40
6.998865
 50
334.898391
 51
0.0
  0
ARC
  8
APS_GEOMETRY
 10
445.537255
 20
-701.550565
 40
58.229991
 50
0.0
 51
2.026128
  0
ARC
  8
APS_GEOMETRY
 10
476.42423
 20
-700.457865
 40
27.323694
 50
2.026128
 51
4.984115
  0
ARC
  8
APS_GEOMETRY
 10
486.523401
 20
-699.577124
 40
17.186191
 50
4.984115
 51
9.673355
  0
ARC
  8
APS_GEOMETRY
 10
498.162825
 20
-697.593131
 40
5.378888
 50
9.673355
 51
18.060472
  0
ARC
  8
APS_GEOMETRY
 10
499.934646
 20
-697.015363
 40
3.515245
 50
18.060472
 51
42.397438
  0
ARC
  8
APS_GEOMETRY
 10
499.362689
 20
-697.537584
 40
4.289744
 50
42.397438
 51
64.397812
  0
ARC
  8
APS_GEOMETRY
 10
504.586419
 20
-686.751563
 40
7.694704
 50
233.63342
 51
244.025606
  0
ARC
  8
APS_GEOMETRY
 10
501.741262
 20
-690.615357
 40
2.896389
 50
216.656108
 51
233.63342
  0
ARC
  8
APS_GEOMETRY
 10
501.304996
 20
-690.940021
 40
2.352574
 50
196.081652
 51
216.656108
  0
ARC
  8
APS_GEOMETRY
 10
502.729026
 20
-690.529489
 40
3.8346
 50
180.0
 51
196.081652
  0
ARC
  8
APS_GEOMETRY
 10
501.682396
 20
-690.529489
 40
2.78797
 50
133.202068
 51
180.0
  0
ARC
  8
APS_GEOMETRY
 10
503.881019
 20
-692.870615
 40
5.999637
 50
101.788183
 51
133.202068
  0
ARC
  8
APS_GEOMETRY
 10
504.393564
 20
-695.167224
 40
8.352584
 50
96.632515
 51
102.011478
  0
ARC
  8
APS_GEOMETRY
 10
506.252751
 20
-711.156233
 40
24.449322
 50
93.489325
 51
96.632515
  0
ARC
  8
APS_GEOMETRY
 10
507.048994
 20
-724.21461
 40
37.531952
 50
91.43929
 51
93.489325
  0
ARC
  8
APS_GEOMETRY
 10
508.0187
 20
-762.80891
 40
76.138432
 50
90.0
 51
91.43929
  0
ARC
  8
APS_GEOMETRY
 10
508.0187
 20
-757.634682
 40
70.964205
 50
87.994353
 51
90.0
  0
ARC
  8
APS_GEOMETRY
 10
509.308841
 20
-720.79397
 40
34.100909
 50
85.100908
 51
87.994353
  0
ARC
  8
APS_GEOMETRY
 10
510.355916
 20
-708.578095
 40
21.840241
 50
80.594688
 51
85.100908
  0
ARC
  8
APS_GEOMETRY
 10
512.743507
 20
-694.164122
 40
7.229861
 50
72.758541
 51
80.594688
  0
ARC
  8
APS_GEOMETRY
 10
513.466833
 20
-691.923537
 40
4.875639
 50
40.955514
 51
73.072487
  0
ARC
  8
APS_GEOMETRY
 10
514.846938
 20
-690.72571
 40
3.048215
 50
0.0
 51
40.955514
  0
ARC
  8
APS_GEOMETRY
 10
515.030627
 20
-690.72571
 40
2.864527
 50
322.572949
 51
0.0
  0
ARC
  8
APS_GEOMETRY
 10
513.525332
 20
-689.573699
 40
4.760058
 50
293.749494
 51
322.572949
  0
ARC
  8
APS_GEOMETRY
 10
519.569518
 20
-703.454791
 40
10.379904
 50
113.428693
 51
119.291362
  0
ARC
  8
APS_GEOMETRY
 10
515.53032
 20
-696.254481
 40
2.124022
 50
119.291362
 51
132.273689
  0
ARC
  8
APS_GEOMETRY
 10
515.29754
 20
-695.998423
 40
1.77797
 50
132.273689
 51
147.652557
  0
ARC
  8
APS_GEOMETRY
 10
516.979499
 20
-697.063663
 40
3.768879
 50
147.652557
 51
158.198591
  0
ARC
  8
APS_GEOMETRY
 10
519.539103
 20
-698.142586
 40
6.546314
 50
157.750976
 51
167.884758
  0
ARC
  8
APS_GEOMETRY
 10
533.159055
 20
-701.066241
 40
20.476528
 50
167.884758
 51
173.609505
  0
ARC
  8
APS_GEOMETRY
 10
545.205727
 20
-702.415468
 40
32.59852
 50
173.609505
 51
177.220833
  0
ARC
  8
APS_GEOMETRY
 10
582.361362
 20
-704.21914
 40
69.797908
 50
177.220833
 51
179.688613
  0
LINE
  8
APS_GEOMETRY
 10
512.564485
 11
512.564485
 20
-703.839809
 21
-714.501146
  0
ARC
  8
APS_GEOMETRY
 10
947.929905
 20
-714.501146
 40
435.36542
 50
180.0
 51
180.161396
  0
ARC
  8
APS_GEOMETRY
 10
1325.748943
 20
-713.436867
 40
813.185957
 50
180.161396
 51
180.279489
  0
LINE
  8
APS_GEOMETRY
 10
512.57266
 11
512.58288
 20
-717.403581
 21
-719.192053
  0
LINE
  8
APS_GEOMETRY
 10
512.58288
 11
512.597188
 20
-719.192053
 21
-721.205361
  0
ARC
  8
APS_GEOMETRY
 10
434.913337
 20
-721.646747
 40
77.685105
 50
358.204186
 51
0.325541
  0
ARC
  8
APS_GEOMETRY
 10
471.867653
 20
-722.805381
 40
40.71263
 50
355.273697
 51
358.204186
  0
ARC
  8
APS_GEOMETRY
 10
484.730114
 20
-723.868812
 40
27.806283
 50
350.991496
 51
355.273697
  0
ARC
  8
APS_GEOMETRY
 10
501.108761
 20
-726.465427
 40
11.223084
 50
344.248826
 51
350.991496
  0
ARC
  8
APS_GEOMETRY
 10
506.644674
 20
-728.046326
 40
5.465928
 50
314.415369
 51
344.445429
  0
ARC
  8
APS_GEOMETRY
 10
508.672769
 20
-730.116238
 40
2.568048
 50
270.0
 51
314.415369
  0
ARC
  8
APS_GEOMETRY
 10
508.672769
 20
-728.524241
 40
4.160045
 50
256.342357
 51
270.0
  0
ARC
  8
APS_GEOMETRY
 10
508.376419
 20
-729.743838
 40
2.904959
 50
239.981633
 51
256.342357
  0
ARC
  8
APS_GEOMETRY
 10
509.670746
 20
-727.503655
 40
5.492178
 50
231.153104
 51
239.981633
  0
ARC
  8
APS_GEOMETRY
 10
531.419411
 20
-700.499063
 40
40.16569
 50
227.89127
 51
231.153104
  0
LINE
  8
APS_GEOMETRY
 10
504.486723
 11
485.093554
 20
-730.296931
 21
-712.931379
  0
ARC
  8
APS_GEOMETRY
 10
477.622363
 20
-721.203055
 40
11.14627
 50
47.910838
 51
61.467547
  0
ARC
  8
APS_GEOMETRY
 10
481.725095
 20
-713.656958
 40
2.556975
 50
61.467547
 51
90.0
  0
ARC
  8
APS_GEOMETRY
 10
481.725095
 20
-712.2202
 40
1.120217
 50
90.0
 51
133.194713
  0
ARC
  8
APS_GEOMETRY
 10
482.829211
 20
-713.396181
 40
2.733289
 50
133.194713
 51
160.453632
  0
ARC
  8
APS_GEOMETRY
 10
486.373229
 20
-714.654413
 40
6.494036
 50
160.453632
 51
173.250825
  0
ARC
  8
APS_GEOMETRY
 10
503.040518
 20
-716.626873
 40
23.277632
 50
173.250825
 51
180.0
  0
ARC
  8
APS_GEOMETRY
 10
548.380942
 20
-716.626873
 40
68.618057
 50
180.0
 51
181.896923
  0
ARC
  8
APS_GEOMETRY
 10
512.03822
 20
-717.830531
 40
32.255407
 50
181.896923
 51
184.663802
  0
ARC
  8
APS_GEOMETRY
 10
500.126652
 20
-718.802265
 40
20.304269
 50
184.663802
 51
189.048181
  0
ARC
  8
APS_GEOMETRY
 10
486.325666
 20
-721.000024
 40
6.329385
 50
189.048181
 51
196.905158
  0
ARC
  8
APS_GEOMETRY
 10
484.134852
 20
-721.66586
 40
4.039625
 50
196.905158
 51
220.253477
  0
ARC
  8
APS_GEOMETRY
 10
484.178773
 20
-721.628673
 40
4.097174
 50
220.253477
 51
243.434949
  0
ARC
  8
APS_GEOMETRY
 10
480.181167
 20
-729.689502
 40
4.900522
 50
37.921078
 51
63.778033
  0
ARC
  8
APS_GEOMETRY
 10
482.213981
 20
-728.105797
 40
2.323614
 50
0.0
 51
37.921078
  0
ARC
  8
APS_GEOMETRY
 10
481.310181
 20
-728.105797
 40
3.227414
 50
324.267836
 51
0.0
  0
ARC
  8
APS_GEOMETRY
 10
480.102669
 20
-727.237084
 40
4.714945
 50
294.859862
 51
324.267836
  0
ARC
  8
APS_GEOMETRY
 10
478.105771
 20
-722.927231
 40
9.464938
 50
278.779646
 51
294.859862
  0
ARC
  8
APS_GEOMETRY
 10
474.726549
 20
-701.047374
 40
31.604208
 50
270.0
 51
278.779646
  0
ARC
  8
APS_GEOMETRY
 10
474.726549
 20
-706.718836
 40
25.932746
 50
260.382525
 51
270.0
  0
ARC
  8
APS_GEOMETRY
 10
471.993437
 20
-722.848043
 40
9.573614
 50
244.52173
 51
260.382525
  0
ARC
  8
APS_GEOMETRY
 10
470.014069
 20
-727.001927
 40
4.972239
 50
216.549301
 51
244.52173
  0
ARC
  8
APS_GEOMETRY
 10
468.392606
 20
-728.203908
 40
2.953848
 50
180.0
 51
216.549301
  0
ARC
  8
APS_GEOMETRY
 10
469.445448
 20
-728.203908
 40
4.00669
 50
164.649864
 51
180.0
  0
ARC
  8
APS_GEOMETRY
 10
467.160107
 20
-727.576559
 40
1.636806
 50
140.52754
 51
164.649864
  0
ARC
  8
APS_GEOMETRY
 10
468.08486
 20
-728.338121
 40
2.834781
 50
126.135377
 51
140.52754
  0
ARC
  8
APS_GEOMETRY
 10
477.739296
 20
-741.5605
 40
19.206691
 50
120.618605
 51
126.135377
  0
ARC
  8
APS_GEOMETRY
 10
466.293148
 20
-722.238899
 40
3.250804
 50
300.784147
 51
330.068488
  0
ARC
  8
APS_GEOMETRY
 10
464.12775
 20
-720.992154
 40
5.749468
 50
330.068488
 51
351.982907
  0
ARC
  8
APS_GEOMETRY
 10
427.765069
 20
-716.251766
 40
42.419572
 50
352.492653
 51
355.364537
  0
ARC
  8
APS_GEOMETRY
 10
383.902071
 20
-712.695307
 40
86.426514
 50
355.364537
 51
357.376422
  0
ARC
  8
APS_GEOMETRY
 10
353.1894
 20
-711.287988
 40
117.171412
 50
357.376422
 51
358.860936
  0
ARC
  8
APS_GEOMETRY
 10
271.362986
 20
-709.66103
 40
199.013999
 50
358.860936
 51
0.0
  0
ARC
  8
APS_GEOMETRY
 10
344.952546
 20
-709.66103
 40
125.424438
 50
360.0
 51
1.926262
  0
ARC
  8
APS_GEOMETRY
 10
403.338946
 20
-707.697362
 40
67.005026
 50
1.926262
 51
4.561808
  0
ARC
  8
APS_GEOMETRY
 10
423.926401
 20
-706.054746
 40
46.352146
 50
4.561808
 51
8.365886
  0
ARC
  8
APS_GEOMETRY
 10
450.702392
 20
-702.1171
 40
19.28817
 50
8.365886
 51
14.264512
  0
ARC
  8
APS_GEOMETRY
 10
460.82739
 20
-699.556458
 40
8.844412
 50
14.349332
 51
23.629378
  0
ARC
  8
APS_GEOMETRY
 10
465.961887
 20
-697.310115
 40
3.240029
 50
23.629378
 51
38.990994
  0
ARC
  8
APS_GEOMETRY
 10
465.981016
 20
-697.29463
 40
3.215417
 50
38.990994
 51
54.462322
  0
ARC
  8
APS_GEOMETRY
 10
462.976892
 20
-701.500403
 40
8.383907
 50
54.462322
 51
64.025606
  0
ARC
  8
APS_GEOMETRY
 10
471.454794
 20
-684.132886
 40
10.942387
 50
235.472028
 51
243.946505
  0
ARC
  8
APS_GEOMETRY
 10
467.075395
 20
-690.498292
 40
3.215969
 50
219.805571
 51
235.472028
  0
ARC
  8
APS_GEOMETRY
 10
466.412408
 20
-691.050781
 40
2.352954
 50
198.939004
 51
219.805571
  0
ARC
  8
APS_GEOMETRY
 10
466.883221
 20
-690.889228
 40
2.850713
 50
180.0
 51
198.939004
  0
ARC
  8
APS_GEOMETRY
 10
466.744168
 20
-690.889228
 40
2.71166
 50
126.253838
 51
180.0
  0
ARC
  8
APS_GEOMETRY
 10
470.88335
 20
-696.533567
 40
9.711046
 50
98.615648
 51
126.253838
  0
ARC
  8
APS_GEOMETRY
 10
471.466432
 20
-701.197048
 40
14.409768
 50
94.455603
 51
98.130102
  0
ARC
  8
APS_GEOMETRY
 10
473.714632
 20
-730.048943
 40
43.349122
 50
92.337306
 51
94.455603
  0
ARC
  8
APS_GEOMETRY
 10
474.672939
 20
-753.527462
 40
66.847191
 50
90.962864
 51
92.337306
  0
ARC
  8
APS_GEOMETRY
 10
475.838467
 20
-822.876395
 40
136.205917
 50
90.0
 51
90.962864
  0
ARC
  8
APS_GEOMETRY
 10
475.838467
 20
-711.492226
 40
24.821748
 50
83.927544
 51
90.0
  0
ARC
  8
APS_GEOMETRY
 10
477.874329
 20
-692.35512
 40
5.576657
 50
71.095424
 51
83.927544
  0
ARC
  8
APS_GEOMETRY
 10
478.060264
 20
-691.812193
 40
5.002774
 50
56.848266
 51
71.095424
  0
ARC
  8
APS_GEOMETRY
 10
472.557815
 20
-700.236295
 40
15.064704
 50
48.652223
 51
56.848266
  0
ARC
  8
APS_GEOMETRY
 10
541.317392
 20
-727.278001
 40
40.607524
 50
84.709919
 51
90.0
  0
ARC
  8
APS_GEOMETRY
 10
542.061824
 20
-719.238127
 40
32.533258
 50
78.799202
 51
84.709919
  0
ARC
  8
APS_GEOMETRY
 10
546.878354
 20
-694.895167
 40
7.718372
 50
49.782532
 51
78.771108
  0
ARC
  8
APS_GEOMETRY
 10
550.099807
 20
-691.085449
 40
2.729212
 50
0.0
 51
49.782532
  0
ARC
  8
APS_GEOMETRY
 10
549.809397
 20
-691.085449
 40
3.019623
 50
342.758541
 51
0.0
  0
ARC
  8
APS_GEOMETRY
 10
551.384616
 20
-691.57431
 40
1.37029
 50
317.045408
 51
342.758541
  0
ARC
  8
APS_GEOMETRY
 10
550.623902
 20
-690.866059
 40
2.409666
 50
301.817035
 51
317.045408
  0
ARC
  8
APS_GEOMETRY
 10
539.367817
 20
-672.723897
 40
23.760017
 50
296.980231
 51
301.817035
  0
ARC
  8
APS_GEOMETRY
 10
551.36946
 20
-696.342201
 40
2.732757
 50
116.565051
 51
149.077974
  0
ARC
  8
APS_GEOMETRY
 10
554.888597
 20
-698.450199
 40
6.83495
 50
149.077974
 51
169.469072
  0
ARC
  8
APS_GEOMETRY
 10
562.392757
 20
-699.845203
 40
14.467672
 50
169.469072
 51
174.597877
  0
ARC
  8
APS_GEOMETRY
 10
601.056984
 20
-703.501494
 40
53.304393
 50
174.597877
 51
177.269212
  0
ARC
  8
APS_GEOMETRY
 10
635.054502
 20
-705.123086
 40
87.340563
 50
177.269212
 51
178.901208
  0
ARC
  8
APS_GEOMETRY
 10
740.361394
 20
-707.142861
 40
192.666822
 50
178.901208
 51
180.0
  0
ARC
  8
APS_GEOMETRY
 10
954.351164
 20
-707.142861
 40
406.656592
 50
180.0
 51
180.879979
  0
ARC
  8
APS_GEOMETRY
 10
703.831154
 20
-710.990784
 40
156.107032
 50
180.879979
 51
182.300285
  0
ARC
  8
APS_GEOMETRY
 10
630.605722
 20
-713.932186
 40
82.822547
 50
182.300285
 51
184.973515
  0
ARC
  8
APS_GEOMETRY
 10
560.784943
 20
-720.008193
 40
12.737891
 50
184.973515
 51
191.79343
  0
ARC
  8
APS_GEOMETRY
 10
552.674808
 20
-721.55947
 40
4.484055
 50
193.570434
 51
205.787328
  0
ARC
  8
APS_GEOMETRY
 10
550.657634
 20
-722.53406
 40
2.243783
 50
205.787328
 51
223.090848
  0
ARC
  8
APS_GEOMETRY
 10
551.169232
 20
-722.055468
 40
2.944342
 50
223.090848
 51
236.441044
  0
ARC
  8
APS_GEOMETRY
 10
555.452623
 20
-715.598416
 40
10.692952
 50
236.441044
 51
243.434949
  0
ARC
  8
APS_GEOMETRY
 10
548.894921
 20
-729.068954
 40
4.291097
 50
37.184706
 51
65.556045
  0
ARC
  8
APS_GEOMETRY
 10
550.293864
 20
-728.007687
 40
2.535155
 50
0.0
 51
37.184706
  0
ARC
  8
APS_GEOMETRY
 10
550.217066
 20
-728.007687
 40
2.611953
 50
312.039064
 51
0.0
  0
ARC
  8
APS_GEOMETRY
 10
547.106163
 20
-724.557413
 40
7.257608
 50
283.815025
 51
312.039064
  0
ARC
  8
APS_GEOMETRY
 10
541.965722
 20
-703.252
 40
29.174325
 50
279.272602
 51
283.626995
  0
ARC
  8
APS_GEOMETRY
 10
539.910945
 20
-690.666491
 40
41.926468
 50
275.640549
 51
279.272602
  0
ARC
  8
APS_GEOMETRY
 10
539.125386
 20
-682.712707
 40
49.918951
 50
272.587879
 51
275.640549
  0
ARC
  8
APS_GEOMETRY
 10
538.243264
 20
-663.195744
 40
69.455838
 50
270.0
 51
272.587879
  0
ARC
  8
APS_GEOMETRY
 10
538.243264
 20
-690.757594
 40
41.893989
 50
262.77406
 51
270.0
  0
ARC
  8
APS_GEOMETRY
 10
534.466507
 20
-720.54524
 40
11.867871
 50
249.174782
 51
262.77406
  0
ARC
  8
APS_GEOMETRY
 10
532.093805
 20
-726.78315
 40
5.193948
 50
221.229513
 51
249.174782
  0
ARC
  8
APS_GEOMETRY
 10
530.024755
 20
-728.59635
 40
2.442829
 50
180.0
 51
221.229513
  0
ARC
  8
APS_GEOMETRY
 10
529.623223
 20
-728.59635
 40
2.041296
 50
142.696052
 51
180.0
  0
ARC
  8
APS_GEOMETRY
 10
532.844598
 20
-731.050731
 40
6.091141
 50
121.357085
 51
142.696052
  0
ARC
  8
APS_GEOMETRY
 10
527.401315
 20
-722.135654
 40
4.354338
 50
301.476839
 51
324.727579
  0
ARC
  8
APS_GEOMETRY
 10
527.981785
 20
-722.54623
 40
3.64334
 50
324.727579
 51
350.180699
  0
ARC
  8
APS_GEOMETRY
 10
509.740983
 20
-719.529109
 40
22.131897
 50
350.537678
 51
355.42288
  0
ARC
  8
APS_GEOMETRY
 10
434.788821
 20
-713.528725
 40
97.323859
 50
355.42288
 51
357.75194
  0
ARC
  8
APS_GEOMETRY
 10
365.195321
 20
-710.796749
 40
166.970963
 50
357.75194
 51
359.110676
  0
ARC
  8
APS_GEOMETRY
 10
142.448779
 20
-707.339082
 40
389.744339
 50
359.110676
 51
0.0
  0
ARC
  8
APS_GEOMETRY
 10
396.969642
 20
-707.339082
 40
135.223477
 50
0.0
 51
1.772875
  0
ARC
  8
APS_GEOMETRY
 10
476.329653
 20
-704.882701
 40
55.825459
 50
1.772875
 51
4.532262
  0
ARC
  8
APS_GEOMETRY
 10
500.450587
 20
-702.970676
 40
31.628862
 50
4.532262
 51
9.383565
  0
ARC
  8
APS_GEOMETRY
 10
524.943951
 20
-698.923043
 40
6.803307
 50
9.383565
 51
19.855214
  0
ARC
  8
APS_GEOMETRY
 10
528.1857
 20
-697.690382
 40
3.33611
 50
18.853159
 51
42.157862
  0
ARC
  8
APS_GEOMETRY
 10
525.407362
 20
-700.205904
 40
7.084045
 50
42.157862
 51
58.091893
  0
ARC
  8
APS_GEOMETRY
 10
537.635957
 20
-681.30877
 40
15.426197
 50
230.710593
 51
236.633634
  0
ARC
  8
APS_GEOMETRY
 10
529.954458
 20
-690.697268
 40
3.295684
 50
217.874984
 51
230.710593
  0
ARC
  8
APS_GEOMETRY
 10
528.901347
 20
-691.516355
 40
1.961539
 50
196.927513
 51
217.874984
  0
ARC
  8
APS_GEOMETRY
 10
529.887364
 20
-691.216262
 40
2.992211
 50
180.0
 51
196.927513
  0
ARC
  8
APS_GEOMETRY
 10
529.242443
 20
-691.216262
 40
2.34729
 50
148.790867
 51
180.0
  0
ARC
  8
APS_GEOMETRY
 10
529.857998
 20
-691.58919
 40
3.067
 50
121.568971
 51
148.790867
  0
ARC
  8
APS_GEOMETRY
 10
530.963155
 20
-693.387779
 40
5.177994
 50
112.805746
 51
121.568971
  0
ARC
  8
APS_GEOMETRY
 10
533.950469
 20
-700.492323
 40
12.885042
 50
107.25376
 51
112.805746
  0
ARC
  8
APS_GEOMETRY
 10
535.780192
 20
-706.38363
 40
19.053947
 50
103.486615
 51
107.25376
  0
ARC
  8
APS_GEOMETRY
 10
539.970691
 20
-723.856295
 40
37.022094
 50
100.784298
 51
103.486615
  0
ARC
  8
APS_GEOMETRY
 10
541.283238
 20
-728.687212
 40
42.015051
 50
95.643318
 51
101.309932
  0
ARC
  8
APS_GEOMETRY
 10
541.317392
 20
-729.032842
 40
42.362364
 50
90.0
 51
95.643318
  0
ARC
  8
APS_GEOMETRY
 10
581.98745
 20
-707.70538
 40
21.263827
 50
77.257003
 51
90.0
  0
ARC
  8
APS_GEOMETRY
 10
581.771392
 20
-708.660759
 40
22.243331
 50
64.798876
 51
77.257003
  0
ARC
  8
APS_GEOMETRY
 10
600.088972
 20
-669.662183
 40
20.842904
 50
244.885165
 51
251.17529
  0
ARC
  8
APS_GEOMETRY
 10
594.120444
 20
-687.169864
 40
2.345817
 50
251.17529
 51
270.0
  0
ARC
  8
APS_GEOMETRY
 10
594.120444
 20
-685.709294
 40
3.806387
 50
270.0
 51
278.82038
  0
ARC
  8
APS_GEOMETRY
 10
591.661355
 20
-669.861834
 40
19.843503
 50
278.82038
 51
282.680383
  0
ARC
  8
APS_GEOMETRY
 10
596.806726
 20
-692.642427
 40
3.51099
 50
95.906141
 51
102.994617
  0
ARC
  8
APS_GEOMETRY
 10
596.965647
 20
-694.178671
 40
5.055431
 50
90.0
 51
95.906141
  0
ARC
  8
APS_GEOMETRY
 10
596.965647
 20
-692.478753
 40
3.355514
 50
62.447188
 51
90.0
  0
ARC
  8
APS_GEOMETRY
 10
596.368963
 20
-693.622399
 40
4.645459
 50
39.093859
 51
62.447188
  0
ARC
  8
APS_GEOMETRY
 10
590.134822
 20
-698.836079
 40
12.772091
 50
18.434949
 51
39.610688
  0
ARC
  8
APS_GEOMETRY
 10
586.308226
 20
-700.111611
 40
16.805677
 50
0.0
 51
18.434949
  0
ARC
  8
APS_GEOMETRY
 10
594.780629
 20
-700.111611
 40
8.333274
 50
334.876872
 51
0.0
  0
ARC
  8
APS_GEOMETRY
 10
597.286977
 20
-701.286904
 40
5.565045
 50
304.007492
 51
334.876872
  0
ARC
  8
APS_GEOMETRY
 10
597.245666
 20
-701.169357
 40
5.68568
 50
286.38954
 51
303.690068
  0
ARC
  8
APS_GEOMETRY
 10
597.063758
 20
-700.55087
 40
6.330364
 50
270.0
 51
286.38954
  0
ARC
  8
APS_GEOMETRY
 10
597.063758
 20
-700.624658
 40
6.256576
 50
255.154548
 51
270.0
  0
ARC
  8
APS_GEOMETRY
 10
596.378352
 20
-703.210508
 40
3.58143
 50
235.491477
 51
255.154548
  0
ARC
  8
APS_GEOMETRY
 10
596.722387
 20
-702.710093
 40
4.188699
 50
218.480198
 51
235.491477
  0
ARC
  8
APS_GEOMETRY
 10
602.34326
 20
-698.242219
 40
11.368958
 50
208.17859
 51
218.480198
  0
ARC
  8
APS_GEOMETRY
 10
544.718763
 20
-729.521372
 40
54.197767
 50
28.55962
 51
31.663799
  0
ARC
  8
APS_GEOMETRY
 10
579.930954
 20
-707.804602
 40
12.827288
 50
31.663799
 51
38.047043
  0
ARC
  8
APS_GEOMETRY
 10
582.491206
 20
-705.800927
 40
9.576196
 50
38.047043
 51
46.5602
  0
ARC
  8
APS_GEOMETRY
 10
581.160419
 20
-707.206238
 40
11.511627
 50
46.5602
 51
54.323592
  0
ARC
  8
APS_GEOMETRY
 10
580.392272
 20
-708.527647
 40
13.033852
 50
54.968356
 51
71.480419
  0
ARC
  8
APS_GEOMETRY
 10
581.235269
 20
-706.01105
 40
10.379817
 50
71.480419
 51
90.0
  0
ARC
  8
APS_GEOMETRY
 10
581.235269
 20
-702.881795
 40
7.250562
 50
90.0
 51
114.629635
  0
ARC
  8
APS_GEOMETRY
 10
580.87117
 20
-702.087618
 40
6.3769
 50
114.629635
 51
140.920621
  0
ARC
  8
APS_GEOMETRY
 10
581.946954
 20
-702.961242
 40
7.762732
 50
140.920621
 51
163.129646
  0
ARC
  8
APS_GEOMETRY
 10
587.324377
 20
-704.591989
 40
13.381985
 50
163.129646
 51
180.0
  0
ARC
  8
APS_GEOMETRY
 10
594.29785
 20
-704.591989
 40
20.355459
 50
180.0
 51
195.439646
  0
ARC
  8
APS_GEOMETRY
 10
593.239776
 20
-704.884219
 40
19.25777
 50
195.439646
 51
211.31598
  0
ARC
  8
APS_GEOMETRY
 10
588.150534
 20
-707.873553
 40
13.356544
 50
211.707816
 51
240.456928
  0
ARC
  8
APS_GEOMETRY
 10
587.808671
 20
-708.476735
 40
12.663219
 50
240.456928
 51
270.0
  0
ARC
  8
APS_GEOMETRY
 10
587.808671
 20
-705.389273
 40
15.750681
 50
270.0
 51
279.549134
  0
ARC
  8
APS_GEOMETRY
 10
587.612859
 20
-704.225279
 40
16.931031
 50
279.549134
 51
288.75865
  0
ARC
  8
APS_GEOMETRY
 10
588.438252
 20
-706.655604
 40
14.364369
 50
288.75865
 51
299.544635
  0
ARC
  8
APS_GEOMETRY
 10
591.747901
 20
-712.494771
 40
7.652465
 50
299.544635
 51
314.341457
  0
ARC
  8
APS_GEOMETRY
 10
601.983017
 20
-723.125747
 40
7.10519
 50
120.141386
 51
133.451842
  0
ARC
  8
APS_GEOMETRY
 10
599.124078
 20
-718.202018
 40
1.411627
 50
90.0
 51
120.141386
  0
ARC
  8
APS_GEOMETRY
 10
599.124078
 20
-719.019989
 40
2.229599
 50
61.951894
 51
90.0
  0
ARC
  8
APS_GEOMETRY
 10
598.792024
 20
-719.643228
 40
2.935776
 50
37.568592
 51
61.951894
  0
ARC
  8
APS_GEOMETRY
 10
598.172744
 20
-720.119597
 40
3.71708
 50
17.665186
 51
37.568592
  0
ARC
  8
APS_GEOMETRY
 10
597.22798
 20
-720.420478
 40
4.708598
 50
0.0
 51
17.665186
  0
ARC
  8
APS_GEOMETRY
 10
594.855997
 20
-720.420478
 40
7.08058
 50
344.931512
 51
0.0
  0
ARC
  8
APS_GEOMETRY
 10
588.557971
 20
-718.724855
 40
13.602871
 50
334.075098
 51
344.931512
  0
ARC
  8
APS_GEOMETRY
 10
588.35992
 20
-718.62858
 40
13.823082
 50
323.374259
 51
334.075098
  0
ARC
  8
APS_GEOMETRY
 10
592.423684
 20
-721.649432
 40
8.759514
 50
309.920392
 51
323.374259
  0
ARC
  8
APS_GEOMETRY
 10
596.484725
 20
-726.440196
 40
2.479565
 50
289.025606
 51
308.990994
  0
ARC
  8
APS_GEOMETRY
 10
592.151768
 20
-713.874622
 40
15.771223
 50
281.14289
 51
289.025606
  0
ARC
  8
APS_GEOMETRY
 10
596.545791
 20
-736.656101
 40
7.430522
 50
100.437475
 51
110.119633
  0
ARC
  8
APS_GEOMETRY
 10
602.366929
 20
-752.546236
 40
24.353349
 50
110.119633
 51
115.463345
  0
ARC
  8
APS_GEOMETRY
 10
581.585816
 20
-709.065644
 40
23.838158
 50
282.940436
 51
295.628419
  0
ARC
  8
APS_GEOMETRY
 10
581.791229
 20
-709.959622
 40
22.920885
 50
270.0
 51
282.940436
  0
ARC
  8
APS_GEOMETRY
 10
581.791229
 20
-708.605699
 40
24.274807
 50
257.307334
 51
270.0
  0
ARC
  8
APS_GEOMETRY
 10
582.815959
 20
-704.055896
 40
28.938581
 50
245.686204
 51
257.307334
  0
ARC
  8
APS_GEOMETRY
 10
580.245738
 20
-709.697391
 40
22.739224
 50
228.800778
 51
245.735234
  0
ARC
  8
APS_GEOMETRY
 10
580.288801
 20
-709.6482
 40
22.804602
 50
211.890792
 51
228.800778
  0
ARC
  8
APS_GEOMETRY
 10
581.636411
 20
-708.678195
 40
24.461509
 50
196.727964
 51
212.152295
  0
ARC
  8
APS_GEOMETRY
 10
578.148623
 20
-709.726437
 40
20.819604
 50
180.0
 51
196.727964
  0
ARC
  8
APS_GEOMETRY
 10
578.655963
 20
-709.726437
 40
21.326944
 50
161.183932
 51
180.0
  0
ARC
  8
APS_GEOMETRY
 10
580.024286
 20
-710.19268
 40
22.77252
 50
142.980114
 51
161.183932
  0
ARC
  8
APS_GEOMETRY
 10
581.088353
 20
-711.006998
 40
24.112395
 50
127.824257
 51
142.957525
  0
ARC
  8
APS_GEOMETRY
 10
582.842332
 20
-713.266237
 40
26.972571
 50
113.520273
 51
127.824257
  0
ARC
  8
APS_GEOMETRY
 10
582.271431
 20
-711.94694
 40
25.535051
 50
101.926773
 51
113.527064
  0
ARC
  8
APS_GEOMETRY
 10
581.98745
 20
-710.602468
 40
24.160915
 50
90.0
 51
101.926773
  0
ARC
  8
APS_GEOMETRY
 10
626.536142
 20
-727.278001
 40
40.607524
 50
84.709919
 51
90.0
  0
ARC
  8
APS_GEOMETRY
 10
627.280574
 20
-719.238127
 40
32.533258
 50
78.799202
 51
84.709919
  0
ARC
  8
APS_GEOMETRY
 10
632.097104
 20
-694.895167
 40
7.718372
 50
49.782532
 51
78.771108
  0
ARC
  8
APS_GEOMETRY
 10
635.318557
 20
-691.085449
 40
2.729212
 50
0.0
 51
49.782532
  0
ARC
  8
APS_GEOMETRY
 10
635.028147
 20
-691.085449
 40
3.019623
 50
342.758541
 51
0.0
  0
ARC
  8
APS_GEOMETRY
 10
636.603366
 20
-691.57431
 40
1.37029
 50
317.045408
 51
342.758541
  0
ARC
  8
APS_GEOMETRY
 10
635.842652
 20
-690.866059
 40
2.409666
 50
301.817035
 51
317.045408
  0
ARC
  8
APS_GEOMETRY
 10
624.586567
 20
-672.723897
 40
23.760017
 50
296.980231
 51
301.817035
  0
ARC
  8
APS_GEOMETRY
 10
636.58821
 20
-696.342201
 40
2.732757
 50
116.565051
 51
149.077974
  0
ARC
  8
APS_GEOMETRY
 10
640.107347
 20
-698.450199
 40
6.83495
 50
149.077974
 51
169.469072
  0
ARC
  8
APS_GEOMETRY
 10
647.611507
 20
-699.845203
 40
14.467672
 50
169.469072
 51
174.597877
  0
ARC
  8
APS_GEOMETRY
 10
686.275734
 20
-703.501494
 40
53.304393
 50
174.597877
 51
177.269212
  0
ARC
  8
APS_GEOMETRY
 10
720.273252
 20
-705.123086
 40
87.340563
 50
177.269212
 51
178.901208
  0
ARC
  8
APS_GEOMETRY
 10
825.580144
 20
-707.142861
 40
192.666822
 50
178.901208
 51
180.0
  0
ARC
  8
APS_GEOMETRY
 10
1039.569914
 20
-707.142861
 40
406.656592
 50
180.0
 51
180.879979
  0
ARC
  8
APS_GEOMETRY
 10
789.049904
 20
-710.990784
 40
156.107032
 50
180.879979
 51
182.300285
  0
ARC
  8
APS_GEOMETRY
 10
715.824472
 20
-713.932186
 40
82.822547
 50
182.300285
 51
184.973515
  0
ARC
  8
APS_GEOMETRY
 10
646.003693
 20
-720.008193
 40
12.737891
 50
184.973515
 51
191.79343
  0
ARC
  8
APS_GEOMETRY
 10
637.893558
 20
-721.55947
 40
4.484055
 50
193.570434
 51
205.787328
  0
ARC
  8
APS_GEOMETRY
 10
635.876384
 20
-722.53406
 40
2.243783
 50
205.787328
 51
223.090848
  0
ARC
  8
APS_GEOMETRY
 10
636.387982
 20
-722.055468
 40
2.944342
 50
223.090848
 51
236.441044
  0
ARC
  8
APS_GEOMETRY
 10
640.671373
 20
-715.598416
 40
10.692952
 50
236.441044
 51
243.434949
  0
ARC
  8
APS_GEOMETRY
 10
634.113671
 20
-729.068954
 40
4.291097
 50
37.184706
 51
65.556045
  0
ARC
  8
APS_GEOMETRY
 10
635.512614
 20
-728.007687
 40
2.535155
 50
0.0
 51
37.184706
  0
ARC
  8
APS_GEOMETRY
 10
635.435816
 20
-728.007687
 40
2.611953
 50
312.039064
 51
0.0
  0
ARC
  8
APS_GEOMETRY
 10
632.324913
 20
-724.557413
 40
7.257608
 50
283.815025
 51
312.039064
  0
ARC
  8
APS_GEOMETRY
 10
627.184472
 20
-703.252
 40
29.174325
 50
279.272602
 51
283.626995
  0
ARC
  8
APS_GEOMETRY
 10
625.129695
 20
-690.666491
 40
41.926468
 50
275.640549
 51
279.272602
  0
ARC
  8
APS_GEOMETRY
 10
624.344136
 20
-682.712707
 40
49.918951
 50
272.587879
 51
275.640549
  0
ARC
  8
APS_GEOMETRY
 10
623.462014
 20
-663.195744
 40
69.455838
 50
270.0
 51
272.587879
  0
ARC
  8
APS_GEOMETRY
 10
623.462014
 20
-690.757594
 40
41.893989
 50
262.77406
 51
270.0
  0
ARC
  8
APS_GEOMETRY
 10
619.685257
 20
-720.54524
 40
11.867871
 50
249.174782
 51
262.77406
  0
ARC
  8
APS_GEOMETRY
 10
617.312555
 20
-726.78315
 40
5.193948
 50
221.229513
 51
249.174782
  0
ARC
  8
APS_GEOMETRY
 10
615.243505
 20
-728.59635
 40
2.442829
 50
180.0
 51
221.229513
  0
ARC
  8
APS_GEOMETRY
 10
614.841973
 20
-728.59635
 40
2.041296
 50
142.696052
 51
180.0
  0
ARC
  8
APS_GEOMETRY
 10
618.063348
 20
-731.050731
 40
6.091141
 50
121.357085
 51
142.696052
  0
ARC
  8
APS_GEOMETRY
 10
612.620065
 20
-722.135654
 40
4.354338
 50
301.476839
 51
324.727579
  0
ARC
  8
APS_GEOMETRY
 10
613.200535
 20
-722.54623
 40
3.64334
 50
324.727579
 51
350.180699
  0
ARC
  8
APS_GEOMETRY
 10
594.959733
 20
-719.529109
 40
22.131897
 50
350.537678
 51
355.42288
  0
ARC
  8
APS_GEOMETRY
 10
520.007571
 20
-713.528725
 40
97.323859
 50
355.42288
 51
357.75194
  0
ARC
  8
APS_GEOMETRY
 10
450.414071
 20
-710.796749
 40
166.970963
 50
357.75194
 51
359.110676
  0
ARC
  8
APS_GEOMETRY
 10
227.667529
 20
-707.339082
 40
389.744339
 50
359.110676
 51
0.0
  0
ARC
  8
APS_GEOMETRY
 10
482.188392
 20
-707.339082
 40
135.223477
 50
0.0
 51
1.772875
  0
ARC
  8
APS_GEOMETRY
 10
561.548403
 20
-704.882701
 40
55.825459
 50
1.772875
 51
4.532262
  0
ARC
  8
APS_GEOMETRY
 10
585.669337
 20
-702.970676
 40
31.628862
 50
4.532262
 51
9.383565
  0
ARC
  8
APS_GEOMETRY
 10
610.162701
 20
-698.923043
 40
6.803307
 50
9.383565
 51
19.855214
  0
ARC
  8
APS_GEOMETRY
 10
613.40445
 20
-697.690382
 40
3.33611
 50
18.853159
 51
42.157862
  0
ARC
  8
APS_GEOMETRY
 10
610.626112
 20
-700.205904
 40
7.084045
 50
42.157862
 51
58.091893
  0
ARC
  8
APS_GEOMETRY
 10
622.854707
 20
-681.30877
 40
15.426197
 50
230.710593
 51
236.633634
  0
ARC
  8
APS_GEOMETRY
 10
615.173208
 20
-690.697268
 40
3.295684
 50
217.874984
 51
230.710593
  0
ARC
  8
APS_GEOMETRY
 10
614.120097
 20
-691.516355
 40
1.961539
 50
196.927513
 51
217.874984
  0
ARC
  8
APS_GEOMETRY
 10
615.106114
 20
-691.216262
 40
2.992211
 50
180.0
 51
196.927513
  0
ARC
  8
APS_GEOMETRY
 10
614.461193
 20
-691.216262
 40
2.34729
 50
148.790867
 51
180.0
  0
ARC
  8
APS_GEOMETRY
 10
615.076748
 20
-691.58919
 40
3.067
 50
121.568971
 51
148.790867
  0
ARC
  8
APS_GEOMETRY
 10
616.181905
 20
-693.387779
 40
5.177994
 50
112.805746
 51
121.568971
  0
ARC
  8
APS_GEOMETRY
 10
619.169219
 20
-700.492323
 40
12.885042
 50
107.25376
 51
112.805746
  0
ARC
  8
APS_GEOMETRY
 10
620.998942
 20
-706.38363
 40
19.053947
 50
103.486615
 51
107.25376
  0
ARC
  8
APS_GEOMETRY
 10
625.189441
 20
-723.856295
 40
37.022094
 50
100.784298
 51
103.486615
  0
ARC
  8
APS_GEOMETRY
 10
626.501988
 20
-728.687212
 40
42.015051
 50
95.643318
 51
101.309932
  0
ARC
  8
APS_GEOMETRY
 10
626.536142
 20
-729.032842
 40
42.362364
 50
90.0
 51
95.643318
  0
LINE
  8
APS_GEOMETRY
 10
695.684397
 11
695.684397
 20
-716.594169
 21
-699.392135
  0
ARC
  8
APS_GEOMETRY
 10
655.963086
 20
-699.392135
 40
39.721311
 50
0.0
 51
2.403809
  0
ARC
  8
APS_GEOMETRY
 10
679.48024
 20
-698.404908
 40
16.183445
 50
2.403809
 51
6.170175
  0
ARC
  8
APS_GEOMETRY
 10
686.529395
 20
-697.642837
 40
9.093217
 50
6.170175
 51
12.824398
  0
ARC
  8
APS_GEOMETRY
 10
693.428834
 20
-696.072233
 40
2.017268
 50
12.824398
 51
26.980231
  0
ARC
  8
APS_GEOMETRY
 10
693.751518
 20
-695.907957
 40
1.655174
 50
26.980231
 51
59.649904
  0
ARC
  8
APS_GEOMETRY
 10
690.71348
 20
-701.096517
 40
7.667731
 50
59.649904
 51
74.666715
  0
ARC
  8
APS_GEOMETRY
 10
694.215636
 20
-688.597509
 40
5.312942
 50
225.0
 51
253.886582
  0
ARC
  8
APS_GEOMETRY
 10
692.054731
 20
-690.758414
 40
2.256961
 50
180.0
 51
225.0
  0
ARC
  8
APS_GEOMETRY
 10
692.469721
 20
-690.758414
 40
2.671952
 50
151.15734
 51
180.0
  0
ARC
  8
APS_GEOMETRY
 10
692.463533
 20
-690.755006
 40
2.664887
 50
122.275644
 51
151.15734
  0
ARC
  8
APS_GEOMETRY
 10
693.227519
 20
-691.964649
 40
4.095591
 50
102.308016
 51
122.275644
  0
ARC
  8
APS_GEOMETRY
 10
694.637886
 20
-698.428831
 40
10.711842
 50
90.0
 51
102.308016
  0
ARC
  8
APS_GEOMETRY
 10
694.637886
 20
-710.883012
 40
23.166023
 50
88.989003
 51
90.0
  0
ARC
  8
APS_GEOMETRY
 10
692.69062
 20
-821.22809
 40
133.528281
 50
88.567904
 51
88.989003
  0
ARC
  8
APS_GEOMETRY
 10
689.940511
 20
-931.23243
 40
243.566992
 50
88.337041
 51
88.567904
  0
ARC
  8
APS_GEOMETRY
 10
679.282308
 20
-1298.348321
 40
610.837567
 50
88.191261
 51
88.337041
  0
LINE
  8
APS_GEOMETRY
 10
698.562304
 11
700.49181
 20
-687.8151
 21
-687.8151
  0
ARC
  8
APS_GEOMETRY
 10
694.010186
 20
388.134465
 40
1075.969087
 50
270.345151
 51
270.489696
  0
ARC
  8
APS_GEOMETRY
 10
700.049595
 20
-318.476335
 40
369.332478
 50
270.489696
 51
270.736409
  0
ARC
  8
APS_GEOMETRY
 10
702.528663
 20
-511.347869
 40
176.445013
 50
270.736409
 51
271.25279
  0
ARC
  8
APS_GEOMETRY
 10
706.054273
 20
-672.564402
 40
15.189934
 50
271.25279
 51
273.012788
  0
ARC
  8
APS_GEOMETRY
 10
705.907545
 20
-669.776567
 40
17.981628
 50
273.012788
 51
274.499608
  0
ARC
  8
APS_GEOMETRY
 10
689.251516
 20
-458.123119
 40
230.289435
 50
274.499608
 51
274.915063
  0
LINE
  8
APS_GEOMETRY
 10
708.982453
 11
710.945685
 20
-687.565736
 21
-687.39302
  0
LINE
  8
APS_GEOMETRY
 10
710.945685
 11
713.507799
 20
-687.39302
 21
-687.16103
  0
ARC
  8
APS_GEOMETRY
 10
717.720607
 20
-727.884843
 40
40.941137
 50
93.2397
 51
95.906141
  0
ARC
  8
APS_GEOMETRY
 10
716.974368
 20
-714.701296
 40
27.736487
 50
90.0
 51
93.2397
  0
ARC
  8
APS_GEOMETRY
 10
716.974368
 20
-710.517929
 40
23.55312
 50
77.119689
 51
90.0
  0
ARC
  8
APS_GEOMETRY
 10
718.215226
 20
-705.091493
 40
17.986619
 50
62.370753
 51
77.119689
  0
ARC
  8
APS_GEOMETRY
 10
720.316164
 20
-701.152433
 40
13.52248
 50
31.214952
 51
62.517479
  0
ARC
  8
APS_GEOMETRY
 10
720.252806
 20
-701.190826
 40
13.596563
 50
0.0
 51
31.214952
  0
ARC
  8
APS_GEOMETRY
 10
719.887449
 20
-701.190826
 40
13.961919
 50
334.495861
 51
0.0
  0
ARC
  8
APS_GEOMETRY
 10
720.574045
 20
-701.518377
 40
13.201193
 50
308.25442
 51
334.495861
  0
ARC
  8
APS_GEOMETRY
 10
718.474658
 20
-698.751941
 40
16.673559
 50
287.855247
 51
308.033576
  0
ARC
  8
APS_GEOMETRY
 10
717.072479
 20
-694.399088
 40
21.24668
 50
270.0
 51
287.855247
  0
ARC
  8
APS_GEOMETRY
 10
717.072479
 20
-683.448853
 40
32.196916
 50
266.917819
 51
270.0
  0
ARC
  8
APS_GEOMETRY
 10
719.026931
 20
-647.151879
 40
68.546471
 50
264.805571
 51
266.917819
  0
ARC
  8
APS_GEOMETRY
 10
705.954384
 20
-809.260943
 40
94.094982
 50
85.815084
 51
86.633539
  0
ARC
  8
APS_GEOMETRY
 10
711.153147
 20
-720.881964
 40
5.56323
 50
86.633539
 51
90.0
  0
ARC
  8
APS_GEOMETRY
 10
711.153147
 20
-716.139595
 40
0.820862
 50
90.0
 51
139.6859
  0
ARC
  8
APS_GEOMETRY
 10
711.457635
 20
-716.397949
 40
1.220185
 50
139.6859
 51
180.0
  0
LINE
  8
APS_GEOMETRY
 10
710.23745
 11
710.23745
 20
-716.397949
 21
-716.594169
  0
LINE
  8
APS_GEOMETRY
 10
710.23745
 11
710.466374
 20
-716.594169
 21
-721.957542
  0
ARC
  8
APS_GEOMETRY
 10
718.216827
 20
-721.634606
 40
7.757178
 50
182.385944
 51
193.753071
  0
ARC
  8
APS_GEOMETRY
 10
713.218784
 20
-722.857903
 40
2.611608
 50
193.753071
 51
213.407825
  0
ARC
  8
APS_GEOMETRY
 10
713.275009
 20
-722.820819
 40
2.678961
 50
213.407825
 51
232.62815
  0
ARC
  8
APS_GEOMETRY
 10
717.785426
 20
-716.915428
 40
10.109809
 50
232.62815
 51
242.487997
  0
ARC
  8
APS_GEOMETRY
 10
710.262697
 20
-731.179756
 40
6.017001
 50
40.539152
 51
61.699244
  0
ARC
  8
APS_GEOMETRY
 10
713.550961
 20
-728.367425
 40
1.690122
 50
0.0
 51
40.539152
  0
ARC
  8
APS_GEOMETRY
 10
712.971604
 20
-728.367425
 40
2.269479
 50
315.296867
 51
0.0
  0
ARC
  8
APS_GEOMETRY
 10
709.90216
 20
-725.329624
 40
6.588012
 50
289.502449
 51
315.296867
  0
ARC
  8
APS_GEOMETRY
 10
707.652681
 20
-718.978155
 40
13.326061
 50
282.372155
 51
289.502449
  0
ARC
  8
APS_GEOMETRY
 10
705.29005
 20
-708.207338
 40
24.352962
 50
277.099184
 51
282.372155
  0
ARC
  8
APS_GEOMETRY
 10
704.318676
 20
-700.407775
 40
32.212781
 50
273.103908
 51
277.099184
  0
ARC
  8
APS_GEOMETRY
 10
703.173496
 20
-679.289314
 40
53.362268
 50
270.0
 51
273.103908
  0
ARC
  8
APS_GEOMETRY
 10
703.173496
 20
-679.928957
 40
52.722625
 50
263.472919
 51
270.0
  0
ARC
  8
APS_GEOMETRY
 10
698.840964
 20
-717.795974
 40
14.608562
 50
251.055563
 51
263.472919
  0
ARC
  8
APS_GEOMETRY
 10
696.058948
 20
-725.901058
 40
6.039315
 50
224.160841
 51
251.055563
  0
ARC
  8
APS_GEOMETRY
 10
693.384553
 20
-728.498239
 40
2.311348
 50
180.0
 51
224.160841
  0
ARC
  8
APS_GEOMETRY
 10
693.864314
 20
-728.498239
 40
2.791108
 50
160.820992
 51
180.0
  0
ARC
  8
APS_GEOMETRY
 10
692.693626
 20
-728.091044
 40
1.551625
 50
135.0
 51
160.820992
  0
ARC
  8
APS_GEOMETRY
 10
693.800176
 20
-729.197593
 40
3.116523
 50
121.522177
 51
135.0
  0
ARC
  8
APS_GEOMETRY
 10
706.285213
 20
-749.553632
 40
26.996315
 50
116.952179
 51
121.522177
  0
ARC
  8
APS_GEOMETRY
 10
692.652275
 20
-722.842669
 40
2.992871
 50
297.824096
 51
321.604835
  0
ARC
  8
APS_GEOMETRY
 10
693.341667
 20
-723.38898
 40
2.113258
 50
321.604835
 51
349.99202
  0
ARC
  8
APS_GEOMETRY
 10
690.142335
 20
-722.824392
 40
5.362025
 50
349.99202
 51
356.013707
  0
ARC
  8
APS_GEOMETRY
 10
641.479523
 20
-719.433255
 40
54.142852
 50
356.013707
 51
357.907934
  0
ARC
  8
APS_GEOMETRY
 10
584.675309
 20
-717.358216
 40
110.984954
 50
357.907934
 51
358.832845
  0
ARC
  8
APS_GEOMETRY
 10
379.278967
 20
-713.17357
 40
316.423919
 50
358.832845
 51
359.38061
  0
LINE
  8
APS_GEOMETRY
 10
710.466374
 11
710.466374
 20
-695.238792
 21
-706.357978
  0
ARC
  8
APS_GEOMETRY
 10
713.840779
 20
-706.357978
 40
3.374405
 50
180.0
 51
199.885165
  0
ARC
  8
APS_GEOMETRY
 10
711.315889
 20
-707.271235
 40
0.689427
 50
199.885165
 51
244.798876
  0
ARC
  8
APS_GEOMETRY
 10
712.767034
 20
-704.28102
 40
4.01312
 50
244.230672
 51
258.996459
  0
ARC
  8
APS_GEOMETRY
 10
713.376985
 20
-701.144129
 40
7.208761
 50
258.996459
 51
270.0
  0
ARC
  8
APS_GEOMETRY
 10
713.376985
 20
-701.902418
 40
6.450472
 50
270.0
 51
288.434949
  0
ARC
  8
APS_GEOMETRY
 10
713.839749
 20
-703.290712
 40
4.987082
 50
288.434949
 51
309.427802
  0
ARC
  8
APS_GEOMETRY
 10
714.008244
 20
-703.465053
 40
4.745445
 50
309.193273
 51
339.939397
  0
ARC
  8
APS_GEOMETRY
 10
708.13859
 20
-701.32164
 40
10.994208
 50
339.939397
 51
0.0
  0
ARC
  8
APS_GEOMETRY
 10
708.784947
 20
-701.32164
 40
10.347852
 50
0.0
 51
22.011283
  0
ARC
  8
APS_GEOMETRY
 10
713.369684
 20
-699.468236
 40
5.40266
 50
22.011283
 51
52.650651
  0
ARC
  8
APS_GEOMETRY
 10
713.298921
 20
-699.517271
 40
5.484635
 50
52.373766
 51
72.30911
  0
ARC
  8
APS_GEOMETRY
 10
712.853729
 20
-700.913009
 40
6.949653
 50
72.30911
 51
90.0
  0
ARC
  8
APS_GEOMETRY
 10
712.853729
 20
-698.015234
 40
4.051879
 50
90.0
 51
118.113209
  0
ARC
  8
APS_GEOMETRY
 10
711.370424
 20
-695.238792
 40
0.90405
 50
118.113209
 51
180.0
  0
ARC
  8
APS_GEOMETRY
 10
763.204019
 20
-712.223078
 40
25.781524
 50
71.909511
 51
90.0
  0
ARC
  8
APS_GEOMETRY
 10
764.202519
 20
-709.166445
 40
22.565936
 50
52.561428
 51
71.909511
  0
ARC
  8
APS_GEOMETRY
 10
763.940992
 20
-709.242507
 40
22.785888
 50
38.846006
 51
52.155542
  0
ARC
  8
APS_GEOMETRY
 10
760.368858
 20
-712.119302
 40
27.372399
 50
26.707224
 51
38.846006
  0
ARC
  8
APS_GEOMETRY
 10
761.075993
 20
-711.54139
 40
26.481717
 50
13.867603
 51
26.277857
  0
ARC
  8
APS_GEOMETRY
 10
766.175714
 20
-710.282396
 40
21.228887
 50
0.0
 51
13.867603
  0
ARC
  8
APS_GEOMETRY
 10
766.50592
 20
-710.282396
 40
20.898681
 50
339.712247
 51
0.0
  0
ARC
  8
APS_GEOMETRY
 10
765.329417
 20
-709.847481
 40
22.152997
 50
320.013114
 51
339.712247
  0
ARC
  8
APS_GEOMETRY
 10
765.134319
 20
-709.739933
 40
22.371633
 50
303.343757
 51
320.123166
  0
ARC
  8
APS_GEOMETRY
 10
762.83859
 20
-706.250829
 40
26.548261
 50
287.949403
 51
303.343757
  0
ARC
  8
APS_GEOMETRY
 10
762.084335
 20
-703.635719
 40
29.268668
 50
279.039483
 51
287.776406
  0
ARC
  8
APS_GEOMETRY
 10
762.386432
 20
-705.534614
 40
27.345893
 50
270.0
 51
279.039483
  0
ARC
  8
APS_GEOMETRY
 10
762.386432
 20
-706.869654
 40
26.010853
 50
257.72804
 51
270.0
  0
ARC
  8
APS_GEOMETRY
 10
762.42736
 20
-706.681499
 40
26.203407
 50
245.501426
 51
257.72804
  0
ARC
  8
APS_GEOMETRY
 10
760.954654
 20
-709.904274
 40
22.660086
 50
228.665185
 51
245.510859
  0
ARC
  8
APS_GEOMETRY
 10
760.464858
 20
-710.461115
 40
21.918485
 50
211.534792
 51
228.665185
  0
ARC
  8
APS_GEOMETRY
 10
761.106835
 20
-709.989673
 40
22.712325
 50
195.642246
 51
211.70143
  0
ARC
  8
APS_GEOMETRY
 10
762.280561
 20
-709.66103
 40
23.931193
 50
180.0
 51
195.642246
  0
ARC
  8
APS_GEOMETRY
 10
762.532127
 20
-709.66103
 40
24.182759
 50
162.181111
 51
180.0
  0
ARC
  8
APS_GEOMETRY
 10
760.325634
 20
-708.9518
 40
21.865083
 50
143.433519
 51
162.181111
  0
ARC
  8
APS_GEOMETRY
 10
760.028751
 20
-708.714018
 40
21.484982
 50
126.384352
 51
143.471145
  0
ARC
  8
APS_GEOMETRY
 10
762.062883
 20
-711.474625
 40
24.91407
 50
110.525108
 51
126.384352
  0
ARC
  8
APS_GEOMETRY
 10
761.962194
 20
-710.725009
 40
24.177325
 50
99.7697
 51
110.924502
  0
ARC
  8
APS_GEOMETRY
 10
763.204019
 20
-717.937147
 40
31.495593
 50
90.0
 51
99.7697
  0
ARC
  8
APS_GEOMETRY
 10
760.097188
 20
-700.634611
 40
4.807157
 50
90.0
 51
119.604451
  0
ARC
  8
APS_GEOMETRY
 10
760.518231
 20
-701.375646
 40
5.659453
 50
119.604451
 51
146.842076
  0
ARC
  8
APS_GEOMETRY
 10
761.364407
 20
-702.069413
 40
6.74833
 50
145.840305
 51
164.054604
  0
ARC
  8
APS_GEOMETRY
 10
763.325692
 20
-702.62978
 40
8.788097
 50
164.054604
 51
180.0
  0
ARC
  8
APS_GEOMETRY
 10
775.590148
 20
-702.62978
 40
21.052553
 50
180.0
 51
189.976729
  0
ARC
  8
APS_GEOMETRY
 10
794.241746
 20
-699.348811
 40
39.990527
 50
189.976729
 51
197.211115
  0
ARC
  8
APS_GEOMETRY
 10
798.321259
 20
-698.085123
 40
44.261281
 50
197.211115
 51
203.760424
  0
ARC
  8
APS_GEOMETRY
 10
788.15856
 20
-702.559025
 40
33.157396
 50
203.760424
 51
211.328693
  0
ARC
  8
APS_GEOMETRY
 10
767.290422
 20
-715.08277
 40
8.821499
 50
212.319617
 51
224.440823
  0
ARC
  8
APS_GEOMETRY
 10
766.435002
 20
-715.921654
 40
7.623388
 50
224.440823
 51
237.483626
  0
ARC
  8
APS_GEOMETRY
 10
765.882209
 20
-716.788819
 40
6.595013
 50
237.483626
 51
252.415923
  0
ARC
  8
APS_GEOMETRY
 10
765.329746
 20
-718.532082
 40
4.766303
 50
252.415923
 51
270.0
  0
ARC
  8
APS_GEOMETRY
 10
765.329746
 20
-717.966924
 40
5.331461
 50
270.0
 51
294.952847
  0
ARC
  8
APS_GEOMETRY
 10
765.47912
 20
-718.287946
 40
4.977388
 50
294.952847
 51
320.792796
  0
ARC
  8
APS_GEOMETRY
 10
764.67847
 20
-717.634784
 40
6.010664
 50
320.792796
 51
342.776564
  0
ARC
  8
APS_GEOMETRY
 10
761.110658
 20
-716.528762
 40
9.745978
 50
342.776564
 51
0.0
  0
ARC
  8
APS_GEOMETRY
 10
744.349538
 20
-716.528762
 40
26.507098
 50
0.0
 51
8.498559
  0
ARC
  8
APS_GEOMETRY
 10
732.68221
 20
-718.272156
 40
38.30396
 50
8.498559
 51
15.566318
  0
ARC
  8
APS_GEOMETRY
 10
734.085024
 20
-717.881372
 40
36.847733
 50
15.566318
 51
22.908635
  0
ARC
  8
APS_GEOMETRY
 10
746.148726
 20
-712.783322
 40
23.751053
 50
22.908635
 51
32.057376
  0
ARC
  8
APS_GEOMETRY
 10
755.624461
 20
-706.813741
 40
12.551777
 50
31.920876
 51
42.510447
  0
ARC
  8
APS_GEOMETRY
 10
758.226505
 20
-704.428534
 40
9.021927
 50
42.510447
 51
55.00798
  0
ARC
  8
APS_GEOMETRY
 10
759.105378
 20
-703.173002
 40
7.489354
 50
55.00798
 51
69.880367
  0
ARC
  8
APS_GEOMETRY
 10
759.893494
 20
-701.021657
 40
5.198196
 50
69.880367
 51
87.754257
  0
ARC
  8
APS_GEOMETRY
 10
813.717828
 20
-715.645483
 40
2.419773
 50
90.0
 51
115.836754
  0
ARC
  8
APS_GEOMETRY
 10
813.12205
 20
-714.415073
 40
1.05271
 50
115.836754
 51
155.462272
  0
ARC
  8
APS_GEOMETRY
 10
813.817331
 20
-714.732484
 40
1.817018
 50
155.462272
 51
168.366366
  0
ARC
  8
APS_GEOMETRY
 10
820.163319
 20
-716.039011
 40
8.296105
 50
168.366366
 51
174.395461
  0
ARC
  8
APS_GEOMETRY
 10
826.558955
 20
-716.66662
 40
14.722461
 50
174.395461
 51
177.813405
  0
ARC
  8
APS_GEOMETRY
 10
847.787478
 20
-717.477164
 40
35.966453
 50
177.813405
 51
180.0
  0
ARC
  8
APS_GEOMETRY
 10
863.155749
 20
-717.477164
 40
51.334724
 50
180.0
 51
184.619923
  0
ARC
  8
APS_GEOMETRY
 10
828.73592
 20
-720.258564
 40
16.802697
 50
184.619923
 51
192.699584
  0
ARC
  8
APS_GEOMETRY
 10
815.465777
 20
-723.17208
 40
3.217564
 50
194.036243
 51
205.820992
  0
ARC
  8
APS_GEOMETRY
 10
814.060422
 20
-723.852091
 40
1.656336
 50
205.820992
 51
222.273689
  0
ARC
  8
APS_GEOMETRY
 10
814.490949
 20
-723.460703
 40
2.238175
 50
222.273689
 51
234.605204
  0
ARC
  8
APS_GEOMETRY
 10
819.351339
 20
-716.620155
 40
10.629629
 50
234.605204
 51
240.255119
  0
ARC
  8
APS_GEOMETRY
 10
811.96262
 20
-729.694612
 40
4.388594
 50
34.592289
 51
61.189206
  0
ARC
  8
APS_GEOMETRY
 10
813.412841
 20
-728.69446
 40
2.626934
 50
0.0
 51
34.592289
  0
ARC
  8
APS_GEOMETRY
 10
813.50051
 20
-728.69446
 40
2.539265
 50
318.230949
 51
0.0
  0
ARC
  8
APS_GEOMETRY
 10
811.802367
 20
-727.177794
 40
4.816098
 50
288.227257
 51
318.230949
  0
ARC
  8
APS_GEOMETRY
 10
810.041265
 20
-721.829948
 40
10.446456
 50
280.377402
 51
288.227257
  0
ARC
  8
APS_GEOMETRY
 10
806.971406
 20
-705.06637
 40
27.488803
 50
275.540609
 51
280.377402
  0
ARC
  8
APS_GEOMETRY
 10
805.648494
 20
-691.428717
 40
41.19047
 50
272.304132
 51
275.540609
  0
ARC
  8
APS_GEOMETRY
 10
804.037595
 20
-651.392855
 40
81.258728
 50
270.0
 51
272.304132
  0
ARC
  8
APS_GEOMETRY
 10
804.037595
 20
-684.851587
 40
47.799995
 50
262.811463
 51
270.0
  0
ARC
  8
APS_GEOMETRY
 10
799.748512
 20
-718.85789
 40
13.524277
 50
249.274441
 51
262.811463
  0
ARC
  8
APS_GEOMETRY
 10
797.050569
 20
-725.988166
 40
5.900647
 50
221.378515
 51
249.274441
  0
ARC
  8
APS_GEOMETRY
 10
794.683895
 20
-728.073094
 40
2.746591
 50
180.0
 51
221.378515
  0
ARC
  8
APS_GEOMETRY
 10
794.665778
 20
-728.073094
 40
2.728474
 50
164.054604
 51
180.0
  0
ARC
  8
APS_GEOMETRY
 10
793.528371
 20
-727.74812
 40
1.545552
 50
142.815294
 51
164.054604
  0
ARC
  8
APS_GEOMETRY
 10
794.244203
 20
-728.291166
 40
2.444059
 50
129.007473
 51
142.815294
  0
ARC
  8
APS_GEOMETRY
 10
803.036163
 20
-739.145437
 40
16.412372
 50
123.690068
 51
129.007473
  0
ARC
  8
APS_GEOMETRY
 10
790.559681
 20
-720.372567
 40
6.128392
 50
303.388514
 51
319.02199
  0
ARC
  8
APS_GEOMETRY
 10
792.218195
 20
-721.813174
 40
3.931572
 50
319.02199
 51
338.574706
  0
ARC
  8
APS_GEOMETRY
 10
789.9987
 20
-720.942233
 40
6.315832
 50
338.574706
 51
351.048929
  0
ARC
  8
APS_GEOMETRY
 10
763.192623
 20
-716.72003
 40
33.45239
 50
351.048929
 51
356.460441
  0
ARC
  8
APS_GEOMETRY
 10
772.028644
 20
-717.05625
 40
24.613362
 50
355.971736
 51
358.680054
  0
ARC
  8
APS_GEOMETRY
 10
481.837712
 20
-710.369823
 40
314.881317
 50
358.680054
 51
359.437191
  0
LINE
  8
APS_GEOMETRY
 10
796.703838
 11
796.734497
 20
-713.46281
 21
-708.551155
  0
LINE
  8
APS_GEOMETRY
 10
796.734497
 11
796.744717
 20
-708.551155
 21
-702.139228
  0
ARC
  8
APS_GEOMETRY
 10
720.935477
 20
-702.139228
 40
75.80924
 50
0.0
 51
1.717132
  0
ARC
  8
APS_GEOMETRY
 10
761.503989
 20
-700.923041
 40
35.222502
 50
1.717132
 51
4.236395
  0
ARC
  8
APS_GEOMETRY
 10
774.733223
 20
-699.943098
 40
21.957024
 50
4.236395
 51
8.268833
  0
ARC
  8
APS_GEOMETRY
 10
789.956894
 20
-697.730661
 40
6.573427
 50
8.268833
 51
15.642246
  0
ARC
  8
APS_GEOMETRY
 10
792.576879
 20
-696.997065
 40
3.852677
 50
15.642246
 51
39.417394
  0
ARC
  8
APS_GEOMETRY
 10
792.635795
 20
-696.948641
 40
3.776414
 50
39.417394
 51
63.434949
  0
ARC
  8
APS_GEOMETRY
 10
799.437135
 20
-682.859059
 40
11.86934
 50
236.873849
 51
244.48613
  0
ARC
  8
APS_GEOMETRY
 10
794.377664
 20
-690.612535
 40
2.611121
 50
220.601295
 51
236.873849
  0
ARC
  8
APS_GEOMETRY
 10
793.797347
 20
-691.109949
 40
1.846799
 50
198.245855
 51
220.601295
  0
ARC
  8
APS_GEOMETRY
 10
794.665269
 20
-690.823821
 40
2.760668
 50
180.0
 51
198.245855
  0
ARC
  8
APS_GEOMETRY
 10
794.652185
 20
-690.823821
 40
2.747584
 50
156.16126
 51
180.0
  0
ARC
  8
APS_GEOMETRY
 10
795.035397
 20
-690.993147
 40
3.166539
 50
133.97697
 51
156.16126
  0
ARC
  8
APS_GEOMETRY
 10
795.798851
 20
-691.784363
 40
4.266032
 50
116.995838
 51
133.97697
  0
ARC
  8
APS_GEOMETRY
 10
797.315692
 20
-694.761866
 40
7.607638
 50
104.300277
 51
116.995838
  0
ARC
  8
APS_GEOMETRY
 10
797.707667
 20
-696.267849
 40
9.16378
 50
95.325741
 51
104.349332
  0
ARC
  8
APS_GEOMETRY
 10
799.295589
 20
-713.301925
 40
26.271709
 50
90.0
 51
95.325741
  0
ARC
  8
APS_GEOMETRY
 10
799.295589
 20
-700.043174
 40
13.012958
 50
87.552951
 51
90.0
  0
ARC
  8
APS_GEOMETRY
 10
796.526889
 20
-764.830748
 40
77.859665
 50
86.552613
 51
87.552951
  0
ARC
  8
APS_GEOMETRY
 10
792.59034
 20
-830.177467
 40
143.324848
 50
86.009087
 51
86.552613
  0
ARC
  8
APS_GEOMETRY
 10
777.282438
 20
-1049.590727
 40
363.271456
 50
85.667686
 51
86.009087
  0
ARC
  8
APS_GEOMETRY
 10
805.930545
 20
-672.280039
 40
15.125382
 50
265.426079
 51
268.531199
  0
ARC
  8
APS_GEOMETRY
 10
807.27524
 20
-619.836928
 40
67.58573
 50
268.531199
 51
270.0
  0
ARC
  8
APS_GEOMETRY
 10
807.27524
 20
-635.912026
 40
51.510632
 50
270.0
 51
271.636577
  0
ARC
  8
APS_GEOMETRY
 10
806.124253
 20
-595.627483
 40
91.811614
 50
271.636577
 51
272.862405
  0
ARC
  8
APS_GEOMETRY
 10
804.802775
 20
-569.197905
 40
118.274209
 50
272.862405
 51
273.814075
  0
ARC
  8
APS_GEOMETRY
 10
800.329184
 20
-502.094042
 40
185.527026
 50
273.814075
 51
274.573921
  0
ARC
  8
APS_GEOMETRY
 10
828.39126
 20
-867.084837
 40
180.54275
 50
93.719877
 51
94.214179
  0
ARC
  8
APS_GEOMETRY
 10
822.402163
 20
-774.966818
 40
88.230244
 50
93.012788
 51
93.719877
  0
ARC
  8
APS_GEOMETRY
 10
820.760275
 20
-743.770947
 40
56.991196
 50
91.91828
 51
93.012788
  0
ARC
  8
APS_GEOMETRY
 10
819.473642
 20
-705.355747
 40
18.554456
 50
90.0
 51
91.91828
  0
ARC
  8
APS_GEOMETRY
 10
819.473642
 20
-710.909868
 40
24.108577
 50
73.820397
 51
90.0
  0
ARC
  8
APS_GEOMETRY
 10
821.849775
 20
-702.720282
 40
15.581248
 50
53.657551
 51
73.820397
  0
ARC
  8
APS_GEOMETRY
 10
825.229517
 20
-698.100791
 40
9.857439
 50
26.029592
 51
53.569142
  0
ARC
  8
APS_GEOMETRY
 10
824.19248
 20
-698.607251
 40
11.011539
 50
0.0
 51
26.029592
  0
ARC
  8
APS_GEOMETRY
 10
823.761003
 20
-698.607251
 40
11.443017
 50
345.281696
 51
0.0
  0
ARC
  8
APS_GEOMETRY
 10
824.861764
 20
-698.896406
 40
10.30491
 50
329.767161
 51
345.281696
  0
ARC
  8
APS_GEOMETRY
 10
825.485404
 20
-699.259852
 40
9.583094
 50
313.168137
 51
329.767161
  0
ARC
  8
APS_GEOMETRY
 10
825.716338
 20
-699.506046
 40
9.24554
 50
296.266638
 51
313.168137
  0
ARC
  8
APS_GEOMETRY
 10
830.979484
 20
-710.140011
 40
2.619643
 50
116.565051
 51
139.899092
  0
ARC
  8
APS_GEOMETRY
 10
829.672822
 20
-709.039664
 40
0.911389
 50
139.899092
 51
180.0
  0
ARC
  8
APS_GEOMETRY
 10
829.774134
 20
-709.039664
 40
1.012702
 50
180.0
 51
226.193489
  0
ARC
  8
APS_GEOMETRY
 10
831.645066
 20
-707.089118
 40
3.715481
 50
226.193489
 51
249.829347
  0
ARC
  8
APS_GEOMETRY
 10
826.283925
 20
-721.850351
 40
11.989195
 50
53.249344
 51
70.104569
  0
ARC
  8
APS_GEOMETRY
 10
828.719201
 20
-718.589199
 40
7.9191
 50
32.471192
 51
53.249344
  0
ARC
  8
APS_GEOMETRY
 10
827.584192
 20
-719.311478
 40
9.264437
 50
23.304891
 51
32.471192
  0
ARC
  8
APS_GEOMETRY
 10
820.574092
 20
-722.331213
 40
16.89728
 50
16.520892
 51
23.304891
  0
ARC
  8
APS_GEOMETRY
 10
815.108566
 20
-723.952344
 40
22.598161
 50
11.429216
 51
16.520892
  0
ARC
  8
APS_GEOMETRY
 10
799.618702
 20
-727.083869
 40
38.401399
 50
7.52382
 51
11.429216
  0
ARC
  8
APS_GEOMETRY
 10
850.946896
 20
-720.247823
 40
13.380105
 50
187.765166
 51
196.914179
  0
ARC
  8
APS_GEOMETRY
 10
840.003664
 20
-723.57559
 40
1.942082
 50
196.914179
 51
221.081751
  0
ARC
  8
APS_GEOMETRY
 10
840.045386
 20
-723.539216
 40
1.997434
 50
221.081751
 51
244.607077
  0
ARC
  8
APS_GEOMETRY
 10
844.718774
 20
-713.693947
 40
12.895593
 50
244.607077
 51
253.810794
  0
ARC
  8
APS_GEOMETRY
 10
840.609963
 20
-727.703908
 40
1.704862
 50
51.449535
 51
72.474432
  0
ARC
  8
APS_GEOMETRY
 10
840.188117
 20
-728.233283
 40
2.381761
 50
33.690068
 51
51.449535
  0
ARC
  8
APS_GEOMETRY
 10
840.089463
 20
-728.299053
 40
2.500329
 50
16.638806
 51
33.690068
  0
ARC
  8
APS_GEOMETRY
 10
839.97011
 20
-728.334722
 40
2.624898
 50
0.0
 51
16.638806
  0
ARC
  8
APS_GEOMETRY
 10
839.933484
 20
-728.334722
 40
2.661524
 50
338.993211
 51
0.0
  0
ARC
  8
APS_GEOMETRY
 10
838.308347
 20
-727.710669
 40
4.40236
 50
322.696052
 51
338.993211
  0
ARC
  8
APS_GEOMETRY
 10
837.702845
 20
-727.249334
 40
5.163585
 50
308.603415
 51
322.696052
  0
ARC
  8
APS_GEOMETRY
 10
837.286138
 20
-726.727398
 40
5.831464
 50
295.346176
 51
308.603415
  0
ARC
  8
APS_GEOMETRY
 10
835.094942
 20
-721.901216
 40
11.131419
 50
279.582945
 51
294.904769
  0
ARC
  8
APS_GEOMETRY
 10
832.228002
 20
-704.920112
 40
28.352836
 50
270.0
 51
279.582945
  0
ARC
  8
APS_GEOMETRY
 10
832.228002
 20
-712.601263
 40
20.671686
 50
261.247402
 51
270.0
  0
ARC
  8
APS_GEOMETRY
 10
830.903871
 20
-721.201687
 40
11.969926
 50
249.737083
 51
261.247402
  0
ARC
  8
APS_GEOMETRY
 10
830.033451
 20
-723.559426
 40
9.456649
 50
235.344857
 51
249.737083
  0
ARC
  8
APS_GEOMETRY
 10
828.9343
 20
-725.149461
 40
7.523686
 50
219.198413
 51
235.344857
  0
ARC
  8
APS_GEOMETRY
 10
831.247289
 20
-723.1772
 40
10.562859
 50
209.075569
 51
219.559668
  0
ARC
  8
APS_GEOMETRY
 10
836.588029
 20
-720.207564
 40
16.673689
 50
200.735234
 51
209.075569
  0
ARC
  8
APS_GEOMETRY
 10
843.957571
 20
-717.417666
 40
24.553643
 50
197.881035
 51
200.735234
  0
ARC
  8
APS_GEOMETRY
 10
874.239072
 20
-707.648076
 40
56.3721
 50
195.997451
 51
197.881035
  0
ARC
  8
APS_GEOMETRY
 10
896.621012
 20
-701.231236
 40
79.655722
 50
194.663974
 51
195.997451
  0
ARC
  8
APS_GEOMETRY
 10
958.616248
 20
-685.008747
 40
143.738313
 50
193.671307
 51
194.663974
  0
ARC
  8
APS_GEOMETRY
 10
801.405755
 20
-723.229172
 40
18.051498
 50
13.609732
 51
23.584501
  0
ARC
  8
APS_GEOMETRY
 10
813.225185
 20
-718.069196
 40
5.154821
 50
23.584501
 51
42.31023
  0
ARC
  8
APS_GEOMETRY
 10
814.297194
 20
-717.093393
 40
3.705202
 50
42.31023
 51
67.520566
  0
ARC
  8
APS_GEOMETRY
 10
813.448833
 20
-719.1436
 40
5.924
 50
67.520566
 51
87.397438
  0
LINE
  8
APS_GEOMETRY
 10
811.853729
 11
811.49399
 20
-696.546931
 21
-704.166844
  0
LINE
  8
APS_GEOMETRY
 10
811.49399
 11
811.49399
 20
-704.166844
 21
-704.289482
  0
LINE
  8
APS_GEOMETRY
 10
811.49399
 11
811.49399
 20
-704.289482
 21
-704.461175
  0
ARC
  8
APS_GEOMETRY
 10
816.788283
 20
-704.461175
 40
5.294293
 50
180.0
 51
192.339087
  0
ARC
  8
APS_GEOMETRY
 10
812.579101
 20
-705.381934
 40
0.98558
 50
192.339087
 51
221.185925
  0
ARC
  8
APS_GEOMETRY
 10
812.478725
 20
-705.469763
 40
0.852203
 50
221.185925
 51
253.872424
  0
ARC
  8
APS_GEOMETRY
 10
813.194572
 20
-702.994126
 40
3.429258
 50
253.872424
 51
270.0
  0
ARC
  8
APS_GEOMETRY
 10
813.194572
 20
-698.452787
 40
7.970597
 50
270.0
 51
289.56871
  0
ARC
  8
APS_GEOMETRY
 10
814.643616
 20
-702.52922
 40
3.644278
 50
289.56871
 51
318.680622
  0
ARC
  8
APS_GEOMETRY
 10
814.251664
 20
-702.184647
 40
4.166157
 50
318.680622
 51
344.628325
  0
ARC
  8
APS_GEOMETRY
 10
806.948915
 20
-700.177018
 40
11.739843
 50
344.628325
 51
0.0
  0
ARC
  8
APS_GEOMETRY
 10
810.420725
 20
-700.177018
 40
8.268032
 50
0.0
 51
35.36883
  0
ARC
  8
APS_GEOMETRY
 10
814.20838
 20
-697.488372
 40
3.623127
 50
35.36883
 51
90.0
  0
ARC
  8
APS_GEOMETRY
 10
814.20838
 20
-697.52818
 40
3.662935
 50
90.0
 51
108.434949
  0
ARC
  8
APS_GEOMETRY
 10
813.49572
 20
-695.3902
 40
1.409306
 50
108.434949
 51
138.366461
  0
ARC
  8
APS_GEOMETRY
 10
813.686999
 20
-695.560225
 40
1.665228
 50
138.366461
 51
164.291362
  0
ARC
  8
APS_GEOMETRY
 10
818.172028
 20
-696.82164
 40
6.324268
 50
164.291362
 51
177.510447
  0
LINE
  8
APS_GEOMETRY
 10
862.367537
 11
879.602275
 20
-687.357251
 21
-687.357251
  0
ARC
  8
APS_GEOMETRY
 10
878.730678
 20
-662.661999
 40
24.710628
 50
272.021365
 51
278.440365
  0
ARC
  8
APS_GEOMETRY
 10
879.70342
 20
-669.217436
 40
18.083413
 50
278.440365
 51
285.945396
  0
ARC
  8
APS_GEOMETRY
 10
887.02056
 20
-695.414736
 40
9.117519
 50
98.583621
 51
104.931417
  0
ARC
  8
APS_GEOMETRY
 10
886.404601
 20
-691.334006
 40
4.990564
 50
90.0
 51
98.583621
  0
ARC
  8
APS_GEOMETRY
 10
886.404601
 20
-690.095135
 40
3.751692
 50
52.870717
 51
90.0
  0
ARC
  8
APS_GEOMETRY
 10
881.316002
 20
-696.816326
 40
12.181891
 50
32.517511
 51
52.870717
  0
ARC
  8
APS_GEOMETRY
 10
877.28478
 20
-699.38623
 40
16.962598
 50
17.208621
 51
32.517511
  0
ARC
  8
APS_GEOMETRY
 10
880.644649
 20
-698.345623
 40
13.445271
 50
0.0
 51
17.208621
  0
ARC
  8
APS_GEOMETRY
 10
887.37249
 20
-698.345623
 40
6.717431
 50
337.348108
 51
0.0
  0
ARC
  8
APS_GEOMETRY
 10
890.072404
 20
-699.472359
 40
3.791842
 50
307.042475
 51
337.348108
  0
ARC
  8
APS_GEOMETRY
 10
889.603155
 20
-698.827658
 40
4.589135
 50
287.185706
 51
306.869898
  0
ARC
  8
APS_GEOMETRY
 10
889.184397
 20
-697.473676
 40
6.006395
 50
270.0
 51
287.185706
  0
ARC
  8
APS_GEOMETRY
 10
889.184397
 20
-698.086585
 40
5.393486
 50
252.221439
 51
270.0
  0
ARC
  8
APS_GEOMETRY
 10
888.933312
 20
-698.869629
 40
4.57117
 50
232.895765
 51
252.221439
  0
ARC
  8
APS_GEOMETRY
 10
889.90384
 20
-697.586559
 40
6.179957
 50
218.299689
 51
232.895765
  0
ARC
  8
APS_GEOMETRY
 10
897.484077
 20
-691.600115
 40
15.83902
 50
209.197486
 51
218.299689
  0
ARC
  8
APS_GEOMETRY
 10
858.930309
 20
-712.487979
 40
28.011657
 50
28.024501
 51
32.699461
  0
ARC
  8
APS_GEOMETRY
 10
879.086416
 20
-699.548256
 40
4.059515
 50
32.699461
 51
45.0
  0
ARC
  8
APS_GEOMETRY
 10
880.460722
 20
-698.17395
 40
2.115953
 50
45.0
 51
67.557247
  0
ARC
  8
APS_GEOMETRY
 10
880.452566
 20
-698.193696
 40
2.137317
 50
67.557247
 51
90.0
  0
ARC
  8
APS_GEOMETRY
 10
880.452566
 20
-698.025165
 40
1.968787
 50
90.0
 51
120.801446
  0
ARC
  8
APS_GEOMETRY
 10
880.386037
 20
-697.913569
 40
1.838864
 50
120.801446
 51
152.700428
  0
ARC
  8
APS_GEOMETRY
 10
881.844849
 20
-698.666504
 40
3.480522
 50
152.700428
 51
171.085073
  0
ARC
  8
APS_GEOMETRY
 10
892.933772
 20
-700.405943
 40
14.705043
 50
171.085073
 51
180.0
  0
LINE
  8
APS_GEOMETRY
 10
878.228729
 11
878.228729
 20
-700.405943
 21
-718.719896
  0
ARC
  8
APS_GEOMETRY
 10
897.655799
 20
-718.719896
 40
19.42707
 50
180.0
 51
188.194263
  0
ARC
  8
APS_GEOMETRY
 10
883.148222
 20
-720.808987
 40
4.769851
 50
188.194263
 51
204.775141
  0
ARC
  8
APS_GEOMETRY
 10
881.738758
 20
-721.459509
 40
3.217508
 50
204.775141
 51
228.576334
  0
ARC
  8
APS_GEOMETRY
 10
883.061075
 20
-719.960883
 40
5.216108
 50
228.576334
 51
247.217594
  0
ARC
  8
APS_GEOMETRY
 10
875.392175
 20
-738.033037
 40
14.415923
 50
59.381395
 51
66.929588
  0
ARC
  8
APS_GEOMETRY
 10
881.053401
 20
-728.467517
 40
3.30068
 50
43.567904
 51
59.381395
  0
ARC
  8
APS_GEOMETRY
 10
881.958998
 20
-727.606095
 40
2.050818
 50
19.041231
 51
43.567904
  0
ARC
  8
APS_GEOMETRY
 10
880.700656
 20
-728.04039
 40
3.381997
 50
0.0
 51
19.041231
  0
ARC
  8
APS_GEOMETRY
 10
881.335216
 20
-728.04039
 40
2.747437
 50
317.65975
 51
0.0
  0
ARC
  8
APS_GEOMETRY
 10
878.812836
 20
-725.74196
 40
6.159941
 50
289.746837
 51
317.65975
  0
ARC
  8
APS_GEOMETRY
 10
876.700379
 20
-719.857259
 40
12.412315
 50
281.964396
 51
289.746837
  0
ARC
  8
APS_GEOMETRY
 10
873.773551
 20
-706.045415
 40
26.530862
 50
276.643452
 51
281.964396
  0
ARC
  8
APS_GEOMETRY
 10
872.541755
 20
-695.469569
 40
37.178202
 50
272.836113
 51
276.643452
  0
ARC
  8
APS_GEOMETRY
 10
871.066665
 20
-665.693822
 40
66.990463
 50
270.0
 51
272.836113
  0
ARC
  8
APS_GEOMETRY
 10
871.066665
 20
-647.244032
 40
85.440254
 50
267.283141
 51
270.0
  0
ARC
  8
APS_GEOMETRY
 10
869.27277
 20
-685.047086
 40
47.59466
 50
263.64272
 51
267.283141
  0
ARC
  8
APS_GEOMETRY
 10
867.770504
 20
-698.530839
 40
34.02748
 50
258.563267
 51
263.64272
  0
ARC
  8
APS_GEOMETRY
 10
864.181754
 20
-716.270352
 40
15.928599
 50
251.136412
 51
258.563267
  0
ARC
  8
APS_GEOMETRY
 10
860.977643
 20
-725.563088
 40
6.099088
 50
222.557585
 51
251.395035
  0
ARC
  8
APS_GEOMETRY
 10
858.60015
 20
-727.746059
 40
2.871421
 50
180.0
 51
222.557585
  0
ARC
  8
APS_GEOMETRY
 10
858.120489
 20
-727.746059
 40
2.39176
 50
150.642246
 51
180.0
  0
ARC
  8
APS_GEOMETRY
 10
858.312137
 20
-727.853861
 40
2.611648
 50
122.574057
 51
150.642246
  0
ARC
  8
APS_GEOMETRY
 10
857.805185
 20
-727.271472
 40
1.851424
 50
108.676702
 51
119.054604
  0
ARC
  8
APS_GEOMETRY
 10
880.92076
 20
-795.655046
 40
74.036208
 50
107.037768
 51
108.676702
  0
ARC
  8
APS_GEOMETRY
 10
858.366353
 20
-721.891547
 40
3.098808
 50
286.144339
 51
308.659808
  0
ARC
  8
APS_GEOMETRY
 10
858.873791
 20
-722.525845
 40
2.286512
 50
308.659808
 51
334.932537
  0
ARC
  8
APS_GEOMETRY
 10
856.809075
 20
-721.56009
 40
4.565927
 50
334.932537
 51
348.829022
  0
ARC
  8
APS_GEOMETRY
 10
830.983197
 20
-716.460022
 40
30.890567
 50
348.829022
 51
354.160508
  0
ARC
  8
APS_GEOMETRY
 10
813.527287
 20
-714.660718
 40
48.438962
 50
354.143986
 51
355.660291
  0
ARC
  8
APS_GEOMETRY
 10
736.151015
 20
-708.788835
 40
126.037715
 50
355.660291
 51
356.600286
  0
ARC
  8
APS_GEOMETRY
 10
677.00199
 20
-705.275031
 40
185.291018
 50
356.600286
 51
357.239747
  0
ARC
  8
APS_GEOMETRY
 10
509.176889
 20
-697.183713
 40
353.311058
 50
357.239747
 51
357.702834
  0
ARC
  8
APS_GEOMETRY
 10
525.697185
 20
-697.846418
 40
336.777476
 50
357.702834
 51
358.674384
  0
ARC
  8
APS_GEOMETRY
 10
681.529466
 20
-701.452454
 40
180.903478
 50
358.674384
 51
0.0
  0
ARC
  8
APS_GEOMETRY
 10
835.622877
 20
-701.452454
 40
26.810067
 50
0.0
 51
6.241914
  0
ARC
  8
APS_GEOMETRY
 10
856.942119
 20
-699.120662
 40
5.363685
 50
6.241914
 51
20.224859
  0
ARC
  8
APS_GEOMETRY
 10
859.896904
 20
-698.032057
 40
2.214746
 50
20.224859
 51
50.440332
  0
ARC
  8
APS_GEOMETRY
 10
860.470735
 20
-697.33742
 40
1.313744
 50
50.440332
 51
90.0
  0
ARC
  8
APS_GEOMETRY
 10
860.470735
 20
-697.785993
 40
1.762317
 50
90.0
 51
126.747471
  0
ARC
  8
APS_GEOMETRY
 10
862.960749
 20
-701.120833
 40
5.924208
 50
126.747471
 51
146.546691
  0
ARC
  8
APS_GEOMETRY
 10
818.973017
 20
-672.207894
 40
46.714947
 50
324.255019
 51
326.700579
  0
ARC
  8
APS_GEOMETRY
 10
837.595968
 20
-685.612024
 40
23.769686
 50
320.826342
 51
324.255019
  0
ARC
  8
APS_GEOMETRY
 10
843.682527
 20
-690.571442
 40
15.918442
 50
315.721571
 51
320.826342
  0
ARC
  8
APS_GEOMETRY
 10
850.67667
 20
-697.391601
 40
6.14948
 50
307.504142
 51
315.721571
  0
ARC
  8
APS_GEOMETRY
 10
850.031378
 20
-696.530304
 40
7.225632
 50
291.305784
 51
307.405357
  0
ARC
  8
APS_GEOMETRY
 10
851.15024
 20
-699.399181
 40
4.146296
 50
270.0
 51
291.305784
  0
ARC
  8
APS_GEOMETRY
 10
851.15024
 20
-699.666521
 40
3.878957
 50
245.531798
 51
270.0
  0
ARC
  8
APS_GEOMETRY
 10
851.120898
 20
-699.731001
 40
3.808114
 50
220.833495
 51
245.531798
  0
ARC
  8
APS_GEOMETRY
 10
851.514026
 20
-699.391261
 40
4.327703
 50
198.683699
 51
220.833495
  0
ARC
  8
APS_GEOMETRY
 10
853.155495
 20
-698.836175
 40
6.060487
 50
180.0
 51
198.683699
  0
ARC
  8
APS_GEOMETRY
 10
857.002704
 20
-698.836175
 40
9.907696
 50
168.407825
 51
180.0
  0
ARC
  8
APS_GEOMETRY
 10
863.355457
 20
-700.139304
 40
16.392726
 50
159.401826
 51
168.407825
  0
ARC
  8
APS_GEOMETRY
 10
865.31865
 20
-700.877148
 40
18.489996
 50
151.38954
 51
159.401826
  0
ARC
  8
APS_GEOMETRY
 10
864.916266
 20
-700.657666
 40
18.031646
 50
143.275893
 51
151.38954
  0
ARC
  8
APS_GEOMETRY
 10
859.866672
 20
-696.881729
 40
11.726407
 50
124.215702
 51
143.310277
  0
ARC
  8
APS_GEOMETRY
 10
855.36899
 20
-690.267492
 40
3.727828
 50
90.0
 51
124.215702
  0
ARC
  8
APS_GEOMETRY
 10
855.36899
 20
-691.924063
 40
5.3844
 50
82.724995
 51
90.0
  0
ARC
  8
APS_GEOMETRY
 10
854.948296
 20
-695.219506
 40
8.706586
 50
77.005383
 51
82.724995
  0
ARC
  8
APS_GEOMETRY
 10
867.796658
 20
-633.272921
 40
54.560918
 50
258.486169
 51
260.377772
  0
ARC
  8
APS_GEOMETRY
 10
862.292672
 20
-665.737839
 40
21.632741
 50
260.377772
 51
263.382083
  0
ARC
  8
APS_GEOMETRY
 10
861.821904
 20
-669.795458
 40
17.547904
 50
263.382083
 51
267.083862
  0
ARC
  8
APS_GEOMETRY
 10
862.367537
 20
-659.084206
 40
28.273045
 50
267.083862
 51
270.0
  0
LINE
  8
APS_GEOMETRY
 10
905.784688
 11
922.594281
 20
-687.357251
 21
-687.357251
  0
ARC
  8
APS_GEOMETRY
 10
922.594281
 20
-475.637717
 40
211.719534
 50
270.0
 51
270.690277
  0
ARC
  8
APS_GEOMETRY
 10
923.787729
 20
-574.69387
 40
112.656192
 50
270.690277
 51
271.636577
  0
ARC
  8
APS_GEOMETRY
 10
924.793267
 20
-609.887692
 40
77.448008
 50
271.636577
 51
273.012788
  0
ARC
  8
APS_GEOMETRY
 10
927.243935
 20
-656.450388
 40
30.820865
 50
273.012788
 51
275.194429
  0
ARC
  8
APS_GEOMETRY
 10
927.851326
 20
-663.131695
 40
24.112006
 50
275.194429
 51
280.755985
  0
ARC
  8
APS_GEOMETRY
 10
927.965524
 20
-663.732848
 40
23.500103
 50
280.755985
 51
286.38954
  0
ARC
  8
APS_GEOMETRY
 10
936.579185
 20
-693.217568
 40
7.217223
 50
100.304846
 51
105.945396
  0
ARC
  8
APS_GEOMETRY
 10
935.675676
 20
-688.248272
 40
2.166457
 50
90.0
 51
100.304846
  0
ARC
  8
APS_GEOMETRY
 10
935.675676
 20
-689.021553
 40
2.939738
 50
58.945729
 51
90.0
  0
ARC
  8
APS_GEOMETRY
 10
934.551341
 20
-690.888753
 40
5.119318
 50
35.537678
 51
58.945729
  0
ARC
  8
APS_GEOMETRY
 10
930.162622
 20
-694.117558
 40
10.567546
 50
16.699244
 51
35.952428
  0
ARC
  8
APS_GEOMETRY
 10
926.861222
 20
-695.107978
 40
14.014309
 50
0.0
 51
16.699244
  0
ARC
  8
APS_GEOMETRY
 10
933.011516
 20
-695.107978
 40
7.864015
 50
344.981639
 51
0.0
  0
ARC
  8
APS_GEOMETRY
 10
936.78606
 20
-696.12066
 40
3.955984
 50
323.746162
 51
344.981639
  0
ARC
  8
APS_GEOMETRY
 10
937.624959
 20
-696.735853
 40
2.915689
 50
296.113913
 51
323.746162
  0
ARC
  8
APS_GEOMETRY
 10
937.474368
 20
-696.428648
 40
3.257818
 50
270.0
 51
296.113913
  0
ARC
  8
APS_GEOMETRY
 10
937.474368
 20
-695.602019
 40
4.084447
 50
255.311213
 51
270.0
  0
ARC
  8
APS_GEOMETRY
 10
936.92826
 20
-697.685321
 40
1.930756
 50
233.880659
 51
255.311213
  0
ARC
  8
APS_GEOMETRY
 10
937.503055
 20
-696.897639
 40
2.905863
 50
219.289407
 51
233.880659
  0
ARC
  8
APS_GEOMETRY
 10
949.033172
 20
-687.463907
 40
17.803477
 50
213.407825
 51
219.289407
  0
ARC
  8
APS_GEOMETRY
 10
927.431994
 20
-701.692231
 40
8.062653
 50
33.293563
 51
51.246316
  0
ARC
  8
APS_GEOMETRY
 10
928.529859
 20
-700.3245
 40
6.308801
 50
51.246316
 51
71.565051
  0
ARC
  8
APS_GEOMETRY
 10
927.804027
 20
-702.501996
 40
8.604083
 50
71.565051
 51
79.27849
  0
ARC
  8
APS_GEOMETRY
 10
925.475989
 20
-714.797485
 40
21.118028
 50
79.27849
 51
84.199782
  0
ARC
  8
APS_GEOMETRY
 10
924.482675
 20
-724.576108
 40
30.946973
 50
84.199782
 51
87.566799
  0
ARC
  8
APS_GEOMETRY
 10
923.281054
 20
-752.854251
 40
59.250634
 50
87.566799
 51
90.0
  0
ARC
  8
APS_GEOMETRY
 10
923.281054
 20
-710.259443
 40
16.655826
 50
90.0
 51
96.37446
  0
ARC
  8
APS_GEOMETRY
 10
922.175487
 20
-700.363263
 40
6.698082
 50
96.37446
 51
106.434163
  0
ARC
  8
APS_GEOMETRY
 10
921.389849
 20
-697.699762
 40
3.92113
 50
106.434163
 51
123.055823
  0
ARC
  8
APS_GEOMETRY
 10
920.163458
 20
-695.815307
 40
1.672752
 50
123.055823
 51
148.626995
  0
ARC
  8
APS_GEOMETRY
 10
921.283725
 20
-696.450366
 40
2.960132
 50
149.420773
 51
165.28034
  0
ARC
  8
APS_GEOMETRY
 10
924.512328
 20
-697.298558
 40
6.29829
 50
165.28034
 51
176.134539
  0
ARC
  8
APS_GEOMETRY
 10
933.754948
 20
-697.923059
 40
15.561985
 50
176.134539
 51
178.366533
  0
ARC
  8
APS_GEOMETRY
 10
1019.260806
 20
-700.361439
 40
101.102604
 50
178.366533
 51
179.242164
  0
ARC
  8
APS_GEOMETRY
 10
1107.629381
 20
-701.530336
 40
189.478909
 50
179.242164
 51
179.709456
  0
ARC
  8
APS_GEOMETRY
 10
1408.278411
 20
-703.054925
 40
490.131804
 50
179.709456
 51
180.0
  0
ARC
  8
APS_GEOMETRY
 10
925.237513
 20
-703.054925
 40
7.090907
 50
180.0
 51
195.027109
  0
ARC
  8
APS_GEOMETRY
 10
919.438384
 20
-704.611739
 40
1.086444
 50
195.027109
 51
234.057888
  0
ARC
  8
APS_GEOMETRY
 10
919.494876
 20
-704.533819
 40
1.182688
 50
234.057888
 51
253.191308
  0
ARC
  8
APS_GEOMETRY
 10
920.732127
 20
-700.438092
 40
5.461212
 50
253.191308
 51
262.062812
  0
ARC
  8
APS_GEOMETRY
 10
921.365845
 20
-695.892801
 40
10.050468
 50
262.062812
 51
266.948518
  0
ARC
  8
APS_GEOMETRY
 10
922.201839
 20
-680.210704
 40
25.754832
 50
266.948518
 51
270.0
  0
ARC
  8
APS_GEOMETRY
 10
922.201839
 20
-701.243775
 40
4.721761
 50
270.0
 51
286.007404
  0
ARC
  8
APS_GEOMETRY
 10
923.028316
 20
-704.124637
 40
1.724691
 50
286.007404
 51
312.646703
  0
ARC
  8
APS_GEOMETRY
 10
923.010981
 20
-704.105816
 40
1.750278
 50
312.646703
 51
338.993211
  0
ARC
  8
APS_GEOMETRY
 10
919.436188
 20
-702.733096
 40
5.579574
 50
338.993211
 51
353.659808
  0
ARC
  8
APS_GEOMETRY
 10
956.355392
 20
-707.135745
 40
31.601426
 50
169.663446
 51
173.118276
  0
ARC
  8
APS_GEOMETRY
 10
929.965656
 20
-702.322522
 40
4.776338
 50
160.769328
 51
169.663446
  0
ARC
  8
APS_GEOMETRY
 10
927.758394
 20
-701.552547
 40
2.438633
 50
143.746162
 51
160.769328
  0
ARC
  8
APS_GEOMETRY
 10
928.291782
 20
-701.943699
 40
3.100073
 50
128.659808
 51
143.746162
  0
ARC
  8
APS_GEOMETRY
 10
927.936151
 20
-701.367412
 40
2.429302
 50
110.170653
 51
130.601295
  0
ARC
  8
APS_GEOMETRY
 10
927.957653
 20
-701.425946
 40
2.49166
 50
90.0
 51
110.170653
  0
ARC
  8
APS_GEOMETRY
 10
927.957653
 20
-701.461396
 40
2.52711
 50
61.220194
 51
90.0
  0
ARC
  8
APS_GEOMETRY
 10
927.516672
 20
-702.264207
 40
3.443063
 50
36.634114
 51
61.220194
  0
ARC
  8
APS_GEOMETRY
 10
927.102529
 20
-702.51036
 40
3.922591
 50
19.103091
 51
35.909723
  0
ARC
  8
APS_GEOMETRY
 10
914.307401
 20
-706.941843
 40
17.463394
 50
11.159944
 51
19.103091
  0
ARC
  8
APS_GEOMETRY
 10
907.622406
 20
-708.260652
 40
24.277234
 50
5.396292
 51
11.159944
  0
ARC
  8
APS_GEOMETRY
 10
904.222507
 20
-708.581815
 40
27.692268
 50
0.0
 51
5.396292
  0
ARC
  8
APS_GEOMETRY
 10
904.704416
 20
-708.581815
 40
27.21036
 50
349.286877
 51
0.0
  0
ARC
  8
APS_GEOMETRY
 10
918.062419
 20
-711.109005
 40
13.615399
 50
334.119726
 51
349.286877
  0
ARC
  8
APS_GEOMETRY
 10
927.264246
 20
-715.555699
 40
3.395531
 50
303.53047
 51
333.853159
  0
ARC
  8
APS_GEOMETRY
 10
927.597915
 20
-716.059235
 40
2.791475
 50
270.0
 51
303.53047
  0
ARC
  8
APS_GEOMETRY
 10
927.597915
 20
-715.928797
 40
2.921913
 50
249.577667
 51
270.0
  0
ARC
  8
APS_GEOMETRY
 10
926.976262
 20
-717.59838
 40
1.140353
 50
216.607075
 51
249.577667
  0
ARC
  8
APS_GEOMETRY
 10
927.57059
 20
-717.156879
 40
1.880723
 50
195.422161
 51
216.607075
  0
ARC
  8
APS_GEOMETRY
 10
937.832944
 20
-714.325884
 40
12.526401
 50
187.253195
 51
195.422161
  0
ARC
  8
APS_GEOMETRY
 10
921.26012
 20
-716.457838
 40
4.183036
 50
7.561428
 51
49.434471
  0
ARC
  8
APS_GEOMETRY
 10
921.089921
 20
-716.656655
 40
4.444753
 50
49.434471
 51
90.0
  0
ARC
  8
APS_GEOMETRY
 10
921.089921
 20
-715.20267
 40
2.990768
 50
90.0
 51
115.223923
  0
ARC
  8
APS_GEOMETRY
 10
920.498393
 20
-713.946971
 40
1.602717
 50
115.223923
 51
149.931417
  0
ARC
  8
APS_GEOMETRY
 10
921.567767
 20
-714.566082
 40
2.838379
 50
149.931417
 51
171.111058
  0
ARC
  8
APS_GEOMETRY
 10
934.535234
 20
-716.594169
 40
15.963482
 50
171.111058
 51
180.0
  0
ARC
  8
APS_GEOMETRY
 10
947.310662
 20
-716.594169
 40
28.73891
 50
180.0
 51
183.062287
  0
ARC
  8
APS_GEOMETRY
 10
991.298279
 20
-714.240922
 40
72.789429
 50
183.062287
 51
184.986334
  0
ARC
  8
APS_GEOMETRY
 10
968.225676
 20
-716.253968
 40
49.629175
 50
184.986334
 51
187.804099
  0
ARC
  8
APS_GEOMETRY
 10
924.524626
 20
-722.243452
 40
5.519587
 50
187.804099
 51
196.260205
  0
ARC
  8
APS_GEOMETRY
 10
920.670827
 20
-723.403602
 40
1.4955
 50
194.931417
 51
230.024075
  0
ARC
  8
APS_GEOMETRY
 10
921.651729
 20
-722.233611
 40
3.022278
 50
230.024075
 51
254.511499
  0
ARC
  8
APS_GEOMETRY
 10
922.843368
 20
-717.933346
 40
7.484596
 50
254.511499
 51
265.219116
  0
ARC
  8
APS_GEOMETRY
 10
925.341374
 20
-688.065884
 40
37.456338
 50
265.219116
 51
270.0
  0
ARC
  8
APS_GEOMETRY
 10
925.341374
 20
-692.025651
 40
33.49657
 50
270.0
 51
274.186237
  0
ARC
  8
APS_GEOMETRY
 10
926.359988
 20
-705.942304
 40
19.542689
 50
274.186237
 51
279.667756
  0
ARC
  8
APS_GEOMETRY
 10
927.19606
 20
-710.85015
 40
14.564138
 50
279.667756
 51
286.990823
  0
ARC
  8
APS_GEOMETRY
 10
929.108879
 20
-717.110287
 40
8.018285
 50
286.990823
 51
296.865814
  0
ARC
  8
APS_GEOMETRY
 10
929.506248
 20
-717.894703
 40
7.138962
 50
296.865814
 51
318.366461
  0
ARC
  8
APS_GEOMETRY
 10
925.507266
 20
-714.340052
 40
12.48942
 50
318.366461
 51
334.580712
  0
ARC
  8
APS_GEOMETRY
 10
951.836647
 20
-726.96606
 40
16.710926
 50
147.079531
 51
154.230672
  0
ARC
  8
APS_GEOMETRY
 10
940.830198
 20
-719.84009
 40
3.599048
 50
131.633539
 51
147.079531
  0
ARC
  8
APS_GEOMETRY
 10
940.009676
 20
-718.917003
 40
2.363998
 50
108.87455
 51
131.633539
  0
ARC
  8
APS_GEOMETRY
 10
940.352275
 20
-719.919106
 40
3.423047
 50
90.0
 51
108.87455
  0
ARC
  8
APS_GEOMETRY
 10
940.352275
 20
-719.223504
 40
2.727445
 50
62.628019
 51
90.0
  0
ARC
  8
APS_GEOMETRY
 10
940.179686
 20
-719.556862
 40
3.102832
 50
36.995271
 51
62.628019
  0
ARC
  8
APS_GEOMETRY
 10
939.40635
 20
-720.139513
 40
4.071093
 50
16.727964
 51
36.995271
  0
ARC
  8
APS_GEOMETRY
 10
937.600996
 20
-720.682105
 40
5.956222
 50
0.0
 51
16.727964
  0
ARC
  8
APS_GEOMETRY
 10
934.025172
 20
-720.682105
 40
9.532045
 50
348.323262
 51
0.0
  0
ARC
  8
APS_GEOMETRY
 10
919.71616
 20
-717.72491
 40
24.143439
 50
340.994016
 51
348.323262
  0
ARC
  8
APS_GEOMETRY
 10
916.322273
 20
-716.555904
 40
27.733013
 50
334.592282
 51
340.994016
  0
ARC
  8
APS_GEOMETRY
 10
922.246137
 20
-719.369739
 40
21.174825
 50
327.264774
 51
334.592282
  0
ARC
  8
APS_GEOMETRY
 10
929.12629
 20
-723.425244
 40
13.197963
 50
320.132554
 51
325.922805
  0
ARC
  8
APS_GEOMETRY
 10
937.129079
 20
-730.108893
 40
2.771277
 50
307.47618
 51
320.132554
  0
ARC
  8
APS_GEOMETRY
 10
937.830069
 20
-731.023227
 40
1.619151
 50
286.429301
 51
307.47618
  0
ARC
  8
APS_GEOMETRY
 10
937.539775
 20
-730.038753
 40
2.645533
 50
270.0
 51
286.429301
  0
ARC
  8
APS_GEOMETRY
 10
937.539775
 20
-726.980309
 40
5.703977
 50
263.774171
 51
270.0
  0
ARC
  8
APS_GEOMETRY
 10
939.208532
 20
-711.683375
 40
21.091665
 50
260.537678
 51
263.774171
  0
ARC
  8
APS_GEOMETRY
 10
931.739579
 20
-753.82942
 40
21.713256
 50
79.380345
 51
84.986886
  0
ARC
  8
APS_GEOMETRY
 10
928.501798
 20
-790.740132
 40
58.765704
 50
84.986886
 51
88.393997
  0
LINE
  8
APS_GEOMETRY
 10
930.148787
 11
902.416229
 20
-731.997512
 21
-731.997512
  0
ARC
  8
APS_GEOMETRY
 10
902.416229
 20
-726.193776
 40
5.803737
 50
254.10251
 51
270.0
  0
ARC
  8
APS_GEOMETRY
 10
901.598821
 20
-729.063787
 40
2.819592
 50
231.215636
 51
254.10251
  0
ARC
  8
APS_GEOMETRY
 10
901.263194
 20
-729.481455
 40
2.283782
 50
203.794835
 51
231.215636
  0
ARC
  8
APS_GEOMETRY
 10
901.935484
 20
-729.185012
 40
3.018529
 50
180.0
 51
203.794835
  0
ARC
  8
APS_GEOMETRY
 10
902.189961
 20
-729.185012
 40
3.273005
 50
164.054604
 51
180.0
  0
ARC
  8
APS_GEOMETRY
 10
900.173158
 20
-728.608783
 40
1.175498
 50
137.29061
 51
164.054604
  0
ARC
  8
APS_GEOMETRY
 10
900.780072
 20
-729.169012
 40
2.001453
 50
120.963757
 51
137.29061
  0
ARC
  8
APS_GEOMETRY
 10
907.280758
 20
-740.003488
 40
14.636515
 50
114.943905
 51
120.963757
  0
ARC
  8
APS_GEOMETRY
 10
899.165516
 20
-722.249389
 40
4.885656
 50
293.428693
 51
305.719954
  0
ARC
  8
APS_GEOMETRY
 10
900.509383
 20
-724.118204
 40
2.583821
 50
305.719954
 51
322.650651
  0
ARC
  8
APS_GEOMETRY
 10
900.30086
 20
-723.959068
 40
2.84613
 50
322.650651
 51
338.110443
  0
ARC
  8
APS_GEOMETRY
 10
896.242979
 20
-722.32867
 40
7.219298
 50
338.110443
 51
347.799531
  0
ARC
  8
APS_GEOMETRY
 10
871.042539
 20
-716.80487
 40
33.018006
 50
347.672229
 51
352.050998
  0
ARC
  8
APS_GEOMETRY
 10
846.649707
 20
-713.398819
 40
57.64749
 50
352.050998
 51
355.364537
  0
ARC
  8
APS_GEOMETRY
 10
830.222706
 20
-712.0669
 40
74.128399
 50
355.364537
 51
357.943473
  0
ARC
  8
APS_GEOMETRY
 10
787.812931
 20
-710.544024
 40
116.565507
 50
357.943473
 51
0.0
  0
ARC
  8
APS_GEOMETRY
 10
738.860671
 20
-710.544024
 40
165.517767
 50
0.0
 51
2.183373
  0
ARC
  8
APS_GEOMETRY
 10
837.835637
 20
-706.770554
 40
66.470894
 50
2.183373
 51
5.629042
  0
ARC
  8
APS_GEOMETRY
 10
867.319618
 20
-703.864536
 40
36.844048
 50
5.629042
 51
11.804813
  0
ARC
  8
APS_GEOMETRY
 10
895.935593
 20
-697.883839
 40
7.609774
 50
11.804813
 51
25.419288
  0
ARC
  8
APS_GEOMETRY
 10
899.639128
 20
-696.202196
 40
3.543656
 50
26.565051
 51
38.157227
  0
ARC
  8
APS_GEOMETRY
 10
901.28361
 20
-694.910104
 40
1.452288
 50
38.157227
 51
56.309932
  0
ARC
  8
APS_GEOMETRY
 10
900.935888
 20
-695.431686
 40
2.079151
 50
56.309932
 51
69.193209
  0
ARC
  8
APS_GEOMETRY
 10
896.056027
 20
-708.273427
 40
15.816813
 50
69.193209
 51
73.855661
  0
ARC
  8
APS_GEOMETRY
 10
901.203788
 20
-690.566432
 40
2.623355
 50
216.869898
 51
253.393019
  0
ARC
  8
APS_GEOMETRY
 10
901.165836
 20
-690.594896
 40
2.575915
 50
180.0
 51
216.869898
  0
ARC
  8
APS_GEOMETRY
 10
901.727744
 20
-690.594896
 40
3.137824
 50
161.565051
 51
180.0
  0
ARC
  8
APS_GEOMETRY
 10
901.614286
 20
-690.557077
 40
3.018228
 50
142.765166
 51
161.565051
  0
ARC
  8
APS_GEOMETRY
 10
901.542104
 20
-690.502219
 40
2.927566
 50
123.424811
 51
142.765166
  0
ARC
  8
APS_GEOMETRY
 10
901.607795
 20
-690.60175
 40
3.046821
 50
104.470294
 51
123.424811
  0
ARC
  8
APS_GEOMETRY
 10
902.187747
 20
-693.463818
 40
5.964992
 50
96.724353
 51
102.994617
  0
ARC
  8
APS_GEOMETRY
 10
903.988768
 20
-708.739149
 40
21.346131
 50
93.410945
 51
96.724353
  0
ARC
  8
APS_GEOMETRY
 10
904.788685
 20
-722.159978
 40
34.790777
 50
91.374835
 51
93.410945
  0
ARC
  8
APS_GEOMETRY
 10
905.784688
 20
-763.660105
 40
76.302854
 50
90.0
 51
91.374835
  0
LINE
  8
COSTRUZIONI
 10
1884.451571
 11
1108.451571
 20
2099.0
 21
2099.0
  0
LINE
  8
COSTRUZIONI
 10
1108.451571
 11
1884.451571
 20
0.0
 21
0.0
  0
CIRCLE
  8
COSTRUZIONI
 10
1142.951571
 20
1040.0
 40
10.0
  0
ARC
  8
COSTRUZIONI
 10
1142.951571
 20
939.5
 40
7.0
 50
180.0
 51
270.0
  0
LINE
  8
COSTRUZIONI
 10
1135.951571
 11
1135.951571
 20
939.5
 21
950.5
  0
ARC
  8
COSTRUZIONI
 10
1142.951571
 20
950.5
 40
7.0
 50
0.0
 51
180.0
  0
LINE
  8
COSTRUZIONI
 10
1149.951571
 11
1149.951571
 20
950.5
 21
939.5
  0
ARC
  8
COSTRUZIONI
 10
1142.951571
 20
939.5
 40
7.0
 50
270.0
 51
0.0
  0
LINE
  8
COSTRUZIONI
 10
1108.451571
 11
1108.451571
 20
0.0
 21
2099.0
  0
LINE
  8
COSTRUZIONI
 10
1884.451571
 11
1884.451571
 20
0.0
 21
2099.0
  0
LINE
  8
QUOTATURA
 10
1098.451571
 11
941.662243
 20
0.0
 21
0.0
  0
LINE
  8
QUOTATURA
 10
1142.951571
 11
941.662243
 20
1040.0
 21
1040.0
  0
LINE
  8
QUOTATURA
 10
951.662243
 11
951.662243
 20
0.0
 21
504.756059
  0
LINE
  8
QUOTATURA
 10
951.662243
 11
951.662243
 20
535.006859
 21
1040.0
  0
LINE
  8
QUOTATURA
 10
954.996243
 11
951.662243
 20
20.0
 21
0.0
  0
LINE
  8
QUOTATURA
 10
951.662243
 11
948.328243
 20
0.0
 21
20.0
  0
LINE
  8
QUOTATURA
 10
948.328243
 11
954.996243
 20
20.0
 21
20.0
  0
LINE
  8
QUOTATURA
 10
948.328243
 11
951.662243
 20
1020.0
 21
1040.0
  0
LINE
  8
QUOTATURA
 10
951.662243
 11
954.996243
 20
1040.0
 21
1020.0
  0
LINE
  8
QUOTATURA
 10
954.996243
 11
948.328243
 20
1020.0
 21
1020.0
  0
LINE
  8
QUOTATURA
 10
1152.951571
 11
1152.951571
 20
1036.666
 21
1043.334
  0
LINE
  8
QUOTATURA
 10
1149.617571
 11
1156.285571
 20
1040.0
 21
1040.0
  0
LINE
  8
QUOTATURA
 10
1108.451571
 11
1108.451571
 20
-10.0
 21
-131.239411
  0
LINE
  8
QUOTATURA
 10
1884.451571
 11
1884.451571
 20
-10.0
 21
-131.239411
  0
LINE
  8
QUOTATURA
 10
1108.451571
 11
1466.118574
 20
-121.239411
 21
-121.239411
  0
LINE
  8
QUOTATURA
 10
1526.784569
 11
1884.451571
 20
-121.239411
 21
-121.239411
  0
LINE
  8
QUOTATURA
 10
1128.451571
 11
1108.451571
 20
-124.573411
 21
-121.239411
  0
LINE
  8
QUOTATURA
 10
1108.451571
 11
1128.451571
 20
-121.239411
 21
-117.905411
  0
LINE
  8
QUOTATURA
 10
1128.451571
 11
1128.451571
 20
-117.905411
 21
-124.573411
  0
LINE
  8
QUOTATURA
 10
1864.451571
 11
1884.451571
 20
-117.905411
 21
-121.239411
  0
LINE
  8
QUOTATURA
 10
1884.451571
 11
1864.451571
 20
-121.239411
 21
-124.573411
  0
LINE
  8
QUOTATURA
 10
1864.451571
 11
1864.451571
 20
-124.573411
 21
-117.905411
  0
LINE
  8
QUOTATURA
 10
1894.451571
 11
2020.53766
 20
2099.0
 21
2099.0
  0
LINE
  8
QUOTATURA
 10
1894.451571
 11
2020.53766
 20
0.0
 21
0.0
  0
LINE
  8
QUOTATURA
 10
2010.53766
 11
2010.53766
 20
2099.0
 21
1064.562893
  0
LINE
  8
QUOTATURA
 10
2010.53766
 11
2010.53766
 20
1034.251961
 21
0.0
  0
LINE
  8
QUOTATURA
 10
2007.20366
 11
2010.53766
 20
2079.0
 21
2099.0
  0
LINE
  8
QUOTATURA
 10
2010.53766
 11
2013.87166
 20
2099.0
 21
2079.0
  0
LINE
  8
QUOTATURA
 10
2013.87166
 11
2007.20366
 20
2079.0
 21
2079.0
  0
LINE
  8
QUOTATURA
 10
2013.87166
 11
2010.53766
 20
20.0
 21
0.0
  0
LINE
  8
QUOTATURA
 10
2010.53766
 11
2007.20366
 20
0.0
 21
20.0
  0
LINE
  8
QUOTATURA
 10
2007.20366
 11
2013.87166
 20
20.0
 21
20.0
  0
LINE
  8
COSTRUZIONI
 10
0.0
 11
776.0
 20
2099.0
 21
2099.0
  0
LINE
  8
COSTRUZIONI
 10
776.0
 11
0.0
 20
0.0
 21
0.0
  0
CIRCLE
  8
COSTRUZIONI
 10
731.5
 20
1040.0
 40
10.0
  0
ARC
  8
COSTRUZIONI
 10
731.5
 20
939.5
 40
7.0
 50
270.0
 51
0.0
  0
LINE
  8
COSTRUZIONI
 10
738.5
 11
738.5
 20
939.5
 21
950.5
  0
ARC
  8
COSTRUZIONI
 10
731.5
 20
950.5
 40
7.0
 50
0.0
 51
180.0
  0
LINE
  8
COSTRUZIONI
 10
724.5
 11
724.5
 20
950.5
 21
939.5
  0
ARC
  8
COSTRUZIONI
 10
731.5
 20
939.5
 40
7.0
 50
180.0
 51
270.0
  0
LINE
  8
COSTRUZIONI
 10
776.0
 11
776.0
 20
0.0
 21
2099.0
  0
LINE
  8
COSTRUZIONI
 10
0.0
 11
0.0
 20
0.0
 21
2099.0
  0
LINE
  8
COSTRUZIONI
 10
1192.951571
 11
1192.951571
 20
845.727117
 21
100.0
  0
LINE
  8
COSTRUZIONI
 10
1192.951571
 11
1799.951571
 20
100.0
 21
100.0
  0
LINE
  8
COSTRUZIONI
 10
1799.951571
 11
1799.951571
 20
100.0
 21
1999.0
  0
LINE
  8
COSTRUZIONI
 10
1799.951571
 11
1192.951571
 20
1999.0
 21
1999.0
  0
LINE
  8
COSTRUZIONI
 10
1192.951571
 11
1192.951571
 20
1999.0
 21
1117.912133
  0
LINE
  8
COSTRUZIONI
 10
1192.951571
 11
1192.951571
 20
845.727117
 21
1117.912133
  0
LINE
  8
COSTRUZIONI
 10
84.5
 11
84.5
 20
845.727117
 21
100.0
  0
LINE
  8
COSTRUZIONI
 10
84.5
 11
691.5
 20
100.0
 21
100.0
  0
LINE
  8
COSTRUZIONI
 10
691.5
 11
691.5
 20
100.0
 21
1999.0
  0
LINE
  8
COSTRUZIONI
 10
691.5
 11
84.5
 20
1999.0
 21
1999.0
  0
LINE
  8
COSTRUZIONI
 10
84.5
 11
84.5
 20
1999.0
 21
1117.912133
  0
LINE
  8
COSTRUZIONI
 10
84.5
 11
84.5
 20
845.727117
 21
1117.912133
  0
LINE
  8
QUOTATURA
 10
1108.451571
 11
1108.451571
 20
1059.5
 21
1106.427383
  0
LINE
  8
QUOTATURA
 10
1142.951571
 11
1142.951571
 20
1050.0
 21
1106.427383
  0
LINE
  8
QUOTATURA
 10
1108.451571
 11
1054.995673
 20
1096.427383
 21
1096.427383
  0
LINE
  8
QUOTATURA
 10
1088.451571
 11
1108.451571
 20
1099.761383
 21
1096.427383
  0
LINE
  8
QUOTATURA
 10
1108.451571
 11
1088.451571
 20
1096.427383
 21
1093.093383
  0
LINE
  8
QUOTATURA
 10
1088.451571
 11
1088.451571
 20
1093.093383
 21
1099.761383
  0
LINE
  8
QUOTATURA
 10
1142.951571
 11
1182.951571
 20
1096.427383
 21
1096.427383
  0
LINE
  8
QUOTATURA
 10
1162.951571
 11
1142.951571
 20
1093.093383
 21
1096.427383
  0
LINE
  8
QUOTATURA
 10
1142.951571
 11
1162.951571
 20
1096.427383
 21
1099.761383
  0
LINE
  8
QUOTATURA
 10
1162.951571
 11
1162.951571
 20
1099.761383
 21
1093.093383
  0
LINE
  8
QUOTATURA
 10
1142.951571
 11
1142.951571
 20
1036.666
 21
1043.334
  0
LINE
  8
QUOTATURA
 10
1139.617571
 11
1146.285571
 20
1040.0
 21
1040.0
  0
LINE
  8
COSTRUZIONI
 10
661.5
 11
114.5
 20
1669.0
 21
1669.0
  0
LINE
  8
COSTRUZIONI
 10
114.5
 11
114.5
 20
1669.0
 21
1969.0
  0
LINE
  8
COSTRUZIONI
 10
114.5
 11
661.5
 20
1969.0
 21
1969.0
  0
LINE
  8
COSTRUZIONI
 10
661.5
 11
661.5
 20
1969.0
 21
1669.0
  0
LINE
  8
COSTRUZIONI
 10
114.5
 11
661.5
 20
504.911817
 21
1594.088183
  0
LINE
  8
COSTRUZIONI
 10
114.5
 11
661.5
 20
1594.088183
 21
504.911817
  0
LINE
  8
COSTRUZIONI
 10
114.5
 11
661.5
 20
1674.291005
 21
1963.708995
  0
LINE
  8
COSTRUZIONI
 10
114.5
 11
661.5
 20
1963.708995
 21
1674.291005
  0
LINE
  8
COSTRUZIONI
 10
114.5
 11
661.5
 20
135.291005
 21
424.708995
  0
LINE
  8
COSTRUZIONI
 10
114.5
 11
661.5
 20
424.708995
 21
135.291005
  0
LINE
  8
COSTRUZIONI
 10
114.5
 11
114.5
 20
130.0
 21
430.0
  0
LINE
  8
COSTRUZIONI
 10
114.5
 11
661.5
 20
430.0
 21
430.0
  0
LINE
  8
COSTRUZIONI
 10
661.5
 11
661.5
 20
430.0
 21
130.0
  0
LINE
  8
COSTRUZIONI
 10
661.5
 11
114.5
 20
130.0
 21
130.0
  0
LINE
  8
COSTRUZIONI
 10
661.5
 11
114.5
 20
495.0
 21
495.0
  0
LINE
  8
COSTRUZIONI
 10
114.5
 11
114.5
 20
495.0
 21
1604.0
  0
LINE
  8
COSTRUZIONI
 10
114.5
 11
661.5
 20
1604.0
 21
1604.0
  0
LINE
  8
COSTRUZIONI
 10
661.5
 11
661.5
 20
1604.0
 21
495.0
  0
LINE
  8
COSTRUZIONI
 10
1769.951571
 11
1222.951571
 20
1669.0
 21
1669.0
  0
LINE
  8
COSTRUZIONI
 10
1222.951571
 11
1222.951571
 20
1669.0
 21
1969.0
  0
LINE
  8
COSTRUZIONI
 10
1222.951571
 11
1769.951571
 20
1969.0
 21
1969.0
  0
LINE
  8
COSTRUZIONI
 10
1769.951571
 11
1769.951571
 20
1969.0
 21
1669.0
  0
LINE
  8
COSTRUZIONI
 10
1222.951571
 11
1769.951571
 20
504.911817
 21
1594.088183
  0
LINE
  8
COSTRUZIONI
 10
1222.951571
 11
1769.951571
 20
1594.088183
 21
504.911817
  0
LINE
  8
COSTRUZIONI
 10
1222.951571
 11
1769.951571
 20
1674.291005
 21
1963.708995
  0
LINE
  8
COSTRUZIONI
 10
1222.951571
 11
1769.951571
 20
1963.708995
 21
1674.291005
  0
LINE
  8
COSTRUZIONI
 10
1222.951571
 11
1769.951571
 20
135.291005
 21
424.708995
  0
LINE
  8
COSTRUZIONI
 10
1222.951571
 11
1769.951571
 20
424.708995
 21
135.291005
  0
LINE
  8
COSTRUZIONI
 10
1222.951571
 11
1222.951571
 20
130.0
 21
430.0
  0
LINE
  8
COSTRUZIONI
 10
1222.951571
 11
1769.951571
 20
430.0
 21
430.0
  0
LINE
  8
COSTRUZIONI
 10
1769.951571
 11
1769.951571
 20
430.0
 21
130.0
  0
LINE
  8
COSTRUZIONI
 10
1769.951571
 11
1222.951571
 20
130.0
 21
130.0
  0
LINE
  8
COSTRUZIONI
 10
1769.951571
 11
1222.951571
 20
495.0
 21
495.0
  0
LINE
  8
COSTRUZIONI
 10
1222.951571
 11
1222.951571
 20
495.0
 21
1604.0
  0
LINE
  8
COSTRUZIONI
 10
1222.951571
 11
1769.951571
 20
1604.0
 21
1604.0
  0
LINE
  8
COSTRUZIONI
 10
1769.951571
 11
1769.951571
 20
1604.0
 21
495.0
  0
LINE
  8
QUOTATURA
 10
1506.451571
 11
1603.572151
 20
0.0
 21
0.0
  0
LINE
  8
QUOTATURA
 10
1506.451571
 11
1603.572151
 20
100.0
 21
100.0
  0
LINE
  8
QUOTATURA
 10
1593.572151
 11
1593.572151
 20
0.0
 21
34.756059
  0
LINE
  8
QUOTATURA
 10
1593.572151
 11
1593.572151
 20
65.000001
 21
100.0
  0
LINE
  8
QUOTATURA
 10
1596.906151
 11
1593.572151
 20
20.0
 21
0.0
  0
LINE
  8
QUOTATURA
 10
1593.572151
 11
1590.238151
 20
0.0
 21
20.0
  0
LINE
  8
QUOTATURA
 10
1590.238151
 11
1596.906151
 20
20.0
 21
20.0
  0
LINE
  8
QUOTATURA
 10
1590.238151
 11
1593.572151
 20
80.0
 21
100.0
  0
LINE
  8
QUOTATURA
 10
1593.572151
 11
1596.906151
 20
100.0
 21
80.0
  0
LINE
  8
QUOTATURA
 10
1596.906151
 11
1590.238151
 20
80.0
 21
80.0
  0
LINE
  8
QUOTATURA
 10
1488.957989
 11
1488.957989
 20
130.0
 21
169.121814
  0
LINE
  8
QUOTATURA
 10
1488.957989
 11
1456.449738
 20
169.121814
 21
169.121814
  0
LINE
  8
QUOTATURA
 10
1492.291989
 11
1488.957989
 20
150.0
 21
130.0
  0
LINE
  8
QUOTATURA
 10
1488.957989
 11
1485.623989
 20
130.0
 21
150.0
  0
LINE
  8
QUOTATURA
 10
1485.623989
 11
1492.291989
 20
150.0
 21
150.0
  0
LINE
  8
QUOTATURA
 10
1488.957989
 11
1488.957989
 20
100.0
 21
60.0
  0
LINE
  8
QUOTATURA
 10
1485.623989
 11
1488.957989
 20
80.0
 21
100.0
  0
LINE
  8
QUOTATURA
 10
1488.957989
 11
1492.291989
 20
100.0
 21
80.0
  0
LINE
  8
QUOTATURA
 10
1492.291989
 11
1485.623989
 20
80.0
 21
80.0
  0
LINE
  8
QUOTATURA
 10
1108.451571
 11
1108.451571
 20
1039.5
 21
822.497271
  0
LINE
  8
QUOTATURA
 10
1222.951571
 11
1061.789719
 20
832.497271
 21
832.497271
  0
LINE
  8
QUOTATURA
 10
1202.951571
 11
1222.951571
 20
835.831271
 21
832.497271
  0
LINE
  8
QUOTATURA
 10
1222.951571
 11
1202.951571
 20
832.497271
 21
829.163271
  0
LINE
  8
QUOTATURA
 10
1202.951571
 11
1202.951571
 20
829.163271
 21
835.831271
  0
LINE
  8
QUOTATURA
 10
1128.451571
 11
1108.451571
 20
829.163271
 21
832.497271
  0
LINE
  8
QUOTATURA
 10
1108.451571
 11
1128.451571
 20
832.497271
 21
835.831271
  0
LINE
  8
QUOTATURA
 10
1128.451571
 11
1128.451571
 20
835.831271
 21
829.163271
  0
LINE
  8
QUOTATURA
 10
1222.951571
 11
1222.951571
 20
1039.5
 21
783.528527
  0
LINE
  8
QUOTATURA
 10
1192.951571
 11
1192.951571
 20
482.863558
 21
803.528527
  0
LINE
  8
QUOTATURA
 10
1192.951571
 11
1165.295278
 20
793.528527
 21
793.528527
  0
LINE
  8
QUOTATURA
 10
1172.951571
 11
1192.951571
 20
796.862527
 21
793.528527
  0
LINE
  8
QUOTATURA
 10
1192.951571
 11
1172.951571
 20
793.528527
 21
790.194527
  0
LINE
  8
QUOTATURA
 10
1172.951571
 11
1172.951571
 20
790.194527
 21
796.862527
  0
LINE
  8
QUOTATURA
 10
1222.951571
 11
1262.951571
 20
793.528527
 21
793.528527
  0
LINE
  8
QUOTATURA
 10
1242.951571
 11
1222.951571
 20
790.194527
 21
793.528527
  0
LINE
  8
QUOTATURA
 10
1222.951571
 11
1242.951571
 20
793.528527
 21
796.862527
  0
LINE
  8
QUOTATURA
 10
1242.951571
 11
1242.951571
 20
796.862527
 21
790.194527
  0
LINE
  8
QUOTATURA
 10
1769.951571
 11
1769.951571
 20
1039.5
 21
822.483895
  0
LINE
  8
QUOTATURA
 10
1884.451571
 11
1884.451571
 20
1039.5
 21
822.483895
  0
LINE
  8
QUOTATURA
 10
1769.951571
 11
1915.469607
 20
832.483895
 21
832.483895
  0
LINE
  8
QUOTATURA
 10
1789.951571
 11
1769.951571
 20
829.149895
 21
832.483895
  0
LINE
  8
QUOTATURA
 10
1769.951571
 11
1789.951571
 20
832.483895
 21
835.817895
  0
LINE
  8
QUOTATURA
 10
1789.951571
 11
1789.951571
 20
835.817895
 21
829.149895
  0
LINE
  8
QUOTATURA
 10
1864.451571
 11
1884.451571
 20
835.817895
 21
832.483895
  0
LINE
  8
QUOTATURA
 10
1884.451571
 11
1864.451571
 20
832.483895
 21
829.149895
  0
LINE
  8
QUOTATURA
 10
1864.451571
 11
1864.451571
 20
829.149895
 21
835.817895
  0
LINE
  8
QUOTATURA
 10
1486.451571
 11
1378.137309
 20
1969.0
 21
1969.0
  0
LINE
  8
QUOTATURA
 10
1486.451571
 11
1378.137309
 20
1999.0
 21
1999.0
  0
LINE
  8
QUOTATURA
 10
1388.137309
 11
1388.137309
 20
1999.0
 21
2055.249731
  0
LINE
  8
QUOTATURA
 10
1388.137309
 11
1347.056193
 20
2055.249731
 21
2055.249731
  0
LINE
  8
QUOTATURA
 10
1391.471309
 11
1388.137309
 20
2019.0
 21
1999.0
  0
LINE
  8
QUOTATURA
 10
1388.137309
 11
1384.803309
 20
1999.0
 21
2019.0
  0
LINE
  8
QUOTATURA
 10
1384.803309
 11
1391.471309
 20
2019.0
 21
2019.0
  0
LINE
  8
QUOTATURA
 10
1388.137309
 11
1388.137309
 20
1969.0
 21
1929.0
  0
LINE
  8
QUOTATURA
 10
1384.803309
 11
1388.137309
 20
1949.0
 21
1969.0
  0
LINE
  8
QUOTATURA
 10
1388.137309
 11
1391.471309
 20
1969.0
 21
1949.0
  0
LINE
  8
QUOTATURA
 10
1391.471309
 11
1384.803309
 20
1949.0
 21
1949.0
  0
LINE
  8
QUOTATURA
 10
1506.451571
 11
1609.596646
 20
1999.0
 21
1999.0
  0
LINE
  8
QUOTATURA
 10
1506.451571
 11
1609.596646
 20
2099.0
 21
2099.0
  0
LINE
  8
QUOTATURA
 10
1599.596646
 11
1599.596646
 20
1999.0
 21
2165.741997
  0
LINE
  8
QUOTATURA
 10
1599.596646
 11
1561.042719
 20
2165.741997
 21
2165.741997
  0
LINE
  8
QUOTATURA
 10
1602.930646
 11
1599.596646
 20
2019.0
 21
1999.0
  0
LINE
  8
QUOTATURA
 10
1599.596646
 11
1596.262646
 20
1999.0
 21
2019.0
  0
LINE
  8
QUOTATURA
 10
1596.262646
 11
1602.930646
 20
2019.0
 21
2019.0
  0
LINE
  8
QUOTATURA
 10
1596.262646
 11
1599.596646
 20
2079.0
 21
2099.0
  0
LINE
  8
QUOTATURA
 10
1599.596646
 11
1602.930646
 20
2099.0
 21
2079.0
  0
LINE
  8
QUOTATURA
 10
1602.930646
 11
1596.262646
 20
2079.0
 21
2079.0
  0
LINE
  8
QUOTATURA
 10
1222.951571
 11
1222.951571
 20
505.0
 21
602.864521
  0
LINE
  8
QUOTATURA
 10
1769.951571
 11
1769.951571
 20
505.0
 21
602.864521
  0
LINE
  8
QUOTATURA
 10
1222.951571
 11
1464.430886
 20
592.864521
 21
592.864521
  0
LINE
  8
QUOTATURA
 10
1528.472257
 11
1769.951571
 20
592.864521
 21
592.864521
  0
LINE
  8
QUOTATURA
 10
1242.951571
 11
1222.951571
 20
589.530521
 21
592.864521
  0
LINE
  8
QUOTATURA
 10
1222.951571
 11
1242.951571
 20
592.864521
 21
596.198521
  0
LINE
  8
QUOTATURA
 10
1242.951571
 11
1242.951571
 20
596.198521
 21
589.530521
  0
LINE
  8
QUOTATURA
 10
1749.951571
 11
1769.951571
 20
596.198521
 21
592.864521
  0
LINE
  8
QUOTATURA
 10
1769.951571
 11
1749.951571
 20
592.864521
 21
589.530521
  0
LINE
  8
QUOTATURA
 10
1749.951571
 11
1749.951571
 20
589.530521
 21
596.198521
  0
LINE
  8
QUOTATURA
 10
1506.451571
 11
1589.184407
 20
495.0
 21
495.0
  0
LINE
  8
QUOTATURA
 10
1506.451571
 11
1589.184407
 20
1604.0
 21
1604.0
  0
LINE
  8
QUOTATURA
 10
1579.184407
 11
1579.184407
 20
495.0
 21
687.569363
  0
LINE
  8
QUOTATURA
 10
1579.184407
 11
1579.184407
 20
717.817403
 21
1604.0
  0
LINE
  8
QUOTATURA
 10
1582.518407
 11
1579.184407
 20
515.0
 21
495.0
  0
LINE
  8
QUOTATURA
 10
1579.184407
 11
1575.850407
 20
495.0
 21
515.0
  0
LINE
  8
QUOTATURA
 10
1575.850407
 11
1582.518407
 20
515.0
 21
515.0
  0
LINE
  8
QUOTATURA
 10
1575.850407
 11
1579.184407
 20
1584.0
 21
1604.0
  0
LINE
  8
QUOTATURA
 10
1579.184407
 11
1582.518407
 20
1604.0
 21
1584.0
  0
LINE
  8
QUOTATURA
 10
1582.518407
 11
1575.850407
 20
1584.0
 21
1584.0
  0
LINE
  8
QUOTATURA
 10
1515.176122
 11
1515.176122
 20
130.0
 21
352.609863
  0
LINE
  8
QUOTATURA
 10
1515.176122
 11
1515.176122
 20
382.916746
 21
430.0
  0
LINE
  8
QUOTATURA
 10
1518.510122
 11
1515.176122
 20
150.0
 21
130.0
  0
LINE
  8
QUOTATURA
 10
1515.176122
 11
1511.842122
 20
130.0
 21
150.0
  0
LINE
  8
QUOTATURA
 10
1511.842122
 11
1518.510122
 20
150.0
 21
150.0
  0
LINE
  8
QUOTATURA
 10
1511.842122
 11
1515.176122
 20
410.0
 21
430.0
  0
LINE
  8
QUOTATURA
 10
1515.176122
 11
1518.510122
 20
430.0
 21
410.0
  0
LINE
  8
QUOTATURA
 10
1518.510122
 11
1511.842122
 20
410.0
 21
410.0
  0
LINE
  8
QUOTATURA
 10
1493.185546
 11
1493.185546
 20
1669.0
 21
1891.950199
  0
LINE
  8
QUOTATURA
 10
1493.185546
 11
1493.185546
 20
1922.257083
 21
1969.0
  0
LINE
  8
QUOTATURA
 10
1496.519546
 11
1493.185546
 20
1689.0
 21
1669.0
  0
LINE
  8
QUOTATURA
 10
1493.185546
 11
1489.851546
 20
1669.0
 21
1689.0
  0
LINE
  8
QUOTATURA
 10
1489.851546
 11
1496.519546
 20
1689.0
 21
1689.0
  0
LINE
  8
QUOTATURA
 10
1489.851546
 11
1493.185546
 20
1949.0
 21
1969.0
  0
LINE
  8
QUOTATURA
 10
1493.185546
 11
1496.519546
 20
1969.0
 21
1949.0
  0
LINE
  8
QUOTATURA
 10
1496.519546
 11
1489.851546
 20
1949.0
 21
1949.0
  0
LINE
  8
COSTRUZIONI
 10
671.5
 11
104.5
 20
1614.0
 21
1614.0
  0
LINE
  8
COSTRUZIONI
 10
104.5
 11
104.5
 20
1614.0
 21
485.0
  0
LINE
  8
COSTRUZIONI
 10
104.5
 11
671.5
 20
485.0
 21
485.0
  0
LINE
  8
COSTRUZIONI
 10
671.5
 11
671.5
 20
485.0
 21
1614.0
  0
LINE
  8
QUOTATURA
 10
398.796339
 11
398.796339
 20
485.0
 21
545.326147
  0
LINE
  8
QUOTATURA
 10
398.796339
 11
398.796339
 20
576.045615
 21
1614.0
  0
LINE
  8
QUOTATURA
 10
402.130339
 11
398.796339
 20
505.0
 21
485.0
  0
LINE
  8
QUOTATURA
 10
398.796339
 11
395.462339
 20
485.0
 21
505.0
  0
LINE
  8
QUOTATURA
 10
395.462339
 11
402.130339
 20
505.0
 21
505.0
  0
LINE
  8
QUOTATURA
 10
395.462339
 11
398.796339
 20
1594.0
 21
1614.0
  0
LINE
  8
QUOTATURA
 10
398.796339
 11
402.130339
 20
1614.0
 21
1594.0
  0
LINE
  8
QUOTATURA
 10
402.130339
 11
395.462339
 20
1594.0
 21
1594.0
  0
LINE
  8
QUOTATURA
 10
104.5
 11
104.5
 20
495.0
 21
671.980368
  0
LINE
  8
QUOTATURA
 10
671.5
 11
671.5
 20
495.0
 21
671.980368
  0
LINE
  8
QUOTATURA
 10
104.5
 11
259.051106
 20
661.980368
 21
661.980368
  0
LINE
  8
QUOTATURA
 10
516.948894
 11
671.5
 20
661.980368
 21
661.980368
  0
LINE
  8
QUOTATURA
 10
124.5
 11
104.5
 20
658.646368
 21
661.980368
  0
LINE
  8
QUOTATURA
 10
104.5
 11
124.5
 20
661.980368
 21
665.314368
  0
LINE
  8
QUOTATURA
 10
124.5
 11
124.5
 20
665.314368
 21
658.646368
  0
LINE
  8
QUOTATURA
 10
651.5
 11
671.5
 20
665.314368
 21
661.980368
  0
LINE
  8
QUOTATURA
 10
671.5
 11
651.5
 20
661.980368
 21
658.646368
  0
LINE
  8
QUOTATURA
 10
651.5
 11
651.5
 20
658.646368
 21
665.314368
  0
LINE
  8
COSTRUZIONI
 10
5.684285
 11
5.684285
 20
2426.311364
 21
2626.311398
  0
LINE
  8
COSTRUZIONI
 10
5.684285
 11
2005.68431
 20
2626.311398
 21
2626.311398
  0
LINE
  8
COSTRUZIONI
 10
2005.68431
 11
2005.68431
 20
2626.311398
 21
2426.311364
  0
LINE
  8
COSTRUZIONI
 10
2005.68431
 11
5.684285
 20
2426.311364
 21
2426.311364
  0
LINE
  8
COSTRUZIONI
 10
305.684285
 11
305.684285
 20
2426.311364
 21
2626.311398
  0
LINE
  8
COSTRUZIONI
 10
605.684285
 11
605.684285
 20
2426.311364
 21
2626.311398
  0
LINE
  8
COSTRUZIONI
 10
1055.684285
 11
1055.684285
 20
2426.311364
 21
2626.311398
  0
LINE
  8
COSTRUZIONI
 10
1505.684285
 11
1505.684285
 20
2426.311364
 21
2626.311398
  0
LINE
  8
COSTRUZIONI
 10
5.684285
 11
5.684263
 20
2426.311364
 21
2276.311351
  0
LINE
  8
COSTRUZIONI
 10
5.684263
 11
2005.68431
 20
2276.311351
 21
2276.311351
  0
LINE
  8
COSTRUZIONI
 10
2005.68431
 11
2005.68431
 20
2426.311364
 21
2276.311351
  0
LINE
  8
COSTRUZIONI
 10
400.662568
 11
400.662546
 20
2426.311364
 21
2276.311351
  0
LINE
  8
APS_GEOMETRY
 10
109.652889
 11
159.652844
 20
2287.040001
 21
2287.040001
  0
LINE
  8
APS_GEOMETRY
 10
159.652844
 11
159.652844
 20
2287.040001
 21
2337.040023
  0
LINE
  8
APS_GEOMETRY
 10
159.652844
 11
109.652889
 20
2337.040023
 21
2337.040023
  0
LINE
  8
APS_GEOMETRY
 10
109.652889
 11
109.652889
 20
2337.040023
 21
2287.040001
  0
LINE
  8
APS_GEOMETRY
 10
337.856014
 11
387.855968
 20
2287.040001
 21
2287.040001
  0
LINE
  8
APS_GEOMETRY
 10
387.855968
 11
387.855968
 20
2287.040001
 21
2337.040023
  0
LINE
  8
APS_GEOMETRY
 10
387.855968
 11
337.856014
 20
2337.040023
 21
2337.040023
  0
LINE
  8
APS_GEOMETRY
 10
337.856014
 11
337.856014
 20
2337.040023
 21
2287.040001
  0
LINE
  8
COSTRUZIONI
 10
5.684275
 11
400.662558
 20
2358.314345
 21
2358.314345
  0
LINE
  8
COSTRUZIONI
 10
203.173417
 11
203.173417
 20
2358.314345
 21
2276.311351
  0
LINE
  8
COSTRUZIONI
 10
549.002246
 11
566.702247
 20
2313.277271
 21
2313.277271
  0
LINE
  8
COSTRUZIONI
 10
566.702247
 11
566.702247
 20
2313.277271
 21
2309.777271
  0
LINE
  8
COSTRUZIONI
 10
566.702247
 11
549.002246
 20
2309.777271
 21
2309.777271
  0
LINE
  8
COSTRUZIONI
 10
549.002246
 11
549.002246
 20
2309.777271
 21
2313.277271
  0
LINE
  8
COSTRUZIONI
 10
556.702247
 11
556.702247
 20
2313.277271
 21
2339.777271
  0
ARC
  8
COSTRUZIONI
 10
553.702247
 20
2339.777271
 40
3.0
 50
0.0
 51
90.0
  0
LINE
  8
COSTRUZIONI
 10
553.702247
 11
534.70221
 20
2342.777271
 21
2342.777271
  0
ARC
  8
COSTRUZIONI
 10
534.70221
 20
2339.777271
 40
3.0
 50
90.0
 51
180.0
  0
LINE
  8
COSTRUZIONI
 10
531.70221
 11
531.70221
 20
2339.777271
 21
2318.777271
  0
LINE
  8
COSTRUZIONI
 10
531.70221
 11
527.20221
 20
2318.777271
 21
2318.777271
  0
LINE
  8
COSTRUZIONI
 10
527.20221
 11
527.20221
 20
2318.777271
 21
2332.777271
  0
LINE
  8
COSTRUZIONI
 10
527.20221
 11
523.20221
 20
2332.777271
 21
2332.777271
  0
LINE
  8
COSTRUZIONI
 10
523.20221
 11
523.20221
 20
2332.777271
 21
2296.996242
  0
LINE
  8
COSTRUZIONI
 10
567.202247
 11
567.202247
 20
2283.004733
 21
2308.777271
  0
LINE
  8
COSTRUZIONI
 10
587.576287
 11
572.702247
 20
2297.777271
 21
2297.777271
  0
ARC
  8
COSTRUZIONI
 10
572.702247
 20
2300.777271
 40
3.0
 50
180.0
 51
270.0
  0
LINE
  8
COSTRUZIONI
 10
569.702247
 11
569.702247
 20
2300.777271
 21
2312.777271
  0
LINE
  8
COSTRUZIONI
 10
569.702247
 11
561.202247
 20
2312.777271
 21
2312.777271
  0
ARC
  8
COSTRUZIONI
 10
561.202247
 20
2314.277271
 40
1.5
 50
180.0
 51
270.0
  0
LINE
  8
COSTRUZIONI
 10
559.702247
 11
559.702247
 20
2314.277271
 21
2339.777271
  0
ARC
  8
COSTRUZIONI
 10
562.702247
 20
2339.777271
 40
3.0
 50
90.0
 51
180.0
  0
LINE
  8
COSTRUZIONI
 10
562.702247
 11
588.737637
 20
2342.777271
 21
2342.777271
  0
LINE
  8
QUOTATURA
 10
481.642472
 11
481.642472
 20
2298.970042
 21
2299.636842
  0
LINE
  8
COSTRUZIONI
 10
464.442471
 11
472.142472
 20
2303.803442
 21
2303.803442
  0
ARC
  8
COSTRUZIONI
 10
477.142472
 20
2291.803442
 40
13.0
 50
67.380135
 51
112.619865
  0
LINE
  8
COSTRUZIONI
 10
482.142472
 11
482.142472
 20
2303.803442
 21
2300.303442
  0
LINE
  8
COSTRUZIONI
 10
482.142472
 11
464.442471
 20
2300.303442
 21
2300.303442
  0
LINE
  8
COSTRUZIONI
 10
464.442471
 11
464.442471
 20
2300.303442
 21
2303.803442
  0
LINE
  8
COSTRUZIONI
 10
464.619247
 11
464.442471
 20
2300.303442
 21
2300.480219
  0
LINE
  8
COSTRUZIONI
 10
464.442471
 11
465.149578
 20
2301.010549
 21
2300.303442
  0
LINE
  8
COSTRUZIONI
 10
465.326354
 11
464.442471
 20
2300.303442
 21
2301.187326
  0
LINE
  8
COSTRUZIONI
 10
464.442471
 11
465.856684
 20
2301.717656
 21
2300.303442
  0
LINE
  8
COSTRUZIONI
 10
466.033461
 11
464.442471
 20
2300.303442
 21
2301.894432
  0
LINE
  8
COSTRUZIONI
 10
464.442471
 11
466.563791
 20
2302.424762
 21
2300.303442
  0
LINE
  8
COSTRUZIONI
 10
466.740568
 11
464.442471
 20
2300.303442
 21
2302.601539
  0
LINE
  8
COSTRUZIONI
 10
464.442471
 11
467.270898
 20
2303.131869
 21
2300.303442
  0
LINE
  8
COSTRUZIONI
 10
467.447675
 11
464.442471
 20
2300.303442
 21
2303.308646
  0
LINE
  8
COSTRUZIONI
 10
464.478005
 11
467.978005
 20
2303.803442
 21
2300.303442
  0
LINE
  8
COSTRUZIONI
 10
468.154781
 11
464.654781
 20
2300.303442
 21
2303.803442
  0
LINE
  8
COSTRUZIONI
 10
465.185111
 11
468.685111
 20
2303.803442
 21
2300.303442
  0
LINE
  8
COSTRUZIONI
 10
468.861888
 11
465.361888
 20
2300.303442
 21
2303.803442
  0
LINE
  8
COSTRUZIONI
 10
465.892218
 11
469.392218
 20
2303.803442
 21
2300.303442
  0
LINE
  8
COSTRUZIONI
 10
469.568995
 11
466.068995
 20
2300.303442
 21
2303.803442
  0
LINE
  8
COSTRUZIONI
 10
466.599325
 11
470.099325
 20
2303.803442
 21
2300.303442
  0
LINE
  8
COSTRUZIONI
 10
470.276102
 11
466.776102
 20
2300.303442
 21
2303.803442
  0
LINE
  8
COSTRUZIONI
 10
467.306432
 11
470.806432
 20
2303.803442
 21
2300.303442
  0
LINE
  8
COSTRUZIONI
 10
470.983208
 11
467.483208
 20
2300.303442
 21
2303.803442
  0
LINE
  8
COSTRUZIONI
 10
468.013539
 11
471.513539
 20
2303.803442
 21
2300.303442
  0
LINE
  8
COSTRUZIONI
 10
471.690315
 11
468.190315
 20
2300.303442
 21
2303.803442
  0
LINE
  8
COSTRUZIONI
 10
468.720645
 11
472.220645
 20
2303.803442
 21
2300.303442
  0
LINE
  8
COSTRUZIONI
 10
472.397422
 11
468.897422
 20
2300.303442
 21
2303.803442
  0
LINE
  8
COSTRUZIONI
 10
469.427752
 11
472.927752
 20
2303.803442
 21
2300.303442
  0
LINE
  8
COSTRUZIONI
 10
473.104529
 11
469.604529
 20
2300.303442
 21
2303.803442
  0
LINE
  8
COSTRUZIONI
 10
470.134859
 11
473.634859
 20
2303.803442
 21
2300.303442
  0
LINE
  8
COSTRUZIONI
 10
473.811636
 11
470.311636
 20
2300.303442
 21
2303.803442
  0
LINE
  8
COSTRUZIONI
 10
470.841966
 11
474.341966
 20
2303.803442
 21
2300.303442
  0
LINE
  8
COSTRUZIONI
 10
474.518742
 11
471.018742
 20
2300.303442
 21
2303.803442
  0
LINE
  8
COSTRUZIONI
 10
471.549072
 11
475.049072
 20
2303.803442
 21
2300.303442
  0
LINE
  8
COSTRUZIONI
 10
475.225849
 11
471.725849
 20
2300.303442
 21
2303.803442
  0
LINE
  8
COSTRUZIONI
 10
472.222959
 11
475.756179
 20
2303.836663
 21
2300.303442
  0
LINE
  8
COSTRUZIONI
 10
475.932956
 11
472.348981
 20
2300.303442
 21
2303.887417
  0
LINE
  8
COSTRUZIONI
 10
472.733701
 11
476.463286
 20
2304.033027
 21
2300.303442
  0
LINE
  8
COSTRUZIONI
 10
476.640063
 11
472.864212
 20
2300.303442
 21
2304.079292
  0
LINE
  8
COSTRUZIONI
 10
473.262806
 11
477.170393
 20
2304.211028
 21
2300.303442
  0
LINE
  8
COSTRUZIONI
 10
477.34717
 11
473.398089
 20
2300.303442
 21
2304.252522
  0
LINE
  8
COSTRUZIONI
 10
473.811491
 11
477.8775
 20
2304.369451
 21
2300.303442
  0
LINE
  8
COSTRUZIONI
 10
478.054276
 11
473.951888
 20
2300.303442
 21
2304.40583
  0
LINE
  8
COSTRUZIONI
 10
474.381237
 11
478.584606
 20
2304.506811
 21
2300.303442
  0
LINE
  8
COSTRUZIONI
 10
478.761383
 11
474.52717
 20
2300.303442
 21
2304.537656
  0
LINE
  8
COSTRUZIONI
 10
474.973868
 11
479.291713
 20
2304.621287
 21
2300.303442
  0
LINE
  8
COSTRUZIONI
 10
479.46849
 11
475.125855
 20
2300.303442
 21
2304.646076
  0
LINE
  8
COSTRUZIONI
 10
475.591653
 11
479.99882
 20
2304.710609
 21
2300.303442
  0
LINE
  8
COSTRUZIONI
 10
480.175597
 11
475.75035
 20
2300.303442
 21
2304.728689
  0
LINE
  8
COSTRUZIONI
 10
476.237466
 11
480.705927
 20
2304.771902
 21
2300.303442
  0
LINE
  8
COSTRUZIONI
 10
480.882703
 11
476.403711
 20
2300.303442
 21
2304.782434
  0
LINE
  8
COSTRUZIONI
 10
476.915023
 11
481.413034
 20
2304.801452
 21
2300.303442
  0
LINE
  8
COSTRUZIONI
 10
481.58981
 11
477.089916
 20
2300.303442
 21
2304.803336
  0
LINE
  8
COSTRUZIONI
 10
477.629257
 11
482.12014
 20
2304.794325
 21
2300.303442
  0
LINE
  8
COSTRUZIONI
 10
482.142472
 11
477.814288
 20
2300.457888
 21
2304.786071
  0
LINE
  8
COSTRUZIONI
 10
478.386951
 11
482.142472
 20
2304.743738
 21
2300.988218
  0
LINE
  8
COSTRUZIONI
 10
482.142472
 11
478.584219
 20
2301.164994
 21
2304.723247
  0
LINE
  8
COSTRUZIONI
 10
479.197869
 11
482.142472
 20
2304.639927
 21
2301.695324
  0
LINE
  8
COSTRUZIONI
 10
482.142472
 11
479.410505
 20
2301.872101
 21
2304.604068
  0
LINE
  8
COSTRUZIONI
 10
480.077001
 11
482.142472
 20
2304.467902
 21
2302.402431
  0
LINE
  8
COSTRUZIONI
 10
482.142472
 11
480.310047
 20
2302.579208
 21
2304.411632
  0
LINE
  8
COSTRUZIONI
 10
481.049603
 11
482.142472
 20
2304.202407
 21
2303.109538
  0
LINE
  8
COSTRUZIONI
 10
482.142472
 11
481.312209
 20
2303.286315
 21
2304.116577
  0
ARC
  8
COSTRUZIONI
 10
481.642472
 20
2299.303442
 40
1.0
 50
0.0
 51
90.0
  0
LINE
  8
COSTRUZIONI
 10
438.64248
 11
438.64248
 20
2333.503407
 21
2289.539124
  0
LINE
  8
COSTRUZIONI
 10
482.642472
 11
482.642472
 20
2286.746204
 21
2299.303442
  0
LINE
  8
COSTRUZIONI
 10
472.142472
 11
472.142472
 20
2303.803442
 21
2330.503443
  0
ARC
  8
COSTRUZIONI
 10
469.142472
 20
2330.503443
 40
3.0
 50
0.0
 51
90.0
  0
LINE
  8
COSTRUZIONI
 10
469.142472
 11
447.14248
 20
2333.503443
 21
2333.503443
  0
LINE
  8
COSTRUZIONI
 10
447.14248
 11
447.14248
 20
2333.503443
 21
2319.503407
  0
LINE
  8
COSTRUZIONI
 10
447.14248
 11
442.84248
 20
2319.503407
 21
2319.503407
  0
LINE
  8
COSTRUZIONI
 10
442.84248
 11
442.84248
 20
2319.503407
 21
2333.503407
  0
LINE
  8
COSTRUZIONI
 10
442.84248
 11
438.64248
 20
2333.503407
 21
2333.503407
  0
LINE
  8
COSTRUZIONI
 10
478.142472
 11
498.503427
 20
2303.503548
 21
2303.503548
  0
LINE
  8
COSTRUZIONI
 10
492.223264
 11
470.142472
 20
2348.503548
 21
2348.503548
  0
ARC
  8
COSTRUZIONI
 10
470.142472
 20
2343.503548
 40
5.0
 50
90.0
 51
180.0
  0
LINE
  8
COSTRUZIONI
 10
465.142472
 11
465.142472
 20
2343.503548
 21
2335.503548
  0
ARC
  8
COSTRUZIONI
 10
467.142472
 20
2335.503548
 40
2.0
 50
180.0
 51
270.0
  0
LINE
  8
COSTRUZIONI
 10
467.142472
 11
475.142472
 20
2333.503548
 21
2333.503548
  0
LINE
  8
COSTRUZIONI
 10
475.142472
 11
475.142472
 20
2333.503548
 21
2306.503548
  0
ARC
  8
COSTRUZIONI
 10
478.142472
 20
2306.503548
 40
3.0
 50
180.0
 51
270.0
  0
CIRCLE
  8
COSTRUZIONI
 10
455.49248
 20
2342.153403
 40
6.85
  0
LINE
  8
COSTRUZIONI
 10
461.529865
 11
465.388271
 20
2345.389525
 21
2345.051958
  0
LINE
  8
COSTRUZIONI
 10
465.142472
 11
460.876196
 20
2337.544814
 21
2337.918064
  0
LINE
  8
COSTRUZIONI
 10
459.24248
 11
459.24248
 20
2336.421039
 21
2333.503443
  0
LINE
  8
COSTRUZIONI
 10
451.74248
 11
451.74248
 20
2333.503443
 21
2336.421039
  0
LINE
  8
COSTRUZIONI
 10
454.515942
 11
433.757281
 20
2349.003407
 21
2349.003407
  0
LINE
  8
COSTRUZIONI
 10
448.64248
 11
448.64248
 20
2342.153403
 21
2358.880065
  0
CIRCLE
  8
COSTRUZIONI
 10
462.756866
 20
2321.453015
 40
40.0
  0
CIRCLE
  8
COSTRUZIONI
 10
555.101175
 20
2321.130368
 40
40.0
  0
LINE
  8
APS_GEOMETRY
 10
638.843291
 11
688.843246
 20
2287.040001
 21
2287.040001
  0
LINE
  8
APS_GEOMETRY
 10
688.843246
 11
688.843246
 20
2287.040001
 21
2337.040023
  0
LINE
  8
APS_GEOMETRY
 10
688.843246
 11
638.843291
 20
2337.040023
 21
2337.040023
  0
LINE
  8
APS_GEOMETRY
 10
638.843291
 11
638.843291
 20
2337.040023
 21
2287.040001
  0
LINE
  8
COSTRUZIONI
 10
720.210728
 11
720.210705
 20
2426.311364
 21
2276.311351
  0
LINE
  8
QUOTATURA
 10
1132.951571
 11
1050.556721
 20
1040.0
 21
1040.0
  0
LINE
  8
QUOTATURA
 10
1125.951571
 11
1050.556721
 20
945.0
 21
945.0
  0
LINE
  8
QUOTATURA
 10
1060.556721
 11
1060.556721
 20
1040.0
 21
1007.50756
  0
LINE
  8
QUOTATURA
 10
1060.556721
 11
1060.556721
 20
977.251961
 21
945.0
  0
LINE
  8
QUOTATURA
 10
1057.222721
 11
1060.556721
 20
1020.0
 21
1040.0
  0
LINE
  8
QUOTATURA
 10
1060.556721
 11
1063.890721
 20
1040.0
 21
1020.0
  0
LINE
  8
QUOTATURA
 10
1063.890721
 11
1057.222721
 20
1020.0
 21
1020.0
  0
LINE
  8
QUOTATURA
 10
1063.890721
 11
1060.556721
 20
965.0
 21
945.0
  0
LINE
  8
QUOTATURA
 10
1060.556721
 11
1057.222721
 20
945.0
 21
965.0
  0
LINE
  8
QUOTATURA
 10
1057.222721
 11
1063.890721
 20
965.0
 21
965.0
  0
LINE
  8
QUOTATURA
 10
1142.951571
 11
1142.951571
 20
1036.666
 21
1043.334
  0
LINE
  8
QUOTATURA
 10
1139.617571
 11
1146.285571
 20
1040.0
 21
1040.0
  0
TEXT
  8
TEXT
 10
566.432626
 20
2210.13195
 30
0.0
 40
30.0
 50
0.0
  1
PANNELLI TRAFORATI PER UNA ANTA 807X2099
  0
TEXT
  8
TEXT
 10
566.432626
 20
2165.13195
 30
0.0
 40
30.0
 50
0.0
  1
(SPESSORE 5.25)
  0
TEXT
  8
TEXT
 10
186.08633
 20
-212.541979
 30
0.0
 40
30.0
 50
0.0
  1
LEGENDA LAVORAZIONI LASER:
  0
TEXT
  8
TEXT
 10
186.08633
 20
-257.541979
 30
0.0
 40
30.0
 50
0.0
  1

  0
TEXT
  8
TEXT
 10
186.08633
 20
-302.541979
 30
0.0
 40
30.0
 50
0.0
  1
[ V ] = FUGA A V DI 1.5-3 mm largh.
  0
TEXT
  8
TEXT
 10
186.08633
 20
-347.541979
 30
0.0
 40
30.0
 50
0.0
  1
[ X ] = AREA TRAFORO/DECORO SECONDO SPECIFICHE
  0
TEXT
  8
TEXT
 10
186.08633
 20
-392.541979
 30
0.0
 40
30.0
 50
0.0
  1

  0
TEXT
  8
TEXT
 10
186.08633
 20
-437.541979
 30
0.0
 40
30.0
 50
0.0
  1
LEGENDA LAVORAZIONI MANUALI
  0
TEXT
  8
TEXT
 10
186.08633
 20
-482.541979
 30
0.0
 40
30.0
 50
0.0
  1

  0
TEXT
  8
TEXT
 10
186.08633
 20
-527.541979
 30
0.0
 40
30.0
 50
0.0
  1
[ M ] = SPIGOLARE MANUALAMENTE
  0
TEXT
  8
TEXT
 10
7.027995
 20
-658.766975
 30
0.0
 40
20.0
 50
0.0
  1
Ufficio tecnico:
  0
TEXT
  8
TEXT
 10
500.376477
 20
-783.108695
 30
0.0
 40
25.0
 50
0.0
  1
tel. 0577-68.54.26 - fax 0577-68.64.29
  0
TEXT
  8
TEXT
 10
500.376477
 20
-820.608695
 30
0.0
 40
25.0
 50
0.0
  1
e-mail: tecnico@toscocornici.it - web: www.tosococornici.it
  0
TEXT
  8
TEXT
 10
1111.465913
 20
-812.300939
 30
0.0
 40
40.0
 50
0.0
  1
B.Ste
  0
TEXT
  8
TEXT
 10
1259.885493
 20
-812.300939
 30
0.0
 40
40.0
 50
0.0
  1
f
  0
TEXT
  8
TEXT
 10
1290.570808
 20
-812.300939
 30
0.0
 40
40.0
 50
0.0
  1
ano
  0
TEXT
  8
TEXT
 10
1007.246313
 20
-655.804466
 30
0.0
 40
20.0
 50
0.0
  1
documento:
  0
TEXT
  8
TEXT
 10
1250.902167
 20
-708.926007
 30
0.0
 40
19.0
 50
0.0
  1
PORTALAPORTA_STD-V02_L807X2099
  0
TEXT
  8
TEXT
 10
1508.447781
 20
-655.718737
 30
0.0
 40
20.0
 50
0.0
  1
data:
  0
TEXT
  8
TEXT
 10
1757.546719
 20
-707.210438
 30
0.0
 40
30.0
 50
0.0
  1
20/03/13
  0
TEXT
  8
TEXT
 10
1766.300313
 20
-807.919489
 30
0.0
 40
30.0
 50
0.0
  1
1 : 10
  0
TEXT
  8
TEXT
 10
1005.433018
 20
-754.028903
 30
0.0
 40
20.0
 50
0.0
  1
responsabile tecnico:
  0
TEXT
  8
TEXT
 10
1507.028543
 20
-754.319005
 30
0.0
 40
20.0
 50
0.0
  1
scala:
  0
TEXT
  8
TEXT
 10
1508.066833
 20
2085.525845
 30
0.0
 40
30.0
 50
0.0
  1
M
  0
TEXT
  8
TEXT
 10
1092.313238
 20
1623.73408
 30
0.0
 40
30.0
 50
0.0
  1
M
  0
TEXT
  8
TEXT
 10
1869.43665
 20
1613.641568
 30
0.0
 40
30.0
 50
0.0
  1
M
  0
TEXT
  8
TEXT
 10
1480.874944
 20
-16.299096
 30
0.0
 40
30.0
 50
0.0
  1
M
  0
TEXT
  8
TEXT
 10
349.718071
 20
2085.525845
 30
0.0
 40
30.0
 50
0.0
  1
M
  0
TEXT
  8
TEXT
 10
765.471666
 20
1623.73408
 30
0.0
 40
30.0
 50
0.0
  1
M
  0
TEXT
  8
TEXT
 10
-11.651746
 20
1613.641568
 30
0.0
 40
30.0
 50
0.0
  1
M
  0
TEXT
  8
TEXT
 10
376.90996
 20
-16.299096
 30
0.0
 40
30.0
 50
0.0
  1
M
  0
TEXT
  8
QUOTATURA
 10
918.206468
 20
510.0
 30
0.0
 40
20.0
 50
0.0
  1
1040
  0
TEXT
  8
QUOTATURA
 10
1470.567854
 20
-131.239411
 30
0.0
 40
20.0
 50
0.0
  1
776
  0
TEXT
  8
QUOTATURA
 10
1975.891924
 20
1039.5
 30
0.0
 40
20.0
 50
0.0
  1
2099
  0
TEXT
  8
TEXT
 10
1226.445226
 20
1087.084194
 30
0.0
 40
30.0
 50
0.0
  1
VETRO/PLEXIGLASS 4MM
  0
TEXT
  8
TEXT
 10
1226.445226
 20
1042.084194
 30
0.0
 40
30.0
 50
0.0
  1
+DECORO TRAFORATO
  0
TEXT
  8
TEXT
 10
1291.441636
 20
1867.177038
 30
0.0
 40
30.0
 50
0.0
  1
DECORO
  0
TEXT
  8
TEXT
 10
1291.441636
 20
1822.177038
 30
0.0
 40
30.0
 50
0.0
  1
LASER SUPERFICIE
  0
TEXT
  8
TEXT
 10
1323.017719
 20
277.095698
 30
0.0
 40
30.0
 50
0.0
  1
DECORO
  0
TEXT
  8
TEXT
 10
1323.017719
 20
232.095698
 30
0.0
 40
30.0
 50
0.0
  1
LASER SUPERFICIE
  0
TEXT
  8
TEXT
 10
117.993654
 20
1087.084194
 30
0.0
 40
30.0
 50
0.0
  1
VETRO/PLEXIGLASS 4MM
  0
TEXT
  8
TEXT
 10
117.993654
 20
1042.084194
 30
0.0
 40
30.0
 50
0.0
  1
+DECORO TRAFORATO
  0
TEXT
  8
TEXT
 10
182.990064
 20
1867.177038
 30
0.0
 40
30.0
 50
0.0
  1
DECORO
  0
TEXT
  8
TEXT
 10
182.990064
 20
1822.177038
 30
0.0
 40
30.0
 50
0.0
  1
LASER SUPERFICIE
  0
TEXT
  8
TEXT
 10
214.566148
 20
277.095698
 30
0.0
 40
30.0
 50
0.0
  1
DECORO
  0
TEXT
  8
TEXT
 10
214.566148
 20
232.095698
 30
0.0
 40
30.0
 50
0.0
  1
LASER SUPERFICIE
  0
TEXT
  8
TEXT
 10
-23.430834
 20
-73.667824
 30
0.0
 40
30.0
 50
0.0
  1
IL VETRO E' QUOTATO IN POSIZIONE ESATTA
  0
TEXT
  8
TEXT
 10
-23.430834
 20
-118.667824
 30
0.0
 40
30.0
 50
0.0
  1
PER ASSICURARE LA COINCIDENZA DEL TRAFORATO
  0
TEXT
  8
TEXT
 10
1357.366434
 20
417.649047
 30
0.0
 40
30.0
 50
0.0
  1
V
  0
TEXT
  8
TEXT
 10
1310.192662
 20
476.026475
 30
0.0
 40
30.0
 50
0.0
  1
V
  0
TEXT
  8
TEXT
 10
1379.221295
 20
1590.954629
 30
0.0
 40
30.0
 50
0.0
  1
V
  0
TEXT
  8
TEXT
 10
1370.709164
 20
1667.406384
 30
0.0
 40
30.0
 50
0.0
  1
V
  0
TEXT
  8
TEXT
 10
1784.747037
 20
1912.404282
 30
0.0
 40
30.0
 50
0.0
  1
V
  0
TEXT
  8
TEXT
 10
1173.399473
 20
1886.812988
 30
0.0
 40
30.0
 50
0.0
  1
V
  0
TEXT
  8
TEXT
 10
1471.964562
 20
1994.865116
 30
0.0
 40
30.0
 50
0.0
  1
V
  0
TEXT
  8
TEXT
 10
1690.912295
 20
84.048544
 30
0.0
 40
30.0
 50
0.0
  1
V
  0
TEXT
  8
TEXT
 10
1786.72365
 20
1374.987121
 30
0.0
 40
30.0
 50
0.0
  1
V
  0
TEXT
  8
TEXT
 10
1179.736575
 20
1329.38313
 30
0.0
 40
30.0
 50
0.0
  1
V
  0
TEXT
  8
QUOTATURA
 10
990.432397
 20
1086.427383
 30
0.0
 40
20.0
 50
0.0
  1
34.5
  0
TEXT
  8
QUOTATURA
 10
1570.44971
 20
40.0
 30
0.0
 40
20.0
 50
0.0
  1
100
  0
TEXT
  8
QUOTATURA
 10
1417.343506
 20
159.121814
 30
0.0
 40
20.0
 50
0.0
  1
30
  0
TEXT
  8
QUOTATURA
 10
993.880499
 20
822.497271
 30
0.0
 40
20.0
 50
0.0
  1
114.5
  0
TEXT
  8
QUOTATURA
 10
1126.189046
 20
783.528527
 30
0.0
 40
20.0
 50
0.0
  1
30
  0
TEXT
  8
QUOTATURA
 10
1920.469607
 20
822.483895
 30
0.0
 40
20.0
 50
0.0
  1
114.5
  0
TEXT
  8
QUOTATURA
 10
1307.949961
 20
2045.249731
 30
0.0
 40
20.0
 50
0.0
  1
30
  0
TEXT
  8
QUOTATURA
 10
1509.797838
 20
2155.741997
 30
0.0
 40
20.0
 50
0.0
  1
100
  0
TEXT
  8
QUOTATURA
 10
1469.361885
 20
582.864521
 30
0.0
 40
20.0
 50
0.0
  1
547
  0
TEXT
  8
QUOTATURA
 10
1551.402786
 20
692.817402
 30
0.0
 40
20.0
 50
0.0
  1
1109
  0
TEXT
  8
QUOTATURA
 10
1488.027459
 20
357.853803
 30
0.0
 40
20.0
 50
0.0
  1
300
  0
TEXT
  8
QUOTATURA
 10
1466.036883
 20
1897.19414
 30
0.0
 40
20.0
 50
0.0
  1
300
  0
TEXT
  8
QUOTATURA
 10
273.576414
 20
550.732084
 30
0.0
 40
20.0
 50
0.0
  1
VETRO/PLEX=1129
  0
TEXT
  8
QUOTATURA
 10
263.618948
 20
651.980368
 30
0.0
 40
20.0
 50
0.0
  1
VETRO/PLEX=567
  0
TEXT
  8
TEXT
 10
238.514128
 20
1351.274574
 30
0.0
 40
200.0
 50
0.0
  1
SX
  0
TEXT
  8
TEXT
 10
1338.422472
 20
1334.979635
 30
0.0
 40
200.0
 50
0.0
  1
DX
  0
TEXT
  8
TEXT
 10
111.728987
 20
2574.41925
 30
0.0
 40
30.0
 50
0.0
  1
RIF.
  0
TEXT
  8
TEXT
 10
364.95092
 20
2574.41925
 30
0.0
 40
30.0
 50
0.0
  1
QUANTITA'
  0
TEXT
  8
TEXT
 10
743.122047
 20
2574.41925
 30
0.0
 40
30.0
 50
0.0
  1
ESSENZA
  0
TEXT
  8
TEXT
 10
1189.42025
 20
2574.41925
 30
0.0
 40
30.0
 50
0.0
  1
MODELLO
  0
TEXT
  8
TEXT
 10
1542.543908
 20
2574.41925
 30
0.0
 40
30.0
 50
0.0
  1
CONSEGNA ENTRO IL
  0
TEXT
  8
TEXT
 10
32.588941
 20
2374.419215
 30
0.0
 40
30.0
 50
0.0
  1
MANO APERTURA
  0
TEXT
  8
TEXT
 10
468.409989
 20
2381.490118
 30
0.0
 40
30.0
 50
0.0
  1
BATTENTE
  0
TEXT
  8
TEXT
 10
16.573662
 20
2287.447185
 30
0.0
 40
50.0
 50
0.0
  1
SX
  0
TEXT
  8
TEXT
 10
244.776787
 20
2287.447185
 30
0.0
 40
50.0
 50
0.0
  1
DX
  0
TEXT
  8
QUOTATURA
 10
1044.20644
 20
982.5
 30
0.0
 40
20.0
 50
0.0
  1
95
  0
ENDSEC
  0
EOF
