  0
SECTION
  2
ENTITIES
  0
LINE
  8
COSTRUZIONI
 10
1884.451571
 11
1108.451571
 20
2099.0
 21
2099.0
  0
LINE
  8
COSTRUZIONI
 10
1108.451571
 11
1884.451571
 20
0.0
 21
0.0
  0
LINE
  8
COSTRUZIONI
 10
1108.451571
 11
1108.451571
 20
0.0
 21
2099.0
  0
LINE
  8
COSTRUZIONI
 10
1884.451571
 11
1884.451571
 20
0.0
 21
2099.0
  0
LINE
  8
COSTRUZIONI
 10
0.0
 11
776.0
 20
2099.0
 21
2099.0
  0
LINE
  8
COSTRUZIONI
 10
776.0
 11
0.0
 20
0.0
 21
0.0
  0
LINE
  8
COSTRUZIONI
 10
776.0
 11
776.0
 20
0.0
 21
2099.0
  0
LINE
  8
COSTRUZIONI
 10
0.0
 11
0.0
 20
0.0
 21
2099.0
  0
LINE
  8
COSTRUZIONI
 10
1192.951571
 11
1192.951571
 20
845.727117
 21
100.0
  0
LINE
  8
COSTRUZIONI
 10
1192.951571
 11
1799.951571
 20
100.0
 21
100.0
  0
LINE
  8
COSTRUZIONI
 10
1799.951571
 11
1799.951571
 20
100.0
 21
1999.0
  0
LINE
  8
COSTRUZIONI
 10
1799.951571
 11
1192.951571
 20
1999.0
 21
1999.0
  0
LINE
  8
COSTRUZIONI
 10
1192.951571
 11
1192.951571
 20
1999.0
 21
1117.912133
  0
LINE
  8
COSTRUZIONI
 10
1192.951571
 11
1192.951571
 20
845.727117
 21
1117.912133
  0
LINE
  8
COSTRUZIONI
 10
84.5
 11
84.5
 20
845.727117
 21
100.0
  0
LINE
  8
COSTRUZIONI
 10
84.5
 11
691.5
 20
100.0
 21
100.0
  0
LINE
  8
COSTRUZIONI
 10
691.5
 11
691.5
 20
100.0
 21
1999.0
  0
LINE
  8
COSTRUZIONI
 10
691.5
 11
84.5
 20
1999.0
 21
1999.0
  0
LINE
  8
COSTRUZIONI
 10
84.5
 11
84.5
 20
1999.0
 21
1117.912133
  0
LINE
  8
COSTRUZIONI
 10
84.5
 11
84.5
 20
845.727117
 21
1117.912133
  0
LINE
  8
COSTRUZIONI
 10
661.5
 11
114.5
 20
1669.0
 21
1669.0
  0
LINE
  8
COSTRUZIONI
 10
114.5
 11
114.5
 20
1669.0
 21
1969.0
  0
LINE
  8
COSTRUZIONI
 10
114.5
 11
661.5
 20
1969.0
 21
1969.0
  0
LINE
  8
COSTRUZIONI
 10
661.5
 11
661.5
 20
1969.0
 21
1669.0
  0
LINE
  8
COSTRUZIONI
 10
114.5
 11
661.5
 20
504.911817
 21
1594.088183
  0
LINE
  8
COSTRUZIONI
 10
114.5
 11
661.5
 20
1594.088183
 21
504.911817
  0
LINE
  8
COSTRUZIONI
 10
114.5
 11
661.5
 20
1674.291005
 21
1963.708995
  0
LINE
  8
COSTRUZIONI
 10
114.5
 11
661.5
 20
1963.708995
 21
1674.291005
  0
LINE
  8
COSTRUZIONI
 10
114.5
 11
661.5
 20
135.291005
 21
424.708995
  0
LINE
  8
COSTRUZIONI
 10
114.5
 11
661.5
 20
424.708995
 21
135.291005
  0
LINE
  8
COSTRUZIONI
 10
114.5
 11
114.5
 20
130.0
 21
430.0
  0
LINE
  8
COSTRUZIONI
 10
114.5
 11
661.5
 20
430.0
 21
430.0
  0
LINE
  8
COSTRUZIONI
 10
661.5
 11
661.5
 20
430.0
 21
130.0
  0
LINE
  8
COSTRUZIONI
 10
661.5
 11
114.5
 20
130.0
 21
130.0
  0
LINE
  8
COSTRUZIONI
 10
661.5
 11
114.5
 20
495.0
 21
495.0
  0
LINE
  8
COSTRUZIONI
 10
114.5
 11
114.5
 20
495.0
 21
1604.0
  0
LINE
  8
COSTRUZIONI
 10
114.5
 11
661.5
 20
1604.0
 21
1604.0
  0
LINE
  8
COSTRUZIONI
 10
661.5
 11
661.5
 20
1604.0
 21
495.0
  0
LINE
  8
COSTRUZIONI
 10
1769.951571
 11
1222.951571
 20
1669.0
 21
1669.0
  0
LINE
  8
COSTRUZIONI
 10
1222.951571
 11
1222.951571
 20
1669.0
 21
1969.0
  0
LINE
  8
COSTRUZIONI
 10
1222.951571
 11
1769.951571
 20
1969.0
 21
1969.0
  0
LINE
  8
COSTRUZIONI
 10
1769.951571
 11
1769.951571
 20
1969.0
 21
1669.0
  0
LINE
  8
COSTRUZIONI
 10
1222.951571
 11
1769.951571
 20
504.911817
 21
1594.088183
  0
LINE
  8
COSTRUZIONI
 10
1222.951571
 11
1769.951571
 20
1594.088183
 21
504.911817
  0
LINE
  8
COSTRUZIONI
 10
1222.951571
 11
1769.951571
 20
1674.291005
 21
1963.708995
  0
LINE
  8
COSTRUZIONI
 10
1222.951571
 11
1769.951571
 20
1963.708995
 21
1674.291005
  0
LINE
  8
COSTRUZIONI
 10
1222.951571
 11
1769.951571
 20
135.291005
 21
424.708995
  0
LINE
  8
COSTRUZIONI
 10
1222.951571
 11
1769.951571
 20
424.708995
 21
135.291005
  0
LINE
  8
COSTRUZIONI
 10
1222.951571
 11
1222.951571
 20
130.0
 21
430.0
  0
LINE
  8
COSTRUZIONI
 10
1222.951571
 11
1769.951571
 20
430.0
 21
430.0
  0
LINE
  8
COSTRUZIONI
 10
1769.951571
 11
1769.951571
 20
430.0
 21
130.0
  0
LINE
  8
COSTRUZIONI
 10
1769.951571
 11
1222.951571
 20
130.0
 21
130.0
  0
LINE
  8
COSTRUZIONI
 10
1769.951571
 11
1222.951571
 20
495.0
 21
495.0
  0
LINE
  8
COSTRUZIONI
 10
1222.951571
 11
1222.951571
 20
495.0
 21
1604.0
  0
LINE
  8
COSTRUZIONI
 10
1222.951571
 11
1769.951571
 20
1604.0
 21
1604.0
  0
LINE
  8
COSTRUZIONI
 10
1769.951571
 11
1769.951571
 20
1604.0
 21
495.0
  0
LINE
  8
COSTRUZIONI
 10
671.5
 11
104.5
 20
1614.0
 21
1614.0
  0
LINE
  8
COSTRUZIONI
 10
104.5
 11
104.5
 20
1614.0
 21
485.0
  0
LINE
  8
COSTRUZIONI
 10
104.5
 11
671.5
 20
485.0
 21
485.0
  0
LINE
  8
COSTRUZIONI
 10
671.5
 11
671.5
 20
485.0
 21
1614.0
  0
ENDSEC
  0
EOF
