  0
SECTION
  2
ENTITIES
  0
LINE
  8
COSTRUZIONI
 10
803.0
 11
0.0
 20
2040.0
 21
2040.0
  0
LINE
  8
COSTRUZIONI
 10
0.0
 11
0.0
 20
2040.0
 21
0.0
  0
LINE
  8
COSTRUZIONI
 10
0.0
 11
803.0
 20
0.0
 21
0.0
  0
LINE
  8
COSTRUZIONI
 10
803.0
 11
803.0
 20
0.0
 21
2040.0
  0
LINE
  8
COSTRUZIONI
 10
84.5
 11
718.5
 20
1940.0
 21
1940.0
  0
LINE
  8
COSTRUZIONI
 10
718.5
 11
718.5
 20
1940.0
 21
100.0
  0
LINE
  8
COSTRUZIONI
 10
718.5
 11
84.5
 20
100.0
 21
100.0
  0
LINE
  8
COSTRUZIONI
 10
84.5
 11
84.5
 20
100.0
 21
1940.0
  0
LINE
  8
COSTRUZIONI
 10
688.5
 11
688.5
 20
1910.0
 21
1610.0
  0
LINE
  8
COSTRUZIONI
 10
688.5
 11
114.5
 20
1610.0
 21
1610.0
  0
LINE
  8
COSTRUZIONI
 10
114.5
 11
114.5
 20
1610.0
 21
1910.0
  0
LINE
  8
COSTRUZIONI
 10
114.5
 11
688.5
 20
1910.0
 21
1910.0
  0
LINE
  8
COSTRUZIONI
 10
114.5
 11
114.5
 20
130.0
 21
430.0
  0
LINE
  8
COSTRUZIONI
 10
114.5
 11
688.5
 20
430.0
 21
430.0
  0
LINE
  8
COSTRUZIONI
 10
688.5
 11
688.5
 20
430.0
 21
130.0
  0
LINE
  8
COSTRUZIONI
 10
688.5
 11
114.5
 20
130.0
 21
130.0
  0
LINE
  8
COSTRUZIONI
 10
114.5
 11
688.5
 20
1545.0
 21
1545.0
  0
LINE
  8
COSTRUZIONI
 10
688.5
 11
688.5
 20
1545.0
 21
495.0
  0
LINE
  8
COSTRUZIONI
 10
688.5
 11
114.5
 20
495.0
 21
495.0
  0
LINE
  8
COSTRUZIONI
 10
114.5
 11
114.5
 20
495.0
 21
1545.0
  0
LINE
  8
COSTRUZIONI
 10
104.5
 11
698.5
 20
1555.0
 21
1555.0
  0
LINE
  8
COSTRUZIONI
 10
698.5
 11
698.5
 20
1555.0
 21
485.0
  0
LINE
  8
COSTRUZIONI
 10
698.5
 11
104.5
 20
485.0
 21
485.0
  0
LINE
  8
COSTRUZIONI
 10
104.5
 11
104.5
 20
485.0
 21
1555.0
  0
LINE
  8
COSTRUZIONI
 10
114.5
 11
688.5
 20
130.0
 21
430.0
  0
LINE
  8
COSTRUZIONI
 10
114.5
 11
688.5
 20
430.0
 21
130.0
  0
LINE
  8
COSTRUZIONI
 10
114.5
 11
688.5
 20
1610.0
 21
1910.0
  0
LINE
  8
COSTRUZIONI
 10
114.5
 11
688.5
 20
1910.0
 21
1610.0
  0
LINE
  8
COSTRUZIONI
 10
1926.004802
 11
1123.004802
 20
2040.0
 21
2040.0
  0
LINE
  8
COSTRUZIONI
 10
1123.004802
 11
1123.004802
 20
2040.0
 21
0.0
  0
LINE
  8
COSTRUZIONI
 10
1123.004802
 11
1926.004802
 20
0.0
 21
0.0
  0
LINE
  8
COSTRUZIONI
 10
1926.004802
 11
1926.004802
 20
0.0
 21
2040.0
  0
LINE
  8
COSTRUZIONI
 10
1207.504802
 11
1841.504802
 20
1940.0
 21
1940.0
  0
LINE
  8
COSTRUZIONI
 10
1841.504802
 11
1841.504802
 20
1940.0
 21
100.0
  0
LINE
  8
COSTRUZIONI
 10
1841.504802
 11
1207.504802
 20
100.0
 21
100.0
  0
LINE
  8
COSTRUZIONI
 10
1207.504802
 11
1207.504802
 20
100.0
 21
1940.0
  0
LINE
  8
COSTRUZIONI
 10
1811.504802
 11
1811.504802
 20
1910.0
 21
1610.0
  0
LINE
  8
COSTRUZIONI
 10
1811.504802
 11
1237.504802
 20
1610.0
 21
1610.0
  0
LINE
  8
COSTRUZIONI
 10
1237.504802
 11
1237.504802
 20
1610.0
 21
1910.0
  0
LINE
  8
COSTRUZIONI
 10
1237.504802
 11
1811.504802
 20
1910.0
 21
1910.0
  0
LINE
  8
COSTRUZIONI
 10
1237.504802
 11
1237.504802
 20
130.0
 21
430.0
  0
LINE
  8
COSTRUZIONI
 10
1237.504802
 11
1811.504802
 20
430.0
 21
430.0
  0
LINE
  8
COSTRUZIONI
 10
1811.504802
 11
1811.504802
 20
430.0
 21
130.0
  0
LINE
  8
COSTRUZIONI
 10
1811.504802
 11
1237.504802
 20
130.0
 21
130.0
  0
LINE
  8
COSTRUZIONI
 10
1237.504802
 11
1811.504802
 20
1545.0
 21
1545.0
  0
LINE
  8
COSTRUZIONI
 10
1811.504802
 11
1811.504802
 20
1545.0
 21
495.0
  0
LINE
  8
COSTRUZIONI
 10
1811.504802
 11
1237.504802
 20
495.0
 21
495.0
  0
LINE
  8
COSTRUZIONI
 10
1237.504802
 11
1237.504802
 20
495.0
 21
1545.0
  0
LINE
  8
COSTRUZIONI
 10
1237.504802
 11
1811.504802
 20
130.0
 21
430.0
  0
LINE
  8
COSTRUZIONI
 10
1237.504802
 11
1811.504802
 20
430.0
 21
130.0
  0
LINE
  8
COSTRUZIONI
 10
1237.504802
 11
1811.504802
 20
1610.0
 21
1910.0
  0
LINE
  8
COSTRUZIONI
 10
1237.504802
 11
1811.504802
 20
1910.0
 21
1610.0
  0
LINE
  8
COSTRUZIONI
 10
114.5
 11
688.5
 20
1545.0
 21
495.0
  0
LINE
  8
COSTRUZIONI
 10
114.5
 11
688.5
 20
495.0
 21
1545.0
  0
LINE
  8
COSTRUZIONI
 10
1237.504802
 11
1811.504802
 20
1545.0
 21
495.0
  0
LINE
  8
COSTRUZIONI
 10
1237.504802
 11
1811.504802
 20
495.0
 21
1545.0
  0
ENDSEC
  0
EOF
