  0
SECTION
  2
ENTITIES
  0
LINE
  8
COSTRUZIONI
 10
1757.451571
 11
1108.451571
 20
1985.0
 21
1985.0
  0
LINE
  8
COSTRUZIONI
 10
1108.451571
 11
1757.451571
 20
0.0
 21
0.0
  0
LINE
  8
COSTRUZIONI
 10
1108.451571
 11
1108.451571
 20
0.0
 21
1985.0
  0
LINE
  8
COSTRUZIONI
 10
1757.451571
 11
1757.451571
 20
0.0
 21
1985.0
  0
LINE
  8
COSTRUZIONI
 10
0.0
 11
649.0
 20
1985.0
 21
1985.0
  0
LINE
  8
COSTRUZIONI
 10
649.0
 11
0.0
 20
0.0
 21
0.0
  0
LINE
  8
COSTRUZIONI
 10
649.0
 11
649.0
 20
0.0
 21
1985.0
  0
LINE
  8
COSTRUZIONI
 10
0.0
 11
0.0
 20
0.0
 21
1985.0
  0
LINE
  8
COSTRUZIONI
 10
1192.951571
 11
1192.951571
 20
845.727117
 21
100.0
  0
LINE
  8
COSTRUZIONI
 10
1192.951571
 11
1672.951571
 20
100.0
 21
100.0
  0
LINE
  8
COSTRUZIONI
 10
1672.951571
 11
1672.951571
 20
100.0
 21
1885.0
  0
LINE
  8
COSTRUZIONI
 10
1672.951571
 11
1192.951571
 20
1885.0
 21
1885.0
  0
LINE
  8
COSTRUZIONI
 10
1192.951571
 11
1192.951571
 20
1885.0
 21
1117.912133
  0
LINE
  8
COSTRUZIONI
 10
1192.951571
 11
1192.951571
 20
845.727117
 21
1117.912133
  0
LINE
  8
COSTRUZIONI
 10
84.5
 11
84.5
 20
845.727117
 21
100.0
  0
LINE
  8
COSTRUZIONI
 10
84.5
 11
564.5
 20
100.0
 21
100.0
  0
LINE
  8
COSTRUZIONI
 10
564.5
 11
564.5
 20
100.0
 21
1885.0
  0
LINE
  8
COSTRUZIONI
 10
564.5
 11
84.5
 20
1885.0
 21
1885.0
  0
LINE
  8
COSTRUZIONI
 10
84.5
 11
84.5
 20
1885.0
 21
1117.912133
  0
LINE
  8
COSTRUZIONI
 10
84.5
 11
84.5
 20
845.727117
 21
1117.912133
  0
LINE
  8
COSTRUZIONI
 10
534.5
 11
114.5
 20
1555.0
 21
1555.0
  0
LINE
  8
COSTRUZIONI
 10
114.5
 11
114.5
 20
1555.0
 21
1855.0
  0
LINE
  8
COSTRUZIONI
 10
114.5
 11
534.5
 20
1855.0
 21
1855.0
  0
LINE
  8
COSTRUZIONI
 10
534.5
 11
534.5
 20
1855.0
 21
1555.0
  0
LINE
  8
COSTRUZIONI
 10
114.5
 11
114.5
 20
130.0
 21
430.0
  0
LINE
  8
COSTRUZIONI
 10
114.5
 11
534.5
 20
430.0
 21
430.0
  0
LINE
  8
COSTRUZIONI
 10
534.5
 11
534.5
 20
430.0
 21
130.0
  0
LINE
  8
COSTRUZIONI
 10
534.5
 11
114.5
 20
130.0
 21
130.0
  0
LINE
  8
COSTRUZIONI
 10
534.5
 11
114.5
 20
495.0
 21
495.0
  0
LINE
  8
COSTRUZIONI
 10
114.5
 11
114.5
 20
495.0
 21
1490.0
  0
LINE
  8
COSTRUZIONI
 10
114.5
 11
534.5
 20
1490.0
 21
1490.0
  0
LINE
  8
COSTRUZIONI
 10
534.5
 11
534.5
 20
1490.0
 21
495.0
  0
LINE
  8
COSTRUZIONI
 10
1642.951571
 11
1222.951571
 20
1555.0
 21
1555.0
  0
LINE
  8
COSTRUZIONI
 10
1222.951571
 11
1222.951571
 20
1555.0
 21
1855.0
  0
LINE
  8
COSTRUZIONI
 10
1222.951571
 11
1642.951571
 20
1855.0
 21
1855.0
  0
LINE
  8
COSTRUZIONI
 10
1642.951571
 11
1642.951571
 20
1855.0
 21
1555.0
  0
LINE
  8
COSTRUZIONI
 10
1222.951571
 11
1222.951571
 20
130.0
 21
430.0
  0
LINE
  8
COSTRUZIONI
 10
1222.951571
 11
1642.951571
 20
430.0
 21
430.0
  0
LINE
  8
COSTRUZIONI
 10
1642.951571
 11
1642.951571
 20
430.0
 21
130.0
  0
LINE
  8
COSTRUZIONI
 10
1642.951571
 11
1222.951571
 20
130.0
 21
130.0
  0
LINE
  8
COSTRUZIONI
 10
1642.951571
 11
1222.951571
 20
495.0
 21
495.0
  0
LINE
  8
COSTRUZIONI
 10
1222.951571
 11
1222.951571
 20
495.0
 21
1490.0
  0
LINE
  8
COSTRUZIONI
 10
1222.951571
 11
1642.951571
 20
1490.0
 21
1490.0
  0
LINE
  8
COSTRUZIONI
 10
1642.951571
 11
1642.951571
 20
1490.0
 21
495.0
  0
LINE
  8
COSTRUZIONI
 10
544.5
 11
104.5
 20
1500.0
 21
1500.0
  0
LINE
  8
COSTRUZIONI
 10
104.5
 11
104.5
 20
1500.0
 21
485.0
  0
LINE
  8
COSTRUZIONI
 10
104.5
 11
544.5
 20
485.0
 21
485.0
  0
LINE
  8
COSTRUZIONI
 10
544.5
 11
544.5
 20
485.0
 21
1500.0
  0
ENDSEC
  0
EOF
