  0
SECTION
  2
ENTITIES
  0
LINE
  8
COSTRUZIONI
 10
696.0
 11
0.0
 20
0.0
 21
0.0
  0
LINE
  8
COSTRUZIONI
 10
696.0
 11
696.0
 20
0.0
 21
1999.0
  0
LINE
  8
COSTRUZIONI
 10
696.0
 11
0.0
 20
1999.0
 21
1999.0
  0
LINE
  8
COSTRUZIONI
 10
0.0
 11
0.0
 20
1999.0
 21
0.0
  0
LINE
  8
COSTRUZIONI
 10
84.5
 11
84.5
 20
845.727117
 21
100.0
  0
LINE
  8
COSTRUZIONI
 10
84.5
 11
611.5
 20
100.0
 21
100.0
  0
LINE
  8
COSTRUZIONI
 10
611.5
 11
611.5
 20
100.0
 21
1899.0
  0
LINE
  8
COSTRUZIONI
 10
611.5
 11
84.5
 20
1899.0
 21
1899.0
  0
LINE
  8
COSTRUZIONI
 10
84.5
 11
84.5
 20
1899.0
 21
1117.912133
  0
LINE
  8
COSTRUZIONI
 10
84.5
 11
84.5
 20
845.727117
 21
1117.912133
  0
LINE
  8
COSTRUZIONI
 10
581.5
 11
114.5
 20
1569.0
 21
1569.0
  0
LINE
  8
COSTRUZIONI
 10
114.5
 11
114.5
 20
1569.0
 21
1869.0
  0
LINE
  8
COSTRUZIONI
 10
114.5
 11
581.5
 20
1869.0
 21
1869.0
  0
LINE
  8
COSTRUZIONI
 10
581.5
 11
581.5
 20
1869.0
 21
1569.0
  0
LINE
  8
COSTRUZIONI
 10
114.5
 11
114.5
 20
130.0
 21
430.0
  0
LINE
  8
COSTRUZIONI
 10
114.5
 11
581.5
 20
430.0
 21
430.0
  0
LINE
  8
COSTRUZIONI
 10
581.5
 11
581.5
 20
430.0
 21
130.0
  0
LINE
  8
COSTRUZIONI
 10
581.5
 11
114.5
 20
130.0
 21
130.0
  0
LINE
  8
COSTRUZIONI
 10
581.5
 11
114.5
 20
495.0
 21
495.0
  0
LINE
  8
COSTRUZIONI
 10
581.5
 11
581.5
 20
495.0
 21
1504.0
  0
LINE
  8
COSTRUZIONI
 10
581.5
 11
114.5
 20
1504.0
 21
1504.0
  0
LINE
  8
COSTRUZIONI
 10
114.5
 11
114.5
 20
1504.0
 21
495.0
  0
LINE
  8
COSTRUZIONI
 10
104.5
 11
104.5
 20
485.0
 21
1514.0
  0
LINE
  8
COSTRUZIONI
 10
104.5
 11
591.5
 20
1514.0
 21
1514.0
  0
LINE
  8
COSTRUZIONI
 10
591.5
 11
591.5
 20
1514.0
 21
485.0
  0
LINE
  8
COSTRUZIONI
 10
104.5
 11
591.5
 20
485.0
 21
485.0
  0
LINE
  8
COSTRUZIONI
 10
114.5
 11
581.5
 20
1569.0
 21
1869.0
  0
LINE
  8
COSTRUZIONI
 10
114.5
 11
581.5
 20
1869.0
 21
1569.0
  0
LINE
  8
COSTRUZIONI
 10
114.5
 11
581.5
 20
1504.0
 21
495.0
  0
LINE
  8
COSTRUZIONI
 10
114.5
 11
581.5
 20
495.0
 21
1504.0
  0
LINE
  8
COSTRUZIONI
 10
114.5
 11
581.5
 20
130.0
 21
430.0
  0
LINE
  8
COSTRUZIONI
 10
114.5
 11
581.5
 20
430.0
 21
130.0
  0
LINE
  8
COSTRUZIONI
 10
1021.803201
 11
1717.803201
 20
0.0
 21
0.0
  0
LINE
  8
COSTRUZIONI
 10
1021.803201
 11
1021.803201
 20
0.0
 21
1999.0
  0
LINE
  8
COSTRUZIONI
 10
1021.803201
 11
1717.803201
 20
1999.0
 21
1999.0
  0
LINE
  8
COSTRUZIONI
 10
1717.803201
 11
1717.803201
 20
1999.0
 21
0.0
  0
LINE
  8
COSTRUZIONI
 10
1633.303201
 11
1633.303201
 20
845.727117
 21
100.0
  0
LINE
  8
COSTRUZIONI
 10
1633.303201
 11
1106.303201
 20
100.0
 21
100.0
  0
LINE
  8
COSTRUZIONI
 10
1106.303201
 11
1106.303201
 20
100.0
 21
1899.0
  0
LINE
  8
COSTRUZIONI
 10
1106.303201
 11
1633.303201
 20
1899.0
 21
1899.0
  0
LINE
  8
COSTRUZIONI
 10
1633.303201
 11
1633.303201
 20
1899.0
 21
1117.912133
  0
LINE
  8
COSTRUZIONI
 10
1633.303201
 11
1633.303201
 20
845.727117
 21
1117.912133
  0
LINE
  8
COSTRUZIONI
 10
1136.303201
 11
1603.303201
 20
1569.0
 21
1569.0
  0
LINE
  8
COSTRUZIONI
 10
1603.303201
 11
1603.303201
 20
1569.0
 21
1869.0
  0
LINE
  8
COSTRUZIONI
 10
1603.303201
 11
1136.303201
 20
1869.0
 21
1869.0
  0
LINE
  8
COSTRUZIONI
 10
1136.303201
 11
1136.303201
 20
1869.0
 21
1569.0
  0
LINE
  8
COSTRUZIONI
 10
1603.303201
 11
1603.303201
 20
130.0
 21
430.0
  0
LINE
  8
COSTRUZIONI
 10
1603.303201
 11
1136.303201
 20
430.0
 21
430.0
  0
LINE
  8
COSTRUZIONI
 10
1136.303201
 11
1136.303201
 20
430.0
 21
130.0
  0
LINE
  8
COSTRUZIONI
 10
1136.303201
 11
1603.303201
 20
130.0
 21
130.0
  0
LINE
  8
COSTRUZIONI
 10
1603.303201
 11
1136.303201
 20
1569.0
 21
1869.0
  0
LINE
  8
COSTRUZIONI
 10
1603.303201
 11
1136.303201
 20
1869.0
 21
1569.0
  0
LINE
  8
COSTRUZIONI
 10
1603.303201
 11
1136.303201
 20
130.0
 21
430.0
  0
LINE
  8
COSTRUZIONI
 10
1603.303201
 11
1136.303201
 20
430.0
 21
130.0
  0
LINE
  8
COSTRUZIONI
 10
1603.303201
 11
1603.303201
 20
495.0
 21
1504.0
  0
LINE
  8
COSTRUZIONI
 10
1603.303201
 11
1136.303201
 20
1504.0
 21
1504.0
  0
LINE
  8
COSTRUZIONI
 10
1136.303201
 11
1136.303201
 20
1504.0
 21
495.0
  0
LINE
  8
COSTRUZIONI
 10
1136.303201
 11
1603.303201
 20
495.0
 21
495.0
  0
LINE
  8
COSTRUZIONI
 10
1136.303201
 11
1603.303201
 20
1504.0
 21
495.0
  0
LINE
  8
COSTRUZIONI
 10
1136.303201
 11
1603.303201
 20
495.0
 21
1504.0
  0
ENDSEC
  0
EOF
