  0
SECTION
  2
ENTITIES
  0
LINE
  8
APS_GEOMETRY
 10
1108.451571
 11
1884.451571
 20
0.0
 21
0.0
  0
CIRCLE
  8
APS_GEOMETRY
 10
1142.951571
 20
1040.0
 40
10.0
  0
ARC
  8
APS_GEOMETRY
 10
1142.951571
 20
939.5
 40
7.0
 50
180.0
 51
270.0
  0
LINE
  8
APS_GEOMETRY
 10
1135.951571
 11
1135.951571
 20
939.5
 21
950.5
  0
ARC
  8
APS_GEOMETRY
 10
1142.951571
 20
950.5
 40
7.0
 50
0.0
 51
180.0
  0
LINE
  8
APS_GEOMETRY
 10
1149.951571
 11
1149.951571
 20
950.5
 21
939.5
  0
ARC
  8
APS_GEOMETRY
 10
1142.951571
 20
939.5
 40
7.0
 50
270.0
 51
0.0
  0
LINE
  8
APS_GEOMETRY
 10
776.0
 11
0.0
 20
0.0
 21
0.0
  0
CIRCLE
  8
APS_GEOMETRY
 10
731.5
 20
1040.0
 40
10.0
  0
ARC
  8
APS_GEOMETRY
 10
731.5
 20
939.5
 40
7.0
 50
270.0
 51
0.0
  0
LINE
  8
APS_GEOMETRY
 10
738.5
 11
738.5
 20
939.5
 21
950.5
  0
ARC
  8
APS_GEOMETRY
 10
731.5
 20
950.5
 40
7.0
 50
0.0
 51
180.0
  0
LINE
  8
APS_GEOMETRY
 10
724.5
 11
724.5
 20
950.5
 21
939.5
  0
ARC
  8
APS_GEOMETRY
 10
731.5
 20
939.5
 40
7.0
 50
180.0
 51
270.0
  0
LINE
  8
APS_GEOMETRY
 10
1192.951571
 11
1192.951571
 20
845.727117
 21
1117.912133
  0
LINE
  8
APS_GEOMETRY
 10
661.5
 11
114.5
 20
1649.0
 21
1649.0
  0
LINE
  8
APS_GEOMETRY
 10
114.5
 11
114.5
 20
1649.0
 21
1949.0
  0
LINE
  8
APS_GEOMETRY
 10
114.5
 11
661.5
 20
1949.0
 21
1949.0
  0
LINE
  8
APS_GEOMETRY
 10
661.5
 11
661.5
 20
1949.0
 21
1649.0
  0
LINE
  8
APS_GEOMETRY
 10
114.5
 11
661.5
 20
1654.291005
 21
1943.708995
  0
LINE
  8
APS_GEOMETRY
 10
114.5
 11
661.5
 20
1943.708995
 21
1654.291005
  0
LINE
  8
APS_GEOMETRY
 10
114.5
 11
661.5
 20
135.291005
 21
424.708995
  0
LINE
  8
APS_GEOMETRY
 10
114.5
 11
661.5
 20
424.708995
 21
135.291005
  0
LINE
  8
APS_GEOMETRY
 10
114.5
 11
114.5
 20
130.0
 21
430.0
  0
LINE
  8
APS_GEOMETRY
 10
114.5
 11
661.5
 20
430.0
 21
430.0
  0
LINE
  8
APS_GEOMETRY
 10
661.5
 11
661.5
 20
430.0
 21
130.0
  0
LINE
  8
APS_GEOMETRY
 10
661.5
 11
114.5
 20
130.0
 21
130.0
  0
LINE
  8
APS_GEOMETRY
 10
1769.951571
 11
1222.951571
 20
1649.0
 21
1649.0
  0
LINE
  8
APS_GEOMETRY
 10
1222.951571
 11
1222.951571
 20
1649.0
 21
1949.0
  0
LINE
  8
APS_GEOMETRY
 10
1222.951571
 11
1769.951571
 20
1949.0
 21
1949.0
  0
LINE
  8
APS_GEOMETRY
 10
1769.951571
 11
1769.951571
 20
1949.0
 21
1649.0
  0
LINE
  8
APS_GEOMETRY
 10
1222.951571
 11
1769.951571
 20
1654.291005
 21
1943.708995
  0
LINE
  8
APS_GEOMETRY
 10
1222.951571
 11
1769.951571
 20
1943.708995
 21
1654.291005
  0
LINE
  8
APS_GEOMETRY
 10
1222.951571
 11
1769.951571
 20
135.291005
 21
424.708995
  0
LINE
  8
APS_GEOMETRY
 10
1222.951571
 11
1769.951571
 20
424.708995
 21
135.291005
  0
LINE
  8
APS_GEOMETRY
 10
1222.951571
 11
1222.951571
 20
130.0
 21
430.0
  0
LINE
  8
APS_GEOMETRY
 10
1222.951571
 11
1769.951571
 20
430.0
 21
430.0
  0
LINE
  8
APS_GEOMETRY
 10
1769.951571
 11
1769.951571
 20
430.0
 21
130.0
  0
LINE
  8
APS_GEOMETRY
 10
1769.951571
 11
1222.951571
 20
130.0
 21
130.0
  0
LINE
  8
APS_GEOMETRY
 10
776.0
 11
776.0
 20
0.0
 21
2079.0
  0
LINE
  8
APS_GEOMETRY
 10
776.0
 11
0.0
 20
2079.0
 21
2079.0
  0
LINE
  8
APS_GEOMETRY
 10
0.0
 11
0.0
 20
2079.0
 21
0.0
  0
LINE
  8
APS_GEOMETRY
 10
84.5
 11
691.5
 20
100.0
 21
100.0
  0
LINE
  8
APS_GEOMETRY
 10
691.5
 11
691.5
 20
100.0
 21
1979.0
  0
LINE
  8
APS_GEOMETRY
 10
691.5
 11
84.5
 20
1979.0
 21
1979.0
  0
LINE
  8
APS_GEOMETRY
 10
84.5
 11
84.5
 20
1979.0
 21
100.0
  0
LINE
  8
APS_GEOMETRY
 10
661.5
 11
114.5
 20
495.0
 21
495.0
  0
LINE
  8
APS_GEOMETRY
 10
114.5
 11
114.5
 20
495.0
 21
1584.0
  0
LINE
  8
APS_GEOMETRY
 10
114.5
 11
661.5
 20
1584.0
 21
1584.0
  0
LINE
  8
APS_GEOMETRY
 10
661.5
 11
661.5
 20
1584.0
 21
495.0
  0
LINE
  8
APS_GEOMETRY
 10
671.5
 11
104.5
 20
1594.0
 21
1594.0
  0
LINE
  8
APS_GEOMETRY
 10
104.5
 11
104.5
 20
1594.0
 21
485.0
  0
LINE
  8
APS_GEOMETRY
 10
104.5
 11
671.5
 20
485.0
 21
485.0
  0
LINE
  8
APS_GEOMETRY
 10
671.5
 11
671.5
 20
485.0
 21
1594.0
  0
LINE
  8
APS_GEOMETRY
 10
114.5
 11
661.5
 20
1584.0
 21
495.0
  0
LINE
  8
APS_GEOMETRY
 10
114.5
 11
661.5
 20
495.0
 21
1584.0
  0
LINE
  8
APS_GEOMETRY
 10
1222.951571
 11
1769.951571
 20
1584.0
 21
495.0
  0
LINE
  8
APS_GEOMETRY
 10
1222.951571
 11
1769.951571
 20
495.0
 21
1584.0
  0
LINE
  8
APS_GEOMETRY
 10
1108.451571
 11
1108.451571
 20
0.0
 21
2079.0
  0
LINE
  8
APS_GEOMETRY
 10
1108.451571
 11
1884.451571
 20
2079.0
 21
2079.0
  0
LINE
  8
APS_GEOMETRY
 10
1884.451571
 11
1884.451571
 20
2079.0
 21
0.0
  0
LINE
  8
APS_GEOMETRY
 10
1192.951571
 11
1192.951571
 20
845.727117
 21
100.0
  0
LINE
  8
APS_GEOMETRY
 10
1192.951571
 11
1799.951571
 20
100.0
 21
100.0
  0
LINE
  8
APS_GEOMETRY
 10
1799.951571
 11
1799.951571
 20
100.0
 21
1979.0
  0
LINE
  8
APS_GEOMETRY
 10
1799.951571
 11
1192.951571
 20
1979.0
 21
1979.0
  0
LINE
  8
APS_GEOMETRY
 10
1192.951571
 11
1192.951571
 20
1979.0
 21
1117.912133
  0
LINE
  8
APS_GEOMETRY
 10
1769.951571
 11
1222.951571
 20
495.0
 21
495.0
  0
LINE
  8
APS_GEOMETRY
 10
1222.951571
 11
1222.951571
 20
495.0
 21
1584.0
  0
LINE
  8
APS_GEOMETRY
 10
1222.951571
 11
1769.951571
 20
1584.0
 21
1584.0
  0
LINE
  8
APS_GEOMETRY
 10
1769.951571
 11
1769.951571
 20
1584.0
 21
495.0
  0
ENDSEC
  0
EOF
