  0
SECTION
  2
ENTITIES
  0
LINE
  8
APS_GEOMETRY
 10
7328.931
 11
7236.931
 20
179.05
 21
179.05
  0
ARC
  8
APS_GEOMETRY
 10
7236.931
 20
182.05
 40
3.0
 50
180.0
 51
270.0
  0
LINE
  8
APS_GEOMETRY
 10
7233.931
 11
7233.931
 20
182.05
 21
207.55
  0
LINE
  8
APS_GEOMETRY
 10
7233.931
 11
7234.431
 20
207.55
 21
208.05
  0
LINE
  8
APS_GEOMETRY
 10
7234.431
 11
7243.931
 20
208.05
 21
208.05
  0
LINE
  8
APS_GEOMETRY
 10
7243.931
 11
7243.931
 20
208.05
 21
219.05
  0
ARC
  8
APS_GEOMETRY
 10
7248.931
 20
219.05
 40
5.0
 50
90.0
 51
180.0
  0
LINE
  8
APS_GEOMETRY
 10
7248.931
 11
7328.931
 20
224.05
 21
224.05
  0
LINE
  8
APS_GEOMETRY
 10
7145.931
 11
7227.931
 20
179.05
 21
179.05
  0
ARC
  8
APS_GEOMETRY
 10
7227.931
 20
182.05
 40
3.0
 50
270.0
 51
0.0
  0
LINE
  8
APS_GEOMETRY
 10
7230.931
 11
7230.931
 20
182.05
 21
209.05
  0
LINE
  8
APS_GEOMETRY
 10
7230.931
 11
7238.931
 20
209.05
 21
209.05
  0
ARC
  8
APS_GEOMETRY
 10
7238.931
 20
211.05
 40
2.0
 50
270.0
 51
0.0
  0
LINE
  8
APS_GEOMETRY
 10
7240.931
 11
7240.931
 20
211.05
 21
219.05
  0
ARC
  8
APS_GEOMETRY
 10
7235.931
 20
219.05
 40
5.0
 50
0.0
 51
90.0
  0
LINE
  8
APS_GEOMETRY
 10
7235.931
 11
7145.931
 20
224.05
 21
224.05
  0
LINE
  8
APS_GEOMETRY
 10
7137.639
 11
7139.363
 20
126.571
 21
126.571
  0
ARC
  8
APS_GEOMETRY
 10
7139.276
 20
129.041
 40
2.471
 50
272.021
 51
278.44
  0
ARC
  8
APS_GEOMETRY
 10
7139.373
 20
128.385
 40
1.808
 50
278.44
 51
285.945
  0
ARC
  8
APS_GEOMETRY
 10
7140.105
 20
125.766
 40
0.912
 50
98.584
 51
104.931
  0
ARC
  8
APS_GEOMETRY
 10
7140.043
 20
126.174
 40
0.499
 50
90.0
 51
98.584
  0
ARC
  8
APS_GEOMETRY
 10
7140.043
 20
126.298
 40
0.375
 50
52.871
 51
90.0
  0
ARC
  8
APS_GEOMETRY
 10
7139.534
 20
125.625
 40
1.218
 50
32.518
 51
52.871
  0
ARC
  8
APS_GEOMETRY
 10
7139.131
 20
125.368
 40
1.696
 50
17.209
 51
32.518
  0
ARC
  8
APS_GEOMETRY
 10
7139.467
 20
125.473
 40
1.345
 50
360.0
 51
17.209
  0
ARC
  8
APS_GEOMETRY
 10
7140.14
 20
125.473
 40
0.672
 50
337.348
 51
360.0
  0
ARC
  8
APS_GEOMETRY
 10
7140.41
 20
125.36
 40
0.379
 50
307.042
 51
337.348
  0
ARC
  8
APS_GEOMETRY
 10
7140.363
 20
125.424
 40
0.459
 50
287.186
 51
306.87
  0
ARC
  8
APS_GEOMETRY
 10
7140.321
 20
125.56
 40
0.601
 50
270.0
 51
287.186
  0
ARC
  8
APS_GEOMETRY
 10
7140.321
 20
125.498
 40
0.539
 50
252.221
 51
270.0
  0
ARC
  8
APS_GEOMETRY
 10
7140.296
 20
125.42
 40
0.457
 50
232.896
 51
252.221
  0
ARC
  8
APS_GEOMETRY
 10
7140.393
 20
125.548
 40
0.618
 50
218.3
 51
232.896
  0
ARC
  8
APS_GEOMETRY
 10
7141.151
 20
126.147
 40
1.584
 50
209.197
 51
218.3
  0
ARC
  8
APS_GEOMETRY
 10
7137.296
 20
124.058
 40
2.801
 50
28.025
 51
32.699
  0
ARC
  8
APS_GEOMETRY
 10
7139.311
 20
125.352
 40
0.406
 50
32.699
 51
45.0
  0
ARC
  8
APS_GEOMETRY
 10
7139.449
 20
125.49
 40
0.212
 50
45.0
 51
67.557
  0
ARC
  8
APS_GEOMETRY
 10
7139.448
 20
125.488
 40
0.214
 50
67.557
 51
90.0
  0
ARC
  8
APS_GEOMETRY
 10
7139.448
 20
125.505
 40
0.197
 50
90.0
 51
120.801
  0
ARC
  8
APS_GEOMETRY
 10
7139.441
 20
125.516
 40
0.184
 50
120.801
 51
152.7
  0
ARC
  8
APS_GEOMETRY
 10
7139.587
 20
125.44
 40
0.348
 50
152.7
 51
171.085
  0
ARC
  8
APS_GEOMETRY
 10
7140.696
 20
125.266
 40
1.471
 50
171.085
 51
180.0
  0
LINE
  8
APS_GEOMETRY
 10
7139.225
 11
7139.225
 20
125.266
 21
123.435
  0
ARC
  8
APS_GEOMETRY
 10
7141.168
 20
123.435
 40
1.943
 50
180.0
 51
188.194
  0
ARC
  8
APS_GEOMETRY
 10
7139.717
 20
123.226
 40
0.477
 50
188.194
 51
204.775
  0
ARC
  8
APS_GEOMETRY
 10
7139.576
 20
123.161
 40
0.322
 50
204.775
 51
228.576
  0
ARC
  8
APS_GEOMETRY
 10
7139.709
 20
123.311
 40
0.522
 50
228.576
 51
247.218
  0
ARC
  8
APS_GEOMETRY
 10
7138.942
 20
121.504
 40
1.442
 50
59.381
 51
66.93
  0
ARC
  8
APS_GEOMETRY
 10
7139.508
 20
122.46
 40
0.33
 50
43.568
 51
59.381
  0
ARC
  8
APS_GEOMETRY
 10
7139.598
 20
122.546
 40
0.205
 50
19.041
 51
43.568
  0
ARC
  8
APS_GEOMETRY
 10
7139.473
 20
122.503
 40
0.338
 50
360.0
 51
19.041
  0
ARC
  8
APS_GEOMETRY
 10
7139.536
 20
122.503
 40
0.275
 50
317.66
 51
360.0
  0
ARC
  8
APS_GEOMETRY
 10
7139.284
 20
122.733
 40
0.616
 50
289.747
 51
317.66
  0
ARC
  8
APS_GEOMETRY
 10
7139.073
 20
123.321
 40
1.241
 50
281.964
 51
289.747
  0
ARC
  8
APS_GEOMETRY
 10
7138.78
 20
124.703
 40
2.653
 50
276.643
 51
281.964
  0
ARC
  8
APS_GEOMETRY
 10
7138.657
 20
125.76
 40
3.718
 50
272.836
 51
276.643
  0
ARC
  8
APS_GEOMETRY
 10
7138.509
 20
128.738
 40
6.699
 50
270.0
 51
272.836
  0
ARC
  8
APS_GEOMETRY
 10
7138.509
 20
130.583
 40
8.544
 50
267.283
 51
270.0
  0
ARC
  8
APS_GEOMETRY
 10
7138.33
 20
126.802
 40
4.759
 50
263.643
 51
267.283
  0
ARC
  8
APS_GEOMETRY
 10
7138.18
 20
125.454
 40
3.403
 50
258.563
 51
263.643
  0
ARC
  8
APS_GEOMETRY
 10
7137.821
 20
123.68
 40
1.593
 50
251.136
 51
258.563
  0
ARC
  8
APS_GEOMETRY
 10
7137.5
 20
122.751
 40
0.61
 50
222.558
 51
251.395
  0
ARC
  8
APS_GEOMETRY
 10
7137.263
 20
122.532
 40
0.287
 50
180.0
 51
222.558
  0
ARC
  8
APS_GEOMETRY
 10
7137.215
 20
122.532
 40
0.239
 50
150.642
 51
180.0
  0
ARC
  8
APS_GEOMETRY
 10
7137.234
 20
122.522
 40
0.261
 50
122.574
 51
150.642
  0
ARC
  8
APS_GEOMETRY
 10
7137.183
 20
122.58
 40
0.185
 50
108.677
 51
119.055
  0
ARC
  8
APS_GEOMETRY
 10
7139.495
 20
115.742
 40
7.404
 50
107.038
 51
108.677
  0
ARC
  8
APS_GEOMETRY
 10
7137.239
 20
123.118
 40
0.31
 50
286.144
 51
308.66
  0
ARC
  8
APS_GEOMETRY
 10
7137.29
 20
123.054
 40
0.229
 50
308.66
 51
334.933
  0
ARC
  8
APS_GEOMETRY
 10
7137.083
 20
123.151
 40
0.457
 50
334.933
 51
348.829
  0
ARC
  8
APS_GEOMETRY
 10
7134.501
 20
123.661
 40
3.089
 50
348.829
 51
354.161
  0
ARC
  8
APS_GEOMETRY
 10
7132.755
 20
123.841
 40
4.844
 50
354.144
 51
355.66
  0
ARC
  8
APS_GEOMETRY
 10
7125.018
 20
124.428
 40
12.604
 50
355.66
 51
356.6
  0
ARC
  8
APS_GEOMETRY
 10
7119.103
 20
124.78
 40
18.529
 50
356.6
 51
357.24
  0
ARC
  8
APS_GEOMETRY
 10
7102.32
 20
125.589
 40
35.331
 50
357.24
 51
357.703
  0
ARC
  8
APS_GEOMETRY
 10
7103.972
 20
125.522
 40
33.678
 50
357.703
 51
358.674
  0
ARC
  8
APS_GEOMETRY
 10
7119.555
 20
125.162
 40
18.09
 50
358.674
 51
0.0
  0
ARC
  8
APS_GEOMETRY
 10
7134.965
 20
125.162
 40
2.681
 50
360.0
 51
6.242
  0
ARC
  8
APS_GEOMETRY
 10
7137.097
 20
125.395
 40
0.536
 50
6.242
 51
20.225
  0
ARC
  8
APS_GEOMETRY
 10
7137.392
 20
125.504
 40
0.221
 50
20.225
 51
50.44
  0
ARC
  8
APS_GEOMETRY
 10
7137.45
 20
125.573
 40
0.131
 50
50.44
 51
90.0
  0
ARC
  8
APS_GEOMETRY
 10
7137.45
 20
125.528
 40
0.176
 50
90.0
 51
126.747
  0
ARC
  8
APS_GEOMETRY
 10
7137.699
 20
125.195
 40
0.592
 50
126.747
 51
146.547
  0
ARC
  8
APS_GEOMETRY
 10
7133.3
 20
128.086
 40
4.671
 50
324.255
 51
326.701
  0
ARC
  8
APS_GEOMETRY
 10
7135.162
 20
126.746
 40
2.377
 50
320.826
 51
324.255
  0
ARC
  8
APS_GEOMETRY
 10
7135.771
 20
126.25
 40
1.592
 50
315.722
 51
320.826
  0
ARC
  8
APS_GEOMETRY
 10
7136.47
 20
125.568
 40
0.615
 50
307.504
 51
315.722
  0
ARC
  8
APS_GEOMETRY
 10
7136.406
 20
125.654
 40
0.723
 50
291.306
 51
307.405
  0
ARC
  8
APS_GEOMETRY
 10
7136.518
 20
125.367
 40
0.415
 50
270.0
 51
291.306
  0
ARC
  8
APS_GEOMETRY
 10
7136.518
 20
125.34
 40
0.388
 50
245.532
 51
270.0
  0
ARC
  8
APS_GEOMETRY
 10
7136.515
 20
125.334
 40
0.381
 50
220.833
 51
245.532
  0
ARC
  8
APS_GEOMETRY
 10
7136.554
 20
125.368
 40
0.433
 50
198.684
 51
220.833
  0
ARC
  8
APS_GEOMETRY
 10
7136.718
 20
125.423
 40
0.606
 50
180.0
 51
198.684
  0
ARC
  8
APS_GEOMETRY
 10
7137.103
 20
125.423
 40
0.991
 50
168.408
 51
180.0
  0
ARC
  8
APS_GEOMETRY
 10
7137.738
 20
125.293
 40
1.639
 50
159.402
 51
168.408
  0
ARC
  8
APS_GEOMETRY
 10
7137.934
 20
125.219
 40
1.849
 50
151.39
 51
159.402
  0
ARC
  8
APS_GEOMETRY
 10
7137.894
 20
125.241
 40
1.803
 50
143.276
 51
151.39
  0
ARC
  8
APS_GEOMETRY
 10
7137.389
 20
125.619
 40
1.173
 50
124.216
 51
143.31
  0
ARC
  8
APS_GEOMETRY
 10
7136.939
 20
126.28
 40
0.373
 50
90.0
 51
124.216
  0
ARC
  8
APS_GEOMETRY
 10
7136.939
 20
126.115
 40
0.538
 50
82.725
 51
90.0
  0
ARC
  8
APS_GEOMETRY
 10
7136.897
 20
125.785
 40
0.871
 50
77.005
 51
82.725
  0
ARC
  8
APS_GEOMETRY
 10
7138.182
 20
131.98
 40
5.456
 50
258.486
 51
260.378
  0
ARC
  8
APS_GEOMETRY
 10
7137.632
 20
128.733
 40
2.163
 50
260.378
 51
263.382
  0
ARC
  8
APS_GEOMETRY
 10
7137.585
 20
128.328
 40
1.755
 50
263.382
 51
267.084
  0
ARC
  8
APS_GEOMETRY
 10
7137.639
 20
129.399
 40
2.827
 50
267.084
 51
270.0
  0
ARC
  8
APS_GEOMETRY
 10
7143.612
 20
124.085
 40
2.578
 50
71.91
 51
90.0
  0
ARC
  8
APS_GEOMETRY
 10
7143.712
 20
124.39
 40
2.257
 50
52.561
 51
71.91
  0
ARC
  8
APS_GEOMETRY
 10
7143.686
 20
124.383
 40
2.279
 50
38.846
 51
52.156
  0
ARC
  8
APS_GEOMETRY
 10
7143.328
 20
124.095
 40
2.737
 50
26.707
 51
38.846
  0
ARC
  8
APS_GEOMETRY
 10
7143.399
 20
124.153
 40
2.648
 50
13.868
 51
26.278
  0
ARC
  8
APS_GEOMETRY
 10
7143.909
 20
124.279
 40
2.123
 50
360.0
 51
13.868
  0
ARC
  8
APS_GEOMETRY
 10
7143.942
 20
124.279
 40
2.09
 50
339.712
 51
360.0
  0
ARC
  8
APS_GEOMETRY
 10
7143.825
 20
124.322
 40
2.215
 50
320.013
 51
339.712
  0
ARC
  8
APS_GEOMETRY
 10
7143.805
 20
124.333
 40
2.237
 50
303.344
 51
320.123
  0
ARC
  8
APS_GEOMETRY
 10
7143.575
 20
124.682
 40
2.655
 50
287.949
 51
303.344
  0
ARC
  8
APS_GEOMETRY
 10
7143.5
 20
124.944
 40
2.927
 50
279.039
 51
287.776
  0
ARC
  8
APS_GEOMETRY
 10
7143.53
 20
124.754
 40
2.735
 50
270.0
 51
279.039
  0
ARC
  8
APS_GEOMETRY
 10
7143.53
 20
124.62
 40
2.601
 50
257.728
 51
270.0
  0
ARC
  8
APS_GEOMETRY
 10
7143.534
 20
124.639
 40
2.62
 50
245.501
 51
257.728
  0
ARC
  8
APS_GEOMETRY
 10
7143.387
 20
124.317
 40
2.266
 50
228.665
 51
245.511
  0
ARC
  8
APS_GEOMETRY
 10
7143.338
 20
124.261
 40
2.192
 50
211.535
 51
228.665
  0
ARC
  8
APS_GEOMETRY
 10
7143.402
 20
124.308
 40
2.271
 50
195.642
 51
211.701
  0
ARC
  8
APS_GEOMETRY
 10
7143.52
 20
124.341
 40
2.393
 50
180.0
 51
195.642
  0
ARC
  8
APS_GEOMETRY
 10
7143.545
 20
124.341
 40
2.418
 50
162.181
 51
180.0
  0
ARC
  8
APS_GEOMETRY
 10
7143.324
 20
124.412
 40
2.187
 50
143.434
 51
162.181
  0
ARC
  8
APS_GEOMETRY
 10
7143.294
 20
124.436
 40
2.148
 50
126.384
 51
143.471
  0
ARC
  8
APS_GEOMETRY
 10
7143.498
 20
124.16
 40
2.491
 50
110.525
 51
126.384
  0
ARC
  8
APS_GEOMETRY
 10
7143.488
 20
124.235
 40
2.418
 50
99.77
 51
110.925
  0
ARC
  8
APS_GEOMETRY
 10
7143.612
 20
123.513
 40
3.15
 50
90.0
 51
99.77
  0
ARC
  8
APS_GEOMETRY
 10
7143.301
 20
125.244
 40
0.481
 50
90.0
 51
119.604
  0
ARC
  8
APS_GEOMETRY
 10
7143.343
 20
125.17
 40
0.566
 50
119.604
 51
146.842
  0
ARC
  8
APS_GEOMETRY
 10
7143.428
 20
125.1
 40
0.675
 50
145.84
 51
164.055
  0
ARC
  8
APS_GEOMETRY
 10
7143.624
 20
125.044
 40
0.879
 50
164.055
 51
180.0
  0
ARC
  8
APS_GEOMETRY
 10
7144.851
 20
125.044
 40
2.105
 50
180.0
 51
189.977
  0
ARC
  8
APS_GEOMETRY
 10
7146.716
 20
125.372
 40
3.999
 50
189.977
 51
197.211
  0
ARC
  8
APS_GEOMETRY
 10
7147.124
 20
125.499
 40
4.426
 50
197.211
 51
203.76
  0
ARC
  8
APS_GEOMETRY
 10
7146.107
 20
125.051
 40
3.316
 50
203.76
 51
211.329
  0
ARC
  8
APS_GEOMETRY
 10
7144.021
 20
123.799
 40
0.882
 50
212.32
 51
224.441
  0
ARC
  8
APS_GEOMETRY
 10
7143.935
 20
123.715
 40
0.762
 50
224.441
 51
237.484
  0
ARC
  8
APS_GEOMETRY
 10
7143.88
 20
123.628
 40
0.66
 50
237.484
 51
252.416
  0
ARC
  8
APS_GEOMETRY
 10
7143.825
 20
123.454
 40
0.477
 50
252.416
 51
270.0
  0
ARC
  8
APS_GEOMETRY
 10
7143.825
 20
123.51
 40
0.533
 50
270.0
 51
294.953
  0
ARC
  8
APS_GEOMETRY
 10
7143.84
 20
123.478
 40
0.498
 50
294.953
 51
320.793
  0
ARC
  8
APS_GEOMETRY
 10
7143.759
 20
123.544
 40
0.601
 50
320.793
 51
342.777
  0
ARC
  8
APS_GEOMETRY
 10
7143.403
 20
123.654
 40
0.975
 50
342.777
 51
0.0
  0
ARC
  8
APS_GEOMETRY
 10
7141.727
 20
123.654
 40
2.651
 50
0.0
 51
8.499
  0
ARC
  8
APS_GEOMETRY
 10
7140.56
 20
123.48
 40
3.83
 50
8.499
 51
15.566
  0
ARC
  8
APS_GEOMETRY
 10
7140.7
 20
123.519
 40
3.685
 50
15.566
 51
22.909
  0
ARC
  8
APS_GEOMETRY
 10
7141.906
 20
124.029
 40
2.375
 50
22.909
 51
32.057
  0
ARC
  8
APS_GEOMETRY
 10
7142.854
 20
124.626
 40
1.255
 50
31.921
 51
42.51
  0
ARC
  8
APS_GEOMETRY
 10
7143.114
 20
124.864
 40
0.902
 50
42.51
 51
55.008
  0
ARC
  8
APS_GEOMETRY
 10
7143.202
 20
124.99
 40
0.749
 50
55.008
 51
69.88
  0
ARC
  8
APS_GEOMETRY
 10
7143.281
 20
125.205
 40
0.52
 50
69.88
 51
87.754
  0
ARC
  8
APS_GEOMETRY
 10
7148.454
 20
125.065
 40
1.598
 50
83.923
 51
90.0
  0
ARC
  8
APS_GEOMETRY
 10
7148.326
 20
123.857
 40
2.813
 50
79.342
 51
83.923
  0
ARC
  8
APS_GEOMETRY
 10
7148.17
 20
123.033
 40
3.651
 50
75.808
 51
79.342
  0
ARC
  8
APS_GEOMETRY
 10
7147.629
 20
120.894
 40
5.858
 50
73.018
 51
75.808
  0
ARC
  8
APS_GEOMETRY
 10
7149.535
 20
127.143
 40
0.675
 50
253.288
 51
259.046
  0
ARC
  8
APS_GEOMETRY
 10
7149.442
 20
126.663
 40
0.187
 50
259.046
 51
270.0
  0
ARC
  8
APS_GEOMETRY
 10
7149.442
 20
126.587
 40
0.111
 50
270.0
 51
286.699
  0
ARC
  8
APS_GEOMETRY
 10
7148.554
 20
129.545
 40
3.199
 50
286.699
 51
289.799
  0
ARC
  8
APS_GEOMETRY
 10
7149.743
 20
126.254
 40
0.3
 50
100.008
 51
110.556
  0
ARC
  8
APS_GEOMETRY
 10
7149.749
 20
126.222
 40
0.333
 50
90.0
 51
100.008
  0
ARC
  8
APS_GEOMETRY
 10
7149.749
 20
126.237
 40
0.318
 50
53.356
 51
90.0
  0
ARC
  8
APS_GEOMETRY
 10
7149.194
 20
125.49
 40
1.248
 50
35.101
 51
53.356
  0
ARC
  8
APS_GEOMETRY
 10
7148.917
 20
125.296
 40
1.587
 50
20.245
 51
35.101
  0
ARC
  8
APS_GEOMETRY
 10
7149.6
 20
125.548
 40
0.859
 50
360.0
 51
20.245
  0
ARC
  8
APS_GEOMETRY
 10
7149.944
 20
125.548
 40
0.515
 50
340.481
 51
360.0
  0
ARC
  8
APS_GEOMETRY
 10
7150.029
 20
125.518
 40
0.425
 50
318.972
 51
340.481
  0
ARC
  8
APS_GEOMETRY
 10
7150.066
 20
125.485
 40
0.375
 50
295.017
 51
318.972
  0
ARC
  8
APS_GEOMETRY
 10
7150.079
 20
125.457
 40
0.344
 50
270.0
 51
295.017
  0
ARC
  8
APS_GEOMETRY
 10
7150.079
 20
125.641
 40
0.529
 50
256.171
 51
270.0
  0
ARC
  8
APS_GEOMETRY
 10
7150.022
 20
125.407
 40
0.287
 50
237.381
 51
256.171
  0
ARC
  8
APS_GEOMETRY
 10
7150.124
 20
125.567
 40
0.477
 50
231.559
 51
237.381
  0
ARC
  8
APS_GEOMETRY
 10
7151.608
 20
127.437
 40
2.864
 50
229.185
 51
231.559
  0
ARC
  8
APS_GEOMETRY
 10
7153.199
 20
129.279
 40
5.298
 50
227.9
 51
229.185
  0
ARC
  8
APS_GEOMETRY
 10
7158.704
 20
135.371
 40
13.51
 50
227.095
 51
227.9
  0
ARC
  8
APS_GEOMETRY
 10
7148.368
 20
124.255
 40
1.67
 50
46.975
 51
64.612
  0
ARC
  8
APS_GEOMETRY
 10
7148.735
 20
125.029
 40
0.813
 50
64.612
 51
90.0
  0
ARC
  8
APS_GEOMETRY
 10
7148.735
 20
125.256
 40
0.586
 50
90.0
 51
106.966
  0
ARC
  8
APS_GEOMETRY
 10
7148.667
 20
125.479
 40
0.353
 50
106.966
 51
128.868
  0
ARC
  8
APS_GEOMETRY
 10
7148.628
 20
125.528
 40
0.291
 50
128.868
 51
154.741
  0
ARC
  8
APS_GEOMETRY
 10
7148.641
 20
125.522
 40
0.305
 50
154.741
 51
180.0
  0
ARC
  8
APS_GEOMETRY
 10
7148.622
 20
125.522
 40
0.286
 50
180.0
 51
206.64
  0
ARC
  8
APS_GEOMETRY
 10
7148.714
 20
125.568
 40
0.389
 50
206.64
 51
229.43
  0
ARC
  8
APS_GEOMETRY
 10
7148.862
 20
125.74
 40
0.616
 50
229.43
 51
244.493
  0
ARC
  8
APS_GEOMETRY
 10
7149.267
 20
126.588
 40
1.555
 50
244.493
 51
253.956
  0
ARC
  8
APS_GEOMETRY
 10
7142.06
 20
102.095
 40
23.976
 50
72.737
 51
73.58
  0
ARC
  8
APS_GEOMETRY
 10
7146.19
 20
115.387
 40
10.057
 50
71.435
 51
72.737
  0
ARC
  8
APS_GEOMETRY
 10
7147.558
 20
119.46
 40
5.76
 50
69.164
 51
71.435
  0
ARC
  8
APS_GEOMETRY
 10
7149.172
 20
123.702
 40
1.221
 50
64.231
 51
69.164
  0
ARC
  8
APS_GEOMETRY
 10
7148.987
 20
123.328
 40
1.639
 50
34.939
 51
64.068
  0
ARC
  8
APS_GEOMETRY
 10
7149.388
 20
123.608
 40
1.15
 50
360.0
 51
34.939
  0
ARC
  8
APS_GEOMETRY
 10
7149.141
 20
123.608
 40
1.396
 50
333.435
 51
360.0
  0
ARC
  8
APS_GEOMETRY
 10
7149.05
 20
123.654
 40
1.498
 50
307.807
 51
333.435
  0
ARC
  8
APS_GEOMETRY
 10
7148.812
 20
123.961
 40
1.887
 50
296.732
 51
307.786
  0
ARC
  8
APS_GEOMETRY
 10
7148.672
 20
124.24
 40
2.199
 50
286.496
 51
296.732
  0
ARC
  8
APS_GEOMETRY
 10
7148.579
 20
124.553
 40
2.525
 50
277.544
 51
286.496
  0
ARC
  8
APS_GEOMETRY
 10
7148.444
 20
125.572
 40
3.553
 50
270.0
 51
277.544
  0
ARC
  8
APS_GEOMETRY
 10
7148.444
 20
125.726
 40
3.707
 50
263.555
 51
270.0
  0
ARC
  8
APS_GEOMETRY
 10
7148.564
 20
126.789
 40
4.776
 50
257.878
 51
263.555
  0
ARC
  8
APS_GEOMETRY
 10
7148.501
 20
126.492
 40
4.473
 50
254.839
 51
257.878
  0
ARC
  8
APS_GEOMETRY
 10
7147.984
 20
124.585
 40
2.497
 50
250.772
 51
254.839
  0
ARC
  8
APS_GEOMETRY
 10
7147.752
 20
123.919
 40
1.792
 50
245.121
 51
250.772
  0
ARC
  8
APS_GEOMETRY
 10
7147.358
 20
123.071
 40
0.857
 50
236.944
 51
245.121
  0
ARC
  8
APS_GEOMETRY
 10
7147.126
 20
122.706
 40
0.424
 50
211.802
 51
236.31
  0
ARC
  8
APS_GEOMETRY
 10
7148.229
 20
123.389
 40
1.722
 50
199.704
 51
211.802
  0
ARC
  8
APS_GEOMETRY
 10
7148.755
 20
123.578
 40
2.281
 50
190.413
 51
199.704
  0
ARC
  8
APS_GEOMETRY
 10
7148.299
 20
123.494
 40
1.817
 50
180.0
 51
190.413
  0
ARC
  8
APS_GEOMETRY
 10
7147.069
 20
123.494
 40
0.587
 50
164.876
 51
180.0
  0
ARC
  8
APS_GEOMETRY
 10
7146.738
 20
123.583
 40
0.244
 50
141.34
 51
164.876
  0
ARC
  8
APS_GEOMETRY
 10
7146.77
 20
123.562
 40
0.283
 50
116.928
 51
142.001
  0
ARC
  8
APS_GEOMETRY
 10
7146.753
 20
123.595
 40
0.246
 50
90.0
 51
116.928
  0
ARC
  8
APS_GEOMETRY
 10
7146.753
 20
123.594
 40
0.246
 50
62.21
 51
90.0
  0
ARC
  8
APS_GEOMETRY
 10
7146.655
 20
123.408
 40
0.457
 50
41.906
 51
62.21
  0
ARC
  8
APS_GEOMETRY
 10
7146.672
 20
123.404
 40
0.447
 50
37.313
 51
43.668
  0
ARC
  8
APS_GEOMETRY
 10
7144.165
 20
121.494
 40
3.599
 50
35.074
 51
37.313
  0
ARC
  8
APS_GEOMETRY
 10
7141.318
 20
119.495
 40
7.078
 50
33.934
 51
35.074
  0
ARC
  8
APS_GEOMETRY
 10
7131.169
 20
112.666
 40
19.311
 50
33.243
 51
33.934
  0
ARC
  8
APS_GEOMETRY
 10
7147.88
 20
123.623
 40
0.673
 50
213.453
 51
231.637
  0
ARC
  8
APS_GEOMETRY
 10
7148.198
 20
124.024
 40
1.185
 50
231.637
 51
245.313
  0
ARC
  8
APS_GEOMETRY
 10
7148.268
 20
124.177
 40
1.352
 50
245.313
 51
257.398
  0
ARC
  8
APS_GEOMETRY
 10
7148.245
 20
124.071
 40
1.244
 50
257.398
 51
270.0
  0
ARC
  8
APS_GEOMETRY
 10
7148.245
 20
123.877
 40
1.051
 50
270.0
 51
282.907
  0
ARC
  8
APS_GEOMETRY
 10
7148.358
 20
123.384
 40
0.544
 50
282.907
 51
300.872
  0
ARC
  8
APS_GEOMETRY
 10
7148.456
 20
123.22
 40
0.353
 50
300.872
 51
326.876
  0
ARC
  8
APS_GEOMETRY
 10
7148.567
 20
123.147
 40
0.22
 50
326.876
 51
0.0
  0
ARC
  8
APS_GEOMETRY
 10
7148.535
 20
123.147
 40
0.253
 50
0.0
 51
27.553
  0
ARC
  8
APS_GEOMETRY
 10
7148.454
 20
123.106
 40
0.343
 50
27.553
 51
51.147
  0
ARC
  8
APS_GEOMETRY
 10
7148.289
 20
122.9
 40
0.607
 50
51.147
 51
65.225
  0
ARC
  8
APS_GEOMETRY
 10
7147.679
 20
121.578
 40
2.064
 50
65.225
 51
72.848
  0
ARC
  8
APS_GEOMETRY
 10
7151.243
 20
132.942
 40
9.846
 50
251.106
 51
252.532
  0
ARC
  8
APS_GEOMETRY
 10
7149.981
 20
129.256
 40
5.95
 50
249.271
 51
251.106
  0
ARC
  8
APS_GEOMETRY
 10
7149.457
 20
127.87
 40
4.468
 50
246.83
 51
249.271
  0
ARC
  8
APS_GEOMETRY
 10
7148.608
 20
125.887
 40
2.312
 50
243.435
 51
246.83
  0
ARC
  8
APS_GEOMETRY
 10
7148.512
 20
125.694
 40
2.096
 50
235.981
 51
243.435
  0
ARC
  8
APS_GEOMETRY
 10
7148.586
 20
125.804
 40
2.229
 50
228.752
 51
235.981
  0
ARC
  8
APS_GEOMETRY
 10
7148.239
 20
125.395
 40
1.692
 50
206.421
 51
228.457
  0
ARC
  8
APS_GEOMETRY
 10
7147.783
 20
125.168
 40
1.183
 50
180.0
 51
206.421
  0
ARC
  8
APS_GEOMETRY
 10
7147.805
 20
125.168
 40
1.205
 50
166.555
 51
180.0
  0
ARC
  8
APS_GEOMETRY
 10
7147.944
 20
125.135
 40
1.348
 50
153.848
 51
166.555
  0
ARC
  8
APS_GEOMETRY
 10
7147.956
 20
125.129
 40
1.361
 50
141.244
 51
153.848
  0
ARC
  8
APS_GEOMETRY
 10
7148.042
 20
125.06
 40
1.471
 50
129.123
 51
141.244
  0
ARC
  8
APS_GEOMETRY
 10
7148.317
 20
124.768
 40
1.872
 50
108.978
 51
130.006
  0
ARC
  8
APS_GEOMETRY
 10
7148.454
 20
124.369
 40
2.294
 50
90.0
 51
108.978
  0
ARC
  8
APS_GEOMETRY
 10
7153.453
 20
124.537
 40
2.126
 50
77.257
 51
90.0
  0
ARC
  8
APS_GEOMETRY
 10
7153.432
 20
124.441
 40
2.224
 50
64.799
 51
77.257
  0
ARC
  8
APS_GEOMETRY
 10
7155.263
 20
128.341
 40
2.084
 50
244.885
 51
251.175
  0
ARC
  8
APS_GEOMETRY
 10
7154.666
 20
126.59
 40
0.235
 50
251.175
 51
270.0
  0
ARC
  8
APS_GEOMETRY
 10
7154.666
 20
126.736
 40
0.381
 50
270.0
 51
278.82
  0
ARC
  8
APS_GEOMETRY
 10
7154.421
 20
128.321
 40
1.984
 50
278.82
 51
282.68
  0
ARC
  8
APS_GEOMETRY
 10
7154.935
 20
126.043
 40
0.351
 50
95.906
 51
102.995
  0
ARC
  8
APS_GEOMETRY
 10
7154.951
 20
125.889
 40
0.506
 50
90.0
 51
95.906
  0
ARC
  8
APS_GEOMETRY
 10
7154.951
 20
126.059
 40
0.336
 50
62.447
 51
90.0
  0
ARC
  8
APS_GEOMETRY
 10
7154.891
 20
125.945
 40
0.465
 50
39.094
 51
62.447
  0
ARC
  8
APS_GEOMETRY
 10
7154.268
 20
125.423
 40
1.277
 50
18.435
 51
39.611
  0
ARC
  8
APS_GEOMETRY
 10
7153.885
 20
125.296
 40
1.681
 50
360.0
 51
18.435
  0
ARC
  8
APS_GEOMETRY
 10
7154.732
 20
125.296
 40
0.833
 50
334.877
 51
360.0
  0
ARC
  8
APS_GEOMETRY
 10
7154.983
 20
125.178
 40
0.557
 50
304.007
 51
334.877
  0
ARC
  8
APS_GEOMETRY
 10
7154.979
 20
125.19
 40
0.569
 50
286.39
 51
303.69
  0
ARC
  8
APS_GEOMETRY
 10
7154.961
 20
125.252
 40
0.633
 50
270.0
 51
286.39
  0
ARC
  8
APS_GEOMETRY
 10
7154.961
 20
125.245
 40
0.626
 50
255.155
 51
270.0
  0
ARC
  8
APS_GEOMETRY
 10
7154.892
 20
124.986
 40
0.358
 50
235.491
 51
255.155
  0
ARC
  8
APS_GEOMETRY
 10
7154.927
 20
125.036
 40
0.419
 50
218.48
 51
235.491
  0
ARC
  8
APS_GEOMETRY
 10
7155.489
 20
125.483
 40
1.137
 50
208.179
 51
218.48
  0
ARC
  8
APS_GEOMETRY
 10
7149.726
 20
122.355
 40
5.42
 50
28.56
 51
31.664
  0
ARC
  8
APS_GEOMETRY
 10
7153.247
 20
124.527
 40
1.283
 50
31.664
 51
38.047
  0
ARC
  8
APS_GEOMETRY
 10
7153.504
 20
124.727
 40
0.958
 50
38.047
 51
46.56
  0
ARC
  8
APS_GEOMETRY
 10
7153.37
 20
124.586
 40
1.151
 50
46.56
 51
54.324
  0
ARC
  8
APS_GEOMETRY
 10
7153.294
 20
124.454
 40
1.303
 50
54.968
 51
71.48
  0
ARC
  8
APS_GEOMETRY
 10
7153.378
 20
124.706
 40
1.038
 50
71.48
 51
90.0
  0
ARC
  8
APS_GEOMETRY
 10
7153.378
 20
125.019
 40
0.725
 50
90.0
 51
114.63
  0
ARC
  8
APS_GEOMETRY
 10
7153.342
 20
125.098
 40
0.638
 50
114.63
 51
140.921
  0
ARC
  8
APS_GEOMETRY
 10
7153.449
 20
125.011
 40
0.776
 50
140.921
 51
163.13
  0
ARC
  8
APS_GEOMETRY
 10
7153.987
 20
124.848
 40
1.338
 50
163.13
 51
180.0
  0
ARC
  8
APS_GEOMETRY
 10
7154.684
 20
124.848
 40
2.036
 50
180.0
 51
195.44
  0
ARC
  8
APS_GEOMETRY
 10
7154.578
 20
124.819
 40
1.926
 50
195.44
 51
211.316
  0
ARC
  8
APS_GEOMETRY
 10
7154.069
 20
124.52
 40
1.336
 50
211.708
 51
240.457
  0
ARC
  8
APS_GEOMETRY
 10
7154.035
 20
124.459
 40
1.266
 50
240.457
 51
270.0
  0
ARC
  8
APS_GEOMETRY
 10
7154.035
 20
124.768
 40
1.575
 50
270.0
 51
279.549
  0
ARC
  8
APS_GEOMETRY
 10
7154.016
 20
124.885
 40
1.693
 50
279.549
 51
288.759
  0
ARC
  8
APS_GEOMETRY
 10
7154.098
 20
124.642
 40
1.436
 50
288.759
 51
299.545
  0
ARC
  8
APS_GEOMETRY
 10
7154.429
 20
124.058
 40
0.765
 50
299.545
 51
314.341
  0
ARC
  8
APS_GEOMETRY
 10
7155.453
 20
122.995
 40
0.711
 50
120.141
 51
133.452
  0
ARC
  8
APS_GEOMETRY
 10
7155.167
 20
123.487
 40
0.141
 50
90.0
 51
120.141
  0
ARC
  8
APS_GEOMETRY
 10
7155.167
 20
123.405
 40
0.223
 50
61.952
 51
90.0
  0
ARC
  8
APS_GEOMETRY
 10
7155.134
 20
123.343
 40
0.294
 50
37.569
 51
61.952
  0
ARC
  8
APS_GEOMETRY
 10
7155.072
 20
123.295
 40
0.372
 50
17.665
 51
37.569
  0
ARC
  8
APS_GEOMETRY
 10
7154.977
 20
123.265
 40
0.471
 50
360.0
 51
17.665
  0
ARC
  8
APS_GEOMETRY
 10
7154.74
 20
123.265
 40
0.708
 50
344.932
 51
0.0
  0
ARC
  8
APS_GEOMETRY
 10
7154.11
 20
123.435
 40
1.36
 50
334.075
 51
344.932
  0
ARC
  8
APS_GEOMETRY
 10
7154.09
 20
123.444
 40
1.382
 50
323.374
 51
334.075
  0
ARC
  8
APS_GEOMETRY
 10
7154.497
 20
123.142
 40
0.876
 50
309.92
 51
323.374
  0
ARC
  8
APS_GEOMETRY
 10
7154.903
 20
122.663
 40
0.248
 50
289.026
 51
308.991
  0
ARC
  8
APS_GEOMETRY
 10
7154.47
 20
123.92
 40
1.577
 50
281.143
 51
289.026
  0
ARC
  8
APS_GEOMETRY
 10
7154.909
 20
121.641
 40
0.743
 50
100.437
 51
110.12
  0
ARC
  8
APS_GEOMETRY
 10
7155.491
 20
120.052
 40
2.435
 50
110.12
 51
115.463
  0
ARC
  8
APS_GEOMETRY
 10
7153.413
 20
124.401
 40
2.384
 50
282.94
 51
295.628
  0
ARC
  8
APS_GEOMETRY
 10
7153.434
 20
124.311
 40
2.292
 50
270.0
 51
282.94
  0
ARC
  8
APS_GEOMETRY
 10
7153.434
 20
124.447
 40
2.427
 50
257.307
 51
270.0
  0
ARC
  8
APS_GEOMETRY
 10
7153.536
 20
124.901
 40
2.894
 50
245.686
 51
257.307
  0
ARC
  8
APS_GEOMETRY
 10
7153.279
 20
124.337
 40
2.274
 50
228.801
 51
245.735
  0
ARC
  8
APS_GEOMETRY
 10
7153.283
 20
124.342
 40
2.28
 50
211.891
 51
228.801
  0
ARC
  8
APS_GEOMETRY
 10
7153.418
 20
124.439
 40
2.446
 50
196.728
 51
212.152
  0
ARC
  8
APS_GEOMETRY
 10
7153.069
 20
124.334
 40
2.082
 50
180.0
 51
196.728
  0
ARC
  8
APS_GEOMETRY
 10
7153.12
 20
124.334
 40
2.133
 50
161.184
 51
180.0
  0
ARC
  8
APS_GEOMETRY
 10
7153.257
 20
124.288
 40
2.277
 50
142.98
 51
161.184
  0
ARC
  8
APS_GEOMETRY
 10
7153.363
 20
124.206
 40
2.411
 50
127.824
 51
142.958
  0
ARC
  8
APS_GEOMETRY
 10
7153.539
 20
123.98
 40
2.697
 50
113.52
 51
127.824
  0
ARC
  8
APS_GEOMETRY
 10
7153.482
 20
124.112
 40
2.554
 50
101.927
 51
113.527
  0
ARC
  8
APS_GEOMETRY
 10
7153.453
 20
124.247
 40
2.416
 50
90.0
 51
101.927
  0
ARC
  8
APS_GEOMETRY
 10
7158.501
 20
124.085
 40
2.578
 50
71.91
 51
90.0
  0
ARC
  8
APS_GEOMETRY
 10
7158.601
 20
124.39
 40
2.257
 50
52.561
 51
71.91
  0
ARC
  8
APS_GEOMETRY
 10
7158.575
 20
124.383
 40
2.279
 50
38.846
 51
52.156
  0
ARC
  8
APS_GEOMETRY
 10
7158.218
 20
124.095
 40
2.737
 50
26.707
 51
38.846
  0
ARC
  8
APS_GEOMETRY
 10
7158.288
 20
124.153
 40
2.648
 50
13.868
 51
26.278
  0
ARC
  8
APS_GEOMETRY
 10
7158.798
 20
124.279
 40
2.123
 50
360.0
 51
13.868
  0
ARC
  8
APS_GEOMETRY
 10
7158.831
 20
124.279
 40
2.09
 50
339.712
 51
360.0
  0
ARC
  8
APS_GEOMETRY
 10
7158.714
 20
124.322
 40
2.215
 50
320.013
 51
339.712
  0
ARC
  8
APS_GEOMETRY
 10
7158.694
 20
124.333
 40
2.237
 50
303.344
 51
320.123
  0
ARC
  8
APS_GEOMETRY
 10
7158.465
 20
124.682
 40
2.655
 50
287.949
 51
303.344
  0
ARC
  8
APS_GEOMETRY
 10
7158.389
 20
124.944
 40
2.927
 50
279.039
 51
287.776
  0
ARC
  8
APS_GEOMETRY
 10
7158.419
 20
124.754
 40
2.735
 50
270.0
 51
279.039
  0
ARC
  8
APS_GEOMETRY
 10
7158.419
 20
124.62
 40
2.601
 50
257.728
 51
270.0
  0
ARC
  8
APS_GEOMETRY
 10
7158.424
 20
124.639
 40
2.62
 50
245.501
 51
257.728
  0
ARC
  8
APS_GEOMETRY
 10
7158.276
 20
124.317
 40
2.266
 50
228.665
 51
245.511
  0
ARC
  8
APS_GEOMETRY
 10
7158.227
 20
124.261
 40
2.192
 50
211.535
 51
228.665
  0
ARC
  8
APS_GEOMETRY
 10
7158.292
 20
124.308
 40
2.271
 50
195.642
 51
211.701
  0
ARC
  8
APS_GEOMETRY
 10
7158.409
 20
124.341
 40
2.393
 50
180.0
 51
195.642
  0
ARC
  8
APS_GEOMETRY
 10
7158.434
 20
124.341
 40
2.418
 50
162.181
 51
180.0
  0
ARC
  8
APS_GEOMETRY
 10
7158.213
 20
124.412
 40
2.187
 50
143.434
 51
162.181
  0
ARC
  8
APS_GEOMETRY
 10
7158.184
 20
124.436
 40
2.148
 50
126.384
 51
143.471
  0
ARC
  8
APS_GEOMETRY
 10
7158.387
 20
124.16
 40
2.491
 50
110.525
 51
126.384
  0
ARC
  8
APS_GEOMETRY
 10
7158.377
 20
124.235
 40
2.418
 50
99.77
 51
110.925
  0
ARC
  8
APS_GEOMETRY
 10
7158.501
 20
123.513
 40
3.15
 50
90.0
 51
99.77
  0
ARC
  8
APS_GEOMETRY
 10
7158.191
 20
125.244
 40
0.481
 50
90.0
 51
119.604
  0
ARC
  8
APS_GEOMETRY
 10
7158.233
 20
125.17
 40
0.566
 50
119.604
 51
146.842
  0
ARC
  8
APS_GEOMETRY
 10
7158.317
 20
125.1
 40
0.675
 50
145.84
 51
164.055
  0
ARC
  8
APS_GEOMETRY
 10
7158.513
 20
125.044
 40
0.879
 50
164.055
 51
180.0
  0
ARC
  8
APS_GEOMETRY
 10
7159.74
 20
125.044
 40
2.105
 50
180.0
 51
189.977
  0
ARC
  8
APS_GEOMETRY
 10
7161.605
 20
125.372
 40
3.999
 50
189.977
 51
197.211
  0
ARC
  8
APS_GEOMETRY
 10
7162.013
 20
125.499
 40
4.426
 50
197.211
 51
203.76
  0
ARC
  8
APS_GEOMETRY
 10
7160.997
 20
125.051
 40
3.316
 50
203.76
 51
211.329
  0
ARC
  8
APS_GEOMETRY
 10
7158.91
 20
123.799
 40
0.882
 50
212.32
 51
224.441
  0
ARC
  8
APS_GEOMETRY
 10
7158.824
 20
123.715
 40
0.762
 50
224.441
 51
237.484
  0
ARC
  8
APS_GEOMETRY
 10
7158.769
 20
123.628
 40
0.66
 50
237.484
 51
252.416
  0
ARC
  8
APS_GEOMETRY
 10
7158.714
 20
123.454
 40
0.477
 50
252.416
 51
270.0
  0
ARC
  8
APS_GEOMETRY
 10
7158.714
 20
123.51
 40
0.533
 50
270.0
 51
294.953
  0
ARC
  8
APS_GEOMETRY
 10
7158.729
 20
123.478
 40
0.498
 50
294.953
 51
320.793
  0
ARC
  8
APS_GEOMETRY
 10
7158.649
 20
123.544
 40
0.601
 50
320.793
 51
342.777
  0
ARC
  8
APS_GEOMETRY
 10
7158.292
 20
123.654
 40
0.975
 50
342.777
 51
0.0
  0
ARC
  8
APS_GEOMETRY
 10
7156.616
 20
123.654
 40
2.651
 50
0.0
 51
8.499
  0
ARC
  8
APS_GEOMETRY
 10
7155.449
 20
123.48
 40
3.83
 50
8.499
 51
15.566
  0
ARC
  8
APS_GEOMETRY
 10
7155.589
 20
123.519
 40
3.685
 50
15.566
 51
22.909
  0
ARC
  8
APS_GEOMETRY
 10
7156.796
 20
124.029
 40
2.375
 50
22.909
 51
32.057
  0
ARC
  8
APS_GEOMETRY
 10
7157.743
 20
124.626
 40
1.255
 50
31.921
 51
42.51
  0
ARC
  8
APS_GEOMETRY
 10
7158.003
 20
124.864
 40
0.902
 50
42.51
 51
55.008
  0
ARC
  8
APS_GEOMETRY
 10
7158.091
 20
124.99
 40
0.749
 50
55.008
 51
69.88
  0
ARC
  8
APS_GEOMETRY
 10
7158.17
 20
125.205
 40
0.52
 50
69.88
 51
87.754
  0
ARC
  8
APS_GEOMETRY
 10
7163.837
 20
124.537
 40
2.126
 50
77.257
 51
90.0
  0
ARC
  8
APS_GEOMETRY
 10
7163.816
 20
124.441
 40
2.224
 50
64.799
 51
77.257
  0
ARC
  8
APS_GEOMETRY
 10
7165.647
 20
128.341
 40
2.084
 50
244.885
 51
251.175
  0
ARC
  8
APS_GEOMETRY
 10
7165.05
 20
126.59
 40
0.235
 50
251.175
 51
270.0
  0
ARC
  8
APS_GEOMETRY
 10
7165.05
 20
126.736
 40
0.381
 50
270.0
 51
278.82
  0
ARC
  8
APS_GEOMETRY
 10
7164.805
 20
128.321
 40
1.984
 50
278.82
 51
282.68
  0
ARC
  8
APS_GEOMETRY
 10
7165.319
 20
126.043
 40
0.351
 50
95.906
 51
102.995
  0
ARC
  8
APS_GEOMETRY
 10
7165.335
 20
125.889
 40
0.506
 50
90.0
 51
95.906
  0
ARC
  8
APS_GEOMETRY
 10
7165.335
 20
126.059
 40
0.336
 50
62.447
 51
90.0
  0
ARC
  8
APS_GEOMETRY
 10
7165.275
 20
125.945
 40
0.465
 50
39.094
 51
62.447
  0
ARC
  8
APS_GEOMETRY
 10
7164.652
 20
125.423
 40
1.277
 50
18.435
 51
39.611
  0
ARC
  8
APS_GEOMETRY
 10
7164.269
 20
125.296
 40
1.681
 50
360.0
 51
18.435
  0
ARC
  8
APS_GEOMETRY
 10
7165.116
 20
125.296
 40
0.833
 50
334.877
 51
360.0
  0
ARC
  8
APS_GEOMETRY
 10
7165.367
 20
125.178
 40
0.557
 50
304.007
 51
334.877
  0
ARC
  8
APS_GEOMETRY
 10
7165.363
 20
125.19
 40
0.569
 50
286.39
 51
303.69
  0
ARC
  8
APS_GEOMETRY
 10
7165.345
 20
125.252
 40
0.633
 50
270.0
 51
286.39
  0
ARC
  8
APS_GEOMETRY
 10
7165.345
 20
125.245
 40
0.626
 50
255.155
 51
270.0
  0
ARC
  8
APS_GEOMETRY
 10
7165.276
 20
124.986
 40
0.358
 50
235.491
 51
255.155
  0
ARC
  8
APS_GEOMETRY
 10
7165.311
 20
125.036
 40
0.419
 50
218.48
 51
235.491
  0
ARC
  8
APS_GEOMETRY
 10
7165.873
 20
125.483
 40
1.137
 50
208.179
 51
218.48
  0
ARC
  8
APS_GEOMETRY
 10
7160.11
 20
122.355
 40
5.42
 50
28.56
 51
31.664
  0
ARC
  8
APS_GEOMETRY
 10
7163.631
 20
124.527
 40
1.283
 50
31.664
 51
38.047
  0
ARC
  8
APS_GEOMETRY
 10
7163.888
 20
124.727
 40
0.958
 50
38.047
 51
46.56
  0
ARC
  8
APS_GEOMETRY
 10
7163.754
 20
124.586
 40
1.151
 50
46.56
 51
54.324
  0
ARC
  8
APS_GEOMETRY
 10
7163.678
 20
124.454
 40
1.303
 50
54.968
 51
71.48
  0
ARC
  8
APS_GEOMETRY
 10
7163.762
 20
124.706
 40
1.038
 50
71.48
 51
90.0
  0
ARC
  8
APS_GEOMETRY
 10
7163.762
 20
125.019
 40
0.725
 50
90.0
 51
114.63
  0
ARC
  8
APS_GEOMETRY
 10
7163.726
 20
125.098
 40
0.638
 50
114.63
 51
140.921
  0
ARC
  8
APS_GEOMETRY
 10
7163.833
 20
125.011
 40
0.776
 50
140.921
 51
163.13
  0
ARC
  8
APS_GEOMETRY
 10
7164.371
 20
124.848
 40
1.338
 50
163.13
 51
180.0
  0
ARC
  8
APS_GEOMETRY
 10
7165.068
 20
124.848
 40
2.036
 50
180.0
 51
195.44
  0
ARC
  8
APS_GEOMETRY
 10
7164.962
 20
124.819
 40
1.926
 50
195.44
 51
211.316
  0
ARC
  8
APS_GEOMETRY
 10
7164.453
 20
124.52
 40
1.336
 50
211.708
 51
240.457
  0
ARC
  8
APS_GEOMETRY
 10
7164.419
 20
124.459
 40
1.266
 50
240.457
 51
270.0
  0
ARC
  8
APS_GEOMETRY
 10
7164.419
 20
124.768
 40
1.575
 50
270.0
 51
279.549
  0
ARC
  8
APS_GEOMETRY
 10
7164.4
 20
124.885
 40
1.693
 50
279.549
 51
288.759
  0
ARC
  8
APS_GEOMETRY
 10
7164.482
 20
124.642
 40
1.436
 50
288.759
 51
299.545
  0
ARC
  8
APS_GEOMETRY
 10
7164.813
 20
124.058
 40
0.765
 50
299.545
 51
314.341
  0
ARC
  8
APS_GEOMETRY
 10
7165.837
 20
122.995
 40
0.711
 50
120.141
 51
133.452
  0
ARC
  8
APS_GEOMETRY
 10
7165.551
 20
123.487
 40
0.141
 50
90.0
 51
120.141
  0
ARC
  8
APS_GEOMETRY
 10
7165.551
 20
123.405
 40
0.223
 50
61.952
 51
90.0
  0
ARC
  8
APS_GEOMETRY
 10
7165.518
 20
123.343
 40
0.294
 50
37.569
 51
61.952
  0
ARC
  8
APS_GEOMETRY
 10
7165.456
 20
123.295
 40
0.372
 50
17.665
 51
37.569
  0
ARC
  8
APS_GEOMETRY
 10
7165.361
 20
123.265
 40
0.471
 50
360.0
 51
17.665
  0
ARC
  8
APS_GEOMETRY
 10
7165.124
 20
123.265
 40
0.708
 50
344.932
 51
0.0
  0
ARC
  8
APS_GEOMETRY
 10
7164.494
 20
123.435
 40
1.36
 50
334.075
 51
344.932
  0
ARC
  8
APS_GEOMETRY
 10
7164.474
 20
123.444
 40
1.382
 50
323.374
 51
334.075
  0
ARC
  8
APS_GEOMETRY
 10
7164.881
 20
123.142
 40
0.876
 50
309.92
 51
323.374
  0
ARC
  8
APS_GEOMETRY
 10
7165.287
 20
122.663
 40
0.248
 50
289.026
 51
308.991
  0
ARC
  8
APS_GEOMETRY
 10
7164.854
 20
123.92
 40
1.577
 50
281.143
 51
289.026
  0
ARC
  8
APS_GEOMETRY
 10
7165.293
 20
121.641
 40
0.743
 50
100.437
 51
110.12
  0
ARC
  8
APS_GEOMETRY
 10
7165.875
 20
120.052
 40
2.435
 50
110.12
 51
115.463
  0
ARC
  8
APS_GEOMETRY
 10
7163.797
 20
124.401
 40
2.384
 50
282.94
 51
295.628
  0
ARC
  8
APS_GEOMETRY
 10
7163.818
 20
124.311
 40
2.292
 50
270.0
 51
282.94
  0
ARC
  8
APS_GEOMETRY
 10
7163.818
 20
124.447
 40
2.427
 50
257.307
 51
270.0
  0
ARC
  8
APS_GEOMETRY
 10
7163.92
 20
124.901
 40
2.894
 50
245.686
 51
257.307
  0
ARC
  8
APS_GEOMETRY
 10
7163.663
 20
124.337
 40
2.274
 50
228.801
 51
245.735
  0
ARC
  8
APS_GEOMETRY
 10
7163.667
 20
124.342
 40
2.28
 50
211.891
 51
228.801
  0
ARC
  8
APS_GEOMETRY
 10
7163.802
 20
124.439
 40
2.446
 50
196.728
 51
212.152
  0
ARC
  8
APS_GEOMETRY
 10
7163.453
 20
124.334
 40
2.082
 50
180.0
 51
196.728
  0
ARC
  8
APS_GEOMETRY
 10
7163.504
 20
124.334
 40
2.133
 50
161.184
 51
180.0
  0
ARC
  8
APS_GEOMETRY
 10
7163.641
 20
124.288
 40
2.277
 50
142.98
 51
161.184
  0
ARC
  8
APS_GEOMETRY
 10
7163.747
 20
124.206
 40
2.411
 50
127.824
 51
142.958
  0
ARC
  8
APS_GEOMETRY
 10
7163.923
 20
123.98
 40
2.697
 50
113.52
 51
127.824
  0
ARC
  8
APS_GEOMETRY
 10
7163.866
 20
124.112
 40
2.554
 50
101.927
 51
113.527
  0
ARC
  8
APS_GEOMETRY
 10
7163.837
 20
124.247
 40
2.416
 50
90.0
 51
101.927
  0
ARC
  8
APS_GEOMETRY
 10
7168.885
 20
124.085
 40
2.578
 50
71.91
 51
90.0
  0
ARC
  8
APS_GEOMETRY
 10
7168.985
 20
124.39
 40
2.257
 50
52.561
 51
71.91
  0
ARC
  8
APS_GEOMETRY
 10
7168.959
 20
124.383
 40
2.279
 50
38.846
 51
52.156
  0
ARC
  8
APS_GEOMETRY
 10
7168.602
 20
124.095
 40
2.737
 50
26.707
 51
38.846
  0
ARC
  8
APS_GEOMETRY
 10
7168.672
 20
124.153
 40
2.648
 50
13.868
 51
26.278
  0
ARC
  8
APS_GEOMETRY
 10
7169.182
 20
124.279
 40
2.123
 50
360.0
 51
13.868
  0
ARC
  8
APS_GEOMETRY
 10
7169.215
 20
124.279
 40
2.09
 50
339.712
 51
360.0
  0
ARC
  8
APS_GEOMETRY
 10
7169.098
 20
124.322
 40
2.215
 50
320.013
 51
339.712
  0
ARC
  8
APS_GEOMETRY
 10
7169.078
 20
124.333
 40
2.237
 50
303.344
 51
320.123
  0
ARC
  8
APS_GEOMETRY
 10
7168.849
 20
124.682
 40
2.655
 50
287.949
 51
303.344
  0
ARC
  8
APS_GEOMETRY
 10
7168.773
 20
124.944
 40
2.927
 50
279.039
 51
287.776
  0
ARC
  8
APS_GEOMETRY
 10
7168.803
 20
124.754
 40
2.735
 50
270.0
 51
279.039
  0
ARC
  8
APS_GEOMETRY
 10
7168.803
 20
124.62
 40
2.601
 50
257.728
 51
270.0
  0
ARC
  8
APS_GEOMETRY
 10
7168.808
 20
124.639
 40
2.62
 50
245.501
 51
257.728
  0
ARC
  8
APS_GEOMETRY
 10
7168.66
 20
124.317
 40
2.266
 50
228.665
 51
245.511
  0
ARC
  8
APS_GEOMETRY
 10
7168.611
 20
124.261
 40
2.192
 50
211.535
 51
228.665
  0
ARC
  8
APS_GEOMETRY
 10
7168.676
 20
124.308
 40
2.271
 50
195.642
 51
211.701
  0
ARC
  8
APS_GEOMETRY
 10
7168.793
 20
124.341
 40
2.393
 50
180.0
 51
195.642
  0
ARC
  8
APS_GEOMETRY
 10
7168.818
 20
124.341
 40
2.418
 50
162.181
 51
180.0
  0
ARC
  8
APS_GEOMETRY
 10
7168.597
 20
124.412
 40
2.187
 50
143.434
 51
162.181
  0
ARC
  8
APS_GEOMETRY
 10
7168.568
 20
124.436
 40
2.148
 50
126.384
 51
143.471
  0
ARC
  8
APS_GEOMETRY
 10
7168.771
 20
124.16
 40
2.491
 50
110.525
 51
126.384
  0
ARC
  8
APS_GEOMETRY
 10
7168.761
 20
124.235
 40
2.418
 50
99.77
 51
110.925
  0
ARC
  8
APS_GEOMETRY
 10
7168.885
 20
123.513
 40
3.15
 50
90.0
 51
99.77
  0
ARC
  8
APS_GEOMETRY
 10
7168.575
 20
125.244
 40
0.481
 50
90.0
 51
119.604
  0
ARC
  8
APS_GEOMETRY
 10
7168.617
 20
125.17
 40
0.566
 50
119.604
 51
146.842
  0
ARC
  8
APS_GEOMETRY
 10
7168.701
 20
125.1
 40
0.675
 50
145.84
 51
164.055
  0
ARC
  8
APS_GEOMETRY
 10
7168.897
 20
125.044
 40
0.879
 50
164.055
 51
180.0
  0
ARC
  8
APS_GEOMETRY
 10
7170.124
 20
125.044
 40
2.105
 50
180.0
 51
189.977
  0
ARC
  8
APS_GEOMETRY
 10
7171.989
 20
125.372
 40
3.999
 50
189.977
 51
197.211
  0
ARC
  8
APS_GEOMETRY
 10
7172.397
 20
125.499
 40
4.426
 50
197.211
 51
203.76
  0
ARC
  8
APS_GEOMETRY
 10
7171.381
 20
125.051
 40
3.316
 50
203.76
 51
211.329
  0
ARC
  8
APS_GEOMETRY
 10
7169.294
 20
123.799
 40
0.882
 50
212.32
 51
224.441
  0
ARC
  8
APS_GEOMETRY
 10
7169.208
 20
123.715
 40
0.762
 50
224.441
 51
237.484
  0
ARC
  8
APS_GEOMETRY
 10
7169.153
 20
123.628
 40
0.66
 50
237.484
 51
252.416
  0
ARC
  8
APS_GEOMETRY
 10
7169.098
 20
123.454
 40
0.477
 50
252.416
 51
270.0
  0
ARC
  8
APS_GEOMETRY
 10
7169.098
 20
123.51
 40
0.533
 50
270.0
 51
294.953
  0
ARC
  8
APS_GEOMETRY
 10
7169.113
 20
123.478
 40
0.498
 50
294.953
 51
320.793
  0
ARC
  8
APS_GEOMETRY
 10
7169.033
 20
123.544
 40
0.601
 50
320.793
 51
342.777
  0
ARC
  8
APS_GEOMETRY
 10
7168.676
 20
123.654
 40
0.975
 50
342.777
 51
0.0
  0
ARC
  8
APS_GEOMETRY
 10
7167.0
 20
123.654
 40
2.651
 50
0.0
 51
8.499
  0
ARC
  8
APS_GEOMETRY
 10
7165.833
 20
123.48
 40
3.83
 50
8.499
 51
15.566
  0
ARC
  8
APS_GEOMETRY
 10
7165.973
 20
123.519
 40
3.685
 50
15.566
 51
22.909
  0
ARC
  8
APS_GEOMETRY
 10
7167.18
 20
124.029
 40
2.375
 50
22.909
 51
32.057
  0
ARC
  8
APS_GEOMETRY
 10
7168.127
 20
124.626
 40
1.255
 50
31.921
 51
42.51
  0
ARC
  8
APS_GEOMETRY
 10
7168.388
 20
124.864
 40
0.902
 50
42.51
 51
55.008
  0
ARC
  8
APS_GEOMETRY
 10
7168.475
 20
124.99
 40
0.749
 50
55.008
 51
69.88
  0
ARC
  8
APS_GEOMETRY
 10
7168.554
 20
125.205
 40
0.52
 50
69.88
 51
87.754
  0
ARC
  8
APS_GEOMETRY
 10
7173.937
 20
123.743
 40
0.242
 50
90.0
 51
115.837
  0
ARC
  8
APS_GEOMETRY
 10
7173.877
 20
123.866
 40
0.105
 50
115.837
 51
155.462
  0
ARC
  8
APS_GEOMETRY
 10
7173.947
 20
123.834
 40
0.182
 50
155.462
 51
168.366
  0
ARC
  8
APS_GEOMETRY
 10
7174.581
 20
123.703
 40
0.83
 50
168.366
 51
174.395
  0
ARC
  8
APS_GEOMETRY
 10
7175.221
 20
123.64
 40
1.472
 50
174.395
 51
177.813
  0
ARC
  8
APS_GEOMETRY
 10
7177.344
 20
123.559
 40
3.597
 50
177.813
 51
180.0
  0
ARC
  8
APS_GEOMETRY
 10
7178.88
 20
123.559
 40
5.133
 50
180.0
 51
184.62
  0
ARC
  8
APS_GEOMETRY
 10
7175.438
 20
123.281
 40
1.68
 50
184.62
 51
192.7
  0
ARC
  8
APS_GEOMETRY
 10
7174.111
 20
122.99
 40
0.322
 50
194.036
 51
205.821
  0
ARC
  8
APS_GEOMETRY
 10
7173.971
 20
122.922
 40
0.166
 50
205.821
 51
222.274
  0
ARC
  8
APS_GEOMETRY
 10
7174.014
 20
122.961
 40
0.224
 50
222.274
 51
234.605
  0
ARC
  8
APS_GEOMETRY
 10
7174.5
 20
123.645
 40
1.063
 50
234.605
 51
240.255
  0
ARC
  8
APS_GEOMETRY
 10
7173.761
 20
122.338
 40
0.439
 50
34.592
 51
61.189
  0
ARC
  8
APS_GEOMETRY
 10
7173.906
 20
122.438
 40
0.263
 50
360.0
 51
34.592
  0
ARC
  8
APS_GEOMETRY
 10
7173.915
 20
122.438
 40
0.254
 50
318.231
 51
360.0
  0
ARC
  8
APS_GEOMETRY
 10
7173.745
 20
122.589
 40
0.482
 50
288.227
 51
318.231
  0
ARC
  8
APS_GEOMETRY
 10
7173.569
 20
123.124
 40
1.045
 50
280.377
 51
288.227
  0
ARC
  8
APS_GEOMETRY
 10
7173.262
 20
124.8
 40
2.749
 50
275.541
 51
280.377
  0
ARC
  8
APS_GEOMETRY
 10
7173.13
 20
126.164
 40
4.119
 50
272.304
 51
275.541
  0
ARC
  8
APS_GEOMETRY
 10
7172.969
 20
130.168
 40
8.126
 50
270.0
 51
272.304
  0
ARC
  8
APS_GEOMETRY
 10
7172.969
 20
126.822
 40
4.78
 50
262.811
 51
270.0
  0
ARC
  8
APS_GEOMETRY
 10
7172.54
 20
123.421
 40
1.352
 50
249.274
 51
262.811
  0
ARC
  8
APS_GEOMETRY
 10
7172.27
 20
122.708
 40
0.59
 50
221.379
 51
249.274
  0
ARC
  8
APS_GEOMETRY
 10
7172.033
 20
122.5
 40
0.275
 50
180.0
 51
221.379
  0
ARC
  8
APS_GEOMETRY
 10
7172.031
 20
122.5
 40
0.273
 50
164.055
 51
180.0
  0
ARC
  8
APS_GEOMETRY
 10
7171.918
 20
122.532
 40
0.155
 50
142.815
 51
164.055
  0
ARC
  8
APS_GEOMETRY
 10
7171.989
 20
122.478
 40
0.244
 50
129.007
 51
142.815
  0
ARC
  8
APS_GEOMETRY
 10
7172.868
 20
121.393
 40
1.641
 50
123.69
 51
129.007
  0
ARC
  8
APS_GEOMETRY
 10
7171.621
 20
123.27
 40
0.613
 50
303.389
 51
319.022
  0
ARC
  8
APS_GEOMETRY
 10
7171.787
 20
123.126
 40
0.393
 50
319.022
 51
338.575
  0
ARC
  8
APS_GEOMETRY
 10
7171.565
 20
123.213
 40
0.632
 50
338.575
 51
351.049
  0
ARC
  8
APS_GEOMETRY
 10
7168.884
 20
123.635
 40
3.345
 50
351.049
 51
356.46
  0
ARC
  8
APS_GEOMETRY
 10
7169.768
 20
123.601
 40
2.461
 50
355.972
 51
358.68
  0
ARC
  8
APS_GEOMETRY
 10
7140.749
 20
124.27
 40
31.488
 50
358.68
 51
359.437
  0
LINE
  8
APS_GEOMETRY
 10
7172.235
 11
7172.238
 20
123.961
 21
124.452
  0
LINE
  8
APS_GEOMETRY
 10
7172.238
 11
7172.239
 20
124.452
 21
125.093
  0
ARC
  8
APS_GEOMETRY
 10
7164.658
 20
125.093
 40
7.581
 50
360.0
 51
1.717
  0
ARC
  8
APS_GEOMETRY
 10
7168.715
 20
125.215
 40
3.522
 50
1.717
 51
4.236
  0
ARC
  8
APS_GEOMETRY
 10
7170.038
 20
125.313
 40
2.196
 50
4.236
 51
8.269
  0
ARC
  8
APS_GEOMETRY
 10
7171.561
 20
125.534
 40
0.657
 50
8.269
 51
15.642
  0
ARC
  8
APS_GEOMETRY
 10
7171.823
 20
125.607
 40
0.385
 50
15.642
 51
39.417
  0
ARC
  8
APS_GEOMETRY
 10
7171.828
 20
125.612
 40
0.378
 50
39.417
 51
63.435
  0
ARC
  8
APS_GEOMETRY
 10
7172.509
 20
127.021
 40
1.187
 50
236.874
 51
244.486
  0
ARC
  8
APS_GEOMETRY
 10
7172.003
 20
126.246
 40
0.261
 50
220.601
 51
236.874
  0
ARC
  8
APS_GEOMETRY
 10
7171.945
 20
126.196
 40
0.185
 50
198.246
 51
220.601
  0
ARC
  8
APS_GEOMETRY
 10
7172.031
 20
126.225
 40
0.276
 50
180.0
 51
198.246
  0
ARC
  8
APS_GEOMETRY
 10
7172.03
 20
126.225
 40
0.275
 50
156.161
 51
180.0
  0
ARC
  8
APS_GEOMETRY
 10
7172.068
 20
126.208
 40
0.317
 50
133.977
 51
156.161
  0
ARC
  8
APS_GEOMETRY
 10
7172.145
 20
126.129
 40
0.427
 50
116.996
 51
133.977
  0
ARC
  8
APS_GEOMETRY
 10
7172.296
 20
125.831
 40
0.761
 50
104.3
 51
116.996
  0
ARC
  8
APS_GEOMETRY
 10
7172.336
 20
125.68
 40
0.916
 50
95.326
 51
104.349
  0
ARC
  8
APS_GEOMETRY
 10
7172.494
 20
123.977
 40
2.627
 50
90.0
 51
95.326
  0
ARC
  8
APS_GEOMETRY
 10
7172.494
 20
125.303
 40
1.301
 50
87.553
 51
90.0
  0
ARC
  8
APS_GEOMETRY
 10
7172.218
 20
118.824
 40
7.786
 50
86.553
 51
87.553
  0
ARC
  8
APS_GEOMETRY
 10
7171.824
 20
112.289
 40
14.332
 50
86.009
 51
86.553
  0
ARC
  8
APS_GEOMETRY
 10
7170.293
 20
90.348
 40
36.327
 50
85.668
 51
86.009
  0
ARC
  8
APS_GEOMETRY
 10
7173.158
 20
128.079
 40
1.513
 50
265.426
 51
268.531
  0
ARC
  8
APS_GEOMETRY
 10
7173.292
 20
133.323
 40
6.759
 50
268.531
 51
270.0
  0
ARC
  8
APS_GEOMETRY
 10
7173.292
 20
131.716
 40
5.151
 50
270.0
 51
271.637
  0
ARC
  8
APS_GEOMETRY
 10
7173.177
 20
135.744
 40
9.181
 50
271.637
 51
272.862
  0
ARC
  8
APS_GEOMETRY
 10
7173.045
 20
138.387
 40
11.827
 50
272.862
 51
273.814
  0
ARC
  8
APS_GEOMETRY
 10
7172.598
 20
145.098
 40
18.553
 50
273.814
 51
274.574
  0
ARC
  8
APS_GEOMETRY
 10
7175.404
 20
108.599
 40
18.054
 50
93.72
 51
94.214
  0
ARC
  8
APS_GEOMETRY
 10
7174.805
 20
117.81
 40
8.823
 50
93.013
 51
93.72
  0
ARC
  8
APS_GEOMETRY
 10
7174.641
 20
120.93
 40
5.699
 50
91.918
 51
93.013
  0
ARC
  8
APS_GEOMETRY
 10
7174.512
 20
124.772
 40
1.855
 50
90.0
 51
91.918
  0
ARC
  8
APS_GEOMETRY
 10
7174.512
 20
124.216
 40
2.411
 50
73.82
 51
90.0
  0
ARC
  8
APS_GEOMETRY
 10
7174.75
 20
125.035
 40
1.558
 50
53.658
 51
73.82
  0
ARC
  8
APS_GEOMETRY
 10
7175.088
 20
125.497
 40
0.986
 50
26.03
 51
53.569
  0
ARC
  8
APS_GEOMETRY
 10
7174.984
 20
125.446
 40
1.101
 50
360.0
 51
26.03
  0
ARC
  8
APS_GEOMETRY
 10
7174.941
 20
125.446
 40
1.144
 50
345.282
 51
360.0
  0
ARC
  8
APS_GEOMETRY
 10
7175.051
 20
125.417
 40
1.03
 50
329.767
 51
345.282
  0
ARC
  8
APS_GEOMETRY
 10
7175.113
 20
125.381
 40
0.958
 50
313.168
 51
329.767
  0
ARC
  8
APS_GEOMETRY
 10
7175.136
 20
125.356
 40
0.925
 50
296.267
 51
313.168
  0
ARC
  8
APS_GEOMETRY
 10
7175.663
 20
124.293
 40
0.262
 50
116.565
 51
139.899
  0
ARC
  8
APS_GEOMETRY
 10
7175.532
 20
124.403
 40
0.091
 50
139.899
 51
180.0
  0
ARC
  8
APS_GEOMETRY
 10
7175.542
 20
124.403
 40
0.101
 50
180.0
 51
226.193
  0
ARC
  8
APS_GEOMETRY
 10
7175.729
 20
124.598
 40
0.372
 50
226.193
 51
249.829
  0
ARC
  8
APS_GEOMETRY
 10
7175.193
 20
123.122
 40
1.199
 50
53.249
 51
70.105
  0
ARC
  8
APS_GEOMETRY
 10
7175.437
 20
123.448
 40
0.792
 50
32.471
 51
53.249
  0
ARC
  8
APS_GEOMETRY
 10
7175.323
 20
123.376
 40
0.926
 50
23.305
 51
32.471
  0
ARC
  8
APS_GEOMETRY
 10
7174.622
 20
123.074
 40
1.69
 50
16.521
 51
23.305
  0
ARC
  8
APS_GEOMETRY
 10
7174.076
 20
122.912
 40
2.26
 50
11.429
 51
16.521
  0
ARC
  8
APS_GEOMETRY
 10
7172.527
 20
122.599
 40
3.84
 50
7.524
 51
11.429
  0
ARC
  8
APS_GEOMETRY
 10
7177.66
 20
123.282
 40
1.338
 50
187.765
 51
196.914
  0
ARC
  8
APS_GEOMETRY
 10
7176.565
 20
122.95
 40
0.194
 50
196.914
 51
221.082
  0
ARC
  8
APS_GEOMETRY
 10
7176.569
 20
122.953
 40
0.2
 50
221.082
 51
244.607
  0
ARC
  8
APS_GEOMETRY
 10
7177.037
 20
123.938
 40
1.29
 50
244.607
 51
253.811
  0
ARC
  8
APS_GEOMETRY
 10
7176.626
 20
122.537
 40
0.17
 50
51.45
 51
72.474
  0
ARC
  8
APS_GEOMETRY
 10
7176.584
 20
122.484
 40
0.238
 50
33.69
 51
51.45
  0
ARC
  8
APS_GEOMETRY
 10
7176.574
 20
122.477
 40
0.25
 50
16.639
 51
33.69
  0
ARC
  8
APS_GEOMETRY
 10
7176.562
 20
122.474
 40
0.262
 50
360.0
 51
16.639
  0
ARC
  8
APS_GEOMETRY
 10
7176.558
 20
122.474
 40
0.266
 50
338.993
 51
360.0
  0
ARC
  8
APS_GEOMETRY
 10
7176.396
 20
122.536
 40
0.44
 50
322.696
 51
338.993
  0
ARC
  8
APS_GEOMETRY
 10
7176.335
 20
122.582
 40
0.516
 50
308.603
 51
322.696
  0
ARC
  8
APS_GEOMETRY
 10
7176.293
 20
122.634
 40
0.583
 50
295.346
 51
308.603
  0
ARC
  8
APS_GEOMETRY
 10
7176.074
 20
123.117
 40
1.113
 50
279.583
 51
294.905
  0
ARC
  8
APS_GEOMETRY
 10
7175.788
 20
124.815
 40
2.835
 50
270.0
 51
279.583
  0
ARC
  8
APS_GEOMETRY
 10
7175.788
 20
124.047
 40
2.067
 50
261.247
 51
270.0
  0
ARC
  8
APS_GEOMETRY
 10
7175.655
 20
123.187
 40
1.197
 50
249.737
 51
261.247
  0
ARC
  8
APS_GEOMETRY
 10
7175.568
 20
122.951
 40
0.946
 50
235.345
 51
249.737
  0
ARC
  8
APS_GEOMETRY
 10
7175.458
 20
122.792
 40
0.752
 50
219.198
 51
235.345
  0
ARC
  8
APS_GEOMETRY
 10
7175.69
 20
122.989
 40
1.056
 50
209.076
 51
219.56
  0
ARC
  8
APS_GEOMETRY
 10
7176.224
 20
123.286
 40
1.667
 50
200.735
 51
209.076
  0
ARC
  8
APS_GEOMETRY
 10
7176.961
 20
123.565
 40
2.455
 50
197.881
 51
200.735
  0
ARC
  8
APS_GEOMETRY
 10
7179.989
 20
124.542
 40
5.637
 50
195.997
 51
197.881
  0
ARC
  8
APS_GEOMETRY
 10
7182.227
 20
125.184
 40
7.966
 50
194.664
 51
195.997
  0
ARC
  8
APS_GEOMETRY
 10
7188.426
 20
126.806
 40
14.374
 50
193.671
 51
194.664
  0
ARC
  8
APS_GEOMETRY
 10
7172.705
 20
122.984
 40
1.805
 50
13.61
 51
23.585
  0
ARC
  8
APS_GEOMETRY
 10
7173.887
 20
123.5
 40
0.515
 50
23.585
 51
42.31
  0
ARC
  8
APS_GEOMETRY
 10
7173.995
 20
123.598
 40
0.371
 50
42.31
 51
67.521
  0
ARC
  8
APS_GEOMETRY
 10
7173.91
 20
123.393
 40
0.592
 50
67.521
 51
87.397
  0
LINE
  8
APS_GEOMETRY
 10
7173.75
 11
7173.714
 20
125.652
 21
124.89
  0
LINE
  8
APS_GEOMETRY
 10
7173.714
 11
7173.714
 20
124.89
 21
124.878
  0
LINE
  8
APS_GEOMETRY
 10
7173.714
 11
7173.714
 20
124.878
 21
124.861
  0
ARC
  8
APS_GEOMETRY
 10
7174.244
 20
124.861
 40
0.529
 50
180.0
 51
192.339
  0
ARC
  8
APS_GEOMETRY
 10
7173.823
 20
124.769
 40
0.099
 50
192.339
 51
221.186
  0
ARC
  8
APS_GEOMETRY
 10
7173.813
 20
124.76
 40
0.085
 50
221.186
 51
253.872
  0
ARC
  8
APS_GEOMETRY
 10
7173.884
 20
125.008
 40
0.343
 50
253.872
 51
270.0
  0
ARC
  8
APS_GEOMETRY
 10
7173.884
 20
125.462
 40
0.797
 50
270.0
 51
289.569
  0
ARC
  8
APS_GEOMETRY
 10
7174.029
 20
125.054
 40
0.364
 50
289.569
 51
318.681
  0
ARC
  8
APS_GEOMETRY
 10
7173.99
 20
125.089
 40
0.417
 50
318.681
 51
344.628
  0
ARC
  8
APS_GEOMETRY
 10
7173.26
 20
125.289
 40
1.174
 50
344.628
 51
0.0
  0
ARC
  8
APS_GEOMETRY
 10
7173.607
 20
125.289
 40
0.827
 50
0.0
 51
35.369
  0
ARC
  8
APS_GEOMETRY
 10
7173.986
 20
125.558
 40
0.362
 50
35.369
 51
90.0
  0
ARC
  8
APS_GEOMETRY
 10
7173.986
 20
125.554
 40
0.366
 50
90.0
 51
108.435
  0
ARC
  8
APS_GEOMETRY
 10
7173.914
 20
125.768
 40
0.141
 50
108.435
 51
138.366
  0
ARC
  8
APS_GEOMETRY
 10
7173.934
 20
125.751
 40
0.167
 50
138.366
 51
164.291
  0
ARC
  8
APS_GEOMETRY
 10
7174.382
 20
125.625
 40
0.632
 50
164.291
 51
177.51
  0
LINE
  8
APS_GEOMETRY
 10
7179.572
 11
7181.201
 20
126.414
 21
124.989
  0
ARC
  8
APS_GEOMETRY
 10
7182.724
 20
126.736
 40
2.318
 50
228.93
 51
232.674
  0
ARC
  8
APS_GEOMETRY
 10
7181.877
 20
125.625
 40
0.921
 50
232.674
 51
238.617
  0
ARC
  8
APS_GEOMETRY
 10
7181.663
 20
125.276
 40
0.512
 50
238.617
 51
249.131
  0
ARC
  8
APS_GEOMETRY
 10
7181.528
 20
124.92
 40
0.131
 50
249.131
 51
270.0
  0
ARC
  8
APS_GEOMETRY
 10
7181.528
 20
124.904
 40
0.115
 50
270.0
 51
334.898
  0
ARC
  8
APS_GEOMETRY
 10
7180.998
 20
125.152
 40
0.7
 50
334.898
 51
0.0
  0
ARC
  8
APS_GEOMETRY
 10
7175.875
 20
125.152
 40
5.823
 50
360.0
 51
2.026
  0
ARC
  8
APS_GEOMETRY
 10
7178.964
 20
125.261
 40
2.732
 50
2.026
 51
4.984
  0
ARC
  8
APS_GEOMETRY
 10
7179.973
 20
125.349
 40
1.719
 50
4.984
 51
9.673
  0
ARC
  8
APS_GEOMETRY
 10
7181.137
 20
125.548
 40
0.538
 50
9.673
 51
18.06
  0
ARC
  8
APS_GEOMETRY
 10
7181.315
 20
125.606
 40
0.352
 50
18.06
 51
42.397
  0
ARC
  8
APS_GEOMETRY
 10
7181.257
 20
125.553
 40
0.429
 50
42.397
 51
64.398
  0
ARC
  8
APS_GEOMETRY
 10
7181.78
 20
126.632
 40
0.769
 50
233.633
 51
244.026
  0
ARC
  8
APS_GEOMETRY
 10
7181.495
 20
126.246
 40
0.29
 50
216.656
 51
233.633
  0
ARC
  8
APS_GEOMETRY
 10
7181.452
 20
126.213
 40
0.235
 50
196.082
 51
216.656
  0
ARC
  8
APS_GEOMETRY
 10
7181.594
 20
126.254
 40
0.383
 50
180.0
 51
196.082
  0
ARC
  8
APS_GEOMETRY
 10
7181.489
 20
126.254
 40
0.279
 50
133.202
 51
180.0
  0
ARC
  8
APS_GEOMETRY
 10
7181.709
 20
126.02
 40
0.6
 50
101.788
 51
133.202
  0
ARC
  8
APS_GEOMETRY
 10
7181.76
 20
125.79
 40
0.835
 50
96.633
 51
102.011
  0
ARC
  8
APS_GEOMETRY
 10
7181.946
 20
124.191
 40
2.445
 50
93.489
 51
96.633
  0
ARC
  8
APS_GEOMETRY
 10
7182.026
 20
122.886
 40
3.753
 50
91.439
 51
93.489
  0
ARC
  8
APS_GEOMETRY
 10
7182.123
 20
119.026
 40
7.614
 50
90.0
 51
91.439
  0
ARC
  8
APS_GEOMETRY
 10
7182.123
 20
119.544
 40
7.096
 50
87.994
 51
90.0
  0
ARC
  8
APS_GEOMETRY
 10
7182.252
 20
123.228
 40
3.41
 50
85.101
 51
87.994
  0
ARC
  8
APS_GEOMETRY
 10
7182.357
 20
124.449
 40
2.184
 50
80.595
 51
85.101
  0
ARC
  8
APS_GEOMETRY
 10
7182.595
 20
125.891
 40
0.723
 50
72.759
 51
80.595
  0
ARC
  8
APS_GEOMETRY
 10
7182.668
 20
126.115
 40
0.488
 50
40.956
 51
73.072
  0
ARC
  8
APS_GEOMETRY
 10
7182.806
 20
126.235
 40
0.305
 50
360.0
 51
40.956
  0
ARC
  8
APS_GEOMETRY
 10
7182.824
 20
126.235
 40
0.286
 50
322.573
 51
360.0
  0
ARC
  8
APS_GEOMETRY
 10
7182.674
 20
126.35
 40
0.476
 50
293.749
 51
322.573
  0
ARC
  8
APS_GEOMETRY
 10
7183.278
 20
124.962
 40
1.038
 50
113.429
 51
119.291
  0
ARC
  8
APS_GEOMETRY
 10
7182.874
 20
125.682
 40
0.212
 50
119.291
 51
132.274
  0
ARC
  8
APS_GEOMETRY
 10
7182.851
 20
125.707
 40
0.178
 50
132.274
 51
147.653
  0
ARC
  8
APS_GEOMETRY
 10
7183.019
 20
125.601
 40
0.377
 50
147.653
 51
158.199
  0
ARC
  8
APS_GEOMETRY
 10
7183.275
 20
125.493
 40
0.655
 50
157.751
 51
167.885
  0
ARC
  8
APS_GEOMETRY
 10
7184.637
 20
125.2
 40
2.048
 50
167.885
 51
173.61
  0
ARC
  8
APS_GEOMETRY
 10
7185.842
 20
125.066
 40
3.26
 50
173.61
 51
177.221
  0
ARC
  8
APS_GEOMETRY
 10
7189.557
 20
124.885
 40
6.98
 50
177.221
 51
179.689
  0
LINE
  8
APS_GEOMETRY
 10
7182.578
 11
7182.578
 20
124.923
 21
123.857
  0
ARC
  8
APS_GEOMETRY
 10
7226.114
 20
123.857
 40
43.537
 50
180.0
 51
180.161
  0
ARC
  8
APS_GEOMETRY
 10
7263.896
 20
123.963
 40
81.319
 50
180.161
 51
180.279
  0
LINE
  8
APS_GEOMETRY
 10
7182.578
 11
7182.579
 20
123.567
 21
123.388
  0
LINE
  8
APS_GEOMETRY
 10
7182.579
 11
7182.581
 20
123.388
 21
123.187
  0
ARC
  8
APS_GEOMETRY
 10
7174.812
 20
123.142
 40
7.769
 50
358.204
 51
0.326
  0
ARC
  8
APS_GEOMETRY
 10
7178.508
 20
123.027
 40
4.071
 50
355.274
 51
358.204
  0
ARC
  8
APS_GEOMETRY
 10
7179.794
 20
122.92
 40
2.781
 50
350.991
 51
355.274
  0
ARC
  8
APS_GEOMETRY
 10
7181.432
 20
122.661
 40
1.122
 50
344.249
 51
350.991
  0
ARC
  8
APS_GEOMETRY
 10
7181.986
 20
122.502
 40
0.547
 50
314.415
 51
344.445
  0
ARC
  8
APS_GEOMETRY
 10
7182.188
 20
122.295
 40
0.257
 50
270.0
 51
314.415
  0
ARC
  8
APS_GEOMETRY
 10
7182.188
 20
122.455
 40
0.416
 50
256.342
 51
270.0
  0
ARC
  8
APS_GEOMETRY
 10
7182.159
 20
122.333
 40
0.29
 50
239.982
 51
256.342
  0
ARC
  8
APS_GEOMETRY
 10
7182.288
 20
122.557
 40
0.549
 50
231.153
 51
239.982
  0
ARC
  8
APS_GEOMETRY
 10
7184.463
 20
125.257
 40
4.017
 50
227.891
 51
231.153
  0
LINE
  8
APS_GEOMETRY
 10
7181.77
 11
7179.83
 20
122.277
 21
124.014
  0
ARC
  8
APS_GEOMETRY
 10
7179.083
 20
123.187
 40
1.115
 50
47.911
 51
61.468
  0
ARC
  8
APS_GEOMETRY
 10
7179.494
 20
123.941
 40
0.256
 50
61.468
 51
90.0
  0
ARC
  8
APS_GEOMETRY
 10
7179.494
 20
124.085
 40
0.112
 50
90.0
 51
133.195
  0
ARC
  8
APS_GEOMETRY
 10
7179.604
 20
123.967
 40
0.273
 50
133.195
 51
160.454
  0
ARC
  8
APS_GEOMETRY
 10
7179.958
 20
123.842
 40
0.649
 50
160.454
 51
173.251
  0
ARC
  8
APS_GEOMETRY
 10
7181.625
 20
123.644
 40
2.328
 50
173.251
 51
180.0
  0
ARC
  8
APS_GEOMETRY
 10
7186.159
 20
123.644
 40
6.862
 50
180.0
 51
181.897
  0
ARC
  8
APS_GEOMETRY
 10
7182.525
 20
123.524
 40
3.226
 50
181.897
 51
184.664
  0
ARC
  8
APS_GEOMETRY
 10
7181.334
 20
123.427
 40
2.03
 50
184.664
 51
189.048
  0
ARC
  8
APS_GEOMETRY
 10
7179.954
 20
123.207
 40
0.633
 50
189.048
 51
196.905
  0
ARC
  8
APS_GEOMETRY
 10
7179.735
 20
123.14
 40
0.404
 50
196.905
 51
220.253
  0
ARC
  8
APS_GEOMETRY
 10
7179.739
 20
123.144
 40
0.41
 50
220.253
 51
243.435
  0
ARC
  8
APS_GEOMETRY
 10
7179.339
 20
122.338
 40
0.49
 50
37.921
 51
63.778
  0
ARC
  8
APS_GEOMETRY
 10
7179.542
 20
122.497
 40
0.232
 50
360.0
 51
37.921
  0
ARC
  8
APS_GEOMETRY
 10
7179.452
 20
122.497
 40
0.323
 50
324.268
 51
360.0
  0
ARC
  8
APS_GEOMETRY
 10
7179.331
 20
122.583
 40
0.471
 50
294.86
 51
324.268
  0
ARC
  8
APS_GEOMETRY
 10
7179.132
 20
123.014
 40
0.946
 50
278.78
 51
294.86
  0
ARC
  8
APS_GEOMETRY
 10
7178.794
 20
125.202
 40
3.16
 50
270.0
 51
278.78
  0
ARC
  8
APS_GEOMETRY
 10
7178.794
 20
124.635
 40
2.593
 50
260.383
 51
270.0
  0
ARC
  8
APS_GEOMETRY
 10
7178.52
 20
123.022
 40
0.957
 50
244.522
 51
260.383
  0
ARC
  8
APS_GEOMETRY
 10
7178.323
 20
122.607
 40
0.497
 50
216.549
 51
244.522
  0
ARC
  8
APS_GEOMETRY
 10
7178.16
 20
122.487
 40
0.295
 50
180.0
 51
216.549
  0
ARC
  8
APS_GEOMETRY
 10
7178.266
 20
122.487
 40
0.401
 50
164.65
 51
180.0
  0
ARC
  8
APS_GEOMETRY
 10
7178.037
 20
122.549
 40
0.164
 50
140.528
 51
164.65
  0
ARC
  8
APS_GEOMETRY
 10
7178.13
 20
122.473
 40
0.283
 50
126.135
 51
140.528
  0
ARC
  8
APS_GEOMETRY
 10
7179.095
 20
121.151
 40
1.921
 50
120.619
 51
126.135
  0
ARC
  8
APS_GEOMETRY
 10
7177.95
 20
123.083
 40
0.325
 50
300.784
 51
330.068
  0
ARC
  8
APS_GEOMETRY
 10
7177.734
 20
123.208
 40
0.575
 50
330.068
 51
351.983
  0
ARC
  8
APS_GEOMETRY
 10
7174.098
 20
123.682
 40
4.242
 50
352.493
 51
355.365
  0
ARC
  8
APS_GEOMETRY
 10
7169.711
 20
124.038
 40
8.643
 50
355.365
 51
357.376
  0
ARC
  8
APS_GEOMETRY
 10
7166.64
 20
124.178
 40
11.717
 50
357.376
 51
358.861
  0
ARC
  8
APS_GEOMETRY
 10
7158.457
 20
124.341
 40
19.901
 50
358.861
 51
0.0
  0
ARC
  8
APS_GEOMETRY
 10
7165.816
 20
124.341
 40
12.542
 50
360.0
 51
1.926
  0
ARC
  8
APS_GEOMETRY
 10
7171.655
 20
124.537
 40
6.701
 50
1.926
 51
4.562
  0
ARC
  8
APS_GEOMETRY
 10
7173.714
 20
124.702
 40
4.635
 50
4.562
 51
8.366
  0
ARC
  8
APS_GEOMETRY
 10
7176.391
 20
125.095
 40
1.929
 50
8.366
 51
14.265
  0
ARC
  8
APS_GEOMETRY
 10
7177.404
 20
125.351
 40
0.884
 50
14.349
 51
23.629
  0
ARC
  8
APS_GEOMETRY
 10
7177.917
 20
125.576
 40
0.324
 50
23.629
 51
38.991
  0
ARC
  8
APS_GEOMETRY
 10
7177.919
 20
125.578
 40
0.322
 50
38.991
 51
54.462
  0
ARC
  8
APS_GEOMETRY
 10
7177.619
 20
125.157
 40
0.838
 50
54.462
 51
64.026
  0
ARC
  8
APS_GEOMETRY
 10
7178.467
 20
126.894
 40
1.094
 50
235.472
 51
243.947
  0
ARC
  8
APS_GEOMETRY
 10
7178.029
 20
126.257
 40
0.322
 50
219.806
 51
235.472
  0
ARC
  8
APS_GEOMETRY
 10
7177.962
 20
126.202
 40
0.235
 50
198.939
 51
219.806
  0
ARC
  8
APS_GEOMETRY
 10
7178.009
 20
126.218
 40
0.285
 50
180.0
 51
198.939
  0
ARC
  8
APS_GEOMETRY
 10
7177.996
 20
126.218
 40
0.271
 50
126.254
 51
180.0
  0
ARC
  8
APS_GEOMETRY
 10
7178.409
 20
125.654
 40
0.971
 50
98.616
 51
126.254
  0
ARC
  8
APS_GEOMETRY
 10
7178.468
 20
125.187
 40
1.441
 50
94.456
 51
98.13
  0
ARC
  8
APS_GEOMETRY
 10
7178.693
 20
122.302
 40
4.335
 50
92.337
 51
94.456
  0
ARC
  8
APS_GEOMETRY
 10
7178.788
 20
119.954
 40
6.685
 50
90.963
 51
92.337
  0
ARC
  8
APS_GEOMETRY
 10
7178.905
 20
113.019
 40
13.621
 50
90.0
 51
90.963
  0
ARC
  8
APS_GEOMETRY
 10
7178.905
 20
124.158
 40
2.482
 50
83.928
 51
90.0
  0
ARC
  8
APS_GEOMETRY
 10
7179.109
 20
126.072
 40
0.558
 50
71.095
 51
83.928
  0
ARC
  8
APS_GEOMETRY
 10
7179.127
 20
126.126
 40
0.5
 50
56.848
 51
71.095
  0
ARC
  8
APS_GEOMETRY
 10
7178.577
 20
125.283
 40
1.506
 50
48.652
 51
56.848
  0
ARC
  8
APS_GEOMETRY
 10
7185.453
 20
122.579
 40
4.061
 50
84.71
 51
90.0
  0
ARC
  8
APS_GEOMETRY
 10
7185.527
 20
123.383
 40
3.253
 50
78.799
 51
84.71
  0
ARC
  8
APS_GEOMETRY
 10
7186.009
 20
125.818
 40
0.772
 50
49.783
 51
78.771
  0
ARC
  8
APS_GEOMETRY
 10
7186.331
 20
126.199
 40
0.273
 50
360.0
 51
49.783
  0
ARC
  8
APS_GEOMETRY
 10
7186.302
 20
126.199
 40
0.302
 50
342.759
 51
360.0
  0
ARC
  8
APS_GEOMETRY
 10
7186.46
 20
126.15
 40
0.137
 50
317.045
 51
342.759
  0
ARC
  8
APS_GEOMETRY
 10
7186.383
 20
126.22
 40
0.241
 50
301.817
 51
317.045
  0
ARC
  8
APS_GEOMETRY
 10
7185.258
 20
128.035
 40
2.376
 50
296.98
 51
301.817
  0
ARC
  8
APS_GEOMETRY
 10
7186.458
 20
125.673
 40
0.273
 50
116.565
 51
149.078
  0
ARC
  8
APS_GEOMETRY
 10
7186.81
 20
125.462
 40
0.683
 50
149.078
 51
169.469
  0
ARC
  8
APS_GEOMETRY
 10
7187.56
 20
125.323
 40
1.447
 50
169.469
 51
174.598
  0
ARC
  8
APS_GEOMETRY
 10
7191.427
 20
124.957
 40
5.33
 50
174.598
 51
177.269
  0
ARC
  8
APS_GEOMETRY
 10
7194.827
 20
124.795
 40
8.734
 50
177.269
 51
178.901
  0
ARC
  8
APS_GEOMETRY
 10
7205.357
 20
124.593
 40
19.267
 50
178.901
 51
180.0
  0
ARC
  8
APS_GEOMETRY
 10
7226.756
 20
124.593
 40
40.666
 50
180.0
 51
180.88
  0
ARC
  8
APS_GEOMETRY
 10
7201.704
 20
124.208
 40
15.611
 50
180.88
 51
182.3
  0
ARC
  8
APS_GEOMETRY
 10
7194.382
 20
123.914
 40
8.282
 50
182.3
 51
184.974
  0
ARC
  8
APS_GEOMETRY
 10
7187.4
 20
123.306
 40
1.274
 50
184.974
 51
191.793
  0
ARC
  8
APS_GEOMETRY
 10
7186.589
 20
123.151
 40
0.448
 50
193.57
 51
205.787
  0
ARC
  8
APS_GEOMETRY
 10
7186.387
 20
123.054
 40
0.224
 50
205.787
 51
223.091
  0
ARC
  8
APS_GEOMETRY
 10
7186.438
 20
123.102
 40
0.294
 50
223.091
 51
236.441
  0
ARC
  8
APS_GEOMETRY
 10
7186.866
 20
123.747
 40
1.069
 50
236.441
 51
243.435
  0
ARC
  8
APS_GEOMETRY
 10
7186.211
 20
122.4
 40
0.429
 50
37.185
 51
65.556
  0
ARC
  8
APS_GEOMETRY
 10
7186.35
 20
122.506
 40
0.254
 50
0.0
 51
37.185
  0
ARC
  8
APS_GEOMETRY
 10
7186.343
 20
122.506
 40
0.261
 50
312.039
 51
360.0
  0
ARC
  8
APS_GEOMETRY
 10
7186.032
 20
122.851
 40
0.726
 50
283.815
 51
312.039
  0
ARC
  8
APS_GEOMETRY
 10
7185.518
 20
124.982
 40
2.917
 50
279.273
 51
283.627
  0
ARC
  8
APS_GEOMETRY
 10
7185.312
 20
126.24
 40
4.193
 50
275.641
 51
279.273
  0
ARC
  8
APS_GEOMETRY
 10
7185.234
 20
127.036
 40
4.992
 50
272.588
 51
275.641
  0
ARC
  8
APS_GEOMETRY
 10
7185.145
 20
128.988
 40
6.946
 50
270.0
 51
272.588
  0
ARC
  8
APS_GEOMETRY
 10
7185.145
 20
126.231
 40
4.189
 50
262.774
 51
270.0
  0
ARC
  8
APS_GEOMETRY
 10
7184.768
 20
123.253
 40
1.187
 50
249.175
 51
262.774
  0
ARC
  8
APS_GEOMETRY
 10
7184.53
 20
122.629
 40
0.519
 50
221.23
 51
249.175
  0
ARC
  8
APS_GEOMETRY
 10
7184.324
 20
122.447
 40
0.244
 50
180.0
 51
221.23
  0
ARC
  8
APS_GEOMETRY
 10
7184.283
 20
122.447
 40
0.204
 50
142.696
 51
180.0
  0
ARC
  8
APS_GEOMETRY
 10
7184.606
 20
122.202
 40
0.609
 50
121.357
 51
142.696
  0
ARC
  8
APS_GEOMETRY
 10
7184.061
 20
123.094
 40
0.435
 50
301.477
 51
324.728
  0
ARC
  8
APS_GEOMETRY
 10
7184.119
 20
123.052
 40
0.364
 50
324.728
 51
350.181
  0
ARC
  8
APS_GEOMETRY
 10
7182.295
 20
123.354
 40
2.213
 50
350.538
 51
355.423
  0
ARC
  8
APS_GEOMETRY
 10
7174.8
 20
123.954
 40
9.732
 50
355.423
 51
357.752
  0
ARC
  8
APS_GEOMETRY
 10
7167.841
 20
124.227
 40
16.697
 50
357.752
 51
359.111
  0
ARC
  8
APS_GEOMETRY
 10
7145.566
 20
124.573
 40
38.974
 50
359.111
 51
0.0
  0
ARC
  8
APS_GEOMETRY
 10
7171.018
 20
124.573
 40
13.522
 50
0.0
 51
1.773
  0
ARC
  8
APS_GEOMETRY
 10
7178.954
 20
124.819
 40
5.583
 50
1.773
 51
4.532
  0
ARC
  8
APS_GEOMETRY
 10
7181.366
 20
125.01
 40
3.163
 50
4.532
 51
9.384
  0
ARC
  8
APS_GEOMETRY
 10
7183.815
 20
125.415
 40
0.68
 50
9.384
 51
19.855
  0
ARC
  8
APS_GEOMETRY
 10
7184.14
 20
125.538
 40
0.334
 50
18.853
 51
42.158
  0
ARC
  8
APS_GEOMETRY
 10
7183.862
 20
125.286
 40
0.708
 50
42.158
 51
58.092
  0
ARC
  8
APS_GEOMETRY
 10
7185.085
 20
127.176
 40
1.543
 50
230.711
 51
236.634
  0
ARC
  8
APS_GEOMETRY
 10
7184.317
 20
126.237
 40
0.33
 50
217.875
 51
230.711
  0
ARC
  8
APS_GEOMETRY
 10
7184.211
 20
126.155
 40
0.196
 50
196.928
 51
217.875
  0
ARC
  8
APS_GEOMETRY
 10
7184.31
 20
126.185
 40
0.299
 50
180.0
 51
196.928
  0
ARC
  8
APS_GEOMETRY
 10
7184.245
 20
126.185
 40
0.235
 50
148.791
 51
180.0
  0
ARC
  8
APS_GEOMETRY
 10
7184.307
 20
126.148
 40
0.307
 50
121.569
 51
148.791
  0
ARC
  8
APS_GEOMETRY
 10
7184.417
 20
125.968
 40
0.518
 50
112.806
 51
121.569
  0
ARC
  8
APS_GEOMETRY
 10
7184.716
 20
125.258
 40
1.289
 50
107.254
 51
112.806
  0
ARC
  8
APS_GEOMETRY
 10
7184.899
 20
124.669
 40
1.905
 50
103.487
 51
107.254
  0
ARC
  8
APS_GEOMETRY
 10
7185.318
 20
122.921
 40
3.702
 50
100.784
 51
103.487
  0
ARC
  8
APS_GEOMETRY
 10
7185.449
 20
122.438
 40
4.202
 50
95.643
 51
101.31
  0
ARC
  8
APS_GEOMETRY
 10
7185.453
 20
122.404
 40
4.236
 50
90.0
 51
95.643
  0
ARC
  8
APS_GEOMETRY
 10
7189.52
 20
124.537
 40
2.126
 50
77.257
 51
90.0
  0
ARC
  8
APS_GEOMETRY
 10
7189.498
 20
124.441
 40
2.224
 50
64.799
 51
77.257
  0
ARC
  8
APS_GEOMETRY
 10
7191.33
 20
128.341
 40
2.084
 50
244.885
 51
251.175
  0
ARC
  8
APS_GEOMETRY
 10
7190.733
 20
126.59
 40
0.235
 50
251.175
 51
270.0
  0
ARC
  8
APS_GEOMETRY
 10
7190.733
 20
126.736
 40
0.381
 50
270.0
 51
278.82
  0
ARC
  8
APS_GEOMETRY
 10
7190.487
 20
128.321
 40
1.984
 50
278.82
 51
282.68
  0
ARC
  8
APS_GEOMETRY
 10
7191.002
 20
126.043
 40
0.351
 50
95.906
 51
102.995
  0
ARC
  8
APS_GEOMETRY
 10
7191.018
 20
125.889
 40
0.506
 50
90.0
 51
95.906
  0
ARC
  8
APS_GEOMETRY
 10
7191.018
 20
126.059
 40
0.336
 50
62.447
 51
90.0
  0
ARC
  8
APS_GEOMETRY
 10
7190.958
 20
125.945
 40
0.465
 50
39.094
 51
62.447
  0
ARC
  8
APS_GEOMETRY
 10
7190.335
 20
125.423
 40
1.277
 50
18.435
 51
39.611
  0
ARC
  8
APS_GEOMETRY
 10
7189.952
 20
125.296
 40
1.681
 50
360.0
 51
18.435
  0
ARC
  8
APS_GEOMETRY
 10
7190.799
 20
125.296
 40
0.833
 50
334.877
 51
360.0
  0
ARC
  8
APS_GEOMETRY
 10
7191.05
 20
125.178
 40
0.557
 50
304.007
 51
334.877
  0
ARC
  8
APS_GEOMETRY
 10
7191.046
 20
125.19
 40
0.569
 50
286.39
 51
303.69
  0
ARC
  8
APS_GEOMETRY
 10
7191.027
 20
125.252
 40
0.633
 50
270.0
 51
286.39
  0
ARC
  8
APS_GEOMETRY
 10
7191.027
 20
125.245
 40
0.626
 50
255.155
 51
270.0
  0
ARC
  8
APS_GEOMETRY
 10
7190.959
 20
124.986
 40
0.358
 50
235.491
 51
255.155
  0
ARC
  8
APS_GEOMETRY
 10
7190.993
 20
125.036
 40
0.419
 50
218.48
 51
235.491
  0
ARC
  8
APS_GEOMETRY
 10
7191.555
 20
125.483
 40
1.137
 50
208.179
 51
218.48
  0
ARC
  8
APS_GEOMETRY
 10
7185.793
 20
122.355
 40
5.42
 50
28.56
 51
31.664
  0
ARC
  8
APS_GEOMETRY
 10
7189.314
 20
124.527
 40
1.283
 50
31.664
 51
38.047
  0
ARC
  8
APS_GEOMETRY
 10
7189.57
 20
124.727
 40
0.958
 50
38.047
 51
46.56
  0
ARC
  8
APS_GEOMETRY
 10
7189.437
 20
124.586
 40
1.151
 50
46.56
 51
54.324
  0
ARC
  8
APS_GEOMETRY
 10
7189.36
 20
124.454
 40
1.303
 50
54.968
 51
71.48
  0
ARC
  8
APS_GEOMETRY
 10
7189.445
 20
124.706
 40
1.038
 50
71.48
 51
90.0
  0
ARC
  8
APS_GEOMETRY
 10
7189.445
 20
125.019
 40
0.725
 50
90.0
 51
114.63
  0
ARC
  8
APS_GEOMETRY
 10
7189.408
 20
125.098
 40
0.638
 50
114.63
 51
140.921
  0
ARC
  8
APS_GEOMETRY
 10
7189.516
 20
125.011
 40
0.776
 50
140.921
 51
163.13
  0
ARC
  8
APS_GEOMETRY
 10
7190.054
 20
124.848
 40
1.338
 50
163.13
 51
180.0
  0
ARC
  8
APS_GEOMETRY
 10
7190.751
 20
124.848
 40
2.036
 50
180.0
 51
195.44
  0
ARC
  8
APS_GEOMETRY
 10
7190.645
 20
124.819
 40
1.926
 50
195.44
 51
211.316
  0
ARC
  8
APS_GEOMETRY
 10
7190.136
 20
124.52
 40
1.336
 50
211.708
 51
240.457
  0
ARC
  8
APS_GEOMETRY
 10
7190.102
 20
124.459
 40
1.266
 50
240.457
 51
270.0
  0
ARC
  8
APS_GEOMETRY
 10
7190.102
 20
124.768
 40
1.575
 50
270.0
 51
279.549
  0
ARC
  8
APS_GEOMETRY
 10
7190.082
 20
124.885
 40
1.693
 50
279.549
 51
288.759
  0
ARC
  8
APS_GEOMETRY
 10
7190.165
 20
124.642
 40
1.436
 50
288.759
 51
299.545
  0
ARC
  8
APS_GEOMETRY
 10
7190.496
 20
124.058
 40
0.765
 50
299.545
 51
314.341
  0
ARC
  8
APS_GEOMETRY
 10
7191.519
 20
122.995
 40
0.711
 50
120.141
 51
133.452
  0
ARC
  8
APS_GEOMETRY
 10
7191.234
 20
123.487
 40
0.141
 50
90.0
 51
120.141
  0
ARC
  8
APS_GEOMETRY
 10
7191.234
 20
123.405
 40
0.223
 50
61.952
 51
90.0
  0
ARC
  8
APS_GEOMETRY
 10
7191.2
 20
123.343
 40
0.294
 50
37.569
 51
61.952
  0
ARC
  8
APS_GEOMETRY
 10
7191.138
 20
123.295
 40
0.372
 50
17.665
 51
37.569
  0
ARC
  8
APS_GEOMETRY
 10
7191.044
 20
123.265
 40
0.471
 50
360.0
 51
17.665
  0
ARC
  8
APS_GEOMETRY
 10
7190.807
 20
123.265
 40
0.708
 50
344.932
 51
0.0
  0
ARC
  8
APS_GEOMETRY
 10
7190.177
 20
123.435
 40
1.36
 50
334.075
 51
344.932
  0
ARC
  8
APS_GEOMETRY
 10
7190.157
 20
123.444
 40
1.382
 50
323.374
 51
334.075
  0
ARC
  8
APS_GEOMETRY
 10
7190.563
 20
123.142
 40
0.876
 50
309.92
 51
323.374
  0
ARC
  8
APS_GEOMETRY
 10
7190.97
 20
122.663
 40
0.248
 50
289.026
 51
308.991
  0
ARC
  8
APS_GEOMETRY
 10
7190.536
 20
123.92
 40
1.577
 50
281.143
 51
289.026
  0
ARC
  8
APS_GEOMETRY
 10
7190.976
 20
121.641
 40
0.743
 50
100.437
 51
110.12
  0
ARC
  8
APS_GEOMETRY
 10
7191.558
 20
120.052
 40
2.435
 50
110.12
 51
115.463
  0
ARC
  8
APS_GEOMETRY
 10
7189.48
 20
124.401
 40
2.384
 50
282.94
 51
295.628
  0
ARC
  8
APS_GEOMETRY
 10
7189.5
 20
124.311
 40
2.292
 50
270.0
 51
282.94
  0
ARC
  8
APS_GEOMETRY
 10
7189.5
 20
124.447
 40
2.427
 50
257.307
 51
270.0
  0
ARC
  8
APS_GEOMETRY
 10
7189.603
 20
124.901
 40
2.894
 50
245.686
 51
257.307
  0
ARC
  8
APS_GEOMETRY
 10
7189.346
 20
124.337
 40
2.274
 50
228.801
 51
245.735
  0
ARC
  8
APS_GEOMETRY
 10
7189.35
 20
124.342
 40
2.28
 50
211.891
 51
228.801
  0
ARC
  8
APS_GEOMETRY
 10
7189.485
 20
124.439
 40
2.446
 50
196.728
 51
212.152
  0
ARC
  8
APS_GEOMETRY
 10
7189.136
 20
124.334
 40
2.082
 50
180.0
 51
196.728
  0
ARC
  8
APS_GEOMETRY
 10
7189.187
 20
124.334
 40
2.133
 50
161.184
 51
180.0
  0
ARC
  8
APS_GEOMETRY
 10
7189.324
 20
124.288
 40
2.277
 50
142.98
 51
161.184
  0
ARC
  8
APS_GEOMETRY
 10
7189.43
 20
124.206
 40
2.411
 50
127.824
 51
142.958
  0
ARC
  8
APS_GEOMETRY
 10
7189.605
 20
123.98
 40
2.697
 50
113.52
 51
127.824
  0
ARC
  8
APS_GEOMETRY
 10
7189.548
 20
124.112
 40
2.554
 50
101.927
 51
113.527
  0
ARC
  8
APS_GEOMETRY
 10
7189.52
 20
124.247
 40
2.416
 50
90.0
 51
101.927
  0
ARC
  8
APS_GEOMETRY
 10
7193.975
 20
122.579
 40
4.061
 50
84.71
 51
90.0
  0
ARC
  8
APS_GEOMETRY
 10
7194.049
 20
123.383
 40
3.253
 50
78.799
 51
84.71
  0
ARC
  8
APS_GEOMETRY
 10
7194.531
 20
125.818
 40
0.772
 50
49.783
 51
78.771
  0
ARC
  8
APS_GEOMETRY
 10
7194.853
 20
126.199
 40
0.273
 50
360.0
 51
49.783
  0
ARC
  8
APS_GEOMETRY
 10
7194.824
 20
126.199
 40
0.302
 50
342.759
 51
360.0
  0
ARC
  8
APS_GEOMETRY
 10
7194.981
 20
126.15
 40
0.137
 50
317.045
 51
342.759
  0
ARC
  8
APS_GEOMETRY
 10
7194.905
 20
126.22
 40
0.241
 50
301.817
 51
317.045
  0
ARC
  8
APS_GEOMETRY
 10
7193.78
 20
128.035
 40
2.376
 50
296.98
 51
301.817
  0
ARC
  8
APS_GEOMETRY
 10
7194.98
 20
125.673
 40
0.273
 50
116.565
 51
149.078
  0
ARC
  8
APS_GEOMETRY
 10
7195.332
 20
125.462
 40
0.683
 50
149.078
 51
169.469
  0
ARC
  8
APS_GEOMETRY
 10
7196.082
 20
125.323
 40
1.447
 50
169.469
 51
174.598
  0
ARC
  8
APS_GEOMETRY
 10
7199.949
 20
124.957
 40
5.33
 50
174.598
 51
177.269
  0
ARC
  8
APS_GEOMETRY
 10
7203.348
 20
124.795
 40
8.734
 50
177.269
 51
178.901
  0
ARC
  8
APS_GEOMETRY
 10
7213.879
 20
124.593
 40
19.267
 50
178.901
 51
180.0
  0
ARC
  8
APS_GEOMETRY
 10
7235.278
 20
124.593
 40
40.666
 50
180.0
 51
180.88
  0
ARC
  8
APS_GEOMETRY
 10
7210.226
 20
124.208
 40
15.611
 50
180.88
 51
182.3
  0
ARC
  8
APS_GEOMETRY
 10
7202.904
 20
123.914
 40
8.282
 50
182.3
 51
184.974
  0
ARC
  8
APS_GEOMETRY
 10
7195.921
 20
123.306
 40
1.274
 50
184.974
 51
191.793
  0
ARC
  8
APS_GEOMETRY
 10
7195.11
 20
123.151
 40
0.448
 50
193.57
 51
205.787
  0
ARC
  8
APS_GEOMETRY
 10
7194.909
 20
123.054
 40
0.224
 50
205.787
 51
223.091
  0
ARC
  8
APS_GEOMETRY
 10
7194.96
 20
123.102
 40
0.294
 50
223.091
 51
236.441
  0
ARC
  8
APS_GEOMETRY
 10
7195.388
 20
123.747
 40
1.069
 50
236.441
 51
243.435
  0
ARC
  8
APS_GEOMETRY
 10
7194.732
 20
122.4
 40
0.429
 50
37.185
 51
65.556
  0
ARC
  8
APS_GEOMETRY
 10
7194.872
 20
122.506
 40
0.254
 50
0.0
 51
37.185
  0
ARC
  8
APS_GEOMETRY
 10
7194.865
 20
122.506
 40
0.261
 50
312.039
 51
360.0
  0
ARC
  8
APS_GEOMETRY
 10
7194.554
 20
122.851
 40
0.726
 50
283.815
 51
312.039
  0
ARC
  8
APS_GEOMETRY
 10
7194.04
 20
124.982
 40
2.917
 50
279.273
 51
283.627
  0
ARC
  8
APS_GEOMETRY
 10
7193.834
 20
126.24
 40
4.193
 50
275.641
 51
279.273
  0
ARC
  8
APS_GEOMETRY
 10
7193.756
 20
127.036
 40
4.992
 50
272.588
 51
275.641
  0
ARC
  8
APS_GEOMETRY
 10
7193.667
 20
128.988
 40
6.946
 50
270.0
 51
272.588
  0
ARC
  8
APS_GEOMETRY
 10
7193.667
 20
126.231
 40
4.189
 50
262.774
 51
270.0
  0
ARC
  8
APS_GEOMETRY
 10
7193.29
 20
123.253
 40
1.187
 50
249.175
 51
262.774
  0
ARC
  8
APS_GEOMETRY
 10
7193.052
 20
122.629
 40
0.519
 50
221.23
 51
249.175
  0
ARC
  8
APS_GEOMETRY
 10
7192.845
 20
122.447
 40
0.244
 50
180.0
 51
221.23
  0
ARC
  8
APS_GEOMETRY
 10
7192.805
 20
122.447
 40
0.204
 50
142.696
 51
180.0
  0
ARC
  8
APS_GEOMETRY
 10
7193.127
 20
122.202
 40
0.609
 50
121.357
 51
142.696
  0
ARC
  8
APS_GEOMETRY
 10
7192.583
 20
123.094
 40
0.435
 50
301.477
 51
324.728
  0
ARC
  8
APS_GEOMETRY
 10
7192.641
 20
123.052
 40
0.364
 50
324.728
 51
350.181
  0
ARC
  8
APS_GEOMETRY
 10
7190.817
 20
123.354
 40
2.213
 50
350.538
 51
355.423
  0
ARC
  8
APS_GEOMETRY
 10
7183.322
 20
123.954
 40
9.732
 50
355.423
 51
357.752
  0
ARC
  8
APS_GEOMETRY
 10
7176.363
 20
124.227
 40
16.697
 50
357.752
 51
359.111
  0
ARC
  8
APS_GEOMETRY
 10
7154.088
 20
124.573
 40
38.974
 50
359.111
 51
0.0
  0
ARC
  8
APS_GEOMETRY
 10
7179.54
 20
124.573
 40
13.522
 50
0.0
 51
1.773
  0
ARC
  8
APS_GEOMETRY
 10
7187.476
 20
124.819
 40
5.583
 50
1.773
 51
4.532
  0
ARC
  8
APS_GEOMETRY
 10
7189.888
 20
125.01
 40
3.163
 50
4.532
 51
9.384
  0
ARC
  8
APS_GEOMETRY
 10
7192.337
 20
125.415
 40
0.68
 50
9.384
 51
19.855
  0
ARC
  8
APS_GEOMETRY
 10
7192.662
 20
125.538
 40
0.334
 50
18.853
 51
42.158
  0
ARC
  8
APS_GEOMETRY
 10
7192.384
 20
125.286
 40
0.708
 50
42.158
 51
58.092
  0
ARC
  8
APS_GEOMETRY
 10
7193.607
 20
127.176
 40
1.543
 50
230.711
 51
236.634
  0
ARC
  8
APS_GEOMETRY
 10
7192.838
 20
126.237
 40
0.33
 50
217.875
 51
230.711
  0
ARC
  8
APS_GEOMETRY
 10
7192.733
 20
126.155
 40
0.196
 50
196.928
 51
217.875
  0
ARC
  8
APS_GEOMETRY
 10
7192.832
 20
126.185
 40
0.299
 50
180.0
 51
196.928
  0
ARC
  8
APS_GEOMETRY
 10
7192.767
 20
126.185
 40
0.235
 50
148.791
 51
180.0
  0
ARC
  8
APS_GEOMETRY
 10
7192.829
 20
126.148
 40
0.307
 50
121.569
 51
148.791
  0
ARC
  8
APS_GEOMETRY
 10
7192.939
 20
125.968
 40
0.518
 50
112.806
 51
121.569
  0
ARC
  8
APS_GEOMETRY
 10
7193.238
 20
125.258
 40
1.289
 50
107.254
 51
112.806
  0
ARC
  8
APS_GEOMETRY
 10
7193.421
 20
124.669
 40
1.905
 50
103.487
 51
107.254
  0
ARC
  8
APS_GEOMETRY
 10
7193.84
 20
122.921
 40
3.702
 50
100.784
 51
103.487
  0
ARC
  8
APS_GEOMETRY
 10
7193.971
 20
122.438
 40
4.202
 50
95.643
 51
101.31
  0
ARC
  8
APS_GEOMETRY
 10
7193.975
 20
122.404
 40
4.236
 50
90.0
 51
95.643
  0
LINE
  8
APS_GEOMETRY
 10
7200.89
 11
7200.89
 20
123.648
 21
125.368
  0
ARC
  8
APS_GEOMETRY
 10
7196.917
 20
125.368
 40
3.972
 50
0.0
 51
2.404
  0
ARC
  8
APS_GEOMETRY
 10
7199.269
 20
125.467
 40
1.618
 50
2.404
 51
6.17
  0
ARC
  8
APS_GEOMETRY
 10
7199.974
 20
125.543
 40
0.909
 50
6.17
 51
12.824
  0
ARC
  8
APS_GEOMETRY
 10
7200.664
 20
125.7
 40
0.202
 50
12.824
 51
26.98
  0
ARC
  8
APS_GEOMETRY
 10
7200.696
 20
125.716
 40
0.166
 50
26.98
 51
59.65
  0
ARC
  8
APS_GEOMETRY
 10
7200.392
 20
125.197
 40
0.767
 50
59.65
 51
74.667
  0
ARC
  8
APS_GEOMETRY
 10
7200.743
 20
126.447
 40
0.531
 50
225.0
 51
253.887
  0
ARC
  8
APS_GEOMETRY
 10
7200.527
 20
126.231
 40
0.226
 50
180.0
 51
225.0
  0
ARC
  8
APS_GEOMETRY
 10
7200.568
 20
126.231
 40
0.267
 50
151.157
 51
180.0
  0
ARC
  8
APS_GEOMETRY
 10
7200.567
 20
126.232
 40
0.266
 50
122.276
 51
151.157
  0
ARC
  8
APS_GEOMETRY
 10
7200.644
 20
126.111
 40
0.41
 50
102.308
 51
122.276
  0
ARC
  8
APS_GEOMETRY
 10
7200.785
 20
125.464
 40
1.071
 50
90.0
 51
102.308
  0
ARC
  8
APS_GEOMETRY
 10
7200.785
 20
124.219
 40
2.317
 50
88.989
 51
90.0
  0
ARC
  8
APS_GEOMETRY
 10
7200.59
 20
113.184
 40
13.353
 50
88.568
 51
88.989
  0
ARC
  8
APS_GEOMETRY
 10
7200.315
 20
102.184
 40
24.357
 50
88.337
 51
88.568
  0
ARC
  8
APS_GEOMETRY
 10
7199.249
 20
65.472
 40
61.084
 50
88.191
 51
88.337
  0
LINE
  8
APS_GEOMETRY
 10
7201.177
 11
7201.37
 20
126.526
 21
126.526
  0
ARC
  8
APS_GEOMETRY
 10
7200.722
 20
234.121
 40
107.597
 50
270.345
 51
270.49
  0
ARC
  8
APS_GEOMETRY
 10
7201.326
 20
163.459
 40
36.933
 50
270.49
 51
270.736
  0
ARC
  8
APS_GEOMETRY
 10
7201.574
 20
144.172
 40
17.645
 50
270.736
 51
271.253
  0
ARC
  8
APS_GEOMETRY
 10
7201.927
 20
128.051
 40
1.519
 50
271.253
 51
273.013
  0
ARC
  8
APS_GEOMETRY
 10
7201.912
 20
128.329
 40
1.798
 50
273.013
 51
274.5
  0
ARC
  8
APS_GEOMETRY
 10
7200.246
 20
149.495
 40
23.029
 50
274.5
 51
274.915
  0
LINE
  8
APS_GEOMETRY
 10
7202.219
 11
7202.416
 20
126.551
 21
126.568
  0
LINE
  8
APS_GEOMETRY
 10
7202.416
 11
7202.672
 20
126.568
 21
126.591
  0
ARC
  8
APS_GEOMETRY
 10
7203.093
 20
122.519
 40
4.094
 50
93.24
 51
95.906
  0
ARC
  8
APS_GEOMETRY
 10
7203.019
 20
123.837
 40
2.774
 50
90.0
 51
93.24
  0
ARC
  8
APS_GEOMETRY
 10
7203.019
 20
124.255
 40
2.355
 50
77.12
 51
90.0
  0
ARC
  8
APS_GEOMETRY
 10
7203.143
 20
124.798
 40
1.799
 50
62.371
 51
77.12
  0
ARC
  8
APS_GEOMETRY
 10
7203.353
 20
125.192
 40
1.352
 50
31.215
 51
62.517
  0
ARC
  8
APS_GEOMETRY
 10
7203.346
 20
125.188
 40
1.36
 50
360.0
 51
31.215
  0
ARC
  8
APS_GEOMETRY
 10
7203.31
 20
125.188
 40
1.396
 50
334.496
 51
360.0
  0
ARC
  8
APS_GEOMETRY
 10
7203.379
 20
125.155
 40
1.32
 50
308.254
 51
334.496
  0
ARC
  8
APS_GEOMETRY
 10
7203.169
 20
125.432
 40
1.667
 50
287.855
 51
308.034
  0
ARC
  8
APS_GEOMETRY
 10
7203.028
 20
125.867
 40
2.125
 50
270.0
 51
287.855
  0
ARC
  8
APS_GEOMETRY
 10
7203.028
 20
126.962
 40
3.22
 50
266.918
 51
270.0
  0
ARC
  8
APS_GEOMETRY
 10
7203.224
 20
130.592
 40
6.855
 50
264.806
 51
266.918
  0
ARC
  8
APS_GEOMETRY
 10
7201.917
 20
114.381
 40
9.409
 50
85.815
 51
86.634
  0
ARC
  8
APS_GEOMETRY
 10
7202.436
 20
123.219
 40
0.556
 50
86.634
 51
90.0
  0
ARC
  8
APS_GEOMETRY
 10
7202.436
 20
123.693
 40
0.082
 50
90.0
 51
139.686
  0
ARC
  8
APS_GEOMETRY
 10
7202.467
 20
123.667
 40
0.122
 50
139.686
 51
180.0
  0
LINE
  8
APS_GEOMETRY
 10
7202.345
 11
7202.345
 20
123.667
 21
123.648
  0
LINE
  8
APS_GEOMETRY
 10
7202.345
 11
7202.368
 20
123.648
 21
123.111
  0
ARC
  8
APS_GEOMETRY
 10
7203.143
 20
123.144
 40
0.776
 50
182.386
 51
193.753
  0
ARC
  8
APS_GEOMETRY
 10
7202.643
 20
123.021
 40
0.261
 50
193.753
 51
213.408
  0
ARC
  8
APS_GEOMETRY
 10
7202.649
 20
123.025
 40
0.268
 50
213.408
 51
232.628
  0
ARC
  8
APS_GEOMETRY
 10
7203.1
 20
123.616
 40
1.011
 50
232.628
 51
242.488
  0
ARC
  8
APS_GEOMETRY
 10
7202.347
 20
122.189
 40
0.602
 50
40.539
 51
61.699
  0
ARC
  8
APS_GEOMETRY
 10
7202.676
 20
122.47
 40
0.169
 50
360.0
 51
40.539
  0
ARC
  8
APS_GEOMETRY
 10
7202.618
 20
122.47
 40
0.227
 50
315.297
 51
360.0
  0
ARC
  8
APS_GEOMETRY
 10
7202.311
 20
122.774
 40
0.659
 50
289.502
 51
315.297
  0
ARC
  8
APS_GEOMETRY
 10
7202.086
 20
123.409
 40
1.333
 50
282.372
 51
289.502
  0
ARC
  8
APS_GEOMETRY
 10
7201.85
 20
124.486
 40
2.435
 50
277.099
 51
282.372
  0
ARC
  8
APS_GEOMETRY
 10
7201.753
 20
125.266
 40
3.221
 50
273.104
 51
277.099
  0
ARC
  8
APS_GEOMETRY
 10
7201.638
 20
127.378
 40
5.336
 50
270.0
 51
273.104
  0
ARC
  8
APS_GEOMETRY
 10
7201.638
 20
127.314
 40
5.272
 50
263.473
 51
270.0
  0
ARC
  8
APS_GEOMETRY
 10
7201.205
 20
123.527
 40
1.461
 50
251.056
 51
263.473
  0
ARC
  8
APS_GEOMETRY
 10
7200.927
 20
122.717
 40
0.604
 50
224.161
 51
251.056
  0
ARC
  8
APS_GEOMETRY
 10
7200.66
 20
122.457
 40
0.231
 50
180.0
 51
224.161
  0
ARC
  8
APS_GEOMETRY
 10
7200.708
 20
122.457
 40
0.279
 50
160.821
 51
180.0
  0
ARC
  8
APS_GEOMETRY
 10
7200.59
 20
122.498
 40
0.155
 50
135.0
 51
160.821
  0
ARC
  8
APS_GEOMETRY
 10
7200.701
 20
122.387
 40
0.312
 50
121.522
 51
135.0
  0
ARC
  8
APS_GEOMETRY
 10
7201.95
 20
120.352
 40
2.7
 50
116.952
 51
121.522
  0
ARC
  8
APS_GEOMETRY
 10
7200.586
 20
123.023
 40
0.299
 50
297.824
 51
321.605
  0
ARC
  8
APS_GEOMETRY
 10
7200.655
 20
122.968
 40
0.211
 50
321.605
 51
349.992
  0
ARC
  8
APS_GEOMETRY
 10
7200.335
 20
123.025
 40
0.536
 50
349.992
 51
356.014
  0
ARC
  8
APS_GEOMETRY
 10
7195.469
 20
123.364
 40
5.414
 50
356.014
 51
357.908
  0
ARC
  8
APS_GEOMETRY
 10
7189.789
 20
123.571
 40
11.098
 50
357.908
 51
358.833
  0
ARC
  8
APS_GEOMETRY
 10
7169.249
 20
123.99
 40
31.642
 50
358.833
 51
359.381
  0
LINE
  8
APS_GEOMETRY
 10
7202.368
 11
7202.368
 20
125.783
 21
124.671
  0
ARC
  8
APS_GEOMETRY
 10
7202.705
 20
124.671
 40
0.337
 50
180.0
 51
199.885
  0
ARC
  8
APS_GEOMETRY
 10
7202.453
 20
124.58
 40
0.069
 50
199.885
 51
244.799
  0
ARC
  8
APS_GEOMETRY
 10
7202.598
 20
124.879
 40
0.401
 50
244.231
 51
258.996
  0
ARC
  8
APS_GEOMETRY
 10
7202.659
 20
125.193
 40
0.721
 50
258.996
 51
270.0
  0
ARC
  8
APS_GEOMETRY
 10
7202.659
 20
125.117
 40
0.645
 50
270.0
 51
288.435
  0
ARC
  8
APS_GEOMETRY
 10
7202.705
 20
124.978
 40
0.499
 50
288.435
 51
309.428
  0
ARC
  8
APS_GEOMETRY
 10
7202.722
 20
124.961
 40
0.475
 50
309.193
 51
339.939
  0
ARC
  8
APS_GEOMETRY
 10
7202.135
 20
125.175
 40
1.099
 50
339.939
 51
0.0
  0
ARC
  8
APS_GEOMETRY
 10
7202.2
 20
125.175
 40
1.035
 50
360.0
 51
22.011
  0
ARC
  8
APS_GEOMETRY
 10
7202.658
 20
125.36
 40
0.54
 50
22.011
 51
52.651
  0
ARC
  8
APS_GEOMETRY
 10
7202.651
 20
125.355
 40
0.548
 50
52.374
 51
72.309
  0
ARC
  8
APS_GEOMETRY
 10
7202.606
 20
125.216
 40
0.695
 50
72.309
 51
90.0
  0
ARC
  8
APS_GEOMETRY
 10
7202.606
 20
125.506
 40
0.405
 50
90.0
 51
118.113
  0
ARC
  8
APS_GEOMETRY
 10
7202.458
 20
125.783
 40
0.09
 50
118.113
 51
180.0
  0
ARC
  8
APS_GEOMETRY
 10
7207.642
 20
124.085
 40
2.578
 50
71.91
 51
90.0
  0
ARC
  8
APS_GEOMETRY
 10
7207.741
 20
124.39
 40
2.257
 50
52.561
 51
71.91
  0
ARC
  8
APS_GEOMETRY
 10
7207.715
 20
124.383
 40
2.279
 50
38.846
 51
52.156
  0
ARC
  8
APS_GEOMETRY
 10
7207.358
 20
124.095
 40
2.737
 50
26.707
 51
38.846
  0
ARC
  8
APS_GEOMETRY
 10
7207.429
 20
124.153
 40
2.648
 50
13.868
 51
26.278
  0
ARC
  8
APS_GEOMETRY
 10
7207.939
 20
124.279
 40
2.123
 50
360.0
 51
13.868
  0
ARC
  8
APS_GEOMETRY
 10
7207.972
 20
124.279
 40
2.09
 50
339.712
 51
360.0
  0
ARC
  8
APS_GEOMETRY
 10
7207.854
 20
124.322
 40
2.215
 50
320.013
 51
339.712
  0
ARC
  8
APS_GEOMETRY
 10
7207.835
 20
124.333
 40
2.237
 50
303.344
 51
320.123
  0
ARC
  8
APS_GEOMETRY
 10
7207.605
 20
124.682
 40
2.655
 50
287.949
 51
303.344
  0
ARC
  8
APS_GEOMETRY
 10
7207.53
 20
124.944
 40
2.927
 50
279.039
 51
287.776
  0
ARC
  8
APS_GEOMETRY
 10
7207.56
 20
124.754
 40
2.735
 50
270.0
 51
279.039
  0
ARC
  8
APS_GEOMETRY
 10
7207.56
 20
124.62
 40
2.601
 50
257.728
 51
270.0
  0
ARC
  8
APS_GEOMETRY
 10
7207.564
 20
124.639
 40
2.62
 50
245.501
 51
257.728
  0
ARC
  8
APS_GEOMETRY
 10
7207.417
 20
124.317
 40
2.266
 50
228.665
 51
245.511
  0
ARC
  8
APS_GEOMETRY
 10
7207.368
 20
124.261
 40
2.192
 50
211.535
 51
228.665
  0
ARC
  8
APS_GEOMETRY
 10
7207.432
 20
124.308
 40
2.271
 50
195.642
 51
211.701
  0
ARC
  8
APS_GEOMETRY
 10
7207.549
 20
124.341
 40
2.393
 50
180.0
 51
195.642
  0
ARC
  8
APS_GEOMETRY
 10
7207.574
 20
124.341
 40
2.418
 50
162.181
 51
180.0
  0
ARC
  8
APS_GEOMETRY
 10
7207.354
 20
124.412
 40
2.187
 50
143.434
 51
162.181
  0
ARC
  8
APS_GEOMETRY
 10
7207.324
 20
124.436
 40
2.148
 50
126.384
 51
143.471
  0
ARC
  8
APS_GEOMETRY
 10
7207.527
 20
124.16
 40
2.491
 50
110.525
 51
126.384
  0
ARC
  8
APS_GEOMETRY
 10
7207.517
 20
124.235
 40
2.418
 50
99.77
 51
110.925
  0
ARC
  8
APS_GEOMETRY
 10
7207.642
 20
123.513
 40
3.15
 50
90.0
 51
99.77
  0
ARC
  8
APS_GEOMETRY
 10
7207.331
 20
125.244
 40
0.481
 50
90.0
 51
119.604
  0
ARC
  8
APS_GEOMETRY
 10
7207.373
 20
125.17
 40
0.566
 50
119.604
 51
146.842
  0
ARC
  8
APS_GEOMETRY
 10
7207.458
 20
125.1
 40
0.675
 50
145.84
 51
164.055
  0
ARC
  8
APS_GEOMETRY
 10
7207.654
 20
125.044
 40
0.879
 50
164.055
 51
180.0
  0
ARC
  8
APS_GEOMETRY
 10
7208.88
 20
125.044
 40
2.105
 50
180.0
 51
189.977
  0
ARC
  8
APS_GEOMETRY
 10
7210.745
 20
125.372
 40
3.999
 50
189.977
 51
197.211
  0
ARC
  8
APS_GEOMETRY
 10
7211.153
 20
125.499
 40
4.426
 50
197.211
 51
203.76
  0
ARC
  8
APS_GEOMETRY
 10
7210.137
 20
125.051
 40
3.316
 50
203.76
 51
211.329
  0
ARC
  8
APS_GEOMETRY
 10
7208.05
 20
123.799
 40
0.882
 50
212.32
 51
224.441
  0
ARC
  8
APS_GEOMETRY
 10
7207.965
 20
123.715
 40
0.762
 50
224.441
 51
237.484
  0
ARC
  8
APS_GEOMETRY
 10
7207.909
 20
123.628
 40
0.66
 50
237.484
 51
252.416
  0
ARC
  8
APS_GEOMETRY
 10
7207.854
 20
123.454
 40
0.477
 50
252.416
 51
270.0
  0
ARC
  8
APS_GEOMETRY
 10
7207.854
 20
123.51
 40
0.533
 50
270.0
 51
294.953
  0
ARC
  8
APS_GEOMETRY
 10
7207.869
 20
123.478
 40
0.498
 50
294.953
 51
320.793
  0
ARC
  8
APS_GEOMETRY
 10
7207.789
 20
123.544
 40
0.601
 50
320.793
 51
342.777
  0
ARC
  8
APS_GEOMETRY
 10
7207.432
 20
123.654
 40
0.975
 50
342.777
 51
0.0
  0
ARC
  8
APS_GEOMETRY
 10
7205.756
 20
123.654
 40
2.651
 50
0.0
 51
8.499
  0
ARC
  8
APS_GEOMETRY
 10
7204.589
 20
123.48
 40
3.83
 50
8.499
 51
15.566
  0
ARC
  8
APS_GEOMETRY
 10
7204.73
 20
123.519
 40
3.685
 50
15.566
 51
22.909
  0
ARC
  8
APS_GEOMETRY
 10
7205.936
 20
124.029
 40
2.375
 50
22.909
 51
32.057
  0
ARC
  8
APS_GEOMETRY
 10
7206.884
 20
124.626
 40
1.255
 50
31.921
 51
42.51
  0
ARC
  8
APS_GEOMETRY
 10
7207.144
 20
124.864
 40
0.902
 50
42.51
 51
55.008
  0
ARC
  8
APS_GEOMETRY
 10
7207.232
 20
124.99
 40
0.749
 50
55.008
 51
69.88
  0
ARC
  8
APS_GEOMETRY
 10
7207.31
 20
125.205
 40
0.52
 50
69.88
 51
87.754
  0
ARC
  8
APS_GEOMETRY
 10
7212.693
 20
123.743
 40
0.242
 50
90.0
 51
115.837
  0
ARC
  8
APS_GEOMETRY
 10
7212.633
 20
123.866
 40
0.105
 50
115.837
 51
155.462
  0
ARC
  8
APS_GEOMETRY
 10
7212.703
 20
123.834
 40
0.182
 50
155.462
 51
168.366
  0
ARC
  8
APS_GEOMETRY
 10
7213.337
 20
123.703
 40
0.83
 50
168.366
 51
174.395
  0
ARC
  8
APS_GEOMETRY
 10
7213.977
 20
123.64
 40
1.472
 50
174.395
 51
177.813
  0
ARC
  8
APS_GEOMETRY
 10
7216.1
 20
123.559
 40
3.597
 50
177.813
 51
180.0
  0
ARC
  8
APS_GEOMETRY
 10
7217.637
 20
123.559
 40
5.133
 50
180.0
 51
184.62
  0
ARC
  8
APS_GEOMETRY
 10
7214.195
 20
123.281
 40
1.68
 50
184.62
 51
192.7
  0
ARC
  8
APS_GEOMETRY
 10
7212.868
 20
122.99
 40
0.322
 50
194.036
 51
205.821
  0
ARC
  8
APS_GEOMETRY
 10
7212.727
 20
122.922
 40
0.166
 50
205.821
 51
222.274
  0
ARC
  8
APS_GEOMETRY
 10
7212.77
 20
122.961
 40
0.224
 50
222.274
 51
234.605
  0
ARC
  8
APS_GEOMETRY
 10
7213.256
 20
123.645
 40
1.063
 50
234.605
 51
240.255
  0
ARC
  8
APS_GEOMETRY
 10
7212.517
 20
122.338
 40
0.439
 50
34.592
 51
61.189
  0
ARC
  8
APS_GEOMETRY
 10
7212.662
 20
122.438
 40
0.263
 50
360.0
 51
34.592
  0
ARC
  8
APS_GEOMETRY
 10
7212.671
 20
122.438
 40
0.254
 50
318.231
 51
360.0
  0
ARC
  8
APS_GEOMETRY
 10
7212.501
 20
122.589
 40
0.482
 50
288.227
 51
318.231
  0
ARC
  8
APS_GEOMETRY
 10
7212.325
 20
123.124
 40
1.045
 50
280.377
 51
288.227
  0
ARC
  8
APS_GEOMETRY
 10
7212.018
 20
124.8
 40
2.749
 50
275.541
 51
280.377
  0
ARC
  8
APS_GEOMETRY
 10
7211.886
 20
126.164
 40
4.119
 50
272.304
 51
275.541
  0
ARC
  8
APS_GEOMETRY
 10
7211.725
 20
130.168
 40
8.126
 50
270.0
 51
272.304
  0
ARC
  8
APS_GEOMETRY
 10
7211.725
 20
126.822
 40
4.78
 50
262.811
 51
270.0
  0
ARC
  8
APS_GEOMETRY
 10
7211.296
 20
123.421
 40
1.352
 50
249.274
 51
262.811
  0
ARC
  8
APS_GEOMETRY
 10
7211.026
 20
122.708
 40
0.59
 50
221.379
 51
249.274
  0
ARC
  8
APS_GEOMETRY
 10
7210.789
 20
122.5
 40
0.275
 50
180.0
 51
221.379
  0
ARC
  8
APS_GEOMETRY
 10
7210.788
 20
122.5
 40
0.273
 50
164.055
 51
180.0
  0
ARC
  8
APS_GEOMETRY
 10
7210.674
 20
122.532
 40
0.155
 50
142.815
 51
164.055
  0
ARC
  8
APS_GEOMETRY
 10
7210.746
 20
122.478
 40
0.244
 50
129.007
 51
142.815
  0
ARC
  8
APS_GEOMETRY
 10
7211.625
 20
121.393
 40
1.641
 50
123.69
 51
129.007
  0
ARC
  8
APS_GEOMETRY
 10
7210.377
 20
123.27
 40
0.613
 50
303.389
 51
319.022
  0
ARC
  8
APS_GEOMETRY
 10
7210.543
 20
123.126
 40
0.393
 50
319.022
 51
338.575
  0
ARC
  8
APS_GEOMETRY
 10
7210.321
 20
123.213
 40
0.632
 50
338.575
 51
351.049
  0
ARC
  8
APS_GEOMETRY
 10
7207.64
 20
123.635
 40
3.345
 50
351.049
 51
356.46
  0
ARC
  8
APS_GEOMETRY
 10
7208.524
 20
123.601
 40
2.461
 50
355.972
 51
358.68
  0
ARC
  8
APS_GEOMETRY
 10
7179.505
 20
124.27
 40
31.488
 50
358.68
 51
359.437
  0
LINE
  8
APS_GEOMETRY
 10
7210.991
 11
7210.995
 20
123.961
 21
124.452
  0
LINE
  8
APS_GEOMETRY
 10
7210.995
 11
7210.996
 20
124.452
 21
125.093
  0
ARC
  8
APS_GEOMETRY
 10
7203.415
 20
125.093
 40
7.581
 50
360.0
 51
1.717
  0
ARC
  8
APS_GEOMETRY
 10
7207.472
 20
125.215
 40
3.522
 50
1.717
 51
4.236
  0
ARC
  8
APS_GEOMETRY
 10
7208.794
 20
125.313
 40
2.196
 50
4.236
 51
8.269
  0
ARC
  8
APS_GEOMETRY
 10
7210.317
 20
125.534
 40
0.657
 50
8.269
 51
15.642
  0
ARC
  8
APS_GEOMETRY
 10
7210.579
 20
125.607
 40
0.385
 50
15.642
 51
39.417
  0
ARC
  8
APS_GEOMETRY
 10
7210.585
 20
125.612
 40
0.378
 50
39.417
 51
63.435
  0
ARC
  8
APS_GEOMETRY
 10
7211.265
 20
127.021
 40
1.187
 50
236.874
 51
244.486
  0
ARC
  8
APS_GEOMETRY
 10
7210.759
 20
126.246
 40
0.261
 50
220.601
 51
236.874
  0
ARC
  8
APS_GEOMETRY
 10
7210.701
 20
126.196
 40
0.185
 50
198.246
 51
220.601
  0
ARC
  8
APS_GEOMETRY
 10
7210.788
 20
126.225
 40
0.276
 50
180.0
 51
198.246
  0
ARC
  8
APS_GEOMETRY
 10
7210.786
 20
126.225
 40
0.275
 50
156.161
 51
180.0
  0
ARC
  8
APS_GEOMETRY
 10
7210.825
 20
126.208
 40
0.317
 50
133.977
 51
156.161
  0
ARC
  8
APS_GEOMETRY
 10
7210.901
 20
126.129
 40
0.427
 50
116.996
 51
133.977
  0
ARC
  8
APS_GEOMETRY
 10
7211.053
 20
125.831
 40
0.761
 50
104.3
 51
116.996
  0
ARC
  8
APS_GEOMETRY
 10
7211.092
 20
125.68
 40
0.916
 50
95.326
 51
104.349
  0
ARC
  8
APS_GEOMETRY
 10
7211.251
 20
123.977
 40
2.627
 50
90.0
 51
95.326
  0
ARC
  8
APS_GEOMETRY
 10
7211.251
 20
125.303
 40
1.301
 50
87.553
 51
90.0
  0
ARC
  8
APS_GEOMETRY
 10
7210.974
 20
118.824
 40
7.786
 50
86.553
 51
87.553
  0
ARC
  8
APS_GEOMETRY
 10
7210.58
 20
112.289
 40
14.332
 50
86.009
 51
86.553
  0
ARC
  8
APS_GEOMETRY
 10
7209.049
 20
90.348
 40
36.327
 50
85.668
 51
86.009
  0
ARC
  8
APS_GEOMETRY
 10
7211.914
 20
128.079
 40
1.513
 50
265.426
 51
268.531
  0
ARC
  8
APS_GEOMETRY
 10
7212.049
 20
133.323
 40
6.759
 50
268.531
 51
270.0
  0
ARC
  8
APS_GEOMETRY
 10
7212.049
 20
131.716
 40
5.151
 50
270.0
 51
271.637
  0
ARC
  8
APS_GEOMETRY
 10
7211.934
 20
135.744
 40
9.181
 50
271.637
 51
272.862
  0
ARC
  8
APS_GEOMETRY
 10
7211.801
 20
138.387
 40
11.827
 50
272.862
 51
273.814
  0
ARC
  8
APS_GEOMETRY
 10
7211.354
 20
145.098
 40
18.553
 50
273.814
 51
274.574
  0
ARC
  8
APS_GEOMETRY
 10
7214.16
 20
108.599
 40
18.054
 50
93.72
 51
94.214
  0
ARC
  8
APS_GEOMETRY
 10
7213.561
 20
117.81
 40
8.823
 50
93.013
 51
93.72
  0
ARC
  8
APS_GEOMETRY
 10
7213.397
 20
120.93
 40
5.699
 50
91.918
 51
93.013
  0
ARC
  8
APS_GEOMETRY
 10
7213.268
 20
124.772
 40
1.855
 50
90.0
 51
91.918
  0
ARC
  8
APS_GEOMETRY
 10
7213.268
 20
124.216
 40
2.411
 50
73.82
 51
90.0
  0
ARC
  8
APS_GEOMETRY
 10
7213.506
 20
125.035
 40
1.558
 50
53.658
 51
73.82
  0
ARC
  8
APS_GEOMETRY
 10
7213.844
 20
125.497
 40
0.986
 50
26.03
 51
53.569
  0
ARC
  8
APS_GEOMETRY
 10
7213.74
 20
125.446
 40
1.101
 50
360.0
 51
26.03
  0
ARC
  8
APS_GEOMETRY
 10
7213.697
 20
125.446
 40
1.144
 50
345.282
 51
360.0
  0
ARC
  8
APS_GEOMETRY
 10
7213.807
 20
125.417
 40
1.03
 50
329.767
 51
345.282
  0
ARC
  8
APS_GEOMETRY
 10
7213.87
 20
125.381
 40
0.958
 50
313.168
 51
329.767
  0
ARC
  8
APS_GEOMETRY
 10
7213.893
 20
125.356
 40
0.925
 50
296.267
 51
313.168
  0
ARC
  8
APS_GEOMETRY
 10
7214.419
 20
124.293
 40
0.262
 50
116.565
 51
139.899
  0
ARC
  8
APS_GEOMETRY
 10
7214.288
 20
124.403
 40
0.091
 50
139.899
 51
180.0
  0
ARC
  8
APS_GEOMETRY
 10
7214.299
 20
124.403
 40
0.101
 50
180.0
 51
226.193
  0
ARC
  8
APS_GEOMETRY
 10
7214.486
 20
124.598
 40
0.372
 50
226.193
 51
249.829
  0
ARC
  8
APS_GEOMETRY
 10
7213.949
 20
123.122
 40
1.199
 50
53.249
 51
70.105
  0
ARC
  8
APS_GEOMETRY
 10
7214.193
 20
123.448
 40
0.792
 50
32.471
 51
53.249
  0
ARC
  8
APS_GEOMETRY
 10
7214.08
 20
123.376
 40
0.926
 50
23.305
 51
32.471
  0
ARC
  8
APS_GEOMETRY
 10
7213.379
 20
123.074
 40
1.69
 50
16.521
 51
23.305
  0
ARC
  8
APS_GEOMETRY
 10
7212.832
 20
122.912
 40
2.26
 50
11.429
 51
16.521
  0
ARC
  8
APS_GEOMETRY
 10
7211.283
 20
122.599
 40
3.84
 50
7.524
 51
11.429
  0
ARC
  8
APS_GEOMETRY
 10
7216.416
 20
123.282
 40
1.338
 50
187.765
 51
196.914
  0
ARC
  8
APS_GEOMETRY
 10
7215.321
 20
122.95
 40
0.194
 50
196.914
 51
221.082
  0
ARC
  8
APS_GEOMETRY
 10
7215.326
 20
122.953
 40
0.2
 50
221.082
 51
244.607
  0
ARC
  8
APS_GEOMETRY
 10
7215.793
 20
123.938
 40
1.29
 50
244.607
 51
253.811
  0
ARC
  8
APS_GEOMETRY
 10
7215.382
 20
122.537
 40
0.17
 50
51.45
 51
72.474
  0
ARC
  8
APS_GEOMETRY
 10
7215.34
 20
122.484
 40
0.238
 50
33.69
 51
51.45
  0
ARC
  8
APS_GEOMETRY
 10
7215.33
 20
122.477
 40
0.25
 50
16.639
 51
33.69
  0
ARC
  8
APS_GEOMETRY
 10
7215.318
 20
122.474
 40
0.262
 50
360.0
 51
16.639
  0
ARC
  8
APS_GEOMETRY
 10
7215.314
 20
122.474
 40
0.266
 50
338.993
 51
360.0
  0
ARC
  8
APS_GEOMETRY
 10
7215.152
 20
122.536
 40
0.44
 50
322.696
 51
338.993
  0
ARC
  8
APS_GEOMETRY
 10
7215.091
 20
122.582
 40
0.516
 50
308.603
 51
322.696
  0
ARC
  8
APS_GEOMETRY
 10
7215.05
 20
122.634
 40
0.583
 50
295.346
 51
308.603
  0
ARC
  8
APS_GEOMETRY
 10
7214.831
 20
123.117
 40
1.113
 50
279.583
 51
294.905
  0
ARC
  8
APS_GEOMETRY
 10
7214.544
 20
124.815
 40
2.835
 50
270.0
 51
279.583
  0
ARC
  8
APS_GEOMETRY
 10
7214.544
 20
124.047
 40
2.067
 50
261.247
 51
270.0
  0
ARC
  8
APS_GEOMETRY
 10
7214.411
 20
123.187
 40
1.197
 50
249.737
 51
261.247
  0
ARC
  8
APS_GEOMETRY
 10
7214.324
 20
122.951
 40
0.946
 50
235.345
 51
249.737
  0
ARC
  8
APS_GEOMETRY
 10
7214.215
 20
122.792
 40
0.752
 50
219.198
 51
235.345
  0
ARC
  8
APS_GEOMETRY
 10
7214.446
 20
122.989
 40
1.056
 50
209.076
 51
219.56
  0
ARC
  8
APS_GEOMETRY
 10
7214.98
 20
123.286
 40
1.667
 50
200.735
 51
209.076
  0
ARC
  8
APS_GEOMETRY
 10
7215.717
 20
123.565
 40
2.455
 50
197.881
 51
200.735
  0
ARC
  8
APS_GEOMETRY
 10
7218.745
 20
124.542
 40
5.637
 50
195.997
 51
197.881
  0
ARC
  8
APS_GEOMETRY
 10
7220.983
 20
125.184
 40
7.966
 50
194.664
 51
195.997
  0
ARC
  8
APS_GEOMETRY
 10
7227.183
 20
126.806
 40
14.374
 50
193.671
 51
194.664
  0
ARC
  8
APS_GEOMETRY
 10
7211.462
 20
122.984
 40
1.805
 50
13.61
 51
23.585
  0
ARC
  8
APS_GEOMETRY
 10
7212.644
 20
123.5
 40
0.515
 50
23.585
 51
42.31
  0
ARC
  8
APS_GEOMETRY
 10
7212.751
 20
123.598
 40
0.371
 50
42.31
 51
67.521
  0
ARC
  8
APS_GEOMETRY
 10
7212.666
 20
123.393
 40
0.592
 50
67.521
 51
87.397
  0
LINE
  8
APS_GEOMETRY
 10
7212.506
 11
7212.471
 20
125.652
 21
124.89
  0
LINE
  8
APS_GEOMETRY
 10
7212.471
 11
7212.471
 20
124.89
 21
124.878
  0
LINE
  8
APS_GEOMETRY
 10
7212.471
 11
7212.471
 20
124.878
 21
124.861
  0
ARC
  8
APS_GEOMETRY
 10
7213.0
 20
124.861
 40
0.529
 50
180.0
 51
192.339
  0
ARC
  8
APS_GEOMETRY
 10
7212.579
 20
124.769
 40
0.099
 50
192.339
 51
221.186
  0
ARC
  8
APS_GEOMETRY
 10
7212.569
 20
124.76
 40
0.085
 50
221.186
 51
253.872
  0
ARC
  8
APS_GEOMETRY
 10
7212.641
 20
125.008
 40
0.343
 50
253.872
 51
270.0
  0
ARC
  8
APS_GEOMETRY
 10
7212.641
 20
125.462
 40
0.797
 50
270.0
 51
289.569
  0
ARC
  8
APS_GEOMETRY
 10
7212.785
 20
125.054
 40
0.364
 50
289.569
 51
318.681
  0
ARC
  8
APS_GEOMETRY
 10
7212.746
 20
125.089
 40
0.417
 50
318.681
 51
344.628
  0
ARC
  8
APS_GEOMETRY
 10
7212.016
 20
125.289
 40
1.174
 50
344.628
 51
0.0
  0
ARC
  8
APS_GEOMETRY
 10
7212.363
 20
125.289
 40
0.827
 50
0.0
 51
35.369
  0
ARC
  8
APS_GEOMETRY
 10
7212.742
 20
125.558
 40
0.362
 50
35.369
 51
90.0
  0
ARC
  8
APS_GEOMETRY
 10
7212.742
 20
125.554
 40
0.366
 50
90.0
 51
108.435
  0
ARC
  8
APS_GEOMETRY
 10
7212.671
 20
125.768
 40
0.141
 50
108.435
 51
138.366
  0
ARC
  8
APS_GEOMETRY
 10
7212.69
 20
125.751
 40
0.167
 50
138.366
 51
164.291
  0
ARC
  8
APS_GEOMETRY
 10
7213.138
 20
125.625
 40
0.632
 50
164.291
 51
177.51
  0
LINE
  8
APS_GEOMETRY
 10
7217.558
 11
7219.281
 20
126.571
 21
126.571
  0
ARC
  8
APS_GEOMETRY
 10
7219.194
 20
129.041
 40
2.471
 50
272.021
 51
278.44
  0
ARC
  8
APS_GEOMETRY
 10
7219.291
 20
128.385
 40
1.808
 50
278.44
 51
285.945
  0
ARC
  8
APS_GEOMETRY
 10
7220.023
 20
125.766
 40
0.912
 50
98.584
 51
104.931
  0
ARC
  8
APS_GEOMETRY
 10
7219.962
 20
126.174
 40
0.499
 50
90.0
 51
98.584
  0
ARC
  8
APS_GEOMETRY
 10
7219.962
 20
126.298
 40
0.375
 50
52.871
 51
90.0
  0
ARC
  8
APS_GEOMETRY
 10
7219.453
 20
125.625
 40
1.218
 50
32.518
 51
52.871
  0
ARC
  8
APS_GEOMETRY
 10
7219.05
 20
125.368
 40
1.696
 50
17.209
 51
32.518
  0
ARC
  8
APS_GEOMETRY
 10
7219.386
 20
125.473
 40
1.345
 50
360.0
 51
17.209
  0
ARC
  8
APS_GEOMETRY
 10
7220.058
 20
125.473
 40
0.672
 50
337.348
 51
360.0
  0
ARC
  8
APS_GEOMETRY
 10
7220.328
 20
125.36
 40
0.379
 50
307.042
 51
337.348
  0
ARC
  8
APS_GEOMETRY
 10
7220.281
 20
125.424
 40
0.459
 50
287.186
 51
306.87
  0
ARC
  8
APS_GEOMETRY
 10
7220.24
 20
125.56
 40
0.601
 50
270.0
 51
287.186
  0
ARC
  8
APS_GEOMETRY
 10
7220.24
 20
125.498
 40
0.539
 50
252.221
 51
270.0
  0
ARC
  8
APS_GEOMETRY
 10
7220.214
 20
125.42
 40
0.457
 50
232.896
 51
252.221
  0
ARC
  8
APS_GEOMETRY
 10
7220.311
 20
125.548
 40
0.618
 50
218.3
 51
232.896
  0
ARC
  8
APS_GEOMETRY
 10
7221.07
 20
126.147
 40
1.584
 50
209.197
 51
218.3
  0
ARC
  8
APS_GEOMETRY
 10
7217.214
 20
124.058
 40
2.801
 50
28.025
 51
32.699
  0
ARC
  8
APS_GEOMETRY
 10
7219.23
 20
125.352
 40
0.406
 50
32.699
 51
45.0
  0
ARC
  8
APS_GEOMETRY
 10
7219.367
 20
125.49
 40
0.212
 50
45.0
 51
67.557
  0
ARC
  8
APS_GEOMETRY
 10
7219.366
 20
125.488
 40
0.214
 50
67.557
 51
90.0
  0
ARC
  8
APS_GEOMETRY
 10
7219.366
 20
125.505
 40
0.197
 50
90.0
 51
120.801
  0
ARC
  8
APS_GEOMETRY
 10
7219.36
 20
125.516
 40
0.184
 50
120.801
 51
152.7
  0
ARC
  8
APS_GEOMETRY
 10
7219.506
 20
125.44
 40
0.348
 50
152.7
 51
171.085
  0
ARC
  8
APS_GEOMETRY
 10
7220.614
 20
125.266
 40
1.471
 50
171.085
 51
180.0
  0
LINE
  8
APS_GEOMETRY
 10
7219.144
 11
7219.144
 20
125.266
 21
123.435
  0
ARC
  8
APS_GEOMETRY
 10
7221.087
 20
123.435
 40
1.943
 50
180.0
 51
188.194
  0
ARC
  8
APS_GEOMETRY
 10
7219.636
 20
123.226
 40
0.477
 50
188.194
 51
204.775
  0
ARC
  8
APS_GEOMETRY
 10
7219.495
 20
123.161
 40
0.322
 50
204.775
 51
228.576
  0
ARC
  8
APS_GEOMETRY
 10
7219.627
 20
123.311
 40
0.522
 50
228.576
 51
247.218
  0
ARC
  8
APS_GEOMETRY
 10
7218.86
 20
121.504
 40
1.442
 50
59.381
 51
66.93
  0
ARC
  8
APS_GEOMETRY
 10
7219.426
 20
122.46
 40
0.33
 50
43.568
 51
59.381
  0
ARC
  8
APS_GEOMETRY
 10
7219.517
 20
122.546
 40
0.205
 50
19.041
 51
43.568
  0
ARC
  8
APS_GEOMETRY
 10
7219.391
 20
122.503
 40
0.338
 50
360.0
 51
19.041
  0
ARC
  8
APS_GEOMETRY
 10
7219.455
 20
122.503
 40
0.275
 50
317.66
 51
360.0
  0
ARC
  8
APS_GEOMETRY
 10
7219.202
 20
122.733
 40
0.616
 50
289.747
 51
317.66
  0
ARC
  8
APS_GEOMETRY
 10
7218.991
 20
123.321
 40
1.241
 50
281.964
 51
289.747
  0
ARC
  8
APS_GEOMETRY
 10
7218.698
 20
124.703
 40
2.653
 50
276.643
 51
281.964
  0
ARC
  8
APS_GEOMETRY
 10
7218.575
 20
125.76
 40
3.718
 50
272.836
 51
276.643
  0
ARC
  8
APS_GEOMETRY
 10
7218.428
 20
128.738
 40
6.699
 50
270.0
 51
272.836
  0
ARC
  8
APS_GEOMETRY
 10
7218.428
 20
130.583
 40
8.544
 50
267.283
 51
270.0
  0
ARC
  8
APS_GEOMETRY
 10
7218.248
 20
126.802
 40
4.759
 50
263.643
 51
267.283
  0
ARC
  8
APS_GEOMETRY
 10
7218.098
 20
125.454
 40
3.403
 50
258.563
 51
263.643
  0
ARC
  8
APS_GEOMETRY
 10
7217.739
 20
123.68
 40
1.593
 50
251.136
 51
258.563
  0
ARC
  8
APS_GEOMETRY
 10
7217.419
 20
122.751
 40
0.61
 50
222.558
 51
251.395
  0
ARC
  8
APS_GEOMETRY
 10
7217.181
 20
122.532
 40
0.287
 50
180.0
 51
222.558
  0
ARC
  8
APS_GEOMETRY
 10
7217.133
 20
122.532
 40
0.239
 50
150.642
 51
180.0
  0
ARC
  8
APS_GEOMETRY
 10
7217.152
 20
122.522
 40
0.261
 50
122.574
 51
150.642
  0
ARC
  8
APS_GEOMETRY
 10
7217.102
 20
122.58
 40
0.185
 50
108.677
 51
119.055
  0
ARC
  8
APS_GEOMETRY
 10
7219.413
 20
115.742
 40
7.404
 50
107.038
 51
108.677
  0
ARC
  8
APS_GEOMETRY
 10
7217.158
 20
123.118
 40
0.31
 50
286.144
 51
308.66
  0
ARC
  8
APS_GEOMETRY
 10
7217.208
 20
123.054
 40
0.229
 50
308.66
 51
334.933
  0
ARC
  8
APS_GEOMETRY
 10
7217.002
 20
123.151
 40
0.457
 50
334.933
 51
348.829
  0
ARC
  8
APS_GEOMETRY
 10
7214.419
 20
123.661
 40
3.089
 50
348.829
 51
354.161
  0
ARC
  8
APS_GEOMETRY
 10
7212.674
 20
123.841
 40
4.844
 50
354.144
 51
355.66
  0
ARC
  8
APS_GEOMETRY
 10
7204.936
 20
124.428
 40
12.604
 50
355.66
 51
356.6
  0
ARC
  8
APS_GEOMETRY
 10
7199.021
 20
124.78
 40
18.529
 50
356.6
 51
357.24
  0
ARC
  8
APS_GEOMETRY
 10
7182.239
 20
125.589
 40
35.331
 50
357.24
 51
357.703
  0
ARC
  8
APS_GEOMETRY
 10
7183.891
 20
125.522
 40
33.678
 50
357.703
 51
358.674
  0
ARC
  8
APS_GEOMETRY
 10
7199.474
 20
125.162
 40
18.09
 50
358.674
 51
0.0
  0
ARC
  8
APS_GEOMETRY
 10
7214.883
 20
125.162
 40
2.681
 50
360.0
 51
6.242
  0
ARC
  8
APS_GEOMETRY
 10
7217.015
 20
125.395
 40
0.536
 50
6.242
 51
20.225
  0
ARC
  8
APS_GEOMETRY
 10
7217.311
 20
125.504
 40
0.221
 50
20.225
 51
50.44
  0
ARC
  8
APS_GEOMETRY
 10
7217.368
 20
125.573
 40
0.131
 50
50.44
 51
90.0
  0
ARC
  8
APS_GEOMETRY
 10
7217.368
 20
125.528
 40
0.176
 50
90.0
 51
126.747
  0
ARC
  8
APS_GEOMETRY
 10
7217.617
 20
125.195
 40
0.592
 50
126.747
 51
146.547
  0
ARC
  8
APS_GEOMETRY
 10
7213.218
 20
128.086
 40
4.671
 50
324.255
 51
326.701
  0
ARC
  8
APS_GEOMETRY
 10
7215.081
 20
126.746
 40
2.377
 50
320.826
 51
324.255
  0
ARC
  8
APS_GEOMETRY
 10
7215.689
 20
126.25
 40
1.592
 50
315.722
 51
320.826
  0
ARC
  8
APS_GEOMETRY
 10
7216.389
 20
125.568
 40
0.615
 50
307.504
 51
315.722
  0
ARC
  8
APS_GEOMETRY
 10
7216.324
 20
125.654
 40
0.723
 50
291.306
 51
307.405
  0
ARC
  8
APS_GEOMETRY
 10
7216.436
 20
125.367
 40
0.415
 50
270.0
 51
291.306
  0
ARC
  8
APS_GEOMETRY
 10
7216.436
 20
125.34
 40
0.388
 50
245.532
 51
270.0
  0
ARC
  8
APS_GEOMETRY
 10
7216.433
 20
125.334
 40
0.381
 50
220.833
 51
245.532
  0
ARC
  8
APS_GEOMETRY
 10
7216.473
 20
125.368
 40
0.433
 50
198.684
 51
220.833
  0
ARC
  8
APS_GEOMETRY
 10
7216.637
 20
125.423
 40
0.606
 50
180.0
 51
198.684
  0
ARC
  8
APS_GEOMETRY
 10
7217.021
 20
125.423
 40
0.991
 50
168.408
 51
180.0
  0
ARC
  8
APS_GEOMETRY
 10
7217.657
 20
125.293
 40
1.639
 50
159.402
 51
168.408
  0
ARC
  8
APS_GEOMETRY
 10
7217.853
 20
125.219
 40
1.849
 50
151.39
 51
159.402
  0
ARC
  8
APS_GEOMETRY
 10
7217.813
 20
125.241
 40
1.803
 50
143.276
 51
151.39
  0
ARC
  8
APS_GEOMETRY
 10
7217.308
 20
125.619
 40
1.173
 50
124.216
 51
143.31
  0
ARC
  8
APS_GEOMETRY
 10
7216.858
 20
126.28
 40
0.373
 50
90.0
 51
124.216
  0
ARC
  8
APS_GEOMETRY
 10
7216.858
 20
126.115
 40
0.538
 50
82.725
 51
90.0
  0
ARC
  8
APS_GEOMETRY
 10
7216.816
 20
125.785
 40
0.871
 50
77.005
 51
82.725
  0
ARC
  8
APS_GEOMETRY
 10
7218.101
 20
131.98
 40
5.456
 50
258.486
 51
260.378
  0
ARC
  8
APS_GEOMETRY
 10
7217.55
 20
128.733
 40
2.163
 50
260.378
 51
263.382
  0
ARC
  8
APS_GEOMETRY
 10
7217.503
 20
128.328
 40
1.755
 50
263.382
 51
267.084
  0
ARC
  8
APS_GEOMETRY
 10
7217.558
 20
129.399
 40
2.827
 50
267.084
 51
270.0
  0
LINE
  8
APS_GEOMETRY
 10
7221.9
 11
7223.581
 20
126.571
 21
126.571
  0
ARC
  8
APS_GEOMETRY
 10
7223.581
 20
147.743
 40
21.172
 50
270.0
 51
270.69
  0
ARC
  8
APS_GEOMETRY
 10
7223.7
 20
137.838
 40
11.266
 50
270.69
 51
271.637
  0
ARC
  8
APS_GEOMETRY
 10
7223.8
 20
134.318
 40
7.745
 50
271.637
 51
273.013
  0
ARC
  8
APS_GEOMETRY
 10
7224.045
 20
129.662
 40
3.082
 50
273.013
 51
275.194
  0
ARC
  8
APS_GEOMETRY
 10
7224.106
 20
128.994
 40
2.411
 50
275.194
 51
280.756
  0
ARC
  8
APS_GEOMETRY
 10
7224.118
 20
128.934
 40
2.35
 50
280.756
 51
286.39
  0
ARC
  8
APS_GEOMETRY
 10
7224.979
 20
125.985
 40
0.722
 50
100.305
 51
105.945
  0
ARC
  8
APS_GEOMETRY
 10
7224.889
 20
126.482
 40
0.217
 50
90.0
 51
100.305
  0
ARC
  8
APS_GEOMETRY
 10
7224.889
 20
126.405
 40
0.294
 50
58.946
 51
90.0
  0
ARC
  8
APS_GEOMETRY
 10
7224.776
 20
126.218
 40
0.512
 50
35.538
 51
58.946
  0
ARC
  8
APS_GEOMETRY
 10
7224.337
 20
125.895
 40
1.057
 50
16.699
 51
35.952
  0
ARC
  8
APS_GEOMETRY
 10
7224.007
 20
125.796
 40
1.401
 50
360.0
 51
16.699
  0
ARC
  8
APS_GEOMETRY
 10
7224.622
 20
125.796
 40
0.786
 50
344.982
 51
360.0
  0
ARC
  8
APS_GEOMETRY
 10
7225.0
 20
125.695
 40
0.396
 50
323.746
 51
344.982
  0
ARC
  8
APS_GEOMETRY
 10
7225.084
 20
125.633
 40
0.292
 50
296.114
 51
323.746
  0
ARC
  8
APS_GEOMETRY
 10
7225.069
 20
125.664
 40
0.326
 50
270.0
 51
296.114
  0
ARC
  8
APS_GEOMETRY
 10
7225.069
 20
125.747
 40
0.408
 50
255.311
 51
270.0
  0
ARC
  8
APS_GEOMETRY
 10
7225.014
 20
125.539
 40
0.193
 50
233.881
 51
255.311
  0
ARC
  8
APS_GEOMETRY
 10
7225.071
 20
125.617
 40
0.291
 50
219.289
 51
233.881
  0
ARC
  8
APS_GEOMETRY
 10
7226.224
 20
126.561
 40
1.78
 50
213.408
 51
219.289
  0
ARC
  8
APS_GEOMETRY
 10
7224.064
 20
125.138
 40
0.806
 50
33.294
 51
51.246
  0
ARC
  8
APS_GEOMETRY
 10
7224.174
 20
125.275
 40
0.631
 50
51.246
 51
71.565
  0
ARC
  8
APS_GEOMETRY
 10
7224.102
 20
125.057
 40
0.86
 50
71.565
 51
79.278
  0
ARC
  8
APS_GEOMETRY
 10
7223.869
 20
123.827
 40
2.112
 50
79.278
 51
84.2
  0
ARC
  8
APS_GEOMETRY
 10
7223.769
 20
122.849
 40
3.095
 50
84.2
 51
87.567
  0
ARC
  8
APS_GEOMETRY
 10
7223.649
 20
120.022
 40
5.925
 50
87.567
 51
90.0
  0
ARC
  8
APS_GEOMETRY
 10
7223.649
 20
124.281
 40
1.666
 50
90.0
 51
96.374
  0
ARC
  8
APS_GEOMETRY
 10
7223.539
 20
125.271
 40
0.67
 50
96.374
 51
106.434
  0
ARC
  8
APS_GEOMETRY
 10
7223.46
 20
125.537
 40
0.392
 50
106.434
 51
123.056
  0
ARC
  8
APS_GEOMETRY
 10
7223.337
 20
125.726
 40
0.167
 50
123.056
 51
148.627
  0
ARC
  8
APS_GEOMETRY
 10
7223.449
 20
125.662
 40
0.296
 50
149.421
 51
165.28
  0
ARC
  8
APS_GEOMETRY
 10
7223.772
 20
125.577
 40
0.63
 50
165.28
 51
176.135
  0
ARC
  8
APS_GEOMETRY
 10
7224.697
 20
125.515
 40
1.556
 50
176.135
 51
178.367
  0
ARC
  8
APS_GEOMETRY
 10
7233.247
 20
125.271
 40
10.11
 50
178.367
 51
179.242
  0
ARC
  8
APS_GEOMETRY
 10
7242.084
 20
125.154
 40
18.948
 50
179.242
 51
179.709
  0
ARC
  8
APS_GEOMETRY
 10
7272.149
 20
125.002
 40
49.013
 50
179.709
 51
180.0
  0
ARC
  8
APS_GEOMETRY
 10
7223.845
 20
125.002
 40
0.709
 50
180.0
 51
195.027
  0
ARC
  8
APS_GEOMETRY
 10
7223.265
 20
124.846
 40
0.109
 50
195.027
 51
234.058
  0
ARC
  8
APS_GEOMETRY
 10
7223.271
 20
124.854
 40
0.118
 50
234.058
 51
253.191
  0
ARC
  8
APS_GEOMETRY
 10
7223.394
 20
125.263
 40
0.546
 50
253.191
 51
262.063
  0
ARC
  8
APS_GEOMETRY
 10
7223.458
 20
125.718
 40
1.005
 50
262.063
 51
266.949
  0
ARC
  8
APS_GEOMETRY
 10
7223.541
 20
127.286
 40
2.575
 50
266.949
 51
270.0
  0
ARC
  8
APS_GEOMETRY
 10
7223.541
 20
125.183
 40
0.472
 50
270.0
 51
286.007
  0
ARC
  8
APS_GEOMETRY
 10
7223.624
 20
124.895
 40
0.172
 50
286.007
 51
312.647
  0
ARC
  8
APS_GEOMETRY
 10
7223.622
 20
124.897
 40
0.175
 50
312.647
 51
338.993
  0
ARC
  8
APS_GEOMETRY
 10
7223.265
 20
125.034
 40
0.558
 50
338.993
 51
353.66
  0
ARC
  8
APS_GEOMETRY
 10
7226.957
 20
124.594
 40
3.16
 50
169.663
 51
173.118
  0
ARC
  8
APS_GEOMETRY
 10
7224.318
 20
125.075
 40
0.478
 50
160.769
 51
169.663
  0
ARC
  8
APS_GEOMETRY
 10
7224.097
 20
125.152
 40
0.244
 50
143.746
 51
160.769
  0
ARC
  8
APS_GEOMETRY
 10
7224.15
 20
125.113
 40
0.31
 50
128.66
 51
143.746
  0
ARC
  8
APS_GEOMETRY
 10
7224.115
 20
125.17
 40
0.243
 50
110.171
 51
130.601
  0
ARC
  8
APS_GEOMETRY
 10
7224.117
 20
125.164
 40
0.249
 50
90.0
 51
110.171
  0
ARC
  8
APS_GEOMETRY
 10
7224.117
 20
125.161
 40
0.253
 50
61.22
 51
90.0
  0
ARC
  8
APS_GEOMETRY
 10
7224.073
 20
125.081
 40
0.344
 50
36.634
 51
61.22
  0
ARC
  8
APS_GEOMETRY
 10
7224.031
 20
125.056
 40
0.392
 50
19.103
 51
35.91
  0
ARC
  8
APS_GEOMETRY
 10
7222.752
 20
124.613
 40
1.746
 50
11.16
 51
19.103
  0
ARC
  8
APS_GEOMETRY
 10
7222.083
 20
124.481
 40
2.428
 50
5.396
 51
11.16
  0
ARC
  8
APS_GEOMETRY
 10
7221.743
 20
124.449
 40
2.769
 50
0.0
 51
5.396
  0
ARC
  8
APS_GEOMETRY
 10
7221.792
 20
124.449
 40
2.721
 50
349.287
 51
0.0
  0
ARC
  8
APS_GEOMETRY
 10
7223.127
 20
124.196
 40
1.362
 50
334.12
 51
349.287
  0
ARC
  8
APS_GEOMETRY
 10
7224.048
 20
123.752
 40
0.34
 50
303.53
 51
333.853
  0
ARC
  8
APS_GEOMETRY
 10
7224.081
 20
123.701
 40
0.279
 50
270.0
 51
303.53
  0
ARC
  8
APS_GEOMETRY
 10
7224.081
 20
123.714
 40
0.292
 50
249.578
 51
270.0
  0
ARC
  8
APS_GEOMETRY
 10
7224.019
 20
123.547
 40
0.114
 50
216.607
 51
249.578
  0
ARC
  8
APS_GEOMETRY
 10
7224.078
 20
123.591
 40
0.188
 50
195.422
 51
216.607
  0
ARC
  8
APS_GEOMETRY
 10
7225.104
 20
123.874
 40
1.253
 50
187.253
 51
195.422
  0
ARC
  8
APS_GEOMETRY
 10
7223.447
 20
123.661
 40
0.418
 50
7.561
 51
49.434
  0
ARC
  8
APS_GEOMETRY
 10
7223.43
 20
123.641
 40
0.444
 50
49.434
 51
90.0
  0
ARC
  8
APS_GEOMETRY
 10
7223.43
 20
123.787
 40
0.299
 50
90.0
 51
115.224
  0
ARC
  8
APS_GEOMETRY
 10
7223.371
 20
123.912
 40
0.16
 50
115.224
 51
149.931
  0
ARC
  8
APS_GEOMETRY
 10
7223.478
 20
123.85
 40
0.284
 50
149.931
 51
171.111
  0
ARC
  8
APS_GEOMETRY
 10
7224.775
 20
123.648
 40
1.596
 50
171.111
 51
180.0
  0
ARC
  8
APS_GEOMETRY
 10
7226.052
 20
123.648
 40
2.874
 50
180.0
 51
183.062
  0
ARC
  8
APS_GEOMETRY
 10
7230.451
 20
123.883
 40
7.279
 50
183.062
 51
184.986
  0
ARC
  8
APS_GEOMETRY
 10
7228.144
 20
123.682
 40
4.963
 50
184.986
 51
187.804
  0
ARC
  8
APS_GEOMETRY
 10
7223.774
 20
123.083
 40
0.552
 50
187.804
 51
196.26
  0
ARC
  8
APS_GEOMETRY
 10
7223.388
 20
122.967
 40
0.15
 50
194.931
 51
230.024
  0
ARC
  8
APS_GEOMETRY
 10
7223.486
 20
123.084
 40
0.302
 50
230.024
 51
254.511
  0
ARC
  8
APS_GEOMETRY
 10
7223.605
 20
123.514
 40
0.748
 50
254.511
 51
265.219
  0
ARC
  8
APS_GEOMETRY
 10
7223.855
 20
126.5
 40
3.746
 50
265.219
 51
270.0
  0
ARC
  8
APS_GEOMETRY
 10
7223.855
 20
126.105
 40
3.35
 50
270.0
 51
274.186
  0
ARC
  8
APS_GEOMETRY
 10
7223.957
 20
124.713
 40
1.954
 50
274.186
 51
279.668
  0
ARC
  8
APS_GEOMETRY
 10
7224.041
 20
124.222
 40
1.456
 50
279.668
 51
286.991
  0
ARC
  8
APS_GEOMETRY
 10
7224.232
 20
123.596
 40
0.802
 50
286.991
 51
296.866
  0
ARC
  8
APS_GEOMETRY
 10
7224.272
 20
123.518
 40
0.714
 50
296.866
 51
318.366
  0
ARC
  8
APS_GEOMETRY
 10
7223.872
 20
123.873
 40
1.249
 50
318.366
 51
334.581
  0
ARC
  8
APS_GEOMETRY
 10
7226.505
 20
122.61
 40
1.671
 50
147.08
 51
154.231
  0
ARC
  8
APS_GEOMETRY
 10
7225.404
 20
123.323
 40
0.36
 50
131.634
 51
147.08
  0
ARC
  8
APS_GEOMETRY
 10
7225.322
 20
123.415
 40
0.236
 50
108.875
 51
131.634
  0
ARC
  8
APS_GEOMETRY
 10
7225.356
 20
123.315
 40
0.342
 50
90.0
 51
108.875
  0
ARC
  8
APS_GEOMETRY
 10
7225.356
 20
123.385
 40
0.273
 50
62.628
 51
90.0
  0
ARC
  8
APS_GEOMETRY
 10
7225.339
 20
123.351
 40
0.31
 50
36.995
 51
62.628
  0
ARC
  8
APS_GEOMETRY
 10
7225.262
 20
123.293
 40
0.407
 50
16.728
 51
36.995
  0
ARC
  8
APS_GEOMETRY
 10
7225.081
 20
123.239
 40
0.596
 50
360.0
 51
16.728
  0
ARC
  8
APS_GEOMETRY
 10
7224.724
 20
123.239
 40
0.953
 50
348.323
 51
360.0
  0
ARC
  8
APS_GEOMETRY
 10
7223.293
 20
123.535
 40
2.414
 50
340.994
 51
348.323
  0
ARC
  8
APS_GEOMETRY
 10
7222.953
 20
123.651
 40
2.773
 50
334.592
 51
340.994
  0
ARC
  8
APS_GEOMETRY
 10
7223.546
 20
123.37
 40
2.117
 50
327.265
 51
334.592
  0
ARC
  8
APS_GEOMETRY
 10
7224.234
 20
122.965
 40
1.32
 50
320.133
 51
325.923
  0
ARC
  8
APS_GEOMETRY
 10
7225.034
 20
122.296
 40
0.277
 50
307.476
 51
320.133
  0
ARC
  8
APS_GEOMETRY
 10
7225.104
 20
122.205
 40
0.162
 50
286.429
 51
307.476
  0
ARC
  8
APS_GEOMETRY
 10
7225.075
 20
122.303
 40
0.265
 50
270.0
 51
286.429
  0
ARC
  8
APS_GEOMETRY
 10
7225.075
 20
122.609
 40
0.57
 50
263.774
 51
270.0
  0
ARC
  8
APS_GEOMETRY
 10
7225.242
 20
124.139
 40
2.109
 50
260.538
 51
263.774
  0
ARC
  8
APS_GEOMETRY
 10
7224.495
 20
119.924
 40
2.171
 50
79.38
 51
84.987
  0
ARC
  8
APS_GEOMETRY
 10
7224.171
 20
116.233
 40
5.877
 50
84.987
 51
88.394
  0
LINE
  8
APS_GEOMETRY
 10
7224.336
 11
7221.563
 20
122.107
 21
122.107
  0
ARC
  8
APS_GEOMETRY
 10
7221.563
 20
122.688
 40
0.58
 50
254.103
 51
270.0
  0
ARC
  8
APS_GEOMETRY
 10
7221.481
 20
122.401
 40
0.282
 50
231.216
 51
254.103
  0
ARC
  8
APS_GEOMETRY
 10
7221.447
 20
122.359
 40
0.228
 50
203.795
 51
231.216
  0
ARC
  8
APS_GEOMETRY
 10
7221.515
 20
122.389
 40
0.302
 50
180.0
 51
203.795
  0
ARC
  8
APS_GEOMETRY
 10
7221.54
 20
122.389
 40
0.327
 50
164.055
 51
180.0
  0
ARC
  8
APS_GEOMETRY
 10
7221.338
 20
122.446
 40
0.118
 50
137.291
 51
164.055
  0
ARC
  8
APS_GEOMETRY
 10
7221.399
 20
122.39
 40
0.2
 50
120.964
 51
137.291
  0
ARC
  8
APS_GEOMETRY
 10
7222.049
 20
121.307
 40
1.464
 50
114.944
 51
120.964
  0
ARC
  8
APS_GEOMETRY
 10
7221.238
 20
123.082
 40
0.489
 50
293.429
 51
305.72
  0
ARC
  8
APS_GEOMETRY
 10
7221.372
 20
122.895
 40
0.258
 50
305.72
 51
322.651
  0
ARC
  8
APS_GEOMETRY
 10
7221.351
 20
122.911
 40
0.285
 50
322.651
 51
338.11
  0
ARC
  8
APS_GEOMETRY
 10
7220.945
 20
123.074
 40
0.722
 50
338.11
 51
347.8
  0
ARC
  8
APS_GEOMETRY
 10
7218.425
 20
123.627
 40
3.302
 50
347.672
 51
352.051
  0
ARC
  8
APS_GEOMETRY
 10
7215.986
 20
123.967
 40
5.765
 50
352.051
 51
355.365
  0
ARC
  8
APS_GEOMETRY
 10
7214.343
 20
124.1
 40
7.413
 50
355.365
 51
357.943
  0
ARC
  8
APS_GEOMETRY
 10
7210.102
 20
124.253
 40
11.657
 50
357.943
 51
0.0
  0
ARC
  8
APS_GEOMETRY
 10
7205.207
 20
124.253
 40
16.552
 50
360.0
 51
2.183
  0
ARC
  8
APS_GEOMETRY
 10
7215.105
 20
124.63
 40
6.647
 50
2.183
 51
5.629
  0
ARC
  8
APS_GEOMETRY
 10
7218.053
 20
124.921
 40
3.684
 50
5.629
 51
11.805
  0
ARC
  8
APS_GEOMETRY
 10
7220.915
 20
125.519
 40
0.761
 50
11.805
 51
25.419
  0
ARC
  8
APS_GEOMETRY
 10
7221.285
 20
125.687
 40
0.354
 50
26.565
 51
38.157
  0
ARC
  8
APS_GEOMETRY
 10
7221.449
 20
125.816
 40
0.145
 50
38.157
 51
56.31
  0
ARC
  8
APS_GEOMETRY
 10
7221.415
 20
125.764
 40
0.208
 50
56.31
 51
69.193
  0
ARC
  8
APS_GEOMETRY
 10
7220.927
 20
124.48
 40
1.582
 50
69.193
 51
73.856
  0
ARC
  8
APS_GEOMETRY
 10
7221.441
 20
126.25
 40
0.262
 50
216.87
 51
253.393
  0
ARC
  8
APS_GEOMETRY
 10
7221.438
 20
126.248
 40
0.258
 50
180.0
 51
216.87
  0
ARC
  8
APS_GEOMETRY
 10
7221.494
 20
126.248
 40
0.314
 50
161.565
 51
180.0
  0
ARC
  8
APS_GEOMETRY
 10
7221.483
 20
126.251
 40
0.302
 50
142.765
 51
161.565
  0
ARC
  8
APS_GEOMETRY
 10
7221.475
 20
126.257
 40
0.293
 50
123.425
 51
142.765
  0
ARC
  8
APS_GEOMETRY
 10
7221.482
 20
126.247
 40
0.305
 50
104.47
 51
123.425
  0
ARC
  8
APS_GEOMETRY
 10
7221.54
 20
125.961
 40
0.596
 50
96.724
 51
102.995
  0
ARC
  8
APS_GEOMETRY
 10
7221.72
 20
124.433
 40
2.135
 50
93.411
 51
96.724
  0
ARC
  8
APS_GEOMETRY
 10
7221.8
 20
123.091
 40
3.479
 50
91.375
 51
93.411
  0
ARC
  8
APS_GEOMETRY
 10
7221.9
 20
118.941
 40
7.63
 50
90.0
 51
91.375
  0
LINE
  8
COSTRUZIONI
 10
7131.738
 11
7331.738
 20
110.946
 21
110.946
  0
LINE
  8
COSTRUZIONI
 10
7331.738
 11
7331.738
 20
110.946
 21
130.946
  0
LINE
  8
COSTRUZIONI
 10
7331.738
 11
7131.738
 20
130.946
 21
130.946
  0
LINE
  8
COSTRUZIONI
 10
7131.738
 11
7131.738
 20
130.946
 21
110.946
  0
LINE
  8
COSTRUZIONI
 10
7231.738
 11
7231.738
 20
110.946
 21
130.946
  0
LINE
  8
COSTRUZIONI
 10
7231.738
 11
7331.738
 20
120.946
 21
120.946
  0
LINE
  8
COSTRUZIONI
 10
7281.738
 11
7281.738
 20
110.946
 21
130.946
  0
LINE
  8
QUOTATURA
 10
7230.931
 11
7230.931
 20
172.05
 21
143.306
  0
LINE
  8
QUOTATURA
 10
7233.931
 11
7233.931
 20
172.05
 21
143.306
  0
LINE
  8
QUOTATURA
 10
7233.931
 11
7267.903
 20
153.306
 21
153.306
  0
LINE
  8
QUOTATURA
 10
7253.931
 11
7233.931
 20
149.972
 21
153.306
  0
LINE
  8
QUOTATURA
 10
7233.931
 11
7253.931
 20
153.306
 21
156.64
  0
LINE
  8
QUOTATURA
 10
7253.931
 11
7253.931
 20
156.64
 21
149.972
  0
LINE
  8
QUOTATURA
 10
7230.931
 11
7190.931
 20
153.306
 21
153.306
  0
LINE
  8
QUOTATURA
 10
7210.931
 11
7230.931
 20
156.64
 21
153.306
  0
LINE
  8
QUOTATURA
 10
7230.931
 11
7210.931
 20
153.306
 21
149.972
  0
LINE
  8
QUOTATURA
 10
7210.931
 11
7210.931
 20
149.972
 21
156.64
  0
LINE
  8
QUOTATURA
 10
7240.931
 11
7294.291
 20
194.335
 21
194.335
  0
LINE
  8
QUOTATURA
 10
7260.931
 11
7240.931
 20
191.001
 21
194.335
  0
LINE
  8
QUOTATURA
 10
7240.931
 11
7260.931
 20
194.335
 21
197.669
  0
LINE
  8
QUOTATURA
 10
7260.931
 11
7260.931
 20
197.669
 21
191.001
  0
LINE
  8
QUOTATURA
 10
7233.931
 11
7193.931
 20
194.335
 21
194.335
  0
LINE
  8
QUOTATURA
 10
7213.931
 11
7233.931
 20
197.669
 21
194.335
  0
LINE
  8
QUOTATURA
 10
7233.931
 11
7213.931
 20
194.335
 21
191.001
  0
LINE
  8
QUOTATURA
 10
7213.931
 11
7213.931
 20
191.001
 21
197.669
  0
TEXT
  8
TEXT
 10
7256.589
 20
112.875
 30
0.0
 40
4.0
 50
0.0
  1
B.Stefano
  0
TEXT
  8
TEXT
 10
7180.522
 20
116.838
 30
0.0
 40
2.5
 50
0.0
  1
tel. 0577-68.54.26 - fax 0577-68.64.29
  0
TEXT
  8
TEXT
 10
7180.522
 20
113.088
 30
0.0
 40
2.5
 50
0.0
  1
e-mail: tecnico@toscocornici.it - web: www.tosococornici.it
  0
TEXT
  8
TEXT
 10
7232.459
 20
128.299
 30
0.0
 40
2.0
 50
0.0
  1
documento:
  0
TEXT
  8
TEXT
 10
7258.033
 20
122.909
 30
0.0
 40
3.0
 50
0.0
  1
NODO 2A STD
  0
TEXT
  8
TEXT
 10
7282.405
 20
128.334
 30
0.0
 40
2.0
 50
0.0
  1
data:
  0
TEXT
  8
TEXT
 10
7307.664
 20
123.013
 30
0.0
 40
3.0
 50
0.0
  1
04/05/11
  0
TEXT
  8
TEXT
 10
7307.492
 20
113.095
 30
0.0
 40
3.0
 50
0.0
  1
1 : 1
  0
TEXT
  8
TEXT
 10
7232.459
 20
118.51
 30
0.0
 40
2.0
 50
0.0
  1
responsabile tecnico:
  0
TEXT
  8
TEXT
 10
7282.422
 20
118.51
 30
0.0
 40
2.0
 50
0.0
  1
scala:
  0
TEXT
  8
TEXT
 10
7132.511
 20
128.299
 30
0.0
 40
2.0
 50
0.0
  1
Ufficio tecnico:
  0
TEXT
  8
QUOTATURA
 10
7272.367
 20
143.306
 30
0.0
 40
20.0
 50
0.0
  1
3
  0
TEXT
  8
QUOTATURA
 10
7298.74
 20
184.335
 30
0.0
 40
20.0
 50
0.0
  1
7
  0
ENDSEC
  0
EOF
