  0
SECTION
  2
ENTITIES
  0
LINE
  8
APS_GEOMETRY
 10
128.757694
 11
128.757694
 20
133.489177
 21
139.489177
  0
ARC
  8
APS_GEOMETRY
 10
123.757694
 20
139.489177
 40
5.0
 50
0.0
 51
180.0
  0
LINE
  8
APS_GEOMETRY
 10
118.757694
 11
112.757694
 20
139.489177
 21
139.489177
  0
ARC
  8
APS_GEOMETRY
 10
107.757694
 20
139.489177
 40
5.0
 50
0.0
 51
180.0
  0
LINE
  8
APS_GEOMETRY
 10
102.757694
 11
96.757694
 20
139.489177
 21
139.489177
  0
ARC
  8
APS_GEOMETRY
 10
91.757694
 20
139.489177
 40
5.0
 50
0.0
 51
180.0
  0
LINE
  8
APS_GEOMETRY
 10
86.757694
 11
80.757694
 20
139.489177
 21
139.489177
  0
ARC
  8
APS_GEOMETRY
 10
75.757694
 20
139.489177
 40
5.0
 50
0.0
 51
180.0
  0
LINE
  8
APS_GEOMETRY
 10
70.757694
 11
64.757694
 20
139.489177
 21
139.489177
  0
ARC
  8
APS_GEOMETRY
 10
59.757694
 20
139.489177
 40
5.0
 50
0.0
 51
180.0
  0
LINE
  8
APS_GEOMETRY
 10
54.757694
 11
48.757694
 20
139.489177
 21
139.489177
  0
ARC
  8
APS_GEOMETRY
 10
43.757694
 20
139.489177
 40
5.0
 50
0.0
 51
180.0
  0
LINE
  8
APS_GEOMETRY
 10
38.757694
 11
38.757685
 20
139.489177
 21
122.989136
  0
LINE
  8
APS_GEOMETRY
 10
38.757685
 11
39.257684
 20
122.989136
 21
122.489136
  0
LINE
  8
APS_GEOMETRY
 10
39.257684
 11
45.757694
 20
122.489136
 21
122.489136
  0
LINE
  8
APS_GEOMETRY
 10
45.757694
 11
45.757694
 20
122.489136
 21
125.489136
  0
LINE
  8
APS_GEOMETRY
 10
45.757694
 11
104.757694
 20
125.489136
 21
125.489136
  0
LINE
  8
APS_GEOMETRY
 10
104.757694
 11
104.757694
 20
125.489136
 21
122.489136
  0
LINE
  8
APS_GEOMETRY
 10
104.757694
 11
124.757694
 20
122.489136
 21
122.489136
  0
LINE
  8
APS_GEOMETRY
 10
124.757694
 11
124.757694
 20
122.489136
 21
110.989177
  0
LINE
  8
APS_GEOMETRY
 10
124.757694
 11
125.257694
 20
110.989177
 21
110.489177
  0
LINE
  8
APS_GEOMETRY
 10
125.257694
 11
128.757694
 20
110.489177
 21
110.489177
  0
LINE
  8
APS_GEOMETRY
 10
128.757694
 11
128.757694
 20
110.489177
 21
135.489177
  0
LINE
  8
APS_GEOMETRY
 10
119.757694
 11
119.757694
 20
130.489177
 21
135.489177
  0
LINE
  8
APS_GEOMETRY
 10
119.757694
 11
119.757694
 20
127.489177
 21
122.489136
  0
LINE
  8
APS_GEOMETRY
 10
114.757694
 11
123.757694
 20
130.489177
 21
130.489177
  0
LINE
  8
APS_GEOMETRY
 10
123.757694
 11
123.757694
 20
130.489177
 21
127.489177
  0
LINE
  8
APS_GEOMETRY
 10
123.757694
 11
114.757694
 20
127.489177
 21
127.489177
  0
LINE
  8
APS_GEOMETRY
 10
114.757694
 11
114.757694
 20
127.489177
 21
130.489177
  0
LINE
  8
APS_GEOMETRY
 10
119.757694
 11
128.757694
 20
135.489177
 21
135.489177
  0
ENDSEC
  0
EOF
