  0
SECTION
  2
ENTITIES
  0
ARC
  8
APS_GEOMETRY
 10
106.754071
 20
137.267742
 40
2.0
 50
90.0
 51
180.0
  0
LINE
  8
APS_GEOMETRY
 10
104.754071
 11
104.754071
 20
137.267742
 21
137.017742
  0
LINE
  8
APS_GEOMETRY
 10
104.754071
 11
103.754071
 20
137.017742
 21
137.017742
  0
ARC
  8
APS_GEOMETRY
 10
103.754071
 20
135.017742
 40
2.0
 50
90.0
 51
180.0
  0
LINE
  8
APS_GEOMETRY
 10
101.754071
 11
101.754071
 20
135.017742
 21
134.767742
  0
LINE
  8
APS_GEOMETRY
 10
101.754071
 11
100.754071
 20
134.767742
 21
134.767742
  0
ARC
  8
APS_GEOMETRY
 10
100.754071
 20
132.767742
 40
2.0
 50
90.0
 51
180.0
  0
LINE
  8
APS_GEOMETRY
 10
98.754071
 11
98.754071
 20
132.767742
 21
132.517742
  0
LINE
  8
APS_GEOMETRY
 10
98.754071
 11
60.754071
 20
132.517742
 21
132.517742
  0
LINE
  8
APS_GEOMETRY
 10
60.754071
 11
60.754071
 20
132.517742
 21
132.767742
  0
ARC
  8
APS_GEOMETRY
 10
58.754071
 20
132.767742
 40
2.0
 50
0.0
 51
90.0
  0
LINE
  8
APS_GEOMETRY
 10
58.754071
 11
57.754071
 20
134.767742
 21
134.767742
  0
LINE
  8
APS_GEOMETRY
 10
57.754071
 11
57.754071
 20
134.767742
 21
135.017742
  0
ARC
  8
APS_GEOMETRY
 10
55.754071
 20
135.017742
 40
2.0
 50
0.0
 51
90.0
  0
LINE
  8
APS_GEOMETRY
 10
55.754071
 11
54.754071
 20
137.017742
 21
137.017742
  0
LINE
  8
APS_GEOMETRY
 10
54.754071
 11
54.754071
 20
137.017742
 21
137.267742
  0
ARC
  8
APS_GEOMETRY
 10
52.754071
 20
137.267742
 40
2.0
 50
0.0
 51
90.0
  0
LINE
  8
APS_GEOMETRY
 10
52.754071
 11
37.004071
 20
139.267742
 21
139.267742
  0
ARC
  8
APS_GEOMETRY
 10
37.004071
 20
137.017742
 40
2.25
 50
90.0
 51
180.0
  0
LINE
  8
APS_GEOMETRY
 10
34.754071
 11
34.754071
 20
137.017742
 21
124.767742
  0
LINE
  8
APS_GEOMETRY
 10
34.754071
 11
35.254071
 20
124.767742
 21
124.267742
  0
LINE
  8
APS_GEOMETRY
 10
35.254071
 11
45.754071
 20
124.267742
 21
124.267742
  0
LINE
  8
APS_GEOMETRY
 10
45.754071
 11
45.754071
 20
124.267742
 21
127.267742
  0
LINE
  8
APS_GEOMETRY
 10
45.754071
 11
67.254071
 20
127.267742
 21
127.267742
  0
LINE
  8
APS_GEOMETRY
 10
67.254071
 11
67.254071
 20
127.267742
 21
124.267742
  0
LINE
  8
APS_GEOMETRY
 10
67.254071
 11
70.754071
 20
124.267742
 21
124.267742
  0
LINE
  8
APS_GEOMETRY
 10
70.754071
 11
70.754071
 20
124.267742
 21
127.267742
  0
LINE
  8
APS_GEOMETRY
 10
70.754071
 11
91.254071
 20
127.267742
 21
127.267742
  0
LINE
  8
APS_GEOMETRY
 10
91.254071
 11
91.254071
 20
127.267742
 21
124.267742
  0
LINE
  8
APS_GEOMETRY
 10
91.254071
 11
94.754071
 20
124.267742
 21
124.267742
  0
LINE
  8
APS_GEOMETRY
 10
94.754071
 11
94.754071
 20
124.267742
 21
127.267742
  0
LINE
  8
APS_GEOMETRY
 10
94.754071
 11
116.254071
 20
127.267742
 21
127.267742
  0
LINE
  8
APS_GEOMETRY
 10
116.254071
 11
116.254071
 20
127.267742
 21
124.267742
  0
LINE
  8
APS_GEOMETRY
 10
116.254071
 11
120.754071
 20
124.267742
 21
124.267742
  0
LINE
  8
APS_GEOMETRY
 10
120.754071
 11
120.754071
 20
124.267742
 21
113.767742
  0
LINE
  8
APS_GEOMETRY
 10
120.754071
 11
121.727756
 20
113.767742
 21
112.794058
  0
LINE
  8
APS_GEOMETRY
 10
121.727756
 11
124.754071
 20
112.794058
 21
112.267742
  0
LINE
  8
APS_GEOMETRY
 10
124.754071
 11
124.754071
 20
112.267742
 21
137.018373
  0
ARC
  8
APS_GEOMETRY
 10
122.504071
 20
137.017742
 40
2.25
 50
0.016081
 51
90.000002
  0
LINE
  8
APS_GEOMETRY
 10
122.504071
 11
106.754071
 20
139.267742
 21
139.267742
  0
LINE
  8
APS_GEOMETRY
 10
106.754071
 11
117.868782
 20
139.267742
 21
139.267742
  0
ENDSEC
  0
EOF
