  0
SECTION
  2
ENTITIES
  0
LINE
  8
APS_GEOMETRY
 10
0.0
 11
280.0
 20
0.0
 21
0.0
  0
LINE
  8
APS_GEOMETRY
 10
280.0
 11
280.0
 20
0.0
 21
200.0
  0
LINE
  8
APS_GEOMETRY
 10
280.0
 11
0.0
 20
200.0
 21
200.0
  0
LINE
  8
APS_GEOMETRY
 10
0.0
 11
0.0
 20
200.0
 21
0.0
  0
LINE
  8
APS_GEOMETRY
 10
107.228758
 11
107.228758
 20
119.071703
 21
116.771703
  0
LINE
  8
APS_GEOMETRY
 10
107.228758
 11
129.228758
 20
116.771703
 21
116.771703
  0
LINE
  8
APS_GEOMETRY
 10
129.228758
 11
129.228758
 20
116.771703
 21
105.271703
  0
LINE
  8
APS_GEOMETRY
 10
129.228758
 11
129.728758
 20
105.271703
 21
104.771703
  0
LINE
  8
APS_GEOMETRY
 10
129.728758
 11
133.228758
 20
104.771703
 21
104.771703
  0
LINE
  8
APS_GEOMETRY
 10
133.228758
 11
133.228758
 20
104.771703
 21
125.771703
  0
ARC
  8
APS_GEOMETRY
 10
132.228758
 20
125.771703
 40
1.0
 50
0.0
 51
90.0
  0
LINE
  8
APS_GEOMETRY
 10
132.228758
 11
107.228758
 20
126.771703
 21
126.771703
  0
LINE
  8
APS_GEOMETRY
 10
107.228758
 11
107.228758
 20
126.771703
 21
124.071703
  0
LINE
  8
APS_GEOMETRY
 10
107.228758
 11
113.728711
 20
124.071703
 21
124.071703
  0
LINE
  8
APS_GEOMETRY
 10
113.728711
 11
113.728729
 20
124.071703
 21
119.071703
  0
LINE
  8
APS_GEOMETRY
 10
113.728729
 11
107.228758
 20
119.071703
 21
119.071703
  0
LINE
  8
APS_GEOMETRY
 10
108.228758
 11
107.228719
 20
126.771703
 21
126.771738
  0
LINE
  8
APS_GEOMETRY
 10
107.228719
 11
107.228758
 20
126.771738
 21
124.071703
  0
LINE
  8
APS_GEOMETRY
 10
107.228758
 11
113.228806
 20
124.071703
 21
124.071703
  0
LINE
  8
APS_GEOMETRY
 10
113.228806
 11
113.228806
 20
124.071703
 21
119.071703
  0
LINE
  8
APS_GEOMETRY
 10
113.228806
 11
107.22871
 20
119.071703
 21
119.071703
  0
LINE
  8
APS_GEOMETRY
 10
107.22871
 11
107.22871
 20
119.071703
 21
116.771753
  0
LINE
  8
APS_GEOMETRY
 10
107.22871
 11
99.22861
 20
116.771753
 21
116.771753
  0
LINE
  8
APS_GEOMETRY
 10
99.22861
 11
99.22861
 20
116.771753
 21
122.771753
  0
LINE
  8
APS_GEOMETRY
 10
99.22861
 11
39.22861
 20
122.771753
 21
122.771753
  0
LINE
  8
APS_GEOMETRY
 10
39.22861
 11
39.22861
 20
122.771753
 21
116.771753
  0
LINE
  8
APS_GEOMETRY
 10
39.22861
 11
33.22861
 20
116.771753
 21
116.771753
  0
LINE
  8
APS_GEOMETRY
 10
33.22861
 11
33.22861
 20
116.771753
 21
135.771703
  0
ARC
  8
APS_GEOMETRY
 10
36.22861
 20
135.771703
 40
3.0
 50
90.0
 51
180.0
  0
LINE
  8
APS_GEOMETRY
 10
36.22861
 11
56.89531
 20
138.771703
 21
138.771703
  0
ARC
  8
APS_GEOMETRY
 10
56.89531
 20
137.771703
 40
1.0
 50
0.0
 51
90.0
  0
LINE
  8
APS_GEOMETRY
 10
57.89531
 11
57.89531
 20
137.771703
 21
134.855037
  0
LINE
  8
APS_GEOMETRY
 10
57.89531
 11
81.56201
 20
134.855037
 21
134.855037
  0
ARC
  8
APS_GEOMETRY
 10
81.56201
 20
133.855037
 40
1.0
 50
0.0
 51
90.0
  0
LINE
  8
APS_GEOMETRY
 10
82.56201
 11
82.56201
 20
133.855037
 21
130.93837
  0
LINE
  8
APS_GEOMETRY
 10
82.56201
 11
107.22871
 20
130.93837
 21
130.93837
  0
ARC
  8
APS_GEOMETRY
 10
107.22871
 20
129.93837
 40
1.0
 50
0.0
 51
90.0
  0
LINE
  8
APS_GEOMETRY
 10
108.22871
 11
108.228758
 20
129.93837
 21
126.771703
  0
ENDSEC
  0
EOF
