  0
SECTION
  2
ENTITIES
  0
LINE
  8
APS_GEOMETRY
 10
96.948418
 11
75.948418
 20
144.599874
 21
144.599874
  0
LINE
  8
APS_GEOMETRY
 10
75.948418
 11
75.948418
 20
144.599874
 21
147.099874
  0
ARC
  8
APS_GEOMETRY
 10
73.948418
 20
147.099874
 40
2.0
 50
0.0
 51
90.0
  0
LINE
  8
APS_GEOMETRY
 10
73.948418
 11
54.948418
 20
149.099874
 21
149.099874
  0
ARC
  8
APS_GEOMETRY
 10
54.948418
 20
146.099874
 40
3.0
 50
90.0
 51
180.0
  0
LINE
  8
APS_GEOMETRY
 10
51.948418
 11
51.948418
 20
146.099874
 21
129.599874
  0
LINE
  8
APS_GEOMETRY
 10
51.948418
 11
52.448418
 20
129.599874
 21
129.099874
  0
LINE
  8
APS_GEOMETRY
 10
52.448418
 11
57.948418
 20
129.099874
 21
129.099874
  0
LINE
  8
APS_GEOMETRY
 10
57.948418
 11
57.948418
 20
129.099874
 21
132.099874
  0
LINE
  8
APS_GEOMETRY
 10
57.948418
 11
74.948418
 20
132.099874
 21
132.099874
  0
LINE
  8
APS_GEOMETRY
 10
74.948418
 11
74.948418
 20
132.099874
 21
129.099874
  0
LINE
  8
APS_GEOMETRY
 10
74.948418
 11
78.448418
 20
129.099874
 21
129.099874
  0
LINE
  8
APS_GEOMETRY
 10
78.448418
 11
78.448418
 20
129.099874
 21
132.099874
  0
LINE
  8
APS_GEOMETRY
 10
78.448418
 11
92.948419
 20
132.099874
 21
132.099874
  0
LINE
  8
APS_GEOMETRY
 10
92.948419
 11
92.948419
 20
132.099874
 21
129.099874
  0
LINE
  8
APS_GEOMETRY
 10
92.948419
 11
96.448419
 20
129.099874
 21
129.099874
  0
LINE
  8
APS_GEOMETRY
 10
96.448419
 11
96.448419
 20
129.099874
 21
132.099874
  0
LINE
  8
APS_GEOMETRY
 10
96.448419
 11
113.448419
 20
132.099874
 21
132.099874
  0
LINE
  8
APS_GEOMETRY
 10
113.448419
 11
113.448419
 20
132.099874
 21
129.099874
  0
LINE
  8
APS_GEOMETRY
 10
113.448419
 11
118.748418
 20
129.099874
 21
129.099874
  0
LINE
  8
APS_GEOMETRY
 10
118.748418
 11
118.748418
 20
129.099874
 21
117.799874
  0
LINE
  8
APS_GEOMETRY
 10
118.748418
 11
119.448418
 20
117.799874
 21
117.099874
  0
LINE
  8
APS_GEOMETRY
 10
119.448418
 11
121.948418
 20
117.099874
 21
117.099874
  0
LINE
  8
APS_GEOMETRY
 10
121.948418
 11
121.948418
 20
117.099874
 21
138.099874
  0
ARC
  8
APS_GEOMETRY
 10
119.948418
 20
138.099874
 40
2.0
 50
0.0
 51
90.0
  0
LINE
  8
APS_GEOMETRY
 10
119.948418
 11
98.948418
 20
140.099874
 21
140.099874
  0
LINE
  8
APS_GEOMETRY
 10
98.948418
 11
98.948418
 20
140.099874
 21
142.599874
  0
ARC
  8
APS_GEOMETRY
 10
96.948418
 20
142.599874
 40
2.0
 50
0.0
 51
90.0
  0
ENDSEC
  0
EOF
