  0
SECTION
  2
ENTITIES
  0
LINE
  8
APS_GEOMETRY
 10
0.0
 11
280.0
 20
0.0
 21
0.0
  0
LINE
  8
APS_GEOMETRY
 10
280.0
 11
280.0
 20
0.0
 21
200.0
  0
LINE
  8
APS_GEOMETRY
 10
280.0
 11
0.0
 20
200.0
 21
200.0
  0
LINE
  8
APS_GEOMETRY
 10
0.0
 11
0.0
 20
200.0
 21
0.0
  0
LINE
  8
COSTRUZIONI
 10
0.0
 11
280.0
 20
60.0
 21
60.0
  0
LINE
  8
COSTRUZIONI
 10
31.1
 11
31.1
 20
60.0
 21
0.0
  0
LINE
  8
COSTRUZIONI
 10
62.2
 11
62.2
 20
60.0
 21
0.0
  0
LINE
  8
COSTRUZIONI
 10
93.3
 11
93.3
 20
60.0
 21
0.0
  0
LINE
  8
COSTRUZIONI
 10
124.4
 11
124.4
 20
60.0
 21
0.0
  0
LINE
  8
COSTRUZIONI
 10
155.5
 11
155.5
 20
60.0
 21
0.0
  0
LINE
  8
COSTRUZIONI
 10
186.6
 11
186.6
 20
60.0
 21
0.0
  0
LINE
  8
COSTRUZIONI
 10
217.7
 11
217.7
 20
60.0
 21
0.0
  0
LINE
  8
COSTRUZIONI
 10
248.8
 11
248.8
 20
60.0
 21
0.0
  0
LINE
  8
COSTRUZIONI
 10
280.0
 11
0.0
 20
188.0
 21
188.0
  0
LINE
  8
COSTRUZIONI
 10
166.0
 11
166.0
 20
120.0
 21
188.0
  0
LINE
  8
COSTRUZIONI
 10
184.0
 11
184.0
 20
120.0
 21
188.0
  0
LINE
  8
COSTRUZIONI
 10
202.0
 11
202.0
 20
120.0
 21
188.0
  0
LINE
  8
COSTRUZIONI
 10
220.0
 11
220.0
 20
120.0
 21
188.0
  0
LINE
  8
COSTRUZIONI
 10
250.0
 11
250.0
 20
120.0
 21
188.0
  0
LINE
  8
COSTRUZIONI
 10
280.0
 11
166.0
 20
168.0
 21
168.0
  0
LINE
  8
COSTRUZIONI
 10
280.0
 11
166.0
 20
156.0
 21
156.0
  0
LINE
  8
COSTRUZIONI
 10
280.0
 11
166.0
 20
144.0
 21
144.0
  0
LINE
  8
COSTRUZIONI
 10
280.0
 11
166.0
 20
132.0
 21
132.0
  0
LINE
  8
COSTRUZIONI
 10
280.0
 11
166.0
 20
120.0
 21
120.0
  0
LINE
  8
APS_GEOMETRY
 10
107.618
 11
107.618
 20
118.841
 21
121.341
  0
LINE
  8
APS_GEOMETRY
 10
107.618
 11
132.618
 20
121.341
 21
121.341
  0
ARC
  8
APS_GEOMETRY
 10
132.618
 20
120.341
 40
1.0
 50
360.0
 51
90.0
  0
LINE
  8
APS_GEOMETRY
 10
133.618
 11
133.618
 20
120.341
 21
99.341
  0
LINE
  8
APS_GEOMETRY
 10
133.618
 11
130.118
 20
99.341
 21
99.341
  0
LINE
  8
APS_GEOMETRY
 10
130.118
 11
129.618
 20
99.341
 21
99.841
  0
LINE
  8
APS_GEOMETRY
 10
129.618
 11
129.618
 20
99.841
 21
111.341
  0
LINE
  8
APS_GEOMETRY
 10
129.618
 11
107.618
 20
111.174
 21
111.174
  0
LINE
  8
APS_GEOMETRY
 10
107.618
 11
107.618
 20
111.341
 21
113.841
  0
LINE
  8
APS_GEOMETRY
 10
107.618
 11
113.618
 20
113.841
 21
113.841
  0
LINE
  8
APS_GEOMETRY
 10
113.618
 11
113.618
 20
113.841
 21
118.841
  0
LINE
  8
APS_GEOMETRY
 10
113.618
 11
107.618
 20
118.841
 21
118.841
  0
LINE
  8
QUOTATURA
 10
134.618
 11
146.2
 20
121.341
 21
121.341
  0
LINE
  8
QUOTATURA
 10
135.618
 11
146.2
 20
99.341
 21
99.341
  0
LINE
  8
QUOTATURA
 10
145.2
 11
145.2
 20
121.341
 21
111.847
  0
LINE
  8
QUOTATURA
 10
145.2
 11
145.2
 20
108.841
 21
99.341
  0
LINE
  8
QUOTATURA
 10
144.866
 11
145.2
 20
119.341
 21
121.341
  0
LINE
  8
QUOTATURA
 10
145.2
 11
145.533
 20
121.341
 21
119.341
  0
LINE
  8
QUOTATURA
 10
145.533
 11
144.866
 20
119.341
 21
119.341
  0
LINE
  8
QUOTATURA
 10
145.533
 11
145.2
 20
101.341
 21
99.341
  0
LINE
  8
QUOTATURA
 10
145.2
 11
144.866
 20
99.341
 21
101.341
  0
LINE
  8
QUOTATURA
 10
144.866
 11
145.533
 20
101.341
 21
101.341
  0
LINE
  8
APS_GEOMETRY
 10
33.618
 11
49.618
 20
111.174
 21
111.174
  0
LINE
  8
APS_GEOMETRY
 10
49.618
 11
49.618
 20
111.174
 21
117.674
  0
LINE
  8
APS_GEOMETRY
 10
49.618
 11
99.618
 20
117.674
 21
117.674
  0
LINE
  8
APS_GEOMETRY
 10
99.618
 11
99.618
 20
117.674
 21
111.174
  0
LINE
  8
APS_GEOMETRY
 10
99.618
 11
107.618
 20
111.174
 21
111.174
  0
LINE
  8
APS_GEOMETRY
 10
107.618
 11
107.618
 20
111.174
 21
113.841
  0
LINE
  8
APS_GEOMETRY
 10
107.618
 11
113.618
 20
113.841
 21
113.841
  0
LINE
  8
APS_GEOMETRY
 10
113.618
 11
113.618
 20
113.841
 21
118.841
  0
LINE
  8
APS_GEOMETRY
 10
113.618
 11
107.618
 20
118.841
 21
118.841
  0
LINE
  8
APS_GEOMETRY
 10
108.618
 11
108.618
 20
121.341
 21
124.341
  0
ARC
  8
APS_GEOMETRY
 10
107.618
 20
124.341
 40
1.0
 50
0.0
 51
90.0
  0
LINE
  8
APS_GEOMETRY
 10
107.618
 11
82.952
 20
125.341
 21
125.341
  0
LINE
  8
APS_GEOMETRY
 10
82.952
 11
82.952
 20
125.341
 21
128.508
  0
ARC
  8
APS_GEOMETRY
 10
81.952
 20
128.508
 40
1.0
 50
0.0
 51
90.0
  0
LINE
  8
APS_GEOMETRY
 10
81.952
 11
58.285
 20
129.508
 21
129.508
  0
LINE
  8
APS_GEOMETRY
 10
58.285
 11
58.285
 20
129.508
 21
132.674
  0
ARC
  8
APS_GEOMETRY
 10
57.285
 20
132.674
 40
1.0
 50
0.0
 51
90.0
  0
LINE
  8
APS_GEOMETRY
 10
57.285
 11
36.618
 20
133.674
 21
133.674
  0
ARC
  8
APS_GEOMETRY
 10
36.618
 20
130.674
 40
3.0
 50
90.0
 51
180.0
  0
LINE
  8
APS_GEOMETRY
 10
33.618
 11
33.618
 20
130.674
 21
111.174
  0
LINE
  8
QUOTATURA
 10
129.618
 11
129.618
 20
98.841
 21
92.792
  0
LINE
  8
QUOTATURA
 10
133.618
 11
133.618
 20
98.341
 21
92.792
  0
LINE
  8
QUOTATURA
 10
129.618
 11
124.483
 20
93.792
 21
93.792
  0
LINE
  8
QUOTATURA
 10
127.618
 11
129.618
 20
94.126
 21
93.792
  0
LINE
  8
QUOTATURA
 10
129.618
 11
127.618
 20
93.792
 21
93.459
  0
LINE
  8
QUOTATURA
 10
127.618
 11
127.618
 20
93.459
 21
94.126
  0
LINE
  8
QUOTATURA
 10
133.618
 11
137.618
 20
93.792
 21
93.792
  0
LINE
  8
QUOTATURA
 10
135.618
 11
133.618
 20
93.459
 21
93.792
  0
LINE
  8
QUOTATURA
 10
133.618
 11
135.618
 20
93.792
 21
94.126
  0
LINE
  8
QUOTATURA
 10
135.618
 11
135.618
 20
94.126
 21
93.459
  0
LINE
  8
QUOTATURA
 10
33.618
 11
33.618
 20
131.674
 21
147.655
  0
LINE
  8
QUOTATURA
 10
133.618
 11
133.618
 20
121.341
 21
147.655
  0
LINE
  8
QUOTATURA
 10
33.618
 11
80.806
 20
146.655
 21
146.655
  0
LINE
  8
QUOTATURA
 10
86.431
 11
133.618
 20
146.655
 21
146.655
  0
LINE
  8
QUOTATURA
 10
35.618
 11
33.618
 20
146.321
 21
146.655
  0
LINE
  8
QUOTATURA
 10
33.618
 11
35.618
 20
146.655
 21
146.988
  0
LINE
  8
QUOTATURA
 10
35.618
 11
35.618
 20
146.988
 21
146.321
  0
LINE
  8
QUOTATURA
 10
131.618
 11
133.618
 20
146.988
 21
146.655
  0
LINE
  8
QUOTATURA
 10
133.618
 11
131.618
 20
146.655
 21
146.321
  0
LINE
  8
QUOTATURA
 10
131.618
 11
131.618
 20
146.321
 21
146.988
  0
LINE
  8
QUOTATURA
 10
35.618
 11
10.6
 20
133.674
 21
133.674
  0
LINE
  8
QUOTATURA
 10
132.618
 11
10.6
 20
99.341
 21
99.341
  0
LINE
  8
QUOTATURA
 10
11.6
 11
11.6
 20
133.674
 21
118.014
  0
LINE
  8
QUOTATURA
 10
11.6
 11
11.6
 20
115.008
 21
99.341
  0
LINE
  8
QUOTATURA
 10
11.267
 11
11.6
 20
131.674
 21
133.674
  0
LINE
  8
QUOTATURA
 10
11.6
 11
11.934
 20
133.674
 21
131.674
  0
LINE
  8
QUOTATURA
 10
11.934
 11
11.267
 20
131.674
 21
131.674
  0
LINE
  8
QUOTATURA
 10
11.934
 11
11.6
 20
101.341
 21
99.341
  0
LINE
  8
QUOTATURA
 10
11.6
 11
11.267
 20
99.341
 21
101.341
  0
LINE
  8
QUOTATURA
 10
11.267
 11
11.934
 20
101.341
 21
101.341
  0
TEXT
  8
TEXT
 10
264.35
 20
60.8
 30
0.0
 40
5.0
 50
0.0
  1
1
  0
TEXT
  8
TEXT
 10
202.15
 20
60.8
 30
0.0
 40
5.0
 50
0.0
  1
3
  0
TEXT
  8
TEXT
 10
171.05
 20
60.0
 30
0.0
 40
5.0
 50
0.0
  1
4
  0
TEXT
  8
TEXT
 10
139.95
 20
60.8
 30
0.0
 40
5.0
 50
0.0
  1
5
  0
TEXT
  8
TEXT
 10
108.85
 20
60.8
 30
0.0
 40
5.0
 50
0.0
  1
6
  0
TEXT
  8
TEXT
 10
77.75
 20
60.8
 30
0.0
 40
5.0
 50
0.0
  1
7
  0
TEXT
  8
TEXT
 10
46.65
 20
60.8
 30
0.0
 40
5.0
 50
0.0
  1
8
  0
TEXT
  8
TEXT
 10
15.55
 20
60.8
 30
0.0
 40
5.0
 50
0.0
  1
9
  0
TEXT
  8
TEXT
 10
165.429
 20
112.996
 30
0.0
 40
4.5
 50
0.0
  1
ANNOTAZIONI:
  0
TEXT
  8
TEXT
 10
0.0
 20
188.5
 30
0.0
 40
5.0
 50
0.0
  1
 SZ 100X22,5 MM    ART. INCOLL-COPRIFILO-100-SAGOMATO_22,5X100
  0
TEXT
  8
TEXT
 10
233.25
 20
60.8
 30
0.0
 40
5.0
 50
0.0
  1
2
  0
TEXT
  8
TEXT
 10
222.123
 20
182.119
 30
0.0
 40
4.0
 50
0.0
  1
MISURE
  0
TEXT
  8
TEXT
 10
222.123
 20
176.119
 30
0.0
 40
4.0
 50
0.0
  1
MAGG.
  0
TEXT
  8
TEXT
 10
280.719
 20
69.107
 30
0.0
 40
2.0
 50
-90.0
  1
Toscocornici porte - 0577-685426 - info@toscocornici.it
  0
TEXT
  8
TEXT
 10
277.719
 20
69.107
 30
0.0
 40
2.0
 50
-90.0
  1

  0
TEXT
  8
TEXT
 10
274.719
 20
69.107
 30
0.0
 40
2.0
 50
-90.0
  1

  0
TEXT
  8
TEXT
 10
218.395
 20
9.914
 30
0.0
 40
3.0
 50
0.0
  1
A.
  0
TEXT
  8
TEXT
 10
218.395
 20
5.414
 30
0.0
 40
3.0
 50
0.0
  1
R.
  0
TEXT
  8
TEXT
 10
249.495
 20
9.914
 30
0.0
 40
3.0
 50
0.0
  1
A.
  0
TEXT
  8
TEXT
 10
249.495
 20
5.414
 30
0.0
 40
3.0
 50
0.0
  1
R.
  0
TEXT
  8
TEXT
 10
187.295
 20
9.914
 30
0.0
 40
3.0
 50
0.0
  1
A.
  0
TEXT
  8
TEXT
 10
187.295
 20
5.414
 30
0.0
 40
3.0
 50
0.0
  1
R.
  0
TEXT
  8
TEXT
 10
156.195
 20
9.914
 30
0.0
 40
3.0
 50
0.0
  1
A.
  0
TEXT
  8
TEXT
 10
156.195
 20
5.414
 30
0.0
 40
3.0
 50
0.0
  1
R.
  0
TEXT
  8
TEXT
 10
125.095
 20
9.914
 30
0.0
 40
3.0
 50
0.0
  1
A.
  0
TEXT
  8
TEXT
 10
125.095
 20
5.414
 30
0.0
 40
3.0
 50
0.0
  1
R.
  0
TEXT
  8
TEXT
 10
93.995
 20
9.914
 30
0.0
 40
3.0
 50
0.0
  1
A.
  0
TEXT
  8
TEXT
 10
93.995
 20
5.414
 30
0.0
 40
3.0
 50
0.0
  1
R.
  0
TEXT
  8
TEXT
 10
62.895
 20
9.914
 30
0.0
 40
3.0
 50
0.0
  1
A.
  0
TEXT
  8
TEXT
 10
62.895
 20
5.414
 30
0.0
 40
3.0
 50
0.0
  1
R.
  0
TEXT
  8
TEXT
 10
31.795
 20
9.914
 30
0.0
 40
3.0
 50
0.0
  1
A.
  0
TEXT
  8
TEXT
 10
31.795
 20
5.414
 30
0.0
 40
3.0
 50
0.0
  1
R.
  0
TEXT
  8
TEXT
 10
0.695
 20
9.914
 30
0.0
 40
3.0
 50
0.0
  1
A.
  0
TEXT
  8
TEXT
 10
0.695
 20
5.414
 30
0.0
 40
3.0
 50
0.0
  1
R.
  0
TEXT
  8
QUOTATURA
 10
143.667
 20
109.341
 30
0.0
 40
2.0
 50
0.0
  1
22
  0
TEXT
  8
QUOTATURA
 10
122.257
 20
92.792
 30
0.0
 40
2.0
 50
0.0
  1
4
  0
TEXT
  8
QUOTATURA
 10
81.306
 20
145.655
 30
0.0
 40
2.0
 50
0.0
  1
100
  0
TEXT
  8
QUOTATURA
 10
9.791
 20
115.508
 30
0.0
 40
2.0
 50
0.0
  1
34
  0
ENDSEC
  0
EOF
