  0
SECTION
  2
ENTITIES
  0
ARC
  8
APS_GEOMETRY
 10
111.5717
 20
127.3286
 40
7.0
 50
0.0
 51
90.0
  0
LINE
  8
APS_GEOMETRY
 10
111.5717
 11
110.967759
 20
134.3286
 21
134.3286
  0
ARC
  8
APS_GEOMETRY
 10
110.967759
 20
134.8286
 40
0.5
 50
200.0
 51
270.0
  0
LINE
  8
APS_GEOMETRY
 10
110.497913
 11
110.249652
 20
134.65759
 21
135.339681
  0
ARC
  8
APS_GEOMETRY
 10
109.779805
 20
135.168671
 40
0.5
 50
20.0
 51
86.52226
  0
LINE
  8
APS_GEOMETRY
 10
109.810136
 11
70.868945
 20
135.66775
 21
137.298383
  0
ARC
  8
APS_GEOMETRY
 10
70.838614
 20
136.799304
 40
0.5
 50
86.52226
 51
172.845768
  0
ARC
  8
APS_GEOMETRY
 10
66.621703
 20
137.328602
 40
3.75
 50
192.647207
 51
352.845768
  0
ARC
  8
APS_GEOMETRY
 10
62.474822
 20
136.398076
 40
0.5
 50
12.647207
 51
78.690068
  0
LINE
  8
APS_GEOMETRY
 10
62.57288
 11
60.759431
 20
136.888366
 21
137.251056
  0
ARC
  8
APS_GEOMETRY
 10
60.857489
 20
137.741346
 40
0.5
 50
183.944536
 51
258.690068
  0
ARC
  8
APS_GEOMETRY
 10
54.871703
 20
137.328602
 40
5.5
 50
3.944536
 51
180.0
  0
LINE
  8
APS_GEOMETRY
 10
49.371703
 11
49.371703
 20
137.328602
 21
124.828602
  0
LINE
  8
APS_GEOMETRY
 10
49.371703
 11
55.671707
 20
124.828602
 21
124.8286
  0
LINE
  8
APS_GEOMETRY
 10
55.671707
 11
55.671707
 20
124.8286
 21
127.8286
  0
LINE
  8
APS_GEOMETRY
 10
55.671707
 11
110.0717
 20
127.8286
 21
127.8286
  0
LINE
  8
APS_GEOMETRY
 10
110.0717
 11
110.0717
 20
127.8286
 21
124.8286
  0
LINE
  8
APS_GEOMETRY
 10
110.0717
 11
114.5717
 20
124.8286
 21
124.8286
  0
LINE
  8
APS_GEOMETRY
 10
114.5717
 11
114.5717
 20
124.8286
 21
114.3286
  0
LINE
  8
APS_GEOMETRY
 10
114.5717
 11
115.545384
 20
114.3286
 21
113.354916
  0
LINE
  8
APS_GEOMETRY
 10
115.545384
 11
118.5717
 20
113.354916
 21
112.8286
  0
LINE
  8
APS_GEOMETRY
 10
118.5717
 11
118.5717
 20
112.8286
 21
127.3286
  0
ENDSEC
  0
EOF
