  0
SECTION
  2
ENTITIES
  0
LINE
  8
APS_GEOMETRY
 10
111.99287
 11
111.99287
 20
120.110478
 21
117.110478
  0
LINE
  8
APS_GEOMETRY
 10
111.99287
 11
122.99287
 20
117.110478
 21
117.110478
  0
LINE
  8
APS_GEOMETRY
 10
122.99287
 11
122.99287
 20
117.110478
 21
132.110478
  0
ARC
  8
APS_GEOMETRY
 10
117.49287
 20
132.110478
 40
5.5
 50
0.0
 51
176.055464
  0
ARC
  8
APS_GEOMETRY
 10
111.507084
 20
132.523222
 40
0.5
 50
281.309932
 51
356.055464
  0
LINE
  8
APS_GEOMETRY
 10
111.605142
 11
109.791693
 20
132.032932
 21
131.670242
  0
ARC
  8
APS_GEOMETRY
 10
109.889751
 20
131.179952
 40
0.5
 50
101.309932
 51
167.352793
  0
ARC
  8
APS_GEOMETRY
 10
105.74287
 20
132.110478
 40
3.75
 50
187.154232
 51
347.352793
  0
ARC
  8
APS_GEOMETRY
 10
101.525959
 20
131.58118
 40
0.5
 50
7.154232
 51
93.47774
  0
LINE
  8
APS_GEOMETRY
 10
101.495628
 11
41.754434
 20
132.080259
 21
128.449628
  0
ARC
  8
APS_GEOMETRY
 10
41.784765
 20
127.950549
 40
0.5
 50
93.47774
 51
160.0
  0
LINE
  8
APS_GEOMETRY
 10
41.314918
 11
41.066658
 20
128.121559
 21
127.439468
  0
ARC
  8
APS_GEOMETRY
 10
40.596811
 20
127.610478
 40
0.5
 50
270.0
 51
340.0
  0
LINE
  8
APS_GEOMETRY
 10
40.596811
 11
39.99287
 20
127.110478
 21
127.110478
  0
ARC
  8
APS_GEOMETRY
 10
39.99287
 20
120.110478
 40
7.0
 50
90.0
 51
180.0
  0
LINE
  8
APS_GEOMETRY
 10
32.99287
 11
32.99287
 20
120.110478
 21
105.110478
  0
LINE
  8
APS_GEOMETRY
 10
32.99287
 11
36.019186
 20
105.110478
 21
105.636794
  0
LINE
  8
APS_GEOMETRY
 10
36.019186
 11
36.99287
 20
105.636794
 21
106.610478
  0
LINE
  8
APS_GEOMETRY
 10
36.99287
 11
36.99287
 20
106.610478
 21
117.110478
  0
LINE
  8
APS_GEOMETRY
 10
36.99287
 11
41.49287
 20
117.110478
 21
117.110478
  0
LINE
  8
APS_GEOMETRY
 10
41.49287
 11
41.49287
 20
117.110478
 21
120.110478
  0
LINE
  8
APS_GEOMETRY
 10
41.49287
 11
111.99287
 20
120.110478
 21
120.110478
  0
ENDSEC
  0
EOF
