  0
SECTION
  2
ENTITIES
  0
ARC
  8
SEZIONI
 10
77.109041
 20
135.435596
 40
3.75
 50
190.234066
 51
356.721412
  0
ARC
  8
SEZIONI
 10
72.926657
 20
134.680499
 40
0.5
 50
10.234066
 51
93.477739
  0
LINE
  8
SEZIONI
 10
72.896327
 11
61.358585
 20
135.179578
 21
134.478399
  0
ARC
  8
SEZIONI
 10
61.388916
 20
133.97932
 40
0.5
 50
93.477739
 51
176.721412
  0
ARC
  8
SEZIONI
 10
57.145872
 20
134.222381
 40
3.75
 50
190.234066
 51
356.721412
  0
ARC
  8
SEZIONI
 10
52.963489
 20
133.467284
 40
0.5
 50
10.234066
 51
93.477739
  0
LINE
  8
SEZIONI
 10
52.933158
 11
41.972868
 20
133.966363
 21
133.300277
  0
ARC
  8
SEZIONI
 10
42.001652
 20
132.803271
 40
0.49784
 50
93.314609
 51
160.163223
  0
LINE
  8
SEZIONI
 10
41.533353
 11
41.285092
 20
132.972208
 21
132.290117
  0
ARC
  8
SEZIONI
 10
40.815244
 20
132.461129
 40
0.500002
 50
270.000062
 51
339.99987
  0
LINE
  8
SEZIONI
 10
40.815245
 11
40.211305
 20
131.961127
 21
131.961127
  0
ARC
  8
SEZIONI
 10
40.211305
 20
124.961127
 40
7.0
 50
90.0
 51
180.0
  0
LINE
  8
SEZIONI
 10
33.211305
 11
33.211305
 20
124.961127
 21
109.961127
  0
LINE
  8
SEZIONI
 10
33.211305
 11
36.23762
 20
109.961127
 21
110.487443
  0
LINE
  8
SEZIONI
 10
36.23762
 11
37.211305
 20
110.487443
 21
111.461127
  0
LINE
  8
SEZIONI
 10
37.211305
 11
37.211305
 20
111.461127
 21
121.961127
  0
LINE
  8
SEZIONI
 10
37.211305
 11
41.711305
 20
121.961127
 21
121.961127
  0
LINE
  8
SEZIONI
 10
41.711305
 11
41.711305
 20
121.961127
 21
124.961127
  0
LINE
  8
SEZIONI
 10
41.711305
 11
112.211305
 20
124.961127
 21
124.961127
  0
LINE
  8
SEZIONI
 10
112.211305
 11
112.211305
 20
124.961127
 21
121.961127
  0
LINE
  8
SEZIONI
 10
112.211305
 11
123.211305
 20
121.961127
 21
121.961127
  0
LINE
  8
SEZIONI
 10
123.211305
 11
123.211305
 20
121.961127
 21
136.961127
  0
ARC
  8
SEZIONI
 10
117.711305
 20
136.961127
 40
5.5
 50
0.0
 51
173.63451
  0
LINE
  8
SEZIONI
 10
112.245213
 11
101.284923
 20
137.570914
 21
136.904828
  0
ARC
  8
SEZIONI
 10
101.315253
 20
136.405749
 40
0.5
 50
93.477739
 51
176.721412
  0
ARC
  8
SEZIONI
 10
97.072209
 20
136.648811
 40
3.75
 50
190.234066
 51
356.721412
  0
ARC
  8
SEZIONI
 10
92.889826
 20
135.893714
 40
0.5
 50
10.234066
 51
93.477739
  0
LINE
  8
SEZIONI
 10
92.859496
 11
81.321754
 20
136.392793
 21
135.691614
  0
ARC
  8
SEZIONI
 10
81.352084
 20
135.192534
 40
0.5
 50
93.477739
 51
176.721412
  0
ENDSEC
  0
EOF
