  0
SECTION
  2
ENTITIES
  0
LINE
  8
APS_GEOMETRY
 10
58.248241
 11
63.248241
 20
117.319677
 21
117.319677
  0
LINE
  8
APS_GEOMETRY
 10
63.248241
 11
63.248241
 20
117.319677
 21
120.319677
  0
LINE
  8
APS_GEOMETRY
 10
63.248241
 11
67.248241
 20
120.319677
 21
120.319677
  0
LINE
  8
APS_GEOMETRY
 10
67.248241
 11
67.248241
 20
120.319677
 21
117.319677
  0
LINE
  8
APS_GEOMETRY
 10
67.248241
 11
74.248241
 20
117.319677
 21
117.319677
  0
LINE
  8
APS_GEOMETRY
 10
74.248241
 11
74.248241
 20
117.319677
 21
120.319677
  0
LINE
  8
APS_GEOMETRY
 10
74.248241
 11
78.248241
 20
120.319677
 21
120.319677
  0
LINE
  8
APS_GEOMETRY
 10
78.248241
 11
78.248241
 20
120.319677
 21
117.319677
  0
LINE
  8
APS_GEOMETRY
 10
78.248241
 11
106.348241
 20
117.319677
 21
117.319677
  0
LINE
  8
APS_GEOMETRY
 10
106.348241
 11
106.348241
 20
117.319677
 21
120.319677
  0
LINE
  8
APS_GEOMETRY
 10
106.348241
 11
111.648241
 20
120.319677
 21
120.319677
  0
LINE
  8
APS_GEOMETRY
 10
111.648241
 11
111.648241
 20
120.319677
 21
131.619677
  0
LINE
  8
APS_GEOMETRY
 10
111.648241
 11
112.348241
 20
131.619677
 21
132.319677
  0
LINE
  8
APS_GEOMETRY
 10
112.348241
 11
115.248241
 20
132.319677
 21
132.319677
  0
LINE
  8
APS_GEOMETRY
 10
115.248241
 11
115.248241
 20
132.319677
 21
114.319677
  0
ARC
  8
APS_GEOMETRY
 10
111.248241
 20
114.319677
 40
4.0
 50
270.0
 51
0.0
  0
LINE
  8
APS_GEOMETRY
 10
111.248241
 11
50.248241
 20
110.319677
 21
110.319677
  0
ARC
  8
APS_GEOMETRY
 10
50.248241
 20
114.319677
 40
4.0
 50
180.0
 51
270.0
  0
LINE
  8
APS_GEOMETRY
 10
46.248241
 11
46.248241
 20
114.319677
 21
120.319677
  0
LINE
  8
APS_GEOMETRY
 10
46.248241
 11
58.248241
 20
120.319677
 21
120.319677
  0
LINE
  8
APS_GEOMETRY
 10
58.248241
 11
58.248241
 20
120.319677
 21
117.319677
  0
ENDSEC
  0
EOF
