  0
SECTION
  2
ENTITIES
  0
ARC
  8
APS_GEOMETRY
 10
107.819498
 20
131.947884
 40
1.5
 50
0.000025
 51
73.015655
  0
ARC
  8
APS_GEOMETRY
 10
113.818872
 20
151.590146
 40
19.038036
 50
240.068241
 51
253.015655
  0
ARC
  8
APS_GEOMETRY
 10
100.902831
 20
129.92473
 40
6.194195
 50
56.523722
 51
132.301271
  0
ARC
  8
APS_GEOMETRY
 10
96.397444
 20
134.875865
 40
0.5
 50
213.690068
 51
312.301271
  0
LINE
  8
APS_GEOMETRY
 10
95.981419
 11
94.777992
 20
134.598515
 21
136.403656
  0
ARC
  8
APS_GEOMETRY
 10
93.945942
 20
135.848955
 40
1.0
 50
33.690068
 51
111.865379
  0
ARC
  8
APS_GEOMETRY
 10
84.819498
 20
158.591397
 40
23.505319
 50
240.708638
 51
291.865379
  0
ARC
  8
APS_GEOMETRY
 10
68.694498
 20
128.841397
 40
10.341814
 50
63.434949
 51
132.824217
  0
ARC
  8
APS_GEOMETRY
 10
61.32476
 20
136.793246
 40
0.5
 50
224.999677
 51
312.824217
  0
LINE
  8
APS_GEOMETRY
 10
60.971204
 11
58.612392
 20
136.439694
 21
138.798534
  0
ARC
  8
APS_GEOMETRY
 10
57.905281
 20
138.091431
 40
1.0
 50
44.999677
 51
90.0
  0
LINE
  8
APS_GEOMETRY
 10
57.905281
 11
44.319498
 20
139.091431
 21
139.091431
  0
ARC
  8
APS_GEOMETRY
 10
44.319498
 20
135.091431
 40
4.0
 50
90.0
 51
180.0
  0
LINE
  8
APS_GEOMETRY
 10
40.319498
 11
40.319498
 20
135.091431
 21
126.493619
  0
LINE
  8
APS_GEOMETRY
 10
40.319498
 11
46.319498
 20
126.493619
 21
126.493619
  0
LINE
  8
APS_GEOMETRY
 10
46.319498
 11
46.319498
 20
126.493619
 21
129.493619
  0
LINE
  8
APS_GEOMETRY
 10
46.319498
 11
100.819498
 20
129.493619
 21
129.493619
  0
LINE
  8
APS_GEOMETRY
 10
100.819498
 11
100.819498
 20
129.493619
 21
126.493619
  0
LINE
  8
APS_GEOMETRY
 10
100.819498
 11
105.319498
 20
126.493619
 21
126.493619
  0
LINE
  8
APS_GEOMETRY
 10
105.319498
 11
105.319498
 20
126.493619
 21
115.993619
  0
LINE
  8
APS_GEOMETRY
 10
105.319498
 11
106.293182
 20
115.993619
 21
115.019935
  0
LINE
  8
APS_GEOMETRY
 10
106.293182
 11
109.319498
 20
115.019935
 21
114.493619
  0
LINE
  8
APS_GEOMETRY
 10
109.319498
 11
109.319498
 20
114.493619
 21
132.493619
  0
ENDSEC
  0
EOF
