  0
SECTION
  2
ENTITIES
  0
LINE
  8
APS_GEOMETRY
 10
101.5877
 11
101.5877
 20
131.645
 21
139.645
  0
LINE
  8
APS_GEOMETRY
 10
92.965774
 11
92.5377
 20
148.145
 21
148.145
  0
LINE
  8
APS_GEOMETRY
 10
41.1877
 11
58.1877
 20
135.145
 21
135.145
  0
LINE
  8
APS_GEOMETRY
 10
58.1877
 11
58.1877
 20
135.145
 21
133.145
  0
ARC
  8
APS_GEOMETRY
 10
58.6877
 20
133.145
 40
0.5
 50
180.0
 51
270.0
  0
LINE
  8
APS_GEOMETRY
 10
58.6877
 11
61.1877
 20
132.645
 21
132.645
  0
ARC
  8
APS_GEOMETRY
 10
61.1877
 20
133.145
 40
0.5
 50
270.0
 51
0.0
  0
LINE
  8
APS_GEOMETRY
 10
61.6877
 11
61.6877
 20
133.145
 21
135.145
  0
LINE
  8
APS_GEOMETRY
 10
61.6877
 11
75.6877
 20
135.145
 21
135.145
  0
LINE
  8
APS_GEOMETRY
 10
75.6877
 11
75.6877
 20
135.145
 21
133.145
  0
ARC
  8
APS_GEOMETRY
 10
76.1877
 20
133.145
 40
0.5
 50
180.0
 51
270.0
  0
LINE
  8
APS_GEOMETRY
 10
76.1877
 11
78.6877
 20
132.645
 21
132.645
  0
ARC
  8
APS_GEOMETRY
 10
78.6877
 20
133.145
 40
0.5
 50
270.0
 51
0.0
  0
LINE
  8
APS_GEOMETRY
 10
79.1877
 11
79.1877
 20
133.145
 21
135.145
  0
LINE
  8
APS_GEOMETRY
 10
79.1877
 11
96.1877
 20
135.145
 21
135.145
  0
LINE
  8
APS_GEOMETRY
 10
96.1877
 11
96.1877
 20
135.145
 21
132.145
  0
LINE
  8
APS_GEOMETRY
 10
96.1877
 11
96.6877
 20
132.145
 21
131.645
  0
LINE
  8
APS_GEOMETRY
 10
96.6877
 11
101.5877
 20
131.645
 21
131.645
  0
LINE
  8
APS_GEOMETRY
 10
41.1877
 11
41.1877
 20
135.145
 21
132.645
  0
ARC
  8
APS_GEOMETRY
 10
40.6877
 20
132.645
 40
0.5
 50
270.0
 51
0.0
  0
LINE
  8
APS_GEOMETRY
 10
40.6877
 11
37.1877
 20
132.145
 21
132.145
  0
LINE
  8
APS_GEOMETRY
 10
37.1877
 11
37.1877
 20
132.145
 21
121.145011
  0
ARC
  8
APS_GEOMETRY
 10
36.1877
 20
121.145011
 40
1.0
 50
269.999365
 51
0.0
  0
LINE
  8
APS_GEOMETRY
 10
36.187689
 11
33.687671
 20
120.145011
 21
120.145039
  0
ARC
  8
APS_GEOMETRY
 10
33.687676
 20
120.645039
 40
0.5
 50
179.999912
 51
269.999365
  0
LINE
  8
APS_GEOMETRY
 10
33.187676
 11
33.1877
 20
120.64504
 21
135.937894
  0
ARC
  8
APS_GEOMETRY
 10
33.6877
 20
135.937893
 40
0.5
 50
135.0
 51
179.999912
  0
LINE
  8
APS_GEOMETRY
 10
33.334146
 11
33.986576
 20
136.291446
 21
136.943876
  0
ARC
  8
APS_GEOMETRY
 10
33.633022
 20
137.297429
 40
0.5
 50
315.0
 51
10.503404
  0
ARC
  8
APS_GEOMETRY
 10
39.735407
 20
138.428814
 40
5.706379
 50
17.502575
 51
190.503404
  0
LINE
  8
APS_GEOMETRY
 10
101.5877
 11
101.5877
 20
131.645
 21
138.645
  0
ARC
  8
APS_GEOMETRY
 10
92.751737
 20
139.305092
 40
8.842499
 50
2.203006
 51
134.194175
  0
LINE
  8
APS_GEOMETRY
 10
45.1776
 11
62.1776
 20
140.145
 21
140.145
  0
ARC
  8
APS_GEOMETRY
 10
59.185051
 20
196.216268
 40
56.151068
 50
273.055004
 51
295.528965
  0
ARC
  8
APS_GEOMETRY
 10
83.815294
 20
144.645
 40
1.0
 50
90.0
 51
115.528965
  0
LINE
  8
APS_GEOMETRY
 10
83.815294
 11
86.5877
 20
145.645
 21
145.645
  0
ENDSEC
  0
EOF
