  0
SECTION
  2
ENTITIES
  0
ARC
  8
APS_GEOMETRY
 10
111.636596
 20
137.13888
 40
3.84375
 50
12.680383
 51
167.319617
  0
LINE
  8
APS_GEOMETRY
 10
125.778607
 11
126.278607
 20
131.658741
 21
132.158741
  0
LINE
  8
APS_GEOMETRY
 10
126.278607
 11
126.278607
 20
132.158741
 21
137.884157
  0
ARC
  8
APS_GEOMETRY
 10
125.778607
 20
137.884157
 40
0.5
 50
0.0
 51
90.0
  0
LINE
  8
APS_GEOMETRY
 10
125.778607
 11
125.678957
 20
138.384157
 21
138.384157
  0
ARC
  8
APS_GEOMETRY
 10
125.678957
 20
142.384157
 40
4.0
 50
219.399417
 51
270.0
  0
ARC
  8
APS_GEOMETRY
 10
120.037955
 20
137.750682
 40
3.3
 50
39.399417
 51
168.894397
  0
ARC
  8
APS_GEOMETRY
 10
116.309114
 20
138.48263
 40
0.5
 50
270.0
 51
348.894397
  0
LINE
  8
APS_GEOMETRY
 10
116.309114
 11
106.964077
 20
137.98263
 21
137.98263
  0
ARC
  8
APS_GEOMETRY
 10
106.964077
 20
138.48263
 40
0.5
 50
195.92213
 51
270.0
  0
ARC
  8
APS_GEOMETRY
 10
95.443865
 20
135.1962
 40
11.479812
 50
15.92213
 51
29.487359
  0
ARC
  8
APS_GEOMETRY
 10
90.814505
 20
132.578382
 40
16.798077
 50
29.487359
 51
53.777335
  0
ARC
  8
APS_GEOMETRY
 10
87.790546
 20
128.450093
 40
21.915411
 50
53.777335
 51
73.121668
  0
ARC
  8
APS_GEOMETRY
 10
85.814377
 20
121.9369
 40
28.721799
 50
73.121668
 51
106.878332
  0
ARC
  8
APS_GEOMETRY
 10
83.838208
 20
128.450093
 40
21.915411
 50
106.878332
 51
126.222665
  0
ARC
  8
APS_GEOMETRY
 10
80.814248
 20
132.578382
 40
16.798077
 50
126.222665
 51
150.512641
  0
ARC
  8
APS_GEOMETRY
 10
76.184888
 20
135.1962
 40
11.479812
 50
150.512641
 51
177.607958
  0
ARC
  8
APS_GEOMETRY
 10
64.215515
 20
135.6962
 40
0.5
 50
270.0
 51
357.607958
  0
LINE
  8
APS_GEOMETRY
 10
64.215515
 11
50.016775
 20
135.1962
 21
135.1962
  0
ARC
  8
APS_GEOMETRY
 10
50.016775
 20
134.6962
 40
0.5
 50
90.0
 51
152.188178
  0
ARC
  8
APS_GEOMETRY
 10
40.729686
 20
139.595176
 40
10.0
 50
270.266774
 51
332.188178
  0
ARC
  8
APS_GEOMETRY
 10
40.778574
 20
129.09529
 40
0.5
 50
90.266774
 51
180.0
  0
LINE
  8
APS_GEOMETRY
 10
40.278574
 11
40.278574
 20
129.09529
 21
116.1587
  0
ARC
  8
APS_GEOMETRY
 10
40.778574
 20
116.1587
 40
0.5
 50
180.0
 51
270.0
  0
LINE
  8
APS_GEOMETRY
 10
40.778574
 11
117.278607
 20
115.6587
 21
115.6587
  0
LINE
  8
APS_GEOMETRY
 10
125.778607
 11
126.278607
 20
131.658741
 21
131.158741
  0
LINE
  8
APS_GEOMETRY
 10
126.278607
 11
126.278607
 20
131.158741
 21
103.658741
  0
LINE
  8
APS_GEOMETRY
 10
126.278607
 11
122.778607
 20
103.658741
 21
103.658741
  0
LINE
  8
APS_GEOMETRY
 10
122.778607
 11
122.278607
 20
103.658741
 21
104.158741
  0
LINE
  8
APS_GEOMETRY
 10
122.278607
 11
122.278607
 20
104.158741
 21
115.6587
  0
LINE
  8
APS_GEOMETRY
 10
122.278607
 11
117.278607
 20
115.6587
 21
115.6587
  0
ENDSEC
  0
EOF
