  0
SECTION
  2
ENTITIES
  0
ARC
  8
0
 10
114.469294
 20
140.210626
 40
1.3
 50
0.0
 51
90.0
  0
LINE
  8
0
 10
114.469294
 11
114.274733
 20
141.510626
 21
144.080994
  0
ARC
  8
0
 10
106.796127
 20
143.51491
 40
7.5
 50
4.328682
 51
164.533988
  0
LINE
  8
0
 10
99.567711
 11
86.261261
 20
145.51491
 21
145.51491
  0
ARC
  8
0
 10
86.261261
 20
220.51491
 40
75.0
 50
241.934332
 51
270.0
  0
ARC
  8
0
 10
50.269294
 20
153.010626
 40
1.5
 50
61.934332
 51
90.0
  0
LINE
  8
0
 10
50.269294
 11
47.136791
 20
154.510626
 21
154.510626
  0
ARC
  8
0
 10
37.769294
 20
147.010626
 40
12.0
 50
38.682187
 51
180.0
  0
LINE
  8
APS_GEOMETRY
 10
25.769294
 11
25.769294
 20
147.010626
 21
131.510626
  0
LINE
  8
APS_GEOMETRY
 10
25.769294
 11
26.269294
 20
131.510626
 21
131.010626
  0
LINE
  8
APS_GEOMETRY
 10
26.269294
 11
36.769294
 20
131.010626
 21
131.010626
  0
LINE
  8
APS_GEOMETRY
 10
36.769294
 11
36.769294
 20
131.010626
 21
134.010626
  0
LINE
  8
APS_GEOMETRY
 10
36.769294
 11
58.269294
 20
134.010626
 21
134.010626
  0
LINE
  8
APS_GEOMETRY
 10
58.269294
 11
58.269294
 20
134.010626
 21
131.010626
  0
LINE
  8
APS_GEOMETRY
 10
58.269294
 11
61.769294
 20
131.010626
 21
131.010626
  0
LINE
  8
APS_GEOMETRY
 10
61.769294
 11
61.769294
 20
131.010626
 21
134.010626
  0
LINE
  8
APS_GEOMETRY
 10
61.769294
 11
82.269294
 20
134.010626
 21
134.010626
  0
LINE
  8
APS_GEOMETRY
 10
82.269294
 11
82.269294
 20
134.010626
 21
131.010626
  0
LINE
  8
APS_GEOMETRY
 10
82.269294
 11
85.769294
 20
131.010626
 21
131.010626
  0
LINE
  8
APS_GEOMETRY
 10
85.769294
 11
85.769294
 20
131.010626
 21
134.010626
  0
LINE
  8
APS_GEOMETRY
 10
85.769294
 11
107.269294
 20
134.010626
 21
134.010626
  0
LINE
  8
APS_GEOMETRY
 10
107.269294
 11
107.269294
 20
134.010626
 21
131.010626
  0
LINE
  8
APS_GEOMETRY
 10
107.269294
 11
111.769294
 20
131.010626
 21
131.010626
  0
LINE
  8
APS_GEOMETRY
 10
111.769294
 11
111.769294
 20
131.010626
 21
120.510626
  0
LINE
  8
APS_GEOMETRY
 10
111.769294
 11
112.742979
 20
120.510626
 21
119.536942
  0
LINE
  8
APS_GEOMETRY
 10
112.742979
 11
115.769294
 20
119.536942
 21
119.010626
  0
LINE
  8
APS_GEOMETRY
 10
115.769294
 11
115.769294
 20
119.010626
 21
140.210626
  0
ENDSEC
  0
EOF
