  0
SECTION
  2
ENTITIES
  0
LINE
  8
APS_GEOMETRY
 10
0.0
 11
280.0
 20
0.0
 21
0.0
  0
LINE
  8
APS_GEOMETRY
 10
280.0
 11
280.0
 20
0.0
 21
200.0
  0
LINE
  8
APS_GEOMETRY
 10
280.0
 11
0.0
 20
200.0
 21
200.0
  0
LINE
  8
APS_GEOMETRY
 10
0.0
 11
0.0
 20
200.0
 21
0.0
  0
LINE
  8
COSTRUZIONI
 10
0.0
 11
280.0
 20
60.0
 21
60.0
  0
LINE
  8
COSTRUZIONI
 10
31.1
 11
31.1
 20
60.0
 21
0.0
  0
LINE
  8
COSTRUZIONI
 10
62.2
 11
62.2
 20
60.0
 21
0.0
  0
LINE
  8
COSTRUZIONI
 10
93.3
 11
93.3
 20
60.0
 21
0.0
  0
LINE
  8
COSTRUZIONI
 10
124.4
 11
124.4
 20
60.0
 21
0.0
  0
LINE
  8
COSTRUZIONI
 10
155.5
 11
155.5
 20
60.0
 21
0.0
  0
LINE
  8
COSTRUZIONI
 10
186.6
 11
186.6
 20
60.0
 21
0.0
  0
LINE
  8
COSTRUZIONI
 10
217.7
 11
217.7
 20
60.0
 21
0.0
  0
LINE
  8
COSTRUZIONI
 10
248.8
 11
248.8
 20
60.0
 21
0.0
  0
LINE
  8
COSTRUZIONI
 10
280.0
 11
0.0
 20
188.0
 21
188.0
  0
LINE
  8
COSTRUZIONI
 10
166.0
 11
166.0
 20
120.0
 21
188.0
  0
LINE
  8
COSTRUZIONI
 10
184.0
 11
184.0
 20
120.0
 21
188.0
  0
LINE
  8
COSTRUZIONI
 10
202.0
 11
202.0
 20
120.0
 21
188.0
  0
LINE
  8
COSTRUZIONI
 10
220.0
 11
220.0
 20
120.0
 21
188.0
  0
LINE
  8
COSTRUZIONI
 10
250.0
 11
250.0
 20
120.0
 21
188.0
  0
LINE
  8
COSTRUZIONI
 10
280.0
 11
166.0
 20
168.0
 21
168.0
  0
LINE
  8
COSTRUZIONI
 10
280.0
 11
166.0
 20
156.0
 21
156.0
  0
LINE
  8
COSTRUZIONI
 10
280.0
 11
166.0
 20
144.0
 21
144.0
  0
LINE
  8
COSTRUZIONI
 10
280.0
 11
166.0
 20
132.0
 21
132.0
  0
LINE
  8
COSTRUZIONI
 10
280.0
 11
166.0
 20
120.0
 21
120.0
  0
LINE
  8
APS_GEOMETRY
 10
68.664
 11
175.964
 20
330.471
 21
330.471
  0
LINE
  8
APS_GEOMETRY
 10
175.964
 11
175.964
 20
330.471
 21
334.471
  0
LINE
  8
APS_GEOMETRY
 10
175.964
 11
158.664
 20
334.471
 21
334.471
  0
LINE
  8
APS_GEOMETRY
 10
158.664
 11
158.664
 20
334.471
 21
337.971
  0
LINE
  8
APS_GEOMETRY
 10
158.664
 11
175.964
 20
337.971
 21
337.971
  0
LINE
  8
APS_GEOMETRY
 10
175.964
 11
175.964
 20
337.971
 21
358.471
  0
ARC
  8
APS_GEOMETRY
 10
173.964
 20
358.471
 40
2.0
 50
0.0
 51
90.0
  0
LINE
  8
APS_GEOMETRY
 10
173.964
 11
143.464
 20
360.471
 21
360.471
  0
LINE
  8
APS_GEOMETRY
 10
143.464
 11
143.464
 20
360.471
 21
363.771
  0
LINE
  8
APS_GEOMETRY
 10
143.464
 11
137.464
 20
363.771
 21
363.771
  0
LINE
  8
APS_GEOMETRY
 10
137.464
 11
137.464
 20
363.771
 21
366.771
  0
LINE
  8
APS_GEOMETRY
 10
137.464
 11
143.464
 20
366.771
 21
366.771
  0
LINE
  8
APS_GEOMETRY
 10
143.464
 11
143.464
 20
366.771
 21
368.471
  0
ARC
  8
APS_GEOMETRY
 10
141.464
 20
368.471
 40
2.0
 50
0.0
 51
90.0
  0
LINE
  8
APS_GEOMETRY
 10
141.464
 11
70.664
 20
370.471
 21
370.471
  0
ARC
  8
APS_GEOMETRY
 10
70.664
 20
368.471
 40
2.0
 50
90.0
 51
180.0
  0
LINE
  8
APS_GEOMETRY
 10
68.664
 11
68.664
 20
368.471
 21
360.471
  0
LINE
  8
APS_GEOMETRY
 10
68.664
 11
68.664
 20
356.771
 21
338.171
  0
LINE
  8
APS_GEOMETRY
 10
68.664
 11
85.964
 20
338.171
 21
338.171
  0
LINE
  8
APS_GEOMETRY
 10
85.964
 11
85.964
 20
338.171
 21
334.471
  0
LINE
  8
APS_GEOMETRY
 10
85.964
 11
68.664
 20
334.471
 21
334.471
  0
LINE
  8
APS_GEOMETRY
 10
68.664
 11
68.664
 20
334.471
 21
330.471
  0
LINE
  8
APS_GEOMETRY
 10
68.664
 11
85.964
 20
360.471
 21
360.471
  0
LINE
  8
APS_GEOMETRY
 10
85.964
 11
85.964
 20
360.471
 21
356.771
  0
LINE
  8
APS_GEOMETRY
 10
85.964
 11
68.664
 20
356.771
 21
356.771
  0
LINE
  8
QUOTATURA
 10
118.553
 11
118.553
 20
126.045
 21
118.49
  0
LINE
  8
QUOTATURA
 10
128.553
 11
115.122
 20
119.99
 21
119.99
  0
LINE
  8
QUOTATURA
 10
125.553
 11
128.553
 20
119.49
 21
119.99
  0
LINE
  8
QUOTATURA
 10
128.553
 11
125.553
 20
119.99
 21
120.49
  0
LINE
  8
QUOTATURA
 10
125.553
 11
125.553
 20
120.49
 21
119.49
  0
LINE
  8
QUOTATURA
 10
121.553
 11
118.553
 20
120.49
 21
119.99
  0
LINE
  8
QUOTATURA
 10
118.553
 11
121.553
 20
119.99
 21
119.49
  0
LINE
  8
QUOTATURA
 10
121.553
 11
121.553
 20
119.49
 21
120.49
  0
LINE
  8
QUOTATURA
 10
78.553
 11
78.553
 20
126.045
 21
117.449
  0
LINE
  8
QUOTATURA
 10
38.553
 11
38.553
 20
126.045
 21
117.449
  0
LINE
  8
QUOTATURA
 10
78.553
 11
61.987
 20
118.949
 21
118.949
  0
LINE
  8
QUOTATURA
 10
55.118
 11
38.553
 20
118.949
 21
118.949
  0
LINE
  8
QUOTATURA
 10
75.553
 11
78.553
 20
118.449
 21
118.949
  0
LINE
  8
QUOTATURA
 10
78.553
 11
75.553
 20
118.949
 21
119.449
  0
LINE
  8
QUOTATURA
 10
75.553
 11
75.553
 20
119.449
 21
118.449
  0
LINE
  8
QUOTATURA
 10
41.553
 11
38.553
 20
119.449
 21
118.949
  0
LINE
  8
QUOTATURA
 10
38.553
 11
41.553
 20
118.949
 21
118.449
  0
LINE
  8
QUOTATURA
 10
41.553
 11
41.553
 20
118.449
 21
119.449
  0
LINE
  8
QUOTATURA
 10
74.553
 11
74.553
 20
126.545
 21
122.775
  0
LINE
  8
QUOTATURA
 10
70.853
 11
70.853
 20
126.545
 21
122.775
  0
LINE
  8
QUOTATURA
 10
74.553
 11
82.785
 20
123.775
 21
123.775
  0
LINE
  8
QUOTATURA
 10
76.553
 11
74.553
 20
124.108
 21
123.775
  0
LINE
  8
QUOTATURA
 10
74.553
 11
76.553
 20
123.775
 21
123.442
  0
LINE
  8
QUOTATURA
 10
76.553
 11
76.553
 20
123.442
 21
124.108
  0
LINE
  8
QUOTATURA
 10
70.853
 11
66.853
 20
123.775
 21
123.775
  0
LINE
  8
QUOTATURA
 10
68.853
 11
70.853
 20
123.442
 21
123.775
  0
LINE
  8
QUOTATURA
 10
70.853
 11
68.853
 20
123.775
 21
124.108
  0
LINE
  8
QUOTATURA
 10
68.853
 11
68.853
 20
124.108
 21
123.442
  0
LINE
  8
QUOTATURA
 10
70.853
 11
70.853
 20
128.545
 21
131.21
  0
LINE
  8
QUOTATURA
 10
52.253
 11
52.253
 20
128.545
 21
131.21
  0
LINE
  8
QUOTATURA
 10
70.853
 11
64.536
 20
130.21
 21
130.21
  0
LINE
  8
QUOTATURA
 10
58.569
 11
52.253
 20
130.21
 21
130.21
  0
LINE
  8
QUOTATURA
 10
68.853
 11
70.853
 20
129.876
 21
130.21
  0
LINE
  8
QUOTATURA
 10
70.853
 11
68.853
 20
130.21
 21
130.543
  0
LINE
  8
QUOTATURA
 10
68.853
 11
68.853
 20
130.543
 21
129.876
  0
LINE
  8
QUOTATURA
 10
54.253
 11
52.253
 20
130.543
 21
130.21
  0
LINE
  8
QUOTATURA
 10
52.253
 11
54.253
 20
130.21
 21
129.876
  0
LINE
  8
QUOTATURA
 10
54.253
 11
54.253
 20
129.876
 21
130.543
  0
LINE
  8
QUOTATURA
 10
48.553
 11
48.553
 20
126.545
 21
123.059
  0
LINE
  8
QUOTATURA
 10
38.553
 11
38.553
 20
126.545
 21
123.059
  0
LINE
  8
QUOTATURA
 10
48.553
 11
45.382
 20
124.059
 21
124.059
  0
LINE
  8
QUOTATURA
 10
41.723
 11
38.553
 20
124.059
 21
124.059
  0
LINE
  8
QUOTATURA
 10
46.553
 11
48.553
 20
123.725
 21
124.059
  0
LINE
  8
QUOTATURA
 10
48.553
 11
46.553
 20
124.059
 21
124.392
  0
LINE
  8
QUOTATURA
 10
46.553
 11
46.553
 20
124.392
 21
123.725
  0
LINE
  8
QUOTATURA
 10
40.553
 11
38.553
 20
124.392
 21
124.059
  0
LINE
  8
QUOTATURA
 10
38.553
 11
40.553
 20
124.059
 21
123.725
  0
LINE
  8
QUOTATURA
 10
40.553
 11
40.553
 20
123.725
 21
124.392
  0
LINE
  8
QUOTATURA
 10
40.553
 11
40.553
 20
129.212
 21
129.879
  0
LINE
  8
QUOTATURA
 10
40.886
 11
40.219
 20
129.545
 21
129.545
  0
LINE
  8
QUOTATURA
 10
40.553
 11
33.638
 20
129.545
 21
125.005
  0
LINE
  8
QUOTATURA
 10
33.638
 11
29.984
 20
125.005
 21
125.005
  0
LINE
  8
QUOTATURA
 10
37.392
 11
38.881
 20
127.071
 21
128.447
  0
LINE
  8
QUOTATURA
 10
38.881
 11
37.026
 20
128.447
 21
127.628
  0
LINE
  8
QUOTATURA
 10
37.026
 11
37.392
 20
127.628
 21
127.071
  0
LINE
  8
QUOTATURA
 10
42.553
 11
42.553
 20
133.212
 21
133.879
  0
LINE
  8
QUOTATURA
 10
42.886
 11
42.219
 20
133.545
 21
133.545
  0
LINE
  8
QUOTATURA
 10
42.553
 11
36.677
 20
133.545
 21
138.821
  0
LINE
  8
QUOTATURA
 10
36.677
 11
33.776
 20
138.821
 21
138.821
  0
LINE
  8
QUOTATURA
 10
37.865
 11
39.576
 20
137.306
 21
136.217
  0
LINE
  8
QUOTATURA
 10
39.576
 11
38.311
 20
136.217
 21
137.802
  0
LINE
  8
QUOTATURA
 10
38.311
 11
37.865
 20
137.802
 21
137.306
  0
LINE
  8
QUOTATURA
 10
124.553
 11
124.553
 20
133.212
 21
133.879
  0
LINE
  8
QUOTATURA
 10
124.886
 11
124.219
 20
133.545
 21
133.545
  0
LINE
  8
QUOTATURA
 10
124.553
 11
130.819
 20
133.545
 21
139.294
  0
LINE
  8
QUOTATURA
 10
130.819
 11
132.602
 20
139.294
 21
139.294
  0
LINE
  8
QUOTATURA
 10
128.749
 11
127.5
 20
137.847
 21
136.249
  0
LINE
  8
QUOTATURA
 10
127.5
 11
129.199
 20
136.249
 21
137.356
  0
LINE
  8
QUOTATURA
 10
129.199
 11
128.749
 20
137.356
 21
137.847
  0
LINE
  8
QUOTATURA
 10
130.053
 11
141.982
 20
127.545
 21
127.545
  0
LINE
  8
QUOTATURA
 10
130.053
 11
141.982
 20
137.545
 21
137.545
  0
LINE
  8
QUOTATURA
 10
140.482
 11
140.482
 20
127.545
 21
143.985
  0
LINE
  8
QUOTATURA
 10
140.482
 11
143.043
 20
143.985
 21
143.985
  0
LINE
  8
QUOTATURA
 10
139.982
 11
140.482
 20
130.545
 21
127.545
  0
LINE
  8
QUOTATURA
 10
140.482
 11
140.982
 20
127.545
 21
130.545
  0
LINE
  8
QUOTATURA
 10
140.982
 11
139.982
 20
130.545
 21
130.545
  0
LINE
  8
QUOTATURA
 10
140.982
 11
140.482
 20
134.545
 21
137.545
  0
LINE
  8
QUOTATURA
 10
140.482
 11
139.982
 20
137.545
 21
134.545
  0
LINE
  8
QUOTATURA
 10
139.982
 11
140.982
 20
134.545
 21
134.545
  0
ARC
  8
APS_GEOMETRY
 10
66.664
 20
368.471
 40
2.0
 50
360.0
 51
90.0
  0
LINE
  8
APS_GEOMETRY
 10
66.664
 11
62.664
 20
370.471
 21
370.471
  0
ARC
  8
APS_GEOMETRY
 10
62.664
 20
366.471
 40
4.0
 50
90.0
 51
180.0
  0
LINE
  8
APS_GEOMETRY
 10
58.664
 11
58.664
 20
366.471
 21
284.471
  0
ARC
  8
APS_GEOMETRY
 10
62.664
 20
284.471
 40
4.0
 50
180.0
 51
270.0
  0
LINE
  8
APS_GEOMETRY
 10
62.664
 11
68.664
 20
280.471
 21
280.471
  0
LINE
  8
APS_GEOMETRY
 10
68.664
 11
68.664
 20
280.471
 21
290.471
  0
LINE
  8
APS_GEOMETRY
 10
68.664
 11
65.664
 20
290.471
 21
290.471
  0
LINE
  8
APS_GEOMETRY
 10
65.664
 11
65.664
 20
290.471
 21
330.471
  0
LINE
  8
APS_GEOMETRY
 10
65.664
 11
68.664
 20
330.471
 21
330.471
  0
LINE
  8
APS_GEOMETRY
 10
68.664
 11
68.664
 20
330.471
 21
334.471
  0
LINE
  8
APS_GEOMETRY
 10
68.664
 11
63.664
 20
334.471
 21
334.471
  0
LINE
  8
APS_GEOMETRY
 10
63.664
 11
63.664
 20
334.471
 21
338.171
  0
LINE
  8
APS_GEOMETRY
 10
63.664
 11
68.664
 20
338.171
 21
338.171
  0
LINE
  8
APS_GEOMETRY
 10
68.664
 11
68.664
 20
338.171
 21
356.771
  0
LINE
  8
APS_GEOMETRY
 10
68.664
 11
63.664
 20
356.771
 21
356.771
  0
LINE
  8
APS_GEOMETRY
 10
63.664
 11
63.664
 20
356.771
 21
360.471
  0
LINE
  8
APS_GEOMETRY
 10
63.664
 11
68.664
 20
360.471
 21
360.471
  0
LINE
  8
APS_GEOMETRY
 10
68.664
 11
68.664
 20
360.471
 21
368.471
  0
ARC
  8
APS_GEOMETRY
 10
40.553
 20
129.545
 40
2.0
 50
180.0
 51
270.0
  0
LINE
  8
APS_GEOMETRY
 10
38.553
 11
38.553
 20
129.545
 21
133.545
  0
ARC
  8
APS_GEOMETRY
 10
42.553
 20
133.545
 40
4.0
 50
90.0
 51
180.0
  0
LINE
  8
APS_GEOMETRY
 10
42.553
 11
124.553
 20
137.545
 21
137.545
  0
ARC
  8
APS_GEOMETRY
 10
124.553
 20
133.545
 40
4.0
 50
360.0
 51
90.0
  0
LINE
  8
APS_GEOMETRY
 10
128.553
 11
128.553
 20
133.545
 21
127.545
  0
LINE
  8
APS_GEOMETRY
 10
128.553
 11
118.553
 20
127.545
 21
127.545
  0
LINE
  8
APS_GEOMETRY
 10
118.553
 11
118.553
 20
127.545
 21
130.545
  0
LINE
  8
APS_GEOMETRY
 10
118.553
 11
78.553
 20
130.545
 21
130.545
  0
LINE
  8
APS_GEOMETRY
 10
78.553
 11
78.553
 20
130.545
 21
127.545
  0
LINE
  8
APS_GEOMETRY
 10
78.553
 11
74.553
 20
127.545
 21
127.545
  0
LINE
  8
APS_GEOMETRY
 10
74.553
 11
74.553
 20
127.545
 21
132.545
  0
LINE
  8
APS_GEOMETRY
 10
74.553
 11
70.853
 20
132.545
 21
132.545
  0
LINE
  8
APS_GEOMETRY
 10
70.853
 11
70.853
 20
132.545
 21
127.545
  0
LINE
  8
APS_GEOMETRY
 10
70.853
 11
52.253
 20
127.545
 21
127.545
  0
LINE
  8
APS_GEOMETRY
 10
52.253
 11
52.253
 20
127.545
 21
132.545
  0
LINE
  8
APS_GEOMETRY
 10
52.253
 11
48.553
 20
132.545
 21
132.545
  0
LINE
  8
APS_GEOMETRY
 10
48.553
 11
48.553
 20
132.545
 21
127.545
  0
LINE
  8
APS_GEOMETRY
 10
48.553
 11
40.553
 20
127.545
 21
127.545
  0
LINE
  8
QUOTATURA
 10
128.553
 11
128.553
 20
126.045
 21
109.108
  0
LINE
  8
QUOTATURA
 10
38.553
 11
38.553
 20
126.045
 21
109.108
  0
LINE
  8
QUOTATURA
 10
128.553
 11
86.836
 20
110.608
 21
110.608
  0
LINE
  8
QUOTATURA
 10
80.269
 11
38.553
 20
110.608
 21
110.608
  0
LINE
  8
QUOTATURA
 10
125.553
 11
128.553
 20
110.108
 21
110.608
  0
LINE
  8
QUOTATURA
 10
128.553
 11
125.553
 20
110.608
 21
111.108
  0
LINE
  8
QUOTATURA
 10
125.553
 11
125.553
 20
111.108
 21
110.108
  0
LINE
  8
QUOTATURA
 10
41.553
 11
38.553
 20
111.108
 21
110.608
  0
LINE
  8
QUOTATURA
 10
38.553
 11
41.553
 20
110.608
 21
110.108
  0
LINE
  8
QUOTATURA
 10
41.553
 11
41.553
 20
110.108
 21
111.108
  0
LINE
  8
QUOTATURA
 10
47.553
 11
45.078
 20
127.545
 21
127.545
  0
LINE
  8
QUOTATURA
 10
47.553
 11
45.078
 20
132.545
 21
132.545
  0
LINE
  8
QUOTATURA
 10
46.078
 11
46.078
 20
132.545
 21
145.665
  0
LINE
  8
QUOTATURA
 10
46.078
 11
42.722
 20
145.665
 21
145.665
  0
LINE
  8
QUOTATURA
 10
46.411
 11
46.078
 20
134.545
 21
132.545
  0
LINE
  8
QUOTATURA
 10
46.078
 11
45.744
 20
132.545
 21
134.545
  0
LINE
  8
QUOTATURA
 10
45.744
 11
46.411
 20
134.545
 21
134.545
  0
LINE
  8
QUOTATURA
 10
46.078
 11
46.078
 20
127.545
 21
123.545
  0
LINE
  8
QUOTATURA
 10
45.744
 11
46.078
 20
125.545
 21
127.545
  0
LINE
  8
QUOTATURA
 10
46.078
 11
46.411
 20
127.545
 21
125.545
  0
LINE
  8
QUOTATURA
 10
46.411
 11
45.744
 20
125.545
 21
125.545
  0
TEXT
  8
TEXT
 10
264.35
 20
60.8
 30
0.0
 40
5.0
 50
0.0
  1
1
  0
TEXT
  8
TEXT
 10
202.15
 20
60.8
 30
0.0
 40
5.0
 50
0.0
  1
3
  0
TEXT
  8
TEXT
 10
171.05
 20
60.0
 30
0.0
 40
5.0
 50
0.0
  1
4
  0
TEXT
  8
TEXT
 10
139.95
 20
60.8
 30
0.0
 40
5.0
 50
0.0
  1
5
  0
TEXT
  8
TEXT
 10
108.85
 20
60.8
 30
0.0
 40
5.0
 50
0.0
  1
6
  0
TEXT
  8
TEXT
 10
77.75
 20
60.8
 30
0.0
 40
5.0
 50
0.0
  1
7
  0
TEXT
  8
TEXT
 10
46.65
 20
60.8
 30
0.0
 40
5.0
 50
0.0
  1
8
  0
TEXT
  8
TEXT
 10
15.55
 20
60.8
 30
0.0
 40
5.0
 50
0.0
  1
9
  0
TEXT
  8
TEXT
 10
165.429
 20
112.996
 30
0.0
 40
5.0
 50
0.0
  1
ANNOTAZIONI:
  0
TEXT
  8
TEXT
 10
0.0
 20
188.5
 30
0.0
 40
5.0
 50
0.0
  1
 SZ 90X10 MM    ART. SCORN-COPRIFILO-LISCIO_10X90
  0
TEXT
  8
TEXT
 10
233.25
 20
60.8
 30
0.0
 40
5.0
 50
0.0
  1
2
  0
TEXT
  8
TEXT
 10
222.123
 20
182.119
 30
0.0
 40
4.0
 50
0.0
  1
MISURE
  0
TEXT
  8
TEXT
 10
222.123
 20
176.119
 30
0.0
 40
4.0
 50
0.0
  1
MAGG.
  0
TEXT
  8
TEXT
 10
280.719
 20
69.107
 30
0.0
 40
2.0
 50
-90.0
  1
Toscocornici porte - 0577-685426 - info@toscocornici.it
  0
TEXT
  8
TEXT
 10
277.719
 20
69.107
 30
0.0
 40
2.0
 50
-90.0
  1

  0
TEXT
  8
TEXT
 10
274.719
 20
69.107
 30
0.0
 40
2.0
 50
-90.0
  1

  0
TEXT
  8
QUOTATURA
 10
110.384
 20
118.49
 30
0.0
 40
3.0
 50
0.0
  1
10
  0
TEXT
  8
QUOTATURA
 10
55.778
 20
117.449
 30
0.0
 40
3.0
 50
0.0
  1
40
  0
TEXT
  8
QUOTATURA
 10
83.27
 20
122.775
 30
0.0
 40
2.0
 50
0.0
  1
3.8
  0
TEXT
  8
QUOTATURA
 10
59.069
 20
129.21
 30
0.0
 40
2.0
 50
0.0
  1
18.6
  0
TEXT
  8
QUOTATURA
 10
42.223
 20
123.059
 30
0.0
 40
2.0
 50
0.0
  1
10
  0
TEXT
  8
QUOTATURA
 10
26.284
 20
124.005
 30
0.0
 40
2.0
 50
0.0
  1
R2
  0
TEXT
  8
QUOTATURA
 10
143.793
 20
142.485
 30
0.0
 40
3.0
 50
0.0
  1
10
  0
TEXT
  8
QUOTATURA
 10
81.009
 20
109.108
 30
0.0
 40
3.0
 50
0.0
  1
90
  0
TEXT
  8
QUOTATURA
 10
29.683
 20
137.821
 30
0.0
 40
2.0
 50
0.0
  1
R3
  0
TEXT
  8
QUOTATURA
 10
133.102
 20
138.294
 30
0.0
 40
2.0
 50
0.0
  1
R4
  0
TEXT
  8
QUOTATURA
 10
40.77
 20
144.665
 30
0.0
 40
2.0
 50
0.0
  1
5
  0
ENDSEC
  0
EOF
