  0
SECTION
  2
ENTITIES
  0
LINE
  8
APS_GEOMETRY
 10
0.0
 11
280.0
 20
0.0
 21
0.0
  0
LINE
  8
APS_GEOMETRY
 10
280.0
 11
280.0
 20
0.0
 21
200.0
  0
LINE
  8
APS_GEOMETRY
 10
280.0
 11
0.0
 20
200.0
 21
200.0
  0
LINE
  8
APS_GEOMETRY
 10
0.0
 11
0.0
 20
200.0
 21
0.0
  0
LINE
  8
COSTRUZIONI
 10
0.0
 11
280.0
 20
60.0
 21
60.0
  0
LINE
  8
COSTRUZIONI
 10
31.1
 11
31.1
 20
60.0
 21
0.0
  0
LINE
  8
COSTRUZIONI
 10
62.2
 11
62.2
 20
60.0
 21
0.0
  0
LINE
  8
COSTRUZIONI
 10
93.3
 11
93.3
 20
60.0
 21
0.0
  0
LINE
  8
COSTRUZIONI
 10
124.4
 11
124.4
 20
60.0
 21
0.0
  0
LINE
  8
COSTRUZIONI
 10
155.5
 11
155.5
 20
60.0
 21
0.0
  0
LINE
  8
COSTRUZIONI
 10
186.6
 11
186.6
 20
60.0
 21
0.0
  0
LINE
  8
COSTRUZIONI
 10
217.7
 11
217.7
 20
60.0
 21
0.0
  0
LINE
  8
COSTRUZIONI
 10
248.8
 11
248.8
 20
60.0
 21
0.0
  0
LINE
  8
COSTRUZIONI
 10
280.0
 11
0.0
 20
188.0
 21
188.0
  0
LINE
  8
COSTRUZIONI
 10
166.0
 11
166.0
 20
120.0
 21
188.0
  0
LINE
  8
COSTRUZIONI
 10
184.0
 11
184.0
 20
120.0
 21
188.0
  0
LINE
  8
COSTRUZIONI
 10
202.0
 11
202.0
 20
120.0
 21
188.0
  0
LINE
  8
COSTRUZIONI
 10
220.0
 11
220.0
 20
120.0
 21
188.0
  0
LINE
  8
COSTRUZIONI
 10
250.0
 11
250.0
 20
120.0
 21
188.0
  0
LINE
  8
COSTRUZIONI
 10
280.0
 11
166.0
 20
168.0
 21
168.0
  0
LINE
  8
COSTRUZIONI
 10
280.0
 11
166.0
 20
156.0
 21
156.0
  0
LINE
  8
COSTRUZIONI
 10
280.0
 11
166.0
 20
144.0
 21
144.0
  0
LINE
  8
COSTRUZIONI
 10
280.0
 11
166.0
 20
132.0
 21
132.0
  0
LINE
  8
COSTRUZIONI
 10
280.0
 11
166.0
 20
120.0
 21
120.0
  0
ARC
  8
APS_GEOMETRY
 10
127.922
 20
128.143
 40
2.0
 50
0.0
 51
90.0
  0
LINE
  8
APS_GEOMETRY
 10
127.922
 11
102.667
 20
130.143
 21
130.143
  0
ARC
  8
APS_GEOMETRY
 10
102.667
 20
290.143
 40
160.0
 50
250.011
 51
270.0
  0
ARC
  8
APS_GEOMETRY
 10
45.922
 20
134.143
 40
6.0
 50
70.011
 51
180.0
  0
LINE
  8
APS_GEOMETRY
 10
39.922
 11
39.922
 20
134.143
 21
120.643
  0
LINE
  8
APS_GEOMETRY
 10
39.922
 11
40.422
 20
120.643
 21
120.143
  0
LINE
  8
APS_GEOMETRY
 10
40.422
 11
50.922
 20
120.143
 21
120.143
  0
LINE
  8
APS_GEOMETRY
 10
50.922
 11
50.922
 20
120.143
 21
123.143
  0
LINE
  8
APS_GEOMETRY
 10
50.922
 11
72.422
 20
123.143
 21
123.143
  0
LINE
  8
APS_GEOMETRY
 10
72.422
 11
72.422
 20
123.143
 21
120.143
  0
LINE
  8
APS_GEOMETRY
 10
72.422
 11
75.922
 20
120.143
 21
120.143
  0
LINE
  8
APS_GEOMETRY
 10
75.922
 11
75.922
 20
120.143
 21
123.143
  0
LINE
  8
APS_GEOMETRY
 10
75.922
 11
96.422
 20
123.143
 21
123.143
  0
LINE
  8
APS_GEOMETRY
 10
96.422
 11
96.422
 20
123.143
 21
120.143
  0
LINE
  8
APS_GEOMETRY
 10
96.422
 11
99.922
 20
120.143
 21
120.143
  0
LINE
  8
APS_GEOMETRY
 10
99.922
 11
99.922
 20
120.143
 21
123.143
  0
LINE
  8
APS_GEOMETRY
 10
99.922
 11
121.422
 20
123.143
 21
123.143
  0
LINE
  8
APS_GEOMETRY
 10
121.422
 11
121.422
 20
123.143
 21
120.143
  0
LINE
  8
APS_GEOMETRY
 10
121.422
 11
125.922
 20
120.143
 21
120.143
  0
LINE
  8
APS_GEOMETRY
 10
125.922
 11
125.922
 20
120.143
 21
109.643
  0
LINE
  8
APS_GEOMETRY
 10
125.922
 11
126.896
 20
109.643
 21
108.67
  0
LINE
  8
APS_GEOMETRY
 10
126.896
 11
129.922
 20
108.67
 21
108.143
  0
LINE
  8
APS_GEOMETRY
 10
129.922
 11
129.922
 20
108.143
 21
128.143
  0
LINE
  8
QUOTATURA
 10
40.422
 11
29.687
 20
120.143
 21
120.143
  0
LINE
  8
QUOTATURA
 10
45.922
 11
29.687
 20
140.143
 21
140.143
  0
LINE
  8
QUOTATURA
 10
29.687
 11
29.687
 20
120.143
 21
127.857
  0
LINE
  8
QUOTATURA
 10
29.687
 11
29.687
 20
132.403
 21
140.143
  0
LINE
  8
QUOTATURA
 10
30.187
 11
29.687
 20
123.143
 21
120.143
  0
LINE
  8
QUOTATURA
 10
29.687
 11
29.187
 20
120.143
 21
123.143
  0
LINE
  8
QUOTATURA
 10
29.187
 11
30.187
 20
123.143
 21
123.143
  0
LINE
  8
QUOTATURA
 10
29.187
 11
29.687
 20
137.143
 21
140.143
  0
LINE
  8
QUOTATURA
 10
29.687
 11
30.187
 20
140.143
 21
137.143
  0
LINE
  8
QUOTATURA
 10
30.187
 11
29.187
 20
137.143
 21
137.143
  0
LINE
  8
QUOTATURA
 10
39.922
 11
39.922
 20
120.643
 21
99.501
  0
LINE
  8
QUOTATURA
 10
129.922
 11
129.922
 20
108.143
 21
99.501
  0
LINE
  8
QUOTATURA
 10
39.922
 11
81.638
 20
99.501
 21
99.501
  0
LINE
  8
QUOTATURA
 10
88.206
 11
129.922
 20
99.501
 21
99.501
  0
LINE
  8
QUOTATURA
 10
42.922
 11
39.922
 20
99.001
 21
99.501
  0
LINE
  8
QUOTATURA
 10
39.922
 11
42.922
 20
99.501
 21
100.001
  0
LINE
  8
QUOTATURA
 10
42.922
 11
42.922
 20
100.001
 21
99.001
  0
LINE
  8
QUOTATURA
 10
126.922
 11
129.922
 20
100.001
 21
99.501
  0
LINE
  8
QUOTATURA
 10
129.922
 11
126.922
 20
99.501
 21
99.001
  0
LINE
  8
QUOTATURA
 10
126.922
 11
126.922
 20
99.001
 21
100.001
  0
LINE
  8
QUOTATURA
 10
125.922
 11
125.922
 20
109.643
 21
103.939
  0
LINE
  8
QUOTATURA
 10
129.922
 11
129.922
 20
108.143
 21
103.939
  0
LINE
  8
QUOTATURA
 10
125.922
 11
120.7
 20
103.939
 21
103.939
  0
LINE
  8
QUOTATURA
 10
123.922
 11
125.922
 20
104.272
 21
103.939
  0
LINE
  8
QUOTATURA
 10
125.922
 11
123.922
 20
103.939
 21
103.605
  0
LINE
  8
QUOTATURA
 10
123.922
 11
123.922
 20
103.605
 21
104.272
  0
LINE
  8
QUOTATURA
 10
129.922
 11
133.922
 20
103.939
 21
103.939
  0
LINE
  8
QUOTATURA
 10
131.922
 11
129.922
 20
103.605
 21
103.939
  0
LINE
  8
QUOTATURA
 10
129.922
 11
131.922
 20
103.939
 21
104.272
  0
LINE
  8
QUOTATURA
 10
131.922
 11
131.922
 20
104.272
 21
103.605
  0
LINE
  8
QUOTATURA
 10
129.922
 11
118.048
 20
108.143
 21
108.143
  0
LINE
  8
QUOTATURA
 10
125.922
 11
118.048
 20
120.143
 21
120.143
  0
LINE
  8
QUOTATURA
 10
118.048
 11
118.048
 20
108.143
 21
112.643
  0
LINE
  8
QUOTATURA
 10
118.048
 11
118.048
 20
115.65
 21
120.143
  0
LINE
  8
QUOTATURA
 10
118.381
 11
118.048
 20
110.143
 21
108.143
  0
LINE
  8
QUOTATURA
 10
118.048
 11
117.714
 20
108.143
 21
110.143
  0
LINE
  8
QUOTATURA
 10
117.714
 11
118.381
 20
110.143
 21
110.143
  0
LINE
  8
QUOTATURA
 10
117.714
 11
118.048
 20
118.143
 21
120.143
  0
LINE
  8
QUOTATURA
 10
118.048
 11
118.381
 20
120.143
 21
118.143
  0
LINE
  8
QUOTATURA
 10
118.381
 11
117.714
 20
118.143
 21
118.143
  0
LINE
  8
QUOTATURA
 10
45.922
 11
141.1
 20
140.143
 21
140.143
  0
LINE
  8
QUOTATURA
 10
129.922
 11
141.1
 20
108.143
 21
108.143
  0
LINE
  8
QUOTATURA
 10
141.1
 11
141.1
 20
140.143
 21
125.65
  0
LINE
  8
QUOTATURA
 10
141.1
 11
141.1
 20
122.643
 21
108.143
  0
LINE
  8
QUOTATURA
 10
140.766
 11
141.1
 20
138.143
 21
140.143
  0
LINE
  8
QUOTATURA
 10
141.1
 11
141.433
 20
140.143
 21
138.143
  0
LINE
  8
QUOTATURA
 10
141.433
 11
140.766
 20
138.143
 21
138.143
  0
LINE
  8
QUOTATURA
 10
141.433
 11
141.1
 20
110.143
 21
108.143
  0
LINE
  8
QUOTATURA
 10
141.1
 11
140.766
 20
108.143
 21
110.143
  0
LINE
  8
QUOTATURA
 10
140.766
 11
141.433
 20
110.143
 21
110.143
  0
TEXT
  8
TEXT
 10
264.35
 20
60.8
 30
0.0
 40
5.0
 50
0.0
  1
1
  0
TEXT
  8
TEXT
 10
202.15
 20
60.8
 30
0.0
 40
5.0
 50
0.0
  1
3
  0
TEXT
  8
TEXT
 10
171.05
 20
60.0
 30
0.0
 40
5.0
 50
0.0
  1
4
  0
TEXT
  8
TEXT
 10
139.95
 20
60.8
 30
0.0
 40
5.0
 50
0.0
  1
5
  0
TEXT
  8
TEXT
 10
108.85
 20
60.8
 30
0.0
 40
5.0
 50
0.0
  1
6
  0
TEXT
  8
TEXT
 10
77.75
 20
60.8
 30
0.0
 40
5.0
 50
0.0
  1
7
  0
TEXT
  8
TEXT
 10
46.65
 20
60.8
 30
0.0
 40
5.0
 50
0.0
  1
8
  0
TEXT
  8
TEXT
 10
15.55
 20
60.8
 30
0.0
 40
5.0
 50
0.0
  1
9
  0
TEXT
  8
TEXT
 10
165.429
 20
112.996
 30
0.0
 40
4.5
 50
0.0
  1
ANNOTAZIONI:
  0
TEXT
  8
TEXT
 10
0.0
 20
188.5
 30
0.0
 40
5.0
 50
0.0
  1
 SZ 90X32 MM    ART. SCORN-CS204_32X90
  0
TEXT
  8
TEXT
 10
233.25
 20
60.8
 30
0.0
 40
5.0
 50
0.0
  1
2
  0
TEXT
  8
TEXT
 10
222.123
 20
182.119
 30
0.0
 40
4.0
 50
0.0
  1
MISURE
  0
TEXT
  8
TEXT
 10
222.123
 20
176.119
 30
0.0
 40
4.0
 50
0.0
  1
MAGG.
  0
TEXT
  8
TEXT
 10
280.719
 20
69.107
 30
0.0
 40
2.0
 50
-90.0
  1
Toscocornici porte - 0577-685426 - info@toscocornici.it
  0
TEXT
  8
TEXT
 10
277.719
 20
69.107
 30
0.0
 40
2.0
 50
-90.0
  1

  0
TEXT
  8
TEXT
 10
274.719
 20
69.107
 30
0.0
 40
2.0
 50
-90.0
  1

  0
TEXT
  8
TEXT
 10
218.395
 20
9.914
 30
0.0
 40
3.0
 50
0.0
  1
A.
  0
TEXT
  8
TEXT
 10
218.395
 20
5.414
 30
0.0
 40
3.0
 50
0.0
  1
R.
  0
TEXT
  8
TEXT
 10
249.495
 20
9.914
 30
0.0
 40
3.0
 50
0.0
  1
A.
  0
TEXT
  8
TEXT
 10
249.495
 20
5.414
 30
0.0
 40
3.0
 50
0.0
  1
R.
  0
TEXT
  8
TEXT
 10
187.295
 20
9.914
 30
0.0
 40
3.0
 50
0.0
  1
A.
  0
TEXT
  8
TEXT
 10
187.295
 20
5.414
 30
0.0
 40
3.0
 50
0.0
  1
R.
  0
TEXT
  8
TEXT
 10
156.195
 20
9.914
 30
0.0
 40
3.0
 50
0.0
  1
A.
  0
TEXT
  8
TEXT
 10
156.195
 20
5.414
 30
0.0
 40
3.0
 50
0.0
  1
R.
  0
TEXT
  8
TEXT
 10
125.095
 20
9.914
 30
0.0
 40
3.0
 50
0.0
  1
A.
  0
TEXT
  8
TEXT
 10
125.095
 20
5.414
 30
0.0
 40
3.0
 50
0.0
  1
R.
  0
TEXT
  8
TEXT
 10
93.995
 20
9.914
 30
0.0
 40
3.0
 50
0.0
  1
A.
  0
TEXT
  8
TEXT
 10
93.995
 20
5.414
 30
0.0
 40
3.0
 50
0.0
  1
R.
  0
TEXT
  8
TEXT
 10
62.895
 20
9.914
 30
0.0
 40
3.0
 50
0.0
  1
A.
  0
TEXT
  8
TEXT
 10
62.895
 20
5.414
 30
0.0
 40
3.0
 50
0.0
  1
R.
  0
TEXT
  8
TEXT
 10
31.795
 20
9.914
 30
0.0
 40
3.0
 50
0.0
  1
A.
  0
TEXT
  8
TEXT
 10
31.795
 20
5.414
 30
0.0
 40
3.0
 50
0.0
  1
R.
  0
TEXT
  8
TEXT
 10
0.695
 20
9.914
 30
0.0
 40
3.0
 50
0.0
  1
A.
  0
TEXT
  8
TEXT
 10
0.695
 20
5.414
 30
0.0
 40
3.0
 50
0.0
  1
R.
  0
TEXT
  8
QUOTATURA
 10
27.207
 20
128.643
 30
0.0
 40
3.0
 50
0.0
  1
20
  0
TEXT
  8
QUOTATURA
 10
82.379
 20
98.001
 30
0.0
 40
3.0
 50
0.0
  1
90
  0
TEXT
  8
QUOTATURA
 10
118.473
 20
102.939
 30
0.0
 40
2.0
 50
0.0
  1
4
  0
TEXT
  8
QUOTATURA
 10
116.838
 20
113.143
 30
0.0
 40
2.0
 50
0.0
  1
12
  0
TEXT
  8
QUOTATURA
 10
139.487
 20
123.143
 30
0.0
 40
2.0
 50
0.0
  1
32
  0
ENDSEC
  0
EOF
