  0
SECTION
  2
ENTITIES
  0
LINE
  8
APS_GEOMETRY
 10
0.0
 11
280.0
 20
0.0
 21
0.0
  0
LINE
  8
APS_GEOMETRY
 10
280.0
 11
280.0
 20
0.0
 21
200.0
  0
LINE
  8
APS_GEOMETRY
 10
280.0
 11
0.0
 20
200.0
 21
200.0
  0
LINE
  8
APS_GEOMETRY
 10
0.0
 11
0.0
 20
200.0
 21
0.0
  0
LINE
  8
COSTRUZIONI
 10
0.0
 11
280.0
 20
60.0
 21
60.0
  0
LINE
  8
COSTRUZIONI
 10
31.1
 11
31.1
 20
60.0
 21
0.0
  0
LINE
  8
COSTRUZIONI
 10
62.2
 11
62.2
 20
60.0
 21
0.0
  0
LINE
  8
COSTRUZIONI
 10
93.3
 11
93.3
 20
60.0
 21
0.0
  0
LINE
  8
COSTRUZIONI
 10
124.4
 11
124.4
 20
60.0
 21
0.0
  0
LINE
  8
COSTRUZIONI
 10
155.5
 11
155.5
 20
60.0
 21
0.0
  0
LINE
  8
COSTRUZIONI
 10
186.6
 11
186.6
 20
60.0
 21
0.0
  0
LINE
  8
COSTRUZIONI
 10
217.7
 11
217.7
 20
60.0
 21
0.0
  0
LINE
  8
COSTRUZIONI
 10
248.8
 11
248.8
 20
60.0
 21
0.0
  0
LINE
  8
COSTRUZIONI
 10
280.0
 11
0.0
 20
188.0
 21
188.0
  0
LINE
  8
COSTRUZIONI
 10
166.0
 11
166.0
 20
120.0
 21
188.0
  0
LINE
  8
COSTRUZIONI
 10
184.0
 11
184.0
 20
120.0
 21
188.0
  0
LINE
  8
COSTRUZIONI
 10
202.0
 11
202.0
 20
120.0
 21
188.0
  0
LINE
  8
COSTRUZIONI
 10
220.0
 11
220.0
 20
120.0
 21
188.0
  0
LINE
  8
COSTRUZIONI
 10
250.0
 11
250.0
 20
120.0
 21
188.0
  0
LINE
  8
COSTRUZIONI
 10
280.0
 11
166.0
 20
168.0
 21
168.0
  0
LINE
  8
COSTRUZIONI
 10
280.0
 11
166.0
 20
156.0
 21
156.0
  0
LINE
  8
COSTRUZIONI
 10
280.0
 11
166.0
 20
144.0
 21
144.0
  0
LINE
  8
COSTRUZIONI
 10
280.0
 11
166.0
 20
132.0
 21
132.0
  0
LINE
  8
COSTRUZIONI
 10
280.0
 11
166.0
 20
120.0
 21
120.0
  0
ARC
  8
SEZIONI
 10
77.109
 20
135.436
 40
3.75
 50
190.234
 51
356.721
  0
ARC
  8
SEZIONI
 10
72.927
 20
134.68
 40
0.5
 50
10.234
 51
93.478
  0
LINE
  8
SEZIONI
 10
72.896
 11
61.359
 20
135.18
 21
134.478
  0
ARC
  8
SEZIONI
 10
61.389
 20
133.979
 40
0.5
 50
93.478
 51
176.721
  0
ARC
  8
SEZIONI
 10
57.146
 20
134.222
 40
3.75
 50
190.234
 51
356.721
  0
ARC
  8
SEZIONI
 10
52.963
 20
133.467
 40
0.5
 50
10.234
 51
93.478
  0
LINE
  8
SEZIONI
 10
52.933
 11
41.973
 20
133.966
 21
133.3
  0
ARC
  8
SEZIONI
 10
42.002
 20
132.803
 40
0.498
 50
93.315
 51
160.163
  0
LINE
  8
SEZIONI
 10
41.533
 11
41.285
 20
132.972
 21
132.29
  0
ARC
  8
SEZIONI
 10
40.815
 20
132.461
 40
0.5
 50
270.0
 51
340.0
  0
LINE
  8
SEZIONI
 10
40.815
 11
40.211
 20
131.961
 21
131.961
  0
ARC
  8
SEZIONI
 10
40.211
 20
124.961
 40
7.0
 50
90.0
 51
180.0
  0
LINE
  8
SEZIONI
 10
33.211
 11
33.211
 20
124.961
 21
109.961
  0
LINE
  8
SEZIONI
 10
33.211
 11
36.238
 20
109.961
 21
110.487
  0
LINE
  8
SEZIONI
 10
36.238
 11
37.211
 20
110.487
 21
111.461
  0
LINE
  8
SEZIONI
 10
37.211
 11
37.211
 20
111.461
 21
121.961
  0
LINE
  8
SEZIONI
 10
37.211
 11
41.711
 20
121.961
 21
121.961
  0
LINE
  8
SEZIONI
 10
41.711
 11
41.711
 20
121.961
 21
124.961
  0
LINE
  8
SEZIONI
 10
41.711
 11
112.211
 20
124.961
 21
124.961
  0
LINE
  8
SEZIONI
 10
112.211
 11
112.211
 20
124.961
 21
121.961
  0
LINE
  8
SEZIONI
 10
112.211
 11
123.211
 20
121.961
 21
121.961
  0
LINE
  8
SEZIONI
 10
123.211
 11
123.211
 20
121.961
 21
136.961
  0
ARC
  8
SEZIONI
 10
117.711
 20
136.961
 40
5.5
 50
0.0
 51
173.635
  0
LINE
  8
SEZIONI
 10
112.245
 11
101.285
 20
137.571
 21
136.905
  0
ARC
  8
SEZIONI
 10
101.315
 20
136.406
 40
0.5
 50
93.478
 51
176.721
  0
ARC
  8
SEZIONI
 10
97.072
 20
136.649
 40
3.75
 50
190.234
 51
356.721
  0
ARC
  8
SEZIONI
 10
92.89
 20
135.894
 40
0.5
 50
10.234
 51
93.478
  0
LINE
  8
SEZIONI
 10
92.859
 11
81.322
 20
136.393
 21
135.692
  0
ARC
  8
SEZIONI
 10
81.352
 20
135.193
 40
0.5
 50
93.478
 51
176.721
  0
LINE
  8
QUOTATURA
 10
33.211
 11
33.211
 20
108.961
 21
102.443
  0
LINE
  8
QUOTATURA
 10
123.211
 11
123.211
 20
120.961
 21
102.443
  0
LINE
  8
QUOTATURA
 10
33.211
 11
76.022
 20
103.443
 21
103.443
  0
LINE
  8
QUOTATURA
 10
80.401
 11
123.211
 20
103.443
 21
103.443
  0
LINE
  8
QUOTATURA
 10
35.211
 11
33.211
 20
103.109
 21
103.443
  0
LINE
  8
QUOTATURA
 10
33.211
 11
35.211
 20
103.443
 21
103.776
  0
LINE
  8
QUOTATURA
 10
35.211
 11
35.211
 20
103.776
 21
103.109
  0
LINE
  8
QUOTATURA
 10
121.211
 11
123.211
 20
103.776
 21
103.443
  0
LINE
  8
QUOTATURA
 10
123.211
 11
121.211
 20
103.443
 21
103.109
  0
LINE
  8
QUOTATURA
 10
121.211
 11
121.211
 20
103.109
 21
103.776
  0
LINE
  8
QUOTATURA
 10
112.211
 11
112.211
 20
120.961
 21
114.076
  0
LINE
  8
QUOTATURA
 10
123.211
 11
123.211
 20
120.961
 21
114.076
  0
LINE
  8
QUOTATURA
 10
112.211
 11
116.325
 20
115.076
 21
115.076
  0
LINE
  8
QUOTATURA
 10
119.098
 11
123.211
 20
115.076
 21
115.076
  0
LINE
  8
QUOTATURA
 10
114.211
 11
112.211
 20
114.742
 21
115.076
  0
LINE
  8
QUOTATURA
 10
112.211
 11
114.211
 20
115.076
 21
115.409
  0
LINE
  8
QUOTATURA
 10
114.211
 11
114.211
 20
115.409
 21
114.742
  0
LINE
  8
QUOTATURA
 10
121.211
 11
123.211
 20
115.409
 21
115.076
  0
LINE
  8
QUOTATURA
 10
123.211
 11
121.211
 20
115.076
 21
114.742
  0
LINE
  8
QUOTATURA
 10
121.211
 11
121.211
 20
114.742
 21
115.409
  0
LINE
  8
QUOTATURA
 10
37.211
 11
37.211
 20
110.461
 21
105.623
  0
LINE
  8
QUOTATURA
 10
33.211
 11
27.136
 20
106.623
 21
106.623
  0
LINE
  8
QUOTATURA
 10
31.211
 11
33.211
 20
106.956
 21
106.623
  0
LINE
  8
QUOTATURA
 10
33.211
 11
31.211
 20
106.623
 21
106.289
  0
LINE
  8
QUOTATURA
 10
31.211
 11
31.211
 20
106.289
 21
106.956
  0
LINE
  8
QUOTATURA
 10
37.211
 11
41.211
 20
106.623
 21
106.623
  0
LINE
  8
QUOTATURA
 10
39.211
 11
37.211
 20
106.289
 21
106.623
  0
LINE
  8
QUOTATURA
 10
37.211
 11
39.211
 20
106.623
 21
106.956
  0
LINE
  8
QUOTATURA
 10
39.211
 11
39.211
 20
106.956
 21
106.289
  0
LINE
  8
QUOTATURA
 10
32.211
 11
26.415
 20
109.961
 21
109.961
  0
LINE
  8
QUOTATURA
 10
36.211
 11
26.415
 20
121.961
 21
121.961
  0
LINE
  8
QUOTATURA
 10
27.415
 11
27.415
 20
109.961
 21
114.461
  0
LINE
  8
QUOTATURA
 10
27.415
 11
27.415
 20
117.467
 21
121.961
  0
LINE
  8
QUOTATURA
 10
27.748
 11
27.415
 20
111.961
 21
109.961
  0
LINE
  8
QUOTATURA
 10
27.415
 11
27.081
 20
109.961
 21
111.961
  0
LINE
  8
QUOTATURA
 10
27.081
 11
27.748
 20
111.961
 21
111.961
  0
LINE
  8
QUOTATURA
 10
27.081
 11
27.415
 20
119.961
 21
121.961
  0
LINE
  8
QUOTATURA
 10
27.415
 11
27.748
 20
121.961
 21
119.961
  0
LINE
  8
QUOTATURA
 10
27.748
 11
27.081
 20
119.961
 21
119.961
  0
LINE
  8
QUOTATURA
 10
124.211
 11
132.413
 20
121.961
 21
121.961
  0
LINE
  8
QUOTATURA
 10
118.711
 11
132.413
 20
142.461
 21
142.461
  0
LINE
  8
QUOTATURA
 10
131.413
 11
131.413
 20
121.961
 21
130.687
  0
LINE
  8
QUOTATURA
 10
131.413
 11
131.413
 20
133.717
 21
142.461
  0
LINE
  8
QUOTATURA
 10
131.746
 11
131.413
 20
123.961
 21
121.961
  0
LINE
  8
QUOTATURA
 10
131.413
 11
131.079
 20
121.961
 21
123.961
  0
LINE
  8
QUOTATURA
 10
131.079
 11
131.746
 20
123.961
 21
123.961
  0
LINE
  8
QUOTATURA
 10
131.079
 11
131.413
 20
140.461
 21
142.461
  0
LINE
  8
QUOTATURA
 10
131.413
 11
131.746
 20
142.461
 21
140.461
  0
LINE
  8
QUOTATURA
 10
131.746
 11
131.079
 20
140.461
 21
140.461
  0
LINE
  8
QUOTATURA
 10
111.211
 11
105.793
 20
124.961
 21
124.961
  0
LINE
  8
QUOTATURA
 10
111.211
 11
105.793
 20
121.961
 21
121.961
  0
LINE
  8
QUOTATURA
 10
106.793
 11
106.793
 20
121.961
 21
117.871
  0
LINE
  8
QUOTATURA
 10
106.793
 11
100.371
 20
117.871
 21
117.871
  0
LINE
  8
QUOTATURA
 10
106.46
 11
106.793
 20
119.961
 21
121.961
  0
LINE
  8
QUOTATURA
 10
106.793
 11
107.126
 20
121.961
 21
119.961
  0
LINE
  8
QUOTATURA
 10
107.126
 11
106.46
 20
119.961
 21
119.961
  0
LINE
  8
QUOTATURA
 10
106.793
 11
106.793
 20
124.961
 21
128.961
  0
LINE
  8
QUOTATURA
 10
107.126
 11
106.793
 20
126.961
 21
124.961
  0
LINE
  8
QUOTATURA
 10
106.793
 11
106.46
 20
124.961
 21
126.961
  0
LINE
  8
QUOTATURA
 10
106.46
 11
107.126
 20
126.961
 21
126.961
  0
TEXT
  8
TEXT
 10
264.35
 20
60.8
 30
0.0
 40
5.0
 50
0.0
  1
1
  0
TEXT
  8
TEXT
 10
202.15
 20
60.8
 30
0.0
 40
5.0
 50
0.0
  1
3
  0
TEXT
  8
TEXT
 10
171.05
 20
60.0
 30
0.0
 40
5.0
 50
0.0
  1
4
  0
TEXT
  8
TEXT
 10
139.95
 20
60.8
 30
0.0
 40
5.0
 50
0.0
  1
5
  0
TEXT
  8
TEXT
 10
108.85
 20
60.8
 30
0.0
 40
5.0
 50
0.0
  1
6
  0
TEXT
  8
TEXT
 10
77.75
 20
60.8
 30
0.0
 40
5.0
 50
0.0
  1
7
  0
TEXT
  8
TEXT
 10
46.65
 20
60.8
 30
0.0
 40
5.0
 50
0.0
  1
8
  0
TEXT
  8
TEXT
 10
15.55
 20
60.8
 30
0.0
 40
5.0
 50
0.0
  1
9
  0
TEXT
  8
TEXT
 10
165.429
 20
112.996
 30
0.0
 40
4.5
 50
0.0
  1
ANNOTAZIONI:
  0
TEXT
  8
TEXT
 10
165.429
 20
106.696
 30
0.0
 40
4.5
 50
0.0
  1
ALB.2 Dopo aver messo a filo
  0
TEXT
  8
TEXT
 10
165.429
 20
100.396
 30
0.0
 40
4.5
 50
0.0
  1
orizzontalmente far sfiorare bacchetta
  0
TEXT
  8
TEXT
 10
165.429
 20
94.096
 30
0.0
 40
4.5
 50
0.0
  1
e abbassare 5/8 decimi.
  0
TEXT
  8
TEXT
 10
165.429
 20
87.796
 30
0.0
 40
4.5
 50
0.0
  1

  0
TEXT
  8
TEXT
 10
165.429
 20
81.496
 30
0.0
 40
4.5
 50
0.0
  1
ALZARE GUIDE
  0
TEXT
  8
TEXT
 10
0.0
 20
188.5
 30
0.0
 40
5.0
 50
0.0
  1
 SZ 90X32,5 MM    ART. SCORN-COPRIFILO-CS1_32,5X90
  0
TEXT
  8
TEXT
 10
233.25
 20
60.8
 30
0.0
 40
5.0
 50
0.0
  1
2
  0
TEXT
  8
TEXT
 10
222.123
 20
182.119
 30
0.0
 40
4.0
 50
0.0
  1
MISURE
  0
TEXT
  8
TEXT
 10
222.123
 20
176.119
 30
0.0
 40
4.0
 50
0.0
  1
MAGG.
  0
TEXT
  8
TEXT
 10
280.719
 20
69.107
 30
0.0
 40
2.0
 50
-90.0
  1
Toscocornici porte - 0577-685426 - info@toscocornici.it
  0
TEXT
  8
TEXT
 10
277.719
 20
69.107
 30
0.0
 40
2.0
 50
-90.0
  1

  0
TEXT
  8
TEXT
 10
274.719
 20
69.107
 30
0.0
 40
2.0
 50
-90.0
  1

  0
TEXT
  8
TEXT
 10
218.007
 20
53.165
 30
0.0
 40
3.0
 50
0.0
  1
MM 30 N.976
  0
TEXT
  8
TEXT
 10
218.007
 20
48.665
 30
0.0
 40
3.0
 50
0.0
  1
colt. scatola N.58
  0
TEXT
  8
TEXT
 10
218.007
 20
44.165
 30
0.0
 40
3.0
 50
0.0
  1

  0
TEXT
  8
TEXT
 10
218.007
 20
39.665
 30
0.0
 40
3.0
 50
0.0
  1
A.
  0
TEXT
  8
TEXT
 10
218.007
 20
35.165
 30
0.0
 40
3.0
 50
0.0
  1
R.
  0
TEXT
  8
TEXT
 10
218.395
 20
9.914
 30
0.0
 40
3.0
 50
0.0
  1
A.
  0
TEXT
  8
TEXT
 10
218.395
 20
5.414
 30
0.0
 40
3.0
 50
0.0
  1
R.
  0
TEXT
  8
TEXT
 10
187.269
 20
53.165
 30
0.0
 40
3.0
 50
0.0
  1
MM 30 N.976/A
  0
TEXT
  8
TEXT
 10
187.269
 20
48.665
 30
0.0
 40
3.0
 50
0.0
  1
colt. scatola N.58
  0
TEXT
  8
TEXT
 10
187.269
 20
44.165
 30
0.0
 40
3.0
 50
0.0
  1

  0
TEXT
  8
TEXT
 10
187.269
 20
39.665
 30
0.0
 40
3.0
 50
0.0
  1
A.
  0
TEXT
  8
TEXT
 10
187.269
 20
35.165
 30
0.0
 40
3.0
 50
0.0
  1
R.70.8/90
  0
TEXT
  8
TEXT
 10
94.04
 20
53.165
 30
0.0
 40
3.0
 50
0.0
  1
MM 27 N. 281
  0
TEXT
  8
TEXT
 10
94.04
 20
48.665
 30
0.0
 40
3.0
 50
0.0
  1

  0
TEXT
  8
TEXT
 10
94.04
 20
44.165
 30
0.0
 40
3.0
 50
0.0
  1

  0
TEXT
  8
TEXT
 10
94.04
 20
39.665
 30
0.0
 40
3.0
 50
0.0
  1
A. 15.4
  0
TEXT
  8
TEXT
 10
94.04
 20
35.165
 30
0.0
 40
3.0
 50
0.0
  1
R. 69.9/22.1
  0
TEXT
  8
TEXT
 10
1.307
 20
53.165
 30
0.0
 40
3.0
 50
0.0
  1
MM 
  0
TEXT
  8
TEXT
 10
1.307
 20
48.665
 30
0.0
 40
3.0
 50
0.0
  1
N. 282
  0
TEXT
  8
TEXT
 10
1.307
 20
44.165
 30
0.0
 40
3.0
 50
0.0
  1

  0
TEXT
  8
TEXT
 10
1.307
 20
39.665
 30
0.0
 40
3.0
 50
0.0
  1
A. 137
  0
TEXT
  8
TEXT
 10
1.307
 20
35.165
 30
0.0
 40
3.0
 50
0.0
  1
R. 71
  0
TEXT
  8
TEXT
 10
62.507
 20
53.165
 30
0.0
 40
3.0
 50
0.0
  1
MM 10
  0
TEXT
  8
TEXT
 10
62.507
 20
48.665
 30
0.0
 40
3.0
 50
0.0
  1
FRESA PIANA
  0
TEXT
  8
TEXT
 10
249.495
 20
9.914
 30
0.0
 40
3.0
 50
0.0
  1
A.
  0
TEXT
  8
TEXT
 10
249.495
 20
5.414
 30
0.0
 40
3.0
 50
0.0
  1
R.
  0
TEXT
  8
TEXT
 10
187.295
 20
9.914
 30
0.0
 40
3.0
 50
0.0
  1
A.
  0
TEXT
  8
TEXT
 10
187.295
 20
5.414
 30
0.0
 40
3.0
 50
0.0
  1
R.
  0
TEXT
  8
TEXT
 10
156.195
 20
9.914
 30
0.0
 40
3.0
 50
0.0
  1
A.
  0
TEXT
  8
TEXT
 10
156.195
 20
5.414
 30
0.0
 40
3.0
 50
0.0
  1
R.
  0
TEXT
  8
TEXT
 10
125.095
 20
9.914
 30
0.0
 40
3.0
 50
0.0
  1
A.
  0
TEXT
  8
TEXT
 10
125.095
 20
5.414
 30
0.0
 40
3.0
 50
0.0
  1
R.
  0
TEXT
  8
TEXT
 10
93.995
 20
9.914
 30
0.0
 40
3.0
 50
0.0
  1
A.
  0
TEXT
  8
TEXT
 10
93.995
 20
5.414
 30
0.0
 40
3.0
 50
0.0
  1
R.
  0
TEXT
  8
TEXT
 10
62.895
 20
9.914
 30
0.0
 40
3.0
 50
0.0
  1
A.
  0
TEXT
  8
TEXT
 10
62.895
 20
5.414
 30
0.0
 40
3.0
 50
0.0
  1
R.
  0
TEXT
  8
TEXT
 10
31.795
 20
9.914
 30
0.0
 40
3.0
 50
0.0
  1
A.
  0
TEXT
  8
TEXT
 10
31.795
 20
5.414
 30
0.0
 40
3.0
 50
0.0
  1
R.
  0
TEXT
  8
TEXT
 10
0.695
 20
9.914
 30
0.0
 40
3.0
 50
0.0
  1
A.
  0
TEXT
  8
TEXT
 10
0.695
 20
5.414
 30
0.0
 40
3.0
 50
0.0
  1
R.
  0
TEXT
  8
TEXT
 10
60.412
 20
145.943
 30
0.0
 40
5.0
 50
0.0
  1
PROFILO A
  0
TEXT
  8
QUOTATURA
 10
76.516
 20
102.443
 30
0.0
 40
2.0
 50
0.0
  1
90
  0
TEXT
  8
QUOTATURA
 10
116.825
 20
114.076
 30
0.0
 40
2.0
 50
0.0
  1
11
  0
TEXT
  8
QUOTATURA
 10
24.91
 20
105.623
 30
0.0
 40
2.0
 50
0.0
  1
4
  0
TEXT
  8
QUOTATURA
 10
26.205
 20
114.961
 30
0.0
 40
2.0
 50
0.0
  1
12
  0
TEXT
  8
QUOTATURA
 10
128.538
 20
131.211
 30
0.0
 40
2.0
 50
0.0
  1
20.5
  0
TEXT
  8
QUOTATURA
 10
98.38
 20
116.871
 30
0.0
 40
2.0
 50
0.0
  1
3
  0
ENDSEC
  0
EOF
