  0
SECTION
  2
ENTITIES
  0
LINE
  8
APS_GEOMETRY
 10
0.0
 11
280.0
 20
0.0
 21
0.0
  0
LINE
  8
APS_GEOMETRY
 10
280.0
 11
280.0
 20
0.0
 21
200.0
  0
LINE
  8
APS_GEOMETRY
 10
280.0
 11
0.0
 20
200.0
 21
200.0
  0
LINE
  8
APS_GEOMETRY
 10
0.0
 11
0.0
 20
200.0
 21
0.0
  0
LINE
  8
COSTRUZIONI
 10
0.0
 11
280.0
 20
60.0
 21
60.0
  0
LINE
  8
COSTRUZIONI
 10
31.1
 11
31.1
 20
60.0
 21
0.0
  0
LINE
  8
COSTRUZIONI
 10
62.2
 11
62.2
 20
60.0
 21
0.0
  0
LINE
  8
COSTRUZIONI
 10
93.3
 11
93.3
 20
60.0
 21
0.0
  0
LINE
  8
COSTRUZIONI
 10
124.4
 11
124.4
 20
60.0
 21
0.0
  0
LINE
  8
COSTRUZIONI
 10
155.5
 11
155.5
 20
60.0
 21
0.0
  0
LINE
  8
COSTRUZIONI
 10
186.6
 11
186.6
 20
60.0
 21
0.0
  0
LINE
  8
COSTRUZIONI
 10
217.7
 11
217.7
 20
60.0
 21
0.0
  0
LINE
  8
COSTRUZIONI
 10
248.8
 11
248.8
 20
60.0
 21
0.0
  0
LINE
  8
COSTRUZIONI
 10
280.0
 11
0.0
 20
188.0
 21
188.0
  0
LINE
  8
COSTRUZIONI
 10
166.0
 11
166.0
 20
120.0
 21
188.0
  0
LINE
  8
COSTRUZIONI
 10
184.0
 11
184.0
 20
120.0
 21
188.0
  0
LINE
  8
COSTRUZIONI
 10
202.0
 11
202.0
 20
120.0
 21
188.0
  0
LINE
  8
COSTRUZIONI
 10
220.0
 11
220.0
 20
120.0
 21
188.0
  0
LINE
  8
COSTRUZIONI
 10
250.0
 11
250.0
 20
120.0
 21
188.0
  0
LINE
  8
COSTRUZIONI
 10
280.0
 11
166.0
 20
168.0
 21
168.0
  0
LINE
  8
COSTRUZIONI
 10
280.0
 11
166.0
 20
156.0
 21
156.0
  0
LINE
  8
COSTRUZIONI
 10
280.0
 11
166.0
 20
144.0
 21
144.0
  0
LINE
  8
COSTRUZIONI
 10
280.0
 11
166.0
 20
132.0
 21
132.0
  0
LINE
  8
COSTRUZIONI
 10
280.0
 11
166.0
 20
120.0
 21
120.0
  0
LINE
  8
QUOTATURA
 10
45.248
 11
37.427
 20
120.32
 21
120.32
  0
LINE
  8
QUOTATURA
 10
49.248
 11
37.427
 20
110.32
 21
110.32
  0
LINE
  8
QUOTATURA
 10
38.427
 11
38.427
 20
120.32
 21
116.82
  0
LINE
  8
QUOTATURA
 10
38.427
 11
38.427
 20
113.795
 21
110.32
  0
LINE
  8
QUOTATURA
 10
38.094
 11
38.427
 20
118.32
 21
120.32
  0
LINE
  8
QUOTATURA
 10
38.427
 11
38.761
 20
120.32
 21
118.32
  0
LINE
  8
QUOTATURA
 10
38.761
 11
38.094
 20
118.32
 21
118.32
  0
LINE
  8
QUOTATURA
 10
38.761
 11
38.427
 20
112.32
 21
110.32
  0
LINE
  8
QUOTATURA
 10
38.427
 11
38.094
 20
110.32
 21
112.32
  0
LINE
  8
QUOTATURA
 10
38.094
 11
38.761
 20
112.32
 21
112.32
  0
LINE
  8
QUOTATURA
 10
112.248
 11
123.641
 20
110.32
 21
110.32
  0
LINE
  8
QUOTATURA
 10
116.248
 11
123.641
 20
132.32
 21
132.32
  0
LINE
  8
QUOTATURA
 10
122.641
 11
122.641
 20
110.32
 21
119.82
  0
LINE
  8
QUOTATURA
 10
122.641
 11
122.641
 20
122.826
 21
132.32
  0
LINE
  8
QUOTATURA
 10
122.974
 11
122.641
 20
112.32
 21
110.32
  0
LINE
  8
QUOTATURA
 10
122.641
 11
122.307
 20
110.32
 21
112.32
  0
LINE
  8
QUOTATURA
 10
122.307
 11
122.974
 20
112.32
 21
112.32
  0
LINE
  8
QUOTATURA
 10
122.307
 11
122.641
 20
130.32
 21
132.32
  0
LINE
  8
QUOTATURA
 10
122.641
 11
122.974
 20
132.32
 21
130.32
  0
LINE
  8
QUOTATURA
 10
122.974
 11
122.307
 20
130.32
 21
130.32
  0
LINE
  8
QUOTATURA
 10
105.348
 11
102.12
 20
120.32
 21
120.32
  0
LINE
  8
QUOTATURA
 10
111.348
 11
102.12
 20
132.32
 21
132.32
  0
LINE
  8
QUOTATURA
 10
103.12
 11
103.12
 20
120.32
 21
124.82
  0
LINE
  8
QUOTATURA
 10
103.12
 11
103.12
 20
127.826
 21
132.32
  0
LINE
  8
QUOTATURA
 10
103.453
 11
103.12
 20
122.32
 21
120.32
  0
LINE
  8
QUOTATURA
 10
103.12
 11
102.786
 20
120.32
 21
122.32
  0
LINE
  8
QUOTATURA
 10
102.786
 11
103.453
 20
122.32
 21
122.32
  0
LINE
  8
QUOTATURA
 10
102.786
 11
103.12
 20
130.32
 21
132.32
  0
LINE
  8
QUOTATURA
 10
103.12
 11
103.453
 20
132.32
 21
130.32
  0
LINE
  8
QUOTATURA
 10
103.453
 11
102.786
 20
130.32
 21
130.32
  0
LINE
  8
QUOTATURA
 10
46.248
 11
46.248
 20
121.32
 21
126.007
  0
LINE
  8
QUOTATURA
 10
58.248
 11
58.248
 20
121.32
 21
126.007
  0
LINE
  8
QUOTATURA
 10
46.248
 11
50.538
 20
125.007
 21
125.007
  0
LINE
  8
QUOTATURA
 10
53.958
 11
58.248
 20
125.007
 21
125.007
  0
LINE
  8
QUOTATURA
 10
48.248
 11
46.248
 20
124.673
 21
125.007
  0
LINE
  8
QUOTATURA
 10
46.248
 11
48.248
 20
125.007
 21
125.34
  0
LINE
  8
QUOTATURA
 10
48.248
 11
48.248
 20
125.34
 21
124.673
  0
LINE
  8
QUOTATURA
 10
56.248
 11
58.248
 20
125.34
 21
125.007
  0
LINE
  8
QUOTATURA
 10
58.248
 11
56.248
 20
125.007
 21
124.673
  0
LINE
  8
QUOTATURA
 10
56.248
 11
56.248
 20
124.673
 21
125.34
  0
LINE
  8
QUOTATURA
 10
75.248
 11
75.248
 20
114.32
 21
104.444
  0
LINE
  8
QUOTATURA
 10
115.248
 11
97.538
 20
105.444
 21
105.444
  0
LINE
  8
QUOTATURA
 10
92.958
 11
75.248
 20
105.444
 21
105.444
  0
LINE
  8
QUOTATURA
 10
113.248
 11
115.248
 20
105.777
 21
105.444
  0
LINE
  8
QUOTATURA
 10
115.248
 11
113.248
 20
105.444
 21
105.111
  0
LINE
  8
QUOTATURA
 10
113.248
 11
113.248
 20
105.111
 21
105.777
  0
LINE
  8
QUOTATURA
 10
77.248
 11
75.248
 20
105.111
 21
105.444
  0
LINE
  8
QUOTATURA
 10
75.248
 11
77.248
 20
105.444
 21
105.777
  0
LINE
  8
QUOTATURA
 10
77.248
 11
77.248
 20
105.777
 21
105.111
  0
LINE
  8
QUOTATURA
 10
65.248
 11
65.248
 20
114.32
 21
99.705
  0
LINE
  8
QUOTATURA
 10
115.248
 11
78.527
 20
100.705
 21
100.705
  0
LINE
  8
QUOTATURA
 10
74.116
 11
65.248
 20
100.705
 21
100.705
  0
LINE
  8
QUOTATURA
 10
113.248
 11
115.248
 20
101.038
 21
100.705
  0
LINE
  8
QUOTATURA
 10
115.248
 11
113.248
 20
100.705
 21
100.372
  0
LINE
  8
QUOTATURA
 10
113.248
 11
113.248
 20
100.372
 21
101.038
  0
LINE
  8
QUOTATURA
 10
67.248
 11
65.248
 20
100.372
 21
100.705
  0
LINE
  8
QUOTATURA
 10
65.248
 11
67.248
 20
100.705
 21
101.038
  0
LINE
  8
QUOTATURA
 10
67.248
 11
67.248
 20
101.038
 21
100.372
  0
LINE
  8
QUOTATURA
 10
55.248
 11
55.248
 20
114.32
 21
94.248
  0
LINE
  8
QUOTATURA
 10
115.248
 11
70.174
 20
95.248
 21
95.248
  0
LINE
  8
QUOTATURA
 10
65.811
 11
55.248
 20
95.248
 21
95.248
  0
LINE
  8
QUOTATURA
 10
113.248
 11
115.248
 20
95.581
 21
95.248
  0
LINE
  8
QUOTATURA
 10
115.248
 11
113.248
 20
95.248
 21
94.915
  0
LINE
  8
QUOTATURA
 10
113.248
 11
113.248
 20
94.915
 21
95.581
  0
LINE
  8
QUOTATURA
 10
57.248
 11
55.248
 20
94.915
 21
95.248
  0
LINE
  8
QUOTATURA
 10
55.248
 11
57.248
 20
95.248
 21
95.581
  0
LINE
  8
QUOTATURA
 10
57.248
 11
57.248
 20
95.581
 21
94.915
  0
ARC
  8
COSTRUZIONI
 10
59.248
 20
114.32
 40
4.0
 50
180.0
 51
270.0
  0
LINE
  8
COSTRUZIONI
 10
55.248
 11
55.248
 20
114.32
 21
120.32
  0
ARC
  8
COSTRUZIONI
 10
69.248
 20
114.32
 40
4.0
 50
180.0
 51
270.0
  0
LINE
  8
COSTRUZIONI
 10
65.248
 11
65.248
 20
114.32
 21
120.32
  0
ARC
  8
COSTRUZIONI
 10
79.248
 20
114.32
 40
4.0
 50
180.0
 51
270.0
  0
LINE
  8
COSTRUZIONI
 10
75.248
 11
75.248
 20
114.32
 21
120.32
  0
LINE
  8
APS_GEOMETRY
 10
58.248
 11
63.248
 20
117.32
 21
117.32
  0
LINE
  8
APS_GEOMETRY
 10
63.248
 11
63.248
 20
117.32
 21
120.32
  0
LINE
  8
APS_GEOMETRY
 10
63.248
 11
67.248
 20
120.32
 21
120.32
  0
LINE
  8
APS_GEOMETRY
 10
67.248
 11
67.248
 20
120.32
 21
117.32
  0
LINE
  8
APS_GEOMETRY
 10
67.248
 11
74.248
 20
117.32
 21
117.32
  0
LINE
  8
APS_GEOMETRY
 10
74.248
 11
74.248
 20
117.32
 21
120.32
  0
LINE
  8
APS_GEOMETRY
 10
74.248
 11
78.248
 20
120.32
 21
120.32
  0
LINE
  8
APS_GEOMETRY
 10
78.248
 11
78.248
 20
120.32
 21
117.32
  0
LINE
  8
APS_GEOMETRY
 10
78.248
 11
106.348
 20
117.32
 21
117.32
  0
LINE
  8
APS_GEOMETRY
 10
106.348
 11
106.348
 20
117.32
 21
120.32
  0
LINE
  8
APS_GEOMETRY
 10
106.348
 11
111.648
 20
120.32
 21
120.32
  0
LINE
  8
APS_GEOMETRY
 10
111.648
 11
111.648
 20
120.32
 21
131.62
  0
LINE
  8
APS_GEOMETRY
 10
111.648
 11
112.348
 20
131.62
 21
132.32
  0
LINE
  8
APS_GEOMETRY
 10
112.348
 11
115.248
 20
132.32
 21
132.32
  0
LINE
  8
APS_GEOMETRY
 10
115.248
 11
115.248
 20
132.32
 21
114.32
  0
ARC
  8
APS_GEOMETRY
 10
111.248
 20
114.32
 40
4.0
 50
270.0
 51
360.0
  0
LINE
  8
APS_GEOMETRY
 10
111.248
 11
50.248
 20
110.32
 21
110.32
  0
ARC
  8
APS_GEOMETRY
 10
50.248
 20
114.32
 40
4.0
 50
180.0
 51
270.0
  0
LINE
  8
APS_GEOMETRY
 10
46.248
 11
46.248
 20
114.32
 21
120.32
  0
LINE
  8
APS_GEOMETRY
 10
46.248
 11
58.248
 20
120.32
 21
120.32
  0
LINE
  8
APS_GEOMETRY
 10
58.248
 11
58.248
 20
120.32
 21
117.32
  0
LINE
  8
QUOTATURA
 10
111.648
 11
111.648
 20
132.62
 21
139.692
  0
LINE
  8
QUOTATURA
 10
115.248
 11
115.248
 20
133.32
 21
139.692
  0
LINE
  8
QUOTATURA
 10
111.648
 11
107.13
 20
138.692
 21
138.692
  0
LINE
  8
QUOTATURA
 10
109.648
 11
111.648
 20
139.025
 21
138.692
  0
LINE
  8
QUOTATURA
 10
111.648
 11
109.648
 20
138.692
 21
138.359
  0
LINE
  8
QUOTATURA
 10
109.648
 11
109.648
 20
138.359
 21
139.025
  0
LINE
  8
QUOTATURA
 10
115.248
 11
119.248
 20
138.692
 21
138.692
  0
LINE
  8
QUOTATURA
 10
117.248
 11
115.248
 20
138.359
 21
138.692
  0
LINE
  8
QUOTATURA
 10
115.248
 11
117.248
 20
138.692
 21
139.025
  0
LINE
  8
QUOTATURA
 10
117.248
 11
117.248
 20
139.025
 21
138.359
  0
LINE
  8
QUOTATURA
 10
46.248
 11
46.248
 20
113.32
 21
90.521
  0
LINE
  8
QUOTATURA
 10
115.248
 11
115.248
 20
113.32
 21
90.521
  0
LINE
  8
QUOTATURA
 10
46.248
 11
77.466
 20
91.521
 21
91.521
  0
LINE
  8
QUOTATURA
 10
84.03
 11
115.248
 20
91.521
 21
91.521
  0
LINE
  8
QUOTATURA
 10
48.248
 11
46.248
 20
91.188
 21
91.521
  0
LINE
  8
QUOTATURA
 10
46.248
 11
48.248
 20
91.521
 21
91.854
  0
LINE
  8
QUOTATURA
 10
48.248
 11
48.248
 20
91.854
 21
91.188
  0
LINE
  8
QUOTATURA
 10
113.248
 11
115.248
 20
91.854
 21
91.521
  0
LINE
  8
QUOTATURA
 10
115.248
 11
113.248
 20
91.521
 21
91.188
  0
LINE
  8
QUOTATURA
 10
113.248
 11
113.248
 20
91.188
 21
91.854
  0
TEXT
  8
TEXT
 10
264.35
 20
60.8
 30
0.0
 40
5.0
 50
0.0
  1
1
  0
TEXT
  8
TEXT
 10
202.15
 20
60.8
 30
0.0
 40
5.0
 50
0.0
  1
3
  0
TEXT
  8
TEXT
 10
171.05
 20
60.0
 30
0.0
 40
5.0
 50
0.0
  1
4
  0
TEXT
  8
TEXT
 10
139.95
 20
60.8
 30
0.0
 40
5.0
 50
0.0
  1
5
  0
TEXT
  8
TEXT
 10
108.85
 20
60.8
 30
0.0
 40
5.0
 50
0.0
  1
6
  0
TEXT
  8
TEXT
 10
77.75
 20
60.8
 30
0.0
 40
5.0
 50
0.0
  1
7
  0
TEXT
  8
TEXT
 10
46.65
 20
60.8
 30
0.0
 40
5.0
 50
0.0
  1
8
  0
TEXT
  8
TEXT
 10
15.55
 20
60.8
 30
0.0
 40
5.0
 50
0.0
  1
9
  0
TEXT
  8
TEXT
 10
165.429
 20
112.996
 30
0.0
 40
5.0
 50
0.0
  1
ANNOTAZIONI:
  0
TEXT
  8
TEXT
 10
165.429
 20
105.496
 30
0.0
 40
5.0
 50
0.0
  1
Mettere mm 10 dietro le ruote.
  0
TEXT
  8
TEXT
 10
165.429
 20
97.996
 30
0.0
 40
5.0
 50
0.0
  1
Sulla scorniciatrice N.2 mettere
  0
TEXT
  8
TEXT
 10
165.429
 20
90.496
 30
0.0
 40
5.0
 50
0.0
  1
ruota davanti all'albero N.4
  0
TEXT
  8
TEXT
 10
0.0
 20
188.5
 30
0.0
 40
5.0
 50
0.0
  1
 SZ 69,8X22 MM    ART. SCORN-COPRIFILO-LISCIO_22X69
  0
TEXT
  8
TEXT
 10
233.25
 20
60.8
 30
0.0
 40
5.0
 50
0.0
  1
2
  0
TEXT
  8
TEXT
 10
222.123
 20
182.119
 30
0.0
 40
4.0
 50
0.0
  1
MISURE
  0
TEXT
  8
TEXT
 10
222.123
 20
176.119
 30
0.0
 40
4.0
 50
0.0
  1
MAGG.
  0
TEXT
  8
TEXT
 10
280.719
 20
69.107
 30
0.0
 40
2.0
 50
-90.0
  1
Toscocornici porte - 0577-685426 - info@toscocornici.it
  0
TEXT
  8
TEXT
 10
277.719
 20
69.107
 30
0.0
 40
2.0
 50
-90.0
  1

  0
TEXT
  8
TEXT
 10
274.719
 20
69.107
 30
0.0
 40
2.0
 50
-90.0
  1

  0
TEXT
  8
QUOTATURA
 10
37.098
 20
114.32
 30
0.0
 40
2.0
 50
0.0
  1
10
  0
TEXT
  8
QUOTATURA
 10
121.107
 20
120.32
 30
0.0
 40
2.0
 50
0.0
  1
22
  0
TEXT
  8
QUOTATURA
 10
101.91
 20
125.32
 30
0.0
 40
2.0
 50
0.0
  1
12
  0
TEXT
  8
TEXT
 10
218.7
 20
54.049
 30
0.0
 40
3.0
 50
0.0
  1
MM 25
  0
TEXT
  8
TEXT
 10
218.7
 20
49.549
 30
0.0
 40
3.0
 50
0.0
  1
N.976
  0
TEXT
  8
TEXT
 10
218.7
 20
45.049
 30
0.0
 40
3.0
 50
0.0
  1
coltellini
  0
TEXT
  8
TEXT
 10
218.7
 20
40.549
 30
0.0
 40
3.0
 50
0.0
  1
scatola 
  0
TEXT
  8
TEXT
 10
218.7
 20
36.049
 30
0.0
 40
3.0
 50
0.0
  1
N.28
  0
TEXT
  8
TEXT
 10
218.7
 20
31.549
 30
0.0
 40
3.0
 50
0.0
  1

  0
TEXT
  8
TEXT
 10
218.7
 20
27.049
 30
0.0
 40
3.0
 50
0.0
  1
A. 55.25
  0
TEXT
  8
TEXT
 10
187.6
 20
54.049
 30
0.0
 40
3.0
 50
0.0
  1
MM 25
  0
TEXT
  8
TEXT
 10
187.6
 20
49.549
 30
0.0
 40
3.0
 50
0.0
  1
N.976/A
  0
TEXT
  8
TEXT
 10
187.6
 20
45.049
 30
0.0
 40
3.0
 50
0.0
  1
coltellini
  0
TEXT
  8
TEXT
 10
187.6
 20
40.549
 30
0.0
 40
3.0
 50
0.0
  1
scatola 
  0
TEXT
  8
TEXT
 10
187.6
 20
36.049
 30
0.0
 40
3.0
 50
0.0
  1
N.28
  0
TEXT
  8
TEXT
 10
187.6
 20
31.549
 30
0.0
 40
3.0
 50
0.0
  1

  0
TEXT
  8
TEXT
 10
94.3
 20
54.049
 30
0.0
 40
3.0
 50
0.0
  1

  0
TEXT
  8
TEXT
 10
94.3
 20
49.549
 30
0.0
 40
3.0
 50
0.0
  1
N.267
  0
TEXT
  8
TEXT
 10
63.2
 20
54.049
 30
0.0
 40
3.0
 50
0.0
  1
MM 10
  0
TEXT
  8
TEXT
 10
63.2
 20
49.549
 30
0.0
 40
3.0
 50
0.0
  1
PIALLA
  0
TEXT
  8
TEXT
 10
32.1
 20
54.049
 30
0.0
 40
3.0
 50
0.0
  1
MM 10
  0
TEXT
  8
TEXT
 10
32.1
 20
49.549
 30
0.0
 40
3.0
 50
0.0
  1
N.280
  0
TEXT
  8
TEXT
 10
32.1
 20
45.049
 30
0.0
 40
3.0
 50
0.0
  1
MM 1
  0
TEXT
  8
TEXT
 10
32.1
 20
40.549
 30
0.0
 40
3.0
 50
0.0
  1
N.280/A
  0
TEXT
  8
TEXT
 10
32.1
 20
36.049
 30
0.0
 40
3.0
 50
0.0
  1
negli
  0
TEXT
  8
TEXT
 10
32.1
 20
31.549
 30
0.0
 40
3.0
 50
0.0
  1
spigolatori
  0
TEXT
  8
TEXT
 10
32.1
 20
27.049
 30
0.0
 40
3.0
 50
0.0
  1
4 decimi
  0
TEXT
  8
QUOTATURA
 10
51.038
 20
124.007
 30
0.0
 40
2.0
 50
0.0
  1
12
  0
TEXT
  8
QUOTATURA
 10
93.399
 20
104.444
 30
0.0
 40
2.0
 50
0.0
  1
40
  0
TEXT
  8
QUOTATURA
 10
74.609
 20
99.705
 30
0.0
 40
2.0
 50
0.0
  1
50
  0
TEXT
  8
QUOTATURA
 10
66.29
 20
94.248
 30
0.0
 40
2.0
 50
0.0
  1
60
  0
TEXT
  8
QUOTATURA
 10
102.76
 20
137.692
 30
0.0
 40
2.0
 50
0.0
  1
3.6
  0
TEXT
  8
QUOTATURA
 10
77.946
 20
90.521
 30
0.0
 40
2.0
 50
0.0
  1
69,8
  0
ENDSEC
  0
EOF
