  0
SECTION
  2
ENTITIES
  0
LINE
  8
APS_GEOMETRY
 10
0.0
 11
280.0
 20
0.0
 21
0.0
  0
LINE
  8
APS_GEOMETRY
 10
280.0
 11
280.0
 20
0.0
 21
200.0
  0
LINE
  8
APS_GEOMETRY
 10
280.0
 11
0.0
 20
200.0
 21
200.0
  0
LINE
  8
APS_GEOMETRY
 10
0.0
 11
0.0
 20
200.0
 21
0.0
  0
LINE
  8
COSTRUZIONI
 10
0.0
 11
280.0
 20
60.0
 21
60.0
  0
LINE
  8
COSTRUZIONI
 10
31.1
 11
31.1
 20
60.0
 21
0.0
  0
LINE
  8
COSTRUZIONI
 10
62.2
 11
62.2
 20
60.0
 21
0.0
  0
LINE
  8
COSTRUZIONI
 10
93.3
 11
93.3
 20
60.0
 21
0.0
  0
LINE
  8
COSTRUZIONI
 10
124.4
 11
124.4
 20
60.0
 21
0.0
  0
LINE
  8
COSTRUZIONI
 10
155.5
 11
155.5
 20
60.0
 21
0.0
  0
LINE
  8
COSTRUZIONI
 10
186.6
 11
186.6
 20
60.0
 21
0.0
  0
LINE
  8
COSTRUZIONI
 10
217.7
 11
217.7
 20
60.0
 21
0.0
  0
LINE
  8
COSTRUZIONI
 10
248.8
 11
248.8
 20
60.0
 21
0.0
  0
LINE
  8
COSTRUZIONI
 10
280.0
 11
0.0
 20
188.0
 21
188.0
  0
LINE
  8
COSTRUZIONI
 10
166.0
 11
166.0
 20
120.0
 21
188.0
  0
LINE
  8
COSTRUZIONI
 10
184.0
 11
184.0
 20
120.0
 21
188.0
  0
LINE
  8
COSTRUZIONI
 10
202.0
 11
202.0
 20
120.0
 21
188.0
  0
LINE
  8
COSTRUZIONI
 10
220.0
 11
220.0
 20
120.0
 21
188.0
  0
LINE
  8
COSTRUZIONI
 10
250.0
 11
250.0
 20
120.0
 21
188.0
  0
LINE
  8
COSTRUZIONI
 10
280.0
 11
166.0
 20
168.0
 21
168.0
  0
LINE
  8
COSTRUZIONI
 10
280.0
 11
166.0
 20
156.0
 21
156.0
  0
LINE
  8
COSTRUZIONI
 10
280.0
 11
166.0
 20
144.0
 21
144.0
  0
LINE
  8
COSTRUZIONI
 10
280.0
 11
166.0
 20
132.0
 21
132.0
  0
LINE
  8
COSTRUZIONI
 10
280.0
 11
166.0
 20
120.0
 21
120.0
  0
LINE
  8
QUOTATURA
 10
33.229
 11
33.229
 20
137.272
 21
153.252
  0
LINE
  8
QUOTATURA
 10
133.229
 11
133.229
 20
126.938
 21
153.252
  0
LINE
  8
QUOTATURA
 10
33.229
 11
80.416
 20
152.252
 21
152.252
  0
LINE
  8
QUOTATURA
 10
86.041
 11
133.229
 20
152.252
 21
152.252
  0
LINE
  8
QUOTATURA
 10
35.229
 11
33.229
 20
151.919
 21
152.252
  0
LINE
  8
QUOTATURA
 10
33.229
 11
35.229
 20
152.252
 21
152.585
  0
LINE
  8
QUOTATURA
 10
35.229
 11
35.229
 20
152.585
 21
151.919
  0
LINE
  8
QUOTATURA
 10
131.229
 11
133.229
 20
152.585
 21
152.252
  0
LINE
  8
QUOTATURA
 10
133.229
 11
131.229
 20
152.252
 21
151.919
  0
LINE
  8
QUOTATURA
 10
131.229
 11
131.229
 20
151.919
 21
152.585
  0
LINE
  8
APS_GEOMETRY
 10
107.229
 11
107.229
 20
119.072
 21
116.772
  0
LINE
  8
APS_GEOMETRY
 10
107.229
 11
129.229
 20
116.772
 21
116.772
  0
LINE
  8
APS_GEOMETRY
 10
129.229
 11
129.229
 20
116.772
 21
105.272
  0
LINE
  8
APS_GEOMETRY
 10
129.229
 11
129.729
 20
105.272
 21
104.772
  0
LINE
  8
APS_GEOMETRY
 10
129.729
 11
133.229
 20
104.772
 21
104.772
  0
LINE
  8
APS_GEOMETRY
 10
133.229
 11
133.229
 20
104.772
 21
125.772
  0
ARC
  8
APS_GEOMETRY
 10
132.229
 20
125.772
 40
1.0
 50
0.0
 51
90.0
  0
LINE
  8
APS_GEOMETRY
 10
132.229
 11
107.229
 20
126.772
 21
126.772
  0
LINE
  8
APS_GEOMETRY
 10
107.229
 11
107.229
 20
126.772
 21
124.072
  0
LINE
  8
APS_GEOMETRY
 10
107.229
 11
113.729
 20
124.072
 21
124.072
  0
LINE
  8
APS_GEOMETRY
 10
113.729
 11
113.729
 20
124.072
 21
119.072
  0
LINE
  8
APS_GEOMETRY
 10
113.729
 11
107.229
 20
119.072
 21
119.072
  0
LINE
  8
APS_GEOMETRY
 10
108.229
 11
107.229
 20
126.772
 21
126.772
  0
LINE
  8
APS_GEOMETRY
 10
107.229
 11
107.229
 20
126.772
 21
124.072
  0
LINE
  8
APS_GEOMETRY
 10
107.229
 11
113.229
 20
124.072
 21
124.072
  0
LINE
  8
APS_GEOMETRY
 10
113.229
 11
113.229
 20
124.072
 21
119.072
  0
LINE
  8
APS_GEOMETRY
 10
113.229
 11
107.229
 20
119.072
 21
119.072
  0
LINE
  8
APS_GEOMETRY
 10
107.229
 11
107.229
 20
119.072
 21
116.772
  0
LINE
  8
APS_GEOMETRY
 10
107.229
 11
99.229
 20
116.772
 21
116.772
  0
LINE
  8
APS_GEOMETRY
 10
99.229
 11
99.229
 20
116.772
 21
122.772
  0
LINE
  8
APS_GEOMETRY
 10
99.229
 11
39.229
 20
122.772
 21
122.772
  0
LINE
  8
APS_GEOMETRY
 10
39.229
 11
39.229
 20
122.772
 21
116.772
  0
LINE
  8
APS_GEOMETRY
 10
39.229
 11
33.229
 20
116.772
 21
116.772
  0
LINE
  8
APS_GEOMETRY
 10
33.229
 11
33.229
 20
116.772
 21
135.772
  0
ARC
  8
APS_GEOMETRY
 10
36.229
 20
135.772
 40
3.0
 50
90.0
 51
180.0
  0
LINE
  8
APS_GEOMETRY
 10
36.229
 11
56.895
 20
138.772
 21
138.772
  0
ARC
  8
APS_GEOMETRY
 10
56.895
 20
137.772
 40
1.0
 50
360.0
 51
90.0
  0
LINE
  8
APS_GEOMETRY
 10
57.895
 11
57.895
 20
137.772
 21
134.855
  0
LINE
  8
APS_GEOMETRY
 10
57.895
 11
81.562
 20
134.855
 21
134.855
  0
ARC
  8
APS_GEOMETRY
 10
81.562
 20
133.855
 40
1.0
 50
360.0
 51
90.0
  0
LINE
  8
APS_GEOMETRY
 10
82.562
 11
82.562
 20
133.855
 21
130.938
  0
LINE
  8
APS_GEOMETRY
 10
82.562
 11
107.229
 20
130.938
 21
130.938
  0
ARC
  8
APS_GEOMETRY
 10
107.229
 20
129.938
 40
1.0
 50
360.0
 51
90.0
  0
LINE
  8
APS_GEOMETRY
 10
108.229
 11
108.229
 20
129.938
 21
126.772
  0
LINE
  8
QUOTATURA
 10
132.229
 11
17.42
 20
104.772
 21
104.772
  0
LINE
  8
QUOTATURA
 10
32.229
 11
17.42
 20
138.772
 21
138.772
  0
LINE
  8
QUOTATURA
 10
18.42
 11
18.42
 20
104.772
 21
120.272
  0
LINE
  8
QUOTATURA
 10
18.42
 11
18.42
 20
123.278
 21
138.772
  0
LINE
  8
QUOTATURA
 10
18.754
 11
18.42
 20
106.772
 21
104.772
  0
LINE
  8
QUOTATURA
 10
18.42
 11
18.087
 20
104.772
 21
106.772
  0
LINE
  8
QUOTATURA
 10
18.087
 11
18.754
 20
106.772
 21
106.772
  0
LINE
  8
QUOTATURA
 10
18.087
 11
18.42
 20
136.772
 21
138.772
  0
LINE
  8
QUOTATURA
 10
18.42
 11
18.754
 20
138.772
 21
136.772
  0
LINE
  8
QUOTATURA
 10
18.754
 11
18.087
 20
136.772
 21
136.772
  0
LINE
  8
QUOTATURA
 10
134.229
 11
144.87
 20
126.772
 21
126.772
  0
LINE
  8
QUOTATURA
 10
134.229
 11
144.87
 20
104.772
 21
104.772
  0
LINE
  8
QUOTATURA
 10
143.87
 11
143.87
 20
126.772
 21
117.278
  0
LINE
  8
QUOTATURA
 10
143.87
 11
143.87
 20
114.272
 21
104.772
  0
LINE
  8
QUOTATURA
 10
143.537
 11
143.87
 20
124.772
 21
126.772
  0
LINE
  8
QUOTATURA
 10
143.87
 11
144.203
 20
126.772
 21
124.772
  0
LINE
  8
QUOTATURA
 10
144.203
 11
143.537
 20
124.772
 21
124.772
  0
LINE
  8
QUOTATURA
 10
144.203
 11
143.87
 20
106.772
 21
104.772
  0
LINE
  8
QUOTATURA
 10
143.87
 11
143.537
 20
104.772
 21
106.772
  0
LINE
  8
QUOTATURA
 10
143.537
 11
144.203
 20
106.772
 21
106.772
  0
TEXT
  8
TEXT
 10
264.35
 20
60.8
 30
0.0
 40
5.0
 50
0.0
  1
1
  0
TEXT
  8
TEXT
 10
202.15
 20
60.8
 30
0.0
 40
5.0
 50
0.0
  1
3
  0
TEXT
  8
TEXT
 10
171.05
 20
60.0
 30
0.0
 40
5.0
 50
0.0
  1
4
  0
TEXT
  8
TEXT
 10
139.95
 20
60.8
 30
0.0
 40
5.0
 50
0.0
  1
5
  0
TEXT
  8
TEXT
 10
108.85
 20
60.8
 30
0.0
 40
5.0
 50
0.0
  1
6
  0
TEXT
  8
TEXT
 10
77.75
 20
60.8
 30
0.0
 40
5.0
 50
0.0
  1
7
  0
TEXT
  8
TEXT
 10
46.65
 20
60.8
 30
0.0
 40
5.0
 50
0.0
  1
8
  0
TEXT
  8
TEXT
 10
15.55
 20
60.8
 30
0.0
 40
5.0
 50
0.0
  1
9
  0
TEXT
  8
TEXT
 10
165.429
 20
112.996
 30
0.0
 40
4.5
 50
0.0
  1
ANNOTAZIONI:
  0
TEXT
  8
TEXT
 10
0.0
 20
188.5
 30
0.0
 40
5.0
 50
0.0
  1
 SZ 100X34 MM    ART.SCORN-COPRIFILO-CS2_34X100
  0
TEXT
  8
TEXT
 10
233.25
 20
60.8
 30
0.0
 40
5.0
 50
0.0
  1
2
  0
TEXT
  8
TEXT
 10
222.123
 20
182.119
 30
0.0
 40
4.0
 50
0.0
  1
MISURE
  0
TEXT
  8
TEXT
 10
222.123
 20
176.119
 30
0.0
 40
4.0
 50
0.0
  1
MAGG.
  0
TEXT
  8
TEXT
 10
280.719
 20
69.107
 30
0.0
 40
2.0
 50
-90.0
  1
Toscocornici porte - 0577-685426 - info@toscocornici.it
  0
TEXT
  8
TEXT
 10
277.719
 20
69.107
 30
0.0
 40
2.0
 50
-90.0
  1

  0
TEXT
  8
TEXT
 10
274.719
 20
69.107
 30
0.0
 40
2.0
 50
-90.0
  1

  0
TEXT
  8
TEXT
 10
218.395
 20
9.914
 30
0.0
 40
3.0
 50
0.0
  1
A.
  0
TEXT
  8
TEXT
 10
218.395
 20
5.414
 30
0.0
 40
3.0
 50
0.0
  1
R.
  0
TEXT
  8
TEXT
 10
249.495
 20
9.914
 30
0.0
 40
3.0
 50
0.0
  1
A.
  0
TEXT
  8
TEXT
 10
249.495
 20
5.414
 30
0.0
 40
3.0
 50
0.0
  1
R.
  0
TEXT
  8
TEXT
 10
187.295
 20
9.914
 30
0.0
 40
3.0
 50
0.0
  1
A.
  0
TEXT
  8
TEXT
 10
187.295
 20
5.414
 30
0.0
 40
3.0
 50
0.0
  1
R.
  0
TEXT
  8
TEXT
 10
156.195
 20
9.914
 30
0.0
 40
3.0
 50
0.0
  1
A.
  0
TEXT
  8
TEXT
 10
156.195
 20
5.414
 30
0.0
 40
3.0
 50
0.0
  1
R.
  0
TEXT
  8
TEXT
 10
125.095
 20
9.914
 30
0.0
 40
3.0
 50
0.0
  1
A.
  0
TEXT
  8
TEXT
 10
125.095
 20
5.414
 30
0.0
 40
3.0
 50
0.0
  1
R.
  0
TEXT
  8
TEXT
 10
93.995
 20
9.914
 30
0.0
 40
3.0
 50
0.0
  1
A.
  0
TEXT
  8
TEXT
 10
93.995
 20
5.414
 30
0.0
 40
3.0
 50
0.0
  1
R.
  0
TEXT
  8
TEXT
 10
62.895
 20
9.914
 30
0.0
 40
3.0
 50
0.0
  1
A.
  0
TEXT
  8
TEXT
 10
62.895
 20
5.414
 30
0.0
 40
3.0
 50
0.0
  1
R.
  0
TEXT
  8
TEXT
 10
31.795
 20
9.914
 30
0.0
 40
3.0
 50
0.0
  1
A.
  0
TEXT
  8
TEXT
 10
31.795
 20
5.414
 30
0.0
 40
3.0
 50
0.0
  1
R.
  0
TEXT
  8
TEXT
 10
0.695
 20
9.914
 30
0.0
 40
3.0
 50
0.0
  1
A.
  0
TEXT
  8
TEXT
 10
0.695
 20
5.414
 30
0.0
 40
3.0
 50
0.0
  1
R.
  0
TEXT
  8
QUOTATURA
 10
80.916
 20
151.252
 30
0.0
 40
2.0
 50
0.0
  1
100
  0
TEXT
  8
QUOTATURA
 10
16.611
 20
120.772
 30
0.0
 40
2.0
 50
0.0
  1
3
  0
TEXT
  8
QUOTATURA
 10
18.449
 20
120.772
 30
0.0
 40
2.0
 50
0.0
  1
4
  0
TEXT
  8
QUOTATURA
 10
142.337
 20
114.772
 30
0.0
 40
2.0
 50
0.0
  1
22
  0
ENDSEC
  0
EOF
