  0
SECTION
  2
ENTITIES
  0
LINE
  8
APS_GEOMETRY
 10
0.0
 11
280.0
 20
0.0
 21
0.0
  0
LINE
  8
APS_GEOMETRY
 10
280.0
 11
280.0
 20
0.0
 21
200.0
  0
LINE
  8
APS_GEOMETRY
 10
280.0
 11
0.0
 20
200.0
 21
200.0
  0
LINE
  8
APS_GEOMETRY
 10
0.0
 11
0.0
 20
200.0
 21
0.0
  0
LINE
  8
COSTRUZIONI
 10
0.0
 11
280.0
 20
60.0
 21
60.0
  0
LINE
  8
COSTRUZIONI
 10
31.1
 11
31.1
 20
60.0
 21
0.0
  0
LINE
  8
COSTRUZIONI
 10
62.2
 11
62.2
 20
60.0
 21
0.0
  0
LINE
  8
COSTRUZIONI
 10
93.3
 11
93.3
 20
60.0
 21
0.0
  0
LINE
  8
COSTRUZIONI
 10
124.4
 11
124.4
 20
60.0
 21
0.0
  0
LINE
  8
COSTRUZIONI
 10
155.5
 11
155.5
 20
60.0
 21
0.0
  0
LINE
  8
COSTRUZIONI
 10
186.6
 11
186.6
 20
60.0
 21
0.0
  0
LINE
  8
COSTRUZIONI
 10
217.7
 11
217.7
 20
60.0
 21
0.0
  0
LINE
  8
COSTRUZIONI
 10
248.8
 11
248.8
 20
60.0
 21
0.0
  0
LINE
  8
COSTRUZIONI
 10
280.0
 11
0.0
 20
188.0
 21
188.0
  0
LINE
  8
COSTRUZIONI
 10
166.0
 11
166.0
 20
120.0
 21
188.0
  0
LINE
  8
COSTRUZIONI
 10
184.0
 11
184.0
 20
120.0
 21
188.0
  0
LINE
  8
COSTRUZIONI
 10
202.0
 11
202.0
 20
120.0
 21
188.0
  0
LINE
  8
COSTRUZIONI
 10
220.0
 11
220.0
 20
120.0
 21
188.0
  0
LINE
  8
COSTRUZIONI
 10
250.0
 11
250.0
 20
120.0
 21
188.0
  0
LINE
  8
COSTRUZIONI
 10
280.0
 11
166.0
 20
168.0
 21
168.0
  0
LINE
  8
COSTRUZIONI
 10
280.0
 11
166.0
 20
156.0
 21
156.0
  0
LINE
  8
COSTRUZIONI
 10
280.0
 11
166.0
 20
144.0
 21
144.0
  0
LINE
  8
COSTRUZIONI
 10
280.0
 11
166.0
 20
132.0
 21
132.0
  0
LINE
  8
COSTRUZIONI
 10
280.0
 11
166.0
 20
120.0
 21
120.0
  0
LINE
  8
QUOTATURA
 10
34.754
 11
34.754
 20
124.268
 21
105.53
  0
LINE
  8
QUOTATURA
 10
124.754
 11
124.754
 20
112.268
 21
105.53
  0
LINE
  8
QUOTATURA
 10
34.754
 11
76.47
 20
105.53
 21
105.53
  0
LINE
  8
QUOTATURA
 10
83.038
 11
124.754
 20
105.53
 21
105.53
  0
LINE
  8
QUOTATURA
 10
37.754
 11
34.754
 20
105.03
 21
105.53
  0
LINE
  8
QUOTATURA
 10
34.754
 11
37.754
 20
105.53
 21
106.031
  0
LINE
  8
QUOTATURA
 10
37.754
 11
37.754
 20
106.031
 21
105.03
  0
LINE
  8
QUOTATURA
 10
121.754
 11
124.754
 20
106.031
 21
105.53
  0
LINE
  8
QUOTATURA
 10
124.754
 11
121.754
 20
105.53
 21
105.03
  0
LINE
  8
QUOTATURA
 10
121.754
 11
121.754
 20
105.03
 21
106.031
  0
ARC
  8
APS_GEOMETRY
 10
106.754
 20
137.268
 40
2.0
 50
90.0
 51
180.0
  0
LINE
  8
APS_GEOMETRY
 10
104.754
 11
104.754
 20
137.268
 21
137.018
  0
LINE
  8
APS_GEOMETRY
 10
104.754
 11
103.754
 20
137.018
 21
137.018
  0
ARC
  8
APS_GEOMETRY
 10
103.754
 20
135.018
 40
2.0
 50
90.0
 51
180.0
  0
LINE
  8
APS_GEOMETRY
 10
101.754
 11
101.754
 20
135.018
 21
134.768
  0
LINE
  8
APS_GEOMETRY
 10
101.754
 11
100.754
 20
134.768
 21
134.768
  0
ARC
  8
APS_GEOMETRY
 10
100.754
 20
132.768
 40
2.0
 50
90.0
 51
180.0
  0
LINE
  8
APS_GEOMETRY
 10
98.754
 11
98.754
 20
132.768
 21
132.518
  0
LINE
  8
APS_GEOMETRY
 10
98.754
 11
60.754
 20
132.518
 21
132.518
  0
LINE
  8
APS_GEOMETRY
 10
60.754
 11
60.754
 20
132.518
 21
132.768
  0
ARC
  8
APS_GEOMETRY
 10
58.754
 20
132.768
 40
2.0
 50
0.0
 51
90.0
  0
LINE
  8
APS_GEOMETRY
 10
58.754
 11
57.754
 20
134.768
 21
134.768
  0
LINE
  8
APS_GEOMETRY
 10
57.754
 11
57.754
 20
134.768
 21
135.018
  0
ARC
  8
APS_GEOMETRY
 10
55.754
 20
135.018
 40
2.0
 50
0.0
 51
90.0
  0
LINE
  8
APS_GEOMETRY
 10
55.754
 11
54.754
 20
137.018
 21
137.018
  0
LINE
  8
APS_GEOMETRY
 10
54.754
 11
54.754
 20
137.018
 21
137.268
  0
ARC
  8
APS_GEOMETRY
 10
52.754
 20
137.268
 40
2.0
 50
0.0
 51
90.0
  0
LINE
  8
APS_GEOMETRY
 10
52.754
 11
37.004
 20
139.268
 21
139.268
  0
ARC
  8
APS_GEOMETRY
 10
37.004
 20
137.018
 40
2.25
 50
90.0
 51
180.0
  0
LINE
  8
APS_GEOMETRY
 10
34.754
 11
34.754
 20
137.018
 21
124.768
  0
LINE
  8
APS_GEOMETRY
 10
34.754
 11
35.254
 20
124.768
 21
124.268
  0
LINE
  8
APS_GEOMETRY
 10
35.254
 11
45.754
 20
124.268
 21
124.268
  0
LINE
  8
APS_GEOMETRY
 10
45.754
 11
45.754
 20
124.268
 21
127.268
  0
LINE
  8
APS_GEOMETRY
 10
45.754
 11
67.254
 20
127.268
 21
127.268
  0
LINE
  8
APS_GEOMETRY
 10
67.254
 11
67.254
 20
127.268
 21
124.268
  0
LINE
  8
APS_GEOMETRY
 10
67.254
 11
70.754
 20
124.268
 21
124.268
  0
LINE
  8
APS_GEOMETRY
 10
70.754
 11
70.754
 20
124.268
 21
127.268
  0
LINE
  8
APS_GEOMETRY
 10
70.754
 11
91.254
 20
127.268
 21
127.268
  0
LINE
  8
APS_GEOMETRY
 10
91.254
 11
91.254
 20
127.268
 21
124.268
  0
LINE
  8
APS_GEOMETRY
 10
91.254
 11
94.754
 20
124.268
 21
124.268
  0
LINE
  8
APS_GEOMETRY
 10
94.754
 11
94.754
 20
124.268
 21
127.268
  0
LINE
  8
APS_GEOMETRY
 10
94.754
 11
116.254
 20
127.268
 21
127.268
  0
LINE
  8
APS_GEOMETRY
 10
116.254
 11
116.254
 20
127.268
 21
124.268
  0
LINE
  8
APS_GEOMETRY
 10
116.254
 11
120.754
 20
124.268
 21
124.268
  0
LINE
  8
APS_GEOMETRY
 10
120.754
 11
120.754
 20
124.268
 21
113.768
  0
LINE
  8
APS_GEOMETRY
 10
120.754
 11
121.728
 20
113.768
 21
112.794
  0
LINE
  8
APS_GEOMETRY
 10
121.728
 11
124.754
 20
112.794
 21
112.268
  0
LINE
  8
APS_GEOMETRY
 10
124.754
 11
124.754
 20
112.268
 21
137.018
  0
ARC
  8
APS_GEOMETRY
 10
122.504
 20
137.018
 40
2.25
 50
0.016
 51
90.0
  0
LINE
  8
APS_GEOMETRY
 10
122.504
 11
106.754
 20
139.268
 21
139.268
  0
LINE
  8
APS_GEOMETRY
 10
106.754
 11
117.869
 20
139.268
 21
139.268
  0
LINE
  8
QUOTATURA
 10
34.754
 11
23.055
 20
124.268
 21
124.268
  0
LINE
  8
QUOTATURA
 10
34.754
 11
23.055
 20
139.268
 21
139.268
  0
LINE
  8
QUOTATURA
 10
23.055
 11
23.055
 20
124.268
 21
129.493
  0
LINE
  8
QUOTATURA
 10
23.055
 11
23.055
 20
134.019
 21
139.268
  0
LINE
  8
QUOTATURA
 10
23.555
 11
23.055
 20
127.268
 21
124.268
  0
LINE
  8
QUOTATURA
 10
23.055
 11
22.555
 20
124.268
 21
127.268
  0
LINE
  8
QUOTATURA
 10
22.555
 11
23.555
 20
127.268
 21
127.268
  0
LINE
  8
QUOTATURA
 10
22.555
 11
23.055
 20
136.268
 21
139.268
  0
LINE
  8
QUOTATURA
 10
23.055
 11
23.555
 20
139.268
 21
136.268
  0
LINE
  8
QUOTATURA
 10
23.555
 11
22.555
 20
136.268
 21
136.268
  0
LINE
  8
QUOTATURA
 10
124.754
 11
137.301
 20
139.268
 21
139.268
  0
LINE
  8
QUOTATURA
 10
124.754
 11
137.301
 20
112.268
 21
112.268
  0
LINE
  8
QUOTATURA
 10
137.301
 11
137.301
 20
139.268
 21
128.027
  0
LINE
  8
QUOTATURA
 10
137.301
 11
137.301
 20
123.518
 21
112.268
  0
LINE
  8
QUOTATURA
 10
136.801
 11
137.301
 20
136.268
 21
139.268
  0
LINE
  8
QUOTATURA
 10
137.301
 11
137.801
 20
139.268
 21
136.268
  0
LINE
  8
QUOTATURA
 10
137.801
 11
136.801
 20
136.268
 21
136.268
  0
LINE
  8
QUOTATURA
 10
137.801
 11
137.301
 20
115.268
 21
112.268
  0
LINE
  8
QUOTATURA
 10
137.301
 11
136.801
 20
112.268
 21
115.268
  0
LINE
  8
QUOTATURA
 10
136.801
 11
137.801
 20
115.268
 21
115.268
  0
LINE
  8
QUOTATURA
 10
54.754
 11
54.754
 20
137.018
 21
146.467
  0
LINE
  8
QUOTATURA
 10
34.754
 11
34.754
 20
139.268
 21
146.467
  0
LINE
  8
QUOTATURA
 10
54.754
 11
47.984
 20
146.467
 21
146.467
  0
LINE
  8
QUOTATURA
 10
41.525
 11
34.754
 20
146.467
 21
146.467
  0
LINE
  8
QUOTATURA
 10
51.754
 11
54.754
 20
146.968
 21
146.467
  0
LINE
  8
QUOTATURA
 10
54.754
 11
51.754
 20
146.467
 21
145.967
  0
LINE
  8
QUOTATURA
 10
51.754
 11
51.754
 20
145.967
 21
146.968
  0
LINE
  8
QUOTATURA
 10
37.754
 11
34.754
 20
145.967
 21
146.467
  0
LINE
  8
QUOTATURA
 10
34.754
 11
37.754
 20
146.467
 21
146.968
  0
LINE
  8
QUOTATURA
 10
37.754
 11
37.754
 20
146.968
 21
145.967
  0
LINE
  8
QUOTATURA
 10
120.754
 11
120.754
 20
113.768
 21
109.179
  0
LINE
  8
QUOTATURA
 10
124.754
 11
124.754
 20
112.268
 21
109.179
  0
LINE
  8
QUOTATURA
 10
120.754
 11
116.024
 20
109.179
 21
109.179
  0
LINE
  8
QUOTATURA
 10
118.754
 11
120.754
 20
109.512
 21
109.179
  0
LINE
  8
QUOTATURA
 10
120.754
 11
118.754
 20
109.179
 21
108.845
  0
LINE
  8
QUOTATURA
 10
118.754
 11
118.754
 20
108.845
 21
109.512
  0
LINE
  8
QUOTATURA
 10
124.754
 11
128.754
 20
109.179
 21
109.179
  0
LINE
  8
QUOTATURA
 10
126.754
 11
124.754
 20
108.845
 21
109.179
  0
LINE
  8
QUOTATURA
 10
124.754
 11
126.754
 20
109.179
 21
109.512
  0
LINE
  8
QUOTATURA
 10
126.754
 11
126.754
 20
109.512
 21
108.845
  0
LINE
  8
QUOTATURA
 10
124.754
 11
111.578
 20
112.268
 21
112.268
  0
LINE
  8
QUOTATURA
 10
120.754
 11
111.578
 20
124.268
 21
124.268
  0
LINE
  8
QUOTATURA
 10
111.578
 11
111.578
 20
112.268
 21
116.768
  0
LINE
  8
QUOTATURA
 10
111.578
 11
111.578
 20
119.774
 21
124.268
  0
LINE
  8
QUOTATURA
 10
111.911
 11
111.578
 20
114.268
 21
112.268
  0
LINE
  8
QUOTATURA
 10
111.578
 11
111.245
 20
112.268
 21
114.268
  0
LINE
  8
QUOTATURA
 10
111.245
 11
111.911
 20
114.268
 21
114.268
  0
LINE
  8
QUOTATURA
 10
111.245
 11
111.578
 20
122.268
 21
124.268
  0
LINE
  8
QUOTATURA
 10
111.578
 11
111.911
 20
124.268
 21
122.268
  0
LINE
  8
QUOTATURA
 10
111.911
 11
111.245
 20
122.268
 21
122.268
  0
TEXT
  8
TEXT
 10
264.35
 20
60.8
 30
0.0
 40
5.0
 50
0.0
  1
1
  0
TEXT
  8
TEXT
 10
202.15
 20
60.8
 30
0.0
 40
5.0
 50
0.0
  1
3
  0
TEXT
  8
TEXT
 10
171.05
 20
60.0
 30
0.0
 40
5.0
 50
0.0
  1
4
  0
TEXT
  8
TEXT
 10
139.95
 20
60.8
 30
0.0
 40
5.0
 50
0.0
  1
5
  0
TEXT
  8
TEXT
 10
108.85
 20
60.8
 30
0.0
 40
5.0
 50
0.0
  1
6
  0
TEXT
  8
TEXT
 10
77.75
 20
60.8
 30
0.0
 40
5.0
 50
0.0
  1
7
  0
TEXT
  8
TEXT
 10
46.65
 20
60.8
 30
0.0
 40
5.0
 50
0.0
  1
8
  0
TEXT
  8
TEXT
 10
15.55
 20
60.8
 30
0.0
 40
5.0
 50
0.0
  1
9
  0
TEXT
  8
TEXT
 10
165.429
 20
112.996
 30
0.0
 40
4.5
 50
0.0
  1
ANNOTAZIONI:
  0
TEXT
  8
TEXT
 10
0.0
 20
188.5
 30
0.0
 40
5.0
 50
0.0
  1
 SZ 90X27 MM             ART. SCORN-CS204_27X90
  0
TEXT
  8
TEXT
 10
233.25
 20
60.8
 30
0.0
 40
5.0
 50
0.0
  1
2
  0
TEXT
  8
TEXT
 10
222.123
 20
182.119
 30
0.0
 40
4.0
 50
0.0
  1
MISURE
  0
TEXT
  8
TEXT
 10
222.123
 20
176.119
 30
0.0
 40
4.0
 50
0.0
  1
MAGG.
  0
TEXT
  8
TEXT
 10
280.719
 20
69.107
 30
0.0
 40
2.0
 50
-90.0
  1
Toscocornici porte - 0577-685426 - info@toscocornici.it
  0
TEXT
  8
TEXT
 10
277.719
 20
69.107
 30
0.0
 40
2.0
 50
-90.0
  1

  0
TEXT
  8
TEXT
 10
274.719
 20
69.107
 30
0.0
 40
2.0
 50
-90.0
  1

  0
TEXT
  8
TEXT
 10
218.395
 20
9.914
 30
0.0
 40
3.0
 50
0.0
  1
A.
  0
TEXT
  8
TEXT
 10
218.395
 20
5.414
 30
0.0
 40
3.0
 50
0.0
  1
R.
  0
TEXT
  8
TEXT
 10
249.495
 20
9.914
 30
0.0
 40
3.0
 50
0.0
  1
A.
  0
TEXT
  8
TEXT
 10
249.495
 20
5.414
 30
0.0
 40
3.0
 50
0.0
  1
R.
  0
TEXT
  8
TEXT
 10
187.295
 20
9.914
 30
0.0
 40
3.0
 50
0.0
  1
A.
  0
TEXT
  8
TEXT
 10
187.295
 20
5.414
 30
0.0
 40
3.0
 50
0.0
  1
R.
  0
TEXT
  8
TEXT
 10
156.195
 20
9.914
 30
0.0
 40
3.0
 50
0.0
  1
A.
  0
TEXT
  8
TEXT
 10
156.195
 20
5.414
 30
0.0
 40
3.0
 50
0.0
  1
R.
  0
TEXT
  8
TEXT
 10
125.095
 20
9.914
 30
0.0
 40
3.0
 50
0.0
  1
A.
  0
TEXT
  8
TEXT
 10
125.095
 20
5.414
 30
0.0
 40
3.0
 50
0.0
  1
R.
  0
TEXT
  8
TEXT
 10
93.995
 20
9.914
 30
0.0
 40
3.0
 50
0.0
  1
A.
  0
TEXT
  8
TEXT
 10
93.995
 20
5.414
 30
0.0
 40
3.0
 50
0.0
  1
R.
  0
TEXT
  8
TEXT
 10
62.895
 20
9.914
 30
0.0
 40
3.0
 50
0.0
  1
A.
  0
TEXT
  8
TEXT
 10
62.895
 20
5.414
 30
0.0
 40
3.0
 50
0.0
  1
R.
  0
TEXT
  8
TEXT
 10
31.795
 20
9.914
 30
0.0
 40
3.0
 50
0.0
  1
A.
  0
TEXT
  8
TEXT
 10
31.795
 20
5.414
 30
0.0
 40
3.0
 50
0.0
  1
R.
  0
TEXT
  8
TEXT
 10
0.695
 20
9.914
 30
0.0
 40
3.0
 50
0.0
  1
A.
  0
TEXT
  8
TEXT
 10
0.695
 20
5.414
 30
0.0
 40
3.0
 50
0.0
  1
R.
  0
TEXT
  8
QUOTATURA
 10
77.211
 20
104.03
 30
0.0
 40
3.0
 50
0.0
  1
90
  0
TEXT
  8
QUOTATURA
 10
21.151
 20
130.268
 30
0.0
 40
3.0
 50
0.0
  1
15
  0
TEXT
  8
QUOTATURA
 10
134.876
 20
124.268
 30
0.0
 40
3.0
 50
0.0
  1
27
  0
TEXT
  8
QUOTATURA
 10
42.275
 20
144.967
 30
0.0
 40
3.0
 50
0.0
  1
20
  0
TEXT
  8
QUOTATURA
 10
113.797
 20
108.179
 30
0.0
 40
2.0
 50
0.0
  1
4
  0
TEXT
  8
QUOTATURA
 10
110.368
 20
117.268
 30
0.0
 40
2.0
 50
0.0
  1
12
  0
ENDSEC
  0
EOF
