  0
SECTION
  2
ENTITIES
  0
LINE
  8
APS_GEOMETRY
 10
0.0
 11
280.0
 20
0.0
 21
0.0
  0
LINE
  8
APS_GEOMETRY
 10
280.0
 11
280.0
 20
0.0
 21
200.0
  0
LINE
  8
APS_GEOMETRY
 10
280.0
 11
0.0
 20
200.0
 21
200.0
  0
LINE
  8
APS_GEOMETRY
 10
0.0
 11
0.0
 20
200.0
 21
0.0
  0
LINE
  8
COSTRUZIONI
 10
0.0
 11
280.0
 20
60.0
 21
60.0
  0
LINE
  8
COSTRUZIONI
 10
31.1
 11
31.1
 20
60.0
 21
0.0
  0
LINE
  8
COSTRUZIONI
 10
62.2
 11
62.2
 20
60.0
 21
0.0
  0
LINE
  8
COSTRUZIONI
 10
93.3
 11
93.3
 20
60.0
 21
0.0
  0
LINE
  8
COSTRUZIONI
 10
124.4
 11
124.4
 20
60.0
 21
0.0
  0
LINE
  8
COSTRUZIONI
 10
155.5
 11
155.5
 20
60.0
 21
0.0
  0
LINE
  8
COSTRUZIONI
 10
186.6
 11
186.6
 20
60.0
 21
0.0
  0
LINE
  8
COSTRUZIONI
 10
217.7
 11
217.7
 20
60.0
 21
0.0
  0
LINE
  8
COSTRUZIONI
 10
248.8
 11
248.8
 20
60.0
 21
0.0
  0
LINE
  8
COSTRUZIONI
 10
280.0
 11
0.0
 20
188.0
 21
188.0
  0
LINE
  8
COSTRUZIONI
 10
166.0
 11
166.0
 20
120.0
 21
188.0
  0
LINE
  8
COSTRUZIONI
 10
184.0
 11
184.0
 20
120.0
 21
188.0
  0
LINE
  8
COSTRUZIONI
 10
202.0
 11
202.0
 20
120.0
 21
188.0
  0
LINE
  8
COSTRUZIONI
 10
220.0
 11
220.0
 20
120.0
 21
188.0
  0
LINE
  8
COSTRUZIONI
 10
250.0
 11
250.0
 20
120.0
 21
188.0
  0
LINE
  8
COSTRUZIONI
 10
280.0
 11
166.0
 20
168.0
 21
168.0
  0
LINE
  8
COSTRUZIONI
 10
280.0
 11
166.0
 20
156.0
 21
156.0
  0
LINE
  8
COSTRUZIONI
 10
280.0
 11
166.0
 20
144.0
 21
144.0
  0
LINE
  8
COSTRUZIONI
 10
280.0
 11
166.0
 20
132.0
 21
132.0
  0
LINE
  8
COSTRUZIONI
 10
280.0
 11
166.0
 20
120.0
 21
120.0
  0
LINE
  8
APS_GEOMETRY
 10
111.993
 11
111.993
 20
120.11
 21
117.11
  0
LINE
  8
APS_GEOMETRY
 10
111.993
 11
122.993
 20
117.11
 21
117.11
  0
LINE
  8
APS_GEOMETRY
 10
122.993
 11
122.993
 20
117.11
 21
132.11
  0
ARC
  8
APS_GEOMETRY
 10
117.493
 20
132.11
 40
5.5
 50
0.0
 51
176.055
  0
ARC
  8
APS_GEOMETRY
 10
111.507
 20
132.523
 40
0.5
 50
281.31
 51
356.055
  0
LINE
  8
APS_GEOMETRY
 10
111.605
 11
109.792
 20
132.033
 21
131.67
  0
ARC
  8
APS_GEOMETRY
 10
109.89
 20
131.18
 40
0.5
 50
101.31
 51
167.353
  0
ARC
  8
APS_GEOMETRY
 10
105.743
 20
132.11
 40
3.75
 50
187.154
 51
347.353
  0
ARC
  8
APS_GEOMETRY
 10
101.526
 20
131.581
 40
0.5
 50
7.154
 51
93.478
  0
LINE
  8
APS_GEOMETRY
 10
101.496
 11
41.754
 20
132.08
 21
128.45
  0
ARC
  8
APS_GEOMETRY
 10
41.785
 20
127.951
 40
0.5
 50
93.478
 51
160.0
  0
LINE
  8
APS_GEOMETRY
 10
41.315
 11
41.067
 20
128.122
 21
127.439
  0
ARC
  8
APS_GEOMETRY
 10
40.597
 20
127.61
 40
0.5
 50
270.0
 51
340.0
  0
LINE
  8
APS_GEOMETRY
 10
40.597
 11
39.993
 20
127.11
 21
127.11
  0
ARC
  8
APS_GEOMETRY
 10
39.993
 20
120.11
 40
7.0
 50
90.0
 51
180.0
  0
LINE
  8
APS_GEOMETRY
 10
32.993
 11
32.993
 20
120.11
 21
105.11
  0
LINE
  8
APS_GEOMETRY
 10
32.993
 11
36.019
 20
105.11
 21
105.637
  0
LINE
  8
APS_GEOMETRY
 10
36.019
 11
36.993
 20
105.637
 21
106.61
  0
LINE
  8
APS_GEOMETRY
 10
36.993
 11
36.993
 20
106.61
 21
117.11
  0
LINE
  8
APS_GEOMETRY
 10
36.993
 11
41.493
 20
117.11
 21
117.11
  0
LINE
  8
APS_GEOMETRY
 10
41.493
 11
41.493
 20
117.11
 21
120.11
  0
LINE
  8
APS_GEOMETRY
 10
41.493
 11
111.993
 20
120.11
 21
120.11
  0
LINE
  8
QUOTATURA
 10
36.993
 11
36.993
 20
115.11
 21
102.08
  0
LINE
  8
QUOTATURA
 10
32.993
 11
25.269
 20
103.08
 21
103.08
  0
LINE
  8
QUOTATURA
 10
30.993
 11
32.993
 20
103.413
 21
103.08
  0
LINE
  8
QUOTATURA
 10
32.993
 11
30.993
 20
103.08
 21
102.746
  0
LINE
  8
QUOTATURA
 10
30.993
 11
30.993
 20
102.746
 21
103.413
  0
LINE
  8
QUOTATURA
 10
36.993
 11
40.993
 20
103.08
 21
103.08
  0
LINE
  8
QUOTATURA
 10
38.993
 11
36.993
 20
102.746
 21
103.08
  0
LINE
  8
QUOTATURA
 10
36.993
 11
38.993
 20
103.08
 21
103.413
  0
LINE
  8
QUOTATURA
 10
38.993
 11
38.993
 20
103.413
 21
102.746
  0
LINE
  8
QUOTATURA
 10
123.993
 11
131.932
 20
117.11
 21
117.11
  0
LINE
  8
QUOTATURA
 10
118.493
 11
131.932
 20
137.61
 21
137.61
  0
LINE
  8
QUOTATURA
 10
130.932
 11
130.932
 20
117.11
 21
125.836
  0
LINE
  8
QUOTATURA
 10
130.932
 11
130.932
 20
128.867
 21
137.61
  0
LINE
  8
QUOTATURA
 10
131.265
 11
130.932
 20
119.11
 21
117.11
  0
LINE
  8
QUOTATURA
 10
130.932
 11
130.599
 20
117.11
 21
119.11
  0
LINE
  8
QUOTATURA
 10
130.599
 11
131.265
 20
119.11
 21
119.11
  0
LINE
  8
QUOTATURA
 10
130.599
 11
130.932
 20
135.61
 21
137.61
  0
LINE
  8
QUOTATURA
 10
130.932
 11
131.265
 20
137.61
 21
135.61
  0
LINE
  8
QUOTATURA
 10
131.265
 11
130.599
 20
135.61
 21
135.61
  0
LINE
  8
QUOTATURA
 10
110.993
 11
96.991
 20
117.11
 21
117.11
  0
LINE
  8
QUOTATURA
 10
110.993
 11
96.991
 20
120.11
 21
120.11
  0
LINE
  8
QUOTATURA
 10
97.991
 11
97.991
 20
117.11
 21
112.147
  0
LINE
  8
QUOTATURA
 10
97.991
 11
93.09
 20
112.147
 21
112.147
  0
LINE
  8
QUOTATURA
 10
97.658
 11
97.991
 20
115.11
 21
117.11
  0
LINE
  8
QUOTATURA
 10
97.991
 11
98.324
 20
117.11
 21
115.11
  0
LINE
  8
QUOTATURA
 10
98.324
 11
97.658
 20
115.11
 21
115.11
  0
LINE
  8
QUOTATURA
 10
97.991
 11
97.991
 20
120.11
 21
124.11
  0
LINE
  8
QUOTATURA
 10
98.324
 11
97.991
 20
122.11
 21
120.11
  0
LINE
  8
QUOTATURA
 10
97.991
 11
97.658
 20
120.11
 21
122.11
  0
LINE
  8
QUOTATURA
 10
97.658
 11
98.324
 20
122.11
 21
122.11
  0
LINE
  8
QUOTATURA
 10
31.993
 11
17.163
 20
105.11
 21
105.11
  0
LINE
  8
QUOTATURA
 10
31.993
 11
17.163
 20
117.11
 21
117.11
  0
LINE
  8
QUOTATURA
 10
18.163
 11
18.163
 20
105.11
 21
109.61
  0
LINE
  8
QUOTATURA
 10
18.163
 11
18.163
 20
112.617
 21
117.11
  0
LINE
  8
QUOTATURA
 10
18.496
 11
18.163
 20
107.11
 21
105.11
  0
LINE
  8
QUOTATURA
 10
18.163
 11
17.83
 20
105.11
 21
107.11
  0
LINE
  8
QUOTATURA
 10
17.83
 11
18.496
 20
107.11
 21
107.11
  0
LINE
  8
QUOTATURA
 10
17.83
 11
18.163
 20
115.11
 21
117.11
  0
LINE
  8
QUOTATURA
 10
18.163
 11
18.496
 20
117.11
 21
115.11
  0
LINE
  8
QUOTATURA
 10
18.496
 11
17.83
 20
115.11
 21
115.11
  0
LINE
  8
QUOTATURA
 10
111.993
 11
111.993
 20
116.11
 21
109.63
  0
LINE
  8
QUOTATURA
 10
122.993
 11
122.993
 20
116.11
 21
109.63
  0
LINE
  8
QUOTATURA
 10
111.993
 11
116.107
 20
110.63
 21
110.63
  0
LINE
  8
QUOTATURA
 10
118.879
 11
122.993
 20
110.63
 21
110.63
  0
LINE
  8
QUOTATURA
 10
113.993
 11
111.993
 20
110.296
 21
110.63
  0
LINE
  8
QUOTATURA
 10
111.993
 11
113.993
 20
110.63
 21
110.963
  0
LINE
  8
QUOTATURA
 10
113.993
 11
113.993
 20
110.963
 21
110.296
  0
LINE
  8
QUOTATURA
 10
120.993
 11
122.993
 20
110.963
 21
110.63
  0
LINE
  8
QUOTATURA
 10
122.993
 11
120.993
 20
110.63
 21
110.296
  0
LINE
  8
QUOTATURA
 10
120.993
 11
120.993
 20
110.296
 21
110.963
  0
LINE
  8
QUOTATURA
 10
32.993
 11
32.993
 20
104.11
 21
96.755
  0
LINE
  8
QUOTATURA
 10
122.993
 11
122.993
 20
116.11
 21
96.755
  0
LINE
  8
QUOTATURA
 10
32.993
 11
75.804
 20
97.755
 21
97.755
  0
LINE
  8
QUOTATURA
 10
80.182
 11
122.993
 20
97.755
 21
97.755
  0
LINE
  8
QUOTATURA
 10
34.993
 11
32.993
 20
97.421
 21
97.755
  0
LINE
  8
QUOTATURA
 10
32.993
 11
34.993
 20
97.755
 21
98.088
  0
LINE
  8
QUOTATURA
 10
34.993
 11
34.993
 20
98.088
 21
97.421
  0
LINE
  8
QUOTATURA
 10
120.993
 11
122.993
 20
98.088
 21
97.755
  0
LINE
  8
QUOTATURA
 10
122.993
 11
120.993
 20
97.755
 21
97.421
  0
LINE
  8
QUOTATURA
 10
120.993
 11
120.993
 20
97.421
 21
98.088
  0
TEXT
  8
TEXT
 10
264.35
 20
60.8
 30
0.0
 40
5.0
 50
0.0
  1
1
  0
TEXT
  8
TEXT
 10
202.15
 20
60.8
 30
0.0
 40
5.0
 50
0.0
  1
3
  0
TEXT
  8
TEXT
 10
171.05
 20
60.0
 30
0.0
 40
5.0
 50
0.0
  1
4
  0
TEXT
  8
TEXT
 10
139.95
 20
60.8
 30
0.0
 40
5.0
 50
0.0
  1
5
  0
TEXT
  8
TEXT
 10
108.85
 20
60.8
 30
0.0
 40
5.0
 50
0.0
  1
6
  0
TEXT
  8
TEXT
 10
77.75
 20
60.8
 30
0.0
 40
5.0
 50
0.0
  1
7
  0
TEXT
  8
TEXT
 10
46.65
 20
60.8
 30
0.0
 40
5.0
 50
0.0
  1
8
  0
TEXT
  8
TEXT
 10
15.55
 20
60.8
 30
0.0
 40
5.0
 50
0.0
  1
9
  0
TEXT
  8
TEXT
 10
165.429
 20
112.996
 30
0.0
 40
4.5
 50
0.0
  1
ANNOTAZIONI:
  0
TEXT
  8
TEXT
 10
165.429
 20
106.696
 30
0.0
 40
4.5
 50
0.0
  1
ALB.2 Dopo aver messo a filo
  0
TEXT
  8
TEXT
 10
165.429
 20
100.396
 30
0.0
 40
4.5
 50
0.0
  1
orizzontalmente far sfiorare bacchetta
  0
TEXT
  8
TEXT
 10
165.429
 20
94.096
 30
0.0
 40
4.5
 50
0.0
  1
e abbassare 5/8 decimi.
  0
TEXT
  8
TEXT
 10
165.429
 20
87.796
 30
0.0
 40
4.5
 50
0.0
  1

  0
TEXT
  8
TEXT
 10
165.429
 20
81.496
 30
0.0
 40
4.5
 50
0.0
  1
ALZARE GUIDE
  0
TEXT
  8
TEXT
 10
0.0
 20
188.5
 30
0.0
 40
5.0
 50
0.0
  1
 SZ 90X32,5 MM    ART. SCORN-COPRIFILO-SAGOMATO_32,5X90
  0
TEXT
  8
TEXT
 10
233.25
 20
60.8
 30
0.0
 40
5.0
 50
0.0
  1
2
  0
TEXT
  8
TEXT
 10
222.123
 20
182.119
 30
0.0
 40
4.0
 50
0.0
  1
MISURE
  0
TEXT
  8
TEXT
 10
222.123
 20
176.119
 30
0.0
 40
4.0
 50
0.0
  1
MAGG.
  0
TEXT
  8
TEXT
 10
280.719
 20
69.107
 30
0.0
 40
2.0
 50
-90.0
  1
Toscocornici porte - 0577-685426 - info@toscocornici.it
  0
TEXT
  8
TEXT
 10
277.719
 20
69.107
 30
0.0
 40
2.0
 50
-90.0
  1

  0
TEXT
  8
TEXT
 10
274.719
 20
69.107
 30
0.0
 40
2.0
 50
-90.0
  1

  0
TEXT
  8
TEXT
 10
218.007
 20
53.165
 30
0.0
 40
3.0
 50
0.0
  1
MM 30 N.976
  0
TEXT
  8
TEXT
 10
218.007
 20
48.665
 30
0.0
 40
3.0
 50
0.0
  1
colt. scatola N.58
  0
TEXT
  8
TEXT
 10
218.007
 20
44.165
 30
0.0
 40
3.0
 50
0.0
  1

  0
TEXT
  8
TEXT
 10
218.007
 20
39.665
 30
0.0
 40
3.0
 50
0.0
  1
A.
  0
TEXT
  8
TEXT
 10
218.007
 20
35.165
 30
0.0
 40
3.0
 50
0.0
  1
R.
  0
TEXT
  8
TEXT
 10
218.395
 20
9.914
 30
0.0
 40
3.0
 50
0.0
  1
A.
  0
TEXT
  8
TEXT
 10
218.395
 20
5.414
 30
0.0
 40
3.0
 50
0.0
  1
R.
  0
TEXT
  8
TEXT
 10
187.269
 20
53.165
 30
0.0
 40
3.0
 50
0.0
  1
MM 30 N.976/A
  0
TEXT
  8
TEXT
 10
187.269
 20
48.665
 30
0.0
 40
3.0
 50
0.0
  1
colt. scatola N.58
  0
TEXT
  8
TEXT
 10
187.269
 20
44.165
 30
0.0
 40
3.0
 50
0.0
  1

  0
TEXT
  8
TEXT
 10
187.269
 20
39.665
 30
0.0
 40
3.0
 50
0.0
  1
A.
  0
TEXT
  8
TEXT
 10
187.269
 20
35.165
 30
0.0
 40
3.0
 50
0.0
  1
R.70.8/90
  0
TEXT
  8
TEXT
 10
94.04
 20
53.165
 30
0.0
 40
3.0
 50
0.0
  1
MM 27 N. 281
  0
TEXT
  8
TEXT
 10
94.04
 20
48.665
 30
0.0
 40
3.0
 50
0.0
  1

  0
TEXT
  8
TEXT
 10
94.04
 20
44.165
 30
0.0
 40
3.0
 50
0.0
  1

  0
TEXT
  8
TEXT
 10
94.04
 20
39.665
 30
0.0
 40
3.0
 50
0.0
  1
A. 15.4
  0
TEXT
  8
TEXT
 10
94.04
 20
35.165
 30
0.0
 40
3.0
 50
0.0
  1
R. 69.9/22.1
  0
TEXT
  8
TEXT
 10
1.307
 20
53.165
 30
0.0
 40
3.0
 50
0.0
  1
MM 
  0
TEXT
  8
TEXT
 10
1.307
 20
48.665
 30
0.0
 40
3.0
 50
0.0
  1
N. 282
  0
TEXT
  8
TEXT
 10
1.307
 20
44.165
 30
0.0
 40
3.0
 50
0.0
  1

  0
TEXT
  8
TEXT
 10
1.307
 20
39.665
 30
0.0
 40
3.0
 50
0.0
  1
A. 137
  0
TEXT
  8
TEXT
 10
1.307
 20
35.165
 30
0.0
 40
3.0
 50
0.0
  1
R. 71
  0
TEXT
  8
TEXT
 10
62.507
 20
53.165
 30
0.0
 40
3.0
 50
0.0
  1
MM 10
  0
TEXT
  8
TEXT
 10
62.507
 20
48.665
 30
0.0
 40
3.0
 50
0.0
  1
FRESA PIANA
  0
TEXT
  8
TEXT
 10
249.495
 20
9.914
 30
0.0
 40
3.0
 50
0.0
  1
A.
  0
TEXT
  8
TEXT
 10
249.495
 20
5.414
 30
0.0
 40
3.0
 50
0.0
  1
R.
  0
TEXT
  8
TEXT
 10
187.295
 20
9.914
 30
0.0
 40
3.0
 50
0.0
  1
A.
  0
TEXT
  8
TEXT
 10
187.295
 20
5.414
 30
0.0
 40
3.0
 50
0.0
  1
R.
  0
TEXT
  8
TEXT
 10
156.195
 20
9.914
 30
0.0
 40
3.0
 50
0.0
  1
A.
  0
TEXT
  8
TEXT
 10
156.195
 20
5.414
 30
0.0
 40
3.0
 50
0.0
  1
R.
  0
TEXT
  8
TEXT
 10
125.095
 20
9.914
 30
0.0
 40
3.0
 50
0.0
  1
A.
  0
TEXT
  8
TEXT
 10
125.095
 20
5.414
 30
0.0
 40
3.0
 50
0.0
  1
R.
  0
TEXT
  8
TEXT
 10
93.995
 20
9.914
 30
0.0
 40
3.0
 50
0.0
  1
A.
  0
TEXT
  8
TEXT
 10
93.995
 20
5.414
 30
0.0
 40
3.0
 50
0.0
  1
R.
  0
TEXT
  8
TEXT
 10
62.895
 20
9.914
 30
0.0
 40
3.0
 50
0.0
  1
A.
  0
TEXT
  8
TEXT
 10
62.895
 20
5.414
 30
0.0
 40
3.0
 50
0.0
  1
R.
  0
TEXT
  8
TEXT
 10
31.795
 20
9.914
 30
0.0
 40
3.0
 50
0.0
  1
A.
  0
TEXT
  8
TEXT
 10
31.795
 20
5.414
 30
0.0
 40
3.0
 50
0.0
  1
R.
  0
TEXT
  8
TEXT
 10
0.695
 20
9.914
 30
0.0
 40
3.0
 50
0.0
  1
A.
  0
TEXT
  8
TEXT
 10
0.695
 20
5.414
 30
0.0
 40
3.0
 50
0.0
  1
R.
  0
TEXT
  8
QUOTATURA
 10
23.042
 20
102.08
 30
0.0
 40
2.0
 50
0.0
  1
4
  0
TEXT
  8
QUOTATURA
 10
128.057
 20
126.36
 30
0.0
 40
2.0
 50
0.0
  1
20.5
  0
TEXT
  8
QUOTATURA
 10
91.098
 20
111.147
 30
0.0
 40
2.0
 50
0.0
  1
3
  0
TEXT
  8
QUOTATURA
 10
16.953
 20
110.11
 30
0.0
 40
2.0
 50
0.0
  1
12
  0
TEXT
  8
QUOTATURA
 10
116.607
 20
109.63
 30
0.0
 40
2.0
 50
0.0
  1
11
  0
TEXT
  8
QUOTATURA
 10
76.297
 20
96.755
 30
0.0
 40
2.0
 50
0.0
  1
90
  0
TEXT
  8
TEXT
 10
60.412
 20
137.411
 30
0.0
 40
5.0
 50
0.0
  1
PROFILO B
  0
TEXT
  8
TEXT
 10
60.412
 20
129.911
 30
0.0
 40
5.0
 50
0.0
  1

  0
ENDSEC
  0
EOF
