  0
SECTION
  2
ENTITIES
  0
LINE
  8
APS_GEOMETRY
 10
0.0
 11
280.0
 20
0.0
 21
0.0
  0
LINE
  8
APS_GEOMETRY
 10
280.0
 11
280.0
 20
0.0
 21
200.0
  0
LINE
  8
APS_GEOMETRY
 10
280.0
 11
0.0
 20
200.0
 21
200.0
  0
LINE
  8
APS_GEOMETRY
 10
0.0
 11
0.0
 20
200.0
 21
0.0
  0
LINE
  8
COSTRUZIONI
 10
0.0
 11
280.0
 20
60.0
 21
60.0
  0
LINE
  8
COSTRUZIONI
 10
31.1
 11
31.1
 20
60.0
 21
0.0
  0
LINE
  8
COSTRUZIONI
 10
62.2
 11
62.2
 20
60.0
 21
0.0
  0
LINE
  8
COSTRUZIONI
 10
93.3
 11
93.3
 20
60.0
 21
0.0
  0
LINE
  8
COSTRUZIONI
 10
124.4
 11
124.4
 20
60.0
 21
0.0
  0
LINE
  8
COSTRUZIONI
 10
155.5
 11
155.5
 20
60.0
 21
0.0
  0
LINE
  8
COSTRUZIONI
 10
186.6
 11
186.6
 20
60.0
 21
0.0
  0
LINE
  8
COSTRUZIONI
 10
217.7
 11
217.7
 20
60.0
 21
0.0
  0
LINE
  8
COSTRUZIONI
 10
248.8
 11
248.8
 20
60.0
 21
0.0
  0
LINE
  8
COSTRUZIONI
 10
280.0
 11
0.0
 20
188.0
 21
188.0
  0
LINE
  8
COSTRUZIONI
 10
166.0
 11
166.0
 20
120.0
 21
188.0
  0
LINE
  8
COSTRUZIONI
 10
184.0
 11
184.0
 20
120.0
 21
188.0
  0
LINE
  8
COSTRUZIONI
 10
202.0
 11
202.0
 20
120.0
 21
188.0
  0
LINE
  8
COSTRUZIONI
 10
220.0
 11
220.0
 20
120.0
 21
188.0
  0
LINE
  8
COSTRUZIONI
 10
250.0
 11
250.0
 20
120.0
 21
188.0
  0
LINE
  8
COSTRUZIONI
 10
280.0
 11
166.0
 20
168.0
 21
168.0
  0
LINE
  8
COSTRUZIONI
 10
280.0
 11
166.0
 20
156.0
 21
156.0
  0
LINE
  8
COSTRUZIONI
 10
280.0
 11
166.0
 20
144.0
 21
144.0
  0
LINE
  8
COSTRUZIONI
 10
280.0
 11
166.0
 20
132.0
 21
132.0
  0
LINE
  8
COSTRUZIONI
 10
280.0
 11
166.0
 20
120.0
 21
120.0
  0
LINE
  8
APS_GEOMETRY
 10
47.404
 11
47.404
 20
107.581
 21
123.796
  0
ARC
  8
APS_GEOMETRY
 10
50.404
 20
123.796
 40
3.0
 50
117.762
 51
180.0
  0
ARC
  8
APS_GEOMETRY
 10
81.904
 20
63.956
 40
70.625
 50
62.238
 51
117.762
  0
ARC
  8
APS_GEOMETRY
 10
113.404
 20
123.796
 40
3.0
 50
360.0
 51
62.238
  0
LINE
  8
APS_GEOMETRY
 10
116.404
 11
116.404
 20
123.796
 21
119.581
  0
LINE
  8
APS_GEOMETRY
 10
47.404
 11
49.904
 20
107.581
 21
107.581
  0
LINE
  8
APS_GEOMETRY
 10
49.904
 11
51.404
 20
107.581
 21
109.081
  0
LINE
  8
APS_GEOMETRY
 10
51.404
 11
51.404
 20
109.081
 21
119.581
  0
LINE
  8
APS_GEOMETRY
 10
51.404
 11
55.904
 20
119.581
 21
119.581
  0
LINE
  8
APS_GEOMETRY
 10
55.904
 11
55.904
 20
119.581
 21
122.581
  0
LINE
  8
APS_GEOMETRY
 10
55.904
 11
110.404
 20
122.581
 21
122.581
  0
LINE
  8
APS_GEOMETRY
 10
110.404
 11
110.404
 20
122.581
 21
119.581
  0
LINE
  8
APS_GEOMETRY
 10
110.404
 11
116.404
 20
119.581
 21
119.581
  0
LINE
  8
APS_GEOMETRY
 10
116.404
 11
116.404
 20
119.581
 21
123.796
  0
LINE
  8
QUOTATURA
 10
47.404
 11
47.404
 20
124.796
 21
143.994
  0
LINE
  8
QUOTATURA
 10
116.404
 11
116.404
 20
124.796
 21
143.994
  0
LINE
  8
QUOTATURA
 10
47.404
 11
79.799
 20
142.994
 21
142.994
  0
LINE
  8
QUOTATURA
 10
84.009
 11
116.404
 20
142.994
 21
142.994
  0
LINE
  8
QUOTATURA
 10
49.404
 11
47.404
 20
142.661
 21
142.994
  0
LINE
  8
QUOTATURA
 10
47.404
 11
49.404
 20
142.994
 21
143.328
  0
LINE
  8
QUOTATURA
 10
49.404
 11
49.404
 20
143.328
 21
142.661
  0
LINE
  8
QUOTATURA
 10
114.404
 11
116.404
 20
143.328
 21
142.994
  0
LINE
  8
QUOTATURA
 10
116.404
 11
114.404
 20
142.994
 21
142.661
  0
LINE
  8
QUOTATURA
 10
114.404
 11
114.404
 20
142.661
 21
143.328
  0
LINE
  8
QUOTATURA
 10
110.404
 11
110.404
 20
121.581
 21
116.832
  0
LINE
  8
QUOTATURA
 10
51.404
 11
78.776
 20
117.832
 21
117.832
  0
LINE
  8
QUOTATURA
 10
83.032
 11
110.404
 20
117.832
 21
117.832
  0
LINE
  8
QUOTATURA
 10
53.404
 11
51.404
 20
117.498
 21
117.832
  0
LINE
  8
QUOTATURA
 10
51.404
 11
53.404
 20
117.832
 21
118.165
  0
LINE
  8
QUOTATURA
 10
53.404
 11
53.404
 20
118.165
 21
117.498
  0
LINE
  8
QUOTATURA
 10
108.404
 11
110.404
 20
118.165
 21
117.832
  0
LINE
  8
QUOTATURA
 10
110.404
 11
108.404
 20
117.832
 21
117.498
  0
LINE
  8
QUOTATURA
 10
108.404
 11
108.404
 20
117.498
 21
118.165
  0
LINE
  8
QUOTATURA
 10
110.404
 11
110.404
 20
118.581
 21
111.008
  0
LINE
  8
QUOTATURA
 10
116.404
 11
116.404
 20
118.581
 21
111.008
  0
LINE
  8
QUOTATURA
 10
116.404
 11
107.905
 20
112.008
 21
112.008
  0
LINE
  8
QUOTATURA
 10
112.404
 11
110.404
 20
111.675
 21
112.008
  0
LINE
  8
QUOTATURA
 10
110.404
 11
112.404
 20
112.008
 21
112.342
  0
LINE
  8
QUOTATURA
 10
112.404
 11
112.404
 20
112.342
 21
111.675
  0
LINE
  8
QUOTATURA
 10
114.404
 11
116.404
 20
112.342
 21
112.008
  0
LINE
  8
QUOTATURA
 10
116.404
 11
114.404
 20
112.008
 21
111.675
  0
LINE
  8
QUOTATURA
 10
114.404
 11
114.404
 20
111.675
 21
112.342
  0
LINE
  8
QUOTATURA
 10
46.404
 11
41.912
 20
107.581
 21
107.581
  0
LINE
  8
QUOTATURA
 10
80.904
 11
41.912
 20
134.581
 21
134.581
  0
LINE
  8
QUOTATURA
 10
42.912
 11
42.912
 20
107.581
 21
119.581
  0
LINE
  8
QUOTATURA
 10
42.912
 11
42.912
 20
122.587
 21
134.581
  0
LINE
  8
QUOTATURA
 10
43.245
 11
42.912
 20
109.581
 21
107.581
  0
LINE
  8
QUOTATURA
 10
42.912
 11
42.579
 20
107.581
 21
109.581
  0
LINE
  8
QUOTATURA
 10
42.579
 11
43.245
 20
109.581
 21
109.581
  0
LINE
  8
QUOTATURA
 10
42.579
 11
42.912
 20
132.581
 21
134.581
  0
LINE
  8
QUOTATURA
 10
42.912
 11
43.245
 20
134.581
 21
132.581
  0
LINE
  8
QUOTATURA
 10
43.245
 11
42.579
 20
132.581
 21
132.581
  0
LINE
  8
QUOTATURA
 10
52.404
 11
58.935
 20
119.581
 21
119.581
  0
LINE
  8
QUOTATURA
 10
50.904
 11
58.935
 20
107.581
 21
107.581
  0
LINE
  8
QUOTATURA
 10
57.935
 11
57.935
 20
119.581
 21
115.087
  0
LINE
  8
QUOTATURA
 10
57.935
 11
57.935
 20
112.081
 21
107.581
  0
LINE
  8
QUOTATURA
 10
57.601
 11
57.935
 20
117.581
 21
119.581
  0
LINE
  8
QUOTATURA
 10
57.935
 11
58.268
 20
119.581
 21
117.581
  0
LINE
  8
QUOTATURA
 10
58.268
 11
57.601
 20
117.581
 21
117.581
  0
LINE
  8
QUOTATURA
 10
58.268
 11
57.935
 20
109.581
 21
107.581
  0
LINE
  8
QUOTATURA
 10
57.935
 11
57.601
 20
107.581
 21
109.581
  0
LINE
  8
QUOTATURA
 10
57.601
 11
58.268
 20
109.581
 21
109.581
  0
LINE
  8
QUOTATURA
 10
47.404
 11
47.404
 20
106.581
 21
101.645
  0
LINE
  8
QUOTATURA
 10
51.404
 11
51.404
 20
108.081
 21
101.645
  0
LINE
  8
QUOTATURA
 10
51.404
 11
55.109
 20
102.645
 21
102.645
  0
LINE
  8
QUOTATURA
 10
53.404
 11
51.404
 20
102.312
 21
102.645
  0
LINE
  8
QUOTATURA
 10
51.404
 11
53.404
 20
102.645
 21
102.979
  0
LINE
  8
QUOTATURA
 10
53.404
 11
53.404
 20
102.979
 21
102.312
  0
LINE
  8
QUOTATURA
 10
47.404
 11
43.404
 20
102.645
 21
102.645
  0
LINE
  8
QUOTATURA
 10
45.404
 11
47.404
 20
102.979
 21
102.645
  0
LINE
  8
QUOTATURA
 10
47.404
 11
45.404
 20
102.645
 21
102.312
  0
LINE
  8
QUOTATURA
 10
45.404
 11
45.404
 20
102.312
 21
102.979
  0
LINE
  8
QUOTATURA
 10
117.404
 11
122.408
 20
119.581
 21
119.581
  0
LINE
  8
QUOTATURA
 10
82.904
 11
122.408
 20
134.581
 21
134.581
  0
LINE
  8
QUOTATURA
 10
121.408
 11
121.408
 20
119.581
 21
125.564
  0
LINE
  8
QUOTATURA
 10
121.408
 11
121.408
 20
128.581
 21
134.581
  0
LINE
  8
QUOTATURA
 10
121.741
 11
121.408
 20
121.581
 21
119.581
  0
LINE
  8
QUOTATURA
 10
121.408
 11
121.074
 20
119.581
 21
121.581
  0
LINE
  8
QUOTATURA
 10
121.074
 11
121.741
 20
121.581
 21
121.581
  0
LINE
  8
QUOTATURA
 10
121.074
 11
121.408
 20
132.581
 21
134.581
  0
LINE
  8
QUOTATURA
 10
121.408
 11
121.741
 20
134.581
 21
132.581
  0
LINE
  8
QUOTATURA
 10
121.741
 11
121.074
 20
132.581
 21
132.581
  0
TEXT
  8
TEXT
 10
264.35
 20
60.8
 30
0.0
 40
5.0
 50
0.0
  1
1
  0
TEXT
  8
TEXT
 10
202.15
 20
60.8
 30
0.0
 40
5.0
 50
0.0
  1
3
  0
TEXT
  8
TEXT
 10
171.05
 20
60.0
 30
0.0
 40
5.0
 50
0.0
  1
4
  0
TEXT
  8
TEXT
 10
139.95
 20
60.8
 30
0.0
 40
5.0
 50
0.0
  1
5
  0
TEXT
  8
TEXT
 10
108.85
 20
60.8
 30
0.0
 40
5.0
 50
0.0
  1
6
  0
TEXT
  8
TEXT
 10
77.75
 20
60.8
 30
0.0
 40
5.0
 50
0.0
  1
7
  0
TEXT
  8
TEXT
 10
46.65
 20
60.8
 30
0.0
 40
5.0
 50
0.0
  1
8
  0
TEXT
  8
TEXT
 10
15.55
 20
60.8
 30
0.0
 40
5.0
 50
0.0
  1
9
  0
TEXT
  8
TEXT
 10
165.429
 20
112.996
 30
0.0
 40
5.0
 50
0.0
  1
ANNOTAZIONI:
  0
TEXT
  8
TEXT
 10
165.429
 20
105.496
 30
0.0
 40
5.0
 50
0.0
  1
Alzare guide
  0
TEXT
  8
TEXT
 10
0.0
 20
188.5
 30
0.0
 40
5.0
 50
0.0
  1
 SZ 69X27 MM      ART.  SCORN-COPRIFILO-BOMBATO_27X69
  0
TEXT
  8
TEXT
 10
233.25
 20
60.8
 30
0.0
 40
5.0
 50
0.0
  1
2
  0
TEXT
  8
TEXT
 10
222.123
 20
182.119
 30
0.0
 40
4.0
 50
0.0
  1
MISURE
  0
TEXT
  8
TEXT
 10
222.123
 20
176.119
 30
0.0
 40
4.0
 50
0.0
  1
MAGG.
  0
TEXT
  8
TEXT
 10
280.719
 20
69.107
 30
0.0
 40
2.0
 50
-90.0
  1
Toscocornici porte - 0577-685426 - info@toscocornici.it
  0
TEXT
  8
TEXT
 10
277.719
 20
69.107
 30
0.0
 40
2.0
 50
-90.0
  1

  0
TEXT
  8
TEXT
 10
274.719
 20
69.107
 30
0.0
 40
2.0
 50
-90.0
  1

  0
TEXT
  8
QUOTATURA
 10
80.279
 20
141.994
 30
0.0
 40
2.0
 50
0.0
  1
69
  0
TEXT
  8
QUOTATURA
 10
79.269
 20
116.832
 30
0.0
 40
2.0
 50
0.0
  1
59
  0
TEXT
  8
QUOTATURA
 10
105.972
 20
111.008
 30
0.0
 40
2.0
 50
0.0
  1
6
  0
TEXT
  8
QUOTATURA
 10
41.296
 20
120.081
 30
0.0
 40
2.0
 50
0.0
  1
27
  0
TEXT
  8
QUOTATURA
 10
56.725
 20
112.581
 30
0.0
 40
2.0
 50
0.0
  1
12
  0
TEXT
  8
QUOTATURA
 10
55.549
 20
101.645
 30
0.0
 40
2.0
 50
0.0
  1
4
  0
TEXT
  8
QUOTATURA
 10
120.139
 20
126.081
 30
0.0
 40
2.0
 50
0.0
  1
15
  0
TEXT
  8
TEXT
 10
218.744
 20
56.129
 30
0.0
 40
3.0
 50
0.0
  1
MM 25 
  0
TEXT
  8
TEXT
 10
218.744
 20
51.629
 30
0.0
 40
3.0
 50
0.0
  1
+ riduzione
  0
TEXT
  8
TEXT
 10
218.744
 20
47.129
 30
0.0
 40
3.0
 50
0.0
  1
N. 976
  0
TEXT
  8
TEXT
 10
218.744
 20
42.629
 30
0.0
 40
3.0
 50
0.0
  1
coltellini scatola
  0
TEXT
  8
TEXT
 10
218.744
 20
38.129
 30
0.0
 40
3.0
 50
0.0
  1
n. 29
  0
TEXT
  8
TEXT
 10
187.644
 20
56.129
 30
0.0
 40
3.0
 50
0.0
  1
MM 25 
  0
TEXT
  8
TEXT
 10
187.644
 20
51.629
 30
0.0
 40
3.0
 50
0.0
  1
+ riduzione
  0
TEXT
  8
TEXT
 10
187.644
 20
47.129
 30
0.0
 40
3.0
 50
0.0
  1
N. 976/A
  0
TEXT
  8
TEXT
 10
187.644
 20
42.629
 30
0.0
 40
3.0
 50
0.0
  1
coltellini scatola
  0
TEXT
  8
TEXT
 10
187.644
 20
38.129
 30
0.0
 40
3.0
 50
0.0
  1
n. 29
  0
TEXT
  8
TEXT
 10
187.644
 20
33.629
 30
0.0
 40
3.0
 50
0.0
  1

  0
TEXT
  8
TEXT
 10
187.644
 20
29.129
 30
0.0
 40
3.0
 50
0.0
  1
R.68.3/72.3
  0
TEXT
  8
TEXT
 10
187.644
 20
24.629
 30
0.0
 40
3.0
 50
0.0
  1
con coltellini
  0
TEXT
  8
TEXT
 10
187.644
 20
20.129
 30
0.0
 40
3.0
 50
0.0
  1
nuovi
  0
TEXT
  8
TEXT
 10
94.344
 20
56.129
 30
0.0
 40
3.0
 50
0.0
  1
MM 16 N. 268 
  0
TEXT
  8
TEXT
 10
94.344
 20
51.629
 30
0.0
 40
3.0
 50
0.0
  1

  0
TEXT
  8
TEXT
 10
94.344
 20
47.129
 30
0.0
 40
3.0
 50
0.0
  1
A. 11.5
  0
TEXT
  8
TEXT
 10
94.344
 20
42.629
 30
0.0
 40
3.0
 50
0.0
  1
R. 69.9/16.9
  0
TEXT
  8
TEXT
 10
63.244
 20
56.129
 30
0.0
 40
3.0
 50
0.0
  1
MM 10
  0
TEXT
  8
TEXT
 10
63.244
 20
51.629
 30
0.0
 40
3.0
 50
0.0
  1
N. 975
  0
TEXT
  8
TEXT
 10
63.244
 20
47.129
 30
0.0
 40
3.0
 50
0.0
  1

  0
TEXT
  8
TEXT
 10
63.244
 20
42.629
 30
0.0
 40
3.0
 50
0.0
  1
A. 23.2
  0
TEXT
  8
TEXT
 10
63.244
 20
38.129
 30
0.0
 40
3.0
 50
0.0
  1
R. 65.5
  0
TEXT
  8
TEXT
 10
1.044
 20
56.129
 30
0.0
 40
3.0
 50
0.0
  1
MM 25 
  0
TEXT
  8
TEXT
 10
1.044
 20
51.629
 30
0.0
 40
3.0
 50
0.0
  1
N. 270
  0
TEXT
  8
TEXT
 10
1.044
 20
47.129
 30
0.0
 40
3.0
 50
0.0
  1

  0
TEXT
  8
TEXT
 10
1.044
 20
42.629
 30
0.0
 40
3.0
 50
0.0
  1
A. 30.2
  0
TEXT
  8
TEXT
 10
1.044
 20
38.129
 30
0.0
 40
3.0
 50
0.0
  1
R. 65.9
  0
TEXT
  8
TEXT
 10
125.444
 20
56.129
 30
0.0
 40
3.0
 50
0.0
  1
MM 50 + RID 
  0
TEXT
  8
TEXT
 10
125.444
 20
51.629
 30
0.0
 40
3.0
 50
0.0
  1
N. 26
  0
TEXT
  8
TEXT
 10
125.444
 20
47.129
 30
0.0
 40
3.0
 50
0.0
  1

  0
TEXT
  8
TEXT
 10
125.444
 20
42.629
 30
0.0
 40
3.0
 50
0.0
  1
A. 33.6
  0
TEXT
  8
TEXT
 10
125.444
 20
38.129
 30
0.0
 40
3.0
 50
0.0
  1
R. 67.6/64.1
  0
TEXT
  8
TEXT
 10
156.544
 20
56.129
 30
0.0
 40
3.0
 50
0.0
  1
MM 36 + RID
  0
TEXT
  8
TEXT
 10
156.544
 20
51.629
 30
0.0
 40
3.0
 50
0.0
  1
N. 135
  0
TEXT
  8
TEXT
 10
156.544
 20
47.129
 30
0.0
 40
3.0
 50
0.0
  1

  0
TEXT
  8
TEXT
 10
156.544
 20
42.629
 30
0.0
 40
3.0
 50
0.0
  1
A. 12.3
  0
TEXT
  8
TEXT
 10
156.544
 20
38.129
 30
0.0
 40
3.0
 50
0.0
  1
R. 33.3
  0
TEXT
  8
TEXT
 10
218.395
 20
9.914
 30
0.0
 40
3.0
 50
0.0
  1
A.
  0
TEXT
  8
TEXT
 10
218.395
 20
5.414
 30
0.0
 40
3.0
 50
0.0
  1
R.
  0
TEXT
  8
TEXT
 10
249.495
 20
9.914
 30
0.0
 40
3.0
 50
0.0
  1
A.
  0
TEXT
  8
TEXT
 10
249.495
 20
5.414
 30
0.0
 40
3.0
 50
0.0
  1
R.
  0
TEXT
  8
TEXT
 10
187.295
 20
9.914
 30
0.0
 40
3.0
 50
0.0
  1
A.
  0
TEXT
  8
TEXT
 10
187.295
 20
5.414
 30
0.0
 40
3.0
 50
0.0
  1
R.
  0
TEXT
  8
TEXT
 10
156.195
 20
9.914
 30
0.0
 40
3.0
 50
0.0
  1
A.
  0
TEXT
  8
TEXT
 10
156.195
 20
5.414
 30
0.0
 40
3.0
 50
0.0
  1
R.
  0
TEXT
  8
TEXT
 10
125.095
 20
9.914
 30
0.0
 40
3.0
 50
0.0
  1
A.
  0
TEXT
  8
TEXT
 10
125.095
 20
5.414
 30
0.0
 40
3.0
 50
0.0
  1
R.
  0
TEXT
  8
TEXT
 10
93.995
 20
9.914
 30
0.0
 40
3.0
 50
0.0
  1
A.
  0
TEXT
  8
TEXT
 10
93.995
 20
5.414
 30
0.0
 40
3.0
 50
0.0
  1
R.
  0
TEXT
  8
TEXT
 10
62.895
 20
9.914
 30
0.0
 40
3.0
 50
0.0
  1
A.
  0
TEXT
  8
TEXT
 10
62.895
 20
5.414
 30
0.0
 40
3.0
 50
0.0
  1
R.
  0
TEXT
  8
TEXT
 10
31.795
 20
9.914
 30
0.0
 40
3.0
 50
0.0
  1
A.
  0
TEXT
  8
TEXT
 10
31.795
 20
5.414
 30
0.0
 40
3.0
 50
0.0
  1
R.
  0
TEXT
  8
TEXT
 10
0.695
 20
9.914
 30
0.0
 40
3.0
 50
0.0
  1
A.
  0
TEXT
  8
TEXT
 10
0.695
 20
5.414
 30
0.0
 40
3.0
 50
0.0
  1
R.
  0
ENDSEC
  0
EOF
