  0
SECTION
  2
ENTITIES
  0
LINE
  8
APS_GEOMETRY
 10
0.0
 11
280.0
 20
0.0
 21
0.0
  0
LINE
  8
APS_GEOMETRY
 10
280.0
 11
280.0
 20
0.0
 21
200.0
  0
LINE
  8
APS_GEOMETRY
 10
280.0
 11
0.0
 20
200.0
 21
200.0
  0
LINE
  8
APS_GEOMETRY
 10
0.0
 11
0.0
 20
200.0
 21
0.0
  0
LINE
  8
COSTRUZIONI
 10
0.0
 11
280.0
 20
60.0
 21
60.0
  0
LINE
  8
COSTRUZIONI
 10
31.1
 11
31.1
 20
60.0
 21
0.0
  0
LINE
  8
COSTRUZIONI
 10
62.2
 11
62.2
 20
60.0
 21
0.0
  0
LINE
  8
COSTRUZIONI
 10
93.3
 11
93.3
 20
60.0
 21
0.0
  0
LINE
  8
COSTRUZIONI
 10
124.4
 11
124.4
 20
60.0
 21
0.0
  0
LINE
  8
COSTRUZIONI
 10
155.5
 11
155.5
 20
60.0
 21
0.0
  0
LINE
  8
COSTRUZIONI
 10
186.6
 11
186.6
 20
60.0
 21
0.0
  0
LINE
  8
COSTRUZIONI
 10
217.7
 11
217.7
 20
60.0
 21
0.0
  0
LINE
  8
COSTRUZIONI
 10
248.8
 11
248.8
 20
60.0
 21
0.0
  0
LINE
  8
COSTRUZIONI
 10
280.0
 11
0.0
 20
188.0
 21
188.0
  0
LINE
  8
COSTRUZIONI
 10
166.0
 11
166.0
 20
120.0
 21
188.0
  0
LINE
  8
COSTRUZIONI
 10
184.0
 11
184.0
 20
120.0
 21
188.0
  0
LINE
  8
COSTRUZIONI
 10
202.0
 11
202.0
 20
120.0
 21
188.0
  0
LINE
  8
COSTRUZIONI
 10
220.0
 11
220.0
 20
120.0
 21
188.0
  0
LINE
  8
COSTRUZIONI
 10
250.0
 11
250.0
 20
120.0
 21
188.0
  0
LINE
  8
COSTRUZIONI
 10
280.0
 11
166.0
 20
168.0
 21
168.0
  0
LINE
  8
COSTRUZIONI
 10
280.0
 11
166.0
 20
156.0
 21
156.0
  0
LINE
  8
COSTRUZIONI
 10
280.0
 11
166.0
 20
144.0
 21
144.0
  0
LINE
  8
COSTRUZIONI
 10
280.0
 11
166.0
 20
132.0
 21
132.0
  0
LINE
  8
COSTRUZIONI
 10
280.0
 11
166.0
 20
120.0
 21
120.0
  0
LINE
  8
QUOTATURA
 10
41.668
 11
41.668
 20
121.826
 21
98.263
  0
LINE
  8
QUOTATURA
 10
111.668
 11
111.668
 20
109.326
 21
98.263
  0
LINE
  8
QUOTATURA
 10
41.668
 11
73.397
 20
98.263
 21
98.263
  0
LINE
  8
QUOTATURA
 10
79.94
 11
111.668
 20
98.263
 21
98.263
  0
LINE
  8
QUOTATURA
 10
44.668
 11
41.668
 20
97.763
 21
98.263
  0
LINE
  8
QUOTATURA
 10
41.668
 11
44.668
 20
98.263
 21
98.763
  0
LINE
  8
QUOTATURA
 10
44.668
 11
44.668
 20
98.763
 21
97.763
  0
LINE
  8
QUOTATURA
 10
108.668
 11
111.668
 20
98.763
 21
98.263
  0
LINE
  8
QUOTATURA
 10
111.668
 11
108.668
 20
98.263
 21
97.763
  0
LINE
  8
QUOTATURA
 10
108.668
 11
108.668
 20
97.763
 21
98.763
  0
LINE
  8
QUOTATURA
 10
107.668
 11
107.668
 20
110.826
 21
104.616
  0
LINE
  8
QUOTATURA
 10
111.668
 11
111.668
 20
109.326
 21
104.616
  0
LINE
  8
QUOTATURA
 10
111.668
 11
117.845
 20
104.616
 21
104.616
  0
LINE
  8
QUOTATURA
 10
113.668
 11
111.668
 20
104.282
 21
104.616
  0
LINE
  8
QUOTATURA
 10
111.668
 11
113.668
 20
104.616
 21
104.949
  0
LINE
  8
QUOTATURA
 10
113.668
 11
113.668
 20
104.949
 21
104.282
  0
LINE
  8
QUOTATURA
 10
107.668
 11
103.668
 20
104.616
 21
104.616
  0
LINE
  8
QUOTATURA
 10
105.668
 11
107.668
 20
104.949
 21
104.616
  0
LINE
  8
QUOTATURA
 10
107.668
 11
105.668
 20
104.616
 21
104.282
  0
LINE
  8
QUOTATURA
 10
105.668
 11
105.668
 20
104.282
 21
104.949
  0
LINE
  8
QUOTATURA
 10
107.668
 11
98.228
 20
121.326
 21
121.326
  0
LINE
  8
QUOTATURA
 10
111.668
 11
98.228
 20
109.326
 21
109.326
  0
LINE
  8
QUOTATURA
 10
98.228
 11
98.228
 20
121.326
 21
116.832
  0
LINE
  8
QUOTATURA
 10
98.228
 11
98.228
 20
113.826
 21
109.326
  0
LINE
  8
QUOTATURA
 10
97.895
 11
98.228
 20
119.326
 21
121.326
  0
LINE
  8
QUOTATURA
 10
98.228
 11
98.562
 20
121.326
 21
119.326
  0
LINE
  8
QUOTATURA
 10
98.562
 11
97.895
 20
119.326
 21
119.326
  0
LINE
  8
QUOTATURA
 10
98.562
 11
98.228
 20
111.326
 21
109.326
  0
LINE
  8
QUOTATURA
 10
98.228
 11
97.895
 20
109.326
 21
111.326
  0
LINE
  8
QUOTATURA
 10
97.895
 11
98.562
 20
111.326
 21
111.326
  0
ARC
  8
APS_GEOMETRY
 10
110.668
 20
126.326
 40
1.0
 50
0.0
 51
90.0
  0
LINE
  8
APS_GEOMETRY
 10
110.668
 11
110.668
 20
127.326
 21
129.326
  0
ARC
  8
APS_GEOMETRY
 10
104.689
 20
128.826
 40
6.0
 50
4.78
 51
155.376
  0
LINE
  8
APS_GEOMETRY
 10
99.235
 11
87.05
 20
131.326
 21
131.326
  0
ARC
  8
APS_GEOMETRY
 10
87.05
 20
191.326
 40
60.0
 50
244.374
 51
270.0
  0
ARC
  8
APS_GEOMETRY
 10
60.668
 20
136.326
 40
1.0
 50
64.374
 51
90.0
  0
LINE
  8
APS_GEOMETRY
 10
60.668
 11
57.993
 20
137.326
 21
137.326
  0
ARC
  8
APS_GEOMETRY
 10
57.993
 20
138.326
 40
1.0
 50
234.903
 51
270.0
  0
ARC
  8
APS_GEOMETRY
 10
51.668
 20
129.326
 40
10.0
 50
54.903
 51
180.0
  0
LINE
  8
APS_GEOMETRY
 10
41.668
 11
41.668
 20
129.326
 21
121.826
  0
LINE
  8
APS_GEOMETRY
 10
41.668
 11
42.168
 20
121.826
 21
121.326
  0
LINE
  8
APS_GEOMETRY
 10
42.168
 11
47.668
 20
121.326
 21
121.326
  0
LINE
  8
APS_GEOMETRY
 10
47.668
 11
47.668
 20
121.326
 21
124.326
  0
LINE
  8
APS_GEOMETRY
 10
47.668
 11
64.668
 20
124.326
 21
124.326
  0
LINE
  8
APS_GEOMETRY
 10
64.668
 11
64.668
 20
124.326
 21
121.326
  0
LINE
  8
APS_GEOMETRY
 10
64.668
 11
68.168
 20
121.326
 21
121.326
  0
LINE
  8
APS_GEOMETRY
 10
68.168
 11
68.168
 20
121.326
 21
124.326
  0
LINE
  8
APS_GEOMETRY
 10
68.168
 11
82.668
 20
124.326
 21
124.326
  0
LINE
  8
APS_GEOMETRY
 10
82.668
 11
82.668
 20
124.326
 21
121.326
  0
LINE
  8
APS_GEOMETRY
 10
82.668
 11
86.168
 20
121.326
 21
121.326
  0
LINE
  8
APS_GEOMETRY
 10
86.168
 11
86.168
 20
121.326
 21
124.326
  0
LINE
  8
APS_GEOMETRY
 10
86.168
 11
103.168
 20
124.326
 21
124.326
  0
LINE
  8
APS_GEOMETRY
 10
103.168
 11
103.168
 20
124.326
 21
121.326
  0
LINE
  8
APS_GEOMETRY
 10
103.168
 11
107.668
 20
121.326
 21
121.326
  0
LINE
  8
APS_GEOMETRY
 10
107.668
 11
107.668
 20
121.326
 21
110.826
  0
LINE
  8
APS_GEOMETRY
 10
107.668
 11
109.168
 20
110.826
 21
109.326
  0
LINE
  8
APS_GEOMETRY
 10
109.168
 11
111.668
 20
109.326
 21
109.326
  0
LINE
  8
APS_GEOMETRY
 10
111.668
 11
111.668
 20
109.326
 21
126.326
  0
LINE
  8
QUOTATURA
 10
51.668
 11
127.499
 20
139.326
 21
139.326
  0
LINE
  8
QUOTATURA
 10
111.668
 11
127.499
 20
109.326
 21
109.326
  0
LINE
  8
QUOTATURA
 10
127.499
 11
127.499
 20
139.326
 21
126.585
  0
LINE
  8
QUOTATURA
 10
127.499
 11
127.499
 20
122.039
 21
109.326
  0
LINE
  8
QUOTATURA
 10
126.999
 11
127.499
 20
136.326
 21
139.326
  0
LINE
  8
QUOTATURA
 10
127.499
 11
127.999
 20
139.326
 21
136.326
  0
LINE
  8
QUOTATURA
 10
127.999
 11
126.999
 20
136.326
 21
136.326
  0
LINE
  8
QUOTATURA
 10
127.999
 11
127.499
 20
112.326
 21
109.326
  0
LINE
  8
QUOTATURA
 10
127.499
 11
126.999
 20
109.326
 21
112.326
  0
LINE
  8
QUOTATURA
 10
126.999
 11
127.999
 20
112.326
 21
112.326
  0
LINE
  8
QUOTATURA
 10
42.168
 11
30.176
 20
121.326
 21
121.326
  0
LINE
  8
QUOTATURA
 10
51.668
 11
30.176
 20
139.326
 21
139.326
  0
LINE
  8
QUOTATURA
 10
30.176
 11
30.176
 20
121.326
 21
128.047
  0
LINE
  8
QUOTATURA
 10
30.176
 11
30.176
 20
132.577
 21
139.326
  0
LINE
  8
QUOTATURA
 10
30.676
 11
30.176
 20
124.326
 21
121.326
  0
LINE
  8
QUOTATURA
 10
30.176
 11
29.676
 20
121.326
 21
124.326
  0
LINE
  8
QUOTATURA
 10
29.676
 11
30.676
 20
124.326
 21
124.326
  0
LINE
  8
QUOTATURA
 10
29.676
 11
30.176
 20
136.326
 21
139.326
  0
LINE
  8
QUOTATURA
 10
30.176
 11
30.676
 20
139.326
 21
136.326
  0
LINE
  8
QUOTATURA
 10
30.676
 11
29.676
 20
136.326
 21
136.326
  0
TEXT
  8
TEXT
 10
264.35
 20
60.8
 30
0.0
 40
5.0
 50
0.0
  1
1
  0
TEXT
  8
TEXT
 10
202.15
 20
60.8
 30
0.0
 40
5.0
 50
0.0
  1
3
  0
TEXT
  8
TEXT
 10
171.05
 20
60.0
 30
0.0
 40
5.0
 50
0.0
  1
4
  0
TEXT
  8
TEXT
 10
139.95
 20
60.8
 30
0.0
 40
5.0
 50
0.0
  1
5
  0
TEXT
  8
TEXT
 10
108.85
 20
60.8
 30
0.0
 40
5.0
 50
0.0
  1
6
  0
TEXT
  8
TEXT
 10
77.75
 20
60.8
 30
0.0
 40
5.0
 50
0.0
  1
7
  0
TEXT
  8
TEXT
 10
46.65
 20
60.8
 30
0.0
 40
5.0
 50
0.0
  1
8
  0
TEXT
  8
TEXT
 10
15.55
 20
60.8
 30
0.0
 40
5.0
 50
0.0
  1
9
  0
TEXT
  8
TEXT
 10
165.429
 20
112.996
 30
0.0
 40
4.5
 50
0.0
  1
ANNOTAZIONI:
  0
TEXT
  8
TEXT
 10
4.522
 20
188.5
 30
0.0
 40
5.0
 50
0.0
  1
SZ 70X30 MM             ART. SCORN-CS300-28_30X70
  0
TEXT
  8
TEXT
 10
233.25
 20
60.8
 30
0.0
 40
5.0
 50
0.0
  1
2
  0
TEXT
  8
TEXT
 10
222.123
 20
182.119
 30
0.0
 40
4.0
 50
0.0
  1
MISURE
  0
TEXT
  8
TEXT
 10
222.123
 20
176.119
 30
0.0
 40
4.0
 50
0.0
  1
MAGG.
  0
TEXT
  8
TEXT
 10
280.719
 20
69.107
 30
0.0
 40
2.0
 50
-90.0
  1
Toscocornici porte - 0577-685426 - info@toscocornici.it
  0
TEXT
  8
TEXT
 10
277.719
 20
69.107
 30
0.0
 40
2.0
 50
-90.0
  1

  0
TEXT
  8
TEXT
 10
274.719
 20
69.107
 30
0.0
 40
2.0
 50
-90.0
  1

  0
TEXT
  8
TEXT
 10
218.395
 20
9.914
 30
0.0
 40
3.0
 50
0.0
  1
A.
  0
TEXT
  8
TEXT
 10
218.395
 20
5.414
 30
0.0
 40
3.0
 50
0.0
  1
R.
  0
TEXT
  8
TEXT
 10
249.495
 20
9.914
 30
0.0
 40
3.0
 50
0.0
  1
A.
  0
TEXT
  8
TEXT
 10
249.495
 20
5.414
 30
0.0
 40
3.0
 50
0.0
  1
R.
  0
TEXT
  8
TEXT
 10
187.295
 20
9.914
 30
0.0
 40
3.0
 50
0.0
  1
A.
  0
TEXT
  8
TEXT
 10
187.295
 20
5.414
 30
0.0
 40
3.0
 50
0.0
  1
R.
  0
TEXT
  8
TEXT
 10
156.195
 20
9.914
 30
0.0
 40
3.0
 50
0.0
  1
A.
  0
TEXT
  8
TEXT
 10
156.195
 20
5.414
 30
0.0
 40
3.0
 50
0.0
  1
R.
  0
TEXT
  8
TEXT
 10
125.095
 20
9.914
 30
0.0
 40
3.0
 50
0.0
  1
A.
  0
TEXT
  8
TEXT
 10
125.095
 20
5.414
 30
0.0
 40
3.0
 50
0.0
  1
R.
  0
TEXT
  8
TEXT
 10
93.995
 20
9.914
 30
0.0
 40
3.0
 50
0.0
  1
A.
  0
TEXT
  8
TEXT
 10
93.995
 20
5.414
 30
0.0
 40
3.0
 50
0.0
  1
R.
  0
TEXT
  8
TEXT
 10
62.895
 20
9.914
 30
0.0
 40
3.0
 50
0.0
  1
A.
  0
TEXT
  8
TEXT
 10
62.895
 20
5.414
 30
0.0
 40
3.0
 50
0.0
  1
R.
  0
TEXT
  8
TEXT
 10
31.795
 20
9.914
 30
0.0
 40
3.0
 50
0.0
  1
A.
  0
TEXT
  8
TEXT
 10
31.795
 20
5.414
 30
0.0
 40
3.0
 50
0.0
  1
R.
  0
TEXT
  8
TEXT
 10
0.695
 20
9.914
 30
0.0
 40
3.0
 50
0.0
  1
A.
  0
TEXT
  8
TEXT
 10
0.695
 20
5.414
 30
0.0
 40
3.0
 50
0.0
  1
R.
  0
TEXT
  8
QUOTATURA
 10
74.064
 20
96.763
 30
0.0
 40
3.0
 50
0.0
  1
70
  0
TEXT
  8
QUOTATURA
 10
118.285
 20
103.616
 30
0.0
 40
2.0
 50
0.0
  1
4
  0
TEXT
  8
QUOTATURA
 10
97.019
 20
114.326
 30
0.0
 40
2.0
 50
0.0
  1
12
  0
TEXT
  8
QUOTATURA
 10
124.901
 20
122.826
 30
0.0
 40
3.0
 50
0.0
  1
30
  0
TEXT
  8
QUOTATURA
 10
28.266
 20
128.826
 30
0.0
 40
3.0
 50
0.0
  1
18
  0
ENDSEC
  0
EOF
