  0
SECTION
  2
ENTITIES
  0
LINE
  8
APS_GEOMETRY
 10
0.0
 11
280.0
 20
0.0
 21
0.0
  0
LINE
  8
APS_GEOMETRY
 10
280.0
 11
280.0
 20
0.0
 21
200.0
  0
LINE
  8
APS_GEOMETRY
 10
280.0
 11
0.0
 20
200.0
 21
200.0
  0
LINE
  8
APS_GEOMETRY
 10
0.0
 11
0.0
 20
200.0
 21
0.0
  0
LINE
  8
COSTRUZIONI
 10
0.0
 11
280.0
 20
60.0
 21
60.0
  0
LINE
  8
COSTRUZIONI
 10
31.1
 11
31.1
 20
60.0
 21
0.0
  0
LINE
  8
COSTRUZIONI
 10
62.2
 11
62.2
 20
60.0
 21
0.0
  0
LINE
  8
COSTRUZIONI
 10
93.3
 11
93.3
 20
60.0
 21
0.0
  0
LINE
  8
COSTRUZIONI
 10
124.4
 11
124.4
 20
60.0
 21
0.0
  0
LINE
  8
COSTRUZIONI
 10
155.5
 11
155.5
 20
60.0
 21
0.0
  0
LINE
  8
COSTRUZIONI
 10
186.6
 11
186.6
 20
60.0
 21
0.0
  0
LINE
  8
COSTRUZIONI
 10
217.7
 11
217.7
 20
60.0
 21
0.0
  0
LINE
  8
COSTRUZIONI
 10
248.8
 11
248.8
 20
60.0
 21
0.0
  0
LINE
  8
COSTRUZIONI
 10
280.0
 11
0.0
 20
188.0
 21
188.0
  0
LINE
  8
COSTRUZIONI
 10
166.0
 11
166.0
 20
120.0
 21
188.0
  0
LINE
  8
COSTRUZIONI
 10
184.0
 11
184.0
 20
120.0
 21
188.0
  0
LINE
  8
COSTRUZIONI
 10
202.0
 11
202.0
 20
120.0
 21
188.0
  0
LINE
  8
COSTRUZIONI
 10
220.0
 11
220.0
 20
120.0
 21
188.0
  0
LINE
  8
COSTRUZIONI
 10
250.0
 11
250.0
 20
120.0
 21
188.0
  0
LINE
  8
COSTRUZIONI
 10
280.0
 11
166.0
 20
168.0
 21
168.0
  0
LINE
  8
COSTRUZIONI
 10
280.0
 11
166.0
 20
156.0
 21
156.0
  0
LINE
  8
COSTRUZIONI
 10
280.0
 11
166.0
 20
144.0
 21
144.0
  0
LINE
  8
COSTRUZIONI
 10
280.0
 11
166.0
 20
132.0
 21
132.0
  0
LINE
  8
COSTRUZIONI
 10
280.0
 11
166.0
 20
120.0
 21
120.0
  0
LINE
  8
APS_GEOMETRY
 10
30.77
 11
30.77
 20
129.213
 21
116.713
  0
ARC
  8
APS_GEOMETRY
 10
31.77
 20
116.713
 40
1.0
 50
180.0
 51
269.999
  0
LINE
  8
APS_GEOMETRY
 10
31.77
 11
33.27
 20
115.713
 21
115.713
  0
ARC
  8
APS_GEOMETRY
 10
33.27
 20
116.713
 40
1.0
 50
269.999
 51
0.0
  0
LINE
  8
APS_GEOMETRY
 10
34.27
 11
34.27
 20
116.713
 21
127.213
  0
LINE
  8
APS_GEOMETRY
 10
30.77
 11
31.265
 20
129.213
 21
129.708
  0
LINE
  8
APS_GEOMETRY
 10
34.27
 11
36.77
 20
127.213
 21
127.213
  0
ARC
  8
APS_GEOMETRY
 10
36.77
 20
128.213
 40
1.0
 50
270.0
 51
0.0
  0
LINE
  8
APS_GEOMETRY
 10
37.77
 11
37.77
 20
128.213
 21
129.213
  0
ARC
  8
APS_GEOMETRY
 10
38.368
 20
131.961
 40
7.451
 50
17.596
 51
197.596
  0
ARC
  8
APS_GEOMETRY
 10
38.368
 20
131.961
 40
7.451
 50
197.596
 51
197.596
  0
LINE
  8
APS_GEOMETRY
 10
37.77
 11
58.77
 20
129.213
 21
129.213
  0
LINE
  8
APS_GEOMETRY
 10
58.77
 11
58.77
 20
129.213
 21
128.213
  0
ARC
  8
APS_GEOMETRY
 10
59.77
 20
128.213
 40
1.0
 50
180.0
 51
270.0
  0
LINE
  8
APS_GEOMETRY
 10
59.77
 11
61.27
 20
127.213
 21
127.213
  0
ARC
  8
APS_GEOMETRY
 10
61.27
 20
128.213
 40
1.0
 50
270.0
 51
0.0
  0
LINE
  8
APS_GEOMETRY
 10
62.27
 11
62.27
 20
128.213
 21
129.213
  0
LINE
  8
APS_GEOMETRY
 10
62.27
 11
83.27
 20
129.213
 21
129.213
  0
LINE
  8
APS_GEOMETRY
 10
83.27
 11
83.27
 20
129.213
 21
128.213
  0
ARC
  8
APS_GEOMETRY
 10
84.27
 20
128.213
 40
1.0
 50
180.0
 51
270.0
  0
LINE
  8
APS_GEOMETRY
 10
84.27
 11
85.77
 20
127.213
 21
127.213
  0
ARC
  8
APS_GEOMETRY
 10
85.77
 20
128.213
 40
1.0
 50
270.0
 51
0.0
  0
LINE
  8
APS_GEOMETRY
 10
86.77
 11
86.77
 20
128.213
 21
129.213
  0
LINE
  8
APS_GEOMETRY
 10
86.77
 11
107.77
 20
129.213
 21
129.213
  0
LINE
  8
APS_GEOMETRY
 10
107.77
 11
107.77
 20
129.213
 21
126.713
  0
LINE
  8
APS_GEOMETRY
 10
107.77
 11
118.77
 20
126.713
 21
126.713
  0
ARC
  8
APS_GEOMETRY
 10
118.77
 20
127.713
 40
1.0
 50
270.0
 51
0.0
  0
LINE
  8
APS_GEOMETRY
 10
119.77
 11
119.77
 20
127.713
 21
137.614
  0
ARC
  8
APS_GEOMETRY
 10
109.77
 20
137.614
 40
10.0
 50
360.0
 51
64.175
  0
ARC
  8
APS_GEOMETRY
 10
109.037
 20
136.099
 40
11.683
 50
64.175
 51
142.489
  0
ARC
  8
APS_GEOMETRY
 10
53.726
 20
233.131
 40
99.262
 50
265.229
 51
294.562
  0
ARC
  8
APS_GEOMETRY
 10
96.65
 20
139.213
 40
4.0
 50
90.0
 51
114.562
  0
LINE
  8
APS_GEOMETRY
 10
96.65
 11
99.77
 20
143.213
 21
143.213
  0
LINE
  8
QUOTATURA
 10
30.77
 11
30.77
 20
114.213
 21
97.337
  0
LINE
  8
QUOTATURA
 10
119.77
 11
119.77
 20
125.213
 21
97.337
  0
LINE
  8
QUOTATURA
 10
30.77
 11
72.081
 20
98.837
 21
98.837
  0
LINE
  8
QUOTATURA
 10
78.46
 11
119.77
 20
98.837
 21
98.837
  0
LINE
  8
QUOTATURA
 10
33.77
 11
30.77
 20
98.337
 21
98.837
  0
LINE
  8
QUOTATURA
 10
30.77
 11
33.77
 20
98.837
 21
99.337
  0
LINE
  8
QUOTATURA
 10
33.77
 11
33.77
 20
99.337
 21
98.337
  0
LINE
  8
QUOTATURA
 10
116.77
 11
119.77
 20
99.337
 21
98.837
  0
LINE
  8
QUOTATURA
 10
119.77
 11
116.77
 20
98.837
 21
98.337
  0
LINE
  8
QUOTATURA
 10
116.77
 11
116.77
 20
98.337
 21
99.337
  0
LINE
  8
QUOTATURA
 10
58.77
 11
58.77
 20
127.713
 21
120.337
  0
LINE
  8
QUOTATURA
 10
62.27
 11
62.27
 20
127.713
 21
120.337
  0
LINE
  8
QUOTATURA
 10
62.27
 11
64.687
 20
121.837
 21
121.837
  0
LINE
  8
QUOTATURA
 10
65.27
 11
62.27
 20
121.337
 21
121.837
  0
LINE
  8
QUOTATURA
 10
62.27
 11
65.27
 20
121.837
 21
122.337
  0
LINE
  8
QUOTATURA
 10
65.27
 11
65.27
 20
122.337
 21
121.337
  0
LINE
  8
QUOTATURA
 10
58.77
 11
52.77
 20
121.837
 21
121.837
  0
LINE
  8
QUOTATURA
 10
55.77
 11
58.77
 20
122.337
 21
121.837
  0
LINE
  8
QUOTATURA
 10
58.77
 11
55.77
 20
121.837
 21
121.337
  0
LINE
  8
QUOTATURA
 10
55.77
 11
55.77
 20
121.337
 21
122.337
  0
LINE
  8
QUOTATURA
 10
62.27
 11
70.206
 20
126.698
 21
126.698
  0
LINE
  8
QUOTATURA
 10
75.335
 11
83.27
 20
126.698
 21
126.698
  0
LINE
  8
QUOTATURA
 10
65.27
 11
62.27
 20
126.197
 21
126.698
  0
LINE
  8
QUOTATURA
 10
62.27
 11
65.27
 20
126.698
 21
127.198
  0
LINE
  8
QUOTATURA
 10
65.27
 11
65.27
 20
127.198
 21
126.197
  0
LINE
  8
QUOTATURA
 10
80.27
 11
83.27
 20
127.198
 21
126.698
  0
LINE
  8
QUOTATURA
 10
83.27
 11
80.27
 20
126.698
 21
126.197
  0
LINE
  8
QUOTATURA
 10
80.27
 11
80.27
 20
126.197
 21
127.198
  0
LINE
  8
QUOTATURA
 10
37.77
 11
41.128
 20
125.492
 21
125.492
  0
LINE
  8
QUOTATURA
 10
40.77
 11
37.77
 20
124.992
 21
125.492
  0
LINE
  8
QUOTATURA
 10
37.77
 11
40.77
 20
125.492
 21
125.992
  0
LINE
  8
QUOTATURA
 10
40.77
 11
40.77
 20
125.992
 21
124.992
  0
LINE
  8
QUOTATURA
 10
34.27
 11
28.27
 20
125.492
 21
125.492
  0
LINE
  8
QUOTATURA
 10
31.27
 11
34.27
 20
125.992
 21
125.492
  0
LINE
  8
QUOTATURA
 10
34.27
 11
31.27
 20
125.492
 21
124.992
  0
LINE
  8
QUOTATURA
 10
31.27
 11
31.27
 20
124.992
 21
125.992
  0
LINE
  8
QUOTATURA
 10
107.77
 11
107.77
 20
125.213
 21
119.687
  0
LINE
  8
QUOTATURA
 10
119.77
 11
119.77
 20
125.213
 21
119.687
  0
LINE
  8
QUOTATURA
 10
107.77
 11
111.206
 20
121.187
 21
121.187
  0
LINE
  8
QUOTATURA
 10
116.335
 11
119.77
 20
121.187
 21
121.187
  0
LINE
  8
QUOTATURA
 10
110.77
 11
107.77
 20
120.687
 21
121.187
  0
LINE
  8
QUOTATURA
 10
107.77
 11
110.77
 20
121.187
 21
121.687
  0
LINE
  8
QUOTATURA
 10
110.77
 11
110.77
 20
121.687
 21
120.687
  0
LINE
  8
QUOTATURA
 10
116.77
 11
119.77
 20
121.687
 21
121.187
  0
LINE
  8
QUOTATURA
 10
119.77
 11
116.77
 20
121.187
 21
120.687
  0
LINE
  8
QUOTATURA
 10
116.77
 11
116.77
 20
120.687
 21
121.687
  0
LINE
  8
QUOTATURA
 10
109.037
 11
109.037
 20
135.599
 21
136.6
  0
LINE
  8
QUOTATURA
 10
108.537
 11
109.537
 20
136.099
 21
136.099
  0
LINE
  8
QUOTATURA
 10
109.037
 11
109.037
 20
136.099
 21
151.062
  0
LINE
  8
QUOTATURA
 10
108.537
 11
109.037
 20
144.782
 21
147.782
  0
LINE
  8
QUOTATURA
 10
109.037
 11
109.537
 20
147.782
 21
144.782
  0
LINE
  8
QUOTATURA
 10
109.537
 11
108.537
 20
144.782
 21
144.782
  0
LINE
  8
QUOTATURA
 10
38.368
 11
38.368
 20
131.46
 21
132.461
  0
LINE
  8
QUOTATURA
 10
37.868
 11
38.868
 20
131.961
 21
131.961
  0
LINE
  8
QUOTATURA
 10
38.368
 11
38.368
 20
131.961
 21
144.327
  0
LINE
  8
QUOTATURA
 10
37.868
 11
38.368
 20
136.412
 21
139.412
  0
LINE
  8
QUOTATURA
 10
38.368
 11
38.868
 20
139.412
 21
136.412
  0
LINE
  8
QUOTATURA
 10
38.868
 11
37.868
 20
136.412
 21
136.412
  0
LINE
  8
QUOTATURA
 10
26.156
 11
20.047
 20
134.251
 21
134.251
  0
LINE
  8
QUOTATURA
 10
30.983
 11
26.156
 20
129.425
 21
134.251
  0
LINE
  8
QUOTATURA
 10
30.57
 11
31.07
 20
126.213
 21
129.213
  0
LINE
  8
QUOTATURA
 10
31.07
 11
31.571
 20
129.213
 21
126.213
  0
LINE
  8
QUOTATURA
 10
31.571
 11
30.57
 20
126.213
 21
126.213
  0
LINE
  8
QUOTATURA
 10
29.215
 11
30.983
 20
131.9
 21
129.425
  0
LINE
  8
QUOTATURA
 10
30.983
 11
28.508
 20
129.425
 21
131.193
  0
LINE
  8
QUOTATURA
 10
28.508
 11
29.215
 20
131.193
 21
131.9
  0
ARC
  8
QUOTATURA
 10
30.77
 20
129.213
 40
0.3
 50
0.0
 51
45.0
  0
LINE
  8
QUOTATURA
 10
31.07
 11
31.07
 20
129.213
 21
123.213
  0
LINE
  8
QUOTATURA
 10
110.537
 11
137.929
 20
147.782
 21
147.782
  0
LINE
  8
QUOTATURA
 10
35.77
 11
137.929
 20
115.713
 21
115.713
  0
LINE
  8
QUOTATURA
 10
136.429
 11
136.429
 20
147.782
 21
134.007
  0
LINE
  8
QUOTATURA
 10
136.429
 11
136.429
 20
129.498
 21
115.713
  0
LINE
  8
QUOTATURA
 10
135.929
 11
136.429
 20
144.782
 21
147.782
  0
LINE
  8
QUOTATURA
 10
136.429
 11
136.929
 20
147.782
 21
144.782
  0
LINE
  8
QUOTATURA
 10
136.929
 11
135.929
 20
144.782
 21
144.782
  0
LINE
  8
QUOTATURA
 10
136.929
 11
136.429
 20
118.713
 21
115.713
  0
LINE
  8
QUOTATURA
 10
136.429
 11
135.929
 20
115.713
 21
118.713
  0
LINE
  8
QUOTATURA
 10
135.929
 11
136.929
 20
118.713
 21
118.713
  0
LINE
  8
QUOTATURA
 10
109.27
 11
129.203
 20
129.213
 21
129.213
  0
LINE
  8
QUOTATURA
 10
109.27
 11
129.203
 20
126.713
 21
126.713
  0
LINE
  8
QUOTATURA
 10
127.703
 11
127.703
 20
126.713
 21
122.381
  0
LINE
  8
QUOTATURA
 10
127.703
 11
127.703
 20
120.122
 21
120.122
  0
LINE
  8
QUOTATURA
 10
127.203
 11
127.703
 20
123.713
 21
126.713
  0
LINE
  8
QUOTATURA
 10
127.703
 11
128.203
 20
126.713
 21
123.713
  0
LINE
  8
QUOTATURA
 10
128.203
 11
127.203
 20
123.713
 21
123.713
  0
LINE
  8
QUOTATURA
 10
127.703
 11
127.703
 20
129.213
 21
135.213
  0
LINE
  8
QUOTATURA
 10
128.203
 11
127.703
 20
132.213
 21
129.213
  0
LINE
  8
QUOTATURA
 10
127.703
 11
127.203
 20
129.213
 21
132.213
  0
LINE
  8
QUOTATURA
 10
127.203
 11
128.203
 20
132.213
 21
132.213
  0
LINE
  8
QUOTATURA
 10
88.27
 11
95.014
 20
129.213
 21
129.213
  0
LINE
  8
QUOTATURA
 10
87.27
 11
95.014
 20
127.213
 21
127.213
  0
LINE
  8
QUOTATURA
 10
93.514
 11
93.514
 20
127.213
 21
123.269
  0
LINE
  8
QUOTATURA
 10
93.514
 11
91.831
 20
123.269
 21
123.269
  0
LINE
  8
QUOTATURA
 10
93.014
 11
93.514
 20
124.213
 21
127.213
  0
LINE
  8
QUOTATURA
 10
93.514
 11
94.014
 20
127.213
 21
124.213
  0
LINE
  8
QUOTATURA
 10
94.014
 11
93.014
 20
124.213
 21
124.213
  0
LINE
  8
QUOTATURA
 10
93.514
 11
93.514
 20
129.213
 21
135.213
  0
LINE
  8
QUOTATURA
 10
94.014
 11
93.514
 20
132.213
 21
129.213
  0
LINE
  8
QUOTATURA
 10
93.514
 11
93.014
 20
129.213
 21
132.213
  0
LINE
  8
QUOTATURA
 10
93.014
 11
94.014
 20
132.213
 21
132.213
  0
LINE
  8
QUOTATURA
 10
29.27
 11
9.202
 20
129.213
 21
129.213
  0
LINE
  8
QUOTATURA
 10
29.27
 11
9.202
 20
115.713
 21
115.713
  0
LINE
  8
QUOTATURA
 10
10.702
 11
10.702
 20
129.213
 21
126.75
  0
LINE
  8
QUOTATURA
 10
10.702
 11
10.702
 20
122.216
 21
115.713
  0
LINE
  8
QUOTATURA
 10
10.202
 11
10.702
 20
126.213
 21
129.213
  0
LINE
  8
QUOTATURA
 10
10.702
 11
11.202
 20
129.213
 21
126.213
  0
LINE
  8
QUOTATURA
 10
11.202
 11
10.202
 20
126.213
 21
126.213
  0
LINE
  8
QUOTATURA
 10
11.202
 11
10.702
 20
118.713
 21
115.713
  0
LINE
  8
QUOTATURA
 10
10.702
 11
10.202
 20
115.713
 21
118.713
  0
LINE
  8
QUOTATURA
 10
10.202
 11
11.202
 20
118.713
 21
118.713
  0
LINE
  8
QUOTATURA
 10
34.27
 11
34.27
 20
114.213
 21
108.564
  0
LINE
  8
QUOTATURA
 10
30.77
 11
26.936
 20
110.064
 21
110.064
  0
LINE
  8
QUOTATURA
 10
27.77
 11
30.77
 20
110.564
 21
110.064
  0
LINE
  8
QUOTATURA
 10
30.77
 11
27.77
 20
110.064
 21
109.564
  0
LINE
  8
QUOTATURA
 10
27.77
 11
27.77
 20
109.564
 21
110.564
  0
LINE
  8
QUOTATURA
 10
34.27
 11
40.27
 20
110.064
 21
110.064
  0
LINE
  8
QUOTATURA
 10
37.27
 11
34.27
 20
109.564
 21
110.064
  0
LINE
  8
QUOTATURA
 10
34.27
 11
37.27
 20
110.064
 21
110.564
  0
LINE
  8
QUOTATURA
 10
37.27
 11
37.27
 20
110.564
 21
109.564
  0
LINE
  8
QUOTATURA
 10
94.987
 11
94.987
 20
144.351
 21
149.751
  0
LINE
  8
QUOTATURA
 10
99.77
 11
99.77
 20
144.713
 21
149.751
  0
LINE
  8
QUOTATURA
 10
94.987
 11
86.621
 20
148.251
 21
148.251
  0
LINE
  8
QUOTATURA
 10
91.987
 11
94.987
 20
148.751
 21
148.251
  0
LINE
  8
QUOTATURA
 10
94.987
 11
91.987
 20
148.251
 21
147.751
  0
LINE
  8
QUOTATURA
 10
91.987
 11
91.987
 20
147.751
 21
148.751
  0
LINE
  8
QUOTATURA
 10
99.77
 11
105.77
 20
148.251
 21
148.251
  0
LINE
  8
QUOTATURA
 10
102.77
 11
99.77
 20
147.751
 21
148.251
  0
LINE
  8
QUOTATURA
 10
99.77
 11
102.77
 20
148.251
 21
148.751
  0
LINE
  8
QUOTATURA
 10
102.77
 11
102.77
 20
148.751
 21
147.751
  0
TEXT
  8
TEXT
 10
264.35
 20
60.8
 30
0.0
 40
5.0
 50
0.0
  1
1
  0
TEXT
  8
TEXT
 10
202.15
 20
60.8
 30
0.0
 40
5.0
 50
0.0
  1
3
  0
TEXT
  8
TEXT
 10
171.05
 20
60.0
 30
0.0
 40
5.0
 50
0.0
  1
4
  0
TEXT
  8
TEXT
 10
139.95
 20
60.8
 30
0.0
 40
5.0
 50
0.0
  1
5
  0
TEXT
  8
TEXT
 10
108.85
 20
60.8
 30
0.0
 40
5.0
 50
0.0
  1
6
  0
TEXT
  8
TEXT
 10
77.75
 20
60.8
 30
0.0
 40
5.0
 50
0.0
  1
7
  0
TEXT
  8
TEXT
 10
46.65
 20
60.8
 30
0.0
 40
5.0
 50
0.0
  1
8
  0
TEXT
  8
TEXT
 10
15.55
 20
60.8
 30
0.0
 40
5.0
 50
0.0
  1
9
  0
TEXT
  8
TEXT
 10
0.0
 20
188.5
 30
0.0
 40
5.0
 50
0.0
  1
 SZ 89X32 MM            ART. SCORN-CS-205_89X32
  0
TEXT
  8
TEXT
 10
233.25
 20
60.8
 30
0.0
 40
5.0
 50
0.0
  1
2
  0
TEXT
  8
TEXT
 10
280.719
 20
69.107
 30
0.0
 40
2.0
 50
-90.0
  1
Toscocornici porte - 0577-685426 - info@toscocornici.it
  0
TEXT
  8
TEXT
 10
277.719
 20
69.107
 30
0.0
 40
2.0
 50
-90.0
  1

  0
TEXT
  8
TEXT
 10
274.719
 20
69.107
 30
0.0
 40
2.0
 50
-90.0
  1

  0
TEXT
  8
TEXT
 10
218.395
 20
9.914
 30
0.0
 40
3.0
 50
0.0
  1
A. 45.9
  0
TEXT
  8
TEXT
 10
218.395
 20
5.414
 30
0.0
 40
3.0
 50
0.0
  1
R. 67.8
  0
TEXT
  8
TEXT
 10
249.495
 20
9.914
 30
0.0
 40
3.0
 50
0.0
  1
A.
  0
TEXT
  8
TEXT
 10
249.495
 20
5.414
 30
0.0
 40
3.0
 50
0.0
  1
R.
  0
TEXT
  8
TEXT
 10
187.295
 20
9.914
 30
0.0
 40
3.0
 50
0.0
  1
A. 35
  0
TEXT
  8
TEXT
 10
187.295
 20
5.414
 30
0.0
 40
3.0
 50
0.0
  1
R. 71 / 89
  0
TEXT
  8
TEXT
 10
156.195
 20
9.914
 30
0.0
 40
3.0
 50
0.0
  1
A.
  0
TEXT
  8
TEXT
 10
156.195
 20
5.414
 30
0.0
 40
3.0
 50
0.0
  1
R.
  0
TEXT
  8
TEXT
 10
125.095
 20
9.914
 30
0.0
 40
3.0
 50
0.0
  1
A.
  0
TEXT
  8
TEXT
 10
125.095
 20
5.414
 30
0.0
 40
3.0
 50
0.0
  1
R.
  0
TEXT
  8
TEXT
 10
93.995
 20
9.914
 30
0.0
 40
3.0
 50
0.0
  1
A. 12.45
  0
TEXT
  8
TEXT
 10
93.995
 20
5.414
 30
0.0
 40
3.0
 50
0.0
  1
R. 68.3 / 23.4
  0
TEXT
  8
TEXT
 10
62.895
 20
9.914
 30
0.0
 40
3.0
 50
0.0
  1
A.
  0
TEXT
  8
TEXT
 10
62.895
 20
5.414
 30
0.0
 40
3.0
 50
0.0
  1
R.
  0
TEXT
  8
TEXT
 10
31.795
 20
9.914
 30
0.0
 40
3.0
 50
0.0
  1
A.
  0
TEXT
  8
TEXT
 10
31.795
 20
5.414
 30
0.0
 40
3.0
 50
0.0
  1
R.
  0
TEXT
  8
TEXT
 10
0.695
 20
9.914
 30
0.0
 40
3.0
 50
0.0
  1
A. 13.4
  0
TEXT
  8
TEXT
 10
0.695
 20
5.414
 30
0.0
 40
3.0
 50
0.0
  1
R. 70
  0
TEXT
  8
TEXT
 10
222.123
 20
182.119
 30
0.0
 40
4.0
 50
0.0
  1
MISURE
  0
TEXT
  8
TEXT
 10
222.123
 20
176.119
 30
0.0
 40
4.0
 50
0.0
  1
MAGG.
  0
TEXT
  8
TEXT
 10
164.488
 20
109.564
 30
0.0
 40
4.5
 50
0.0
  1
ANNOTAZIONI: ALZARE GUIDE
  0
TEXT
  8
QUOTATURA
 10
72.811
 20
97.337
 30
0.0
 40
3.0
 50
0.0
  1
89
  0
TEXT
  8
QUOTATURA
 10
65.357
 20
120.337
 30
0.0
 40
3.0
 50
0.0
  1
3.5
  0
TEXT
  8
QUOTATURA
 10
70.956
 20
125.198
 30
0.0
 40
3.0
 50
0.0
  1
21
  0
TEXT
  8
QUOTATURA
 10
41.797
 20
123.992
 30
0.0
 40
3.0
 50
0.0
  1
3.5
  0
TEXT
  8
QUOTATURA
 10
111.956
 20
119.687
 30
0.0
 40
3.0
 50
0.0
  1
12
  0
TEXT
  8
QUOTATURA
 10
101.545
 20
151.844
 30
0.0
 40
3.0
 50
0.0
  1
R11.683
  0
TEXT
  8
QUOTATURA
 10
31.536
 20
145.102
 30
0.0
 40
3.0
 50
0.0
  1
R7.451
  0
TEXT
  8
QUOTATURA
 10
12.808
 20
132.751
 30
0.0
 40
3.0
 50
0.0
  1
45°
  0
TEXT
  8
QUOTATURA
 10
134.011
 20
130.248
 30
0.0
 40
3.0
 50
0.0
  1
32
  0
TEXT
  8
QUOTATURA
 10
124.571
 20
118.622
 30
0.0
 40
3.0
 50
0.0
  1
2.5
  0
TEXT
  8
QUOTATURA
 10
89.081
 20
121.769
 30
0.0
 40
3.0
 50
0.0
  1
2
  0
TEXT
  8
QUOTATURA
 10
6.82
 20
122.991
 30
0.0
 40
3.0
 50
0.0
  1
13.5
  0
TEXT
  8
QUOTATURA
 10
20.051
 20
108.564
 30
0.0
 40
3.0
 50
0.0
  1
3.5
  0
TEXT
  8
QUOTATURA
 10
83.281
 20
146.751
 30
0.0
 40
3.0
 50
0.0
  1
4
  0
TEXT
  8
TEXT
 10
219.728
 20
54.011
 30
0.0
 40
3.0
 50
0.0
  1
MM 20 +RID
  0
TEXT
  8
TEXT
 10
219.728
 20
49.511
 30
0.0
 40
3.0
 50
0.0
  1
N.1039
  0
TEXT
  8
TEXT
 10
219.728
 20
45.011
 30
0.0
 40
3.0
 50
0.0
  1
COL. MAT. N.
  0
TEXT
  8
TEXT
 10
219.728
 20
40.511
 30
0.0
 40
3.0
 50
0.0
  1
1711160800-C
  0
TEXT
  8
TEXT
 10
219.728
 20
36.011
 30
0.0
 40
3.0
 50
0.0
  1
SCAT. N.65
  0
TEXT
  8
TEXT
 10
189.123
 20
53.717
 30
0.0
 40
3.0
 50
0.0
  1
MM 25 +RID
  0
TEXT
  8
TEXT
 10
189.123
 20
49.217
 30
0.0
 40
3.0
 50
0.0
  1
N.1039A
  0
TEXT
  8
TEXT
 10
189.123
 20
44.717
 30
0.0
 40
3.0
 50
0.0
  1
COL. MAT. N.
  0
TEXT
  8
TEXT
 10
189.123
 20
40.217
 30
0.0
 40
3.0
 50
0.0
  1
1711160700-C
  0
TEXT
  8
TEXT
 10
189.123
 20
35.717
 30
0.0
 40
3.0
 50
0.0
  1
SCAT. N.65
  0
TEXT
  8
TEXT
 10
95.246
 20
53.717
 30
0.0
 40
3.0
 50
0.0
  1
MM 10 
  0
TEXT
  8
TEXT
 10
95.246
 20
49.217
 30
0.0
 40
3.0
 50
0.0
  1
N.1020
  0
TEXT
  8
TEXT
 10
95.246
 20
44.717
 30
0.0
 40
3.0
 50
0.0
  1
COLT. MAT. N.
  0
TEXT
  8
TEXT
 10
95.246
 20
40.217
 30
0.0
 40
3.0
 50
0.0
  1
1611180400-C
  0
TEXT
  8
TEXT
 10
95.246
 20
35.717
 30
0.0
 40
3.0
 50
0.0
  1
SCAT. N.65
  0
TEXT
  8
TEXT
 10
1.664
 20
53.423
 30
0.0
 40
3.0
 50
0.0
  1
MM 0 N.282
  0
TEXT
  8
TEXT
 10
1.664
 20
48.923
 30
0.0
 40
3.0
 50
0.0
  1
COLT. SCAT.58
  0
ENDSEC
  0
EOF
