  0
SECTION
  2
ENTITIES
  0
LINE
  8
APS_GEOMETRY
 10
0.0
 11
280.0
 20
0.0
 21
0.0
  0
LINE
  8
APS_GEOMETRY
 10
280.0
 11
280.0
 20
0.0
 21
200.0
  0
LINE
  8
APS_GEOMETRY
 10
280.0
 11
0.0
 20
200.0
 21
200.0
  0
LINE
  8
APS_GEOMETRY
 10
0.0
 11
0.0
 20
200.0
 21
0.0
  0
LINE
  8
COSTRUZIONI
 10
0.0
 11
280.0
 20
60.0
 21
60.0
  0
LINE
  8
COSTRUZIONI
 10
31.1
 11
31.1
 20
60.0
 21
0.0
  0
LINE
  8
COSTRUZIONI
 10
62.2
 11
62.2
 20
60.0
 21
0.0
  0
LINE
  8
COSTRUZIONI
 10
93.3
 11
93.3
 20
60.0
 21
0.0
  0
LINE
  8
COSTRUZIONI
 10
124.4
 11
124.4
 20
60.0
 21
0.0
  0
LINE
  8
COSTRUZIONI
 10
155.5
 11
155.5
 20
60.0
 21
0.0
  0
LINE
  8
COSTRUZIONI
 10
186.6
 11
186.6
 20
60.0
 21
0.0
  0
LINE
  8
COSTRUZIONI
 10
217.7
 11
217.7
 20
60.0
 21
0.0
  0
LINE
  8
COSTRUZIONI
 10
248.8
 11
248.8
 20
60.0
 21
0.0
  0
LINE
  8
COSTRUZIONI
 10
280.0
 11
0.0
 20
188.0
 21
188.0
  0
LINE
  8
COSTRUZIONI
 10
166.0
 11
166.0
 20
120.0
 21
188.0
  0
LINE
  8
COSTRUZIONI
 10
184.0
 11
184.0
 20
120.0
 21
188.0
  0
LINE
  8
COSTRUZIONI
 10
202.0
 11
202.0
 20
120.0
 21
188.0
  0
LINE
  8
COSTRUZIONI
 10
220.0
 11
220.0
 20
120.0
 21
188.0
  0
LINE
  8
COSTRUZIONI
 10
250.0
 11
250.0
 20
120.0
 21
188.0
  0
LINE
  8
COSTRUZIONI
 10
280.0
 11
166.0
 20
168.0
 21
168.0
  0
LINE
  8
COSTRUZIONI
 10
280.0
 11
166.0
 20
156.0
 21
156.0
  0
LINE
  8
COSTRUZIONI
 10
280.0
 11
166.0
 20
144.0
 21
144.0
  0
LINE
  8
COSTRUZIONI
 10
280.0
 11
166.0
 20
132.0
 21
132.0
  0
LINE
  8
COSTRUZIONI
 10
280.0
 11
166.0
 20
120.0
 21
120.0
  0
ARC
  8
0
 10
114.469
 20
140.211
 40
1.3
 50
0.0
 51
90.0
  0
LINE
  8
0
 10
114.469
 11
114.275
 20
141.511
 21
144.081
  0
ARC
  8
0
 10
106.796
 20
143.515
 40
7.5
 50
4.329
 51
164.534
  0
LINE
  8
0
 10
99.568
 11
86.261
 20
145.515
 21
145.515
  0
ARC
  8
0
 10
86.261
 20
220.515
 40
75.0
 50
241.934
 51
270.0
  0
ARC
  8
0
 10
50.269
 20
153.011
 40
1.5
 50
61.934
 51
90.0
  0
LINE
  8
0
 10
50.269
 11
47.137
 20
154.511
 21
154.511
  0
ARC
  8
0
 10
37.769
 20
147.011
 40
12.0
 50
38.682
 51
180.0
  0
LINE
  8
APS_GEOMETRY
 10
25.769
 11
25.769
 20
147.011
 21
131.511
  0
LINE
  8
APS_GEOMETRY
 10
25.769
 11
26.269
 20
131.511
 21
131.011
  0
LINE
  8
APS_GEOMETRY
 10
26.269
 11
36.769
 20
131.011
 21
131.011
  0
LINE
  8
APS_GEOMETRY
 10
36.769
 11
36.769
 20
131.011
 21
134.011
  0
LINE
  8
APS_GEOMETRY
 10
36.769
 11
58.269
 20
134.011
 21
134.011
  0
LINE
  8
APS_GEOMETRY
 10
58.269
 11
58.269
 20
134.011
 21
131.011
  0
LINE
  8
APS_GEOMETRY
 10
58.269
 11
61.769
 20
131.011
 21
131.011
  0
LINE
  8
APS_GEOMETRY
 10
61.769
 11
61.769
 20
131.011
 21
134.011
  0
LINE
  8
APS_GEOMETRY
 10
61.769
 11
82.269
 20
134.011
 21
134.011
  0
LINE
  8
APS_GEOMETRY
 10
82.269
 11
82.269
 20
134.011
 21
131.011
  0
LINE
  8
APS_GEOMETRY
 10
82.269
 11
85.769
 20
131.011
 21
131.011
  0
LINE
  8
APS_GEOMETRY
 10
85.769
 11
85.769
 20
131.011
 21
134.011
  0
LINE
  8
APS_GEOMETRY
 10
85.769
 11
107.269
 20
134.011
 21
134.011
  0
LINE
  8
APS_GEOMETRY
 10
107.269
 11
107.269
 20
134.011
 21
131.011
  0
LINE
  8
APS_GEOMETRY
 10
107.269
 11
111.769
 20
131.011
 21
131.011
  0
LINE
  8
APS_GEOMETRY
 10
111.769
 11
111.769
 20
131.011
 21
120.511
  0
LINE
  8
APS_GEOMETRY
 10
111.769
 11
112.743
 20
120.511
 21
119.537
  0
LINE
  8
APS_GEOMETRY
 10
112.743
 11
115.769
 20
119.537
 21
119.011
  0
LINE
  8
APS_GEOMETRY
 10
115.769
 11
115.769
 20
119.011
 21
140.211
  0
LINE
  8
QUOTATURA
 10
25.769
 11
25.769
 20
131.511
 21
110.369
  0
LINE
  8
QUOTATURA
 10
115.769
 11
115.769
 20
119.011
 21
110.369
  0
LINE
  8
QUOTATURA
 10
25.769
 11
67.485
 20
110.369
 21
110.369
  0
LINE
  8
QUOTATURA
 10
74.053
 11
115.769
 20
110.369
 21
110.369
  0
LINE
  8
QUOTATURA
 10
28.769
 11
25.769
 20
109.869
 21
110.369
  0
LINE
  8
QUOTATURA
 10
25.769
 11
28.769
 20
110.369
 21
110.869
  0
LINE
  8
QUOTATURA
 10
28.769
 11
28.769
 20
110.869
 21
109.869
  0
LINE
  8
QUOTATURA
 10
112.769
 11
115.769
 20
110.869
 21
110.369
  0
LINE
  8
QUOTATURA
 10
115.769
 11
112.769
 20
110.369
 21
109.869
  0
LINE
  8
QUOTATURA
 10
112.769
 11
112.769
 20
109.869
 21
110.869
  0
LINE
  8
QUOTATURA
 10
111.769
 11
111.769
 20
120.511
 21
114.806
  0
LINE
  8
QUOTATURA
 10
115.769
 11
115.769
 20
119.011
 21
114.806
  0
LINE
  8
QUOTATURA
 10
111.769
 11
106.547
 20
114.806
 21
114.806
  0
LINE
  8
QUOTATURA
 10
109.769
 11
111.769
 20
115.139
 21
114.806
  0
LINE
  8
QUOTATURA
 10
111.769
 11
109.769
 20
114.806
 21
114.473
  0
LINE
  8
QUOTATURA
 10
109.769
 11
109.769
 20
114.473
 21
115.139
  0
LINE
  8
QUOTATURA
 10
115.769
 11
119.769
 20
114.806
 21
114.806
  0
LINE
  8
QUOTATURA
 10
117.769
 11
115.769
 20
114.473
 21
114.806
  0
LINE
  8
QUOTATURA
 10
115.769
 11
117.769
 20
114.806
 21
115.139
  0
LINE
  8
QUOTATURA
 10
117.769
 11
117.769
 20
115.139
 21
114.473
  0
LINE
  8
QUOTATURA
 10
115.769
 11
103.895
 20
119.011
 21
119.011
  0
LINE
  8
QUOTATURA
 10
111.769
 11
103.895
 20
131.011
 21
131.011
  0
LINE
  8
QUOTATURA
 10
103.895
 11
103.895
 20
119.011
 21
123.511
  0
LINE
  8
QUOTATURA
 10
103.895
 11
103.895
 20
126.517
 21
131.011
  0
LINE
  8
QUOTATURA
 10
104.228
 11
103.895
 20
121.011
 21
119.011
  0
LINE
  8
QUOTATURA
 10
103.895
 11
103.562
 20
119.011
 21
121.011
  0
LINE
  8
QUOTATURA
 10
103.562
 11
104.228
 20
121.011
 21
121.011
  0
LINE
  8
QUOTATURA
 10
103.562
 11
103.895
 20
129.011
 21
131.011
  0
LINE
  8
QUOTATURA
 10
103.895
 11
104.228
 20
131.011
 21
129.011
  0
LINE
  8
QUOTATURA
 10
104.228
 11
103.562
 20
129.011
 21
129.011
  0
LINE
  8
QUOTATURA
 10
25.769
 11
14.382
 20
131.011
 21
131.011
  0
LINE
  8
QUOTATURA
 10
37.769
 11
14.382
 20
159.011
 21
159.011
  0
LINE
  8
QUOTATURA
 10
14.382
 11
14.382
 20
131.011
 21
142.732
  0
LINE
  8
QUOTATURA
 10
14.382
 11
14.382
 20
147.27
 21
159.011
  0
LINE
  8
QUOTATURA
 10
14.882
 11
14.382
 20
134.011
 21
131.011
  0
LINE
  8
QUOTATURA
 10
14.382
 11
13.882
 20
131.011
 21
134.011
  0
LINE
  8
QUOTATURA
 10
13.882
 11
14.882
 20
134.011
 21
134.011
  0
LINE
  8
QUOTATURA
 10
13.882
 11
14.382
 20
156.011
 21
159.011
  0
LINE
  8
QUOTATURA
 10
14.382
 11
14.882
 20
159.011
 21
156.011
  0
LINE
  8
QUOTATURA
 10
14.882
 11
13.882
 20
156.011
 21
156.011
  0
LINE
  8
QUOTATURA
 10
115.769
 11
125.752
 20
119.011
 21
119.011
  0
LINE
  8
QUOTATURA
 10
37.769
 11
125.752
 20
159.011
 21
159.011
  0
LINE
  8
QUOTATURA
 10
125.752
 11
125.752
 20
119.011
 21
136.724
  0
LINE
  8
QUOTATURA
 10
125.752
 11
125.752
 20
141.262
 21
159.011
  0
LINE
  8
QUOTATURA
 10
126.252
 11
125.752
 20
122.011
 21
119.011
  0
LINE
  8
QUOTATURA
 10
125.752
 11
125.252
 20
119.011
 21
122.011
  0
LINE
  8
QUOTATURA
 10
125.252
 11
126.252
 20
122.011
 21
122.011
  0
LINE
  8
QUOTATURA
 10
125.252
 11
125.752
 20
156.011
 21
159.011
  0
LINE
  8
QUOTATURA
 10
125.752
 11
126.252
 20
159.011
 21
156.011
  0
LINE
  8
QUOTATURA
 10
126.252
 11
125.252
 20
156.011
 21
156.011
  0
TEXT
  8
TEXT
 10
264.35
 20
60.8
 30
0.0
 40
5.0
 50
0.0
  1
1
  0
TEXT
  8
TEXT
 10
202.15
 20
60.8
 30
0.0
 40
5.0
 50
0.0
  1
3
  0
TEXT
  8
TEXT
 10
171.05
 20
60.0
 30
0.0
 40
5.0
 50
0.0
  1
4
  0
TEXT
  8
TEXT
 10
139.95
 20
60.8
 30
0.0
 40
5.0
 50
0.0
  1
5
  0
TEXT
  8
TEXT
 10
108.85
 20
60.8
 30
0.0
 40
5.0
 50
0.0
  1
6
  0
TEXT
  8
TEXT
 10
77.75
 20
60.8
 30
0.0
 40
5.0
 50
0.0
  1
7
  0
TEXT
  8
TEXT
 10
46.65
 20
60.8
 30
0.0
 40
5.0
 50
0.0
  1
8
  0
TEXT
  8
TEXT
 10
15.55
 20
60.8
 30
0.0
 40
5.0
 50
0.0
  1
9
  0
TEXT
  8
TEXT
 10
165.429
 20
112.996
 30
0.0
 40
4.5
 50
0.0
  1
ANNOTAZIONI:
  0
TEXT
  8
TEXT
 10
4.522
 20
188.5
 30
0.0
 40
5.0
 50
0.0
  1
SZ 90X40 MM             ART. SCORN-CS205_40X90
  0
TEXT
  8
TEXT
 10
233.25
 20
60.8
 30
0.0
 40
5.0
 50
0.0
  1
2
  0
TEXT
  8
TEXT
 10
222.123
 20
182.119
 30
0.0
 40
4.0
 50
0.0
  1
MISURE
  0
TEXT
  8
TEXT
 10
222.123
 20
176.119
 30
0.0
 40
4.0
 50
0.0
  1
MAGG.
  0
TEXT
  8
TEXT
 10
280.719
 20
69.107
 30
0.0
 40
2.0
 50
-90.0
  1
Toscocornici porte - 0577-685426 - info@toscocornici.it
  0
TEXT
  8
TEXT
 10
277.719
 20
69.107
 30
0.0
 40
2.0
 50
-90.0
  1

  0
TEXT
  8
TEXT
 10
274.719
 20
69.107
 30
0.0
 40
2.0
 50
-90.0
  1

  0
TEXT
  8
TEXT
 10
218.395
 20
9.914
 30
0.0
 40
3.0
 50
0.0
  1
A.
  0
TEXT
  8
TEXT
 10
218.395
 20
5.414
 30
0.0
 40
3.0
 50
0.0
  1
R.
  0
TEXT
  8
TEXT
 10
249.495
 20
9.914
 30
0.0
 40
3.0
 50
0.0
  1
A.
  0
TEXT
  8
TEXT
 10
249.495
 20
5.414
 30
0.0
 40
3.0
 50
0.0
  1
R.
  0
TEXT
  8
TEXT
 10
187.295
 20
9.914
 30
0.0
 40
3.0
 50
0.0
  1
A.
  0
TEXT
  8
TEXT
 10
187.295
 20
5.414
 30
0.0
 40
3.0
 50
0.0
  1
R.
  0
TEXT
  8
TEXT
 10
156.195
 20
9.914
 30
0.0
 40
3.0
 50
0.0
  1
A.
  0
TEXT
  8
TEXT
 10
156.195
 20
5.414
 30
0.0
 40
3.0
 50
0.0
  1
R.
  0
TEXT
  8
TEXT
 10
125.095
 20
9.914
 30
0.0
 40
3.0
 50
0.0
  1
A.
  0
TEXT
  8
TEXT
 10
125.095
 20
5.414
 30
0.0
 40
3.0
 50
0.0
  1
R.
  0
TEXT
  8
TEXT
 10
93.995
 20
9.914
 30
0.0
 40
3.0
 50
0.0
  1
A.
  0
TEXT
  8
TEXT
 10
93.995
 20
5.414
 30
0.0
 40
3.0
 50
0.0
  1
R.
  0
TEXT
  8
TEXT
 10
62.895
 20
9.914
 30
0.0
 40
3.0
 50
0.0
  1
A.
  0
TEXT
  8
TEXT
 10
62.895
 20
5.414
 30
0.0
 40
3.0
 50
0.0
  1
R.
  0
TEXT
  8
TEXT
 10
31.795
 20
9.914
 30
0.0
 40
3.0
 50
0.0
  1
A.
  0
TEXT
  8
TEXT
 10
31.795
 20
5.414
 30
0.0
 40
3.0
 50
0.0
  1
R.
  0
TEXT
  8
TEXT
 10
0.695
 20
9.914
 30
0.0
 40
3.0
 50
0.0
  1
A.
  0
TEXT
  8
TEXT
 10
0.695
 20
5.414
 30
0.0
 40
3.0
 50
0.0
  1
R.
  0
TEXT
  8
QUOTATURA
 10
68.226
 20
108.869
 30
0.0
 40
3.0
 50
0.0
  1
90
  0
TEXT
  8
QUOTATURA
 10
104.32
 20
113.806
 30
0.0
 40
2.0
 50
0.0
  1
4
  0
TEXT
  8
QUOTATURA
 10
102.685
 20
124.011
 30
0.0
 40
2.0
 50
0.0
  1
12
  0
TEXT
  8
QUOTATURA
 10
11.986
 20
143.511
 30
0.0
 40
3.0
 50
0.0
  1
28
  0
TEXT
  8
QUOTATURA
 10
122.977
 20
137.511
 30
0.0
 40
3.0
 50
0.0
  1
40
  0
TEXT
  8
TEXT
 10
37.2
 20
167.81
 30
0.0
 40
10.0
 50
0.0
  1
CS205
  0
ENDSEC
  0
EOF
