  0
SECTION
  2
ENTITIES
  0
LINE
  8
APS_GEOMETRY
 10
0.0
 11
280.0
 20
0.0
 21
0.0
  0
LINE
  8
APS_GEOMETRY
 10
280.0
 11
280.0
 20
0.0
 21
200.0
  0
LINE
  8
APS_GEOMETRY
 10
280.0
 11
0.0
 20
200.0
 21
200.0
  0
LINE
  8
APS_GEOMETRY
 10
0.0
 11
0.0
 20
200.0
 21
0.0
  0
LINE
  8
COSTRUZIONI
 10
0.0
 11
280.0
 20
60.0
 21
60.0
  0
LINE
  8
COSTRUZIONI
 10
31.1
 11
31.1
 20
60.0
 21
0.0
  0
LINE
  8
COSTRUZIONI
 10
62.2
 11
62.2
 20
60.0
 21
0.0
  0
LINE
  8
COSTRUZIONI
 10
93.3
 11
93.3
 20
60.0
 21
0.0
  0
LINE
  8
COSTRUZIONI
 10
124.4
 11
124.4
 20
60.0
 21
0.0
  0
LINE
  8
COSTRUZIONI
 10
155.5
 11
155.5
 20
60.0
 21
0.0
  0
LINE
  8
COSTRUZIONI
 10
186.6
 11
186.6
 20
60.0
 21
0.0
  0
LINE
  8
COSTRUZIONI
 10
217.7
 11
217.7
 20
60.0
 21
0.0
  0
LINE
  8
COSTRUZIONI
 10
248.8
 11
248.8
 20
60.0
 21
0.0
  0
LINE
  8
COSTRUZIONI
 10
280.0
 11
0.0
 20
188.0
 21
188.0
  0
LINE
  8
COSTRUZIONI
 10
166.0
 11
166.0
 20
120.0
 21
188.0
  0
LINE
  8
COSTRUZIONI
 10
184.0
 11
184.0
 20
120.0
 21
188.0
  0
LINE
  8
COSTRUZIONI
 10
202.0
 11
202.0
 20
120.0
 21
188.0
  0
LINE
  8
COSTRUZIONI
 10
220.0
 11
220.0
 20
120.0
 21
188.0
  0
LINE
  8
COSTRUZIONI
 10
250.0
 11
250.0
 20
120.0
 21
188.0
  0
LINE
  8
COSTRUZIONI
 10
280.0
 11
166.0
 20
168.0
 21
168.0
  0
LINE
  8
COSTRUZIONI
 10
280.0
 11
166.0
 20
156.0
 21
156.0
  0
LINE
  8
COSTRUZIONI
 10
280.0
 11
166.0
 20
144.0
 21
144.0
  0
LINE
  8
COSTRUZIONI
 10
280.0
 11
166.0
 20
132.0
 21
132.0
  0
LINE
  8
COSTRUZIONI
 10
280.0
 11
166.0
 20
120.0
 21
120.0
  0
LINE
  8
APS_GEOMETRY
 10
128.758
 11
128.758
 20
133.489
 21
139.489
  0
ARC
  8
APS_GEOMETRY
 10
123.758
 20
139.489
 40
5.0
 50
0.0
 51
180.0
  0
LINE
  8
APS_GEOMETRY
 10
118.758
 11
112.758
 20
139.489
 21
139.489
  0
ARC
  8
APS_GEOMETRY
 10
107.758
 20
139.489
 40
5.0
 50
0.0
 51
180.0
  0
LINE
  8
APS_GEOMETRY
 10
102.758
 11
96.758
 20
139.489
 21
139.489
  0
ARC
  8
APS_GEOMETRY
 10
91.758
 20
139.489
 40
5.0
 50
0.0
 51
180.0
  0
LINE
  8
APS_GEOMETRY
 10
86.758
 11
80.758
 20
139.489
 21
139.489
  0
ARC
  8
APS_GEOMETRY
 10
75.758
 20
139.489
 40
5.0
 50
0.0
 51
180.0
  0
LINE
  8
APS_GEOMETRY
 10
70.758
 11
64.758
 20
139.489
 21
139.489
  0
ARC
  8
APS_GEOMETRY
 10
59.758
 20
139.489
 40
5.0
 50
0.0
 51
180.0
  0
LINE
  8
APS_GEOMETRY
 10
54.758
 11
48.758
 20
139.489
 21
139.489
  0
ARC
  8
APS_GEOMETRY
 10
43.758
 20
139.489
 40
5.0
 50
0.0
 51
180.0
  0
LINE
  8
APS_GEOMETRY
 10
38.758
 11
38.758
 20
139.489
 21
122.989
  0
LINE
  8
APS_GEOMETRY
 10
38.758
 11
39.258
 20
122.989
 21
122.489
  0
LINE
  8
APS_GEOMETRY
 10
39.258
 11
45.758
 20
122.489
 21
122.489
  0
LINE
  8
APS_GEOMETRY
 10
45.758
 11
45.758
 20
122.489
 21
125.489
  0
LINE
  8
APS_GEOMETRY
 10
45.758
 11
104.758
 20
125.489
 21
125.489
  0
LINE
  8
APS_GEOMETRY
 10
104.758
 11
104.758
 20
125.489
 21
122.489
  0
LINE
  8
APS_GEOMETRY
 10
104.758
 11
124.758
 20
122.489
 21
122.489
  0
LINE
  8
APS_GEOMETRY
 10
124.758
 11
124.758
 20
122.489
 21
110.989
  0
LINE
  8
APS_GEOMETRY
 10
124.758
 11
125.258
 20
110.989
 21
110.489
  0
LINE
  8
APS_GEOMETRY
 10
125.258
 11
128.758
 20
110.489
 21
110.489
  0
LINE
  8
APS_GEOMETRY
 10
128.758
 11
128.758
 20
110.489
 21
135.489
  0
LINE
  8
APS_GEOMETRY
 10
119.758
 11
119.758
 20
130.489
 21
135.489
  0
LINE
  8
APS_GEOMETRY
 10
119.758
 11
119.758
 20
127.489
 21
122.489
  0
LINE
  8
APS_GEOMETRY
 10
114.758
 11
123.758
 20
130.489
 21
130.489
  0
LINE
  8
APS_GEOMETRY
 10
123.758
 11
123.758
 20
130.489
 21
127.489
  0
LINE
  8
APS_GEOMETRY
 10
123.758
 11
114.758
 20
127.489
 21
127.489
  0
LINE
  8
APS_GEOMETRY
 10
114.758
 11
114.758
 20
127.489
 21
130.489
  0
LINE
  8
APS_GEOMETRY
 10
119.758
 11
128.758
 20
135.489
 21
135.489
  0
LINE
  8
QUOTATURA
 10
123.758
 11
138.523
 20
144.489
 21
144.489
  0
LINE
  8
QUOTATURA
 10
128.758
 11
138.523
 20
110.489
 21
110.489
  0
LINE
  8
QUOTATURA
 10
138.523
 11
138.523
 20
144.489
 21
129.749
  0
LINE
  8
QUOTATURA
 10
138.523
 11
138.523
 20
125.24
 21
110.489
  0
LINE
  8
QUOTATURA
 10
138.023
 11
138.523
 20
141.489
 21
144.489
  0
LINE
  8
QUOTATURA
 10
138.523
 11
139.023
 20
144.489
 21
141.489
  0
LINE
  8
QUOTATURA
 10
139.023
 11
138.023
 20
141.489
 21
141.489
  0
LINE
  8
QUOTATURA
 10
139.023
 11
138.523
 20
113.489
 21
110.489
  0
LINE
  8
QUOTATURA
 10
138.523
 11
138.023
 20
110.489
 21
113.489
  0
LINE
  8
QUOTATURA
 10
138.023
 11
139.023
 20
113.489
 21
113.489
  0
LINE
  8
QUOTATURA
 10
38.758
 11
29.718
 20
122.489
 21
122.489
  0
LINE
  8
QUOTATURA
 10
43.758
 11
29.718
 20
144.489
 21
144.489
  0
LINE
  8
QUOTATURA
 10
29.718
 11
29.718
 20
122.489
 21
131.239
  0
LINE
  8
QUOTATURA
 10
29.718
 11
29.718
 20
135.749
 21
144.489
  0
LINE
  8
QUOTATURA
 10
30.218
 11
29.718
 20
125.489
 21
122.489
  0
LINE
  8
QUOTATURA
 10
29.718
 11
29.217
 20
122.489
 21
125.489
  0
LINE
  8
QUOTATURA
 10
29.217
 11
30.218
 20
125.489
 21
125.489
  0
LINE
  8
QUOTATURA
 10
29.217
 11
29.718
 20
141.489
 21
144.489
  0
LINE
  8
QUOTATURA
 10
29.718
 11
30.218
 20
144.489
 21
141.489
  0
LINE
  8
QUOTATURA
 10
30.218
 11
29.217
 20
141.489
 21
141.489
  0
LINE
  8
QUOTATURA
 10
38.758
 11
38.758
 20
122.489
 21
102.63
  0
LINE
  8
QUOTATURA
 10
128.758
 11
128.758
 20
110.489
 21
102.63
  0
LINE
  8
QUOTATURA
 10
38.758
 11
80.474
 20
102.63
 21
102.63
  0
LINE
  8
QUOTATURA
 10
87.041
 11
128.758
 20
102.63
 21
102.63
  0
LINE
  8
QUOTATURA
 10
41.758
 11
38.758
 20
102.13
 21
102.63
  0
LINE
  8
QUOTATURA
 10
38.758
 11
41.758
 20
102.63
 21
103.131
  0
LINE
  8
QUOTATURA
 10
41.758
 11
41.758
 20
103.131
 21
102.13
  0
LINE
  8
QUOTATURA
 10
125.758
 11
128.758
 20
103.131
 21
102.63
  0
LINE
  8
QUOTATURA
 10
128.758
 11
125.758
 20
102.63
 21
102.13
  0
LINE
  8
QUOTATURA
 10
125.758
 11
125.758
 20
102.13
 21
103.131
  0
TEXT
  8
TEXT
 10
264.35
 20
60.8
 30
0.0
 40
5.0
 50
0.0
  1
1
  0
TEXT
  8
TEXT
 10
202.15
 20
60.8
 30
0.0
 40
5.0
 50
0.0
  1
3
  0
TEXT
  8
TEXT
 10
171.05
 20
60.0
 30
0.0
 40
5.0
 50
0.0
  1
4
  0
TEXT
  8
TEXT
 10
139.95
 20
60.8
 30
0.0
 40
5.0
 50
0.0
  1
5
  0
TEXT
  8
TEXT
 10
108.85
 20
60.8
 30
0.0
 40
5.0
 50
0.0
  1
6
  0
TEXT
  8
TEXT
 10
77.75
 20
60.8
 30
0.0
 40
5.0
 50
0.0
  1
7
  0
TEXT
  8
TEXT
 10
46.65
 20
60.8
 30
0.0
 40
5.0
 50
0.0
  1
8
  0
TEXT
  8
TEXT
 10
15.55
 20
60.8
 30
0.0
 40
5.0
 50
0.0
  1
9
  0
TEXT
  8
TEXT
 10
165.429
 20
112.996
 30
0.0
 40
4.5
 50
0.0
  1
ANNOTAZIONI:
  0
TEXT
  8
TEXT
 10
0.0
 20
188.5
 30
0.0
 40
5.0
 50
0.0
  1
 SZ 90X34 MM    ART. SCORN-COPRIFILO-CS3-PROF-B_34X90
  0
TEXT
  8
TEXT
 10
233.25
 20
60.8
 30
0.0
 40
5.0
 50
0.0
  1
2
  0
TEXT
  8
TEXT
 10
222.123
 20
182.119
 30
0.0
 40
4.0
 50
0.0
  1
MISURE
  0
TEXT
  8
TEXT
 10
222.123
 20
176.119
 30
0.0
 40
4.0
 50
0.0
  1
MAGG.
  0
TEXT
  8
TEXT
 10
280.719
 20
69.107
 30
0.0
 40
2.0
 50
-90.0
  1
Toscocornici porte - 0577-685426 - info@toscocornici.it
  0
TEXT
  8
TEXT
 10
277.719
 20
69.107
 30
0.0
 40
2.0
 50
-90.0
  1

  0
TEXT
  8
TEXT
 10
274.719
 20
69.107
 30
0.0
 40
2.0
 50
-90.0
  1

  0
TEXT
  8
TEXT
 10
218.395
 20
9.914
 30
0.0
 40
3.0
 50
0.0
  1
A.
  0
TEXT
  8
TEXT
 10
218.395
 20
5.414
 30
0.0
 40
3.0
 50
0.0
  1
R.
  0
TEXT
  8
TEXT
 10
249.495
 20
9.914
 30
0.0
 40
3.0
 50
0.0
  1
A.
  0
TEXT
  8
TEXT
 10
249.495
 20
5.414
 30
0.0
 40
3.0
 50
0.0
  1
R.
  0
TEXT
  8
TEXT
 10
187.295
 20
9.914
 30
0.0
 40
3.0
 50
0.0
  1
A.
  0
TEXT
  8
TEXT
 10
187.295
 20
5.414
 30
0.0
 40
3.0
 50
0.0
  1
R.
  0
TEXT
  8
TEXT
 10
156.195
 20
9.914
 30
0.0
 40
3.0
 50
0.0
  1
A.
  0
TEXT
  8
TEXT
 10
156.195
 20
5.414
 30
0.0
 40
3.0
 50
0.0
  1
R.
  0
TEXT
  8
TEXT
 10
125.095
 20
9.914
 30
0.0
 40
3.0
 50
0.0
  1
A.
  0
TEXT
  8
TEXT
 10
125.095
 20
5.414
 30
0.0
 40
3.0
 50
0.0
  1
R.
  0
TEXT
  8
TEXT
 10
93.995
 20
9.914
 30
0.0
 40
3.0
 50
0.0
  1
A.
  0
TEXT
  8
TEXT
 10
93.995
 20
5.414
 30
0.0
 40
3.0
 50
0.0
  1
R.
  0
TEXT
  8
TEXT
 10
62.895
 20
9.914
 30
0.0
 40
3.0
 50
0.0
  1
A.
  0
TEXT
  8
TEXT
 10
62.895
 20
5.414
 30
0.0
 40
3.0
 50
0.0
  1
R.
  0
TEXT
  8
TEXT
 10
31.795
 20
9.914
 30
0.0
 40
3.0
 50
0.0
  1
A.
  0
TEXT
  8
TEXT
 10
31.795
 20
5.414
 30
0.0
 40
3.0
 50
0.0
  1
R.
  0
TEXT
  8
TEXT
 10
0.695
 20
9.914
 30
0.0
 40
3.0
 50
0.0
  1
A.
  0
TEXT
  8
TEXT
 10
0.695
 20
5.414
 30
0.0
 40
3.0
 50
0.0
  1
R.
  0
TEXT
  8
QUOTATURA
 10
135.809
 20
125.989
 30
0.0
 40
3.0
 50
0.0
  1
34
  0
TEXT
  8
QUOTATURA
 10
27.418
 20
131.989
 30
0.0
 40
3.0
 50
0.0
  1
22
  0
TEXT
  8
QUOTATURA
 10
81.214
 20
101.13
 30
0.0
 40
3.0
 50
0.0
  1
90
  0
ENDSEC
  0
EOF
