  0
SECTION
  2
ENTITIES
  0
LINE
  8
APS_GEOMETRY
 10
0.0
 11
280.0
 20
0.0
 21
0.0
  0
LINE
  8
APS_GEOMETRY
 10
280.0
 11
280.0
 20
0.0
 21
200.0
  0
LINE
  8
APS_GEOMETRY
 10
280.0
 11
0.0
 20
200.0
 21
200.0
  0
LINE
  8
APS_GEOMETRY
 10
0.0
 11
0.0
 20
200.0
 21
0.0
  0
LINE
  8
COSTRUZIONI
 10
0.0
 11
280.0
 20
60.0
 21
60.0
  0
LINE
  8
COSTRUZIONI
 10
31.1
 11
31.1
 20
60.0
 21
0.0
  0
LINE
  8
COSTRUZIONI
 10
62.2
 11
62.2
 20
60.0
 21
0.0
  0
LINE
  8
COSTRUZIONI
 10
93.3
 11
93.3
 20
60.0
 21
0.0
  0
LINE
  8
COSTRUZIONI
 10
124.4
 11
124.4
 20
60.0
 21
0.0
  0
LINE
  8
COSTRUZIONI
 10
155.5
 11
155.5
 20
60.0
 21
0.0
  0
LINE
  8
COSTRUZIONI
 10
186.6
 11
186.6
 20
60.0
 21
0.0
  0
LINE
  8
COSTRUZIONI
 10
217.7
 11
217.7
 20
60.0
 21
0.0
  0
LINE
  8
COSTRUZIONI
 10
248.8
 11
248.8
 20
60.0
 21
0.0
  0
LINE
  8
COSTRUZIONI
 10
280.0
 11
0.0
 20
188.0
 21
188.0
  0
LINE
  8
COSTRUZIONI
 10
166.0
 11
166.0
 20
120.0
 21
188.0
  0
LINE
  8
COSTRUZIONI
 10
184.0
 11
184.0
 20
120.0
 21
188.0
  0
LINE
  8
COSTRUZIONI
 10
202.0
 11
202.0
 20
120.0
 21
188.0
  0
LINE
  8
COSTRUZIONI
 10
220.0
 11
220.0
 20
120.0
 21
188.0
  0
LINE
  8
COSTRUZIONI
 10
250.0
 11
250.0
 20
120.0
 21
188.0
  0
LINE
  8
COSTRUZIONI
 10
280.0
 11
166.0
 20
168.0
 21
168.0
  0
LINE
  8
COSTRUZIONI
 10
280.0
 11
166.0
 20
156.0
 21
156.0
  0
LINE
  8
COSTRUZIONI
 10
280.0
 11
166.0
 20
144.0
 21
144.0
  0
LINE
  8
COSTRUZIONI
 10
280.0
 11
166.0
 20
132.0
 21
132.0
  0
LINE
  8
COSTRUZIONI
 10
280.0
 11
166.0
 20
120.0
 21
120.0
  0
LINE
  8
QUOTATURA
 10
51.948
 11
51.948
 20
129.6
 21
106.037
  0
LINE
  8
QUOTATURA
 10
121.948
 11
121.948
 20
117.1
 21
106.037
  0
LINE
  8
QUOTATURA
 10
51.948
 11
83.677
 20
106.037
 21
106.037
  0
LINE
  8
QUOTATURA
 10
90.22
 11
121.948
 20
106.037
 21
106.037
  0
LINE
  8
QUOTATURA
 10
54.948
 11
51.948
 20
105.537
 21
106.037
  0
LINE
  8
QUOTATURA
 10
51.948
 11
54.948
 20
106.037
 21
106.537
  0
LINE
  8
QUOTATURA
 10
54.948
 11
54.948
 20
106.537
 21
105.537
  0
LINE
  8
QUOTATURA
 10
118.948
 11
121.948
 20
106.537
 21
106.037
  0
LINE
  8
QUOTATURA
 10
121.948
 11
118.948
 20
106.037
 21
105.537
  0
LINE
  8
QUOTATURA
 10
118.948
 11
118.948
 20
105.537
 21
106.537
  0
LINE
  8
QUOTATURA
 10
52.448
 11
42.222
 20
129.1
 21
129.1
  0
LINE
  8
QUOTATURA
 10
51.948
 11
42.222
 20
149.1
 21
149.1
  0
LINE
  8
QUOTATURA
 10
42.222
 11
42.222
 20
129.1
 21
136.813
  0
LINE
  8
QUOTATURA
 10
42.222
 11
42.222
 20
141.359
 21
149.1
  0
LINE
  8
QUOTATURA
 10
42.722
 11
42.222
 20
132.1
 21
129.1
  0
LINE
  8
QUOTATURA
 10
42.222
 11
41.722
 20
129.1
 21
132.1
  0
LINE
  8
QUOTATURA
 10
41.722
 11
42.722
 20
132.1
 21
132.1
  0
LINE
  8
QUOTATURA
 10
41.722
 11
42.222
 20
146.1
 21
149.1
  0
LINE
  8
QUOTATURA
 10
42.222
 11
42.722
 20
149.1
 21
146.1
  0
LINE
  8
QUOTATURA
 10
42.722
 11
41.722
 20
146.1
 21
146.1
  0
LINE
  8
QUOTATURA
 10
117.948
 11
108.509
 20
129.1
 21
129.1
  0
LINE
  8
QUOTATURA
 10
121.948
 11
108.509
 20
117.1
 21
117.1
  0
LINE
  8
QUOTATURA
 10
108.509
 11
108.509
 20
129.1
 21
124.606
  0
LINE
  8
QUOTATURA
 10
108.509
 11
108.509
 20
121.6
 21
117.1
  0
LINE
  8
QUOTATURA
 10
108.175
 11
108.509
 20
127.1
 21
129.1
  0
LINE
  8
QUOTATURA
 10
108.509
 11
108.842
 20
129.1
 21
127.1
  0
LINE
  8
QUOTATURA
 10
108.842
 11
108.175
 20
127.1
 21
127.1
  0
LINE
  8
QUOTATURA
 10
108.842
 11
108.509
 20
119.1
 21
117.1
  0
LINE
  8
QUOTATURA
 10
108.509
 11
108.175
 20
117.1
 21
119.1
  0
LINE
  8
QUOTATURA
 10
108.175
 11
108.842
 20
119.1
 21
119.1
  0
LINE
  8
QUOTATURA
 10
121.948
 11
131.89
 20
117.1
 21
117.1
  0
LINE
  8
QUOTATURA
 10
73.282
 11
131.89
 20
149.1
 21
149.1
  0
LINE
  8
QUOTATURA
 10
131.89
 11
131.89
 20
117.1
 21
131.6
  0
LINE
  8
QUOTATURA
 10
131.89
 11
131.89
 20
134.606
 21
149.1
  0
LINE
  8
QUOTATURA
 10
132.224
 11
131.89
 20
119.1
 21
117.1
  0
LINE
  8
QUOTATURA
 10
131.89
 11
131.557
 20
117.1
 21
119.1
  0
LINE
  8
QUOTATURA
 10
131.557
 11
132.224
 20
119.1
 21
119.1
  0
LINE
  8
QUOTATURA
 10
131.557
 11
131.89
 20
147.1
 21
149.1
  0
LINE
  8
QUOTATURA
 10
131.89
 11
132.224
 20
149.1
 21
147.1
  0
LINE
  8
QUOTATURA
 10
132.224
 11
131.557
 20
147.1
 21
147.1
  0
LINE
  8
QUOTATURA
 10
118.748
 11
118.748
 20
116.8
 21
111.457
  0
LINE
  8
QUOTATURA
 10
121.948
 11
121.948
 20
116.1
 21
111.457
  0
LINE
  8
QUOTATURA
 10
121.948
 11
125.701
 20
112.457
 21
112.457
  0
LINE
  8
QUOTATURA
 10
123.948
 11
121.948
 20
112.123
 21
112.457
  0
LINE
  8
QUOTATURA
 10
121.948
 11
123.948
 20
112.457
 21
112.79
  0
LINE
  8
QUOTATURA
 10
123.948
 11
123.948
 20
112.79
 21
112.123
  0
LINE
  8
QUOTATURA
 10
118.748
 11
114.748
 20
112.457
 21
112.457
  0
LINE
  8
QUOTATURA
 10
116.748
 11
118.748
 20
112.79
 21
112.457
  0
LINE
  8
QUOTATURA
 10
118.748
 11
116.748
 20
112.457
 21
112.123
  0
LINE
  8
QUOTATURA
 10
116.748
 11
116.748
 20
112.123
 21
112.79
  0
LINE
  8
APS_GEOMETRY
 10
96.948
 11
75.948
 20
144.6
 21
144.6
  0
LINE
  8
APS_GEOMETRY
 10
75.948
 11
75.948
 20
144.6
 21
147.1
  0
ARC
  8
APS_GEOMETRY
 10
73.948
 20
147.1
 40
2.0
 50
0.0
 51
90.0
  0
LINE
  8
APS_GEOMETRY
 10
73.948
 11
54.948
 20
149.1
 21
149.1
  0
ARC
  8
APS_GEOMETRY
 10
54.948
 20
146.1
 40
3.0
 50
90.0
 51
180.0
  0
LINE
  8
APS_GEOMETRY
 10
51.948
 11
51.948
 20
146.1
 21
129.6
  0
LINE
  8
APS_GEOMETRY
 10
51.948
 11
52.448
 20
129.6
 21
129.1
  0
LINE
  8
APS_GEOMETRY
 10
52.448
 11
57.948
 20
129.1
 21
129.1
  0
LINE
  8
APS_GEOMETRY
 10
57.948
 11
57.948
 20
129.1
 21
132.1
  0
LINE
  8
APS_GEOMETRY
 10
57.948
 11
74.948
 20
132.1
 21
132.1
  0
LINE
  8
APS_GEOMETRY
 10
74.948
 11
74.948
 20
132.1
 21
129.1
  0
LINE
  8
APS_GEOMETRY
 10
74.948
 11
78.448
 20
129.1
 21
129.1
  0
LINE
  8
APS_GEOMETRY
 10
78.448
 11
78.448
 20
129.1
 21
132.1
  0
LINE
  8
APS_GEOMETRY
 10
78.448
 11
92.948
 20
132.1
 21
132.1
  0
LINE
  8
APS_GEOMETRY
 10
92.948
 11
92.948
 20
132.1
 21
129.1
  0
LINE
  8
APS_GEOMETRY
 10
92.948
 11
96.448
 20
129.1
 21
129.1
  0
LINE
  8
APS_GEOMETRY
 10
96.448
 11
96.448
 20
129.1
 21
132.1
  0
LINE
  8
APS_GEOMETRY
 10
96.448
 11
113.448
 20
132.1
 21
132.1
  0
LINE
  8
APS_GEOMETRY
 10
113.448
 11
113.448
 20
132.1
 21
129.1
  0
LINE
  8
APS_GEOMETRY
 10
113.448
 11
118.748
 20
129.1
 21
129.1
  0
LINE
  8
APS_GEOMETRY
 10
118.748
 11
118.748
 20
129.1
 21
117.8
  0
LINE
  8
APS_GEOMETRY
 10
118.748
 11
119.448
 20
117.8
 21
117.1
  0
LINE
  8
APS_GEOMETRY
 10
119.448
 11
121.948
 20
117.1
 21
117.1
  0
LINE
  8
APS_GEOMETRY
 10
121.948
 11
121.948
 20
117.1
 21
138.1
  0
ARC
  8
APS_GEOMETRY
 10
119.948
 20
138.1
 40
2.0
 50
0.0
 51
90.0
  0
LINE
  8
APS_GEOMETRY
 10
119.948
 11
98.948
 20
140.1
 21
140.1
  0
LINE
  8
APS_GEOMETRY
 10
98.948
 11
98.948
 20
140.1
 21
142.6
  0
ARC
  8
APS_GEOMETRY
 10
96.948
 20
142.6
 40
2.0
 50
0.0
 51
90.0
  0
TEXT
  8
TEXT
 10
264.35
 20
60.8
 30
0.0
 40
5.0
 50
0.0
  1
1
  0
TEXT
  8
TEXT
 10
202.15
 20
60.8
 30
0.0
 40
5.0
 50
0.0
  1
3
  0
TEXT
  8
TEXT
 10
171.05
 20
60.0
 30
0.0
 40
5.0
 50
0.0
  1
4
  0
TEXT
  8
TEXT
 10
139.95
 20
60.8
 30
0.0
 40
5.0
 50
0.0
  1
5
  0
TEXT
  8
TEXT
 10
108.85
 20
60.8
 30
0.0
 40
5.0
 50
0.0
  1
6
  0
TEXT
  8
TEXT
 10
77.75
 20
60.8
 30
0.0
 40
5.0
 50
0.0
  1
7
  0
TEXT
  8
TEXT
 10
46.65
 20
60.8
 30
0.0
 40
5.0
 50
0.0
  1
8
  0
TEXT
  8
TEXT
 10
15.55
 20
60.8
 30
0.0
 40
5.0
 50
0.0
  1
9
  0
TEXT
  8
TEXT
 10
165.429
 20
112.996
 30
0.0
 40
4.5
 50
0.0
  1
ANNOTAZIONI:
  0
TEXT
  8
TEXT
 10
0.0
 20
188.5
 30
0.0
 40
5.0
 50
0.0
  1
 SZ 70X32 MM                       ART.SCORN-CS207_32X70
  0
TEXT
  8
TEXT
 10
233.25
 20
60.8
 30
0.0
 40
5.0
 50
0.0
  1
2
  0
TEXT
  8
TEXT
 10
222.123
 20
182.119
 30
0.0
 40
4.0
 50
0.0
  1
MISURE
  0
TEXT
  8
TEXT
 10
222.123
 20
176.119
 30
0.0
 40
4.0
 50
0.0
  1
MAGG.
  0
TEXT
  8
TEXT
 10
280.719
 20
69.107
 30
0.0
 40
2.0
 50
-90.0
  1
Toscocornici porte - 0577-685426 - info@toscocornici.it
  0
TEXT
  8
TEXT
 10
277.719
 20
69.107
 30
0.0
 40
2.0
 50
-90.0
  1

  0
TEXT
  8
TEXT
 10
274.719
 20
69.107
 30
0.0
 40
2.0
 50
-90.0
  1

  0
TEXT
  8
TEXT
 10
218.395
 20
9.914
 30
0.0
 40
3.0
 50
0.0
  1
A.
  0
TEXT
  8
TEXT
 10
218.395
 20
5.414
 30
0.0
 40
3.0
 50
0.0
  1
R.
  0
TEXT
  8
TEXT
 10
249.495
 20
9.914
 30
0.0
 40
3.0
 50
0.0
  1
A.
  0
TEXT
  8
TEXT
 10
249.495
 20
5.414
 30
0.0
 40
3.0
 50
0.0
  1
R.
  0
TEXT
  8
TEXT
 10
187.295
 20
9.914
 30
0.0
 40
3.0
 50
0.0
  1
A.
  0
TEXT
  8
TEXT
 10
187.295
 20
5.414
 30
0.0
 40
3.0
 50
0.0
  1
R.
  0
TEXT
  8
TEXT
 10
156.195
 20
9.914
 30
0.0
 40
3.0
 50
0.0
  1
A.
  0
TEXT
  8
TEXT
 10
156.195
 20
5.414
 30
0.0
 40
3.0
 50
0.0
  1
R.
  0
TEXT
  8
TEXT
 10
125.095
 20
9.914
 30
0.0
 40
3.0
 50
0.0
  1
A.
  0
TEXT
  8
TEXT
 10
125.095
 20
5.414
 30
0.0
 40
3.0
 50
0.0
  1
R.
  0
TEXT
  8
TEXT
 10
93.995
 20
9.914
 30
0.0
 40
3.0
 50
0.0
  1
A.
  0
TEXT
  8
TEXT
 10
93.995
 20
5.414
 30
0.0
 40
3.0
 50
0.0
  1
R.
  0
TEXT
  8
TEXT
 10
62.895
 20
9.914
 30
0.0
 40
3.0
 50
0.0
  1
A.
  0
TEXT
  8
TEXT
 10
62.895
 20
5.414
 30
0.0
 40
3.0
 50
0.0
  1
R.
  0
TEXT
  8
TEXT
 10
31.795
 20
9.914
 30
0.0
 40
3.0
 50
0.0
  1
A.
  0
TEXT
  8
TEXT
 10
31.795
 20
5.414
 30
0.0
 40
3.0
 50
0.0
  1
R.
  0
TEXT
  8
TEXT
 10
0.695
 20
9.914
 30
0.0
 40
3.0
 50
0.0
  1
A.
  0
TEXT
  8
TEXT
 10
0.695
 20
5.414
 30
0.0
 40
3.0
 50
0.0
  1
R.
  0
TEXT
  8
QUOTATURA
 10
84.344
 20
104.537
 30
0.0
 40
3.0
 50
0.0
  1
70
  0
TEXT
  8
QUOTATURA
 10
39.742
 20
137.6
 30
0.0
 40
3.0
 50
0.0
  1
20
  0
TEXT
  8
QUOTATURA
 10
107.299
 20
122.1
 30
0.0
 40
2.0
 50
0.0
  1
12
  0
TEXT
  8
QUOTATURA
 10
130.278
 20
132.1
 30
0.0
 40
2.0
 50
0.0
  1
32
  0
TEXT
  8
QUOTATURA
 10
126.147
 20
111.457
 30
0.0
 40
2.0
 50
0.0
  1
3.2
  0
ENDSEC
  0
EOF
