  0
SECTION
  2
ENTITIES
  0
LINE
  8
APS_GEOMETRY
 10
0.0
 11
280.0
 20
0.0
 21
0.0
  0
LINE
  8
APS_GEOMETRY
 10
280.0
 11
280.0
 20
0.0
 21
200.0
  0
LINE
  8
APS_GEOMETRY
 10
280.0
 11
0.0
 20
200.0
 21
200.0
  0
LINE
  8
APS_GEOMETRY
 10
0.0
 11
0.0
 20
200.0
 21
0.0
  0
LINE
  8
COSTRUZIONI
 10
0.0
 11
280.0
 20
60.0
 21
60.0
  0
LINE
  8
COSTRUZIONI
 10
31.1
 11
31.1
 20
60.0
 21
0.0
  0
LINE
  8
COSTRUZIONI
 10
62.2
 11
62.2
 20
60.0
 21
0.0
  0
LINE
  8
COSTRUZIONI
 10
93.3
 11
93.3
 20
60.0
 21
0.0
  0
LINE
  8
COSTRUZIONI
 10
124.4
 11
124.4
 20
60.0
 21
0.0
  0
LINE
  8
COSTRUZIONI
 10
155.5
 11
155.5
 20
60.0
 21
0.0
  0
LINE
  8
COSTRUZIONI
 10
186.6
 11
186.6
 20
60.0
 21
0.0
  0
LINE
  8
COSTRUZIONI
 10
217.7
 11
217.7
 20
60.0
 21
0.0
  0
LINE
  8
COSTRUZIONI
 10
248.8
 11
248.8
 20
60.0
 21
0.0
  0
LINE
  8
COSTRUZIONI
 10
280.0
 11
0.0
 20
188.0
 21
188.0
  0
LINE
  8
COSTRUZIONI
 10
166.0
 11
166.0
 20
120.0
 21
188.0
  0
LINE
  8
COSTRUZIONI
 10
184.0
 11
184.0
 20
120.0
 21
188.0
  0
LINE
  8
COSTRUZIONI
 10
202.0
 11
202.0
 20
120.0
 21
188.0
  0
LINE
  8
COSTRUZIONI
 10
220.0
 11
220.0
 20
120.0
 21
188.0
  0
LINE
  8
COSTRUZIONI
 10
250.0
 11
250.0
 20
120.0
 21
188.0
  0
LINE
  8
COSTRUZIONI
 10
280.0
 11
166.0
 20
168.0
 21
168.0
  0
LINE
  8
COSTRUZIONI
 10
280.0
 11
166.0
 20
156.0
 21
156.0
  0
LINE
  8
COSTRUZIONI
 10
280.0
 11
166.0
 20
144.0
 21
144.0
  0
LINE
  8
COSTRUZIONI
 10
280.0
 11
166.0
 20
132.0
 21
132.0
  0
LINE
  8
COSTRUZIONI
 10
280.0
 11
166.0
 20
120.0
 21
120.0
  0
ARC
  8
APS_GEOMETRY
 10
111.637
 20
137.139
 40
3.844
 50
12.68
 51
167.32
  0
LINE
  8
QUOTATURA
 10
40.279
 11
40.279
 20
114.659
 21
86.242
  0
LINE
  8
QUOTATURA
 10
126.279
 11
126.279
 20
102.707
 21
86.242
  0
LINE
  8
QUOTATURA
 10
40.279
 11
81.145
 20
87.242
 21
87.242
  0
LINE
  8
QUOTATURA
 10
85.412
 11
126.279
 20
87.242
 21
87.242
  0
LINE
  8
QUOTATURA
 10
42.279
 11
40.279
 20
86.908
 21
87.242
  0
LINE
  8
QUOTATURA
 10
40.279
 11
42.279
 20
87.242
 21
87.575
  0
LINE
  8
QUOTATURA
 10
42.279
 11
42.279
 20
87.575
 21
86.908
  0
LINE
  8
QUOTATURA
 10
124.279
 11
126.279
 20
87.575
 21
87.242
  0
LINE
  8
QUOTATURA
 10
126.279
 11
124.279
 20
87.242
 21
86.908
  0
LINE
  8
QUOTATURA
 10
124.279
 11
124.279
 20
86.908
 21
87.575
  0
LINE
  8
QUOTATURA
 10
122.279
 11
122.279
 20
103.207
 21
97.866
  0
LINE
  8
QUOTATURA
 10
122.279
 11
114.348
 20
98.866
 21
98.866
  0
LINE
  8
QUOTATURA
 10
120.279
 11
122.279
 20
99.199
 21
98.866
  0
LINE
  8
QUOTATURA
 10
122.279
 11
120.279
 20
98.866
 21
98.532
  0
LINE
  8
QUOTATURA
 10
120.279
 11
120.279
 20
98.532
 21
99.199
  0
LINE
  8
QUOTATURA
 10
126.279
 11
130.279
 20
98.866
 21
98.866
  0
LINE
  8
QUOTATURA
 10
128.279
 11
126.279
 20
98.532
 21
98.866
  0
LINE
  8
QUOTATURA
 10
126.279
 11
128.279
 20
98.866
 21
99.199
  0
LINE
  8
QUOTATURA
 10
128.279
 11
128.279
 20
99.199
 21
98.532
  0
LINE
  8
QUOTATURA
 10
84.814
 11
21.592
 20
150.659
 21
150.659
  0
LINE
  8
QUOTATURA
 10
39.779
 11
21.592
 20
115.659
 21
115.659
  0
LINE
  8
QUOTATURA
 10
22.592
 11
22.592
 20
150.659
 21
134.665
  0
LINE
  8
QUOTATURA
 10
22.592
 11
22.592
 20
131.642
 21
115.659
  0
LINE
  8
QUOTATURA
 10
22.259
 11
22.592
 20
148.659
 21
150.659
  0
LINE
  8
QUOTATURA
 10
22.592
 11
22.926
 20
150.659
 21
148.659
  0
LINE
  8
QUOTATURA
 10
22.926
 11
22.259
 20
148.659
 21
148.659
  0
LINE
  8
QUOTATURA
 10
22.926
 11
22.592
 20
117.659
 21
115.659
  0
LINE
  8
QUOTATURA
 10
22.592
 11
22.259
 20
115.659
 21
117.659
  0
LINE
  8
QUOTATURA
 10
22.259
 11
22.926
 20
117.659
 21
117.659
  0
LINE
  8
QUOTATURA
 10
86.814
 11
139.429
 20
150.659
 21
150.659
  0
LINE
  8
QUOTATURA
 10
127.279
 11
139.429
 20
103.659
 21
103.659
  0
LINE
  8
QUOTATURA
 10
138.429
 11
138.429
 20
150.659
 21
128.66
  0
LINE
  8
QUOTATURA
 10
138.429
 11
138.429
 20
125.659
 21
103.659
  0
LINE
  8
QUOTATURA
 10
138.096
 11
138.429
 20
148.659
 21
150.659
  0
LINE
  8
QUOTATURA
 10
138.429
 11
138.762
 20
150.659
 21
148.659
  0
LINE
  8
QUOTATURA
 10
138.762
 11
138.096
 20
148.659
 21
148.659
  0
LINE
  8
QUOTATURA
 10
138.762
 11
138.429
 20
105.659
 21
103.659
  0
LINE
  8
QUOTATURA
 10
138.429
 11
138.096
 20
103.659
 21
105.659
  0
LINE
  8
QUOTATURA
 10
138.096
 11
138.762
 20
105.659
 21
105.659
  0
LINE
  8
QUOTATURA
 10
121.279
 11
111.638
 20
115.659
 21
115.659
  0
LINE
  8
QUOTATURA
 10
121.279
 11
111.638
 20
103.659
 21
103.659
  0
LINE
  8
QUOTATURA
 10
112.638
 11
112.638
 20
115.659
 21
111.165
  0
LINE
  8
QUOTATURA
 10
112.638
 11
112.638
 20
108.159
 21
103.659
  0
LINE
  8
QUOTATURA
 10
112.305
 11
112.638
 20
113.659
 21
115.659
  0
LINE
  8
QUOTATURA
 10
112.638
 11
112.972
 20
115.659
 21
113.659
  0
LINE
  8
QUOTATURA
 10
112.972
 11
112.305
 20
113.659
 21
113.659
  0
LINE
  8
QUOTATURA
 10
112.972
 11
112.638
 20
105.659
 21
103.659
  0
LINE
  8
QUOTATURA
 10
112.638
 11
112.305
 20
103.659
 21
105.659
  0
LINE
  8
QUOTATURA
 10
112.305
 11
112.972
 20
105.659
 21
105.659
  0
LINE
  8
APS_GEOMETRY
 10
125.779
 11
126.279
 20
131.659
 21
132.159
  0
LINE
  8
APS_GEOMETRY
 10
126.279
 11
126.279
 20
132.159
 21
137.884
  0
ARC
  8
APS_GEOMETRY
 10
125.779
 20
137.884
 40
0.5
 50
0.0
 51
90.0
  0
LINE
  8
APS_GEOMETRY
 10
125.779
 11
125.679
 20
138.384
 21
138.384
  0
ARC
  8
APS_GEOMETRY
 10
125.679
 20
142.384
 40
4.0
 50
219.399
 51
270.0
  0
ARC
  8
APS_GEOMETRY
 10
120.038
 20
137.751
 40
3.3
 50
39.399
 51
168.894
  0
ARC
  8
APS_GEOMETRY
 10
116.309
 20
138.483
 40
0.5
 50
270.0
 51
348.894
  0
LINE
  8
APS_GEOMETRY
 10
116.309
 11
106.964
 20
137.983
 21
137.983
  0
ARC
  8
APS_GEOMETRY
 10
106.964
 20
138.483
 40
0.5
 50
195.922
 51
270.0
  0
ARC
  8
APS_GEOMETRY
 10
95.444
 20
135.196
 40
11.48
 50
15.922
 51
29.487
  0
ARC
  8
APS_GEOMETRY
 10
90.815
 20
132.578
 40
16.798
 50
29.487
 51
53.777
  0
ARC
  8
APS_GEOMETRY
 10
87.791
 20
128.45
 40
21.915
 50
53.777
 51
73.122
  0
ARC
  8
APS_GEOMETRY
 10
85.814
 20
121.937
 40
28.722
 50
73.122
 51
106.878
  0
ARC
  8
APS_GEOMETRY
 10
83.838
 20
128.45
 40
21.915
 50
106.878
 51
126.223
  0
ARC
  8
APS_GEOMETRY
 10
80.814
 20
132.578
 40
16.798
 50
126.223
 51
150.513
  0
ARC
  8
APS_GEOMETRY
 10
76.185
 20
135.196
 40
11.48
 50
150.513
 51
177.608
  0
ARC
  8
APS_GEOMETRY
 10
64.216
 20
135.696
 40
0.5
 50
270.0
 51
357.608
  0
LINE
  8
APS_GEOMETRY
 10
64.216
 11
50.017
 20
135.196
 21
135.196
  0
ARC
  8
APS_GEOMETRY
 10
50.017
 20
134.696
 40
0.5
 50
90.0
 51
152.188
  0
ARC
  8
APS_GEOMETRY
 10
40.73
 20
139.595
 40
10.0
 50
270.267
 51
332.188
  0
ARC
  8
APS_GEOMETRY
 10
40.779
 20
129.095
 40
0.5
 50
90.267
 51
180.0
  0
LINE
  8
APS_GEOMETRY
 10
40.279
 11
40.279
 20
129.095
 21
116.159
  0
ARC
  8
APS_GEOMETRY
 10
40.779
 20
116.159
 40
0.5
 50
180.0
 51
270.0
  0
LINE
  8
APS_GEOMETRY
 10
40.779
 11
117.279
 20
115.659
 21
115.659
  0
LINE
  8
APS_GEOMETRY
 10
125.779
 11
126.279
 20
131.659
 21
131.159
  0
LINE
  8
APS_GEOMETRY
 10
126.279
 11
126.279
 20
131.159
 21
103.659
  0
LINE
  8
APS_GEOMETRY
 10
126.279
 11
122.779
 20
103.659
 21
103.659
  0
LINE
  8
APS_GEOMETRY
 10
122.779
 11
122.279
 20
103.659
 21
104.159
  0
LINE
  8
APS_GEOMETRY
 10
122.279
 11
122.279
 20
104.159
 21
115.659
  0
LINE
  8
APS_GEOMETRY
 10
122.279
 11
117.279
 20
115.659
 21
115.659
  0
LINE
  8
QUOTATURA
 10
127.279
 11
133.209
 20
131.159
 21
131.159
  0
LINE
  8
QUOTATURA
 10
127.279
 11
133.209
 20
132.159
 21
132.159
  0
LINE
  8
QUOTATURA
 10
132.209
 11
132.209
 20
132.159
 21
156.002
  0
LINE
  8
QUOTATURA
 10
132.209
 11
135.583
 20
156.002
 21
156.002
  0
LINE
  8
QUOTATURA
 10
132.543
 11
132.209
 20
134.159
 21
132.159
  0
LINE
  8
QUOTATURA
 10
132.209
 11
131.876
 20
132.159
 21
134.159
  0
LINE
  8
QUOTATURA
 10
131.876
 11
132.543
 20
134.159
 21
134.159
  0
LINE
  8
QUOTATURA
 10
132.209
 11
132.209
 20
131.159
 21
127.159
  0
LINE
  8
QUOTATURA
 10
131.876
 11
132.209
 20
129.159
 21
131.159
  0
LINE
  8
QUOTATURA
 10
132.209
 11
132.543
 20
131.159
 21
129.159
  0
LINE
  8
QUOTATURA
 10
132.543
 11
131.876
 20
129.159
 21
129.159
  0
LINE
  8
QUOTATURA
 10
126.279
 11
126.279
 20
132.159
 21
136.556
  0
LINE
  8
QUOTATURA
 10
125.779
 11
125.779
 20
132.659
 21
136.556
  0
LINE
  8
QUOTATURA
 10
126.279
 11
146.875
 20
135.556
 21
135.556
  0
LINE
  8
QUOTATURA
 10
128.279
 11
126.279
 20
135.223
 21
135.556
  0
LINE
  8
QUOTATURA
 10
126.279
 11
128.279
 20
135.556
 21
135.89
  0
LINE
  8
QUOTATURA
 10
128.279
 11
128.279
 20
135.89
 21
135.223
  0
LINE
  8
QUOTATURA
 10
125.779
 11
121.779
 20
135.556
 21
135.556
  0
LINE
  8
QUOTATURA
 10
123.779
 11
125.779
 20
135.89
 21
135.556
  0
LINE
  8
QUOTATURA
 10
125.779
 11
123.779
 20
135.556
 21
135.223
  0
LINE
  8
QUOTATURA
 10
123.779
 11
123.779
 20
135.223
 21
135.89
  0
LINE
  8
QUOTATURA
 10
124.779
 11
119.025
 20
131.659
 21
131.659
  0
LINE
  8
QUOTATURA
 10
125.279
 11
119.025
 20
138.429
 21
138.429
  0
LINE
  8
QUOTATURA
 10
120.025
 11
120.025
 20
138.429
 21
126.108
  0
LINE
  8
QUOTATURA
 10
120.025
 11
118.436
 20
126.108
 21
126.108
  0
LINE
  8
QUOTATURA
 10
120.359
 11
120.025
 20
133.659
 21
131.659
  0
LINE
  8
QUOTATURA
 10
120.025
 11
119.692
 20
131.659
 21
133.659
  0
LINE
  8
QUOTATURA
 10
119.692
 11
120.359
 20
133.659
 21
133.659
  0
LINE
  8
QUOTATURA
 10
119.692
 11
120.025
 20
136.429
 21
138.429
  0
LINE
  8
QUOTATURA
 10
120.025
 11
120.359
 20
138.429
 21
136.429
  0
LINE
  8
QUOTATURA
 10
120.359
 11
119.692
 20
136.429
 21
136.429
  0
TEXT
  8
TEXT
 10
264.35
 20
60.8
 30
0.0
 40
5.0
 50
0.0
  1
1
  0
TEXT
  8
TEXT
 10
202.15
 20
60.8
 30
0.0
 40
5.0
 50
0.0
  1
3
  0
TEXT
  8
TEXT
 10
171.05
 20
60.0
 30
0.0
 40
5.0
 50
0.0
  1
4
  0
TEXT
  8
TEXT
 10
139.95
 20
60.8
 30
0.0
 40
5.0
 50
0.0
  1
5
  0
TEXT
  8
TEXT
 10
108.85
 20
60.8
 30
0.0
 40
5.0
 50
0.0
  1
6
  0
TEXT
  8
TEXT
 10
77.75
 20
60.8
 30
0.0
 40
5.0
 50
0.0
  1
7
  0
TEXT
  8
TEXT
 10
46.65
 20
60.8
 30
0.0
 40
5.0
 50
0.0
  1
8
  0
TEXT
  8
TEXT
 10
15.55
 20
60.8
 30
0.0
 40
5.0
 50
0.0
  1
9
  0
TEXT
  8
TEXT
 10
165.429
 20
112.996
 30
0.0
 40
4.5
 50
0.0
  1
ANNOTAZIONI:
  0
TEXT
  8
TEXT
 10
0.0
 20
188.5
 30
0.0
 40
5.0
 50
0.0
  1
 SZ 86X35 MM    ART. SCORN_COPRIFILO-CS4_47X86
  0
TEXT
  8
TEXT
 10
233.25
 20
60.8
 30
0.0
 40
5.0
 50
0.0
  1
2
  0
TEXT
  8
TEXT
 10
222.123
 20
182.119
 30
0.0
 40
4.0
 50
0.0
  1
MISURE
  0
TEXT
  8
TEXT
 10
222.123
 20
176.119
 30
0.0
 40
4.0
 50
0.0
  1
MAGG.
  0
TEXT
  8
TEXT
 10
280.719
 20
69.107
 30
0.0
 40
2.0
 50
-90.0
  1
Toscocornici porte - 0577-685426 - info@toscocornici.it
  0
TEXT
  8
TEXT
 10
277.719
 20
69.107
 30
0.0
 40
2.0
 50
-90.0
  1

  0
TEXT
  8
TEXT
 10
274.719
 20
69.107
 30
0.0
 40
2.0
 50
-90.0
  1

  0
TEXT
  8
TEXT
 10
218.395
 20
9.914
 30
0.0
 40
3.0
 50
0.0
  1
A.
  0
TEXT
  8
TEXT
 10
218.395
 20
5.414
 30
0.0
 40
3.0
 50
0.0
  1
R.
  0
TEXT
  8
TEXT
 10
249.495
 20
9.914
 30
0.0
 40
3.0
 50
0.0
  1
A.
  0
TEXT
  8
TEXT
 10
249.495
 20
5.414
 30
0.0
 40
3.0
 50
0.0
  1
R.
  0
TEXT
  8
TEXT
 10
187.295
 20
9.914
 30
0.0
 40
3.0
 50
0.0
  1
A.
  0
TEXT
  8
TEXT
 10
187.295
 20
5.414
 30
0.0
 40
3.0
 50
0.0
  1
R.
  0
TEXT
  8
TEXT
 10
156.195
 20
9.914
 30
0.0
 40
3.0
 50
0.0
  1
A.
  0
TEXT
  8
TEXT
 10
156.195
 20
5.414
 30
0.0
 40
3.0
 50
0.0
  1
R.
  0
TEXT
  8
TEXT
 10
125.095
 20
9.914
 30
0.0
 40
3.0
 50
0.0
  1
A.
  0
TEXT
  8
TEXT
 10
125.095
 20
5.414
 30
0.0
 40
3.0
 50
0.0
  1
R.
  0
TEXT
  8
TEXT
 10
93.995
 20
9.914
 30
0.0
 40
3.0
 50
0.0
  1
A.
  0
TEXT
  8
TEXT
 10
93.995
 20
5.414
 30
0.0
 40
3.0
 50
0.0
  1
R.
  0
TEXT
  8
TEXT
 10
62.895
 20
9.914
 30
0.0
 40
3.0
 50
0.0
  1
A.
  0
TEXT
  8
TEXT
 10
62.895
 20
5.414
 30
0.0
 40
3.0
 50
0.0
  1
R.
  0
TEXT
  8
TEXT
 10
31.795
 20
9.914
 30
0.0
 40
3.0
 50
0.0
  1
A.
  0
TEXT
  8
TEXT
 10
31.795
 20
5.414
 30
0.0
 40
3.0
 50
0.0
  1
R.
  0
TEXT
  8
TEXT
 10
0.695
 20
9.914
 30
0.0
 40
3.0
 50
0.0
  1
A.
  0
TEXT
  8
TEXT
 10
0.695
 20
5.414
 30
0.0
 40
3.0
 50
0.0
  1
R.
  0
TEXT
  8
QUOTATURA
 10
81.632
 20
86.242
 30
0.0
 40
2.0
 50
0.0
  1
86
  0
TEXT
  8
QUOTATURA
 10
112.122
 20
97.866
 30
0.0
 40
2.0
 50
0.0
  1
4
  0
TEXT
  8
QUOTATURA
 10
20.921
 20
132.159
 30
0.0
 40
2.0
 50
0.0
  1
35
  0
TEXT
  8
QUOTATURA
 10
136.616
 20
126.159
 30
0.0
 40
2.0
 50
0.0
  1
47
  0
TEXT
  8
QUOTATURA
 10
111.428
 20
108.659
 30
0.0
 40
2.0
 50
0.0
  1
12
  0
TEXT
  8
QUOTATURA
 10
136.083
 20
155.002
 30
0.0
 40
2.0
 50
0.0
  1
FUGA MM 1
  0
TEXT
  8
QUOTATURA
 10
147.375
 20
134.556
 30
0.0
 40
2.0
 50
0.0
  1
FUGA=0.5
  0
TEXT
  8
TEXT
 10
43.285
 20
173.438
 30
0.0
 40
5.0
 50
0.0
  1
PROFILO SIGNORINI
  0
TEXT
  8
QUOTATURA
 10
111.149
 20
125.108
 30
0.0
 40
2.0
 50
0.0
  1
6.5
  0
ENDSEC
  0
EOF
