  0
SECTION
  2
ENTITIES
  0
LINE
  8
APS_GEOMETRY
 10
0.0
 11
280.0
 20
0.0
 21
0.0
  0
LINE
  8
APS_GEOMETRY
 10
280.0
 11
280.0
 20
0.0
 21
200.0
  0
LINE
  8
APS_GEOMETRY
 10
280.0
 11
0.0
 20
200.0
 21
200.0
  0
LINE
  8
APS_GEOMETRY
 10
0.0
 11
0.0
 20
200.0
 21
0.0
  0
LINE
  8
COSTRUZIONI
 10
0.0
 11
280.0
 20
60.0
 21
60.0
  0
LINE
  8
COSTRUZIONI
 10
31.1
 11
31.1
 20
60.0
 21
0.0
  0
LINE
  8
COSTRUZIONI
 10
62.2
 11
62.2
 20
60.0
 21
0.0
  0
LINE
  8
COSTRUZIONI
 10
93.3
 11
93.3
 20
60.0
 21
0.0
  0
LINE
  8
COSTRUZIONI
 10
124.4
 11
124.4
 20
60.0
 21
0.0
  0
LINE
  8
COSTRUZIONI
 10
155.5
 11
155.5
 20
60.0
 21
0.0
  0
LINE
  8
COSTRUZIONI
 10
186.6
 11
186.6
 20
60.0
 21
0.0
  0
LINE
  8
COSTRUZIONI
 10
217.7
 11
217.7
 20
60.0
 21
0.0
  0
LINE
  8
COSTRUZIONI
 10
248.8
 11
248.8
 20
60.0
 21
0.0
  0
LINE
  8
COSTRUZIONI
 10
280.0
 11
0.0
 20
188.0
 21
188.0
  0
LINE
  8
COSTRUZIONI
 10
166.0
 11
166.0
 20
120.0
 21
188.0
  0
LINE
  8
COSTRUZIONI
 10
184.0
 11
184.0
 20
120.0
 21
188.0
  0
LINE
  8
COSTRUZIONI
 10
202.0
 11
202.0
 20
120.0
 21
188.0
  0
LINE
  8
COSTRUZIONI
 10
220.0
 11
220.0
 20
120.0
 21
188.0
  0
LINE
  8
COSTRUZIONI
 10
250.0
 11
250.0
 20
120.0
 21
188.0
  0
LINE
  8
COSTRUZIONI
 10
280.0
 11
166.0
 20
168.0
 21
168.0
  0
LINE
  8
COSTRUZIONI
 10
280.0
 11
166.0
 20
156.0
 21
156.0
  0
LINE
  8
COSTRUZIONI
 10
280.0
 11
166.0
 20
144.0
 21
144.0
  0
LINE
  8
COSTRUZIONI
 10
280.0
 11
166.0
 20
132.0
 21
132.0
  0
LINE
  8
COSTRUZIONI
 10
280.0
 11
166.0
 20
120.0
 21
120.0
  0
LINE
  8
QUOTATURA
 10
118.572
 11
118.572
 20
128.829
 21
153.313
  0
LINE
  8
QUOTATURA
 10
49.372
 11
49.372
 20
138.829
 21
153.313
  0
LINE
  8
QUOTATURA
 10
118.572
 11
87.24
 20
152.313
 21
152.313
  0
LINE
  8
QUOTATURA
 10
80.703
 11
49.372
 20
152.313
 21
152.313
  0
LINE
  8
QUOTATURA
 10
116.572
 11
118.572
 20
151.98
 21
152.313
  0
LINE
  8
QUOTATURA
 10
118.572
 11
116.572
 20
152.313
 21
152.646
  0
LINE
  8
QUOTATURA
 10
116.572
 11
116.572
 20
152.646
 21
151.98
  0
LINE
  8
QUOTATURA
 10
51.372
 11
49.372
 20
152.646
 21
152.313
  0
LINE
  8
QUOTATURA
 10
49.372
 11
51.372
 20
152.313
 21
151.98
  0
LINE
  8
QUOTATURA
 10
51.372
 11
51.372
 20
151.98
 21
152.646
  0
LINE
  8
QUOTATURA
 10
55.672
 11
55.672
 20
123.829
 21
117.188
  0
LINE
  8
QUOTATURA
 10
49.372
 11
49.372
 20
123.829
 21
117.188
  0
LINE
  8
QUOTATURA
 10
49.372
 11
58.764
 20
118.188
 21
118.188
  0
LINE
  8
QUOTATURA
 10
53.672
 11
55.672
 20
117.854
 21
118.188
  0
LINE
  8
QUOTATURA
 10
55.672
 11
53.672
 20
118.188
 21
118.521
  0
LINE
  8
QUOTATURA
 10
53.672
 11
53.672
 20
118.521
 21
117.854
  0
LINE
  8
QUOTATURA
 10
51.372
 11
49.372
 20
118.521
 21
118.188
  0
LINE
  8
QUOTATURA
 10
49.372
 11
51.372
 20
118.188
 21
117.854
  0
LINE
  8
QUOTATURA
 10
51.372
 11
51.372
 20
117.854
 21
118.521
  0
LINE
  8
QUOTATURA
 10
118.572
 11
118.572
 20
112.829
 21
107.644
  0
LINE
  8
QUOTATURA
 10
114.572
 11
114.572
 20
114.329
 21
107.644
  0
LINE
  8
QUOTATURA
 10
118.572
 11
125.954
 20
108.644
 21
108.644
  0
LINE
  8
QUOTATURA
 10
120.572
 11
118.572
 20
108.977
 21
108.644
  0
LINE
  8
QUOTATURA
 10
118.572
 11
120.572
 20
108.644
 21
108.311
  0
LINE
  8
QUOTATURA
 10
120.572
 11
120.572
 20
108.311
 21
108.977
  0
LINE
  8
QUOTATURA
 10
114.572
 11
110.572
 20
108.644
 21
108.644
  0
LINE
  8
QUOTATURA
 10
112.572
 11
114.572
 20
108.311
 21
108.644
  0
LINE
  8
QUOTATURA
 10
114.572
 11
112.572
 20
108.644
 21
108.977
  0
LINE
  8
QUOTATURA
 10
112.572
 11
112.572
 20
108.977
 21
108.311
  0
LINE
  8
QUOTATURA
 10
48.372
 11
41.187
 20
124.829
 21
124.829
  0
LINE
  8
QUOTATURA
 10
53.872
 11
41.187
 20
142.829
 21
142.829
  0
LINE
  8
QUOTATURA
 10
42.187
 11
42.187
 20
124.829
 21
132.31
  0
LINE
  8
QUOTATURA
 10
42.187
 11
42.187
 20
135.33
 21
142.829
  0
LINE
  8
QUOTATURA
 10
41.854
 11
42.187
 20
126.829
 21
124.829
  0
LINE
  8
QUOTATURA
 10
42.187
 11
42.521
 20
124.829
 21
126.829
  0
LINE
  8
QUOTATURA
 10
42.521
 11
41.854
 20
126.829
 21
126.829
  0
LINE
  8
QUOTATURA
 10
42.521
 11
42.187
 20
140.829
 21
142.829
  0
LINE
  8
QUOTATURA
 10
42.187
 11
41.854
 20
142.829
 21
140.829
  0
LINE
  8
QUOTATURA
 10
41.854
 11
42.521
 20
140.829
 21
140.829
  0
LINE
  8
QUOTATURA
 10
117.572
 11
103.626
 20
112.829
 21
112.829
  0
LINE
  8
QUOTATURA
 10
109.072
 11
103.626
 20
124.829
 21
124.829
  0
LINE
  8
QUOTATURA
 10
104.626
 11
104.626
 20
112.829
 21
115.191
  0
LINE
  8
QUOTATURA
 10
104.626
 11
104.626
 20
118.197
 21
124.829
  0
LINE
  8
QUOTATURA
 10
104.293
 11
104.626
 20
114.829
 21
112.829
  0
LINE
  8
QUOTATURA
 10
104.626
 11
104.959
 20
112.829
 21
114.829
  0
LINE
  8
QUOTATURA
 10
104.959
 11
104.293
 20
114.829
 21
114.829
  0
LINE
  8
QUOTATURA
 10
104.959
 11
104.626
 20
122.829
 21
124.829
  0
LINE
  8
QUOTATURA
 10
104.626
 11
104.293
 20
124.829
 21
122.829
  0
LINE
  8
QUOTATURA
 10
104.293
 11
104.959
 20
122.829
 21
122.829
  0
LINE
  8
QUOTATURA
 10
112.572
 11
125.473
 20
134.329
 21
134.329
  0
LINE
  8
QUOTATURA
 10
124.473
 11
124.473
 20
112.829
 21
122.062
  0
LINE
  8
QUOTATURA
 10
124.473
 11
124.473
 20
125.085
 21
134.329
  0
LINE
  8
QUOTATURA
 10
124.139
 11
124.473
 20
114.829
 21
112.829
  0
LINE
  8
QUOTATURA
 10
124.473
 11
124.806
 20
112.829
 21
114.829
  0
LINE
  8
QUOTATURA
 10
124.806
 11
124.139
 20
114.829
 21
114.829
  0
LINE
  8
QUOTATURA
 10
124.806
 11
124.473
 20
132.329
 21
134.329
  0
LINE
  8
QUOTATURA
 10
124.473
 11
124.139
 20
134.329
 21
132.329
  0
LINE
  8
QUOTATURA
 10
124.139
 11
124.806
 20
132.329
 21
132.329
  0
LINE
  8
QUOTATURA
 10
119.572
 11
138.358
 20
112.829
 21
112.829
  0
LINE
  8
QUOTATURA
 10
55.872
 11
138.358
 20
142.829
 21
142.829
  0
LINE
  8
QUOTATURA
 10
137.358
 11
137.358
 20
112.829
 21
126.304
  0
LINE
  8
QUOTATURA
 10
137.358
 11
137.358
 20
129.335
 21
142.829
  0
LINE
  8
QUOTATURA
 10
137.025
 11
137.358
 20
114.829
 21
112.829
  0
LINE
  8
QUOTATURA
 10
137.358
 11
137.692
 20
112.829
 21
114.829
  0
LINE
  8
QUOTATURA
 10
137.692
 11
137.025
 20
114.829
 21
114.829
  0
LINE
  8
QUOTATURA
 10
137.692
 11
137.358
 20
140.829
 21
142.829
  0
LINE
  8
QUOTATURA
 10
137.358
 11
137.025
 20
142.829
 21
140.829
  0
LINE
  8
QUOTATURA
 10
137.025
 11
137.692
 20
140.829
 21
140.829
  0
ARC
  8
APS_GEOMETRY
 10
111.572
 20
127.329
 40
7.0
 50
0.0
 51
90.0
  0
LINE
  8
APS_GEOMETRY
 10
111.572
 11
110.968
 20
134.329
 21
134.329
  0
ARC
  8
APS_GEOMETRY
 10
110.968
 20
134.829
 40
0.5
 50
200.0
 51
270.0
  0
LINE
  8
APS_GEOMETRY
 10
110.498
 11
110.25
 20
134.658
 21
135.34
  0
ARC
  8
APS_GEOMETRY
 10
109.78
 20
135.169
 40
0.5
 50
20.0
 51
86.522
  0
LINE
  8
APS_GEOMETRY
 10
109.81
 11
70.869
 20
135.668
 21
137.298
  0
ARC
  8
APS_GEOMETRY
 10
70.839
 20
136.799
 40
0.5
 50
86.522
 51
172.846
  0
ARC
  8
APS_GEOMETRY
 10
66.622
 20
137.329
 40
3.75
 50
192.647
 51
352.846
  0
ARC
  8
APS_GEOMETRY
 10
62.475
 20
136.398
 40
0.5
 50
12.647
 51
78.69
  0
LINE
  8
APS_GEOMETRY
 10
62.573
 11
60.759
 20
136.888
 21
137.251
  0
ARC
  8
APS_GEOMETRY
 10
60.857
 20
137.741
 40
0.5
 50
183.945
 51
258.69
  0
ARC
  8
APS_GEOMETRY
 10
54.872
 20
137.329
 40
5.5
 50
3.945
 51
180.0
  0
LINE
  8
APS_GEOMETRY
 10
49.372
 11
49.372
 20
137.329
 21
124.829
  0
LINE
  8
APS_GEOMETRY
 10
49.372
 11
55.672
 20
124.829
 21
124.829
  0
LINE
  8
APS_GEOMETRY
 10
55.672
 11
55.672
 20
124.829
 21
127.829
  0
LINE
  8
APS_GEOMETRY
 10
55.672
 11
110.072
 20
127.829
 21
127.829
  0
LINE
  8
APS_GEOMETRY
 10
110.072
 11
110.072
 20
127.829
 21
124.829
  0
LINE
  8
APS_GEOMETRY
 10
110.072
 11
114.572
 20
124.829
 21
124.829
  0
LINE
  8
APS_GEOMETRY
 10
114.572
 11
114.572
 20
124.829
 21
114.329
  0
LINE
  8
APS_GEOMETRY
 10
114.572
 11
115.545
 20
114.329
 21
113.355
  0
LINE
  8
APS_GEOMETRY
 10
115.545
 11
118.572
 20
113.355
 21
112.829
  0
LINE
  8
APS_GEOMETRY
 10
118.572
 11
118.572
 20
112.829
 21
127.329
  0
TEXT
  8
TEXT
 10
264.35
 20
60.8
 30
0.0
 40
5.0
 50
0.0
  1
1
  0
TEXT
  8
TEXT
 10
202.15
 20
60.8
 30
0.0
 40
5.0
 50
0.0
  1
3
  0
TEXT
  8
TEXT
 10
171.05
 20
60.0
 30
0.0
 40
5.0
 50
0.0
  1
4
  0
TEXT
  8
TEXT
 10
139.95
 20
60.8
 30
0.0
 40
5.0
 50
0.0
  1
5
  0
TEXT
  8
TEXT
 10
108.85
 20
60.8
 30
0.0
 40
5.0
 50
0.0
  1
6
  0
TEXT
  8
TEXT
 10
77.75
 20
60.8
 30
0.0
 40
5.0
 50
0.0
  1
7
  0
TEXT
  8
TEXT
 10
46.65
 20
60.8
 30
0.0
 40
5.0
 50
0.0
  1
8
  0
TEXT
  8
TEXT
 10
15.55
 20
60.8
 30
0.0
 40
5.0
 50
0.0
  1
9
  0
TEXT
  8
TEXT
 10
165.429
 20
112.996
 30
0.0
 40
4.5
 50
0.0
  1
ANNOTAZIONI:
  0
TEXT
  8
TEXT
 10
0.0
 20
188.5
 30
0.0
 40
5.0
 50
0.0
  1
 SZ 69.2X30 MM    ART. SCORN-COPRIFILO-SAGOMATO_30X69,2
  0
TEXT
  8
TEXT
 10
233.25
 20
60.8
 30
0.0
 40
5.0
 50
0.0
  1
2
  0
TEXT
  8
TEXT
 10
222.123
 20
182.119
 30
0.0
 40
4.0
 50
0.0
  1
MISURE
  0
TEXT
  8
TEXT
 10
222.123
 20
176.119
 30
0.0
 40
4.0
 50
0.0
  1
MAGG.
  0
TEXT
  8
TEXT
 10
280.719
 20
69.107
 30
0.0
 40
2.0
 50
-90.0
  1
Toscocornici porte - 0577-685426 - info@toscocornici.it
  0
TEXT
  8
TEXT
 10
277.719
 20
69.107
 30
0.0
 40
2.0
 50
-90.0
  1

  0
TEXT
  8
TEXT
 10
274.719
 20
69.107
 30
0.0
 40
2.0
 50
-90.0
  1

  0
TEXT
  8
TEXT
 10
218.007
 20
53.165
 30
0.0
 40
3.0
 50
0.0
  1
FRESA
  0
TEXT
  8
TEXT
 10
218.007
 20
48.665
 30
0.0
 40
3.0
 50
0.0
  1
DIAMANTE
  0
TEXT
  8
TEXT
 10
218.007
 20
44.165
 30
0.0
 40
3.0
 50
0.0
  1

  0
TEXT
  8
TEXT
 10
218.007
 20
39.665
 30
0.0
 40
3.0
 50
0.0
  1
A. 38.9
  0
TEXT
  8
TEXT
 10
218.007
 20
35.165
 30
0.0
 40
3.0
 50
0.0
  1
R. 63.1
  0
TEXT
  8
TEXT
 10
218.395
 20
9.914
 30
0.0
 40
3.0
 50
0.0
  1
A.
  0
TEXT
  8
TEXT
 10
218.395
 20
5.414
 30
0.0
 40
3.0
 50
0.0
  1
R.
  0
TEXT
  8
TEXT
 10
187.269
 20
53.165
 30
0.0
 40
3.0
 50
0.0
  1
MM 25 FRESA
  0
TEXT
  8
TEXT
 10
187.269
 20
48.665
 30
0.0
 40
3.0
 50
0.0
  1
DIAMANTE
  0
TEXT
  8
TEXT
 10
187.269
 20
44.165
 30
0.0
 40
3.0
 50
0.0
  1
MM 7 N.61B
  0
TEXT
  8
TEXT
 10
187.269
 20
39.665
 30
0.0
 40
3.0
 50
0.0
  1

  0
TEXT
  8
TEXT
 10
187.269
 20
35.165
 30
0.0
 40
3.0
 50
0.0
  1
A. 38
  0
TEXT
  8
TEXT
 10
187.269
 20
30.665
 30
0.0
 40
3.0
 50
0.0
  1
R. 62.8
  0
TEXT
  8
TEXT
 10
94.04
 20
53.165
 30
0.0
 40
3.0
 50
0.0
  1
MM 16 N. 281
  0
TEXT
  8
TEXT
 10
94.04
 20
48.665
 30
0.0
 40
3.0
 50
0.0
  1
coltellini 
  0
TEXT
  8
TEXT
 10
94.04
 20
44.165
 30
0.0
 40
3.0
 50
0.0
  1
scatola N.
  0
TEXT
  8
TEXT
 10
94.04
 20
39.665
 30
0.0
 40
3.0
 50
0.0
  1

  0
TEXT
  8
TEXT
 10
94.04
 20
35.165
 30
0.0
 40
3.0
 50
0.0
  1

  0
TEXT
  8
TEXT
 10
94.04
 20
30.665
 30
0.0
 40
3.0
 50
0.0
  1
A. 25.3
  0
TEXT
  8
TEXT
 10
94.04
 20
26.165
 30
0.0
 40
3.0
 50
0.0
  1
R. 69.9/21.4
  0
TEXT
  8
TEXT
 10
1.307
 20
53.165
 30
0.0
 40
3.0
 50
0.0
  1
MM 0 + RID.
  0
TEXT
  8
TEXT
 10
1.307
 20
48.665
 30
0.0
 40
3.0
 50
0.0
  1
N. 270
  0
TEXT
  8
TEXT
 10
1.307
 20
44.165
 30
0.0
 40
3.0
 50
0.0
  1

  0
TEXT
  8
TEXT
 10
1.307
 20
39.665
 30
0.0
 40
3.0
 50
0.0
  1
A. 30
  0
TEXT
  8
TEXT
 10
1.307
 20
35.165
 30
0.0
 40
3.0
 50
0.0
  1
R. 66.5
  0
TEXT
  8
TEXT
 10
62.507
 20
53.165
 30
0.0
 40
3.0
 50
0.0
  1
MM 10 + RID.
  0
TEXT
  8
TEXT
 10
62.507
 20
48.665
 30
0.0
 40
3.0
 50
0.0
  1
N. 975
  0
TEXT
  8
TEXT
 10
62.507
 20
44.165
 30
0.0
 40
3.0
 50
0.0
  1

  0
TEXT
  8
TEXT
 10
62.507
 20
39.665
 30
0.0
 40
3.0
 50
0.0
  1
A. 22.9
  0
TEXT
  8
TEXT
 10
62.507
 20
35.165
 30
0.0
 40
3.0
 50
0.0
  1
R. 65.3
  0
TEXT
  8
TEXT
 10
249.495
 20
9.914
 30
0.0
 40
3.0
 50
0.0
  1
A.
  0
TEXT
  8
TEXT
 10
249.495
 20
5.414
 30
0.0
 40
3.0
 50
0.0
  1
R.
  0
TEXT
  8
TEXT
 10
187.295
 20
9.914
 30
0.0
 40
3.0
 50
0.0
  1
A.
  0
TEXT
  8
TEXT
 10
187.295
 20
5.414
 30
0.0
 40
3.0
 50
0.0
  1
R.
  0
TEXT
  8
TEXT
 10
156.195
 20
9.914
 30
0.0
 40
3.0
 50
0.0
  1
A.
  0
TEXT
  8
TEXT
 10
156.195
 20
5.414
 30
0.0
 40
3.0
 50
0.0
  1
R.
  0
TEXT
  8
TEXT
 10
125.095
 20
9.914
 30
0.0
 40
3.0
 50
0.0
  1
A.
  0
TEXT
  8
TEXT
 10
125.095
 20
5.414
 30
0.0
 40
3.0
 50
0.0
  1
R.
  0
TEXT
  8
TEXT
 10
93.995
 20
9.914
 30
0.0
 40
3.0
 50
0.0
  1
A.
  0
TEXT
  8
TEXT
 10
93.995
 20
5.414
 30
0.0
 40
3.0
 50
0.0
  1
R.
  0
TEXT
  8
TEXT
 10
62.895
 20
9.914
 30
0.0
 40
3.0
 50
0.0
  1
A.
  0
TEXT
  8
TEXT
 10
62.895
 20
5.414
 30
0.0
 40
3.0
 50
0.0
  1
R.
  0
TEXT
  8
TEXT
 10
31.795
 20
9.914
 30
0.0
 40
3.0
 50
0.0
  1
A.
  0
TEXT
  8
TEXT
 10
31.795
 20
5.414
 30
0.0
 40
3.0
 50
0.0
  1
R.
  0
TEXT
  8
TEXT
 10
0.695
 20
9.914
 30
0.0
 40
3.0
 50
0.0
  1
A.
  0
TEXT
  8
TEXT
 10
0.695
 20
5.414
 30
0.0
 40
3.0
 50
0.0
  1
R.
  0
TEXT
  8
QUOTATURA
 10
81.183
 20
151.313
 30
0.0
 40
2.0
 50
0.0
  1
69.2
  0
TEXT
  8
QUOTATURA
 10
59.244
 20
117.188
 30
0.0
 40
2.0
 50
0.0
  1
6.3
  0
TEXT
  8
QUOTATURA
 10
126.394
 20
107.644
 30
0.0
 40
2.0
 50
0.0
  1
4
  0
TEXT
  8
TEXT
 10
156.169
 20
53.165
 30
0.0
 40
3.0
 50
0.0
  1
MM 36 + RID.
  0
TEXT
  8
TEXT
 10
156.169
 20
48.665
 30
0.0
 40
3.0
 50
0.0
  1
N. 135
  0
TEXT
  8
TEXT
 10
156.169
 20
44.165
 30
0.0
 40
3.0
 50
0.0
  1

  0
TEXT
  8
TEXT
 10
156.169
 20
39.665
 30
0.0
 40
3.0
 50
0.0
  1

  0
TEXT
  8
TEXT
 10
156.169
 20
35.165
 30
0.0
 40
3.0
 50
0.0
  1
A. 15.1
  0
TEXT
  8
TEXT
 10
156.169
 20
30.665
 30
0.0
 40
3.0
 50
0.0
  1
R. 33.3
  0
TEXT
  8
TEXT
 10
125.069
 20
53.165
 30
0.0
 40
3.0
 50
0.0
  1
MM 50 + RID.
  0
TEXT
  8
TEXT
 10
125.069
 20
48.665
 30
0.0
 40
3.0
 50
0.0
  1
N. 26
  0
TEXT
  8
TEXT
 10
125.069
 20
44.165
 30
0.0
 40
3.0
 50
0.0
  1

  0
TEXT
  8
TEXT
 10
125.069
 20
39.665
 30
0.0
 40
3.0
 50
0.0
  1

  0
TEXT
  8
TEXT
 10
125.069
 20
35.165
 30
0.0
 40
3.0
 50
0.0
  1
A. 35.8
  0
TEXT
  8
TEXT
 10
125.069
 20
30.665
 30
0.0
 40
3.0
 50
0.0
  1
R. 67.6/64.1
  0
TEXT
  8
QUOTATURA
 10
40.914
 20
132.829
 30
0.0
 40
2.0
 50
0.0
  1
18
  0
TEXT
  8
QUOTATURA
 10
103.416
 20
115.691
 30
0.0
 40
2.0
 50
0.0
  1
12
  0
TEXT
  8
QUOTATURA
 10
122.037
 20
122.579
 30
0.0
 40
2.0
 50
0.0
  1
21.5
  0
TEXT
  8
QUOTATURA
 10
135.626
 20
126.829
 30
0.0
 40
2.0
 50
0.0
  1
30
  0
TEXT
  8
TEXT
 10
46.459
 20
169.172
 30
0.0
 40
10.0
 50
0.0
  1
S2
  0
ENDSEC
  0
EOF
