  0
SECTION
  2
ENTITIES
  0
LINE
  8
APS_GEOMETRY
 10
0.0
 11
280.0
 20
0.0
 21
0.0
  0
LINE
  8
APS_GEOMETRY
 10
280.0
 11
280.0
 20
0.0
 21
200.0
  0
LINE
  8
APS_GEOMETRY
 10
280.0
 11
0.0
 20
200.0
 21
200.0
  0
LINE
  8
APS_GEOMETRY
 10
0.0
 11
0.0
 20
200.0
 21
0.0
  0
LINE
  8
COSTRUZIONI
 10
0.0
 11
280.0
 20
60.0
 21
60.0
  0
LINE
  8
COSTRUZIONI
 10
31.1
 11
31.1
 20
60.0
 21
0.0
  0
LINE
  8
COSTRUZIONI
 10
62.2
 11
62.2
 20
60.0
 21
0.0
  0
LINE
  8
COSTRUZIONI
 10
93.3
 11
93.3
 20
60.0
 21
0.0
  0
LINE
  8
COSTRUZIONI
 10
124.4
 11
124.4
 20
60.0
 21
0.0
  0
LINE
  8
COSTRUZIONI
 10
155.5
 11
155.5
 20
60.0
 21
0.0
  0
LINE
  8
COSTRUZIONI
 10
186.6
 11
186.6
 20
60.0
 21
0.0
  0
LINE
  8
COSTRUZIONI
 10
217.7
 11
217.7
 20
60.0
 21
0.0
  0
LINE
  8
COSTRUZIONI
 10
248.8
 11
248.8
 20
60.0
 21
0.0
  0
LINE
  8
COSTRUZIONI
 10
280.0
 11
0.0
 20
188.0
 21
188.0
  0
LINE
  8
COSTRUZIONI
 10
166.0
 11
166.0
 20
120.0
 21
188.0
  0
LINE
  8
COSTRUZIONI
 10
184.0
 11
184.0
 20
120.0
 21
188.0
  0
LINE
  8
COSTRUZIONI
 10
202.0
 11
202.0
 20
120.0
 21
188.0
  0
LINE
  8
COSTRUZIONI
 10
220.0
 11
220.0
 20
120.0
 21
188.0
  0
LINE
  8
COSTRUZIONI
 10
250.0
 11
250.0
 20
120.0
 21
188.0
  0
LINE
  8
COSTRUZIONI
 10
280.0
 11
166.0
 20
168.0
 21
168.0
  0
LINE
  8
COSTRUZIONI
 10
280.0
 11
166.0
 20
156.0
 21
156.0
  0
LINE
  8
COSTRUZIONI
 10
280.0
 11
166.0
 20
144.0
 21
144.0
  0
LINE
  8
COSTRUZIONI
 10
280.0
 11
166.0
 20
132.0
 21
132.0
  0
LINE
  8
COSTRUZIONI
 10
280.0
 11
166.0
 20
120.0
 21
120.0
  0
LINE
  8
APS_GEOMETRY
 10
47.404
 11
47.404
 20
107.581
 21
123.796
  0
ARC
  8
APS_GEOMETRY
 10
50.404
 20
123.796
 40
3.0
 50
117.762
 51
180.0
  0
ARC
  8
APS_GEOMETRY
 10
81.904
 20
63.956
 40
70.625
 50
107.49
 51
117.762
  0
ARC
  8
APS_GEOMETRY
 10
62.978
 20
134.589
 40
4.0
 50
234.916
 51
335.084
  0
ARC
  8
APS_GEOMETRY
 10
81.904
 20
63.956
 40
70.625
 50
92.49
 51
102.51
  0
ARC
  8
APS_GEOMETRY
 10
81.904
 20
137.081
 40
4.0
 50
219.916
 51
320.084
  0
ARC
  8
APS_GEOMETRY
 10
81.904
 20
63.956
 40
70.625
 50
77.49
 51
87.51
  0
ARC
  8
APS_GEOMETRY
 10
100.83
 20
134.589
 40
4.0
 50
204.916
 51
305.084
  0
ARC
  8
APS_GEOMETRY
 10
81.904
 20
63.956
 40
70.625
 50
62.238
 51
72.51
  0
ARC
  8
APS_GEOMETRY
 10
113.404
 20
123.796
 40
3.0
 50
0.0
 51
62.238
  0
LINE
  8
APS_GEOMETRY
 10
116.404
 11
116.404
 20
123.796
 21
119.581
  0
LINE
  8
APS_GEOMETRY
 10
47.404
 11
49.904
 20
107.581
 21
107.581
  0
LINE
  8
APS_GEOMETRY
 10
49.904
 11
51.404
 20
107.581
 21
109.081
  0
LINE
  8
APS_GEOMETRY
 10
51.404
 11
51.404
 20
109.081
 21
119.581
  0
LINE
  8
APS_GEOMETRY
 10
51.404
 11
55.904
 20
119.581
 21
119.581
  0
LINE
  8
APS_GEOMETRY
 10
55.904
 11
55.904
 20
119.581
 21
122.581
  0
LINE
  8
APS_GEOMETRY
 10
55.904
 11
110.404
 20
122.581
 21
122.581
  0
LINE
  8
APS_GEOMETRY
 10
110.404
 11
110.404
 20
122.581
 21
119.581
  0
LINE
  8
APS_GEOMETRY
 10
110.404
 11
116.404
 20
119.581
 21
119.581
  0
LINE
  8
APS_GEOMETRY
 10
116.404
 11
116.404
 20
119.581
 21
123.796
  0
LINE
  8
QUOTATURA
 10
51.404
 11
51.404
 20
108.081
 21
101.645
  0
LINE
  8
QUOTATURA
 10
51.404
 11
55.109
 20
102.645
 21
102.645
  0
LINE
  8
QUOTATURA
 10
53.404
 11
51.404
 20
102.312
 21
102.645
  0
LINE
  8
QUOTATURA
 10
51.404
 11
53.404
 20
102.645
 21
102.979
  0
LINE
  8
QUOTATURA
 10
53.404
 11
53.404
 20
102.979
 21
102.312
  0
LINE
  8
QUOTATURA
 10
47.404
 11
43.404
 20
102.645
 21
102.645
  0
LINE
  8
QUOTATURA
 10
45.404
 11
47.404
 20
102.979
 21
102.645
  0
LINE
  8
QUOTATURA
 10
47.404
 11
45.404
 20
102.645
 21
102.312
  0
LINE
  8
QUOTATURA
 10
45.404
 11
45.404
 20
102.312
 21
102.979
  0
LINE
  8
QUOTATURA
 10
47.404
 11
47.404
 20
106.581
 21
91.365
  0
LINE
  8
QUOTATURA
 10
116.404
 11
116.404
 20
118.581
 21
91.365
  0
LINE
  8
QUOTATURA
 10
47.404
 11
79.799
 20
92.365
 21
92.365
  0
LINE
  8
QUOTATURA
 10
84.009
 11
116.404
 20
92.365
 21
92.365
  0
LINE
  8
QUOTATURA
 10
49.404
 11
47.404
 20
92.032
 21
92.365
  0
LINE
  8
QUOTATURA
 10
47.404
 11
49.404
 20
92.365
 21
92.698
  0
LINE
  8
QUOTATURA
 10
49.404
 11
49.404
 20
92.698
 21
92.032
  0
LINE
  8
QUOTATURA
 10
114.404
 11
116.404
 20
92.698
 21
92.365
  0
LINE
  8
QUOTATURA
 10
116.404
 11
114.404
 20
92.365
 21
92.032
  0
LINE
  8
QUOTATURA
 10
114.404
 11
114.404
 20
92.032
 21
92.698
  0
LINE
  8
QUOTATURA
 10
46.404
 11
37.188
 20
107.581
 21
107.581
  0
LINE
  8
QUOTATURA
 10
80.515
 11
37.188
 20
135.275
 21
135.275
  0
LINE
  8
QUOTATURA
 10
38.188
 11
38.188
 20
107.581
 21
119.928
  0
LINE
  8
QUOTATURA
 10
38.188
 11
38.188
 20
122.934
 21
135.275
  0
LINE
  8
QUOTATURA
 10
38.521
 11
38.188
 20
109.581
 21
107.581
  0
LINE
  8
QUOTATURA
 10
38.188
 11
37.854
 20
107.581
 21
109.581
  0
LINE
  8
QUOTATURA
 10
37.854
 11
38.521
 20
109.581
 21
109.581
  0
LINE
  8
QUOTATURA
 10
37.854
 11
38.188
 20
133.275
 21
135.275
  0
LINE
  8
QUOTATURA
 10
38.188
 11
38.521
 20
135.275
 21
133.275
  0
LINE
  8
QUOTATURA
 10
38.521
 11
37.854
 20
133.275
 21
133.275
  0
TEXT
  8
TEXT
 10
264.35
 20
60.8
 30
0.0
 40
5.0
 50
0.0
  1
1
  0
TEXT
  8
TEXT
 10
202.15
 20
60.8
 30
0.0
 40
5.0
 50
0.0
  1
3
  0
TEXT
  8
TEXT
 10
171.05
 20
60.0
 30
0.0
 40
5.0
 50
0.0
  1
4
  0
TEXT
  8
TEXT
 10
139.95
 20
60.8
 30
0.0
 40
5.0
 50
0.0
  1
5
  0
TEXT
  8
TEXT
 10
108.85
 20
60.8
 30
0.0
 40
5.0
 50
0.0
  1
6
  0
TEXT
  8
TEXT
 10
77.75
 20
60.8
 30
0.0
 40
5.0
 50
0.0
  1
7
  0
TEXT
  8
TEXT
 10
46.65
 20
60.8
 30
0.0
 40
5.0
 50
0.0
  1
8
  0
TEXT
  8
TEXT
 10
15.55
 20
60.8
 30
0.0
 40
5.0
 50
0.0
  1
9
  0
TEXT
  8
TEXT
 10
165.429
 20
112.996
 30
0.0
 40
4.5
 50
0.0
  1
ANNOTAZIONI:
  0
TEXT
  8
TEXT
 10
0.0
 20
188.5
 30
0.0
 40
5.0
 50
0.0
  1
 SZ 90X32 MM             ART. SCORN-CS400_32X90
  0
TEXT
  8
TEXT
 10
233.25
 20
60.8
 30
0.0
 40
5.0
 50
0.0
  1
2
  0
TEXT
  8
TEXT
 10
222.123
 20
182.119
 30
0.0
 40
4.0
 50
0.0
  1
MISURE
  0
TEXT
  8
TEXT
 10
222.123
 20
176.119
 30
0.0
 40
4.0
 50
0.0
  1
MAGG.
  0
TEXT
  8
TEXT
 10
280.719
 20
69.107
 30
0.0
 40
2.0
 50
-90.0
  1
Toscocornici porte - 0577-685426 - info@toscocornici.it
  0
TEXT
  8
TEXT
 10
277.719
 20
69.107
 30
0.0
 40
2.0
 50
-90.0
  1

  0
TEXT
  8
TEXT
 10
274.719
 20
69.107
 30
0.0
 40
2.0
 50
-90.0
  1

  0
TEXT
  8
TEXT
 10
249.495
 20
9.914
 30
0.0
 40
3.0
 50
0.0
  1
A.
  0
TEXT
  8
TEXT
 10
249.495
 20
5.414
 30
0.0
 40
3.0
 50
0.0
  1
R.
  0
TEXT
  8
TEXT
 10
156.195
 20
9.914
 30
0.0
 40
3.0
 50
0.0
  1
A.
  0
TEXT
  8
TEXT
 10
156.195
 20
5.414
 30
0.0
 40
3.0
 50
0.0
  1
R.
  0
TEXT
  8
TEXT
 10
125.095
 20
9.914
 30
0.0
 40
3.0
 50
0.0
  1
A.
  0
TEXT
  8
TEXT
 10
125.095
 20
5.414
 30
0.0
 40
3.0
 50
0.0
  1
R.
  0
TEXT
  8
TEXT
 10
62.895
 20
9.914
 30
0.0
 40
3.0
 50
0.0
  1
A.
  0
TEXT
  8
TEXT
 10
62.895
 20
5.414
 30
0.0
 40
3.0
 50
0.0
  1
R.
  0
TEXT
  8
TEXT
 10
31.795
 20
9.914
 30
0.0
 40
3.0
 50
0.0
  1
A.
  0
TEXT
  8
TEXT
 10
31.795
 20
5.414
 30
0.0
 40
3.0
 50
0.0
  1
R.
  0
TEXT
  8
TEXT
 10
0.695
 20
9.914
 30
0.0
 40
3.0
 50
0.0
  1
A.
  0
TEXT
  8
TEXT
 10
0.695
 20
5.414
 30
0.0
 40
3.0
 50
0.0
  1
R.
  0
TEXT
  8
TEXT
 10
93.995
 20
9.914
 30
0.0
 40
3.0
 50
0.0
  1
A.
  0
TEXT
  8
TEXT
 10
93.995
 20
5.414
 30
0.0
 40
3.0
 50
0.0
  1
R.
  0
TEXT
  8
TEXT
 10
187.295
 20
9.914
 30
0.0
 40
3.0
 50
0.0
  1
A.
  0
TEXT
  8
TEXT
 10
187.295
 20
5.414
 30
0.0
 40
3.0
 50
0.0
  1
R.
  0
TEXT
  8
TEXT
 10
218.395
 20
9.914
 30
0.0
 40
3.0
 50
0.0
  1
A.
  0
TEXT
  8
TEXT
 10
218.395
 20
5.414
 30
0.0
 40
3.0
 50
0.0
  1
R.
  0
TEXT
  8
QUOTATURA
 10
55.549
 20
101.645
 30
0.0
 40
2.0
 50
0.0
  1
4
  0
TEXT
  8
QUOTATURA
 10
80.279
 20
91.365
 30
0.0
 40
2.0
 50
0.0
  1
69
  0
TEXT
  8
QUOTATURA
 10
36.571
 20
120.428
 30
0.0
 40
2.0
 50
0.0
  1
27
  0
ENDSEC
  0
EOF
