  0
SECTION
  2
ENTITIES
  0
LINE
  8
APS_GEOMETRY
 10
0.0
 11
280.0
 20
0.0
 21
0.0
  0
LINE
  8
APS_GEOMETRY
 10
280.0
 11
280.0
 20
0.0
 21
200.0
  0
LINE
  8
APS_GEOMETRY
 10
280.0
 11
0.0
 20
200.0
 21
200.0
  0
LINE
  8
APS_GEOMETRY
 10
0.0
 11
0.0
 20
200.0
 21
0.0
  0
LINE
  8
COSTRUZIONI
 10
0.0
 11
280.0
 20
60.0
 21
60.0
  0
LINE
  8
COSTRUZIONI
 10
31.1
 11
31.1
 20
60.0
 21
0.0
  0
LINE
  8
COSTRUZIONI
 10
62.2
 11
62.2
 20
60.0
 21
0.0
  0
LINE
  8
COSTRUZIONI
 10
93.3
 11
93.3
 20
60.0
 21
0.0
  0
LINE
  8
COSTRUZIONI
 10
124.4
 11
124.4
 20
60.0
 21
0.0
  0
LINE
  8
COSTRUZIONI
 10
155.5
 11
155.5
 20
60.0
 21
0.0
  0
LINE
  8
COSTRUZIONI
 10
186.6
 11
186.6
 20
60.0
 21
0.0
  0
LINE
  8
COSTRUZIONI
 10
217.7
 11
217.7
 20
60.0
 21
0.0
  0
LINE
  8
COSTRUZIONI
 10
248.8
 11
248.8
 20
60.0
 21
0.0
  0
LINE
  8
COSTRUZIONI
 10
280.0
 11
0.0
 20
188.0
 21
188.0
  0
LINE
  8
COSTRUZIONI
 10
166.0
 11
166.0
 20
120.0
 21
188.0
  0
LINE
  8
COSTRUZIONI
 10
184.0
 11
184.0
 20
120.0
 21
188.0
  0
LINE
  8
COSTRUZIONI
 10
202.0
 11
202.0
 20
120.0
 21
188.0
  0
LINE
  8
COSTRUZIONI
 10
220.0
 11
220.0
 20
120.0
 21
188.0
  0
LINE
  8
COSTRUZIONI
 10
250.0
 11
250.0
 20
120.0
 21
188.0
  0
LINE
  8
COSTRUZIONI
 10
280.0
 11
166.0
 20
168.0
 21
168.0
  0
LINE
  8
COSTRUZIONI
 10
280.0
 11
166.0
 20
156.0
 21
156.0
  0
LINE
  8
COSTRUZIONI
 10
280.0
 11
166.0
 20
144.0
 21
144.0
  0
LINE
  8
COSTRUZIONI
 10
280.0
 11
166.0
 20
132.0
 21
132.0
  0
LINE
  8
COSTRUZIONI
 10
280.0
 11
166.0
 20
120.0
 21
120.0
  0
LINE
  8
APS_GEOMETRY
 10
21.922
 11
24.722
 20
120.151
 21
120.151
  0
LINE
  8
APS_GEOMETRY
 10
24.722
 11
24.722
 20
120.151
 21
126.151
  0
LINE
  8
APS_GEOMETRY
 10
24.722
 11
27.522
 20
126.151
 21
126.151
  0
LINE
  8
APS_GEOMETRY
 10
27.522
 11
27.522
 20
126.151
 21
120.151
  0
LINE
  8
APS_GEOMETRY
 10
27.522
 11
36.822
 20
120.151
 21
120.151
  0
LINE
  8
APS_GEOMETRY
 10
36.822
 11
36.822
 20
120.151
 21
123.151
  0
LINE
  8
APS_GEOMETRY
 10
36.822
 11
42.122
 20
123.151
 21
123.151
  0
LINE
  8
APS_GEOMETRY
 10
42.122
 11
42.122
 20
123.151
 21
120.151
  0
LINE
  8
APS_GEOMETRY
 10
42.122
 11
45.822
 20
120.151
 21
120.151
  0
LINE
  8
APS_GEOMETRY
 10
45.822
 11
45.822
 20
120.151
 21
123.151
  0
LINE
  8
APS_GEOMETRY
 10
45.822
 11
53.122
 20
123.151
 21
123.151
  0
LINE
  8
APS_GEOMETRY
 10
53.122
 11
53.122
 20
123.151
 21
120.151
  0
LINE
  8
APS_GEOMETRY
 10
53.122
 11
56.822
 20
120.151
 21
120.151
  0
LINE
  8
APS_GEOMETRY
 10
56.822
 11
56.822
 20
120.151
 21
123.151
  0
LINE
  8
APS_GEOMETRY
 10
56.822
 11
85.822
 20
123.151
 21
123.151
  0
LINE
  8
APS_GEOMETRY
 10
85.822
 11
85.822
 20
123.151
 21
120.651
  0
LINE
  8
APS_GEOMETRY
 10
85.822
 11
86.322
 20
120.651
 21
120.151
  0
LINE
  8
APS_GEOMETRY
 10
86.322
 11
90.422
 20
120.151
 21
120.151
  0
LINE
  8
APS_GEOMETRY
 10
90.422
 11
90.922
 20
120.151
 21
120.651
  0
LINE
  8
APS_GEOMETRY
 10
90.922
 11
90.922
 20
120.651
 21
127.151
  0
ARC
  8
APS_GEOMETRY
 10
87.922
 20
127.151
 40
3.0
 50
0.0
 51
90.0
  0
LINE
  8
APS_GEOMETRY
 10
87.922
 11
24.922
 20
130.151
 21
130.151
  0
ARC
  8
APS_GEOMETRY
 10
24.922
 20
127.151
 40
3.0
 50
90.0
 51
180.0
  0
LINE
  8
APS_GEOMETRY
 10
21.922
 11
21.922
 20
127.151
 21
120.151
  0
LINE
  8
QUOTATURA
 10
21.922
 11
21.922
 20
121.151
 21
144.504
  0
LINE
  8
QUOTATURA
 10
90.922
 11
90.922
 20
121.651
 21
144.504
  0
LINE
  8
QUOTATURA
 10
21.922
 11
54.317
 20
143.504
 21
143.504
  0
LINE
  8
QUOTATURA
 10
58.527
 11
90.922
 20
143.504
 21
143.504
  0
LINE
  8
QUOTATURA
 10
23.922
 11
21.922
 20
143.171
 21
143.504
  0
LINE
  8
QUOTATURA
 10
21.922
 11
23.922
 20
143.504
 21
143.837
  0
LINE
  8
QUOTATURA
 10
23.922
 11
23.922
 20
143.837
 21
143.171
  0
LINE
  8
QUOTATURA
 10
88.922
 11
90.922
 20
143.837
 21
143.504
  0
LINE
  8
QUOTATURA
 10
90.922
 11
88.922
 20
143.504
 21
143.171
  0
LINE
  8
QUOTATURA
 10
88.922
 11
88.922
 20
143.171
 21
143.837
  0
LINE
  8
QUOTATURA
 10
88.922
 11
106.744
 20
130.151
 21
130.151
  0
LINE
  8
QUOTATURA
 10
91.422
 11
106.744
 20
120.151
 21
120.151
  0
LINE
  8
QUOTATURA
 10
105.744
 11
105.744
 20
130.151
 21
126.651
  0
LINE
  8
QUOTATURA
 10
105.744
 11
105.744
 20
123.626
 21
120.151
  0
LINE
  8
QUOTATURA
 10
105.411
 11
105.744
 20
128.151
 21
130.151
  0
LINE
  8
QUOTATURA
 10
105.744
 11
106.077
 20
130.151
 21
128.151
  0
LINE
  8
QUOTATURA
 10
106.077
 11
105.411
 20
128.151
 21
128.151
  0
LINE
  8
QUOTATURA
 10
106.077
 11
105.744
 20
122.151
 21
120.151
  0
LINE
  8
QUOTATURA
 10
105.744
 11
105.411
 20
120.151
 21
122.151
  0
LINE
  8
QUOTATURA
 10
105.411
 11
106.077
 20
122.151
 21
122.151
  0
LINE
  8
QUOTATURA
 10
28.522
 11
32.395
 20
126.151
 21
126.151
  0
LINE
  8
QUOTATURA
 10
28.522
 11
32.395
 20
120.151
 21
120.151
  0
LINE
  8
QUOTATURA
 10
31.395
 11
31.395
 20
120.151
 21
126.643
  0
LINE
  8
QUOTATURA
 10
31.395
 11
31.395
 20
128.164
 21
128.164
  0
LINE
  8
QUOTATURA
 10
31.062
 11
31.395
 20
124.151
 21
126.151
  0
LINE
  8
QUOTATURA
 10
31.395
 11
31.729
 20
126.151
 21
124.151
  0
LINE
  8
QUOTATURA
 10
31.729
 11
31.062
 20
124.151
 21
124.151
  0
LINE
  8
QUOTATURA
 10
31.729
 11
31.395
 20
122.151
 21
120.151
  0
LINE
  8
QUOTATURA
 10
31.395
 11
31.062
 20
120.151
 21
122.151
  0
LINE
  8
QUOTATURA
 10
31.062
 11
31.729
 20
122.151
 21
122.151
  0
LINE
  8
QUOTATURA
 10
56.822
 11
68.174
 20
120.011
 21
120.011
  0
LINE
  8
QUOTATURA
 10
74.971
 11
86.322
 20
120.011
 21
120.011
  0
LINE
  8
QUOTATURA
 10
58.822
 11
56.822
 20
119.677
 21
120.011
  0
LINE
  8
QUOTATURA
 10
56.822
 11
58.822
 20
120.011
 21
120.344
  0
LINE
  8
QUOTATURA
 10
58.822
 11
58.822
 20
120.344
 21
119.677
  0
LINE
  8
QUOTATURA
 10
84.322
 11
86.322
 20
120.344
 21
120.011
  0
LINE
  8
QUOTATURA
 10
86.322
 11
84.322
 20
120.011
 21
119.677
  0
LINE
  8
QUOTATURA
 10
84.322
 11
84.322
 20
119.677
 21
120.344
  0
LINE
  8
QUOTATURA
 10
24.922
 11
24.922
 20
126.817
 21
127.484
  0
LINE
  8
QUOTATURA
 10
24.589
 11
25.255
 20
127.151
 21
127.151
  0
LINE
  8
QUOTATURA
 10
24.922
 11
15.168
 20
127.151
 21
135.2
  0
LINE
  8
QUOTATURA
 10
15.168
 11
13.396
 20
135.2
 21
135.2
  0
LINE
  8
QUOTATURA
 10
21.278
 11
22.608
 20
130.59
 21
129.06
  0
LINE
  8
QUOTATURA
 10
22.608
 11
20.853
 20
129.06
 21
130.076
  0
LINE
  8
QUOTATURA
 10
20.853
 11
21.278
 20
130.076
 21
130.59
  0
LINE
  8
QUOTATURA
 10
87.922
 11
87.922
 20
126.817
 21
127.484
  0
LINE
  8
QUOTATURA
 10
87.589
 11
88.255
 20
127.151
 21
127.151
  0
LINE
  8
QUOTATURA
 10
87.922
 11
92.758
 20
127.151
 21
140.004
  0
LINE
  8
QUOTATURA
 10
92.758
 11
106.25
 20
140.004
 21
140.004
  0
LINE
  8
QUOTATURA
 10
89.995
 11
88.979
 20
131.713
 21
129.959
  0
LINE
  8
QUOTATURA
 10
88.979
 11
89.371
 20
129.959
 21
131.948
  0
LINE
  8
QUOTATURA
 10
89.371
 11
89.995
 20
131.948
 21
131.713
  0
LINE
  8
QUOTATURA
 10
85.822
 11
85.822
 20
119.651
 21
111.793
  0
LINE
  8
QUOTATURA
 10
90.922
 11
90.922
 20
119.651
 21
111.793
  0
LINE
  8
QUOTATURA
 10
90.922
 11
94.661
 20
112.793
 21
112.793
  0
LINE
  8
QUOTATURA
 10
92.922
 11
90.922
 20
112.46
 21
112.793
  0
LINE
  8
QUOTATURA
 10
90.922
 11
92.922
 20
112.793
 21
113.126
  0
LINE
  8
QUOTATURA
 10
92.922
 11
92.922
 20
113.126
 21
112.46
  0
LINE
  8
QUOTATURA
 10
85.822
 11
81.822
 20
112.793
 21
112.793
  0
LINE
  8
QUOTATURA
 10
83.822
 11
85.822
 20
113.126
 21
112.793
  0
LINE
  8
QUOTATURA
 10
85.822
 11
83.822
 20
112.793
 21
112.46
  0
LINE
  8
QUOTATURA
 10
83.822
 11
83.822
 20
112.46
 21
113.126
  0
LINE
  8
QUOTATURA
 10
53.122
 11
53.122
 20
121.151
 21
128.332
  0
LINE
  8
QUOTATURA
 10
56.822
 11
56.822
 20
121.151
 21
128.332
  0
LINE
  8
QUOTATURA
 10
56.822
 11
58.279
 20
127.332
 21
127.332
  0
LINE
  8
QUOTATURA
 10
58.822
 11
56.822
 20
126.999
 21
127.332
  0
LINE
  8
QUOTATURA
 10
56.822
 11
58.822
 20
127.332
 21
127.666
  0
LINE
  8
QUOTATURA
 10
58.822
 11
58.822
 20
127.666
 21
126.999
  0
LINE
  8
QUOTATURA
 10
53.122
 11
49.122
 20
127.332
 21
127.332
  0
LINE
  8
QUOTATURA
 10
51.122
 11
53.122
 20
127.666
 21
127.332
  0
LINE
  8
QUOTATURA
 10
53.122
 11
51.122
 20
127.332
 21
126.999
  0
LINE
  8
QUOTATURA
 10
51.122
 11
51.122
 20
126.999
 21
127.666
  0
LINE
  8
QUOTATURA
 10
24.722
 11
24.722
 20
119.151
 21
113.178
  0
LINE
  8
QUOTATURA
 10
27.522
 11
27.522
 20
119.151
 21
113.178
  0
LINE
  8
QUOTATURA
 10
24.722
 11
19.145
 20
114.178
 21
114.178
  0
LINE
  8
QUOTATURA
 10
22.722
 11
24.722
 20
114.511
 21
114.178
  0
LINE
  8
QUOTATURA
 10
24.722
 11
22.722
 20
114.178
 21
113.844
  0
LINE
  8
QUOTATURA
 10
22.722
 11
22.722
 20
113.844
 21
114.511
  0
LINE
  8
QUOTATURA
 10
27.522
 11
31.522
 20
114.178
 21
114.178
  0
LINE
  8
QUOTATURA
 10
29.522
 11
27.522
 20
113.844
 21
114.178
  0
LINE
  8
QUOTATURA
 10
27.522
 11
29.522
 20
114.178
 21
114.511
  0
LINE
  8
QUOTATURA
 10
29.522
 11
29.522
 20
114.511
 21
113.844
  0
LINE
  8
QUOTATURA
 10
36.822
 11
36.822
 20
119.151
 21
105.008
  0
LINE
  8
QUOTATURA
 10
42.122
 11
42.122
 20
119.151
 21
105.008
  0
LINE
  8
QUOTATURA
 10
36.822
 11
29.183
 20
106.008
 21
106.008
  0
LINE
  8
QUOTATURA
 10
34.822
 11
36.822
 20
106.341
 21
106.008
  0
LINE
  8
QUOTATURA
 10
36.822
 11
34.822
 20
106.008
 21
105.674
  0
LINE
  8
QUOTATURA
 10
34.822
 11
34.822
 20
105.674
 21
106.341
  0
LINE
  8
QUOTATURA
 10
42.122
 11
46.122
 20
106.008
 21
106.008
  0
LINE
  8
QUOTATURA
 10
44.122
 11
42.122
 20
105.674
 21
106.008
  0
LINE
  8
QUOTATURA
 10
42.122
 11
44.122
 20
106.008
 21
106.341
  0
LINE
  8
QUOTATURA
 10
44.122
 11
44.122
 20
106.341
 21
105.674
  0
LINE
  8
QUOTATURA
 10
45.822
 11
45.822
 20
119.151
 21
107.362
  0
LINE
  8
QUOTATURA
 10
53.122
 11
53.122
 20
119.151
 21
107.362
  0
LINE
  8
QUOTATURA
 10
45.822
 11
55.372
 20
108.362
 21
108.362
  0
LINE
  8
QUOTATURA
 10
47.822
 11
45.822
 20
108.028
 21
108.362
  0
LINE
  8
QUOTATURA
 10
45.822
 11
47.822
 20
108.362
 21
108.695
  0
LINE
  8
QUOTATURA
 10
47.822
 11
47.822
 20
108.695
 21
108.028
  0
LINE
  8
QUOTATURA
 10
51.122
 11
53.122
 20
108.695
 21
108.362
  0
LINE
  8
QUOTATURA
 10
53.122
 11
51.122
 20
108.362
 21
108.028
  0
LINE
  8
QUOTATURA
 10
51.122
 11
51.122
 20
108.028
 21
108.695
  0
LINE
  8
QUOTATURA
 10
42.122
 11
42.122
 20
123.151
 21
125.141
  0
LINE
  8
QUOTATURA
 10
42.122
 11
42.122
 20
126.64
 21
126.64
  0
LINE
  8
QUOTATURA
 10
42.455
 11
42.122
 20
125.151
 21
123.151
  0
LINE
  8
QUOTATURA
 10
42.122
 11
41.789
 20
123.151
 21
125.151
  0
LINE
  8
QUOTATURA
 10
41.789
 11
42.455
 20
125.151
 21
125.151
  0
LINE
  8
QUOTATURA
 10
42.122
 11
42.122
 20
120.151
 21
116.151
  0
LINE
  8
QUOTATURA
 10
41.789
 11
42.122
 20
118.151
 21
120.151
  0
LINE
  8
QUOTATURA
 10
42.122
 11
42.455
 20
120.151
 21
118.151
  0
LINE
  8
QUOTATURA
 10
42.455
 11
41.789
 20
118.151
 21
118.151
  0
LINE
  8
QUOTATURA
 10
24.722
 11
24.722
 20
121.151
 21
124.04
  0
LINE
  8
QUOTATURA
 10
21.922
 11
17.484
 20
123.04
 21
123.04
  0
LINE
  8
QUOTATURA
 10
19.922
 11
21.922
 20
123.373
 21
123.04
  0
LINE
  8
QUOTATURA
 10
21.922
 11
19.922
 20
123.04
 21
122.706
  0
LINE
  8
QUOTATURA
 10
19.922
 11
19.922
 20
122.706
 21
123.373
  0
LINE
  8
QUOTATURA
 10
24.722
 11
28.722
 20
123.04
 21
123.04
  0
LINE
  8
QUOTATURA
 10
26.722
 11
24.722
 20
122.706
 21
123.04
  0
LINE
  8
QUOTATURA
 10
24.722
 11
26.722
 20
123.04
 21
123.373
  0
LINE
  8
QUOTATURA
 10
26.722
 11
26.722
 20
123.373
 21
122.706
  0
TEXT
  8
TEXT
 10
264.35
 20
60.8
 30
0.0
 40
5.0
 50
0.0
  1
1
  0
TEXT
  8
TEXT
 10
202.15
 20
60.8
 30
0.0
 40
5.0
 50
0.0
  1
3
  0
TEXT
  8
TEXT
 10
171.05
 20
60.0
 30
0.0
 40
5.0
 50
0.0
  1
4
  0
TEXT
  8
TEXT
 10
139.95
 20
60.8
 30
0.0
 40
5.0
 50
0.0
  1
5
  0
TEXT
  8
TEXT
 10
108.85
 20
60.8
 30
0.0
 40
5.0
 50
0.0
  1
6
  0
TEXT
  8
TEXT
 10
77.75
 20
60.8
 30
0.0
 40
5.0
 50
0.0
  1
7
  0
TEXT
  8
TEXT
 10
46.65
 20
60.8
 30
0.0
 40
5.0
 50
0.0
  1
8
  0
TEXT
  8
TEXT
 10
15.55
 20
60.8
 30
0.0
 40
5.0
 50
0.0
  1
9
  0
TEXT
  8
TEXT
 10
165.429
 20
112.996
 30
0.0
 40
4.5
 50
0.0
  1
ANNOTAZIONI:
  0
TEXT
  8
TEXT
 10
0.0
 20
188.5
 30
0.0
 40
5.0
 50
0.0
  1
 SZ 69X10 MM    ART. SCORN-COPRIFILO-LISCIO_69X10
  0
TEXT
  8
TEXT
 10
233.25
 20
60.8
 30
0.0
 40
5.0
 50
0.0
  1
2
  0
TEXT
  8
TEXT
 10
222.123
 20
182.119
 30
0.0
 40
4.0
 50
0.0
  1
MISURE
  0
TEXT
  8
TEXT
 10
222.123
 20
176.119
 30
0.0
 40
4.0
 50
0.0
  1
MAGG.
  0
TEXT
  8
TEXT
 10
280.719
 20
69.107
 30
0.0
 40
2.0
 50
-90.0
  1
Toscocornici porte - 0577-685426 - info@toscocornici.it
  0
TEXT
  8
TEXT
 10
277.719
 20
69.107
 30
0.0
 40
2.0
 50
-90.0
  1

  0
TEXT
  8
TEXT
 10
274.719
 20
69.107
 30
0.0
 40
2.0
 50
-90.0
  1

  0
TEXT
  8
TEXT
 10
218.395
 20
9.914
 30
0.0
 40
3.0
 50
0.0
  1
A. 53,1
  0
TEXT
  8
TEXT
 10
218.395
 20
5.414
 30
0.0
 40
3.0
 50
0.0
  1
R. 63,2
  0
TEXT
  8
TEXT
 10
0.695
 20
9.914
 30
0.0
 40
3.0
 50
0.0
  1
A. 31
  0
TEXT
  8
TEXT
 10
0.695
 20
5.414
 30
0.0
 40
3.0
 50
0.0
  1
R. 82,4
  0
TEXT
  8
TEXT
 10
187.251
 20
55.481
 30
0.0
 40
3.0
 50
0.0
  1
MM 10
  0
TEXT
  8
TEXT
 10
187.251
 20
50.981
 30
0.0
 40
3.0
 50
0.0
  1
BORCHIA 45°
  0
TEXT
  8
TEXT
 10
187.251
 20
46.481
 30
0.0
 40
3.0
 50
0.0
  1
MM 4,2
  0
TEXT
  8
TEXT
 10
187.251
 20
41.981
 30
0.0
 40
3.0
 50
0.0
  1
N. 70
  0
TEXT
  8
TEXT
 10
187.251
 20
37.481
 30
0.0
 40
3.0
 50
0.0
  1
MM 4,2
  0
TEXT
  8
TEXT
 10
187.251
 20
32.981
 30
0.0
 40
3.0
 50
0.0
  1
BORCHIA R3
  0
TEXT
  8
TEXT
 10
1.362
 20
55.39
 30
0.0
 40
3.0
 50
0.0
  1
MM 0
  0
TEXT
  8
TEXT
 10
1.362
 20
50.89
 30
0.0
 40
3.0
 50
0.0
  1
+ RID
  0
TEXT
  8
TEXT
 10
1.362
 20
46.39
 30
0.0
 40
3.0
 50
0.0
  1
N.37/A
  0
TEXT
  8
TEXT
 10
1.362
 20
41.89
 30
0.0
 40
3.0
 50
0.0
  1
 (FLAVIO)
  0
TEXT
  8
TEXT
 10
1.362
 20
37.39
 30
0.0
 40
3.0
 50
0.0
  1
IN MEZZO
  0
TEXT
  8
TEXT
 10
1.362
 20
32.89
 30
0.0
 40
3.0
 50
0.0
  1
MM 0,6
  0
TEXT
  8
TEXT
 10
218.351
 20
55.481
 30
0.0
 40
3.0
 50
0.0
  1
MM 10
  0
TEXT
  8
TEXT
 10
218.351
 20
50.981
 30
0.0
 40
3.0
 50
0.0
  1
BORCHIA 45°
  0
TEXT
  8
TEXT
 10
218.351
 20
46.481
 30
0.0
 40
3.0
 50
0.0
  1
MM 4,2
  0
TEXT
  8
TEXT
 10
218.351
 20
41.981
 30
0.0
 40
3.0
 50
0.0
  1
N. 70
  0
TEXT
  8
TEXT
 10
218.351
 20
37.481
 30
0.0
 40
3.0
 50
0.0
  1
MM 4,5
  0
TEXT
  8
TEXT
 10
218.351
 20
32.981
 30
0.0
 40
3.0
 50
0.0
  1
BORCHIA R3
  0
TEXT
  8
TEXT
 10
64.211
 20
54.069
 30
0.0
 40
3.0
 50
0.0
  1
MM 0
  0
TEXT
  8
TEXT
 10
64.211
 20
49.569
 30
0.0
 40
3.0
 50
0.0
  1
N. 280/A
  0
TEXT
  8
TEXT
 10
64.211
 20
45.069
 30
0.0
 40
3.0
 50
0.0
  1
MM O
  0
TEXT
  8
TEXT
 10
64.211
 20
40.569
 30
0.0
 40
3.0
 50
0.0
  1
N. 280
  0
TEXT
  8
TEXT
 10
64.211
 20
36.069
 30
0.0
 40
3.0
 50
0.0
  1

  0
TEXT
  8
TEXT
 10
64.211
 20
8.541
 30
0.0
 40
3.0
 50
0.0
  1
A. 38,9
  0
TEXT
  8
TEXT
 10
64.211
 20
4.041
 30
0.0
 40
3.0
 50
0.0
  1
R. 76,6
  0
TEXT
  8
TEXT
 10
64.211
 20
-0.459
 30
0.0
 40
3.0
 50
0.0
  1

  0
TEXT
  8
QUOTATURA
 10
54.797
 20
142.504
 30
0.0
 40
2.0
 50
0.0
  1
69
  0
TEXT
  8
QUOTATURA
 10
104.415
 20
124.151
 30
0.0
 40
2.0
 50
0.0
  1
10
  0
TEXT
  8
QUOTATURA
 10
30.392
 20
127.164
 30
0.0
 40
2.0
 50
0.0
  1
6
  0
TEXT
  8
QUOTATURA
 10
68.674
 20
119.011
 30
0.0
 40
2.0
 50
0.0
  1
29.5
  0
TEXT
  8
QUOTATURA
 10
9.538
 20
134.2
 30
0.0
 40
2.0
 50
0.0
  1
R3
  0
TEXT
  8
QUOTATURA
 10
106.75
 20
139.004
 30
0.0
 40
2.0
 50
0.0
  1
R3
  0
TEXT
  8
QUOTATURA
 10
95.154
 20
111.793
 30
0.0
 40
2.0
 50
0.0
  1
5.1
  0
TEXT
  8
QUOTATURA
 10
58.725
 20
126.332
 30
0.0
 40
2.0
 50
0.0
  1
3.7
  0
TEXT
  8
QUOTATURA
 10
14.651
 20
113.178
 30
0.0
 40
2.0
 50
0.0
  1
2.8
  0
TEXT
  8
QUOTATURA
 10
24.547
 20
105.008
 30
0.0
 40
2.0
 50
0.0
  1
5.3
  0
TEXT
  8
QUOTATURA
 10
55.817
 20
107.362
 30
0.0
 40
2.0
 50
0.0
  1
7.3
  0
TEXT
  8
QUOTATURA
 10
42.185
 20
125.64
 30
0.0
 40
2.0
 50
0.0
  1
3
  0
TEXT
  8
QUOTATURA
 10
12.99
 20
122.04
 30
0.0
 40
2.0
 50
0.0
  1
2.8
  0
ENDSEC
  0
EOF
