  0
SECTION
  2
ENTITIES
  0
LINE
  8
APS_GEOMETRY
 10
0.0
 11
280.0
 20
0.0
 21
0.0
  0
LINE
  8
APS_GEOMETRY
 10
280.0
 11
280.0
 20
0.0
 21
200.0
  0
LINE
  8
APS_GEOMETRY
 10
280.0
 11
0.0
 20
200.0
 21
200.0
  0
LINE
  8
APS_GEOMETRY
 10
0.0
 11
0.0
 20
200.0
 21
0.0
  0
LINE
  8
COSTRUZIONI
 10
0.0
 11
280.0
 20
60.0
 21
60.0
  0
LINE
  8
COSTRUZIONI
 10
31.1
 11
31.1
 20
60.0
 21
0.0
  0
LINE
  8
COSTRUZIONI
 10
62.2
 11
62.2
 20
60.0
 21
0.0
  0
LINE
  8
COSTRUZIONI
 10
93.3
 11
93.3
 20
60.0
 21
0.0
  0
LINE
  8
COSTRUZIONI
 10
124.4
 11
124.4
 20
60.0
 21
0.0
  0
LINE
  8
COSTRUZIONI
 10
155.5
 11
155.5
 20
60.0
 21
0.0
  0
LINE
  8
COSTRUZIONI
 10
186.6
 11
186.6
 20
60.0
 21
0.0
  0
LINE
  8
COSTRUZIONI
 10
217.7
 11
217.7
 20
60.0
 21
0.0
  0
LINE
  8
COSTRUZIONI
 10
248.8
 11
248.8
 20
60.0
 21
0.0
  0
LINE
  8
COSTRUZIONI
 10
280.0
 11
0.0
 20
188.0
 21
188.0
  0
LINE
  8
COSTRUZIONI
 10
166.0
 11
166.0
 20
120.0
 21
188.0
  0
LINE
  8
COSTRUZIONI
 10
184.0
 11
184.0
 20
120.0
 21
188.0
  0
LINE
  8
COSTRUZIONI
 10
202.0
 11
202.0
 20
120.0
 21
188.0
  0
LINE
  8
COSTRUZIONI
 10
220.0
 11
220.0
 20
120.0
 21
188.0
  0
LINE
  8
COSTRUZIONI
 10
250.0
 11
250.0
 20
120.0
 21
188.0
  0
LINE
  8
COSTRUZIONI
 10
280.0
 11
166.0
 20
168.0
 21
168.0
  0
LINE
  8
COSTRUZIONI
 10
280.0
 11
166.0
 20
156.0
 21
156.0
  0
LINE
  8
COSTRUZIONI
 10
280.0
 11
166.0
 20
144.0
 21
144.0
  0
LINE
  8
COSTRUZIONI
 10
280.0
 11
166.0
 20
132.0
 21
132.0
  0
LINE
  8
COSTRUZIONI
 10
280.0
 11
166.0
 20
120.0
 21
120.0
  0
LINE
  8
APS_GEOMETRY
 10
101.588
 11
101.588
 20
131.645
 21
139.645
  0
LINE
  8
APS_GEOMETRY
 10
92.966
 11
92.538
 20
148.145
 21
148.145
  0
LINE
  8
APS_GEOMETRY
 10
41.188
 11
58.188
 20
135.145
 21
135.145
  0
LINE
  8
APS_GEOMETRY
 10
58.188
 11
58.188
 20
135.145
 21
133.145
  0
ARC
  8
APS_GEOMETRY
 10
58.688
 20
133.145
 40
0.5
 50
180.0
 51
270.0
  0
LINE
  8
APS_GEOMETRY
 10
58.688
 11
61.188
 20
132.645
 21
132.645
  0
ARC
  8
APS_GEOMETRY
 10
61.188
 20
133.145
 40
0.5
 50
270.0
 51
0.0
  0
LINE
  8
APS_GEOMETRY
 10
61.688
 11
61.688
 20
133.145
 21
135.145
  0
LINE
  8
APS_GEOMETRY
 10
61.688
 11
75.688
 20
135.145
 21
135.145
  0
LINE
  8
APS_GEOMETRY
 10
75.688
 11
75.688
 20
135.145
 21
133.145
  0
ARC
  8
APS_GEOMETRY
 10
76.188
 20
133.145
 40
0.5
 50
180.0
 51
270.0
  0
LINE
  8
APS_GEOMETRY
 10
76.188
 11
78.688
 20
132.645
 21
132.645
  0
ARC
  8
APS_GEOMETRY
 10
78.688
 20
133.145
 40
0.5
 50
270.0
 51
0.0
  0
LINE
  8
APS_GEOMETRY
 10
79.188
 11
79.188
 20
133.145
 21
135.145
  0
LINE
  8
APS_GEOMETRY
 10
79.188
 11
96.188
 20
135.145
 21
135.145
  0
LINE
  8
APS_GEOMETRY
 10
96.188
 11
96.188
 20
135.145
 21
132.145
  0
LINE
  8
APS_GEOMETRY
 10
96.188
 11
96.688
 20
132.145
 21
131.645
  0
LINE
  8
APS_GEOMETRY
 10
96.688
 11
101.588
 20
131.645
 21
131.645
  0
LINE
  8
APS_GEOMETRY
 10
41.188
 11
41.188
 20
135.145
 21
132.645
  0
ARC
  8
APS_GEOMETRY
 10
40.688
 20
132.645
 40
0.5
 50
270.0
 51
360.0
  0
LINE
  8
APS_GEOMETRY
 10
40.688
 11
37.188
 20
132.145
 21
132.145
  0
LINE
  8
APS_GEOMETRY
 10
37.188
 11
37.188
 20
132.145
 21
121.145
  0
ARC
  8
APS_GEOMETRY
 10
36.188
 20
121.145
 40
1.0
 50
269.999
 51
360.0
  0
LINE
  8
APS_GEOMETRY
 10
36.188
 11
33.688
 20
120.145
 21
120.145
  0
ARC
  8
APS_GEOMETRY
 10
33.688
 20
120.645
 40
0.5
 50
180.0
 51
269.999
  0
LINE
  8
APS_GEOMETRY
 10
33.188
 11
33.188
 20
120.645
 21
135.938
  0
ARC
  8
APS_GEOMETRY
 10
33.688
 20
135.938
 40
0.5
 50
135.0
 51
180.0
  0
LINE
  8
APS_GEOMETRY
 10
33.334
 11
33.987
 20
136.291
 21
136.944
  0
ARC
  8
APS_GEOMETRY
 10
33.633
 20
137.297
 40
0.5
 50
315.0
 51
10.503
  0
ARC
  8
APS_GEOMETRY
 10
39.735
 20
138.429
 40
5.706
 50
17.503
 51
190.503
  0
LINE
  8
APS_GEOMETRY
 10
101.588
 11
101.588
 20
131.645
 21
138.645
  0
ARC
  8
APS_GEOMETRY
 10
92.752
 20
139.305
 40
8.842
 50
2.203
 51
134.194
  0
LINE
  8
APS_GEOMETRY
 10
45.178
 11
62.178
 20
140.145
 21
140.145
  0
ARC
  8
APS_GEOMETRY
 10
59.185
 20
196.216
 40
56.151
 50
273.055
 51
295.529
  0
ARC
  8
APS_GEOMETRY
 10
83.815
 20
144.645
 40
1.0
 50
90.0
 51
115.529
  0
LINE
  8
APS_GEOMETRY
 10
83.815
 11
86.588
 20
145.645
 21
145.645
  0
LINE
  8
QUOTATURA
 10
33.188
 11
33.188
 20
121.645
 21
159.676
  0
LINE
  8
QUOTATURA
 10
101.588
 11
101.588
 20
133.145
 21
159.676
  0
LINE
  8
QUOTATURA
 10
33.188
 11
62.014
 20
158.176
 21
158.176
  0
LINE
  8
QUOTATURA
 10
72.762
 11
101.588
 20
158.176
 21
158.176
  0
LINE
  8
QUOTATURA
 10
36.188
 11
33.188
 20
157.675
 21
158.176
  0
LINE
  8
QUOTATURA
 10
33.188
 11
36.188
 20
158.176
 21
158.676
  0
LINE
  8
QUOTATURA
 10
36.188
 11
36.188
 20
158.676
 21
157.675
  0
LINE
  8
QUOTATURA
 10
98.588
 11
101.588
 20
158.676
 21
158.176
  0
LINE
  8
QUOTATURA
 10
101.588
 11
98.588
 20
158.176
 21
157.675
  0
LINE
  8
QUOTATURA
 10
98.588
 11
98.588
 20
157.675
 21
158.676
  0
LINE
  8
QUOTATURA
 10
38.688
 11
117.974
 20
120.145
 21
120.145
  0
LINE
  8
QUOTATURA
 10
94.252
 11
117.974
 20
148.145
 21
148.145
  0
LINE
  8
QUOTATURA
 10
116.474
 11
116.474
 20
120.145
 21
134.917
  0
LINE
  8
QUOTATURA
 10
116.474
 11
116.474
 20
139.455
 21
148.145
  0
LINE
  8
QUOTATURA
 10
116.974
 11
116.474
 20
123.145
 21
120.145
  0
LINE
  8
QUOTATURA
 10
116.474
 11
115.974
 20
120.145
 21
123.145
  0
LINE
  8
QUOTATURA
 10
115.974
 11
116.974
 20
123.145
 21
123.145
  0
LINE
  8
QUOTATURA
 10
115.974
 11
116.474
 20
145.145
 21
148.145
  0
LINE
  8
QUOTATURA
 10
116.474
 11
116.974
 20
148.145
 21
145.145
  0
LINE
  8
QUOTATURA
 10
116.974
 11
115.974
 20
145.145
 21
145.145
  0
LINE
  8
QUOTATURA
 10
92.752
 11
92.752
 20
138.805
 21
139.805
  0
LINE
  8
QUOTATURA
 10
92.252
 11
93.252
 20
139.305
 21
139.305
  0
LINE
  8
QUOTATURA
 10
92.752
 11
108.653
 20
139.305
 21
154.035
  0
LINE
  8
QUOTATURA
 10
108.653
 11
112.42
 20
154.035
 21
154.035
  0
LINE
  8
QUOTATURA
 10
96.698
 11
99.239
 20
143.642
 21
145.314
  0
LINE
  8
QUOTATURA
 10
99.239
 11
97.378
 20
145.314
 21
142.908
  0
LINE
  8
QUOTATURA
 10
97.378
 11
96.698
 20
142.908
 21
143.642
  0
LINE
  8
QUOTATURA
 10
39.735
 11
39.735
 20
137.929
 21
138.929
  0
LINE
  8
QUOTATURA
 10
39.235
 11
40.236
 20
138.429
 21
138.429
  0
LINE
  8
QUOTATURA
 10
39.735
 11
35.226
 20
138.429
 21
148.473
  0
LINE
  8
QUOTATURA
 10
35.226
 11
24.74
 20
148.473
 21
148.473
  0
LINE
  8
QUOTATURA
 10
36.626
 11
37.398
 20
146.576
 21
143.635
  0
LINE
  8
QUOTATURA
 10
37.398
 11
35.713
 20
143.635
 21
146.167
  0
LINE
  8
QUOTATURA
 10
35.713
 11
36.626
 20
146.167
 21
146.576
  0
LINE
  8
QUOTATURA
 10
23.986
 11
23.986
 20
137.736
 21
137.736
  0
LINE
  8
QUOTATURA
 10
33.188
 11
27.936
 20
137.736
 21
137.736
  0
LINE
  8
QUOTATURA
 10
23.986
 11
23.986
 20
137.736
 21
137.736
  0
LINE
  8
QUOTATURA
 10
36.08
 11
34.312
 20
134.795
 21
137.27
  0
LINE
  8
QUOTATURA
 10
34.312
 11
36.787
 20
137.27
 21
135.502
  0
LINE
  8
QUOTATURA
 10
36.787
 11
36.08
 20
135.502
 21
134.795
  0
LINE
  8
QUOTATURA
 10
30.188
 11
33.188
 20
138.236
 21
137.736
  0
LINE
  8
QUOTATURA
 10
33.188
 11
30.188
 20
137.736
 21
137.236
  0
LINE
  8
QUOTATURA
 10
30.188
 11
30.188
 20
137.236
 21
138.236
  0
ARC
  8
QUOTATURA
 10
33.188
 20
136.145
 40
1.591
 50
45.0
 51
90.0
  0
LINE
  8
QUOTATURA
 10
34.312
 11
38.555
 20
137.27
 21
133.027
  0
LINE
  8
QUOTATURA
 10
35.688
 11
23.075
 20
132.145
 21
132.145
  0
LINE
  8
QUOTATURA
 10
35.688
 11
23.075
 20
120.145
 21
120.145
  0
LINE
  8
QUOTATURA
 10
24.575
 11
24.575
 20
132.145
 21
128.404
  0
LINE
  8
QUOTATURA
 10
24.575
 11
24.575
 20
123.895
 21
120.145
  0
LINE
  8
QUOTATURA
 10
24.075
 11
24.575
 20
129.145
 21
132.145
  0
LINE
  8
QUOTATURA
 10
24.575
 11
25.075
 20
132.145
 21
129.145
  0
LINE
  8
QUOTATURA
 10
25.075
 11
24.075
 20
129.145
 21
129.145
  0
LINE
  8
QUOTATURA
 10
25.075
 11
24.575
 20
123.145
 21
120.145
  0
LINE
  8
QUOTATURA
 10
24.575
 11
24.075
 20
120.145
 21
123.145
  0
LINE
  8
QUOTATURA
 10
24.075
 11
25.075
 20
123.145
 21
123.145
  0
LINE
  8
QUOTATURA
 10
41.096
 11
41.096
 20
132.145
 21
128.069
  0
LINE
  8
QUOTATURA
 10
41.096
 11
42.032
 20
128.069
 21
128.069
  0
LINE
  8
QUOTATURA
 10
40.596
 11
41.096
 20
129.145
 21
132.145
  0
LINE
  8
QUOTATURA
 10
41.096
 11
41.597
 20
132.145
 21
129.145
  0
LINE
  8
QUOTATURA
 10
41.597
 11
40.596
 20
129.145
 21
129.145
  0
LINE
  8
QUOTATURA
 10
41.096
 11
41.096
 20
135.145
 21
141.145
  0
LINE
  8
QUOTATURA
 10
41.597
 11
41.096
 20
138.145
 21
135.145
  0
LINE
  8
QUOTATURA
 10
41.096
 11
40.596
 20
135.145
 21
138.145
  0
LINE
  8
QUOTATURA
 10
40.596
 11
41.597
 20
138.145
 21
138.145
  0
LINE
  8
QUOTATURA
 10
58.104
 11
58.104
 20
132.645
 21
130.01
  0
LINE
  8
QUOTATURA
 10
58.104
 11
58.104
 20
127.75
 21
127.75
  0
LINE
  8
QUOTATURA
 10
57.604
 11
58.104
 20
129.645
 21
132.645
  0
LINE
  8
QUOTATURA
 10
58.104
 11
58.604
 20
132.645
 21
129.645
  0
LINE
  8
QUOTATURA
 10
58.604
 11
57.604
 20
129.645
 21
129.645
  0
LINE
  8
QUOTATURA
 10
58.104
 11
58.104
 20
135.145
 21
141.145
  0
LINE
  8
QUOTATURA
 10
58.604
 11
58.104
 20
138.145
 21
135.145
  0
LINE
  8
QUOTATURA
 10
58.104
 11
57.604
 20
135.145
 21
138.145
  0
LINE
  8
QUOTATURA
 10
57.604
 11
58.604
 20
138.145
 21
138.145
  0
LINE
  8
QUOTATURA
 10
97.688
 11
106.911
 20
135.145
 21
135.145
  0
LINE
  8
QUOTATURA
 10
97.688
 11
106.911
 20
131.645
 21
131.645
  0
LINE
  8
QUOTATURA
 10
105.411
 11
105.411
 20
131.645
 21
126.986
  0
LINE
  8
QUOTATURA
 10
105.411
 11
105.411
 20
124.726
 21
124.726
  0
LINE
  8
QUOTATURA
 10
104.91
 11
105.411
 20
128.645
 21
131.645
  0
LINE
  8
QUOTATURA
 10
105.411
 11
105.911
 20
131.645
 21
128.645
  0
LINE
  8
QUOTATURA
 10
105.911
 11
104.91
 20
128.645
 21
128.645
  0
LINE
  8
QUOTATURA
 10
105.411
 11
105.411
 20
135.145
 21
141.145
  0
LINE
  8
QUOTATURA
 10
105.911
 11
105.411
 20
138.145
 21
135.145
  0
LINE
  8
QUOTATURA
 10
105.411
 11
104.91
 20
135.145
 21
138.145
  0
LINE
  8
QUOTATURA
 10
104.91
 11
105.911
 20
138.145
 21
138.145
  0
LINE
  8
QUOTATURA
 10
86.588
 11
86.588
 20
147.145
 21
150.303
  0
LINE
  8
QUOTATURA
 10
83.588
 11
83.588
 20
147.145
 21
150.303
  0
LINE
  8
QUOTATURA
 10
83.588
 11
80.033
 20
148.803
 21
148.803
  0
LINE
  8
QUOTATURA
 10
80.588
 11
83.588
 20
149.303
 21
148.803
  0
LINE
  8
QUOTATURA
 10
83.588
 11
80.588
 20
148.803
 21
148.303
  0
LINE
  8
QUOTATURA
 10
80.588
 11
80.588
 20
148.303
 21
149.303
  0
LINE
  8
QUOTATURA
 10
86.588
 11
92.588
 20
148.803
 21
148.803
  0
LINE
  8
QUOTATURA
 10
89.588
 11
86.588
 20
148.303
 21
148.803
  0
LINE
  8
QUOTATURA
 10
86.588
 11
89.588
 20
148.803
 21
149.303
  0
LINE
  8
QUOTATURA
 10
89.588
 11
89.588
 20
149.303
 21
148.303
  0
LINE
  8
QUOTATURA
 10
41.188
 11
46.998
 20
133.072
 21
133.072
  0
LINE
  8
QUOTATURA
 10
52.377
 11
58.188
 20
133.072
 21
133.072
  0
LINE
  8
QUOTATURA
 10
44.188
 11
41.188
 20
132.572
 21
133.072
  0
LINE
  8
QUOTATURA
 10
41.188
 11
44.188
 20
133.072
 21
133.572
  0
LINE
  8
QUOTATURA
 10
44.188
 11
44.188
 20
133.572
 21
132.572
  0
LINE
  8
QUOTATURA
 10
55.188
 11
58.188
 20
133.572
 21
133.072
  0
LINE
  8
QUOTATURA
 10
58.188
 11
55.188
 20
133.072
 21
132.572
  0
LINE
  8
QUOTATURA
 10
55.188
 11
55.188
 20
132.572
 21
133.572
  0
LINE
  8
QUOTATURA
 10
61.688
 11
65.828
 20
133.072
 21
133.072
  0
LINE
  8
QUOTATURA
 10
71.547
 11
75.688
 20
133.072
 21
133.072
  0
LINE
  8
QUOTATURA
 10
64.688
 11
61.688
 20
132.572
 21
133.072
  0
LINE
  8
QUOTATURA
 10
61.688
 11
64.688
 20
133.072
 21
133.572
  0
LINE
  8
QUOTATURA
 10
64.688
 11
64.688
 20
133.572
 21
132.572
  0
LINE
  8
QUOTATURA
 10
72.688
 11
75.688
 20
133.572
 21
133.072
  0
LINE
  8
QUOTATURA
 10
75.688
 11
72.688
 20
133.072
 21
132.572
  0
LINE
  8
QUOTATURA
 10
72.688
 11
72.688
 20
132.572
 21
133.572
  0
LINE
  8
QUOTATURA
 10
79.188
 11
86.731
 20
133.035
 21
133.035
  0
LINE
  8
QUOTATURA
 10
92.11
 11
96.188
 20
133.035
 21
133.035
  0
LINE
  8
QUOTATURA
 10
82.188
 11
79.188
 20
132.535
 21
133.035
  0
LINE
  8
QUOTATURA
 10
79.188
 11
82.188
 20
133.035
 21
133.535
  0
LINE
  8
QUOTATURA
 10
82.188
 11
82.188
 20
133.535
 21
132.535
  0
LINE
  8
QUOTATURA
 10
93.188
 11
96.188
 20
133.535
 21
133.035
  0
LINE
  8
QUOTATURA
 10
96.188
 11
93.188
 20
133.035
 21
132.535
  0
LINE
  8
QUOTATURA
 10
93.188
 11
93.188
 20
132.535
 21
133.535
  0
LINE
  8
QUOTATURA
 10
75.688
 11
75.688
 20
133.645
 21
127.457
  0
LINE
  8
QUOTATURA
 10
79.188
 11
79.188
 20
133.645
 21
127.457
  0
LINE
  8
QUOTATURA
 10
79.188
 11
80.814
 20
128.957
 21
128.957
  0
LINE
  8
QUOTATURA
 10
82.188
 11
79.188
 20
128.457
 21
128.957
  0
LINE
  8
QUOTATURA
 10
79.188
 11
82.188
 20
128.957
 21
129.457
  0
LINE
  8
QUOTATURA
 10
82.188
 11
82.188
 20
129.457
 21
128.457
  0
LINE
  8
QUOTATURA
 10
75.688
 11
69.688
 20
128.957
 21
128.957
  0
LINE
  8
QUOTATURA
 10
72.688
 11
75.688
 20
129.457
 21
128.957
  0
LINE
  8
QUOTATURA
 10
75.688
 11
72.688
 20
128.957
 21
128.457
  0
LINE
  8
QUOTATURA
 10
72.688
 11
72.688
 20
128.457
 21
129.457
  0
LINE
  8
QUOTATURA
 10
33.188
 11
33.188
 20
118.645
 21
109.972
  0
LINE
  8
QUOTATURA
 10
37.188
 11
37.188
 20
118.645
 21
109.972
  0
LINE
  8
QUOTATURA
 10
33.188
 11
28.933
 20
111.472
 21
111.472
  0
LINE
  8
QUOTATURA
 10
30.188
 11
33.188
 20
111.973
 21
111.472
  0
LINE
  8
QUOTATURA
 10
33.188
 11
30.188
 20
111.472
 21
110.972
  0
LINE
  8
QUOTATURA
 10
30.188
 11
30.188
 20
110.972
 21
111.973
  0
LINE
  8
QUOTATURA
 10
37.188
 11
43.188
 20
111.472
 21
111.472
  0
LINE
  8
QUOTATURA
 10
40.188
 11
37.188
 20
110.972
 21
111.472
  0
LINE
  8
QUOTATURA
 10
37.188
 11
40.188
 20
111.472
 21
111.973
  0
LINE
  8
QUOTATURA
 10
40.188
 11
40.188
 20
111.973
 21
110.972
  0
LINE
  8
QUOTATURA
 10
37.188
 11
37.188
 20
130.645
 21
121.923
  0
LINE
  8
QUOTATURA
 10
41.188
 11
41.188
 20
130.645
 21
121.923
  0
LINE
  8
QUOTATURA
 10
41.188
 11
45.404
 20
123.423
 21
123.423
  0
LINE
  8
QUOTATURA
 10
44.188
 11
41.188
 20
122.923
 21
123.423
  0
LINE
  8
QUOTATURA
 10
41.188
 11
44.188
 20
123.423
 21
123.923
  0
LINE
  8
QUOTATURA
 10
44.188
 11
44.188
 20
123.923
 21
122.923
  0
LINE
  8
QUOTATURA
 10
37.188
 11
31.188
 20
123.423
 21
123.423
  0
LINE
  8
QUOTATURA
 10
34.188
 11
37.188
 20
123.923
 21
123.423
  0
LINE
  8
QUOTATURA
 10
37.188
 11
34.188
 20
123.423
 21
122.923
  0
LINE
  8
QUOTATURA
 10
34.188
 11
34.188
 20
122.923
 21
123.923
  0
LINE
  8
QUOTATURA
 10
101.588
 11
101.588
 20
130.145
 21
121.038
  0
LINE
  8
QUOTATURA
 10
96.188
 11
96.188
 20
130.145
 21
121.038
  0
LINE
  8
QUOTATURA
 10
96.188
 11
92.812
 20
122.538
 21
122.538
  0
LINE
  8
QUOTATURA
 10
93.188
 11
96.188
 20
123.038
 21
122.538
  0
LINE
  8
QUOTATURA
 10
96.188
 11
93.188
 20
122.538
 21
122.038
  0
LINE
  8
QUOTATURA
 10
93.188
 11
93.188
 20
122.038
 21
123.038
  0
LINE
  8
QUOTATURA
 10
101.588
 11
107.588
 20
122.538
 21
122.538
  0
LINE
  8
QUOTATURA
 10
104.588
 11
101.588
 20
122.038
 21
122.538
  0
LINE
  8
QUOTATURA
 10
101.588
 11
104.588
 20
122.538
 21
123.038
  0
LINE
  8
QUOTATURA
 10
104.588
 11
104.588
 20
123.038
 21
122.038
  0
LINE
  8
QUOTATURA
 10
31.688
 11
13.331
 20
136.145
 21
136.145
  0
LINE
  8
QUOTATURA
 10
31.688
 11
13.331
 20
120.145
 21
120.145
  0
LINE
  8
QUOTATURA
 10
14.831
 11
14.831
 20
136.145
 21
128.039
  0
LINE
  8
QUOTATURA
 10
14.831
 11
14.831
 20
123.503
 21
120.145
  0
LINE
  8
QUOTATURA
 10
14.331
 11
14.831
 20
133.145
 21
136.145
  0
LINE
  8
QUOTATURA
 10
14.831
 11
15.331
 20
136.145
 21
133.145
  0
LINE
  8
QUOTATURA
 10
15.331
 11
14.331
 20
133.145
 21
133.145
  0
LINE
  8
QUOTATURA
 10
15.331
 11
14.831
 20
123.145
 21
120.145
  0
LINE
  8
QUOTATURA
 10
14.831
 11
14.331
 20
120.145
 21
123.145
  0
LINE
  8
QUOTATURA
 10
14.331
 11
15.331
 20
123.145
 21
123.145
  0
TEXT
  8
TEXT
 10
264.35
 20
60.8
 30
0.0
 40
5.0
 50
0.0
  1
1
  0
TEXT
  8
TEXT
 10
202.15
 20
60.8
 30
0.0
 40
5.0
 50
0.0
  1
3
  0
TEXT
  8
TEXT
 10
171.05
 20
60.0
 30
0.0
 40
5.0
 50
0.0
  1
4
  0
TEXT
  8
TEXT
 10
139.95
 20
60.8
 30
0.0
 40
5.0
 50
0.0
  1
5
  0
TEXT
  8
TEXT
 10
108.85
 20
60.8
 30
0.0
 40
5.0
 50
0.0
  1
6
  0
TEXT
  8
TEXT
 10
77.75
 20
60.8
 30
0.0
 40
5.0
 50
0.0
  1
7
  0
TEXT
  8
TEXT
 10
46.65
 20
60.8
 30
0.0
 40
5.0
 50
0.0
  1
8
  0
TEXT
  8
TEXT
 10
15.55
 20
60.8
 30
0.0
 40
5.0
 50
0.0
  1
9
  0
TEXT
  8
TEXT
 10
0.0
 20
188.5
 30
0.0
 40
5.0
 50
0.0
  1
 SZ 68.4X28 MM            ART. SCORN-CS-300-28_68.4X28
  0
TEXT
  8
TEXT
 10
233.25
 20
60.8
 30
0.0
 40
5.0
 50
0.0
  1
2
  0
TEXT
  8
TEXT
 10
280.719
 20
69.107
 30
0.0
 40
2.0
 50
-90.0
  1
Toscocornici porte - 0577-685426 - info@toscocornici.it
  0
TEXT
  8
TEXT
 10
277.719
 20
69.107
 30
0.0
 40
2.0
 50
-90.0
  1

  0
TEXT
  8
TEXT
 10
274.719
 20
69.107
 30
0.0
 40
2.0
 50
-90.0
  1

  0
TEXT
  8
TEXT
 10
218.395
 20
9.914
 30
0.0
 40
3.0
 50
0.0
  1
A. 50.3
  0
TEXT
  8
TEXT
 10
218.395
 20
5.414
 30
0.0
 40
3.0
 50
0.0
  1
R. 68.1
  0
TEXT
  8
TEXT
 10
249.495
 20
9.914
 30
0.0
 40
3.0
 50
0.0
  1
A.
  0
TEXT
  8
TEXT
 10
249.495
 20
5.414
 30
0.0
 40
3.0
 50
0.0
  1
R.
  0
TEXT
  8
TEXT
 10
187.295
 20
9.914
 30
0.0
 40
3.0
 50
0.0
  1
A. 37.1
  0
TEXT
  8
TEXT
 10
187.295
 20
5.414
 30
0.0
 40
3.0
 50
0.0
  1
R. 71.1/68.4
  0
TEXT
  8
TEXT
 10
156.195
 20
9.914
 30
0.0
 40
3.0
 50
0.0
  1
A. 12.9
  0
TEXT
  8
TEXT
 10
156.195
 20
5.414
 30
0.0
 40
3.0
 50
0.0
  1
R. 33.3
  0
TEXT
  8
TEXT
 10
125.095
 20
9.914
 30
0.0
 40
3.0
 50
0.0
  1
A. 33.4
  0
TEXT
  8
TEXT
 10
125.095
 20
5.414
 30
0.0
 40
3.0
 50
0.0
  1
R. 67.6/64.1
  0
TEXT
  8
TEXT
 10
93.995
 20
9.914
 30
0.0
 40
3.0
 50
0.0
  1
A. 18.6
  0
TEXT
  8
TEXT
 10
93.995
 20
5.414
 30
0.0
 40
3.0
 50
0.0
  1
R. 66.4/16.4
  0
TEXT
  8
TEXT
 10
62.895
 20
9.914
 30
0.0
 40
3.0
 50
0.0
  1
A. 23
  0
TEXT
  8
TEXT
 10
62.895
 20
5.414
 30
0.0
 40
3.0
 50
0.0
  1
R. 65.2
  0
TEXT
  8
TEXT
 10
31.795
 20
9.914
 30
0.0
 40
3.0
 50
0.0
  1
A.
  0
TEXT
  8
TEXT
 10
31.795
 20
5.414
 30
0.0
 40
3.0
 50
0.0
  1
R.
  0
TEXT
  8
TEXT
 10
0.695
 20
9.914
 30
0.0
 40
3.0
 50
0.0
  1
A. 29.8
  0
TEXT
  8
TEXT
 10
0.695
 20
5.414
 30
0.0
 40
3.0
 50
0.0
  1
R. 66.2
  0
TEXT
  8
TEXT
 10
164.488
 20
109.564
 30
0.0
 40
4.5
 50
0.0
  1
ANNOTAZIONI: COLTELLINI FRESA 
  0
TEXT
  8
TEXT
 10
164.488
 20
103.264
 30
0.0
 40
4.5
 50
0.0
  1
N.1034 MAT. N. 1611030700-C
  0
TEXT
  8
TEXT
 10
164.488
 20
96.964
 30
0.0
 40
4.5
 50
0.0
  1
PRESSORE FERRO CON FELTRO DOPO 
  0
TEXT
  8
TEXT
 10
164.488
 20
90.664
 30
0.0
 40
4.5
 50
0.0
  1
ALB 6
  0
TEXT
  8
TEXT
 10
164.488
 20
84.364
 30
0.0
 40
4.5
 50
0.0
  1
PRESSORE LEGNO CON FELTRO DOPO 
  0
TEXT
  8
TEXT
 10
164.488
 20
78.064
 30
0.0
 40
4.5
 50
0.0
  1
ALB 8
  0
TEXT
  8
TEXT
 10
164.488
 20
71.764
 30
0.0
 40
4.5
 50
0.0
  1
DIETRO RUOTE MM 15
  0
TEXT
  8
TEXT
 10
218.907
 20
53.68
 30
0.0
 40
3.0
 50
0.0
  1
MM 25 + RID
  0
TEXT
  8
TEXT
 10
218.907
 20
49.18
 30
0.0
 40
3.0
 50
0.0
  1
N.1039
  0
TEXT
  8
TEXT
 10
218.907
 20
44.68
 30
0.0
 40
3.0
 50
0.0
  1
(COLT. 
  0
TEXT
  8
TEXT
 10
218.907
 20
40.18
 30
0.0
 40
3.0
 50
0.0
  1
SCAT 45)
  0
TEXT
  8
TEXT
 10
218.907
 20
35.68
 30
0.0
 40
3.0
 50
0.0
  1
MAT. N.
  0
TEXT
  8
TEXT
 10
218.907
 20
31.18
 30
0.0
 40
3.0
 50
0.0
  1
1611030600-C
  0
TEXT
  8
TEXT
 10
188.183
 20
53.114
 30
0.0
 40
3.0
 50
0.0
  1
MM 25 + RID
  0
TEXT
  8
TEXT
 10
188.183
 20
48.614
 30
0.0
 40
3.0
 50
0.0
  1
N.1039A
  0
TEXT
  8
TEXT
 10
157.585
 20
52.298
 30
0.0
 40
3.0
 50
0.0
  1
MM 36 + RID
  0
TEXT
  8
TEXT
 10
157.585
 20
47.798
 30
0.0
 40
3.0
 50
0.0
  1
N.135
  0
TEXT
  8
TEXT
 10
126.069
 20
52.094
 30
0.0
 40
3.0
 50
0.0
  1
MM 50 + RID
  0
TEXT
  8
TEXT
 10
126.069
 20
47.594
 30
0.0
 40
3.0
 50
0.0
  1
N.26
  0
TEXT
  8
TEXT
 10
94.466
 20
51.953
 30
0.0
 40
3.0
 50
0.0
  1
MM 16
  0
TEXT
  8
TEXT
 10
94.466
 20
47.453
 30
0.0
 40
3.0
 50
0.0
  1
(RID
  0
TEXT
  8
TEXT
 10
94.466
 20
42.953
 30
0.0
 40
3.0
 50
0.0
  1
CILINDRICA)
  0
TEXT
  8
TEXT
 10
94.466
 20
38.453
 30
0.0
 40
3.0
 50
0.0
  1
N.1034
  0
TEXT
  8
TEXT
 10
94.466
 20
33.953
 30
0.0
 40
3.0
 50
0.0
  1
COLT SCAT 45
  0
TEXT
  8
TEXT
 10
63.648
 20
51.686
 30
0.0
 40
3.0
 50
0.0
  1
MM 16 + RID
  0
TEXT
  8
TEXT
 10
63.648
 20
47.186
 30
0.0
 40
3.0
 50
0.0
  1
N.1038
  0
TEXT
  8
TEXT
 10
221.342
 20
181.789
 30
0.0
 40
3.0
 50
0.0
  1
MISURE
  0
TEXT
  8
TEXT
 10
221.342
 20
177.289
 30
0.0
 40
3.0
 50
0.0
  1
MAGG.
  0
TEXT
  8
QUOTATURA
 10
62.733
 20
156.676
 30
0.0
 40
3.0
 50
0.0
  1
68.4
  0
TEXT
  8
QUOTATURA
 10
114.078
 20
135.695
 30
0.0
 40
3.0
 50
0.0
  1
28
  0
TEXT
  8
QUOTATURA
 10
113.17
 20
152.535
 30
0.0
 40
3.0
 50
0.0
  1
R8.842
  0
TEXT
  8
QUOTATURA
 10
9.359
 20
146.973
 30
0.0
 40
3.0
 50
0.0
  1
R5.706
  0
TEXT
  8
QUOTATURA
 10
20.697
 20
136.236
 30
0.0
 40
3.0
 50
0.0
  1
45°
  0
TEXT
  8
QUOTATURA
 10
22.76
 20
124.645
 30
0.0
 40
3.0
 50
0.0
  1
12
  0
TEXT
  8
QUOTATURA
 10
42.701
 20
126.569
 30
0.0
 40
3.0
 50
0.0
  1
3
  0
TEXT
  8
QUOTATURA
 10
52.351
 20
126.25
 30
0.0
 40
3.0
 50
0.0
  1
2.5
  0
TEXT
  8
QUOTATURA
 10
105.115
 20
123.226
 30
0.0
 40
3.0
 50
0.0
  1
3.5
  0
TEXT
  8
QUOTATURA
 10
77.045
 20
147.303
 30
0.0
 40
3.0
 50
0.0
  1
3
  0
TEXT
  8
QUOTATURA
 10
47.748
 20
131.572
 30
0.0
 40
3.0
 50
0.0
  1
17
  0
TEXT
  8
QUOTATURA
 10
66.578
 20
131.572
 30
0.0
 40
3.0
 50
0.0
  1
14
  0
TEXT
  8
QUOTATURA
 10
87.481
 20
131.535
 30
0.0
 40
3.0
 50
0.0
  1
17
  0
TEXT
  8
QUOTATURA
 10
81.484
 20
127.457
 30
0.0
 40
3.0
 50
0.0
  1
3.5
  0
TEXT
  8
QUOTATURA
 10
25.593
 20
109.972
 30
0.0
 40
3.0
 50
0.0
  1
4
  0
TEXT
  8
QUOTATURA
 10
46.064
 20
121.923
 30
0.0
 40
3.0
 50
0.0
  1
4
  0
TEXT
  8
QUOTATURA
 10
85.505
 20
121.038
 30
0.0
 40
3.0
 50
0.0
  1
5.4
  0
TEXT
  8
QUOTATURA
 10
12.942
 20
124.285
 30
0.0
 40
3.0
 50
0.0
  1
16
  0
TEXT
  8
TEXT
 10
139.127
 20
181.301
 30
0.0
 40
3.0
 50
0.0
  1
05/2017
  0
TEXT
  8
TEXT
 10
139.127
 20
176.801
 30
0.0
 40
3.0
 50
0.0
  1

  0
TEXT
  8
TEXT
 10
1.513
 20
51.394
 30
0.0
 40
3.0
 50
0.0
  1
MM 0 + RID
  0
TEXT
  8
TEXT
 10
1.513
 20
46.894
 30
0.0
 40
3.0
 50
0.0
  1
N.270
  0
TEXT
  8
TEXT
 10
1.513
 20
42.394
 30
0.0
 40
3.0
 50
0.0
  1

  0
ENDSEC
  0
EOF
