  0
SECTION
  2
ENTITIES
  0
ARC
  8
0
 10
82.721358
 20
22.100416
 40
125.0
 50
69.99078
 51
77.332817
  0
LINE
  8
APS_GEOMETRY
 10
37.466258
 11
37.466258
 20
136.549323
 21
127.600465
  0
LINE
  8
APS_GEOMETRY
 10
37.466258
 11
37.966258
 20
127.600465
 21
127.100465
  0
LINE
  8
APS_GEOMETRY
 10
37.966258
 11
48.466258
 20
127.100465
 21
127.100465
  0
LINE
  8
APS_GEOMETRY
 10
48.466258
 11
48.466258
 20
127.100465
 21
130.100465
  0
LINE
  8
APS_GEOMETRY
 10
48.466258
 11
69.966258
 20
130.100465
 21
130.100465
  0
LINE
  8
APS_GEOMETRY
 10
69.966258
 11
69.966258
 20
130.100465
 21
127.100465
  0
LINE
  8
APS_GEOMETRY
 10
69.966258
 11
73.466258
 20
127.100465
 21
127.100465
  0
LINE
  8
APS_GEOMETRY
 10
73.466258
 11
73.466258
 20
127.100465
 21
130.100465
  0
LINE
  8
APS_GEOMETRY
 10
73.466258
 11
93.966259
 20
130.100465
 21
130.100465
  0
LINE
  8
APS_GEOMETRY
 10
93.966259
 11
93.966259
 20
130.100465
 21
127.100465
  0
LINE
  8
APS_GEOMETRY
 10
93.966259
 11
97.466259
 20
127.100465
 21
127.100465
  0
LINE
  8
APS_GEOMETRY
 10
97.466259
 11
97.466259
 20
127.100465
 21
130.100465
  0
LINE
  8
APS_GEOMETRY
 10
97.466259
 11
118.966259
 20
130.100465
 21
130.100465
  0
LINE
  8
APS_GEOMETRY
 10
118.966259
 11
118.966259
 20
130.100465
 21
127.100465
  0
LINE
  8
APS_GEOMETRY
 10
118.966259
 11
123.466258
 20
127.100465
 21
127.100465
  0
LINE
  8
APS_GEOMETRY
 10
123.466258
 11
123.466258
 20
127.100465
 21
116.600465
  0
LINE
  8
APS_GEOMETRY
 10
123.466258
 11
124.439943
 20
116.600465
 21
115.626781
  0
LINE
  8
APS_GEOMETRY
 10
124.439943
 11
127.466258
 20
115.626781
 21
115.100465
  0
LINE
  8
APS_GEOMETRY
 10
127.466258
 11
127.466258
 20
115.100465
 21
136.736404
  0
LINE
  8
0
 10
127.466258
 11
127.466258
 20
127.100465
 21
136.736201
  0
ARC
  8
0
 10
124.466258
 20
136.736201
 40
3.0
 50
360.0
 51
69.990782
  0
ARC
  8
0
 10
82.721358
 20
22.100416
 40
125.0
 50
69.990782
 51
77.332817
  0
ARC
  8
0
 10
82.721358
 20
22.100416
 40
125.0
 50
80.167183
 51
88.582817
  0
ARC
  8
0
 10
82.721358
 20
22.100416
 40
125.0
 50
91.417183
 51
99.832817
  0
ARC
  8
0
 10
82.721358
 20
22.100416
 40
125.0
 50
102.667183
 51
110.264427
  0
ARC
  8
0
 10
40.466258
 20
136.549123
 40
3.0
 50
110.264427
 51
180.0
  0
LINE
  8
0
 10
37.466258
 11
37.466258
 20
136.549123
 21
127.600465
  0
ARC
  8
APS_GEOMETRY
 10
82.721358
 20
22.100416
 40
125.0
 50
69.990781
 51
90.0
  0
ARC
  8
APS_GEOMETRY
 10
82.721358
 20
22.100416
 40
125.0
 50
102.667183
 51
110.264427
  0
ARC
  8
APS_GEOMETRY
 10
82.721358
 20
22.100416
 40
125.0
 50
90.0
 51
102.667183
  0
ENDSEC
  0
EOF
