  0
SECTION
  2
ENTITIES
  0
LINE
  8
APS_GEOMETRY
 10
0.0
 11
280.0
 20
0.0
 21
0.0
  0
LINE
  8
APS_GEOMETRY
 10
280.0
 11
280.0
 20
0.0
 21
200.0
  0
LINE
  8
APS_GEOMETRY
 10
280.0
 11
0.0
 20
200.0
 21
200.0
  0
LINE
  8
APS_GEOMETRY
 10
0.0
 11
0.0
 20
200.0
 21
0.0
  0
LINE
  8
APS_GEOMETRY
 10
47.404086
 11
47.404086
 20
107.580691
 21
123.796208
  0
ARC
  8
APS_GEOMETRY
 10
50.404086
 20
123.796208
 40
3.0
 50
117.762272
 51
180.0
  0
ARC
  8
APS_GEOMETRY
 10
81.904086
 20
63.955665
 40
70.625
 50
107.4897
 51
117.762272
  0
ARC
  8
APS_GEOMETRY
 10
62.977944
 20
134.588991
 40
4.0
 50
234.916211
 51
335.083789
  0
ARC
  8
APS_GEOMETRY
 10
81.904086
 20
63.955665
 40
70.625
 50
92.4897
 51
102.5103
  0
ARC
  8
APS_GEOMETRY
 10
81.904086
 20
137.080665
 40
4.0
 50
219.916211
 51
320.083789
  0
ARC
  8
APS_GEOMETRY
 10
81.904086
 20
63.955665
 40
70.625
 50
77.4897
 51
87.5103
  0
ARC
  8
APS_GEOMETRY
 10
100.830229
 20
134.588991
 40
4.0
 50
204.916211
 51
305.083789
  0
ARC
  8
APS_GEOMETRY
 10
81.904086
 20
63.955665
 40
70.625
 50
62.237728
 51
72.5103
  0
ARC
  8
APS_GEOMETRY
 10
113.404086
 20
123.796208
 40
3.0
 50
0.0
 51
62.237728
  0
LINE
  8
APS_GEOMETRY
 10
116.404086
 11
116.404086
 20
123.796208
 21
119.580691
  0
LINE
  8
APS_GEOMETRY
 10
47.404086
 11
49.904086
 20
107.580691
 21
107.580691
  0
LINE
  8
APS_GEOMETRY
 10
49.904086
 11
51.404086
 20
107.580691
 21
109.080691
  0
LINE
  8
APS_GEOMETRY
 10
51.404086
 11
51.404086
 20
109.080691
 21
119.580691
  0
LINE
  8
APS_GEOMETRY
 10
51.404086
 11
55.904086
 20
119.580691
 21
119.580691
  0
LINE
  8
APS_GEOMETRY
 10
55.904086
 11
55.904086
 20
119.580691
 21
122.580691
  0
LINE
  8
APS_GEOMETRY
 10
55.904086
 11
110.404086
 20
122.580691
 21
122.580691
  0
LINE
  8
APS_GEOMETRY
 10
110.404086
 11
110.404086
 20
122.580691
 21
119.580691
  0
LINE
  8
APS_GEOMETRY
 10
110.404086
 11
116.404086
 20
119.580691
 21
119.580691
  0
LINE
  8
APS_GEOMETRY
 10
116.404086
 11
116.404086
 20
119.580691
 21
123.796208
  0
ENDSEC
  0
EOF
