  0
SECTION
  2
ENTITIES
  0
LINE
  8
APS_GEOMETRY
 10
0.0
 11
280.0
 20
0.0
 21
0.0
  0
LINE
  8
APS_GEOMETRY
 10
280.0
 11
280.0
 20
0.0
 21
200.0
  0
LINE
  8
APS_GEOMETRY
 10
280.0
 11
0.0
 20
200.0
 21
200.0
  0
LINE
  8
APS_GEOMETRY
 10
0.0
 11
0.0
 20
200.0
 21
0.0
  0
ARC
  8
APS_GEOMETRY
 10
127.921906
 20
128.143354
 40
2.0
 50
0.0
 51
90.0
  0
LINE
  8
APS_GEOMETRY
 10
127.921906
 11
102.66695
 20
130.143354
 21
130.143354
  0
ARC
  8
APS_GEOMETRY
 10
102.66695
 20
290.143354
 40
160.0
 50
250.011129
 51
270.0
  0
ARC
  8
APS_GEOMETRY
 10
45.921906
 20
134.143354
 40
6.0
 50
70.011129
 51
180.0
  0
LINE
  8
APS_GEOMETRY
 10
39.921906
 11
39.921906
 20
134.143354
 21
120.643354
  0
LINE
  8
APS_GEOMETRY
 10
39.921906
 11
40.421906
 20
120.643354
 21
120.143354
  0
LINE
  8
APS_GEOMETRY
 10
40.421906
 11
50.921906
 20
120.143354
 21
120.143354
  0
LINE
  8
APS_GEOMETRY
 10
50.921906
 11
50.921906
 20
120.143354
 21
123.143354
  0
LINE
  8
APS_GEOMETRY
 10
50.921906
 11
72.421906
 20
123.143354
 21
123.143354
  0
LINE
  8
APS_GEOMETRY
 10
72.421906
 11
72.421906
 20
123.143354
 21
120.143354
  0
LINE
  8
APS_GEOMETRY
 10
72.421906
 11
75.921906
 20
120.143354
 21
120.143354
  0
LINE
  8
APS_GEOMETRY
 10
75.921906
 11
75.921906
 20
120.143354
 21
123.143354
  0
LINE
  8
APS_GEOMETRY
 10
75.921906
 11
96.421906
 20
123.143354
 21
123.143354
  0
LINE
  8
APS_GEOMETRY
 10
96.421906
 11
96.421906
 20
123.143354
 21
120.143354
  0
LINE
  8
APS_GEOMETRY
 10
96.421906
 11
99.921906
 20
120.143354
 21
120.143354
  0
LINE
  8
APS_GEOMETRY
 10
99.921906
 11
99.921906
 20
120.143354
 21
123.143354
  0
LINE
  8
APS_GEOMETRY
 10
99.921906
 11
121.421906
 20
123.143354
 21
123.143354
  0
LINE
  8
APS_GEOMETRY
 10
121.421906
 11
121.421906
 20
123.143354
 21
120.143354
  0
LINE
  8
APS_GEOMETRY
 10
121.421906
 11
125.921906
 20
120.143354
 21
120.143354
  0
LINE
  8
APS_GEOMETRY
 10
125.921906
 11
125.921906
 20
120.143354
 21
109.643354
  0
LINE
  8
APS_GEOMETRY
 10
125.921906
 11
126.89559
 20
109.643354
 21
108.66967
  0
LINE
  8
APS_GEOMETRY
 10
126.89559
 11
129.921906
 20
108.66967
 21
108.143354
  0
LINE
  8
APS_GEOMETRY
 10
129.921906
 11
129.921906
 20
108.143354
 21
128.143354
  0
ENDSEC
  0
EOF
