  0
SECTION
  2
ENTITIES
  0
LINE
  8
COSTRUZIONI
 10
-684.469
 11
1315.531
 20
-592.933
 21
-592.933
  0
LINE
  8
COSTRUZIONI
 10
1315.531
 11
1315.531
 20
-592.933
 21
-392.933
  0
LINE
  8
COSTRUZIONI
 10
1315.531
 11
-684.469
 20
-392.933
 21
-392.933
  0
LINE
  8
COSTRUZIONI
 10
-684.469
 11
-684.469
 20
-392.933
 21
-592.933
  0
LINE
  8
COSTRUZIONI
 10
315.531
 11
315.531
 20
-592.933
 21
-392.933
  0
LINE
  8
COSTRUZIONI
 10
315.531
 11
1315.531
 20
-492.933
 21
-492.933
  0
LINE
  8
COSTRUZIONI
 10
815.531
 11
815.531
 20
-592.933
 21
-392.933
  0
LINE
  8
APS_GEOMETRY
 10
-621.784
 11
-604.549
 20
-446.918
 21
-446.918
  0
ARC
  8
APS_GEOMETRY
 10
-605.421
 20
-422.223
 40
24.711
 50
272.021
 51
278.44
  0
ARC
  8
APS_GEOMETRY
 10
-604.448
 20
-428.778
 40
18.083
 50
278.44
 51
285.945
  0
ARC
  8
APS_GEOMETRY
 10
-597.131
 20
-454.976
 40
9.118
 50
98.584
 51
104.931
  0
ARC
  8
APS_GEOMETRY
 10
-597.747
 20
-450.895
 40
4.991
 50
90.0
 51
98.584
  0
ARC
  8
APS_GEOMETRY
 10
-597.747
 20
-449.656
 40
3.752
 50
52.871
 51
90.0
  0
ARC
  8
APS_GEOMETRY
 10
-602.835
 20
-456.377
 40
12.182
 50
32.518
 51
52.871
  0
ARC
  8
APS_GEOMETRY
 10
-606.866
 20
-458.947
 40
16.963
 50
17.209
 51
32.518
  0
ARC
  8
APS_GEOMETRY
 10
-603.507
 20
-457.907
 40
13.445
 50
360.0
 51
17.209
  0
ARC
  8
APS_GEOMETRY
 10
-596.779
 20
-457.907
 40
6.717
 50
337.348
 51
360.0
  0
ARC
  8
APS_GEOMETRY
 10
-594.079
 20
-459.033
 40
3.792
 50
307.042
 51
337.348
  0
ARC
  8
APS_GEOMETRY
 10
-594.548
 20
-458.389
 40
4.589
 50
287.186
 51
306.87
  0
ARC
  8
APS_GEOMETRY
 10
-594.967
 20
-457.035
 40
6.006
 50
270.0
 51
287.186
  0
ARC
  8
APS_GEOMETRY
 10
-594.967
 20
-457.647
 40
5.393
 50
252.221
 51
270.0
  0
ARC
  8
APS_GEOMETRY
 10
-595.218
 20
-458.431
 40
4.571
 50
232.896
 51
252.221
  0
ARC
  8
APS_GEOMETRY
 10
-594.247
 20
-457.147
 40
6.18
 50
218.3
 51
232.896
  0
ARC
  8
APS_GEOMETRY
 10
-586.667
 20
-451.161
 40
15.839
 50
209.197
 51
218.3
  0
ARC
  8
APS_GEOMETRY
 10
-625.221
 20
-472.049
 40
28.012
 50
28.025
 51
32.699
  0
ARC
  8
APS_GEOMETRY
 10
-605.065
 20
-459.109
 40
4.06
 50
32.699
 51
45.0
  0
ARC
  8
APS_GEOMETRY
 10
-603.691
 20
-457.735
 40
2.116
 50
45.0
 51
67.557
  0
ARC
  8
APS_GEOMETRY
 10
-603.699
 20
-457.755
 40
2.137
 50
67.557
 51
90.0
  0
ARC
  8
APS_GEOMETRY
 10
-603.699
 20
-457.586
 40
1.969
 50
90.0
 51
120.801
  0
ARC
  8
APS_GEOMETRY
 10
-603.765
 20
-457.474
 40
1.839
 50
120.801
 51
152.7
  0
ARC
  8
APS_GEOMETRY
 10
-602.306
 20
-458.227
 40
3.481
 50
152.7
 51
171.085
  0
ARC
  8
APS_GEOMETRY
 10
-591.217
 20
-459.967
 40
14.705
 50
171.085
 51
180.0
  0
LINE
  8
APS_GEOMETRY
 10
-605.923
 11
-605.923
 20
-459.967
 21
-478.281
  0
ARC
  8
APS_GEOMETRY
 10
-586.495
 20
-478.281
 40
19.427
 50
180.0
 51
188.194
  0
ARC
  8
APS_GEOMETRY
 10
-601.003
 20
-480.37
 40
4.77
 50
188.194
 51
204.775
  0
ARC
  8
APS_GEOMETRY
 10
-602.412
 20
-481.02
 40
3.218
 50
204.775
 51
228.576
  0
ARC
  8
APS_GEOMETRY
 10
-601.09
 20
-479.522
 40
5.216
 50
228.576
 51
247.218
  0
ARC
  8
APS_GEOMETRY
 10
-608.759
 20
-497.594
 40
14.416
 50
59.381
 51
66.93
  0
ARC
  8
APS_GEOMETRY
 10
-603.098
 20
-488.028
 40
3.301
 50
43.568
 51
59.381
  0
ARC
  8
APS_GEOMETRY
 10
-602.192
 20
-487.167
 40
2.051
 50
19.041
 51
43.568
  0
ARC
  8
APS_GEOMETRY
 10
-603.451
 20
-487.601
 40
3.382
 50
360.0
 51
19.041
  0
ARC
  8
APS_GEOMETRY
 10
-602.816
 20
-487.601
 40
2.747
 50
317.66
 51
360.0
  0
ARC
  8
APS_GEOMETRY
 10
-605.338
 20
-485.303
 40
6.16
 50
289.747
 51
317.66
  0
ARC
  8
APS_GEOMETRY
 10
-607.451
 20
-479.418
 40
12.412
 50
281.964
 51
289.747
  0
ARC
  8
APS_GEOMETRY
 10
-610.378
 20
-465.606
 40
26.531
 50
276.643
 51
281.964
  0
ARC
  8
APS_GEOMETRY
 10
-611.609
 20
-455.03
 40
37.178
 50
272.836
 51
276.643
  0
ARC
  8
APS_GEOMETRY
 10
-613.085
 20
-425.255
 40
66.99
 50
270.0
 51
272.836
  0
ARC
  8
APS_GEOMETRY
 10
-613.085
 20
-406.805
 40
85.44
 50
267.283
 51
270.0
  0
ARC
  8
APS_GEOMETRY
 10
-614.878
 20
-444.608
 40
47.595
 50
263.643
 51
267.283
  0
ARC
  8
APS_GEOMETRY
 10
-616.381
 20
-458.092
 40
34.027
 50
258.563
 51
263.643
  0
ARC
  8
APS_GEOMETRY
 10
-619.969
 20
-475.831
 40
15.929
 50
251.136
 51
258.563
  0
ARC
  8
APS_GEOMETRY
 10
-623.174
 20
-485.124
 40
6.099
 50
222.558
 51
251.395
  0
ARC
  8
APS_GEOMETRY
 10
-625.551
 20
-487.307
 40
2.871
 50
180.0
 51
222.558
  0
ARC
  8
APS_GEOMETRY
 10
-626.031
 20
-487.307
 40
2.392
 50
150.642
 51
180.0
  0
ARC
  8
APS_GEOMETRY
 10
-625.839
 20
-487.415
 40
2.612
 50
122.574
 51
150.642
  0
ARC
  8
APS_GEOMETRY
 10
-626.346
 20
-486.832
 40
1.851
 50
108.677
 51
119.055
  0
ARC
  8
APS_GEOMETRY
 10
-603.23
 20
-555.216
 40
74.036
 50
107.038
 51
108.677
  0
ARC
  8
APS_GEOMETRY
 10
-625.785
 20
-481.452
 40
3.099
 50
286.144
 51
308.66
  0
ARC
  8
APS_GEOMETRY
 10
-625.277
 20
-482.087
 40
2.287
 50
308.66
 51
334.933
  0
ARC
  8
APS_GEOMETRY
 10
-627.342
 20
-481.121
 40
4.566
 50
334.933
 51
348.829
  0
ARC
  8
APS_GEOMETRY
 10
-653.168
 20
-476.021
 40
30.891
 50
348.829
 51
354.161
  0
ARC
  8
APS_GEOMETRY
 10
-670.624
 20
-474.222
 40
48.439
 50
354.144
 51
355.66
  0
ARC
  8
APS_GEOMETRY
 10
-748.0
 20
-468.35
 40
126.038
 50
355.66
 51
356.6
  0
ARC
  8
APS_GEOMETRY
 10
-807.149
 20
-464.836
 40
185.291
 50
356.6
 51
357.24
  0
ARC
  8
APS_GEOMETRY
 10
-974.974
 20
-456.745
 40
353.311
 50
357.24
 51
357.703
  0
ARC
  8
APS_GEOMETRY
 10
-958.454
 20
-457.407
 40
336.777
 50
357.703
 51
358.674
  0
ARC
  8
APS_GEOMETRY
 10
-802.622
 20
-461.013
 40
180.903
 50
358.674
 51
0.0
  0
ARC
  8
APS_GEOMETRY
 10
-648.528
 20
-461.013
 40
26.81
 50
0.0
 51
6.242
  0
ARC
  8
APS_GEOMETRY
 10
-627.209
 20
-458.682
 40
5.364
 50
6.242
 51
20.225
  0
ARC
  8
APS_GEOMETRY
 10
-624.254
 20
-457.593
 40
2.215
 50
20.225
 51
50.44
  0
ARC
  8
APS_GEOMETRY
 10
-623.681
 20
-456.898
 40
1.314
 50
50.44
 51
90.0
  0
ARC
  8
APS_GEOMETRY
 10
-623.681
 20
-457.347
 40
1.762
 50
90.0
 51
126.747
  0
ARC
  8
APS_GEOMETRY
 10
-621.19
 20
-460.682
 40
5.924
 50
126.747
 51
146.547
  0
ARC
  8
APS_GEOMETRY
 10
-665.178
 20
-431.769
 40
46.715
 50
324.255
 51
326.701
  0
ARC
  8
APS_GEOMETRY
 10
-646.555
 20
-445.173
 40
23.77
 50
320.826
 51
324.255
  0
ARC
  8
APS_GEOMETRY
 10
-640.469
 20
-450.132
 40
15.918
 50
315.722
 51
320.826
  0
ARC
  8
APS_GEOMETRY
 10
-633.475
 20
-456.952
 40
6.149
 50
307.504
 51
315.722
  0
ARC
  8
APS_GEOMETRY
 10
-634.12
 20
-456.091
 40
7.226
 50
291.306
 51
307.405
  0
ARC
  8
APS_GEOMETRY
 10
-633.001
 20
-458.96
 40
4.146
 50
270.0
 51
291.306
  0
ARC
  8
APS_GEOMETRY
 10
-633.001
 20
-459.227
 40
3.879
 50
245.532
 51
270.0
  0
ARC
  8
APS_GEOMETRY
 10
-633.03
 20
-459.292
 40
3.808
 50
220.833
 51
245.532
  0
ARC
  8
APS_GEOMETRY
 10
-632.637
 20
-458.952
 40
4.328
 50
198.684
 51
220.833
  0
ARC
  8
APS_GEOMETRY
 10
-630.996
 20
-458.397
 40
6.06
 50
180.0
 51
198.684
  0
ARC
  8
APS_GEOMETRY
 10
-627.149
 20
-458.397
 40
9.908
 50
168.408
 51
180.0
  0
ARC
  8
APS_GEOMETRY
 10
-620.796
 20
-459.7
 40
16.393
 50
159.402
 51
168.408
  0
ARC
  8
APS_GEOMETRY
 10
-618.833
 20
-460.438
 40
18.49
 50
151.39
 51
159.402
  0
ARC
  8
APS_GEOMETRY
 10
-619.235
 20
-460.219
 40
18.032
 50
143.276
 51
151.39
  0
ARC
  8
APS_GEOMETRY
 10
-624.285
 20
-456.443
 40
11.726
 50
124.216
 51
143.31
  0
ARC
  8
APS_GEOMETRY
 10
-628.782
 20
-449.828
 40
3.728
 50
90.0
 51
124.216
  0
ARC
  8
APS_GEOMETRY
 10
-628.782
 20
-451.485
 40
5.384
 50
82.725
 51
90.0
  0
ARC
  8
APS_GEOMETRY
 10
-629.203
 20
-454.78
 40
8.707
 50
77.005
 51
82.725
  0
ARC
  8
APS_GEOMETRY
 10
-616.355
 20
-392.834
 40
54.561
 50
258.486
 51
260.378
  0
ARC
  8
APS_GEOMETRY
 10
-621.859
 20
-425.299
 40
21.633
 50
260.378
 51
263.382
  0
ARC
  8
APS_GEOMETRY
 10
-622.329
 20
-429.356
 40
17.548
 50
263.382
 51
267.084
  0
ARC
  8
APS_GEOMETRY
 10
-621.784
 20
-418.645
 40
28.273
 50
267.084
 51
270.0
  0
ARC
  8
APS_GEOMETRY
 10
-562.057
 20
-471.784
 40
25.782
 50
71.91
 51
90.0
  0
ARC
  8
APS_GEOMETRY
 10
-561.058
 20
-468.727
 40
22.566
 50
52.561
 51
71.91
  0
ARC
  8
APS_GEOMETRY
 10
-561.32
 20
-468.803
 40
22.786
 50
38.846
 51
52.156
  0
ARC
  8
APS_GEOMETRY
 10
-564.892
 20
-471.68
 40
27.372
 50
26.707
 51
38.846
  0
ARC
  8
APS_GEOMETRY
 10
-564.185
 20
-471.102
 40
26.482
 50
13.868
 51
26.278
  0
ARC
  8
APS_GEOMETRY
 10
-559.085
 20
-469.843
 40
21.229
 50
360.0
 51
13.868
  0
ARC
  8
APS_GEOMETRY
 10
-558.755
 20
-469.843
 40
20.899
 50
339.712
 51
360.0
  0
ARC
  8
APS_GEOMETRY
 10
-559.931
 20
-469.408
 40
22.153
 50
320.013
 51
339.712
  0
ARC
  8
APS_GEOMETRY
 10
-560.126
 20
-469.301
 40
22.372
 50
303.344
 51
320.123
  0
ARC
  8
APS_GEOMETRY
 10
-562.422
 20
-465.812
 40
26.548
 50
287.949
 51
303.344
  0
ARC
  8
APS_GEOMETRY
 10
-563.176
 20
-463.197
 40
29.269
 50
279.039
 51
287.776
  0
ARC
  8
APS_GEOMETRY
 10
-562.874
 20
-465.096
 40
27.346
 50
270.0
 51
279.039
  0
ARC
  8
APS_GEOMETRY
 10
-562.874
 20
-466.431
 40
26.011
 50
257.728
 51
270.0
  0
ARC
  8
APS_GEOMETRY
 10
-562.833
 20
-466.242
 40
26.203
 50
245.501
 51
257.728
  0
ARC
  8
APS_GEOMETRY
 10
-564.306
 20
-469.465
 40
22.66
 50
228.665
 51
245.511
  0
ARC
  8
APS_GEOMETRY
 10
-564.796
 20
-470.022
 40
21.918
 50
211.535
 51
228.665
  0
ARC
  8
APS_GEOMETRY
 10
-564.154
 20
-469.551
 40
22.712
 50
195.642
 51
211.701
  0
ARC
  8
APS_GEOMETRY
 10
-562.98
 20
-469.222
 40
23.931
 50
180.0
 51
195.642
  0
ARC
  8
APS_GEOMETRY
 10
-562.729
 20
-469.222
 40
24.183
 50
162.181
 51
180.0
  0
ARC
  8
APS_GEOMETRY
 10
-564.935
 20
-468.513
 40
21.865
 50
143.434
 51
162.181
  0
ARC
  8
APS_GEOMETRY
 10
-565.232
 20
-468.275
 40
21.485
 50
126.384
 51
143.471
  0
ARC
  8
APS_GEOMETRY
 10
-563.198
 20
-471.036
 40
24.914
 50
110.525
 51
126.384
  0
ARC
  8
APS_GEOMETRY
 10
-563.298
 20
-470.286
 40
24.177
 50
99.77
 51
110.925
  0
ARC
  8
APS_GEOMETRY
 10
-562.057
 20
-477.498
 40
31.496
 50
90.0
 51
99.77
  0
ARC
  8
APS_GEOMETRY
 10
-565.164
 20
-460.196
 40
4.807
 50
90.0
 51
119.604
  0
ARC
  8
APS_GEOMETRY
 10
-564.742
 20
-460.937
 40
5.659
 50
119.604
 51
146.842
  0
ARC
  8
APS_GEOMETRY
 10
-563.896
 20
-461.63
 40
6.748
 50
145.84
 51
164.055
  0
ARC
  8
APS_GEOMETRY
 10
-561.935
 20
-462.191
 40
8.788
 50
164.055
 51
180.0
  0
ARC
  8
APS_GEOMETRY
 10
-549.671
 20
-462.191
 40
21.053
 50
180.0
 51
189.977
  0
ARC
  8
APS_GEOMETRY
 10
-531.019
 20
-458.91
 40
39.991
 50
189.977
 51
197.211
  0
ARC
  8
APS_GEOMETRY
 10
-526.939
 20
-457.646
 40
44.261
 50
197.211
 51
203.76
  0
ARC
  8
APS_GEOMETRY
 10
-537.102
 20
-462.12
 40
33.157
 50
203.76
 51
211.329
  0
ARC
  8
APS_GEOMETRY
 10
-557.97
 20
-474.644
 40
8.821
 50
212.32
 51
224.441
  0
ARC
  8
APS_GEOMETRY
 10
-558.826
 20
-475.483
 40
7.623
 50
224.441
 51
237.484
  0
ARC
  8
APS_GEOMETRY
 10
-559.378
 20
-476.35
 40
6.595
 50
237.484
 51
252.416
  0
ARC
  8
APS_GEOMETRY
 10
-559.931
 20
-478.093
 40
4.766
 50
252.416
 51
270.0
  0
ARC
  8
APS_GEOMETRY
 10
-559.931
 20
-477.528
 40
5.331
 50
270.0
 51
294.953
  0
ARC
  8
APS_GEOMETRY
 10
-559.782
 20
-477.849
 40
4.977
 50
294.953
 51
320.793
  0
ARC
  8
APS_GEOMETRY
 10
-560.582
 20
-477.196
 40
6.011
 50
320.793
 51
342.777
  0
ARC
  8
APS_GEOMETRY
 10
-564.15
 20
-476.09
 40
9.746
 50
342.777
 51
0.0
  0
ARC
  8
APS_GEOMETRY
 10
-580.911
 20
-476.09
 40
26.507
 50
0.0
 51
8.499
  0
ARC
  8
APS_GEOMETRY
 10
-592.578
 20
-477.833
 40
38.304
 50
8.499
 51
15.566
  0
ARC
  8
APS_GEOMETRY
 10
-591.176
 20
-477.442
 40
36.848
 50
15.566
 51
22.909
  0
ARC
  8
APS_GEOMETRY
 10
-579.112
 20
-472.344
 40
23.751
 50
22.909
 51
32.057
  0
ARC
  8
APS_GEOMETRY
 10
-569.636
 20
-466.375
 40
12.552
 50
31.921
 51
42.51
  0
ARC
  8
APS_GEOMETRY
 10
-567.034
 20
-463.989
 40
9.022
 50
42.51
 51
55.008
  0
ARC
  8
APS_GEOMETRY
 10
-566.155
 20
-462.734
 40
7.489
 50
55.008
 51
69.88
  0
ARC
  8
APS_GEOMETRY
 10
-565.367
 20
-460.583
 40
5.198
 50
69.88
 51
87.754
  0
ARC
  8
APS_GEOMETRY
 10
-513.636
 20
-461.986
 40
15.983
 50
83.923
 51
90.0
  0
ARC
  8
APS_GEOMETRY
 10
-514.922
 20
-474.061
 40
28.127
 50
79.342
 51
83.923
  0
ARC
  8
APS_GEOMETRY
 10
-516.472
 20
-482.301
 40
36.512
 50
75.808
 51
79.342
  0
ARC
  8
APS_GEOMETRY
 10
-521.883
 20
-503.696
 40
58.58
 50
73.018
 51
75.808
  0
ARC
  8
APS_GEOMETRY
 10
-502.832
 20
-441.203
 40
6.752
 50
253.288
 51
259.046
  0
ARC
  8
APS_GEOMETRY
 10
-503.759
 20
-445.997
 40
1.87
 50
259.046
 51
270.0
  0
ARC
  8
APS_GEOMETRY
 10
-503.759
 20
-446.757
 40
1.11
 50
270.0
 51
286.699
  0
ARC
  8
APS_GEOMETRY
 10
-512.633
 20
-417.18
 40
31.989
 50
286.699
 51
289.799
  0
ARC
  8
APS_GEOMETRY
 10
-500.743
 20
-450.089
 40
3.002
 50
100.008
 51
110.556
  0
ARC
  8
APS_GEOMETRY
 10
-500.685
 20
-450.416
 40
3.334
 50
90.0
 51
100.008
  0
ARC
  8
APS_GEOMETRY
 10
-500.685
 20
-450.261
 40
3.179
 50
53.356
 51
90.0
  0
ARC
  8
APS_GEOMETRY
 10
-506.239
 20
-457.727
 40
12.484
 50
35.101
 51
53.356
  0
ARC
  8
APS_GEOMETRY
 10
-509.01
 20
-459.675
 40
15.871
 50
20.245
 51
35.101
  0
ARC
  8
APS_GEOMETRY
 10
-502.177
 20
-457.154
 40
8.588
 50
360.0
 51
20.245
  0
ARC
  8
APS_GEOMETRY
 10
-498.738
 20
-457.154
 40
5.15
 50
340.481
 51
360.0
  0
ARC
  8
APS_GEOMETRY
 10
-497.891
 20
-457.455
 40
4.25
 50
318.972
 51
340.481
  0
ARC
  8
APS_GEOMETRY
 10
-497.512
 20
-457.784
 40
3.748
 50
295.017
 51
318.972
  0
ARC
  8
APS_GEOMETRY
 10
-497.382
 20
-458.062
 40
3.442
 50
270.0
 51
295.017
  0
ARC
  8
APS_GEOMETRY
 10
-497.382
 20
-456.218
 40
5.285
 50
256.171
 51
270.0
  0
ARC
  8
APS_GEOMETRY
 10
-497.959
 20
-458.56
 40
2.874
 50
237.381
 51
256.171
  0
ARC
  8
APS_GEOMETRY
 10
-496.938
 20
-456.965
 40
4.768
 50
231.559
 51
237.381
  0
ARC
  8
APS_GEOMETRY
 10
-482.095
 20
-438.266
 40
28.642
 50
229.185
 51
231.559
  0
ARC
  8
APS_GEOMETRY
 10
-466.188
 20
-419.846
 40
52.979
 50
227.9
 51
229.185
  0
ARC
  8
APS_GEOMETRY
 10
-411.135
 20
-358.918
 40
135.095
 50
227.095
 51
227.9
  0
ARC
  8
APS_GEOMETRY
 10
-514.498
 20
-470.08
 40
16.696
 50
46.975
 51
64.612
  0
ARC
  8
APS_GEOMETRY
 10
-510.823
 20
-462.338
 40
8.127
 50
64.612
 51
90.0
  0
ARC
  8
APS_GEOMETRY
 10
-510.823
 20
-460.067
 40
5.856
 50
90.0
 51
106.966
  0
ARC
  8
APS_GEOMETRY
 10
-511.502
 20
-457.843
 40
3.531
 50
106.966
 51
128.868
  0
ARC
  8
APS_GEOMETRY
 10
-511.895
 20
-457.356
 40
2.905
 50
128.868
 51
154.741
  0
ARC
  8
APS_GEOMETRY
 10
-511.768
 20
-457.416
 40
3.046
 50
154.741
 51
180.0
  0
ARC
  8
APS_GEOMETRY
 10
-511.952
 20
-457.416
 40
2.861
 50
180.0
 51
206.64
  0
ARC
  8
APS_GEOMETRY
 10
-511.032
 20
-456.954
 40
3.891
 50
206.64
 51
229.43
  0
ARC
  8
APS_GEOMETRY
 10
-509.556
 20
-455.231
 40
6.159
 50
229.43
 51
244.493
  0
ARC
  8
APS_GEOMETRY
 10
-505.511
 20
-446.752
 40
15.554
 50
244.493
 51
253.956
  0
ARC
  8
APS_GEOMETRY
 10
-577.582
 20
-691.681
 40
239.758
 50
72.737
 51
73.58
  0
ARC
  8
APS_GEOMETRY
 10
-536.278
 20
-558.765
 40
100.573
 50
71.435
 51
72.737
  0
ARC
  8
APS_GEOMETRY
 10
-522.597
 20
-518.031
 40
57.603
 50
69.164
 51
71.435
  0
ARC
  8
APS_GEOMETRY
 10
-506.452
 20
-475.609
 40
12.212
 50
64.231
 51
69.164
  0
ARC
  8
APS_GEOMETRY
 10
-508.309
 20
-479.347
 40
16.387
 50
34.939
 51
64.068
  0
ARC
  8
APS_GEOMETRY
 10
-504.302
 20
-476.548
 40
11.498
 50
360.0
 51
34.939
  0
ARC
  8
APS_GEOMETRY
 10
-506.765
 20
-476.548
 40
13.962
 50
333.435
 51
360.0
  0
ARC
  8
APS_GEOMETRY
 10
-507.678
 20
-476.091
 40
14.982
 50
307.807
 51
333.435
  0
ARC
  8
APS_GEOMETRY
 10
-510.053
 20
-473.019
 40
18.866
 50
296.732
 51
307.786
  0
ARC
  8
APS_GEOMETRY
 10
-511.459
 20
-470.228
 40
21.99
 50
286.496
 51
296.732
  0
ARC
  8
APS_GEOMETRY
 10
-512.384
 20
-467.103
 40
25.25
 50
277.544
 51
286.496
  0
ARC
  8
APS_GEOMETRY
 10
-513.734
 20
-456.912
 40
35.53
 50
270.0
 51
277.544
  0
ARC
  8
APS_GEOMETRY
 10
-513.734
 20
-455.371
 40
37.071
 50
263.555
 51
270.0
  0
ARC
  8
APS_GEOMETRY
 10
-512.534
 20
-444.747
 40
47.762
 50
257.878
 51
263.555
  0
ARC
  8
APS_GEOMETRY
 10
-513.171
 20
-447.713
 40
44.729
 50
254.839
 51
257.878
  0
ARC
  8
APS_GEOMETRY
 10
-518.337
 20
-466.78
 40
24.974
 50
250.772
 51
254.839
  0
ARC
  8
APS_GEOMETRY
 10
-520.661
 20
-473.442
 40
17.918
 50
245.121
 51
250.772
  0
ARC
  8
APS_GEOMETRY
 10
-524.595
 20
-481.925
 40
8.568
 50
236.944
 51
245.121
  0
ARC
  8
APS_GEOMETRY
 10
-526.914
 20
-485.575
 40
4.243
 50
211.802
 51
236.31
  0
ARC
  8
APS_GEOMETRY
 10
-515.89
 20
-478.739
 40
17.215
 50
199.704
 51
211.802
  0
ARC
  8
APS_GEOMETRY
 10
-510.625
 20
-476.854
 40
22.807
 50
190.413
 51
199.704
  0
ARC
  8
APS_GEOMETRY
 10
-515.188
 20
-477.692
 40
18.168
 50
180.0
 51
190.413
  0
ARC
  8
APS_GEOMETRY
 10
-527.487
 20
-477.692
 40
5.869
 50
164.876
 51
180.0
  0
ARC
  8
APS_GEOMETRY
 10
-530.794
 20
-476.798
 40
2.443
 50
141.34
 51
164.876
  0
ARC
  8
APS_GEOMETRY
 10
-530.474
 20
-477.013
 40
2.827
 50
116.928
 51
142.001
  0
ARC
  8
APS_GEOMETRY
 10
-530.642
 20
-476.683
 40
2.457
 50
90.0
 51
116.928
  0
ARC
  8
APS_GEOMETRY
 10
-530.642
 20
-476.689
 40
2.464
 50
62.21
 51
90.0
  0
ARC
  8
APS_GEOMETRY
 10
-531.625
 20
-478.556
 40
4.573
 50
41.906
 51
62.21
  0
ARC
  8
APS_GEOMETRY
 10
-531.458
 20
-478.591
 40
4.475
 50
37.313
 51
43.668
  0
ARC
  8
APS_GEOMETRY
 10
-556.526
 20
-497.696
 40
35.993
 50
35.074
 51
37.313
  0
ARC
  8
APS_GEOMETRY
 10
-584.994
 20
-517.684
 40
70.777
 50
33.934
 51
35.074
  0
ARC
  8
APS_GEOMETRY
 10
-686.491
 20
-585.974
 40
193.11
 50
33.243
 51
33.934
  0
ARC
  8
APS_GEOMETRY
 10
-519.372
 20
-476.404
 40
6.727
 50
213.453
 51
231.637
  0
ARC
  8
APS_GEOMETRY
 10
-516.193
 20
-472.388
 40
11.848
 50
231.637
 51
245.313
  0
ARC
  8
APS_GEOMETRY
 10
-515.493
 20
-470.865
 40
13.524
 50
245.313
 51
257.398
  0
ARC
  8
APS_GEOMETRY
 10
-515.729
 20
-471.92
 40
12.443
 50
257.398
 51
270.0
  0
ARC
  8
APS_GEOMETRY
 10
-515.729
 20
-473.858
 40
10.506
 50
270.0
 51
282.907
  0
ARC
  8
APS_GEOMETRY
 10
-514.598
 20
-478.791
 40
5.445
 50
282.907
 51
300.872
  0
ARC
  8
APS_GEOMETRY
 10
-513.618
 20
-480.43
 40
3.535
 50
300.872
 51
326.876
  0
ARC
  8
APS_GEOMETRY
 10
-512.502
 20
-481.159
 40
2.202
 50
326.876
 51
0.0
  0
ARC
  8
APS_GEOMETRY
 10
-512.831
 20
-481.159
 40
2.531
 50
0.0
 51
27.553
  0
ARC
  8
APS_GEOMETRY
 10
-513.632
 20
-481.576
 40
3.434
 50
27.553
 51
51.147
  0
ARC
  8
APS_GEOMETRY
 10
-515.286
 20
-483.63
 40
6.071
 50
51.147
 51
65.225
  0
ARC
  8
APS_GEOMETRY
 10
-521.39
 20
-496.854
 40
20.636
 50
65.225
 51
72.848
  0
ARC
  8
APS_GEOMETRY
 10
-485.748
 20
-383.215
 40
98.462
 50
251.106
 51
252.532
  0
ARC
  8
APS_GEOMETRY
 10
-498.364
 20
-420.076
 40
59.501
 50
249.271
 51
251.106
  0
ARC
  8
APS_GEOMETRY
 10
-503.609
 20
-433.936
 40
44.683
 50
246.83
 51
249.271
  0
ARC
  8
APS_GEOMETRY
 10
-512.093
 20
-453.758
 40
23.121
 50
243.435
 51
246.83
  0
ARC
  8
APS_GEOMETRY
 10
-513.059
 20
-455.69
 40
20.961
 50
235.981
 51
243.435
  0
ARC
  8
APS_GEOMETRY
 10
-512.317
 20
-454.591
 40
22.287
 50
228.752
 51
235.981
  0
ARC
  8
APS_GEOMETRY
 10
-515.792
 20
-458.685
 40
16.918
 50
206.421
 51
228.457
  0
ARC
  8
APS_GEOMETRY
 10
-520.346
 20
-460.948
 40
11.833
 50
180.0
 51
206.421
  0
ARC
  8
APS_GEOMETRY
 10
-520.131
 20
-460.948
 40
12.047
 50
166.555
 51
180.0
  0
ARC
  8
APS_GEOMETRY
 10
-518.736
 20
-461.281
 40
13.482
 50
153.848
 51
166.555
  0
ARC
  8
APS_GEOMETRY
 10
-518.62
 20
-461.339
 40
13.611
 50
141.244
 51
153.848
  0
ARC
  8
APS_GEOMETRY
 10
-517.76
 20
-462.029
 40
14.714
 50
129.123
 51
141.244
  0
ARC
  8
APS_GEOMETRY
 10
-515.007
 20
-464.956
 40
18.725
 50
108.978
 51
130.006
  0
ARC
  8
APS_GEOMETRY
 10
-513.636
 20
-468.943
 40
22.94
 50
90.0
 51
108.978
  0
ARC
  8
APS_GEOMETRY
 10
-463.645
 20
-467.266
 40
21.264
 50
77.257
 51
90.0
  0
ARC
  8
APS_GEOMETRY
 10
-463.861
 20
-468.222
 40
22.243
 50
64.799
 51
77.257
  0
ARC
  8
APS_GEOMETRY
 10
-445.544
 20
-429.223
 40
20.843
 50
244.885
 51
251.175
  0
ARC
  8
APS_GEOMETRY
 10
-451.512
 20
-446.731
 40
2.346
 50
251.175
 51
270.0
  0
ARC
  8
APS_GEOMETRY
 10
-451.512
 20
-445.27
 40
3.806
 50
270.0
 51
278.82
  0
ARC
  8
APS_GEOMETRY
 10
-453.971
 20
-429.423
 40
19.844
 50
278.82
 51
282.68
  0
ARC
  8
APS_GEOMETRY
 10
-448.826
 20
-452.203
 40
3.511
 50
95.906
 51
102.995
  0
ARC
  8
APS_GEOMETRY
 10
-448.667
 20
-453.74
 40
5.055
 50
90.0
 51
95.906
  0
ARC
  8
APS_GEOMETRY
 10
-448.667
 20
-452.04
 40
3.356
 50
62.447
 51
90.0
  0
ARC
  8
APS_GEOMETRY
 10
-449.264
 20
-453.183
 40
4.645
 50
39.094
 51
62.447
  0
ARC
  8
APS_GEOMETRY
 10
-455.498
 20
-458.397
 40
12.772
 50
18.435
 51
39.611
  0
ARC
  8
APS_GEOMETRY
 10
-459.325
 20
-459.673
 40
16.806
 50
360.0
 51
18.435
  0
ARC
  8
APS_GEOMETRY
 10
-450.852
 20
-459.673
 40
8.333
 50
334.877
 51
360.0
  0
ARC
  8
APS_GEOMETRY
 10
-448.346
 20
-460.848
 40
5.565
 50
304.007
 51
334.877
  0
ARC
  8
APS_GEOMETRY
 10
-448.387
 20
-460.73
 40
5.686
 50
286.39
 51
303.69
  0
ARC
  8
APS_GEOMETRY
 10
-448.569
 20
-460.112
 40
6.33
 50
270.0
 51
286.39
  0
ARC
  8
APS_GEOMETRY
 10
-448.569
 20
-460.186
 40
6.257
 50
255.155
 51
270.0
  0
ARC
  8
APS_GEOMETRY
 10
-449.254
 20
-462.771
 40
3.581
 50
235.491
 51
255.155
  0
ARC
  8
APS_GEOMETRY
 10
-448.91
 20
-462.271
 40
4.189
 50
218.48
 51
235.491
  0
ARC
  8
APS_GEOMETRY
 10
-443.29
 20
-457.803
 40
11.369
 50
208.179
 51
218.48
  0
ARC
  8
APS_GEOMETRY
 10
-500.914
 20
-489.082
 40
54.198
 50
28.56
 51
31.664
  0
ARC
  8
APS_GEOMETRY
 10
-465.702
 20
-467.365
 40
12.827
 50
31.664
 51
38.047
  0
ARC
  8
APS_GEOMETRY
 10
-463.142
 20
-465.362
 40
9.576
 50
38.047
 51
46.56
  0
ARC
  8
APS_GEOMETRY
 10
-464.472
 20
-466.767
 40
11.512
 50
46.56
 51
54.324
  0
ARC
  8
APS_GEOMETRY
 10
-465.241
 20
-468.089
 40
13.034
 50
54.968
 51
71.48
  0
ARC
  8
APS_GEOMETRY
 10
-464.398
 20
-465.572
 40
10.38
 50
71.48
 51
90.0
  0
ARC
  8
APS_GEOMETRY
 10
-464.398
 20
-462.443
 40
7.251
 50
90.0
 51
114.63
  0
ARC
  8
APS_GEOMETRY
 10
-464.762
 20
-461.649
 40
6.377
 50
114.63
 51
140.921
  0
ARC
  8
APS_GEOMETRY
 10
-463.686
 20
-462.522
 40
7.763
 50
140.921
 51
163.13
  0
ARC
  8
APS_GEOMETRY
 10
-458.308
 20
-464.153
 40
13.382
 50
163.13
 51
180.0
  0
ARC
  8
APS_GEOMETRY
 10
-451.335
 20
-464.153
 40
20.355
 50
180.0
 51
195.44
  0
ARC
  8
APS_GEOMETRY
 10
-452.393
 20
-464.445
 40
19.258
 50
195.44
 51
211.316
  0
ARC
  8
APS_GEOMETRY
 10
-457.482
 20
-467.434
 40
13.357
 50
211.708
 51
240.457
  0
ARC
  8
APS_GEOMETRY
 10
-457.824
 20
-468.038
 40
12.663
 50
240.457
 51
270.0
  0
ARC
  8
APS_GEOMETRY
 10
-457.824
 20
-464.95
 40
15.751
 50
270.0
 51
279.549
  0
ARC
  8
APS_GEOMETRY
 10
-458.02
 20
-463.786
 40
16.931
 50
279.549
 51
288.759
  0
ARC
  8
APS_GEOMETRY
 10
-457.195
 20
-466.216
 40
14.364
 50
288.759
 51
299.545
  0
ARC
  8
APS_GEOMETRY
 10
-453.885
 20
-472.056
 40
7.652
 50
299.545
 51
314.341
  0
ARC
  8
APS_GEOMETRY
 10
-443.65
 20
-482.687
 40
7.105
 50
120.141
 51
133.452
  0
ARC
  8
APS_GEOMETRY
 10
-446.509
 20
-477.763
 40
1.412
 50
90.0
 51
120.141
  0
ARC
  8
APS_GEOMETRY
 10
-446.509
 20
-478.581
 40
2.23
 50
61.952
 51
90.0
  0
ARC
  8
APS_GEOMETRY
 10
-446.841
 20
-479.204
 40
2.936
 50
37.569
 51
61.952
  0
ARC
  8
APS_GEOMETRY
 10
-447.46
 20
-479.68
 40
3.717
 50
17.665
 51
37.569
  0
ARC
  8
APS_GEOMETRY
 10
-448.405
 20
-479.981
 40
4.709
 50
360.0
 51
17.665
  0
ARC
  8
APS_GEOMETRY
 10
-450.777
 20
-479.981
 40
7.081
 50
344.932
 51
360.0
  0
ARC
  8
APS_GEOMETRY
 10
-457.075
 20
-478.286
 40
13.603
 50
334.075
 51
344.932
  0
ARC
  8
APS_GEOMETRY
 10
-457.273
 20
-478.189
 40
13.823
 50
323.374
 51
334.075
  0
ARC
  8
APS_GEOMETRY
 10
-453.209
 20
-481.21
 40
8.76
 50
309.92
 51
323.374
  0
ARC
  8
APS_GEOMETRY
 10
-449.148
 20
-486.001
 40
2.48
 50
289.026
 51
308.991
  0
ARC
  8
APS_GEOMETRY
 10
-453.481
 20
-473.436
 40
15.771
 50
281.143
 51
289.026
  0
ARC
  8
APS_GEOMETRY
 10
-449.087
 20
-496.217
 40
7.431
 50
100.437
 51
110.12
  0
ARC
  8
APS_GEOMETRY
 10
-443.266
 20
-512.107
 40
24.353
 50
110.12
 51
115.463
  0
ARC
  8
APS_GEOMETRY
 10
-464.047
 20
-468.627
 40
23.838
 50
282.94
 51
295.628
  0
ARC
  8
APS_GEOMETRY
 10
-463.842
 20
-469.521
 40
22.921
 50
270.0
 51
282.94
  0
ARC
  8
APS_GEOMETRY
 10
-463.842
 20
-468.167
 40
24.275
 50
257.307
 51
270.0
  0
ARC
  8
APS_GEOMETRY
 10
-462.817
 20
-463.617
 40
28.939
 50
245.686
 51
257.307
  0
ARC
  8
APS_GEOMETRY
 10
-465.387
 20
-469.258
 40
22.739
 50
228.801
 51
245.735
  0
ARC
  8
APS_GEOMETRY
 10
-465.344
 20
-469.209
 40
22.805
 50
211.891
 51
228.801
  0
ARC
  8
APS_GEOMETRY
 10
-463.996
 20
-468.239
 40
24.462
 50
196.728
 51
212.152
  0
ARC
  8
APS_GEOMETRY
 10
-467.484
 20
-469.287
 40
20.82
 50
180.0
 51
196.728
  0
ARC
  8
APS_GEOMETRY
 10
-466.977
 20
-469.287
 40
21.327
 50
161.184
 51
180.0
  0
ARC
  8
APS_GEOMETRY
 10
-465.608
 20
-469.754
 40
22.773
 50
142.98
 51
161.184
  0
ARC
  8
APS_GEOMETRY
 10
-464.544
 20
-470.568
 40
24.112
 50
127.824
 51
142.958
  0
ARC
  8
APS_GEOMETRY
 10
-462.79
 20
-472.827
 40
26.973
 50
113.52
 51
127.824
  0
ARC
  8
APS_GEOMETRY
 10
-463.361
 20
-471.508
 40
25.535
 50
101.927
 51
113.527
  0
ARC
  8
APS_GEOMETRY
 10
-463.645
 20
-470.163
 40
24.161
 50
90.0
 51
101.927
  0
ARC
  8
APS_GEOMETRY
 10
-413.164
 20
-471.784
 40
25.782
 50
71.91
 51
90.0
  0
ARC
  8
APS_GEOMETRY
 10
-412.166
 20
-468.727
 40
22.566
 50
52.561
 51
71.91
  0
ARC
  8
APS_GEOMETRY
 10
-412.427
 20
-468.803
 40
22.786
 50
38.846
 51
52.156
  0
ARC
  8
APS_GEOMETRY
 10
-415.999
 20
-471.68
 40
27.372
 50
26.707
 51
38.846
  0
ARC
  8
APS_GEOMETRY
 10
-415.292
 20
-471.102
 40
26.482
 50
13.868
 51
26.278
  0
ARC
  8
APS_GEOMETRY
 10
-410.193
 20
-469.843
 40
21.229
 50
360.0
 51
13.868
  0
ARC
  8
APS_GEOMETRY
 10
-409.862
 20
-469.843
 40
20.899
 50
339.712
 51
360.0
  0
ARC
  8
APS_GEOMETRY
 10
-411.039
 20
-469.408
 40
22.153
 50
320.013
 51
339.712
  0
ARC
  8
APS_GEOMETRY
 10
-411.234
 20
-469.301
 40
22.372
 50
303.344
 51
320.123
  0
ARC
  8
APS_GEOMETRY
 10
-413.53
 20
-465.812
 40
26.548
 50
287.949
 51
303.344
  0
ARC
  8
APS_GEOMETRY
 10
-414.284
 20
-463.197
 40
29.269
 50
279.039
 51
287.776
  0
ARC
  8
APS_GEOMETRY
 10
-413.982
 20
-465.096
 40
27.346
 50
270.0
 51
279.039
  0
ARC
  8
APS_GEOMETRY
 10
-413.982
 20
-466.431
 40
26.011
 50
257.728
 51
270.0
  0
ARC
  8
APS_GEOMETRY
 10
-413.941
 20
-466.242
 40
26.203
 50
245.501
 51
257.728
  0
ARC
  8
APS_GEOMETRY
 10
-415.414
 20
-469.465
 40
22.66
 50
228.665
 51
245.511
  0
ARC
  8
APS_GEOMETRY
 10
-415.903
 20
-470.022
 40
21.918
 50
211.535
 51
228.665
  0
ARC
  8
APS_GEOMETRY
 10
-415.261
 20
-469.551
 40
22.712
 50
195.642
 51
211.701
  0
ARC
  8
APS_GEOMETRY
 10
-414.088
 20
-469.222
 40
23.931
 50
180.0
 51
195.642
  0
ARC
  8
APS_GEOMETRY
 10
-413.836
 20
-469.222
 40
24.183
 50
162.181
 51
180.0
  0
ARC
  8
APS_GEOMETRY
 10
-416.043
 20
-468.513
 40
21.865
 50
143.434
 51
162.181
  0
ARC
  8
APS_GEOMETRY
 10
-416.339
 20
-468.275
 40
21.485
 50
126.384
 51
143.471
  0
ARC
  8
APS_GEOMETRY
 10
-414.305
 20
-471.036
 40
24.914
 50
110.525
 51
126.384
  0
ARC
  8
APS_GEOMETRY
 10
-414.406
 20
-470.286
 40
24.177
 50
99.77
 51
110.925
  0
ARC
  8
APS_GEOMETRY
 10
-413.164
 20
-477.498
 40
31.496
 50
90.0
 51
99.77
  0
ARC
  8
APS_GEOMETRY
 10
-416.271
 20
-460.196
 40
4.807
 50
90.0
 51
119.604
  0
ARC
  8
APS_GEOMETRY
 10
-415.85
 20
-460.937
 40
5.659
 50
119.604
 51
146.842
  0
ARC
  8
APS_GEOMETRY
 10
-415.004
 20
-461.63
 40
6.748
 50
145.84
 51
164.055
  0
ARC
  8
APS_GEOMETRY
 10
-413.043
 20
-462.191
 40
8.788
 50
164.055
 51
180.0
  0
ARC
  8
APS_GEOMETRY
 10
-400.778
 20
-462.191
 40
21.053
 50
180.0
 51
189.977
  0
ARC
  8
APS_GEOMETRY
 10
-382.127
 20
-458.91
 40
39.991
 50
189.977
 51
197.211
  0
ARC
  8
APS_GEOMETRY
 10
-378.047
 20
-457.646
 40
44.261
 50
197.211
 51
203.76
  0
ARC
  8
APS_GEOMETRY
 10
-388.21
 20
-462.12
 40
33.157
 50
203.76
 51
211.329
  0
ARC
  8
APS_GEOMETRY
 10
-409.078
 20
-474.644
 40
8.821
 50
212.32
 51
224.441
  0
ARC
  8
APS_GEOMETRY
 10
-409.933
 20
-475.483
 40
7.623
 50
224.441
 51
237.484
  0
ARC
  8
APS_GEOMETRY
 10
-410.486
 20
-476.35
 40
6.595
 50
237.484
 51
252.416
  0
ARC
  8
APS_GEOMETRY
 10
-411.039
 20
-478.093
 40
4.766
 50
252.416
 51
270.0
  0
ARC
  8
APS_GEOMETRY
 10
-411.039
 20
-477.528
 40
5.331
 50
270.0
 51
294.953
  0
ARC
  8
APS_GEOMETRY
 10
-410.889
 20
-477.849
 40
4.977
 50
294.953
 51
320.793
  0
ARC
  8
APS_GEOMETRY
 10
-411.69
 20
-477.196
 40
6.011
 50
320.793
 51
342.777
  0
ARC
  8
APS_GEOMETRY
 10
-415.258
 20
-476.09
 40
9.746
 50
342.777
 51
0.0
  0
ARC
  8
APS_GEOMETRY
 10
-432.019
 20
-476.09
 40
26.507
 50
0.0
 51
8.499
  0
ARC
  8
APS_GEOMETRY
 10
-443.686
 20
-477.833
 40
38.304
 50
8.499
 51
15.566
  0
ARC
  8
APS_GEOMETRY
 10
-442.283
 20
-477.442
 40
36.848
 50
15.566
 51
22.909
  0
ARC
  8
APS_GEOMETRY
 10
-430.22
 20
-472.344
 40
23.751
 50
22.909
 51
32.057
  0
ARC
  8
APS_GEOMETRY
 10
-420.744
 20
-466.375
 40
12.552
 50
31.921
 51
42.51
  0
ARC
  8
APS_GEOMETRY
 10
-418.142
 20
-463.989
 40
9.022
 50
42.51
 51
55.008
  0
ARC
  8
APS_GEOMETRY
 10
-417.263
 20
-462.734
 40
7.489
 50
55.008
 51
69.88
  0
ARC
  8
APS_GEOMETRY
 10
-416.475
 20
-460.583
 40
5.198
 50
69.88
 51
87.754
  0
ARC
  8
APS_GEOMETRY
 10
-359.805
 20
-467.266
 40
21.264
 50
77.257
 51
90.0
  0
ARC
  8
APS_GEOMETRY
 10
-360.021
 20
-468.222
 40
22.243
 50
64.799
 51
77.257
  0
ARC
  8
APS_GEOMETRY
 10
-341.704
 20
-429.223
 40
20.843
 50
244.885
 51
251.175
  0
ARC
  8
APS_GEOMETRY
 10
-347.672
 20
-446.731
 40
2.346
 50
251.175
 51
270.0
  0
ARC
  8
APS_GEOMETRY
 10
-347.672
 20
-445.27
 40
3.806
 50
270.0
 51
278.82
  0
ARC
  8
APS_GEOMETRY
 10
-350.131
 20
-429.423
 40
19.844
 50
278.82
 51
282.68
  0
ARC
  8
APS_GEOMETRY
 10
-344.986
 20
-452.203
 40
3.511
 50
95.906
 51
102.995
  0
ARC
  8
APS_GEOMETRY
 10
-344.827
 20
-453.74
 40
5.055
 50
90.0
 51
95.906
  0
ARC
  8
APS_GEOMETRY
 10
-344.827
 20
-452.04
 40
3.356
 50
62.447
 51
90.0
  0
ARC
  8
APS_GEOMETRY
 10
-345.424
 20
-453.183
 40
4.645
 50
39.094
 51
62.447
  0
ARC
  8
APS_GEOMETRY
 10
-351.658
 20
-458.397
 40
12.772
 50
18.435
 51
39.611
  0
ARC
  8
APS_GEOMETRY
 10
-355.484
 20
-459.673
 40
16.806
 50
360.0
 51
18.435
  0
ARC
  8
APS_GEOMETRY
 10
-347.012
 20
-459.673
 40
8.333
 50
334.877
 51
360.0
  0
ARC
  8
APS_GEOMETRY
 10
-344.506
 20
-460.848
 40
5.565
 50
304.007
 51
334.877
  0
ARC
  8
APS_GEOMETRY
 10
-344.547
 20
-460.73
 40
5.686
 50
286.39
 51
303.69
  0
ARC
  8
APS_GEOMETRY
 10
-344.729
 20
-460.112
 40
6.33
 50
270.0
 51
286.39
  0
ARC
  8
APS_GEOMETRY
 10
-344.729
 20
-460.186
 40
6.257
 50
255.155
 51
270.0
  0
ARC
  8
APS_GEOMETRY
 10
-345.414
 20
-462.771
 40
3.581
 50
235.491
 51
255.155
  0
ARC
  8
APS_GEOMETRY
 10
-345.07
 20
-462.271
 40
4.189
 50
218.48
 51
235.491
  0
ARC
  8
APS_GEOMETRY
 10
-339.449
 20
-457.803
 40
11.369
 50
208.179
 51
218.48
  0
ARC
  8
APS_GEOMETRY
 10
-397.074
 20
-489.082
 40
54.198
 50
28.56
 51
31.664
  0
ARC
  8
APS_GEOMETRY
 10
-361.862
 20
-467.365
 40
12.827
 50
31.664
 51
38.047
  0
ARC
  8
APS_GEOMETRY
 10
-359.301
 20
-465.362
 40
9.576
 50
38.047
 51
46.56
  0
ARC
  8
APS_GEOMETRY
 10
-360.632
 20
-466.767
 40
11.512
 50
46.56
 51
54.324
  0
ARC
  8
APS_GEOMETRY
 10
-361.4
 20
-468.089
 40
13.034
 50
54.968
 51
71.48
  0
ARC
  8
APS_GEOMETRY
 10
-360.557
 20
-465.572
 40
10.38
 50
71.48
 51
90.0
  0
ARC
  8
APS_GEOMETRY
 10
-360.557
 20
-462.443
 40
7.251
 50
90.0
 51
114.63
  0
ARC
  8
APS_GEOMETRY
 10
-360.921
 20
-461.649
 40
6.377
 50
114.63
 51
140.921
  0
ARC
  8
APS_GEOMETRY
 10
-359.846
 20
-462.522
 40
7.763
 50
140.921
 51
163.13
  0
ARC
  8
APS_GEOMETRY
 10
-354.468
 20
-464.153
 40
13.382
 50
163.13
 51
180.0
  0
ARC
  8
APS_GEOMETRY
 10
-347.495
 20
-464.153
 40
20.355
 50
180.0
 51
195.44
  0
ARC
  8
APS_GEOMETRY
 10
-348.553
 20
-464.445
 40
19.258
 50
195.44
 51
211.316
  0
ARC
  8
APS_GEOMETRY
 10
-353.642
 20
-467.434
 40
13.357
 50
211.708
 51
240.457
  0
ARC
  8
APS_GEOMETRY
 10
-353.984
 20
-468.038
 40
12.663
 50
240.457
 51
270.0
  0
ARC
  8
APS_GEOMETRY
 10
-353.984
 20
-464.95
 40
15.751
 50
270.0
 51
279.549
  0
ARC
  8
APS_GEOMETRY
 10
-354.18
 20
-463.786
 40
16.931
 50
279.549
 51
288.759
  0
ARC
  8
APS_GEOMETRY
 10
-353.354
 20
-466.216
 40
14.364
 50
288.759
 51
299.545
  0
ARC
  8
APS_GEOMETRY
 10
-350.045
 20
-472.056
 40
7.652
 50
299.545
 51
314.341
  0
ARC
  8
APS_GEOMETRY
 10
-339.81
 20
-482.687
 40
7.105
 50
120.141
 51
133.452
  0
ARC
  8
APS_GEOMETRY
 10
-342.669
 20
-477.763
 40
1.412
 50
90.0
 51
120.141
  0
ARC
  8
APS_GEOMETRY
 10
-342.669
 20
-478.581
 40
2.23
 50
61.952
 51
90.0
  0
ARC
  8
APS_GEOMETRY
 10
-343.001
 20
-479.204
 40
2.936
 50
37.569
 51
61.952
  0
ARC
  8
APS_GEOMETRY
 10
-343.62
 20
-479.68
 40
3.717
 50
17.665
 51
37.569
  0
ARC
  8
APS_GEOMETRY
 10
-344.565
 20
-479.981
 40
4.709
 50
360.0
 51
17.665
  0
ARC
  8
APS_GEOMETRY
 10
-346.937
 20
-479.981
 40
7.081
 50
344.932
 51
360.0
  0
ARC
  8
APS_GEOMETRY
 10
-353.235
 20
-478.286
 40
13.603
 50
334.075
 51
344.932
  0
ARC
  8
APS_GEOMETRY
 10
-353.433
 20
-478.189
 40
13.823
 50
323.374
 51
334.075
  0
ARC
  8
APS_GEOMETRY
 10
-349.369
 20
-481.21
 40
8.76
 50
309.92
 51
323.374
  0
ARC
  8
APS_GEOMETRY
 10
-345.308
 20
-486.001
 40
2.48
 50
289.026
 51
308.991
  0
ARC
  8
APS_GEOMETRY
 10
-349.641
 20
-473.436
 40
15.771
 50
281.143
 51
289.026
  0
ARC
  8
APS_GEOMETRY
 10
-345.247
 20
-496.217
 40
7.431
 50
100.437
 51
110.12
  0
ARC
  8
APS_GEOMETRY
 10
-339.426
 20
-512.107
 40
24.353
 50
110.12
 51
115.463
  0
ARC
  8
APS_GEOMETRY
 10
-360.207
 20
-468.627
 40
23.838
 50
282.94
 51
295.628
  0
ARC
  8
APS_GEOMETRY
 10
-360.001
 20
-469.521
 40
22.921
 50
270.0
 51
282.94
  0
ARC
  8
APS_GEOMETRY
 10
-360.001
 20
-468.167
 40
24.275
 50
257.307
 51
270.0
  0
ARC
  8
APS_GEOMETRY
 10
-358.977
 20
-463.617
 40
28.939
 50
245.686
 51
257.307
  0
ARC
  8
APS_GEOMETRY
 10
-361.547
 20
-469.258
 40
22.739
 50
228.801
 51
245.735
  0
ARC
  8
APS_GEOMETRY
 10
-361.504
 20
-469.209
 40
22.805
 50
211.891
 51
228.801
  0
ARC
  8
APS_GEOMETRY
 10
-360.156
 20
-468.239
 40
24.462
 50
196.728
 51
212.152
  0
ARC
  8
APS_GEOMETRY
 10
-363.644
 20
-469.287
 40
20.82
 50
180.0
 51
196.728
  0
ARC
  8
APS_GEOMETRY
 10
-363.137
 20
-469.287
 40
21.327
 50
161.184
 51
180.0
  0
ARC
  8
APS_GEOMETRY
 10
-361.768
 20
-469.754
 40
22.773
 50
142.98
 51
161.184
  0
ARC
  8
APS_GEOMETRY
 10
-360.704
 20
-470.568
 40
24.112
 50
127.824
 51
142.958
  0
ARC
  8
APS_GEOMETRY
 10
-358.95
 20
-472.827
 40
26.973
 50
113.52
 51
127.824
  0
ARC
  8
APS_GEOMETRY
 10
-359.521
 20
-471.508
 40
25.535
 50
101.927
 51
113.527
  0
ARC
  8
APS_GEOMETRY
 10
-359.805
 20
-470.163
 40
24.161
 50
90.0
 51
101.927
  0
ARC
  8
APS_GEOMETRY
 10
-309.324
 20
-471.784
 40
25.782
 50
71.91
 51
90.0
  0
ARC
  8
APS_GEOMETRY
 10
-308.326
 20
-468.727
 40
22.566
 50
52.561
 51
71.91
  0
ARC
  8
APS_GEOMETRY
 10
-308.587
 20
-468.803
 40
22.786
 50
38.846
 51
52.156
  0
ARC
  8
APS_GEOMETRY
 10
-312.159
 20
-471.68
 40
27.372
 50
26.707
 51
38.846
  0
ARC
  8
APS_GEOMETRY
 10
-311.452
 20
-471.102
 40
26.482
 50
13.868
 51
26.278
  0
ARC
  8
APS_GEOMETRY
 10
-306.352
 20
-469.843
 40
21.229
 50
360.0
 51
13.868
  0
ARC
  8
APS_GEOMETRY
 10
-306.022
 20
-469.843
 40
20.899
 50
339.712
 51
360.0
  0
ARC
  8
APS_GEOMETRY
 10
-307.199
 20
-469.408
 40
22.153
 50
320.013
 51
339.712
  0
ARC
  8
APS_GEOMETRY
 10
-307.394
 20
-469.301
 40
22.372
 50
303.344
 51
320.123
  0
ARC
  8
APS_GEOMETRY
 10
-309.69
 20
-465.812
 40
26.548
 50
287.949
 51
303.344
  0
ARC
  8
APS_GEOMETRY
 10
-310.444
 20
-463.197
 40
29.269
 50
279.039
 51
287.776
  0
ARC
  8
APS_GEOMETRY
 10
-310.142
 20
-465.096
 40
27.346
 50
270.0
 51
279.039
  0
ARC
  8
APS_GEOMETRY
 10
-310.142
 20
-466.431
 40
26.011
 50
257.728
 51
270.0
  0
ARC
  8
APS_GEOMETRY
 10
-310.101
 20
-466.242
 40
26.203
 50
245.501
 51
257.728
  0
ARC
  8
APS_GEOMETRY
 10
-311.573
 20
-469.465
 40
22.66
 50
228.665
 51
245.511
  0
ARC
  8
APS_GEOMETRY
 10
-312.063
 20
-470.022
 40
21.918
 50
211.535
 51
228.665
  0
ARC
  8
APS_GEOMETRY
 10
-311.421
 20
-469.551
 40
22.712
 50
195.642
 51
211.701
  0
ARC
  8
APS_GEOMETRY
 10
-310.248
 20
-469.222
 40
23.931
 50
180.0
 51
195.642
  0
ARC
  8
APS_GEOMETRY
 10
-309.996
 20
-469.222
 40
24.183
 50
162.181
 51
180.0
  0
ARC
  8
APS_GEOMETRY
 10
-312.202
 20
-468.513
 40
21.865
 50
143.434
 51
162.181
  0
ARC
  8
APS_GEOMETRY
 10
-312.499
 20
-468.275
 40
21.485
 50
126.384
 51
143.471
  0
ARC
  8
APS_GEOMETRY
 10
-310.465
 20
-471.036
 40
24.914
 50
110.525
 51
126.384
  0
ARC
  8
APS_GEOMETRY
 10
-310.566
 20
-470.286
 40
24.177
 50
99.77
 51
110.925
  0
ARC
  8
APS_GEOMETRY
 10
-309.324
 20
-477.498
 40
31.496
 50
90.0
 51
99.77
  0
ARC
  8
APS_GEOMETRY
 10
-312.431
 20
-460.196
 40
4.807
 50
90.0
 51
119.604
  0
ARC
  8
APS_GEOMETRY
 10
-312.01
 20
-460.937
 40
5.659
 50
119.604
 51
146.842
  0
ARC
  8
APS_GEOMETRY
 10
-311.164
 20
-461.63
 40
6.748
 50
145.84
 51
164.055
  0
ARC
  8
APS_GEOMETRY
 10
-309.202
 20
-462.191
 40
8.788
 50
164.055
 51
180.0
  0
ARC
  8
APS_GEOMETRY
 10
-296.938
 20
-462.191
 40
21.053
 50
180.0
 51
189.977
  0
ARC
  8
APS_GEOMETRY
 10
-278.286
 20
-458.91
 40
39.991
 50
189.977
 51
197.211
  0
ARC
  8
APS_GEOMETRY
 10
-274.207
 20
-457.646
 40
44.261
 50
197.211
 51
203.76
  0
ARC
  8
APS_GEOMETRY
 10
-284.37
 20
-462.12
 40
33.157
 50
203.76
 51
211.329
  0
ARC
  8
APS_GEOMETRY
 10
-305.238
 20
-474.644
 40
8.821
 50
212.32
 51
224.441
  0
ARC
  8
APS_GEOMETRY
 10
-306.093
 20
-475.483
 40
7.623
 50
224.441
 51
237.484
  0
ARC
  8
APS_GEOMETRY
 10
-306.646
 20
-476.35
 40
6.595
 50
237.484
 51
252.416
  0
ARC
  8
APS_GEOMETRY
 10
-307.198
 20
-478.093
 40
4.766
 50
252.416
 51
270.0
  0
ARC
  8
APS_GEOMETRY
 10
-307.198
 20
-477.528
 40
5.331
 50
270.0
 51
294.953
  0
ARC
  8
APS_GEOMETRY
 10
-307.049
 20
-477.849
 40
4.977
 50
294.953
 51
320.793
  0
ARC
  8
APS_GEOMETRY
 10
-307.85
 20
-477.196
 40
6.011
 50
320.793
 51
342.777
  0
ARC
  8
APS_GEOMETRY
 10
-311.417
 20
-476.09
 40
9.746
 50
342.777
 51
0.0
  0
ARC
  8
APS_GEOMETRY
 10
-328.179
 20
-476.09
 40
26.507
 50
0.0
 51
8.499
  0
ARC
  8
APS_GEOMETRY
 10
-339.846
 20
-477.833
 40
38.304
 50
8.499
 51
15.566
  0
ARC
  8
APS_GEOMETRY
 10
-338.443
 20
-477.442
 40
36.848
 50
15.566
 51
22.909
  0
ARC
  8
APS_GEOMETRY
 10
-326.379
 20
-472.344
 40
23.751
 50
22.909
 51
32.057
  0
ARC
  8
APS_GEOMETRY
 10
-316.904
 20
-466.375
 40
12.552
 50
31.921
 51
42.51
  0
ARC
  8
APS_GEOMETRY
 10
-314.302
 20
-463.989
 40
9.022
 50
42.51
 51
55.008
  0
ARC
  8
APS_GEOMETRY
 10
-313.423
 20
-462.734
 40
7.489
 50
55.008
 51
69.88
  0
ARC
  8
APS_GEOMETRY
 10
-312.635
 20
-460.583
 40
5.198
 50
69.88
 51
87.754
  0
ARC
  8
APS_GEOMETRY
 10
-258.81
 20
-475.206
 40
2.42
 50
90.0
 51
115.837
  0
ARC
  8
APS_GEOMETRY
 10
-259.406
 20
-473.976
 40
1.053
 50
115.837
 51
155.462
  0
ARC
  8
APS_GEOMETRY
 10
-258.711
 20
-474.293
 40
1.817
 50
155.462
 51
168.366
  0
ARC
  8
APS_GEOMETRY
 10
-252.365
 20
-475.6
 40
8.296
 50
168.366
 51
174.395
  0
ARC
  8
APS_GEOMETRY
 10
-245.969
 20
-476.228
 40
14.722
 50
174.395
 51
177.813
  0
ARC
  8
APS_GEOMETRY
 10
-224.741
 20
-477.038
 40
35.966
 50
177.813
 51
180.0
  0
ARC
  8
APS_GEOMETRY
 10
-209.372
 20
-477.038
 40
51.335
 50
180.0
 51
184.62
  0
ARC
  8
APS_GEOMETRY
 10
-243.792
 20
-479.819
 40
16.803
 50
184.62
 51
192.7
  0
ARC
  8
APS_GEOMETRY
 10
-257.062
 20
-482.733
 40
3.218
 50
194.036
 51
205.821
  0
ARC
  8
APS_GEOMETRY
 10
-258.468
 20
-483.413
 40
1.656
 50
205.821
 51
222.274
  0
ARC
  8
APS_GEOMETRY
 10
-258.037
 20
-483.022
 40
2.238
 50
222.274
 51
234.605
  0
ARC
  8
APS_GEOMETRY
 10
-253.177
 20
-476.181
 40
10.63
 50
234.605
 51
240.255
  0
ARC
  8
APS_GEOMETRY
 10
-260.566
 20
-489.256
 40
4.389
 50
34.592
 51
61.189
  0
ARC
  8
APS_GEOMETRY
 10
-259.115
 20
-488.255
 40
2.627
 50
360.0
 51
34.592
  0
ARC
  8
APS_GEOMETRY
 10
-259.028
 20
-488.255
 40
2.539
 50
318.231
 51
360.0
  0
ARC
  8
APS_GEOMETRY
 10
-260.726
 20
-486.739
 40
4.816
 50
288.227
 51
318.231
  0
ARC
  8
APS_GEOMETRY
 10
-262.487
 20
-481.391
 40
10.446
 50
280.377
 51
288.227
  0
ARC
  8
APS_GEOMETRY
 10
-265.557
 20
-464.627
 40
27.489
 50
275.541
 51
280.377
  0
ARC
  8
APS_GEOMETRY
 10
-266.88
 20
-450.99
 40
41.19
 50
272.304
 51
275.541
  0
ARC
  8
APS_GEOMETRY
 10
-268.491
 20
-410.954
 40
81.259
 50
270.0
 51
272.304
  0
ARC
  8
APS_GEOMETRY
 10
-268.491
 20
-444.412
 40
47.8
 50
262.811
 51
270.0
  0
ARC
  8
APS_GEOMETRY
 10
-272.78
 20
-478.419
 40
13.524
 50
249.274
 51
262.811
  0
ARC
  8
APS_GEOMETRY
 10
-275.478
 20
-485.549
 40
5.901
 50
221.379
 51
249.274
  0
ARC
  8
APS_GEOMETRY
 10
-277.844
 20
-487.634
 40
2.747
 50
180.0
 51
221.379
  0
ARC
  8
APS_GEOMETRY
 10
-277.862
 20
-487.634
 40
2.728
 50
164.055
 51
180.0
  0
ARC
  8
APS_GEOMETRY
 10
-279.0
 20
-487.309
 40
1.546
 50
142.815
 51
164.055
  0
ARC
  8
APS_GEOMETRY
 10
-278.284
 20
-487.852
 40
2.444
 50
129.007
 51
142.815
  0
ARC
  8
APS_GEOMETRY
 10
-269.492
 20
-498.706
 40
16.412
 50
123.69
 51
129.007
  0
ARC
  8
APS_GEOMETRY
 10
-281.968
 20
-479.933
 40
6.128
 50
303.389
 51
319.022
  0
ARC
  8
APS_GEOMETRY
 10
-280.31
 20
-481.374
 40
3.932
 50
319.022
 51
338.575
  0
ARC
  8
APS_GEOMETRY
 10
-282.529
 20
-480.503
 40
6.316
 50
338.575
 51
351.049
  0
ARC
  8
APS_GEOMETRY
 10
-309.336
 20
-476.281
 40
33.452
 50
351.049
 51
356.46
  0
ARC
  8
APS_GEOMETRY
 10
-300.499
 20
-476.617
 40
24.613
 50
355.972
 51
358.68
  0
ARC
  8
APS_GEOMETRY
 10
-590.69
 20
-469.931
 40
314.881
 50
358.68
 51
359.437
  0
LINE
  8
APS_GEOMETRY
 10
-275.824
 11
-275.794
 20
-473.024
 21
-468.112
  0
LINE
  8
APS_GEOMETRY
 10
-275.794
 11
-275.783
 20
-468.112
 21
-461.7
  0
ARC
  8
APS_GEOMETRY
 10
-351.593
 20
-461.7
 40
75.809
 50
0.0
 51
1.717
  0
ARC
  8
APS_GEOMETRY
 10
-311.024
 20
-460.484
 40
35.223
 50
1.717
 51
4.236
  0
ARC
  8
APS_GEOMETRY
 10
-297.795
 20
-459.504
 40
21.957
 50
4.236
 51
8.269
  0
ARC
  8
APS_GEOMETRY
 10
-282.571
 20
-457.292
 40
6.573
 50
8.269
 51
15.642
  0
ARC
  8
APS_GEOMETRY
 10
-279.951
 20
-456.558
 40
3.853
 50
15.642
 51
39.417
  0
ARC
  8
APS_GEOMETRY
 10
-279.892
 20
-456.51
 40
3.776
 50
39.417
 51
63.435
  0
ARC
  8
APS_GEOMETRY
 10
-273.091
 20
-442.42
 40
11.869
 50
236.874
 51
244.486
  0
ARC
  8
APS_GEOMETRY
 10
-278.15
 20
-450.173
 40
2.611
 50
220.601
 51
236.874
  0
ARC
  8
APS_GEOMETRY
 10
-278.731
 20
-450.671
 40
1.847
 50
198.246
 51
220.601
  0
ARC
  8
APS_GEOMETRY
 10
-277.863
 20
-450.385
 40
2.761
 50
180.0
 51
198.246
  0
ARC
  8
APS_GEOMETRY
 10
-277.876
 20
-450.385
 40
2.748
 50
156.161
 51
180.0
  0
ARC
  8
APS_GEOMETRY
 10
-277.493
 20
-450.554
 40
3.167
 50
133.977
 51
156.161
  0
ARC
  8
APS_GEOMETRY
 10
-276.729
 20
-451.345
 40
4.266
 50
116.996
 51
133.977
  0
ARC
  8
APS_GEOMETRY
 10
-275.212
 20
-454.323
 40
7.608
 50
104.3
 51
116.996
  0
ARC
  8
APS_GEOMETRY
 10
-274.82
 20
-455.829
 40
9.164
 50
95.326
 51
104.349
  0
ARC
  8
APS_GEOMETRY
 10
-273.233
 20
-472.863
 40
26.272
 50
90.0
 51
95.326
  0
ARC
  8
APS_GEOMETRY
 10
-273.233
 20
-459.604
 40
13.013
 50
87.553
 51
90.0
  0
ARC
  8
APS_GEOMETRY
 10
-276.001
 20
-524.392
 40
77.86
 50
86.553
 51
87.553
  0
ARC
  8
APS_GEOMETRY
 10
-279.938
 20
-589.738
 40
143.325
 50
86.009
 51
86.553
  0
ARC
  8
APS_GEOMETRY
 10
-295.246
 20
-809.152
 40
363.271
 50
85.668
 51
86.009
  0
ARC
  8
APS_GEOMETRY
 10
-266.598
 20
-431.841
 40
15.125
 50
265.426
 51
268.531
  0
ARC
  8
APS_GEOMETRY
 10
-265.253
 20
-379.398
 40
67.586
 50
268.531
 51
270.0
  0
ARC
  8
APS_GEOMETRY
 10
-265.253
 20
-395.473
 40
51.511
 50
270.0
 51
271.637
  0
ARC
  8
APS_GEOMETRY
 10
-266.404
 20
-355.188
 40
91.812
 50
271.637
 51
272.862
  0
ARC
  8
APS_GEOMETRY
 10
-267.725
 20
-328.759
 40
118.274
 50
272.862
 51
273.814
  0
ARC
  8
APS_GEOMETRY
 10
-272.199
 20
-261.655
 40
185.527
 50
273.814
 51
274.574
  0
ARC
  8
APS_GEOMETRY
 10
-244.137
 20
-626.646
 40
180.543
 50
93.72
 51
94.214
  0
ARC
  8
APS_GEOMETRY
 10
-250.126
 20
-534.528
 40
88.23
 50
93.013
 51
93.72
  0
ARC
  8
APS_GEOMETRY
 10
-251.768
 20
-503.332
 40
56.991
 50
91.918
 51
93.013
  0
ARC
  8
APS_GEOMETRY
 10
-253.054
 20
-464.917
 40
18.554
 50
90.0
 51
91.918
  0
ARC
  8
APS_GEOMETRY
 10
-253.054
 20
-470.471
 40
24.109
 50
73.82
 51
90.0
  0
ARC
  8
APS_GEOMETRY
 10
-250.678
 20
-462.281
 40
15.581
 50
53.658
 51
73.82
  0
ARC
  8
APS_GEOMETRY
 10
-247.299
 20
-457.662
 40
9.857
 50
26.03
 51
53.569
  0
ARC
  8
APS_GEOMETRY
 10
-248.336
 20
-458.168
 40
11.012
 50
360.0
 51
26.03
  0
ARC
  8
APS_GEOMETRY
 10
-248.767
 20
-458.168
 40
11.443
 50
345.282
 51
360.0
  0
ARC
  8
APS_GEOMETRY
 10
-247.666
 20
-458.457
 40
10.305
 50
329.767
 51
345.282
  0
ARC
  8
APS_GEOMETRY
 10
-247.043
 20
-458.821
 40
9.583
 50
313.168
 51
329.767
  0
ARC
  8
APS_GEOMETRY
 10
-246.812
 20
-459.067
 40
9.246
 50
296.267
 51
313.168
  0
ARC
  8
APS_GEOMETRY
 10
-241.549
 20
-469.701
 40
2.62
 50
116.565
 51
139.899
  0
ARC
  8
APS_GEOMETRY
 10
-242.855
 20
-468.601
 40
0.911
 50
139.899
 51
180.0
  0
ARC
  8
APS_GEOMETRY
 10
-242.754
 20
-468.601
 40
1.013
 50
180.0
 51
226.193
  0
ARC
  8
APS_GEOMETRY
 10
-240.883
 20
-466.65
 40
3.715
 50
226.193
 51
249.829
  0
ARC
  8
APS_GEOMETRY
 10
-246.244
 20
-481.411
 40
11.989
 50
53.249
 51
70.105
  0
ARC
  8
APS_GEOMETRY
 10
-243.809
 20
-478.15
 40
7.919
 50
32.471
 51
53.249
  0
ARC
  8
APS_GEOMETRY
 10
-244.944
 20
-478.872
 40
9.264
 50
23.305
 51
32.471
  0
ARC
  8
APS_GEOMETRY
 10
-251.954
 20
-481.892
 40
16.897
 50
16.521
 51
23.305
  0
ARC
  8
APS_GEOMETRY
 10
-257.42
 20
-483.513
 40
22.598
 50
11.429
 51
16.521
  0
ARC
  8
APS_GEOMETRY
 10
-272.909
 20
-486.645
 40
38.401
 50
7.524
 51
11.429
  0
ARC
  8
APS_GEOMETRY
 10
-221.581
 20
-479.809
 40
13.38
 50
187.765
 51
196.914
  0
ARC
  8
APS_GEOMETRY
 10
-232.524
 20
-483.136
 40
1.942
 50
196.914
 51
221.082
  0
ARC
  8
APS_GEOMETRY
 10
-232.483
 20
-483.1
 40
1.997
 50
221.082
 51
244.607
  0
ARC
  8
APS_GEOMETRY
 10
-227.809
 20
-473.255
 40
12.896
 50
244.607
 51
253.811
  0
ARC
  8
APS_GEOMETRY
 10
-231.918
 20
-487.265
 40
1.705
 50
51.45
 51
72.474
  0
ARC
  8
APS_GEOMETRY
 10
-232.34
 20
-487.794
 40
2.382
 50
33.69
 51
51.45
  0
ARC
  8
APS_GEOMETRY
 10
-232.439
 20
-487.86
 40
2.5
 50
16.639
 51
33.69
  0
ARC
  8
APS_GEOMETRY
 10
-232.558
 20
-487.896
 40
2.625
 50
360.0
 51
16.639
  0
ARC
  8
APS_GEOMETRY
 10
-232.595
 20
-487.896
 40
2.662
 50
338.993
 51
360.0
  0
ARC
  8
APS_GEOMETRY
 10
-234.22
 20
-487.272
 40
4.402
 50
322.696
 51
338.993
  0
ARC
  8
APS_GEOMETRY
 10
-234.825
 20
-486.81
 40
5.164
 50
308.603
 51
322.696
  0
ARC
  8
APS_GEOMETRY
 10
-235.242
 20
-486.288
 40
5.831
 50
295.346
 51
308.603
  0
ARC
  8
APS_GEOMETRY
 10
-237.433
 20
-481.462
 40
11.131
 50
279.583
 51
294.905
  0
ARC
  8
APS_GEOMETRY
 10
-240.3
 20
-464.481
 40
28.353
 50
270.0
 51
279.583
  0
ARC
  8
APS_GEOMETRY
 10
-240.3
 20
-472.162
 40
20.672
 50
261.247
 51
270.0
  0
ARC
  8
APS_GEOMETRY
 10
-241.624
 20
-480.763
 40
11.97
 50
249.737
 51
261.247
  0
ARC
  8
APS_GEOMETRY
 10
-242.495
 20
-483.12
 40
9.457
 50
235.345
 51
249.737
  0
ARC
  8
APS_GEOMETRY
 10
-243.594
 20
-484.71
 40
7.524
 50
219.198
 51
235.345
  0
ARC
  8
APS_GEOMETRY
 10
-241.281
 20
-482.738
 40
10.563
 50
209.076
 51
219.56
  0
ARC
  8
APS_GEOMETRY
 10
-235.94
 20
-479.768
 40
16.674
 50
200.735
 51
209.076
  0
ARC
  8
APS_GEOMETRY
 10
-228.571
 20
-476.979
 40
24.554
 50
197.881
 51
200.735
  0
ARC
  8
APS_GEOMETRY
 10
-198.289
 20
-467.209
 40
56.372
 50
195.997
 51
197.881
  0
ARC
  8
APS_GEOMETRY
 10
-175.907
 20
-460.792
 40
79.656
 50
194.664
 51
195.997
  0
ARC
  8
APS_GEOMETRY
 10
-113.912
 20
-444.57
 40
143.738
 50
193.671
 51
194.664
  0
ARC
  8
APS_GEOMETRY
 10
-271.122
 20
-482.79
 40
18.051
 50
13.61
 51
23.585
  0
ARC
  8
APS_GEOMETRY
 10
-259.303
 20
-477.63
 40
5.155
 50
23.585
 51
42.31
  0
ARC
  8
APS_GEOMETRY
 10
-258.231
 20
-476.654
 40
3.705
 50
42.31
 51
67.521
  0
ARC
  8
APS_GEOMETRY
 10
-259.079
 20
-478.704
 40
5.924
 50
67.521
 51
87.397
  0
LINE
  8
APS_GEOMETRY
 10
-260.674
 11
-261.034
 20
-456.108
 21
-463.728
  0
LINE
  8
APS_GEOMETRY
 10
-261.034
 11
-261.034
 20
-463.728
 21
-463.85
  0
LINE
  8
APS_GEOMETRY
 10
-261.034
 11
-261.034
 20
-463.85
 21
-464.022
  0
ARC
  8
APS_GEOMETRY
 10
-255.74
 20
-464.022
 40
5.294
 50
180.0
 51
192.339
  0
ARC
  8
APS_GEOMETRY
 10
-259.949
 20
-464.943
 40
0.986
 50
192.339
 51
221.186
  0
ARC
  8
APS_GEOMETRY
 10
-260.049
 20
-465.031
 40
0.852
 50
221.186
 51
253.872
  0
ARC
  8
APS_GEOMETRY
 10
-259.334
 20
-462.555
 40
3.429
 50
253.872
 51
270.0
  0
ARC
  8
APS_GEOMETRY
 10
-259.334
 20
-458.014
 40
7.971
 50
270.0
 51
289.569
  0
ARC
  8
APS_GEOMETRY
 10
-257.885
 20
-462.09
 40
3.644
 50
289.569
 51
318.681
  0
ARC
  8
APS_GEOMETRY
 10
-258.276
 20
-461.746
 40
4.166
 50
318.681
 51
344.628
  0
ARC
  8
APS_GEOMETRY
 10
-265.579
 20
-459.738
 40
11.74
 50
344.628
 51
0.0
  0
ARC
  8
APS_GEOMETRY
 10
-262.107
 20
-459.738
 40
8.268
 50
0.0
 51
35.369
  0
ARC
  8
APS_GEOMETRY
 10
-258.32
 20
-457.049
 40
3.623
 50
35.369
 51
90.0
  0
ARC
  8
APS_GEOMETRY
 10
-258.32
 20
-457.089
 40
3.663
 50
90.0
 51
108.435
  0
ARC
  8
APS_GEOMETRY
 10
-259.032
 20
-454.951
 40
1.409
 50
108.435
 51
138.366
  0
ARC
  8
APS_GEOMETRY
 10
-258.841
 20
-455.121
 40
1.665
 50
138.366
 51
164.291
  0
ARC
  8
APS_GEOMETRY
 10
-254.356
 20
-456.383
 40
6.324
 50
164.291
 51
177.51
  0
LINE
  8
APS_GEOMETRY
 10
-202.456
 11
-186.169
 20
-448.488
 21
-462.747
  0
ARC
  8
APS_GEOMETRY
 10
-170.937
 20
-445.267
 40
23.185
 50
228.93
 51
232.674
  0
ARC
  8
APS_GEOMETRY
 10
-179.411
 20
-456.38
 40
9.21
 50
232.674
 51
238.617
  0
ARC
  8
APS_GEOMETRY
 10
-181.543
 20
-459.875
 40
5.116
 50
238.617
 51
249.131
  0
ARC
  8
APS_GEOMETRY
 10
-182.899
 20
-463.432
 40
1.309
 50
249.131
 51
270.0
  0
ARC
  8
APS_GEOMETRY
 10
-182.899
 20
-463.594
 40
1.148
 50
270.0
 51
334.898
  0
ARC
  8
APS_GEOMETRY
 10
-188.197
 20
-461.111
 40
6.999
 50
334.898
 51
0.0
  0
ARC
  8
APS_GEOMETRY
 10
-239.428
 20
-461.111
 40
58.23
 50
0.0
 51
2.026
  0
ARC
  8
APS_GEOMETRY
 10
-208.541
 20
-460.019
 40
27.324
 50
2.026
 51
4.984
  0
ARC
  8
APS_GEOMETRY
 10
-198.442
 20
-459.138
 40
17.186
 50
4.984
 51
9.673
  0
ARC
  8
APS_GEOMETRY
 10
-186.803
 20
-457.154
 40
5.379
 50
9.673
 51
18.06
  0
ARC
  8
APS_GEOMETRY
 10
-185.031
 20
-456.576
 40
3.515
 50
18.06
 51
42.397
  0
ARC
  8
APS_GEOMETRY
 10
-185.603
 20
-457.098
 40
4.29
 50
42.397
 51
64.398
  0
ARC
  8
APS_GEOMETRY
 10
-180.379
 20
-446.312
 40
7.695
 50
233.633
 51
244.026
  0
ARC
  8
APS_GEOMETRY
 10
-183.224
 20
-450.176
 40
2.896
 50
216.656
 51
233.633
  0
ARC
  8
APS_GEOMETRY
 10
-183.661
 20
-450.501
 40
2.353
 50
196.082
 51
216.656
  0
ARC
  8
APS_GEOMETRY
 10
-182.237
 20
-450.09
 40
3.835
 50
180.0
 51
196.082
  0
ARC
  8
APS_GEOMETRY
 10
-183.283
 20
-450.09
 40
2.788
 50
133.202
 51
180.0
  0
ARC
  8
APS_GEOMETRY
 10
-181.085
 20
-452.432
 40
6.0
 50
101.788
 51
133.202
  0
ARC
  8
APS_GEOMETRY
 10
-180.572
 20
-454.728
 40
8.353
 50
96.633
 51
102.011
  0
ARC
  8
APS_GEOMETRY
 10
-178.713
 20
-470.717
 40
24.449
 50
93.489
 51
96.633
  0
ARC
  8
APS_GEOMETRY
 10
-177.917
 20
-483.775
 40
37.532
 50
91.439
 51
93.489
  0
ARC
  8
APS_GEOMETRY
 10
-176.947
 20
-522.37
 40
76.138
 50
90.0
 51
91.439
  0
ARC
  8
APS_GEOMETRY
 10
-176.947
 20
-517.196
 40
70.964
 50
87.994
 51
90.0
  0
ARC
  8
APS_GEOMETRY
 10
-175.657
 20
-480.355
 40
34.101
 50
85.101
 51
87.994
  0
ARC
  8
APS_GEOMETRY
 10
-174.61
 20
-468.139
 40
21.84
 50
80.595
 51
85.101
  0
ARC
  8
APS_GEOMETRY
 10
-172.222
 20
-453.725
 40
7.23
 50
72.759
 51
80.595
  0
ARC
  8
APS_GEOMETRY
 10
-171.499
 20
-451.484
 40
4.876
 50
40.956
 51
73.072
  0
ARC
  8
APS_GEOMETRY
 10
-170.119
 20
-450.287
 40
3.048
 50
360.0
 51
40.956
  0
ARC
  8
APS_GEOMETRY
 10
-169.935
 20
-450.287
 40
2.865
 50
322.573
 51
360.0
  0
ARC
  8
APS_GEOMETRY
 10
-171.44
 20
-449.135
 40
4.76
 50
293.749
 51
322.573
  0
ARC
  8
APS_GEOMETRY
 10
-165.396
 20
-463.016
 40
10.38
 50
113.429
 51
119.291
  0
ARC
  8
APS_GEOMETRY
 10
-169.435
 20
-455.815
 40
2.124
 50
119.291
 51
132.274
  0
ARC
  8
APS_GEOMETRY
 10
-169.668
 20
-455.559
 40
1.778
 50
132.274
 51
147.653
  0
ARC
  8
APS_GEOMETRY
 10
-167.986
 20
-456.625
 40
3.769
 50
147.653
 51
158.199
  0
ARC
  8
APS_GEOMETRY
 10
-165.427
 20
-457.703
 40
6.546
 50
157.751
 51
167.885
  0
ARC
  8
APS_GEOMETRY
 10
-151.807
 20
-460.627
 40
20.477
 50
167.885
 51
173.61
  0
ARC
  8
APS_GEOMETRY
 10
-139.76
 20
-461.976
 40
32.599
 50
173.61
 51
177.221
  0
ARC
  8
APS_GEOMETRY
 10
-102.604
 20
-463.78
 40
69.798
 50
177.221
 51
179.689
  0
LINE
  8
APS_GEOMETRY
 10
-172.401
 11
-172.401
 20
-463.401
 21
-474.062
  0
ARC
  8
APS_GEOMETRY
 10
262.964
 20
-474.062
 40
435.365
 50
180.0
 51
180.161
  0
ARC
  8
APS_GEOMETRY
 10
640.783
 20
-472.998
 40
813.186
 50
180.161
 51
180.279
  0
LINE
  8
APS_GEOMETRY
 10
-172.393
 11
-172.383
 20
-476.964
 21
-478.753
  0
LINE
  8
APS_GEOMETRY
 10
-172.383
 11
-172.368
 20
-478.753
 21
-480.766
  0
ARC
  8
APS_GEOMETRY
 10
-250.052
 20
-481.208
 40
77.685
 50
358.204
 51
0.326
  0
ARC
  8
APS_GEOMETRY
 10
-213.098
 20
-482.366
 40
40.713
 50
355.274
 51
358.204
  0
ARC
  8
APS_GEOMETRY
 10
-200.236
 20
-483.43
 40
27.806
 50
350.991
 51
355.274
  0
ARC
  8
APS_GEOMETRY
 10
-183.857
 20
-486.026
 40
11.223
 50
344.249
 51
350.991
  0
ARC
  8
APS_GEOMETRY
 10
-178.321
 20
-487.607
 40
5.466
 50
314.415
 51
344.445
  0
ARC
  8
APS_GEOMETRY
 10
-176.293
 20
-489.677
 40
2.568
 50
270.0
 51
314.415
  0
ARC
  8
APS_GEOMETRY
 10
-176.293
 20
-488.085
 40
4.16
 50
256.342
 51
270.0
  0
ARC
  8
APS_GEOMETRY
 10
-176.589
 20
-489.305
 40
2.905
 50
239.982
 51
256.342
  0
ARC
  8
APS_GEOMETRY
 10
-175.295
 20
-487.065
 40
5.492
 50
231.153
 51
239.982
  0
ARC
  8
APS_GEOMETRY
 10
-153.546
 20
-460.06
 40
40.166
 50
227.891
 51
231.153
  0
LINE
  8
APS_GEOMETRY
 10
-180.479
 11
-199.872
 20
-489.858
 21
-472.492
  0
ARC
  8
APS_GEOMETRY
 10
-207.343
 20
-480.764
 40
11.146
 50
47.911
 51
61.468
  0
ARC
  8
APS_GEOMETRY
 10
-203.241
 20
-473.218
 40
2.557
 50
61.468
 51
90.0
  0
ARC
  8
APS_GEOMETRY
 10
-203.241
 20
-471.781
 40
1.12
 50
90.0
 51
133.195
  0
ARC
  8
APS_GEOMETRY
 10
-202.136
 20
-472.957
 40
2.733
 50
133.195
 51
160.454
  0
ARC
  8
APS_GEOMETRY
 10
-198.592
 20
-474.215
 40
6.494
 50
160.454
 51
173.251
  0
ARC
  8
APS_GEOMETRY
 10
-181.925
 20
-476.188
 40
23.278
 50
173.251
 51
180.0
  0
ARC
  8
APS_GEOMETRY
 10
-136.585
 20
-476.188
 40
68.618
 50
180.0
 51
181.897
  0
ARC
  8
APS_GEOMETRY
 10
-172.927
 20
-477.391
 40
32.255
 50
181.897
 51
184.664
  0
ARC
  8
APS_GEOMETRY
 10
-184.839
 20
-478.363
 40
20.304
 50
184.664
 51
189.048
  0
ARC
  8
APS_GEOMETRY
 10
-198.64
 20
-480.561
 40
6.329
 50
189.048
 51
196.905
  0
ARC
  8
APS_GEOMETRY
 10
-200.831
 20
-481.227
 40
4.04
 50
196.905
 51
220.253
  0
ARC
  8
APS_GEOMETRY
 10
-200.787
 20
-481.19
 40
4.097
 50
220.253
 51
243.435
  0
ARC
  8
APS_GEOMETRY
 10
-204.784
 20
-489.25
 40
4.901
 50
37.921
 51
63.778
  0
ARC
  8
APS_GEOMETRY
 10
-202.752
 20
-487.667
 40
2.324
 50
360.0
 51
37.921
  0
ARC
  8
APS_GEOMETRY
 10
-203.655
 20
-487.667
 40
3.227
 50
324.268
 51
360.0
  0
ARC
  8
APS_GEOMETRY
 10
-204.863
 20
-486.798
 40
4.715
 50
294.86
 51
324.268
  0
ARC
  8
APS_GEOMETRY
 10
-206.86
 20
-482.488
 40
9.465
 50
278.78
 51
294.86
  0
ARC
  8
APS_GEOMETRY
 10
-210.239
 20
-460.608
 40
31.604
 50
270.0
 51
278.78
  0
ARC
  8
APS_GEOMETRY
 10
-210.239
 20
-466.28
 40
25.933
 50
260.383
 51
270.0
  0
ARC
  8
APS_GEOMETRY
 10
-212.972
 20
-482.409
 40
9.574
 50
244.522
 51
260.383
  0
ARC
  8
APS_GEOMETRY
 10
-214.952
 20
-486.563
 40
4.972
 50
216.549
 51
244.522
  0
ARC
  8
APS_GEOMETRY
 10
-216.573
 20
-487.765
 40
2.954
 50
180.0
 51
216.549
  0
ARC
  8
APS_GEOMETRY
 10
-215.52
 20
-487.765
 40
4.007
 50
164.65
 51
180.0
  0
ARC
  8
APS_GEOMETRY
 10
-217.806
 20
-487.137
 40
1.637
 50
140.528
 51
164.65
  0
ARC
  8
APS_GEOMETRY
 10
-216.881
 20
-487.899
 40
2.835
 50
126.135
 51
140.528
  0
ARC
  8
APS_GEOMETRY
 10
-207.226
 20
-501.121
 40
19.207
 50
120.619
 51
126.135
  0
ARC
  8
APS_GEOMETRY
 10
-218.672
 20
-481.8
 40
3.251
 50
300.784
 51
330.068
  0
ARC
  8
APS_GEOMETRY
 10
-220.838
 20
-480.553
 40
5.749
 50
330.068
 51
351.983
  0
ARC
  8
APS_GEOMETRY
 10
-257.201
 20
-475.813
 40
42.42
 50
352.493
 51
355.365
  0
ARC
  8
APS_GEOMETRY
 10
-301.064
 20
-472.256
 40
86.427
 50
355.365
 51
357.376
  0
ARC
  8
APS_GEOMETRY
 10
-331.776
 20
-470.849
 40
117.171
 50
357.376
 51
358.861
  0
ARC
  8
APS_GEOMETRY
 10
-413.603
 20
-469.222
 40
199.014
 50
358.861
 51
0.0
  0
ARC
  8
APS_GEOMETRY
 10
-340.013
 20
-469.222
 40
125.424
 50
360.0
 51
1.926
  0
ARC
  8
APS_GEOMETRY
 10
-281.627
 20
-467.258
 40
67.005
 50
1.926
 51
4.562
  0
ARC
  8
APS_GEOMETRY
 10
-261.039
 20
-465.616
 40
46.352
 50
4.562
 51
8.366
  0
ARC
  8
APS_GEOMETRY
 10
-234.263
 20
-461.678
 40
19.288
 50
8.366
 51
14.265
  0
ARC
  8
APS_GEOMETRY
 10
-224.138
 20
-459.117
 40
8.844
 50
14.349
 51
23.629
  0
ARC
  8
APS_GEOMETRY
 10
-219.004
 20
-456.871
 40
3.24
 50
23.629
 51
38.991
  0
ARC
  8
APS_GEOMETRY
 10
-218.985
 20
-456.856
 40
3.215
 50
38.991
 51
54.462
  0
ARC
  8
APS_GEOMETRY
 10
-221.989
 20
-461.061
 40
8.384
 50
54.462
 51
64.026
  0
ARC
  8
APS_GEOMETRY
 10
-213.511
 20
-443.694
 40
10.942
 50
235.472
 51
243.947
  0
ARC
  8
APS_GEOMETRY
 10
-217.89
 20
-450.059
 40
3.216
 50
219.806
 51
235.472
  0
ARC
  8
APS_GEOMETRY
 10
-218.553
 20
-450.612
 40
2.353
 50
198.939
 51
219.806
  0
ARC
  8
APS_GEOMETRY
 10
-218.082
 20
-450.45
 40
2.851
 50
180.0
 51
198.939
  0
ARC
  8
APS_GEOMETRY
 10
-218.221
 20
-450.45
 40
2.712
 50
126.254
 51
180.0
  0
ARC
  8
APS_GEOMETRY
 10
-214.082
 20
-456.094
 40
9.711
 50
98.616
 51
126.254
  0
ARC
  8
APS_GEOMETRY
 10
-213.499
 20
-460.758
 40
14.41
 50
94.456
 51
98.13
  0
ARC
  8
APS_GEOMETRY
 10
-211.251
 20
-489.61
 40
43.349
 50
92.337
 51
94.456
  0
ARC
  8
APS_GEOMETRY
 10
-210.293
 20
-513.088
 40
66.847
 50
90.963
 51
92.337
  0
ARC
  8
APS_GEOMETRY
 10
-209.127
 20
-582.437
 40
136.206
 50
90.0
 51
90.963
  0
ARC
  8
APS_GEOMETRY
 10
-209.127
 20
-471.053
 40
24.822
 50
83.928
 51
90.0
  0
ARC
  8
APS_GEOMETRY
 10
-207.091
 20
-451.916
 40
5.577
 50
71.095
 51
83.928
  0
ARC
  8
APS_GEOMETRY
 10
-206.905
 20
-451.373
 40
5.003
 50
56.848
 51
71.095
  0
ARC
  8
APS_GEOMETRY
 10
-212.408
 20
-459.797
 40
15.065
 50
48.652
 51
56.848
  0
ARC
  8
APS_GEOMETRY
 10
-143.648
 20
-486.839
 40
40.608
 50
84.71
 51
90.0
  0
ARC
  8
APS_GEOMETRY
 10
-142.904
 20
-478.799
 40
32.533
 50
78.799
 51
84.71
  0
ARC
  8
APS_GEOMETRY
 10
-138.087
 20
-454.456
 40
7.718
 50
49.783
 51
78.771
  0
ARC
  8
APS_GEOMETRY
 10
-134.866
 20
-450.646
 40
2.729
 50
360.0
 51
49.783
  0
ARC
  8
APS_GEOMETRY
 10
-135.156
 20
-450.646
 40
3.02
 50
342.759
 51
360.0
  0
ARC
  8
APS_GEOMETRY
 10
-133.581
 20
-451.135
 40
1.37
 50
317.045
 51
342.759
  0
ARC
  8
APS_GEOMETRY
 10
-134.342
 20
-450.427
 40
2.41
 50
301.817
 51
317.045
  0
ARC
  8
APS_GEOMETRY
 10
-145.598
 20
-432.285
 40
23.76
 50
296.98
 51
301.817
  0
ARC
  8
APS_GEOMETRY
 10
-133.596
 20
-455.903
 40
2.733
 50
116.565
 51
149.078
  0
ARC
  8
APS_GEOMETRY
 10
-130.077
 20
-458.011
 40
6.835
 50
149.078
 51
169.469
  0
ARC
  8
APS_GEOMETRY
 10
-122.573
 20
-459.406
 40
14.468
 50
169.469
 51
174.598
  0
ARC
  8
APS_GEOMETRY
 10
-83.909
 20
-463.062
 40
53.304
 50
174.598
 51
177.269
  0
ARC
  8
APS_GEOMETRY
 10
-49.911
 20
-464.684
 40
87.341
 50
177.269
 51
178.901
  0
ARC
  8
APS_GEOMETRY
 10
55.396
 20
-466.704
 40
192.667
 50
178.901
 51
180.0
  0
ARC
  8
APS_GEOMETRY
 10
269.386
 20
-466.704
 40
406.657
 50
180.0
 51
180.88
  0
ARC
  8
APS_GEOMETRY
 10
18.866
 20
-470.552
 40
156.107
 50
180.88
 51
182.3
  0
ARC
  8
APS_GEOMETRY
 10
-54.36
 20
-473.493
 40
82.823
 50
182.3
 51
184.974
  0
ARC
  8
APS_GEOMETRY
 10
-124.181
 20
-479.569
 40
12.738
 50
184.974
 51
191.793
  0
ARC
  8
APS_GEOMETRY
 10
-132.291
 20
-481.12
 40
4.484
 50
193.57
 51
205.787
  0
ARC
  8
APS_GEOMETRY
 10
-134.308
 20
-482.095
 40
2.244
 50
205.787
 51
223.091
  0
ARC
  8
APS_GEOMETRY
 10
-133.796
 20
-481.616
 40
2.944
 50
223.091
 51
236.441
  0
ARC
  8
APS_GEOMETRY
 10
-129.513
 20
-475.159
 40
10.693
 50
236.441
 51
243.435
  0
ARC
  8
APS_GEOMETRY
 10
-136.071
 20
-488.63
 40
4.291
 50
37.185
 51
65.556
  0
ARC
  8
APS_GEOMETRY
 10
-134.672
 20
-487.569
 40
2.535
 50
360.0
 51
37.185
  0
ARC
  8
APS_GEOMETRY
 10
-134.749
 20
-487.569
 40
2.612
 50
312.039
 51
360.0
  0
ARC
  8
APS_GEOMETRY
 10
-137.859
 20
-484.118
 40
7.258
 50
283.815
 51
312.039
  0
ARC
  8
APS_GEOMETRY
 10
-143.0
 20
-462.813
 40
29.174
 50
279.273
 51
283.627
  0
ARC
  8
APS_GEOMETRY
 10
-145.055
 20
-450.227
 40
41.926
 50
275.641
 51
279.273
  0
ARC
  8
APS_GEOMETRY
 10
-145.84
 20
-442.274
 40
49.919
 50
272.588
 51
275.641
  0
ARC
  8
APS_GEOMETRY
 10
-146.722
 20
-422.757
 40
69.456
 50
270.0
 51
272.588
  0
ARC
  8
APS_GEOMETRY
 10
-146.722
 20
-450.318
 40
41.894
 50
262.774
 51
270.0
  0
ARC
  8
APS_GEOMETRY
 10
-150.499
 20
-480.106
 40
11.868
 50
249.175
 51
262.774
  0
ARC
  8
APS_GEOMETRY
 10
-152.872
 20
-486.344
 40
5.194
 50
221.23
 51
249.175
  0
ARC
  8
APS_GEOMETRY
 10
-154.941
 20
-488.157
 40
2.443
 50
180.0
 51
221.23
  0
ARC
  8
APS_GEOMETRY
 10
-155.342
 20
-488.157
 40
2.041
 50
142.696
 51
180.0
  0
ARC
  8
APS_GEOMETRY
 10
-152.121
 20
-490.612
 40
6.091
 50
121.357
 51
142.696
  0
ARC
  8
APS_GEOMETRY
 10
-157.564
 20
-481.697
 40
4.354
 50
301.477
 51
324.728
  0
ARC
  8
APS_GEOMETRY
 10
-156.984
 20
-482.107
 40
3.643
 50
324.728
 51
350.181
  0
ARC
  8
APS_GEOMETRY
 10
-175.225
 20
-479.09
 40
22.132
 50
350.538
 51
355.423
  0
ARC
  8
APS_GEOMETRY
 10
-250.177
 20
-473.09
 40
97.324
 50
355.423
 51
357.752
  0
ARC
  8
APS_GEOMETRY
 10
-319.77
 20
-470.358
 40
166.971
 50
357.752
 51
359.111
  0
ARC
  8
APS_GEOMETRY
 10
-542.517
 20
-466.9
 40
389.744
 50
359.111
 51
0.0
  0
ARC
  8
APS_GEOMETRY
 10
-287.996
 20
-466.9
 40
135.223
 50
0.0
 51
1.773
  0
ARC
  8
APS_GEOMETRY
 10
-208.636
 20
-464.444
 40
55.825
 50
1.773
 51
4.532
  0
ARC
  8
APS_GEOMETRY
 10
-184.515
 20
-462.532
 40
31.629
 50
4.532
 51
9.384
  0
ARC
  8
APS_GEOMETRY
 10
-160.022
 20
-458.484
 40
6.803
 50
9.384
 51
19.855
  0
ARC
  8
APS_GEOMETRY
 10
-156.78
 20
-457.251
 40
3.336
 50
18.853
 51
42.158
  0
ARC
  8
APS_GEOMETRY
 10
-159.558
 20
-459.767
 40
7.084
 50
42.158
 51
58.092
  0
ARC
  8
APS_GEOMETRY
 10
-147.33
 20
-440.87
 40
15.426
 50
230.711
 51
236.634
  0
ARC
  8
APS_GEOMETRY
 10
-155.011
 20
-450.258
 40
3.296
 50
217.875
 51
230.711
  0
ARC
  8
APS_GEOMETRY
 10
-156.064
 20
-451.077
 40
1.962
 50
196.928
 51
217.875
  0
ARC
  8
APS_GEOMETRY
 10
-155.078
 20
-450.777
 40
2.992
 50
180.0
 51
196.928
  0
ARC
  8
APS_GEOMETRY
 10
-155.723
 20
-450.777
 40
2.347
 50
148.791
 51
180.0
  0
ARC
  8
APS_GEOMETRY
 10
-155.108
 20
-451.15
 40
3.067
 50
121.569
 51
148.791
  0
ARC
  8
APS_GEOMETRY
 10
-154.002
 20
-452.949
 40
5.178
 50
112.806
 51
121.569
  0
ARC
  8
APS_GEOMETRY
 10
-151.015
 20
-460.053
 40
12.885
 50
107.254
 51
112.806
  0
ARC
  8
APS_GEOMETRY
 10
-149.185
 20
-465.945
 40
19.054
 50
103.487
 51
107.254
  0
ARC
  8
APS_GEOMETRY
 10
-144.995
 20
-483.417
 40
37.022
 50
100.784
 51
103.487
  0
ARC
  8
APS_GEOMETRY
 10
-143.682
 20
-488.248
 40
42.015
 50
95.643
 51
101.31
  0
ARC
  8
APS_GEOMETRY
 10
-143.648
 20
-488.594
 40
42.362
 50
90.0
 51
95.643
  0
ARC
  8
APS_GEOMETRY
 10
-102.978
 20
-467.266
 40
21.264
 50
77.257
 51
90.0
  0
ARC
  8
APS_GEOMETRY
 10
-103.194
 20
-468.222
 40
22.243
 50
64.799
 51
77.257
  0
ARC
  8
APS_GEOMETRY
 10
-84.877
 20
-429.223
 40
20.843
 50
244.885
 51
251.175
  0
ARC
  8
APS_GEOMETRY
 10
-90.845
 20
-446.731
 40
2.346
 50
251.175
 51
270.0
  0
ARC
  8
APS_GEOMETRY
 10
-90.845
 20
-445.27
 40
3.806
 50
270.0
 51
278.82
  0
ARC
  8
APS_GEOMETRY
 10
-93.304
 20
-429.423
 40
19.844
 50
278.82
 51
282.68
  0
ARC
  8
APS_GEOMETRY
 10
-88.159
 20
-452.203
 40
3.511
 50
95.906
 51
102.995
  0
ARC
  8
APS_GEOMETRY
 10
-88.0
 20
-453.74
 40
5.055
 50
90.0
 51
95.906
  0
ARC
  8
APS_GEOMETRY
 10
-88.0
 20
-452.04
 40
3.356
 50
62.447
 51
90.0
  0
ARC
  8
APS_GEOMETRY
 10
-88.597
 20
-453.183
 40
4.645
 50
39.094
 51
62.447
  0
ARC
  8
APS_GEOMETRY
 10
-94.831
 20
-458.397
 40
12.772
 50
18.435
 51
39.611
  0
ARC
  8
APS_GEOMETRY
 10
-98.657
 20
-459.673
 40
16.806
 50
360.0
 51
18.435
  0
ARC
  8
APS_GEOMETRY
 10
-90.185
 20
-459.673
 40
8.333
 50
334.877
 51
360.0
  0
ARC
  8
APS_GEOMETRY
 10
-87.679
 20
-460.848
 40
5.565
 50
304.007
 51
334.877
  0
ARC
  8
APS_GEOMETRY
 10
-87.72
 20
-460.73
 40
5.686
 50
286.39
 51
303.69
  0
ARC
  8
APS_GEOMETRY
 10
-87.902
 20
-460.112
 40
6.33
 50
270.0
 51
286.39
  0
ARC
  8
APS_GEOMETRY
 10
-87.902
 20
-460.186
 40
6.257
 50
255.155
 51
270.0
  0
ARC
  8
APS_GEOMETRY
 10
-88.587
 20
-462.771
 40
3.581
 50
235.491
 51
255.155
  0
ARC
  8
APS_GEOMETRY
 10
-88.243
 20
-462.271
 40
4.189
 50
218.48
 51
235.491
  0
ARC
  8
APS_GEOMETRY
 10
-82.622
 20
-457.803
 40
11.369
 50
208.179
 51
218.48
  0
ARC
  8
APS_GEOMETRY
 10
-140.247
 20
-489.082
 40
54.198
 50
28.56
 51
31.664
  0
ARC
  8
APS_GEOMETRY
 10
-105.035
 20
-467.365
 40
12.827
 50
31.664
 51
38.047
  0
ARC
  8
APS_GEOMETRY
 10
-102.474
 20
-465.362
 40
9.576
 50
38.047
 51
46.56
  0
ARC
  8
APS_GEOMETRY
 10
-103.805
 20
-466.767
 40
11.512
 50
46.56
 51
54.324
  0
ARC
  8
APS_GEOMETRY
 10
-104.573
 20
-468.089
 40
13.034
 50
54.968
 51
71.48
  0
ARC
  8
APS_GEOMETRY
 10
-103.73
 20
-465.572
 40
10.38
 50
71.48
 51
90.0
  0
ARC
  8
APS_GEOMETRY
 10
-103.73
 20
-462.443
 40
7.251
 50
90.0
 51
114.63
  0
ARC
  8
APS_GEOMETRY
 10
-104.094
 20
-461.649
 40
6.377
 50
114.63
 51
140.921
  0
ARC
  8
APS_GEOMETRY
 10
-103.019
 20
-462.522
 40
7.763
 50
140.921
 51
163.13
  0
ARC
  8
APS_GEOMETRY
 10
-97.641
 20
-464.153
 40
13.382
 50
163.13
 51
180.0
  0
ARC
  8
APS_GEOMETRY
 10
-90.668
 20
-464.153
 40
20.355
 50
180.0
 51
195.44
  0
ARC
  8
APS_GEOMETRY
 10
-91.726
 20
-464.445
 40
19.258
 50
195.44
 51
211.316
  0
ARC
  8
APS_GEOMETRY
 10
-96.815
 20
-467.434
 40
13.357
 50
211.708
 51
240.457
  0
ARC
  8
APS_GEOMETRY
 10
-97.157
 20
-468.038
 40
12.663
 50
240.457
 51
270.0
  0
ARC
  8
APS_GEOMETRY
 10
-97.157
 20
-464.95
 40
15.751
 50
270.0
 51
279.549
  0
ARC
  8
APS_GEOMETRY
 10
-97.353
 20
-463.786
 40
16.931
 50
279.549
 51
288.759
  0
ARC
  8
APS_GEOMETRY
 10
-96.527
 20
-466.216
 40
14.364
 50
288.759
 51
299.545
  0
ARC
  8
APS_GEOMETRY
 10
-93.218
 20
-472.056
 40
7.652
 50
299.545
 51
314.341
  0
ARC
  8
APS_GEOMETRY
 10
-82.983
 20
-482.687
 40
7.105
 50
120.141
 51
133.452
  0
ARC
  8
APS_GEOMETRY
 10
-85.842
 20
-477.763
 40
1.412
 50
90.0
 51
120.141
  0
ARC
  8
APS_GEOMETRY
 10
-85.842
 20
-478.581
 40
2.23
 50
61.952
 51
90.0
  0
ARC
  8
APS_GEOMETRY
 10
-86.174
 20
-479.204
 40
2.936
 50
37.569
 51
61.952
  0
ARC
  8
APS_GEOMETRY
 10
-86.793
 20
-479.68
 40
3.717
 50
17.665
 51
37.569
  0
ARC
  8
APS_GEOMETRY
 10
-87.738
 20
-479.981
 40
4.709
 50
360.0
 51
17.665
  0
ARC
  8
APS_GEOMETRY
 10
-90.11
 20
-479.981
 40
7.081
 50
344.932
 51
360.0
  0
ARC
  8
APS_GEOMETRY
 10
-96.408
 20
-478.286
 40
13.603
 50
334.075
 51
344.932
  0
ARC
  8
APS_GEOMETRY
 10
-96.606
 20
-478.189
 40
13.823
 50
323.374
 51
334.075
  0
ARC
  8
APS_GEOMETRY
 10
-92.542
 20
-481.21
 40
8.76
 50
309.92
 51
323.374
  0
ARC
  8
APS_GEOMETRY
 10
-88.481
 20
-486.001
 40
2.48
 50
289.026
 51
308.991
  0
ARC
  8
APS_GEOMETRY
 10
-92.814
 20
-473.436
 40
15.771
 50
281.143
 51
289.026
  0
ARC
  8
APS_GEOMETRY
 10
-88.42
 20
-496.217
 40
7.431
 50
100.437
 51
110.12
  0
ARC
  8
APS_GEOMETRY
 10
-82.599
 20
-512.107
 40
24.353
 50
110.12
 51
115.463
  0
ARC
  8
APS_GEOMETRY
 10
-103.38
 20
-468.627
 40
23.838
 50
282.94
 51
295.628
  0
ARC
  8
APS_GEOMETRY
 10
-103.174
 20
-469.521
 40
22.921
 50
270.0
 51
282.94
  0
ARC
  8
APS_GEOMETRY
 10
-103.174
 20
-468.167
 40
24.275
 50
257.307
 51
270.0
  0
ARC
  8
APS_GEOMETRY
 10
-102.15
 20
-463.617
 40
28.939
 50
245.686
 51
257.307
  0
ARC
  8
APS_GEOMETRY
 10
-104.72
 20
-469.258
 40
22.739
 50
228.801
 51
245.735
  0
ARC
  8
APS_GEOMETRY
 10
-104.677
 20
-469.209
 40
22.805
 50
211.891
 51
228.801
  0
ARC
  8
APS_GEOMETRY
 10
-103.329
 20
-468.239
 40
24.462
 50
196.728
 51
212.152
  0
ARC
  8
APS_GEOMETRY
 10
-106.817
 20
-469.287
 40
20.82
 50
180.0
 51
196.728
  0
ARC
  8
APS_GEOMETRY
 10
-106.31
 20
-469.287
 40
21.327
 50
161.184
 51
180.0
  0
ARC
  8
APS_GEOMETRY
 10
-104.941
 20
-469.754
 40
22.773
 50
142.98
 51
161.184
  0
ARC
  8
APS_GEOMETRY
 10
-103.877
 20
-470.568
 40
24.112
 50
127.824
 51
142.958
  0
ARC
  8
APS_GEOMETRY
 10
-102.123
 20
-472.827
 40
26.973
 50
113.52
 51
127.824
  0
ARC
  8
APS_GEOMETRY
 10
-102.694
 20
-471.508
 40
25.535
 50
101.927
 51
113.527
  0
ARC
  8
APS_GEOMETRY
 10
-102.978
 20
-470.163
 40
24.161
 50
90.0
 51
101.927
  0
ARC
  8
APS_GEOMETRY
 10
-58.429
 20
-486.839
 40
40.608
 50
84.71
 51
90.0
  0
ARC
  8
APS_GEOMETRY
 10
-57.685
 20
-478.799
 40
32.533
 50
78.799
 51
84.71
  0
ARC
  8
APS_GEOMETRY
 10
-52.869
 20
-454.456
 40
7.718
 50
49.783
 51
78.771
  0
ARC
  8
APS_GEOMETRY
 10
-49.647
 20
-450.646
 40
2.729
 50
360.0
 51
49.783
  0
ARC
  8
APS_GEOMETRY
 10
-49.937
 20
-450.646
 40
3.02
 50
342.759
 51
360.0
  0
ARC
  8
APS_GEOMETRY
 10
-48.362
 20
-451.135
 40
1.37
 50
317.045
 51
342.759
  0
ARC
  8
APS_GEOMETRY
 10
-49.123
 20
-450.427
 40
2.41
 50
301.817
 51
317.045
  0
ARC
  8
APS_GEOMETRY
 10
-60.379
 20
-432.285
 40
23.76
 50
296.98
 51
301.817
  0
ARC
  8
APS_GEOMETRY
 10
-48.377
 20
-455.903
 40
2.733
 50
116.565
 51
149.078
  0
ARC
  8
APS_GEOMETRY
 10
-44.858
 20
-458.011
 40
6.835
 50
149.078
 51
169.469
  0
ARC
  8
APS_GEOMETRY
 10
-37.354
 20
-459.406
 40
14.468
 50
169.469
 51
174.598
  0
ARC
  8
APS_GEOMETRY
 10
1.31
 20
-463.062
 40
53.304
 50
174.598
 51
177.269
  0
ARC
  8
APS_GEOMETRY
 10
35.308
 20
-464.684
 40
87.341
 50
177.269
 51
178.901
  0
ARC
  8
APS_GEOMETRY
 10
140.615
 20
-466.704
 40
192.667
 50
178.901
 51
180.0
  0
ARC
  8
APS_GEOMETRY
 10
354.604
 20
-466.704
 40
406.657
 50
180.0
 51
180.88
  0
ARC
  8
APS_GEOMETRY
 10
104.084
 20
-470.552
 40
156.107
 50
180.88
 51
182.3
  0
ARC
  8
APS_GEOMETRY
 10
30.859
 20
-473.493
 40
82.823
 50
182.3
 51
184.974
  0
ARC
  8
APS_GEOMETRY
 10
-38.962
 20
-479.569
 40
12.738
 50
184.974
 51
191.793
  0
ARC
  8
APS_GEOMETRY
 10
-47.072
 20
-481.12
 40
4.484
 50
193.57
 51
205.787
  0
ARC
  8
APS_GEOMETRY
 10
-49.089
 20
-482.095
 40
2.244
 50
205.787
 51
223.091
  0
ARC
  8
APS_GEOMETRY
 10
-48.578
 20
-481.616
 40
2.944
 50
223.091
 51
236.441
  0
ARC
  8
APS_GEOMETRY
 10
-44.294
 20
-475.159
 40
10.693
 50
236.441
 51
243.435
  0
ARC
  8
APS_GEOMETRY
 10
-50.852
 20
-488.63
 40
4.291
 50
37.185
 51
65.556
  0
ARC
  8
APS_GEOMETRY
 10
-49.453
 20
-487.569
 40
2.535
 50
360.0
 51
37.185
  0
ARC
  8
APS_GEOMETRY
 10
-49.53
 20
-487.569
 40
2.612
 50
312.039
 51
360.0
  0
ARC
  8
APS_GEOMETRY
 10
-52.641
 20
-484.118
 40
7.258
 50
283.815
 51
312.039
  0
ARC
  8
APS_GEOMETRY
 10
-57.781
 20
-462.813
 40
29.174
 50
279.273
 51
283.627
  0
ARC
  8
APS_GEOMETRY
 10
-59.836
 20
-450.227
 40
41.926
 50
275.641
 51
279.273
  0
ARC
  8
APS_GEOMETRY
 10
-60.621
 20
-442.274
 40
49.919
 50
272.588
 51
275.641
  0
ARC
  8
APS_GEOMETRY
 10
-61.504
 20
-422.757
 40
69.456
 50
270.0
 51
272.588
  0
ARC
  8
APS_GEOMETRY
 10
-61.504
 20
-450.318
 40
41.894
 50
262.774
 51
270.0
  0
ARC
  8
APS_GEOMETRY
 10
-65.28
 20
-480.106
 40
11.868
 50
249.175
 51
262.774
  0
ARC
  8
APS_GEOMETRY
 10
-67.653
 20
-486.344
 40
5.194
 50
221.23
 51
249.175
  0
ARC
  8
APS_GEOMETRY
 10
-69.722
 20
-488.157
 40
2.443
 50
180.0
 51
221.23
  0
ARC
  8
APS_GEOMETRY
 10
-70.124
 20
-488.157
 40
2.041
 50
142.696
 51
180.0
  0
ARC
  8
APS_GEOMETRY
 10
-66.902
 20
-490.612
 40
6.091
 50
121.357
 51
142.696
  0
ARC
  8
APS_GEOMETRY
 10
-72.346
 20
-481.697
 40
4.354
 50
301.477
 51
324.728
  0
ARC
  8
APS_GEOMETRY
 10
-71.765
 20
-482.107
 40
3.643
 50
324.728
 51
350.181
  0
ARC
  8
APS_GEOMETRY
 10
-90.006
 20
-479.09
 40
22.132
 50
350.538
 51
355.423
  0
ARC
  8
APS_GEOMETRY
 10
-164.958
 20
-473.09
 40
97.324
 50
355.423
 51
357.752
  0
ARC
  8
APS_GEOMETRY
 10
-234.552
 20
-470.358
 40
166.971
 50
357.752
 51
359.111
  0
ARC
  8
APS_GEOMETRY
 10
-457.298
 20
-466.9
 40
389.744
 50
359.111
 51
0.0
  0
ARC
  8
APS_GEOMETRY
 10
-202.777
 20
-466.9
 40
135.223
 50
0.0
 51
1.773
  0
ARC
  8
APS_GEOMETRY
 10
-123.417
 20
-464.444
 40
55.825
 50
1.773
 51
4.532
  0
ARC
  8
APS_GEOMETRY
 10
-99.296
 20
-462.532
 40
31.629
 50
4.532
 51
9.384
  0
ARC
  8
APS_GEOMETRY
 10
-74.803
 20
-458.484
 40
6.803
 50
9.384
 51
19.855
  0
ARC
  8
APS_GEOMETRY
 10
-71.561
 20
-457.251
 40
3.336
 50
18.853
 51
42.158
  0
ARC
  8
APS_GEOMETRY
 10
-74.34
 20
-459.767
 40
7.084
 50
42.158
 51
58.092
  0
ARC
  8
APS_GEOMETRY
 10
-62.111
 20
-440.87
 40
15.426
 50
230.711
 51
236.634
  0
ARC
  8
APS_GEOMETRY
 10
-69.792
 20
-450.258
 40
3.296
 50
217.875
 51
230.711
  0
ARC
  8
APS_GEOMETRY
 10
-70.846
 20
-451.077
 40
1.962
 50
196.928
 51
217.875
  0
ARC
  8
APS_GEOMETRY
 10
-69.86
 20
-450.777
 40
2.992
 50
180.0
 51
196.928
  0
ARC
  8
APS_GEOMETRY
 10
-70.504
 20
-450.777
 40
2.347
 50
148.791
 51
180.0
  0
ARC
  8
APS_GEOMETRY
 10
-69.889
 20
-451.15
 40
3.067
 50
121.569
 51
148.791
  0
ARC
  8
APS_GEOMETRY
 10
-68.784
 20
-452.949
 40
5.178
 50
112.806
 51
121.569
  0
ARC
  8
APS_GEOMETRY
 10
-65.796
 20
-460.053
 40
12.885
 50
107.254
 51
112.806
  0
ARC
  8
APS_GEOMETRY
 10
-63.967
 20
-465.945
 40
19.054
 50
103.487
 51
107.254
  0
ARC
  8
APS_GEOMETRY
 10
-59.776
 20
-483.417
 40
37.022
 50
100.784
 51
103.487
  0
ARC
  8
APS_GEOMETRY
 10
-58.464
 20
-488.248
 40
42.015
 50
95.643
 51
101.31
  0
ARC
  8
APS_GEOMETRY
 10
-58.429
 20
-488.594
 40
42.362
 50
90.0
 51
95.643
  0
LINE
  8
APS_GEOMETRY
 10
10.719
 11
10.719
 20
-476.155
 21
-458.953
  0
ARC
  8
APS_GEOMETRY
 10
-29.003
 20
-458.953
 40
39.721
 50
0.0
 51
2.404
  0
ARC
  8
APS_GEOMETRY
 10
-5.485
 20
-457.966
 40
16.183
 50
2.404
 51
6.17
  0
ARC
  8
APS_GEOMETRY
 10
1.564
 20
-457.204
 40
9.093
 50
6.17
 51
12.824
  0
ARC
  8
APS_GEOMETRY
 10
8.463
 20
-455.633
 40
2.017
 50
12.824
 51
26.98
  0
ARC
  8
APS_GEOMETRY
 10
8.786
 20
-455.469
 40
1.655
 50
26.98
 51
59.65
  0
ARC
  8
APS_GEOMETRY
 10
5.748
 20
-460.657
 40
7.668
 50
59.65
 51
74.667
  0
ARC
  8
APS_GEOMETRY
 10
9.25
 20
-448.158
 40
5.313
 50
225.0
 51
253.887
  0
ARC
  8
APS_GEOMETRY
 10
7.089
 20
-450.319
 40
2.257
 50
180.0
 51
225.0
  0
ARC
  8
APS_GEOMETRY
 10
7.504
 20
-450.319
 40
2.672
 50
151.157
 51
180.0
  0
ARC
  8
APS_GEOMETRY
 10
7.498
 20
-450.316
 40
2.665
 50
122.276
 51
151.157
  0
ARC
  8
APS_GEOMETRY
 10
8.262
 20
-451.526
 40
4.096
 50
102.308
 51
122.276
  0
ARC
  8
APS_GEOMETRY
 10
9.672
 20
-457.99
 40
10.712
 50
90.0
 51
102.308
  0
ARC
  8
APS_GEOMETRY
 10
9.672
 20
-470.444
 40
23.166
 50
88.989
 51
90.0
  0
ARC
  8
APS_GEOMETRY
 10
7.725
 20
-580.789
 40
133.528
 50
88.568
 51
88.989
  0
ARC
  8
APS_GEOMETRY
 10
4.975
 20
-690.793
 40
243.567
 50
88.337
 51
88.568
  0
ARC
  8
APS_GEOMETRY
 10
-5.683
 20
-1057.909
 40
610.838
 50
88.191
 51
88.337
  0
LINE
  8
APS_GEOMETRY
 10
13.597
 11
15.526
 20
-447.376
 21
-447.376
  0
ARC
  8
APS_GEOMETRY
 10
9.045
 20
628.574
 40
1075.969
 50
270.345
 51
270.49
  0
ARC
  8
APS_GEOMETRY
 10
15.084
 20
-78.037
 40
369.332
 50
270.49
 51
270.736
  0
ARC
  8
APS_GEOMETRY
 10
17.563
 20
-270.909
 40
176.445
 50
270.736
 51
271.253
  0
ARC
  8
APS_GEOMETRY
 10
21.089
 20
-432.125
 40
15.19
 50
271.253
 51
273.013
  0
ARC
  8
APS_GEOMETRY
 10
20.942
 20
-429.337
 40
17.982
 50
273.013
 51
274.5
  0
ARC
  8
APS_GEOMETRY
 10
4.286
 20
-217.684
 40
230.289
 50
274.5
 51
274.915
  0
LINE
  8
APS_GEOMETRY
 10
24.017
 11
25.98
 20
-447.127
 21
-446.954
  0
LINE
  8
APS_GEOMETRY
 10
25.98
 11
28.542
 20
-446.954
 21
-446.722
  0
ARC
  8
APS_GEOMETRY
 10
32.755
 20
-487.446
 40
40.941
 50
93.24
 51
95.906
  0
ARC
  8
APS_GEOMETRY
 10
32.009
 20
-474.262
 40
27.736
 50
90.0
 51
93.24
  0
ARC
  8
APS_GEOMETRY
 10
32.009
 20
-470.079
 40
23.553
 50
77.12
 51
90.0
  0
ARC
  8
APS_GEOMETRY
 10
33.25
 20
-464.652
 40
17.987
 50
62.371
 51
77.12
  0
ARC
  8
APS_GEOMETRY
 10
35.351
 20
-460.713
 40
13.522
 50
31.215
 51
62.517
  0
ARC
  8
APS_GEOMETRY
 10
35.287
 20
-460.752
 40
13.597
 50
360.0
 51
31.215
  0
ARC
  8
APS_GEOMETRY
 10
34.922
 20
-460.752
 40
13.962
 50
334.496
 51
360.0
  0
ARC
  8
APS_GEOMETRY
 10
35.608
 20
-461.079
 40
13.201
 50
308.254
 51
334.496
  0
ARC
  8
APS_GEOMETRY
 10
33.509
 20
-458.313
 40
16.674
 50
287.855
 51
308.034
  0
ARC
  8
APS_GEOMETRY
 10
32.107
 20
-453.96
 40
21.247
 50
270.0
 51
287.855
  0
ARC
  8
APS_GEOMETRY
 10
32.107
 20
-443.01
 40
32.197
 50
266.918
 51
270.0
  0
ARC
  8
APS_GEOMETRY
 10
34.061
 20
-406.713
 40
68.546
 50
264.806
 51
266.918
  0
ARC
  8
APS_GEOMETRY
 10
20.989
 20
-568.822
 40
94.095
 50
85.815
 51
86.634
  0
ARC
  8
APS_GEOMETRY
 10
26.188
 20
-480.443
 40
5.563
 50
86.634
 51
90.0
  0
ARC
  8
APS_GEOMETRY
 10
26.188
 20
-475.7
 40
0.821
 50
90.0
 51
139.686
  0
ARC
  8
APS_GEOMETRY
 10
26.492
 20
-475.959
 40
1.22
 50
139.686
 51
180.0
  0
LINE
  8
APS_GEOMETRY
 10
25.272
 11
25.272
 20
-475.959
 21
-476.155
  0
LINE
  8
APS_GEOMETRY
 10
25.272
 11
25.501
 20
-476.155
 21
-481.518
  0
ARC
  8
APS_GEOMETRY
 10
33.251
 20
-481.195
 40
7.757
 50
182.386
 51
193.753
  0
ARC
  8
APS_GEOMETRY
 10
28.253
 20
-482.419
 40
2.612
 50
193.753
 51
213.408
  0
ARC
  8
APS_GEOMETRY
 10
28.309
 20
-482.382
 40
2.679
 50
213.408
 51
232.628
  0
ARC
  8
APS_GEOMETRY
 10
32.82
 20
-476.476
 40
10.11
 50
232.628
 51
242.488
  0
ARC
  8
APS_GEOMETRY
 10
25.297
 20
-490.741
 40
6.017
 50
40.539
 51
61.699
  0
ARC
  8
APS_GEOMETRY
 10
28.585
 20
-487.928
 40
1.69
 50
360.0
 51
40.539
  0
ARC
  8
APS_GEOMETRY
 10
28.006
 20
-487.928
 40
2.269
 50
315.297
 51
360.0
  0
ARC
  8
APS_GEOMETRY
 10
24.937
 20
-484.891
 40
6.588
 50
289.502
 51
315.297
  0
ARC
  8
APS_GEOMETRY
 10
22.687
 20
-478.539
 40
13.326
 50
282.372
 51
289.502
  0
ARC
  8
APS_GEOMETRY
 10
20.324
 20
-467.768
 40
24.353
 50
277.099
 51
282.372
  0
ARC
  8
APS_GEOMETRY
 10
19.353
 20
-459.969
 40
32.213
 50
273.104
 51
277.099
  0
ARC
  8
APS_GEOMETRY
 10
18.208
 20
-438.85
 40
53.362
 50
270.0
 51
273.104
  0
ARC
  8
APS_GEOMETRY
 10
18.208
 20
-439.49
 40
52.723
 50
263.473
 51
270.0
  0
ARC
  8
APS_GEOMETRY
 10
13.875
 20
-477.357
 40
14.609
 50
251.056
 51
263.473
  0
ARC
  8
APS_GEOMETRY
 10
11.093
 20
-485.462
 40
6.039
 50
224.161
 51
251.056
  0
ARC
  8
APS_GEOMETRY
 10
8.419
 20
-488.059
 40
2.311
 50
180.0
 51
224.161
  0
ARC
  8
APS_GEOMETRY
 10
8.899
 20
-488.059
 40
2.791
 50
160.821
 51
180.0
  0
ARC
  8
APS_GEOMETRY
 10
7.728
 20
-487.652
 40
1.552
 50
135.0
 51
160.821
  0
ARC
  8
APS_GEOMETRY
 10
8.835
 20
-488.758
 40
3.117
 50
121.522
 51
135.0
  0
ARC
  8
APS_GEOMETRY
 10
21.32
 20
-509.115
 40
26.996
 50
116.952
 51
121.522
  0
ARC
  8
APS_GEOMETRY
 10
7.687
 20
-482.404
 40
2.993
 50
297.824
 51
321.605
  0
ARC
  8
APS_GEOMETRY
 10
8.376
 20
-482.95
 40
2.113
 50
321.605
 51
349.992
  0
ARC
  8
APS_GEOMETRY
 10
5.177
 20
-482.385
 40
5.362
 50
349.992
 51
356.014
  0
ARC
  8
APS_GEOMETRY
 10
-43.486
 20
-478.994
 40
54.143
 50
356.014
 51
357.908
  0
ARC
  8
APS_GEOMETRY
 10
-100.29
 20
-476.919
 40
110.985
 50
357.908
 51
358.833
  0
ARC
  8
APS_GEOMETRY
 10
-305.687
 20
-472.734
 40
316.424
 50
358.833
 51
359.381
  0
LINE
  8
APS_GEOMETRY
 10
25.501
 11
25.501
 20
-454.8
 21
-465.919
  0
ARC
  8
APS_GEOMETRY
 10
28.875
 20
-465.919
 40
3.374
 50
180.0
 51
199.885
  0
ARC
  8
APS_GEOMETRY
 10
26.35
 20
-466.832
 40
0.689
 50
199.885
 51
244.799
  0
ARC
  8
APS_GEOMETRY
 10
27.801
 20
-463.842
 40
4.013
 50
244.231
 51
258.996
  0
ARC
  8
APS_GEOMETRY
 10
28.411
 20
-460.705
 40
7.209
 50
258.996
 51
270.0
  0
ARC
  8
APS_GEOMETRY
 10
28.411
 20
-461.463
 40
6.45
 50
270.0
 51
288.435
  0
ARC
  8
APS_GEOMETRY
 10
28.874
 20
-462.852
 40
4.987
 50
288.435
 51
309.428
  0
ARC
  8
APS_GEOMETRY
 10
29.043
 20
-463.026
 40
4.745
 50
309.193
 51
339.939
  0
ARC
  8
APS_GEOMETRY
 10
23.173
 20
-460.883
 40
10.994
 50
339.939
 51
0.0
  0
ARC
  8
APS_GEOMETRY
 10
23.819
 20
-460.883
 40
10.348
 50
0.0
 51
22.011
  0
ARC
  8
APS_GEOMETRY
 10
28.404
 20
-459.029
 40
5.403
 50
22.011
 51
52.651
  0
ARC
  8
APS_GEOMETRY
 10
28.333
 20
-459.078
 40
5.485
 50
52.374
 51
72.309
  0
ARC
  8
APS_GEOMETRY
 10
27.888
 20
-460.474
 40
6.95
 50
72.309
 51
90.0
  0
ARC
  8
APS_GEOMETRY
 10
27.888
 20
-457.576
 40
4.052
 50
90.0
 51
118.113
  0
ARC
  8
APS_GEOMETRY
 10
26.405
 20
-454.8
 40
0.904
 50
118.113
 51
180.0
  0
ARC
  8
APS_GEOMETRY
 10
78.238
 20
-471.784
 40
25.782
 50
71.91
 51
90.0
  0
ARC
  8
APS_GEOMETRY
 10
79.237
 20
-468.727
 40
22.566
 50
52.561
 51
71.91
  0
ARC
  8
APS_GEOMETRY
 10
78.975
 20
-468.803
 40
22.786
 50
38.846
 51
52.156
  0
ARC
  8
APS_GEOMETRY
 10
75.403
 20
-471.68
 40
27.372
 50
26.707
 51
38.846
  0
ARC
  8
APS_GEOMETRY
 10
76.11
 20
-471.102
 40
26.482
 50
13.868
 51
26.278
  0
ARC
  8
APS_GEOMETRY
 10
81.21
 20
-469.843
 40
21.229
 50
360.0
 51
13.868
  0
ARC
  8
APS_GEOMETRY
 10
81.54
 20
-469.843
 40
20.899
 50
339.712
 51
360.0
  0
ARC
  8
APS_GEOMETRY
 10
80.364
 20
-469.408
 40
22.153
 50
320.013
 51
339.712
  0
ARC
  8
APS_GEOMETRY
 10
80.169
 20
-469.301
 40
22.372
 50
303.344
 51
320.123
  0
ARC
  8
APS_GEOMETRY
 10
77.873
 20
-465.812
 40
26.548
 50
287.949
 51
303.344
  0
ARC
  8
APS_GEOMETRY
 10
77.119
 20
-463.197
 40
29.269
 50
279.039
 51
287.776
  0
ARC
  8
APS_GEOMETRY
 10
77.421
 20
-465.096
 40
27.346
 50
270.0
 51
279.039
  0
ARC
  8
APS_GEOMETRY
 10
77.421
 20
-466.431
 40
26.011
 50
257.728
 51
270.0
  0
ARC
  8
APS_GEOMETRY
 10
77.462
 20
-466.242
 40
26.203
 50
245.501
 51
257.728
  0
ARC
  8
APS_GEOMETRY
 10
75.989
 20
-469.465
 40
22.66
 50
228.665
 51
245.511
  0
ARC
  8
APS_GEOMETRY
 10
75.499
 20
-470.022
 40
21.918
 50
211.535
 51
228.665
  0
ARC
  8
APS_GEOMETRY
 10
76.141
 20
-469.551
 40
22.712
 50
195.642
 51
211.701
  0
ARC
  8
APS_GEOMETRY
 10
77.315
 20
-469.222
 40
23.931
 50
180.0
 51
195.642
  0
ARC
  8
APS_GEOMETRY
 10
77.566
 20
-469.222
 40
24.183
 50
162.181
 51
180.0
  0
ARC
  8
APS_GEOMETRY
 10
75.36
 20
-468.513
 40
21.865
 50
143.434
 51
162.181
  0
ARC
  8
APS_GEOMETRY
 10
75.063
 20
-468.275
 40
21.485
 50
126.384
 51
143.471
  0
ARC
  8
APS_GEOMETRY
 10
77.097
 20
-471.036
 40
24.914
 50
110.525
 51
126.384
  0
ARC
  8
APS_GEOMETRY
 10
76.997
 20
-470.286
 40
24.177
 50
99.77
 51
110.925
  0
ARC
  8
APS_GEOMETRY
 10
78.238
 20
-477.498
 40
31.496
 50
90.0
 51
99.77
  0
ARC
  8
APS_GEOMETRY
 10
75.132
 20
-460.196
 40
4.807
 50
90.0
 51
119.604
  0
ARC
  8
APS_GEOMETRY
 10
75.553
 20
-460.937
 40
5.659
 50
119.604
 51
146.842
  0
ARC
  8
APS_GEOMETRY
 10
76.399
 20
-461.63
 40
6.748
 50
145.84
 51
164.055
  0
ARC
  8
APS_GEOMETRY
 10
78.36
 20
-462.191
 40
8.788
 50
164.055
 51
180.0
  0
ARC
  8
APS_GEOMETRY
 10
90.625
 20
-462.191
 40
21.053
 50
180.0
 51
189.977
  0
ARC
  8
APS_GEOMETRY
 10
109.276
 20
-458.91
 40
39.991
 50
189.977
 51
197.211
  0
ARC
  8
APS_GEOMETRY
 10
113.356
 20
-457.646
 40
44.261
 50
197.211
 51
203.76
  0
ARC
  8
APS_GEOMETRY
 10
103.193
 20
-462.12
 40
33.157
 50
203.76
 51
211.329
  0
ARC
  8
APS_GEOMETRY
 10
82.325
 20
-474.644
 40
8.821
 50
212.32
 51
224.441
  0
ARC
  8
APS_GEOMETRY
 10
81.469
 20
-475.483
 40
7.623
 50
224.441
 51
237.484
  0
ARC
  8
APS_GEOMETRY
 10
80.917
 20
-476.35
 40
6.595
 50
237.484
 51
252.416
  0
ARC
  8
APS_GEOMETRY
 10
80.364
 20
-478.093
 40
4.766
 50
252.416
 51
270.0
  0
ARC
  8
APS_GEOMETRY
 10
80.364
 20
-477.528
 40
5.331
 50
270.0
 51
294.953
  0
ARC
  8
APS_GEOMETRY
 10
80.513
 20
-477.849
 40
4.977
 50
294.953
 51
320.793
  0
ARC
  8
APS_GEOMETRY
 10
79.713
 20
-477.196
 40
6.011
 50
320.793
 51
342.777
  0
ARC
  8
APS_GEOMETRY
 10
76.145
 20
-476.09
 40
9.746
 50
342.777
 51
0.0
  0
ARC
  8
APS_GEOMETRY
 10
59.384
 20
-476.09
 40
26.507
 50
0.0
 51
8.499
  0
ARC
  8
APS_GEOMETRY
 10
47.717
 20
-477.833
 40
38.304
 50
8.499
 51
15.566
  0
ARC
  8
APS_GEOMETRY
 10
49.119
 20
-477.442
 40
36.848
 50
15.566
 51
22.909
  0
ARC
  8
APS_GEOMETRY
 10
61.183
 20
-472.344
 40
23.751
 50
22.909
 51
32.057
  0
ARC
  8
APS_GEOMETRY
 10
70.659
 20
-466.375
 40
12.552
 50
31.921
 51
42.51
  0
ARC
  8
APS_GEOMETRY
 10
73.261
 20
-463.989
 40
9.022
 50
42.51
 51
55.008
  0
ARC
  8
APS_GEOMETRY
 10
74.14
 20
-462.734
 40
7.489
 50
55.008
 51
69.88
  0
ARC
  8
APS_GEOMETRY
 10
74.928
 20
-460.583
 40
5.198
 50
69.88
 51
87.754
  0
ARC
  8
APS_GEOMETRY
 10
128.752
 20
-475.206
 40
2.42
 50
90.0
 51
115.837
  0
ARC
  8
APS_GEOMETRY
 10
128.156
 20
-473.976
 40
1.053
 50
115.837
 51
155.462
  0
ARC
  8
APS_GEOMETRY
 10
128.852
 20
-474.293
 40
1.817
 50
155.462
 51
168.366
  0
ARC
  8
APS_GEOMETRY
 10
135.198
 20
-475.6
 40
8.296
 50
168.366
 51
174.395
  0
ARC
  8
APS_GEOMETRY
 10
141.593
 20
-476.228
 40
14.722
 50
174.395
 51
177.813
  0
ARC
  8
APS_GEOMETRY
 10
162.822
 20
-477.038
 40
35.966
 50
177.813
 51
180.0
  0
ARC
  8
APS_GEOMETRY
 10
178.19
 20
-477.038
 40
51.335
 50
180.0
 51
184.62
  0
ARC
  8
APS_GEOMETRY
 10
143.77
 20
-479.819
 40
16.803
 50
184.62
 51
192.7
  0
ARC
  8
APS_GEOMETRY
 10
130.5
 20
-482.733
 40
3.218
 50
194.036
 51
205.821
  0
ARC
  8
APS_GEOMETRY
 10
129.095
 20
-483.413
 40
1.656
 50
205.821
 51
222.274
  0
ARC
  8
APS_GEOMETRY
 10
129.525
 20
-483.022
 40
2.238
 50
222.274
 51
234.605
  0
ARC
  8
APS_GEOMETRY
 10
134.386
 20
-476.181
 40
10.63
 50
234.605
 51
240.255
  0
ARC
  8
APS_GEOMETRY
 10
126.997
 20
-489.256
 40
4.389
 50
34.592
 51
61.189
  0
ARC
  8
APS_GEOMETRY
 10
128.447
 20
-488.255
 40
2.627
 50
360.0
 51
34.592
  0
ARC
  8
APS_GEOMETRY
 10
128.535
 20
-488.255
 40
2.539
 50
318.231
 51
360.0
  0
ARC
  8
APS_GEOMETRY
 10
126.837
 20
-486.739
 40
4.816
 50
288.227
 51
318.231
  0
ARC
  8
APS_GEOMETRY
 10
125.076
 20
-481.391
 40
10.446
 50
280.377
 51
288.227
  0
ARC
  8
APS_GEOMETRY
 10
122.006
 20
-464.627
 40
27.489
 50
275.541
 51
280.377
  0
ARC
  8
APS_GEOMETRY
 10
120.683
 20
-450.99
 40
41.19
 50
272.304
 51
275.541
  0
ARC
  8
APS_GEOMETRY
 10
119.072
 20
-410.954
 40
81.259
 50
270.0
 51
272.304
  0
ARC
  8
APS_GEOMETRY
 10
119.072
 20
-444.412
 40
47.8
 50
262.811
 51
270.0
  0
ARC
  8
APS_GEOMETRY
 10
114.783
 20
-478.419
 40
13.524
 50
249.274
 51
262.811
  0
ARC
  8
APS_GEOMETRY
 10
112.085
 20
-485.549
 40
5.901
 50
221.379
 51
249.274
  0
ARC
  8
APS_GEOMETRY
 10
109.718
 20
-487.634
 40
2.747
 50
180.0
 51
221.379
  0
ARC
  8
APS_GEOMETRY
 10
109.7
 20
-487.634
 40
2.728
 50
164.055
 51
180.0
  0
ARC
  8
APS_GEOMETRY
 10
108.563
 20
-487.309
 40
1.546
 50
142.815
 51
164.055
  0
ARC
  8
APS_GEOMETRY
 10
109.279
 20
-487.852
 40
2.444
 50
129.007
 51
142.815
  0
ARC
  8
APS_GEOMETRY
 10
118.071
 20
-498.706
 40
16.412
 50
123.69
 51
129.007
  0
ARC
  8
APS_GEOMETRY
 10
105.594
 20
-479.933
 40
6.128
 50
303.389
 51
319.022
  0
ARC
  8
APS_GEOMETRY
 10
107.253
 20
-481.374
 40
3.932
 50
319.022
 51
338.575
  0
ARC
  8
APS_GEOMETRY
 10
105.033
 20
-480.503
 40
6.316
 50
338.575
 51
351.049
  0
ARC
  8
APS_GEOMETRY
 10
78.227
 20
-476.281
 40
33.452
 50
351.049
 51
356.46
  0
ARC
  8
APS_GEOMETRY
 10
87.063
 20
-476.617
 40
24.613
 50
355.972
 51
358.68
  0
ARC
  8
APS_GEOMETRY
 10
-203.128
 20
-469.931
 40
314.881
 50
358.68
 51
359.437
  0
LINE
  8
APS_GEOMETRY
 10
111.738
 11
111.769
 20
-473.024
 21
-468.112
  0
LINE
  8
APS_GEOMETRY
 10
111.769
 11
111.779
 20
-468.112
 21
-461.7
  0
ARC
  8
APS_GEOMETRY
 10
35.97
 20
-461.7
 40
75.809
 50
0.0
 51
1.717
  0
ARC
  8
APS_GEOMETRY
 10
76.538
 20
-460.484
 40
35.223
 50
1.717
 51
4.236
  0
ARC
  8
APS_GEOMETRY
 10
89.768
 20
-459.504
 40
21.957
 50
4.236
 51
8.269
  0
ARC
  8
APS_GEOMETRY
 10
104.991
 20
-457.292
 40
6.573
 50
8.269
 51
15.642
  0
ARC
  8
APS_GEOMETRY
 10
107.611
 20
-456.558
 40
3.853
 50
15.642
 51
39.417
  0
ARC
  8
APS_GEOMETRY
 10
107.67
 20
-456.51
 40
3.776
 50
39.417
 51
63.435
  0
ARC
  8
APS_GEOMETRY
 10
114.472
 20
-442.42
 40
11.869
 50
236.874
 51
244.486
  0
ARC
  8
APS_GEOMETRY
 10
109.412
 20
-450.173
 40
2.611
 50
220.601
 51
236.874
  0
ARC
  8
APS_GEOMETRY
 10
108.832
 20
-450.671
 40
1.847
 50
198.246
 51
220.601
  0
ARC
  8
APS_GEOMETRY
 10
109.7
 20
-450.385
 40
2.761
 50
180.0
 51
198.246
  0
ARC
  8
APS_GEOMETRY
 10
109.687
 20
-450.385
 40
2.748
 50
156.161
 51
180.0
  0
ARC
  8
APS_GEOMETRY
 10
110.07
 20
-450.554
 40
3.167
 50
133.977
 51
156.161
  0
ARC
  8
APS_GEOMETRY
 10
110.833
 20
-451.345
 40
4.266
 50
116.996
 51
133.977
  0
ARC
  8
APS_GEOMETRY
 10
112.35
 20
-454.323
 40
7.608
 50
104.3
 51
116.996
  0
ARC
  8
APS_GEOMETRY
 10
112.742
 20
-455.829
 40
9.164
 50
95.326
 51
104.349
  0
ARC
  8
APS_GEOMETRY
 10
114.33
 20
-472.863
 40
26.272
 50
90.0
 51
95.326
  0
ARC
  8
APS_GEOMETRY
 10
114.33
 20
-459.604
 40
13.013
 50
87.553
 51
90.0
  0
ARC
  8
APS_GEOMETRY
 10
111.561
 20
-524.392
 40
77.86
 50
86.553
 51
87.553
  0
ARC
  8
APS_GEOMETRY
 10
107.625
 20
-589.738
 40
143.325
 50
86.009
 51
86.553
  0
ARC
  8
APS_GEOMETRY
 10
92.317
 20
-809.152
 40
363.271
 50
85.668
 51
86.009
  0
ARC
  8
APS_GEOMETRY
 10
120.965
 20
-431.841
 40
15.125
 50
265.426
 51
268.531
  0
ARC
  8
APS_GEOMETRY
 10
122.31
 20
-379.398
 40
67.586
 50
268.531
 51
270.0
  0
ARC
  8
APS_GEOMETRY
 10
122.31
 20
-395.473
 40
51.511
 50
270.0
 51
271.637
  0
ARC
  8
APS_GEOMETRY
 10
121.159
 20
-355.188
 40
91.812
 50
271.637
 51
272.862
  0
ARC
  8
APS_GEOMETRY
 10
119.837
 20
-328.759
 40
118.274
 50
272.862
 51
273.814
  0
ARC
  8
APS_GEOMETRY
 10
115.364
 20
-261.655
 40
185.527
 50
273.814
 51
274.574
  0
ARC
  8
APS_GEOMETRY
 10
143.426
 20
-626.646
 40
180.543
 50
93.72
 51
94.214
  0
ARC
  8
APS_GEOMETRY
 10
137.437
 20
-534.528
 40
88.23
 50
93.013
 51
93.72
  0
ARC
  8
APS_GEOMETRY
 10
135.795
 20
-503.332
 40
56.991
 50
91.918
 51
93.013
  0
ARC
  8
APS_GEOMETRY
 10
134.508
 20
-464.917
 40
18.554
 50
90.0
 51
91.918
  0
ARC
  8
APS_GEOMETRY
 10
134.508
 20
-470.471
 40
24.109
 50
73.82
 51
90.0
  0
ARC
  8
APS_GEOMETRY
 10
136.884
 20
-462.281
 40
15.581
 50
53.658
 51
73.82
  0
ARC
  8
APS_GEOMETRY
 10
140.264
 20
-457.662
 40
9.857
 50
26.03
 51
53.569
  0
ARC
  8
APS_GEOMETRY
 10
139.227
 20
-458.168
 40
11.012
 50
360.0
 51
26.03
  0
ARC
  8
APS_GEOMETRY
 10
138.795
 20
-458.168
 40
11.443
 50
345.282
 51
360.0
  0
ARC
  8
APS_GEOMETRY
 10
139.896
 20
-458.457
 40
10.305
 50
329.767
 51
345.282
  0
ARC
  8
APS_GEOMETRY
 10
140.52
 20
-458.821
 40
9.583
 50
313.168
 51
329.767
  0
ARC
  8
APS_GEOMETRY
 10
140.751
 20
-459.067
 40
9.246
 50
296.267
 51
313.168
  0
ARC
  8
APS_GEOMETRY
 10
146.014
 20
-469.701
 40
2.62
 50
116.565
 51
139.899
  0
ARC
  8
APS_GEOMETRY
 10
144.707
 20
-468.601
 40
0.911
 50
139.899
 51
180.0
  0
ARC
  8
APS_GEOMETRY
 10
144.809
 20
-468.601
 40
1.013
 50
180.0
 51
226.193
  0
ARC
  8
APS_GEOMETRY
 10
146.679
 20
-466.65
 40
3.715
 50
226.193
 51
249.829
  0
ARC
  8
APS_GEOMETRY
 10
141.318
 20
-481.411
 40
11.989
 50
53.249
 51
70.105
  0
ARC
  8
APS_GEOMETRY
 10
143.754
 20
-478.15
 40
7.919
 50
32.471
 51
53.249
  0
ARC
  8
APS_GEOMETRY
 10
142.619
 20
-478.872
 40
9.264
 50
23.305
 51
32.471
  0
ARC
  8
APS_GEOMETRY
 10
135.608
 20
-481.892
 40
16.897
 50
16.521
 51
23.305
  0
ARC
  8
APS_GEOMETRY
 10
130.143
 20
-483.513
 40
22.598
 50
11.429
 51
16.521
  0
ARC
  8
APS_GEOMETRY
 10
114.653
 20
-486.645
 40
38.401
 50
7.524
 51
11.429
  0
ARC
  8
APS_GEOMETRY
 10
165.981
 20
-479.809
 40
13.38
 50
187.765
 51
196.914
  0
ARC
  8
APS_GEOMETRY
 10
155.038
 20
-483.136
 40
1.942
 50
196.914
 51
221.082
  0
ARC
  8
APS_GEOMETRY
 10
155.08
 20
-483.1
 40
1.997
 50
221.082
 51
244.607
  0
ARC
  8
APS_GEOMETRY
 10
159.753
 20
-473.255
 40
12.896
 50
244.607
 51
253.811
  0
ARC
  8
APS_GEOMETRY
 10
155.644
 20
-487.265
 40
1.705
 50
51.45
 51
72.474
  0
ARC
  8
APS_GEOMETRY
 10
155.222
 20
-487.794
 40
2.382
 50
33.69
 51
51.45
  0
ARC
  8
APS_GEOMETRY
 10
155.124
 20
-487.86
 40
2.5
 50
16.639
 51
33.69
  0
ARC
  8
APS_GEOMETRY
 10
155.004
 20
-487.896
 40
2.625
 50
360.0
 51
16.639
  0
ARC
  8
APS_GEOMETRY
 10
154.968
 20
-487.896
 40
2.662
 50
338.993
 51
360.0
  0
ARC
  8
APS_GEOMETRY
 10
153.343
 20
-487.272
 40
4.402
 50
322.696
 51
338.993
  0
ARC
  8
APS_GEOMETRY
 10
152.737
 20
-486.81
 40
5.164
 50
308.603
 51
322.696
  0
ARC
  8
APS_GEOMETRY
 10
152.321
 20
-486.288
 40
5.831
 50
295.346
 51
308.603
  0
ARC
  8
APS_GEOMETRY
 10
150.129
 20
-481.462
 40
11.131
 50
279.583
 51
294.905
  0
ARC
  8
APS_GEOMETRY
 10
147.262
 20
-464.481
 40
28.353
 50
270.0
 51
279.583
  0
ARC
  8
APS_GEOMETRY
 10
147.262
 20
-472.162
 40
20.672
 50
261.247
 51
270.0
  0
ARC
  8
APS_GEOMETRY
 10
145.938
 20
-480.763
 40
11.97
 50
249.737
 51
261.247
  0
ARC
  8
APS_GEOMETRY
 10
145.068
 20
-483.12
 40
9.457
 50
235.345
 51
249.737
  0
ARC
  8
APS_GEOMETRY
 10
143.969
 20
-484.71
 40
7.524
 50
219.198
 51
235.345
  0
ARC
  8
APS_GEOMETRY
 10
146.282
 20
-482.738
 40
10.563
 50
209.076
 51
219.56
  0
ARC
  8
APS_GEOMETRY
 10
151.622
 20
-479.768
 40
16.674
 50
200.735
 51
209.076
  0
ARC
  8
APS_GEOMETRY
 10
158.992
 20
-476.979
 40
24.554
 50
197.881
 51
200.735
  0
ARC
  8
APS_GEOMETRY
 10
189.273
 20
-467.209
 40
56.372
 50
195.997
 51
197.881
  0
ARC
  8
APS_GEOMETRY
 10
211.655
 20
-460.792
 40
79.656
 50
194.664
 51
195.997
  0
ARC
  8
APS_GEOMETRY
 10
273.651
 20
-444.57
 40
143.738
 50
193.671
 51
194.664
  0
ARC
  8
APS_GEOMETRY
 10
116.44
 20
-482.79
 40
18.051
 50
13.61
 51
23.585
  0
ARC
  8
APS_GEOMETRY
 10
128.26
 20
-477.63
 40
5.155
 50
23.585
 51
42.31
  0
ARC
  8
APS_GEOMETRY
 10
129.332
 20
-476.654
 40
3.705
 50
42.31
 51
67.521
  0
ARC
  8
APS_GEOMETRY
 10
128.483
 20
-478.704
 40
5.924
 50
67.521
 51
87.397
  0
LINE
  8
APS_GEOMETRY
 10
126.888
 11
126.528
 20
-456.108
 21
-463.728
  0
LINE
  8
APS_GEOMETRY
 10
126.528
 11
126.528
 20
-463.728
 21
-463.85
  0
LINE
  8
APS_GEOMETRY
 10
126.528
 11
126.528
 20
-463.85
 21
-464.022
  0
ARC
  8
APS_GEOMETRY
 10
131.823
 20
-464.022
 40
5.294
 50
180.0
 51
192.339
  0
ARC
  8
APS_GEOMETRY
 10
127.613
 20
-464.943
 40
0.986
 50
192.339
 51
221.186
  0
ARC
  8
APS_GEOMETRY
 10
127.513
 20
-465.031
 40
0.852
 50
221.186
 51
253.872
  0
ARC
  8
APS_GEOMETRY
 10
128.229
 20
-462.555
 40
3.429
 50
253.872
 51
270.0
  0
ARC
  8
APS_GEOMETRY
 10
128.229
 20
-458.014
 40
7.971
 50
270.0
 51
289.569
  0
ARC
  8
APS_GEOMETRY
 10
129.678
 20
-462.09
 40
3.644
 50
289.569
 51
318.681
  0
ARC
  8
APS_GEOMETRY
 10
129.286
 20
-461.746
 40
4.166
 50
318.681
 51
344.628
  0
ARC
  8
APS_GEOMETRY
 10
121.983
 20
-459.738
 40
11.74
 50
344.628
 51
0.0
  0
ARC
  8
APS_GEOMETRY
 10
125.455
 20
-459.738
 40
8.268
 50
0.0
 51
35.369
  0
ARC
  8
APS_GEOMETRY
 10
129.243
 20
-457.049
 40
3.623
 50
35.369
 51
90.0
  0
ARC
  8
APS_GEOMETRY
 10
129.243
 20
-457.089
 40
3.663
 50
90.0
 51
108.435
  0
ARC
  8
APS_GEOMETRY
 10
128.53
 20
-454.951
 40
1.409
 50
108.435
 51
138.366
  0
ARC
  8
APS_GEOMETRY
 10
128.721
 20
-455.121
 40
1.665
 50
138.366
 51
164.291
  0
ARC
  8
APS_GEOMETRY
 10
133.206
 20
-456.383
 40
6.324
 50
164.291
 51
177.51
  0
LINE
  8
APS_GEOMETRY
 10
177.402
 11
194.637
 20
-446.918
 21
-446.918
  0
ARC
  8
APS_GEOMETRY
 10
193.765
 20
-422.223
 40
24.711
 50
272.021
 51
278.44
  0
ARC
  8
APS_GEOMETRY
 10
194.738
 20
-428.778
 40
18.083
 50
278.44
 51
285.945
  0
ARC
  8
APS_GEOMETRY
 10
202.055
 20
-454.976
 40
9.118
 50
98.584
 51
104.931
  0
ARC
  8
APS_GEOMETRY
 10
201.439
 20
-450.895
 40
4.991
 50
90.0
 51
98.584
  0
ARC
  8
APS_GEOMETRY
 10
201.439
 20
-449.656
 40
3.752
 50
52.871
 51
90.0
  0
ARC
  8
APS_GEOMETRY
 10
196.35
 20
-456.377
 40
12.182
 50
32.518
 51
52.871
  0
ARC
  8
APS_GEOMETRY
 10
192.319
 20
-458.947
 40
16.963
 50
17.209
 51
32.518
  0
ARC
  8
APS_GEOMETRY
 10
195.679
 20
-457.907
 40
13.445
 50
360.0
 51
17.209
  0
ARC
  8
APS_GEOMETRY
 10
202.407
 20
-457.907
 40
6.717
 50
337.348
 51
360.0
  0
ARC
  8
APS_GEOMETRY
 10
205.107
 20
-459.033
 40
3.792
 50
307.042
 51
337.348
  0
ARC
  8
APS_GEOMETRY
 10
204.638
 20
-458.389
 40
4.589
 50
287.186
 51
306.87
  0
ARC
  8
APS_GEOMETRY
 10
204.219
 20
-457.035
 40
6.006
 50
270.0
 51
287.186
  0
ARC
  8
APS_GEOMETRY
 10
204.219
 20
-457.647
 40
5.393
 50
252.221
 51
270.0
  0
ARC
  8
APS_GEOMETRY
 10
203.968
 20
-458.431
 40
4.571
 50
232.896
 51
252.221
  0
ARC
  8
APS_GEOMETRY
 10
204.938
 20
-457.147
 40
6.18
 50
218.3
 51
232.896
  0
ARC
  8
APS_GEOMETRY
 10
212.518
 20
-451.161
 40
15.839
 50
209.197
 51
218.3
  0
ARC
  8
APS_GEOMETRY
 10
173.965
 20
-472.049
 40
28.012
 50
28.025
 51
32.699
  0
ARC
  8
APS_GEOMETRY
 10
194.121
 20
-459.109
 40
4.06
 50
32.699
 51
45.0
  0
ARC
  8
APS_GEOMETRY
 10
195.495
 20
-457.735
 40
2.116
 50
45.0
 51
67.557
  0
ARC
  8
APS_GEOMETRY
 10
195.487
 20
-457.755
 40
2.137
 50
67.557
 51
90.0
  0
ARC
  8
APS_GEOMETRY
 10
195.487
 20
-457.586
 40
1.969
 50
90.0
 51
120.801
  0
ARC
  8
APS_GEOMETRY
 10
195.42
 20
-457.474
 40
1.839
 50
120.801
 51
152.7
  0
ARC
  8
APS_GEOMETRY
 10
196.879
 20
-458.227
 40
3.481
 50
152.7
 51
171.085
  0
ARC
  8
APS_GEOMETRY
 10
207.968
 20
-459.967
 40
14.705
 50
171.085
 51
180.0
  0
LINE
  8
APS_GEOMETRY
 10
193.263
 11
193.263
 20
-459.967
 21
-478.281
  0
ARC
  8
APS_GEOMETRY
 10
212.69
 20
-478.281
 40
19.427
 50
180.0
 51
188.194
  0
ARC
  8
APS_GEOMETRY
 10
198.183
 20
-480.37
 40
4.77
 50
188.194
 51
204.775
  0
ARC
  8
APS_GEOMETRY
 10
196.773
 20
-481.02
 40
3.218
 50
204.775
 51
228.576
  0
ARC
  8
APS_GEOMETRY
 10
198.095
 20
-479.522
 40
5.216
 50
228.576
 51
247.218
  0
ARC
  8
APS_GEOMETRY
 10
190.427
 20
-497.594
 40
14.416
 50
59.381
 51
66.93
  0
ARC
  8
APS_GEOMETRY
 10
196.088
 20
-488.028
 40
3.301
 50
43.568
 51
59.381
  0
ARC
  8
APS_GEOMETRY
 10
196.993
 20
-487.167
 40
2.051
 50
19.041
 51
43.568
  0
ARC
  8
APS_GEOMETRY
 10
195.735
 20
-487.601
 40
3.382
 50
360.0
 51
19.041
  0
ARC
  8
APS_GEOMETRY
 10
196.37
 20
-487.601
 40
2.747
 50
317.66
 51
360.0
  0
ARC
  8
APS_GEOMETRY
 10
193.847
 20
-485.303
 40
6.16
 50
289.747
 51
317.66
  0
ARC
  8
APS_GEOMETRY
 10
191.735
 20
-479.418
 40
12.412
 50
281.964
 51
289.747
  0
ARC
  8
APS_GEOMETRY
 10
188.808
 20
-465.606
 40
26.531
 50
276.643
 51
281.964
  0
ARC
  8
APS_GEOMETRY
 10
187.576
 20
-455.03
 40
37.178
 50
272.836
 51
276.643
  0
ARC
  8
APS_GEOMETRY
 10
186.101
 20
-425.255
 40
66.99
 50
270.0
 51
272.836
  0
ARC
  8
APS_GEOMETRY
 10
186.101
 20
-406.805
 40
85.44
 50
267.283
 51
270.0
  0
ARC
  8
APS_GEOMETRY
 10
184.307
 20
-444.608
 40
47.595
 50
263.643
 51
267.283
  0
ARC
  8
APS_GEOMETRY
 10
182.805
 20
-458.092
 40
34.027
 50
258.563
 51
263.643
  0
ARC
  8
APS_GEOMETRY
 10
179.216
 20
-475.831
 40
15.929
 50
251.136
 51
258.563
  0
ARC
  8
APS_GEOMETRY
 10
176.012
 20
-485.124
 40
6.099
 50
222.558
 51
251.395
  0
ARC
  8
APS_GEOMETRY
 10
173.635
 20
-487.307
 40
2.871
 50
180.0
 51
222.558
  0
ARC
  8
APS_GEOMETRY
 10
173.155
 20
-487.307
 40
2.392
 50
150.642
 51
180.0
  0
ARC
  8
APS_GEOMETRY
 10
173.347
 20
-487.415
 40
2.612
 50
122.574
 51
150.642
  0
ARC
  8
APS_GEOMETRY
 10
172.84
 20
-486.832
 40
1.851
 50
108.677
 51
119.055
  0
ARC
  8
APS_GEOMETRY
 10
195.955
 20
-555.216
 40
74.036
 50
107.038
 51
108.677
  0
ARC
  8
APS_GEOMETRY
 10
173.401
 20
-481.452
 40
3.099
 50
286.144
 51
308.66
  0
ARC
  8
APS_GEOMETRY
 10
173.908
 20
-482.087
 40
2.287
 50
308.66
 51
334.933
  0
ARC
  8
APS_GEOMETRY
 10
171.843
 20
-481.121
 40
4.566
 50
334.933
 51
348.829
  0
ARC
  8
APS_GEOMETRY
 10
146.018
 20
-476.021
 40
30.891
 50
348.829
 51
354.161
  0
ARC
  8
APS_GEOMETRY
 10
128.562
 20
-474.222
 40
48.439
 50
354.144
 51
355.66
  0
ARC
  8
APS_GEOMETRY
 10
51.185
 20
-468.35
 40
126.038
 50
355.66
 51
356.6
  0
ARC
  8
APS_GEOMETRY
 10
-7.964
 20
-464.836
 40
185.291
 50
356.6
 51
357.24
  0
ARC
  8
APS_GEOMETRY
 10
-175.789
 20
-456.745
 40
353.311
 50
357.24
 51
357.703
  0
ARC
  8
APS_GEOMETRY
 10
-159.268
 20
-457.407
 40
336.777
 50
357.703
 51
358.674
  0
ARC
  8
APS_GEOMETRY
 10
-3.436
 20
-461.013
 40
180.903
 50
358.674
 51
0.0
  0
ARC
  8
APS_GEOMETRY
 10
150.657
 20
-461.013
 40
26.81
 50
0.0
 51
6.242
  0
ARC
  8
APS_GEOMETRY
 10
171.976
 20
-458.682
 40
5.364
 50
6.242
 51
20.225
  0
ARC
  8
APS_GEOMETRY
 10
174.931
 20
-457.593
 40
2.215
 50
20.225
 51
50.44
  0
ARC
  8
APS_GEOMETRY
 10
175.505
 20
-456.898
 40
1.314
 50
50.44
 51
90.0
  0
ARC
  8
APS_GEOMETRY
 10
175.505
 20
-457.347
 40
1.762
 50
90.0
 51
126.747
  0
ARC
  8
APS_GEOMETRY
 10
177.995
 20
-460.682
 40
5.924
 50
126.747
 51
146.547
  0
ARC
  8
APS_GEOMETRY
 10
134.007
 20
-431.769
 40
46.715
 50
324.255
 51
326.701
  0
ARC
  8
APS_GEOMETRY
 10
152.63
 20
-445.173
 40
23.77
 50
320.826
 51
324.255
  0
ARC
  8
APS_GEOMETRY
 10
158.717
 20
-450.132
 40
15.918
 50
315.722
 51
320.826
  0
ARC
  8
APS_GEOMETRY
 10
165.711
 20
-456.952
 40
6.149
 50
307.504
 51
315.722
  0
ARC
  8
APS_GEOMETRY
 10
165.066
 20
-456.091
 40
7.226
 50
291.306
 51
307.405
  0
ARC
  8
APS_GEOMETRY
 10
166.185
 20
-458.96
 40
4.146
 50
270.0
 51
291.306
  0
ARC
  8
APS_GEOMETRY
 10
166.185
 20
-459.227
 40
3.879
 50
245.532
 51
270.0
  0
ARC
  8
APS_GEOMETRY
 10
166.155
 20
-459.292
 40
3.808
 50
220.833
 51
245.532
  0
ARC
  8
APS_GEOMETRY
 10
166.548
 20
-458.952
 40
4.328
 50
198.684
 51
220.833
  0
ARC
  8
APS_GEOMETRY
 10
168.19
 20
-458.397
 40
6.06
 50
180.0
 51
198.684
  0
ARC
  8
APS_GEOMETRY
 10
172.037
 20
-458.397
 40
9.908
 50
168.408
 51
180.0
  0
ARC
  8
APS_GEOMETRY
 10
178.39
 20
-459.7
 40
16.393
 50
159.402
 51
168.408
  0
ARC
  8
APS_GEOMETRY
 10
180.353
 20
-460.438
 40
18.49
 50
151.39
 51
159.402
  0
ARC
  8
APS_GEOMETRY
 10
179.951
 20
-460.219
 40
18.032
 50
143.276
 51
151.39
  0
ARC
  8
APS_GEOMETRY
 10
174.901
 20
-456.443
 40
11.726
 50
124.216
 51
143.31
  0
ARC
  8
APS_GEOMETRY
 10
170.403
 20
-449.828
 40
3.728
 50
90.0
 51
124.216
  0
ARC
  8
APS_GEOMETRY
 10
170.403
 20
-451.485
 40
5.384
 50
82.725
 51
90.0
  0
ARC
  8
APS_GEOMETRY
 10
169.983
 20
-454.78
 40
8.707
 50
77.005
 51
82.725
  0
ARC
  8
APS_GEOMETRY
 10
182.831
 20
-392.834
 40
54.561
 50
258.486
 51
260.378
  0
ARC
  8
APS_GEOMETRY
 10
177.327
 20
-425.299
 40
21.633
 50
260.378
 51
263.382
  0
ARC
  8
APS_GEOMETRY
 10
176.856
 20
-429.356
 40
17.548
 50
263.382
 51
267.084
  0
ARC
  8
APS_GEOMETRY
 10
177.402
 20
-418.645
 40
28.273
 50
267.084
 51
270.0
  0
LINE
  8
APS_GEOMETRY
 10
220.819
 11
237.629
 20
-446.918
 21
-446.918
  0
ARC
  8
APS_GEOMETRY
 10
237.629
 20
-235.199
 40
211.72
 50
270.0
 51
270.69
  0
ARC
  8
APS_GEOMETRY
 10
238.822
 20
-334.255
 40
112.656
 50
270.69
 51
271.637
  0
ARC
  8
APS_GEOMETRY
 10
239.828
 20
-369.449
 40
77.448
 50
271.637
 51
273.013
  0
ARC
  8
APS_GEOMETRY
 10
242.278
 20
-416.011
 40
30.821
 50
273.013
 51
275.194
  0
ARC
  8
APS_GEOMETRY
 10
242.886
 20
-422.693
 40
24.112
 50
275.194
 51
280.756
  0
ARC
  8
APS_GEOMETRY
 10
243.0
 20
-423.294
 40
23.5
 50
280.756
 51
286.39
  0
ARC
  8
APS_GEOMETRY
 10
251.614
 20
-452.778
 40
7.217
 50
100.305
 51
105.945
  0
ARC
  8
APS_GEOMETRY
 10
250.71
 20
-447.809
 40
2.166
 50
90.0
 51
100.305
  0
ARC
  8
APS_GEOMETRY
 10
250.71
 20
-448.582
 40
2.94
 50
58.946
 51
90.0
  0
ARC
  8
APS_GEOMETRY
 10
249.586
 20
-450.45
 40
5.119
 50
35.538
 51
58.946
  0
ARC
  8
APS_GEOMETRY
 10
245.197
 20
-453.678
 40
10.568
 50
16.699
 51
35.952
  0
ARC
  8
APS_GEOMETRY
 10
241.896
 20
-454.669
 40
14.014
 50
360.0
 51
16.699
  0
ARC
  8
APS_GEOMETRY
 10
248.046
 20
-454.669
 40
7.864
 50
344.982
 51
360.0
  0
ARC
  8
APS_GEOMETRY
 10
251.82
 20
-455.682
 40
3.956
 50
323.746
 51
344.982
  0
ARC
  8
APS_GEOMETRY
 10
252.659
 20
-456.297
 40
2.916
 50
296.114
 51
323.746
  0
ARC
  8
APS_GEOMETRY
 10
252.509
 20
-455.99
 40
3.258
 50
270.0
 51
296.114
  0
ARC
  8
APS_GEOMETRY
 10
252.509
 20
-455.163
 40
4.084
 50
255.311
 51
270.0
  0
ARC
  8
APS_GEOMETRY
 10
251.963
 20
-457.246
 40
1.931
 50
233.881
 51
255.311
  0
ARC
  8
APS_GEOMETRY
 10
252.537
 20
-456.459
 40
2.906
 50
219.289
 51
233.881
  0
ARC
  8
APS_GEOMETRY
 10
264.068
 20
-447.025
 40
17.803
 50
213.408
 51
219.289
  0
ARC
  8
APS_GEOMETRY
 10
242.466
 20
-461.253
 40
8.063
 50
33.294
 51
51.246
  0
ARC
  8
APS_GEOMETRY
 10
243.564
 20
-459.885
 40
6.309
 50
51.246
 51
71.565
  0
ARC
  8
APS_GEOMETRY
 10
242.838
 20
-462.063
 40
8.604
 50
71.565
 51
79.278
  0
ARC
  8
APS_GEOMETRY
 10
240.51
 20
-474.358
 40
21.118
 50
79.278
 51
84.2
  0
ARC
  8
APS_GEOMETRY
 10
239.517
 20
-484.137
 40
30.947
 50
84.2
 51
87.567
  0
ARC
  8
APS_GEOMETRY
 10
238.315
 20
-512.415
 40
59.251
 50
87.567
 51
90.0
  0
ARC
  8
APS_GEOMETRY
 10
238.315
 20
-469.82
 40
16.656
 50
90.0
 51
96.374
  0
ARC
  8
APS_GEOMETRY
 10
237.21
 20
-459.924
 40
6.698
 50
96.374
 51
106.434
  0
ARC
  8
APS_GEOMETRY
 10
236.424
 20
-457.261
 40
3.921
 50
106.434
 51
123.056
  0
ARC
  8
APS_GEOMETRY
 10
235.198
 20
-455.376
 40
1.673
 50
123.056
 51
148.627
  0
ARC
  8
APS_GEOMETRY
 10
236.318
 20
-456.011
 40
2.96
 50
149.421
 51
165.28
  0
ARC
  8
APS_GEOMETRY
 10
239.547
 20
-456.859
 40
6.298
 50
165.28
 51
176.135
  0
ARC
  8
APS_GEOMETRY
 10
248.789
 20
-457.484
 40
15.562
 50
176.135
 51
178.367
  0
ARC
  8
APS_GEOMETRY
 10
334.295
 20
-459.922
 40
101.103
 50
178.367
 51
179.242
  0
ARC
  8
APS_GEOMETRY
 10
422.664
 20
-461.091
 40
189.479
 50
179.242
 51
179.709
  0
ARC
  8
APS_GEOMETRY
 10
723.313
 20
-462.616
 40
490.132
 50
179.709
 51
180.0
  0
ARC
  8
APS_GEOMETRY
 10
240.272
 20
-462.616
 40
7.091
 50
180.0
 51
195.027
  0
ARC
  8
APS_GEOMETRY
 10
234.473
 20
-464.173
 40
1.086
 50
195.027
 51
234.058
  0
ARC
  8
APS_GEOMETRY
 10
234.529
 20
-464.095
 40
1.183
 50
234.058
 51
253.191
  0
ARC
  8
APS_GEOMETRY
 10
235.766
 20
-459.999
 40
5.461
 50
253.191
 51
262.063
  0
ARC
  8
APS_GEOMETRY
 10
236.4
 20
-455.454
 40
10.05
 50
262.063
 51
266.949
  0
ARC
  8
APS_GEOMETRY
 10
237.236
 20
-439.772
 40
25.755
 50
266.949
 51
270.0
  0
ARC
  8
APS_GEOMETRY
 10
237.236
 20
-460.805
 40
4.722
 50
270.0
 51
286.007
  0
ARC
  8
APS_GEOMETRY
 10
238.063
 20
-463.686
 40
1.725
 50
286.007
 51
312.647
  0
ARC
  8
APS_GEOMETRY
 10
238.045
 20
-463.667
 40
1.75
 50
312.647
 51
338.993
  0
ARC
  8
APS_GEOMETRY
 10
234.471
 20
-462.294
 40
5.58
 50
338.993
 51
353.66
  0
ARC
  8
APS_GEOMETRY
 10
271.39
 20
-466.697
 40
31.601
 50
169.663
 51
173.118
  0
ARC
  8
APS_GEOMETRY
 10
245.0
 20
-461.883
 40
4.776
 50
160.769
 51
169.663
  0
ARC
  8
APS_GEOMETRY
 10
242.793
 20
-461.113
 40
2.439
 50
143.746
 51
160.769
  0
ARC
  8
APS_GEOMETRY
 10
243.326
 20
-461.505
 40
3.1
 50
128.66
 51
143.746
  0
ARC
  8
APS_GEOMETRY
 10
242.971
 20
-460.928
 40
2.429
 50
110.171
 51
130.601
  0
ARC
  8
APS_GEOMETRY
 10
242.992
 20
-460.987
 40
2.492
 50
90.0
 51
110.171
  0
ARC
  8
APS_GEOMETRY
 10
242.992
 20
-461.022
 40
2.527
 50
61.22
 51
90.0
  0
ARC
  8
APS_GEOMETRY
 10
242.551
 20
-461.825
 40
3.443
 50
36.634
 51
61.22
  0
ARC
  8
APS_GEOMETRY
 10
242.137
 20
-462.071
 40
3.923
 50
19.103
 51
35.91
  0
ARC
  8
APS_GEOMETRY
 10
229.342
 20
-466.503
 40
17.463
 50
11.16
 51
19.103
  0
ARC
  8
APS_GEOMETRY
 10
222.657
 20
-467.822
 40
24.277
 50
5.396
 51
11.16
  0
ARC
  8
APS_GEOMETRY
 10
219.257
 20
-468.143
 40
27.692
 50
0.0
 51
5.396
  0
ARC
  8
APS_GEOMETRY
 10
219.739
 20
-468.143
 40
27.21
 50
349.287
 51
0.0
  0
ARC
  8
APS_GEOMETRY
 10
233.097
 20
-470.67
 40
13.615
 50
334.12
 51
349.287
  0
ARC
  8
APS_GEOMETRY
 10
242.299
 20
-475.117
 40
3.396
 50
303.53
 51
333.853
  0
ARC
  8
APS_GEOMETRY
 10
242.632
 20
-475.62
 40
2.791
 50
270.0
 51
303.53
  0
ARC
  8
APS_GEOMETRY
 10
242.632
 20
-475.49
 40
2.922
 50
249.578
 51
270.0
  0
ARC
  8
APS_GEOMETRY
 10
242.011
 20
-477.159
 40
1.14
 50
216.607
 51
249.578
  0
ARC
  8
APS_GEOMETRY
 10
242.605
 20
-476.718
 40
1.881
 50
195.422
 51
216.607
  0
ARC
  8
APS_GEOMETRY
 10
252.867
 20
-473.887
 40
12.526
 50
187.253
 51
195.422
  0
ARC
  8
APS_GEOMETRY
 10
236.294
 20
-476.019
 40
4.183
 50
7.561
 51
49.434
  0
ARC
  8
APS_GEOMETRY
 10
236.124
 20
-476.218
 40
4.445
 50
49.434
 51
90.0
  0
ARC
  8
APS_GEOMETRY
 10
236.124
 20
-474.764
 40
2.991
 50
90.0
 51
115.224
  0
ARC
  8
APS_GEOMETRY
 10
235.533
 20
-473.508
 40
1.603
 50
115.224
 51
149.931
  0
ARC
  8
APS_GEOMETRY
 10
236.602
 20
-474.127
 40
2.838
 50
149.931
 51
171.111
  0
ARC
  8
APS_GEOMETRY
 10
249.57
 20
-476.155
 40
15.963
 50
171.111
 51
180.0
  0
ARC
  8
APS_GEOMETRY
 10
262.345
 20
-476.155
 40
28.739
 50
180.0
 51
183.062
  0
ARC
  8
APS_GEOMETRY
 10
306.333
 20
-473.802
 40
72.789
 50
183.062
 51
184.986
  0
ARC
  8
APS_GEOMETRY
 10
283.26
 20
-475.815
 40
49.629
 50
184.986
 51
187.804
  0
ARC
  8
APS_GEOMETRY
 10
239.559
 20
-481.804
 40
5.52
 50
187.804
 51
196.26
  0
ARC
  8
APS_GEOMETRY
 10
235.705
 20
-482.964
 40
1.496
 50
194.931
 51
230.024
  0
ARC
  8
APS_GEOMETRY
 10
236.686
 20
-481.795
 40
3.022
 50
230.024
 51
254.511
  0
ARC
  8
APS_GEOMETRY
 10
237.878
 20
-477.494
 40
7.485
 50
254.511
 51
265.219
  0
ARC
  8
APS_GEOMETRY
 10
240.376
 20
-447.627
 40
37.456
 50
265.219
 51
270.0
  0
ARC
  8
APS_GEOMETRY
 10
240.376
 20
-451.587
 40
33.497
 50
270.0
 51
274.186
  0
ARC
  8
APS_GEOMETRY
 10
241.394
 20
-465.503
 40
19.543
 50
274.186
 51
279.668
  0
ARC
  8
APS_GEOMETRY
 10
242.23
 20
-470.411
 40
14.564
 50
279.668
 51
286.991
  0
ARC
  8
APS_GEOMETRY
 10
244.143
 20
-476.671
 40
8.018
 50
286.991
 51
296.866
  0
ARC
  8
APS_GEOMETRY
 10
244.541
 20
-477.456
 40
7.139
 50
296.866
 51
318.366
  0
ARC
  8
APS_GEOMETRY
 10
240.542
 20
-473.901
 40
12.489
 50
318.366
 51
334.581
  0
ARC
  8
APS_GEOMETRY
 10
266.871
 20
-486.527
 40
16.711
 50
147.08
 51
154.231
  0
ARC
  8
APS_GEOMETRY
 10
255.865
 20
-479.401
 40
3.599
 50
131.634
 51
147.08
  0
ARC
  8
APS_GEOMETRY
 10
255.044
 20
-478.478
 40
2.364
 50
108.875
 51
131.634
  0
ARC
  8
APS_GEOMETRY
 10
255.387
 20
-479.48
 40
3.423
 50
90.0
 51
108.875
  0
ARC
  8
APS_GEOMETRY
 10
255.387
 20
-478.784
 40
2.727
 50
62.628
 51
90.0
  0
ARC
  8
APS_GEOMETRY
 10
255.214
 20
-479.118
 40
3.103
 50
36.995
 51
62.628
  0
ARC
  8
APS_GEOMETRY
 10
254.441
 20
-479.7
 40
4.071
 50
16.728
 51
36.995
  0
ARC
  8
APS_GEOMETRY
 10
252.635
 20
-480.243
 40
5.956
 50
360.0
 51
16.728
  0
ARC
  8
APS_GEOMETRY
 10
249.06
 20
-480.243
 40
9.532
 50
348.323
 51
360.0
  0
ARC
  8
APS_GEOMETRY
 10
234.751
 20
-477.286
 40
24.143
 50
340.994
 51
348.323
  0
ARC
  8
APS_GEOMETRY
 10
231.357
 20
-476.117
 40
27.733
 50
334.592
 51
340.994
  0
ARC
  8
APS_GEOMETRY
 10
237.281
 20
-478.931
 40
21.175
 50
327.265
 51
334.592
  0
ARC
  8
APS_GEOMETRY
 10
244.161
 20
-482.986
 40
13.198
 50
320.133
 51
325.923
  0
ARC
  8
APS_GEOMETRY
 10
252.163
 20
-489.67
 40
2.771
 50
307.476
 51
320.133
  0
ARC
  8
APS_GEOMETRY
 10
252.864
 20
-490.584
 40
1.619
 50
286.429
 51
307.476
  0
ARC
  8
APS_GEOMETRY
 10
252.574
 20
-489.6
 40
2.646
 50
270.0
 51
286.429
  0
ARC
  8
APS_GEOMETRY
 10
252.574
 20
-486.541
 40
5.704
 50
263.774
 51
270.0
  0
ARC
  8
APS_GEOMETRY
 10
254.243
 20
-471.244
 40
21.092
 50
260.538
 51
263.774
  0
ARC
  8
APS_GEOMETRY
 10
246.774
 20
-513.39
 40
21.713
 50
79.38
 51
84.987
  0
ARC
  8
APS_GEOMETRY
 10
243.536
 20
-550.301
 40
58.766
 50
84.987
 51
88.394
  0
LINE
  8
APS_GEOMETRY
 10
245.183
 11
217.451
 20
-491.558
 21
-491.558
  0
ARC
  8
APS_GEOMETRY
 10
217.451
 20
-485.755
 40
5.804
 50
254.103
 51
270.0
  0
ARC
  8
APS_GEOMETRY
 10
216.633
 20
-488.625
 40
2.82
 50
231.216
 51
254.103
  0
ARC
  8
APS_GEOMETRY
 10
216.298
 20
-489.042
 40
2.284
 50
203.795
 51
231.216
  0
ARC
  8
APS_GEOMETRY
 10
216.97
 20
-488.746
 40
3.019
 50
180.0
 51
203.795
  0
ARC
  8
APS_GEOMETRY
 10
217.224
 20
-488.746
 40
3.273
 50
164.055
 51
180.0
  0
ARC
  8
APS_GEOMETRY
 10
215.208
 20
-488.17
 40
1.175
 50
137.291
 51
164.055
  0
ARC
  8
APS_GEOMETRY
 10
215.814
 20
-488.73
 40
2.001
 50
120.964
 51
137.291
  0
ARC
  8
APS_GEOMETRY
 10
222.315
 20
-499.564
 40
14.637
 50
114.944
 51
120.964
  0
ARC
  8
APS_GEOMETRY
 10
214.2
 20
-481.81
 40
4.886
 50
293.429
 51
305.72
  0
ARC
  8
APS_GEOMETRY
 10
215.544
 20
-483.679
 40
2.584
 50
305.72
 51
322.651
  0
ARC
  8
APS_GEOMETRY
 10
215.335
 20
-483.52
 40
2.846
 50
322.651
 51
338.11
  0
ARC
  8
APS_GEOMETRY
 10
211.277
 20
-481.89
 40
7.219
 50
338.11
 51
347.8
  0
ARC
  8
APS_GEOMETRY
 10
186.077
 20
-476.366
 40
33.018
 50
347.672
 51
352.051
  0
ARC
  8
APS_GEOMETRY
 10
161.684
 20
-472.96
 40
57.647
 50
352.051
 51
355.365
  0
ARC
  8
APS_GEOMETRY
 10
145.257
 20
-471.628
 40
74.128
 50
355.365
 51
357.943
  0
ARC
  8
APS_GEOMETRY
 10
102.847
 20
-470.105
 40
116.566
 50
357.943
 51
0.0
  0
ARC
  8
APS_GEOMETRY
 10
53.895
 20
-470.105
 40
165.518
 50
0.0
 51
2.183
  0
ARC
  8
APS_GEOMETRY
 10
152.87
 20
-466.331
 40
66.471
 50
2.183
 51
5.629
  0
ARC
  8
APS_GEOMETRY
 10
182.354
 20
-463.425
 40
36.844
 50
5.629
 51
11.805
  0
ARC
  8
APS_GEOMETRY
 10
210.97
 20
-457.445
 40
7.61
 50
11.805
 51
25.419
  0
ARC
  8
APS_GEOMETRY
 10
214.673
 20
-455.763
 40
3.544
 50
26.565
 51
38.157
  0
ARC
  8
APS_GEOMETRY
 10
216.318
 20
-454.471
 40
1.452
 50
38.157
 51
56.31
  0
ARC
  8
APS_GEOMETRY
 10
215.97
 20
-454.993
 40
2.079
 50
56.31
 51
69.193
  0
ARC
  8
APS_GEOMETRY
 10
211.09
 20
-467.834
 40
15.817
 50
69.193
 51
73.856
  0
ARC
  8
APS_GEOMETRY
 10
216.238
 20
-450.127
 40
2.623
 50
216.87
 51
253.393
  0
ARC
  8
APS_GEOMETRY
 10
216.2
 20
-450.156
 40
2.576
 50
180.0
 51
216.87
  0
ARC
  8
APS_GEOMETRY
 10
216.762
 20
-450.156
 40
3.138
 50
161.565
 51
180.0
  0
ARC
  8
APS_GEOMETRY
 10
216.649
 20
-450.118
 40
3.018
 50
142.765
 51
161.565
  0
ARC
  8
APS_GEOMETRY
 10
216.576
 20
-450.063
 40
2.928
 50
123.425
 51
142.765
  0
ARC
  8
APS_GEOMETRY
 10
216.642
 20
-450.163
 40
3.047
 50
104.47
 51
123.425
  0
ARC
  8
APS_GEOMETRY
 10
217.222
 20
-453.025
 40
5.965
 50
96.724
 51
102.995
  0
ARC
  8
APS_GEOMETRY
 10
219.023
 20
-468.3
 40
21.346
 50
93.411
 51
96.724
  0
ARC
  8
APS_GEOMETRY
 10
219.823
 20
-481.721
 40
34.791
 50
91.375
 51
93.411
  0
ARC
  8
APS_GEOMETRY
 10
220.819
 20
-523.221
 40
76.303
 50
90.0
 51
91.375
  0
LINE
  8
APS_GEOMETRY
 10
26.5
 11
853.5
 20
4.5
 21
4.5
  0
LINE
  8
APS_GEOMETRY
 10
853.5
 11
853.5
 20
4.5
 21
2113.5
  0
LINE
  8
APS_GEOMETRY
 10
853.5
 11
26.5
 20
2113.5
 21
2113.5
  0
LINE
  8
APS_GEOMETRY
 10
26.5
 11
26.5
 20
2113.5
 21
4.5
  0
LINE
  8
APS_GEOMETRY
 10
140.5
 11
140.5
 20
714.499
 21
180.5
  0
LINE
  8
APS_GEOMETRY
 10
739.5
 11
739.5
 20
180.5
 21
714.499
  0
LINE
  8
APS_GEOMETRY
 10
739.5
 11
140.5
 20
1146.0
 21
1146.0
  0
LINE
  8
APS_GEOMETRY
 10
140.5
 11
140.5
 20
1146.0
 21
1937.5
  0
LINE
  8
APS_GEOMETRY
 10
140.5
 11
739.5
 20
1937.5
 21
1937.5
  0
LINE
  8
APS_GEOMETRY
 10
739.5
 11
739.5
 20
1937.5
 21
1146.0
  0
LINE
  8
APS_GEOMETRY
 10
140.5
 11
739.5
 20
180.5
 21
180.5
  0
LINE
  8
APS_GEOMETRY
 10
26.5
 11
853.5
 20
164.5
 21
164.5
  0
LINE
  8
APS_GEOMETRY
 10
124.5
 11
124.5
 20
1953.5
 21
1130.0
  0
LINE
  8
APS_GEOMETRY
 10
124.5
 11
124.5
 20
988.0
 21
164.5
  0
LINE
  8
APS_GEOMETRY
 10
755.5
 11
755.5
 20
164.5
 21
988.0
  0
LINE
  8
APS_GEOMETRY
 10
755.5
 11
755.5
 20
1130.0
 21
1953.5
  0
LINE
  8
APS_GEOMETRY
 10
124.5
 11
140.5
 20
164.5
 21
180.5
  0
LINE
  8
APS_GEOMETRY
 10
755.5
 11
739.5
 20
164.5
 21
180.5
  0
LINE
  8
COSTRUZIONI
 10
836.0
 11
836.0
 20
0.0
 21
4.5
  0
LINE
  8
COSTRUZIONI
 10
44.0
 11
44.0
 20
4.5
 21
0.0
  0
LINE
  8
COSTRUZIONI
 10
26.5
 11
11.0
 20
2113.5
 21
2129.0
  0
LINE
  8
COSTRUZIONI
 10
853.5
 11
869.0
 20
2113.5
 21
2129.0
  0
LINE
  8
APS_GEOMETRY
 10
869.0
 11
869.0
 20
0.0
 21
2129.0
  0
LINE
  8
APS_GEOMETRY
 10
869.0
 11
11.0
 20
2129.0
 21
2129.0
  0
LINE
  8
APS_GEOMETRY
 10
11.0
 11
11.0
 20
2129.0
 21
0.0
  0
LINE
  8
COSTRUZIONI
 10
0.0
 11
44.0
 20
0.0
 21
0.0
  0
LINE
  8
COSTRUZIONI
 10
836.0
 11
880.0
 20
0.0
 21
0.0
  0
LINE
  8
APS_GEOMETRY
 10
869.0
 11
938.0
 20
2129.0
 21
2198.0
  0
LINE
  8
APS_GEOMETRY
 10
11.0
 11
-58.0
 20
2129.0
 21
2198.0
  0
LINE
  8
APS_GEOMETRY
 10
-58.0
 11
11.0
 20
0.0
 21
0.0
  0
LINE
  8
APS_GEOMETRY
 10
869.0
 11
938.0
 20
0.0
 21
0.0
  0
LINE
  8
QUOTATURA
 10
43.0
 11
43.0
 20
-201.033
 21
-200.367
  0
LINE
  8
COSTRUZIONI
 10
25.8
 11
33.5
 20
-196.2
 21
-196.2
  0
ARC
  8
COSTRUZIONI
 10
38.5
 20
-208.2
 40
13.0
 50
67.38
 51
112.62
  0
LINE
  8
COSTRUZIONI
 10
43.5
 11
43.5
 20
-196.2
 21
-199.7
  0
LINE
  8
COSTRUZIONI
 10
43.5
 11
25.8
 20
-199.7
 21
-199.7
  0
LINE
  8
COSTRUZIONI
 10
25.8
 11
25.8
 20
-199.7
 21
-196.2
  0
LINE
  8
COSTRUZIONI
 10
25.977
 11
25.8
 20
-199.7
 21
-199.523
  0
LINE
  8
COSTRUZIONI
 10
25.8
 11
26.507
 20
-198.993
 21
-199.7
  0
LINE
  8
COSTRUZIONI
 10
26.684
 11
25.8
 20
-199.7
 21
-198.816
  0
LINE
  8
COSTRUZIONI
 10
25.8
 11
27.214
 20
-198.286
 21
-199.7
  0
LINE
  8
COSTRUZIONI
 10
27.391
 11
25.8
 20
-199.7
 21
-198.109
  0
LINE
  8
COSTRUZIONI
 10
25.8
 11
27.921
 20
-197.579
 21
-199.7
  0
LINE
  8
COSTRUZIONI
 10
28.098
 11
25.8
 20
-199.7
 21
-197.402
  0
LINE
  8
COSTRUZIONI
 10
25.8
 11
28.628
 20
-196.872
 21
-199.7
  0
LINE
  8
COSTRUZIONI
 10
28.805
 11
25.8
 20
-199.7
 21
-196.695
  0
LINE
  8
COSTRUZIONI
 10
25.836
 11
29.336
 20
-196.2
 21
-199.7
  0
LINE
  8
COSTRUZIONI
 10
29.512
 11
26.012
 20
-199.7
 21
-196.2
  0
LINE
  8
COSTRUZIONI
 10
26.543
 11
30.043
 20
-196.2
 21
-199.7
  0
LINE
  8
COSTRUZIONI
 10
30.219
 11
26.719
 20
-199.7
 21
-196.2
  0
LINE
  8
COSTRUZIONI
 10
27.25
 11
30.75
 20
-196.2
 21
-199.7
  0
LINE
  8
COSTRUZIONI
 10
30.927
 11
27.427
 20
-199.7
 21
-196.2
  0
LINE
  8
COSTRUZIONI
 10
27.957
 11
31.457
 20
-196.2
 21
-199.7
  0
LINE
  8
COSTRUZIONI
 10
31.634
 11
28.134
 20
-199.7
 21
-196.2
  0
LINE
  8
COSTRUZIONI
 10
28.664
 11
32.164
 20
-196.2
 21
-199.7
  0
LINE
  8
COSTRUZIONI
 10
32.341
 11
28.841
 20
-199.7
 21
-196.2
  0
LINE
  8
COSTRUZIONI
 10
29.371
 11
32.871
 20
-196.2
 21
-199.7
  0
LINE
  8
COSTRUZIONI
 10
33.048
 11
29.548
 20
-199.7
 21
-196.2
  0
LINE
  8
COSTRUZIONI
 10
30.078
 11
33.578
 20
-196.2
 21
-199.7
  0
LINE
  8
COSTRUZIONI
 10
33.755
 11
30.255
 20
-199.7
 21
-196.2
  0
LINE
  8
COSTRUZIONI
 10
30.785
 11
34.285
 20
-196.2
 21
-199.7
  0
LINE
  8
COSTRUZIONI
 10
34.462
 11
30.962
 20
-199.7
 21
-196.2
  0
LINE
  8
COSTRUZIONI
 10
31.492
 11
34.992
 20
-196.2
 21
-199.7
  0
LINE
  8
COSTRUZIONI
 10
35.169
 11
31.669
 20
-199.7
 21
-196.2
  0
LINE
  8
COSTRUZIONI
 10
32.199
 11
35.699
 20
-196.2
 21
-199.7
  0
LINE
  8
COSTRUZIONI
 10
35.876
 11
32.376
 20
-199.7
 21
-196.2
  0
LINE
  8
COSTRUZIONI
 10
32.907
 11
36.407
 20
-196.2
 21
-199.7
  0
LINE
  8
COSTRUZIONI
 10
36.583
 11
33.083
 20
-199.7
 21
-196.2
  0
LINE
  8
COSTRUZIONI
 10
33.58
 11
37.114
 20
-196.167
 21
-199.7
  0
LINE
  8
COSTRUZIONI
 10
37.29
 11
33.707
 20
-199.7
 21
-196.116
  0
LINE
  8
COSTRUZIONI
 10
34.091
 11
37.821
 20
-195.97
 21
-199.7
  0
LINE
  8
COSTRUZIONI
 10
37.998
 11
34.222
 20
-199.7
 21
-195.924
  0
LINE
  8
COSTRUZIONI
 10
34.62
 11
38.528
 20
-195.792
 21
-199.7
  0
LINE
  8
COSTRUZIONI
 10
38.705
 11
34.756
 20
-199.7
 21
-195.751
  0
LINE
  8
COSTRUZIONI
 10
35.169
 11
39.235
 20
-195.634
 21
-199.7
  0
LINE
  8
COSTRUZIONI
 10
39.412
 11
35.309
 20
-199.7
 21
-195.598
  0
LINE
  8
COSTRUZIONI
 10
35.739
 11
39.942
 20
-195.497
 21
-199.7
  0
LINE
  8
COSTRUZIONI
 10
40.119
 11
35.885
 20
-199.7
 21
-195.466
  0
LINE
  8
COSTRUZIONI
 10
36.331
 11
40.649
 20
-195.382
 21
-199.7
  0
LINE
  8
COSTRUZIONI
 10
40.826
 11
36.483
 20
-199.7
 21
-195.357
  0
LINE
  8
COSTRUZIONI
 10
36.949
 11
41.356
 20
-195.293
 21
-199.7
  0
LINE
  8
COSTRUZIONI
 10
41.533
 11
37.108
 20
-199.7
 21
-195.275
  0
LINE
  8
COSTRUZIONI
 10
37.595
 11
42.063
 20
-195.232
 21
-199.7
  0
LINE
  8
COSTRUZIONI
 10
42.24
 11
37.761
 20
-199.7
 21
-195.221
  0
LINE
  8
COSTRUZIONI
 10
38.273
 11
42.771
 20
-195.202
 21
-199.7
  0
LINE
  8
COSTRUZIONI
 10
42.947
 11
38.447
 20
-199.7
 21
-195.2
  0
LINE
  8
COSTRUZIONI
 10
38.987
 11
43.478
 20
-195.209
 21
-199.7
  0
LINE
  8
COSTRUZIONI
 10
43.5
 11
39.172
 20
-199.546
 21
-195.217
  0
LINE
  8
COSTRUZIONI
 10
39.744
 11
43.5
 20
-195.26
 21
-199.015
  0
LINE
  8
COSTRUZIONI
 10
43.5
 11
39.942
 20
-198.839
 21
-195.28
  0
LINE
  8
COSTRUZIONI
 10
40.555
 11
43.5
 20
-195.364
 21
-198.308
  0
LINE
  8
COSTRUZIONI
 10
43.5
 11
40.768
 20
-198.131
 21
-195.399
  0
LINE
  8
COSTRUZIONI
 10
41.435
 11
43.5
 20
-195.536
 21
-197.601
  0
LINE
  8
COSTRUZIONI
 10
43.5
 11
41.668
 20
-197.424
 21
-195.592
  0
LINE
  8
COSTRUZIONI
 10
42.407
 11
43.5
 20
-195.801
 21
-196.894
  0
LINE
  8
COSTRUZIONI
 10
43.5
 11
42.67
 20
-196.717
 21
-195.887
  0
ARC
  8
APS_GEOMETRY
 10
43.0
 20
-200.7
 40
1.0
 50
360.0
 51
90.0
  0
LINE
  8
APS_GEOMETRY
 10
0.0
 11
0.0
 20
-213.496
 21
-284.5
  0
LINE
  8
APS_GEOMETRY
 10
0.0
 11
6.7
 20
-284.5
 21
-284.5
  0
LINE
  8
APS_GEOMETRY
 10
6.7
 11
6.7
 20
-284.5
 21
-270.5
  0
LINE
  8
APS_GEOMETRY
 10
6.7
 11
11.0
 20
-270.5
 21
-270.5
  0
LINE
  8
APS_GEOMETRY
 10
11.0
 11
11.0
 20
-270.5
 21
-284.5
  0
LINE
  8
APS_GEOMETRY
 10
11.0
 11
34.0
 20
-284.5
 21
-284.5
  0
ARC
  8
APS_GEOMETRY
 10
34.0
 20
-274.5
 40
10.0
 50
270.0
 51
0.0
  0
LINE
  8
APS_GEOMETRY
 10
44.0
 11
44.0
 20
-274.5
 21
-200.7
  0
LINE
  8
APS_GEOMETRY
 10
33.5
 11
33.5
 20
-196.2
 21
-169.5
  0
ARC
  8
APS_GEOMETRY
 10
30.5
 20
-169.5
 40
3.0
 50
0.0
 51
90.0
  0
LINE
  8
APS_GEOMETRY
 10
30.5
 11
8.5
 20
-166.5
 21
-166.5
  0
LINE
  8
APS_GEOMETRY
 10
8.5
 11
8.5
 20
-166.5
 21
-180.5
  0
LINE
  8
APS_GEOMETRY
 10
8.5
 11
4.2
 20
-180.5
 21
-180.5
  0
LINE
  8
APS_GEOMETRY
 10
4.2
 11
4.2
 20
-180.5
 21
-166.5
  0
LINE
  8
APS_GEOMETRY
 10
4.2
 11
0.0
 20
-166.5
 21
-166.5
  0
LINE
  8
APS_GEOMETRY
 10
0.0
 11
0.0
 20
-166.5
 21
-284.5
  0
LINE
  8
APS_GEOMETRY
 10
39.5
 11
122.5
 20
-196.5
 21
-196.5
  0
ARC
  8
APS_GEOMETRY
 10
31.5
 20
-156.5
 40
5.0
 50
90.0
 51
180.0
  0
LINE
  8
APS_GEOMETRY
 10
26.5
 11
26.5
 20
-156.5
 21
-164.5
  0
ARC
  8
APS_GEOMETRY
 10
28.5
 20
-164.5
 40
2.0
 50
180.0
 51
270.0
  0
LINE
  8
APS_GEOMETRY
 10
28.5
 11
36.5
 20
-166.5
 21
-166.5
  0
LINE
  8
APS_GEOMETRY
 10
36.5
 11
36.5
 20
-166.5
 21
-193.5
  0
ARC
  8
APS_GEOMETRY
 10
39.5
 20
-193.5
 40
3.0
 50
180.0
 51
270.0
  0
LINE
  8
COSTRUZIONI
 10
-1.5
 11
-1.5
 20
-166.5
 21
-284.5
  0
LINE
  8
COSTRUZIONI
 10
-21.5
 11
-21.5
 20
-166.5
 21
-284.5
  0
LINE
  8
COSTRUZIONI
 10
-1.5
 11
-136.543
 20
-166.5
 21
-166.5
  0
LINE
  8
COSTRUZIONI
 10
-1.5
 11
-136.543
 20
-284.5
 21
-284.5
  0
LINE
  8
COSTRUZIONI
 10
-21.5
 11
-1.5
 20
-284.5
 21
-166.5
  0
LINE
  8
COSTRUZIONI
 10
-21.5
 11
-1.5
 20
-166.5
 21
-284.5
  0
LINE
  8
QUOTATURA
 10
837.0
 11
837.0
 20
-201.033
 21
-200.367
  0
LINE
  8
COSTRUZIONI
 10
854.2
 11
846.5
 20
-196.2
 21
-196.2
  0
ARC
  8
COSTRUZIONI
 10
841.5
 20
-208.2
 40
13.0
 50
67.38
 51
112.62
  0
LINE
  8
COSTRUZIONI
 10
836.5
 11
836.5
 20
-196.2
 21
-199.7
  0
LINE
  8
COSTRUZIONI
 10
836.5
 11
854.2
 20
-199.7
 21
-199.7
  0
LINE
  8
COSTRUZIONI
 10
854.2
 11
854.2
 20
-199.7
 21
-196.2
  0
LINE
  8
COSTRUZIONI
 10
854.023
 11
854.2
 20
-199.7
 21
-199.523
  0
LINE
  8
COSTRUZIONI
 10
854.2
 11
853.493
 20
-198.993
 21
-199.7
  0
LINE
  8
COSTRUZIONI
 10
853.316
 11
854.2
 20
-199.7
 21
-198.816
  0
LINE
  8
COSTRUZIONI
 10
854.2
 11
852.786
 20
-198.286
 21
-199.7
  0
LINE
  8
COSTRUZIONI
 10
852.609
 11
854.2
 20
-199.7
 21
-198.109
  0
LINE
  8
COSTRUZIONI
 10
854.2
 11
852.079
 20
-197.579
 21
-199.7
  0
LINE
  8
COSTRUZIONI
 10
851.902
 11
854.2
 20
-199.7
 21
-197.402
  0
LINE
  8
COSTRUZIONI
 10
854.2
 11
851.372
 20
-196.872
 21
-199.7
  0
LINE
  8
COSTRUZIONI
 10
851.195
 11
854.2
 20
-199.7
 21
-196.695
  0
LINE
  8
COSTRUZIONI
 10
854.164
 11
850.664
 20
-196.2
 21
-199.7
  0
LINE
  8
COSTRUZIONI
 10
850.488
 11
853.988
 20
-199.7
 21
-196.2
  0
LINE
  8
COSTRUZIONI
 10
853.457
 11
849.957
 20
-196.2
 21
-199.7
  0
LINE
  8
COSTRUZIONI
 10
849.781
 11
853.281
 20
-199.7
 21
-196.2
  0
LINE
  8
COSTRUZIONI
 10
852.75
 11
849.25
 20
-196.2
 21
-199.7
  0
LINE
  8
COSTRUZIONI
 10
849.073
 11
852.573
 20
-199.7
 21
-196.2
  0
LINE
  8
COSTRUZIONI
 10
852.043
 11
848.543
 20
-196.2
 21
-199.7
  0
LINE
  8
COSTRUZIONI
 10
848.366
 11
851.866
 20
-199.7
 21
-196.2
  0
LINE
  8
COSTRUZIONI
 10
851.336
 11
847.836
 20
-196.2
 21
-199.7
  0
LINE
  8
COSTRUZIONI
 10
847.659
 11
851.159
 20
-199.7
 21
-196.2
  0
LINE
  8
COSTRUZIONI
 10
850.629
 11
847.129
 20
-196.2
 21
-199.7
  0
LINE
  8
COSTRUZIONI
 10
846.952
 11
850.452
 20
-199.7
 21
-196.2
  0
LINE
  8
COSTRUZIONI
 10
849.922
 11
846.422
 20
-196.2
 21
-199.7
  0
LINE
  8
COSTRUZIONI
 10
846.245
 11
849.745
 20
-199.7
 21
-196.2
  0
LINE
  8
COSTRUZIONI
 10
849.215
 11
845.715
 20
-196.2
 21
-199.7
  0
LINE
  8
COSTRUZIONI
 10
845.538
 11
849.038
 20
-199.7
 21
-196.2
  0
LINE
  8
COSTRUZIONI
 10
848.508
 11
845.008
 20
-196.2
 21
-199.7
  0
LINE
  8
COSTRUZIONI
 10
844.831
 11
848.331
 20
-199.7
 21
-196.2
  0
LINE
  8
COSTRUZIONI
 10
847.801
 11
844.301
 20
-196.2
 21
-199.7
  0
LINE
  8
COSTRUZIONI
 10
844.124
 11
847.624
 20
-199.7
 21
-196.2
  0
LINE
  8
COSTRUZIONI
 10
847.093
 11
843.593
 20
-196.2
 21
-199.7
  0
LINE
  8
COSTRUZIONI
 10
843.417
 11
846.917
 20
-199.7
 21
-196.2
  0
LINE
  8
COSTRUZIONI
 10
846.42
 11
842.886
 20
-196.167
 21
-199.7
  0
LINE
  8
COSTRUZIONI
 10
842.71
 11
846.293
 20
-199.7
 21
-196.116
  0
LINE
  8
COSTRUZIONI
 10
845.909
 11
842.179
 20
-195.97
 21
-199.7
  0
LINE
  8
COSTRUZIONI
 10
842.002
 11
845.778
 20
-199.7
 21
-195.924
  0
LINE
  8
COSTRUZIONI
 10
845.38
 11
841.472
 20
-195.792
 21
-199.7
  0
LINE
  8
COSTRUZIONI
 10
841.295
 11
845.244
 20
-199.7
 21
-195.751
  0
LINE
  8
COSTRUZIONI
 10
844.831
 11
840.765
 20
-195.634
 21
-199.7
  0
LINE
  8
COSTRUZIONI
 10
840.588
 11
844.691
 20
-199.7
 21
-195.598
  0
LINE
  8
COSTRUZIONI
 10
844.261
 11
840.058
 20
-195.497
 21
-199.7
  0
LINE
  8
COSTRUZIONI
 10
839.881
 11
844.115
 20
-199.7
 21
-195.466
  0
LINE
  8
COSTRUZIONI
 10
843.669
 11
839.351
 20
-195.382
 21
-199.7
  0
LINE
  8
COSTRUZIONI
 10
839.174
 11
843.517
 20
-199.7
 21
-195.357
  0
LINE
  8
COSTRUZIONI
 10
843.051
 11
838.644
 20
-195.293
 21
-199.7
  0
LINE
  8
COSTRUZIONI
 10
838.467
 11
842.892
 20
-199.7
 21
-195.275
  0
LINE
  8
COSTRUZIONI
 10
842.405
 11
837.937
 20
-195.232
 21
-199.7
  0
LINE
  8
COSTRUZIONI
 10
837.76
 11
842.239
 20
-199.7
 21
-195.221
  0
LINE
  8
COSTRUZIONI
 10
841.727
 11
837.229
 20
-195.202
 21
-199.7
  0
LINE
  8
COSTRUZIONI
 10
837.053
 11
841.553
 20
-199.7
 21
-195.2
  0
LINE
  8
COSTRUZIONI
 10
841.013
 11
836.522
 20
-195.209
 21
-199.7
  0
LINE
  8
COSTRUZIONI
 10
836.5
 11
840.828
 20
-199.546
 21
-195.217
  0
LINE
  8
COSTRUZIONI
 10
840.256
 11
836.5
 20
-195.26
 21
-199.015
  0
LINE
  8
COSTRUZIONI
 10
836.5
 11
840.058
 20
-198.839
 21
-195.28
  0
LINE
  8
COSTRUZIONI
 10
839.445
 11
836.5
 20
-195.364
 21
-198.308
  0
LINE
  8
COSTRUZIONI
 10
836.5
 11
839.232
 20
-198.131
 21
-195.399
  0
LINE
  8
COSTRUZIONI
 10
838.565
 11
836.5
 20
-195.536
 21
-197.601
  0
LINE
  8
COSTRUZIONI
 10
836.5
 11
838.332
 20
-197.424
 21
-195.592
  0
LINE
  8
COSTRUZIONI
 10
837.593
 11
836.5
 20
-195.801
 21
-196.894
  0
LINE
  8
COSTRUZIONI
 10
836.5
 11
837.33
 20
-196.717
 21
-195.887
  0
ARC
  8
APS_GEOMETRY
 10
837.0
 20
-200.7
 40
1.0
 50
90.0
 51
180.0
  0
LINE
  8
APS_GEOMETRY
 10
880.0
 11
880.0
 20
-213.496
 21
-284.5
  0
LINE
  8
APS_GEOMETRY
 10
880.0
 11
873.3
 20
-284.5
 21
-284.5
  0
LINE
  8
APS_GEOMETRY
 10
873.3
 11
873.3
 20
-284.5
 21
-270.5
  0
LINE
  8
APS_GEOMETRY
 10
873.3
 11
869.0
 20
-270.5
 21
-270.5
  0
LINE
  8
APS_GEOMETRY
 10
869.0
 11
869.0
 20
-270.5
 21
-284.5
  0
LINE
  8
APS_GEOMETRY
 10
869.0
 11
846.0
 20
-284.5
 21
-284.5
  0
ARC
  8
APS_GEOMETRY
 10
846.0
 20
-274.5
 40
10.0
 50
180.0
 51
270.0
  0
LINE
  8
APS_GEOMETRY
 10
836.0
 11
836.0
 20
-274.5
 21
-200.7
  0
LINE
  8
APS_GEOMETRY
 10
846.5
 11
846.5
 20
-196.2
 21
-169.5
  0
ARC
  8
APS_GEOMETRY
 10
849.5
 20
-169.5
 40
3.0
 50
90.0
 51
180.0
  0
LINE
  8
APS_GEOMETRY
 10
849.5
 11
871.5
 20
-166.5
 21
-166.5
  0
LINE
  8
APS_GEOMETRY
 10
871.5
 11
871.5
 20
-166.5
 21
-180.5
  0
LINE
  8
APS_GEOMETRY
 10
871.5
 11
875.8
 20
-180.5
 21
-180.5
  0
LINE
  8
APS_GEOMETRY
 10
875.8
 11
875.8
 20
-180.5
 21
-166.5
  0
LINE
  8
APS_GEOMETRY
 10
875.8
 11
880.0
 20
-166.5
 21
-166.5
  0
LINE
  8
APS_GEOMETRY
 10
880.0
 11
880.0
 20
-166.5
 21
-284.5
  0
LINE
  8
COSTRUZIONI
 10
881.5
 11
881.5
 20
-166.5
 21
-284.5
  0
LINE
  8
COSTRUZIONI
 10
901.5
 11
901.5
 20
-166.5
 21
-284.5
  0
LINE
  8
COSTRUZIONI
 10
881.5
 11
1016.543
 20
-166.5
 21
-166.5
  0
LINE
  8
COSTRUZIONI
 10
881.5
 11
1016.543
 20
-284.5
 21
-284.5
  0
LINE
  8
COSTRUZIONI
 10
901.5
 11
881.5
 20
-284.5
 21
-166.5
  0
LINE
  8
COSTRUZIONI
 10
901.5
 11
881.5
 20
-166.5
 21
-284.5
  0
LINE
  8
QUOTATURA
 10
44.0
 11
312.082
 20
-246.083
 21
-246.083
  0
LINE
  8
QUOTATURA
 10
567.918
 11
836.0
 20
-246.083
 21
-246.083
  0
LINE
  8
QUOTATURA
 10
64.0
 11
44.0
 20
-249.417
 21
-246.083
  0
LINE
  8
QUOTATURA
 10
44.0
 11
64.0
 20
-246.083
 21
-242.749
  0
LINE
  8
QUOTATURA
 10
64.0
 11
64.0
 20
-242.749
 21
-249.417
  0
LINE
  8
QUOTATURA
 10
816.0
 11
836.0
 20
-242.749
 21
-246.083
  0
LINE
  8
QUOTATURA
 10
836.0
 11
816.0
 20
-246.083
 21
-249.417
  0
LINE
  8
QUOTATURA
 10
816.0
 11
816.0
 20
-249.417
 21
-242.749
  0
LINE
  8
QUOTATURA
 10
0.0
 11
0.0
 20
-294.5
 21
-366.097
  0
LINE
  8
QUOTATURA
 10
880.0
 11
880.0
 20
-294.5
 21
-366.097
  0
LINE
  8
QUOTATURA
 10
0.0
 11
275.71
 20
-356.097
 21
-356.097
  0
LINE
  8
QUOTATURA
 10
604.29
 11
880.0
 20
-356.097
 21
-356.097
  0
LINE
  8
QUOTATURA
 10
20.0
 11
0.0
 20
-359.431
 21
-356.097
  0
LINE
  8
QUOTATURA
 10
0.0
 11
20.0
 20
-356.097
 21
-352.763
  0
LINE
  8
QUOTATURA
 10
20.0
 11
20.0
 20
-352.763
 21
-359.431
  0
LINE
  8
QUOTATURA
 10
860.0
 11
880.0
 20
-352.763
 21
-356.097
  0
LINE
  8
QUOTATURA
 10
880.0
 11
860.0
 20
-356.097
 21
-359.431
  0
LINE
  8
QUOTATURA
 10
860.0
 11
860.0
 20
-359.431
 21
-352.763
  0
LINE
  8
APS_GEOMETRY
 10
-54.5
 11
0.0
 20
-163.5
 21
-163.5
  0
LINE
  8
APS_GEOMETRY
 10
0.0
 11
0.0
 20
-163.5
 21
-166.5
  0
LINE
  8
APS_GEOMETRY
 10
0.0
 11
4.5
 20
-166.5
 21
-166.5
  0
LINE
  8
APS_GEOMETRY
 10
4.5
 11
4.5
 20
-166.5
 21
-177.0
  0
LINE
  8
APS_GEOMETRY
 10
4.5
 11
6.0
 20
-177.0
 21
-178.5
  0
LINE
  8
APS_GEOMETRY
 10
6.0
 11
8.5
 20
-178.5
 21
-178.5
  0
LINE
  8
APS_GEOMETRY
 10
8.5
 11
8.5
 20
-178.5
 21
-160.5
  0
ARC
  8
APS_GEOMETRY
 10
4.5
 20
-160.5
 40
4.0
 50
0.0
 51
90.0
  0
LINE
  8
APS_GEOMETRY
 10
4.5
 11
-56.5
 20
-156.5
 21
-156.5
  0
ARC
  8
APS_GEOMETRY
 10
-56.5
 20
-160.5
 40
4.0
 50
90.0
 51
180.0
  0
LINE
  8
APS_GEOMETRY
 10
-60.5
 11
-60.5
 20
-160.5
 21
-166.5
  0
LINE
  8
APS_GEOMETRY
 10
-60.5
 11
-54.5
 20
-166.5
 21
-166.5
  0
LINE
  8
APS_GEOMETRY
 10
-54.5
 11
-54.5
 20
-166.5
 21
-163.5
  0
LINE
  8
APS_GEOMETRY
 10
-52.0
 11
2.5
 20
-287.5
 21
-287.5
  0
LINE
  8
APS_GEOMETRY
 10
2.5
 11
2.5
 20
-287.5
 21
-284.5
  0
LINE
  8
APS_GEOMETRY
 10
2.5
 11
7.0
 20
-284.5
 21
-284.5
  0
LINE
  8
APS_GEOMETRY
 10
7.0
 11
7.0
 20
-284.5
 21
-274.0
  0
LINE
  8
APS_GEOMETRY
 10
7.0
 11
8.5
 20
-274.0
 21
-272.5
  0
LINE
  8
APS_GEOMETRY
 10
8.5
 11
11.0
 20
-272.5
 21
-272.5
  0
LINE
  8
APS_GEOMETRY
 10
11.0
 11
11.0
 20
-272.5
 21
-290.5
  0
ARC
  8
APS_GEOMETRY
 10
7.0
 20
-290.5
 40
4.0
 50
270.0
 51
360.0
  0
LINE
  8
APS_GEOMETRY
 10
7.0
 11
-54.0
 20
-294.5
 21
-294.5
  0
ARC
  8
APS_GEOMETRY
 10
-54.0
 20
-290.5
 40
4.0
 50
180.0
 51
270.0
  0
LINE
  8
APS_GEOMETRY
 10
-58.0
 11
-58.0
 20
-290.5
 21
-284.5
  0
LINE
  8
APS_GEOMETRY
 10
-58.0
 11
-52.0
 20
-284.5
 21
-284.5
  0
LINE
  8
APS_GEOMETRY
 10
-52.0
 11
-52.0
 20
-284.5
 21
-287.5
  0
LINE
  8
APS_GEOMETRY
 10
934.5
 11
880.0
 20
-163.5
 21
-163.5
  0
LINE
  8
APS_GEOMETRY
 10
880.0
 11
880.0
 20
-163.5
 21
-166.5
  0
LINE
  8
APS_GEOMETRY
 10
880.0
 11
875.5
 20
-166.5
 21
-166.5
  0
LINE
  8
APS_GEOMETRY
 10
875.5
 11
875.5
 20
-166.5
 21
-177.0
  0
LINE
  8
APS_GEOMETRY
 10
875.5
 11
874.0
 20
-177.0
 21
-178.5
  0
LINE
  8
APS_GEOMETRY
 10
874.0
 11
871.5
 20
-178.5
 21
-178.5
  0
LINE
  8
APS_GEOMETRY
 10
871.5
 11
871.5
 20
-178.5
 21
-160.5
  0
ARC
  8
APS_GEOMETRY
 10
875.5
 20
-160.5
 40
4.0
 50
90.0
 51
180.0
  0
LINE
  8
APS_GEOMETRY
 10
875.5
 11
936.5
 20
-156.5
 21
-156.5
  0
ARC
  8
APS_GEOMETRY
 10
936.5
 20
-160.5
 40
4.0
 50
360.0
 51
90.0
  0
LINE
  8
APS_GEOMETRY
 10
940.5
 11
940.5
 20
-160.5
 21
-166.5
  0
LINE
  8
APS_GEOMETRY
 10
940.5
 11
934.5
 20
-166.5
 21
-166.5
  0
LINE
  8
APS_GEOMETRY
 10
934.5
 11
934.5
 20
-166.5
 21
-163.5
  0
LINE
  8
APS_GEOMETRY
 10
932.0
 11
877.5
 20
-287.5
 21
-287.5
  0
LINE
  8
APS_GEOMETRY
 10
877.5
 11
877.5
 20
-287.5
 21
-284.5
  0
LINE
  8
APS_GEOMETRY
 10
877.5
 11
873.0
 20
-284.5
 21
-284.5
  0
LINE
  8
APS_GEOMETRY
 10
873.0
 11
873.0
 20
-284.5
 21
-274.0
  0
LINE
  8
APS_GEOMETRY
 10
873.0
 11
871.5
 20
-274.0
 21
-272.5
  0
LINE
  8
APS_GEOMETRY
 10
871.5
 11
869.0
 20
-272.5
 21
-272.5
  0
LINE
  8
APS_GEOMETRY
 10
869.0
 11
869.0
 20
-272.5
 21
-290.5
  0
ARC
  8
APS_GEOMETRY
 10
873.0
 20
-290.5
 40
4.0
 50
180.0
 51
270.0
  0
LINE
  8
APS_GEOMETRY
 10
873.0
 11
934.0
 20
-294.5
 21
-294.5
  0
ARC
  8
APS_GEOMETRY
 10
934.0
 20
-290.5
 40
4.0
 50
270.0
 51
0.0
  0
LINE
  8
APS_GEOMETRY
 10
938.0
 11
938.0
 20
-290.5
 21
-284.5
  0
LINE
  8
APS_GEOMETRY
 10
938.0
 11
932.0
 20
-284.5
 21
-284.5
  0
LINE
  8
APS_GEOMETRY
 10
932.0
 11
932.0
 20
-284.5
 21
-287.5
  0
LINE
  8
QUOTATURA
 10
987.665
 11
984.331
 20
460.669
 21
440.669
  0
LINE
  8
QUOTATURA
 10
984.331
 11
980.997
 20
440.669
 21
460.669
  0
LINE
  8
QUOTATURA
 10
980.997
 11
987.665
 20
460.669
 21
460.669
  0
LINE
  8
QUOTATURA
 10
984.331
 11
984.331
 20
440.669
 21
482.798
  0
LINE
  8
QUOTATURA
 10
984.331
 11
945.074
 20
482.798
 21
482.798
  0
LINE
  8
APS_GEOMETRY
 10
938.0
 11
938.0
 20
0.0
 21
2198.0
  0
LINE
  8
APS_GEOMETRY
 10
938.0
 11
-58.0
 20
2198.0
 21
2198.0
  0
LINE
  8
APS_GEOMETRY
 10
-58.0
 11
-58.0
 20
2198.0
 21
0.0
  0
LINE
  8
QUOTATURA
 10
-295.033
 11
-294.367
 20
2097.0
 21
2097.0
  0
LINE
  8
COSTRUZIONI
 10
-290.2
 11
-290.2
 20
2114.2
 21
2106.5
  0
ARC
  8
COSTRUZIONI
 10
-302.2
 20
2101.5
 40
13.0
 50
337.38
 51
22.62
  0
LINE
  8
COSTRUZIONI
 10
-290.2
 11
-293.7
 20
2096.5
 21
2096.5
  0
LINE
  8
COSTRUZIONI
 10
-293.7
 11
-293.7
 20
2096.5
 21
2114.2
  0
LINE
  8
COSTRUZIONI
 10
-293.7
 11
-290.2
 20
2114.2
 21
2114.2
  0
LINE
  8
COSTRUZIONI
 10
-293.7
 11
-293.523
 20
2114.023
 21
2114.2
  0
LINE
  8
COSTRUZIONI
 10
-292.993
 11
-293.7
 20
2114.2
 21
2113.493
  0
LINE
  8
COSTRUZIONI
 10
-293.7
 11
-292.816
 20
2113.316
 21
2114.2
  0
LINE
  8
COSTRUZIONI
 10
-292.286
 11
-293.7
 20
2114.2
 21
2112.786
  0
LINE
  8
COSTRUZIONI
 10
-293.7
 11
-292.109
 20
2112.609
 21
2114.2
  0
LINE
  8
COSTRUZIONI
 10
-291.579
 11
-293.7
 20
2114.2
 21
2112.079
  0
LINE
  8
COSTRUZIONI
 10
-293.7
 11
-291.402
 20
2111.902
 21
2114.2
  0
LINE
  8
COSTRUZIONI
 10
-290.872
 11
-293.7
 20
2114.2
 21
2111.372
  0
LINE
  8
COSTRUZIONI
 10
-293.7
 11
-290.695
 20
2111.195
 21
2114.2
  0
LINE
  8
COSTRUZIONI
 10
-290.2
 11
-293.7
 20
2114.164
 21
2110.664
  0
LINE
  8
COSTRUZIONI
 10
-293.7
 11
-290.2
 20
2110.488
 21
2113.988
  0
LINE
  8
COSTRUZIONI
 10
-290.2
 11
-293.7
 20
2113.457
 21
2109.957
  0
LINE
  8
COSTRUZIONI
 10
-293.7
 11
-290.2
 20
2109.781
 21
2113.281
  0
LINE
  8
COSTRUZIONI
 10
-290.2
 11
-293.7
 20
2112.75
 21
2109.25
  0
LINE
  8
COSTRUZIONI
 10
-293.7
 11
-290.2
 20
2109.074
 21
2112.574
  0
LINE
  8
COSTRUZIONI
 10
-290.2
 11
-293.7
 20
2112.043
 21
2108.543
  0
LINE
  8
COSTRUZIONI
 10
-293.7
 11
-290.2
 20
2108.366
 21
2111.866
  0
LINE
  8
COSTRUZIONI
 10
-290.2
 11
-293.7
 20
2111.336
 21
2107.836
  0
LINE
  8
COSTRUZIONI
 10
-293.7
 11
-290.2
 20
2107.659
 21
2111.159
  0
LINE
  8
COSTRUZIONI
 10
-290.2
 11
-293.7
 20
2110.629
 21
2107.129
  0
LINE
  8
COSTRUZIONI
 10
-293.7
 11
-290.2
 20
2106.952
 21
2110.452
  0
LINE
  8
COSTRUZIONI
 10
-290.2
 11
-293.7
 20
2109.922
 21
2106.422
  0
LINE
  8
COSTRUZIONI
 10
-293.7
 11
-290.2
 20
2106.245
 21
2109.745
  0
LINE
  8
COSTRUZIONI
 10
-290.2
 11
-293.7
 20
2109.215
 21
2105.715
  0
LINE
  8
COSTRUZIONI
 10
-293.7
 11
-290.2
 20
2105.538
 21
2109.038
  0
LINE
  8
COSTRUZIONI
 10
-290.2
 11
-293.7
 20
2108.508
 21
2105.008
  0
LINE
  8
COSTRUZIONI
 10
-293.7
 11
-290.2
 20
2104.831
 21
2108.331
  0
LINE
  8
COSTRUZIONI
 10
-290.2
 11
-293.7
 20
2107.801
 21
2104.301
  0
LINE
  8
COSTRUZIONI
 10
-293.7
 11
-290.2
 20
2104.124
 21
2107.624
  0
LINE
  8
COSTRUZIONI
 10
-290.2
 11
-293.7
 20
2107.093
 21
2103.593
  0
LINE
  8
COSTRUZIONI
 10
-293.7
 11
-290.2
 20
2103.417
 21
2106.917
  0
LINE
  8
COSTRUZIONI
 10
-290.167
 11
-293.7
 20
2106.42
 21
2102.886
  0
LINE
  8
COSTRUZIONI
 10
-293.7
 11
-290.116
 20
2102.71
 21
2106.294
  0
LINE
  8
COSTRUZIONI
 10
-289.97
 11
-293.7
 20
2105.909
 21
2102.179
  0
LINE
  8
COSTRUZIONI
 10
-293.7
 11
-289.924
 20
2102.002
 21
2105.778
  0
LINE
  8
COSTRUZIONI
 10
-289.792
 11
-293.7
 20
2105.38
 21
2101.472
  0
LINE
  8
COSTRUZIONI
 10
-293.7
 11
-289.751
 20
2101.295
 21
2105.244
  0
LINE
  8
COSTRUZIONI
 10
-289.634
 11
-293.7
 20
2104.831
 21
2100.765
  0
LINE
  8
COSTRUZIONI
 10
-293.7
 11
-289.598
 20
2100.588
 21
2104.691
  0
LINE
  8
COSTRUZIONI
 10
-289.497
 11
-293.7
 20
2104.261
 21
2100.058
  0
LINE
  8
COSTRUZIONI
 10
-293.7
 11
-289.466
 20
2099.881
 21
2104.115
  0
LINE
  8
COSTRUZIONI
 10
-289.382
 11
-293.7
 20
2103.669
 21
2099.351
  0
LINE
  8
COSTRUZIONI
 10
-293.7
 11
-289.357
 20
2099.174
 21
2103.517
  0
LINE
  8
COSTRUZIONI
 10
-289.293
 11
-293.7
 20
2103.051
 21
2098.644
  0
LINE
  8
COSTRUZIONI
 10
-293.7
 11
-289.275
 20
2098.467
 21
2102.892
  0
LINE
  8
COSTRUZIONI
 10
-289.232
 11
-293.7
 20
2102.405
 21
2097.937
  0
LINE
  8
COSTRUZIONI
 10
-293.7
 11
-289.221
 20
2097.76
 21
2102.239
  0
LINE
  8
COSTRUZIONI
 10
-289.202
 11
-293.7
 20
2101.727
 21
2097.229
  0
LINE
  8
COSTRUZIONI
 10
-293.7
 11
-289.2
 20
2097.053
 21
2101.553
  0
LINE
  8
COSTRUZIONI
 10
-289.209
 11
-293.7
 20
2101.013
 21
2096.522
  0
LINE
  8
COSTRUZIONI
 10
-293.546
 11
-289.217
 20
2096.5
 21
2100.828
  0
LINE
  8
COSTRUZIONI
 10
-289.26
 11
-293.015
 20
2100.256
 21
2096.5
  0
LINE
  8
COSTRUZIONI
 10
-292.838
 11
-289.28
 20
2096.5
 21
2100.058
  0
LINE
  8
COSTRUZIONI
 10
-289.364
 11
-292.308
 20
2099.445
 21
2096.5
  0
LINE
  8
COSTRUZIONI
 10
-292.131
 11
-289.399
 20
2096.5
 21
2099.232
  0
LINE
  8
COSTRUZIONI
 10
-289.536
 11
-291.601
 20
2098.566
 21
2096.5
  0
LINE
  8
COSTRUZIONI
 10
-291.424
 11
-289.592
 20
2096.5
 21
2098.332
  0
LINE
  8
COSTRUZIONI
 10
-289.801
 11
-290.894
 20
2097.593
 21
2096.5
  0
LINE
  8
COSTRUZIONI
 10
-290.717
 11
-289.887
 20
2096.5
 21
2097.33
  0
ARC
  8
APS_GEOMETRY
 10
-294.7
 20
2097.0
 40
1.0
 50
270.0
 51
360.0
  0
LINE
  8
APS_GEOMETRY
 10
-307.496
 11
-378.5
 20
2140.0
 21
2140.0
  0
LINE
  8
APS_GEOMETRY
 10
-378.5
 11
-378.5
 20
2140.0
 21
2133.3
  0
LINE
  8
APS_GEOMETRY
 10
-378.5
 11
-364.5
 20
2133.3
 21
2133.3
  0
LINE
  8
APS_GEOMETRY
 10
-364.5
 11
-364.5
 20
2133.3
 21
2129.0
  0
LINE
  8
APS_GEOMETRY
 10
-364.5
 11
-378.5
 20
2129.0
 21
2129.0
  0
LINE
  8
APS_GEOMETRY
 10
-378.5
 11
-378.5
 20
2129.0
 21
2106.0
  0
ARC
  8
APS_GEOMETRY
 10
-368.5
 20
2106.0
 40
10.0
 50
180.0
 51
270.0
  0
LINE
  8
APS_GEOMETRY
 10
-368.5
 11
-294.7
 20
2096.0
 21
2096.0
  0
LINE
  8
APS_GEOMETRY
 10
-290.2
 11
-263.5
 20
2106.5
 21
2106.5
  0
ARC
  8
APS_GEOMETRY
 10
-263.5
 20
2109.5
 40
3.0
 50
270.0
 51
360.0
  0
LINE
  8
APS_GEOMETRY
 10
-260.5
 11
-260.5
 20
2109.5
 21
2131.5
  0
LINE
  8
APS_GEOMETRY
 10
-260.5
 11
-274.5
 20
2131.5
 21
2131.5
  0
LINE
  8
APS_GEOMETRY
 10
-274.5
 11
-274.5
 20
2131.5
 21
2135.8
  0
LINE
  8
APS_GEOMETRY
 10
-274.5
 11
-260.5
 20
2135.8
 21
2135.8
  0
LINE
  8
APS_GEOMETRY
 10
-260.5
 11
-260.5
 20
2135.8
 21
2140.0
  0
LINE
  8
APS_GEOMETRY
 10
-260.5
 11
-378.5
 20
2140.0
 21
2140.0
  0
LINE
  8
COSTRUZIONI
 10
-260.5
 11
-378.5
 20
2141.5
 21
2141.5
  0
LINE
  8
COSTRUZIONI
 10
-260.5
 11
-378.5
 20
2161.5
 21
2161.5
  0
LINE
  8
COSTRUZIONI
 10
-260.5
 11
-260.5
 20
2141.5
 21
2276.543
  0
LINE
  8
COSTRUZIONI
 10
-378.5
 11
-378.5
 20
2141.5
 21
2276.543
  0
LINE
  8
COSTRUZIONI
 10
-378.5
 11
-260.5
 20
2161.5
 21
2141.5
  0
LINE
  8
COSTRUZIONI
 10
-260.5
 11
-378.5
 20
2161.5
 21
2141.5
  0
LINE
  8
APS_GEOMETRY
 10
-378.5
 11
-204.787
 20
0.0
 21
0.0
  0
LINE
  8
QUOTATURA
 10
-410.5
 11
-578.085
 20
0.0
 21
0.0
  0
LINE
  8
QUOTATURA
 10
-388.5
 11
-578.085
 20
2140.0
 21
2140.0
  0
LINE
  8
QUOTATURA
 10
-568.085
 11
-568.085
 20
0.0
 21
899.753
  0
LINE
  8
QUOTATURA
 10
-568.085
 11
-568.085
 20
1240.247
 21
2140.0
  0
LINE
  8
QUOTATURA
 10
-564.751
 11
-568.085
 20
20.0
 21
0.0
  0
LINE
  8
QUOTATURA
 10
-568.085
 11
-571.419
 20
0.0
 21
20.0
  0
LINE
  8
QUOTATURA
 10
-571.419
 11
-564.751
 20
20.0
 21
20.0
  0
LINE
  8
QUOTATURA
 10
-571.419
 11
-568.085
 20
2120.0
 21
2140.0
  0
LINE
  8
QUOTATURA
 10
-568.085
 11
-564.751
 20
2140.0
 21
2120.0
  0
LINE
  8
QUOTATURA
 10
-564.751
 11
-571.419
 20
2120.0
 21
2120.0
  0
LINE
  8
QUOTATURA
 10
-388.5
 11
-482.173
 20
2096.0
 21
2096.0
  0
LINE
  8
QUOTATURA
 10
-472.173
 11
-472.173
 20
0.0
 21
910.312
  0
LINE
  8
QUOTATURA
 10
-472.173
 11
-472.173
 20
1185.688
 21
2096.0
  0
LINE
  8
QUOTATURA
 10
-468.839
 11
-472.173
 20
20.0
 21
0.0
  0
LINE
  8
QUOTATURA
 10
-472.173
 11
-475.507
 20
0.0
 21
20.0
  0
LINE
  8
QUOTATURA
 10
-475.507
 11
-468.839
 20
20.0
 21
20.0
  0
LINE
  8
QUOTATURA
 10
-475.507
 11
-472.173
 20
2076.0
 21
2096.0
  0
LINE
  8
QUOTATURA
 10
-472.173
 11
-468.839
 20
2096.0
 21
2076.0
  0
LINE
  8
QUOTATURA
 10
-468.839
 11
-475.507
 20
2076.0
 21
2076.0
  0
LINE
  8
APS_GEOMETRY
 10
-290.5
 11
-290.5
 20
2100.5
 21
1955.5
  0
LINE
  8
APS_GEOMETRY
 10
-245.5
 11
-245.5
 20
1059.0
 21
2108.5
  0
ARC
  8
APS_GEOMETRY
 10
-250.5
 20
2108.5
 40
5.0
 50
360.0
 51
90.0
  0
LINE
  8
APS_GEOMETRY
 10
-250.5
 11
-258.5
 20
2113.5
 21
2113.5
  0
ARC
  8
APS_GEOMETRY
 10
-258.5
 20
2111.5
 40
2.0
 50
90.0
 51
180.0
  0
LINE
  8
APS_GEOMETRY
 10
-260.5
 11
-260.5
 20
2111.5
 21
2103.5
  0
LINE
  8
APS_GEOMETRY
 10
-260.5
 11
-287.5
 20
2103.5
 21
2103.5
  0
ARC
  8
APS_GEOMETRY
 10
-287.5
 20
2100.5
 40
3.0
 50
90.0
 51
180.0
  0
LINE
  8
APS_GEOMETRY
 10
-245.5
 11
-245.5
 20
1059.0
 21
9.5
  0
ARC
  8
APS_GEOMETRY
 10
-250.5
 20
9.5
 40
5.0
 50
270.0
 51
360.0
  0
LINE
  8
APS_GEOMETRY
 10
-250.5
 11
-285.5
 20
4.5
 21
4.5
  0
ARC
  8
APS_GEOMETRY
 10
-285.5
 20
9.5
 40
5.0
 50
180.0
 51
270.0
  0
LINE
  8
APS_GEOMETRY
 10
-290.5
 11
-290.5
 20
9.5
 21
162.5
  0
LINE
  8
QUOTATURA
 10
464.318
 11
484.318
 20
-18.473
 21
-21.807
  0
LINE
  8
QUOTATURA
 10
484.318
 11
464.318
 20
-21.807
 21
-25.141
  0
LINE
  8
QUOTATURA
 10
464.318
 11
464.318
 20
-25.141
 21
-18.473
  0
LINE
  8
QUOTATURA
 10
484.318
 11
443.392
 20
-21.807
 21
-21.807
  0
LINE
  8
QUOTATURA
 10
443.392
 11
443.392
 20
-21.807
 21
5.795
  0
LINE
  8
APS_GEOMETRY
 10
-257.5
 11
-257.5
 20
2194.5
 21
2140.0
  0
LINE
  8
APS_GEOMETRY
 10
-257.5
 11
-260.5
 20
2140.0
 21
2140.0
  0
LINE
  8
APS_GEOMETRY
 10
-260.5
 11
-260.5
 20
2140.0
 21
2135.5
  0
LINE
  8
APS_GEOMETRY
 10
-260.5
 11
-271.0
 20
2135.5
 21
2135.5
  0
LINE
  8
APS_GEOMETRY
 10
-271.0
 11
-272.5
 20
2135.5
 21
2134.0
  0
LINE
  8
APS_GEOMETRY
 10
-272.5
 11
-272.5
 20
2134.0
 21
2131.5
  0
LINE
  8
APS_GEOMETRY
 10
-272.5
 11
-254.5
 20
2131.5
 21
2131.5
  0
ARC
  8
APS_GEOMETRY
 10
-254.5
 20
2135.5
 40
4.0
 50
270.0
 51
360.0
  0
LINE
  8
APS_GEOMETRY
 10
-250.5
 11
-250.5
 20
2135.5
 21
2196.5
  0
ARC
  8
APS_GEOMETRY
 10
-254.5
 20
2196.5
 40
4.0
 50
360.0
 51
90.0
  0
LINE
  8
APS_GEOMETRY
 10
-254.5
 11
-260.5
 20
2200.5
 21
2200.5
  0
LINE
  8
APS_GEOMETRY
 10
-260.5
 11
-260.5
 20
2200.5
 21
2194.5
  0
LINE
  8
APS_GEOMETRY
 10
-260.5
 11
-257.5
 20
2194.5
 21
2194.5
  0
LINE
  8
APS_GEOMETRY
 10
-381.5
 11
-381.5
 20
2192.0
 21
2137.5
  0
LINE
  8
APS_GEOMETRY
 10
-381.5
 11
-378.5
 20
2137.5
 21
2137.5
  0
LINE
  8
APS_GEOMETRY
 10
-378.5
 11
-378.5
 20
2137.5
 21
2133.0
  0
LINE
  8
APS_GEOMETRY
 10
-378.5
 11
-368.0
 20
2133.0
 21
2133.0
  0
LINE
  8
APS_GEOMETRY
 10
-368.0
 11
-366.5
 20
2133.0
 21
2131.5
  0
LINE
  8
APS_GEOMETRY
 10
-366.5
 11
-366.5
 20
2131.5
 21
2129.0
  0
LINE
  8
APS_GEOMETRY
 10
-366.5
 11
-384.5
 20
2129.0
 21
2129.0
  0
ARC
  8
APS_GEOMETRY
 10
-384.5
 20
2133.0
 40
4.0
 50
180.0
 51
270.0
  0
LINE
  8
APS_GEOMETRY
 10
-388.5
 11
-388.5
 20
2133.0
 21
2194.0
  0
ARC
  8
APS_GEOMETRY
 10
-384.5
 20
2194.0
 40
4.0
 50
90.0
 51
180.0
  0
LINE
  8
APS_GEOMETRY
 10
-384.5
 11
-378.5
 20
2198.0
 21
2198.0
  0
LINE
  8
APS_GEOMETRY
 10
-378.5
 11
-378.5
 20
2198.0
 21
2192.0
  0
LINE
  8
APS_GEOMETRY
 10
-378.5
 11
-381.5
 20
2192.0
 21
2192.0
  0
ARC
  8
APS_GEOMETRY
 10
122.5
 20
-194.5
 40
2.0
 50
270.0
 51
0.0
  0
LINE
  8
COSTRUZIONI
 10
36.5
 11
139.461
 20
-180.5
 21
-180.5
  0
ARC
  8
COSTRUZIONI
 10
139.461
 20
-181.5
 40
1.0
 50
355.588
 51
90.0
  0
ARC
  8
COSTRUZIONI
 10
126.5
 20
-180.5
 40
14.0
 50
270.0
 51
355.588
  0
LINE
  8
COSTRUZIONI
 10
126.5
 11
124.5
 20
-194.5
 21
-194.5
  0
LINE
  8
APS_GEOMETRY
 10
840.5
 11
757.5
 20
-196.5
 21
-196.5
  0
ARC
  8
APS_GEOMETRY
 10
848.5
 20
-156.5
 40
5.0
 50
360.0
 51
90.0
  0
LINE
  8
APS_GEOMETRY
 10
853.5
 11
853.5
 20
-156.5
 21
-164.5
  0
ARC
  8
APS_GEOMETRY
 10
851.5
 20
-164.5
 40
2.0
 50
270.0
 51
360.0
  0
LINE
  8
APS_GEOMETRY
 10
851.5
 11
843.5
 20
-166.5
 21
-166.5
  0
LINE
  8
APS_GEOMETRY
 10
843.5
 11
843.5
 20
-166.5
 21
-193.5
  0
ARC
  8
APS_GEOMETRY
 10
840.5
 20
-193.5
 40
3.0
 50
270.0
 51
360.0
  0
ARC
  8
APS_GEOMETRY
 10
757.5
 20
-194.5
 40
2.0
 50
180.0
 51
270.0
  0
LINE
  8
COSTRUZIONI
 10
843.5
 11
740.539
 20
-180.5
 21
-180.5
  0
ARC
  8
COSTRUZIONI
 10
740.539
 20
-181.5
 40
1.0
 50
90.0
 51
184.412
  0
ARC
  8
COSTRUZIONI
 10
753.5
 20
-180.5
 40
14.0
 50
184.412
 51
270.0
  0
LINE
  8
COSTRUZIONI
 10
753.5
 11
755.5
 20
-194.5
 21
-194.5
  0
LINE
  8
APS_GEOMETRY
 10
139.461
 11
740.539
 20
-180.5
 21
-180.5
  0
LINE
  8
APS_GEOMETRY
 10
31.5
 11
848.5
 20
-151.5
 21
-151.5
  0
LINE
  8
APS_GEOMETRY
 10
853.5
 11
26.5
 20
1953.5
 21
1953.5
  0
LINE
  8
APS_GEOMETRY
 10
140.5
 11
140.5
 20
714.499
 21
972.0
  0
LINE
  8
APS_GEOMETRY
 10
140.5
 11
739.5
 20
972.0
 21
972.0
  0
LINE
  8
APS_GEOMETRY
 10
739.5
 11
739.5
 20
972.0
 21
714.499
  0
LINE
  8
APS_GEOMETRY
 10
26.5
 11
853.5
 20
1130.0
 21
1130.0
  0
LINE
  8
APS_GEOMETRY
 10
26.5
 11
853.5
 20
988.0
 21
988.0
  0
LINE
  8
APS_GEOMETRY
 10
124.5
 11
140.5
 20
1953.5
 21
1937.5
  0
LINE
  8
APS_GEOMETRY
 10
739.5
 11
755.5
 20
1937.5
 21
1953.5
  0
LINE
  8
APS_GEOMETRY
 10
140.5
 11
124.5
 20
972.0
 21
988.0
  0
LINE
  8
APS_GEOMETRY
 10
739.5
 11
755.5
 20
972.0
 21
988.0
  0
LINE
  8
APS_GEOMETRY
 10
739.5
 11
755.5
 20
1146.0
 21
1130.0
  0
LINE
  8
APS_GEOMETRY
 10
140.5
 11
124.5
 20
1146.0
 21
1130.0
  0
ARC
  8
APS_GEOMETRY
 10
-288.5
 20
162.5
 40
2.0
 50
90.0
 51
180.0
  0
LINE
  8
COSTRUZIONI
 10
-274.5
 11
-274.5
 20
4.5
 21
179.461
  0
ARC
  8
COSTRUZIONI
 10
-275.5
 20
179.461
 40
1.0
 50
0.0
 51
94.412
  0
ARC
  8
COSTRUZIONI
 10
-274.5
 20
166.5
 40
14.0
 50
94.412
 51
180.0
  0
LINE
  8
COSTRUZIONI
 10
-288.5
 11
-288.5
 20
166.5
 21
164.5
  0
LINE
  8
APS_GEOMETRY
 10
-290.5
 11
-290.5
 20
1059.0
 21
1128.0
  0
ARC
  8
APS_GEOMETRY
 10
-288.5
 20
1128.0
 40
2.0
 50
90.0
 51
180.0
  0
LINE
  8
COSTRUZIONI
 10
-274.5
 11
-274.5
 20
1059.0
 21
1144.961
  0
ARC
  8
COSTRUZIONI
 10
-275.5
 20
1144.961
 40
1.0
 50
0.0
 51
94.412
  0
ARC
  8
COSTRUZIONI
 10
-274.5
 20
1132.0
 40
14.0
 50
94.412
 51
180.0
  0
LINE
  8
COSTRUZIONI
 10
-288.5
 11
-288.5
 20
1132.0
 21
1130.0
  0
LINE
  8
APS_GEOMETRY
 10
-290.5
 11
-290.5
 20
1059.0
 21
990.0
  0
ARC
  8
APS_GEOMETRY
 10
-288.5
 20
990.0
 40
2.0
 50
180.0
 51
270.0
  0
LINE
  8
COSTRUZIONI
 10
-274.5
 11
-274.5
 20
1059.0
 21
973.039
  0
ARC
  8
COSTRUZIONI
 10
-275.5
 20
973.039
 40
1.0
 50
265.588
 51
360.0
  0
ARC
  8
COSTRUZIONI
 10
-274.5
 20
986.0
 40
14.0
 50
180.0
 51
265.588
  0
LINE
  8
COSTRUZIONI
 10
-288.5
 11
-288.5
 20
986.0
 21
988.0
  0
ARC
  8
APS_GEOMETRY
 10
-288.5
 20
1955.5
 40
2.0
 50
180.0
 51
270.0
  0
LINE
  8
COSTRUZIONI
 10
-274.5
 11
-274.5
 20
2103.5
 21
1938.539
  0
ARC
  8
COSTRUZIONI
 10
-275.5
 20
1938.539
 40
1.0
 50
265.588
 51
360.0
  0
ARC
  8
COSTRUZIONI
 10
-274.5
 20
1951.5
 40
14.0
 50
180.0
 51
265.588
  0
LINE
  8
COSTRUZIONI
 10
-288.5
 11
-288.5
 20
1951.5
 21
1953.5
  0
LINE
  8
APS_GEOMETRY
 10
-274.5
 11
-274.5
 20
1938.539
 21
1144.961
  0
LINE
  8
APS_GEOMETRY
 10
-274.5
 11
-274.5
 20
973.039
 21
179.461
  0
LINE
  8
APS_GEOMETRY
 10
-290.5
 11
-290.5
 20
1955.5
 21
1128.0
  0
LINE
  8
APS_GEOMETRY
 10
-290.5
 11
-290.5
 20
990.0
 21
162.5
  0
TEXT
  8
TEXT
 10
-677.938
 20
-418.328
 30
0.0
 40
20.0
 50
0.0
  1
Ufficio tecnico:
  0
TEXT
  8
TEXT
 10
-184.589
 20
-542.67
 30
0.0
 40
25.0
 50
0.0
  1
tel. 0577-68.54.26 - fax 0577-68.64.29
  0
TEXT
  8
TEXT
 10
-184.589
 20
-580.17
 30
0.0
 40
25.0
 50
0.0
  1
e-mail: tecnico@toscocornici.it - web: www.tosococornici.it
  0
TEXT
  8
TEXT
 10
426.5
 20
-571.862
 30
0.0
 40
40.0
 50
0.0
  1
B.Ste
  0
TEXT
  8
TEXT
 10
574.92
 20
-571.862
 30
0.0
 40
40.0
 50
0.0
  1
f
  0
TEXT
  8
TEXT
 10
605.605
 20
-571.862
 30
0.0
 40
40.0
 50
0.0
  1
ano
  0
TEXT
  8
TEXT
 10
322.281
 20
-415.365
 30
0.0
 40
20.0
 50
0.0
  1
documento:
  0
TEXT
  8
TEXT
 10
565.937
 20
-468.487
 30
0.0
 40
30.0
 50
0.0
  1
MOD. COUNTRY
  0
TEXT
  8
TEXT
 10
823.482
 20
-415.28
 30
0.0
 40
20.0
 50
0.0
  1
data:
  0
TEXT
  8
TEXT
 10
1072.581
 20
-466.771
 30
0.0
 40
30.0
 50
0.0
  1
06-05-12
  0
TEXT
  8
TEXT
 10
1081.335
 20
-567.48
 30
0.0
 40
30.0
 50
0.0
  1
1 : 10
  0
TEXT
  8
TEXT
 10
320.467
 20
-513.59
 30
0.0
 40
20.0
 50
0.0
  1
responsabile tecnico:
  0
TEXT
  8
TEXT
 10
822.063
 20
-513.88
 30
0.0
 40
20.0
 50
0.0
  1
scala:
  0
TEXT
  8
TEXT
 10
380.843
 20
-214.23
 30
0.0
 40
20.0
 50
0.0
  1
SEZ-B
  0
TEXT
  8
TEXT
 10
963.665
 20
500.605
 30
0.0
 40
20.0
 50
0.0
  1
SEZ-B
  0
TEXT
  8
QUOTATURA
 10
317.082
 20
-256.083
 30
0.0
 40
20.0
 50
0.0
  1
LUCE NETTA=792
  0
TEXT
  8
QUOTATURA
 10
280.71
 20
-366.097
 30
0.0
 40
20.0
 50
0.0
  1
ESTERNO TELAIO=880
  0
TEXT
  8
QUOTATURA
 10
-558.085
 20
904.753
 30
0.0
 40
20.0
 50
90.0
  1
ESTERNO TELAIO=2140
  0
TEXT
  8
QUOTATURA
 10
-462.173
 20
915.312
 30
0.0
 40
20.0
 50
90.0
  1
LUCE NETTA=2096
  0
TEXT
  8
TEXT
 10
-385.287
 20
923.829
 30
0.0
 40
20.0
 50
0.0
  1
SEZ.-A
  0
TEXT
  8
TEXT
 10
429.75
 20
-58.431
 30
0.0
 40
20.0
 50
0.0
  1
SEZ-A
  0
ENDSEC
  0
EOF
