  0
SECTION
  2
ENTITIES
  0
LINE
  8
APS_GEOMETRY
 10
836.0
 11
836.0
 20
0.0
 21
4.5
  0
LINE
  8
APS_GEOMETRY
 10
44.0
 11
44.0
 20
4.5
 21
0.0
  0
LINE
  8
APS_GEOMETRY
 10
36.5
 11
11.0
 20
2103.5
 21
2129.0
  0
LINE
  8
APS_GEOMETRY
 10
843.5
 11
869.0
 20
2103.5
 21
2129.0
  0
LINE
  8
APS_GEOMETRY
 10
843.5
 11
843.5
 20
4.5
 21
2103.5
  0
LINE
  8
APS_GEOMETRY
 10
843.5
 11
36.5
 20
2103.5
 21
2103.5
  0
LINE
  8
APS_GEOMETRY
 10
36.5
 11
36.5
 20
2103.5
 21
4.5
  0
LINE
  8
APS_GEOMETRY
 10
36.5
 11
843.5
 20
4.5
 21
4.5
  0
CIRCLE
  8
APS_GEOMETRY
 10
96.5
 20
1044.5
 40
2.0
  0
LINE
  8
APS_GEOMETRY
 10
96.5
 11
196.5
 20
1054.5
 21
1054.5
  0
LINE
  8
APS_GEOMETRY
 10
196.5
 11
196.5
 20
1054.5
 21
1034.5
  0
LINE
  8
APS_GEOMETRY
 10
196.5
 11
86.5
 20
1034.5
 21
1034.5
  0
LINE
  8
APS_GEOMETRY
 10
86.5
 11
86.5
 20
1034.5
 21
1054.5
  0
LINE
  8
APS_GEOMETRY
 10
86.5
 11
186.5
 20
1054.5
 21
1054.5
  0
ARC
  8
APS_GEOMETRY
 10
96.5
 20
943.5
 40
7.0
 50
180.0
 51
0.0
  0
LINE
  8
APS_GEOMETRY
 10
89.5
 11
89.5
 20
943.5
 21
954.5
  0
ARC
  8
APS_GEOMETRY
 10
96.5
 20
954.5
 40
7.0
 50
0.0
 51
180.0
  0
LINE
  8
APS_GEOMETRY
 10
103.5
 11
103.5
 20
954.5
 21
943.5
  0
CIRCLE
  8
APS_GEOMETRY
 10
96.5
 20
1044.5
 40
1.0
  0
LINE
  8
APS_GEOMETRY
 10
71.5
 11
71.5
 20
924.0
 21
974.0
  0
LINE
  8
APS_GEOMETRY
 10
71.5
 11
121.5
 20
974.0
 21
974.0
  0
LINE
  8
APS_GEOMETRY
 10
121.5
 11
121.5
 20
974.0
 21
924.0
  0
LINE
  8
APS_GEOMETRY
 10
121.5
 11
71.5
 20
924.0
 21
924.0
  0
LINE
  8
APS_GEOMETRY
 10
121.5
 11
121.5
 20
1034.5
 21
1019.5
  0
LINE
  8
APS_GEOMETRY
 10
121.5
 11
71.5
 20
1019.5
 21
1019.5
  0
LINE
  8
APS_GEOMETRY
 10
71.5
 11
71.5
 20
1019.5
 21
1069.5
  0
LINE
  8
APS_GEOMETRY
 10
71.5
 11
121.5
 20
1069.5
 21
1069.5
  0
LINE
  8
APS_GEOMETRY
 10
121.5
 11
121.5
 20
1069.5
 21
1054.5
  0
LINE
  8
APS_GEOMETRY
 10
934.5
 11
880.0
 20
-207.0
 21
-207.0
  0
LINE
  8
APS_GEOMETRY
 10
880.0
 11
880.0
 20
-207.0
 21
-210.0
  0
LINE
  8
APS_GEOMETRY
 10
880.0
 11
875.5
 20
-210.0
 21
-210.0
  0
LINE
  8
APS_GEOMETRY
 10
875.5
 11
875.5
 20
-210.0
 21
-220.5
  0
LINE
  8
APS_GEOMETRY
 10
875.5
 11
874.0
 20
-220.5
 21
-222.0
  0
LINE
  8
APS_GEOMETRY
 10
874.0
 11
871.5
 20
-222.0
 21
-222.0
  0
LINE
  8
APS_GEOMETRY
 10
871.5
 11
871.5
 20
-222.0
 21
-204.0
  0
ARC
  8
APS_GEOMETRY
 10
875.5
 20
-204.0
 40
4.0
 50
90.0
 51
180.0
  0
LINE
  8
APS_GEOMETRY
 10
875.5
 11
936.5
 20
-200.0
 21
-200.0
  0
ARC
  8
APS_GEOMETRY
 10
936.5
 20
-204.0
 40
4.0
 50
0.0
 51
90.0
  0
LINE
  8
APS_GEOMETRY
 10
940.5
 11
940.5
 20
-204.0
 21
-210.0
  0
LINE
  8
APS_GEOMETRY
 10
940.5
 11
934.5
 20
-210.0
 21
-210.0
  0
LINE
  8
APS_GEOMETRY
 10
934.5
 11
934.5
 20
-210.0
 21
-207.0
  0
LINE
  8
APS_GEOMETRY
 10
932.499963
 11
877.999963
 20
-331.0
 21
-331.0
  0
LINE
  8
APS_GEOMETRY
 10
877.999963
 11
877.999963
 20
-331.0
 21
-328.0
  0
LINE
  8
APS_GEOMETRY
 10
877.999963
 11
873.499963
 20
-328.0
 21
-328.0
  0
LINE
  8
APS_GEOMETRY
 10
873.499963
 11
873.499963
 20
-328.0
 21
-317.5
  0
LINE
  8
APS_GEOMETRY
 10
873.499963
 11
871.999963
 20
-317.5
 21
-316.0
  0
LINE
  8
APS_GEOMETRY
 10
871.999963
 11
869.499963
 20
-316.0
 21
-316.0
  0
LINE
  8
APS_GEOMETRY
 10
869.499963
 11
869.499963
 20
-316.0
 21
-334.0
  0
ARC
  8
APS_GEOMETRY
 10
873.499963
 20
-334.0
 40
4.0
 50
180.0
 51
270.0
  0
LINE
  8
APS_GEOMETRY
 10
873.499963
 11
934.499963
 20
-338.0
 21
-338.0
  0
ARC
  8
APS_GEOMETRY
 10
934.499963
 20
-334.0
 40
4.0
 50
270.0
 51
0.0
  0
LINE
  8
APS_GEOMETRY
 10
938.499963
 11
938.499963
 20
-334.0
 21
-328.0
  0
LINE
  8
APS_GEOMETRY
 10
938.499963
 11
932.499963
 20
-328.0
 21
-328.0
  0
LINE
  8
APS_GEOMETRY
 10
932.499963
 11
932.499963
 20
-328.0
 21
-331.0
  0
LINE
  8
COSTRUZIONI
 10
25.800037
 11
43.500037
 20
-229.5
 21
-229.5
  0
LINE
  8
COSTRUZIONI
 10
43.500037
 11
43.500037
 20
-229.5
 21
-233.0
  0
LINE
  8
COSTRUZIONI
 10
43.500037
 11
25.800037
 20
-233.0
 21
-233.0
  0
LINE
  8
COSTRUZIONI
 10
25.800037
 11
25.800037
 20
-233.0
 21
-229.5
  0
ARC
  8
APS_GEOMETRY
 10
43.000037
 20
-234.0
 40
1.0
 50
0.0
 51
90.0
  0
LINE
  8
APS_GEOMETRY
 10
-54.5
 11
0.0
 20
-207.0
 21
-207.0
  0
LINE
  8
APS_GEOMETRY
 10
0.0
 11
0.0
 20
-207.0
 21
-210.0
  0
LINE
  8
APS_GEOMETRY
 10
0.0
 11
4.5
 20
-210.0
 21
-210.0
  0
LINE
  8
APS_GEOMETRY
 10
4.5
 11
4.5
 20
-210.0
 21
-220.5
  0
LINE
  8
APS_GEOMETRY
 10
4.5
 11
6.0
 20
-220.5
 21
-222.0
  0
LINE
  8
APS_GEOMETRY
 10
6.0
 11
8.5
 20
-222.0
 21
-222.0
  0
LINE
  8
APS_GEOMETRY
 10
8.5
 11
8.5
 20
-222.0
 21
-204.0
  0
ARC
  8
APS_GEOMETRY
 10
4.5
 20
-204.0
 40
4.0
 50
0.0
 51
90.0
  0
LINE
  8
APS_GEOMETRY
 10
4.5
 11
-56.5
 20
-200.0
 21
-200.0
  0
ARC
  8
APS_GEOMETRY
 10
-56.5
 20
-204.0
 40
4.0
 50
90.0
 51
180.0
  0
LINE
  8
APS_GEOMETRY
 10
-60.5
 11
-60.5
 20
-204.0
 21
-210.0
  0
LINE
  8
APS_GEOMETRY
 10
-60.5
 11
-54.5
 20
-210.0
 21
-210.0
  0
LINE
  8
APS_GEOMETRY
 10
-54.5
 11
-54.5
 20
-210.0
 21
-207.0
  0
LINE
  8
APS_GEOMETRY
 10
-52.499963
 11
2.000037
 20
-331.0
 21
-331.0
  0
LINE
  8
APS_GEOMETRY
 10
2.000037
 11
2.000037
 20
-331.0
 21
-328.0
  0
LINE
  8
APS_GEOMETRY
 10
2.000037
 11
6.500037
 20
-328.0
 21
-328.0
  0
LINE
  8
APS_GEOMETRY
 10
6.500037
 11
6.500037
 20
-328.0
 21
-317.5
  0
LINE
  8
APS_GEOMETRY
 10
6.500037
 11
8.000037
 20
-317.5
 21
-316.0
  0
LINE
  8
APS_GEOMETRY
 10
8.000037
 11
10.500037
 20
-316.0
 21
-316.0
  0
LINE
  8
APS_GEOMETRY
 10
10.500037
 11
10.500037
 20
-316.0
 21
-334.0
  0
ARC
  8
APS_GEOMETRY
 10
6.500037
 20
-334.0
 40
4.0
 50
270.0
 51
0.0
  0
LINE
  8
APS_GEOMETRY
 10
6.500037
 11
-54.499963
 20
-338.0
 21
-338.0
  0
ARC
  8
APS_GEOMETRY
 10
-54.499963
 20
-334.0
 40
4.0
 50
180.0
 51
270.0
  0
LINE
  8
APS_GEOMETRY
 10
-58.499963
 11
-58.499963
 20
-334.0
 21
-328.0
  0
LINE
  8
APS_GEOMETRY
 10
-58.499963
 11
-52.499963
 20
-328.0
 21
-328.0
  0
LINE
  8
APS_GEOMETRY
 10
-52.499963
 11
-52.499963
 20
-328.0
 21
-331.0
  0
LINE
  8
COSTRUZIONI
 10
854.199963
 11
836.499963
 20
-229.5
 21
-229.5
  0
LINE
  8
COSTRUZIONI
 10
836.499963
 11
836.499963
 20
-229.5
 21
-233.0
  0
LINE
  8
COSTRUZIONI
 10
836.499963
 11
854.199963
 20
-233.0
 21
-233.0
  0
LINE
  8
COSTRUZIONI
 10
854.199963
 11
854.199963
 20
-233.0
 21
-229.5
  0
LINE
  8
APS_GEOMETRY
 10
869.0
 11
869.0
 20
0.0
 21
2129.0
  0
LINE
  8
APS_GEOMETRY
 10
869.0
 11
11.0
 20
2129.0
 21
2129.0
  0
LINE
  8
APS_GEOMETRY
 10
11.0
 11
11.0
 20
2129.0
 21
0.0
  0
LINE
  8
APS_GEOMETRY
 10
938.0
 11
938.0
 20
0.0
 21
2198.0
  0
LINE
  8
APS_GEOMETRY
 10
938.0
 11
-58.0
 20
2198.0
 21
2198.0
  0
LINE
  8
APS_GEOMETRY
 10
-58.0
 11
-58.0
 20
2198.0
 21
0.0
  0
LINE
  8
COSTRUZIONI
 10
-643.062689
 11
1356.937311
 20
-613.392762
 21
-613.392762
  0
LINE
  8
COSTRUZIONI
 10
1356.937311
 11
1356.937311
 20
-613.392762
 21
-413.392762
  0
LINE
  8
COSTRUZIONI
 10
1356.937311
 11
-643.062689
 20
-413.392762
 21
-413.392762
  0
LINE
  8
COSTRUZIONI
 10
-643.062689
 11
-643.062689
 20
-413.392762
 21
-613.392762
  0
LINE
  8
COSTRUZIONI
 10
356.937311
 11
356.937311
 20
-613.392762
 21
-413.392762
  0
LINE
  8
COSTRUZIONI
 10
356.937311
 11
1356.937311
 20
-513.392762
 21
-513.392762
  0
LINE
  8
COSTRUZIONI
 10
856.937311
 11
856.937311
 20
-613.392762
 21
-413.392762
  0
LINE
  8
APS_GEOMETRY
 10
-580.377617
 11
-563.142878
 20
-467.377872
 21
-467.377872
  0
ARC
  8
APS_GEOMETRY
 10
-564.014476
 20
-442.68262
 40
24.710628
 50
272.021365
 51
278.440365
  0
ARC
  8
APS_GEOMETRY
 10
-563.041733
 20
-449.238057
 40
18.083413
 50
278.440365
 51
285.945396
  0
ARC
  8
APS_GEOMETRY
 10
-555.724594
 20
-475.435357
 40
9.117519
 50
98.583621
 51
104.931417
  0
ARC
  8
APS_GEOMETRY
 10
-556.340553
 20
-471.354627
 40
4.990564
 50
90.0
 51
98.583621
  0
ARC
  8
APS_GEOMETRY
 10
-556.340553
 20
-470.115756
 40
3.751692
 50
52.870717
 51
90.0
  0
ARC
  8
APS_GEOMETRY
 10
-561.429152
 20
-476.836947
 40
12.181891
 50
32.517511
 51
52.870717
  0
ARC
  8
APS_GEOMETRY
 10
-565.460374
 20
-479.406851
 40
16.962598
 50
17.208621
 51
32.517511
  0
ARC
  8
APS_GEOMETRY
 10
-562.100504
 20
-478.366244
 40
13.445271
 50
0.0
 51
17.208621
  0
ARC
  8
APS_GEOMETRY
 10
-555.372664
 20
-478.366244
 40
6.717431
 50
337.348108
 51
0.0
  0
ARC
  8
APS_GEOMETRY
 10
-552.67275
 20
-479.492979
 40
3.791842
 50
307.042475
 51
337.348108
  0
ARC
  8
APS_GEOMETRY
 10
-553.141999
 20
-478.848279
 40
4.589135
 50
287.185706
 51
306.869898
  0
ARC
  8
APS_GEOMETRY
 10
-553.560756
 20
-477.494296
 40
6.006395
 50
270.0
 51
287.185706
  0
ARC
  8
APS_GEOMETRY
 10
-553.560756
 20
-478.107206
 40
5.393486
 50
252.221439
 51
270.0
  0
ARC
  8
APS_GEOMETRY
 10
-553.811841
 20
-478.89025
 40
4.57117
 50
232.895765
 51
252.221439
  0
ARC
  8
APS_GEOMETRY
 10
-552.841313
 20
-477.607179
 40
6.179957
 50
218.299689
 51
232.895765
  0
ARC
  8
APS_GEOMETRY
 10
-545.261077
 20
-471.620736
 40
15.83902
 50
209.197486
 51
218.299689
  0
ARC
  8
APS_GEOMETRY
 10
-583.814845
 20
-492.508599
 40
28.011657
 50
28.024501
 51
32.699461
  0
ARC
  8
APS_GEOMETRY
 10
-563.658738
 20
-479.568876
 40
4.059515
 50
32.699461
 51
45.0
  0
ARC
  8
APS_GEOMETRY
 10
-562.284432
 20
-478.19457
 40
2.115953
 50
45.0
 51
67.557247
  0
ARC
  8
APS_GEOMETRY
 10
-562.292588
 20
-478.214316
 40
2.137317
 50
67.557247
 51
90.0
  0
ARC
  8
APS_GEOMETRY
 10
-562.292588
 20
-478.045786
 40
1.968787
 50
90.0
 51
120.801446
  0
ARC
  8
APS_GEOMETRY
 10
-562.359116
 20
-477.93419
 40
1.838864
 50
120.801446
 51
152.700428
  0
ARC
  8
APS_GEOMETRY
 10
-560.900305
 20
-478.687124
 40
3.480522
 50
152.700428
 51
171.085073
  0
ARC
  8
APS_GEOMETRY
 10
-549.811382
 20
-480.426563
 40
14.705043
 50
171.085073
 51
180.0
  0
LINE
  8
APS_GEOMETRY
 10
-564.516425
 11
-564.516425
 20
-480.426563
 21
-498.740517
  0
ARC
  8
APS_GEOMETRY
 10
-545.089354
 20
-498.740517
 40
19.42707
 50
180.0
 51
188.194263
  0
ARC
  8
APS_GEOMETRY
 10
-559.596931
 20
-500.829608
 40
4.769851
 50
188.194263
 51
204.775141
  0
ARC
  8
APS_GEOMETRY
 10
-561.006396
 20
-501.48013
 40
3.217508
 50
204.775141
 51
228.576334
  0
ARC
  8
APS_GEOMETRY
 10
-559.684078
 20
-499.981504
 40
5.216108
 50
228.576334
 51
247.217594
  0
ARC
  8
APS_GEOMETRY
 10
-567.352978
 20
-518.053657
 40
14.415923
 50
59.381395
 51
66.929588
  0
ARC
  8
APS_GEOMETRY
 10
-561.691753
 20
-508.488138
 40
3.30068
 50
43.567904
 51
59.381395
  0
ARC
  8
APS_GEOMETRY
 10
-560.786155
 20
-507.626716
 40
2.050818
 50
19.041231
 51
43.567904
  0
ARC
  8
APS_GEOMETRY
 10
-562.044497
 20
-508.061011
 40
3.381997
 50
0.0
 51
19.041231
  0
ARC
  8
APS_GEOMETRY
 10
-561.409938
 20
-508.061011
 40
2.747437
 50
317.65975
 51
0.0
  0
ARC
  8
APS_GEOMETRY
 10
-563.932318
 20
-505.762581
 40
6.159941
 50
289.746837
 51
317.65975
  0
ARC
  8
APS_GEOMETRY
 10
-566.044774
 20
-499.87788
 40
12.412315
 50
281.964396
 51
289.746837
  0
ARC
  8
APS_GEOMETRY
 10
-568.971603
 20
-486.066035
 40
26.530862
 50
276.643452
 51
281.964396
  0
ARC
  8
APS_GEOMETRY
 10
-570.203399
 20
-475.490189
 40
37.178202
 50
272.836113
 51
276.643452
  0
ARC
  8
APS_GEOMETRY
 10
-571.678489
 20
-445.714443
 40
66.990463
 50
270.0
 51
272.836113
  0
ARC
  8
APS_GEOMETRY
 10
-571.678489
 20
-427.264653
 40
85.440254
 50
267.283141
 51
270.0
  0
ARC
  8
APS_GEOMETRY
 10
-573.472384
 20
-465.067706
 40
47.59466
 50
263.64272
 51
267.283141
  0
ARC
  8
APS_GEOMETRY
 10
-574.97465
 20
-478.551459
 40
34.02748
 50
258.563267
 51
263.64272
  0
ARC
  8
APS_GEOMETRY
 10
-578.5634
 20
-496.290973
 40
15.928599
 50
251.136412
 51
258.563267
  0
ARC
  8
APS_GEOMETRY
 10
-581.767511
 20
-505.583709
 40
6.099088
 50
222.557585
 51
251.395035
  0
ARC
  8
APS_GEOMETRY
 10
-584.145004
 20
-507.76668
 40
2.871421
 50
180.0
 51
222.557585
  0
ARC
  8
APS_GEOMETRY
 10
-584.624665
 20
-507.76668
 40
2.39176
 50
150.642246
 51
180.0
  0
ARC
  8
APS_GEOMETRY
 10
-584.433016
 20
-507.874482
 40
2.611648
 50
122.574057
 51
150.642246
  0
ARC
  8
APS_GEOMETRY
 10
-584.939968
 20
-507.292092
 40
1.851424
 50
108.676702
 51
119.054604
  0
ARC
  8
APS_GEOMETRY
 10
-561.824394
 20
-575.675666
 40
74.036208
 50
107.037768
 51
108.676702
  0
ARC
  8
APS_GEOMETRY
 10
-584.3788
 20
-501.912168
 40
3.098808
 50
286.144339
 51
308.659808
  0
ARC
  8
APS_GEOMETRY
 10
-583.871363
 20
-502.546465
 40
2.286512
 50
308.659808
 51
334.932537
  0
ARC
  8
APS_GEOMETRY
 10
-585.936079
 20
-501.580711
 40
4.565927
 50
334.932537
 51
348.829022
  0
ARC
  8
APS_GEOMETRY
 10
-611.761957
 20
-496.480642
 40
30.890567
 50
348.829022
 51
354.160508
  0
ARC
  8
APS_GEOMETRY
 10
-629.217867
 20
-494.681339
 40
48.438962
 50
354.143986
 51
355.660291
  0
ARC
  8
APS_GEOMETRY
 10
-706.594138
 20
-488.809455
 40
126.037715
 50
355.660291
 51
356.600286
  0
ARC
  8
APS_GEOMETRY
 10
-765.743164
 20
-485.295652
 40
185.291018
 50
356.600286
 51
357.239747
  0
ARC
  8
APS_GEOMETRY
 10
-933.568264
 20
-477.204333
 40
353.311058
 50
357.239747
 51
357.702834
  0
ARC
  8
APS_GEOMETRY
 10
-917.047968
 20
-477.867039
 40
336.777476
 50
357.702834
 51
358.674384
  0
ARC
  8
APS_GEOMETRY
 10
-761.215687
 20
-481.473075
 40
180.903478
 50
358.674384
 51
0.0
  0
ARC
  8
APS_GEOMETRY
 10
-607.122276
 20
-481.473075
 40
26.810067
 50
0.0
 51
6.241914
  0
ARC
  8
APS_GEOMETRY
 10
-585.803035
 20
-479.141283
 40
5.363685
 50
6.241914
 51
20.224859
  0
ARC
  8
APS_GEOMETRY
 10
-582.84825
 20
-478.052678
 40
2.214746
 50
20.224859
 51
50.440332
  0
ARC
  8
APS_GEOMETRY
 10
-582.274419
 20
-477.35804
 40
1.313744
 50
50.440332
 51
90.0
  0
ARC
  8
APS_GEOMETRY
 10
-582.274419
 20
-477.806613
 40
1.762317
 50
90.0
 51
126.747471
  0
ARC
  8
APS_GEOMETRY
 10
-579.784405
 20
-481.141454
 40
5.924208
 50
126.747471
 51
146.546691
  0
ARC
  8
APS_GEOMETRY
 10
-623.772136
 20
-452.228514
 40
46.714947
 50
324.255019
 51
326.700579
  0
ARC
  8
APS_GEOMETRY
 10
-605.149186
 20
-465.632644
 40
23.769686
 50
320.826342
 51
324.255019
  0
ARC
  8
APS_GEOMETRY
 10
-599.062627
 20
-470.592063
 40
15.918442
 50
315.721571
 51
320.826342
  0
ARC
  8
APS_GEOMETRY
 10
-592.068484
 20
-477.412222
 40
6.14948
 50
307.504142
 51
315.721571
  0
ARC
  8
APS_GEOMETRY
 10
-592.713775
 20
-476.550925
 40
7.225632
 50
291.305784
 51
307.405357
  0
ARC
  8
APS_GEOMETRY
 10
-591.594913
 20
-479.419802
 40
4.146296
 50
270.0
 51
291.305784
  0
ARC
  8
APS_GEOMETRY
 10
-591.594913
 20
-479.687142
 40
3.878957
 50
245.531798
 51
270.0
  0
ARC
  8
APS_GEOMETRY
 10
-591.624256
 20
-479.751622
 40
3.808114
 50
220.833495
 51
245.531798
  0
ARC
  8
APS_GEOMETRY
 10
-591.231128
 20
-479.411882
 40
4.327703
 50
198.683699
 51
220.833495
  0
ARC
  8
APS_GEOMETRY
 10
-589.589659
 20
-478.856796
 40
6.060487
 50
180.0
 51
198.683699
  0
ARC
  8
APS_GEOMETRY
 10
-585.742449
 20
-478.856796
 40
9.907696
 50
168.407825
 51
180.0
  0
ARC
  8
APS_GEOMETRY
 10
-579.389697
 20
-480.159925
 40
16.392726
 50
159.401826
 51
168.407825
  0
ARC
  8
APS_GEOMETRY
 10
-577.426504
 20
-480.897769
 40
18.489996
 50
151.38954
 51
159.401826
  0
ARC
  8
APS_GEOMETRY
 10
-577.828888
 20
-480.678287
 40
18.031646
 50
143.275893
 51
151.38954
  0
ARC
  8
APS_GEOMETRY
 10
-582.878482
 20
-476.902349
 40
11.726407
 50
124.215702
 51
143.310277
  0
ARC
  8
APS_GEOMETRY
 10
-587.376163
 20
-470.288112
 40
3.727828
 50
90.0
 51
124.215702
  0
ARC
  8
APS_GEOMETRY
 10
-587.376163
 20
-471.944684
 40
5.3844
 50
82.724995
 51
90.0
  0
ARC
  8
APS_GEOMETRY
 10
-587.796858
 20
-475.240126
 40
8.706586
 50
77.005383
 51
82.724995
  0
ARC
  8
APS_GEOMETRY
 10
-574.948496
 20
-413.293542
 40
54.560918
 50
258.486169
 51
260.377772
  0
ARC
  8
APS_GEOMETRY
 10
-580.452482
 20
-445.75846
 40
21.632741
 50
260.377772
 51
263.382083
  0
ARC
  8
APS_GEOMETRY
 10
-580.92325
 20
-449.816079
 40
17.547904
 50
263.382083
 51
267.083862
  0
ARC
  8
APS_GEOMETRY
 10
-580.377617
 20
-439.104826
 40
28.273045
 50
267.083862
 51
270.0
  0
ARC
  8
APS_GEOMETRY
 10
-520.650582
 20
-492.243698
 40
25.781524
 50
71.909511
 51
90.0
  0
ARC
  8
APS_GEOMETRY
 10
-519.652082
 20
-489.187065
 40
22.565936
 50
52.561428
 51
71.909511
  0
ARC
  8
APS_GEOMETRY
 10
-519.91361
 20
-489.263128
 40
22.785888
 50
38.846006
 51
52.155542
  0
ARC
  8
APS_GEOMETRY
 10
-523.485743
 20
-492.139922
 40
27.372399
 50
26.707224
 51
38.846006
  0
ARC
  8
APS_GEOMETRY
 10
-522.778609
 20
-491.562011
 40
26.481717
 50
13.867603
 51
26.277857
  0
ARC
  8
APS_GEOMETRY
 10
-517.678888
 20
-490.303017
 40
21.228887
 50
0.0
 51
13.867603
  0
ARC
  8
APS_GEOMETRY
 10
-517.348681
 20
-490.303017
 40
20.898681
 50
339.712247
 51
0.0
  0
ARC
  8
APS_GEOMETRY
 10
-518.525184
 20
-489.868101
 40
22.152997
 50
320.013114
 51
339.712247
  0
ARC
  8
APS_GEOMETRY
 10
-518.720283
 20
-489.760553
 40
22.371633
 50
303.343757
 51
320.123166
  0
ARC
  8
APS_GEOMETRY
 10
-521.016012
 20
-486.27145
 40
26.548261
 50
287.949403
 51
303.343757
  0
ARC
  8
APS_GEOMETRY
 10
-521.770266
 20
-483.65634
 40
29.268668
 50
279.039483
 51
287.776406
  0
ARC
  8
APS_GEOMETRY
 10
-521.468169
 20
-485.555234
 40
27.345893
 50
270.0
 51
279.039483
  0
ARC
  8
APS_GEOMETRY
 10
-521.468169
 20
-486.890275
 40
26.010853
 50
257.72804
 51
270.0
  0
ARC
  8
APS_GEOMETRY
 10
-521.427241
 20
-486.70212
 40
26.203407
 50
245.501426
 51
257.72804
  0
ARC
  8
APS_GEOMETRY
 10
-522.899947
 20
-489.924895
 40
22.660086
 50
228.665185
 51
245.510859
  0
ARC
  8
APS_GEOMETRY
 10
-523.389744
 20
-490.481735
 40
21.918485
 50
211.534792
 51
228.665185
  0
ARC
  8
APS_GEOMETRY
 10
-522.747767
 20
-490.010294
 40
22.712325
 50
195.642246
 51
211.70143
  0
ARC
  8
APS_GEOMETRY
 10
-521.574041
 20
-489.681651
 40
23.931193
 50
180.0
 51
195.642246
  0
ARC
  8
APS_GEOMETRY
 10
-521.322474
 20
-489.681651
 40
24.182759
 50
162.181111
 51
180.0
  0
ARC
  8
APS_GEOMETRY
 10
-523.528967
 20
-488.972421
 40
21.865083
 50
143.433519
 51
162.181111
  0
ARC
  8
APS_GEOMETRY
 10
-523.82585
 20
-488.734639
 40
21.484982
 50
126.384352
 51
143.471145
  0
ARC
  8
APS_GEOMETRY
 10
-521.791719
 20
-491.495246
 40
24.91407
 50
110.525108
 51
126.384352
  0
ARC
  8
APS_GEOMETRY
 10
-521.892407
 20
-490.74563
 40
24.177325
 50
99.7697
 51
110.924502
  0
ARC
  8
APS_GEOMETRY
 10
-520.650582
 20
-497.957767
 40
31.495593
 50
90.0
 51
99.7697
  0
ARC
  8
APS_GEOMETRY
 10
-523.757413
 20
-480.655232
 40
4.807157
 50
90.0
 51
119.604451
  0
ARC
  8
APS_GEOMETRY
 10
-523.336371
 20
-481.396267
 40
5.659453
 50
119.604451
 51
146.842076
  0
ARC
  8
APS_GEOMETRY
 10
-522.490194
 20
-482.090033
 40
6.74833
 50
145.840305
 51
164.054604
  0
ARC
  8
APS_GEOMETRY
 10
-520.528909
 20
-482.650401
 40
8.788097
 50
164.054604
 51
180.0
  0
ARC
  8
APS_GEOMETRY
 10
-508.264453
 20
-482.650401
 40
21.052553
 50
180.0
 51
189.976729
  0
ARC
  8
APS_GEOMETRY
 10
-489.612856
 20
-479.369431
 40
39.990527
 50
189.976729
 51
197.211115
  0
ARC
  8
APS_GEOMETRY
 10
-485.533342
 20
-478.105743
 40
44.261281
 50
197.211115
 51
203.760424
  0
ARC
  8
APS_GEOMETRY
 10
-495.696042
 20
-482.579645
 40
33.157396
 50
203.760424
 51
211.328693
  0
ARC
  8
APS_GEOMETRY
 10
-516.564179
 20
-495.103391
 40
8.821499
 50
212.319617
 51
224.440823
  0
ARC
  8
APS_GEOMETRY
 10
-517.419599
 20
-495.942275
 40
7.623388
 50
224.440823
 51
237.483626
  0
ARC
  8
APS_GEOMETRY
 10
-517.972393
 20
-496.80944
 40
6.595013
 50
237.483626
 51
252.415923
  0
ARC
  8
APS_GEOMETRY
 10
-518.524855
 20
-498.552703
 40
4.766303
 50
252.415923
 51
270.0
  0
ARC
  8
APS_GEOMETRY
 10
-518.524855
 20
-497.987544
 40
5.331461
 50
270.0
 51
294.952847
  0
ARC
  8
APS_GEOMETRY
 10
-518.375482
 20
-498.308566
 40
4.977388
 50
294.952847
 51
320.792796
  0
ARC
  8
APS_GEOMETRY
 10
-519.176131
 20
-497.655405
 40
6.010664
 50
320.792796
 51
342.776564
  0
ARC
  8
APS_GEOMETRY
 10
-522.743943
 20
-496.549383
 40
9.745978
 50
342.776564
 51
0.0
  0
ARC
  8
APS_GEOMETRY
 10
-539.505063
 20
-496.549383
 40
26.507098
 50
0.0
 51
8.498559
  0
ARC
  8
APS_GEOMETRY
 10
-551.172392
 20
-498.292777
 40
38.30396
 50
8.498559
 51
15.566318
  0
ARC
  8
APS_GEOMETRY
 10
-549.769578
 20
-497.901993
 40
36.847733
 50
15.566318
 51
22.908635
  0
ARC
  8
APS_GEOMETRY
 10
-537.705875
 20
-492.803943
 40
23.751053
 50
22.908635
 51
32.057376
  0
ARC
  8
APS_GEOMETRY
 10
-528.23014
 20
-486.834361
 40
12.551777
 50
31.920876
 51
42.510447
  0
ARC
  8
APS_GEOMETRY
 10
-525.628097
 20
-484.449155
 40
9.021927
 50
42.510447
 51
55.00798
  0
ARC
  8
APS_GEOMETRY
 10
-524.749224
 20
-483.193622
 40
7.489354
 50
55.00798
 51
69.880367
  0
ARC
  8
APS_GEOMETRY
 10
-523.961108
 20
-481.042278
 40
5.198196
 50
69.880367
 51
87.754257
  0
ARC
  8
APS_GEOMETRY
 10
-472.229797
 20
-482.445434
 40
15.98326
 50
83.922511
 51
90.0
  0
ARC
  8
APS_GEOMETRY
 10
-473.515475
 20
-494.520721
 40
28.126798
 50
79.342054
 51
83.922511
  0
ARC
  8
APS_GEOMETRY
 10
-475.066214
 20
-502.760925
 40
36.511651
 50
75.80788
 51
79.342054
  0
ARC
  8
APS_GEOMETRY
 10
-480.476856
 20
-524.155948
 40
58.580227
 50
73.017894
 51
75.80788
  0
ARC
  8
APS_GEOMETRY
 10
-461.425513
 20
-461.662978
 40
6.752259
 50
253.288427
 51
259.045937
  0
ARC
  8
APS_GEOMETRY
 10
-462.353344
 20
-466.456771
 40
1.869502
 50
259.045937
 51
270.0
  0
ARC
  8
APS_GEOMETRY
 10
-462.353344
 20
-467.216581
 40
1.109691
 50
270.0
 51
286.699244
  0
ARC
  8
APS_GEOMETRY
 10
-471.226539
 20
-437.639265
 40
31.989317
 50
286.699244
 51
289.798876
  0
ARC
  8
APS_GEOMETRY
 10
-459.336889
 20
-470.54893
 40
3.002492
 50
100.00798
 51
110.556045
  0
ARC
  8
APS_GEOMETRY
 10
-459.279216
 20
-470.875746
 40
3.334357
 50
90.0
 51
100.00798
  0
ARC
  8
APS_GEOMETRY
 10
-459.279216
 20
-470.720538
 40
3.179149
 50
53.355929
 51
90.0
  0
ARC
  8
APS_GEOMETRY
 10
-464.832966
 20
-478.186665
 40
12.484373
 50
35.100706
 51
53.355929
  0
ARC
  8
APS_GEOMETRY
 10
-467.604091
 20
-480.134295
 40
15.871465
 50
20.244574
 51
35.100706
  0
ARC
  8
APS_GEOMETRY
 10
-460.770712
 20
-477.614063
 40
8.588153
 50
0.0
 51
20.244574
  0
ARC
  8
APS_GEOMETRY
 10
-457.332319
 20
-477.614063
 40
5.149761
 50
340.480718
 51
0.0
  0
ARC
  8
APS_GEOMETRY
 10
-456.484438
 20
-477.914635
 40
4.250179
 50
318.972496
 51
340.480718
  0
ARC
  8
APS_GEOMETRY
 10
-456.105878
 20
-478.244031
 40
3.748373
 50
295.016893
 51
318.972496
  0
ARC
  8
APS_GEOMETRY
 10
-455.976163
 20
-478.521991
 40
3.441636
 50
270.0
 51
295.016893
  0
ARC
  8
APS_GEOMETRY
 10
-455.976163
 20
-476.678219
 40
5.285409
 50
256.171349
 51
270.0
  0
ARC
  8
APS_GEOMETRY
 10
-456.552445
 20
-479.019364
 40
2.874379
 50
237.380757
 51
256.171349
  0
ARC
  8
APS_GEOMETRY
 10
-455.531869
 20
-477.424713
 40
4.767653
 50
231.559211
 51
237.380757
  0
ARC
  8
APS_GEOMETRY
 10
-440.689177
 20
-458.725259
 40
28.641805
 50
229.184916
 51
231.559211
  0
ARC
  8
APS_GEOMETRY
 10
-424.781755
 20
-440.306139
 40
52.979225
 50
227.899934
 51
229.184916
  0
ARC
  8
APS_GEOMETRY
 10
-369.728791
 20
-379.377957
 40
135.095437
 50
227.095253
 51
227.899934
  0
ARC
  8
APS_GEOMETRY
 10
-473.091527
 20
-490.539525
 40
16.696392
 50
46.974934
 51
64.612094
  0
ARC
  8
APS_GEOMETRY
 10
-469.417297
 20
-482.797398
 40
8.126649
 50
64.612094
 51
90.0
  0
ARC
  8
APS_GEOMETRY
 10
-469.417297
 20
-480.526584
 40
5.855835
 50
90.0
 51
106.966148
  0
ARC
  8
APS_GEOMETRY
 10
-470.095643
 20
-478.303117
 40
3.531193
 50
106.966148
 51
128.867778
  0
ARC
  8
APS_GEOMETRY
 10
-470.488419
 20
-477.815783
 40
2.90528
 50
128.867778
 51
154.740609
  0
ARC
  8
APS_GEOMETRY
 10
-470.36145
 20
-477.875691
 40
3.045672
 50
154.740609
 51
180.0
  0
ARC
  8
APS_GEOMETRY
 10
-470.546165
 20
-477.875691
 40
2.860958
 50
180.0
 51
206.640144
  0
ARC
  8
APS_GEOMETRY
 10
-469.625856
 20
-477.414028
 40
3.89057
 50
206.640144
 51
229.429559
  0
ARC
  8
APS_GEOMETRY
 10
-468.150207
 20
-475.690561
 40
6.159464
 50
229.429559
 51
244.493062
  0
ARC
  8
APS_GEOMETRY
 10
-464.10458
 20
-467.211369
 40
15.554345
 50
244.493062
 51
253.955733
  0
ARC
  8
APS_GEOMETRY
 10
-536.175518
 20
-712.140341
 40
239.758367
 50
72.73731
 51
73.580493
  0
ARC
  8
APS_GEOMETRY
 10
-494.871855
 20
-579.22476
 40
100.573081
 50
71.435423
 51
72.73731
  0
ARC
  8
APS_GEOMETRY
 10
-481.191219
 20
-538.490283
 40
57.602655
 50
69.164305
 51
71.435423
  0
ARC
  8
APS_GEOMETRY
 10
-465.046379
 20
-496.068325
 40
12.212366
 50
64.230672
 51
69.164305
  0
ARC
  8
APS_GEOMETRY
 10
-466.903117
 20
-499.807099
 40
16.386607
 50
34.93931
 51
64.067526
  0
ARC
  8
APS_GEOMETRY
 10
-462.895464
 20
-497.007232
 40
11.497789
 50
0.0
 51
34.93931
  0
ARC
  8
APS_GEOMETRY
 10
-465.359358
 20
-497.007232
 40
13.961684
 50
333.434949
 51
0.0
  0
ARC
  8
APS_GEOMETRY
 10
-466.272107
 20
-496.550857
 40
14.982168
 50
307.80653
 51
333.434949
  0
ARC
  8
APS_GEOMETRY
 10
-468.647346
 20
-493.478271
 40
18.865789
 50
296.732094
 51
307.785738
  0
ARC
  8
APS_GEOMETRY
 10
-470.052659
 20
-490.688012
 40
21.98996
 50
286.495988
 51
296.732094
  0
ARC
  8
APS_GEOMETRY
 10
-470.978246
 20
-487.562478
 40
25.249665
 50
277.544213
 51
286.495988
  0
ARC
  8
APS_GEOMETRY
 10
-472.327907
 20
-477.371556
 40
35.529571
 50
270.0
 51
277.544213
  0
ARC
  8
APS_GEOMETRY
 10
-472.327907
 20
-475.830262
 40
37.070866
 50
263.55502
 51
270.0
  0
ARC
  8
APS_GEOMETRY
 10
-471.127808
 20
-465.206428
 40
47.762268
 50
257.87769
 51
263.55502
  0
ARC
  8
APS_GEOMETRY
 10
-471.764839
 20
-468.172278
 40
44.728776
 50
254.83911
 51
257.87769
  0
ARC
  8
APS_GEOMETRY
 10
-476.931354
 20
-487.239641
 40
24.973847
 50
250.772225
 51
254.83911
  0
ARC
  8
APS_GEOMETRY
 10
-479.2551
 20
-493.902132
 40
17.917745
 50
245.120665
 51
250.772225
  0
ARC
  8
APS_GEOMETRY
 10
-483.188686
 20
-502.384326
 40
8.56784
 50
236.944177
 51
245.120665
  0
ARC
  8
APS_GEOMETRY
 10
-485.508357
 20
-506.03481
 40
4.243206
 50
211.80188
 51
236.309932
  0
ARC
  8
APS_GEOMETRY
 10
-474.483919
 20
-499.198868
 40
17.215035
 50
199.704454
 51
211.80188
  0
ARC
  8
APS_GEOMETRY
 10
-469.219251
 20
-497.313383
 40
22.807153
 50
190.41311
 51
199.704454
  0
ARC
  8
APS_GEOMETRY
 10
-473.781842
 20
-498.151854
 40
18.168159
 50
180.0
 51
190.41311
  0
ARC
  8
APS_GEOMETRY
 10
-486.08141
 20
-498.151854
 40
5.868591
 50
164.875993
 51
180.0
  0
ARC
  8
APS_GEOMETRY
 10
-489.387924
 20
-497.258202
 40
2.443441
 50
141.340192
 51
164.875993
  0
ARC
  8
APS_GEOMETRY
 10
-489.068102
 20
-497.472287
 40
2.827106
 50
116.927678
 51
142.001268
  0
ARC
  8
APS_GEOMETRY
 10
-489.235611
 20
-497.142504
 40
2.45722
 50
90.0
 51
116.927678
  0
ARC
  8
APS_GEOMETRY
 10
-489.235611
 20
-497.148915
 40
2.463631
 50
62.209558
 51
90.0
  0
ARC
  8
APS_GEOMETRY
 10
-490.219263
 20
-499.015332
 40
4.57339
 50
41.905942
 51
62.209558
  0
ARC
  8
APS_GEOMETRY
 10
-490.052316
 20
-499.050358
 40
4.474651
 50
37.313278
 51
43.66778
  0
ARC
  8
APS_GEOMETRY
 10
-515.120085
 20
-518.156063
 40
35.993232
 50
35.073754
 51
37.313278
  0
ARC
  8
APS_GEOMETRY
 10
-543.587595
 20
-538.143889
 40
70.777026
 50
33.933582
 51
35.073754
  0
ARC
  8
APS_GEOMETRY
 10
-645.085235
 20
-606.433858
 40
193.109731
 50
33.243326
 51
33.933582
  0
ARC
  8
APS_GEOMETRY
 10
-477.965579
 20
-496.863766
 40
6.726706
 50
213.453309
 51
231.636906
  0
ARC
  8
APS_GEOMETRY
 10
-474.787048
 20
-492.848147
 40
11.848059
 50
231.636906
 51
245.313085
  0
ARC
  8
APS_GEOMETRY
 10
-474.086949
 20
-491.325107
 40
13.524302
 50
245.313085
 51
257.398477
  0
ARC
  8
APS_GEOMETRY
 10
-474.32282
 20
-492.380204
 40
12.443162
 50
257.398477
 51
270.0
  0
ARC
  8
APS_GEOMETRY
 10
-474.32282
 20
-494.317504
 40
10.505861
 50
270.0
 51
282.907409
  0
ARC
  8
APS_GEOMETRY
 10
-473.192335
 20
-499.250531
 40
5.444957
 50
282.907409
 51
300.872083
  0
ARC
  8
APS_GEOMETRY
 10
-472.212098
 20
-500.890201
 40
3.534621
 50
300.872083
 51
326.876264
  0
ARC
  8
APS_GEOMETRY
 10
-471.096017
 20
-501.618424
 40
2.201976
 50
326.876264
 51
0.0
  0
ARC
  8
APS_GEOMETRY
 10
-471.425073
 20
-501.618424
 40
2.531031
 50
0.0
 51
27.552812
  0
ARC
  8
APS_GEOMETRY
 10
-472.225581
 20
-502.036081
 40
3.433944
 50
27.552812
 51
51.146626
  0
ARC
  8
APS_GEOMETRY
 10
-473.880152
 20
-504.090031
 40
6.071427
 50
51.146626
 51
65.224859
  0
ARC
  8
APS_GEOMETRY
 10
-479.983484
 20
-517.313915
 40
20.635828
 50
65.224859
 51
72.847578
  0
ARC
  8
APS_GEOMETRY
 10
-444.342006
 20
-403.674546
 40
98.461959
 50
251.105878
 51
252.531977
  0
ARC
  8
APS_GEOMETRY
 10
-456.958291
 20
-440.53604
 40
59.501204
 50
249.271334
 51
251.105878
  0
ARC
  8
APS_GEOMETRY
 10
-462.203196
 20
-454.395303
 40
44.682696
 50
246.829602
 51
249.271334
  0
ARC
  8
APS_GEOMETRY
 10
-470.687019
 20
-474.217825
 40
23.120979
 50
243.434949
 51
246.829602
  0
ARC
  8
APS_GEOMETRY
 10
-471.652771
 20
-476.149328
 40
20.961492
 50
235.98065
 51
243.434949
  0
ARC
  8
APS_GEOMETRY
 10
-470.911164
 20
-475.050652
 40
22.287038
 50
228.751729
 51
235.98065
  0
ARC
  8
APS_GEOMETRY
 10
-474.385419
 20
-479.144688
 40
16.918465
 50
206.42073
 51
228.456619
  0
ARC
  8
APS_GEOMETRY
 10
-478.940025
 20
-481.407668
 40
11.83265
 50
180.0
 51
206.42073
  0
ARC
  8
APS_GEOMETRY
 10
-478.725205
 20
-481.407668
 40
12.04747
 50
166.55482
 51
180.0
  0
ARC
  8
APS_GEOMETRY
 10
-477.330083
 20
-481.741196
 40
13.481906
 50
153.848132
 51
166.55482
  0
ARC
  8
APS_GEOMETRY
 10
-477.213894
 20
-481.798247
 40
13.611345
 50
141.243612
 51
153.848132
  0
ARC
  8
APS_GEOMETRY
 10
-476.353664
 20
-482.488812
 40
14.714466
 50
129.122607
 51
141.243612
  0
ARC
  8
APS_GEOMETRY
 10
-473.600683
 20
-485.415972
 40
18.724658
 50
108.978219
 51
130.006256
  0
ARC
  8
APS_GEOMETRY
 10
-472.229797
 20
-489.402235
 40
22.940062
 50
90.0
 51
108.978219
  0
ARC
  8
APS_GEOMETRY
 10
-422.239245
 20
-487.726001
 40
21.263827
 50
77.257003
 51
90.0
  0
ARC
  8
APS_GEOMETRY
 10
-422.455302
 20
-488.681379
 40
22.243331
 50
64.798876
 51
77.257003
  0
ARC
  8
APS_GEOMETRY
 10
-404.137723
 20
-449.682803
 40
20.842904
 50
244.885165
 51
251.17529
  0
ARC
  8
APS_GEOMETRY
 10
-410.10625
 20
-467.190484
 40
2.345817
 50
251.17529
 51
270.0
  0
ARC
  8
APS_GEOMETRY
 10
-410.10625
 20
-465.729915
 40
3.806387
 50
270.0
 51
278.82038
  0
ARC
  8
APS_GEOMETRY
 10
-412.565339
 20
-449.882455
 40
19.843503
 50
278.82038
 51
282.680383
  0
ARC
  8
APS_GEOMETRY
 10
-407.419969
 20
-472.663048
 40
3.51099
 50
95.906141
 51
102.994617
  0
ARC
  8
APS_GEOMETRY
 10
-407.261047
 20
-474.199291
 40
5.055431
 50
90.0
 51
95.906141
  0
ARC
  8
APS_GEOMETRY
 10
-407.261047
 20
-472.499374
 40
3.355514
 50
62.447188
 51
90.0
  0
ARC
  8
APS_GEOMETRY
 10
-407.857732
 20
-473.643019
 40
4.645459
 50
39.093859
 51
62.447188
  0
ARC
  8
APS_GEOMETRY
 10
-414.091872
 20
-478.8567
 40
12.772091
 50
18.434949
 51
39.610688
  0
ARC
  8
APS_GEOMETRY
 10
-417.918468
 20
-480.132232
 40
16.805677
 50
0.0
 51
18.434949
  0
ARC
  8
APS_GEOMETRY
 10
-409.446065
 20
-480.132232
 40
8.333274
 50
334.876872
 51
0.0
  0
ARC
  8
APS_GEOMETRY
 10
-406.939718
 20
-481.307525
 40
5.565045
 50
304.007492
 51
334.876872
  0
ARC
  8
APS_GEOMETRY
 10
-406.981028
 20
-481.189978
 40
5.68568
 50
286.38954
 51
303.690068
  0
ARC
  8
APS_GEOMETRY
 10
-407.162937
 20
-480.57149
 40
6.330364
 50
270.0
 51
286.38954
  0
ARC
  8
APS_GEOMETRY
 10
-407.162937
 20
-480.645278
 40
6.256576
 50
255.154548
 51
270.0
  0
ARC
  8
APS_GEOMETRY
 10
-407.848343
 20
-483.231129
 40
3.58143
 50
235.491477
 51
255.154548
  0
ARC
  8
APS_GEOMETRY
 10
-407.504307
 20
-482.730714
 40
4.188699
 50
218.480198
 51
235.491477
  0
ARC
  8
APS_GEOMETRY
 10
-401.883434
 20
-478.26284
 40
11.368958
 50
208.17859
 51
218.480198
  0
ARC
  8
APS_GEOMETRY
 10
-459.507932
 20
-509.541993
 40
54.197767
 50
28.55962
 51
31.663799
  0
ARC
  8
APS_GEOMETRY
 10
-424.29574
 20
-487.825223
 40
12.827288
 50
31.663799
 51
38.047043
  0
ARC
  8
APS_GEOMETRY
 10
-421.735489
 20
-485.821548
 40
9.576196
 50
38.047043
 51
46.5602
  0
ARC
  8
APS_GEOMETRY
 10
-423.066276
 20
-487.226859
 40
11.511627
 50
46.5602
 51
54.323592
  0
ARC
  8
APS_GEOMETRY
 10
-423.834423
 20
-488.548267
 40
13.033852
 50
54.968356
 51
71.480419
  0
ARC
  8
APS_GEOMETRY
 10
-422.991425
 20
-486.031671
 40
10.379817
 50
71.480419
 51
90.0
  0
ARC
  8
APS_GEOMETRY
 10
-422.991425
 20
-482.902416
 40
7.250562
 50
90.0
 51
114.629635
  0
ARC
  8
APS_GEOMETRY
 10
-423.355524
 20
-482.108239
 40
6.3769
 50
114.629635
 51
140.920621
  0
ARC
  8
APS_GEOMETRY
 10
-422.27974
 20
-482.981863
 40
7.762732
 50
140.920621
 51
163.129646
  0
ARC
  8
APS_GEOMETRY
 10
-416.902318
 20
-484.61261
 40
13.381985
 50
163.129646
 51
180.0
  0
ARC
  8
APS_GEOMETRY
 10
-409.928844
 20
-484.61261
 40
20.355459
 50
180.0
 51
195.439646
  0
ARC
  8
APS_GEOMETRY
 10
-410.986918
 20
-484.90484
 40
19.25777
 50
195.439646
 51
211.31598
  0
ARC
  8
APS_GEOMETRY
 10
-416.076161
 20
-487.894173
 40
13.356544
 50
211.707816
 51
240.456928
  0
ARC
  8
APS_GEOMETRY
 10
-416.418024
 20
-488.497356
 40
12.663219
 50
240.456928
 51
270.0
  0
ARC
  8
APS_GEOMETRY
 10
-416.418024
 20
-485.409893
 40
15.750681
 50
270.0
 51
279.549134
  0
ARC
  8
APS_GEOMETRY
 10
-416.613836
 20
-484.245899
 40
16.931031
 50
279.549134
 51
288.75865
  0
ARC
  8
APS_GEOMETRY
 10
-415.788442
 20
-486.676225
 40
14.364369
 50
288.75865
 51
299.544635
  0
ARC
  8
APS_GEOMETRY
 10
-412.478793
 20
-492.515391
 40
7.652465
 50
299.544635
 51
314.341457
  0
ARC
  8
APS_GEOMETRY
 10
-402.243677
 20
-503.146368
 40
7.10519
 50
120.141386
 51
133.451842
  0
ARC
  8
APS_GEOMETRY
 10
-405.102617
 20
-498.222638
 40
1.411627
 50
90.0
 51
120.141386
  0
ARC
  8
APS_GEOMETRY
 10
-405.102617
 20
-499.04061
 40
2.229599
 50
61.951894
 51
90.0
  0
ARC
  8
APS_GEOMETRY
 10
-405.43467
 20
-499.663848
 40
2.935776
 50
37.568592
 51
61.951894
  0
ARC
  8
APS_GEOMETRY
 10
-406.053951
 20
-500.140218
 40
3.71708
 50
17.665186
 51
37.568592
  0
ARC
  8
APS_GEOMETRY
 10
-406.998714
 20
-500.441098
 40
4.708598
 50
0.0
 51
17.665186
  0
ARC
  8
APS_GEOMETRY
 10
-409.370697
 20
-500.441098
 40
7.08058
 50
344.931512
 51
0.0
  0
ARC
  8
APS_GEOMETRY
 10
-415.668724
 20
-498.745476
 40
13.602871
 50
334.075098
 51
344.931512
  0
ARC
  8
APS_GEOMETRY
 10
-415.866774
 20
-498.649201
 40
13.823082
 50
323.374259
 51
334.075098
  0
ARC
  8
APS_GEOMETRY
 10
-411.80301
 20
-501.670053
 40
8.759514
 50
309.920392
 51
323.374259
  0
ARC
  8
APS_GEOMETRY
 10
-407.74197
 20
-506.460817
 40
2.479565
 50
289.025606
 51
308.990994
  0
ARC
  8
APS_GEOMETRY
 10
-412.074926
 20
-493.895243
 40
15.771223
 50
281.14289
 51
289.025606
  0
ARC
  8
APS_GEOMETRY
 10
-407.680904
 20
-516.676722
 40
7.430522
 50
100.437475
 51
110.119633
  0
ARC
  8
APS_GEOMETRY
 10
-401.859765
 20
-532.566857
 40
24.353349
 50
110.119633
 51
115.463345
  0
ARC
  8
APS_GEOMETRY
 10
-422.640878
 20
-489.086265
 40
23.838158
 50
282.940436
 51
295.628419
  0
ARC
  8
APS_GEOMETRY
 10
-422.435466
 20
-489.980242
 40
22.920885
 50
270.0
 51
282.940436
  0
ARC
  8
APS_GEOMETRY
 10
-422.435466
 20
-488.62632
 40
24.274807
 50
257.307334
 51
270.0
  0
ARC
  8
APS_GEOMETRY
 10
-421.410735
 20
-484.076516
 40
28.938581
 50
245.686204
 51
257.307334
  0
ARC
  8
APS_GEOMETRY
 10
-423.980956
 20
-489.718012
 40
22.739224
 50
228.800778
 51
245.735234
  0
ARC
  8
APS_GEOMETRY
 10
-423.937894
 20
-489.66882
 40
22.804602
 50
211.890792
 51
228.800778
  0
ARC
  8
APS_GEOMETRY
 10
-422.590284
 20
-488.698815
 40
24.461509
 50
196.727964
 51
212.152295
  0
ARC
  8
APS_GEOMETRY
 10
-426.078071
 20
-489.747058
 40
20.819604
 50
180.0
 51
196.727964
  0
ARC
  8
APS_GEOMETRY
 10
-425.570731
 20
-489.747058
 40
21.326944
 50
161.183932
 51
180.0
  0
ARC
  8
APS_GEOMETRY
 10
-424.202408
 20
-490.213301
 40
22.77252
 50
142.980114
 51
161.183932
  0
ARC
  8
APS_GEOMETRY
 10
-423.138341
 20
-491.027618
 40
24.112395
 50
127.824257
 51
142.957525
  0
ARC
  8
APS_GEOMETRY
 10
-421.384363
 20
-493.286858
 40
26.972571
 50
113.520273
 51
127.824257
  0
ARC
  8
APS_GEOMETRY
 10
-421.955264
 20
-491.96756
 40
25.535051
 50
101.926773
 51
113.527064
  0
ARC
  8
APS_GEOMETRY
 10
-422.239245
 20
-490.623089
 40
24.160915
 50
90.0
 51
101.926773
  0
ARC
  8
APS_GEOMETRY
 10
-371.75814
 20
-492.243698
 40
25.781524
 50
71.909511
 51
90.0
  0
ARC
  8
APS_GEOMETRY
 10
-370.75964
 20
-489.187065
 40
22.565936
 50
52.561428
 51
71.909511
  0
ARC
  8
APS_GEOMETRY
 10
-371.021168
 20
-489.263128
 40
22.785888
 50
38.846006
 51
52.155542
  0
ARC
  8
APS_GEOMETRY
 10
-374.593301
 20
-492.139922
 40
27.372399
 50
26.707224
 51
38.846006
  0
ARC
  8
APS_GEOMETRY
 10
-373.886167
 20
-491.562011
 40
26.481717
 50
13.867603
 51
26.277857
  0
ARC
  8
APS_GEOMETRY
 10
-368.786446
 20
-490.303017
 40
21.228887
 50
0.0
 51
13.867603
  0
ARC
  8
APS_GEOMETRY
 10
-368.456239
 20
-490.303017
 40
20.898681
 50
339.712247
 51
0.0
  0
ARC
  8
APS_GEOMETRY
 10
-369.632742
 20
-489.868101
 40
22.152997
 50
320.013114
 51
339.712247
  0
ARC
  8
APS_GEOMETRY
 10
-369.827841
 20
-489.760553
 40
22.371633
 50
303.343757
 51
320.123166
  0
ARC
  8
APS_GEOMETRY
 10
-372.12357
 20
-486.27145
 40
26.548261
 50
287.949403
 51
303.343757
  0
ARC
  8
APS_GEOMETRY
 10
-372.877824
 20
-483.65634
 40
29.268668
 50
279.039483
 51
287.776406
  0
ARC
  8
APS_GEOMETRY
 10
-372.575727
 20
-485.555234
 40
27.345893
 50
270.0
 51
279.039483
  0
ARC
  8
APS_GEOMETRY
 10
-372.575727
 20
-486.890275
 40
26.010853
 50
257.72804
 51
270.0
  0
ARC
  8
APS_GEOMETRY
 10
-372.534799
 20
-486.70212
 40
26.203407
 50
245.501426
 51
257.72804
  0
ARC
  8
APS_GEOMETRY
 10
-374.007506
 20
-489.924895
 40
22.660086
 50
228.665185
 51
245.510859
  0
ARC
  8
APS_GEOMETRY
 10
-374.497302
 20
-490.481735
 40
21.918485
 50
211.534792
 51
228.665185
  0
ARC
  8
APS_GEOMETRY
 10
-373.855325
 20
-490.010294
 40
22.712325
 50
195.642246
 51
211.70143
  0
ARC
  8
APS_GEOMETRY
 10
-372.681599
 20
-489.681651
 40
23.931193
 50
180.0
 51
195.642246
  0
ARC
  8
APS_GEOMETRY
 10
-372.430032
 20
-489.681651
 40
24.182759
 50
162.181111
 51
180.0
  0
ARC
  8
APS_GEOMETRY
 10
-374.636526
 20
-488.972421
 40
21.865083
 50
143.433519
 51
162.181111
  0
ARC
  8
APS_GEOMETRY
 10
-374.933408
 20
-488.734639
 40
21.484982
 50
126.384352
 51
143.471145
  0
ARC
  8
APS_GEOMETRY
 10
-372.899277
 20
-491.495246
 40
24.91407
 50
110.525108
 51
126.384352
  0
ARC
  8
APS_GEOMETRY
 10
-372.999965
 20
-490.74563
 40
24.177325
 50
99.7697
 51
110.924502
  0
ARC
  8
APS_GEOMETRY
 10
-371.75814
 20
-497.957767
 40
31.495593
 50
90.0
 51
99.7697
  0
ARC
  8
APS_GEOMETRY
 10
-374.864971
 20
-480.655232
 40
4.807157
 50
90.0
 51
119.604451
  0
ARC
  8
APS_GEOMETRY
 10
-374.443929
 20
-481.396267
 40
5.659453
 50
119.604451
 51
146.842076
  0
ARC
  8
APS_GEOMETRY
 10
-373.597753
 20
-482.090033
 40
6.74833
 50
145.840305
 51
164.054604
  0
ARC
  8
APS_GEOMETRY
 10
-371.636467
 20
-482.650401
 40
8.788097
 50
164.054604
 51
180.0
  0
ARC
  8
APS_GEOMETRY
 10
-359.372012
 20
-482.650401
 40
21.052553
 50
180.0
 51
189.976729
  0
ARC
  8
APS_GEOMETRY
 10
-340.720414
 20
-479.369431
 40
39.990527
 50
189.976729
 51
197.211115
  0
ARC
  8
APS_GEOMETRY
 10
-336.6409
 20
-478.105743
 40
44.261281
 50
197.211115
 51
203.760424
  0
ARC
  8
APS_GEOMETRY
 10
-346.8036
 20
-482.579645
 40
33.157396
 50
203.760424
 51
211.328693
  0
ARC
  8
APS_GEOMETRY
 10
-367.671737
 20
-495.103391
 40
8.821499
 50
212.319617
 51
224.440823
  0
ARC
  8
APS_GEOMETRY
 10
-368.527157
 20
-495.942275
 40
7.623388
 50
224.440823
 51
237.483626
  0
ARC
  8
APS_GEOMETRY
 10
-369.079951
 20
-496.80944
 40
6.595013
 50
237.483626
 51
252.415923
  0
ARC
  8
APS_GEOMETRY
 10
-369.632413
 20
-498.552703
 40
4.766303
 50
252.415923
 51
270.0
  0
ARC
  8
APS_GEOMETRY
 10
-369.632413
 20
-497.987544
 40
5.331461
 50
270.0
 51
294.952847
  0
ARC
  8
APS_GEOMETRY
 10
-369.48304
 20
-498.308566
 40
4.977388
 50
294.952847
 51
320.792796
  0
ARC
  8
APS_GEOMETRY
 10
-370.283689
 20
-497.655405
 40
6.010664
 50
320.792796
 51
342.776564
  0
ARC
  8
APS_GEOMETRY
 10
-373.851502
 20
-496.549383
 40
9.745978
 50
342.776564
 51
0.0
  0
ARC
  8
APS_GEOMETRY
 10
-390.612621
 20
-496.549383
 40
26.507098
 50
0.0
 51
8.498559
  0
ARC
  8
APS_GEOMETRY
 10
-402.27995
 20
-498.292777
 40
38.30396
 50
8.498559
 51
15.566318
  0
ARC
  8
APS_GEOMETRY
 10
-400.877136
 20
-497.901993
 40
36.847733
 50
15.566318
 51
22.908635
  0
ARC
  8
APS_GEOMETRY
 10
-388.813433
 20
-492.803943
 40
23.751053
 50
22.908635
 51
32.057376
  0
ARC
  8
APS_GEOMETRY
 10
-379.337698
 20
-486.834361
 40
12.551777
 50
31.920876
 51
42.510447
  0
ARC
  8
APS_GEOMETRY
 10
-376.735655
 20
-484.449155
 40
9.021927
 50
42.510447
 51
55.00798
  0
ARC
  8
APS_GEOMETRY
 10
-375.856782
 20
-483.193622
 40
7.489354
 50
55.00798
 51
69.880367
  0
ARC
  8
APS_GEOMETRY
 10
-375.068666
 20
-481.042278
 40
5.198196
 50
69.880367
 51
87.754257
  0
ARC
  8
APS_GEOMETRY
 10
-318.399128
 20
-487.726001
 40
21.263827
 50
77.257003
 51
90.0
  0
ARC
  8
APS_GEOMETRY
 10
-318.615186
 20
-488.681379
 40
22.243331
 50
64.798876
 51
77.257003
  0
ARC
  8
APS_GEOMETRY
 10
-300.297607
 20
-449.682803
 40
20.842904
 50
244.885165
 51
251.17529
  0
ARC
  8
APS_GEOMETRY
 10
-306.266134
 20
-467.190484
 40
2.345817
 50
251.17529
 51
270.0
  0
ARC
  8
APS_GEOMETRY
 10
-306.266134
 20
-465.729915
 40
3.806387
 50
270.0
 51
278.82038
  0
ARC
  8
APS_GEOMETRY
 10
-308.725223
 20
-449.882455
 40
19.843503
 50
278.82038
 51
282.680383
  0
ARC
  8
APS_GEOMETRY
 10
-303.579852
 20
-472.663048
 40
3.51099
 50
95.906141
 51
102.994617
  0
ARC
  8
APS_GEOMETRY
 10
-303.420931
 20
-474.199291
 40
5.055431
 50
90.0
 51
95.906141
  0
ARC
  8
APS_GEOMETRY
 10
-303.420931
 20
-472.499374
 40
3.355514
 50
62.447188
 51
90.0
  0
ARC
  8
APS_GEOMETRY
 10
-304.017615
 20
-473.643019
 40
4.645459
 50
39.093859
 51
62.447188
  0
ARC
  8
APS_GEOMETRY
 10
-310.251756
 20
-478.8567
 40
12.772091
 50
18.434949
 51
39.610688
  0
ARC
  8
APS_GEOMETRY
 10
-314.078352
 20
-480.132232
 40
16.805677
 50
0.0
 51
18.434949
  0
ARC
  8
APS_GEOMETRY
 10
-305.605949
 20
-480.132232
 40
8.333274
 50
334.876872
 51
0.0
  0
ARC
  8
APS_GEOMETRY
 10
-303.099602
 20
-481.307525
 40
5.565045
 50
304.007492
 51
334.876872
  0
ARC
  8
APS_GEOMETRY
 10
-303.140912
 20
-481.189978
 40
5.68568
 50
286.38954
 51
303.690068
  0
ARC
  8
APS_GEOMETRY
 10
-303.32282
 20
-480.57149
 40
6.330364
 50
270.0
 51
286.38954
  0
ARC
  8
APS_GEOMETRY
 10
-303.32282
 20
-480.645278
 40
6.256576
 50
255.154548
 51
270.0
  0
ARC
  8
APS_GEOMETRY
 10
-304.008226
 20
-483.231129
 40
3.58143
 50
235.491477
 51
255.154548
  0
ARC
  8
APS_GEOMETRY
 10
-303.664191
 20
-482.730714
 40
4.188699
 50
218.480198
 51
235.491477
  0
ARC
  8
APS_GEOMETRY
 10
-298.043318
 20
-478.26284
 40
11.368958
 50
208.17859
 51
218.480198
  0
ARC
  8
APS_GEOMETRY
 10
-355.667815
 20
-509.541993
 40
54.197767
 50
28.55962
 51
31.663799
  0
ARC
  8
APS_GEOMETRY
 10
-320.455624
 20
-487.825223
 40
12.827288
 50
31.663799
 51
38.047043
  0
ARC
  8
APS_GEOMETRY
 10
-317.895372
 20
-485.821548
 40
9.576196
 50
38.047043
 51
46.5602
  0
ARC
  8
APS_GEOMETRY
 10
-319.226159
 20
-487.226859
 40
11.511627
 50
46.5602
 51
54.323592
  0
ARC
  8
APS_GEOMETRY
 10
-319.994306
 20
-488.548267
 40
13.033852
 50
54.968356
 51
71.480419
  0
ARC
  8
APS_GEOMETRY
 10
-319.151309
 20
-486.031671
 40
10.379817
 50
71.480419
 51
90.0
  0
ARC
  8
APS_GEOMETRY
 10
-319.151309
 20
-482.902416
 40
7.250562
 50
90.0
 51
114.629635
  0
ARC
  8
APS_GEOMETRY
 10
-319.515408
 20
-482.108239
 40
6.3769
 50
114.629635
 51
140.920621
  0
ARC
  8
APS_GEOMETRY
 10
-318.439624
 20
-482.981863
 40
7.762732
 50
140.920621
 51
163.129646
  0
ARC
  8
APS_GEOMETRY
 10
-313.062201
 20
-484.61261
 40
13.381985
 50
163.129646
 51
180.0
  0
ARC
  8
APS_GEOMETRY
 10
-306.088728
 20
-484.61261
 40
20.355459
 50
180.0
 51
195.439646
  0
ARC
  8
APS_GEOMETRY
 10
-307.146802
 20
-484.90484
 40
19.25777
 50
195.439646
 51
211.31598
  0
ARC
  8
APS_GEOMETRY
 10
-312.236044
 20
-487.894173
 40
13.356544
 50
211.707816
 51
240.456928
  0
ARC
  8
APS_GEOMETRY
 10
-312.577907
 20
-488.497356
 40
12.663219
 50
240.456928
 51
270.0
  0
ARC
  8
APS_GEOMETRY
 10
-312.577907
 20
-485.409893
 40
15.750681
 50
270.0
 51
279.549134
  0
ARC
  8
APS_GEOMETRY
 10
-312.77372
 20
-484.245899
 40
16.931031
 50
279.549134
 51
288.75865
  0
ARC
  8
APS_GEOMETRY
 10
-311.948326
 20
-486.676225
 40
14.364369
 50
288.75865
 51
299.544635
  0
ARC
  8
APS_GEOMETRY
 10
-308.638677
 20
-492.515391
 40
7.652465
 50
299.544635
 51
314.341457
  0
ARC
  8
APS_GEOMETRY
 10
-298.403561
 20
-503.146368
 40
7.10519
 50
120.141386
 51
133.451842
  0
ARC
  8
APS_GEOMETRY
 10
-301.2625
 20
-498.222638
 40
1.411627
 50
90.0
 51
120.141386
  0
ARC
  8
APS_GEOMETRY
 10
-301.2625
 20
-499.04061
 40
2.229599
 50
61.951894
 51
90.0
  0
ARC
  8
APS_GEOMETRY
 10
-301.594554
 20
-499.663848
 40
2.935776
 50
37.568592
 51
61.951894
  0
ARC
  8
APS_GEOMETRY
 10
-302.213834
 20
-500.140218
 40
3.71708
 50
17.665186
 51
37.568592
  0
ARC
  8
APS_GEOMETRY
 10
-303.158598
 20
-500.441098
 40
4.708598
 50
0.0
 51
17.665186
  0
ARC
  8
APS_GEOMETRY
 10
-305.530581
 20
-500.441098
 40
7.08058
 50
344.931512
 51
0.0
  0
ARC
  8
APS_GEOMETRY
 10
-311.828608
 20
-498.745476
 40
13.602871
 50
334.075098
 51
344.931512
  0
ARC
  8
APS_GEOMETRY
 10
-312.026658
 20
-498.649201
 40
13.823082
 50
323.374259
 51
334.075098
  0
ARC
  8
APS_GEOMETRY
 10
-307.962894
 20
-501.670053
 40
8.759514
 50
309.920392
 51
323.374259
  0
ARC
  8
APS_GEOMETRY
 10
-303.901853
 20
-506.460817
 40
2.479565
 50
289.025606
 51
308.990994
  0
ARC
  8
APS_GEOMETRY
 10
-308.23481
 20
-493.895243
 40
15.771223
 50
281.14289
 51
289.025606
  0
ARC
  8
APS_GEOMETRY
 10
-303.840788
 20
-516.676722
 40
7.430522
 50
100.437475
 51
110.119633
  0
ARC
  8
APS_GEOMETRY
 10
-298.019649
 20
-532.566857
 40
24.353349
 50
110.119633
 51
115.463345
  0
ARC
  8
APS_GEOMETRY
 10
-318.800762
 20
-489.086265
 40
23.838158
 50
282.940436
 51
295.628419
  0
ARC
  8
APS_GEOMETRY
 10
-318.595349
 20
-489.980242
 40
22.920885
 50
270.0
 51
282.940436
  0
ARC
  8
APS_GEOMETRY
 10
-318.595349
 20
-488.62632
 40
24.274807
 50
257.307334
 51
270.0
  0
ARC
  8
APS_GEOMETRY
 10
-317.570619
 20
-484.076516
 40
28.938581
 50
245.686204
 51
257.307334
  0
ARC
  8
APS_GEOMETRY
 10
-320.14084
 20
-489.718012
 40
22.739224
 50
228.800778
 51
245.735234
  0
ARC
  8
APS_GEOMETRY
 10
-320.097777
 20
-489.66882
 40
22.804602
 50
211.890792
 51
228.800778
  0
ARC
  8
APS_GEOMETRY
 10
-318.750168
 20
-488.698815
 40
24.461509
 50
196.727964
 51
212.152295
  0
ARC
  8
APS_GEOMETRY
 10
-322.237955
 20
-489.747058
 40
20.819604
 50
180.0
 51
196.727964
  0
ARC
  8
APS_GEOMETRY
 10
-321.730615
 20
-489.747058
 40
21.326944
 50
161.183932
 51
180.0
  0
ARC
  8
APS_GEOMETRY
 10
-320.362292
 20
-490.213301
 40
22.77252
 50
142.980114
 51
161.183932
  0
ARC
  8
APS_GEOMETRY
 10
-319.298225
 20
-491.027618
 40
24.112395
 50
127.824257
 51
142.957525
  0
ARC
  8
APS_GEOMETRY
 10
-317.544246
 20
-493.286858
 40
26.972571
 50
113.520273
 51
127.824257
  0
ARC
  8
APS_GEOMETRY
 10
-318.115148
 20
-491.96756
 40
25.535051
 50
101.926773
 51
113.527064
  0
ARC
  8
APS_GEOMETRY
 10
-318.399128
 20
-490.623089
 40
24.160915
 50
90.0
 51
101.926773
  0
ARC
  8
APS_GEOMETRY
 10
-267.918024
 20
-492.243698
 40
25.781524
 50
71.909511
 51
90.0
  0
ARC
  8
APS_GEOMETRY
 10
-266.919524
 20
-489.187065
 40
22.565936
 50
52.561428
 51
71.909511
  0
ARC
  8
APS_GEOMETRY
 10
-267.181052
 20
-489.263128
 40
22.785888
 50
38.846006
 51
52.155542
  0
ARC
  8
APS_GEOMETRY
 10
-270.753185
 20
-492.139922
 40
27.372399
 50
26.707224
 51
38.846006
  0
ARC
  8
APS_GEOMETRY
 10
-270.046051
 20
-491.562011
 40
26.481717
 50
13.867603
 51
26.277857
  0
ARC
  8
APS_GEOMETRY
 10
-264.94633
 20
-490.303017
 40
21.228887
 50
0.0
 51
13.867603
  0
ARC
  8
APS_GEOMETRY
 10
-264.616123
 20
-490.303017
 40
20.898681
 50
339.712247
 51
0.0
  0
ARC
  8
APS_GEOMETRY
 10
-265.792626
 20
-489.868101
 40
22.152997
 50
320.013114
 51
339.712247
  0
ARC
  8
APS_GEOMETRY
 10
-265.987724
 20
-489.760553
 40
22.371633
 50
303.343757
 51
320.123166
  0
ARC
  8
APS_GEOMETRY
 10
-268.283454
 20
-486.27145
 40
26.548261
 50
287.949403
 51
303.343757
  0
ARC
  8
APS_GEOMETRY
 10
-269.037708
 20
-483.65634
 40
29.268668
 50
279.039483
 51
287.776406
  0
ARC
  8
APS_GEOMETRY
 10
-268.735611
 20
-485.555234
 40
27.345893
 50
270.0
 51
279.039483
  0
ARC
  8
APS_GEOMETRY
 10
-268.735611
 20
-486.890275
 40
26.010853
 50
257.72804
 51
270.0
  0
ARC
  8
APS_GEOMETRY
 10
-268.694683
 20
-486.70212
 40
26.203407
 50
245.501426
 51
257.72804
  0
ARC
  8
APS_GEOMETRY
 10
-270.167389
 20
-489.924895
 40
22.660086
 50
228.665185
 51
245.510859
  0
ARC
  8
APS_GEOMETRY
 10
-270.657186
 20
-490.481735
 40
21.918485
 50
211.534792
 51
228.665185
  0
ARC
  8
APS_GEOMETRY
 10
-270.015208
 20
-490.010294
 40
22.712325
 50
195.642246
 51
211.70143
  0
ARC
  8
APS_GEOMETRY
 10
-268.841482
 20
-489.681651
 40
23.931193
 50
180.0
 51
195.642246
  0
ARC
  8
APS_GEOMETRY
 10
-268.589916
 20
-489.681651
 40
24.182759
 50
162.181111
 51
180.0
  0
ARC
  8
APS_GEOMETRY
 10
-270.796409
 20
-488.972421
 40
21.865083
 50
143.433519
 51
162.181111
  0
ARC
  8
APS_GEOMETRY
 10
-271.093292
 20
-488.734639
 40
21.484982
 50
126.384352
 51
143.471145
  0
ARC
  8
APS_GEOMETRY
 10
-269.059161
 20
-491.495246
 40
24.91407
 50
110.525108
 51
126.384352
  0
ARC
  8
APS_GEOMETRY
 10
-269.159849
 20
-490.74563
 40
24.177325
 50
99.7697
 51
110.924502
  0
ARC
  8
APS_GEOMETRY
 10
-267.918024
 20
-497.957767
 40
31.495593
 50
90.0
 51
99.7697
  0
ARC
  8
APS_GEOMETRY
 10
-271.024855
 20
-480.655232
 40
4.807157
 50
90.0
 51
119.604451
  0
ARC
  8
APS_GEOMETRY
 10
-270.603812
 20
-481.396267
 40
5.659453
 50
119.604451
 51
146.842076
  0
ARC
  8
APS_GEOMETRY
 10
-269.757636
 20
-482.090033
 40
6.74833
 50
145.840305
 51
164.054604
  0
ARC
  8
APS_GEOMETRY
 10
-267.796351
 20
-482.650401
 40
8.788097
 50
164.054604
 51
180.0
  0
ARC
  8
APS_GEOMETRY
 10
-255.531895
 20
-482.650401
 40
21.052553
 50
180.0
 51
189.976729
  0
ARC
  8
APS_GEOMETRY
 10
-236.880298
 20
-479.369431
 40
39.990527
 50
189.976729
 51
197.211115
  0
ARC
  8
APS_GEOMETRY
 10
-232.800784
 20
-478.105743
 40
44.261281
 50
197.211115
 51
203.760424
  0
ARC
  8
APS_GEOMETRY
 10
-242.963484
 20
-482.579645
 40
33.157396
 50
203.760424
 51
211.328693
  0
ARC
  8
APS_GEOMETRY
 10
-263.831621
 20
-495.103391
 40
8.821499
 50
212.319617
 51
224.440823
  0
ARC
  8
APS_GEOMETRY
 10
-264.687041
 20
-495.942275
 40
7.623388
 50
224.440823
 51
237.483626
  0
ARC
  8
APS_GEOMETRY
 10
-265.239835
 20
-496.80944
 40
6.595013
 50
237.483626
 51
252.415923
  0
ARC
  8
APS_GEOMETRY
 10
-265.792297
 20
-498.552703
 40
4.766303
 50
252.415923
 51
270.0
  0
ARC
  8
APS_GEOMETRY
 10
-265.792297
 20
-497.987544
 40
5.331461
 50
270.0
 51
294.952847
  0
ARC
  8
APS_GEOMETRY
 10
-265.642924
 20
-498.308566
 40
4.977388
 50
294.952847
 51
320.792796
  0
ARC
  8
APS_GEOMETRY
 10
-266.443573
 20
-497.655405
 40
6.010664
 50
320.792796
 51
342.776564
  0
ARC
  8
APS_GEOMETRY
 10
-270.011385
 20
-496.549383
 40
9.745978
 50
342.776564
 51
0.0
  0
ARC
  8
APS_GEOMETRY
 10
-286.772505
 20
-496.549383
 40
26.507098
 50
0.0
 51
8.498559
  0
ARC
  8
APS_GEOMETRY
 10
-298.439833
 20
-498.292777
 40
38.30396
 50
8.498559
 51
15.566318
  0
ARC
  8
APS_GEOMETRY
 10
-297.03702
 20
-497.901993
 40
36.847733
 50
15.566318
 51
22.908635
  0
ARC
  8
APS_GEOMETRY
 10
-284.973317
 20
-492.803943
 40
23.751053
 50
22.908635
 51
32.057376
  0
ARC
  8
APS_GEOMETRY
 10
-275.497582
 20
-486.834361
 40
12.551777
 50
31.920876
 51
42.510447
  0
ARC
  8
APS_GEOMETRY
 10
-272.895538
 20
-484.449155
 40
9.021927
 50
42.510447
 51
55.00798
  0
ARC
  8
APS_GEOMETRY
 10
-272.016666
 20
-483.193622
 40
7.489354
 50
55.00798
 51
69.880367
  0
ARC
  8
APS_GEOMETRY
 10
-271.228549
 20
-481.042278
 40
5.198196
 50
69.880367
 51
87.754257
  0
ARC
  8
APS_GEOMETRY
 10
-217.404216
 20
-495.666104
 40
2.419773
 50
90.0
 51
115.836754
  0
ARC
  8
APS_GEOMETRY
 10
-217.999993
 20
-494.435694
 40
1.05271
 50
115.836754
 51
155.462272
  0
ARC
  8
APS_GEOMETRY
 10
-217.304712
 20
-494.753105
 40
1.817018
 50
155.462272
 51
168.366366
  0
ARC
  8
APS_GEOMETRY
 10
-210.958724
 20
-496.059632
 40
8.296105
 50
168.366366
 51
174.395461
  0
ARC
  8
APS_GEOMETRY
 10
-204.563089
 20
-496.687241
 40
14.722461
 50
174.395461
 51
177.813405
  0
ARC
  8
APS_GEOMETRY
 10
-183.334565
 20
-497.497784
 40
35.966453
 50
177.813405
 51
180.0
  0
ARC
  8
APS_GEOMETRY
 10
-167.966294
 20
-497.497784
 40
51.334724
 50
180.0
 51
184.619923
  0
ARC
  8
APS_GEOMETRY
 10
-202.386124
 20
-500.279185
 40
16.802697
 50
184.619923
 51
192.699584
  0
ARC
  8
APS_GEOMETRY
 10
-215.656266
 20
-503.192701
 40
3.217564
 50
194.036243
 51
205.820992
  0
ARC
  8
APS_GEOMETRY
 10
-217.061621
 20
-503.872711
 40
1.656336
 50
205.820992
 51
222.273689
  0
ARC
  8
APS_GEOMETRY
 10
-216.631094
 20
-503.481323
 40
2.238175
 50
222.273689
 51
234.605204
  0
ARC
  8
APS_GEOMETRY
 10
-211.770705
 20
-496.640775
 40
10.629629
 50
234.605204
 51
240.255119
  0
ARC
  8
APS_GEOMETRY
 10
-219.159423
 20
-509.715233
 40
4.388594
 50
34.592289
 51
61.189206
  0
ARC
  8
APS_GEOMETRY
 10
-217.709202
 20
-508.715081
 40
2.626934
 50
0.0
 51
34.592289
  0
ARC
  8
APS_GEOMETRY
 10
-217.621533
 20
-508.715081
 40
2.539265
 50
318.230949
 51
0.0
  0
ARC
  8
APS_GEOMETRY
 10
-219.319677
 20
-507.198415
 40
4.816098
 50
288.227257
 51
318.230949
  0
ARC
  8
APS_GEOMETRY
 10
-221.080778
 20
-501.850569
 40
10.446456
 50
280.377402
 51
288.227257
  0
ARC
  8
APS_GEOMETRY
 10
-224.150637
 20
-485.086991
 40
27.488803
 50
275.540609
 51
280.377402
  0
ARC
  8
APS_GEOMETRY
 10
-225.47355
 20
-471.449338
 40
41.19047
 50
272.304132
 51
275.540609
  0
ARC
  8
APS_GEOMETRY
 10
-227.084448
 20
-431.413475
 40
81.258728
 50
270.0
 51
272.304132
  0
ARC
  8
APS_GEOMETRY
 10
-227.084448
 20
-464.872208
 40
47.799995
 50
262.811463
 51
270.0
  0
ARC
  8
APS_GEOMETRY
 10
-231.373531
 20
-498.87851
 40
13.524277
 50
249.274441
 51
262.811463
  0
ARC
  8
APS_GEOMETRY
 10
-234.071474
 20
-506.008787
 40
5.900647
 50
221.378515
 51
249.274441
  0
ARC
  8
APS_GEOMETRY
 10
-236.438148
 20
-508.093715
 40
2.746591
 50
180.0
 51
221.378515
  0
ARC
  8
APS_GEOMETRY
 10
-236.456265
 20
-508.093715
 40
2.728474
 50
164.054604
 51
180.0
  0
ARC
  8
APS_GEOMETRY
 10
-237.593673
 20
-507.768741
 40
1.545552
 50
142.815294
 51
164.054604
  0
ARC
  8
APS_GEOMETRY
 10
-236.87784
 20
-508.311787
 40
2.444059
 50
129.007473
 51
142.815294
  0
ARC
  8
APS_GEOMETRY
 10
-228.08588
 20
-519.166058
 40
16.412372
 50
123.690068
 51
129.007473
  0
ARC
  8
APS_GEOMETRY
 10
-240.562362
 20
-500.393187
 40
6.128392
 50
303.388514
 51
319.02199
  0
ARC
  8
APS_GEOMETRY
 10
-238.903848
 20
-501.833795
 40
3.931572
 50
319.02199
 51
338.574706
  0
ARC
  8
APS_GEOMETRY
 10
-241.123343
 20
-500.962854
 40
6.315832
 50
338.574706
 51
351.048929
  0
ARC
  8
APS_GEOMETRY
 10
-267.92942
 20
-496.740651
 40
33.45239
 50
351.048929
 51
356.460441
  0
ARC
  8
APS_GEOMETRY
 10
-259.093399
 20
-497.076871
 40
24.613362
 50
355.971736
 51
358.680054
  0
ARC
  8
APS_GEOMETRY
 10
-549.284332
 20
-490.390444
 40
314.881317
 50
358.680054
 51
359.437191
  0
LINE
  8
APS_GEOMETRY
 10
-234.418205
 11
-234.387546
 20
-493.483431
 21
-488.571776
  0
LINE
  8
APS_GEOMETRY
 10
-234.387546
 11
-234.377326
 20
-488.571776
 21
-482.159848
  0
ARC
  8
APS_GEOMETRY
 10
-310.186566
 20
-482.159848
 40
75.80924
 50
0.0
 51
1.717132
  0
ARC
  8
APS_GEOMETRY
 10
-269.618054
 20
-480.943662
 40
35.222502
 50
1.717132
 51
4.236395
  0
ARC
  8
APS_GEOMETRY
 10
-256.388821
 20
-479.963718
 40
21.957024
 50
4.236395
 51
8.268833
  0
ARC
  8
APS_GEOMETRY
 10
-241.165149
 20
-477.751282
 40
6.573427
 50
8.268833
 51
15.642246
  0
ARC
  8
APS_GEOMETRY
 10
-238.545164
 20
-477.017686
 40
3.852677
 50
15.642246
 51
39.417394
  0
ARC
  8
APS_GEOMETRY
 10
-238.486248
 20
-476.969261
 40
3.776414
 50
39.417394
 51
63.434949
  0
ARC
  8
APS_GEOMETRY
 10
-231.684908
 20
-462.87968
 40
11.86934
 50
236.873849
 51
244.48613
  0
ARC
  8
APS_GEOMETRY
 10
-236.744379
 20
-470.633155
 40
2.611121
 50
220.601295
 51
236.873849
  0
ARC
  8
APS_GEOMETRY
 10
-237.324696
 20
-471.130569
 40
1.846799
 50
198.245855
 51
220.601295
  0
ARC
  8
APS_GEOMETRY
 10
-236.456774
 20
-470.844441
 40
2.760668
 50
180.0
 51
198.245855
  0
ARC
  8
APS_GEOMETRY
 10
-236.469858
 20
-470.844441
 40
2.747584
 50
156.16126
 51
180.0
  0
ARC
  8
APS_GEOMETRY
 10
-236.086646
 20
-471.013768
 40
3.166539
 50
133.97697
 51
156.16126
  0
ARC
  8
APS_GEOMETRY
 10
-235.323192
 20
-471.804984
 40
4.266032
 50
116.995838
 51
133.97697
  0
ARC
  8
APS_GEOMETRY
 10
-233.806351
 20
-474.782487
 40
7.607638
 50
104.300277
 51
116.995838
  0
ARC
  8
APS_GEOMETRY
 10
-233.414376
 20
-476.28847
 40
9.16378
 50
95.325741
 51
104.349332
  0
ARC
  8
APS_GEOMETRY
 10
-231.826454
 20
-493.322545
 40
26.271709
 50
90.0
 51
95.325741
  0
ARC
  8
APS_GEOMETRY
 10
-231.826454
 20
-480.063795
 40
13.012958
 50
87.552951
 51
90.0
  0
ARC
  8
APS_GEOMETRY
 10
-234.595154
 20
-544.851369
 40
77.859665
 50
86.552613
 51
87.552951
  0
ARC
  8
APS_GEOMETRY
 10
-238.531703
 20
-610.198088
 40
143.324848
 50
86.009087
 51
86.552613
  0
ARC
  8
APS_GEOMETRY
 10
-253.839605
 20
-829.611348
 40
363.271456
 50
85.667686
 51
86.009087
  0
ARC
  8
APS_GEOMETRY
 10
-225.191498
 20
-452.30066
 40
15.125382
 50
265.426079
 51
268.531199
  0
ARC
  8
APS_GEOMETRY
 10
-223.846803
 20
-399.857548
 40
67.58573
 50
268.531199
 51
270.0
  0
ARC
  8
APS_GEOMETRY
 10
-223.846803
 20
-415.932646
 40
51.510632
 50
270.0
 51
271.636577
  0
ARC
  8
APS_GEOMETRY
 10
-224.99779
 20
-375.648104
 40
91.811614
 50
271.636577
 51
272.862405
  0
ARC
  8
APS_GEOMETRY
 10
-226.319269
 20
-349.218526
 40
118.274209
 50
272.862405
 51
273.814075
  0
ARC
  8
APS_GEOMETRY
 10
-230.79286
 20
-282.114663
 40
185.527026
 50
273.814075
 51
274.573921
  0
ARC
  8
APS_GEOMETRY
 10
-202.730783
 20
-647.105457
 40
180.54275
 50
93.719877
 51
94.214179
  0
ARC
  8
APS_GEOMETRY
 10
-208.71988
 20
-554.987439
 40
88.230244
 50
93.012788
 51
93.719877
  0
ARC
  8
APS_GEOMETRY
 10
-210.361768
 20
-523.791568
 40
56.991196
 50
91.91828
 51
93.012788
  0
ARC
  8
APS_GEOMETRY
 10
-211.648402
 20
-485.376368
 40
18.554456
 50
90.0
 51
91.91828
  0
ARC
  8
APS_GEOMETRY
 10
-211.648402
 20
-490.930489
 40
24.108577
 50
73.820397
 51
90.0
  0
ARC
  8
APS_GEOMETRY
 10
-209.272268
 20
-482.740902
 40
15.581248
 50
53.657551
 51
73.820397
  0
ARC
  8
APS_GEOMETRY
 10
-205.892526
 20
-478.121412
 40
9.857439
 50
26.029592
 51
53.569142
  0
ARC
  8
APS_GEOMETRY
 10
-206.929563
 20
-478.627872
 40
11.011539
 50
0.0
 51
26.029592
  0
ARC
  8
APS_GEOMETRY
 10
-207.36104
 20
-478.627872
 40
11.443017
 50
345.281696
 51
0.0
  0
ARC
  8
APS_GEOMETRY
 10
-206.260279
 20
-478.917027
 40
10.30491
 50
329.767161
 51
345.281696
  0
ARC
  8
APS_GEOMETRY
 10
-205.636639
 20
-479.280472
 40
9.583094
 50
313.168137
 51
329.767161
  0
ARC
  8
APS_GEOMETRY
 10
-205.405705
 20
-479.526667
 40
9.24554
 50
296.266638
 51
313.168137
  0
ARC
  8
APS_GEOMETRY
 10
-200.142559
 20
-490.160631
 40
2.619643
 50
116.565051
 51
139.899092
  0
ARC
  8
APS_GEOMETRY
 10
-201.449222
 20
-489.060284
 40
0.911389
 50
139.899092
 51
180.0
  0
ARC
  8
APS_GEOMETRY
 10
-201.347909
 20
-489.060284
 40
1.012702
 50
180.0
 51
226.193489
  0
ARC
  8
APS_GEOMETRY
 10
-199.476977
 20
-487.109739
 40
3.715481
 50
226.193489
 51
249.829347
  0
ARC
  8
APS_GEOMETRY
 10
-204.838118
 20
-501.870972
 40
11.989195
 50
53.249344
 51
70.104569
  0
ARC
  8
APS_GEOMETRY
 10
-202.402843
 20
-498.60982
 40
7.9191
 50
32.471192
 51
53.249344
  0
ARC
  8
APS_GEOMETRY
 10
-203.537851
 20
-499.332098
 40
9.264437
 50
23.304891
 51
32.471192
  0
ARC
  8
APS_GEOMETRY
 10
-210.547951
 20
-502.351834
 40
16.89728
 50
16.520892
 51
23.304891
  0
ARC
  8
APS_GEOMETRY
 10
-216.013477
 20
-503.972964
 40
22.598161
 50
11.429216
 51
16.520892
  0
ARC
  8
APS_GEOMETRY
 10
-231.503341
 20
-507.104489
 40
38.401399
 50
7.52382
 51
11.429216
  0
ARC
  8
APS_GEOMETRY
 10
-180.175147
 20
-500.268444
 40
13.380105
 50
187.765166
 51
196.914179
  0
ARC
  8
APS_GEOMETRY
 10
-191.118379
 20
-503.59621
 40
1.942082
 50
196.914179
 51
221.081751
  0
ARC
  8
APS_GEOMETRY
 10
-191.076657
 20
-503.559837
 40
1.997434
 50
221.081751
 51
244.607077
  0
ARC
  8
APS_GEOMETRY
 10
-186.40327
 20
-493.714568
 40
12.895593
 50
244.607077
 51
253.810794
  0
ARC
  8
APS_GEOMETRY
 10
-190.51208
 20
-507.724529
 40
1.704862
 50
51.449535
 51
72.474432
  0
ARC
  8
APS_GEOMETRY
 10
-190.933926
 20
-508.253904
 40
2.381761
 50
33.690068
 51
51.449535
  0
ARC
  8
APS_GEOMETRY
 10
-191.03258
 20
-508.319674
 40
2.500329
 50
16.638806
 51
33.690068
  0
ARC
  8
APS_GEOMETRY
 10
-191.151934
 20
-508.355342
 40
2.624898
 50
0.0
 51
16.638806
  0
ARC
  8
APS_GEOMETRY
 10
-191.188559
 20
-508.355342
 40
2.661524
 50
338.993211
 51
0.0
  0
ARC
  8
APS_GEOMETRY
 10
-192.813696
 20
-507.73129
 40
4.40236
 50
322.696052
 51
338.993211
  0
ARC
  8
APS_GEOMETRY
 10
-193.419198
 20
-507.269955
 40
5.163585
 50
308.603415
 51
322.696052
  0
ARC
  8
APS_GEOMETRY
 10
-193.835905
 20
-506.748019
 40
5.831464
 50
295.346176
 51
308.603415
  0
ARC
  8
APS_GEOMETRY
 10
-196.027102
 20
-501.921837
 40
11.131419
 50
279.582945
 51
294.904769
  0
ARC
  8
APS_GEOMETRY
 10
-198.894041
 20
-484.940733
 40
28.352836
 50
270.0
 51
279.582945
  0
ARC
  8
APS_GEOMETRY
 10
-198.894041
 20
-492.621883
 40
20.671686
 50
261.247402
 51
270.0
  0
ARC
  8
APS_GEOMETRY
 10
-200.218172
 20
-501.222308
 40
11.969926
 50
249.737083
 51
261.247402
  0
ARC
  8
APS_GEOMETRY
 10
-201.088592
 20
-503.580046
 40
9.456649
 50
235.344857
 51
249.737083
  0
ARC
  8
APS_GEOMETRY
 10
-202.187744
 20
-505.170081
 40
7.523686
 50
219.198413
 51
235.344857
  0
ARC
  8
APS_GEOMETRY
 10
-199.874754
 20
-503.197821
 40
10.562859
 50
209.075569
 51
219.559668
  0
ARC
  8
APS_GEOMETRY
 10
-194.534014
 20
-500.228185
 40
16.673689
 50
200.735234
 51
209.075569
  0
ARC
  8
APS_GEOMETRY
 10
-187.164472
 20
-497.438287
 40
24.553643
 50
197.881035
 51
200.735234
  0
ARC
  8
APS_GEOMETRY
 10
-156.882971
 20
-487.668697
 40
56.3721
 50
195.997451
 51
197.881035
  0
ARC
  8
APS_GEOMETRY
 10
-134.501031
 20
-481.251856
 40
79.655722
 50
194.663974
 51
195.997451
  0
ARC
  8
APS_GEOMETRY
 10
-72.505796
 20
-465.029368
 40
143.738313
 50
193.671307
 51
194.663974
  0
ARC
  8
APS_GEOMETRY
 10
-229.716288
 20
-503.249792
 40
18.051498
 50
13.609732
 51
23.584501
  0
ARC
  8
APS_GEOMETRY
 10
-217.896858
 20
-498.089817
 40
5.154821
 50
23.584501
 51
42.31023
  0
ARC
  8
APS_GEOMETRY
 10
-216.824849
 20
-497.114014
 40
3.705202
 50
42.31023
 51
67.520566
  0
ARC
  8
APS_GEOMETRY
 10
-217.673211
 20
-499.164221
 40
5.924
 50
67.520566
 51
87.397438
  0
LINE
  8
APS_GEOMETRY
 10
-219.268314
 11
-219.628053
 20
-476.567552
 21
-484.187465
  0
LINE
  8
APS_GEOMETRY
 10
-219.628053
 11
-219.628053
 20
-484.187465
 21
-484.310103
  0
LINE
  8
APS_GEOMETRY
 10
-219.628053
 11
-219.628053
 20
-484.310103
 21
-484.481796
  0
ARC
  8
APS_GEOMETRY
 10
-214.33376
 20
-484.481796
 40
5.294293
 50
180.0
 51
192.339087
  0
ARC
  8
APS_GEOMETRY
 10
-218.542942
 20
-485.402554
 40
0.98558
 50
192.339087
 51
221.185925
  0
ARC
  8
APS_GEOMETRY
 10
-218.643318
 20
-485.490384
 40
0.852203
 50
221.185925
 51
253.872424
  0
ARC
  8
APS_GEOMETRY
 10
-217.927471
 20
-483.014747
 40
3.429258
 50
253.872424
 51
270.0
  0
ARC
  8
APS_GEOMETRY
 10
-217.927471
 20
-478.473408
 40
7.970597
 50
270.0
 51
289.56871
  0
ARC
  8
APS_GEOMETRY
 10
-216.478427
 20
-482.549841
 40
3.644278
 50
289.56871
 51
318.680622
  0
ARC
  8
APS_GEOMETRY
 10
-216.870379
 20
-482.205268
 40
4.166157
 50
318.680622
 51
344.628325
  0
ARC
  8
APS_GEOMETRY
 10
-224.173128
 20
-480.197639
 40
11.739843
 50
344.628325
 51
0.0
  0
ARC
  8
APS_GEOMETRY
 10
-220.701318
 20
-480.197639
 40
8.268032
 50
0.0
 51
35.36883
  0
ARC
  8
APS_GEOMETRY
 10
-216.913663
 20
-477.508993
 40
3.623127
 50
35.36883
 51
90.0
  0
ARC
  8
APS_GEOMETRY
 10
-216.913663
 20
-477.548801
 40
3.662935
 50
90.0
 51
108.434949
  0
ARC
  8
APS_GEOMETRY
 10
-217.626323
 20
-475.41082
 40
1.409306
 50
108.434949
 51
138.366461
  0
ARC
  8
APS_GEOMETRY
 10
-217.435045
 20
-475.580846
 40
1.665228
 50
138.366461
 51
164.291362
  0
ARC
  8
APS_GEOMETRY
 10
-212.950015
 20
-476.84226
 40
6.324268
 50
164.291362
 51
177.510447
  0
LINE
  8
APS_GEOMETRY
 10
-161.049564
 11
-144.763227
 20
-468.947639
 21
-483.20636
  0
ARC
  8
APS_GEOMETRY
 10
-129.53135
 20
-465.727157
 40
23.18475
 50
228.930176
 51
232.67448
  0
ARC
  8
APS_GEOMETRY
 10
-138.004756
 20
-476.83982
 40
9.210133
 50
232.67448
 51
238.616809
  0
ARC
  8
APS_GEOMETRY
 10
-140.136724
 20
-480.33485
 40
5.116172
 50
238.616809
 51
249.130652
  0
ARC
  8
APS_GEOMETRY
 10
-141.492878
 20
-483.891976
 40
1.309297
 50
249.130652
 51
270.0
  0
ARC
  8
APS_GEOMETRY
 10
-141.492878
 20
-484.053264
 40
1.148008
 50
270.0
 51
334.898391
  0
ARC
  8
APS_GEOMETRY
 10
-146.791162
 20
-481.571185
 40
6.998865
 50
334.898391
 51
0.0
  0
ARC
  8
APS_GEOMETRY
 10
-198.022288
 20
-481.571185
 40
58.229991
 50
0.0
 51
2.026128
  0
ARC
  8
APS_GEOMETRY
 10
-167.135313
 20
-480.478486
 40
27.323694
 50
2.026128
 51
4.984115
  0
ARC
  8
APS_GEOMETRY
 10
-157.036142
 20
-479.597744
 40
17.186191
 50
4.984115
 51
9.673355
  0
ARC
  8
APS_GEOMETRY
 10
-145.396719
 20
-477.613752
 40
5.378888
 50
9.673355
 51
18.060472
  0
ARC
  8
APS_GEOMETRY
 10
-143.624898
 20
-477.035984
 40
3.515245
 50
18.060472
 51
42.397438
  0
ARC
  8
APS_GEOMETRY
 10
-144.196854
 20
-477.558205
 40
4.289744
 50
42.397438
 51
64.397812
  0
ARC
  8
APS_GEOMETRY
 10
-138.973124
 20
-466.772184
 40
7.694704
 50
233.63342
 51
244.025606
  0
ARC
  8
APS_GEOMETRY
 10
-141.818282
 20
-470.635978
 40
2.896389
 50
216.656108
 51
233.63342
  0
ARC
  8
APS_GEOMETRY
 10
-142.254548
 20
-470.960641
 40
2.352574
 50
196.081652
 51
216.656108
  0
ARC
  8
APS_GEOMETRY
 10
-140.830517
 20
-470.55011
 40
3.8346
 50
180.0
 51
196.081652
  0
ARC
  8
APS_GEOMETRY
 10
-141.877147
 20
-470.55011
 40
2.78797
 50
133.202068
 51
180.0
  0
ARC
  8
APS_GEOMETRY
 10
-139.678525
 20
-472.891235
 40
5.999637
 50
101.788183
 51
133.202068
  0
ARC
  8
APS_GEOMETRY
 10
-139.165979
 20
-475.187845
 40
8.352584
 50
96.632515
 51
102.011478
  0
ARC
  8
APS_GEOMETRY
 10
-137.306792
 20
-491.176853
 40
24.449322
 50
93.489325
 51
96.632515
  0
ARC
  8
APS_GEOMETRY
 10
-136.51055
 20
-504.23523
 40
37.531952
 50
91.43929
 51
93.489325
  0
ARC
  8
APS_GEOMETRY
 10
-135.540844
 20
-542.829531
 40
76.138432
 50
90.0
 51
91.43929
  0
ARC
  8
APS_GEOMETRY
 10
-135.540844
 20
-537.655303
 40
70.964205
 50
87.994353
 51
90.0
  0
ARC
  8
APS_GEOMETRY
 10
-134.250702
 20
-500.814591
 40
34.100909
 50
85.100908
 51
87.994353
  0
ARC
  8
APS_GEOMETRY
 10
-133.203627
 20
-488.598715
 40
21.840241
 50
80.594688
 51
85.100908
  0
ARC
  8
APS_GEOMETRY
 10
-130.816036
 20
-474.184742
 40
7.229861
 50
72.758541
 51
80.594688
  0
ARC
  8
APS_GEOMETRY
 10
-130.09271
 20
-471.944157
 40
4.875639
 50
40.955514
 51
73.072487
  0
ARC
  8
APS_GEOMETRY
 10
-128.712605
 20
-470.746331
 40
3.048215
 50
0.0
 51
40.955514
  0
ARC
  8
APS_GEOMETRY
 10
-128.528917
 20
-470.746331
 40
2.864527
 50
322.572949
 51
0.0
  0
ARC
  8
APS_GEOMETRY
 10
-130.034211
 20
-469.59432
 40
4.760058
 50
293.749494
 51
322.572949
  0
ARC
  8
APS_GEOMETRY
 10
-123.990025
 20
-483.475412
 40
10.379904
 50
113.428693
 51
119.291362
  0
ARC
  8
APS_GEOMETRY
 10
-128.029223
 20
-476.275102
 40
2.124022
 50
119.291362
 51
132.273689
  0
ARC
  8
APS_GEOMETRY
 10
-128.262003
 20
-476.019044
 40
1.77797
 50
132.273689
 51
147.652557
  0
ARC
  8
APS_GEOMETRY
 10
-126.580045
 20
-477.084284
 40
3.768879
 50
147.652557
 51
158.198591
  0
ARC
  8
APS_GEOMETRY
 10
-124.02044
 20
-478.163207
 40
6.546314
 50
157.750976
 51
167.884758
  0
ARC
  8
APS_GEOMETRY
 10
-110.400488
 20
-481.086862
 40
20.476528
 50
167.884758
 51
173.609505
  0
ARC
  8
APS_GEOMETRY
 10
-98.353816
 20
-482.436089
 40
32.59852
 50
173.609505
 51
177.220833
  0
ARC
  8
APS_GEOMETRY
 10
-61.198181
 20
-484.23976
 40
69.797908
 50
177.220833
 51
179.688613
  0
LINE
  8
APS_GEOMETRY
 10
-130.995059
 11
-130.995059
 20
-483.86043
 21
-494.521767
  0
ARC
  8
APS_GEOMETRY
 10
304.370362
 20
-494.521767
 40
435.36542
 50
180.0
 51
180.161396
  0
ARC
  8
APS_GEOMETRY
 10
682.1894
 20
-493.457488
 40
813.185957
 50
180.161396
 51
180.279489
  0
LINE
  8
APS_GEOMETRY
 10
-130.986883
 11
-130.976663
 20
-497.424201
 21
-499.212673
  0
LINE
  8
APS_GEOMETRY
 10
-130.976663
 11
-130.962355
 20
-499.212673
 21
-501.225982
  0
ARC
  8
APS_GEOMETRY
 10
-208.646206
 20
-501.667367
 40
77.685105
 50
358.204186
 51
0.325541
  0
ARC
  8
APS_GEOMETRY
 10
-171.69189
 20
-502.826001
 40
40.71263
 50
355.273697
 51
358.204186
  0
ARC
  8
APS_GEOMETRY
 10
-158.829429
 20
-503.889433
 40
27.806283
 50
350.991496
 51
355.273697
  0
ARC
  8
APS_GEOMETRY
 10
-142.450782
 20
-506.486048
 40
11.223084
 50
344.248826
 51
350.991496
  0
ARC
  8
APS_GEOMETRY
 10
-136.914869
 20
-508.066946
 40
5.465928
 50
314.415369
 51
344.445429
  0
ARC
  8
APS_GEOMETRY
 10
-134.886774
 20
-510.136858
 40
2.568048
 50
270.0
 51
314.415369
  0
ARC
  8
APS_GEOMETRY
 10
-134.886774
 20
-508.544861
 40
4.160045
 50
256.342357
 51
270.0
  0
ARC
  8
APS_GEOMETRY
 10
-135.183124
 20
-509.764458
 40
2.904959
 50
239.981633
 51
256.342357
  0
ARC
  8
APS_GEOMETRY
 10
-133.888797
 20
-507.524276
 40
5.492178
 50
231.153104
 51
239.981633
  0
ARC
  8
APS_GEOMETRY
 10
-112.140132
 20
-480.519684
 40
40.16569
 50
227.89127
 51
231.153104
  0
LINE
  8
APS_GEOMETRY
 10
-139.07282
 11
-158.465989
 20
-510.317552
 21
-492.951999
  0
ARC
  8
APS_GEOMETRY
 10
-165.93718
 20
-501.223676
 40
11.14627
 50
47.910838
 51
61.467547
  0
ARC
  8
APS_GEOMETRY
 10
-161.834448
 20
-493.677579
 40
2.556975
 50
61.467547
 51
90.0
  0
ARC
  8
APS_GEOMETRY
 10
-161.834448
 20
-492.240821
 40
1.120217
 50
90.0
 51
133.194713
  0
ARC
  8
APS_GEOMETRY
 10
-160.730332
 20
-493.416802
 40
2.733289
 50
133.194713
 51
160.453632
  0
ARC
  8
APS_GEOMETRY
 10
-157.186314
 20
-494.675033
 40
6.494036
 50
160.453632
 51
173.250825
  0
ARC
  8
APS_GEOMETRY
 10
-140.519025
 20
-496.647494
 40
23.277632
 50
173.250825
 51
180.0
  0
ARC
  8
APS_GEOMETRY
 10
-95.178601
 20
-496.647494
 40
68.618057
 50
180.0
 51
181.896923
  0
ARC
  8
APS_GEOMETRY
 10
-131.521324
 20
-497.851152
 40
32.255407
 50
181.896923
 51
184.663802
  0
ARC
  8
APS_GEOMETRY
 10
-143.432891
 20
-498.822885
 40
20.304269
 50
184.663802
 51
189.048181
  0
ARC
  8
APS_GEOMETRY
 10
-157.233878
 20
-501.020645
 40
6.329385
 50
189.048181
 51
196.905158
  0
ARC
  8
APS_GEOMETRY
 10
-159.424691
 20
-501.686481
 40
4.039625
 50
196.905158
 51
220.253477
  0
ARC
  8
APS_GEOMETRY
 10
-159.38077
 20
-501.649294
 40
4.097174
 50
220.253477
 51
243.434949
  0
ARC
  8
APS_GEOMETRY
 10
-163.378377
 20
-509.710122
 40
4.900522
 50
37.921078
 51
63.778033
  0
ARC
  8
APS_GEOMETRY
 10
-161.345562
 20
-508.126418
 40
2.323614
 50
0.0
 51
37.921078
  0
ARC
  8
APS_GEOMETRY
 10
-162.249362
 20
-508.126418
 40
3.227414
 50
324.267836
 51
0.0
  0
ARC
  8
APS_GEOMETRY
 10
-163.456874
 20
-507.257705
 40
4.714945
 50
294.859862
 51
324.267836
  0
ARC
  8
APS_GEOMETRY
 10
-165.453772
 20
-502.947852
 40
9.464938
 50
278.779646
 51
294.859862
  0
ARC
  8
APS_GEOMETRY
 10
-168.832995
 20
-481.067995
 40
31.604208
 50
270.0
 51
278.779646
  0
ARC
  8
APS_GEOMETRY
 10
-168.832995
 20
-486.739457
 40
25.932746
 50
260.382525
 51
270.0
  0
ARC
  8
APS_GEOMETRY
 10
-171.566106
 20
-502.868664
 40
9.573614
 50
244.52173
 51
260.382525
  0
ARC
  8
APS_GEOMETRY
 10
-173.545474
 20
-507.022548
 40
4.972239
 50
216.549301
 51
244.52173
  0
ARC
  8
APS_GEOMETRY
 10
-175.166937
 20
-508.224528
 40
2.953848
 50
180.0
 51
216.549301
  0
ARC
  8
APS_GEOMETRY
 10
-174.114096
 20
-508.224528
 40
4.00669
 50
164.649864
 51
180.0
  0
ARC
  8
APS_GEOMETRY
 10
-176.399437
 20
-507.59718
 40
1.636806
 50
140.52754
 51
164.649864
  0
ARC
  8
APS_GEOMETRY
 10
-175.474683
 20
-508.358741
 40
2.834781
 50
126.135377
 51
140.52754
  0
ARC
  8
APS_GEOMETRY
 10
-165.820248
 20
-521.581121
 40
19.206691
 50
120.618605
 51
126.135377
  0
ARC
  8
APS_GEOMETRY
 10
-177.266395
 20
-502.25952
 40
3.250804
 50
300.784147
 51
330.068488
  0
ARC
  8
APS_GEOMETRY
 10
-179.431794
 20
-501.012775
 40
5.749468
 50
330.068488
 51
351.982907
  0
ARC
  8
APS_GEOMETRY
 10
-215.794474
 20
-496.272387
 40
42.419572
 50
352.492653
 51
355.364537
  0
ARC
  8
APS_GEOMETRY
 10
-259.657472
 20
-492.715928
 40
86.426514
 50
355.364537
 51
357.376422
  0
ARC
  8
APS_GEOMETRY
 10
-290.370143
 20
-491.308609
 40
117.171412
 50
357.376422
 51
358.860936
  0
ARC
  8
APS_GEOMETRY
 10
-372.196557
 20
-489.681651
 40
199.013999
 50
358.860936
 51
0.0
  0
ARC
  8
APS_GEOMETRY
 10
-298.606997
 20
-489.681651
 40
125.424438
 50
360.0
 51
1.926262
  0
ARC
  8
APS_GEOMETRY
 10
-240.220597
 20
-487.717982
 40
67.005026
 50
1.926262
 51
4.561808
  0
ARC
  8
APS_GEOMETRY
 10
-219.633142
 20
-486.075366
 40
46.352146
 50
4.561808
 51
8.365886
  0
ARC
  8
APS_GEOMETRY
 10
-192.857151
 20
-482.137721
 40
19.28817
 50
8.365886
 51
14.264512
  0
ARC
  8
APS_GEOMETRY
 10
-182.732153
 20
-479.577078
 40
8.844412
 50
14.349332
 51
23.629378
  0
ARC
  8
APS_GEOMETRY
 10
-177.597657
 20
-477.330736
 40
3.240029
 50
23.629378
 51
38.990994
  0
ARC
  8
APS_GEOMETRY
 10
-177.578527
 20
-477.31525
 40
3.215417
 50
38.990994
 51
54.462322
  0
ARC
  8
APS_GEOMETRY
 10
-180.582651
 20
-481.521024
 40
8.383907
 50
54.462322
 51
64.025606
  0
ARC
  8
APS_GEOMETRY
 10
-172.104749
 20
-464.153507
 40
10.942387
 50
235.472028
 51
243.946505
  0
ARC
  8
APS_GEOMETRY
 10
-176.484149
 20
-470.518913
 40
3.215969
 50
219.805571
 51
235.472028
  0
ARC
  8
APS_GEOMETRY
 10
-177.147135
 20
-471.071402
 40
2.352954
 50
198.939004
 51
219.805571
  0
ARC
  8
APS_GEOMETRY
 10
-176.676322
 20
-470.909848
 40
2.850713
 50
180.0
 51
198.939004
  0
ARC
  8
APS_GEOMETRY
 10
-176.815375
 20
-470.909848
 40
2.71166
 50
126.253838
 51
180.0
  0
ARC
  8
APS_GEOMETRY
 10
-172.676193
 20
-476.554188
 40
9.711046
 50
98.615648
 51
126.253838
  0
ARC
  8
APS_GEOMETRY
 10
-172.093111
 20
-481.217669
 40
14.409768
 50
94.455603
 51
98.130102
  0
ARC
  8
APS_GEOMETRY
 10
-169.844911
 20
-510.069563
 40
43.349122
 50
92.337306
 51
94.455603
  0
ARC
  8
APS_GEOMETRY
 10
-168.886604
 20
-533.548082
 40
66.847191
 50
90.962864
 51
92.337306
  0
ARC
  8
APS_GEOMETRY
 10
-167.721076
 20
-602.897016
 40
136.205917
 50
90.0
 51
90.962864
  0
ARC
  8
APS_GEOMETRY
 10
-167.721076
 20
-491.512846
 40
24.821748
 50
83.927544
 51
90.0
  0
ARC
  8
APS_GEOMETRY
 10
-165.685214
 20
-472.375741
 40
5.576657
 50
71.095424
 51
83.927544
  0
ARC
  8
APS_GEOMETRY
 10
-165.49928
 20
-471.832813
 40
5.002774
 50
56.848266
 51
71.095424
  0
ARC
  8
APS_GEOMETRY
 10
-171.001728
 20
-480.256916
 40
15.064704
 50
48.652223
 51
56.848266
  0
ARC
  8
APS_GEOMETRY
 10
-102.242152
 20
-507.298622
 40
40.607524
 50
84.709919
 51
90.0
  0
ARC
  8
APS_GEOMETRY
 10
-101.497719
 20
-499.258747
 40
32.533258
 50
78.799202
 51
84.709919
  0
ARC
  8
APS_GEOMETRY
 10
-96.681189
 20
-474.915788
 40
7.718372
 50
49.782532
 51
78.771108
  0
ARC
  8
APS_GEOMETRY
 10
-93.459736
 20
-471.106069
 40
2.729212
 50
0.0
 51
49.782532
  0
ARC
  8
APS_GEOMETRY
 10
-93.750146
 20
-471.106069
 40
3.019623
 50
342.758541
 51
0.0
  0
ARC
  8
APS_GEOMETRY
 10
-92.174927
 20
-471.59493
 40
1.37029
 50
317.045408
 51
342.758541
  0
ARC
  8
APS_GEOMETRY
 10
-92.935641
 20
-470.88668
 40
2.409666
 50
301.817035
 51
317.045408
  0
ARC
  8
APS_GEOMETRY
 10
-104.191727
 20
-452.744518
 40
23.760017
 50
296.980231
 51
301.817035
  0
ARC
  8
APS_GEOMETRY
 10
-92.190084
 20
-476.362822
 40
2.732757
 50
116.565051
 51
149.077974
  0
ARC
  8
APS_GEOMETRY
 10
-88.670946
 20
-478.47082
 40
6.83495
 50
149.077974
 51
169.469072
  0
ARC
  8
APS_GEOMETRY
 10
-81.166786
 20
-479.865824
 40
14.467672
 50
169.469072
 51
174.597877
  0
ARC
  8
APS_GEOMETRY
 10
-42.50256
 20
-483.522115
 40
53.304393
 50
174.597877
 51
177.269212
  0
ARC
  8
APS_GEOMETRY
 10
-8.505041
 20
-485.143707
 40
87.340563
 50
177.269212
 51
178.901208
  0
ARC
  8
APS_GEOMETRY
 10
96.801851
 20
-487.163482
 40
192.666822
 50
178.901208
 51
180.0
  0
ARC
  8
APS_GEOMETRY
 10
310.791621
 20
-487.163482
 40
406.656592
 50
180.0
 51
180.879979
  0
ARC
  8
APS_GEOMETRY
 10
60.271611
 20
-491.011405
 40
156.107032
 50
180.879979
 51
182.300285
  0
ARC
  8
APS_GEOMETRY
 10
-12.953821
 20
-493.952807
 40
82.822547
 50
182.300285
 51
184.973515
  0
ARC
  8
APS_GEOMETRY
 10
-82.7746
 20
-500.028813
 40
12.737891
 50
184.973515
 51
191.79343
  0
ARC
  8
APS_GEOMETRY
 10
-90.884735
 20
-501.580091
 40
4.484055
 50
193.570434
 51
205.787328
  0
ARC
  8
APS_GEOMETRY
 10
-92.901909
 20
-502.554681
 40
2.243783
 50
205.787328
 51
223.090848
  0
ARC
  8
APS_GEOMETRY
 10
-92.390312
 20
-502.076089
 40
2.944342
 50
223.090848
 51
236.441044
  0
ARC
  8
APS_GEOMETRY
 10
-88.10692
 20
-495.619037
 40
10.692952
 50
236.441044
 51
243.434949
  0
ARC
  8
APS_GEOMETRY
 10
-94.664623
 20
-509.089575
 40
4.291097
 50
37.184706
 51
65.556045
  0
ARC
  8
APS_GEOMETRY
 10
-93.265679
 20
-508.028308
 40
2.535155
 50
0.0
 51
37.184706
  0
ARC
  8
APS_GEOMETRY
 10
-93.342477
 20
-508.028308
 40
2.611953
 50
312.039064
 51
0.0
  0
ARC
  8
APS_GEOMETRY
 10
-96.45338
 20
-504.578034
 40
7.257608
 50
283.815025
 51
312.039064
  0
ARC
  8
APS_GEOMETRY
 10
-101.593821
 20
-483.27262
 40
29.174325
 50
279.272602
 51
283.626995
  0
ARC
  8
APS_GEOMETRY
 10
-103.648598
 20
-470.687111
 40
41.926468
 50
275.640549
 51
279.272602
  0
ARC
  8
APS_GEOMETRY
 10
-104.434157
 20
-462.733327
 40
49.918951
 50
272.587879
 51
275.640549
  0
ARC
  8
APS_GEOMETRY
 10
-105.31628
 20
-443.216365
 40
69.455838
 50
270.0
 51
272.587879
  0
ARC
  8
APS_GEOMETRY
 10
-105.31628
 20
-470.778214
 40
41.893989
 50
262.77406
 51
270.0
  0
ARC
  8
APS_GEOMETRY
 10
-109.093036
 20
-500.565861
 40
11.867871
 50
249.174782
 51
262.77406
  0
ARC
  8
APS_GEOMETRY
 10
-111.465738
 20
-506.803771
 40
5.193948
 50
221.229513
 51
249.174782
  0
ARC
  8
APS_GEOMETRY
 10
-113.534788
 20
-508.61697
 40
2.442829
 50
180.0
 51
221.229513
  0
ARC
  8
APS_GEOMETRY
 10
-113.93632
 20
-508.61697
 40
2.041296
 50
142.696052
 51
180.0
  0
ARC
  8
APS_GEOMETRY
 10
-110.714945
 20
-511.071351
 40
6.091141
 50
121.357085
 51
142.696052
  0
ARC
  8
APS_GEOMETRY
 10
-116.158228
 20
-502.156275
 40
4.354338
 50
301.476839
 51
324.727579
  0
ARC
  8
APS_GEOMETRY
 10
-115.577758
 20
-502.566851
 40
3.64334
 50
324.727579
 51
350.180699
  0
ARC
  8
APS_GEOMETRY
 10
-133.81856
 20
-499.54973
 40
22.131897
 50
350.537678
 51
355.42288
  0
ARC
  8
APS_GEOMETRY
 10
-208.770722
 20
-493.549346
 40
97.323859
 50
355.42288
 51
357.75194
  0
ARC
  8
APS_GEOMETRY
 10
-278.364222
 20
-490.81737
 40
166.970963
 50
357.75194
 51
359.110676
  0
ARC
  8
APS_GEOMETRY
 10
-501.110764
 20
-487.359703
 40
389.744339
 50
359.110676
 51
0.0
  0
ARC
  8
APS_GEOMETRY
 10
-246.589902
 20
-487.359703
 40
135.223477
 50
0.0
 51
1.772875
  0
ARC
  8
APS_GEOMETRY
 10
-167.22989
 20
-484.903322
 40
55.825459
 50
1.772875
 51
4.532262
  0
ARC
  8
APS_GEOMETRY
 10
-143.108956
 20
-482.991296
 40
31.628862
 50
4.532262
 51
9.383565
  0
ARC
  8
APS_GEOMETRY
 10
-118.615592
 20
-478.943664
 40
6.803307
 50
9.383565
 51
19.855214
  0
ARC
  8
APS_GEOMETRY
 10
-115.373843
 20
-477.711002
 40
3.33611
 50
18.853159
 51
42.157862
  0
ARC
  8
APS_GEOMETRY
 10
-118.152181
 20
-480.226525
 40
7.084045
 50
42.157862
 51
58.091893
  0
ARC
  8
APS_GEOMETRY
 10
-105.923587
 20
-461.329391
 40
15.426197
 50
230.710593
 51
236.633634
  0
ARC
  8
APS_GEOMETRY
 10
-113.605085
 20
-470.717889
 40
3.295684
 50
217.874984
 51
230.710593
  0
ARC
  8
APS_GEOMETRY
 10
-114.658196
 20
-471.536975
 40
1.961539
 50
196.927513
 51
217.874984
  0
ARC
  8
APS_GEOMETRY
 10
-113.672179
 20
-471.236883
 40
2.992211
 50
180.0
 51
196.927513
  0
ARC
  8
APS_GEOMETRY
 10
-114.3171
 20
-471.236883
 40
2.34729
 50
148.790867
 51
180.0
  0
ARC
  8
APS_GEOMETRY
 10
-113.701546
 20
-471.60981
 40
3.067
 50
121.568971
 51
148.790867
  0
ARC
  8
APS_GEOMETRY
 10
-112.596388
 20
-473.4084
 40
5.177994
 50
112.805746
 51
121.568971
  0
ARC
  8
APS_GEOMETRY
 10
-109.609074
 20
-480.512944
 40
12.885042
 50
107.25376
 51
112.805746
  0
ARC
  8
APS_GEOMETRY
 10
-107.779351
 20
-486.404251
 40
19.053947
 50
103.486615
 51
107.25376
  0
ARC
  8
APS_GEOMETRY
 10
-103.588852
 20
-503.876916
 40
37.022094
 50
100.784298
 51
103.486615
  0
ARC
  8
APS_GEOMETRY
 10
-102.276305
 20
-508.707832
 40
42.015051
 50
95.643318
 51
101.309932
  0
ARC
  8
APS_GEOMETRY
 10
-102.242152
 20
-509.053462
 40
42.362364
 50
90.0
 51
95.643318
  0
ARC
  8
APS_GEOMETRY
 10
-61.572094
 20
-487.726001
 40
21.263827
 50
77.257003
 51
90.0
  0
ARC
  8
APS_GEOMETRY
 10
-61.788151
 20
-488.681379
 40
22.243331
 50
64.798876
 51
77.257003
  0
ARC
  8
APS_GEOMETRY
 10
-43.470572
 20
-449.682803
 40
20.842904
 50
244.885165
 51
251.17529
  0
ARC
  8
APS_GEOMETRY
 10
-49.439099
 20
-467.190484
 40
2.345817
 50
251.17529
 51
270.0
  0
ARC
  8
APS_GEOMETRY
 10
-49.439099
 20
-465.729915
 40
3.806387
 50
270.0
 51
278.82038
  0
ARC
  8
APS_GEOMETRY
 10
-51.898188
 20
-449.882455
 40
19.843503
 50
278.82038
 51
282.680383
  0
ARC
  8
APS_GEOMETRY
 10
-46.752818
 20
-472.663048
 40
3.51099
 50
95.906141
 51
102.994617
  0
ARC
  8
APS_GEOMETRY
 10
-46.593896
 20
-474.199291
 40
5.055431
 50
90.0
 51
95.906141
  0
ARC
  8
APS_GEOMETRY
 10
-46.593896
 20
-472.499374
 40
3.355514
 50
62.447188
 51
90.0
  0
ARC
  8
APS_GEOMETRY
 10
-47.190581
 20
-473.643019
 40
4.645459
 50
39.093859
 51
62.447188
  0
ARC
  8
APS_GEOMETRY
 10
-53.424721
 20
-478.8567
 40
12.772091
 50
18.434949
 51
39.610688
  0
ARC
  8
APS_GEOMETRY
 10
-57.251317
 20
-480.132232
 40
16.805677
 50
0.0
 51
18.434949
  0
ARC
  8
APS_GEOMETRY
 10
-48.778914
 20
-480.132232
 40
8.333274
 50
334.876872
 51
0.0
  0
ARC
  8
APS_GEOMETRY
 10
-46.272567
 20
-481.307525
 40
5.565045
 50
304.007492
 51
334.876872
  0
ARC
  8
APS_GEOMETRY
 10
-46.313877
 20
-481.189978
 40
5.68568
 50
286.38954
 51
303.690068
  0
ARC
  8
APS_GEOMETRY
 10
-46.495785
 20
-480.57149
 40
6.330364
 50
270.0
 51
286.38954
  0
ARC
  8
APS_GEOMETRY
 10
-46.495785
 20
-480.645278
 40
6.256576
 50
255.154548
 51
270.0
  0
ARC
  8
APS_GEOMETRY
 10
-47.181191
 20
-483.231129
 40
3.58143
 50
235.491477
 51
255.154548
  0
ARC
  8
APS_GEOMETRY
 10
-46.837156
 20
-482.730714
 40
4.188699
 50
218.480198
 51
235.491477
  0
ARC
  8
APS_GEOMETRY
 10
-41.216283
 20
-478.26284
 40
11.368958
 50
208.17859
 51
218.480198
  0
ARC
  8
APS_GEOMETRY
 10
-98.84078
 20
-509.541993
 40
54.197767
 50
28.55962
 51
31.663799
  0
ARC
  8
APS_GEOMETRY
 10
-63.628589
 20
-487.825223
 40
12.827288
 50
31.663799
 51
38.047043
  0
ARC
  8
APS_GEOMETRY
 10
-61.068338
 20
-485.821548
 40
9.576196
 50
38.047043
 51
46.5602
  0
ARC
  8
APS_GEOMETRY
 10
-62.399124
 20
-487.226859
 40
11.511627
 50
46.5602
 51
54.323592
  0
ARC
  8
APS_GEOMETRY
 10
-63.167271
 20
-488.548267
 40
13.033852
 50
54.968356
 51
71.480419
  0
ARC
  8
APS_GEOMETRY
 10
-62.324274
 20
-486.031671
 40
10.379817
 50
71.480419
 51
90.0
  0
ARC
  8
APS_GEOMETRY
 10
-62.324274
 20
-482.902416
 40
7.250562
 50
90.0
 51
114.629635
  0
ARC
  8
APS_GEOMETRY
 10
-62.688373
 20
-482.108239
 40
6.3769
 50
114.629635
 51
140.920621
  0
ARC
  8
APS_GEOMETRY
 10
-61.612589
 20
-482.981863
 40
7.762732
 50
140.920621
 51
163.129646
  0
ARC
  8
APS_GEOMETRY
 10
-56.235167
 20
-484.61261
 40
13.381985
 50
163.129646
 51
180.0
  0
ARC
  8
APS_GEOMETRY
 10
-49.261693
 20
-484.61261
 40
20.355459
 50
180.0
 51
195.439646
  0
ARC
  8
APS_GEOMETRY
 10
-50.319767
 20
-484.90484
 40
19.25777
 50
195.439646
 51
211.31598
  0
ARC
  8
APS_GEOMETRY
 10
-55.40901
 20
-487.894173
 40
13.356544
 50
211.707816
 51
240.456928
  0
ARC
  8
APS_GEOMETRY
 10
-55.750873
 20
-488.497356
 40
12.663219
 50
240.456928
 51
270.0
  0
ARC
  8
APS_GEOMETRY
 10
-55.750873
 20
-485.409893
 40
15.750681
 50
270.0
 51
279.549134
  0
ARC
  8
APS_GEOMETRY
 10
-55.946685
 20
-484.245899
 40
16.931031
 50
279.549134
 51
288.75865
  0
ARC
  8
APS_GEOMETRY
 10
-55.121291
 20
-486.676225
 40
14.364369
 50
288.75865
 51
299.544635
  0
ARC
  8
APS_GEOMETRY
 10
-51.811642
 20
-492.515391
 40
7.652465
 50
299.544635
 51
314.341457
  0
ARC
  8
APS_GEOMETRY
 10
-41.576526
 20
-503.146368
 40
7.10519
 50
120.141386
 51
133.451842
  0
ARC
  8
APS_GEOMETRY
 10
-44.435466
 20
-498.222638
 40
1.411627
 50
90.0
 51
120.141386
  0
ARC
  8
APS_GEOMETRY
 10
-44.435466
 20
-499.04061
 40
2.229599
 50
61.951894
 51
90.0
  0
ARC
  8
APS_GEOMETRY
 10
-44.767519
 20
-499.663848
 40
2.935776
 50
37.568592
 51
61.951894
  0
ARC
  8
APS_GEOMETRY
 10
-45.3868
 20
-500.140218
 40
3.71708
 50
17.665186
 51
37.568592
  0
ARC
  8
APS_GEOMETRY
 10
-46.331563
 20
-500.441098
 40
4.708598
 50
0.0
 51
17.665186
  0
ARC
  8
APS_GEOMETRY
 10
-48.703546
 20
-500.441098
 40
7.08058
 50
344.931512
 51
0.0
  0
ARC
  8
APS_GEOMETRY
 10
-55.001573
 20
-498.745476
 40
13.602871
 50
334.075098
 51
344.931512
  0
ARC
  8
APS_GEOMETRY
 10
-55.199623
 20
-498.649201
 40
13.823082
 50
323.374259
 51
334.075098
  0
ARC
  8
APS_GEOMETRY
 10
-51.135859
 20
-501.670053
 40
8.759514
 50
309.920392
 51
323.374259
  0
ARC
  8
APS_GEOMETRY
 10
-47.074819
 20
-506.460817
 40
2.479565
 50
289.025606
 51
308.990994
  0
ARC
  8
APS_GEOMETRY
 10
-51.407775
 20
-493.895243
 40
15.771223
 50
281.14289
 51
289.025606
  0
ARC
  8
APS_GEOMETRY
 10
-47.013753
 20
-516.676722
 40
7.430522
 50
100.437475
 51
110.119633
  0
ARC
  8
APS_GEOMETRY
 10
-41.192614
 20
-532.566857
 40
24.353349
 50
110.119633
 51
115.463345
  0
ARC
  8
APS_GEOMETRY
 10
-61.973727
 20
-489.086265
 40
23.838158
 50
282.940436
 51
295.628419
  0
ARC
  8
APS_GEOMETRY
 10
-61.768314
 20
-489.980242
 40
22.920885
 50
270.0
 51
282.940436
  0
ARC
  8
APS_GEOMETRY
 10
-61.768314
 20
-488.62632
 40
24.274807
 50
257.307334
 51
270.0
  0
ARC
  8
APS_GEOMETRY
 10
-60.743584
 20
-484.076516
 40
28.938581
 50
245.686204
 51
257.307334
  0
ARC
  8
APS_GEOMETRY
 10
-63.313805
 20
-489.718012
 40
22.739224
 50
228.800778
 51
245.735234
  0
ARC
  8
APS_GEOMETRY
 10
-63.270742
 20
-489.66882
 40
22.804602
 50
211.890792
 51
228.800778
  0
ARC
  8
APS_GEOMETRY
 10
-61.923133
 20
-488.698815
 40
24.461509
 50
196.727964
 51
212.152295
  0
ARC
  8
APS_GEOMETRY
 10
-65.41092
 20
-489.747058
 40
20.819604
 50
180.0
 51
196.727964
  0
ARC
  8
APS_GEOMETRY
 10
-64.90358
 20
-489.747058
 40
21.326944
 50
161.183932
 51
180.0
  0
ARC
  8
APS_GEOMETRY
 10
-63.535257
 20
-490.213301
 40
22.77252
 50
142.980114
 51
161.183932
  0
ARC
  8
APS_GEOMETRY
 10
-62.47119
 20
-491.027618
 40
24.112395
 50
127.824257
 51
142.957525
  0
ARC
  8
APS_GEOMETRY
 10
-60.717212
 20
-493.286858
 40
26.972571
 50
113.520273
 51
127.824257
  0
ARC
  8
APS_GEOMETRY
 10
-61.288113
 20
-491.96756
 40
25.535051
 50
101.926773
 51
113.527064
  0
ARC
  8
APS_GEOMETRY
 10
-61.572094
 20
-490.623089
 40
24.160915
 50
90.0
 51
101.926773
  0
ARC
  8
APS_GEOMETRY
 10
-17.023402
 20
-507.298622
 40
40.607524
 50
84.709919
 51
90.0
  0
ARC
  8
APS_GEOMETRY
 10
-16.278969
 20
-499.258747
 40
32.533258
 50
78.799202
 51
84.709919
  0
ARC
  8
APS_GEOMETRY
 10
-11.462439
 20
-474.915788
 40
7.718372
 50
49.782532
 51
78.771108
  0
ARC
  8
APS_GEOMETRY
 10
-8.240986
 20
-471.106069
 40
2.729212
 50
0.0
 51
49.782532
  0
ARC
  8
APS_GEOMETRY
 10
-8.531396
 20
-471.106069
 40
3.019623
 50
342.758541
 51
0.0
  0
ARC
  8
APS_GEOMETRY
 10
-6.956177
 20
-471.59493
 40
1.37029
 50
317.045408
 51
342.758541
  0
ARC
  8
APS_GEOMETRY
 10
-7.716891
 20
-470.88668
 40
2.409666
 50
301.817035
 51
317.045408
  0
ARC
  8
APS_GEOMETRY
 10
-18.972977
 20
-452.744518
 40
23.760017
 50
296.980231
 51
301.817035
  0
ARC
  8
APS_GEOMETRY
 10
-6.971334
 20
-476.362822
 40
2.732757
 50
116.565051
 51
149.077974
  0
ARC
  8
APS_GEOMETRY
 10
-3.452196
 20
-478.47082
 40
6.83495
 50
149.077974
 51
169.469072
  0
ARC
  8
APS_GEOMETRY
 10
4.051964
 20
-479.865824
 40
14.467672
 50
169.469072
 51
174.597877
  0
ARC
  8
APS_GEOMETRY
 10
42.71619
 20
-483.522115
 40
53.304393
 50
174.597877
 51
177.269212
  0
ARC
  8
APS_GEOMETRY
 10
76.713709
 20
-485.143707
 40
87.340563
 50
177.269212
 51
178.901208
  0
ARC
  8
APS_GEOMETRY
 10
182.020601
 20
-487.163482
 40
192.666822
 50
178.901208
 51
180.0
  0
ARC
  8
APS_GEOMETRY
 10
396.010371
 20
-487.163482
 40
406.656592
 50
180.0
 51
180.879979
  0
ARC
  8
APS_GEOMETRY
 10
145.490361
 20
-491.011405
 40
156.107032
 50
180.879979
 51
182.300285
  0
ARC
  8
APS_GEOMETRY
 10
72.264929
 20
-493.952807
 40
82.822547
 50
182.300285
 51
184.973515
  0
ARC
  8
APS_GEOMETRY
 10
2.44415
 20
-500.028813
 40
12.737891
 50
184.973515
 51
191.79343
  0
ARC
  8
APS_GEOMETRY
 10
-5.665985
 20
-501.580091
 40
4.484055
 50
193.570434
 51
205.787328
  0
ARC
  8
APS_GEOMETRY
 10
-7.683159
 20
-502.554681
 40
2.243783
 50
205.787328
 51
223.090848
  0
ARC
  8
APS_GEOMETRY
 10
-7.171562
 20
-502.076089
 40
2.944342
 50
223.090848
 51
236.441044
  0
ARC
  8
APS_GEOMETRY
 10
-2.88817
 20
-495.619037
 40
10.692952
 50
236.441044
 51
243.434949
  0
ARC
  8
APS_GEOMETRY
 10
-9.445873
 20
-509.089575
 40
4.291097
 50
37.184706
 51
65.556045
  0
ARC
  8
APS_GEOMETRY
 10
-8.046929
 20
-508.028308
 40
2.535155
 50
0.0
 51
37.184706
  0
ARC
  8
APS_GEOMETRY
 10
-8.123727
 20
-508.028308
 40
2.611953
 50
312.039064
 51
0.0
  0
ARC
  8
APS_GEOMETRY
 10
-11.23463
 20
-504.578034
 40
7.257608
 50
283.815025
 51
312.039064
  0
ARC
  8
APS_GEOMETRY
 10
-16.375071
 20
-483.27262
 40
29.174325
 50
279.272602
 51
283.626995
  0
ARC
  8
APS_GEOMETRY
 10
-18.429848
 20
-470.687111
 40
41.926468
 50
275.640549
 51
279.272602
  0
ARC
  8
APS_GEOMETRY
 10
-19.215407
 20
-462.733327
 40
49.918951
 50
272.587879
 51
275.640549
  0
ARC
  8
APS_GEOMETRY
 10
-20.09753
 20
-443.216365
 40
69.455838
 50
270.0
 51
272.587879
  0
ARC
  8
APS_GEOMETRY
 10
-20.09753
 20
-470.778214
 40
41.893989
 50
262.77406
 51
270.0
  0
ARC
  8
APS_GEOMETRY
 10
-23.874286
 20
-500.565861
 40
11.867871
 50
249.174782
 51
262.77406
  0
ARC
  8
APS_GEOMETRY
 10
-26.246988
 20
-506.803771
 40
5.193948
 50
221.229513
 51
249.174782
  0
ARC
  8
APS_GEOMETRY
 10
-28.316038
 20
-508.61697
 40
2.442829
 50
180.0
 51
221.229513
  0
ARC
  8
APS_GEOMETRY
 10
-28.71757
 20
-508.61697
 40
2.041296
 50
142.696052
 51
180.0
  0
ARC
  8
APS_GEOMETRY
 10
-25.496195
 20
-511.071351
 40
6.091141
 50
121.357085
 51
142.696052
  0
ARC
  8
APS_GEOMETRY
 10
-30.939478
 20
-502.156275
 40
4.354338
 50
301.476839
 51
324.727579
  0
ARC
  8
APS_GEOMETRY
 10
-30.359008
 20
-502.566851
 40
3.64334
 50
324.727579
 51
350.180699
  0
ARC
  8
APS_GEOMETRY
 10
-48.59981
 20
-499.54973
 40
22.131897
 50
350.537678
 51
355.42288
  0
ARC
  8
APS_GEOMETRY
 10
-123.551972
 20
-493.549346
 40
97.323859
 50
355.42288
 51
357.75194
  0
ARC
  8
APS_GEOMETRY
 10
-193.145472
 20
-490.81737
 40
166.970963
 50
357.75194
 51
359.110676
  0
ARC
  8
APS_GEOMETRY
 10
-415.892014
 20
-487.359703
 40
389.744339
 50
359.110676
 51
0.0
  0
ARC
  8
APS_GEOMETRY
 10
-161.371152
 20
-487.359703
 40
135.223477
 50
0.0
 51
1.772875
  0
ARC
  8
APS_GEOMETRY
 10
-82.01114
 20
-484.903322
 40
55.825459
 50
1.772875
 51
4.532262
  0
ARC
  8
APS_GEOMETRY
 10
-57.890206
 20
-482.991296
 40
31.628862
 50
4.532262
 51
9.383565
  0
ARC
  8
APS_GEOMETRY
 10
-33.396842
 20
-478.943664
 40
6.803307
 50
9.383565
 51
19.855214
  0
ARC
  8
APS_GEOMETRY
 10
-30.155093
 20
-477.711002
 40
3.33611
 50
18.853159
 51
42.157862
  0
ARC
  8
APS_GEOMETRY
 10
-32.933431
 20
-480.226525
 40
7.084045
 50
42.157862
 51
58.091893
  0
ARC
  8
APS_GEOMETRY
 10
-20.704837
 20
-461.329391
 40
15.426197
 50
230.710593
 51
236.633634
  0
ARC
  8
APS_GEOMETRY
 10
-28.386335
 20
-470.717889
 40
3.295684
 50
217.874984
 51
230.710593
  0
ARC
  8
APS_GEOMETRY
 10
-29.439446
 20
-471.536975
 40
1.961539
 50
196.927513
 51
217.874984
  0
ARC
  8
APS_GEOMETRY
 10
-28.453429
 20
-471.236883
 40
2.992211
 50
180.0
 51
196.927513
  0
ARC
  8
APS_GEOMETRY
 10
-29.09835
 20
-471.236883
 40
2.34729
 50
148.790867
 51
180.0
  0
ARC
  8
APS_GEOMETRY
 10
-28.482796
 20
-471.60981
 40
3.067
 50
121.568971
 51
148.790867
  0
ARC
  8
APS_GEOMETRY
 10
-27.377638
 20
-473.4084
 40
5.177994
 50
112.805746
 51
121.568971
  0
ARC
  8
APS_GEOMETRY
 10
-24.390324
 20
-480.512944
 40
12.885042
 50
107.25376
 51
112.805746
  0
ARC
  8
APS_GEOMETRY
 10
-22.560601
 20
-486.404251
 40
19.053947
 50
103.486615
 51
107.25376
  0
ARC
  8
APS_GEOMETRY
 10
-18.370102
 20
-503.876916
 40
37.022094
 50
100.784298
 51
103.486615
  0
ARC
  8
APS_GEOMETRY
 10
-17.057555
 20
-508.707832
 40
42.015051
 50
95.643318
 51
101.309932
  0
ARC
  8
APS_GEOMETRY
 10
-17.023402
 20
-509.053462
 40
42.362364
 50
90.0
 51
95.643318
  0
LINE
  8
APS_GEOMETRY
 10
52.124854
 11
52.124854
 20
-496.61479
 21
-479.412755
  0
ARC
  8
APS_GEOMETRY
 10
12.403543
 20
-479.412755
 40
39.721311
 50
0.0
 51
2.403809
  0
ARC
  8
APS_GEOMETRY
 10
35.920697
 20
-478.425528
 40
16.183445
 50
2.403809
 51
6.170175
  0
ARC
  8
APS_GEOMETRY
 10
42.969852
 20
-477.663458
 40
9.093217
 50
6.170175
 51
12.824398
  0
ARC
  8
APS_GEOMETRY
 10
49.869291
 20
-476.092854
 40
2.017268
 50
12.824398
 51
26.980231
  0
ARC
  8
APS_GEOMETRY
 10
50.191975
 20
-475.928578
 40
1.655174
 50
26.980231
 51
59.649904
  0
ARC
  8
APS_GEOMETRY
 10
47.153937
 20
-481.117138
 40
7.667731
 50
59.649904
 51
74.666715
  0
ARC
  8
APS_GEOMETRY
 10
50.656092
 20
-468.618129
 40
5.312942
 50
225.0
 51
253.886582
  0
ARC
  8
APS_GEOMETRY
 10
48.495187
 20
-470.779034
 40
2.256961
 50
180.0
 51
225.0
  0
ARC
  8
APS_GEOMETRY
 10
48.910178
 20
-470.779034
 40
2.671952
 50
151.15734
 51
180.0
  0
ARC
  8
APS_GEOMETRY
 10
48.90399
 20
-470.775626
 40
2.664887
 50
122.275644
 51
151.15734
  0
ARC
  8
APS_GEOMETRY
 10
49.667976
 20
-471.98527
 40
4.095591
 50
102.308016
 51
122.275644
  0
ARC
  8
APS_GEOMETRY
 10
51.078343
 20
-478.449452
 40
10.711842
 50
90.0
 51
102.308016
  0
ARC
  8
APS_GEOMETRY
 10
51.078343
 20
-490.903633
 40
23.166023
 50
88.989003
 51
90.0
  0
ARC
  8
APS_GEOMETRY
 10
49.131076
 20
-601.248711
 40
133.528281
 50
88.567904
 51
88.989003
  0
ARC
  8
APS_GEOMETRY
 10
46.380968
 20
-711.253051
 40
243.566992
 50
88.337041
 51
88.567904
  0
ARC
  8
APS_GEOMETRY
 10
35.722765
 20
-1078.368942
 40
610.837567
 50
88.191261
 51
88.337041
  0
LINE
  8
APS_GEOMETRY
 10
55.002761
 11
56.932267
 20
-467.83572
 21
-467.83572
  0
ARC
  8
APS_GEOMETRY
 10
50.450643
 20
608.113844
 40
1075.969087
 50
270.345151
 51
270.489696
  0
ARC
  8
APS_GEOMETRY
 10
56.490052
 20
-98.496956
 40
369.332478
 50
270.489696
 51
270.736409
  0
ARC
  8
APS_GEOMETRY
 10
58.96912
 20
-291.368489
 40
176.445013
 50
270.736409
 51
271.25279
  0
ARC
  8
APS_GEOMETRY
 10
62.49473
 20
-452.585023
 40
15.189934
 50
271.25279
 51
273.012788
  0
ARC
  8
APS_GEOMETRY
 10
62.348002
 20
-449.797188
 40
17.981628
 50
273.012788
 51
274.499608
  0
ARC
  8
APS_GEOMETRY
 10
45.691973
 20
-238.14374
 40
230.289435
 50
274.499608
 51
274.915063
  0
LINE
  8
APS_GEOMETRY
 10
65.42291
 11
67.386141
 20
-467.586356
 21
-467.413641
  0
LINE
  8
APS_GEOMETRY
 10
67.386141
 11
69.948255
 20
-467.413641
 21
-467.181651
  0
ARC
  8
APS_GEOMETRY
 10
74.161064
 20
-507.905464
 40
40.941137
 50
93.2397
 51
95.906141
  0
ARC
  8
APS_GEOMETRY
 10
73.414825
 20
-494.721917
 40
27.736487
 50
90.0
 51
93.2397
  0
ARC
  8
APS_GEOMETRY
 10
73.414825
 20
-490.53855
 40
23.55312
 50
77.119689
 51
90.0
  0
ARC
  8
APS_GEOMETRY
 10
74.655682
 20
-485.112114
 40
17.986619
 50
62.370753
 51
77.119689
  0
ARC
  8
APS_GEOMETRY
 10
76.75662
 20
-481.173053
 40
13.52248
 50
31.214952
 51
62.517479
  0
ARC
  8
APS_GEOMETRY
 10
76.693262
 20
-481.211447
 40
13.596563
 50
0.0
 51
31.214952
  0
ARC
  8
APS_GEOMETRY
 10
76.327906
 20
-481.211447
 40
13.961919
 50
334.495861
 51
0.0
  0
ARC
  8
APS_GEOMETRY
 10
77.014502
 20
-481.538998
 40
13.201193
 50
308.25442
 51
334.495861
  0
ARC
  8
APS_GEOMETRY
 10
74.915115
 20
-478.772562
 40
16.673559
 50
287.855247
 51
308.033576
  0
ARC
  8
APS_GEOMETRY
 10
73.512936
 20
-474.419709
 40
21.24668
 50
270.0
 51
287.855247
  0
ARC
  8
APS_GEOMETRY
 10
73.512936
 20
-463.469473
 40
32.196916
 50
266.917819
 51
270.0
  0
ARC
  8
APS_GEOMETRY
 10
75.467388
 20
-427.172499
 40
68.546471
 50
264.805571
 51
266.917819
  0
ARC
  8
APS_GEOMETRY
 10
62.394841
 20
-589.281563
 40
94.094982
 50
85.815084
 51
86.633539
  0
ARC
  8
APS_GEOMETRY
 10
67.593604
 20
-500.902584
 40
5.56323
 50
86.633539
 51
90.0
  0
ARC
  8
APS_GEOMETRY
 10
67.593604
 20
-496.160216
 40
0.820862
 50
90.0
 51
139.6859
  0
ARC
  8
APS_GEOMETRY
 10
67.898092
 20
-496.418569
 40
1.220185
 50
139.6859
 51
180.0
  0
LINE
  8
APS_GEOMETRY
 10
66.677906
 11
66.677906
 20
-496.418569
 21
-496.61479
  0
LINE
  8
APS_GEOMETRY
 10
66.677906
 11
66.906831
 20
-496.61479
 21
-501.978162
  0
ARC
  8
APS_GEOMETRY
 10
74.657284
 20
-501.655227
 40
7.757178
 50
182.385944
 51
193.753071
  0
ARC
  8
APS_GEOMETRY
 10
69.659241
 20
-502.878524
 40
2.611608
 50
193.753071
 51
213.407825
  0
ARC
  8
APS_GEOMETRY
 10
69.715465
 20
-502.84144
 40
2.678961
 50
213.407825
 51
232.62815
  0
ARC
  8
APS_GEOMETRY
 10
74.225882
 20
-496.936048
 40
10.109809
 50
232.62815
 51
242.487997
  0
ARC
  8
APS_GEOMETRY
 10
66.703154
 20
-511.200377
 40
6.017001
 50
40.539152
 51
61.699244
  0
ARC
  8
APS_GEOMETRY
 10
69.991418
 20
-508.388046
 40
1.690122
 50
0.0
 51
40.539152
  0
ARC
  8
APS_GEOMETRY
 10
69.412061
 20
-508.388046
 40
2.269479
 50
315.296867
 51
0.0
  0
ARC
  8
APS_GEOMETRY
 10
66.342616
 20
-505.350245
 40
6.588012
 50
289.502449
 51
315.296867
  0
ARC
  8
APS_GEOMETRY
 10
64.093138
 20
-498.998776
 40
13.326061
 50
282.372155
 51
289.502449
  0
ARC
  8
APS_GEOMETRY
 10
61.730507
 20
-488.227958
 40
24.352962
 50
277.099184
 51
282.372155
  0
ARC
  8
APS_GEOMETRY
 10
60.759133
 20
-480.428395
 40
32.212781
 50
273.103908
 51
277.099184
  0
ARC
  8
APS_GEOMETRY
 10
59.613953
 20
-459.309935
 40
53.362268
 50
270.0
 51
273.103908
  0
ARC
  8
APS_GEOMETRY
 10
59.613953
 20
-459.949578
 40
52.722625
 50
263.472919
 51
270.0
  0
ARC
  8
APS_GEOMETRY
 10
55.281421
 20
-497.816594
 40
14.608562
 50
251.055563
 51
263.472919
  0
ARC
  8
APS_GEOMETRY
 10
52.499405
 20
-505.921678
 40
6.039315
 50
224.160841
 51
251.055563
  0
ARC
  8
APS_GEOMETRY
 10
49.82501
 20
-508.51886
 40
2.311348
 50
180.0
 51
224.160841
  0
ARC
  8
APS_GEOMETRY
 10
50.30477
 20
-508.51886
 40
2.791108
 50
160.820992
 51
180.0
  0
ARC
  8
APS_GEOMETRY
 10
49.134083
 20
-508.111664
 40
1.551625
 50
135.0
 51
160.820992
  0
ARC
  8
APS_GEOMETRY
 10
50.240633
 20
-509.218214
 40
3.116523
 50
121.522177
 51
135.0
  0
ARC
  8
APS_GEOMETRY
 10
62.72567
 20
-529.574252
 40
26.996315
 50
116.952179
 51
121.522177
  0
ARC
  8
APS_GEOMETRY
 10
49.092731
 20
-502.86329
 40
2.992871
 50
297.824096
 51
321.604835
  0
ARC
  8
APS_GEOMETRY
 10
49.782124
 20
-503.409601
 40
2.113258
 50
321.604835
 51
349.99202
  0
ARC
  8
APS_GEOMETRY
 10
46.582792
 20
-502.845013
 40
5.362025
 50
349.99202
 51
356.013707
  0
ARC
  8
APS_GEOMETRY
 10
-2.08002
 20
-499.453876
 40
54.142852
 50
356.013707
 51
357.907934
  0
ARC
  8
APS_GEOMETRY
 10
-58.884234
 20
-497.378836
 40
110.984954
 50
357.907934
 51
358.832845
  0
ARC
  8
APS_GEOMETRY
 10
-264.280576
 20
-493.194191
 40
316.423919
 50
358.832845
 51
359.38061
  0
LINE
  8
APS_GEOMETRY
 10
66.906831
 11
66.906831
 20
-475.259412
 21
-486.378598
  0
ARC
  8
APS_GEOMETRY
 10
70.281235
 20
-486.378598
 40
3.374405
 50
180.0
 51
199.885165
  0
ARC
  8
APS_GEOMETRY
 10
67.756346
 20
-487.291856
 40
0.689427
 50
199.885165
 51
244.798876
  0
ARC
  8
APS_GEOMETRY
 10
69.20749
 20
-484.30164
 40
4.01312
 50
244.230672
 51
258.996459
  0
ARC
  8
APS_GEOMETRY
 10
69.817441
 20
-481.16475
 40
7.208761
 50
258.996459
 51
270.0
  0
ARC
  8
APS_GEOMETRY
 10
69.817441
 20
-481.923039
 40
6.450472
 50
270.0
 51
288.434949
  0
ARC
  8
APS_GEOMETRY
 10
70.280206
 20
-483.311333
 40
4.987082
 50
288.434949
 51
309.427802
  0
ARC
  8
APS_GEOMETRY
 10
70.4487
 20
-483.485674
 40
4.745445
 50
309.193273
 51
339.939397
  0
ARC
  8
APS_GEOMETRY
 10
64.579047
 20
-481.342261
 40
10.994208
 50
339.939397
 51
0.0
  0
ARC
  8
APS_GEOMETRY
 10
65.225403
 20
-481.342261
 40
10.347852
 50
0.0
 51
22.011283
  0
ARC
  8
APS_GEOMETRY
 10
69.81014
 20
-479.488857
 40
5.40266
 50
22.011283
 51
52.650651
  0
ARC
  8
APS_GEOMETRY
 10
69.739378
 20
-479.537892
 40
5.484635
 50
52.373766
 51
72.30911
  0
ARC
  8
APS_GEOMETRY
 10
69.294186
 20
-480.933629
 40
6.949653
 50
72.30911
 51
90.0
  0
ARC
  8
APS_GEOMETRY
 10
69.294186
 20
-478.035855
 40
4.051879
 50
90.0
 51
118.113209
  0
ARC
  8
APS_GEOMETRY
 10
67.810881
 20
-475.259412
 40
0.90405
 50
118.113209
 51
180.0
  0
ARC
  8
APS_GEOMETRY
 10
119.644476
 20
-492.243698
 40
25.781524
 50
71.909511
 51
90.0
  0
ARC
  8
APS_GEOMETRY
 10
120.642976
 20
-489.187065
 40
22.565936
 50
52.561428
 51
71.909511
  0
ARC
  8
APS_GEOMETRY
 10
120.381448
 20
-489.263128
 40
22.785888
 50
38.846006
 51
52.155542
  0
ARC
  8
APS_GEOMETRY
 10
116.809315
 20
-492.139922
 40
27.372399
 50
26.707224
 51
38.846006
  0
ARC
  8
APS_GEOMETRY
 10
117.516449
 20
-491.562011
 40
26.481717
 50
13.867603
 51
26.277857
  0
ARC
  8
APS_GEOMETRY
 10
122.61617
 20
-490.303017
 40
21.228887
 50
0.0
 51
13.867603
  0
ARC
  8
APS_GEOMETRY
 10
122.946377
 20
-490.303017
 40
20.898681
 50
339.712247
 51
0.0
  0
ARC
  8
APS_GEOMETRY
 10
121.769874
 20
-489.868101
 40
22.152997
 50
320.013114
 51
339.712247
  0
ARC
  8
APS_GEOMETRY
 10
121.574776
 20
-489.760553
 40
22.371633
 50
303.343757
 51
320.123166
  0
ARC
  8
APS_GEOMETRY
 10
119.279046
 20
-486.27145
 40
26.548261
 50
287.949403
 51
303.343757
  0
ARC
  8
APS_GEOMETRY
 10
118.524792
 20
-483.65634
 40
29.268668
 50
279.039483
 51
287.776406
  0
ARC
  8
APS_GEOMETRY
 10
118.826889
 20
-485.555234
 40
27.345893
 50
270.0
 51
279.039483
  0
ARC
  8
APS_GEOMETRY
 10
118.826889
 20
-486.890275
 40
26.010853
 50
257.72804
 51
270.0
  0
ARC
  8
APS_GEOMETRY
 10
118.867817
 20
-486.70212
 40
26.203407
 50
245.501426
 51
257.72804
  0
ARC
  8
APS_GEOMETRY
 10
117.395111
 20
-489.924895
 40
22.660086
 50
228.665185
 51
245.510859
  0
ARC
  8
APS_GEOMETRY
 10
116.905314
 20
-490.481735
 40
21.918485
 50
211.534792
 51
228.665185
  0
ARC
  8
APS_GEOMETRY
 10
117.547292
 20
-490.010294
 40
22.712325
 50
195.642246
 51
211.70143
  0
ARC
  8
APS_GEOMETRY
 10
118.721018
 20
-489.681651
 40
23.931193
 50
180.0
 51
195.642246
  0
ARC
  8
APS_GEOMETRY
 10
118.972584
 20
-489.681651
 40
24.182759
 50
162.181111
 51
180.0
  0
ARC
  8
APS_GEOMETRY
 10
116.766091
 20
-488.972421
 40
21.865083
 50
143.433519
 51
162.181111
  0
ARC
  8
APS_GEOMETRY
 10
116.469208
 20
-488.734639
 40
21.484982
 50
126.384352
 51
143.471145
  0
ARC
  8
APS_GEOMETRY
 10
118.503339
 20
-491.495246
 40
24.91407
 50
110.525108
 51
126.384352
  0
ARC
  8
APS_GEOMETRY
 10
118.402651
 20
-490.74563
 40
24.177325
 50
99.7697
 51
110.924502
  0
ARC
  8
APS_GEOMETRY
 10
119.644476
 20
-497.957767
 40
31.495593
 50
90.0
 51
99.7697
  0
ARC
  8
APS_GEOMETRY
 10
116.537645
 20
-480.655232
 40
4.807157
 50
90.0
 51
119.604451
  0
ARC
  8
APS_GEOMETRY
 10
116.958688
 20
-481.396267
 40
5.659453
 50
119.604451
 51
146.842076
  0
ARC
  8
APS_GEOMETRY
 10
117.804864
 20
-482.090033
 40
6.74833
 50
145.840305
 51
164.054604
  0
ARC
  8
APS_GEOMETRY
 10
119.766149
 20
-482.650401
 40
8.788097
 50
164.054604
 51
180.0
  0
ARC
  8
APS_GEOMETRY
 10
132.030605
 20
-482.650401
 40
21.052553
 50
180.0
 51
189.976729
  0
ARC
  8
APS_GEOMETRY
 10
150.682202
 20
-479.369431
 40
39.990527
 50
189.976729
 51
197.211115
  0
ARC
  8
APS_GEOMETRY
 10
154.761716
 20
-478.105743
 40
44.261281
 50
197.211115
 51
203.760424
  0
ARC
  8
APS_GEOMETRY
 10
144.599016
 20
-482.579645
 40
33.157396
 50
203.760424
 51
211.328693
  0
ARC
  8
APS_GEOMETRY
 10
123.730879
 20
-495.103391
 40
8.821499
 50
212.319617
 51
224.440823
  0
ARC
  8
APS_GEOMETRY
 10
122.875459
 20
-495.942275
 40
7.623388
 50
224.440823
 51
237.483626
  0
ARC
  8
APS_GEOMETRY
 10
122.322665
 20
-496.80944
 40
6.595013
 50
237.483626
 51
252.415923
  0
ARC
  8
APS_GEOMETRY
 10
121.770203
 20
-498.552703
 40
4.766303
 50
252.415923
 51
270.0
  0
ARC
  8
APS_GEOMETRY
 10
121.770203
 20
-497.987544
 40
5.331461
 50
270.0
 51
294.952847
  0
ARC
  8
APS_GEOMETRY
 10
121.919576
 20
-498.308566
 40
4.977388
 50
294.952847
 51
320.792796
  0
ARC
  8
APS_GEOMETRY
 10
121.118927
 20
-497.655405
 40
6.010664
 50
320.792796
 51
342.776564
  0
ARC
  8
APS_GEOMETRY
 10
117.551115
 20
-496.549383
 40
9.745978
 50
342.776564
 51
0.0
  0
ARC
  8
APS_GEOMETRY
 10
100.789995
 20
-496.549383
 40
26.507098
 50
0.0
 51
8.498559
  0
ARC
  8
APS_GEOMETRY
 10
89.122667
 20
-498.292777
 40
38.30396
 50
8.498559
 51
15.566318
  0
ARC
  8
APS_GEOMETRY
 10
90.52548
 20
-497.901993
 40
36.847733
 50
15.566318
 51
22.908635
  0
ARC
  8
APS_GEOMETRY
 10
102.589183
 20
-492.803943
 40
23.751053
 50
22.908635
 51
32.057376
  0
ARC
  8
APS_GEOMETRY
 10
112.064918
 20
-486.834361
 40
12.551777
 50
31.920876
 51
42.510447
  0
ARC
  8
APS_GEOMETRY
 10
114.666962
 20
-484.449155
 40
9.021927
 50
42.510447
 51
55.00798
  0
ARC
  8
APS_GEOMETRY
 10
115.545834
 20
-483.193622
 40
7.489354
 50
55.00798
 51
69.880367
  0
ARC
  8
APS_GEOMETRY
 10
116.333951
 20
-481.042278
 40
5.198196
 50
69.880367
 51
87.754257
  0
ARC
  8
APS_GEOMETRY
 10
170.158284
 20
-495.666104
 40
2.419773
 50
90.0
 51
115.836754
  0
ARC
  8
APS_GEOMETRY
 10
169.562507
 20
-494.435694
 40
1.05271
 50
115.836754
 51
155.462272
  0
ARC
  8
APS_GEOMETRY
 10
170.257788
 20
-494.753105
 40
1.817018
 50
155.462272
 51
168.366366
  0
ARC
  8
APS_GEOMETRY
 10
176.603776
 20
-496.059632
 40
8.296105
 50
168.366366
 51
174.395461
  0
ARC
  8
APS_GEOMETRY
 10
182.999411
 20
-496.687241
 40
14.722461
 50
174.395461
 51
177.813405
  0
ARC
  8
APS_GEOMETRY
 10
204.227935
 20
-497.497784
 40
35.966453
 50
177.813405
 51
180.0
  0
ARC
  8
APS_GEOMETRY
 10
219.596206
 20
-497.497784
 40
51.334724
 50
180.0
 51
184.619923
  0
ARC
  8
APS_GEOMETRY
 10
185.176376
 20
-500.279185
 40
16.802697
 50
184.619923
 51
192.699584
  0
ARC
  8
APS_GEOMETRY
 10
171.906234
 20
-503.192701
 40
3.217564
 50
194.036243
 51
205.820992
  0
ARC
  8
APS_GEOMETRY
 10
170.500879
 20
-503.872711
 40
1.656336
 50
205.820992
 51
222.273689
  0
ARC
  8
APS_GEOMETRY
 10
170.931406
 20
-503.481323
 40
2.238175
 50
222.273689
 51
234.605204
  0
ARC
  8
APS_GEOMETRY
 10
175.791795
 20
-496.640775
 40
10.629629
 50
234.605204
 51
240.255119
  0
ARC
  8
APS_GEOMETRY
 10
168.403077
 20
-509.715233
 40
4.388594
 50
34.592289
 51
61.189206
  0
ARC
  8
APS_GEOMETRY
 10
169.853298
 20
-508.715081
 40
2.626934
 50
0.0
 51
34.592289
  0
ARC
  8
APS_GEOMETRY
 10
169.940967
 20
-508.715081
 40
2.539265
 50
318.230949
 51
0.0
  0
ARC
  8
APS_GEOMETRY
 10
168.242823
 20
-507.198415
 40
4.816098
 50
288.227257
 51
318.230949
  0
ARC
  8
APS_GEOMETRY
 10
166.481722
 20
-501.850569
 40
10.446456
 50
280.377402
 51
288.227257
  0
ARC
  8
APS_GEOMETRY
 10
163.411863
 20
-485.086991
 40
27.488803
 50
275.540609
 51
280.377402
  0
ARC
  8
APS_GEOMETRY
 10
162.08895
 20
-471.449338
 40
41.19047
 50
272.304132
 51
275.540609
  0
ARC
  8
APS_GEOMETRY
 10
160.478052
 20
-431.413475
 40
81.258728
 50
270.0
 51
272.304132
  0
ARC
  8
APS_GEOMETRY
 10
160.478052
 20
-464.872208
 40
47.799995
 50
262.811463
 51
270.0
  0
ARC
  8
APS_GEOMETRY
 10
156.188969
 20
-498.87851
 40
13.524277
 50
249.274441
 51
262.811463
  0
ARC
  8
APS_GEOMETRY
 10
153.491026
 20
-506.008787
 40
5.900647
 50
221.378515
 51
249.274441
  0
ARC
  8
APS_GEOMETRY
 10
151.124352
 20
-508.093715
 40
2.746591
 50
180.0
 51
221.378515
  0
ARC
  8
APS_GEOMETRY
 10
151.106235
 20
-508.093715
 40
2.728474
 50
164.054604
 51
180.0
  0
ARC
  8
APS_GEOMETRY
 10
149.968827
 20
-507.768741
 40
1.545552
 50
142.815294
 51
164.054604
  0
ARC
  8
APS_GEOMETRY
 10
150.68466
 20
-508.311787
 40
2.444059
 50
129.007473
 51
142.815294
  0
ARC
  8
APS_GEOMETRY
 10
159.47662
 20
-519.166058
 40
16.412372
 50
123.690068
 51
129.007473
  0
ARC
  8
APS_GEOMETRY
 10
147.000138
 20
-500.393187
 40
6.128392
 50
303.388514
 51
319.02199
  0
ARC
  8
APS_GEOMETRY
 10
148.658652
 20
-501.833795
 40
3.931572
 50
319.02199
 51
338.574706
  0
ARC
  8
APS_GEOMETRY
 10
146.439157
 20
-500.962854
 40
6.315832
 50
338.574706
 51
351.048929
  0
ARC
  8
APS_GEOMETRY
 10
119.63308
 20
-496.740651
 40
33.45239
 50
351.048929
 51
356.460441
  0
ARC
  8
APS_GEOMETRY
 10
128.469101
 20
-497.076871
 40
24.613362
 50
355.971736
 51
358.680054
  0
ARC
  8
APS_GEOMETRY
 10
-161.721832
 20
-490.390444
 40
314.881317
 50
358.680054
 51
359.437191
  0
LINE
  8
APS_GEOMETRY
 10
153.144295
 11
153.174954
 20
-493.483431
 21
-488.571776
  0
LINE
  8
APS_GEOMETRY
 10
153.174954
 11
153.185174
 20
-488.571776
 21
-482.159848
  0
ARC
  8
APS_GEOMETRY
 10
77.375934
 20
-482.159848
 40
75.80924
 50
0.0
 51
1.717132
  0
ARC
  8
APS_GEOMETRY
 10
117.944446
 20
-480.943662
 40
35.222502
 50
1.717132
 51
4.236395
  0
ARC
  8
APS_GEOMETRY
 10
131.173679
 20
-479.963718
 40
21.957024
 50
4.236395
 51
8.268833
  0
ARC
  8
APS_GEOMETRY
 10
146.397351
 20
-477.751282
 40
6.573427
 50
8.268833
 51
15.642246
  0
ARC
  8
APS_GEOMETRY
 10
149.017336
 20
-477.017686
 40
3.852677
 50
15.642246
 51
39.417394
  0
ARC
  8
APS_GEOMETRY
 10
149.076252
 20
-476.969261
 40
3.776414
 50
39.417394
 51
63.434949
  0
ARC
  8
APS_GEOMETRY
 10
155.877592
 20
-462.87968
 40
11.86934
 50
236.873849
 51
244.48613
  0
ARC
  8
APS_GEOMETRY
 10
150.818121
 20
-470.633155
 40
2.611121
 50
220.601295
 51
236.873849
  0
ARC
  8
APS_GEOMETRY
 10
150.237804
 20
-471.130569
 40
1.846799
 50
198.245855
 51
220.601295
  0
ARC
  8
APS_GEOMETRY
 10
151.105726
 20
-470.844441
 40
2.760668
 50
180.0
 51
198.245855
  0
ARC
  8
APS_GEOMETRY
 10
151.092642
 20
-470.844441
 40
2.747584
 50
156.16126
 51
180.0
  0
ARC
  8
APS_GEOMETRY
 10
151.475854
 20
-471.013768
 40
3.166539
 50
133.97697
 51
156.16126
  0
ARC
  8
APS_GEOMETRY
 10
152.239308
 20
-471.804984
 40
4.266032
 50
116.995838
 51
133.97697
  0
ARC
  8
APS_GEOMETRY
 10
153.756149
 20
-474.782487
 40
7.607638
 50
104.300277
 51
116.995838
  0
ARC
  8
APS_GEOMETRY
 10
154.148124
 20
-476.28847
 40
9.16378
 50
95.325741
 51
104.349332
  0
ARC
  8
APS_GEOMETRY
 10
155.736046
 20
-493.322545
 40
26.271709
 50
90.0
 51
95.325741
  0
ARC
  8
APS_GEOMETRY
 10
155.736046
 20
-480.063795
 40
13.012958
 50
87.552951
 51
90.0
  0
ARC
  8
APS_GEOMETRY
 10
152.967346
 20
-544.851369
 40
77.859665
 50
86.552613
 51
87.552951
  0
ARC
  8
APS_GEOMETRY
 10
149.030797
 20
-610.198088
 40
143.324848
 50
86.009087
 51
86.552613
  0
ARC
  8
APS_GEOMETRY
 10
133.722895
 20
-829.611348
 40
363.271456
 50
85.667686
 51
86.009087
  0
ARC
  8
APS_GEOMETRY
 10
162.371002
 20
-452.30066
 40
15.125382
 50
265.426079
 51
268.531199
  0
ARC
  8
APS_GEOMETRY
 10
163.715697
 20
-399.857548
 40
67.58573
 50
268.531199
 51
270.0
  0
ARC
  8
APS_GEOMETRY
 10
163.715697
 20
-415.932646
 40
51.510632
 50
270.0
 51
271.636577
  0
ARC
  8
APS_GEOMETRY
 10
162.56471
 20
-375.648104
 40
91.811614
 50
271.636577
 51
272.862405
  0
ARC
  8
APS_GEOMETRY
 10
161.243231
 20
-349.218526
 40
118.274209
 50
272.862405
 51
273.814075
  0
ARC
  8
APS_GEOMETRY
 10
156.76964
 20
-282.114663
 40
185.527026
 50
273.814075
 51
274.573921
  0
ARC
  8
APS_GEOMETRY
 10
184.831717
 20
-647.105457
 40
180.54275
 50
93.719877
 51
94.214179
  0
ARC
  8
APS_GEOMETRY
 10
178.84262
 20
-554.987439
 40
88.230244
 50
93.012788
 51
93.719877
  0
ARC
  8
APS_GEOMETRY
 10
177.200732
 20
-523.791568
 40
56.991196
 50
91.91828
 51
93.012788
  0
ARC
  8
APS_GEOMETRY
 10
175.914098
 20
-485.376368
 40
18.554456
 50
90.0
 51
91.91828
  0
ARC
  8
APS_GEOMETRY
 10
175.914098
 20
-490.930489
 40
24.108577
 50
73.820397
 51
90.0
  0
ARC
  8
APS_GEOMETRY
 10
178.290232
 20
-482.740902
 40
15.581248
 50
53.657551
 51
73.820397
  0
ARC
  8
APS_GEOMETRY
 10
181.669974
 20
-478.121412
 40
9.857439
 50
26.029592
 51
53.569142
  0
ARC
  8
APS_GEOMETRY
 10
180.632937
 20
-478.627872
 40
11.011539
 50
0.0
 51
26.029592
  0
ARC
  8
APS_GEOMETRY
 10
180.20146
 20
-478.627872
 40
11.443017
 50
345.281696
 51
0.0
  0
ARC
  8
APS_GEOMETRY
 10
181.302221
 20
-478.917027
 40
10.30491
 50
329.767161
 51
345.281696
  0
ARC
  8
APS_GEOMETRY
 10
181.925861
 20
-479.280472
 40
9.583094
 50
313.168137
 51
329.767161
  0
ARC
  8
APS_GEOMETRY
 10
182.156795
 20
-479.526667
 40
9.24554
 50
296.266638
 51
313.168137
  0
ARC
  8
APS_GEOMETRY
 10
187.419941
 20
-490.160631
 40
2.619643
 50
116.565051
 51
139.899092
  0
ARC
  8
APS_GEOMETRY
 10
186.113278
 20
-489.060284
 40
0.911389
 50
139.899092
 51
180.0
  0
ARC
  8
APS_GEOMETRY
 10
186.214591
 20
-489.060284
 40
1.012702
 50
180.0
 51
226.193489
  0
ARC
  8
APS_GEOMETRY
 10
188.085523
 20
-487.109739
 40
3.715481
 50
226.193489
 51
249.829347
  0
ARC
  8
APS_GEOMETRY
 10
182.724382
 20
-501.870972
 40
11.989195
 50
53.249344
 51
70.104569
  0
ARC
  8
APS_GEOMETRY
 10
185.159657
 20
-498.60982
 40
7.9191
 50
32.471192
 51
53.249344
  0
ARC
  8
APS_GEOMETRY
 10
184.024649
 20
-499.332098
 40
9.264437
 50
23.304891
 51
32.471192
  0
ARC
  8
APS_GEOMETRY
 10
177.014549
 20
-502.351834
 40
16.89728
 50
16.520892
 51
23.304891
  0
ARC
  8
APS_GEOMETRY
 10
171.549023
 20
-503.972964
 40
22.598161
 50
11.429216
 51
16.520892
  0
ARC
  8
APS_GEOMETRY
 10
156.059159
 20
-507.104489
 40
38.401399
 50
7.52382
 51
11.429216
  0
ARC
  8
APS_GEOMETRY
 10
207.387353
 20
-500.268444
 40
13.380105
 50
187.765166
 51
196.914179
  0
ARC
  8
APS_GEOMETRY
 10
196.444121
 20
-503.59621
 40
1.942082
 50
196.914179
 51
221.081751
  0
ARC
  8
APS_GEOMETRY
 10
196.485843
 20
-503.559837
 40
1.997434
 50
221.081751
 51
244.607077
  0
ARC
  8
APS_GEOMETRY
 10
201.15923
 20
-493.714568
 40
12.895593
 50
244.607077
 51
253.810794
  0
ARC
  8
APS_GEOMETRY
 10
197.05042
 20
-507.724529
 40
1.704862
 50
51.449535
 51
72.474432
  0
ARC
  8
APS_GEOMETRY
 10
196.628574
 20
-508.253904
 40
2.381761
 50
33.690068
 51
51.449535
  0
ARC
  8
APS_GEOMETRY
 10
196.52992
 20
-508.319674
 40
2.500329
 50
16.638806
 51
33.690068
  0
ARC
  8
APS_GEOMETRY
 10
196.410566
 20
-508.355342
 40
2.624898
 50
0.0
 51
16.638806
  0
ARC
  8
APS_GEOMETRY
 10
196.373941
 20
-508.355342
 40
2.661524
 50
338.993211
 51
0.0
  0
ARC
  8
APS_GEOMETRY
 10
194.748804
 20
-507.73129
 40
4.40236
 50
322.696052
 51
338.993211
  0
ARC
  8
APS_GEOMETRY
 10
194.143302
 20
-507.269955
 40
5.163585
 50
308.603415
 51
322.696052
  0
ARC
  8
APS_GEOMETRY
 10
193.726595
 20
-506.748019
 40
5.831464
 50
295.346176
 51
308.603415
  0
ARC
  8
APS_GEOMETRY
 10
191.535398
 20
-501.921837
 40
11.131419
 50
279.582945
 51
294.904769
  0
ARC
  8
APS_GEOMETRY
 10
188.668459
 20
-484.940733
 40
28.352836
 50
270.0
 51
279.582945
  0
ARC
  8
APS_GEOMETRY
 10
188.668459
 20
-492.621883
 40
20.671686
 50
261.247402
 51
270.0
  0
ARC
  8
APS_GEOMETRY
 10
187.344328
 20
-501.222308
 40
11.969926
 50
249.737083
 51
261.247402
  0
ARC
  8
APS_GEOMETRY
 10
186.473908
 20
-503.580046
 40
9.456649
 50
235.344857
 51
249.737083
  0
ARC
  8
APS_GEOMETRY
 10
185.374756
 20
-505.170081
 40
7.523686
 50
219.198413
 51
235.344857
  0
ARC
  8
APS_GEOMETRY
 10
187.687746
 20
-503.197821
 40
10.562859
 50
209.075569
 51
219.559668
  0
ARC
  8
APS_GEOMETRY
 10
193.028486
 20
-500.228185
 40
16.673689
 50
200.735234
 51
209.075569
  0
ARC
  8
APS_GEOMETRY
 10
200.398028
 20
-497.438287
 40
24.553643
 50
197.881035
 51
200.735234
  0
ARC
  8
APS_GEOMETRY
 10
230.679529
 20
-487.668697
 40
56.3721
 50
195.997451
 51
197.881035
  0
ARC
  8
APS_GEOMETRY
 10
253.061469
 20
-481.251856
 40
79.655722
 50
194.663974
 51
195.997451
  0
ARC
  8
APS_GEOMETRY
 10
315.056704
 20
-465.029368
 40
143.738313
 50
193.671307
 51
194.663974
  0
ARC
  8
APS_GEOMETRY
 10
157.846212
 20
-503.249792
 40
18.051498
 50
13.609732
 51
23.584501
  0
ARC
  8
APS_GEOMETRY
 10
169.665642
 20
-498.089817
 40
5.154821
 50
23.584501
 51
42.31023
  0
ARC
  8
APS_GEOMETRY
 10
170.737651
 20
-497.114014
 40
3.705202
 50
42.31023
 51
67.520566
  0
ARC
  8
APS_GEOMETRY
 10
169.889289
 20
-499.164221
 40
5.924
 50
67.520566
 51
87.397438
  0
LINE
  8
APS_GEOMETRY
 10
168.294186
 11
167.934447
 20
-476.567552
 21
-484.187465
  0
LINE
  8
APS_GEOMETRY
 10
167.934447
 11
167.934447
 20
-484.187465
 21
-484.310103
  0
LINE
  8
APS_GEOMETRY
 10
167.934447
 11
167.934447
 20
-484.310103
 21
-484.481796
  0
ARC
  8
APS_GEOMETRY
 10
173.22874
 20
-484.481796
 40
5.294293
 50
180.0
 51
192.339087
  0
ARC
  8
APS_GEOMETRY
 10
169.019558
 20
-485.402554
 40
0.98558
 50
192.339087
 51
221.185925
  0
ARC
  8
APS_GEOMETRY
 10
168.919182
 20
-485.490384
 40
0.852203
 50
221.185925
 51
253.872424
  0
ARC
  8
APS_GEOMETRY
 10
169.635029
 20
-483.014747
 40
3.429258
 50
253.872424
 51
270.0
  0
ARC
  8
APS_GEOMETRY
 10
169.635029
 20
-478.473408
 40
7.970597
 50
270.0
 51
289.56871
  0
ARC
  8
APS_GEOMETRY
 10
171.084073
 20
-482.549841
 40
3.644278
 50
289.56871
 51
318.680622
  0
ARC
  8
APS_GEOMETRY
 10
170.692121
 20
-482.205268
 40
4.166157
 50
318.680622
 51
344.628325
  0
ARC
  8
APS_GEOMETRY
 10
163.389372
 20
-480.197639
 40
11.739843
 50
344.628325
 51
0.0
  0
ARC
  8
APS_GEOMETRY
 10
166.861182
 20
-480.197639
 40
8.268032
 50
0.0
 51
35.36883
  0
ARC
  8
APS_GEOMETRY
 10
170.648837
 20
-477.508993
 40
3.623127
 50
35.36883
 51
90.0
  0
ARC
  8
APS_GEOMETRY
 10
170.648837
 20
-477.548801
 40
3.662935
 50
90.0
 51
108.434949
  0
ARC
  8
APS_GEOMETRY
 10
169.936177
 20
-475.41082
 40
1.409306
 50
108.434949
 51
138.366461
  0
ARC
  8
APS_GEOMETRY
 10
170.127455
 20
-475.580846
 40
1.665228
 50
138.366461
 51
164.291362
  0
ARC
  8
APS_GEOMETRY
 10
174.612485
 20
-476.84226
 40
6.324268
 50
164.291362
 51
177.510447
  0
LINE
  8
APS_GEOMETRY
 10
218.807994
 11
236.042732
 20
-467.377872
 21
-467.377872
  0
ARC
  8
APS_GEOMETRY
 10
235.171135
 20
-442.68262
 40
24.710628
 50
272.021365
 51
278.440365
  0
ARC
  8
APS_GEOMETRY
 10
236.143877
 20
-449.238057
 40
18.083413
 50
278.440365
 51
285.945396
  0
ARC
  8
APS_GEOMETRY
 10
243.461017
 20
-475.435357
 40
9.117519
 50
98.583621
 51
104.931417
  0
ARC
  8
APS_GEOMETRY
 10
242.845058
 20
-471.354627
 40
4.990564
 50
90.0
 51
98.583621
  0
ARC
  8
APS_GEOMETRY
 10
242.845058
 20
-470.115756
 40
3.751692
 50
52.870717
 51
90.0
  0
ARC
  8
APS_GEOMETRY
 10
237.756459
 20
-476.836947
 40
12.181891
 50
32.517511
 51
52.870717
  0
ARC
  8
APS_GEOMETRY
 10
233.725237
 20
-479.406851
 40
16.962598
 50
17.208621
 51
32.517511
  0
ARC
  8
APS_GEOMETRY
 10
237.085106
 20
-478.366244
 40
13.445271
 50
0.0
 51
17.208621
  0
ARC
  8
APS_GEOMETRY
 10
243.812946
 20
-478.366244
 40
6.717431
 50
337.348108
 51
0.0
  0
ARC
  8
APS_GEOMETRY
 10
246.512861
 20
-479.492979
 40
3.791842
 50
307.042475
 51
337.348108
  0
ARC
  8
APS_GEOMETRY
 10
246.043612
 20
-478.848279
 40
4.589135
 50
287.185706
 51
306.869898
  0
ARC
  8
APS_GEOMETRY
 10
245.624854
 20
-477.494296
 40
6.006395
 50
270.0
 51
287.185706
  0
ARC
  8
APS_GEOMETRY
 10
245.624854
 20
-478.107206
 40
5.393486
 50
252.221439
 51
270.0
  0
ARC
  8
APS_GEOMETRY
 10
245.373769
 20
-478.89025
 40
4.57117
 50
232.895765
 51
252.221439
  0
ARC
  8
APS_GEOMETRY
 10
246.344297
 20
-477.607179
 40
6.179957
 50
218.299689
 51
232.895765
  0
ARC
  8
APS_GEOMETRY
 10
253.924534
 20
-471.620736
 40
15.83902
 50
209.197486
 51
218.299689
  0
ARC
  8
APS_GEOMETRY
 10
215.370765
 20
-492.508599
 40
28.011657
 50
28.024501
 51
32.699461
  0
ARC
  8
APS_GEOMETRY
 10
235.526873
 20
-479.568876
 40
4.059515
 50
32.699461
 51
45.0
  0
ARC
  8
APS_GEOMETRY
 10
236.901179
 20
-478.19457
 40
2.115953
 50
45.0
 51
67.557247
  0
ARC
  8
APS_GEOMETRY
 10
236.893023
 20
-478.214316
 40
2.137317
 50
67.557247
 51
90.0
  0
ARC
  8
APS_GEOMETRY
 10
236.893023
 20
-478.045786
 40
1.968787
 50
90.0
 51
120.801446
  0
ARC
  8
APS_GEOMETRY
 10
236.826494
 20
-477.93419
 40
1.838864
 50
120.801446
 51
152.700428
  0
ARC
  8
APS_GEOMETRY
 10
238.285305
 20
-478.687124
 40
3.480522
 50
152.700428
 51
171.085073
  0
ARC
  8
APS_GEOMETRY
 10
249.374228
 20
-480.426563
 40
14.705043
 50
171.085073
 51
180.0
  0
LINE
  8
APS_GEOMETRY
 10
234.669186
 11
234.669186
 20
-480.426563
 21
-498.740517
  0
ARC
  8
APS_GEOMETRY
 10
254.096256
 20
-498.740517
 40
19.42707
 50
180.0
 51
188.194263
  0
ARC
  8
APS_GEOMETRY
 10
239.588679
 20
-500.829608
 40
4.769851
 50
188.194263
 51
204.775141
  0
ARC
  8
APS_GEOMETRY
 10
238.179215
 20
-501.48013
 40
3.217508
 50
204.775141
 51
228.576334
  0
ARC
  8
APS_GEOMETRY
 10
239.501532
 20
-499.981504
 40
5.216108
 50
228.576334
 51
247.217594
  0
ARC
  8
APS_GEOMETRY
 10
231.832632
 20
-518.053657
 40
14.415923
 50
59.381395
 51
66.929588
  0
ARC
  8
APS_GEOMETRY
 10
237.493858
 20
-508.488138
 40
3.30068
 50
43.567904
 51
59.381395
  0
ARC
  8
APS_GEOMETRY
 10
238.399455
 20
-507.626716
 40
2.050818
 50
19.041231
 51
43.567904
  0
ARC
  8
APS_GEOMETRY
 10
237.141113
 20
-508.061011
 40
3.381997
 50
0.0
 51
19.041231
  0
ARC
  8
APS_GEOMETRY
 10
237.775673
 20
-508.061011
 40
2.747437
 50
317.65975
 51
0.0
  0
ARC
  8
APS_GEOMETRY
 10
235.253293
 20
-505.762581
 40
6.159941
 50
289.746837
 51
317.65975
  0
ARC
  8
APS_GEOMETRY
 10
233.140836
 20
-499.87788
 40
12.412315
 50
281.964396
 51
289.746837
  0
ARC
  8
APS_GEOMETRY
 10
230.214007
 20
-486.066035
 40
26.530862
 50
276.643452
 51
281.964396
  0
ARC
  8
APS_GEOMETRY
 10
228.982212
 20
-475.490189
 40
37.178202
 50
272.836113
 51
276.643452
  0
ARC
  8
APS_GEOMETRY
 10
227.507122
 20
-445.714443
 40
66.990463
 50
270.0
 51
272.836113
  0
ARC
  8
APS_GEOMETRY
 10
227.507122
 20
-427.264653
 40
85.440254
 50
267.283141
 51
270.0
  0
ARC
  8
APS_GEOMETRY
 10
225.713227
 20
-465.067706
 40
47.59466
 50
263.64272
 51
267.283141
  0
ARC
  8
APS_GEOMETRY
 10
224.210961
 20
-478.551459
 40
34.02748
 50
258.563267
 51
263.64272
  0
ARC
  8
APS_GEOMETRY
 10
220.62221
 20
-496.290973
 40
15.928599
 50
251.136412
 51
258.563267
  0
ARC
  8
APS_GEOMETRY
 10
217.4181
 20
-505.583709
 40
6.099088
 50
222.557585
 51
251.395035
  0
ARC
  8
APS_GEOMETRY
 10
215.040607
 20
-507.76668
 40
2.871421
 50
180.0
 51
222.557585
  0
ARC
  8
APS_GEOMETRY
 10
214.560945
 20
-507.76668
 40
2.39176
 50
150.642246
 51
180.0
  0
ARC
  8
APS_GEOMETRY
 10
214.752594
 20
-507.874482
 40
2.611648
 50
122.574057
 51
150.642246
  0
ARC
  8
APS_GEOMETRY
 10
214.245642
 20
-507.292092
 40
1.851424
 50
108.676702
 51
119.054604
  0
ARC
  8
APS_GEOMETRY
 10
237.361217
 20
-575.675666
 40
74.036208
 50
107.037768
 51
108.676702
  0
ARC
  8
APS_GEOMETRY
 10
214.80681
 20
-501.912168
 40
3.098808
 50
286.144339
 51
308.659808
  0
ARC
  8
APS_GEOMETRY
 10
215.314248
 20
-502.546465
 40
2.286512
 50
308.659808
 51
334.932537
  0
ARC
  8
APS_GEOMETRY
 10
213.249532
 20
-501.580711
 40
4.565927
 50
334.932537
 51
348.829022
  0
ARC
  8
APS_GEOMETRY
 10
187.423654
 20
-496.480642
 40
30.890567
 50
348.829022
 51
354.160508
  0
ARC
  8
APS_GEOMETRY
 10
169.967744
 20
-494.681339
 40
48.438962
 50
354.143986
 51
355.660291
  0
ARC
  8
APS_GEOMETRY
 10
92.591472
 20
-488.809455
 40
126.037715
 50
355.660291
 51
356.600286
  0
ARC
  8
APS_GEOMETRY
 10
33.442447
 20
-485.295652
 40
185.291018
 50
356.600286
 51
357.239747
  0
ARC
  8
APS_GEOMETRY
 10
-134.382654
 20
-477.204333
 40
353.311058
 50
357.239747
 51
357.702834
  0
ARC
  8
APS_GEOMETRY
 10
-117.862358
 20
-477.867039
 40
336.777476
 50
357.702834
 51
358.674384
  0
ARC
  8
APS_GEOMETRY
 10
37.969923
 20
-481.473075
 40
180.903478
 50
358.674384
 51
0.0
  0
ARC
  8
APS_GEOMETRY
 10
192.063334
 20
-481.473075
 40
26.810067
 50
0.0
 51
6.241914
  0
ARC
  8
APS_GEOMETRY
 10
213.382575
 20
-479.141283
 40
5.363685
 50
6.241914
 51
20.224859
  0
ARC
  8
APS_GEOMETRY
 10
216.33736
 20
-478.052678
 40
2.214746
 50
20.224859
 51
50.440332
  0
ARC
  8
APS_GEOMETRY
 10
216.911191
 20
-477.35804
 40
1.313744
 50
50.440332
 51
90.0
  0
ARC
  8
APS_GEOMETRY
 10
216.911191
 20
-477.806613
 40
1.762317
 50
90.0
 51
126.747471
  0
ARC
  8
APS_GEOMETRY
 10
219.401206
 20
-481.141454
 40
5.924208
 50
126.747471
 51
146.546691
  0
ARC
  8
APS_GEOMETRY
 10
175.413474
 20
-452.228514
 40
46.714947
 50
324.255019
 51
326.700579
  0
ARC
  8
APS_GEOMETRY
 10
194.036425
 20
-465.632644
 40
23.769686
 50
320.826342
 51
324.255019
  0
ARC
  8
APS_GEOMETRY
 10
200.122984
 20
-470.592063
 40
15.918442
 50
315.721571
 51
320.826342
  0
ARC
  8
APS_GEOMETRY
 10
207.117127
 20
-477.412222
 40
6.14948
 50
307.504142
 51
315.721571
  0
ARC
  8
APS_GEOMETRY
 10
206.471835
 20
-476.550925
 40
7.225632
 50
291.305784
 51
307.405357
  0
ARC
  8
APS_GEOMETRY
 10
207.590697
 20
-479.419802
 40
4.146296
 50
270.0
 51
291.305784
  0
ARC
  8
APS_GEOMETRY
 10
207.590697
 20
-479.687142
 40
3.878957
 50
245.531798
 51
270.0
  0
ARC
  8
APS_GEOMETRY
 10
207.561355
 20
-479.751622
 40
3.808114
 50
220.833495
 51
245.531798
  0
ARC
  8
APS_GEOMETRY
 10
207.954483
 20
-479.411882
 40
4.327703
 50
198.683699
 51
220.833495
  0
ARC
  8
APS_GEOMETRY
 10
209.595952
 20
-478.856796
 40
6.060487
 50
180.0
 51
198.683699
  0
ARC
  8
APS_GEOMETRY
 10
213.443161
 20
-478.856796
 40
9.907696
 50
168.407825
 51
180.0
  0
ARC
  8
APS_GEOMETRY
 10
219.795914
 20
-480.159925
 40
16.392726
 50
159.401826
 51
168.407825
  0
ARC
  8
APS_GEOMETRY
 10
221.759106
 20
-480.897769
 40
18.489996
 50
151.38954
 51
159.401826
  0
ARC
  8
APS_GEOMETRY
 10
221.356723
 20
-480.678287
 40
18.031646
 50
143.275893
 51
151.38954
  0
ARC
  8
APS_GEOMETRY
 10
216.307128
 20
-476.902349
 40
11.726407
 50
124.215702
 51
143.310277
  0
ARC
  8
APS_GEOMETRY
 10
211.809447
 20
-470.288112
 40
3.727828
 50
90.0
 51
124.215702
  0
ARC
  8
APS_GEOMETRY
 10
211.809447
 20
-471.944684
 40
5.3844
 50
82.724995
 51
90.0
  0
ARC
  8
APS_GEOMETRY
 10
211.388752
 20
-475.240126
 40
8.706586
 50
77.005383
 51
82.724995
  0
ARC
  8
APS_GEOMETRY
 10
224.237115
 20
-413.293542
 40
54.560918
 50
258.486169
 51
260.377772
  0
ARC
  8
APS_GEOMETRY
 10
218.733129
 20
-445.75846
 40
21.632741
 50
260.377772
 51
263.382083
  0
ARC
  8
APS_GEOMETRY
 10
218.26236
 20
-449.816079
 40
17.547904
 50
263.382083
 51
267.083862
  0
ARC
  8
APS_GEOMETRY
 10
218.807994
 20
-439.104826
 40
28.273045
 50
267.083862
 51
270.0
  0
LINE
  8
APS_GEOMETRY
 10
262.225145
 11
279.034738
 20
-467.377872
 21
-467.377872
  0
ARC
  8
APS_GEOMETRY
 10
279.034738
 20
-255.658338
 40
211.719534
 50
270.0
 51
270.690277
  0
ARC
  8
APS_GEOMETRY
 10
280.228186
 20
-354.71449
 40
112.656192
 50
270.690277
 51
271.636577
  0
ARC
  8
APS_GEOMETRY
 10
281.233723
 20
-389.908313
 40
77.448008
 50
271.636577
 51
273.012788
  0
ARC
  8
APS_GEOMETRY
 10
283.684392
 20
-436.471009
 40
30.820865
 50
273.012788
 51
275.194429
  0
ARC
  8
APS_GEOMETRY
 10
284.291783
 20
-443.152315
 40
24.112006
 50
275.194429
 51
280.755985
  0
ARC
  8
APS_GEOMETRY
 10
284.405981
 20
-443.753469
 40
23.500103
 50
280.755985
 51
286.38954
  0
ARC
  8
APS_GEOMETRY
 10
293.019642
 20
-473.238189
 40
7.217223
 50
100.304846
 51
105.945396
  0
ARC
  8
APS_GEOMETRY
 10
292.116133
 20
-468.268893
 40
2.166457
 50
90.0
 51
100.304846
  0
ARC
  8
APS_GEOMETRY
 10
292.116133
 20
-469.042173
 40
2.939738
 50
58.945729
 51
90.0
  0
ARC
  8
APS_GEOMETRY
 10
290.991797
 20
-470.909374
 40
5.119318
 50
35.537678
 51
58.945729
  0
ARC
  8
APS_GEOMETRY
 10
286.603079
 20
-474.138178
 40
10.567546
 50
16.699244
 51
35.952428
  0
ARC
  8
APS_GEOMETRY
 10
283.301679
 20
-475.128598
 40
14.014309
 50
0.0
 51
16.699244
  0
ARC
  8
APS_GEOMETRY
 10
289.451973
 20
-475.128598
 40
7.864015
 50
344.981639
 51
0.0
  0
ARC
  8
APS_GEOMETRY
 10
293.226517
 20
-476.141281
 40
3.955984
 50
323.746162
 51
344.981639
  0
ARC
  8
APS_GEOMETRY
 10
294.065416
 20
-476.756473
 40
2.915689
 50
296.113913
 51
323.746162
  0
ARC
  8
APS_GEOMETRY
 10
293.914825
 20
-476.449268
 40
3.257818
 50
270.0
 51
296.113913
  0
ARC
  8
APS_GEOMETRY
 10
293.914825
 20
-475.622639
 40
4.084447
 50
255.311213
 51
270.0
  0
ARC
  8
APS_GEOMETRY
 10
293.368717
 20
-477.705942
 40
1.930756
 50
233.880659
 51
255.311213
  0
ARC
  8
APS_GEOMETRY
 10
293.943512
 20
-476.91826
 40
2.905863
 50
219.289407
 51
233.880659
  0
ARC
  8
APS_GEOMETRY
 10
305.473629
 20
-467.484528
 40
17.803477
 50
213.407825
 51
219.289407
  0
ARC
  8
APS_GEOMETRY
 10
283.872451
 20
-481.712852
 40
8.062653
 50
33.293563
 51
51.246316
  0
ARC
  8
APS_GEOMETRY
 10
284.970316
 20
-480.345121
 40
6.308801
 50
51.246316
 51
71.565051
  0
ARC
  8
APS_GEOMETRY
 10
284.244484
 20
-482.522616
 40
8.604083
 50
71.565051
 51
79.27849
  0
ARC
  8
APS_GEOMETRY
 10
281.916446
 20
-494.818106
 40
21.118028
 50
79.27849
 51
84.199782
  0
ARC
  8
APS_GEOMETRY
 10
280.923132
 20
-504.596729
 40
30.946973
 50
84.199782
 51
87.566799
  0
ARC
  8
APS_GEOMETRY
 10
279.721511
 20
-532.874872
 40
59.250634
 50
87.566799
 51
90.0
  0
ARC
  8
APS_GEOMETRY
 10
279.721511
 20
-490.280064
 40
16.655826
 50
90.0
 51
96.37446
  0
ARC
  8
APS_GEOMETRY
 10
278.615943
 20
-480.383884
 40
6.698082
 50
96.37446
 51
106.434163
  0
ARC
  8
APS_GEOMETRY
 10
277.830306
 20
-477.720382
 40
3.92113
 50
106.434163
 51
123.055823
  0
ARC
  8
APS_GEOMETRY
 10
276.603915
 20
-475.835928
 40
1.672752
 50
123.055823
 51
148.626995
  0
ARC
  8
APS_GEOMETRY
 10
277.724182
 20
-476.470987
 40
2.960132
 50
149.420773
 51
165.28034
  0
ARC
  8
APS_GEOMETRY
 10
280.952784
 20
-477.319179
 40
6.29829
 50
165.28034
 51
176.134539
  0
ARC
  8
APS_GEOMETRY
 10
290.195405
 20
-477.94368
 40
15.561985
 50
176.134539
 51
178.366533
  0
ARC
  8
APS_GEOMETRY
 10
375.701263
 20
-480.38206
 40
101.102604
 50
178.366533
 51
179.242164
  0
ARC
  8
APS_GEOMETRY
 10
464.069838
 20
-481.550957
 40
189.478909
 50
179.242164
 51
179.709456
  0
ARC
  8
APS_GEOMETRY
 10
764.718868
 20
-483.075546
 40
490.131804
 50
179.709456
 51
180.0
  0
ARC
  8
APS_GEOMETRY
 10
281.67797
 20
-483.075546
 40
7.090907
 50
180.0
 51
195.027109
  0
ARC
  8
APS_GEOMETRY
 10
275.878841
 20
-484.632359
 40
1.086444
 50
195.027109
 51
234.057888
  0
ARC
  8
APS_GEOMETRY
 10
275.935333
 20
-484.554439
 40
1.182688
 50
234.057888
 51
253.191308
  0
ARC
  8
APS_GEOMETRY
 10
277.172583
 20
-480.458713
 40
5.461212
 50
253.191308
 51
262.062812
  0
ARC
  8
APS_GEOMETRY
 10
277.806302
 20
-475.913421
 40
10.050468
 50
262.062812
 51
266.948518
  0
ARC
  8
APS_GEOMETRY
 10
278.642296
 20
-460.231325
 40
25.754832
 50
266.948518
 51
270.0
  0
ARC
  8
APS_GEOMETRY
 10
278.642296
 20
-481.264396
 40
4.721761
 50
270.0
 51
286.007404
  0
ARC
  8
APS_GEOMETRY
 10
279.468773
 20
-484.145258
 40
1.724691
 50
286.007404
 51
312.646703
  0
ARC
  8
APS_GEOMETRY
 10
279.451438
 20
-484.126437
 40
1.750278
 50
312.646703
 51
338.993211
  0
ARC
  8
APS_GEOMETRY
 10
275.876645
 20
-482.753716
 40
5.579574
 50
338.993211
 51
353.659808
  0
ARC
  8
APS_GEOMETRY
 10
312.795849
 20
-487.156365
 40
31.601426
 50
169.663446
 51
173.118276
  0
ARC
  8
APS_GEOMETRY
 10
286.406112
 20
-482.343143
 40
4.776338
 50
160.769328
 51
169.663446
  0
ARC
  8
APS_GEOMETRY
 10
284.19885
 20
-481.573168
 40
2.438633
 50
143.746162
 51
160.769328
  0
ARC
  8
APS_GEOMETRY
 10
284.732239
 20
-481.964319
 40
3.100073
 50
128.659808
 51
143.746162
  0
ARC
  8
APS_GEOMETRY
 10
284.376608
 20
-481.388032
 40
2.429302
 50
110.170653
 51
130.601295
  0
ARC
  8
APS_GEOMETRY
 10
284.39811
 20
-481.446567
 40
2.49166
 50
90.0
 51
110.170653
  0
ARC
  8
APS_GEOMETRY
 10
284.39811
 20
-481.482016
 40
2.52711
 50
61.220194
 51
90.0
  0
ARC
  8
APS_GEOMETRY
 10
283.957129
 20
-482.284828
 40
3.443063
 50
36.634114
 51
61.220194
  0
ARC
  8
APS_GEOMETRY
 10
283.542986
 20
-482.53098
 40
3.922591
 50
19.103091
 51
35.909723
  0
ARC
  8
APS_GEOMETRY
 10
270.747858
 20
-486.962464
 40
17.463394
 50
11.159944
 51
19.103091
  0
ARC
  8
APS_GEOMETRY
 10
264.062863
 20
-488.281272
 40
24.277234
 50
5.396292
 51
11.159944
  0
ARC
  8
APS_GEOMETRY
 10
260.662964
 20
-488.602435
 40
27.692268
 50
0.0
 51
5.396292
  0
ARC
  8
APS_GEOMETRY
 10
261.144872
 20
-488.602435
 40
27.21036
 50
349.286877
 51
0.0
  0
ARC
  8
APS_GEOMETRY
 10
274.502876
 20
-491.129625
 40
13.615399
 50
334.119726
 51
349.286877
  0
ARC
  8
APS_GEOMETRY
 10
283.704703
 20
-495.57632
 40
3.395531
 50
303.53047
 51
333.853159
  0
ARC
  8
APS_GEOMETRY
 10
284.038372
 20
-496.079856
 40
2.791475
 50
270.0
 51
303.53047
  0
ARC
  8
APS_GEOMETRY
 10
284.038372
 20
-495.949418
 40
2.921913
 50
249.577667
 51
270.0
  0
ARC
  8
APS_GEOMETRY
 10
283.416719
 20
-497.619
 40
1.140353
 50
216.607075
 51
249.577667
  0
ARC
  8
APS_GEOMETRY
 10
284.011046
 20
-497.1775
 40
1.880723
 50
195.422161
 51
216.607075
  0
ARC
  8
APS_GEOMETRY
 10
294.273401
 20
-494.346505
 40
12.526401
 50
187.253195
 51
195.422161
  0
ARC
  8
APS_GEOMETRY
 10
277.700576
 20
-496.478459
 40
4.183036
 50
7.561428
 51
49.434471
  0
ARC
  8
APS_GEOMETRY
 10
277.530377
 20
-496.677275
 40
4.444753
 50
49.434471
 51
90.0
  0
ARC
  8
APS_GEOMETRY
 10
277.530377
 20
-495.22329
 40
2.990768
 50
90.0
 51
115.223923
  0
ARC
  8
APS_GEOMETRY
 10
276.93885
 20
-493.967591
 40
1.602717
 50
115.223923
 51
149.931417
  0
ARC
  8
APS_GEOMETRY
 10
278.008224
 20
-494.586703
 40
2.838379
 50
149.931417
 51
171.111058
  0
ARC
  8
APS_GEOMETRY
 10
290.975691
 20
-496.61479
 40
15.963482
 50
171.111058
 51
180.0
  0
ARC
  8
APS_GEOMETRY
 10
303.751119
 20
-496.61479
 40
28.73891
 50
180.0
 51
183.062287
  0
ARC
  8
APS_GEOMETRY
 10
347.738736
 20
-494.261543
 40
72.789429
 50
183.062287
 51
184.986334
  0
ARC
  8
APS_GEOMETRY
 10
324.666133
 20
-496.274589
 40
49.629175
 50
184.986334
 51
187.804099
  0
ARC
  8
APS_GEOMETRY
 10
280.965083
 20
-502.264073
 40
5.519587
 50
187.804099
 51
196.260205
  0
ARC
  8
APS_GEOMETRY
 10
277.111283
 20
-503.424223
 40
1.4955
 50
194.931417
 51
230.024075
  0
ARC
  8
APS_GEOMETRY
 10
278.092185
 20
-502.254231
 40
3.022278
 50
230.024075
 51
254.511499
  0
ARC
  8
APS_GEOMETRY
 10
279.283825
 20
-497.953967
 40
7.484596
 50
254.511499
 51
265.219116
  0
ARC
  8
APS_GEOMETRY
 10
281.781831
 20
-468.086505
 40
37.456338
 50
265.219116
 51
270.0
  0
ARC
  8
APS_GEOMETRY
 10
281.781831
 20
-472.046272
 40
33.49657
 50
270.0
 51
274.186237
  0
ARC
  8
APS_GEOMETRY
 10
282.800445
 20
-485.962925
 40
19.542689
 50
274.186237
 51
279.667756
  0
ARC
  8
APS_GEOMETRY
 10
283.636516
 20
-490.870771
 40
14.564138
 50
279.667756
 51
286.990823
  0
ARC
  8
APS_GEOMETRY
 10
285.549336
 20
-497.130908
 40
8.018285
 50
286.990823
 51
296.865814
  0
ARC
  8
APS_GEOMETRY
 10
285.946704
 20
-497.915324
 40
7.138962
 50
296.865814
 51
318.366461
  0
ARC
  8
APS_GEOMETRY
 10
281.947722
 20
-494.360673
 40
12.48942
 50
318.366461
 51
334.580712
  0
ARC
  8
APS_GEOMETRY
 10
308.277103
 20
-506.986681
 40
16.710926
 50
147.079531
 51
154.230672
  0
ARC
  8
APS_GEOMETRY
 10
297.270655
 20
-499.860711
 40
3.599048
 50
131.633539
 51
147.079531
  0
ARC
  8
APS_GEOMETRY
 10
296.450133
 20
-498.937623
 40
2.363998
 50
108.87455
 51
131.633539
  0
ARC
  8
APS_GEOMETRY
 10
296.792732
 20
-499.939727
 40
3.423047
 50
90.0
 51
108.87455
  0
ARC
  8
APS_GEOMETRY
 10
296.792732
 20
-499.244125
 40
2.727445
 50
62.628019
 51
90.0
  0
ARC
  8
APS_GEOMETRY
 10
296.620142
 20
-499.577483
 40
3.102832
 50
36.995271
 51
62.628019
  0
ARC
  8
APS_GEOMETRY
 10
295.846807
 20
-500.160133
 40
4.071093
 50
16.727964
 51
36.995271
  0
ARC
  8
APS_GEOMETRY
 10
294.041452
 20
-500.702726
 40
5.956222
 50
0.0
 51
16.727964
  0
ARC
  8
APS_GEOMETRY
 10
290.465629
 20
-500.702726
 40
9.532045
 50
348.323262
 51
0.0
  0
ARC
  8
APS_GEOMETRY
 10
276.156617
 20
-497.74553
 40
24.143439
 50
340.994016
 51
348.323262
  0
ARC
  8
APS_GEOMETRY
 10
272.76273
 20
-496.576525
 40
27.733013
 50
334.592282
 51
340.994016
  0
ARC
  8
APS_GEOMETRY
 10
278.686593
 20
-499.39036
 40
21.174825
 50
327.264774
 51
334.592282
  0
ARC
  8
APS_GEOMETRY
 10
285.566747
 20
-503.445865
 40
13.197963
 50
320.132554
 51
325.922805
  0
ARC
  8
APS_GEOMETRY
 10
293.569536
 20
-510.129513
 40
2.771277
 50
307.47618
 51
320.132554
  0
ARC
  8
APS_GEOMETRY
 10
294.270526
 20
-511.043848
 40
1.619151
 50
286.429301
 51
307.47618
  0
ARC
  8
APS_GEOMETRY
 10
293.980232
 20
-510.059374
 40
2.645533
 50
270.0
 51
286.429301
  0
ARC
  8
APS_GEOMETRY
 10
293.980232
 20
-507.00093
 40
5.703977
 50
263.774171
 51
270.0
  0
ARC
  8
APS_GEOMETRY
 10
295.648989
 20
-491.703995
 40
21.091665
 50
260.537678
 51
263.774171
  0
ARC
  8
APS_GEOMETRY
 10
288.180036
 20
-533.85004
 40
21.713256
 50
79.380345
 51
84.986886
  0
ARC
  8
APS_GEOMETRY
 10
284.942254
 20
-570.760753
 40
58.765704
 50
84.986886
 51
88.393997
  0
LINE
  8
APS_GEOMETRY
 10
286.589244
 11
258.856686
 20
-512.018133
 21
-512.018133
  0
ARC
  8
APS_GEOMETRY
 10
258.856686
 20
-506.214396
 40
5.803737
 50
254.10251
 51
270.0
  0
ARC
  8
APS_GEOMETRY
 10
258.039277
 20
-509.084408
 40
2.819592
 50
231.215636
 51
254.10251
  0
ARC
  8
APS_GEOMETRY
 10
257.703651
 20
-509.502076
 40
2.283782
 50
203.794835
 51
231.215636
  0
ARC
  8
APS_GEOMETRY
 10
258.375941
 20
-509.205633
 40
3.018529
 50
180.0
 51
203.794835
  0
ARC
  8
APS_GEOMETRY
 10
258.630417
 20
-509.205633
 40
3.273005
 50
164.054604
 51
180.0
  0
ARC
  8
APS_GEOMETRY
 10
256.613614
 20
-508.629404
 40
1.175498
 50
137.29061
 51
164.054604
  0
ARC
  8
APS_GEOMETRY
 10
257.220529
 20
-509.189632
 40
2.001453
 50
120.963757
 51
137.29061
  0
ARC
  8
APS_GEOMETRY
 10
263.721214
 20
-520.024108
 40
14.636515
 50
114.943905
 51
120.963757
  0
ARC
  8
APS_GEOMETRY
 10
255.605973
 20
-502.27001
 40
4.885656
 50
293.428693
 51
305.719954
  0
ARC
  8
APS_GEOMETRY
 10
256.949839
 20
-504.138824
 40
2.583821
 50
305.719954
 51
322.650651
  0
ARC
  8
APS_GEOMETRY
 10
256.741317
 20
-503.979689
 40
2.84613
 50
322.650651
 51
338.110443
  0
ARC
  8
APS_GEOMETRY
 10
252.683436
 20
-502.34929
 40
7.219298
 50
338.110443
 51
347.799531
  0
ARC
  8
APS_GEOMETRY
 10
227.482996
 20
-496.825491
 40
33.018006
 50
347.672229
 51
352.050998
  0
ARC
  8
APS_GEOMETRY
 10
203.090164
 20
-493.419439
 40
57.64749
 50
352.050998
 51
355.364537
  0
ARC
  8
APS_GEOMETRY
 10
186.663162
 20
-492.08752
 40
74.128399
 50
355.364537
 51
357.943473
  0
ARC
  8
APS_GEOMETRY
 10
144.253388
 20
-490.564645
 40
116.565507
 50
357.943473
 51
0.0
  0
ARC
  8
APS_GEOMETRY
 10
95.301128
 20
-490.564645
 40
165.517767
 50
0.0
 51
2.183373
  0
ARC
  8
APS_GEOMETRY
 10
194.276094
 20
-486.791175
 40
66.470894
 50
2.183373
 51
5.629042
  0
ARC
  8
APS_GEOMETRY
 10
223.760074
 20
-483.885156
 40
36.844048
 50
5.629042
 51
11.804813
  0
ARC
  8
APS_GEOMETRY
 10
252.37605
 20
-477.904459
 40
7.609774
 50
11.804813
 51
25.419288
  0
ARC
  8
APS_GEOMETRY
 10
256.079585
 20
-476.222817
 40
3.543656
 50
26.565051
 51
38.157227
  0
ARC
  8
APS_GEOMETRY
 10
257.724066
 20
-474.930725
 40
1.452288
 50
38.157227
 51
56.309932
  0
ARC
  8
APS_GEOMETRY
 10
257.376345
 20
-475.452307
 40
2.079151
 50
56.309932
 51
69.193209
  0
ARC
  8
APS_GEOMETRY
 10
252.496484
 20
-488.294047
 40
15.816813
 50
69.193209
 51
73.855661
  0
ARC
  8
APS_GEOMETRY
 10
257.644245
 20
-470.587053
 40
2.623355
 50
216.869898
 51
253.393019
  0
ARC
  8
APS_GEOMETRY
 10
257.606292
 20
-470.615517
 40
2.575915
 50
180.0
 51
216.869898
  0
ARC
  8
APS_GEOMETRY
 10
258.168201
 20
-470.615517
 40
3.137824
 50
161.565051
 51
180.0
  0
ARC
  8
APS_GEOMETRY
 10
258.054743
 20
-470.577697
 40
3.018228
 50
142.765166
 51
161.565051
  0
ARC
  8
APS_GEOMETRY
 10
257.982561
 20
-470.522839
 40
2.927566
 50
123.424811
 51
142.765166
  0
ARC
  8
APS_GEOMETRY
 10
258.048252
 20
-470.62237
 40
3.046821
 50
104.470294
 51
123.424811
  0
ARC
  8
APS_GEOMETRY
 10
258.628203
 20
-473.484439
 40
5.964992
 50
96.724353
 51
102.994617
  0
ARC
  8
APS_GEOMETRY
 10
260.429225
 20
-488.75977
 40
21.346131
 50
93.410945
 51
96.724353
  0
ARC
  8
APS_GEOMETRY
 10
261.229142
 20
-502.180598
 40
34.790777
 50
91.374835
 51
93.410945
  0
ARC
  8
APS_GEOMETRY
 10
262.225145
 20
-543.680726
 40
76.302854
 50
90.0
 51
91.374835
  0
LINE
  8
QUOTATURA
 10
987.664934
 11
984.330934
 20
623.945493
 21
603.945493
  0
LINE
  8
QUOTATURA
 10
984.330934
 11
980.996934
 20
603.945493
 21
623.945493
  0
LINE
  8
QUOTATURA
 10
980.996934
 11
987.664934
 20
623.945493
 21
623.945493
  0
LINE
  8
QUOTATURA
 10
984.330934
 11
984.330934
 20
603.945493
 21
646.075106
  0
LINE
  8
QUOTATURA
 10
984.330934
 11
945.073794
 20
646.075106
 21
646.075106
  0
LINE
  8
COSTRUZIONI
 10
-1.5
 11
-1.5
 20
-210.0
 21
-328.000046
  0
LINE
  8
COSTRUZIONI
 10
-21.5
 11
-21.5
 20
-210.0
 21
-328.000046
  0
LINE
  8
COSTRUZIONI
 10
-1.5
 11
-136.543173
 20
-210.0
 21
-210.0
  0
LINE
  8
COSTRUZIONI
 10
-1.5
 11
-136.543173
 20
-328.000046
 21
-328.000046
  0
LINE
  8
COSTRUZIONI
 10
-21.5
 11
-1.5
 20
-328.000046
 21
-210.0
  0
LINE
  8
COSTRUZIONI
 10
-21.5
 11
-1.5
 20
-210.0
 21
-328.000046
  0
LINE
  8
COSTRUZIONI
 10
881.5
 11
881.5
 20
-210.0
 21
-328.000046
  0
LINE
  8
COSTRUZIONI
 10
901.5
 11
901.5
 20
-210.0
 21
-328.000046
  0
LINE
  8
COSTRUZIONI
 10
881.5
 11
1016.543173
 20
-210.0
 21
-210.0
  0
LINE
  8
COSTRUZIONI
 10
881.5
 11
1016.543173
 20
-328.000046
 21
-328.000046
  0
LINE
  8
COSTRUZIONI
 10
901.5
 11
881.5
 20
-328.000046
 21
-210.0
  0
LINE
  8
COSTRUZIONI
 10
901.5
 11
881.5
 20
-210.0
 21
-328.000046
  0
LINE
  8
QUOTATURA
 10
44.000037
 11
312.081705
 20
-302.110864
 21
-302.110864
  0
LINE
  8
QUOTATURA
 10
567.918295
 11
835.999963
 20
-302.110864
 21
-302.110864
  0
LINE
  8
QUOTATURA
 10
64.000037
 11
44.000037
 20
-305.444864
 21
-302.110864
  0
LINE
  8
QUOTATURA
 10
44.000037
 11
64.000037
 20
-302.110864
 21
-298.776864
  0
LINE
  8
QUOTATURA
 10
64.000037
 11
64.000037
 20
-298.776864
 21
-305.444864
  0
LINE
  8
QUOTATURA
 10
815.999963
 11
835.999963
 20
-298.776864
 21
-302.110864
  0
LINE
  8
QUOTATURA
 10
835.999963
 11
815.999963
 20
-302.110864
 21
-305.444864
  0
LINE
  8
QUOTATURA
 10
815.999963
 11
815.999963
 20
-305.444864
 21
-298.776864
  0
LINE
  8
QUOTATURA
 10
0.0
 11
0.0
 20
-348.0
 21
-380.634746
  0
LINE
  8
QUOTATURA
 10
880.0
 11
880.0
 20
-348.0
 21
-380.634746
  0
LINE
  8
QUOTATURA
 10
0.0
 11
309.20444
 20
-370.634746
 21
-370.634746
  0
LINE
  8
QUOTATURA
 10
570.79556
 11
880.0
 20
-370.634746
 21
-370.634746
  0
LINE
  8
QUOTATURA
 10
20.0
 11
0.0
 20
-373.968746
 21
-370.634746
  0
LINE
  8
QUOTATURA
 10
0.0
 11
20.0
 20
-370.634746
 21
-367.300746
  0
LINE
  8
QUOTATURA
 10
20.0
 11
20.0
 20
-367.300746
 21
-373.968746
  0
LINE
  8
QUOTATURA
 10
860.0
 11
880.0
 20
-367.300746
 21
-370.634746
  0
LINE
  8
QUOTATURA
 10
880.0
 11
860.0
 20
-370.634746
 21
-373.968746
  0
LINE
  8
QUOTATURA
 10
860.0
 11
860.0
 20
-373.968746
 21
-367.300746
  0
LINE
  8
QUOTATURA
 10
36.500037
 11
36.500037
 20
-190.0
 21
-141.748618
  0
LINE
  8
QUOTATURA
 10
843.499963
 11
843.499963
 20
-190.0
 21
-141.748618
  0
LINE
  8
QUOTATURA
 10
36.500037
 11
363.104388
 20
-151.748618
 21
-151.748618
  0
LINE
  8
QUOTATURA
 10
516.895612
 11
843.499963
 20
-151.748618
 21
-151.748618
  0
LINE
  8
QUOTATURA
 10
56.500037
 11
36.500037
 20
-155.082618
 21
-151.748618
  0
LINE
  8
QUOTATURA
 10
36.500037
 11
56.500037
 20
-151.748618
 21
-148.414618
  0
LINE
  8
QUOTATURA
 10
56.500037
 11
56.500037
 20
-148.414618
 21
-155.082618
  0
LINE
  8
QUOTATURA
 10
823.499963
 11
843.499963
 20
-148.414618
 21
-151.748618
  0
LINE
  8
QUOTATURA
 10
843.499963
 11
823.499963
 20
-151.748618
 21
-155.082618
  0
LINE
  8
QUOTATURA
 10
823.499963
 11
823.499963
 20
-155.082618
 21
-148.414618
  0
LINE
  8
APS_GEOMETRY
 10
33.500037
 11
33.500037
 20
-229.5
 21
-203.0
  0
ARC
  8
APS_GEOMETRY
 10
30.500037
 20
-203.0
 40
3.0
 50
0.0
 51
90.0
  0
LINE
  8
APS_GEOMETRY
 10
30.500037
 11
11.5
 20
-200.0
 21
-200.0
  0
ARC
  8
APS_GEOMETRY
 10
11.5
 20
-203.0
 40
3.0
 50
90.0
 51
180.0
  0
LINE
  8
APS_GEOMETRY
 10
8.5
 11
8.5
 20
-203.0
 21
-224.0
  0
LINE
  8
APS_GEOMETRY
 10
8.5
 11
4.0
 20
-224.0
 21
-224.0
  0
LINE
  8
APS_GEOMETRY
 10
4.0
 11
4.0
 20
-224.0
 21
-210.0
  0
LINE
  8
APS_GEOMETRY
 10
4.0
 11
0.0
 20
-210.0
 21
-210.0
  0
LINE
  8
APS_GEOMETRY
 10
0.0
 11
0.0
 20
-210.0
 21
-328.0
  0
LINE
  8
APS_GEOMETRY
 10
0.0
 11
6.500037
 20
-328.0
 21
-328.0
  0
LINE
  8
APS_GEOMETRY
 10
6.500037
 11
6.500037
 20
-328.0
 21
-314.0
  0
LINE
  8
APS_GEOMETRY
 10
6.500037
 11
11.000037
 20
-314.0
 21
-314.0
  0
LINE
  8
APS_GEOMETRY
 10
11.000037
 11
11.000037
 20
-314.0
 21
-335.0
  0
ARC
  8
APS_GEOMETRY
 10
14.000037
 20
-335.0
 40
3.0
 50
180.0
 51
270.0
  0
LINE
  8
APS_GEOMETRY
 10
14.000037
 11
41.000037
 20
-338.0
 21
-338.0
  0
ARC
  8
APS_GEOMETRY
 10
41.000037
 20
-335.0
 40
3.0
 50
270.0
 51
0.0
  0
LINE
  8
APS_GEOMETRY
 10
44.000037
 11
44.000037
 20
-335.0
 21
-234.0
  0
LINE
  8
COSTRUZIONI
 10
-287.5
 11
-287.5
 20
2114.199963
 21
2096.499963
  0
LINE
  8
COSTRUZIONI
 10
-287.5
 11
-291.0
 20
2096.499963
 21
2096.499963
  0
LINE
  8
COSTRUZIONI
 10
-291.0
 11
-291.0
 20
2096.499963
 21
2114.199963
  0
LINE
  8
COSTRUZIONI
 10
-291.0
 11
-287.5
 20
2114.199963
 21
2114.199963
  0
LINE
  8
APS_GEOMETRY
 10
-265.0
 11
-265.0
 20
2194.5
 21
2140.0
  0
LINE
  8
APS_GEOMETRY
 10
-265.0
 11
-268.0
 20
2140.0
 21
2140.0
  0
LINE
  8
APS_GEOMETRY
 10
-268.0
 11
-268.0
 20
2140.0
 21
2135.5
  0
LINE
  8
APS_GEOMETRY
 10
-268.0
 11
-278.5
 20
2135.5
 21
2135.5
  0
LINE
  8
APS_GEOMETRY
 10
-278.5
 11
-280.0
 20
2135.5
 21
2134.0
  0
LINE
  8
APS_GEOMETRY
 10
-280.0
 11
-280.0
 20
2134.0
 21
2131.5
  0
LINE
  8
APS_GEOMETRY
 10
-280.0
 11
-262.0
 20
2131.5
 21
2131.5
  0
ARC
  8
APS_GEOMETRY
 10
-262.0
 20
2135.5
 40
4.0
 50
270.0
 51
360.0
  0
LINE
  8
APS_GEOMETRY
 10
-258.0
 11
-258.0
 20
2135.5
 21
2196.5
  0
ARC
  8
APS_GEOMETRY
 10
-262.0
 20
2196.5
 40
4.0
 50
360.0
 51
90.0
  0
LINE
  8
APS_GEOMETRY
 10
-262.0
 11
-268.0
 20
2200.5
 21
2200.5
  0
LINE
  8
APS_GEOMETRY
 10
-268.0
 11
-268.0
 20
2200.5
 21
2194.5
  0
LINE
  8
APS_GEOMETRY
 10
-268.0
 11
-265.0
 20
2194.5
 21
2194.5
  0
LINE
  8
APS_GEOMETRY
 10
-389.0
 11
-389.0
 20
2192.499963
 21
2137.999963
  0
LINE
  8
APS_GEOMETRY
 10
-389.0
 11
-386.0
 20
2137.999963
 21
2137.999963
  0
LINE
  8
APS_GEOMETRY
 10
-386.0
 11
-386.0
 20
2137.999963
 21
2133.499963
  0
LINE
  8
APS_GEOMETRY
 10
-386.0
 11
-375.5
 20
2133.499963
 21
2133.499963
  0
LINE
  8
APS_GEOMETRY
 10
-375.5
 11
-374.0
 20
2133.499963
 21
2131.999963
  0
LINE
  8
APS_GEOMETRY
 10
-374.0
 11
-374.0
 20
2131.999963
 21
2129.499963
  0
LINE
  8
APS_GEOMETRY
 10
-374.0
 11
-392.0
 20
2129.499963
 21
2129.499963
  0
ARC
  8
APS_GEOMETRY
 10
-392.0
 20
2133.499963
 40
4.0
 50
180.0
 51
270.0
  0
LINE
  8
APS_GEOMETRY
 10
-396.0
 11
-396.0
 20
2133.499963
 21
2194.499963
  0
ARC
  8
APS_GEOMETRY
 10
-392.0
 20
2194.499963
 40
4.0
 50
90.0
 51
180.0
  0
LINE
  8
APS_GEOMETRY
 10
-392.0
 11
-386.0
 20
2198.499963
 21
2198.499963
  0
LINE
  8
APS_GEOMETRY
 10
-386.0
 11
-386.0
 20
2198.499963
 21
2192.499963
  0
LINE
  8
APS_GEOMETRY
 10
-386.0
 11
-389.0
 20
2192.499963
 21
2192.499963
  0
LINE
  8
APS_GEOMETRY
 10
-303.0
 11
-303.0
 20
2090.499963
 21
1700.0
  0
LINE
  8
APS_GEOMETRY
 10
-303.0
 11
-303.0
 20
1700.0
 21
7.5
  0
ARC
  8
APS_GEOMETRY
 10
-300.0
 20
7.5
 40
3.0
 50
180.0
 51
270.0
  0
LINE
  8
APS_GEOMETRY
 10
-300.0
 11
-261.0
 20
4.5
 21
4.5
  0
ARC
  8
APS_GEOMETRY
 10
-261.0
 20
7.5
 40
3.0
 50
270.0
 51
360.0
  0
LINE
  8
APS_GEOMETRY
 10
-258.0
 11
-258.0
 20
7.5
 21
1700.0
  0
LINE
  8
APS_GEOMETRY
 10
-258.0
 11
-258.0
 20
1700.0
 21
2100.499963
  0
ARC
  8
APS_GEOMETRY
 10
-261.0
 20
2100.499963
 40
3.0
 50
360.0
 51
90.0
  0
LINE
  8
APS_GEOMETRY
 10
-261.0
 11
-286.5
 20
2103.499963
 21
2103.499963
  0
ARC
  8
APS_GEOMETRY
 10
-286.5
 20
2101.999963
 40
1.5
 50
90.0
 51
180.0
  0
LINE
  8
APS_GEOMETRY
 10
-288.0
 11
-288.0
 20
2101.999963
 21
2093.499963
  0
LINE
  8
APS_GEOMETRY
 10
-288.0
 11
-300.0
 20
2093.499963
 21
2093.499963
  0
ARC
  8
APS_GEOMETRY
 10
-300.0
 20
2090.499963
 40
3.0
 50
90.0
 51
180.0
  0
LINE
  8
COSTRUZIONI
 10
-268.0
 11
-386.000046
 20
2141.5
 21
2141.5
  0
LINE
  8
COSTRUZIONI
 10
-268.0
 11
-386.000046
 20
2161.5
 21
2161.5
  0
LINE
  8
COSTRUZIONI
 10
-268.0
 11
-268.0
 20
2141.5
 21
2276.543173
  0
LINE
  8
COSTRUZIONI
 10
-386.000046
 11
-386.000046
 20
2141.5
 21
2276.543173
  0
LINE
  8
COSTRUZIONI
 10
-386.000046
 11
-268.0
 20
2161.5
 21
2141.5
  0
LINE
  8
COSTRUZIONI
 10
-268.0
 11
-386.000046
 20
2161.5
 21
2141.5
  0
LINE
  8
APS_GEOMETRY
 10
-287.5
 11
-261.0
 20
2106.499963
 21
2106.499963
  0
ARC
  8
APS_GEOMETRY
 10
-261.0
 20
2109.499963
 40
3.0
 50
270.0
 51
360.0
  0
LINE
  8
APS_GEOMETRY
 10
-258.0
 11
-258.0
 20
2109.499963
 21
2128.5
  0
ARC
  8
APS_GEOMETRY
 10
-261.0
 20
2128.5
 40
3.0
 50
360.0
 51
90.0
  0
LINE
  8
APS_GEOMETRY
 10
-261.0
 11
-282.0
 20
2131.5
 21
2131.5
  0
LINE
  8
APS_GEOMETRY
 10
-282.0
 11
-282.0
 20
2131.5
 21
2136.0
  0
LINE
  8
APS_GEOMETRY
 10
-282.0
 11
-268.0
 20
2136.0
 21
2136.0
  0
LINE
  8
APS_GEOMETRY
 10
-268.0
 11
-268.0
 20
2136.0
 21
2140.0
  0
LINE
  8
APS_GEOMETRY
 10
-268.0
 11
-386.0
 20
2140.0
 21
2140.0
  0
LINE
  8
APS_GEOMETRY
 10
-386.0
 11
-386.0
 20
2140.0
 21
2133.499963
  0
LINE
  8
APS_GEOMETRY
 10
-386.0
 11
-372.0
 20
2133.499963
 21
2133.499963
  0
LINE
  8
APS_GEOMETRY
 10
-372.0
 11
-372.0
 20
2133.499963
 21
2128.999963
  0
LINE
  8
APS_GEOMETRY
 10
-372.0
 11
-393.0
 20
2128.999963
 21
2128.999963
  0
ARC
  8
APS_GEOMETRY
 10
-393.0
 20
2125.999963
 40
3.0
 50
90.0
 51
180.0
  0
LINE
  8
APS_GEOMETRY
 10
-396.0
 11
-396.0
 20
2125.999963
 21
2098.999963
  0
ARC
  8
APS_GEOMETRY
 10
-393.0
 20
2098.999963
 40
3.0
 50
180.0
 51
270.0
  0
LINE
  8
APS_GEOMETRY
 10
-393.0
 11
-292.0
 20
2095.999963
 21
2095.999963
  0
LINE
  8
APS_GEOMETRY
 10
-400.0
 11
-161.0
 20
0.0
 21
0.0
  0
LINE
  8
QUOTATURA
 10
434.175941
 11
454.175941
 20
-28.336113
 21
-31.670113
  0
LINE
  8
QUOTATURA
 10
454.175941
 11
434.175941
 20
-31.670113
 21
-35.004113
  0
LINE
  8
QUOTATURA
 10
434.175941
 11
434.175941
 20
-35.004113
 21
-28.336113
  0
LINE
  8
QUOTATURA
 10
454.175941
 11
413.249989
 20
-31.670113
 21
-31.670113
  0
LINE
  8
QUOTATURA
 10
413.249989
 11
413.249989
 20
-31.670113
 21
-4.06889
  0
LINE
  8
QUOTATURA
 10
-313.0
 11
-357.329851
 20
2103.499963
 21
2103.499963
  0
LINE
  8
QUOTATURA
 10
-313.0
 11
-357.329851
 20
4.5
 21
4.5
  0
LINE
  8
QUOTATURA
 10
-347.329851
 11
-347.329851
 20
2103.499963
 21
1138.979055
  0
LINE
  8
QUOTATURA
 10
-347.329851
 11
-347.329851
 20
969.020908
 21
4.5
  0
LINE
  8
QUOTATURA
 10
-350.663851
 11
-347.329851
 20
2083.499963
 21
2103.499963
  0
LINE
  8
QUOTATURA
 10
-347.329851
 11
-343.995851
 20
2103.499963
 21
2083.499963
  0
LINE
  8
QUOTATURA
 10
-343.995851
 11
-350.663851
 20
2083.499963
 21
2083.499963
  0
LINE
  8
QUOTATURA
 10
-343.995851
 11
-347.329851
 20
24.5
 21
4.5
  0
LINE
  8
QUOTATURA
 10
-347.329851
 11
-350.663851
 20
4.5
 21
24.5
  0
LINE
  8
QUOTATURA
 10
-350.663851
 11
-343.995851
 20
24.5
 21
24.5
  0
LINE
  8
QUOTATURA
 10
-410.0
 11
-436.101879
 20
0.0
 21
0.0
  0
LINE
  8
QUOTATURA
 10
-406.0
 11
-436.101879
 20
2095.999963
 21
2095.999963
  0
LINE
  8
QUOTATURA
 10
-426.101879
 11
-426.101879
 20
0.0
 21
910.312388
  0
LINE
  8
QUOTATURA
 10
-426.101879
 11
-426.101879
 20
1185.687574
 21
2095.999963
  0
LINE
  8
QUOTATURA
 10
-422.767879
 11
-426.101879
 20
20.0
 21
0.0
  0
LINE
  8
QUOTATURA
 10
-426.101879
 11
-429.435879
 20
0.0
 21
20.0
  0
LINE
  8
QUOTATURA
 10
-429.435879
 11
-422.767879
 20
20.0
 21
20.0
  0
LINE
  8
QUOTATURA
 10
-429.435879
 11
-426.101879
 20
2075.999963
 21
2095.999963
  0
LINE
  8
QUOTATURA
 10
-426.101879
 11
-422.767879
 20
2095.999963
 21
2075.999963
  0
LINE
  8
QUOTATURA
 10
-422.767879
 11
-429.435879
 20
2075.999963
 21
2075.999963
  0
LINE
  8
QUOTATURA
 10
-406.0
 11
-492.085377
 20
2140.0
 21
2140.0
  0
LINE
  8
QUOTATURA
 10
-410.0
 11
-492.085377
 20
0.0
 21
0.0
  0
LINE
  8
QUOTATURA
 10
-482.085377
 11
-482.085377
 20
2140.0
 21
1206.752635
  0
LINE
  8
QUOTATURA
 10
-482.085377
 11
-482.085377
 20
933.247365
 21
0.0
  0
LINE
  8
QUOTATURA
 10
-485.419377
 11
-482.085377
 20
2120.0
 21
2140.0
  0
LINE
  8
QUOTATURA
 10
-482.085377
 11
-478.751377
 20
2140.0
 21
2120.0
  0
LINE
  8
QUOTATURA
 10
-478.751377
 11
-485.419377
 20
2120.0
 21
2120.0
  0
LINE
  8
QUOTATURA
 10
-478.751377
 11
-482.085377
 20
20.0
 21
0.0
  0
LINE
  8
QUOTATURA
 10
-482.085377
 11
-485.419377
 20
0.0
 21
20.0
  0
LINE
  8
QUOTATURA
 10
-485.419377
 11
-478.751377
 20
20.0
 21
20.0
  0
LINE
  8
COSTRUZIONI
 10
11.0
 11
44.0
 20
0.0
 21
0.0
  0
LINE
  8
COSTRUZIONI
 10
869.0
 11
836.0
 20
0.0
 21
0.0
  0
LINE
  8
APS_GEOMETRY
 10
-58.0
 11
11.0
 20
2198.0
 21
2129.0
  0
LINE
  8
APS_GEOMETRY
 10
869.0
 11
938.0
 20
2129.0
 21
2198.0
  0
LINE
  8
APS_GEOMETRY
 10
846.499963
 11
846.499963
 20
-229.5
 21
-203.0
  0
ARC
  8
APS_GEOMETRY
 10
849.499963
 20
-203.0
 40
3.0
 50
90.0
 51
180.0
  0
LINE
  8
APS_GEOMETRY
 10
849.499963
 11
868.5
 20
-200.0
 21
-200.0
  0
ARC
  8
APS_GEOMETRY
 10
868.5
 20
-203.0
 40
3.0
 50
0.0
 51
90.0
  0
LINE
  8
APS_GEOMETRY
 10
871.5
 11
871.5
 20
-203.0
 21
-224.0
  0
LINE
  8
APS_GEOMETRY
 10
871.5
 11
876.0
 20
-224.0
 21
-224.0
  0
LINE
  8
APS_GEOMETRY
 10
876.0
 11
876.0
 20
-224.0
 21
-210.0
  0
LINE
  8
APS_GEOMETRY
 10
876.0
 11
880.0
 20
-210.0
 21
-210.0
  0
LINE
  8
APS_GEOMETRY
 10
880.0
 11
880.0
 20
-210.0
 21
-328.0
  0
LINE
  8
APS_GEOMETRY
 10
880.0
 11
873.499963
 20
-328.0
 21
-328.0
  0
LINE
  8
APS_GEOMETRY
 10
873.499963
 11
873.499963
 20
-328.0
 21
-314.0
  0
LINE
  8
APS_GEOMETRY
 10
873.499963
 11
868.999963
 20
-314.0
 21
-314.0
  0
LINE
  8
APS_GEOMETRY
 10
868.999963
 11
868.999963
 20
-314.0
 21
-335.0
  0
ARC
  8
APS_GEOMETRY
 10
865.999963
 20
-335.0
 40
3.0
 50
270.0
 51
0.0
  0
LINE
  8
APS_GEOMETRY
 10
865.999963
 11
838.999963
 20
-338.0
 21
-338.0
  0
ARC
  8
APS_GEOMETRY
 10
838.999963
 20
-335.0
 40
3.0
 50
180.0
 51
270.0
  0
LINE
  8
APS_GEOMETRY
 10
835.999963
 11
835.999963
 20
-335.0
 21
-234.0
  0
LINE
  8
APS_GEOMETRY
 10
49.500037
 11
830.499963
 20
-245.0
 21
-245.0
  0
ARC
  8
APS_GEOMETRY
 10
830.499963
 20
-242.0
 40
3.0
 50
270.0
 51
0.0
  0
LINE
  8
APS_GEOMETRY
 10
833.499963
 11
833.499963
 20
-242.0
 21
-230.0
  0
LINE
  8
APS_GEOMETRY
 10
833.499963
 11
841.999963
 20
-230.0
 21
-230.0
  0
ARC
  8
APS_GEOMETRY
 10
841.999963
 20
-228.5
 40
1.5
 50
270.0
 51
0.0
  0
LINE
  8
APS_GEOMETRY
 10
843.499963
 11
843.499963
 20
-228.5
 21
-203.0
  0
ARC
  8
APS_GEOMETRY
 10
840.499963
 20
-203.0
 40
3.0
 50
0.0
 51
90.0
  0
LINE
  8
APS_GEOMETRY
 10
840.499963
 11
39.500037
 20
-200.0
 21
-200.0
  0
ARC
  8
APS_GEOMETRY
 10
39.500037
 20
-203.0
 40
3.0
 50
90.0
 51
180.0
  0
LINE
  8
APS_GEOMETRY
 10
36.500037
 11
36.500037
 20
-203.0
 21
-228.5
  0
ARC
  8
APS_GEOMETRY
 10
38.000037
 20
-228.5
 40
1.5
 50
180.0
 51
270.0
  0
LINE
  8
APS_GEOMETRY
 10
38.000037
 11
46.500037
 20
-230.0
 21
-230.0
  0
LINE
  8
APS_GEOMETRY
 10
46.500037
 11
46.500037
 20
-230.0
 21
-242.0
  0
ARC
  8
APS_GEOMETRY
 10
49.500037
 20
-242.0
 40
3.0
 50
180.0
 51
270.0
  0
LINE
  8
QUOTATURA
 10
-386.000046
 11
-386.000046
 20
2151.5
 21
2235.107548
  0
LINE
  8
QUOTATURA
 10
-268.0
 11
-268.0
 20
2151.5
 21
2235.107548
  0
LINE
  8
QUOTATURA
 10
-386.000046
 11
-350.165837
 20
2225.107548
 21
2225.107548
  0
LINE
  8
QUOTATURA
 10
-303.834208
 11
-268.0
 20
2225.107548
 21
2225.107548
  0
LINE
  8
QUOTATURA
 10
-366.000046
 11
-386.000046
 20
2221.773548
 21
2225.107548
  0
LINE
  8
QUOTATURA
 10
-386.000046
 11
-366.000046
 20
2225.107548
 21
2228.441548
  0
LINE
  8
QUOTATURA
 10
-366.000046
 11
-366.000046
 20
2228.441548
 21
2221.773548
  0
LINE
  8
QUOTATURA
 10
-288.0
 11
-268.0
 20
2228.441548
 21
2225.107548
  0
LINE
  8
QUOTATURA
 10
-268.0
 11
-288.0
 20
2225.107548
 21
2221.773548
  0
LINE
  8
QUOTATURA
 10
-288.0
 11
-288.0
 20
2221.773548
 21
2228.441548
  0
LINE
  8
QUOTATURA
 10
-126.543173
 11
-83.026334
 20
-328.000046
 21
-328.000046
  0
LINE
  8
QUOTATURA
 10
-126.543173
 11
-83.026334
 20
-210.0
 21
-210.0
  0
LINE
  8
QUOTATURA
 10
-93.026334
 11
-93.026334
 20
-328.000046
 21
-284.189978
  0
LINE
  8
QUOTATURA
 10
-93.026334
 11
-93.026334
 20
-253.988761
 21
-210.0
  0
LINE
  8
QUOTATURA
 10
-89.692334
 11
-93.026334
 20
-308.000046
 21
-328.000046
  0
LINE
  8
QUOTATURA
 10
-93.026334
 11
-96.360334
 20
-328.000046
 21
-308.000046
  0
LINE
  8
QUOTATURA
 10
-96.360334
 11
-89.692334
 20
-308.000046
 21
-308.000046
  0
LINE
  8
QUOTATURA
 10
-96.360334
 11
-93.026334
 20
-230.0
 21
-210.0
  0
LINE
  8
QUOTATURA
 10
-93.026334
 11
-89.692334
 20
-210.0
 21
-230.0
  0
LINE
  8
QUOTATURA
 10
-89.692334
 11
-96.360334
 20
-230.0
 21
-230.0
  0
LINE
  8
QUOTATURA
 10
21.332314
 11
21.332314
 20
-338.0
 21
-157.355622
  0
LINE
  8
QUOTATURA
 10
21.332314
 11
-26.44028
 20
-157.355622
 21
-157.355622
  0
LINE
  8
QUOTATURA
 10
24.666314
 11
21.332314
 20
-318.0
 21
-338.0
  0
LINE
  8
QUOTATURA
 10
21.332314
 11
17.998314
 20
-338.0
 21
-318.0
  0
LINE
  8
QUOTATURA
 10
17.998314
 11
24.666314
 20
-318.0
 21
-318.0
  0
LINE
  8
QUOTATURA
 10
17.998314
 11
21.332314
 20
-220.0
 21
-200.0
  0
LINE
  8
QUOTATURA
 10
21.332314
 11
24.666314
 20
-200.0
 21
-220.0
  0
LINE
  8
QUOTATURA
 10
24.666314
 11
17.998314
 20
-220.0
 21
-220.0
  0
LINE
  8
QUOTATURA
 10
-258.0
 11
-411.653522
 20
2118.120991
 21
2118.120991
  0
LINE
  8
QUOTATURA
 10
-376.0
 11
-396.0
 20
2114.786991
 21
2118.120991
  0
LINE
  8
QUOTATURA
 10
-396.0
 11
-376.0
 20
2118.120991
 21
2121.454991
  0
LINE
  8
QUOTATURA
 10
-376.0
 11
-376.0
 20
2121.454991
 21
2114.786991
  0
LINE
  8
QUOTATURA
 10
-278.0
 11
-258.0
 20
2121.454991
 21
2118.120991
  0
LINE
  8
QUOTATURA
 10
-258.0
 11
-278.0
 20
2118.120991
 21
2114.786991
  0
LINE
  8
QUOTATURA
 10
-278.0
 11
-278.0
 20
2114.786991
 21
2121.454991
  0
CIRCLE
  8
APS_GEOMETRY
 10
440.0
 20
1699.0
 40
25.0
  0
LINE
  8
APS_GEOMETRY
 10
843.5
 11
798.545107
 20
1774.0
 21
1774.0
  0
ARC
  8
APS_GEOMETRY
 10
798.545107
 20
1524.0
 40
250.0
 50
90.0
 51
135.404715
  0
ARC
  8
APS_GEOMETRY
 10
440.0
 20
1877.515312
 40
253.515312
 50
224.595285
 51
315.404715
  0
ARC
  8
APS_GEOMETRY
 10
81.454893
 20
1524.0
 40
250.0
 50
44.595285
 51
90.0
  0
LINE
  8
APS_GEOMETRY
 10
81.454893
 11
36.5
 20
1774.0
 21
1774.0
  0
ARC
  8
APS_GEOMETRY
 10
440.0
 20
1497.515313
 40
53.515312
 50
224.595285
 51
315.404715
  0
ARC
  8
APS_GEOMETRY
 10
798.545107
 20
1244.0
 40
400.0
 50
130.822214
 51
135.404715
  0
ARC
  8
APS_GEOMETRY
 10
440.0
 20
1597.515312
 40
103.515312
 50
224.595285
 51
315.404715
  0
ARC
  8
APS_GEOMETRY
 10
81.454893
 20
1244.0
 40
400.0
 50
44.595285
 51
49.177786
  0
ARC
  8
APS_GEOMETRY
 10
798.545107
 20
1354.0
 40
350.0
 50
126.438803
 51
135.404715
  0
ARC
  8
APS_GEOMETRY
 10
440.0
 20
1707.515312
 40
153.515312
 50
224.595285
 51
315.404715
  0
ARC
  8
APS_GEOMETRY
 10
81.454893
 20
1354.0
 40
350.0
 50
44.595285
 51
53.561197
  0
ARC
  8
APS_GEOMETRY
 10
798.545107
 20
1354.0
 40
345.0
 50
126.438803
 51
135.404715
  0
ARC
  8
APS_GEOMETRY
 10
440.0
 20
1707.515312
 40
158.515312
 50
224.595285
 51
315.404715
  0
ARC
  8
APS_GEOMETRY
 10
81.454893
 20
1354.0
 40
345.0
 50
44.595285
 51
53.561197
  0
ARC
  8
APS_GEOMETRY
 10
798.545107
 20
1244.0
 40
395.0
 50
130.822214
 51
135.404715
  0
ARC
  8
APS_GEOMETRY
 10
440.0
 20
1597.515312
 40
108.515312
 50
224.595285
 51
315.404715
  0
ARC
  8
APS_GEOMETRY
 10
81.454893
 20
1244.0
 40
395.0
 50
44.595285
 51
49.177786
  0
ARC
  8
APS_GEOMETRY
 10
440.0
 20
1497.515312
 40
58.515312
 50
224.595285
 51
315.404715
  0
ARC
  8
APS_GEOMETRY
 10
287.857332
 20
1633.560875
 40
2.5
 50
53.561197
 51
233.561197
  0
ARC
  8
APS_GEOMETRY
 10
592.142668
 20
1633.560875
 40
2.5
 50
306.438803
 51
126.438803
  0
ARC
  8
APS_GEOMETRY
 10
538.693772
 20
1544.80481
 40
2.5
 50
310.822214
 51
130.822214
  0
ARC
  8
APS_GEOMETRY
 10
479.887598
 20
1458.187272
 40
2.5
 50
315.404715
 51
135.404715
  0
ARC
  8
APS_GEOMETRY
 10
479.887598
 20
1458.187272
 40
2.5
 50
135.404715
 51
135.404715
  0
ARC
  8
APS_GEOMETRY
 10
400.112402
 20
1458.187272
 40
2.5
 50
44.595285
 51
224.595285
  0
ARC
  8
APS_GEOMETRY
 10
341.306228
 20
1544.80481
 40
2.5
 50
49.177786
 51
229.177786
  0
ARC
  8
APS_GEOMETRY
 10
341.306228
 20
1544.80481
 40
2.5
 50
229.177786
 51
229.177786
  0
LINE
  8
QUOTATURA
 10
465.057132
 11
444.805126
 20
1694.568684
 21
1695.554488
  0
LINE
  8
QUOTATURA
 10
444.805126
 11
464.281783
 20
1695.554488
 21
1701.191452
  0
LINE
  8
QUOTATURA
 10
464.281783
 11
465.057132
 20
1701.191452
 21
1694.568684
  0
LINE
  8
QUOTATURA
 10
444.805126
 11
1048.24084
 20
1695.554488
 21
1766.20062
  0
LINE
  8
QUOTATURA
 10
1048.24084
 11
1342.599725
 20
1766.20062
 21
1766.20062
  0
LINE
  8
COSTRUZIONI
 10
36.5
 11
843.5
 20
54.5
 21
54.5
  0
LINE
  8
COSTRUZIONI
 10
843.5
 11
36.5
 20
104.5
 21
104.5
  0
LINE
  8
COSTRUZIONI
 10
36.5
 11
843.5
 20
154.5
 21
154.5
  0
LINE
  8
COSTRUZIONI
 10
843.5
 11
36.5
 20
204.5
 21
204.5
  0
LINE
  8
COSTRUZIONI
 10
36.5
 11
843.5
 20
254.5
 21
254.5
  0
LINE
  8
COSTRUZIONI
 10
843.5
 11
36.5
 20
304.5
 21
304.5
  0
LINE
  8
COSTRUZIONI
 10
36.5
 11
843.5
 20
354.5
 21
354.5
  0
LINE
  8
COSTRUZIONI
 10
843.5
 11
36.5
 20
404.5
 21
404.5
  0
LINE
  8
COSTRUZIONI
 10
36.5
 11
843.5
 20
454.5
 21
454.5
  0
LINE
  8
COSTRUZIONI
 10
843.5
 11
36.5
 20
504.5
 21
504.5
  0
LINE
  8
COSTRUZIONI
 10
36.5
 11
843.5
 20
554.5
 21
554.5
  0
LINE
  8
COSTRUZIONI
 10
843.5
 11
36.5
 20
604.5
 21
604.5
  0
LINE
  8
COSTRUZIONI
 10
36.5
 11
843.5
 20
654.5
 21
654.5
  0
LINE
  8
COSTRUZIONI
 10
843.5
 11
36.5
 20
704.5
 21
704.5
  0
LINE
  8
COSTRUZIONI
 10
36.5
 11
843.5
 20
754.5
 21
754.5
  0
LINE
  8
COSTRUZIONI
 10
843.5
 11
36.5
 20
804.5
 21
804.5
  0
LINE
  8
COSTRUZIONI
 10
36.5
 11
843.5
 20
854.5
 21
854.5
  0
LINE
  8
COSTRUZIONI
 10
843.5
 11
36.5
 20
904.5
 21
904.5
  0
LINE
  8
COSTRUZIONI
 10
36.5
 11
71.5
 20
954.5
 21
954.5
  0
LINE
  8
COSTRUZIONI
 10
89.5
 11
103.5
 20
954.5
 21
954.5
  0
LINE
  8
COSTRUZIONI
 10
121.5
 11
843.5
 20
954.5
 21
954.5
  0
LINE
  8
COSTRUZIONI
 10
843.5
 11
36.5
 20
1004.5
 21
1004.5
  0
LINE
  8
COSTRUZIONI
 10
36.5
 11
71.5
 20
1054.5
 21
1054.5
  0
LINE
  8
COSTRUZIONI
 10
86.5
 11
843.5
 20
1054.5
 21
1054.5
  0
LINE
  8
COSTRUZIONI
 10
843.5
 11
36.5
 20
1104.5
 21
1104.5
  0
LINE
  8
COSTRUZIONI
 10
36.5
 11
843.5
 20
1154.5
 21
1154.5
  0
LINE
  8
COSTRUZIONI
 10
843.5
 11
36.5
 20
1204.5
 21
1204.5
  0
LINE
  8
COSTRUZIONI
 10
36.5
 11
843.5
 20
1254.5
 21
1254.5
  0
LINE
  8
COSTRUZIONI
 10
843.5
 11
36.5
 20
1304.5
 21
1304.5
  0
LINE
  8
COSTRUZIONI
 10
36.5
 11
843.5
 20
1354.5
 21
1354.5
  0
LINE
  8
COSTRUZIONI
 10
843.5
 11
36.5
 20
1404.5
 21
1404.5
  0
LINE
  8
COSTRUZIONI
 10
36.5
 11
400.329801
 20
1454.5
 21
1454.5
  0
LINE
  8
COSTRUZIONI
 10
408.163361
 11
471.836639
 20
1454.5
 21
1454.5
  0
LINE
  8
COSTRUZIONI
 10
479.670199
 11
843.5
 20
1454.5
 21
1454.5
  0
LINE
  8
COSTRUZIONI
 10
843.5
 11
495.890292
 20
1504.5
 21
1504.5
  0
LINE
  8
COSTRUZIONI
 10
485.426551
 11
394.573449
 20
1504.5
 21
1504.5
  0
LINE
  8
COSTRUZIONI
 10
384.109708
 11
36.5
 20
1504.5
 21
1504.5
  0
LINE
  8
COSTRUZIONI
 10
36.5
 11
398.606541
 20
1554.5
 21
1554.5
  0
LINE
  8
COSTRUZIONI
 10
427.619963
 11
452.380037
 20
1554.5
 21
1554.5
  0
LINE
  8
COSTRUZIONI
 10
481.393459
 11
843.5
 20
1554.5
 21
1554.5
  0
LINE
  8
COSTRUZIONI
 10
843.5
 11
561.322111
 20
1604.5
 21
1604.5
  0
LINE
  8
COSTRUZIONI
 10
554.107487
 11
325.892513
 20
1604.5
 21
1604.5
  0
LINE
  8
COSTRUZIONI
 10
318.677889
 11
36.5
 20
1604.5
 21
1604.5
  0
LINE
  8
COSTRUZIONI
 10
36.5
 11
319.442196
 20
1654.5
 21
1654.5
  0
LINE
  8
COSTRUZIONI
 10
560.557804
 11
843.5
 20
1654.5
 21
1654.5
  0
LINE
  8
COSTRUZIONI
 10
843.5
 11
625.571843
 20
1704.5
 21
1704.5
  0
LINE
  8
COSTRUZIONI
 10
254.428157
 11
36.5
 20
1704.5
 21
1704.5
  0
LINE
  8
COSTRUZIONI
 10
36.5
 11
178.252362
 20
1754.5
 21
1754.5
  0
LINE
  8
COSTRUZIONI
 10
701.747638
 11
843.5
 20
1754.5
 21
1754.5
  0
LINE
  8
COSTRUZIONI
 10
793.5
 11
793.5
 20
1773.949089
 21
2103.5
  0
LINE
  8
COSTRUZIONI
 10
743.5
 11
743.5
 20
2103.5
 21
1767.864791
  0
LINE
  8
COSTRUZIONI
 10
693.5
 11
693.5
 20
1750.860145
 21
2103.5
  0
LINE
  8
COSTRUZIONI
 10
643.5
 11
643.5
 20
2103.5
 21
1720.1148
  0
LINE
  8
COSTRUZIONI
 10
593.5
 11
593.5
 20
1675.753662
 21
2103.5
  0
LINE
  8
COSTRUZIONI
 10
543.5
 11
543.5
 20
2103.5
 21
1646.089809
  0
LINE
  8
COSTRUZIONI
 10
493.5
 11
493.5
 20
1629.709413
 21
2103.5
  0
LINE
  8
COSTRUZIONI
 10
443.5
 11
443.5
 20
2103.5
 21
1723.753788
  0
LINE
  8
COSTRUZIONI
 10
443.5
 11
443.5
 20
1674.246212
 21
1624.024161
  0
LINE
  8
COSTRUZIONI
 10
393.5
 11
393.5
 20
1628.30102
 21
2103.5
  0
LINE
  8
COSTRUZIONI
 10
343.5
 11
343.5
 20
2103.5
 21
1643.08459
  0
LINE
  8
COSTRUZIONI
 10
293.5
 11
293.5
 20
1670.614941
 21
2103.5
  0
LINE
  8
COSTRUZIONI
 10
243.5
 11
243.5
 20
2103.5
 21
1714.371698
  0
LINE
  8
COSTRUZIONI
 10
193.5
 11
193.5
 20
1747.48578
 21
2103.5
  0
LINE
  8
COSTRUZIONI
 10
143.5
 11
143.5
 20
2103.5
 21
1766.178456
  0
LINE
  8
COSTRUZIONI
 10
93.5
 11
93.5
 20
1773.709662
 21
2103.5
  0
LINE
  8
COSTRUZIONI
 10
43.5
 11
43.5
 20
2103.5
 21
1774.0
  0
LINE
  8
QUOTATURA
 10
553.974888
 11
533.894873
 20
1579.956037
 21
1582.76825
  0
LINE
  8
QUOTATURA
 10
533.894873
 11
553.801301
 20
1582.76825
 21
1586.621777
  0
LINE
  8
QUOTATURA
 10
553.801301
 11
553.974888
 20
1586.621777
 21
1579.956037
  0
LINE
  8
QUOTATURA
 10
533.894873
 11
1025.068859
 20
1582.76825
 21
1595.55924
  0
LINE
  8
QUOTATURA
 10
1025.068859
 11
1160.653344
 20
1595.55924
 21
1595.55924
  0
LINE
  8
QUOTATURA
 10
453.767067
 11
438.434782
 20
1924.977271
 21
1938.245149
  0
LINE
  8
QUOTATURA
 10
438.434782
 11
457.241882
 20
1938.245149
 21
1930.668306
  0
LINE
  8
QUOTATURA
 10
457.241882
 11
453.767067
 20
1930.668306
 21
1924.977271
  0
LINE
  8
QUOTATURA
 10
438.434782
 11
995.725253
 20
1938.245149
 21
1597.976448
  0
TEXT
  8
TEXT
 10
-636.531548
 20
-438.787596
 30
0.0
 40
20.0
 50
0.0
  1
Ufficio tecnico:
  0
TEXT
  8
TEXT
 10
-143.183066
 20
-563.129316
 30
0.0
 40
25.0
 50
0.0
  1
tel. 0577-68.54.26 - fax 0577-68.64.29
  0
TEXT
  8
TEXT
 10
-143.183066
 20
-600.629316
 30
0.0
 40
25.0
 50
0.0
  1
e-mail: tecnico@toscocornici.it - web: www.tosococornici.it
  0
TEXT
  8
TEXT
 10
467.90637
 20
-592.321559
 30
0.0
 40
40.0
 50
0.0
  1
B.Ste
  0
TEXT
  8
TEXT
 10
616.32595
 20
-592.321559
 30
0.0
 40
40.0
 50
0.0
  1
f
  0
TEXT
  8
TEXT
 10
647.011265
 20
-592.321559
 30
0.0
 40
40.0
 50
0.0
  1
ano
  0
TEXT
  8
TEXT
 10
363.68677
 20
-435.825087
 30
0.0
 40
20.0
 50
0.0
  1
documento:
  0
TEXT
  8
TEXT
 10
607.342624
 20
-488.946628
 30
0.0
 40
30.0
 50
0.0
  1
TL_[11]
  0
TEXT
  8
TEXT
 10
864.888237
 20
-435.739357
 30
0.0
 40
20.0
 50
0.0
  1
data:
  0
TEXT
  8
TEXT
 10
1113.987176
 20
-487.231059
 30
0.0
 40
30.0
 50
0.0
  1
12/06/2012
  0
TEXT
  8
TEXT
 10
1122.74077
 20
-587.940109
 30
0.0
 40
30.0
 50
0.0
  1
1 : 10
  0
TEXT
  8
TEXT
 10
361.873475
 20
-534.049523
 30
0.0
 40
20.0
 50
0.0
  1
responsabile tecnico:
  0
TEXT
  8
TEXT
 10
863.469
 20
-534.339626
 30
0.0
 40
20.0
 50
0.0
  1
scala:
  0
TEXT
  8
TEXT
 10
380.84297
 20
-273.229748
 30
0.0
 40
20.0
 50
0.0
  1
SEZ-B
  0
TEXT
  8
TEXT
 10
963.665281
 20
663.881881
 30
0.0
 40
20.0
 50
0.0
  1
SEZ-B
  0
TEXT
  8
QUOTATURA
 10
317.081705
 20
-312.110864
 30
0.0
 40
20.0
 50
0.0
  1
LUCE NETTA=792
  0
TEXT
  8
QUOTATURA
 10
314.20444
 20
-380.634746
 30
0.0
 40
20.0
 50
0.0
  1
EST. TELAIO=880
  0
TEXT
  8
QUOTATURA
 10
368.104388
 20
-161.748618
 30
0.0
 40
20.0
 50
0.0
  1
ANTA=807
  0
TEXT
  8
TEXT
 10
-234.168607
 20
821.126801
 30
0.0
 40
20.0
 50
0.0
  1
SEZ-A
  0
TEXT
  8
TEXT
 10
399.607931
 20
-68.294419
 30
0.0
 40
20.0
 50
0.0
  1
SEZ-A
  0
TEXT
  8
QUOTATURA
 10
-337.329851
 20
974.020908
 30
0.0
 40
20.0
 50
90.0
  1
ANTA=2099
  0
TEXT
  8
QUOTATURA
 10
-416.101879
 20
915.312388
 30
0.0
 40
20.0
 50
90.0
  1
LUCE NETTA=2096
  0
TEXT
  8
QUOTATURA
 10
-472.085377
 20
938.247365
 30
0.0
 40
20.0
 50
90.0
  1
EST. TELAIO=2140
  0
TEXT
  8
QUOTATURA
 10
-345.165837
 20
2215.107548
 30
0.0
 40
20.0
 50
0.0
  1
118
  0
TEXT
  8
QUOTATURA
 10
-111.192149
 20
-279.000023
 30
0.0
 40
20.0
 50
0.0
  1
118
  0
TEXT
  8
QUOTATURA
 10
-75.28847
 20
-167.355622
 30
0.0
 40
20.0
 50
0.0
  1
138
  0
TEXT
  8
QUOTATURA
 10
-460.501712
 20
2108.120991
 30
0.0
 40
20.0
 50
0.0
  1
138
  0
TEXT
  8
TEXT
 10
1057.071607
 20
1780.918564
 30
0.0
 40
20.0
 50
0.0
  1
INSERTO IN METALLO
  0
TEXT
  8
TEXT
 10
1057.071607
 20
1750.918564
 30
0.0
 40
20.0
 50
0.0
  1

  0
TEXT
  8
TEXT
 10
1032.743452
 20
1603.233833
 30
0.0
 40
20.0
 50
0.0
  1
INTARSIO WENGE'
  0
ENDSEC
  0
EOF
