  0
SECTION
  2
ENTITIES
  0
LINE
  8
APS_GEOMETRY
 10
0.0
 11
607.0
 20
0.0
 21
0.0
  0
LINE
  8
APS_GEOMETRY
 10
607.0
 11
607.0
 20
0.0
 21
1849.0
  0
LINE
  8
APS_GEOMETRY
 10
607.0
 11
0.0
 20
1849.0
 21
1849.0
  0
LINE
  8
APS_GEOMETRY
 10
0.0
 11
0.0
 20
1849.0
 21
0.0
  0
LINE
  8
APS_GEOMETRY
 10
220.0614
 11
255.4167
 20
399.7166
 21
435.0719
  0
LINE
  8
APS_GEOMETRY
 10
255.4167
 11
290.7721
 20
435.0719
 21
399.7166
  0
LINE
  8
APS_GEOMETRY
 10
290.7721
 11
255.4167
 20
399.7166
 21
364.3613
  0
LINE
  8
APS_GEOMETRY
 10
255.4167
 11
220.0614
 20
364.3613
 21
399.7166
  0
LINE
  8
APS_GEOMETRY
 10
220.0614
 11
255.4167
 20
399.7166
 21
435.0719
  0
LINE
  8
APS_GEOMETRY
 10
255.4167
 11
290.7721
 20
435.0719
 21
399.7166
  0
LINE
  8
APS_GEOMETRY
 10
290.7721
 11
255.4167
 20
399.7166
 21
364.3613
  0
LINE
  8
APS_GEOMETRY
 10
255.4167
 11
220.0614
 20
364.3613
 21
399.7166
  0
LINE
  8
APS_GEOMETRY
 10
316.2278
 11
351.5831
 20
399.7166
 21
435.0719
  0
LINE
  8
APS_GEOMETRY
 10
351.5831
 11
386.9385
 20
435.0719
 21
399.7166
  0
LINE
  8
APS_GEOMETRY
 10
386.9385
 11
351.5831
 20
399.7166
 21
364.3613
  0
LINE
  8
APS_GEOMETRY
 10
351.5831
 11
316.2278
 20
364.3613
 21
399.7166
  0
LINE
  8
APS_GEOMETRY
 10
123.895
 11
159.2503
 20
399.7166
 21
435.0719
  0
LINE
  8
APS_GEOMETRY
 10
159.2503
 11
194.6057
 20
435.0719
 21
399.7166
  0
LINE
  8
APS_GEOMETRY
 10
194.6057
 11
159.2503
 20
399.7166
 21
364.3613
  0
LINE
  8
APS_GEOMETRY
 10
159.2503
 11
123.895
 20
364.3613
 21
399.7166
  0
LINE
  8
APS_GEOMETRY
 10
412.3942
 11
447.7495
 20
399.7166
 21
435.0719
  0
LINE
  8
APS_GEOMETRY
 10
447.7495
 11
483.1049
 20
435.0719
 21
399.7166
  0
LINE
  8
APS_GEOMETRY
 10
483.1049
 11
447.7495
 20
399.7166
 21
364.3613
  0
LINE
  8
APS_GEOMETRY
 10
447.7495
 11
412.3942
 20
364.3613
 21
399.7166
  0
LINE
  8
APS_GEOMETRY
 10
268.1446
 11
303.4999
 20
351.6333
 21
386.9886
  0
LINE
  8
APS_GEOMETRY
 10
303.4999
 11
338.8553
 20
386.9886
 21
351.6333
  0
LINE
  8
APS_GEOMETRY
 10
338.8553
 11
303.4999
 20
351.6333
 21
316.278
  0
LINE
  8
APS_GEOMETRY
 10
303.4999
 11
268.1446
 20
316.278
 21
351.6333
  0
LINE
  8
APS_GEOMETRY
 10
364.311
 11
399.6663
 20
351.6333
 21
386.9886
  0
LINE
  8
APS_GEOMETRY
 10
399.6663
 11
435.0217
 20
386.9886
 21
351.6333
  0
LINE
  8
APS_GEOMETRY
 10
435.0217
 11
399.6663
 20
351.6333
 21
316.278
  0
LINE
  8
APS_GEOMETRY
 10
399.6663
 11
364.311
 20
316.278
 21
351.6333
  0
LINE
  8
APS_GEOMETRY
 10
171.9782
 11
207.3335
 20
351.6333
 21
386.9886
  0
LINE
  8
APS_GEOMETRY
 10
207.3335
 11
242.6889
 20
386.9886
 21
351.6333
  0
LINE
  8
APS_GEOMETRY
 10
242.6889
 11
207.3335
 20
351.6333
 21
316.278
  0
LINE
  8
APS_GEOMETRY
 10
207.3335
 11
171.9782
 20
316.278
 21
351.6333
  0
LINE
  8
APS_GEOMETRY
 10
268.1445
 11
303.4998
 20
447.7997
 21
483.155
  0
LINE
  8
APS_GEOMETRY
 10
303.4998
 11
338.8552
 20
483.155
 21
447.7997
  0
LINE
  8
APS_GEOMETRY
 10
338.8552
 11
303.4998
 20
447.7997
 21
412.4444
  0
LINE
  8
APS_GEOMETRY
 10
303.4998
 11
268.1445
 20
412.4444
 21
447.7997
  0
LINE
  8
APS_GEOMETRY
 10
364.3109
 11
399.6662
 20
447.7997
 21
483.155
  0
LINE
  8
APS_GEOMETRY
 10
399.6662
 11
435.0216
 20
483.155
 21
447.7997
  0
LINE
  8
APS_GEOMETRY
 10
435.0216
 11
399.6662
 20
447.7997
 21
412.4444
  0
LINE
  8
APS_GEOMETRY
 10
399.6662
 11
364.3109
 20
412.4444
 21
447.7997
  0
LINE
  8
APS_GEOMETRY
 10
75.8117
 11
111.167
 20
447.7997
 21
483.155
  0
LINE
  8
APS_GEOMETRY
 10
111.167
 11
146.5224
 20
483.155
 21
447.7997
  0
LINE
  8
APS_GEOMETRY
 10
146.5224
 11
111.167
 20
447.7997
 21
412.4444
  0
LINE
  8
APS_GEOMETRY
 10
111.167
 11
75.8117
 20
412.4444
 21
447.7997
  0
LINE
  8
APS_GEOMETRY
 10
171.9781
 11
207.3334
 20
447.7997
 21
483.155
  0
LINE
  8
APS_GEOMETRY
 10
207.3334
 11
242.6888
 20
483.155
 21
447.7997
  0
LINE
  8
APS_GEOMETRY
 10
242.6888
 11
207.3334
 20
447.7997
 21
412.4444
  0
LINE
  8
APS_GEOMETRY
 10
207.3334
 11
171.9781
 20
412.4444
 21
447.7997
  0
LINE
  8
APS_GEOMETRY
 10
460.4773
 11
495.8326
 20
447.7997
 21
483.155
  0
LINE
  8
APS_GEOMETRY
 10
495.8326
 11
531.188
 20
483.155
 21
447.7997
  0
LINE
  8
APS_GEOMETRY
 10
531.188
 11
495.8326
 20
447.7997
 21
412.4444
  0
LINE
  8
APS_GEOMETRY
 10
495.8326
 11
460.4773
 20
412.4444
 21
447.7997
  0
LINE
  8
APS_GEOMETRY
 10
268.1445
 11
303.4998
 20
543.9663
 21
579.3216
  0
LINE
  8
APS_GEOMETRY
 10
303.4998
 11
338.8552
 20
579.3216
 21
543.9663
  0
LINE
  8
APS_GEOMETRY
 10
338.8552
 11
303.4998
 20
543.9663
 21
508.611
  0
LINE
  8
APS_GEOMETRY
 10
303.4998
 11
268.1445
 20
508.611
 21
543.9663
  0
LINE
  8
APS_GEOMETRY
 10
364.3109
 11
399.6662
 20
543.9663
 21
579.3216
  0
LINE
  8
APS_GEOMETRY
 10
399.6662
 11
435.0216
 20
579.3216
 21
543.9663
  0
LINE
  8
APS_GEOMETRY
 10
435.0216
 11
399.6662
 20
543.9663
 21
508.611
  0
LINE
  8
APS_GEOMETRY
 10
399.6662
 11
364.3109
 20
508.611
 21
543.9663
  0
LINE
  8
APS_GEOMETRY
 10
171.9781
 11
207.3334
 20
543.9663
 21
579.3216
  0
LINE
  8
APS_GEOMETRY
 10
207.3334
 11
242.6888
 20
579.3216
 21
543.9663
  0
LINE
  8
APS_GEOMETRY
 10
242.6888
 11
207.3334
 20
543.9663
 21
508.611
  0
LINE
  8
APS_GEOMETRY
 10
207.3334
 11
171.9781
 20
508.611
 21
543.9663
  0
LINE
  8
APS_GEOMETRY
 10
316.2277
 11
351.583
 20
495.883
 21
531.2383
  0
LINE
  8
APS_GEOMETRY
 10
351.583
 11
386.9384
 20
531.2383
 21
495.883
  0
LINE
  8
APS_GEOMETRY
 10
386.9384
 11
351.583
 20
495.883
 21
460.5277
  0
LINE
  8
APS_GEOMETRY
 10
351.583
 11
316.2277
 20
460.5277
 21
495.883
  0
LINE
  8
APS_GEOMETRY
 10
412.3941
 11
447.7494
 20
495.883
 21
531.2383
  0
LINE
  8
APS_GEOMETRY
 10
447.7494
 11
483.1048
 20
531.2383
 21
495.883
  0
LINE
  8
APS_GEOMETRY
 10
483.1048
 11
447.7494
 20
495.883
 21
460.5277
  0
LINE
  8
APS_GEOMETRY
 10
447.7494
 11
412.3941
 20
460.5277
 21
495.883
  0
LINE
  8
APS_GEOMETRY
 10
123.8949
 11
159.2502
 20
495.883
 21
531.2383
  0
LINE
  8
APS_GEOMETRY
 10
159.2502
 11
194.6056
 20
531.2383
 21
495.883
  0
LINE
  8
APS_GEOMETRY
 10
194.6056
 11
159.2502
 20
495.883
 21
460.5277
  0
LINE
  8
APS_GEOMETRY
 10
159.2502
 11
123.8949
 20
460.5277
 21
495.883
  0
LINE
  8
APS_GEOMETRY
 10
220.0613
 11
255.4166
 20
495.883
 21
531.2383
  0
LINE
  8
APS_GEOMETRY
 10
255.4166
 11
290.772
 20
531.2383
 21
495.883
  0
LINE
  8
APS_GEOMETRY
 10
290.772
 11
255.4166
 20
495.883
 21
460.5277
  0
LINE
  8
APS_GEOMETRY
 10
255.4166
 11
220.0613
 20
460.5277
 21
495.883
  0
LINE
  8
APS_GEOMETRY
 10
316.2276
 11
351.5829
 20
592.0494
 21
627.4047
  0
LINE
  8
APS_GEOMETRY
 10
351.5829
 11
386.9383
 20
627.4047
 21
592.0494
  0
LINE
  8
APS_GEOMETRY
 10
386.9383
 11
351.5829
 20
592.0494
 21
556.6941
  0
LINE
  8
APS_GEOMETRY
 10
351.5829
 11
316.2276
 20
556.6941
 21
592.0494
  0
LINE
  8
APS_GEOMETRY
 10
412.394
 11
447.7493
 20
592.0494
 21
627.4047
  0
LINE
  8
APS_GEOMETRY
 10
447.7493
 11
483.1047
 20
627.4047
 21
592.0494
  0
LINE
  8
APS_GEOMETRY
 10
483.1047
 11
447.7493
 20
592.0494
 21
556.6941
  0
LINE
  8
APS_GEOMETRY
 10
447.7493
 11
412.394
 20
556.6941
 21
592.0494
  0
LINE
  8
APS_GEOMETRY
 10
123.8948
 11
159.2501
 20
592.0494
 21
627.4047
  0
LINE
  8
APS_GEOMETRY
 10
159.2501
 11
194.6055
 20
627.4047
 21
592.0494
  0
LINE
  8
APS_GEOMETRY
 10
194.6055
 11
159.2501
 20
592.0494
 21
556.6941
  0
LINE
  8
APS_GEOMETRY
 10
159.2501
 11
123.8948
 20
556.6941
 21
592.0494
  0
LINE
  8
APS_GEOMETRY
 10
220.0612
 11
255.4165
 20
592.0494
 21
627.4047
  0
LINE
  8
APS_GEOMETRY
 10
255.4165
 11
290.7719
 20
627.4047
 21
592.0494
  0
LINE
  8
APS_GEOMETRY
 10
290.7719
 11
255.4165
 20
592.0494
 21
556.6941
  0
LINE
  8
APS_GEOMETRY
 10
255.4165
 11
220.0612
 20
556.6941
 21
592.0494
  0
LINE
  8
APS_GEOMETRY
 10
123.8951
 11
159.2504
 20
111.2174
 21
146.5727
  0
LINE
  8
APS_GEOMETRY
 10
159.2504
 11
194.6058
 20
146.5727
 21
111.2174
  0
LINE
  8
APS_GEOMETRY
 10
194.6058
 11
159.2504
 20
111.2174
 21
75.8621
  0
LINE
  8
APS_GEOMETRY
 10
159.2504
 11
123.8951
 20
75.8621
 21
111.2174
  0
LINE
  8
APS_GEOMETRY
 10
412.3943
 11
447.7496
 20
111.2174
 21
146.5727
  0
LINE
  8
APS_GEOMETRY
 10
447.7496
 11
483.105
 20
146.5727
 21
111.2174
  0
LINE
  8
APS_GEOMETRY
 10
483.105
 11
447.7496
 20
111.2174
 21
75.8621
  0
LINE
  8
APS_GEOMETRY
 10
447.7496
 11
412.3943
 20
75.8621
 21
111.2174
  0
LINE
  8
APS_GEOMETRY
 10
364.311
 11
399.6663
 20
159.3005
 21
194.6558
  0
LINE
  8
APS_GEOMETRY
 10
399.6663
 11
435.0217
 20
194.6558
 21
159.3005
  0
LINE
  8
APS_GEOMETRY
 10
435.0217
 11
399.6663
 20
159.3005
 21
123.9452
  0
LINE
  8
APS_GEOMETRY
 10
399.6663
 11
364.311
 20
123.9452
 21
159.3005
  0
LINE
  8
APS_GEOMETRY
 10
171.9782
 11
207.3335
 20
159.3005
 21
194.6558
  0
LINE
  8
APS_GEOMETRY
 10
207.3335
 11
242.6889
 20
194.6558
 21
159.3005
  0
LINE
  8
APS_GEOMETRY
 10
242.6889
 11
207.3335
 20
159.3005
 21
123.9452
  0
LINE
  8
APS_GEOMETRY
 10
207.3335
 11
171.9782
 20
123.9452
 21
159.3005
  0
LINE
  8
APS_GEOMETRY
 10
268.1446
 11
303.4999
 20
255.4671
 21
290.8224
  0
LINE
  8
APS_GEOMETRY
 10
303.4999
 11
338.8553
 20
290.8224
 21
255.4671
  0
LINE
  8
APS_GEOMETRY
 10
338.8553
 11
303.4999
 20
255.4671
 21
220.1118
  0
LINE
  8
APS_GEOMETRY
 10
303.4999
 11
268.1446
 20
220.1118
 21
255.4671
  0
LINE
  8
APS_GEOMETRY
 10
364.311
 11
399.6663
 20
255.4671
 21
290.8224
  0
LINE
  8
APS_GEOMETRY
 10
399.6663
 11
435.0217
 20
290.8224
 21
255.4671
  0
LINE
  8
APS_GEOMETRY
 10
435.0217
 11
399.6663
 20
255.4671
 21
220.1118
  0
LINE
  8
APS_GEOMETRY
 10
399.6663
 11
364.311
 20
220.1118
 21
255.4671
  0
LINE
  8
APS_GEOMETRY
 10
75.8118
 11
111.1671
 20
255.4671
 21
290.8224
  0
LINE
  8
APS_GEOMETRY
 10
111.1671
 11
146.5225
 20
290.8224
 21
255.4671
  0
LINE
  8
APS_GEOMETRY
 10
146.5225
 11
111.1671
 20
255.4671
 21
220.1118
  0
LINE
  8
APS_GEOMETRY
 10
111.1671
 11
75.8118
 20
220.1118
 21
255.4671
  0
LINE
  8
APS_GEOMETRY
 10
171.9782
 11
207.3335
 20
255.4671
 21
290.8224
  0
LINE
  8
APS_GEOMETRY
 10
207.3335
 11
242.6889
 20
290.8224
 21
255.4671
  0
LINE
  8
APS_GEOMETRY
 10
242.6889
 11
207.3335
 20
255.4671
 21
220.1118
  0
LINE
  8
APS_GEOMETRY
 10
207.3335
 11
171.9782
 20
220.1118
 21
255.4671
  0
LINE
  8
APS_GEOMETRY
 10
460.4774
 11
495.8327
 20
255.4671
 21
290.8224
  0
LINE
  8
APS_GEOMETRY
 10
495.8327
 11
531.1881
 20
290.8224
 21
255.4671
  0
LINE
  8
APS_GEOMETRY
 10
531.1881
 11
495.8327
 20
255.4671
 21
220.1118
  0
LINE
  8
APS_GEOMETRY
 10
495.8327
 11
460.4774
 20
220.1118
 21
255.4671
  0
LINE
  8
APS_GEOMETRY
 10
316.2278
 11
351.5831
 20
207.3838
 21
242.7391
  0
LINE
  8
APS_GEOMETRY
 10
351.5831
 11
386.9385
 20
242.7391
 21
207.3838
  0
LINE
  8
APS_GEOMETRY
 10
386.9385
 11
351.5831
 20
207.3838
 21
172.0285
  0
LINE
  8
APS_GEOMETRY
 10
351.5831
 11
316.2278
 20
172.0285
 21
207.3838
  0
LINE
  8
APS_GEOMETRY
 10
412.3942
 11
447.7495
 20
207.3838
 21
242.7391
  0
LINE
  8
APS_GEOMETRY
 10
447.7495
 11
483.1049
 20
242.7391
 21
207.3838
  0
LINE
  8
APS_GEOMETRY
 10
483.1049
 11
447.7495
 20
207.3838
 21
172.0285
  0
LINE
  8
APS_GEOMETRY
 10
447.7495
 11
412.3942
 20
172.0285
 21
207.3838
  0
LINE
  8
APS_GEOMETRY
 10
123.895
 11
159.2503
 20
207.3838
 21
242.7391
  0
LINE
  8
APS_GEOMETRY
 10
159.2503
 11
194.6057
 20
242.7391
 21
207.3838
  0
LINE
  8
APS_GEOMETRY
 10
194.6057
 11
159.2503
 20
207.3838
 21
172.0285
  0
LINE
  8
APS_GEOMETRY
 10
159.2503
 11
123.895
 20
172.0285
 21
207.3838
  0
LINE
  8
APS_GEOMETRY
 10
220.0614
 11
255.4167
 20
207.3838
 21
242.7391
  0
LINE
  8
APS_GEOMETRY
 10
255.4167
 11
290.7721
 20
242.7391
 21
207.3838
  0
LINE
  8
APS_GEOMETRY
 10
290.7721
 11
255.4167
 20
207.3838
 21
172.0285
  0
LINE
  8
APS_GEOMETRY
 10
255.4167
 11
220.0614
 20
172.0285
 21
207.3838
  0
LINE
  8
APS_GEOMETRY
 10
316.2277
 11
351.583
 20
303.5502
 21
338.9055
  0
LINE
  8
APS_GEOMETRY
 10
351.583
 11
386.9384
 20
338.9055
 21
303.5502
  0
LINE
  8
APS_GEOMETRY
 10
386.9384
 11
351.583
 20
303.5502
 21
268.1949
  0
LINE
  8
APS_GEOMETRY
 10
351.583
 11
316.2277
 20
268.1949
 21
303.5502
  0
LINE
  8
APS_GEOMETRY
 10
412.3941
 11
447.7494
 20
303.5502
 21
338.9055
  0
LINE
  8
APS_GEOMETRY
 10
447.7494
 11
483.1048
 20
338.9055
 21
303.5502
  0
LINE
  8
APS_GEOMETRY
 10
483.1048
 11
447.7494
 20
303.5502
 21
268.1949
  0
LINE
  8
APS_GEOMETRY
 10
447.7494
 11
412.3941
 20
268.1949
 21
303.5502
  0
LINE
  8
APS_GEOMETRY
 10
123.8949
 11
159.2502
 20
303.5502
 21
338.9055
  0
LINE
  8
APS_GEOMETRY
 10
159.2502
 11
194.6056
 20
338.9055
 21
303.5502
  0
LINE
  8
APS_GEOMETRY
 10
194.6056
 11
159.2502
 20
303.5502
 21
268.1949
  0
LINE
  8
APS_GEOMETRY
 10
159.2502
 11
123.8949
 20
268.1949
 21
303.5502
  0
LINE
  8
APS_GEOMETRY
 10
220.0613
 11
255.4166
 20
303.5502
 21
338.9055
  0
LINE
  8
APS_GEOMETRY
 10
255.4166
 11
290.772
 20
338.9055
 21
303.5502
  0
LINE
  8
APS_GEOMETRY
 10
290.772
 11
255.4166
 20
303.5502
 21
268.1949
  0
LINE
  8
APS_GEOMETRY
 10
255.4166
 11
220.0613
 20
268.1949
 21
303.5502
  0
LINE
  8
APS_GEOMETRY
 10
220.0612
 11
255.4165
 20
688.216
 21
723.5713
  0
LINE
  8
APS_GEOMETRY
 10
255.4165
 11
290.7719
 20
723.5713
 21
688.216
  0
LINE
  8
APS_GEOMETRY
 10
290.7719
 11
255.4165
 20
688.216
 21
652.8607
  0
LINE
  8
APS_GEOMETRY
 10
255.4165
 11
220.0612
 20
652.8607
 21
688.216
  0
LINE
  8
APS_GEOMETRY
 10
316.2276
 11
351.5829
 20
688.216
 21
723.5713
  0
LINE
  8
APS_GEOMETRY
 10
351.5829
 11
386.9383
 20
723.5713
 21
688.216
  0
LINE
  8
APS_GEOMETRY
 10
386.9383
 11
351.5829
 20
688.216
 21
652.8607
  0
LINE
  8
APS_GEOMETRY
 10
351.5829
 11
316.2276
 20
652.8607
 21
688.216
  0
LINE
  8
APS_GEOMETRY
 10
123.8948
 11
159.2501
 20
688.216
 21
723.5713
  0
LINE
  8
APS_GEOMETRY
 10
159.2501
 11
194.6055
 20
723.5713
 21
688.216
  0
LINE
  8
APS_GEOMETRY
 10
194.6055
 11
159.2501
 20
688.216
 21
652.8607
  0
LINE
  8
APS_GEOMETRY
 10
159.2501
 11
123.8948
 20
652.8607
 21
688.216
  0
LINE
  8
APS_GEOMETRY
 10
412.394
 11
447.7493
 20
688.216
 21
723.5713
  0
LINE
  8
APS_GEOMETRY
 10
447.7493
 11
483.1047
 20
723.5713
 21
688.216
  0
LINE
  8
APS_GEOMETRY
 10
483.1047
 11
447.7493
 20
688.216
 21
652.8607
  0
LINE
  8
APS_GEOMETRY
 10
447.7493
 11
412.394
 20
652.8607
 21
688.216
  0
LINE
  8
APS_GEOMETRY
 10
268.1444
 11
303.4997
 20
640.1327
 21
675.488
  0
LINE
  8
APS_GEOMETRY
 10
303.4997
 11
338.8551
 20
675.488
 21
640.1327
  0
LINE
  8
APS_GEOMETRY
 10
338.8551
 11
303.4997
 20
640.1327
 21
604.7774
  0
LINE
  8
APS_GEOMETRY
 10
303.4997
 11
268.1444
 20
604.7774
 21
640.1327
  0
LINE
  8
APS_GEOMETRY
 10
364.3108
 11
399.6661
 20
640.1327
 21
675.488
  0
LINE
  8
APS_GEOMETRY
 10
399.6661
 11
435.0215
 20
675.488
 21
640.1327
  0
LINE
  8
APS_GEOMETRY
 10
435.0215
 11
399.6661
 20
640.1327
 21
604.7774
  0
LINE
  8
APS_GEOMETRY
 10
399.6661
 11
364.3108
 20
604.7774
 21
640.1327
  0
LINE
  8
APS_GEOMETRY
 10
75.8116
 11
111.1669
 20
640.1327
 21
675.488
  0
LINE
  8
APS_GEOMETRY
 10
111.1669
 11
146.5223
 20
675.488
 21
640.1327
  0
LINE
  8
APS_GEOMETRY
 10
146.5223
 11
111.1669
 20
640.1327
 21
604.7774
  0
LINE
  8
APS_GEOMETRY
 10
111.1669
 11
75.8116
 20
604.7774
 21
640.1327
  0
LINE
  8
APS_GEOMETRY
 10
171.978
 11
207.3333
 20
640.1327
 21
675.488
  0
LINE
  8
APS_GEOMETRY
 10
207.3333
 11
242.6887
 20
675.488
 21
640.1327
  0
LINE
  8
APS_GEOMETRY
 10
242.6887
 11
207.3333
 20
640.1327
 21
604.7774
  0
LINE
  8
APS_GEOMETRY
 10
207.3333
 11
171.978
 20
604.7774
 21
640.1327
  0
LINE
  8
APS_GEOMETRY
 10
460.4772
 11
495.8325
 20
640.1327
 21
675.488
  0
LINE
  8
APS_GEOMETRY
 10
495.8325
 11
531.1879
 20
675.488
 21
640.1327
  0
LINE
  8
APS_GEOMETRY
 10
531.1879
 11
495.8325
 20
640.1327
 21
604.7774
  0
LINE
  8
APS_GEOMETRY
 10
495.8325
 11
460.4772
 20
604.7774
 21
640.1327
  0
LINE
  8
APS_GEOMETRY
 10
268.1443
 11
303.4996
 20
736.2991
 21
771.6544
  0
LINE
  8
APS_GEOMETRY
 10
303.4996
 11
338.855
 20
771.6544
 21
736.2991
  0
LINE
  8
APS_GEOMETRY
 10
338.855
 11
303.4996
 20
736.2991
 21
700.9438
  0
LINE
  8
APS_GEOMETRY
 10
303.4996
 11
268.1443
 20
700.9438
 21
736.2991
  0
LINE
  8
APS_GEOMETRY
 10
364.3107
 11
399.666
 20
736.2991
 21
771.6544
  0
LINE
  8
APS_GEOMETRY
 10
399.666
 11
435.0214
 20
771.6544
 21
736.2991
  0
LINE
  8
APS_GEOMETRY
 10
435.0214
 11
399.666
 20
736.2991
 21
700.9438
  0
LINE
  8
APS_GEOMETRY
 10
399.666
 11
364.3107
 20
700.9438
 21
736.2991
  0
LINE
  8
APS_GEOMETRY
 10
171.9779
 11
207.3332
 20
736.2991
 21
771.6544
  0
LINE
  8
APS_GEOMETRY
 10
207.3332
 11
242.6886
 20
771.6544
 21
736.2991
  0
LINE
  8
APS_GEOMETRY
 10
242.6886
 11
207.3332
 20
736.2991
 21
700.9438
  0
LINE
  8
APS_GEOMETRY
 10
207.3332
 11
171.9779
 20
700.9438
 21
736.2991
  0
LINE
  8
APS_GEOMETRY
 10
364.3107
 11
399.666
 20
832.4657
 21
867.821
  0
LINE
  8
APS_GEOMETRY
 10
399.666
 11
435.0214
 20
867.821
 21
832.4657
  0
LINE
  8
APS_GEOMETRY
 10
435.0214
 11
399.666
 20
832.4657
 21
797.1104
  0
LINE
  8
APS_GEOMETRY
 10
399.666
 11
364.3107
 20
797.1104
 21
832.4657
  0
LINE
  8
APS_GEOMETRY
 10
171.9779
 11
207.3332
 20
832.4657
 21
867.821
  0
LINE
  8
APS_GEOMETRY
 10
207.3332
 11
242.6886
 20
867.821
 21
832.4657
  0
LINE
  8
APS_GEOMETRY
 10
242.6886
 11
207.3332
 20
832.4657
 21
797.1104
  0
LINE
  8
APS_GEOMETRY
 10
207.3332
 11
171.9779
 20
797.1104
 21
832.4657
  0
LINE
  8
APS_GEOMETRY
 10
316.2275
 11
351.5828
 20
784.3824
 21
819.7377
  0
LINE
  8
APS_GEOMETRY
 10
351.5828
 11
386.9382
 20
819.7377
 21
784.3824
  0
LINE
  8
APS_GEOMETRY
 10
386.9382
 11
351.5828
 20
784.3824
 21
749.0271
  0
LINE
  8
APS_GEOMETRY
 10
351.5828
 11
316.2275
 20
749.0271
 21
784.3824
  0
LINE
  8
APS_GEOMETRY
 10
412.3939
 11
447.7492
 20
784.3824
 21
819.7377
  0
LINE
  8
APS_GEOMETRY
 10
447.7492
 11
483.1046
 20
819.7377
 21
784.3824
  0
LINE
  8
APS_GEOMETRY
 10
483.1046
 11
447.7492
 20
784.3824
 21
749.0271
  0
LINE
  8
APS_GEOMETRY
 10
447.7492
 11
412.3939
 20
749.0271
 21
784.3824
  0
LINE
  8
APS_GEOMETRY
 10
123.8947
 11
159.25
 20
784.3824
 21
819.7377
  0
LINE
  8
APS_GEOMETRY
 10
159.25
 11
194.6054
 20
819.7377
 21
784.3824
  0
LINE
  8
APS_GEOMETRY
 10
194.6054
 11
159.25
 20
784.3824
 21
749.0271
  0
LINE
  8
APS_GEOMETRY
 10
159.25
 11
123.8947
 20
749.0271
 21
784.3824
  0
LINE
  8
APS_GEOMETRY
 10
220.0611
 11
255.4164
 20
784.3824
 21
819.7377
  0
LINE
  8
APS_GEOMETRY
 10
255.4164
 11
290.7718
 20
819.7377
 21
784.3824
  0
LINE
  8
APS_GEOMETRY
 10
290.7718
 11
255.4164
 20
784.3824
 21
749.0271
  0
LINE
  8
APS_GEOMETRY
 10
255.4164
 11
220.0611
 20
749.0271
 21
784.3824
  0
LINE
  8
APS_GEOMETRY
 10
412.3938
 11
447.7491
 20
880.5488
 21
915.9041
  0
LINE
  8
APS_GEOMETRY
 10
447.7491
 11
483.1045
 20
915.9041
 21
880.5488
  0
LINE
  8
APS_GEOMETRY
 10
483.1045
 11
447.7491
 20
880.5488
 21
845.1935
  0
LINE
  8
APS_GEOMETRY
 10
447.7491
 11
412.3938
 20
845.1935
 21
880.5488
  0
LINE
  8
APS_GEOMETRY
 10
123.8946
 11
159.2499
 20
880.5488
 21
915.9041
  0
LINE
  8
APS_GEOMETRY
 10
159.2499
 11
194.6053
 20
915.9041
 21
880.5488
  0
LINE
  8
APS_GEOMETRY
 10
194.6053
 11
159.2499
 20
880.5488
 21
845.1935
  0
LINE
  8
APS_GEOMETRY
 10
159.2499
 11
123.8946
 20
845.1935
 21
880.5488
  0
LINE
  8
APS_GEOMETRY
 10
220.0614
 11
255.4167
 20
1449.2834
 21
1413.9281
  0
LINE
  8
APS_GEOMETRY
 10
255.4167
 11
290.7721
 20
1413.9281
 21
1449.2834
  0
LINE
  8
APS_GEOMETRY
 10
290.7721
 11
255.4167
 20
1449.2834
 21
1484.6387
  0
LINE
  8
APS_GEOMETRY
 10
255.4167
 11
220.0614
 20
1484.6387
 21
1449.2834
  0
LINE
  8
APS_GEOMETRY
 10
316.2278
 11
351.5831
 20
1449.2834
 21
1413.9281
  0
LINE
  8
APS_GEOMETRY
 10
351.5831
 11
386.9385
 20
1413.9281
 21
1449.2834
  0
LINE
  8
APS_GEOMETRY
 10
386.9385
 11
351.5831
 20
1449.2834
 21
1484.6387
  0
LINE
  8
APS_GEOMETRY
 10
351.5831
 11
316.2278
 20
1484.6387
 21
1449.2834
  0
LINE
  8
APS_GEOMETRY
 10
123.895
 11
159.2503
 20
1449.2834
 21
1413.9281
  0
LINE
  8
APS_GEOMETRY
 10
159.2503
 11
194.6057
 20
1413.9281
 21
1449.2834
  0
LINE
  8
APS_GEOMETRY
 10
194.6057
 11
159.2503
 20
1449.2834
 21
1484.6387
  0
LINE
  8
APS_GEOMETRY
 10
159.2503
 11
123.895
 20
1484.6387
 21
1449.2834
  0
LINE
  8
APS_GEOMETRY
 10
412.3942
 11
447.7495
 20
1449.2834
 21
1413.9281
  0
LINE
  8
APS_GEOMETRY
 10
447.7495
 11
483.1049
 20
1413.9281
 21
1449.2834
  0
LINE
  8
APS_GEOMETRY
 10
483.1049
 11
447.7495
 20
1449.2834
 21
1484.6387
  0
LINE
  8
APS_GEOMETRY
 10
447.7495
 11
412.3942
 20
1484.6387
 21
1449.2834
  0
LINE
  8
APS_GEOMETRY
 10
268.1446
 11
303.4999
 20
1497.3667
 21
1462.0114
  0
LINE
  8
APS_GEOMETRY
 10
303.4999
 11
338.8553
 20
1462.0114
 21
1497.3667
  0
LINE
  8
APS_GEOMETRY
 10
338.8553
 11
303.4999
 20
1497.3667
 21
1532.722
  0
LINE
  8
APS_GEOMETRY
 10
303.4999
 11
268.1446
 20
1532.722
 21
1497.3667
  0
LINE
  8
APS_GEOMETRY
 10
364.311
 11
399.6663
 20
1497.3667
 21
1462.0114
  0
LINE
  8
APS_GEOMETRY
 10
399.6663
 11
435.0217
 20
1462.0114
 21
1497.3667
  0
LINE
  8
APS_GEOMETRY
 10
435.0217
 11
399.6663
 20
1497.3667
 21
1532.722
  0
LINE
  8
APS_GEOMETRY
 10
399.6663
 11
364.311
 20
1532.722
 21
1497.3667
  0
LINE
  8
APS_GEOMETRY
 10
171.9782
 11
207.3335
 20
1497.3667
 21
1462.0114
  0
LINE
  8
APS_GEOMETRY
 10
207.3335
 11
242.6889
 20
1462.0114
 21
1497.3667
  0
LINE
  8
APS_GEOMETRY
 10
242.6889
 11
207.3335
 20
1497.3667
 21
1532.722
  0
LINE
  8
APS_GEOMETRY
 10
207.3335
 11
171.9782
 20
1532.722
 21
1497.3667
  0
LINE
  8
APS_GEOMETRY
 10
268.1445
 11
303.4998
 20
1401.2003
 21
1365.845
  0
LINE
  8
APS_GEOMETRY
 10
303.4998
 11
338.8552
 20
1365.845
 21
1401.2003
  0
LINE
  8
APS_GEOMETRY
 10
338.8552
 11
303.4998
 20
1401.2003
 21
1436.5556
  0
LINE
  8
APS_GEOMETRY
 10
303.4998
 11
268.1445
 20
1436.5556
 21
1401.2003
  0
LINE
  8
APS_GEOMETRY
 10
364.3109
 11
399.6662
 20
1401.2003
 21
1365.845
  0
LINE
  8
APS_GEOMETRY
 10
399.6662
 11
435.0216
 20
1365.845
 21
1401.2003
  0
LINE
  8
APS_GEOMETRY
 10
435.0216
 11
399.6662
 20
1401.2003
 21
1436.5556
  0
LINE
  8
APS_GEOMETRY
 10
399.6662
 11
364.3109
 20
1436.5556
 21
1401.2003
  0
LINE
  8
APS_GEOMETRY
 10
75.8117
 11
111.167
 20
1401.2003
 21
1365.845
  0
LINE
  8
APS_GEOMETRY
 10
111.167
 11
146.5224
 20
1365.845
 21
1401.2003
  0
LINE
  8
APS_GEOMETRY
 10
146.5224
 11
111.167
 20
1401.2003
 21
1436.5556
  0
LINE
  8
APS_GEOMETRY
 10
111.167
 11
75.8117
 20
1436.5556
 21
1401.2003
  0
LINE
  8
APS_GEOMETRY
 10
171.9781
 11
207.3334
 20
1401.2003
 21
1365.845
  0
LINE
  8
APS_GEOMETRY
 10
207.3334
 11
242.6888
 20
1365.845
 21
1401.2003
  0
LINE
  8
APS_GEOMETRY
 10
242.6888
 11
207.3334
 20
1401.2003
 21
1436.5556
  0
LINE
  8
APS_GEOMETRY
 10
207.3334
 11
171.9781
 20
1436.5556
 21
1401.2003
  0
LINE
  8
APS_GEOMETRY
 10
460.4773
 11
495.8326
 20
1401.2003
 21
1365.845
  0
LINE
  8
APS_GEOMETRY
 10
495.8326
 11
531.188
 20
1365.845
 21
1401.2003
  0
LINE
  8
APS_GEOMETRY
 10
531.188
 11
495.8326
 20
1401.2003
 21
1436.5556
  0
LINE
  8
APS_GEOMETRY
 10
495.8326
 11
460.4773
 20
1436.5556
 21
1401.2003
  0
LINE
  8
APS_GEOMETRY
 10
268.1445
 11
303.4998
 20
1305.0337
 21
1269.6784
  0
LINE
  8
APS_GEOMETRY
 10
303.4998
 11
338.8552
 20
1269.6784
 21
1305.0337
  0
LINE
  8
APS_GEOMETRY
 10
338.8552
 11
303.4998
 20
1305.0337
 21
1340.389
  0
LINE
  8
APS_GEOMETRY
 10
303.4998
 11
268.1445
 20
1340.389
 21
1305.0337
  0
LINE
  8
APS_GEOMETRY
 10
364.3109
 11
399.6662
 20
1305.0337
 21
1269.6784
  0
LINE
  8
APS_GEOMETRY
 10
399.6662
 11
435.0216
 20
1269.6784
 21
1305.0337
  0
LINE
  8
APS_GEOMETRY
 10
435.0216
 11
399.6662
 20
1305.0337
 21
1340.389
  0
LINE
  8
APS_GEOMETRY
 10
399.6662
 11
364.3109
 20
1340.389
 21
1305.0337
  0
LINE
  8
APS_GEOMETRY
 10
171.9781
 11
207.3334
 20
1305.0337
 21
1269.6784
  0
LINE
  8
APS_GEOMETRY
 10
207.3334
 11
242.6888
 20
1269.6784
 21
1305.0337
  0
LINE
  8
APS_GEOMETRY
 10
242.6888
 11
207.3334
 20
1305.0337
 21
1340.389
  0
LINE
  8
APS_GEOMETRY
 10
207.3334
 11
171.9781
 20
1340.389
 21
1305.0337
  0
LINE
  8
APS_GEOMETRY
 10
316.2277
 11
351.583
 20
1353.117
 21
1317.7617
  0
LINE
  8
APS_GEOMETRY
 10
351.583
 11
386.9384
 20
1317.7617
 21
1353.117
  0
LINE
  8
APS_GEOMETRY
 10
386.9384
 11
351.583
 20
1353.117
 21
1388.4723
  0
LINE
  8
APS_GEOMETRY
 10
351.583
 11
316.2277
 20
1388.4723
 21
1353.117
  0
LINE
  8
APS_GEOMETRY
 10
412.3941
 11
447.7494
 20
1353.117
 21
1317.7617
  0
LINE
  8
APS_GEOMETRY
 10
447.7494
 11
483.1048
 20
1317.7617
 21
1353.117
  0
LINE
  8
APS_GEOMETRY
 10
483.1048
 11
447.7494
 20
1353.117
 21
1388.4723
  0
LINE
  8
APS_GEOMETRY
 10
447.7494
 11
412.3941
 20
1388.4723
 21
1353.117
  0
LINE
  8
APS_GEOMETRY
 10
123.8949
 11
159.2502
 20
1353.117
 21
1317.7617
  0
LINE
  8
APS_GEOMETRY
 10
159.2502
 11
194.6056
 20
1317.7617
 21
1353.117
  0
LINE
  8
APS_GEOMETRY
 10
194.6056
 11
159.2502
 20
1353.117
 21
1388.4723
  0
LINE
  8
APS_GEOMETRY
 10
159.2502
 11
123.8949
 20
1388.4723
 21
1353.117
  0
LINE
  8
APS_GEOMETRY
 10
220.0613
 11
255.4166
 20
1353.117
 21
1317.7617
  0
LINE
  8
APS_GEOMETRY
 10
255.4166
 11
290.772
 20
1317.7617
 21
1353.117
  0
LINE
  8
APS_GEOMETRY
 10
290.772
 11
255.4166
 20
1353.117
 21
1388.4723
  0
LINE
  8
APS_GEOMETRY
 10
255.4166
 11
220.0613
 20
1388.4723
 21
1353.117
  0
LINE
  8
APS_GEOMETRY
 10
316.2276
 11
351.5829
 20
1256.9506
 21
1221.5953
  0
LINE
  8
APS_GEOMETRY
 10
351.5829
 11
386.9383
 20
1221.5953
 21
1256.9506
  0
LINE
  8
APS_GEOMETRY
 10
386.9383
 11
351.5829
 20
1256.9506
 21
1292.3059
  0
LINE
  8
APS_GEOMETRY
 10
351.5829
 11
316.2276
 20
1292.3059
 21
1256.9506
  0
LINE
  8
APS_GEOMETRY
 10
412.394
 11
447.7493
 20
1256.9506
 21
1221.5953
  0
LINE
  8
APS_GEOMETRY
 10
447.7493
 11
483.1047
 20
1221.5953
 21
1256.9506
  0
LINE
  8
APS_GEOMETRY
 10
483.1047
 11
447.7493
 20
1256.9506
 21
1292.3059
  0
LINE
  8
APS_GEOMETRY
 10
447.7493
 11
412.394
 20
1292.3059
 21
1256.9506
  0
LINE
  8
APS_GEOMETRY
 10
123.8948
 11
159.2501
 20
1256.9506
 21
1221.5953
  0
LINE
  8
APS_GEOMETRY
 10
159.2501
 11
194.6055
 20
1221.5953
 21
1256.9506
  0
LINE
  8
APS_GEOMETRY
 10
194.6055
 11
159.2501
 20
1256.9506
 21
1292.3059
  0
LINE
  8
APS_GEOMETRY
 10
159.2501
 11
123.8948
 20
1292.3059
 21
1256.9506
  0
LINE
  8
APS_GEOMETRY
 10
220.0612
 11
255.4165
 20
1256.9506
 21
1221.5953
  0
LINE
  8
APS_GEOMETRY
 10
255.4165
 11
290.7719
 20
1221.5953
 21
1256.9506
  0
LINE
  8
APS_GEOMETRY
 10
290.7719
 11
255.4165
 20
1256.9506
 21
1292.3059
  0
LINE
  8
APS_GEOMETRY
 10
255.4165
 11
220.0612
 20
1292.3059
 21
1256.9506
  0
LINE
  8
APS_GEOMETRY
 10
123.8951
 11
159.2504
 20
1737.7826
 21
1702.4273
  0
LINE
  8
APS_GEOMETRY
 10
159.2504
 11
194.6058
 20
1702.4273
 21
1737.7826
  0
LINE
  8
APS_GEOMETRY
 10
194.6058
 11
159.2504
 20
1737.7826
 21
1773.1379
  0
LINE
  8
APS_GEOMETRY
 10
159.2504
 11
123.8951
 20
1773.1379
 21
1737.7826
  0
LINE
  8
APS_GEOMETRY
 10
412.3943
 11
447.7496
 20
1737.7826
 21
1702.4273
  0
LINE
  8
APS_GEOMETRY
 10
447.7496
 11
483.105
 20
1702.4273
 21
1737.7826
  0
LINE
  8
APS_GEOMETRY
 10
483.105
 11
447.7496
 20
1737.7826
 21
1773.1379
  0
LINE
  8
APS_GEOMETRY
 10
447.7496
 11
412.3943
 20
1773.1379
 21
1737.7826
  0
LINE
  8
APS_GEOMETRY
 10
364.311
 11
399.6663
 20
1689.6995
 21
1654.3442
  0
LINE
  8
APS_GEOMETRY
 10
399.6663
 11
435.0217
 20
1654.3442
 21
1689.6995
  0
LINE
  8
APS_GEOMETRY
 10
435.0217
 11
399.6663
 20
1689.6995
 21
1725.0548
  0
LINE
  8
APS_GEOMETRY
 10
399.6663
 11
364.311
 20
1725.0548
 21
1689.6995
  0
LINE
  8
APS_GEOMETRY
 10
171.9782
 11
207.3335
 20
1689.6995
 21
1654.3442
  0
LINE
  8
APS_GEOMETRY
 10
207.3335
 11
242.6889
 20
1654.3442
 21
1689.6995
  0
LINE
  8
APS_GEOMETRY
 10
242.6889
 11
207.3335
 20
1689.6995
 21
1725.0548
  0
LINE
  8
APS_GEOMETRY
 10
207.3335
 11
171.9782
 20
1725.0548
 21
1689.6995
  0
LINE
  8
APS_GEOMETRY
 10
268.1446
 11
303.4999
 20
1593.5329
 21
1558.1776
  0
LINE
  8
APS_GEOMETRY
 10
303.4999
 11
338.8553
 20
1558.1776
 21
1593.5329
  0
LINE
  8
APS_GEOMETRY
 10
338.8553
 11
303.4999
 20
1593.5329
 21
1628.8882
  0
LINE
  8
APS_GEOMETRY
 10
303.4999
 11
268.1446
 20
1628.8882
 21
1593.5329
  0
LINE
  8
APS_GEOMETRY
 10
364.311
 11
399.6663
 20
1593.5329
 21
1558.1776
  0
LINE
  8
APS_GEOMETRY
 10
399.6663
 11
435.0217
 20
1558.1776
 21
1593.5329
  0
LINE
  8
APS_GEOMETRY
 10
435.0217
 11
399.6663
 20
1593.5329
 21
1628.8882
  0
LINE
  8
APS_GEOMETRY
 10
399.6663
 11
364.311
 20
1628.8882
 21
1593.5329
  0
LINE
  8
APS_GEOMETRY
 10
75.8118
 11
111.1671
 20
1593.5329
 21
1558.1776
  0
LINE
  8
APS_GEOMETRY
 10
111.1671
 11
146.5225
 20
1558.1776
 21
1593.5329
  0
LINE
  8
APS_GEOMETRY
 10
146.5225
 11
111.1671
 20
1593.5329
 21
1628.8882
  0
LINE
  8
APS_GEOMETRY
 10
111.1671
 11
75.8118
 20
1628.8882
 21
1593.5329
  0
LINE
  8
APS_GEOMETRY
 10
171.9782
 11
207.3335
 20
1593.5329
 21
1558.1776
  0
LINE
  8
APS_GEOMETRY
 10
207.3335
 11
242.6889
 20
1558.1776
 21
1593.5329
  0
LINE
  8
APS_GEOMETRY
 10
242.6889
 11
207.3335
 20
1593.5329
 21
1628.8882
  0
LINE
  8
APS_GEOMETRY
 10
207.3335
 11
171.9782
 20
1628.8882
 21
1593.5329
  0
LINE
  8
APS_GEOMETRY
 10
460.4774
 11
495.8327
 20
1593.5329
 21
1558.1776
  0
LINE
  8
APS_GEOMETRY
 10
495.8327
 11
531.1881
 20
1558.1776
 21
1593.5329
  0
LINE
  8
APS_GEOMETRY
 10
531.1881
 11
495.8327
 20
1593.5329
 21
1628.8882
  0
LINE
  8
APS_GEOMETRY
 10
495.8327
 11
460.4774
 20
1628.8882
 21
1593.5329
  0
LINE
  8
APS_GEOMETRY
 10
316.2278
 11
351.5831
 20
1641.6162
 21
1606.2609
  0
LINE
  8
APS_GEOMETRY
 10
351.5831
 11
386.9385
 20
1606.2609
 21
1641.6162
  0
LINE
  8
APS_GEOMETRY
 10
386.9385
 11
351.5831
 20
1641.6162
 21
1676.9715
  0
LINE
  8
APS_GEOMETRY
 10
351.5831
 11
316.2278
 20
1676.9715
 21
1641.6162
  0
LINE
  8
APS_GEOMETRY
 10
412.3942
 11
447.7495
 20
1641.6162
 21
1606.2609
  0
LINE
  8
APS_GEOMETRY
 10
447.7495
 11
483.1049
 20
1606.2609
 21
1641.6162
  0
LINE
  8
APS_GEOMETRY
 10
483.1049
 11
447.7495
 20
1641.6162
 21
1676.9715
  0
LINE
  8
APS_GEOMETRY
 10
447.7495
 11
412.3942
 20
1676.9715
 21
1641.6162
  0
LINE
  8
APS_GEOMETRY
 10
123.895
 11
159.2503
 20
1641.6162
 21
1606.2609
  0
LINE
  8
APS_GEOMETRY
 10
159.2503
 11
194.6057
 20
1606.2609
 21
1641.6162
  0
LINE
  8
APS_GEOMETRY
 10
194.6057
 11
159.2503
 20
1641.6162
 21
1676.9715
  0
LINE
  8
APS_GEOMETRY
 10
159.2503
 11
123.895
 20
1676.9715
 21
1641.6162
  0
LINE
  8
APS_GEOMETRY
 10
220.0614
 11
255.4167
 20
1641.6162
 21
1606.2609
  0
LINE
  8
APS_GEOMETRY
 10
255.4167
 11
290.7721
 20
1606.2609
 21
1641.6162
  0
LINE
  8
APS_GEOMETRY
 10
290.7721
 11
255.4167
 20
1641.6162
 21
1676.9715
  0
LINE
  8
APS_GEOMETRY
 10
255.4167
 11
220.0614
 20
1676.9715
 21
1641.6162
  0
LINE
  8
APS_GEOMETRY
 10
316.2277
 11
351.583
 20
1545.4498
 21
1510.0945
  0
LINE
  8
APS_GEOMETRY
 10
351.583
 11
386.9384
 20
1510.0945
 21
1545.4498
  0
LINE
  8
APS_GEOMETRY
 10
386.9384
 11
351.583
 20
1545.4498
 21
1580.8051
  0
LINE
  8
APS_GEOMETRY
 10
351.583
 11
316.2277
 20
1580.8051
 21
1545.4498
  0
LINE
  8
APS_GEOMETRY
 10
412.3941
 11
447.7494
 20
1545.4498
 21
1510.0945
  0
LINE
  8
APS_GEOMETRY
 10
447.7494
 11
483.1048
 20
1510.0945
 21
1545.4498
  0
LINE
  8
APS_GEOMETRY
 10
483.1048
 11
447.7494
 20
1545.4498
 21
1580.8051
  0
LINE
  8
APS_GEOMETRY
 10
447.7494
 11
412.3941
 20
1580.8051
 21
1545.4498
  0
LINE
  8
APS_GEOMETRY
 10
123.8949
 11
159.2502
 20
1545.4498
 21
1510.0945
  0
LINE
  8
APS_GEOMETRY
 10
159.2502
 11
194.6056
 20
1510.0945
 21
1545.4498
  0
LINE
  8
APS_GEOMETRY
 10
194.6056
 11
159.2502
 20
1545.4498
 21
1580.8051
  0
LINE
  8
APS_GEOMETRY
 10
159.2502
 11
123.8949
 20
1580.8051
 21
1545.4498
  0
LINE
  8
APS_GEOMETRY
 10
220.0613
 11
255.4166
 20
1545.4498
 21
1510.0945
  0
LINE
  8
APS_GEOMETRY
 10
255.4166
 11
290.772
 20
1510.0945
 21
1545.4498
  0
LINE
  8
APS_GEOMETRY
 10
290.772
 11
255.4166
 20
1545.4498
 21
1580.8051
  0
LINE
  8
APS_GEOMETRY
 10
255.4166
 11
220.0613
 20
1580.8051
 21
1545.4498
  0
LINE
  8
APS_GEOMETRY
 10
220.0612
 11
255.4165
 20
1160.784
 21
1125.4287
  0
LINE
  8
APS_GEOMETRY
 10
255.4165
 11
290.7719
 20
1125.4287
 21
1160.784
  0
LINE
  8
APS_GEOMETRY
 10
290.7719
 11
255.4165
 20
1160.784
 21
1196.1393
  0
LINE
  8
APS_GEOMETRY
 10
255.4165
 11
220.0612
 20
1196.1393
 21
1160.784
  0
LINE
  8
APS_GEOMETRY
 10
316.2276
 11
351.5829
 20
1160.784
 21
1125.4287
  0
LINE
  8
APS_GEOMETRY
 10
351.5829
 11
386.9383
 20
1125.4287
 21
1160.784
  0
LINE
  8
APS_GEOMETRY
 10
386.9383
 11
351.5829
 20
1160.784
 21
1196.1393
  0
LINE
  8
APS_GEOMETRY
 10
351.5829
 11
316.2276
 20
1196.1393
 21
1160.784
  0
LINE
  8
APS_GEOMETRY
 10
123.8948
 11
159.2501
 20
1160.784
 21
1125.4287
  0
LINE
  8
APS_GEOMETRY
 10
159.2501
 11
194.6055
 20
1125.4287
 21
1160.784
  0
LINE
  8
APS_GEOMETRY
 10
194.6055
 11
159.2501
 20
1160.784
 21
1196.1393
  0
LINE
  8
APS_GEOMETRY
 10
159.2501
 11
123.8948
 20
1196.1393
 21
1160.784
  0
LINE
  8
APS_GEOMETRY
 10
412.394
 11
447.7493
 20
1160.784
 21
1125.4287
  0
LINE
  8
APS_GEOMETRY
 10
447.7493
 11
483.1047
 20
1125.4287
 21
1160.784
  0
LINE
  8
APS_GEOMETRY
 10
483.1047
 11
447.7493
 20
1160.784
 21
1196.1393
  0
LINE
  8
APS_GEOMETRY
 10
447.7493
 11
412.394
 20
1196.1393
 21
1160.784
  0
LINE
  8
APS_GEOMETRY
 10
268.1444
 11
303.4997
 20
1208.8673
 21
1173.512
  0
LINE
  8
APS_GEOMETRY
 10
303.4997
 11
338.8551
 20
1173.512
 21
1208.8673
  0
LINE
  8
APS_GEOMETRY
 10
338.8551
 11
303.4997
 20
1208.8673
 21
1244.2226
  0
LINE
  8
APS_GEOMETRY
 10
303.4997
 11
268.1444
 20
1244.2226
 21
1208.8673
  0
LINE
  8
APS_GEOMETRY
 10
364.3108
 11
399.6661
 20
1208.8673
 21
1173.512
  0
LINE
  8
APS_GEOMETRY
 10
399.6661
 11
435.0215
 20
1173.512
 21
1208.8673
  0
LINE
  8
APS_GEOMETRY
 10
435.0215
 11
399.6661
 20
1208.8673
 21
1244.2226
  0
LINE
  8
APS_GEOMETRY
 10
399.6661
 11
364.3108
 20
1244.2226
 21
1208.8673
  0
LINE
  8
APS_GEOMETRY
 10
75.8116
 11
111.1669
 20
1208.8673
 21
1173.512
  0
LINE
  8
APS_GEOMETRY
 10
111.1669
 11
146.5223
 20
1173.512
 21
1208.8673
  0
LINE
  8
APS_GEOMETRY
 10
146.5223
 11
111.1669
 20
1208.8673
 21
1244.2226
  0
LINE
  8
APS_GEOMETRY
 10
111.1669
 11
75.8116
 20
1244.2226
 21
1208.8673
  0
LINE
  8
APS_GEOMETRY
 10
171.978
 11
207.3333
 20
1208.8673
 21
1173.512
  0
LINE
  8
APS_GEOMETRY
 10
207.3333
 11
242.6887
 20
1173.512
 21
1208.8673
  0
LINE
  8
APS_GEOMETRY
 10
242.6887
 11
207.3333
 20
1208.8673
 21
1244.2226
  0
LINE
  8
APS_GEOMETRY
 10
207.3333
 11
171.978
 20
1244.2226
 21
1208.8673
  0
LINE
  8
APS_GEOMETRY
 10
460.4772
 11
495.8325
 20
1208.8673
 21
1173.512
  0
LINE
  8
APS_GEOMETRY
 10
495.8325
 11
531.1879
 20
1173.512
 21
1208.8673
  0
LINE
  8
APS_GEOMETRY
 10
531.1879
 11
495.8325
 20
1208.8673
 21
1244.2226
  0
LINE
  8
APS_GEOMETRY
 10
495.8325
 11
460.4772
 20
1244.2226
 21
1208.8673
  0
LINE
  8
APS_GEOMETRY
 10
268.1443
 11
303.4996
 20
1112.7009
 21
1077.3456
  0
LINE
  8
APS_GEOMETRY
 10
303.4996
 11
338.855
 20
1077.3456
 21
1112.7009
  0
LINE
  8
APS_GEOMETRY
 10
338.855
 11
303.4996
 20
1112.7009
 21
1148.0562
  0
LINE
  8
APS_GEOMETRY
 10
303.4996
 11
268.1443
 20
1148.0562
 21
1112.7009
  0
LINE
  8
APS_GEOMETRY
 10
364.3107
 11
399.666
 20
1112.7009
 21
1077.3456
  0
LINE
  8
APS_GEOMETRY
 10
399.666
 11
435.0214
 20
1077.3456
 21
1112.7009
  0
LINE
  8
APS_GEOMETRY
 10
435.0214
 11
399.666
 20
1112.7009
 21
1148.0562
  0
LINE
  8
APS_GEOMETRY
 10
399.666
 11
364.3107
 20
1148.0562
 21
1112.7009
  0
LINE
  8
APS_GEOMETRY
 10
171.9779
 11
207.3332
 20
1112.7009
 21
1077.3456
  0
LINE
  8
APS_GEOMETRY
 10
207.3332
 11
242.6886
 20
1077.3456
 21
1112.7009
  0
LINE
  8
APS_GEOMETRY
 10
242.6886
 11
207.3332
 20
1112.7009
 21
1148.0562
  0
LINE
  8
APS_GEOMETRY
 10
207.3332
 11
171.9779
 20
1148.0562
 21
1112.7009
  0
LINE
  8
APS_GEOMETRY
 10
364.3107
 11
399.666
 20
1016.5343
 21
981.179
  0
LINE
  8
APS_GEOMETRY
 10
399.666
 11
435.0214
 20
981.179
 21
1016.5343
  0
LINE
  8
APS_GEOMETRY
 10
435.0214
 11
399.666
 20
1016.5343
 21
1051.8896
  0
LINE
  8
APS_GEOMETRY
 10
399.666
 11
364.3107
 20
1051.8896
 21
1016.5343
  0
LINE
  8
APS_GEOMETRY
 10
171.9779
 11
207.3332
 20
1016.5343
 21
981.179
  0
LINE
  8
APS_GEOMETRY
 10
207.3332
 11
242.6886
 20
981.179
 21
1016.5343
  0
LINE
  8
APS_GEOMETRY
 10
242.6886
 11
207.3332
 20
1016.5343
 21
1051.8896
  0
LINE
  8
APS_GEOMETRY
 10
207.3332
 11
171.9779
 20
1051.8896
 21
1016.5343
  0
LINE
  8
APS_GEOMETRY
 10
316.2275
 11
351.5828
 20
1064.6176
 21
1029.2623
  0
LINE
  8
APS_GEOMETRY
 10
351.5828
 11
386.9382
 20
1029.2623
 21
1064.6176
  0
LINE
  8
APS_GEOMETRY
 10
386.9382
 11
351.5828
 20
1064.6176
 21
1099.9729
  0
LINE
  8
APS_GEOMETRY
 10
351.5828
 11
316.2275
 20
1099.9729
 21
1064.6176
  0
LINE
  8
APS_GEOMETRY
 10
412.3939
 11
447.7492
 20
1064.6176
 21
1029.2623
  0
LINE
  8
APS_GEOMETRY
 10
447.7492
 11
483.1046
 20
1029.2623
 21
1064.6176
  0
LINE
  8
APS_GEOMETRY
 10
483.1046
 11
447.7492
 20
1064.6176
 21
1099.9729
  0
LINE
  8
APS_GEOMETRY
 10
447.7492
 11
412.3939
 20
1099.9729
 21
1064.6176
  0
LINE
  8
APS_GEOMETRY
 10
123.8947
 11
159.25
 20
1064.6176
 21
1029.2623
  0
LINE
  8
APS_GEOMETRY
 10
159.25
 11
194.6054
 20
1029.2623
 21
1064.6176
  0
LINE
  8
APS_GEOMETRY
 10
194.6054
 11
159.25
 20
1064.6176
 21
1099.9729
  0
LINE
  8
APS_GEOMETRY
 10
159.25
 11
123.8947
 20
1099.9729
 21
1064.6176
  0
LINE
  8
APS_GEOMETRY
 10
220.0611
 11
255.4164
 20
1064.6176
 21
1029.2623
  0
LINE
  8
APS_GEOMETRY
 10
255.4164
 11
290.7718
 20
1029.2623
 21
1064.6176
  0
LINE
  8
APS_GEOMETRY
 10
290.7718
 11
255.4164
 20
1064.6176
 21
1099.9729
  0
LINE
  8
APS_GEOMETRY
 10
255.4164
 11
220.0611
 20
1099.9729
 21
1064.6176
  0
LINE
  8
APS_GEOMETRY
 10
412.3938
 11
447.7491
 20
968.4512
 21
933.0959
  0
LINE
  8
APS_GEOMETRY
 10
447.7491
 11
483.1045
 20
933.0959
 21
968.4512
  0
LINE
  8
APS_GEOMETRY
 10
483.1045
 11
447.7491
 20
968.4512
 21
1003.8065
  0
LINE
  8
APS_GEOMETRY
 10
447.7491
 11
412.3938
 20
1003.8065
 21
968.4512
  0
LINE
  8
APS_GEOMETRY
 10
123.8946
 11
159.2499
 20
968.4512
 21
933.0959
  0
LINE
  8
APS_GEOMETRY
 10
159.2499
 11
194.6053
 20
933.0959
 21
968.4512
  0
LINE
  8
APS_GEOMETRY
 10
194.6053
 11
159.2499
 20
968.4512
 21
1003.8065
  0
LINE
  8
APS_GEOMETRY
 10
159.2499
 11
123.8946
 20
1003.8065
 21
968.4512
  0
ENDSEC
  0
EOF
