  0
SECTION
  2
ENTITIES
  0
ARC
  8
APS_GEOMETRY
 10
96.0
 20
43.0
 40
2.0
 50
0.0
 51
90.0
  0
LINE
  8
APS_GEOMETRY
 10
96.0
 11
10.0
 20
45.0
 21
45.0
  0
ARC
  8
APS_GEOMETRY
 10
10.0
 20
35.0
 40
10.0
 50
90.0
 51
180.0
  0
LINE
  8
APS_GEOMETRY
 10
0.0
 11
0.0
 20
35.0
 21
32.0
  0
ARC
  8
APS_GEOMETRY
 10
2.0
 20
32.0
 40
2.0
 50
180.0
 51
270.0
  0
LINE
  8
APS_GEOMETRY
 10
2.0
 11
10.0
 20
30.0
 21
30.0
  0
LINE
  8
APS_GEOMETRY
 10
10.0
 11
10.0
 20
30.0
 21
3.0
  0
ARC
  8
APS_GEOMETRY
 10
13.0
 20
3.0
 40
3.0
 50
180.0
 51
270.0
  0
LINE
  8
APS_GEOMETRY
 10
13.0
 11
96.0
 20
0.0
 21
0.0
  0
ARC
  8
APS_GEOMETRY
 10
96.0
 20
2.0
 40
2.0
 50
270.0
 51
0.0
  0
LINE
  8
COSTRUZIONI
 10
98.0
 11
100.0
 20
43.0
 21
43.0
  0
ARC
  8
COSTRUZIONI
 10
100.0
 20
29.0
 40
14.0
 50
360.0
 51
90.0
  0
ARC
  8
COSTRUZIONI
 10
100.0
 20
16.0
 40
14.0
 50
270.0
 51
360.0
  0
LINE
  8
COSTRUZIONI
 10
100.0
 11
98.0
 20
2.0
 21
2.0
  0
LINE
  8
APS_GEOMETRY
 10
98.0
 11
247.71
 20
29.0
 21
29.0
  0
LINE
  8
APS_GEOMETRY
 10
247.71
 11
247.71
 20
29.0
 21
16.0
  0
LINE
  8
APS_GEOMETRY
 10
247.71
 11
98.0
 20
16.0
 21
16.0
  0
LINE
  8
APS_GEOMETRY
 10
98.0
 11
98.0
 20
16.0
 21
29.0
  0
LINE
  8
APS_GEOMETRY
 10
98.0
 11
98.0
 20
43.0
 21
29.0
  0
ARC
  8
APS_GEOMETRY
 10
1.008
 20
-38.708
 40
4.11
 50
42.904
 51
122.546
  0
ARC
  8
APS_GEOMETRY
 10
-0.047
 20
-37.002
 40
2.106
 50
123.307
 51
253.426
  0
LINE
  8
APS_GEOMETRY
 10
-0.648
 11
2.685
 20
-39.021
 21
-40.132
  0
ARC
  8
APS_GEOMETRY
 10
2.007
 20
-42.285
 40
2.257
 50
299.838
 51
72.504
  0
ARC
  8
APS_GEOMETRY
 10
0.963
 20
-40.486
 40
4.337
 50
240.023
 51
299.974
  0
ARC
  8
APS_GEOMETRY
 10
-0.018
 20
-42.168
 40
2.39
 50
209.759
 51
240.255
  0
LINE
  8
APS_GEOMETRY
 10
12.814
 11
6.148
 20
-34.774
 21
-34.774
  0
LINE
  8
APS_GEOMETRY
 10
6.148
 11
6.148
 20
-34.774
 21
-44.774
  0
LINE
  8
APS_GEOMETRY
 10
6.148
 11
12.814
 20
-44.774
 21
-44.774
  0
LINE
  8
APS_GEOMETRY
 10
6.259
 11
10.592
 20
-39.441
 21
-39.441
  0
LINE
  8
APS_GEOMETRY
 10
14.814
 11
21.408
 20
-34.774
 21
-34.774
  0
LINE
  8
APS_GEOMETRY
 10
21.408
 11
21.408
 20
-34.774
 21
-35.104
  0
LINE
  8
APS_GEOMETRY
 10
21.408
 11
14.814
 20
-35.104
 21
-44.445
  0
LINE
  8
APS_GEOMETRY
 10
14.814
 11
14.814
 20
-44.445
 21
-44.774
  0
LINE
  8
APS_GEOMETRY
 10
14.814
 11
21.408
 20
-44.774
 21
-44.774
  0
LINE
  8
APS_GEOMETRY
 10
25.765
 11
25.765
 20
-34.774
 21
-44.774
  0
LINE
  8
APS_GEOMETRY
 10
23.408
 11
25.765
 20
-44.777
 21
-44.774
  0
LINE
  8
APS_GEOMETRY
 10
25.765
 11
28.121
 20
-44.774
 21
-44.777
  0
LINE
  8
APS_GEOMETRY
 10
23.408
 11
25.765
 20
-34.777
 21
-34.774
  0
LINE
  8
APS_GEOMETRY
 10
25.765
 11
28.121
 20
-34.774
 21
-34.777
  0
ARC
  8
APS_GEOMETRY
 10
33.059
 20
-41.465
 40
3.274
 50
218.689
 51
321.311
  0
ARC
  8
APS_GEOMETRY
 10
30.884
 20
-39.678
 40
6.088
 50
320.978
 51
39.021
  0
ARC
  8
APS_GEOMETRY
 10
33.059
 20
-37.891
 40
3.274
 50
38.688
 51
141.313
  0
ARC
  8
APS_GEOMETRY
 10
35.234
 20
-39.678
 40
6.088
 50
140.979
 51
219.021
  0
LINE
  8
APS_GEOMETRY
 10
37.948
 11
37.948
 20
-44.774
 21
-34.774
  0
LINE
  8
APS_GEOMETRY
 10
37.948
 11
38.504
 20
-34.774
 21
-34.774
  0
LINE
  8
APS_GEOMETRY
 10
38.504
 11
44.06
 20
-34.774
 21
-44.774
  0
LINE
  8
APS_GEOMETRY
 10
44.06
 11
44.615
 20
-44.774
 21
-44.774
  0
LINE
  8
APS_GEOMETRY
 10
44.615
 11
44.615
 20
-44.774
 21
-34.774
  0
LINE
  8
APS_GEOMETRY
 10
53.282
 11
46.615
 20
-34.774
 21
-34.774
  0
LINE
  8
APS_GEOMETRY
 10
46.615
 11
46.615
 20
-34.774
 21
-44.774
  0
LINE
  8
APS_GEOMETRY
 10
46.615
 11
53.282
 20
-44.774
 21
-44.774
  0
LINE
  8
APS_GEOMETRY
 10
46.726
 11
51.06
 20
-39.441
 21
-39.441
  0
LINE
  8
APS_GEOMETRY
 10
64.782
 11
69.56
 20
-39.885
 21
-39.885
  0
ARC
  8
APS_GEOMETRY
 10
69.56
 20
-37.33
 40
2.556
 50
270.0
 51
90.0
  0
LINE
  8
APS_GEOMETRY
 10
69.56
 11
64.782
 20
-34.774
 21
-34.774
  0
LINE
  8
APS_GEOMETRY
 10
64.782
 11
64.782
 20
-34.774
 21
-44.774
  0
ARC
  8
APS_GEOMETRY
 10
77.053
 20
-41.465
 40
3.274
 50
218.689
 51
321.311
  0
ARC
  8
APS_GEOMETRY
 10
74.879
 20
-39.678
 40
6.088
 50
320.978
 51
39.021
  0
ARC
  8
APS_GEOMETRY
 10
77.053
 20
-37.891
 40
3.274
 50
38.688
 51
141.313
  0
ARC
  8
APS_GEOMETRY
 10
79.228
 20
-39.678
 40
6.088
 50
140.979
 51
219.021
  0
LINE
  8
APS_GEOMETRY
 10
81.943
 11
86.721
 20
-39.885
 21
-39.885
  0
ARC
  8
APS_GEOMETRY
 10
86.721
 20
-37.33
 40
2.556
 50
270.0
 51
90.0
  0
LINE
  8
APS_GEOMETRY
 10
86.721
 11
81.943
 20
-34.774
 21
-34.774
  0
LINE
  8
APS_GEOMETRY
 10
81.943
 11
81.943
 20
-34.774
 21
-44.774
  0
LINE
  8
APS_GEOMETRY
 10
86.387
 11
88.609
 20
-39.885
 21
-44.774
  0
LINE
  8
APS_GEOMETRY
 10
94.206
 11
94.206
 20
-34.817
 21
-44.706
  0
LINE
  8
APS_GEOMETRY
 10
90.317
 11
98.095
 20
-34.706
 21
-34.706
  0
LINE
  8
APS_GEOMETRY
 10
98.276
 11
104.387
 20
-42.552
 21
-42.552
  0
LINE
  8
APS_GEOMETRY
 10
97.054
 11
100.943
 20
-44.774
 21
-34.774
  0
LINE
  8
APS_GEOMETRY
 10
100.943
 11
101.832
 20
-34.774
 21
-34.774
  0
LINE
  8
APS_GEOMETRY
 10
101.832
 11
105.498
 20
-34.774
 21
-44.774
  0
LINE
  8
APS_GEOMETRY
 10
118.928
 11
118.928
 20
-34.817
 21
-44.706
  0
LINE
  8
APS_GEOMETRY
 10
115.039
 11
122.817
 20
-34.706
 21
-34.706
  0
LINE
  8
APS_GEOMETRY
 10
126.133
 11
126.133
 20
-34.774
 21
-44.774
  0
LINE
  8
APS_GEOMETRY
 10
123.776
 11
126.133
 20
-44.777
 21
-44.774
  0
LINE
  8
APS_GEOMETRY
 10
126.133
 11
128.49
 20
-44.774
 21
-44.777
  0
LINE
  8
APS_GEOMETRY
 10
123.776
 11
126.133
 20
-34.777
 21
-34.774
  0
LINE
  8
APS_GEOMETRY
 10
126.133
 11
128.49
 20
-34.774
 21
-34.777
  0
LINE
  8
APS_GEOMETRY
 10
130.489
 11
135.267
 20
-39.885
 21
-39.885
  0
ARC
  8
APS_GEOMETRY
 10
135.267
 20
-37.33
 40
2.556
 50
270.0
 51
90.0
  0
LINE
  8
APS_GEOMETRY
 10
135.267
 11
130.489
 20
-34.774
 21
-34.774
  0
LINE
  8
APS_GEOMETRY
 10
130.489
 11
130.489
 20
-34.774
 21
-44.774
  0
ARC
  8
APS_GEOMETRY
 10
142.761
 20
-41.465
 40
3.274
 50
218.689
 51
321.311
  0
ARC
  8
APS_GEOMETRY
 10
140.586
 20
-39.678
 40
6.088
 50
320.978
 51
39.021
  0
ARC
  8
APS_GEOMETRY
 10
142.761
 20
-37.891
 40
3.274
 50
38.688
 51
141.313
  0
ARC
  8
APS_GEOMETRY
 10
144.935
 20
-39.678
 40
6.088
 50
140.979
 51
219.021
  0
LINE
  8
APS_GEOMETRY
 10
163.817
 11
157.15
 20
-44.774
 21
-44.774
  0
ARC
  8
APS_GEOMETRY
 10
160.675
 20
-44.769
 40
3.525
 50
121.814
 51
180.077
  0
LINE
  8
APS_GEOMETRY
 10
158.817
 11
162.595
 20
-41.774
 21
-39.441
  0
ARC
  8
APS_GEOMETRY
 10
161.365
 20
-37.33
 40
2.443
 50
300.22
 51
59.779
  0
ARC
  8
APS_GEOMETRY
 10
160.706
 20
-38.729
 40
3.986
 50
61.714
 51
118.284
  0
ARC
  8
APS_GEOMETRY
 10
159.935
 20
-37.32
 40
2.381
 50
118.021
 51
169.472
  0
LINE
  8
QUOTATURA
 10
0.0
 11
0.0
 20
55.0
 21
95.71
  0
LINE
  8
QUOTATURA
 10
114.0
 11
114.0
 20
49.0
 21
95.71
  0
LINE
  8
QUOTATURA
 10
0.0
 11
50.876
 20
75.71
 21
75.71
  0
LINE
  8
QUOTATURA
 10
63.124
 11
114.0
 20
75.71
 21
75.71
  0
LINE
  8
QUOTATURA
 10
5.0
 11
0.0
 20
74.876
 21
75.71
  0
LINE
  8
QUOTATURA
 10
0.0
 11
5.0
 20
75.71
 21
76.543
  0
LINE
  8
QUOTATURA
 10
5.0
 11
5.0
 20
76.543
 21
74.876
  0
LINE
  8
QUOTATURA
 10
109.0
 11
114.0
 20
76.543
 21
75.71
  0
LINE
  8
QUOTATURA
 10
114.0
 11
109.0
 20
75.71
 21
74.876
  0
LINE
  8
QUOTATURA
 10
109.0
 11
109.0
 20
74.876
 21
76.543
  0
LINE
  8
QUOTATURA
 10
52.126
 11
52.984
 20
73.21
 21
73.21
  0
LINE
  8
QUOTATURA
 10
52.984
 11
53.842
 20
73.21
 21
73.21
  0
LINE
  8
QUOTATURA
 10
52.984
 11
52.984
 20
73.21
 21
78.21
  0
LINE
  8
QUOTATURA
 10
52.984
 11
52.126
 20
78.21
 21
77.352
  0
LINE
  8
QUOTATURA
 10
54.842
 11
55.7
 20
73.21
 21
73.21
  0
LINE
  8
QUOTATURA
 10
55.7
 11
56.558
 20
73.21
 21
73.21
  0
LINE
  8
QUOTATURA
 10
55.7
 11
55.7
 20
73.21
 21
78.21
  0
LINE
  8
QUOTATURA
 10
55.7
 11
54.842
 20
78.21
 21
77.352
  0
LINE
  8
QUOTATURA
 10
61.874
 11
57.707
 20
74.878
 21
74.878
  0
LINE
  8
QUOTATURA
 10
57.707
 11
57.707
 20
74.878
 21
75.156
  0
LINE
  8
QUOTATURA
 10
57.707
 11
60.485
 20
75.156
 21
78.211
  0
LINE
  8
QUOTATURA
 10
60.485
 11
60.763
 20
78.211
 21
78.211
  0
LINE
  8
QUOTATURA
 10
60.763
 11
60.763
 20
78.211
 21
73.211
  0
LINE
  8
QUOTATURA
 10
-10.0
 11
-66.682
 20
0.0
 21
0.0
  0
LINE
  8
QUOTATURA
 10
-10.0
 11
-66.682
 20
45.0
 21
45.0
  0
LINE
  8
QUOTATURA
 10
-46.682
 11
-46.682
 20
0.0
 21
18.709
  0
LINE
  8
QUOTATURA
 10
-46.682
 11
-46.682
 20
26.252
 21
45.0
  0
LINE
  8
QUOTATURA
 10
-45.848
 11
-46.682
 20
5.0
 21
0.0
  0
LINE
  8
QUOTATURA
 10
-46.682
 11
-47.515
 20
0.0
 21
5.0
  0
LINE
  8
QUOTATURA
 10
-47.515
 11
-45.848
 20
5.0
 21
5.0
  0
LINE
  8
QUOTATURA
 10
-47.515
 11
-46.682
 20
40.0
 21
45.0
  0
LINE
  8
QUOTATURA
 10
-46.682
 11
-45.848
 20
45.0
 21
40.0
  0
LINE
  8
QUOTATURA
 10
-45.848
 11
-47.515
 20
40.0
 21
40.0
  0
LINE
  8
QUOTATURA
 10
-46.838
 11
-51.005
 20
21.668
 21
21.668
  0
LINE
  8
QUOTATURA
 10
-51.005
 11
-51.005
 20
21.668
 21
21.946
  0
LINE
  8
QUOTATURA
 10
-51.005
 11
-48.227
 20
21.946
 21
25.002
  0
LINE
  8
QUOTATURA
 10
-48.227
 11
-47.949
 20
25.002
 21
25.002
  0
LINE
  8
QUOTATURA
 10
-47.949
 11
-47.949
 20
25.002
 21
20.002
  0
ARC
  8
QUOTATURA
 10
-44.25
 20
21.834
 40
1.866
 50
202.727
 51
247.273
  0
ARC
  8
QUOTATURA
 10
-44.221
 20
21.868
 40
1.909
 50
246.86
 51
293.141
  0
ARC
  8
QUOTATURA
 10
-44.18
 20
21.791
 40
1.822
 50
292.922
 51
357.893
  0
ARC
  8
QUOTATURA
 10
-44.0
 20
21.782
 40
1.641
 50
357.993
 51
71.191
  0
ARC
  8
QUOTATURA
 10
-44.221
 20
21.129
 40
2.33
 50
71.219
 51
108.775
  0
ARC
  8
QUOTATURA
 10
-44.368
 20
21.529
 40
1.904
 50
108.444
 51
138.941
  0
LINE
  8
QUOTATURA
 10
-45.804
 11
-45.415
 20
22.78
 21
25.002
  0
LINE
  8
QUOTATURA
 10
-45.415
 11
-42.915
 20
25.002
 21
25.002
  0
LINE
  8
QUOTATURA
 10
237.71
 11
153.46
 20
29.0
 21
29.0
  0
LINE
  8
QUOTATURA
 10
237.71
 11
153.46
 20
16.0
 21
16.0
  0
LINE
  8
QUOTATURA
 10
163.46
 11
163.46
 20
16.0
 21
4.31
  0
LINE
  8
QUOTATURA
 10
163.46
 11
180.769
 20
4.31
 21
4.31
  0
LINE
  8
QUOTATURA
 10
162.626
 11
163.46
 20
11.0
 21
16.0
  0
LINE
  8
QUOTATURA
 10
163.46
 11
164.293
 20
16.0
 21
11.0
  0
LINE
  8
QUOTATURA
 10
164.293
 11
162.626
 20
11.0
 21
11.0
  0
LINE
  8
QUOTATURA
 10
163.46
 11
163.46
 20
29.0
 21
39.0
  0
LINE
  8
QUOTATURA
 10
164.293
 11
163.46
 20
34.0
 21
29.0
  0
LINE
  8
QUOTATURA
 10
163.46
 11
162.626
 20
29.0
 21
34.0
  0
LINE
  8
QUOTATURA
 10
162.626
 11
164.293
 20
34.0
 21
34.0
  0
LINE
  8
QUOTATURA
 10
182.019
 11
182.877
 20
1.81
 21
1.81
  0
LINE
  8
QUOTATURA
 10
182.877
 11
183.735
 20
1.81
 21
1.81
  0
LINE
  8
QUOTATURA
 10
182.877
 11
182.877
 20
1.81
 21
6.81
  0
LINE
  8
QUOTATURA
 10
182.877
 11
182.019
 20
6.81
 21
5.952
  0
ARC
  8
QUOTATURA
 10
186.236
 20
3.409
 40
1.559
 50
208.752
 51
258.484
  0
ARC
  8
QUOTATURA
 10
186.566
 20
4.839
 40
3.026
 50
257.758
 51
286.48
  0
ARC
  8
QUOTATURA
 10
187.036
 20
3.304
 40
1.421
 50
285.885
 51
325.197
  0
ARC
  8
QUOTATURA
 10
187.047
 20
3.313
 40
1.417
 50
324.639
 51
31.269
  0
ARC
  8
QUOTATURA
 10
187.0
 20
3.296
 40
1.466
 50
30.855
 51
75.402
  0
ARC
  8
QUOTATURA
 10
186.702
 20
2.111
 40
2.688
 50
75.639
 51
104.361
  0
ARC
  8
QUOTATURA
 10
185.046
 20
7.577
 40
3.029
 50
289.068
 51
345.638
  0
LINE
  8
QUOTATURA
 10
187.98
 11
184.925
 20
6.826
 21
6.826
  0
ARC
  8
APS_GEOMETRY
 10
1108.346
 20
43.0
 40
2.0
 50
0.0
 51
90.0
  0
LINE
  8
APS_GEOMETRY
 10
1108.346
 11
1022.346
 20
45.0
 21
45.0
  0
ARC
  8
APS_GEOMETRY
 10
1022.346
 20
35.0
 40
10.0
 50
90.0
 51
180.0
  0
LINE
  8
APS_GEOMETRY
 10
1012.346
 11
1012.346
 20
35.0
 21
32.0
  0
ARC
  8
APS_GEOMETRY
 10
1014.346
 20
32.0
 40
2.0
 50
180.0
 51
270.0
  0
LINE
  8
APS_GEOMETRY
 10
1014.346
 11
1022.346
 20
30.0
 21
30.0
  0
LINE
  8
APS_GEOMETRY
 10
1022.346
 11
1022.346
 20
30.0
 21
3.0
  0
ARC
  8
APS_GEOMETRY
 10
1025.346
 20
3.0
 40
3.0
 50
180.0
 51
270.0
  0
LINE
  8
APS_GEOMETRY
 10
1025.346
 11
1108.346
 20
0.0
 21
0.0
  0
ARC
  8
APS_GEOMETRY
 10
1108.346
 20
2.0
 40
2.0
 50
270.0
 51
0.0
  0
LINE
  8
COSTRUZIONI
 10
1110.346
 11
1112.346
 20
43.0
 21
43.0
  0
ARC
  8
COSTRUZIONI
 10
1112.346
 20
29.0
 40
14.0
 50
360.0
 51
90.0
  0
ARC
  8
COSTRUZIONI
 10
1112.346
 20
16.0
 40
14.0
 50
270.0
 51
360.0
  0
LINE
  8
COSTRUZIONI
 10
1112.346
 11
1110.346
 20
2.0
 21
2.0
  0
LINE
  8
APS_GEOMETRY
 10
1110.346
 11
1131.346
 20
29.0
 21
29.0
  0
LINE
  8
APS_GEOMETRY
 10
1131.346
 11
1110.346
 20
16.0
 21
16.0
  0
LINE
  8
APS_GEOMETRY
 10
1110.346
 11
1110.346
 20
16.0
 21
29.0
  0
LINE
  8
APS_GEOMETRY
 10
1110.346
 11
1110.346
 20
43.0
 21
29.0
  0
LINE
  8
QUOTATURA
 10
1012.346
 11
1012.346
 20
55.0
 21
95.71
  0
LINE
  8
QUOTATURA
 10
1126.346
 11
1126.346
 20
49.0
 21
95.71
  0
LINE
  8
QUOTATURA
 10
1012.346
 11
1063.223
 20
75.71
 21
75.71
  0
LINE
  8
QUOTATURA
 10
1075.47
 11
1126.346
 20
75.71
 21
75.71
  0
LINE
  8
QUOTATURA
 10
1017.346
 11
1012.346
 20
74.876
 21
75.71
  0
LINE
  8
QUOTATURA
 10
1012.346
 11
1017.346
 20
75.71
 21
76.543
  0
LINE
  8
QUOTATURA
 10
1017.346
 11
1017.346
 20
76.543
 21
74.876
  0
LINE
  8
QUOTATURA
 10
1121.346
 11
1126.346
 20
76.543
 21
75.71
  0
LINE
  8
QUOTATURA
 10
1126.346
 11
1121.346
 20
75.71
 21
74.876
  0
LINE
  8
QUOTATURA
 10
1121.346
 11
1121.346
 20
74.876
 21
76.543
  0
LINE
  8
QUOTATURA
 10
1064.473
 11
1065.331
 20
73.21
 21
73.21
  0
LINE
  8
QUOTATURA
 10
1065.331
 11
1066.188
 20
73.21
 21
73.21
  0
LINE
  8
QUOTATURA
 10
1065.331
 11
1065.331
 20
73.21
 21
78.21
  0
LINE
  8
QUOTATURA
 10
1065.331
 11
1064.473
 20
78.21
 21
77.352
  0
LINE
  8
QUOTATURA
 10
1067.188
 11
1068.046
 20
73.21
 21
73.21
  0
LINE
  8
QUOTATURA
 10
1068.046
 11
1068.904
 20
73.21
 21
73.21
  0
LINE
  8
QUOTATURA
 10
1068.046
 11
1068.046
 20
73.21
 21
78.21
  0
LINE
  8
QUOTATURA
 10
1068.046
 11
1067.188
 20
78.21
 21
77.352
  0
LINE
  8
QUOTATURA
 10
1074.22
 11
1070.053
 20
74.878
 21
74.878
  0
LINE
  8
QUOTATURA
 10
1070.053
 11
1070.053
 20
74.878
 21
75.156
  0
LINE
  8
QUOTATURA
 10
1070.053
 11
1072.831
 20
75.156
 21
78.211
  0
LINE
  8
QUOTATURA
 10
1072.831
 11
1073.109
 20
78.211
 21
78.211
  0
LINE
  8
QUOTATURA
 10
1073.109
 11
1073.109
 20
78.211
 21
73.211
  0
LINE
  8
QUOTATURA
 10
1002.346
 11
945.665
 20
0.0
 21
0.0
  0
LINE
  8
QUOTATURA
 10
1002.346
 11
945.665
 20
45.0
 21
45.0
  0
LINE
  8
QUOTATURA
 10
965.665
 11
965.665
 20
0.0
 21
18.709
  0
LINE
  8
QUOTATURA
 10
965.665
 11
965.665
 20
26.252
 21
45.0
  0
LINE
  8
QUOTATURA
 10
966.498
 11
965.665
 20
5.0
 21
0.0
  0
LINE
  8
QUOTATURA
 10
965.665
 11
964.831
 20
0.0
 21
5.0
  0
LINE
  8
QUOTATURA
 10
964.831
 11
966.498
 20
5.0
 21
5.0
  0
LINE
  8
QUOTATURA
 10
964.831
 11
965.665
 20
40.0
 21
45.0
  0
LINE
  8
QUOTATURA
 10
965.665
 11
966.498
 20
45.0
 21
40.0
  0
LINE
  8
QUOTATURA
 10
966.498
 11
964.831
 20
40.0
 21
40.0
  0
LINE
  8
QUOTATURA
 10
965.508
 11
961.342
 20
21.668
 21
21.668
  0
LINE
  8
QUOTATURA
 10
961.342
 11
961.342
 20
21.668
 21
21.946
  0
LINE
  8
QUOTATURA
 10
961.342
 11
964.119
 20
21.946
 21
25.002
  0
LINE
  8
QUOTATURA
 10
964.119
 11
964.397
 20
25.002
 21
25.002
  0
LINE
  8
QUOTATURA
 10
964.397
 11
964.397
 20
25.002
 21
20.002
  0
ARC
  8
QUOTATURA
 10
968.097
 20
21.834
 40
1.866
 50
202.727
 51
247.273
  0
ARC
  8
QUOTATURA
 10
968.126
 20
21.868
 40
1.909
 50
246.86
 51
293.141
  0
ARC
  8
QUOTATURA
 10
968.166
 20
21.791
 40
1.822
 50
292.922
 51
357.893
  0
ARC
  8
QUOTATURA
 10
968.347
 20
21.782
 40
1.641
 50
357.993
 51
71.191
  0
ARC
  8
QUOTATURA
 10
968.126
 20
21.129
 40
2.33
 50
71.219
 51
108.775
  0
ARC
  8
QUOTATURA
 10
967.978
 20
21.529
 40
1.904
 50
108.444
 51
138.941
  0
LINE
  8
QUOTATURA
 10
966.543
 11
966.931
 20
22.78
 21
25.002
  0
LINE
  8
QUOTATURA
 10
966.931
 11
969.431
 20
25.002
 21
25.002
  0
LINE
  8
COSTRUZIONI
 10
1147.346
 11
1145.346
 20
43.0
 21
43.0
  0
ARC
  8
COSTRUZIONI
 10
1145.346
 20
29.0
 40
14.0
 50
90.0
 51
180.0
  0
ARC
  8
COSTRUZIONI
 10
1145.346
 20
16.0
 40
14.0
 50
180.0
 51
270.0
  0
LINE
  8
COSTRUZIONI
 10
1145.346
 11
1147.346
 20
2.0
 21
2.0
  0
LINE
  8
APS_GEOMETRY
 10
1147.346
 11
1238.161
 20
43.0
 21
43.0
  0
LINE
  8
APS_GEOMETRY
 10
1145.346
 11
1238.161
 20
2.0
 21
2.0
  0
LINE
  8
QUOTATURA
 10
1235.661
 11
1214.795
 20
2.0
 21
2.0
  0
LINE
  8
QUOTATURA
 10
1217.295
 11
1217.295
 20
43.0
 21
26.252
  0
LINE
  8
QUOTATURA
 10
1217.295
 11
1217.295
 20
18.75
 21
2.0
  0
LINE
  8
QUOTATURA
 10
1216.461
 11
1217.295
 20
38.0
 21
43.0
  0
LINE
  8
QUOTATURA
 10
1217.295
 11
1218.128
 20
43.0
 21
38.0
  0
LINE
  8
QUOTATURA
 10
1218.128
 11
1216.461
 20
38.0
 21
38.0
  0
LINE
  8
QUOTATURA
 10
1218.128
 11
1217.295
 20
7.0
 21
2.0
  0
LINE
  8
QUOTATURA
 10
1217.295
 11
1216.461
 20
2.0
 21
7.0
  0
LINE
  8
QUOTATURA
 10
1216.461
 11
1218.128
 20
7.0
 21
7.0
  0
LINE
  8
COSTRUZIONI
 10
1110.346
 11
1187.616
 20
22.5
 21
22.5
  0
LINE
  8
QUOTATURA
 10
1235.661
 11
1189.465
 20
43.0
 21
43.0
  0
LINE
  8
QUOTATURA
 10
1191.965
 11
1191.965
 20
43.0
 21
36.516
  0
LINE
  8
QUOTATURA
 10
1191.965
 11
1191.965
 20
28.939
 21
22.5
  0
LINE
  8
QUOTATURA
 10
1191.132
 11
1191.965
 20
38.0
 21
43.0
  0
LINE
  8
QUOTATURA
 10
1191.965
 11
1192.799
 20
43.0
 21
38.0
  0
LINE
  8
QUOTATURA
 10
1192.799
 11
1191.132
 20
38.0
 21
38.0
  0
LINE
  8
QUOTATURA
 10
1192.799
 11
1191.965
 20
27.5
 21
22.5
  0
LINE
  8
QUOTATURA
 10
1191.965
 11
1191.132
 20
22.5
 21
27.5
  0
LINE
  8
QUOTATURA
 10
1191.132
 11
1192.799
 20
27.5
 21
27.5
  0
LINE
  8
QUOTATURA
 10
1235.661
 11
1189.465
 20
2.0
 21
2.0
  0
LINE
  8
QUOTATURA
 10
1191.965
 11
1191.965
 20
22.5
 21
16.016
  0
LINE
  8
QUOTATURA
 10
1191.965
 11
1191.965
 20
8.439
 21
2.0
  0
LINE
  8
QUOTATURA
 10
1191.132
 11
1191.965
 20
17.5
 21
22.5
  0
LINE
  8
QUOTATURA
 10
1191.965
 11
1192.799
 20
22.5
 21
17.5
  0
LINE
  8
QUOTATURA
 10
1192.799
 11
1191.132
 20
17.5
 21
17.5
  0
LINE
  8
QUOTATURA
 10
1192.799
 11
1191.965
 20
7.0
 21
2.0
  0
LINE
  8
QUOTATURA
 10
1191.965
 11
1191.132
 20
2.0
 21
7.0
  0
LINE
  8
QUOTATURA
 10
1191.132
 11
1192.799
 20
7.0
 21
7.0
  0
LINE
  8
QUOTATURA
 10
1112.846
 11
1152.168
 20
22.5
 21
22.5
  0
LINE
  8
QUOTATURA
 10
1133.846
 11
1152.168
 20
29.0
 21
29.0
  0
LINE
  8
QUOTATURA
 10
1149.668
 11
1149.668
 20
29.0
 21
34.378
  0
LINE
  8
QUOTATURA
 10
1149.668
 11
1154.726
 20
34.378
 21
34.378
  0
LINE
  8
QUOTATURA
 10
1150.502
 11
1149.668
 20
34.0
 21
29.0
  0
LINE
  8
QUOTATURA
 10
1149.668
 11
1148.835
 20
29.0
 21
34.0
  0
LINE
  8
QUOTATURA
 10
1148.835
 11
1150.502
 20
34.0
 21
34.0
  0
LINE
  8
QUOTATURA
 10
1149.668
 11
1149.668
 20
22.5
 21
12.5
  0
LINE
  8
QUOTATURA
 10
1148.835
 11
1149.668
 20
17.5
 21
22.5
  0
LINE
  8
QUOTATURA
 10
1149.668
 11
1150.502
 20
22.5
 21
17.5
  0
LINE
  8
QUOTATURA
 10
1150.502
 11
1148.835
 20
17.5
 21
17.5
  0
ARC
  8
APS_GEOMETRY
 10
530.521
 20
43.0
 40
2.0
 50
0.0
 51
90.0
  0
LINE
  8
APS_GEOMETRY
 10
530.521
 11
444.521
 20
45.0
 21
45.0
  0
ARC
  8
APS_GEOMETRY
 10
444.521
 20
35.0
 40
10.0
 50
90.0
 51
180.0
  0
LINE
  8
APS_GEOMETRY
 10
434.521
 11
434.521
 20
35.0
 21
32.0
  0
ARC
  8
APS_GEOMETRY
 10
436.521
 20
32.0
 40
2.0
 50
180.0
 51
270.0
  0
LINE
  8
APS_GEOMETRY
 10
436.521
 11
444.521
 20
30.0
 21
30.0
  0
LINE
  8
APS_GEOMETRY
 10
444.521
 11
444.521
 20
30.0
 21
3.0
  0
ARC
  8
APS_GEOMETRY
 10
447.521
 20
3.0
 40
3.0
 50
180.0
 51
270.0
  0
LINE
  8
APS_GEOMETRY
 10
447.521
 11
530.521
 20
0.0
 21
0.0
  0
ARC
  8
APS_GEOMETRY
 10
530.521
 20
2.0
 40
2.0
 50
270.0
 51
0.0
  0
LINE
  8
COSTRUZIONI
 10
532.521
 11
534.521
 20
43.0
 21
43.0
  0
ARC
  8
COSTRUZIONI
 10
534.521
 20
29.0
 40
14.0
 50
360.0
 51
90.0
  0
ARC
  8
COSTRUZIONI
 10
534.521
 20
16.0
 40
14.0
 50
270.0
 51
360.0
  0
LINE
  8
COSTRUZIONI
 10
534.521
 11
532.521
 20
2.0
 21
2.0
  0
LINE
  8
APS_GEOMETRY
 10
532.521
 11
590.751
 20
29.0
 21
29.0
  0
LINE
  8
APS_GEOMETRY
 10
590.751
 11
532.521
 20
16.0
 21
16.0
  0
LINE
  8
APS_GEOMETRY
 10
532.521
 11
532.521
 20
16.0
 21
29.0
  0
LINE
  8
APS_GEOMETRY
 10
532.521
 11
532.521
 20
43.0
 21
29.0
  0
LINE
  8
QUOTATURA
 10
434.521
 11
434.521
 20
55.0
 21
95.71
  0
LINE
  8
QUOTATURA
 10
548.521
 11
548.521
 20
49.0
 21
95.71
  0
LINE
  8
QUOTATURA
 10
434.521
 11
485.397
 20
75.71
 21
75.71
  0
LINE
  8
QUOTATURA
 10
497.645
 11
548.521
 20
75.71
 21
75.71
  0
LINE
  8
QUOTATURA
 10
439.521
 11
434.521
 20
74.876
 21
75.71
  0
LINE
  8
QUOTATURA
 10
434.521
 11
439.521
 20
75.71
 21
76.543
  0
LINE
  8
QUOTATURA
 10
439.521
 11
439.521
 20
76.543
 21
74.876
  0
LINE
  8
QUOTATURA
 10
543.521
 11
548.521
 20
76.543
 21
75.71
  0
LINE
  8
QUOTATURA
 10
548.521
 11
543.521
 20
75.71
 21
74.876
  0
LINE
  8
QUOTATURA
 10
543.521
 11
543.521
 20
74.876
 21
76.543
  0
LINE
  8
QUOTATURA
 10
486.647
 11
487.505
 20
73.21
 21
73.21
  0
LINE
  8
QUOTATURA
 10
487.505
 11
488.363
 20
73.21
 21
73.21
  0
LINE
  8
QUOTATURA
 10
487.505
 11
487.505
 20
73.21
 21
78.21
  0
LINE
  8
QUOTATURA
 10
487.505
 11
486.647
 20
78.21
 21
77.352
  0
LINE
  8
QUOTATURA
 10
489.363
 11
490.221
 20
73.21
 21
73.21
  0
LINE
  8
QUOTATURA
 10
490.221
 11
491.078
 20
73.21
 21
73.21
  0
LINE
  8
QUOTATURA
 10
490.221
 11
490.221
 20
73.21
 21
78.21
  0
LINE
  8
QUOTATURA
 10
490.221
 11
489.363
 20
78.21
 21
77.352
  0
LINE
  8
QUOTATURA
 10
496.395
 11
492.228
 20
74.878
 21
74.878
  0
LINE
  8
QUOTATURA
 10
492.228
 11
492.228
 20
74.878
 21
75.156
  0
LINE
  8
QUOTATURA
 10
492.228
 11
495.006
 20
75.156
 21
78.211
  0
LINE
  8
QUOTATURA
 10
495.006
 11
495.283
 20
78.211
 21
78.211
  0
LINE
  8
QUOTATURA
 10
495.283
 11
495.283
 20
78.211
 21
73.211
  0
LINE
  8
QUOTATURA
 10
424.521
 11
367.839
 20
0.0
 21
0.0
  0
LINE
  8
QUOTATURA
 10
424.521
 11
367.839
 20
45.0
 21
45.0
  0
LINE
  8
QUOTATURA
 10
387.839
 11
387.839
 20
0.0
 21
18.709
  0
LINE
  8
QUOTATURA
 10
387.839
 11
387.839
 20
26.252
 21
45.0
  0
LINE
  8
QUOTATURA
 10
388.673
 11
387.839
 20
5.0
 21
0.0
  0
LINE
  8
QUOTATURA
 10
387.839
 11
387.006
 20
0.0
 21
5.0
  0
LINE
  8
QUOTATURA
 10
387.006
 11
388.673
 20
5.0
 21
5.0
  0
LINE
  8
QUOTATURA
 10
387.006
 11
387.839
 20
40.0
 21
45.0
  0
LINE
  8
QUOTATURA
 10
387.839
 11
388.673
 20
45.0
 21
40.0
  0
LINE
  8
QUOTATURA
 10
388.673
 11
387.006
 20
40.0
 21
40.0
  0
LINE
  8
QUOTATURA
 10
387.683
 11
383.516
 20
21.668
 21
21.668
  0
LINE
  8
QUOTATURA
 10
383.516
 11
383.516
 20
21.668
 21
21.946
  0
LINE
  8
QUOTATURA
 10
383.516
 11
386.294
 20
21.946
 21
25.002
  0
LINE
  8
QUOTATURA
 10
386.294
 11
386.571
 20
25.002
 21
25.002
  0
LINE
  8
QUOTATURA
 10
386.571
 11
386.571
 20
25.002
 21
20.002
  0
ARC
  8
QUOTATURA
 10
390.271
 20
21.834
 40
1.866
 50
202.727
 51
247.273
  0
ARC
  8
QUOTATURA
 10
390.3
 20
21.868
 40
1.909
 50
246.86
 51
293.141
  0
ARC
  8
QUOTATURA
 10
390.341
 20
21.791
 40
1.822
 50
292.922
 51
357.893
  0
ARC
  8
QUOTATURA
 10
390.521
 20
21.782
 40
1.641
 50
357.993
 51
71.191
  0
ARC
  8
QUOTATURA
 10
390.3
 20
21.129
 40
2.33
 50
71.219
 51
108.775
  0
ARC
  8
QUOTATURA
 10
390.153
 20
21.529
 40
1.904
 50
108.444
 51
138.941
  0
LINE
  8
QUOTATURA
 10
388.717
 11
389.106
 20
22.78
 21
25.002
  0
LINE
  8
QUOTATURA
 10
389.106
 11
391.606
 20
25.002
 21
25.002
  0
LINE
  8
APS_GEOMETRY
 10
535.521
 11
535.521
 20
16.0
 21
29.0
  0
LINE
  8
APS_GEOMETRY
 10
682.23
 11
595.521
 20
32.5
 21
32.5
  0
ARC
  8
APS_GEOMETRY
 10
595.521
 20
27.5
 40
5.0
 50
90.0
 51
162.542
  0
ARC
  8
APS_GEOMETRY
 10
595.521
 20
17.5
 40
5.0
 50
197.458
 51
270.0
  0
LINE
  8
APS_GEOMETRY
 10
595.521
 11
682.23
 20
12.5
 21
12.5
  0
ARC
  8
APS_GEOMETRY
 10
96.0
 20
327.789
 40
2.0
 50
0.0
 51
90.0
  0
LINE
  8
APS_GEOMETRY
 10
96.0
 11
10.0
 20
329.789
 21
329.789
  0
ARC
  8
APS_GEOMETRY
 10
10.0
 20
319.789
 40
10.0
 50
90.0
 51
180.0
  0
LINE
  8
APS_GEOMETRY
 10
0.0
 11
0.0
 20
319.789
 21
316.789
  0
ARC
  8
APS_GEOMETRY
 10
2.0
 20
316.789
 40
2.0
 50
180.0
 51
270.0
  0
LINE
  8
APS_GEOMETRY
 10
2.0
 11
10.0
 20
314.789
 21
314.789
  0
LINE
  8
APS_GEOMETRY
 10
10.0
 11
10.0
 20
314.789
 21
287.789
  0
ARC
  8
APS_GEOMETRY
 10
13.0
 20
287.789
 40
3.0
 50
180.0
 51
270.0
  0
LINE
  8
APS_GEOMETRY
 10
13.0
 11
96.0
 20
284.789
 21
284.789
  0
ARC
  8
APS_GEOMETRY
 10
96.0
 20
286.789
 40
2.0
 50
270.0
 51
0.0
  0
ARC
  8
COSTRUZIONI
 10
100.0
 20
300.789
 40
14.0
 50
270.0
 51
360.0
  0
LINE
  8
COSTRUZIONI
 10
100.0
 11
98.0
 20
286.789
 21
286.789
  0
LINE
  8
APS_GEOMETRY
 10
98.0
 11
112.961
 20
313.789
 21
313.789
  0
ARC
  8
APS_GEOMETRY
 10
112.961
 20
314.789
 40
1.0
 50
270.0
 51
4.412
  0
ARC
  8
APS_GEOMETRY
 10
100.0
 20
313.789
 40
14.0
 50
4.412
 51
90.0
  0
LINE
  8
APS_GEOMETRY
 10
100.0
 11
98.0
 20
327.789
 21
327.789
  0
LINE
  8
APS_GEOMETRY
 10
247.71
 11
247.71
 20
306.789
 21
300.789
  0
LINE
  8
APS_GEOMETRY
 10
247.71
 11
98.0
 20
300.789
 21
300.789
  0
LINE
  8
APS_GEOMETRY
 10
98.0
 11
98.0
 20
300.789
 21
313.789
  0
LINE
  8
APS_GEOMETRY
 10
98.0
 11
98.0
 20
327.789
 21
313.789
  0
LINE
  8
QUOTATURA
 10
0.0
 11
0.0
 20
339.789
 21
380.499
  0
LINE
  8
QUOTATURA
 10
114.0
 11
114.0
 20
333.789
 21
380.499
  0
LINE
  8
QUOTATURA
 10
0.0
 11
50.876
 20
360.499
 21
360.499
  0
LINE
  8
QUOTATURA
 10
63.124
 11
114.0
 20
360.499
 21
360.499
  0
LINE
  8
QUOTATURA
 10
5.0
 11
0.0
 20
359.665
 21
360.499
  0
LINE
  8
QUOTATURA
 10
0.0
 11
5.0
 20
360.499
 21
361.332
  0
LINE
  8
QUOTATURA
 10
5.0
 11
5.0
 20
361.332
 21
359.665
  0
LINE
  8
QUOTATURA
 10
109.0
 11
114.0
 20
361.332
 21
360.499
  0
LINE
  8
QUOTATURA
 10
114.0
 11
109.0
 20
360.499
 21
359.665
  0
LINE
  8
QUOTATURA
 10
109.0
 11
109.0
 20
359.665
 21
361.332
  0
LINE
  8
QUOTATURA
 10
52.126
 11
52.984
 20
357.999
 21
357.999
  0
LINE
  8
QUOTATURA
 10
52.984
 11
53.842
 20
357.999
 21
357.999
  0
LINE
  8
QUOTATURA
 10
52.984
 11
52.984
 20
357.999
 21
362.999
  0
LINE
  8
QUOTATURA
 10
52.984
 11
52.126
 20
362.999
 21
362.141
  0
LINE
  8
QUOTATURA
 10
54.842
 11
55.7
 20
357.999
 21
357.999
  0
LINE
  8
QUOTATURA
 10
55.7
 11
56.558
 20
357.999
 21
357.999
  0
LINE
  8
QUOTATURA
 10
55.7
 11
55.7
 20
357.999
 21
362.999
  0
LINE
  8
QUOTATURA
 10
55.7
 11
54.842
 20
362.999
 21
362.141
  0
LINE
  8
QUOTATURA
 10
61.874
 11
57.707
 20
359.667
 21
359.667
  0
LINE
  8
QUOTATURA
 10
57.707
 11
57.707
 20
359.667
 21
359.945
  0
LINE
  8
QUOTATURA
 10
57.707
 11
60.485
 20
359.945
 21
363.001
  0
LINE
  8
QUOTATURA
 10
60.485
 11
60.763
 20
363.001
 21
363.001
  0
LINE
  8
QUOTATURA
 10
60.763
 11
60.763
 20
363.001
 21
358.001
  0
LINE
  8
QUOTATURA
 10
-10.0
 11
-66.682
 20
284.789
 21
284.789
  0
LINE
  8
QUOTATURA
 10
-10.0
 11
-66.682
 20
329.789
 21
329.789
  0
LINE
  8
QUOTATURA
 10
-46.682
 11
-46.682
 20
284.789
 21
303.499
  0
LINE
  8
QUOTATURA
 10
-46.682
 11
-46.682
 20
311.041
 21
329.789
  0
LINE
  8
QUOTATURA
 10
-45.848
 11
-46.682
 20
289.789
 21
284.789
  0
LINE
  8
QUOTATURA
 10
-46.682
 11
-47.515
 20
284.789
 21
289.789
  0
LINE
  8
QUOTATURA
 10
-47.515
 11
-45.848
 20
289.789
 21
289.789
  0
LINE
  8
QUOTATURA
 10
-47.515
 11
-46.682
 20
324.789
 21
329.789
  0
LINE
  8
QUOTATURA
 10
-46.682
 11
-45.848
 20
329.789
 21
324.789
  0
LINE
  8
QUOTATURA
 10
-45.848
 11
-47.515
 20
324.789
 21
324.789
  0
LINE
  8
QUOTATURA
 10
-46.838
 11
-51.005
 20
306.458
 21
306.458
  0
LINE
  8
QUOTATURA
 10
-51.005
 11
-51.005
 20
306.458
 21
306.735
  0
LINE
  8
QUOTATURA
 10
-51.005
 11
-48.227
 20
306.735
 21
309.791
  0
LINE
  8
QUOTATURA
 10
-48.227
 11
-47.949
 20
309.791
 21
309.791
  0
LINE
  8
QUOTATURA
 10
-47.949
 11
-47.949
 20
309.791
 21
304.791
  0
ARC
  8
QUOTATURA
 10
-44.25
 20
306.623
 40
1.866
 50
202.727
 51
247.273
  0
ARC
  8
QUOTATURA
 10
-44.221
 20
306.657
 40
1.909
 50
246.86
 51
293.141
  0
ARC
  8
QUOTATURA
 10
-44.18
 20
306.58
 40
1.822
 50
292.922
 51
357.893
  0
ARC
  8
QUOTATURA
 10
-44.0
 20
306.571
 40
1.641
 50
357.993
 51
71.191
  0
ARC
  8
QUOTATURA
 10
-44.221
 20
305.919
 40
2.33
 50
71.219
 51
108.775
  0
ARC
  8
QUOTATURA
 10
-44.368
 20
306.318
 40
1.904
 50
108.444
 51
138.941
  0
LINE
  8
QUOTATURA
 10
-45.804
 11
-45.415
 20
307.569
 21
309.791
  0
LINE
  8
QUOTATURA
 10
-45.415
 11
-42.915
 20
309.791
 21
309.791
  0
LINE
  8
APS_GEOMETRY
 10
98.0
 11
113.0
 20
313.789
 21
313.789
  0
ARC
  8
APS_GEOMETRY
 10
113.0
 20
312.789
 40
1.0
 50
360.0
 51
90.0
  0
LINE
  8
APS_GEOMETRY
 10
114.0
 11
114.0
 20
312.789
 21
307.789
  0
ARC
  8
APS_GEOMETRY
 10
113.0
 20
307.789
 40
1.0
 50
270.0
 51
360.0
  0
LINE
  8
APS_GEOMETRY
 10
113.0
 11
98.0
 20
306.789
 21
306.789
  0
LINE
  8
APS_GEOMETRY
 10
98.0
 11
247.71
 20
306.789
 21
306.789
  0
LINE
  8
QUOTATURA
 10
173.057
 11
173.057
 20
306.789
 21
324.542
  0
LINE
  8
QUOTATURA
 10
173.057
 11
169.979
 20
324.542
 21
324.542
  0
LINE
  8
QUOTATURA
 10
173.891
 11
173.057
 20
311.789
 21
306.789
  0
LINE
  8
QUOTATURA
 10
173.057
 11
172.224
 20
306.789
 21
311.789
  0
LINE
  8
QUOTATURA
 10
172.224
 11
173.891
 20
311.789
 21
311.789
  0
LINE
  8
QUOTATURA
 10
173.057
 11
173.057
 20
300.789
 21
290.789
  0
LINE
  8
QUOTATURA
 10
172.224
 11
173.057
 20
295.789
 21
300.789
  0
LINE
  8
QUOTATURA
 10
173.057
 11
173.891
 20
300.789
 21
295.789
  0
LINE
  8
QUOTATURA
 10
173.891
 11
172.224
 20
295.789
 21
295.789
  0
LINE
  8
QUOTATURA
 10
588.251
 11
568.576
 20
16.0
 21
16.0
  0
LINE
  8
QUOTATURA
 10
588.251
 11
568.576
 20
29.0
 21
29.0
  0
LINE
  8
QUOTATURA
 10
571.076
 11
571.076
 20
16.0
 21
1.983
  0
LINE
  8
QUOTATURA
 10
571.076
 11
567.041
 20
1.983
 21
1.983
  0
LINE
  8
QUOTATURA
 10
570.242
 11
571.076
 20
11.0
 21
16.0
  0
LINE
  8
QUOTATURA
 10
571.076
 11
571.909
 20
16.0
 21
11.0
  0
LINE
  8
QUOTATURA
 10
571.909
 11
570.242
 20
11.0
 21
11.0
  0
LINE
  8
QUOTATURA
 10
571.076
 11
571.076
 20
29.0
 21
39.0
  0
LINE
  8
QUOTATURA
 10
571.909
 11
571.076
 20
34.0
 21
29.0
  0
LINE
  8
QUOTATURA
 10
571.076
 11
570.242
 20
29.0
 21
34.0
  0
LINE
  8
QUOTATURA
 10
570.242
 11
571.909
 20
34.0
 21
34.0
  0
LINE
  8
QUOTATURA
 10
598.021
 11
611.996
 20
12.5
 21
12.5
  0
LINE
  8
QUOTATURA
 10
598.021
 11
611.996
 20
32.5
 21
32.5
  0
LINE
  8
QUOTATURA
 10
609.496
 11
609.496
 20
12.5
 21
47.264
  0
LINE
  8
QUOTATURA
 10
609.496
 11
599.236
 20
47.264
 21
47.264
  0
LINE
  8
QUOTATURA
 10
610.33
 11
609.496
 20
17.5
 21
12.5
  0
LINE
  8
QUOTATURA
 10
609.496
 11
608.663
 20
12.5
 21
17.5
  0
LINE
  8
QUOTATURA
 10
608.663
 11
610.33
 20
17.5
 21
17.5
  0
LINE
  8
QUOTATURA
 10
608.663
 11
609.496
 20
27.5
 21
32.5
  0
LINE
  8
QUOTATURA
 10
609.496
 11
610.33
 20
32.5
 21
27.5
  0
LINE
  8
QUOTATURA
 10
610.33
 11
608.663
 20
27.5
 21
27.5
  0
TEXT
  8
QUOTATURA
 10
1213.779
 20
20.0
 30
0.0
 40
5.0
 50
0.0
  1
41
  0
TEXT
  8
QUOTATURA
 10
1184.777
 20
30.25
 30
0.0
 40
5.0
 50
0.0
  1
20.5
  0
TEXT
  8
QUOTATURA
 10
1184.777
 20
9.75
 30
0.0
 40
5.0
 50
0.0
  1
20.5
  0
TEXT
  8
QUOTATURA
 10
1155.924
 20
31.878
 30
0.0
 40
5.0
 50
0.0
  1
6.5
  0
TEXT
  8
TEXT
 10
1029.829
 20
-29.789
 30
0.0
 40
10.0
 50
0.0
  1
SEZIONE TIPO 2
  0
TEXT
  8
TEXT
 10
1029.829
 20
-44.789
 30
0.0
 40
10.0
 50
0.0
  1
CON VARIANTE BUGNA
  0
TEXT
  8
TEXT
 10
443.583
 20
-45.194
 30
0.0
 40
10.0
 50
0.0
  1
SEZIONE TIPO 2
  0
TEXT
  8
TEXT
 10
443.583
 20
-60.194
 30
0.0
 40
10.0
 50
0.0
  1
CON BUGNA
  0
TEXT
  8
TEXT
 10
-9.29
 20
251.588
 30
0.0
 40
10.0
 50
0.0
  1
SEZIONE TIPO 2
  0
TEXT
  8
TEXT
 10
-9.29
 20
236.588
 30
0.0
 40
10.0
 50
0.0
  1
CON VETRO DA 6 MM
  0
TEXT
  8
QUOTATURA
 10
165.147
 20
322.042
 30
0.0
 40
5.0
 50
0.0
  1
6
  0
TEXT
  8
QUOTATURA
 10
559.346
 20
-0.517
 30
0.0
 40
5.0
 50
0.0
  1
13
  0
TEXT
  8
QUOTATURA
 10
589.721
 20
44.764
 30
0.0
 40
5.0
 50
0.0
  1
20
  0
ENDSEC
  0
EOF
