  0
SECTION
  2
ENTITIES
  0
LINE
  8
QUOTATURA
 10
0.0
 11
0.0
 20
55.0
 21
95.71
  0
LINE
  8
QUOTATURA
 10
114.0
 11
114.0
 20
49.0
 21
95.71
  0
LINE
  8
QUOTATURA
 10
0.0
 11
50.876
 20
75.71
 21
75.71
  0
LINE
  8
QUOTATURA
 10
63.124
 11
114.0
 20
75.71
 21
75.71
  0
LINE
  8
QUOTATURA
 10
5.0
 11
0.0
 20
74.876
 21
75.71
  0
LINE
  8
QUOTATURA
 10
0.0
 11
5.0
 20
75.71
 21
76.543
  0
LINE
  8
QUOTATURA
 10
5.0
 11
5.0
 20
76.543
 21
74.876
  0
LINE
  8
QUOTATURA
 10
109.0
 11
114.0
 20
76.543
 21
75.71
  0
LINE
  8
QUOTATURA
 10
114.0
 11
109.0
 20
75.71
 21
74.876
  0
LINE
  8
QUOTATURA
 10
109.0
 11
109.0
 20
74.876
 21
76.543
  0
LINE
  8
QUOTATURA
 10
52.126
 11
52.984
 20
73.21
 21
73.21
  0
LINE
  8
QUOTATURA
 10
52.984
 11
53.842
 20
73.21
 21
73.21
  0
LINE
  8
QUOTATURA
 10
52.984
 11
52.984
 20
73.21
 21
78.21
  0
LINE
  8
QUOTATURA
 10
52.984
 11
52.126
 20
78.21
 21
77.352
  0
LINE
  8
QUOTATURA
 10
54.842
 11
55.7
 20
73.21
 21
73.21
  0
LINE
  8
QUOTATURA
 10
55.7
 11
56.558
 20
73.21
 21
73.21
  0
LINE
  8
QUOTATURA
 10
55.7
 11
55.7
 20
73.21
 21
78.21
  0
LINE
  8
QUOTATURA
 10
55.7
 11
54.842
 20
78.21
 21
77.352
  0
LINE
  8
QUOTATURA
 10
61.874
 11
57.707
 20
74.878
 21
74.878
  0
LINE
  8
QUOTATURA
 10
57.707
 11
57.707
 20
74.878
 21
75.156
  0
LINE
  8
QUOTATURA
 10
57.707
 11
60.485
 20
75.156
 21
78.211
  0
LINE
  8
QUOTATURA
 10
60.485
 11
60.763
 20
78.211
 21
78.211
  0
LINE
  8
QUOTATURA
 10
60.763
 11
60.763
 20
78.211
 21
73.211
  0
LINE
  8
QUOTATURA
 10
-10.0
 11
-66.682
 20
0.0
 21
0.0
  0
LINE
  8
QUOTATURA
 10
-10.0
 11
-66.682
 20
45.0
 21
45.0
  0
LINE
  8
QUOTATURA
 10
-46.682
 11
-46.682
 20
0.0
 21
18.709
  0
LINE
  8
QUOTATURA
 10
-46.682
 11
-46.682
 20
26.252
 21
45.0
  0
LINE
  8
QUOTATURA
 10
-45.848
 11
-46.682
 20
5.0
 21
0.0
  0
LINE
  8
QUOTATURA
 10
-46.682
 11
-47.515
 20
0.0
 21
5.0
  0
LINE
  8
QUOTATURA
 10
-47.515
 11
-45.848
 20
5.0
 21
5.0
  0
LINE
  8
QUOTATURA
 10
-47.515
 11
-46.682
 20
40.0
 21
45.0
  0
LINE
  8
QUOTATURA
 10
-46.682
 11
-45.848
 20
45.0
 21
40.0
  0
LINE
  8
QUOTATURA
 10
-45.848
 11
-47.515
 20
40.0
 21
40.0
  0
LINE
  8
QUOTATURA
 10
-46.838
 11
-51.005
 20
21.668
 21
21.668
  0
LINE
  8
QUOTATURA
 10
-51.005
 11
-51.005
 20
21.668
 21
21.946
  0
LINE
  8
QUOTATURA
 10
-51.005
 11
-48.227
 20
21.946
 21
25.002
  0
LINE
  8
QUOTATURA
 10
-48.227
 11
-47.949
 20
25.002
 21
25.002
  0
LINE
  8
QUOTATURA
 10
-47.949
 11
-47.949
 20
25.002
 21
20.002
  0
ARC
  8
QUOTATURA
 10
-44.25
 20
21.834
 40
1.866
 50
202.727
 51
247.273
  0
ARC
  8
QUOTATURA
 10
-44.221
 20
21.868
 40
1.909
 50
246.86
 51
293.141
  0
ARC
  8
QUOTATURA
 10
-44.18
 20
21.791
 40
1.822
 50
292.922
 51
357.893
  0
ARC
  8
QUOTATURA
 10
-44.0
 20
21.782
 40
1.641
 50
357.993
 51
71.191
  0
ARC
  8
QUOTATURA
 10
-44.221
 20
21.129
 40
2.33
 50
71.219
 51
108.775
  0
ARC
  8
QUOTATURA
 10
-44.368
 20
21.529
 40
1.904
 50
108.444
 51
138.941
  0
LINE
  8
QUOTATURA
 10
-45.804
 11
-45.415
 20
22.78
 21
25.002
  0
LINE
  8
QUOTATURA
 10
-45.415
 11
-42.915
 20
25.002
 21
25.002
  0
LINE
  8
APS_GEOMETRY
 10
96.0
 11
13.0
 20
0.0
 21
0.0
  0
ARC
  8
APS_GEOMETRY
 10
13.0
 20
3.0
 40
3.0
 50
180.0
 51
270.0
  0
LINE
  8
APS_GEOMETRY
 10
10.0
 11
10.0
 20
3.0
 21
30.0
  0
LINE
  8
APS_GEOMETRY
 10
10.0
 11
2.0
 20
30.0
 21
30.0
  0
ARC
  8
APS_GEOMETRY
 10
2.0
 20
32.0
 40
2.0
 50
180.0
 51
270.0
  0
LINE
  8
APS_GEOMETRY
 10
0.0
 11
0.0
 20
32.0
 21
40.0
  0
ARC
  8
APS_GEOMETRY
 10
5.0
 20
40.0
 40
5.0
 50
90.0
 51
180.0
  0
LINE
  8
APS_GEOMETRY
 10
5.0
 11
96.0
 20
45.0
 21
45.0
  0
LINE
  8
APS_GEOMETRY
 10
96.0
 11
98.0
 20
45.0
 21
43.0
  0
LINE
  8
COSTRUZIONI
 10
98.0
 11
113.0
 20
33.5
 21
33.5
  0
LINE
  8
COSTRUZIONI
 10
113.0
 11
114.0
 20
33.5
 21
34.5
  0
LINE
  8
COSTRUZIONI
 10
114.0
 11
114.0
 20
34.5
 21
43.0
  0
LINE
  8
COSTRUZIONI
 10
114.0
 11
112.0
 20
43.0
 21
45.0
  0
LINE
  8
COSTRUZIONI
 10
112.0
 11
100.0
 20
45.0
 21
45.0
  0
LINE
  8
COSTRUZIONI
 10
100.0
 11
98.0
 20
45.0
 21
43.0
  0
LINE
  8
COSTRUZIONI
 10
98.0
 11
98.0
 20
43.0
 21
33.5
  0
LINE
  8
APS_GEOMETRY
 10
98.0
 11
98.0
 20
43.0
 21
11.5
  0
LINE
  8
APS_GEOMETRY
 10
98.0
 11
113.0
 20
11.5
 21
11.5
  0
LINE
  8
APS_GEOMETRY
 10
113.0
 11
114.0
 20
11.5
 21
10.5
  0
LINE
  8
APS_GEOMETRY
 10
114.0
 11
114.0
 20
10.5
 21
2.0
  0
LINE
  8
APS_GEOMETRY
 10
114.0
 11
112.0
 20
2.0
 21
0.0
  0
LINE
  8
APS_GEOMETRY
 10
112.0
 11
98.0
 20
0.0
 21
0.0
  0
LINE
  8
APS_GEOMETRY
 10
98.0
 11
96.0
 20
0.0
 21
0.0
  0
LINE
  8
APS_GEOMETRY
 10
113.0
 11
284.059
 20
33.5
 21
33.5
  0
LINE
  8
APS_GEOMETRY
 10
284.059
 11
284.059
 20
33.5
 21
11.5
  0
LINE
  8
APS_GEOMETRY
 10
284.059
 11
113.0
 20
11.5
 21
11.5
  0
LINE
  8
QUOTATURA
 10
138.0
 11
211.343
 20
33.5
 21
33.5
  0
LINE
  8
QUOTATURA
 10
138.0
 11
211.343
 20
11.5
 21
11.5
  0
LINE
  8
QUOTATURA
 10
186.343
 11
186.343
 20
33.5
 21
2.348
  0
LINE
  8
QUOTATURA
 10
186.343
 11
179.633
 20
2.348
 21
2.348
  0
LINE
  8
QUOTATURA
 10
185.51
 11
186.343
 20
28.5
 21
33.5
  0
LINE
  8
QUOTATURA
 10
186.343
 11
187.177
 20
33.5
 21
28.5
  0
LINE
  8
QUOTATURA
 10
187.177
 11
185.51
 20
28.5
 21
28.5
  0
LINE
  8
QUOTATURA
 10
187.177
 11
186.343
 20
16.5
 21
11.5
  0
LINE
  8
QUOTATURA
 10
186.343
 11
185.51
 20
11.5
 21
16.5
  0
LINE
  8
QUOTATURA
 10
185.51
 11
187.177
 20
16.5
 21
16.5
  0
LINE
  8
QUOTATURA
 10
174.049
 11
170.716
 20
-0.152
 21
-0.152
  0
ARC
  8
QUOTATURA
 10
172.478
 20
-0.15
 40
1.762
 50
121.814
 51
180.077
  0
LINE
  8
QUOTATURA
 10
171.549
 11
173.438
 20
1.348
 21
2.514
  0
ARC
  8
QUOTATURA
 10
172.823
 20
3.57
 40
1.222
 50
300.22
 51
59.779
  0
ARC
  8
QUOTATURA
 10
172.494
 20
2.87
 40
1.993
 50
61.714
 51
118.284
  0
ARC
  8
QUOTATURA
 10
172.109
 20
3.575
 40
1.19
 50
118.021
 51
169.472
  0
LINE
  8
QUOTATURA
 10
178.383
 11
175.049
 20
-0.152
 21
-0.152
  0
ARC
  8
QUOTATURA
 10
176.812
 20
-0.15
 40
1.762
 50
121.814
 51
180.077
  0
LINE
  8
QUOTATURA
 10
175.883
 11
177.772
 20
1.348
 21
2.514
  0
ARC
  8
QUOTATURA
 10
177.157
 20
3.57
 40
1.222
 50
300.22
 51
59.779
  0
ARC
  8
QUOTATURA
 10
176.827
 20
2.87
 40
1.993
 50
61.714
 51
118.284
  0
ARC
  8
QUOTATURA
 10
176.442
 20
3.575
 40
1.19
 50
118.021
 51
169.472
  0
ARC
  8
APS_GEOMETRY
 10
3.976
 20
-22.258
 40
4.11
 50
42.904
 51
122.546
  0
ARC
  8
APS_GEOMETRY
 10
2.921
 20
-20.553
 40
2.106
 50
123.307
 51
253.426
  0
LINE
  8
APS_GEOMETRY
 10
2.321
 11
5.654
 20
-22.571
 21
-23.682
  0
ARC
  8
APS_GEOMETRY
 10
4.975
 20
-25.835
 40
2.257
 50
299.838
 51
72.504
  0
ARC
  8
APS_GEOMETRY
 10
3.932
 20
-24.037
 40
4.337
 50
240.023
 51
299.974
  0
ARC
  8
APS_GEOMETRY
 10
2.951
 20
-25.718
 40
2.39
 50
209.759
 51
240.255
  0
LINE
  8
APS_GEOMETRY
 10
15.783
 11
9.116
 20
-18.325
 21
-18.325
  0
LINE
  8
APS_GEOMETRY
 10
9.116
 11
9.116
 20
-18.325
 21
-28.325
  0
LINE
  8
APS_GEOMETRY
 10
9.116
 11
15.783
 20
-28.325
 21
-28.325
  0
LINE
  8
APS_GEOMETRY
 10
9.227
 11
13.561
 20
-22.992
 21
-22.992
  0
LINE
  8
APS_GEOMETRY
 10
17.783
 11
24.376
 20
-18.325
 21
-18.325
  0
LINE
  8
APS_GEOMETRY
 10
24.376
 11
24.376
 20
-18.325
 21
-18.655
  0
LINE
  8
APS_GEOMETRY
 10
24.376
 11
17.783
 20
-18.655
 21
-27.995
  0
LINE
  8
APS_GEOMETRY
 10
17.783
 11
17.783
 20
-27.995
 21
-28.325
  0
LINE
  8
APS_GEOMETRY
 10
17.783
 11
24.376
 20
-28.325
 21
-28.325
  0
LINE
  8
APS_GEOMETRY
 10
28.733
 11
28.733
 20
-18.325
 21
-28.325
  0
LINE
  8
APS_GEOMETRY
 10
26.377
 11
28.733
 20
-28.327
 21
-28.325
  0
LINE
  8
APS_GEOMETRY
 10
28.733
 11
31.09
 20
-28.325
 21
-28.327
  0
LINE
  8
APS_GEOMETRY
 10
26.377
 11
28.733
 20
-18.327
 21
-18.325
  0
LINE
  8
APS_GEOMETRY
 10
28.733
 11
31.09
 20
-18.325
 21
-18.327
  0
ARC
  8
APS_GEOMETRY
 10
36.028
 20
-25.016
 40
3.274
 50
218.689
 51
321.311
  0
ARC
  8
APS_GEOMETRY
 10
33.853
 20
-23.229
 40
6.088
 50
320.978
 51
39.021
  0
ARC
  8
APS_GEOMETRY
 10
36.028
 20
-21.442
 40
3.274
 50
38.688
 51
141.313
  0
ARC
  8
APS_GEOMETRY
 10
38.202
 20
-23.229
 40
6.088
 50
140.979
 51
219.021
  0
LINE
  8
APS_GEOMETRY
 10
40.917
 11
40.917
 20
-28.325
 21
-18.325
  0
LINE
  8
APS_GEOMETRY
 10
40.917
 11
41.473
 20
-18.325
 21
-18.325
  0
LINE
  8
APS_GEOMETRY
 10
41.473
 11
47.028
 20
-18.325
 21
-28.325
  0
LINE
  8
APS_GEOMETRY
 10
47.028
 11
47.584
 20
-28.325
 21
-28.325
  0
LINE
  8
APS_GEOMETRY
 10
47.584
 11
47.584
 20
-28.325
 21
-18.325
  0
LINE
  8
APS_GEOMETRY
 10
56.25
 11
49.584
 20
-18.325
 21
-18.325
  0
LINE
  8
APS_GEOMETRY
 10
49.584
 11
49.584
 20
-18.325
 21
-28.325
  0
LINE
  8
APS_GEOMETRY
 10
49.584
 11
56.25
 20
-28.325
 21
-28.325
  0
LINE
  8
APS_GEOMETRY
 10
49.695
 11
54.028
 20
-22.992
 21
-22.992
  0
LINE
  8
APS_GEOMETRY
 10
67.75
 11
72.528
 20
-23.436
 21
-23.436
  0
ARC
  8
APS_GEOMETRY
 10
72.528
 20
-20.88
 40
2.556
 50
270.0
 51
90.0
  0
LINE
  8
APS_GEOMETRY
 10
72.528
 11
67.75
 20
-18.325
 21
-18.325
  0
LINE
  8
APS_GEOMETRY
 10
67.75
 11
67.75
 20
-18.325
 21
-28.325
  0
ARC
  8
APS_GEOMETRY
 10
80.022
 20
-25.016
 40
3.274
 50
218.689
 51
321.311
  0
ARC
  8
APS_GEOMETRY
 10
77.847
 20
-23.229
 40
6.088
 50
320.978
 51
39.021
  0
ARC
  8
APS_GEOMETRY
 10
80.022
 20
-21.442
 40
3.274
 50
38.688
 51
141.313
  0
ARC
  8
APS_GEOMETRY
 10
82.197
 20
-23.229
 40
6.088
 50
140.979
 51
219.021
  0
LINE
  8
APS_GEOMETRY
 10
84.911
 11
89.689
 20
-23.436
 21
-23.436
  0
ARC
  8
APS_GEOMETRY
 10
89.689
 20
-20.88
 40
2.556
 50
270.0
 51
90.0
  0
LINE
  8
APS_GEOMETRY
 10
89.689
 11
84.911
 20
-18.325
 21
-18.325
  0
LINE
  8
APS_GEOMETRY
 10
84.911
 11
84.911
 20
-18.325
 21
-28.325
  0
LINE
  8
APS_GEOMETRY
 10
89.356
 11
91.578
 20
-23.436
 21
-28.325
  0
LINE
  8
APS_GEOMETRY
 10
97.175
 11
97.175
 20
-18.368
 21
-28.256
  0
LINE
  8
APS_GEOMETRY
 10
93.286
 11
101.063
 20
-18.256
 21
-18.256
  0
LINE
  8
APS_GEOMETRY
 10
101.245
 11
107.356
 20
-26.103
 21
-26.103
  0
LINE
  8
APS_GEOMETRY
 10
100.022
 11
103.911
 20
-28.325
 21
-18.325
  0
LINE
  8
APS_GEOMETRY
 10
103.911
 11
104.8
 20
-18.325
 21
-18.325
  0
LINE
  8
APS_GEOMETRY
 10
104.8
 11
108.467
 20
-18.325
 21
-28.325
  0
LINE
  8
APS_GEOMETRY
 10
121.897
 11
121.897
 20
-18.368
 21
-28.256
  0
LINE
  8
APS_GEOMETRY
 10
118.008
 11
125.786
 20
-18.256
 21
-18.256
  0
LINE
  8
APS_GEOMETRY
 10
129.102
 11
129.102
 20
-18.325
 21
-28.325
  0
LINE
  8
APS_GEOMETRY
 10
126.745
 11
129.102
 20
-28.327
 21
-28.325
  0
LINE
  8
APS_GEOMETRY
 10
129.102
 11
131.458
 20
-28.325
 21
-28.327
  0
LINE
  8
APS_GEOMETRY
 10
126.745
 11
129.102
 20
-18.327
 21
-18.325
  0
LINE
  8
APS_GEOMETRY
 10
129.102
 11
131.458
 20
-18.325
 21
-18.327
  0
LINE
  8
APS_GEOMETRY
 10
133.458
 11
138.236
 20
-23.436
 21
-23.436
  0
ARC
  8
APS_GEOMETRY
 10
138.236
 20
-20.88
 40
2.556
 50
270.0
 51
90.0
  0
LINE
  8
APS_GEOMETRY
 10
138.236
 11
133.458
 20
-18.325
 21
-18.325
  0
LINE
  8
APS_GEOMETRY
 10
133.458
 11
133.458
 20
-18.325
 21
-28.325
  0
ARC
  8
APS_GEOMETRY
 10
145.729
 20
-25.016
 40
3.274
 50
218.689
 51
321.311
  0
ARC
  8
APS_GEOMETRY
 10
143.555
 20
-23.229
 40
6.088
 50
320.978
 51
39.021
  0
ARC
  8
APS_GEOMETRY
 10
145.729
 20
-21.442
 40
3.274
 50
38.688
 51
141.313
  0
ARC
  8
APS_GEOMETRY
 10
147.904
 20
-23.229
 40
6.088
 50
140.979
 51
219.021
  0
ARC
  8
APS_GEOMETRY
 10
163.12
 20
-25.127
 40
3.118
 50
208.752
 51
258.484
  0
ARC
  8
APS_GEOMETRY
 10
163.781
 20
-22.268
 40
6.052
 50
257.758
 51
286.48
  0
ARC
  8
APS_GEOMETRY
 10
164.72
 20
-25.338
 40
2.842
 50
285.885
 51
325.197
  0
ARC
  8
APS_GEOMETRY
 10
164.742
 20
-25.32
 40
2.834
 50
324.639
 51
31.269
  0
ARC
  8
APS_GEOMETRY
 10
164.648
 20
-25.353
 40
2.932
 50
30.855
 51
75.402
  0
ARC
  8
APS_GEOMETRY
 10
164.053
 20
-27.723
 40
5.376
 50
75.639
 51
104.361
  0
ARC
  8
APS_GEOMETRY
 10
160.741
 20
-16.791
 40
6.057
 50
289.068
 51
345.638
  0
LINE
  8
APS_GEOMETRY
 10
166.609
 11
160.498
 20
-18.293
 21
-18.293
  0
LINE
  8
COSTRUZIONI
 10
519.974
 11
519.974
 20
42.0
 21
33.5
  0
LINE
  8
APS_GEOMETRY
 10
519.974
 11
517.974
 20
0.0
 21
0.0
  0
LINE
  8
APS_GEOMETRY
 10
479.297
 11
481.021
 20
-48.871
 21
-48.871
  0
ARC
  8
APS_GEOMETRY
 10
480.933
 20
-46.401
 40
2.471
 50
272.021
 51
278.44
  0
ARC
  8
APS_GEOMETRY
 10
481.031
 20
-47.057
 40
1.808
 50
278.44
 51
285.945
  0
ARC
  8
APS_GEOMETRY
 10
481.762
 20
-49.677
 40
0.912
 50
98.584
 51
104.931
  0
ARC
  8
APS_GEOMETRY
 10
481.701
 20
-49.269
 40
0.499
 50
90.0
 51
98.584
  0
ARC
  8
APS_GEOMETRY
 10
481.701
 20
-49.145
 40
0.375
 50
52.871
 51
90.0
  0
ARC
  8
APS_GEOMETRY
 10
481.192
 20
-49.817
 40
1.218
 50
32.518
 51
52.871
  0
ARC
  8
APS_GEOMETRY
 10
480.789
 20
-50.074
 40
1.696
 50
17.209
 51
32.518
  0
ARC
  8
APS_GEOMETRY
 10
481.125
 20
-49.97
 40
1.345
 50
360.0
 51
17.209
  0
ARC
  8
APS_GEOMETRY
 10
481.798
 20
-49.97
 40
0.672
 50
337.348
 51
360.0
  0
ARC
  8
APS_GEOMETRY
 10
482.068
 20
-50.082
 40
0.379
 50
307.042
 51
337.348
  0
ARC
  8
APS_GEOMETRY
 10
482.021
 20
-50.018
 40
0.459
 50
287.186
 51
306.87
  0
ARC
  8
APS_GEOMETRY
 10
481.979
 20
-49.882
 40
0.601
 50
270.0
 51
287.186
  0
ARC
  8
APS_GEOMETRY
 10
481.979
 20
-49.944
 40
0.539
 50
252.221
 51
270.0
  0
ARC
  8
APS_GEOMETRY
 10
481.954
 20
-50.022
 40
0.457
 50
232.896
 51
252.221
  0
ARC
  8
APS_GEOMETRY
 10
482.051
 20
-49.894
 40
0.618
 50
218.3
 51
232.896
  0
ARC
  8
APS_GEOMETRY
 10
482.809
 20
-49.295
 40
1.584
 50
209.197
 51
218.3
  0
ARC
  8
APS_GEOMETRY
 10
478.953
 20
-51.384
 40
2.801
 50
28.025
 51
32.699
  0
ARC
  8
APS_GEOMETRY
 10
480.969
 20
-50.09
 40
0.406
 50
32.699
 51
45.0
  0
ARC
  8
APS_GEOMETRY
 10
481.106
 20
-49.953
 40
0.212
 50
45.0
 51
67.557
  0
ARC
  8
APS_GEOMETRY
 10
481.106
 20
-49.954
 40
0.214
 50
67.557
 51
90.0
  0
ARC
  8
APS_GEOMETRY
 10
481.106
 20
-49.938
 40
0.197
 50
90.0
 51
120.801
  0
ARC
  8
APS_GEOMETRY
 10
481.099
 20
-49.926
 40
0.184
 50
120.801
 51
152.7
  0
ARC
  8
APS_GEOMETRY
 10
481.245
 20
-50.002
 40
0.348
 50
152.7
 51
171.085
  0
ARC
  8
APS_GEOMETRY
 10
482.354
 20
-50.176
 40
1.471
 50
171.085
 51
180.0
  0
LINE
  8
APS_GEOMETRY
 10
480.883
 11
480.883
 20
-50.176
 21
-52.007
  0
ARC
  8
APS_GEOMETRY
 10
482.826
 20
-52.007
 40
1.943
 50
180.0
 51
188.194
  0
ARC
  8
APS_GEOMETRY
 10
481.375
 20
-52.216
 40
0.477
 50
188.194
 51
204.775
  0
ARC
  8
APS_GEOMETRY
 10
481.234
 20
-52.281
 40
0.322
 50
204.775
 51
228.576
  0
ARC
  8
APS_GEOMETRY
 10
481.366
 20
-52.131
 40
0.522
 50
228.576
 51
247.218
  0
ARC
  8
APS_GEOMETRY
 10
480.6
 20
-53.938
 40
1.442
 50
59.381
 51
66.93
  0
ARC
  8
APS_GEOMETRY
 10
481.166
 20
-52.982
 40
0.33
 50
43.568
 51
59.381
  0
ARC
  8
APS_GEOMETRY
 10
481.256
 20
-52.896
 40
0.205
 50
19.041
 51
43.568
  0
ARC
  8
APS_GEOMETRY
 10
481.13
 20
-52.939
 40
0.338
 50
360.0
 51
19.041
  0
ARC
  8
APS_GEOMETRY
 10
481.194
 20
-52.939
 40
0.275
 50
317.66
 51
360.0
  0
ARC
  8
APS_GEOMETRY
 10
480.942
 20
-52.709
 40
0.616
 50
289.747
 51
317.66
  0
ARC
  8
APS_GEOMETRY
 10
480.73
 20
-52.121
 40
1.241
 50
281.964
 51
289.747
  0
ARC
  8
APS_GEOMETRY
 10
480.438
 20
-50.74
 40
2.653
 50
276.643
 51
281.964
  0
ARC
  8
APS_GEOMETRY
 10
480.314
 20
-49.682
 40
3.718
 50
272.836
 51
276.643
  0
ARC
  8
APS_GEOMETRY
 10
480.167
 20
-46.704
 40
6.699
 50
270.0
 51
272.836
  0
ARC
  8
APS_GEOMETRY
 10
480.167
 20
-44.86
 40
8.544
 50
267.283
 51
270.0
  0
ARC
  8
APS_GEOMETRY
 10
479.988
 20
-48.64
 40
4.759
 50
263.643
 51
267.283
  0
ARC
  8
APS_GEOMETRY
 10
479.837
 20
-49.988
 40
3.403
 50
258.563
 51
263.643
  0
ARC
  8
APS_GEOMETRY
 10
479.478
 20
-51.762
 40
1.593
 50
251.136
 51
258.563
  0
ARC
  8
APS_GEOMETRY
 10
479.158
 20
-52.691
 40
0.61
 50
222.558
 51
251.395
  0
ARC
  8
APS_GEOMETRY
 10
478.92
 20
-52.91
 40
0.287
 50
180.0
 51
222.558
  0
ARC
  8
APS_GEOMETRY
 10
478.872
 20
-52.91
 40
0.239
 50
150.642
 51
180.0
  0
ARC
  8
APS_GEOMETRY
 10
478.892
 20
-52.92
 40
0.261
 50
122.574
 51
150.642
  0
ARC
  8
APS_GEOMETRY
 10
478.841
 20
-52.862
 40
0.185
 50
108.677
 51
119.055
  0
ARC
  8
APS_GEOMETRY
 10
481.152
 20
-59.701
 40
7.404
 50
107.038
 51
108.677
  0
ARC
  8
APS_GEOMETRY
 10
478.897
 20
-52.324
 40
0.31
 50
286.144
 51
308.66
  0
ARC
  8
APS_GEOMETRY
 10
478.948
 20
-52.388
 40
0.229
 50
308.66
 51
334.933
  0
ARC
  8
APS_GEOMETRY
 10
478.741
 20
-52.291
 40
0.457
 50
334.933
 51
348.829
  0
ARC
  8
APS_GEOMETRY
 10
476.159
 20
-51.781
 40
3.089
 50
348.829
 51
354.161
  0
ARC
  8
APS_GEOMETRY
 10
474.413
 20
-51.601
 40
4.844
 50
354.144
 51
355.66
  0
ARC
  8
APS_GEOMETRY
 10
466.675
 20
-51.014
 40
12.604
 50
355.66
 51
356.6
  0
ARC
  8
APS_GEOMETRY
 10
460.761
 20
-50.663
 40
18.529
 50
356.6
 51
357.24
  0
ARC
  8
APS_GEOMETRY
 10
443.978
 20
-49.853
 40
35.331
 50
357.24
 51
357.703
  0
ARC
  8
APS_GEOMETRY
 10
445.63
 20
-49.92
 40
33.678
 50
357.703
 51
358.674
  0
ARC
  8
APS_GEOMETRY
 10
461.213
 20
-50.28
 40
18.09
 50
358.674
 51
0.0
  0
ARC
  8
APS_GEOMETRY
 10
476.623
 20
-50.28
 40
2.681
 50
360.0
 51
6.242
  0
ARC
  8
APS_GEOMETRY
 10
478.755
 20
-50.047
 40
0.536
 50
6.242
 51
20.225
  0
ARC
  8
APS_GEOMETRY
 10
479.05
 20
-49.938
 40
0.221
 50
20.225
 51
50.44
  0
ARC
  8
APS_GEOMETRY
 10
479.107
 20
-49.869
 40
0.131
 50
50.44
 51
90.0
  0
ARC
  8
APS_GEOMETRY
 10
479.107
 20
-49.914
 40
0.176
 50
90.0
 51
126.747
  0
ARC
  8
APS_GEOMETRY
 10
479.356
 20
-50.247
 40
0.592
 50
126.747
 51
146.547
  0
ARC
  8
APS_GEOMETRY
 10
474.958
 20
-47.356
 40
4.671
 50
324.255
 51
326.701
  0
ARC
  8
APS_GEOMETRY
 10
476.82
 20
-48.696
 40
2.377
 50
320.826
 51
324.255
  0
ARC
  8
APS_GEOMETRY
 10
477.429
 20
-49.192
 40
1.592
 50
315.722
 51
320.826
  0
ARC
  8
APS_GEOMETRY
 10
478.128
 20
-49.874
 40
0.615
 50
307.504
 51
315.722
  0
ARC
  8
APS_GEOMETRY
 10
478.063
 20
-49.788
 40
0.723
 50
291.306
 51
307.405
  0
ARC
  8
APS_GEOMETRY
 10
478.175
 20
-50.075
 40
0.415
 50
270.0
 51
291.306
  0
ARC
  8
APS_GEOMETRY
 10
478.175
 20
-50.102
 40
0.388
 50
245.532
 51
270.0
  0
ARC
  8
APS_GEOMETRY
 10
478.172
 20
-50.108
 40
0.381
 50
220.833
 51
245.532
  0
ARC
  8
APS_GEOMETRY
 10
478.212
 20
-50.074
 40
0.433
 50
198.684
 51
220.833
  0
ARC
  8
APS_GEOMETRY
 10
478.376
 20
-50.019
 40
0.606
 50
180.0
 51
198.684
  0
ARC
  8
APS_GEOMETRY
 10
478.761
 20
-50.019
 40
0.991
 50
168.408
 51
180.0
  0
ARC
  8
APS_GEOMETRY
 10
479.396
 20
-50.149
 40
1.639
 50
159.402
 51
168.408
  0
ARC
  8
APS_GEOMETRY
 10
479.592
 20
-50.223
 40
1.849
 50
151.39
 51
159.402
  0
ARC
  8
APS_GEOMETRY
 10
479.552
 20
-50.201
 40
1.803
 50
143.276
 51
151.39
  0
ARC
  8
APS_GEOMETRY
 10
479.047
 20
-49.823
 40
1.173
 50
124.216
 51
143.31
  0
ARC
  8
APS_GEOMETRY
 10
478.597
 20
-49.162
 40
0.373
 50
90.0
 51
124.216
  0
ARC
  8
APS_GEOMETRY
 10
478.597
 20
-49.328
 40
0.538
 50
82.725
 51
90.0
  0
ARC
  8
APS_GEOMETRY
 10
478.555
 20
-49.657
 40
0.871
 50
77.005
 51
82.725
  0
ARC
  8
APS_GEOMETRY
 10
479.84
 20
-43.462
 40
5.456
 50
258.486
 51
260.378
  0
ARC
  8
APS_GEOMETRY
 10
479.29
 20
-46.709
 40
2.163
 50
260.378
 51
263.382
  0
ARC
  8
APS_GEOMETRY
 10
479.243
 20
-47.115
 40
1.755
 50
263.382
 51
267.084
  0
ARC
  8
APS_GEOMETRY
 10
479.297
 20
-46.044
 40
2.827
 50
267.084
 51
270.0
  0
ARC
  8
APS_GEOMETRY
 10
485.27
 20
-51.357
 40
2.578
 50
71.91
 51
90.0
  0
ARC
  8
APS_GEOMETRY
 10
485.37
 20
-51.052
 40
2.257
 50
52.561
 51
71.91
  0
ARC
  8
APS_GEOMETRY
 10
485.343
 20
-51.059
 40
2.279
 50
38.846
 51
52.156
  0
ARC
  8
APS_GEOMETRY
 10
484.986
 20
-51.347
 40
2.737
 50
26.707
 51
38.846
  0
ARC
  8
APS_GEOMETRY
 10
485.057
 20
-51.289
 40
2.648
 50
13.868
 51
26.278
  0
ARC
  8
APS_GEOMETRY
 10
485.567
 20
-51.163
 40
2.123
 50
360.0
 51
13.868
  0
ARC
  8
APS_GEOMETRY
 10
485.6
 20
-51.163
 40
2.09
 50
339.712
 51
360.0
  0
ARC
  8
APS_GEOMETRY
 10
485.482
 20
-51.12
 40
2.215
 50
320.013
 51
339.712
  0
ARC
  8
APS_GEOMETRY
 10
485.463
 20
-51.109
 40
2.237
 50
303.344
 51
320.123
  0
ARC
  8
APS_GEOMETRY
 10
485.233
 20
-50.76
 40
2.655
 50
287.949
 51
303.344
  0
ARC
  8
APS_GEOMETRY
 10
485.158
 20
-50.499
 40
2.927
 50
279.039
 51
287.776
  0
ARC
  8
APS_GEOMETRY
 10
485.188
 20
-50.689
 40
2.735
 50
270.0
 51
279.039
  0
ARC
  8
APS_GEOMETRY
 10
485.188
 20
-50.822
 40
2.601
 50
257.728
 51
270.0
  0
ARC
  8
APS_GEOMETRY
 10
485.192
 20
-50.803
 40
2.62
 50
245.501
 51
257.728
  0
ARC
  8
APS_GEOMETRY
 10
485.045
 20
-51.126
 40
2.266
 50
228.665
 51
245.511
  0
ARC
  8
APS_GEOMETRY
 10
484.996
 20
-51.181
 40
2.192
 50
211.535
 51
228.665
  0
ARC
  8
APS_GEOMETRY
 10
485.06
 20
-51.134
 40
2.271
 50
195.642
 51
211.701
  0
ARC
  8
APS_GEOMETRY
 10
485.177
 20
-51.101
 40
2.393
 50
180.0
 51
195.642
  0
ARC
  8
APS_GEOMETRY
 10
485.203
 20
-51.101
 40
2.418
 50
162.181
 51
180.0
  0
ARC
  8
APS_GEOMETRY
 10
484.982
 20
-51.03
 40
2.187
 50
143.434
 51
162.181
  0
ARC
  8
APS_GEOMETRY
 10
484.952
 20
-51.007
 40
2.148
 50
126.384
 51
143.471
  0
ARC
  8
APS_GEOMETRY
 10
485.156
 20
-51.283
 40
2.491
 50
110.525
 51
126.384
  0
ARC
  8
APS_GEOMETRY
 10
485.146
 20
-51.208
 40
2.418
 50
99.77
 51
110.925
  0
ARC
  8
APS_GEOMETRY
 10
485.27
 20
-51.929
 40
3.15
 50
90.0
 51
99.77
  0
ARC
  8
APS_GEOMETRY
 10
484.959
 20
-50.199
 40
0.481
 50
90.0
 51
119.604
  0
ARC
  8
APS_GEOMETRY
 10
485.001
 20
-50.273
 40
0.566
 50
119.604
 51
146.842
  0
ARC
  8
APS_GEOMETRY
 10
485.086
 20
-50.342
 40
0.675
 50
145.84
 51
164.055
  0
ARC
  8
APS_GEOMETRY
 10
485.282
 20
-50.398
 40
0.879
 50
164.055
 51
180.0
  0
ARC
  8
APS_GEOMETRY
 10
486.508
 20
-50.398
 40
2.105
 50
180.0
 51
189.977
  0
ARC
  8
APS_GEOMETRY
 10
488.374
 20
-50.07
 40
3.999
 50
189.977
 51
197.211
  0
ARC
  8
APS_GEOMETRY
 10
488.782
 20
-49.944
 40
4.426
 50
197.211
 51
203.76
  0
ARC
  8
APS_GEOMETRY
 10
487.765
 20
-50.391
 40
3.316
 50
203.76
 51
211.329
  0
ARC
  8
APS_GEOMETRY
 10
485.678
 20
-51.643
 40
0.882
 50
212.32
 51
224.441
  0
ARC
  8
APS_GEOMETRY
 10
485.593
 20
-51.727
 40
0.762
 50
224.441
 51
237.484
  0
ARC
  8
APS_GEOMETRY
 10
485.538
 20
-51.814
 40
0.66
 50
237.484
 51
252.416
  0
ARC
  8
APS_GEOMETRY
 10
485.482
 20
-51.988
 40
0.477
 50
252.416
 51
270.0
  0
ARC
  8
APS_GEOMETRY
 10
485.482
 20
-51.932
 40
0.533
 50
270.0
 51
294.953
  0
ARC
  8
APS_GEOMETRY
 10
485.497
 20
-51.964
 40
0.498
 50
294.953
 51
320.793
  0
ARC
  8
APS_GEOMETRY
 10
485.417
 20
-51.899
 40
0.601
 50
320.793
 51
342.777
  0
ARC
  8
APS_GEOMETRY
 10
485.06
 20
-51.788
 40
0.975
 50
342.777
 51
0.0
  0
ARC
  8
APS_GEOMETRY
 10
483.384
 20
-51.788
 40
2.651
 50
0.0
 51
8.499
  0
ARC
  8
APS_GEOMETRY
 10
482.218
 20
-51.962
 40
3.83
 50
8.499
 51
15.566
  0
ARC
  8
APS_GEOMETRY
 10
482.358
 20
-51.923
 40
3.685
 50
15.566
 51
22.909
  0
ARC
  8
APS_GEOMETRY
 10
483.564
 20
-51.413
 40
2.375
 50
22.909
 51
32.057
  0
ARC
  8
APS_GEOMETRY
 10
484.512
 20
-50.816
 40
1.255
 50
31.921
 51
42.51
  0
ARC
  8
APS_GEOMETRY
 10
484.772
 20
-50.578
 40
0.902
 50
42.51
 51
55.008
  0
ARC
  8
APS_GEOMETRY
 10
484.86
 20
-50.452
 40
0.749
 50
55.008
 51
69.88
  0
ARC
  8
APS_GEOMETRY
 10
484.939
 20
-50.237
 40
0.52
 50
69.88
 51
87.754
  0
ARC
  8
APS_GEOMETRY
 10
490.112
 20
-50.378
 40
1.598
 50
83.923
 51
90.0
  0
ARC
  8
APS_GEOMETRY
 10
489.983
 20
-51.585
 40
2.813
 50
79.342
 51
83.923
  0
ARC
  8
APS_GEOMETRY
 10
489.828
 20
-52.409
 40
3.651
 50
75.808
 51
79.342
  0
ARC
  8
APS_GEOMETRY
 10
489.287
 20
-54.549
 40
5.858
 50
73.018
 51
75.808
  0
ARC
  8
APS_GEOMETRY
 10
491.192
 20
-48.299
 40
0.675
 50
253.288
 51
259.046
  0
ARC
  8
APS_GEOMETRY
 10
491.1
 20
-48.779
 40
0.187
 50
259.046
 51
270.0
  0
ARC
  8
APS_GEOMETRY
 10
491.1
 20
-48.855
 40
0.111
 50
270.0
 51
286.699
  0
ARC
  8
APS_GEOMETRY
 10
490.212
 20
-45.897
 40
3.199
 50
286.699
 51
289.799
  0
ARC
  8
APS_GEOMETRY
 10
491.401
 20
-49.188
 40
0.3
 50
100.008
 51
110.556
  0
ARC
  8
APS_GEOMETRY
 10
491.407
 20
-49.221
 40
0.333
 50
90.0
 51
100.008
  0
ARC
  8
APS_GEOMETRY
 10
491.407
 20
-49.205
 40
0.318
 50
53.356
 51
90.0
  0
ARC
  8
APS_GEOMETRY
 10
490.852
 20
-49.952
 40
1.248
 50
35.101
 51
53.356
  0
ARC
  8
APS_GEOMETRY
 10
490.574
 20
-50.146
 40
1.587
 50
20.245
 51
35.101
  0
ARC
  8
APS_GEOMETRY
 10
491.258
 20
-49.894
 40
0.859
 50
360.0
 51
20.245
  0
ARC
  8
APS_GEOMETRY
 10
491.602
 20
-49.894
 40
0.515
 50
340.481
 51
360.0
  0
ARC
  8
APS_GEOMETRY
 10
491.686
 20
-49.925
 40
0.425
 50
318.972
 51
340.481
  0
ARC
  8
APS_GEOMETRY
 10
491.724
 20
-49.957
 40
0.375
 50
295.017
 51
318.972
  0
ARC
  8
APS_GEOMETRY
 10
491.737
 20
-49.985
 40
0.344
 50
270.0
 51
295.017
  0
ARC
  8
APS_GEOMETRY
 10
491.737
 20
-49.801
 40
0.529
 50
256.171
 51
270.0
  0
ARC
  8
APS_GEOMETRY
 10
491.68
 20
-50.035
 40
0.287
 50
237.381
 51
256.171
  0
ARC
  8
APS_GEOMETRY
 10
491.782
 20
-49.876
 40
0.477
 50
231.559
 51
237.381
  0
ARC
  8
APS_GEOMETRY
 10
493.266
 20
-48.006
 40
2.864
 50
229.185
 51
231.559
  0
ARC
  8
APS_GEOMETRY
 10
494.857
 20
-46.164
 40
5.298
 50
227.9
 51
229.185
  0
ARC
  8
APS_GEOMETRY
 10
500.362
 20
-40.071
 40
13.51
 50
227.095
 51
227.9
  0
ARC
  8
APS_GEOMETRY
 10
490.026
 20
-51.187
 40
1.67
 50
46.975
 51
64.612
  0
ARC
  8
APS_GEOMETRY
 10
490.393
 20
-50.413
 40
0.813
 50
64.612
 51
90.0
  0
ARC
  8
APS_GEOMETRY
 10
490.393
 20
-50.186
 40
0.586
 50
90.0
 51
106.966
  0
ARC
  8
APS_GEOMETRY
 10
490.325
 20
-49.963
 40
0.353
 50
106.966
 51
128.868
  0
ARC
  8
APS_GEOMETRY
 10
490.286
 20
-49.915
 40
0.291
 50
128.868
 51
154.741
  0
ARC
  8
APS_GEOMETRY
 10
490.299
 20
-49.921
 40
0.305
 50
154.741
 51
180.0
  0
ARC
  8
APS_GEOMETRY
 10
490.28
 20
-49.921
 40
0.286
 50
180.0
 51
206.64
  0
ARC
  8
APS_GEOMETRY
 10
490.372
 20
-49.874
 40
0.389
 50
206.64
 51
229.43
  0
ARC
  8
APS_GEOMETRY
 10
490.52
 20
-49.702
 40
0.616
 50
229.43
 51
244.493
  0
ARC
  8
APS_GEOMETRY
 10
490.924
 20
-48.854
 40
1.555
 50
244.493
 51
253.956
  0
ARC
  8
APS_GEOMETRY
 10
483.717
 20
-73.347
 40
23.976
 50
72.737
 51
73.58
  0
ARC
  8
APS_GEOMETRY
 10
487.848
 20
-60.056
 40
10.057
 50
71.435
 51
72.737
  0
ARC
  8
APS_GEOMETRY
 10
489.216
 20
-55.982
 40
5.76
 50
69.164
 51
71.435
  0
ARC
  8
APS_GEOMETRY
 10
490.83
 20
-51.74
 40
1.221
 50
64.231
 51
69.164
  0
ARC
  8
APS_GEOMETRY
 10
490.645
 20
-52.114
 40
1.639
 50
34.939
 51
64.068
  0
ARC
  8
APS_GEOMETRY
 10
491.045
 20
-51.834
 40
1.15
 50
360.0
 51
34.939
  0
ARC
  8
APS_GEOMETRY
 10
490.799
 20
-51.834
 40
1.396
 50
333.435
 51
360.0
  0
ARC
  8
APS_GEOMETRY
 10
490.708
 20
-51.788
 40
1.498
 50
307.807
 51
333.435
  0
ARC
  8
APS_GEOMETRY
 10
490.47
 20
-51.481
 40
1.887
 50
296.732
 51
307.786
  0
ARC
  8
APS_GEOMETRY
 10
490.33
 20
-51.202
 40
2.199
 50
286.496
 51
296.732
  0
ARC
  8
APS_GEOMETRY
 10
490.237
 20
-50.889
 40
2.525
 50
277.544
 51
286.496
  0
ARC
  8
APS_GEOMETRY
 10
490.102
 20
-49.87
 40
3.553
 50
270.0
 51
277.544
  0
ARC
  8
APS_GEOMETRY
 10
490.102
 20
-49.716
 40
3.707
 50
263.555
 51
270.0
  0
ARC
  8
APS_GEOMETRY
 10
490.222
 20
-48.654
 40
4.776
 50
257.878
 51
263.555
  0
ARC
  8
APS_GEOMETRY
 10
490.158
 20
-48.95
 40
4.473
 50
254.839
 51
257.878
  0
ARC
  8
APS_GEOMETRY
 10
489.642
 20
-50.857
 40
2.497
 50
250.772
 51
254.839
  0
ARC
  8
APS_GEOMETRY
 10
489.409
 20
-51.523
 40
1.792
 50
245.121
 51
250.772
  0
ARC
  8
APS_GEOMETRY
 10
489.016
 20
-52.371
 40
0.857
 50
236.944
 51
245.121
  0
ARC
  8
APS_GEOMETRY
 10
488.784
 20
-52.737
 40
0.424
 50
211.802
 51
236.31
  0
ARC
  8
APS_GEOMETRY
 10
489.886
 20
-52.053
 40
1.722
 50
199.704
 51
211.802
  0
ARC
  8
APS_GEOMETRY
 10
490.413
 20
-51.864
 40
2.281
 50
190.413
 51
199.704
  0
ARC
  8
APS_GEOMETRY
 10
489.957
 20
-51.948
 40
1.817
 50
180.0
 51
190.413
  0
ARC
  8
APS_GEOMETRY
 10
488.727
 20
-51.948
 40
0.587
 50
164.876
 51
180.0
  0
ARC
  8
APS_GEOMETRY
 10
488.396
 20
-51.859
 40
0.244
 50
141.34
 51
164.876
  0
ARC
  8
APS_GEOMETRY
 10
488.428
 20
-51.88
 40
0.283
 50
116.928
 51
142.001
  0
ARC
  8
APS_GEOMETRY
 10
488.411
 20
-51.847
 40
0.246
 50
90.0
 51
116.928
  0
ARC
  8
APS_GEOMETRY
 10
488.411
 20
-51.848
 40
0.246
 50
62.21
 51
90.0
  0
ARC
  8
APS_GEOMETRY
 10
488.313
 20
-52.035
 40
0.457
 50
41.906
 51
62.21
  0
ARC
  8
APS_GEOMETRY
 10
488.33
 20
-52.038
 40
0.447
 50
37.313
 51
43.668
  0
ARC
  8
APS_GEOMETRY
 10
485.823
 20
-53.949
 40
3.599
 50
35.074
 51
37.313
  0
ARC
  8
APS_GEOMETRY
 10
482.976
 20
-55.947
 40
7.078
 50
33.934
 51
35.074
  0
ARC
  8
APS_GEOMETRY
 10
472.826
 20
-62.776
 40
19.311
 50
33.243
 51
33.934
  0
ARC
  8
APS_GEOMETRY
 10
489.538
 20
-51.819
 40
0.673
 50
213.453
 51
231.637
  0
ARC
  8
APS_GEOMETRY
 10
489.856
 20
-51.418
 40
1.185
 50
231.637
 51
245.313
  0
ARC
  8
APS_GEOMETRY
 10
489.926
 20
-51.266
 40
1.352
 50
245.313
 51
257.398
  0
ARC
  8
APS_GEOMETRY
 10
489.903
 20
-51.371
 40
1.244
 50
257.398
 51
270.0
  0
ARC
  8
APS_GEOMETRY
 10
489.903
 20
-51.565
 40
1.051
 50
270.0
 51
282.907
  0
ARC
  8
APS_GEOMETRY
 10
490.016
 20
-52.058
 40
0.544
 50
282.907
 51
300.872
  0
ARC
  8
APS_GEOMETRY
 10
490.114
 20
-52.222
 40
0.353
 50
300.872
 51
326.876
  0
ARC
  8
APS_GEOMETRY
 10
490.225
 20
-52.295
 40
0.22
 50
326.876
 51
0.0
  0
ARC
  8
APS_GEOMETRY
 10
490.192
 20
-52.295
 40
0.253
 50
0.0
 51
27.553
  0
ARC
  8
APS_GEOMETRY
 10
490.112
 20
-52.337
 40
0.343
 50
27.553
 51
51.147
  0
ARC
  8
APS_GEOMETRY
 10
489.947
 20
-52.542
 40
0.607
 50
51.147
 51
65.225
  0
ARC
  8
APS_GEOMETRY
 10
489.336
 20
-53.864
 40
2.064
 50
65.225
 51
72.848
  0
ARC
  8
APS_GEOMETRY
 10
492.901
 20
-42.5
 40
9.846
 50
251.106
 51
252.532
  0
ARC
  8
APS_GEOMETRY
 10
491.639
 20
-46.187
 40
5.95
 50
249.271
 51
251.106
  0
ARC
  8
APS_GEOMETRY
 10
491.115
 20
-47.573
 40
4.468
 50
246.83
 51
249.271
  0
ARC
  8
APS_GEOMETRY
 10
490.266
 20
-49.555
 40
2.312
 50
243.435
 51
246.83
  0
ARC
  8
APS_GEOMETRY
 10
490.17
 20
-49.748
 40
2.096
 50
235.981
 51
243.435
  0
ARC
  8
APS_GEOMETRY
 10
490.244
 20
-49.638
 40
2.229
 50
228.752
 51
235.981
  0
ARC
  8
APS_GEOMETRY
 10
489.896
 20
-50.048
 40
1.692
 50
206.421
 51
228.457
  0
ARC
  8
APS_GEOMETRY
 10
489.441
 20
-50.274
 40
1.183
 50
180.0
 51
206.421
  0
ARC
  8
APS_GEOMETRY
 10
489.462
 20
-50.274
 40
1.205
 50
166.555
 51
180.0
  0
ARC
  8
APS_GEOMETRY
 10
489.602
 20
-50.307
 40
1.348
 50
153.848
 51
166.555
  0
ARC
  8
APS_GEOMETRY
 10
489.613
 20
-50.313
 40
1.361
 50
141.244
 51
153.848
  0
ARC
  8
APS_GEOMETRY
 10
489.699
 20
-50.382
 40
1.471
 50
129.123
 51
141.244
  0
ARC
  8
APS_GEOMETRY
 10
489.975
 20
-50.675
 40
1.872
 50
108.978
 51
130.006
  0
ARC
  8
APS_GEOMETRY
 10
490.112
 20
-51.073
 40
2.294
 50
90.0
 51
108.978
  0
ARC
  8
APS_GEOMETRY
 10
495.111
 20
-50.906
 40
2.126
 50
77.257
 51
90.0
  0
ARC
  8
APS_GEOMETRY
 10
495.089
 20
-51.001
 40
2.224
 50
64.799
 51
77.257
  0
ARC
  8
APS_GEOMETRY
 10
496.921
 20
-47.101
 40
2.084
 50
244.885
 51
251.175
  0
ARC
  8
APS_GEOMETRY
 10
496.324
 20
-48.852
 40
0.235
 50
251.175
 51
270.0
  0
ARC
  8
APS_GEOMETRY
 10
496.324
 20
-48.706
 40
0.381
 50
270.0
 51
278.82
  0
ARC
  8
APS_GEOMETRY
 10
496.078
 20
-47.121
 40
1.984
 50
278.82
 51
282.68
  0
ARC
  8
APS_GEOMETRY
 10
496.593
 20
-49.399
 40
0.351
 50
95.906
 51
102.995
  0
ARC
  8
APS_GEOMETRY
 10
496.609
 20
-49.553
 40
0.506
 50
90.0
 51
95.906
  0
ARC
  8
APS_GEOMETRY
 10
496.609
 20
-49.383
 40
0.336
 50
62.447
 51
90.0
  0
ARC
  8
APS_GEOMETRY
 10
496.549
 20
-49.497
 40
0.465
 50
39.094
 51
62.447
  0
ARC
  8
APS_GEOMETRY
 10
495.926
 20
-50.019
 40
1.277
 50
18.435
 51
39.611
  0
ARC
  8
APS_GEOMETRY
 10
495.543
 20
-50.146
 40
1.681
 50
360.0
 51
18.435
  0
ARC
  8
APS_GEOMETRY
 10
496.39
 20
-50.146
 40
0.833
 50
334.877
 51
360.0
  0
ARC
  8
APS_GEOMETRY
 10
496.641
 20
-50.264
 40
0.557
 50
304.007
 51
334.877
  0
ARC
  8
APS_GEOMETRY
 10
496.637
 20
-50.252
 40
0.569
 50
286.39
 51
303.69
  0
ARC
  8
APS_GEOMETRY
 10
496.619
 20
-50.19
 40
0.633
 50
270.0
 51
286.39
  0
ARC
  8
APS_GEOMETRY
 10
496.619
 20
-50.198
 40
0.626
 50
255.155
 51
270.0
  0
ARC
  8
APS_GEOMETRY
 10
496.55
 20
-50.456
 40
0.358
 50
235.491
 51
255.155
  0
ARC
  8
APS_GEOMETRY
 10
496.584
 20
-50.406
 40
0.419
 50
218.48
 51
235.491
  0
ARC
  8
APS_GEOMETRY
 10
497.146
 20
-49.959
 40
1.137
 50
208.179
 51
218.48
  0
ARC
  8
APS_GEOMETRY
 10
491.384
 20
-53.087
 40
5.42
 50
28.56
 51
31.664
  0
ARC
  8
APS_GEOMETRY
 10
494.905
 20
-50.916
 40
1.283
 50
31.664
 51
38.047
  0
ARC
  8
APS_GEOMETRY
 10
495.161
 20
-50.715
 40
0.958
 50
38.047
 51
46.56
  0
ARC
  8
APS_GEOMETRY
 10
495.028
 20
-50.856
 40
1.151
 50
46.56
 51
54.324
  0
ARC
  8
APS_GEOMETRY
 10
494.951
 20
-50.988
 40
1.303
 50
54.968
 51
71.48
  0
ARC
  8
APS_GEOMETRY
 10
495.036
 20
-50.736
 40
1.038
 50
71.48
 51
90.0
  0
ARC
  8
APS_GEOMETRY
 10
495.036
 20
-50.423
 40
0.725
 50
90.0
 51
114.63
  0
ARC
  8
APS_GEOMETRY
 10
494.999
 20
-50.344
 40
0.638
 50
114.63
 51
140.921
  0
ARC
  8
APS_GEOMETRY
 10
495.107
 20
-50.431
 40
0.776
 50
140.921
 51
163.13
  0
ARC
  8
APS_GEOMETRY
 10
495.645
 20
-50.594
 40
1.338
 50
163.13
 51
180.0
  0
ARC
  8
APS_GEOMETRY
 10
496.342
 20
-50.594
 40
2.036
 50
180.0
 51
195.44
  0
ARC
  8
APS_GEOMETRY
 10
496.236
 20
-50.624
 40
1.926
 50
195.44
 51
211.316
  0
ARC
  8
APS_GEOMETRY
 10
495.727
 20
-50.922
 40
1.336
 50
211.708
 51
240.457
  0
ARC
  8
APS_GEOMETRY
 10
495.693
 20
-50.983
 40
1.266
 50
240.457
 51
270.0
  0
ARC
  8
APS_GEOMETRY
 10
495.693
 20
-50.674
 40
1.575
 50
270.0
 51
279.549
  0
ARC
  8
APS_GEOMETRY
 10
495.673
 20
-50.558
 40
1.693
 50
279.549
 51
288.759
  0
ARC
  8
APS_GEOMETRY
 10
495.756
 20
-50.801
 40
1.436
 50
288.759
 51
299.545
  0
ARC
  8
APS_GEOMETRY
 10
496.087
 20
-51.385
 40
0.765
 50
299.545
 51
314.341
  0
ARC
  8
APS_GEOMETRY
 10
497.11
 20
-52.448
 40
0.711
 50
120.141
 51
133.452
  0
ARC
  8
APS_GEOMETRY
 10
496.825
 20
-51.955
 40
0.141
 50
90.0
 51
120.141
  0
ARC
  8
APS_GEOMETRY
 10
496.825
 20
-52.037
 40
0.223
 50
61.952
 51
90.0
  0
ARC
  8
APS_GEOMETRY
 10
496.791
 20
-52.099
 40
0.294
 50
37.569
 51
61.952
  0
ARC
  8
APS_GEOMETRY
 10
496.729
 20
-52.147
 40
0.372
 50
17.665
 51
37.569
  0
ARC
  8
APS_GEOMETRY
 10
496.635
 20
-52.177
 40
0.471
 50
360.0
 51
17.665
  0
ARC
  8
APS_GEOMETRY
 10
496.398
 20
-52.177
 40
0.708
 50
344.932
 51
0.0
  0
ARC
  8
APS_GEOMETRY
 10
495.768
 20
-52.008
 40
1.36
 50
334.075
 51
344.932
  0
ARC
  8
APS_GEOMETRY
 10
495.748
 20
-51.998
 40
1.382
 50
323.374
 51
334.075
  0
ARC
  8
APS_GEOMETRY
 10
496.155
 20
-52.3
 40
0.876
 50
309.92
 51
323.374
  0
ARC
  8
APS_GEOMETRY
 10
496.561
 20
-52.779
 40
0.248
 50
289.026
 51
308.991
  0
ARC
  8
APS_GEOMETRY
 10
496.127
 20
-51.523
 40
1.577
 50
281.143
 51
289.026
  0
ARC
  8
APS_GEOMETRY
 10
496.567
 20
-53.801
 40
0.743
 50
100.437
 51
110.12
  0
ARC
  8
APS_GEOMETRY
 10
497.149
 20
-55.39
 40
2.435
 50
110.12
 51
115.463
  0
ARC
  8
APS_GEOMETRY
 10
495.071
 20
-51.042
 40
2.384
 50
282.94
 51
295.628
  0
ARC
  8
APS_GEOMETRY
 10
495.091
 20
-51.131
 40
2.292
 50
270.0
 51
282.94
  0
ARC
  8
APS_GEOMETRY
 10
495.091
 20
-50.996
 40
2.427
 50
257.307
 51
270.0
  0
ARC
  8
APS_GEOMETRY
 10
495.194
 20
-50.541
 40
2.894
 50
245.686
 51
257.307
  0
ARC
  8
APS_GEOMETRY
 10
494.937
 20
-51.105
 40
2.274
 50
228.801
 51
245.735
  0
ARC
  8
APS_GEOMETRY
 10
494.941
 20
-51.1
 40
2.28
 50
211.891
 51
228.801
  0
ARC
  8
APS_GEOMETRY
 10
495.076
 20
-51.003
 40
2.446
 50
196.728
 51
212.152
  0
ARC
  8
APS_GEOMETRY
 10
494.727
 20
-51.108
 40
2.082
 50
180.0
 51
196.728
  0
ARC
  8
APS_GEOMETRY
 10
494.778
 20
-51.108
 40
2.133
 50
161.184
 51
180.0
  0
ARC
  8
APS_GEOMETRY
 10
494.915
 20
-51.154
 40
2.277
 50
142.98
 51
161.184
  0
ARC
  8
APS_GEOMETRY
 10
495.021
 20
-51.236
 40
2.411
 50
127.824
 51
142.958
  0
ARC
  8
APS_GEOMETRY
 10
495.196
 20
-51.462
 40
2.697
 50
113.52
 51
127.824
  0
ARC
  8
APS_GEOMETRY
 10
495.139
 20
-51.33
 40
2.554
 50
101.927
 51
113.527
  0
ARC
  8
APS_GEOMETRY
 10
495.111
 20
-51.195
 40
2.416
 50
90.0
 51
101.927
  0
ARC
  8
APS_GEOMETRY
 10
500.159
 20
-51.357
 40
2.578
 50
71.91
 51
90.0
  0
ARC
  8
APS_GEOMETRY
 10
500.259
 20
-51.052
 40
2.257
 50
52.561
 51
71.91
  0
ARC
  8
APS_GEOMETRY
 10
500.233
 20
-51.059
 40
2.279
 50
38.846
 51
52.156
  0
ARC
  8
APS_GEOMETRY
 10
499.876
 20
-51.347
 40
2.737
 50
26.707
 51
38.846
  0
ARC
  8
APS_GEOMETRY
 10
499.946
 20
-51.289
 40
2.648
 50
13.868
 51
26.278
  0
ARC
  8
APS_GEOMETRY
 10
500.456
 20
-51.163
 40
2.123
 50
360.0
 51
13.868
  0
ARC
  8
APS_GEOMETRY
 10
500.489
 20
-51.163
 40
2.09
 50
339.712
 51
360.0
  0
ARC
  8
APS_GEOMETRY
 10
500.372
 20
-51.12
 40
2.215
 50
320.013
 51
339.712
  0
ARC
  8
APS_GEOMETRY
 10
500.352
 20
-51.109
 40
2.237
 50
303.344
 51
320.123
  0
ARC
  8
APS_GEOMETRY
 10
500.122
 20
-50.76
 40
2.655
 50
287.949
 51
303.344
  0
ARC
  8
APS_GEOMETRY
 10
500.047
 20
-50.499
 40
2.927
 50
279.039
 51
287.776
  0
ARC
  8
APS_GEOMETRY
 10
500.077
 20
-50.689
 40
2.735
 50
270.0
 51
279.039
  0
ARC
  8
APS_GEOMETRY
 10
500.077
 20
-50.822
 40
2.601
 50
257.728
 51
270.0
  0
ARC
  8
APS_GEOMETRY
 10
500.081
 20
-50.803
 40
2.62
 50
245.501
 51
257.728
  0
ARC
  8
APS_GEOMETRY
 10
499.934
 20
-51.126
 40
2.266
 50
228.665
 51
245.511
  0
ARC
  8
APS_GEOMETRY
 10
499.885
 20
-51.181
 40
2.192
 50
211.535
 51
228.665
  0
ARC
  8
APS_GEOMETRY
 10
499.949
 20
-51.134
 40
2.271
 50
195.642
 51
211.701
  0
ARC
  8
APS_GEOMETRY
 10
500.067
 20
-51.101
 40
2.393
 50
180.0
 51
195.642
  0
ARC
  8
APS_GEOMETRY
 10
500.092
 20
-51.101
 40
2.418
 50
162.181
 51
180.0
  0
ARC
  8
APS_GEOMETRY
 10
499.871
 20
-51.03
 40
2.187
 50
143.434
 51
162.181
  0
ARC
  8
APS_GEOMETRY
 10
499.841
 20
-51.007
 40
2.148
 50
126.384
 51
143.471
  0
ARC
  8
APS_GEOMETRY
 10
500.045
 20
-51.283
 40
2.491
 50
110.525
 51
126.384
  0
ARC
  8
APS_GEOMETRY
 10
500.035
 20
-51.208
 40
2.418
 50
99.77
 51
110.925
  0
ARC
  8
APS_GEOMETRY
 10
500.159
 20
-51.929
 40
3.15
 50
90.0
 51
99.77
  0
ARC
  8
APS_GEOMETRY
 10
499.848
 20
-50.199
 40
0.481
 50
90.0
 51
119.604
  0
ARC
  8
APS_GEOMETRY
 10
499.89
 20
-50.273
 40
0.566
 50
119.604
 51
146.842
  0
ARC
  8
APS_GEOMETRY
 10
499.975
 20
-50.342
 40
0.675
 50
145.84
 51
164.055
  0
ARC
  8
APS_GEOMETRY
 10
500.171
 20
-50.398
 40
0.879
 50
164.055
 51
180.0
  0
ARC
  8
APS_GEOMETRY
 10
501.398
 20
-50.398
 40
2.105
 50
180.0
 51
189.977
  0
ARC
  8
APS_GEOMETRY
 10
503.263
 20
-50.07
 40
3.999
 50
189.977
 51
197.211
  0
ARC
  8
APS_GEOMETRY
 10
503.671
 20
-49.944
 40
4.426
 50
197.211
 51
203.76
  0
ARC
  8
APS_GEOMETRY
 10
502.654
 20
-50.391
 40
3.316
 50
203.76
 51
211.329
  0
ARC
  8
APS_GEOMETRY
 10
500.568
 20
-51.643
 40
0.882
 50
212.32
 51
224.441
  0
ARC
  8
APS_GEOMETRY
 10
500.482
 20
-51.727
 40
0.762
 50
224.441
 51
237.484
  0
ARC
  8
APS_GEOMETRY
 10
500.427
 20
-51.814
 40
0.66
 50
237.484
 51
252.416
  0
ARC
  8
APS_GEOMETRY
 10
500.372
 20
-51.988
 40
0.477
 50
252.416
 51
270.0
  0
ARC
  8
APS_GEOMETRY
 10
500.372
 20
-51.932
 40
0.533
 50
270.0
 51
294.953
  0
ARC
  8
APS_GEOMETRY
 10
500.387
 20
-51.964
 40
0.498
 50
294.953
 51
320.793
  0
ARC
  8
APS_GEOMETRY
 10
500.306
 20
-51.899
 40
0.601
 50
320.793
 51
342.777
  0
ARC
  8
APS_GEOMETRY
 10
499.95
 20
-51.788
 40
0.975
 50
342.777
 51
0.0
  0
ARC
  8
APS_GEOMETRY
 10
498.274
 20
-51.788
 40
2.651
 50
0.0
 51
8.499
  0
ARC
  8
APS_GEOMETRY
 10
497.107
 20
-51.962
 40
3.83
 50
8.499
 51
15.566
  0
ARC
  8
APS_GEOMETRY
 10
497.247
 20
-51.923
 40
3.685
 50
15.566
 51
22.909
  0
ARC
  8
APS_GEOMETRY
 10
498.453
 20
-51.413
 40
2.375
 50
22.909
 51
32.057
  0
ARC
  8
APS_GEOMETRY
 10
499.401
 20
-50.816
 40
1.255
 50
31.921
 51
42.51
  0
ARC
  8
APS_GEOMETRY
 10
499.661
 20
-50.578
 40
0.902
 50
42.51
 51
55.008
  0
ARC
  8
APS_GEOMETRY
 10
499.749
 20
-50.452
 40
0.749
 50
55.008
 51
69.88
  0
ARC
  8
APS_GEOMETRY
 10
499.828
 20
-50.237
 40
0.52
 50
69.88
 51
87.754
  0
ARC
  8
APS_GEOMETRY
 10
505.495
 20
-50.906
 40
2.126
 50
77.257
 51
90.0
  0
ARC
  8
APS_GEOMETRY
 10
505.473
 20
-51.001
 40
2.224
 50
64.799
 51
77.257
  0
ARC
  8
APS_GEOMETRY
 10
507.305
 20
-47.101
 40
2.084
 50
244.885
 51
251.175
  0
ARC
  8
APS_GEOMETRY
 10
506.708
 20
-48.852
 40
0.235
 50
251.175
 51
270.0
  0
ARC
  8
APS_GEOMETRY
 10
506.708
 20
-48.706
 40
0.381
 50
270.0
 51
278.82
  0
ARC
  8
APS_GEOMETRY
 10
506.462
 20
-47.121
 40
1.984
 50
278.82
 51
282.68
  0
ARC
  8
APS_GEOMETRY
 10
506.977
 20
-49.399
 40
0.351
 50
95.906
 51
102.995
  0
ARC
  8
APS_GEOMETRY
 10
506.993
 20
-49.553
 40
0.506
 50
90.0
 51
95.906
  0
ARC
  8
APS_GEOMETRY
 10
506.993
 20
-49.383
 40
0.336
 50
62.447
 51
90.0
  0
ARC
  8
APS_GEOMETRY
 10
506.933
 20
-49.497
 40
0.465
 50
39.094
 51
62.447
  0
ARC
  8
APS_GEOMETRY
 10
506.31
 20
-50.019
 40
1.277
 50
18.435
 51
39.611
  0
ARC
  8
APS_GEOMETRY
 10
505.927
 20
-50.146
 40
1.681
 50
360.0
 51
18.435
  0
ARC
  8
APS_GEOMETRY
 10
506.774
 20
-50.146
 40
0.833
 50
334.877
 51
360.0
  0
ARC
  8
APS_GEOMETRY
 10
507.025
 20
-50.264
 40
0.557
 50
304.007
 51
334.877
  0
ARC
  8
APS_GEOMETRY
 10
507.021
 20
-50.252
 40
0.569
 50
286.39
 51
303.69
  0
ARC
  8
APS_GEOMETRY
 10
507.003
 20
-50.19
 40
0.633
 50
270.0
 51
286.39
  0
ARC
  8
APS_GEOMETRY
 10
507.003
 20
-50.198
 40
0.626
 50
255.155
 51
270.0
  0
ARC
  8
APS_GEOMETRY
 10
506.934
 20
-50.456
 40
0.358
 50
235.491
 51
255.155
  0
ARC
  8
APS_GEOMETRY
 10
506.968
 20
-50.406
 40
0.419
 50
218.48
 51
235.491
  0
ARC
  8
APS_GEOMETRY
 10
507.531
 20
-49.959
 40
1.137
 50
208.179
 51
218.48
  0
ARC
  8
APS_GEOMETRY
 10
501.768
 20
-53.087
 40
5.42
 50
28.56
 51
31.664
  0
ARC
  8
APS_GEOMETRY
 10
505.289
 20
-50.916
 40
1.283
 50
31.664
 51
38.047
  0
ARC
  8
APS_GEOMETRY
 10
505.545
 20
-50.715
 40
0.958
 50
38.047
 51
46.56
  0
ARC
  8
APS_GEOMETRY
 10
505.412
 20
-50.856
 40
1.151
 50
46.56
 51
54.324
  0
ARC
  8
APS_GEOMETRY
 10
505.335
 20
-50.988
 40
1.303
 50
54.968
 51
71.48
  0
ARC
  8
APS_GEOMETRY
 10
505.42
 20
-50.736
 40
1.038
 50
71.48
 51
90.0
  0
ARC
  8
APS_GEOMETRY
 10
505.42
 20
-50.423
 40
0.725
 50
90.0
 51
114.63
  0
ARC
  8
APS_GEOMETRY
 10
505.383
 20
-50.344
 40
0.638
 50
114.63
 51
140.921
  0
ARC
  8
APS_GEOMETRY
 10
505.491
 20
-50.431
 40
0.776
 50
140.921
 51
163.13
  0
ARC
  8
APS_GEOMETRY
 10
506.029
 20
-50.594
 40
1.338
 50
163.13
 51
180.0
  0
ARC
  8
APS_GEOMETRY
 10
506.726
 20
-50.594
 40
2.036
 50
180.0
 51
195.44
  0
ARC
  8
APS_GEOMETRY
 10
506.62
 20
-50.624
 40
1.926
 50
195.44
 51
211.316
  0
ARC
  8
APS_GEOMETRY
 10
506.111
 20
-50.922
 40
1.336
 50
211.708
 51
240.457
  0
ARC
  8
APS_GEOMETRY
 10
506.077
 20
-50.983
 40
1.266
 50
240.457
 51
270.0
  0
ARC
  8
APS_GEOMETRY
 10
506.077
 20
-50.674
 40
1.575
 50
270.0
 51
279.549
  0
ARC
  8
APS_GEOMETRY
 10
506.057
 20
-50.558
 40
1.693
 50
279.549
 51
288.759
  0
ARC
  8
APS_GEOMETRY
 10
506.14
 20
-50.801
 40
1.436
 50
288.759
 51
299.545
  0
ARC
  8
APS_GEOMETRY
 10
506.471
 20
-51.385
 40
0.765
 50
299.545
 51
314.341
  0
ARC
  8
APS_GEOMETRY
 10
507.494
 20
-52.448
 40
0.711
 50
120.141
 51
133.452
  0
ARC
  8
APS_GEOMETRY
 10
507.209
 20
-51.955
 40
0.141
 50
90.0
 51
120.141
  0
ARC
  8
APS_GEOMETRY
 10
507.209
 20
-52.037
 40
0.223
 50
61.952
 51
90.0
  0
ARC
  8
APS_GEOMETRY
 10
507.175
 20
-52.099
 40
0.294
 50
37.569
 51
61.952
  0
ARC
  8
APS_GEOMETRY
 10
507.113
 20
-52.147
 40
0.372
 50
17.665
 51
37.569
  0
ARC
  8
APS_GEOMETRY
 10
507.019
 20
-52.177
 40
0.471
 50
360.0
 51
17.665
  0
ARC
  8
APS_GEOMETRY
 10
506.782
 20
-52.177
 40
0.708
 50
344.932
 51
0.0
  0
ARC
  8
APS_GEOMETRY
 10
506.152
 20
-52.008
 40
1.36
 50
334.075
 51
344.932
  0
ARC
  8
APS_GEOMETRY
 10
506.132
 20
-51.998
 40
1.382
 50
323.374
 51
334.075
  0
ARC
  8
APS_GEOMETRY
 10
506.539
 20
-52.3
 40
0.876
 50
309.92
 51
323.374
  0
ARC
  8
APS_GEOMETRY
 10
506.945
 20
-52.779
 40
0.248
 50
289.026
 51
308.991
  0
ARC
  8
APS_GEOMETRY
 10
506.511
 20
-51.523
 40
1.577
 50
281.143
 51
289.026
  0
ARC
  8
APS_GEOMETRY
 10
506.951
 20
-53.801
 40
0.743
 50
100.437
 51
110.12
  0
ARC
  8
APS_GEOMETRY
 10
507.533
 20
-55.39
 40
2.435
 50
110.12
 51
115.463
  0
ARC
  8
APS_GEOMETRY
 10
505.455
 20
-51.042
 40
2.384
 50
282.94
 51
295.628
  0
ARC
  8
APS_GEOMETRY
 10
505.475
 20
-51.131
 40
2.292
 50
270.0
 51
282.94
  0
ARC
  8
APS_GEOMETRY
 10
505.475
 20
-50.996
 40
2.427
 50
257.307
 51
270.0
  0
ARC
  8
APS_GEOMETRY
 10
505.578
 20
-50.541
 40
2.894
 50
245.686
 51
257.307
  0
ARC
  8
APS_GEOMETRY
 10
505.321
 20
-51.105
 40
2.274
 50
228.801
 51
245.735
  0
ARC
  8
APS_GEOMETRY
 10
505.325
 20
-51.1
 40
2.28
 50
211.891
 51
228.801
  0
ARC
  8
APS_GEOMETRY
 10
505.46
 20
-51.003
 40
2.446
 50
196.728
 51
212.152
  0
ARC
  8
APS_GEOMETRY
 10
505.111
 20
-51.108
 40
2.082
 50
180.0
 51
196.728
  0
ARC
  8
APS_GEOMETRY
 10
505.162
 20
-51.108
 40
2.133
 50
161.184
 51
180.0
  0
ARC
  8
APS_GEOMETRY
 10
505.299
 20
-51.154
 40
2.277
 50
142.98
 51
161.184
  0
ARC
  8
APS_GEOMETRY
 10
505.405
 20
-51.236
 40
2.411
 50
127.824
 51
142.958
  0
ARC
  8
APS_GEOMETRY
 10
505.58
 20
-51.462
 40
2.697
 50
113.52
 51
127.824
  0
ARC
  8
APS_GEOMETRY
 10
505.523
 20
-51.33
 40
2.554
 50
101.927
 51
113.527
  0
ARC
  8
APS_GEOMETRY
 10
505.495
 20
-51.195
 40
2.416
 50
90.0
 51
101.927
  0
ARC
  8
APS_GEOMETRY
 10
510.543
 20
-51.357
 40
2.578
 50
71.91
 51
90.0
  0
ARC
  8
APS_GEOMETRY
 10
510.643
 20
-51.052
 40
2.257
 50
52.561
 51
71.91
  0
ARC
  8
APS_GEOMETRY
 10
510.617
 20
-51.059
 40
2.279
 50
38.846
 51
52.156
  0
ARC
  8
APS_GEOMETRY
 10
510.26
 20
-51.347
 40
2.737
 50
26.707
 51
38.846
  0
ARC
  8
APS_GEOMETRY
 10
510.33
 20
-51.289
 40
2.648
 50
13.868
 51
26.278
  0
ARC
  8
APS_GEOMETRY
 10
510.84
 20
-51.163
 40
2.123
 50
360.0
 51
13.868
  0
ARC
  8
APS_GEOMETRY
 10
510.873
 20
-51.163
 40
2.09
 50
339.712
 51
360.0
  0
ARC
  8
APS_GEOMETRY
 10
510.756
 20
-51.12
 40
2.215
 50
320.013
 51
339.712
  0
ARC
  8
APS_GEOMETRY
 10
510.736
 20
-51.109
 40
2.237
 50
303.344
 51
320.123
  0
ARC
  8
APS_GEOMETRY
 10
510.506
 20
-50.76
 40
2.655
 50
287.949
 51
303.344
  0
ARC
  8
APS_GEOMETRY
 10
510.431
 20
-50.499
 40
2.927
 50
279.039
 51
287.776
  0
ARC
  8
APS_GEOMETRY
 10
510.461
 20
-50.689
 40
2.735
 50
270.0
 51
279.039
  0
ARC
  8
APS_GEOMETRY
 10
510.461
 20
-50.822
 40
2.601
 50
257.728
 51
270.0
  0
ARC
  8
APS_GEOMETRY
 10
510.465
 20
-50.803
 40
2.62
 50
245.501
 51
257.728
  0
ARC
  8
APS_GEOMETRY
 10
510.318
 20
-51.126
 40
2.266
 50
228.665
 51
245.511
  0
ARC
  8
APS_GEOMETRY
 10
510.269
 20
-51.181
 40
2.192
 50
211.535
 51
228.665
  0
ARC
  8
APS_GEOMETRY
 10
510.333
 20
-51.134
 40
2.271
 50
195.642
 51
211.701
  0
ARC
  8
APS_GEOMETRY
 10
510.451
 20
-51.101
 40
2.393
 50
180.0
 51
195.642
  0
ARC
  8
APS_GEOMETRY
 10
510.476
 20
-51.101
 40
2.418
 50
162.181
 51
180.0
  0
ARC
  8
APS_GEOMETRY
 10
510.255
 20
-51.03
 40
2.187
 50
143.434
 51
162.181
  0
ARC
  8
APS_GEOMETRY
 10
510.226
 20
-51.007
 40
2.148
 50
126.384
 51
143.471
  0
ARC
  8
APS_GEOMETRY
 10
510.429
 20
-51.283
 40
2.491
 50
110.525
 51
126.384
  0
ARC
  8
APS_GEOMETRY
 10
510.419
 20
-51.208
 40
2.418
 50
99.77
 51
110.925
  0
ARC
  8
APS_GEOMETRY
 10
510.543
 20
-51.929
 40
3.15
 50
90.0
 51
99.77
  0
ARC
  8
APS_GEOMETRY
 10
510.232
 20
-50.199
 40
0.481
 50
90.0
 51
119.604
  0
ARC
  8
APS_GEOMETRY
 10
510.274
 20
-50.273
 40
0.566
 50
119.604
 51
146.842
  0
ARC
  8
APS_GEOMETRY
 10
510.359
 20
-50.342
 40
0.675
 50
145.84
 51
164.055
  0
ARC
  8
APS_GEOMETRY
 10
510.555
 20
-50.398
 40
0.879
 50
164.055
 51
180.0
  0
ARC
  8
APS_GEOMETRY
 10
511.782
 20
-50.398
 40
2.105
 50
180.0
 51
189.977
  0
ARC
  8
APS_GEOMETRY
 10
513.647
 20
-50.07
 40
3.999
 50
189.977
 51
197.211
  0
ARC
  8
APS_GEOMETRY
 10
514.055
 20
-49.944
 40
4.426
 50
197.211
 51
203.76
  0
ARC
  8
APS_GEOMETRY
 10
513.038
 20
-50.391
 40
3.316
 50
203.76
 51
211.329
  0
ARC
  8
APS_GEOMETRY
 10
510.952
 20
-51.643
 40
0.882
 50
212.32
 51
224.441
  0
ARC
  8
APS_GEOMETRY
 10
510.866
 20
-51.727
 40
0.762
 50
224.441
 51
237.484
  0
ARC
  8
APS_GEOMETRY
 10
510.811
 20
-51.814
 40
0.66
 50
237.484
 51
252.416
  0
ARC
  8
APS_GEOMETRY
 10
510.756
 20
-51.988
 40
0.477
 50
252.416
 51
270.0
  0
ARC
  8
APS_GEOMETRY
 10
510.756
 20
-51.932
 40
0.533
 50
270.0
 51
294.953
  0
ARC
  8
APS_GEOMETRY
 10
510.771
 20
-51.964
 40
0.498
 50
294.953
 51
320.793
  0
ARC
  8
APS_GEOMETRY
 10
510.69
 20
-51.899
 40
0.601
 50
320.793
 51
342.777
  0
ARC
  8
APS_GEOMETRY
 10
510.334
 20
-51.788
 40
0.975
 50
342.777
 51
0.0
  0
ARC
  8
APS_GEOMETRY
 10
508.658
 20
-51.788
 40
2.651
 50
0.0
 51
8.499
  0
ARC
  8
APS_GEOMETRY
 10
507.491
 20
-51.962
 40
3.83
 50
8.499
 51
15.566
  0
ARC
  8
APS_GEOMETRY
 10
507.631
 20
-51.923
 40
3.685
 50
15.566
 51
22.909
  0
ARC
  8
APS_GEOMETRY
 10
508.838
 20
-51.413
 40
2.375
 50
22.909
 51
32.057
  0
ARC
  8
APS_GEOMETRY
 10
509.785
 20
-50.816
 40
1.255
 50
31.921
 51
42.51
  0
ARC
  8
APS_GEOMETRY
 10
510.045
 20
-50.578
 40
0.902
 50
42.51
 51
55.008
  0
ARC
  8
APS_GEOMETRY
 10
510.133
 20
-50.452
 40
0.749
 50
55.008
 51
69.88
  0
ARC
  8
APS_GEOMETRY
 10
510.212
 20
-50.237
 40
0.52
 50
69.88
 51
87.754
  0
ARC
  8
APS_GEOMETRY
 10
515.594
 20
-51.7
 40
0.242
 50
90.0
 51
115.837
  0
ARC
  8
APS_GEOMETRY
 10
515.535
 20
-51.577
 40
0.105
 50
115.837
 51
155.462
  0
ARC
  8
APS_GEOMETRY
 10
515.604
 20
-51.608
 40
0.182
 50
155.462
 51
168.366
  0
ARC
  8
APS_GEOMETRY
 10
516.239
 20
-51.739
 40
0.83
 50
168.366
 51
174.395
  0
ARC
  8
APS_GEOMETRY
 10
516.879
 20
-51.802
 40
1.472
 50
174.395
 51
177.813
  0
ARC
  8
APS_GEOMETRY
 10
519.001
 20
-51.883
 40
3.597
 50
177.813
 51
180.0
  0
ARC
  8
APS_GEOMETRY
 10
520.538
 20
-51.883
 40
5.133
 50
180.0
 51
184.62
  0
ARC
  8
APS_GEOMETRY
 10
517.096
 20
-52.161
 40
1.68
 50
184.62
 51
192.7
  0
ARC
  8
APS_GEOMETRY
 10
515.769
 20
-52.452
 40
0.322
 50
194.036
 51
205.821
  0
ARC
  8
APS_GEOMETRY
 10
515.629
 20
-52.52
 40
0.166
 50
205.821
 51
222.274
  0
ARC
  8
APS_GEOMETRY
 10
515.672
 20
-52.481
 40
0.224
 50
222.274
 51
234.605
  0
ARC
  8
APS_GEOMETRY
 10
516.158
 20
-51.797
 40
1.063
 50
234.605
 51
240.255
  0
ARC
  8
APS_GEOMETRY
 10
515.419
 20
-53.105
 40
0.439
 50
34.592
 51
61.189
  0
ARC
  8
APS_GEOMETRY
 10
515.564
 20
-53.005
 40
0.263
 50
360.0
 51
34.592
  0
ARC
  8
APS_GEOMETRY
 10
515.573
 20
-53.005
 40
0.254
 50
318.231
 51
360.0
  0
ARC
  8
APS_GEOMETRY
 10
515.403
 20
-52.853
 40
0.482
 50
288.227
 51
318.231
  0
ARC
  8
APS_GEOMETRY
 10
515.227
 20
-52.318
 40
1.045
 50
280.377
 51
288.227
  0
ARC
  8
APS_GEOMETRY
 10
514.92
 20
-50.642
 40
2.749
 50
275.541
 51
280.377
  0
ARC
  8
APS_GEOMETRY
 10
514.787
 20
-49.278
 40
4.119
 50
272.304
 51
275.541
  0
ARC
  8
APS_GEOMETRY
 10
514.626
 20
-45.274
 40
8.126
 50
270.0
 51
272.304
  0
ARC
  8
APS_GEOMETRY
 10
514.626
 20
-48.62
 40
4.78
 50
262.811
 51
270.0
  0
ARC
  8
APS_GEOMETRY
 10
514.197
 20
-52.021
 40
1.352
 50
249.274
 51
262.811
  0
ARC
  8
APS_GEOMETRY
 10
513.928
 20
-52.734
 40
0.59
 50
221.379
 51
249.274
  0
ARC
  8
APS_GEOMETRY
 10
513.691
 20
-52.942
 40
0.275
 50
180.0
 51
221.379
  0
ARC
  8
APS_GEOMETRY
 10
513.689
 20
-52.942
 40
0.273
 50
164.055
 51
180.0
  0
ARC
  8
APS_GEOMETRY
 10
513.575
 20
-52.91
 40
0.155
 50
142.815
 51
164.055
  0
ARC
  8
APS_GEOMETRY
 10
513.647
 20
-52.964
 40
0.244
 50
129.007
 51
142.815
  0
ARC
  8
APS_GEOMETRY
 10
514.526
 20
-54.05
 40
1.641
 50
123.69
 51
129.007
  0
ARC
  8
APS_GEOMETRY
 10
513.279
 20
-52.172
 40
0.613
 50
303.389
 51
319.022
  0
ARC
  8
APS_GEOMETRY
 10
513.444
 20
-52.316
 40
0.393
 50
319.022
 51
338.575
  0
ARC
  8
APS_GEOMETRY
 10
513.223
 20
-52.229
 40
0.632
 50
338.575
 51
351.049
  0
ARC
  8
APS_GEOMETRY
 10
510.542
 20
-51.807
 40
3.345
 50
351.049
 51
356.46
  0
ARC
  8
APS_GEOMETRY
 10
511.425
 20
-51.841
 40
2.461
 50
355.972
 51
358.68
  0
ARC
  8
APS_GEOMETRY
 10
482.406
 20
-51.172
 40
31.488
 50
358.68
 51
359.437
  0
LINE
  8
APS_GEOMETRY
 10
513.893
 11
513.896
 20
-51.481
 21
-50.99
  0
LINE
  8
APS_GEOMETRY
 10
513.896
 11
513.897
 20
-50.99
 21
-50.349
  0
ARC
  8
APS_GEOMETRY
 10
506.316
 20
-50.349
 40
7.581
 50
360.0
 51
1.717
  0
ARC
  8
APS_GEOMETRY
 10
510.373
 20
-50.227
 40
3.522
 50
1.717
 51
4.236
  0
ARC
  8
APS_GEOMETRY
 10
511.696
 20
-50.129
 40
2.196
 50
4.236
 51
8.269
  0
ARC
  8
APS_GEOMETRY
 10
513.218
 20
-49.908
 40
0.657
 50
8.269
 51
15.642
  0
ARC
  8
APS_GEOMETRY
 10
513.48
 20
-49.835
 40
0.385
 50
15.642
 51
39.417
  0
ARC
  8
APS_GEOMETRY
 10
513.486
 20
-49.83
 40
0.378
 50
39.417
 51
63.435
  0
ARC
  8
APS_GEOMETRY
 10
514.166
 20
-48.421
 40
1.187
 50
236.874
 51
244.486
  0
ARC
  8
APS_GEOMETRY
 10
513.66
 20
-49.196
 40
0.261
 50
220.601
 51
236.874
  0
ARC
  8
APS_GEOMETRY
 10
513.602
 20
-49.246
 40
0.185
 50
198.246
 51
220.601
  0
ARC
  8
APS_GEOMETRY
 10
513.689
 20
-49.217
 40
0.276
 50
180.0
 51
198.246
  0
ARC
  8
APS_GEOMETRY
 10
513.688
 20
-49.217
 40
0.275
 50
156.161
 51
180.0
  0
ARC
  8
APS_GEOMETRY
 10
513.726
 20
-49.234
 40
0.317
 50
133.977
 51
156.161
  0
ARC
  8
APS_GEOMETRY
 10
513.803
 20
-49.314
 40
0.427
 50
116.996
 51
133.977
  0
ARC
  8
APS_GEOMETRY
 10
513.954
 20
-49.611
 40
0.761
 50
104.3
 51
116.996
  0
ARC
  8
APS_GEOMETRY
 10
513.993
 20
-49.762
 40
0.916
 50
95.326
 51
104.349
  0
ARC
  8
APS_GEOMETRY
 10
514.152
 20
-51.465
 40
2.627
 50
90.0
 51
95.326
  0
ARC
  8
APS_GEOMETRY
 10
514.152
 20
-50.139
 40
1.301
 50
87.553
 51
90.0
  0
ARC
  8
APS_GEOMETRY
 10
513.875
 20
-56.618
 40
7.786
 50
86.553
 51
87.553
  0
ARC
  8
APS_GEOMETRY
 10
513.482
 20
-63.153
 40
14.332
 50
86.009
 51
86.553
  0
ARC
  8
APS_GEOMETRY
 10
511.951
 20
-85.094
 40
36.327
 50
85.668
 51
86.009
  0
ARC
  8
APS_GEOMETRY
 10
514.816
 20
-47.363
 40
1.513
 50
265.426
 51
268.531
  0
ARC
  8
APS_GEOMETRY
 10
514.95
 20
-42.119
 40
6.759
 50
268.531
 51
270.0
  0
ARC
  8
APS_GEOMETRY
 10
514.95
 20
-43.726
 40
5.151
 50
270.0
 51
271.637
  0
ARC
  8
APS_GEOMETRY
 10
514.835
 20
-39.698
 40
9.181
 50
271.637
 51
272.862
  0
ARC
  8
APS_GEOMETRY
 10
514.703
 20
-37.055
 40
11.827
 50
272.862
 51
273.814
  0
ARC
  8
APS_GEOMETRY
 10
514.256
 20
-30.345
 40
18.553
 50
273.814
 51
274.574
  0
ARC
  8
APS_GEOMETRY
 10
517.062
 20
-66.844
 40
18.054
 50
93.72
 51
94.214
  0
ARC
  8
APS_GEOMETRY
 10
516.463
 20
-57.632
 40
8.823
 50
93.013
 51
93.72
  0
ARC
  8
APS_GEOMETRY
 10
516.299
 20
-54.512
 40
5.699
 50
91.918
 51
93.013
  0
ARC
  8
APS_GEOMETRY
 10
516.17
 20
-50.671
 40
1.855
 50
90.0
 51
91.918
  0
ARC
  8
APS_GEOMETRY
 10
516.17
 20
-51.226
 40
2.411
 50
73.82
 51
90.0
  0
ARC
  8
APS_GEOMETRY
 10
516.408
 20
-50.407
 40
1.558
 50
53.658
 51
73.82
  0
ARC
  8
APS_GEOMETRY
 10
516.746
 20
-49.945
 40
0.986
 50
26.03
 51
53.569
  0
ARC
  8
APS_GEOMETRY
 10
516.642
 20
-49.996
 40
1.101
 50
360.0
 51
26.03
  0
ARC
  8
APS_GEOMETRY
 10
516.599
 20
-49.996
 40
1.144
 50
345.282
 51
360.0
  0
ARC
  8
APS_GEOMETRY
 10
516.709
 20
-50.025
 40
1.03
 50
329.767
 51
345.282
  0
ARC
  8
APS_GEOMETRY
 10
516.771
 20
-50.061
 40
0.958
 50
313.168
 51
329.767
  0
ARC
  8
APS_GEOMETRY
 10
516.794
 20
-50.086
 40
0.925
 50
296.267
 51
313.168
  0
ARC
  8
APS_GEOMETRY
 10
517.321
 20
-51.149
 40
0.262
 50
116.565
 51
139.899
  0
ARC
  8
APS_GEOMETRY
 10
517.19
 20
-51.039
 40
0.091
 50
139.899
 51
180.0
  0
ARC
  8
APS_GEOMETRY
 10
517.2
 20
-51.039
 40
0.101
 50
180.0
 51
226.193
  0
ARC
  8
APS_GEOMETRY
 10
517.387
 20
-50.844
 40
0.372
 50
226.193
 51
249.829
  0
ARC
  8
APS_GEOMETRY
 10
516.851
 20
-52.32
 40
1.199
 50
53.249
 51
70.105
  0
ARC
  8
APS_GEOMETRY
 10
517.095
 20
-51.994
 40
0.792
 50
32.471
 51
53.249
  0
ARC
  8
APS_GEOMETRY
 10
516.981
 20
-52.066
 40
0.926
 50
23.305
 51
32.471
  0
ARC
  8
APS_GEOMETRY
 10
516.28
 20
-52.368
 40
1.69
 50
16.521
 51
23.305
  0
ARC
  8
APS_GEOMETRY
 10
515.733
 20
-52.53
 40
2.26
 50
11.429
 51
16.521
  0
ARC
  8
APS_GEOMETRY
 10
514.185
 20
-52.843
 40
3.84
 50
7.524
 51
11.429
  0
ARC
  8
APS_GEOMETRY
 10
519.317
 20
-52.16
 40
1.338
 50
187.765
 51
196.914
  0
ARC
  8
APS_GEOMETRY
 10
518.223
 20
-52.493
 40
0.194
 50
196.914
 51
221.082
  0
ARC
  8
APS_GEOMETRY
 10
518.227
 20
-52.489
 40
0.2
 50
221.082
 51
244.607
  0
ARC
  8
APS_GEOMETRY
 10
518.695
 20
-51.505
 40
1.29
 50
244.607
 51
253.811
  0
ARC
  8
APS_GEOMETRY
 10
518.284
 20
-52.905
 40
0.17
 50
51.45
 51
72.474
  0
ARC
  8
APS_GEOMETRY
 10
518.241
 20
-52.958
 40
0.238
 50
33.69
 51
51.45
  0
ARC
  8
APS_GEOMETRY
 10
518.232
 20
-52.965
 40
0.25
 50
16.639
 51
33.69
  0
ARC
  8
APS_GEOMETRY
 10
518.22
 20
-52.969
 40
0.262
 50
360.0
 51
16.639
  0
ARC
  8
APS_GEOMETRY
 10
518.216
 20
-52.969
 40
0.266
 50
338.993
 51
360.0
  0
ARC
  8
APS_GEOMETRY
 10
518.053
 20
-52.906
 40
0.44
 50
322.696
 51
338.993
  0
ARC
  8
APS_GEOMETRY
 10
517.993
 20
-52.86
 40
0.516
 50
308.603
 51
322.696
  0
ARC
  8
APS_GEOMETRY
 10
517.951
 20
-52.808
 40
0.583
 50
295.346
 51
308.603
  0
ARC
  8
APS_GEOMETRY
 10
517.732
 20
-52.325
 40
1.113
 50
279.583
 51
294.905
  0
ARC
  8
APS_GEOMETRY
 10
517.445
 20
-50.627
 40
2.835
 50
270.0
 51
279.583
  0
ARC
  8
APS_GEOMETRY
 10
517.445
 20
-51.395
 40
2.067
 50
261.247
 51
270.0
  0
ARC
  8
APS_GEOMETRY
 10
517.313
 20
-52.255
 40
1.197
 50
249.737
 51
261.247
  0
ARC
  8
APS_GEOMETRY
 10
517.226
 20
-52.491
 40
0.946
 50
235.345
 51
249.737
  0
ARC
  8
APS_GEOMETRY
 10
517.116
 20
-52.65
 40
0.752
 50
219.198
 51
235.345
  0
ARC
  8
APS_GEOMETRY
 10
517.347
 20
-52.453
 40
1.056
 50
209.076
 51
219.56
  0
ARC
  8
APS_GEOMETRY
 10
517.881
 20
-52.156
 40
1.667
 50
200.735
 51
209.076
  0
ARC
  8
APS_GEOMETRY
 10
518.618
 20
-51.877
 40
2.455
 50
197.881
 51
200.735
  0
ARC
  8
APS_GEOMETRY
 10
521.647
 20
-50.9
 40
5.637
 50
195.997
 51
197.881
  0
ARC
  8
APS_GEOMETRY
 10
523.885
 20
-50.258
 40
7.966
 50
194.664
 51
195.997
  0
ARC
  8
APS_GEOMETRY
 10
530.084
 20
-48.636
 40
14.374
 50
193.671
 51
194.664
  0
ARC
  8
APS_GEOMETRY
 10
514.363
 20
-52.458
 40
1.805
 50
13.61
 51
23.585
  0
ARC
  8
APS_GEOMETRY
 10
515.545
 20
-51.942
 40
0.515
 50
23.585
 51
42.31
  0
ARC
  8
APS_GEOMETRY
 10
515.652
 20
-51.844
 40
0.371
 50
42.31
 51
67.521
  0
ARC
  8
APS_GEOMETRY
 10
515.568
 20
-52.049
 40
0.592
 50
67.521
 51
87.397
  0
LINE
  8
APS_GEOMETRY
 10
515.408
 11
515.372
 20
-49.79
 21
-50.552
  0
LINE
  8
APS_GEOMETRY
 10
515.372
 11
515.372
 20
-50.552
 21
-50.564
  0
LINE
  8
APS_GEOMETRY
 10
515.372
 11
515.372
 20
-50.564
 21
-50.581
  0
ARC
  8
APS_GEOMETRY
 10
515.901
 20
-50.581
 40
0.529
 50
180.0
 51
192.339
  0
ARC
  8
APS_GEOMETRY
 10
515.481
 20
-50.673
 40
0.099
 50
192.339
 51
221.186
  0
ARC
  8
APS_GEOMETRY
 10
515.471
 20
-50.682
 40
0.085
 50
221.186
 51
253.872
  0
ARC
  8
APS_GEOMETRY
 10
515.542
 20
-50.435
 40
0.343
 50
253.872
 51
270.0
  0
ARC
  8
APS_GEOMETRY
 10
515.542
 20
-49.98
 40
0.797
 50
270.0
 51
289.569
  0
ARC
  8
APS_GEOMETRY
 10
515.687
 20
-50.388
 40
0.364
 50
289.569
 51
318.681
  0
ARC
  8
APS_GEOMETRY
 10
515.648
 20
-50.354
 40
0.417
 50
318.681
 51
344.628
  0
ARC
  8
APS_GEOMETRY
 10
514.918
 20
-50.153
 40
1.174
 50
344.628
 51
0.0
  0
ARC
  8
APS_GEOMETRY
 10
515.265
 20
-50.153
 40
0.827
 50
0.0
 51
35.369
  0
ARC
  8
APS_GEOMETRY
 10
515.643
 20
-49.884
 40
0.362
 50
35.369
 51
90.0
  0
ARC
  8
APS_GEOMETRY
 10
515.643
 20
-49.888
 40
0.366
 50
90.0
 51
108.435
  0
ARC
  8
APS_GEOMETRY
 10
515.572
 20
-49.674
 40
0.141
 50
108.435
 51
138.366
  0
ARC
  8
APS_GEOMETRY
 10
515.591
 20
-49.691
 40
0.167
 50
138.366
 51
164.291
  0
ARC
  8
APS_GEOMETRY
 10
516.04
 20
-49.817
 40
0.632
 50
164.291
 51
177.51
  0
LINE
  8
APS_GEOMETRY
 10
521.23
 11
522.859
 20
-49.028
 21
-50.454
  0
ARC
  8
APS_GEOMETRY
 10
524.382
 20
-48.706
 40
2.318
 50
228.93
 51
232.674
  0
ARC
  8
APS_GEOMETRY
 10
523.534
 20
-49.817
 40
0.921
 50
232.674
 51
238.617
  0
ARC
  8
APS_GEOMETRY
 10
523.321
 20
-50.167
 40
0.512
 50
238.617
 51
249.131
  0
ARC
  8
APS_GEOMETRY
 10
523.186
 20
-50.522
 40
0.131
 50
249.131
 51
270.0
  0
ARC
  8
APS_GEOMETRY
 10
523.186
 20
-50.538
 40
0.115
 50
270.0
 51
334.898
  0
ARC
  8
APS_GEOMETRY
 10
522.656
 20
-50.29
 40
0.7
 50
334.898
 51
0.0
  0
ARC
  8
APS_GEOMETRY
 10
517.533
 20
-50.29
 40
5.823
 50
360.0
 51
2.026
  0
ARC
  8
APS_GEOMETRY
 10
520.621
 20
-50.181
 40
2.732
 50
2.026
 51
4.984
  0
ARC
  8
APS_GEOMETRY
 10
521.631
 20
-50.093
 40
1.719
 50
4.984
 51
9.673
  0
ARC
  8
APS_GEOMETRY
 10
522.795
 20
-49.894
 40
0.538
 50
9.673
 51
18.06
  0
ARC
  8
APS_GEOMETRY
 10
522.972
 20
-49.837
 40
0.352
 50
18.06
 51
42.397
  0
ARC
  8
APS_GEOMETRY
 10
522.915
 20
-49.889
 40
0.429
 50
42.397
 51
64.398
  0
ARC
  8
APS_GEOMETRY
 10
523.438
 20
-48.81
 40
0.769
 50
233.633
 51
244.026
  0
ARC
  8
APS_GEOMETRY
 10
523.153
 20
-49.197
 40
0.29
 50
216.656
 51
233.633
  0
ARC
  8
APS_GEOMETRY
 10
523.109
 20
-49.229
 40
0.235
 50
196.082
 51
216.656
  0
ARC
  8
APS_GEOMETRY
 10
523.252
 20
-49.188
 40
0.383
 50
180.0
 51
196.082
  0
ARC
  8
APS_GEOMETRY
 10
523.147
 20
-49.188
 40
0.279
 50
133.202
 51
180.0
  0
ARC
  8
APS_GEOMETRY
 10
523.367
 20
-49.422
 40
0.6
 50
101.788
 51
133.202
  0
ARC
  8
APS_GEOMETRY
 10
523.418
 20
-49.652
 40
0.835
 50
96.633
 51
102.011
  0
ARC
  8
APS_GEOMETRY
 10
523.604
 20
-51.251
 40
2.445
 50
93.489
 51
96.633
  0
ARC
  8
APS_GEOMETRY
 10
523.684
 20
-52.557
 40
3.753
 50
91.439
 51
93.489
  0
ARC
  8
APS_GEOMETRY
 10
523.781
 20
-56.416
 40
7.614
 50
90.0
 51
91.439
  0
ARC
  8
APS_GEOMETRY
 10
523.781
 20
-55.899
 40
7.096
 50
87.994
 51
90.0
  0
ARC
  8
APS_GEOMETRY
 10
523.91
 20
-52.215
 40
3.41
 50
85.101
 51
87.994
  0
ARC
  8
APS_GEOMETRY
 10
524.014
 20
-50.993
 40
2.184
 50
80.595
 51
85.101
  0
ARC
  8
APS_GEOMETRY
 10
524.253
 20
-49.552
 40
0.723
 50
72.759
 51
80.595
  0
ARC
  8
APS_GEOMETRY
 10
524.326
 20
-49.327
 40
0.488
 50
40.956
 51
73.072
  0
ARC
  8
APS_GEOMETRY
 10
524.464
 20
-49.208
 40
0.305
 50
360.0
 51
40.956
  0
ARC
  8
APS_GEOMETRY
 10
524.482
 20
-49.208
 40
0.286
 50
322.573
 51
360.0
  0
ARC
  8
APS_GEOMETRY
 10
524.331
 20
-49.092
 40
0.476
 50
293.749
 51
322.573
  0
ARC
  8
APS_GEOMETRY
 10
524.936
 20
-50.481
 40
1.038
 50
113.429
 51
119.291
  0
ARC
  8
APS_GEOMETRY
 10
524.532
 20
-49.761
 40
0.212
 50
119.291
 51
132.274
  0
ARC
  8
APS_GEOMETRY
 10
524.509
 20
-49.735
 40
0.178
 50
132.274
 51
147.653
  0
ARC
  8
APS_GEOMETRY
 10
524.677
 20
-49.841
 40
0.377
 50
147.653
 51
158.199
  0
ARC
  8
APS_GEOMETRY
 10
524.933
 20
-49.949
 40
0.655
 50
157.751
 51
167.885
  0
ARC
  8
APS_GEOMETRY
 10
526.295
 20
-50.242
 40
2.048
 50
167.885
 51
173.61
  0
ARC
  8
APS_GEOMETRY
 10
527.499
 20
-50.377
 40
3.26
 50
173.61
 51
177.221
  0
ARC
  8
APS_GEOMETRY
 10
531.215
 20
-50.557
 40
6.98
 50
177.221
 51
179.689
  0
LINE
  8
APS_GEOMETRY
 10
524.235
 11
524.235
 20
-50.519
 21
-51.585
  0
ARC
  8
APS_GEOMETRY
 10
567.772
 20
-51.585
 40
43.537
 50
180.0
 51
180.161
  0
ARC
  8
APS_GEOMETRY
 10
605.554
 20
-51.479
 40
81.319
 50
180.161
 51
180.279
  0
LINE
  8
APS_GEOMETRY
 10
524.236
 11
524.237
 20
-51.875
 21
-52.054
  0
LINE
  8
APS_GEOMETRY
 10
524.237
 11
524.239
 20
-52.054
 21
-52.256
  0
ARC
  8
APS_GEOMETRY
 10
516.47
 20
-52.3
 40
7.769
 50
358.204
 51
0.326
  0
ARC
  8
APS_GEOMETRY
 10
520.166
 20
-52.416
 40
4.071
 50
355.274
 51
358.204
  0
ARC
  8
APS_GEOMETRY
 10
521.452
 20
-52.522
 40
2.781
 50
350.991
 51
355.274
  0
ARC
  8
APS_GEOMETRY
 10
523.09
 20
-52.782
 40
1.122
 50
344.249
 51
350.991
  0
ARC
  8
APS_GEOMETRY
 10
523.643
 20
-52.94
 40
0.547
 50
314.415
 51
344.445
  0
ARC
  8
APS_GEOMETRY
 10
523.846
 20
-53.147
 40
0.257
 50
270.0
 51
314.415
  0
ARC
  8
APS_GEOMETRY
 10
523.846
 20
-52.988
 40
0.416
 50
256.342
 51
270.0
  0
ARC
  8
APS_GEOMETRY
 10
523.817
 20
-53.109
 40
0.29
 50
239.982
 51
256.342
  0
ARC
  8
APS_GEOMETRY
 10
523.946
 20
-52.885
 40
0.549
 50
231.153
 51
239.982
  0
ARC
  8
APS_GEOMETRY
 10
526.121
 20
-50.185
 40
4.017
 50
227.891
 51
231.153
  0
LINE
  8
APS_GEOMETRY
 10
523.428
 11
521.488
 20
-53.165
 21
-51.428
  0
ARC
  8
APS_GEOMETRY
 10
520.741
 20
-52.255
 40
1.115
 50
47.911
 51
61.468
  0
ARC
  8
APS_GEOMETRY
 10
521.151
 20
-51.501
 40
0.256
 50
61.468
 51
90.0
  0
ARC
  8
APS_GEOMETRY
 10
521.151
 20
-51.357
 40
0.112
 50
90.0
 51
133.195
  0
ARC
  8
APS_GEOMETRY
 10
521.262
 20
-51.475
 40
0.273
 50
133.195
 51
160.454
  0
ARC
  8
APS_GEOMETRY
 10
521.616
 20
-51.601
 40
0.649
 50
160.454
 51
173.251
  0
ARC
  8
APS_GEOMETRY
 10
523.283
 20
-51.798
 40
2.328
 50
173.251
 51
180.0
  0
ARC
  8
APS_GEOMETRY
 10
527.817
 20
-51.798
 40
6.862
 50
180.0
 51
181.897
  0
ARC
  8
APS_GEOMETRY
 10
524.183
 20
-51.918
 40
3.226
 50
181.897
 51
184.664
  0
ARC
  8
APS_GEOMETRY
 10
522.992
 20
-52.015
 40
2.03
 50
184.664
 51
189.048
  0
ARC
  8
APS_GEOMETRY
 10
521.611
 20
-52.235
 40
0.633
 50
189.048
 51
196.905
  0
ARC
  8
APS_GEOMETRY
 10
521.392
 20
-52.302
 40
0.404
 50
196.905
 51
220.253
  0
ARC
  8
APS_GEOMETRY
 10
521.397
 20
-52.298
 40
0.41
 50
220.253
 51
243.435
  0
ARC
  8
APS_GEOMETRY
 10
520.997
 20
-53.104
 40
0.49
 50
37.921
 51
63.778
  0
ARC
  8
APS_GEOMETRY
 10
521.2
 20
-52.946
 40
0.232
 50
360.0
 51
37.921
  0
ARC
  8
APS_GEOMETRY
 10
521.11
 20
-52.946
 40
0.323
 50
324.268
 51
360.0
  0
ARC
  8
APS_GEOMETRY
 10
520.989
 20
-52.859
 40
0.471
 50
294.86
 51
324.268
  0
ARC
  8
APS_GEOMETRY
 10
520.789
 20
-52.428
 40
0.946
 50
278.78
 51
294.86
  0
ARC
  8
APS_GEOMETRY
 10
520.452
 20
-50.24
 40
3.16
 50
270.0
 51
278.78
  0
ARC
  8
APS_GEOMETRY
 10
520.452
 20
-50.807
 40
2.593
 50
260.383
 51
270.0
  0
ARC
  8
APS_GEOMETRY
 10
520.178
 20
-52.42
 40
0.957
 50
244.522
 51
260.383
  0
ARC
  8
APS_GEOMETRY
 10
519.98
 20
-52.835
 40
0.497
 50
216.549
 51
244.522
  0
ARC
  8
APS_GEOMETRY
 10
519.818
 20
-52.955
 40
0.295
 50
180.0
 51
216.549
  0
ARC
  8
APS_GEOMETRY
 10
519.923
 20
-52.955
 40
0.401
 50
164.65
 51
180.0
  0
ARC
  8
APS_GEOMETRY
 10
519.695
 20
-52.893
 40
0.164
 50
140.528
 51
164.65
  0
ARC
  8
APS_GEOMETRY
 10
519.787
 20
-52.969
 40
0.283
 50
126.135
 51
140.528
  0
ARC
  8
APS_GEOMETRY
 10
520.753
 20
-54.291
 40
1.921
 50
120.619
 51
126.135
  0
ARC
  8
APS_GEOMETRY
 10
519.608
 20
-52.359
 40
0.325
 50
300.784
 51
330.068
  0
ARC
  8
APS_GEOMETRY
 10
519.392
 20
-52.234
 40
0.575
 50
330.068
 51
351.983
  0
ARC
  8
APS_GEOMETRY
 10
515.755
 20
-51.76
 40
4.242
 50
352.493
 51
355.365
  0
ARC
  8
APS_GEOMETRY
 10
511.369
 20
-51.405
 40
8.643
 50
355.365
 51
357.376
  0
ARC
  8
APS_GEOMETRY
 10
508.298
 20
-51.264
 40
11.717
 50
357.376
 51
358.861
  0
ARC
  8
APS_GEOMETRY
 10
500.115
 20
-51.101
 40
19.901
 50
358.861
 51
0.0
  0
ARC
  8
APS_GEOMETRY
 10
507.474
 20
-51.101
 40
12.542
 50
360.0
 51
1.926
  0
ARC
  8
APS_GEOMETRY
 10
513.313
 20
-50.905
 40
6.701
 50
1.926
 51
4.562
  0
ARC
  8
APS_GEOMETRY
 10
515.372
 20
-50.741
 40
4.635
 50
4.562
 51
8.366
  0
ARC
  8
APS_GEOMETRY
 10
518.049
 20
-50.347
 40
1.929
 50
8.366
 51
14.265
  0
ARC
  8
APS_GEOMETRY
 10
519.062
 20
-50.091
 40
0.884
 50
14.349
 51
23.629
  0
ARC
  8
APS_GEOMETRY
 10
519.575
 20
-49.866
 40
0.324
 50
23.629
 51
38.991
  0
ARC
  8
APS_GEOMETRY
 10
519.577
 20
-49.865
 40
0.322
 50
38.991
 51
54.462
  0
ARC
  8
APS_GEOMETRY
 10
519.277
 20
-50.285
 40
0.838
 50
54.462
 51
64.026
  0
ARC
  8
APS_GEOMETRY
 10
520.124
 20
-48.548
 40
1.094
 50
235.472
 51
243.947
  0
ARC
  8
APS_GEOMETRY
 10
519.686
 20
-49.185
 40
0.322
 50
219.806
 51
235.472
  0
ARC
  8
APS_GEOMETRY
 10
519.62
 20
-49.24
 40
0.235
 50
198.939
 51
219.806
  0
ARC
  8
APS_GEOMETRY
 10
519.667
 20
-49.224
 40
0.285
 50
180.0
 51
198.939
  0
ARC
  8
APS_GEOMETRY
 10
519.653
 20
-49.224
 40
0.271
 50
126.254
 51
180.0
  0
ARC
  8
APS_GEOMETRY
 10
520.067
 20
-49.788
 40
0.971
 50
98.616
 51
126.254
  0
ARC
  8
APS_GEOMETRY
 10
520.126
 20
-50.255
 40
1.441
 50
94.456
 51
98.13
  0
ARC
  8
APS_GEOMETRY
 10
520.35
 20
-53.14
 40
4.335
 50
92.337
 51
94.456
  0
ARC
  8
APS_GEOMETRY
 10
520.446
 20
-55.488
 40
6.685
 50
90.963
 51
92.337
  0
ARC
  8
APS_GEOMETRY
 10
520.563
 20
-62.423
 40
13.621
 50
90.0
 51
90.963
  0
ARC
  8
APS_GEOMETRY
 10
520.563
 20
-51.284
 40
2.482
 50
83.928
 51
90.0
  0
ARC
  8
APS_GEOMETRY
 10
520.766
 20
-49.371
 40
0.558
 50
71.095
 51
83.928
  0
ARC
  8
APS_GEOMETRY
 10
520.785
 20
-49.316
 40
0.5
 50
56.848
 51
71.095
  0
ARC
  8
APS_GEOMETRY
 10
520.235
 20
-50.159
 40
1.506
 50
48.652
 51
56.848
  0
ARC
  8
APS_GEOMETRY
 10
527.111
 20
-52.863
 40
4.061
 50
84.71
 51
90.0
  0
ARC
  8
APS_GEOMETRY
 10
527.185
 20
-52.059
 40
3.253
 50
78.799
 51
84.71
  0
ARC
  8
APS_GEOMETRY
 10
527.667
 20
-49.625
 40
0.772
 50
49.783
 51
78.771
  0
ARC
  8
APS_GEOMETRY
 10
527.989
 20
-49.244
 40
0.273
 50
360.0
 51
49.783
  0
ARC
  8
APS_GEOMETRY
 10
527.96
 20
-49.244
 40
0.302
 50
342.759
 51
360.0
  0
ARC
  8
APS_GEOMETRY
 10
528.117
 20
-49.293
 40
0.137
 50
317.045
 51
342.759
  0
ARC
  8
APS_GEOMETRY
 10
528.041
 20
-49.222
 40
0.241
 50
301.817
 51
317.045
  0
ARC
  8
APS_GEOMETRY
 10
526.916
 20
-47.407
 40
2.376
 50
296.98
 51
301.817
  0
ARC
  8
APS_GEOMETRY
 10
528.116
 20
-49.769
 40
0.273
 50
116.565
 51
149.078
  0
ARC
  8
APS_GEOMETRY
 10
528.468
 20
-49.98
 40
0.683
 50
149.078
 51
169.469
  0
ARC
  8
APS_GEOMETRY
 10
529.218
 20
-50.12
 40
1.447
 50
169.469
 51
174.598
  0
ARC
  8
APS_GEOMETRY
 10
533.085
 20
-50.485
 40
5.33
 50
174.598
 51
177.269
  0
ARC
  8
APS_GEOMETRY
 10
536.484
 20
-50.647
 40
8.734
 50
177.269
 51
178.901
  0
ARC
  8
APS_GEOMETRY
 10
547.015
 20
-50.849
 40
19.267
 50
178.901
 51
180.0
  0
ARC
  8
APS_GEOMETRY
 10
568.414
 20
-50.849
 40
40.666
 50
180.0
 51
180.88
  0
ARC
  8
APS_GEOMETRY
 10
543.362
 20
-51.234
 40
15.611
 50
180.88
 51
182.3
  0
ARC
  8
APS_GEOMETRY
 10
536.039
 20
-51.528
 40
8.282
 50
182.3
 51
184.974
  0
ARC
  8
APS_GEOMETRY
 10
529.057
 20
-52.136
 40
1.274
 50
184.974
 51
191.793
  0
ARC
  8
APS_GEOMETRY
 10
528.246
 20
-52.291
 40
0.448
 50
193.57
 51
205.787
  0
ARC
  8
APS_GEOMETRY
 10
528.045
 20
-52.389
 40
0.224
 50
205.787
 51
223.091
  0
ARC
  8
APS_GEOMETRY
 10
528.096
 20
-52.341
 40
0.294
 50
223.091
 51
236.441
  0
ARC
  8
APS_GEOMETRY
 10
528.524
 20
-51.695
 40
1.069
 50
236.441
 51
243.435
  0
ARC
  8
APS_GEOMETRY
 10
527.868
 20
-53.042
 40
0.429
 50
37.185
 51
65.556
  0
ARC
  8
APS_GEOMETRY
 10
528.008
 20
-52.936
 40
0.254
 50
0.0
 51
37.185
  0
ARC
  8
APS_GEOMETRY
 10
528.001
 20
-52.936
 40
0.261
 50
312.039
 51
360.0
  0
ARC
  8
APS_GEOMETRY
 10
527.69
 20
-52.591
 40
0.726
 50
283.815
 51
312.039
  0
ARC
  8
APS_GEOMETRY
 10
527.175
 20
-50.46
 40
2.917
 50
279.273
 51
283.627
  0
ARC
  8
APS_GEOMETRY
 10
526.97
 20
-49.202
 40
4.193
 50
275.641
 51
279.273
  0
ARC
  8
APS_GEOMETRY
 10
526.891
 20
-48.406
 40
4.992
 50
272.588
 51
275.641
  0
ARC
  8
APS_GEOMETRY
 10
526.803
 20
-46.455
 40
6.946
 50
270.0
 51
272.588
  0
ARC
  8
APS_GEOMETRY
 10
526.803
 20
-49.211
 40
4.189
 50
262.774
 51
270.0
  0
ARC
  8
APS_GEOMETRY
 10
526.426
 20
-52.19
 40
1.187
 50
249.175
 51
262.774
  0
ARC
  8
APS_GEOMETRY
 10
526.188
 20
-52.813
 40
0.519
 50
221.23
 51
249.175
  0
ARC
  8
APS_GEOMETRY
 10
525.981
 20
-52.995
 40
0.244
 50
180.0
 51
221.23
  0
ARC
  8
APS_GEOMETRY
 10
525.941
 20
-52.995
 40
0.204
 50
142.696
 51
180.0
  0
ARC
  8
APS_GEOMETRY
 10
526.263
 20
-53.24
 40
0.609
 50
121.357
 51
142.696
  0
ARC
  8
APS_GEOMETRY
 10
525.719
 20
-52.349
 40
0.435
 50
301.477
 51
324.728
  0
ARC
  8
APS_GEOMETRY
 10
525.777
 20
-52.39
 40
0.364
 50
324.728
 51
350.181
  0
ARC
  8
APS_GEOMETRY
 10
523.953
 20
-52.088
 40
2.213
 50
350.538
 51
355.423
  0
ARC
  8
APS_GEOMETRY
 10
516.458
 20
-51.488
 40
9.732
 50
355.423
 51
357.752
  0
ARC
  8
APS_GEOMETRY
 10
509.498
 20
-51.215
 40
16.697
 50
357.752
 51
359.111
  0
ARC
  8
APS_GEOMETRY
 10
487.224
 20
-50.869
 40
38.974
 50
359.111
 51
0.0
  0
ARC
  8
APS_GEOMETRY
 10
512.676
 20
-50.869
 40
13.522
 50
0.0
 51
1.773
  0
ARC
  8
APS_GEOMETRY
 10
520.612
 20
-50.623
 40
5.583
 50
1.773
 51
4.532
  0
ARC
  8
APS_GEOMETRY
 10
523.024
 20
-50.432
 40
3.163
 50
4.532
 51
9.384
  0
ARC
  8
APS_GEOMETRY
 10
525.473
 20
-50.027
 40
0.68
 50
9.384
 51
19.855
  0
ARC
  8
APS_GEOMETRY
 10
525.797
 20
-49.904
 40
0.334
 50
18.853
 51
42.158
  0
ARC
  8
APS_GEOMETRY
 10
525.52
 20
-50.156
 40
0.708
 50
42.158
 51
58.092
  0
ARC
  8
APS_GEOMETRY
 10
526.742
 20
-48.266
 40
1.543
 50
230.711
 51
236.634
  0
ARC
  8
APS_GEOMETRY
 10
525.974
 20
-49.205
 40
0.33
 50
217.875
 51
230.711
  0
ARC
  8
APS_GEOMETRY
 10
525.869
 20
-49.287
 40
0.196
 50
196.928
 51
217.875
  0
ARC
  8
APS_GEOMETRY
 10
525.968
 20
-49.257
 40
0.299
 50
180.0
 51
196.928
  0
ARC
  8
APS_GEOMETRY
 10
525.903
 20
-49.257
 40
0.235
 50
148.791
 51
180.0
  0
ARC
  8
APS_GEOMETRY
 10
525.965
 20
-49.294
 40
0.307
 50
121.569
 51
148.791
  0
ARC
  8
APS_GEOMETRY
 10
526.075
 20
-49.474
 40
0.518
 50
112.806
 51
121.569
  0
ARC
  8
APS_GEOMETRY
 10
526.374
 20
-50.184
 40
1.289
 50
107.254
 51
112.806
  0
ARC
  8
APS_GEOMETRY
 10
526.557
 20
-50.773
 40
1.905
 50
103.487
 51
107.254
  0
ARC
  8
APS_GEOMETRY
 10
526.976
 20
-52.521
 40
3.702
 50
100.784
 51
103.487
  0
ARC
  8
APS_GEOMETRY
 10
527.107
 20
-53.004
 40
4.202
 50
95.643
 51
101.31
  0
ARC
  8
APS_GEOMETRY
 10
527.111
 20
-53.038
 40
4.236
 50
90.0
 51
95.643
  0
ARC
  8
APS_GEOMETRY
 10
531.178
 20
-50.906
 40
2.126
 50
77.257
 51
90.0
  0
ARC
  8
APS_GEOMETRY
 10
531.156
 20
-51.001
 40
2.224
 50
64.799
 51
77.257
  0
ARC
  8
APS_GEOMETRY
 10
532.988
 20
-47.101
 40
2.084
 50
244.885
 51
251.175
  0
ARC
  8
APS_GEOMETRY
 10
532.391
 20
-48.852
 40
0.235
 50
251.175
 51
270.0
  0
ARC
  8
APS_GEOMETRY
 10
532.391
 20
-48.706
 40
0.381
 50
270.0
 51
278.82
  0
ARC
  8
APS_GEOMETRY
 10
532.145
 20
-47.121
 40
1.984
 50
278.82
 51
282.68
  0
ARC
  8
APS_GEOMETRY
 10
532.66
 20
-49.399
 40
0.351
 50
95.906
 51
102.995
  0
ARC
  8
APS_GEOMETRY
 10
532.675
 20
-49.553
 40
0.506
 50
90.0
 51
95.906
  0
ARC
  8
APS_GEOMETRY
 10
532.675
 20
-49.383
 40
0.336
 50
62.447
 51
90.0
  0
ARC
  8
APS_GEOMETRY
 10
532.616
 20
-49.497
 40
0.465
 50
39.094
 51
62.447
  0
ARC
  8
APS_GEOMETRY
 10
531.992
 20
-50.019
 40
1.277
 50
18.435
 51
39.611
  0
ARC
  8
APS_GEOMETRY
 10
531.61
 20
-50.146
 40
1.681
 50
360.0
 51
18.435
  0
ARC
  8
APS_GEOMETRY
 10
532.457
 20
-50.146
 40
0.833
 50
334.877
 51
360.0
  0
ARC
  8
APS_GEOMETRY
 10
532.708
 20
-50.264
 40
0.557
 50
304.007
 51
334.877
  0
ARC
  8
APS_GEOMETRY
 10
532.703
 20
-50.252
 40
0.569
 50
286.39
 51
303.69
  0
ARC
  8
APS_GEOMETRY
 10
532.685
 20
-50.19
 40
0.633
 50
270.0
 51
286.39
  0
ARC
  8
APS_GEOMETRY
 10
532.685
 20
-50.198
 40
0.626
 50
255.155
 51
270.0
  0
ARC
  8
APS_GEOMETRY
 10
532.617
 20
-50.456
 40
0.358
 50
235.491
 51
255.155
  0
ARC
  8
APS_GEOMETRY
 10
532.651
 20
-50.406
 40
0.419
 50
218.48
 51
235.491
  0
ARC
  8
APS_GEOMETRY
 10
533.213
 20
-49.959
 40
1.137
 50
208.179
 51
218.48
  0
ARC
  8
APS_GEOMETRY
 10
527.451
 20
-53.087
 40
5.42
 50
28.56
 51
31.664
  0
ARC
  8
APS_GEOMETRY
 10
530.972
 20
-50.916
 40
1.283
 50
31.664
 51
38.047
  0
ARC
  8
APS_GEOMETRY
 10
531.228
 20
-50.715
 40
0.958
 50
38.047
 51
46.56
  0
ARC
  8
APS_GEOMETRY
 10
531.095
 20
-50.856
 40
1.151
 50
46.56
 51
54.324
  0
ARC
  8
APS_GEOMETRY
 10
531.018
 20
-50.988
 40
1.303
 50
54.968
 51
71.48
  0
ARC
  8
APS_GEOMETRY
 10
531.102
 20
-50.736
 40
1.038
 50
71.48
 51
90.0
  0
ARC
  8
APS_GEOMETRY
 10
531.102
 20
-50.423
 40
0.725
 50
90.0
 51
114.63
  0
ARC
  8
APS_GEOMETRY
 10
531.066
 20
-50.344
 40
0.638
 50
114.63
 51
140.921
  0
ARC
  8
APS_GEOMETRY
 10
531.174
 20
-50.431
 40
0.776
 50
140.921
 51
163.13
  0
ARC
  8
APS_GEOMETRY
 10
531.711
 20
-50.594
 40
1.338
 50
163.13
 51
180.0
  0
ARC
  8
APS_GEOMETRY
 10
532.409
 20
-50.594
 40
2.036
 50
180.0
 51
195.44
  0
ARC
  8
APS_GEOMETRY
 10
532.303
 20
-50.624
 40
1.926
 50
195.44
 51
211.316
  0
ARC
  8
APS_GEOMETRY
 10
531.794
 20
-50.922
 40
1.336
 50
211.708
 51
240.457
  0
ARC
  8
APS_GEOMETRY
 10
531.76
 20
-50.983
 40
1.266
 50
240.457
 51
270.0
  0
ARC
  8
APS_GEOMETRY
 10
531.76
 20
-50.674
 40
1.575
 50
270.0
 51
279.549
  0
ARC
  8
APS_GEOMETRY
 10
531.74
 20
-50.558
 40
1.693
 50
279.549
 51
288.759
  0
ARC
  8
APS_GEOMETRY
 10
531.823
 20
-50.801
 40
1.436
 50
288.759
 51
299.545
  0
ARC
  8
APS_GEOMETRY
 10
532.154
 20
-51.385
 40
0.765
 50
299.545
 51
314.341
  0
ARC
  8
APS_GEOMETRY
 10
533.177
 20
-52.448
 40
0.711
 50
120.141
 51
133.452
  0
ARC
  8
APS_GEOMETRY
 10
532.891
 20
-51.955
 40
0.141
 50
90.0
 51
120.141
  0
ARC
  8
APS_GEOMETRY
 10
532.891
 20
-52.037
 40
0.223
 50
61.952
 51
90.0
  0
ARC
  8
APS_GEOMETRY
 10
532.858
 20
-52.099
 40
0.294
 50
37.569
 51
61.952
  0
ARC
  8
APS_GEOMETRY
 10
532.796
 20
-52.147
 40
0.372
 50
17.665
 51
37.569
  0
ARC
  8
APS_GEOMETRY
 10
532.702
 20
-52.177
 40
0.471
 50
360.0
 51
17.665
  0
ARC
  8
APS_GEOMETRY
 10
532.464
 20
-52.177
 40
0.708
 50
344.932
 51
0.0
  0
ARC
  8
APS_GEOMETRY
 10
531.835
 20
-52.008
 40
1.36
 50
334.075
 51
344.932
  0
ARC
  8
APS_GEOMETRY
 10
531.815
 20
-51.998
 40
1.382
 50
323.374
 51
334.075
  0
ARC
  8
APS_GEOMETRY
 10
532.221
 20
-52.3
 40
0.876
 50
309.92
 51
323.374
  0
ARC
  8
APS_GEOMETRY
 10
532.627
 20
-52.779
 40
0.248
 50
289.026
 51
308.991
  0
ARC
  8
APS_GEOMETRY
 10
532.194
 20
-51.523
 40
1.577
 50
281.143
 51
289.026
  0
ARC
  8
APS_GEOMETRY
 10
532.633
 20
-53.801
 40
0.743
 50
100.437
 51
110.12
  0
ARC
  8
APS_GEOMETRY
 10
533.216
 20
-55.39
 40
2.435
 50
110.12
 51
115.463
  0
ARC
  8
APS_GEOMETRY
 10
531.137
 20
-51.042
 40
2.384
 50
282.94
 51
295.628
  0
ARC
  8
APS_GEOMETRY
 10
531.158
 20
-51.131
 40
2.292
 50
270.0
 51
282.94
  0
ARC
  8
APS_GEOMETRY
 10
531.158
 20
-50.996
 40
2.427
 50
257.307
 51
270.0
  0
ARC
  8
APS_GEOMETRY
 10
531.26
 20
-50.541
 40
2.894
 50
245.686
 51
257.307
  0
ARC
  8
APS_GEOMETRY
 10
531.003
 20
-51.105
 40
2.274
 50
228.801
 51
245.735
  0
ARC
  8
APS_GEOMETRY
 10
531.008
 20
-51.1
 40
2.28
 50
211.891
 51
228.801
  0
ARC
  8
APS_GEOMETRY
 10
531.143
 20
-51.003
 40
2.446
 50
196.728
 51
212.152
  0
ARC
  8
APS_GEOMETRY
 10
530.794
 20
-51.108
 40
2.082
 50
180.0
 51
196.728
  0
ARC
  8
APS_GEOMETRY
 10
530.844
 20
-51.108
 40
2.133
 50
161.184
 51
180.0
  0
ARC
  8
APS_GEOMETRY
 10
530.981
 20
-51.154
 40
2.277
 50
142.98
 51
161.184
  0
ARC
  8
APS_GEOMETRY
 10
531.088
 20
-51.236
 40
2.411
 50
127.824
 51
142.958
  0
ARC
  8
APS_GEOMETRY
 10
531.263
 20
-51.462
 40
2.697
 50
113.52
 51
127.824
  0
ARC
  8
APS_GEOMETRY
 10
531.206
 20
-51.33
 40
2.554
 50
101.927
 51
113.527
  0
ARC
  8
APS_GEOMETRY
 10
531.178
 20
-51.195
 40
2.416
 50
90.0
 51
101.927
  0
ARC
  8
APS_GEOMETRY
 10
535.632
 20
-52.863
 40
4.061
 50
84.71
 51
90.0
  0
ARC
  8
APS_GEOMETRY
 10
535.707
 20
-52.059
 40
3.253
 50
78.799
 51
84.71
  0
ARC
  8
APS_GEOMETRY
 10
536.189
 20
-49.625
 40
0.772
 50
49.783
 51
78.771
  0
ARC
  8
APS_GEOMETRY
 10
536.511
 20
-49.244
 40
0.273
 50
360.0
 51
49.783
  0
ARC
  8
APS_GEOMETRY
 10
536.482
 20
-49.244
 40
0.302
 50
342.759
 51
360.0
  0
ARC
  8
APS_GEOMETRY
 10
536.639
 20
-49.293
 40
0.137
 50
317.045
 51
342.759
  0
ARC
  8
APS_GEOMETRY
 10
536.563
 20
-49.222
 40
0.241
 50
301.817
 51
317.045
  0
ARC
  8
APS_GEOMETRY
 10
535.438
 20
-47.407
 40
2.376
 50
296.98
 51
301.817
  0
ARC
  8
APS_GEOMETRY
 10
536.638
 20
-49.769
 40
0.273
 50
116.565
 51
149.078
  0
ARC
  8
APS_GEOMETRY
 10
536.99
 20
-49.98
 40
0.683
 50
149.078
 51
169.469
  0
ARC
  8
APS_GEOMETRY
 10
537.74
 20
-50.12
 40
1.447
 50
169.469
 51
174.598
  0
ARC
  8
APS_GEOMETRY
 10
541.606
 20
-50.485
 40
5.33
 50
174.598
 51
177.269
  0
ARC
  8
APS_GEOMETRY
 10
545.006
 20
-50.647
 40
8.734
 50
177.269
 51
178.901
  0
ARC
  8
APS_GEOMETRY
 10
555.537
 20
-50.849
 40
19.267
 50
178.901
 51
180.0
  0
ARC
  8
APS_GEOMETRY
 10
576.936
 20
-50.849
 40
40.666
 50
180.0
 51
180.88
  0
ARC
  8
APS_GEOMETRY
 10
551.884
 20
-51.234
 40
15.611
 50
180.88
 51
182.3
  0
ARC
  8
APS_GEOMETRY
 10
544.561
 20
-51.528
 40
8.282
 50
182.3
 51
184.974
  0
ARC
  8
APS_GEOMETRY
 10
537.579
 20
-52.136
 40
1.274
 50
184.974
 51
191.793
  0
ARC
  8
APS_GEOMETRY
 10
536.768
 20
-52.291
 40
0.448
 50
193.57
 51
205.787
  0
ARC
  8
APS_GEOMETRY
 10
536.567
 20
-52.389
 40
0.224
 50
205.787
 51
223.091
  0
ARC
  8
APS_GEOMETRY
 10
536.618
 20
-52.341
 40
0.294
 50
223.091
 51
236.441
  0
ARC
  8
APS_GEOMETRY
 10
537.046
 20
-51.695
 40
1.069
 50
236.441
 51
243.435
  0
ARC
  8
APS_GEOMETRY
 10
536.39
 20
-53.042
 40
0.429
 50
37.185
 51
65.556
  0
ARC
  8
APS_GEOMETRY
 10
536.53
 20
-52.936
 40
0.254
 50
0.0
 51
37.185
  0
ARC
  8
APS_GEOMETRY
 10
536.522
 20
-52.936
 40
0.261
 50
312.039
 51
360.0
  0
ARC
  8
APS_GEOMETRY
 10
536.211
 20
-52.591
 40
0.726
 50
283.815
 51
312.039
  0
ARC
  8
APS_GEOMETRY
 10
535.697
 20
-50.46
 40
2.917
 50
279.273
 51
283.627
  0
ARC
  8
APS_GEOMETRY
 10
535.492
 20
-49.202
 40
4.193
 50
275.641
 51
279.273
  0
ARC
  8
APS_GEOMETRY
 10
535.413
 20
-48.406
 40
4.992
 50
272.588
 51
275.641
  0
ARC
  8
APS_GEOMETRY
 10
535.325
 20
-46.455
 40
6.946
 50
270.0
 51
272.588
  0
ARC
  8
APS_GEOMETRY
 10
535.325
 20
-49.211
 40
4.189
 50
262.774
 51
270.0
  0
ARC
  8
APS_GEOMETRY
 10
534.947
 20
-52.19
 40
1.187
 50
249.175
 51
262.774
  0
ARC
  8
APS_GEOMETRY
 10
534.71
 20
-52.813
 40
0.519
 50
221.23
 51
249.175
  0
ARC
  8
APS_GEOMETRY
 10
534.503
 20
-52.995
 40
0.244
 50
180.0
 51
221.23
  0
ARC
  8
APS_GEOMETRY
 10
534.463
 20
-52.995
 40
0.204
 50
142.696
 51
180.0
  0
ARC
  8
APS_GEOMETRY
 10
534.785
 20
-53.24
 40
0.609
 50
121.357
 51
142.696
  0
ARC
  8
APS_GEOMETRY
 10
534.241
 20
-52.349
 40
0.435
 50
301.477
 51
324.728
  0
ARC
  8
APS_GEOMETRY
 10
534.299
 20
-52.39
 40
0.364
 50
324.728
 51
350.181
  0
ARC
  8
APS_GEOMETRY
 10
532.475
 20
-52.088
 40
2.213
 50
350.538
 51
355.423
  0
ARC
  8
APS_GEOMETRY
 10
524.98
 20
-51.488
 40
9.732
 50
355.423
 51
357.752
  0
ARC
  8
APS_GEOMETRY
 10
518.02
 20
-51.215
 40
16.697
 50
357.752
 51
359.111
  0
ARC
  8
APS_GEOMETRY
 10
495.746
 20
-50.869
 40
38.974
 50
359.111
 51
0.0
  0
ARC
  8
APS_GEOMETRY
 10
521.198
 20
-50.869
 40
13.522
 50
0.0
 51
1.773
  0
ARC
  8
APS_GEOMETRY
 10
529.134
 20
-50.623
 40
5.583
 50
1.773
 51
4.532
  0
ARC
  8
APS_GEOMETRY
 10
531.546
 20
-50.432
 40
3.163
 50
4.532
 51
9.384
  0
ARC
  8
APS_GEOMETRY
 10
533.995
 20
-50.027
 40
0.68
 50
9.384
 51
19.855
  0
ARC
  8
APS_GEOMETRY
 10
534.319
 20
-49.904
 40
0.334
 50
18.853
 51
42.158
  0
ARC
  8
APS_GEOMETRY
 10
534.041
 20
-50.156
 40
0.708
 50
42.158
 51
58.092
  0
ARC
  8
APS_GEOMETRY
 10
535.264
 20
-48.266
 40
1.543
 50
230.711
 51
236.634
  0
ARC
  8
APS_GEOMETRY
 10
534.496
 20
-49.205
 40
0.33
 50
217.875
 51
230.711
  0
ARC
  8
APS_GEOMETRY
 10
534.391
 20
-49.287
 40
0.196
 50
196.928
 51
217.875
  0
ARC
  8
APS_GEOMETRY
 10
534.489
 20
-49.257
 40
0.299
 50
180.0
 51
196.928
  0
ARC
  8
APS_GEOMETRY
 10
534.425
 20
-49.257
 40
0.235
 50
148.791
 51
180.0
  0
ARC
  8
APS_GEOMETRY
 10
534.487
 20
-49.294
 40
0.307
 50
121.569
 51
148.791
  0
ARC
  8
APS_GEOMETRY
 10
534.597
 20
-49.474
 40
0.518
 50
112.806
 51
121.569
  0
ARC
  8
APS_GEOMETRY
 10
534.896
 20
-50.184
 40
1.289
 50
107.254
 51
112.806
  0
ARC
  8
APS_GEOMETRY
 10
535.079
 20
-50.773
 40
1.905
 50
103.487
 51
107.254
  0
ARC
  8
APS_GEOMETRY
 10
535.498
 20
-52.521
 40
3.702
 50
100.784
 51
103.487
  0
ARC
  8
APS_GEOMETRY
 10
535.629
 20
-53.004
 40
4.202
 50
95.643
 51
101.31
  0
ARC
  8
APS_GEOMETRY
 10
535.632
 20
-53.038
 40
4.236
 50
90.0
 51
95.643
  0
LINE
  8
APS_GEOMETRY
 10
542.547
 11
542.547
 20
-51.795
 21
-50.074
  0
ARC
  8
APS_GEOMETRY
 10
538.575
 20
-50.074
 40
3.972
 50
0.0
 51
2.404
  0
ARC
  8
APS_GEOMETRY
 10
540.927
 20
-49.976
 40
1.618
 50
2.404
 51
6.17
  0
ARC
  8
APS_GEOMETRY
 10
541.632
 20
-49.899
 40
0.909
 50
6.17
 51
12.824
  0
ARC
  8
APS_GEOMETRY
 10
542.322
 20
-49.742
 40
0.202
 50
12.824
 51
26.98
  0
ARC
  8
APS_GEOMETRY
 10
542.354
 20
-49.726
 40
0.166
 50
26.98
 51
59.65
  0
ARC
  8
APS_GEOMETRY
 10
542.05
 20
-50.245
 40
0.767
 50
59.65
 51
74.667
  0
ARC
  8
APS_GEOMETRY
 10
542.4
 20
-48.995
 40
0.531
 50
225.0
 51
253.887
  0
ARC
  8
APS_GEOMETRY
 10
542.184
 20
-49.211
 40
0.226
 50
180.0
 51
225.0
  0
ARC
  8
APS_GEOMETRY
 10
542.226
 20
-49.211
 40
0.267
 50
151.157
 51
180.0
  0
ARC
  8
APS_GEOMETRY
 10
542.225
 20
-49.211
 40
0.266
 50
122.276
 51
151.157
  0
ARC
  8
APS_GEOMETRY
 10
542.302
 20
-49.332
 40
0.41
 50
102.308
 51
122.276
  0
ARC
  8
APS_GEOMETRY
 10
542.443
 20
-49.978
 40
1.071
 50
90.0
 51
102.308
  0
ARC
  8
APS_GEOMETRY
 10
542.443
 20
-51.223
 40
2.317
 50
88.989
 51
90.0
  0
ARC
  8
APS_GEOMETRY
 10
542.248
 20
-62.258
 40
13.353
 50
88.568
 51
88.989
  0
ARC
  8
APS_GEOMETRY
 10
541.973
 20
-73.258
 40
24.357
 50
88.337
 51
88.568
  0
ARC
  8
APS_GEOMETRY
 10
540.907
 20
-109.97
 40
61.084
 50
88.191
 51
88.337
  0
LINE
  8
APS_GEOMETRY
 10
542.835
 11
543.028
 20
-48.917
 21
-48.917
  0
ARC
  8
APS_GEOMETRY
 10
542.38
 20
58.678
 40
107.597
 50
270.345
 51
270.49
  0
ARC
  8
APS_GEOMETRY
 10
542.984
 20
-11.983
 40
36.933
 50
270.49
 51
270.736
  0
ARC
  8
APS_GEOMETRY
 10
543.232
 20
-31.27
 40
17.645
 50
270.736
 51
271.253
  0
ARC
  8
APS_GEOMETRY
 10
543.584
 20
-47.392
 40
1.519
 50
271.253
 51
273.013
  0
ARC
  8
APS_GEOMETRY
 10
543.57
 20
-47.113
 40
1.798
 50
273.013
 51
274.5
  0
ARC
  8
APS_GEOMETRY
 10
541.904
 20
-25.947
 40
23.029
 50
274.5
 51
274.915
  0
LINE
  8
APS_GEOMETRY
 10
543.877
 11
544.073
 20
-48.892
 21
-48.874
  0
LINE
  8
APS_GEOMETRY
 10
544.073
 11
544.33
 20
-48.874
 21
-48.851
  0
ARC
  8
APS_GEOMETRY
 10
544.751
 20
-52.924
 40
4.094
 50
93.24
 51
95.906
  0
ARC
  8
APS_GEOMETRY
 10
544.676
 20
-51.605
 40
2.774
 50
90.0
 51
93.24
  0
ARC
  8
APS_GEOMETRY
 10
544.676
 20
-51.187
 40
2.355
 50
77.12
 51
90.0
  0
ARC
  8
APS_GEOMETRY
 10
544.8
 20
-50.644
 40
1.799
 50
62.371
 51
77.12
  0
ARC
  8
APS_GEOMETRY
 10
545.011
 20
-50.25
 40
1.352
 50
31.215
 51
62.517
  0
ARC
  8
APS_GEOMETRY
 10
545.004
 20
-50.254
 40
1.36
 50
360.0
 51
31.215
  0
ARC
  8
APS_GEOMETRY
 10
544.968
 20
-50.254
 40
1.396
 50
334.496
 51
360.0
  0
ARC
  8
APS_GEOMETRY
 10
545.036
 20
-50.287
 40
1.32
 50
308.254
 51
334.496
  0
ARC
  8
APS_GEOMETRY
 10
544.826
 20
-50.01
 40
1.667
 50
287.855
 51
308.034
  0
ARC
  8
APS_GEOMETRY
 10
544.686
 20
-49.575
 40
2.125
 50
270.0
 51
287.855
  0
ARC
  8
APS_GEOMETRY
 10
544.686
 20
-48.48
 40
3.22
 50
266.918
 51
270.0
  0
ARC
  8
APS_GEOMETRY
 10
544.882
 20
-44.85
 40
6.855
 50
264.806
 51
266.918
  0
ARC
  8
APS_GEOMETRY
 10
543.574
 20
-61.061
 40
9.409
 50
85.815
 51
86.634
  0
ARC
  8
APS_GEOMETRY
 10
544.094
 20
-52.223
 40
0.556
 50
86.634
 51
90.0
  0
ARC
  8
APS_GEOMETRY
 10
544.094
 20
-51.749
 40
0.082
 50
90.0
 51
139.686
  0
ARC
  8
APS_GEOMETRY
 10
544.125
 20
-51.775
 40
0.122
 50
139.686
 51
180.0
  0
LINE
  8
APS_GEOMETRY
 10
544.003
 11
544.003
 20
-51.775
 21
-51.795
  0
LINE
  8
APS_GEOMETRY
 10
544.003
 11
544.026
 20
-51.795
 21
-52.331
  0
ARC
  8
APS_GEOMETRY
 10
544.801
 20
-52.299
 40
0.776
 50
182.386
 51
193.753
  0
ARC
  8
APS_GEOMETRY
 10
544.301
 20
-52.421
 40
0.261
 50
193.753
 51
213.408
  0
ARC
  8
APS_GEOMETRY
 10
544.306
 20
-52.417
 40
0.268
 50
213.408
 51
232.628
  0
ARC
  8
APS_GEOMETRY
 10
544.757
 20
-51.827
 40
1.011
 50
232.628
 51
242.488
  0
ARC
  8
APS_GEOMETRY
 10
544.005
 20
-53.253
 40
0.602
 50
40.539
 51
61.699
  0
ARC
  8
APS_GEOMETRY
 10
544.334
 20
-52.972
 40
0.169
 50
360.0
 51
40.539
  0
ARC
  8
APS_GEOMETRY
 10
544.276
 20
-52.972
 40
0.227
 50
315.297
 51
360.0
  0
ARC
  8
APS_GEOMETRY
 10
543.969
 20
-52.668
 40
0.659
 50
289.502
 51
315.297
  0
ARC
  8
APS_GEOMETRY
 10
543.744
 20
-52.033
 40
1.333
 50
282.372
 51
289.502
  0
ARC
  8
APS_GEOMETRY
 10
543.508
 20
-50.956
 40
2.435
 50
277.099
 51
282.372
  0
ARC
  8
APS_GEOMETRY
 10
543.411
 20
-50.176
 40
3.221
 50
273.104
 51
277.099
  0
ARC
  8
APS_GEOMETRY
 10
543.296
 20
-48.064
 40
5.336
 50
270.0
 51
273.104
  0
ARC
  8
APS_GEOMETRY
 10
543.296
 20
-48.128
 40
5.272
 50
263.473
 51
270.0
  0
ARC
  8
APS_GEOMETRY
 10
542.863
 20
-51.915
 40
1.461
 50
251.056
 51
263.473
  0
ARC
  8
APS_GEOMETRY
 10
542.585
 20
-52.725
 40
0.604
 50
224.161
 51
251.056
  0
ARC
  8
APS_GEOMETRY
 10
542.317
 20
-52.985
 40
0.231
 50
180.0
 51
224.161
  0
ARC
  8
APS_GEOMETRY
 10
542.365
 20
-52.985
 40
0.279
 50
160.821
 51
180.0
  0
ARC
  8
APS_GEOMETRY
 10
542.248
 20
-52.944
 40
0.155
 50
135.0
 51
160.821
  0
ARC
  8
APS_GEOMETRY
 10
542.359
 20
-53.055
 40
0.312
 50
121.522
 51
135.0
  0
ARC
  8
APS_GEOMETRY
 10
543.607
 20
-55.09
 40
2.7
 50
116.952
 51
121.522
  0
ARC
  8
APS_GEOMETRY
 10
542.244
 20
-52.419
 40
0.299
 50
297.824
 51
321.605
  0
ARC
  8
APS_GEOMETRY
 10
542.313
 20
-52.474
 40
0.211
 50
321.605
 51
349.992
  0
ARC
  8
APS_GEOMETRY
 10
541.993
 20
-52.418
 40
0.536
 50
349.992
 51
356.014
  0
ARC
  8
APS_GEOMETRY
 10
537.127
 20
-52.078
 40
5.414
 50
356.014
 51
357.908
  0
ARC
  8
APS_GEOMETRY
 10
531.446
 20
-51.871
 40
11.098
 50
357.908
 51
358.833
  0
ARC
  8
APS_GEOMETRY
 10
510.907
 20
-51.452
 40
31.642
 50
358.833
 51
359.381
  0
LINE
  8
APS_GEOMETRY
 10
544.026
 11
544.026
 20
-49.659
 21
-50.771
  0
ARC
  8
APS_GEOMETRY
 10
544.363
 20
-50.771
 40
0.337
 50
180.0
 51
199.885
  0
ARC
  8
APS_GEOMETRY
 10
544.11
 20
-50.862
 40
0.069
 50
199.885
 51
244.799
  0
ARC
  8
APS_GEOMETRY
 10
544.256
 20
-50.563
 40
0.401
 50
244.231
 51
258.996
  0
ARC
  8
APS_GEOMETRY
 10
544.317
 20
-50.25
 40
0.721
 50
258.996
 51
270.0
  0
ARC
  8
APS_GEOMETRY
 10
544.317
 20
-50.325
 40
0.645
 50
270.0
 51
288.435
  0
ARC
  8
APS_GEOMETRY
 10
544.363
 20
-50.464
 40
0.499
 50
288.435
 51
309.428
  0
ARC
  8
APS_GEOMETRY
 10
544.38
 20
-50.482
 40
0.475
 50
309.193
 51
339.939
  0
ARC
  8
APS_GEOMETRY
 10
543.793
 20
-50.267
 40
1.099
 50
339.939
 51
0.0
  0
ARC
  8
APS_GEOMETRY
 10
543.857
 20
-50.267
 40
1.035
 50
360.0
 51
22.011
  0
ARC
  8
APS_GEOMETRY
 10
544.316
 20
-50.082
 40
0.54
 50
22.011
 51
52.651
  0
ARC
  8
APS_GEOMETRY
 10
544.309
 20
-50.087
 40
0.548
 50
52.374
 51
72.309
  0
ARC
  8
APS_GEOMETRY
 10
544.264
 20
-50.226
 40
0.695
 50
72.309
 51
90.0
  0
ARC
  8
APS_GEOMETRY
 10
544.264
 20
-49.937
 40
0.405
 50
90.0
 51
118.113
  0
ARC
  8
APS_GEOMETRY
 10
544.116
 20
-49.659
 40
0.09
 50
118.113
 51
180.0
  0
ARC
  8
APS_GEOMETRY
 10
549.299
 20
-51.357
 40
2.578
 50
71.91
 51
90.0
  0
ARC
  8
APS_GEOMETRY
 10
549.399
 20
-51.052
 40
2.257
 50
52.561
 51
71.91
  0
ARC
  8
APS_GEOMETRY
 10
549.373
 20
-51.059
 40
2.279
 50
38.846
 51
52.156
  0
ARC
  8
APS_GEOMETRY
 10
549.016
 20
-51.347
 40
2.737
 50
26.707
 51
38.846
  0
ARC
  8
APS_GEOMETRY
 10
549.086
 20
-51.289
 40
2.648
 50
13.868
 51
26.278
  0
ARC
  8
APS_GEOMETRY
 10
549.596
 20
-51.163
 40
2.123
 50
360.0
 51
13.868
  0
ARC
  8
APS_GEOMETRY
 10
549.629
 20
-51.163
 40
2.09
 50
339.712
 51
360.0
  0
ARC
  8
APS_GEOMETRY
 10
549.512
 20
-51.12
 40
2.215
 50
320.013
 51
339.712
  0
ARC
  8
APS_GEOMETRY
 10
549.492
 20
-51.109
 40
2.237
 50
303.344
 51
320.123
  0
ARC
  8
APS_GEOMETRY
 10
549.263
 20
-50.76
 40
2.655
 50
287.949
 51
303.344
  0
ARC
  8
APS_GEOMETRY
 10
549.187
 20
-50.499
 40
2.927
 50
279.039
 51
287.776
  0
ARC
  8
APS_GEOMETRY
 10
549.218
 20
-50.689
 40
2.735
 50
270.0
 51
279.039
  0
ARC
  8
APS_GEOMETRY
 10
549.218
 20
-50.822
 40
2.601
 50
257.728
 51
270.0
  0
ARC
  8
APS_GEOMETRY
 10
549.222
 20
-50.803
 40
2.62
 50
245.501
 51
257.728
  0
ARC
  8
APS_GEOMETRY
 10
549.074
 20
-51.126
 40
2.266
 50
228.665
 51
245.511
  0
ARC
  8
APS_GEOMETRY
 10
549.025
 20
-51.181
 40
2.192
 50
211.535
 51
228.665
  0
ARC
  8
APS_GEOMETRY
 10
549.09
 20
-51.134
 40
2.271
 50
195.642
 51
211.701
  0
ARC
  8
APS_GEOMETRY
 10
549.207
 20
-51.101
 40
2.393
 50
180.0
 51
195.642
  0
ARC
  8
APS_GEOMETRY
 10
549.232
 20
-51.101
 40
2.418
 50
162.181
 51
180.0
  0
ARC
  8
APS_GEOMETRY
 10
549.011
 20
-51.03
 40
2.187
 50
143.434
 51
162.181
  0
ARC
  8
APS_GEOMETRY
 10
548.982
 20
-51.007
 40
2.148
 50
126.384
 51
143.471
  0
ARC
  8
APS_GEOMETRY
 10
549.185
 20
-51.283
 40
2.491
 50
110.525
 51
126.384
  0
ARC
  8
APS_GEOMETRY
 10
549.175
 20
-51.208
 40
2.418
 50
99.77
 51
110.925
  0
ARC
  8
APS_GEOMETRY
 10
549.299
 20
-51.929
 40
3.15
 50
90.0
 51
99.77
  0
ARC
  8
APS_GEOMETRY
 10
548.989
 20
-50.199
 40
0.481
 50
90.0
 51
119.604
  0
ARC
  8
APS_GEOMETRY
 10
549.031
 20
-50.273
 40
0.566
 50
119.604
 51
146.842
  0
ARC
  8
APS_GEOMETRY
 10
549.115
 20
-50.342
 40
0.675
 50
145.84
 51
164.055
  0
ARC
  8
APS_GEOMETRY
 10
549.311
 20
-50.398
 40
0.879
 50
164.055
 51
180.0
  0
ARC
  8
APS_GEOMETRY
 10
550.538
 20
-50.398
 40
2.105
 50
180.0
 51
189.977
  0
ARC
  8
APS_GEOMETRY
 10
552.403
 20
-50.07
 40
3.999
 50
189.977
 51
197.211
  0
ARC
  8
APS_GEOMETRY
 10
552.811
 20
-49.944
 40
4.426
 50
197.211
 51
203.76
  0
ARC
  8
APS_GEOMETRY
 10
551.795
 20
-50.391
 40
3.316
 50
203.76
 51
211.329
  0
ARC
  8
APS_GEOMETRY
 10
549.708
 20
-51.643
 40
0.882
 50
212.32
 51
224.441
  0
ARC
  8
APS_GEOMETRY
 10
549.622
 20
-51.727
 40
0.762
 50
224.441
 51
237.484
  0
ARC
  8
APS_GEOMETRY
 10
549.567
 20
-51.814
 40
0.66
 50
237.484
 51
252.416
  0
ARC
  8
APS_GEOMETRY
 10
549.512
 20
-51.988
 40
0.477
 50
252.416
 51
270.0
  0
ARC
  8
APS_GEOMETRY
 10
549.512
 20
-51.932
 40
0.533
 50
270.0
 51
294.953
  0
ARC
  8
APS_GEOMETRY
 10
549.527
 20
-51.964
 40
0.498
 50
294.953
 51
320.793
  0
ARC
  8
APS_GEOMETRY
 10
549.447
 20
-51.899
 40
0.601
 50
320.793
 51
342.777
  0
ARC
  8
APS_GEOMETRY
 10
549.09
 20
-51.788
 40
0.975
 50
342.777
 51
0.0
  0
ARC
  8
APS_GEOMETRY
 10
547.414
 20
-51.788
 40
2.651
 50
0.0
 51
8.499
  0
ARC
  8
APS_GEOMETRY
 10
546.247
 20
-51.962
 40
3.83
 50
8.499
 51
15.566
  0
ARC
  8
APS_GEOMETRY
 10
546.387
 20
-51.923
 40
3.685
 50
15.566
 51
22.909
  0
ARC
  8
APS_GEOMETRY
 10
547.594
 20
-51.413
 40
2.375
 50
22.909
 51
32.057
  0
ARC
  8
APS_GEOMETRY
 10
548.541
 20
-50.816
 40
1.255
 50
31.921
 51
42.51
  0
ARC
  8
APS_GEOMETRY
 10
548.802
 20
-50.578
 40
0.902
 50
42.51
 51
55.008
  0
ARC
  8
APS_GEOMETRY
 10
548.889
 20
-50.452
 40
0.749
 50
55.008
 51
69.88
  0
ARC
  8
APS_GEOMETRY
 10
548.968
 20
-50.237
 40
0.52
 50
69.88
 51
87.754
  0
ARC
  8
APS_GEOMETRY
 10
554.351
 20
-51.7
 40
0.242
 50
90.0
 51
115.837
  0
ARC
  8
APS_GEOMETRY
 10
554.291
 20
-51.577
 40
0.105
 50
115.837
 51
155.462
  0
ARC
  8
APS_GEOMETRY
 10
554.361
 20
-51.608
 40
0.182
 50
155.462
 51
168.366
  0
ARC
  8
APS_GEOMETRY
 10
554.995
 20
-51.739
 40
0.83
 50
168.366
 51
174.395
  0
ARC
  8
APS_GEOMETRY
 10
555.635
 20
-51.802
 40
1.472
 50
174.395
 51
177.813
  0
ARC
  8
APS_GEOMETRY
 10
557.758
 20
-51.883
 40
3.597
 50
177.813
 51
180.0
  0
ARC
  8
APS_GEOMETRY
 10
559.294
 20
-51.883
 40
5.133
 50
180.0
 51
184.62
  0
ARC
  8
APS_GEOMETRY
 10
555.852
 20
-52.161
 40
1.68
 50
184.62
 51
192.7
  0
ARC
  8
APS_GEOMETRY
 10
554.525
 20
-52.452
 40
0.322
 50
194.036
 51
205.821
  0
ARC
  8
APS_GEOMETRY
 10
554.385
 20
-52.52
 40
0.166
 50
205.821
 51
222.274
  0
ARC
  8
APS_GEOMETRY
 10
554.428
 20
-52.481
 40
0.224
 50
222.274
 51
234.605
  0
ARC
  8
APS_GEOMETRY
 10
554.914
 20
-51.797
 40
1.063
 50
234.605
 51
240.255
  0
ARC
  8
APS_GEOMETRY
 10
554.175
 20
-53.105
 40
0.439
 50
34.592
 51
61.189
  0
ARC
  8
APS_GEOMETRY
 10
554.32
 20
-53.005
 40
0.263
 50
360.0
 51
34.592
  0
ARC
  8
APS_GEOMETRY
 10
554.329
 20
-53.005
 40
0.254
 50
318.231
 51
360.0
  0
ARC
  8
APS_GEOMETRY
 10
554.159
 20
-52.853
 40
0.482
 50
288.227
 51
318.231
  0
ARC
  8
APS_GEOMETRY
 10
553.983
 20
-52.318
 40
1.045
 50
280.377
 51
288.227
  0
ARC
  8
APS_GEOMETRY
 10
553.676
 20
-50.642
 40
2.749
 50
275.541
 51
280.377
  0
ARC
  8
APS_GEOMETRY
 10
553.544
 20
-49.278
 40
4.119
 50
272.304
 51
275.541
  0
ARC
  8
APS_GEOMETRY
 10
553.383
 20
-45.274
 40
8.126
 50
270.0
 51
272.304
  0
ARC
  8
APS_GEOMETRY
 10
553.383
 20
-48.62
 40
4.78
 50
262.811
 51
270.0
  0
ARC
  8
APS_GEOMETRY
 10
552.954
 20
-52.021
 40
1.352
 50
249.274
 51
262.811
  0
ARC
  8
APS_GEOMETRY
 10
552.684
 20
-52.734
 40
0.59
 50
221.379
 51
249.274
  0
ARC
  8
APS_GEOMETRY
 10
552.447
 20
-52.942
 40
0.275
 50
180.0
 51
221.379
  0
ARC
  8
APS_GEOMETRY
 10
552.445
 20
-52.942
 40
0.273
 50
164.055
 51
180.0
  0
ARC
  8
APS_GEOMETRY
 10
552.332
 20
-52.91
 40
0.155
 50
142.815
 51
164.055
  0
ARC
  8
APS_GEOMETRY
 10
552.403
 20
-52.964
 40
0.244
 50
129.007
 51
142.815
  0
ARC
  8
APS_GEOMETRY
 10
553.283
 20
-54.05
 40
1.641
 50
123.69
 51
129.007
  0
ARC
  8
APS_GEOMETRY
 10
552.035
 20
-52.172
 40
0.613
 50
303.389
 51
319.022
  0
ARC
  8
APS_GEOMETRY
 10
552.201
 20
-52.316
 40
0.393
 50
319.022
 51
338.575
  0
ARC
  8
APS_GEOMETRY
 10
551.979
 20
-52.229
 40
0.632
 50
338.575
 51
351.049
  0
ARC
  8
APS_GEOMETRY
 10
549.298
 20
-51.807
 40
3.345
 50
351.049
 51
356.46
  0
ARC
  8
APS_GEOMETRY
 10
550.182
 20
-51.841
 40
2.461
 50
355.972
 51
358.68
  0
ARC
  8
APS_GEOMETRY
 10
521.163
 20
-51.172
 40
31.488
 50
358.68
 51
359.437
  0
LINE
  8
APS_GEOMETRY
 10
552.649
 11
552.652
 20
-51.481
 21
-50.99
  0
LINE
  8
APS_GEOMETRY
 10
552.652
 11
552.653
 20
-50.99
 21
-50.349
  0
ARC
  8
APS_GEOMETRY
 10
545.072
 20
-50.349
 40
7.581
 50
360.0
 51
1.717
  0
ARC
  8
APS_GEOMETRY
 10
549.129
 20
-50.227
 40
3.522
 50
1.717
 51
4.236
  0
ARC
  8
APS_GEOMETRY
 10
550.452
 20
-50.129
 40
2.196
 50
4.236
 51
8.269
  0
ARC
  8
APS_GEOMETRY
 10
551.975
 20
-49.908
 40
0.657
 50
8.269
 51
15.642
  0
ARC
  8
APS_GEOMETRY
 10
552.237
 20
-49.835
 40
0.385
 50
15.642
 51
39.417
  0
ARC
  8
APS_GEOMETRY
 10
552.242
 20
-49.83
 40
0.378
 50
39.417
 51
63.435
  0
ARC
  8
APS_GEOMETRY
 10
552.923
 20
-48.421
 40
1.187
 50
236.874
 51
244.486
  0
ARC
  8
APS_GEOMETRY
 10
552.417
 20
-49.196
 40
0.261
 50
220.601
 51
236.874
  0
ARC
  8
APS_GEOMETRY
 10
552.359
 20
-49.246
 40
0.185
 50
198.246
 51
220.601
  0
ARC
  8
APS_GEOMETRY
 10
552.445
 20
-49.217
 40
0.276
 50
180.0
 51
198.246
  0
ARC
  8
APS_GEOMETRY
 10
552.444
 20
-49.217
 40
0.275
 50
156.161
 51
180.0
  0
ARC
  8
APS_GEOMETRY
 10
552.482
 20
-49.234
 40
0.317
 50
133.977
 51
156.161
  0
ARC
  8
APS_GEOMETRY
 10
552.559
 20
-49.314
 40
0.427
 50
116.996
 51
133.977
  0
ARC
  8
APS_GEOMETRY
 10
552.71
 20
-49.611
 40
0.761
 50
104.3
 51
116.996
  0
ARC
  8
APS_GEOMETRY
 10
552.75
 20
-49.762
 40
0.916
 50
95.326
 51
104.349
  0
ARC
  8
APS_GEOMETRY
 10
552.908
 20
-51.465
 40
2.627
 50
90.0
 51
95.326
  0
ARC
  8
APS_GEOMETRY
 10
552.908
 20
-50.139
 40
1.301
 50
87.553
 51
90.0
  0
ARC
  8
APS_GEOMETRY
 10
552.632
 20
-56.618
 40
7.786
 50
86.553
 51
87.553
  0
ARC
  8
APS_GEOMETRY
 10
552.238
 20
-63.153
 40
14.332
 50
86.009
 51
86.553
  0
ARC
  8
APS_GEOMETRY
 10
550.707
 20
-85.094
 40
36.327
 50
85.668
 51
86.009
  0
ARC
  8
APS_GEOMETRY
 10
553.572
 20
-47.363
 40
1.513
 50
265.426
 51
268.531
  0
ARC
  8
APS_GEOMETRY
 10
553.706
 20
-42.119
 40
6.759
 50
268.531
 51
270.0
  0
ARC
  8
APS_GEOMETRY
 10
553.706
 20
-43.726
 40
5.151
 50
270.0
 51
271.637
  0
ARC
  8
APS_GEOMETRY
 10
553.591
 20
-39.698
 40
9.181
 50
271.637
 51
272.862
  0
ARC
  8
APS_GEOMETRY
 10
553.459
 20
-37.055
 40
11.827
 50
272.862
 51
273.814
  0
ARC
  8
APS_GEOMETRY
 10
553.012
 20
-30.345
 40
18.553
 50
273.814
 51
274.574
  0
ARC
  8
APS_GEOMETRY
 10
555.818
 20
-66.844
 40
18.054
 50
93.72
 51
94.214
  0
ARC
  8
APS_GEOMETRY
 10
555.219
 20
-57.632
 40
8.823
 50
93.013
 51
93.72
  0
ARC
  8
APS_GEOMETRY
 10
555.055
 20
-54.512
 40
5.699
 50
91.918
 51
93.013
  0
ARC
  8
APS_GEOMETRY
 10
554.926
 20
-50.671
 40
1.855
 50
90.0
 51
91.918
  0
ARC
  8
APS_GEOMETRY
 10
554.926
 20
-51.226
 40
2.411
 50
73.82
 51
90.0
  0
ARC
  8
APS_GEOMETRY
 10
555.164
 20
-50.407
 40
1.558
 50
53.658
 51
73.82
  0
ARC
  8
APS_GEOMETRY
 10
555.502
 20
-49.945
 40
0.986
 50
26.03
 51
53.569
  0
ARC
  8
APS_GEOMETRY
 10
555.398
 20
-49.996
 40
1.101
 50
360.0
 51
26.03
  0
ARC
  8
APS_GEOMETRY
 10
555.355
 20
-49.996
 40
1.144
 50
345.282
 51
360.0
  0
ARC
  8
APS_GEOMETRY
 10
555.465
 20
-50.025
 40
1.03
 50
329.767
 51
345.282
  0
ARC
  8
APS_GEOMETRY
 10
555.527
 20
-50.061
 40
0.958
 50
313.168
 51
329.767
  0
ARC
  8
APS_GEOMETRY
 10
555.551
 20
-50.086
 40
0.925
 50
296.267
 51
313.168
  0
ARC
  8
APS_GEOMETRY
 10
556.077
 20
-51.149
 40
0.262
 50
116.565
 51
139.899
  0
ARC
  8
APS_GEOMETRY
 10
555.946
 20
-51.039
 40
0.091
 50
139.899
 51
180.0
  0
ARC
  8
APS_GEOMETRY
 10
555.956
 20
-51.039
 40
0.101
 50
180.0
 51
226.193
  0
ARC
  8
APS_GEOMETRY
 10
556.143
 20
-50.844
 40
0.372
 50
226.193
 51
249.829
  0
ARC
  8
APS_GEOMETRY
 10
555.607
 20
-52.32
 40
1.199
 50
53.249
 51
70.105
  0
ARC
  8
APS_GEOMETRY
 10
555.851
 20
-51.994
 40
0.792
 50
32.471
 51
53.249
  0
ARC
  8
APS_GEOMETRY
 10
555.737
 20
-52.066
 40
0.926
 50
23.305
 51
32.471
  0
ARC
  8
APS_GEOMETRY
 10
555.036
 20
-52.368
 40
1.69
 50
16.521
 51
23.305
  0
ARC
  8
APS_GEOMETRY
 10
554.49
 20
-52.53
 40
2.26
 50
11.429
 51
16.521
  0
ARC
  8
APS_GEOMETRY
 10
552.941
 20
-52.843
 40
3.84
 50
7.524
 51
11.429
  0
ARC
  8
APS_GEOMETRY
 10
558.074
 20
-52.16
 40
1.338
 50
187.765
 51
196.914
  0
ARC
  8
APS_GEOMETRY
 10
556.979
 20
-52.493
 40
0.194
 50
196.914
 51
221.082
  0
ARC
  8
APS_GEOMETRY
 10
556.983
 20
-52.489
 40
0.2
 50
221.082
 51
244.607
  0
ARC
  8
APS_GEOMETRY
 10
557.451
 20
-51.505
 40
1.29
 50
244.607
 51
253.811
  0
ARC
  8
APS_GEOMETRY
 10
557.04
 20
-52.905
 40
0.17
 50
51.45
 51
72.474
  0
ARC
  8
APS_GEOMETRY
 10
556.998
 20
-52.958
 40
0.238
 50
33.69
 51
51.45
  0
ARC
  8
APS_GEOMETRY
 10
556.988
 20
-52.965
 40
0.25
 50
16.639
 51
33.69
  0
ARC
  8
APS_GEOMETRY
 10
556.976
 20
-52.969
 40
0.262
 50
360.0
 51
16.639
  0
ARC
  8
APS_GEOMETRY
 10
556.972
 20
-52.969
 40
0.266
 50
338.993
 51
360.0
  0
ARC
  8
APS_GEOMETRY
 10
556.81
 20
-52.906
 40
0.44
 50
322.696
 51
338.993
  0
ARC
  8
APS_GEOMETRY
 10
556.749
 20
-52.86
 40
0.516
 50
308.603
 51
322.696
  0
ARC
  8
APS_GEOMETRY
 10
556.707
 20
-52.808
 40
0.583
 50
295.346
 51
308.603
  0
ARC
  8
APS_GEOMETRY
 10
556.488
 20
-52.325
 40
1.113
 50
279.583
 51
294.905
  0
ARC
  8
APS_GEOMETRY
 10
556.202
 20
-50.627
 40
2.835
 50
270.0
 51
279.583
  0
ARC
  8
APS_GEOMETRY
 10
556.202
 20
-51.395
 40
2.067
 50
261.247
 51
270.0
  0
ARC
  8
APS_GEOMETRY
 10
556.069
 20
-52.255
 40
1.197
 50
249.737
 51
261.247
  0
ARC
  8
APS_GEOMETRY
 10
555.982
 20
-52.491
 40
0.946
 50
235.345
 51
249.737
  0
ARC
  8
APS_GEOMETRY
 10
555.872
 20
-52.65
 40
0.752
 50
219.198
 51
235.345
  0
ARC
  8
APS_GEOMETRY
 10
556.104
 20
-52.453
 40
1.056
 50
209.076
 51
219.56
  0
ARC
  8
APS_GEOMETRY
 10
556.638
 20
-52.156
 40
1.667
 50
200.735
 51
209.076
  0
ARC
  8
APS_GEOMETRY
 10
557.375
 20
-51.877
 40
2.455
 50
197.881
 51
200.735
  0
ARC
  8
APS_GEOMETRY
 10
560.403
 20
-50.9
 40
5.637
 50
195.997
 51
197.881
  0
ARC
  8
APS_GEOMETRY
 10
562.641
 20
-50.258
 40
7.966
 50
194.664
 51
195.997
  0
ARC
  8
APS_GEOMETRY
 10
568.841
 20
-48.636
 40
14.374
 50
193.671
 51
194.664
  0
ARC
  8
APS_GEOMETRY
 10
553.119
 20
-52.458
 40
1.805
 50
13.61
 51
23.585
  0
ARC
  8
APS_GEOMETRY
 10
554.301
 20
-51.942
 40
0.515
 50
23.585
 51
42.31
  0
ARC
  8
APS_GEOMETRY
 10
554.409
 20
-51.844
 40
0.371
 50
42.31
 51
67.521
  0
ARC
  8
APS_GEOMETRY
 10
554.324
 20
-52.049
 40
0.592
 50
67.521
 51
87.397
  0
LINE
  8
APS_GEOMETRY
 10
554.164
 11
554.128
 20
-49.79
 21
-50.552
  0
LINE
  8
APS_GEOMETRY
 10
554.128
 11
554.128
 20
-50.552
 21
-50.564
  0
LINE
  8
APS_GEOMETRY
 10
554.128
 11
554.128
 20
-50.564
 21
-50.581
  0
ARC
  8
APS_GEOMETRY
 10
554.658
 20
-50.581
 40
0.529
 50
180.0
 51
192.339
  0
ARC
  8
APS_GEOMETRY
 10
554.237
 20
-50.673
 40
0.099
 50
192.339
 51
221.186
  0
ARC
  8
APS_GEOMETRY
 10
554.227
 20
-50.682
 40
0.085
 50
221.186
 51
253.872
  0
ARC
  8
APS_GEOMETRY
 10
554.298
 20
-50.435
 40
0.343
 50
253.872
 51
270.0
  0
ARC
  8
APS_GEOMETRY
 10
554.298
 20
-49.98
 40
0.797
 50
270.0
 51
289.569
  0
ARC
  8
APS_GEOMETRY
 10
554.443
 20
-50.388
 40
0.364
 50
289.569
 51
318.681
  0
ARC
  8
APS_GEOMETRY
 10
554.404
 20
-50.354
 40
0.417
 50
318.681
 51
344.628
  0
ARC
  8
APS_GEOMETRY
 10
553.674
 20
-50.153
 40
1.174
 50
344.628
 51
0.0
  0
ARC
  8
APS_GEOMETRY
 10
554.021
 20
-50.153
 40
0.827
 50
0.0
 51
35.369
  0
ARC
  8
APS_GEOMETRY
 10
554.4
 20
-49.884
 40
0.362
 50
35.369
 51
90.0
  0
ARC
  8
APS_GEOMETRY
 10
554.4
 20
-49.888
 40
0.366
 50
90.0
 51
108.435
  0
ARC
  8
APS_GEOMETRY
 10
554.328
 20
-49.674
 40
0.141
 50
108.435
 51
138.366
  0
ARC
  8
APS_GEOMETRY
 10
554.348
 20
-49.691
 40
0.167
 50
138.366
 51
164.291
  0
ARC
  8
APS_GEOMETRY
 10
554.796
 20
-49.817
 40
0.632
 50
164.291
 51
177.51
  0
LINE
  8
APS_GEOMETRY
 10
559.216
 11
560.939
 20
-48.871
 21
-48.871
  0
ARC
  8
APS_GEOMETRY
 10
560.852
 20
-46.401
 40
2.471
 50
272.021
 51
278.44
  0
ARC
  8
APS_GEOMETRY
 10
560.949
 20
-47.057
 40
1.808
 50
278.44
 51
285.945
  0
ARC
  8
APS_GEOMETRY
 10
561.681
 20
-49.677
 40
0.912
 50
98.584
 51
104.931
  0
ARC
  8
APS_GEOMETRY
 10
561.619
 20
-49.269
 40
0.499
 50
90.0
 51
98.584
  0
ARC
  8
APS_GEOMETRY
 10
561.619
 20
-49.145
 40
0.375
 50
52.871
 51
90.0
  0
ARC
  8
APS_GEOMETRY
 10
561.11
 20
-49.817
 40
1.218
 50
32.518
 51
52.871
  0
ARC
  8
APS_GEOMETRY
 10
560.707
 20
-50.074
 40
1.696
 50
17.209
 51
32.518
  0
ARC
  8
APS_GEOMETRY
 10
561.043
 20
-49.97
 40
1.345
 50
360.0
 51
17.209
  0
ARC
  8
APS_GEOMETRY
 10
561.716
 20
-49.97
 40
0.672
 50
337.348
 51
360.0
  0
ARC
  8
APS_GEOMETRY
 10
561.986
 20
-50.082
 40
0.379
 50
307.042
 51
337.348
  0
ARC
  8
APS_GEOMETRY
 10
561.939
 20
-50.018
 40
0.459
 50
287.186
 51
306.87
  0
ARC
  8
APS_GEOMETRY
 10
561.897
 20
-49.882
 40
0.601
 50
270.0
 51
287.186
  0
ARC
  8
APS_GEOMETRY
 10
561.897
 20
-49.944
 40
0.539
 50
252.221
 51
270.0
  0
ARC
  8
APS_GEOMETRY
 10
561.872
 20
-50.022
 40
0.457
 50
232.896
 51
252.221
  0
ARC
  8
APS_GEOMETRY
 10
561.969
 20
-49.894
 40
0.618
 50
218.3
 51
232.896
  0
ARC
  8
APS_GEOMETRY
 10
562.727
 20
-49.295
 40
1.584
 50
209.197
 51
218.3
  0
ARC
  8
APS_GEOMETRY
 10
558.872
 20
-51.384
 40
2.801
 50
28.025
 51
32.699
  0
ARC
  8
APS_GEOMETRY
 10
560.888
 20
-50.09
 40
0.406
 50
32.699
 51
45.0
  0
ARC
  8
APS_GEOMETRY
 10
561.025
 20
-49.953
 40
0.212
 50
45.0
 51
67.557
  0
ARC
  8
APS_GEOMETRY
 10
561.024
 20
-49.954
 40
0.214
 50
67.557
 51
90.0
  0
ARC
  8
APS_GEOMETRY
 10
561.024
 20
-49.938
 40
0.197
 50
90.0
 51
120.801
  0
ARC
  8
APS_GEOMETRY
 10
561.017
 20
-49.926
 40
0.184
 50
120.801
 51
152.7
  0
ARC
  8
APS_GEOMETRY
 10
561.163
 20
-50.002
 40
0.348
 50
152.7
 51
171.085
  0
ARC
  8
APS_GEOMETRY
 10
562.272
 20
-50.176
 40
1.471
 50
171.085
 51
180.0
  0
LINE
  8
APS_GEOMETRY
 10
560.802
 11
560.802
 20
-50.176
 21
-52.007
  0
ARC
  8
APS_GEOMETRY
 10
562.744
 20
-52.007
 40
1.943
 50
180.0
 51
188.194
  0
ARC
  8
APS_GEOMETRY
 10
561.294
 20
-52.216
 40
0.477
 50
188.194
 51
204.775
  0
ARC
  8
APS_GEOMETRY
 10
561.153
 20
-52.281
 40
0.322
 50
204.775
 51
228.576
  0
ARC
  8
APS_GEOMETRY
 10
561.285
 20
-52.131
 40
0.522
 50
228.576
 51
247.218
  0
ARC
  8
APS_GEOMETRY
 10
560.518
 20
-53.938
 40
1.442
 50
59.381
 51
66.93
  0
ARC
  8
APS_GEOMETRY
 10
561.084
 20
-52.982
 40
0.33
 50
43.568
 51
59.381
  0
ARC
  8
APS_GEOMETRY
 10
561.175
 20
-52.896
 40
0.205
 50
19.041
 51
43.568
  0
ARC
  8
APS_GEOMETRY
 10
561.049
 20
-52.939
 40
0.338
 50
360.0
 51
19.041
  0
ARC
  8
APS_GEOMETRY
 10
561.112
 20
-52.939
 40
0.275
 50
317.66
 51
360.0
  0
ARC
  8
APS_GEOMETRY
 10
560.86
 20
-52.709
 40
0.616
 50
289.747
 51
317.66
  0
ARC
  8
APS_GEOMETRY
 10
560.649
 20
-52.121
 40
1.241
 50
281.964
 51
289.747
  0
ARC
  8
APS_GEOMETRY
 10
560.356
 20
-50.74
 40
2.653
 50
276.643
 51
281.964
  0
ARC
  8
APS_GEOMETRY
 10
560.233
 20
-49.682
 40
3.718
 50
272.836
 51
276.643
  0
ARC
  8
APS_GEOMETRY
 10
560.086
 20
-46.704
 40
6.699
 50
270.0
 51
272.836
  0
ARC
  8
APS_GEOMETRY
 10
560.086
 20
-44.86
 40
8.544
 50
267.283
 51
270.0
  0
ARC
  8
APS_GEOMETRY
 10
559.906
 20
-48.64
 40
4.759
 50
263.643
 51
267.283
  0
ARC
  8
APS_GEOMETRY
 10
559.756
 20
-49.988
 40
3.403
 50
258.563
 51
263.643
  0
ARC
  8
APS_GEOMETRY
 10
559.397
 20
-51.762
 40
1.593
 50
251.136
 51
258.563
  0
ARC
  8
APS_GEOMETRY
 10
559.077
 20
-52.691
 40
0.61
 50
222.558
 51
251.395
  0
ARC
  8
APS_GEOMETRY
 10
558.839
 20
-52.91
 40
0.287
 50
180.0
 51
222.558
  0
ARC
  8
APS_GEOMETRY
 10
558.791
 20
-52.91
 40
0.239
 50
150.642
 51
180.0
  0
ARC
  8
APS_GEOMETRY
 10
558.81
 20
-52.92
 40
0.261
 50
122.574
 51
150.642
  0
ARC
  8
APS_GEOMETRY
 10
558.759
 20
-52.862
 40
0.185
 50
108.677
 51
119.055
  0
ARC
  8
APS_GEOMETRY
 10
561.071
 20
-59.701
 40
7.404
 50
107.038
 51
108.677
  0
ARC
  8
APS_GEOMETRY
 10
558.816
 20
-52.324
 40
0.31
 50
286.144
 51
308.66
  0
ARC
  8
APS_GEOMETRY
 10
558.866
 20
-52.388
 40
0.229
 50
308.66
 51
334.933
  0
ARC
  8
APS_GEOMETRY
 10
558.66
 20
-52.291
 40
0.457
 50
334.933
 51
348.829
  0
ARC
  8
APS_GEOMETRY
 10
556.077
 20
-51.781
 40
3.089
 50
348.829
 51
354.161
  0
ARC
  8
APS_GEOMETRY
 10
554.332
 20
-51.601
 40
4.844
 50
354.144
 51
355.66
  0
ARC
  8
APS_GEOMETRY
 10
546.594
 20
-51.014
 40
12.604
 50
355.66
 51
356.6
  0
ARC
  8
APS_GEOMETRY
 10
540.679
 20
-50.663
 40
18.529
 50
356.6
 51
357.24
  0
ARC
  8
APS_GEOMETRY
 10
523.897
 20
-49.853
 40
35.331
 50
357.24
 51
357.703
  0
ARC
  8
APS_GEOMETRY
 10
525.549
 20
-49.92
 40
33.678
 50
357.703
 51
358.674
  0
ARC
  8
APS_GEOMETRY
 10
541.132
 20
-50.28
 40
18.09
 50
358.674
 51
0.0
  0
ARC
  8
APS_GEOMETRY
 10
556.541
 20
-50.28
 40
2.681
 50
360.0
 51
6.242
  0
ARC
  8
APS_GEOMETRY
 10
558.673
 20
-50.047
 40
0.536
 50
6.242
 51
20.225
  0
ARC
  8
APS_GEOMETRY
 10
558.969
 20
-49.938
 40
0.221
 50
20.225
 51
50.44
  0
ARC
  8
APS_GEOMETRY
 10
559.026
 20
-49.869
 40
0.131
 50
50.44
 51
90.0
  0
ARC
  8
APS_GEOMETRY
 10
559.026
 20
-49.914
 40
0.176
 50
90.0
 51
126.747
  0
ARC
  8
APS_GEOMETRY
 10
559.275
 20
-50.247
 40
0.592
 50
126.747
 51
146.547
  0
ARC
  8
APS_GEOMETRY
 10
554.876
 20
-47.356
 40
4.671
 50
324.255
 51
326.701
  0
ARC
  8
APS_GEOMETRY
 10
556.738
 20
-48.696
 40
2.377
 50
320.826
 51
324.255
  0
ARC
  8
APS_GEOMETRY
 10
557.347
 20
-49.192
 40
1.592
 50
315.722
 51
320.826
  0
ARC
  8
APS_GEOMETRY
 10
558.047
 20
-49.874
 40
0.615
 50
307.504
 51
315.722
  0
ARC
  8
APS_GEOMETRY
 10
557.982
 20
-49.788
 40
0.723
 50
291.306
 51
307.405
  0
ARC
  8
APS_GEOMETRY
 10
558.094
 20
-50.075
 40
0.415
 50
270.0
 51
291.306
  0
ARC
  8
APS_GEOMETRY
 10
558.094
 20
-50.102
 40
0.388
 50
245.532
 51
270.0
  0
ARC
  8
APS_GEOMETRY
 10
558.091
 20
-50.108
 40
0.381
 50
220.833
 51
245.532
  0
ARC
  8
APS_GEOMETRY
 10
558.13
 20
-50.074
 40
0.433
 50
198.684
 51
220.833
  0
ARC
  8
APS_GEOMETRY
 10
558.294
 20
-50.019
 40
0.606
 50
180.0
 51
198.684
  0
ARC
  8
APS_GEOMETRY
 10
558.679
 20
-50.019
 40
0.991
 50
168.408
 51
180.0
  0
ARC
  8
APS_GEOMETRY
 10
559.314
 20
-50.149
 40
1.639
 50
159.402
 51
168.408
  0
ARC
  8
APS_GEOMETRY
 10
559.511
 20
-50.223
 40
1.849
 50
151.39
 51
159.402
  0
ARC
  8
APS_GEOMETRY
 10
559.471
 20
-50.201
 40
1.803
 50
143.276
 51
151.39
  0
ARC
  8
APS_GEOMETRY
 10
558.966
 20
-49.823
 40
1.173
 50
124.216
 51
143.31
  0
ARC
  8
APS_GEOMETRY
 10
558.516
 20
-49.162
 40
0.373
 50
90.0
 51
124.216
  0
ARC
  8
APS_GEOMETRY
 10
558.516
 20
-49.328
 40
0.538
 50
82.725
 51
90.0
  0
ARC
  8
APS_GEOMETRY
 10
558.474
 20
-49.657
 40
0.871
 50
77.005
 51
82.725
  0
ARC
  8
APS_GEOMETRY
 10
559.759
 20
-43.462
 40
5.456
 50
258.486
 51
260.378
  0
ARC
  8
APS_GEOMETRY
 10
559.208
 20
-46.709
 40
2.163
 50
260.378
 51
263.382
  0
ARC
  8
APS_GEOMETRY
 10
559.161
 20
-47.115
 40
1.755
 50
263.382
 51
267.084
  0
ARC
  8
APS_GEOMETRY
 10
559.216
 20
-46.044
 40
2.827
 50
267.084
 51
270.0
  0
LINE
  8
APS_GEOMETRY
 10
563.557
 11
565.238
 20
-48.871
 21
-48.871
  0
ARC
  8
APS_GEOMETRY
 10
565.238
 20
-27.699
 40
21.172
 50
270.0
 51
270.69
  0
ARC
  8
APS_GEOMETRY
 10
565.358
 20
-37.604
 40
11.266
 50
270.69
 51
271.637
  0
ARC
  8
APS_GEOMETRY
 10
565.458
 20
-41.124
 40
7.745
 50
271.637
 51
273.013
  0
ARC
  8
APS_GEOMETRY
 10
565.703
 20
-45.78
 40
3.082
 50
273.013
 51
275.194
  0
ARC
  8
APS_GEOMETRY
 10
565.764
 20
-46.448
 40
2.411
 50
275.194
 51
280.756
  0
ARC
  8
APS_GEOMETRY
 10
565.775
 20
-46.508
 40
2.35
 50
280.756
 51
286.39
  0
ARC
  8
APS_GEOMETRY
 10
566.637
 20
-49.457
 40
0.722
 50
100.305
 51
105.945
  0
ARC
  8
APS_GEOMETRY
 10
566.546
 20
-48.96
 40
0.217
 50
90.0
 51
100.305
  0
ARC
  8
APS_GEOMETRY
 10
566.546
 20
-49.037
 40
0.294
 50
58.946
 51
90.0
  0
ARC
  8
APS_GEOMETRY
 10
566.434
 20
-49.224
 40
0.512
 50
35.538
 51
58.946
  0
ARC
  8
APS_GEOMETRY
 10
565.995
 20
-49.547
 40
1.057
 50
16.699
 51
35.952
  0
ARC
  8
APS_GEOMETRY
 10
565.665
 20
-49.646
 40
1.401
 50
360.0
 51
16.699
  0
ARC
  8
APS_GEOMETRY
 10
566.28
 20
-49.646
 40
0.786
 50
344.982
 51
360.0
  0
ARC
  8
APS_GEOMETRY
 10
566.657
 20
-49.747
 40
0.396
 50
323.746
 51
344.982
  0
ARC
  8
APS_GEOMETRY
 10
566.741
 20
-49.809
 40
0.292
 50
296.114
 51
323.746
  0
ARC
  8
APS_GEOMETRY
 10
566.726
 20
-49.778
 40
0.326
 50
270.0
 51
296.114
  0
ARC
  8
APS_GEOMETRY
 10
566.726
 20
-49.695
 40
0.408
 50
255.311
 51
270.0
  0
ARC
  8
APS_GEOMETRY
 10
566.672
 20
-49.904
 40
0.193
 50
233.881
 51
255.311
  0
ARC
  8
APS_GEOMETRY
 10
566.729
 20
-49.825
 40
0.291
 50
219.289
 51
233.881
  0
ARC
  8
APS_GEOMETRY
 10
567.882
 20
-48.881
 40
1.78
 50
213.408
 51
219.289
  0
ARC
  8
APS_GEOMETRY
 10
565.722
 20
-50.304
 40
0.806
 50
33.294
 51
51.246
  0
ARC
  8
APS_GEOMETRY
 10
565.832
 20
-50.168
 40
0.631
 50
51.246
 51
71.565
  0
ARC
  8
APS_GEOMETRY
 10
565.759
 20
-50.385
 40
0.86
 50
71.565
 51
79.278
  0
ARC
  8
APS_GEOMETRY
 10
565.526
 20
-51.615
 40
2.112
 50
79.278
 51
84.2
  0
ARC
  8
APS_GEOMETRY
 10
565.427
 20
-52.593
 40
3.095
 50
84.2
 51
87.567
  0
ARC
  8
APS_GEOMETRY
 10
565.307
 20
-55.421
 40
5.925
 50
87.567
 51
90.0
  0
ARC
  8
APS_GEOMETRY
 10
565.307
 20
-51.161
 40
1.666
 50
90.0
 51
96.374
  0
ARC
  8
APS_GEOMETRY
 10
565.196
 20
-50.171
 40
0.67
 50
96.374
 51
106.434
  0
ARC
  8
APS_GEOMETRY
 10
565.118
 20
-49.905
 40
0.392
 50
106.434
 51
123.056
  0
ARC
  8
APS_GEOMETRY
 10
564.995
 20
-49.717
 40
0.167
 50
123.056
 51
148.627
  0
ARC
  8
APS_GEOMETRY
 10
565.107
 20
-49.78
 40
0.296
 50
149.421
 51
165.28
  0
ARC
  8
APS_GEOMETRY
 10
565.43
 20
-49.865
 40
0.63
 50
165.28
 51
176.135
  0
ARC
  8
APS_GEOMETRY
 10
566.354
 20
-49.927
 40
1.556
 50
176.135
 51
178.367
  0
ARC
  8
APS_GEOMETRY
 10
574.905
 20
-50.171
 40
10.11
 50
178.367
 51
179.242
  0
ARC
  8
APS_GEOMETRY
 10
583.742
 20
-50.288
 40
18.948
 50
179.242
 51
179.709
  0
ARC
  8
APS_GEOMETRY
 10
613.807
 20
-50.441
 40
49.013
 50
179.709
 51
180.0
  0
ARC
  8
APS_GEOMETRY
 10
565.503
 20
-50.441
 40
0.709
 50
180.0
 51
195.027
  0
ARC
  8
APS_GEOMETRY
 10
564.923
 20
-50.596
 40
0.109
 50
195.027
 51
234.058
  0
ARC
  8
APS_GEOMETRY
 10
564.928
 20
-50.588
 40
0.118
 50
234.058
 51
253.191
  0
ARC
  8
APS_GEOMETRY
 10
565.052
 20
-50.179
 40
0.546
 50
253.191
 51
262.063
  0
ARC
  8
APS_GEOMETRY
 10
565.115
 20
-49.724
 40
1.005
 50
262.063
 51
266.949
  0
ARC
  8
APS_GEOMETRY
 10
565.199
 20
-48.156
 40
2.575
 50
266.949
 51
270.0
  0
ARC
  8
APS_GEOMETRY
 10
565.199
 20
-50.259
 40
0.472
 50
270.0
 51
286.007
  0
ARC
  8
APS_GEOMETRY
 10
565.282
 20
-50.548
 40
0.172
 50
286.007
 51
312.647
  0
ARC
  8
APS_GEOMETRY
 10
565.28
 20
-50.546
 40
0.175
 50
312.647
 51
338.993
  0
ARC
  8
APS_GEOMETRY
 10
564.923
 20
-50.408
 40
0.558
 50
338.993
 51
353.66
  0
ARC
  8
APS_GEOMETRY
 10
568.614
 20
-50.849
 40
3.16
 50
169.663
 51
173.118
  0
ARC
  8
APS_GEOMETRY
 10
565.975
 20
-50.367
 40
0.478
 50
160.769
 51
169.663
  0
ARC
  8
APS_GEOMETRY
 10
565.755
 20
-50.29
 40
0.244
 50
143.746
 51
160.769
  0
ARC
  8
APS_GEOMETRY
 10
565.808
 20
-50.329
 40
0.31
 50
128.66
 51
143.746
  0
ARC
  8
APS_GEOMETRY
 10
565.772
 20
-50.272
 40
0.243
 50
110.171
 51
130.601
  0
ARC
  8
APS_GEOMETRY
 10
565.775
 20
-50.278
 40
0.249
 50
90.0
 51
110.171
  0
ARC
  8
APS_GEOMETRY
 10
565.775
 20
-50.281
 40
0.253
 50
61.22
 51
90.0
  0
ARC
  8
APS_GEOMETRY
 10
565.731
 20
-50.362
 40
0.344
 50
36.634
 51
61.22
  0
ARC
  8
APS_GEOMETRY
 10
565.689
 20
-50.386
 40
0.392
 50
19.103
 51
35.91
  0
ARC
  8
APS_GEOMETRY
 10
564.41
 20
-50.829
 40
1.746
 50
11.16
 51
19.103
  0
ARC
  8
APS_GEOMETRY
 10
563.741
 20
-50.961
 40
2.428
 50
5.396
 51
11.16
  0
ARC
  8
APS_GEOMETRY
 10
563.401
 20
-50.993
 40
2.769
 50
0.0
 51
5.396
  0
ARC
  8
APS_GEOMETRY
 10
563.449
 20
-50.993
 40
2.721
 50
349.287
 51
0.0
  0
ARC
  8
APS_GEOMETRY
 10
564.785
 20
-51.246
 40
1.362
 50
334.12
 51
349.287
  0
ARC
  8
APS_GEOMETRY
 10
565.705
 20
-51.691
 40
0.34
 50
303.53
 51
333.853
  0
ARC
  8
APS_GEOMETRY
 10
565.739
 20
-51.741
 40
0.279
 50
270.0
 51
303.53
  0
ARC
  8
APS_GEOMETRY
 10
565.739
 20
-51.728
 40
0.292
 50
249.578
 51
270.0
  0
ARC
  8
APS_GEOMETRY
 10
565.677
 20
-51.895
 40
0.114
 50
216.607
 51
249.578
  0
ARC
  8
APS_GEOMETRY
 10
565.736
 20
-51.851
 40
0.188
 50
195.422
 51
216.607
  0
ARC
  8
APS_GEOMETRY
 10
566.762
 20
-51.568
 40
1.253
 50
187.253
 51
195.422
  0
ARC
  8
APS_GEOMETRY
 10
565.105
 20
-51.781
 40
0.418
 50
7.561
 51
49.434
  0
ARC
  8
APS_GEOMETRY
 10
565.088
 20
-51.801
 40
0.444
 50
49.434
 51
90.0
  0
ARC
  8
APS_GEOMETRY
 10
565.088
 20
-51.655
 40
0.299
 50
90.0
 51
115.224
  0
ARC
  8
APS_GEOMETRY
 10
565.029
 20
-51.53
 40
0.16
 50
115.224
 51
149.931
  0
ARC
  8
APS_GEOMETRY
 10
565.136
 20
-51.592
 40
0.284
 50
149.931
 51
171.111
  0
ARC
  8
APS_GEOMETRY
 10
566.432
 20
-51.795
 40
1.596
 50
171.111
 51
180.0
  0
ARC
  8
APS_GEOMETRY
 10
567.71
 20
-51.795
 40
2.874
 50
180.0
 51
183.062
  0
ARC
  8
APS_GEOMETRY
 10
572.109
 20
-51.559
 40
7.279
 50
183.062
 51
184.986
  0
ARC
  8
APS_GEOMETRY
 10
569.801
 20
-51.761
 40
4.963
 50
184.986
 51
187.804
  0
ARC
  8
APS_GEOMETRY
 10
565.431
 20
-52.359
 40
0.552
 50
187.804
 51
196.26
  0
ARC
  8
APS_GEOMETRY
 10
565.046
 20
-52.475
 40
0.15
 50
194.931
 51
230.024
  0
ARC
  8
APS_GEOMETRY
 10
565.144
 20
-52.358
 40
0.302
 50
230.024
 51
254.511
  0
ARC
  8
APS_GEOMETRY
 10
565.263
 20
-51.928
 40
0.748
 50
254.511
 51
265.219
  0
ARC
  8
APS_GEOMETRY
 10
565.513
 20
-48.942
 40
3.746
 50
265.219
 51
270.0
  0
ARC
  8
APS_GEOMETRY
 10
565.513
 20
-49.338
 40
3.35
 50
270.0
 51
274.186
  0
ARC
  8
APS_GEOMETRY
 10
565.615
 20
-50.729
 40
1.954
 50
274.186
 51
279.668
  0
ARC
  8
APS_GEOMETRY
 10
565.698
 20
-51.22
 40
1.456
 50
279.668
 51
286.991
  0
ARC
  8
APS_GEOMETRY
 10
565.89
 20
-51.846
 40
0.802
 50
286.991
 51
296.866
  0
ARC
  8
APS_GEOMETRY
 10
565.93
 20
-51.925
 40
0.714
 50
296.866
 51
318.366
  0
ARC
  8
APS_GEOMETRY
 10
565.53
 20
-51.569
 40
1.249
 50
318.366
 51
334.581
  0
ARC
  8
APS_GEOMETRY
 10
568.163
 20
-52.832
 40
1.671
 50
147.08
 51
154.231
  0
ARC
  8
APS_GEOMETRY
 10
567.062
 20
-52.119
 40
0.36
 50
131.634
 51
147.08
  0
ARC
  8
APS_GEOMETRY
 10
566.98
 20
-52.027
 40
0.236
 50
108.875
 51
131.634
  0
ARC
  8
APS_GEOMETRY
 10
567.014
 20
-52.127
 40
0.342
 50
90.0
 51
108.875
  0
ARC
  8
APS_GEOMETRY
 10
567.014
 20
-52.057
 40
0.273
 50
62.628
 51
90.0
  0
ARC
  8
APS_GEOMETRY
 10
566.997
 20
-52.091
 40
0.31
 50
36.995
 51
62.628
  0
ARC
  8
APS_GEOMETRY
 10
566.92
 20
-52.149
 40
0.407
 50
16.728
 51
36.995
  0
ARC
  8
APS_GEOMETRY
 10
566.739
 20
-52.203
 40
0.596
 50
360.0
 51
16.728
  0
ARC
  8
APS_GEOMETRY
 10
566.381
 20
-52.203
 40
0.953
 50
348.323
 51
360.0
  0
ARC
  8
APS_GEOMETRY
 10
564.951
 20
-51.908
 40
2.414
 50
340.994
 51
348.323
  0
ARC
  8
APS_GEOMETRY
 10
564.611
 20
-51.791
 40
2.773
 50
334.592
 51
340.994
  0
ARC
  8
APS_GEOMETRY
 10
565.203
 20
-52.072
 40
2.117
 50
327.265
 51
334.592
  0
ARC
  8
APS_GEOMETRY
 10
565.892
 20
-52.478
 40
1.32
 50
320.133
 51
325.923
  0
ARC
  8
APS_GEOMETRY
 10
566.692
 20
-53.146
 40
0.277
 50
307.476
 51
320.133
  0
ARC
  8
APS_GEOMETRY
 10
566.762
 20
-53.237
 40
0.162
 50
286.429
 51
307.476
  0
ARC
  8
APS_GEOMETRY
 10
566.733
 20
-53.139
 40
0.265
 50
270.0
 51
286.429
  0
ARC
  8
APS_GEOMETRY
 10
566.733
 20
-52.833
 40
0.57
 50
263.774
 51
270.0
  0
ARC
  8
APS_GEOMETRY
 10
566.9
 20
-51.303
 40
2.109
 50
260.538
 51
263.774
  0
ARC
  8
APS_GEOMETRY
 10
566.153
 20
-55.518
 40
2.171
 50
79.38
 51
84.987
  0
ARC
  8
APS_GEOMETRY
 10
565.829
 20
-59.209
 40
5.877
 50
84.987
 51
88.394
  0
LINE
  8
APS_GEOMETRY
 10
565.994
 11
563.221
 20
-53.335
 21
-53.335
  0
ARC
  8
APS_GEOMETRY
 10
563.221
 20
-52.754
 40
0.58
 50
254.103
 51
270.0
  0
ARC
  8
APS_GEOMETRY
 10
563.139
 20
-53.041
 40
0.282
 50
231.216
 51
254.103
  0
ARC
  8
APS_GEOMETRY
 10
563.105
 20
-53.083
 40
0.228
 50
203.795
 51
231.216
  0
ARC
  8
APS_GEOMETRY
 10
563.172
 20
-53.054
 40
0.302
 50
180.0
 51
203.795
  0
ARC
  8
APS_GEOMETRY
 10
563.198
 20
-53.054
 40
0.327
 50
164.055
 51
180.0
  0
ARC
  8
APS_GEOMETRY
 10
562.996
 20
-52.996
 40
0.118
 50
137.291
 51
164.055
  0
ARC
  8
APS_GEOMETRY
 10
563.057
 20
-53.052
 40
0.2
 50
120.964
 51
137.291
  0
ARC
  8
APS_GEOMETRY
 10
563.707
 20
-54.135
 40
1.464
 50
114.944
 51
120.964
  0
ARC
  8
APS_GEOMETRY
 10
562.895
 20
-52.36
 40
0.489
 50
293.429
 51
305.72
  0
ARC
  8
APS_GEOMETRY
 10
563.03
 20
-52.547
 40
0.258
 50
305.72
 51
322.651
  0
ARC
  8
APS_GEOMETRY
 10
563.009
 20
-52.531
 40
0.285
 50
322.651
 51
338.11
  0
ARC
  8
APS_GEOMETRY
 10
562.603
 20
-52.368
 40
0.722
 50
338.11
 51
347.8
  0
ARC
  8
APS_GEOMETRY
 10
560.083
 20
-51.816
 40
3.302
 50
347.672
 51
352.051
  0
ARC
  8
APS_GEOMETRY
 10
557.644
 20
-51.475
 40
5.765
 50
352.051
 51
355.365
  0
ARC
  8
APS_GEOMETRY
 10
556.001
 20
-51.342
 40
7.413
 50
355.365
 51
357.943
  0
ARC
  8
APS_GEOMETRY
 10
551.76
 20
-51.19
 40
11.657
 50
357.943
 51
0.0
  0
ARC
  8
APS_GEOMETRY
 10
546.865
 20
-51.19
 40
16.552
 50
360.0
 51
2.183
  0
ARC
  8
APS_GEOMETRY
 10
556.762
 20
-50.812
 40
6.647
 50
2.183
 51
5.629
  0
ARC
  8
APS_GEOMETRY
 10
559.711
 20
-50.522
 40
3.684
 50
5.629
 51
11.805
  0
ARC
  8
APS_GEOMETRY
 10
562.572
 20
-49.923
 40
0.761
 50
11.805
 51
25.419
  0
ARC
  8
APS_GEOMETRY
 10
562.943
 20
-49.755
 40
0.354
 50
26.565
 51
38.157
  0
ARC
  8
APS_GEOMETRY
 10
563.107
 20
-49.626
 40
0.145
 50
38.157
 51
56.31
  0
ARC
  8
APS_GEOMETRY
 10
563.072
 20
-49.678
 40
0.208
 50
56.31
 51
69.193
  0
ARC
  8
APS_GEOMETRY
 10
562.584
 20
-50.962
 40
1.582
 50
69.193
 51
73.856
  0
ARC
  8
APS_GEOMETRY
 10
563.099
 20
-49.192
 40
0.262
 50
216.87
 51
253.393
  0
ARC
  8
APS_GEOMETRY
 10
563.095
 20
-49.195
 40
0.258
 50
180.0
 51
216.87
  0
ARC
  8
APS_GEOMETRY
 10
563.152
 20
-49.195
 40
0.314
 50
161.565
 51
180.0
  0
ARC
  8
APS_GEOMETRY
 10
563.14
 20
-49.191
 40
0.302
 50
142.765
 51
161.565
  0
ARC
  8
APS_GEOMETRY
 10
563.133
 20
-49.185
 40
0.293
 50
123.425
 51
142.765
  0
ARC
  8
APS_GEOMETRY
 10
563.14
 20
-49.195
 40
0.305
 50
104.47
 51
123.425
  0
ARC
  8
APS_GEOMETRY
 10
563.198
 20
-49.481
 40
0.596
 50
96.724
 51
102.995
  0
ARC
  8
APS_GEOMETRY
 10
563.378
 20
-51.009
 40
2.135
 50
93.411
 51
96.724
  0
ARC
  8
APS_GEOMETRY
 10
563.458
 20
-52.351
 40
3.479
 50
91.375
 51
93.411
  0
ARC
  8
APS_GEOMETRY
 10
563.557
 20
-56.501
 40
7.63
 50
90.0
 51
91.375
  0
LINE
  8
COSTRUZIONI
 10
473.396
 11
673.396
 20
-64.496
 21
-64.496
  0
LINE
  8
COSTRUZIONI
 10
673.396
 11
673.396
 20
-64.496
 21
-44.496
  0
LINE
  8
COSTRUZIONI
 10
673.396
 11
473.396
 20
-44.496
 21
-44.496
  0
LINE
  8
COSTRUZIONI
 10
473.396
 11
473.396
 20
-44.496
 21
-64.496
  0
LINE
  8
COSTRUZIONI
 10
573.396
 11
573.396
 20
-64.496
 21
-44.496
  0
LINE
  8
COSTRUZIONI
 10
573.396
 11
673.396
 20
-54.496
 21
-54.496
  0
LINE
  8
COSTRUZIONI
 10
623.396
 11
623.396
 20
-64.496
 21
-44.496
  0
LINE
  8
COSTRUZIONI
 10
673.396
 11
673.396
 20
-44.496
 21
-14.496
  0
LINE
  8
COSTRUZIONI
 10
673.396
 11
573.396
 20
-14.496
 21
-14.496
  0
LINE
  8
COSTRUZIONI
 10
573.396
 11
573.396
 20
-14.496
 21
-44.496
  0
LINE
  8
COSTRUZIONI
 10
623.396
 11
623.396
 20
-34.496
 21
-14.496
  0
LINE
  8
COSTRUZIONI
 10
673.396
 11
573.396
 20
-34.496
 21
-34.496
  0
LINE
  8
COSTRUZIONI
 10
673.396
 11
573.396
 20
-24.496
 21
-24.496
  0
LINE
  8
APS_GEOMETRY
 10
517.974
 11
434.974
 20
0.0
 21
0.0
  0
ARC
  8
APS_GEOMETRY
 10
434.974
 20
3.0
 40
3.0
 50
180.0
 51
270.0
  0
LINE
  8
APS_GEOMETRY
 10
431.974
 11
431.974
 20
3.0
 21
30.0
  0
LINE
  8
APS_GEOMETRY
 10
431.974
 11
423.974
 20
30.0
 21
30.0
  0
ARC
  8
APS_GEOMETRY
 10
423.974
 20
32.0
 40
2.0
 50
180.0
 51
270.0
  0
LINE
  8
APS_GEOMETRY
 10
421.974
 11
421.974
 20
32.0
 21
40.0
  0
ARC
  8
APS_GEOMETRY
 10
426.974
 20
40.0
 40
5.0
 50
90.0
 51
180.0
  0
LINE
  8
APS_GEOMETRY
 10
519.974
 11
706.033
 20
16.0
 21
16.0
  0
LINE
  8
APS_GEOMETRY
 10
706.033
 11
706.033
 20
16.0
 21
29.0
  0
LINE
  8
APS_GEOMETRY
 10
706.033
 11
519.974
 20
29.0
 21
29.0
  0
LINE
  8
APS_GEOMETRY
 10
519.974
 11
533.974
 20
29.0
 21
29.0
  0
LINE
  8
APS_GEOMETRY
 10
533.974
 11
535.974
 20
29.0
 21
31.0
  0
LINE
  8
APS_GEOMETRY
 10
535.974
 11
535.974
 20
31.0
 21
42.0
  0
ARC
  8
APS_GEOMETRY
 10
532.974
 20
42.0
 40
3.0
 50
0.0
 51
90.0
  0
LINE
  8
APS_GEOMETRY
 10
532.974
 11
522.974
 20
45.0
 21
45.0
  0
ARC
  8
APS_GEOMETRY
 10
522.974
 20
42.0
 40
3.0
 50
90.0
 51
180.0
  0
LINE
  8
APS_GEOMETRY
 10
519.974
 11
519.974
 20
42.0
 21
33.5
  0
LINE
  8
APS_GEOMETRY
 10
426.974
 11
516.974
 20
45.0
 21
45.0
  0
ARC
  8
APS_GEOMETRY
 10
516.974
 20
42.0
 40
3.0
 50
360.0
 51
90.0
  0
ARC
  8
APS_GEOMETRY
 10
532.974
 20
3.0
 40
3.0
 50
270.0
 51
360.0
  0
LINE
  8
APS_GEOMETRY
 10
532.974
 11
519.974
 20
0.0
 21
0.0
  0
LINE
  8
APS_GEOMETRY
 10
519.974
 11
519.974
 20
42.0
 21
16.0
  0
LINE
  8
APS_GEOMETRY
 10
519.974
 11
533.974
 20
16.0
 21
16.0
  0
LINE
  8
APS_GEOMETRY
 10
533.974
 11
535.974
 20
16.0
 21
14.0
  0
LINE
  8
APS_GEOMETRY
 10
535.974
 11
535.974
 20
14.0
 21
3.0
  0
LINE
  8
QUOTATURA
 10
421.974
 11
421.974
 20
-6.662
 21
-26.218
  0
LINE
  8
QUOTATURA
 10
535.974
 11
535.974
 20
-6.662
 21
-26.218
  0
LINE
  8
QUOTATURA
 10
421.974
 11
472.85
 20
-23.718
 21
-23.718
  0
LINE
  8
QUOTATURA
 10
485.098
 11
535.974
 20
-23.718
 21
-23.718
  0
LINE
  8
QUOTATURA
 10
426.974
 11
421.974
 20
-24.551
 21
-23.718
  0
LINE
  8
QUOTATURA
 10
421.974
 11
426.974
 20
-23.718
 21
-22.884
  0
LINE
  8
QUOTATURA
 10
426.974
 11
426.974
 20
-22.884
 21
-24.551
  0
LINE
  8
QUOTATURA
 10
530.974
 11
535.974
 20
-22.884
 21
-23.718
  0
LINE
  8
QUOTATURA
 10
535.974
 11
530.974
 20
-23.718
 21
-24.551
  0
LINE
  8
QUOTATURA
 10
530.974
 11
530.974
 20
-24.551
 21
-22.884
  0
LINE
  8
QUOTATURA
 10
412.725
 11
397.959
 20
0.0
 21
0.0
  0
LINE
  8
QUOTATURA
 10
412.725
 11
397.959
 20
45.0
 21
45.0
  0
LINE
  8
QUOTATURA
 10
400.459
 11
400.459
 20
0.0
 21
18.709
  0
LINE
  8
QUOTATURA
 10
400.459
 11
400.459
 20
26.252
 21
45.0
  0
LINE
  8
QUOTATURA
 10
401.292
 11
400.459
 20
5.0
 21
0.0
  0
LINE
  8
QUOTATURA
 10
400.459
 11
399.625
 20
0.0
 21
5.0
  0
LINE
  8
QUOTATURA
 10
399.625
 11
401.292
 20
5.0
 21
5.0
  0
LINE
  8
QUOTATURA
 10
399.625
 11
400.459
 20
40.0
 21
45.0
  0
LINE
  8
QUOTATURA
 10
400.459
 11
401.292
 20
45.0
 21
40.0
  0
LINE
  8
QUOTATURA
 10
401.292
 11
399.625
 20
40.0
 21
40.0
  0
LINE
  8
QUOTATURA
 10
703.533
 11
583.078
 20
29.0
 21
29.0
  0
LINE
  8
QUOTATURA
 10
703.533
 11
583.078
 20
16.0
 21
16.0
  0
LINE
  8
QUOTATURA
 10
585.578
 11
585.578
 20
16.0
 21
5.838
  0
LINE
  8
QUOTATURA
 10
585.578
 11
603.963
 20
5.838
 21
5.838
  0
LINE
  8
QUOTATURA
 10
584.745
 11
585.578
 20
11.0
 21
16.0
  0
LINE
  8
QUOTATURA
 10
585.578
 11
586.412
 20
16.0
 21
11.0
  0
LINE
  8
QUOTATURA
 10
586.412
 11
584.745
 20
11.0
 21
11.0
  0
LINE
  8
QUOTATURA
 10
585.578
 11
585.578
 20
29.0
 21
39.0
  0
LINE
  8
QUOTATURA
 10
586.412
 11
585.578
 20
34.0
 21
29.0
  0
LINE
  8
QUOTATURA
 10
585.578
 11
584.745
 20
29.0
 21
34.0
  0
LINE
  8
QUOTATURA
 10
584.745
 11
586.412
 20
34.0
 21
34.0
  0
LINE
  8
QUOTATURA
 10
532.974
 11
532.974
 20
2.167
 21
3.833
  0
LINE
  8
QUOTATURA
 10
532.14
 11
533.807
 20
3.0
 21
3.0
  0
LINE
  8
QUOTATURA
 10
532.974
 11
547.594
 20
3.0
 21
-6.203
  0
LINE
  8
QUOTATURA
 10
547.594
 11
553.241
 20
-6.203
 21
-6.203
  0
LINE
  8
QUOTATURA
 10
539.3
 11
535.513
 20
-1.967
 21
1.402
  0
LINE
  8
QUOTATURA
 10
535.513
 11
540.188
 20
1.402
 21
-0.556
  0
LINE
  8
QUOTATURA
 10
540.188
 11
539.3
 20
-0.556
 21
-1.967
  0
LINE
  8
QUOTATURA
 10
532.974
 11
532.974
 20
41.166
 21
42.834
  0
LINE
  8
QUOTATURA
 10
532.14
 11
533.807
 20
42.0
 21
42.0
  0
LINE
  8
QUOTATURA
 10
532.974
 11
546.872
 20
42.0
 21
54.163
  0
LINE
  8
QUOTATURA
 10
546.872
 11
552.034
 20
54.163
 21
54.163
  0
LINE
  8
QUOTATURA
 10
539.543
 11
535.231
 20
46.641
 21
43.976
  0
LINE
  8
QUOTATURA
 10
535.231
 11
538.445
 20
43.976
 21
47.896
  0
LINE
  8
QUOTATURA
 10
538.445
 11
539.543
 20
47.896
 21
46.641
  0
TEXT
  8
TEXT
 10
598.247
 20
-62.567
 30
0.0
 40
4.0
 50
0.0
  1
B.Stefano
  0
TEXT
  8
TEXT
 10
522.179
 20
-58.605
 30
0.0
 40
2.5
 50
0.0
  1
tel. 0577-68.54.26 - fax 0577-68.64.29
  0
TEXT
  8
TEXT
 10
522.179
 20
-62.355
 30
0.0
 40
2.5
 50
0.0
  1
e-mail: tecnico@toscocornici.it - web: www.tosococornici.it
  0
TEXT
  8
TEXT
 10
574.117
 20
-47.143
 30
0.0
 40
2.0
 50
0.0
  1
documento:
  0
TEXT
  8
TEXT
 10
599.691
 20
-52.533
 30
0.0
 40
3.0
 50
0.0
  1
SEZIONE TIPO 3
  0
TEXT
  8
TEXT
 10
624.063
 20
-47.109
 30
0.0
 40
2.0
 50
0.0
  1
data:
  0
TEXT
  8
TEXT
 10
649.322
 20
-52.43
 30
0.0
 40
3.0
 50
0.0
  1
12/03/04
  0
TEXT
  8
TEXT
 10
649.15
 20
-62.347
 30
0.0
 40
3.0
 50
0.0
  1
1 : 1
  0
TEXT
  8
TEXT
 10
574.117
 20
-56.932
 30
0.0
 40
2.0
 50
0.0
  1
responsabile tecnico:
  0
TEXT
  8
TEXT
 10
624.08
 20
-56.932
 30
0.0
 40
2.0
 50
0.0
  1
scala:
  0
TEXT
  8
TEXT
 10
474.169
 20
-47.143
 30
0.0
 40
2.0
 50
0.0
  1
Ufficio tecnico:
  0
TEXT
  8
TEXT
 10
574.117
 20
-36.878
 30
0.0
 40
2.0
 50
0.0
  1
note:
  0
TEXT
  8
TEXT
 10
574.117
 20
-26.999
 30
0.0
 40
2.0
 50
0.0
  1
ordine:
  0
TEXT
  8
TEXT
 10
574.117
 20
-16.734
 30
0.0
 40
2.0
 50
0.0
  1
pezzo:
  0
TEXT
  8
TEXT
 10
624.029
 20
-16.734
 30
0.0
 40
2.0
 50
0.0
  1
pos.:
  0
TEXT
  8
TEXT
 10
624.029
 20
-26.614
 30
0.0
 40
2.0
 50
0.0
  1
lotto:
  0
TEXT
  8
TEXT
 10
599.691
 20
-22.326
 30
0.0
 40
3.0
 50
0.0
  1
TIPO3
  0
TEXT
  8
TEXT
 10
599.691
 20
-32.395
 30
0.0
 40
3.0
 50
0.0
  1
0000
  0
TEXT
  8
TEXT
 10
650.036
 20
-22.326
 30
0.0
 40
3.0
 50
0.0
  1
000
  0
TEXT
  8
TEXT
 10
650.036
 20
-32.218
 30
0.0
 40
3.0
 50
0.0
  1
NOME
  0
TEXT
  8
TEXT
 10
574.564
 20
-42.573
 30
0.0
 40
3.0
 50
0.0
  1
...
  0
TEXT
  8
QUOTATURA
 10
474.1
 20
-26.218
 30
0.0
 40
5.0
 50
0.0
  1
114
  0
TEXT
  8
QUOTATURA
 10
395.986
 20
20.0
 30
0.0
 40
5.0
 50
0.0
  1
45
  0
TEXT
  8
QUOTATURA
 10
605.213
 20
3.338
 30
0.0
 40
5.0
 50
0.0
  1
13
  0
TEXT
  8
QUOTATURA
 10
554.491
 20
-8.703
 30
0.0
 40
5.0
 50
0.0
  1
R3
  0
TEXT
  8
QUOTATURA
 10
553.284
 20
51.663
 30
0.0
 40
5.0
 50
0.0
  1
R3
  0
TEXT
  8
TEXT
 10
438.054
 20
-82.713
 30
0.0
 40
10.0
 50
0.0
  1
AGGIORNAMENTO VERSIONE
  0
ENDSEC
  0
EOF
