  0
SECTION
  2
TABLES
  0
TABLE
  2
LTYPE
 70
     1
  0
LTYPE
  2
DASHED
 70
    64
  3
__ __ __ __ __ __ __ __ __ __ __ __ __ __ __ __
 72
    65
 73
     2
 40
0.75
 49
0.5
 49
-0.25
  0
ENDTAB
  0
ENDSEC
  0
SECTION
  2
BLOCKS
  0
BLOCK
 70
 64
  2
APS_WVOL
  6
DASHED
 10
  0
 20
  0
 30
  0
  0
LINE
  8
WORK_VOLUME
  6
DASHED
 10
0.0
 11
2349.0
 20
0.0
 21
0.0
 30
0.0
 31
0.0
  0
LINE
  8
WORK_VOLUME
  6
DASHED
 10
2349.0
 11
2349.0
 20
0.0
 21
414.0
 30
0.0
 31
0.0
  0
LINE
  8
WORK_VOLUME
  6
DASHED
 10
2349.0
 11
0.0
 20
414.0
 21
414.0
 30
0.0
 31
0.0
  0
LINE
  8
WORK_VOLUME
  6
DASHED
 10
0.0
 11
0.0
 20
414.0
 21
0.0
 30
0.0
 31
0.0
  0
LINE
  8
WORK_VOLUME
  6
DASHED
 10
0.0
 11
0.0
 20
0.0
 21
0.0
 30
0.0
 31
45.5
  0
LINE
  8
WORK_VOLUME
  6
DASHED
 10
0.0
 11
0.0
 20
414.0
 21
414.0
 30
0.0
 31
45.5
  0
LINE
  8
WORK_VOLUME
  6
DASHED
 10
2349.0
 11
2349.0
 20
414.0
 21
414.0
 30
0.0
 31
45.5
  0
LINE
  8
WORK_VOLUME
  6
DASHED
 10
2349.0
 11
2349.0
 20
0.0
 21
0.0
 30
0.0
 31
45.5
  0
LINE
  8
WORK_VOLUME
  6
DASHED
 10
0.0
 11
2349.0
 20
0.0
 21
0.0
 30
45.5
 31
45.5
  0
LINE
  8
WORK_VOLUME
  6
DASHED
 10
2349.0
 11
2349.0
 20
0.0
 21
414.0
 30
45.5
 31
45.5
  0
LINE
  8
WORK_VOLUME
  6
DASHED
 10
2349.0
 11
0.0
 20
414.0
 21
414.0
 30
45.5
 31
45.5
  0
LINE
  8
WORK_VOLUME
  6
DASHED
 10
0.0
 11
0.0
 20
414.0
 21
0.0
 30
45.5
 31
45.5
  0
ENDBLK
  0
ENDSEC
  0
SECTION
  2
ENTITIES
  0
INSERT
  2
APS_WVOL
  8
WORK_VOLUME
  6
DASHED
 10
  0
 20
  0
 30
  0
  0
LINE
  8
COSTRUZIONI
 10
6212.107
 11
6212.107
 20
2602.142
 21
4992.142
  0
LINE
  8
COSTRUZIONI
 10
6212.107
 11
3832.107
 20
4992.142
 21
4992.142
  0
LINE
  8
COSTRUZIONI
 10
3832.107
 11
3832.107
 20
4992.142
 21
2602.142
  0
LINE
  8
COSTRUZIONI
 10
6168.107
 11
6168.107
 20
2602.142
 21
4948.142
  0
LINE
  8
COSTRUZIONI
 10
6168.107
 11
3876.107
 20
4948.142
 21
4948.142
  0
LINE
  8
COSTRUZIONI
 10
3876.107
 11
3876.107
 20
4948.142
 21
2602.142
  0
LINE
  8
COSTRUZIONI
 10
3876.107
 11
3832.107
 20
4948.142
 21
4992.142
  0
LINE
  8
COSTRUZIONI
 10
6168.107
 11
6212.107
 20
4948.142
 21
4992.142
  0
LINE
  8
QUOTATURA
 10
6222.107
 11
6630.467
 20
4992.142
 21
4992.142
  0
LINE
  8
QUOTATURA
 10
6222.107
 11
6630.467
 20
2602.142
 21
2602.142
  0
LINE
  8
QUOTATURA
 10
6620.467
 11
6620.467
 20
4992.142
 21
4078.996
  0
LINE
  8
QUOTATURA
 10
6620.467
 11
6620.467
 20
4048.394
 21
2602.142
  0
LINE
  8
QUOTATURA
 10
6617.133
 11
6620.467
 20
4972.142
 21
4992.142
  0
LINE
  8
QUOTATURA
 10
6620.467
 11
6623.801
 20
4992.142
 21
4972.142
  0
LINE
  8
QUOTATURA
 10
6623.801
 11
6617.133
 20
4972.142
 21
4972.142
  0
LINE
  8
QUOTATURA
 10
6623.801
 11
6620.467
 20
2622.142
 21
2602.142
  0
LINE
  8
QUOTATURA
 10
6620.467
 11
6617.133
 20
2602.142
 21
2622.142
  0
LINE
  8
QUOTATURA
 10
6617.133
 11
6623.801
 20
2622.142
 21
2622.142
  0
LINE
  8
QUOTATURA
 10
3876.107
 11
3876.107
 20
2592.142
 21
2396.068
  0
LINE
  8
QUOTATURA
 10
6168.107
 11
6168.107
 20
2592.142
 21
2396.068
  0
LINE
  8
QUOTATURA
 10
3876.107
 11
4960.714
 20
2406.068
 21
2406.068
  0
LINE
  8
QUOTATURA
 10
5083.5
 11
6168.107
 20
2406.068
 21
2406.068
  0
LINE
  8
QUOTATURA
 10
3896.107
 11
3876.107
 20
2402.734
 21
2406.068
  0
LINE
  8
QUOTATURA
 10
3876.107
 11
3896.107
 20
2406.068
 21
2409.402
  0
LINE
  8
QUOTATURA
 10
3896.107
 11
3896.107
 20
2409.402
 21
2402.734
  0
LINE
  8
QUOTATURA
 10
6148.107
 11
6168.107
 20
2409.402
 21
2406.068
  0
LINE
  8
QUOTATURA
 10
6168.107
 11
6148.107
 20
2406.068
 21
2402.734
  0
LINE
  8
QUOTATURA
 10
6148.107
 11
6148.107
 20
2402.734
 21
2409.402
  0
LINE
  8
APS_GEOMETRY
 10
5025.607
 11
5025.607
 20
4956.142
 21
2607.142
  0
LINE
  8
APS_GEOMETRY
 10
5018.607
 11
5018.607
 20
4956.142
 21
2607.142
  0
LINE
  8
APS_GEOMETRY
 10
4275.607
 11
4275.607
 20
4956.142
 21
2607.142
  0
LINE
  8
APS_GEOMETRY
 10
5768.607
 11
5768.607
 20
4956.142
 21
2607.142
  0
LINE
  8
APS_GEOMETRY
 10
4282.607
 11
4282.607
 20
4956.142
 21
2607.142
  0
LINE
  8
APS_GEOMETRY
 10
5761.607
 11
5761.607
 20
4956.142
 21
2607.142
  0
LINE
  8
APS_GEOMETRY
 10
6175.607
 11
6175.607
 20
2607.142
 21
4956.142
  0
LINE
  8
APS_GEOMETRY
 10
6175.607
 11
3868.607
 20
4956.142
 21
4956.142
  0
LINE
  8
APS_GEOMETRY
 10
3868.607
 11
3868.607
 20
4956.142
 21
2607.142
  0
LINE
  8
APS_GEOMETRY
 10
3868.607
 11
6175.607
 20
2607.142
 21
2607.142
  0
LINE
  8
COSTRUZIONI
 10
6071.607
 11
6071.607
 20
2840.242
 21
3220.042
  0
ARC
  8
COSTRUZIONI
 10
6064.507
 20
3220.042
 40
7.1
 50
0.0
 51
90.0
  0
LINE
  8
COSTRUZIONI
 10
6064.507
 11
5872.707
 20
3227.142
 21
3227.142
  0
ARC
  8
COSTRUZIONI
 10
5872.707
 20
3220.042
 40
7.1
 50
90.0
 51
180.0
  0
LINE
  8
COSTRUZIONI
 10
5865.607
 11
5865.607
 20
3220.042
 21
2840.242
  0
ARC
  8
COSTRUZIONI
 10
5872.707
 20
2840.242
 40
7.1
 50
180.0
 51
270.0
  0
LINE
  8
COSTRUZIONI
 10
5872.707
 11
6064.507
 20
2833.142
 21
2833.142
  0
ARC
  8
COSTRUZIONI
 10
6064.507
 20
2840.242
 40
7.1
 50
270.0
 51
0.0
  0
LINE
  8
COSTRUZIONI
 10
6071.607
 11
6071.607
 20
4845.042
 21
3314.242
  0
ARC
  8
COSTRUZIONI
 10
6064.507
 20
3314.242
 40
7.1
 50
270.0
 51
360.0
  0
LINE
  8
COSTRUZIONI
 10
6064.507
 11
5872.707
 20
3307.142
 21
3307.142
  0
ARC
  8
COSTRUZIONI
 10
5872.707
 20
3314.242
 40
7.1
 50
180.0
 51
270.0
  0
LINE
  8
COSTRUZIONI
 10
5865.607
 11
5865.607
 20
3314.242
 21
4845.042
  0
ARC
  8
COSTRUZIONI
 10
5872.707
 20
4845.042
 40
7.1
 50
90.0
 51
180.0
  0
LINE
  8
COSTRUZIONI
 10
5872.707
 11
6064.507
 20
4852.142
 21
4852.142
  0
ARC
  8
COSTRUZIONI
 10
6064.507
 20
4845.042
 40
7.1
 50
0.0
 51
90.0
  0
LINE
  8
COSTRUZIONI
 10
4921.607
 11
4921.607
 20
4845.042
 21
3314.242
  0
ARC
  8
COSTRUZIONI
 10
4914.507
 20
3314.242
 40
7.1
 50
270.0
 51
360.0
  0
LINE
  8
COSTRUZIONI
 10
4914.507
 11
4386.707
 20
3307.142
 21
3307.142
  0
ARC
  8
COSTRUZIONI
 10
4386.707
 20
3314.242
 40
7.1
 50
180.0
 51
270.0
  0
LINE
  8
COSTRUZIONI
 10
4379.607
 11
4379.607
 20
3314.242
 21
4845.042
  0
ARC
  8
COSTRUZIONI
 10
4386.707
 20
4845.042
 40
7.1
 50
90.0
 51
180.0
  0
LINE
  8
COSTRUZIONI
 10
4386.707
 11
4914.507
 20
4852.142
 21
4852.142
  0
ARC
  8
COSTRUZIONI
 10
4914.507
 20
4845.042
 40
7.1
 50
0.0
 51
90.0
  0
LINE
  8
COSTRUZIONI
 10
4921.607
 11
4921.607
 20
2840.242
 21
3220.042
  0
ARC
  8
COSTRUZIONI
 10
4914.507
 20
3220.042
 40
7.1
 50
0.0
 51
90.0
  0
LINE
  8
COSTRUZIONI
 10
4914.507
 11
4386.707
 20
3227.142
 21
3227.142
  0
ARC
  8
COSTRUZIONI
 10
4386.707
 20
3220.042
 40
7.1
 50
90.0
 51
180.0
  0
LINE
  8
COSTRUZIONI
 10
4379.607
 11
4379.607
 20
3220.042
 21
2840.242
  0
ARC
  8
COSTRUZIONI
 10
4386.707
 20
2840.242
 40
7.1
 50
180.0
 51
270.0
  0
LINE
  8
COSTRUZIONI
 10
4386.707
 11
4914.507
 20
2833.142
 21
2833.142
  0
ARC
  8
COSTRUZIONI
 10
4914.507
 20
2840.242
 40
7.1
 50
270.0
 51
360.0
  0
LINE
  8
COSTRUZIONI
 10
5129.707
 11
5657.507
 20
2833.142
 21
2833.142
  0
ARC
  8
COSTRUZIONI
 10
5657.507
 20
2840.242
 40
7.1
 50
270.0
 51
0.0
  0
LINE
  8
COSTRUZIONI
 10
5664.607
 11
5664.607
 20
2840.242
 21
3227.142
  0
LINE
  8
COSTRUZIONI
 10
5664.607
 11
5129.707
 20
3227.142
 21
3227.142
  0
ARC
  8
COSTRUZIONI
 10
5129.707
 20
3220.042
 40
7.1
 50
90.0
 51
180.0
  0
LINE
  8
COSTRUZIONI
 10
5122.607
 11
5122.607
 20
3220.042
 21
2840.242
  0
ARC
  8
COSTRUZIONI
 10
5129.707
 20
2840.242
 40
7.1
 50
180.0
 51
270.0
  0
CIRCLE
  8
COSTRUZIONI
 10
5068.607
 20
3647.142
 40
10.0
  0
LINE
  8
COSTRUZIONI
 10
4171.507
 11
3979.707
 20
3307.142
 21
3307.142
  0
ARC
  8
COSTRUZIONI
 10
3979.707
 20
3314.242
 40
7.1
 50
180.0
 51
270.0
  0
LINE
  8
COSTRUZIONI
 10
3972.607
 11
3972.607
 20
3314.242
 21
4845.042
  0
ARC
  8
COSTRUZIONI
 10
3979.707
 20
4845.042
 40
7.1
 50
90.0
 51
180.0
  0
LINE
  8
COSTRUZIONI
 10
3979.707
 11
4171.507
 20
4852.142
 21
4852.142
  0
ARC
  8
COSTRUZIONI
 10
4171.507
 20
4845.042
 40
7.1
 50
0.0
 51
90.0
  0
LINE
  8
COSTRUZIONI
 10
4178.607
 11
4178.607
 20
4845.042
 21
3314.242
  0
ARC
  8
COSTRUZIONI
 10
4171.507
 20
3314.242
 40
7.1
 50
270.0
 51
360.0
  0
LINE
  8
COSTRUZIONI
 10
5657.507
 11
5129.707
 20
3307.142
 21
3307.142
  0
ARC
  8
COSTRUZIONI
 10
5129.707
 20
3314.242
 40
7.1
 50
180.0
 51
270.0
  0
LINE
  8
COSTRUZIONI
 10
5122.607
 11
5122.607
 20
3314.242
 21
4845.042
  0
ARC
  8
COSTRUZIONI
 10
5129.707
 20
4845.042
 40
7.1
 50
90.0
 51
180.0
  0
LINE
  8
COSTRUZIONI
 10
5129.707
 11
5657.507
 20
4852.142
 21
4852.142
  0
ARC
  8
COSTRUZIONI
 10
5657.507
 20
4845.042
 40
7.1
 50
360.0
 51
90.0
  0
LINE
  8
COSTRUZIONI
 10
5664.607
 11
5664.607
 20
4845.042
 21
3314.242
  0
ARC
  8
COSTRUZIONI
 10
5657.507
 20
3314.242
 40
7.1
 50
270.0
 51
360.0
  0
LINE
  8
COSTRUZIONI
 10
4178.607
 11
4178.607
 20
2840.242
 21
3220.042
  0
ARC
  8
COSTRUZIONI
 10
4171.507
 20
3220.042
 40
7.1
 50
0.0
 51
90.0
  0
LINE
  8
COSTRUZIONI
 10
4171.507
 11
3979.707
 20
3227.142
 21
3227.142
  0
ARC
  8
COSTRUZIONI
 10
3979.707
 20
3220.042
 40
7.1
 50
90.0
 51
180.0
  0
LINE
  8
COSTRUZIONI
 10
3972.607
 11
3972.607
 20
3220.042
 21
2840.242
  0
ARC
  8
COSTRUZIONI
 10
3979.707
 20
2840.242
 40
7.1
 50
180.0
 51
270.0
  0
LINE
  8
COSTRUZIONI
 10
3979.707
 11
4171.507
 20
2833.142
 21
2833.142
  0
ARC
  8
COSTRUZIONI
 10
4171.507
 20
2840.242
 40
7.1
 50
270.0
 51
360.0
  0
LINE
  8
APS_GEOMETRY
 10
4161.607
 11
4161.607
 20
3331.142
 21
4828.142
  0
ARC
  8
APS_GEOMETRY
 10
4154.607
 20
4828.142
 40
7.0
 50
0.0
 51
90.0
  0
LINE
  8
APS_GEOMETRY
 10
4154.607
 11
3996.607
 20
4835.142
 21
4835.142
  0
ARC
  8
APS_GEOMETRY
 10
3996.607
 20
4828.142
 40
7.0
 50
90.0
 51
180.0
  0
LINE
  8
APS_GEOMETRY
 10
3989.607
 11
3989.607
 20
4828.142
 21
3331.142
  0
ARC
  8
APS_GEOMETRY
 10
3996.607
 20
3331.142
 40
7.0
 50
180.0
 51
270.0
  0
LINE
  8
APS_GEOMETRY
 10
3996.607
 11
4154.607
 20
3324.142
 21
3324.142
  0
ARC
  8
APS_GEOMETRY
 10
4154.607
 20
3331.142
 40
7.0
 50
270.0
 51
0.0
  0
LINE
  8
APS_GEOMETRY
 10
4161.607
 11
4161.607
 20
2857.142
 21
3203.142
  0
ARC
  8
APS_GEOMETRY
 10
4154.607
 20
3203.142
 40
7.0
 50
0.0
 51
90.0
  0
LINE
  8
APS_GEOMETRY
 10
4154.607
 11
3996.607
 20
3210.142
 21
3210.142
  0
ARC
  8
APS_GEOMETRY
 10
3996.607
 20
3203.142
 40
7.0
 50
90.0
 51
180.0
  0
LINE
  8
APS_GEOMETRY
 10
3989.607
 11
3989.607
 20
3203.142
 21
2857.142
  0
ARC
  8
APS_GEOMETRY
 10
3996.607
 20
2857.142
 40
7.0
 50
180.0
 51
270.0
  0
LINE
  8
APS_GEOMETRY
 10
3996.607
 11
4154.607
 20
2850.142
 21
2850.142
  0
ARC
  8
APS_GEOMETRY
 10
4154.607
 20
2857.142
 40
7.0
 50
270.0
 51
0.0
  0
LINE
  8
APS_GEOMETRY
 10
6047.607
 11
5889.607
 20
2850.142
 21
2850.142
  0
ARC
  8
APS_GEOMETRY
 10
5889.607
 20
2857.142
 40
7.0
 50
180.0
 51
270.0
  0
LINE
  8
APS_GEOMETRY
 10
5882.607
 11
5882.607
 20
2857.142
 21
3203.142
  0
ARC
  8
APS_GEOMETRY
 10
5889.607
 20
3203.142
 40
7.0
 50
90.0
 51
180.0
  0
LINE
  8
APS_GEOMETRY
 10
5889.607
 11
6047.607
 20
3210.142
 21
3210.142
  0
ARC
  8
APS_GEOMETRY
 10
6047.607
 20
3203.142
 40
7.0
 50
360.0
 51
90.0
  0
LINE
  8
APS_GEOMETRY
 10
6054.607
 11
6054.607
 20
3203.142
 21
2857.142
  0
ARC
  8
APS_GEOMETRY
 10
6047.607
 20
2857.142
 40
7.0
 50
270.0
 51
360.0
  0
LINE
  8
APS_GEOMETRY
 10
6054.607
 11
6054.607
 20
3331.142
 21
4828.142
  0
ARC
  8
APS_GEOMETRY
 10
6047.607
 20
4828.142
 40
7.0
 50
0.0
 51
90.0
  0
LINE
  8
APS_GEOMETRY
 10
6047.607
 11
5889.607
 20
4835.142
 21
4835.142
  0
ARC
  8
APS_GEOMETRY
 10
5889.607
 20
4828.142
 40
7.0
 50
90.0
 51
180.0
  0
LINE
  8
APS_GEOMETRY
 10
5882.607
 11
5882.607
 20
4828.142
 21
3331.142
  0
ARC
  8
APS_GEOMETRY
 10
5889.607
 20
3331.142
 40
7.0
 50
180.0
 51
270.0
  0
LINE
  8
APS_GEOMETRY
 10
5889.607
 11
6047.607
 20
3324.142
 21
3324.142
  0
ARC
  8
APS_GEOMETRY
 10
6047.607
 20
3331.142
 40
7.0
 50
270.0
 51
0.0
  0
LINE
  8
APS_GEOMETRY
 10
5640.607
 11
5146.607
 20
3210.142
 21
3210.142
  0
ARC
  8
APS_GEOMETRY
 10
5146.607
 20
3203.142
 40
7.0
 50
90.0
 51
180.0
  0
LINE
  8
APS_GEOMETRY
 10
5139.607
 11
5139.607
 20
3203.142
 21
2857.142
  0
ARC
  8
APS_GEOMETRY
 10
5146.607
 20
2857.142
 40
7.0
 50
180.0
 51
270.0
  0
LINE
  8
APS_GEOMETRY
 10
5146.607
 11
5640.607
 20
2850.142
 21
2850.142
  0
ARC
  8
APS_GEOMETRY
 10
5640.607
 20
2857.142
 40
7.0
 50
270.0
 51
0.0
  0
LINE
  8
APS_GEOMETRY
 10
5647.607
 11
5647.607
 20
2857.142
 21
3203.142
  0
ARC
  8
APS_GEOMETRY
 10
5640.607
 20
3203.142
 40
7.0
 50
0.0
 51
90.0
  0
LINE
  8
APS_GEOMETRY
 10
4396.607
 11
4396.607
 20
2857.142
 21
3203.142
  0
ARC
  8
APS_GEOMETRY
 10
4403.607
 20
3203.142
 40
7.0
 50
90.0
 51
180.0
  0
LINE
  8
APS_GEOMETRY
 10
4403.607
 11
4897.607
 20
3210.142
 21
3210.142
  0
ARC
  8
APS_GEOMETRY
 10
4897.607
 20
3203.142
 40
7.0
 50
360.0
 51
90.0
  0
LINE
  8
APS_GEOMETRY
 10
4904.607
 11
4904.607
 20
3203.142
 21
2857.142
  0
ARC
  8
APS_GEOMETRY
 10
4897.607
 20
2857.142
 40
7.0
 50
270.0
 51
360.0
  0
LINE
  8
APS_GEOMETRY
 10
4897.607
 11
4403.607
 20
2850.142
 21
2850.142
  0
ARC
  8
APS_GEOMETRY
 10
4403.607
 20
2857.142
 40
7.0
 50
180.0
 51
270.0
  0
LINE
  8
APS_GEOMETRY
 10
4171.507
 11
3979.707
 20
3297.492
 21
3297.492
  0
ARC
  8
APS_GEOMETRY
 10
3979.707
 20
3314.242
 40
16.75
 50
180.0
 51
270.0
  0
LINE
  8
APS_GEOMETRY
 10
3962.957
 11
3962.957
 20
3314.242
 21
4845.042
  0
ARC
  8
APS_GEOMETRY
 10
3979.707
 20
4845.042
 40
16.75
 50
90.0
 51
180.0
  0
LINE
  8
APS_GEOMETRY
 10
3979.707
 11
4171.507
 20
4861.792
 21
4861.792
  0
ARC
  8
APS_GEOMETRY
 10
4171.507
 20
4845.042
 40
16.75
 50
360.0
 51
90.0
  0
LINE
  8
APS_GEOMETRY
 10
4188.257
 11
4188.257
 20
4845.042
 21
3314.242
  0
ARC
  8
APS_GEOMETRY
 10
4171.507
 20
3314.242
 40
16.75
 50
270.0
 51
360.0
  0
LINE
  8
APS_GEOMETRY
 10
4188.257
 11
4188.257
 20
2840.242
 21
3220.042
  0
ARC
  8
APS_GEOMETRY
 10
4171.507
 20
3220.042
 40
16.75
 50
0.0
 51
90.0
  0
LINE
  8
APS_GEOMETRY
 10
4171.507
 11
3979.707
 20
3236.792
 21
3236.792
  0
ARC
  8
APS_GEOMETRY
 10
3979.707
 20
3220.042
 40
16.75
 50
90.0
 51
180.0
  0
LINE
  8
APS_GEOMETRY
 10
3962.957
 11
3962.957
 20
3220.042
 21
2840.242
  0
ARC
  8
APS_GEOMETRY
 10
3979.707
 20
2840.242
 40
16.75
 50
180.0
 51
270.0
  0
LINE
  8
APS_GEOMETRY
 10
3979.707
 11
4171.507
 20
2823.492
 21
2823.492
  0
ARC
  8
APS_GEOMETRY
 10
4171.507
 20
2840.242
 40
16.75
 50
270.0
 51
0.0
  0
LINE
  8
APS_GEOMETRY
 10
4931.257
 11
4931.257
 20
2840.242
 21
3220.042
  0
ARC
  8
APS_GEOMETRY
 10
4914.507
 20
3220.042
 40
16.75
 50
0.0
 51
90.0
  0
LINE
  8
APS_GEOMETRY
 10
4914.507
 11
4386.707
 20
3236.792
 21
3236.792
  0
ARC
  8
APS_GEOMETRY
 10
4386.707
 20
3220.042
 40
16.75
 50
90.0
 51
180.0
  0
LINE
  8
APS_GEOMETRY
 10
4369.957
 11
4369.957
 20
3220.042
 21
2840.242
  0
ARC
  8
APS_GEOMETRY
 10
4386.707
 20
2840.242
 40
16.75
 50
180.0
 51
270.0
  0
LINE
  8
APS_GEOMETRY
 10
4386.707
 11
4914.507
 20
2823.492
 21
2823.492
  0
ARC
  8
APS_GEOMETRY
 10
4914.507
 20
2840.242
 40
16.75
 50
270.0
 51
0.0
  0
LINE
  8
APS_GEOMETRY
 10
5657.507
 11
5129.707
 20
3297.492
 21
3297.492
  0
ARC
  8
APS_GEOMETRY
 10
5129.707
 20
3314.242
 40
16.75
 50
180.0
 51
270.0
  0
LINE
  8
APS_GEOMETRY
 10
5112.957
 11
5112.957
 20
3314.242
 21
4845.042
  0
ARC
  8
APS_GEOMETRY
 10
5129.707
 20
4845.042
 40
16.75
 50
90.0
 51
180.0
  0
LINE
  8
APS_GEOMETRY
 10
5129.707
 11
5657.507
 20
4861.792
 21
4861.792
  0
ARC
  8
APS_GEOMETRY
 10
5657.507
 20
4845.042
 40
16.75
 50
360.0
 51
90.0
  0
LINE
  8
APS_GEOMETRY
 10
5674.257
 11
5674.257
 20
4845.042
 21
3314.242
  0
ARC
  8
APS_GEOMETRY
 10
5657.507
 20
3314.242
 40
16.75
 50
270.0
 51
360.0
  0
LINE
  8
APS_GEOMETRY
 10
5129.707
 11
5657.507
 20
2823.492
 21
2823.492
  0
ARC
  8
APS_GEOMETRY
 10
5657.507
 20
2840.242
 40
16.75
 50
270.0
 51
0.0
  0
LINE
  8
APS_GEOMETRY
 10
5674.257
 11
5674.257
 20
2840.242
 21
3236.792
  0
LINE
  8
APS_GEOMETRY
 10
5674.257
 11
5129.707
 20
3236.792
 21
3236.792
  0
ARC
  8
APS_GEOMETRY
 10
5129.707
 20
3220.042
 40
16.75
 50
90.0
 51
180.0
  0
LINE
  8
APS_GEOMETRY
 10
5112.957
 11
5112.957
 20
3220.042
 21
2840.242
  0
ARC
  8
APS_GEOMETRY
 10
5129.707
 20
2840.242
 40
16.75
 50
180.0
 51
270.0
  0
LINE
  8
APS_GEOMETRY
 10
6081.257
 11
6081.257
 20
2840.242
 21
3220.042
  0
ARC
  8
APS_GEOMETRY
 10
6064.507
 20
3220.042
 40
16.75
 50
0.0
 51
90.0
  0
LINE
  8
APS_GEOMETRY
 10
6064.507
 11
5872.707
 20
3236.792
 21
3236.792
  0
ARC
  8
APS_GEOMETRY
 10
5872.707
 20
3220.042
 40
16.75
 50
90.0
 51
180.0
  0
LINE
  8
APS_GEOMETRY
 10
5855.957
 11
5855.957
 20
3220.042
 21
2840.242
  0
ARC
  8
APS_GEOMETRY
 10
5872.707
 20
2840.242
 40
16.75
 50
180.0
 51
270.0
  0
LINE
  8
APS_GEOMETRY
 10
5872.707
 11
6064.507
 20
2823.492
 21
2823.492
  0
ARC
  8
APS_GEOMETRY
 10
6064.507
 20
2840.242
 40
16.75
 50
270.0
 51
0.0
  0
LINE
  8
APS_GEOMETRY
 10
6081.257
 11
6081.257
 20
4845.042
 21
3314.242
  0
ARC
  8
APS_GEOMETRY
 10
6064.507
 20
3314.242
 40
16.75
 50
270.0
 51
360.0
  0
LINE
  8
APS_GEOMETRY
 10
6064.507
 11
5872.707
 20
3297.492
 21
3297.492
  0
ARC
  8
APS_GEOMETRY
 10
5872.707
 20
3314.242
 40
16.75
 50
180.0
 51
270.0
  0
LINE
  8
APS_GEOMETRY
 10
5855.957
 11
5855.957
 20
3314.242
 21
4845.042
  0
ARC
  8
APS_GEOMETRY
 10
5872.707
 20
4845.042
 40
16.75
 50
90.0
 51
180.0
  0
LINE
  8
APS_GEOMETRY
 10
5872.707
 11
6064.507
 20
4861.792
 21
4861.792
  0
ARC
  8
APS_GEOMETRY
 10
6064.507
 20
4845.042
 40
16.75
 50
360.0
 51
90.0
  0
LINE
  8
APS_GEOMETRY
 10
6201.107
 11
6201.107
 20
2602.142
 21
4981.142
  0
LINE
  8
APS_GEOMETRY
 10
6201.107
 11
3843.107
 20
4981.142
 21
4981.142
  0
LINE
  8
APS_GEOMETRY
 10
3843.107
 11
3843.107
 20
4981.142
 21
2602.142
  0
LINE
  8
QUOTATURA
 10
3832.107
 11
3832.107
 20
2592.142
 21
2356.898
  0
LINE
  8
QUOTATURA
 10
6212.107
 11
6212.107
 20
2592.142
 21
2356.898
  0
LINE
  8
QUOTATURA
 10
3832.107
 11
4916.177
 20
2366.898
 21
2366.898
  0
LINE
  8
QUOTATURA
 10
5128.036
 11
6212.107
 20
2366.898
 21
2366.898
  0
LINE
  8
QUOTATURA
 10
3852.107
 11
3832.107
 20
2363.564
 21
2366.898
  0
LINE
  8
QUOTATURA
 10
3832.107
 11
3852.107
 20
2366.898
 21
2370.232
  0
LINE
  8
QUOTATURA
 10
3852.107
 11
3852.107
 20
2370.232
 21
2363.564
  0
LINE
  8
QUOTATURA
 10
6192.107
 11
6212.107
 20
2370.232
 21
2366.898
  0
LINE
  8
QUOTATURA
 10
6212.107
 11
6192.107
 20
2366.898
 21
2363.564
  0
LINE
  8
QUOTATURA
 10
6192.107
 11
6192.107
 20
2363.564
 21
2370.232
  0
LINE
  8
APS_GEOMETRY
 10
6351.107
 11
6351.107
 20
2602.142
 21
5131.142
  0
LINE
  8
APS_GEOMETRY
 10
6351.107
 11
3693.107
 20
5131.142
 21
5131.142
  0
LINE
  8
APS_GEOMETRY
 10
3693.107
 11
3693.107
 20
5131.142
 21
2602.142
  0
LINE
  8
APS_GEOMETRY
 10
3843.107
 11
3693.107
 20
2850.142
 21
2850.142
  0
LINE
  8
APS_GEOMETRY
 10
6201.107
 11
6351.107
 20
2850.142
 21
2850.142
  0
LINE
  8
APS_GEOMETRY
 10
3843.107
 11
3693.107
 20
2602.142
 21
2602.142
  0
LINE
  8
APS_GEOMETRY
 10
6201.107
 11
6351.107
 20
2602.142
 21
2602.142
  0
LINE
  8
APS_GEOMETRY
 10
3843.107
 11
3693.107
 20
4981.142
 21
4981.142
  0
LINE
  8
APS_GEOMETRY
 10
3843.107
 11
3843.107
 20
4981.142
 21
5131.142
  0
LINE
  8
APS_GEOMETRY
 10
6201.107
 11
6351.107
 20
4981.142
 21
4981.142
  0
LINE
  8
APS_GEOMETRY
 10
6201.107
 11
6201.107
 20
4981.142
 21
5131.142
  0
LINE
  8
APS_GEOMETRY
 10
6331.107
 11
6331.107
 20
2850.142
 21
4981.142
  0
LINE
  8
APS_GEOMETRY
 10
6201.107
 11
3843.107
 20
5111.142
 21
5111.142
  0
LINE
  8
APS_GEOMETRY
 10
3713.107
 11
3713.107
 20
4981.142
 21
2850.142
  0
LINE
  8
APS_GEOMETRY
 10
3823.107
 11
3823.107
 20
4981.142
 21
2850.142
  0
LINE
  8
APS_GEOMETRY
 10
6201.107
 11
3843.107
 20
5001.142
 21
5001.142
  0
LINE
  8
APS_GEOMETRY
 10
6221.107
 11
6221.107
 20
2850.142
 21
4981.142
  0
LINE
  8
QUOTATURA
 10
3868.607
 11
3868.607
 20
2597.142
 21
2511.26
  0
LINE
  8
QUOTATURA
 10
4282.607
 11
4282.607
 20
2597.142
 21
2511.26
  0
LINE
  8
QUOTATURA
 10
3868.607
 11
4046.509
 20
2521.26
 21
2521.26
  0
LINE
  8
QUOTATURA
 10
4104.705
 11
4282.607
 20
2521.26
 21
2521.26
  0
LINE
  8
QUOTATURA
 10
3888.607
 11
3868.607
 20
2517.926
 21
2521.26
  0
LINE
  8
QUOTATURA
 10
3868.607
 11
3888.607
 20
2521.26
 21
2524.594
  0
LINE
  8
QUOTATURA
 10
3888.607
 11
3888.607
 20
2524.594
 21
2517.926
  0
LINE
  8
QUOTATURA
 10
4262.607
 11
4282.607
 20
2524.594
 21
2521.26
  0
LINE
  8
QUOTATURA
 10
4282.607
 11
4262.607
 20
2521.26
 21
2517.926
  0
LINE
  8
QUOTATURA
 10
4262.607
 11
4262.607
 20
2517.926
 21
2524.594
  0
LINE
  8
QUOTATURA
 10
4275.607
 11
4275.607
 20
2597.142
 21
2511.26
  0
LINE
  8
QUOTATURA
 10
5025.607
 11
5025.607
 20
2597.142
 21
2511.26
  0
LINE
  8
QUOTATURA
 10
4275.607
 11
4619.572
 20
2521.26
 21
2521.26
  0
LINE
  8
QUOTATURA
 10
4681.642
 11
5025.607
 20
2521.26
 21
2521.26
  0
LINE
  8
QUOTATURA
 10
4295.607
 11
4275.607
 20
2517.926
 21
2521.26
  0
LINE
  8
QUOTATURA
 10
4275.607
 11
4295.607
 20
2521.26
 21
2524.594
  0
LINE
  8
QUOTATURA
 10
4295.607
 11
4295.607
 20
2524.594
 21
2517.926
  0
LINE
  8
QUOTATURA
 10
5005.607
 11
5025.607
 20
2524.594
 21
2521.26
  0
LINE
  8
QUOTATURA
 10
5025.607
 11
5005.607
 20
2521.26
 21
2517.926
  0
LINE
  8
QUOTATURA
 10
5005.607
 11
5005.607
 20
2517.926
 21
2524.594
  0
LINE
  8
QUOTATURA
 10
3843.107
 11
3843.107
 20
2592.142
 21
2521.083
  0
LINE
  8
QUOTATURA
 10
3693.107
 11
3693.107
 20
2592.142
 21
2521.083
  0
LINE
  8
QUOTATURA
 10
3843.107
 11
3795.626
 20
2531.083
 21
2531.083
  0
LINE
  8
QUOTATURA
 10
3740.588
 11
3693.107
 20
2531.083
 21
2531.083
  0
LINE
  8
QUOTATURA
 10
3823.107
 11
3843.107
 20
2534.417
 21
2531.083
  0
LINE
  8
QUOTATURA
 10
3843.107
 11
3823.107
 20
2531.083
 21
2527.749
  0
LINE
  8
QUOTATURA
 10
3823.107
 11
3823.107
 20
2527.749
 21
2534.417
  0
LINE
  8
QUOTATURA
 10
3713.107
 11
3693.107
 20
2527.749
 21
2531.083
  0
LINE
  8
QUOTATURA
 10
3693.107
 11
3713.107
 20
2531.083
 21
2534.417
  0
LINE
  8
QUOTATURA
 10
3713.107
 11
3713.107
 20
2534.417
 21
2527.749
  0
LINE
  8
QUOTATURA
 10
3683.107
 11
3620.008
 20
2602.142
 21
2602.142
  0
LINE
  8
QUOTATURA
 10
3683.107
 11
3620.008
 20
2850.142
 21
2850.142
  0
LINE
  8
QUOTATURA
 10
3630.008
 11
3630.008
 20
2602.142
 21
2710.952
  0
LINE
  8
QUOTATURA
 10
3630.008
 11
3630.008
 20
2741.205
 21
2850.142
  0
LINE
  8
QUOTATURA
 10
3633.342
 11
3630.008
 20
2622.142
 21
2602.142
  0
LINE
  8
QUOTATURA
 10
3630.008
 11
3626.674
 20
2602.142
 21
2622.142
  0
LINE
  8
QUOTATURA
 10
3626.674
 11
3633.342
 20
2622.142
 21
2622.142
  0
LINE
  8
QUOTATURA
 10
3626.674
 11
3630.008
 20
2830.142
 21
2850.142
  0
LINE
  8
QUOTATURA
 10
3630.008
 11
3633.342
 20
2850.142
 21
2830.142
  0
LINE
  8
QUOTATURA
 10
3633.342
 11
3626.674
 20
2830.142
 21
2830.142
  0
LINE
  8
QUOTATURA
 10
6453.792
 11
6445.457
 20
3054.754
 21
3004.754
  0
LINE
  8
QUOTATURA
 10
6445.457
 11
6437.122
 20
3004.754
 21
3054.754
  0
LINE
  8
QUOTATURA
 10
6437.122
 11
6453.792
 20
3054.754
 21
3054.754
  0
LINE
  8
QUOTATURA
 10
6445.457
 11
6445.457
 20
3004.754
 21
3164.142
  0
LINE
  8
QUOTATURA
 10
6445.457
 11
6365.763
 20
3164.142
 21
3164.142
  0
LINE
  8
APS_GEOMETRY
 10
4904.607
 11
4904.607
 20
4828.142
 21
4498.928
  0
ARC
  8
APS_GEOMETRY
 10
4897.607
 20
4498.928
 40
7.0
 50
208.653
 51
360.0
  0
ARC
  8
APS_GEOMETRY
 10
4629.244
 20
4352.29
 40
298.813
 50
28.653
 51
85.802
  0
ARC
  8
APS_GEOMETRY
 10
4650.607
 20
4643.32
 40
7.0
 50
85.802
 51
94.198
  0
ARC
  8
APS_GEOMETRY
 10
4671.97
 20
4352.29
 40
298.813
 50
94.198
 51
151.347
  0
ARC
  8
APS_GEOMETRY
 10
4403.607
 20
4498.928
 40
7.0
 50
180.0
 51
331.347
  0
LINE
  8
APS_GEOMETRY
 10
4396.607
 11
4396.607
 20
4498.928
 21
4828.142
  0
ARC
  8
APS_GEOMETRY
 10
4403.607
 20
4828.142
 40
7.0
 50
90.0
 51
180.0
  0
LINE
  8
APS_GEOMETRY
 10
4403.607
 11
4897.607
 20
4835.142
 21
4835.142
  0
ARC
  8
APS_GEOMETRY
 10
4897.607
 20
4828.142
 40
7.0
 50
360.0
 51
90.0
  0
LINE
  8
APS_GEOMETRY
 10
4931.257
 11
4931.257
 20
4845.042
 21
3314.242
  0
ARC
  8
APS_GEOMETRY
 10
4914.507
 20
3314.242
 40
16.75
 50
270.0
 51
360.0
  0
LINE
  8
APS_GEOMETRY
 10
4914.507
 11
4386.707
 20
3297.492
 21
3297.492
  0
ARC
  8
APS_GEOMETRY
 10
4386.707
 20
3314.242
 40
16.75
 50
180.0
 51
270.0
  0
LINE
  8
APS_GEOMETRY
 10
4369.957
 11
4369.957
 20
3314.242
 21
4845.042
  0
ARC
  8
APS_GEOMETRY
 10
4386.707
 20
4845.042
 40
16.75
 50
90.0
 51
180.0
  0
LINE
  8
APS_GEOMETRY
 10
4386.707
 11
4914.507
 20
4861.792
 21
4861.792
  0
ARC
  8
APS_GEOMETRY
 10
4914.507
 20
4845.042
 40
16.75
 50
360.0
 51
90.0
  0
LINE
  8
APS_GEOMETRY
 10
4904.607
 11
4904.607
 20
4109.87
 21
3331.142
  0
ARC
  8
APS_GEOMETRY
 10
4897.607
 20
3331.142
 40
7.0
 50
270.0
 51
360.0
  0
LINE
  8
APS_GEOMETRY
 10
4897.607
 11
4403.607
 20
3324.142
 21
3324.142
  0
ARC
  8
APS_GEOMETRY
 10
4403.607
 20
3331.142
 40
7.0
 50
180.0
 51
270.0
  0
LINE
  8
APS_GEOMETRY
 10
4396.607
 11
4396.607
 20
3331.142
 21
4109.87
  0
ARC
  8
APS_GEOMETRY
 10
4403.607
 20
4109.87
 40
7.0
 50
90.0
 51
180.0
  0
LINE
  8
APS_GEOMETRY
 10
4403.607
 11
4426.039
 20
4116.87
 21
4116.87
  0
LINE
  8
APS_GEOMETRY
 10
4426.039
 11
4426.039
 20
4116.87
 21
4150.234
  0
ARC
  8
APS_GEOMETRY
 10
4433.039
 20
4150.234
 40
7.0
 50
90.0
 51
180.0
  0
LINE
  8
APS_GEOMETRY
 10
4433.039
 11
4444.961
 20
4157.234
 21
4157.234
  0
LINE
  8
APS_GEOMETRY
 10
4444.961
 11
4444.961
 20
4157.234
 21
4221.857
  0
ARC
  8
APS_GEOMETRY
 10
4671.97
 20
4352.29
 40
261.813
 50
94.809
 51
209.88
  0
ARC
  8
APS_GEOMETRY
 10
4650.607
 20
4606.206
 40
7.0
 50
85.191
 51
94.809
  0
ARC
  8
APS_GEOMETRY
 10
4629.244
 20
4352.29
 40
261.813
 50
330.12
 51
85.191
  0
LINE
  8
APS_GEOMETRY
 10
4856.253
 11
4856.253
 20
4221.857
 21
4157.234
  0
LINE
  8
APS_GEOMETRY
 10
4856.253
 11
4868.174
 20
4157.234
 21
4157.234
  0
ARC
  8
APS_GEOMETRY
 10
4868.174
 20
4150.234
 40
7.0
 50
360.0
 51
90.0
  0
LINE
  8
APS_GEOMETRY
 10
4875.174
 11
4875.174
 20
4150.234
 21
4116.87
  0
LINE
  8
APS_GEOMETRY
 10
4875.174
 11
4897.607
 20
4116.87
 21
4116.87
  0
ARC
  8
APS_GEOMETRY
 10
4897.607
 20
4109.87
 40
7.0
 50
360.0
 51
90.0
  0
LINE
  8
APS_GEOMETRY
 10
5647.607
 11
5647.607
 20
4828.142
 21
4498.928
  0
ARC
  8
APS_GEOMETRY
 10
5640.607
 20
4498.928
 40
7.0
 50
208.653
 51
360.0
  0
ARC
  8
APS_GEOMETRY
 10
5372.244
 20
4352.29
 40
298.813
 50
28.653
 51
85.802
  0
ARC
  8
APS_GEOMETRY
 10
5393.607
 20
4643.32
 40
7.0
 50
85.802
 51
94.198
  0
ARC
  8
APS_GEOMETRY
 10
5414.97
 20
4352.29
 40
298.813
 50
94.198
 51
151.347
  0
ARC
  8
APS_GEOMETRY
 10
5146.607
 20
4498.928
 40
7.0
 50
180.0
 51
331.347
  0
LINE
  8
APS_GEOMETRY
 10
5139.607
 11
5139.607
 20
4498.928
 21
4828.142
  0
ARC
  8
APS_GEOMETRY
 10
5146.607
 20
4828.142
 40
7.0
 50
90.0
 51
180.0
  0
LINE
  8
APS_GEOMETRY
 10
5146.607
 11
5640.607
 20
4835.142
 21
4835.142
  0
ARC
  8
APS_GEOMETRY
 10
5640.607
 20
4828.142
 40
7.0
 50
360.0
 51
90.0
  0
LINE
  8
APS_GEOMETRY
 10
5647.607
 11
5647.607
 20
4109.87
 21
3331.142
  0
ARC
  8
APS_GEOMETRY
 10
5640.607
 20
3331.142
 40
7.0
 50
270.0
 51
360.0
  0
LINE
  8
APS_GEOMETRY
 10
5640.607
 11
5146.607
 20
3324.142
 21
3324.142
  0
ARC
  8
APS_GEOMETRY
 10
5146.607
 20
3331.142
 40
7.0
 50
180.0
 51
270.0
  0
LINE
  8
APS_GEOMETRY
 10
5139.607
 11
5139.607
 20
3331.142
 21
4109.87
  0
ARC
  8
APS_GEOMETRY
 10
5146.607
 20
4109.87
 40
7.0
 50
90.0
 51
180.0
  0
LINE
  8
APS_GEOMETRY
 10
5146.607
 11
5169.039
 20
4116.87
 21
4116.87
  0
LINE
  8
APS_GEOMETRY
 10
5169.039
 11
5169.039
 20
4116.87
 21
4150.234
  0
ARC
  8
APS_GEOMETRY
 10
5176.039
 20
4150.234
 40
7.0
 50
90.0
 51
180.0
  0
LINE
  8
APS_GEOMETRY
 10
5176.039
 11
5187.961
 20
4157.234
 21
4157.234
  0
LINE
  8
APS_GEOMETRY
 10
5187.961
 11
5187.961
 20
4157.234
 21
4221.857
  0
ARC
  8
APS_GEOMETRY
 10
5414.97
 20
4352.29
 40
261.813
 50
94.809
 51
209.88
  0
ARC
  8
APS_GEOMETRY
 10
5393.607
 20
4606.206
 40
7.0
 50
85.191
 51
94.809
  0
ARC
  8
APS_GEOMETRY
 10
5372.244
 20
4352.29
 40
261.813
 50
330.12
 51
85.191
  0
LINE
  8
APS_GEOMETRY
 10
5599.253
 11
5599.253
 20
4221.857
 21
4157.234
  0
LINE
  8
APS_GEOMETRY
 10
5599.253
 11
5611.174
 20
4157.234
 21
4157.234
  0
ARC
  8
APS_GEOMETRY
 10
5611.174
 20
4150.234
 40
7.0
 50
360.0
 51
90.0
  0
LINE
  8
APS_GEOMETRY
 10
5618.174
 11
5618.174
 20
4150.234
 21
4116.87
  0
LINE
  8
APS_GEOMETRY
 10
5618.174
 11
5640.607
 20
4116.87
 21
4116.87
  0
ARC
  8
APS_GEOMETRY
 10
5640.607
 20
4109.87
 40
7.0
 50
360.0
 51
90.0
  0
LINE
  8
QUOTATURA
 10
6190.607
 11
6537.019
 20
4956.142
 21
4956.142
  0
LINE
  8
QUOTATURA
 10
6190.607
 11
6537.019
 20
2607.142
 21
2607.142
  0
LINE
  8
QUOTATURA
 10
6522.019
 11
6522.019
 20
4956.142
 21
4290.756
  0
LINE
  8
QUOTATURA
 10
6522.019
 11
6522.019
 20
4245.179
 21
2607.142
  0
LINE
  8
QUOTATURA
 10
6517.018
 11
6522.019
 20
4926.142
 21
4956.142
  0
LINE
  8
QUOTATURA
 10
6522.019
 11
6527.02
 20
4956.142
 21
4926.142
  0
LINE
  8
QUOTATURA
 10
6527.02
 11
6517.018
 20
4926.142
 21
4926.142
  0
LINE
  8
QUOTATURA
 10
6527.02
 11
6522.019
 20
2637.142
 21
2607.142
  0
LINE
  8
QUOTATURA
 10
6522.019
 11
6517.018
 20
2607.142
 21
2637.142
  0
LINE
  8
QUOTATURA
 10
6517.018
 11
6527.02
 20
2637.142
 21
2637.142
  0
LINE
  8
QUOTATURA
 10
6079.507
 11
6593.226
 20
3267.142
 21
3267.142
  0
LINE
  8
QUOTATURA
 10
6190.607
 11
6593.226
 20
2607.142
 21
2607.142
  0
LINE
  8
QUOTATURA
 10
6578.226
 11
6578.226
 20
3267.142
 21
3043.558
  0
LINE
  8
QUOTATURA
 10
6578.226
 11
6578.226
 20
2998.147
 21
2607.142
  0
LINE
  8
QUOTATURA
 10
6573.225
 11
6578.226
 20
3237.142
 21
3267.142
  0
LINE
  8
QUOTATURA
 10
6578.226
 11
6583.227
 20
3267.142
 21
3237.142
  0
LINE
  8
QUOTATURA
 10
6583.227
 11
6573.225
 20
3237.142
 21
3237.142
  0
LINE
  8
QUOTATURA
 10
6583.227
 11
6578.226
 20
2637.142
 21
2607.142
  0
LINE
  8
QUOTATURA
 10
6578.226
 11
6573.225
 20
2607.142
 21
2637.142
  0
LINE
  8
QUOTATURA
 10
6573.225
 11
6583.227
 20
2637.142
 21
2637.142
  0
LINE
  8
QUOTATURA
 10
6064.507
 11
6064.507
 20
3262.141
 21
3272.143
  0
LINE
  8
QUOTATURA
 10
6059.506
 11
6069.508
 20
3267.142
 21
3267.142
  0
LINE
  8
VANO_VETRO+CORNICE
 10
1472.5
 11
2237.9
 20
104.0
 21
104.0
 30
0.0
 31
0.0
  0
ARC
  8
VANO_VETRO+CORNICE
 10
2237.9
 20
111.1
 30
0.0
 40
7.1
 50
270.0
 51
360.0
210
0.0
220
0.0
230
1.0
  0
LINE
  8
VANO_VETRO+CORNICE
 10
2245.0
 11
2245.0
 20
111.1
 21
302.9
 30
0.0
 31
0.0
  0
ARC
  8
VANO_VETRO+CORNICE
 10
2237.9
 20
302.9
 30
0.0
 40
7.1
 50
0.0
 51
90.0
210
0.0
220
0.0
230
1.0
  0
LINE
  8
VANO_VETRO+CORNICE
 10
2237.9
 11
707.1
 20
310.0
 21
310.0
 30
0.0
 31
0.0
  0
ARC
  8
VANO_VETRO+CORNICE
 10
707.1
 20
302.9
 30
0.0
 40
7.1
 50
90.0
 51
180.0
210
0.0
220
0.0
230
1.0
  0
LINE
  8
VANO_VETRO+CORNICE
 10
700.0
 11
700.0
 20
302.9
 21
111.1
 30
0.0
 31
0.0
  0
ARC
  8
VANO_VETRO+CORNICE
 10
707.1
 20
111.1
 30
0.0
 40
7.1
 50
180.0
 51
270.0
210
0.0
220
0.0
230
1.0
  0
LINE
  8
VANO_VETRO+CORNICE
 10
707.1
 11
1472.5
 20
104.0
 21
104.0
 30
0.0
 31
0.0
  0
LINE
  8
VANO_VETRO+CORNICE
 10
423.0
 11
612.9
 20
104.0
 21
104.0
 30
0.0
 31
0.0
  0
ARC
  8
VANO_VETRO+CORNICE
 10
612.9
 20
111.1
 30
0.0
 40
7.1
 50
270.0
 51
360.0
210
0.0
220
0.0
230
1.0
  0
LINE
  8
VANO_VETRO+CORNICE
 10
620.0
 11
620.0
 20
111.1
 21
302.9
 30
0.0
 31
0.0
  0
ARC
  8
VANO_VETRO+CORNICE
 10
612.9
 20
302.9
 30
0.0
 40
7.1
 50
0.0
 51
90.0
210
0.0
220
0.0
230
1.0
  0
LINE
  8
VANO_VETRO+CORNICE
 10
612.9
 11
233.1
 20
310.0
 21
310.0
 30
0.0
 31
0.0
  0
ARC
  8
VANO_VETRO+CORNICE
 10
233.1
 20
302.9
 30
0.0
 40
7.1
 50
90.0
 51
180.0
210
0.0
220
0.0
230
1.0
  0
LINE
  8
VANO_VETRO+CORNICE
 10
226.0
 11
226.0
 20
302.9
 21
111.1
 30
0.0
 31
0.0
  0
ARC
  8
VANO_VETRO+CORNICE
 10
233.1
 20
111.1
 30
0.0
 40
7.1
 50
180.0
 51
270.0
210
0.0
220
0.0
230
1.0
  0
LINE
  8
VANO_VETRO+CORNICE
 10
233.1
 11
423.0
 20
104.0
 21
104.0
 30
0.0
 31
0.0
  0
LINE
  8
QUOTATURA
 10
436.505
 11
436.505
 20
104.0
 21
191.756
 30
0.0
 31
0.0
  0
LINE
  8
QUOTATURA
 10
436.505
 11
436.505
 20
222.063
 21
310.0
 30
0.0
 31
0.0
  0
LINE
  8
QUOTATURA
 10
439.839
 11
436.505
 20
124.0
 21
104.0
 30
0.0
 31
0.0
  0
LINE
  8
QUOTATURA
 10
436.505
 11
433.171
 20
104.0
 21
124.0
 30
0.0
 31
0.0
  0
LINE
  8
QUOTATURA
 10
433.171
 11
439.839
 20
124.0
 21
124.0
 30
0.0
 31
0.0
  0
LINE
  8
QUOTATURA
 10
433.171
 11
436.505
 20
290.0
 21
310.0
 30
0.0
 31
0.0
  0
LINE
  8
QUOTATURA
 10
436.505
 11
439.839
 20
310.0
 21
290.0
 30
0.0
 31
0.0
  0
LINE
  8
QUOTATURA
 10
439.839
 11
433.171
 20
290.0
 21
290.0
 30
0.0
 31
0.0
  0
LINE
  8
QUOTATURA
 10
1464.601
 11
1464.601
 20
104.0
 21
191.756
 30
0.0
 31
0.0
  0
LINE
  8
QUOTATURA
 10
1464.601
 11
1464.601
 20
222.063
 21
310.0
 30
0.0
 31
0.0
  0
LINE
  8
QUOTATURA
 10
1467.935
 11
1464.601
 20
124.0
 21
104.0
 30
0.0
 31
0.0
  0
LINE
  8
QUOTATURA
 10
1464.601
 11
1461.267
 20
104.0
 21
124.0
 30
0.0
 31
0.0
  0
LINE
  8
QUOTATURA
 10
1461.267
 11
1467.935
 20
124.0
 21
124.0
 30
0.0
 31
0.0
  0
LINE
  8
QUOTATURA
 10
1461.267
 11
1464.601
 20
290.0
 21
310.0
 30
0.0
 31
0.0
  0
LINE
  8
QUOTATURA
 10
1464.601
 11
1467.935
 20
310.0
 21
290.0
 30
0.0
 31
0.0
  0
LINE
  8
QUOTATURA
 10
1467.935
 11
1461.267
 20
290.0
 21
290.0
 30
0.0
 31
0.0
  0
LINE
  8
QUOTATURA
 10
226.0
 11
226.0
 20
197.0
 21
127.725
 30
0.0
 31
0.0
  0
LINE
  8
QUOTATURA
 10
620.0
 11
620.0
 20
197.0
 21
127.725
 30
0.0
 31
0.0
  0
LINE
  8
QUOTATURA
 10
226.0
 11
323.493
 20
137.725
 21
137.725
 30
0.0
 31
0.0
  0
LINE
  8
QUOTATURA
 10
386.721
 11
620.0
 20
137.725
 21
137.725
 30
0.0
 31
0.0
  0
LINE
  8
QUOTATURA
 10
246.0
 11
226.0
 20
134.391
 21
137.725
 30
0.0
 31
0.0
  0
LINE
  8
QUOTATURA
 10
226.0
 11
246.0
 20
137.725
 21
141.059
 30
0.0
 31
0.0
  0
LINE
  8
QUOTATURA
 10
246.0
 11
246.0
 20
141.059
 21
134.391
 30
0.0
 31
0.0
  0
LINE
  8
QUOTATURA
 10
600.0
 11
620.0
 20
141.059
 21
137.725
 30
0.0
 31
0.0
  0
LINE
  8
QUOTATURA
 10
620.0
 11
600.0
 20
137.725
 21
134.391
 30
0.0
 31
0.0
  0
LINE
  8
QUOTATURA
 10
600.0
 11
600.0
 20
134.391
 21
141.059
 30
0.0
 31
0.0
  0
LINE
  8
QUOTATURA
 10
700.0
 11
700.0
 20
197.0
 21
133.544
 30
0.0
 31
0.0
  0
LINE
  8
QUOTATURA
 10
2245.0
 11
2245.0
 20
197.0
 21
133.544
 30
0.0
 31
0.0
  0
LINE
  8
QUOTATURA
 10
700.0
 11
981.228
 20
143.544
 21
143.544
 30
0.0
 31
0.0
  0
LINE
  8
QUOTATURA
 10
1055.723
 11
2245.0
 20
143.544
 21
143.544
 30
0.0
 31
0.0
  0
LINE
  8
QUOTATURA
 10
720.0
 11
700.0
 20
140.21
 21
143.544
 30
0.0
 31
0.0
  0
LINE
  8
QUOTATURA
 10
700.0
 11
720.0
 20
143.544
 21
146.878
 30
0.0
 31
0.0
  0
LINE
  8
QUOTATURA
 10
720.0
 11
720.0
 20
146.878
 21
140.21
 30
0.0
 31
0.0
  0
LINE
  8
QUOTATURA
 10
2225.0
 11
2245.0
 20
146.878
 21
143.544
 30
0.0
 31
0.0
  0
LINE
  8
QUOTATURA
 10
2245.0
 11
2225.0
 20
143.544
 21
140.21
 30
0.0
 31
0.0
  0
LINE
  8
QUOTATURA
 10
2225.0
 11
2225.0
 20
140.21
 21
146.878
 30
0.0
 31
0.0
  0
LINE
  8
QUOTATURA
 10
2349.0
 11
2349.0
 20
-10.0
 21
-71.15
 30
0.0
 31
0.0
  0
LINE
  8
QUOTATURA
 10
0.0
 11
1134.219
 20
-61.15
 21
-61.15
 30
0.0
 31
0.0
  0
LINE
  8
QUOTATURA
 10
1214.781
 11
2349.0
 20
-61.15
 21
-61.15
 30
0.0
 31
0.0
  0
LINE
  8
QUOTATURA
 10
20.0
 11
0.0
 20
-64.484
 21
-61.15
 30
0.0
 31
0.0
  0
LINE
  8
QUOTATURA
 10
0.0
 11
20.0
 20
-61.15
 21
-57.816
 30
0.0
 31
0.0
  0
LINE
  8
QUOTATURA
 10
20.0
 11
20.0
 20
-57.816
 21
-64.484
 30
0.0
 31
0.0
  0
LINE
  8
QUOTATURA
 10
2329.0
 11
2349.0
 20
-57.816
 21
-61.15
 30
0.0
 31
0.0
  0
LINE
  8
QUOTATURA
 10
2349.0
 11
2329.0
 20
-61.15
 21
-64.484
 30
0.0
 31
0.0
  0
LINE
  8
QUOTATURA
 10
2329.0
 11
2329.0
 20
-64.484
 21
-57.816
 30
0.0
 31
0.0
  0
LINE
  8
QUOTATURA
 10
-10.0
 11
-133.062
 20
0.0
 21
0.0
 30
0.0
 31
0.0
  0
LINE
  8
QUOTATURA
 10
-10.0
 11
-133.062
 20
414.0
 21
414.0
 30
0.0
 31
0.0
  0
LINE
  8
QUOTATURA
 10
-123.062
 11
-123.062
 20
0.0
 21
192.0
 30
0.0
 31
0.0
  0
LINE
  8
QUOTATURA
 10
-123.062
 11
-123.062
 20
222.007
 21
414.0
 30
0.0
 31
0.0
  0
LINE
  8
QUOTATURA
 10
-119.728
 11
-123.062
 20
20.0
 21
0.0
 30
0.0
 31
0.0
  0
LINE
  8
QUOTATURA
 10
-123.062
 11
-126.396
 20
0.0
 21
20.0
 30
0.0
 31
0.0
  0
LINE
  8
QUOTATURA
 10
-126.396
 11
-119.728
 20
20.0
 21
20.0
 30
0.0
 31
0.0
  0
LINE
  8
QUOTATURA
 10
-126.396
 11
-123.062
 20
394.0
 21
414.0
 30
0.0
 31
0.0
  0
LINE
  8
QUOTATURA
 10
-123.062
 11
-119.728
 20
414.0
 21
394.0
 30
0.0
 31
0.0
  0
LINE
  8
QUOTATURA
 10
-119.728
 11
-126.396
 20
394.0
 21
394.0
 30
0.0
 31
0.0
  0
CIRCLE
  8
COSTRUZIONI
 10
660.0
 20
302.9
 30
0.0
 40
40.0
210
0.0
220
0.0
230
1.0
  0
LINE
  8
COSTRUZIONI
 10
-5.0
 11
-5.0
 20
414.0
 21
0.0
 30
0.0
 31
0.0
  0
LINE
  8
COSTRUZIONI
 10
2354.0
 11
2354.0
 20
0.0
 21
414.0
 30
0.0
 31
0.0
  0
LINE
  8
COSTRUZIONI
 10
2349.0
 11
0.0
 20
417.0
 21
417.0
 30
0.0
 31
0.0
  0
LINE
  8
COSTRUZIONI
 10
2349.0
 11
0.0
 20
-3.0
 21
-3.0
 30
0.0
 31
0.0
  0
LINE
  8
QUOTATURA
 10
-5.0
 11
-5.0
 20
-10.0
 21
-149.943
 30
0.0
 31
0.0
  0
LINE
  8
QUOTATURA
 10
2354.0
 11
2354.0
 20
-10.0
 21
-149.943
 30
0.0
 31
0.0
  0
LINE
  8
QUOTATURA
 10
-5.0
 11
1074.716
 20
-139.943
 21
-139.943
 30
0.0
 31
0.0
  0
LINE
  8
QUOTATURA
 10
1274.284
 11
2354.0
 20
-139.943
 21
-139.943
 30
0.0
 31
0.0
  0
LINE
  8
QUOTATURA
 10
15.0
 11
-5.0
 20
-143.277
 21
-139.943
 30
0.0
 31
0.0
  0
LINE
  8
QUOTATURA
 10
-5.0
 11
15.0
 20
-139.943
 21
-136.609
 30
0.0
 31
0.0
  0
LINE
  8
QUOTATURA
 10
15.0
 11
15.0
 20
-136.609
 21
-143.277
 30
0.0
 31
0.0
  0
LINE
  8
QUOTATURA
 10
2334.0
 11
2354.0
 20
-136.609
 21
-139.943
 30
0.0
 31
0.0
  0
LINE
  8
QUOTATURA
 10
2354.0
 11
2334.0
 20
-139.943
 21
-143.277
 30
0.0
 31
0.0
  0
LINE
  8
QUOTATURA
 10
2334.0
 11
2334.0
 20
-143.277
 21
-136.609
 30
0.0
 31
0.0
  0
LINE
  8
QUOTATURA
 10
-10.0
 11
-282.216
 20
417.0
 21
417.0
 30
0.0
 31
0.0
  0
LINE
  8
QUOTATURA
 10
-10.0
 11
-282.216
 20
-3.0
 21
-3.0
 30
0.0
 31
0.0
  0
LINE
  8
QUOTATURA
 10
-272.216
 11
-272.216
 20
417.0
 21
222.354
 30
0.0
 31
0.0
  0
LINE
  8
QUOTATURA
 10
-272.216
 11
-272.216
 20
191.756
 21
-3.0
 30
0.0
 31
0.0
  0
LINE
  8
QUOTATURA
 10
-275.55
 11
-272.216
 20
397.0
 21
417.0
 30
0.0
 31
0.0
  0
LINE
  8
QUOTATURA
 10
-272.216
 11
-268.882
 20
417.0
 21
397.0
 30
0.0
 31
0.0
  0
LINE
  8
QUOTATURA
 10
-268.882
 11
-275.55
 20
397.0
 21
397.0
 30
0.0
 31
0.0
  0
LINE
  8
QUOTATURA
 10
-268.882
 11
-272.216
 20
17.0
 21
-3.0
 30
0.0
 31
0.0
  0
LINE
  8
QUOTATURA
 10
-272.216
 11
-275.55
 20
-3.0
 21
17.0
 30
0.0
 31
0.0
  0
LINE
  8
QUOTATURA
 10
-275.55
 11
-268.882
 20
17.0
 21
17.0
 30
0.0
 31
0.0
  0
LINE
  8
QUOTATURA
 10
-5.0
 11
-5.0
 20
424.0
 21
630.379
 30
0.0
 31
0.0
  0
LINE
  8
QUOTATURA
 10
660.0
 11
660.0
 20
312.9
 21
630.379
 30
0.0
 31
0.0
  0
LINE
  8
QUOTATURA
 10
-5.0
 11
236.51
 20
620.379
 21
620.379
 30
0.0
 31
0.0
  0
LINE
  8
QUOTATURA
 10
418.49
 11
660.0
 20
620.379
 21
620.379
 30
0.0
 31
0.0
  0
LINE
  8
QUOTATURA
 10
15.0
 11
-5.0
 20
617.045
 21
620.379
 30
0.0
 31
0.0
  0
LINE
  8
QUOTATURA
 10
-5.0
 11
15.0
 20
620.379
 21
623.713
 30
0.0
 31
0.0
  0
LINE
  8
QUOTATURA
 10
15.0
 11
15.0
 20
623.713
 21
617.045
 30
0.0
 31
0.0
  0
LINE
  8
QUOTATURA
 10
640.0
 11
660.0
 20
623.713
 21
620.379
 30
0.0
 31
0.0
  0
LINE
  8
QUOTATURA
 10
660.0
 11
640.0
 20
620.379
 21
617.045
 30
0.0
 31
0.0
  0
LINE
  8
QUOTATURA
 10
640.0
 11
640.0
 20
617.045
 21
623.713
 30
0.0
 31
0.0
  0
LINE
  8
QUOTATURA
 10
660.0
 11
660.0
 20
299.566
 21
306.234
 30
0.0
 31
0.0
  0
LINE
  8
QUOTATURA
 10
656.666
 11
663.334
 20
302.9
 21
302.9
 30
0.0
 31
0.0
  0
LINE
  8
COSTRUZIONI
 10
231.0
 11
231.0
 20
302.9
 21
111.1
 30
0.0
 31
0.0
  0
LINE
  8
COSTRUZIONI
 10
615.0
 11
615.0
 20
111.1
 21
302.9
 30
0.0
 31
0.0
  0
LINE
  8
COSTRUZIONI
 10
705.0
 11
705.0
 20
111.1
 21
302.9
 30
0.0
 31
0.0
  0
LINE
  8
COSTRUZIONI
 10
2240.0
 11
2240.0
 20
302.9
 21
111.1
 30
0.0
 31
0.0
  0
LINE
  8
COSTRUZIONI
 10
707.1
 11
2237.9
 20
303.0
 21
303.0
 30
0.0
 31
0.0
  0
LINE
  8
COSTRUZIONI
 10
2237.9
 11
707.1
 20
111.0
 21
111.0
 30
0.0
 31
0.0
  0
LINE
  8
COSTRUZIONI
 10
233.1
 11
612.9
 20
111.0
 21
111.0
 30
0.0
 31
0.0
  0
LINE
  8
COSTRUZIONI
 10
612.9
 11
233.1
 20
303.0
 21
303.0
 30
0.0
 31
0.0
  0
LINE
  8
QUOTATURA
 10
-5.0
 11
-5.0
 20
10.0
 21
61.728
 30
0.0
 31
0.0
  0
LINE
  8
QUOTATURA
 10
231.0
 11
231.0
 20
101.1
 21
41.728
 30
0.0
 31
0.0
  0
LINE
  8
QUOTATURA
 10
-5.0
 11
22.368
 20
51.728
 21
51.728
 30
0.0
 31
0.0
  0
LINE
  8
QUOTATURA
 10
203.632
 11
231.0
 20
51.728
 21
51.728
 30
0.0
 31
0.0
  0
LINE
  8
QUOTATURA
 10
15.0
 11
-5.0
 20
48.394
 21
51.728
 30
0.0
 31
0.0
  0
LINE
  8
QUOTATURA
 10
-5.0
 11
15.0
 20
51.728
 21
55.062
 30
0.0
 31
0.0
  0
LINE
  8
QUOTATURA
 10
15.0
 11
15.0
 20
55.062
 21
48.394
 30
0.0
 31
0.0
  0
LINE
  8
QUOTATURA
 10
211.0
 11
231.0
 20
55.062
 21
51.728
 30
0.0
 31
0.0
  0
LINE
  8
QUOTATURA
 10
231.0
 11
211.0
 20
51.728
 21
48.394
 30
0.0
 31
0.0
  0
LINE
  8
QUOTATURA
 10
211.0
 11
211.0
 20
48.394
 21
55.062
 30
0.0
 31
0.0
  0
LINE
  8
QUOTATURA
 10
615.0
 11
615.0
 20
101.1
 21
17.639
 30
0.0
 31
0.0
  0
LINE
  8
QUOTATURA
 10
705.0
 11
705.0
 20
101.1
 21
17.639
 30
0.0
 31
0.0
  0
LINE
  8
QUOTATURA
 10
615.0
 11
760.331
 20
27.639
 21
27.639
 30
0.0
 31
0.0
  0
LINE
  8
QUOTATURA
 10
635.0
 11
615.0
 20
24.305
 21
27.639
 30
0.0
 31
0.0
  0
LINE
  8
QUOTATURA
 10
615.0
 11
635.0
 20
27.639
 21
30.973
 30
0.0
 31
0.0
  0
LINE
  8
QUOTATURA
 10
635.0
 11
635.0
 20
30.973
 21
24.305
 30
0.0
 31
0.0
  0
LINE
  8
QUOTATURA
 10
685.0
 11
705.0
 20
30.973
 21
27.639
 30
0.0
 31
0.0
  0
LINE
  8
QUOTATURA
 10
705.0
 11
685.0
 20
27.639
 21
24.305
 30
0.0
 31
0.0
  0
LINE
  8
QUOTATURA
 10
685.0
 11
685.0
 20
24.305
 21
30.973
 30
0.0
 31
0.0
  0
LINE
  8
QUOTATURA
 10
2240.0
 11
2240.0
 20
101.1
 21
42.275
 30
0.0
 31
0.0
  0
LINE
  8
QUOTATURA
 10
2354.0
 11
2354.0
 20
10.0
 21
62.275
 30
0.0
 31
0.0
  0
LINE
  8
QUOTATURA
 10
2354.0
 11
2145.927
 20
52.275
 21
52.275
 30
0.0
 31
0.0
  0
LINE
  8
QUOTATURA
 10
2260.0
 11
2240.0
 20
48.941
 21
52.275
 30
0.0
 31
0.0
  0
LINE
  8
QUOTATURA
 10
2240.0
 11
2260.0
 20
52.275
 21
55.609
 30
0.0
 31
0.0
  0
LINE
  8
QUOTATURA
 10
2260.0
 11
2260.0
 20
55.609
 21
48.941
 30
0.0
 31
0.0
  0
LINE
  8
QUOTATURA
 10
2334.0
 11
2354.0
 20
55.609
 21
52.275
 30
0.0
 31
0.0
  0
LINE
  8
QUOTATURA
 10
2354.0
 11
2334.0
 20
52.275
 21
48.941
 30
0.0
 31
0.0
  0
LINE
  8
QUOTATURA
 10
2334.0
 11
2334.0
 20
48.941
 21
55.609
 30
0.0
 31
0.0
  0
LINE
  8
QUOTATURA
 10
243.1
 11
326.557
 20
303.0
 21
303.0
 30
0.0
 31
0.0
  0
LINE
  8
QUOTATURA
 10
10.0
 11
326.557
 20
417.0
 21
417.0
 30
0.0
 31
0.0
  0
LINE
  8
QUOTATURA
 10
316.557
 11
316.557
 20
303.0
 21
344.903
 30
0.0
 31
0.0
  0
LINE
  8
QUOTATURA
 10
316.557
 11
316.557
 20
375.354
 21
417.0
 30
0.0
 31
0.0
  0
LINE
  8
QUOTATURA
 10
319.891
 11
316.557
 20
323.0
 21
303.0
 30
0.0
 31
0.0
  0
LINE
  8
QUOTATURA
 10
316.557
 11
313.223
 20
303.0
 21
323.0
 30
0.0
 31
0.0
  0
LINE
  8
QUOTATURA
 10
313.223
 11
319.891
 20
323.0
 21
323.0
 30
0.0
 31
0.0
  0
LINE
  8
QUOTATURA
 10
313.223
 11
316.557
 20
397.0
 21
417.0
 30
0.0
 31
0.0
  0
LINE
  8
QUOTATURA
 10
316.557
 11
319.891
 20
417.0
 21
397.0
 30
0.0
 31
0.0
  0
LINE
  8
QUOTATURA
 10
319.891
 11
313.223
 20
397.0
 21
397.0
 30
0.0
 31
0.0
  0
LINE
  8
QUOTATURA
 10
0.0
 11
0.0
 20
10.0
 21
215.592
  0
LINE
  8
QUOTATURA
 10
226.0
 11
226.0
 20
121.1
 21
215.592
  0
LINE
  8
QUOTATURA
 10
0.0
 11
83.503
 20
205.592
 21
205.592
  0
LINE
  8
QUOTATURA
 10
142.497
 11
226.0
 20
205.592
 21
205.592
  0
LINE
  8
QUOTATURA
 10
20.0
 11
0.0
 20
202.258
 21
205.592
  0
LINE
  8
QUOTATURA
 10
0.0
 11
20.0
 20
205.592
 21
208.926
  0
LINE
  8
QUOTATURA
 10
20.0
 11
20.0
 20
208.926
 21
202.258
  0
LINE
  8
QUOTATURA
 10
206.0
 11
226.0
 20
208.926
 21
205.592
  0
LINE
  8
QUOTATURA
 10
226.0
 11
206.0
 20
205.592
 21
202.258
  0
LINE
  8
QUOTATURA
 10
206.0
 11
206.0
 20
202.258
 21
208.926
  0
LINE
  8
QUOTATURA
 10
620.0
 11
637.966
 20
138.412
 21
138.412
  0
LINE
  8
QUOTATURA
 10
682.034
 11
700.0
 20
138.412
 21
138.412
  0
LINE
  8
QUOTATURA
 10
640.0
 11
620.0
 20
135.078
 21
138.412
  0
LINE
  8
QUOTATURA
 10
620.0
 11
640.0
 20
138.412
 21
141.746
  0
LINE
  8
QUOTATURA
 10
640.0
 11
640.0
 20
141.746
 21
135.078
  0
LINE
  8
QUOTATURA
 10
680.0
 11
700.0
 20
141.746
 21
138.412
  0
LINE
  8
QUOTATURA
 10
700.0
 11
680.0
 20
138.412
 21
135.078
  0
LINE
  8
QUOTATURA
 10
680.0
 11
680.0
 20
135.078
 21
141.746
  0
LINE
  8
QUOTATURA
 10
2349.0
 11
2349.0
 20
10.0
 21
154.484
  0
LINE
  8
QUOTATURA
 10
2245.0
 11
2268.109
 20
144.484
 21
144.484
  0
LINE
  8
QUOTATURA
 10
2325.891
 11
2349.0
 20
144.484
 21
144.484
  0
LINE
  8
QUOTATURA
 10
2265.0
 11
2245.0
 20
141.15
 21
144.484
  0
LINE
  8
QUOTATURA
 10
2245.0
 11
2265.0
 20
144.484
 21
147.818
  0
LINE
  8
QUOTATURA
 10
2265.0
 11
2265.0
 20
147.818
 21
141.15
  0
LINE
  8
QUOTATURA
 10
2329.0
 11
2349.0
 20
147.818
 21
144.484
  0
LINE
  8
QUOTATURA
 10
2349.0
 11
2329.0
 20
144.484
 21
141.15
  0
LINE
  8
QUOTATURA
 10
2329.0
 11
2329.0
 20
141.15
 21
147.818
  0
LINE
  8
QUOTATURA
 10
338.05
 11
381.505
 20
104.0
 21
104.0
  0
LINE
  8
QUOTATURA
 10
10.0
 11
381.505
 20
0.0
 21
0.0
  0
LINE
  8
QUOTATURA
 10
371.505
 11
371.505
 20
104.0
 21
67.007
  0
LINE
  8
QUOTATURA
 10
371.505
 11
371.505
 20
36.756
 21
0.0
  0
LINE
  8
QUOTATURA
 10
368.171
 11
371.505
 20
84.0
 21
104.0
  0
LINE
  8
QUOTATURA
 10
371.505
 11
374.839
 20
104.0
 21
84.0
  0
LINE
  8
QUOTATURA
 10
374.839
 11
368.171
 20
84.0
 21
84.0
  0
LINE
  8
QUOTATURA
 10
374.839
 11
371.505
 20
20.0
 21
0.0
  0
LINE
  8
QUOTATURA
 10
371.505
 11
368.171
 20
0.0
 21
20.0
  0
LINE
  8
QUOTATURA
 10
368.171
 11
374.839
 20
20.0
 21
20.0
  0
TEXT
  8
QUOTATURA
 10
6519.715
 20
4053.642
 30
0.0
 40
20.0
 50
0.0
  1
EST.TEL.=2390
  0
TEXT
  8
QUOTATURA
 10
4965.714
 20
2396.068
 30
0.0
 40
20.0
 50
0.0
  1
LN=2292
  0
TEXT
  8
QUOTATURA
 10
4921.177
 20
2356.898
 30
0.0
 40
20.0
 50
0.0
  1
EST.TEL.=2380
  0
TEXT
  8
QUOTATURA
 10
4050.911
 20
2511.26
 30
0.0
 40
20.0
 50
0.0
  1
414
  0
TEXT
  8
QUOTATURA
 10
4624.021
 20
2511.26
 30
0.0
 40
20.0
 50
0.0
  1
750
  0
TEXT
  8
QUOTATURA
 10
3745.588
 20
2521.083
 30
0.0
 40
20.0
 50
0.0
  1
150
  0
TEXT
  8
QUOTATURA
 10
3603.705
 20
2716.142
 30
0.0
 40
20.0
 50
0.0
  1
248
  0
TEXT
  8
TEXT
 10
6373.353
 20
3186.911
 30
0.0
 40
30.0
 50
0.0
  1
SEZ.A
  0
TEXT
  8
QUOTATURA
 10
6387.264
 20
4253.051
 30
0.0
 40
30.0
 50
0.0
  1
HANTA=2349
  0
TEXT
  8
QUOTATURA
 10
6539.094
 20
3006.013
 30
0.0
 40
30.0
 50
0.0
  1
660
  0
TEXT
  8
QUOTATURA
 10
410.847
 20
197.0
 30
0.0
 40
20.0
 50
0.0
  1
206
  0
TEXT
  8
QUOTATURA
 10
1438.943
 20
197.0
 30
0.0
 40
20.0
 50
0.0
  1
206
  0
TEXT
  8
QUOTATURA
 10
327.957
 20
127.725
 30
0.0
 40
20.0
 50
0.0
  1
394
  0
TEXT
  8
QUOTATURA
 10
986.228
 20
133.544
 30
0.0
 40
20.0
 50
0.0
  1
1545
  0
TEXT
  8
QUOTATURA
 10
1139.219
 20
-71.15
 30
0.0
 40
20.0
 50
0.0
  1
2349
  0
TEXT
  8
QUOTATURA
 10
-147.758
 20
197.0
 30
0.0
 40
20.0
 50
0.0
  1
414
  0
TEXT
  8
QUOTATURA
 10
1079.716
 20
-149.943
 30
0.0
 40
20.0
 50
0.0
  1
PRESSA=2359
  0
TEXT
  8
QUOTATURA
 10
-359.692
 20
197.0
 30
0.0
 40
20.0
 50
0.0
  1
PRESSA=420
  0
TEXT
  8
QUOTATURA
 10
241.51
 20
610.379
 30
0.0
 40
20.0
 50
0.0
  1
PRESSA=665
  0
TEXT
  8
TEXT
 10
-253.316
 20
509.316
 30
0.0
 40
30.0
 50
0.0
  1
MARCARE
  0
TEXT
  8
TEXT
 10
-253.316
 20
464.316
 30
0.0
 40
30.0
 50
0.0
  1
SOTTO
  0
TEXT
  8
QUOTATURA
 10
27.368
 20
41.728
 30
0.0
 40
20.0
 50
0.0
  1
PRESSA=236
  0
TEXT
  8
QUOTATURA
 10
765.331
 20
17.639
 30
0.0
 40
20.0
 50
0.0
  1
PRESSA=90
  0
TEXT
  8
QUOTATURA
 10
1980.713
 20
42.275
 30
0.0
 40
20.0
 50
0.0
  1
PRESSA=114
  0
TEXT
  8
QUOTATURA
 10
236.451
 20
350.0
 30
0.0
 40
20.0
 50
0.0
  1
PRESSA=114
  0
TEXT
  8
QUOTATURA
 10
88.503
 20
195.592
 30
0.0
 40
20.0
 50
0.0
  1
226
  0
TEXT
  8
QUOTATURA
 10
642.833
 20
128.412
 30
0.0
 40
20.0
 50
0.0
  1
80
  0
TEXT
  8
QUOTATURA
 10
2273.109
 20
134.484
 30
0.0
 40
20.0
 50
0.0
  1
104
  0
TEXT
  8
QUOTATURA
 10
347.614
 20
42.0
 30
0.0
 40
20.0
 50
0.0
  1
104
  0
ENDSEC
  0
EOF
