  0
SECTION
  2
TABLES
  0
TABLE
  2
LTYPE
 70
     1
  0
LTYPE
  2
DASHED
 70
    64
  3
__ __ __ __ __ __ __ __ __ __ __ __ __ __ __ __
 72
    65
 73
     2
 40
0.75
 49
0.5
 49
-0.25
  0
ENDTAB
  0
ENDSEC
  0
SECTION
  2
BLOCKS
  0
BLOCK
 70
 64
  2
APS_WVOL
  6
DASHED
 10
  0
 20
  0
 30
  0
  0
LINE
  8
WORK_VOLUME
  6
DASHED
 10
0.0
 11
120.0
 20
0.0
 21
0.0
 30
-1.0
 31
-1.0
  0
LINE
  8
WORK_VOLUME
  6
DASHED
 10
120.0
 11
120.0
 20
0.0
 21
110.0
 30
-1.0
 31
-1.0
  0
LINE
  8
WORK_VOLUME
  6
DASHED
 10
120.0
 11
0.0
 20
110.0
 21
110.0
 30
-1.0
 31
-1.0
  0
LINE
  8
WORK_VOLUME
  6
DASHED
 10
0.0
 11
0.0
 20
110.0
 21
0.0
 30
-1.0
 31
-1.0
  0
LINE
  8
WORK_VOLUME
  6
DASHED
 10
0.0
 11
0.0
 20
0.0
 21
0.0
 30
-1.0
 31
0.0
  0
LINE
  8
WORK_VOLUME
  6
DASHED
 10
0.0
 11
0.0
 20
110.0
 21
110.0
 30
-1.0
 31
0.0
  0
LINE
  8
WORK_VOLUME
  6
DASHED
 10
120.0
 11
120.0
 20
110.0
 21
110.0
 30
-1.0
 31
0.0
  0
LINE
  8
WORK_VOLUME
  6
DASHED
 10
120.0
 11
120.0
 20
0.0
 21
0.0
 30
-1.0
 31
0.0
  0
LINE
  8
WORK_VOLUME
  6
DASHED
 10
0.0
 11
120.0
 20
0.0
 21
0.0
 30
0.0
 31
0.0
  0
LINE
  8
WORK_VOLUME
  6
DASHED
 10
120.0
 11
120.0
 20
0.0
 21
110.0
 30
0.0
 31
0.0
  0
LINE
  8
WORK_VOLUME
  6
DASHED
 10
120.0
 11
0.0
 20
110.0
 21
110.0
 30
0.0
 31
0.0
  0
LINE
  8
WORK_VOLUME
  6
DASHED
 10
0.0
 11
0.0
 20
110.0
 21
0.0
 30
0.0
 31
0.0
  0
ENDBLK
  0
ENDSEC
  0
SECTION
  2
ENTITIES
  0
INSERT
  2
APS_WVOL
  8
WORK_VOLUME
  6
DASHED
 10
  0
 20
  0
 30
  0
  0
LINE
  8
APS_GEOMETRY
 10
0.0
 11
8.0
 20
3.0
 21
3.0
 30
0.0
 31
0.0
  0
LINE
  8
APS_GEOMETRY
 10
8.0
 11
112.0
 20
3.0
 21
107.0
 30
0.0
 31
0.0
  0
LINE
  8
APS_GEOMETRY
 10
112.0
 11
120.0
 20
107.0
 21
107.0
 30
0.0
 31
0.0
  0
LINE
  8
APS_GEOMETRY
 10
0.0
 11
8.0
 20
107.0
 21
107.0
 30
0.0
 31
0.0
  0
LINE
  8
APS_GEOMETRY
 10
8.0
 11
112.0
 20
107.0
 21
3.0
 30
0.0
 31
0.0
  0
LINE
  8
APS_GEOMETRY
 10
112.0
 11
120.0
 20
3.0
 21
3.0
 30
0.0
 31
0.0
  0
LINE
  8
APS_GEOMETRY
 10
0.0
 11
8.0
 20
92.515
 21
92.515
 30
0.0
 31
0.0
  0
LINE
  8
APS_GEOMETRY
 10
8.0
 11
22.485
 20
92.515
 21
107.0
 30
0.0
 31
0.0
  0
LINE
  8
APS_GEOMETRY
 10
22.485
 11
97.515
 20
107.0
 21
107.0
 30
0.0
 31
0.0
  0
LINE
  8
APS_GEOMETRY
 10
97.515
 11
112.0
 20
107.0
 21
92.515
 30
0.0
 31
0.0
  0
LINE
  8
APS_GEOMETRY
 10
112.0
 11
120.0
 20
92.515
 21
92.515
 30
0.0
 31
0.0
  0
LINE
  8
APS_GEOMETRY
 10
0.0
 11
8.0
 20
17.485
 21
17.485
 30
0.0
 31
0.0
  0
LINE
  8
APS_GEOMETRY
 10
8.0
 11
22.485
 20
17.485
 21
3.0
 30
0.0
 31
0.0
  0
LINE
  8
APS_GEOMETRY
 10
22.485
 11
97.515
 20
3.0
 21
3.0
 30
0.0
 31
0.0
  0
LINE
  8
APS_GEOMETRY
 10
97.515
 11
112.0
 20
3.0
 21
17.485
 30
0.0
 31
0.0
  0
LINE
  8
APS_GEOMETRY
 10
112.0
 11
120.0
 20
17.485
 21
17.485
 30
0.0
 31
0.0
  0
LINE
  8
APS_GEOMETRY
 10
0.0
 11
7.3
 20
54.943
 21
62.243
 30
0.0
 31
0.0
  0
LINE
  8
APS_GEOMETRY
 10
7.3
 11
28.449
 20
62.243
 21
62.243
 30
0.0
 31
0.0
  0
LINE
  8
APS_GEOMETRY
 10
28.449
 11
43.603
 20
62.243
 21
77.397
 30
0.0
 31
0.0
  0
LINE
  8
APS_GEOMETRY
 10
43.603
 11
76.397
 20
77.397
 21
77.397
 30
0.0
 31
0.0
  0
LINE
  8
APS_GEOMETRY
 10
76.397
 11
91.551
 20
77.397
 21
62.243
 30
0.0
 31
0.0
  0
LINE
  8
APS_GEOMETRY
 10
91.551
 11
112.7
 20
62.243
 21
62.243
 30
0.0
 31
0.0
  0
LINE
  8
APS_GEOMETRY
 10
112.7
 11
120.0
 20
62.243
 21
54.943
 30
0.0
 31
0.0
  0
LINE
  8
APS_GEOMETRY
 10
0.0
 11
7.3
 20
55.057
 21
47.757
 30
0.0
 31
0.0
  0
LINE
  8
APS_GEOMETRY
 10
7.3
 11
28.449
 20
47.757
 21
47.757
 30
0.0
 31
0.0
  0
LINE
  8
APS_GEOMETRY
 10
28.449
 11
43.603
 20
47.757
 21
32.603
 30
0.0
 31
0.0
  0
LINE
  8
APS_GEOMETRY
 10
43.603
 11
76.397
 20
32.603
 21
32.603
 30
0.0
 31
0.0
  0
LINE
  8
APS_GEOMETRY
 10
76.397
 11
91.551
 20
32.603
 21
47.757
 30
0.0
 31
0.0
  0
LINE
  8
APS_GEOMETRY
 10
91.551
 11
112.7
 20
47.757
 21
47.757
 30
0.0
 31
0.0
  0
LINE
  8
APS_GEOMETRY
 10
112.7
 11
120.0
 20
47.757
 21
55.057
 30
0.0
 31
0.0
  0
LINE
  8
APS_GEOMETRY
 10
60.0
 11
75.154
 20
50.757
 21
35.603
 30
0.0
 31
0.0
  0
LINE
  8
APS_GEOMETRY
 10
75.154
 11
44.846
 20
35.603
 21
35.603
 30
0.0
 31
0.0
  0
LINE
  8
APS_GEOMETRY
 10
44.846
 11
60.0
 20
35.603
 21
50.757
 30
0.0
 31
0.0
  0
LINE
  8
APS_GEOMETRY
 10
79.397
 11
64.243
 20
39.846
 21
55.0
 30
0.0
 31
0.0
  0
LINE
  8
APS_GEOMETRY
 10
64.243
 11
79.397
 20
55.0
 21
70.154
 30
0.0
 31
0.0
  0
LINE
  8
APS_GEOMETRY
 10
79.397
 11
90.308
 20
70.154
 21
59.243
 30
0.0
 31
0.0
  0
LINE
  8
APS_GEOMETRY
 10
90.308
 11
111.457
 20
59.243
 21
59.243
 30
0.0
 31
0.0
  0
LINE
  8
APS_GEOMETRY
 10
111.457
 11
115.729
 20
59.243
 21
54.971
 30
0.0
 31
0.0
  0
LINE
  8
APS_GEOMETRY
 10
115.729
 11
111.457
 20
54.971
 21
50.757
 30
0.0
 31
0.0
  0
LINE
  8
APS_GEOMETRY
 10
111.457
 11
90.308
 20
50.757
 21
50.757
 30
0.0
 31
0.0
  0
LINE
  8
APS_GEOMETRY
 10
90.308
 11
79.397
 20
50.757
 21
39.846
 30
0.0
 31
0.0
  0
LINE
  8
APS_GEOMETRY
 10
60.0
 11
44.846
 20
59.243
 21
74.397
 30
0.0
 31
0.0
  0
LINE
  8
APS_GEOMETRY
 10
44.846
 11
75.154
 20
74.397
 21
74.397
 30
0.0
 31
0.0
  0
LINE
  8
APS_GEOMETRY
 10
75.154
 11
60.0
 20
74.397
 21
59.243
 30
0.0
 31
0.0
  0
LINE
  8
APS_GEOMETRY
 10
100.515
 11
79.397
 20
99.757
 21
78.639
 30
0.0
 31
0.0
  0
LINE
  8
APS_GEOMETRY
 10
79.397
 11
77.639
 20
78.639
 21
80.397
 30
0.0
 31
0.0
  0
LINE
  8
APS_GEOMETRY
 10
77.639
 11
42.361
 20
80.397
 21
80.397
 30
0.0
 31
0.0
  0
LINE
  8
APS_GEOMETRY
 10
42.361
 11
40.603
 20
80.397
 21
78.639
 30
0.0
 31
0.0
  0
LINE
  8
APS_GEOMETRY
 10
40.603
 11
19.485
 20
78.639
 21
99.757
 30
0.0
 31
0.0
  0
LINE
  8
APS_GEOMETRY
 10
19.485
 11
23.728
 20
99.757
 21
104.0
 30
0.0
 31
0.0
  0
LINE
  8
APS_GEOMETRY
 10
23.728
 11
96.272
 20
104.0
 21
104.0
 30
0.0
 31
0.0
  0
LINE
  8
APS_GEOMETRY
 10
96.272
 11
100.515
 20
104.0
 21
99.757
 30
0.0
 31
0.0
  0
LINE
  8
APS_GEOMETRY
 10
19.485
 11
40.603
 20
10.243
 21
31.361
 30
0.0
 31
0.0
  0
LINE
  8
APS_GEOMETRY
 10
40.603
 11
42.361
 20
31.361
 21
29.603
 30
0.0
 31
0.0
  0
LINE
  8
APS_GEOMETRY
 10
42.361
 11
77.639
 20
29.603
 21
29.603
 30
0.0
 31
0.0
  0
LINE
  8
APS_GEOMETRY
 10
77.639
 11
79.397
 20
29.603
 21
31.361
 30
0.0
 31
0.0
  0
LINE
  8
APS_GEOMETRY
 10
79.397
 11
100.515
 20
31.361
 21
10.243
 30
0.0
 31
0.0
  0
LINE
  8
APS_GEOMETRY
 10
100.515
 11
96.272
 20
10.243
 21
6.0
 30
0.0
 31
0.0
  0
LINE
  8
APS_GEOMETRY
 10
96.272
 11
23.728
 20
6.0
 21
6.0
 30
0.0
 31
0.0
  0
LINE
  8
APS_GEOMETRY
 10
23.728
 11
19.485
 20
6.0
 21
10.243
 30
0.0
 31
0.0
  0
LINE
  8
APS_GEOMETRY
 10
40.603
 11
55.757
 20
70.154
 21
55.0
 30
0.0
 31
0.0
  0
LINE
  8
APS_GEOMETRY
 10
55.757
 11
40.603
 20
55.0
 21
39.846
 30
0.0
 31
0.0
  0
LINE
  8
APS_GEOMETRY
 10
40.603
 11
29.692
 20
39.846
 21
50.757
 30
0.0
 31
0.0
  0
LINE
  8
APS_GEOMETRY
 10
29.692
 11
8.543
 20
50.757
 21
50.757
 30
0.0
 31
0.0
  0
LINE
  8
APS_GEOMETRY
 10
8.543
 11
4.3
 20
50.757
 21
55.0
 30
0.0
 31
0.0
  0
LINE
  8
APS_GEOMETRY
 10
4.3
 11
8.543
 20
55.0
 21
59.243
 30
0.0
 31
0.0
  0
LINE
  8
APS_GEOMETRY
 10
8.543
 11
29.692
 20
59.243
 21
59.243
 30
0.0
 31
0.0
  0
LINE
  8
APS_GEOMETRY
 10
29.692
 11
40.603
 20
59.243
 21
70.154
 30
0.0
 31
0.0
  0
LINE
  8
APS_GEOMETRY
 10
60.0
 11
98.757
 20
0.0
 21
0.0
 30
0.0
 31
0.0
  0
LINE
  8
APS_GEOMETRY
 10
98.757
 11
104.757
 20
0.0
 21
6.0
 30
0.0
 31
0.0
  0
LINE
  8
APS_GEOMETRY
 10
104.757
 11
110.757
 20
6.0
 21
0.0
 30
0.0
 31
0.0
  0
LINE
  8
APS_GEOMETRY
 10
110.757
 11
120.0
 20
0.0
 21
0.0
 30
0.0
 31
0.0
  0
ARC
  8
APS_GEOMETRY
 10
120.0
 20
3.0
 30
0.0
 40
3.0
 50
270.0
 51
90.0
210
0.0
220
0.0
230
1.0
  0
LINE
  8
APS_GEOMETRY
 10
120.0
 11
113.243
 20
6.0
 21
6.0
 30
0.0
 31
0.0
  0
LINE
  8
APS_GEOMETRY
 10
113.243
 11
109.0
 20
6.0
 21
10.243
 30
0.0
 31
0.0
  0
LINE
  8
APS_GEOMETRY
 10
109.0
 11
113.243
 20
10.243
 21
14.485
 30
0.0
 31
0.0
  0
LINE
  8
APS_GEOMETRY
 10
113.243
 11
120.0
 20
14.485
 21
14.485
 30
0.0
 31
0.0
  0
ARC
  8
APS_GEOMETRY
 10
120.0
 20
17.485
 30
0.0
 40
3.0
 50
270.0
 51
90.0
210
0.0
220
0.0
230
1.0
  0
LINE
  8
APS_GEOMETRY
 10
120.0
 11
110.757
 20
20.485
 21
20.485
 30
0.0
 31
0.0
  0
LINE
  8
APS_GEOMETRY
 10
110.757
 11
104.757
 20
20.485
 21
14.485
 30
0.0
 31
0.0
  0
LINE
  8
APS_GEOMETRY
 10
104.757
 11
83.639
 20
14.485
 21
35.603
 30
0.0
 31
0.0
  0
LINE
  8
APS_GEOMETRY
 10
83.639
 11
92.793
 20
35.603
 21
44.757
 30
0.0
 31
0.0
  0
LINE
  8
APS_GEOMETRY
 10
92.793
 11
113.919
 20
44.757
 21
44.757
 30
0.0
 31
0.0
  0
LINE
  8
APS_GEOMETRY
 10
113.919
 11
119.942
 20
44.757
 21
50.7
 30
0.0
 31
0.0
  0
ARC
  8
APS_GEOMETRY
 10
115.729
 20
54.971
 30
0.0
 40
6.0
 50
314.612
 51
44.611
210
0.0
220
0.0
230
1.0
  0
LINE
  8
APS_GEOMETRY
 10
120.0
 11
113.943
 20
59.185
 21
65.243
 30
0.0
 31
0.0
  0
LINE
  8
APS_GEOMETRY
 10
113.943
 11
92.793
 20
65.243
 21
65.243
 30
0.0
 31
0.0
  0
LINE
  8
APS_GEOMETRY
 10
92.793
 11
83.639
 20
65.243
 21
74.397
 30
0.0
 31
0.0
  0
LINE
  8
APS_GEOMETRY
 10
83.639
 11
104.757
 20
74.397
 21
95.515
 30
0.0
 31
0.0
  0
LINE
  8
APS_GEOMETRY
 10
104.757
 11
110.757
 20
95.515
 21
89.515
 30
0.0
 31
0.0
  0
LINE
  8
APS_GEOMETRY
 10
110.757
 11
120.0
 20
89.515
 21
89.515
 30
0.0
 31
0.0
  0
ARC
  8
APS_GEOMETRY
 10
120.0
 20
92.515
 30
0.0
 40
3.0
 50
270.0
 51
90.0
210
0.0
220
0.0
230
1.0
  0
LINE
  8
APS_GEOMETRY
 10
120.0
 11
113.243
 20
95.515
 21
95.515
 30
0.0
 31
0.0
  0
LINE
  8
APS_GEOMETRY
 10
113.243
 11
109.0
 20
95.515
 21
99.757
 30
0.0
 31
0.0
  0
LINE
  8
APS_GEOMETRY
 10
109.0
 11
113.243
 20
99.757
 21
104.0
 30
0.0
 31
0.0
  0
LINE
  8
APS_GEOMETRY
 10
113.243
 11
120.0
 20
104.0
 21
104.0
 30
0.0
 31
0.0
  0
ARC
  8
APS_GEOMETRY
 10
120.0
 20
107.0
 30
0.0
 40
3.0
 50
270.0
 51
90.0
210
0.0
220
0.0
230
1.0
  0
LINE
  8
APS_GEOMETRY
 10
120.0
 11
110.757
 20
110.0
 21
110.0
 30
0.0
 31
0.0
  0
LINE
  8
APS_GEOMETRY
 10
110.757
 11
104.757
 20
110.0
 21
104.0
 30
0.0
 31
0.0
  0
LINE
  8
APS_GEOMETRY
 10
104.757
 11
98.757
 20
104.0
 21
110.0
 30
0.0
 31
0.0
  0
LINE
  8
APS_GEOMETRY
 10
98.757
 11
21.243
 20
110.0
 21
110.0
 30
0.0
 31
0.0
  0
LINE
  8
APS_GEOMETRY
 10
21.243
 11
15.243
 20
110.0
 21
104.0
 30
0.0
 31
0.0
  0
LINE
  8
APS_GEOMETRY
 10
15.243
 11
9.243
 20
104.0
 21
110.0
 30
0.0
 31
0.0
  0
LINE
  8
APS_GEOMETRY
 10
9.243
 11
0.0
 20
110.0
 21
110.0
 30
0.0
 31
0.0
  0
ARC
  8
APS_GEOMETRY
 10
0.0
 20
107.0
 30
0.0
 40
3.0
 50
90.0
 51
270.0
210
0.0
220
0.0
230
1.0
  0
LINE
  8
APS_GEOMETRY
 10
0.0
 11
6.757
 20
104.0
 21
104.0
 30
0.0
 31
0.0
  0
LINE
  8
APS_GEOMETRY
 10
6.757
 11
11.0
 20
104.0
 21
99.757
 30
0.0
 31
0.0
  0
LINE
  8
APS_GEOMETRY
 10
11.0
 11
6.757
 20
99.757
 21
95.515
 30
0.0
 31
0.0
  0
LINE
  8
APS_GEOMETRY
 10
6.757
 11
0.0
 20
95.515
 21
95.515
 30
0.0
 31
0.0
  0
ARC
  8
APS_GEOMETRY
 10
0.0
 20
92.515
 30
0.0
 40
3.0
 50
90.0
 51
270.0
210
0.0
220
0.0
230
1.0
  0
LINE
  8
APS_GEOMETRY
 10
0.0
 11
9.243
 20
89.515
 21
89.515
 30
0.0
 31
0.0
  0
LINE
  8
APS_GEOMETRY
 10
9.243
 11
15.243
 20
89.515
 21
95.515
 30
0.0
 31
0.0
  0
LINE
  8
APS_GEOMETRY
 10
15.243
 11
36.361
 20
95.515
 21
74.397
 30
0.0
 31
0.0
  0
LINE
  8
APS_GEOMETRY
 10
36.361
 11
27.207
 20
74.397
 21
65.243
 30
0.0
 31
0.0
  0
LINE
  8
APS_GEOMETRY
 10
27.207
 11
6.057
 20
65.243
 21
65.243
 30
0.0
 31
0.0
  0
LINE
  8
APS_GEOMETRY
 10
6.057
 11
0.0
 20
65.243
 21
59.185
 30
0.0
 31
0.0
  0
ARC
  8
APS_GEOMETRY
 10
4.185
 20
55.0
 30
0.0
 40
5.919
 50
135.0
 51
225.0
210
0.0
220
0.0
230
1.0
  0
LINE
  8
APS_GEOMETRY
 10
0.0
 11
6.057
 20
50.815
 21
44.757
 30
0.0
 31
0.0
  0
LINE
  8
APS_GEOMETRY
 10
6.057
 11
27.207
 20
44.757
 21
44.757
 30
0.0
 31
0.0
  0
LINE
  8
APS_GEOMETRY
 10
27.207
 11
36.361
 20
44.757
 21
35.603
 30
0.0
 31
0.0
  0
LINE
  8
APS_GEOMETRY
 10
36.361
 11
15.243
 20
35.603
 21
14.485
 30
0.0
 31
0.0
  0
LINE
  8
APS_GEOMETRY
 10
15.243
 11
9.243
 20
14.485
 21
20.485
 30
0.0
 31
0.0
  0
LINE
  8
APS_GEOMETRY
 10
9.243
 11
0.0
 20
20.485
 21
20.485
 30
0.0
 31
0.0
  0
ARC
  8
APS_GEOMETRY
 10
0.0
 20
17.485
 30
0.0
 40
3.0
 50
90.0
 51
270.0
210
0.0
220
0.0
230
1.0
  0
LINE
  8
APS_GEOMETRY
 10
0.0
 11
6.757
 20
14.485
 21
14.485
 30
0.0
 31
0.0
  0
LINE
  8
APS_GEOMETRY
 10
6.757
 11
11.0
 20
14.485
 21
10.243
 30
0.0
 31
0.0
  0
LINE
  8
APS_GEOMETRY
 10
11.0
 11
6.757
 20
10.243
 21
6.0
 30
0.0
 31
0.0
  0
LINE
  8
APS_GEOMETRY
 10
6.757
 11
0.0
 20
6.0
 21
6.0
 30
0.0
 31
0.0
  0
ARC
  8
APS_GEOMETRY
 10
0.0
 20
3.0
 30
0.0
 40
3.0
 50
90.0
 51
270.0
210
0.0
220
0.0
230
1.0
  0
LINE
  8
APS_GEOMETRY
 10
0.0
 11
9.243
 20
0.0
 21
0.0
 30
0.0
 31
0.0
  0
LINE
  8
APS_GEOMETRY
 10
9.243
 11
15.243
 20
0.0
 21
6.0
 30
0.0
 31
0.0
  0
LINE
  8
APS_GEOMETRY
 10
15.243
 11
21.243
 20
6.0
 21
0.0
 30
0.0
 31
0.0
  0
LINE
  8
APS_GEOMETRY
 10
21.243
 11
60.0
 20
0.0
 21
0.0
 30
0.0
 31
0.0
  0
ENDSEC
  0
EOF
