  0
SECTION
  2
ENTITIES
  0
LINE
  8
APS_GEOMETRY
 10
0.0
 11
267.897
 20
0.0
 21
0.0
  0
LINE
  8
APS_GEOMETRY
 10
255.847
 11
0.0
 20
44.0
 21
44.0
  0
LINE
  8
APS_GEOMETRY
 10
0.0
 11
0.0
 20
44.0
 21
0.0
  0
LINE
  8
COSTRUZIONI
 10
187.5
 11
212.5
 20
34.5
 21
34.5
  0
LINE
  8
COSTRUZIONI
 10
212.5
 11
212.5
 20
34.5
 21
9.5
  0
LINE
  8
COSTRUZIONI
 10
212.5
 11
187.5
 20
9.5
 21
9.5
  0
LINE
  8
COSTRUZIONI
 10
187.5
 11
187.5
 20
9.5
 21
34.5
  0
LINE
  8
APS_GEOMETRY
 10
252.96
 11
270.05
 20
48.367
 21
22.512
  0
LINE
  8
APS_GEOMETRY
 10
270.05
 11
250.331
 20
22.512
 21
20.76
  0
LINE
  8
APS_GEOMETRY
 10
250.331
 11
274.433
 20
20.76
 21
-7.724
  0
LINE
  8
COSTRUZIONI
 10
25.0
 11
25.0
 20
44.0
 21
38.0
  0
LINE
  8
COSTRUZIONI
 10
25.0
 11
35.0
 20
38.0
 21
38.0
  0
LINE
  8
COSTRUZIONI
 10
35.0
 11
35.0
 20
38.0
 21
6.0
  0
LINE
  8
COSTRUZIONI
 10
35.0
 11
25.0
 20
6.0
 21
6.0
  0
LINE
  8
COSTRUZIONI
 10
25.0
 11
25.0
 20
6.0
 21
0.0
  0
LINE
  8
APS_GEOMETRY
 10
35.0
 11
259.813
 20
38.0
 21
38.0
  0
LINE
  8
APS_GEOMETRY
 10
35.0
 11
262.82
 20
6.0
 21
6.0
  0
LINE
  8
APS_GEOMETRY
 10
187.0
 11
213.0
 20
35.0
 21
35.0
  0
LINE
  8
APS_GEOMETRY
 10
213.0
 11
213.0
 20
35.0
 21
9.0
  0
LINE
  8
APS_GEOMETRY
 10
213.0
 11
187.0
 20
9.0
 21
9.0
  0
LINE
  8
APS_GEOMETRY
 10
187.0
 11
187.0
 20
9.0
 21
35.0
  0
LINE
  8
QUOTATURA
 10
187.5
 11
187.5
 20
24.5
 21
32.505
  0
LINE
  8
QUOTATURA
 10
212.5
 11
212.5
 20
24.5
 21
32.505
  0
LINE
  8
QUOTATURA
 10
187.5
 11
192.33
 20
30.005
 21
30.005
  0
LINE
  8
QUOTATURA
 10
202.339
 11
212.5
 20
30.005
 21
30.005
  0
LINE
  8
QUOTATURA
 10
192.5
 11
187.5
 20
29.171
 21
30.005
  0
LINE
  8
QUOTATURA
 10
187.5
 11
192.5
 20
30.005
 21
30.838
  0
LINE
  8
QUOTATURA
 10
192.5
 11
192.5
 20
30.838
 21
29.171
  0
LINE
  8
QUOTATURA
 10
207.5
 11
212.5
 20
30.838
 21
30.005
  0
LINE
  8
QUOTATURA
 10
212.5
 11
207.5
 20
30.005
 21
29.171
  0
LINE
  8
QUOTATURA
 10
207.5
 11
207.5
 20
29.171
 21
30.838
  0
LINE
  8
QUOTATURA
 10
202.5
 11
207.562
 20
34.5
 21
34.5
  0
LINE
  8
QUOTATURA
 10
202.5
 11
207.562
 20
9.5
 21
9.5
  0
LINE
  8
QUOTATURA
 10
205.062
 11
205.062
 20
34.5
 21
25.686
  0
LINE
  8
QUOTATURA
 10
205.062
 11
205.062
 20
18.166
 21
9.5
  0
LINE
  8
QUOTATURA
 10
204.228
 11
205.062
 20
29.5
 21
34.5
  0
LINE
  8
QUOTATURA
 10
205.062
 11
205.895
 20
34.5
 21
29.5
  0
LINE
  8
QUOTATURA
 10
205.895
 11
204.228
 20
29.5
 21
29.5
  0
LINE
  8
QUOTATURA
 10
205.895
 11
205.062
 20
14.5
 21
9.5
  0
LINE
  8
QUOTATURA
 10
205.062
 11
204.228
 20
9.5
 21
14.5
  0
LINE
  8
QUOTATURA
 10
204.228
 11
205.895
 20
14.5
 21
14.5
  0
LINE
  8
APS_GEOMETRY
 10
200.0
 11
200.0
 20
38.0
 21
35.0
  0
LINE
  8
APS_GEOMETRY
 10
200.0
 11
200.0
 20
9.0
 21
6.0
  0
LINE
  8
APS_GEOMETRY
 10
165.0
 11
165.0
 20
38.0
 21
6.0
  0
LINE
  8
APS_GEOMETRY
 10
235.0
 11
235.0
 20
38.0
 21
6.0
  0
LINE
  8
APS_GEOMETRY
 10
232.172
 11
235.0
 20
6.0
 21
8.828
  0
LINE
  8
APS_GEOMETRY
 10
235.0
 11
229.343
 20
11.657
 21
6.0
  0
LINE
  8
APS_GEOMETRY
 10
226.515
 11
235.0
 20
6.0
 21
14.485
  0
LINE
  8
APS_GEOMETRY
 10
235.0
 11
223.686
 20
17.314
 21
6.0
  0
LINE
  8
APS_GEOMETRY
 10
220.858
 11
235.0
 20
6.0
 21
20.142
  0
LINE
  8
APS_GEOMETRY
 10
235.0
 11
218.029
 20
22.971
 21
6.0
  0
LINE
  8
APS_GEOMETRY
 10
215.201
 11
235.0
 20
6.0
 21
25.799
  0
LINE
  8
APS_GEOMETRY
 10
235.0
 11
212.373
 20
28.627
 21
6.0
  0
LINE
  8
APS_GEOMETRY
 10
209.544
 11
212.544
 20
6.0
 21
9.0
  0
LINE
  8
APS_GEOMETRY
 10
213.0
 11
235.0
 20
9.456
 21
31.456
  0
LINE
  8
APS_GEOMETRY
 10
235.0
 11
213.0
 20
34.284
 21
12.284
  0
LINE
  8
APS_GEOMETRY
 10
209.716
 11
206.716
 20
9.0
 21
6.0
  0
LINE
  8
APS_GEOMETRY
 10
203.887
 11
206.887
 20
6.0
 21
9.0
  0
LINE
  8
APS_GEOMETRY
 10
213.0
 11
235.0
 20
15.113
 21
37.113
  0
LINE
  8
APS_GEOMETRY
 10
233.059
 11
213.0
 20
38.0
 21
17.941
  0
LINE
  8
APS_GEOMETRY
 10
204.059
 11
201.059
 20
9.0
 21
6.0
  0
LINE
  8
APS_GEOMETRY
 10
200.0
 11
201.23
 20
7.77
 21
9.0
  0
LINE
  8
APS_GEOMETRY
 10
213.0
 11
230.23
 20
20.77
 21
38.0
  0
LINE
  8
APS_GEOMETRY
 10
227.402
 11
213.0
 20
38.0
 21
23.598
  0
LINE
  8
APS_GEOMETRY
 10
213.0
 11
224.574
 20
26.426
 21
38.0
  0
LINE
  8
APS_GEOMETRY
 10
221.745
 11
213.0
 20
38.0
 21
29.255
  0
LINE
  8
APS_GEOMETRY
 10
213.0
 11
218.917
 20
32.083
 21
38.0
  0
LINE
  8
APS_GEOMETRY
 10
216.088
 11
213.0
 20
38.0
 21
34.912
  0
LINE
  8
APS_GEOMETRY
 10
210.26
 11
213.26
 20
35.0
 21
38.0
  0
LINE
  8
APS_GEOMETRY
 10
210.431
 11
207.431
 20
38.0
 21
35.0
  0
LINE
  8
APS_GEOMETRY
 10
204.603
 11
207.603
 20
35.0
 21
38.0
  0
LINE
  8
APS_GEOMETRY
 10
204.775
 11
201.775
 20
38.0
 21
35.0
  0
LINE
  8
APS_GEOMETRY
 10
200.0
 11
201.946
 20
36.054
 21
38.0
  0
LINE
  8
APS_GEOMETRY
 10
25.0
 11
25.0
 20
44.0
 21
38.0
  0
LINE
  8
APS_GEOMETRY
 10
25.0
 11
35.0
 20
38.0
 21
38.0
  0
LINE
  8
APS_GEOMETRY
 10
35.0
 11
35.0
 20
38.0
 21
6.0
  0
LINE
  8
APS_GEOMETRY
 10
35.0
 11
25.0
 20
6.0
 21
6.0
  0
LINE
  8
APS_GEOMETRY
 10
25.0
 11
25.0
 20
6.0
 21
0.0
  0
LINE
  8
APS_GEOMETRY
 10
32.515
 11
35.0
 20
6.0
 21
8.485
  0
LINE
  8
APS_GEOMETRY
 10
35.0
 11
29.686
 20
11.314
 21
6.0
  0
LINE
  8
APS_GEOMETRY
 10
25.0
 11
23.686
 20
1.314
 21
0.0
  0
LINE
  8
APS_GEOMETRY
 10
20.858
 11
25.0
 20
0.0
 21
4.142
  0
LINE
  8
APS_GEOMETRY
 10
26.858
 11
35.0
 20
6.0
 21
14.142
  0
LINE
  8
APS_GEOMETRY
 10
35.0
 11
18.029
 20
16.971
 21
0.0
  0
LINE
  8
APS_GEOMETRY
 10
15.201
 11
35.0
 20
0.0
 21
19.799
  0
LINE
  8
APS_GEOMETRY
 10
35.0
 11
12.373
 20
22.627
 21
0.0
  0
LINE
  8
APS_GEOMETRY
 10
9.544
 11
35.0
 20
0.0
 21
25.456
  0
LINE
  8
APS_GEOMETRY
 10
35.0
 11
6.716
 20
28.284
 21
0.0
  0
LINE
  8
APS_GEOMETRY
 10
3.887
 11
35.0
 20
0.0
 21
31.113
  0
LINE
  8
APS_GEOMETRY
 10
35.0
 11
1.059
 20
33.941
 21
0.0
  0
LINE
  8
APS_GEOMETRY
 10
0.0
 11
35.0
 20
1.77
 21
36.77
  0
LINE
  8
APS_GEOMETRY
 10
33.402
 11
0.0
 20
38.0
 21
4.598
  0
LINE
  8
APS_GEOMETRY
 10
0.0
 11
30.574
 20
7.426
 21
38.0
  0
LINE
  8
APS_GEOMETRY
 10
27.745
 11
0.0
 20
38.0
 21
10.255
  0
LINE
  8
APS_GEOMETRY
 10
0.0
 11
25.0
 20
13.083
 21
38.083
  0
LINE
  8
APS_GEOMETRY
 10
25.0
 11
0.0
 20
40.912
 21
15.912
  0
LINE
  8
APS_GEOMETRY
 10
0.0
 11
25.0
 20
18.74
 21
43.74
  0
LINE
  8
APS_GEOMETRY
 10
22.431
 11
0.0
 20
44.0
 21
21.569
  0
LINE
  8
APS_GEOMETRY
 10
0.0
 11
19.603
 20
24.397
 21
44.0
  0
LINE
  8
APS_GEOMETRY
 10
16.775
 11
0.0
 20
44.0
 21
27.225
  0
LINE
  8
APS_GEOMETRY
 10
0.0
 11
13.946
 20
30.054
 21
44.0
  0
LINE
  8
APS_GEOMETRY
 10
11.118
 11
0.0
 20
44.0
 21
32.882
  0
LINE
  8
APS_GEOMETRY
 10
0.0
 11
8.289
 20
35.711
 21
44.0
  0
LINE
  8
APS_GEOMETRY
 10
5.461
 11
0.0
 20
44.0
 21
38.539
  0
LINE
  8
APS_GEOMETRY
 10
0.0
 11
2.632
 20
41.368
 21
44.0
  0
LINE
  8
QUOTATURA
 10
162.5
 11
150.074
 20
6.0
 21
6.0
  0
LINE
  8
QUOTATURA
 10
162.5
 11
150.074
 20
38.0
 21
38.0
  0
LINE
  8
QUOTATURA
 10
152.574
 11
152.574
 20
6.0
 21
18.163
  0
LINE
  8
QUOTATURA
 10
152.574
 11
152.574
 20
25.686
 21
38.0
  0
LINE
  8
QUOTATURA
 10
153.407
 11
152.574
 20
11.0
 21
6.0
  0
LINE
  8
QUOTATURA
 10
152.574
 11
151.74
 20
6.0
 21
11.0
  0
LINE
  8
QUOTATURA
 10
151.74
 11
153.407
 20
11.0
 21
11.0
  0
LINE
  8
QUOTATURA
 10
151.74
 11
152.574
 20
33.0
 21
38.0
  0
LINE
  8
QUOTATURA
 10
152.574
 11
153.407
 20
38.0
 21
33.0
  0
LINE
  8
QUOTATURA
 10
153.407
 11
151.74
 20
33.0
 21
33.0
  0
LINE
  8
QUOTATURA
 10
184.5
 11
174.679
 20
9.0
 21
9.0
  0
LINE
  8
QUOTATURA
 10
184.5
 11
174.679
 20
35.0
 21
35.0
  0
LINE
  8
QUOTATURA
 10
177.179
 11
177.179
 20
9.0
 21
18.166
  0
LINE
  8
QUOTATURA
 10
177.179
 11
177.179
 20
25.686
 21
35.0
  0
LINE
  8
QUOTATURA
 10
178.013
 11
177.179
 20
14.0
 21
9.0
  0
LINE
  8
QUOTATURA
 10
177.179
 11
176.346
 20
9.0
 21
14.0
  0
LINE
  8
QUOTATURA
 10
176.346
 11
178.013
 20
14.0
 21
14.0
  0
LINE
  8
QUOTATURA
 10
176.346
 11
177.179
 20
30.0
 21
35.0
  0
LINE
  8
QUOTATURA
 10
177.179
 11
178.013
 20
35.0
 21
30.0
  0
LINE
  8
QUOTATURA
 10
178.013
 11
176.346
 20
30.0
 21
30.0
  0
LINE
  8
QUOTATURA
 10
165.0
 11
165.0
 20
3.5
 21
-11.968
  0
LINE
  8
QUOTATURA
 10
200.0
 11
200.0
 20
3.5
 21
-11.968
  0
LINE
  8
QUOTATURA
 10
165.0
 11
177.511
 20
-9.468
 21
-9.468
  0
LINE
  8
QUOTATURA
 10
187.489
 11
200.0
 20
-9.468
 21
-9.468
  0
LINE
  8
QUOTATURA
 10
170.0
 11
165.0
 20
-10.301
 21
-9.468
  0
LINE
  8
QUOTATURA
 10
165.0
 11
170.0
 20
-9.468
 21
-8.634
  0
LINE
  8
QUOTATURA
 10
170.0
 11
170.0
 20
-8.634
 21
-10.301
  0
LINE
  8
QUOTATURA
 10
195.0
 11
200.0
 20
-8.634
 21
-9.468
  0
LINE
  8
QUOTATURA
 10
200.0
 11
195.0
 20
-9.468
 21
-10.301
  0
LINE
  8
QUOTATURA
 10
195.0
 11
195.0
 20
-10.301
 21
-8.634
  0
LINE
  8
QUOTATURA
 10
235.0
 11
235.0
 20
3.5
 21
-11.813
  0
LINE
  8
QUOTATURA
 10
200.0
 11
212.511
 20
-9.313
 21
-9.313
  0
LINE
  8
QUOTATURA
 10
222.489
 11
235.0
 20
-9.313
 21
-9.313
  0
LINE
  8
QUOTATURA
 10
205.0
 11
200.0
 20
-10.146
 21
-9.313
  0
LINE
  8
QUOTATURA
 10
200.0
 11
205.0
 20
-9.313
 21
-8.479
  0
LINE
  8
QUOTATURA
 10
205.0
 11
205.0
 20
-8.479
 21
-10.146
  0
LINE
  8
QUOTATURA
 10
230.0
 11
235.0
 20
-8.479
 21
-9.313
  0
LINE
  8
QUOTATURA
 10
235.0
 11
230.0
 20
-9.313
 21
-10.146
  0
LINE
  8
QUOTATURA
 10
230.0
 11
230.0
 20
-10.146
 21
-8.479
  0
LINE
  8
QUOTATURA
 10
187.0
 11
187.0
 20
37.5
 21
55.233
  0
LINE
  8
QUOTATURA
 10
200.0
 11
200.0
 20
37.5
 21
55.233
  0
LINE
  8
QUOTATURA
 10
187.0
 11
180.206
 20
52.733
 21
52.733
  0
LINE
  8
QUOTATURA
 10
182.0
 11
187.0
 20
53.566
 21
52.733
  0
LINE
  8
QUOTATURA
 10
187.0
 11
182.0
 20
52.733
 21
51.899
  0
LINE
  8
QUOTATURA
 10
182.0
 11
182.0
 20
51.899
 21
53.566
  0
LINE
  8
QUOTATURA
 10
200.0
 11
210.0
 20
52.733
 21
52.733
  0
LINE
  8
QUOTATURA
 10
205.0
 11
200.0
 20
51.899
 21
52.733
  0
LINE
  8
QUOTATURA
 10
200.0
 11
205.0
 20
52.733
 21
53.566
  0
LINE
  8
QUOTATURA
 10
205.0
 11
205.0
 20
53.566
 21
51.899
  0
LINE
  8
QUOTATURA
 10
197.5
 11
190.374
 20
6.0
 21
6.0
  0
LINE
  8
QUOTATURA
 10
197.5
 11
190.374
 20
9.0
 21
9.0
  0
LINE
  8
QUOTATURA
 10
192.874
 11
192.874
 20
6.0
 21
-3.468
  0
LINE
  8
QUOTATURA
 10
192.874
 11
189.526
 20
-3.468
 21
-3.468
  0
LINE
  8
QUOTATURA
 10
192.04
 11
192.874
 20
1.0
 21
6.0
  0
LINE
  8
QUOTATURA
 10
192.874
 11
193.707
 20
6.0
 21
1.0
  0
LINE
  8
QUOTATURA
 10
193.707
 11
192.04
 20
1.0
 21
1.0
  0
LINE
  8
QUOTATURA
 10
192.874
 11
192.874
 20
9.0
 21
19.0
  0
LINE
  8
QUOTATURA
 10
193.707
 11
192.874
 20
14.0
 21
9.0
  0
LINE
  8
QUOTATURA
 10
192.874
 11
192.04
 20
9.0
 21
14.0
  0
LINE
  8
QUOTATURA
 10
192.04
 11
193.707
 20
14.0
 21
14.0
  0
LINE
  8
APS_GEOMETRY
 10
26.198
 11
27.06
 20
-28.827
 21
-28.827
  0
ARC
  8
APS_GEOMETRY
 10
27.016
 20
-27.592
 40
1.236
 50
272.021
 51
278.44
  0
ARC
  8
APS_GEOMETRY
 10
27.065
 20
-27.92
 40
0.904
 50
278.44
 51
285.945
  0
ARC
  8
APS_GEOMETRY
 10
27.431
 20
-29.23
 40
0.456
 50
98.584
 51
104.931
  0
ARC
  8
APS_GEOMETRY
 10
27.4
 20
-29.026
 40
0.25
 50
90.0
 51
98.584
  0
ARC
  8
APS_GEOMETRY
 10
27.4
 20
-28.964
 40
0.188
 50
52.871
 51
90.0
  0
ARC
  8
APS_GEOMETRY
 10
27.145
 20
-29.3
 40
0.609
 50
32.518
 51
52.871
  0
ARC
  8
APS_GEOMETRY
 10
26.944
 20
-29.429
 40
0.848
 50
17.209
 51
32.518
  0
ARC
  8
APS_GEOMETRY
 10
27.112
 20
-29.377
 40
0.672
 50
360.0
 51
17.209
  0
ARC
  8
APS_GEOMETRY
 10
27.448
 20
-29.377
 40
0.336
 50
337.348
 51
360.0
  0
ARC
  8
APS_GEOMETRY
 10
27.583
 20
-29.433
 40
0.19
 50
307.042
 51
337.348
  0
ARC
  8
APS_GEOMETRY
 10
27.56
 20
-29.401
 40
0.229
 50
287.186
 51
306.87
  0
ARC
  8
APS_GEOMETRY
 10
27.539
 20
-29.333
 40
0.3
 50
270.0
 51
287.186
  0
ARC
  8
APS_GEOMETRY
 10
27.539
 20
-29.364
 40
0.27
 50
252.221
 51
270.0
  0
ARC
  8
APS_GEOMETRY
 10
27.526
 20
-29.403
 40
0.229
 50
232.896
 51
252.221
  0
ARC
  8
APS_GEOMETRY
 10
27.575
 20
-29.339
 40
0.309
 50
218.3
 51
232.896
  0
ARC
  8
APS_GEOMETRY
 10
27.954
 20
-29.039
 40
0.792
 50
209.197
 51
218.3
  0
ARC
  8
APS_GEOMETRY
 10
26.026
 20
-30.084
 40
1.401
 50
28.025
 51
32.699
  0
ARC
  8
APS_GEOMETRY
 10
27.034
 20
-29.437
 40
0.203
 50
32.699
 51
45.0
  0
ARC
  8
APS_GEOMETRY
 10
27.103
 20
-29.368
 40
0.106
 50
45.0
 51
67.557
  0
ARC
  8
APS_GEOMETRY
 10
27.102
 20
-29.369
 40
0.107
 50
67.557
 51
90.0
  0
ARC
  8
APS_GEOMETRY
 10
27.102
 20
-29.361
 40
0.098
 50
90.0
 51
120.801
  0
ARC
  8
APS_GEOMETRY
 10
27.099
 20
-29.355
 40
0.092
 50
120.801
 51
152.7
  0
ARC
  8
APS_GEOMETRY
 10
27.172
 20
-29.393
 40
0.174
 50
152.7
 51
171.085
  0
ARC
  8
APS_GEOMETRY
 10
27.726
 20
-29.48
 40
0.735
 50
171.085
 51
180.0
  0
LINE
  8
APS_GEOMETRY
 10
26.991
 11
26.991
 20
-29.48
 21
-30.395
  0
ARC
  8
APS_GEOMETRY
 10
27.962
 20
-30.395
 40
0.971
 50
180.0
 51
188.194
  0
ARC
  8
APS_GEOMETRY
 10
27.237
 20
-30.5
 40
0.238
 50
188.194
 51
204.775
  0
ARC
  8
APS_GEOMETRY
 10
27.166
 20
-30.532
 40
0.161
 50
204.775
 51
228.576
  0
ARC
  8
APS_GEOMETRY
 10
27.233
 20
-30.457
 40
0.261
 50
228.576
 51
247.218
  0
ARC
  8
APS_GEOMETRY
 10
26.849
 20
-31.361
 40
0.721
 50
59.381
 51
66.93
  0
ARC
  8
APS_GEOMETRY
 10
27.132
 20
-30.883
 40
0.165
 50
43.568
 51
59.381
  0
ARC
  8
APS_GEOMETRY
 10
27.177
 20
-30.84
 40
0.103
 50
19.041
 51
43.568
  0
ARC
  8
APS_GEOMETRY
 10
27.115
 20
-30.861
 40
0.169
 50
360.0
 51
19.041
  0
ARC
  8
APS_GEOMETRY
 10
27.146
 20
-30.861
 40
0.137
 50
317.66
 51
360.0
  0
ARC
  8
APS_GEOMETRY
 10
27.02
 20
-30.746
 40
0.308
 50
289.747
 51
317.66
  0
ARC
  8
APS_GEOMETRY
 10
26.915
 20
-30.452
 40
0.621
 50
281.964
 51
289.747
  0
ARC
  8
APS_GEOMETRY
 10
26.768
 20
-29.762
 40
1.327
 50
276.643
 51
281.964
  0
ARC
  8
APS_GEOMETRY
 10
26.707
 20
-29.233
 40
1.859
 50
272.836
 51
276.643
  0
ARC
  8
APS_GEOMETRY
 10
26.633
 20
-27.744
 40
3.35
 50
270.0
 51
272.836
  0
ARC
  8
APS_GEOMETRY
 10
26.633
 20
-26.822
 40
4.272
 50
267.283
 51
270.0
  0
ARC
  8
APS_GEOMETRY
 10
26.543
 20
-28.712
 40
2.38
 50
263.643
 51
267.283
  0
ARC
  8
APS_GEOMETRY
 10
26.468
 20
-29.386
 40
1.701
 50
258.563
 51
263.643
  0
ARC
  8
APS_GEOMETRY
 10
26.289
 20
-30.273
 40
0.796
 50
251.136
 51
258.563
  0
ARC
  8
APS_GEOMETRY
 10
26.128
 20
-30.737
 40
0.305
 50
222.558
 51
251.395
  0
ARC
  8
APS_GEOMETRY
 10
26.01
 20
-30.847
 40
0.144
 50
180.0
 51
222.558
  0
ARC
  8
APS_GEOMETRY
 10
25.986
 20
-30.847
 40
0.12
 50
150.642
 51
180.0
  0
ARC
  8
APS_GEOMETRY
 10
25.995
 20
-30.852
 40
0.131
 50
122.574
 51
150.642
  0
ARC
  8
APS_GEOMETRY
 10
25.97
 20
-30.823
 40
0.093
 50
108.677
 51
119.055
  0
ARC
  8
APS_GEOMETRY
 10
27.126
 20
-34.242
 40
3.702
 50
107.038
 51
108.677
  0
ARC
  8
APS_GEOMETRY
 10
25.998
 20
-30.554
 40
0.155
 50
286.144
 51
308.66
  0
ARC
  8
APS_GEOMETRY
 10
26.023
 20
-30.586
 40
0.114
 50
308.66
 51
334.933
  0
ARC
  8
APS_GEOMETRY
 10
25.92
 20
-30.537
 40
0.228
 50
334.933
 51
348.829
  0
ARC
  8
APS_GEOMETRY
 10
24.629
 20
-30.282
 40
1.545
 50
348.829
 51
354.161
  0
ARC
  8
APS_GEOMETRY
 10
23.756
 20
-30.192
 40
2.422
 50
354.144
 51
355.66
  0
ARC
  8
APS_GEOMETRY
 10
19.887
 20
-29.899
 40
6.302
 50
355.66
 51
356.6
  0
ARC
  8
APS_GEOMETRY
 10
16.93
 20
-29.723
 40
9.265
 50
356.6
 51
357.24
  0
ARC
  8
APS_GEOMETRY
 10
8.538
 20
-29.318
 40
17.666
 50
357.24
 51
357.703
  0
ARC
  8
APS_GEOMETRY
 10
9.364
 20
-29.352
 40
16.839
 50
357.703
 51
358.674
  0
ARC
  8
APS_GEOMETRY
 10
17.156
 20
-29.532
 40
9.045
 50
358.674
 51
0.0
  0
ARC
  8
APS_GEOMETRY
 10
24.861
 20
-29.532
 40
1.341
 50
360.0
 51
6.242
  0
ARC
  8
APS_GEOMETRY
 10
25.927
 20
-29.415
 40
0.268
 50
6.242
 51
20.225
  0
ARC
  8
APS_GEOMETRY
 10
26.074
 20
-29.361
 40
0.111
 50
20.225
 51
50.44
  0
ARC
  8
APS_GEOMETRY
 10
26.103
 20
-29.326
 40
0.066
 50
50.44
 51
90.0
  0
ARC
  8
APS_GEOMETRY
 10
26.103
 20
-29.349
 40
0.088
 50
90.0
 51
126.747
  0
ARC
  8
APS_GEOMETRY
 10
26.228
 20
-29.515
 40
0.296
 50
126.747
 51
146.547
  0
ARC
  8
APS_GEOMETRY
 10
24.028
 20
-28.07
 40
2.336
 50
324.255
 51
326.701
  0
ARC
  8
APS_GEOMETRY
 10
24.959
 20
-28.74
 40
1.188
 50
320.826
 51
324.255
  0
ARC
  8
APS_GEOMETRY
 10
25.264
 20
-28.988
 40
0.796
 50
315.722
 51
320.826
  0
ARC
  8
APS_GEOMETRY
 10
25.613
 20
-29.329
 40
0.307
 50
307.504
 51
315.722
  0
ARC
  8
APS_GEOMETRY
 10
25.581
 20
-29.286
 40
0.361
 50
291.306
 51
307.405
  0
ARC
  8
APS_GEOMETRY
 10
25.637
 20
-29.429
 40
0.207
 50
270.0
 51
291.306
  0
ARC
  8
APS_GEOMETRY
 10
25.637
 20
-29.443
 40
0.194
 50
245.532
 51
270.0
  0
ARC
  8
APS_GEOMETRY
 10
25.636
 20
-29.446
 40
0.19
 50
220.833
 51
245.532
  0
ARC
  8
APS_GEOMETRY
 10
25.655
 20
-29.429
 40
0.216
 50
198.684
 51
220.833
  0
ARC
  8
APS_GEOMETRY
 10
25.737
 20
-29.401
 40
0.303
 50
180.0
 51
198.684
  0
ARC
  8
APS_GEOMETRY
 10
25.93
 20
-29.401
 40
0.495
 50
168.408
 51
180.0
  0
ARC
  8
APS_GEOMETRY
 10
26.247
 20
-29.466
 40
0.82
 50
159.402
 51
168.408
  0
ARC
  8
APS_GEOMETRY
 10
26.345
 20
-29.503
 40
0.924
 50
151.39
 51
159.402
  0
ARC
  8
APS_GEOMETRY
 10
26.325
 20
-29.492
 40
0.902
 50
143.276
 51
151.39
  0
ARC
  8
APS_GEOMETRY
 10
26.073
 20
-29.303
 40
0.586
 50
124.216
 51
143.31
  0
ARC
  8
APS_GEOMETRY
 10
25.848
 20
-28.973
 40
0.186
 50
90.0
 51
124.216
  0
ARC
  8
APS_GEOMETRY
 10
25.848
 20
-29.056
 40
0.269
 50
82.725
 51
90.0
  0
ARC
  8
APS_GEOMETRY
 10
25.827
 20
-29.22
 40
0.435
 50
77.005
 51
82.725
  0
ARC
  8
APS_GEOMETRY
 10
26.469
 20
-26.123
 40
2.728
 50
258.486
 51
260.378
  0
ARC
  8
APS_GEOMETRY
 10
26.194
 20
-27.746
 40
1.082
 50
260.378
 51
263.382
  0
ARC
  8
APS_GEOMETRY
 10
26.171
 20
-27.949
 40
0.877
 50
263.382
 51
267.084
  0
ARC
  8
APS_GEOMETRY
 10
26.198
 20
-27.414
 40
1.414
 50
267.084
 51
270.0
  0
ARC
  8
APS_GEOMETRY
 10
29.184
 20
-30.07
 40
1.289
 50
71.91
 51
90.0
  0
ARC
  8
APS_GEOMETRY
 10
29.234
 20
-29.918
 40
1.128
 50
52.561
 51
71.91
  0
ARC
  8
APS_GEOMETRY
 10
29.221
 20
-29.921
 40
1.139
 50
38.846
 51
52.156
  0
ARC
  8
APS_GEOMETRY
 10
29.042
 20
-30.065
 40
1.369
 50
26.707
 51
38.846
  0
ARC
  8
APS_GEOMETRY
 10
29.078
 20
-30.036
 40
1.324
 50
13.868
 51
26.278
  0
ARC
  8
APS_GEOMETRY
 10
29.333
 20
-29.973
 40
1.061
 50
360.0
 51
13.868
  0
ARC
  8
APS_GEOMETRY
 10
29.349
 20
-29.973
 40
1.045
 50
339.712
 51
360.0
  0
ARC
  8
APS_GEOMETRY
 10
29.291
 20
-29.952
 40
1.108
 50
320.013
 51
339.712
  0
ARC
  8
APS_GEOMETRY
 10
29.281
 20
-29.946
 40
1.119
 50
303.344
 51
320.123
  0
ARC
  8
APS_GEOMETRY
 10
29.166
 20
-29.772
 40
1.327
 50
287.949
 51
303.344
  0
ARC
  8
APS_GEOMETRY
 10
29.128
 20
-29.641
 40
1.463
 50
279.039
 51
287.776
  0
ARC
  8
APS_GEOMETRY
 10
29.143
 20
-29.736
 40
1.367
 50
270.0
 51
279.039
  0
ARC
  8
APS_GEOMETRY
 10
29.143
 20
-29.803
 40
1.301
 50
257.728
 51
270.0
  0
ARC
  8
APS_GEOMETRY
 10
29.145
 20
-29.793
 40
1.31
 50
245.501
 51
257.728
  0
ARC
  8
APS_GEOMETRY
 10
29.072
 20
-29.955
 40
1.133
 50
228.665
 51
245.511
  0
ARC
  8
APS_GEOMETRY
 10
29.047
 20
-29.982
 40
1.096
 50
211.535
 51
228.665
  0
ARC
  8
APS_GEOMETRY
 10
29.079
 20
-29.959
 40
1.136
 50
195.642
 51
211.701
  0
ARC
  8
APS_GEOMETRY
 10
29.138
 20
-29.942
 40
1.197
 50
180.0
 51
195.642
  0
ARC
  8
APS_GEOMETRY
 10
29.151
 20
-29.942
 40
1.209
 50
162.181
 51
180.0
  0
ARC
  8
APS_GEOMETRY
 10
29.04
 20
-29.907
 40
1.093
 50
143.434
 51
162.181
  0
ARC
  8
APS_GEOMETRY
 10
29.025
 20
-29.895
 40
1.074
 50
126.384
 51
143.471
  0
ARC
  8
APS_GEOMETRY
 10
29.127
 20
-30.033
 40
1.246
 50
110.525
 51
126.384
  0
ARC
  8
APS_GEOMETRY
 10
29.122
 20
-29.996
 40
1.209
 50
99.77
 51
110.925
  0
ARC
  8
APS_GEOMETRY
 10
29.184
 20
-30.356
 40
1.575
 50
90.0
 51
99.77
  0
ARC
  8
APS_GEOMETRY
 10
29.029
 20
-29.491
 40
0.24
 50
90.0
 51
119.604
  0
ARC
  8
APS_GEOMETRY
 10
29.05
 20
-29.528
 40
0.283
 50
119.604
 51
146.842
  0
ARC
  8
APS_GEOMETRY
 10
29.092
 20
-29.563
 40
0.337
 50
145.84
 51
164.055
  0
ARC
  8
APS_GEOMETRY
 10
29.19
 20
-29.591
 40
0.439
 50
164.055
 51
180.0
  0
ARC
  8
APS_GEOMETRY
 10
29.804
 20
-29.591
 40
1.053
 50
180.0
 51
189.977
  0
ARC
  8
APS_GEOMETRY
 10
30.736
 20
-29.427
 40
2.0
 50
189.977
 51
197.211
  0
ARC
  8
APS_GEOMETRY
 10
30.94
 20
-29.364
 40
2.213
 50
197.211
 51
203.76
  0
ARC
  8
APS_GEOMETRY
 10
30.432
 20
-29.587
 40
1.658
 50
203.76
 51
211.329
  0
ARC
  8
APS_GEOMETRY
 10
29.389
 20
-30.213
 40
0.441
 50
212.32
 51
224.441
  0
ARC
  8
APS_GEOMETRY
 10
29.346
 20
-30.255
 40
0.381
 50
224.441
 51
237.484
  0
ARC
  8
APS_GEOMETRY
 10
29.318
 20
-30.299
 40
0.33
 50
237.484
 51
252.416
  0
ARC
  8
APS_GEOMETRY
 10
29.291
 20
-30.386
 40
0.238
 50
252.416
 51
270.0
  0
ARC
  8
APS_GEOMETRY
 10
29.291
 20
-30.358
 40
0.267
 50
270.0
 51
294.953
  0
ARC
  8
APS_GEOMETRY
 10
29.298
 20
-30.374
 40
0.249
 50
294.953
 51
320.793
  0
ARC
  8
APS_GEOMETRY
 10
29.258
 20
-30.341
 40
0.301
 50
320.793
 51
342.777
  0
ARC
  8
APS_GEOMETRY
 10
29.08
 20
-30.286
 40
0.487
 50
342.777
 51
0.0
  0
ARC
  8
APS_GEOMETRY
 10
28.242
 20
-30.286
 40
1.325
 50
0.0
 51
8.499
  0
ARC
  8
APS_GEOMETRY
 10
27.658
 20
-30.373
 40
1.915
 50
8.499
 51
15.566
  0
ARC
  8
APS_GEOMETRY
 10
27.728
 20
-30.353
 40
1.842
 50
15.566
 51
22.909
  0
ARC
  8
APS_GEOMETRY
 10
28.331
 20
-30.098
 40
1.188
 50
22.909
 51
32.057
  0
ARC
  8
APS_GEOMETRY
 10
28.805
 20
-29.8
 40
0.628
 50
31.921
 51
42.51
  0
ARC
  8
APS_GEOMETRY
 10
28.935
 20
-29.681
 40
0.451
 50
42.51
 51
55.008
  0
ARC
  8
APS_GEOMETRY
 10
28.979
 20
-29.618
 40
0.374
 50
55.008
 51
69.88
  0
ARC
  8
APS_GEOMETRY
 10
29.019
 20
-29.51
 40
0.26
 50
69.88
 51
87.754
  0
ARC
  8
APS_GEOMETRY
 10
31.605
 20
-29.581
 40
0.799
 50
83.923
 51
90.0
  0
ARC
  8
APS_GEOMETRY
 10
31.541
 20
-30.184
 40
1.406
 50
79.342
 51
83.923
  0
ARC
  8
APS_GEOMETRY
 10
31.463
 20
-30.596
 40
1.826
 50
75.808
 51
79.342
  0
ARC
  8
APS_GEOMETRY
 10
31.193
 20
-31.666
 40
2.929
 50
73.018
 51
75.808
  0
ARC
  8
APS_GEOMETRY
 10
32.146
 20
-28.541
 40
0.338
 50
253.288
 51
259.046
  0
ARC
  8
APS_GEOMETRY
 10
32.099
 20
-28.781
 40
0.093
 50
259.046
 51
270.0
  0
ARC
  8
APS_GEOMETRY
 10
32.099
 20
-28.819
 40
0.055
 50
270.0
 51
286.699
  0
ARC
  8
APS_GEOMETRY
 10
31.655
 20
-27.34
 40
1.599
 50
286.699
 51
289.799
  0
ARC
  8
APS_GEOMETRY
 10
32.25
 20
-28.986
 40
0.15
 50
100.008
 51
110.556
  0
ARC
  8
APS_GEOMETRY
 10
32.253
 20
-29.002
 40
0.167
 50
90.0
 51
100.008
  0
ARC
  8
APS_GEOMETRY
 10
32.253
 20
-28.994
 40
0.159
 50
53.356
 51
90.0
  0
ARC
  8
APS_GEOMETRY
 10
31.975
 20
-29.368
 40
0.624
 50
35.101
 51
53.356
  0
ARC
  8
APS_GEOMETRY
 10
31.837
 20
-29.465
 40
0.794
 50
20.245
 51
35.101
  0
ARC
  8
APS_GEOMETRY
 10
32.178
 20
-29.339
 40
0.429
 50
360.0
 51
20.245
  0
ARC
  8
APS_GEOMETRY
 10
32.35
 20
-29.339
 40
0.257
 50
340.481
 51
360.0
  0
ARC
  8
APS_GEOMETRY
 10
32.393
 20
-29.354
 40
0.213
 50
318.972
 51
340.481
  0
ARC
  8
APS_GEOMETRY
 10
32.411
 20
-29.37
 40
0.187
 50
295.017
 51
318.972
  0
ARC
  8
APS_GEOMETRY
 10
32.418
 20
-29.384
 40
0.172
 50
270.0
 51
295.017
  0
ARC
  8
APS_GEOMETRY
 10
32.418
 20
-29.292
 40
0.264
 50
256.171
 51
270.0
  0
ARC
  8
APS_GEOMETRY
 10
32.389
 20
-29.409
 40
0.144
 50
237.381
 51
256.171
  0
ARC
  8
APS_GEOMETRY
 10
32.44
 20
-29.33
 40
0.238
 50
231.559
 51
237.381
  0
ARC
  8
APS_GEOMETRY
 10
33.182
 20
-28.395
 40
1.432
 50
229.185
 51
231.559
  0
ARC
  8
APS_GEOMETRY
 10
33.978
 20
-27.474
 40
2.649
 50
227.9
 51
229.185
  0
ARC
  8
APS_GEOMETRY
 10
36.73
 20
-24.427
 40
6.755
 50
227.095
 51
227.9
  0
ARC
  8
APS_GEOMETRY
 10
31.562
 20
-29.985
 40
0.835
 50
46.975
 51
64.612
  0
ARC
  8
APS_GEOMETRY
 10
31.746
 20
-29.598
 40
0.406
 50
64.612
 51
90.0
  0
ARC
  8
APS_GEOMETRY
 10
31.746
 20
-29.485
 40
0.293
 50
90.0
 51
106.966
  0
ARC
  8
APS_GEOMETRY
 10
31.712
 20
-29.373
 40
0.177
 50
106.966
 51
128.868
  0
ARC
  8
APS_GEOMETRY
 10
31.692
 20
-29.349
 40
0.145
 50
128.868
 51
154.741
  0
ARC
  8
APS_GEOMETRY
 10
31.699
 20
-29.352
 40
0.152
 50
154.741
 51
180.0
  0
ARC
  8
APS_GEOMETRY
 10
31.689
 20
-29.352
 40
0.143
 50
180.0
 51
206.64
  0
ARC
  8
APS_GEOMETRY
 10
31.735
 20
-29.329
 40
0.195
 50
206.64
 51
229.43
  0
ARC
  8
APS_GEOMETRY
 10
31.809
 20
-29.243
 40
0.308
 50
229.43
 51
244.493
  0
ARC
  8
APS_GEOMETRY
 10
32.012
 20
-28.819
 40
0.778
 50
244.493
 51
253.956
  0
ARC
  8
APS_GEOMETRY
 10
28.408
 20
-41.065
 40
11.988
 50
72.737
 51
73.58
  0
ARC
  8
APS_GEOMETRY
 10
30.473
 20
-34.42
 40
5.029
 50
71.435
 51
72.737
  0
ARC
  8
APS_GEOMETRY
 10
31.157
 20
-32.383
 40
2.88
 50
69.164
 51
71.435
  0
ARC
  8
APS_GEOMETRY
 10
31.964
 20
-30.262
 40
0.611
 50
64.231
 51
69.164
  0
ARC
  8
APS_GEOMETRY
 10
31.872
 20
-30.449
 40
0.819
 50
34.939
 51
64.068
  0
ARC
  8
APS_GEOMETRY
 10
32.072
 20
-30.309
 40
0.575
 50
360.0
 51
34.939
  0
ARC
  8
APS_GEOMETRY
 10
31.949
 20
-30.309
 40
0.698
 50
333.435
 51
360.0
  0
ARC
  8
APS_GEOMETRY
 10
31.903
 20
-30.286
 40
0.749
 50
307.807
 51
333.435
  0
ARC
  8
APS_GEOMETRY
 10
31.784
 20
-30.132
 40
0.943
 50
296.732
 51
307.786
  0
ARC
  8
APS_GEOMETRY
 10
31.714
 20
-29.993
 40
1.099
 50
286.496
 51
296.732
  0
ARC
  8
APS_GEOMETRY
 10
31.668
 20
-29.836
 40
1.262
 50
277.544
 51
286.496
  0
ARC
  8
APS_GEOMETRY
 10
31.6
 20
-29.327
 40
1.776
 50
270.0
 51
277.544
  0
ARC
  8
APS_GEOMETRY
 10
31.6
 20
-29.25
 40
1.854
 50
263.555
 51
270.0
  0
ARC
  8
APS_GEOMETRY
 10
31.66
 20
-28.719
 40
2.388
 50
257.878
 51
263.555
  0
ARC
  8
APS_GEOMETRY
 10
31.629
 20
-28.867
 40
2.236
 50
254.839
 51
257.878
  0
ARC
  8
APS_GEOMETRY
 10
31.37
 20
-29.82
 40
1.249
 50
250.772
 51
254.839
  0
ARC
  8
APS_GEOMETRY
 10
31.254
 20
-30.153
 40
0.896
 50
245.121
 51
250.772
  0
ARC
  8
APS_GEOMETRY
 10
31.057
 20
-30.577
 40
0.428
 50
236.944
 51
245.121
  0
ARC
  8
APS_GEOMETRY
 10
30.941
 20
-30.76
 40
0.212
 50
211.802
 51
236.31
  0
ARC
  8
APS_GEOMETRY
 10
31.493
 20
-30.418
 40
0.861
 50
199.704
 51
211.802
  0
ARC
  8
APS_GEOMETRY
 10
31.756
 20
-30.324
 40
1.14
 50
190.413
 51
199.704
  0
ARC
  8
APS_GEOMETRY
 10
31.528
 20
-30.366
 40
0.908
 50
180.0
 51
190.413
  0
ARC
  8
APS_GEOMETRY
 10
30.913
 20
-30.366
 40
0.293
 50
164.876
 51
180.0
  0
ARC
  8
APS_GEOMETRY
 10
30.747
 20
-30.321
 40
0.122
 50
141.34
 51
164.876
  0
ARC
  8
APS_GEOMETRY
 10
30.763
 20
-30.332
 40
0.141
 50
116.928
 51
142.001
  0
ARC
  8
APS_GEOMETRY
 10
30.755
 20
-30.315
 40
0.123
 50
90.0
 51
116.928
  0
ARC
  8
APS_GEOMETRY
 10
30.755
 20
-30.316
 40
0.123
 50
62.21
 51
90.0
  0
ARC
  8
APS_GEOMETRY
 10
30.706
 20
-30.409
 40
0.229
 50
41.906
 51
62.21
  0
ARC
  8
APS_GEOMETRY
 10
30.714
 20
-30.411
 40
0.224
 50
37.313
 51
43.668
  0
ARC
  8
APS_GEOMETRY
 10
29.461
 20
-31.366
 40
1.8
 50
35.074
 51
37.313
  0
ARC
  8
APS_GEOMETRY
 10
28.037
 20
-32.365
 40
3.539
 50
33.934
 51
35.074
  0
ARC
  8
APS_GEOMETRY
 10
22.963
 20
-35.78
 40
9.655
 50
33.243
 51
33.934
  0
ARC
  8
APS_GEOMETRY
 10
31.319
 20
-30.301
 40
0.336
 50
213.453
 51
231.637
  0
ARC
  8
APS_GEOMETRY
 10
31.477
 20
-30.101
 40
0.592
 50
231.637
 51
245.313
  0
ARC
  8
APS_GEOMETRY
 10
31.512
 20
-30.025
 40
0.676
 50
245.313
 51
257.398
  0
ARC
  8
APS_GEOMETRY
 10
31.501
 20
-30.077
 40
0.622
 50
257.398
 51
270.0
  0
ARC
  8
APS_GEOMETRY
 10
31.501
 20
-30.174
 40
0.525
 50
270.0
 51
282.907
  0
ARC
  8
APS_GEOMETRY
 10
31.557
 20
-30.421
 40
0.272
 50
282.907
 51
300.872
  0
ARC
  8
APS_GEOMETRY
 10
31.606
 20
-30.503
 40
0.177
 50
300.872
 51
326.876
  0
ARC
  8
APS_GEOMETRY
 10
31.662
 20
-30.539
 40
0.11
 50
326.876
 51
0.0
  0
ARC
  8
APS_GEOMETRY
 10
31.646
 20
-30.539
 40
0.127
 50
0.0
 51
27.553
  0
ARC
  8
APS_GEOMETRY
 10
31.605
 20
-30.56
 40
0.172
 50
27.553
 51
51.147
  0
ARC
  8
APS_GEOMETRY
 10
31.523
 20
-30.663
 40
0.304
 50
51.147
 51
65.225
  0
ARC
  8
APS_GEOMETRY
 10
31.218
 20
-31.324
 40
1.032
 50
65.225
 51
72.848
  0
ARC
  8
APS_GEOMETRY
 10
33.0
 20
-25.642
 40
4.923
 50
251.106
 51
252.532
  0
ARC
  8
APS_GEOMETRY
 10
32.369
 20
-27.485
 40
2.975
 50
249.271
 51
251.106
  0
ARC
  8
APS_GEOMETRY
 10
32.107
 20
-28.178
 40
2.234
 50
246.83
 51
249.271
  0
ARC
  8
APS_GEOMETRY
 10
31.682
 20
-29.169
 40
1.156
 50
243.435
 51
246.83
  0
ARC
  8
APS_GEOMETRY
 10
31.634
 20
-29.266
 40
1.048
 50
235.981
 51
243.435
  0
ARC
  8
APS_GEOMETRY
 10
31.671
 20
-29.211
 40
1.114
 50
228.752
 51
235.981
  0
ARC
  8
APS_GEOMETRY
 10
31.498
 20
-29.416
 40
0.846
 50
206.421
 51
228.457
  0
ARC
  8
APS_GEOMETRY
 10
31.27
 20
-29.529
 40
0.592
 50
180.0
 51
206.421
  0
ARC
  8
APS_GEOMETRY
 10
31.281
 20
-29.529
 40
0.602
 50
166.555
 51
180.0
  0
ARC
  8
APS_GEOMETRY
 10
31.35
 20
-29.545
 40
0.674
 50
153.848
 51
166.555
  0
ARC
  8
APS_GEOMETRY
 10
31.356
 20
-29.548
 40
0.681
 50
141.244
 51
153.848
  0
ARC
  8
APS_GEOMETRY
 10
31.399
 20
-29.583
 40
0.736
 50
129.123
 51
141.244
  0
ARC
  8
APS_GEOMETRY
 10
31.537
 20
-29.729
 40
0.936
 50
108.978
 51
130.006
  0
ARC
  8
APS_GEOMETRY
 10
31.605
 20
-29.928
 40
1.147
 50
90.0
 51
108.978
  0
ARC
  8
APS_GEOMETRY
 10
34.105
 20
-29.845
 40
1.063
 50
77.257
 51
90.0
  0
ARC
  8
APS_GEOMETRY
 10
34.094
 20
-29.892
 40
1.112
 50
64.799
 51
77.257
  0
ARC
  8
APS_GEOMETRY
 10
35.01
 20
-27.942
 40
1.042
 50
244.885
 51
251.175
  0
ARC
  8
APS_GEOMETRY
 10
34.711
 20
-28.818
 40
0.117
 50
251.175
 51
270.0
  0
ARC
  8
APS_GEOMETRY
 10
34.711
 20
-28.745
 40
0.19
 50
270.0
 51
278.82
  0
ARC
  8
APS_GEOMETRY
 10
34.589
 20
-27.952
 40
0.992
 50
278.82
 51
282.68
  0
ARC
  8
APS_GEOMETRY
 10
34.846
 20
-29.091
 40
0.176
 50
95.906
 51
102.995
  0
ARC
  8
APS_GEOMETRY
 10
34.854
 20
-29.168
 40
0.253
 50
90.0
 51
95.906
  0
ARC
  8
APS_GEOMETRY
 10
34.854
 20
-29.083
 40
0.168
 50
62.447
 51
90.0
  0
ARC
  8
APS_GEOMETRY
 10
34.824
 20
-29.14
 40
0.232
 50
39.094
 51
62.447
  0
ARC
  8
APS_GEOMETRY
 10
34.512
 20
-29.401
 40
0.639
 50
18.435
 51
39.611
  0
ARC
  8
APS_GEOMETRY
 10
34.321
 20
-29.465
 40
0.84
 50
360.0
 51
18.435
  0
ARC
  8
APS_GEOMETRY
 10
34.744
 20
-29.465
 40
0.417
 50
334.877
 51
360.0
  0
ARC
  8
APS_GEOMETRY
 10
34.87
 20
-29.524
 40
0.278
 50
304.007
 51
334.877
  0
ARC
  8
APS_GEOMETRY
 10
34.868
 20
-29.518
 40
0.284
 50
286.39
 51
303.69
  0
ARC
  8
APS_GEOMETRY
 10
34.859
 20
-29.487
 40
0.317
 50
270.0
 51
286.39
  0
ARC
  8
APS_GEOMETRY
 10
34.859
 20
-29.491
 40
0.313
 50
255.155
 51
270.0
  0
ARC
  8
APS_GEOMETRY
 10
34.824
 20
-29.62
 40
0.179
 50
235.491
 51
255.155
  0
ARC
  8
APS_GEOMETRY
 10
34.842
 20
-29.595
 40
0.209
 50
218.48
 51
235.491
  0
ARC
  8
APS_GEOMETRY
 10
35.123
 20
-29.371
 40
0.568
 50
208.179
 51
218.48
  0
ARC
  8
APS_GEOMETRY
 10
32.241
 20
-30.935
 40
2.71
 50
28.56
 51
31.664
  0
ARC
  8
APS_GEOMETRY
 10
34.002
 20
-29.85
 40
0.641
 50
31.664
 51
38.047
  0
ARC
  8
APS_GEOMETRY
 10
34.13
 20
-29.749
 40
0.479
 50
38.047
 51
46.56
  0
ARC
  8
APS_GEOMETRY
 10
34.063
 20
-29.82
 40
0.576
 50
46.56
 51
54.324
  0
ARC
  8
APS_GEOMETRY
 10
34.025
 20
-29.886
 40
0.652
 50
54.968
 51
71.48
  0
ARC
  8
APS_GEOMETRY
 10
34.067
 20
-29.76
 40
0.519
 50
71.48
 51
90.0
  0
ARC
  8
APS_GEOMETRY
 10
34.067
 20
-29.603
 40
0.363
 50
90.0
 51
114.63
  0
ARC
  8
APS_GEOMETRY
 10
34.049
 20
-29.564
 40
0.319
 50
114.63
 51
140.921
  0
ARC
  8
APS_GEOMETRY
 10
34.103
 20
-29.607
 40
0.388
 50
140.921
 51
163.13
  0
ARC
  8
APS_GEOMETRY
 10
34.372
 20
-29.689
 40
0.669
 50
163.13
 51
180.0
  0
ARC
  8
APS_GEOMETRY
 10
34.72
 20
-29.689
 40
1.018
 50
180.0
 51
195.44
  0
ARC
  8
APS_GEOMETRY
 10
34.667
 20
-29.704
 40
0.963
 50
195.44
 51
211.316
  0
ARC
  8
APS_GEOMETRY
 10
34.413
 20
-29.853
 40
0.668
 50
211.708
 51
240.457
  0
ARC
  8
APS_GEOMETRY
 10
34.396
 20
-29.883
 40
0.633
 50
240.457
 51
270.0
  0
ARC
  8
APS_GEOMETRY
 10
34.396
 20
-29.729
 40
0.788
 50
270.0
 51
279.549
  0
ARC
  8
APS_GEOMETRY
 10
34.386
 20
-29.671
 40
0.847
 50
279.549
 51
288.759
  0
ARC
  8
APS_GEOMETRY
 10
34.427
 20
-29.792
 40
0.718
 50
288.759
 51
299.545
  0
ARC
  8
APS_GEOMETRY
 10
34.593
 20
-30.084
 40
0.383
 50
299.545
 51
314.341
  0
ARC
  8
APS_GEOMETRY
 10
35.105
 20
-30.616
 40
0.355
 50
120.141
 51
133.452
  0
ARC
  8
APS_GEOMETRY
 10
34.962
 20
-30.369
 40
0.071
 50
90.0
 51
120.141
  0
ARC
  8
APS_GEOMETRY
 10
34.962
 20
-30.41
 40
0.111
 50
61.952
 51
90.0
  0
ARC
  8
APS_GEOMETRY
 10
34.945
 20
-30.441
 40
0.147
 50
37.569
 51
61.952
  0
ARC
  8
APS_GEOMETRY
 10
34.914
 20
-30.465
 40
0.186
 50
17.665
 51
37.569
  0
ARC
  8
APS_GEOMETRY
 10
34.867
 20
-30.48
 40
0.235
 50
360.0
 51
17.665
  0
ARC
  8
APS_GEOMETRY
 10
34.748
 20
-30.48
 40
0.354
 50
344.932
 51
0.0
  0
ARC
  8
APS_GEOMETRY
 10
34.433
 20
-30.396
 40
0.68
 50
334.075
 51
344.932
  0
ARC
  8
APS_GEOMETRY
 10
34.423
 20
-30.391
 40
0.691
 50
323.374
 51
334.075
  0
ARC
  8
APS_GEOMETRY
 10
34.627
 20
-30.542
 40
0.438
 50
309.92
 51
323.374
  0
ARC
  8
APS_GEOMETRY
 10
34.83
 20
-30.781
 40
0.124
 50
289.026
 51
308.991
  0
ARC
  8
APS_GEOMETRY
 10
34.613
 20
-30.153
 40
0.789
 50
281.143
 51
289.026
  0
ARC
  8
APS_GEOMETRY
 10
34.833
 20
-31.292
 40
0.372
 50
100.437
 51
110.12
  0
ARC
  8
APS_GEOMETRY
 10
35.124
 20
-32.087
 40
1.218
 50
110.12
 51
115.463
  0
ARC
  8
APS_GEOMETRY
 10
34.085
 20
-29.913
 40
1.192
 50
282.94
 51
295.628
  0
ARC
  8
APS_GEOMETRY
 10
34.095
 20
-29.957
 40
1.146
 50
270.0
 51
282.94
  0
ARC
  8
APS_GEOMETRY
 10
34.095
 20
-29.89
 40
1.214
 50
257.307
 51
270.0
  0
ARC
  8
APS_GEOMETRY
 10
34.146
 20
-29.662
 40
1.447
 50
245.686
 51
257.307
  0
ARC
  8
APS_GEOMETRY
 10
34.018
 20
-29.944
 40
1.137
 50
228.801
 51
245.735
  0
ARC
  8
APS_GEOMETRY
 10
34.02
 20
-29.942
 40
1.14
 50
211.891
 51
228.801
  0
ARC
  8
APS_GEOMETRY
 10
34.087
 20
-29.893
 40
1.223
 50
196.728
 51
212.152
  0
ARC
  8
APS_GEOMETRY
 10
33.913
 20
-29.946
 40
1.041
 50
180.0
 51
196.728
  0
ARC
  8
APS_GEOMETRY
 10
33.938
 20
-29.946
 40
1.066
 50
161.184
 51
180.0
  0
ARC
  8
APS_GEOMETRY
 10
34.007
 20
-29.969
 40
1.139
 50
142.98
 51
161.184
  0
ARC
  8
APS_GEOMETRY
 10
34.06
 20
-30.01
 40
1.206
 50
127.824
 51
142.958
  0
ARC
  8
APS_GEOMETRY
 10
34.148
 20
-30.123
 40
1.349
 50
113.52
 51
127.824
  0
ARC
  8
APS_GEOMETRY
 10
34.119
 20
-30.057
 40
1.277
 50
101.927
 51
113.527
  0
ARC
  8
APS_GEOMETRY
 10
34.105
 20
-29.989
 40
1.208
 50
90.0
 51
101.927
  0
ARC
  8
APS_GEOMETRY
 10
36.629
 20
-30.07
 40
1.289
 50
71.91
 51
90.0
  0
ARC
  8
APS_GEOMETRY
 10
36.679
 20
-29.918
 40
1.128
 50
52.561
 51
71.91
  0
ARC
  8
APS_GEOMETRY
 10
36.666
 20
-29.921
 40
1.139
 50
38.846
 51
52.156
  0
ARC
  8
APS_GEOMETRY
 10
36.487
 20
-30.065
 40
1.369
 50
26.707
 51
38.846
  0
ARC
  8
APS_GEOMETRY
 10
36.522
 20
-30.036
 40
1.324
 50
13.868
 51
26.278
  0
ARC
  8
APS_GEOMETRY
 10
36.777
 20
-29.973
 40
1.061
 50
360.0
 51
13.868
  0
ARC
  8
APS_GEOMETRY
 10
36.794
 20
-29.973
 40
1.045
 50
339.712
 51
360.0
  0
ARC
  8
APS_GEOMETRY
 10
36.735
 20
-29.952
 40
1.108
 50
320.013
 51
339.712
  0
ARC
  8
APS_GEOMETRY
 10
36.725
 20
-29.946
 40
1.119
 50
303.344
 51
320.123
  0
ARC
  8
APS_GEOMETRY
 10
36.611
 20
-29.772
 40
1.327
 50
287.949
 51
303.344
  0
ARC
  8
APS_GEOMETRY
 10
36.573
 20
-29.641
 40
1.463
 50
279.039
 51
287.776
  0
ARC
  8
APS_GEOMETRY
 10
36.588
 20
-29.736
 40
1.367
 50
270.0
 51
279.039
  0
ARC
  8
APS_GEOMETRY
 10
36.588
 20
-29.803
 40
1.301
 50
257.728
 51
270.0
  0
ARC
  8
APS_GEOMETRY
 10
36.59
 20
-29.793
 40
1.31
 50
245.501
 51
257.728
  0
ARC
  8
APS_GEOMETRY
 10
36.516
 20
-29.955
 40
1.133
 50
228.665
 51
245.511
  0
ARC
  8
APS_GEOMETRY
 10
36.492
 20
-29.982
 40
1.096
 50
211.535
 51
228.665
  0
ARC
  8
APS_GEOMETRY
 10
36.524
 20
-29.959
 40
1.136
 50
195.642
 51
211.701
  0
ARC
  8
APS_GEOMETRY
 10
36.583
 20
-29.942
 40
1.197
 50
180.0
 51
195.642
  0
ARC
  8
APS_GEOMETRY
 10
36.595
 20
-29.942
 40
1.209
 50
162.181
 51
180.0
  0
ARC
  8
APS_GEOMETRY
 10
36.485
 20
-29.907
 40
1.093
 50
143.434
 51
162.181
  0
ARC
  8
APS_GEOMETRY
 10
36.47
 20
-29.895
 40
1.074
 50
126.384
 51
143.471
  0
ARC
  8
APS_GEOMETRY
 10
36.572
 20
-30.033
 40
1.246
 50
110.525
 51
126.384
  0
ARC
  8
APS_GEOMETRY
 10
36.567
 20
-29.996
 40
1.209
 50
99.77
 51
110.925
  0
ARC
  8
APS_GEOMETRY
 10
36.629
 20
-30.356
 40
1.575
 50
90.0
 51
99.77
  0
ARC
  8
APS_GEOMETRY
 10
36.474
 20
-29.491
 40
0.24
 50
90.0
 51
119.604
  0
ARC
  8
APS_GEOMETRY
 10
36.495
 20
-29.528
 40
0.283
 50
119.604
 51
146.842
  0
ARC
  8
APS_GEOMETRY
 10
36.537
 20
-29.563
 40
0.337
 50
145.84
 51
164.055
  0
ARC
  8
APS_GEOMETRY
 10
36.635
 20
-29.591
 40
0.439
 50
164.055
 51
180.0
  0
ARC
  8
APS_GEOMETRY
 10
37.248
 20
-29.591
 40
1.053
 50
180.0
 51
189.977
  0
ARC
  8
APS_GEOMETRY
 10
38.181
 20
-29.427
 40
2.0
 50
189.977
 51
197.211
  0
ARC
  8
APS_GEOMETRY
 10
38.385
 20
-29.364
 40
2.213
 50
197.211
 51
203.76
  0
ARC
  8
APS_GEOMETRY
 10
37.877
 20
-29.587
 40
1.658
 50
203.76
 51
211.329
  0
ARC
  8
APS_GEOMETRY
 10
36.833
 20
-30.213
 40
0.441
 50
212.32
 51
224.441
  0
ARC
  8
APS_GEOMETRY
 10
36.79
 20
-30.255
 40
0.381
 50
224.441
 51
237.484
  0
ARC
  8
APS_GEOMETRY
 10
36.763
 20
-30.299
 40
0.33
 50
237.484
 51
252.416
  0
ARC
  8
APS_GEOMETRY
 10
36.735
 20
-30.386
 40
0.238
 50
252.416
 51
270.0
  0
ARC
  8
APS_GEOMETRY
 10
36.735
 20
-30.358
 40
0.267
 50
270.0
 51
294.953
  0
ARC
  8
APS_GEOMETRY
 10
36.743
 20
-30.374
 40
0.249
 50
294.953
 51
320.793
  0
ARC
  8
APS_GEOMETRY
 10
36.703
 20
-30.341
 40
0.301
 50
320.793
 51
342.777
  0
ARC
  8
APS_GEOMETRY
 10
36.524
 20
-30.286
 40
0.487
 50
342.777
 51
0.0
  0
ARC
  8
APS_GEOMETRY
 10
35.686
 20
-30.286
 40
1.325
 50
0.0
 51
8.499
  0
ARC
  8
APS_GEOMETRY
 10
35.103
 20
-30.373
 40
1.915
 50
8.499
 51
15.566
  0
ARC
  8
APS_GEOMETRY
 10
35.173
 20
-30.353
 40
1.842
 50
15.566
 51
22.909
  0
ARC
  8
APS_GEOMETRY
 10
35.776
 20
-30.098
 40
1.188
 50
22.909
 51
32.057
  0
ARC
  8
APS_GEOMETRY
 10
36.25
 20
-29.8
 40
0.628
 50
31.921
 51
42.51
  0
ARC
  8
APS_GEOMETRY
 10
36.38
 20
-29.681
 40
0.451
 50
42.51
 51
55.008
  0
ARC
  8
APS_GEOMETRY
 10
36.424
 20
-29.618
 40
0.374
 50
55.008
 51
69.88
  0
ARC
  8
APS_GEOMETRY
 10
36.463
 20
-29.51
 40
0.26
 50
69.88
 51
87.754
  0
ARC
  8
APS_GEOMETRY
 10
39.297
 20
-29.845
 40
1.063
 50
77.257
 51
90.0
  0
ARC
  8
APS_GEOMETRY
 10
39.286
 20
-29.892
 40
1.112
 50
64.799
 51
77.257
  0
ARC
  8
APS_GEOMETRY
 10
40.202
 20
-27.942
 40
1.042
 50
244.885
 51
251.175
  0
ARC
  8
APS_GEOMETRY
 10
39.903
 20
-28.818
 40
0.117
 50
251.175
 51
270.0
  0
ARC
  8
APS_GEOMETRY
 10
39.903
 20
-28.745
 40
0.19
 50
270.0
 51
278.82
  0
ARC
  8
APS_GEOMETRY
 10
39.781
 20
-27.952
 40
0.992
 50
278.82
 51
282.68
  0
ARC
  8
APS_GEOMETRY
 10
40.038
 20
-29.091
 40
0.176
 50
95.906
 51
102.995
  0
ARC
  8
APS_GEOMETRY
 10
40.046
 20
-29.168
 40
0.253
 50
90.0
 51
95.906
  0
ARC
  8
APS_GEOMETRY
 10
40.046
 20
-29.083
 40
0.168
 50
62.447
 51
90.0
  0
ARC
  8
APS_GEOMETRY
 10
40.016
 20
-29.14
 40
0.232
 50
39.094
 51
62.447
  0
ARC
  8
APS_GEOMETRY
 10
39.704
 20
-29.401
 40
0.639
 50
18.435
 51
39.611
  0
ARC
  8
APS_GEOMETRY
 10
39.513
 20
-29.465
 40
0.84
 50
360.0
 51
18.435
  0
ARC
  8
APS_GEOMETRY
 10
39.936
 20
-29.465
 40
0.417
 50
334.877
 51
360.0
  0
ARC
  8
APS_GEOMETRY
 10
40.062
 20
-29.524
 40
0.278
 50
304.007
 51
334.877
  0
ARC
  8
APS_GEOMETRY
 10
40.06
 20
-29.518
 40
0.284
 50
286.39
 51
303.69
  0
ARC
  8
APS_GEOMETRY
 10
40.051
 20
-29.487
 40
0.317
 50
270.0
 51
286.39
  0
ARC
  8
APS_GEOMETRY
 10
40.051
 20
-29.491
 40
0.313
 50
255.155
 51
270.0
  0
ARC
  8
APS_GEOMETRY
 10
40.016
 20
-29.62
 40
0.179
 50
235.491
 51
255.155
  0
ARC
  8
APS_GEOMETRY
 10
40.034
 20
-29.595
 40
0.209
 50
218.48
 51
235.491
  0
ARC
  8
APS_GEOMETRY
 10
40.315
 20
-29.371
 40
0.568
 50
208.179
 51
218.48
  0
ARC
  8
APS_GEOMETRY
 10
37.433
 20
-30.935
 40
2.71
 50
28.56
 51
31.664
  0
ARC
  8
APS_GEOMETRY
 10
39.194
 20
-29.85
 40
0.641
 50
31.664
 51
38.047
  0
ARC
  8
APS_GEOMETRY
 10
39.322
 20
-29.749
 40
0.479
 50
38.047
 51
46.56
  0
ARC
  8
APS_GEOMETRY
 10
39.255
 20
-29.82
 40
0.576
 50
46.56
 51
54.324
  0
ARC
  8
APS_GEOMETRY
 10
39.217
 20
-29.886
 40
0.652
 50
54.968
 51
71.48
  0
ARC
  8
APS_GEOMETRY
 10
39.259
 20
-29.76
 40
0.519
 50
71.48
 51
90.0
  0
ARC
  8
APS_GEOMETRY
 10
39.259
 20
-29.603
 40
0.363
 50
90.0
 51
114.63
  0
ARC
  8
APS_GEOMETRY
 10
39.241
 20
-29.564
 40
0.319
 50
114.63
 51
140.921
  0
ARC
  8
APS_GEOMETRY
 10
39.295
 20
-29.607
 40
0.388
 50
140.921
 51
163.13
  0
ARC
  8
APS_GEOMETRY
 10
39.564
 20
-29.689
 40
0.669
 50
163.13
 51
180.0
  0
ARC
  8
APS_GEOMETRY
 10
39.912
 20
-29.689
 40
1.018
 50
180.0
 51
195.44
  0
ARC
  8
APS_GEOMETRY
 10
39.859
 20
-29.704
 40
0.963
 50
195.44
 51
211.316
  0
ARC
  8
APS_GEOMETRY
 10
39.605
 20
-29.853
 40
0.668
 50
211.708
 51
240.457
  0
ARC
  8
APS_GEOMETRY
 10
39.588
 20
-29.883
 40
0.633
 50
240.457
 51
270.0
  0
ARC
  8
APS_GEOMETRY
 10
39.588
 20
-29.729
 40
0.788
 50
270.0
 51
279.549
  0
ARC
  8
APS_GEOMETRY
 10
39.578
 20
-29.671
 40
0.847
 50
279.549
 51
288.759
  0
ARC
  8
APS_GEOMETRY
 10
39.619
 20
-29.792
 40
0.718
 50
288.759
 51
299.545
  0
ARC
  8
APS_GEOMETRY
 10
39.785
 20
-30.084
 40
0.383
 50
299.545
 51
314.341
  0
ARC
  8
APS_GEOMETRY
 10
40.297
 20
-30.616
 40
0.355
 50
120.141
 51
133.452
  0
ARC
  8
APS_GEOMETRY
 10
40.154
 20
-30.369
 40
0.071
 50
90.0
 51
120.141
  0
ARC
  8
APS_GEOMETRY
 10
40.154
 20
-30.41
 40
0.111
 50
61.952
 51
90.0
  0
ARC
  8
APS_GEOMETRY
 10
40.137
 20
-30.441
 40
0.147
 50
37.569
 51
61.952
  0
ARC
  8
APS_GEOMETRY
 10
40.106
 20
-30.465
 40
0.186
 50
17.665
 51
37.569
  0
ARC
  8
APS_GEOMETRY
 10
40.059
 20
-30.48
 40
0.235
 50
360.0
 51
17.665
  0
ARC
  8
APS_GEOMETRY
 10
39.94
 20
-30.48
 40
0.354
 50
344.932
 51
0.0
  0
ARC
  8
APS_GEOMETRY
 10
39.625
 20
-30.396
 40
0.68
 50
334.075
 51
344.932
  0
ARC
  8
APS_GEOMETRY
 10
39.615
 20
-30.391
 40
0.691
 50
323.374
 51
334.075
  0
ARC
  8
APS_GEOMETRY
 10
39.819
 20
-30.542
 40
0.438
 50
309.92
 51
323.374
  0
ARC
  8
APS_GEOMETRY
 10
40.022
 20
-30.781
 40
0.124
 50
289.026
 51
308.991
  0
ARC
  8
APS_GEOMETRY
 10
39.805
 20
-30.153
 40
0.789
 50
281.143
 51
289.026
  0
ARC
  8
APS_GEOMETRY
 10
40.025
 20
-31.292
 40
0.372
 50
100.437
 51
110.12
  0
ARC
  8
APS_GEOMETRY
 10
40.316
 20
-32.087
 40
1.218
 50
110.12
 51
115.463
  0
ARC
  8
APS_GEOMETRY
 10
39.277
 20
-29.913
 40
1.192
 50
282.94
 51
295.628
  0
ARC
  8
APS_GEOMETRY
 10
39.287
 20
-29.957
 40
1.146
 50
270.0
 51
282.94
  0
ARC
  8
APS_GEOMETRY
 10
39.287
 20
-29.89
 40
1.214
 50
257.307
 51
270.0
  0
ARC
  8
APS_GEOMETRY
 10
39.338
 20
-29.662
 40
1.447
 50
245.686
 51
257.307
  0
ARC
  8
APS_GEOMETRY
 10
39.21
 20
-29.944
 40
1.137
 50
228.801
 51
245.735
  0
ARC
  8
APS_GEOMETRY
 10
39.212
 20
-29.942
 40
1.14
 50
211.891
 51
228.801
  0
ARC
  8
APS_GEOMETRY
 10
39.279
 20
-29.893
 40
1.223
 50
196.728
 51
212.152
  0
ARC
  8
APS_GEOMETRY
 10
39.105
 20
-29.946
 40
1.041
 50
180.0
 51
196.728
  0
ARC
  8
APS_GEOMETRY
 10
39.13
 20
-29.946
 40
1.066
 50
161.184
 51
180.0
  0
ARC
  8
APS_GEOMETRY
 10
39.199
 20
-29.969
 40
1.139
 50
142.98
 51
161.184
  0
ARC
  8
APS_GEOMETRY
 10
39.252
 20
-30.01
 40
1.206
 50
127.824
 51
142.958
  0
ARC
  8
APS_GEOMETRY
 10
39.34
 20
-30.123
 40
1.349
 50
113.52
 51
127.824
  0
ARC
  8
APS_GEOMETRY
 10
39.311
 20
-30.057
 40
1.277
 50
101.927
 51
113.527
  0
ARC
  8
APS_GEOMETRY
 10
39.297
 20
-29.989
 40
1.208
 50
90.0
 51
101.927
  0
ARC
  8
APS_GEOMETRY
 10
41.821
 20
-30.07
 40
1.289
 50
71.91
 51
90.0
  0
ARC
  8
APS_GEOMETRY
 10
41.871
 20
-29.918
 40
1.128
 50
52.561
 51
71.91
  0
ARC
  8
APS_GEOMETRY
 10
41.858
 20
-29.921
 40
1.139
 50
38.846
 51
52.156
  0
ARC
  8
APS_GEOMETRY
 10
41.679
 20
-30.065
 40
1.369
 50
26.707
 51
38.846
  0
ARC
  8
APS_GEOMETRY
 10
41.714
 20
-30.036
 40
1.324
 50
13.868
 51
26.278
  0
ARC
  8
APS_GEOMETRY
 10
41.969
 20
-29.973
 40
1.061
 50
360.0
 51
13.868
  0
ARC
  8
APS_GEOMETRY
 10
41.986
 20
-29.973
 40
1.045
 50
339.712
 51
360.0
  0
ARC
  8
APS_GEOMETRY
 10
41.927
 20
-29.952
 40
1.108
 50
320.013
 51
339.712
  0
ARC
  8
APS_GEOMETRY
 10
41.917
 20
-29.946
 40
1.119
 50
303.344
 51
320.123
  0
ARC
  8
APS_GEOMETRY
 10
41.803
 20
-29.772
 40
1.327
 50
287.949
 51
303.344
  0
ARC
  8
APS_GEOMETRY
 10
41.765
 20
-29.641
 40
1.463
 50
279.039
 51
287.776
  0
ARC
  8
APS_GEOMETRY
 10
41.78
 20
-29.736
 40
1.367
 50
270.0
 51
279.039
  0
ARC
  8
APS_GEOMETRY
 10
41.78
 20
-29.803
 40
1.301
 50
257.728
 51
270.0
  0
ARC
  8
APS_GEOMETRY
 10
41.782
 20
-29.793
 40
1.31
 50
245.501
 51
257.728
  0
ARC
  8
APS_GEOMETRY
 10
41.708
 20
-29.955
 40
1.133
 50
228.665
 51
245.511
  0
ARC
  8
APS_GEOMETRY
 10
41.684
 20
-29.982
 40
1.096
 50
211.535
 51
228.665
  0
ARC
  8
APS_GEOMETRY
 10
41.716
 20
-29.959
 40
1.136
 50
195.642
 51
211.701
  0
ARC
  8
APS_GEOMETRY
 10
41.775
 20
-29.942
 40
1.197
 50
180.0
 51
195.642
  0
ARC
  8
APS_GEOMETRY
 10
41.787
 20
-29.942
 40
1.209
 50
162.181
 51
180.0
  0
ARC
  8
APS_GEOMETRY
 10
41.677
 20
-29.907
 40
1.093
 50
143.434
 51
162.181
  0
ARC
  8
APS_GEOMETRY
 10
41.662
 20
-29.895
 40
1.074
 50
126.384
 51
143.471
  0
ARC
  8
APS_GEOMETRY
 10
41.764
 20
-30.033
 40
1.246
 50
110.525
 51
126.384
  0
ARC
  8
APS_GEOMETRY
 10
41.759
 20
-29.996
 40
1.209
 50
99.77
 51
110.925
  0
ARC
  8
APS_GEOMETRY
 10
41.821
 20
-30.356
 40
1.575
 50
90.0
 51
99.77
  0
ARC
  8
APS_GEOMETRY
 10
41.666
 20
-29.491
 40
0.24
 50
90.0
 51
119.604
  0
ARC
  8
APS_GEOMETRY
 10
41.687
 20
-29.528
 40
0.283
 50
119.604
 51
146.842
  0
ARC
  8
APS_GEOMETRY
 10
41.729
 20
-29.563
 40
0.337
 50
145.84
 51
164.055
  0
ARC
  8
APS_GEOMETRY
 10
41.827
 20
-29.591
 40
0.439
 50
164.055
 51
180.0
  0
ARC
  8
APS_GEOMETRY
 10
42.44
 20
-29.591
 40
1.053
 50
180.0
 51
189.977
  0
ARC
  8
APS_GEOMETRY
 10
43.373
 20
-29.427
 40
2.0
 50
189.977
 51
197.211
  0
ARC
  8
APS_GEOMETRY
 10
43.577
 20
-29.364
 40
2.213
 50
197.211
 51
203.76
  0
ARC
  8
APS_GEOMETRY
 10
43.069
 20
-29.587
 40
1.658
 50
203.76
 51
211.329
  0
ARC
  8
APS_GEOMETRY
 10
42.025
 20
-30.213
 40
0.441
 50
212.32
 51
224.441
  0
ARC
  8
APS_GEOMETRY
 10
41.982
 20
-30.255
 40
0.381
 50
224.441
 51
237.484
  0
ARC
  8
APS_GEOMETRY
 10
41.955
 20
-30.299
 40
0.33
 50
237.484
 51
252.416
  0
ARC
  8
APS_GEOMETRY
 10
41.927
 20
-30.386
 40
0.238
 50
252.416
 51
270.0
  0
ARC
  8
APS_GEOMETRY
 10
41.927
 20
-30.358
 40
0.267
 50
270.0
 51
294.953
  0
ARC
  8
APS_GEOMETRY
 10
41.935
 20
-30.374
 40
0.249
 50
294.953
 51
320.793
  0
ARC
  8
APS_GEOMETRY
 10
41.895
 20
-30.341
 40
0.301
 50
320.793
 51
342.777
  0
ARC
  8
APS_GEOMETRY
 10
41.716
 20
-30.286
 40
0.487
 50
342.777
 51
0.0
  0
ARC
  8
APS_GEOMETRY
 10
40.878
 20
-30.286
 40
1.325
 50
0.0
 51
8.499
  0
ARC
  8
APS_GEOMETRY
 10
40.295
 20
-30.373
 40
1.915
 50
8.499
 51
15.566
  0
ARC
  8
APS_GEOMETRY
 10
40.365
 20
-30.353
 40
1.842
 50
15.566
 51
22.909
  0
ARC
  8
APS_GEOMETRY
 10
40.968
 20
-30.098
 40
1.188
 50
22.909
 51
32.057
  0
ARC
  8
APS_GEOMETRY
 10
41.442
 20
-29.8
 40
0.628
 50
31.921
 51
42.51
  0
ARC
  8
APS_GEOMETRY
 10
41.572
 20
-29.681
 40
0.451
 50
42.51
 51
55.008
  0
ARC
  8
APS_GEOMETRY
 10
41.616
 20
-29.618
 40
0.374
 50
55.008
 51
69.88
  0
ARC
  8
APS_GEOMETRY
 10
41.655
 20
-29.51
 40
0.26
 50
69.88
 51
87.754
  0
ARC
  8
APS_GEOMETRY
 10
44.347
 20
-30.242
 40
0.121
 50
90.0
 51
115.837
  0
ARC
  8
APS_GEOMETRY
 10
44.317
 20
-30.18
 40
0.053
 50
115.837
 51
155.462
  0
ARC
  8
APS_GEOMETRY
 10
44.352
 20
-30.196
 40
0.091
 50
155.462
 51
168.366
  0
ARC
  8
APS_GEOMETRY
 10
44.669
 20
-30.261
 40
0.415
 50
168.366
 51
174.395
  0
ARC
  8
APS_GEOMETRY
 10
44.989
 20
-30.293
 40
0.736
 50
174.395
 51
177.813
  0
ARC
  8
APS_GEOMETRY
 10
46.05
 20
-30.333
 40
1.798
 50
177.813
 51
180.0
  0
ARC
  8
APS_GEOMETRY
 10
46.818
 20
-30.333
 40
2.567
 50
180.0
 51
184.62
  0
ARC
  8
APS_GEOMETRY
 10
45.097
 20
-30.472
 40
0.84
 50
184.62
 51
192.7
  0
ARC
  8
APS_GEOMETRY
 10
44.434
 20
-30.618
 40
0.161
 50
194.036
 51
205.821
  0
ARC
  8
APS_GEOMETRY
 10
44.364
 20
-30.652
 40
0.083
 50
205.821
 51
222.274
  0
ARC
  8
APS_GEOMETRY
 10
44.385
 20
-30.632
 40
0.112
 50
222.274
 51
234.605
  0
ARC
  8
APS_GEOMETRY
 10
44.628
 20
-30.29
 40
0.531
 50
234.605
 51
240.255
  0
ARC
  8
APS_GEOMETRY
 10
44.259
 20
-30.944
 40
0.219
 50
34.592
 51
61.189
  0
ARC
  8
APS_GEOMETRY
 10
44.331
 20
-30.894
 40
0.131
 50
360.0
 51
34.592
  0
ARC
  8
APS_GEOMETRY
 10
44.336
 20
-30.894
 40
0.127
 50
318.231
 51
360.0
  0
ARC
  8
APS_GEOMETRY
 10
44.251
 20
-30.818
 40
0.241
 50
288.227
 51
318.231
  0
ARC
  8
APS_GEOMETRY
 10
44.163
 20
-30.551
 40
0.522
 50
280.377
 51
288.227
  0
ARC
  8
APS_GEOMETRY
 10
44.009
 20
-29.713
 40
1.374
 50
275.541
 51
280.377
  0
ARC
  8
APS_GEOMETRY
 10
43.943
 20
-29.031
 40
2.06
 50
272.304
 51
275.541
  0
ARC
  8
APS_GEOMETRY
 10
43.863
 20
-27.029
 40
4.063
 50
270.0
 51
272.304
  0
ARC
  8
APS_GEOMETRY
 10
43.863
 20
-28.702
 40
2.39
 50
262.811
 51
270.0
  0
ARC
  8
APS_GEOMETRY
 10
43.648
 20
-30.402
 40
0.676
 50
249.274
 51
262.811
  0
ARC
  8
APS_GEOMETRY
 10
43.513
 20
-30.759
 40
0.295
 50
221.379
 51
249.274
  0
ARC
  8
APS_GEOMETRY
 10
43.395
 20
-30.863
 40
0.137
 50
180.0
 51
221.379
  0
ARC
  8
APS_GEOMETRY
 10
43.394
 20
-30.863
 40
0.136
 50
164.055
 51
180.0
  0
ARC
  8
APS_GEOMETRY
 10
43.337
 20
-30.847
 40
0.077
 50
142.815
 51
164.055
  0
ARC
  8
APS_GEOMETRY
 10
43.373
 20
-30.874
 40
0.122
 50
129.007
 51
142.815
  0
ARC
  8
APS_GEOMETRY
 10
43.812
 20
-31.417
 40
0.821
 50
123.69
 51
129.007
  0
ARC
  8
APS_GEOMETRY
 10
43.189
 20
-30.478
 40
0.306
 50
303.389
 51
319.022
  0
ARC
  8
APS_GEOMETRY
 10
43.272
 20
-30.55
 40
0.197
 50
319.022
 51
338.575
  0
ARC
  8
APS_GEOMETRY
 10
43.161
 20
-30.506
 40
0.316
 50
338.575
 51
351.049
  0
ARC
  8
APS_GEOMETRY
 10
41.82
 20
-30.295
 40
1.673
 50
351.049
 51
356.46
  0
ARC
  8
APS_GEOMETRY
 10
42.262
 20
-30.312
 40
1.231
 50
355.972
 51
358.68
  0
ARC
  8
APS_GEOMETRY
 10
27.753
 20
-29.978
 40
15.744
 50
358.68
 51
359.437
  0
LINE
  8
APS_GEOMETRY
 10
43.496
 11
43.497
 20
-30.132
 21
-29.887
  0
LINE
  8
APS_GEOMETRY
 10
43.497
 11
43.498
 20
-29.887
 21
-29.566
  0
ARC
  8
APS_GEOMETRY
 10
39.707
 20
-29.566
 40
3.79
 50
360.0
 51
1.717
  0
ARC
  8
APS_GEOMETRY
 10
41.736
 20
-29.505
 40
1.761
 50
1.717
 51
4.236
  0
ARC
  8
APS_GEOMETRY
 10
42.397
 20
-29.456
 40
1.098
 50
4.236
 51
8.269
  0
ARC
  8
APS_GEOMETRY
 10
43.159
 20
-29.346
 40
0.329
 50
8.269
 51
15.642
  0
ARC
  8
APS_GEOMETRY
 10
43.29
 20
-29.309
 40
0.193
 50
15.642
 51
39.417
  0
ARC
  8
APS_GEOMETRY
 10
43.292
 20
-29.307
 40
0.189
 50
39.417
 51
63.435
  0
ARC
  8
APS_GEOMETRY
 10
43.633
 20
-28.602
 40
0.593
 50
236.874
 51
244.486
  0
ARC
  8
APS_GEOMETRY
 10
43.38
 20
-28.99
 40
0.131
 50
220.601
 51
236.874
  0
ARC
  8
APS_GEOMETRY
 10
43.351
 20
-29.015
 40
0.092
 50
198.246
 51
220.601
  0
ARC
  8
APS_GEOMETRY
 10
43.394
 20
-29.0
 40
0.138
 50
180.0
 51
198.246
  0
ARC
  8
APS_GEOMETRY
 10
43.393
 20
-29.0
 40
0.137
 50
156.161
 51
180.0
  0
ARC
  8
APS_GEOMETRY
 10
43.412
 20
-29.009
 40
0.158
 50
133.977
 51
156.161
  0
ARC
  8
APS_GEOMETRY
 10
43.451
 20
-29.049
 40
0.213
 50
116.996
 51
133.977
  0
ARC
  8
APS_GEOMETRY
 10
43.526
 20
-29.197
 40
0.38
 50
104.3
 51
116.996
  0
ARC
  8
APS_GEOMETRY
 10
43.546
 20
-29.273
 40
0.458
 50
95.326
 51
104.349
  0
ARC
  8
APS_GEOMETRY
 10
43.625
 20
-30.124
 40
1.314
 50
90.0
 51
95.326
  0
ARC
  8
APS_GEOMETRY
 10
43.625
 20
-29.461
 40
0.651
 50
87.553
 51
90.0
  0
ARC
  8
APS_GEOMETRY
 10
43.487
 20
-32.701
 40
3.893
 50
86.553
 51
87.553
  0
ARC
  8
APS_GEOMETRY
 10
43.29
 20
-35.968
 40
7.166
 50
86.009
 51
86.553
  0
ARC
  8
APS_GEOMETRY
 10
42.525
 20
-46.939
 40
18.164
 50
85.668
 51
86.009
  0
ARC
  8
APS_GEOMETRY
 10
43.957
 20
-28.073
 40
0.756
 50
265.426
 51
268.531
  0
ARC
  8
APS_GEOMETRY
 10
44.024
 20
-25.451
 40
3.379
 50
268.531
 51
270.0
  0
ARC
  8
APS_GEOMETRY
 10
44.024
 20
-26.255
 40
2.576
 50
270.0
 51
271.637
  0
ARC
  8
APS_GEOMETRY
 10
43.967
 20
-24.241
 40
4.591
 50
271.637
 51
272.862
  0
ARC
  8
APS_GEOMETRY
 10
43.901
 20
-22.919
 40
5.914
 50
272.862
 51
273.814
  0
ARC
  8
APS_GEOMETRY
 10
43.677
 20
-19.564
 40
9.276
 50
273.814
 51
274.574
  0
ARC
  8
APS_GEOMETRY
 10
45.08
 20
-37.814
 40
9.027
 50
93.72
 51
94.214
  0
ARC
  8
APS_GEOMETRY
 10
44.781
 20
-33.208
 40
4.412
 50
93.013
 51
93.72
  0
ARC
  8
APS_GEOMETRY
 10
44.699
 20
-31.648
 40
2.85
 50
91.918
 51
93.013
  0
ARC
  8
APS_GEOMETRY
 10
44.634
 20
-29.727
 40
0.928
 50
90.0
 51
91.918
  0
ARC
  8
APS_GEOMETRY
 10
44.634
 20
-30.005
 40
1.205
 50
73.82
 51
90.0
  0
ARC
  8
APS_GEOMETRY
 10
44.753
 20
-29.595
 40
0.779
 50
53.658
 51
73.82
  0
ARC
  8
APS_GEOMETRY
 10
44.922
 20
-29.364
 40
0.493
 50
26.03
 51
53.569
  0
ARC
  8
APS_GEOMETRY
 10
44.87
 20
-29.39
 40
0.551
 50
360.0
 51
26.03
  0
ARC
  8
APS_GEOMETRY
 10
44.849
 20
-29.39
 40
0.572
 50
345.282
 51
360.0
  0
ARC
  8
APS_GEOMETRY
 10
44.904
 20
-29.404
 40
0.515
 50
329.767
 51
345.282
  0
ARC
  8
APS_GEOMETRY
 10
44.935
 20
-29.422
 40
0.479
 50
313.168
 51
329.767
  0
ARC
  8
APS_GEOMETRY
 10
44.946
 20
-29.435
 40
0.462
 50
296.267
 51
313.168
  0
ARC
  8
APS_GEOMETRY
 10
45.21
 20
-29.966
 40
0.131
 50
116.565
 51
139.899
  0
ARC
  8
APS_GEOMETRY
 10
45.144
 20
-29.911
 40
0.046
 50
139.899
 51
180.0
  0
ARC
  8
APS_GEOMETRY
 10
45.149
 20
-29.911
 40
0.051
 50
180.0
 51
226.193
  0
ARC
  8
APS_GEOMETRY
 10
45.243
 20
-29.814
 40
0.186
 50
226.193
 51
249.829
  0
ARC
  8
APS_GEOMETRY
 10
44.975
 20
-30.552
 40
0.599
 50
53.249
 51
70.105
  0
ARC
  8
APS_GEOMETRY
 10
45.097
 20
-30.389
 40
0.396
 50
32.471
 51
53.249
  0
ARC
  8
APS_GEOMETRY
 10
45.04
 20
-30.425
 40
0.463
 50
23.305
 51
32.471
  0
ARC
  8
APS_GEOMETRY
 10
44.689
 20
-30.576
 40
0.845
 50
16.521
 51
23.305
  0
ARC
  8
APS_GEOMETRY
 10
44.416
 20
-30.657
 40
1.13
 50
11.429
 51
16.521
  0
ARC
  8
APS_GEOMETRY
 10
43.642
 20
-30.813
 40
1.92
 50
7.524
 51
11.429
  0
ARC
  8
APS_GEOMETRY
 10
46.208
 20
-30.472
 40
0.669
 50
187.765
 51
196.914
  0
ARC
  8
APS_GEOMETRY
 10
45.661
 20
-30.638
 40
0.097
 50
196.914
 51
221.082
  0
ARC
  8
APS_GEOMETRY
 10
45.663
 20
-30.636
 40
0.1
 50
221.082
 51
244.607
  0
ARC
  8
APS_GEOMETRY
 10
45.897
 20
-30.144
 40
0.645
 50
244.607
 51
253.811
  0
ARC
  8
APS_GEOMETRY
 10
45.691
 20
-30.844
 40
0.085
 50
51.45
 51
72.474
  0
ARC
  8
APS_GEOMETRY
 10
45.67
 20
-30.871
 40
0.119
 50
33.69
 51
51.45
  0
ARC
  8
APS_GEOMETRY
 10
45.665
 20
-30.874
 40
0.125
 50
16.639
 51
33.69
  0
ARC
  8
APS_GEOMETRY
 10
45.659
 20
-30.876
 40
0.131
 50
360.0
 51
16.639
  0
ARC
  8
APS_GEOMETRY
 10
45.657
 20
-30.876
 40
0.133
 50
338.993
 51
360.0
  0
ARC
  8
APS_GEOMETRY
 10
45.576
 20
-30.845
 40
0.22
 50
322.696
 51
338.993
  0
ARC
  8
APS_GEOMETRY
 10
45.546
 20
-30.822
 40
0.258
 50
308.603
 51
322.696
  0
ARC
  8
APS_GEOMETRY
 10
45.525
 20
-30.796
 40
0.292
 50
295.346
 51
308.603
  0
ARC
  8
APS_GEOMETRY
 10
45.415
 20
-30.554
 40
0.557
 50
279.583
 51
294.905
  0
ARC
  8
APS_GEOMETRY
 10
45.272
 20
-29.705
 40
1.418
 50
270.0
 51
279.583
  0
ARC
  8
APS_GEOMETRY
 10
45.272
 20
-30.089
 40
1.034
 50
261.247
 51
270.0
  0
ARC
  8
APS_GEOMETRY
 10
45.206
 20
-30.519
 40
0.598
 50
249.737
 51
261.247
  0
ARC
  8
APS_GEOMETRY
 10
45.162
 20
-30.637
 40
0.473
 50
235.345
 51
249.737
  0
ARC
  8
APS_GEOMETRY
 10
45.107
 20
-30.717
 40
0.376
 50
219.198
 51
235.345
  0
ARC
  8
APS_GEOMETRY
 10
45.223
 20
-30.618
 40
0.528
 50
209.076
 51
219.56
  0
ARC
  8
APS_GEOMETRY
 10
45.49
 20
-30.47
 40
0.834
 50
200.735
 51
209.076
  0
ARC
  8
APS_GEOMETRY
 10
45.859
 20
-30.33
 40
1.228
 50
197.881
 51
200.735
  0
ARC
  8
APS_GEOMETRY
 10
47.373
 20
-29.842
 40
2.819
 50
195.997
 51
197.881
  0
ARC
  8
APS_GEOMETRY
 10
48.492
 20
-29.521
 40
3.983
 50
194.664
 51
195.997
  0
ARC
  8
APS_GEOMETRY
 10
51.591
 20
-28.71
 40
7.187
 50
193.671
 51
194.664
  0
ARC
  8
APS_GEOMETRY
 10
43.731
 20
-30.621
 40
0.903
 50
13.61
 51
23.585
  0
ARC
  8
APS_GEOMETRY
 10
44.322
 20
-30.363
 40
0.258
 50
23.585
 51
42.31
  0
ARC
  8
APS_GEOMETRY
 10
44.376
 20
-30.314
 40
0.185
 50
42.31
 51
67.521
  0
ARC
  8
APS_GEOMETRY
 10
44.333
 20
-30.416
 40
0.296
 50
67.521
 51
87.397
  0
LINE
  8
APS_GEOMETRY
 10
44.253
 11
44.235
 20
-29.287
 21
-29.668
  0
LINE
  8
APS_GEOMETRY
 10
44.235
 11
44.235
 20
-29.668
 21
-29.674
  0
LINE
  8
APS_GEOMETRY
 10
44.235
 11
44.235
 20
-29.674
 21
-29.682
  0
ARC
  8
APS_GEOMETRY
 10
44.5
 20
-29.682
 40
0.265
 50
180.0
 51
192.339
  0
ARC
  8
APS_GEOMETRY
 10
44.29
 20
-29.728
 40
0.049
 50
192.339
 51
221.186
  0
ARC
  8
APS_GEOMETRY
 10
44.285
 20
-29.733
 40
0.043
 50
221.186
 51
253.872
  0
ARC
  8
APS_GEOMETRY
 10
44.32
 20
-29.609
 40
0.171
 50
253.872
 51
270.0
  0
ARC
  8
APS_GEOMETRY
 10
44.32
 20
-29.382
 40
0.399
 50
270.0
 51
289.569
  0
ARC
  8
APS_GEOMETRY
 10
44.393
 20
-29.586
 40
0.182
 50
289.569
 51
318.681
  0
ARC
  8
APS_GEOMETRY
 10
44.373
 20
-29.569
 40
0.208
 50
318.681
 51
344.628
  0
ARC
  8
APS_GEOMETRY
 10
44.008
 20
-29.468
 40
0.587
 50
344.628
 51
0.0
  0
ARC
  8
APS_GEOMETRY
 10
44.182
 20
-29.468
 40
0.413
 50
0.0
 51
35.369
  0
ARC
  8
APS_GEOMETRY
 10
44.371
 20
-29.334
 40
0.181
 50
35.369
 51
90.0
  0
ARC
  8
APS_GEOMETRY
 10
44.371
 20
-29.336
 40
0.183
 50
90.0
 51
108.435
  0
ARC
  8
APS_GEOMETRY
 10
44.335
 20
-29.229
 40
0.07
 50
108.435
 51
138.366
  0
ARC
  8
APS_GEOMETRY
 10
44.345
 20
-29.237
 40
0.083
 50
138.366
 51
164.291
  0
ARC
  8
APS_GEOMETRY
 10
44.569
 20
-29.3
 40
0.316
 50
164.291
 51
177.51
  0
LINE
  8
APS_GEOMETRY
 10
47.164
 11
47.979
 20
-28.906
 21
-29.619
  0
ARC
  8
APS_GEOMETRY
 10
48.74
 20
-28.745
 40
1.159
 50
228.93
 51
232.674
  0
ARC
  8
APS_GEOMETRY
 10
48.317
 20
-29.3
 40
0.461
 50
232.674
 51
238.617
  0
ARC
  8
APS_GEOMETRY
 10
48.21
 20
-29.475
 40
0.256
 50
238.617
 51
249.131
  0
ARC
  8
APS_GEOMETRY
 10
48.142
 20
-29.653
 40
0.065
 50
249.131
 51
270.0
  0
ARC
  8
APS_GEOMETRY
 10
48.142
 20
-29.661
 40
0.057
 50
270.0
 51
334.898
  0
ARC
  8
APS_GEOMETRY
 10
47.877
 20
-29.537
 40
0.35
 50
334.898
 51
0.0
  0
ARC
  8
APS_GEOMETRY
 10
45.316
 20
-29.537
 40
2.911
 50
360.0
 51
2.026
  0
ARC
  8
APS_GEOMETRY
 10
46.86
 20
-29.482
 40
1.366
 50
2.026
 51
4.984
  0
ARC
  8
APS_GEOMETRY
 10
47.365
 20
-29.438
 40
0.859
 50
4.984
 51
9.673
  0
ARC
  8
APS_GEOMETRY
 10
47.947
 20
-29.339
 40
0.269
 50
9.673
 51
18.06
  0
ARC
  8
APS_GEOMETRY
 10
48.036
 20
-29.31
 40
0.176
 50
18.06
 51
42.397
  0
ARC
  8
APS_GEOMETRY
 10
48.007
 20
-29.336
 40
0.214
 50
42.397
 51
64.398
  0
ARC
  8
APS_GEOMETRY
 10
48.268
 20
-28.797
 40
0.385
 50
233.633
 51
244.026
  0
ARC
  8
APS_GEOMETRY
 10
48.126
 20
-28.99
 40
0.145
 50
216.656
 51
233.633
  0
ARC
  8
APS_GEOMETRY
 10
48.104
 20
-29.006
 40
0.118
 50
196.082
 51
216.656
  0
ARC
  8
APS_GEOMETRY
 10
48.175
 20
-28.986
 40
0.192
 50
180.0
 51
196.082
  0
ARC
  8
APS_GEOMETRY
 10
48.123
 20
-28.986
 40
0.139
 50
133.202
 51
180.0
  0
ARC
  8
APS_GEOMETRY
 10
48.233
 20
-29.103
 40
0.3
 50
101.788
 51
133.202
  0
ARC
  8
APS_GEOMETRY
 10
48.258
 20
-29.218
 40
0.418
 50
96.633
 51
102.011
  0
ARC
  8
APS_GEOMETRY
 10
48.351
 20
-30.017
 40
1.222
 50
93.489
 51
96.633
  0
ARC
  8
APS_GEOMETRY
 10
48.391
 20
-30.67
 40
1.877
 50
91.439
 51
93.489
  0
ARC
  8
APS_GEOMETRY
 10
48.44
 20
-32.6
 40
3.807
 50
90.0
 51
91.439
  0
ARC
  8
APS_GEOMETRY
 10
48.44
 20
-32.341
 40
3.548
 50
87.994
 51
90.0
  0
ARC
  8
APS_GEOMETRY
 10
48.504
 20
-30.499
 40
1.705
 50
85.101
 51
87.994
  0
ARC
  8
APS_GEOMETRY
 10
48.557
 20
-29.888
 40
1.092
 50
80.595
 51
85.101
  0
ARC
  8
APS_GEOMETRY
 10
48.676
 20
-29.168
 40
0.361
 50
72.759
 51
80.595
  0
ARC
  8
APS_GEOMETRY
 10
48.712
 20
-29.055
 40
0.244
 50
40.956
 51
73.072
  0
ARC
  8
APS_GEOMETRY
 10
48.781
 20
-28.996
 40
0.152
 50
360.0
 51
40.956
  0
ARC
  8
APS_GEOMETRY
 10
48.79
 20
-28.996
 40
0.143
 50
322.573
 51
360.0
  0
ARC
  8
APS_GEOMETRY
 10
48.715
 20
-28.938
 40
0.238
 50
293.749
 51
322.573
  0
ARC
  8
APS_GEOMETRY
 10
49.017
 20
-29.632
 40
0.519
 50
113.429
 51
119.291
  0
ARC
  8
APS_GEOMETRY
 10
48.815
 20
-29.272
 40
0.106
 50
119.291
 51
132.274
  0
ARC
  8
APS_GEOMETRY
 10
48.804
 20
-29.259
 40
0.089
 50
132.274
 51
147.653
  0
ARC
  8
APS_GEOMETRY
 10
48.888
 20
-29.312
 40
0.188
 50
147.653
 51
158.199
  0
ARC
  8
APS_GEOMETRY
 10
49.016
 20
-29.366
 40
0.327
 50
157.751
 51
167.885
  0
ARC
  8
APS_GEOMETRY
 10
49.697
 20
-29.513
 40
1.024
 50
167.885
 51
173.61
  0
ARC
  8
APS_GEOMETRY
 10
50.299
 20
-29.58
 40
1.63
 50
173.61
 51
177.221
  0
ARC
  8
APS_GEOMETRY
 10
52.157
 20
-29.67
 40
3.49
 50
177.221
 51
179.689
  0
LINE
  8
APS_GEOMETRY
 10
48.667
 11
48.667
 20
-29.651
 21
-30.184
  0
ARC
  8
APS_GEOMETRY
 10
70.435
 20
-30.184
 40
21.768
 50
180.0
 51
180.161
  0
ARC
  8
APS_GEOMETRY
 10
89.326
 20
-30.131
 40
40.659
 50
180.161
 51
180.279
  0
LINE
  8
APS_GEOMETRY
 10
48.667
 11
48.668
 20
-30.329
 21
-30.419
  0
LINE
  8
APS_GEOMETRY
 10
48.668
 11
48.669
 20
-30.419
 21
-30.52
  0
ARC
  8
APS_GEOMETRY
 10
44.784
 20
-30.542
 40
3.884
 50
358.204
 51
0.326
  0
ARC
  8
APS_GEOMETRY
 10
46.632
 20
-30.6
 40
2.036
 50
355.274
 51
358.204
  0
ARC
  8
APS_GEOMETRY
 10
47.275
 20
-30.653
 40
1.39
 50
350.991
 51
355.274
  0
ARC
  8
APS_GEOMETRY
 10
48.094
 20
-30.783
 40
0.561
 50
344.249
 51
350.991
  0
ARC
  8
APS_GEOMETRY
 10
48.371
 20
-30.862
 40
0.273
 50
314.415
 51
344.445
  0
ARC
  8
APS_GEOMETRY
 10
48.472
 20
-30.965
 40
0.128
 50
270.0
 51
314.415
  0
ARC
  8
APS_GEOMETRY
 10
48.472
 20
-30.886
 40
0.208
 50
256.342
 51
270.0
  0
ARC
  8
APS_GEOMETRY
 10
48.458
 20
-30.946
 40
0.145
 50
239.982
 51
256.342
  0
ARC
  8
APS_GEOMETRY
 10
48.522
 20
-30.834
 40
0.275
 50
231.153
 51
239.982
  0
ARC
  8
APS_GEOMETRY
 10
49.61
 20
-29.484
 40
2.008
 50
227.891
 51
231.153
  0
LINE
  8
APS_GEOMETRY
 10
48.263
 11
47.293
 20
-30.974
 21
-30.106
  0
ARC
  8
APS_GEOMETRY
 10
46.92
 20
-30.519
 40
0.557
 50
47.911
 51
61.468
  0
ARC
  8
APS_GEOMETRY
 10
47.125
 20
-30.142
 40
0.128
 50
61.468
 51
90.0
  0
ARC
  8
APS_GEOMETRY
 10
47.125
 20
-30.07
 40
0.056
 50
90.0
 51
133.195
  0
ARC
  8
APS_GEOMETRY
 10
47.18
 20
-30.129
 40
0.137
 50
133.195
 51
160.454
  0
ARC
  8
APS_GEOMETRY
 10
47.357
 20
-30.192
 40
0.325
 50
160.454
 51
173.251
  0
ARC
  8
APS_GEOMETRY
 10
48.191
 20
-30.291
 40
1.164
 50
173.251
 51
180.0
  0
ARC
  8
APS_GEOMETRY
 10
50.458
 20
-30.291
 40
3.431
 50
180.0
 51
181.897
  0
ARC
  8
APS_GEOMETRY
 10
48.641
 20
-30.351
 40
1.613
 50
181.897
 51
184.664
  0
ARC
  8
APS_GEOMETRY
 10
48.045
 20
-30.399
 40
1.015
 50
184.664
 51
189.048
  0
ARC
  8
APS_GEOMETRY
 10
47.355
 20
-30.509
 40
0.316
 50
189.048
 51
196.905
  0
ARC
  8
APS_GEOMETRY
 10
47.246
 20
-30.543
 40
0.202
 50
196.905
 51
220.253
  0
ARC
  8
APS_GEOMETRY
 10
47.248
 20
-30.541
 40
0.205
 50
220.253
 51
243.435
  0
ARC
  8
APS_GEOMETRY
 10
47.048
 20
-30.944
 40
0.245
 50
37.921
 51
63.778
  0
ARC
  8
APS_GEOMETRY
 10
47.15
 20
-30.865
 40
0.116
 50
360.0
 51
37.921
  0
ARC
  8
APS_GEOMETRY
 10
47.104
 20
-30.865
 40
0.161
 50
324.268
 51
360.0
  0
ARC
  8
APS_GEOMETRY
 10
47.044
 20
-30.821
 40
0.236
 50
294.86
 51
324.268
  0
ARC
  8
APS_GEOMETRY
 10
46.944
 20
-30.606
 40
0.473
 50
278.78
 51
294.86
  0
ARC
  8
APS_GEOMETRY
 10
46.775
 20
-29.512
 40
1.58
 50
270.0
 51
278.78
  0
ARC
  8
APS_GEOMETRY
 10
46.775
 20
-29.795
 40
1.297
 50
260.383
 51
270.0
  0
ARC
  8
APS_GEOMETRY
 10
46.638
 20
-30.602
 40
0.479
 50
244.522
 51
260.383
  0
ARC
  8
APS_GEOMETRY
 10
46.54
 20
-30.809
 40
0.249
 50
216.549
 51
244.522
  0
ARC
  8
APS_GEOMETRY
 10
46.458
 20
-30.869
 40
0.148
 50
180.0
 51
216.549
  0
ARC
  8
APS_GEOMETRY
 10
46.511
 20
-30.869
 40
0.2
 50
164.65
 51
180.0
  0
ARC
  8
APS_GEOMETRY
 10
46.397
 20
-30.838
 40
0.082
 50
140.528
 51
164.65
  0
ARC
  8
APS_GEOMETRY
 10
46.443
 20
-30.876
 40
0.142
 50
126.135
 51
140.528
  0
ARC
  8
APS_GEOMETRY
 10
46.926
 20
-31.537
 40
0.96
 50
120.619
 51
126.135
  0
ARC
  8
APS_GEOMETRY
 10
46.353
 20
-30.571
 40
0.163
 50
300.784
 51
330.068
  0
ARC
  8
APS_GEOMETRY
 10
46.245
 20
-30.509
 40
0.287
 50
330.068
 51
351.983
  0
ARC
  8
APS_GEOMETRY
 10
44.427
 20
-30.272
 40
2.121
 50
352.493
 51
355.365
  0
ARC
  8
APS_GEOMETRY
 10
42.234
 20
-30.094
 40
4.321
 50
355.365
 51
357.376
  0
ARC
  8
APS_GEOMETRY
 10
40.698
 20
-30.024
 40
5.859
 50
357.376
 51
358.861
  0
ARC
  8
APS_GEOMETRY
 10
36.607
 20
-29.942
 40
9.951
 50
358.861
 51
0.0
  0
ARC
  8
APS_GEOMETRY
 10
40.286
 20
-29.942
 40
6.271
 50
360.0
 51
1.926
  0
ARC
  8
APS_GEOMETRY
 10
43.206
 20
-29.844
 40
3.35
 50
1.926
 51
4.562
  0
ARC
  8
APS_GEOMETRY
 10
44.235
 20
-29.762
 40
2.318
 50
4.562
 51
8.366
  0
ARC
  8
APS_GEOMETRY
 10
45.574
 20
-29.565
 40
0.964
 50
8.366
 51
14.265
  0
ARC
  8
APS_GEOMETRY
 10
46.08
 20
-29.437
 40
0.442
 50
14.349
 51
23.629
  0
ARC
  8
APS_GEOMETRY
 10
46.337
 20
-29.325
 40
0.162
 50
23.629
 51
38.991
  0
ARC
  8
APS_GEOMETRY
 10
46.338
 20
-29.324
 40
0.161
 50
38.991
 51
54.462
  0
ARC
  8
APS_GEOMETRY
 10
46.188
 20
-29.534
 40
0.419
 50
54.462
 51
64.026
  0
ARC
  8
APS_GEOMETRY
 10
46.612
 20
-28.666
 40
0.547
 50
235.472
 51
243.947
  0
ARC
  8
APS_GEOMETRY
 10
46.393
 20
-28.984
 40
0.161
 50
219.806
 51
235.472
  0
ARC
  8
APS_GEOMETRY
 10
46.359
 20
-29.012
 40
0.118
 50
198.939
 51
219.806
  0
ARC
  8
APS_GEOMETRY
 10
46.383
 20
-29.004
 40
0.143
 50
180.0
 51
198.939
  0
ARC
  8
APS_GEOMETRY
 10
46.376
 20
-29.004
 40
0.136
 50
126.254
 51
180.0
  0
ARC
  8
APS_GEOMETRY
 10
46.583
 20
-29.286
 40
0.486
 50
98.616
 51
126.254
  0
ARC
  8
APS_GEOMETRY
 10
46.612
 20
-29.519
 40
0.72
 50
94.456
 51
98.13
  0
ARC
  8
APS_GEOMETRY
 10
46.725
 20
-30.962
 40
2.167
 50
92.337
 51
94.456
  0
ARC
  8
APS_GEOMETRY
 10
46.772
 20
-32.136
 40
3.342
 50
90.963
 51
92.337
  0
ARC
  8
APS_GEOMETRY
 10
46.831
 20
-35.603
 40
6.81
 50
90.0
 51
90.963
  0
ARC
  8
APS_GEOMETRY
 10
46.831
 20
-30.034
 40
1.241
 50
83.928
 51
90.0
  0
ARC
  8
APS_GEOMETRY
 10
46.933
 20
-29.077
 40
0.279
 50
71.095
 51
83.928
  0
ARC
  8
APS_GEOMETRY
 10
46.942
 20
-29.05
 40
0.25
 50
56.848
 51
71.095
  0
ARC
  8
APS_GEOMETRY
 10
46.667
 20
-29.471
 40
0.753
 50
48.652
 51
56.848
  0
ARC
  8
APS_GEOMETRY
 10
50.105
 20
-30.823
 40
2.03
 50
84.71
 51
90.0
  0
ARC
  8
APS_GEOMETRY
 10
50.142
 20
-30.421
 40
1.627
 50
78.799
 51
84.71
  0
ARC
  8
APS_GEOMETRY
 10
50.383
 20
-29.204
 40
0.386
 50
49.783
 51
78.771
  0
ARC
  8
APS_GEOMETRY
 10
50.544
 20
-29.014
 40
0.136
 50
360.0
 51
49.783
  0
ARC
  8
APS_GEOMETRY
 10
50.529
 20
-29.014
 40
0.151
 50
342.759
 51
360.0
  0
ARC
  8
APS_GEOMETRY
 10
50.608
 20
-29.038
 40
0.069
 50
317.045
 51
342.759
  0
ARC
  8
APS_GEOMETRY
 10
50.57
 20
-29.003
 40
0.12
 50
301.817
 51
317.045
  0
ARC
  8
APS_GEOMETRY
 10
50.007
 20
-28.095
 40
1.188
 50
296.98
 51
301.817
  0
ARC
  8
APS_GEOMETRY
 10
50.607
 20
-29.276
 40
0.137
 50
116.565
 51
149.078
  0
ARC
  8
APS_GEOMETRY
 10
50.783
 20
-29.382
 40
0.342
 50
149.078
 51
169.469
  0
ARC
  8
APS_GEOMETRY
 10
51.158
 20
-29.452
 40
0.723
 50
169.469
 51
174.598
  0
ARC
  8
APS_GEOMETRY
 10
53.092
 20
-29.634
 40
2.665
 50
174.598
 51
177.269
  0
ARC
  8
APS_GEOMETRY
 10
54.792
 20
-29.715
 40
4.367
 50
177.269
 51
178.901
  0
ARC
  8
APS_GEOMETRY
 10
60.057
 20
-29.816
 40
9.633
 50
178.901
 51
180.0
  0
ARC
  8
APS_GEOMETRY
 10
70.756
 20
-29.816
 40
20.333
 50
180.0
 51
180.88
  0
ARC
  8
APS_GEOMETRY
 10
58.23
 20
-30.009
 40
7.805
 50
180.88
 51
182.3
  0
ARC
  8
APS_GEOMETRY
 10
54.569
 20
-30.156
 40
4.141
 50
182.3
 51
184.974
  0
ARC
  8
APS_GEOMETRY
 10
51.078
 20
-30.46
 40
0.637
 50
184.974
 51
191.793
  0
ARC
  8
APS_GEOMETRY
 10
50.673
 20
-30.537
 40
0.224
 50
193.57
 51
205.787
  0
ARC
  8
APS_GEOMETRY
 10
50.572
 20
-30.586
 40
0.112
 50
205.787
 51
223.091
  0
ARC
  8
APS_GEOMETRY
 10
50.597
 20
-30.562
 40
0.147
 50
223.091
 51
236.441
  0
ARC
  8
APS_GEOMETRY
 10
50.811
 20
-30.239
 40
0.535
 50
236.441
 51
243.435
  0
ARC
  8
APS_GEOMETRY
 10
50.484
 20
-30.913
 40
0.215
 50
37.185
 51
65.556
  0
ARC
  8
APS_GEOMETRY
 10
50.553
 20
-30.86
 40
0.127
 50
0.0
 51
37.185
  0
ARC
  8
APS_GEOMETRY
 10
50.55
 20
-30.86
 40
0.131
 50
312.039
 51
360.0
  0
ARC
  8
APS_GEOMETRY
 10
50.394
 20
-30.687
 40
0.363
 50
283.815
 51
312.039
  0
ARC
  8
APS_GEOMETRY
 10
50.137
 20
-29.622
 40
1.459
 50
279.273
 51
283.627
  0
ARC
  8
APS_GEOMETRY
 10
50.034
 20
-28.993
 40
2.096
 50
275.641
 51
279.273
  0
ARC
  8
APS_GEOMETRY
 10
49.995
 20
-28.595
 40
2.496
 50
272.588
 51
275.641
  0
ARC
  8
APS_GEOMETRY
 10
49.951
 20
-27.619
 40
3.473
 50
270.0
 51
272.588
  0
ARC
  8
APS_GEOMETRY
 10
49.951
 20
-28.997
 40
2.095
 50
262.774
 51
270.0
  0
ARC
  8
APS_GEOMETRY
 10
49.762
 20
-30.487
 40
0.593
 50
249.175
 51
262.774
  0
ARC
  8
APS_GEOMETRY
 10
49.643
 20
-30.798
 40
0.26
 50
221.23
 51
249.175
  0
ARC
  8
APS_GEOMETRY
 10
49.54
 20
-30.889
 40
0.122
 50
180.0
 51
221.23
  0
ARC
  8
APS_GEOMETRY
 10
49.52
 20
-30.889
 40
0.102
 50
142.696
 51
180.0
  0
ARC
  8
APS_GEOMETRY
 10
49.681
 20
-31.012
 40
0.305
 50
121.357
 51
142.696
  0
ARC
  8
APS_GEOMETRY
 10
49.409
 20
-30.566
 40
0.218
 50
301.477
 51
324.728
  0
ARC
  8
APS_GEOMETRY
 10
49.438
 20
-30.587
 40
0.182
 50
324.728
 51
350.181
  0
ARC
  8
APS_GEOMETRY
 10
48.526
 20
-30.436
 40
1.107
 50
350.538
 51
355.423
  0
ARC
  8
APS_GEOMETRY
 10
44.778
 20
-30.136
 40
4.866
 50
355.423
 51
357.752
  0
ARC
  8
APS_GEOMETRY
 10
41.299
 20
-29.999
 40
8.349
 50
357.752
 51
359.111
  0
ARC
  8
APS_GEOMETRY
 10
30.161
 20
-29.826
 40
19.487
 50
359.111
 51
0.0
  0
ARC
  8
APS_GEOMETRY
 10
42.887
 20
-29.826
 40
6.761
 50
0.0
 51
1.773
  0
ARC
  8
APS_GEOMETRY
 10
46.855
 20
-29.703
 40
2.791
 50
1.773
 51
4.532
  0
ARC
  8
APS_GEOMETRY
 10
48.061
 20
-29.608
 40
1.581
 50
4.532
 51
9.384
  0
ARC
  8
APS_GEOMETRY
 10
49.286
 20
-29.405
 40
0.34
 50
9.384
 51
19.855
  0
ARC
  8
APS_GEOMETRY
 10
49.448
 20
-29.344
 40
0.167
 50
18.853
 51
42.158
  0
ARC
  8
APS_GEOMETRY
 10
49.309
 20
-29.47
 40
0.354
 50
42.158
 51
58.092
  0
ARC
  8
APS_GEOMETRY
 10
49.921
 20
-28.525
 40
0.771
 50
230.711
 51
236.634
  0
ARC
  8
APS_GEOMETRY
 10
49.537
 20
-28.994
 40
0.165
 50
217.875
 51
230.711
  0
ARC
  8
APS_GEOMETRY
 10
49.484
 20
-29.035
 40
0.098
 50
196.928
 51
217.875
  0
ARC
  8
APS_GEOMETRY
 10
49.533
 20
-29.02
 40
0.15
 50
180.0
 51
196.928
  0
ARC
  8
APS_GEOMETRY
 10
49.501
 20
-29.02
 40
0.117
 50
148.791
 51
180.0
  0
ARC
  8
APS_GEOMETRY
 10
49.532
 20
-29.039
 40
0.153
 50
121.569
 51
148.791
  0
ARC
  8
APS_GEOMETRY
 10
49.587
 20
-29.129
 40
0.259
 50
112.806
 51
121.569
  0
ARC
  8
APS_GEOMETRY
 10
49.736
 20
-29.484
 40
0.644
 50
107.254
 51
112.806
  0
ARC
  8
APS_GEOMETRY
 10
49.828
 20
-29.778
 40
0.953
 50
103.487
 51
107.254
  0
ARC
  8
APS_GEOMETRY
 10
50.037
 20
-30.652
 40
1.851
 50
100.784
 51
103.487
  0
ARC
  8
APS_GEOMETRY
 10
50.103
 20
-30.894
 40
2.101
 50
95.643
 51
101.31
  0
ARC
  8
APS_GEOMETRY
 10
50.105
 20
-30.911
 40
2.118
 50
90.0
 51
95.643
  0
ARC
  8
APS_GEOMETRY
 10
52.138
 20
-29.845
 40
1.063
 50
77.257
 51
90.0
  0
ARC
  8
APS_GEOMETRY
 10
52.127
 20
-29.892
 40
1.112
 50
64.799
 51
77.257
  0
ARC
  8
APS_GEOMETRY
 10
53.043
 20
-27.942
 40
1.042
 50
244.885
 51
251.175
  0
ARC
  8
APS_GEOMETRY
 10
52.745
 20
-28.818
 40
0.117
 50
251.175
 51
270.0
  0
ARC
  8
APS_GEOMETRY
 10
52.745
 20
-28.745
 40
0.19
 50
270.0
 51
278.82
  0
ARC
  8
APS_GEOMETRY
 10
52.622
 20
-27.952
 40
0.992
 50
278.82
 51
282.68
  0
ARC
  8
APS_GEOMETRY
 10
52.879
 20
-29.091
 40
0.176
 50
95.906
 51
102.995
  0
ARC
  8
APS_GEOMETRY
 10
52.887
 20
-29.168
 40
0.253
 50
90.0
 51
95.906
  0
ARC
  8
APS_GEOMETRY
 10
52.887
 20
-29.083
 40
0.168
 50
62.447
 51
90.0
  0
ARC
  8
APS_GEOMETRY
 10
52.857
 20
-29.14
 40
0.232
 50
39.094
 51
62.447
  0
ARC
  8
APS_GEOMETRY
 10
52.546
 20
-29.401
 40
0.639
 50
18.435
 51
39.611
  0
ARC
  8
APS_GEOMETRY
 10
52.354
 20
-29.465
 40
0.84
 50
360.0
 51
18.435
  0
ARC
  8
APS_GEOMETRY
 10
52.778
 20
-29.465
 40
0.417
 50
334.877
 51
360.0
  0
ARC
  8
APS_GEOMETRY
 10
52.903
 20
-29.524
 40
0.278
 50
304.007
 51
334.877
  0
ARC
  8
APS_GEOMETRY
 10
52.901
 20
-29.518
 40
0.284
 50
286.39
 51
303.69
  0
ARC
  8
APS_GEOMETRY
 10
52.892
 20
-29.487
 40
0.317
 50
270.0
 51
286.39
  0
ARC
  8
APS_GEOMETRY
 10
52.892
 20
-29.491
 40
0.313
 50
255.155
 51
270.0
  0
ARC
  8
APS_GEOMETRY
 10
52.858
 20
-29.62
 40
0.179
 50
235.491
 51
255.155
  0
ARC
  8
APS_GEOMETRY
 10
52.875
 20
-29.595
 40
0.209
 50
218.48
 51
235.491
  0
ARC
  8
APS_GEOMETRY
 10
53.156
 20
-29.371
 40
0.568
 50
208.179
 51
218.48
  0
ARC
  8
APS_GEOMETRY
 10
50.275
 20
-30.935
 40
2.71
 50
28.56
 51
31.664
  0
ARC
  8
APS_GEOMETRY
 10
52.035
 20
-29.85
 40
0.641
 50
31.664
 51
38.047
  0
ARC
  8
APS_GEOMETRY
 10
52.163
 20
-29.749
 40
0.479
 50
38.047
 51
46.56
  0
ARC
  8
APS_GEOMETRY
 10
52.097
 20
-29.82
 40
0.576
 50
46.56
 51
54.324
  0
ARC
  8
APS_GEOMETRY
 10
52.058
 20
-29.886
 40
0.652
 50
54.968
 51
71.48
  0
ARC
  8
APS_GEOMETRY
 10
52.101
 20
-29.76
 40
0.519
 50
71.48
 51
90.0
  0
ARC
  8
APS_GEOMETRY
 10
52.101
 20
-29.603
 40
0.363
 50
90.0
 51
114.63
  0
ARC
  8
APS_GEOMETRY
 10
52.082
 20
-29.564
 40
0.319
 50
114.63
 51
140.921
  0
ARC
  8
APS_GEOMETRY
 10
52.136
 20
-29.607
 40
0.388
 50
140.921
 51
163.13
  0
ARC
  8
APS_GEOMETRY
 10
52.405
 20
-29.689
 40
0.669
 50
163.13
 51
180.0
  0
ARC
  8
APS_GEOMETRY
 10
52.754
 20
-29.689
 40
1.018
 50
180.0
 51
195.44
  0
ARC
  8
APS_GEOMETRY
 10
52.701
 20
-29.704
 40
0.963
 50
195.44
 51
211.316
  0
ARC
  8
APS_GEOMETRY
 10
52.446
 20
-29.853
 40
0.668
 50
211.708
 51
240.457
  0
ARC
  8
APS_GEOMETRY
 10
52.429
 20
-29.883
 40
0.633
 50
240.457
 51
270.0
  0
ARC
  8
APS_GEOMETRY
 10
52.429
 20
-29.729
 40
0.788
 50
270.0
 51
279.549
  0
ARC
  8
APS_GEOMETRY
 10
52.419
 20
-29.671
 40
0.847
 50
279.549
 51
288.759
  0
ARC
  8
APS_GEOMETRY
 10
52.461
 20
-29.792
 40
0.718
 50
288.759
 51
299.545
  0
ARC
  8
APS_GEOMETRY
 10
52.626
 20
-30.084
 40
0.383
 50
299.545
 51
314.341
  0
ARC
  8
APS_GEOMETRY
 10
53.138
 20
-30.616
 40
0.355
 50
120.141
 51
133.452
  0
ARC
  8
APS_GEOMETRY
 10
52.995
 20
-30.369
 40
0.071
 50
90.0
 51
120.141
  0
ARC
  8
APS_GEOMETRY
 10
52.995
 20
-30.41
 40
0.111
 50
61.952
 51
90.0
  0
ARC
  8
APS_GEOMETRY
 10
52.978
 20
-30.441
 40
0.147
 50
37.569
 51
61.952
  0
ARC
  8
APS_GEOMETRY
 10
52.947
 20
-30.465
 40
0.186
 50
17.665
 51
37.569
  0
ARC
  8
APS_GEOMETRY
 10
52.9
 20
-30.48
 40
0.235
 50
360.0
 51
17.665
  0
ARC
  8
APS_GEOMETRY
 10
52.782
 20
-30.48
 40
0.354
 50
344.932
 51
0.0
  0
ARC
  8
APS_GEOMETRY
 10
52.467
 20
-30.396
 40
0.68
 50
334.075
 51
344.932
  0
ARC
  8
APS_GEOMETRY
 10
52.457
 20
-30.391
 40
0.691
 50
323.374
 51
334.075
  0
ARC
  8
APS_GEOMETRY
 10
52.66
 20
-30.542
 40
0.438
 50
309.92
 51
323.374
  0
ARC
  8
APS_GEOMETRY
 10
52.863
 20
-30.781
 40
0.124
 50
289.026
 51
308.991
  0
ARC
  8
APS_GEOMETRY
 10
52.646
 20
-30.153
 40
0.789
 50
281.143
 51
289.026
  0
ARC
  8
APS_GEOMETRY
 10
52.866
 20
-31.292
 40
0.372
 50
100.437
 51
110.12
  0
ARC
  8
APS_GEOMETRY
 10
53.157
 20
-32.087
 40
1.218
 50
110.12
 51
115.463
  0
ARC
  8
APS_GEOMETRY
 10
52.118
 20
-29.913
 40
1.192
 50
282.94
 51
295.628
  0
ARC
  8
APS_GEOMETRY
 10
52.128
 20
-29.957
 40
1.146
 50
270.0
 51
282.94
  0
ARC
  8
APS_GEOMETRY
 10
52.128
 20
-29.89
 40
1.214
 50
257.307
 51
270.0
  0
ARC
  8
APS_GEOMETRY
 10
52.18
 20
-29.662
 40
1.447
 50
245.686
 51
257.307
  0
ARC
  8
APS_GEOMETRY
 10
52.051
 20
-29.944
 40
1.137
 50
228.801
 51
245.735
  0
ARC
  8
APS_GEOMETRY
 10
52.053
 20
-29.942
 40
1.14
 50
211.891
 51
228.801
  0
ARC
  8
APS_GEOMETRY
 10
52.121
 20
-29.893
 40
1.223
 50
196.728
 51
212.152
  0
ARC
  8
APS_GEOMETRY
 10
51.946
 20
-29.946
 40
1.041
 50
180.0
 51
196.728
  0
ARC
  8
APS_GEOMETRY
 10
51.972
 20
-29.946
 40
1.066
 50
161.184
 51
180.0
  0
ARC
  8
APS_GEOMETRY
 10
52.04
 20
-29.969
 40
1.139
 50
142.98
 51
161.184
  0
ARC
  8
APS_GEOMETRY
 10
52.093
 20
-30.01
 40
1.206
 50
127.824
 51
142.958
  0
ARC
  8
APS_GEOMETRY
 10
52.181
 20
-30.123
 40
1.349
 50
113.52
 51
127.824
  0
ARC
  8
APS_GEOMETRY
 10
52.152
 20
-30.057
 40
1.277
 50
101.927
 51
113.527
  0
ARC
  8
APS_GEOMETRY
 10
52.138
 20
-29.989
 40
1.208
 50
90.0
 51
101.927
  0
ARC
  8
APS_GEOMETRY
 10
54.366
 20
-30.823
 40
2.03
 50
84.71
 51
90.0
  0
ARC
  8
APS_GEOMETRY
 10
54.403
 20
-30.421
 40
1.627
 50
78.799
 51
84.71
  0
ARC
  8
APS_GEOMETRY
 10
54.644
 20
-29.204
 40
0.386
 50
49.783
 51
78.771
  0
ARC
  8
APS_GEOMETRY
 10
54.805
 20
-29.014
 40
0.136
 50
360.0
 51
49.783
  0
ARC
  8
APS_GEOMETRY
 10
54.79
 20
-29.014
 40
0.151
 50
342.759
 51
360.0
  0
ARC
  8
APS_GEOMETRY
 10
54.869
 20
-29.038
 40
0.069
 50
317.045
 51
342.759
  0
ARC
  8
APS_GEOMETRY
 10
54.831
 20
-29.003
 40
0.12
 50
301.817
 51
317.045
  0
ARC
  8
APS_GEOMETRY
 10
54.268
 20
-28.095
 40
1.188
 50
296.98
 51
301.817
  0
ARC
  8
APS_GEOMETRY
 10
54.868
 20
-29.276
 40
0.137
 50
116.565
 51
149.078
  0
ARC
  8
APS_GEOMETRY
 10
55.044
 20
-29.382
 40
0.342
 50
149.078
 51
169.469
  0
ARC
  8
APS_GEOMETRY
 10
55.419
 20
-29.452
 40
0.723
 50
169.469
 51
174.598
  0
ARC
  8
APS_GEOMETRY
 10
57.353
 20
-29.634
 40
2.665
 50
174.598
 51
177.269
  0
ARC
  8
APS_GEOMETRY
 10
59.052
 20
-29.715
 40
4.367
 50
177.269
 51
178.901
  0
ARC
  8
APS_GEOMETRY
 10
64.318
 20
-29.816
 40
9.633
 50
178.901
 51
180.0
  0
ARC
  8
APS_GEOMETRY
 10
75.017
 20
-29.816
 40
20.333
 50
180.0
 51
180.88
  0
ARC
  8
APS_GEOMETRY
 10
62.491
 20
-30.009
 40
7.805
 50
180.88
 51
182.3
  0
ARC
  8
APS_GEOMETRY
 10
58.83
 20
-30.156
 40
4.141
 50
182.3
 51
184.974
  0
ARC
  8
APS_GEOMETRY
 10
55.339
 20
-30.46
 40
0.637
 50
184.974
 51
191.793
  0
ARC
  8
APS_GEOMETRY
 10
54.933
 20
-30.537
 40
0.224
 50
193.57
 51
205.787
  0
ARC
  8
APS_GEOMETRY
 10
54.833
 20
-30.586
 40
0.112
 50
205.787
 51
223.091
  0
ARC
  8
APS_GEOMETRY
 10
54.858
 20
-30.562
 40
0.147
 50
223.091
 51
236.441
  0
ARC
  8
APS_GEOMETRY
 10
55.072
 20
-30.239
 40
0.535
 50
236.441
 51
243.435
  0
ARC
  8
APS_GEOMETRY
 10
54.744
 20
-30.913
 40
0.215
 50
37.185
 51
65.556
  0
ARC
  8
APS_GEOMETRY
 10
54.814
 20
-30.86
 40
0.127
 50
0.0
 51
37.185
  0
ARC
  8
APS_GEOMETRY
 10
54.811
 20
-30.86
 40
0.131
 50
312.039
 51
360.0
  0
ARC
  8
APS_GEOMETRY
 10
54.655
 20
-30.687
 40
0.363
 50
283.815
 51
312.039
  0
ARC
  8
APS_GEOMETRY
 10
54.398
 20
-29.622
 40
1.459
 50
279.273
 51
283.627
  0
ARC
  8
APS_GEOMETRY
 10
54.295
 20
-28.993
 40
2.096
 50
275.641
 51
279.273
  0
ARC
  8
APS_GEOMETRY
 10
54.256
 20
-28.595
 40
2.496
 50
272.588
 51
275.641
  0
ARC
  8
APS_GEOMETRY
 10
54.212
 20
-27.619
 40
3.473
 50
270.0
 51
272.588
  0
ARC
  8
APS_GEOMETRY
 10
54.212
 20
-28.997
 40
2.095
 50
262.774
 51
270.0
  0
ARC
  8
APS_GEOMETRY
 10
54.023
 20
-30.487
 40
0.593
 50
249.175
 51
262.774
  0
ARC
  8
APS_GEOMETRY
 10
53.904
 20
-30.798
 40
0.26
 50
221.23
 51
249.175
  0
ARC
  8
APS_GEOMETRY
 10
53.801
 20
-30.889
 40
0.122
 50
180.0
 51
221.23
  0
ARC
  8
APS_GEOMETRY
 10
53.781
 20
-30.889
 40
0.102
 50
142.696
 51
180.0
  0
ARC
  8
APS_GEOMETRY
 10
53.942
 20
-31.012
 40
0.305
 50
121.357
 51
142.696
  0
ARC
  8
APS_GEOMETRY
 10
53.67
 20
-30.566
 40
0.218
 50
301.477
 51
324.728
  0
ARC
  8
APS_GEOMETRY
 10
53.699
 20
-30.587
 40
0.182
 50
324.728
 51
350.181
  0
ARC
  8
APS_GEOMETRY
 10
52.787
 20
-30.436
 40
1.107
 50
350.538
 51
355.423
  0
ARC
  8
APS_GEOMETRY
 10
49.039
 20
-30.136
 40
4.866
 50
355.423
 51
357.752
  0
ARC
  8
APS_GEOMETRY
 10
45.56
 20
-29.999
 40
8.349
 50
357.752
 51
359.111
  0
ARC
  8
APS_GEOMETRY
 10
34.422
 20
-29.826
 40
19.487
 50
359.111
 51
0.0
  0
ARC
  8
APS_GEOMETRY
 10
47.148
 20
-29.826
 40
6.761
 50
0.0
 51
1.773
  0
ARC
  8
APS_GEOMETRY
 10
51.116
 20
-29.703
 40
2.791
 50
1.773
 51
4.532
  0
ARC
  8
APS_GEOMETRY
 10
52.322
 20
-29.608
 40
1.581
 50
4.532
 51
9.384
  0
ARC
  8
APS_GEOMETRY
 10
53.547
 20
-29.405
 40
0.34
 50
9.384
 51
19.855
  0
ARC
  8
APS_GEOMETRY
 10
53.709
 20
-29.344
 40
0.167
 50
18.853
 51
42.158
  0
ARC
  8
APS_GEOMETRY
 10
53.57
 20
-29.47
 40
0.354
 50
42.158
 51
58.092
  0
ARC
  8
APS_GEOMETRY
 10
54.182
 20
-28.525
 40
0.771
 50
230.711
 51
236.634
  0
ARC
  8
APS_GEOMETRY
 10
53.797
 20
-28.994
 40
0.165
 50
217.875
 51
230.711
  0
ARC
  8
APS_GEOMETRY
 10
53.745
 20
-29.035
 40
0.098
 50
196.928
 51
217.875
  0
ARC
  8
APS_GEOMETRY
 10
53.794
 20
-29.02
 40
0.15
 50
180.0
 51
196.928
  0
ARC
  8
APS_GEOMETRY
 10
53.762
 20
-29.02
 40
0.117
 50
148.791
 51
180.0
  0
ARC
  8
APS_GEOMETRY
 10
53.793
 20
-29.039
 40
0.153
 50
121.569
 51
148.791
  0
ARC
  8
APS_GEOMETRY
 10
53.848
 20
-29.129
 40
0.259
 50
112.806
 51
121.569
  0
ARC
  8
APS_GEOMETRY
 10
53.997
 20
-29.484
 40
0.644
 50
107.254
 51
112.806
  0
ARC
  8
APS_GEOMETRY
 10
54.089
 20
-29.778
 40
0.953
 50
103.487
 51
107.254
  0
ARC
  8
APS_GEOMETRY
 10
54.298
 20
-30.652
 40
1.851
 50
100.784
 51
103.487
  0
ARC
  8
APS_GEOMETRY
 10
54.364
 20
-30.894
 40
2.101
 50
95.643
 51
101.31
  0
ARC
  8
APS_GEOMETRY
 10
54.366
 20
-30.911
 40
2.118
 50
90.0
 51
95.643
  0
LINE
  8
APS_GEOMETRY
 10
57.823
 11
57.823
 20
-30.289
 21
-29.429
  0
ARC
  8
APS_GEOMETRY
 10
55.837
 20
-29.429
 40
1.986
 50
0.0
 51
2.404
  0
ARC
  8
APS_GEOMETRY
 10
57.013
 20
-29.38
 40
0.809
 50
2.404
 51
6.17
  0
ARC
  8
APS_GEOMETRY
 10
57.365
 20
-29.341
 40
0.455
 50
6.17
 51
12.824
  0
ARC
  8
APS_GEOMETRY
 10
57.71
 20
-29.263
 40
0.101
 50
12.824
 51
26.98
  0
ARC
  8
APS_GEOMETRY
 10
57.726
 20
-29.255
 40
0.083
 50
26.98
 51
59.65
  0
ARC
  8
APS_GEOMETRY
 10
57.574
 20
-29.514
 40
0.383
 50
59.65
 51
74.667
  0
ARC
  8
APS_GEOMETRY
 10
57.75
 20
-28.889
 40
0.266
 50
225.0
 51
253.887
  0
ARC
  8
APS_GEOMETRY
 10
57.642
 20
-28.997
 40
0.113
 50
180.0
 51
225.0
  0
ARC
  8
APS_GEOMETRY
 10
57.662
 20
-28.997
 40
0.134
 50
151.157
 51
180.0
  0
ARC
  8
APS_GEOMETRY
 10
57.662
 20
-28.997
 40
0.133
 50
122.276
 51
151.157
  0
ARC
  8
APS_GEOMETRY
 10
57.7
 20
-29.058
 40
0.205
 50
102.308
 51
122.276
  0
ARC
  8
APS_GEOMETRY
 10
57.771
 20
-29.381
 40
0.536
 50
90.0
 51
102.308
  0
ARC
  8
APS_GEOMETRY
 10
57.771
 20
-30.003
 40
1.158
 50
88.989
 51
90.0
  0
ARC
  8
APS_GEOMETRY
 10
57.673
 20
-35.521
 40
6.676
 50
88.568
 51
88.989
  0
ARC
  8
APS_GEOMETRY
 10
57.536
 20
-41.021
 40
12.178
 50
88.337
 51
88.568
  0
ARC
  8
APS_GEOMETRY
 10
57.003
 20
-59.377
 40
30.542
 50
88.191
 51
88.337
  0
LINE
  8
APS_GEOMETRY
 10
57.967
 11
58.063
 20
-28.85
 21
-28.85
  0
ARC
  8
APS_GEOMETRY
 10
57.739
 20
24.947
 40
53.798
 50
270.345
 51
270.49
  0
ARC
  8
APS_GEOMETRY
 10
58.041
 20
-10.383
 40
18.467
 50
270.49
 51
270.736
  0
ARC
  8
APS_GEOMETRY
 10
58.165
 20
-20.027
 40
8.822
 50
270.736
 51
271.253
  0
ARC
  8
APS_GEOMETRY
 10
58.342
 20
-28.088
 40
0.759
 50
271.253
 51
273.013
  0
ARC
  8
APS_GEOMETRY
 10
58.334
 20
-27.948
 40
0.899
 50
273.013
 51
274.5
  0
ARC
  8
APS_GEOMETRY
 10
57.501
 20
-17.365
 40
11.514
 50
274.5
 51
274.915
  0
LINE
  8
APS_GEOMETRY
 10
58.488
 11
58.586
 20
-28.838
 21
-28.829
  0
LINE
  8
APS_GEOMETRY
 10
58.586
 11
58.714
 20
-28.829
 21
-28.817
  0
ARC
  8
APS_GEOMETRY
 10
58.925
 20
-30.854
 40
2.047
 50
93.24
 51
95.906
  0
ARC
  8
APS_GEOMETRY
 10
58.888
 20
-30.194
 40
1.387
 50
90.0
 51
93.24
  0
ARC
  8
APS_GEOMETRY
 10
58.888
 20
-29.985
 40
1.178
 50
77.12
 51
90.0
  0
ARC
  8
APS_GEOMETRY
 10
58.95
 20
-29.714
 40
0.899
 50
62.371
 51
77.12
  0
ARC
  8
APS_GEOMETRY
 10
59.055
 20
-29.517
 40
0.676
 50
31.215
 51
62.517
  0
ARC
  8
APS_GEOMETRY
 10
59.051
 20
-29.519
 40
0.68
 50
360.0
 51
31.215
  0
ARC
  8
APS_GEOMETRY
 10
59.033
 20
-29.519
 40
0.698
 50
334.496
 51
360.0
  0
ARC
  8
APS_GEOMETRY
 10
59.068
 20
-29.535
 40
0.66
 50
308.254
 51
334.496
  0
ARC
  8
APS_GEOMETRY
 10
58.963
 20
-29.397
 40
0.834
 50
287.855
 51
308.034
  0
ARC
  8
APS_GEOMETRY
 10
58.892
 20
-29.179
 40
1.062
 50
270.0
 51
287.855
  0
ARC
  8
APS_GEOMETRY
 10
58.892
 20
-28.632
 40
1.61
 50
266.918
 51
270.0
  0
ARC
  8
APS_GEOMETRY
 10
58.99
 20
-26.817
 40
3.427
 50
264.806
 51
266.918
  0
ARC
  8
APS_GEOMETRY
 10
58.337
 20
-34.922
 40
4.705
 50
85.815
 51
86.634
  0
ARC
  8
APS_GEOMETRY
 10
58.596
 20
-30.503
 40
0.278
 50
86.634
 51
90.0
  0
ARC
  8
APS_GEOMETRY
 10
58.596
 20
-30.266
 40
0.041
 50
90.0
 51
139.686
  0
ARC
  8
APS_GEOMETRY
 10
58.612
 20
-30.279
 40
0.061
 50
139.686
 51
180.0
  0
LINE
  8
APS_GEOMETRY
 10
58.551
 11
58.551
 20
-30.279
 21
-30.289
  0
LINE
  8
APS_GEOMETRY
 10
58.551
 11
58.562
 20
-30.289
 21
-30.557
  0
ARC
  8
APS_GEOMETRY
 10
58.95
 20
-30.541
 40
0.388
 50
182.386
 51
193.753
  0
ARC
  8
APS_GEOMETRY
 10
58.7
 20
-30.602
 40
0.131
 50
193.753
 51
213.408
  0
ARC
  8
APS_GEOMETRY
 10
58.703
 20
-30.6
 40
0.134
 50
213.408
 51
232.628
  0
ARC
  8
APS_GEOMETRY
 10
58.928
 20
-30.305
 40
0.505
 50
232.628
 51
242.488
  0
ARC
  8
APS_GEOMETRY
 10
58.552
 20
-31.018
 40
0.301
 50
40.539
 51
61.699
  0
ARC
  8
APS_GEOMETRY
 10
58.716
 20
-30.878
 40
0.085
 50
360.0
 51
40.539
  0
ARC
  8
APS_GEOMETRY
 10
58.687
 20
-30.878
 40
0.113
 50
315.297
 51
360.0
  0
ARC
  8
APS_GEOMETRY
 10
58.534
 20
-30.726
 40
0.329
 50
289.502
 51
315.297
  0
ARC
  8
APS_GEOMETRY
 10
58.421
 20
-30.408
 40
0.666
 50
282.372
 51
289.502
  0
ARC
  8
APS_GEOMETRY
 10
58.303
 20
-29.87
 40
1.218
 50
277.099
 51
282.372
  0
ARC
  8
APS_GEOMETRY
 10
58.255
 20
-29.48
 40
1.611
 50
273.104
 51
277.099
  0
ARC
  8
APS_GEOMETRY
 10
58.197
 20
-28.424
 40
2.668
 50
270.0
 51
273.104
  0
ARC
  8
APS_GEOMETRY
 10
58.197
 20
-28.456
 40
2.636
 50
263.473
 51
270.0
  0
ARC
  8
APS_GEOMETRY
 10
57.981
 20
-30.349
 40
0.73
 50
251.056
 51
263.473
  0
ARC
  8
APS_GEOMETRY
 10
57.842
 20
-30.754
 40
0.302
 50
224.161
 51
251.056
  0
ARC
  8
APS_GEOMETRY
 10
57.708
 20
-30.884
 40
0.116
 50
180.0
 51
224.161
  0
ARC
  8
APS_GEOMETRY
 10
57.732
 20
-30.884
 40
0.14
 50
160.821
 51
180.0
  0
ARC
  8
APS_GEOMETRY
 10
57.673
 20
-30.864
 40
0.078
 50
135.0
 51
160.821
  0
ARC
  8
APS_GEOMETRY
 10
57.729
 20
-30.919
 40
0.156
 50
121.522
 51
135.0
  0
ARC
  8
APS_GEOMETRY
 10
58.353
 20
-31.937
 40
1.35
 50
116.952
 51
121.522
  0
ARC
  8
APS_GEOMETRY
 10
57.671
 20
-30.601
 40
0.15
 50
297.824
 51
321.605
  0
ARC
  8
APS_GEOMETRY
 10
57.706
 20
-30.629
 40
0.106
 50
321.605
 51
349.992
  0
ARC
  8
APS_GEOMETRY
 10
57.546
 20
-30.601
 40
0.268
 50
349.992
 51
356.014
  0
ARC
  8
APS_GEOMETRY
 10
55.113
 20
-30.431
 40
2.707
 50
356.014
 51
357.908
  0
ARC
  8
APS_GEOMETRY
 10
52.273
 20
-30.327
 40
5.549
 50
357.908
 51
358.833
  0
ARC
  8
APS_GEOMETRY
 10
42.003
 20
-30.118
 40
15.821
 50
358.833
 51
359.381
  0
LINE
  8
APS_GEOMETRY
 10
58.562
 11
58.562
 20
-29.221
 21
-29.777
  0
ARC
  8
APS_GEOMETRY
 10
58.731
 20
-29.777
 40
0.169
 50
180.0
 51
199.885
  0
ARC
  8
APS_GEOMETRY
 10
58.605
 20
-29.823
 40
0.034
 50
199.885
 51
244.799
  0
ARC
  8
APS_GEOMETRY
 10
58.677
 20
-29.673
 40
0.201
 50
244.231
 51
258.996
  0
ARC
  8
APS_GEOMETRY
 10
58.708
 20
-29.517
 40
0.36
 50
258.996
 51
270.0
  0
ARC
  8
APS_GEOMETRY
 10
58.708
 20
-29.554
 40
0.323
 50
270.0
 51
288.435
  0
ARC
  8
APS_GEOMETRY
 10
58.731
 20
-29.624
 40
0.249
 50
288.435
 51
309.428
  0
ARC
  8
APS_GEOMETRY
 10
58.739
 20
-29.633
 40
0.237
 50
309.193
 51
339.939
  0
ARC
  8
APS_GEOMETRY
 10
58.446
 20
-29.525
 40
0.55
 50
339.939
 51
0.0
  0
ARC
  8
APS_GEOMETRY
 10
58.478
 20
-29.525
 40
0.517
 50
360.0
 51
22.011
  0
ARC
  8
APS_GEOMETRY
 10
58.707
 20
-29.433
 40
0.27
 50
22.011
 51
52.651
  0
ARC
  8
APS_GEOMETRY
 10
58.704
 20
-29.435
 40
0.274
 50
52.374
 51
72.309
  0
ARC
  8
APS_GEOMETRY
 10
58.681
 20
-29.505
 40
0.347
 50
72.309
 51
90.0
  0
ARC
  8
APS_GEOMETRY
 10
58.681
 20
-29.36
 40
0.203
 50
90.0
 51
118.113
  0
ARC
  8
APS_GEOMETRY
 10
58.607
 20
-29.221
 40
0.045
 50
118.113
 51
180.0
  0
ARC
  8
APS_GEOMETRY
 10
61.199
 20
-30.07
 40
1.289
 50
71.91
 51
90.0
  0
ARC
  8
APS_GEOMETRY
 10
61.249
 20
-29.918
 40
1.128
 50
52.561
 51
71.91
  0
ARC
  8
APS_GEOMETRY
 10
61.236
 20
-29.921
 40
1.139
 50
38.846
 51
52.156
  0
ARC
  8
APS_GEOMETRY
 10
61.057
 20
-30.065
 40
1.369
 50
26.707
 51
38.846
  0
ARC
  8
APS_GEOMETRY
 10
61.093
 20
-30.036
 40
1.324
 50
13.868
 51
26.278
  0
ARC
  8
APS_GEOMETRY
 10
61.348
 20
-29.973
 40
1.061
 50
360.0
 51
13.868
  0
ARC
  8
APS_GEOMETRY
 10
61.364
 20
-29.973
 40
1.045
 50
339.712
 51
360.0
  0
ARC
  8
APS_GEOMETRY
 10
61.305
 20
-29.952
 40
1.108
 50
320.013
 51
339.712
  0
ARC
  8
APS_GEOMETRY
 10
61.296
 20
-29.946
 40
1.119
 50
303.344
 51
320.123
  0
ARC
  8
APS_GEOMETRY
 10
61.181
 20
-29.772
 40
1.327
 50
287.949
 51
303.344
  0
ARC
  8
APS_GEOMETRY
 10
61.143
 20
-29.641
 40
1.463
 50
279.039
 51
287.776
  0
ARC
  8
APS_GEOMETRY
 10
61.158
 20
-29.736
 40
1.367
 50
270.0
 51
279.039
  0
ARC
  8
APS_GEOMETRY
 10
61.158
 20
-29.803
 40
1.301
 50
257.728
 51
270.0
  0
ARC
  8
APS_GEOMETRY
 10
61.16
 20
-29.793
 40
1.31
 50
245.501
 51
257.728
  0
ARC
  8
APS_GEOMETRY
 10
61.087
 20
-29.955
 40
1.133
 50
228.665
 51
245.511
  0
ARC
  8
APS_GEOMETRY
 10
61.062
 20
-29.982
 40
1.096
 50
211.535
 51
228.665
  0
ARC
  8
APS_GEOMETRY
 10
61.094
 20
-29.959
 40
1.136
 50
195.642
 51
211.701
  0
ARC
  8
APS_GEOMETRY
 10
61.153
 20
-29.942
 40
1.197
 50
180.0
 51
195.642
  0
ARC
  8
APS_GEOMETRY
 10
61.165
 20
-29.942
 40
1.209
 50
162.181
 51
180.0
  0
ARC
  8
APS_GEOMETRY
 10
61.055
 20
-29.907
 40
1.093
 50
143.434
 51
162.181
  0
ARC
  8
APS_GEOMETRY
 10
61.04
 20
-29.895
 40
1.074
 50
126.384
 51
143.471
  0
ARC
  8
APS_GEOMETRY
 10
61.142
 20
-30.033
 40
1.246
 50
110.525
 51
126.384
  0
ARC
  8
APS_GEOMETRY
 10
61.137
 20
-29.996
 40
1.209
 50
99.77
 51
110.925
  0
ARC
  8
APS_GEOMETRY
 10
61.199
 20
-30.356
 40
1.575
 50
90.0
 51
99.77
  0
ARC
  8
APS_GEOMETRY
 10
61.044
 20
-29.491
 40
0.24
 50
90.0
 51
119.604
  0
ARC
  8
APS_GEOMETRY
 10
61.065
 20
-29.528
 40
0.283
 50
119.604
 51
146.842
  0
ARC
  8
APS_GEOMETRY
 10
61.107
 20
-29.563
 40
0.337
 50
145.84
 51
164.055
  0
ARC
  8
APS_GEOMETRY
 10
61.205
 20
-29.591
 40
0.439
 50
164.055
 51
180.0
  0
ARC
  8
APS_GEOMETRY
 10
61.818
 20
-29.591
 40
1.053
 50
180.0
 51
189.977
  0
ARC
  8
APS_GEOMETRY
 10
62.751
 20
-29.427
 40
2.0
 50
189.977
 51
197.211
  0
ARC
  8
APS_GEOMETRY
 10
62.955
 20
-29.364
 40
2.213
 50
197.211
 51
203.76
  0
ARC
  8
APS_GEOMETRY
 10
62.447
 20
-29.587
 40
1.658
 50
203.76
 51
211.329
  0
ARC
  8
APS_GEOMETRY
 10
61.403
 20
-30.213
 40
0.441
 50
212.32
 51
224.441
  0
ARC
  8
APS_GEOMETRY
 10
61.361
 20
-30.255
 40
0.381
 50
224.441
 51
237.484
  0
ARC
  8
APS_GEOMETRY
 10
61.333
 20
-30.299
 40
0.33
 50
237.484
 51
252.416
  0
ARC
  8
APS_GEOMETRY
 10
61.305
 20
-30.386
 40
0.238
 50
252.416
 51
270.0
  0
ARC
  8
APS_GEOMETRY
 10
61.305
 20
-30.358
 40
0.267
 50
270.0
 51
294.953
  0
ARC
  8
APS_GEOMETRY
 10
61.313
 20
-30.374
 40
0.249
 50
294.953
 51
320.793
  0
ARC
  8
APS_GEOMETRY
 10
61.273
 20
-30.341
 40
0.301
 50
320.793
 51
342.777
  0
ARC
  8
APS_GEOMETRY
 10
61.094
 20
-30.286
 40
0.487
 50
342.777
 51
0.0
  0
ARC
  8
APS_GEOMETRY
 10
60.256
 20
-30.286
 40
1.325
 50
0.0
 51
8.499
  0
ARC
  8
APS_GEOMETRY
 10
59.673
 20
-30.373
 40
1.915
 50
8.499
 51
15.566
  0
ARC
  8
APS_GEOMETRY
 10
59.743
 20
-30.353
 40
1.842
 50
15.566
 51
22.909
  0
ARC
  8
APS_GEOMETRY
 10
60.346
 20
-30.098
 40
1.188
 50
22.909
 51
32.057
  0
ARC
  8
APS_GEOMETRY
 10
60.82
 20
-29.8
 40
0.628
 50
31.921
 51
42.51
  0
ARC
  8
APS_GEOMETRY
 10
60.95
 20
-29.681
 40
0.451
 50
42.51
 51
55.008
  0
ARC
  8
APS_GEOMETRY
 10
60.994
 20
-29.618
 40
0.374
 50
55.008
 51
69.88
  0
ARC
  8
APS_GEOMETRY
 10
61.033
 20
-29.51
 40
0.26
 50
69.88
 51
87.754
  0
ARC
  8
APS_GEOMETRY
 10
63.725
 20
-30.242
 40
0.121
 50
90.0
 51
115.837
  0
ARC
  8
APS_GEOMETRY
 10
63.695
 20
-30.18
 40
0.053
 50
115.837
 51
155.462
  0
ARC
  8
APS_GEOMETRY
 10
63.73
 20
-30.196
 40
0.091
 50
155.462
 51
168.366
  0
ARC
  8
APS_GEOMETRY
 10
64.047
 20
-30.261
 40
0.415
 50
168.366
 51
174.395
  0
ARC
  8
APS_GEOMETRY
 10
64.367
 20
-30.293
 40
0.736
 50
174.395
 51
177.813
  0
ARC
  8
APS_GEOMETRY
 10
65.428
 20
-30.333
 40
1.798
 50
177.813
 51
180.0
  0
ARC
  8
APS_GEOMETRY
 10
66.197
 20
-30.333
 40
2.567
 50
180.0
 51
184.62
  0
ARC
  8
APS_GEOMETRY
 10
64.476
 20
-30.472
 40
0.84
 50
184.62
 51
192.7
  0
ARC
  8
APS_GEOMETRY
 10
63.812
 20
-30.618
 40
0.161
 50
194.036
 51
205.821
  0
ARC
  8
APS_GEOMETRY
 10
63.742
 20
-30.652
 40
0.083
 50
205.821
 51
222.274
  0
ARC
  8
APS_GEOMETRY
 10
63.763
 20
-30.632
 40
0.112
 50
222.274
 51
234.605
  0
ARC
  8
APS_GEOMETRY
 10
64.006
 20
-30.29
 40
0.531
 50
234.605
 51
240.255
  0
ARC
  8
APS_GEOMETRY
 10
63.637
 20
-30.944
 40
0.219
 50
34.592
 51
61.189
  0
ARC
  8
APS_GEOMETRY
 10
63.709
 20
-30.894
 40
0.131
 50
360.0
 51
34.592
  0
ARC
  8
APS_GEOMETRY
 10
63.714
 20
-30.894
 40
0.127
 50
318.231
 51
360.0
  0
ARC
  8
APS_GEOMETRY
 10
63.629
 20
-30.818
 40
0.241
 50
288.227
 51
318.231
  0
ARC
  8
APS_GEOMETRY
 10
63.541
 20
-30.551
 40
0.522
 50
280.377
 51
288.227
  0
ARC
  8
APS_GEOMETRY
 10
63.387
 20
-29.713
 40
1.374
 50
275.541
 51
280.377
  0
ARC
  8
APS_GEOMETRY
 10
63.321
 20
-29.031
 40
2.06
 50
272.304
 51
275.541
  0
ARC
  8
APS_GEOMETRY
 10
63.241
 20
-27.029
 40
4.063
 50
270.0
 51
272.304
  0
ARC
  8
APS_GEOMETRY
 10
63.241
 20
-28.702
 40
2.39
 50
262.811
 51
270.0
  0
ARC
  8
APS_GEOMETRY
 10
63.026
 20
-30.402
 40
0.676
 50
249.274
 51
262.811
  0
ARC
  8
APS_GEOMETRY
 10
62.891
 20
-30.759
 40
0.295
 50
221.379
 51
249.274
  0
ARC
  8
APS_GEOMETRY
 10
62.773
 20
-30.863
 40
0.137
 50
180.0
 51
221.379
  0
ARC
  8
APS_GEOMETRY
 10
62.772
 20
-30.863
 40
0.136
 50
164.055
 51
180.0
  0
ARC
  8
APS_GEOMETRY
 10
62.715
 20
-30.847
 40
0.077
 50
142.815
 51
164.055
  0
ARC
  8
APS_GEOMETRY
 10
62.751
 20
-30.874
 40
0.122
 50
129.007
 51
142.815
  0
ARC
  8
APS_GEOMETRY
 10
63.191
 20
-31.417
 40
0.821
 50
123.69
 51
129.007
  0
ARC
  8
APS_GEOMETRY
 10
62.567
 20
-30.478
 40
0.306
 50
303.389
 51
319.022
  0
ARC
  8
APS_GEOMETRY
 10
62.65
 20
-30.55
 40
0.197
 50
319.022
 51
338.575
  0
ARC
  8
APS_GEOMETRY
 10
62.539
 20
-30.506
 40
0.316
 50
338.575
 51
351.049
  0
ARC
  8
APS_GEOMETRY
 10
61.198
 20
-30.295
 40
1.673
 50
351.049
 51
356.46
  0
ARC
  8
APS_GEOMETRY
 10
61.64
 20
-30.312
 40
1.231
 50
355.972
 51
358.68
  0
ARC
  8
APS_GEOMETRY
 10
47.131
 20
-29.978
 40
15.744
 50
358.68
 51
359.437
  0
LINE
  8
APS_GEOMETRY
 10
62.874
 11
62.876
 20
-30.132
 21
-29.887
  0
LINE
  8
APS_GEOMETRY
 10
62.876
 11
62.876
 20
-29.887
 21
-29.566
  0
ARC
  8
APS_GEOMETRY
 10
59.086
 20
-29.566
 40
3.79
 50
360.0
 51
1.717
  0
ARC
  8
APS_GEOMETRY
 10
61.114
 20
-29.505
 40
1.761
 50
1.717
 51
4.236
  0
ARC
  8
APS_GEOMETRY
 10
61.775
 20
-29.456
 40
1.098
 50
4.236
 51
8.269
  0
ARC
  8
APS_GEOMETRY
 10
62.537
 20
-29.346
 40
0.329
 50
8.269
 51
15.642
  0
ARC
  8
APS_GEOMETRY
 10
62.668
 20
-29.309
 40
0.193
 50
15.642
 51
39.417
  0
ARC
  8
APS_GEOMETRY
 10
62.671
 20
-29.307
 40
0.189
 50
39.417
 51
63.435
  0
ARC
  8
APS_GEOMETRY
 10
63.011
 20
-28.602
 40
0.593
 50
236.874
 51
244.486
  0
ARC
  8
APS_GEOMETRY
 10
62.758
 20
-28.99
 40
0.131
 50
220.601
 51
236.874
  0
ARC
  8
APS_GEOMETRY
 10
62.729
 20
-29.015
 40
0.092
 50
198.246
 51
220.601
  0
ARC
  8
APS_GEOMETRY
 10
62.772
 20
-29.0
 40
0.138
 50
180.0
 51
198.246
  0
ARC
  8
APS_GEOMETRY
 10
62.771
 20
-29.0
 40
0.137
 50
156.161
 51
180.0
  0
ARC
  8
APS_GEOMETRY
 10
62.791
 20
-29.009
 40
0.158
 50
133.977
 51
156.161
  0
ARC
  8
APS_GEOMETRY
 10
62.829
 20
-29.049
 40
0.213
 50
116.996
 51
133.977
  0
ARC
  8
APS_GEOMETRY
 10
62.905
 20
-29.197
 40
0.38
 50
104.3
 51
116.996
  0
ARC
  8
APS_GEOMETRY
 10
62.924
 20
-29.273
 40
0.458
 50
95.326
 51
104.349
  0
ARC
  8
APS_GEOMETRY
 10
63.004
 20
-30.124
 40
1.314
 50
90.0
 51
95.326
  0
ARC
  8
APS_GEOMETRY
 10
63.004
 20
-29.461
 40
0.651
 50
87.553
 51
90.0
  0
ARC
  8
APS_GEOMETRY
 10
62.865
 20
-32.701
 40
3.893
 50
86.553
 51
87.553
  0
ARC
  8
APS_GEOMETRY
 10
62.668
 20
-35.968
 40
7.166
 50
86.009
 51
86.553
  0
ARC
  8
APS_GEOMETRY
 10
61.903
 20
-46.939
 40
18.164
 50
85.668
 51
86.009
  0
ARC
  8
APS_GEOMETRY
 10
63.335
 20
-28.073
 40
0.756
 50
265.426
 51
268.531
  0
ARC
  8
APS_GEOMETRY
 10
63.403
 20
-25.451
 40
3.379
 50
268.531
 51
270.0
  0
ARC
  8
APS_GEOMETRY
 10
63.403
 20
-26.255
 40
2.576
 50
270.0
 51
271.637
  0
ARC
  8
APS_GEOMETRY
 10
63.345
 20
-24.241
 40
4.591
 50
271.637
 51
272.862
  0
ARC
  8
APS_GEOMETRY
 10
63.279
 20
-22.919
 40
5.914
 50
272.862
 51
273.814
  0
ARC
  8
APS_GEOMETRY
 10
63.055
 20
-19.564
 40
9.276
 50
273.814
 51
274.574
  0
ARC
  8
APS_GEOMETRY
 10
64.458
 20
-37.814
 40
9.027
 50
93.72
 51
94.214
  0
ARC
  8
APS_GEOMETRY
 10
64.159
 20
-33.208
 40
4.412
 50
93.013
 51
93.72
  0
ARC
  8
APS_GEOMETRY
 10
64.077
 20
-31.648
 40
2.85
 50
91.918
 51
93.013
  0
ARC
  8
APS_GEOMETRY
 10
64.012
 20
-29.727
 40
0.928
 50
90.0
 51
91.918
  0
ARC
  8
APS_GEOMETRY
 10
64.012
 20
-30.005
 40
1.205
 50
73.82
 51
90.0
  0
ARC
  8
APS_GEOMETRY
 10
64.131
 20
-29.595
 40
0.779
 50
53.658
 51
73.82
  0
ARC
  8
APS_GEOMETRY
 10
64.3
 20
-29.364
 40
0.493
 50
26.03
 51
53.569
  0
ARC
  8
APS_GEOMETRY
 10
64.248
 20
-29.39
 40
0.551
 50
360.0
 51
26.03
  0
ARC
  8
APS_GEOMETRY
 10
64.227
 20
-29.39
 40
0.572
 50
345.282
 51
360.0
  0
ARC
  8
APS_GEOMETRY
 10
64.282
 20
-29.404
 40
0.515
 50
329.767
 51
345.282
  0
ARC
  8
APS_GEOMETRY
 10
64.313
 20
-29.422
 40
0.479
 50
313.168
 51
329.767
  0
ARC
  8
APS_GEOMETRY
 10
64.325
 20
-29.435
 40
0.462
 50
296.267
 51
313.168
  0
ARC
  8
APS_GEOMETRY
 10
64.588
 20
-29.966
 40
0.131
 50
116.565
 51
139.899
  0
ARC
  8
APS_GEOMETRY
 10
64.522
 20
-29.911
 40
0.046
 50
139.899
 51
180.0
  0
ARC
  8
APS_GEOMETRY
 10
64.528
 20
-29.911
 40
0.051
 50
180.0
 51
226.193
  0
ARC
  8
APS_GEOMETRY
 10
64.621
 20
-29.814
 40
0.186
 50
226.193
 51
249.829
  0
ARC
  8
APS_GEOMETRY
 10
64.353
 20
-30.552
 40
0.599
 50
53.249
 51
70.105
  0
ARC
  8
APS_GEOMETRY
 10
64.475
 20
-30.389
 40
0.396
 50
32.471
 51
53.249
  0
ARC
  8
APS_GEOMETRY
 10
64.418
 20
-30.425
 40
0.463
 50
23.305
 51
32.471
  0
ARC
  8
APS_GEOMETRY
 10
64.068
 20
-30.576
 40
0.845
 50
16.521
 51
23.305
  0
ARC
  8
APS_GEOMETRY
 10
63.794
 20
-30.657
 40
1.13
 50
11.429
 51
16.521
  0
ARC
  8
APS_GEOMETRY
 10
63.02
 20
-30.813
 40
1.92
 50
7.524
 51
11.429
  0
ARC
  8
APS_GEOMETRY
 10
65.586
 20
-30.472
 40
0.669
 50
187.765
 51
196.914
  0
ARC
  8
APS_GEOMETRY
 10
65.039
 20
-30.638
 40
0.097
 50
196.914
 51
221.082
  0
ARC
  8
APS_GEOMETRY
 10
65.041
 20
-30.636
 40
0.1
 50
221.082
 51
244.607
  0
ARC
  8
APS_GEOMETRY
 10
65.275
 20
-30.144
 40
0.645
 50
244.607
 51
253.811
  0
ARC
  8
APS_GEOMETRY
 10
65.069
 20
-30.844
 40
0.085
 50
51.45
 51
72.474
  0
ARC
  8
APS_GEOMETRY
 10
65.048
 20
-30.871
 40
0.119
 50
33.69
 51
51.45
  0
ARC
  8
APS_GEOMETRY
 10
65.043
 20
-30.874
 40
0.125
 50
16.639
 51
33.69
  0
ARC
  8
APS_GEOMETRY
 10
65.037
 20
-30.876
 40
0.131
 50
360.0
 51
16.639
  0
ARC
  8
APS_GEOMETRY
 10
65.035
 20
-30.876
 40
0.133
 50
338.993
 51
360.0
  0
ARC
  8
APS_GEOMETRY
 10
64.954
 20
-30.845
 40
0.22
 50
322.696
 51
338.993
  0
ARC
  8
APS_GEOMETRY
 10
64.924
 20
-30.822
 40
0.258
 50
308.603
 51
322.696
  0
ARC
  8
APS_GEOMETRY
 10
64.903
 20
-30.796
 40
0.292
 50
295.346
 51
308.603
  0
ARC
  8
APS_GEOMETRY
 10
64.794
 20
-30.554
 40
0.557
 50
279.583
 51
294.905
  0
ARC
  8
APS_GEOMETRY
 10
64.65
 20
-29.705
 40
1.418
 50
270.0
 51
279.583
  0
ARC
  8
APS_GEOMETRY
 10
64.65
 20
-30.089
 40
1.034
 50
261.247
 51
270.0
  0
ARC
  8
APS_GEOMETRY
 10
64.584
 20
-30.519
 40
0.598
 50
249.737
 51
261.247
  0
ARC
  8
APS_GEOMETRY
 10
64.54
 20
-30.637
 40
0.473
 50
235.345
 51
249.737
  0
ARC
  8
APS_GEOMETRY
 10
64.486
 20
-30.717
 40
0.376
 50
219.198
 51
235.345
  0
ARC
  8
APS_GEOMETRY
 10
64.601
 20
-30.618
 40
0.528
 50
209.076
 51
219.56
  0
ARC
  8
APS_GEOMETRY
 10
64.868
 20
-30.47
 40
0.834
 50
200.735
 51
209.076
  0
ARC
  8
APS_GEOMETRY
 10
65.237
 20
-30.33
 40
1.228
 50
197.881
 51
200.735
  0
ARC
  8
APS_GEOMETRY
 10
66.751
 20
-29.842
 40
2.819
 50
195.997
 51
197.881
  0
ARC
  8
APS_GEOMETRY
 10
67.87
 20
-29.521
 40
3.983
 50
194.664
 51
195.997
  0
ARC
  8
APS_GEOMETRY
 10
70.97
 20
-28.71
 40
7.187
 50
193.671
 51
194.664
  0
ARC
  8
APS_GEOMETRY
 10
63.109
 20
-30.621
 40
0.903
 50
13.61
 51
23.585
  0
ARC
  8
APS_GEOMETRY
 10
63.7
 20
-30.363
 40
0.258
 50
23.585
 51
42.31
  0
ARC
  8
APS_GEOMETRY
 10
63.754
 20
-30.314
 40
0.185
 50
42.31
 51
67.521
  0
ARC
  8
APS_GEOMETRY
 10
63.711
 20
-30.416
 40
0.296
 50
67.521
 51
87.397
  0
LINE
  8
APS_GEOMETRY
 10
63.631
 11
63.614
 20
-29.287
 21
-29.668
  0
LINE
  8
APS_GEOMETRY
 10
63.614
 11
63.614
 20
-29.668
 21
-29.674
  0
LINE
  8
APS_GEOMETRY
 10
63.614
 11
63.614
 20
-29.674
 21
-29.682
  0
ARC
  8
APS_GEOMETRY
 10
63.878
 20
-29.682
 40
0.265
 50
180.0
 51
192.339
  0
ARC
  8
APS_GEOMETRY
 10
63.668
 20
-29.728
 40
0.049
 50
192.339
 51
221.186
  0
ARC
  8
APS_GEOMETRY
 10
63.663
 20
-29.733
 40
0.043
 50
221.186
 51
253.872
  0
ARC
  8
APS_GEOMETRY
 10
63.699
 20
-29.609
 40
0.171
 50
253.872
 51
270.0
  0
ARC
  8
APS_GEOMETRY
 10
63.699
 20
-29.382
 40
0.399
 50
270.0
 51
289.569
  0
ARC
  8
APS_GEOMETRY
 10
63.771
 20
-29.586
 40
0.182
 50
289.569
 51
318.681
  0
ARC
  8
APS_GEOMETRY
 10
63.751
 20
-29.569
 40
0.208
 50
318.681
 51
344.628
  0
ARC
  8
APS_GEOMETRY
 10
63.386
 20
-29.468
 40
0.587
 50
344.628
 51
0.0
  0
ARC
  8
APS_GEOMETRY
 10
63.56
 20
-29.468
 40
0.413
 50
0.0
 51
35.369
  0
ARC
  8
APS_GEOMETRY
 10
63.749
 20
-29.334
 40
0.181
 50
35.369
 51
90.0
  0
ARC
  8
APS_GEOMETRY
 10
63.749
 20
-29.336
 40
0.183
 50
90.0
 51
108.435
  0
ARC
  8
APS_GEOMETRY
 10
63.714
 20
-29.229
 40
0.07
 50
108.435
 51
138.366
  0
ARC
  8
APS_GEOMETRY
 10
63.723
 20
-29.237
 40
0.083
 50
138.366
 51
164.291
  0
ARC
  8
APS_GEOMETRY
 10
63.947
 20
-29.3
 40
0.316
 50
164.291
 51
177.51
  0
LINE
  8
APS_GEOMETRY
 10
66.157
 11
67.019
 20
-28.827
 21
-28.827
  0
ARC
  8
APS_GEOMETRY
 10
66.975
 20
-27.592
 40
1.236
 50
272.021
 51
278.44
  0
ARC
  8
APS_GEOMETRY
 10
67.024
 20
-27.92
 40
0.904
 50
278.44
 51
285.945
  0
ARC
  8
APS_GEOMETRY
 10
67.39
 20
-29.23
 40
0.456
 50
98.584
 51
104.931
  0
ARC
  8
APS_GEOMETRY
 10
67.359
 20
-29.026
 40
0.25
 50
90.0
 51
98.584
  0
ARC
  8
APS_GEOMETRY
 10
67.359
 20
-28.964
 40
0.188
 50
52.871
 51
90.0
  0
ARC
  8
APS_GEOMETRY
 10
67.105
 20
-29.3
 40
0.609
 50
32.518
 51
52.871
  0
ARC
  8
APS_GEOMETRY
 10
66.903
 20
-29.429
 40
0.848
 50
17.209
 51
32.518
  0
ARC
  8
APS_GEOMETRY
 10
67.071
 20
-29.377
 40
0.672
 50
360.0
 51
17.209
  0
ARC
  8
APS_GEOMETRY
 10
67.407
 20
-29.377
 40
0.336
 50
337.348
 51
360.0
  0
ARC
  8
APS_GEOMETRY
 10
67.542
 20
-29.433
 40
0.19
 50
307.042
 51
337.348
  0
ARC
  8
APS_GEOMETRY
 10
67.519
 20
-29.401
 40
0.229
 50
287.186
 51
306.87
  0
ARC
  8
APS_GEOMETRY
 10
67.498
 20
-29.333
 40
0.3
 50
270.0
 51
287.186
  0
ARC
  8
APS_GEOMETRY
 10
67.498
 20
-29.364
 40
0.27
 50
252.221
 51
270.0
  0
ARC
  8
APS_GEOMETRY
 10
67.485
 20
-29.403
 40
0.229
 50
232.896
 51
252.221
  0
ARC
  8
APS_GEOMETRY
 10
67.534
 20
-29.339
 40
0.309
 50
218.3
 51
232.896
  0
ARC
  8
APS_GEOMETRY
 10
67.913
 20
-29.039
 40
0.792
 50
209.197
 51
218.3
  0
ARC
  8
APS_GEOMETRY
 10
65.985
 20
-30.084
 40
1.401
 50
28.025
 51
32.699
  0
ARC
  8
APS_GEOMETRY
 10
66.993
 20
-29.437
 40
0.203
 50
32.699
 51
45.0
  0
ARC
  8
APS_GEOMETRY
 10
67.062
 20
-29.368
 40
0.106
 50
45.0
 51
67.557
  0
ARC
  8
APS_GEOMETRY
 10
67.061
 20
-29.369
 40
0.107
 50
67.557
 51
90.0
  0
ARC
  8
APS_GEOMETRY
 10
67.061
 20
-29.361
 40
0.098
 50
90.0
 51
120.801
  0
ARC
  8
APS_GEOMETRY
 10
67.058
 20
-29.355
 40
0.092
 50
120.801
 51
152.7
  0
ARC
  8
APS_GEOMETRY
 10
67.131
 20
-29.393
 40
0.174
 50
152.7
 51
171.085
  0
ARC
  8
APS_GEOMETRY
 10
67.685
 20
-29.48
 40
0.735
 50
171.085
 51
180.0
  0
LINE
  8
APS_GEOMETRY
 10
66.95
 11
66.95
 20
-29.48
 21
-30.395
  0
ARC
  8
APS_GEOMETRY
 10
67.922
 20
-30.395
 40
0.971
 50
180.0
 51
188.194
  0
ARC
  8
APS_GEOMETRY
 10
67.196
 20
-30.5
 40
0.238
 50
188.194
 51
204.775
  0
ARC
  8
APS_GEOMETRY
 10
67.126
 20
-30.532
 40
0.161
 50
204.775
 51
228.576
  0
ARC
  8
APS_GEOMETRY
 10
67.192
 20
-30.457
 40
0.261
 50
228.576
 51
247.218
  0
ARC
  8
APS_GEOMETRY
 10
66.808
 20
-31.361
 40
0.721
 50
59.381
 51
66.93
  0
ARC
  8
APS_GEOMETRY
 10
67.091
 20
-30.883
 40
0.165
 50
43.568
 51
59.381
  0
ARC
  8
APS_GEOMETRY
 10
67.137
 20
-30.84
 40
0.103
 50
19.041
 51
43.568
  0
ARC
  8
APS_GEOMETRY
 10
67.074
 20
-30.861
 40
0.169
 50
360.0
 51
19.041
  0
ARC
  8
APS_GEOMETRY
 10
67.106
 20
-30.861
 40
0.137
 50
317.66
 51
360.0
  0
ARC
  8
APS_GEOMETRY
 10
66.979
 20
-30.746
 40
0.308
 50
289.747
 51
317.66
  0
ARC
  8
APS_GEOMETRY
 10
66.874
 20
-30.452
 40
0.621
 50
281.964
 51
289.747
  0
ARC
  8
APS_GEOMETRY
 10
66.727
 20
-29.762
 40
1.327
 50
276.643
 51
281.964
  0
ARC
  8
APS_GEOMETRY
 10
66.666
 20
-29.233
 40
1.859
 50
272.836
 51
276.643
  0
ARC
  8
APS_GEOMETRY
 10
66.592
 20
-27.744
 40
3.35
 50
270.0
 51
272.836
  0
ARC
  8
APS_GEOMETRY
 10
66.592
 20
-26.822
 40
4.272
 50
267.283
 51
270.0
  0
ARC
  8
APS_GEOMETRY
 10
66.502
 20
-28.712
 40
2.38
 50
263.643
 51
267.283
  0
ARC
  8
APS_GEOMETRY
 10
66.427
 20
-29.386
 40
1.701
 50
258.563
 51
263.643
  0
ARC
  8
APS_GEOMETRY
 10
66.248
 20
-30.273
 40
0.796
 50
251.136
 51
258.563
  0
ARC
  8
APS_GEOMETRY
 10
66.088
 20
-30.737
 40
0.305
 50
222.558
 51
251.395
  0
ARC
  8
APS_GEOMETRY
 10
65.969
 20
-30.847
 40
0.144
 50
180.0
 51
222.558
  0
ARC
  8
APS_GEOMETRY
 10
65.945
 20
-30.847
 40
0.12
 50
150.642
 51
180.0
  0
ARC
  8
APS_GEOMETRY
 10
65.954
 20
-30.852
 40
0.131
 50
122.574
 51
150.642
  0
ARC
  8
APS_GEOMETRY
 10
65.929
 20
-30.823
 40
0.093
 50
108.677
 51
119.055
  0
ARC
  8
APS_GEOMETRY
 10
67.085
 20
-34.242
 40
3.702
 50
107.038
 51
108.677
  0
ARC
  8
APS_GEOMETRY
 10
65.957
 20
-30.554
 40
0.155
 50
286.144
 51
308.66
  0
ARC
  8
APS_GEOMETRY
 10
65.982
 20
-30.586
 40
0.114
 50
308.66
 51
334.933
  0
ARC
  8
APS_GEOMETRY
 10
65.879
 20
-30.537
 40
0.228
 50
334.933
 51
348.829
  0
ARC
  8
APS_GEOMETRY
 10
64.588
 20
-30.282
 40
1.545
 50
348.829
 51
354.161
  0
ARC
  8
APS_GEOMETRY
 10
63.715
 20
-30.192
 40
2.422
 50
354.144
 51
355.66
  0
ARC
  8
APS_GEOMETRY
 10
59.846
 20
-29.899
 40
6.302
 50
355.66
 51
356.6
  0
ARC
  8
APS_GEOMETRY
 10
56.889
 20
-29.723
 40
9.265
 50
356.6
 51
357.24
  0
ARC
  8
APS_GEOMETRY
 10
48.498
 20
-29.318
 40
17.666
 50
357.24
 51
357.703
  0
ARC
  8
APS_GEOMETRY
 10
49.324
 20
-29.352
 40
16.839
 50
357.703
 51
358.674
  0
ARC
  8
APS_GEOMETRY
 10
57.115
 20
-29.532
 40
9.045
 50
358.674
 51
0.0
  0
ARC
  8
APS_GEOMETRY
 10
64.82
 20
-29.532
 40
1.341
 50
360.0
 51
6.242
  0
ARC
  8
APS_GEOMETRY
 10
65.886
 20
-29.415
 40
0.268
 50
6.242
 51
20.225
  0
ARC
  8
APS_GEOMETRY
 10
66.034
 20
-29.361
 40
0.111
 50
20.225
 51
50.44
  0
ARC
  8
APS_GEOMETRY
 10
66.062
 20
-29.326
 40
0.066
 50
50.44
 51
90.0
  0
ARC
  8
APS_GEOMETRY
 10
66.062
 20
-29.349
 40
0.088
 50
90.0
 51
126.747
  0
ARC
  8
APS_GEOMETRY
 10
66.187
 20
-29.515
 40
0.296
 50
126.747
 51
146.547
  0
ARC
  8
APS_GEOMETRY
 10
63.987
 20
-28.07
 40
2.336
 50
324.255
 51
326.701
  0
ARC
  8
APS_GEOMETRY
 10
64.919
 20
-28.74
 40
1.188
 50
320.826
 51
324.255
  0
ARC
  8
APS_GEOMETRY
 10
65.223
 20
-28.988
 40
0.796
 50
315.722
 51
320.826
  0
ARC
  8
APS_GEOMETRY
 10
65.573
 20
-29.329
 40
0.307
 50
307.504
 51
315.722
  0
ARC
  8
APS_GEOMETRY
 10
65.54
 20
-29.286
 40
0.361
 50
291.306
 51
307.405
  0
ARC
  8
APS_GEOMETRY
 10
65.596
 20
-29.429
 40
0.207
 50
270.0
 51
291.306
  0
ARC
  8
APS_GEOMETRY
 10
65.596
 20
-29.443
 40
0.194
 50
245.532
 51
270.0
  0
ARC
  8
APS_GEOMETRY
 10
65.595
 20
-29.446
 40
0.19
 50
220.833
 51
245.532
  0
ARC
  8
APS_GEOMETRY
 10
65.615
 20
-29.429
 40
0.216
 50
198.684
 51
220.833
  0
ARC
  8
APS_GEOMETRY
 10
65.697
 20
-29.401
 40
0.303
 50
180.0
 51
198.684
  0
ARC
  8
APS_GEOMETRY
 10
65.889
 20
-29.401
 40
0.495
 50
168.408
 51
180.0
  0
ARC
  8
APS_GEOMETRY
 10
66.207
 20
-29.466
 40
0.82
 50
159.402
 51
168.408
  0
ARC
  8
APS_GEOMETRY
 10
66.305
 20
-29.503
 40
0.924
 50
151.39
 51
159.402
  0
ARC
  8
APS_GEOMETRY
 10
66.285
 20
-29.492
 40
0.902
 50
143.276
 51
151.39
  0
ARC
  8
APS_GEOMETRY
 10
66.032
 20
-29.303
 40
0.586
 50
124.216
 51
143.31
  0
ARC
  8
APS_GEOMETRY
 10
65.807
 20
-28.973
 40
0.186
 50
90.0
 51
124.216
  0
ARC
  8
APS_GEOMETRY
 10
65.807
 20
-29.056
 40
0.269
 50
82.725
 51
90.0
  0
ARC
  8
APS_GEOMETRY
 10
65.786
 20
-29.22
 40
0.435
 50
77.005
 51
82.725
  0
ARC
  8
APS_GEOMETRY
 10
66.429
 20
-26.123
 40
2.728
 50
258.486
 51
260.378
  0
ARC
  8
APS_GEOMETRY
 10
66.153
 20
-27.746
 40
1.082
 50
260.378
 51
263.382
  0
ARC
  8
APS_GEOMETRY
 10
66.13
 20
-27.949
 40
0.877
 50
263.382
 51
267.084
  0
ARC
  8
APS_GEOMETRY
 10
66.157
 20
-27.414
 40
1.414
 50
267.084
 51
270.0
  0
LINE
  8
APS_GEOMETRY
 10
68.328
 11
69.169
 20
-28.827
 21
-28.827
  0
ARC
  8
APS_GEOMETRY
 10
69.169
 20
-18.241
 40
10.586
 50
270.0
 51
270.69
  0
ARC
  8
APS_GEOMETRY
 10
69.228
 20
-23.194
 40
5.633
 50
270.69
 51
271.637
  0
ARC
  8
APS_GEOMETRY
 10
69.278
 20
-24.954
 40
3.872
 50
271.637
 51
273.013
  0
ARC
  8
APS_GEOMETRY
 10
69.401
 20
-27.282
 40
1.541
 50
273.013
 51
275.194
  0
ARC
  8
APS_GEOMETRY
 10
69.431
 20
-27.616
 40
1.206
 50
275.194
 51
280.756
  0
ARC
  8
APS_GEOMETRY
 10
69.437
 20
-27.646
 40
1.175
 50
280.756
 51
286.39
  0
ARC
  8
APS_GEOMETRY
 10
69.868
 20
-29.12
 40
0.361
 50
100.305
 51
105.945
  0
ARC
  8
APS_GEOMETRY
 10
69.823
 20
-28.872
 40
0.108
 50
90.0
 51
100.305
  0
ARC
  8
APS_GEOMETRY
 10
69.823
 20
-28.91
 40
0.147
 50
58.946
 51
90.0
  0
ARC
  8
APS_GEOMETRY
 10
69.766
 20
-29.004
 40
0.256
 50
35.538
 51
58.946
  0
ARC
  8
APS_GEOMETRY
 10
69.547
 20
-29.165
 40
0.528
 50
16.699
 51
35.952
  0
ARC
  8
APS_GEOMETRY
 10
69.382
 20
-29.215
 40
0.701
 50
360.0
 51
16.699
  0
ARC
  8
APS_GEOMETRY
 10
69.689
 20
-29.215
 40
0.393
 50
344.982
 51
360.0
  0
ARC
  8
APS_GEOMETRY
 10
69.878
 20
-29.265
 40
0.198
 50
323.746
 51
344.982
  0
ARC
  8
APS_GEOMETRY
 10
69.92
 20
-29.296
 40
0.146
 50
296.114
 51
323.746
  0
ARC
  8
APS_GEOMETRY
 10
69.913
 20
-29.281
 40
0.163
 50
270.0
 51
296.114
  0
ARC
  8
APS_GEOMETRY
 10
69.913
 20
-29.239
 40
0.204
 50
255.311
 51
270.0
  0
ARC
  8
APS_GEOMETRY
 10
69.885
 20
-29.344
 40
0.097
 50
233.881
 51
255.311
  0
ARC
  8
APS_GEOMETRY
 10
69.914
 20
-29.304
 40
0.145
 50
219.289
 51
233.881
  0
ARC
  8
APS_GEOMETRY
 10
70.49
 20
-28.832
 40
0.89
 50
213.408
 51
219.289
  0
ARC
  8
APS_GEOMETRY
 10
69.41
 20
-29.544
 40
0.403
 50
33.294
 51
51.246
  0
ARC
  8
APS_GEOMETRY
 10
69.465
 20
-29.476
 40
0.315
 50
51.246
 51
71.565
  0
ARC
  8
APS_GEOMETRY
 10
69.429
 20
-29.584
 40
0.43
 50
71.565
 51
79.278
  0
ARC
  8
APS_GEOMETRY
 10
69.313
 20
-30.199
 40
1.056
 50
79.278
 51
84.2
  0
ARC
  8
APS_GEOMETRY
 10
69.263
 20
-30.688
 40
1.547
 50
84.2
 51
87.567
  0
ARC
  8
APS_GEOMETRY
 10
69.203
 20
-32.102
 40
2.963
 50
87.567
 51
90.0
  0
ARC
  8
APS_GEOMETRY
 10
69.203
 20
-29.972
 40
0.833
 50
90.0
 51
96.374
  0
ARC
  8
APS_GEOMETRY
 10
69.148
 20
-29.477
 40
0.335
 50
96.374
 51
106.434
  0
ARC
  8
APS_GEOMETRY
 10
69.108
 20
-29.344
 40
0.196
 50
106.434
 51
123.056
  0
ARC
  8
APS_GEOMETRY
 10
69.047
 20
-29.25
 40
0.084
 50
123.056
 51
148.627
  0
ARC
  8
APS_GEOMETRY
 10
69.103
 20
-29.282
 40
0.148
 50
149.421
 51
165.28
  0
ARC
  8
APS_GEOMETRY
 10
69.264
 20
-29.324
 40
0.315
 50
165.28
 51
176.135
  0
ARC
  8
APS_GEOMETRY
 10
69.727
 20
-29.355
 40
0.778
 50
176.135
 51
178.367
  0
ARC
  8
APS_GEOMETRY
 10
74.002
 20
-29.477
 40
5.055
 50
178.367
 51
179.242
  0
ARC
  8
APS_GEOMETRY
 10
78.42
 20
-29.536
 40
9.474
 50
179.242
 51
179.709
  0
ARC
  8
APS_GEOMETRY
 10
93.453
 20
-29.612
 40
24.507
 50
179.709
 51
180.0
  0
ARC
  8
APS_GEOMETRY
 10
69.301
 20
-29.612
 40
0.355
 50
180.0
 51
195.027
  0
ARC
  8
APS_GEOMETRY
 10
69.011
 20
-29.69
 40
0.054
 50
195.027
 51
234.058
  0
ARC
  8
APS_GEOMETRY
 10
69.014
 20
-29.686
 40
0.059
 50
234.058
 51
253.191
  0
ARC
  8
APS_GEOMETRY
 10
69.075
 20
-29.481
 40
0.273
 50
253.191
 51
262.063
  0
ARC
  8
APS_GEOMETRY
 10
69.107
 20
-29.254
 40
0.503
 50
262.063
 51
266.949
  0
ARC
  8
APS_GEOMETRY
 10
69.149
 20
-28.47
 40
1.288
 50
266.949
 51
270.0
  0
ARC
  8
APS_GEOMETRY
 10
69.149
 20
-29.521
 40
0.236
 50
270.0
 51
286.007
  0
ARC
  8
APS_GEOMETRY
 10
69.19
 20
-29.666
 40
0.086
 50
286.007
 51
312.647
  0
ARC
  8
APS_GEOMETRY
 10
69.189
 20
-29.665
 40
0.088
 50
312.647
 51
338.993
  0
ARC
  8
APS_GEOMETRY
 10
69.011
 20
-29.596
 40
0.279
 50
338.993
 51
353.66
  0
ARC
  8
APS_GEOMETRY
 10
70.857
 20
-29.816
 40
1.58
 50
169.663
 51
173.118
  0
ARC
  8
APS_GEOMETRY
 10
69.537
 20
-29.575
 40
0.239
 50
160.769
 51
169.663
  0
ARC
  8
APS_GEOMETRY
 10
69.427
 20
-29.537
 40
0.122
 50
143.746
 51
160.769
  0
ARC
  8
APS_GEOMETRY
 10
69.453
 20
-29.556
 40
0.155
 50
128.66
 51
143.746
  0
ARC
  8
APS_GEOMETRY
 10
69.436
 20
-29.528
 40
0.121
 50
110.171
 51
130.601
  0
ARC
  8
APS_GEOMETRY
 10
69.437
 20
-29.531
 40
0.125
 50
90.0
 51
110.171
  0
ARC
  8
APS_GEOMETRY
 10
69.437
 20
-29.532
 40
0.126
 50
61.22
 51
90.0
  0
ARC
  8
APS_GEOMETRY
 10
69.415
 20
-29.573
 40
0.172
 50
36.634
 51
61.22
  0
ARC
  8
APS_GEOMETRY
 10
69.394
 20
-29.585
 40
0.196
 50
19.103
 51
35.91
  0
ARC
  8
APS_GEOMETRY
 10
68.754
 20
-29.806
 40
0.873
 50
11.16
 51
19.103
  0
ARC
  8
APS_GEOMETRY
 10
68.42
 20
-29.872
 40
1.214
 50
5.396
 51
11.16
  0
ARC
  8
APS_GEOMETRY
 10
68.25
 20
-29.888
 40
1.385
 50
0.0
 51
5.396
  0
ARC
  8
APS_GEOMETRY
 10
68.274
 20
-29.888
 40
1.361
 50
349.287
 51
0.0
  0
ARC
  8
APS_GEOMETRY
 10
68.942
 20
-30.015
 40
0.681
 50
334.12
 51
349.287
  0
ARC
  8
APS_GEOMETRY
 10
69.402
 20
-30.237
 40
0.17
 50
303.53
 51
333.853
  0
ARC
  8
APS_GEOMETRY
 10
69.419
 20
-30.262
 40
0.14
 50
270.0
 51
303.53
  0
ARC
  8
APS_GEOMETRY
 10
69.419
 20
-30.256
 40
0.146
 50
249.578
 51
270.0
  0
ARC
  8
APS_GEOMETRY
 10
69.388
 20
-30.339
 40
0.057
 50
216.607
 51
249.578
  0
ARC
  8
APS_GEOMETRY
 10
69.417
 20
-30.317
 40
0.094
 50
195.422
 51
216.607
  0
ARC
  8
APS_GEOMETRY
 10
69.93
 20
-30.176
 40
0.626
 50
187.253
 51
195.422
  0
ARC
  8
APS_GEOMETRY
 10
69.102
 20
-30.282
 40
0.209
 50
7.561
 51
49.434
  0
ARC
  8
APS_GEOMETRY
 10
69.093
 20
-30.292
 40
0.222
 50
49.434
 51
90.0
  0
ARC
  8
APS_GEOMETRY
 10
69.093
 20
-30.219
 40
0.15
 50
90.0
 51
115.224
  0
ARC
  8
APS_GEOMETRY
 10
69.064
 20
-30.157
 40
0.08
 50
115.224
 51
149.931
  0
ARC
  8
APS_GEOMETRY
 10
69.117
 20
-30.188
 40
0.142
 50
149.931
 51
171.111
  0
ARC
  8
APS_GEOMETRY
 10
69.766
 20
-30.289
 40
0.798
 50
171.111
 51
180.0
  0
ARC
  8
APS_GEOMETRY
 10
70.404
 20
-30.289
 40
1.437
 50
180.0
 51
183.062
  0
ARC
  8
APS_GEOMETRY
 10
72.604
 20
-30.171
 40
3.639
 50
183.062
 51
184.986
  0
ARC
  8
APS_GEOMETRY
 10
71.45
 20
-30.272
 40
2.481
 50
184.986
 51
187.804
  0
ARC
  8
APS_GEOMETRY
 10
69.265
 20
-30.571
 40
0.276
 50
187.804
 51
196.26
  0
ARC
  8
APS_GEOMETRY
 10
69.072
 20
-30.629
 40
0.075
 50
194.931
 51
230.024
  0
ARC
  8
APS_GEOMETRY
 10
69.121
 20
-30.571
 40
0.151
 50
230.024
 51
254.511
  0
ARC
  8
APS_GEOMETRY
 10
69.181
 20
-30.356
 40
0.374
 50
254.511
 51
265.219
  0
ARC
  8
APS_GEOMETRY
 10
69.306
 20
-28.863
 40
1.873
 50
265.219
 51
270.0
  0
ARC
  8
APS_GEOMETRY
 10
69.306
 20
-29.061
 40
1.675
 50
270.0
 51
274.186
  0
ARC
  8
APS_GEOMETRY
 10
69.357
 20
-29.756
 40
0.977
 50
274.186
 51
279.668
  0
ARC
  8
APS_GEOMETRY
 10
69.399
 20
-30.002
 40
0.728
 50
279.668
 51
286.991
  0
ARC
  8
APS_GEOMETRY
 10
69.494
 20
-30.315
 40
0.401
 50
286.991
 51
296.866
  0
ARC
  8
APS_GEOMETRY
 10
69.514
 20
-30.354
 40
0.357
 50
296.866
 51
318.366
  0
ARC
  8
APS_GEOMETRY
 10
69.314
 20
-30.176
 40
0.624
 50
318.366
 51
334.581
  0
ARC
  8
APS_GEOMETRY
 10
70.631
 20
-30.808
 40
0.836
 50
147.08
 51
154.231
  0
ARC
  8
APS_GEOMETRY
 10
70.08
 20
-30.451
 40
0.18
 50
131.634
 51
147.08
  0
ARC
  8
APS_GEOMETRY
 10
70.039
 20
-30.405
 40
0.118
 50
108.875
 51
131.634
  0
ARC
  8
APS_GEOMETRY
 10
70.056
 20
-30.455
 40
0.171
 50
90.0
 51
108.875
  0
ARC
  8
APS_GEOMETRY
 10
70.056
 20
-30.42
 40
0.136
 50
62.628
 51
90.0
  0
ARC
  8
APS_GEOMETRY
 10
70.048
 20
-30.437
 40
0.155
 50
36.995
 51
62.628
  0
ARC
  8
APS_GEOMETRY
 10
70.009
 20
-30.466
 40
0.204
 50
16.728
 51
36.995
  0
ARC
  8
APS_GEOMETRY
 10
69.919
 20
-30.493
 40
0.298
 50
360.0
 51
16.728
  0
ARC
  8
APS_GEOMETRY
 10
69.74
 20
-30.493
 40
0.477
 50
348.323
 51
360.0
  0
ARC
  8
APS_GEOMETRY
 10
69.025
 20
-30.346
 40
1.207
 50
340.994
 51
348.323
  0
ARC
  8
APS_GEOMETRY
 10
68.855
 20
-30.287
 40
1.387
 50
334.592
 51
340.994
  0
ARC
  8
APS_GEOMETRY
 10
69.151
 20
-30.428
 40
1.059
 50
327.265
 51
334.592
  0
ARC
  8
APS_GEOMETRY
 10
69.495
 20
-30.631
 40
0.66
 50
320.133
 51
325.923
  0
ARC
  8
APS_GEOMETRY
 10
69.895
 20
-30.965
 40
0.139
 50
307.476
 51
320.133
  0
ARC
  8
APS_GEOMETRY
 10
69.93
 20
-31.01
 40
0.081
 50
286.429
 51
307.476
  0
ARC
  8
APS_GEOMETRY
 10
69.916
 20
-30.961
 40
0.132
 50
270.0
 51
286.429
  0
ARC
  8
APS_GEOMETRY
 10
69.916
 20
-30.808
 40
0.285
 50
263.774
 51
270.0
  0
ARC
  8
APS_GEOMETRY
 10
69.999
 20
-30.043
 40
1.055
 50
260.538
 51
263.774
  0
ARC
  8
APS_GEOMETRY
 10
69.626
 20
-32.151
 40
1.086
 50
79.38
 51
84.987
  0
ARC
  8
APS_GEOMETRY
 10
69.464
 20
-33.996
 40
2.938
 50
84.987
 51
88.394
  0
LINE
  8
APS_GEOMETRY
 10
69.546
 11
68.16
 20
-31.059
 21
-31.059
  0
ARC
  8
APS_GEOMETRY
 10
68.16
 20
-30.769
 40
0.29
 50
254.103
 51
270.0
  0
ARC
  8
APS_GEOMETRY
 10
68.119
 20
-30.912
 40
0.141
 50
231.216
 51
254.103
  0
ARC
  8
APS_GEOMETRY
 10
68.102
 20
-30.933
 40
0.114
 50
203.795
 51
231.216
  0
ARC
  8
APS_GEOMETRY
 10
68.136
 20
-30.919
 40
0.151
 50
180.0
 51
203.795
  0
ARC
  8
APS_GEOMETRY
 10
68.148
 20
-30.919
 40
0.164
 50
164.055
 51
180.0
  0
ARC
  8
APS_GEOMETRY
 10
68.047
 20
-30.89
 40
0.059
 50
137.291
 51
164.055
  0
ARC
  8
APS_GEOMETRY
 10
68.078
 20
-30.918
 40
0.1
 50
120.964
 51
137.291
  0
ARC
  8
APS_GEOMETRY
 10
68.403
 20
-31.459
 40
0.732
 50
114.944
 51
120.964
  0
ARC
  8
APS_GEOMETRY
 10
67.997
 20
-30.572
 40
0.244
 50
293.429
 51
305.72
  0
ARC
  8
APS_GEOMETRY
 10
68.064
 20
-30.665
 40
0.129
 50
305.72
 51
322.651
  0
ARC
  8
APS_GEOMETRY
 10
68.054
 20
-30.657
 40
0.142
 50
322.651
 51
338.11
  0
ARC
  8
APS_GEOMETRY
 10
67.851
 20
-30.576
 40
0.361
 50
338.11
 51
347.8
  0
ARC
  8
APS_GEOMETRY
 10
66.591
 20
-30.3
 40
1.651
 50
347.672
 51
352.051
  0
ARC
  8
APS_GEOMETRY
 10
65.371
 20
-30.129
 40
2.882
 50
352.051
 51
355.365
  0
ARC
  8
APS_GEOMETRY
 10
64.55
 20
-30.063
 40
3.706
 50
355.365
 51
357.943
  0
ARC
  8
APS_GEOMETRY
 10
62.429
 20
-29.987
 40
5.828
 50
357.943
 51
0.0
  0
ARC
  8
APS_GEOMETRY
 10
59.982
 20
-29.987
 40
8.276
 50
360.0
 51
2.183
  0
ARC
  8
APS_GEOMETRY
 10
64.931
 20
-29.798
 40
3.324
 50
2.183
 51
5.629
  0
ARC
  8
APS_GEOMETRY
 10
66.405
 20
-29.653
 40
1.842
 50
5.629
 51
11.805
  0
ARC
  8
APS_GEOMETRY
 10
67.836
 20
-29.353
 40
0.38
 50
11.805
 51
25.419
  0
ARC
  8
APS_GEOMETRY
 10
68.021
 20
-29.269
 40
0.177
 50
26.565
 51
38.157
  0
ARC
  8
APS_GEOMETRY
 10
68.103
 20
-29.205
 40
0.073
 50
38.157
 51
56.31
  0
ARC
  8
APS_GEOMETRY
 10
68.086
 20
-29.231
 40
0.104
 50
56.31
 51
69.193
  0
ARC
  8
APS_GEOMETRY
 10
67.842
 20
-29.873
 40
0.791
 50
69.193
 51
73.856
  0
ARC
  8
APS_GEOMETRY
 10
68.099
 20
-28.988
 40
0.131
 50
216.87
 51
253.393
  0
ARC
  8
APS_GEOMETRY
 10
68.097
 20
-28.989
 40
0.129
 50
180.0
 51
216.87
  0
ARC
  8
APS_GEOMETRY
 10
68.125
 20
-28.989
 40
0.157
 50
161.565
 51
180.0
  0
ARC
  8
APS_GEOMETRY
 10
68.12
 20
-28.987
 40
0.151
 50
142.765
 51
161.565
  0
ARC
  8
APS_GEOMETRY
 10
68.116
 20
-28.984
 40
0.146
 50
123.425
 51
142.765
  0
ARC
  8
APS_GEOMETRY
 10
68.119
 20
-28.989
 40
0.152
 50
104.47
 51
123.425
  0
ARC
  8
APS_GEOMETRY
 10
68.148
 20
-29.132
 40
0.298
 50
96.724
 51
102.995
  0
ARC
  8
APS_GEOMETRY
 10
68.238
 20
-29.896
 40
1.067
 50
93.411
 51
96.724
  0
ARC
  8
APS_GEOMETRY
 10
68.278
 20
-30.567
 40
1.74
 50
91.375
 51
93.411
  0
ARC
  8
APS_GEOMETRY
 10
68.328
 20
-32.642
 40
3.815
 50
90.0
 51
91.375
  0
LINE
  8
COSTRUZIONI
 10
24.651
 11
224.651
 20
-45.289
 21
-45.289
  0
LINE
  8
COSTRUZIONI
 10
224.651
 11
224.651
 20
-45.289
 21
-25.289
  0
LINE
  8
COSTRUZIONI
 10
224.651
 11
24.651
 20
-25.289
 21
-25.289
  0
LINE
  8
COSTRUZIONI
 10
24.651
 11
24.651
 20
-25.289
 21
-45.289
  0
LINE
  8
COSTRUZIONI
 10
71.236
 11
71.236
 20
-45.289
 21
-25.289
  0
LINE
  8
COSTRUZIONI
 10
204.761
 11
204.761
 20
-45.289
 21
-25.289
  0
LINE
  8
COSTRUZIONI
 10
224.651
 11
71.236
 20
-30.289
 21
-30.289
  0
LINE
  8
COSTRUZIONI
 10
204.761
 11
224.651
 20
-40.289
 21
-40.289
  0
LINE
  8
COSTRUZIONI
 10
71.236
 11
224.651
 20
-35.289
 21
-35.289
  0
LINE
  8
COSTRUZIONI
 10
174.081
 11
174.081
 20
-35.289
 21
-30.289
  0
LINE
  8
COSTRUZIONI
 10
124.573
 11
124.573
 20
-35.289
 21
-30.289
  0
LINE
  8
APS_GEOMETRY
 10
187.5
 11
213.0
 20
34.5
 21
9.0
  0
LINE
  8
APS_GEOMETRY
 10
187.5
 11
212.5
 20
9.5
 21
34.5
  0
LINE
  8
QUOTATURA
 10
0.0
 11
0.0
 20
49.0
 21
76.882
  0
LINE
  8
QUOTATURA
 10
200.0
 11
200.0
 20
60.233
 21
76.882
  0
LINE
  8
QUOTATURA
 10
0.0
 11
85.838
 20
71.882
 21
71.882
  0
LINE
  8
QUOTATURA
 10
114.162
 11
200.0
 20
71.882
 21
71.882
  0
LINE
  8
QUOTATURA
 10
10.0
 11
0.0
 20
70.215
 21
71.882
  0
LINE
  8
QUOTATURA
 10
0.0
 11
10.0
 20
71.882
 21
73.549
  0
LINE
  8
QUOTATURA
 10
10.0
 11
10.0
 20
73.549
 21
70.215
  0
LINE
  8
QUOTATURA
 10
190.0
 11
200.0
 20
73.549
 21
71.882
  0
LINE
  8
QUOTATURA
 10
200.0
 11
190.0
 20
71.882
 21
70.215
  0
LINE
  8
QUOTATURA
 10
190.0
 11
190.0
 20
70.215
 21
73.549
  0
LINE
  8
QUOTATURA
 10
-5.0
 11
-17.206
 20
0.0
 21
0.0
  0
LINE
  8
QUOTATURA
 10
-5.0
 11
-17.206
 20
44.0
 21
44.0
  0
LINE
  8
QUOTATURA
 10
-12.206
 11
-12.206
 20
0.0
 21
14.5
  0
LINE
  8
QUOTATURA
 10
-12.206
 11
-12.206
 20
29.332
 21
44.0
  0
LINE
  8
QUOTATURA
 10
-10.539
 11
-12.206
 20
10.0
 21
0.0
  0
LINE
  8
QUOTATURA
 10
-12.206
 11
-13.873
 20
0.0
 21
10.0
  0
LINE
  8
QUOTATURA
 10
-13.873
 11
-10.539
 20
10.0
 21
10.0
  0
LINE
  8
QUOTATURA
 10
-13.873
 11
-12.206
 20
34.0
 21
44.0
  0
LINE
  8
QUOTATURA
 10
-12.206
 11
-10.539
 20
44.0
 21
34.0
  0
LINE
  8
QUOTATURA
 10
-10.539
 11
-13.873
 20
34.0
 21
34.0
  0
TEXT
  8
QUOTATURA
 10
193.58
 20
27.505
 30
0.0
 40
5.0
 50
0.0
  1
25
  0
TEXT
  8
QUOTATURA
 10
201.307
 20
19.5
 30
0.0
 40
5.0
 50
0.0
  1
25
  0
TEXT
  8
QUOTATURA
 10
148.839
 20
19.5
 30
0.0
 40
5.0
 50
0.0
  1
32
  0
TEXT
  8
QUOTATURA
 10
173.431
 20
19.5
 30
0.0
 40
5.0
 50
0.0
  1
26
  0
TEXT
  8
QUOTATURA
 10
178.761
 20
-11.968
 30
0.0
 40
5.0
 50
0.0
  1
35
  0
TEXT
  8
QUOTATURA
 10
213.761
 20
-11.813
 30
0.0
 40
5.0
 50
0.0
  1
35
  0
TEXT
  8
QUOTATURA
 10
172.926
 20
50.233
 30
0.0
 40
5.0
 50
0.0
  1
14
  0
TEXT
  8
QUOTATURA
 10
185.056
 20
-5.968
 30
0.0
 40
5.0
 50
0.0
  1
3
  0
TEXT
  8
TEXT
 10
215.45
 20
-39.432
 30
0.0
 40
2.0
 50
0.0
  1
B.Stefano
  0
TEXT
  8
TEXT
 10
71.731
 20
-27.156
 30
0.0
 40
1.5
 50
0.0
  1
file:
  0
TEXT
  8
TEXT
 10
205.453
 20
-27.186
 30
0.0
 40
1.5
 50
0.0
  1
data:
  0
TEXT
  8
TEXT
 10
216.806
 20
-29.166
 30
0.0
 40
2.0
 50
0.0
  1
11/10/16
  0
TEXT
  8
TEXT
 10
216.908
 20
-44.814
 30
0.0
 40
2.0
 50
0.0
  1
1 : 1 (A4)
  0
TEXT
  8
TEXT
 10
205.266
 20
-36.948
 30
0.0
 40
1.5
 50
0.0
  1
responsabile tecnico:
  0
TEXT
  8
TEXT
 10
205.472
 20
-42.186
 30
0.0
 40
1.5
 50
0.0
  1
scala:
  0
TEXT
  8
TEXT
 10
25.527
 20
-27.215
 30
0.0
 40
1.5
 50
0.0
  1
Ufficio tecnico:
  0
TEXT
  8
TEXT
 10
25.427
 20
-34.487
 30
0.0
 40
2.0
 50
0.0
  1
tel. 0577-68.54.26
  0
TEXT
  8
TEXT
 10
25.427
 20
-37.487
 30
0.0
 40
2.0
 50
0.0
  1
fax 0577-68.64.29
  0
TEXT
  8
TEXT
 10
25.427
 20
-40.487
 30
0.0
 40
2.0
 50
0.0
  1
e-mail: tecnico@toscocornici.it
  0
TEXT
  8
TEXT
 10
25.427
 20
-43.487
 30
0.0
 40
2.0
 50
0.0
  1
web: www.tosococornici.it
  0
TEXT
  8
TEXT
 10
76.415
 20
-29.214
 30
0.0
 40
2.0
 50
0.0
  1
PROFILO X CASSETTO ALLUMINIO 25X25
  0
TEXT
  8
TEXT
 10
71.731
 20
-32.156
 30
0.0
 40
1.5
 50
0.0
  1
pezzo:
  0
TEXT
  8
TEXT
 10
76.415
 20
-34.214
 30
0.0
 40
2.0
 50
0.0
  1
PEZZO
  0
TEXT
  8
TEXT
 10
71.731
 20
-37.654
 30
0.0
 40
2.0
 50
0.0
  1
firma per accettazione / must sign in acceptance
  0
TEXT
  8
TEXT
 10
125.146
 20
-32.156
 30
0.0
 40
1.5
 50
0.0
  1
lotto:
  0
TEXT
  8
TEXT
 10
129.951
 20
-34.214
 30
0.0
 40
2.0
 50
0.0
  1
________
  0
TEXT
  8
TEXT
 10
175.146
 20
-32.156
 30
0.0
 40
1.5
 50
0.0
  1
ordine:
  0
TEXT
  8
TEXT
 10
180.554
 20
-34.214
 30
0.0
 40
2.0
 50
0.0
  1
______
  0
TEXT
  8
TEXT
 10
205.256
 20
-32.156
 30
0.0
 40
1.5
 50
0.0
  1
pos:
  0
TEXT
  8
TEXT
 10
209.698
 20
-34.214
 30
0.0
 40
2.0
 50
0.0
  1
_______
  0
TEXT
  8
TEXT
 10
76.296
 20
-43.265
 30
0.0
 40
5.0
 50
0.0
  1
_________________________
  0
TEXT
  8
QUOTATURA
 10
88.338
 20
66.882
 30
0.0
 40
10.0
 50
0.0
  1
200
  0
TEXT
  8
TEXT
 10
88.499
 20
59.138
 30
0.0
 40
5.0
 50
0.0
  1
+/-20mm
  0
TEXT
  8
QUOTATURA
 10
-20.007
 20
17.0
 30
0.0
 40
10.0
 50
0.0
  1
44
  0
ENDSEC
  0
EOF
