<svg xmlns="http://www.w3.org/2000/svg" viewBox="0 0 175 95" role="img" aria-label=""><style>.p{fill:#fdfbf6;stroke:#4a3c30;stroke-width:2.43;stroke-linejoin:round;stroke-linecap:round}.g{fill:#a8843c;stroke:none}.a{fill:#f0e3c9;stroke:#a8843c;stroke-width:2.43;stroke-linejoin:round}.w{fill:#ece5d8;stroke:#4a3c30;stroke-width:2.43}.d{stroke:#4a3c30;stroke-width:1.7;fill:none}.t{fill:#8d7d6a;font:600 12px Jost,Verdana,sans-serif;letter-spacing:.04em}</style><path class="w" d="M93 63 H171 L166 94 H93 Z"/><clipPath id="hcl"><path d="M93 63 H171 L166 94 H93 Z"/></clipPath><g clip-path="url(#hcl)" stroke="#8d7d6a" stroke-width="1.4"><line x1="0" y1="-2" x2="-99" y2="97"/><line x1="8" y1="-2" x2="-91" y2="97"/><line x1="16" y1="-2" x2="-83" y2="97"/><line x1="24" y1="-2" x2="-75" y2="97"/><line x1="32" y1="-2" x2="-67" y2="97"/><line x1="40" y1="-2" x2="-59" y2="97"/><line x1="48" y1="-2" x2="-51" y2="97"/><line x1="56" y1="-2" x2="-43" y2="97"/><line x1="64" y1="-2" x2="-35" y2="97"/><line x1="72" y1="-2" x2="-27" y2="97"/><line x1="80" y1="-2" x2="-19" y2="97"/><line x1="88" y1="-2" x2="-11" y2="97"/><line x1="96" y1="-2" x2="-3" y2="97"/><line x1="104" y1="-2" x2="5" y2="97"/><line x1="112" y1="-2" x2="13" y2="97"/><line x1="120" y1="-2" x2="21" y2="97"/><line x1="128" y1="-2" x2="29" y2="97"/><line x1="136" y1="-2" x2="37" y2="97"/><line x1="144" y1="-2" x2="45" y2="97"/><line x1="152" y1="-2" x2="53" y2="97"/><line x1="160" y1="-2" x2="61" y2="97"/><line x1="168" y1="-2" x2="69" y2="97"/><line x1="176" y1="-2" x2="77" y2="97"/><line x1="184" y1="-2" x2="85" y2="97"/><line x1="192" y1="-2" x2="93" y2="97"/><line x1="200" y1="-2" x2="101" y2="97"/><line x1="208" y1="-2" x2="109" y2="97"/><line x1="216" y1="-2" x2="117" y2="97"/><line x1="224" y1="-2" x2="125" y2="97"/><line x1="232" y1="-2" x2="133" y2="97"/><line x1="240" y1="-2" x2="141" y2="97"/><line x1="248" y1="-2" x2="149" y2="97"/><line x1="256" y1="-2" x2="157" y2="97"/><line x1="264" y1="-2" x2="165" y2="97"/><line x1="272" y1="-2" x2="173" y2="97"/></g><path class="p" d="M78 58 H166 V62 H78 Z"/><path class="p" d="M89 19 H128 V16 H133 C150 16 157 28 157 45 V58 H89 Z"/><line class="d" x1="87" y1="19" x2="87" y2="47"/><path class="a" d="M6 4 H90 Q95 4 95 10 V38 Q95 44 89 44 H30 L14 29 L22 25 L8 12 Z"/><rect class="g" x="79" y="45" width="17" height="6"/></svg>
