<svg xmlns="http://www.w3.org/2000/svg" viewBox="0 0 748 316" role="img" aria-label=""><path d="M25.0 23.0 L382.0 24.0 L388.0 31.0 L388.0 139.0 L392.0 138.0 L392.0 37.0 L396.0 29.0 L401.0 24.0 L409.0 23.0 L494.0 24.0 L496.0 31.0 L499.0 33.0 L499.0 42.0 L505.0 48.0 L510.0 48.0 L518.0 56.0 L538.0 64.0 L541.0 68.0 L546.0 68.0 L554.0 76.0 L574.0 84.0 L577.0 88.0 L590.0 92.0 L598.0 100.0 L618.0 108.0 L621.0 112.0 L626.0 112.0 L634.0 120.0 L654.0 128.0 L657.0 132.0 L662.0 132.0 L665.0 136.0 L670.0 136.0 L675.0 141.0 L676.0 150.0 L675.0 197.0 L677.0 200.0 L710.0 200.0 L712.0 203.0 L715.0 203.0 L717.0 200.0 L725.0 200.0 L728.0 197.0 L728.0 189.0 L732.0 184.0 L735.0 184.0 L735.0 194.0 L727.0 205.0 L727.0 210.0 L723.0 214.0 L723.0 222.0 L719.0 225.0 L719.0 230.0 L711.0 241.0 L711.0 247.0 L707.0 249.0 L707.0 258.0 L703.0 261.0 L703.0 266.0 L700.0 268.0 L699.0 274.0 L691.0 286.0 L691.0 290.0 L687.0 293.0 L687.0 302.0 L684.0 304.0 L683.0 310.0 L679.0 314.0 L675.0 314.0 L676.0 308.0 L673.0 307.0 L667.0 314.0 L660.0 313.0 L688.0 285.0 L688.0 281.0 L696.0 269.0 L696.0 260.0 L693.0 259.0 L639.0 314.0 L632.0 313.0 L708.0 238.0 L712.0 233.0 L712.0 225.0 L716.0 222.0 L716.0 217.0 L720.0 213.0 L719.0 208.0 L716.0 208.0 L611.0 314.0 L604.0 313.0 L707.0 211.0 L706.0 207.0 L689.0 207.0 L583.0 314.0 L576.0 313.0 L664.0 226.0 L664.0 220.0 L670.0 220.0 L672.0 213.0 L679.0 211.0 L678.0 207.0 L657.0 207.0 L627.0 237.0 L627.0 243.0 L555.0 314.0 L548.0 313.0 L608.0 254.0 L608.0 248.0 L647.0 211.0 L646.0 207.0 L629.0 207.0 L523.0 314.0 L516.0 313.0 L619.0 211.0 L618.0 207.0 L601.0 207.0 L495.0 314.0 L488.0 313.0 L591.0 211.0 L590.0 207.0 L573.0 207.0 L467.0 314.0 L460.0 313.0 L563.0 211.0 L562.0 207.0 L545.0 207.0 L439.0 314.0 L432.0 313.0 L535.0 211.0 L535.0 208.0 L517.0 207.0 L416.0 308.0 L416.0 314.0 L411.0 314.0 L412.0 210.0 L410.0 207.0 L357.0 207.0 L352.0 202.0 L351.0 152.0 L347.0 153.0 L347.0 202.0 L338.0 211.0 L73.0 211.0 L68.0 206.0 L68.0 198.0 L60.0 186.0 L60.0 178.0 L52.0 166.0 L52.0 158.0 L44.0 146.0 L44.0 138.0 L40.0 134.0 L40.0 130.0 L36.0 126.0 L36.0 118.0 L32.0 114.0 L32.0 104.0 L38.0 104.0 L49.0 96.0 L57.0 96.0 L61.0 92.0 L66.0 91.0 L68.0 85.0 L56.0 74.0 L55.0 68.0 L16.0 30.0 L17.0 24.0 L24.0 24.0 Z M25.0 28.0 L377.0 28.0 L383.0 34.0 L383.0 137.0 L382.0 139.0 L357.0 139.0 L354.0 143.0 L345.0 143.0 L343.0 145.0 L343.0 197.0 L338.0 203.0 L73.0 203.0 L72.0 193.0 L69.0 191.0 L68.0 185.0 L64.0 181.0 L64.0 173.0 L60.0 169.0 L60.0 161.0 L57.0 159.0 L56.0 153.0 L52.0 149.0 L52.0 141.0 L44.0 129.0 L44.0 121.0 L40.0 117.0 L40.0 109.0 L46.0 108.0 L49.0 104.0 L54.0 104.0 L66.0 96.0 L70.0 96.0 L76.0 90.0 L76.0 85.0 L61.0 71.0 L60.0 65.0 L25.0 29.0 Z M406.0 28.0 L489.0 28.0 L491.0 30.0 L492.0 48.0 L498.0 48.0 L505.0 56.0 L510.0 56.0 L513.0 60.0 L533.0 68.0 L541.0 76.0 L546.0 76.0 L549.0 80.0 L569.0 88.0 L577.0 96.0 L590.0 100.0 L593.0 104.0 L613.0 112.0 L621.0 120.0 L626.0 120.0 L629.0 124.0 L649.0 132.0 L657.0 140.0 L662.0 140.0 L671.0 150.0 L670.0 199.0 L657.0 199.0 L655.0 202.0 L652.0 202.0 L650.0 199.0 L629.0 199.0 L627.0 202.0 L624.0 202.0 L622.0 199.0 L601.0 199.0 L599.0 202.0 L596.0 202.0 L594.0 199.0 L573.0 199.0 L571.0 202.0 L568.0 202.0 L566.0 199.0 L545.0 199.0 L543.0 202.0 L540.0 202.0 L538.0 199.0 L517.0 199.0 L515.0 202.0 L512.0 202.0 L510.0 199.0 L485.0 199.0 L483.0 202.0 L480.0 202.0 L478.0 199.0 L457.0 199.0 L455.0 202.0 L452.0 202.0 L450.0 199.0 L429.0 199.0 L427.0 202.0 L424.0 202.0 L422.0 199.0 L357.0 199.0 L357.0 164.0 L426.0 164.0 L428.0 162.0 L428.0 145.0 L426.0 143.0 L400.0 142.0 L400.0 34.0 L405.0 29.0 Z M429.0 208.0 L446.0 208.0 L446.0 211.0 L419.0 238.0 L416.0 238.0 L416.0 222.0 L428.0 209.0 Z M457.0 208.0 L474.0 208.0 L474.0 211.0 L423.0 260.0 L423.0 266.0 L417.0 266.0 L416.0 254.0 L420.0 250.0 L420.0 245.0 L456.0 209.0 Z M485.0 208.0 L506.0 208.0 L506.0 211.0 L419.0 298.0 L416.0 298.0 L417.0 280.0 L456.0 243.0 L456.0 237.0 L484.0 209.0 Z" fill="#2b211a" fill-rule="evenodd"/></svg>
