  0
SECTION
  2
ENTITIES
  0
LINE
  8
APS_GEOMETRY
 10
0.0
 11
280.0
 20
0.0
 21
0.0
  0
LINE
  8
APS_GEOMETRY
 10
280.0
 11
280.0
 20
0.0
 21
200.0
  0
LINE
  8
APS_GEOMETRY
 10
280.0
 11
0.0
 20
200.0
 21
200.0
  0
LINE
  8
APS_GEOMETRY
 10
0.0
 11
0.0
 20
200.0
 21
0.0
  0
LINE
  8
COSTRUZIONI
 10
0.0
 11
280.0
 20
60.0
 21
60.0
  0
LINE
  8
COSTRUZIONI
 10
31.1
 11
31.1
 20
60.0
 21
0.0
  0
LINE
  8
COSTRUZIONI
 10
62.2
 11
62.2
 20
60.0
 21
0.0
  0
LINE
  8
COSTRUZIONI
 10
93.3
 11
93.3
 20
60.0
 21
0.0
  0
LINE
  8
COSTRUZIONI
 10
124.4
 11
124.4
 20
60.0
 21
0.0
  0
LINE
  8
COSTRUZIONI
 10
155.5
 11
155.5
 20
60.0
 21
0.0
  0
LINE
  8
COSTRUZIONI
 10
186.6
 11
186.6
 20
60.0
 21
0.0
  0
LINE
  8
COSTRUZIONI
 10
217.7
 11
217.7
 20
60.0
 21
0.0
  0
LINE
  8
COSTRUZIONI
 10
248.8
 11
248.8
 20
60.0
 21
0.0
  0
LINE
  8
COSTRUZIONI
 10
280.0
 11
0.0
 20
188.0
 21
188.0
  0
LINE
  8
COSTRUZIONI
 10
166.0
 11
166.0
 20
120.0
 21
188.0
  0
LINE
  8
COSTRUZIONI
 10
184.0
 11
184.0
 20
120.0
 21
188.0
  0
LINE
  8
COSTRUZIONI
 10
202.0
 11
202.0
 20
120.0
 21
188.0
  0
LINE
  8
COSTRUZIONI
 10
220.0
 11
220.0
 20
120.0
 21
188.0
  0
LINE
  8
COSTRUZIONI
 10
250.0
 11
250.0
 20
120.0
 21
188.0
  0
LINE
  8
COSTRUZIONI
 10
280.0
 11
166.0
 20
168.0
 21
168.0
  0
LINE
  8
COSTRUZIONI
 10
280.0
 11
166.0
 20
156.0
 21
156.0
  0
LINE
  8
COSTRUZIONI
 10
280.0
 11
166.0
 20
144.0
 21
144.0
  0
LINE
  8
COSTRUZIONI
 10
280.0
 11
166.0
 20
132.0
 21
132.0
  0
LINE
  8
COSTRUZIONI
 10
280.0
 11
166.0
 20
120.0
 21
120.0
  0
LINE
  8
APS_GEOMETRY
 10
25.374
 11
37.855
 20
125.114
 21
136.244
  0
LINE
  8
APS_GEOMETRY
 10
37.886
 11
37.078
 20
136.183
 21
137.798
  0
LINE
  8
APS_GEOMETRY
 10
37.078
 11
46.552
 20
137.798
 21
146.114
  0
LINE
  8
APS_GEOMETRY
 10
80.634
 11
80.634
 20
132.714
 21
125.114
  0
LINE
  8
COSTRUZIONI
 10
138.634
 11
133.634
 20
133.114
 21
133.114
  0
LINE
  8
COSTRUZIONI
 10
133.634
 11
113.634
 20
133.114
 21
132.114
  0
LINE
  8
APS_GEOMETRY
 10
36.377
 11
79.062
 20
146.114
 21
146.114
  0
ARC
  8
APS_GEOMETRY
 10
79.062
 20
145.114
 40
1.0
 50
5.722
 51
90.0
  0
ARC
  8
APS_GEOMETRY
 10
82.047
 20
145.413
 40
2.0
 50
185.722
 51
263.3
  0
ARC
  8
APS_GEOMETRY
 10
79.248
 20
4.95
 40
138.5
 50
75.624
 51
88.938
  0
LINE
  8
APS_GEOMETRY
 10
113.634
 11
133.634
 20
139.114
 21
138.114
  0
LINE
  8
APS_GEOMETRY
 10
133.634
 11
138.634
 20
138.114
 21
138.114
  0
LINE
  8
APS_GEOMETRY
 10
138.634
 11
138.634
 20
138.114
 21
133.114
  0
LINE
  8
APS_GEOMETRY
 10
138.634
 11
133.634
 20
133.114
 21
133.114
  0
LINE
  8
APS_GEOMETRY
 10
133.634
 11
113.634
 20
133.114
 21
132.114
  0
ARC
  8
APS_GEOMETRY
 10
79.248
 20
266.277
 40
138.5
 50
271.062
 51
284.376
  0
ARC
  8
APS_GEOMETRY
 10
82.047
 20
125.814
 40
2.0
 50
96.7
 51
174.278
  0
ARC
  8
APS_GEOMETRY
 10
79.062
 20
126.114
 40
1.0
 50
270.0
 51
354.278
  0
LINE
  8
APS_GEOMETRY
 10
79.062
 11
20.546
 20
125.114
 21
125.114
  0
LINE
  8
QUOTATURA
 10
50.804
 11
58.302
 20
125.114
 21
125.114
  0
LINE
  8
QUOTATURA
 10
57.302
 11
57.302
 20
125.114
 21
134.114
  0
LINE
  8
QUOTATURA
 10
57.302
 11
57.302
 20
137.12
 21
146.114
  0
LINE
  8
QUOTATURA
 10
57.635
 11
57.302
 20
127.114
 21
125.114
  0
LINE
  8
QUOTATURA
 10
57.302
 11
56.968
 20
125.114
 21
127.114
  0
LINE
  8
QUOTATURA
 10
56.968
 11
57.635
 20
127.114
 21
127.114
  0
LINE
  8
QUOTATURA
 10
56.968
 11
57.302
 20
144.114
 21
146.114
  0
LINE
  8
QUOTATURA
 10
57.302
 11
57.635
 20
146.114
 21
144.114
  0
LINE
  8
QUOTATURA
 10
57.635
 11
56.968
 20
144.114
 21
144.114
  0
LINE
  8
QUOTATURA
 10
139.634
 11
144.148
 20
138.114
 21
138.114
  0
LINE
  8
QUOTATURA
 10
139.634
 11
144.148
 20
133.114
 21
133.114
  0
LINE
  8
QUOTATURA
 10
143.148
 11
143.148
 20
133.114
 21
124.96
  0
LINE
  8
QUOTATURA
 10
143.148
 11
149.834
 20
124.96
 21
124.96
  0
LINE
  8
QUOTATURA
 10
142.815
 11
143.148
 20
131.114
 21
133.114
  0
LINE
  8
QUOTATURA
 10
143.148
 11
143.482
 20
133.114
 21
131.114
  0
LINE
  8
QUOTATURA
 10
143.482
 11
142.815
 20
131.114
 21
131.114
  0
LINE
  8
QUOTATURA
 10
143.148
 11
143.148
 20
138.114
 21
142.114
  0
LINE
  8
QUOTATURA
 10
143.482
 11
143.148
 20
140.114
 21
138.114
  0
LINE
  8
QUOTATURA
 10
143.148
 11
142.815
 20
138.114
 21
140.114
  0
LINE
  8
QUOTATURA
 10
142.815
 11
143.482
 20
140.114
 21
140.114
  0
LINE
  8
QUOTATURA
 10
80.634
 11
80.634
 20
124.114
 21
115.607
  0
LINE
  8
QUOTATURA
 10
138.634
 11
138.634
 20
132.114
 21
115.607
  0
LINE
  8
QUOTATURA
 10
80.634
 11
107.484
 20
116.607
 21
116.607
  0
LINE
  8
QUOTATURA
 10
111.783
 11
138.634
 20
116.607
 21
116.607
  0
LINE
  8
QUOTATURA
 10
82.634
 11
80.634
 20
116.273
 21
116.607
  0
LINE
  8
QUOTATURA
 10
80.634
 11
82.634
 20
116.607
 21
116.94
  0
LINE
  8
QUOTATURA
 10
82.634
 11
82.634
 20
116.94
 21
116.273
  0
LINE
  8
QUOTATURA
 10
136.634
 11
138.634
 20
116.94
 21
116.607
  0
LINE
  8
QUOTATURA
 10
138.634
 11
136.634
 20
116.607
 21
116.273
  0
LINE
  8
QUOTATURA
 10
136.634
 11
136.634
 20
116.273
 21
116.94
  0
TEXT
  8
TEXT
 10
264.35
 20
60.8
 30
0.0
 40
5.0
 50
0.0
  1
1
  0
TEXT
  8
TEXT
 10
202.15
 20
60.8
 30
0.0
 40
5.0
 50
0.0
  1
3
  0
TEXT
  8
TEXT
 10
171.05
 20
60.0
 30
0.0
 40
5.0
 50
0.0
  1
4
  0
TEXT
  8
TEXT
 10
139.95
 20
60.8
 30
0.0
 40
5.0
 50
0.0
  1
5
  0
TEXT
  8
TEXT
 10
108.85
 20
60.8
 30
0.0
 40
5.0
 50
0.0
  1
6
  0
TEXT
  8
TEXT
 10
77.75
 20
60.8
 30
0.0
 40
5.0
 50
0.0
  1
7
  0
TEXT
  8
TEXT
 10
46.65
 20
60.8
 30
0.0
 40
5.0
 50
0.0
  1
8
  0
TEXT
  8
TEXT
 10
15.55
 20
60.8
 30
0.0
 40
5.0
 50
0.0
  1
9
  0
TEXT
  8
TEXT
 10
165.429
 20
112.996
 30
0.0
 40
5.0
 50
0.0
  1
ANNOTAZIONI:
  0
TEXT
  8
TEXT
 10
165.429
 20
105.496
 30
0.0
 40
5.0
 50
0.0
  1
Spessore centrale 11,1 mm
  0
TEXT
  8
TEXT
 10
165.429
 20
97.996
 30
0.0
 40
5.0
 50
0.0
  1
Spessore sottofresa 26,7 mm
  0
TEXT
  8
TEXT
 10
165.429
 20
90.496
 30
0.0
 40
5.0
 50
0.0
  1

  0
TEXT
  8
TEXT
 10
165.429
 20
82.996
 30
0.0
 40
5.0
 50
0.0
  1
PIATTABANDA N.1
  0
TEXT
  8
TEXT
 10
165.429
 20
75.496
 30
0.0
 40
5.0
 50
0.0
  1
Mettere spessore di 6 decimi
  0
TEXT
  8
TEXT
 10
165.429
 20
67.996
 30
0.0
 40
5.0
 50
0.0
  1
dietro il supporto di legno
  0
TEXT
  8
TEXT
 10
0.0
 20
188.5
 30
0.0
 40
5.0
 50
0.0
  1
 BUGNA SP. 21  MM      ART.  BUGNA-STD-P1-V58
  0
TEXT
  8
TEXT
 10
233.25
 20
60.8
 30
0.0
 40
5.0
 50
0.0
  1
2
  0
TEXT
  8
TEXT
 10
222.123
 20
182.119
 30
0.0
 40
4.0
 50
0.0
  1
MISURE
  0
TEXT
  8
TEXT
 10
222.123
 20
176.119
 30
0.0
 40
4.0
 50
0.0
  1
MAGG.
  0
TEXT
  8
TEXT
 10
280.719
 20
69.107
 30
0.0
 40
2.0
 50
-90.0
  1
Toscocornici porte - 0577-685426 - info@toscocornici.it
  0
TEXT
  8
TEXT
 10
277.719
 20
69.107
 30
0.0
 40
2.0
 50
-90.0
  1

  0
TEXT
  8
TEXT
 10
274.719
 20
69.107
 30
0.0
 40
2.0
 50
-90.0
  1

  0
TEXT
  8
TEXT
 10
218.395
 20
9.914
 30
0.0
 40
3.0
 50
0.0
  1
A.
  0
TEXT
  8
TEXT
 10
218.395
 20
5.414
 30
0.0
 40
3.0
 50
0.0
  1
R.
  0
TEXT
  8
TEXT
 10
249.495
 20
9.914
 30
0.0
 40
3.0
 50
0.0
  1
A.
  0
TEXT
  8
TEXT
 10
249.495
 20
5.414
 30
0.0
 40
3.0
 50
0.0
  1
R.
  0
TEXT
  8
TEXT
 10
187.295
 20
9.914
 30
0.0
 40
3.0
 50
0.0
  1
A.
  0
TEXT
  8
TEXT
 10
187.295
 20
5.414
 30
0.0
 40
3.0
 50
0.0
  1
R.
  0
TEXT
  8
TEXT
 10
156.195
 20
9.914
 30
0.0
 40
3.0
 50
0.0
  1
A.
  0
TEXT
  8
TEXT
 10
156.195
 20
5.414
 30
0.0
 40
3.0
 50
0.0
  1
R.
  0
TEXT
  8
TEXT
 10
125.095
 20
9.914
 30
0.0
 40
3.0
 50
0.0
  1
A.
  0
TEXT
  8
TEXT
 10
125.095
 20
5.414
 30
0.0
 40
3.0
 50
0.0
  1
R.
  0
TEXT
  8
TEXT
 10
93.995
 20
9.914
 30
0.0
 40
3.0
 50
0.0
  1
A.
  0
TEXT
  8
TEXT
 10
93.995
 20
5.414
 30
0.0
 40
3.0
 50
0.0
  1
R.
  0
TEXT
  8
TEXT
 10
62.895
 20
9.914
 30
0.0
 40
3.0
 50
0.0
  1
A.
  0
TEXT
  8
TEXT
 10
62.895
 20
5.414
 30
0.0
 40
3.0
 50
0.0
  1
R.
  0
TEXT
  8
TEXT
 10
31.795
 20
9.914
 30
0.0
 40
3.0
 50
0.0
  1
A.
  0
TEXT
  8
TEXT
 10
31.795
 20
5.414
 30
0.0
 40
3.0
 50
0.0
  1
R.
  0
TEXT
  8
TEXT
 10
0.695
 20
9.914
 30
0.0
 40
3.0
 50
0.0
  1
A.
  0
TEXT
  8
TEXT
 10
0.695
 20
5.414
 30
0.0
 40
3.0
 50
0.0
  1
R.
  0
TEXT
  8
QUOTATURA
 10
56.092
 20
134.614
 30
0.0
 40
2.0
 50
0.0
  1
21
  0
TEXT
  8
QUOTATURA
 10
150.327
 20
123.96
 30
0.0
 40
2.0
 50
0.0
  1
5
  0
TEXT
  8
QUOTATURA
 10
107.978
 20
115.607
 30
0.0
 40
2.0
 50
0.0
  1
58
  0
ENDSEC
  0
EOF
