  0
SECTION
  2
ENTITIES
  0
LINE
  8
APS_GEOMETRY
 10
0.0
 11
280.0
 20
0.0
 21
0.0
  0
LINE
  8
APS_GEOMETRY
 10
280.0
 11
280.0
 20
0.0
 21
200.0
  0
LINE
  8
APS_GEOMETRY
 10
280.0
 11
0.0
 20
200.0
 21
200.0
  0
LINE
  8
APS_GEOMETRY
 10
0.0
 11
0.0
 20
200.0
 21
0.0
  0
LINE
  8
COSTRUZIONI
 10
0.0
 11
280.0
 20
60.0
 21
60.0
  0
LINE
  8
COSTRUZIONI
 10
31.1
 11
31.1
 20
60.0
 21
0.0
  0
LINE
  8
COSTRUZIONI
 10
62.2
 11
62.2
 20
60.0
 21
0.0
  0
LINE
  8
COSTRUZIONI
 10
93.3
 11
93.3
 20
60.0
 21
0.0
  0
LINE
  8
COSTRUZIONI
 10
124.4
 11
124.4
 20
60.0
 21
0.0
  0
LINE
  8
COSTRUZIONI
 10
155.5
 11
155.5
 20
60.0
 21
0.0
  0
LINE
  8
COSTRUZIONI
 10
186.6
 11
186.6
 20
60.0
 21
0.0
  0
LINE
  8
COSTRUZIONI
 10
217.7
 11
217.7
 20
60.0
 21
0.0
  0
LINE
  8
COSTRUZIONI
 10
248.8
 11
248.8
 20
60.0
 21
0.0
  0
LINE
  8
COSTRUZIONI
 10
280.0
 11
0.0
 20
188.0
 21
188.0
  0
LINE
  8
COSTRUZIONI
 10
166.0
 11
166.0
 20
120.0
 21
188.0
  0
LINE
  8
COSTRUZIONI
 10
184.0
 11
184.0
 20
120.0
 21
188.0
  0
LINE
  8
COSTRUZIONI
 10
202.0
 11
202.0
 20
120.0
 21
188.0
  0
LINE
  8
COSTRUZIONI
 10
220.0
 11
220.0
 20
120.0
 21
188.0
  0
LINE
  8
COSTRUZIONI
 10
250.0
 11
250.0
 20
120.0
 21
188.0
  0
LINE
  8
COSTRUZIONI
 10
280.0
 11
166.0
 20
168.0
 21
168.0
  0
LINE
  8
COSTRUZIONI
 10
280.0
 11
166.0
 20
156.0
 21
156.0
  0
LINE
  8
COSTRUZIONI
 10
280.0
 11
166.0
 20
144.0
 21
144.0
  0
LINE
  8
COSTRUZIONI
 10
280.0
 11
166.0
 20
132.0
 21
132.0
  0
LINE
  8
COSTRUZIONI
 10
280.0
 11
166.0
 20
120.0
 21
120.0
  0
LINE
  8
APS_GEOMETRY
 10
18.708
 11
84.209
 20
133.606
 21
133.606
  0
LINE
  8
APS_GEOMETRY
 10
84.209
 11
84.209
 20
133.606
 21
131.106
  0
ARC
  8
APS_GEOMETRY
 10
84.209
 20
123.106
 40
8.0
 50
360.0
 51
90.0
  0
LINE
  8
APS_GEOMETRY
 10
92.209
 11
134.709
 20
123.106
 21
115.506
  0
LINE
  8
APS_GEOMETRY
 10
134.709
 11
150.709
 20
115.506
 21
115.506
  0
LINE
  8
APS_GEOMETRY
 10
150.709
 11
150.709
 20
115.506
 21
109.706
  0
LINE
  8
APS_GEOMETRY
 10
150.709
 11
134.709
 20
109.706
 21
109.706
  0
LINE
  8
APS_GEOMETRY
 10
134.709
 11
92.209
 20
109.706
 21
102.106
  0
ARC
  8
APS_GEOMETRY
 10
84.209
 20
102.106
 40
8.0
 50
270.0
 51
360.0
  0
LINE
  8
APS_GEOMETRY
 10
84.209
 11
84.209
 20
94.106
 21
91.606
  0
LINE
  8
APS_GEOMETRY
 10
84.209
 11
3.708
 20
91.606
 21
91.606
  0
LINE
  8
QUOTATURA
 10
151.709
 11
155.741
 20
115.506
 21
115.506
  0
LINE
  8
QUOTATURA
 10
151.709
 11
155.741
 20
109.706
 21
109.706
  0
LINE
  8
QUOTATURA
 10
154.741
 11
154.741
 20
115.506
 21
119.559
  0
LINE
  8
QUOTATURA
 10
154.741
 11
154.741
 20
121.078
 21
121.078
  0
LINE
  8
QUOTATURA
 10
155.074
 11
154.741
 20
117.506
 21
115.506
  0
LINE
  8
QUOTATURA
 10
154.741
 11
154.407
 20
115.506
 21
117.506
  0
LINE
  8
QUOTATURA
 10
154.407
 11
155.074
 20
117.506
 21
117.506
  0
LINE
  8
QUOTATURA
 10
154.741
 11
154.741
 20
109.706
 21
105.706
  0
LINE
  8
QUOTATURA
 10
154.407
 11
154.741
 20
107.706
 21
109.706
  0
LINE
  8
QUOTATURA
 10
154.741
 11
155.074
 20
109.706
 21
107.706
  0
LINE
  8
QUOTATURA
 10
155.074
 11
154.407
 20
107.706
 21
107.706
  0
LINE
  8
QUOTATURA
 10
83.209
 11
78.858
 20
133.606
 21
133.606
  0
LINE
  8
QUOTATURA
 10
83.209
 11
78.858
 20
131.106
 21
131.106
  0
LINE
  8
QUOTATURA
 10
79.858
 11
79.858
 20
133.606
 21
140.526
  0
LINE
  8
QUOTATURA
 10
79.858
 11
77.045
 20
140.526
 21
140.526
  0
LINE
  8
QUOTATURA
 10
80.191
 11
79.858
 20
135.606
 21
133.606
  0
LINE
  8
QUOTATURA
 10
79.858
 11
79.525
 20
133.606
 21
135.606
  0
LINE
  8
QUOTATURA
 10
79.525
 11
80.191
 20
135.606
 21
135.606
  0
LINE
  8
QUOTATURA
 10
79.858
 11
79.858
 20
131.106
 21
127.106
  0
LINE
  8
QUOTATURA
 10
79.525
 11
79.858
 20
129.106
 21
131.106
  0
LINE
  8
QUOTATURA
 10
79.858
 11
80.191
 20
131.106
 21
129.106
  0
LINE
  8
QUOTATURA
 10
80.191
 11
79.525
 20
129.106
 21
129.106
  0
LINE
  8
QUOTATURA
 10
84.209
 11
84.209
 20
122.773
 21
123.44
  0
LINE
  8
QUOTATURA
 10
83.875
 11
84.542
 20
123.106
 21
123.106
  0
LINE
  8
QUOTATURA
 10
84.209
 11
84.209
 20
123.106
 21
123.106
  0
LINE
  8
QUOTATURA
 10
86.598
 11
90.053
 20
125.339
 21
128.569
  0
LINE
  8
QUOTATURA
 10
88.364
 11
90.053
 20
127.447
 21
128.569
  0
LINE
  8
QUOTATURA
 10
90.053
 11
88.82
 20
128.569
 21
126.959
  0
LINE
  8
QUOTATURA
 10
88.82
 11
88.364
 20
126.959
 21
127.447
  0
LINE
  8
QUOTATURA
 10
134.709
 11
134.709
 20
116.506
 21
121.132
  0
LINE
  8
QUOTATURA
 10
150.709
 11
144.468
 20
120.132
 21
120.132
  0
LINE
  8
QUOTATURA
 10
140.949
 11
134.709
 20
120.132
 21
120.132
  0
LINE
  8
QUOTATURA
 10
148.709
 11
150.709
 20
120.466
 21
120.132
  0
LINE
  8
QUOTATURA
 10
150.709
 11
148.709
 20
120.132
 21
119.799
  0
LINE
  8
QUOTATURA
 10
148.709
 11
148.709
 20
119.799
 21
120.466
  0
LINE
  8
QUOTATURA
 10
136.709
 11
134.709
 20
119.799
 21
120.132
  0
LINE
  8
QUOTATURA
 10
134.709
 11
136.709
 20
120.132
 21
120.466
  0
LINE
  8
QUOTATURA
 10
136.709
 11
136.709
 20
120.466
 21
119.799
  0
LINE
  8
COSTRUZIONI
 10
92.709
 11
92.709
 20
125.017
 21
121.017
  0
LINE
  8
QUOTATURA
 10
150.709
 11
150.709
 20
116.506
 21
134.769
  0
LINE
  8
QUOTATURA
 10
92.709
 11
92.709
 20
126.017
 21
134.769
  0
LINE
  8
QUOTATURA
 10
150.709
 11
123.858
 20
133.769
 21
133.769
  0
LINE
  8
QUOTATURA
 10
119.559
 11
92.709
 20
133.769
 21
133.769
  0
LINE
  8
QUOTATURA
 10
148.709
 11
150.709
 20
134.102
 21
133.769
  0
LINE
  8
QUOTATURA
 10
150.709
 11
148.709
 20
133.769
 21
133.435
  0
LINE
  8
QUOTATURA
 10
148.709
 11
148.709
 20
133.435
 21
134.102
  0
LINE
  8
QUOTATURA
 10
94.709
 11
92.709
 20
133.435
 21
133.769
  0
LINE
  8
QUOTATURA
 10
92.709
 11
94.709
 20
133.769
 21
134.102
  0
LINE
  8
QUOTATURA
 10
94.709
 11
94.709
 20
134.102
 21
133.435
  0
LINE
  8
APS_GEOMETRY
 10
32.251
 11
21.779
 20
133.606
 21
114.305
  0
LINE
  8
APS_GEOMETRY
 10
21.779
 11
28.143
 20
114.305
 21
117.487
  0
LINE
  8
APS_GEOMETRY
 10
28.143
 11
10.026
 20
117.487
 21
91.606
  0
LINE
  8
QUOTATURA
 10
57.708
 11
45.441
 20
91.606
 21
91.606
  0
LINE
  8
QUOTATURA
 10
57.708
 11
45.441
 20
133.606
 21
133.606
  0
LINE
  8
QUOTATURA
 10
46.441
 11
46.441
 20
91.606
 21
111.106
  0
LINE
  8
QUOTATURA
 10
46.441
 11
46.441
 20
114.112
 21
133.606
  0
LINE
  8
QUOTATURA
 10
46.774
 11
46.441
 20
93.606
 21
91.606
  0
LINE
  8
QUOTATURA
 10
46.441
 11
46.107
 20
91.606
 21
93.606
  0
LINE
  8
QUOTATURA
 10
46.107
 11
46.774
 20
93.606
 21
93.606
  0
LINE
  8
QUOTATURA
 10
46.107
 11
46.441
 20
131.606
 21
133.606
  0
LINE
  8
QUOTATURA
 10
46.441
 11
46.774
 20
133.606
 21
131.606
  0
LINE
  8
QUOTATURA
 10
46.774
 11
46.107
 20
131.606
 21
131.606
  0
TEXT
  8
TEXT
 10
264.35
 20
60.8
 30
0.0
 40
5.0
 50
0.0
  1
1
  0
TEXT
  8
TEXT
 10
202.15
 20
60.8
 30
0.0
 40
5.0
 50
0.0
  1
3
  0
TEXT
  8
TEXT
 10
171.05
 20
60.0
 30
0.0
 40
5.0
 50
0.0
  1
4
  0
TEXT
  8
TEXT
 10
139.95
 20
60.8
 30
0.0
 40
5.0
 50
0.0
  1
5
  0
TEXT
  8
TEXT
 10
108.85
 20
60.8
 30
0.0
 40
5.0
 50
0.0
  1
6
  0
TEXT
  8
TEXT
 10
77.75
 20
60.8
 30
0.0
 40
5.0
 50
0.0
  1
7
  0
TEXT
  8
TEXT
 10
46.65
 20
60.8
 30
0.0
 40
5.0
 50
0.0
  1
8
  0
TEXT
  8
TEXT
 10
15.55
 20
60.8
 30
0.0
 40
5.0
 50
0.0
  1
9
  0
TEXT
  8
TEXT
 10
165.429
 20
112.996
 30
0.0
 40
5.0
 50
0.0
  1
ANNOTAZIONI:
  0
TEXT
  8
TEXT
 10
0.0
 20
188.5
 30
0.0
 40
5.0
 50
0.0
  1
 BUGNA SP. 42  MM      ART.  BUGNA-PIANA-PLUS
  0
TEXT
  8
TEXT
 10
233.25
 20
60.8
 30
0.0
 40
5.0
 50
0.0
  1
2
  0
TEXT
  8
TEXT
 10
222.123
 20
182.119
 30
0.0
 40
4.0
 50
0.0
  1
MISURE
  0
TEXT
  8
TEXT
 10
222.123
 20
176.119
 30
0.0
 40
4.0
 50
0.0
  1
MAGG.
  0
TEXT
  8
TEXT
 10
280.719
 20
69.107
 30
0.0
 40
2.0
 50
-90.0
  1
Toscocornici porte - 0577-685426 - info@toscocornici.it
  0
TEXT
  8
TEXT
 10
277.719
 20
69.107
 30
0.0
 40
2.0
 50
-90.0
  1

  0
TEXT
  8
TEXT
 10
274.719
 20
69.107
 30
0.0
 40
2.0
 50
-90.0
  1

  0
TEXT
  8
TEXT
 10
218.395
 20
9.914
 30
0.0
 40
3.0
 50
0.0
  1
A.
  0
TEXT
  8
TEXT
 10
218.395
 20
5.414
 30
0.0
 40
3.0
 50
0.0
  1
R.
  0
TEXT
  8
TEXT
 10
249.495
 20
9.914
 30
0.0
 40
3.0
 50
0.0
  1
A.
  0
TEXT
  8
TEXT
 10
249.495
 20
5.414
 30
0.0
 40
3.0
 50
0.0
  1
R.
  0
TEXT
  8
TEXT
 10
187.295
 20
9.914
 30
0.0
 40
3.0
 50
0.0
  1
A.
  0
TEXT
  8
TEXT
 10
187.295
 20
5.414
 30
0.0
 40
3.0
 50
0.0
  1
R.
  0
TEXT
  8
TEXT
 10
156.195
 20
9.914
 30
0.0
 40
3.0
 50
0.0
  1
A.
  0
TEXT
  8
TEXT
 10
156.195
 20
5.414
 30
0.0
 40
3.0
 50
0.0
  1
R.
  0
TEXT
  8
TEXT
 10
125.095
 20
9.914
 30
0.0
 40
3.0
 50
0.0
  1
A.
  0
TEXT
  8
TEXT
 10
125.095
 20
5.414
 30
0.0
 40
3.0
 50
0.0
  1
R.
  0
TEXT
  8
TEXT
 10
93.995
 20
9.914
 30
0.0
 40
3.0
 50
0.0
  1
A.
  0
TEXT
  8
TEXT
 10
93.995
 20
5.414
 30
0.0
 40
3.0
 50
0.0
  1
R.
  0
TEXT
  8
TEXT
 10
62.895
 20
9.914
 30
0.0
 40
3.0
 50
0.0
  1
A.
  0
TEXT
  8
TEXT
 10
62.895
 20
5.414
 30
0.0
 40
3.0
 50
0.0
  1
R.
  0
TEXT
  8
TEXT
 10
31.795
 20
9.914
 30
0.0
 40
3.0
 50
0.0
  1
A.
  0
TEXT
  8
TEXT
 10
31.795
 20
5.414
 30
0.0
 40
3.0
 50
0.0
  1
R.
  0
TEXT
  8
TEXT
 10
0.695
 20
9.914
 30
0.0
 40
3.0
 50
0.0
  1
A.
  0
TEXT
  8
TEXT
 10
0.695
 20
5.414
 30
0.0
 40
3.0
 50
0.0
  1
R.
  0
TEXT
  8
QUOTATURA
 10
154.849
 20
120.078
 30
0.0
 40
2.0
 50
0.0
  1
5.8
  0
TEXT
  8
QUOTATURA
 10
72.759
 20
139.526
 30
0.0
 40
2.0
 50
0.0
  1
2.5
  0
TEXT
  8
QUOTATURA
 10
83.328
 20
122.838
 30
0.0
 40
2.0
 50
0.0
  1
R8
  0
TEXT
  8
QUOTATURA
 10
141.449
 20
119.132
 30
0.0
 40
2.0
 50
0.0
  1
16
  0
TEXT
  8
QUOTATURA
 10
120.052
 20
132.769
 30
0.0
 40
2.0
 50
0.0
  1
58
  0
TEXT
  8
QUOTATURA
 10
44.711
 20
111.606
 30
0.0
 40
2.0
 50
0.0
  1
42
  0
ENDSEC
  0
EOF
