  0
SECTION
  2
ENTITIES
  0
LINE
  8
APS_GEOMETRY
 10
0.0
 11
280.0
 20
0.0
 21
0.0
  0
LINE
  8
APS_GEOMETRY
 10
280.0
 11
280.0
 20
0.0
 21
200.0
  0
LINE
  8
APS_GEOMETRY
 10
280.0
 11
0.0
 20
200.0
 21
200.0
  0
LINE
  8
APS_GEOMETRY
 10
0.0
 11
0.0
 20
200.0
 21
0.0
  0
LINE
  8
COSTRUZIONI
 10
0.0
 11
280.0
 20
60.0
 21
60.0
  0
LINE
  8
COSTRUZIONI
 10
31.1
 11
31.1
 20
60.0
 21
0.0
  0
LINE
  8
COSTRUZIONI
 10
62.2
 11
62.2
 20
60.0
 21
0.0
  0
LINE
  8
COSTRUZIONI
 10
93.3
 11
93.3
 20
60.0
 21
0.0
  0
LINE
  8
COSTRUZIONI
 10
124.4
 11
124.4
 20
60.0
 21
0.0
  0
LINE
  8
COSTRUZIONI
 10
155.5
 11
155.5
 20
60.0
 21
0.0
  0
LINE
  8
COSTRUZIONI
 10
186.6
 11
186.6
 20
60.0
 21
0.0
  0
LINE
  8
COSTRUZIONI
 10
217.7
 11
217.7
 20
60.0
 21
0.0
  0
LINE
  8
COSTRUZIONI
 10
248.8
 11
248.8
 20
60.0
 21
0.0
  0
LINE
  8
COSTRUZIONI
 10
280.0
 11
0.0
 20
188.0
 21
188.0
  0
LINE
  8
COSTRUZIONI
 10
166.0
 11
166.0
 20
120.0
 21
188.0
  0
LINE
  8
COSTRUZIONI
 10
184.0
 11
184.0
 20
120.0
 21
188.0
  0
LINE
  8
COSTRUZIONI
 10
202.0
 11
202.0
 20
120.0
 21
188.0
  0
LINE
  8
COSTRUZIONI
 10
220.0
 11
220.0
 20
120.0
 21
188.0
  0
LINE
  8
COSTRUZIONI
 10
250.0
 11
250.0
 20
120.0
 21
188.0
  0
LINE
  8
COSTRUZIONI
 10
280.0
 11
166.0
 20
168.0
 21
168.0
  0
LINE
  8
COSTRUZIONI
 10
280.0
 11
166.0
 20
156.0
 21
156.0
  0
LINE
  8
COSTRUZIONI
 10
280.0
 11
166.0
 20
144.0
 21
144.0
  0
LINE
  8
COSTRUZIONI
 10
280.0
 11
166.0
 20
132.0
 21
132.0
  0
LINE
  8
COSTRUZIONI
 10
280.0
 11
166.0
 20
120.0
 21
120.0
  0
LINE
  8
APS_GEOMETRY
 10
14.136
 11
36.48
 20
95.527
 21
117.831
  0
LINE
  8
APS_GEOMETRY
 10
36.48
 11
34.224
 20
117.831
 21
121.317
  0
LINE
  8
APS_GEOMETRY
 10
34.224
 11
56.143
 20
121.317
 21
139.527
  0
LINE
  8
QUOTATURA
 10
126.334
 11
126.334
 20
93.727
 21
82.365
  0
LINE
  8
QUOTATURA
 10
143.334
 11
143.334
 20
110.527
 21
82.365
  0
LINE
  8
QUOTATURA
 10
126.334
 11
133.041
 20
83.365
 21
83.365
  0
LINE
  8
QUOTATURA
 10
136.627
 11
143.334
 20
83.365
 21
83.365
  0
LINE
  8
QUOTATURA
 10
128.334
 11
126.334
 20
83.032
 21
83.365
  0
LINE
  8
QUOTATURA
 10
126.334
 11
128.334
 20
83.365
 21
83.698
  0
LINE
  8
QUOTATURA
 10
128.334
 11
128.334
 20
83.698
 21
83.032
  0
LINE
  8
QUOTATURA
 10
141.334
 11
143.334
 20
83.698
 21
83.365
  0
LINE
  8
QUOTATURA
 10
143.334
 11
141.334
 20
83.365
 21
83.032
  0
LINE
  8
QUOTATURA
 10
141.334
 11
141.334
 20
83.032
 21
83.698
  0
LINE
  8
APS_GEOMETRY
 10
38.334
 11
125.134
 20
139.277
 21
139.277
  0
LINE
  8
APS_GEOMETRY
 10
125.134
 11
126.334
 20
139.277
 21
138.077
  0
LINE
  8
APS_GEOMETRY
 10
126.334
 11
126.334
 20
138.077
 21
124.127
  0
LINE
  8
APS_GEOMETRY
 10
126.334
 11
143.334
 20
124.127
 21
124.127
  0
LINE
  8
APS_GEOMETRY
 10
143.334
 11
143.334
 20
124.127
 21
110.927
  0
LINE
  8
APS_GEOMETRY
 10
143.334
 11
126.334
 20
110.927
 21
110.927
  0
LINE
  8
APS_GEOMETRY
 10
126.334
 11
126.334
 20
110.927
 21
96.977
  0
LINE
  8
APS_GEOMETRY
 10
126.334
 11
125.134
 20
96.977
 21
95.777
  0
LINE
  8
APS_GEOMETRY
 10
125.134
 11
3.334
 20
95.777
 21
95.777
  0
LINE
  8
QUOTATURA
 10
65.234
 11
82.632
 20
95.777
 21
95.777
  0
LINE
  8
QUOTATURA
 10
81.632
 11
81.632
 20
95.777
 21
116.011
  0
LINE
  8
QUOTATURA
 10
81.632
 11
81.632
 20
119.033
 21
139.277
  0
LINE
  8
QUOTATURA
 10
81.966
 11
81.632
 20
97.777
 21
95.777
  0
LINE
  8
QUOTATURA
 10
81.632
 11
81.299
 20
95.777
 21
97.777
  0
LINE
  8
QUOTATURA
 10
81.299
 11
81.966
 20
97.777
 21
97.777
  0
LINE
  8
QUOTATURA
 10
81.299
 11
81.632
 20
137.277
 21
139.277
  0
LINE
  8
QUOTATURA
 10
81.632
 11
81.966
 20
139.277
 21
137.277
  0
LINE
  8
QUOTATURA
 10
81.966
 11
81.299
 20
137.277
 21
137.277
  0
LINE
  8
QUOTATURA
 10
144.334
 11
151.581
 20
124.127
 21
124.127
  0
LINE
  8
QUOTATURA
 10
144.334
 11
151.581
 20
110.927
 21
110.927
  0
LINE
  8
QUOTATURA
 10
150.581
 11
150.581
 20
124.127
 21
117.592
  0
LINE
  8
QUOTATURA
 10
150.581
 11
150.581
 20
114.586
 21
110.927
  0
LINE
  8
QUOTATURA
 10
150.248
 11
150.581
 20
122.127
 21
124.127
  0
LINE
  8
QUOTATURA
 10
150.581
 11
150.914
 20
124.127
 21
122.127
  0
LINE
  8
QUOTATURA
 10
150.914
 11
150.248
 20
122.127
 21
122.127
  0
LINE
  8
QUOTATURA
 10
150.914
 11
150.581
 20
112.927
 21
110.927
  0
LINE
  8
QUOTATURA
 10
150.581
 11
150.248
 20
110.927
 21
112.927
  0
LINE
  8
QUOTATURA
 10
150.248
 11
150.914
 20
112.927
 21
112.927
  0
LINE
  8
QUOTATURA
 10
125.334
 11
115.572
 20
124.127
 21
124.127
  0
LINE
  8
QUOTATURA
 10
125.334
 11
115.572
 20
139.277
 21
139.277
  0
LINE
  8
QUOTATURA
 10
116.572
 11
116.572
 20
124.127
 21
130.186
  0
LINE
  8
QUOTATURA
 10
116.572
 11
116.572
 20
133.203
 21
139.277
  0
LINE
  8
QUOTATURA
 10
116.905
 11
116.572
 20
126.127
 21
124.127
  0
LINE
  8
QUOTATURA
 10
116.572
 11
116.238
 20
124.127
 21
126.127
  0
LINE
  8
QUOTATURA
 10
116.238
 11
116.905
 20
126.127
 21
126.127
  0
LINE
  8
QUOTATURA
 10
116.238
 11
116.572
 20
137.277
 21
139.277
  0
LINE
  8
QUOTATURA
 10
116.572
 11
116.905
 20
139.277
 21
137.277
  0
LINE
  8
QUOTATURA
 10
116.905
 11
116.238
 20
137.277
 21
137.277
  0
LINE
  8
QUOTATURA
 10
125.334
 11
116.624
 20
110.927
 21
110.927
  0
LINE
  8
QUOTATURA
 10
125.334
 11
116.624
 20
95.777
 21
95.777
  0
LINE
  8
QUOTATURA
 10
117.624
 11
117.624
 20
110.927
 21
104.853
  0
LINE
  8
QUOTATURA
 10
117.624
 11
117.624
 20
101.836
 21
95.777
  0
LINE
  8
QUOTATURA
 10
117.29
 11
117.624
 20
108.927
 21
110.927
  0
LINE
  8
QUOTATURA
 10
117.624
 11
117.957
 20
110.927
 21
108.927
  0
LINE
  8
QUOTATURA
 10
117.957
 11
117.29
 20
108.927
 21
108.927
  0
LINE
  8
QUOTATURA
 10
117.957
 11
117.624
 20
97.777
 21
95.777
  0
LINE
  8
QUOTATURA
 10
117.624
 11
117.29
 20
95.777
 21
97.777
  0
LINE
  8
QUOTATURA
 10
117.29
 11
117.957
 20
97.777
 21
97.777
  0
TEXT
  8
TEXT
 10
264.35
 20
60.8
 30
0.0
 40
5.0
 50
0.0
  1
1
  0
TEXT
  8
TEXT
 10
202.15
 20
60.8
 30
0.0
 40
5.0
 50
0.0
  1
3
  0
TEXT
  8
TEXT
 10
171.05
 20
60.0
 30
0.0
 40
5.0
 50
0.0
  1
4
  0
TEXT
  8
TEXT
 10
139.95
 20
60.8
 30
0.0
 40
5.0
 50
0.0
  1
5
  0
TEXT
  8
TEXT
 10
108.85
 20
60.8
 30
0.0
 40
5.0
 50
0.0
  1
6
  0
TEXT
  8
TEXT
 10
77.75
 20
60.8
 30
0.0
 40
5.0
 50
0.0
  1
7
  0
TEXT
  8
TEXT
 10
46.65
 20
60.8
 30
0.0
 40
5.0
 50
0.0
  1
8
  0
TEXT
  8
TEXT
 10
15.55
 20
60.8
 30
0.0
 40
5.0
 50
0.0
  1
9
  0
TEXT
  8
TEXT
 10
160.404
 20
112.996
 30
0.0
 40
5.0
 50
0.0
  1
ANNOTAZIONI: 
  0
TEXT
  8
TEXT
 10
160.404
 20
105.496
 30
0.0
 40
5.0
 50
0.0
  1
mm 35 +riduz. 5 mm N. 24
  0
TEXT
  8
TEXT
 10
160.404
 20
97.996
 30
0.0
 40
5.0
 50
0.0
  1
centrale 14.5
  0
TEXT
  8
TEXT
 10
160.404
 20
90.496
 30
0.0
 40
5.0
 50
0.0
  1
R.= 72.4  A.= 38.2
  0
TEXT
  8
TEXT
 10
160.404
 20
82.996
 30
0.0
 40
5.0
 50
0.0
  1

  0
TEXT
  8
TEXT
 10
0.0
 20
188.5
 30
0.0
 40
5.0
 50
0.0
  1
 BUGNA SP. 43.5  MM      ART.  BUGNA-COMPLANARE-43.5
  0
TEXT
  8
TEXT
 10
233.25
 20
60.8
 30
0.0
 40
5.0
 50
0.0
  1
2
  0
TEXT
  8
TEXT
 10
222.123
 20
182.119
 30
0.0
 40
4.0
 50
0.0
  1
MISURE
  0
TEXT
  8
TEXT
 10
222.123
 20
176.119
 30
0.0
 40
4.0
 50
0.0
  1
MAGG.
  0
TEXT
  8
TEXT
 10
280.719
 20
69.107
 30
0.0
 40
2.0
 50
-90.0
  1
Toscocornici porte - 0577-685426 - info@toscocornici.it
  0
TEXT
  8
TEXT
 10
277.719
 20
69.107
 30
0.0
 40
2.0
 50
-90.0
  1

  0
TEXT
  8
TEXT
 10
274.719
 20
69.107
 30
0.0
 40
2.0
 50
-90.0
  1

  0
TEXT
  8
TEXT
 10
218.395
 20
9.914
 30
0.0
 40
3.0
 50
0.0
  1
A.
  0
TEXT
  8
TEXT
 10
218.395
 20
5.414
 30
0.0
 40
3.0
 50
0.0
  1
R.
  0
TEXT
  8
TEXT
 10
249.495
 20
9.914
 30
0.0
 40
3.0
 50
0.0
  1
A.
  0
TEXT
  8
TEXT
 10
249.495
 20
5.414
 30
0.0
 40
3.0
 50
0.0
  1
R.
  0
TEXT
  8
TEXT
 10
187.295
 20
9.914
 30
0.0
 40
3.0
 50
0.0
  1
A.
  0
TEXT
  8
TEXT
 10
187.295
 20
5.414
 30
0.0
 40
3.0
 50
0.0
  1
R.
  0
TEXT
  8
TEXT
 10
156.195
 20
9.914
 30
0.0
 40
3.0
 50
0.0
  1
A.
  0
TEXT
  8
TEXT
 10
156.195
 20
5.414
 30
0.0
 40
3.0
 50
0.0
  1
R.
  0
TEXT
  8
TEXT
 10
125.095
 20
9.914
 30
0.0
 40
3.0
 50
0.0
  1
A.
  0
TEXT
  8
TEXT
 10
125.095
 20
5.414
 30
0.0
 40
3.0
 50
0.0
  1
R.
  0
TEXT
  8
TEXT
 10
93.995
 20
9.914
 30
0.0
 40
3.0
 50
0.0
  1
A.
  0
TEXT
  8
TEXT
 10
93.995
 20
5.414
 30
0.0
 40
3.0
 50
0.0
  1
R.
  0
TEXT
  8
TEXT
 10
62.895
 20
9.914
 30
0.0
 40
3.0
 50
0.0
  1
A.
  0
TEXT
  8
TEXT
 10
62.895
 20
5.414
 30
0.0
 40
3.0
 50
0.0
  1
R.
  0
TEXT
  8
TEXT
 10
31.795
 20
9.914
 30
0.0
 40
3.0
 50
0.0
  1
A.
  0
TEXT
  8
TEXT
 10
31.795
 20
5.414
 30
0.0
 40
3.0
 50
0.0
  1
R.
  0
TEXT
  8
TEXT
 10
0.695
 20
9.914
 30
0.0
 40
3.0
 50
0.0
  1
A.
  0
TEXT
  8
TEXT
 10
0.695
 20
5.414
 30
0.0
 40
3.0
 50
0.0
  1
R.
  0
TEXT
  8
QUOTATURA
 10
133.541
 20
82.365
 30
0.0
 40
2.0
 50
0.0
  1
17
  0
TEXT
  8
QUOTATURA
 10
78.624
 20
116.527
 30
0.0
 40
2.0
 50
0.0
  1
43.5
  0
TEXT
  8
QUOTATURA
 10
148.152
 20
115.086
 30
0.0
 40
2.0
 50
0.0
  1
13.2
  0
TEXT
  8
QUOTATURA
 10
113.537
 20
130.702
 30
0.0
 40
2.0
 50
0.0
  1
15.15
  0
TEXT
  8
QUOTATURA
 10
114.589
 20
102.352
 30
0.0
 40
2.0
 50
0.0
  1
15.15
  0
ENDSEC
  0
EOF
