  0
SECTION
  2
ENTITIES
  0
LINE
  8
APS_GEOMETRY
 10
0.0
 11
280.0
 20
0.0
 21
0.0
  0
LINE
  8
APS_GEOMETRY
 10
280.0
 11
280.0
 20
0.0
 21
200.0
  0
LINE
  8
APS_GEOMETRY
 10
280.0
 11
0.0
 20
200.0
 21
200.0
  0
LINE
  8
APS_GEOMETRY
 10
0.0
 11
0.0
 20
200.0
 21
0.0
  0
LINE
  8
COSTRUZIONI
 10
0.0
 11
280.0
 20
60.0
 21
60.0
  0
LINE
  8
COSTRUZIONI
 10
31.1
 11
31.1
 20
60.0
 21
0.0
  0
LINE
  8
COSTRUZIONI
 10
62.2
 11
62.2
 20
60.0
 21
0.0
  0
LINE
  8
COSTRUZIONI
 10
93.3
 11
93.3
 20
60.0
 21
0.0
  0
LINE
  8
COSTRUZIONI
 10
124.4
 11
124.4
 20
60.0
 21
0.0
  0
LINE
  8
COSTRUZIONI
 10
155.5
 11
155.5
 20
60.0
 21
0.0
  0
LINE
  8
COSTRUZIONI
 10
186.6
 11
186.6
 20
60.0
 21
0.0
  0
LINE
  8
COSTRUZIONI
 10
217.7
 11
217.7
 20
60.0
 21
0.0
  0
LINE
  8
COSTRUZIONI
 10
248.8
 11
248.8
 20
60.0
 21
0.0
  0
LINE
  8
COSTRUZIONI
 10
280.0
 11
0.0
 20
188.0
 21
188.0
  0
LINE
  8
COSTRUZIONI
 10
166.0
 11
166.0
 20
120.0
 21
188.0
  0
LINE
  8
COSTRUZIONI
 10
184.0
 11
184.0
 20
120.0
 21
188.0
  0
LINE
  8
COSTRUZIONI
 10
202.0
 11
202.0
 20
120.0
 21
188.0
  0
LINE
  8
COSTRUZIONI
 10
220.0
 11
220.0
 20
120.0
 21
188.0
  0
LINE
  8
COSTRUZIONI
 10
250.0
 11
250.0
 20
120.0
 21
188.0
  0
LINE
  8
COSTRUZIONI
 10
280.0
 11
166.0
 20
168.0
 21
168.0
  0
LINE
  8
COSTRUZIONI
 10
280.0
 11
166.0
 20
156.0
 21
156.0
  0
LINE
  8
COSTRUZIONI
 10
280.0
 11
166.0
 20
144.0
 21
144.0
  0
LINE
  8
COSTRUZIONI
 10
280.0
 11
166.0
 20
132.0
 21
132.0
  0
LINE
  8
COSTRUZIONI
 10
280.0
 11
166.0
 20
120.0
 21
120.0
  0
LINE
  8
APS_GEOMETRY
 10
22.734
 11
35.216
 20
118.629
 21
129.759
  0
LINE
  8
APS_GEOMETRY
 10
35.246
 11
34.439
 20
129.698
 21
131.313
  0
LINE
  8
APS_GEOMETRY
 10
34.439
 11
43.912
 20
131.313
 21
139.629
  0
LINE
  8
QUOTATURA
 10
71.994
 11
49.254
 20
118.629
 21
118.629
  0
LINE
  8
QUOTATURA
 10
71.994
 11
49.254
 20
139.629
 21
139.629
  0
LINE
  8
QUOTATURA
 10
50.254
 11
50.254
 20
118.629
 21
127.629
  0
LINE
  8
QUOTATURA
 10
50.254
 11
50.254
 20
130.635
 21
139.629
  0
LINE
  8
QUOTATURA
 10
50.587
 11
50.254
 20
120.629
 21
118.629
  0
LINE
  8
QUOTATURA
 10
50.254
 11
49.92
 20
118.629
 21
120.629
  0
LINE
  8
QUOTATURA
 10
49.92
 11
50.587
 20
120.629
 21
120.629
  0
LINE
  8
QUOTATURA
 10
49.92
 11
50.254
 20
137.629
 21
139.629
  0
LINE
  8
QUOTATURA
 10
50.254
 11
50.587
 20
139.629
 21
137.629
  0
LINE
  8
QUOTATURA
 10
50.587
 11
49.92
 20
137.629
 21
137.629
  0
LINE
  8
QUOTATURA
 10
86.422
 11
86.422
 20
121.879
 21
111.597
  0
LINE
  8
QUOTATURA
 10
121.422
 11
121.422
 20
121.879
 21
111.597
  0
LINE
  8
QUOTATURA
 10
86.422
 11
101.804
 20
112.597
 21
112.597
  0
LINE
  8
QUOTATURA
 10
106.04
 11
121.422
 20
112.597
 21
112.597
  0
LINE
  8
QUOTATURA
 10
88.422
 11
86.422
 20
112.264
 21
112.597
  0
LINE
  8
QUOTATURA
 10
86.422
 11
88.422
 20
112.597
 21
112.931
  0
LINE
  8
QUOTATURA
 10
88.422
 11
88.422
 20
112.931
 21
112.264
  0
LINE
  8
QUOTATURA
 10
119.422
 11
121.422
 20
112.931
 21
112.597
  0
LINE
  8
QUOTATURA
 10
121.422
 11
119.422
 20
112.597
 21
112.264
  0
LINE
  8
QUOTATURA
 10
119.422
 11
119.422
 20
112.264
 21
112.931
  0
LINE
  8
QUOTATURA
 10
122.422
 11
129.348
 20
122.879
 21
122.879
  0
LINE
  8
QUOTATURA
 10
122.422
 11
129.348
 20
135.379
 21
135.379
  0
LINE
  8
QUOTATURA
 10
128.348
 11
128.348
 20
122.879
 21
127.612
  0
LINE
  8
QUOTATURA
 10
128.348
 11
128.348
 20
130.635
 21
135.379
  0
LINE
  8
QUOTATURA
 10
128.681
 11
128.348
 20
124.879
 21
122.879
  0
LINE
  8
QUOTATURA
 10
128.348
 11
128.015
 20
122.879
 21
124.879
  0
LINE
  8
QUOTATURA
 10
128.015
 11
128.681
 20
124.879
 21
124.879
  0
LINE
  8
QUOTATURA
 10
128.015
 11
128.348
 20
133.379
 21
135.379
  0
LINE
  8
QUOTATURA
 10
128.348
 11
128.681
 20
135.379
 21
133.379
  0
LINE
  8
QUOTATURA
 10
128.681
 11
128.015
 20
133.379
 21
133.379
  0
LINE
  8
APS_GEOMETRY
 10
17.906
 11
82.172
 20
118.629
 21
118.629
  0
ARC
  8
APS_GEOMETRY
 10
82.172
 20
122.879
 40
4.25
 50
270.0
 51
360.0
  0
LINE
  8
APS_GEOMETRY
 10
86.422
 11
121.422
 20
122.879
 21
122.879
  0
LINE
  8
APS_GEOMETRY
 10
121.422
 11
121.422
 20
122.879
 21
135.379
  0
LINE
  8
APS_GEOMETRY
 10
121.422
 11
86.422
 20
135.379
 21
135.379
  0
ARC
  8
APS_GEOMETRY
 10
82.172
 20
135.379
 40
4.25
 50
0.0
 51
90.0
  0
LINE
  8
APS_GEOMETRY
 10
82.172
 11
33.737
 20
139.629
 21
139.629
  0
TEXT
  8
TEXT
 10
264.35
 20
60.8
 30
0.0
 40
5.0
 50
0.0
  1
1
  0
TEXT
  8
TEXT
 10
202.15
 20
60.8
 30
0.0
 40
5.0
 50
0.0
  1
3
  0
TEXT
  8
TEXT
 10
171.05
 20
60.0
 30
0.0
 40
5.0
 50
0.0
  1
4
  0
TEXT
  8
TEXT
 10
139.95
 20
60.8
 30
0.0
 40
5.0
 50
0.0
  1
5
  0
TEXT
  8
TEXT
 10
108.85
 20
60.8
 30
0.0
 40
5.0
 50
0.0
  1
6
  0
TEXT
  8
TEXT
 10
77.75
 20
60.8
 30
0.0
 40
5.0
 50
0.0
  1
7
  0
TEXT
  8
TEXT
 10
46.65
 20
60.8
 30
0.0
 40
5.0
 50
0.0
  1
8
  0
TEXT
  8
TEXT
 10
15.55
 20
60.8
 30
0.0
 40
5.0
 50
0.0
  1
9
  0
TEXT
  8
TEXT
 10
165.429
 20
112.996
 30
0.0
 40
5.0
 50
0.0
  1
ANNOTAZIONI: Distanza 35 mm
  0
TEXT
  8
TEXT
 10
165.429
 20
106.996
 30
0.0
 40
5.0
 50
0.0
  1
Sotto fresa mm 10
  0
TEXT
  8
TEXT
 10
165.429
 20
100.996
 30
0.0
 40
5.0
 50
0.0
  1

  0
TEXT
  8
TEXT
 10
165.429
 20
94.996
 30
0.0
 40
5.0
 50
0.0
  1
A. 56.3
  0
TEXT
  8
TEXT
 10
165.429
 20
88.996
 30
0.0
 40
5.0
 50
0.0
  1
R. 6.1
  0
TEXT
  8
TEXT
 10
165.429
 20
82.996
 30
0.0
 40
5.0
 50
0.0
  1
Spessore centrale mm 19.6
  0
TEXT
  8
TEXT
 10
0.0
 20
188.5
 30
0.0
 40
5.0
 50
0.0
  1
 BUGNA SP. 21  MM      ART.  BUGNA-PIANA-P3-V35-SP21
  0
TEXT
  8
TEXT
 10
233.25
 20
60.8
 30
0.0
 40
5.0
 50
0.0
  1
2
  0
TEXT
  8
TEXT
 10
222.123
 20
182.119
 30
0.0
 40
4.0
 50
0.0
  1
MISURE
  0
TEXT
  8
TEXT
 10
222.123
 20
176.119
 30
0.0
 40
4.0
 50
0.0
  1
MAGG.
  0
TEXT
  8
TEXT
 10
280.719
 20
69.107
 30
0.0
 40
2.0
 50
-90.0
  1
Toscocornici porte - 0577-685426 - info@toscocornici.it
  0
TEXT
  8
TEXT
 10
277.719
 20
69.107
 30
0.0
 40
2.0
 50
-90.0
  1

  0
TEXT
  8
TEXT
 10
274.719
 20
69.107
 30
0.0
 40
2.0
 50
-90.0
  1

  0
TEXT
  8
TEXT
 10
218.395
 20
9.914
 30
0.0
 40
3.0
 50
0.0
  1
A.
  0
TEXT
  8
TEXT
 10
218.395
 20
5.414
 30
0.0
 40
3.0
 50
0.0
  1
R.
  0
TEXT
  8
TEXT
 10
249.495
 20
9.914
 30
0.0
 40
3.0
 50
0.0
  1
A.
  0
TEXT
  8
TEXT
 10
249.495
 20
5.414
 30
0.0
 40
3.0
 50
0.0
  1
R.
  0
TEXT
  8
TEXT
 10
187.295
 20
9.914
 30
0.0
 40
3.0
 50
0.0
  1
A.
  0
TEXT
  8
TEXT
 10
187.295
 20
5.414
 30
0.0
 40
3.0
 50
0.0
  1
R.
  0
TEXT
  8
TEXT
 10
156.195
 20
9.914
 30
0.0
 40
3.0
 50
0.0
  1
A.
  0
TEXT
  8
TEXT
 10
156.195
 20
5.414
 30
0.0
 40
3.0
 50
0.0
  1
R.
  0
TEXT
  8
TEXT
 10
125.095
 20
9.914
 30
0.0
 40
3.0
 50
0.0
  1
A.
  0
TEXT
  8
TEXT
 10
125.095
 20
5.414
 30
0.0
 40
3.0
 50
0.0
  1
R.
  0
TEXT
  8
TEXT
 10
93.995
 20
9.914
 30
0.0
 40
3.0
 50
0.0
  1
A.
  0
TEXT
  8
TEXT
 10
93.995
 20
5.414
 30
0.0
 40
3.0
 50
0.0
  1
R.
  0
TEXT
  8
TEXT
 10
62.895
 20
9.914
 30
0.0
 40
3.0
 50
0.0
  1
A.
  0
TEXT
  8
TEXT
 10
62.895
 20
5.414
 30
0.0
 40
3.0
 50
0.0
  1
R.
  0
TEXT
  8
TEXT
 10
31.795
 20
9.914
 30
0.0
 40
3.0
 50
0.0
  1
A.
  0
TEXT
  8
TEXT
 10
31.795
 20
5.414
 30
0.0
 40
3.0
 50
0.0
  1
R.
  0
TEXT
  8
TEXT
 10
0.695
 20
9.914
 30
0.0
 40
3.0
 50
0.0
  1
A.
  0
TEXT
  8
TEXT
 10
0.695
 20
5.414
 30
0.0
 40
3.0
 50
0.0
  1
R.
  0
TEXT
  8
QUOTATURA
 10
49.044
 20
128.129
 30
0.0
 40
2.0
 50
0.0
  1
21
  0
TEXT
  8
QUOTATURA
 10
102.251
 20
111.597
 30
0.0
 40
2.0
 50
0.0
  1
35
  0
TEXT
  8
QUOTATURA
 10
125.912
 20
128.129
 30
0.0
 40
2.0
 50
0.0
  1
12.5
  0
TEXT
  8
TEXT
 10
11.899
 20
168.956
 30
0.0
 40
5.0
 50
0.0
  1
UTILIZZATA NELLE PORTE TIPO 2
  0
ENDSEC
  0
EOF
