  0
SECTION
  2
ENTITIES
  0
LINE
  8
APS_GEOMETRY
 10
0.0
 11
280.0
 20
0.0
 21
0.0
  0
LINE
  8
APS_GEOMETRY
 10
280.0
 11
280.0
 20
0.0
 21
200.0
  0
LINE
  8
APS_GEOMETRY
 10
280.0
 11
0.0
 20
200.0
 21
200.0
  0
LINE
  8
APS_GEOMETRY
 10
0.0
 11
0.0
 20
200.0
 21
0.0
  0
LINE
  8
COSTRUZIONI
 10
0.0
 11
280.0
 20
60.0
 21
60.0
  0
LINE
  8
COSTRUZIONI
 10
31.1
 11
31.1
 20
60.0
 21
0.0
  0
LINE
  8
COSTRUZIONI
 10
62.2
 11
62.2
 20
60.0
 21
0.0
  0
LINE
  8
COSTRUZIONI
 10
93.3
 11
93.3
 20
60.0
 21
0.0
  0
LINE
  8
COSTRUZIONI
 10
124.4
 11
124.4
 20
60.0
 21
0.0
  0
LINE
  8
COSTRUZIONI
 10
155.5
 11
155.5
 20
60.0
 21
0.0
  0
LINE
  8
COSTRUZIONI
 10
186.6
 11
186.6
 20
60.0
 21
0.0
  0
LINE
  8
COSTRUZIONI
 10
217.7
 11
217.7
 20
60.0
 21
0.0
  0
LINE
  8
COSTRUZIONI
 10
248.8
 11
248.8
 20
60.0
 21
0.0
  0
LINE
  8
COSTRUZIONI
 10
280.0
 11
0.0
 20
188.0
 21
188.0
  0
LINE
  8
COSTRUZIONI
 10
166.0
 11
166.0
 20
120.0
 21
188.0
  0
LINE
  8
COSTRUZIONI
 10
184.0
 11
184.0
 20
120.0
 21
188.0
  0
LINE
  8
COSTRUZIONI
 10
202.0
 11
202.0
 20
120.0
 21
188.0
  0
LINE
  8
COSTRUZIONI
 10
220.0
 11
220.0
 20
120.0
 21
188.0
  0
LINE
  8
COSTRUZIONI
 10
250.0
 11
250.0
 20
120.0
 21
188.0
  0
LINE
  8
COSTRUZIONI
 10
280.0
 11
166.0
 20
168.0
 21
168.0
  0
LINE
  8
COSTRUZIONI
 10
280.0
 11
166.0
 20
156.0
 21
156.0
  0
LINE
  8
COSTRUZIONI
 10
280.0
 11
166.0
 20
144.0
 21
144.0
  0
LINE
  8
COSTRUZIONI
 10
280.0
 11
166.0
 20
132.0
 21
132.0
  0
LINE
  8
COSTRUZIONI
 10
280.0
 11
166.0
 20
120.0
 21
120.0
  0
LINE
  8
APS_GEOMETRY
 10
29.949
 11
42.431
 20
125.327
 21
136.457
  0
LINE
  8
APS_GEOMETRY
 10
42.462
 11
41.654
 20
136.396
 21
138.012
  0
LINE
  8
APS_GEOMETRY
 10
41.654
 11
51.127
 20
138.012
 21
146.327
  0
LINE
  8
APS_GEOMETRY
 10
85.21
 11
85.21
 20
132.927
 21
125.327
  0
LINE
  8
COSTRUZIONI
 10
128.21
 11
128.21
 20
132.927
 21
138.727
  0
LINE
  8
QUOTATURA
 10
79.21
 11
56.469
 20
125.327
 21
125.327
  0
LINE
  8
QUOTATURA
 10
79.21
 11
56.469
 20
146.327
 21
146.327
  0
LINE
  8
QUOTATURA
 10
57.469
 11
57.469
 20
125.327
 21
134.327
  0
LINE
  8
QUOTATURA
 10
57.469
 11
57.469
 20
137.333
 21
146.327
  0
LINE
  8
QUOTATURA
 10
57.802
 11
57.469
 20
127.327
 21
125.327
  0
LINE
  8
QUOTATURA
 10
57.469
 11
57.136
 20
125.327
 21
127.327
  0
LINE
  8
QUOTATURA
 10
57.136
 11
57.802
 20
127.327
 21
127.327
  0
LINE
  8
QUOTATURA
 10
57.136
 11
57.469
 20
144.327
 21
146.327
  0
LINE
  8
QUOTATURA
 10
57.469
 11
57.802
 20
146.327
 21
144.327
  0
LINE
  8
QUOTATURA
 10
57.802
 11
57.136
 20
144.327
 21
144.327
  0
LINE
  8
QUOTATURA
 10
128.21
 11
128.21
 20
139.727
 21
144.409
  0
LINE
  8
QUOTATURA
 10
143.21
 11
143.21
 20
139.327
 21
144.409
  0
LINE
  8
QUOTATURA
 10
128.21
 11
133.941
 20
143.409
 21
143.409
  0
LINE
  8
QUOTATURA
 10
137.479
 11
143.21
 20
143.409
 21
143.409
  0
LINE
  8
QUOTATURA
 10
130.21
 11
128.21
 20
143.076
 21
143.409
  0
LINE
  8
QUOTATURA
 10
128.21
 11
130.21
 20
143.409
 21
143.742
  0
LINE
  8
QUOTATURA
 10
130.21
 11
130.21
 20
143.742
 21
143.076
  0
LINE
  8
QUOTATURA
 10
141.21
 11
143.21
 20
143.742
 21
143.409
  0
LINE
  8
QUOTATURA
 10
143.21
 11
141.21
 20
143.409
 21
143.076
  0
LINE
  8
QUOTATURA
 10
141.21
 11
141.21
 20
143.076
 21
143.742
  0
LINE
  8
QUOTATURA
 10
85.21
 11
85.21
 20
124.327
 21
114.778
  0
LINE
  8
QUOTATURA
 10
143.21
 11
143.21
 20
132.327
 21
114.778
  0
LINE
  8
QUOTATURA
 10
85.21
 11
112.06
 20
115.778
 21
115.778
  0
LINE
  8
QUOTATURA
 10
116.359
 11
143.21
 20
115.778
 21
115.778
  0
LINE
  8
QUOTATURA
 10
87.21
 11
85.21
 20
115.445
 21
115.778
  0
LINE
  8
QUOTATURA
 10
85.21
 11
87.21
 20
115.778
 21
116.112
  0
LINE
  8
QUOTATURA
 10
87.21
 11
87.21
 20
116.112
 21
115.445
  0
LINE
  8
QUOTATURA
 10
141.21
 11
143.21
 20
116.112
 21
115.778
  0
LINE
  8
QUOTATURA
 10
143.21
 11
141.21
 20
115.778
 21
115.445
  0
LINE
  8
QUOTATURA
 10
141.21
 11
141.21
 20
115.445
 21
116.112
  0
LINE
  8
QUOTATURA
 10
144.21
 11
150.843
 20
138.327
 21
138.327
  0
LINE
  8
QUOTATURA
 10
144.21
 11
150.843
 20
133.327
 21
133.327
  0
LINE
  8
QUOTATURA
 10
149.843
 11
149.843
 20
133.327
 21
126.669
  0
LINE
  8
QUOTATURA
 10
149.843
 11
153.234
 20
126.669
 21
126.669
  0
LINE
  8
QUOTATURA
 10
149.51
 11
149.843
 20
131.327
 21
133.327
  0
LINE
  8
QUOTATURA
 10
149.843
 11
150.176
 20
133.327
 21
131.327
  0
LINE
  8
QUOTATURA
 10
150.176
 11
149.51
 20
131.327
 21
131.327
  0
LINE
  8
QUOTATURA
 10
149.843
 11
149.843
 20
138.327
 21
142.327
  0
LINE
  8
QUOTATURA
 10
150.176
 11
149.843
 20
140.327
 21
138.327
  0
LINE
  8
QUOTATURA
 10
149.843
 11
149.51
 20
138.327
 21
140.327
  0
LINE
  8
QUOTATURA
 10
149.51
 11
150.176
 20
140.327
 21
140.327
  0
LINE
  8
QUOTATURA
 10
127.21
 11
118.149
 20
138.727
 21
138.727
  0
LINE
  8
QUOTATURA
 10
127.21
 11
118.149
 20
132.927
 21
132.927
  0
LINE
  8
QUOTATURA
 10
119.149
 11
119.149
 20
138.727
 21
145.649
  0
LINE
  8
QUOTATURA
 10
119.149
 11
117.433
 20
145.649
 21
145.649
  0
LINE
  8
QUOTATURA
 10
119.482
 11
119.149
 20
140.727
 21
138.727
  0
LINE
  8
QUOTATURA
 10
119.149
 11
118.816
 20
138.727
 21
140.727
  0
LINE
  8
QUOTATURA
 10
118.816
 11
119.482
 20
140.727
 21
140.727
  0
LINE
  8
QUOTATURA
 10
119.149
 11
119.149
 20
132.927
 21
128.927
  0
LINE
  8
QUOTATURA
 10
118.816
 11
119.149
 20
130.927
 21
132.927
  0
LINE
  8
QUOTATURA
 10
119.149
 11
119.482
 20
132.927
 21
130.927
  0
LINE
  8
QUOTATURA
 10
119.482
 11
118.816
 20
130.927
 21
130.927
  0
LINE
  8
QUOTATURA
 10
93.078
 11
93.609
 20
140.835
 21
142.792
  0
LINE
  8
QUOTATURA
 10
93.609
 11
93.741
 20
142.792
 21
140.768
  0
LINE
  8
QUOTATURA
 10
93.741
 11
93.078
 20
140.768
 21
140.835
  0
LINE
  8
QUOTATURA
 10
93.741
 11
93.609
 20
130.886
 21
128.863
  0
LINE
  8
QUOTATURA
 10
93.609
 11
93.078
 20
128.863
 21
130.819
  0
LINE
  8
QUOTATURA
 10
93.078
 11
93.741
 20
130.819
 21
130.886
  0
ARC
  8
QUOTATURA
 10
152.896
 20
135.827
 40
59.694
 50
173.3
 51
178.456
  0
ARC
  8
QUOTATURA
 10
152.896
 20
135.827
 40
59.694
 50
181.342
 51
186.7
  0
LINE
  8
APS_GEOMETRY
 10
40.952
 11
83.638
 20
146.327
 21
146.327
  0
ARC
  8
APS_GEOMETRY
 10
83.638
 20
145.327
 40
1.0
 50
5.722
 51
90.0
  0
ARC
  8
APS_GEOMETRY
 10
86.623
 20
145.626
 40
2.0
 50
185.722
 51
263.3
  0
LINE
  8
APS_GEOMETRY
 10
86.389
 11
128.21
 20
143.64
 21
138.727
  0
LINE
  8
APS_GEOMETRY
 10
128.21
 11
132.71
 20
138.727
 21
138.327
  0
LINE
  8
APS_GEOMETRY
 10
132.71
 11
143.21
 20
138.327
 21
138.327
  0
LINE
  8
APS_GEOMETRY
 10
143.21
 11
143.21
 20
138.327
 21
133.327
  0
LINE
  8
APS_GEOMETRY
 10
143.21
 11
132.71
 20
133.327
 21
133.327
  0
LINE
  8
APS_GEOMETRY
 10
132.71
 11
128.21
 20
133.327
 21
132.927
  0
LINE
  8
APS_GEOMETRY
 10
128.21
 11
86.389
 20
132.927
 21
128.014
  0
ARC
  8
APS_GEOMETRY
 10
86.623
 20
126.028
 40
2.0
 50
96.7
 51
174.278
  0
ARC
  8
APS_GEOMETRY
 10
83.638
 20
126.327
 40
1.0
 50
270.0
 51
354.278
  0
LINE
  8
APS_GEOMETRY
 10
83.638
 11
25.122
 20
125.327
 21
125.327
  0
TEXT
  8
TEXT
 10
264.35
 20
60.8
 30
0.0
 40
5.0
 50
0.0
  1
1
  0
TEXT
  8
TEXT
 10
202.15
 20
60.8
 30
0.0
 40
5.0
 50
0.0
  1
3
  0
TEXT
  8
TEXT
 10
171.05
 20
60.0
 30
0.0
 40
5.0
 50
0.0
  1
4
  0
TEXT
  8
TEXT
 10
139.95
 20
60.8
 30
0.0
 40
5.0
 50
0.0
  1
5
  0
TEXT
  8
TEXT
 10
108.85
 20
60.8
 30
0.0
 40
5.0
 50
0.0
  1
6
  0
TEXT
  8
TEXT
 10
77.75
 20
60.8
 30
0.0
 40
5.0
 50
0.0
  1
7
  0
TEXT
  8
TEXT
 10
46.65
 20
60.8
 30
0.0
 40
5.0
 50
0.0
  1
8
  0
TEXT
  8
TEXT
 10
15.55
 20
60.8
 30
0.0
 40
5.0
 50
0.0
  1
9
  0
TEXT
  8
TEXT
 10
165.429
 20
112.996
 30
0.0
 40
5.0
 50
0.0
  1
ANNOTAZIONI:
  0
TEXT
  8
TEXT
 10
165.429
 20
105.496
 30
0.0
 40
5.0
 50
0.0
  1
Spessore centrale 12,7 mm
  0
TEXT
  8
TEXT
 10
165.429
 20
97.996
 30
0.0
 40
5.0
 50
0.0
  1
Spessore sottofresa 26,4 mm
  0
TEXT
  8
TEXT
 10
0.0
 20
188.5
 30
0.0
 40
5.0
 50
0.0
  1
 BUGNA SP. 21  MM      ART.  BUGNA-PIANA-P2-V58
  0
TEXT
  8
TEXT
 10
233.25
 20
60.8
 30
0.0
 40
5.0
 50
0.0
  1
2
  0
TEXT
  8
TEXT
 10
222.123
 20
182.119
 30
0.0
 40
4.0
 50
0.0
  1
MISURE
  0
TEXT
  8
TEXT
 10
222.123
 20
176.119
 30
0.0
 40
4.0
 50
0.0
  1
MAGG.
  0
TEXT
  8
TEXT
 10
280.719
 20
69.107
 30
0.0
 40
2.0
 50
-90.0
  1
Toscocornici porte - 0577-685426 - info@toscocornici.it
  0
TEXT
  8
TEXT
 10
277.719
 20
69.107
 30
0.0
 40
2.0
 50
-90.0
  1

  0
TEXT
  8
TEXT
 10
274.719
 20
69.107
 30
0.0
 40
2.0
 50
-90.0
  1

  0
TEXT
  8
TEXT
 10
218.395
 20
9.914
 30
0.0
 40
3.0
 50
0.0
  1
A.
  0
TEXT
  8
TEXT
 10
218.395
 20
5.414
 30
0.0
 40
3.0
 50
0.0
  1
R.
  0
TEXT
  8
TEXT
 10
249.495
 20
9.914
 30
0.0
 40
3.0
 50
0.0
  1
A.
  0
TEXT
  8
TEXT
 10
249.495
 20
5.414
 30
0.0
 40
3.0
 50
0.0
  1
R.
  0
TEXT
  8
TEXT
 10
187.295
 20
9.914
 30
0.0
 40
3.0
 50
0.0
  1
A.
  0
TEXT
  8
TEXT
 10
187.295
 20
5.414
 30
0.0
 40
3.0
 50
0.0
  1
R.
  0
TEXT
  8
TEXT
 10
156.195
 20
9.914
 30
0.0
 40
3.0
 50
0.0
  1
A.
  0
TEXT
  8
TEXT
 10
156.195
 20
5.414
 30
0.0
 40
3.0
 50
0.0
  1
R.
  0
TEXT
  8
TEXT
 10
125.095
 20
9.914
 30
0.0
 40
3.0
 50
0.0
  1
A.
  0
TEXT
  8
TEXT
 10
125.095
 20
5.414
 30
0.0
 40
3.0
 50
0.0
  1
R.
  0
TEXT
  8
TEXT
 10
93.995
 20
9.914
 30
0.0
 40
3.0
 50
0.0
  1
A.
  0
TEXT
  8
TEXT
 10
93.995
 20
5.414
 30
0.0
 40
3.0
 50
0.0
  1
R.
  0
TEXT
  8
TEXT
 10
62.895
 20
9.914
 30
0.0
 40
3.0
 50
0.0
  1
A.
  0
TEXT
  8
TEXT
 10
62.895
 20
5.414
 30
0.0
 40
3.0
 50
0.0
  1
R.
  0
TEXT
  8
TEXT
 10
31.795
 20
9.914
 30
0.0
 40
3.0
 50
0.0
  1
A.
  0
TEXT
  8
TEXT
 10
31.795
 20
5.414
 30
0.0
 40
3.0
 50
0.0
  1
R.
  0
TEXT
  8
TEXT
 10
0.695
 20
9.914
 30
0.0
 40
3.0
 50
0.0
  1
A.
  0
TEXT
  8
TEXT
 10
0.695
 20
5.414
 30
0.0
 40
3.0
 50
0.0
  1
R.
  0
TEXT
  8
QUOTATURA
 10
56.259
 20
134.827
 30
0.0
 40
2.0
 50
0.0
  1
21
  0
TEXT
  8
QUOTATURA
 10
134.441
 20
142.409
 30
0.0
 40
2.0
 50
0.0
  1
15
  0
TEXT
  8
QUOTATURA
 10
112.553
 20
114.778
 30
0.0
 40
2.0
 50
0.0
  1
58
  0
TEXT
  8
QUOTATURA
 10
153.727
 20
125.669
 30
0.0
 40
2.0
 50
0.0
  1
5
  0
TEXT
  8
QUOTATURA
 10
113.027
 20
144.649
 30
0.0
 40
2.0
 50
0.0
  1
5.8
  0
TEXT
  8
QUOTATURA
 10
90.143
 20
134.929
 30
0.0
 40
2.0
 50
0.0
  1
13.4°
  0
ENDSEC
  0
EOF
