  0
SECTION
  2
ENTITIES
  0
LINE
  8
APS_GEOMETRY
 10
0.0
 11
3050.0
 20
0.0
 21
0.0
  0
LINE
  8
APS_GEOMETRY
 10
3050.0
 11
3050.0
 20
0.0
 21
2200.0
  0
LINE
  8
APS_GEOMETRY
 10
3050.0
 11
0.0
 20
2200.0
 21
2200.0
  0
LINE
  8
APS_GEOMETRY
 10
0.0
 11
0.0
 20
2200.0
 21
0.0
  0
LINE
  8
QUOTATURA
 10
0.0
 11
0.0
 20
-50.0
 21
-296.36
  0
LINE
  8
QUOTATURA
 10
3050.0
 11
3050.0
 20
-50.0
 21
-296.36
  0
LINE
  8
QUOTATURA
 10
0.0
 11
1320.815
 20
-246.36
 21
-246.36
  0
LINE
  8
QUOTATURA
 10
1729.185
 11
3050.0
 20
-246.36
 21
-246.36
  0
LINE
  8
QUOTATURA
 10
100.0
 11
0.0
 20
-263.03
 21
-246.36
  0
LINE
  8
QUOTATURA
 10
0.0
 11
100.0
 20
-246.36
 21
-229.69
  0
LINE
  8
QUOTATURA
 10
100.0
 11
100.0
 20
-229.69
 21
-263.03
  0
LINE
  8
QUOTATURA
 10
2950.0
 11
3050.0
 20
-229.69
 21
-246.36
  0
LINE
  8
QUOTATURA
 10
3050.0
 11
2950.0
 20
-246.36
 21
-263.03
  0
LINE
  8
QUOTATURA
 10
2950.0
 11
2950.0
 20
-263.03
 21
-229.69
  0
LINE
  8
QUOTATURA
 10
-50.0
 11
-429.389
 20
0.0
 21
0.0
  0
LINE
  8
QUOTATURA
 10
-50.0
 11
-429.389
 20
2200.0
 21
2200.0
  0
LINE
  8
QUOTATURA
 10
-379.389
 11
-379.389
 20
0.0
 21
1023.78
  0
LINE
  8
QUOTATURA
 10
-379.389
 11
-379.389
 20
1175.314
 21
2200.0
  0
LINE
  8
QUOTATURA
 10
-362.719
 11
-379.389
 20
100.0
 21
0.0
  0
LINE
  8
QUOTATURA
 10
-379.389
 11
-396.059
 20
0.0
 21
100.0
  0
LINE
  8
QUOTATURA
 10
-396.059
 11
-362.719
 20
100.0
 21
100.0
  0
LINE
  8
QUOTATURA
 10
-396.059
 11
-379.389
 20
2100.0
 21
2200.0
  0
LINE
  8
QUOTATURA
 10
-379.389
 11
-362.719
 20
2200.0
 21
2100.0
  0
LINE
  8
QUOTATURA
 10
-362.719
 11
-396.059
 20
2100.0
 21
2100.0
  0
LINE
  8
QUOTATURA
 10
3050.0
 11
3157.834
 20
2200.0
 21
2307.834
  0
CIRCLE
  8
QUOTATURA
 10
3265.668
 20
2415.668
 40
152.5
  0
LINE
  8
APS_GEOMETRY
 10
408.0
 11
408.0
 20
0.0
 21
2085.0
  0
LINE
  8
APS_GEOMETRY
 10
408.0
 11
0.0
 20
2085.0
 21
2085.0
  0
LINE
  8
APS_GEOMETRY
 10
0.0
 11
0.0
 20
2085.0
 21
0.0
  0
LINE
  8
APS_GEOMETRY
 10
0.0
 11
408.0
 20
0.0
 21
0.0
  0
LINE
  8
APS_GEOMETRY
 10
1246.0
 11
1246.0
 20
0.0
 21
2119.0
  0
LINE
  8
APS_GEOMETRY
 10
1246.0
 11
413.0
 20
2119.0
 21
2119.0
  0
LINE
  8
APS_GEOMETRY
 10
413.0
 11
413.0
 20
2119.0
 21
0.0
  0
LINE
  8
APS_GEOMETRY
 10
413.0
 11
1246.0
 20
0.0
 21
0.0
  0
LINE
  8
APS_GEOMETRY
 10
2084.0
 11
2084.0
 20
0.0
 21
2119.0
  0
LINE
  8
APS_GEOMETRY
 10
2084.0
 11
1251.0
 20
2119.0
 21
2119.0
  0
LINE
  8
APS_GEOMETRY
 10
1251.0
 11
1251.0
 20
2119.0
 21
0.0
  0
LINE
  8
APS_GEOMETRY
 10
1251.0
 11
2084.0
 20
0.0
 21
0.0
  0
LINE
  8
APS_GEOMETRY
 10
2922.0
 11
2922.0
 20
0.0
 21
2119.0
  0
LINE
  8
APS_GEOMETRY
 10
2922.0
 11
2089.0
 20
2119.0
 21
2119.0
  0
LINE
  8
APS_GEOMETRY
 10
2089.0
 11
2089.0
 20
2119.0
 21
0.0
  0
LINE
  8
APS_GEOMETRY
 10
2089.0
 11
2922.0
 20
0.0
 21
0.0
  0
LINE
  8
APS_GEOMETRY
 10
0.0
 11
3050.0
 20
2596.0
 21
2596.0
  0
LINE
  8
APS_GEOMETRY
 10
3050.0
 11
3050.0
 20
2596.0
 21
4796.0
  0
LINE
  8
APS_GEOMETRY
 10
3050.0
 11
0.0
 20
4796.0
 21
4796.0
  0
LINE
  8
APS_GEOMETRY
 10
0.0
 11
0.0
 20
4796.0
 21
2596.0
  0
LINE
  8
QUOTATURA
 10
3050.0
 11
3157.834
 20
4796.0
 21
4903.834
  0
CIRCLE
  8
QUOTATURA
 10
3265.668
 20
5011.668
 40
152.5
  0
LINE
  8
APS_GEOMETRY
 10
408.0
 11
408.0
 20
2596.0
 21
4681.0
  0
LINE
  8
APS_GEOMETRY
 10
408.0
 11
0.0
 20
4681.0
 21
4681.0
  0
LINE
  8
APS_GEOMETRY
 10
0.0
 11
0.0
 20
4681.0
 21
2596.0
  0
LINE
  8
APS_GEOMETRY
 10
0.0
 11
408.0
 20
2596.0
 21
2596.0
  0
LINE
  8
APS_GEOMETRY
 10
1246.0
 11
1246.0
 20
2596.0
 21
4715.0
  0
LINE
  8
APS_GEOMETRY
 10
1246.0
 11
413.0
 20
4715.0
 21
4715.0
  0
LINE
  8
APS_GEOMETRY
 10
413.0
 11
413.0
 20
4715.0
 21
2596.0
  0
LINE
  8
APS_GEOMETRY
 10
413.0
 11
1246.0
 20
2596.0
 21
2596.0
  0
LINE
  8
APS_GEOMETRY
 10
2084.0
 11
2084.0
 20
2596.0
 21
4715.0
  0
LINE
  8
APS_GEOMETRY
 10
2084.0
 11
1251.0
 20
4715.0
 21
4715.0
  0
LINE
  8
APS_GEOMETRY
 10
1251.0
 11
1251.0
 20
4715.0
 21
2596.0
  0
LINE
  8
APS_GEOMETRY
 10
1251.0
 11
2084.0
 20
2596.0
 21
2596.0
  0
LINE
  8
APS_GEOMETRY
 10
2922.0
 11
2922.0
 20
2596.0
 21
4715.0
  0
LINE
  8
APS_GEOMETRY
 10
2922.0
 11
2089.0
 20
4715.0
 21
4715.0
  0
LINE
  8
APS_GEOMETRY
 10
2089.0
 11
2089.0
 20
4715.0
 21
2596.0
  0
LINE
  8
APS_GEOMETRY
 10
2089.0
 11
2922.0
 20
2596.0
 21
2596.0
  0
LINE
  8
APS_GEOMETRY
 10
3599.0
 11
6649.0
 20
2596.0
 21
2596.0
  0
LINE
  8
APS_GEOMETRY
 10
6649.0
 11
6649.0
 20
2596.0
 21
4796.0
  0
LINE
  8
APS_GEOMETRY
 10
6649.0
 11
3599.0
 20
4796.0
 21
4796.0
  0
LINE
  8
APS_GEOMETRY
 10
3599.0
 11
3599.0
 20
4796.0
 21
2596.0
  0
LINE
  8
QUOTATURA
 10
6649.0
 11
6756.834
 20
4796.0
 21
4903.834
  0
CIRCLE
  8
QUOTATURA
 10
6864.668
 20
5011.668
 40
152.5
  0
LINE
  8
APS_GEOMETRY
 10
4432.0
 11
4432.0
 20
2596.0
 21
4715.0
  0
LINE
  8
APS_GEOMETRY
 10
4432.0
 11
3599.0
 20
4715.0
 21
4715.0
  0
LINE
  8
APS_GEOMETRY
 10
3599.0
 11
3599.0
 20
4715.0
 21
2596.0
  0
LINE
  8
APS_GEOMETRY
 10
3599.0
 11
4432.0
 20
2596.0
 21
2596.0
  0
LINE
  8
APS_GEOMETRY
 10
5170.0
 11
5170.0
 20
2596.0
 21
4715.0
  0
LINE
  8
APS_GEOMETRY
 10
5170.0
 11
4437.0
 20
4715.0
 21
4715.0
  0
LINE
  8
APS_GEOMETRY
 10
4437.0
 11
4437.0
 20
4715.0
 21
2596.0
  0
LINE
  8
APS_GEOMETRY
 10
4437.0
 11
5170.0
 20
2596.0
 21
2596.0
  0
LINE
  8
APS_GEOMETRY
 10
5908.0
 11
5908.0
 20
2596.0
 21
4715.0
  0
LINE
  8
APS_GEOMETRY
 10
5908.0
 11
5175.0
 20
4715.0
 21
4715.0
  0
LINE
  8
APS_GEOMETRY
 10
5175.0
 11
5175.0
 20
4715.0
 21
2596.0
  0
LINE
  8
APS_GEOMETRY
 10
5175.0
 11
5908.0
 20
2596.0
 21
2596.0
  0
LINE
  8
APS_GEOMETRY
 10
6646.0
 11
6646.0
 20
2596.0
 21
4715.0
  0
LINE
  8
APS_GEOMETRY
 10
6646.0
 11
5913.0
 20
4715.0
 21
4715.0
  0
LINE
  8
APS_GEOMETRY
 10
5913.0
 11
5913.0
 20
4715.0
 21
2596.0
  0
LINE
  8
APS_GEOMETRY
 10
5913.0
 11
6646.0
 20
2596.0
 21
2596.0
  0
LINE
  8
APS_GEOMETRY
 10
7198.0
 11
10248.0
 20
2596.0
 21
2596.0
  0
LINE
  8
APS_GEOMETRY
 10
10248.0
 11
10248.0
 20
2596.0
 21
4796.0
  0
LINE
  8
APS_GEOMETRY
 10
10248.0
 11
7198.0
 20
4796.0
 21
4796.0
  0
LINE
  8
APS_GEOMETRY
 10
7198.0
 11
7198.0
 20
4796.0
 21
2596.0
  0
LINE
  8
QUOTATURA
 10
10248.0
 11
10355.834
 20
4796.0
 21
4903.834
  0
CIRCLE
  8
QUOTATURA
 10
10463.668
 20
5011.668
 40
152.5
  0
LINE
  8
APS_GEOMETRY
 10
7931.0
 11
7931.0
 20
2596.0
 21
4715.0
  0
LINE
  8
APS_GEOMETRY
 10
7931.0
 11
7198.0
 20
4715.0
 21
4715.0
  0
LINE
  8
APS_GEOMETRY
 10
7198.0
 11
7198.0
 20
4715.0
 21
2596.0
  0
LINE
  8
APS_GEOMETRY
 10
7198.0
 11
7931.0
 20
2596.0
 21
2596.0
  0
LINE
  8
APS_GEOMETRY
 10
8669.0
 11
8669.0
 20
2596.0
 21
4715.0
  0
LINE
  8
APS_GEOMETRY
 10
8669.0
 11
7936.0
 20
4715.0
 21
4715.0
  0
LINE
  8
APS_GEOMETRY
 10
7936.0
 11
7936.0
 20
4715.0
 21
2596.0
  0
LINE
  8
APS_GEOMETRY
 10
7936.0
 11
8669.0
 20
2596.0
 21
2596.0
  0
LINE
  8
APS_GEOMETRY
 10
9407.0
 11
9407.0
 20
2596.0
 21
4715.0
  0
LINE
  8
APS_GEOMETRY
 10
9407.0
 11
8674.0
 20
4715.0
 21
4715.0
  0
LINE
  8
APS_GEOMETRY
 10
8674.0
 11
8674.0
 20
4715.0
 21
2596.0
  0
LINE
  8
APS_GEOMETRY
 10
8674.0
 11
9407.0
 20
2596.0
 21
2596.0
  0
LINE
  8
APS_GEOMETRY
 10
10145.0
 11
10145.0
 20
2596.0
 21
4715.0
  0
LINE
  8
APS_GEOMETRY
 10
10145.0
 11
9412.0
 20
4715.0
 21
4715.0
  0
LINE
  8
APS_GEOMETRY
 10
9412.0
 11
9412.0
 20
4715.0
 21
2596.0
  0
LINE
  8
APS_GEOMETRY
 10
9412.0
 11
10145.0
 20
2596.0
 21
2596.0
  0
LINE
  8
APS_GEOMETRY
 10
10797.0
 11
13847.0
 20
2596.0
 21
2596.0
  0
LINE
  8
APS_GEOMETRY
 10
13847.0
 11
13847.0
 20
2596.0
 21
4796.0
  0
LINE
  8
APS_GEOMETRY
 10
13847.0
 11
10797.0
 20
4796.0
 21
4796.0
  0
LINE
  8
APS_GEOMETRY
 10
10797.0
 11
10797.0
 20
4796.0
 21
2596.0
  0
LINE
  8
QUOTATURA
 10
13847.0
 11
13954.834
 20
4796.0
 21
4903.834
  0
CIRCLE
  8
QUOTATURA
 10
14062.668
 20
5011.668
 40
152.5
  0
LINE
  8
APS_GEOMETRY
 10
11530.0
 11
11530.0
 20
2596.0
 21
4715.0
  0
LINE
  8
APS_GEOMETRY
 10
11530.0
 11
10797.0
 20
4715.0
 21
4715.0
  0
LINE
  8
APS_GEOMETRY
 10
10797.0
 11
10797.0
 20
4715.0
 21
2596.0
  0
LINE
  8
APS_GEOMETRY
 10
10797.0
 11
11530.0
 20
2596.0
 21
2596.0
  0
LINE
  8
APS_GEOMETRY
 10
12268.0
 11
12268.0
 20
2596.0
 21
4715.0
  0
LINE
  8
APS_GEOMETRY
 10
12268.0
 11
11535.0
 20
4715.0
 21
4715.0
  0
LINE
  8
APS_GEOMETRY
 10
11535.0
 11
11535.0
 20
4715.0
 21
2596.0
  0
LINE
  8
APS_GEOMETRY
 10
11535.0
 11
12268.0
 20
2596.0
 21
2596.0
  0
LINE
  8
APS_GEOMETRY
 10
12681.0
 11
12681.0
 20
2596.0
 21
4681.0
  0
LINE
  8
APS_GEOMETRY
 10
12681.0
 11
12273.0
 20
4681.0
 21
4681.0
  0
LINE
  8
APS_GEOMETRY
 10
12273.0
 11
12273.0
 20
4681.0
 21
2596.0
  0
LINE
  8
APS_GEOMETRY
 10
12273.0
 11
12681.0
 20
2596.0
 21
2596.0
  0
LINE
  8
APS_GEOMETRY
 10
13094.0
 11
13094.0
 20
2596.0
 21
4681.0
  0
LINE
  8
APS_GEOMETRY
 10
13094.0
 11
12686.0
 20
4681.0
 21
4681.0
  0
LINE
  8
APS_GEOMETRY
 10
12686.0
 11
12686.0
 20
4681.0
 21
2596.0
  0
LINE
  8
APS_GEOMETRY
 10
12686.0
 11
13094.0
 20
2596.0
 21
2596.0
  0
LINE
  8
APS_GEOMETRY
 10
13832.0
 11
13832.0
 20
2596.0
 21
4715.0
  0
LINE
  8
APS_GEOMETRY
 10
13832.0
 11
13099.0
 20
4715.0
 21
4715.0
  0
LINE
  8
APS_GEOMETRY
 10
13099.0
 11
13099.0
 20
4715.0
 21
2596.0
  0
LINE
  8
APS_GEOMETRY
 10
13099.0
 11
13832.0
 20
2596.0
 21
2596.0
  0
TEXT
  8
TEXT
 10
13384.056
 20
3533.334
 30
0.0
 40
244.333
 50
0.0
  1
2
  0
TEXT
  8
TEXT
 10
13812.963
 20
2612.065
 30
0.0
 40
100.0
 50
90.0
  1
733x2119
  0
TEXT
  8
TEXT
 10
12866.667
 20
3570.5
 30
0.0
 40
136.0
 50
0.0
  1
1
  0
TEXT
  8
TEXT
 10
13079.751
 20
2616.108
 30
0.0
 40
100.0
 50
90.0
  1
408x2085
  0
TEXT
  8
TEXT
 10
12453.667
 20
3570.5
 30
0.0
 40
136.0
 50
0.0
  1
1
  0
TEXT
  8
TEXT
 10
12666.751
 20
2616.108
 30
0.0
 40
100.0
 50
90.0
  1
408x2085
  0
TEXT
  8
TEXT
 10
11820.056
 20
3533.334
 30
0.0
 40
244.333
 50
0.0
  1
2
  0
TEXT
  8
TEXT
 10
12248.963
 20
2612.065
 30
0.0
 40
100.0
 50
90.0
  1
733x2119
  0
TEXT
  8
TEXT
 10
11082.056
 20
3533.334
 30
0.0
 40
244.333
 50
0.0
  1
2
  0
TEXT
  8
TEXT
 10
11510.963
 20
2612.065
 30
0.0
 40
100.0
 50
90.0
  1
733x2119
  0
TEXT
  8
TEXT
 10
13954.834
 20
4948.156
 30
0.0
 40
129.117
 50
0.0
  1
A5
  0
TEXT
  8
TEXT
 10
9697.056
 20
3533.334
 30
0.0
 40
244.333
 50
0.0
  1
2
  0
TEXT
  8
TEXT
 10
10125.963
 20
2612.065
 30
0.0
 40
100.0
 50
90.0
  1
733x2119
  0
TEXT
  8
TEXT
 10
8959.056
 20
3533.334
 30
0.0
 40
244.333
 50
0.0
  1
2
  0
TEXT
  8
TEXT
 10
9387.963
 20
2612.065
 30
0.0
 40
100.0
 50
90.0
  1
733x2119
  0
TEXT
  8
TEXT
 10
8221.056
 20
3533.334
 30
0.0
 40
244.333
 50
0.0
  1
2
  0
TEXT
  8
TEXT
 10
8649.963
 20
2612.065
 30
0.0
 40
100.0
 50
90.0
  1
733x2119
  0
TEXT
  8
TEXT
 10
7483.056
 20
3533.334
 30
0.0
 40
244.333
 50
0.0
  1
2
  0
TEXT
  8
TEXT
 10
7911.963
 20
2612.065
 30
0.0
 40
100.0
 50
90.0
  1
733x2119
  0
TEXT
  8
TEXT
 10
10355.834
 20
4952.015
 30
0.0
 40
119.306
 50
0.0
  1
A4
  0
TEXT
  8
TEXT
 10
6198.056
 20
3533.334
 30
0.0
 40
244.333
 50
0.0
  1
2
  0
TEXT
  8
TEXT
 10
6626.963
 20
2612.065
 30
0.0
 40
100.0
 50
90.0
  1
733x2119
  0
TEXT
  8
TEXT
 10
5460.056
 20
3533.334
 30
0.0
 40
244.333
 50
0.0
  1
2
  0
TEXT
  8
TEXT
 10
5888.963
 20
2612.065
 30
0.0
 40
100.0
 50
90.0
  1
733x2119
  0
TEXT
  8
TEXT
 10
4722.056
 20
3533.334
 30
0.0
 40
244.333
 50
0.0
  1
2
  0
TEXT
  8
TEXT
 10
5150.963
 20
2612.065
 30
0.0
 40
100.0
 50
90.0
  1
733x2119
  0
TEXT
  8
TEXT
 10
3908.245
 20
3516.529
 30
0.0
 40
277.667
 50
0.0
  1
3
  0
TEXT
  8
TEXT
 10
4411.105
 20
2618.344
 30
0.0
 40
100.0
 50
90.0
  1
833x2119
  0
TEXT
  8
TEXT
 10
6756.834
 20
4947.868
 30
0.0
 40
127.599
 50
0.0
  1
A3
  0
TEXT
  8
TEXT
 10
2398.245
 20
3516.529
 30
0.0
 40
277.667
 50
0.0
  1
3
  0
TEXT
  8
TEXT
 10
2901.105
 20
2618.344
 30
0.0
 40
100.0
 50
90.0
  1
833x2119
  0
TEXT
  8
TEXT
 10
1560.245
 20
3516.529
 30
0.0
 40
277.667
 50
0.0
  1
3
  0
TEXT
  8
TEXT
 10
2063.105
 20
2618.344
 30
0.0
 40
100.0
 50
90.0
  1
833x2119
  0
TEXT
  8
TEXT
 10
722.245
 20
3516.529
 30
0.0
 40
277.667
 50
0.0
  1
3
  0
TEXT
  8
TEXT
 10
1225.105
 20
2618.344
 30
0.0
 40
100.0
 50
90.0
  1
833x2119
  0
TEXT
  8
TEXT
 10
180.667
 20
3570.5
 30
0.0
 40
136.0
 50
0.0
  1
1
  0
TEXT
  8
TEXT
 10
393.751
 20
2616.108
 30
0.0
 40
100.0
 50
90.0
  1
408x2085
  0
TEXT
  8
TEXT
 10
3157.834
 20
4944.737
 30
0.0
 40
133.863
 50
0.0
  1
A2
  0
TEXT
  8
TEXT
 10
2398.245
 20
920.529
 30
0.0
 40
277.667
 50
0.0
  1
3
  0
TEXT
  8
TEXT
 10
2901.105
 20
22.344
 30
0.0
 40
100.0
 50
90.0
  1
833x2119
  0
TEXT
  8
TEXT
 10
1560.245
 20
920.529
 30
0.0
 40
277.667
 50
0.0
  1
3
  0
TEXT
  8
TEXT
 10
2063.105
 20
22.344
 30
0.0
 40
100.0
 50
90.0
  1
833x2119
  0
TEXT
  8
TEXT
 10
722.245
 20
920.529
 30
0.0
 40
277.667
 50
0.0
  1
3
  0
TEXT
  8
TEXT
 10
1225.105
 20
22.344
 30
0.0
 40
100.0
 50
90.0
  1
833x2119
  0
TEXT
  8
TEXT
 10
180.667
 20
974.5
 30
0.0
 40
136.0
 50
0.0
  1
1
  0
TEXT
  8
TEXT
 10
393.751
 20
20.108
 30
0.0
 40
100.0
 50
90.0
  1
408x2085
  0
TEXT
  8
TEXT
 10
3157.834
 20
2331.918
 30
0.0
 40
167.5
 50
0.0
  1
A1
  0
TEXT
  8
QUOTATURA
 10
-554.511
 20
1050.0
 30
0.0
 40
100.0
 50
0.0
  1
2200
  0
TEXT
  8
QUOTATURA
 10
1343.135
 20
-296.36
 30
0.0
 40
100.0
 50
0.0
  1
3050
  0
ENDSEC
  0
EOF
