0
SECTION
2
HEADER
9
$ACADVER
1
AC1009
9
$INSUNITS
70
4
0
ENDSEC
0
SECTION
2
TABLES
0
TABLE
2
LAYER
70
6
0
LAYER
2
RIF_CAPOTELAIO
70
0
62
8
6
CONTINUOUS
0
LAYER
2
RIF_MURO
70
0
62
5
6
CONTINUOUS
0
LAYER
2
RIF_ANTA
70
0
62
3
6
CONTINUOUS
0
LAYER
2
RIF_QUOTE
70
0
62
1
6
CONTINUOUS
0
LAYER
2
TRAVERSO_DA_TRACCIARE
70
0
62
2
6
CONTINUOUS
0
LAYER
2
_NOTA
70
0
62
7
6
CONTINUOUS
0
ENDTAB
0
ENDSEC
0
SECTION
2
ENTITIES
0
POLYLINE
8
RIF_CAPOTELAIO
66
1
70
1
10
0.0
20
0.0
30
0.0
0
VERTEX
8
RIF_CAPOTELAIO
10
-78.0000
20
2091.5000
30
0.0
0
VERTEX
8
RIF_CAPOTELAIO
10
-4.2000
20
2091.5000
30
0.0
0
VERTEX
8
RIF_CAPOTELAIO
10
-4.1650
20
2091.5010
30
0.0
0
VERTEX
8
RIF_CAPOTELAIO
10
-4.1300
20
2091.5020
30
0.0
0
VERTEX
8
RIF_CAPOTELAIO
10
-4.0960
20
2091.5050
30
0.0
0
VERTEX
8
RIF_CAPOTELAIO
10
-4.0610
20
2091.5100
30
0.0
0
VERTEX
8
RIF_CAPOTELAIO
10
-4.0260
20
2091.5150
30
0.0
0
VERTEX
8
RIF_CAPOTELAIO
10
-3.9920
20
2091.5220
30
0.0
0
VERTEX
8
RIF_CAPOTELAIO
10
-3.9580
20
2091.5300
30
0.0
0
VERTEX
8
RIF_CAPOTELAIO
10
-3.9240
20
2091.5390
30
0.0
0
VERTEX
8
RIF_CAPOTELAIO
10
-3.8910
20
2091.5490
30
0.0
0
VERTEX
8
RIF_CAPOTELAIO
10
-3.8580
20
2091.5600
30
0.0
0
VERTEX
8
RIF_CAPOTELAIO
10
-3.8250
20
2091.5730
30
0.0
0
VERTEX
8
RIF_CAPOTELAIO
10
-3.7930
20
2091.5860
30
0.0
0
VERTEX
8
RIF_CAPOTELAIO
10
-3.7620
20
2091.6010
30
0.0
0
VERTEX
8
RIF_CAPOTELAIO
10
-3.7310
20
2091.6170
30
0.0
0
VERTEX
8
RIF_CAPOTELAIO
10
-3.7000
20
2091.6340
30
0.0
0
VERTEX
8
RIF_CAPOTELAIO
10
-3.6700
20
2091.6520
30
0.0
0
VERTEX
8
RIF_CAPOTELAIO
10
-3.6410
20
2091.6710
30
0.0
0
VERTEX
8
RIF_CAPOTELAIO
10
-3.6120
20
2091.6910
30
0.0
0
VERTEX
8
RIF_CAPOTELAIO
10
-3.5840
20
2091.7120
30
0.0
0
VERTEX
8
RIF_CAPOTELAIO
10
-3.5570
20
2091.7340
30
0.0
0
VERTEX
8
RIF_CAPOTELAIO
10
-3.5310
20
2091.7570
30
0.0
0
VERTEX
8
RIF_CAPOTELAIO
10
-3.5050
20
2091.7810
30
0.0
0
VERTEX
8
RIF_CAPOTELAIO
10
-3.4810
20
2091.8050
30
0.0
0
VERTEX
8
RIF_CAPOTELAIO
10
-3.4570
20
2091.8310
30
0.0
0
VERTEX
8
RIF_CAPOTELAIO
10
-3.4340
20
2091.8570
30
0.0
0
VERTEX
8
RIF_CAPOTELAIO
10
-3.4120
20
2091.8840
30
0.0
0
VERTEX
8
RIF_CAPOTELAIO
10
-3.3910
20
2091.9120
30
0.0
0
VERTEX
8
RIF_CAPOTELAIO
10
-3.3710
20
2091.9410
30
0.0
0
VERTEX
8
RIF_CAPOTELAIO
10
-3.3520
20
2091.9700
30
0.0
0
VERTEX
8
RIF_CAPOTELAIO
10
-3.3340
20
2092.0000
30
0.0
0
VERTEX
8
RIF_CAPOTELAIO
10
-3.3170
20
2092.0310
30
0.0
0
VERTEX
8
RIF_CAPOTELAIO
10
-3.3010
20
2092.0620
30
0.0
0
VERTEX
8
RIF_CAPOTELAIO
10
-3.2870
20
2092.0930
30
0.0
0
VERTEX
8
RIF_CAPOTELAIO
10
-3.2730
20
2092.1250
30
0.0
0
VERTEX
8
RIF_CAPOTELAIO
10
-3.2600
20
2092.1580
30
0.0
0
VERTEX
8
RIF_CAPOTELAIO
10
-3.2490
20
2092.1910
30
0.0
0
VERTEX
8
RIF_CAPOTELAIO
10
-3.2390
20
2092.2240
30
0.0
0
VERTEX
8
RIF_CAPOTELAIO
10
-3.2300
20
2092.2580
30
0.0
0
VERTEX
8
RIF_CAPOTELAIO
10
-3.2220
20
2092.2920
30
0.0
0
VERTEX
8
RIF_CAPOTELAIO
10
-3.2150
20
2092.3260
30
0.0
0
VERTEX
8
RIF_CAPOTELAIO
10
-3.2100
20
2092.3610
30
0.0
0
VERTEX
8
RIF_CAPOTELAIO
10
-3.2060
20
2092.3950
30
0.0
0
VERTEX
8
RIF_CAPOTELAIO
10
-3.2030
20
2092.4300
30
0.0
0
VERTEX
8
RIF_CAPOTELAIO
10
-3.2010
20
2092.4650
30
0.0
0
VERTEX
8
RIF_CAPOTELAIO
10
-3.2000
20
2092.5000
30
0.0
0
VERTEX
8
RIF_CAPOTELAIO
10
0.3000
20
2102.0000
30
0.0
0
VERTEX
8
RIF_CAPOTELAIO
10
27.0000
20
2102.0000
30
0.0
0
VERTEX
8
RIF_CAPOTELAIO
10
27.1050
20
2102.0020
30
0.0
0
VERTEX
8
RIF_CAPOTELAIO
10
27.2090
20
2102.0070
30
0.0
0
VERTEX
8
RIF_CAPOTELAIO
10
27.3130
20
2102.0160
30
0.0
0
VERTEX
8
RIF_CAPOTELAIO
10
27.4170
20
2102.0290
30
0.0
0
VERTEX
8
RIF_CAPOTELAIO
10
27.5210
20
2102.0460
30
0.0
0
VERTEX
8
RIF_CAPOTELAIO
10
27.6240
20
2102.0660
30
0.0
0
VERTEX
8
RIF_CAPOTELAIO
10
27.7260
20
2102.0890
30
0.0
0
VERTEX
8
RIF_CAPOTELAIO
10
27.8270
20
2102.1160
30
0.0
0
VERTEX
8
RIF_CAPOTELAIO
10
27.9270
20
2102.1470
30
0.0
0
VERTEX
8
RIF_CAPOTELAIO
10
28.0260
20
2102.1810
30
0.0
0
VERTEX
8
RIF_CAPOTELAIO
10
28.1240
20
2102.2180
30
0.0
0
VERTEX
8
RIF_CAPOTELAIO
10
28.2200
20
2102.2590
30
0.0
0
VERTEX
8
RIF_CAPOTELAIO
10
28.3150
20
2102.3040
30
0.0
0
VERTEX
8
RIF_CAPOTELAIO
10
28.4080
20
2102.3510
30
0.0
0
VERTEX
8
RIF_CAPOTELAIO
10
28.5000
20
2102.4020
30
0.0
0
VERTEX
8
RIF_CAPOTELAIO
10
28.5900
20
2102.4560
30
0.0
0
VERTEX
8
RIF_CAPOTELAIO
10
28.6770
20
2102.5130
30
0.0
0
VERTEX
8
RIF_CAPOTELAIO
10
28.7630
20
2102.5730
30
0.0
0
VERTEX
8
RIF_CAPOTELAIO
10
28.8470
20
2102.6360
30
0.0
0
VERTEX
8
RIF_CAPOTELAIO
10
28.9280
20
2102.7020
30
0.0
0
VERTEX
8
RIF_CAPOTELAIO
10
29.0070
20
2102.7710
30
0.0
0
VERTEX
8
RIF_CAPOTELAIO
10
29.0840
20
2102.8420
30
0.0
0
VERTEX
8
RIF_CAPOTELAIO
10
29.1580
20
2102.9160
30
0.0
0
VERTEX
8
RIF_CAPOTELAIO
10
29.2290
20
2102.9930
30
0.0
0
VERTEX
8
RIF_CAPOTELAIO
10
29.2980
20
2103.0720
30
0.0
0
VERTEX
8
RIF_CAPOTELAIO
10
29.3640
20
2103.1530
30
0.0
0
VERTEX
8
RIF_CAPOTELAIO
10
29.4270
20
2103.2370
30
0.0
0
VERTEX
8
RIF_CAPOTELAIO
10
29.4870
20
2103.3220
30
0.0
0
VERTEX
8
RIF_CAPOTELAIO
10
29.5440
20
2103.4100
30
0.0
0
VERTEX
8
RIF_CAPOTELAIO
10
29.5980
20
2103.5000
30
0.0
0
VERTEX
8
RIF_CAPOTELAIO
10
29.6490
20
2103.5920
30
0.0
0
VERTEX
8
RIF_CAPOTELAIO
10
29.6960
20
2103.6850
30
0.0
0
VERTEX
8
RIF_CAPOTELAIO
10
29.7410
20
2103.7800
30
0.0
0
VERTEX
8
RIF_CAPOTELAIO
10
29.7810
20
2103.8760
30
0.0
0
VERTEX
8
RIF_CAPOTELAIO
10
29.8190
20
2103.9740
30
0.0
0
VERTEX
8
RIF_CAPOTELAIO
10
29.8530
20
2104.0730
30
0.0
0
VERTEX
8
RIF_CAPOTELAIO
10
29.8840
20
2104.1730
30
0.0
0
VERTEX
8
RIF_CAPOTELAIO
10
29.9110
20
2104.2740
30
0.0
0
VERTEX
8
RIF_CAPOTELAIO
10
29.9340
20
2104.3760
30
0.0
0
VERTEX
8
RIF_CAPOTELAIO
10
29.9540
20
2104.4790
30
0.0
0
VERTEX
8
RIF_CAPOTELAIO
10
29.9710
20
2104.5820
30
0.0
0
VERTEX
8
RIF_CAPOTELAIO
10
29.9830
20
2104.6860
30
0.0
0
VERTEX
8
RIF_CAPOTELAIO
10
29.9930
20
2104.7910
30
0.0
0
VERTEX
8
RIF_CAPOTELAIO
10
29.9980
20
2104.8950
30
0.0
0
VERTEX
8
RIF_CAPOTELAIO
10
30.0000
20
2105.0000
30
0.0
0
VERTEX
8
RIF_CAPOTELAIO
10
30.0000
20
2126.5000
30
0.0
0
VERTEX
8
RIF_CAPOTELAIO
10
-97.4640
20
2126.5000
30
0.0
0
VERTEX
8
RIF_CAPOTELAIO
10
-97.3920
20
2126.3800
30
0.0
0
VERTEX
8
RIF_CAPOTELAIO
10
-97.3160
20
2126.2630
30
0.0
0
VERTEX
8
RIF_CAPOTELAIO
10
-97.2360
20
2126.1490
30
0.0
0
VERTEX
8
RIF_CAPOTELAIO
10
-97.1520
20
2126.0370
30
0.0
0
VERTEX
8
RIF_CAPOTELAIO
10
-97.0640
20
2125.9290
30
0.0
0
VERTEX
8
RIF_CAPOTELAIO
10
-96.9730
20
2125.8230
30
0.0
0
VERTEX
8
RIF_CAPOTELAIO
10
-96.8780
20
2125.7210
30
0.0
0
VERTEX
8
RIF_CAPOTELAIO
10
-96.7790
20
2125.6230
30
0.0
0
VERTEX
8
RIF_CAPOTELAIO
10
-96.6770
20
2125.5270
30
0.0
0
VERTEX
8
RIF_CAPOTELAIO
10
-96.5710
20
2125.4360
30
0.0
0
VERTEX
8
RIF_CAPOTELAIO
10
-96.4630
20
2125.3480
30
0.0
0
VERTEX
8
RIF_CAPOTELAIO
10
-96.3510
20
2125.2640
30
0.0
0
VERTEX
8
RIF_CAPOTELAIO
10
-96.2370
20
2125.1840
30
0.0
0
VERTEX
8
RIF_CAPOTELAIO
10
-96.1200
20
2125.1080
30
0.0
0
VERTEX
8
RIF_CAPOTELAIO
10
-96.0000
20
2125.0360
30
0.0
0
VERTEX
8
RIF_CAPOTELAIO
10
-95.8780
20
2124.9680
30
0.0
0
VERTEX
8
RIF_CAPOTELAIO
10
-95.7540
20
2124.9050
30
0.0
0
VERTEX
8
RIF_CAPOTELAIO
10
-95.6270
20
2124.8460
30
0.0
0
VERTEX
8
RIF_CAPOTELAIO
10
-95.4990
20
2124.7910
30
0.0
0
VERTEX
8
RIF_CAPOTELAIO
10
-95.3680
20
2124.7410
30
0.0
0
VERTEX
8
RIF_CAPOTELAIO
10
-95.2360
20
2124.6960
30
0.0
0
VERTEX
8
RIF_CAPOTELAIO
10
-95.1030
20
2124.6550
30
0.0
0
VERTEX
8
RIF_CAPOTELAIO
10
-94.9680
20
2124.6190
30
0.0
0
VERTEX
8
RIF_CAPOTELAIO
10
-94.8320
20
2124.5870
30
0.0
0
VERTEX
8
RIF_CAPOTELAIO
10
-94.6950
20
2124.5610
30
0.0
0
VERTEX
8
RIF_CAPOTELAIO
10
-94.5570
20
2124.5390
30
0.0
0
VERTEX
8
RIF_CAPOTELAIO
10
-94.4180
20
2124.5220
30
0.0
0
VERTEX
8
RIF_CAPOTELAIO
10
-94.2790
20
2124.5100
30
0.0
0
VERTEX
8
RIF_CAPOTELAIO
10
-94.1400
20
2124.5020
30
0.0
0
VERTEX
8
RIF_CAPOTELAIO
10
-94.0000
20
2124.5000
30
0.0
0
VERTEX
8
RIF_CAPOTELAIO
10
-88.0000
20
2124.5000
30
0.0
0
VERTEX
8
RIF_CAPOTELAIO
10
-88.0000
20
2101.5000
30
0.0
0
VERTEX
8
RIF_CAPOTELAIO
10
-87.9940
20
2101.1510
30
0.0
0
VERTEX
8
RIF_CAPOTELAIO
10
-87.9760
20
2100.8020
30
0.0
0
VERTEX
8
RIF_CAPOTELAIO
10
-87.9450
20
2100.4550
30
0.0
0
VERTEX
8
RIF_CAPOTELAIO
10
-87.9030
20
2100.1080
30
0.0
0
VERTEX
8
RIF_CAPOTELAIO
10
-87.8480
20
2099.7640
30
0.0
0
VERTEX
8
RIF_CAPOTELAIO
10
-87.7820
20
2099.4210
30
0.0
0
VERTEX
8
RIF_CAPOTELAIO
10
-87.7030
20
2099.0810
30
0.0
0
VERTEX
8
RIF_CAPOTELAIO
10
-87.6130
20
2098.7440
30
0.0
0
VERTEX
8
RIF_CAPOTELAIO
10
-87.5110
20
2098.4100
30
0.0
0
VERTEX
8
RIF_CAPOTELAIO
10
-87.3970
20
2098.0800
30
0.0
0
VERTEX
8
RIF_CAPOTELAIO
10
-87.2720
20
2097.7540
30
0.0
0
VERTEX
8
RIF_CAPOTELAIO
10
-87.1360
20
2097.4330
30
0.0
0
VERTEX
8
RIF_CAPOTELAIO
10
-86.9880
20
2097.1160
30
0.0
0
VERTEX
8
RIF_CAPOTELAIO
10
-86.8300
20
2096.8050
30
0.0
0
VERTEX
8
RIF_CAPOTELAIO
10
-86.6600
20
2096.5000
30
0.0
0
VERTEX
8
RIF_CAPOTELAIO
10
-86.4810
20
2096.2010
30
0.0
0
VERTEX
8
RIF_CAPOTELAIO
10
-86.2910
20
2095.9080
30
0.0
0
VERTEX
8
RIF_CAPOTELAIO
10
-86.0900
20
2095.6220
30
0.0
0
VERTEX
8
RIF_CAPOTELAIO
10
-85.8800
20
2095.3430
30
0.0
0
VERTEX
8
RIF_CAPOTELAIO
10
-85.6610
20
2095.0720
30
0.0
0
VERTEX
8
RIF_CAPOTELAIO
10
-85.4320
20
2094.8090
30
0.0
0
VERTEX
8
RIF_CAPOTELAIO
10
-85.1940
20
2094.5530
30
0.0
0
VERTEX
8
RIF_CAPOTELAIO
10
-84.9470
20
2094.3070
30
0.0
0
VERTEX
8
RIF_CAPOTELAIO
10
-84.6910
20
2094.0690
30
0.0
0
VERTEX
8
RIF_CAPOTELAIO
10
-84.4280
20
2093.8400
30
0.0
0
VERTEX
8
RIF_CAPOTELAIO
10
-84.1570
20
2093.6200
30
0.0
0
VERTEX
8
RIF_CAPOTELAIO
10
-83.8780
20
2093.4100
30
0.0
0
VERTEX
8
RIF_CAPOTELAIO
10
-83.5920
20
2093.2100
30
0.0
0
VERTEX
8
RIF_CAPOTELAIO
10
-83.2990
20
2093.0200
30
0.0
0
VERTEX
8
RIF_CAPOTELAIO
10
-83.0000
20
2092.8400
30
0.0
0
VERTEX
8
RIF_CAPOTELAIO
10
-82.6950
20
2092.6710
30
0.0
0
VERTEX
8
RIF_CAPOTELAIO
10
-82.3840
20
2092.5120
30
0.0
0
VERTEX
8
RIF_CAPOTELAIO
10
-82.0680
20
2092.3650
30
0.0
0
VERTEX
8
RIF_CAPOTELAIO
10
-81.7460
20
2092.2280
30
0.0
0
VERTEX
8
RIF_CAPOTELAIO
10
-81.4200
20
2092.1030
30
0.0
0
VERTEX
8
RIF_CAPOTELAIO
10
-81.0900
20
2091.9890
30
0.0
0
VERTEX
8
RIF_CAPOTELAIO
10
-80.7570
20
2091.8870
30
0.0
0
VERTEX
8
RIF_CAPOTELAIO
10
-80.4190
20
2091.7970
30
0.0
0
VERTEX
8
RIF_CAPOTELAIO
10
-80.0790
20
2091.7190
30
0.0
0
VERTEX
8
RIF_CAPOTELAIO
10
-79.7370
20
2091.6520
30
0.0
0
VERTEX
8
RIF_CAPOTELAIO
10
-79.3920
20
2091.5970
30
0.0
0
VERTEX
8
RIF_CAPOTELAIO
10
-79.0450
20
2091.5550
30
0.0
0
VERTEX
8
RIF_CAPOTELAIO
10
-78.6980
20
2091.5240
30
0.0
0
VERTEX
8
RIF_CAPOTELAIO
10
-78.3490
20
2091.5060
30
0.0
0
SEQEND
8
RIF_CAPOTELAIO
0
LINE
8
RIF_MURO
10
-88.0000
20
1891.5000
30
0.0
11
-88.0000
21
2426.5000
31
0.0
0
LINE
8
RIF_MURO
10
30.0000
20
1891.5000
30
0.0
11
30.0000
21
2426.5000
31
0.0
0
TEXT
8
_NOTA
10
-92.0000
20
1876.5000
30
0.0
40
11.00
1
muro z0=-88
0
TEXT
8
_NOTA
10
26.0000
20
1876.5000
30
0.0
40
11.00
1
muro z1=30
0
POLYLINE
8
RIF_ANTA
66
1
70
1
10
0.0
20
0.0
30
0.0
0
VERTEX
8
RIF_ANTA
10
-22.5000
20
1942.5000
30
0.0
0
VERTEX
8
RIF_ANTA
10
22.5000
20
1942.5000
30
0.0
0
VERTEX
8
RIF_ANTA
10
22.5000
20
2122.5000
30
0.0
0
VERTEX
8
RIF_ANTA
10
-22.5000
20
2122.5000
30
0.0
0
SEQEND
8
RIF_ANTA
0
TEXT
8
_NOTA
10
30.0000
20
2022.5000
30
0.0
40
11.00
1
ANTA 45 mm - canto alto y=2122.5
0
LINE
8
RIF_QUOTE
10
-178.0000
20
2126.5000
30
0.0
11
120.0000
21
2126.5000
31
0.0
0
TEXT
8
_NOTA
10
125.0000
20
2121.5000
30
0.0
40
11.00
1
y=2126.5  ALTO DEL VANO DE LA PUERTA
0
LINE
8
RIF_QUOTE
10
-178.0000
20
2091.5000
30
0.0
11
120.0000
21
2091.5000
31
0.0
0
TEXT
8
_NOTA
10
125.0000
20
2086.5000
30
0.0
40
11.00
1
y=2091.5  hasta aqui baja el forro actual
0
POLYLINE
8
TRAVERSO_DA_TRACCIARE
66
1
70
1
10
0.0
20
0.0
30
0.0
0
VERTEX
8
TRAVERSO_DA_TRACCIARE
10
-88.0000
20
2126.5000
30
0.0
0
VERTEX
8
TRAVERSO_DA_TRACCIARE
10
30.0000
20
2126.5000
30
0.0
0
VERTEX
8
TRAVERSO_DA_TRACCIARE
10
30.0000
20
2221.5000
30
0.0
0
VERTEX
8
TRAVERSO_DA_TRACCIARE
10
-88.0000
20
2221.5000
30
0.0
0
SEQEND
8
TRAVERSO_DA_TRACCIARE
0
TEXT
8
_NOTA
10
-88.0000
20
2234.5000
30
0.0
40
13.00
1
TRAZAR AQUI EL TRAVERSO -- la caja es orientativa, no un limite
0
TEXT
8
_NOTA
10
-88.0000
20
2254.5000
30
0.0
40
11.00
1
Debe cubrir hacia abajo la cabeza de la puerta y hacia arriba
0
TEXT
8
_NOTA
10
-88.0000
20
2271.5000
30
0.0
40
11.00
1
hacer de peana del sopraluce. Puede solaparse con el perfil marron.
0
TEXT
8
_NOTA
10
-88.0000
20
2376.5000
30
0.0
40
15.00
1
TOSCOCORNICI - traverso del sopraluce
0
TEXT
8
_NOTA
10
-88.0000
20
2354.5000
30
0.0
40
11.00
1
Milimetros. X = PROFUNDIDAD (z del motor)   Y = ALTURA
0
TEXT
8
_NOTA
10
-88.0000
20
2336.5000
30
0.0
40
11.00
1
Mismo marco que telaio_alto_imbotto: no mover ni reescalar nada.
0
TEXT
8
_NOTA
10
-88.0000
20
2318.5000
30
0.0
40
11.00
1
Una sola polilinea CERRADA en la capa TRAVERSO_DA_TRACCIARE.
0
TEXT
8
_NOTA
10
-88.0000
20
2300.5000
30
0.0
40
11.00
1
Las capas RIF_* y _NOTA se ignoran al importar.
0
ENDSEC
0
EOF
