<svg xmlns="http://www.w3.org/2000/svg" viewBox="37 -18 98 161" role="img" aria-label=""><style>g{transform-box:view-box;transform-origin:0 0}.l{animation:jv 7s linear infinite}@keyframes jv{0%{transform:matrix(-0.960,0.260,0,1,0,0)}6%{transform:matrix(-1.077,0.315,0,1,0,0)}12%{transform:matrix(-1.121,0.366,0,1,0,0)}18%{transform:matrix(-0.980,0.352,0,1,0,0)}24%{transform:matrix(-0.828,0.318,0,1,0,0)}30%{transform:matrix(-0.828,0.318,0,1,0,0)}38%{transform:matrix(-1.064,0.365,0,1,0,0)}44%{transform:matrix(-1.115,0.338,0,1,0,0)}50%{transform:matrix(-0.960,0.260,0,1,0,0)}56%{transform:matrix(-0.728,0.167,0,1,0,0)}62%{transform:matrix(-0.424,0.058,0,1,0,0)}68%{transform:matrix(-0.255,0.000,0,1,0,0)}74%{transform:matrix(-0.255,0.000,0,1,0,0)}82%{transform:matrix(-0.566,0.108,0,1,0,0)}90%{transform:matrix(-0.867,0.221,0,1,0,0)}100%{transform:matrix(-0.960,0.260,0,1,0,0)}}</style><g style="transform:translate(48px,130px)"><path d="M70.1 -19.0 L73.7 -20.5 L73.7 -132.5 L70.1 -131.0 Z" fill="#e6dccb" stroke="#4a3c30" stroke-width="1.2" stroke-linejoin="round" /><path d="M0.0 -112.0 L76.8 -132.8 L80.4 -134.4 L3.6 -113.6 Z" fill="#f3ede1" stroke="#4a3c30" stroke-width="1.2" stroke-linejoin="round" /><path d="M0.0 0.0 L6.7 -1.8 L6.7 -120.8 L0.0 -119.0 Z" fill="#fdfbf6" stroke="#4a3c30" stroke-width="1.6" stroke-linejoin="round" /><path d="M70.1 -19.0 L76.8 -20.8 L76.8 -139.8 L70.1 -138.0 Z" fill="#fdfbf6" stroke="#4a3c30" stroke-width="1.6" stroke-linejoin="round" /><path d="M0.0 -112.0 L76.8 -132.8 L76.8 -139.8 L0.0 -119.0 Z" fill="#fdfbf6" stroke="#4a3c30" stroke-width="1.6" stroke-linejoin="round" /></g><path d="M54.7 128.2 L50.1 130.3 L46.6 132.0 L44.4 133.4 L43.4 134.5 L43.7 135.1 L45.3 135.3 L48.1 135.1 L52.1 134.5 L57.2 133.4 L63.4 132.0" fill="none" stroke="#8d7d6a" stroke-width="1.3" stroke-dasharray="4 4" opacity=".55"/><path d="M54.7 128.2 L58.0 126.8 L61.7 125.3 L65.7 123.7 L70.1 122.0 L74.7 120.3 L79.6 118.5 L84.7 116.7 L90.1 114.8 L95.6 112.9 L101.3 111.0" fill="none" stroke="#8d7d6a" stroke-width="1.3" stroke-dasharray="4 4" opacity=".55"/><g style="transform:translate(118.1px,-1.0px)"><g class="l"><rect x="0" y="0" width="66" height="112" rx="1" fill="#f0e3c9" stroke="#a8843c" stroke-width="1.6"/></g></g><circle cx="118.1" cy="111.0" r="2.6" fill="#a8843c"/></svg>
