  0
SECTION
  2
ENTITIES
  0
LINE
  8
COSTRUZIONI
 10
0.0
 11
46.0
 20
0.0
 21
0.0
  0
LINE
  8
COSTRUZIONI
 10
46.0
 11
46.0
 20
0.0
 21
11.5
  0
LINE
  8
COSTRUZIONI
 10
46.0
 11
0.0
 20
11.5
 21
11.5
  0
LINE
  8
COSTRUZIONI
 10
0.0
 11
0.0
 20
11.5
 21
0.0
  0
LINE
  8
COSTRUZIONI
 10
0.0
 11
42.0
 20
20.02
 21
20.02
  0
LINE
  8
COSTRUZIONI
 10
42.0
 11
42.0
 20
20.02
 21
31.52
  0
LINE
  8
COSTRUZIONI
 10
42.0
 11
0.0
 20
31.52
 21
31.52
  0
LINE
  8
COSTRUZIONI
 10
0.0
 11
0.0
 20
31.52
 21
20.02
  0
LINE
  8
COSTRUZIONI
 10
46.0
 11
0.0
 20
7.0
 21
7.0
  0
LINE
  8
COSTRUZIONI
 10
7.5
 11
7.5
 20
11.5
 21
0.0
  0
LINE
  8
COSTRUZIONI
 10
9.5
 11
9.5
 20
11.5
 21
0.0
  0
LINE
  8
COSTRUZIONI
 10
17.0
 11
17.0
 20
11.5
 21
0.0
  0
LINE
  8
COSTRUZIONI
 10
15.0
 11
15.0
 20
11.5
 21
0.0
  0
LINE
  8
QUOTATURA
 10
0.0
 11
0.0
 20
-0.5
 21
-2.758
  0
LINE
  8
QUOTATURA
 10
7.5
 11
7.5
 20
-0.5
 21
-2.758
  0
LINE
  8
QUOTATURA
 10
0.0
 11
2.54
 20
-2.258
 21
-2.258
  0
LINE
  8
QUOTATURA
 10
4.96
 11
7.5
 20
-2.258
 21
-2.258
  0
LINE
  8
QUOTATURA
 10
1.0
 11
0.0
 20
-2.425
 21
-2.258
  0
LINE
  8
QUOTATURA
 10
0.0
 11
1.0
 20
-2.258
 21
-2.092
  0
LINE
  8
QUOTATURA
 10
1.0
 11
1.0
 20
-2.092
 21
-2.425
  0
LINE
  8
QUOTATURA
 10
6.5
 11
7.5
 20
-2.092
 21
-2.258
  0
LINE
  8
QUOTATURA
 10
7.5
 11
6.5
 20
-2.258
 21
-2.425
  0
LINE
  8
QUOTATURA
 10
6.5
 11
6.5
 20
-2.425
 21
-2.092
  0
LINE
  8
QUOTATURA
 10
7.5
 11
6.305
 20
-0.879
 21
-0.879
  0
LINE
  8
QUOTATURA
 10
6.5
 11
7.5
 20
-0.712
 21
-0.879
  0
LINE
  8
QUOTATURA
 10
7.5
 11
6.5
 20
-0.879
 21
-1.046
  0
LINE
  8
QUOTATURA
 10
6.5
 11
6.5
 20
-1.046
 21
-0.712
  0
LINE
  8
QUOTATURA
 10
9.5
 11
11.5
 20
-0.879
 21
-0.879
  0
LINE
  8
QUOTATURA
 10
10.5
 11
9.5
 20
-1.046
 21
-0.879
  0
LINE
  8
QUOTATURA
 10
9.5
 11
10.5
 20
-0.879
 21
-0.712
  0
LINE
  8
QUOTATURA
 10
10.5
 11
10.5
 20
-0.712
 21
-1.046
  0
LINE
  8
QUOTATURA
 10
9.5
 11
9.5
 20
-0.5
 21
-3.014
  0
LINE
  8
QUOTATURA
 10
17.0
 11
17.0
 20
-0.5
 21
-3.014
  0
LINE
  8
QUOTATURA
 10
9.5
 11
12.04
 20
-2.514
 21
-2.514
  0
LINE
  8
QUOTATURA
 10
14.46
 11
17.0
 20
-2.514
 21
-2.514
  0
LINE
  8
QUOTATURA
 10
10.5
 11
9.5
 20
-2.681
 21
-2.514
  0
LINE
  8
QUOTATURA
 10
9.5
 11
10.5
 20
-2.514
 21
-2.347
  0
LINE
  8
QUOTATURA
 10
10.5
 11
10.5
 20
-2.347
 21
-2.681
  0
LINE
  8
QUOTATURA
 10
16.0
 11
17.0
 20
-2.347
 21
-2.514
  0
LINE
  8
QUOTATURA
 10
17.0
 11
16.0
 20
-2.514
 21
-2.681
  0
LINE
  8
QUOTATURA
 10
16.0
 11
16.0
 20
-2.681
 21
-2.347
  0
LINE
  8
QUOTATURA
 10
15.0
 11
13.611
 20
-0.879
 21
-0.879
  0
LINE
  8
QUOTATURA
 10
14.0
 11
15.0
 20
-0.712
 21
-0.879
  0
LINE
  8
QUOTATURA
 10
15.0
 11
14.0
 20
-0.879
 21
-1.046
  0
LINE
  8
QUOTATURA
 10
14.0
 11
14.0
 20
-1.046
 21
-0.712
  0
LINE
  8
QUOTATURA
 10
17.0
 11
19.0
 20
-0.879
 21
-0.879
  0
LINE
  8
QUOTATURA
 10
18.0
 11
17.0
 20
-1.046
 21
-0.879
  0
LINE
  8
QUOTATURA
 10
17.0
 11
18.0
 20
-0.879
 21
-0.712
  0
LINE
  8
QUOTATURA
 10
18.0
 11
18.0
 20
-0.712
 21
-1.046
  0
LINE
  8
COSTRUZIONI
 10
21.0
 11
21.0
 20
11.5
 21
0.0
  0
LINE
  8
QUOTATURA
 10
21.0
 11
21.0
 20
-0.5
 21
-2.707
  0
LINE
  8
QUOTATURA
 10
17.0
 11
18.333
 20
-2.207
 21
-2.207
  0
LINE
  8
QUOTATURA
 10
19.667
 11
21.0
 20
-2.207
 21
-2.207
  0
LINE
  8
QUOTATURA
 10
18.0
 11
17.0
 20
-2.374
 21
-2.207
  0
LINE
  8
QUOTATURA
 10
17.0
 11
18.0
 20
-2.207
 21
-2.041
  0
LINE
  8
QUOTATURA
 10
18.0
 11
18.0
 20
-2.041
 21
-2.374
  0
LINE
  8
QUOTATURA
 10
20.0
 11
21.0
 20
-2.041
 21
-2.207
  0
LINE
  8
QUOTATURA
 10
21.0
 11
20.0
 20
-2.207
 21
-2.374
  0
LINE
  8
QUOTATURA
 10
20.0
 11
20.0
 20
-2.374
 21
-2.041
  0
LINE
  8
QUOTATURA
 10
0.0
 11
0.0
 20
12.0
 21
13.621
  0
LINE
  8
QUOTATURA
 10
46.0
 11
46.0
 20
12.0
 21
13.621
  0
LINE
  8
QUOTATURA
 10
0.0
 11
21.89
 20
13.121
 21
13.121
  0
LINE
  8
QUOTATURA
 10
24.11
 11
46.0
 20
13.121
 21
13.121
  0
LINE
  8
QUOTATURA
 10
1.0
 11
0.0
 20
12.954
 21
13.121
  0
LINE
  8
QUOTATURA
 10
0.0
 11
1.0
 20
13.121
 21
13.287
  0
LINE
  8
QUOTATURA
 10
1.0
 11
1.0
 20
13.287
 21
12.954
  0
LINE
  8
QUOTATURA
 10
45.0
 11
46.0
 20
13.287
 21
13.121
  0
LINE
  8
QUOTATURA
 10
46.0
 11
45.0
 20
13.121
 21
12.954
  0
LINE
  8
QUOTATURA
 10
45.0
 11
45.0
 20
12.954
 21
13.287
  0
LINE
  8
COSTRUZIONI
 10
39.0
 11
39.0
 20
0.0
 21
11.5
  0
LINE
  8
COSTRUZIONI
 10
41.0
 11
41.0
 20
0.0
 21
11.5
  0
LINE
  8
QUOTATURA
 10
39.0
 11
39.0
 20
-0.5
 21
-2.094
  0
LINE
  8
QUOTATURA
 10
46.0
 11
46.0
 20
-0.5
 21
-2.094
  0
LINE
  8
QUOTATURA
 10
39.0
 11
41.889
 20
-1.594
 21
-1.594
  0
LINE
  8
QUOTATURA
 10
43.111
 11
46.0
 20
-1.594
 21
-1.594
  0
LINE
  8
QUOTATURA
 10
40.0
 11
39.0
 20
-1.761
 21
-1.594
  0
LINE
  8
QUOTATURA
 10
39.0
 11
40.0
 20
-1.594
 21
-1.427
  0
LINE
  8
QUOTATURA
 10
40.0
 11
40.0
 20
-1.427
 21
-1.761
  0
LINE
  8
QUOTATURA
 10
45.0
 11
46.0
 20
-1.427
 21
-1.594
  0
LINE
  8
QUOTATURA
 10
46.0
 11
45.0
 20
-1.594
 21
-1.761
  0
LINE
  8
QUOTATURA
 10
45.0
 11
45.0
 20
-1.761
 21
-1.427
  0
LINE
  8
QUOTATURA
 10
39.0
 11
36.246
 20
-0.828
 21
-0.828
  0
LINE
  8
QUOTATURA
 10
38.0
 11
39.0
 20
-0.661
 21
-0.828
  0
LINE
  8
QUOTATURA
 10
39.0
 11
38.0
 20
-0.828
 21
-0.994
  0
LINE
  8
QUOTATURA
 10
38.0
 11
38.0
 20
-0.994
 21
-0.661
  0
LINE
  8
QUOTATURA
 10
41.0
 11
43.0
 20
-0.828
 21
-0.828
  0
LINE
  8
QUOTATURA
 10
42.0
 11
41.0
 20
-0.994
 21
-0.828
  0
LINE
  8
QUOTATURA
 10
41.0
 11
42.0
 20
-0.828
 21
-0.661
  0
LINE
  8
QUOTATURA
 10
42.0
 11
42.0
 20
-0.661
 21
-0.994
  0
LINE
  8
COSTRUZIONI
 10
0.0
 11
46.0
 20
1.0
 21
1.0
  0
LINE
  8
QUOTATURA
 10
46.5
 11
49.334
 20
0.0
 21
0.0
  0
LINE
  8
QUOTATURA
 10
46.5
 11
49.334
 20
11.5
 21
11.5
  0
LINE
  8
QUOTATURA
 10
48.834
 11
48.834
 20
0.0
 21
4.992
  0
LINE
  8
QUOTATURA
 10
48.834
 11
48.834
 20
6.5
 21
11.5
  0
LINE
  8
QUOTATURA
 10
49.0
 11
48.834
 20
1.0
 21
0.0
  0
LINE
  8
QUOTATURA
 10
48.834
 11
48.667
 20
0.0
 21
1.0
  0
LINE
  8
QUOTATURA
 10
48.667
 11
49.0
 20
1.0
 21
1.0
  0
LINE
  8
QUOTATURA
 10
48.667
 11
48.834
 20
10.5
 21
11.5
  0
LINE
  8
QUOTATURA
 10
48.834
 11
49.0
 20
11.5
 21
10.5
  0
LINE
  8
QUOTATURA
 10
49.0
 11
48.667
 20
10.5
 21
10.5
  0
LINE
  8
QUOTATURA
 10
0.0
 11
0.0
 20
32.02
 21
33.967
  0
LINE
  8
QUOTATURA
 10
42.0
 11
42.0
 20
32.02
 21
33.967
  0
LINE
  8
QUOTATURA
 10
0.0
 11
19.915
 20
33.467
 21
33.467
  0
LINE
  8
QUOTATURA
 10
22.085
 11
42.0
 20
33.467
 21
33.467
  0
LINE
  8
QUOTATURA
 10
1.0
 11
0.0
 20
33.3
 21
33.467
  0
LINE
  8
QUOTATURA
 10
0.0
 11
1.0
 20
33.467
 21
33.633
  0
LINE
  8
QUOTATURA
 10
1.0
 11
1.0
 20
33.633
 21
33.3
  0
LINE
  8
QUOTATURA
 10
41.0
 11
42.0
 20
33.633
 21
33.467
  0
LINE
  8
QUOTATURA
 10
42.0
 11
41.0
 20
33.467
 21
33.3
  0
LINE
  8
QUOTATURA
 10
41.0
 11
41.0
 20
33.3
 21
33.633
  0
LINE
  8
QUOTATURA
 10
42.5
 11
46.107
 20
20.02
 21
20.02
  0
LINE
  8
QUOTATURA
 10
42.5
 11
46.107
 20
31.52
 21
31.52
  0
LINE
  8
QUOTATURA
 10
45.607
 11
45.607
 20
20.02
 21
25.012
  0
LINE
  8
QUOTATURA
 10
45.607
 11
45.607
 20
26.521
 21
31.52
  0
LINE
  8
QUOTATURA
 10
45.774
 11
45.607
 20
21.02
 21
20.02
  0
LINE
  8
QUOTATURA
 10
45.607
 11
45.44
 20
20.02
 21
21.02
  0
LINE
  8
QUOTATURA
 10
45.44
 11
45.774
 20
21.02
 21
21.02
  0
LINE
  8
QUOTATURA
 10
45.44
 11
45.607
 20
30.52
 21
31.52
  0
LINE
  8
QUOTATURA
 10
45.607
 11
45.774
 20
31.52
 21
30.52
  0
LINE
  8
QUOTATURA
 10
45.774
 11
45.44
 20
30.52
 21
30.52
  0
LINE
  8
COSTRUZIONI
 10
6.0
 11
6.0
 20
20.02
 21
27.02
  0
LINE
  8
COSTRUZIONI
 10
6.0
 11
0.0
 20
27.02
 21
27.02
  0
LINE
  8
COSTRUZIONI
 10
8.0
 11
8.0
 20
31.52
 21
20.02
  0
LINE
  8
COSTRUZIONI
 10
14.5
 11
14.5
 20
31.52
 21
20.02
  0
LINE
  8
COSTRUZIONI
 10
18.5
 11
18.5
 20
31.52
 21
20.02
  0
LINE
  8
COSTRUZIONI
 10
37.0
 11
37.0
 20
20.02
 21
31.52
  0
LINE
  8
COSTRUZIONI
 10
42.0
 11
0.0
 20
31.02
 21
31.02
  0
LINE
  8
APS_GEOMETRY
 10
0.0
 11
7.381
 20
11.5
 21
7.071
  0
ARC
  8
APS_GEOMETRY
 10
7.638
 20
7.5
 40
0.5
 50
239.036
 51
270.0
  0
LINE
  8
APS_GEOMETRY
 10
7.638
 11
9.28
 20
7.0
 21
7.0
  0
ARC
  8
APS_GEOMETRY
 10
9.28
 20
6.5
 40
0.5
 50
42.51
 51
90.0
  0
LINE
  8
APS_GEOMETRY
 10
9.649
 11
14.851
 20
6.838
 21
1.162
  0
ARC
  8
APS_GEOMETRY
 10
15.22
 20
1.5
 40
0.5
 50
222.51
 51
270.0
  0
LINE
  8
APS_GEOMETRY
 10
15.22
 11
16.5
 20
1.0
 21
1.0
  0
ARC
  8
APS_GEOMETRY
 10
16.5
 20
0.5
 40
0.5
 50
360.0
 51
90.0
  0
ARC
  8
APS_GEOMETRY
 10
17.5
 20
0.5
 40
0.5
 50
180.0
 51
270.0
  0
LINE
  8
APS_GEOMETRY
 10
17.5
 11
20.906
 20
0.0
 21
0.0
  0
ARC
  8
APS_GEOMETRY
 10
20.906
 20
0.5
 40
0.5
 50
270.0
 51
291.251
  0
LINE
  8
APS_GEOMETRY
 10
21.087
 11
38.913
 20
0.034
 21
6.966
  0
ARC
  8
APS_GEOMETRY
 10
39.094
 20
6.5
 40
0.5
 50
90.0
 51
111.251
  0
LINE
  8
APS_GEOMETRY
 10
39.094
 11
40.808
 20
7.0
 21
7.0
  0
ARC
  8
APS_GEOMETRY
 10
40.808
 20
7.5
 40
0.5
 50
270.0
 51
311.987
  0
LINE
  8
APS_GEOMETRY
 10
41.143
 11
46.0
 20
7.128
 21
11.5
  0
LINE
  8
APS_GEOMETRY
 10
42.0
 11
37.07
 20
31.52
 21
27.083
  0
ARC
  8
APS_GEOMETRY
 10
36.735
 20
27.455
 40
0.5
 50
290.726
 51
311.987
  0
LINE
  8
APS_GEOMETRY
 10
36.912
 11
18.586
 20
26.987
 21
20.053
  0
ARC
  8
APS_GEOMETRY
 10
18.409
 20
20.52
 40
0.5
 50
270.0
 51
290.726
  0
LINE
  8
APS_GEOMETRY
 10
18.409
 11
14.5
 20
20.02
 21
20.02
  0
ARC
  8
APS_GEOMETRY
 10
14.5
 20
23.279
 40
3.259
 50
175.758
 51
270.0
  0
ARC
  8
APS_GEOMETRY
 10
8.0
 20
23.761
 40
3.259
 50
355.758
 51
90.0
  0
LINE
  8
APS_GEOMETRY
 10
8.0
 11
6.325
 20
27.02
 21
27.02
  0
ARC
  8
APS_GEOMETRY
 10
6.325
 20
27.52
 40
0.5
 50
205.377
 51
270.0
  0
ARC
  8
APS_GEOMETRY
 10
0.0
 20
24.52
 40
6.5
 50
25.377
 51
90.0
  0
LINE
  8
APS_GEOMETRY
 10
0.0
 11
0.0
 20
31.02
 21
31.52
  0
TEXT
  8
TEXT
 10
0.734
 20
-6.984
 30
0.0
 40
2.0
 50
0.0
  1
LACCATO LISCIO (TLS1,2,3,4)
  0
TEXT
  8
TEXT
 10
0.734
 20
15.435
 30
0.0
 40
2.0
 50
0.0
  1
LACCATO PORO APERTO (TLS5)
  0
TEXT
  8
QUOTATURA
 10
2.762
 20
-2.758
 30
0.0
 40
1.0
 50
0.0
  1
7.5
  0
TEXT
  8
QUOTATURA
 10
5.388
 20
-1.379
 30
0.0
 40
1.0
 50
0.0
  1
2
  0
TEXT
  8
QUOTATURA
 10
12.262
 20
-3.014
 30
0.0
 40
1.0
 50
0.0
  1
7.5
  0
TEXT
  8
QUOTATURA
 10
12.695
 20
-1.379
 30
0.0
 40
1.0
 50
0.0
  1
2
  0
TEXT
  8
QUOTATURA
 10
18.553
 20
-2.707
 30
0.0
 40
1.0
 50
0.0
  1
4
  0
TEXT
  8
QUOTATURA
 10
22.11
 20
12.621
 30
0.0
 40
1.0
 50
0.0
  1
46
  0
TEXT
  8
QUOTATURA
 10
42.111
 20
-2.094
 30
0.0
 40
1.0
 50
0.0
  1
7
  0
TEXT
  8
QUOTATURA
 10
35.329
 20
-1.328
 30
0.0
 40
1.0
 50
0.0
  1
2
  0
TEXT
  8
TEXT
 10
-9.691
 20
3.475
 30
0.0
 40
2.0
 50
0.0
  1
esterno
  0
TEXT
  8
TEXT
 10
-9.7
 20
22.116
 30
0.0
 40
2.0
 50
0.0
  1
esterno
  0
TEXT
  8
QUOTATURA
 10
47.778
 20
5.25
 30
0.0
 40
1.0
 50
0.0
  1
11.5
  0
TEXT
  8
QUOTATURA
 10
20.135
 20
32.967
 30
0.0
 40
1.0
 50
0.0
  1
42
  0
TEXT
  8
QUOTATURA
 10
44.551
 20
25.27
 30
0.0
 40
1.0
 50
0.0
  1
11.5
  0
ENDSEC
  0
EOF
