  0
SECTION
  2
ENTITIES
  0
LINE
  8
APS_GEOMETRY
 10
0.0
 11
3050.0
 20
0.0
 21
0.0
  0
LINE
  8
APS_GEOMETRY
 10
3050.0
 11
3050.0
 20
0.0
 21
2200.0
  0
LINE
  8
APS_GEOMETRY
 10
3050.0
 11
0.0
 20
2200.0
 21
2200.0
  0
LINE
  8
APS_GEOMETRY
 10
0.0
 11
0.0
 20
2200.0
 21
0.0
  0
LINE
  8
QUOTATURA
 10
0.0
 11
0.0
 20
-50.0
 21
-173.637
  0
LINE
  8
QUOTATURA
 10
3050.0
 11
3050.0
 20
-50.0
 21
-173.637
  0
LINE
  8
QUOTATURA
 10
0.0
 11
1320.815
 20
-123.637
 21
-123.637
  0
LINE
  8
QUOTATURA
 10
1729.185
 11
3050.0
 20
-123.637
 21
-123.637
  0
LINE
  8
QUOTATURA
 10
100.0
 11
0.0
 20
-140.307
 21
-123.637
  0
LINE
  8
QUOTATURA
 10
0.0
 11
100.0
 20
-123.637
 21
-106.967
  0
LINE
  8
QUOTATURA
 10
100.0
 11
100.0
 20
-106.967
 21
-140.307
  0
LINE
  8
QUOTATURA
 10
2950.0
 11
3050.0
 20
-106.967
 21
-123.637
  0
LINE
  8
QUOTATURA
 10
3050.0
 11
2950.0
 20
-123.637
 21
-140.307
  0
LINE
  8
QUOTATURA
 10
2950.0
 11
2950.0
 20
-140.307
 21
-106.967
  0
LINE
  8
QUOTATURA
 10
-50.0
 11
-256.985
 20
0.0
 21
0.0
  0
LINE
  8
QUOTATURA
 10
-50.0
 11
-256.985
 20
2200.0
 21
2200.0
  0
LINE
  8
QUOTATURA
 10
-206.985
 11
-206.985
 20
0.0
 21
1023.78
  0
LINE
  8
QUOTATURA
 10
-206.985
 11
-206.985
 20
1175.314
 21
2200.0
  0
LINE
  8
QUOTATURA
 10
-190.315
 11
-206.985
 20
100.0
 21
0.0
  0
LINE
  8
QUOTATURA
 10
-206.985
 11
-223.655
 20
0.0
 21
100.0
  0
LINE
  8
QUOTATURA
 10
-223.655
 11
-190.315
 20
100.0
 21
100.0
  0
LINE
  8
QUOTATURA
 10
-223.655
 11
-206.985
 20
2100.0
 21
2200.0
  0
LINE
  8
QUOTATURA
 10
-206.985
 11
-190.315
 20
2200.0
 21
2100.0
  0
LINE
  8
QUOTATURA
 10
-190.315
 11
-223.655
 20
2100.0
 21
2100.0
  0
LINE
  8
QUOTATURA
 10
3050.0
 11
3157.834
 20
2200.0
 21
2307.834
  0
CIRCLE
  8
QUOTATURA
 10
3265.668
 20
2415.668
 40
152.5
  0
LINE
  8
APS_GEOMETRY
 10
673.0
 11
673.0
 20
0.0
 21
2109.0
  0
LINE
  8
APS_GEOMETRY
 10
673.0
 11
0.0
 20
2109.0
 21
2109.0
  0
LINE
  8
APS_GEOMETRY
 10
0.0
 11
0.0
 20
2109.0
 21
0.0
  0
LINE
  8
APS_GEOMETRY
 10
0.0
 11
673.0
 20
0.0
 21
0.0
  0
LINE
  8
APS_GEOMETRY
 10
1450.0
 11
1450.0
 20
0.0
 21
2109.0
  0
LINE
  8
APS_GEOMETRY
 10
1450.0
 11
677.0
 20
2109.0
 21
2109.0
  0
LINE
  8
APS_GEOMETRY
 10
677.0
 11
677.0
 20
2109.0
 21
0.0
  0
LINE
  8
APS_GEOMETRY
 10
677.0
 11
1450.0
 20
0.0
 21
0.0
  0
LINE
  8
APS_GEOMETRY
 10
2227.0
 11
2227.0
 20
0.0
 21
2109.0
  0
LINE
  8
APS_GEOMETRY
 10
2227.0
 11
1454.0
 20
2109.0
 21
2109.0
  0
LINE
  8
APS_GEOMETRY
 10
1454.0
 11
1454.0
 20
2109.0
 21
0.0
  0
LINE
  8
APS_GEOMETRY
 10
1454.0
 11
2227.0
 20
0.0
 21
0.0
  0
LINE
  8
APS_GEOMETRY
 10
3004.0
 11
3004.0
 20
0.0
 21
2109.0
  0
LINE
  8
APS_GEOMETRY
 10
3004.0
 11
2231.0
 20
2109.0
 21
2109.0
  0
LINE
  8
APS_GEOMETRY
 10
2231.0
 11
2231.0
 20
2109.0
 21
0.0
  0
LINE
  8
APS_GEOMETRY
 10
2231.0
 11
3004.0
 20
0.0
 21
0.0
  0
LINE
  8
APS_GEOMETRY
 10
0.0
 11
3050.0
 20
2596.0
 21
2596.0
  0
LINE
  8
APS_GEOMETRY
 10
3050.0
 11
3050.0
 20
2596.0
 21
4796.0
  0
LINE
  8
APS_GEOMETRY
 10
3050.0
 11
0.0
 20
4796.0
 21
4796.0
  0
LINE
  8
APS_GEOMETRY
 10
0.0
 11
0.0
 20
4796.0
 21
2596.0
  0
LINE
  8
QUOTATURA
 10
3050.0
 11
3157.834
 20
4796.0
 21
4903.834
  0
CIRCLE
  8
QUOTATURA
 10
3265.668
 20
5011.668
 40
152.5
  0
LINE
  8
APS_GEOMETRY
 10
673.0
 11
673.0
 20
2596.0
 21
4705.0
  0
LINE
  8
APS_GEOMETRY
 10
673.0
 11
0.0
 20
4705.0
 21
4705.0
  0
LINE
  8
APS_GEOMETRY
 10
0.0
 11
0.0
 20
4705.0
 21
2596.0
  0
LINE
  8
APS_GEOMETRY
 10
0.0
 11
673.0
 20
2596.0
 21
2596.0
  0
LINE
  8
APS_GEOMETRY
 10
1450.0
 11
1450.0
 20
2596.0
 21
4705.0
  0
LINE
  8
APS_GEOMETRY
 10
1450.0
 11
677.0
 20
4705.0
 21
4705.0
  0
LINE
  8
APS_GEOMETRY
 10
677.0
 11
677.0
 20
4705.0
 21
2596.0
  0
LINE
  8
APS_GEOMETRY
 10
677.0
 11
1450.0
 20
2596.0
 21
2596.0
  0
LINE
  8
APS_GEOMETRY
 10
2227.0
 11
2227.0
 20
2596.0
 21
4705.0
  0
LINE
  8
APS_GEOMETRY
 10
2227.0
 11
1454.0
 20
4705.0
 21
4705.0
  0
LINE
  8
APS_GEOMETRY
 10
1454.0
 11
1454.0
 20
4705.0
 21
2596.0
  0
LINE
  8
APS_GEOMETRY
 10
1454.0
 11
2227.0
 20
2596.0
 21
2596.0
  0
LINE
  8
APS_GEOMETRY
 10
3004.0
 11
3004.0
 20
2596.0
 21
4705.0
  0
LINE
  8
APS_GEOMETRY
 10
3004.0
 11
2231.0
 20
4705.0
 21
4705.0
  0
LINE
  8
APS_GEOMETRY
 10
2231.0
 11
2231.0
 20
4705.0
 21
2596.0
  0
LINE
  8
APS_GEOMETRY
 10
2231.0
 11
3004.0
 20
2596.0
 21
2596.0
  0
LINE
  8
APS_GEOMETRY
 10
3599.0
 11
6649.0
 20
2596.0
 21
2596.0
  0
LINE
  8
APS_GEOMETRY
 10
6649.0
 11
6649.0
 20
2596.0
 21
4796.0
  0
LINE
  8
APS_GEOMETRY
 10
6649.0
 11
3599.0
 20
4796.0
 21
4796.0
  0
LINE
  8
APS_GEOMETRY
 10
3599.0
 11
3599.0
 20
4796.0
 21
2596.0
  0
LINE
  8
QUOTATURA
 10
6649.0
 11
6756.834
 20
4796.0
 21
4903.834
  0
CIRCLE
  8
QUOTATURA
 10
6864.668
 20
5011.668
 40
152.5
  0
LINE
  8
APS_GEOMETRY
 10
4272.0
 11
4272.0
 20
2596.0
 21
4705.0
  0
LINE
  8
APS_GEOMETRY
 10
4272.0
 11
3599.0
 20
4705.0
 21
4705.0
  0
LINE
  8
APS_GEOMETRY
 10
3599.0
 11
3599.0
 20
4705.0
 21
2596.0
  0
LINE
  8
APS_GEOMETRY
 10
3599.0
 11
4272.0
 20
2596.0
 21
2596.0
  0
LINE
  8
APS_GEOMETRY
 10
5049.0
 11
5049.0
 20
2596.0
 21
4705.0
  0
LINE
  8
APS_GEOMETRY
 10
5049.0
 11
4276.0
 20
4705.0
 21
4705.0
  0
LINE
  8
APS_GEOMETRY
 10
4276.0
 11
4276.0
 20
4705.0
 21
2596.0
  0
LINE
  8
APS_GEOMETRY
 10
4276.0
 11
5049.0
 20
2596.0
 21
2596.0
  0
LINE
  8
APS_GEOMETRY
 10
5826.0
 11
5826.0
 20
2596.0
 21
4705.0
  0
LINE
  8
APS_GEOMETRY
 10
5826.0
 11
5053.0
 20
4705.0
 21
4705.0
  0
LINE
  8
APS_GEOMETRY
 10
5053.0
 11
5053.0
 20
4705.0
 21
2596.0
  0
LINE
  8
APS_GEOMETRY
 10
5053.0
 11
5826.0
 20
2596.0
 21
2596.0
  0
LINE
  8
APS_GEOMETRY
 10
6603.0
 11
6603.0
 20
2596.0
 21
4705.0
  0
LINE
  8
APS_GEOMETRY
 10
6603.0
 11
5830.0
 20
4705.0
 21
4705.0
  0
LINE
  8
APS_GEOMETRY
 10
5830.0
 11
5830.0
 20
4705.0
 21
2596.0
  0
LINE
  8
APS_GEOMETRY
 10
5830.0
 11
6603.0
 20
2596.0
 21
2596.0
  0
LINE
  8
APS_GEOMETRY
 10
7198.0
 11
10248.0
 20
2596.0
 21
2596.0
  0
LINE
  8
APS_GEOMETRY
 10
10248.0
 11
10248.0
 20
2596.0
 21
4796.0
  0
LINE
  8
APS_GEOMETRY
 10
10248.0
 11
7198.0
 20
4796.0
 21
4796.0
  0
LINE
  8
APS_GEOMETRY
 10
7198.0
 11
7198.0
 20
4796.0
 21
2596.0
  0
LINE
  8
QUOTATURA
 10
10248.0
 11
10355.834
 20
4796.0
 21
4903.834
  0
CIRCLE
  8
QUOTATURA
 10
10463.668
 20
5011.668
 40
152.5
  0
LINE
  8
APS_GEOMETRY
 10
7871.0
 11
7871.0
 20
2596.0
 21
4705.0
  0
LINE
  8
APS_GEOMETRY
 10
7871.0
 11
7198.0
 20
4705.0
 21
4705.0
  0
LINE
  8
APS_GEOMETRY
 10
7198.0
 11
7198.0
 20
4705.0
 21
2596.0
  0
LINE
  8
APS_GEOMETRY
 10
7198.0
 11
7871.0
 20
2596.0
 21
2596.0
  0
LINE
  8
APS_GEOMETRY
 10
8648.0
 11
8648.0
 20
2596.0
 21
4705.0
  0
LINE
  8
APS_GEOMETRY
 10
8648.0
 11
7875.0
 20
4705.0
 21
4705.0
  0
LINE
  8
APS_GEOMETRY
 10
7875.0
 11
7875.0
 20
4705.0
 21
2596.0
  0
LINE
  8
APS_GEOMETRY
 10
7875.0
 11
8648.0
 20
2596.0
 21
2596.0
  0
LINE
  8
APS_GEOMETRY
 10
9425.0
 11
9425.0
 20
2596.0
 21
4705.0
  0
LINE
  8
APS_GEOMETRY
 10
9425.0
 11
8652.0
 20
4705.0
 21
4705.0
  0
LINE
  8
APS_GEOMETRY
 10
8652.0
 11
8652.0
 20
4705.0
 21
2596.0
  0
LINE
  8
APS_GEOMETRY
 10
8652.0
 11
9425.0
 20
2596.0
 21
2596.0
  0
LINE
  8
APS_GEOMETRY
 10
10202.0
 11
10202.0
 20
2596.0
 21
4705.0
  0
LINE
  8
APS_GEOMETRY
 10
10202.0
 11
9429.0
 20
4705.0
 21
4705.0
  0
LINE
  8
APS_GEOMETRY
 10
9429.0
 11
9429.0
 20
4705.0
 21
2596.0
  0
LINE
  8
APS_GEOMETRY
 10
9429.0
 11
10202.0
 20
2596.0
 21
2596.0
  0
LINE
  8
APS_GEOMETRY
 10
10797.0
 11
13847.0
 20
2596.0
 21
2596.0
  0
LINE
  8
APS_GEOMETRY
 10
13847.0
 11
13847.0
 20
2596.0
 21
4796.0
  0
LINE
  8
APS_GEOMETRY
 10
13847.0
 11
10797.0
 20
4796.0
 21
4796.0
  0
LINE
  8
APS_GEOMETRY
 10
10797.0
 11
10797.0
 20
4796.0
 21
2596.0
  0
LINE
  8
QUOTATURA
 10
13847.0
 11
13954.834
 20
4796.0
 21
4903.834
  0
CIRCLE
  8
QUOTATURA
 10
14062.668
 20
5011.668
 40
152.5
  0
LINE
  8
APS_GEOMETRY
 10
11470.0
 11
11470.0
 20
2596.0
 21
4705.0
  0
LINE
  8
APS_GEOMETRY
 10
11470.0
 11
10797.0
 20
4705.0
 21
4705.0
  0
LINE
  8
APS_GEOMETRY
 10
10797.0
 11
10797.0
 20
4705.0
 21
2596.0
  0
LINE
  8
APS_GEOMETRY
 10
10797.0
 11
11470.0
 20
2596.0
 21
2596.0
  0
LINE
  8
APS_GEOMETRY
 10
12247.0
 11
12247.0
 20
2596.0
 21
4705.0
  0
LINE
  8
APS_GEOMETRY
 10
12247.0
 11
11474.0
 20
4705.0
 21
4705.0
  0
LINE
  8
APS_GEOMETRY
 10
11474.0
 11
11474.0
 20
4705.0
 21
2596.0
  0
LINE
  8
APS_GEOMETRY
 10
11474.0
 11
12247.0
 20
2596.0
 21
2596.0
  0
LINE
  8
APS_GEOMETRY
 10
13024.0
 11
13024.0
 20
2596.0
 21
4705.0
  0
LINE
  8
APS_GEOMETRY
 10
13024.0
 11
12251.0
 20
4705.0
 21
4705.0
  0
LINE
  8
APS_GEOMETRY
 10
12251.0
 11
12251.0
 20
4705.0
 21
2596.0
  0
LINE
  8
APS_GEOMETRY
 10
12251.0
 11
13024.0
 20
2596.0
 21
2596.0
  0
LINE
  8
APS_GEOMETRY
 10
13801.0
 11
13801.0
 20
2596.0
 21
4705.0
  0
LINE
  8
APS_GEOMETRY
 10
13801.0
 11
13028.0
 20
4705.0
 21
4705.0
  0
LINE
  8
APS_GEOMETRY
 10
13028.0
 11
13028.0
 20
4705.0
 21
2596.0
  0
LINE
  8
APS_GEOMETRY
 10
13028.0
 11
13801.0
 20
2596.0
 21
2596.0
  0
LINE
  8
APS_GEOMETRY
 10
0.0
 11
3050.0
 20
5192.0
 21
5192.0
  0
LINE
  8
APS_GEOMETRY
 10
3050.0
 11
3050.0
 20
5192.0
 21
7392.0
  0
LINE
  8
APS_GEOMETRY
 10
3050.0
 11
0.0
 20
7392.0
 21
7392.0
  0
LINE
  8
APS_GEOMETRY
 10
0.0
 11
0.0
 20
7392.0
 21
5192.0
  0
LINE
  8
QUOTATURA
 10
3050.0
 11
3157.834
 20
7392.0
 21
7499.834
  0
CIRCLE
  8
QUOTATURA
 10
3265.668
 20
7607.668
 40
152.5
  0
LINE
  8
APS_GEOMETRY
 10
673.0
 11
673.0
 20
5192.0
 21
7301.0
  0
LINE
  8
APS_GEOMETRY
 10
673.0
 11
0.0
 20
7301.0
 21
7301.0
  0
LINE
  8
APS_GEOMETRY
 10
0.0
 11
0.0
 20
7301.0
 21
5192.0
  0
LINE
  8
APS_GEOMETRY
 10
0.0
 11
673.0
 20
5192.0
 21
5192.0
  0
LINE
  8
APS_GEOMETRY
 10
1450.0
 11
1450.0
 20
5192.0
 21
7301.0
  0
LINE
  8
APS_GEOMETRY
 10
1450.0
 11
677.0
 20
7301.0
 21
7301.0
  0
LINE
  8
APS_GEOMETRY
 10
677.0
 11
677.0
 20
7301.0
 21
5192.0
  0
LINE
  8
APS_GEOMETRY
 10
677.0
 11
1450.0
 20
5192.0
 21
5192.0
  0
LINE
  8
APS_GEOMETRY
 10
2227.0
 11
2227.0
 20
5192.0
 21
7301.0
  0
LINE
  8
APS_GEOMETRY
 10
2227.0
 11
1454.0
 20
7301.0
 21
7301.0
  0
LINE
  8
APS_GEOMETRY
 10
1454.0
 11
1454.0
 20
7301.0
 21
5192.0
  0
LINE
  8
APS_GEOMETRY
 10
1454.0
 11
2227.0
 20
5192.0
 21
5192.0
  0
LINE
  8
APS_GEOMETRY
 10
3004.0
 11
3004.0
 20
5192.0
 21
7301.0
  0
LINE
  8
APS_GEOMETRY
 10
3004.0
 11
2231.0
 20
7301.0
 21
7301.0
  0
LINE
  8
APS_GEOMETRY
 10
2231.0
 11
2231.0
 20
7301.0
 21
5192.0
  0
LINE
  8
APS_GEOMETRY
 10
2231.0
 11
3004.0
 20
5192.0
 21
5192.0
  0
LINE
  8
APS_GEOMETRY
 10
3599.0
 11
6649.0
 20
5192.0
 21
5192.0
  0
LINE
  8
APS_GEOMETRY
 10
6649.0
 11
6649.0
 20
5192.0
 21
7392.0
  0
LINE
  8
APS_GEOMETRY
 10
6649.0
 11
3599.0
 20
7392.0
 21
7392.0
  0
LINE
  8
APS_GEOMETRY
 10
3599.0
 11
3599.0
 20
7392.0
 21
5192.0
  0
LINE
  8
QUOTATURA
 10
6649.0
 11
6756.834
 20
7392.0
 21
7499.834
  0
CIRCLE
  8
QUOTATURA
 10
6864.668
 20
7607.668
 40
152.5
  0
LINE
  8
APS_GEOMETRY
 10
4272.0
 11
4272.0
 20
5192.0
 21
7301.0
  0
LINE
  8
APS_GEOMETRY
 10
4272.0
 11
3599.0
 20
7301.0
 21
7301.0
  0
LINE
  8
APS_GEOMETRY
 10
3599.0
 11
3599.0
 20
7301.0
 21
5192.0
  0
LINE
  8
APS_GEOMETRY
 10
3599.0
 11
4272.0
 20
5192.0
 21
5192.0
  0
LINE
  8
APS_GEOMETRY
 10
5049.0
 11
5049.0
 20
5192.0
 21
7301.0
  0
LINE
  8
APS_GEOMETRY
 10
5049.0
 11
4276.0
 20
7301.0
 21
7301.0
  0
LINE
  8
APS_GEOMETRY
 10
4276.0
 11
4276.0
 20
7301.0
 21
5192.0
  0
LINE
  8
APS_GEOMETRY
 10
4276.0
 11
5049.0
 20
5192.0
 21
5192.0
  0
LINE
  8
APS_GEOMETRY
 10
5826.0
 11
5826.0
 20
5192.0
 21
7301.0
  0
LINE
  8
APS_GEOMETRY
 10
5826.0
 11
5053.0
 20
7301.0
 21
7301.0
  0
LINE
  8
APS_GEOMETRY
 10
5053.0
 11
5053.0
 20
7301.0
 21
5192.0
  0
LINE
  8
APS_GEOMETRY
 10
5053.0
 11
5826.0
 20
5192.0
 21
5192.0
  0
LINE
  8
APS_GEOMETRY
 10
6603.0
 11
6603.0
 20
5192.0
 21
7301.0
  0
LINE
  8
APS_GEOMETRY
 10
6603.0
 11
5830.0
 20
7301.0
 21
7301.0
  0
LINE
  8
APS_GEOMETRY
 10
5830.0
 11
5830.0
 20
7301.0
 21
5192.0
  0
LINE
  8
APS_GEOMETRY
 10
5830.0
 11
6603.0
 20
5192.0
 21
5192.0
  0
LINE
  8
APS_GEOMETRY
 10
7198.0
 11
10248.0
 20
5192.0
 21
5192.0
  0
LINE
  8
APS_GEOMETRY
 10
10248.0
 11
10248.0
 20
5192.0
 21
7392.0
  0
LINE
  8
APS_GEOMETRY
 10
10248.0
 11
7198.0
 20
7392.0
 21
7392.0
  0
LINE
  8
APS_GEOMETRY
 10
7198.0
 11
7198.0
 20
7392.0
 21
5192.0
  0
LINE
  8
QUOTATURA
 10
10248.0
 11
10355.834
 20
7392.0
 21
7499.834
  0
CIRCLE
  8
QUOTATURA
 10
10463.668
 20
7607.668
 40
152.5
  0
LINE
  8
APS_GEOMETRY
 10
7871.0
 11
7871.0
 20
5192.0
 21
7301.0
  0
LINE
  8
APS_GEOMETRY
 10
7871.0
 11
7198.0
 20
7301.0
 21
7301.0
  0
LINE
  8
APS_GEOMETRY
 10
7198.0
 11
7198.0
 20
7301.0
 21
5192.0
  0
LINE
  8
APS_GEOMETRY
 10
7198.0
 11
7871.0
 20
5192.0
 21
5192.0
  0
LINE
  8
APS_GEOMETRY
 10
8648.0
 11
8648.0
 20
5192.0
 21
7301.0
  0
LINE
  8
APS_GEOMETRY
 10
8648.0
 11
7875.0
 20
7301.0
 21
7301.0
  0
LINE
  8
APS_GEOMETRY
 10
7875.0
 11
7875.0
 20
7301.0
 21
5192.0
  0
LINE
  8
APS_GEOMETRY
 10
7875.0
 11
8648.0
 20
5192.0
 21
5192.0
  0
LINE
  8
APS_GEOMETRY
 10
9425.0
 11
9425.0
 20
5192.0
 21
7301.0
  0
LINE
  8
APS_GEOMETRY
 10
9425.0
 11
8652.0
 20
7301.0
 21
7301.0
  0
LINE
  8
APS_GEOMETRY
 10
8652.0
 11
8652.0
 20
7301.0
 21
5192.0
  0
LINE
  8
APS_GEOMETRY
 10
8652.0
 11
9425.0
 20
5192.0
 21
5192.0
  0
LINE
  8
APS_GEOMETRY
 10
10202.0
 11
10202.0
 20
5192.0
 21
7301.0
  0
LINE
  8
APS_GEOMETRY
 10
10202.0
 11
9429.0
 20
7301.0
 21
7301.0
  0
LINE
  8
APS_GEOMETRY
 10
9429.0
 11
9429.0
 20
7301.0
 21
5192.0
  0
LINE
  8
APS_GEOMETRY
 10
9429.0
 11
10202.0
 20
5192.0
 21
5192.0
  0
LINE
  8
APS_GEOMETRY
 10
10797.0
 11
13847.0
 20
5192.0
 21
5192.0
  0
LINE
  8
APS_GEOMETRY
 10
13847.0
 11
13847.0
 20
5192.0
 21
7392.0
  0
LINE
  8
APS_GEOMETRY
 10
13847.0
 11
10797.0
 20
7392.0
 21
7392.0
  0
LINE
  8
APS_GEOMETRY
 10
10797.0
 11
10797.0
 20
7392.0
 21
5192.0
  0
LINE
  8
QUOTATURA
 10
13847.0
 11
13954.834
 20
7392.0
 21
7499.834
  0
CIRCLE
  8
QUOTATURA
 10
14062.668
 20
7607.668
 40
152.5
  0
LINE
  8
APS_GEOMETRY
 10
11470.0
 11
11470.0
 20
5192.0
 21
7301.0
  0
LINE
  8
APS_GEOMETRY
 10
11470.0
 11
10797.0
 20
7301.0
 21
7301.0
  0
LINE
  8
APS_GEOMETRY
 10
10797.0
 11
10797.0
 20
7301.0
 21
5192.0
  0
LINE
  8
APS_GEOMETRY
 10
10797.0
 11
11470.0
 20
5192.0
 21
5192.0
  0
LINE
  8
APS_GEOMETRY
 10
12247.0
 11
12247.0
 20
5192.0
 21
7301.0
  0
LINE
  8
APS_GEOMETRY
 10
12247.0
 11
11474.0
 20
7301.0
 21
7301.0
  0
LINE
  8
APS_GEOMETRY
 10
11474.0
 11
11474.0
 20
7301.0
 21
5192.0
  0
LINE
  8
APS_GEOMETRY
 10
11474.0
 11
12247.0
 20
5192.0
 21
5192.0
  0
LINE
  8
APS_GEOMETRY
 10
13024.0
 11
13024.0
 20
5192.0
 21
7301.0
  0
LINE
  8
APS_GEOMETRY
 10
13024.0
 11
12251.0
 20
7301.0
 21
7301.0
  0
LINE
  8
APS_GEOMETRY
 10
12251.0
 11
12251.0
 20
7301.0
 21
5192.0
  0
LINE
  8
APS_GEOMETRY
 10
12251.0
 11
13024.0
 20
5192.0
 21
5192.0
  0
LINE
  8
APS_GEOMETRY
 10
13801.0
 11
13801.0
 20
5192.0
 21
7301.0
  0
LINE
  8
APS_GEOMETRY
 10
13801.0
 11
13028.0
 20
7301.0
 21
7301.0
  0
LINE
  8
APS_GEOMETRY
 10
13028.0
 11
13028.0
 20
7301.0
 21
5192.0
  0
LINE
  8
APS_GEOMETRY
 10
13028.0
 11
13801.0
 20
5192.0
 21
5192.0
  0
LINE
  8
APS_GEOMETRY
 10
0.0
 11
3050.0
 20
7788.0
 21
7788.0
  0
LINE
  8
APS_GEOMETRY
 10
3050.0
 11
3050.0
 20
7788.0
 21
9988.0
  0
LINE
  8
APS_GEOMETRY
 10
3050.0
 11
0.0
 20
9988.0
 21
9988.0
  0
LINE
  8
APS_GEOMETRY
 10
0.0
 11
0.0
 20
9988.0
 21
7788.0
  0
LINE
  8
QUOTATURA
 10
3050.0
 11
3157.834
 20
9988.0
 21
10095.834
  0
CIRCLE
  8
QUOTATURA
 10
3265.668
 20
10203.668
 40
152.5
  0
LINE
  8
APS_GEOMETRY
 10
673.0
 11
673.0
 20
7788.0
 21
9897.0
  0
LINE
  8
APS_GEOMETRY
 10
673.0
 11
0.0
 20
9897.0
 21
9897.0
  0
LINE
  8
APS_GEOMETRY
 10
0.0
 11
0.0
 20
9897.0
 21
7788.0
  0
LINE
  8
APS_GEOMETRY
 10
0.0
 11
673.0
 20
7788.0
 21
7788.0
  0
LINE
  8
APS_GEOMETRY
 10
1450.0
 11
1450.0
 20
7788.0
 21
9897.0
  0
LINE
  8
APS_GEOMETRY
 10
1450.0
 11
677.0
 20
9897.0
 21
9897.0
  0
LINE
  8
APS_GEOMETRY
 10
677.0
 11
677.0
 20
9897.0
 21
7788.0
  0
LINE
  8
APS_GEOMETRY
 10
677.0
 11
1450.0
 20
7788.0
 21
7788.0
  0
LINE
  8
APS_GEOMETRY
 10
2227.0
 11
2227.0
 20
7788.0
 21
9897.0
  0
LINE
  8
APS_GEOMETRY
 10
2227.0
 11
1454.0
 20
9897.0
 21
9897.0
  0
LINE
  8
APS_GEOMETRY
 10
1454.0
 11
1454.0
 20
9897.0
 21
7788.0
  0
LINE
  8
APS_GEOMETRY
 10
1454.0
 11
2227.0
 20
7788.0
 21
7788.0
  0
LINE
  8
APS_GEOMETRY
 10
3004.0
 11
3004.0
 20
7788.0
 21
9897.0
  0
LINE
  8
APS_GEOMETRY
 10
3004.0
 11
2231.0
 20
9897.0
 21
9897.0
  0
LINE
  8
APS_GEOMETRY
 10
2231.0
 11
2231.0
 20
9897.0
 21
7788.0
  0
LINE
  8
APS_GEOMETRY
 10
2231.0
 11
3004.0
 20
7788.0
 21
7788.0
  0
LINE
  8
APS_GEOMETRY
 10
3599.0
 11
6649.0
 20
7788.0
 21
7788.0
  0
LINE
  8
APS_GEOMETRY
 10
6649.0
 11
6649.0
 20
7788.0
 21
9988.0
  0
LINE
  8
APS_GEOMETRY
 10
6649.0
 11
3599.0
 20
9988.0
 21
9988.0
  0
LINE
  8
APS_GEOMETRY
 10
3599.0
 11
3599.0
 20
9988.0
 21
7788.0
  0
LINE
  8
QUOTATURA
 10
6649.0
 11
6756.834
 20
9988.0
 21
10095.834
  0
CIRCLE
  8
QUOTATURA
 10
6864.668
 20
10203.668
 40
152.5
  0
LINE
  8
APS_GEOMETRY
 10
4372.0
 11
4372.0
 20
7788.0
 21
9897.0
  0
LINE
  8
APS_GEOMETRY
 10
4372.0
 11
3599.0
 20
9897.0
 21
9897.0
  0
LINE
  8
APS_GEOMETRY
 10
3599.0
 11
3599.0
 20
9897.0
 21
7788.0
  0
LINE
  8
APS_GEOMETRY
 10
3599.0
 11
4372.0
 20
7788.0
 21
7788.0
  0
LINE
  8
APS_GEOMETRY
 10
5049.0
 11
5049.0
 20
7788.0
 21
9897.0
  0
LINE
  8
APS_GEOMETRY
 10
5049.0
 11
4376.0
 20
9897.0
 21
9897.0
  0
LINE
  8
APS_GEOMETRY
 10
4376.0
 11
4376.0
 20
9897.0
 21
7788.0
  0
LINE
  8
APS_GEOMETRY
 10
4376.0
 11
5049.0
 20
7788.0
 21
7788.0
  0
LINE
  8
APS_GEOMETRY
 10
5841.0
 11
5841.0
 20
7788.0
 21
9899.0
  0
LINE
  8
APS_GEOMETRY
 10
5841.0
 11
5053.0
 20
9899.0
 21
9899.0
  0
LINE
  8
APS_GEOMETRY
 10
5053.0
 11
5053.0
 20
9899.0
 21
7788.0
  0
LINE
  8
APS_GEOMETRY
 10
5053.0
 11
5841.0
 20
7788.0
 21
7788.0
  0
LINE
  8
APS_GEOMETRY
 10
6618.0
 11
6618.0
 20
7788.0
 21
9897.0
  0
LINE
  8
APS_GEOMETRY
 10
6618.0
 11
5845.0
 20
9897.0
 21
9897.0
  0
LINE
  8
APS_GEOMETRY
 10
5845.0
 11
5845.0
 20
9897.0
 21
7788.0
  0
LINE
  8
APS_GEOMETRY
 10
5845.0
 11
6618.0
 20
7788.0
 21
7788.0
  0
LINE
  8
APS_GEOMETRY
 10
7198.0
 11
10248.0
 20
7788.0
 21
7788.0
  0
LINE
  8
APS_GEOMETRY
 10
10248.0
 11
10248.0
 20
7788.0
 21
9988.0
  0
LINE
  8
APS_GEOMETRY
 10
10248.0
 11
7198.0
 20
9988.0
 21
9988.0
  0
LINE
  8
APS_GEOMETRY
 10
7198.0
 11
7198.0
 20
9988.0
 21
7788.0
  0
LINE
  8
QUOTATURA
 10
10248.0
 11
10355.834
 20
9988.0
 21
10095.834
  0
CIRCLE
  8
QUOTATURA
 10
10463.668
 20
10203.668
 40
152.5
  0
LINE
  8
APS_GEOMETRY
 10
7871.0
 11
7871.0
 20
7788.0
 21
9897.0
  0
LINE
  8
APS_GEOMETRY
 10
7871.0
 11
7198.0
 20
9897.0
 21
9897.0
  0
LINE
  8
APS_GEOMETRY
 10
7198.0
 11
7198.0
 20
9897.0
 21
7788.0
  0
LINE
  8
APS_GEOMETRY
 10
7198.0
 11
7871.0
 20
7788.0
 21
7788.0
  0
LINE
  8
APS_GEOMETRY
 10
8663.0
 11
8663.0
 20
7788.0
 21
9899.0
  0
LINE
  8
APS_GEOMETRY
 10
8663.0
 11
7875.0
 20
9899.0
 21
9899.0
  0
LINE
  8
APS_GEOMETRY
 10
7875.0
 11
7875.0
 20
9899.0
 21
7788.0
  0
LINE
  8
APS_GEOMETRY
 10
7875.0
 11
8663.0
 20
7788.0
 21
7788.0
  0
LINE
  8
APS_GEOMETRY
 10
9455.0
 11
9455.0
 20
7788.0
 21
9899.0
  0
LINE
  8
APS_GEOMETRY
 10
9455.0
 11
8667.0
 20
9899.0
 21
9899.0
  0
LINE
  8
APS_GEOMETRY
 10
8667.0
 11
8667.0
 20
9899.0
 21
7788.0
  0
LINE
  8
APS_GEOMETRY
 10
8667.0
 11
9455.0
 20
7788.0
 21
7788.0
  0
LINE
  8
APS_GEOMETRY
 10
10247.0
 11
10247.0
 20
7788.0
 21
9899.0
  0
LINE
  8
APS_GEOMETRY
 10
10247.0
 11
9459.0
 20
9899.0
 21
9899.0
  0
LINE
  8
APS_GEOMETRY
 10
9459.0
 11
9459.0
 20
9899.0
 21
7788.0
  0
LINE
  8
APS_GEOMETRY
 10
9459.0
 11
10247.0
 20
7788.0
 21
7788.0
  0
LINE
  8
APS_GEOMETRY
 10
10797.0
 11
13847.0
 20
7788.0
 21
7788.0
  0
LINE
  8
APS_GEOMETRY
 10
13847.0
 11
13847.0
 20
7788.0
 21
9988.0
  0
LINE
  8
APS_GEOMETRY
 10
13847.0
 11
10797.0
 20
9988.0
 21
9988.0
  0
LINE
  8
APS_GEOMETRY
 10
10797.0
 11
10797.0
 20
9988.0
 21
7788.0
  0
LINE
  8
QUOTATURA
 10
13847.0
 11
13954.834
 20
9988.0
 21
10095.834
  0
CIRCLE
  8
QUOTATURA
 10
14062.668
 20
10203.668
 40
152.5
  0
LINE
  8
APS_GEOMETRY
 10
11585.0
 11
11585.0
 20
7788.0
 21
9899.0
  0
LINE
  8
APS_GEOMETRY
 10
11585.0
 11
10797.0
 20
9899.0
 21
9899.0
  0
LINE
  8
APS_GEOMETRY
 10
10797.0
 11
10797.0
 20
9899.0
 21
7788.0
  0
LINE
  8
APS_GEOMETRY
 10
10797.0
 11
11585.0
 20
7788.0
 21
7788.0
  0
LINE
  8
APS_GEOMETRY
 10
12312.0
 11
12312.0
 20
7788.0
 21
9897.0
  0
LINE
  8
APS_GEOMETRY
 10
12312.0
 11
11589.0
 20
9897.0
 21
9897.0
  0
LINE
  8
APS_GEOMETRY
 10
11589.0
 11
11589.0
 20
9897.0
 21
7788.0
  0
LINE
  8
APS_GEOMETRY
 10
11589.0
 11
12312.0
 20
7788.0
 21
7788.0
  0
LINE
  8
APS_GEOMETRY
 10
13039.0
 11
13039.0
 20
7788.0
 21
9897.0
  0
LINE
  8
APS_GEOMETRY
 10
13039.0
 11
12316.0
 20
9897.0
 21
9897.0
  0
LINE
  8
APS_GEOMETRY
 10
12316.0
 11
12316.0
 20
9897.0
 21
7788.0
  0
LINE
  8
APS_GEOMETRY
 10
12316.0
 11
13039.0
 20
7788.0
 21
7788.0
  0
LINE
  8
APS_GEOMETRY
 10
13716.0
 11
13716.0
 20
7788.0
 21
9897.0
  0
LINE
  8
APS_GEOMETRY
 10
13716.0
 11
13043.0
 20
9897.0
 21
9897.0
  0
LINE
  8
APS_GEOMETRY
 10
13043.0
 11
13043.0
 20
9897.0
 21
7788.0
  0
LINE
  8
APS_GEOMETRY
 10
13043.0
 11
13716.0
 20
7788.0
 21
7788.0
  0
TEXT
  8
QUOTATURA
 10
1343.135
 20
-173.637
 30
0.0
 40
100.0
 50
0.0
  1
3050
  0
TEXT
  8
QUOTATURA
 10
-382.108
 20
1050.0
 30
0.0
 40
100.0
 50
0.0
  1
2200
  0
TEXT
  8
TEXT
 10
3157.834
 20
2331.918
 30
0.0
 40
167.5
 50
0.0
  1
A1
  0
TEXT
  8
TEXT
 10
658.751
 20
20.108
 30
0.0
 40
100.0
 50
90.0
  1
673X2109
  0
TEXT
  8
TEXT
 10
261.722
 20
942.334
 30
0.0
 40
224.333
 50
0.0
  1
2
  0
TEXT
  8
TEXT
 10
1435.751
 20
20.108
 30
0.0
 40
100.0
 50
90.0
  1
773X2109
  0
TEXT
  8
TEXT
 10
963.971
 20
925.539
 30
0.0
 40
257.667
 50
0.0
  1
3
  0
TEXT
  8
TEXT
 10
2212.751
 20
20.108
 30
0.0
 40
100.0
 50
90.0
  1
773X2109
  0
TEXT
  8
TEXT
 10
1740.971
 20
925.539
 30
0.0
 40
257.667
 50
0.0
  1
3
  0
TEXT
  8
TEXT
 10
2989.751
 20
20.108
 30
0.0
 40
100.0
 50
90.0
  1
773X2109
  0
TEXT
  8
TEXT
 10
2517.971
 20
925.539
 30
0.0
 40
257.667
 50
0.0
  1
3
  0
TEXT
  8
TEXT
 10
3157.834
 20
4944.737
 30
0.0
 40
133.863
 50
0.0
  1
A2
  0
TEXT
  8
TEXT
 10
658.751
 20
2616.108
 30
0.0
 40
100.0
 50
90.0
  1
673X2109
  0
TEXT
  8
TEXT
 10
261.722
 20
3538.334
 30
0.0
 40
224.333
 50
0.0
  1
2
  0
TEXT
  8
TEXT
 10
1435.751
 20
2616.108
 30
0.0
 40
100.0
 50
90.0
  1
773X2109
  0
TEXT
  8
TEXT
 10
963.971
 20
3521.539
 30
0.0
 40
257.667
 50
0.0
  1
3
  0
TEXT
  8
TEXT
 10
2212.751
 20
2616.108
 30
0.0
 40
100.0
 50
90.0
  1
773X2109
  0
TEXT
  8
TEXT
 10
1740.971
 20
3521.539
 30
0.0
 40
257.667
 50
0.0
  1
3
  0
TEXT
  8
TEXT
 10
2989.751
 20
2616.108
 30
0.0
 40
100.0
 50
90.0
  1
773X2109
  0
TEXT
  8
TEXT
 10
2517.971
 20
3521.539
 30
0.0
 40
257.667
 50
0.0
  1
3
  0
TEXT
  8
TEXT
 10
6756.834
 20
4947.868
 30
0.0
 40
127.599
 50
0.0
  1
A3
  0
TEXT
  8
TEXT
 10
4257.751
 20
2616.108
 30
0.0
 40
100.0
 50
90.0
  1
673X2109
  0
TEXT
  8
TEXT
 10
3860.722
 20
3538.334
 30
0.0
 40
224.333
 50
0.0
  1
2
  0
TEXT
  8
TEXT
 10
5034.751
 20
2616.108
 30
0.0
 40
100.0
 50
90.0
  1
773X2109
  0
TEXT
  8
TEXT
 10
4562.971
 20
3521.539
 30
0.0
 40
257.667
 50
0.0
  1
3
  0
TEXT
  8
TEXT
 10
5811.751
 20
2616.108
 30
0.0
 40
100.0
 50
90.0
  1
773X2109
  0
TEXT
  8
TEXT
 10
5339.971
 20
3521.539
 30
0.0
 40
257.667
 50
0.0
  1
3
  0
TEXT
  8
TEXT
 10
6588.751
 20
2616.108
 30
0.0
 40
100.0
 50
90.0
  1
773X2109
  0
TEXT
  8
TEXT
 10
6116.971
 20
3521.539
 30
0.0
 40
257.667
 50
0.0
  1
3
  0
TEXT
  8
TEXT
 10
10355.834
 20
4952.015
 30
0.0
 40
119.306
 50
0.0
  1
A4
  0
TEXT
  8
TEXT
 10
7856.751
 20
2616.108
 30
0.0
 40
100.0
 50
90.0
  1
673X2109
  0
TEXT
  8
TEXT
 10
7459.722
 20
3538.334
 30
0.0
 40
224.333
 50
0.0
  1
2
  0
TEXT
  8
TEXT
 10
8633.751
 20
2616.108
 30
0.0
 40
100.0
 50
90.0
  1
773X2109
  0
TEXT
  8
TEXT
 10
8161.971
 20
3521.539
 30
0.0
 40
257.667
 50
0.0
  1
3
  0
TEXT
  8
TEXT
 10
9410.751
 20
2616.108
 30
0.0
 40
100.0
 50
90.0
  1
773X2109
  0
TEXT
  8
TEXT
 10
8938.971
 20
3521.539
 30
0.0
 40
257.667
 50
0.0
  1
3
  0
TEXT
  8
TEXT
 10
10187.751
 20
2616.108
 30
0.0
 40
100.0
 50
90.0
  1
773X2109
  0
TEXT
  8
TEXT
 10
9715.971
 20
3521.539
 30
0.0
 40
257.667
 50
0.0
  1
3
  0
TEXT
  8
TEXT
 10
13954.834
 20
4948.156
 30
0.0
 40
129.117
 50
0.0
  1
A5
  0
TEXT
  8
TEXT
 10
11455.751
 20
2616.108
 30
0.0
 40
100.0
 50
90.0
  1
673X2109
  0
TEXT
  8
TEXT
 10
11058.722
 20
3538.334
 30
0.0
 40
224.333
 50
0.0
  1
2
  0
TEXT
  8
TEXT
 10
12232.751
 20
2616.108
 30
0.0
 40
100.0
 50
90.0
  1
773X2109
  0
TEXT
  8
TEXT
 10
11760.971
 20
3521.539
 30
0.0
 40
257.667
 50
0.0
  1
3
  0
TEXT
  8
TEXT
 10
13009.751
 20
2616.108
 30
0.0
 40
100.0
 50
90.0
  1
773X2109
  0
TEXT
  8
TEXT
 10
12537.971
 20
3521.539
 30
0.0
 40
257.667
 50
0.0
  1
3
  0
TEXT
  8
TEXT
 10
13786.751
 20
2616.108
 30
0.0
 40
100.0
 50
90.0
  1
773X2109
  0
TEXT
  8
TEXT
 10
13314.971
 20
3521.539
 30
0.0
 40
257.667
 50
0.0
  1
3
  0
TEXT
  8
TEXT
 10
3157.834
 20
7544.122
 30
0.0
 40
129.855
 50
0.0
  1
A6
  0
TEXT
  8
TEXT
 10
658.751
 20
5212.108
 30
0.0
 40
100.0
 50
90.0
  1
673X2109
  0
TEXT
  8
TEXT
 10
261.722
 20
6134.334
 30
0.0
 40
224.333
 50
0.0
  1
2
  0
TEXT
  8
TEXT
 10
1435.751
 20
5212.108
 30
0.0
 40
100.0
 50
90.0
  1
773X2109
  0
TEXT
  8
TEXT
 10
963.971
 20
6117.539
 30
0.0
 40
257.667
 50
0.0
  1
3
  0
TEXT
  8
TEXT
 10
2212.751
 20
5212.108
 30
0.0
 40
100.0
 50
90.0
  1
773X2109
  0
TEXT
  8
TEXT
 10
1740.971
 20
6117.539
 30
0.0
 40
257.667
 50
0.0
  1
3
  0
TEXT
  8
TEXT
 10
2989.751
 20
5212.108
 30
0.0
 40
100.0
 50
90.0
  1
773X2109
  0
TEXT
  8
TEXT
 10
2517.971
 20
6117.539
 30
0.0
 40
257.667
 50
0.0
  1
3
  0
TEXT
  8
TEXT
 10
6756.834
 20
7544.019
 30
0.0
 40
127.297
 50
0.0
  1
A7
  0
TEXT
  8
TEXT
 10
4257.751
 20
5212.108
 30
0.0
 40
100.0
 50
90.0
  1
673X2109
  0
TEXT
  8
TEXT
 10
3860.722
 20
6134.334
 30
0.0
 40
224.333
 50
0.0
  1
2
  0
TEXT
  8
TEXT
 10
5034.751
 20
5212.108
 30
0.0
 40
100.0
 50
90.0
  1
773X2109
  0
TEXT
  8
TEXT
 10
4562.971
 20
6117.539
 30
0.0
 40
257.667
 50
0.0
  1
3
  0
TEXT
  8
TEXT
 10
5811.751
 20
5212.108
 30
0.0
 40
100.0
 50
90.0
  1
773X2109
  0
TEXT
  8
TEXT
 10
5339.971
 20
6117.539
 30
0.0
 40
257.667
 50
0.0
  1
3
  0
TEXT
  8
TEXT
 10
6588.751
 20
5212.108
 30
0.0
 40
100.0
 50
90.0
  1
773X2109
  0
TEXT
  8
TEXT
 10
6116.971
 20
6117.539
 30
0.0
 40
257.667
 50
0.0
  1
3
  0
TEXT
  8
TEXT
 10
10355.834
 20
7544.504
 30
0.0
 40
128.774
 50
0.0
  1
A8
  0
TEXT
  8
TEXT
 10
7856.751
 20
5212.108
 30
0.0
 40
100.0
 50
90.0
  1
673X2109
  0
TEXT
  8
TEXT
 10
7459.722
 20
6134.334
 30
0.0
 40
224.333
 50
0.0
  1
2
  0
TEXT
  8
TEXT
 10
8633.751
 20
5212.108
 30
0.0
 40
100.0
 50
90.0
  1
773X2109
  0
TEXT
  8
TEXT
 10
8161.971
 20
6117.539
 30
0.0
 40
257.667
 50
0.0
  1
3
  0
TEXT
  8
TEXT
 10
9410.751
 20
5212.108
 30
0.0
 40
100.0
 50
90.0
  1
773X2109
  0
TEXT
  8
TEXT
 10
8938.971
 20
6117.539
 30
0.0
 40
257.667
 50
0.0
  1
3
  0
TEXT
  8
TEXT
 10
10187.751
 20
5212.108
 30
0.0
 40
100.0
 50
90.0
  1
773X2109
  0
TEXT
  8
TEXT
 10
9715.971
 20
6117.539
 30
0.0
 40
257.667
 50
0.0
  1
3
  0
TEXT
  8
TEXT
 10
13954.834
 20
7544.073
 30
0.0
 40
130.423
 50
0.0
  1
A9
  0
TEXT
  8
TEXT
 10
11455.751
 20
5212.108
 30
0.0
 40
100.0
 50
90.0
  1
673X2109
  0
TEXT
  8
TEXT
 10
11058.722
 20
6134.334
 30
0.0
 40
224.333
 50
0.0
  1
2
  0
TEXT
  8
TEXT
 10
12232.751
 20
5212.108
 30
0.0
 40
100.0
 50
90.0
  1
773X2109
  0
TEXT
  8
TEXT
 10
11760.971
 20
6117.539
 30
0.0
 40
257.667
 50
0.0
  1
3
  0
TEXT
  8
TEXT
 10
13009.751
 20
5212.108
 30
0.0
 40
100.0
 50
90.0
  1
773X2109
  0
TEXT
  8
TEXT
 10
12537.971
 20
6117.539
 30
0.0
 40
257.667
 50
0.0
  1
3
  0
TEXT
  8
TEXT
 10
13786.751
 20
5212.108
 30
0.0
 40
100.0
 50
90.0
  1
773X2109
  0
TEXT
  8
TEXT
 10
13314.971
 20
6117.539
 30
0.0
 40
257.667
 50
0.0
  1
3
  0
TEXT
  8
TEXT
 10
3157.834
 20
10157.403
 30
0.0
 40
94.844
 50
0.0
  1
A10
  0
TEXT
  8
TEXT
 10
658.751
 20
7808.108
 30
0.0
 40
100.0
 50
90.0
  1
673X2109
  0
TEXT
  8
TEXT
 10
261.722
 20
8730.334
 30
0.0
 40
224.333
 50
0.0
  1
2
  0
TEXT
  8
TEXT
 10
1435.751
 20
7808.108
 30
0.0
 40
100.0
 50
90.0
  1
773X2109
  0
TEXT
  8
TEXT
 10
963.971
 20
8713.539
 30
0.0
 40
257.667
 50
0.0
  1
3
  0
TEXT
  8
TEXT
 10
2212.751
 20
7808.108
 30
0.0
 40
100.0
 50
90.0
  1
773X2109
  0
TEXT
  8
TEXT
 10
1740.971
 20
8713.539
 30
0.0
 40
257.667
 50
0.0
  1
3
  0
TEXT
  8
TEXT
 10
2989.751
 20
7808.108
 30
0.0
 40
100.0
 50
90.0
  1
773X2109
  0
TEXT
  8
TEXT
 10
2517.971
 20
8713.539
 30
0.0
 40
257.667
 50
0.0
  1
3
  0
TEXT
  8
TEXT
 10
6756.834
 20
10144.764
 30
0.0
 40
117.806
 50
0.0
  1
A11
  0
TEXT
  8
TEXT
 10
4357.751
 20
7808.108
 30
0.0
 40
100.0
 50
90.0
  1
773X2109
  0
TEXT
  8
TEXT
 10
3885.971
 20
8713.539
 30
0.0
 40
257.667
 50
0.0
  1
3
  0
TEXT
  8
TEXT
 10
5034.751
 20
7808.108
 30
0.0
 40
100.0
 50
90.0
  1
673X2109
  0
TEXT
  8
TEXT
 10
4637.722
 20
8730.334
 30
0.0
 40
224.333
 50
0.0
  1
2
  0
TEXT
  8
TEXT
 10
5826.751
 20
7808.108
 30
0.0
 40
100.0
 50
90.0
  1
788X2111
  0
TEXT
  8
TEXT
 10
5401.936
 20
8712.167
 30
0.0
 40
262.667
 50
0.0
  1
1
  0
TEXT
  8
TEXT
 10
6603.751
 20
7808.108
 30
0.0
 40
100.0
 50
90.0
  1
773X2109
  0
TEXT
  8
TEXT
 10
6131.971
 20
8713.539
 30
0.0
 40
257.667
 50
0.0
  1
3
  0
TEXT
  8
TEXT
 10
10355.834
 20
10153.611
 30
0.0
 40
100.113
 50
0.0
  1
A12
  0
TEXT
  8
TEXT
 10
7856.751
 20
7808.108
 30
0.0
 40
100.0
 50
90.0
  1
673X2109
  0
TEXT
  8
TEXT
 10
7459.722
 20
8730.334
 30
0.0
 40
224.333
 50
0.0
  1
2
  0
TEXT
  8
TEXT
 10
8648.751
 20
7808.108
 30
0.0
 40
100.0
 50
90.0
  1
788X2111
  0
TEXT
  8
TEXT
 10
8223.936
 20
8712.167
 30
0.0
 40
262.667
 50
0.0
  1
1
  0
TEXT
  8
TEXT
 10
9440.751
 20
7808.108
 30
0.0
 40
100.0
 50
90.0
  1
788X2111
  0
TEXT
  8
TEXT
 10
9015.936
 20
8712.167
 30
0.0
 40
262.667
 50
0.0
  1
1
  0
TEXT
  8
TEXT
 10
10232.751
 20
7808.108
 30
0.0
 40
100.0
 50
90.0
  1
788X2111
  0
TEXT
  8
TEXT
 10
9807.936
 20
8712.167
 30
0.0
 40
262.667
 50
0.0
  1
1
  0
TEXT
  8
TEXT
 10
13954.834
 20
10155.383
 30
0.0
 40
96.568
 50
0.0
  1
A13
  0
TEXT
  8
TEXT
 10
11570.751
 20
7808.108
 30
0.0
 40
100.0
 50
90.0
  1
788X2111
  0
TEXT
  8
TEXT
 10
11145.936
 20
8712.167
 30
0.0
 40
262.667
 50
0.0
  1
1
  0
TEXT
  8
TEXT
 10
12297.751
 20
7808.108
 30
0.0
 40
100.0
 50
90.0
  1
723X2109
  0
TEXT
  8
TEXT
 10
11842.875
 20
8721.917
 30
0.0
 40
241.0
 50
0.0
  1
4
  0
TEXT
  8
TEXT
 10
13024.751
 20
7808.108
 30
0.0
 40
100.0
 50
90.0
  1
723X2109
  0
TEXT
  8
TEXT
 10
12569.875
 20
8721.917
 30
0.0
 40
241.0
 50
0.0
  1
4
  0
TEXT
  8
TEXT
 10
13701.751
 20
7808.108
 30
0.0
 40
100.0
 50
90.0
  1
673X2109
  0
TEXT
  8
TEXT
 10
13304.722
 20
8730.334
 30
0.0
 40
224.333
 50
0.0
  1
2
  0
ENDSEC
  0
EOF
