  0
SECTION
  2
ENTITIES
  0
LINE
  8
APS_GEOMETRY
 10
0.0
 11
2520.0
 20
0.0
 21
0.0
  0
LINE
  8
APS_GEOMETRY
 10
2520.0
 11
2520.0
 20
0.0
 21
1870.0
  0
LINE
  8
APS_GEOMETRY
 10
2520.0
 11
0.0
 20
1870.0
 21
1870.0
  0
LINE
  8
APS_GEOMETRY
 10
0.0
 11
0.0
 20
1870.0
 21
0.0
  0
LINE
  8
QUOTATURA
 10
0.0
 11
0.0
 20
-50.0
 21
-162.952
  0
LINE
  8
QUOTATURA
 10
2520.0
 11
2520.0
 20
-50.0
 21
-162.952
  0
LINE
  8
QUOTATURA
 10
0.0
 11
1062.894
 20
-112.952
 21
-112.952
  0
LINE
  8
QUOTATURA
 10
1457.106
 11
2520.0
 20
-112.952
 21
-112.952
  0
LINE
  8
QUOTATURA
 10
100.0
 11
0.0
 20
-129.622
 21
-112.952
  0
LINE
  8
QUOTATURA
 10
0.0
 11
100.0
 20
-112.952
 21
-96.282
  0
LINE
  8
QUOTATURA
 10
100.0
 11
100.0
 20
-96.282
 21
-129.622
  0
LINE
  8
QUOTATURA
 10
2420.0
 11
2520.0
 20
-96.282
 21
-112.952
  0
LINE
  8
QUOTATURA
 10
2520.0
 11
2420.0
 20
-112.952
 21
-129.622
  0
LINE
  8
QUOTATURA
 10
2420.0
 11
2420.0
 20
-129.622
 21
-96.282
  0
LINE
  8
QUOTATURA
 10
-50.0
 11
-220.972
 20
0.0
 21
0.0
  0
LINE
  8
QUOTATURA
 10
-50.0
 11
-220.972
 20
1870.0
 21
1870.0
  0
LINE
  8
QUOTATURA
 10
-170.972
 11
-170.972
 20
0.0
 21
858.78
  0
LINE
  8
QUOTATURA
 10
-170.972
 11
-170.972
 20
1010.056
 21
1870.0
  0
LINE
  8
QUOTATURA
 10
-154.302
 11
-170.972
 20
100.0
 21
0.0
  0
LINE
  8
QUOTATURA
 10
-170.972
 11
-187.642
 20
0.0
 21
100.0
  0
LINE
  8
QUOTATURA
 10
-187.642
 11
-154.302
 20
100.0
 21
100.0
  0
LINE
  8
QUOTATURA
 10
-187.642
 11
-170.972
 20
1770.0
 21
1870.0
  0
LINE
  8
QUOTATURA
 10
-170.972
 11
-154.302
 20
1870.0
 21
1770.0
  0
LINE
  8
QUOTATURA
 10
-154.302
 11
-187.642
 20
1770.0
 21
1770.0
  0
LINE
  8
QUOTATURA
 10
2520.0
 11
2609.095
 20
1870.0
 21
1959.095
  0
CIRCLE
  8
QUOTATURA
 10
2698.191
 20
2048.191
 40
126.0
  0
LINE
  8
APS_GEOMETRY
 10
643.0
 11
643.0
 20
0.0
 21
1054.5
  0
LINE
  8
APS_GEOMETRY
 10
643.0
 11
0.0
 20
1054.5
 21
1054.5
  0
LINE
  8
APS_GEOMETRY
 10
0.0
 11
0.0
 20
1054.5
 21
0.0
  0
LINE
  8
APS_GEOMETRY
 10
0.0
 11
643.0
 20
0.0
 21
0.0
  0
LINE
  8
APS_GEOMETRY
 10
1290.0
 11
1290.0
 20
0.0
 21
1054.5
  0
LINE
  8
APS_GEOMETRY
 10
1290.0
 11
647.0
 20
1054.5
 21
1054.5
  0
LINE
  8
APS_GEOMETRY
 10
647.0
 11
647.0
 20
1054.5
 21
0.0
  0
LINE
  8
APS_GEOMETRY
 10
647.0
 11
1290.0
 20
0.0
 21
0.0
  0
LINE
  8
APS_GEOMETRY
 10
1937.0
 11
1937.0
 20
0.0
 21
1054.5
  0
LINE
  8
APS_GEOMETRY
 10
1937.0
 11
1294.0
 20
1054.5
 21
1054.5
  0
LINE
  8
APS_GEOMETRY
 10
1294.0
 11
1294.0
 20
1054.5
 21
0.0
  0
LINE
  8
APS_GEOMETRY
 10
1294.0
 11
1937.0
 20
0.0
 21
0.0
  0
LINE
  8
APS_GEOMETRY
 10
0.0
 11
1054.5
 20
1058.5
 21
1058.5
  0
LINE
  8
APS_GEOMETRY
 10
1054.5
 11
1054.5
 20
1058.5
 21
1701.5
  0
LINE
  8
APS_GEOMETRY
 10
1054.5
 11
0.0
 20
1701.5
 21
1701.5
  0
LINE
  8
APS_GEOMETRY
 10
0.0
 11
0.0
 20
1701.5
 21
1058.5
  0
LINE
  8
APS_GEOMETRY
 10
1058.5
 11
2113.0
 20
1058.5
 21
1058.5
  0
LINE
  8
APS_GEOMETRY
 10
2113.0
 11
2113.0
 20
1058.5
 21
1701.5
  0
LINE
  8
APS_GEOMETRY
 10
2113.0
 11
1058.5
 20
1701.5
 21
1701.5
  0
LINE
  8
APS_GEOMETRY
 10
1058.5
 11
1058.5
 20
1701.5
 21
1058.5
  0
LINE
  8
APS_GEOMETRY
 10
0.0
 11
2520.0
 20
2206.6
 21
2206.6
  0
LINE
  8
APS_GEOMETRY
 10
2520.0
 11
2520.0
 20
2206.6
 21
4076.6
  0
LINE
  8
APS_GEOMETRY
 10
2520.0
 11
0.0
 20
4076.6
 21
4076.6
  0
LINE
  8
APS_GEOMETRY
 10
0.0
 11
0.0
 20
4076.6
 21
2206.6
  0
LINE
  8
QUOTATURA
 10
2520.0
 11
2609.095
 20
4076.6
 21
4165.695
  0
CIRCLE
  8
QUOTATURA
 10
2698.191
 20
4254.791
 40
126.0
  0
LINE
  8
APS_GEOMETRY
 10
643.0
 11
643.0
 20
2206.6
 21
3261.1
  0
LINE
  8
APS_GEOMETRY
 10
643.0
 11
0.0
 20
3261.1
 21
3261.1
  0
LINE
  8
APS_GEOMETRY
 10
0.0
 11
0.0
 20
3261.1
 21
2206.6
  0
LINE
  8
APS_GEOMETRY
 10
0.0
 11
643.0
 20
2206.6
 21
2206.6
  0
LINE
  8
APS_GEOMETRY
 10
1290.0
 11
1290.0
 20
2206.6
 21
3261.1
  0
LINE
  8
APS_GEOMETRY
 10
1290.0
 11
647.0
 20
3261.1
 21
3261.1
  0
LINE
  8
APS_GEOMETRY
 10
647.0
 11
647.0
 20
3261.1
 21
2206.6
  0
LINE
  8
APS_GEOMETRY
 10
647.0
 11
1290.0
 20
2206.6
 21
2206.6
  0
LINE
  8
APS_GEOMETRY
 10
1937.0
 11
1937.0
 20
2206.6
 21
3261.1
  0
LINE
  8
APS_GEOMETRY
 10
1937.0
 11
1294.0
 20
3261.1
 21
3261.1
  0
LINE
  8
APS_GEOMETRY
 10
1294.0
 11
1294.0
 20
3261.1
 21
2206.6
  0
LINE
  8
APS_GEOMETRY
 10
1294.0
 11
1937.0
 20
2206.6
 21
2206.6
  0
LINE
  8
APS_GEOMETRY
 10
0.0
 11
1054.5
 20
3265.1
 21
3265.1
  0
LINE
  8
APS_GEOMETRY
 10
1054.5
 11
1054.5
 20
3265.1
 21
3908.1
  0
LINE
  8
APS_GEOMETRY
 10
1054.5
 11
0.0
 20
3908.1
 21
3908.1
  0
LINE
  8
APS_GEOMETRY
 10
0.0
 11
0.0
 20
3908.1
 21
3265.1
  0
LINE
  8
APS_GEOMETRY
 10
1058.5
 11
2113.0
 20
3265.1
 21
3265.1
  0
LINE
  8
APS_GEOMETRY
 10
2113.0
 11
2113.0
 20
3265.1
 21
3908.1
  0
LINE
  8
APS_GEOMETRY
 10
2113.0
 11
1058.5
 20
3908.1
 21
3908.1
  0
LINE
  8
APS_GEOMETRY
 10
1058.5
 11
1058.5
 20
3908.1
 21
3265.1
  0
LINE
  8
APS_GEOMETRY
 10
2973.6
 11
5493.6
 20
2206.6
 21
2206.6
  0
LINE
  8
APS_GEOMETRY
 10
5493.6
 11
5493.6
 20
2206.6
 21
4076.6
  0
LINE
  8
APS_GEOMETRY
 10
5493.6
 11
2973.6
 20
4076.6
 21
4076.6
  0
LINE
  8
APS_GEOMETRY
 10
2973.6
 11
2973.6
 20
4076.6
 21
2206.6
  0
LINE
  8
QUOTATURA
 10
5493.6
 11
5582.695
 20
4076.6
 21
4165.695
  0
CIRCLE
  8
QUOTATURA
 10
5671.791
 20
4254.791
 40
126.0
  0
LINE
  8
APS_GEOMETRY
 10
3666.6
 11
3666.6
 20
2206.6
 21
3261.1
  0
LINE
  8
APS_GEOMETRY
 10
3666.6
 11
2973.6
 20
3261.1
 21
3261.1
  0
LINE
  8
APS_GEOMETRY
 10
2973.6
 11
2973.6
 20
3261.1
 21
2206.6
  0
LINE
  8
APS_GEOMETRY
 10
2973.6
 11
3666.6
 20
2206.6
 21
2206.6
  0
LINE
  8
APS_GEOMETRY
 10
4363.6
 11
4363.6
 20
2206.6
 21
3261.1
  0
LINE
  8
APS_GEOMETRY
 10
4363.6
 11
3670.6
 20
3261.1
 21
3261.1
  0
LINE
  8
APS_GEOMETRY
 10
3670.6
 11
3670.6
 20
3261.1
 21
2206.6
  0
LINE
  8
APS_GEOMETRY
 10
3670.6
 11
4363.6
 20
2206.6
 21
2206.6
  0
LINE
  8
APS_GEOMETRY
 10
5110.6
 11
5110.6
 20
2206.6
 21
3261.1
  0
LINE
  8
APS_GEOMETRY
 10
5110.6
 11
4367.6
 20
3261.1
 21
3261.1
  0
LINE
  8
APS_GEOMETRY
 10
4367.6
 11
4367.6
 20
3261.1
 21
2206.6
  0
LINE
  8
APS_GEOMETRY
 10
4367.6
 11
5110.6
 20
2206.6
 21
2206.6
  0
LINE
  8
APS_GEOMETRY
 10
2973.6
 11
4028.1
 20
3265.1
 21
3265.1
  0
LINE
  8
APS_GEOMETRY
 10
4028.1
 11
4028.1
 20
3265.1
 21
3908.1
  0
LINE
  8
APS_GEOMETRY
 10
4028.1
 11
2973.6
 20
3908.1
 21
3908.1
  0
LINE
  8
APS_GEOMETRY
 10
2973.6
 11
2973.6
 20
3908.1
 21
3265.1
  0
LINE
  8
APS_GEOMETRY
 10
4032.1
 11
5086.6
 20
3265.1
 21
3265.1
  0
LINE
  8
APS_GEOMETRY
 10
5086.6
 11
5086.6
 20
3265.1
 21
3908.1
  0
LINE
  8
APS_GEOMETRY
 10
5086.6
 11
4032.1
 20
3908.1
 21
3908.1
  0
LINE
  8
APS_GEOMETRY
 10
4032.1
 11
4032.1
 20
3908.1
 21
3265.1
  0
LINE
  8
APS_GEOMETRY
 10
5947.2
 11
8467.2
 20
2206.6
 21
2206.6
  0
LINE
  8
APS_GEOMETRY
 10
8467.2
 11
8467.2
 20
2206.6
 21
4076.6
  0
LINE
  8
APS_GEOMETRY
 10
8467.2
 11
5947.2
 20
4076.6
 21
4076.6
  0
LINE
  8
APS_GEOMETRY
 10
5947.2
 11
5947.2
 20
4076.6
 21
2206.6
  0
LINE
  8
QUOTATURA
 10
8467.2
 11
8556.295
 20
4076.6
 21
4165.695
  0
CIRCLE
  8
QUOTATURA
 10
8645.391
 20
4254.791
 40
126.0
  0
LINE
  8
APS_GEOMETRY
 10
5947.2
 11
7001.7
 20
2206.6
 21
2206.6
  0
LINE
  8
APS_GEOMETRY
 10
7001.7
 11
7001.7
 20
2206.6
 21
2949.6
  0
LINE
  8
APS_GEOMETRY
 10
7001.7
 11
5947.2
 20
2949.6
 21
2949.6
  0
LINE
  8
APS_GEOMETRY
 10
5947.2
 11
5947.2
 20
2949.6
 21
2206.6
  0
LINE
  8
APS_GEOMETRY
 10
7005.7
 11
8060.2
 20
2206.6
 21
2206.6
  0
LINE
  8
APS_GEOMETRY
 10
8060.2
 11
8060.2
 20
2206.6
 21
2949.6
  0
LINE
  8
APS_GEOMETRY
 10
8060.2
 11
7005.7
 20
2949.6
 21
2949.6
  0
LINE
  8
APS_GEOMETRY
 10
7005.7
 11
7005.7
 20
2949.6
 21
2206.6
  0
LINE
  8
APS_GEOMETRY
 10
6690.2
 11
6690.2
 20
2953.6
 21
4008.1
  0
LINE
  8
APS_GEOMETRY
 10
6690.2
 11
5947.2
 20
4008.1
 21
4008.1
  0
LINE
  8
APS_GEOMETRY
 10
5947.2
 11
5947.2
 20
4008.1
 21
2953.6
  0
LINE
  8
APS_GEOMETRY
 10
5947.2
 11
6690.2
 20
2953.6
 21
2953.6
  0
LINE
  8
APS_GEOMETRY
 10
7437.2
 11
7437.2
 20
2953.6
 21
4008.1
  0
LINE
  8
APS_GEOMETRY
 10
7437.2
 11
6694.2
 20
4008.1
 21
4008.1
  0
LINE
  8
APS_GEOMETRY
 10
6694.2
 11
6694.2
 20
4008.1
 21
2953.6
  0
LINE
  8
APS_GEOMETRY
 10
6694.2
 11
7437.2
 20
2953.6
 21
2953.6
  0
LINE
  8
APS_GEOMETRY
 10
8184.2
 11
8184.2
 20
2953.6
 21
4008.1
  0
LINE
  8
APS_GEOMETRY
 10
8184.2
 11
7441.2
 20
4008.1
 21
4008.1
  0
LINE
  8
APS_GEOMETRY
 10
7441.2
 11
7441.2
 20
4008.1
 21
2953.6
  0
LINE
  8
APS_GEOMETRY
 10
7441.2
 11
8184.2
 20
2953.6
 21
2953.6
  0
LINE
  8
APS_GEOMETRY
 10
8920.8
 11
11440.8
 20
2206.6
 21
2206.6
  0
LINE
  8
APS_GEOMETRY
 10
11440.8
 11
11440.8
 20
2206.6
 21
4076.6
  0
LINE
  8
APS_GEOMETRY
 10
11440.8
 11
8920.8
 20
4076.6
 21
4076.6
  0
LINE
  8
APS_GEOMETRY
 10
8920.8
 11
8920.8
 20
4076.6
 21
2206.6
  0
LINE
  8
QUOTATURA
 10
11440.8
 11
11529.895
 20
4076.6
 21
4165.695
  0
CIRCLE
  8
QUOTATURA
 10
11618.991
 20
4254.791
 40
126.0
  0
LINE
  8
APS_GEOMETRY
 10
9663.8
 11
9663.8
 20
2206.6
 21
3261.1
  0
LINE
  8
APS_GEOMETRY
 10
9663.8
 11
8920.8
 20
3261.1
 21
3261.1
  0
LINE
  8
APS_GEOMETRY
 10
8920.8
 11
8920.8
 20
3261.1
 21
2206.6
  0
LINE
  8
APS_GEOMETRY
 10
8920.8
 11
9663.8
 20
2206.6
 21
2206.6
  0
LINE
  8
APS_GEOMETRY
 10
10410.8
 11
10410.8
 20
2206.6
 21
3261.1
  0
LINE
  8
APS_GEOMETRY
 10
10410.8
 11
9667.8
 20
3261.1
 21
3261.1
  0
LINE
  8
APS_GEOMETRY
 10
9667.8
 11
9667.8
 20
3261.1
 21
2206.6
  0
LINE
  8
APS_GEOMETRY
 10
9667.8
 11
10410.8
 20
2206.6
 21
2206.6
  0
LINE
  8
APS_GEOMETRY
 10
11157.8
 11
11157.8
 20
2206.6
 21
3261.1
  0
LINE
  8
APS_GEOMETRY
 10
11157.8
 11
10414.8
 20
3261.1
 21
3261.1
  0
LINE
  8
APS_GEOMETRY
 10
10414.8
 11
10414.8
 20
3261.1
 21
2206.6
  0
LINE
  8
APS_GEOMETRY
 10
10414.8
 11
11157.8
 20
2206.6
 21
2206.6
  0
LINE
  8
APS_GEOMETRY
 10
8920.8
 11
9975.3
 20
3265.1
 21
3265.1
  0
LINE
  8
APS_GEOMETRY
 10
9975.3
 11
9975.3
 20
3265.1
 21
4008.1
  0
LINE
  8
APS_GEOMETRY
 10
9975.3
 11
8920.8
 20
4008.1
 21
4008.1
  0
LINE
  8
APS_GEOMETRY
 10
8920.8
 11
8920.8
 20
4008.1
 21
3265.1
  0
LINE
  8
APS_GEOMETRY
 10
9979.3
 11
11033.8
 20
3265.1
 21
3265.1
  0
LINE
  8
APS_GEOMETRY
 10
11033.8
 11
11033.8
 20
3265.1
 21
4008.1
  0
LINE
  8
APS_GEOMETRY
 10
11033.8
 11
9979.3
 20
4008.1
 21
4008.1
  0
LINE
  8
APS_GEOMETRY
 10
9979.3
 11
9979.3
 20
4008.1
 21
3265.1
  0
LINE
  8
APS_GEOMETRY
 10
0.0
 11
2520.0
 20
4413.2
 21
4413.2
  0
LINE
  8
APS_GEOMETRY
 10
2520.0
 11
2520.0
 20
4413.2
 21
6283.2
  0
LINE
  8
APS_GEOMETRY
 10
2520.0
 11
0.0
 20
6283.2
 21
6283.2
  0
LINE
  8
APS_GEOMETRY
 10
0.0
 11
0.0
 20
6283.2
 21
4413.2
  0
LINE
  8
QUOTATURA
 10
2520.0
 11
2609.095
 20
6283.2
 21
6372.295
  0
CIRCLE
  8
QUOTATURA
 10
2698.191
 20
6461.391
 40
126.0
  0
LINE
  8
APS_GEOMETRY
 10
743.0
 11
743.0
 20
4413.2
 21
5467.7
  0
LINE
  8
APS_GEOMETRY
 10
743.0
 11
0.0
 20
5467.7
 21
5467.7
  0
LINE
  8
APS_GEOMETRY
 10
0.0
 11
0.0
 20
5467.7
 21
4413.2
  0
LINE
  8
APS_GEOMETRY
 10
0.0
 11
743.0
 20
4413.2
 21
4413.2
  0
LINE
  8
APS_GEOMETRY
 10
1490.0
 11
1490.0
 20
4413.2
 21
5467.7
  0
LINE
  8
APS_GEOMETRY
 10
1490.0
 11
747.0
 20
5467.7
 21
5467.7
  0
LINE
  8
APS_GEOMETRY
 10
747.0
 11
747.0
 20
5467.7
 21
4413.2
  0
LINE
  8
APS_GEOMETRY
 10
747.0
 11
1490.0
 20
4413.2
 21
4413.2
  0
LINE
  8
APS_GEOMETRY
 10
2237.0
 11
2237.0
 20
4413.2
 21
5467.7
  0
LINE
  8
APS_GEOMETRY
 10
2237.0
 11
1494.0
 20
5467.7
 21
5467.7
  0
LINE
  8
APS_GEOMETRY
 10
1494.0
 11
1494.0
 20
5467.7
 21
4413.2
  0
LINE
  8
APS_GEOMETRY
 10
1494.0
 11
2237.0
 20
4413.2
 21
4413.2
  0
LINE
  8
APS_GEOMETRY
 10
0.0
 11
1054.5
 20
5471.7
 21
5471.7
  0
LINE
  8
APS_GEOMETRY
 10
1054.5
 11
1054.5
 20
5471.7
 21
6214.7
  0
LINE
  8
APS_GEOMETRY
 10
1054.5
 11
0.0
 20
6214.7
 21
6214.7
  0
LINE
  8
APS_GEOMETRY
 10
0.0
 11
0.0
 20
6214.7
 21
5471.7
  0
LINE
  8
APS_GEOMETRY
 10
1058.5
 11
2113.0
 20
5471.7
 21
5471.7
  0
LINE
  8
APS_GEOMETRY
 10
2113.0
 11
2113.0
 20
5471.7
 21
6214.7
  0
LINE
  8
APS_GEOMETRY
 10
2113.0
 11
1058.5
 20
6214.7
 21
6214.7
  0
LINE
  8
APS_GEOMETRY
 10
1058.5
 11
1058.5
 20
6214.7
 21
5471.7
  0
LINE
  8
APS_GEOMETRY
 10
2973.6
 11
5493.6
 20
4413.2
 21
4413.2
  0
LINE
  8
APS_GEOMETRY
 10
5493.6
 11
5493.6
 20
4413.2
 21
6283.2
  0
LINE
  8
APS_GEOMETRY
 10
5493.6
 11
2973.6
 20
6283.2
 21
6283.2
  0
LINE
  8
APS_GEOMETRY
 10
2973.6
 11
2973.6
 20
6283.2
 21
4413.2
  0
LINE
  8
QUOTATURA
 10
5493.6
 11
5582.695
 20
6283.2
 21
6372.295
  0
CIRCLE
  8
QUOTATURA
 10
5671.791
 20
6461.391
 40
126.0
  0
LINE
  8
APS_GEOMETRY
 10
3716.6
 11
3716.6
 20
4413.2
 21
5467.7
  0
LINE
  8
APS_GEOMETRY
 10
3716.6
 11
2973.6
 20
5467.7
 21
5467.7
  0
LINE
  8
APS_GEOMETRY
 10
2973.6
 11
2973.6
 20
5467.7
 21
4413.2
  0
LINE
  8
APS_GEOMETRY
 10
2973.6
 11
3716.6
 20
4413.2
 21
4413.2
  0
LINE
  8
APS_GEOMETRY
 10
4463.6
 11
4463.6
 20
4413.2
 21
5467.7
  0
LINE
  8
APS_GEOMETRY
 10
4463.6
 11
3720.6
 20
5467.7
 21
5467.7
  0
LINE
  8
APS_GEOMETRY
 10
3720.6
 11
3720.6
 20
5467.7
 21
4413.2
  0
LINE
  8
APS_GEOMETRY
 10
3720.6
 11
4463.6
 20
4413.2
 21
4413.2
  0
LINE
  8
APS_GEOMETRY
 10
5210.6
 11
5210.6
 20
4413.2
 21
5467.7
  0
LINE
  8
APS_GEOMETRY
 10
5210.6
 11
4467.6
 20
5467.7
 21
5467.7
  0
LINE
  8
APS_GEOMETRY
 10
4467.6
 11
4467.6
 20
5467.7
 21
4413.2
  0
LINE
  8
APS_GEOMETRY
 10
4467.6
 11
5210.6
 20
4413.2
 21
4413.2
  0
LINE
  8
APS_GEOMETRY
 10
2973.6
 11
4028.1
 20
5471.7
 21
5471.7
  0
LINE
  8
APS_GEOMETRY
 10
4028.1
 11
4028.1
 20
5471.7
 21
6214.7
  0
LINE
  8
APS_GEOMETRY
 10
4028.1
 11
2973.6
 20
6214.7
 21
6214.7
  0
LINE
  8
APS_GEOMETRY
 10
2973.6
 11
2973.6
 20
6214.7
 21
5471.7
  0
LINE
  8
APS_GEOMETRY
 10
4032.1
 11
5086.6
 20
5471.7
 21
5471.7
  0
LINE
  8
APS_GEOMETRY
 10
5086.6
 11
5086.6
 20
5471.7
 21
6214.7
  0
LINE
  8
APS_GEOMETRY
 10
5086.6
 11
4032.1
 20
6214.7
 21
6214.7
  0
LINE
  8
APS_GEOMETRY
 10
4032.1
 11
4032.1
 20
6214.7
 21
5471.7
  0
LINE
  8
APS_GEOMETRY
 10
5947.2
 11
8467.2
 20
4413.2
 21
4413.2
  0
LINE
  8
APS_GEOMETRY
 10
8467.2
 11
8467.2
 20
4413.2
 21
6283.2
  0
LINE
  8
APS_GEOMETRY
 10
8467.2
 11
5947.2
 20
6283.2
 21
6283.2
  0
LINE
  8
APS_GEOMETRY
 10
5947.2
 11
5947.2
 20
6283.2
 21
4413.2
  0
LINE
  8
QUOTATURA
 10
8467.2
 11
8556.295
 20
6283.2
 21
6372.295
  0
CIRCLE
  8
QUOTATURA
 10
8645.391
 20
6461.391
 40
126.0
  0
LINE
  8
APS_GEOMETRY
 10
6690.2
 11
6690.2
 20
4413.2
 21
5467.7
  0
LINE
  8
APS_GEOMETRY
 10
6690.2
 11
5947.2
 20
5467.7
 21
5467.7
  0
LINE
  8
APS_GEOMETRY
 10
5947.2
 11
5947.2
 20
5467.7
 21
4413.2
  0
LINE
  8
APS_GEOMETRY
 10
5947.2
 11
6690.2
 20
4413.2
 21
4413.2
  0
LINE
  8
APS_GEOMETRY
 10
7437.2
 11
7437.2
 20
4413.2
 21
5467.7
  0
LINE
  8
APS_GEOMETRY
 10
7437.2
 11
6694.2
 20
5467.7
 21
5467.7
  0
LINE
  8
APS_GEOMETRY
 10
6694.2
 11
6694.2
 20
5467.7
 21
4413.2
  0
LINE
  8
APS_GEOMETRY
 10
6694.2
 11
7437.2
 20
4413.2
 21
4413.2
  0
LINE
  8
APS_GEOMETRY
 10
8184.2
 11
8184.2
 20
4413.2
 21
5467.7
  0
LINE
  8
APS_GEOMETRY
 10
8184.2
 11
7441.2
 20
5467.7
 21
5467.7
  0
LINE
  8
APS_GEOMETRY
 10
7441.2
 11
7441.2
 20
5467.7
 21
4413.2
  0
LINE
  8
APS_GEOMETRY
 10
7441.2
 11
8184.2
 20
4413.2
 21
4413.2
  0
LINE
  8
APS_GEOMETRY
 10
5947.2
 11
7001.7
 20
5471.7
 21
5471.7
  0
LINE
  8
APS_GEOMETRY
 10
7001.7
 11
7001.7
 20
5471.7
 21
6214.7
  0
LINE
  8
APS_GEOMETRY
 10
7001.7
 11
5947.2
 20
6214.7
 21
6214.7
  0
LINE
  8
APS_GEOMETRY
 10
5947.2
 11
5947.2
 20
6214.7
 21
5471.7
  0
LINE
  8
APS_GEOMETRY
 10
7005.7
 11
8060.2
 20
5471.7
 21
5471.7
  0
LINE
  8
APS_GEOMETRY
 10
8060.2
 11
8060.2
 20
5471.7
 21
6214.7
  0
LINE
  8
APS_GEOMETRY
 10
8060.2
 11
7005.7
 20
6214.7
 21
6214.7
  0
LINE
  8
APS_GEOMETRY
 10
7005.7
 11
7005.7
 20
6214.7
 21
5471.7
  0
LINE
  8
APS_GEOMETRY
 10
8920.8
 11
11440.8
 20
4413.2
 21
4413.2
  0
LINE
  8
APS_GEOMETRY
 10
11440.8
 11
11440.8
 20
4413.2
 21
6283.2
  0
LINE
  8
APS_GEOMETRY
 10
11440.8
 11
8920.8
 20
6283.2
 21
6283.2
  0
LINE
  8
APS_GEOMETRY
 10
8920.8
 11
8920.8
 20
6283.2
 21
4413.2
  0
LINE
  8
QUOTATURA
 10
11440.8
 11
11529.895
 20
6283.2
 21
6372.295
  0
CIRCLE
  8
QUOTATURA
 10
11618.991
 20
6461.391
 40
126.0
  0
LINE
  8
APS_GEOMETRY
 10
9663.8
 11
9663.8
 20
4413.2
 21
5467.7
  0
LINE
  8
APS_GEOMETRY
 10
9663.8
 11
8920.8
 20
5467.7
 21
5467.7
  0
LINE
  8
APS_GEOMETRY
 10
8920.8
 11
8920.8
 20
5467.7
 21
4413.2
  0
LINE
  8
APS_GEOMETRY
 10
8920.8
 11
9663.8
 20
4413.2
 21
4413.2
  0
LINE
  8
APS_GEOMETRY
 10
10410.8
 11
10410.8
 20
4413.2
 21
5467.7
  0
LINE
  8
APS_GEOMETRY
 10
10410.8
 11
9667.8
 20
5467.7
 21
5467.7
  0
LINE
  8
APS_GEOMETRY
 10
9667.8
 11
9667.8
 20
5467.7
 21
4413.2
  0
LINE
  8
APS_GEOMETRY
 10
9667.8
 11
10410.8
 20
4413.2
 21
4413.2
  0
LINE
  8
APS_GEOMETRY
 10
11157.8
 11
11157.8
 20
4413.2
 21
5467.7
  0
LINE
  8
APS_GEOMETRY
 10
11157.8
 11
10414.8
 20
5467.7
 21
5467.7
  0
LINE
  8
APS_GEOMETRY
 10
10414.8
 11
10414.8
 20
5467.7
 21
4413.2
  0
LINE
  8
APS_GEOMETRY
 10
10414.8
 11
11157.8
 20
4413.2
 21
4413.2
  0
LINE
  8
APS_GEOMETRY
 10
8920.8
 11
9975.3
 20
5471.7
 21
5471.7
  0
LINE
  8
APS_GEOMETRY
 10
9975.3
 11
9975.3
 20
5471.7
 21
6214.7
  0
LINE
  8
APS_GEOMETRY
 10
9975.3
 11
8920.8
 20
6214.7
 21
6214.7
  0
LINE
  8
APS_GEOMETRY
 10
8920.8
 11
8920.8
 20
6214.7
 21
5471.7
  0
LINE
  8
APS_GEOMETRY
 10
9979.3
 11
11033.8
 20
5471.7
 21
5471.7
  0
LINE
  8
APS_GEOMETRY
 10
11033.8
 11
11033.8
 20
5471.7
 21
6214.7
  0
LINE
  8
APS_GEOMETRY
 10
11033.8
 11
9979.3
 20
6214.7
 21
6214.7
  0
LINE
  8
APS_GEOMETRY
 10
9979.3
 11
9979.3
 20
6214.7
 21
5471.7
  0
LINE
  8
APS_GEOMETRY
 10
0.0
 11
2520.0
 20
6619.8
 21
6619.8
  0
LINE
  8
APS_GEOMETRY
 10
2520.0
 11
2520.0
 20
6619.8
 21
8489.8
  0
LINE
  8
APS_GEOMETRY
 10
2520.0
 11
0.0
 20
8489.8
 21
8489.8
  0
LINE
  8
APS_GEOMETRY
 10
0.0
 11
0.0
 20
8489.8
 21
6619.8
  0
LINE
  8
QUOTATURA
 10
2520.0
 11
2609.095
 20
8489.8
 21
8578.895
  0
CIRCLE
  8
QUOTATURA
 10
2698.191
 20
8667.991
 40
126.0
  0
LINE
  8
APS_GEOMETRY
 10
758.0
 11
758.0
 20
6619.8
 21
7675.3
  0
LINE
  8
APS_GEOMETRY
 10
758.0
 11
0.0
 20
7675.3
 21
7675.3
  0
LINE
  8
APS_GEOMETRY
 10
0.0
 11
0.0
 20
7675.3
 21
6619.8
  0
LINE
  8
APS_GEOMETRY
 10
0.0
 11
758.0
 20
6619.8
 21
6619.8
  0
LINE
  8
APS_GEOMETRY
 10
1505.0
 11
1505.0
 20
6619.8
 21
7674.3
  0
LINE
  8
APS_GEOMETRY
 10
1505.0
 11
762.0
 20
7674.3
 21
7674.3
  0
LINE
  8
APS_GEOMETRY
 10
762.0
 11
762.0
 20
7674.3
 21
6619.8
  0
LINE
  8
APS_GEOMETRY
 10
762.0
 11
1505.0
 20
6619.8
 21
6619.8
  0
LINE
  8
APS_GEOMETRY
 10
2267.0
 11
2267.0
 20
6619.8
 21
7675.3
  0
LINE
  8
APS_GEOMETRY
 10
2267.0
 11
1509.0
 20
7675.3
 21
7675.3
  0
LINE
  8
APS_GEOMETRY
 10
1509.0
 11
1509.0
 20
7675.3
 21
6619.8
  0
LINE
  8
APS_GEOMETRY
 10
1509.0
 11
2267.0
 20
6619.8
 21
6619.8
  0
LINE
  8
APS_GEOMETRY
 10
0.0
 11
1055.5
 20
7679.3
 21
7679.3
  0
LINE
  8
APS_GEOMETRY
 10
1055.5
 11
1055.5
 20
7679.3
 21
8437.3
  0
LINE
  8
APS_GEOMETRY
 10
1055.5
 11
0.0
 20
8437.3
 21
8437.3
  0
LINE
  8
APS_GEOMETRY
 10
0.0
 11
0.0
 20
8437.3
 21
7679.3
  0
LINE
  8
APS_GEOMETRY
 10
1059.5
 11
2115.0
 20
7679.3
 21
7679.3
  0
LINE
  8
APS_GEOMETRY
 10
2115.0
 11
2115.0
 20
7679.3
 21
8437.3
  0
LINE
  8
APS_GEOMETRY
 10
2115.0
 11
1059.5
 20
8437.3
 21
8437.3
  0
LINE
  8
APS_GEOMETRY
 10
1059.5
 11
1059.5
 20
8437.3
 21
7679.3
  0
TEXT
  8
QUOTATURA
 10
1087.894
 20
-162.952
 30
0.0
 40
100.0
 50
0.0
  1
2520
  0
TEXT
  8
QUOTATURA
 10
-329.743
 20
885.0
 30
0.0
 40
100.0
 50
0.0
  1
1870
  0
TEXT
  8
TEXT
 10
2609.095
 20
1978.994
 30
0.0
 40
138.393
 50
0.0
  1
A1
  0
TEXT
  8
TEXT
 10
628.751
 20
20.108
 30
0.0
 40
100.0
 50
90.0
  1
643X1054.5
  0
TEXT
  8
TEXT
 10
225.784
 20
420.01
 30
0.0
 40
214.333
 50
0.0
  1
4
  0
TEXT
  8
TEXT
 10
1275.751
 20
20.108
 30
0.0
 40
100.0
 50
90.0
  1
643X1054.5
  0
TEXT
  8
TEXT
 10
872.784
 20
420.01
 30
0.0
 40
214.333
 50
0.0
  1
4
  0
TEXT
  8
TEXT
 10
1922.751
 20
20.108
 30
0.0
 40
100.0
 50
90.0
  1
643X1054.5
  0
TEXT
  8
TEXT
 10
1519.784
 20
420.01
 30
0.0
 40
214.333
 50
0.0
  1
4
  0
TEXT
  8
TEXT
 10
20.108
 20
1072.749
 30
0.0
 40
100.0
 50
0.0
  1
643X1054.5
  0
TEXT
  8
TEXT
 10
431.534
 20
1272.76
 30
0.0
 40
214.333
 50
0.0
  1
4
  0
TEXT
  8
TEXT
 10
1078.608
 20
1072.749
 30
0.0
 40
100.0
 50
0.0
  1
643X1054.5
  0
TEXT
  8
TEXT
 10
1490.034
 20
1272.76
 30
0.0
 40
214.333
 50
0.0
  1
4
  0
TEXT
  8
TEXT
 10
2609.095
 20
4199.491
 30
0.0
 40
110.601
 50
0.0
  1
A2
  0
TEXT
  8
TEXT
 10
628.751
 20
2226.708
 30
0.0
 40
100.0
 50
90.0
  1
643X1054.5
  0
TEXT
  8
TEXT
 10
225.784
 20
2626.61
 30
0.0
 40
214.333
 50
0.0
  1
4
  0
TEXT
  8
TEXT
 10
1275.751
 20
2226.708
 30
0.0
 40
100.0
 50
90.0
  1
643X1054.5
  0
TEXT
  8
TEXT
 10
872.784
 20
2626.61
 30
0.0
 40
214.333
 50
0.0
  1
4
  0
TEXT
  8
TEXT
 10
1922.751
 20
2226.708
 30
0.0
 40
100.0
 50
90.0
  1
643X1054.5
  0
TEXT
  8
TEXT
 10
1519.784
 20
2626.61
 30
0.0
 40
214.333
 50
0.0
  1
4
  0
TEXT
  8
TEXT
 10
20.108
 20
3279.349
 30
0.0
 40
100.0
 50
0.0
  1
643X1054.5
  0
TEXT
  8
TEXT
 10
431.534
 20
3479.36
 30
0.0
 40
214.333
 50
0.0
  1
4
  0
TEXT
  8
TEXT
 10
1078.608
 20
3279.349
 30
0.0
 40
100.0
 50
0.0
  1
643X1054.5
  0
TEXT
  8
TEXT
 10
1490.034
 20
3479.36
 30
0.0
 40
214.333
 50
0.0
  1
4
  0
TEXT
  8
TEXT
 10
5582.695
 20
4202.078
 30
0.0
 40
105.426
 50
0.0
  1
A3
  0
TEXT
  8
TEXT
 10
3652.351
 20
2226.708
 30
0.0
 40
100.0
 50
90.0
  1
693x1054.5
  0
TEXT
  8
TEXT
 10
3280.469
 20
2618.35
 30
0.0
 40
231.0
 50
0.0
  1
1
  0
TEXT
  8
TEXT
 10
4349.351
 20
2226.708
 30
0.0
 40
100.0
 50
90.0
  1
693x1054.5
  0
TEXT
  8
TEXT
 10
3977.469
 20
2618.35
 30
0.0
 40
231.0
 50
0.0
  1
1
  0
TEXT
  8
TEXT
 10
5096.351
 20
2226.708
 30
0.0
 40
100.0
 50
90.0
  1
743x1054.5
  0
TEXT
  8
TEXT
 10
4648.785
 20
2612.026
 30
0.0
 40
247.667
 50
0.0
  1
5
  0
TEXT
  8
TEXT
 10
2993.708
 20
3279.349
 30
0.0
 40
100.0
 50
0.0
  1
643X1054.5
  0
TEXT
  8
TEXT
 10
3405.134
 20
3479.36
 30
0.0
 40
214.333
 50
0.0
  1
4
  0
TEXT
  8
TEXT
 10
4052.208
 20
3279.349
 30
0.0
 40
100.0
 50
0.0
  1
643X1054.5
  0
TEXT
  8
TEXT
 10
4463.634
 20
3479.36
 30
0.0
 40
214.333
 50
0.0
  1
4
  0
TEXT
  8
TEXT
 10
8556.295
 20
4205.504
 30
0.0
 40
98.574
 50
0.0
  1
A4
  0
TEXT
  8
TEXT
 10
5967.308
 20
2220.849
 30
0.0
 40
100.0
 50
0.0
  1
743x1054.5
  0
TEXT
  8
TEXT
 10
6391.895
 20
2454.268
 30
0.0
 40
247.667
 50
0.0
  1
2
  0
TEXT
  8
TEXT
 10
7025.808
 20
2220.849
 30
0.0
 40
100.0
 50
0.0
  1
743x1054.5
  0
TEXT
  8
TEXT
 10
7450.395
 20
2454.268
 30
0.0
 40
247.667
 50
0.0
  1
2
  0
TEXT
  8
TEXT
 10
6675.951
 20
2973.708
 30
0.0
 40
100.0
 50
90.0
  1
743x1054.5
  0
TEXT
  8
TEXT
 10
6236.145
 20
3357.018
 30
0.0
 40
247.667
 50
0.0
  1
2
  0
TEXT
  8
TEXT
 10
7422.951
 20
2973.708
 30
0.0
 40
100.0
 50
90.0
  1
743x1054.5
  0
TEXT
  8
TEXT
 10
6975.385
 20
3359.026
 30
0.0
 40
247.667
 50
0.0
  1
5
  0
TEXT
  8
TEXT
 10
8169.951
 20
2973.708
 30
0.0
 40
100.0
 50
90.0
  1
743x1054.5
  0
TEXT
  8
TEXT
 10
7730.145
 20
3357.018
 30
0.0
 40
247.667
 50
0.0
  1
2
  0
TEXT
  8
TEXT
 10
11529.895
 20
4202.316
 30
0.0
 40
106.681
 50
0.0
  1
A5
  0
TEXT
  8
TEXT
 10
9649.551
 20
2226.708
 30
0.0
 40
100.0
 50
90.0
  1
743x1054.5
  0
TEXT
  8
TEXT
 10
9209.745
 20
2610.018
 30
0.0
 40
247.667
 50
0.0
  1
2
  0
TEXT
  8
TEXT
 10
10396.551
 20
2226.708
 30
0.0
 40
100.0
 50
90.0
  1
743x1054.5
  0
TEXT
  8
TEXT
 10
9956.745
 20
2610.018
 30
0.0
 40
247.667
 50
0.0
  1
2
  0
TEXT
  8
TEXT
 10
11143.551
 20
2226.708
 30
0.0
 40
100.0
 50
90.0
  1
743x1054.5
  0
TEXT
  8
TEXT
 10
10703.745
 20
2610.018
 30
0.0
 40
247.667
 50
0.0
  1
2
  0
TEXT
  8
TEXT
 10
8940.908
 20
3279.349
 30
0.0
 40
100.0
 50
0.0
  1
743x1054.5
  0
TEXT
  8
TEXT
 10
9365.495
 20
3512.768
 30
0.0
 40
247.667
 50
0.0
  1
2
  0
TEXT
  8
TEXT
 10
9999.408
 20
3279.349
 30
0.0
 40
100.0
 50
0.0
  1
743x1054.5
  0
TEXT
  8
TEXT
 10
10423.995
 20
3512.768
 30
0.0
 40
247.667
 50
0.0
  1
2
  0
TEXT
  8
TEXT
 10
2609.095
 20
6408.888
 30
0.0
 40
107.29
 50
0.0
  1
A6
  0
TEXT
  8
TEXT
 10
728.751
 20
4433.308
 30
0.0
 40
100.0
 50
90.0
  1
743x1054.5
  0
TEXT
  8
TEXT
 10
288.945
 20
4816.618
 30
0.0
 40
247.667
 50
0.0
  1
2
  0
TEXT
  8
TEXT
 10
1475.751
 20
4433.308
 30
0.0
 40
100.0
 50
90.0
  1
743x1054.5
  0
TEXT
  8
TEXT
 10
1035.945
 20
4816.618
 30
0.0
 40
247.667
 50
0.0
  1
2
  0
TEXT
  8
TEXT
 10
2222.751
 20
4433.308
 30
0.0
 40
100.0
 50
90.0
  1
743x1054.5
  0
TEXT
  8
TEXT
 10
1782.945
 20
4816.618
 30
0.0
 40
247.667
 50
0.0
  1
2
  0
TEXT
  8
TEXT
 10
20.108
 20
5485.949
 30
0.0
 40
100.0
 50
0.0
  1
743x1054.5
  0
TEXT
  8
TEXT
 10
444.695
 20
5719.368
 30
0.0
 40
247.667
 50
0.0
  1
2
  0
TEXT
  8
TEXT
 10
1078.608
 20
5485.949
 30
0.0
 40
100.0
 50
0.0
  1
743x1054.5
  0
TEXT
  8
TEXT
 10
1503.195
 20
5719.368
 30
0.0
 40
247.667
 50
0.0
  1
2
  0
TEXT
  8
TEXT
 10
5582.695
 20
6408.802
 30
0.0
 40
105.177
 50
0.0
  1
A7
  0
TEXT
  8
TEXT
 10
3702.351
 20
4433.308
 30
0.0
 40
100.0
 50
90.0
  1
743x1054.5
  0
TEXT
  8
TEXT
 10
3262.545
 20
4816.618
 30
0.0
 40
247.667
 50
0.0
  1
2
  0
TEXT
  8
TEXT
 10
4449.351
 20
4433.308
 30
0.0
 40
100.0
 50
90.0
  1
743x1054.5
  0
TEXT
  8
TEXT
 10
4009.545
 20
4816.618
 30
0.0
 40
247.667
 50
0.0
  1
2
  0
TEXT
  8
TEXT
 10
5196.351
 20
4433.308
 30
0.0
 40
100.0
 50
90.0
  1
743x1054.5
  0
TEXT
  8
TEXT
 10
4756.545
 20
4816.618
 30
0.0
 40
247.667
 50
0.0
  1
2
  0
TEXT
  8
TEXT
 10
2993.708
 20
5485.949
 30
0.0
 40
100.0
 50
0.0
  1
743x1054.5
  0
TEXT
  8
TEXT
 10
3418.295
 20
5719.368
 30
0.0
 40
247.667
 50
0.0
  1
2
  0
TEXT
  8
TEXT
 10
4052.208
 20
5485.949
 30
0.0
 40
100.0
 50
0.0
  1
743x1054.5
  0
TEXT
  8
TEXT
 10
4476.795
 20
5719.368
 30
0.0
 40
247.667
 50
0.0
  1
2
  0
TEXT
  8
TEXT
 10
8556.295
 20
6409.203
 30
0.0
 40
106.397
 50
0.0
  1
A8
  0
TEXT
  8
TEXT
 10
6675.951
 20
4433.308
 30
0.0
 40
100.0
 50
90.0
  1
743x1054.5
  0
TEXT
  8
TEXT
 10
6236.145
 20
4816.618
 30
0.0
 40
247.667
 50
0.0
  1
2
  0
TEXT
  8
TEXT
 10
7422.951
 20
4433.308
 30
0.0
 40
100.0
 50
90.0
  1
743x1054.5
  0
TEXT
  8
TEXT
 10
6983.145
 20
4816.618
 30
0.0
 40
247.667
 50
0.0
  1
2
  0
TEXT
  8
TEXT
 10
8169.951
 20
4433.308
 30
0.0
 40
100.0
 50
90.0
  1
743x1054.5
  0
TEXT
  8
TEXT
 10
7730.145
 20
4816.618
 30
0.0
 40
247.667
 50
0.0
  1
2
  0
TEXT
  8
TEXT
 10
5967.308
 20
5485.949
 30
0.0
 40
100.0
 50
0.0
  1
743x1054.5
  0
TEXT
  8
TEXT
 10
6391.895
 20
5719.368
 30
0.0
 40
247.667
 50
0.0
  1
2
  0
TEXT
  8
TEXT
 10
7025.808
 20
5485.949
 30
0.0
 40
100.0
 50
0.0
  1
743x1054.5
  0
TEXT
  8
TEXT
 10
7450.395
 20
5719.368
 30
0.0
 40
247.667
 50
0.0
  1
2
  0
TEXT
  8
TEXT
 10
11529.895
 20
6408.848
 30
0.0
 40
107.76
 50
0.0
  1
A9
  0
TEXT
  8
TEXT
 10
9649.551
 20
4433.308
 30
0.0
 40
100.0
 50
90.0
  1
743x1054.5
  0
TEXT
  8
TEXT
 10
9209.745
 20
4816.618
 30
0.0
 40
247.667
 50
0.0
  1
2
  0
TEXT
  8
TEXT
 10
10396.551
 20
4433.308
 30
0.0
 40
100.0
 50
90.0
  1
743x1054.5
  0
TEXT
  8
TEXT
 10
9956.745
 20
4816.618
 30
0.0
 40
247.667
 50
0.0
  1
2
  0
TEXT
  8
TEXT
 10
11143.551
 20
4433.308
 30
0.0
 40
100.0
 50
90.0
  1
743x1054.5
  0
TEXT
  8
TEXT
 10
10703.745
 20
4816.618
 30
0.0
 40
247.667
 50
0.0
  1
2
  0
TEXT
  8
TEXT
 10
8940.908
 20
5485.949
 30
0.0
 40
100.0
 50
0.0
  1
743x1054.5
  0
TEXT
  8
TEXT
 10
9365.495
 20
5719.368
 30
0.0
 40
247.667
 50
0.0
  1
2
  0
TEXT
  8
TEXT
 10
9999.408
 20
5485.949
 30
0.0
 40
100.0
 50
0.0
  1
743x1054.5
  0
TEXT
  8
TEXT
 10
10423.995
 20
5719.368
 30
0.0
 40
247.667
 50
0.0
  1
2
  0
TEXT
  8
TEXT
 10
2609.095
 20
8629.765
 30
0.0
 40
78.363
 50
0.0
  1
A10
  0
TEXT
  8
TEXT
 10
743.751
 20
6639.908
 30
0.0
 40
100.0
 50
90.0
  1
758x1055.5
  0
TEXT
  8
TEXT
 10
281.402
 20
7021.091
 30
0.0
 40
252.667
 50
0.0
  1
3
  0
TEXT
  8
TEXT
 10
1490.751
 20
6639.908
 30
0.0
 40
100.0
 50
90.0
  1
743x1054.5
  0
TEXT
  8
TEXT
 10
1050.945
 20
7023.218
 30
0.0
 40
247.667
 50
0.0
  1
2
  0
TEXT
  8
TEXT
 10
2252.751
 20
6639.908
 30
0.0
 40
100.0
 50
90.0
  1
758x1055.5
  0
TEXT
  8
TEXT
 10
1790.402
 20
7021.091
 30
0.0
 40
252.667
 50
0.0
  1
3
  0
TEXT
  8
TEXT
 10
20.108
 20
7693.549
 30
0.0
 40
100.0
 50
0.0
  1
758x1055.5
  0
TEXT
  8
TEXT
 10
430.152
 20
7931.841
 30
0.0
 40
252.667
 50
0.0
  1
3
  0
TEXT
  8
TEXT
 10
1079.608
 20
7693.549
 30
0.0
 40
100.0
 50
0.0
  1
758x1055.5
  0
TEXT
  8
TEXT
 10
1489.652
 20
7931.841
 30
0.0
 40
252.667
 50
0.0
  1
3
  0
ENDSEC
  0
EOF
