  0
SECTION
  2
ENTITIES
  0
LINE
  8
APS_GEOMETRY
 10
-582.231
 11
-573.614
 20
-640.26
 21
-640.26
  0
ARC
  8
APS_GEOMETRY
 10
-574.05
 20
-627.912
 40
12.355
 50
272.021
 51
278.44
  0
ARC
  8
APS_GEOMETRY
 10
-573.564
 20
-631.19
 40
9.042
 50
278.44
 51
285.945
  0
ARC
  8
APS_GEOMETRY
 10
-569.905
 20
-644.288
 40
4.559
 50
98.584
 51
104.931
  0
ARC
  8
APS_GEOMETRY
 10
-570.213
 20
-642.248
 40
2.495
 50
90.0
 51
98.584
  0
ARC
  8
APS_GEOMETRY
 10
-570.213
 20
-641.629
 40
1.876
 50
52.871
 51
90.0
  0
ARC
  8
APS_GEOMETRY
 10
-572.757
 20
-644.989
 40
6.091
 50
32.518
 51
52.871
  0
ARC
  8
APS_GEOMETRY
 10
-574.773
 20
-646.274
 40
8.481
 50
17.209
 51
32.518
  0
ARC
  8
APS_GEOMETRY
 10
-573.093
 20
-645.754
 40
6.723
 50
360.0
 51
17.209
  0
ARC
  8
APS_GEOMETRY
 10
-569.729
 20
-645.754
 40
3.359
 50
337.348
 51
360.0
  0
ARC
  8
APS_GEOMETRY
 10
-568.379
 20
-646.317
 40
1.896
 50
307.042
 51
337.348
  0
ARC
  8
APS_GEOMETRY
 10
-568.614
 20
-645.995
 40
2.295
 50
287.186
 51
306.87
  0
ARC
  8
APS_GEOMETRY
 10
-568.823
 20
-645.318
 40
3.003
 50
270.0
 51
287.186
  0
ARC
  8
APS_GEOMETRY
 10
-568.823
 20
-645.624
 40
2.697
 50
252.221
 51
270.0
  0
ARC
  8
APS_GEOMETRY
 10
-568.949
 20
-646.016
 40
2.286
 50
232.896
 51
252.221
  0
ARC
  8
APS_GEOMETRY
 10
-568.463
 20
-645.374
 40
3.09
 50
218.3
 51
232.896
  0
ARC
  8
APS_GEOMETRY
 10
-564.673
 20
-642.381
 40
7.92
 50
209.197
 51
218.3
  0
ARC
  8
APS_GEOMETRY
 10
-583.95
 20
-652.825
 40
14.006
 50
28.025
 51
32.699
  0
ARC
  8
APS_GEOMETRY
 10
-573.872
 20
-646.355
 40
2.03
 50
32.699
 51
45.0
  0
ARC
  8
APS_GEOMETRY
 10
-573.185
 20
-645.668
 40
1.058
 50
45.0
 51
67.557
  0
ARC
  8
APS_GEOMETRY
 10
-573.189
 20
-645.678
 40
1.069
 50
67.557
 51
90.0
  0
ARC
  8
APS_GEOMETRY
 10
-573.189
 20
-645.594
 40
0.984
 50
90.0
 51
120.801
  0
ARC
  8
APS_GEOMETRY
 10
-573.222
 20
-645.538
 40
0.919
 50
120.801
 51
152.7
  0
ARC
  8
APS_GEOMETRY
 10
-572.493
 20
-645.914
 40
1.74
 50
152.7
 51
171.085
  0
ARC
  8
APS_GEOMETRY
 10
-566.948
 20
-646.784
 40
7.353
 50
171.085
 51
180.0
  0
LINE
  8
APS_GEOMETRY
 10
-574.301
 11
-574.301
 20
-646.784
 21
-655.941
  0
ARC
  8
APS_GEOMETRY
 10
-564.587
 20
-655.941
 40
9.714
 50
180.0
 51
188.194
  0
ARC
  8
APS_GEOMETRY
 10
-571.841
 20
-656.986
 40
2.385
 50
188.194
 51
204.775
  0
ARC
  8
APS_GEOMETRY
 10
-572.546
 20
-657.311
 40
1.609
 50
204.775
 51
228.576
  0
ARC
  8
APS_GEOMETRY
 10
-571.885
 20
-656.562
 40
2.608
 50
228.576
 51
247.218
  0
ARC
  8
APS_GEOMETRY
 10
-575.719
 20
-665.598
 40
7.208
 50
59.381
 51
66.93
  0
ARC
  8
APS_GEOMETRY
 10
-572.889
 20
-660.815
 40
1.65
 50
43.568
 51
59.381
  0
ARC
  8
APS_GEOMETRY
 10
-572.436
 20
-660.384
 40
1.025
 50
19.041
 51
43.568
  0
ARC
  8
APS_GEOMETRY
 10
-573.065
 20
-660.601
 40
1.691
 50
360.0
 51
19.041
  0
ARC
  8
APS_GEOMETRY
 10
-572.748
 20
-660.601
 40
1.374
 50
317.66
 51
360.0
  0
ARC
  8
APS_GEOMETRY
 10
-574.009
 20
-659.452
 40
3.08
 50
289.747
 51
317.66
  0
ARC
  8
APS_GEOMETRY
 10
-575.065
 20
-656.51
 40
6.206
 50
281.964
 51
289.747
  0
ARC
  8
APS_GEOMETRY
 10
-576.528
 20
-649.604
 40
13.265
 50
276.643
 51
281.964
  0
ARC
  8
APS_GEOMETRY
 10
-577.144
 20
-644.316
 40
18.589
 50
272.836
 51
276.643
  0
ARC
  8
APS_GEOMETRY
 10
-577.882
 20
-629.428
 40
33.495
 50
270.0
 51
272.836
  0
ARC
  8
APS_GEOMETRY
 10
-577.882
 20
-620.203
 40
42.72
 50
267.283
 51
270.0
  0
ARC
  8
APS_GEOMETRY
 10
-578.779
 20
-639.105
 40
23.797
 50
263.643
 51
267.283
  0
ARC
  8
APS_GEOMETRY
 10
-579.53
 20
-645.847
 40
17.014
 50
258.563
 51
263.643
  0
ARC
  8
APS_GEOMETRY
 10
-581.324
 20
-654.716
 40
7.964
 50
251.136
 51
258.563
  0
ARC
  8
APS_GEOMETRY
 10
-582.926
 20
-659.363
 40
3.05
 50
222.558
 51
251.395
  0
ARC
  8
APS_GEOMETRY
 10
-584.115
 20
-660.454
 40
1.436
 50
180.0
 51
222.558
  0
ARC
  8
APS_GEOMETRY
 10
-584.355
 20
-660.454
 40
1.196
 50
150.642
 51
180.0
  0
ARC
  8
APS_GEOMETRY
 10
-584.259
 20
-660.508
 40
1.306
 50
122.574
 51
150.642
  0
ARC
  8
APS_GEOMETRY
 10
-584.513
 20
-660.217
 40
0.926
 50
108.677
 51
119.055
  0
ARC
  8
APS_GEOMETRY
 10
-572.955
 20
-694.409
 40
37.018
 50
107.038
 51
108.677
  0
ARC
  8
APS_GEOMETRY
 10
-584.232
 20
-657.527
 40
1.549
 50
286.144
 51
308.66
  0
ARC
  8
APS_GEOMETRY
 10
-583.978
 20
-657.844
 40
1.143
 50
308.66
 51
334.933
  0
ARC
  8
APS_GEOMETRY
 10
-585.011
 20
-657.361
 40
2.283
 50
334.933
 51
348.829
  0
ARC
  8
APS_GEOMETRY
 10
-597.924
 20
-654.811
 40
15.445
 50
348.829
 51
354.161
  0
ARC
  8
APS_GEOMETRY
 10
-606.652
 20
-653.911
 40
24.219
 50
354.144
 51
355.66
  0
ARC
  8
APS_GEOMETRY
 10
-645.34
 20
-650.976
 40
63.019
 50
355.66
 51
356.6
  0
ARC
  8
APS_GEOMETRY
 10
-674.914
 20
-649.219
 40
92.646
 50
356.6
 51
357.24
  0
ARC
  8
APS_GEOMETRY
 10
-758.827
 20
-645.173
 40
176.656
 50
357.24
 51
357.703
  0
ARC
  8
APS_GEOMETRY
 10
-750.567
 20
-645.504
 40
168.389
 50
357.703
 51
358.674
  0
ARC
  8
APS_GEOMETRY
 10
-672.65
 20
-647.307
 40
90.452
 50
358.674
 51
0.0
  0
ARC
  8
APS_GEOMETRY
 10
-595.604
 20
-647.307
 40
13.405
 50
360.0
 51
6.242
  0
ARC
  8
APS_GEOMETRY
 10
-584.944
 20
-646.141
 40
2.682
 50
6.242
 51
20.225
  0
ARC
  8
APS_GEOMETRY
 10
-583.467
 20
-645.597
 40
1.107
 50
20.225
 51
50.44
  0
ARC
  8
APS_GEOMETRY
 10
-583.18
 20
-645.25
 40
0.657
 50
50.44
 51
90.0
  0
ARC
  8
APS_GEOMETRY
 10
-583.18
 20
-645.474
 40
0.881
 50
90.0
 51
126.747
  0
ARC
  8
APS_GEOMETRY
 10
-581.935
 20
-647.142
 40
2.962
 50
126.747
 51
146.547
  0
ARC
  8
APS_GEOMETRY
 10
-603.929
 20
-632.685
 40
23.357
 50
324.255
 51
326.701
  0
ARC
  8
APS_GEOMETRY
 10
-594.617
 20
-639.387
 40
11.885
 50
320.826
 51
324.255
  0
ARC
  8
APS_GEOMETRY
 10
-591.574
 20
-641.867
 40
7.959
 50
315.722
 51
320.826
  0
ARC
  8
APS_GEOMETRY
 10
-588.077
 20
-645.277
 40
3.075
 50
307.504
 51
315.722
  0
ARC
  8
APS_GEOMETRY
 10
-588.4
 20
-644.846
 40
3.613
 50
291.306
 51
307.405
  0
ARC
  8
APS_GEOMETRY
 10
-587.84
 20
-646.281
 40
2.073
 50
270.0
 51
291.306
  0
ARC
  8
APS_GEOMETRY
 10
-587.84
 20
-646.414
 40
1.939
 50
245.532
 51
270.0
  0
ARC
  8
APS_GEOMETRY
 10
-587.855
 20
-646.447
 40
1.904
 50
220.833
 51
245.532
  0
ARC
  8
APS_GEOMETRY
 10
-587.658
 20
-646.277
 40
2.164
 50
198.684
 51
220.833
  0
ARC
  8
APS_GEOMETRY
 10
-586.837
 20
-645.999
 40
3.03
 50
180.0
 51
198.684
  0
ARC
  8
APS_GEOMETRY
 10
-584.914
 20
-645.999
 40
4.954
 50
168.408
 51
180.0
  0
ARC
  8
APS_GEOMETRY
 10
-581.738
 20
-646.651
 40
8.196
 50
159.402
 51
168.408
  0
ARC
  8
APS_GEOMETRY
 10
-580.756
 20
-647.02
 40
9.245
 50
151.39
 51
159.402
  0
ARC
  8
APS_GEOMETRY
 10
-580.957
 20
-646.91
 40
9.016
 50
143.276
 51
151.39
  0
ARC
  8
APS_GEOMETRY
 10
-583.482
 20
-645.022
 40
5.863
 50
124.216
 51
143.31
  0
ARC
  8
APS_GEOMETRY
 10
-585.731
 20
-641.715
 40
1.864
 50
90.0
 51
124.216
  0
ARC
  8
APS_GEOMETRY
 10
-585.731
 20
-642.543
 40
2.692
 50
82.725
 51
90.0
  0
ARC
  8
APS_GEOMETRY
 10
-585.941
 20
-644.191
 40
4.353
 50
77.005
 51
82.725
  0
ARC
  8
APS_GEOMETRY
 10
-579.517
 20
-613.218
 40
27.28
 50
258.486
 51
260.378
  0
ARC
  8
APS_GEOMETRY
 10
-582.269
 20
-629.45
 40
10.816
 50
260.378
 51
263.382
  0
ARC
  8
APS_GEOMETRY
 10
-582.504
 20
-631.479
 40
8.774
 50
263.382
 51
267.084
  0
ARC
  8
APS_GEOMETRY
 10
-582.231
 20
-626.123
 40
14.137
 50
267.084
 51
270.0
  0
ARC
  8
APS_GEOMETRY
 10
-552.368
 20
-652.693
 40
12.891
 50
71.91
 51
90.0
  0
ARC
  8
APS_GEOMETRY
 10
-551.869
 20
-651.164
 40
11.283
 50
52.561
 51
71.91
  0
ARC
  8
APS_GEOMETRY
 10
-551.999
 20
-651.202
 40
11.393
 50
38.846
 51
52.156
  0
ARC
  8
APS_GEOMETRY
 10
-553.786
 20
-652.641
 40
13.686
 50
26.707
 51
38.846
  0
ARC
  8
APS_GEOMETRY
 10
-553.432
 20
-652.352
 40
13.241
 50
13.868
 51
26.278
  0
ARC
  8
APS_GEOMETRY
 10
-550.882
 20
-651.722
 40
10.614
 50
360.0
 51
13.868
  0
ARC
  8
APS_GEOMETRY
 10
-550.717
 20
-651.722
 40
10.449
 50
339.712
 51
360.0
  0
ARC
  8
APS_GEOMETRY
 10
-551.305
 20
-651.505
 40
11.076
 50
320.013
 51
339.712
  0
ARC
  8
APS_GEOMETRY
 10
-551.403
 20
-651.451
 40
11.186
 50
303.344
 51
320.123
  0
ARC
  8
APS_GEOMETRY
 10
-552.551
 20
-649.707
 40
13.274
 50
287.949
 51
303.344
  0
ARC
  8
APS_GEOMETRY
 10
-552.928
 20
-648.399
 40
14.634
 50
279.039
 51
287.776
  0
ARC
  8
APS_GEOMETRY
 10
-552.777
 20
-649.348
 40
13.673
 50
270.0
 51
279.039
  0
ARC
  8
APS_GEOMETRY
 10
-552.777
 20
-650.016
 40
13.005
 50
257.728
 51
270.0
  0
ARC
  8
APS_GEOMETRY
 10
-552.756
 20
-649.922
 40
13.102
 50
245.501
 51
257.728
  0
ARC
  8
APS_GEOMETRY
 10
-553.493
 20
-651.533
 40
11.33
 50
228.665
 51
245.511
  0
ARC
  8
APS_GEOMETRY
 10
-553.738
 20
-651.812
 40
10.959
 50
211.535
 51
228.665
  0
ARC
  8
APS_GEOMETRY
 10
-553.417
 20
-651.576
 40
11.356
 50
195.642
 51
211.701
  0
ARC
  8
APS_GEOMETRY
 10
-552.83
 20
-651.412
 40
11.966
 50
180.0
 51
195.642
  0
ARC
  8
APS_GEOMETRY
 10
-552.704
 20
-651.412
 40
12.091
 50
162.181
 51
180.0
  0
ARC
  8
APS_GEOMETRY
 10
-553.807
 20
-651.057
 40
10.933
 50
143.434
 51
162.181
  0
ARC
  8
APS_GEOMETRY
 10
-553.956
 20
-650.938
 40
10.742
 50
126.384
 51
143.471
  0
ARC
  8
APS_GEOMETRY
 10
-552.939
 20
-652.318
 40
12.457
 50
110.525
 51
126.384
  0
ARC
  8
APS_GEOMETRY
 10
-552.989
 20
-651.944
 40
12.089
 50
99.77
 51
110.925
  0
ARC
  8
APS_GEOMETRY
 10
-552.368
 20
-655.55
 40
15.748
 50
90.0
 51
99.77
  0
ARC
  8
APS_GEOMETRY
 10
-553.921
 20
-646.898
 40
2.404
 50
90.0
 51
119.604
  0
ARC
  8
APS_GEOMETRY
 10
-553.711
 20
-647.269
 40
2.83
 50
119.604
 51
146.842
  0
ARC
  8
APS_GEOMETRY
 10
-553.288
 20
-647.616
 40
3.374
 50
145.84
 51
164.055
  0
ARC
  8
APS_GEOMETRY
 10
-552.307
 20
-647.896
 40
4.394
 50
164.055
 51
180.0
  0
ARC
  8
APS_GEOMETRY
 10
-546.175
 20
-647.896
 40
10.526
 50
180.0
 51
189.977
  0
ARC
  8
APS_GEOMETRY
 10
-536.849
 20
-646.256
 40
19.995
 50
189.977
 51
197.211
  0
ARC
  8
APS_GEOMETRY
 10
-534.809
 20
-645.624
 40
22.131
 50
197.211
 51
203.76
  0
ARC
  8
APS_GEOMETRY
 10
-539.891
 20
-647.861
 40
16.579
 50
203.76
 51
211.329
  0
ARC
  8
APS_GEOMETRY
 10
-550.325
 20
-654.122
 40
4.411
 50
212.32
 51
224.441
  0
ARC
  8
APS_GEOMETRY
 10
-550.752
 20
-654.542
 40
3.812
 50
224.441
 51
237.484
  0
ARC
  8
APS_GEOMETRY
 10
-551.029
 20
-654.976
 40
3.298
 50
237.484
 51
252.416
  0
ARC
  8
APS_GEOMETRY
 10
-551.305
 20
-655.847
 40
2.383
 50
252.416
 51
270.0
  0
ARC
  8
APS_GEOMETRY
 10
-551.305
 20
-655.565
 40
2.666
 50
270.0
 51
294.953
  0
ARC
  8
APS_GEOMETRY
 10
-551.23
 20
-655.725
 40
2.489
 50
294.953
 51
320.793
  0
ARC
  8
APS_GEOMETRY
 10
-551.631
 20
-655.399
 40
3.005
 50
320.793
 51
342.777
  0
ARC
  8
APS_GEOMETRY
 10
-553.415
 20
-654.845
 40
4.873
 50
342.777
 51
0.0
  0
ARC
  8
APS_GEOMETRY
 10
-561.795
 20
-654.845
 40
13.254
 50
0.0
 51
8.499
  0
ARC
  8
APS_GEOMETRY
 10
-567.629
 20
-655.717
 40
19.152
 50
8.499
 51
15.566
  0
ARC
  8
APS_GEOMETRY
 10
-566.927
 20
-655.522
 40
18.424
 50
15.566
 51
22.909
  0
ARC
  8
APS_GEOMETRY
 10
-560.896
 20
-652.973
 40
11.876
 50
22.909
 51
32.057
  0
ARC
  8
APS_GEOMETRY
 10
-556.158
 20
-649.988
 40
6.276
 50
31.921
 51
42.51
  0
ARC
  8
APS_GEOMETRY
 10
-554.857
 20
-648.795
 40
4.511
 50
42.51
 51
55.008
  0
ARC
  8
APS_GEOMETRY
 10
-554.417
 20
-648.168
 40
3.745
 50
55.008
 51
69.88
  0
ARC
  8
APS_GEOMETRY
 10
-554.023
 20
-647.092
 40
2.599
 50
69.88
 51
87.754
  0
ARC
  8
APS_GEOMETRY
 10
-528.158
 20
-647.794
 40
7.992
 50
83.923
 51
90.0
  0
ARC
  8
APS_GEOMETRY
 10
-528.8
 20
-653.831
 40
14.063
 50
79.342
 51
83.923
  0
ARC
  8
APS_GEOMETRY
 10
-529.576
 20
-657.951
 40
18.256
 50
75.808
 51
79.342
  0
ARC
  8
APS_GEOMETRY
 10
-532.281
 20
-668.649
 40
29.29
 50
73.018
 51
75.808
  0
ARC
  8
APS_GEOMETRY
 10
-522.755
 20
-637.402
 40
3.376
 50
253.288
 51
259.046
  0
ARC
  8
APS_GEOMETRY
 10
-523.219
 20
-639.799
 40
0.935
 50
259.046
 51
270.0
  0
ARC
  8
APS_GEOMETRY
 10
-523.219
 20
-640.179
 40
0.555
 50
270.0
 51
286.699
  0
ARC
  8
APS_GEOMETRY
 10
-527.656
 20
-625.39
 40
15.995
 50
286.699
 51
289.799
  0
ARC
  8
APS_GEOMETRY
 10
-521.711
 20
-641.845
 40
1.501
 50
100.008
 51
110.556
  0
ARC
  8
APS_GEOMETRY
 10
-521.682
 20
-642.009
 40
1.667
 50
90.0
 51
100.008
  0
ARC
  8
APS_GEOMETRY
 10
-521.682
 20
-641.931
 40
1.59
 50
53.356
 51
90.0
  0
ARC
  8
APS_GEOMETRY
 10
-524.459
 20
-645.664
 40
6.242
 50
35.101
 51
53.356
  0
ARC
  8
APS_GEOMETRY
 10
-525.845
 20
-646.638
 40
7.936
 50
20.245
 51
35.101
  0
ARC
  8
APS_GEOMETRY
 10
-522.428
 20
-645.378
 40
4.294
 50
360.0
 51
20.245
  0
ARC
  8
APS_GEOMETRY
 10
-520.709
 20
-645.378
 40
2.575
 50
340.481
 51
360.0
  0
ARC
  8
APS_GEOMETRY
 10
-520.285
 20
-645.528
 40
2.125
 50
318.972
 51
340.481
  0
ARC
  8
APS_GEOMETRY
 10
-520.096
 20
-645.693
 40
1.874
 50
295.017
 51
318.972
  0
ARC
  8
APS_GEOMETRY
 10
-520.031
 20
-645.832
 40
1.721
 50
270.0
 51
295.017
  0
ARC
  8
APS_GEOMETRY
 10
-520.031
 20
-644.91
 40
2.643
 50
256.171
 51
270.0
  0
ARC
  8
APS_GEOMETRY
 10
-520.319
 20
-646.08
 40
1.437
 50
237.381
 51
256.171
  0
ARC
  8
APS_GEOMETRY
 10
-519.809
 20
-645.283
 40
2.384
 50
231.559
 51
237.381
  0
ARC
  8
APS_GEOMETRY
 10
-512.387
 20
-635.933
 40
14.321
 50
229.185
 51
231.559
  0
ARC
  8
APS_GEOMETRY
 10
-504.434
 20
-626.724
 40
26.49
 50
227.9
 51
229.185
  0
ARC
  8
APS_GEOMETRY
 10
-476.907
 20
-596.26
 40
67.548
 50
227.095
 51
227.9
  0
ARC
  8
APS_GEOMETRY
 10
-528.588
 20
-651.841
 40
8.348
 50
46.975
 51
64.612
  0
ARC
  8
APS_GEOMETRY
 10
-526.751
 20
-647.97
 40
4.063
 50
64.612
 51
90.0
  0
ARC
  8
APS_GEOMETRY
 10
-526.751
 20
-646.834
 40
2.928
 50
90.0
 51
106.966
  0
ARC
  8
APS_GEOMETRY
 10
-527.09
 20
-645.722
 40
1.766
 50
106.966
 51
128.868
  0
ARC
  8
APS_GEOMETRY
 10
-527.287
 20
-645.479
 40
1.453
 50
128.868
 51
154.741
  0
ARC
  8
APS_GEOMETRY
 10
-527.223
 20
-645.509
 40
1.523
 50
154.741
 51
180.0
  0
ARC
  8
APS_GEOMETRY
 10
-527.316
 20
-645.509
 40
1.43
 50
180.0
 51
206.64
  0
ARC
  8
APS_GEOMETRY
 10
-526.856
 20
-645.278
 40
1.945
 50
206.64
 51
229.43
  0
ARC
  8
APS_GEOMETRY
 10
-526.118
 20
-644.416
 40
3.08
 50
229.43
 51
244.493
  0
ARC
  8
APS_GEOMETRY
 10
-524.095
 20
-640.176
 40
7.777
 50
244.493
 51
253.956
  0
ARC
  8
APS_GEOMETRY
 10
-560.13
 20
-762.641
 40
119.879
 50
72.737
 51
73.58
  0
ARC
  8
APS_GEOMETRY
 10
-539.479
 20
-696.183
 40
50.287
 50
71.435
 51
72.737
  0
ARC
  8
APS_GEOMETRY
 10
-532.638
 20
-675.816
 40
28.801
 50
69.164
 51
71.435
  0
ARC
  8
APS_GEOMETRY
 10
-524.566
 20
-654.605
 40
6.106
 50
64.231
 51
69.164
  0
ARC
  8
APS_GEOMETRY
 10
-525.494
 20
-656.474
 40
8.193
 50
34.939
 51
64.068
  0
ARC
  8
APS_GEOMETRY
 10
-523.49
 20
-655.074
 40
5.749
 50
360.0
 51
34.939
  0
ARC
  8
APS_GEOMETRY
 10
-524.722
 20
-655.074
 40
6.981
 50
333.435
 51
360.0
  0
ARC
  8
APS_GEOMETRY
 10
-525.179
 20
-654.846
 40
7.491
 50
307.807
 51
333.435
  0
ARC
  8
APS_GEOMETRY
 10
-526.366
 20
-653.31
 40
9.433
 50
296.732
 51
307.786
  0
ARC
  8
APS_GEOMETRY
 10
-527.069
 20
-651.915
 40
10.995
 50
286.496
 51
296.732
  0
ARC
  8
APS_GEOMETRY
 10
-527.532
 20
-650.352
 40
12.625
 50
277.544
 51
286.496
  0
ARC
  8
APS_GEOMETRY
 10
-528.207
 20
-645.257
 40
17.765
 50
270.0
 51
277.544
  0
ARC
  8
APS_GEOMETRY
 10
-528.207
 20
-644.486
 40
18.535
 50
263.555
 51
270.0
  0
ARC
  8
APS_GEOMETRY
 10
-527.607
 20
-639.174
 40
23.881
 50
257.878
 51
263.555
  0
ARC
  8
APS_GEOMETRY
 10
-527.925
 20
-640.657
 40
22.364
 50
254.839
 51
257.878
  0
ARC
  8
APS_GEOMETRY
 10
-530.508
 20
-650.191
 40
12.487
 50
250.772
 51
254.839
  0
ARC
  8
APS_GEOMETRY
 10
-531.67
 20
-653.522
 40
8.959
 50
245.121
 51
250.772
  0
ARC
  8
APS_GEOMETRY
 10
-533.637
 20
-657.763
 40
4.284
 50
236.944
 51
245.121
  0
ARC
  8
APS_GEOMETRY
 10
-534.797
 20
-659.588
 40
2.122
 50
211.802
 51
236.31
  0
ARC
  8
APS_GEOMETRY
 10
-529.285
 20
-656.17
 40
8.608
 50
199.704
 51
211.802
  0
ARC
  8
APS_GEOMETRY
 10
-526.652
 20
-655.227
 40
11.404
 50
190.413
 51
199.704
  0
ARC
  8
APS_GEOMETRY
 10
-528.934
 20
-655.647
 40
9.084
 50
180.0
 51
190.413
  0
ARC
  8
APS_GEOMETRY
 10
-535.083
 20
-655.647
 40
2.934
 50
164.876
 51
180.0
  0
ARC
  8
APS_GEOMETRY
 10
-536.737
 20
-655.2
 40
1.222
 50
141.34
 51
164.876
  0
ARC
  8
APS_GEOMETRY
 10
-536.577
 20
-655.307
 40
1.414
 50
116.928
 51
142.001
  0
ARC
  8
APS_GEOMETRY
 10
-536.66
 20
-655.142
 40
1.229
 50
90.0
 51
116.928
  0
ARC
  8
APS_GEOMETRY
 10
-536.66
 20
-655.145
 40
1.232
 50
62.21
 51
90.0
  0
ARC
  8
APS_GEOMETRY
 10
-537.152
 20
-656.078
 40
2.287
 50
41.906
 51
62.21
  0
ARC
  8
APS_GEOMETRY
 10
-537.069
 20
-656.096
 40
2.237
 50
37.313
 51
43.668
  0
ARC
  8
APS_GEOMETRY
 10
-549.603
 20
-665.649
 40
17.997
 50
35.074
 51
37.313
  0
ARC
  8
APS_GEOMETRY
 10
-563.836
 20
-675.643
 40
35.389
 50
33.934
 51
35.074
  0
ARC
  8
APS_GEOMETRY
 10
-614.585
 20
-709.788
 40
96.555
 50
33.243
 51
33.934
  0
ARC
  8
APS_GEOMETRY
 10
-531.025
 20
-655.003
 40
3.363
 50
213.453
 51
231.637
  0
ARC
  8
APS_GEOMETRY
 10
-529.436
 20
-652.995
 40
5.924
 50
231.637
 51
245.313
  0
ARC
  8
APS_GEOMETRY
 10
-529.086
 20
-652.233
 40
6.762
 50
245.313
 51
257.398
  0
ARC
  8
APS_GEOMETRY
 10
-529.204
 20
-652.761
 40
6.222
 50
257.398
 51
270.0
  0
ARC
  8
APS_GEOMETRY
 10
-529.204
 20
-653.73
 40
5.253
 50
270.0
 51
282.907
  0
ARC
  8
APS_GEOMETRY
 10
-528.639
 20
-656.196
 40
2.722
 50
282.907
 51
300.872
  0
ARC
  8
APS_GEOMETRY
 10
-528.149
 20
-657.016
 40
1.767
 50
300.872
 51
326.876
  0
ARC
  8
APS_GEOMETRY
 10
-527.591
 20
-657.38
 40
1.101
 50
326.876
 51
0.0
  0
ARC
  8
APS_GEOMETRY
 10
-527.755
 20
-657.38
 40
1.266
 50
0.0
 51
27.553
  0
ARC
  8
APS_GEOMETRY
 10
-528.155
 20
-657.589
 40
1.717
 50
27.553
 51
51.147
  0
ARC
  8
APS_GEOMETRY
 10
-528.983
 20
-658.616
 40
3.036
 50
51.147
 51
65.225
  0
ARC
  8
APS_GEOMETRY
 10
-532.034
 20
-665.228
 40
10.318
 50
65.225
 51
72.848
  0
ARC
  8
APS_GEOMETRY
 10
-514.214
 20
-608.408
 40
49.231
 50
251.106
 51
252.532
  0
ARC
  8
APS_GEOMETRY
 10
-520.522
 20
-626.839
 40
29.751
 50
249.271
 51
251.106
  0
ARC
  8
APS_GEOMETRY
 10
-523.144
 20
-633.768
 40
22.341
 50
246.83
 51
249.271
  0
ARC
  8
APS_GEOMETRY
 10
-527.386
 20
-643.68
 40
11.56
 50
243.435
 51
246.83
  0
ARC
  8
APS_GEOMETRY
 10
-527.869
 20
-644.645
 40
10.481
 50
235.981
 51
243.435
  0
ARC
  8
APS_GEOMETRY
 10
-527.498
 20
-644.096
 40
11.144
 50
228.752
 51
235.981
  0
ARC
  8
APS_GEOMETRY
 10
-529.235
 20
-646.143
 40
8.459
 50
206.421
 51
228.457
  0
ARC
  8
APS_GEOMETRY
 10
-531.513
 20
-647.275
 40
5.916
 50
180.0
 51
206.421
  0
ARC
  8
APS_GEOMETRY
 10
-531.405
 20
-647.275
 40
6.024
 50
166.555
 51
180.0
  0
ARC
  8
APS_GEOMETRY
 10
-530.708
 20
-647.441
 40
6.741
 50
153.848
 51
166.555
  0
ARC
  8
APS_GEOMETRY
 10
-530.65
 20
-647.47
 40
6.806
 50
141.244
 51
153.848
  0
ARC
  8
APS_GEOMETRY
 10
-530.219
 20
-647.815
 40
7.357
 50
129.123
 51
141.244
  0
ARC
  8
APS_GEOMETRY
 10
-528.843
 20
-649.279
 40
9.362
 50
108.978
 51
130.006
  0
ARC
  8
APS_GEOMETRY
 10
-528.158
 20
-651.272
 40
11.47
 50
90.0
 51
108.978
  0
ARC
  8
APS_GEOMETRY
 10
-503.162
 20
-650.434
 40
10.632
 50
77.257
 51
90.0
  0
ARC
  8
APS_GEOMETRY
 10
-503.27
 20
-650.911
 40
11.122
 50
64.799
 51
77.257
  0
ARC
  8
APS_GEOMETRY
 10
-494.112
 20
-631.412
 40
10.421
 50
244.885
 51
251.175
  0
ARC
  8
APS_GEOMETRY
 10
-497.096
 20
-640.166
 40
1.173
 50
251.175
 51
270.0
  0
ARC
  8
APS_GEOMETRY
 10
-497.096
 20
-639.436
 40
1.903
 50
270.0
 51
278.82
  0
ARC
  8
APS_GEOMETRY
 10
-498.325
 20
-631.512
 40
9.922
 50
278.82
 51
282.68
  0
ARC
  8
APS_GEOMETRY
 10
-495.753
 20
-642.902
 40
1.755
 50
95.906
 51
102.995
  0
ARC
  8
APS_GEOMETRY
 10
-495.673
 20
-643.67
 40
2.528
 50
90.0
 51
95.906
  0
ARC
  8
APS_GEOMETRY
 10
-495.673
 20
-642.82
 40
1.678
 50
62.447
 51
90.0
  0
ARC
  8
APS_GEOMETRY
 10
-495.972
 20
-643.392
 40
2.323
 50
39.094
 51
62.447
  0
ARC
  8
APS_GEOMETRY
 10
-499.089
 20
-645.999
 40
6.386
 50
18.435
 51
39.611
  0
ARC
  8
APS_GEOMETRY
 10
-501.002
 20
-646.637
 40
8.403
 50
360.0
 51
18.435
  0
ARC
  8
APS_GEOMETRY
 10
-496.766
 20
-646.637
 40
4.167
 50
334.877
 51
360.0
  0
ARC
  8
APS_GEOMETRY
 10
-495.513
 20
-647.225
 40
2.783
 50
304.007
 51
334.877
  0
ARC
  8
APS_GEOMETRY
 10
-495.533
 20
-647.166
 40
2.843
 50
286.39
 51
303.69
  0
ARC
  8
APS_GEOMETRY
 10
-495.624
 20
-646.857
 40
3.165
 50
270.0
 51
286.39
  0
ARC
  8
APS_GEOMETRY
 10
-495.624
 20
-646.893
 40
3.128
 50
255.155
 51
270.0
  0
ARC
  8
APS_GEOMETRY
 10
-495.967
 20
-648.186
 40
1.791
 50
235.491
 51
255.155
  0
ARC
  8
APS_GEOMETRY
 10
-495.795
 20
-647.936
 40
2.094
 50
218.48
 51
235.491
  0
ARC
  8
APS_GEOMETRY
 10
-492.984
 20
-645.702
 40
5.684
 50
208.179
 51
218.48
  0
ARC
  8
APS_GEOMETRY
 10
-521.797
 20
-661.342
 40
27.099
 50
28.56
 51
31.664
  0
ARC
  8
APS_GEOMETRY
 10
-504.191
 20
-650.483
 40
6.414
 50
31.664
 51
38.047
  0
ARC
  8
APS_GEOMETRY
 10
-502.91
 20
-649.482
 40
4.788
 50
38.047
 51
46.56
  0
ARC
  8
APS_GEOMETRY
 10
-503.576
 20
-650.184
 40
5.756
 50
46.56
 51
54.324
  0
ARC
  8
APS_GEOMETRY
 10
-503.96
 20
-650.845
 40
6.517
 50
54.968
 51
71.48
  0
ARC
  8
APS_GEOMETRY
 10
-503.538
 20
-649.587
 40
5.19
 50
71.48
 51
90.0
  0
ARC
  8
APS_GEOMETRY
 10
-503.538
 20
-648.022
 40
3.625
 50
90.0
 51
114.63
  0
ARC
  8
APS_GEOMETRY
 10
-503.72
 20
-647.625
 40
3.188
 50
114.63
 51
140.921
  0
ARC
  8
APS_GEOMETRY
 10
-503.183
 20
-648.062
 40
3.881
 50
140.921
 51
163.13
  0
ARC
  8
APS_GEOMETRY
 10
-500.494
 20
-648.877
 40
6.691
 50
163.13
 51
180.0
  0
ARC
  8
APS_GEOMETRY
 10
-497.007
 20
-648.877
 40
10.178
 50
180.0
 51
195.44
  0
ARC
  8
APS_GEOMETRY
 10
-497.536
 20
-649.023
 40
9.629
 50
195.44
 51
211.316
  0
ARC
  8
APS_GEOMETRY
 10
-500.081
 20
-650.518
 40
6.678
 50
211.708
 51
240.457
  0
ARC
  8
APS_GEOMETRY
 10
-500.252
 20
-650.819
 40
6.332
 50
240.457
 51
270.0
  0
ARC
  8
APS_GEOMETRY
 10
-500.252
 20
-649.276
 40
7.875
 50
270.0
 51
279.549
  0
ARC
  8
APS_GEOMETRY
 10
-500.35
 20
-648.694
 40
8.466
 50
279.549
 51
288.759
  0
ARC
  8
APS_GEOMETRY
 10
-499.937
 20
-649.909
 40
7.182
 50
288.759
 51
299.545
  0
ARC
  8
APS_GEOMETRY
 10
-498.282
 20
-652.828
 40
3.826
 50
299.545
 51
314.341
  0
ARC
  8
APS_GEOMETRY
 10
-493.164
 20
-658.144
 40
3.553
 50
120.141
 51
133.452
  0
ARC
  8
APS_GEOMETRY
 10
-494.594
 20
-655.682
 40
0.706
 50
90.0
 51
120.141
  0
ARC
  8
APS_GEOMETRY
 10
-494.594
 20
-656.091
 40
1.115
 50
61.952
 51
90.0
  0
ARC
  8
APS_GEOMETRY
 10
-494.76
 20
-656.403
 40
1.468
 50
37.569
 51
61.952
  0
ARC
  8
APS_GEOMETRY
 10
-495.07
 20
-656.641
 40
1.859
 50
17.665
 51
37.569
  0
ARC
  8
APS_GEOMETRY
 10
-495.542
 20
-656.791
 40
2.354
 50
360.0
 51
17.665
  0
ARC
  8
APS_GEOMETRY
 10
-496.728
 20
-656.791
 40
3.54
 50
344.932
 51
0.0
  0
ARC
  8
APS_GEOMETRY
 10
-499.877
 20
-655.944
 40
6.801
 50
334.075
 51
344.932
  0
ARC
  8
APS_GEOMETRY
 10
-499.976
 20
-655.895
 40
6.912
 50
323.374
 51
334.075
  0
ARC
  8
APS_GEOMETRY
 10
-497.944
 20
-657.406
 40
4.38
 50
309.92
 51
323.374
  0
ARC
  8
APS_GEOMETRY
 10
-495.914
 20
-659.801
 40
1.24
 50
289.026
 51
308.991
  0
ARC
  8
APS_GEOMETRY
 10
-498.08
 20
-653.518
 40
7.886
 50
281.143
 51
289.026
  0
ARC
  8
APS_GEOMETRY
 10
-495.883
 20
-664.909
 40
3.715
 50
100.437
 51
110.12
  0
ARC
  8
APS_GEOMETRY
 10
-492.973
 20
-672.854
 40
12.177
 50
110.12
 51
115.463
  0
ARC
  8
APS_GEOMETRY
 10
-503.363
 20
-651.114
 40
11.919
 50
282.94
 51
295.628
  0
ARC
  8
APS_GEOMETRY
 10
-503.26
 20
-651.561
 40
11.46
 50
270.0
 51
282.94
  0
ARC
  8
APS_GEOMETRY
 10
-503.26
 20
-650.884
 40
12.137
 50
257.307
 51
270.0
  0
ARC
  8
APS_GEOMETRY
 10
-502.748
 20
-648.609
 40
14.469
 50
245.686
 51
257.307
  0
ARC
  8
APS_GEOMETRY
 10
-504.033
 20
-651.43
 40
11.37
 50
228.801
 51
245.735
  0
ARC
  8
APS_GEOMETRY
 10
-504.012
 20
-651.405
 40
11.402
 50
211.891
 51
228.801
  0
ARC
  8
APS_GEOMETRY
 10
-503.338
 20
-650.92
 40
12.231
 50
196.728
 51
212.152
  0
ARC
  8
APS_GEOMETRY
 10
-505.082
 20
-651.444
 40
10.41
 50
180.0
 51
196.728
  0
ARC
  8
APS_GEOMETRY
 10
-504.828
 20
-651.444
 40
10.663
 50
161.184
 51
180.0
  0
ARC
  8
APS_GEOMETRY
 10
-504.144
 20
-651.677
 40
11.386
 50
142.98
 51
161.184
  0
ARC
  8
APS_GEOMETRY
 10
-503.612
 20
-652.085
 40
12.056
 50
127.824
 51
142.958
  0
ARC
  8
APS_GEOMETRY
 10
-502.735
 20
-653.214
 40
13.486
 50
113.52
 51
127.824
  0
ARC
  8
APS_GEOMETRY
 10
-503.02
 20
-652.555
 40
12.768
 50
101.927
 51
113.527
  0
ARC
  8
APS_GEOMETRY
 10
-503.162
 20
-651.882
 40
12.08
 50
90.0
 51
101.927
  0
ARC
  8
APS_GEOMETRY
 10
-477.922
 20
-652.693
 40
12.891
 50
71.91
 51
90.0
  0
ARC
  8
APS_GEOMETRY
 10
-477.422
 20
-651.164
 40
11.283
 50
52.561
 51
71.91
  0
ARC
  8
APS_GEOMETRY
 10
-477.553
 20
-651.202
 40
11.393
 50
38.846
 51
52.156
  0
ARC
  8
APS_GEOMETRY
 10
-479.339
 20
-652.641
 40
13.686
 50
26.707
 51
38.846
  0
ARC
  8
APS_GEOMETRY
 10
-478.986
 20
-652.352
 40
13.241
 50
13.868
 51
26.278
  0
ARC
  8
APS_GEOMETRY
 10
-476.436
 20
-651.722
 40
10.614
 50
360.0
 51
13.868
  0
ARC
  8
APS_GEOMETRY
 10
-476.271
 20
-651.722
 40
10.449
 50
339.712
 51
360.0
  0
ARC
  8
APS_GEOMETRY
 10
-476.859
 20
-651.505
 40
11.076
 50
320.013
 51
339.712
  0
ARC
  8
APS_GEOMETRY
 10
-476.957
 20
-651.451
 40
11.186
 50
303.344
 51
320.123
  0
ARC
  8
APS_GEOMETRY
 10
-478.104
 20
-649.707
 40
13.274
 50
287.949
 51
303.344
  0
ARC
  8
APS_GEOMETRY
 10
-478.482
 20
-648.399
 40
14.634
 50
279.039
 51
287.776
  0
ARC
  8
APS_GEOMETRY
 10
-478.331
 20
-649.348
 40
13.673
 50
270.0
 51
279.039
  0
ARC
  8
APS_GEOMETRY
 10
-478.331
 20
-650.016
 40
13.005
 50
257.728
 51
270.0
  0
ARC
  8
APS_GEOMETRY
 10
-478.31
 20
-649.922
 40
13.102
 50
245.501
 51
257.728
  0
ARC
  8
APS_GEOMETRY
 10
-479.046
 20
-651.533
 40
11.33
 50
228.665
 51
245.511
  0
ARC
  8
APS_GEOMETRY
 10
-479.291
 20
-651.812
 40
10.959
 50
211.535
 51
228.665
  0
ARC
  8
APS_GEOMETRY
 10
-478.97
 20
-651.576
 40
11.356
 50
195.642
 51
211.701
  0
ARC
  8
APS_GEOMETRY
 10
-478.383
 20
-651.412
 40
11.966
 50
180.0
 51
195.642
  0
ARC
  8
APS_GEOMETRY
 10
-478.258
 20
-651.412
 40
12.091
 50
162.181
 51
180.0
  0
ARC
  8
APS_GEOMETRY
 10
-479.361
 20
-651.057
 40
10.933
 50
143.434
 51
162.181
  0
ARC
  8
APS_GEOMETRY
 10
-479.509
 20
-650.938
 40
10.742
 50
126.384
 51
143.471
  0
ARC
  8
APS_GEOMETRY
 10
-478.492
 20
-652.318
 40
12.457
 50
110.525
 51
126.384
  0
ARC
  8
APS_GEOMETRY
 10
-478.543
 20
-651.944
 40
12.089
 50
99.77
 51
110.925
  0
ARC
  8
APS_GEOMETRY
 10
-477.922
 20
-655.55
 40
15.748
 50
90.0
 51
99.77
  0
ARC
  8
APS_GEOMETRY
 10
-479.475
 20
-646.898
 40
2.404
 50
90.0
 51
119.604
  0
ARC
  8
APS_GEOMETRY
 10
-479.265
 20
-647.269
 40
2.83
 50
119.604
 51
146.842
  0
ARC
  8
APS_GEOMETRY
 10
-478.842
 20
-647.616
 40
3.374
 50
145.84
 51
164.055
  0
ARC
  8
APS_GEOMETRY
 10
-477.861
 20
-647.896
 40
4.394
 50
164.055
 51
180.0
  0
ARC
  8
APS_GEOMETRY
 10
-471.729
 20
-647.896
 40
10.526
 50
180.0
 51
189.977
  0
ARC
  8
APS_GEOMETRY
 10
-462.403
 20
-646.256
 40
19.995
 50
189.977
 51
197.211
  0
ARC
  8
APS_GEOMETRY
 10
-460.363
 20
-645.624
 40
22.131
 50
197.211
 51
203.76
  0
ARC
  8
APS_GEOMETRY
 10
-465.444
 20
-647.861
 40
16.579
 50
203.76
 51
211.329
  0
ARC
  8
APS_GEOMETRY
 10
-475.879
 20
-654.122
 40
4.411
 50
212.32
 51
224.441
  0
ARC
  8
APS_GEOMETRY
 10
-476.306
 20
-654.542
 40
3.812
 50
224.441
 51
237.484
  0
ARC
  8
APS_GEOMETRY
 10
-476.583
 20
-654.976
 40
3.298
 50
237.484
 51
252.416
  0
ARC
  8
APS_GEOMETRY
 10
-476.859
 20
-655.847
 40
2.383
 50
252.416
 51
270.0
  0
ARC
  8
APS_GEOMETRY
 10
-476.859
 20
-655.565
 40
2.666
 50
270.0
 51
294.953
  0
ARC
  8
APS_GEOMETRY
 10
-476.784
 20
-655.725
 40
2.489
 50
294.953
 51
320.793
  0
ARC
  8
APS_GEOMETRY
 10
-477.184
 20
-655.399
 40
3.005
 50
320.793
 51
342.777
  0
ARC
  8
APS_GEOMETRY
 10
-478.968
 20
-654.845
 40
4.873
 50
342.777
 51
0.0
  0
ARC
  8
APS_GEOMETRY
 10
-487.349
 20
-654.845
 40
13.254
 50
0.0
 51
8.499
  0
ARC
  8
APS_GEOMETRY
 10
-493.183
 20
-655.717
 40
19.152
 50
8.499
 51
15.566
  0
ARC
  8
APS_GEOMETRY
 10
-492.481
 20
-655.522
 40
18.424
 50
15.566
 51
22.909
  0
ARC
  8
APS_GEOMETRY
 10
-486.449
 20
-652.973
 40
11.876
 50
22.909
 51
32.057
  0
ARC
  8
APS_GEOMETRY
 10
-481.712
 20
-649.988
 40
6.276
 50
31.921
 51
42.51
  0
ARC
  8
APS_GEOMETRY
 10
-480.41
 20
-648.795
 40
4.511
 50
42.51
 51
55.008
  0
ARC
  8
APS_GEOMETRY
 10
-479.971
 20
-648.168
 40
3.745
 50
55.008
 51
69.88
  0
ARC
  8
APS_GEOMETRY
 10
-479.577
 20
-647.092
 40
2.599
 50
69.88
 51
87.754
  0
ARC
  8
APS_GEOMETRY
 10
-451.242
 20
-650.434
 40
10.632
 50
77.257
 51
90.0
  0
ARC
  8
APS_GEOMETRY
 10
-451.35
 20
-650.911
 40
11.122
 50
64.799
 51
77.257
  0
ARC
  8
APS_GEOMETRY
 10
-442.191
 20
-631.412
 40
10.421
 50
244.885
 51
251.175
  0
ARC
  8
APS_GEOMETRY
 10
-445.176
 20
-640.166
 40
1.173
 50
251.175
 51
270.0
  0
ARC
  8
APS_GEOMETRY
 10
-445.176
 20
-639.436
 40
1.903
 50
270.0
 51
278.82
  0
ARC
  8
APS_GEOMETRY
 10
-446.405
 20
-631.512
 40
9.922
 50
278.82
 51
282.68
  0
ARC
  8
APS_GEOMETRY
 10
-443.833
 20
-642.902
 40
1.755
 50
95.906
 51
102.995
  0
ARC
  8
APS_GEOMETRY
 10
-443.753
 20
-643.67
 40
2.528
 50
90.0
 51
95.906
  0
ARC
  8
APS_GEOMETRY
 10
-443.753
 20
-642.82
 40
1.678
 50
62.447
 51
90.0
  0
ARC
  8
APS_GEOMETRY
 10
-444.051
 20
-643.392
 40
2.323
 50
39.094
 51
62.447
  0
ARC
  8
APS_GEOMETRY
 10
-447.169
 20
-645.999
 40
6.386
 50
18.435
 51
39.611
  0
ARC
  8
APS_GEOMETRY
 10
-449.082
 20
-646.637
 40
8.403
 50
360.0
 51
18.435
  0
ARC
  8
APS_GEOMETRY
 10
-444.846
 20
-646.637
 40
4.167
 50
334.877
 51
360.0
  0
ARC
  8
APS_GEOMETRY
 10
-443.592
 20
-647.225
 40
2.783
 50
304.007
 51
334.877
  0
ARC
  8
APS_GEOMETRY
 10
-443.613
 20
-647.166
 40
2.843
 50
286.39
 51
303.69
  0
ARC
  8
APS_GEOMETRY
 10
-443.704
 20
-646.857
 40
3.165
 50
270.0
 51
286.39
  0
ARC
  8
APS_GEOMETRY
 10
-443.704
 20
-646.893
 40
3.128
 50
255.155
 51
270.0
  0
ARC
  8
APS_GEOMETRY
 10
-444.047
 20
-648.186
 40
1.791
 50
235.491
 51
255.155
  0
ARC
  8
APS_GEOMETRY
 10
-443.875
 20
-647.936
 40
2.094
 50
218.48
 51
235.491
  0
ARC
  8
APS_GEOMETRY
 10
-441.064
 20
-645.702
 40
5.684
 50
208.179
 51
218.48
  0
ARC
  8
APS_GEOMETRY
 10
-469.877
 20
-661.342
 40
27.099
 50
28.56
 51
31.664
  0
ARC
  8
APS_GEOMETRY
 10
-452.27
 20
-650.483
 40
6.414
 50
31.664
 51
38.047
  0
ARC
  8
APS_GEOMETRY
 10
-450.99
 20
-649.482
 40
4.788
 50
38.047
 51
46.56
  0
ARC
  8
APS_GEOMETRY
 10
-451.656
 20
-650.184
 40
5.756
 50
46.56
 51
54.324
  0
ARC
  8
APS_GEOMETRY
 10
-452.04
 20
-650.845
 40
6.517
 50
54.968
 51
71.48
  0
ARC
  8
APS_GEOMETRY
 10
-451.618
 20
-649.587
 40
5.19
 50
71.48
 51
90.0
  0
ARC
  8
APS_GEOMETRY
 10
-451.618
 20
-648.022
 40
3.625
 50
90.0
 51
114.63
  0
ARC
  8
APS_GEOMETRY
 10
-451.8
 20
-647.625
 40
3.188
 50
114.63
 51
140.921
  0
ARC
  8
APS_GEOMETRY
 10
-451.262
 20
-648.062
 40
3.881
 50
140.921
 51
163.13
  0
ARC
  8
APS_GEOMETRY
 10
-448.574
 20
-648.877
 40
6.691
 50
163.13
 51
180.0
  0
ARC
  8
APS_GEOMETRY
 10
-445.087
 20
-648.877
 40
10.178
 50
180.0
 51
195.44
  0
ARC
  8
APS_GEOMETRY
 10
-445.616
 20
-649.023
 40
9.629
 50
195.44
 51
211.316
  0
ARC
  8
APS_GEOMETRY
 10
-448.161
 20
-650.518
 40
6.678
 50
211.708
 51
240.457
  0
ARC
  8
APS_GEOMETRY
 10
-448.332
 20
-650.819
 40
6.332
 50
240.457
 51
270.0
  0
ARC
  8
APS_GEOMETRY
 10
-448.332
 20
-649.276
 40
7.875
 50
270.0
 51
279.549
  0
ARC
  8
APS_GEOMETRY
 10
-448.43
 20
-648.694
 40
8.466
 50
279.549
 51
288.759
  0
ARC
  8
APS_GEOMETRY
 10
-448.017
 20
-649.909
 40
7.182
 50
288.759
 51
299.545
  0
ARC
  8
APS_GEOMETRY
 10
-446.362
 20
-652.828
 40
3.826
 50
299.545
 51
314.341
  0
ARC
  8
APS_GEOMETRY
 10
-441.244
 20
-658.144
 40
3.553
 50
120.141
 51
133.452
  0
ARC
  8
APS_GEOMETRY
 10
-442.674
 20
-655.682
 40
0.706
 50
90.0
 51
120.141
  0
ARC
  8
APS_GEOMETRY
 10
-442.674
 20
-656.091
 40
1.115
 50
61.952
 51
90.0
  0
ARC
  8
APS_GEOMETRY
 10
-442.84
 20
-656.403
 40
1.468
 50
37.569
 51
61.952
  0
ARC
  8
APS_GEOMETRY
 10
-443.15
 20
-656.641
 40
1.859
 50
17.665
 51
37.569
  0
ARC
  8
APS_GEOMETRY
 10
-443.622
 20
-656.791
 40
2.354
 50
360.0
 51
17.665
  0
ARC
  8
APS_GEOMETRY
 10
-444.808
 20
-656.791
 40
3.54
 50
344.932
 51
0.0
  0
ARC
  8
APS_GEOMETRY
 10
-447.957
 20
-655.944
 40
6.801
 50
334.075
 51
344.932
  0
ARC
  8
APS_GEOMETRY
 10
-448.056
 20
-655.895
 40
6.912
 50
323.374
 51
334.075
  0
ARC
  8
APS_GEOMETRY
 10
-446.024
 20
-657.406
 40
4.38
 50
309.92
 51
323.374
  0
ARC
  8
APS_GEOMETRY
 10
-443.994
 20
-659.801
 40
1.24
 50
289.026
 51
308.991
  0
ARC
  8
APS_GEOMETRY
 10
-446.16
 20
-653.518
 40
7.886
 50
281.143
 51
289.026
  0
ARC
  8
APS_GEOMETRY
 10
-443.963
 20
-664.909
 40
3.715
 50
100.437
 51
110.12
  0
ARC
  8
APS_GEOMETRY
 10
-441.052
 20
-672.854
 40
12.177
 50
110.12
 51
115.463
  0
ARC
  8
APS_GEOMETRY
 10
-451.443
 20
-651.114
 40
11.919
 50
282.94
 51
295.628
  0
ARC
  8
APS_GEOMETRY
 10
-451.34
 20
-651.561
 40
11.46
 50
270.0
 51
282.94
  0
ARC
  8
APS_GEOMETRY
 10
-451.34
 20
-650.884
 40
12.137
 50
257.307
 51
270.0
  0
ARC
  8
APS_GEOMETRY
 10
-450.828
 20
-648.609
 40
14.469
 50
245.686
 51
257.307
  0
ARC
  8
APS_GEOMETRY
 10
-452.113
 20
-651.43
 40
11.37
 50
228.801
 51
245.735
  0
ARC
  8
APS_GEOMETRY
 10
-452.092
 20
-651.405
 40
11.402
 50
211.891
 51
228.801
  0
ARC
  8
APS_GEOMETRY
 10
-451.418
 20
-650.92
 40
12.231
 50
196.728
 51
212.152
  0
ARC
  8
APS_GEOMETRY
 10
-453.162
 20
-651.444
 40
10.41
 50
180.0
 51
196.728
  0
ARC
  8
APS_GEOMETRY
 10
-452.908
 20
-651.444
 40
10.663
 50
161.184
 51
180.0
  0
ARC
  8
APS_GEOMETRY
 10
-452.224
 20
-651.677
 40
11.386
 50
142.98
 51
161.184
  0
ARC
  8
APS_GEOMETRY
 10
-451.692
 20
-652.085
 40
12.056
 50
127.824
 51
142.958
  0
ARC
  8
APS_GEOMETRY
 10
-450.815
 20
-653.214
 40
13.486
 50
113.52
 51
127.824
  0
ARC
  8
APS_GEOMETRY
 10
-451.1
 20
-652.555
 40
12.768
 50
101.927
 51
113.527
  0
ARC
  8
APS_GEOMETRY
 10
-451.242
 20
-651.882
 40
12.08
 50
90.0
 51
101.927
  0
ARC
  8
APS_GEOMETRY
 10
-426.002
 20
-652.693
 40
12.891
 50
71.91
 51
90.0
  0
ARC
  8
APS_GEOMETRY
 10
-425.502
 20
-651.164
 40
11.283
 50
52.561
 51
71.91
  0
ARC
  8
APS_GEOMETRY
 10
-425.633
 20
-651.202
 40
11.393
 50
38.846
 51
52.156
  0
ARC
  8
APS_GEOMETRY
 10
-427.419
 20
-652.641
 40
13.686
 50
26.707
 51
38.846
  0
ARC
  8
APS_GEOMETRY
 10
-427.066
 20
-652.352
 40
13.241
 50
13.868
 51
26.278
  0
ARC
  8
APS_GEOMETRY
 10
-424.516
 20
-651.722
 40
10.614
 50
360.0
 51
13.868
  0
ARC
  8
APS_GEOMETRY
 10
-424.351
 20
-651.722
 40
10.449
 50
339.712
 51
360.0
  0
ARC
  8
APS_GEOMETRY
 10
-424.939
 20
-651.505
 40
11.076
 50
320.013
 51
339.712
  0
ARC
  8
APS_GEOMETRY
 10
-425.037
 20
-651.451
 40
11.186
 50
303.344
 51
320.123
  0
ARC
  8
APS_GEOMETRY
 10
-426.184
 20
-649.707
 40
13.274
 50
287.949
 51
303.344
  0
ARC
  8
APS_GEOMETRY
 10
-426.562
 20
-648.399
 40
14.634
 50
279.039
 51
287.776
  0
ARC
  8
APS_GEOMETRY
 10
-426.41
 20
-649.348
 40
13.673
 50
270.0
 51
279.039
  0
ARC
  8
APS_GEOMETRY
 10
-426.41
 20
-650.016
 40
13.005
 50
257.728
 51
270.0
  0
ARC
  8
APS_GEOMETRY
 10
-426.39
 20
-649.922
 40
13.102
 50
245.501
 51
257.728
  0
ARC
  8
APS_GEOMETRY
 10
-427.126
 20
-651.533
 40
11.33
 50
228.665
 51
245.511
  0
ARC
  8
APS_GEOMETRY
 10
-427.371
 20
-651.812
 40
10.959
 50
211.535
 51
228.665
  0
ARC
  8
APS_GEOMETRY
 10
-427.05
 20
-651.576
 40
11.356
 50
195.642
 51
211.701
  0
ARC
  8
APS_GEOMETRY
 10
-426.463
 20
-651.412
 40
11.966
 50
180.0
 51
195.642
  0
ARC
  8
APS_GEOMETRY
 10
-426.338
 20
-651.412
 40
12.091
 50
162.181
 51
180.0
  0
ARC
  8
APS_GEOMETRY
 10
-427.441
 20
-651.057
 40
10.933
 50
143.434
 51
162.181
  0
ARC
  8
APS_GEOMETRY
 10
-427.589
 20
-650.938
 40
10.742
 50
126.384
 51
143.471
  0
ARC
  8
APS_GEOMETRY
 10
-426.572
 20
-652.318
 40
12.457
 50
110.525
 51
126.384
  0
ARC
  8
APS_GEOMETRY
 10
-426.623
 20
-651.944
 40
12.089
 50
99.77
 51
110.925
  0
ARC
  8
APS_GEOMETRY
 10
-426.002
 20
-655.55
 40
15.748
 50
90.0
 51
99.77
  0
ARC
  8
APS_GEOMETRY
 10
-427.555
 20
-646.898
 40
2.404
 50
90.0
 51
119.604
  0
ARC
  8
APS_GEOMETRY
 10
-427.345
 20
-647.269
 40
2.83
 50
119.604
 51
146.842
  0
ARC
  8
APS_GEOMETRY
 10
-426.921
 20
-647.616
 40
3.374
 50
145.84
 51
164.055
  0
ARC
  8
APS_GEOMETRY
 10
-425.941
 20
-647.896
 40
4.394
 50
164.055
 51
180.0
  0
ARC
  8
APS_GEOMETRY
 10
-419.809
 20
-647.896
 40
10.526
 50
180.0
 51
189.977
  0
ARC
  8
APS_GEOMETRY
 10
-410.483
 20
-646.256
 40
19.995
 50
189.977
 51
197.211
  0
ARC
  8
APS_GEOMETRY
 10
-408.443
 20
-645.624
 40
22.131
 50
197.211
 51
203.76
  0
ARC
  8
APS_GEOMETRY
 10
-413.524
 20
-647.861
 40
16.579
 50
203.76
 51
211.329
  0
ARC
  8
APS_GEOMETRY
 10
-423.958
 20
-654.122
 40
4.411
 50
212.32
 51
224.441
  0
ARC
  8
APS_GEOMETRY
 10
-424.386
 20
-654.542
 40
3.812
 50
224.441
 51
237.484
  0
ARC
  8
APS_GEOMETRY
 10
-424.663
 20
-654.976
 40
3.298
 50
237.484
 51
252.416
  0
ARC
  8
APS_GEOMETRY
 10
-424.939
 20
-655.847
 40
2.383
 50
252.416
 51
270.0
  0
ARC
  8
APS_GEOMETRY
 10
-424.939
 20
-655.565
 40
2.666
 50
270.0
 51
294.953
  0
ARC
  8
APS_GEOMETRY
 10
-424.864
 20
-655.725
 40
2.489
 50
294.953
 51
320.793
  0
ARC
  8
APS_GEOMETRY
 10
-425.264
 20
-655.399
 40
3.005
 50
320.793
 51
342.777
  0
ARC
  8
APS_GEOMETRY
 10
-427.048
 20
-654.845
 40
4.873
 50
342.777
 51
0.0
  0
ARC
  8
APS_GEOMETRY
 10
-435.429
 20
-654.845
 40
13.254
 50
0.0
 51
8.499
  0
ARC
  8
APS_GEOMETRY
 10
-441.263
 20
-655.717
 40
19.152
 50
8.499
 51
15.566
  0
ARC
  8
APS_GEOMETRY
 10
-440.561
 20
-655.522
 40
18.424
 50
15.566
 51
22.909
  0
ARC
  8
APS_GEOMETRY
 10
-434.529
 20
-652.973
 40
11.876
 50
22.909
 51
32.057
  0
ARC
  8
APS_GEOMETRY
 10
-429.791
 20
-649.988
 40
6.276
 50
31.921
 51
42.51
  0
ARC
  8
APS_GEOMETRY
 10
-428.49
 20
-648.795
 40
4.511
 50
42.51
 51
55.008
  0
ARC
  8
APS_GEOMETRY
 10
-428.051
 20
-648.168
 40
3.745
 50
55.008
 51
69.88
  0
ARC
  8
APS_GEOMETRY
 10
-427.657
 20
-647.092
 40
2.599
 50
69.88
 51
87.754
  0
ARC
  8
APS_GEOMETRY
 10
-400.745
 20
-654.404
 40
1.21
 50
90.0
 51
115.837
  0
ARC
  8
APS_GEOMETRY
 10
-401.043
 20
-653.789
 40
0.526
 50
115.837
 51
155.462
  0
ARC
  8
APS_GEOMETRY
 10
-400.695
 20
-653.947
 40
0.909
 50
155.462
 51
168.366
  0
ARC
  8
APS_GEOMETRY
 10
-397.522
 20
-654.601
 40
4.148
 50
168.366
 51
174.395
  0
ARC
  8
APS_GEOMETRY
 10
-394.324
 20
-654.914
 40
7.361
 50
174.395
 51
177.813
  0
ARC
  8
APS_GEOMETRY
 10
-383.71
 20
-655.32
 40
17.983
 50
177.813
 51
180.0
  0
ARC
  8
APS_GEOMETRY
 10
-376.026
 20
-655.32
 40
25.667
 50
180.0
 51
184.62
  0
ARC
  8
APS_GEOMETRY
 10
-393.236
 20
-656.71
 40
8.401
 50
184.62
 51
192.7
  0
ARC
  8
APS_GEOMETRY
 10
-399.871
 20
-658.167
 40
1.609
 50
194.036
 51
205.821
  0
ARC
  8
APS_GEOMETRY
 10
-400.573
 20
-658.507
 40
0.828
 50
205.821
 51
222.274
  0
ARC
  8
APS_GEOMETRY
 10
-400.358
 20
-658.311
 40
1.119
 50
222.274
 51
234.605
  0
ARC
  8
APS_GEOMETRY
 10
-397.928
 20
-654.891
 40
5.315
 50
234.605
 51
240.255
  0
ARC
  8
APS_GEOMETRY
 10
-401.622
 20
-661.428
 40
2.194
 50
34.592
 51
61.189
  0
ARC
  8
APS_GEOMETRY
 10
-400.897
 20
-660.928
 40
1.313
 50
360.0
 51
34.592
  0
ARC
  8
APS_GEOMETRY
 10
-400.853
 20
-660.928
 40
1.27
 50
318.231
 51
360.0
  0
ARC
  8
APS_GEOMETRY
 10
-401.702
 20
-660.17
 40
2.408
 50
288.227
 51
318.231
  0
ARC
  8
APS_GEOMETRY
 10
-402.583
 20
-657.496
 40
5.223
 50
280.377
 51
288.227
  0
ARC
  8
APS_GEOMETRY
 10
-404.118
 20
-649.114
 40
13.744
 50
275.541
 51
280.377
  0
ARC
  8
APS_GEOMETRY
 10
-404.779
 20
-642.295
 40
20.595
 50
272.304
 51
275.541
  0
ARC
  8
APS_GEOMETRY
 10
-405.585
 20
-622.278
 40
40.629
 50
270.0
 51
272.304
  0
ARC
  8
APS_GEOMETRY
 10
-405.585
 20
-639.007
 40
23.9
 50
262.811
 51
270.0
  0
ARC
  8
APS_GEOMETRY
 10
-407.729
 20
-656.01
 40
6.762
 50
249.274
 51
262.811
  0
ARC
  8
APS_GEOMETRY
 10
-409.078
 20
-659.575
 40
2.95
 50
221.379
 51
249.274
  0
ARC
  8
APS_GEOMETRY
 10
-410.262
 20
-660.618
 40
1.373
 50
180.0
 51
221.379
  0
ARC
  8
APS_GEOMETRY
 10
-410.271
 20
-660.618
 40
1.364
 50
164.055
 51
180.0
  0
ARC
  8
APS_GEOMETRY
 10
-410.839
 20
-660.455
 40
0.773
 50
142.815
 51
164.055
  0
ARC
  8
APS_GEOMETRY
 10
-410.482
 20
-660.727
 40
1.222
 50
129.007
 51
142.815
  0
ARC
  8
APS_GEOMETRY
 10
-406.086
 20
-666.154
 40
8.206
 50
123.69
 51
129.007
  0
ARC
  8
APS_GEOMETRY
 10
-412.324
 20
-656.767
 40
3.064
 50
303.389
 51
319.022
  0
ARC
  8
APS_GEOMETRY
 10
-411.495
 20
-657.488
 40
1.966
 50
319.022
 51
338.575
  0
ARC
  8
APS_GEOMETRY
 10
-412.604
 20
-657.052
 40
3.158
 50
338.575
 51
351.049
  0
ARC
  8
APS_GEOMETRY
 10
-426.007
 20
-654.941
 40
16.726
 50
351.049
 51
356.46
  0
ARC
  8
APS_GEOMETRY
 10
-421.589
 20
-655.109
 40
12.307
 50
355.972
 51
358.68
  0
ARC
  8
APS_GEOMETRY
 10
-566.685
 20
-651.766
 40
157.441
 50
358.68
 51
359.437
  0
LINE
  8
APS_GEOMETRY
 10
-409.252
 11
-409.236
 20
-653.313
 21
-650.857
  0
LINE
  8
APS_GEOMETRY
 10
-409.236
 11
-409.231
 20
-650.857
 21
-647.651
  0
ARC
  8
APS_GEOMETRY
 10
-447.136
 20
-647.651
 40
37.905
 50
360.0
 51
1.717
  0
ARC
  8
APS_GEOMETRY
 10
-426.852
 20
-647.043
 40
17.611
 50
1.717
 51
4.236
  0
ARC
  8
APS_GEOMETRY
 10
-420.237
 20
-646.553
 40
10.979
 50
4.236
 51
8.269
  0
ARC
  8
APS_GEOMETRY
 10
-412.625
 20
-645.446
 40
3.287
 50
8.269
 51
15.642
  0
ARC
  8
APS_GEOMETRY
 10
-411.315
 20
-645.08
 40
1.926
 50
15.642
 51
39.417
  0
ARC
  8
APS_GEOMETRY
 10
-411.286
 20
-645.055
 40
1.888
 50
39.417
 51
63.435
  0
ARC
  8
APS_GEOMETRY
 10
-407.885
 20
-638.011
 40
5.935
 50
236.874
 51
244.486
  0
ARC
  8
APS_GEOMETRY
 10
-410.415
 20
-641.887
 40
1.306
 50
220.601
 51
236.874
  0
ARC
  8
APS_GEOMETRY
 10
-410.705
 20
-642.136
 40
0.923
 50
198.246
 51
220.601
  0
ARC
  8
APS_GEOMETRY
 10
-410.271
 20
-641.993
 40
1.38
 50
180.0
 51
198.246
  0
ARC
  8
APS_GEOMETRY
 10
-410.278
 20
-641.993
 40
1.374
 50
156.161
 51
180.0
  0
ARC
  8
APS_GEOMETRY
 10
-410.086
 20
-642.078
 40
1.583
 50
133.977
 51
156.161
  0
ARC
  8
APS_GEOMETRY
 10
-409.704
 20
-642.473
 40
2.133
 50
116.996
 51
133.977
  0
ARC
  8
APS_GEOMETRY
 10
-408.946
 20
-643.962
 40
3.804
 50
104.3
 51
116.996
  0
ARC
  8
APS_GEOMETRY
 10
-408.75
 20
-644.715
 40
4.582
 50
95.326
 51
104.349
  0
ARC
  8
APS_GEOMETRY
 10
-407.956
 20
-653.232
 40
13.136
 50
90.0
 51
95.326
  0
ARC
  8
APS_GEOMETRY
 10
-407.956
 20
-646.603
 40
6.506
 50
87.553
 51
90.0
  0
ARC
  8
APS_GEOMETRY
 10
-409.34
 20
-678.996
 40
38.93
 50
86.553
 51
87.553
  0
ARC
  8
APS_GEOMETRY
 10
-411.309
 20
-711.67
 40
71.662
 50
86.009
 51
86.553
  0
ARC
  8
APS_GEOMETRY
 10
-418.962
 20
-821.376
 40
181.636
 50
85.668
 51
86.009
  0
ARC
  8
APS_GEOMETRY
 10
-404.638
 20
-632.721
 40
7.563
 50
265.426
 51
268.531
  0
ARC
  8
APS_GEOMETRY
 10
-403.966
 20
-606.5
 40
33.793
 50
268.531
 51
270.0
  0
ARC
  8
APS_GEOMETRY
 10
-403.966
 20
-614.537
 40
25.755
 50
270.0
 51
271.637
  0
ARC
  8
APS_GEOMETRY
 10
-404.542
 20
-594.395
 40
45.906
 50
271.637
 51
272.862
  0
ARC
  8
APS_GEOMETRY
 10
-405.202
 20
-581.18
 40
59.137
 50
272.862
 51
273.814
  0
ARC
  8
APS_GEOMETRY
 10
-407.439
 20
-547.628
 40
92.764
 50
273.814
 51
274.574
  0
ARC
  8
APS_GEOMETRY
 10
-393.408
 20
-730.124
 40
90.271
 50
93.72
 51
94.214
  0
ARC
  8
APS_GEOMETRY
 10
-396.403
 20
-684.065
 40
44.115
 50
93.013
 51
93.72
  0
ARC
  8
APS_GEOMETRY
 10
-397.224
 20
-668.467
 40
28.496
 50
91.918
 51
93.013
  0
ARC
  8
APS_GEOMETRY
 10
-397.867
 20
-649.259
 40
9.277
 50
90.0
 51
91.918
  0
ARC
  8
APS_GEOMETRY
 10
-397.867
 20
-652.036
 40
12.054
 50
73.82
 51
90.0
  0
ARC
  8
APS_GEOMETRY
 10
-396.679
 20
-647.941
 40
7.791
 50
53.658
 51
73.82
  0
ARC
  8
APS_GEOMETRY
 10
-394.989
 20
-645.632
 40
4.929
 50
26.03
 51
53.569
  0
ARC
  8
APS_GEOMETRY
 10
-395.507
 20
-645.885
 40
5.506
 50
360.0
 51
26.03
  0
ARC
  8
APS_GEOMETRY
 10
-395.723
 20
-645.885
 40
5.722
 50
345.282
 51
360.0
  0
ARC
  8
APS_GEOMETRY
 10
-395.173
 20
-646.029
 40
5.152
 50
329.767
 51
345.282
  0
ARC
  8
APS_GEOMETRY
 10
-394.861
 20
-646.211
 40
4.792
 50
313.168
 51
329.767
  0
ARC
  8
APS_GEOMETRY
 10
-394.746
 20
-646.334
 40
4.623
 50
296.267
 51
313.168
  0
ARC
  8
APS_GEOMETRY
 10
-392.114
 20
-651.651
 40
1.31
 50
116.565
 51
139.899
  0
ARC
  8
APS_GEOMETRY
 10
-392.767
 20
-651.101
 40
0.456
 50
139.899
 51
180.0
  0
ARC
  8
APS_GEOMETRY
 10
-392.717
 20
-651.101
 40
0.506
 50
180.0
 51
226.193
  0
ARC
  8
APS_GEOMETRY
 10
-391.781
 20
-650.126
 40
1.858
 50
226.193
 51
249.829
  0
ARC
  8
APS_GEOMETRY
 10
-394.462
 20
-657.506
 40
5.995
 50
53.249
 51
70.105
  0
ARC
  8
APS_GEOMETRY
 10
-393.244
 20
-655.876
 40
3.96
 50
32.471
 51
53.249
  0
ARC
  8
APS_GEOMETRY
 10
-393.812
 20
-656.237
 40
4.632
 50
23.305
 51
32.471
  0
ARC
  8
APS_GEOMETRY
 10
-397.317
 20
-657.747
 40
8.449
 50
16.521
 51
23.305
  0
ARC
  8
APS_GEOMETRY
 10
-400.049
 20
-658.557
 40
11.299
 50
11.429
 51
16.521
  0
ARC
  8
APS_GEOMETRY
 10
-407.794
 20
-660.123
 40
19.201
 50
7.524
 51
11.429
  0
ARC
  8
APS_GEOMETRY
 10
-382.13
 20
-656.705
 40
6.69
 50
187.765
 51
196.914
  0
ARC
  8
APS_GEOMETRY
 10
-387.602
 20
-658.369
 40
0.971
 50
196.914
 51
221.082
  0
ARC
  8
APS_GEOMETRY
 10
-387.581
 20
-658.351
 40
0.999
 50
221.082
 51
244.607
  0
ARC
  8
APS_GEOMETRY
 10
-385.244
 20
-653.428
 40
6.448
 50
244.607
 51
253.811
  0
ARC
  8
APS_GEOMETRY
 10
-387.299
 20
-660.433
 40
0.852
 50
51.45
 51
72.474
  0
ARC
  8
APS_GEOMETRY
 10
-387.51
 20
-660.698
 40
1.191
 50
33.69
 51
51.45
  0
ARC
  8
APS_GEOMETRY
 10
-387.559
 20
-660.731
 40
1.25
 50
16.639
 51
33.69
  0
ARC
  8
APS_GEOMETRY
 10
-387.619
 20
-660.748
 40
1.312
 50
360.0
 51
16.639
  0
ARC
  8
APS_GEOMETRY
 10
-387.637
 20
-660.748
 40
1.331
 50
338.993
 51
360.0
  0
ARC
  8
APS_GEOMETRY
 10
-388.45
 20
-660.436
 40
2.201
 50
322.696
 51
338.993
  0
ARC
  8
APS_GEOMETRY
 10
-388.752
 20
-660.206
 40
2.582
 50
308.603
 51
322.696
  0
ARC
  8
APS_GEOMETRY
 10
-388.961
 20
-659.945
 40
2.916
 50
295.346
 51
308.603
  0
ARC
  8
APS_GEOMETRY
 10
-390.056
 20
-657.532
 40
5.566
 50
279.583
 51
294.905
  0
ARC
  8
APS_GEOMETRY
 10
-391.49
 20
-649.041
 40
14.176
 50
270.0
 51
279.583
  0
ARC
  8
APS_GEOMETRY
 10
-391.49
 20
-652.882
 40
10.336
 50
261.247
 51
270.0
  0
ARC
  8
APS_GEOMETRY
 10
-392.152
 20
-657.182
 40
5.985
 50
249.737
 51
261.247
  0
ARC
  8
APS_GEOMETRY
 10
-392.587
 20
-658.361
 40
4.728
 50
235.345
 51
249.737
  0
ARC
  8
APS_GEOMETRY
 10
-393.137
 20
-659.156
 40
3.762
 50
219.198
 51
235.345
  0
ARC
  8
APS_GEOMETRY
 10
-391.98
 20
-658.17
 40
5.281
 50
209.076
 51
219.56
  0
ARC
  8
APS_GEOMETRY
 10
-389.31
 20
-656.685
 40
8.337
 50
200.735
 51
209.076
  0
ARC
  8
APS_GEOMETRY
 10
-385.625
 20
-655.29
 40
12.277
 50
197.881
 51
200.735
  0
ARC
  8
APS_GEOMETRY
 10
-370.484
 20
-650.405
 40
28.186
 50
195.997
 51
197.881
  0
ARC
  8
APS_GEOMETRY
 10
-359.293
 20
-647.197
 40
39.828
 50
194.664
 51
195.997
  0
ARC
  8
APS_GEOMETRY
 10
-328.296
 20
-639.085
 40
71.869
 50
193.671
 51
194.664
  0
ARC
  8
APS_GEOMETRY
 10
-406.901
 20
-658.196
 40
9.026
 50
13.61
 51
23.585
  0
ARC
  8
APS_GEOMETRY
 10
-400.991
 20
-655.616
 40
2.577
 50
23.585
 51
42.31
  0
ARC
  8
APS_GEOMETRY
 10
-400.455
 20
-655.128
 40
1.853
 50
42.31
 51
67.521
  0
ARC
  8
APS_GEOMETRY
 10
-400.879
 20
-656.153
 40
2.962
 50
67.521
 51
87.397
  0
LINE
  8
APS_GEOMETRY
 10
-401.677
 11
-401.857
 20
-644.855
 21
-648.665
  0
LINE
  8
APS_GEOMETRY
 10
-401.857
 11
-401.857
 20
-648.665
 21
-648.726
  0
LINE
  8
APS_GEOMETRY
 10
-401.857
 11
-401.857
 20
-648.726
 21
-648.812
  0
ARC
  8
APS_GEOMETRY
 10
-399.21
 20
-648.812
 40
2.647
 50
180.0
 51
192.339
  0
ARC
  8
APS_GEOMETRY
 10
-401.314
 20
-649.272
 40
0.493
 50
192.339
 51
221.186
  0
ARC
  8
APS_GEOMETRY
 10
-401.364
 20
-649.316
 40
0.426
 50
221.186
 51
253.872
  0
ARC
  8
APS_GEOMETRY
 10
-401.006
 20
-648.078
 40
1.715
 50
253.872
 51
270.0
  0
ARC
  8
APS_GEOMETRY
 10
-401.006
 20
-645.808
 40
3.985
 50
270.0
 51
289.569
  0
ARC
  8
APS_GEOMETRY
 10
-400.282
 20
-647.846
 40
1.822
 50
289.569
 51
318.681
  0
ARC
  8
APS_GEOMETRY
 10
-400.478
 20
-647.673
 40
2.083
 50
318.681
 51
344.628
  0
ARC
  8
APS_GEOMETRY
 10
-404.129
 20
-646.67
 40
5.87
 50
344.628
 51
0.0
  0
ARC
  8
APS_GEOMETRY
 10
-402.393
 20
-646.67
 40
4.134
 50
0.0
 51
35.369
  0
ARC
  8
APS_GEOMETRY
 10
-400.499
 20
-645.325
 40
1.812
 50
35.369
 51
90.0
  0
ARC
  8
APS_GEOMETRY
 10
-400.499
 20
-645.345
 40
1.831
 50
90.0
 51
108.435
  0
ARC
  8
APS_GEOMETRY
 10
-400.856
 20
-644.276
 40
0.705
 50
108.435
 51
138.366
  0
ARC
  8
APS_GEOMETRY
 10
-400.76
 20
-644.361
 40
0.833
 50
138.366
 51
164.291
  0
ARC
  8
APS_GEOMETRY
 10
-398.518
 20
-644.992
 40
3.162
 50
164.291
 51
177.51
  0
LINE
  8
APS_GEOMETRY
 10
-372.567
 11
-364.424
 20
-641.045
 21
-648.174
  0
ARC
  8
APS_GEOMETRY
 10
-356.808
 20
-639.434
 40
11.592
 50
228.93
 51
232.674
  0
ARC
  8
APS_GEOMETRY
 10
-361.045
 20
-644.991
 40
4.605
 50
232.674
 51
238.617
  0
ARC
  8
APS_GEOMETRY
 10
-362.111
 20
-646.738
 40
2.558
 50
238.617
 51
249.131
  0
ARC
  8
APS_GEOMETRY
 10
-362.789
 20
-648.517
 40
0.655
 50
249.131
 51
270.0
  0
ARC
  8
APS_GEOMETRY
 10
-362.789
 20
-648.597
 40
0.574
 50
270.0
 51
334.898
  0
ARC
  8
APS_GEOMETRY
 10
-365.438
 20
-647.356
 40
3.499
 50
334.898
 51
0.0
  0
ARC
  8
APS_GEOMETRY
 10
-391.054
 20
-647.356
 40
29.115
 50
360.0
 51
2.026
  0
ARC
  8
APS_GEOMETRY
 10
-375.61
 20
-646.81
 40
13.662
 50
2.026
 51
4.984
  0
ARC
  8
APS_GEOMETRY
 10
-370.561
 20
-646.37
 40
8.593
 50
4.984
 51
9.673
  0
ARC
  8
APS_GEOMETRY
 10
-364.741
 20
-645.378
 40
2.689
 50
9.673
 51
18.06
  0
ARC
  8
APS_GEOMETRY
 10
-363.855
 20
-645.089
 40
1.758
 50
18.06
 51
42.397
  0
ARC
  8
APS_GEOMETRY
 10
-364.141
 20
-645.35
 40
2.145
 50
42.397
 51
64.398
  0
ARC
  8
APS_GEOMETRY
 10
-361.529
 20
-639.957
 40
3.847
 50
233.633
 51
244.026
  0
ARC
  8
APS_GEOMETRY
 10
-362.952
 20
-641.889
 40
1.448
 50
216.656
 51
233.633
  0
ARC
  8
APS_GEOMETRY
 10
-363.17
 20
-642.051
 40
1.176
 50
196.082
 51
216.656
  0
ARC
  8
APS_GEOMETRY
 10
-362.458
 20
-641.846
 40
1.917
 50
180.0
 51
196.082
  0
ARC
  8
APS_GEOMETRY
 10
-362.981
 20
-641.846
 40
1.394
 50
133.202
 51
180.0
  0
ARC
  8
APS_GEOMETRY
 10
-361.882
 20
-643.016
 40
3.0
 50
101.788
 51
133.202
  0
ARC
  8
APS_GEOMETRY
 10
-361.626
 20
-644.165
 40
4.176
 50
96.633
 51
102.011
  0
ARC
  8
APS_GEOMETRY
 10
-360.696
 20
-652.159
 40
12.225
 50
93.489
 51
96.633
  0
ARC
  8
APS_GEOMETRY
 10
-360.298
 20
-658.688
 40
18.766
 50
91.439
 51
93.489
  0
ARC
  8
APS_GEOMETRY
 10
-359.813
 20
-677.986
 40
38.069
 50
90.0
 51
91.439
  0
ARC
  8
APS_GEOMETRY
 10
-359.813
 20
-675.398
 40
35.482
 50
87.994
 51
90.0
  0
ARC
  8
APS_GEOMETRY
 10
-359.168
 20
-656.978
 40
17.05
 50
85.101
 51
87.994
  0
ARC
  8
APS_GEOMETRY
 10
-358.644
 20
-650.87
 40
10.92
 50
80.595
 51
85.101
  0
ARC
  8
APS_GEOMETRY
 10
-357.451
 20
-643.663
 40
3.615
 50
72.759
 51
80.595
  0
ARC
  8
APS_GEOMETRY
 10
-357.089
 20
-642.543
 40
2.438
 50
40.956
 51
73.072
  0
ARC
  8
APS_GEOMETRY
 10
-356.399
 20
-641.944
 40
1.524
 50
360.0
 51
40.956
  0
ARC
  8
APS_GEOMETRY
 10
-356.307
 20
-641.944
 40
1.432
 50
322.573
 51
360.0
  0
ARC
  8
APS_GEOMETRY
 10
-357.06
 20
-641.368
 40
2.38
 50
293.749
 51
322.573
  0
ARC
  8
APS_GEOMETRY
 10
-354.038
 20
-648.309
 40
5.19
 50
113.429
 51
119.291
  0
ARC
  8
APS_GEOMETRY
 10
-356.057
 20
-644.708
 40
1.062
 50
119.291
 51
132.274
  0
ARC
  8
APS_GEOMETRY
 10
-356.174
 20
-644.58
 40
0.889
 50
132.274
 51
147.653
  0
ARC
  8
APS_GEOMETRY
 10
-355.333
 20
-645.113
 40
1.884
 50
147.653
 51
158.199
  0
ARC
  8
APS_GEOMETRY
 10
-354.053
 20
-645.652
 40
3.273
 50
157.751
 51
167.885
  0
ARC
  8
APS_GEOMETRY
 10
-347.243
 20
-647.114
 40
10.238
 50
167.885
 51
173.61
  0
ARC
  8
APS_GEOMETRY
 10
-341.22
 20
-647.789
 40
16.299
 50
173.61
 51
177.221
  0
ARC
  8
APS_GEOMETRY
 10
-322.642
 20
-648.691
 40
34.899
 50
177.221
 51
179.689
  0
LINE
  8
APS_GEOMETRY
 10
-357.54
 11
-357.54
 20
-648.501
 21
-653.832
  0
ARC
  8
APS_GEOMETRY
 10
-139.857
 20
-653.832
 40
217.683
 50
180.0
 51
180.161
  0
ARC
  8
APS_GEOMETRY
 10
49.052
 20
-653.3
 40
406.593
 50
180.161
 51
180.279
  0
LINE
  8
APS_GEOMETRY
 10
-357.536
 11
-357.531
 20
-655.283
 21
-656.177
  0
LINE
  8
APS_GEOMETRY
 10
-357.531
 11
-357.524
 20
-656.177
 21
-657.184
  0
ARC
  8
APS_GEOMETRY
 10
-396.366
 20
-657.404
 40
38.843
 50
358.204
 51
0.326
  0
ARC
  8
APS_GEOMETRY
 10
-377.889
 20
-657.984
 40
20.356
 50
355.274
 51
358.204
  0
ARC
  8
APS_GEOMETRY
 10
-371.457
 20
-658.516
 40
13.903
 50
350.991
 51
355.274
  0
ARC
  8
APS_GEOMETRY
 10
-363.268
 20
-659.814
 40
5.612
 50
344.249
 51
350.991
  0
ARC
  8
APS_GEOMETRY
 10
-360.5
 20
-660.604
 40
2.733
 50
314.415
 51
344.445
  0
ARC
  8
APS_GEOMETRY
 10
-359.486
 20
-661.639
 40
1.284
 50
270.0
 51
314.415
  0
ARC
  8
APS_GEOMETRY
 10
-359.486
 20
-660.843
 40
2.08
 50
256.342
 51
270.0
  0
ARC
  8
APS_GEOMETRY
 10
-359.634
 20
-661.453
 40
1.452
 50
239.982
 51
256.342
  0
ARC
  8
APS_GEOMETRY
 10
-358.987
 20
-660.333
 40
2.746
 50
231.153
 51
239.982
  0
ARC
  8
APS_GEOMETRY
 10
-348.113
 20
-646.831
 40
20.083
 50
227.891
 51
231.153
  0
LINE
  8
APS_GEOMETRY
 10
-361.579
 11
-371.276
 20
-661.73
 21
-653.047
  0
ARC
  8
APS_GEOMETRY
 10
-375.011
 20
-657.183
 40
5.573
 50
47.911
 51
61.468
  0
ARC
  8
APS_GEOMETRY
 10
-372.96
 20
-653.41
 40
1.278
 50
61.468
 51
90.0
  0
ARC
  8
APS_GEOMETRY
 10
-372.96
 20
-652.691
 40
0.56
 50
90.0
 51
133.195
  0
ARC
  8
APS_GEOMETRY
 10
-372.408
 20
-653.279
 40
1.367
 50
133.195
 51
160.454
  0
ARC
  8
APS_GEOMETRY
 10
-370.636
 20
-653.908
 40
3.247
 50
160.454
 51
173.251
  0
ARC
  8
APS_GEOMETRY
 10
-362.302
 20
-654.895
 40
11.639
 50
173.251
 51
180.0
  0
ARC
  8
APS_GEOMETRY
 10
-339.632
 20
-654.895
 40
34.309
 50
180.0
 51
181.897
  0
ARC
  8
APS_GEOMETRY
 10
-357.803
 20
-655.496
 40
16.128
 50
181.897
 51
184.664
  0
ARC
  8
APS_GEOMETRY
 10
-363.759
 20
-655.982
 40
10.152
 50
184.664
 51
189.048
  0
ARC
  8
APS_GEOMETRY
 10
-370.66
 20
-657.081
 40
3.165
 50
189.048
 51
196.905
  0
ARC
  8
APS_GEOMETRY
 10
-371.755
 20
-657.414
 40
2.02
 50
196.905
 51
220.253
  0
ARC
  8
APS_GEOMETRY
 10
-371.733
 20
-657.395
 40
2.049
 50
220.253
 51
243.435
  0
ARC
  8
APS_GEOMETRY
 10
-373.732
 20
-661.426
 40
2.45
 50
37.921
 51
63.778
  0
ARC
  8
APS_GEOMETRY
 10
-372.715
 20
-660.634
 40
1.162
 50
360.0
 51
37.921
  0
ARC
  8
APS_GEOMETRY
 10
-373.167
 20
-660.634
 40
1.614
 50
324.268
 51
360.0
  0
ARC
  8
APS_GEOMETRY
 10
-373.771
 20
-660.2
 40
2.357
 50
294.86
 51
324.268
  0
ARC
  8
APS_GEOMETRY
 10
-374.77
 20
-658.045
 40
4.732
 50
278.78
 51
294.86
  0
ARC
  8
APS_GEOMETRY
 10
-376.459
 20
-647.105
 40
15.802
 50
270.0
 51
278.78
  0
ARC
  8
APS_GEOMETRY
 10
-376.459
 20
-649.941
 40
12.966
 50
260.383
 51
270.0
  0
ARC
  8
APS_GEOMETRY
 10
-377.826
 20
-658.005
 40
4.787
 50
244.522
 51
260.383
  0
ARC
  8
APS_GEOMETRY
 10
-378.815
 20
-660.082
 40
2.486
 50
216.549
 51
244.522
  0
ARC
  8
APS_GEOMETRY
 10
-379.626
 20
-660.683
 40
1.477
 50
180.0
 51
216.549
  0
ARC
  8
APS_GEOMETRY
 10
-379.1
 20
-660.683
 40
2.003
 50
164.65
 51
180.0
  0
ARC
  8
APS_GEOMETRY
 10
-380.242
 20
-660.369
 40
0.818
 50
140.528
 51
164.65
  0
ARC
  8
APS_GEOMETRY
 10
-379.78
 20
-660.75
 40
1.417
 50
126.135
 51
140.528
  0
ARC
  8
APS_GEOMETRY
 10
-374.953
 20
-667.361
 40
9.603
 50
120.619
 51
126.135
  0
ARC
  8
APS_GEOMETRY
 10
-380.676
 20
-657.701
 40
1.625
 50
300.784
 51
330.068
  0
ARC
  8
APS_GEOMETRY
 10
-381.759
 20
-657.077
 40
2.875
 50
330.068
 51
351.983
  0
ARC
  8
APS_GEOMETRY
 10
-399.94
 20
-654.707
 40
21.21
 50
352.493
 51
355.365
  0
ARC
  8
APS_GEOMETRY
 10
-421.871
 20
-652.929
 40
43.213
 50
355.365
 51
357.376
  0
ARC
  8
APS_GEOMETRY
 10
-437.228
 20
-652.225
 40
58.586
 50
357.376
 51
358.861
  0
ARC
  8
APS_GEOMETRY
 10
-478.141
 20
-651.412
 40
99.507
 50
358.861
 51
0.0
  0
ARC
  8
APS_GEOMETRY
 10
-441.346
 20
-651.412
 40
62.712
 50
360.0
 51
1.926
  0
ARC
  8
APS_GEOMETRY
 10
-412.153
 20
-650.43
 40
33.503
 50
1.926
 51
4.562
  0
ARC
  8
APS_GEOMETRY
 10
-401.859
 20
-649.608
 40
23.176
 50
4.562
 51
8.366
  0
ARC
  8
APS_GEOMETRY
 10
-388.471
 20
-647.64
 40
9.644
 50
8.366
 51
14.265
  0
ARC
  8
APS_GEOMETRY
 10
-383.409
 20
-646.359
 40
4.422
 50
14.349
 51
23.629
  0
ARC
  8
APS_GEOMETRY
 10
-380.841
 20
-645.236
 40
1.62
 50
23.629
 51
38.991
  0
ARC
  8
APS_GEOMETRY
 10
-380.832
 20
-645.228
 40
1.608
 50
38.991
 51
54.462
  0
ARC
  8
APS_GEOMETRY
 10
-382.334
 20
-647.331
 40
4.192
 50
54.462
 51
64.026
  0
ARC
  8
APS_GEOMETRY
 10
-378.095
 20
-638.648
 40
5.471
 50
235.472
 51
243.947
  0
ARC
  8
APS_GEOMETRY
 10
-380.285
 20
-641.83
 40
1.608
 50
219.806
 51
235.472
  0
ARC
  8
APS_GEOMETRY
 10
-380.616
 20
-642.107
 40
1.176
 50
198.939
 51
219.806
  0
ARC
  8
APS_GEOMETRY
 10
-380.381
 20
-642.026
 40
1.425
 50
180.0
 51
198.939
  0
ARC
  8
APS_GEOMETRY
 10
-380.45
 20
-642.026
 40
1.356
 50
126.254
 51
180.0
  0
ARC
  8
APS_GEOMETRY
 10
-378.381
 20
-644.848
 40
4.856
 50
98.616
 51
126.254
  0
ARC
  8
APS_GEOMETRY
 10
-378.089
 20
-647.18
 40
7.205
 50
94.456
 51
98.13
  0
ARC
  8
APS_GEOMETRY
 10
-376.965
 20
-661.606
 40
21.675
 50
92.337
 51
94.456
  0
ARC
  8
APS_GEOMETRY
 10
-376.486
 20
-673.345
 40
33.424
 50
90.963
 51
92.337
  0
ARC
  8
APS_GEOMETRY
 10
-375.903
 20
-708.019
 40
68.103
 50
90.0
 51
90.963
  0
ARC
  8
APS_GEOMETRY
 10
-375.903
 20
-652.327
 40
12.411
 50
83.928
 51
90.0
  0
ARC
  8
APS_GEOMETRY
 10
-374.885
 20
-642.759
 40
2.788
 50
71.095
 51
83.928
  0
ARC
  8
APS_GEOMETRY
 10
-374.792
 20
-642.487
 40
2.501
 50
56.848
 51
71.095
  0
ARC
  8
APS_GEOMETRY
 10
-377.544
 20
-646.699
 40
7.532
 50
48.652
 51
56.848
  0
ARC
  8
APS_GEOMETRY
 10
-343.164
 20
-660.22
 40
20.304
 50
84.71
 51
90.0
  0
ARC
  8
APS_GEOMETRY
 10
-342.792
 20
-656.2
 40
16.267
 50
78.799
 51
84.71
  0
ARC
  8
APS_GEOMETRY
 10
-340.383
 20
-644.029
 40
3.859
 50
49.783
 51
78.771
  0
ARC
  8
APS_GEOMETRY
 10
-338.773
 20
-642.124
 40
1.365
 50
360.0
 51
49.783
  0
ARC
  8
APS_GEOMETRY
 10
-338.918
 20
-642.124
 40
1.51
 50
342.759
 51
360.0
  0
ARC
  8
APS_GEOMETRY
 10
-338.13
 20
-642.368
 40
0.685
 50
317.045
 51
342.759
  0
ARC
  8
APS_GEOMETRY
 10
-338.51
 20
-642.014
 40
1.205
 50
301.817
 51
317.045
  0
ARC
  8
APS_GEOMETRY
 10
-344.139
 20
-632.943
 40
11.88
 50
296.98
 51
301.817
  0
ARC
  8
APS_GEOMETRY
 10
-338.138
 20
-644.752
 40
1.366
 50
116.565
 51
149.078
  0
ARC
  8
APS_GEOMETRY
 10
-336.378
 20
-645.806
 40
3.417
 50
149.078
 51
169.469
  0
ARC
  8
APS_GEOMETRY
 10
-332.626
 20
-646.504
 40
7.234
 50
169.469
 51
174.598
  0
ARC
  8
APS_GEOMETRY
 10
-313.294
 20
-648.332
 40
26.652
 50
174.598
 51
177.269
  0
ARC
  8
APS_GEOMETRY
 10
-296.295
 20
-649.143
 40
43.67
 50
177.269
 51
178.901
  0
ARC
  8
APS_GEOMETRY
 10
-243.642
 20
-650.153
 40
96.333
 50
178.901
 51
180.0
  0
ARC
  8
APS_GEOMETRY
 10
-136.647
 20
-650.153
 40
203.328
 50
180.0
 51
180.88
  0
ARC
  8
APS_GEOMETRY
 10
-261.907
 20
-652.077
 40
78.054
 50
180.88
 51
182.3
  0
ARC
  8
APS_GEOMETRY
 10
-298.52
 20
-653.547
 40
41.411
 50
182.3
 51
184.974
  0
ARC
  8
APS_GEOMETRY
 10
-333.43
 20
-656.585
 40
6.369
 50
184.974
 51
191.793
  0
ARC
  8
APS_GEOMETRY
 10
-337.485
 20
-657.361
 40
2.242
 50
193.57
 51
205.787
  0
ARC
  8
APS_GEOMETRY
 10
-338.494
 20
-657.848
 40
1.122
 50
205.787
 51
223.091
  0
ARC
  8
APS_GEOMETRY
 10
-338.238
 20
-657.609
 40
1.472
 50
223.091
 51
236.441
  0
ARC
  8
APS_GEOMETRY
 10
-336.096
 20
-654.38
 40
5.346
 50
236.441
 51
243.435
  0
ARC
  8
APS_GEOMETRY
 10
-339.375
 20
-661.116
 40
2.146
 50
37.185
 51
65.556
  0
ARC
  8
APS_GEOMETRY
 10
-338.675
 20
-660.585
 40
1.268
 50
0.0
 51
37.185
  0
ARC
  8
APS_GEOMETRY
 10
-338.714
 20
-660.585
 40
1.306
 50
312.039
 51
360.0
  0
ARC
  8
APS_GEOMETRY
 10
-340.269
 20
-658.86
 40
3.629
 50
283.815
 51
312.039
  0
ARC
  8
APS_GEOMETRY
 10
-342.84
 20
-648.207
 40
14.587
 50
279.273
 51
283.627
  0
ARC
  8
APS_GEOMETRY
 10
-343.867
 20
-641.914
 40
20.963
 50
275.641
 51
279.273
  0
ARC
  8
APS_GEOMETRY
 10
-344.26
 20
-637.937
 40
24.959
 50
272.588
 51
275.641
  0
ARC
  8
APS_GEOMETRY
 10
-344.701
 20
-628.179
 40
34.728
 50
270.0
 51
272.588
  0
ARC
  8
APS_GEOMETRY
 10
-344.701
 20
-641.96
 40
20.947
 50
262.774
 51
270.0
  0
ARC
  8
APS_GEOMETRY
 10
-346.589
 20
-656.854
 40
5.934
 50
249.175
 51
262.774
  0
ARC
  8
APS_GEOMETRY
 10
-347.776
 20
-659.973
 40
2.597
 50
221.23
 51
249.175
  0
ARC
  8
APS_GEOMETRY
 10
-348.81
 20
-660.879
 40
1.221
 50
180.0
 51
221.23
  0
ARC
  8
APS_GEOMETRY
 10
-349.011
 20
-660.879
 40
1.021
 50
142.696
 51
180.0
  0
ARC
  8
APS_GEOMETRY
 10
-347.4
 20
-662.106
 40
3.046
 50
121.357
 51
142.696
  0
ARC
  8
APS_GEOMETRY
 10
-350.122
 20
-657.649
 40
2.177
 50
301.477
 51
324.728
  0
ARC
  8
APS_GEOMETRY
 10
-349.832
 20
-657.854
 40
1.822
 50
324.728
 51
350.181
  0
ARC
  8
APS_GEOMETRY
 10
-358.952
 20
-656.346
 40
11.066
 50
350.538
 51
355.423
  0
ARC
  8
APS_GEOMETRY
 10
-396.428
 20
-653.345
 40
48.662
 50
355.423
 51
357.752
  0
ARC
  8
APS_GEOMETRY
 10
-431.225
 20
-651.979
 40
83.485
 50
357.752
 51
359.111
  0
ARC
  8
APS_GEOMETRY
 10
-542.598
 20
-650.251
 40
194.872
 50
359.111
 51
0.0
  0
ARC
  8
APS_GEOMETRY
 10
-415.338
 20
-650.251
 40
67.612
 50
0.0
 51
1.773
  0
ARC
  8
APS_GEOMETRY
 10
-375.658
 20
-649.022
 40
27.913
 50
1.773
 51
4.532
  0
ARC
  8
APS_GEOMETRY
 10
-363.597
 20
-648.066
 40
15.814
 50
4.532
 51
9.384
  0
ARC
  8
APS_GEOMETRY
 10
-351.35
 20
-646.043
 40
3.402
 50
9.384
 51
19.855
  0
ARC
  8
APS_GEOMETRY
 10
-349.73
 20
-645.426
 40
1.668
 50
18.853
 51
42.158
  0
ARC
  8
APS_GEOMETRY
 10
-351.119
 20
-646.684
 40
3.542
 50
42.158
 51
58.092
  0
ARC
  8
APS_GEOMETRY
 10
-345.004
 20
-637.235
 40
7.713
 50
230.711
 51
236.634
  0
ARC
  8
APS_GEOMETRY
 10
-348.845
 20
-641.93
 40
1.648
 50
217.875
 51
230.711
  0
ARC
  8
APS_GEOMETRY
 10
-349.372
 20
-642.339
 40
0.981
 50
196.928
 51
217.875
  0
ARC
  8
APS_GEOMETRY
 10
-348.879
 20
-642.189
 40
1.496
 50
180.0
 51
196.928
  0
ARC
  8
APS_GEOMETRY
 10
-349.201
 20
-642.189
 40
1.174
 50
148.791
 51
180.0
  0
ARC
  8
APS_GEOMETRY
 10
-348.893
 20
-642.376
 40
1.533
 50
121.569
 51
148.791
  0
ARC
  8
APS_GEOMETRY
 10
-348.341
 20
-643.275
 40
2.589
 50
112.806
 51
121.569
  0
ARC
  8
APS_GEOMETRY
 10
-346.847
 20
-646.827
 40
6.443
 50
107.254
 51
112.806
  0
ARC
  8
APS_GEOMETRY
 10
-345.932
 20
-649.773
 40
9.527
 50
103.487
 51
107.254
  0
ARC
  8
APS_GEOMETRY
 10
-343.837
 20
-658.509
 40
18.511
 50
100.784
 51
103.487
  0
ARC
  8
APS_GEOMETRY
 10
-343.181
 20
-660.925
 40
21.008
 50
95.643
 51
101.31
  0
ARC
  8
APS_GEOMETRY
 10
-343.164
 20
-661.098
 40
21.181
 50
90.0
 51
95.643
  0
ARC
  8
APS_GEOMETRY
 10
-322.829
 20
-650.434
 40
10.632
 50
77.257
 51
90.0
  0
ARC
  8
APS_GEOMETRY
 10
-322.937
 20
-650.911
 40
11.122
 50
64.799
 51
77.257
  0
ARC
  8
APS_GEOMETRY
 10
-313.778
 20
-631.412
 40
10.421
 50
244.885
 51
251.175
  0
ARC
  8
APS_GEOMETRY
 10
-316.762
 20
-640.166
 40
1.173
 50
251.175
 51
270.0
  0
ARC
  8
APS_GEOMETRY
 10
-316.762
 20
-639.436
 40
1.903
 50
270.0
 51
278.82
  0
ARC
  8
APS_GEOMETRY
 10
-317.992
 20
-631.512
 40
9.922
 50
278.82
 51
282.68
  0
ARC
  8
APS_GEOMETRY
 10
-315.419
 20
-642.902
 40
1.755
 50
95.906
 51
102.995
  0
ARC
  8
APS_GEOMETRY
 10
-315.34
 20
-643.67
 40
2.528
 50
90.0
 51
95.906
  0
ARC
  8
APS_GEOMETRY
 10
-315.34
 20
-642.82
 40
1.678
 50
62.447
 51
90.0
  0
ARC
  8
APS_GEOMETRY
 10
-315.638
 20
-643.392
 40
2.323
 50
39.094
 51
62.447
  0
ARC
  8
APS_GEOMETRY
 10
-318.755
 20
-645.999
 40
6.386
 50
18.435
 51
39.611
  0
ARC
  8
APS_GEOMETRY
 10
-320.668
 20
-646.637
 40
8.403
 50
360.0
 51
18.435
  0
ARC
  8
APS_GEOMETRY
 10
-316.432
 20
-646.637
 40
4.167
 50
334.877
 51
360.0
  0
ARC
  8
APS_GEOMETRY
 10
-315.179
 20
-647.225
 40
2.783
 50
304.007
 51
334.877
  0
ARC
  8
APS_GEOMETRY
 10
-315.2
 20
-647.166
 40
2.843
 50
286.39
 51
303.69
  0
ARC
  8
APS_GEOMETRY
 10
-315.291
 20
-646.857
 40
3.165
 50
270.0
 51
286.39
  0
ARC
  8
APS_GEOMETRY
 10
-315.291
 20
-646.893
 40
3.128
 50
255.155
 51
270.0
  0
ARC
  8
APS_GEOMETRY
 10
-315.633
 20
-648.186
 40
1.791
 50
235.491
 51
255.155
  0
ARC
  8
APS_GEOMETRY
 10
-315.461
 20
-647.936
 40
2.094
 50
218.48
 51
235.491
  0
ARC
  8
APS_GEOMETRY
 10
-312.651
 20
-645.702
 40
5.684
 50
208.179
 51
218.48
  0
ARC
  8
APS_GEOMETRY
 10
-341.463
 20
-661.342
 40
27.099
 50
28.56
 51
31.664
  0
ARC
  8
APS_GEOMETRY
 10
-323.857
 20
-650.483
 40
6.414
 50
31.664
 51
38.047
  0
ARC
  8
APS_GEOMETRY
 10
-322.577
 20
-649.482
 40
4.788
 50
38.047
 51
46.56
  0
ARC
  8
APS_GEOMETRY
 10
-323.242
 20
-650.184
 40
5.756
 50
46.56
 51
54.324
  0
ARC
  8
APS_GEOMETRY
 10
-323.626
 20
-650.845
 40
6.517
 50
54.968
 51
71.48
  0
ARC
  8
APS_GEOMETRY
 10
-323.205
 20
-649.587
 40
5.19
 50
71.48
 51
90.0
  0
ARC
  8
APS_GEOMETRY
 10
-323.205
 20
-648.022
 40
3.625
 50
90.0
 51
114.63
  0
ARC
  8
APS_GEOMETRY
 10
-323.387
 20
-647.625
 40
3.188
 50
114.63
 51
140.921
  0
ARC
  8
APS_GEOMETRY
 10
-322.849
 20
-648.062
 40
3.881
 50
140.921
 51
163.13
  0
ARC
  8
APS_GEOMETRY
 10
-320.16
 20
-648.877
 40
6.691
 50
163.13
 51
180.0
  0
ARC
  8
APS_GEOMETRY
 10
-316.674
 20
-648.877
 40
10.178
 50
180.0
 51
195.44
  0
ARC
  8
APS_GEOMETRY
 10
-317.203
 20
-649.023
 40
9.629
 50
195.44
 51
211.316
  0
ARC
  8
APS_GEOMETRY
 10
-319.747
 20
-650.518
 40
6.678
 50
211.708
 51
240.457
  0
ARC
  8
APS_GEOMETRY
 10
-319.918
 20
-650.819
 40
6.332
 50
240.457
 51
270.0
  0
ARC
  8
APS_GEOMETRY
 10
-319.918
 20
-649.276
 40
7.875
 50
270.0
 51
279.549
  0
ARC
  8
APS_GEOMETRY
 10
-320.016
 20
-648.694
 40
8.466
 50
279.549
 51
288.759
  0
ARC
  8
APS_GEOMETRY
 10
-319.603
 20
-649.909
 40
7.182
 50
288.759
 51
299.545
  0
ARC
  8
APS_GEOMETRY
 10
-317.948
 20
-652.828
 40
3.826
 50
299.545
 51
314.341
  0
ARC
  8
APS_GEOMETRY
 10
-312.831
 20
-658.144
 40
3.553
 50
120.141
 51
133.452
  0
ARC
  8
APS_GEOMETRY
 10
-314.26
 20
-655.682
 40
0.706
 50
90.0
 51
120.141
  0
ARC
  8
APS_GEOMETRY
 10
-314.26
 20
-656.091
 40
1.115
 50
61.952
 51
90.0
  0
ARC
  8
APS_GEOMETRY
 10
-314.426
 20
-656.403
 40
1.468
 50
37.569
 51
61.952
  0
ARC
  8
APS_GEOMETRY
 10
-314.736
 20
-656.641
 40
1.859
 50
17.665
 51
37.569
  0
ARC
  8
APS_GEOMETRY
 10
-315.208
 20
-656.791
 40
2.354
 50
360.0
 51
17.665
  0
ARC
  8
APS_GEOMETRY
 10
-316.394
 20
-656.791
 40
3.54
 50
344.932
 51
0.0
  0
ARC
  8
APS_GEOMETRY
 10
-319.543
 20
-655.944
 40
6.801
 50
334.075
 51
344.932
  0
ARC
  8
APS_GEOMETRY
 10
-319.642
 20
-655.895
 40
6.912
 50
323.374
 51
334.075
  0
ARC
  8
APS_GEOMETRY
 10
-317.611
 20
-657.406
 40
4.38
 50
309.92
 51
323.374
  0
ARC
  8
APS_GEOMETRY
 10
-315.58
 20
-659.801
 40
1.24
 50
289.026
 51
308.991
  0
ARC
  8
APS_GEOMETRY
 10
-317.747
 20
-653.518
 40
7.886
 50
281.143
 51
289.026
  0
ARC
  8
APS_GEOMETRY
 10
-315.55
 20
-664.909
 40
3.715
 50
100.437
 51
110.12
  0
ARC
  8
APS_GEOMETRY
 10
-312.639
 20
-672.854
 40
12.177
 50
110.12
 51
115.463
  0
ARC
  8
APS_GEOMETRY
 10
-323.03
 20
-651.114
 40
11.919
 50
282.94
 51
295.628
  0
ARC
  8
APS_GEOMETRY
 10
-322.927
 20
-651.561
 40
11.46
 50
270.0
 51
282.94
  0
ARC
  8
APS_GEOMETRY
 10
-322.927
 20
-650.884
 40
12.137
 50
257.307
 51
270.0
  0
ARC
  8
APS_GEOMETRY
 10
-322.414
 20
-648.609
 40
14.469
 50
245.686
 51
257.307
  0
ARC
  8
APS_GEOMETRY
 10
-323.7
 20
-651.43
 40
11.37
 50
228.801
 51
245.735
  0
ARC
  8
APS_GEOMETRY
 10
-323.678
 20
-651.405
 40
11.402
 50
211.891
 51
228.801
  0
ARC
  8
APS_GEOMETRY
 10
-323.004
 20
-650.92
 40
12.231
 50
196.728
 51
212.152
  0
ARC
  8
APS_GEOMETRY
 10
-324.748
 20
-651.444
 40
10.41
 50
180.0
 51
196.728
  0
ARC
  8
APS_GEOMETRY
 10
-324.494
 20
-651.444
 40
10.663
 50
161.184
 51
180.0
  0
ARC
  8
APS_GEOMETRY
 10
-323.81
 20
-651.677
 40
11.386
 50
142.98
 51
161.184
  0
ARC
  8
APS_GEOMETRY
 10
-323.278
 20
-652.085
 40
12.056
 50
127.824
 51
142.958
  0
ARC
  8
APS_GEOMETRY
 10
-322.401
 20
-653.214
 40
13.486
 50
113.52
 51
127.824
  0
ARC
  8
APS_GEOMETRY
 10
-322.687
 20
-652.555
 40
12.768
 50
101.927
 51
113.527
  0
ARC
  8
APS_GEOMETRY
 10
-322.829
 20
-651.882
 40
12.08
 50
90.0
 51
101.927
  0
ARC
  8
APS_GEOMETRY
 10
-300.554
 20
-660.22
 40
20.304
 50
84.71
 51
90.0
  0
ARC
  8
APS_GEOMETRY
 10
-300.182
 20
-656.2
 40
16.267
 50
78.799
 51
84.71
  0
ARC
  8
APS_GEOMETRY
 10
-297.774
 20
-644.029
 40
3.859
 50
49.783
 51
78.771
  0
ARC
  8
APS_GEOMETRY
 10
-296.163
 20
-642.124
 40
1.365
 50
360.0
 51
49.783
  0
ARC
  8
APS_GEOMETRY
 10
-296.308
 20
-642.124
 40
1.51
 50
342.759
 51
360.0
  0
ARC
  8
APS_GEOMETRY
 10
-295.521
 20
-642.368
 40
0.685
 50
317.045
 51
342.759
  0
ARC
  8
APS_GEOMETRY
 10
-295.901
 20
-642.014
 40
1.205
 50
301.817
 51
317.045
  0
ARC
  8
APS_GEOMETRY
 10
-301.529
 20
-632.943
 40
11.88
 50
296.98
 51
301.817
  0
ARC
  8
APS_GEOMETRY
 10
-295.528
 20
-644.752
 40
1.366
 50
116.565
 51
149.078
  0
ARC
  8
APS_GEOMETRY
 10
-293.769
 20
-645.806
 40
3.417
 50
149.078
 51
169.469
  0
ARC
  8
APS_GEOMETRY
 10
-290.017
 20
-646.504
 40
7.234
 50
169.469
 51
174.598
  0
ARC
  8
APS_GEOMETRY
 10
-270.685
 20
-648.332
 40
26.652
 50
174.598
 51
177.269
  0
ARC
  8
APS_GEOMETRY
 10
-253.686
 20
-649.143
 40
43.67
 50
177.269
 51
178.901
  0
ARC
  8
APS_GEOMETRY
 10
-201.032
 20
-650.153
 40
96.333
 50
178.901
 51
180.0
  0
ARC
  8
APS_GEOMETRY
 10
-94.037
 20
-650.153
 40
203.328
 50
180.0
 51
180.88
  0
ARC
  8
APS_GEOMETRY
 10
-219.297
 20
-652.077
 40
78.054
 50
180.88
 51
182.3
  0
ARC
  8
APS_GEOMETRY
 10
-255.91
 20
-653.547
 40
41.411
 50
182.3
 51
184.974
  0
ARC
  8
APS_GEOMETRY
 10
-290.821
 20
-656.585
 40
6.369
 50
184.974
 51
191.793
  0
ARC
  8
APS_GEOMETRY
 10
-294.876
 20
-657.361
 40
2.242
 50
193.57
 51
205.787
  0
ARC
  8
APS_GEOMETRY
 10
-295.884
 20
-657.848
 40
1.122
 50
205.787
 51
223.091
  0
ARC
  8
APS_GEOMETRY
 10
-295.628
 20
-657.609
 40
1.472
 50
223.091
 51
236.441
  0
ARC
  8
APS_GEOMETRY
 10
-293.487
 20
-654.38
 40
5.346
 50
236.441
 51
243.435
  0
ARC
  8
APS_GEOMETRY
 10
-296.766
 20
-661.116
 40
2.146
 50
37.185
 51
65.556
  0
ARC
  8
APS_GEOMETRY
 10
-296.066
 20
-660.585
 40
1.268
 50
0.0
 51
37.185
  0
ARC
  8
APS_GEOMETRY
 10
-296.105
 20
-660.585
 40
1.306
 50
312.039
 51
360.0
  0
ARC
  8
APS_GEOMETRY
 10
-297.66
 20
-658.86
 40
3.629
 50
283.815
 51
312.039
  0
ARC
  8
APS_GEOMETRY
 10
-300.23
 20
-648.207
 40
14.587
 50
279.273
 51
283.627
  0
ARC
  8
APS_GEOMETRY
 10
-301.258
 20
-641.914
 40
20.963
 50
275.641
 51
279.273
  0
ARC
  8
APS_GEOMETRY
 10
-301.65
 20
-637.937
 40
24.959
 50
272.588
 51
275.641
  0
ARC
  8
APS_GEOMETRY
 10
-302.091
 20
-628.179
 40
34.728
 50
270.0
 51
272.588
  0
ARC
  8
APS_GEOMETRY
 10
-302.091
 20
-641.96
 40
20.947
 50
262.774
 51
270.0
  0
ARC
  8
APS_GEOMETRY
 10
-303.98
 20
-656.854
 40
5.934
 50
249.175
 51
262.774
  0
ARC
  8
APS_GEOMETRY
 10
-305.166
 20
-659.973
 40
2.597
 50
221.23
 51
249.175
  0
ARC
  8
APS_GEOMETRY
 10
-306.201
 20
-660.879
 40
1.221
 50
180.0
 51
221.23
  0
ARC
  8
APS_GEOMETRY
 10
-306.401
 20
-660.879
 40
1.021
 50
142.696
 51
180.0
  0
ARC
  8
APS_GEOMETRY
 10
-304.791
 20
-662.106
 40
3.046
 50
121.357
 51
142.696
  0
ARC
  8
APS_GEOMETRY
 10
-307.512
 20
-657.649
 40
2.177
 50
301.477
 51
324.728
  0
ARC
  8
APS_GEOMETRY
 10
-307.222
 20
-657.854
 40
1.822
 50
324.728
 51
350.181
  0
ARC
  8
APS_GEOMETRY
 10
-316.343
 20
-656.346
 40
11.066
 50
350.538
 51
355.423
  0
ARC
  8
APS_GEOMETRY
 10
-353.819
 20
-653.345
 40
48.662
 50
355.423
 51
357.752
  0
ARC
  8
APS_GEOMETRY
 10
-388.615
 20
-651.979
 40
83.485
 50
357.752
 51
359.111
  0
ARC
  8
APS_GEOMETRY
 10
-499.989
 20
-650.251
 40
194.872
 50
359.111
 51
0.0
  0
ARC
  8
APS_GEOMETRY
 10
-372.728
 20
-650.251
 40
67.612
 50
0.0
 51
1.773
  0
ARC
  8
APS_GEOMETRY
 10
-333.048
 20
-649.022
 40
27.913
 50
1.773
 51
4.532
  0
ARC
  8
APS_GEOMETRY
 10
-320.988
 20
-648.066
 40
15.814
 50
4.532
 51
9.384
  0
ARC
  8
APS_GEOMETRY
 10
-308.741
 20
-646.043
 40
3.402
 50
9.384
 51
19.855
  0
ARC
  8
APS_GEOMETRY
 10
-307.12
 20
-645.426
 40
1.668
 50
18.853
 51
42.158
  0
ARC
  8
APS_GEOMETRY
 10
-308.509
 20
-646.684
 40
3.542
 50
42.158
 51
58.092
  0
ARC
  8
APS_GEOMETRY
 10
-302.395
 20
-637.235
 40
7.713
 50
230.711
 51
236.634
  0
ARC
  8
APS_GEOMETRY
 10
-306.236
 20
-641.93
 40
1.648
 50
217.875
 51
230.711
  0
ARC
  8
APS_GEOMETRY
 10
-306.762
 20
-642.339
 40
0.981
 50
196.928
 51
217.875
  0
ARC
  8
APS_GEOMETRY
 10
-306.269
 20
-642.189
 40
1.496
 50
180.0
 51
196.928
  0
ARC
  8
APS_GEOMETRY
 10
-306.592
 20
-642.189
 40
1.174
 50
148.791
 51
180.0
  0
ARC
  8
APS_GEOMETRY
 10
-306.284
 20
-642.376
 40
1.533
 50
121.569
 51
148.791
  0
ARC
  8
APS_GEOMETRY
 10
-305.731
 20
-643.275
 40
2.589
 50
112.806
 51
121.569
  0
ARC
  8
APS_GEOMETRY
 10
-304.238
 20
-646.827
 40
6.443
 50
107.254
 51
112.806
  0
ARC
  8
APS_GEOMETRY
 10
-303.323
 20
-649.773
 40
9.527
 50
103.487
 51
107.254
  0
ARC
  8
APS_GEOMETRY
 10
-301.228
 20
-658.509
 40
18.511
 50
100.784
 51
103.487
  0
ARC
  8
APS_GEOMETRY
 10
-300.571
 20
-660.925
 40
21.008
 50
95.643
 51
101.31
  0
ARC
  8
APS_GEOMETRY
 10
-300.554
 20
-661.098
 40
21.181
 50
90.0
 51
95.643
  0
LINE
  8
APS_GEOMETRY
 10
-265.98
 11
-265.98
 20
-654.878
 21
-646.277
  0
ARC
  8
APS_GEOMETRY
 10
-285.841
 20
-646.277
 40
19.861
 50
0.0
 51
2.404
  0
ARC
  8
APS_GEOMETRY
 10
-274.082
 20
-645.784
 40
8.092
 50
2.404
 51
6.17
  0
ARC
  8
APS_GEOMETRY
 10
-270.558
 20
-645.403
 40
4.547
 50
6.17
 51
12.824
  0
ARC
  8
APS_GEOMETRY
 10
-267.108
 20
-644.617
 40
1.009
 50
12.824
 51
26.98
  0
ARC
  8
APS_GEOMETRY
 10
-266.947
 20
-644.535
 40
0.828
 50
26.98
 51
59.65
  0
ARC
  8
APS_GEOMETRY
 10
-268.466
 20
-647.129
 40
3.834
 50
59.65
 51
74.667
  0
ARC
  8
APS_GEOMETRY
 10
-266.715
 20
-640.88
 40
2.656
 50
225.0
 51
253.887
  0
ARC
  8
APS_GEOMETRY
 10
-267.795
 20
-641.96
 40
1.128
 50
180.0
 51
225.0
  0
ARC
  8
APS_GEOMETRY
 10
-267.588
 20
-641.96
 40
1.336
 50
151.157
 51
180.0
  0
ARC
  8
APS_GEOMETRY
 10
-267.591
 20
-641.959
 40
1.332
 50
122.276
 51
151.157
  0
ARC
  8
APS_GEOMETRY
 10
-267.209
 20
-642.563
 40
2.048
 50
102.308
 51
122.276
  0
ARC
  8
APS_GEOMETRY
 10
-266.503
 20
-645.796
 40
5.356
 50
90.0
 51
102.308
  0
ARC
  8
APS_GEOMETRY
 10
-266.503
 20
-652.023
 40
11.583
 50
88.989
 51
90.0
  0
ARC
  8
APS_GEOMETRY
 10
-267.477
 20
-707.195
 40
66.764
 50
88.568
 51
88.989
  0
ARC
  8
APS_GEOMETRY
 10
-268.852
 20
-762.197
 40
121.783
 50
88.337
 51
88.568
  0
ARC
  8
APS_GEOMETRY
 10
-274.181
 20
-945.755
 40
305.419
 50
88.191
 51
88.337
  0
LINE
  8
APS_GEOMETRY
 10
-264.541
 11
-263.577
 20
-640.489
 21
-640.489
  0
ARC
  8
APS_GEOMETRY
 10
-266.817
 20
-102.514
 40
537.985
 50
270.345
 51
270.49
  0
ARC
  8
APS_GEOMETRY
 10
-263.798
 20
-455.819
 40
184.666
 50
270.49
 51
270.736
  0
ARC
  8
APS_GEOMETRY
 10
-262.558
 20
-552.255
 40
88.223
 50
270.736
 51
271.253
  0
ARC
  8
APS_GEOMETRY
 10
-260.795
 20
-632.863
 40
7.595
 50
271.253
 51
273.013
  0
ARC
  8
APS_GEOMETRY
 10
-260.869
 20
-631.469
 40
8.991
 50
273.013
 51
274.5
  0
ARC
  8
APS_GEOMETRY
 10
-269.197
 20
-525.643
 40
115.145
 50
274.5
 51
274.915
  0
LINE
  8
APS_GEOMETRY
 10
-259.331
 11
-258.35
 20
-640.364
 21
-640.278
  0
LINE
  8
APS_GEOMETRY
 10
-258.35
 11
-257.069
 20
-640.278
 21
-640.162
  0
ARC
  8
APS_GEOMETRY
 10
-254.962
 20
-660.524
 40
20.471
 50
93.24
 51
95.906
  0
ARC
  8
APS_GEOMETRY
 10
-255.335
 20
-653.932
 40
13.868
 50
90.0
 51
93.24
  0
ARC
  8
APS_GEOMETRY
 10
-255.335
 20
-651.84
 40
11.777
 50
77.12
 51
90.0
  0
ARC
  8
APS_GEOMETRY
 10
-254.715
 20
-649.127
 40
8.993
 50
62.371
 51
77.12
  0
ARC
  8
APS_GEOMETRY
 10
-253.664
 20
-647.157
 40
6.761
 50
31.215
 51
62.517
  0
ARC
  8
APS_GEOMETRY
 10
-253.696
 20
-647.177
 40
6.798
 50
360.0
 51
31.215
  0
ARC
  8
APS_GEOMETRY
 10
-253.879
 20
-647.177
 40
6.981
 50
334.496
 51
360.0
  0
ARC
  8
APS_GEOMETRY
 10
-253.535
 20
-647.34
 40
6.601
 50
308.254
 51
334.496
  0
ARC
  8
APS_GEOMETRY
 10
-254.585
 20
-645.957
 40
8.337
 50
287.855
 51
308.034
  0
ARC
  8
APS_GEOMETRY
 10
-255.286
 20
-643.781
 40
10.623
 50
270.0
 51
287.855
  0
ARC
  8
APS_GEOMETRY
 10
-255.286
 20
-638.306
 40
16.098
 50
266.918
 51
270.0
  0
ARC
  8
APS_GEOMETRY
 10
-254.309
 20
-620.157
 40
34.273
 50
264.806
 51
266.918
  0
ARC
  8
APS_GEOMETRY
 10
-260.845
 20
-701.212
 40
47.047
 50
85.815
 51
86.634
  0
ARC
  8
APS_GEOMETRY
 10
-258.246
 20
-657.022
 40
2.782
 50
86.634
 51
90.0
  0
ARC
  8
APS_GEOMETRY
 10
-258.246
 20
-654.651
 40
0.41
 50
90.0
 51
139.686
  0
ARC
  8
APS_GEOMETRY
 10
-258.094
 20
-654.78
 40
0.61
 50
139.686
 51
180.0
  0
LINE
  8
APS_GEOMETRY
 10
-258.704
 11
-258.704
 20
-654.78
 21
-654.878
  0
LINE
  8
APS_GEOMETRY
 10
-258.704
 11
-258.589
 20
-654.878
 21
-657.56
  0
ARC
  8
APS_GEOMETRY
 10
-254.714
 20
-657.398
 40
3.879
 50
182.386
 51
193.753
  0
ARC
  8
APS_GEOMETRY
 10
-257.213
 20
-658.01
 40
1.306
 50
193.753
 51
213.408
  0
ARC
  8
APS_GEOMETRY
 10
-257.185
 20
-657.992
 40
1.339
 50
213.408
 51
232.628
  0
ARC
  8
APS_GEOMETRY
 10
-254.93
 20
-655.039
 40
5.055
 50
232.628
 51
242.488
  0
ARC
  8
APS_GEOMETRY
 10
-258.691
 20
-662.171
 40
3.009
 50
40.539
 51
61.699
  0
ARC
  8
APS_GEOMETRY
 10
-257.047
 20
-660.765
 40
0.845
 50
360.0
 51
40.539
  0
ARC
  8
APS_GEOMETRY
 10
-257.337
 20
-660.765
 40
1.135
 50
315.297
 51
360.0
  0
ARC
  8
APS_GEOMETRY
 10
-258.871
 20
-659.246
 40
3.294
 50
289.502
 51
315.297
  0
ARC
  8
APS_GEOMETRY
 10
-259.996
 20
-656.07
 40
6.663
 50
282.372
 51
289.502
  0
ARC
  8
APS_GEOMETRY
 10
-261.177
 20
-650.685
 40
12.176
 50
277.099
 51
282.372
  0
ARC
  8
APS_GEOMETRY
 10
-261.663
 20
-646.785
 40
16.106
 50
273.104
 51
277.099
  0
ARC
  8
APS_GEOMETRY
 10
-262.236
 20
-636.226
 40
26.681
 50
270.0
 51
273.104
  0
ARC
  8
APS_GEOMETRY
 10
-262.236
 20
-636.546
 40
26.361
 50
263.473
 51
270.0
  0
ARC
  8
APS_GEOMETRY
 10
-264.402
 20
-655.479
 40
7.304
 50
251.056
 51
263.473
  0
ARC
  8
APS_GEOMETRY
 10
-265.793
 20
-659.532
 40
3.02
 50
224.161
 51
251.056
  0
ARC
  8
APS_GEOMETRY
 10
-267.13
 20
-660.83
 40
1.156
 50
180.0
 51
224.161
  0
ARC
  8
APS_GEOMETRY
 10
-266.89
 20
-660.83
 40
1.396
 50
160.821
 51
180.0
  0
ARC
  8
APS_GEOMETRY
 10
-267.476
 20
-660.627
 40
0.776
 50
135.0
 51
160.821
  0
ARC
  8
APS_GEOMETRY
 10
-266.922
 20
-661.18
 40
1.558
 50
121.522
 51
135.0
  0
ARC
  8
APS_GEOMETRY
 10
-260.68
 20
-671.358
 40
13.498
 50
116.952
 51
121.522
  0
ARC
  8
APS_GEOMETRY
 10
-267.496
 20
-658.002
 40
1.496
 50
297.824
 51
321.605
  0
ARC
  8
APS_GEOMETRY
 10
-267.152
 20
-658.276
 40
1.057
 50
321.605
 51
349.992
  0
ARC
  8
APS_GEOMETRY
 10
-268.751
 20
-657.993
 40
2.681
 50
349.992
 51
356.014
  0
ARC
  8
APS_GEOMETRY
 10
-293.083
 20
-656.298
 40
27.071
 50
356.014
 51
357.908
  0
ARC
  8
APS_GEOMETRY
 10
-321.485
 20
-655.26
 40
55.492
 50
357.908
 51
358.833
  0
ARC
  8
APS_GEOMETRY
 10
-424.183
 20
-653.168
 40
158.212
 50
358.833
 51
359.381
  0
LINE
  8
APS_GEOMETRY
 10
-258.589
 11
-258.589
 20
-644.201
 21
-649.76
  0
ARC
  8
APS_GEOMETRY
 10
-256.902
 20
-649.76
 40
1.687
 50
180.0
 51
199.885
  0
ARC
  8
APS_GEOMETRY
 10
-258.164
 20
-650.217
 40
0.345
 50
199.885
 51
244.799
  0
ARC
  8
APS_GEOMETRY
 10
-257.439
 20
-648.722
 40
2.007
 50
244.231
 51
258.996
  0
ARC
  8
APS_GEOMETRY
 10
-257.134
 20
-647.153
 40
3.604
 50
258.996
 51
270.0
  0
ARC
  8
APS_GEOMETRY
 10
-257.134
 20
-647.532
 40
3.225
 50
270.0
 51
288.435
  0
ARC
  8
APS_GEOMETRY
 10
-256.903
 20
-648.226
 40
2.494
 50
288.435
 51
309.428
  0
ARC
  8
APS_GEOMETRY
 10
-256.818
 20
-648.314
 40
2.373
 50
309.193
 51
339.939
  0
ARC
  8
APS_GEOMETRY
 10
-259.753
 20
-647.242
 40
5.497
 50
339.939
 51
0.0
  0
ARC
  8
APS_GEOMETRY
 10
-259.43
 20
-647.242
 40
5.174
 50
360.0
 51
22.011
  0
ARC
  8
APS_GEOMETRY
 10
-257.138
 20
-646.315
 40
2.701
 50
22.011
 51
52.651
  0
ARC
  8
APS_GEOMETRY
 10
-257.173
 20
-646.34
 40
2.742
 50
52.374
 51
72.309
  0
ARC
  8
APS_GEOMETRY
 10
-257.396
 20
-647.038
 40
3.475
 50
72.309
 51
90.0
  0
ARC
  8
APS_GEOMETRY
 10
-257.396
 20
-645.589
 40
2.026
 50
90.0
 51
118.113
  0
ARC
  8
APS_GEOMETRY
 10
-258.137
 20
-644.201
 40
0.452
 50
118.113
 51
180.0
  0
ARC
  8
APS_GEOMETRY
 10
-232.22
 20
-652.693
 40
12.891
 50
71.91
 51
90.0
  0
ARC
  8
APS_GEOMETRY
 10
-231.721
 20
-651.164
 40
11.283
 50
52.561
 51
71.91
  0
ARC
  8
APS_GEOMETRY
 10
-231.852
 20
-651.202
 40
11.393
 50
38.846
 51
52.156
  0
ARC
  8
APS_GEOMETRY
 10
-233.638
 20
-652.641
 40
13.686
 50
26.707
 51
38.846
  0
ARC
  8
APS_GEOMETRY
 10
-233.284
 20
-652.352
 40
13.241
 50
13.868
 51
26.278
  0
ARC
  8
APS_GEOMETRY
 10
-230.735
 20
-651.722
 40
10.614
 50
360.0
 51
13.868
  0
ARC
  8
APS_GEOMETRY
 10
-230.569
 20
-651.722
 40
10.449
 50
339.712
 51
360.0
  0
ARC
  8
APS_GEOMETRY
 10
-231.158
 20
-651.505
 40
11.076
 50
320.013
 51
339.712
  0
ARC
  8
APS_GEOMETRY
 10
-231.255
 20
-651.451
 40
11.186
 50
303.344
 51
320.123
  0
ARC
  8
APS_GEOMETRY
 10
-232.403
 20
-649.707
 40
13.274
 50
287.949
 51
303.344
  0
ARC
  8
APS_GEOMETRY
 10
-232.78
 20
-648.399
 40
14.634
 50
279.039
 51
287.776
  0
ARC
  8
APS_GEOMETRY
 10
-232.629
 20
-649.348
 40
13.673
 50
270.0
 51
279.039
  0
ARC
  8
APS_GEOMETRY
 10
-232.629
 20
-650.016
 40
13.005
 50
257.728
 51
270.0
  0
ARC
  8
APS_GEOMETRY
 10
-232.609
 20
-649.922
 40
13.102
 50
245.501
 51
257.728
  0
ARC
  8
APS_GEOMETRY
 10
-233.345
 20
-651.533
 40
11.33
 50
228.665
 51
245.511
  0
ARC
  8
APS_GEOMETRY
 10
-233.59
 20
-651.812
 40
10.959
 50
211.535
 51
228.665
  0
ARC
  8
APS_GEOMETRY
 10
-233.269
 20
-651.576
 40
11.356
 50
195.642
 51
211.701
  0
ARC
  8
APS_GEOMETRY
 10
-232.682
 20
-651.412
 40
11.966
 50
180.0
 51
195.642
  0
ARC
  8
APS_GEOMETRY
 10
-232.556
 20
-651.412
 40
12.091
 50
162.181
 51
180.0
  0
ARC
  8
APS_GEOMETRY
 10
-233.66
 20
-651.057
 40
10.933
 50
143.434
 51
162.181
  0
ARC
  8
APS_GEOMETRY
 10
-233.808
 20
-650.938
 40
10.742
 50
126.384
 51
143.471
  0
ARC
  8
APS_GEOMETRY
 10
-232.791
 20
-652.318
 40
12.457
 50
110.525
 51
126.384
  0
ARC
  8
APS_GEOMETRY
 10
-232.841
 20
-651.944
 40
12.089
 50
99.77
 51
110.925
  0
ARC
  8
APS_GEOMETRY
 10
-232.22
 20
-655.55
 40
15.748
 50
90.0
 51
99.77
  0
ARC
  8
APS_GEOMETRY
 10
-233.774
 20
-646.898
 40
2.404
 50
90.0
 51
119.604
  0
ARC
  8
APS_GEOMETRY
 10
-233.563
 20
-647.269
 40
2.83
 50
119.604
 51
146.842
  0
ARC
  8
APS_GEOMETRY
 10
-233.14
 20
-647.616
 40
3.374
 50
145.84
 51
164.055
  0
ARC
  8
APS_GEOMETRY
 10
-232.16
 20
-647.896
 40
4.394
 50
164.055
 51
180.0
  0
ARC
  8
APS_GEOMETRY
 10
-226.027
 20
-647.896
 40
10.526
 50
180.0
 51
189.977
  0
ARC
  8
APS_GEOMETRY
 10
-216.702
 20
-646.256
 40
19.995
 50
189.977
 51
197.211
  0
ARC
  8
APS_GEOMETRY
 10
-214.662
 20
-645.624
 40
22.131
 50
197.211
 51
203.76
  0
ARC
  8
APS_GEOMETRY
 10
-219.743
 20
-647.861
 40
16.579
 50
203.76
 51
211.329
  0
ARC
  8
APS_GEOMETRY
 10
-230.177
 20
-654.122
 40
4.411
 50
212.32
 51
224.441
  0
ARC
  8
APS_GEOMETRY
 10
-230.605
 20
-654.542
 40
3.812
 50
224.441
 51
237.484
  0
ARC
  8
APS_GEOMETRY
 10
-230.881
 20
-654.976
 40
3.298
 50
237.484
 51
252.416
  0
ARC
  8
APS_GEOMETRY
 10
-231.158
 20
-655.847
 40
2.383
 50
252.416
 51
270.0
  0
ARC
  8
APS_GEOMETRY
 10
-231.158
 20
-655.565
 40
2.666
 50
270.0
 51
294.953
  0
ARC
  8
APS_GEOMETRY
 10
-231.083
 20
-655.725
 40
2.489
 50
294.953
 51
320.793
  0
ARC
  8
APS_GEOMETRY
 10
-231.483
 20
-655.399
 40
3.005
 50
320.793
 51
342.777
  0
ARC
  8
APS_GEOMETRY
 10
-233.267
 20
-654.845
 40
4.873
 50
342.777
 51
0.0
  0
ARC
  8
APS_GEOMETRY
 10
-241.648
 20
-654.845
 40
13.254
 50
0.0
 51
8.499
  0
ARC
  8
APS_GEOMETRY
 10
-247.481
 20
-655.717
 40
19.152
 50
8.499
 51
15.566
  0
ARC
  8
APS_GEOMETRY
 10
-246.78
 20
-655.522
 40
18.424
 50
15.566
 51
22.909
  0
ARC
  8
APS_GEOMETRY
 10
-240.748
 20
-652.973
 40
11.876
 50
22.909
 51
32.057
  0
ARC
  8
APS_GEOMETRY
 10
-236.01
 20
-649.988
 40
6.276
 50
31.921
 51
42.51
  0
ARC
  8
APS_GEOMETRY
 10
-234.709
 20
-648.795
 40
4.511
 50
42.51
 51
55.008
  0
ARC
  8
APS_GEOMETRY
 10
-234.27
 20
-648.168
 40
3.745
 50
55.008
 51
69.88
  0
ARC
  8
APS_GEOMETRY
 10
-233.876
 20
-647.092
 40
2.599
 50
69.88
 51
87.754
  0
ARC
  8
APS_GEOMETRY
 10
-206.964
 20
-654.404
 40
1.21
 50
90.0
 51
115.837
  0
ARC
  8
APS_GEOMETRY
 10
-207.261
 20
-653.789
 40
0.526
 50
115.837
 51
155.462
  0
ARC
  8
APS_GEOMETRY
 10
-206.914
 20
-653.947
 40
0.909
 50
155.462
 51
168.366
  0
ARC
  8
APS_GEOMETRY
 10
-203.741
 20
-654.601
 40
4.148
 50
168.366
 51
174.395
  0
ARC
  8
APS_GEOMETRY
 10
-200.543
 20
-654.914
 40
7.361
 50
174.395
 51
177.813
  0
ARC
  8
APS_GEOMETRY
 10
-189.929
 20
-655.32
 40
17.983
 50
177.813
 51
180.0
  0
ARC
  8
APS_GEOMETRY
 10
-182.245
 20
-655.32
 40
25.667
 50
180.0
 51
184.62
  0
ARC
  8
APS_GEOMETRY
 10
-199.454
 20
-656.71
 40
8.401
 50
184.62
 51
192.7
  0
ARC
  8
APS_GEOMETRY
 10
-206.09
 20
-658.167
 40
1.609
 50
194.036
 51
205.821
  0
ARC
  8
APS_GEOMETRY
 10
-206.792
 20
-658.507
 40
0.828
 50
205.821
 51
222.274
  0
ARC
  8
APS_GEOMETRY
 10
-206.577
 20
-658.311
 40
1.119
 50
222.274
 51
234.605
  0
ARC
  8
APS_GEOMETRY
 10
-204.147
 20
-654.891
 40
5.315
 50
234.605
 51
240.255
  0
ARC
  8
APS_GEOMETRY
 10
-207.841
 20
-661.428
 40
2.194
 50
34.592
 51
61.189
  0
ARC
  8
APS_GEOMETRY
 10
-207.116
 20
-660.928
 40
1.313
 50
360.0
 51
34.592
  0
ARC
  8
APS_GEOMETRY
 10
-207.072
 20
-660.928
 40
1.27
 50
318.231
 51
360.0
  0
ARC
  8
APS_GEOMETRY
 10
-207.921
 20
-660.17
 40
2.408
 50
288.227
 51
318.231
  0
ARC
  8
APS_GEOMETRY
 10
-208.802
 20
-657.496
 40
5.223
 50
280.377
 51
288.227
  0
ARC
  8
APS_GEOMETRY
 10
-210.337
 20
-649.114
 40
13.744
 50
275.541
 51
280.377
  0
ARC
  8
APS_GEOMETRY
 10
-210.998
 20
-642.295
 40
20.595
 50
272.304
 51
275.541
  0
ARC
  8
APS_GEOMETRY
 10
-211.804
 20
-622.278
 40
40.629
 50
270.0
 51
272.304
  0
ARC
  8
APS_GEOMETRY
 10
-211.804
 20
-639.007
 40
23.9
 50
262.811
 51
270.0
  0
ARC
  8
APS_GEOMETRY
 10
-213.948
 20
-656.01
 40
6.762
 50
249.274
 51
262.811
  0
ARC
  8
APS_GEOMETRY
 10
-215.297
 20
-659.575
 40
2.95
 50
221.379
 51
249.274
  0
ARC
  8
APS_GEOMETRY
 10
-216.48
 20
-660.618
 40
1.373
 50
180.0
 51
221.379
  0
ARC
  8
APS_GEOMETRY
 10
-216.49
 20
-660.618
 40
1.364
 50
164.055
 51
180.0
  0
ARC
  8
APS_GEOMETRY
 10
-217.058
 20
-660.455
 40
0.773
 50
142.815
 51
164.055
  0
ARC
  8
APS_GEOMETRY
 10
-216.7
 20
-660.727
 40
1.222
 50
129.007
 51
142.815
  0
ARC
  8
APS_GEOMETRY
 10
-212.304
 20
-666.154
 40
8.206
 50
123.69
 51
129.007
  0
ARC
  8
APS_GEOMETRY
 10
-218.543
 20
-656.767
 40
3.064
 50
303.389
 51
319.022
  0
ARC
  8
APS_GEOMETRY
 10
-217.713
 20
-657.488
 40
1.966
 50
319.022
 51
338.575
  0
ARC
  8
APS_GEOMETRY
 10
-218.823
 20
-657.052
 40
3.158
 50
338.575
 51
351.049
  0
ARC
  8
APS_GEOMETRY
 10
-232.226
 20
-654.941
 40
16.726
 50
351.049
 51
356.46
  0
ARC
  8
APS_GEOMETRY
 10
-227.808
 20
-655.109
 40
12.307
 50
355.972
 51
358.68
  0
ARC
  8
APS_GEOMETRY
 10
-372.904
 20
-651.766
 40
157.441
 50
358.68
 51
359.437
  0
LINE
  8
APS_GEOMETRY
 10
-215.471
 11
-215.455
 20
-653.313
 21
-650.857
  0
LINE
  8
APS_GEOMETRY
 10
-215.455
 11
-215.45
 20
-650.857
 21
-647.651
  0
ARC
  8
APS_GEOMETRY
 10
-253.355
 20
-647.651
 40
37.905
 50
360.0
 51
1.717
  0
ARC
  8
APS_GEOMETRY
 10
-233.07
 20
-647.043
 40
17.611
 50
1.717
 51
4.236
  0
ARC
  8
APS_GEOMETRY
 10
-226.456
 20
-646.553
 40
10.979
 50
4.236
 51
8.269
  0
ARC
  8
APS_GEOMETRY
 10
-218.844
 20
-645.446
 40
3.287
 50
8.269
 51
15.642
  0
ARC
  8
APS_GEOMETRY
 10
-217.534
 20
-645.08
 40
1.926
 50
15.642
 51
39.417
  0
ARC
  8
APS_GEOMETRY
 10
-217.505
 20
-645.055
 40
1.888
 50
39.417
 51
63.435
  0
ARC
  8
APS_GEOMETRY
 10
-214.104
 20
-638.011
 40
5.935
 50
236.874
 51
244.486
  0
ARC
  8
APS_GEOMETRY
 10
-216.634
 20
-641.887
 40
1.306
 50
220.601
 51
236.874
  0
ARC
  8
APS_GEOMETRY
 10
-216.924
 20
-642.136
 40
0.923
 50
198.246
 51
220.601
  0
ARC
  8
APS_GEOMETRY
 10
-216.49
 20
-641.993
 40
1.38
 50
180.0
 51
198.246
  0
ARC
  8
APS_GEOMETRY
 10
-216.496
 20
-641.993
 40
1.374
 50
156.161
 51
180.0
  0
ARC
  8
APS_GEOMETRY
 10
-216.305
 20
-642.078
 40
1.583
 50
133.977
 51
156.161
  0
ARC
  8
APS_GEOMETRY
 10
-215.923
 20
-642.473
 40
2.133
 50
116.996
 51
133.977
  0
ARC
  8
APS_GEOMETRY
 10
-215.165
 20
-643.962
 40
3.804
 50
104.3
 51
116.996
  0
ARC
  8
APS_GEOMETRY
 10
-214.969
 20
-644.715
 40
4.582
 50
95.326
 51
104.349
  0
ARC
  8
APS_GEOMETRY
 10
-214.175
 20
-653.232
 40
13.136
 50
90.0
 51
95.326
  0
ARC
  8
APS_GEOMETRY
 10
-214.175
 20
-646.603
 40
6.506
 50
87.553
 51
90.0
  0
ARC
  8
APS_GEOMETRY
 10
-215.559
 20
-678.996
 40
38.93
 50
86.553
 51
87.553
  0
ARC
  8
APS_GEOMETRY
 10
-217.527
 20
-711.67
 40
71.662
 50
86.009
 51
86.553
  0
ARC
  8
APS_GEOMETRY
 10
-225.181
 20
-821.376
 40
181.636
 50
85.668
 51
86.009
  0
ARC
  8
APS_GEOMETRY
 10
-210.857
 20
-632.721
 40
7.563
 50
265.426
 51
268.531
  0
ARC
  8
APS_GEOMETRY
 10
-210.185
 20
-606.5
 40
33.793
 50
268.531
 51
270.0
  0
ARC
  8
APS_GEOMETRY
 10
-210.185
 20
-614.537
 40
25.755
 50
270.0
 51
271.637
  0
ARC
  8
APS_GEOMETRY
 10
-210.76
 20
-594.395
 40
45.906
 50
271.637
 51
272.862
  0
ARC
  8
APS_GEOMETRY
 10
-211.421
 20
-581.18
 40
59.137
 50
272.862
 51
273.814
  0
ARC
  8
APS_GEOMETRY
 10
-213.658
 20
-547.628
 40
92.764
 50
273.814
 51
274.574
  0
ARC
  8
APS_GEOMETRY
 10
-199.627
 20
-730.124
 40
90.271
 50
93.72
 51
94.214
  0
ARC
  8
APS_GEOMETRY
 10
-202.621
 20
-684.065
 40
44.115
 50
93.013
 51
93.72
  0
ARC
  8
APS_GEOMETRY
 10
-203.442
 20
-668.467
 40
28.496
 50
91.918
 51
93.013
  0
ARC
  8
APS_GEOMETRY
 10
-204.086
 20
-649.259
 40
9.277
 50
90.0
 51
91.918
  0
ARC
  8
APS_GEOMETRY
 10
-204.086
 20
-652.036
 40
12.054
 50
73.82
 51
90.0
  0
ARC
  8
APS_GEOMETRY
 10
-202.898
 20
-647.941
 40
7.791
 50
53.658
 51
73.82
  0
ARC
  8
APS_GEOMETRY
 10
-201.208
 20
-645.632
 40
4.929
 50
26.03
 51
53.569
  0
ARC
  8
APS_GEOMETRY
 10
-201.726
 20
-645.885
 40
5.506
 50
360.0
 51
26.03
  0
ARC
  8
APS_GEOMETRY
 10
-201.942
 20
-645.885
 40
5.722
 50
345.282
 51
360.0
  0
ARC
  8
APS_GEOMETRY
 10
-201.392
 20
-646.029
 40
5.152
 50
329.767
 51
345.282
  0
ARC
  8
APS_GEOMETRY
 10
-201.08
 20
-646.211
 40
4.792
 50
313.168
 51
329.767
  0
ARC
  8
APS_GEOMETRY
 10
-200.964
 20
-646.334
 40
4.623
 50
296.267
 51
313.168
  0
ARC
  8
APS_GEOMETRY
 10
-198.333
 20
-651.651
 40
1.31
 50
116.565
 51
139.899
  0
ARC
  8
APS_GEOMETRY
 10
-198.986
 20
-651.101
 40
0.456
 50
139.899
 51
180.0
  0
ARC
  8
APS_GEOMETRY
 10
-198.935
 20
-651.101
 40
0.506
 50
180.0
 51
226.193
  0
ARC
  8
APS_GEOMETRY
 10
-198.0
 20
-650.126
 40
1.858
 50
226.193
 51
249.829
  0
ARC
  8
APS_GEOMETRY
 10
-200.68
 20
-657.506
 40
5.995
 50
53.249
 51
70.105
  0
ARC
  8
APS_GEOMETRY
 10
-199.463
 20
-655.876
 40
3.96
 50
32.471
 51
53.249
  0
ARC
  8
APS_GEOMETRY
 10
-200.03
 20
-656.237
 40
4.632
 50
23.305
 51
32.471
  0
ARC
  8
APS_GEOMETRY
 10
-203.535
 20
-657.747
 40
8.449
 50
16.521
 51
23.305
  0
ARC
  8
APS_GEOMETRY
 10
-206.268
 20
-658.557
 40
11.299
 50
11.429
 51
16.521
  0
ARC
  8
APS_GEOMETRY
 10
-214.013
 20
-660.123
 40
19.201
 50
7.524
 51
11.429
  0
ARC
  8
APS_GEOMETRY
 10
-188.349
 20
-656.705
 40
6.69
 50
187.765
 51
196.914
  0
ARC
  8
APS_GEOMETRY
 10
-193.821
 20
-658.369
 40
0.971
 50
196.914
 51
221.082
  0
ARC
  8
APS_GEOMETRY
 10
-193.8
 20
-658.351
 40
0.999
 50
221.082
 51
244.607
  0
ARC
  8
APS_GEOMETRY
 10
-191.463
 20
-653.428
 40
6.448
 50
244.607
 51
253.811
  0
ARC
  8
APS_GEOMETRY
 10
-193.517
 20
-660.433
 40
0.852
 50
51.45
 51
72.474
  0
ARC
  8
APS_GEOMETRY
 10
-193.728
 20
-660.698
 40
1.191
 50
33.69
 51
51.45
  0
ARC
  8
APS_GEOMETRY
 10
-193.778
 20
-660.731
 40
1.25
 50
16.639
 51
33.69
  0
ARC
  8
APS_GEOMETRY
 10
-193.837
 20
-660.748
 40
1.312
 50
360.0
 51
16.639
  0
ARC
  8
APS_GEOMETRY
 10
-193.856
 20
-660.748
 40
1.331
 50
338.993
 51
360.0
  0
ARC
  8
APS_GEOMETRY
 10
-194.668
 20
-660.436
 40
2.201
 50
322.696
 51
338.993
  0
ARC
  8
APS_GEOMETRY
 10
-194.971
 20
-660.206
 40
2.582
 50
308.603
 51
322.696
  0
ARC
  8
APS_GEOMETRY
 10
-195.179
 20
-659.945
 40
2.916
 50
295.346
 51
308.603
  0
ARC
  8
APS_GEOMETRY
 10
-196.275
 20
-657.532
 40
5.566
 50
279.583
 51
294.905
  0
ARC
  8
APS_GEOMETRY
 10
-197.708
 20
-649.041
 40
14.176
 50
270.0
 51
279.583
  0
ARC
  8
APS_GEOMETRY
 10
-197.708
 20
-652.882
 40
10.336
 50
261.247
 51
270.0
  0
ARC
  8
APS_GEOMETRY
 10
-198.37
 20
-657.182
 40
5.985
 50
249.737
 51
261.247
  0
ARC
  8
APS_GEOMETRY
 10
-198.806
 20
-658.361
 40
4.728
 50
235.345
 51
249.737
  0
ARC
  8
APS_GEOMETRY
 10
-199.355
 20
-659.156
 40
3.762
 50
219.198
 51
235.345
  0
ARC
  8
APS_GEOMETRY
 10
-198.199
 20
-658.17
 40
5.281
 50
209.076
 51
219.56
  0
ARC
  8
APS_GEOMETRY
 10
-195.528
 20
-656.685
 40
8.337
 50
200.735
 51
209.076
  0
ARC
  8
APS_GEOMETRY
 10
-191.844
 20
-655.29
 40
12.277
 50
197.881
 51
200.735
  0
ARC
  8
APS_GEOMETRY
 10
-176.703
 20
-650.405
 40
28.186
 50
195.997
 51
197.881
  0
ARC
  8
APS_GEOMETRY
 10
-165.512
 20
-647.197
 40
39.828
 50
194.664
 51
195.997
  0
ARC
  8
APS_GEOMETRY
 10
-134.514
 20
-639.085
 40
71.869
 50
193.671
 51
194.664
  0
ARC
  8
APS_GEOMETRY
 10
-213.12
 20
-658.196
 40
9.026
 50
13.61
 51
23.585
  0
ARC
  8
APS_GEOMETRY
 10
-207.21
 20
-655.616
 40
2.577
 50
23.585
 51
42.31
  0
ARC
  8
APS_GEOMETRY
 10
-206.674
 20
-655.128
 40
1.853
 50
42.31
 51
67.521
  0
ARC
  8
APS_GEOMETRY
 10
-207.098
 20
-656.153
 40
2.962
 50
67.521
 51
87.397
  0
LINE
  8
APS_GEOMETRY
 10
-207.896
 11
-208.075
 20
-644.855
 21
-648.665
  0
LINE
  8
APS_GEOMETRY
 10
-208.075
 11
-208.075
 20
-648.665
 21
-648.726
  0
LINE
  8
APS_GEOMETRY
 10
-208.075
 11
-208.075
 20
-648.726
 21
-648.812
  0
ARC
  8
APS_GEOMETRY
 10
-205.428
 20
-648.812
 40
2.647
 50
180.0
 51
192.339
  0
ARC
  8
APS_GEOMETRY
 10
-207.533
 20
-649.272
 40
0.493
 50
192.339
 51
221.186
  0
ARC
  8
APS_GEOMETRY
 10
-207.583
 20
-649.316
 40
0.426
 50
221.186
 51
253.872
  0
ARC
  8
APS_GEOMETRY
 10
-207.225
 20
-648.078
 40
1.715
 50
253.872
 51
270.0
  0
ARC
  8
APS_GEOMETRY
 10
-207.225
 20
-645.808
 40
3.985
 50
270.0
 51
289.569
  0
ARC
  8
APS_GEOMETRY
 10
-206.501
 20
-647.846
 40
1.822
 50
289.569
 51
318.681
  0
ARC
  8
APS_GEOMETRY
 10
-206.697
 20
-647.673
 40
2.083
 50
318.681
 51
344.628
  0
ARC
  8
APS_GEOMETRY
 10
-210.348
 20
-646.67
 40
5.87
 50
344.628
 51
0.0
  0
ARC
  8
APS_GEOMETRY
 10
-208.612
 20
-646.67
 40
4.134
 50
0.0
 51
35.369
  0
ARC
  8
APS_GEOMETRY
 10
-206.718
 20
-645.325
 40
1.812
 50
35.369
 51
90.0
  0
ARC
  8
APS_GEOMETRY
 10
-206.718
 20
-645.345
 40
1.831
 50
90.0
 51
108.435
  0
ARC
  8
APS_GEOMETRY
 10
-207.075
 20
-644.276
 40
0.705
 50
108.435
 51
138.366
  0
ARC
  8
APS_GEOMETRY
 10
-206.979
 20
-644.361
 40
0.833
 50
138.366
 51
164.291
  0
ARC
  8
APS_GEOMETRY
 10
-204.736
 20
-644.992
 40
3.162
 50
164.291
 51
177.51
  0
LINE
  8
APS_GEOMETRY
 10
-182.639
 11
-174.021
 20
-640.26
 21
-640.26
  0
ARC
  8
APS_GEOMETRY
 10
-174.457
 20
-627.912
 40
12.355
 50
272.021
 51
278.44
  0
ARC
  8
APS_GEOMETRY
 10
-173.971
 20
-631.19
 40
9.042
 50
278.44
 51
285.945
  0
ARC
  8
APS_GEOMETRY
 10
-170.312
 20
-644.288
 40
4.559
 50
98.584
 51
104.931
  0
ARC
  8
APS_GEOMETRY
 10
-170.62
 20
-642.248
 40
2.495
 50
90.0
 51
98.584
  0
ARC
  8
APS_GEOMETRY
 10
-170.62
 20
-641.629
 40
1.876
 50
52.871
 51
90.0
  0
ARC
  8
APS_GEOMETRY
 10
-173.164
 20
-644.989
 40
6.091
 50
32.518
 51
52.871
  0
ARC
  8
APS_GEOMETRY
 10
-175.18
 20
-646.274
 40
8.481
 50
17.209
 51
32.518
  0
ARC
  8
APS_GEOMETRY
 10
-173.5
 20
-645.754
 40
6.723
 50
360.0
 51
17.209
  0
ARC
  8
APS_GEOMETRY
 10
-170.136
 20
-645.754
 40
3.359
 50
337.348
 51
360.0
  0
ARC
  8
APS_GEOMETRY
 10
-168.786
 20
-646.317
 40
1.896
 50
307.042
 51
337.348
  0
ARC
  8
APS_GEOMETRY
 10
-169.021
 20
-645.995
 40
2.295
 50
287.186
 51
306.87
  0
ARC
  8
APS_GEOMETRY
 10
-169.23
 20
-645.318
 40
3.003
 50
270.0
 51
287.186
  0
ARC
  8
APS_GEOMETRY
 10
-169.23
 20
-645.624
 40
2.697
 50
252.221
 51
270.0
  0
ARC
  8
APS_GEOMETRY
 10
-169.356
 20
-646.016
 40
2.286
 50
232.896
 51
252.221
  0
ARC
  8
APS_GEOMETRY
 10
-168.871
 20
-645.374
 40
3.09
 50
218.3
 51
232.896
  0
ARC
  8
APS_GEOMETRY
 10
-165.08
 20
-642.381
 40
7.92
 50
209.197
 51
218.3
  0
ARC
  8
APS_GEOMETRY
 10
-184.357
 20
-652.825
 40
14.006
 50
28.025
 51
32.699
  0
ARC
  8
APS_GEOMETRY
 10
-174.279
 20
-646.355
 40
2.03
 50
32.699
 51
45.0
  0
ARC
  8
APS_GEOMETRY
 10
-173.592
 20
-645.668
 40
1.058
 50
45.0
 51
67.557
  0
ARC
  8
APS_GEOMETRY
 10
-173.596
 20
-645.678
 40
1.069
 50
67.557
 51
90.0
  0
ARC
  8
APS_GEOMETRY
 10
-173.596
 20
-645.594
 40
0.984
 50
90.0
 51
120.801
  0
ARC
  8
APS_GEOMETRY
 10
-173.629
 20
-645.538
 40
0.919
 50
120.801
 51
152.7
  0
ARC
  8
APS_GEOMETRY
 10
-172.9
 20
-645.914
 40
1.74
 50
152.7
 51
171.085
  0
ARC
  8
APS_GEOMETRY
 10
-167.356
 20
-646.784
 40
7.353
 50
171.085
 51
180.0
  0
LINE
  8
APS_GEOMETRY
 10
-174.708
 11
-174.708
 20
-646.784
 21
-655.941
  0
ARC
  8
APS_GEOMETRY
 10
-164.995
 20
-655.941
 40
9.714
 50
180.0
 51
188.194
  0
ARC
  8
APS_GEOMETRY
 10
-172.248
 20
-656.986
 40
2.385
 50
188.194
 51
204.775
  0
ARC
  8
APS_GEOMETRY
 10
-172.953
 20
-657.311
 40
1.609
 50
204.775
 51
228.576
  0
ARC
  8
APS_GEOMETRY
 10
-172.292
 20
-656.562
 40
2.608
 50
228.576
 51
247.218
  0
ARC
  8
APS_GEOMETRY
 10
-176.126
 20
-665.598
 40
7.208
 50
59.381
 51
66.93
  0
ARC
  8
APS_GEOMETRY
 10
-173.296
 20
-660.815
 40
1.65
 50
43.568
 51
59.381
  0
ARC
  8
APS_GEOMETRY
 10
-172.843
 20
-660.384
 40
1.025
 50
19.041
 51
43.568
  0
ARC
  8
APS_GEOMETRY
 10
-173.472
 20
-660.601
 40
1.691
 50
360.0
 51
19.041
  0
ARC
  8
APS_GEOMETRY
 10
-173.155
 20
-660.601
 40
1.374
 50
317.66
 51
360.0
  0
ARC
  8
APS_GEOMETRY
 10
-174.416
 20
-659.452
 40
3.08
 50
289.747
 51
317.66
  0
ARC
  8
APS_GEOMETRY
 10
-175.472
 20
-656.51
 40
6.206
 50
281.964
 51
289.747
  0
ARC
  8
APS_GEOMETRY
 10
-176.936
 20
-649.604
 40
13.265
 50
276.643
 51
281.964
  0
ARC
  8
APS_GEOMETRY
 10
-177.552
 20
-644.316
 40
18.589
 50
272.836
 51
276.643
  0
ARC
  8
APS_GEOMETRY
 10
-178.289
 20
-629.428
 40
33.495
 50
270.0
 51
272.836
  0
ARC
  8
APS_GEOMETRY
 10
-178.289
 20
-620.203
 40
42.72
 50
267.283
 51
270.0
  0
ARC
  8
APS_GEOMETRY
 10
-179.186
 20
-639.105
 40
23.797
 50
263.643
 51
267.283
  0
ARC
  8
APS_GEOMETRY
 10
-179.937
 20
-645.847
 40
17.014
 50
258.563
 51
263.643
  0
ARC
  8
APS_GEOMETRY
 10
-181.732
 20
-654.716
 40
7.964
 50
251.136
 51
258.563
  0
ARC
  8
APS_GEOMETRY
 10
-183.334
 20
-659.363
 40
3.05
 50
222.558
 51
251.395
  0
ARC
  8
APS_GEOMETRY
 10
-184.522
 20
-660.454
 40
1.436
 50
180.0
 51
222.558
  0
ARC
  8
APS_GEOMETRY
 10
-184.762
 20
-660.454
 40
1.196
 50
150.642
 51
180.0
  0
ARC
  8
APS_GEOMETRY
 10
-184.666
 20
-660.508
 40
1.306
 50
122.574
 51
150.642
  0
ARC
  8
APS_GEOMETRY
 10
-184.92
 20
-660.217
 40
0.926
 50
108.677
 51
119.055
  0
ARC
  8
APS_GEOMETRY
 10
-173.362
 20
-694.409
 40
37.018
 50
107.038
 51
108.677
  0
ARC
  8
APS_GEOMETRY
 10
-184.639
 20
-657.527
 40
1.549
 50
286.144
 51
308.66
  0
ARC
  8
APS_GEOMETRY
 10
-184.386
 20
-657.844
 40
1.143
 50
308.66
 51
334.933
  0
ARC
  8
APS_GEOMETRY
 10
-185.418
 20
-657.361
 40
2.283
 50
334.933
 51
348.829
  0
ARC
  8
APS_GEOMETRY
 10
-198.331
 20
-654.811
 40
15.445
 50
348.829
 51
354.161
  0
ARC
  8
APS_GEOMETRY
 10
-207.059
 20
-653.911
 40
24.219
 50
354.144
 51
355.66
  0
ARC
  8
APS_GEOMETRY
 10
-245.747
 20
-650.976
 40
63.019
 50
355.66
 51
356.6
  0
ARC
  8
APS_GEOMETRY
 10
-275.321
 20
-649.219
 40
92.646
 50
356.6
 51
357.24
  0
ARC
  8
APS_GEOMETRY
 10
-359.234
 20
-645.173
 40
176.656
 50
357.24
 51
357.703
  0
ARC
  8
APS_GEOMETRY
 10
-350.974
 20
-645.504
 40
168.389
 50
357.703
 51
358.674
  0
ARC
  8
APS_GEOMETRY
 10
-273.058
 20
-647.307
 40
90.452
 50
358.674
 51
0.0
  0
ARC
  8
APS_GEOMETRY
 10
-196.011
 20
-647.307
 40
13.405
 50
360.0
 51
6.242
  0
ARC
  8
APS_GEOMETRY
 10
-185.351
 20
-646.141
 40
2.682
 50
6.242
 51
20.225
  0
ARC
  8
APS_GEOMETRY
 10
-183.874
 20
-645.597
 40
1.107
 50
20.225
 51
50.44
  0
ARC
  8
APS_GEOMETRY
 10
-183.587
 20
-645.25
 40
0.657
 50
50.44
 51
90.0
  0
ARC
  8
APS_GEOMETRY
 10
-183.587
 20
-645.474
 40
0.881
 50
90.0
 51
126.747
  0
ARC
  8
APS_GEOMETRY
 10
-182.342
 20
-647.142
 40
2.962
 50
126.747
 51
146.547
  0
ARC
  8
APS_GEOMETRY
 10
-204.336
 20
-632.685
 40
23.357
 50
324.255
 51
326.701
  0
ARC
  8
APS_GEOMETRY
 10
-195.024
 20
-639.387
 40
11.885
 50
320.826
 51
324.255
  0
ARC
  8
APS_GEOMETRY
 10
-191.981
 20
-641.867
 40
7.959
 50
315.722
 51
320.826
  0
ARC
  8
APS_GEOMETRY
 10
-188.484
 20
-645.277
 40
3.075
 50
307.504
 51
315.722
  0
ARC
  8
APS_GEOMETRY
 10
-188.807
 20
-644.846
 40
3.613
 50
291.306
 51
307.405
  0
ARC
  8
APS_GEOMETRY
 10
-188.247
 20
-646.281
 40
2.073
 50
270.0
 51
291.306
  0
ARC
  8
APS_GEOMETRY
 10
-188.247
 20
-646.414
 40
1.939
 50
245.532
 51
270.0
  0
ARC
  8
APS_GEOMETRY
 10
-188.262
 20
-646.447
 40
1.904
 50
220.833
 51
245.532
  0
ARC
  8
APS_GEOMETRY
 10
-188.065
 20
-646.277
 40
2.164
 50
198.684
 51
220.833
  0
ARC
  8
APS_GEOMETRY
 10
-187.245
 20
-645.999
 40
3.03
 50
180.0
 51
198.684
  0
ARC
  8
APS_GEOMETRY
 10
-185.321
 20
-645.999
 40
4.954
 50
168.408
 51
180.0
  0
ARC
  8
APS_GEOMETRY
 10
-182.145
 20
-646.651
 40
8.196
 50
159.402
 51
168.408
  0
ARC
  8
APS_GEOMETRY
 10
-181.163
 20
-647.02
 40
9.245
 50
151.39
 51
159.402
  0
ARC
  8
APS_GEOMETRY
 10
-181.364
 20
-646.91
 40
9.016
 50
143.276
 51
151.39
  0
ARC
  8
APS_GEOMETRY
 10
-183.889
 20
-645.022
 40
5.863
 50
124.216
 51
143.31
  0
ARC
  8
APS_GEOMETRY
 10
-186.138
 20
-641.715
 40
1.864
 50
90.0
 51
124.216
  0
ARC
  8
APS_GEOMETRY
 10
-186.138
 20
-642.543
 40
2.692
 50
82.725
 51
90.0
  0
ARC
  8
APS_GEOMETRY
 10
-186.348
 20
-644.191
 40
4.353
 50
77.005
 51
82.725
  0
ARC
  8
APS_GEOMETRY
 10
-179.924
 20
-613.218
 40
27.28
 50
258.486
 51
260.378
  0
ARC
  8
APS_GEOMETRY
 10
-182.676
 20
-629.45
 40
10.816
 50
260.378
 51
263.382
  0
ARC
  8
APS_GEOMETRY
 10
-182.911
 20
-631.479
 40
8.774
 50
263.382
 51
267.084
  0
ARC
  8
APS_GEOMETRY
 10
-182.639
 20
-626.123
 40
14.137
 50
267.084
 51
270.0
  0
LINE
  8
APS_GEOMETRY
 10
-160.93
 11
-152.525
 20
-640.26
 21
-640.26
  0
ARC
  8
APS_GEOMETRY
 10
-152.525
 20
-534.4
 40
105.86
 50
270.0
 51
270.69
  0
ARC
  8
APS_GEOMETRY
 10
-151.929
 20
-583.928
 40
56.328
 50
270.69
 51
271.637
  0
ARC
  8
APS_GEOMETRY
 10
-151.426
 20
-601.525
 40
38.724
 50
271.637
 51
273.013
  0
ARC
  8
APS_GEOMETRY
 10
-150.2
 20
-624.806
 40
15.41
 50
273.013
 51
275.194
  0
ARC
  8
APS_GEOMETRY
 10
-149.897
 20
-628.147
 40
12.056
 50
275.194
 51
280.756
  0
ARC
  8
APS_GEOMETRY
 10
-149.84
 20
-628.448
 40
11.75
 50
280.756
 51
286.39
  0
ARC
  8
APS_GEOMETRY
 10
-145.533
 20
-643.19
 40
3.609
 50
100.305
 51
105.945
  0
ARC
  8
APS_GEOMETRY
 10
-145.985
 20
-640.705
 40
1.083
 50
90.0
 51
100.305
  0
ARC
  8
APS_GEOMETRY
 10
-145.985
 20
-641.092
 40
1.47
 50
58.946
 51
90.0
  0
ARC
  8
APS_GEOMETRY
 10
-146.547
 20
-642.025
 40
2.56
 50
35.538
 51
58.946
  0
ARC
  8
APS_GEOMETRY
 10
-148.741
 20
-643.64
 40
5.284
 50
16.699
 51
35.952
  0
ARC
  8
APS_GEOMETRY
 10
-150.392
 20
-644.135
 40
7.007
 50
360.0
 51
16.699
  0
ARC
  8
APS_GEOMETRY
 10
-147.317
 20
-644.135
 40
3.932
 50
344.982
 51
360.0
  0
ARC
  8
APS_GEOMETRY
 10
-145.429
 20
-644.641
 40
1.978
 50
323.746
 51
344.982
  0
ARC
  8
APS_GEOMETRY
 10
-145.01
 20
-644.949
 40
1.458
 50
296.114
 51
323.746
  0
ARC
  8
APS_GEOMETRY
 10
-145.085
 20
-644.795
 40
1.629
 50
270.0
 51
296.114
  0
ARC
  8
APS_GEOMETRY
 10
-145.085
 20
-644.382
 40
2.042
 50
255.311
 51
270.0
  0
ARC
  8
APS_GEOMETRY
 10
-145.358
 20
-645.424
 40
0.965
 50
233.881
 51
255.311
  0
ARC
  8
APS_GEOMETRY
 10
-145.071
 20
-645.03
 40
1.453
 50
219.289
 51
233.881
  0
ARC
  8
APS_GEOMETRY
 10
-139.306
 20
-640.313
 40
8.902
 50
213.408
 51
219.289
  0
ARC
  8
APS_GEOMETRY
 10
-150.106
 20
-647.427
 40
4.031
 50
33.294
 51
51.246
  0
ARC
  8
APS_GEOMETRY
 10
-149.557
 20
-646.743
 40
3.154
 50
51.246
 51
71.565
  0
ARC
  8
APS_GEOMETRY
 10
-149.92
 20
-647.832
 40
4.302
 50
71.565
 51
79.278
  0
ARC
  8
APS_GEOMETRY
 10
-151.084
 20
-653.98
 40
10.559
 50
79.278
 51
84.2
  0
ARC
  8
APS_GEOMETRY
 10
-151.581
 20
-658.869
 40
15.473
 50
84.2
 51
87.567
  0
ARC
  8
APS_GEOMETRY
 10
-152.182
 20
-673.008
 40
29.625
 50
87.567
 51
90.0
  0
ARC
  8
APS_GEOMETRY
 10
-152.182
 20
-651.711
 40
8.328
 50
90.0
 51
96.374
  0
ARC
  8
APS_GEOMETRY
 10
-152.735
 20
-646.763
 40
3.349
 50
96.374
 51
106.434
  0
ARC
  8
APS_GEOMETRY
 10
-153.128
 20
-645.431
 40
1.961
 50
106.434
 51
123.056
  0
ARC
  8
APS_GEOMETRY
 10
-153.741
 20
-644.489
 40
0.836
 50
123.056
 51
148.627
  0
ARC
  8
APS_GEOMETRY
 10
-153.181
 20
-644.806
 40
1.48
 50
149.421
 51
165.28
  0
ARC
  8
APS_GEOMETRY
 10
-151.566
 20
-645.23
 40
3.149
 50
165.28
 51
176.135
  0
ARC
  8
APS_GEOMETRY
 10
-146.945
 20
-645.543
 40
7.781
 50
176.135
 51
178.367
  0
ARC
  8
APS_GEOMETRY
 10
-104.192
 20
-646.762
 40
50.551
 50
178.367
 51
179.242
  0
ARC
  8
APS_GEOMETRY
 10
-60.008
 20
-647.346
 40
94.739
 50
179.242
 51
179.709
  0
ARC
  8
APS_GEOMETRY
 10
90.317
 20
-648.109
 40
245.066
 50
179.709
 51
180.0
  0
ARC
  8
APS_GEOMETRY
 10
-151.204
 20
-648.109
 40
3.545
 50
180.0
 51
195.027
  0
ARC
  8
APS_GEOMETRY
 10
-154.103
 20
-648.887
 40
0.543
 50
195.027
 51
234.058
  0
ARC
  8
APS_GEOMETRY
 10
-154.075
 20
-648.848
 40
0.591
 50
234.058
 51
253.191
  0
ARC
  8
APS_GEOMETRY
 10
-153.456
 20
-646.8
 40
2.731
 50
253.191
 51
262.063
  0
ARC
  8
APS_GEOMETRY
 10
-153.14
 20
-644.528
 40
5.025
 50
262.063
 51
266.949
  0
ARC
  8
APS_GEOMETRY
 10
-152.722
 20
-636.686
 40
12.877
 50
266.949
 51
270.0
  0
ARC
  8
APS_GEOMETRY
 10
-152.722
 20
-647.203
 40
2.361
 50
270.0
 51
286.007
  0
ARC
  8
APS_GEOMETRY
 10
-152.308
 20
-648.643
 40
0.862
 50
286.007
 51
312.647
  0
ARC
  8
APS_GEOMETRY
 10
-152.317
 20
-648.634
 40
0.875
 50
312.647
 51
338.993
  0
ARC
  8
APS_GEOMETRY
 10
-154.104
 20
-647.948
 40
2.79
 50
338.993
 51
353.66
  0
ARC
  8
APS_GEOMETRY
 10
-135.645
 20
-650.149
 40
15.801
 50
169.663
 51
173.118
  0
ARC
  8
APS_GEOMETRY
 10
-148.84
 20
-647.742
 40
2.388
 50
160.769
 51
169.663
  0
ARC
  8
APS_GEOMETRY
 10
-149.943
 20
-647.357
 40
1.219
 50
143.746
 51
160.769
  0
ARC
  8
APS_GEOMETRY
 10
-149.677
 20
-647.553
 40
1.55
 50
128.66
 51
143.746
  0
ARC
  8
APS_GEOMETRY
 10
-149.854
 20
-647.265
 40
1.215
 50
110.171
 51
130.601
  0
ARC
  8
APS_GEOMETRY
 10
-149.844
 20
-647.294
 40
1.246
 50
90.0
 51
110.171
  0
ARC
  8
APS_GEOMETRY
 10
-149.844
 20
-647.312
 40
1.264
 50
61.22
 51
90.0
  0
ARC
  8
APS_GEOMETRY
 10
-150.064
 20
-647.713
 40
1.722
 50
36.634
 51
61.22
  0
ARC
  8
APS_GEOMETRY
 10
-150.271
 20
-647.836
 40
1.961
 50
19.103
 51
35.91
  0
ARC
  8
APS_GEOMETRY
 10
-156.669
 20
-650.052
 40
8.732
 50
11.16
 51
19.103
  0
ARC
  8
APS_GEOMETRY
 10
-160.011
 20
-650.711
 40
12.139
 50
5.396
 51
11.16
  0
ARC
  8
APS_GEOMETRY
 10
-161.711
 20
-650.872
 40
13.846
 50
0.0
 51
5.396
  0
ARC
  8
APS_GEOMETRY
 10
-161.47
 20
-650.872
 40
13.605
 50
349.287
 51
0.0
  0
ARC
  8
APS_GEOMETRY
 10
-154.791
 20
-652.136
 40
6.808
 50
334.12
 51
349.287
  0
ARC
  8
APS_GEOMETRY
 10
-150.19
 20
-654.359
 40
1.698
 50
303.53
 51
333.853
  0
ARC
  8
APS_GEOMETRY
 10
-150.023
 20
-654.611
 40
1.396
 50
270.0
 51
303.53
  0
ARC
  8
APS_GEOMETRY
 10
-150.023
 20
-654.546
 40
1.461
 50
249.578
 51
270.0
  0
ARC
  8
APS_GEOMETRY
 10
-150.334
 20
-655.38
 40
0.57
 50
216.607
 51
249.578
  0
ARC
  8
APS_GEOMETRY
 10
-150.037
 20
-655.16
 40
0.94
 50
195.422
 51
216.607
  0
ARC
  8
APS_GEOMETRY
 10
-144.906
 20
-653.744
 40
6.263
 50
187.253
 51
195.422
  0
ARC
  8
APS_GEOMETRY
 10
-153.192
 20
-654.81
 40
2.092
 50
7.561
 51
49.434
  0
ARC
  8
APS_GEOMETRY
 10
-153.277
 20
-654.909
 40
2.222
 50
49.434
 51
90.0
  0
ARC
  8
APS_GEOMETRY
 10
-153.277
 20
-654.182
 40
1.495
 50
90.0
 51
115.224
  0
ARC
  8
APS_GEOMETRY
 10
-153.573
 20
-653.555
 40
0.801
 50
115.224
 51
149.931
  0
ARC
  8
APS_GEOMETRY
 10
-153.039
 20
-653.864
 40
1.419
 50
149.931
 51
171.111
  0
ARC
  8
APS_GEOMETRY
 10
-146.555
 20
-654.878
 40
7.982
 50
171.111
 51
180.0
  0
ARC
  8
APS_GEOMETRY
 10
-140.167
 20
-654.878
 40
14.369
 50
180.0
 51
183.062
  0
ARC
  8
APS_GEOMETRY
 10
-118.173
 20
-653.702
 40
36.395
 50
183.062
 51
184.986
  0
ARC
  8
APS_GEOMETRY
 10
-129.71
 20
-654.708
 40
24.815
 50
184.986
 51
187.804
  0
ARC
  8
APS_GEOMETRY
 10
-151.56
 20
-657.703
 40
2.76
 50
187.804
 51
196.26
  0
ARC
  8
APS_GEOMETRY
 10
-153.487
 20
-658.283
 40
0.748
 50
194.931
 51
230.024
  0
ARC
  8
APS_GEOMETRY
 10
-152.997
 20
-657.698
 40
1.511
 50
230.024
 51
254.511
  0
ARC
  8
APS_GEOMETRY
 10
-152.401
 20
-655.548
 40
3.742
 50
254.511
 51
265.219
  0
ARC
  8
APS_GEOMETRY
 10
-151.152
 20
-640.614
 40
18.728
 50
265.219
 51
270.0
  0
ARC
  8
APS_GEOMETRY
 10
-151.152
 20
-642.594
 40
16.748
 50
270.0
 51
274.186
  0
ARC
  8
APS_GEOMETRY
 10
-150.642
 20
-649.552
 40
9.771
 50
274.186
 51
279.668
  0
ARC
  8
APS_GEOMETRY
 10
-150.224
 20
-652.006
 40
7.282
 50
279.668
 51
286.991
  0
ARC
  8
APS_GEOMETRY
 10
-149.268
 20
-655.136
 40
4.009
 50
286.991
 51
296.866
  0
ARC
  8
APS_GEOMETRY
 10
-149.069
 20
-655.528
 40
3.569
 50
296.866
 51
318.366
  0
ARC
  8
APS_GEOMETRY
 10
-151.069
 20
-653.751
 40
6.245
 50
318.366
 51
334.581
  0
ARC
  8
APS_GEOMETRY
 10
-137.904
 20
-660.064
 40
8.355
 50
147.08
 51
154.231
  0
ARC
  8
APS_GEOMETRY
 10
-143.407
 20
-656.501
 40
1.8
 50
131.634
 51
147.08
  0
ARC
  8
APS_GEOMETRY
 10
-143.818
 20
-656.04
 40
1.182
 50
108.875
 51
131.634
  0
ARC
  8
APS_GEOMETRY
 10
-143.646
 20
-656.541
 40
1.712
 50
90.0
 51
108.875
  0
ARC
  8
APS_GEOMETRY
 10
-143.646
 20
-656.193
 40
1.364
 50
62.628
 51
90.0
  0
ARC
  8
APS_GEOMETRY
 10
-143.733
 20
-656.36
 40
1.551
 50
36.995
 51
62.628
  0
ARC
  8
APS_GEOMETRY
 10
-144.119
 20
-656.651
 40
2.036
 50
16.728
 51
36.995
  0
ARC
  8
APS_GEOMETRY
 10
-145.022
 20
-656.922
 40
2.978
 50
360.0
 51
16.728
  0
ARC
  8
APS_GEOMETRY
 10
-146.81
 20
-656.922
 40
4.766
 50
348.323
 51
360.0
  0
ARC
  8
APS_GEOMETRY
 10
-153.964
 20
-655.444
 40
12.072
 50
340.994
 51
348.323
  0
ARC
  8
APS_GEOMETRY
 10
-155.661
 20
-654.859
 40
13.867
 50
334.592
 51
340.994
  0
ARC
  8
APS_GEOMETRY
 10
-152.699
 20
-656.266
 40
10.587
 50
327.265
 51
334.592
  0
ARC
  8
APS_GEOMETRY
 10
-149.259
 20
-658.294
 40
6.599
 50
320.133
 51
325.923
  0
ARC
  8
APS_GEOMETRY
 10
-145.258
 20
-661.636
 40
1.386
 50
307.476
 51
320.133
  0
ARC
  8
APS_GEOMETRY
 10
-144.907
 20
-662.093
 40
0.81
 50
286.429
 51
307.476
  0
ARC
  8
APS_GEOMETRY
 10
-145.053
 20
-661.6
 40
1.323
 50
270.0
 51
286.429
  0
ARC
  8
APS_GEOMETRY
 10
-145.053
 20
-660.071
 40
2.852
 50
263.774
 51
270.0
  0
ARC
  8
APS_GEOMETRY
 10
-144.218
 20
-652.423
 40
10.546
 50
260.538
 51
263.774
  0
ARC
  8
APS_GEOMETRY
 10
-147.953
 20
-673.496
 40
10.857
 50
79.38
 51
84.987
  0
ARC
  8
APS_GEOMETRY
 10
-149.572
 20
-691.951
 40
29.383
 50
84.987
 51
88.394
  0
LINE
  8
APS_GEOMETRY
 10
-148.748
 11
-162.614
 20
-662.58
 21
-662.58
  0
ARC
  8
APS_GEOMETRY
 10
-162.614
 20
-659.678
 40
2.902
 50
254.103
 51
270.0
  0
ARC
  8
APS_GEOMETRY
 10
-163.023
 20
-661.113
 40
1.41
 50
231.216
 51
254.103
  0
ARC
  8
APS_GEOMETRY
 10
-163.191
 20
-661.322
 40
1.142
 50
203.795
 51
231.216
  0
ARC
  8
APS_GEOMETRY
 10
-162.855
 20
-661.174
 40
1.509
 50
180.0
 51
203.795
  0
ARC
  8
APS_GEOMETRY
 10
-162.727
 20
-661.174
 40
1.637
 50
164.055
 51
180.0
  0
ARC
  8
APS_GEOMETRY
 10
-163.736
 20
-660.886
 40
0.588
 50
137.291
 51
164.055
  0
ARC
  8
APS_GEOMETRY
 10
-163.432
 20
-661.166
 40
1.001
 50
120.964
 51
137.291
  0
ARC
  8
APS_GEOMETRY
 10
-160.182
 20
-666.583
 40
7.318
 50
114.944
 51
120.964
  0
ARC
  8
APS_GEOMETRY
 10
-164.24
 20
-657.706
 40
2.443
 50
293.429
 51
305.72
  0
ARC
  8
APS_GEOMETRY
 10
-163.568
 20
-658.64
 40
1.292
 50
305.72
 51
322.651
  0
ARC
  8
APS_GEOMETRY
 10
-163.672
 20
-658.561
 40
1.423
 50
322.651
 51
338.11
  0
ARC
  8
APS_GEOMETRY
 10
-165.701
 20
-657.745
 40
3.61
 50
338.11
 51
347.8
  0
ARC
  8
APS_GEOMETRY
 10
-178.301
 20
-654.984
 40
16.509
 50
347.672
 51
352.051
  0
ARC
  8
APS_GEOMETRY
 10
-190.498
 20
-653.281
 40
28.824
 50
352.051
 51
355.365
  0
ARC
  8
APS_GEOMETRY
 10
-198.711
 20
-652.615
 40
37.064
 50
355.365
 51
357.943
  0
ARC
  8
APS_GEOMETRY
 10
-219.916
 20
-651.853
 40
58.283
 50
357.943
 51
0.0
  0
ARC
  8
APS_GEOMETRY
 10
-244.392
 20
-651.853
 40
82.759
 50
360.0
 51
2.183
  0
ARC
  8
APS_GEOMETRY
 10
-194.905
 20
-649.966
 40
33.235
 50
2.183
 51
5.629
  0
ARC
  8
APS_GEOMETRY
 10
-180.163
 20
-648.513
 40
18.422
 50
5.629
 51
11.805
  0
ARC
  8
APS_GEOMETRY
 10
-165.855
 20
-645.523
 40
3.805
 50
11.805
 51
25.419
  0
ARC
  8
APS_GEOMETRY
 10
-164.003
 20
-644.682
 40
1.772
 50
26.565
 51
38.157
  0
ARC
  8
APS_GEOMETRY
 10
-163.181
 20
-644.036
 40
0.726
 50
38.157
 51
56.31
  0
ARC
  8
APS_GEOMETRY
 10
-163.354
 20
-644.297
 40
1.04
 50
56.31
 51
69.193
  0
ARC
  8
APS_GEOMETRY
 10
-165.794
 20
-650.718
 40
7.908
 50
69.193
 51
73.856
  0
ARC
  8
APS_GEOMETRY
 10
-163.221
 20
-641.864
 40
1.312
 50
216.87
 51
253.393
  0
ARC
  8
APS_GEOMETRY
 10
-163.24
 20
-641.879
 40
1.288
 50
180.0
 51
216.87
  0
ARC
  8
APS_GEOMETRY
 10
-162.959
 20
-641.879
 40
1.569
 50
161.565
 51
180.0
  0
ARC
  8
APS_GEOMETRY
 10
-163.015
 20
-641.86
 40
1.509
 50
142.765
 51
161.565
  0
ARC
  8
APS_GEOMETRY
 10
-163.051
 20
-641.832
 40
1.464
 50
123.425
 51
142.765
  0
ARC
  8
APS_GEOMETRY
 10
-163.019
 20
-641.882
 40
1.523
 50
104.47
 51
123.425
  0
ARC
  8
APS_GEOMETRY
 10
-162.729
 20
-643.313
 40
2.982
 50
96.724
 51
102.995
  0
ARC
  8
APS_GEOMETRY
 10
-161.828
 20
-650.951
 40
10.673
 50
93.411
 51
96.724
  0
ARC
  8
APS_GEOMETRY
 10
-161.428
 20
-657.661
 40
17.395
 50
91.375
 51
93.411
  0
ARC
  8
APS_GEOMETRY
 10
-160.93
 20
-678.411
 40
38.151
 50
90.0
 51
91.375
  0
LINE
  8
COSTRUZIONI
 10
-597.704
 11
1402.296
 20
-804.874
 21
-804.874
  0
LINE
  8
COSTRUZIONI
 10
1402.296
 11
1402.296
 20
-804.874
 21
-604.874
  0
LINE
  8
COSTRUZIONI
 10
1402.296
 11
-597.704
 20
-604.874
 21
-604.874
  0
LINE
  8
COSTRUZIONI
 10
-597.704
 11
-597.704
 20
-604.874
 21
-804.874
  0
LINE
  8
COSTRUZIONI
 10
-131.853
 11
-131.853
 20
-804.874
 21
-604.874
  0
LINE
  8
COSTRUZIONI
 10
1203.404
 11
1203.404
 20
-804.874
 21
-604.874
  0
LINE
  8
COSTRUZIONI
 10
1402.296
 11
-131.853
 20
-654.874
 21
-654.874
  0
LINE
  8
COSTRUZIONI
 10
1203.404
 11
1402.296
 20
-754.874
 21
-754.874
  0
LINE
  8
COSTRUZIONI
 10
-131.853
 11
1402.296
 20
-704.874
 21
-704.874
  0
LINE
  8
COSTRUZIONI
 10
896.595
 11
896.595
 20
-704.874
 21
-654.874
  0
LINE
  8
COSTRUZIONI
 10
401.516
 11
401.516
 20
-704.874
 21
-654.874
  0
LINE
  8
QUOTATURA
 10
1070.846
 11
1065.845
 20
593.337
 21
563.337
  0
LINE
  8
QUOTATURA
 10
1065.845
 11
1060.844
 20
563.337
 21
593.337
  0
LINE
  8
QUOTATURA
 10
1060.844
 11
1070.846
 20
593.337
 21
593.337
  0
LINE
  8
QUOTATURA
 10
1065.845
 11
1065.845
 20
563.337
 21
651.422
  0
LINE
  8
QUOTATURA
 10
1065.845
 11
949.346
 20
651.422
 21
651.422
  0
LINE
  8
QUOTATURA
 10
439.247
 11
469.247
 20
-33.253
 21
-38.254
  0
LINE
  8
QUOTATURA
 10
469.247
 11
439.247
 20
-38.254
 21
-43.255
  0
LINE
  8
QUOTATURA
 10
439.247
 11
439.247
 20
-43.255
 21
-33.253
  0
LINE
  8
QUOTATURA
 10
469.247
 11
401.998
 20
-38.254
 21
-38.254
  0
LINE
  8
QUOTATURA
 10
401.998
 11
401.998
 20
-38.254
 21
0.731
  0
LINE
  8
APS_GEOMETRY
 10
-54.5
 11
0.0
 20
-262.33
 21
-262.33
  0
LINE
  8
APS_GEOMETRY
 10
0.0
 11
0.0
 20
-262.33
 21
-265.33
  0
LINE
  8
APS_GEOMETRY
 10
0.0
 11
4.5
 20
-265.33
 21
-265.33
  0
LINE
  8
APS_GEOMETRY
 10
4.5
 11
4.5
 20
-265.33
 21
-275.83
  0
LINE
  8
APS_GEOMETRY
 10
4.5
 11
6.0
 20
-275.83
 21
-277.33
  0
LINE
  8
APS_GEOMETRY
 10
6.0
 11
8.5
 20
-277.33
 21
-277.33
  0
LINE
  8
APS_GEOMETRY
 10
8.5
 11
8.5
 20
-277.33
 21
-259.33
  0
ARC
  8
APS_GEOMETRY
 10
4.5
 20
-259.33
 40
4.0
 50
0.0
 51
90.0
  0
LINE
  8
APS_GEOMETRY
 10
4.5
 11
-56.5
 20
-255.33
 21
-255.33
  0
ARC
  8
APS_GEOMETRY
 10
-56.5
 20
-259.33
 40
4.0
 50
90.0
 51
180.0
  0
LINE
  8
APS_GEOMETRY
 10
-60.5
 11
-60.5
 20
-259.33
 21
-265.33
  0
LINE
  8
APS_GEOMETRY
 10
-60.5
 11
-54.5
 20
-265.33
 21
-265.33
  0
LINE
  8
APS_GEOMETRY
 10
-54.5
 11
-54.5
 20
-265.33
 21
-262.33
  0
LINE
  8
APS_GEOMETRY
 10
-52.0
 11
2.5
 20
-386.33
 21
-386.33
  0
LINE
  8
APS_GEOMETRY
 10
2.5
 11
2.5
 20
-386.33
 21
-383.33
  0
LINE
  8
APS_GEOMETRY
 10
2.5
 11
7.0
 20
-383.33
 21
-383.33
  0
LINE
  8
APS_GEOMETRY
 10
7.0
 11
7.0
 20
-383.33
 21
-372.83
  0
LINE
  8
APS_GEOMETRY
 10
7.0
 11
8.5
 20
-372.83
 21
-371.33
  0
LINE
  8
APS_GEOMETRY
 10
8.5
 11
11.0
 20
-371.33
 21
-371.33
  0
LINE
  8
APS_GEOMETRY
 10
11.0
 11
11.0
 20
-371.33
 21
-389.33
  0
ARC
  8
APS_GEOMETRY
 10
7.0
 20
-389.33
 40
4.0
 50
270.0
 51
360.0
  0
LINE
  8
APS_GEOMETRY
 10
7.0
 11
-54.0
 20
-393.33
 21
-393.33
  0
ARC
  8
APS_GEOMETRY
 10
-54.0
 20
-389.33
 40
4.0
 50
180.0
 51
270.0
  0
LINE
  8
APS_GEOMETRY
 10
-58.0
 11
-58.0
 20
-389.33
 21
-383.33
  0
LINE
  8
APS_GEOMETRY
 10
-58.0
 11
-52.0
 20
-383.33
 21
-383.33
  0
LINE
  8
APS_GEOMETRY
 10
-52.0
 11
-52.0
 20
-383.33
 21
-386.33
  0
LINE
  8
QUOTATURA
 10
43.0
 11
43.0
 20
-299.863
 21
-299.196
  0
LINE
  8
COSTRUZIONI
 10
25.8
 11
33.5
 20
-295.03
 21
-295.03
  0
ARC
  8
COSTRUZIONI
 10
38.5
 20
-307.03
 40
13.0
 50
67.38
 51
112.62
  0
LINE
  8
COSTRUZIONI
 10
43.5
 11
43.5
 20
-295.03
 21
-298.53
  0
LINE
  8
COSTRUZIONI
 10
43.5
 11
25.8
 20
-298.53
 21
-298.53
  0
LINE
  8
COSTRUZIONI
 10
25.8
 11
25.8
 20
-298.53
 21
-295.03
  0
LINE
  8
COSTRUZIONI
 10
25.977
 11
25.8
 20
-298.53
 21
-298.353
  0
LINE
  8
COSTRUZIONI
 10
25.8
 11
26.507
 20
-297.822
 21
-298.53
  0
LINE
  8
COSTRUZIONI
 10
26.684
 11
25.8
 20
-298.53
 21
-297.646
  0
LINE
  8
COSTRUZIONI
 10
25.8
 11
27.214
 20
-297.115
 21
-298.53
  0
LINE
  8
COSTRUZIONI
 10
27.391
 11
25.8
 20
-298.53
 21
-296.939
  0
LINE
  8
COSTRUZIONI
 10
25.8
 11
27.921
 20
-296.408
 21
-298.53
  0
LINE
  8
COSTRUZIONI
 10
28.098
 11
25.8
 20
-298.53
 21
-296.231
  0
LINE
  8
COSTRUZIONI
 10
25.8
 11
28.628
 20
-295.701
 21
-298.53
  0
LINE
  8
COSTRUZIONI
 10
28.805
 11
25.8
 20
-298.53
 21
-295.524
  0
LINE
  8
COSTRUZIONI
 10
25.836
 11
29.336
 20
-295.03
 21
-298.53
  0
LINE
  8
COSTRUZIONI
 10
29.512
 11
26.012
 20
-298.53
 21
-295.03
  0
LINE
  8
COSTRUZIONI
 10
26.543
 11
30.043
 20
-295.03
 21
-298.53
  0
LINE
  8
COSTRUZIONI
 10
30.219
 11
26.719
 20
-298.53
 21
-295.03
  0
LINE
  8
COSTRUZIONI
 10
27.25
 11
30.75
 20
-295.03
 21
-298.53
  0
LINE
  8
COSTRUZIONI
 10
30.927
 11
27.427
 20
-298.53
 21
-295.03
  0
LINE
  8
COSTRUZIONI
 10
27.957
 11
31.457
 20
-295.03
 21
-298.53
  0
LINE
  8
COSTRUZIONI
 10
31.634
 11
28.134
 20
-298.53
 21
-295.03
  0
LINE
  8
COSTRUZIONI
 10
28.664
 11
32.164
 20
-295.03
 21
-298.53
  0
LINE
  8
COSTRUZIONI
 10
32.341
 11
28.841
 20
-298.53
 21
-295.03
  0
LINE
  8
COSTRUZIONI
 10
29.371
 11
32.871
 20
-295.03
 21
-298.53
  0
LINE
  8
COSTRUZIONI
 10
33.048
 11
29.548
 20
-298.53
 21
-295.03
  0
LINE
  8
COSTRUZIONI
 10
30.078
 11
33.578
 20
-295.03
 21
-298.53
  0
LINE
  8
COSTRUZIONI
 10
33.755
 11
30.255
 20
-298.53
 21
-295.03
  0
LINE
  8
COSTRUZIONI
 10
30.785
 11
34.285
 20
-295.03
 21
-298.53
  0
LINE
  8
COSTRUZIONI
 10
34.462
 11
30.962
 20
-298.53
 21
-295.03
  0
LINE
  8
COSTRUZIONI
 10
31.492
 11
34.992
 20
-295.03
 21
-298.53
  0
LINE
  8
COSTRUZIONI
 10
35.169
 11
31.669
 20
-298.53
 21
-295.03
  0
LINE
  8
COSTRUZIONI
 10
32.199
 11
35.699
 20
-295.03
 21
-298.53
  0
LINE
  8
COSTRUZIONI
 10
35.876
 11
32.376
 20
-298.53
 21
-295.03
  0
LINE
  8
COSTRUZIONI
 10
32.907
 11
36.407
 20
-295.03
 21
-298.53
  0
LINE
  8
COSTRUZIONI
 10
36.583
 11
33.083
 20
-298.53
 21
-295.03
  0
LINE
  8
COSTRUZIONI
 10
33.58
 11
37.114
 20
-294.996
 21
-298.53
  0
LINE
  8
COSTRUZIONI
 10
37.29
 11
33.707
 20
-298.53
 21
-294.946
  0
LINE
  8
COSTRUZIONI
 10
34.091
 11
37.821
 20
-294.8
 21
-298.53
  0
LINE
  8
COSTRUZIONI
 10
37.998
 11
34.222
 20
-298.53
 21
-294.754
  0
LINE
  8
COSTRUZIONI
 10
34.62
 11
38.528
 20
-294.622
 21
-298.53
  0
LINE
  8
COSTRUZIONI
 10
38.705
 11
34.756
 20
-298.53
 21
-294.581
  0
LINE
  8
COSTRUZIONI
 10
35.169
 11
39.235
 20
-294.464
 21
-298.53
  0
LINE
  8
COSTRUZIONI
 10
39.412
 11
35.309
 20
-298.53
 21
-294.427
  0
LINE
  8
COSTRUZIONI
 10
35.739
 11
39.942
 20
-294.326
 21
-298.53
  0
LINE
  8
COSTRUZIONI
 10
40.119
 11
35.885
 20
-298.53
 21
-294.295
  0
LINE
  8
COSTRUZIONI
 10
36.331
 11
40.649
 20
-294.212
 21
-298.53
  0
LINE
  8
COSTRUZIONI
 10
40.826
 11
36.483
 20
-298.53
 21
-294.187
  0
LINE
  8
COSTRUZIONI
 10
36.949
 11
41.356
 20
-294.122
 21
-298.53
  0
LINE
  8
COSTRUZIONI
 10
41.533
 11
37.108
 20
-298.53
 21
-294.104
  0
LINE
  8
COSTRUZIONI
 10
37.595
 11
42.063
 20
-294.061
 21
-298.53
  0
LINE
  8
COSTRUZIONI
 10
42.24
 11
37.761
 20
-298.53
 21
-294.051
  0
LINE
  8
COSTRUZIONI
 10
38.273
 11
42.771
 20
-294.032
 21
-298.53
  0
LINE
  8
COSTRUZIONI
 10
42.947
 11
38.447
 20
-298.53
 21
-294.03
  0
LINE
  8
COSTRUZIONI
 10
38.987
 11
43.478
 20
-294.039
 21
-298.53
  0
LINE
  8
COSTRUZIONI
 10
43.5
 11
39.172
 20
-298.375
 21
-294.047
  0
LINE
  8
COSTRUZIONI
 10
39.744
 11
43.5
 20
-294.089
 21
-297.845
  0
LINE
  8
COSTRUZIONI
 10
43.5
 11
39.942
 20
-297.668
 21
-294.11
  0
LINE
  8
COSTRUZIONI
 10
40.555
 11
43.5
 20
-294.193
 21
-297.138
  0
LINE
  8
COSTRUZIONI
 10
43.5
 11
40.768
 20
-296.961
 21
-294.229
  0
LINE
  8
COSTRUZIONI
 10
41.435
 11
43.5
 20
-294.365
 21
-296.431
  0
LINE
  8
COSTRUZIONI
 10
43.5
 11
41.668
 20
-296.254
 21
-294.421
  0
LINE
  8
COSTRUZIONI
 10
42.407
 11
43.5
 20
-294.631
 21
-295.723
  0
LINE
  8
COSTRUZIONI
 10
43.5
 11
42.67
 20
-295.547
 21
-294.716
  0
ARC
  8
APS_GEOMETRY
 10
43.0
 20
-299.53
 40
1.0
 50
360.0
 51
90.0
  0
LINE
  8
APS_GEOMETRY
 10
0.0
 11
0.0
 20
-312.325
 21
-383.33
  0
LINE
  8
APS_GEOMETRY
 10
0.0
 11
6.7
 20
-383.33
 21
-383.33
  0
LINE
  8
APS_GEOMETRY
 10
6.7
 11
6.7
 20
-383.33
 21
-369.33
  0
LINE
  8
APS_GEOMETRY
 10
6.7
 11
11.0
 20
-369.33
 21
-369.33
  0
LINE
  8
APS_GEOMETRY
 10
11.0
 11
11.0
 20
-369.33
 21
-383.33
  0
LINE
  8
APS_GEOMETRY
 10
11.0
 11
34.0
 20
-383.33
 21
-383.33
  0
ARC
  8
APS_GEOMETRY
 10
34.0
 20
-373.33
 40
10.0
 50
270.0
 51
0.0
  0
LINE
  8
APS_GEOMETRY
 10
44.0
 11
44.0
 20
-373.33
 21
-299.53
  0
LINE
  8
APS_GEOMETRY
 10
33.5
 11
33.5
 20
-295.03
 21
-268.33
  0
ARC
  8
APS_GEOMETRY
 10
30.5
 20
-268.33
 40
3.0
 50
0.0
 51
90.0
  0
LINE
  8
APS_GEOMETRY
 10
30.5
 11
8.5
 20
-265.33
 21
-265.33
  0
LINE
  8
APS_GEOMETRY
 10
8.5
 11
8.5
 20
-265.33
 21
-279.33
  0
LINE
  8
APS_GEOMETRY
 10
8.5
 11
4.2
 20
-279.33
 21
-279.33
  0
LINE
  8
APS_GEOMETRY
 10
4.2
 11
4.2
 20
-279.33
 21
-265.33
  0
LINE
  8
APS_GEOMETRY
 10
4.2
 11
0.0
 20
-265.33
 21
-265.33
  0
LINE
  8
APS_GEOMETRY
 10
0.0
 11
0.0
 20
-265.33
 21
-383.33
  0
ARC
  8
APS_GEOMETRY
 10
137.5
 20
-292.329
 40
3.0
 50
270.0
 51
0.0
  0
LINE
  8
APS_GEOMETRY
 10
140.5
 11
140.5
 20
-292.329
 21
-285.079
  0
LINE
  8
APS_GEOMETRY
 10
140.5
 11
139.5
 20
-285.079
 21
-284.079
  0
LINE
  8
APS_GEOMETRY
 10
139.5
 11
124.5
 20
-284.079
 21
-284.079
  0
LINE
  8
APS_GEOMETRY
 10
124.5
 11
124.5
 20
-284.079
 21
-261.579
  0
LINE
  8
APS_GEOMETRY
 10
124.5
 11
139.5
 20
-261.579
 21
-261.579
  0
LINE
  8
APS_GEOMETRY
 10
139.5
 11
140.5
 20
-261.579
 21
-260.579
  0
LINE
  8
APS_GEOMETRY
 10
140.5
 11
140.5
 20
-260.579
 21
-253.329
  0
ARC
  8
APS_GEOMETRY
 10
137.5
 20
-253.329
 40
3.0
 50
0.0
 51
90.0
  0
LINE
  8
APS_GEOMETRY
 10
137.5
 11
31.5
 20
-250.329
 21
-250.329
  0
ARC
  8
APS_GEOMETRY
 10
31.5
 20
-255.329
 40
5.0
 50
90.0
 51
180.0
  0
LINE
  8
APS_GEOMETRY
 10
26.5
 11
26.5
 20
-255.329
 21
-263.329
  0
ARC
  8
APS_GEOMETRY
 10
28.5
 20
-263.329
 40
2.0
 50
180.0
 51
270.0
  0
LINE
  8
APS_GEOMETRY
 10
28.5
 11
36.5
 20
-265.329
 21
-265.329
  0
LINE
  8
APS_GEOMETRY
 10
36.5
 11
36.5
 20
-265.329
 21
-292.329
  0
ARC
  8
APS_GEOMETRY
 10
39.5
 20
-292.329
 40
3.0
 50
180.0
 51
270.0
  0
LINE
  8
APS_GEOMETRY
 10
39.5
 11
137.5
 20
-295.329
 21
-295.329
  0
LINE
  8
COSTRUZIONI
 10
-1.5
 11
-1.5
 20
-265.33
 21
-383.33
  0
LINE
  8
COSTRUZIONI
 10
-21.5
 11
-21.5
 20
-265.33
 21
-383.33
  0
LINE
  8
COSTRUZIONI
 10
-1.5
 11
-136.543
 20
-265.33
 21
-265.33
  0
LINE
  8
COSTRUZIONI
 10
-1.5
 11
-136.543
 20
-383.33
 21
-383.33
  0
LINE
  8
COSTRUZIONI
 10
-21.5
 11
-1.5
 20
-383.33
 21
-265.33
  0
LINE
  8
COSTRUZIONI
 10
-21.5
 11
-1.5
 20
-265.33
 21
-383.33
  0
LINE
  8
COSTRUZIONI
 10
836.0
 11
836.0
 20
0.0
 21
4.5
  0
LINE
  8
COSTRUZIONI
 10
44.0
 11
44.0
 20
4.5
 21
0.0
  0
LINE
  8
COSTRUZIONI
 10
26.5
 11
10.5
 20
2113.5
 21
2129.5
  0
LINE
  8
COSTRUZIONI
 10
853.5
 11
869.5
 20
2113.5
 21
2129.5
  0
LINE
  8
APS_GEOMETRY
 10
853.5
 11
853.5
 20
4.5
 21
2113.5
  0
LINE
  8
APS_GEOMETRY
 10
853.5
 11
26.5
 20
2113.5
 21
2113.5
  0
LINE
  8
APS_GEOMETRY
 10
26.5
 11
26.5
 20
2113.5
 21
4.5
  0
LINE
  8
APS_GEOMETRY
 10
739.5
 11
739.5
 20
4.5
 21
2113.5
  0
LINE
  8
APS_GEOMETRY
 10
739.5
 11
140.5
 20
1999.5
 21
1999.5
  0
LINE
  8
APS_GEOMETRY
 10
140.5
 11
140.5
 20
2113.5
 21
4.5
  0
LINE
  8
APS_GEOMETRY
 10
26.5
 11
853.5
 20
4.5
 21
4.5
  0
LINE
  8
APS_GEOMETRY
 10
140.5
 11
739.5
 20
180.5
 21
180.5
  0
LINE
  8
APS_GEOMETRY
 10
934.5
 11
880.0
 20
-262.33
 21
-262.33
  0
LINE
  8
APS_GEOMETRY
 10
880.0
 11
880.0
 20
-262.33
 21
-265.33
  0
LINE
  8
APS_GEOMETRY
 10
880.0
 11
875.5
 20
-265.33
 21
-265.33
  0
LINE
  8
APS_GEOMETRY
 10
875.5
 11
875.5
 20
-265.33
 21
-275.83
  0
LINE
  8
APS_GEOMETRY
 10
875.5
 11
874.0
 20
-275.83
 21
-277.33
  0
LINE
  8
APS_GEOMETRY
 10
874.0
 11
871.5
 20
-277.33
 21
-277.33
  0
LINE
  8
APS_GEOMETRY
 10
871.5
 11
871.5
 20
-277.33
 21
-259.33
  0
ARC
  8
APS_GEOMETRY
 10
875.5
 20
-259.33
 40
4.0
 50
90.0
 51
180.0
  0
LINE
  8
APS_GEOMETRY
 10
875.5
 11
936.5
 20
-255.33
 21
-255.33
  0
ARC
  8
APS_GEOMETRY
 10
936.5
 20
-259.33
 40
4.0
 50
360.0
 51
90.0
  0
LINE
  8
APS_GEOMETRY
 10
940.5
 11
940.5
 20
-259.33
 21
-265.33
  0
LINE
  8
APS_GEOMETRY
 10
940.5
 11
934.5
 20
-265.33
 21
-265.33
  0
LINE
  8
APS_GEOMETRY
 10
934.5
 11
934.5
 20
-265.33
 21
-262.33
  0
LINE
  8
APS_GEOMETRY
 10
932.0
 11
877.5
 20
-386.33
 21
-386.33
  0
LINE
  8
APS_GEOMETRY
 10
877.5
 11
877.5
 20
-386.33
 21
-383.33
  0
LINE
  8
APS_GEOMETRY
 10
877.5
 11
873.0
 20
-383.33
 21
-383.33
  0
LINE
  8
APS_GEOMETRY
 10
873.0
 11
873.0
 20
-383.33
 21
-372.83
  0
LINE
  8
APS_GEOMETRY
 10
873.0
 11
871.5
 20
-372.83
 21
-371.33
  0
LINE
  8
APS_GEOMETRY
 10
871.5
 11
869.0
 20
-371.33
 21
-371.33
  0
LINE
  8
APS_GEOMETRY
 10
869.0
 11
869.0
 20
-371.33
 21
-389.33
  0
ARC
  8
APS_GEOMETRY
 10
873.0
 20
-389.33
 40
4.0
 50
180.0
 51
270.0
  0
LINE
  8
APS_GEOMETRY
 10
873.0
 11
934.0
 20
-393.33
 21
-393.33
  0
ARC
  8
APS_GEOMETRY
 10
934.0
 20
-389.33
 40
4.0
 50
270.0
 51
0.0
  0
LINE
  8
APS_GEOMETRY
 10
938.0
 11
938.0
 20
-389.33
 21
-383.33
  0
LINE
  8
APS_GEOMETRY
 10
938.0
 11
932.0
 20
-383.33
 21
-383.33
  0
LINE
  8
APS_GEOMETRY
 10
932.0
 11
932.0
 20
-383.33
 21
-386.33
  0
LINE
  8
QUOTATURA
 10
837.0
 11
837.0
 20
-299.863
 21
-299.196
  0
LINE
  8
COSTRUZIONI
 10
854.2
 11
846.5
 20
-295.03
 21
-295.03
  0
ARC
  8
COSTRUZIONI
 10
841.5
 20
-307.03
 40
13.0
 50
67.38
 51
112.62
  0
LINE
  8
COSTRUZIONI
 10
836.5
 11
836.5
 20
-295.03
 21
-298.53
  0
LINE
  8
COSTRUZIONI
 10
836.5
 11
854.2
 20
-298.53
 21
-298.53
  0
LINE
  8
COSTRUZIONI
 10
854.2
 11
854.2
 20
-298.53
 21
-295.03
  0
LINE
  8
COSTRUZIONI
 10
854.023
 11
854.2
 20
-298.53
 21
-298.353
  0
LINE
  8
COSTRUZIONI
 10
854.2
 11
853.493
 20
-297.822
 21
-298.53
  0
LINE
  8
COSTRUZIONI
 10
853.316
 11
854.2
 20
-298.53
 21
-297.646
  0
LINE
  8
COSTRUZIONI
 10
854.2
 11
852.786
 20
-297.115
 21
-298.53
  0
LINE
  8
COSTRUZIONI
 10
852.609
 11
854.2
 20
-298.53
 21
-296.939
  0
LINE
  8
COSTRUZIONI
 10
854.2
 11
852.079
 20
-296.408
 21
-298.53
  0
LINE
  8
COSTRUZIONI
 10
851.902
 11
854.2
 20
-298.53
 21
-296.231
  0
LINE
  8
COSTRUZIONI
 10
854.2
 11
851.372
 20
-295.701
 21
-298.53
  0
LINE
  8
COSTRUZIONI
 10
851.195
 11
854.2
 20
-298.53
 21
-295.524
  0
LINE
  8
COSTRUZIONI
 10
854.164
 11
850.664
 20
-295.03
 21
-298.53
  0
LINE
  8
COSTRUZIONI
 10
850.488
 11
853.988
 20
-298.53
 21
-295.03
  0
LINE
  8
COSTRUZIONI
 10
853.457
 11
849.957
 20
-295.03
 21
-298.53
  0
LINE
  8
COSTRUZIONI
 10
849.781
 11
853.281
 20
-298.53
 21
-295.03
  0
LINE
  8
COSTRUZIONI
 10
852.75
 11
849.25
 20
-295.03
 21
-298.53
  0
LINE
  8
COSTRUZIONI
 10
849.073
 11
852.573
 20
-298.53
 21
-295.03
  0
LINE
  8
COSTRUZIONI
 10
852.043
 11
848.543
 20
-295.03
 21
-298.53
  0
LINE
  8
COSTRUZIONI
 10
848.366
 11
851.866
 20
-298.53
 21
-295.03
  0
LINE
  8
COSTRUZIONI
 10
851.336
 11
847.836
 20
-295.03
 21
-298.53
  0
LINE
  8
COSTRUZIONI
 10
847.659
 11
851.159
 20
-298.53
 21
-295.03
  0
LINE
  8
COSTRUZIONI
 10
850.629
 11
847.129
 20
-295.03
 21
-298.53
  0
LINE
  8
COSTRUZIONI
 10
846.952
 11
850.452
 20
-298.53
 21
-295.03
  0
LINE
  8
COSTRUZIONI
 10
849.922
 11
846.422
 20
-295.03
 21
-298.53
  0
LINE
  8
COSTRUZIONI
 10
846.245
 11
849.745
 20
-298.53
 21
-295.03
  0
LINE
  8
COSTRUZIONI
 10
849.215
 11
845.715
 20
-295.03
 21
-298.53
  0
LINE
  8
COSTRUZIONI
 10
845.538
 11
849.038
 20
-298.53
 21
-295.03
  0
LINE
  8
COSTRUZIONI
 10
848.508
 11
845.008
 20
-295.03
 21
-298.53
  0
LINE
  8
COSTRUZIONI
 10
844.831
 11
848.331
 20
-298.53
 21
-295.03
  0
LINE
  8
COSTRUZIONI
 10
847.801
 11
844.301
 20
-295.03
 21
-298.53
  0
LINE
  8
COSTRUZIONI
 10
844.124
 11
847.624
 20
-298.53
 21
-295.03
  0
LINE
  8
COSTRUZIONI
 10
847.093
 11
843.593
 20
-295.03
 21
-298.53
  0
LINE
  8
COSTRUZIONI
 10
843.417
 11
846.917
 20
-298.53
 21
-295.03
  0
LINE
  8
COSTRUZIONI
 10
846.42
 11
842.886
 20
-294.996
 21
-298.53
  0
LINE
  8
COSTRUZIONI
 10
842.71
 11
846.293
 20
-298.53
 21
-294.946
  0
LINE
  8
COSTRUZIONI
 10
845.909
 11
842.179
 20
-294.8
 21
-298.53
  0
LINE
  8
COSTRUZIONI
 10
842.002
 11
845.778
 20
-298.53
 21
-294.754
  0
LINE
  8
COSTRUZIONI
 10
845.38
 11
841.472
 20
-294.622
 21
-298.53
  0
LINE
  8
COSTRUZIONI
 10
841.295
 11
845.244
 20
-298.53
 21
-294.581
  0
LINE
  8
COSTRUZIONI
 10
844.831
 11
840.765
 20
-294.464
 21
-298.53
  0
LINE
  8
COSTRUZIONI
 10
840.588
 11
844.691
 20
-298.53
 21
-294.427
  0
LINE
  8
COSTRUZIONI
 10
844.261
 11
840.058
 20
-294.326
 21
-298.53
  0
LINE
  8
COSTRUZIONI
 10
839.881
 11
844.115
 20
-298.53
 21
-294.295
  0
LINE
  8
COSTRUZIONI
 10
843.669
 11
839.351
 20
-294.212
 21
-298.53
  0
LINE
  8
COSTRUZIONI
 10
839.174
 11
843.517
 20
-298.53
 21
-294.187
  0
LINE
  8
COSTRUZIONI
 10
843.051
 11
838.644
 20
-294.122
 21
-298.53
  0
LINE
  8
COSTRUZIONI
 10
838.467
 11
842.892
 20
-298.53
 21
-294.104
  0
LINE
  8
COSTRUZIONI
 10
842.405
 11
837.937
 20
-294.061
 21
-298.53
  0
LINE
  8
COSTRUZIONI
 10
837.76
 11
842.239
 20
-298.53
 21
-294.051
  0
LINE
  8
COSTRUZIONI
 10
841.727
 11
837.229
 20
-294.032
 21
-298.53
  0
LINE
  8
COSTRUZIONI
 10
837.053
 11
841.553
 20
-298.53
 21
-294.03
  0
LINE
  8
COSTRUZIONI
 10
841.013
 11
836.522
 20
-294.039
 21
-298.53
  0
LINE
  8
COSTRUZIONI
 10
836.5
 11
840.828
 20
-298.375
 21
-294.047
  0
LINE
  8
COSTRUZIONI
 10
840.256
 11
836.5
 20
-294.089
 21
-297.845
  0
LINE
  8
COSTRUZIONI
 10
836.5
 11
840.058
 20
-297.668
 21
-294.11
  0
LINE
  8
COSTRUZIONI
 10
839.445
 11
836.5
 20
-294.193
 21
-297.138
  0
LINE
  8
COSTRUZIONI
 10
836.5
 11
839.232
 20
-296.961
 21
-294.229
  0
LINE
  8
COSTRUZIONI
 10
838.565
 11
836.5
 20
-294.365
 21
-296.431
  0
LINE
  8
COSTRUZIONI
 10
836.5
 11
838.332
 20
-296.254
 21
-294.421
  0
LINE
  8
COSTRUZIONI
 10
837.593
 11
836.5
 20
-294.631
 21
-295.723
  0
LINE
  8
COSTRUZIONI
 10
836.5
 11
837.33
 20
-295.547
 21
-294.716
  0
ARC
  8
APS_GEOMETRY
 10
837.0
 20
-299.53
 40
1.0
 50
90.0
 51
180.0
  0
LINE
  8
APS_GEOMETRY
 10
880.0
 11
880.0
 20
-312.325
 21
-383.33
  0
LINE
  8
APS_GEOMETRY
 10
880.0
 11
873.3
 20
-383.33
 21
-383.33
  0
LINE
  8
APS_GEOMETRY
 10
873.3
 11
873.3
 20
-383.33
 21
-369.33
  0
LINE
  8
APS_GEOMETRY
 10
873.3
 11
869.0
 20
-369.33
 21
-369.33
  0
LINE
  8
APS_GEOMETRY
 10
869.0
 11
869.0
 20
-369.33
 21
-383.33
  0
LINE
  8
APS_GEOMETRY
 10
869.0
 11
846.0
 20
-383.33
 21
-383.33
  0
ARC
  8
APS_GEOMETRY
 10
846.0
 20
-373.33
 40
10.0
 50
180.0
 51
270.0
  0
LINE
  8
APS_GEOMETRY
 10
836.0
 11
836.0
 20
-373.33
 21
-299.53
  0
LINE
  8
APS_GEOMETRY
 10
846.5
 11
846.5
 20
-295.03
 21
-268.33
  0
ARC
  8
APS_GEOMETRY
 10
849.5
 20
-268.33
 40
3.0
 50
90.0
 51
180.0
  0
LINE
  8
APS_GEOMETRY
 10
849.5
 11
871.5
 20
-265.33
 21
-265.33
  0
LINE
  8
APS_GEOMETRY
 10
871.5
 11
871.5
 20
-265.33
 21
-279.33
  0
LINE
  8
APS_GEOMETRY
 10
871.5
 11
875.8
 20
-279.33
 21
-279.33
  0
LINE
  8
APS_GEOMETRY
 10
875.8
 11
875.8
 20
-279.33
 21
-265.33
  0
LINE
  8
APS_GEOMETRY
 10
875.8
 11
880.0
 20
-265.33
 21
-265.33
  0
LINE
  8
APS_GEOMETRY
 10
880.0
 11
880.0
 20
-265.33
 21
-383.33
  0
ARC
  8
APS_GEOMETRY
 10
742.5
 20
-292.329
 40
3.0
 50
180.0
 51
270.0
  0
LINE
  8
APS_GEOMETRY
 10
739.5
 11
739.5
 20
-292.329
 21
-285.079
  0
LINE
  8
APS_GEOMETRY
 10
739.5
 11
740.5
 20
-285.079
 21
-284.079
  0
LINE
  8
APS_GEOMETRY
 10
740.5
 11
755.5
 20
-284.079
 21
-284.079
  0
LINE
  8
APS_GEOMETRY
 10
755.5
 11
755.5
 20
-284.079
 21
-261.579
  0
LINE
  8
APS_GEOMETRY
 10
755.5
 11
740.5
 20
-261.579
 21
-261.579
  0
LINE
  8
APS_GEOMETRY
 10
740.5
 11
739.5
 20
-261.579
 21
-260.579
  0
LINE
  8
APS_GEOMETRY
 10
739.5
 11
739.5
 20
-260.579
 21
-253.329
  0
ARC
  8
APS_GEOMETRY
 10
742.5
 20
-253.329
 40
3.0
 50
90.0
 51
180.0
  0
LINE
  8
APS_GEOMETRY
 10
742.5
 11
848.5
 20
-250.329
 21
-250.329
  0
ARC
  8
APS_GEOMETRY
 10
848.5
 20
-255.329
 40
5.0
 50
360.0
 51
90.0
  0
LINE
  8
APS_GEOMETRY
 10
853.5
 11
853.5
 20
-255.329
 21
-263.329
  0
ARC
  8
APS_GEOMETRY
 10
851.5
 20
-263.329
 40
2.0
 50
270.0
 51
360.0
  0
LINE
  8
APS_GEOMETRY
 10
851.5
 11
843.5
 20
-265.329
 21
-265.329
  0
LINE
  8
APS_GEOMETRY
 10
843.5
 11
843.5
 20
-265.329
 21
-292.329
  0
ARC
  8
APS_GEOMETRY
 10
840.5
 20
-292.329
 40
3.0
 50
270.0
 51
360.0
  0
LINE
  8
APS_GEOMETRY
 10
840.5
 11
742.5
 20
-295.329
 21
-295.329
  0
LINE
  8
COSTRUZIONI
 10
881.5
 11
881.5
 20
-265.33
 21
-383.33
  0
LINE
  8
COSTRUZIONI
 10
901.5
 11
901.5
 20
-265.33
 21
-383.33
  0
LINE
  8
COSTRUZIONI
 10
881.5
 11
1016.543
 20
-265.33
 21
-265.33
  0
LINE
  8
COSTRUZIONI
 10
881.5
 11
1016.543
 20
-383.33
 21
-383.33
  0
LINE
  8
COSTRUZIONI
 10
901.5
 11
881.5
 20
-383.33
 21
-265.33
  0
LINE
  8
COSTRUZIONI
 10
901.5
 11
881.5
 20
-265.33
 21
-383.33
  0
LINE
  8
APS_GEOMETRY
 10
-308.628
 11
-308.628
 20
2194.5
 21
2140.0
  0
LINE
  8
APS_GEOMETRY
 10
-308.628
 11
-311.628
 20
2140.0
 21
2140.0
  0
LINE
  8
APS_GEOMETRY
 10
-311.628
 11
-311.628
 20
2140.0
 21
2135.5
  0
LINE
  8
APS_GEOMETRY
 10
-311.628
 11
-322.128
 20
2135.5
 21
2135.5
  0
LINE
  8
APS_GEOMETRY
 10
-322.128
 11
-323.628
 20
2135.5
 21
2134.0
  0
LINE
  8
APS_GEOMETRY
 10
-323.628
 11
-323.628
 20
2134.0
 21
2131.5
  0
LINE
  8
APS_GEOMETRY
 10
-323.628
 11
-305.628
 20
2131.5
 21
2131.5
  0
ARC
  8
APS_GEOMETRY
 10
-305.628
 20
2135.5
 40
4.0
 50
270.0
 51
360.0
  0
LINE
  8
APS_GEOMETRY
 10
-301.628
 11
-301.628
 20
2135.5
 21
2196.5
  0
ARC
  8
APS_GEOMETRY
 10
-305.628
 20
2196.5
 40
4.0
 50
360.0
 51
90.0
  0
LINE
  8
APS_GEOMETRY
 10
-305.628
 11
-311.628
 20
2200.5
 21
2200.5
  0
LINE
  8
APS_GEOMETRY
 10
-311.628
 11
-311.628
 20
2200.5
 21
2194.5
  0
LINE
  8
APS_GEOMETRY
 10
-311.628
 11
-308.628
 20
2194.5
 21
2194.5
  0
LINE
  8
APS_GEOMETRY
 10
-432.628
 11
-432.628
 20
2192.0
 21
2137.5
  0
LINE
  8
APS_GEOMETRY
 10
-432.628
 11
-429.628
 20
2137.5
 21
2137.5
  0
LINE
  8
APS_GEOMETRY
 10
-429.628
 11
-429.628
 20
2137.5
 21
2133.0
  0
LINE
  8
APS_GEOMETRY
 10
-429.628
 11
-419.128
 20
2133.0
 21
2133.0
  0
LINE
  8
APS_GEOMETRY
 10
-419.128
 11
-417.628
 20
2133.0
 21
2131.5
  0
LINE
  8
APS_GEOMETRY
 10
-417.628
 11
-417.628
 20
2131.5
 21
2129.0
  0
LINE
  8
APS_GEOMETRY
 10
-417.628
 11
-435.628
 20
2129.0
 21
2129.0
  0
ARC
  8
APS_GEOMETRY
 10
-435.628
 20
2133.0
 40
4.0
 50
180.0
 51
270.0
  0
LINE
  8
APS_GEOMETRY
 10
-439.628
 11
-439.628
 20
2133.0
 21
2194.0
  0
ARC
  8
APS_GEOMETRY
 10
-435.628
 20
2194.0
 40
4.0
 50
90.0
 51
180.0
  0
LINE
  8
APS_GEOMETRY
 10
-435.628
 11
-429.628
 20
2198.0
 21
2198.0
  0
LINE
  8
APS_GEOMETRY
 10
-429.628
 11
-429.628
 20
2198.0
 21
2192.0
  0
LINE
  8
APS_GEOMETRY
 10
-429.628
 11
-432.628
 20
2192.0
 21
2192.0
  0
LINE
  8
QUOTATURA
 10
-346.161
 11
-345.495
 20
2097.0
 21
2097.0
  0
LINE
  8
COSTRUZIONI
 10
-341.328
 11
-341.328
 20
2114.2
 21
2106.5
  0
ARC
  8
COSTRUZIONI
 10
-353.328
 20
2101.5
 40
13.0
 50
337.38
 51
22.62
  0
LINE
  8
COSTRUZIONI
 10
-341.328
 11
-344.828
 20
2096.5
 21
2096.5
  0
LINE
  8
COSTRUZIONI
 10
-344.828
 11
-344.828
 20
2096.5
 21
2114.2
  0
LINE
  8
COSTRUZIONI
 10
-344.828
 11
-341.328
 20
2114.2
 21
2114.2
  0
LINE
  8
COSTRUZIONI
 10
-344.828
 11
-344.651
 20
2114.023
 21
2114.2
  0
LINE
  8
COSTRUZIONI
 10
-344.121
 11
-344.828
 20
2114.2
 21
2113.493
  0
LINE
  8
COSTRUZIONI
 10
-344.828
 11
-343.944
 20
2113.316
 21
2114.2
  0
LINE
  8
COSTRUZIONI
 10
-343.414
 11
-344.828
 20
2114.2
 21
2112.786
  0
LINE
  8
COSTRUZIONI
 10
-344.828
 11
-343.237
 20
2112.609
 21
2114.2
  0
LINE
  8
COSTRUZIONI
 10
-342.707
 11
-344.828
 20
2114.2
 21
2112.079
  0
LINE
  8
COSTRUZIONI
 10
-344.828
 11
-342.53
 20
2111.902
 21
2114.2
  0
LINE
  8
COSTRUZIONI
 10
-341.999
 11
-344.828
 20
2114.2
 21
2111.372
  0
LINE
  8
COSTRUZIONI
 10
-344.828
 11
-341.823
 20
2111.195
 21
2114.2
  0
LINE
  8
COSTRUZIONI
 10
-341.328
 11
-344.828
 20
2114.164
 21
2110.664
  0
LINE
  8
COSTRUZIONI
 10
-344.828
 11
-341.328
 20
2110.488
 21
2113.988
  0
LINE
  8
COSTRUZIONI
 10
-341.328
 11
-344.828
 20
2113.457
 21
2109.957
  0
LINE
  8
COSTRUZIONI
 10
-344.828
 11
-341.328
 20
2109.781
 21
2113.281
  0
LINE
  8
COSTRUZIONI
 10
-341.328
 11
-344.828
 20
2112.75
 21
2109.25
  0
LINE
  8
COSTRUZIONI
 10
-344.828
 11
-341.328
 20
2109.073
 21
2112.573
  0
LINE
  8
COSTRUZIONI
 10
-341.328
 11
-344.828
 20
2112.043
 21
2108.543
  0
LINE
  8
COSTRUZIONI
 10
-344.828
 11
-341.328
 20
2108.366
 21
2111.866
  0
LINE
  8
COSTRUZIONI
 10
-341.328
 11
-344.828
 20
2111.336
 21
2107.836
  0
LINE
  8
COSTRUZIONI
 10
-344.828
 11
-341.328
 20
2107.659
 21
2111.159
  0
LINE
  8
COSTRUZIONI
 10
-341.328
 11
-344.828
 20
2110.629
 21
2107.129
  0
LINE
  8
COSTRUZIONI
 10
-344.828
 11
-341.328
 20
2106.952
 21
2110.452
  0
LINE
  8
COSTRUZIONI
 10
-341.328
 11
-344.828
 20
2109.922
 21
2106.422
  0
LINE
  8
COSTRUZIONI
 10
-344.828
 11
-341.328
 20
2106.245
 21
2109.745
  0
LINE
  8
COSTRUZIONI
 10
-341.328
 11
-344.828
 20
2109.215
 21
2105.715
  0
LINE
  8
COSTRUZIONI
 10
-344.828
 11
-341.328
 20
2105.538
 21
2109.038
  0
LINE
  8
COSTRUZIONI
 10
-341.328
 11
-344.828
 20
2108.508
 21
2105.008
  0
LINE
  8
COSTRUZIONI
 10
-344.828
 11
-341.328
 20
2104.831
 21
2108.331
  0
LINE
  8
COSTRUZIONI
 10
-341.328
 11
-344.828
 20
2107.801
 21
2104.301
  0
LINE
  8
COSTRUZIONI
 10
-344.828
 11
-341.328
 20
2104.124
 21
2107.624
  0
LINE
  8
COSTRUZIONI
 10
-341.328
 11
-344.828
 20
2107.093
 21
2103.593
  0
LINE
  8
COSTRUZIONI
 10
-344.828
 11
-341.328
 20
2103.417
 21
2106.917
  0
LINE
  8
COSTRUZIONI
 10
-341.295
 11
-344.828
 20
2106.42
 21
2102.886
  0
LINE
  8
COSTRUZIONI
 10
-344.828
 11
-341.244
 20
2102.71
 21
2106.293
  0
LINE
  8
COSTRUZIONI
 10
-341.098
 11
-344.828
 20
2105.909
 21
2102.179
  0
LINE
  8
COSTRUZIONI
 10
-344.828
 11
-341.052
 20
2102.002
 21
2105.778
  0
LINE
  8
COSTRUZIONI
 10
-340.92
 11
-344.828
 20
2105.38
 21
2101.472
  0
LINE
  8
COSTRUZIONI
 10
-344.828
 11
-340.879
 20
2101.295
 21
2105.244
  0
LINE
  8
COSTRUZIONI
 10
-340.762
 11
-344.828
 20
2104.831
 21
2100.765
  0
LINE
  8
COSTRUZIONI
 10
-344.828
 11
-340.726
 20
2100.588
 21
2104.691
  0
LINE
  8
COSTRUZIONI
 10
-340.625
 11
-344.828
 20
2104.261
 21
2100.058
  0
LINE
  8
COSTRUZIONI
 10
-344.828
 11
-340.594
 20
2099.881
 21
2104.115
  0
LINE
  8
COSTRUZIONI
 10
-340.51
 11
-344.828
 20
2103.669
 21
2099.351
  0
LINE
  8
COSTRUZIONI
 10
-344.828
 11
-340.485
 20
2099.174
 21
2103.517
  0
LINE
  8
COSTRUZIONI
 10
-340.421
 11
-344.828
 20
2103.051
 21
2098.644
  0
LINE
  8
COSTRUZIONI
 10
-344.828
 11
-340.403
 20
2098.467
 21
2102.892
  0
LINE
  8
COSTRUZIONI
 10
-340.359
 11
-344.828
 20
2102.405
 21
2097.937
  0
LINE
  8
COSTRUZIONI
 10
-344.828
 11
-340.349
 20
2097.76
 21
2102.239
  0
LINE
  8
COSTRUZIONI
 10
-340.33
 11
-344.828
 20
2101.727
 21
2097.229
  0
LINE
  8
COSTRUZIONI
 10
-344.828
 11
-340.328
 20
2097.053
 21
2101.553
  0
LINE
  8
COSTRUZIONI
 10
-340.337
 11
-344.828
 20
2101.013
 21
2096.522
  0
LINE
  8
COSTRUZIONI
 10
-344.673
 11
-340.345
 20
2096.5
 21
2100.828
  0
LINE
  8
COSTRUZIONI
 10
-340.388
 11
-344.143
 20
2100.256
 21
2096.5
  0
LINE
  8
COSTRUZIONI
 10
-343.966
 11
-340.408
 20
2096.5
 21
2100.058
  0
LINE
  8
COSTRUZIONI
 10
-340.491
 11
-343.436
 20
2099.445
 21
2096.5
  0
LINE
  8
COSTRUZIONI
 10
-343.259
 11
-340.527
 20
2096.5
 21
2099.232
  0
LINE
  8
COSTRUZIONI
 10
-340.663
 11
-342.729
 20
2098.565
 21
2096.5
  0
LINE
  8
COSTRUZIONI
 10
-342.552
 11
-340.72
 20
2096.5
 21
2098.332
  0
LINE
  8
COSTRUZIONI
 10
-340.929
 11
-342.022
 20
2097.593
 21
2096.5
  0
LINE
  8
COSTRUZIONI
 10
-341.845
 11
-341.015
 20
2096.5
 21
2097.33
  0
ARC
  8
APS_GEOMETRY
 10
-345.828
 20
2097.0
 40
1.0
 50
270.0
 51
360.0
  0
LINE
  8
APS_GEOMETRY
 10
-358.624
 11
-429.628
 20
2140.0
 21
2140.0
  0
LINE
  8
APS_GEOMETRY
 10
-429.628
 11
-429.628
 20
2140.0
 21
2133.3
  0
LINE
  8
APS_GEOMETRY
 10
-429.628
 11
-415.628
 20
2133.3
 21
2133.3
  0
LINE
  8
APS_GEOMETRY
 10
-415.628
 11
-415.628
 20
2133.3
 21
2129.0
  0
LINE
  8
APS_GEOMETRY
 10
-415.628
 11
-429.628
 20
2129.0
 21
2129.0
  0
LINE
  8
APS_GEOMETRY
 10
-429.628
 11
-429.628
 20
2129.0
 21
2106.0
  0
ARC
  8
APS_GEOMETRY
 10
-419.628
 20
2106.0
 40
10.0
 50
180.0
 51
270.0
  0
LINE
  8
APS_GEOMETRY
 10
-419.628
 11
-345.828
 20
2096.0
 21
2096.0
  0
LINE
  8
APS_GEOMETRY
 10
-341.328
 11
-314.628
 20
2106.5
 21
2106.5
  0
ARC
  8
APS_GEOMETRY
 10
-314.628
 20
2109.5
 40
3.0
 50
270.0
 51
360.0
  0
LINE
  8
APS_GEOMETRY
 10
-311.628
 11
-311.628
 20
2109.5
 21
2131.5
  0
LINE
  8
APS_GEOMETRY
 10
-311.628
 11
-325.628
 20
2131.5
 21
2131.5
  0
LINE
  8
APS_GEOMETRY
 10
-325.628
 11
-325.628
 20
2131.5
 21
2135.8
  0
LINE
  8
APS_GEOMETRY
 10
-325.628
 11
-311.628
 20
2135.8
 21
2135.8
  0
LINE
  8
APS_GEOMETRY
 10
-311.628
 11
-311.628
 20
2135.8
 21
2140.0
  0
LINE
  8
APS_GEOMETRY
 10
-311.628
 11
-429.628
 20
2140.0
 21
2140.0
  0
ARC
  8
APS_GEOMETRY
 10
-338.628
 20
2002.5
 40
3.0
 50
180.0
 51
270.0
  0
LINE
  8
APS_GEOMETRY
 10
-338.628
 11
-331.378
 20
1999.5
 21
1999.5
  0
LINE
  8
APS_GEOMETRY
 10
-331.378
 11
-330.378
 20
1999.5
 21
2000.5
  0
LINE
  8
APS_GEOMETRY
 10
-330.378
 11
-330.378
 20
2000.5
 21
2015.5
  0
LINE
  8
APS_GEOMETRY
 10
-330.378
 11
-307.878
 20
2015.5
 21
2015.5
  0
LINE
  8
APS_GEOMETRY
 10
-307.878
 11
-307.878
 20
2015.5
 21
2000.5
  0
LINE
  8
APS_GEOMETRY
 10
-307.878
 11
-306.878
 20
2000.5
 21
1999.5
  0
LINE
  8
APS_GEOMETRY
 10
-306.878
 11
-299.628
 20
1999.5
 21
1999.5
  0
ARC
  8
APS_GEOMETRY
 10
-299.628
 20
2002.5
 40
3.0
 50
270.0
 51
360.0
  0
LINE
  8
APS_GEOMETRY
 10
-296.628
 11
-296.628
 20
2002.5
 21
2108.5
  0
ARC
  8
APS_GEOMETRY
 10
-301.628
 20
2108.5
 40
5.0
 50
360.0
 51
90.0
  0
LINE
  8
APS_GEOMETRY
 10
-301.628
 11
-309.628
 20
2113.5
 21
2113.5
  0
ARC
  8
APS_GEOMETRY
 10
-309.628
 20
2111.5
 40
2.0
 50
90.0
 51
180.0
  0
LINE
  8
APS_GEOMETRY
 10
-311.628
 11
-311.628
 20
2111.5
 21
2103.5
  0
LINE
  8
APS_GEOMETRY
 10
-311.628
 11
-338.628
 20
2103.5
 21
2103.5
  0
ARC
  8
APS_GEOMETRY
 10
-338.628
 20
2100.5
 40
3.0
 50
90.0
 51
180.0
  0
LINE
  8
APS_GEOMETRY
 10
-341.628
 11
-341.628
 20
2100.5
 21
2002.5
  0
LINE
  8
COSTRUZIONI
 10
-311.628
 11
-429.628
 20
2141.5
 21
2141.5
  0
LINE
  8
COSTRUZIONI
 10
-311.628
 11
-429.628
 20
2161.5
 21
2161.5
  0
LINE
  8
COSTRUZIONI
 10
-311.628
 11
-311.628
 20
2141.5
 21
2276.543
  0
LINE
  8
COSTRUZIONI
 10
-429.628
 11
-429.628
 20
2141.5
 21
2276.543
  0
LINE
  8
COSTRUZIONI
 10
-429.628
 11
-311.628
 20
2161.5
 21
2141.5
  0
LINE
  8
COSTRUZIONI
 10
-311.628
 11
-429.628
 20
2161.5
 21
2141.5
  0
LINE
  8
COSTRUZIONI
 10
0.0
 11
44.0
 20
0.0
 21
0.0
  0
LINE
  8
COSTRUZIONI
 10
836.0
 11
880.0
 20
0.0
 21
0.0
  0
LINE
  8
APS_GEOMETRY
 10
869.5
 11
869.5
 20
0.0
 21
2129.5
  0
LINE
  8
APS_GEOMETRY
 10
869.5
 11
10.5
 20
2129.5
 21
2129.5
  0
LINE
  8
APS_GEOMETRY
 10
10.5
 11
10.5
 20
2129.5
 21
0.0
  0
LINE
  8
APS_GEOMETRY
 10
938.5
 11
938.5
 20
0.0
 21
2198.5
  0
LINE
  8
APS_GEOMETRY
 10
938.5
 11
-58.5
 20
2198.5
 21
2198.5
  0
LINE
  8
APS_GEOMETRY
 10
-58.5
 11
-58.5
 20
2198.5
 21
0.0
  0
LINE
  8
APS_GEOMETRY
 10
869.5
 11
938.5
 20
2129.5
 21
2198.5
  0
LINE
  8
APS_GEOMETRY
 10
10.5
 11
-58.5
 20
2129.5
 21
2198.5
  0
LINE
  8
COSTRUZIONI
 10
10.5
 11
-680.602
 20
0.0
 21
0.0
  0
LINE
  8
QUOTATURA
 10
880.0
 11
880.0
 20
-383.33
 21
-544.648
  0
LINE
  8
QUOTATURA
 10
0.0
 11
0.0
 20
-383.33
 21
-544.648
  0
LINE
  8
QUOTATURA
 10
880.0
 11
637.693
 20
-544.648
 21
-544.648
  0
LINE
  8
QUOTATURA
 10
242.307
 11
0.0
 20
-544.648
 21
-544.648
  0
LINE
  8
QUOTATURA
 10
850.0
 11
880.0
 20
-539.647
 21
-544.648
  0
LINE
  8
QUOTATURA
 10
880.0
 11
850.0
 20
-544.648
 21
-549.649
  0
LINE
  8
QUOTATURA
 10
850.0
 11
850.0
 20
-549.649
 21
-539.647
  0
LINE
  8
QUOTATURA
 10
30.0
 11
0.0
 20
-549.649
 21
-544.648
  0
LINE
  8
QUOTATURA
 10
0.0
 11
30.0
 20
-544.648
 21
-539.647
  0
LINE
  8
QUOTATURA
 10
30.0
 11
30.0
 20
-539.647
 21
-549.649
  0
LINE
  8
QUOTATURA
 10
26.5
 11
26.5
 20
-255.329
 21
-165.658
  0
LINE
  8
QUOTATURA
 10
853.5
 11
853.5
 20
-255.329
 21
-165.658
  0
LINE
  8
QUOTATURA
 10
26.5
 11
326.398
 20
-165.658
 21
-165.658
  0
LINE
  8
QUOTATURA
 10
553.602
 11
853.5
 20
-165.658
 21
-165.658
  0
LINE
  8
QUOTATURA
 10
56.5
 11
26.5
 20
-170.659
 21
-165.658
  0
LINE
  8
QUOTATURA
 10
26.5
 11
56.5
 20
-165.658
 21
-160.657
  0
LINE
  8
QUOTATURA
 10
56.5
 11
56.5
 20
-160.657
 21
-170.659
  0
LINE
  8
QUOTATURA
 10
823.5
 11
853.5
 20
-160.657
 21
-165.658
  0
LINE
  8
QUOTATURA
 10
853.5
 11
823.5
 20
-165.658
 21
-170.659
  0
LINE
  8
QUOTATURA
 10
823.5
 11
823.5
 20
-170.659
 21
-160.657
  0
LINE
  8
QUOTATURA
 10
-429.628
 11
-445.946
 20
2140.0
 21
2140.0
  0
LINE
  8
QUOTATURA
 10
-482.421
 11
-445.946
 20
0.0
 21
0.0
  0
LINE
  8
QUOTATURA
 10
-445.946
 11
-445.946
 20
2140.0
 21
1276.629
  0
LINE
  8
QUOTATURA
 10
-445.946
 11
-445.946
 20
863.371
 21
0.0
  0
LINE
  8
QUOTATURA
 10
-450.947
 11
-445.946
 20
2110.0
 21
2140.0
  0
LINE
  8
QUOTATURA
 10
-445.946
 11
-440.945
 20
2140.0
 21
2110.0
  0
LINE
  8
QUOTATURA
 10
-440.945
 11
-450.947
 20
2110.0
 21
2110.0
  0
LINE
  8
QUOTATURA
 10
-440.945
 11
-445.946
 20
30.0
 21
0.0
  0
LINE
  8
QUOTATURA
 10
-445.946
 11
-450.947
 20
0.0
 21
30.0
  0
LINE
  8
QUOTATURA
 10
-450.947
 11
-440.945
 20
30.0
 21
30.0
  0
ARC
  8
APS_GEOMETRY
 10
-299.628
 20
177.5
 40
3.0
 50
360.0
 51
90.0
  0
LINE
  8
APS_GEOMETRY
 10
-299.628
 11
-306.878
 20
180.5
 21
180.5
  0
LINE
  8
APS_GEOMETRY
 10
-306.878
 11
-307.878
 20
180.5
 21
179.5
  0
LINE
  8
APS_GEOMETRY
 10
-307.878
 11
-307.878
 20
179.5
 21
164.5
  0
LINE
  8
APS_GEOMETRY
 10
-307.878
 11
-330.378
 20
164.5
 21
164.5
  0
LINE
  8
APS_GEOMETRY
 10
-330.378
 11
-330.378
 20
164.5
 21
179.5
  0
LINE
  8
APS_GEOMETRY
 10
-330.378
 11
-331.378
 20
179.5
 21
180.5
  0
LINE
  8
APS_GEOMETRY
 10
-331.378
 11
-338.628
 20
180.5
 21
180.5
  0
ARC
  8
APS_GEOMETRY
 10
-338.628
 20
177.5
 40
3.0
 50
90.0
 51
180.0
  0
LINE
  8
APS_GEOMETRY
 10
-341.628
 11
-341.628
 20
177.5
 21
9.5
  0
ARC
  8
APS_GEOMETRY
 10
-336.628
 20
9.5
 40
5.0
 50
180.0
 51
270.0
  0
LINE
  8
APS_GEOMETRY
 10
-336.628
 11
-299.628
 20
4.5
 21
4.5
  0
ARC
  8
APS_GEOMETRY
 10
-299.628
 20
7.5
 40
3.0
 50
270.0
 51
0.0
  0
LINE
  8
APS_GEOMETRY
 10
-296.628
 11
-296.628
 20
7.5
 21
177.5
  0
LINE
  8
APS_GEOMETRY
 10
172.5
 11
707.5
 20
212.5
 21
212.5
  0
LINE
  8
APS_GEOMETRY
 10
140.5
 11
739.5
 20
681.5
 21
681.5
  0
LINE
  8
APS_GEOMETRY
 10
140.5
 11
739.5
 20
793.5
 21
793.5
  0
LINE
  8
APS_GEOMETRY
 10
707.5
 11
707.5
 20
212.5
 21
649.5
  0
LINE
  8
APS_GEOMETRY
 10
707.5
 11
172.5
 20
649.5
 21
649.5
  0
LINE
  8
APS_GEOMETRY
 10
172.5
 11
172.5
 20
649.5
 21
212.5
  0
LINE
  8
APS_GEOMETRY
 10
172.5
 11
172.5
 20
1967.5
 21
825.5
  0
LINE
  8
APS_GEOMETRY
 10
172.5
 11
707.5
 20
825.5
 21
825.5
  0
LINE
  8
APS_GEOMETRY
 10
707.5
 11
707.5
 20
825.5
 21
1967.5
  0
LINE
  8
APS_GEOMETRY
 10
707.5
 11
172.5
 20
1967.5
 21
1967.5
  0
ARC
  8
APS_GEOMETRY
 10
-338.628
 20
684.5
 40
3.0
 50
180.0
 51
270.0
  0
LINE
  8
APS_GEOMETRY
 10
-338.628
 11
-331.378
 20
681.5
 21
681.5
  0
LINE
  8
APS_GEOMETRY
 10
-331.378
 11
-330.378
 20
681.5
 21
682.5
  0
LINE
  8
APS_GEOMETRY
 10
-330.378
 11
-330.378
 20
682.5
 21
697.5
  0
LINE
  8
APS_GEOMETRY
 10
-330.378
 11
-307.878
 20
697.5
 21
697.5
  0
LINE
  8
APS_GEOMETRY
 10
-307.878
 11
-307.878
 20
697.5
 21
682.5
  0
LINE
  8
APS_GEOMETRY
 10
-307.878
 11
-306.878
 20
682.5
 21
681.5
  0
LINE
  8
APS_GEOMETRY
 10
-306.878
 11
-299.628
 20
681.5
 21
681.5
  0
ARC
  8
APS_GEOMETRY
 10
-299.628
 20
684.5
 40
3.0
 50
270.0
 51
0.0
  0
LINE
  8
APS_GEOMETRY
 10
-296.628
 11
-296.628
 20
684.5
 21
790.5
  0
ARC
  8
APS_GEOMETRY
 10
-299.628
 20
790.5
 40
3.0
 50
0.0
 51
90.0
  0
LINE
  8
APS_GEOMETRY
 10
-299.628
 11
-306.878
 20
793.5
 21
793.5
  0
LINE
  8
APS_GEOMETRY
 10
-306.878
 11
-307.878
 20
793.5
 21
792.5
  0
LINE
  8
APS_GEOMETRY
 10
-307.878
 11
-307.878
 20
792.5
 21
777.5
  0
LINE
  8
APS_GEOMETRY
 10
-307.878
 11
-330.378
 20
777.5
 21
777.5
  0
LINE
  8
APS_GEOMETRY
 10
-330.378
 11
-330.378
 20
777.5
 21
792.5
  0
LINE
  8
APS_GEOMETRY
 10
-330.378
 11
-331.378
 20
792.5
 21
793.5
  0
LINE
  8
APS_GEOMETRY
 10
-331.378
 11
-338.628
 20
793.5
 21
793.5
  0
ARC
  8
APS_GEOMETRY
 10
-338.628
 20
790.5
 40
3.0
 50
90.0
 51
180.0
  0
LINE
  8
APS_GEOMETRY
 10
-341.628
 11
-341.628
 20
790.5
 21
684.5
  0
LINE
  8
QUOTATURA
 10
-309.628
 11
-136.071
 20
2113.5
 21
2113.5
  0
LINE
  8
QUOTATURA
 10
-299.628
 11
-136.071
 20
4.5
 21
4.5
  0
LINE
  8
QUOTATURA
 10
-136.071
 11
-136.071
 20
2113.5
 21
1181.026
  0
LINE
  8
QUOTATURA
 10
-136.071
 11
-136.071
 20
936.974
 21
4.5
  0
LINE
  8
QUOTATURA
 10
-141.072
 11
-136.071
 20
2083.5
 21
2113.5
  0
LINE
  8
QUOTATURA
 10
-136.071
 11
-131.07
 20
2113.5
 21
2083.5
  0
LINE
  8
QUOTATURA
 10
-131.07
 11
-141.072
 20
2083.5
 21
2083.5
  0
LINE
  8
QUOTATURA
 10
-131.07
 11
-136.071
 20
34.5
 21
4.5
  0
LINE
  8
QUOTATURA
 10
-136.071
 11
-141.072
 20
4.5
 21
34.5
  0
LINE
  8
QUOTATURA
 10
-141.072
 11
-131.07
 20
34.5
 21
34.5
  0
LINE
  8
QUOTATURA
 10
-296.628
 11
-220.953
 20
4.5
 21
4.5
  0
LINE
  8
QUOTATURA
 10
-296.628
 11
-220.953
 20
681.5
 21
681.5
  0
LINE
  8
QUOTATURA
 10
-220.953
 11
-220.953
 20
4.5
 21
320.181
  0
LINE
  8
QUOTATURA
 10
-220.953
 11
-220.953
 20
365.546
 21
681.5
  0
LINE
  8
QUOTATURA
 10
-215.952
 11
-220.953
 20
34.5
 21
4.5
  0
LINE
  8
QUOTATURA
 10
-220.953
 11
-225.954
 20
4.5
 21
34.5
  0
LINE
  8
QUOTATURA
 10
-225.954
 11
-215.952
 20
34.5
 21
34.5
  0
LINE
  8
QUOTATURA
 10
-225.954
 11
-220.953
 20
651.5
 21
681.5
  0
LINE
  8
QUOTATURA
 10
-220.953
 11
-215.952
 20
681.5
 21
651.5
  0
LINE
  8
QUOTATURA
 10
-215.952
 11
-225.954
 20
651.5
 21
651.5
  0
LINE
  8
APS_GEOMETRY
 10
440.0
 11
174.75
 20
-257.83
 21
-257.83
  0
ARC
  8
APS_GEOMETRY
 10
174.75
 20
-262.08
 40
4.25
 50
90.0
 51
180.0
  0
LINE
  8
APS_GEOMETRY
 10
170.5
 11
125.5
 20
-262.079
 21
-262.079
  0
LINE
  8
APS_GEOMETRY
 10
125.5
 11
125.5
 20
-262.079
 21
-284.079
  0
LINE
  8
APS_GEOMETRY
 10
125.5
 11
170.5
 20
-284.079
 21
-284.079
  0
LINE
  8
APS_GEOMETRY
 10
170.5
 11
170.5
 20
-284.079
 21
-284.08
  0
ARC
  8
APS_GEOMETRY
 10
174.75
 20
-284.08
 40
4.25
 50
180.0
 51
270.0
  0
LINE
  8
APS_GEOMETRY
 10
174.75
 11
705.25
 20
-288.33
 21
-288.33
  0
ARC
  8
APS_GEOMETRY
 10
705.25
 20
-284.08
 40
4.25
 50
270.0
 51
360.0
  0
LINE
  8
APS_GEOMETRY
 10
709.5
 11
709.5
 20
-284.08
 21
-284.079
  0
LINE
  8
APS_GEOMETRY
 10
709.5
 11
754.5
 20
-284.079
 21
-284.079
  0
LINE
  8
APS_GEOMETRY
 10
754.5
 11
754.5
 20
-284.079
 21
-262.079
  0
LINE
  8
APS_GEOMETRY
 10
754.5
 11
709.5
 20
-262.079
 21
-262.079
  0
ARC
  8
APS_GEOMETRY
 10
705.25
 20
-262.08
 40
4.25
 50
0.0
 51
90.0
  0
LINE
  8
APS_GEOMETRY
 10
705.25
 11
440.0
 20
-257.83
 21
-257.83
  0
CIRCLE
  8
QUOTATURA
 10
1830.424
 20
609.798
 40
736.895
  0
LINE
  8
QUOTATURA
 10
884.013
 11
1274.046
 20
-212.094
 21
126.622
  0
CIRCLE
  8
QUOTATURA
 10
772.738
 20
-308.729
 40
147.379
  0
LINE
  8
APS_GEOMETRY
 10
2529.846
 11
2366.736
 20
841.797
 21
841.797
  0
LINE
  8
APS_GEOMETRY
 10
2366.736
 11
2366.736
 20
841.797
 21
826.797
  0
LINE
  8
APS_GEOMETRY
 10
2366.736
 11
2344.236
 20
826.797
 21
826.797
  0
LINE
  8
APS_GEOMETRY
 10
2344.236
 11
2344.236
 20
826.797
 21
774.297
  0
LINE
  8
APS_GEOMETRY
 10
2344.236
 11
2336.736
 20
774.297
 21
766.797
  0
LINE
  8
APS_GEOMETRY
 10
2336.736
 11
2324.236
 20
766.797
 21
766.797
  0
LINE
  8
APS_GEOMETRY
 10
2324.236
 11
2324.236
 20
766.797
 21
856.797
  0
ARC
  8
APS_GEOMETRY
 10
2344.236
 20
856.797
 40
20.0
 50
90.0
 51
180.0
  0
LINE
  8
APS_GEOMETRY
 10
2344.236
 11
2517.247
 20
876.797
 21
876.797
  0
LINE
  8
APS_GEOMETRY
 10
2456.898
 11
2354.236
 20
221.796
 21
221.796
  0
LINE
  8
APS_GEOMETRY
 10
2354.236
 11
2354.236
 20
221.796
 21
236.796
  0
LINE
  8
APS_GEOMETRY
 10
2354.236
 11
2331.736
 20
236.796
 21
236.796
  0
LINE
  8
APS_GEOMETRY
 10
2331.736
 11
2331.736
 20
236.796
 21
289.296
  0
LINE
  8
APS_GEOMETRY
 10
2331.736
 11
2324.236
 20
289.296
 21
296.796
  0
LINE
  8
APS_GEOMETRY
 10
2324.236
 11
2311.736
 20
296.796
 21
296.796
  0
LINE
  8
APS_GEOMETRY
 10
2311.736
 11
2311.736
 20
296.796
 21
206.796
  0
ARC
  8
APS_GEOMETRY
 10
2331.736
 20
206.796
 40
20.0
 50
180.0
 51
270.0
  0
LINE
  8
APS_GEOMETRY
 10
2331.736
 11
2433.818
 20
186.796
 21
186.796
  0
LINE
  8
COSTRUZIONI
 10
2237.736
 11
2199.236
 20
678.297
 21
678.297
  0
ARC
  8
COSTRUZIONI
 10
2174.236
 20
618.297
 40
65.0
 50
67.38
 51
112.62
  0
LINE
  8
COSTRUZIONI
 10
2149.236
 11
2149.236
 20
678.297
 21
660.797
  0
LINE
  8
COSTRUZIONI
 10
2149.236
 11
2237.736
 20
660.797
 21
660.797
  0
LINE
  8
COSTRUZIONI
 10
2237.736
 11
2237.736
 20
660.797
 21
678.297
  0
LINE
  8
COSTRUZIONI
 10
2236.852
 11
2237.736
 20
660.797
 21
661.681
  0
LINE
  8
COSTRUZIONI
 10
2237.736
 11
2234.2
 20
664.332
 21
660.797
  0
LINE
  8
COSTRUZIONI
 10
2233.317
 11
2237.736
 20
660.797
 21
665.216
  0
LINE
  8
COSTRUZIONI
 10
2237.736
 11
2230.665
 20
667.868
 21
660.797
  0
LINE
  8
COSTRUZIONI
 10
2229.781
 11
2237.736
 20
660.797
 21
668.752
  0
LINE
  8
COSTRUZIONI
 10
2237.736
 11
2227.129
 20
671.403
 21
660.797
  0
LINE
  8
COSTRUZIONI
 10
2226.246
 11
2237.736
 20
660.797
 21
672.287
  0
LINE
  8
COSTRUZIONI
 10
2237.736
 11
2223.594
 20
674.939
 21
660.797
  0
LINE
  8
COSTRUZIONI
 10
2222.71
 11
2237.736
 20
660.797
 21
675.823
  0
LINE
  8
COSTRUZIONI
 10
2237.558
 11
2220.058
 20
678.297
 21
660.797
  0
LINE
  8
COSTRUZIONI
 10
2219.174
 11
2236.674
 20
660.797
 21
678.297
  0
LINE
  8
COSTRUZIONI
 10
2234.023
 11
2216.523
 20
678.297
 21
660.797
  0
LINE
  8
COSTRUZIONI
 10
2215.639
 11
2233.139
 20
660.797
 21
678.297
  0
LINE
  8
COSTRUZIONI
 10
2230.487
 11
2212.987
 20
678.297
 21
660.797
  0
LINE
  8
COSTRUZIONI
 10
2212.103
 11
2229.603
 20
660.797
 21
678.297
  0
LINE
  8
COSTRUZIONI
 10
2226.952
 11
2209.452
 20
678.297
 21
660.797
  0
LINE
  8
COSTRUZIONI
 10
2208.568
 11
2226.068
 20
660.797
 21
678.297
  0
LINE
  8
COSTRUZIONI
 10
2223.416
 11
2205.916
 20
678.297
 21
660.797
  0
LINE
  8
COSTRUZIONI
 10
2205.032
 11
2222.532
 20
660.797
 21
678.297
  0
LINE
  8
COSTRUZIONI
 10
2219.881
 11
2202.381
 20
678.297
 21
660.797
  0
LINE
  8
COSTRUZIONI
 10
2201.497
 11
2218.997
 20
660.797
 21
678.297
  0
LINE
  8
COSTRUZIONI
 10
2216.345
 11
2198.845
 20
678.297
 21
660.797
  0
LINE
  8
COSTRUZIONI
 10
2197.961
 11
2215.461
 20
660.797
 21
678.297
  0
LINE
  8
COSTRUZIONI
 10
2212.81
 11
2195.31
 20
678.297
 21
660.797
  0
LINE
  8
COSTRUZIONI
 10
2194.426
 11
2211.926
 20
660.797
 21
678.297
  0
LINE
  8
COSTRUZIONI
 10
2209.274
 11
2191.774
 20
678.297
 21
660.797
  0
LINE
  8
COSTRUZIONI
 10
2190.89
 11
2208.39
 20
660.797
 21
678.297
  0
LINE
  8
COSTRUZIONI
 10
2205.739
 11
2188.239
 20
678.297
 21
660.797
  0
LINE
  8
COSTRUZIONI
 10
2187.355
 11
2204.855
 20
660.797
 21
678.297
  0
LINE
  8
COSTRUZIONI
 10
2202.203
 11
2184.703
 20
678.297
 21
660.797
  0
LINE
  8
COSTRUZIONI
 10
2183.819
 11
2201.319
 20
660.797
 21
678.297
  0
LINE
  8
COSTRUZIONI
 10
2198.834
 11
2181.167
 20
678.463
 21
660.797
  0
LINE
  8
COSTRUZIONI
 10
2180.284
 11
2198.203
 20
660.797
 21
678.717
  0
LINE
  8
COSTRUZIONI
 10
2196.28
 11
2177.632
 20
679.445
 21
660.797
  0
LINE
  8
COSTRUZIONI
 10
2176.748
 11
2195.627
 20
660.797
 21
679.676
  0
LINE
  8
COSTRUZIONI
 10
2193.634
 11
2174.096
 20
680.335
 21
660.797
  0
LINE
  8
COSTRUZIONI
 10
2173.213
 11
2192.958
 20
660.797
 21
680.542
  0
LINE
  8
COSTRUZIONI
 10
2190.891
 11
2170.561
 20
681.127
 21
660.797
  0
LINE
  8
COSTRUZIONI
 10
2169.677
 11
2190.189
 20
660.797
 21
681.309
  0
LINE
  8
COSTRUZIONI
 10
2188.042
 11
2167.025
 20
681.814
 21
660.797
  0
LINE
  8
COSTRUZIONI
 10
2166.141
 11
2187.313
 20
660.797
 21
681.968
  0
LINE
  8
COSTRUZIONI
 10
2185.079
 11
2163.49
 20
682.386
 21
660.797
  0
LINE
  8
COSTRUZIONI
 10
2162.606
 11
2184.319
 20
660.797
 21
682.51
  0
LINE
  8
COSTRUZIONI
 10
2181.99
 11
2159.954
 20
682.833
 21
660.797
  0
LINE
  8
COSTRUZIONI
 10
2159.07
 11
2181.197
 20
660.797
 21
682.923
  0
LINE
  8
COSTRUZIONI
 10
2178.761
 11
2156.419
 20
683.139
 21
660.797
  0
LINE
  8
COSTRUZIONI
 10
2155.535
 11
2177.93
 20
660.797
 21
683.192
  0
LINE
  8
COSTRUZIONI
 10
2175.373
 11
2152.883
 20
683.287
 21
660.797
  0
LINE
  8
COSTRUZIONI
 10
2151.999
 11
2174.499
 20
660.797
 21
683.296
  0
LINE
  8
COSTRUZIONI
 10
2171.802
 11
2149.348
 20
683.251
 21
660.797
  0
LINE
  8
COSTRUZIONI
 10
2149.236
 11
2170.877
 20
661.569
 21
683.21
  0
LINE
  8
COSTRUZIONI
 10
2168.014
 11
2149.236
 20
682.998
 21
664.221
  0
LINE
  8
COSTRUZIONI
 10
2149.236
 11
2167.027
 20
665.104
 21
682.896
  0
LINE
  8
COSTRUZIONI
 10
2163.959
 11
2149.236
 20
682.479
 21
667.756
  0
LINE
  8
COSTRUZIONI
 10
2149.236
 11
2162.896
 20
668.64
 21
682.3
  0
LINE
  8
COSTRUZIONI
 10
2159.563
 11
2149.236
 20
681.619
 21
671.292
  0
LINE
  8
COSTRUZIONI
 10
2149.236
 11
2158.398
 20
672.176
 21
681.338
  0
LINE
  8
COSTRUZIONI
 10
2154.7
 11
2149.236
 20
680.292
 21
674.827
  0
LINE
  8
COSTRUZIONI
 10
2149.236
 11
2153.387
 20
675.711
 21
679.862
  0
ARC
  8
APS_GEOMETRY
 10
2151.736
 20
655.797
 40
5.0
 50
90.0
 51
180.0
  0
LINE
  8
APS_GEOMETRY
 10
2366.736
 11
2366.736
 20
591.818
 21
236.796
  0
LINE
  8
APS_GEOMETRY
 10
2366.736
 11
2333.236
 20
236.796
 21
236.796
  0
LINE
  8
APS_GEOMETRY
 10
2333.236
 11
2333.236
 20
236.796
 21
306.796
  0
LINE
  8
APS_GEOMETRY
 10
2333.236
 11
2311.736
 20
306.796
 21
306.796
  0
LINE
  8
APS_GEOMETRY
 10
2311.736
 11
2311.736
 20
306.796
 21
236.797
  0
LINE
  8
APS_GEOMETRY
 10
2311.736
 11
2196.736
 20
236.797
 21
236.797
  0
ARC
  8
APS_GEOMETRY
 10
2196.736
 20
286.797
 40
50.0
 50
180.0
 51
270.0
  0
LINE
  8
APS_GEOMETRY
 10
2146.736
 11
2146.736
 20
286.797
 21
655.797
  0
LINE
  8
APS_GEOMETRY
 10
2199.236
 11
2199.236
 20
678.297
 21
811.797
  0
ARC
  8
APS_GEOMETRY
 10
2214.236
 20
811.797
 40
15.0
 50
90.0
 51
180.0
  0
LINE
  8
APS_GEOMETRY
 10
2214.236
 11
2324.236
 20
826.797
 21
826.797
  0
LINE
  8
APS_GEOMETRY
 10
2324.236
 11
2324.236
 20
826.797
 21
756.797
  0
LINE
  8
APS_GEOMETRY
 10
2324.236
 11
2345.736
 20
756.797
 21
756.797
  0
LINE
  8
APS_GEOMETRY
 10
2345.736
 11
2345.736
 20
756.797
 21
826.797
  0
LINE
  8
APS_GEOMETRY
 10
2345.736
 11
2366.736
 20
826.797
 21
826.797
  0
LINE
  8
APS_GEOMETRY
 10
2366.736
 11
2366.736
 20
826.797
 21
236.796
  0
ARC
  8
APS_GEOMETRY
 10
1679.236
 20
691.797
 40
15.0
 50
180.0
 51
270.0
  0
LINE
  8
APS_GEOMETRY
 10
1664.236
 11
1664.236
 20
691.797
 21
728.047
  0
LINE
  8
APS_GEOMETRY
 10
1664.236
 11
1669.236
 20
728.047
 21
733.047
  0
LINE
  8
APS_GEOMETRY
 10
1669.236
 11
1744.236
 20
733.047
 21
733.047
  0
LINE
  8
APS_GEOMETRY
 10
1744.236
 11
1744.236
 20
733.047
 21
845.547
  0
LINE
  8
APS_GEOMETRY
 10
1744.236
 11
1669.236
 20
845.547
 21
845.547
  0
LINE
  8
APS_GEOMETRY
 10
1669.236
 11
1664.236
 20
845.547
 21
850.547
  0
LINE
  8
APS_GEOMETRY
 10
1664.236
 11
1664.236
 20
850.547
 21
886.797
  0
ARC
  8
APS_GEOMETRY
 10
1679.236
 20
886.797
 40
15.0
 50
90.0
 51
180.0
  0
LINE
  8
APS_GEOMETRY
 10
1679.236
 11
2209.236
 20
901.797
 21
901.797
  0
ARC
  8
APS_GEOMETRY
 10
2209.236
 20
876.797
 40
25.0
 50
360.0
 51
90.0
  0
LINE
  8
APS_GEOMETRY
 10
2234.236
 11
2234.236
 20
876.797
 21
836.797
  0
ARC
  8
APS_GEOMETRY
 10
2224.236
 20
836.797
 40
10.0
 50
270.0
 51
360.0
  0
LINE
  8
APS_GEOMETRY
 10
2224.236
 11
2184.236
 20
826.797
 21
826.797
  0
LINE
  8
APS_GEOMETRY
 10
2184.236
 11
2184.236
 20
826.797
 21
691.797
  0
ARC
  8
APS_GEOMETRY
 10
2169.236
 20
691.797
 40
15.0
 50
270.0
 51
360.0
  0
LINE
  8
APS_GEOMETRY
 10
2169.236
 11
1679.236
 20
676.797
 21
676.797
  0
LINE
  8
COSTRUZIONI
 10
2374.236
 11
2374.236
 20
826.797
 21
236.796
  0
LINE
  8
COSTRUZIONI
 10
2474.236
 11
2474.236
 20
826.797
 21
251.3
  0
LINE
  8
COSTRUZIONI
 10
2374.236
 11
2534.644
 20
826.797
 21
826.797
  0
LINE
  8
COSTRUZIONI
 10
2374.236
 11
2465.943
 20
236.796
 21
236.796
  0
LINE
  8
COSTRUZIONI
 10
2472.349
 11
2374.236
 20
247.931
 21
826.797
  0
LINE
  8
COSTRUZIONI
 10
2474.236
 11
2374.236
 20
826.797
 21
236.796
  0
LINE
  8
APS_GEOMETRY
 10
1110.622
 11
1492.986
 20
711.797
 21
711.797
  0
ARC
  8
APS_GEOMETRY
 10
1492.986
 20
733.047
 40
21.25
 50
270.0
 51
360.0
  0
LINE
  8
APS_GEOMETRY
 10
1514.236
 11
1514.236
 20
733.047
 21
733.047
  0
LINE
  8
APS_GEOMETRY
 10
1514.236
 11
1739.236
 20
733.047
 21
733.047
  0
LINE
  8
APS_GEOMETRY
 10
1739.236
 11
1739.236
 20
733.047
 21
843.047
  0
LINE
  8
APS_GEOMETRY
 10
1739.236
 11
1514.236
 20
843.047
 21
843.047
  0
ARC
  8
APS_GEOMETRY
 10
1492.986
 20
843.047
 40
21.25
 50
0.0
 51
90.0
  0
LINE
  8
APS_GEOMETRY
 10
1492.986
 11
1148.872
 20
864.297
 21
864.297
  0
ARC
  8
QUOTATURA
 10
1732.609
 20
-153.898
 40
12.331
 50
42.904
 51
122.546
  0
ARC
  8
QUOTATURA
 10
1729.444
 20
-148.782
 40
6.317
 50
123.307
 51
253.426
  0
LINE
  8
QUOTATURA
 10
1727.642
 11
1737.642
 20
-154.837
 21
-158.17
  0
ARC
  8
QUOTATURA
 10
1735.606
 20
-164.629
 40
6.772
 50
299.838
 51
72.504
  0
ARC
  8
QUOTATURA
 10
1732.476
 20
-159.234
 40
13.01
 50
240.023
 51
299.974
  0
ARC
  8
QUOTATURA
 10
1729.532
 20
-164.278
 40
7.17
 50
209.759
 51
240.255
  0
ARC
  8
QUOTATURA
 10
1753.242
 20
-157.076
 40
18.236
 50
31.027
 51
40.045
  0
ARC
  8
QUOTATURA
 10
1759.536
 20
-151.482
 40
9.822
 50
38.687
 51
141.312
  0
ARC
  8
QUOTATURA
 10
1766.06
 20
-156.843
 40
18.265
 50
140.979
 51
219.022
  0
ARC
  8
QUOTATURA
 10
1759.536
 20
-162.203
 40
9.822
 50
218.688
 51
321.313
  0
ARC
  8
QUOTATURA
 10
1753.129
 20
-157.632
 40
17.685
 50
322.727
 51
335.346
  0
LINE
  8
QUOTATURA
 10
1779.104
 11
1797.437
 20
-163.037
 21
-163.037
  0
LINE
  8
QUOTATURA
 10
1775.437
 11
1787.104
 20
-172.098
 21
-142.098
  0
LINE
  8
QUOTATURA
 10
1787.104
 11
1789.77
 20
-142.098
 21
-142.098
  0
LINE
  8
QUOTATURA
 10
1789.77
 11
1800.77
 20
-142.098
 21
-172.098
  0
LINE
  8
QUOTATURA
 10
1806.77
 11
1806.77
 20
-142.098
 21
-172.098
  0
LINE
  8
QUOTATURA
 10
1806.77
 11
1826.77
 20
-172.098
 21
-172.098
  0
LINE
  8
QUOTATURA
 10
1836.437
 11
1854.77
 20
-163.037
 21
-163.037
  0
LINE
  8
QUOTATURA
 10
1832.77
 11
1844.437
 20
-172.098
 21
-142.098
  0
LINE
  8
QUOTATURA
 10
1844.437
 11
1847.104
 20
-142.098
 21
-142.098
  0
LINE
  8
QUOTATURA
 10
1847.104
 11
1858.104
 20
-142.098
 21
-172.098
  0
ARC
  8
QUOTATURA
 10
1903.032
 20
-161.095
 40
11.194
 50
202.727
 51
247.273
  0
ARC
  8
QUOTATURA
 10
1903.207
 20
-160.89
 40
11.451
 50
246.86
 51
293.141
  0
ARC
  8
QUOTATURA
 10
1903.45
 20
-161.351
 40
10.932
 50
292.922
 51
357.893
  0
ARC
  8
QUOTATURA
 10
1904.532
 20
-161.408
 40
9.848
 50
357.993
 51
71.191
  0
ARC
  8
QUOTATURA
 10
1903.207
 20
-165.322
 40
13.979
 50
71.219
 51
108.775
  0
ARC
  8
QUOTATURA
 10
1902.322
 20
-162.924
 40
11.424
 50
108.444
 51
138.941
  0
LINE
  8
QUOTATURA
 10
1893.707
 11
1896.041
 20
-155.42
 21
-142.086
  0
LINE
  8
QUOTATURA
 10
1896.041
 11
1911.041
 20
-142.086
 21
-142.086
  0
LINE
  8
QUOTATURA
 10
1921.777
 11
1920.277
 20
-157.717
 21
-157.717
  0
LINE
  8
QUOTATURA
 10
1920.277
 11
1920.277
 20
-157.717
 21
-156.217
  0
LINE
  8
QUOTATURA
 10
1920.277
 11
1921.777
 20
-156.217
 21
-156.217
  0
LINE
  8
QUOTATURA
 10
1921.777
 11
1921.777
 20
-156.217
 21
-157.717
  0
LINE
  8
QUOTATURA
 10
1921.777
 11
1920.277
 20
-165.16
 21
-165.16
  0
LINE
  8
QUOTATURA
 10
1920.277
 11
1920.277
 20
-165.16
 21
-163.66
  0
LINE
  8
QUOTATURA
 10
1920.277
 11
1921.777
 20
-163.66
 21
-163.66
  0
LINE
  8
QUOTATURA
 10
1921.777
 11
1921.777
 20
-163.66
 21
-165.16
  0
LINE
  8
QUOTATURA
 10
1927.777
 11
1932.923
 20
-172.098
 21
-172.098
  0
LINE
  8
QUOTATURA
 10
1932.923
 11
1938.07
 20
-172.098
 21
-172.098
  0
LINE
  8
QUOTATURA
 10
1932.923
 11
1932.923
 20
-172.098
 21
-142.098
  0
LINE
  8
QUOTATURA
 10
1932.923
 11
1927.777
 20
-142.098
 21
-147.245
  0
LINE
  8
QUOTATURA
 10
1744.236
 11
1820.108
 20
845.547
 21
845.547
  0
LINE
  8
QUOTATURA
 10
1744.236
 11
1820.108
 20
733.047
 21
733.047
  0
LINE
  8
QUOTATURA
 10
1820.108
 11
1820.108
 20
845.547
 21
811.892
  0
LINE
  8
QUOTATURA
 10
1820.108
 11
1820.108
 20
766.554
 21
733.047
  0
LINE
  8
QUOTATURA
 10
1815.107
 11
1820.108
 20
815.547
 21
845.547
  0
LINE
  8
QUOTATURA
 10
1820.108
 11
1825.109
 20
845.547
 21
815.547
  0
LINE
  8
QUOTATURA
 10
1825.109
 11
1815.107
 20
815.547
 21
815.547
  0
LINE
  8
QUOTATURA
 10
1825.109
 11
1820.108
 20
763.047
 21
733.047
  0
LINE
  8
QUOTATURA
 10
1820.108
 11
1815.107
 20
733.047
 21
763.047
  0
LINE
  8
QUOTATURA
 10
1815.107
 11
1825.109
 20
763.047
 21
763.047
  0
LINE
  8
QUOTATURA
 10
1944.236
 11
1965.703
 20
901.797
 21
901.797
  0
LINE
  8
QUOTATURA
 10
1924.236
 11
1965.703
 20
676.797
 21
676.797
  0
LINE
  8
QUOTATURA
 10
1965.703
 11
1965.703
 20
901.797
 21
811.809
  0
LINE
  8
QUOTATURA
 10
1965.703
 11
1965.703
 20
766.554
 21
676.797
  0
LINE
  8
QUOTATURA
 10
1960.702
 11
1965.703
 20
871.797
 21
901.797
  0
LINE
  8
QUOTATURA
 10
1965.703
 11
1970.704
 20
901.797
 21
871.797
  0
LINE
  8
QUOTATURA
 10
1970.704
 11
1960.702
 20
871.797
 21
871.797
  0
LINE
  8
QUOTATURA
 10
1970.704
 11
1965.703
 20
706.797
 21
676.797
  0
LINE
  8
QUOTATURA
 10
1965.703
 11
1960.702
 20
676.797
 21
706.797
  0
LINE
  8
QUOTATURA
 10
1960.702
 11
1970.704
 20
706.797
 21
706.797
  0
LINE
  8
QUOTATURA
 10
1291.804
 11
1254.689
 20
711.797
 21
711.797
  0
LINE
  8
QUOTATURA
 10
1310.929
 11
1254.689
 20
864.297
 21
864.297
  0
LINE
  8
QUOTATURA
 10
1254.689
 11
1254.689
 20
711.797
 21
765.181
  0
LINE
  8
QUOTATURA
 10
1254.689
 11
1254.689
 20
810.642
 21
864.297
  0
LINE
  8
QUOTATURA
 10
1259.69
 11
1254.689
 20
741.797
 21
711.797
  0
LINE
  8
QUOTATURA
 10
1254.689
 11
1249.688
 20
711.797
 21
741.797
  0
LINE
  8
QUOTATURA
 10
1249.688
 11
1259.69
 20
741.797
 21
741.797
  0
LINE
  8
QUOTATURA
 10
1249.688
 11
1254.689
 20
834.297
 21
864.297
  0
LINE
  8
QUOTATURA
 10
1254.689
 11
1259.69
 20
864.297
 21
834.297
  0
LINE
  8
QUOTATURA
 10
1259.69
 11
1249.688
 20
834.297
 21
834.297
  0
LINE
  8
QUOTATURA
 10
1514.236
 11
1567.783
 20
733.047
 21
733.047
  0
LINE
  8
QUOTATURA
 10
1514.236
 11
1567.783
 20
843.047
 21
843.047
  0
LINE
  8
QUOTATURA
 10
1567.783
 11
1567.783
 20
733.047
 21
765.547
  0
LINE
  8
QUOTATURA
 10
1567.783
 11
1567.783
 20
810.642
 21
843.047
  0
LINE
  8
QUOTATURA
 10
1572.784
 11
1567.783
 20
763.047
 21
733.047
  0
LINE
  8
QUOTATURA
 10
1567.783
 11
1562.782
 20
733.047
 21
763.047
  0
LINE
  8
QUOTATURA
 10
1562.782
 11
1572.784
 20
763.047
 21
763.047
  0
LINE
  8
QUOTATURA
 10
1562.782
 11
1567.783
 20
813.047
 21
843.047
  0
LINE
  8
QUOTATURA
 10
1567.783
 11
1572.784
 20
843.047
 21
813.047
  0
LINE
  8
QUOTATURA
 10
1572.784
 11
1562.782
 20
813.047
 21
813.047
  0
LINE
  8
QUOTATURA
 10
1664.236
 11
1664.236
 20
886.797
 21
1034.717
  0
LINE
  8
QUOTATURA
 10
2234.236
 11
2234.236
 20
876.797
 21
1034.717
  0
LINE
  8
QUOTATURA
 10
1664.236
 11
1912.494
 20
1034.717
 21
1034.717
  0
LINE
  8
QUOTATURA
 10
1985.978
 11
2234.236
 20
1034.717
 21
1034.717
  0
LINE
  8
QUOTATURA
 10
1694.236
 11
1664.236
 20
1029.716
 21
1034.717
  0
LINE
  8
QUOTATURA
 10
1664.236
 11
1694.236
 20
1034.717
 21
1039.718
  0
LINE
  8
QUOTATURA
 10
1694.236
 11
1694.236
 20
1039.718
 21
1029.716
  0
LINE
  8
QUOTATURA
 10
2204.236
 11
2234.236
 20
1039.718
 21
1034.717
  0
LINE
  8
QUOTATURA
 10
2234.236
 11
2204.236
 20
1034.717
 21
1029.716
  0
LINE
  8
QUOTATURA
 10
2204.236
 11
2204.236
 20
1029.716
 21
1039.718
  0
LINE
  8
QUOTATURA
 10
1669.236
 11
1703.798
 20
845.547
 21
845.547
  0
LINE
  8
QUOTATURA
 10
1679.236
 11
1703.798
 20
901.797
 21
901.797
  0
LINE
  8
QUOTATURA
 10
1703.798
 11
1703.798
 20
901.797
 21
982.553
  0
LINE
  8
QUOTATURA
 10
1703.798
 11
1739.555
 20
982.553
 21
982.553
  0
LINE
  8
QUOTATURA
 10
1708.799
 11
1703.798
 20
931.797
 21
901.797
  0
LINE
  8
QUOTATURA
 10
1703.798
 11
1698.797
 20
901.797
 21
931.797
  0
LINE
  8
QUOTATURA
 10
1698.797
 11
1708.799
 20
931.797
 21
931.797
  0
LINE
  8
QUOTATURA
 10
1703.798
 11
1703.798
 20
845.547
 21
785.547
  0
LINE
  8
QUOTATURA
 10
1698.797
 11
1703.798
 20
815.547
 21
845.547
  0
LINE
  8
QUOTATURA
 10
1703.798
 11
1708.799
 20
845.547
 21
815.547
  0
LINE
  8
QUOTATURA
 10
1708.799
 11
1698.797
 20
815.547
 21
815.547
  0
LINE
  8
QUOTATURA
 10
1664.236
 11
1708.86
 20
733.047
 21
733.047
  0
LINE
  8
QUOTATURA
 10
1664.236
 11
1708.86
 20
676.797
 21
676.797
  0
LINE
  8
QUOTATURA
 10
1708.86
 11
1708.86
 20
676.797
 21
606.794
  0
LINE
  8
QUOTATURA
 10
1708.86
 11
1751.368
 20
606.794
 21
606.794
  0
LINE
  8
QUOTATURA
 10
1703.859
 11
1708.86
 20
646.797
 21
676.797
  0
LINE
  8
QUOTATURA
 10
1708.86
 11
1713.861
 20
676.797
 21
646.797
  0
LINE
  8
QUOTATURA
 10
1713.861
 11
1703.859
 20
646.797
 21
646.797
  0
LINE
  8
QUOTATURA
 10
1708.86
 11
1708.86
 20
733.047
 21
793.047
  0
LINE
  8
QUOTATURA
 10
1713.861
 11
1708.86
 20
763.047
 21
733.047
  0
LINE
  8
QUOTATURA
 10
1708.86
 11
1703.859
 20
733.047
 21
763.047
  0
LINE
  8
QUOTATURA
 10
1703.859
 11
1713.861
 20
763.047
 21
763.047
  0
LINE
  8
APS_GEOMETRY
 10
-304.128
 11
-304.128
 20
1702.0
 21
1965.25
  0
ARC
  8
APS_GEOMETRY
 10
-308.378
 20
1965.25
 40
4.25
 50
360.0
 51
90.0
  0
LINE
  8
APS_GEOMETRY
 10
-308.378
 11
-308.378
 20
1969.5
 21
2014.5
  0
LINE
  8
APS_GEOMETRY
 10
-308.378
 11
-330.378
 20
2014.5
 21
2014.5
  0
LINE
  8
APS_GEOMETRY
 10
-330.378
 11
-330.378
 20
2014.5
 21
1969.5
  0
LINE
  8
APS_GEOMETRY
 10
-330.378
 11
-330.378
 20
1969.5
 21
1969.5
  0
ARC
  8
APS_GEOMETRY
 10
-330.378
 20
1965.25
 40
4.25
 50
90.0
 51
180.0
  0
LINE
  8
APS_GEOMETRY
 10
-334.628
 11
-334.628
 20
1965.25
 21
829.75
  0
ARC
  8
APS_GEOMETRY
 10
-330.378
 20
829.75
 40
4.25
 50
180.0
 51
270.0
  0
LINE
  8
APS_GEOMETRY
 10
-330.378
 11
-330.378
 20
825.5
 21
825.5
  0
LINE
  8
APS_GEOMETRY
 10
-330.378
 11
-330.378
 20
825.5
 21
780.5
  0
LINE
  8
APS_GEOMETRY
 10
-330.378
 11
-308.378
 20
780.5
 21
780.5
  0
LINE
  8
APS_GEOMETRY
 10
-308.378
 11
-308.378
 20
780.5
 21
825.5
  0
ARC
  8
APS_GEOMETRY
 10
-308.378
 20
829.75
 40
4.25
 50
270.0
 51
360.0
  0
LINE
  8
APS_GEOMETRY
 10
-304.128
 11
-304.128
 20
829.75
 21
1700.0
  0
ARC
  8
APS_GEOMETRY
 10
-330.378
 20
214.75
 40
4.25
 50
180.0
 51
270.0
  0
LINE
  8
APS_GEOMETRY
 10
-330.378
 11
-330.378
 20
210.5
 21
210.5
  0
LINE
  8
APS_GEOMETRY
 10
-330.378
 11
-330.378
 20
210.5
 21
165.5
  0
LINE
  8
APS_GEOMETRY
 10
-330.378
 11
-308.378
 20
165.5
 21
165.5
  0
LINE
  8
APS_GEOMETRY
 10
-308.378
 11
-308.378
 20
165.5
 21
210.5
  0
ARC
  8
APS_GEOMETRY
 10
-308.378
 20
214.75
 40
4.25
 50
270.0
 51
360.0
  0
ARC
  8
APS_GEOMETRY
 10
-308.378
 20
647.25
 40
4.25
 50
360.0
 51
90.0
  0
LINE
  8
APS_GEOMETRY
 10
-308.378
 11
-308.378
 20
651.5
 21
651.5
  0
LINE
  8
APS_GEOMETRY
 10
-308.378
 11
-308.378
 20
651.5
 21
696.5
  0
LINE
  8
APS_GEOMETRY
 10
-308.378
 11
-330.378
 20
696.5
 21
696.5
  0
LINE
  8
APS_GEOMETRY
 10
-330.378
 11
-330.378
 20
696.5
 21
651.5
  0
ARC
  8
APS_GEOMETRY
 10
-330.378
 20
647.25
 40
4.25
 50
90.0
 51
180.0
  0
LINE
  8
APS_GEOMETRY
 10
-334.628
 11
-334.628
 20
647.25
 21
214.75
  0
LINE
  8
APS_GEOMETRY
 10
-304.128
 11
-304.128
 20
647.25
 21
214.75
  0
LINE
  8
QUOTATURA
 10
1664.236
 11
1664.236
 20
843.047
 21
965.615
  0
LINE
  8
QUOTATURA
 10
1514.236
 11
1514.236
 20
843.047
 21
965.615
  0
LINE
  8
QUOTATURA
 10
1664.236
 11
1621.914
 20
965.615
 21
965.615
  0
LINE
  8
QUOTATURA
 10
1556.558
 11
1514.236
 20
965.615
 21
965.615
  0
LINE
  8
QUOTATURA
 10
1634.236
 11
1664.236
 20
970.616
 21
965.615
  0
LINE
  8
QUOTATURA
 10
1664.236
 11
1634.236
 20
965.615
 21
960.614
  0
LINE
  8
QUOTATURA
 10
1634.236
 11
1634.236
 20
960.614
 21
970.616
  0
LINE
  8
QUOTATURA
 10
1544.236
 11
1514.236
 20
960.614
 21
965.615
  0
LINE
  8
QUOTATURA
 10
1514.236
 11
1544.236
 20
965.615
 21
970.616
  0
LINE
  8
QUOTATURA
 10
1544.236
 11
1544.236
 20
970.616
 21
960.614
  0
TEXT
  8
TEXT
 10
963.665
 20
663.882
 30
0.0
 40
30.0
 50
0.0
  1
SE
  0
TEXT
  8
TEXT
 10
1014.916
 20
663.882
 30
0.0
 40
30.0
 50
0.0
  1
Z-B
  0
TEXT
  8
TEXT
 10
375.127
 20
-97.779
 30
0.0
 40
30.0
 50
0.0
  1
SEZ-A
  0
TEXT
  8
TEXT
 10
1603.788
 20
121.336
 30
0.0
 40
200.0
 50
0.0
  1
D1
  0
TEXT
  8
TEXT
 10
1310.294
 20
-746.309
 30
0.0
 40
20.0
 50
0.0
  1
B.Stefano
  0
TEXT
  8
TEXT
 10
-126.904
 20
-623.543
 30
0.0
 40
15.0
 50
0.0
  1
file:
  0
TEXT
  8
TEXT
 10
1210.315
 20
-623.853
 30
0.0
 40
15.0
 50
0.0
  1
data:
  0
TEXT
  8
TEXT
 10
1323.851
 20
-643.653
 30
0.0
 40
20.0
 50
0.0
  1
18/03/16
  0
TEXT
  8
TEXT
 10
1324.871
 20
-800.127
 30
0.0
 40
20.0
 50
0.0
  1
1 : 10(A1)
  0
TEXT
  8
TEXT
 10
1208.451
 20
-721.468
 30
0.0
 40
15.0
 50
0.0
  1
responsabile tecnico:
  0
TEXT
  8
TEXT
 10
1210.506
 20
-773.851
 30
0.0
 40
15.0
 50
0.0
  1
scala:
  0
TEXT
  8
TEXT
 10
-588.942
 20
-624.141
 30
0.0
 40
15.0
 50
0.0
  1
Ufficio tecnico:
  0
TEXT
  8
TEXT
 10
-589.94
 20
-696.862
 30
0.0
 40
20.0
 50
0.0
  1
tel. 0577-68.54.26
  0
TEXT
  8
TEXT
 10
-589.94
 20
-726.862
 30
0.0
 40
20.0
 50
0.0
  1
fax 0577-68.64.29
  0
TEXT
  8
TEXT
 10
-589.94
 20
-756.862
 30
0.0
 40
20.0
 50
0.0
  1
e-mail: tecnico@toscocornici.it
  0
TEXT
  8
TEXT
 10
-589.94
 20
-786.862
 30
0.0
 40
20.0
 50
0.0
  1
web: www.tosococornici.it
  0
TEXT
  8
TEXT
 10
-80.058
 20
-644.126
 30
0.0
 40
20.0
 50
0.0
  1
MOD.BASE-T3-BUGNA-PIANA-P4-MM30,5
  0
TEXT
  8
TEXT
 10
-126.904
 20
-673.543
 30
0.0
 40
15.0
 50
0.0
  1
pezzo:
  0
TEXT
  8
TEXT
 10
-80.058
 20
-694.126
 30
0.0
 40
20.0
 50
0.0
  1
PEZZO
  0
TEXT
  8
TEXT
 10
-126.904
 20
-723.543
 30
0.0
 40
20.0
 50
0.0
  1
firma per accettazione / must sign in acceptance
  0
TEXT
  8
TEXT
 10
407.245
 20
-673.543
 30
0.0
 40
15.0
 50
0.0
  1
lotto:
  0
TEXT
  8
TEXT
 10
455.295
 20
-694.126
 30
0.0
 40
20.0
 50
0.0
  1
________
  0
TEXT
  8
TEXT
 10
907.245
 20
-673.543
 30
0.0
 40
15.0
 50
0.0
  1
ordine:
  0
TEXT
  8
TEXT
 10
961.334
 20
-694.126
 30
0.0
 40
20.0
 50
0.0
  1
-----
  0
TEXT
  8
TEXT
 10
1208.353
 20
-673.543
 30
0.0
 40
15.0
 50
0.0
  1
pos:
  0
TEXT
  8
TEXT
 10
1252.768
 20
-694.126
 30
0.0
 40
20.0
 50
0.0
  1
_______
  0
TEXT
  8
TEXT
 10
-96.208
 20
-794.605
 30
0.0
 40
20.0
 50
0.0
  1
__________________________________________________________________
  0
TEXT
  8
QUOTATURA
 10
249.807
 20
-559.648
 30
0.0
 40
30.0
 50
0.0
  1
EST. TELAIO=880
  0
TEXT
  8
TEXT
 10
299.719
 20
-358.353
 30
0.0
 40
30.0
 50
0.0
  1
SEZ.B
  0
TEXT
  8
QUOTATURA
 10
333.898
 20
-180.658
 30
0.0
 40
30.0
 50
0.0
  1
ANTA=827
  0
TEXT
  8
QUOTATURA
 10
-430.946
 20
870.871
 30
0.0
 40
30.0
 50
90.0
  1
EST. TELAIO=2140
  0
TEXT
  8
TEXT
 10
735.349
 20
-362.305
 30
0.0
 40
40.0
 50
0.0
  1
D1
  0
TEXT
  8
QUOTATURA
 10
-121.071
 20
944.474
 30
0.0
 40
30.0
 50
90.0
  1
ANTA=2109
  0
TEXT
  8
QUOTATURA
 10
-259.778
 20
328.0
 30
0.0
 40
30.0
 50
0.0
  1
677
  0
TEXT
  8
QUOTATURA
 10
1777.22
 20
774.297
 30
0.0
 40
30.0
 50
0.0
  1
22.5
  0
TEXT
  8
QUOTATURA
 10
1938.866
 20
774.297
 30
0.0
 40
30.0
 50
0.0
  1
45
  0
TEXT
  8
QUOTATURA
 10
1208.873
 20
773.047
 30
0.0
 40
30.0
 50
0.0
  1
30.5
  0
TEXT
  8
QUOTATURA
 10
1919.994
 20
1019.717
 30
0.0
 40
30.0
 50
0.0
  1
114
  0
TEXT
  8
QUOTATURA
 10
1747.055
 20
967.553
 30
0.0
 40
30.0
 50
0.0
  1
11.25
  0
TEXT
  8
QUOTATURA
 10
1758.868
 20
591.794
 30
0.0
 40
30.0
 50
0.0
  1
11.25
  0
TEXT
  8
QUOTATURA
 10
1563.254
 20
950.615
 30
0.0
 40
30.0
 50
0.0
  1
30
  0
TEXT
  8
QUOTATURA
 10
1544.783
 20
773.047
 30
0.0
 40
30.0
 50
0.0
  1
22
  0
ENDSEC
  0
EOF
