  0
SECTION
  2
ENTITIES
  0
LINE
  8
APS_GEOMETRY
 10
440.0
 11
440.0
 20
1991.5
 21
238.5
  0
ARC
  8
APS_GEOMETRY
 10
2667.814605
 20
1080.996736
 40
25.0
 50
90.0
 51
270.0
  0
ARC
  8
APS_GEOMETRY
 10
2667.814605
 20
1080.996736
 40
25.0
 50
270.0
 51
336.421822
  0
ARC
  8
APS_GEOMETRY
 10
2667.814605
 20
1080.996736
 40
25.0
 50
23.578178
 51
90.0
  0
ARC
  8
APS_GEOMETRY
 10
2667.814605
 20
980.996736
 40
7.0
 50
180.0
 51
0.0
  0
LINE
  8
APS_GEOMETRY
 10
2660.814605
 11
2660.814605
 20
980.996736
 21
991.996736
  0
ARC
  8
APS_GEOMETRY
 10
2667.814605
 20
991.996736
 40
7.0
 50
0.0
 51
180.0
  0
LINE
  8
APS_GEOMETRY
 10
2674.814605
 11
2674.814605
 20
991.996736
 21
980.996736
  0
LINE
  8
APS_GEOMETRY
 10
3320.814605
 11
3320.814605
 20
274.996736
 21
2027.996736
  0
ARC
  8
APS_GEOMETRY
 10
3320.814605
 20
2031.996736
 40
4.0
 50
270.0
 51
90.0
  0
ARC
  8
APS_GEOMETRY
 10
3316.814605
 20
2035.996736
 40
4.0
 50
0.0
 51
180.0
  0
LINE
  8
APS_GEOMETRY
 10
3312.814605
 11
2729.814605
 20
2035.996736
 21
2035.996736
  0
ARC
  8
APS_GEOMETRY
 10
2725.814605
 20
2035.996736
 40
4.0
 50
0.0
 51
180.0
  0
ARC
  8
APS_GEOMETRY
 10
2721.814605
 20
2031.996736
 40
4.0
 50
90.0
 51
270.0
  0
LINE
  8
APS_GEOMETRY
 10
2721.814605
 11
2721.814605
 20
2027.996736
 21
274.996736
  0
ARC
  8
APS_GEOMETRY
 10
2721.814605
 20
270.996736
 40
4.0
 50
90.0
 51
270.0
  0
ARC
  8
APS_GEOMETRY
 10
2725.814605
 20
266.996736
 40
4.0
 50
180.0
 51
0.0
  0
LINE
  8
APS_GEOMETRY
 10
2729.814605
 11
3312.814605
 20
266.996736
 21
266.996736
  0
ARC
  8
APS_GEOMETRY
 10
3316.814605
 20
266.996736
 40
4.0
 50
180.0
 51
0.0
  0
ARC
  8
APS_GEOMETRY
 10
3320.814605
 20
270.996736
 40
4.0
 50
270.0
 51
90.0
  0
LINE
  8
APS_GEOMETRY
 10
3312.814605
 11
2729.814605
 20
274.996736
 21
274.996736
  0
LINE
  8
APS_GEOMETRY
 10
2729.814605
 11
2729.814605
 20
274.996736
 21
2027.996736
  0
LINE
  8
APS_GEOMETRY
 10
2729.814605
 11
3312.814605
 20
2027.996736
 21
2027.996736
  0
LINE
  8
APS_GEOMETRY
 10
3312.814605
 11
3312.814605
 20
2027.996736
 21
274.996736
  0
ARC
  8
APS_GEOMETRY
 10
3018.137486
 20
875.811256
 40
127.66192
 50
243.091653
 51
271.426066
  0
ARC
  8
APS_GEOMETRY
 10
2969.435774
 20
779.849588
 40
20.049195
 50
214.931441
 51
243.091653
  0
ARC
  8
APS_GEOMETRY
 10
2952.59573
 20
775.357381
 40
6.999488
 50
273.300308
 51
47.035432
  0
ARC
  8
APS_GEOMETRY
 10
2951.798814
 20
774.501732
 40
8.168766
 50
47.035432
 51
133.283638
  0
ARC
  8
APS_GEOMETRY
 10
2938.479039
 20
773.721115
 40
10.239204
 50
41.071956
 51
48.226607
  0
ARC
  8
APS_GEOMETRY
 10
2940.455863
 20
775.93414
 40
7.27183
 50
48.226607
 51
151.625884
  0
ARC
  8
APS_GEOMETRY
 10
2940.280664
 20
776.028767
 40
7.072709
 50
151.625884
 51
241.153196
  0
ARC
  8
APS_GEOMETRY
 10
2921.184635
 20
796.884259
 40
31.268363
 50
242.017071
 51
300.104752
  0
ARC
  8
APS_GEOMETRY
 10
2917.525071
 20
789.996669
 40
23.468921
 50
206.243074
 51
242.017071
  0
ARC
  8
APS_GEOMETRY
 10
2854.273957
 20
719.812646
 40
73.19675
 50
54.792095
 51
98.111552
  0
ARC
  8
APS_GEOMETRY
 10
2856.689394
 20
702.865399
 40
90.315264
 50
98.111552
 51
186.058792
  0
ARC
  8
APS_GEOMETRY
 10
2822.54086
 20
699.240812
 40
55.974909
 50
186.058792
 51
200.752565
  0
ARC
  8
APS_GEOMETRY
 10
2789.291641
 20
686.642108
 40
20.418786
 50
200.752565
 51
263.184392
  0
ARC
  8
APS_GEOMETRY
 10
2787.202585
 20
657.492559
 40
8.881346
 50
92.15608
 51
137.690238
  0
ARC
  8
APS_GEOMETRY
 10
2788.475927
 20
656.33351
 40
10.603204
 50
137.690238
 51
200.448867
  0
ARC
  8
APS_GEOMETRY
 10
2784.190309
 20
654.735541
 40
6.029362
 50
200.448867
 51
343.816183
  0
ARC
  8
APS_GEOMETRY
 10
2719.945735
 20
656.785302
 40
70.134279
 50
319.02084
 51
356.951145
  0
ARC
  8
APS_GEOMETRY
 10
2798.61176
 20
588.452189
 40
34.066286
 50
139.02084
 51
162.027382
  0
ARC
  8
APS_GEOMETRY
 10
2814.154793
 20
583.410162
 40
50.406664
 50
162.027382
 51
193.948332
  0
ARC
  8
APS_GEOMETRY
 10
2780.000223
 20
574.927179
 40
15.214396
 50
193.948332
 51
226.617191
  0
ARC
  8
APS_GEOMETRY
 10
2775.650244
 20
570.32444
 40
8.881346
 50
226.617191
 51
244.277249
  0
LINE
  8
APS_GEOMETRY
 10
2771.79559
 11
2771.79559
 20
562.323193
 21
386.495553
  0
ARC
  8
APS_GEOMETRY
 10
2771.166309
 20
375.563663
 40
10.949987
 50
86.705474
 51
158.685185
  0
ARC
  8
APS_GEOMETRY
 10
2805.560344
 20
362.143743
 40
47.869411
 50
158.685185
 51
204.816524
  0
ARC
  8
APS_GEOMETRY
 10
2766.816651
 20
344.228083
 40
5.183996
 50
204.816524
 51
323.633874
  0
ARC
  8
APS_GEOMETRY
 10
2801.819697
 20
343.724775
 40
30.935641
 50
184.76632
 51
206.285984
  0
ARC
  8
APS_GEOMETRY
 10
2801.224602
 20
343.430842
 40
30.271913
 50
206.285984
 51
247.784085
  0
ARC
  8
APS_GEOMETRY
 10
2807.270894
 20
358.235072
 40
46.263251
 50
247.784085
 51
296.952282
  0
LINE
  8
APS_GEOMETRY
 10
2828.239633
 11
3214.389577
 20
316.996736
 21
316.996736
  0
ARC
  8
APS_GEOMETRY
 10
3235.358317
 20
358.235072
 40
46.263251
 50
243.047718
 51
292.215915
  0
ARC
  8
APS_GEOMETRY
 10
3241.404609
 20
343.430842
 40
30.271913
 50
292.215915
 51
333.714016
  0
ARC
  8
APS_GEOMETRY
 10
3240.809513
 20
343.724775
 40
30.935641
 50
333.714016
 51
355.23368
  0
ARC
  8
APS_GEOMETRY
 10
3275.81256
 20
344.228083
 40
5.183996
 50
216.366126
 51
335.183476
  0
ARC
  8
APS_GEOMETRY
 10
3237.068867
 20
362.143743
 40
47.869411
 50
335.183476
 51
21.314815
  0
ARC
  8
APS_GEOMETRY
 10
3271.462901
 20
375.563663
 40
10.949987
 50
21.314815
 51
93.294526
  0
LINE
  8
APS_GEOMETRY
 10
3270.83362
 11
3270.83362
 20
386.495553
 21
562.323193
  0
ARC
  8
APS_GEOMETRY
 10
3266.978967
 20
570.32444
 40
8.881346
 50
295.722751
 51
313.382809
  0
ARC
  8
APS_GEOMETRY
 10
3262.628988
 20
574.927179
 40
15.214396
 50
313.382809
 51
346.051668
  0
ARC
  8
APS_GEOMETRY
 10
3228.474417
 20
583.410162
 40
50.406664
 50
346.051668
 51
17.972618
  0
ARC
  8
APS_GEOMETRY
 10
3244.017451
 20
588.452189
 40
34.066286
 50
17.972618
 51
40.97916
  0
ARC
  8
APS_GEOMETRY
 10
3322.683476
 20
656.785302
 40
70.134279
 50
183.048855
 51
220.97916
  0
ARC
  8
APS_GEOMETRY
 10
3258.438902
 20
654.735541
 40
6.029362
 50
196.183817
 51
339.551133
  0
ARC
  8
APS_GEOMETRY
 10
3254.153283
 20
656.33351
 40
10.603204
 50
339.551133
 51
42.309762
  0
ARC
  8
APS_GEOMETRY
 10
3255.426626
 20
657.492559
 40
8.881346
 50
42.309762
 51
87.84392
  0
ARC
  8
APS_GEOMETRY
 10
3253.337569
 20
686.642108
 40
20.418786
 50
276.815608
 51
339.247435
  0
ARC
  8
APS_GEOMETRY
 10
3220.08835
 20
699.240812
 40
55.974909
 50
339.247435
 51
353.941208
  0
ARC
  8
APS_GEOMETRY
 10
3185.939817
 20
702.865399
 40
90.315264
 50
353.941208
 51
81.888448
  0
ARC
  8
APS_GEOMETRY
 10
3188.355254
 20
719.812646
 40
73.19675
 50
81.888448
 51
125.207905
  0
ARC
  8
APS_GEOMETRY
 10
3125.10414
 20
789.996669
 40
23.468921
 50
297.982929
 51
333.756926
  0
ARC
  8
APS_GEOMETRY
 10
3121.444575
 20
796.884259
 40
31.268363
 50
239.895248
 51
297.982929
  0
ARC
  8
APS_GEOMETRY
 10
3102.348546
 20
776.028767
 40
7.072709
 50
298.846804
 51
28.374116
  0
ARC
  8
APS_GEOMETRY
 10
3102.173348
 20
775.93414
 40
7.27183
 50
28.374116
 51
131.773393
  0
ARC
  8
APS_GEOMETRY
 10
3104.150172
 20
773.721115
 40
10.239204
 50
131.773393
 51
138.928044
  0
ARC
  8
APS_GEOMETRY
 10
3090.830397
 20
774.501732
 40
8.168766
 50
46.716362
 51
132.964568
  0
ARC
  8
APS_GEOMETRY
 10
3090.03348
 20
775.357381
 40
6.999488
 50
132.964568
 51
266.699692
  0
ARC
  8
APS_GEOMETRY
 10
3073.193436
 20
779.849588
 40
20.049195
 50
296.908347
 51
325.068559
  0
ARC
  8
APS_GEOMETRY
 10
3024.491725
 20
875.811256
 40
127.66192
 50
268.573934
 51
296.908347
  0
ARC
  8
APS_GEOMETRY
 10
3023.859566
 20
826.513091
 40
93.733366
 50
268.444168
 51
309.787005
  0
ARC
  8
APS_GEOMETRY
 10
2981.67557
 20
877.167252
 40
159.65251
 50
309.787005
 51
313.324918
  0
ARC
  8
APS_GEOMETRY
 10
3070.46677
 20
783.026381
 40
30.244702
 50
313.324918
 51
328.472251
  0
ARC
  8
APS_GEOMETRY
 10
3104.150172
 20
773.721115
 40
10.239204
 50
219.478975
 51
232.317424
  0
ARC
  8
APS_GEOMETRY
 10
3120.997164
 20
795.532281
 40
37.799105
 50
232.317424
 51
303.27738
  0
ARC
  8
APS_GEOMETRY
 10
3142.140815
 20
763.31644
 40
0.735482
 50
313.46672
 51
123.27738
  0
ARC
  8
APS_GEOMETRY
 10
3148.804659
 20
754.873376
 40
10.023775
 50
127.903081
 51
229.153694
  0
ARC
  8
APS_GEOMETRY
 10
3144.203436
 20
755.289622
 40
8.234259
 50
256.268044
 51
33.687381
  0
ARC
  8
APS_GEOMETRY
 10
3156.893558
 20
754.591514
 40
7.862116
 50
16.987023
 51
137.955362
  0
ARC
  8
APS_GEOMETRY
 10
3172.993577
 20
753.515728
 40
9.219956
 50
158.542624
 51
252.980303
  0
ARC
  8
APS_GEOMETRY
 10
3173.244904
 20
744.647166
 40
2.950477
 50
4.264203
 51
178.982338
  0
ARC
  8
APS_GEOMETRY
 10
3167.444084
 20
756.2173
 40
14.327658
 50
307.60594
 51
55.813689
  0
ARC
  8
APS_GEOMETRY
 10
3195.741475
 20
754.039822
 40
24.632579
 50
44.5436
 51
145.281024
  0
ARC
  8
APS_GEOMETRY
 10
3205.593899
 20
763.736521
 40
10.808824
 50
10.890021
 51
44.5436
  0
ARC
  8
APS_GEOMETRY
 10
3205.787472
 20
763.79719
 40
10.6073
 50
336.681076
 51
10.765752
  0
ARC
  8
APS_GEOMETRY
 10
3212.119621
 20
768.390924
 40
9.43024
 50
291.190183
 51
318.971651
  0
ARC
  8
APS_GEOMETRY
 10
3210.398273
 20
758.198531
 40
9.699513
 50
353.109386
 51
24.368653
  0
ARC
  8
APS_GEOMETRY
 10
3210.290025
 20
758.229133
 40
9.810666
 50
321.987957
 51
353.0078
  0
ARC
  8
APS_GEOMETRY
 10
3223.046115
 20
753.003513
 40
5.092263
 50
189.22161
 51
216.310989
  0
ARC
  8
APS_GEOMETRY
 10
3223.215024
 20
753.129805
 40
5.303159
 50
216.329847
 51
242.689702
  0
ARC
  8
APS_GEOMETRY
 10
3223.304782
 20
753.295619
 40
5.491673
 50
242.651354
 51
268.399146
  0
ARC
  8
APS_GEOMETRY
 10
3232.695725
 20
748.069262
 40
9.547989
 50
181.579454
 51
205.9169
  0
ARC
  8
APS_GEOMETRY
 10
3232.956307
 20
748.201602
 40
9.840207
 50
205.946821
 51
229.796527
  0
ARC
  8
APS_GEOMETRY
 10
3233.203491
 20
748.491566
 40
10.221227
 50
229.78747
 51
253.036526
  0
ARC
  8
APS_GEOMETRY
 10
3244.274247
 20
744.891851
 40
15.350486
 50
163.401486
 51
203.727327
  0
ARC
  8
APS_GEOMETRY
 10
3184.244431
 20
745.444174
 40
45.480769
 50
4.834158
 51
31.930089
  0
ARC
  8
APS_GEOMETRY
 10
3188.192437
 20
714.580505
 40
64.935859
 50
28.11179
 51
57.749441
  0
ARC
  8
APS_GEOMETRY
 10
3234.151291
 20
739.132403
 40
12.830083
 50
353.516934
 51
28.11179
  0
ARC
  8
APS_GEOMETRY
 10
3233.380154
 20
739.249806
 40
13.609577
 50
320.150388
 51
353.392386
  0
ARC
  8
APS_GEOMETRY
 10
3242.381129
 20
742.773147
 40
12.329278
 50
276.742234
 51
303.498578
  0
ARC
  8
APS_GEOMETRY
 10
3237.253666
 20
730.989057
 40
12.026443
 50
335.978084
 51
7.177902
  0
ARC
  8
APS_GEOMETRY
 10
3236.440078
 20
731.353384
 40
12.917879
 50
306.24058
 51
335.971112
  0
ARC
  8
APS_GEOMETRY
 10
3250.12202
 20
720.075719
 40
6.105894
 50
171.913959
 51
199.568308
  0
ARC
  8
APS_GEOMETRY
 10
3250.128936
 20
720.09052
 40
6.117379
 50
199.677229
 51
227.296629
  0
ARC
  8
APS_GEOMETRY
 10
3250.351134
 20
720.340336
 40
6.45166
 50
227.35115
 51
253.99935
  0
ARC
  8
APS_GEOMETRY
 10
3259.8333
 20
710.984448
 40
11.69397
 50
164.352003
 51
188.844629
  0
ARC
  8
APS_GEOMETRY
 10
3259.610156
 20
710.964513
 40
11.470423
 50
188.917616
 51
213.72983
  0
ARC
  8
APS_GEOMETRY
 10
3259.878737
 20
711.160273
 40
11.802502
 50
213.796191
 51
238.137325
  0
ARC
  8
APS_GEOMETRY
 10
3272.795109
 20
703.281729
 40
19.266571
 50
146.47738
 51
186.393662
  0
ARC
  8
APS_GEOMETRY
 10
3202.943168
 20
725.804732
 40
55.08689
 50
347.542885
 51
7.194087
  0
ARC
  8
APS_GEOMETRY
 10
3193.578764
 20
703.888412
 40
70.20367
 50
351.793757
 51
24.232928
  0
ARC
  8
APS_GEOMETRY
 10
3227.45658
 20
699.002776
 40
35.97538
 50
339.955328
 51
351.793757
  0
ARC
  8
APS_GEOMETRY
 10
3254.277068
 20
689.217229
 40
7.425502
 50
227.370044
 51
339.955328
  0
ARC
  8
APS_GEOMETRY
 10
3244.207794
 20
692.116657
 40
9.764166
 50
301.077773
 51
121.077773
  0
ARC
  8
APS_GEOMETRY
 10
3244.207794
 20
692.116657
 40
9.764166
 50
121.077773
 51
148.922227
  0
ARC
  8
APS_GEOMETRY
 10
3253.302553
 20
686.635158
 40
20.383086
 50
148.922227
 51
191.225282
  0
ARC
  8
APS_GEOMETRY
 10
3253.337569
 20
686.642108
 40
20.418786
 50
191.225282
 51
271.38279
  0
ARC
  8
APS_GEOMETRY
 10
3255.426626
 20
657.492559
 40
8.881346
 50
100.354478
 51
138.602663
  0
ARC
  8
APS_GEOMETRY
 10
3260.177311
 20
653.304659
 40
15.214396
 50
138.602663
 51
171.271523
  0
ARC
  8
APS_GEOMETRY
 10
3267.371113
 20
652.200193
 40
22.492488
 50
171.271523
 51
196.534384
  0
ARC
  8
APS_GEOMETRY
 10
3359.939864
 20
674.975495
 40
117.801469
 50
194.339961
 51
213.152839
  0
ARC
  8
APS_GEOMETRY
 10
4368.717958
 20
1333.916121
 40
1322.72304
 50
213.152839
 51
213.617647
  0
ARC
  8
APS_GEOMETRY
 10
3242.59447
 20
585.221418
 40
29.570519
 50
338.722703
 51
33.617647
  0
ARC
  8
APS_GEOMETRY
 10
3264.230009
 20
573.344074
 40
6.029362
 50
10.963963
 51
154.331279
  0
ARC
  8
APS_GEOMETRY
 10
3268.352476
 20
571.362836
 40
10.603204
 50
154.331279
 51
217.089908
  0
ARC
  8
APS_GEOMETRY
 10
3266.978967
 20
570.32444
 40
8.881346
 50
217.089908
 51
252.655566
  0
LINE
  8
APS_GEOMETRY
 10
3264.331302
 11
3264.331302
 20
561.846929
 21
383.872845
  0
ARC
  8
APS_GEOMETRY
 10
3271.462901
 20
375.563663
 40
10.949987
 50
130.638809
 51
143.487504
  0
ARC
  8
APS_GEOMETRY
 10
3297.323112
 20
364.714417
 40
38.767389
 50
153.390055
 51
194.59747
  0
ARC
  8
APS_GEOMETRY
 10
3235.628853
 20
348.647176
 40
24.98477
 50
269.120442
 51
14.59747
  0
ARC
  8
APS_GEOMETRY
 10
3235.315206
 20
328.217299
 40
4.552485
 50
181.609594
 51
269.120442
  0
ARC
  8
APS_GEOMETRY
 10
3222.849295
 20
327.867005
 40
7.918346
 50
1.609594
 51
63.58964
  0
ARC
  8
APS_GEOMETRY
 10
3221.404933
 20
324.958678
 40
11.165583
 50
63.58964
 51
187.523502
  0
LINE
  8
APS_GEOMETRY
 10
3210.335472
 11
2832.293739
 20
323.496736
 21
323.496736
  0
ARC
  8
APS_GEOMETRY
 10
2821.224277
 20
324.958678
 40
11.165583
 50
352.476498
 51
116.41036
  0
ARC
  8
APS_GEOMETRY
 10
2819.779916
 20
327.867005
 40
7.918346
 50
116.41036
 51
178.390406
  0
ARC
  8
APS_GEOMETRY
 10
2807.314005
 20
328.217299
 40
4.552485
 50
270.879558
 51
358.390406
  0
ARC
  8
APS_GEOMETRY
 10
2807.000357
 20
348.647176
 40
24.98477
 50
165.40253
 51
270.879558
  0
ARC
  8
APS_GEOMETRY
 10
2745.306099
 20
364.714417
 40
38.767389
 50
345.40253
 51
26.609945
  0
ARC
  8
APS_GEOMETRY
 10
2771.166309
 20
375.563663
 40
10.949987
 50
36.512496
 51
49.361191
  0
LINE
  8
APS_GEOMETRY
 10
2778.297909
 11
2778.297909
 20
383.872845
 21
561.846929
  0
ARC
  8
APS_GEOMETRY
 10
2775.650244
 20
570.32444
 40
8.881346
 50
287.344434
 51
322.910092
  0
ARC
  8
APS_GEOMETRY
 10
2774.276735
 20
571.362836
 40
10.603204
 50
322.910092
 51
25.668721
  0
ARC
  8
APS_GEOMETRY
 10
2778.399202
 20
573.344074
 40
6.029362
 50
25.668721
 51
169.036037
  0
ARC
  8
APS_GEOMETRY
 10
2800.034741
 20
585.221418
 40
29.570519
 50
146.382353
 51
201.277297
  0
ARC
  8
APS_GEOMETRY
 10
1673.911253
 20
1333.916121
 40
1322.72304
 50
326.382353
 51
326.847161
  0
ARC
  8
APS_GEOMETRY
 10
2682.689347
 20
674.975495
 40
117.801469
 50
326.847161
 51
345.660039
  0
ARC
  8
APS_GEOMETRY
 10
2775.258098
 20
652.200193
 40
22.492488
 50
343.465616
 51
8.728477
  0
ARC
  8
APS_GEOMETRY
 10
2782.4519
 20
653.304659
 40
15.214396
 50
8.728477
 51
41.397337
  0
ARC
  8
APS_GEOMETRY
 10
2787.202585
 20
657.492559
 40
8.881346
 50
41.397337
 51
79.645522
  0
ARC
  8
APS_GEOMETRY
 10
2789.291641
 20
686.642108
 40
20.418786
 50
268.61721
 51
348.774718
  0
ARC
  8
APS_GEOMETRY
 10
2789.326658
 20
686.635158
 40
20.383086
 50
348.774718
 51
31.077773
  0
ARC
  8
APS_GEOMETRY
 10
2798.421417
 20
692.116657
 40
9.764166
 50
31.077773
 51
211.077773
  0
ARC
  8
APS_GEOMETRY
 10
2798.421417
 20
692.116657
 40
9.764166
 50
211.077773
 51
238.922227
  0
ARC
  8
APS_GEOMETRY
 10
2788.352143
 20
689.217229
 40
7.425502
 50
200.044672
 51
312.629956
  0
ARC
  8
APS_GEOMETRY
 10
2815.172631
 20
699.002776
 40
35.97538
 50
188.206243
 51
200.044672
  0
ARC
  8
APS_GEOMETRY
 10
2849.050447
 20
703.888412
 40
70.20367
 50
155.767072
 51
188.206243
  0
ARC
  8
APS_GEOMETRY
 10
2839.686043
 20
725.804732
 40
55.08689
 50
172.805913
 51
192.457115
  0
ARC
  8
APS_GEOMETRY
 10
2769.834102
 20
703.281729
 40
19.266571
 50
353.606338
 51
33.52262
  0
ARC
  8
APS_GEOMETRY
 10
2782.750474
 20
711.160273
 40
11.802502
 50
301.862675
 51
326.203809
  0
ARC
  8
APS_GEOMETRY
 10
2783.019055
 20
710.964513
 40
11.470423
 50
326.27017
 51
351.082384
  0
ARC
  8
APS_GEOMETRY
 10
2782.795911
 20
710.984448
 40
11.69397
 50
351.155371
 51
15.647997
  0
ARC
  8
APS_GEOMETRY
 10
2792.278077
 20
720.340336
 40
6.45166
 50
286.00065
 51
312.64885
  0
ARC
  8
APS_GEOMETRY
 10
2792.500275
 20
720.09052
 40
6.117379
 50
312.703371
 51
340.322771
  0
ARC
  8
APS_GEOMETRY
 10
2792.507191
 20
720.075719
 40
6.105894
 50
340.431692
 51
8.086041
  0
ARC
  8
APS_GEOMETRY
 10
2806.189133
 20
731.353384
 40
12.917879
 50
204.028888
 51
233.75942
  0
ARC
  8
APS_GEOMETRY
 10
2805.375545
 20
730.989057
 40
12.026443
 50
172.822098
 51
204.021916
  0
ARC
  8
APS_GEOMETRY
 10
2800.248082
 20
742.773147
 40
12.329278
 50
236.501422
 51
263.257766
  0
ARC
  8
APS_GEOMETRY
 10
2809.249057
 20
739.249806
 40
13.609577
 50
186.607614
 51
219.849612
  0
ARC
  8
APS_GEOMETRY
 10
2808.47792
 20
739.132403
 40
12.830083
 50
151.88821
 51
186.483066
  0
ARC
  8
APS_GEOMETRY
 10
2854.436774
 20
714.580505
 40
64.935859
 50
122.250559
 51
151.88821
  0
ARC
  8
APS_GEOMETRY
 10
2858.384779
 20
745.444174
 40
45.480769
 50
148.069911
 51
175.165842
  0
ARC
  8
APS_GEOMETRY
 10
2798.354963
 20
744.891851
 40
15.350486
 50
336.272673
 51
16.598514
  0
ARC
  8
APS_GEOMETRY
 10
2809.42572
 20
748.491566
 40
10.221227
 50
286.963474
 51
310.21253
  0
ARC
  8
APS_GEOMETRY
 10
2809.672903
 20
748.201602
 40
9.840207
 50
310.203473
 51
334.053179
  0
ARC
  8
APS_GEOMETRY
 10
2809.933486
 20
748.069262
 40
9.547989
 50
334.0831
 51
358.420546
  0
ARC
  8
APS_GEOMETRY
 10
2819.324429
 20
753.295619
 40
5.491673
 50
271.600854
 51
297.348646
  0
ARC
  8
APS_GEOMETRY
 10
2819.414186
 20
753.129805
 40
5.303159
 50
297.310298
 51
323.670153
  0
ARC
  8
APS_GEOMETRY
 10
2819.583096
 20
753.003513
 40
5.092263
 50
323.689011
 51
350.77839
  0
ARC
  8
APS_GEOMETRY
 10
2832.339186
 20
758.229133
 40
9.810666
 50
186.9922
 51
218.012043
  0
ARC
  8
APS_GEOMETRY
 10
2832.230938
 20
758.198531
 40
9.699513
 50
155.631347
 51
186.890614
  0
ARC
  8
APS_GEOMETRY
 10
2830.50959
 20
768.390924
 40
9.43024
 50
221.028349
 51
248.809817
  0
ARC
  8
APS_GEOMETRY
 10
2836.841739
 20
763.79719
 40
10.6073
 50
169.234248
 51
203.318924
  0
ARC
  8
APS_GEOMETRY
 10
2837.035312
 20
763.736521
 40
10.808824
 50
135.4564
 51
169.109979
  0
ARC
  8
APS_GEOMETRY
 10
2846.887736
 20
754.039822
 40
24.632579
 50
34.718976
 51
135.4564
  0
ARC
  8
APS_GEOMETRY
 10
2875.185126
 20
756.2173
 40
14.327658
 50
124.186311
 51
232.39406
  0
ARC
  8
APS_GEOMETRY
 10
2869.384307
 20
744.647166
 40
2.950477
 50
1.017662
 51
175.735797
  0
ARC
  8
APS_GEOMETRY
 10
2869.635633
 20
753.515728
 40
9.219956
 50
287.019697
 51
21.457376
  0
ARC
  8
APS_GEOMETRY
 10
2885.735653
 20
754.591514
 40
7.862116
 50
42.044638
 51
163.012977
  0
ARC
  8
APS_GEOMETRY
 10
2898.425775
 20
755.289622
 40
8.234259
 50
146.312619
 51
283.731956
  0
ARC
  8
APS_GEOMETRY
 10
2893.824552
 20
754.873376
 40
10.023775
 50
310.846306
 51
52.096919
  0
ARC
  8
APS_GEOMETRY
 10
2900.488396
 20
763.31644
 40
0.735482
 50
56.72262
 51
226.53328
  0
ARC
  8
APS_GEOMETRY
 10
2921.632047
 20
795.532281
 40
37.799105
 50
236.72262
 51
307.682576
  0
ARC
  8
APS_GEOMETRY
 10
2938.479039
 20
773.721115
 40
10.239204
 50
307.682576
 51
320.521025
  0
ARC
  8
APS_GEOMETRY
 10
2972.162441
 20
783.026381
 40
30.244702
 50
211.527749
 51
226.675082
  0
ARC
  8
APS_GEOMETRY
 10
3060.95364
 20
877.167252
 40
159.65251
 50
226.675082
 51
230.212995
  0
ARC
  8
APS_GEOMETRY
 10
3018.769645
 20
826.513091
 40
93.733366
 50
230.212995
 51
271.555832
  0
ARC
  8
APS_GEOMETRY
 10
2753.325962
 20
360.285735
 40
20.307971
 50
341.144594
 51
10.190778
  0
ARC
  8
APS_GEOMETRY
 10
2801.819697
 20
343.724775
 40
30.935641
 50
161.144594
 51
174.174182
  0
ARC
  8
APS_GEOMETRY
 10
2787.44444
 20
355.894918
 40
18.722215
 50
156.495537
 51
208.836808
  0
ARC
  8
APS_GEOMETRY
 10
2771.963521
 20
362.627648
 40
1.840612
 50
42.821846
 51
156.495537
  0
ARC
  8
APS_GEOMETRY
 10
3270.66569
 20
362.627648
 40
1.840612
 50
23.504463
 51
137.178154
  0
ARC
  8
APS_GEOMETRY
 10
3255.18477
 20
355.894918
 40
18.722215
 50
331.163192
 51
23.504463
  0
ARC
  8
APS_GEOMETRY
 10
3240.809513
 20
343.724775
 40
30.935641
 50
5.825818
 51
18.855406
  0
ARC
  8
APS_GEOMETRY
 10
3289.303249
 20
360.285735
 40
20.307971
 50
169.809222
 51
198.855406
  0
LINE
  8
APS_GEOMETRY
 10
2771.79559
 11
2771.79559
 20
1888.669395
 21
1118.761539
  0
ARC
  8
APS_GEOMETRY
 10
2775.650244
 20
1110.760292
 40
8.881346
 50
115.722751
 51
133.382809
  0
ARC
  8
APS_GEOMETRY
 10
2780.000223
 20
1106.157553
 40
15.214396
 50
133.382809
 51
166.051668
  0
ARC
  8
APS_GEOMETRY
 10
2814.154793
 20
1097.674569
 40
50.406664
 50
166.051668
 51
197.972618
  0
ARC
  8
APS_GEOMETRY
 10
2798.61176
 20
1092.632543
 40
34.066286
 50
197.972618
 51
220.97916
  0
ARC
  8
APS_GEOMETRY
 10
2719.945735
 20
1024.29943
 40
70.134279
 50
3.048855
 51
40.97916
  0
ARC
  8
APS_GEOMETRY
 10
2784.190309
 20
1026.349191
 40
6.029362
 50
16.183817
 51
159.551133
  0
ARC
  8
APS_GEOMETRY
 10
2788.475927
 20
1024.751222
 40
10.603204
 50
159.551133
 51
222.309762
  0
ARC
  8
APS_GEOMETRY
 10
2787.202585
 20
1023.592173
 40
8.881346
 50
222.309762
 51
267.84392
  0
ARC
  8
APS_GEOMETRY
 10
2789.291641
 20
994.442624
 40
20.418786
 50
96.815608
 51
159.247435
  0
ARC
  8
APS_GEOMETRY
 10
2822.54086
 20
981.84392
 40
55.974909
 50
159.247435
 51
173.941208
  0
ARC
  8
APS_GEOMETRY
 10
2856.689394
 20
978.219333
 40
90.315264
 50
173.941208
 51
261.888448
  0
ARC
  8
APS_GEOMETRY
 10
2854.273957
 20
961.272086
 40
73.19675
 50
261.888448
 51
311.728243
  0
ARC
  8
APS_GEOMETRY
 10
2926.5387
 20
782.030563
 40
126.818894
 50
87.014028
 51
100.699574
  0
ARC
  8
APS_GEOMETRY
 10
2937.88627
 20
898.42962
 40
11.29138
 50
114.829047
 51
242.563654
  0
ARC
  8
APS_GEOMETRY
 10
2935.791827
 20
894.395295
 40
6.745782
 50
242.563654
 51
358.145023
  0
ARC
  8
APS_GEOMETRY
 10
2932.490342
 20
1146.744323
 40
252.76701
 50
272.277255
 51
276.625354
  0
ARC
  8
APS_GEOMETRY
 10
2966.532855
 20
886.781648
 40
10.135355
 50
118.776382
 51
225.457339
  0
ARC
  8
APS_GEOMETRY
 10
2966.027482
 20
886.268142
 40
9.414876
 50
225.457339
 51
21.495217
  0
ARC
  8
APS_GEOMETRY
 10
2981.074373
 20
892.193819
 40
6.756784
 50
143.800822
 51
201.495217
  0
ARC
  8
APS_GEOMETRY
 10
2971.720203
 20
686.799811
 40
209.420873
 50
80.809106
 51
88.932478
  0
ARC
  8
APS_GEOMETRY
 10
2999.879717
 20
860.837148
 40
33.120127
 50
68.850301
 51
80.809106
  0
ARC
  8
APS_GEOMETRY
 10
3045.650287
 20
857.750302
 40
47.939607
 50
134.86867
 51
220.028728
  0
ARC
  8
APS_GEOMETRY
 10
3022.020078
 20
837.902003
 40
17.079572
 50
220.028728
 51
267.63272
  0
ARC
  8
APS_GEOMETRY
 10
3020.609132
 20
837.902003
 40
17.079572
 50
272.36728
 51
319.971272
  0
ARC
  8
APS_GEOMETRY
 10
2996.978923
 20
857.750302
 40
47.939607
 50
319.971272
 51
45.13133
  0
ARC
  8
APS_GEOMETRY
 10
3042.749494
 20
860.837148
 40
33.120127
 50
99.190894
 51
111.149699
  0
ARC
  8
APS_GEOMETRY
 10
3070.909008
 20
686.799811
 40
209.420873
 50
91.067522
 51
99.190894
  0
ARC
  8
APS_GEOMETRY
 10
3061.554838
 20
892.193819
 40
6.756784
 50
338.504783
 51
36.199178
  0
ARC
  8
APS_GEOMETRY
 10
3076.601729
 20
886.268142
 40
9.414876
 50
158.504783
 51
314.542661
  0
ARC
  8
APS_GEOMETRY
 10
3076.096356
 20
886.781648
 40
10.135355
 50
314.542661
 51
61.223618
  0
ARC
  8
APS_GEOMETRY
 10
3110.138869
 20
1146.744323
 40
252.76701
 50
263.374646
 51
267.722745
  0
ARC
  8
APS_GEOMETRY
 10
3106.837384
 20
894.395295
 40
6.745782
 50
181.854977
 51
297.436346
  0
ARC
  8
APS_GEOMETRY
 10
3104.742941
 20
898.42962
 40
11.29138
 50
297.436346
 51
65.170953
  0
ARC
  8
APS_GEOMETRY
 10
3116.090511
 20
782.030563
 40
126.818894
 50
79.300426
 51
92.985972
  0
ARC
  8
APS_GEOMETRY
 10
3188.355254
 20
961.272086
 40
73.19675
 50
228.271757
 51
278.111552
  0
ARC
  8
APS_GEOMETRY
 10
3185.939817
 20
978.219333
 40
90.315264
 50
278.111552
 51
6.058792
  0
ARC
  8
APS_GEOMETRY
 10
3220.08835
 20
981.84392
 40
55.974909
 50
6.058792
 51
20.752565
  0
ARC
  8
APS_GEOMETRY
 10
3253.337569
 20
994.442624
 40
20.418786
 50
20.752565
 51
83.184392
  0
ARC
  8
APS_GEOMETRY
 10
3255.426626
 20
1023.592173
 40
8.881346
 50
272.15608
 51
317.690238
  0
ARC
  8
APS_GEOMETRY
 10
3254.153283
 20
1024.751222
 40
10.603204
 50
317.690238
 51
20.448867
  0
ARC
  8
APS_GEOMETRY
 10
3258.438902
 20
1026.349191
 40
6.029362
 50
20.448867
 51
163.816183
  0
ARC
  8
APS_GEOMETRY
 10
3322.683476
 20
1024.29943
 40
70.134279
 50
139.02084
 51
176.951145
  0
ARC
  8
APS_GEOMETRY
 10
3244.017451
 20
1092.632543
 40
34.066286
 50
319.02084
 51
342.027382
  0
ARC
  8
APS_GEOMETRY
 10
3228.474417
 20
1097.674569
 40
50.406664
 50
342.027382
 51
13.948332
  0
ARC
  8
APS_GEOMETRY
 10
3262.628988
 20
1106.157553
 40
15.214396
 50
13.948332
 51
46.617191
  0
ARC
  8
APS_GEOMETRY
 10
3266.978967
 20
1110.760292
 40
8.881346
 50
46.617191
 51
64.277249
  0
LINE
  8
APS_GEOMETRY
 10
3270.83362
 11
3270.83362
 20
1118.761539
 21
1888.669395
  0
ARC
  8
APS_GEOMETRY
 10
3268.54445
 20
1896.981144
 40
8.621222
 50
285.398294
 51
332.775947
  0
ARC
  8
APS_GEOMETRY
 10
3249.900089
 20
1906.57294
 40
29.588214
 50
332.775947
 51
20.683078
  0
ARC
  8
APS_GEOMETRY
 10
3251.712046
 20
1907.25701
 40
27.651427
 50
20.683078
 51
60.66496
  0
ARC
  8
APS_GEOMETRY
 10
3264.096518
 20
1943.044049
 40
11.73905
 50
275.682717
 51
79.643644
  0
ARC
  8
APS_GEOMETRY
 10
3264.956066
 20
1947.74753
 40
6.957674
 50
79.643644
 51
259.643644
  0
ARC
  8
APS_GEOMETRY
 10
3264.956066
 20
1947.74753
 40
6.957674
 50
259.643644
 51
278.039934
  0
ARC
  8
APS_GEOMETRY
 10
3257.528467
 20
1954.426751
 40
15.958587
 50
232.5827
 51
301.76305
  0
ARC
  8
APS_GEOMETRY
 10
3296.19697
 20
2004.971416
 40
79.598325
 50
216.923001
 51
232.5827
  0
ARC
  8
APS_GEOMETRY
 10
3179.311157
 20
1917.137669
 40
66.610636
 50
36.923001
 51
57.644736
  0
ARC
  8
APS_GEOMETRY
 10
3197.060602
 20
1945.154648
 40
33.44448
 50
57.644736
 51
104.714505
  0
ARC
  8
APS_GEOMETRY
 10
3209.32467
 20
1898.454972
 40
81.727677
 50
104.714505
 51
136.217342
  0
ARC
  8
APS_GEOMETRY
 10
3141.712724
 20
1963.253224
 40
11.921609
 50
247.70676
 51
316.217342
  0
ARC
  8
APS_GEOMETRY
 10
3129.548223
 20
1948.856203
 40
8.350726
 50
23.77453
 51
129.084601
  0
ARC
  8
APS_GEOMETRY
 10
3117.985303
 20
1951.778128
 40
7.234602
 50
29.477725
 51
157.084151
  0
ARC
  8
APS_GEOMETRY
 10
3106.55342
 20
1935.450951
 40
19.729059
 50
29.616703
 51
76.013884
  0
ARC
  8
APS_GEOMETRY
 10
3136.639194
 20
1957.316316
 40
17.722244
 50
223.127509
 51
301.538883
  0
ARC
  8
APS_GEOMETRY
 10
3202.291938
 20
1892.563224
 40
75.126522
 50
138.633927
 51
167.635469
  0
ARC
  8
APS_GEOMETRY
 10
3064.04338
 20
1909.70719
 40
64.873207
 50
359.066355
 51
49.211075
  0
ARC
  8
APS_GEOMETRY
 10
3078.641417
 20
1926.625789
 40
42.527253
 50
49.211075
 51
144.141885
  0
ARC
  8
APS_GEOMETRY
 10
3070.350685
 20
1936.296372
 40
30.290091
 50
149.790121
 51
207.772129
  0
ARC
  8
APS_GEOMETRY
 10
3058.661946
 20
1930.140863
 40
17.079606
 50
207.772129
 51
282.944347
  0
ARC
  8
APS_GEOMETRY
 10
3059.710595
 20
1925.57845
 40
12.39823
 50
282.944347
 51
23.534455
  0
ARC
  8
APS_GEOMETRY
 10
3060.646559
 20
1925.986088
 40
11.37735
 50
23.534455
 51
110.488112
  0
ARC
  8
APS_GEOMETRY
 10
3059.062007
 20
1930.226846
 40
6.850227
 50
110.488112
 51
290.488112
  0
ARC
  8
APS_GEOMETRY
 10
3059.062007
 20
1930.226846
 40
6.850227
 50
290.488112
 51
312.077196
  0
ARC
  8
APS_GEOMETRY
 10
3059.102296
 20
1924.835092
 40
4.560622
 50
250.142913
 51
3.862623
  0
ARC
  8
APS_GEOMETRY
 10
3056.69622
 20
1926.333054
 40
5.850522
 50
214.547612
 51
278.422612
  0
ARC
  8
APS_GEOMETRY
 10
3072.588531
 20
1937.274992
 40
25.14538
 50
184.03248
 51
214.547612
  0
ARC
  8
APS_GEOMETRY
 10
3069.828928
 20
1937.08045
 40
22.378928
 50
127.358421
 51
184.03248
  0
ARC
  8
APS_GEOMETRY
 10
3076.767311
 20
1927.99176
 40
33.813325
 50
32.848235
 51
127.358421
  0
ARC
  8
APS_GEOMETRY
 10
3037.802562
 20
1902.834242
 40
80.193842
 50
13.102031
 51
32.848235
  0
ARC
  8
APS_GEOMETRY
 10
3078.696508
 20
1912.352089
 40
38.206889
 50
329.890258
 51
13.102031
  0
ARC
  8
APS_GEOMETRY
 10
3115.906894
 20
1871.265927
 40
22.310436
 50
100.743379
 51
162.443733
  0
ARC
  8
APS_GEOMETRY
 10
3095.362947
 20
1891.066115
 40
13.090638
 50
266.815096
 51
297.347908
  0
ARC
  8
APS_GEOMETRY
 10
3109.772401
 20
1868.583964
 40
13.722629
 50
127.720878
 51
243.098315
  0
ARC
  8
APS_GEOMETRY
 10
3121.854057
 20
1862.224705
 40
19.212016
 50
134.11078
 51
197.816733
  0
ARC
  8
APS_GEOMETRY
 10
3058.853212
 20
1927.212064
 40
71.300211
 50
314.11078
 51
332.149425
  0
ARC
  8
APS_GEOMETRY
 10
3037.260026
 20
1892.389596
 40
84.648147
 50
320.634673
 51
1.02439
  0
ARC
  8
APS_GEOMETRY
 10
3081.280037
 20
1856.275742
 40
27.709831
 50
257.553376
 51
320.634673
  0
ARC
  8
APS_GEOMETRY
 10
3063.222943
 20
1819.347265
 40
15.603117
 50
39.23923
 51
96.064553
  0
ARC
  8
APS_GEOMETRY
 10
3056.375873
 20
1819.683394
 40
16.045182
 50
71.09508
 51
98.939487
  0
ARC
  8
APS_GEOMETRY
 10
3078.113072
 20
1844.766642
 40
25.929979
 50
200.859225
 51
296.324574
  0
ARC
  8
APS_GEOMETRY
 10
3071.723989
 20
1846.378956
 40
30.621245
 50
218.56909
 51
305.744068
  0
ARC
  8
APS_GEOMETRY
 10
3060.780202
 20
1837.652308
 40
16.624073
 50
133.444188
 51
218.56909
  0
ARC
  8
APS_GEOMETRY
 10
3052.556326
 20
1846.33539
 40
4.66464
 50
46.555812
 51
133.444188
  0
ARC
  8
APS_GEOMETRY
 10
3052.986255
 20
1846.789325
 40
4.039423
 50
290.323927
 51
46.555812
  0
ARC
  8
APS_GEOMETRY
 10
3052.132959
 20
1843.450482
 40
2.300559
 50
348.742778
 51
168.742778
  0
ARC
  8
APS_GEOMETRY
 10
3052.132959
 20
1843.450482
 40
2.300559
 50
168.742778
 51
199.147595
  0
ARC
  8
APS_GEOMETRY
 10
3055.470087
 20
1842.37974
 40
5.519475
 50
176.716329
 51
332.061694
  0
ARC
  8
APS_GEOMETRY
 10
3049.428063
 20
1845.584
 40
12.358578
 50
332.061694
 51
32.180499
  0
ARC
  8
APS_GEOMETRY
 10
3051.9576
 20
1847.175733
 40
9.369905
 50
32.180499
 51
134.609831
  0
ARC
  8
APS_GEOMETRY
 10
3061.786189
 20
1836.543782
 40
23.845848
 50
133.481596
 51
236.883481
  0
ARC
  8
APS_GEOMETRY
 10
3067.888315
 20
1845.898527
 40
35.014876
 50
236.883481
 51
278.135708
  0
ARC
  8
APS_GEOMETRY
 10
3072.993795
 20
1810.185126
 40
1.061611
 50
275.331459
 51
95.331459
  0
ARC
  8
APS_GEOMETRY
 10
3072.993795
 20
1810.185126
 40
1.061611
 50
95.331459
 51
98.135708
  0
ARC
  8
APS_GEOMETRY
 10
3071.779087
 20
1767.573719
 40
41.575138
 50
88.189737
 51
102.044893
  0
ARC
  8
APS_GEOMETRY
 10
3057.031338
 20
1805.351034
 40
6.721404
 50
25.395044
 51
83.982529
  0
ARC
  8
APS_GEOMETRY
 10
3060.729473
 20
1809.373341
 40
4.005961
 50
138.35411
 51
231.902272
  0
ARC
  8
APS_GEOMETRY
 10
3058.119896
 20
1802.58802
 40
3.635407
 50
87.826413
 51
170.877093
  0
ARC
  8
APS_GEOMETRY
 10
3058.488431
 20
1806.584254
 40
5.230742
 50
220.828304
 51
281.014307
  0
ARC
  8
APS_GEOMETRY
 10
3069.389657
 20
1804.065946
 40
10.241627
 50
194.799423
 51
233.961267
  0
ARC
  8
APS_GEOMETRY
 10
3058.736141
 20
1800.904443
 40
6.901733
 50
312.110439
 51
22.42394
  0
ARC
  8
APS_GEOMETRY
 10
3076.23517
 20
1754.0296
 40
50.740848
 50
91.398263
 51
102.658305
  0
ARC
  8
APS_GEOMETRY
 10
2982.423753
 20
1886.781584
 40
123.685532
 50
306.163604
 51
318.456855
  0
ARC
  8
APS_GEOMETRY
 10
3098.478372
 20
1728.001523
 40
72.986231
 50
126.163604
 51
140.835258
  0
ARC
  8
APS_GEOMETRY
 10
3023.31015
 20
1776.543644
 40
18.74008
 50
352.495602
 51
13.391803
  0
ARC
  8
APS_GEOMETRY
 10
3030.565563
 20
1778.27103
 40
11.281871
 50
13.391803
 51
145.083232
  0
ARC
  8
APS_GEOMETRY
 10
3012.063647
 20
1778.27103
 40
11.281871
 50
34.916768
 51
166.608197
  0
ARC
  8
APS_GEOMETRY
 10
3019.319061
 20
1776.543644
 40
18.74008
 50
166.608197
 51
187.504398
  0
ARC
  8
APS_GEOMETRY
 10
2944.150839
 20
1728.001523
 40
72.986231
 50
39.164742
 51
53.836396
  0
ARC
  8
APS_GEOMETRY
 10
3060.205458
 20
1886.781584
 40
123.685532
 50
221.543145
 51
233.836396
  0
ARC
  8
APS_GEOMETRY
 10
2966.394041
 20
1754.0296
 40
50.740848
 50
77.341695
 51
88.601737
  0
ARC
  8
APS_GEOMETRY
 10
2983.893069
 20
1800.904443
 40
6.901733
 50
157.57606
 51
227.889561
  0
ARC
  8
APS_GEOMETRY
 10
2973.239554
 20
1804.065946
 40
10.241627
 50
306.038733
 51
345.200577
  0
ARC
  8
APS_GEOMETRY
 10
2984.14078
 20
1806.584254
 40
5.230742
 50
258.985693
 51
319.171696
  0
ARC
  8
APS_GEOMETRY
 10
2984.509315
 20
1802.58802
 40
3.635407
 50
9.122907
 51
92.173587
  0
ARC
  8
APS_GEOMETRY
 10
2981.899738
 20
1809.373341
 40
4.005961
 50
308.097728
 51
41.64589
  0
ARC
  8
APS_GEOMETRY
 10
2985.597873
 20
1805.351034
 40
6.721404
 50
96.017471
 51
154.604956
  0
ARC
  8
APS_GEOMETRY
 10
2970.850124
 20
1767.573719
 40
41.575138
 50
77.955107
 51
91.810263
  0
ARC
  8
APS_GEOMETRY
 10
2969.635416
 20
1810.185126
 40
1.061611
 50
81.864292
 51
261.864292
  0
ARC
  8
APS_GEOMETRY
 10
2969.635416
 20
1810.185126
 40
1.061611
 50
261.864292
 51
264.668541
  0
ARC
  8
APS_GEOMETRY
 10
2974.740896
 20
1845.898527
 40
35.014876
 50
261.864292
 51
303.116519
  0
ARC
  8
APS_GEOMETRY
 10
2980.843021
 20
1836.543782
 40
23.845848
 50
303.116519
 51
46.518404
  0
ARC
  8
APS_GEOMETRY
 10
2990.671611
 20
1847.175733
 40
9.369905
 50
45.390169
 51
147.819501
  0
ARC
  8
APS_GEOMETRY
 10
2993.201148
 20
1845.584
 40
12.358578
 50
147.819501
 51
207.938306
  0
ARC
  8
APS_GEOMETRY
 10
2987.159124
 20
1842.37974
 40
5.519475
 50
207.938306
 51
3.283671
  0
ARC
  8
APS_GEOMETRY
 10
2990.496252
 20
1843.450482
 40
2.300559
 50
340.852405
 51
160.852405
  0
ARC
  8
APS_GEOMETRY
 10
2990.496252
 20
1843.450482
 40
2.300559
 50
160.852405
 51
191.257222
  0
ARC
  8
APS_GEOMETRY
 10
2989.642956
 20
1846.789325
 40
4.039423
 50
133.444188
 51
249.676073
  0
ARC
  8
APS_GEOMETRY
 10
2990.072885
 20
1846.33539
 40
4.66464
 50
46.555812
 51
133.444188
  0
ARC
  8
APS_GEOMETRY
 10
2981.849008
 20
1837.652308
 40
16.624073
 50
321.43091
 51
46.555812
  0
ARC
  8
APS_GEOMETRY
 10
2970.905222
 20
1846.378956
 40
30.621245
 50
234.255932
 51
321.43091
  0
ARC
  8
APS_GEOMETRY
 10
2964.516139
 20
1844.766642
 40
25.929979
 50
243.675426
 51
339.140775
  0
ARC
  8
APS_GEOMETRY
 10
2986.253337
 20
1819.683394
 40
16.045182
 50
81.060513
 51
108.90492
  0
ARC
  8
APS_GEOMETRY
 10
2979.406268
 20
1819.347265
 40
15.603117
 50
83.935447
 51
140.76077
  0
ARC
  8
APS_GEOMETRY
 10
2961.349174
 20
1856.275742
 40
27.709831
 50
219.365327
 51
282.446624
  0
ARC
  8
APS_GEOMETRY
 10
3005.369185
 20
1892.389596
 40
84.648147
 50
178.97561
 51
219.365327
  0
ARC
  8
APS_GEOMETRY
 10
2983.775999
 20
1927.212064
 40
71.300211
 50
207.850575
 51
225.88922
  0
ARC
  8
APS_GEOMETRY
 10
2920.775154
 20
1862.224705
 40
19.212016
 50
342.183267
 51
45.88922
  0
ARC
  8
APS_GEOMETRY
 10
2932.85681
 20
1868.583964
 40
13.722629
 50
296.901685
 51
52.279122
  0
ARC
  8
APS_GEOMETRY
 10
2947.266264
 20
1891.066115
 40
13.090638
 50
242.652092
 51
273.184904
  0
ARC
  8
APS_GEOMETRY
 10
2926.722317
 20
1871.265927
 40
22.310436
 50
17.556267
 51
79.256621
  0
ARC
  8
APS_GEOMETRY
 10
2963.932703
 20
1912.352089
 40
38.206889
 50
166.897969
 51
210.109742
  0
ARC
  8
APS_GEOMETRY
 10
3004.826649
 20
1902.834242
 40
80.193842
 50
147.151765
 51
166.897969
  0
ARC
  8
APS_GEOMETRY
 10
2965.8619
 20
1927.99176
 40
33.813325
 50
52.641579
 51
147.151765
  0
ARC
  8
APS_GEOMETRY
 10
2972.800283
 20
1937.08045
 40
22.378928
 50
355.96752
 51
52.641579
  0
ARC
  8
APS_GEOMETRY
 10
2970.040679
 20
1937.274992
 40
25.14538
 50
325.452388
 51
355.96752
  0
ARC
  8
APS_GEOMETRY
 10
2985.93299
 20
1926.333054
 40
5.850522
 50
261.577388
 51
325.452388
  0
ARC
  8
APS_GEOMETRY
 10
2983.526914
 20
1924.835092
 40
4.560622
 50
176.137377
 51
289.857087
  0
ARC
  8
APS_GEOMETRY
 10
2983.567204
 20
1930.226846
 40
6.850227
 50
227.922804
 51
47.922804
  0
ARC
  8
APS_GEOMETRY
 10
2983.567204
 20
1930.226846
 40
6.850227
 50
47.922804
 51
69.511888
  0
ARC
  8
APS_GEOMETRY
 10
2981.982652
 20
1925.986088
 40
11.37735
 50
69.511888
 51
156.465545
  0
ARC
  8
APS_GEOMETRY
 10
2982.918615
 20
1925.57845
 40
12.39823
 50
156.465545
 51
257.055653
  0
ARC
  8
APS_GEOMETRY
 10
2983.967265
 20
1930.140863
 40
17.079606
 50
257.055653
 51
332.227871
  0
ARC
  8
APS_GEOMETRY
 10
2972.278525
 20
1936.296372
 40
30.290091
 50
332.227871
 51
30.209879
  0
ARC
  8
APS_GEOMETRY
 10
2963.987794
 20
1926.625789
 40
42.527253
 50
35.858115
 51
130.788925
  0
ARC
  8
APS_GEOMETRY
 10
2978.585831
 20
1909.70719
 40
64.873207
 50
130.788925
 51
180.933645
  0
ARC
  8
APS_GEOMETRY
 10
2840.337272
 20
1892.563224
 40
75.126522
 50
12.364531
 51
41.366073
  0
ARC
  8
APS_GEOMETRY
 10
2905.990017
 20
1957.316316
 40
17.722244
 50
238.461117
 51
316.872491
  0
ARC
  8
APS_GEOMETRY
 10
2936.075791
 20
1935.450951
 40
19.729059
 50
103.986116
 51
150.383297
  0
ARC
  8
APS_GEOMETRY
 10
2924.643908
 20
1951.778128
 40
7.234602
 50
22.915849
 51
150.522275
  0
ARC
  8
APS_GEOMETRY
 10
2913.080988
 20
1948.856203
 40
8.350726
 50
50.915399
 51
156.22547
  0
ARC
  8
APS_GEOMETRY
 10
2900.916487
 20
1963.253224
 40
11.921609
 50
223.782658
 51
292.29324
  0
ARC
  8
APS_GEOMETRY
 10
2833.304541
 20
1898.454972
 40
81.727677
 50
43.782658
 51
75.285495
  0
ARC
  8
APS_GEOMETRY
 10
2845.568609
 20
1945.154648
 40
33.44448
 50
75.285495
 51
122.355264
  0
ARC
  8
APS_GEOMETRY
 10
2863.318054
 20
1917.137669
 40
66.610636
 50
122.355264
 51
143.076999
  0
ARC
  8
APS_GEOMETRY
 10
2746.432241
 20
2004.971416
 40
79.598325
 50
307.4173
 51
323.076999
  0
ARC
  8
APS_GEOMETRY
 10
2785.100743
 20
1954.426751
 40
15.958587
 50
238.23695
 51
307.4173
  0
ARC
  8
APS_GEOMETRY
 10
2777.673145
 20
1947.74753
 40
6.957674
 50
261.960066
 51
81.960066
  0
ARC
  8
APS_GEOMETRY
 10
2777.673145
 20
1947.74753
 40
6.957674
 50
81.960066
 51
100.356356
  0
ARC
  8
APS_GEOMETRY
 10
2778.532693
 20
1943.044049
 40
11.73905
 50
100.356356
 51
264.317283
  0
ARC
  8
APS_GEOMETRY
 10
2790.917164
 20
1907.25701
 40
27.651427
 50
119.33504
 51
159.316922
  0
ARC
  8
APS_GEOMETRY
 10
2792.729122
 20
1906.57294
 40
29.588214
 50
159.316922
 51
207.224053
  0
ARC
  8
APS_GEOMETRY
 10
2774.084761
 20
1896.981144
 40
8.621222
 50
207.224053
 51
254.601706
  0
ARC
  8
APS_GEOMETRY
 10
2999.879717
 20
860.837148
 40
33.120127
 50
321.451366
 51
49.670215
  0
ARC
  8
APS_GEOMETRY
 10
3021.322362
 20
843.75116
 40
5.702651
 50
269.922064
 51
321.451366
  0
ARC
  8
APS_GEOMETRY
 10
3021.306848
 20
843.75116
 40
5.702651
 50
218.548634
 51
270.077936
  0
ARC
  8
APS_GEOMETRY
 10
3042.749494
 20
860.837148
 40
33.120127
 50
130.329785
 51
218.548634
  0
ARC
  8
APS_GEOMETRY
 10
2774.084761
 20
1896.981144
 40
8.621222
 50
299.254842
 51
7.208094
  0
ARC
  8
APS_GEOMETRY
 10
2777.97456
 20
1898.986638
 40
4.753904
 50
348.795223
 51
168.795223
  0
ARC
  8
APS_GEOMETRY
 10
2777.97456
 20
1898.986638
 40
4.753904
 50
168.795223
 51
188.410415
  0
ARC
  8
APS_GEOMETRY
 10
2788.103002
 20
1907.616731
 40
17.519374
 50
157.637773
 51
212.160412
  0
ARC
  8
APS_GEOMETRY
 10
2789.059793
 20
1910.084014
 40
17.664766
 50
117.839822
 51
166.251716
  0
ARC
  8
APS_GEOMETRY
 10
2709.320982
 20
2061.067673
 40
153.081664
 50
297.839822
 51
304.296797
  0
ARC
  8
APS_GEOMETRY
 10
2730.876761
 20
2029.464287
 40
114.826918
 50
304.296797
 51
324.730974
  0
ARC
  8
APS_GEOMETRY
 10
2836.450011
 20
1957.802546
 40
12.980603
 50
155.617162
 51
254.699185
  0
ARC
  8
APS_GEOMETRY
 10
2835.705491
 20
1955.081191
 40
10.159241
 50
254.699185
 51
10.587997
  0
ARC
  8
APS_GEOMETRY
 10
2839.920127
 20
1956.746426
 40
5.775147
 50
1.999291
 51
168.125668
  0
ARC
  8
APS_GEOMETRY
 10
2833.16684
 20
1957.347968
 40
1.248241
 50
139.279464
 51
319.279464
  0
ARC
  8
APS_GEOMETRY
 10
2833.16684
 20
1957.347968
 40
1.248241
 50
319.279464
 51
28.040153
  0
ARC
  8
APS_GEOMETRY
 10
2841.881308
 20
1959.31889
 40
9.729502
 50
101.408473
 51
186.827253
  0
ARC
  8
APS_GEOMETRY
 10
2847.294356
 20
1932.493637
 40
37.095454
 50
44.767314
 51
101.408473
  0
ARC
  8
APS_GEOMETRY
 10
2760.159274
 20
1846.063432
 40
159.825657
 50
24.983343
 51
44.767314
  0
ARC
  8
APS_GEOMETRY
 10
2868.17445
 20
1896.393511
 40
40.660246
 50
359.283946
 51
24.983343
  0
ARC
  8
APS_GEOMETRY
 10
2848.690482
 20
1867.648883
 40
66.439777
 50
25.150268
 51
51.552442
  0
ARC
  8
APS_GEOMETRY
 10
2896.885145
 20
1941.210279
 40
22.600704
 50
213.196943
 51
252.270253
  0
ARC
  8
APS_GEOMETRY
 10
2891.418425
 20
1924.913283
 40
14.00594
 50
163.735418
 51
234.683988
  0
ARC
  8
APS_GEOMETRY
 10
2889.592341
 20
1909.547584
 40
7.404137
 50
147.875884
 51
227.313403
  0
ARC
  8
APS_GEOMETRY
 10
2885.367669
 20
1889.860892
 40
14.266291
 50
32.561916
 51
93.195477
  0
ARC
  8
APS_GEOMETRY
 10
2898.798412
 20
1884.563814
 40
13.051407
 50
96.188616
 51
124.261103
  0
ARC
  8
APS_GEOMETRY
 10
2888.412928
 20
1880.03479
 40
15.614157
 50
12.707539
 51
78.78058
  0
ARC
  8
APS_GEOMETRY
 10
2839.034713
 20
1868.900102
 40
66.232232
 50
317.565214
 51
12.707539
  0
ARC
  8
APS_GEOMETRY
 10
2873.571544
 20
1837.325168
 40
19.437262
 50
245.022673
 51
317.565214
  0
ARC
  8
APS_GEOMETRY
 10
2869.523882
 20
1822.936773
 40
5.267274
 50
168.948543
 51
217.836453
  0
ARC
  8
APS_GEOMETRY
 10
2867.003107
 20
1829.259218
 40
5.936467
 50
243.500208
 51
44.735518
  0
ARC
  8
APS_GEOMETRY
 10
2865.777513
 20
1829.392231
 40
6.781346
 50
36.621825
 51
162.61763
  0
ARC
  8
APS_GEOMETRY
 10
2865.449409
 20
1824.552271
 40
9.213218
 50
131.822064
 51
197.8698
  0
ARC
  8
APS_GEOMETRY
 10
2859.425182
 20
1819.41205
 40
3.589258
 50
139.875497
 51
224.896391
  0
ARC
  8
APS_GEOMETRY
 10
2859.151433
 20
1811.200654
 40
6.114513
 50
111.78074
 51
195.089158
  0
ARC
  8
APS_GEOMETRY
 10
2845.45361
 20
1806.283462
 40
8.473904
 50
330.705827
 51
23.106057
  0
ARC
  8
APS_GEOMETRY
 10
2854.400905
 20
1801.26367
 40
1.785355
 50
150.705827
 51
258.844454
  0
ARC
  8
APS_GEOMETRY
 10
2856.017282
 20
1798.825295
 40
2.078527
 50
160.706697
 51
340.706697
  0
ARC
  8
APS_GEOMETRY
 10
2856.017282
 20
1798.825295
 40
2.078527
 50
340.706697
 51
2.231772
  0
ARC
  8
APS_GEOMETRY
 10
2861.455464
 20
1800.91244
 40
3.914426
 50
210.831519
 51
3.150128
  0
ARC
  8
APS_GEOMETRY
 10
2865.186465
 20
1803.933498
 40
2.81156
 50
273.619808
 51
60.390959
  0
ARC
  8
APS_GEOMETRY
 10
2862.536852
 20
1807.387603
 40
4.163044
 50
345.963757
 51
50.906141
  0
ARC
  8
APS_GEOMETRY
 10
2865.654715
 20
1813.002919
 40
2.434689
 50
122.284562
 51
258.325131
  0
ARC
  8
APS_GEOMETRY
 10
2875.605249
 20
1829.180708
 40
18.053922
 50
231.450792
 51
311.537876
  0
ARC
  8
APS_GEOMETRY
 10
2934.023831
 20
1783.831796
 40
56.309709
 50
145.572733
 51
175.547198
  0
ARC
  8
APS_GEOMETRY
 10
2884.043173
 20
1799.41108
 40
12.788387
 50
218.58916
 51
241.209025
  0
ARC
  8
APS_GEOMETRY
 10
2868.982458
 20
1791.226805
 40
5.069079
 50
2.348881
 51
173.069899
  0
ARC
  8
APS_GEOMETRY
 10
2869.655142
 20
1789.263732
 40
6.258834
 50
155.709038
 51
294.290962
  0
ARC
  8
APS_GEOMETRY
 10
2870.326252
 20
1778.949619
 40
4.98699
 50
1.596599
 51
67.560286
  0
ARC
  8
APS_GEOMETRY
 10
3293.058438
 20
1790.732486
 40
417.909377
 50
181.596599
 51
184.703313
  0
ARC
  8
APS_GEOMETRY
 10
2869.521055
 20
1752.604146
 40
8.025279
 50
28.760712
 51
149.806968
  0
ARC
  8
APS_GEOMETRY
 10
2872.312171
 20
1750.980132
 40
11.254481
 50
149.806968
 51
204.371356
  0
ARC
  8
APS_GEOMETRY
 10
2866.309195
 20
1748.26068
 40
4.664251
 50
204.371356
 51
20.720109
  0
ARC
  8
APS_GEOMETRY
 10
2872.087992
 20
1745.346832
 40
4.778754
 50
19.545364
 51
107.239095
  0
ARC
  8
APS_GEOMETRY
 10
2970.737967
 20
1780.368546
 40
99.903327
 50
199.545364
 51
252.216463
  0
ARC
  8
APS_GEOMETRY
 10
2951.231213
 20
1719.552087
 40
36.035062
 50
252.216463
 51
316.398251
  0
ARC
  8
APS_GEOMETRY
 10
2962.576837
 20
1708.747134
 40
20.367574
 50
316.398251
 51
34.719266
  0
ARC
  8
APS_GEOMETRY
 10
2972.330167
 20
1715.505513
 40
8.501524
 50
34.719266
 51
154.968734
  0
ARC
  8
APS_GEOMETRY
 10
2974.183821
 20
1714.639908
 40
10.547325
 50
154.968734
 51
217.997413
  0
ARC
  8
APS_GEOMETRY
 10
2969.823204
 20
1711.233338
 40
5.013819
 50
217.997413
 51
358.872485
  0
ARC
  8
APS_GEOMETRY
 10
2957.805633
 20
1708.671217
 40
17.207667
 50
270.328143
 51
8.230784
  0
ARC
  8
APS_GEOMETRY
 10
2957.70239
 20
1726.697863
 40
35.234609
 50
169.619636
 51
270.328143
  0
ARC
  8
APS_GEOMETRY
 10
2933.570827
 20
1731.118285
 40
10.70152
 50
137.122417
 51
169.619636
  0
ARC
  8
APS_GEOMETRY
 10
2924.569266
 20
1748.035492
 40
9.705027
 50
276.8611
 51
359.871822
  0
ARC
  8
APS_GEOMETRY
 10
2929.251563
 20
1742.117091
 40
7.745871
 50
49.576172
 51
97.644748
  0
ARC
  8
APS_GEOMETRY
 10
2917.165239
 20
1757.154738
 40
13.281995
 50
326.345717
 51
51.834837
  0
ARC
  8
APS_GEOMETRY
 10
2925.986641
 20
1763.811513
 40
3.835438
 50
99.212688
 51
154.527107
  0
ARC
  8
APS_GEOMETRY
 10
2908.052461
 20
1765.295757
 40
14.472533
 50
309.115837
 51
0.654493
  0
ARC
  8
APS_GEOMETRY
 10
2909.305055
 20
1751.908265
 40
8.168383
 50
15.323572
 51
60.990881
  0
ARC
  8
APS_GEOMETRY
 10
2943.258584
 20
1735.748003
 40
37.981665
 50
142.152962
 51
163.414815
  0
ARC
  8
APS_GEOMETRY
 10
2947.505205
 20
1734.483226
 40
42.41263
 50
163.414815
 51
232.107009
  0
ARC
  8
APS_GEOMETRY
 10
2960.274136
 20
1766.014022
 40
75.710002
 50
174.375043
 51
239.154597
  0
ARC
  8
APS_GEOMETRY
 10
2878.807097
 20
1782.388168
 40
10.846012
 50
304.361324
 51
29.426635
  0
ARC
  8
APS_GEOMETRY
 10
2929.582963
 20
1763.382294
 40
47.96115
 50
123.154029
 51
149.510411
  0
ARC
  8
APS_GEOMETRY
 10
2905.630333
 20
1808.224678
 40
5.212723
 50
244.100044
 51
31.721632
  0
ARC
  8
APS_GEOMETRY
 10
2909.635574
 20
1816.702059
 40
5.75257
 50
274.2745
 51
24.794411
  0
ARC
  8
APS_GEOMETRY
 10
2917.814584
 20
1785.400469
 40
33.843413
 50
95.012021
 51
156.340796
  0
ARC
  8
APS_GEOMETRY
 10
2927.221218
 20
1785.348537
 40
42.64345
 50
107.73301
 51
161.355164
  0
ARC
  8
APS_GEOMETRY
 10
2921.461491
 20
1803.360312
 40
23.733175
 50
349.209918
 51
107.73301
  0
ARC
  8
APS_GEOMETRY
 10
2929.800806
 20
1801.770998
 40
15.243765
 50
293.470466
 51
349.209918
  0
ARC
  8
APS_GEOMETRY
 10
2935.399533
 20
1788.876635
 40
1.186369
 50
106.495747
 51
286.495747
  0
ARC
  8
APS_GEOMETRY
 10
2935.399533
 20
1788.876635
 40
1.186369
 50
286.495747
 51
293.470466
  0
ARC
  8
APS_GEOMETRY
 10
2933.071169
 20
1796.739202
 40
7.013706
 50
286.495747
 51
76.923881
  0
ARC
  8
APS_GEOMETRY
 10
2932.316853
 20
1793.491587
 40
10.347772
 50
76.923881
 51
205.909659
  0
ARC
  8
APS_GEOMETRY
 10
2922.324364
 20
1781.08197
 40
7.917795
 50
85.038127
 51
130.544675
  0
ARC
  8
APS_GEOMETRY
 10
2911.894759
 20
1782.408412
 40
7.064408
 50
41.600428
 51
87.584136
  0
ARC
  8
APS_GEOMETRY
 10
2917.563951
 20
1788.263169
 40
5.504558
 50
167.372378
 51
235.368867
  0
ARC
  8
APS_GEOMETRY
 10
2921.882006
 20
1774.293646
 40
12.023491
 50
128.265631
 51
152.929258
  0
ARC
  8
APS_GEOMETRY
 10
2902.646148
 20
1771.082175
 40
12.171803
 50
45.511429
 51
93.168299
  0
ARC
  8
APS_GEOMETRY
 10
2891.177925
 20
1778.172548
 40
11.923715
 50
25.125425
 51
64.874575
  0
ARC
  8
APS_GEOMETRY
 10
2875.670839
 20
1784.408713
 40
21.069141
 50
353.746664
 51
12.497597
  0
ARC
  8
APS_GEOMETRY
 10
2894.639339
 20
1777.178677
 40
5.315712
 50
68.186119
 51
115.18325
  0
ARC
  8
APS_GEOMETRY
 10
2876.496296
 20
1781.369877
 40
15.893197
 50
335.921353
 51
2.233038
  0
ARC
  8
APS_GEOMETRY
 10
2892.502048
 20
1767.944086
 40
7.100787
 50
62.850318
 51
102.157966
  0
ARC
  8
APS_GEOMETRY
 10
2910.289094
 20
1769.537384
 40
15.295004
 50
162.005158
 51
190.366692
  0
ARC
  8
APS_GEOMETRY
 10
2895.882733
 20
1770.225504
 40
3.499249
 50
259.478622
 51
6.941557
  0
ARC
  8
APS_GEOMETRY
 10
2902.989623
 20
1779.293639
 40
9.377673
 50
247.204665
 51
344.93464
  0
ARC
  8
APS_GEOMETRY
 10
2915.807892
 20
1781.977584
 40
6.355168
 50
233.693699
 51
298.381249
  0
ARC
  8
APS_GEOMETRY
 10
2922.452331
 20
1773.771786
 40
4.468337
 50
144.188836
 51
215.811164
  0
ARC
  8
APS_GEOMETRY
 10
2918.713905
 20
1776.789605
 40
5.633484
 50
271.167958
 51
355.894441
  0
ARC
  8
APS_GEOMETRY
 10
2917.340098
 20
1786.493991
 40
12.290872
 50
304.676713
 51
338.003671
  0
ARC
  8
APS_GEOMETRY
 10
2933.819155
 20
1797.840309
 40
16.740149
 50
252.324051
 51
327.606287
  0
ARC
  8
APS_GEOMETRY
 10
2924.989722
 20
1803.442279
 40
27.196772
 50
327.606287
 51
25.441087
  0
ARC
  8
APS_GEOMETRY
 10
3199.355668
 20
2046.304385
 40
340.362969
 50
222.782149
 51
230.512304
  0
ARC
  8
APS_GEOMETRY
 10
2910.985496
 20
1696.330295
 40
113.111638
 50
42.740917
 51
50.512304
  0
ARC
  8
APS_GEOMETRY
 10
2993.690873
 20
1772.758049
 40
0.5
 50
236.395883
 51
42.740917
  0
ARC
  8
APS_GEOMETRY
 10
2978.694161
 20
1750.189701
 40
26.59671
 50
56.395883
 51
108.753471
  0
ARC
  8
APS_GEOMETRY
 10
2966.875023
 20
1785.000832
 40
10.166136
 50
189.001589
 51
288.753471
  0
ARC
  8
APS_GEOMETRY
 10
2965.020865
 20
1776.721271
 40
10.571909
 50
140.749685
 51
297.438033
  0
ARC
  8
APS_GEOMETRY
 10
2973.723245
 20
1764.205192
 40
4.949192
 50
140.719684
 51
303.036055
  0
ARC
  8
APS_GEOMETRY
 10
2984.737487
 20
1745.707058
 40
16.584753
 50
36.386935
 51
120.094714
  0
ARC
  8
APS_GEOMETRY
 10
2829.108713
 20
1631.022397
 40
209.905436
 50
31.884945
 51
36.386935
  0
ARC
  8
APS_GEOMETRY
 10
2985.231867
 20
1728.143595
 40
26.038729
 50
295.567316
 51
31.884945
  0
ARC
  8
APS_GEOMETRY
 10
2992.757731
 20
1710.866973
 40
7.236727
 50
300.857056
 51
95.419109
  0
ARC
  8
APS_GEOMETRY
 10
2992.961242
 20
1708.721685
 40
9.391646
 50
95.419109
 51
224.748079
  0
ARC
  8
APS_GEOMETRY
 10
2996.36957
 20
1712.100173
 40
14.190695
 50
224.748079
 51
288.466925
  0
ARC
  8
APS_GEOMETRY
 10
2996.916682
 20
1710.461884
 40
12.463466
 50
288.466925
 51
316.475459
  0
ARC
  8
APS_GEOMETRY
 10
2972.59289
 20
1733.564109
 40
46.009846
 50
316.475459
 51
32.59446
  0
ARC
  8
APS_GEOMETRY
 10
3033.260242
 20
1772.354234
 40
25.998495
 50
171.126011
 51
212.59446
  0
ARC
  8
APS_GEOMETRY
 10
3015.202084
 20
1775.173667
 40
7.721563
 50
105.60691
 51
171.126011
  0
ARC
  8
APS_GEOMETRY
 10
3024.960745
 20
1780.412966
 40
12.038319
 50
169.481793
 51
215.878974
  0
ARC
  8
APS_GEOMETRY
 10
3015.162553
 20
1776.959641
 40
3.602303
 50
270.700831
 51
12.718843
  0
ARC
  8
APS_GEOMETRY
 10
3027.420663
 20
1785.872937
 40
11.933083
 50
222.880922
 51
239.223432
  0
ARC
  8
APS_GEOMETRY
 10
3015.208548
 20
1785.872937
 40
11.933083
 50
300.776568
 51
317.119078
  0
ARC
  8
APS_GEOMETRY
 10
3027.466657
 20
1776.959641
 40
3.602303
 50
167.281157
 51
269.299169
  0
ARC
  8
APS_GEOMETRY
 10
3017.668466
 20
1780.412966
 40
12.038319
 50
324.121026
 51
10.518207
  0
ARC
  8
APS_GEOMETRY
 10
3027.427127
 20
1775.173667
 40
7.721563
 50
8.873989
 51
74.39309
  0
ARC
  8
APS_GEOMETRY
 10
3009.368969
 20
1772.354234
 40
25.998495
 50
327.40554
 51
8.873989
  0
ARC
  8
APS_GEOMETRY
 10
3070.03632
 20
1733.564109
 40
46.009846
 50
147.40554
 51
223.524541
  0
ARC
  8
APS_GEOMETRY
 10
3045.712529
 20
1710.461884
 40
12.463466
 50
223.524541
 51
251.533075
  0
ARC
  8
APS_GEOMETRY
 10
3046.259641
 20
1712.100173
 40
14.190695
 50
251.533075
 51
315.251921
  0
ARC
  8
APS_GEOMETRY
 10
3049.667969
 20
1708.721685
 40
9.391646
 50
315.251921
 51
84.580891
  0
ARC
  8
APS_GEOMETRY
 10
3049.87148
 20
1710.866973
 40
7.236727
 50
84.580891
 51
239.142944
  0
ARC
  8
APS_GEOMETRY
 10
3057.397344
 20
1728.143595
 40
26.038729
 50
148.115055
 51
244.432684
  0
ARC
  8
APS_GEOMETRY
 10
3213.520498
 20
1631.022397
 40
209.905436
 50
143.613065
 51
148.115055
  0
ARC
  8
APS_GEOMETRY
 10
3057.891724
 20
1745.707058
 40
16.584753
 50
59.905286
 51
143.613065
  0
ARC
  8
APS_GEOMETRY
 10
3068.905966
 20
1764.205192
 40
4.949192
 50
236.963945
 51
39.280316
  0
ARC
  8
APS_GEOMETRY
 10
3077.608346
 20
1776.721271
 40
10.571909
 50
242.561967
 51
39.250315
  0
ARC
  8
APS_GEOMETRY
 10
3075.754188
 20
1785.000832
 40
10.166136
 50
251.246529
 51
350.998411
  0
ARC
  8
APS_GEOMETRY
 10
3063.93505
 20
1750.189701
 40
26.59671
 50
71.246529
 51
123.604117
  0
ARC
  8
APS_GEOMETRY
 10
3048.938338
 20
1772.758049
 40
0.5
 50
137.259083
 51
303.604117
  0
ARC
  8
APS_GEOMETRY
 10
3131.643715
 20
1696.330295
 40
113.111638
 50
129.487696
 51
137.259083
  0
ARC
  8
APS_GEOMETRY
 10
2843.273543
 20
2046.304385
 40
340.362969
 50
309.487696
 51
317.217851
  0
ARC
  8
APS_GEOMETRY
 10
3117.639489
 20
1803.442279
 40
27.196772
 50
154.558913
 51
212.393713
  0
ARC
  8
APS_GEOMETRY
 10
3108.810056
 20
1797.840309
 40
16.740149
 50
212.393713
 51
287.675949
  0
ARC
  8
APS_GEOMETRY
 10
3125.289112
 20
1786.493991
 40
12.290872
 50
201.996329
 51
235.323287
  0
ARC
  8
APS_GEOMETRY
 10
3123.915306
 20
1776.789605
 40
5.633484
 50
184.105559
 51
268.832042
  0
ARC
  8
APS_GEOMETRY
 10
3120.176879
 20
1773.771786
 40
4.468337
 50
324.188836
 51
35.811164
  0
ARC
  8
APS_GEOMETRY
 10
3126.821319
 20
1781.977584
 40
6.355168
 50
241.618751
 51
306.306301
  0
ARC
  8
APS_GEOMETRY
 10
3139.639587
 20
1779.293639
 40
9.377673
 50
195.06536
 51
292.795335
  0
ARC
  8
APS_GEOMETRY
 10
3146.746478
 20
1770.225504
 40
3.499249
 50
173.058443
 51
280.521378
  0
ARC
  8
APS_GEOMETRY
 10
3132.340117
 20
1769.537384
 40
15.295004
 50
349.633308
 51
17.994842
  0
ARC
  8
APS_GEOMETRY
 10
3150.127163
 20
1767.944086
 40
7.100787
 50
77.842034
 51
117.149682
  0
ARC
  8
APS_GEOMETRY
 10
3166.132915
 20
1781.369877
 40
15.893197
 50
177.766962
 51
204.078647
  0
ARC
  8
APS_GEOMETRY
 10
3147.989872
 20
1777.178677
 40
5.315712
 50
64.81675
 51
111.813881
  0
ARC
  8
APS_GEOMETRY
 10
3166.958372
 20
1784.408713
 40
21.069141
 50
167.502403
 51
186.253336
  0
ARC
  8
APS_GEOMETRY
 10
3151.451286
 20
1778.172548
 40
11.923715
 50
115.125425
 51
154.874575
  0
ARC
  8
APS_GEOMETRY
 10
3139.983063
 20
1771.082175
 40
12.171803
 50
86.831701
 51
134.488571
  0
ARC
  8
APS_GEOMETRY
 10
3120.747204
 20
1774.293646
 40
12.023491
 50
27.070742
 51
51.734369
  0
ARC
  8
APS_GEOMETRY
 10
3125.06526
 20
1788.263169
 40
5.504558
 50
304.631133
 51
12.627622
  0
ARC
  8
APS_GEOMETRY
 10
3130.734452
 20
1782.408412
 40
7.064408
 50
92.415864
 51
138.399572
  0
ARC
  8
APS_GEOMETRY
 10
3120.304847
 20
1781.08197
 40
7.917795
 50
49.455325
 51
94.961873
  0
ARC
  8
APS_GEOMETRY
 10
3110.312358
 20
1793.491587
 40
10.347772
 50
334.090341
 51
103.076119
  0
ARC
  8
APS_GEOMETRY
 10
3109.558041
 20
1796.739202
 40
7.013706
 50
103.076119
 51
253.504253
  0
ARC
  8
APS_GEOMETRY
 10
3107.229678
 20
1788.876635
 40
1.186369
 50
246.529534
 51
66.529534
  0
ARC
  8
APS_GEOMETRY
 10
3107.229678
 20
1788.876635
 40
1.186369
 50
66.529534
 51
73.504253
  0
ARC
  8
APS_GEOMETRY
 10
3112.828405
 20
1801.770998
 40
15.243765
 50
190.790082
 51
246.529534
  0
ARC
  8
APS_GEOMETRY
 10
3121.16772
 20
1803.360312
 40
23.733175
 50
72.26699
 51
190.790082
  0
ARC
  8
APS_GEOMETRY
 10
3115.407993
 20
1785.348537
 40
42.64345
 50
18.644836
 51
72.26699
  0
ARC
  8
APS_GEOMETRY
 10
3124.814627
 20
1785.400469
 40
33.843413
 50
23.659204
 51
84.987979
  0
ARC
  8
APS_GEOMETRY
 10
3132.993637
 20
1816.702059
 40
5.75257
 50
155.205589
 51
265.7255
  0
ARC
  8
APS_GEOMETRY
 10
3136.998878
 20
1808.224678
 40
5.212723
 50
148.278368
 51
295.899956
  0
ARC
  8
APS_GEOMETRY
 10
3113.046247
 20
1763.382294
 40
47.96115
 50
30.489589
 51
56.845971
  0
ARC
  8
APS_GEOMETRY
 10
3163.822114
 20
1782.388168
 40
10.846012
 50
150.573365
 51
235.638676
  0
ARC
  8
APS_GEOMETRY
 10
3082.355074
 20
1766.014022
 40
75.710002
 50
300.845403
 51
5.624957
  0
ARC
  8
APS_GEOMETRY
 10
3095.124005
 20
1734.483226
 40
42.41263
 50
307.892991
 51
16.585185
  0
ARC
  8
APS_GEOMETRY
 10
3099.370626
 20
1735.748003
 40
37.981665
 50
16.585185
 51
37.847038
  0
ARC
  8
APS_GEOMETRY
 10
3133.324156
 20
1751.908265
 40
8.168383
 50
119.009119
 51
164.676428
  0
ARC
  8
APS_GEOMETRY
 10
3134.576749
 20
1765.295757
 40
14.472533
 50
179.345507
 51
230.884163
  0
ARC
  8
APS_GEOMETRY
 10
3116.64257
 20
1763.811513
 40
3.835438
 50
25.472893
 51
80.787312
  0
ARC
  8
APS_GEOMETRY
 10
3125.463972
 20
1757.154738
 40
13.281995
 50
128.165163
 51
213.654283
  0
ARC
  8
APS_GEOMETRY
 10
3113.377648
 20
1742.117091
 40
7.745871
 50
82.355252
 51
130.423828
  0
ARC
  8
APS_GEOMETRY
 10
3118.059945
 20
1748.035492
 40
9.705027
 50
180.128178
 51
263.1389
  0
ARC
  8
APS_GEOMETRY
 10
3109.058384
 20
1731.118285
 40
10.70152
 50
10.380364
 51
42.877583
  0
ARC
  8
APS_GEOMETRY
 10
3084.926821
 20
1726.697863
 40
35.234609
 50
269.671857
 51
10.380364
  0
ARC
  8
APS_GEOMETRY
 10
3084.823578
 20
1708.671217
 40
17.207667
 50
171.769216
 51
269.671857
  0
ARC
  8
APS_GEOMETRY
 10
3072.806007
 20
1711.233338
 40
5.013819
 50
181.127515
 51
322.002587
  0
ARC
  8
APS_GEOMETRY
 10
3068.44539
 20
1714.639908
 40
10.547325
 50
322.002587
 51
25.031266
  0
ARC
  8
APS_GEOMETRY
 10
3070.299044
 20
1715.505513
 40
8.501524
 50
25.031266
 51
145.280734
  0
ARC
  8
APS_GEOMETRY
 10
3080.052373
 20
1708.747134
 40
20.367574
 50
145.280734
 51
223.601749
  0
ARC
  8
APS_GEOMETRY
 10
3091.397998
 20
1719.552087
 40
36.035062
 50
223.601749
 51
287.783537
  0
ARC
  8
APS_GEOMETRY
 10
3071.891243
 20
1780.368546
 40
99.903327
 50
287.783537
 51
340.454636
  0
ARC
  8
APS_GEOMETRY
 10
3170.541219
 20
1745.346832
 40
4.778754
 50
72.760905
 51
160.454636
  0
ARC
  8
APS_GEOMETRY
 10
3176.320016
 20
1748.26068
 40
4.664251
 50
159.279891
 51
335.628644
  0
ARC
  8
APS_GEOMETRY
 10
3170.31704
 20
1750.980132
 40
11.254481
 50
335.628644
 51
30.193032
  0
ARC
  8
APS_GEOMETRY
 10
3173.108156
 20
1752.604146
 40
8.025279
 50
30.193032
 51
151.239288
  0
ARC
  8
APS_GEOMETRY
 10
2749.570772
 20
1790.732486
 40
417.909377
 50
355.296687
 51
358.403401
  0
ARC
  8
APS_GEOMETRY
 10
3172.302959
 20
1778.949619
 40
4.98699
 50
112.439714
 51
178.403401
  0
ARC
  8
APS_GEOMETRY
 10
3172.974069
 20
1789.263732
 40
6.258834
 50
245.709038
 51
24.290962
  0
ARC
  8
APS_GEOMETRY
 10
3173.646753
 20
1791.226805
 40
5.069079
 50
6.930101
 51
177.651119
  0
ARC
  8
APS_GEOMETRY
 10
3158.586038
 20
1799.41108
 40
12.788387
 50
298.790975
 51
321.41084
  0
ARC
  8
APS_GEOMETRY
 10
3108.60538
 20
1783.831796
 40
56.309709
 50
4.452802
 51
34.427267
  0
ARC
  8
APS_GEOMETRY
 10
3167.023962
 20
1829.180708
 40
18.053922
 50
228.462124
 51
308.549208
  0
ARC
  8
APS_GEOMETRY
 10
3176.974495
 20
1813.002919
 40
2.434689
 50
281.674869
 51
57.715438
  0
ARC
  8
APS_GEOMETRY
 10
3180.092358
 20
1807.387603
 40
4.163044
 50
129.093859
 51
194.036243
  0
ARC
  8
APS_GEOMETRY
 10
3177.442746
 20
1803.933498
 40
2.81156
 50
119.609041
 51
266.380192
  0
ARC
  8
APS_GEOMETRY
 10
3181.173747
 20
1800.91244
 40
3.914426
 50
176.849872
 51
329.168481
  0
ARC
  8
APS_GEOMETRY
 10
3186.611929
 20
1798.825295
 40
2.078527
 50
177.768228
 51
357.768228
  0
ARC
  8
APS_GEOMETRY
 10
3186.611929
 20
1798.825295
 40
2.078527
 50
357.768228
 51
19.293303
  0
ARC
  8
APS_GEOMETRY
 10
3188.228306
 20
1801.26367
 40
1.785355
 50
281.155546
 51
29.294173
  0
ARC
  8
APS_GEOMETRY
 10
3197.175601
 20
1806.283462
 40
8.473904
 50
156.893943
 51
209.294173
  0
ARC
  8
APS_GEOMETRY
 10
3183.477778
 20
1811.200654
 40
6.114513
 50
344.910842
 51
68.21926
  0
ARC
  8
APS_GEOMETRY
 10
3183.204028
 20
1819.41205
 40
3.589258
 50
315.103609
 51
40.124503
  0
ARC
  8
APS_GEOMETRY
 10
3177.179801
 20
1824.552271
 40
9.213218
 50
342.1302
 51
48.177936
  0
ARC
  8
APS_GEOMETRY
 10
3176.851698
 20
1829.392231
 40
6.781346
 50
17.38237
 51
143.378175
  0
ARC
  8
APS_GEOMETRY
 10
3175.626104
 20
1829.259218
 40
5.936467
 50
135.264482
 51
296.499792
  0
ARC
  8
APS_GEOMETRY
 10
3173.105328
 20
1822.936773
 40
5.267274
 50
322.163547
 51
11.051457
  0
ARC
  8
APS_GEOMETRY
 10
3169.057666
 20
1837.325168
 40
19.437262
 50
222.434786
 51
294.977327
  0
ARC
  8
APS_GEOMETRY
 10
3203.594498
 20
1868.900102
 40
66.232232
 50
167.292461
 51
222.434786
  0
ARC
  8
APS_GEOMETRY
 10
3154.216282
 20
1880.03479
 40
15.614157
 50
101.21942
 51
167.292461
  0
ARC
  8
APS_GEOMETRY
 10
3143.830799
 20
1884.563814
 40
13.051407
 50
55.738897
 51
83.811384
  0
ARC
  8
APS_GEOMETRY
 10
3157.261542
 20
1889.860892
 40
14.266291
 50
86.804523
 51
147.438084
  0
ARC
  8
APS_GEOMETRY
 10
3153.036869
 20
1909.547584
 40
7.404137
 50
312.686597
 51
32.124116
  0
ARC
  8
APS_GEOMETRY
 10
3151.210786
 20
1924.913283
 40
14.00594
 50
305.316012
 51
16.264582
  0
ARC
  8
APS_GEOMETRY
 10
3145.744066
 20
1941.210279
 40
22.600704
 50
287.729747
 51
326.803057
  0
ARC
  8
APS_GEOMETRY
 10
3193.938729
 20
1867.648883
 40
66.439777
 50
128.447558
 51
154.849732
  0
ARC
  8
APS_GEOMETRY
 10
3174.454761
 20
1896.393511
 40
40.660246
 50
155.016657
 51
180.716054
  0
ARC
  8
APS_GEOMETRY
 10
3282.469937
 20
1846.063432
 40
159.825657
 50
135.232686
 51
155.016657
  0
ARC
  8
APS_GEOMETRY
 10
3195.334855
 20
1932.493637
 40
37.095454
 50
78.591527
 51
135.232686
  0
ARC
  8
APS_GEOMETRY
 10
3200.747903
 20
1959.31889
 40
9.729502
 50
353.172747
 51
78.591527
  0
ARC
  8
APS_GEOMETRY
 10
3209.462371
 20
1957.347968
 40
1.248241
 50
151.959847
 51
331.959847
  0
ARC
  8
APS_GEOMETRY
 10
3209.462371
 20
1957.347968
 40
1.248241
 50
331.959847
 51
40.720536
  0
ARC
  8
APS_GEOMETRY
 10
3202.709084
 20
1956.746426
 40
5.775147
 50
11.874332
 51
178.000709
  0
ARC
  8
APS_GEOMETRY
 10
3206.92372
 20
1955.081191
 40
10.159241
 50
169.412003
 51
285.300815
  0
ARC
  8
APS_GEOMETRY
 10
3206.1792
 20
1957.802546
 40
12.980603
 50
285.300815
 51
24.382838
  0
ARC
  8
APS_GEOMETRY
 10
3311.75245
 20
2029.464287
 40
114.826918
 50
215.269026
 51
235.703203
  0
ARC
  8
APS_GEOMETRY
 10
3333.308229
 20
2061.067673
 40
153.081664
 50
235.703203
 51
242.160178
  0
ARC
  8
APS_GEOMETRY
 10
3253.569418
 20
1910.084014
 40
17.664766
 50
13.748284
 51
62.160178
  0
ARC
  8
APS_GEOMETRY
 10
3254.526209
 20
1907.616731
 40
17.519374
 50
327.839588
 51
22.362227
  0
ARC
  8
APS_GEOMETRY
 10
3264.654651
 20
1898.986638
 40
4.753904
 50
351.589585
 51
171.589585
  0
ARC
  8
APS_GEOMETRY
 10
3264.654651
 20
1898.986638
 40
4.753904
 50
171.589585
 51
191.204777
  0
ARC
  8
APS_GEOMETRY
 10
3268.54445
 20
1896.981144
 40
8.621222
 50
172.791906
 51
240.745158
  0
LINE
  8
APS_GEOMETRY
 10
3264.331302
 11
3264.331302
 20
1889.459518
 21
1119.237802
  0
ARC
  8
APS_GEOMETRY
 10
3266.978967
 20
1110.760292
 40
8.881346
 50
107.344434
 51
142.910092
  0
ARC
  8
APS_GEOMETRY
 10
3268.352476
 20
1109.721896
 40
10.603204
 50
142.910092
 51
205.668721
  0
ARC
  8
APS_GEOMETRY
 10
3264.230009
 20
1107.740658
 40
6.029362
 50
205.668721
 51
349.036037
  0
ARC
  8
APS_GEOMETRY
 10
3242.59447
 20
1095.863314
 40
29.570519
 50
326.382353
 51
21.277297
  0
ARC
  8
APS_GEOMETRY
 10
4368.717958
 20
347.168611
 40
1322.72304
 50
146.382353
 51
146.847161
  0
ARC
  8
APS_GEOMETRY
 10
3359.939864
 20
1006.109237
 40
117.801469
 50
146.847161
 51
165.660039
  0
ARC
  8
APS_GEOMETRY
 10
3267.371113
 20
1028.884539
 40
22.492488
 50
163.465616
 51
188.728477
  0
ARC
  8
APS_GEOMETRY
 10
3260.177311
 20
1027.780073
 40
15.214396
 50
188.728477
 51
221.397337
  0
ARC
  8
APS_GEOMETRY
 10
3255.426626
 20
1023.592173
 40
8.881346
 50
221.397337
 51
259.645522
  0
ARC
  8
APS_GEOMETRY
 10
3253.337569
 20
994.442624
 40
20.418786
 50
88.61721
 51
168.774718
  0
ARC
  8
APS_GEOMETRY
 10
3253.302553
 20
994.449573
 40
20.383086
 50
168.774718
 51
211.077773
  0
ARC
  8
APS_GEOMETRY
 10
3244.207794
 20
988.968075
 40
9.764166
 50
211.077773
 51
31.077773
  0
ARC
  8
APS_GEOMETRY
 10
3244.207794
 20
988.968075
 40
9.764166
 50
31.077773
 51
58.922227
  0
ARC
  8
APS_GEOMETRY
 10
3254.277068
 20
991.867503
 40
7.425502
 50
20.044672
 51
132.629956
  0
ARC
  8
APS_GEOMETRY
 10
3227.45658
 20
982.081956
 40
35.97538
 50
8.206243
 51
20.044672
  0
ARC
  8
APS_GEOMETRY
 10
3193.578764
 20
977.196319
 40
70.20367
 50
335.767072
 51
8.206243
  0
ARC
  8
APS_GEOMETRY
 10
3202.943168
 20
955.28
 40
55.08689
 50
352.805913
 51
12.457115
  0
ARC
  8
APS_GEOMETRY
 10
3272.795109
 20
977.803003
 40
19.266571
 50
173.606338
 51
213.52262
  0
ARC
  8
APS_GEOMETRY
 10
3259.878737
 20
969.924458
 40
11.802502
 50
121.862675
 51
146.203809
  0
ARC
  8
APS_GEOMETRY
 10
3259.610156
 20
970.120219
 40
11.470423
 50
146.27017
 51
171.082384
  0
ARC
  8
APS_GEOMETRY
 10
3259.8333
 20
970.100284
 40
11.69397
 50
171.155371
 51
195.647997
  0
ARC
  8
APS_GEOMETRY
 10
3250.351134
 20
960.744396
 40
6.45166
 50
106.00065
 51
132.64885
  0
ARC
  8
APS_GEOMETRY
 10
3250.128936
 20
960.994212
 40
6.117379
 50
132.703371
 51
160.322771
  0
ARC
  8
APS_GEOMETRY
 10
3250.12202
 20
961.009013
 40
6.105894
 50
160.431692
 51
188.086041
  0
ARC
  8
APS_GEOMETRY
 10
3236.440078
 20
949.731348
 40
12.917879
 50
24.028888
 51
53.75942
  0
ARC
  8
APS_GEOMETRY
 10
3237.253666
 20
950.095675
 40
12.026443
 50
352.822098
 51
24.021916
  0
ARC
  8
APS_GEOMETRY
 10
3242.381129
 20
938.311585
 40
12.329278
 50
56.501422
 51
83.257766
  0
ARC
  8
APS_GEOMETRY
 10
3233.380154
 20
941.834925
 40
13.609577
 50
6.607614
 51
39.849612
  0
ARC
  8
APS_GEOMETRY
 10
3234.151291
 20
941.952329
 40
12.830083
 50
331.88821
 51
6.483066
  0
ARC
  8
APS_GEOMETRY
 10
3188.192437
 20
966.504226
 40
64.935859
 50
302.250559
 51
331.88821
  0
ARC
  8
APS_GEOMETRY
 10
3184.244431
 20
935.640558
 40
45.480769
 50
328.069911
 51
355.165842
  0
ARC
  8
APS_GEOMETRY
 10
3244.274247
 20
936.19288
 40
15.350486
 50
156.272673
 51
196.598514
  0
ARC
  8
APS_GEOMETRY
 10
3233.203491
 20
932.593166
 40
10.221227
 50
106.963474
 51
130.21253
  0
ARC
  8
APS_GEOMETRY
 10
3232.956307
 20
932.88313
 40
9.840207
 50
130.203473
 51
154.053179
  0
ARC
  8
APS_GEOMETRY
 10
3232.695725
 20
933.01547
 40
9.547989
 50
154.0831
 51
178.420546
  0
ARC
  8
APS_GEOMETRY
 10
3223.304782
 20
927.789113
 40
5.491673
 50
91.600854
 51
117.348646
  0
ARC
  8
APS_GEOMETRY
 10
3223.215024
 20
927.954927
 40
5.303159
 50
117.310298
 51
143.670153
  0
ARC
  8
APS_GEOMETRY
 10
3223.046115
 20
928.081219
 40
5.092263
 50
143.689011
 51
170.77839
  0
ARC
  8
APS_GEOMETRY
 10
3210.290025
 20
922.855598
 40
9.810666
 50
6.9922
 51
38.012043
  0
ARC
  8
APS_GEOMETRY
 10
3210.398273
 20
922.886201
 40
9.699513
 50
335.631347
 51
6.890614
  0
ARC
  8
APS_GEOMETRY
 10
3212.119621
 20
912.693807
 40
9.43024
 50
41.028349
 51
68.809817
  0
ARC
  8
APS_GEOMETRY
 10
3205.787472
 20
917.287542
 40
10.6073
 50
349.234248
 51
23.318924
  0
ARC
  8
APS_GEOMETRY
 10
3205.593899
 20
917.348211
 40
10.808824
 50
315.4564
 51
349.109979
  0
ARC
  8
APS_GEOMETRY
 10
3195.741475
 20
927.04491
 40
24.632579
 50
214.718976
 51
315.4564
  0
ARC
  8
APS_GEOMETRY
 10
3167.444084
 20
924.867432
 40
14.327658
 50
304.186311
 51
52.39406
  0
ARC
  8
APS_GEOMETRY
 10
3173.244904
 20
936.437566
 40
2.950477
 50
181.017662
 51
355.735797
  0
ARC
  8
APS_GEOMETRY
 10
3172.993577
 20
927.569003
 40
9.219956
 50
107.019697
 51
201.457376
  0
ARC
  8
APS_GEOMETRY
 10
3156.893558
 20
926.493218
 40
7.862116
 50
222.044638
 51
343.012977
  0
ARC
  8
APS_GEOMETRY
 10
3144.203436
 20
925.795109
 40
8.234259
 50
326.312619
 51
103.731956
  0
ARC
  8
APS_GEOMETRY
 10
3148.804659
 20
926.211356
 40
10.023775
 50
130.846306
 51
232.096919
  0
ARC
  8
APS_GEOMETRY
 10
3133.667754
 20
941.515883
 40
24.889822
 50
182.559696
 51
291.146313
  0
ARC
  8
APS_GEOMETRY
 10
3115.042036
 20
929.330168
 40
12.710815
 50
119.397326
 51
202.244658
  0
ARC
  8
APS_GEOMETRY
 10
3090.516083
 20
912.163821
 40
17.761769
 50
44.072471
 51
111.738014
  0
ARC
  8
APS_GEOMETRY
 10
3097.790032
 20
928.010175
 40
13.867605
 50
177.303853
 51
272.696147
  0
ARC
  8
APS_GEOMETRY
 10
3105.119909
 20
902.243689
 40
13.657916
 50
119.269264
 51
166.502711
  0
ARC
  8
APS_GEOMETRY
 10
3070.535251
 20
664.11453
 40
242.255462
 50
84.954889
 51
98.631658
  0
ARC
  8
APS_GEOMETRY
 10
3039.576201
 20
868.05949
 40
35.974077
 50
98.631658
 51
120.506232
  0
ARC
  8
APS_GEOMETRY
 10
3003.05301
 20
868.05949
 40
35.974077
 50
59.493768
 51
81.368342
  0
ARC
  8
APS_GEOMETRY
 10
2972.09396
 20
664.11453
 40
242.255462
 50
81.368342
 51
95.045111
  0
ARC
  8
APS_GEOMETRY
 10
2937.509302
 20
902.243689
 40
13.657916
 50
13.497289
 51
60.730736
  0
ARC
  8
APS_GEOMETRY
 10
2944.839178
 20
928.010175
 40
13.867605
 50
267.303853
 51
2.696147
  0
ARC
  8
APS_GEOMETRY
 10
2952.113128
 20
912.163821
 40
17.761769
 50
68.261986
 51
135.927529
  0
ARC
  8
APS_GEOMETRY
 10
2927.587175
 20
929.330168
 40
12.710815
 50
337.755342
 51
60.602674
  0
ARC
  8
APS_GEOMETRY
 10
2908.961457
 20
941.515883
 40
24.889822
 50
248.853687
 51
357.440304
  0
ARC
  8
APS_GEOMETRY
 10
2893.824552
 20
926.211356
 40
10.023775
 50
307.903081
 51
49.153694
  0
ARC
  8
APS_GEOMETRY
 10
2898.425775
 20
925.795109
 40
8.234259
 50
76.268044
 51
213.687381
  0
ARC
  8
APS_GEOMETRY
 10
2885.735653
 20
926.493218
 40
7.862116
 50
196.987023
 51
317.955362
  0
ARC
  8
APS_GEOMETRY
 10
2869.635633
 20
927.569003
 40
9.219956
 50
338.542624
 51
72.980303
  0
ARC
  8
APS_GEOMETRY
 10
2869.384307
 20
936.437566
 40
2.950477
 50
184.264203
 51
358.982338
  0
ARC
  8
APS_GEOMETRY
 10
2875.185126
 20
924.867432
 40
14.327658
 50
127.60594
 51
235.813689
  0
ARC
  8
APS_GEOMETRY
 10
2846.887736
 20
927.04491
 40
24.632579
 50
224.5436
 51
325.281024
  0
ARC
  8
APS_GEOMETRY
 10
2837.035312
 20
917.348211
 40
10.808824
 50
190.890021
 51
224.5436
  0
ARC
  8
APS_GEOMETRY
 10
2836.841739
 20
917.287542
 40
10.6073
 50
156.681076
 51
190.765752
  0
ARC
  8
APS_GEOMETRY
 10
2830.50959
 20
912.693807
 40
9.43024
 50
111.190183
 51
138.971651
  0
ARC
  8
APS_GEOMETRY
 10
2832.230938
 20
922.886201
 40
9.699513
 50
173.109386
 51
204.368653
  0
ARC
  8
APS_GEOMETRY
 10
2832.339186
 20
922.855598
 40
9.810666
 50
141.987957
 51
173.0078
  0
ARC
  8
APS_GEOMETRY
 10
2819.583096
 20
928.081219
 40
5.092263
 50
9.22161
 51
36.310989
  0
ARC
  8
APS_GEOMETRY
 10
2819.414186
 20
927.954927
 40
5.303159
 50
36.329847
 51
62.689702
  0
ARC
  8
APS_GEOMETRY
 10
2819.324429
 20
927.789113
 40
5.491673
 50
62.651354
 51
88.399146
  0
ARC
  8
APS_GEOMETRY
 10
2809.933486
 20
933.01547
 40
9.547989
 50
1.579454
 51
25.9169
  0
ARC
  8
APS_GEOMETRY
 10
2809.672903
 20
932.88313
 40
9.840207
 50
25.946821
 51
49.796527
  0
ARC
  8
APS_GEOMETRY
 10
2809.42572
 20
932.593166
 40
10.221227
 50
49.78747
 51
73.036526
  0
ARC
  8
APS_GEOMETRY
 10
2798.354963
 20
936.19288
 40
15.350486
 50
343.401486
 51
23.727327
  0
ARC
  8
APS_GEOMETRY
 10
2858.384779
 20
935.640558
 40
45.480769
 50
184.834158
 51
211.930089
  0
ARC
  8
APS_GEOMETRY
 10
2854.436774
 20
966.504226
 40
64.935859
 50
208.11179
 51
237.749441
  0
ARC
  8
APS_GEOMETRY
 10
2808.47792
 20
941.952329
 40
12.830083
 50
173.516934
 51
208.11179
  0
ARC
  8
APS_GEOMETRY
 10
2809.249057
 20
941.834925
 40
13.609577
 50
140.150388
 51
173.392386
  0
ARC
  8
APS_GEOMETRY
 10
2800.248082
 20
938.311585
 40
12.329278
 50
96.742234
 51
123.498578
  0
ARC
  8
APS_GEOMETRY
 10
2805.375545
 20
950.095675
 40
12.026443
 50
155.978084
 51
187.177902
  0
ARC
  8
APS_GEOMETRY
 10
2806.189133
 20
949.731348
 40
12.917879
 50
126.24058
 51
155.971112
  0
ARC
  8
APS_GEOMETRY
 10
2792.507191
 20
961.009013
 40
6.105894
 50
351.913959
 51
19.568308
  0
ARC
  8
APS_GEOMETRY
 10
2792.500275
 20
960.994212
 40
6.117379
 50
19.677229
 51
47.296629
  0
ARC
  8
APS_GEOMETRY
 10
2792.278077
 20
960.744396
 40
6.45166
 50
47.35115
 51
73.99935
  0
ARC
  8
APS_GEOMETRY
 10
2782.795911
 20
970.100284
 40
11.69397
 50
344.352003
 51
8.844629
  0
ARC
  8
APS_GEOMETRY
 10
2783.019055
 20
970.120219
 40
11.470423
 50
8.917616
 51
33.72983
  0
ARC
  8
APS_GEOMETRY
 10
2782.750474
 20
969.924458
 40
11.802502
 50
33.796191
 51
58.137325
  0
ARC
  8
APS_GEOMETRY
 10
2769.834102
 20
977.803003
 40
19.266571
 50
326.47738
 51
6.393662
  0
ARC
  8
APS_GEOMETRY
 10
2839.686043
 20
955.28
 40
55.08689
 50
167.542885
 51
187.194087
  0
ARC
  8
APS_GEOMETRY
 10
2849.050447
 20
977.196319
 40
70.20367
 50
171.793757
 51
204.232928
  0
ARC
  8
APS_GEOMETRY
 10
2815.172631
 20
982.081956
 40
35.97538
 50
159.955328
 51
171.793757
  0
ARC
  8
APS_GEOMETRY
 10
2788.352143
 20
991.867503
 40
7.425502
 50
47.370044
 51
159.955328
  0
ARC
  8
APS_GEOMETRY
 10
2798.421417
 20
988.968075
 40
9.764166
 50
121.077773
 51
301.077773
  0
ARC
  8
APS_GEOMETRY
 10
2798.421417
 20
988.968075
 40
9.764166
 50
301.077773
 51
328.922227
  0
ARC
  8
APS_GEOMETRY
 10
2789.326658
 20
994.449573
 40
20.383086
 50
328.922227
 51
11.225282
  0
ARC
  8
APS_GEOMETRY
 10
2789.291641
 20
994.442624
 40
20.418786
 50
11.225282
 51
91.38279
  0
ARC
  8
APS_GEOMETRY
 10
2787.202585
 20
1023.592173
 40
8.881346
 50
280.354478
 51
318.602663
  0
ARC
  8
APS_GEOMETRY
 10
2782.4519
 20
1027.780073
 40
15.214396
 50
318.602663
 51
351.271523
  0
ARC
  8
APS_GEOMETRY
 10
2775.258098
 20
1028.884539
 40
22.492488
 50
351.271523
 51
16.534384
  0
ARC
  8
APS_GEOMETRY
 10
2682.689347
 20
1006.109237
 40
117.801469
 50
14.339961
 51
33.152839
  0
ARC
  8
APS_GEOMETRY
 10
1673.911253
 20
347.168611
 40
1322.72304
 50
33.152839
 51
33.617647
  0
ARC
  8
APS_GEOMETRY
 10
2800.034741
 20
1095.863314
 40
29.570519
 50
158.722703
 51
213.617647
  0
ARC
  8
APS_GEOMETRY
 10
2778.399202
 20
1107.740658
 40
6.029362
 50
190.963963
 51
334.331279
  0
ARC
  8
APS_GEOMETRY
 10
2774.276735
 20
1109.721896
 40
10.603204
 50
334.331279
 51
37.089908
  0
ARC
  8
APS_GEOMETRY
 10
2775.650244
 20
1110.760292
 40
8.881346
 50
37.089908
 51
72.655566
  0
LINE
  8
APS_GEOMETRY
 10
2778.297909
 11
2778.297909
 20
1119.237802
 21
1889.459518
  0
ARC
  8
APS_GEOMETRY
 10
3020.699674
 20
1598.592425
 40
9.164048
 50
273.847586
 51
12.476421
  0
ARC
  8
APS_GEOMETRY
 10
3037.465596
 20
1605.553975
 40
9.270576
 50
212.505076
 51
32.505076
  0
ARC
  8
APS_GEOMETRY
 10
3037.465596
 20
1605.553975
 40
9.270576
 50
32.505076
 51
147.984037
  0
ARC
  8
APS_GEOMETRY
 10
3060.798099
 20
1622.094447
 40
33.28904
 50
196.429566
 51
200.440399
  0
ARC
  8
APS_GEOMETRY
 10
3076.856515
 20
1626.829702
 40
50.031064
 50
179.204933
 51
196.429566
  0
ARC
  8
APS_GEOMETRY
 10
3100.209279
 20
1626.505625
 40
73.386077
 50
150.795067
 51
179.204933
  0
ARC
  8
APS_GEOMETRY
 10
3079.823154
 20
1637.901349
 40
50.031064
 50
133.570434
 51
150.795067
  0
ARC
  8
APS_GEOMETRY
 10
3068.283785
 20
1650.031408
 40
33.28904
 50
109.129577
 51
133.570434
  0
ARC
  8
APS_GEOMETRY
 10
3063.050754
 20
1665.118308
 40
17.320347
 50
40.870423
 51
109.129577
  0
ARC
  8
APS_GEOMETRY
 10
3050.975366
 20
1654.669185
 40
33.28904
 50
38.892734
 51
40.870423
  0
ARC
  8
APS_GEOMETRY
 10
3076.594851
 20
1669.169142
 40
6.407617
 50
87.404786
 51
267.404786
  0
ARC
  8
APS_GEOMETRY
 10
3076.594851
 20
1669.169142
 40
6.407617
 50
267.404786
 51
290.974821
  0
ARC
  8
APS_GEOMETRY
 10
3075.250395
 20
1672.676173
 40
10.163523
 50
290.974821
 51
45.822052
  0
ARC
  8
APS_GEOMETRY
 10
3050.975366
 20
1654.669185
 40
40.28904
 50
38.892734
 51
40.870423
  0
ARC
  8
APS_GEOMETRY
 10
3063.050754
 20
1665.118308
 40
24.320347
 50
40.870423
 51
109.129577
  0
ARC
  8
APS_GEOMETRY
 10
3068.283785
 20
1650.031408
 40
40.28904
 50
109.129577
 51
133.570434
  0
ARC
  8
APS_GEOMETRY
 10
3079.823154
 20
1637.901349
 40
57.031064
 50
133.570434
 51
150.795067
  0
ARC
  8
APS_GEOMETRY
 10
3100.209279
 20
1626.505625
 40
80.386077
 50
150.795067
 51
156.371298
  0
LINE
  8
APS_GEOMETRY
 10
3026.562605
 11
3016.066605
 20
1658.72501
 21
1658.72501
  0
ARC
  8
APS_GEOMETRY
 10
2942.419931
 20
1626.505625
 40
80.386077
 50
23.628702
 51
29.204933
  0
ARC
  8
APS_GEOMETRY
 10
2962.806057
 20
1637.901349
 40
57.031064
 50
29.204933
 51
46.429566
  0
ARC
  8
APS_GEOMETRY
 10
2974.345426
 20
1650.031408
 40
40.28904
 50
46.429566
 51
70.870423
  0
ARC
  8
APS_GEOMETRY
 10
2979.578457
 20
1665.118308
 40
24.320347
 50
70.870423
 51
139.129577
  0
ARC
  8
APS_GEOMETRY
 10
2991.653844
 20
1654.669185
 40
40.28904
 50
139.129577
 51
141.107266
  0
ARC
  8
APS_GEOMETRY
 10
2967.378816
 20
1672.676173
 40
10.163523
 50
134.177948
 51
249.025179
  0
ARC
  8
APS_GEOMETRY
 10
2966.03436
 20
1669.169142
 40
6.407617
 50
249.025179
 51
69.025179
  0
ARC
  8
APS_GEOMETRY
 10
2966.03436
 20
1669.169142
 40
6.407617
 50
69.025179
 51
92.595214
  0
ARC
  8
APS_GEOMETRY
 10
2991.653844
 20
1654.669185
 40
33.28904
 50
139.129577
 51
141.107266
  0
ARC
  8
APS_GEOMETRY
 10
2979.578457
 20
1665.118308
 40
17.320347
 50
70.870423
 51
139.129577
  0
ARC
  8
APS_GEOMETRY
 10
2974.345426
 20
1650.031408
 40
33.28904
 50
46.429566
 51
70.870423
  0
ARC
  8
APS_GEOMETRY
 10
2962.806057
 20
1637.901349
 40
50.031064
 50
29.204933
 51
46.429566
  0
ARC
  8
APS_GEOMETRY
 10
2942.419931
 20
1626.505625
 40
73.386077
 50
0.795067
 51
29.204933
  0
ARC
  8
APS_GEOMETRY
 10
2965.772696
 20
1626.829702
 40
50.031064
 50
343.570434
 51
0.795067
  0
ARC
  8
APS_GEOMETRY
 10
2981.831112
 20
1622.094447
 40
33.28904
 50
339.559601
 51
343.570434
  0
ARC
  8
APS_GEOMETRY
 10
3005.163615
 20
1605.553975
 40
9.270576
 50
32.015963
 51
212.015963
  0
ARC
  8
APS_GEOMETRY
 10
3005.163615
 20
1605.553975
 40
9.270576
 50
212.015963
 51
327.494924
  0
ARC
  8
APS_GEOMETRY
 10
3021.929537
 20
1598.592425
 40
9.164048
 50
167.523579
 51
266.152414
  0
ARC
  8
APS_GEOMETRY
 10
3020.936786
 20
1699.879729
 40
11.104889
 50
88.05026
 51
121.315335
  0
ARC
  8
APS_GEOMETRY
 10
3024.552078
 20
1693.937202
 40
18.060747
 50
121.315335
 51
145.750967
  0
ARC
  8
APS_GEOMETRY
 10
3030.279072
 20
1690.037972
 40
24.989129
 50
145.750967
 51
164.250606
  0
ARC
  8
APS_GEOMETRY
 10
3039.332946
 20
1687.484619
 40
34.396161
 50
164.250606
 51
195.749394
  0
ARC
  8
APS_GEOMETRY
 10
3030.279072
 20
1684.931265
 40
24.989129
 50
195.749394
 51
214.249033
  0
ARC
  8
APS_GEOMETRY
 10
3024.552078
 20
1681.032035
 40
18.060747
 50
214.249033
 51
238.684665
  0
ARC
  8
APS_GEOMETRY
 10
3020.936786
 20
1675.089508
 40
11.104889
 50
238.684665
 51
271.94974
  0
ARC
  8
APS_GEOMETRY
 10
3021.692425
 20
1675.089508
 40
11.104889
 50
268.05026
 51
301.315335
  0
ARC
  8
APS_GEOMETRY
 10
3018.077133
 20
1681.032035
 40
18.060747
 50
301.315335
 51
325.750967
  0
ARC
  8
APS_GEOMETRY
 10
3012.350138
 20
1684.931265
 40
24.989129
 50
325.750967
 51
344.250606
  0
ARC
  8
APS_GEOMETRY
 10
3003.296264
 20
1687.484619
 40
34.396161
 50
344.250606
 51
15.749394
  0
ARC
  8
APS_GEOMETRY
 10
3012.350138
 20
1690.037972
 40
24.989129
 50
15.749394
 51
34.249033
  0
ARC
  8
APS_GEOMETRY
 10
3018.077133
 20
1693.937202
 40
18.060747
 50
34.249033
 51
58.684665
  0
ARC
  8
APS_GEOMETRY
 10
3021.692425
 20
1699.879729
 40
11.104889
 50
58.684665
 51
91.94974
  0
ARC
  8
APS_GEOMETRY
 10
3008.705434
 20
1892.797256
 40
95.354721
 50
192.838694
 51
220.640771
  0
ARC
  8
APS_GEOMETRY
 10
2921.862959
 20
1795.530677
 40
38.028062
 50
67.607855
 51
124.306407
  0
ARC
  8
APS_GEOMETRY
 10
2832.674858
 20
1875.11484
 40
83.133735
 50
324.588302
 51
357.582898
  0
ARC
  8
APS_GEOMETRY
 10
3018.968379
 20
1877.658446
 40
7.055528
 50
70.577147
 51
176.096482
  0
ARC
  8
APS_GEOMETRY
 10
2974.979281
 20
1880.660035
 40
37.035858
 50
311.869953
 51
356.096482
  0
ARC
  8
APS_GEOMETRY
 10
3005.366434
 20
1859.728868
 40
8.736176
 50
229.550281
 51
312.262554
  0
ARC
  8
APS_GEOMETRY
 10
3029.539995
 20
1852.420346
 40
18.317644
 50
177.36183
 51
243.317771
  0
ARC
  8
APS_GEOMETRY
 10
3013.089216
 20
1852.420346
 40
18.317644
 50
296.682229
 51
2.63817
  0
ARC
  8
APS_GEOMETRY
 10
3037.262777
 20
1859.728868
 40
8.736176
 50
227.737446
 51
310.449719
  0
ARC
  8
APS_GEOMETRY
 10
3067.649929
 20
1880.660035
 40
37.035858
 50
183.903518
 51
228.130047
  0
ARC
  8
APS_GEOMETRY
 10
3023.660832
 20
1877.658446
 40
7.055528
 50
3.903518
 51
109.422853
  0
ARC
  8
APS_GEOMETRY
 10
3209.954353
 20
1875.11484
 40
83.133735
 50
182.417102
 51
215.411698
  0
ARC
  8
APS_GEOMETRY
 10
3120.766252
 20
1795.530677
 40
38.028062
 50
55.693593
 51
112.392145
  0
ARC
  8
APS_GEOMETRY
 10
3033.923777
 20
1892.797256
 40
95.354721
 50
319.359229
 51
347.161306
  0
ARC
  8
APS_GEOMETRY
 10
3021.303275
 20
1891.711796
 40
5.818927
 50
270.111565
 51
89.888435
  0
ARC
  8
APS_GEOMETRY
 10
3021.325936
 20
1891.711796
 40
5.818927
 50
90.111565
 51
269.888435
  0
ARC
  8
APS_GEOMETRY
 10
3025.88359
 20
1977.299465
 40
17.173325
 50
105.429429
 51
183.288309
  0
ARC
  8
APS_GEOMETRY
 10
3000.234114
 20
1966.963627
 40
12.639707
 50
47.713813
 51
74.961848
  0
ARC
  8
APS_GEOMETRY
 10
3009.933685
 20
1973.944847
 40
8.277927
 50
140.856014
 51
262.746805
  0
ARC
  8
APS_GEOMETRY
 10
2999.482449
 20
1960.71427
 40
10.661343
 50
345.08051
 51
28.083379
  0
ARC
  8
APS_GEOMETRY
 10
3018.684162
 20
1973.659223
 40
18.038212
 50
196.882916
 51
240.436701
  0
ARC
  8
APS_GEOMETRY
 10
2999.267276
 20
1967.704844
 40
2.271822
 50
18.364905
 51
198.364905
  0
ARC
  8
APS_GEOMETRY
 10
2999.267276
 20
1967.704844
 40
2.271822
 50
198.364905
 51
240.213909
  0
ARC
  8
APS_GEOMETRY
 10
2996.741392
 20
1968.577582
 40
3.169109
 50
166.517727
 51
296.162656
  0
ARC
  8
APS_GEOMETRY
 10
2989.133641
 20
1967.430185
 40
4.903307
 50
22.624546
 51
164.758226
  0
ARC
  8
APS_GEOMETRY
 10
2984.234841
 20
1960.75016
 40
7.970838
 50
16.737793
 51
88.792539
  0
ARC
  8
APS_GEOMETRY
 10
2975.45703
 20
1937.451116
 40
30.403978
 50
320.84807
 51
57.332484
  0
ARC
  8
APS_GEOMETRY
 10
3005.603887
 20
1882.496526
 40
36.3566
 50
79.589927
 51
100.410073
  0
ARC
  8
APS_GEOMETRY
 10
3004.597607
 20
1915.102321
 40
8.205337
 50
317.842053
 51
22.593133
  0
ARC
  8
APS_GEOMETRY
 10
3014.061722
 20
1906.22164
 40
4.776488
 50
31.245999
 51
135.068454
  0
ARC
  8
APS_GEOMETRY
 10
3022.352213
 20
1904.843729
 40
5.706375
 50
137.49497
 51
259.523447
  0
ARC
  8
APS_GEOMETRY
 10
3020.276997
 20
1904.843729
 40
5.706375
 50
280.476553
 51
42.50503
  0
ARC
  8
APS_GEOMETRY
 10
3028.567489
 20
1906.22164
 40
4.776488
 50
44.931546
 51
148.754001
  0
ARC
  8
APS_GEOMETRY
 10
3038.031604
 20
1915.102321
 40
8.205337
 50
157.406867
 51
222.157947
  0
ARC
  8
APS_GEOMETRY
 10
3037.025324
 20
1882.496526
 40
36.3566
 50
79.589927
 51
100.410073
  0
ARC
  8
APS_GEOMETRY
 10
3067.172181
 20
1937.451116
 40
30.403978
 50
122.667516
 51
219.15193
  0
ARC
  8
APS_GEOMETRY
 10
3058.39437
 20
1960.75016
 40
7.970838
 50
91.207461
 51
163.262207
  0
ARC
  8
APS_GEOMETRY
 10
3053.49557
 20
1967.430185
 40
4.903307
 50
15.241774
 51
157.375454
  0
ARC
  8
APS_GEOMETRY
 10
3045.887819
 20
1968.577582
 40
3.169109
 50
243.837344
 51
13.482273
  0
ARC
  8
APS_GEOMETRY
 10
3043.361935
 20
1967.704844
 40
2.271822
 50
299.786091
 51
119.786091
  0
ARC
  8
APS_GEOMETRY
 10
3043.361935
 20
1967.704844
 40
2.271822
 50
119.786091
 51
161.635095
  0
ARC
  8
APS_GEOMETRY
 10
3023.945049
 20
1973.659223
 40
18.038212
 50
299.563299
 51
343.117084
  0
ARC
  8
APS_GEOMETRY
 10
3043.146762
 20
1960.71427
 40
10.661343
 50
151.916621
 51
194.91949
  0
ARC
  8
APS_GEOMETRY
 10
3032.695526
 20
1973.944847
 40
8.277927
 50
277.253195
 51
39.143986
  0
ARC
  8
APS_GEOMETRY
 10
3042.395097
 20
1966.963627
 40
12.639707
 50
105.038152
 51
132.286187
  0
ARC
  8
APS_GEOMETRY
 10
3016.74562
 20
1977.299465
 40
17.173325
 50
356.711691
 51
74.570571
  0
ARC
  8
APS_GEOMETRY
 10
3007.392334
 20
1933.367562
 40
9.971025
 50
348.29908
 51
0.0
  0
ARC
  8
APS_GEOMETRY
 10
3011.092871
 20
1932.601156
 40
6.191957
 50
333.434949
 51
348.29908
  0
ARC
  8
APS_GEOMETRY
 10
3013.419685
 20
1931.437749
 40
3.5905
 50
309.639272
 51
333.434949
  0
ARC
  8
APS_GEOMETRY
 10
3014.86336
 20
1929.69508
 40
1.327518
 50
270.0
 51
309.639272
  0
ARC
  8
APS_GEOMETRY
 10
3014.86336
 20
1929.69508
 40
1.327518
 50
230.360728
 51
270.0
  0
ARC
  8
APS_GEOMETRY
 10
3016.307034
 20
1931.437749
 40
3.5905
 50
206.565051
 51
230.360728
  0
ARC
  8
APS_GEOMETRY
 10
3018.633848
 20
1932.601156
 40
6.191957
 50
191.70092
 51
206.565051
  0
ARC
  8
APS_GEOMETRY
 10
3022.334385
 20
1933.367562
 40
9.971025
 50
180.0
 51
191.70092
  0
ARC
  8
APS_GEOMETRY
 10
3022.334385
 20
1933.367562
 40
9.971025
 50
168.29908
 51
180.0
  0
ARC
  8
APS_GEOMETRY
 10
3018.633848
 20
1934.133968
 40
6.191957
 50
153.434949
 51
168.29908
  0
ARC
  8
APS_GEOMETRY
 10
3016.307034
 20
1935.297376
 40
3.5905
 50
129.639272
 51
153.434949
  0
ARC
  8
APS_GEOMETRY
 10
3014.86336
 20
1937.040044
 40
1.327518
 50
90.0
 51
129.639272
  0
ARC
  8
APS_GEOMETRY
 10
3014.86336
 20
1937.040044
 40
1.327518
 50
50.360728
 51
90.0
  0
ARC
  8
APS_GEOMETRY
 10
3013.419685
 20
1935.297376
 40
3.5905
 50
26.565051
 51
50.360728
  0
ARC
  8
APS_GEOMETRY
 10
3011.092871
 20
1934.133968
 40
6.191957
 50
11.70092
 51
26.565051
  0
ARC
  8
APS_GEOMETRY
 10
3007.392334
 20
1933.367562
 40
9.971025
 50
360.0
 51
11.70092
  0
ARC
  8
APS_GEOMETRY
 10
3004.886368
 20
1948.210594
 40
9.971025
 50
348.29908
 51
0.0
  0
ARC
  8
APS_GEOMETRY
 10
3008.586905
 20
1947.444188
 40
6.191957
 50
333.434949
 51
348.29908
  0
ARC
  8
APS_GEOMETRY
 10
3010.913719
 20
1946.280781
 40
3.5905
 50
309.639272
 51
333.434949
  0
ARC
  8
APS_GEOMETRY
 10
3012.357393
 20
1944.538112
 40
1.327518
 50
270.0
 51
309.639272
  0
ARC
  8
APS_GEOMETRY
 10
3012.357393
 20
1944.538112
 40
1.327518
 50
230.360728
 51
270.0
  0
ARC
  8
APS_GEOMETRY
 10
3013.801067
 20
1946.280781
 40
3.5905
 50
206.565051
 51
230.360728
  0
ARC
  8
APS_GEOMETRY
 10
3016.127881
 20
1947.444188
 40
6.191957
 50
191.70092
 51
206.565051
  0
ARC
  8
APS_GEOMETRY
 10
3019.828419
 20
1948.210594
 40
9.971025
 50
180.0
 51
191.70092
  0
ARC
  8
APS_GEOMETRY
 10
3019.828419
 20
1948.210594
 40
9.971025
 50
168.29908
 51
180.0
  0
ARC
  8
APS_GEOMETRY
 10
3016.127881
 20
1948.977001
 40
6.191957
 50
153.434949
 51
168.29908
  0
ARC
  8
APS_GEOMETRY
 10
3013.801067
 20
1950.140408
 40
3.5905
 50
129.639272
 51
153.434949
  0
ARC
  8
APS_GEOMETRY
 10
3012.357393
 20
1951.883076
 40
1.327518
 50
90.0
 51
129.639272
  0
ARC
  8
APS_GEOMETRY
 10
3012.357393
 20
1951.883076
 40
1.327518
 50
50.360728
 51
90.0
  0
ARC
  8
APS_GEOMETRY
 10
3010.913719
 20
1950.140408
 40
3.5905
 50
26.565051
 51
50.360728
  0
ARC
  8
APS_GEOMETRY
 10
3008.586905
 20
1948.977001
 40
6.191957
 50
11.70092
 51
26.565051
  0
ARC
  8
APS_GEOMETRY
 10
3004.886368
 20
1948.210594
 40
9.971025
 50
360.0
 51
11.70092
  0
ARC
  8
APS_GEOMETRY
 10
3037.742843
 20
1948.210594
 40
9.971025
 50
168.29908
 51
180.0
  0
ARC
  8
APS_GEOMETRY
 10
3034.042306
 20
1948.977001
 40
6.191957
 50
153.434949
 51
168.29908
  0
ARC
  8
APS_GEOMETRY
 10
3031.715492
 20
1950.140408
 40
3.5905
 50
129.639272
 51
153.434949
  0
ARC
  8
APS_GEOMETRY
 10
3030.271818
 20
1951.883076
 40
1.327518
 50
90.0
 51
129.639272
  0
ARC
  8
APS_GEOMETRY
 10
3030.271818
 20
1951.883076
 40
1.327518
 50
50.360728
 51
90.0
  0
ARC
  8
APS_GEOMETRY
 10
3028.828144
 20
1950.140408
 40
3.5905
 50
26.565051
 51
50.360728
  0
ARC
  8
APS_GEOMETRY
 10
3026.50133
 20
1948.977001
 40
6.191957
 50
11.70092
 51
26.565051
  0
ARC
  8
APS_GEOMETRY
 10
3022.800792
 20
1948.210594
 40
9.971025
 50
0.0
 51
11.70092
  0
ARC
  8
APS_GEOMETRY
 10
3022.800792
 20
1948.210594
 40
9.971025
 50
348.29908
 51
0.0
  0
ARC
  8
APS_GEOMETRY
 10
3026.50133
 20
1947.444188
 40
6.191957
 50
333.434949
 51
348.29908
  0
ARC
  8
APS_GEOMETRY
 10
3028.828144
 20
1946.280781
 40
3.5905
 50
309.639272
 51
333.434949
  0
ARC
  8
APS_GEOMETRY
 10
3030.271818
 20
1944.538112
 40
1.327518
 50
270.0
 51
309.639272
  0
ARC
  8
APS_GEOMETRY
 10
3030.271818
 20
1944.538112
 40
1.327518
 50
230.360728
 51
270.0
  0
ARC
  8
APS_GEOMETRY
 10
3031.715492
 20
1946.280781
 40
3.5905
 50
206.565051
 51
230.360728
  0
ARC
  8
APS_GEOMETRY
 10
3034.042306
 20
1947.444188
 40
6.191957
 50
191.70092
 51
206.565051
  0
ARC
  8
APS_GEOMETRY
 10
3037.742843
 20
1948.210594
 40
9.971025
 50
180.0
 51
191.70092
  0
ARC
  8
APS_GEOMETRY
 10
3035.236877
 20
1933.367562
 40
9.971025
 50
168.29908
 51
180.0
  0
ARC
  8
APS_GEOMETRY
 10
3031.536339
 20
1934.133968
 40
6.191957
 50
153.434949
 51
168.29908
  0
ARC
  8
APS_GEOMETRY
 10
3029.209525
 20
1935.297376
 40
3.5905
 50
129.639272
 51
153.434949
  0
ARC
  8
APS_GEOMETRY
 10
3027.765851
 20
1937.040044
 40
1.327518
 50
90.0
 51
129.639272
  0
ARC
  8
APS_GEOMETRY
 10
3027.765851
 20
1937.040044
 40
1.327518
 50
50.360728
 51
90.0
  0
ARC
  8
APS_GEOMETRY
 10
3026.322177
 20
1935.297376
 40
3.5905
 50
26.565051
 51
50.360728
  0
ARC
  8
APS_GEOMETRY
 10
3023.995363
 20
1934.133968
 40
6.191957
 50
11.70092
 51
26.565051
  0
ARC
  8
APS_GEOMETRY
 10
3020.294826
 20
1933.367562
 40
9.971025
 50
0.0
 51
11.70092
  0
ARC
  8
APS_GEOMETRY
 10
3020.294826
 20
1933.367562
 40
9.971025
 50
348.29908
 51
0.0
  0
ARC
  8
APS_GEOMETRY
 10
3023.995363
 20
1932.601156
 40
6.191957
 50
333.434949
 51
348.29908
  0
ARC
  8
APS_GEOMETRY
 10
3026.322177
 20
1931.437749
 40
3.5905
 50
309.639272
 51
333.434949
  0
ARC
  8
APS_GEOMETRY
 10
3027.765851
 20
1929.69508
 40
1.327518
 50
270.0
 51
309.639272
  0
ARC
  8
APS_GEOMETRY
 10
3027.765851
 20
1929.69508
 40
1.327518
 50
230.360728
 51
270.0
  0
ARC
  8
APS_GEOMETRY
 10
3029.209525
 20
1931.437749
 40
3.5905
 50
206.565051
 51
230.360728
  0
ARC
  8
APS_GEOMETRY
 10
3031.536339
 20
1932.601156
 40
6.191957
 50
191.70092
 51
206.565051
  0
ARC
  8
APS_GEOMETRY
 10
3035.236877
 20
1933.367562
 40
9.971025
 50
180.0
 51
191.70092
  0
LINE
  8
MATERIALE_GREZZO
 10
3434.814605
 11
3434.814605
 20
40.996736
 21
2149.996736
  0
LINE
  8
MATERIALE_GREZZO
 10
3434.814605
 11
2607.814605
 20
2149.996736
 21
2149.996736
  0
LINE
  8
MATERIALE_GREZZO
 10
2607.814605
 11
2607.814605
 20
2149.996736
 21
40.996736
  0
LINE
  8
MATERIALE_GREZZO
 10
2607.814605
 11
3434.814605
 20
40.996736
 21
40.996736
  0
ENDSEC
  0
EOF
